<?xml version="1.0" encoding="UTF-8" standalone="no"?>
<!DOCTYPE svg PUBLIC "-//W3C//DTD SVG 1.1//EN"
 "http://www.w3.org/Graphics/SVG/1.1/DTD/svg11.dtd">
<!-- Generated by graphviz version 2.43.0 (0)
 -->
<!-- Title: test/testRadioStatus Pages: 1 -->
<svg width="188pt" height="167pt"
 viewBox="0.00 0.00 188.00 167.00" xmlns="http://www.w3.org/2000/svg" xmlns:xlink="http://www.w3.org/1999/xlink">
<g id="graph0" class="graph" transform="scale(1 1) rotate(0) translate(4 163)">
<title>test/testRadioStatus</title>
<polygon fill="white" stroke="transparent" points="-4,4 -4,-163 184,-163 184,4 -4,4"/>
<g id="clust1" class="cluster">
<title>clusterdir_13e138d54eb8818da29c3992edef070a</title>
<g id="a_clust1"><a xlink:href="dir_13e138d54eb8818da29c3992edef070a.html" target="_top" xlink:title="test">
<polygon fill="#edf0f7" stroke="#404040" stroke-dasharray="5,2" points="8,-8 8,-151 118,-151 118,-8 8,-8"/>
<text text-anchor="middle" x="63" y="-139" font-family="Helvetica,sans-Serif" font-size="10.00">test</text>
</a>
</g>
</g>
<!-- dir_d95f75131b2de54c8b593f2f5b1ba915 -->
<g id="node1" class="node">
<title>dir_d95f75131b2de54c8b593f2f5b1ba915</title>
<g id="a_node1"><a xlink:href="dir_d95f75131b2de54c8b593f2f5b1ba915.html" target="_top" xlink:title="testHelper">
<polygon fill="#a2b4d6" stroke="#404040" points="97,-52 29,-52 29,-16 97,-16 97,-52"/>
<text text-anchor="middle" x="63" y="-31.5" font-family="Helvetica,sans-Serif" font-size="10.00">testHelper</text>
</a>
</g>
</g>
<!-- dir_e2d3dad0c51265642f6750a38604822f -->
<g id="node2" class="node">
<title>dir_e2d3dad0c51265642f6750a38604822f</title>
<g id="a_node2"><a xlink:href="dir_e2d3dad0c51265642f6750a38604822f.html" target="_top" xlink:title="testRadioStatus">
<polygon fill="#edf0f7" stroke="#404040" stroke-width="2" points="110,-124 16,-124 16,-88 110,-88 110,-124"/>
<text text-anchor="middle" x="63" y="-103.5" font-family="Helvetica,sans-Serif" font-size="10.00">testRadioStatus</text>
</a>
</g>
</g>
<!-- dir_e2d3dad0c51265642f6750a38604822f&#45;&gt;dir_d95f75131b2de54c8b593f2f5b1ba915 -->
<g id="edge2" class="edge">
<title>dir_e2d3dad0c51265642f6750a38604822f&#45;&gt;dir_d95f75131b2de54c8b593f2f5b1ba915</title>
<path fill="none" stroke="black" d="M63,-87.7C63,-79.98 63,-70.71 63,-62.11"/>
<polygon fill="black" stroke="black" points="66.5,-62.1 63,-52.1 59.5,-62.1 66.5,-62.1"/>
<g id="a_edge2&#45;headlabel"><a xlink:href="dir_000029_000025.html" target="_top" xlink:title="5">
<text text-anchor="middle" x="69.34" y="-63.2" font-family="Helvetica,sans-Serif" font-size="10.00">5</text>
</a>
</g>
</g>
<!-- dir_d44c64559bbebec7f509842c48db8b23 -->
<g id="node3" class="node">
<title>dir_d44c64559bbebec7f509842c48db8b23</title>
<g id="a_node3"><a xlink:href="dir_d44c64559bbebec7f509842c48db8b23.html" target="_top" xlink:title="include">
<polygon fill="none" stroke="red" points="180,-52 126,-52 126,-16 180,-16 180,-52"/>
<text text-anchor="middle" x="153" y="-31.5" font-family="Helvetica,sans-Serif" font-size="10.00">include</text>
</a>
</g>
</g>
<!-- dir_e2d3dad0c51265642f6750a38604822f&#45;&gt;dir_d44c64559bbebec7f509842c48db8b23 -->
<g id="edge1" class="edge">
<title>dir_e2d3dad0c51265642f6750a38604822f&#45;&gt;dir_d44c64559bbebec7f509842c48db8b23</title>
<path fill="none" stroke="black" d="M85.25,-87.7C96.58,-78.88 110.53,-68.03 122.82,-58.47"/>
<polygon fill="black" stroke="black" points="125.26,-61.01 131.01,-52.1 120.97,-55.48 125.26,-61.01"/>
<g id="a_edge1&#45;headlabel"><a xlink:href="dir_000029_000009.html" target="_top" xlink:title="5">
<text text-anchor="middle" x="124.17" y="-62.95" font-family="Helvetica,sans-Serif" font-size="10.00">5</text>
</a>
</g>
</g>
</g>
</svg>
