<?xml version="1.0" encoding="UTF-8" standalone="no"?>
<!DOCTYPE svg PUBLIC "-//W3C//DTD SVG 1.1//EN"
 "http://www.w3.org/Graphics/SVG/1.1/DTD/svg11.dtd">
<!-- Generated by graphviz version 2.43.0 (0)
 -->
<!-- Title: test/testStaStatsWiFi7 Pages: 1 -->
<svg width="198pt" height="167pt"
 viewBox="0.00 0.00 198.00 167.00" xmlns="http://www.w3.org/2000/svg" xmlns:xlink="http://www.w3.org/1999/xlink">
<g id="graph0" class="graph" transform="scale(1 1) rotate(0) translate(4 163)">
<title>test/testStaStatsWiFi7</title>
<polygon fill="white" stroke="transparent" points="-4,4 -4,-163 194,-163 194,4 -4,4"/>
<g id="clust1" class="cluster">
<title>clusterdir_13e138d54eb8818da29c3992edef070a</title>
<g id="a_clust1"><a xlink:href="dir_13e138d54eb8818da29c3992edef070a.html" target="_top" xlink:title="test">
<polygon fill="#edf0f7" stroke="#404040" stroke-dasharray="5,2" points="8,-8 8,-151 128,-151 128,-8 8,-8"/>
<text text-anchor="middle" x="68" y="-139" font-family="Helvetica,sans-Serif" font-size="10.00">test</text>
</a>
</g>
</g>
<!-- dir_d95f75131b2de54c8b593f2f5b1ba915 -->
<g id="node1" class="node">
<title>dir_d95f75131b2de54c8b593f2f5b1ba915</title>
<g id="a_node1"><a xlink:href="dir_d95f75131b2de54c8b593f2f5b1ba915.html" target="_top" xlink:title="testHelper">
<polygon fill="#a2b4d6" stroke="#404040" points="102,-52 34,-52 34,-16 102,-16 102,-52"/>
<text text-anchor="middle" x="68" y="-31.5" font-family="Helvetica,sans-Serif" font-size="10.00">testHelper</text>
</a>
</g>
</g>
<!-- dir_4a352b3148d06f01679694c4b47eb9af -->
<g id="node2" class="node">
<title>dir_4a352b3148d06f01679694c4b47eb9af</title>
<g id="a_node2"><a xlink:href="dir_4a352b3148d06f01679694c4b47eb9af.html" target="_top" xlink:title="testStaStatsWiFi7">
<polygon fill="#edf0f7" stroke="#404040" stroke-width="2" points="119.5,-124 16.5,-124 16.5,-88 119.5,-88 119.5,-124"/>
<text text-anchor="middle" x="68" y="-103.5" font-family="Helvetica,sans-Serif" font-size="10.00">testStaStatsWiFi7</text>
</a>
</g>
</g>
<!-- dir_4a352b3148d06f01679694c4b47eb9af&#45;&gt;dir_d95f75131b2de54c8b593f2f5b1ba915 -->
<g id="edge2" class="edge">
<title>dir_4a352b3148d06f01679694c4b47eb9af&#45;&gt;dir_d95f75131b2de54c8b593f2f5b1ba915</title>
<path fill="none" stroke="black" d="M68,-87.7C68,-79.98 68,-70.71 68,-62.11"/>
<polygon fill="black" stroke="black" points="71.5,-62.1 68,-52.1 64.5,-62.1 71.5,-62.1"/>
<g id="a_edge2&#45;headlabel"><a xlink:href="dir_000032_000025.html" target="_top" xlink:title="5">
<text text-anchor="middle" x="74.34" y="-63.2" font-family="Helvetica,sans-Serif" font-size="10.00">5</text>
</a>
</g>
</g>
<!-- dir_d44c64559bbebec7f509842c48db8b23 -->
<g id="node3" class="node">
<title>dir_d44c64559bbebec7f509842c48db8b23</title>
<g id="a_node3"><a xlink:href="dir_d44c64559bbebec7f509842c48db8b23.html" target="_top" xlink:title="include">
<polygon fill="none" stroke="red" points="190,-52 136,-52 136,-16 190,-16 190,-52"/>
<text text-anchor="middle" x="163" y="-31.5" font-family="Helvetica,sans-Serif" font-size="10.00">include</text>
</a>
</g>
</g>
<!-- dir_4a352b3148d06f01679694c4b47eb9af&#45;&gt;dir_d44c64559bbebec7f509842c48db8b23 -->
<g id="edge1" class="edge">
<title>dir_4a352b3148d06f01679694c4b47eb9af&#45;&gt;dir_d44c64559bbebec7f509842c48db8b23</title>
<path fill="none" stroke="black" d="M91.48,-87.7C103.56,-78.8 118.45,-67.82 131.52,-58.2"/>
<polygon fill="black" stroke="black" points="133.81,-60.85 139.79,-52.1 129.66,-55.22 133.81,-60.85"/>
<g id="a_edge1&#45;headlabel"><a xlink:href="dir_000032_000009.html" target="_top" xlink:title="4">
<text text-anchor="middle" x="132.6" y="-62.77" font-family="Helvetica,sans-Serif" font-size="10.00">4</text>
</a>
</g>
</g>
</g>
</svg>
