<?xml version="1.0" encoding="UTF-8" standalone="no"?>
<!DOCTYPE svg PUBLIC "-//W3C//DTD SVG 1.1//EN"
 "http://www.w3.org/Graphics/SVG/1.1/DTD/svg11.dtd">
<!-- Generated by graphviz version 2.43.0 (0)
 -->
<!-- Title: test/fta Pages: 1 -->
<svg width="258pt" height="167pt"
 viewBox="0.00 0.00 258.00 167.00" xmlns="http://www.w3.org/2000/svg" xmlns:xlink="http://www.w3.org/1999/xlink">
<g id="graph0" class="graph" transform="scale(1 1) rotate(0) translate(4 163)">
<title>test/fta</title>
<polygon fill="white" stroke="transparent" points="-4,4 -4,-163 254,-163 254,4 -4,4"/>
<g id="clust1" class="cluster">
<title>clusterdir_13e138d54eb8818da29c3992edef070a</title>
<g id="a_clust1"><a xlink:href="dir_13e138d54eb8818da29c3992edef070a.html" target="_top" xlink:title="test">
<polygon fill="#edf0f7" stroke="#404040" stroke-dasharray="5,2" points="8,-8 8,-151 92,-151 92,-8 8,-8"/>
<text text-anchor="middle" x="50" y="-139" font-family="Helvetica,sans-Serif" font-size="10.00">test</text>
</a>
</g>
</g>
<!-- dir_d95f75131b2de54c8b593f2f5b1ba915 -->
<g id="node1" class="node">
<title>dir_d95f75131b2de54c8b593f2f5b1ba915</title>
<g id="a_node1"><a xlink:href="dir_d95f75131b2de54c8b593f2f5b1ba915.html" target="_top" xlink:title="testHelper">
<polygon fill="#a2b4d6" stroke="#404040" points="84,-52 16,-52 16,-16 84,-16 84,-52"/>
<text text-anchor="middle" x="50" y="-31.5" font-family="Helvetica,sans-Serif" font-size="10.00">testHelper</text>
</a>
</g>
</g>
<!-- dir_55aac6f60d893cebedbcbb41f8e66b6c -->
<g id="node2" class="node">
<title>dir_55aac6f60d893cebedbcbb41f8e66b6c</title>
<g id="a_node2"><a xlink:href="dir_55aac6f60d893cebedbcbb41f8e66b6c.html" target="_top" xlink:title="fta">
<polygon fill="#edf0f7" stroke="#404040" stroke-width="2" points="84,-124 30,-124 30,-88 84,-88 84,-124"/>
<text text-anchor="middle" x="57" y="-103.5" font-family="Helvetica,sans-Serif" font-size="10.00">fta</text>
</a>
</g>
</g>
<!-- dir_55aac6f60d893cebedbcbb41f8e66b6c&#45;&gt;dir_d95f75131b2de54c8b593f2f5b1ba915 -->
<g id="edge3" class="edge">
<title>dir_55aac6f60d893cebedbcbb41f8e66b6c&#45;&gt;dir_d95f75131b2de54c8b593f2f5b1ba915</title>
<path fill="none" stroke="black" d="M55.27,-87.7C54.5,-79.98 53.57,-70.71 52.71,-62.11"/>
<polygon fill="black" stroke="black" points="56.19,-61.71 51.71,-52.1 49.22,-62.4 56.19,-61.71"/>
<g id="a_edge3&#45;headlabel"><a xlink:href="dir_000008_000025.html" target="_top" xlink:title="4">
<text text-anchor="middle" x="59.37" y="-62.5" font-family="Helvetica,sans-Serif" font-size="10.00">4</text>
</a>
</g>
</g>
<!-- dir_4f4a5d00c9976ec836e15db273d66324 -->
<g id="node3" class="node">
<title>dir_4f4a5d00c9976ec836e15db273d66324</title>
<g id="a_node3"><a xlink:href="dir_4f4a5d00c9976ec836e15db273d66324.html" target="_top" xlink:title="include_priv">
<polygon fill="none" stroke="red" points="178,-52 102,-52 102,-16 178,-16 178,-52"/>
<text text-anchor="middle" x="140" y="-31.5" font-family="Helvetica,sans-Serif" font-size="10.00">include_priv</text>
</a>
</g>
</g>
<!-- dir_55aac6f60d893cebedbcbb41f8e66b6c&#45;&gt;dir_4f4a5d00c9976ec836e15db273d66324 -->
<g id="edge1" class="edge">
<title>dir_55aac6f60d893cebedbcbb41f8e66b6c&#45;&gt;dir_4f4a5d00c9976ec836e15db273d66324</title>
<path fill="none" stroke="black" d="M77.52,-87.7C87.87,-78.97 100.59,-68.24 111.84,-58.75"/>
<polygon fill="black" stroke="black" points="114.33,-61.23 119.72,-52.1 109.82,-55.88 114.33,-61.23"/>
<g id="a_edge1&#45;headlabel"><a xlink:href="dir_000008_000010.html" target="_top" xlink:title="2">
<text text-anchor="middle" x="113.41" y="-63.21" font-family="Helvetica,sans-Serif" font-size="10.00">2</text>
</a>
</g>
</g>
<!-- dir_d44c64559bbebec7f509842c48db8b23 -->
<g id="node4" class="node">
<title>dir_d44c64559bbebec7f509842c48db8b23</title>
<g id="a_node4"><a xlink:href="dir_d44c64559bbebec7f509842c48db8b23.html" target="_top" xlink:title="include">
<polygon fill="none" stroke="red" points="250,-52 196,-52 196,-16 250,-16 250,-52"/>
<text text-anchor="middle" x="223" y="-31.5" font-family="Helvetica,sans-Serif" font-size="10.00">include</text>
</a>
</g>
</g>
<!-- dir_55aac6f60d893cebedbcbb41f8e66b6c&#45;&gt;dir_d44c64559bbebec7f509842c48db8b23 -->
<g id="edge2" class="edge">
<title>dir_55aac6f60d893cebedbcbb41f8e66b6c&#45;&gt;dir_d44c64559bbebec7f509842c48db8b23</title>
<path fill="none" stroke="black" d="M84.07,-94.46C108.63,-84.79 146.02,-69.79 186.67,-52.04"/>
<polygon fill="black" stroke="black" points="188.2,-55.19 195.95,-47.97 185.38,-48.78 188.2,-55.19"/>
<g id="a_edge2&#45;headlabel"><a xlink:href="dir_000008_000009.html" target="_top" xlink:title="5">
<text text-anchor="middle" x="186.05" y="-56.74" font-family="Helvetica,sans-Serif" font-size="10.00">5</text>
</a>
</g>
</g>
</g>
</svg>
