<?xml version="1.0" encoding="UTF-8" standalone="no"?>
<!DOCTYPE svg PUBLIC "-//W3C//DTD SVG 1.1//EN"
 "http://www.w3.org/Graphics/SVG/1.1/DTD/svg11.dtd">
<!-- Generated by graphviz version 2.43.0 (0)
 -->
<!-- Title: src Pages: 1 -->
<svg width="850pt" height="132pt"
 viewBox="0.00 0.00 850.00 132.00" xmlns="http://www.w3.org/2000/svg" xmlns:xlink="http://www.w3.org/1999/xlink">
<g id="graph0" class="graph" transform="scale(1 1) rotate(0) translate(4 128)">
<title>src</title>
<polygon fill="white" stroke="transparent" points="-4,4 -4,-128 846,-128 846,4 -4,4"/>
<g id="clust1" class="cluster">
<title>clusterdir_68267d1309a1af8e8297ef4c3efbcdba</title>
<g id="a_clust1"><a xlink:href="dir_68267d1309a1af8e8297ef4c3efbcdba.html" target="_top">
<polygon fill="#edf0f7" stroke="#404040" stroke-width="2" points="8,-64 8,-116 834,-116 834,-64 8,-64"/>
</a>
</g>
</g>
<!-- dir_68267d1309a1af8e8297ef4c3efbcdba -->
<g id="node1" class="node">
<title>dir_68267d1309a1af8e8297ef4c3efbcdba</title>
<text text-anchor="middle" x="115" y="-87.5" font-family="Helvetica,sans-Serif" font-size="10.00">src</text>
</g>
<!-- dir_d44c64559bbebec7f509842c48db8b23 -->
<g id="node12" class="node">
<title>dir_d44c64559bbebec7f509842c48db8b23</title>
<g id="a_node12"><a xlink:href="dir_d44c64559bbebec7f509842c48db8b23.html" target="_top" xlink:title="include">
<polygon fill="none" stroke="red" points="399,-36 345,-36 345,0 399,0 399,-36"/>
<text text-anchor="middle" x="372" y="-15.5" font-family="Helvetica,sans-Serif" font-size="10.00">include</text>
</a>
</g>
</g>
<!-- dir_68267d1309a1af8e8297ef4c3efbcdba&#45;&gt;dir_d44c64559bbebec7f509842c48db8b23 -->
<g id="edge1" class="edge">
<title>dir_68267d1309a1af8e8297ef4c3efbcdba&#45;&gt;dir_d44c64559bbebec7f509842c48db8b23</title>
<path fill="none" stroke="black" d="M136.64,-71.9C141.19,-68.91 146.1,-66.09 151,-64 212.16,-37.86 289.47,-26.59 334.56,-21.98"/>
<polygon fill="black" stroke="black" points="335.14,-25.44 344.76,-20.99 334.47,-18.47 335.14,-25.44"/>
<g id="a_edge1&#45;headlabel"><a xlink:href="dir_000018_000009.html" target="_top" xlink:title="519">
<text text-anchor="middle" x="331.84" y="-26.11" font-family="Helvetica,sans-Serif" font-size="10.00">519</text>
</a>
</g>
</g>
<!-- dir_a6d0a6a55373706e2a4f51efdf7f5774 -->
<g id="node2" class="node">
<title>dir_a6d0a6a55373706e2a4f51efdf7f5774</title>
<g id="a_node2"><a xlink:href="dir_a6d0a6a55373706e2a4f51efdf7f5774.html" target="_top" xlink:title="ApMgt">
<polygon fill="#a2b4d6" stroke="#404040" points="70,-108 16,-108 16,-72 70,-72 70,-108"/>
<text text-anchor="middle" x="43" y="-87.5" font-family="Helvetica,sans-Serif" font-size="10.00">ApMgt</text>
</a>
</g>
</g>
<!-- dir_a6d0a6a55373706e2a4f51efdf7f5774&#45;&gt;dir_d44c64559bbebec7f509842c48db8b23 -->
<g id="edge2" class="edge">
<title>dir_a6d0a6a55373706e2a4f51efdf7f5774&#45;&gt;dir_d44c64559bbebec7f509842c48db8b23</title>
<path fill="none" stroke="black" d="M64.17,-71.97C68.84,-68.9 73.91,-66.03 79,-64 166.07,-29.25 277.58,-21.17 334.67,-19.4"/>
<polygon fill="black" stroke="black" points="334.77,-22.9 344.67,-19.14 334.59,-15.9 334.77,-22.9"/>
<g id="a_edge2&#45;headlabel"><a xlink:href="dir_000000_000009.html" target="_top" xlink:title="51">
<text text-anchor="middle" x="331.25" y="-23.33" font-family="Helvetica,sans-Serif" font-size="10.00">51</text>
</a>
</g>
</g>
<!-- dir_8a5c1fdf3cac26ee82cf7b0d674ec47d -->
<g id="node3" class="node">
<title>dir_8a5c1fdf3cac26ee82cf7b0d674ec47d</title>
<g id="a_node3"><a xlink:href="dir_8a5c1fdf3cac26ee82cf7b0d674ec47d.html" target="_top" xlink:title="ChannelManagement">
<polygon fill="#a2b4d6" stroke="#404040" points="575.5,-108 454.5,-108 454.5,-72 575.5,-72 575.5,-108"/>
<text text-anchor="middle" x="515" y="-87.5" font-family="Helvetica,sans-Serif" font-size="10.00">ChannelManagement</text>
</a>
</g>
</g>
<!-- dir_8a5c1fdf3cac26ee82cf7b0d674ec47d&#45;&gt;dir_d44c64559bbebec7f509842c48db8b23 -->
<g id="edge3" class="edge">
<title>dir_8a5c1fdf3cac26ee82cf7b0d674ec47d&#45;&gt;dir_d44c64559bbebec7f509842c48db8b23</title>
<path fill="none" stroke="black" d="M480.02,-71.88C458.17,-61.18 430.1,-47.44 408.05,-36.65"/>
<polygon fill="black" stroke="black" points="409.53,-33.47 399.01,-32.22 406.45,-39.76 409.53,-33.47"/>
<g id="a_edge3&#45;headlabel"><a xlink:href="dir_000001_000009.html" target="_top" xlink:title="34">
<text text-anchor="middle" x="414" y="-30" font-family="Helvetica,sans-Serif" font-size="10.00">34</text>
</a>
</g>
</g>
<!-- dir_73195a474d4b845ad2dec205cb70fb7d -->
<g id="node4" class="node">
<title>dir_73195a474d4b845ad2dec205cb70fb7d</title>
<g id="a_node4"><a xlink:href="dir_73195a474d4b845ad2dec205cb70fb7d.html" target="_top" xlink:title="EpMgt">
<polygon fill="#a2b4d6" stroke="#404040" points="436,-108 382,-108 382,-72 436,-72 436,-108"/>
<text text-anchor="middle" x="409" y="-87.5" font-family="Helvetica,sans-Serif" font-size="10.00">EpMgt</text>
</a>
</g>
</g>
<!-- dir_73195a474d4b845ad2dec205cb70fb7d&#45;&gt;dir_d44c64559bbebec7f509842c48db8b23 -->
<g id="edge4" class="edge">
<title>dir_73195a474d4b845ad2dec205cb70fb7d&#45;&gt;dir_d44c64559bbebec7f509842c48db8b23</title>
<path fill="none" stroke="black" d="M399.85,-71.7C395.6,-63.64 390.44,-53.89 385.73,-44.98"/>
<polygon fill="black" stroke="black" points="388.81,-43.31 381.04,-36.1 382.62,-46.58 388.81,-43.31"/>
<g id="a_edge4&#45;headlabel"><a xlink:href="dir_000004_000009.html" target="_top" xlink:title="21">
<text text-anchor="middle" x="393" y="-42.66" font-family="Helvetica,sans-Serif" font-size="10.00">21</text>
</a>
</g>
</g>
<!-- dir_41bc3046af0df8d9ded2712109471b90 -->
<g id="node5" class="node">
<title>dir_41bc3046af0df8d9ded2712109471b90</title>
<g id="a_node5"><a xlink:href="dir_41bc3046af0df8d9ded2712109471b90.html" target="_top" xlink:title="Features">
<polygon fill="#a2b4d6" stroke="#404040" points="363.5,-108 304.5,-108 304.5,-72 363.5,-72 363.5,-108"/>
<text text-anchor="middle" x="334" y="-87.5" font-family="Helvetica,sans-Serif" font-size="10.00">Features</text>
</a>
</g>
</g>
<!-- dir_41bc3046af0df8d9ded2712109471b90&#45;&gt;dir_d44c64559bbebec7f509842c48db8b23 -->
<g id="edge5" class="edge">
<title>dir_41bc3046af0df8d9ded2712109471b90&#45;&gt;dir_d44c64559bbebec7f509842c48db8b23</title>
<path fill="none" stroke="black" d="M343.39,-71.7C347.76,-63.64 353.06,-53.89 357.9,-44.98"/>
<polygon fill="black" stroke="black" points="361.02,-46.56 362.71,-36.1 354.87,-43.22 361.02,-46.56"/>
<g id="a_edge5&#45;headlabel"><a xlink:href="dir_000007_000009.html" target="_top" xlink:title="7">
<text text-anchor="middle" x="361.8" y="-48.58" font-family="Helvetica,sans-Serif" font-size="10.00">7</text>
</a>
</g>
</g>
<!-- dir_ab1c42564c6a928949735503c54aa238 -->
<g id="node6" class="node">
<title>dir_ab1c42564c6a928949735503c54aa238</title>
<g id="a_node6"><a xlink:href="dir_ab1c42564c6a928949735503c54aa238.html" target="_top" xlink:title="nl80211">
<polygon fill="#a2b4d6" stroke="#404040" points="826,-108 770,-108 770,-72 826,-72 826,-108"/>
<text text-anchor="middle" x="798" y="-87.5" font-family="Helvetica,sans-Serif" font-size="10.00">nl80211</text>
</a>
</g>
</g>
<!-- dir_4f4a5d00c9976ec836e15db273d66324 -->
<g id="node11" class="node">
<title>dir_4f4a5d00c9976ec836e15db273d66324</title>
<g id="a_node11"><a xlink:href="dir_4f4a5d00c9976ec836e15db273d66324.html" target="_top" xlink:title="include_priv">
<polygon fill="none" stroke="red" points="763,-36 687,-36 687,0 763,0 763,-36"/>
<text text-anchor="middle" x="725" y="-15.5" font-family="Helvetica,sans-Serif" font-size="10.00">include_priv</text>
</a>
</g>
</g>
<!-- dir_ab1c42564c6a928949735503c54aa238&#45;&gt;dir_4f4a5d00c9976ec836e15db273d66324 -->
<g id="edge6" class="edge">
<title>dir_ab1c42564c6a928949735503c54aa238&#45;&gt;dir_4f4a5d00c9976ec836e15db273d66324</title>
<path fill="none" stroke="black" d="M779.96,-71.7C770.94,-63.05 759.88,-52.45 750.06,-43.03"/>
<polygon fill="black" stroke="black" points="752.48,-40.5 742.84,-36.1 747.63,-45.55 752.48,-40.5"/>
<g id="a_edge6&#45;headlabel"><a xlink:href="dir_000012_000010.html" target="_top" xlink:title="27">
<text text-anchor="middle" x="757.04" y="-38.44" font-family="Helvetica,sans-Serif" font-size="10.00">27</text>
</a>
</g>
</g>
<!-- dir_ab1c42564c6a928949735503c54aa238&#45;&gt;dir_d44c64559bbebec7f509842c48db8b23 -->
<g id="edge7" class="edge">
<title>dir_ab1c42564c6a928949735503c54aa238&#45;&gt;dir_d44c64559bbebec7f509842c48db8b23</title>
<path fill="none" stroke="black" d="M776.25,-71.82C771.45,-68.76 766.23,-65.94 761,-64 696.96,-40.28 493.85,-26.08 409.4,-21.06"/>
<polygon fill="black" stroke="black" points="409.42,-17.56 399.23,-20.47 409.01,-24.54 409.42,-17.56"/>
<g id="a_edge7&#45;headlabel"><a xlink:href="dir_000012_000009.html" target="_top" xlink:title="98">
<text text-anchor="middle" x="413.17" y="-12.43" font-family="Helvetica,sans-Serif" font-size="10.00">98</text>
</a>
</g>
</g>
<!-- dir_9f372f45c5e67e4b12d3096ca43257f3 -->
<g id="node7" class="node">
<title>dir_9f372f45c5e67e4b12d3096ca43257f3</title>
<g id="a_node7"><a xlink:href="dir_9f372f45c5e67e4b12d3096ca43257f3.html" target="_top" xlink:title="Plugin">
<polygon fill="#a2b4d6" stroke="#404040" points="752,-108 698,-108 698,-72 752,-72 752,-108"/>
<text text-anchor="middle" x="725" y="-87.5" font-family="Helvetica,sans-Serif" font-size="10.00">Plugin</text>
</a>
</g>
</g>
<!-- dir_9f372f45c5e67e4b12d3096ca43257f3&#45;&gt;dir_4f4a5d00c9976ec836e15db273d66324 -->
<g id="edge8" class="edge">
<title>dir_9f372f45c5e67e4b12d3096ca43257f3&#45;&gt;dir_4f4a5d00c9976ec836e15db273d66324</title>
<path fill="none" stroke="black" d="M725,-71.7C725,-63.98 725,-54.71 725,-46.11"/>
<polygon fill="black" stroke="black" points="728.5,-46.1 725,-36.1 721.5,-46.1 728.5,-46.1"/>
<g id="a_edge8&#45;headlabel"><a xlink:href="dir_000016_000010.html" target="_top" xlink:title="44">
<text text-anchor="middle" x="731.34" y="-47.2" font-family="Helvetica,sans-Serif" font-size="10.00">44</text>
</a>
</g>
</g>
<!-- dir_9f372f45c5e67e4b12d3096ca43257f3&#45;&gt;dir_d44c64559bbebec7f509842c48db8b23 -->
<g id="edge9" class="edge">
<title>dir_9f372f45c5e67e4b12d3096ca43257f3&#45;&gt;dir_d44c64559bbebec7f509842c48db8b23</title>
<path fill="none" stroke="black" d="M703.85,-71.92C699.18,-68.85 694.1,-66 689,-64 593.33,-26.45 470.49,-19.67 409.64,-18.8"/>
<polygon fill="black" stroke="black" points="409.4,-15.29 399.36,-18.7 409.33,-22.29 409.4,-15.29"/>
<g id="a_edge9&#45;headlabel"><a xlink:href="dir_000016_000009.html" target="_top" xlink:title="108">
<text text-anchor="middle" x="413.02" y="-9.99" font-family="Helvetica,sans-Serif" font-size="10.00">108</text>
</a>
</g>
</g>
<!-- dir_634a29ef3afa3b488d80fe091afd4821 -->
<g id="node8" class="node">
<title>dir_634a29ef3afa3b488d80fe091afd4821</title>
<g id="a_node8"><a xlink:href="dir_634a29ef3afa3b488d80fe091afd4821.html" target="_top" xlink:title="RadMgt">
<polygon fill="#a2b4d6" stroke="#404040" points="286,-108 232,-108 232,-72 286,-72 286,-108"/>
<text text-anchor="middle" x="259" y="-87.5" font-family="Helvetica,sans-Serif" font-size="10.00">RadMgt</text>
</a>
</g>
</g>
<!-- dir_634a29ef3afa3b488d80fe091afd4821&#45;&gt;dir_d44c64559bbebec7f509842c48db8b23 -->
<g id="edge10" class="edge">
<title>dir_634a29ef3afa3b488d80fe091afd4821&#45;&gt;dir_d44c64559bbebec7f509842c48db8b23</title>
<path fill="none" stroke="black" d="M283.94,-71.85C287.95,-69.18 292.07,-66.49 296,-64 308.82,-55.88 323.09,-47.31 335.77,-39.86"/>
<polygon fill="black" stroke="black" points="337.81,-42.72 344.68,-34.65 334.28,-36.68 337.81,-42.72"/>
<g id="a_edge10&#45;headlabel"><a xlink:href="dir_000017_000009.html" target="_top" xlink:title="39">
<text text-anchor="middle" x="336.14" y="-44.48" font-family="Helvetica,sans-Serif" font-size="10.00">39</text>
</a>
</g>
</g>
<!-- dir_a7363e98f9e0bdd87618633653859815 -->
<g id="node9" class="node">
<title>dir_a7363e98f9e0bdd87618633653859815</title>
<g id="a_node9"><a xlink:href="dir_a7363e98f9e0bdd87618633653859815.html" target="_top" xlink:title="Utils">
<polygon fill="#a2b4d6" stroke="#404040" points="214,-108 160,-108 160,-72 214,-72 214,-108"/>
<text text-anchor="middle" x="187" y="-87.5" font-family="Helvetica,sans-Serif" font-size="10.00">Utils</text>
</a>
</g>
</g>
<!-- dir_a7363e98f9e0bdd87618633653859815&#45;&gt;dir_d44c64559bbebec7f509842c48db8b23 -->
<g id="edge11" class="edge">
<title>dir_a7363e98f9e0bdd87618633653859815&#45;&gt;dir_d44c64559bbebec7f509842c48db8b23</title>
<path fill="none" stroke="black" d="M209.19,-72C213.62,-69.07 218.34,-66.25 223,-64 259.4,-46.41 304.13,-34.01 335.04,-26.75"/>
<polygon fill="black" stroke="black" points="335.98,-30.12 344.95,-24.48 334.42,-23.29 335.98,-30.12"/>
<g id="a_edge11&#45;headlabel"><a xlink:href="dir_000035_000009.html" target="_top" xlink:title="29">
<text text-anchor="middle" x="333.11" y="-31.19" font-family="Helvetica,sans-Serif" font-size="10.00">29</text>
</a>
</g>
</g>
<!-- dir_7c7861dd74bea08fac5bb8a62ad5e4dc -->
<g id="node10" class="node">
<title>dir_7c7861dd74bea08fac5bb8a62ad5e4dc</title>
<g id="a_node10"><a xlink:href="dir_7c7861dd74bea08fac5bb8a62ad5e4dc.html" target="_top" xlink:title="VendorModule">
<polygon fill="#a2b4d6" stroke="#404040" points="680,-108 594,-108 594,-72 680,-72 680,-108"/>
<text text-anchor="middle" x="637" y="-87.5" font-family="Helvetica,sans-Serif" font-size="10.00">VendorModule</text>
</a>
</g>
</g>
<!-- dir_7c7861dd74bea08fac5bb8a62ad5e4dc&#45;&gt;dir_4f4a5d00c9976ec836e15db273d66324 -->
<g id="edge12" class="edge">
<title>dir_7c7861dd74bea08fac5bb8a62ad5e4dc&#45;&gt;dir_4f4a5d00c9976ec836e15db273d66324</title>
<path fill="none" stroke="black" d="M658.75,-71.7C669.84,-62.88 683.47,-52.03 695.49,-42.47"/>
<polygon fill="black" stroke="black" points="697.85,-45.07 703.5,-36.1 693.49,-39.59 697.85,-45.07"/>
<g id="a_edge12&#45;headlabel"><a xlink:href="dir_000037_000010.html" target="_top" xlink:title="2">
<text text-anchor="middle" x="696.8" y="-47.03" font-family="Helvetica,sans-Serif" font-size="10.00">2</text>
</a>
</g>
</g>
<!-- dir_7c7861dd74bea08fac5bb8a62ad5e4dc&#45;&gt;dir_d44c64559bbebec7f509842c48db8b23 -->
<g id="edge13" class="edge">
<title>dir_7c7861dd74bea08fac5bb8a62ad5e4dc&#45;&gt;dir_d44c64559bbebec7f509842c48db8b23</title>
<path fill="none" stroke="black" d="M604.49,-71.91C598.14,-68.99 591.45,-66.2 585,-64 525.01,-43.57 452.23,-30.6 409.15,-24.08"/>
<polygon fill="black" stroke="black" points="409.52,-20.6 399.12,-22.6 408.5,-27.52 409.52,-20.6"/>
<g id="a_edge13&#45;headlabel"><a xlink:href="dir_000037_000009.html" target="_top" xlink:title="4">
<text text-anchor="middle" x="413.49" y="-15.81" font-family="Helvetica,sans-Serif" font-size="10.00">4</text>
</a>
</g>
</g>
</g>
</svg>
