<?xml version="1.0" encoding="UTF-8" standalone="no"?>
<!DOCTYPE svg PUBLIC "-//W3C//DTD SVG 1.1//EN"
 "http://www.w3.org/Graphics/SVG/1.1/DTD/svg11.dtd">
<!-- Generated by graphviz version 2.43.0 (0)
 -->
<!-- Title: test/startStop Pages: 1 -->
<svg width="164pt" height="167pt"
 viewBox="0.00 0.00 164.00 167.00" xmlns="http://www.w3.org/2000/svg" xmlns:xlink="http://www.w3.org/1999/xlink">
<g id="graph0" class="graph" transform="scale(1 1) rotate(0) translate(4 163)">
<title>test/startStop</title>
<polygon fill="white" stroke="transparent" points="-4,4 -4,-163 160,-163 160,4 -4,4"/>
<g id="clust1" class="cluster">
<title>clusterdir_13e138d54eb8818da29c3992edef070a</title>
<g id="a_clust1"><a xlink:href="dir_13e138d54eb8818da29c3992edef070a.html" target="_top" xlink:title="test">
<polygon fill="#edf0f7" stroke="#404040" stroke-dasharray="5,2" points="8,-8 8,-151 92,-151 92,-8 8,-8"/>
<text text-anchor="middle" x="50" y="-139" font-family="Helvetica,sans-Serif" font-size="10.00">test</text>
</a>
</g>
</g>
<!-- dir_d95f75131b2de54c8b593f2f5b1ba915 -->
<g id="node1" class="node">
<title>dir_d95f75131b2de54c8b593f2f5b1ba915</title>
<g id="a_node1"><a xlink:href="dir_d95f75131b2de54c8b593f2f5b1ba915.html" target="_top" xlink:title="testHelper">
<polygon fill="#a2b4d6" stroke="#404040" points="84,-52 16,-52 16,-16 84,-16 84,-52"/>
<text text-anchor="middle" x="50" y="-31.5" font-family="Helvetica,sans-Serif" font-size="10.00">testHelper</text>
</a>
</g>
</g>
<!-- dir_74002f4799fee0526d998f236a4a9f62 -->
<g id="node2" class="node">
<title>dir_74002f4799fee0526d998f236a4a9f62</title>
<g id="a_node2"><a xlink:href="dir_74002f4799fee0526d998f236a4a9f62.html" target="_top" xlink:title="startStop">
<polygon fill="#edf0f7" stroke="#404040" stroke-width="2" points="81.5,-124 20.5,-124 20.5,-88 81.5,-88 81.5,-124"/>
<text text-anchor="middle" x="51" y="-103.5" font-family="Helvetica,sans-Serif" font-size="10.00">startStop</text>
</a>
</g>
</g>
<!-- dir_74002f4799fee0526d998f236a4a9f62&#45;&gt;dir_d95f75131b2de54c8b593f2f5b1ba915 -->
<g id="edge2" class="edge">
<title>dir_74002f4799fee0526d998f236a4a9f62&#45;&gt;dir_d95f75131b2de54c8b593f2f5b1ba915</title>
<path fill="none" stroke="black" d="M50.75,-87.7C50.64,-79.98 50.51,-70.71 50.39,-62.11"/>
<polygon fill="black" stroke="black" points="53.89,-62.05 50.24,-52.1 46.89,-62.15 53.89,-62.05"/>
<g id="a_edge2&#45;headlabel"><a xlink:href="dir_000019_000025.html" target="_top" xlink:title="1">
<text text-anchor="middle" x="56.78" y="-63.11" font-family="Helvetica,sans-Serif" font-size="10.00">1</text>
</a>
</g>
</g>
<!-- dir_d44c64559bbebec7f509842c48db8b23 -->
<g id="node3" class="node">
<title>dir_d44c64559bbebec7f509842c48db8b23</title>
<g id="a_node3"><a xlink:href="dir_d44c64559bbebec7f509842c48db8b23.html" target="_top" xlink:title="include">
<polygon fill="none" stroke="red" points="156,-52 102,-52 102,-16 156,-16 156,-52"/>
<text text-anchor="middle" x="129" y="-31.5" font-family="Helvetica,sans-Serif" font-size="10.00">include</text>
</a>
</g>
</g>
<!-- dir_74002f4799fee0526d998f236a4a9f62&#45;&gt;dir_d44c64559bbebec7f509842c48db8b23 -->
<g id="edge1" class="edge">
<title>dir_74002f4799fee0526d998f236a4a9f62&#45;&gt;dir_d44c64559bbebec7f509842c48db8b23</title>
<path fill="none" stroke="black" d="M70.28,-87.7C79.92,-79.05 91.73,-68.45 102.23,-59.03"/>
<polygon fill="black" stroke="black" points="104.84,-61.39 109.94,-52.1 100.16,-56.18 104.84,-61.39"/>
<g id="a_edge1&#45;headlabel"><a xlink:href="dir_000019_000009.html" target="_top" xlink:title="4">
<text text-anchor="middle" x="104.06" y="-63.4" font-family="Helvetica,sans-Serif" font-size="10.00">4</text>
</a>
</g>
</g>
</g>
</svg>
