<?xml version="1.0" encoding="UTF-8" standalone="no"?>
<!DOCTYPE svg PUBLIC "-//W3C//DTD SVG 1.1//EN"
 "http://www.w3.org/Graphics/SVG/1.1/DTD/svg11.dtd">
<!-- Generated by graphviz version 2.43.0 (0)
 -->
<!-- Title: test/wld_chanMgt Pages: 1 -->
<svg width="176pt" height="167pt"
 viewBox="0.00 0.00 176.00 167.00" xmlns="http://www.w3.org/2000/svg" xmlns:xlink="http://www.w3.org/1999/xlink">
<g id="graph0" class="graph" transform="scale(1 1) rotate(0) translate(4 163)">
<title>test/wld_chanMgt</title>
<polygon fill="white" stroke="transparent" points="-4,4 -4,-163 172,-163 172,4 -4,4"/>
<g id="clust1" class="cluster">
<title>clusterdir_13e138d54eb8818da29c3992edef070a</title>
<g id="a_clust1"><a xlink:href="dir_13e138d54eb8818da29c3992edef070a.html" target="_top" xlink:title="test">
<polygon fill="#edf0f7" stroke="#404040" stroke-dasharray="5,2" points="8,-8 8,-151 106,-151 106,-8 8,-8"/>
<text text-anchor="middle" x="57" y="-139" font-family="Helvetica,sans-Serif" font-size="10.00">test</text>
</a>
</g>
</g>
<!-- dir_d95f75131b2de54c8b593f2f5b1ba915 -->
<g id="node1" class="node">
<title>dir_d95f75131b2de54c8b593f2f5b1ba915</title>
<g id="a_node1"><a xlink:href="dir_d95f75131b2de54c8b593f2f5b1ba915.html" target="_top" xlink:title="testHelper">
<polygon fill="#a2b4d6" stroke="#404040" points="91,-52 23,-52 23,-16 91,-16 91,-52"/>
<text text-anchor="middle" x="57" y="-31.5" font-family="Helvetica,sans-Serif" font-size="10.00">testHelper</text>
</a>
</g>
</g>
<!-- dir_cea0f4c09e91d6f55bc0105420216634 -->
<g id="node2" class="node">
<title>dir_cea0f4c09e91d6f55bc0105420216634</title>
<g id="a_node2"><a xlink:href="dir_cea0f4c09e91d6f55bc0105420216634.html" target="_top" xlink:title="wld_chanMgt">
<polygon fill="#edf0f7" stroke="#404040" stroke-width="2" points="97.5,-124 16.5,-124 16.5,-88 97.5,-88 97.5,-124"/>
<text text-anchor="middle" x="57" y="-103.5" font-family="Helvetica,sans-Serif" font-size="10.00">wld_chanMgt</text>
</a>
</g>
</g>
<!-- dir_cea0f4c09e91d6f55bc0105420216634&#45;&gt;dir_d95f75131b2de54c8b593f2f5b1ba915 -->
<g id="edge2" class="edge">
<title>dir_cea0f4c09e91d6f55bc0105420216634&#45;&gt;dir_d95f75131b2de54c8b593f2f5b1ba915</title>
<path fill="none" stroke="black" d="M57,-87.7C57,-79.98 57,-70.71 57,-62.11"/>
<polygon fill="black" stroke="black" points="60.5,-62.1 57,-52.1 53.5,-62.1 60.5,-62.1"/>
<g id="a_edge2&#45;headlabel"><a xlink:href="dir_000039_000025.html" target="_top" xlink:title="5">
<text text-anchor="middle" x="63.34" y="-63.2" font-family="Helvetica,sans-Serif" font-size="10.00">5</text>
</a>
</g>
</g>
<!-- dir_d44c64559bbebec7f509842c48db8b23 -->
<g id="node3" class="node">
<title>dir_d44c64559bbebec7f509842c48db8b23</title>
<g id="a_node3"><a xlink:href="dir_d44c64559bbebec7f509842c48db8b23.html" target="_top" xlink:title="include">
<polygon fill="none" stroke="red" points="168,-52 114,-52 114,-16 168,-16 168,-52"/>
<text text-anchor="middle" x="141" y="-31.5" font-family="Helvetica,sans-Serif" font-size="10.00">include</text>
</a>
</g>
</g>
<!-- dir_cea0f4c09e91d6f55bc0105420216634&#45;&gt;dir_d44c64559bbebec7f509842c48db8b23 -->
<g id="edge1" class="edge">
<title>dir_cea0f4c09e91d6f55bc0105420216634&#45;&gt;dir_d44c64559bbebec7f509842c48db8b23</title>
<path fill="none" stroke="black" d="M77.76,-87.7C88.24,-78.97 101.11,-68.24 112.5,-58.75"/>
<polygon fill="black" stroke="black" points="115.03,-61.19 120.47,-52.1 110.55,-55.82 115.03,-61.19"/>
<g id="a_edge1&#45;headlabel"><a xlink:href="dir_000039_000009.html" target="_top" xlink:title="6">
<text text-anchor="middle" x="114.09" y="-63.18" font-family="Helvetica,sans-Serif" font-size="10.00">6</text>
</a>
</g>
</g>
</g>
</svg>
