<?xml version="1.0" encoding="UTF-8" standalone="no"?>
<!DOCTYPE svg PUBLIC "-//W3C//DTD SVG 1.1//EN"
 "http://www.w3.org/Graphics/SVG/1.1/DTD/svg11.dtd">
<!-- Generated by graphviz version 2.43.0 (0)
 -->
<!-- Title: test/test_channel5G Pages: 1 -->
<svg width="186pt" height="167pt"
 viewBox="0.00 0.00 186.00 167.00" xmlns="http://www.w3.org/2000/svg" xmlns:xlink="http://www.w3.org/1999/xlink">
<g id="graph0" class="graph" transform="scale(1 1) rotate(0) translate(4 163)">
<title>test/test_channel5G</title>
<polygon fill="white" stroke="transparent" points="-4,4 -4,-163 182,-163 182,4 -4,4"/>
<g id="clust1" class="cluster">
<title>clusterdir_13e138d54eb8818da29c3992edef070a</title>
<g id="a_clust1"><a xlink:href="dir_13e138d54eb8818da29c3992edef070a.html" target="_top" xlink:title="test">
<polygon fill="#edf0f7" stroke="#404040" stroke-dasharray="5,2" points="8,-8 8,-151 116,-151 116,-8 8,-8"/>
<text text-anchor="middle" x="62" y="-139" font-family="Helvetica,sans-Serif" font-size="10.00">test</text>
</a>
</g>
</g>
<!-- dir_d95f75131b2de54c8b593f2f5b1ba915 -->
<g id="node1" class="node">
<title>dir_d95f75131b2de54c8b593f2f5b1ba915</title>
<g id="a_node1"><a xlink:href="dir_d95f75131b2de54c8b593f2f5b1ba915.html" target="_top" xlink:title="testHelper">
<polygon fill="#a2b4d6" stroke="#404040" points="96,-52 28,-52 28,-16 96,-16 96,-52"/>
<text text-anchor="middle" x="62" y="-31.5" font-family="Helvetica,sans-Serif" font-size="10.00">testHelper</text>
</a>
</g>
</g>
<!-- dir_934cf54c1422efa26e59cde553fd4301 -->
<g id="node2" class="node">
<title>dir_934cf54c1422efa26e59cde553fd4301</title>
<g id="a_node2"><a xlink:href="dir_934cf54c1422efa26e59cde553fd4301.html" target="_top" xlink:title="test_channel5G">
<polygon fill="#edf0f7" stroke="#404040" stroke-width="2" points="108,-124 16,-124 16,-88 108,-88 108,-124"/>
<text text-anchor="middle" x="62" y="-103.5" font-family="Helvetica,sans-Serif" font-size="10.00">test_channel5G</text>
</a>
</g>
</g>
<!-- dir_934cf54c1422efa26e59cde553fd4301&#45;&gt;dir_d95f75131b2de54c8b593f2f5b1ba915 -->
<g id="edge2" class="edge">
<title>dir_934cf54c1422efa26e59cde553fd4301&#45;&gt;dir_d95f75131b2de54c8b593f2f5b1ba915</title>
<path fill="none" stroke="black" d="M62,-87.7C62,-79.98 62,-70.71 62,-62.11"/>
<polygon fill="black" stroke="black" points="65.5,-62.1 62,-52.1 58.5,-62.1 65.5,-62.1"/>
<g id="a_edge2&#45;headlabel"><a xlink:href="dir_000021_000025.html" target="_top" xlink:title="1">
<text text-anchor="middle" x="68.34" y="-63.2" font-family="Helvetica,sans-Serif" font-size="10.00">1</text>
</a>
</g>
</g>
<!-- dir_d44c64559bbebec7f509842c48db8b23 -->
<g id="node3" class="node">
<title>dir_d44c64559bbebec7f509842c48db8b23</title>
<g id="a_node3"><a xlink:href="dir_d44c64559bbebec7f509842c48db8b23.html" target="_top" xlink:title="include">
<polygon fill="none" stroke="red" points="178,-52 124,-52 124,-16 178,-16 178,-52"/>
<text text-anchor="middle" x="151" y="-31.5" font-family="Helvetica,sans-Serif" font-size="10.00">include</text>
</a>
</g>
</g>
<!-- dir_934cf54c1422efa26e59cde553fd4301&#45;&gt;dir_d44c64559bbebec7f509842c48db8b23 -->
<g id="edge1" class="edge">
<title>dir_934cf54c1422efa26e59cde553fd4301&#45;&gt;dir_d44c64559bbebec7f509842c48db8b23</title>
<path fill="none" stroke="black" d="M84,-87.7C95.21,-78.88 109,-68.03 121.15,-58.47"/>
<polygon fill="black" stroke="black" points="123.56,-61.04 129.25,-52.1 119.23,-55.54 123.56,-61.04"/>
<g id="a_edge1&#45;headlabel"><a xlink:href="dir_000021_000009.html" target="_top" xlink:title="5">
<text text-anchor="middle" x="122.49" y="-62.99" font-family="Helvetica,sans-Serif" font-size="10.00">5</text>
</a>
</g>
</g>
</g>
</svg>
