<?xml version="1.0" encoding="UTF-8" standalone="no"?>
<!DOCTYPE svg PUBLIC "-//W3C//DTD SVG 1.1//EN"
 "http://www.w3.org/Graphics/SVG/1.1/DTD/svg11.dtd">
<!-- Generated by graphviz version 2.43.0 (0)
 -->
<!-- Title: test/testStaStats Pages: 1 -->
<svg width="170pt" height="167pt"
 viewBox="0.00 0.00 170.00 167.00" xmlns="http://www.w3.org/2000/svg" xmlns:xlink="http://www.w3.org/1999/xlink">
<g id="graph0" class="graph" transform="scale(1 1) rotate(0) translate(4 163)">
<title>test/testStaStats</title>
<polygon fill="white" stroke="transparent" points="-4,4 -4,-163 166,-163 166,4 -4,4"/>
<g id="clust1" class="cluster">
<title>clusterdir_13e138d54eb8818da29c3992edef070a</title>
<g id="a_clust1"><a xlink:href="dir_13e138d54eb8818da29c3992edef070a.html" target="_top" xlink:title="test">
<polygon fill="#edf0f7" stroke="#404040" stroke-dasharray="5,2" points="8,-8 8,-151 100,-151 100,-8 8,-8"/>
<text text-anchor="middle" x="54" y="-139" font-family="Helvetica,sans-Serif" font-size="10.00">test</text>
</a>
</g>
</g>
<!-- dir_d95f75131b2de54c8b593f2f5b1ba915 -->
<g id="node1" class="node">
<title>dir_d95f75131b2de54c8b593f2f5b1ba915</title>
<g id="a_node1"><a xlink:href="dir_d95f75131b2de54c8b593f2f5b1ba915.html" target="_top" xlink:title="testHelper">
<polygon fill="#a2b4d6" stroke="#404040" points="88,-52 20,-52 20,-16 88,-16 88,-52"/>
<text text-anchor="middle" x="54" y="-31.5" font-family="Helvetica,sans-Serif" font-size="10.00">testHelper</text>
</a>
</g>
</g>
<!-- dir_4fe8e9bf47c1c08b7bacc81f3034e3a4 -->
<g id="node2" class="node">
<title>dir_4fe8e9bf47c1c08b7bacc81f3034e3a4</title>
<g id="a_node2"><a xlink:href="dir_4fe8e9bf47c1c08b7bacc81f3034e3a4.html" target="_top" xlink:title="testStaStats">
<polygon fill="#edf0f7" stroke="#404040" stroke-width="2" points="92,-124 16,-124 16,-88 92,-88 92,-124"/>
<text text-anchor="middle" x="54" y="-103.5" font-family="Helvetica,sans-Serif" font-size="10.00">testStaStats</text>
</a>
</g>
</g>
<!-- dir_4fe8e9bf47c1c08b7bacc81f3034e3a4&#45;&gt;dir_d95f75131b2de54c8b593f2f5b1ba915 -->
<g id="edge2" class="edge">
<title>dir_4fe8e9bf47c1c08b7bacc81f3034e3a4&#45;&gt;dir_d95f75131b2de54c8b593f2f5b1ba915</title>
<path fill="none" stroke="black" d="M54,-87.7C54,-79.98 54,-70.71 54,-62.11"/>
<polygon fill="black" stroke="black" points="57.5,-62.1 54,-52.1 50.5,-62.1 57.5,-62.1"/>
<g id="a_edge2&#45;headlabel"><a xlink:href="dir_000031_000025.html" target="_top" xlink:title="5">
<text text-anchor="middle" x="60.34" y="-63.2" font-family="Helvetica,sans-Serif" font-size="10.00">5</text>
</a>
</g>
</g>
<!-- dir_d44c64559bbebec7f509842c48db8b23 -->
<g id="node3" class="node">
<title>dir_d44c64559bbebec7f509842c48db8b23</title>
<g id="a_node3"><a xlink:href="dir_d44c64559bbebec7f509842c48db8b23.html" target="_top" xlink:title="include">
<polygon fill="none" stroke="red" points="162,-52 108,-52 108,-16 162,-16 162,-52"/>
<text text-anchor="middle" x="135" y="-31.5" font-family="Helvetica,sans-Serif" font-size="10.00">include</text>
</a>
</g>
</g>
<!-- dir_4fe8e9bf47c1c08b7bacc81f3034e3a4&#45;&gt;dir_d44c64559bbebec7f509842c48db8b23 -->
<g id="edge1" class="edge">
<title>dir_4fe8e9bf47c1c08b7bacc81f3034e3a4&#45;&gt;dir_d44c64559bbebec7f509842c48db8b23</title>
<path fill="none" stroke="black" d="M74.02,-87.7C84.13,-78.97 96.54,-68.24 107.52,-58.75"/>
<polygon fill="black" stroke="black" points="109.93,-61.29 115.21,-52.1 105.35,-55.99 109.93,-61.29"/>
<g id="a_edge1&#45;headlabel"><a xlink:href="dir_000031_000009.html" target="_top" xlink:title="4">
<text text-anchor="middle" x="109.07" y="-63.29" font-family="Helvetica,sans-Serif" font-size="10.00">4</text>
</a>
</g>
</g>
</g>
</svg>
