<?xml version="1.0" encoding="UTF-8" standalone="no"?>
<!DOCTYPE svg PUBLIC "-//W3C//DTD SVG 1.1//EN"
 "http://www.w3.org/Graphics/SVG/1.1/DTD/svg11.dtd">
<!-- Generated by graphviz version 2.43.0 (0)
 -->
<!-- Title: test/wld_sensing Pages: 1 -->
<svg width="172pt" height="167pt"
 viewBox="0.00 0.00 172.00 167.00" xmlns="http://www.w3.org/2000/svg" xmlns:xlink="http://www.w3.org/1999/xlink">
<g id="graph0" class="graph" transform="scale(1 1) rotate(0) translate(4 163)">
<title>test/wld_sensing</title>
<polygon fill="white" stroke="transparent" points="-4,4 -4,-163 168,-163 168,4 -4,4"/>
<g id="clust1" class="cluster">
<title>clusterdir_13e138d54eb8818da29c3992edef070a</title>
<g id="a_clust1"><a xlink:href="dir_13e138d54eb8818da29c3992edef070a.html" target="_top" xlink:title="test">
<polygon fill="#edf0f7" stroke="#404040" stroke-dasharray="5,2" points="8,-8 8,-151 102,-151 102,-8 8,-8"/>
<text text-anchor="middle" x="55" y="-139" font-family="Helvetica,sans-Serif" font-size="10.00">test</text>
</a>
</g>
</g>
<!-- dir_d95f75131b2de54c8b593f2f5b1ba915 -->
<g id="node1" class="node">
<title>dir_d95f75131b2de54c8b593f2f5b1ba915</title>
<g id="a_node1"><a xlink:href="dir_d95f75131b2de54c8b593f2f5b1ba915.html" target="_top" xlink:title="testHelper">
<polygon fill="#a2b4d6" stroke="#404040" points="89,-52 21,-52 21,-16 89,-16 89,-52"/>
<text text-anchor="middle" x="55" y="-31.5" font-family="Helvetica,sans-Serif" font-size="10.00">testHelper</text>
</a>
</g>
</g>
<!-- dir_87518382c1027ec75f702accb03656a8 -->
<g id="node2" class="node">
<title>dir_87518382c1027ec75f702accb03656a8</title>
<g id="a_node2"><a xlink:href="dir_87518382c1027ec75f702accb03656a8.html" target="_top" xlink:title="wld_sensing">
<polygon fill="#edf0f7" stroke="#404040" stroke-width="2" points="93.5,-124 16.5,-124 16.5,-88 93.5,-88 93.5,-124"/>
<text text-anchor="middle" x="55" y="-103.5" font-family="Helvetica,sans-Serif" font-size="10.00">wld_sensing</text>
</a>
</g>
</g>
<!-- dir_87518382c1027ec75f702accb03656a8&#45;&gt;dir_d95f75131b2de54c8b593f2f5b1ba915 -->
<g id="edge2" class="edge">
<title>dir_87518382c1027ec75f702accb03656a8&#45;&gt;dir_d95f75131b2de54c8b593f2f5b1ba915</title>
<path fill="none" stroke="black" d="M55,-87.7C55,-79.98 55,-70.71 55,-62.11"/>
<polygon fill="black" stroke="black" points="58.5,-62.1 55,-52.1 51.5,-62.1 58.5,-62.1"/>
<g id="a_edge2&#45;headlabel"><a xlink:href="dir_000048_000025.html" target="_top" xlink:title="7">
<text text-anchor="middle" x="61.34" y="-63.2" font-family="Helvetica,sans-Serif" font-size="10.00">7</text>
</a>
</g>
</g>
<!-- dir_d44c64559bbebec7f509842c48db8b23 -->
<g id="node3" class="node">
<title>dir_d44c64559bbebec7f509842c48db8b23</title>
<g id="a_node3"><a xlink:href="dir_d44c64559bbebec7f509842c48db8b23.html" target="_top" xlink:title="include">
<polygon fill="none" stroke="red" points="164,-52 110,-52 110,-16 164,-16 164,-52"/>
<text text-anchor="middle" x="137" y="-31.5" font-family="Helvetica,sans-Serif" font-size="10.00">include</text>
</a>
</g>
</g>
<!-- dir_87518382c1027ec75f702accb03656a8&#45;&gt;dir_d44c64559bbebec7f509842c48db8b23 -->
<g id="edge1" class="edge">
<title>dir_87518382c1027ec75f702accb03656a8&#45;&gt;dir_d44c64559bbebec7f509842c48db8b23</title>
<path fill="none" stroke="black" d="M75.27,-87.7C85.5,-78.97 98.06,-68.24 109.18,-58.75"/>
<polygon fill="black" stroke="black" points="111.63,-61.26 116.96,-52.1 107.09,-55.94 111.63,-61.26"/>
<g id="a_edge1&#45;headlabel"><a xlink:href="dir_000048_000009.html" target="_top" xlink:title="3">
<text text-anchor="middle" x="110.74" y="-63.25" font-family="Helvetica,sans-Serif" font-size="10.00">3</text>
</a>
</g>
</g>
</g>
</svg>
