<?xml version="1.0" encoding="UTF-8" standalone="no"?>
<!DOCTYPE svg PUBLIC "-//W3C//DTD SVG 1.1//EN"
 "http://www.w3.org/Graphics/SVG/1.1/DTD/svg11.dtd">
<!-- Generated by graphviz version 2.43.0 (0)
 -->
<!-- Title: wld_secDmn Pages: 1 -->
<svg width="1413pt" height="220pt"
 viewBox="0.00 0.00 1413.00 220.08" xmlns="http://www.w3.org/2000/svg" xmlns:xlink="http://www.w3.org/1999/xlink">
<g id="graph0" class="graph" transform="scale(1 1) rotate(0) translate(4 216.08)">
<title>wld_secDmn</title>
<polygon fill="white" stroke="transparent" points="-4,4 -4,-216.08 1409,-216.08 1409,4 -4,4"/>
<!-- Node1 -->
<g id="node1" class="node">
<title>Node1</title>
<g id="a_node1"><a xlink:title=" ">
<polygon fill="#bfbfbf" stroke="black" points="721.5,-127.58 721.5,-146.58 800.5,-146.58 800.5,-127.58 721.5,-127.58"/>
<text text-anchor="middle" x="761" y="-134.58" font-family="Helvetica,sans-Serif" font-size="10.00">wld_secDmn</text>
</a>
</g>
</g>
<!-- Node2 -->
<g id="node2" class="node">
<title>Node2</title>
<g id="a_node2"><a xlink:href="structwld__wpaCtrlMngr.html" target="_top" xlink:title=" ">
<polygon fill="white" stroke="black" points="966.5,-189.58 966.5,-208.58 1067.5,-208.58 1067.5,-189.58 966.5,-189.58"/>
<text text-anchor="middle" x="1017" y="-196.58" font-family="Helvetica,sans-Serif" font-size="10.00">wld_wpaCtrlMngr</text>
</a>
</g>
</g>
<!-- Node1&#45;&gt;Node2 -->
<g id="edge2" class="edge">
<title>Node1&#45;&gt;Node2</title>
<path fill="none" stroke="#9a32cd" stroke-dasharray="5,2" d="M783.32,-152.28C803.15,-165.5 834.07,-183.79 864,-192.08 897.22,-201.28 936.07,-202.92 966.18,-202.32"/>
<polygon fill="#9a32cd" stroke="#9a32cd" points="785.26,-149.37 775.03,-146.62 781.31,-155.15 785.26,-149.37"/>
<text text-anchor="middle" x="897" y="-204.08" font-family="Helvetica,sans-Serif" font-size="10.00"> pSecDmn</text>
</g>
<!-- Node7 -->
<g id="node7" class="node">
<title>Node7</title>
<g id="a_node7"><a xlink:href="structwld__secDmnEvtHandlers.html" target="_top" xlink:title=" ">
<polygon fill="white" stroke="black" points="948,-66.58 948,-85.58 1086,-85.58 1086,-66.58 948,-66.58"/>
<text text-anchor="middle" x="1017" y="-73.58" font-family="Helvetica,sans-Serif" font-size="10.00">wld_secDmnEvtHandlers</text>
</a>
</g>
</g>
<!-- Node1&#45;&gt;Node7 -->
<g id="edge10" class="edge">
<title>Node1&#45;&gt;Node7</title>
<path fill="none" stroke="#9a32cd" stroke-dasharray="5,2" d="M789.42,-123.02C809.55,-113.33 837.81,-101 864,-94.08 890.98,-86.95 921.39,-82.64 947.89,-80.04"/>
<polygon fill="#9a32cd" stroke="#9a32cd" points="787.68,-119.98 780.25,-127.53 790.76,-126.26 787.68,-119.98"/>
<text text-anchor="middle" x="897" y="-152.08" font-family="Helvetica,sans-Serif" font-size="10.00"> getArgs</text>
<text text-anchor="middle" x="897" y="-141.08" font-family="Helvetica,sans-Serif" font-size="10.00">restartCb</text>
<text text-anchor="middle" x="897" y="-130.08" font-family="Helvetica,sans-Serif" font-size="10.00">startCb</text>
<text text-anchor="middle" x="897" y="-119.08" font-family="Helvetica,sans-Serif" font-size="10.00">stop</text>
<text text-anchor="middle" x="897" y="-108.08" font-family="Helvetica,sans-Serif" font-size="10.00">stopCb</text>
<text text-anchor="middle" x="897" y="-97.08" font-family="Helvetica,sans-Serif" font-size="10.00">writeCfgCb</text>
</g>
<!-- Node2&#45;&gt;Node1 -->
<g id="edge1" class="edge">
<title>Node2&#45;&gt;Node1</title>
<path fill="none" stroke="#9a32cd" stroke-dasharray="5,2" d="M967.1,-187.14C918.56,-175.29 845.15,-157.37 800.58,-146.5"/>
<polygon fill="#9a32cd" stroke="#9a32cd" points="966.52,-190.6 977.06,-189.57 968.18,-183.8 966.52,-190.6"/>
<text text-anchor="middle" x="897" y="-180.08" font-family="Helvetica,sans-Serif" font-size="10.00"> wpaCtrlMngr</text>
</g>
<!-- Node3 -->
<g id="node3" class="node">
<title>Node3</title>
<g id="a_node3"><a xlink:href="structwld__wpaCtrl__radioEvtHandlers__cb.html" target="_top" xlink:title=" ">
<polygon fill="white" stroke="black" points="1223,-189.58 1223,-208.58 1405,-208.58 1405,-189.58 1223,-189.58"/>
<text text-anchor="middle" x="1314" y="-196.58" font-family="Helvetica,sans-Serif" font-size="10.00">wld_wpaCtrl_radioEvtHandlers_cb</text>
</a>
</g>
</g>
<!-- Node2&#45;&gt;Node3 -->
<g id="edge4" class="edge">
<title>Node2&#45;&gt;Node3</title>
<path fill="none" stroke="#9a32cd" stroke-dasharray="5,2" d="M1077.96,-199.08C1119.58,-199.08 1175.77,-199.08 1222.77,-199.08"/>
<polygon fill="#9a32cd" stroke="#9a32cd" points="1077.71,-195.58 1067.71,-199.08 1077.71,-202.58 1077.71,-195.58"/>
<text text-anchor="middle" x="1154.5" y="-202.08" font-family="Helvetica,sans-Serif" font-size="10.00"> fFetchSockLinkIface</text>
</g>
<!-- Node3&#45;&gt;Node2 -->
<g id="edge3" class="edge">
<title>Node3&#45;&gt;Node2</title>
<path fill="none" stroke="#9a32cd" stroke-dasharray="5,2" d="M1249.43,-188.07C1234.87,-186 1219.44,-184.14 1205,-183.08 1160.23,-179.78 1148.7,-178.96 1104,-183.08 1089.78,-184.39 1074.41,-186.9 1060.65,-189.54"/>
<polygon fill="#9a32cd" stroke="#9a32cd" points="1248.93,-191.54 1259.34,-189.54 1249.96,-184.61 1248.93,-191.54"/>
<text text-anchor="middle" x="1154.5" y="-186.08" font-family="Helvetica,sans-Serif" font-size="10.00"> handlers</text>
</g>
<!-- Node4 -->
<g id="node4" class="node">
<title>Node4</title>
<g id="a_node4"><a xlink:href="structwld__process.html" target="_top" xlink:title=" ">
<polygon fill="white" stroke="black" points="220,-52.58 220,-71.58 297,-71.58 297,-52.58 220,-52.58"/>
<text text-anchor="middle" x="258.5" y="-59.58" font-family="Helvetica,sans-Serif" font-size="10.00">wld_process</text>
</a>
</g>
</g>
<!-- Node4&#45;&gt;Node1 -->
<g id="edge5" class="edge">
<title>Node4&#45;&gt;Node1</title>
<path fill="none" stroke="#9a32cd" stroke-dasharray="5,2" d="M267.37,-81.03C276.05,-99.17 291.92,-125.45 315,-137.08 454.01,-207.15 649.89,-166.91 726.98,-146.61"/>
<polygon fill="#9a32cd" stroke="#9a32cd" points="270.47,-79.4 263.18,-71.7 264.08,-82.26 270.47,-79.4"/>
<text text-anchor="middle" x="465" y="-190.08" font-family="Helvetica,sans-Serif" font-size="10.00"> dmnProcess</text>
<text text-anchor="middle" x="465" y="-179.08" font-family="Helvetica,sans-Serif" font-size="10.00">selfDmnProcess</text>
</g>
<!-- Node6 -->
<g id="node6" class="node">
<title>Node6</title>
<g id="a_node6"><a xlink:href="structwld__deamonEvtHandlers.html" target="_top" xlink:title=" ">
<polygon fill="white" stroke="black" points="396,-62.58 396,-81.58 534,-81.58 534,-62.58 396,-62.58"/>
<text text-anchor="middle" x="465" y="-69.58" font-family="Helvetica,sans-Serif" font-size="10.00">wld_deamonEvtHandlers</text>
</a>
</g>
</g>
<!-- Node4&#45;&gt;Node6 -->
<g id="edge8" class="edge">
<title>Node4&#45;&gt;Node6</title>
<path fill="none" stroke="#9a32cd" stroke-dasharray="5,2" d="M307.11,-64.41C333.45,-65.69 366.64,-67.32 395.7,-68.74"/>
<polygon fill="#9a32cd" stroke="#9a32cd" points="307.17,-60.91 297.01,-63.91 306.83,-67.9 307.17,-60.91"/>
<text text-anchor="middle" x="346.5" y="-125.08" font-family="Helvetica,sans-Serif" font-size="10.00"> getArgsCb</text>
<text text-anchor="middle" x="346.5" y="-114.08" font-family="Helvetica,sans-Serif" font-size="10.00">reload</text>
<text text-anchor="middle" x="346.5" y="-103.08" font-family="Helvetica,sans-Serif" font-size="10.00">restartCb</text>
<text text-anchor="middle" x="346.5" y="-92.08" font-family="Helvetica,sans-Serif" font-size="10.00">startCb</text>
<text text-anchor="middle" x="346.5" y="-81.08" font-family="Helvetica,sans-Serif" font-size="10.00">stop</text>
<text text-anchor="middle" x="346.5" y="-70.08" font-family="Helvetica,sans-Serif" font-size="10.00">stopCb</text>
</g>
<!-- Node8 -->
<g id="node8" class="node">
<title>Node8</title>
<g id="a_node8"><a xlink:href="structwld__secDmnGrp.html" target="_top" xlink:title=" ">
<polygon fill="white" stroke="black" points="417,-9.58 417,-28.58 513,-28.58 513,-9.58 417,-9.58"/>
<text text-anchor="middle" x="465" y="-16.58" font-family="Helvetica,sans-Serif" font-size="10.00">wld_secDmnGrp</text>
</a>
</g>
</g>
<!-- Node4&#45;&gt;Node8 -->
<g id="edge12" class="edge">
<title>Node4&#45;&gt;Node8</title>
<path fill="none" stroke="#9a32cd" stroke-dasharray="5,2" d="M279.83,-46.29C289.85,-39.41 302.46,-32.03 315,-28.08 348,-17.69 387.1,-15.69 416.97,-16.15"/>
<polygon fill="#9a32cd" stroke="#9a32cd" points="277.48,-43.67 271.43,-52.36 281.58,-49.34 277.48,-43.67"/>
<text text-anchor="middle" x="346.5" y="-31.08" font-family="Helvetica,sans-Serif" font-size="10.00"> dmnProcess</text>
</g>
<!-- Node5 -->
<g id="node5" class="node">
<title>Node5</title>
<g id="a_node5"><a xlink:href="structwld__deamonExitInfo__t.html" target="_top" xlink:title=" ">
<polygon fill="white" stroke="black" points="0,-52.58 0,-71.58 125,-71.58 125,-52.58 0,-52.58"/>
<text text-anchor="middle" x="62.5" y="-59.58" font-family="Helvetica,sans-Serif" font-size="10.00">wld_deamonExitInfo_t</text>
</a>
</g>
</g>
<!-- Node5&#45;&gt;Node4 -->
<g id="edge6" class="edge">
<title>Node5&#45;&gt;Node4</title>
<path fill="none" stroke="#9a32cd" stroke-dasharray="5,2" d="M135.52,-62.08C164.12,-62.08 195.82,-62.08 219.74,-62.08"/>
<polygon fill="#9a32cd" stroke="#9a32cd" points="135.15,-58.58 125.15,-62.08 135.15,-65.58 135.15,-58.58"/>
<text text-anchor="middle" x="172.5" y="-65.08" font-family="Helvetica,sans-Serif" font-size="10.00"> lastExitInfo</text>
</g>
<!-- Node6&#45;&gt;Node4 -->
<g id="edge7" class="edge">
<title>Node6&#45;&gt;Node4</title>
<path fill="none" stroke="#9a32cd" stroke-dasharray="5,2" d="M429.54,-59.13C414.03,-53.97 395.34,-48.64 378,-46.08 350.3,-41.98 342.72,-42.16 315,-46.08 305.67,-47.4 295.7,-49.9 286.83,-52.55"/>
<polygon fill="#9a32cd" stroke="#9a32cd" points="428.64,-62.52 439.23,-62.47 430.92,-55.9 428.64,-62.52"/>
<text text-anchor="middle" x="346.5" y="-49.08" font-family="Helvetica,sans-Serif" font-size="10.00"> handlers</text>
</g>
<!-- Node7&#45;&gt;Node1 -->
<g id="edge9" class="edge">
<title>Node7&#45;&gt;Node1</title>
<path fill="none" stroke="#9a32cd" stroke-dasharray="5,2" d="M979.24,-63.73C947.86,-55.17 901.91,-47.37 864,-60.08 823.82,-73.54 786.82,-109.78 770.62,-127.31"/>
<polygon fill="#9a32cd" stroke="#9a32cd" points="978.32,-67.11 988.89,-66.52 980.26,-60.38 978.32,-67.11"/>
<text text-anchor="middle" x="897" y="-63.08" font-family="Helvetica,sans-Serif" font-size="10.00"> handlers</text>
</g>
<!-- Node8&#45;&gt;Node1 -->
<g id="edge11" class="edge">
<title>Node8&#45;&gt;Node1</title>
<path fill="none" stroke="#9a32cd" stroke-dasharray="5,2" d="M497.38,-32.89C513.62,-39.96 533.82,-48.63 552,-56.08 617.44,-82.89 695.29,-112.64 734.59,-127.51"/>
<polygon fill="#9a32cd" stroke="#9a32cd" points="498.39,-29.51 487.83,-28.72 495.59,-35.93 498.39,-29.51"/>
<text text-anchor="middle" x="605" y="-99.08" font-family="Helvetica,sans-Serif" font-size="10.00"> secDmnGroup</text>
</g>
<!-- Node9 -->
<g id="node9" class="node">
<title>Node9</title>
<g id="a_node9"><a xlink:href="structwld__secDmnGrp__EvtHandlers__t.html" target="_top" xlink:title=" ">
<polygon fill="white" stroke="black" points="676,-9.58 676,-28.58 846,-28.58 846,-9.58 676,-9.58"/>
<text text-anchor="middle" x="761" y="-16.58" font-family="Helvetica,sans-Serif" font-size="10.00">wld_secDmnGrp_EvtHandlers_t</text>
</a>
</g>
</g>
<!-- Node8&#45;&gt;Node9 -->
<g id="edge14" class="edge">
<title>Node8&#45;&gt;Node9</title>
<path fill="none" stroke="#9a32cd" stroke-dasharray="5,2" d="M523.33,-19.08C566.71,-19.08 626.96,-19.08 675.81,-19.08"/>
<polygon fill="#9a32cd" stroke="#9a32cd" points="523.24,-15.58 513.24,-19.08 523.24,-22.58 523.24,-15.58"/>
<text text-anchor="middle" x="605" y="-44.08" font-family="Helvetica,sans-Serif" font-size="10.00"> getArgsCb</text>
<text text-anchor="middle" x="605" y="-33.08" font-family="Helvetica,sans-Serif" font-size="10.00">hasSchedRestartCb</text>
<text text-anchor="middle" x="605" y="-22.08" font-family="Helvetica,sans-Serif" font-size="10.00">isMemberStartableCb</text>
</g>
<!-- Node9&#45;&gt;Node8 -->
<g id="edge13" class="edge">
<title>Node9&#45;&gt;Node8</title>
<path fill="none" stroke="#9a32cd" stroke-dasharray="5,2" d="M699.18,-7.95C685.67,-5.92 671.39,-4.12 658,-3.08 611.03,0.58 598.91,1.25 552,-3.08 537.78,-4.39 522.41,-6.9 508.65,-9.54"/>
<polygon fill="#9a32cd" stroke="#9a32cd" points="698.92,-11.45 709.34,-9.54 700,-4.54 698.92,-11.45"/>
<text text-anchor="middle" x="605" y="-6.08" font-family="Helvetica,sans-Serif" font-size="10.00"> handlers</text>
</g>
</g>
</svg>
