<?xml version="1.0" encoding="UTF-8" standalone="no"?>
<!DOCTYPE svg PUBLIC "-//W3C//DTD SVG 1.1//EN"
 "http://www.w3.org/Graphics/SVG/1.1/DTD/svg11.dtd">
<!-- Generated by graphviz version 2.43.0 (0)
 -->
<!-- Title: wld_nl80211_ifaceInfo_t Pages: 1 -->
<svg width="328pt" height="240pt"
 viewBox="0.00 0.00 328.00 240.00" xmlns="http://www.w3.org/2000/svg" xmlns:xlink="http://www.w3.org/1999/xlink">
<g id="graph0" class="graph" transform="scale(1 1) rotate(0) translate(4 236)">
<title>wld_nl80211_ifaceInfo_t</title>
<polygon fill="white" stroke="transparent" points="-4,4 -4,-236 324,-236 324,4 -4,4"/>
<!-- Node1 -->
<g id="node1" class="node">
<title>Node1</title>
<g id="a_node1"><a xlink:title=" ">
<polygon fill="#bfbfbf" stroke="black" points="18,-0.5 18,-19.5 153,-19.5 153,-0.5 18,-0.5"/>
<text text-anchor="middle" x="85.5" y="-7.5" font-family="Helvetica,sans-Serif" font-size="10.00">wld_nl80211_ifaceInfo_t</text>
</a>
</g>
</g>
<!-- Node2 -->
<g id="node2" class="node">
<title>Node2</title>
<g id="a_node2"><a xlink:href="structwld__nl80211__chanSpec__t.html" target="_top" xlink:title=" ">
<polygon fill="white" stroke="black" points="0,-145.5 0,-164.5 139,-164.5 139,-145.5 0,-145.5"/>
<text text-anchor="middle" x="69.5" y="-152.5" font-family="Helvetica,sans-Serif" font-size="10.00">wld_nl80211_chanSpec_t</text>
</a>
</g>
</g>
<!-- Node2&#45;&gt;Node1 -->
<g id="edge1" class="edge">
<title>Node2&#45;&gt;Node1</title>
<path fill="none" stroke="#9a32cd" stroke-dasharray="5,2" d="M71.32,-135.27C73.06,-117.64 75.81,-90.51 78.5,-67 80.41,-50.26 82.91,-30.73 84.35,-19.72"/>
<polygon fill="#9a32cd" stroke="#9a32cd" points="67.83,-135.06 70.33,-145.35 74.79,-135.74 67.83,-135.06"/>
<text text-anchor="middle" x="103.5" y="-80" font-family="Helvetica,sans-Serif" font-size="10.00"> chanSpec</text>
</g>
<!-- Node3 -->
<g id="node3" class="node">
<title>Node3</title>
<g id="a_node3"><a xlink:href="structwld__nl80211__ifaceMloLinkInfo__t.html" target="_top" xlink:title=" ">
<polygon fill="white" stroke="black" points="137.5,-67.5 137.5,-97.5 283.5,-97.5 283.5,-67.5 137.5,-67.5"/>
<text text-anchor="start" x="145.5" y="-85.5" font-family="Helvetica,sans-Serif" font-size="10.00">wld_nl80211_ifaceMloLink</text>
<text text-anchor="middle" x="210.5" y="-74.5" font-family="Helvetica,sans-Serif" font-size="10.00">Info_t</text>
</a>
</g>
</g>
<!-- Node2&#45;&gt;Node3 -->
<g id="edge5" class="edge">
<title>Node2&#45;&gt;Node3</title>
<path fill="none" stroke="#9a32cd" stroke-dasharray="5,2" d="M95.63,-140.93C120.31,-128.59 157.21,-110.14 182.49,-97.51"/>
<polygon fill="#9a32cd" stroke="#9a32cd" points="93.89,-137.89 86.51,-145.5 97.02,-144.15 93.89,-137.89"/>
<text text-anchor="middle" x="169.5" y="-119" font-family="Helvetica,sans-Serif" font-size="10.00"> chanSpec</text>
</g>
<!-- Node3&#45;&gt;Node1 -->
<g id="edge2" class="edge">
<title>Node3&#45;&gt;Node1</title>
<path fill="none" stroke="#9a32cd" stroke-dasharray="5,2" d="M176.75,-62.47C151.94,-48.47 119.4,-30.12 100.63,-19.53"/>
<polygon fill="#9a32cd" stroke="#9a32cd" points="175.08,-65.54 185.5,-67.4 178.51,-59.44 175.08,-65.54"/>
<text text-anchor="middle" x="176.5" y="-41" font-family="Helvetica,sans-Serif" font-size="10.00"> mloLinks</text>
</g>
<!-- Node4 -->
<g id="node4" class="node">
<title>Node4</title>
<g id="a_node4"><a xlink:href="structwld__nl80211__mloLinkInfo__t.html" target="_top" xlink:title=" ">
<polygon fill="white" stroke="black" points="157.5,-145.5 157.5,-164.5 307.5,-164.5 307.5,-145.5 157.5,-145.5"/>
<text text-anchor="middle" x="232.5" y="-152.5" font-family="Helvetica,sans-Serif" font-size="10.00">wld_nl80211_mloLinkInfo_t</text>
</a>
</g>
</g>
<!-- Node4&#45;&gt;Node3 -->
<g id="edge3" class="edge">
<title>Node4&#45;&gt;Node3</title>
<path fill="none" stroke="#9a32cd" stroke-dasharray="5,2" d="M226.76,-135.6C223.05,-123.72 218.3,-108.49 214.89,-97.58"/>
<polygon fill="#9a32cd" stroke="#9a32cd" points="223.48,-136.85 229.8,-145.36 230.16,-134.77 223.48,-136.85"/>
<text text-anchor="middle" x="233.5" y="-119" font-family="Helvetica,sans-Serif" font-size="10.00"> link</text>
</g>
<!-- Node5 -->
<g id="node5" class="node">
<title>Node5</title>
<g id="a_node5"><a xlink:href="structwld__nl80211__mloLinkInfoStats__t.html" target="_top" xlink:title=" ">
<polygon fill="white" stroke="black" points="145,-212.5 145,-231.5 320,-231.5 320,-212.5 145,-212.5"/>
<text text-anchor="middle" x="232.5" y="-219.5" font-family="Helvetica,sans-Serif" font-size="10.00">wld_nl80211_mloLinkInfoStats_t</text>
</a>
</g>
</g>
<!-- Node5&#45;&gt;Node4 -->
<g id="edge4" class="edge">
<title>Node5&#45;&gt;Node4</title>
<path fill="none" stroke="#9a32cd" stroke-dasharray="5,2" d="M232.5,-202.04C232.5,-189.67 232.5,-174.12 232.5,-164.63"/>
<polygon fill="#9a32cd" stroke="#9a32cd" points="229,-202.23 232.5,-212.23 236,-202.23 229,-202.23"/>
<text text-anchor="middle" x="246.5" y="-186" font-family="Helvetica,sans-Serif" font-size="10.00"> stats</text>
</g>
</g>
</svg>
