<?xml version="1.0" encoding="UTF-8" standalone="no"?>
<!DOCTYPE svg PUBLIC "-//W3C//DTD SVG 1.1//EN"
 "http://www.w3.org/Graphics/SVG/1.1/DTD/svg11.dtd">
<!-- Generated by graphviz version 2.43.0 (0)
 -->
<!-- Title: testDesc_t Pages: 1 -->
<svg width="253pt" height="173pt"
 viewBox="0.00 0.00 252.50 173.00" xmlns="http://www.w3.org/2000/svg" xmlns:xlink="http://www.w3.org/1999/xlink">
<g id="graph0" class="graph" transform="scale(1 1) rotate(0) translate(4 169)">
<title>testDesc_t</title>
<polygon fill="white" stroke="transparent" points="-4,4 -4,-169 248.5,-169 248.5,4 -4,4"/>
<!-- Node1 -->
<g id="node1" class="node">
<title>Node1</title>
<g id="a_node1"><a xlink:title=" ">
<polygon fill="#bfbfbf" stroke="black" points="125.5,-0.5 125.5,-19.5 193.5,-19.5 193.5,-0.5 125.5,-0.5"/>
<text text-anchor="middle" x="159.5" y="-7.5" font-family="Helvetica,sans-Serif" font-size="10.00">testDesc_t</text>
</a>
</g>
</g>
<!-- Node2 -->
<g id="node2" class="node">
<title>Node2</title>
<g id="a_node2"><a xlink:href="structwld__nl80211__state.html" target="_top" xlink:title=" ">
<polygon fill="white" stroke="black" points="26.5,-78.5 26.5,-97.5 134.5,-97.5 134.5,-78.5 26.5,-78.5"/>
<text text-anchor="middle" x="80.5" y="-85.5" font-family="Helvetica,sans-Serif" font-size="10.00">wld_nl80211_state</text>
</a>
</g>
</g>
<!-- Node2&#45;&gt;Node1 -->
<g id="edge1" class="edge">
<title>Node2&#45;&gt;Node1</title>
<path fill="none" stroke="#9a32cd" stroke-dasharray="5,2" d="M96.82,-71.3C113.1,-55.64 137.51,-32.16 150.54,-19.62"/>
<polygon fill="#9a32cd" stroke="#9a32cd" points="94.34,-68.83 89.56,-78.28 99.2,-73.87 94.34,-68.83"/>
<text text-anchor="middle" x="143.5" y="-46.5" font-family="Helvetica,sans-Serif" font-size="10.00"> state</text>
</g>
<!-- Node3 -->
<g id="node3" class="node">
<title>Node3</title>
<g id="a_node3"><a xlink:href="structwld__nl80211__stateCounters__t.html" target="_top" xlink:title=" ">
<polygon fill="white" stroke="black" points="0,-145.5 0,-164.5 161,-164.5 161,-145.5 0,-145.5"/>
<text text-anchor="middle" x="80.5" y="-152.5" font-family="Helvetica,sans-Serif" font-size="10.00">wld_nl80211_stateCounters_t</text>
</a>
</g>
</g>
<!-- Node3&#45;&gt;Node2 -->
<g id="edge2" class="edge">
<title>Node3&#45;&gt;Node2</title>
<path fill="none" stroke="#9a32cd" stroke-dasharray="5,2" d="M80.5,-135.04C80.5,-122.67 80.5,-107.12 80.5,-97.63"/>
<polygon fill="#9a32cd" stroke="#9a32cd" points="77,-135.23 80.5,-145.23 84,-135.23 77,-135.23"/>
<text text-anchor="middle" x="103.5" y="-119" font-family="Helvetica,sans-Serif" font-size="10.00"> counters</text>
</g>
<!-- Node4 -->
<g id="node4" class="node">
<title>Node4</title>
<g id="a_node4"><a xlink:href="structtestData__t.html" target="_top" xlink:title=" ">
<polygon fill="white" stroke="black" points="152.5,-78.5 152.5,-97.5 220.5,-97.5 220.5,-78.5 152.5,-78.5"/>
<text text-anchor="middle" x="186.5" y="-85.5" font-family="Helvetica,sans-Serif" font-size="10.00">testData_t</text>
</a>
</g>
</g>
<!-- Node4&#45;&gt;Node1 -->
<g id="edge3" class="edge">
<title>Node4&#45;&gt;Node1</title>
<path fill="none" stroke="#9a32cd" stroke-dasharray="5,2" d="M179.99,-68.67C174.46,-53.11 166.77,-31.47 162.56,-19.62"/>
<polygon fill="#9a32cd" stroke="#9a32cd" points="176.76,-70.03 183.4,-78.28 183.35,-67.69 176.76,-70.03"/>
<text text-anchor="middle" x="210" y="-52" font-family="Helvetica,sans-Serif" font-size="10.00"> data</text>
<text text-anchor="middle" x="210" y="-41" font-family="Helvetica,sans-Serif" font-size="10.00">expectedData</text>
</g>
</g>
</svg>
