<?xml version="1.0" encoding="UTF-8" standalone="no"?>
<!DOCTYPE svg PUBLIC "-//W3C//DTD SVG 1.1//EN"
 "http://www.w3.org/Graphics/SVG/1.1/DTD/svg11.dtd">
<!-- Generated by graphviz version 2.43.0 (0)
 -->
<!-- Title: wld_deamonEvtHandlers Pages: 1 -->
<svg width="290pt" height="150pt"
 viewBox="0.00 0.00 289.50 150.00" xmlns="http://www.w3.org/2000/svg" xmlns:xlink="http://www.w3.org/1999/xlink">
<g id="graph0" class="graph" transform="scale(1 1) rotate(0) translate(4 146)">
<title>wld_deamonEvtHandlers</title>
<polygon fill="white" stroke="transparent" points="-4,4 -4,-146 285.5,-146 285.5,4 -4,4"/>
<!-- Node1 -->
<g id="node1" class="node">
<title>Node1</title>
<g id="a_node1"><a xlink:title=" ">
<polygon fill="#bfbfbf" stroke="black" points="0,-122.5 0,-141.5 138,-141.5 138,-122.5 0,-122.5"/>
<text text-anchor="middle" x="69" y="-129.5" font-family="Helvetica,sans-Serif" font-size="10.00">wld_deamonEvtHandlers</text>
</a>
</g>
</g>
<!-- Node2 -->
<g id="node2" class="node">
<title>Node2</title>
<g id="a_node2"><a xlink:href="structwld__process.html" target="_top" xlink:title=" ">
<polygon fill="white" stroke="black" points="99.5,-0.5 99.5,-19.5 176.5,-19.5 176.5,-0.5 99.5,-0.5"/>
<text text-anchor="middle" x="138" y="-7.5" font-family="Helvetica,sans-Serif" font-size="10.00">wld_process</text>
</a>
</g>
</g>
<!-- Node1&#45;&gt;Node2 -->
<g id="edge3" class="edge">
<title>Node1&#45;&gt;Node2</title>
<path fill="none" stroke="#9a32cd" stroke-dasharray="5,2" d="M62.5,-112.82C56.53,-92.66 50.71,-60.06 66,-38 73.68,-26.92 86.51,-20.38 99.22,-16.52"/>
<polygon fill="#9a32cd" stroke="#9a32cd" points="59.18,-113.94 65.61,-122.36 65.84,-111.76 59.18,-113.94"/>
<text text-anchor="middle" x="89" y="-68.5" font-family="Helvetica,sans-Serif" font-size="10.00"> handlers</text>
</g>
<!-- Node2&#45;&gt;Node1 -->
<g id="edge1" class="edge">
<title>Node2&#45;&gt;Node1</title>
<path fill="none" stroke="#9a32cd" stroke-dasharray="5,2" d="M137.83,-29.72C136.75,-49.92 132.33,-82.11 116,-104 110.04,-112 100.95,-118 92.36,-122.29"/>
<polygon fill="#9a32cd" stroke="#9a32cd" points="141.33,-29.74 138.14,-19.64 134.34,-29.52 141.33,-29.74"/>
<text text-anchor="middle" x="164" y="-96" font-family="Helvetica,sans-Serif" font-size="10.00"> getArgsCb</text>
<text text-anchor="middle" x="164" y="-85" font-family="Helvetica,sans-Serif" font-size="10.00">reload</text>
<text text-anchor="middle" x="164" y="-74" font-family="Helvetica,sans-Serif" font-size="10.00">restartCb</text>
<text text-anchor="middle" x="164" y="-63" font-family="Helvetica,sans-Serif" font-size="10.00">startCb</text>
<text text-anchor="middle" x="164" y="-52" font-family="Helvetica,sans-Serif" font-size="10.00">stop</text>
<text text-anchor="middle" x="164" y="-41" font-family="Helvetica,sans-Serif" font-size="10.00">stopCb</text>
</g>
<!-- Node3 -->
<g id="node3" class="node">
<title>Node3</title>
<g id="a_node3"><a xlink:href="structwld__deamonExitInfo__t.html" target="_top" xlink:title=" ">
<polygon fill="white" stroke="black" points="156.5,-122.5 156.5,-141.5 281.5,-141.5 281.5,-122.5 156.5,-122.5"/>
<text text-anchor="middle" x="219" y="-129.5" font-family="Helvetica,sans-Serif" font-size="10.00">wld_deamonExitInfo_t</text>
</a>
</g>
</g>
<!-- Node3&#45;&gt;Node2 -->
<g id="edge2" class="edge">
<title>Node3&#45;&gt;Node2</title>
<path fill="none" stroke="#9a32cd" stroke-dasharray="5,2" d="M218.71,-112.31C217.45,-91.89 212.57,-59.27 195,-38 188.1,-29.64 178.01,-23.71 168.23,-19.58"/>
<polygon fill="#9a32cd" stroke="#9a32cd" points="215.22,-112.63 219.1,-122.49 222.22,-112.37 215.22,-112.63"/>
<text text-anchor="middle" x="246.5" y="-68.5" font-family="Helvetica,sans-Serif" font-size="10.00"> lastExitInfo</text>
</g>
</g>
</svg>
