<?xml version="1.0" encoding="UTF-8" standalone="no"?>
<!DOCTYPE svg PUBLIC "-//W3C//DTD SVG 1.1//EN"
 "http://www.w3.org/Graphics/SVG/1.1/DTD/svg11.dtd">
<!-- Generated by graphviz version 2.43.0 (0)
 -->
<!-- Title: T_ScanState Pages: 1 -->
<svg width="348pt" height="162pt"
 viewBox="0.00 0.00 348.00 162.00" xmlns="http://www.w3.org/2000/svg" xmlns:xlink="http://www.w3.org/1999/xlink">
<g id="graph0" class="graph" transform="scale(1 1) rotate(0) translate(4 158)">
<title>T_ScanState</title>
<polygon fill="white" stroke="transparent" points="-4,4 -4,-158 344,-158 344,4 -4,4"/>
<!-- Node1 -->
<g id="node1" class="node">
<title>Node1</title>
<g id="a_node1"><a xlink:title=" ">
<polygon fill="#bfbfbf" stroke="black" points="132.5,-0.5 132.5,-19.5 209.5,-19.5 209.5,-0.5 132.5,-0.5"/>
<text text-anchor="middle" x="171" y="-7.5" font-family="Helvetica,sans-Serif" font-size="10.00">T_ScanState</text>
</a>
</g>
</g>
<!-- Node2 -->
<g id="node2" class="node">
<title>Node2</title>
<g id="a_node2"><a xlink:href="structwld__scan__stats__t.html" target="_top" xlink:title=" ">
<polygon fill="white" stroke="black" points="0,-67.5 0,-86.5 100,-86.5 100,-67.5 0,-67.5"/>
<text text-anchor="middle" x="50" y="-74.5" font-family="Helvetica,sans-Serif" font-size="10.00">wld_scan_stats_t</text>
</a>
</g>
</g>
<!-- Node2&#45;&gt;Node1 -->
<g id="edge1" class="edge">
<title>Node2&#45;&gt;Node1</title>
<path fill="none" stroke="#9a32cd" stroke-dasharray="5,2" d="M75.21,-62.46C99.2,-49.57 134.56,-30.57 154.94,-19.63"/>
<polygon fill="#9a32cd" stroke="#9a32cd" points="73.47,-59.42 66.32,-67.23 76.78,-65.58 73.47,-59.42"/>
<text text-anchor="middle" x="132" y="-41" font-family="Helvetica,sans-Serif" font-size="10.00"> stats</text>
</g>
<!-- Node3 -->
<g id="node3" class="node">
<title>Node3</title>
<g id="a_node3"><a xlink:href="structwld__scan__config__t.html" target="_top" xlink:title=" ">
<polygon fill="white" stroke="black" points="118.5,-67.5 118.5,-86.5 223.5,-86.5 223.5,-67.5 118.5,-67.5"/>
<text text-anchor="middle" x="171" y="-74.5" font-family="Helvetica,sans-Serif" font-size="10.00">wld_scan_config_t</text>
</a>
</g>
</g>
<!-- Node3&#45;&gt;Node1 -->
<g id="edge2" class="edge">
<title>Node3&#45;&gt;Node1</title>
<path fill="none" stroke="#9a32cd" stroke-dasharray="5,2" d="M171,-57.04C171,-44.67 171,-29.12 171,-19.63"/>
<polygon fill="#9a32cd" stroke="#9a32cd" points="167.5,-57.23 171,-67.23 174.5,-57.23 167.5,-57.23"/>
<text text-anchor="middle" x="180.5" y="-41" font-family="Helvetica,sans-Serif" font-size="10.00"> cfg</text>
</g>
<!-- Node4 -->
<g id="node4" class="node">
<title>Node4</title>
<g id="a_node4"><a xlink:href="structwld__scanArgs.html" target="_top" xlink:title=" ">
<polygon fill="white" stroke="black" points="129.5,-134.5 129.5,-153.5 212.5,-153.5 212.5,-134.5 129.5,-134.5"/>
<text text-anchor="middle" x="171" y="-141.5" font-family="Helvetica,sans-Serif" font-size="10.00">wld_scanArgs</text>
</a>
</g>
</g>
<!-- Node4&#45;&gt;Node3 -->
<g id="edge3" class="edge">
<title>Node4&#45;&gt;Node3</title>
<path fill="none" stroke="#9a32cd" stroke-dasharray="5,2" d="M171,-124.04C171,-111.67 171,-96.12 171,-86.63"/>
<polygon fill="#9a32cd" stroke="#9a32cd" points="167.5,-124.23 171,-134.23 174.5,-124.23 167.5,-124.23"/>
<text text-anchor="middle" x="210.5" y="-108" font-family="Helvetica,sans-Serif" font-size="10.00"> scanArguments</text>
</g>
<!-- Node5 -->
<g id="node5" class="node">
<title>Node5</title>
<g id="a_node5"><a xlink:href="structwld__scanResults.html" target="_top" xlink:title=" ">
<polygon fill="white" stroke="black" points="242,-67.5 242,-86.5 340,-86.5 340,-67.5 242,-67.5"/>
<text text-anchor="middle" x="291" y="-74.5" font-family="Helvetica,sans-Serif" font-size="10.00">wld_scanResults</text>
</a>
</g>
</g>
<!-- Node5&#45;&gt;Node1 -->
<g id="edge4" class="edge">
<title>Node5&#45;&gt;Node1</title>
<path fill="none" stroke="#9a32cd" stroke-dasharray="5,2" d="M266,-62.46C242.21,-49.57 207.13,-30.57 186.93,-19.63"/>
<polygon fill="#9a32cd" stroke="#9a32cd" points="264.36,-65.55 274.82,-67.23 267.69,-59.39 264.36,-65.55"/>
<text text-anchor="middle" x="278.5" y="-41" font-family="Helvetica,sans-Serif" font-size="10.00"> lastScanResults</text>
</g>
</g>
</svg>
