<?xml version="1.0" encoding="UTF-8" standalone="no"?>
<!DOCTYPE svg PUBLIC "-//W3C//DTD SVG 1.1//EN"
 "http://www.w3.org/Graphics/SVG/1.1/DTD/svg11.dtd">
<!-- Generated by graphviz version 2.43.0 (0)
 -->
<!-- Title: wld_th_radCap_t Pages: 1 -->
<svg width="118pt" height="173pt"
 viewBox="0.00 0.00 118.00 173.00" xmlns="http://www.w3.org/2000/svg" xmlns:xlink="http://www.w3.org/1999/xlink">
<g id="graph0" class="graph" transform="scale(1 1) rotate(0) translate(4 169)">
<title>wld_th_radCap_t</title>
<polygon fill="white" stroke="transparent" points="-4,4 -4,-169 114,-169 114,4 -4,4"/>
<!-- Node1 -->
<g id="node1" class="node">
<title>Node1</title>
<g id="a_node1"><a xlink:title=" ">
<polygon fill="#bfbfbf" stroke="black" points="6,-0.5 6,-19.5 104,-19.5 104,-0.5 6,-0.5"/>
<text text-anchor="middle" x="55" y="-7.5" font-family="Helvetica,sans-Serif" font-size="10.00">wld_th_radCap_t</text>
</a>
</g>
</g>
<!-- Node2 -->
<g id="node2" class="node">
<title>Node2</title>
<g id="a_node2"><a xlink:href="structwld__radioCap.html" target="_top" xlink:title=" ">
<polygon fill="white" stroke="black" points="13.5,-67.5 13.5,-86.5 96.5,-86.5 96.5,-67.5 13.5,-67.5"/>
<text text-anchor="middle" x="55" y="-74.5" font-family="Helvetica,sans-Serif" font-size="10.00">wld_radioCap</text>
</a>
</g>
</g>
<!-- Node2&#45;&gt;Node1 -->
<g id="edge1" class="edge">
<title>Node2&#45;&gt;Node1</title>
<path fill="none" stroke="#9a32cd" stroke-dasharray="5,2" d="M55,-57.04C55,-44.67 55,-29.12 55,-19.63"/>
<polygon fill="#9a32cd" stroke="#9a32cd" points="51.5,-57.23 55,-67.23 58.5,-57.23 51.5,-57.23"/>
<text text-anchor="middle" x="65.5" y="-41" font-family="Helvetica,sans-Serif" font-size="10.00"> cap</text>
</g>
<!-- Node3 -->
<g id="node3" class="node">
<title>Node3</title>
<g id="a_node3"><a xlink:href="structwld__radioWiFi7Cap.html" target="_top" xlink:title=" ">
<polygon fill="white" stroke="black" points="0,-145.5 0,-164.5 110,-164.5 110,-145.5 0,-145.5"/>
<text text-anchor="middle" x="55" y="-152.5" font-family="Helvetica,sans-Serif" font-size="10.00">wld_radioWiFi7Cap</text>
</a>
</g>
</g>
<!-- Node3&#45;&gt;Node2 -->
<g id="edge2" class="edge">
<title>Node3&#45;&gt;Node2</title>
<path fill="none" stroke="#9a32cd" stroke-dasharray="5,2" d="M55,-135.22C55,-119.7 55,-98.36 55,-86.62"/>
<polygon fill="#9a32cd" stroke="#9a32cd" points="51.5,-135.28 55,-145.28 58.5,-135.28 51.5,-135.28"/>
<text text-anchor="middle" x="75" y="-119" font-family="Helvetica,sans-Serif" font-size="10.00"> apCap7</text>
<text text-anchor="middle" x="75" y="-108" font-family="Helvetica,sans-Serif" font-size="10.00">staCap7</text>
</g>
</g>
</svg>
