<?xml version="1.0" encoding="UTF-8" standalone="no"?>
<!DOCTYPE svg PUBLIC "-//W3C//DTD SVG 1.1//EN"
 "http://www.w3.org/Graphics/SVG/1.1/DTD/svg11.dtd">
<!-- Generated by graphviz version 2.43.0 (0)
 -->
<!-- Title: wld_wpaCtrlInterface Pages: 1 -->
<svg width="990pt" height="441pt"
 viewBox="0.00 0.00 990.00 441.00" xmlns="http://www.w3.org/2000/svg" xmlns:xlink="http://www.w3.org/1999/xlink">
<g id="graph0" class="graph" transform="scale(1 1) rotate(0) translate(4 437)">
<title>wld_wpaCtrlInterface</title>
<polygon fill="white" stroke="transparent" points="-4,4 -4,-437 986,-437 986,4 -4,4"/>
<!-- Node1 -->
<g id="node1" class="node">
<title>Node1</title>
<g id="a_node1"><a xlink:title=" ">
<polygon fill="#bfbfbf" stroke="black" points="151,-122.5 151,-141.5 271,-141.5 271,-122.5 151,-122.5"/>
<text text-anchor="middle" x="211" y="-129.5" font-family="Helvetica,sans-Serif" font-size="10.00">wld_wpaCtrlInterface</text>
</a>
</g>
</g>
<!-- Node2 -->
<g id="node2" class="node">
<title>Node2</title>
<g id="a_node2"><a xlink:href="structwpaCtrlConnection.html" target="_top" xlink:title=" ">
<polygon fill="white" stroke="black" points="176.5,-212.5 176.5,-231.5 285.5,-231.5 285.5,-212.5 176.5,-212.5"/>
<text text-anchor="middle" x="231" y="-219.5" font-family="Helvetica,sans-Serif" font-size="10.00">wpaCtrlConnection</text>
</a>
</g>
</g>
<!-- Node2&#45;&gt;Node1 -->
<g id="edge1" class="edge">
<title>Node2&#45;&gt;Node1</title>
<path fill="none" stroke="#9a32cd" stroke-dasharray="5,2" d="M217.26,-204.04C215.11,-200.57 213.21,-196.81 212,-193 206.47,-175.52 208.07,-153.71 209.61,-141.79"/>
<polygon fill="#9a32cd" stroke="#9a32cd" points="214.55,-206.26 223.2,-212.38 220.25,-202.2 214.55,-206.26"/>
<text text-anchor="middle" x="238.5" y="-179.5" font-family="Helvetica,sans-Serif" font-size="10.00"> cmdConn</text>
<text text-anchor="middle" x="238.5" y="-168.5" font-family="Helvetica,sans-Serif" font-size="10.00">eventConn</text>
</g>
<!-- Node3 -->
<g id="node3" class="node">
<title>Node3</title>
<g id="a_node3"><a xlink:href="structwld__wpaCtrlConnection__evtHandlers__cb.html" target="_top" xlink:title=" ">
<polygon fill="white" stroke="black" points="165.5,-335.5 165.5,-365.5 296.5,-365.5 296.5,-335.5 165.5,-335.5"/>
<text text-anchor="start" x="173.5" y="-353.5" font-family="Helvetica,sans-Serif" font-size="10.00">wld_wpaCtrlConnection</text>
<text text-anchor="middle" x="231" y="-342.5" font-family="Helvetica,sans-Serif" font-size="10.00">_evtHandlers_cb</text>
</a>
</g>
</g>
<!-- Node3&#45;&gt;Node2 -->
<g id="edge2" class="edge">
<title>Node3&#45;&gt;Node2</title>
<path fill="none" stroke="#9a32cd" stroke-dasharray="5,2" d="M231,-325.14C231,-296.62 231,-250.86 231,-231.79"/>
<polygon fill="#9a32cd" stroke="#9a32cd" points="227.5,-325.48 231,-335.48 234.5,-325.48 227.5,-325.48"/>
<text text-anchor="middle" x="253.5" y="-281.5" font-family="Helvetica,sans-Serif" font-size="10.00"> evtHdlrs</text>
</g>
<!-- Node4 -->
<g id="node4" class="node">
<title>Node4</title>
<g id="a_node4"><a xlink:href="structwld__wpaCtrlMngr.html" target="_top" xlink:title=" ">
<polygon fill="white" stroke="black" points="480.5,-212.5 480.5,-231.5 581.5,-231.5 581.5,-212.5 480.5,-212.5"/>
<text text-anchor="middle" x="531" y="-219.5" font-family="Helvetica,sans-Serif" font-size="10.00">wld_wpaCtrlMngr</text>
</a>
</g>
</g>
<!-- Node4&#45;&gt;Node1 -->
<g id="edge3" class="edge">
<title>Node4&#45;&gt;Node1</title>
<path fill="none" stroke="#9a32cd" stroke-dasharray="5,2" d="M471.31,-211.04C471.21,-211.03 471.1,-211.01 471,-211 432.26,-205.78 331.04,-210.34 296,-193 277.96,-184.07 281.14,-172.02 265,-160 255,-152.55 242.62,-146.19 232.25,-141.52"/>
<polygon fill="#9a32cd" stroke="#9a32cd" points="470.88,-214.52 481.27,-212.47 471.87,-207.59 470.88,-214.52"/>
<text text-anchor="middle" x="310" y="-174" font-family="Helvetica,sans-Serif" font-size="10.00"> pMgr</text>
</g>
<!-- Node5 -->
<g id="node5" class="node">
<title>Node5</title>
<g id="a_node5"><a xlink:href="structwld__secDmn.html" target="_top" xlink:title=" ">
<polygon fill="white" stroke="black" points="612.5,-122.5 612.5,-141.5 691.5,-141.5 691.5,-122.5 612.5,-122.5"/>
<text text-anchor="middle" x="652" y="-129.5" font-family="Helvetica,sans-Serif" font-size="10.00">wld_secDmn</text>
</a>
</g>
</g>
<!-- Node4&#45;&gt;Node5 -->
<g id="edge5" class="edge">
<title>Node4&#45;&gt;Node5</title>
<path fill="none" stroke="#9a32cd" stroke-dasharray="5,2" d="M524.25,-202.91C520.56,-189.61 518.45,-171.86 528,-160 538.51,-146.96 580.25,-139.89 612.43,-136.29"/>
<polygon fill="#9a32cd" stroke="#9a32cd" points="520.93,-204 527.36,-212.42 527.58,-201.83 520.93,-204"/>
<text text-anchor="middle" x="561" y="-174" font-family="Helvetica,sans-Serif" font-size="10.00"> wpaCtrlMngr</text>
</g>
<!-- Node12 -->
<g id="node12" class="node">
<title>Node12</title>
<g id="a_node12"><a xlink:href="structwld__wpaCtrl__radioEvtHandlers__cb.html" target="_top" xlink:title=" ">
<polygon fill="white" stroke="black" points="330,-122.5 330,-141.5 512,-141.5 512,-122.5 330,-122.5"/>
<text text-anchor="middle" x="421" y="-129.5" font-family="Helvetica,sans-Serif" font-size="10.00">wld_wpaCtrl_radioEvtHandlers_cb</text>
</a>
</g>
</g>
<!-- Node4&#45;&gt;Node12 -->
<g id="edge17" class="edge">
<title>Node4&#45;&gt;Node12</title>
<path fill="none" stroke="#9a32cd" stroke-dasharray="5,2" d="M470.5,-211.33C427.85,-207.77 353.52,-214.14 335,-193 325.33,-181.97 326.32,-171.82 335,-160 341.2,-151.55 350.05,-145.67 359.73,-141.6"/>
<polygon fill="#9a32cd" stroke="#9a32cd" points="470.27,-214.83 480.6,-212.47 471.06,-207.87 470.27,-214.83"/>
<text text-anchor="middle" x="385.5" y="-174" font-family="Helvetica,sans-Serif" font-size="10.00"> fFetchSockLinkIface</text>
</g>
<!-- Node5&#45;&gt;Node4 -->
<g id="edge4" class="edge">
<title>Node5&#45;&gt;Node4</title>
<path fill="none" stroke="#9a32cd" stroke-dasharray="5,2" d="M633.08,-148.17C628.91,-151.86 624.66,-155.92 621,-160 609.06,-173.3 611.91,-181.77 598,-193 587.31,-201.63 573.57,-207.99 561.33,-212.44"/>
<polygon fill="#9a32cd" stroke="#9a32cd" points="635.42,-150.78 640.78,-141.64 630.89,-145.44 635.42,-150.78"/>
<text text-anchor="middle" x="646" y="-174" font-family="Helvetica,sans-Serif" font-size="10.00"> pSecDmn</text>
</g>
<!-- Node9 -->
<g id="node9" class="node">
<title>Node9</title>
<g id="a_node9"><a xlink:href="structwld__secDmnEvtHandlers.html" target="_top" xlink:title=" ">
<polygon fill="white" stroke="black" points="583,-0.5 583,-19.5 721,-19.5 721,-0.5 583,-0.5"/>
<text text-anchor="middle" x="652" y="-7.5" font-family="Helvetica,sans-Serif" font-size="10.00">wld_secDmnEvtHandlers</text>
</a>
</g>
</g>
<!-- Node5&#45;&gt;Node9 -->
<g id="edge11" class="edge">
<title>Node5&#45;&gt;Node9</title>
<path fill="none" stroke="#9a32cd" stroke-dasharray="5,2" d="M621.52,-116.8C616.89,-113.28 612.75,-109.04 610,-104 595.94,-78.25 595.94,-63.75 610,-38 614.4,-29.94 622.36,-23.92 630.17,-19.64"/>
<polygon fill="#9a32cd" stroke="#9a32cd" points="619.87,-119.9 630.17,-122.36 623.65,-114.01 619.87,-119.9"/>
<text text-anchor="middle" x="637.5" y="-96" font-family="Helvetica,sans-Serif" font-size="10.00"> getArgs</text>
<text text-anchor="middle" x="637.5" y="-85" font-family="Helvetica,sans-Serif" font-size="10.00">restartCb</text>
<text text-anchor="middle" x="637.5" y="-74" font-family="Helvetica,sans-Serif" font-size="10.00">startCb</text>
<text text-anchor="middle" x="637.5" y="-63" font-family="Helvetica,sans-Serif" font-size="10.00">stop</text>
<text text-anchor="middle" x="637.5" y="-52" font-family="Helvetica,sans-Serif" font-size="10.00">stopCb</text>
<text text-anchor="middle" x="637.5" y="-41" font-family="Helvetica,sans-Serif" font-size="10.00">writeCfgCb</text>
</g>
<!-- Node6 -->
<g id="node6" class="node">
<title>Node6</title>
<g id="a_node6"><a xlink:href="structwld__process.html" target="_top" xlink:title=" ">
<polygon fill="white" stroke="black" points="609.5,-341 609.5,-360 686.5,-360 686.5,-341 609.5,-341"/>
<text text-anchor="middle" x="648" y="-348" font-family="Helvetica,sans-Serif" font-size="10.00">wld_process</text>
</a>
</g>
</g>
<!-- Node6&#45;&gt;Node5 -->
<g id="edge6" class="edge">
<title>Node6&#45;&gt;Node5</title>
<path fill="none" stroke="#9a32cd" stroke-dasharray="5,2" d="M662.54,-333.08C665.99,-328.22 669.19,-322.68 671,-317 692.15,-250.5 692.06,-226.52 671,-160 668.85,-153.22 664.33,-146.68 660.23,-141.73"/>
<polygon fill="#9a32cd" stroke="#9a32cd" points="659.78,-330.93 656.31,-340.94 665.26,-335.28 659.78,-330.93"/>
<text text-anchor="middle" x="725.5" y="-225" font-family="Helvetica,sans-Serif" font-size="10.00"> dmnProcess</text>
<text text-anchor="middle" x="725.5" y="-214" font-family="Helvetica,sans-Serif" font-size="10.00">selfDmnProcess</text>
</g>
<!-- Node8 -->
<g id="node8" class="node">
<title>Node8</title>
<g id="a_node8"><a xlink:href="structwld__deamonEvtHandlers.html" target="_top" xlink:title=" ">
<polygon fill="white" stroke="black" points="324,-212.5 324,-231.5 462,-231.5 462,-212.5 324,-212.5"/>
<text text-anchor="middle" x="393" y="-219.5" font-family="Helvetica,sans-Serif" font-size="10.00">wld_deamonEvtHandlers</text>
</a>
</g>
</g>
<!-- Node6&#45;&gt;Node8 -->
<g id="edge9" class="edge">
<title>Node6&#45;&gt;Node8</title>
<path fill="none" stroke="#9a32cd" stroke-dasharray="5,2" d="M632.65,-333.46C606.09,-305.73 554.25,-251.66 553,-251 543.97,-246.2 493.84,-237.86 452.06,-231.52"/>
<polygon fill="#9a32cd" stroke="#9a32cd" points="630.26,-336.03 639.71,-340.83 635.32,-331.19 630.26,-336.03"/>
<text text-anchor="middle" x="642" y="-309" font-family="Helvetica,sans-Serif" font-size="10.00"> getArgsCb</text>
<text text-anchor="middle" x="642" y="-298" font-family="Helvetica,sans-Serif" font-size="10.00">reload</text>
<text text-anchor="middle" x="642" y="-287" font-family="Helvetica,sans-Serif" font-size="10.00">restartCb</text>
<text text-anchor="middle" x="642" y="-276" font-family="Helvetica,sans-Serif" font-size="10.00">startCb</text>
<text text-anchor="middle" x="642" y="-265" font-family="Helvetica,sans-Serif" font-size="10.00">stop</text>
<text text-anchor="middle" x="642" y="-254" font-family="Helvetica,sans-Serif" font-size="10.00">stopCb</text>
</g>
<!-- Node10 -->
<g id="node10" class="node">
<title>Node10</title>
<g id="a_node10"><a xlink:href="structwld__secDmnGrp.html" target="_top" xlink:title=" ">
<polygon fill="white" stroke="black" points="782,-212.5 782,-231.5 878,-231.5 878,-212.5 782,-212.5"/>
<text text-anchor="middle" x="830" y="-219.5" font-family="Helvetica,sans-Serif" font-size="10.00">wld_secDmnGrp</text>
</a>
</g>
</g>
<!-- Node6&#45;&gt;Node10 -->
<g id="edge13" class="edge">
<title>Node6&#45;&gt;Node10</title>
<path fill="none" stroke="#9a32cd" stroke-dasharray="5,2" d="M670.67,-335.43C679.57,-329.8 689.84,-323.2 699,-317 743.98,-286.57 796.02,-248.28 818.58,-231.51"/>
<polygon fill="#9a32cd" stroke="#9a32cd" points="668.6,-332.6 661.99,-340.88 672.32,-338.53 668.6,-332.6"/>
<text text-anchor="middle" x="820.5" y="-281.5" font-family="Helvetica,sans-Serif" font-size="10.00"> dmnProcess</text>
</g>
<!-- Node7 -->
<g id="node7" class="node">
<title>Node7</title>
<g id="a_node7"><a xlink:href="structwld__deamonExitInfo__t.html" target="_top" xlink:title=" ">
<polygon fill="white" stroke="black" points="585.5,-413.5 585.5,-432.5 710.5,-432.5 710.5,-413.5 585.5,-413.5"/>
<text text-anchor="middle" x="648" y="-420.5" font-family="Helvetica,sans-Serif" font-size="10.00">wld_deamonExitInfo_t</text>
</a>
</g>
</g>
<!-- Node7&#45;&gt;Node6 -->
<g id="edge7" class="edge">
<title>Node7&#45;&gt;Node6</title>
<path fill="none" stroke="#9a32cd" stroke-dasharray="5,2" d="M648,-402.94C648,-389.03 648,-370.82 648,-360.22"/>
<polygon fill="#9a32cd" stroke="#9a32cd" points="644.5,-403.36 648,-413.36 651.5,-403.36 644.5,-403.36"/>
<text text-anchor="middle" x="677.5" y="-387" font-family="Helvetica,sans-Serif" font-size="10.00"> lastExitInfo</text>
</g>
<!-- Node8&#45;&gt;Node6 -->
<g id="edge8" class="edge">
<title>Node8&#45;&gt;Node6</title>
<path fill="none" stroke="#9a32cd" stroke-dasharray="5,2" d="M407.69,-239.07C427.95,-260.23 466.58,-297.07 507,-317 539.45,-333 580,-341.28 609.28,-345.47"/>
<polygon fill="#9a32cd" stroke="#9a32cd" points="410.02,-236.44 400.63,-231.55 404.92,-241.23 410.02,-236.44"/>
<text text-anchor="middle" x="530" y="-281.5" font-family="Helvetica,sans-Serif" font-size="10.00"> handlers</text>
</g>
<!-- Node9&#45;&gt;Node5 -->
<g id="edge10" class="edge">
<title>Node9&#45;&gt;Node5</title>
<path fill="none" stroke="#9a32cd" stroke-dasharray="5,2" d="M664.85,-28.33C666.56,-31.42 668.05,-34.7 669,-38 677.13,-66.18 677.13,-75.82 669,-104 667.1,-110.6 663.05,-117.14 659.38,-122.13"/>
<polygon fill="#9a32cd" stroke="#9a32cd" points="667.75,-26.37 659.38,-19.87 661.87,-30.17 667.75,-26.37"/>
<text text-anchor="middle" x="698" y="-68.5" font-family="Helvetica,sans-Serif" font-size="10.00"> handlers</text>
</g>
<!-- Node10&#45;&gt;Node5 -->
<g id="edge12" class="edge">
<title>Node10&#45;&gt;Node5</title>
<path fill="none" stroke="#9a32cd" stroke-dasharray="5,2" d="M786.67,-209.52C772.99,-205.17 758.04,-199.63 745,-193 722.57,-181.6 720.16,-173.62 699,-160 688.87,-153.48 677.12,-146.73 667.9,-141.61"/>
<polygon fill="#9a32cd" stroke="#9a32cd" points="785.78,-212.91 796.37,-212.48 787.83,-206.22 785.78,-212.91"/>
<text text-anchor="middle" x="781.5" y="-174" font-family="Helvetica,sans-Serif" font-size="10.00"> secDmnGroup</text>
</g>
<!-- Node11 -->
<g id="node11" class="node">
<title>Node11</title>
<g id="a_node11"><a xlink:href="structwld__secDmnGrp__EvtHandlers__t.html" target="_top" xlink:title=" ">
<polygon fill="white" stroke="black" points="775,-122.5 775,-141.5 945,-141.5 945,-122.5 775,-122.5"/>
<text text-anchor="middle" x="860" y="-129.5" font-family="Helvetica,sans-Serif" font-size="10.00">wld_secDmnGrp_EvtHandlers_t</text>
</a>
</g>
</g>
<!-- Node10&#45;&gt;Node11 -->
<g id="edge15" class="edge">
<title>Node10&#45;&gt;Node11</title>
<path fill="none" stroke="#9a32cd" stroke-dasharray="5,2" d="M859.93,-207.17C865.18,-203.34 869.93,-198.65 873,-193 882.04,-176.32 872.23,-153.83 865.4,-141.67"/>
<polygon fill="#9a32cd" stroke="#9a32cd" points="858.07,-204.2 851.45,-212.47 861.78,-210.14 858.07,-204.2"/>
<text text-anchor="middle" x="929" y="-185" font-family="Helvetica,sans-Serif" font-size="10.00"> getArgsCb</text>
<text text-anchor="middle" x="929" y="-174" font-family="Helvetica,sans-Serif" font-size="10.00">hasSchedRestartCb</text>
<text text-anchor="middle" x="929" y="-163" font-family="Helvetica,sans-Serif" font-size="10.00">isMemberStartableCb</text>
</g>
<!-- Node11&#45;&gt;Node10 -->
<g id="edge14" class="edge">
<title>Node11&#45;&gt;Node10</title>
<path fill="none" stroke="#9a32cd" stroke-dasharray="5,2" d="M836.18,-147.99C832.46,-151.45 829.15,-155.47 827,-160 818.92,-177.06 823.53,-199.88 827.08,-212.21"/>
<polygon fill="#9a32cd" stroke="#9a32cd" points="838.49,-150.63 844.14,-141.67 834.13,-145.15 838.49,-150.63"/>
<text text-anchor="middle" x="850" y="-174" font-family="Helvetica,sans-Serif" font-size="10.00"> handlers</text>
</g>
<!-- Node12&#45;&gt;Node4 -->
<g id="edge16" class="edge">
<title>Node12&#45;&gt;Node4</title>
<path fill="none" stroke="#9a32cd" stroke-dasharray="5,2" d="M432.86,-149.83C435.23,-153.19 437.69,-156.71 440,-160 450.26,-174.64 449.06,-181.81 463,-193 473.75,-201.63 487.54,-207.96 499.88,-212.4"/>
<polygon fill="#9a32cd" stroke="#9a32cd" points="435.62,-147.67 427,-141.51 429.89,-151.7 435.62,-147.67"/>
<text text-anchor="middle" x="486" y="-174" font-family="Helvetica,sans-Serif" font-size="10.00"> handlers</text>
</g>
<!-- Node13 -->
<g id="node13" class="node">
<title>Node13</title>
<g id="a_node13"><a xlink:href="structwld__wpaCtrl__evtHandlers__cb.html" target="_top" xlink:title=" ">
<polygon fill="white" stroke="black" points="0,-212.5 0,-231.5 158,-231.5 158,-212.5 0,-212.5"/>
<text text-anchor="middle" x="79" y="-219.5" font-family="Helvetica,sans-Serif" font-size="10.00">wld_wpaCtrl_evtHandlers_cb</text>
</a>
</g>
</g>
<!-- Node13&#45;&gt;Node1 -->
<g id="edge18" class="edge">
<title>Node13&#45;&gt;Node1</title>
<path fill="none" stroke="#9a32cd" stroke-dasharray="5,2" d="M97.35,-205.55C113.15,-192.61 136.85,-174.05 159,-160 169.82,-153.14 182.59,-146.49 192.76,-141.51"/>
<polygon fill="#9a32cd" stroke="#9a32cd" points="94.91,-203.03 89.44,-212.1 99.38,-208.42 94.91,-203.03"/>
<text text-anchor="middle" x="182" y="-174" font-family="Helvetica,sans-Serif" font-size="10.00"> handlers</text>
</g>
</g>
</svg>
