<?xml version="1.0" encoding="UTF-8" standalone="no"?>
<!DOCTYPE svg PUBLIC "-//W3C//DTD SVG 1.1//EN"
 "http://www.w3.org/Graphics/SVG/1.1/DTD/svg11.dtd">
<!-- Generated by graphviz version 2.43.0 (0)
 -->
<!-- Title: wld_wpaCtrl_radioEvtHandlers_cb Pages: 1 -->
<svg width="662pt" height="430pt"
 viewBox="0.00 0.00 662.00 430.00" xmlns="http://www.w3.org/2000/svg" xmlns:xlink="http://www.w3.org/1999/xlink">
<g id="graph0" class="graph" transform="scale(1 1) rotate(0) translate(4 426)">
<title>wld_wpaCtrl_radioEvtHandlers_cb</title>
<polygon fill="white" stroke="transparent" points="-4,4 -4,-426 658,-426 658,4 -4,4"/>
<!-- Node1 -->
<g id="node1" class="node">
<title>Node1</title>
<g id="a_node1"><a xlink:title=" ">
<polygon fill="#bfbfbf" stroke="black" points="0,-335.5 0,-354.5 182,-354.5 182,-335.5 0,-335.5"/>
<text text-anchor="middle" x="91" y="-342.5" font-family="Helvetica,sans-Serif" font-size="10.00">wld_wpaCtrl_radioEvtHandlers_cb</text>
</a>
</g>
</g>
<!-- Node2 -->
<g id="node2" class="node">
<title>Node2</title>
<g id="a_node2"><a xlink:href="structwld__wpaCtrlMngr.html" target="_top" xlink:title=" ">
<polygon fill="white" stroke="black" points="64.5,-212.5 64.5,-231.5 165.5,-231.5 165.5,-212.5 64.5,-212.5"/>
<text text-anchor="middle" x="115" y="-219.5" font-family="Helvetica,sans-Serif" font-size="10.00">wld_wpaCtrlMngr</text>
</a>
</g>
</g>
<!-- Node1&#45;&gt;Node2 -->
<g id="edge14" class="edge">
<title>Node1&#45;&gt;Node2</title>
<path fill="none" stroke="#9a32cd" stroke-dasharray="5,2" d="M63.52,-329.46C59.28,-325.97 55.49,-321.82 53,-317 39.55,-290.93 37.09,-275.64 53,-251 58.89,-241.87 68.56,-235.69 78.52,-231.51"/>
<polygon fill="#9a32cd" stroke="#9a32cd" points="61.8,-332.53 72,-335.39 65.81,-326.79 61.8,-332.53"/>
<text text-anchor="middle" x="76" y="-281.5" font-family="Helvetica,sans-Serif" font-size="10.00"> handlers</text>
</g>
<!-- Node2&#45;&gt;Node1 -->
<g id="edge1" class="edge">
<title>Node2&#45;&gt;Node1</title>
<path fill="none" stroke="#9a32cd" stroke-dasharray="5,2" d="M114.21,-241.84C113.02,-261.05 110.11,-291.56 103,-317 101.23,-323.32 98.23,-330.07 95.67,-335.24"/>
<polygon fill="#9a32cd" stroke="#9a32cd" points="117.71,-241.89 114.73,-231.72 110.72,-241.53 117.71,-241.89"/>
<text text-anchor="middle" x="164.5" y="-281.5" font-family="Helvetica,sans-Serif" font-size="10.00"> fFetchSockLinkIface</text>
</g>
<!-- Node3 -->
<g id="node3" class="node">
<title>Node3</title>
<g id="a_node3"><a xlink:href="structwld__secDmn.html" target="_top" xlink:title=" ">
<polygon fill="white" stroke="black" points="188.5,-122.5 188.5,-141.5 267.5,-141.5 267.5,-122.5 188.5,-122.5"/>
<text text-anchor="middle" x="228" y="-129.5" font-family="Helvetica,sans-Serif" font-size="10.00">wld_secDmn</text>
</a>
</g>
</g>
<!-- Node2&#45;&gt;Node3 -->
<g id="edge3" class="edge">
<title>Node2&#45;&gt;Node3</title>
<path fill="none" stroke="#9a32cd" stroke-dasharray="5,2" d="M104.65,-203.42C98.33,-190.14 93.17,-172.18 103,-160 113.63,-146.83 155.95,-139.77 188.44,-136.21"/>
<polygon fill="#9a32cd" stroke="#9a32cd" points="101.69,-205.31 109.48,-212.49 107.87,-202.02 101.69,-205.31"/>
<text text-anchor="middle" x="136" y="-174" font-family="Helvetica,sans-Serif" font-size="10.00"> wpaCtrlMngr</text>
</g>
<!-- Node3&#45;&gt;Node2 -->
<g id="edge2" class="edge">
<title>Node3&#45;&gt;Node2</title>
<path fill="none" stroke="#9a32cd" stroke-dasharray="5,2" d="M208.44,-148.11C204.14,-151.8 199.76,-155.88 196,-160 183.95,-173.21 186.6,-181.4 173,-193 163.21,-201.34 150.52,-207.84 139.5,-212.47"/>
<polygon fill="#9a32cd" stroke="#9a32cd" points="210.88,-150.63 216.4,-141.58 206.45,-145.21 210.88,-150.63"/>
<text text-anchor="middle" x="221" y="-174" font-family="Helvetica,sans-Serif" font-size="10.00"> pSecDmn</text>
</g>
<!-- Node7 -->
<g id="node7" class="node">
<title>Node7</title>
<g id="a_node7"><a xlink:href="structwld__secDmnEvtHandlers.html" target="_top" xlink:title=" ">
<polygon fill="white" stroke="black" points="159,-0.5 159,-19.5 297,-19.5 297,-0.5 159,-0.5"/>
<text text-anchor="middle" x="228" y="-7.5" font-family="Helvetica,sans-Serif" font-size="10.00">wld_secDmnEvtHandlers</text>
</a>
</g>
</g>
<!-- Node3&#45;&gt;Node7 -->
<g id="edge9" class="edge">
<title>Node3&#45;&gt;Node7</title>
<path fill="none" stroke="#9a32cd" stroke-dasharray="5,2" d="M197.52,-116.8C192.89,-113.28 188.75,-109.04 186,-104 171.94,-78.25 171.94,-63.75 186,-38 190.4,-29.94 198.36,-23.92 206.17,-19.64"/>
<polygon fill="#9a32cd" stroke="#9a32cd" points="195.87,-119.9 206.17,-122.36 199.65,-114.01 195.87,-119.9"/>
<text text-anchor="middle" x="213.5" y="-96" font-family="Helvetica,sans-Serif" font-size="10.00"> getArgs</text>
<text text-anchor="middle" x="213.5" y="-85" font-family="Helvetica,sans-Serif" font-size="10.00">restartCb</text>
<text text-anchor="middle" x="213.5" y="-74" font-family="Helvetica,sans-Serif" font-size="10.00">startCb</text>
<text text-anchor="middle" x="213.5" y="-63" font-family="Helvetica,sans-Serif" font-size="10.00">stop</text>
<text text-anchor="middle" x="213.5" y="-52" font-family="Helvetica,sans-Serif" font-size="10.00">stopCb</text>
<text text-anchor="middle" x="213.5" y="-41" font-family="Helvetica,sans-Serif" font-size="10.00">writeCfgCb</text>
</g>
<!-- Node4 -->
<g id="node4" class="node">
<title>Node4</title>
<g id="a_node4"><a xlink:href="structwld__process.html" target="_top" xlink:title=" ">
<polygon fill="white" stroke="black" points="364.5,-335.5 364.5,-354.5 441.5,-354.5 441.5,-335.5 364.5,-335.5"/>
<text text-anchor="middle" x="403" y="-342.5" font-family="Helvetica,sans-Serif" font-size="10.00">wld_process</text>
</a>
</g>
</g>
<!-- Node4&#45;&gt;Node3 -->
<g id="edge4" class="edge">
<title>Node4&#45;&gt;Node3</title>
<path fill="none" stroke="#9a32cd" stroke-dasharray="5,2" d="M370.71,-331.35C362.29,-327.36 353.49,-322.53 346,-317 305.25,-286.93 294.32,-276.86 269,-233 251.99,-203.54 260.69,-190.68 246,-160 242.89,-153.5 238.39,-146.75 234.66,-141.62"/>
<polygon fill="#9a32cd" stroke="#9a32cd" points="369.4,-334.6 379.95,-335.49 372.26,-328.21 369.4,-334.6"/>
<text text-anchor="middle" x="308.5" y="-225" font-family="Helvetica,sans-Serif" font-size="10.00"> dmnProcess</text>
<text text-anchor="middle" x="308.5" y="-214" font-family="Helvetica,sans-Serif" font-size="10.00">selfDmnProcess</text>
</g>
<!-- Node6 -->
<g id="node6" class="node">
<title>Node6</title>
<g id="a_node6"><a xlink:href="structwld__deamonEvtHandlers.html" target="_top" xlink:title=" ">
<polygon fill="white" stroke="black" points="357,-212.5 357,-231.5 495,-231.5 495,-212.5 357,-212.5"/>
<text text-anchor="middle" x="426" y="-219.5" font-family="Helvetica,sans-Serif" font-size="10.00">wld_deamonEvtHandlers</text>
</a>
</g>
</g>
<!-- Node4&#45;&gt;Node6 -->
<g id="edge7" class="edge">
<title>Node4&#45;&gt;Node6</title>
<path fill="none" stroke="#9a32cd" stroke-dasharray="5,2" d="M373.49,-329.88C368.87,-326.34 364.73,-322.06 362,-317 348.09,-291.18 345.94,-275.55 362,-251 367.97,-241.87 377.66,-235.69 387.7,-231.53"/>
<polygon fill="#9a32cd" stroke="#9a32cd" points="371.82,-332.97 382.11,-335.49 375.64,-327.1 371.82,-332.97"/>
<text text-anchor="middle" x="389" y="-309" font-family="Helvetica,sans-Serif" font-size="10.00"> getArgsCb</text>
<text text-anchor="middle" x="389" y="-298" font-family="Helvetica,sans-Serif" font-size="10.00">reload</text>
<text text-anchor="middle" x="389" y="-287" font-family="Helvetica,sans-Serif" font-size="10.00">restartCb</text>
<text text-anchor="middle" x="389" y="-276" font-family="Helvetica,sans-Serif" font-size="10.00">startCb</text>
<text text-anchor="middle" x="389" y="-265" font-family="Helvetica,sans-Serif" font-size="10.00">stop</text>
<text text-anchor="middle" x="389" y="-254" font-family="Helvetica,sans-Serif" font-size="10.00">stopCb</text>
</g>
<!-- Node8 -->
<g id="node8" class="node">
<title>Node8</title>
<g id="a_node8"><a xlink:href="structwld__secDmnGrp.html" target="_top" xlink:title=" ">
<polygon fill="white" stroke="black" points="513,-212.5 513,-231.5 609,-231.5 609,-212.5 513,-212.5"/>
<text text-anchor="middle" x="561" y="-219.5" font-family="Helvetica,sans-Serif" font-size="10.00">wld_secDmnGrp</text>
</a>
</g>
</g>
<!-- Node4&#45;&gt;Node8 -->
<g id="edge11" class="edge">
<title>Node4&#45;&gt;Node8</title>
<path fill="none" stroke="#9a32cd" stroke-dasharray="5,2" d="M446.55,-332.13C457.01,-328.22 467.81,-323.23 477,-317 512.87,-292.69 543.5,-249.75 555.54,-231.54"/>
<polygon fill="#9a32cd" stroke="#9a32cd" points="445.38,-328.84 437.09,-335.43 447.68,-335.45 445.38,-328.84"/>
<text text-anchor="middle" x="572.5" y="-281.5" font-family="Helvetica,sans-Serif" font-size="10.00"> dmnProcess</text>
</g>
<!-- Node5 -->
<g id="node5" class="node">
<title>Node5</title>
<g id="a_node5"><a xlink:href="structwld__deamonExitInfo__t.html" target="_top" xlink:title=" ">
<polygon fill="white" stroke="black" points="340.5,-402.5 340.5,-421.5 465.5,-421.5 465.5,-402.5 340.5,-402.5"/>
<text text-anchor="middle" x="403" y="-409.5" font-family="Helvetica,sans-Serif" font-size="10.00">wld_deamonExitInfo_t</text>
</a>
</g>
</g>
<!-- Node5&#45;&gt;Node4 -->
<g id="edge5" class="edge">
<title>Node5&#45;&gt;Node4</title>
<path fill="none" stroke="#9a32cd" stroke-dasharray="5,2" d="M403,-392.04C403,-379.67 403,-364.12 403,-354.63"/>
<polygon fill="#9a32cd" stroke="#9a32cd" points="399.5,-392.23 403,-402.23 406.5,-392.23 399.5,-392.23"/>
<text text-anchor="middle" x="432.5" y="-376" font-family="Helvetica,sans-Serif" font-size="10.00"> lastExitInfo</text>
</g>
<!-- Node6&#45;&gt;Node4 -->
<g id="edge6" class="edge">
<title>Node6&#45;&gt;Node4</title>
<path fill="none" stroke="#9a32cd" stroke-dasharray="5,2" d="M427.47,-241.73C428.39,-261.07 428.12,-291.89 420,-317 417.89,-323.54 413.83,-330.07 410.21,-335.08"/>
<polygon fill="#9a32cd" stroke="#9a32cd" points="430.96,-241.32 426.83,-231.56 423.97,-241.76 430.96,-241.32"/>
<text text-anchor="middle" x="450" y="-281.5" font-family="Helvetica,sans-Serif" font-size="10.00"> handlers</text>
</g>
<!-- Node7&#45;&gt;Node3 -->
<g id="edge8" class="edge">
<title>Node7&#45;&gt;Node3</title>
<path fill="none" stroke="#9a32cd" stroke-dasharray="5,2" d="M240.85,-28.33C242.56,-31.42 244.05,-34.7 245,-38 253.13,-66.18 253.13,-75.82 245,-104 243.1,-110.6 239.05,-117.14 235.38,-122.13"/>
<polygon fill="#9a32cd" stroke="#9a32cd" points="243.75,-26.37 235.38,-19.87 237.87,-30.17 243.75,-26.37"/>
<text text-anchor="middle" x="275" y="-68.5" font-family="Helvetica,sans-Serif" font-size="10.00"> handlers</text>
</g>
<!-- Node8&#45;&gt;Node3 -->
<g id="edge10" class="edge">
<title>Node8&#45;&gt;Node3</title>
<path fill="none" stroke="#9a32cd" stroke-dasharray="5,2" d="M502.77,-210.67C463.87,-203.7 418.22,-195.36 409,-193 350.96,-178.11 284.51,-154.28 250.56,-141.6"/>
<polygon fill="#9a32cd" stroke="#9a32cd" points="502.54,-214.19 513,-212.5 503.77,-207.29 502.54,-214.19"/>
<text text-anchor="middle" x="445.5" y="-174" font-family="Helvetica,sans-Serif" font-size="10.00"> secDmnGroup</text>
</g>
<!-- Node9 -->
<g id="node9" class="node">
<title>Node9</title>
<g id="a_node9"><a xlink:href="structwld__secDmnGrp__EvtHandlers__t.html" target="_top" xlink:title=" ">
<polygon fill="white" stroke="black" points="475,-122.5 475,-141.5 645,-141.5 645,-122.5 475,-122.5"/>
<text text-anchor="middle" x="560" y="-129.5" font-family="Helvetica,sans-Serif" font-size="10.00">wld_secDmnGrp_EvtHandlers_t</text>
</a>
</g>
</g>
<!-- Node8&#45;&gt;Node9 -->
<g id="edge13" class="edge">
<title>Node8&#45;&gt;Node9</title>
<path fill="none" stroke="#9a32cd" stroke-dasharray="5,2" d="M509.66,-207.92C503.09,-204.14 497.2,-199.27 493,-193 484.84,-180.81 484.79,-172.16 493,-160 498.82,-151.37 507.92,-145.5 517.54,-141.51"/>
<polygon fill="#9a32cd" stroke="#9a32cd" points="508.42,-211.21 518.95,-212.43 511.48,-204.91 508.42,-211.21"/>
<text text-anchor="middle" x="546" y="-185" font-family="Helvetica,sans-Serif" font-size="10.00"> getArgsCb</text>
<text text-anchor="middle" x="546" y="-174" font-family="Helvetica,sans-Serif" font-size="10.00">hasSchedRestartCb</text>
<text text-anchor="middle" x="546" y="-163" font-family="Helvetica,sans-Serif" font-size="10.00">isMemberStartableCb</text>
</g>
<!-- Node9&#45;&gt;Node8 -->
<g id="edge12" class="edge">
<title>Node9&#45;&gt;Node8</title>
<path fill="none" stroke="#9a32cd" stroke-dasharray="5,2" d="M590.84,-146.82C595.72,-150.4 600.1,-154.76 603,-160 610.1,-172.84 609.92,-180.07 603,-193 598.45,-201.5 590.06,-207.86 581.96,-212.36"/>
<polygon fill="#9a32cd" stroke="#9a32cd" points="592.67,-143.84 582.33,-141.52 588.97,-149.78 592.67,-143.84"/>
<text text-anchor="middle" x="631" y="-174" font-family="Helvetica,sans-Serif" font-size="10.00"> handlers</text>
</g>
</g>
</svg>
