<?xml version="1.0" encoding="UTF-8" standalone="no"?>
<!DOCTYPE svg PUBLIC "-//W3C//DTD SVG 1.1//EN"
 "http://www.w3.org/Graphics/SVG/1.1/DTD/svg11.dtd">
<!-- Generated by graphviz version 2.43.0 (0)
 -->
<!-- Title: wld_nl80211_ifaceMloLinkInfo_t Pages: 1 -->
<svg width="328pt" height="173pt"
 viewBox="0.00 0.00 328.00 173.00" xmlns="http://www.w3.org/2000/svg" xmlns:xlink="http://www.w3.org/1999/xlink">
<g id="graph0" class="graph" transform="scale(1 1) rotate(0) translate(4 169)">
<title>wld_nl80211_ifaceMloLinkInfo_t</title>
<polygon fill="white" stroke="transparent" points="-4,4 -4,-169 324,-169 324,4 -4,4"/>
<!-- Node1 -->
<g id="node1" class="node">
<title>Node1</title>
<g id="a_node1"><a xlink:title=" ">
<polygon fill="#bfbfbf" stroke="black" points="95.5,-0.5 95.5,-30.5 241.5,-30.5 241.5,-0.5 95.5,-0.5"/>
<text text-anchor="start" x="103.5" y="-18.5" font-family="Helvetica,sans-Serif" font-size="10.00">wld_nl80211_ifaceMloLink</text>
<text text-anchor="middle" x="168.5" y="-7.5" font-family="Helvetica,sans-Serif" font-size="10.00">Info_t</text>
</a>
</g>
</g>
<!-- Node2 -->
<g id="node2" class="node">
<title>Node2</title>
<g id="a_node2"><a xlink:href="structwld__nl80211__mloLinkInfo__t.html" target="_top" xlink:title=" ">
<polygon fill="white" stroke="black" points="12.5,-78.5 12.5,-97.5 162.5,-97.5 162.5,-78.5 12.5,-78.5"/>
<text text-anchor="middle" x="87.5" y="-85.5" font-family="Helvetica,sans-Serif" font-size="10.00">wld_nl80211_mloLinkInfo_t</text>
</a>
</g>
</g>
<!-- Node2&#45;&gt;Node1 -->
<g id="edge1" class="edge">
<title>Node2&#45;&gt;Node1</title>
<path fill="none" stroke="#9a32cd" stroke-dasharray="5,2" d="M104.98,-71.78C119.04,-59.55 138.63,-42.5 152.33,-30.58"/>
<polygon fill="#9a32cd" stroke="#9a32cd" points="102.68,-69.15 97.43,-78.36 107.27,-74.43 102.68,-69.15"/>
<text text-anchor="middle" x="141.5" y="-52" font-family="Helvetica,sans-Serif" font-size="10.00"> link</text>
</g>
<!-- Node3 -->
<g id="node3" class="node">
<title>Node3</title>
<g id="a_node3"><a xlink:href="structwld__nl80211__mloLinkInfoStats__t.html" target="_top" xlink:title=" ">
<polygon fill="white" stroke="black" points="0,-145.5 0,-164.5 175,-164.5 175,-145.5 0,-145.5"/>
<text text-anchor="middle" x="87.5" y="-152.5" font-family="Helvetica,sans-Serif" font-size="10.00">wld_nl80211_mloLinkInfoStats_t</text>
</a>
</g>
</g>
<!-- Node3&#45;&gt;Node2 -->
<g id="edge2" class="edge">
<title>Node3&#45;&gt;Node2</title>
<path fill="none" stroke="#9a32cd" stroke-dasharray="5,2" d="M87.5,-135.04C87.5,-122.67 87.5,-107.12 87.5,-97.63"/>
<polygon fill="#9a32cd" stroke="#9a32cd" points="84,-135.23 87.5,-145.23 91,-135.23 84,-135.23"/>
<text text-anchor="middle" x="101.5" y="-119" font-family="Helvetica,sans-Serif" font-size="10.00"> stats</text>
</g>
<!-- Node4 -->
<g id="node4" class="node">
<title>Node4</title>
<g id="a_node4"><a xlink:href="structwld__nl80211__chanSpec__t.html" target="_top" xlink:title=" ">
<polygon fill="white" stroke="black" points="181,-78.5 181,-97.5 320,-97.5 320,-78.5 181,-78.5"/>
<text text-anchor="middle" x="250.5" y="-85.5" font-family="Helvetica,sans-Serif" font-size="10.00">wld_nl80211_chanSpec_t</text>
</a>
</g>
</g>
<!-- Node4&#45;&gt;Node1 -->
<g id="edge3" class="edge">
<title>Node4&#45;&gt;Node1</title>
<path fill="none" stroke="#9a32cd" stroke-dasharray="5,2" d="M232.8,-71.78C218.57,-59.55 198.74,-42.5 184.87,-30.58"/>
<polygon fill="#9a32cd" stroke="#9a32cd" points="230.58,-74.49 240.45,-78.36 235.14,-69.18 230.58,-74.49"/>
<text text-anchor="middle" x="241.5" y="-52" font-family="Helvetica,sans-Serif" font-size="10.00"> chanSpec</text>
</g>
</g>
</svg>
