<?xml version="1.0" encoding="UTF-8" standalone="no"?>
<!DOCTYPE svg PUBLIC "-//W3C//DTD SVG 1.1//EN"
 "http://www.w3.org/Graphics/SVG/1.1/DTD/svg11.dtd">
<!-- Generated by graphviz version 2.43.0 (0)
 -->
<!-- Title: wld_secDmnEvtHandlers Pages: 1 -->
<svg width="1376pt" height="288pt"
 viewBox="0.00 0.00 1376.00 288.08" xmlns="http://www.w3.org/2000/svg" xmlns:xlink="http://www.w3.org/1999/xlink">
<g id="graph0" class="graph" transform="scale(1 1) rotate(0) translate(4 284.08)">
<title>wld_secDmnEvtHandlers</title>
<polygon fill="white" stroke="transparent" points="-4,4 -4,-284.08 1372,-284.08 1372,4 -4,4"/>
<!-- Node1 -->
<g id="node1" class="node">
<title>Node1</title>
<g id="a_node1"><a xlink:title=" ">
<polygon fill="#bfbfbf" stroke="black" points="396,-236.58 396,-255.58 534,-255.58 534,-236.58 396,-236.58"/>
<text text-anchor="middle" x="465" y="-243.58" font-family="Helvetica,sans-Serif" font-size="10.00">wld_secDmnEvtHandlers</text>
</a>
</g>
</g>
<!-- Node2 -->
<g id="node2" class="node">
<title>Node2</title>
<g id="a_node2"><a xlink:href="structwld__secDmn.html" target="_top" xlink:title=" ">
<polygon fill="white" stroke="black" points="721.5,-166.58 721.5,-185.58 800.5,-185.58 800.5,-166.58 721.5,-166.58"/>
<text text-anchor="middle" x="761" y="-173.58" font-family="Helvetica,sans-Serif" font-size="10.00">wld_secDmn</text>
</a>
</g>
</g>
<!-- Node1&#45;&gt;Node2 -->
<g id="edge10" class="edge">
<title>Node1&#45;&gt;Node2</title>
<path fill="none" stroke="#9a32cd" stroke-dasharray="5,2" d="M505.81,-258.2C545.56,-268.2 607.79,-278.09 658,-260.08 699.89,-245.05 736.87,-204.56 752.32,-185.83"/>
<polygon fill="#9a32cd" stroke="#9a32cd" points="506.52,-254.77 495.96,-255.6 504.74,-261.54 506.52,-254.77"/>
<text text-anchor="middle" x="605" y="-272.08" font-family="Helvetica,sans-Serif" font-size="10.00"> handlers</text>
</g>
<!-- Node2&#45;&gt;Node1 -->
<g id="edge1" class="edge">
<title>Node2&#45;&gt;Node1</title>
<path fill="none" stroke="#9a32cd" stroke-dasharray="5,2" d="M711.21,-174.13C668.25,-173.84 604.53,-176.96 552,-194.08 523.14,-203.49 493.78,-224.13 477.93,-236.39"/>
<polygon fill="#9a32cd" stroke="#9a32cd" points="711.35,-177.63 721.39,-174.26 711.44,-170.63 711.35,-177.63"/>
<text text-anchor="middle" x="605" y="-252.08" font-family="Helvetica,sans-Serif" font-size="10.00"> getArgs</text>
<text text-anchor="middle" x="605" y="-241.08" font-family="Helvetica,sans-Serif" font-size="10.00">restartCb</text>
<text text-anchor="middle" x="605" y="-230.08" font-family="Helvetica,sans-Serif" font-size="10.00">startCb</text>
<text text-anchor="middle" x="605" y="-219.08" font-family="Helvetica,sans-Serif" font-size="10.00">stop</text>
<text text-anchor="middle" x="605" y="-208.08" font-family="Helvetica,sans-Serif" font-size="10.00">stopCb</text>
<text text-anchor="middle" x="605" y="-197.08" font-family="Helvetica,sans-Serif" font-size="10.00">writeCfgCb</text>
</g>
<!-- Node3 -->
<g id="node3" class="node">
<title>Node3</title>
<g id="a_node3"><a xlink:href="structwld__wpaCtrlMngr.html" target="_top" xlink:title=" ">
<polygon fill="white" stroke="black" points="948,-166.58 948,-185.58 1049,-185.58 1049,-166.58 948,-166.58"/>
<text text-anchor="middle" x="998.5" y="-173.58" font-family="Helvetica,sans-Serif" font-size="10.00">wld_wpaCtrlMngr</text>
</a>
</g>
</g>
<!-- Node2&#45;&gt;Node3 -->
<g id="edge3" class="edge">
<title>Node2&#45;&gt;Node3</title>
<path fill="none" stroke="#9a32cd" stroke-dasharray="5,2" d="M810.7,-176.08C850.79,-176.08 907.41,-176.08 947.78,-176.08"/>
<polygon fill="#9a32cd" stroke="#9a32cd" points="810.62,-172.58 800.62,-176.08 810.62,-179.58 810.62,-172.58"/>
<text text-anchor="middle" x="897" y="-179.08" font-family="Helvetica,sans-Serif" font-size="10.00"> pSecDmn</text>
</g>
<!-- Node3&#45;&gt;Node2 -->
<g id="edge2" class="edge">
<title>Node3&#45;&gt;Node2</title>
<path fill="none" stroke="#9a32cd" stroke-dasharray="5,2" d="M954.23,-164.25C946.23,-162.52 937.91,-161 930,-160.08 885.77,-154.91 834.83,-161.52 800.75,-167.74"/>
<polygon fill="#9a32cd" stroke="#9a32cd" points="953.6,-167.7 964.13,-166.55 955.17,-160.88 953.6,-167.7"/>
<text text-anchor="middle" x="897" y="-163.08" font-family="Helvetica,sans-Serif" font-size="10.00"> wpaCtrlMngr</text>
</g>
<!-- Node4 -->
<g id="node4" class="node">
<title>Node4</title>
<g id="a_node4"><a xlink:href="structwld__wpaCtrl__radioEvtHandlers__cb.html" target="_top" xlink:title=" ">
<polygon fill="white" stroke="black" points="1186,-166.58 1186,-185.58 1368,-185.58 1368,-166.58 1186,-166.58"/>
<text text-anchor="middle" x="1277" y="-173.58" font-family="Helvetica,sans-Serif" font-size="10.00">wld_wpaCtrl_radioEvtHandlers_cb</text>
</a>
</g>
</g>
<!-- Node3&#45;&gt;Node4 -->
<g id="edge5" class="edge">
<title>Node3&#45;&gt;Node4</title>
<path fill="none" stroke="#9a32cd" stroke-dasharray="5,2" d="M1059.36,-176.08C1096.29,-176.08 1144.36,-176.08 1185.84,-176.08"/>
<polygon fill="#9a32cd" stroke="#9a32cd" points="1059.25,-172.58 1049.25,-176.08 1059.25,-179.58 1059.25,-172.58"/>
<text text-anchor="middle" x="1117.5" y="-179.08" font-family="Helvetica,sans-Serif" font-size="10.00"> fFetchSockLinkIface</text>
</g>
<!-- Node4&#45;&gt;Node3 -->
<g id="edge4" class="edge">
<title>Node4&#45;&gt;Node3</title>
<path fill="none" stroke="#9a32cd" stroke-dasharray="5,2" d="M1213.93,-165.07C1172.29,-159.23 1116.25,-154.32 1067,-160.08 1055.76,-161.39 1043.67,-163.9 1032.87,-166.55"/>
<polygon fill="#9a32cd" stroke="#9a32cd" points="1213.52,-168.55 1223.93,-166.53 1214.54,-161.63 1213.52,-168.55"/>
<text text-anchor="middle" x="1117.5" y="-163.08" font-family="Helvetica,sans-Serif" font-size="10.00"> handlers</text>
</g>
<!-- Node5 -->
<g id="node5" class="node">
<title>Node5</title>
<g id="a_node5"><a xlink:href="structwld__process.html" target="_top" xlink:title=" ">
<polygon fill="white" stroke="black" points="220,-52.58 220,-71.58 297,-71.58 297,-52.58 220,-52.58"/>
<text text-anchor="middle" x="258.5" y="-59.58" font-family="Helvetica,sans-Serif" font-size="10.00">wld_process</text>
</a>
</g>
</g>
<!-- Node5&#45;&gt;Node2 -->
<g id="edge6" class="edge">
<title>Node5&#45;&gt;Node2</title>
<path fill="none" stroke="#9a32cd" stroke-dasharray="5,2" d="M267.73,-80.89C276.62,-98.7 292.57,-124.51 315,-137.08 350.02,-156.69 619.36,-170.09 721.18,-174.49"/>
<polygon fill="#9a32cd" stroke="#9a32cd" points="270.85,-79.29 263.43,-71.73 264.51,-82.27 270.85,-79.29"/>
<text text-anchor="middle" x="465" y="-178.08" font-family="Helvetica,sans-Serif" font-size="10.00"> dmnProcess</text>
<text text-anchor="middle" x="465" y="-167.08" font-family="Helvetica,sans-Serif" font-size="10.00">selfDmnProcess</text>
</g>
<!-- Node7 -->
<g id="node7" class="node">
<title>Node7</title>
<g id="a_node7"><a xlink:href="structwld__deamonEvtHandlers.html" target="_top" xlink:title=" ">
<polygon fill="white" stroke="black" points="396,-62.58 396,-81.58 534,-81.58 534,-62.58 396,-62.58"/>
<text text-anchor="middle" x="465" y="-69.58" font-family="Helvetica,sans-Serif" font-size="10.00">wld_deamonEvtHandlers</text>
</a>
</g>
</g>
<!-- Node5&#45;&gt;Node7 -->
<g id="edge9" class="edge">
<title>Node5&#45;&gt;Node7</title>
<path fill="none" stroke="#9a32cd" stroke-dasharray="5,2" d="M307.11,-64.41C333.45,-65.69 366.64,-67.32 395.7,-68.74"/>
<polygon fill="#9a32cd" stroke="#9a32cd" points="307.17,-60.91 297.01,-63.91 306.83,-67.9 307.17,-60.91"/>
<text text-anchor="middle" x="346.5" y="-125.08" font-family="Helvetica,sans-Serif" font-size="10.00"> getArgsCb</text>
<text text-anchor="middle" x="346.5" y="-114.08" font-family="Helvetica,sans-Serif" font-size="10.00">reload</text>
<text text-anchor="middle" x="346.5" y="-103.08" font-family="Helvetica,sans-Serif" font-size="10.00">restartCb</text>
<text text-anchor="middle" x="346.5" y="-92.08" font-family="Helvetica,sans-Serif" font-size="10.00">startCb</text>
<text text-anchor="middle" x="346.5" y="-81.08" font-family="Helvetica,sans-Serif" font-size="10.00">stop</text>
<text text-anchor="middle" x="346.5" y="-70.08" font-family="Helvetica,sans-Serif" font-size="10.00">stopCb</text>
</g>
<!-- Node8 -->
<g id="node8" class="node">
<title>Node8</title>
<g id="a_node8"><a xlink:href="structwld__secDmnGrp.html" target="_top" xlink:title=" ">
<polygon fill="white" stroke="black" points="417,-9.58 417,-28.58 513,-28.58 513,-9.58 417,-9.58"/>
<text text-anchor="middle" x="465" y="-16.58" font-family="Helvetica,sans-Serif" font-size="10.00">wld_secDmnGrp</text>
</a>
</g>
</g>
<!-- Node5&#45;&gt;Node8 -->
<g id="edge12" class="edge">
<title>Node5&#45;&gt;Node8</title>
<path fill="none" stroke="#9a32cd" stroke-dasharray="5,2" d="M279.83,-46.29C289.85,-39.41 302.46,-32.03 315,-28.08 348,-17.69 387.1,-15.69 416.97,-16.15"/>
<polygon fill="#9a32cd" stroke="#9a32cd" points="277.48,-43.67 271.43,-52.36 281.58,-49.34 277.48,-43.67"/>
<text text-anchor="middle" x="346.5" y="-31.08" font-family="Helvetica,sans-Serif" font-size="10.00"> dmnProcess</text>
</g>
<!-- Node6 -->
<g id="node6" class="node">
<title>Node6</title>
<g id="a_node6"><a xlink:href="structwld__deamonExitInfo__t.html" target="_top" xlink:title=" ">
<polygon fill="white" stroke="black" points="0,-52.58 0,-71.58 125,-71.58 125,-52.58 0,-52.58"/>
<text text-anchor="middle" x="62.5" y="-59.58" font-family="Helvetica,sans-Serif" font-size="10.00">wld_deamonExitInfo_t</text>
</a>
</g>
</g>
<!-- Node6&#45;&gt;Node5 -->
<g id="edge7" class="edge">
<title>Node6&#45;&gt;Node5</title>
<path fill="none" stroke="#9a32cd" stroke-dasharray="5,2" d="M135.52,-62.08C164.12,-62.08 195.82,-62.08 219.74,-62.08"/>
<polygon fill="#9a32cd" stroke="#9a32cd" points="135.15,-58.58 125.15,-62.08 135.15,-65.58 135.15,-58.58"/>
<text text-anchor="middle" x="172.5" y="-65.08" font-family="Helvetica,sans-Serif" font-size="10.00"> lastExitInfo</text>
</g>
<!-- Node7&#45;&gt;Node5 -->
<g id="edge8" class="edge">
<title>Node7&#45;&gt;Node5</title>
<path fill="none" stroke="#9a32cd" stroke-dasharray="5,2" d="M429.54,-59.13C414.03,-53.97 395.34,-48.64 378,-46.08 350.3,-41.98 342.72,-42.16 315,-46.08 305.67,-47.4 295.7,-49.9 286.83,-52.55"/>
<polygon fill="#9a32cd" stroke="#9a32cd" points="428.64,-62.52 439.23,-62.47 430.92,-55.9 428.64,-62.52"/>
<text text-anchor="middle" x="346.5" y="-49.08" font-family="Helvetica,sans-Serif" font-size="10.00"> handlers</text>
</g>
<!-- Node8&#45;&gt;Node2 -->
<g id="edge11" class="edge">
<title>Node8&#45;&gt;Node2</title>
<path fill="none" stroke="#9a32cd" stroke-dasharray="5,2" d="M494.93,-33.27C507.05,-39.28 521.26,-46.43 534,-53.08 612.61,-94.11 705.19,-145.46 742.81,-166.46"/>
<polygon fill="#9a32cd" stroke="#9a32cd" points="496.25,-30.01 485.73,-28.72 493.14,-36.29 496.25,-30.01"/>
<text text-anchor="middle" x="605" y="-122.08" font-family="Helvetica,sans-Serif" font-size="10.00"> secDmnGroup</text>
</g>
<!-- Node9 -->
<g id="node9" class="node">
<title>Node9</title>
<g id="a_node9"><a xlink:href="structwld__secDmnGrp__EvtHandlers__t.html" target="_top" xlink:title=" ">
<polygon fill="white" stroke="black" points="676,-9.58 676,-28.58 846,-28.58 846,-9.58 676,-9.58"/>
<text text-anchor="middle" x="761" y="-16.58" font-family="Helvetica,sans-Serif" font-size="10.00">wld_secDmnGrp_EvtHandlers_t</text>
</a>
</g>
</g>
<!-- Node8&#45;&gt;Node9 -->
<g id="edge14" class="edge">
<title>Node8&#45;&gt;Node9</title>
<path fill="none" stroke="#9a32cd" stroke-dasharray="5,2" d="M523.33,-19.08C566.71,-19.08 626.96,-19.08 675.81,-19.08"/>
<polygon fill="#9a32cd" stroke="#9a32cd" points="523.24,-15.58 513.24,-19.08 523.24,-22.58 523.24,-15.58"/>
<text text-anchor="middle" x="605" y="-44.08" font-family="Helvetica,sans-Serif" font-size="10.00"> getArgsCb</text>
<text text-anchor="middle" x="605" y="-33.08" font-family="Helvetica,sans-Serif" font-size="10.00">hasSchedRestartCb</text>
<text text-anchor="middle" x="605" y="-22.08" font-family="Helvetica,sans-Serif" font-size="10.00">isMemberStartableCb</text>
</g>
<!-- Node9&#45;&gt;Node8 -->
<g id="edge13" class="edge">
<title>Node9&#45;&gt;Node8</title>
<path fill="none" stroke="#9a32cd" stroke-dasharray="5,2" d="M699.18,-7.95C685.67,-5.92 671.39,-4.12 658,-3.08 611.03,0.58 598.91,1.25 552,-3.08 537.78,-4.39 522.41,-6.9 508.65,-9.54"/>
<polygon fill="#9a32cd" stroke="#9a32cd" points="698.92,-11.45 709.34,-9.54 700,-4.54 698.92,-11.45"/>
<text text-anchor="middle" x="605" y="-6.08" font-family="Helvetica,sans-Serif" font-size="10.00"> handlers</text>
</g>
</g>
</svg>
