<?xml version="1.0" encoding="UTF-8" standalone="no"?>
<!DOCTYPE svg PUBLIC "-//W3C//DTD SVG 1.1//EN"
 "http://www.w3.org/Graphics/SVG/1.1/DTD/svg11.dtd">
<!-- Generated by graphviz version 2.43.0 (0)
 -->
<!-- Title: wld_secDmnGrp_EvtHandlers_t Pages: 1 -->
<svg width="452pt" height="217pt"
 viewBox="0.00 0.00 452.00 217.00" xmlns="http://www.w3.org/2000/svg" xmlns:xlink="http://www.w3.org/1999/xlink">
<g id="graph0" class="graph" transform="scale(1 1) rotate(0) translate(4 213)">
<title>wld_secDmnGrp_EvtHandlers_t</title>
<polygon fill="white" stroke="transparent" points="-4,4 -4,-213 448,-213 448,4 -4,4"/>
<!-- Node1 -->
<g id="node1" class="node">
<title>Node1</title>
<g id="a_node1"><a xlink:title=" ">
<polygon fill="#bfbfbf" stroke="black" points="0,-122.5 0,-141.5 170,-141.5 170,-122.5 0,-122.5"/>
<text text-anchor="middle" x="85" y="-129.5" font-family="Helvetica,sans-Serif" font-size="10.00">wld_secDmnGrp_EvtHandlers_t</text>
</a>
</g>
</g>
<!-- Node2 -->
<g id="node2" class="node">
<title>Node2</title>
<g id="a_node2"><a xlink:href="structwld__secDmnGrp.html" target="_top" xlink:title=" ">
<polygon fill="white" stroke="black" points="71,-0.5 71,-19.5 167,-19.5 167,-0.5 71,-0.5"/>
<text text-anchor="middle" x="119" y="-7.5" font-family="Helvetica,sans-Serif" font-size="10.00">wld_secDmnGrp</text>
</a>
</g>
</g>
<!-- Node1&#45;&gt;Node2 -->
<g id="edge6" class="edge">
<title>Node1&#45;&gt;Node2</title>
<path fill="none" stroke="#9a32cd" stroke-dasharray="5,2" d="M57.52,-116.46C53.28,-112.97 49.49,-108.82 47,-104 33.55,-77.93 30.29,-62.11 47,-38 52.93,-29.44 61.93,-23.59 71.58,-19.59"/>
<polygon fill="#9a32cd" stroke="#9a32cd" points="55.8,-119.53 66,-122.39 59.81,-113.79 55.8,-119.53"/>
<text text-anchor="middle" x="70" y="-68.5" font-family="Helvetica,sans-Serif" font-size="10.00"> handlers</text>
</g>
<!-- Node2&#45;&gt;Node1 -->
<g id="edge1" class="edge">
<title>Node2&#45;&gt;Node1</title>
<path fill="none" stroke="#9a32cd" stroke-dasharray="5,2" d="M115.66,-29.61C112,-48.59 105.51,-78.75 97,-104 94.9,-110.22 91.9,-116.97 89.43,-122.17"/>
<polygon fill="#9a32cd" stroke="#9a32cd" points="119.13,-30.08 117.52,-19.61 112.25,-28.8 119.13,-30.08"/>
<text text-anchor="middle" x="167" y="-79.5" font-family="Helvetica,sans-Serif" font-size="10.00"> getArgsCb</text>
<text text-anchor="middle" x="167" y="-68.5" font-family="Helvetica,sans-Serif" font-size="10.00">hasSchedRestartCb</text>
<text text-anchor="middle" x="167" y="-57.5" font-family="Helvetica,sans-Serif" font-size="10.00">isMemberStartableCb</text>
</g>
<!-- Node3 -->
<g id="node3" class="node">
<title>Node3</title>
<g id="a_node3"><a xlink:href="structwld__process.html" target="_top" xlink:title=" ">
<polygon fill="white" stroke="black" points="295.5,-122.5 295.5,-141.5 372.5,-141.5 372.5,-122.5 295.5,-122.5"/>
<text text-anchor="middle" x="334" y="-129.5" font-family="Helvetica,sans-Serif" font-size="10.00">wld_process</text>
</a>
</g>
</g>
<!-- Node3&#45;&gt;Node2 -->
<g id="edge2" class="edge">
<title>Node3&#45;&gt;Node2</title>
<path fill="none" stroke="#9a32cd" stroke-dasharray="5,2" d="M285.47,-120.77C274.89,-116.84 264.37,-111.43 256,-104 231.63,-82.35 249.23,-58.64 224,-38 208.05,-24.95 186.53,-18.13 167.13,-14.59"/>
<polygon fill="#9a32cd" stroke="#9a32cd" points="284.55,-124.16 295.14,-123.98 286.75,-117.51 284.55,-124.16"/>
<text text-anchor="middle" x="287.5" y="-68.5" font-family="Helvetica,sans-Serif" font-size="10.00"> dmnProcess</text>
</g>
<!-- Node5 -->
<g id="node5" class="node">
<title>Node5</title>
<g id="a_node5"><a xlink:href="structwld__deamonEvtHandlers.html" target="_top" xlink:title=" ">
<polygon fill="white" stroke="black" points="303,-0.5 303,-19.5 441,-19.5 441,-0.5 303,-0.5"/>
<text text-anchor="middle" x="372" y="-7.5" font-family="Helvetica,sans-Serif" font-size="10.00">wld_deamonEvtHandlers</text>
</a>
</g>
</g>
<!-- Node3&#45;&gt;Node5 -->
<g id="edge5" class="edge">
<title>Node3&#45;&gt;Node5</title>
<path fill="none" stroke="#9a32cd" stroke-dasharray="5,2" d="M328.23,-112.55C323.19,-92.84 318.45,-61.29 331,-38 335.37,-29.9 343.35,-23.83 351.11,-19.51"/>
<polygon fill="#9a32cd" stroke="#9a32cd" points="324.92,-113.74 331.02,-122.4 331.66,-111.82 324.92,-113.74"/>
<text text-anchor="middle" x="358" y="-96" font-family="Helvetica,sans-Serif" font-size="10.00"> getArgsCb</text>
<text text-anchor="middle" x="358" y="-85" font-family="Helvetica,sans-Serif" font-size="10.00">reload</text>
<text text-anchor="middle" x="358" y="-74" font-family="Helvetica,sans-Serif" font-size="10.00">restartCb</text>
<text text-anchor="middle" x="358" y="-63" font-family="Helvetica,sans-Serif" font-size="10.00">startCb</text>
<text text-anchor="middle" x="358" y="-52" font-family="Helvetica,sans-Serif" font-size="10.00">stop</text>
<text text-anchor="middle" x="358" y="-41" font-family="Helvetica,sans-Serif" font-size="10.00">stopCb</text>
</g>
<!-- Node4 -->
<g id="node4" class="node">
<title>Node4</title>
<g id="a_node4"><a xlink:href="structwld__deamonExitInfo__t.html" target="_top" xlink:title=" ">
<polygon fill="white" stroke="black" points="271.5,-189.5 271.5,-208.5 396.5,-208.5 396.5,-189.5 271.5,-189.5"/>
<text text-anchor="middle" x="334" y="-196.5" font-family="Helvetica,sans-Serif" font-size="10.00">wld_deamonExitInfo_t</text>
</a>
</g>
</g>
<!-- Node4&#45;&gt;Node3 -->
<g id="edge3" class="edge">
<title>Node4&#45;&gt;Node3</title>
<path fill="none" stroke="#9a32cd" stroke-dasharray="5,2" d="M334,-179.04C334,-166.67 334,-151.12 334,-141.63"/>
<polygon fill="#9a32cd" stroke="#9a32cd" points="330.5,-179.23 334,-189.23 337.5,-179.23 330.5,-179.23"/>
<text text-anchor="middle" x="363.5" y="-163" font-family="Helvetica,sans-Serif" font-size="10.00"> lastExitInfo</text>
</g>
<!-- Node5&#45;&gt;Node3 -->
<g id="edge4" class="edge">
<title>Node5&#45;&gt;Node3</title>
<path fill="none" stroke="#9a32cd" stroke-dasharray="5,2" d="M384.85,-28.33C386.56,-31.42 388.05,-34.7 389,-38 397.13,-66.18 404.51,-79.1 389,-104 383.71,-112.49 374.89,-118.38 365.85,-122.44"/>
<polygon fill="#9a32cd" stroke="#9a32cd" points="387.75,-26.37 379.38,-19.87 381.87,-30.17 387.75,-26.37"/>
<text text-anchor="middle" x="421" y="-68.5" font-family="Helvetica,sans-Serif" font-size="10.00"> handlers</text>
</g>
</g>
</svg>
