<?xml version="1.0" encoding="UTF-8" standalone="no"?>
<!DOCTYPE svg PUBLIC "-//W3C//DTD SVG 1.1//EN"
 "http://www.w3.org/Graphics/SVG/1.1/DTD/svg11.dtd">
<!-- Generated by graphviz version 2.43.0 (0)
 -->
<!-- Title: wld_nl80211_wiphyInfo_t Pages: 1 -->
<svg width="640pt" height="143pt"
 viewBox="0.00 0.00 640.00 143.00" xmlns="http://www.w3.org/2000/svg" xmlns:xlink="http://www.w3.org/1999/xlink">
<g id="graph0" class="graph" transform="scale(1 1) rotate(0) translate(4 139)">
<title>wld_nl80211_wiphyInfo_t</title>
<polygon fill="white" stroke="transparent" points="-4,4 -4,-139 636,-139 636,4 -4,4"/>
<!-- Node1 -->
<g id="node1" class="node">
<title>Node1</title>
<g id="a_node1"><a xlink:title=" ">
<polygon fill="#bfbfbf" stroke="black" points="492,-57.5 492,-76.5 632,-76.5 632,-57.5 492,-57.5"/>
<text text-anchor="middle" x="562" y="-64.5" font-family="Helvetica,sans-Serif" font-size="10.00">wld_nl80211_wiphyInfo_t</text>
</a>
</g>
</g>
<!-- Node2 -->
<g id="node2" class="node">
<title>Node2</title>
<g id="a_node2"><a xlink:href="structwld__nl80211__bandDef__t.html" target="_top" xlink:title=" ">
<polygon fill="white" stroke="black" points="230.5,-114.5 230.5,-133.5 364.5,-133.5 364.5,-114.5 230.5,-114.5"/>
<text text-anchor="middle" x="297.5" y="-121.5" font-family="Helvetica,sans-Serif" font-size="10.00">wld_nl80211_bandDef_t</text>
</a>
</g>
</g>
<!-- Node2&#45;&gt;Node1 -->
<g id="edge1" class="edge">
<title>Node2&#45;&gt;Node1</title>
<path fill="none" stroke="#9a32cd" stroke-dasharray="5,2" d="M374.63,-113.22C405.64,-108.26 441.72,-101.73 474,-94 494.15,-89.17 516.46,-82.22 533.44,-76.57"/>
<polygon fill="#9a32cd" stroke="#9a32cd" points="374.09,-109.77 364.76,-114.78 375.18,-116.68 374.09,-109.77"/>
<text text-anchor="middle" x="439.5" y="-111" font-family="Helvetica,sans-Serif" font-size="10.00"> bands</text>
</g>
<!-- Node3 -->
<g id="node3" class="node">
<title>Node3</title>
<g id="a_node3"><a xlink:href="structwld__nl80211__chanDesc__t.html" target="_top" xlink:title=" ">
<polygon fill="white" stroke="black" points="0,-114.5 0,-133.5 140,-133.5 140,-114.5 0,-114.5"/>
<text text-anchor="middle" x="70" y="-121.5" font-family="Helvetica,sans-Serif" font-size="10.00">wld_nl80211_chanDesc_t</text>
</a>
</g>
</g>
<!-- Node3&#45;&gt;Node2 -->
<g id="edge2" class="edge">
<title>Node3&#45;&gt;Node2</title>
<path fill="none" stroke="#9a32cd" stroke-dasharray="5,2" d="M150.42,-124C176.48,-124 205.15,-124 230.14,-124"/>
<polygon fill="#9a32cd" stroke="#9a32cd" points="150.19,-120.5 140.19,-124 150.19,-127.5 150.19,-120.5"/>
<text text-anchor="middle" x="174" y="-127" font-family="Helvetica,sans-Serif" font-size="10.00"> chans</text>
</g>
<!-- Node4 -->
<g id="node4" class="node">
<title>Node4</title>
<g id="a_node4"><a xlink:href="structwld__nl80211__wiphySuppFeatures.html" target="_top" xlink:title=" ">
<polygon fill="white" stroke="black" points="208,-76.5 208,-95.5 387,-95.5 387,-76.5 208,-76.5"/>
<text text-anchor="middle" x="297.5" y="-83.5" font-family="Helvetica,sans-Serif" font-size="10.00">wld_nl80211_wiphySuppFeatures</text>
</a>
</g>
</g>
<!-- Node4&#45;&gt;Node1 -->
<g id="edge3" class="edge">
<title>Node4&#45;&gt;Node1</title>
<path fill="none" stroke="#9a32cd" stroke-dasharray="5,2" d="M397.15,-78.86C428.71,-76.58 462.96,-74.1 491.95,-72"/>
<polygon fill="#9a32cd" stroke="#9a32cd" points="396.73,-75.38 387,-79.59 397.23,-82.36 396.73,-75.38"/>
<text text-anchor="middle" x="439.5" y="-82" font-family="Helvetica,sans-Serif" font-size="10.00"> suppFeatures</text>
</g>
<!-- Node5 -->
<g id="node5" class="node">
<title>Node5</title>
<g id="a_node5"><a xlink:href="structwld__nl80211__wiphySuppCmds.html" target="_top" xlink:title=" ">
<polygon fill="white" stroke="black" points="215.5,-38.5 215.5,-57.5 379.5,-57.5 379.5,-38.5 215.5,-38.5"/>
<text text-anchor="middle" x="297.5" y="-45.5" font-family="Helvetica,sans-Serif" font-size="10.00">wld_nl80211_wiphySuppCmds</text>
</a>
</g>
</g>
<!-- Node5&#45;&gt;Node1 -->
<g id="edge4" class="edge">
<title>Node5&#45;&gt;Node1</title>
<path fill="none" stroke="#9a32cd" stroke-dasharray="5,2" d="M390.02,-53.23C417.07,-54.91 446.74,-56.89 474,-59 479.75,-59.44 485.7,-59.93 491.68,-60.44"/>
<polygon fill="#9a32cd" stroke="#9a32cd" points="389.99,-49.72 379.79,-52.6 389.56,-56.71 389.99,-49.72"/>
<text text-anchor="middle" x="439.5" y="-62" font-family="Helvetica,sans-Serif" font-size="10.00"> suppCmds</text>
</g>
<!-- Node6 -->
<g id="node6" class="node">
<title>Node6</title>
<g id="a_node6"><a xlink:href="structwld__nl80211__wiphyExtCapas.html" target="_top" xlink:title=" ">
<polygon fill="white" stroke="black" points="218.5,-0.5 218.5,-19.5 376.5,-19.5 376.5,-0.5 218.5,-0.5"/>
<text text-anchor="middle" x="297.5" y="-7.5" font-family="Helvetica,sans-Serif" font-size="10.00">wld_nl80211_wiphyExtCapas</text>
</a>
</g>
</g>
<!-- Node6&#45;&gt;Node1 -->
<g id="edge5" class="edge">
<title>Node6&#45;&gt;Node1</title>
<path fill="none" stroke="#9a32cd" stroke-dasharray="5,2" d="M376.99,-21.15C407.46,-26.07 442.54,-32.46 474,-40 494.15,-44.83 516.46,-51.78 533.44,-57.43"/>
<polygon fill="#9a32cd" stroke="#9a32cd" points="377.27,-17.66 366.85,-19.54 376.17,-24.57 377.27,-17.66"/>
<text text-anchor="middle" x="439.5" y="-43" font-family="Helvetica,sans-Serif" font-size="10.00"> extCapas</text>
</g>
</g>
</svg>
