<?xml version="1.0" encoding="UTF-8" standalone="no"?>
<!DOCTYPE svg PUBLIC "-//W3C//DTD SVG 1.1//EN"
 "http://www.w3.org/Graphics/SVG/1.1/DTD/svg11.dtd">
<!-- Generated by graphviz version 2.43.0 (0)
 -->
<!-- Title: test/startStop/test_startStop.c Pages: 1 -->
<svg width="4276pt" height="207pt"
 viewBox="0.00 0.00 4276.00 207.00" xmlns="http://www.w3.org/2000/svg" xmlns:xlink="http://www.w3.org/1999/xlink">
<g id="graph0" class="graph" transform="scale(1 1) rotate(0) translate(4 203)">
<title>test/startStop/test_startStop.c</title>
<polygon fill="white" stroke="transparent" points="-4,4 -4,-203 4272,-203 4272,4 -4,4"/>
<!-- Node1 -->
<g id="node1" class="node">
<title>Node1</title>
<g id="a_node1"><a xlink:title=" ">
<polygon fill="#bfbfbf" stroke="black" points="1134,-168.5 1134,-198.5 1238,-198.5 1238,-168.5 1134,-168.5"/>
<text text-anchor="start" x="1142" y="-186.5" font-family="Helvetica,sans-Serif" font-size="10.00">test/startStop/test</text>
<text text-anchor="middle" x="1186" y="-175.5" font-family="Helvetica,sans-Serif" font-size="10.00">_startStop.c</text>
</a>
</g>
</g>
<!-- Node2 -->
<g id="node2" class="node">
<title>Node2</title>
<g id="a_node2"><a xlink:title=" ">
<polygon fill="white" stroke="#bfbfbf" points="0,-112.5 0,-131.5 84,-131.5 84,-112.5 0,-112.5"/>
<text text-anchor="middle" x="42" y="-119.5" font-family="Helvetica,sans-Serif" font-size="10.00">sys/signalfd.h</text>
</a>
</g>
</g>
<!-- Node1&#45;&gt;Node2 -->
<g id="edge1" class="edge">
<title>Node1&#45;&gt;Node2</title>
<path fill="none" stroke="midnightblue" d="M1133.76,-182.46C977.45,-181.85 499.63,-176.29 94.4,-132.01"/>
<polygon fill="midnightblue" stroke="midnightblue" points="94.56,-128.5 84.24,-130.89 93.8,-135.46 94.56,-128.5"/>
</g>
<!-- Node3 -->
<g id="node3" class="node">
<title>Node3</title>
<g id="a_node3"><a xlink:title=" ">
<polygon fill="white" stroke="#bfbfbf" points="102.5,-112.5 102.5,-131.5 157.5,-131.5 157.5,-112.5 102.5,-112.5"/>
<text text-anchor="middle" x="130" y="-119.5" font-family="Helvetica,sans-Serif" font-size="10.00">signal.h</text>
</a>
</g>
</g>
<!-- Node1&#45;&gt;Node3 -->
<g id="edge2" class="edge">
<title>Node1&#45;&gt;Node3</title>
<path fill="none" stroke="midnightblue" d="M1133.95,-181.22C956.57,-176.67 375.78,-160.06 167.69,-131.75"/>
<polygon fill="midnightblue" stroke="midnightblue" points="168.16,-128.28 157.77,-130.35 167.18,-135.21 168.16,-128.28"/>
</g>
<!-- Node4 -->
<g id="node4" class="node">
<title>Node4</title>
<g id="a_node4"><a xlink:title=" ">
<polygon fill="white" stroke="#bfbfbf" points="176,-112.5 176,-131.5 232,-131.5 232,-112.5 176,-112.5"/>
<text text-anchor="middle" x="204" y="-119.5" font-family="Helvetica,sans-Serif" font-size="10.00">unistd.h</text>
</a>
</g>
</g>
<!-- Node1&#45;&gt;Node4 -->
<g id="edge3" class="edge">
<title>Node1&#45;&gt;Node4</title>
<path fill="none" stroke="midnightblue" d="M1133.93,-183.09C992.01,-183.97 586.52,-181.7 242.09,-131.87"/>
<polygon fill="midnightblue" stroke="midnightblue" points="242.58,-128.41 232.18,-130.42 241.56,-135.33 242.58,-128.41"/>
</g>
<!-- Node5 -->
<g id="node5" class="node">
<title>Node5</title>
<g id="a_node5"><a xlink:title=" ">
<polygon fill="white" stroke="#bfbfbf" points="250,-112.5 250,-131.5 314,-131.5 314,-112.5 250,-112.5"/>
<text text-anchor="middle" x="282" y="-119.5" font-family="Helvetica,sans-Serif" font-size="10.00">sys/stat.h</text>
</a>
</g>
</g>
<!-- Node1&#45;&gt;Node5 -->
<g id="edge4" class="edge">
<title>Node1&#45;&gt;Node5</title>
<path fill="none" stroke="midnightblue" d="M1133.68,-182.3C1000.19,-181.19 636.08,-174.3 324.28,-131.95"/>
<polygon fill="midnightblue" stroke="midnightblue" points="324.53,-128.45 314.14,-130.56 323.57,-135.39 324.53,-128.45"/>
</g>
<!-- Node6 -->
<g id="node6" class="node">
<title>Node6</title>
<g id="a_node6"><a xlink:title=" ">
<polygon fill="white" stroke="#bfbfbf" points="332.5,-112.5 332.5,-131.5 385.5,-131.5 385.5,-112.5 332.5,-112.5"/>
<text text-anchor="middle" x="359" y="-119.5" font-family="Helvetica,sans-Serif" font-size="10.00">stdlib.h</text>
</a>
</g>
</g>
<!-- Node1&#45;&gt;Node6 -->
<g id="edge5" class="edge">
<title>Node1&#45;&gt;Node6</title>
<path fill="none" stroke="midnightblue" d="M1133.82,-182.43C1008.16,-181.55 678.86,-175.1 395.68,-131.78"/>
<polygon fill="midnightblue" stroke="midnightblue" points="396.04,-128.3 385.63,-130.23 394.97,-135.22 396.04,-128.3"/>
</g>
<!-- Node7 -->
<g id="node7" class="node">
<title>Node7</title>
<g id="a_node7"><a xlink:title=" ">
<polygon fill="white" stroke="#bfbfbf" points="404,-112.5 404,-131.5 454,-131.5 454,-112.5 404,-112.5"/>
<text text-anchor="middle" x="429" y="-119.5" font-family="Helvetica,sans-Serif" font-size="10.00">stdio.h</text>
</a>
</g>
</g>
<!-- Node1&#45;&gt;Node7 -->
<g id="edge6" class="edge">
<title>Node1&#45;&gt;Node7</title>
<path fill="none" stroke="midnightblue" d="M1133.88,-182.23C1015.98,-180.88 719.83,-173.45 464.35,-131.9"/>
<polygon fill="midnightblue" stroke="midnightblue" points="464.57,-128.39 454.14,-130.22 463.43,-135.3 464.57,-128.39"/>
</g>
<!-- Node8 -->
<g id="node8" class="node">
<title>Node8</title>
<g id="a_node8"><a xlink:title=" ">
<polygon fill="white" stroke="#bfbfbf" points="472.5,-112.5 472.5,-131.5 531.5,-131.5 531.5,-112.5 472.5,-112.5"/>
<text text-anchor="middle" x="502" y="-119.5" font-family="Helvetica,sans-Serif" font-size="10.00">setjmp.h</text>
</a>
</g>
</g>
<!-- Node1&#45;&gt;Node8 -->
<g id="edge7" class="edge">
<title>Node1&#45;&gt;Node8</title>
<path fill="none" stroke="midnightblue" d="M1133.86,-181.04C1025.38,-177.45 767.41,-165.95 541.76,-131.87"/>
<polygon fill="midnightblue" stroke="midnightblue" points="542.14,-128.39 531.72,-130.34 541.08,-135.31 542.14,-128.39"/>
</g>
<!-- Node9 -->
<g id="node9" class="node">
<title>Node9</title>
<g id="a_node9"><a xlink:title=" ">
<polygon fill="white" stroke="#bfbfbf" points="550,-112.5 550,-131.5 606,-131.5 606,-112.5 550,-112.5"/>
<text text-anchor="middle" x="578" y="-119.5" font-family="Helvetica,sans-Serif" font-size="10.00">stdarg.h</text>
</a>
</g>
</g>
<!-- Node1&#45;&gt;Node9 -->
<g id="edge8" class="edge">
<title>Node1&#45;&gt;Node9</title>
<path fill="none" stroke="midnightblue" d="M1133.71,-180.51C1034.49,-176.16 812.06,-163.67 616.09,-131.94"/>
<polygon fill="midnightblue" stroke="midnightblue" points="616.63,-128.48 606.19,-130.32 615.49,-135.39 616.63,-128.48"/>
</g>
<!-- Node10 -->
<g id="node10" class="node">
<title>Node10</title>
<g id="a_node10"><a xlink:title=" ">
<polygon fill="white" stroke="#bfbfbf" points="624.5,-112.5 624.5,-131.5 687.5,-131.5 687.5,-112.5 624.5,-112.5"/>
<text text-anchor="middle" x="656" y="-119.5" font-family="Helvetica,sans-Serif" font-size="10.00">cmocka.h</text>
</a>
</g>
</g>
<!-- Node1&#45;&gt;Node10 -->
<g id="edge9" class="edge">
<title>Node1&#45;&gt;Node10</title>
<path fill="none" stroke="midnightblue" d="M1133.88,-179.17C1045.89,-173.1 862.2,-158.51 698.09,-132.18"/>
<polygon fill="midnightblue" stroke="midnightblue" points="698.24,-128.66 687.81,-130.51 697.12,-135.57 698.24,-128.66"/>
</g>
<!-- Node11 -->
<g id="node11" class="node">
<title>Node11</title>
<g id="a_node11"><a xlink:title=" ">
<polygon fill="white" stroke="#bfbfbf" points="705.5,-112.5 705.5,-131.5 806.5,-131.5 806.5,-112.5 705.5,-112.5"/>
<text text-anchor="middle" x="756" y="-119.5" font-family="Helvetica,sans-Serif" font-size="10.00">test&#45;toolbox/ttb.h</text>
</a>
</g>
</g>
<!-- Node1&#45;&gt;Node11 -->
<g id="edge10" class="edge">
<title>Node1&#45;&gt;Node11</title>
<path fill="none" stroke="midnightblue" d="M1133.74,-175.66C1063.85,-166.44 935.8,-149.36 816.56,-132.21"/>
<polygon fill="midnightblue" stroke="midnightblue" points="816.92,-128.72 806.52,-130.76 815.92,-135.65 816.92,-128.72"/>
</g>
<!-- Node12 -->
<g id="node12" class="node">
<title>Node12</title>
<g id="a_node12"><a xlink:title=" ">
<polygon fill="white" stroke="#bfbfbf" points="824.5,-112.5 824.5,-131.5 877.5,-131.5 877.5,-112.5 824.5,-112.5"/>
<text text-anchor="middle" x="851" y="-119.5" font-family="Helvetica,sans-Serif" font-size="10.00">string.h</text>
</a>
</g>
</g>
<!-- Node1&#45;&gt;Node12 -->
<g id="edge11" class="edge">
<title>Node1&#45;&gt;Node12</title>
<path fill="none" stroke="midnightblue" d="M1133.99,-175.12C1076.07,-166.59 979.5,-151.46 887.71,-132.23"/>
<polygon fill="midnightblue" stroke="midnightblue" points="888.21,-128.76 877.7,-130.11 886.76,-135.61 888.21,-128.76"/>
</g>
<!-- Node13 -->
<g id="node13" class="node">
<title>Node13</title>
<g id="a_node13"><a xlink:title=" ">
<polygon fill="white" stroke="#bfbfbf" points="895.5,-112.5 895.5,-131.5 996.5,-131.5 996.5,-112.5 895.5,-112.5"/>
<text text-anchor="middle" x="946" y="-119.5" font-family="Helvetica,sans-Serif" font-size="10.00">debug/sahtrace.h</text>
</a>
</g>
</g>
<!-- Node1&#45;&gt;Node13 -->
<g id="edge12" class="edge">
<title>Node1&#45;&gt;Node13</title>
<path fill="none" stroke="midnightblue" d="M1133.92,-169.59C1091.09,-158.97 1031.05,-144.09 990.45,-134.02"/>
<polygon fill="midnightblue" stroke="midnightblue" points="991.12,-130.58 980.57,-131.57 989.44,-137.37 991.12,-130.58"/>
</g>
<!-- Node14 -->
<g id="node14" class="node">
<title>Node14</title>
<g id="a_node14"><a xlink:title=" ">
<polygon fill="white" stroke="#bfbfbf" points="1015,-112.5 1015,-131.5 1139,-131.5 1139,-112.5 1015,-112.5"/>
<text text-anchor="middle" x="1077" y="-119.5" font-family="Helvetica,sans-Serif" font-size="10.00">amxc/amxc_macros.h</text>
</a>
</g>
</g>
<!-- Node1&#45;&gt;Node14 -->
<g id="edge13" class="edge">
<title>Node1&#45;&gt;Node14</title>
<path fill="none" stroke="midnightblue" d="M1160.17,-168.4C1142.53,-158.77 1119.3,-146.09 1101.87,-136.58"/>
<polygon fill="midnightblue" stroke="midnightblue" points="1103.31,-133.38 1092.86,-131.66 1099.96,-139.52 1103.31,-133.38"/>
</g>
<!-- Node15 -->
<g id="node15" class="node">
<title>Node15</title>
<g id="a_node15"><a xlink:title=" ">
<polygon fill="white" stroke="#bfbfbf" points="672.5,-0.5 672.5,-19.5 755.5,-19.5 755.5,-0.5 672.5,-0.5"/>
<text text-anchor="middle" x="714" y="-7.5" font-family="Helvetica,sans-Serif" font-size="10.00">amxc/amxc.h</text>
</a>
</g>
</g>
<!-- Node1&#45;&gt;Node15 -->
<g id="edge14" class="edge">
<title>Node1&#45;&gt;Node15</title>
<path fill="none" stroke="midnightblue" d="M1182.2,-168.26C1177.13,-152.11 1166.56,-126.18 1148,-112 1117.56,-88.74 874.32,-40.99 765.87,-20.59"/>
<polygon fill="midnightblue" stroke="midnightblue" points="766.28,-17.11 755.81,-18.7 764.99,-23.99 766.28,-17.11"/>
</g>
<!-- Node16 -->
<g id="node16" class="node">
<title>Node16</title>
<g id="a_node16"><a xlink:title=" ">
<polygon fill="white" stroke="#bfbfbf" points="774,-0.5 774,-19.5 858,-19.5 858,-0.5 774,-0.5"/>
<text text-anchor="middle" x="816" y="-7.5" font-family="Helvetica,sans-Serif" font-size="10.00">amxp/amxp.h</text>
</a>
</g>
</g>
<!-- Node1&#45;&gt;Node16 -->
<g id="edge15" class="edge">
<title>Node1&#45;&gt;Node16</title>
<path fill="none" stroke="midnightblue" d="M1190.72,-168.13C1198.28,-142.04 1209.56,-86.77 1181,-56 1135.14,-6.58 952.02,-28.18 868.22,-19.87"/>
<polygon fill="midnightblue" stroke="midnightblue" points="868.62,-16.39 858.27,-18.66 867.78,-23.34 868.62,-16.39"/>
</g>
<!-- Node17 -->
<g id="node17" class="node">
<title>Node17</title>
<g id="a_node17"><a xlink:title=" ">
<polygon fill="white" stroke="#bfbfbf" points="876.5,-0.5 876.5,-19.5 981.5,-19.5 981.5,-0.5 876.5,-0.5"/>
<text text-anchor="middle" x="929" y="-7.5" font-family="Helvetica,sans-Serif" font-size="10.00">amxd/amxd_dm.h</text>
</a>
</g>
</g>
<!-- Node1&#45;&gt;Node17 -->
<g id="edge16" class="edge">
<title>Node1&#45;&gt;Node17</title>
<path fill="none" stroke="midnightblue" d="M1198.61,-168.19C1206.14,-158.66 1214.99,-145.45 1219,-132 1228.64,-99.63 1240.98,-81.65 1219,-56 1218.07,-54.92 1076.7,-33.35 991.71,-20.48"/>
<polygon fill="midnightblue" stroke="midnightblue" points="992.05,-16.99 981.64,-18.95 991,-23.91 992.05,-16.99"/>
</g>
<!-- Node18 -->
<g id="node18" class="node">
<title>Node18</title>
<g id="a_node18"><a xlink:title=" ">
<polygon fill="white" stroke="#bfbfbf" points="999.5,-0.5 999.5,-19.5 1118.5,-19.5 1118.5,-0.5 999.5,-0.5"/>
<text text-anchor="middle" x="1059" y="-7.5" font-family="Helvetica,sans-Serif" font-size="10.00">amxd/amxd_object.h</text>
</a>
</g>
</g>
<!-- Node1&#45;&gt;Node18 -->
<g id="edge17" class="edge">
<title>Node1&#45;&gt;Node18</title>
<path fill="none" stroke="midnightblue" d="M1218.15,-168.34C1232.83,-160.03 1248.75,-148 1257,-132 1272.49,-101.98 1278.07,-82.4 1257,-56 1248.41,-45.24 1176.52,-30.85 1121.82,-21.27"/>
<polygon fill="midnightblue" stroke="midnightblue" points="1122.28,-17.79 1111.83,-19.54 1121.08,-24.69 1122.28,-17.79"/>
</g>
<!-- Node19 -->
<g id="node19" class="node">
<title>Node19</title>
<g id="a_node19"><a xlink:title=" ">
<polygon fill="white" stroke="#bfbfbf" points="1921.5,-112.5 1921.5,-131.5 2032.5,-131.5 2032.5,-112.5 1921.5,-112.5"/>
<text text-anchor="middle" x="1977" y="-119.5" font-family="Helvetica,sans-Serif" font-size="10.00">amxd/amxd_path.h</text>
</a>
</g>
</g>
<!-- Node1&#45;&gt;Node19 -->
<g id="edge18" class="edge">
<title>Node1&#45;&gt;Node19</title>
<path fill="none" stroke="midnightblue" d="M1238.04,-180.1C1355.9,-174.4 1652.38,-158.58 1911.39,-131.99"/>
<polygon fill="midnightblue" stroke="midnightblue" points="1911.77,-135.47 1921.36,-130.96 1911.05,-128.51 1911.77,-135.47"/>
</g>
<!-- Node20 -->
<g id="node20" class="node">
<title>Node20</title>
<g id="a_node20"><a xlink:title=" ">
<polygon fill="white" stroke="#bfbfbf" points="1137,-0.5 1137,-19.5 1289,-19.5 1289,-0.5 1137,-0.5"/>
<text text-anchor="middle" x="1213" y="-7.5" font-family="Helvetica,sans-Serif" font-size="10.00">amxd/amxd_object_event.h</text>
</a>
</g>
</g>
<!-- Node1&#45;&gt;Node20 -->
<g id="edge19" class="edge">
<title>Node1&#45;&gt;Node20</title>
<path fill="none" stroke="midnightblue" d="M1238.16,-171.42C1259.59,-164.03 1282.31,-151.86 1295,-132 1313.18,-103.53 1312.21,-85.07 1295,-56 1286.03,-40.84 1269.93,-30.45 1254.37,-23.5"/>
<polygon fill="midnightblue" stroke="midnightblue" points="1255.39,-20.14 1244.81,-19.62 1252.75,-26.63 1255.39,-20.14"/>
</g>
<!-- Node21 -->
<g id="node21" class="node">
<title>Node21</title>
<g id="a_node21"><a xlink:title=" ">
<polygon fill="white" stroke="#bfbfbf" points="1307.5,-0.5 1307.5,-19.5 1390.5,-19.5 1390.5,-0.5 1307.5,-0.5"/>
<text text-anchor="middle" x="1349" y="-7.5" font-family="Helvetica,sans-Serif" font-size="10.00">amxo/amxo.h</text>
</a>
</g>
</g>
<!-- Node1&#45;&gt;Node21 -->
<g id="edge20" class="edge">
<title>Node1&#45;&gt;Node21</title>
<path fill="none" stroke="midnightblue" d="M1238.05,-173.28C1264.15,-166.14 1294.3,-153.64 1314,-132 1340.28,-103.12 1346.93,-55.65 1348.54,-29.58"/>
<polygon fill="midnightblue" stroke="midnightblue" points="1352.04,-29.69 1348.98,-19.55 1345.05,-29.38 1352.04,-29.69"/>
</g>
<!-- Node22 -->
<g id="node22" class="node">
<title>Node22</title>
<g id="a_node22"><a xlink:title=" ">
<polygon fill="white" stroke="#bfbfbf" points="2050.5,-112.5 2050.5,-131.5 2161.5,-131.5 2161.5,-112.5 2050.5,-112.5"/>
<text text-anchor="middle" x="2106" y="-119.5" font-family="Helvetica,sans-Serif" font-size="10.00">amxo/amxo_save.h</text>
</a>
</g>
</g>
<!-- Node1&#45;&gt;Node22 -->
<g id="edge21" class="edge">
<title>Node1&#45;&gt;Node22</title>
<path fill="none" stroke="midnightblue" d="M1238.23,-180.89C1370.65,-176.49 1730.48,-162.56 2040.12,-132.12"/>
<polygon fill="midnightblue" stroke="midnightblue" points="2040.58,-135.59 2050.18,-131.12 2039.89,-128.62 2040.58,-135.59"/>
</g>
<!-- Node23 -->
<g id="node23" class="node">
<title>Node23</title>
<g id="a_node23"><a xlink:title=" ">
<polygon fill="white" stroke="#bfbfbf" points="2180,-112.5 2180,-131.5 2264,-131.5 2264,-112.5 2180,-112.5"/>
<text text-anchor="middle" x="2222" y="-119.5" font-family="Helvetica,sans-Serif" font-size="10.00">amxb/amxb.h</text>
</a>
</g>
</g>
<!-- Node1&#45;&gt;Node23 -->
<g id="edge22" class="edge">
<title>Node1&#45;&gt;Node23</title>
<path fill="none" stroke="midnightblue" d="M1238.25,-182.09C1384.09,-180.46 1808.08,-172.41 2169.62,-132.01"/>
<polygon fill="midnightblue" stroke="midnightblue" points="2170.21,-135.47 2179.76,-130.87 2169.43,-128.51 2170.21,-135.47"/>
</g>
<!-- Node24 -->
<g id="node24" class="node">
<title>Node24</title>
<g id="a_node24"><a xlink:title=" ">
<polygon fill="white" stroke="#bfbfbf" points="2282,-112.5 2282,-131.5 2408,-131.5 2408,-112.5 2282,-112.5"/>
<text text-anchor="middle" x="2345" y="-119.5" font-family="Helvetica,sans-Serif" font-size="10.00">amxb/amxb_register.h</text>
</a>
</g>
</g>
<!-- Node1&#45;&gt;Node24 -->
<g id="edge23" class="edge">
<title>Node1&#45;&gt;Node24</title>
<path fill="none" stroke="midnightblue" d="M1238.14,-181.52C1393.63,-178.29 1867.87,-166.2 2271.69,-132.04"/>
<polygon fill="midnightblue" stroke="midnightblue" points="2272.15,-135.52 2281.81,-131.18 2271.55,-128.54 2272.15,-135.52"/>
</g>
<!-- Node25 -->
<g id="node25" class="node">
<title>Node25</title>
<g id="a_node25"><a xlink:href="wld_8h.html" target="_top" xlink:title=" ">
<polygon fill="white" stroke="red" points="1995.5,-56.5 1995.5,-75.5 2038.5,-75.5 2038.5,-56.5 1995.5,-56.5"/>
<text text-anchor="middle" x="2017" y="-63.5" font-family="Helvetica,sans-Serif" font-size="10.00">wld.h</text>
</a>
</g>
</g>
<!-- Node1&#45;&gt;Node25 -->
<g id="edge24" class="edge">
<title>Node1&#45;&gt;Node25</title>
<path fill="none" stroke="midnightblue" d="M1238.25,-180.5C1307.78,-176.59 1433.81,-165.17 1536,-132 1554.15,-126.11 1555.73,-117.51 1574,-112 1651.27,-88.7 1897.18,-73.47 1985.24,-68.65"/>
<polygon fill="midnightblue" stroke="midnightblue" points="1985.62,-72.13 1995.42,-68.1 1985.24,-65.14 1985.62,-72.13"/>
</g>
<!-- Node91 -->
<g id="node47" class="node">
<title>Node91</title>
<g id="a_node47"><a xlink:href="wld__accesspoint_8h.html" target="_top" xlink:title=" ">
<polygon fill="white" stroke="red" points="1583,-112.5 1583,-131.5 1709,-131.5 1709,-112.5 1583,-112.5"/>
<text text-anchor="middle" x="1646" y="-119.5" font-family="Helvetica,sans-Serif" font-size="10.00">wld/wld_accesspoint.h</text>
</a>
</g>
</g>
<!-- Node1&#45;&gt;Node91 -->
<g id="edge52" class="edge">
<title>Node1&#45;&gt;Node91</title>
<path fill="none" stroke="midnightblue" d="M1238.32,-175.73C1320.34,-165.12 1479.44,-144.54 1572.78,-132.47"/>
<polygon fill="midnightblue" stroke="midnightblue" points="1573.25,-135.94 1582.72,-131.19 1572.35,-129 1573.25,-135.94"/>
</g>
<!-- Node93 -->
<g id="node48" class="node">
<title>Node93</title>
<g id="a_node48"><a xlink:href="wld__assocdev_8h.html" target="_top" xlink:title=" ">
<polygon fill="white" stroke="red" points="1727.5,-112.5 1727.5,-131.5 1820.5,-131.5 1820.5,-112.5 1727.5,-112.5"/>
<text text-anchor="middle" x="1774" y="-119.5" font-family="Helvetica,sans-Serif" font-size="10.00">wld_assocdev.h</text>
</a>
</g>
</g>
<!-- Node1&#45;&gt;Node93 -->
<g id="edge54" class="edge">
<title>Node1&#45;&gt;Node93</title>
<path fill="none" stroke="midnightblue" d="M1238.23,-178.67C1331.97,-171.55 1535.17,-155 1717.25,-132.02"/>
<polygon fill="midnightblue" stroke="midnightblue" points="1717.8,-135.47 1727.28,-130.74 1716.92,-128.53 1717.8,-135.47"/>
</g>
<!-- Node96 -->
<g id="node49" class="node">
<title>Node96</title>
<g id="a_node49"><a xlink:href="wld__util_8h.html" target="_top" xlink:title=" ">
<polygon fill="white" stroke="black" points="1839,-112.5 1839,-131.5 1903,-131.5 1903,-112.5 1839,-112.5"/>
<text text-anchor="middle" x="1871" y="-119.5" font-family="Helvetica,sans-Serif" font-size="10.00">wld_util.h</text>
</a>
</g>
</g>
<!-- Node1&#45;&gt;Node96 -->
<g id="edge56" class="edge">
<title>Node1&#45;&gt;Node96</title>
<path fill="none" stroke="midnightblue" d="M1238.35,-180.74C1348.28,-176.54 1610.99,-163.78 1829,-132 1829.1,-131.99 1829.2,-131.97 1829.3,-131.96"/>
<polygon fill="midnightblue" stroke="midnightblue" points="1829.7,-135.44 1838.98,-130.32 1828.53,-128.54 1829.7,-135.44"/>
</g>
<!-- Node97 -->
<g id="node50" class="node">
<title>Node97</title>
<g id="a_node50"><a xlink:href="wld__th__dm_8h.html" target="_top" xlink:title=" ">
<polygon fill="white" stroke="red" points="1385,-112.5 1385,-131.5 1527,-131.5 1527,-112.5 1385,-112.5"/>
<text text-anchor="middle" x="1456" y="-119.5" font-family="Helvetica,sans-Serif" font-size="10.00">../testHelper/wld_th_dm.h</text>
</a>
</g>
</g>
<!-- Node1&#45;&gt;Node97 -->
<g id="edge58" class="edge">
<title>Node1&#45;&gt;Node97</title>
<path fill="none" stroke="midnightblue" d="M1238.06,-171.03C1286.99,-160.25 1359.65,-144.23 1407.41,-133.71"/>
<polygon fill="midnightblue" stroke="midnightblue" points="1408.2,-137.12 1417.21,-131.55 1406.69,-130.28 1408.2,-137.12"/>
</g>
<!-- Node25&#45;&gt;Node15 -->
<g id="edge39" class="edge">
<title>Node25&#45;&gt;Node15</title>
<path fill="none" stroke="midnightblue" d="M1995.07,-64.63C1851.05,-62.13 1038.27,-47.05 765.92,-19.89"/>
<polygon fill="midnightblue" stroke="midnightblue" points="765.99,-16.38 755.68,-18.84 765.27,-23.35 765.99,-16.38"/>
</g>
<!-- Node25&#45;&gt;Node16 -->
<g id="edge40" class="edge">
<title>Node25&#45;&gt;Node16</title>
<path fill="none" stroke="midnightblue" d="M1995.38,-65.24C1880.35,-66.31 1328.62,-68.62 868.41,-19.99"/>
<polygon fill="midnightblue" stroke="midnightblue" points="868.55,-16.49 858.24,-18.91 867.81,-23.45 868.55,-16.49"/>
</g>
<!-- Node25&#45;&gt;Node17 -->
<g id="edge48" class="edge">
<title>Node25&#45;&gt;Node17</title>
<path fill="none" stroke="midnightblue" d="M1995.26,-64.87C1887.59,-64.08 1400.59,-58.49 991.78,-20.07"/>
<polygon fill="midnightblue" stroke="midnightblue" points="991.82,-16.56 981.53,-19.1 991.16,-23.53 991.82,-16.56"/>
</g>
<!-- Node25&#45;&gt;Node18 -->
<g id="edge47" class="edge">
<title>Node25&#45;&gt;Node18</title>
<path fill="none" stroke="midnightblue" d="M1995.3,-64.53C1896.72,-62.29 1481.16,-51.41 1128.95,-20.01"/>
<polygon fill="midnightblue" stroke="midnightblue" points="1129.08,-16.5 1118.81,-19.1 1128.45,-23.48 1129.08,-16.5"/>
</g>
<!-- Node25&#45;&gt;Node20 -->
<g id="edge44" class="edge">
<title>Node25&#45;&gt;Node20</title>
<path fill="none" stroke="midnightblue" d="M1995.21,-63.98C1908.66,-59.85 1580.62,-43.53 1299.42,-20.09"/>
<polygon fill="midnightblue" stroke="midnightblue" points="1299.7,-16.6 1289.44,-19.25 1299.11,-23.57 1299.7,-16.6"/>
</g>
<!-- Node25&#45;&gt;Node21 -->
<g id="edge51" class="edge">
<title>Node25&#45;&gt;Node21</title>
<path fill="none" stroke="midnightblue" d="M1995.34,-64.22C1916.88,-61.23 1640.07,-49.21 1400.98,-19.98"/>
<polygon fill="midnightblue" stroke="midnightblue" points="1401.05,-16.47 1390.7,-18.71 1400.19,-23.41 1401.05,-16.47"/>
</g>
<!-- Node26 -->
<g id="node26" class="node">
<title>Node26</title>
<g id="a_node26"><a xlink:title=" ">
<polygon fill="white" stroke="#bfbfbf" points="4206,-0.5 4206,-19.5 4268,-19.5 4268,-0.5 4206,-0.5"/>
<text text-anchor="middle" x="4237" y="-7.5" font-family="Helvetica,sans-Serif" font-size="10.00">stdbool.h</text>
</a>
</g>
</g>
<!-- Node25&#45;&gt;Node26 -->
<g id="edge25" class="edge">
<title>Node25&#45;&gt;Node26</title>
<path fill="none" stroke="midnightblue" d="M2038.51,-64.82C2248.21,-63.02 3926.31,-47.83 4195.63,-19.81"/>
<polygon fill="midnightblue" stroke="midnightblue" points="4196.12,-23.27 4205.66,-18.68 4195.33,-16.32 4196.12,-23.27"/>
</g>
<!-- Node27 -->
<g id="node27" class="node">
<title>Node27</title>
<g id="a_node27"><a xlink:title=" ">
<polygon fill="white" stroke="#bfbfbf" points="1537.5,-0.5 1537.5,-19.5 1590.5,-19.5 1590.5,-0.5 1537.5,-0.5"/>
<text text-anchor="middle" x="1564" y="-7.5" font-family="Helvetica,sans-Serif" font-size="10.00">stdint.h</text>
</a>
</g>
</g>
<!-- Node25&#45;&gt;Node27 -->
<g id="edge26" class="edge">
<title>Node25&#45;&gt;Node27</title>
<path fill="none" stroke="midnightblue" d="M1995.14,-63.7C1934.29,-59.87 1757.64,-47.24 1600.94,-19.92"/>
<polygon fill="midnightblue" stroke="midnightblue" points="1601.11,-16.39 1590.65,-18.1 1599.89,-23.28 1601.11,-16.39"/>
</g>
<!-- Node28 -->
<g id="node28" class="node">
<title>Node28</title>
<g id="a_node28"><a xlink:title=" ">
<polygon fill="white" stroke="#bfbfbf" points="1409,-0.5 1409,-19.5 1519,-19.5 1519,-0.5 1409,-0.5"/>
<text text-anchor="middle" x="1464" y="-7.5" font-family="Helvetica,sans-Serif" font-size="10.00">swl/swl_common.h</text>
</a>
</g>
</g>
<!-- Node25&#45;&gt;Node28 -->
<g id="edge27" class="edge">
<title>Node25&#45;&gt;Node28</title>
<path fill="none" stroke="midnightblue" d="M1995.03,-63.36C1927.3,-58.21 1715.58,-41.52 1529.12,-20.08"/>
<polygon fill="midnightblue" stroke="midnightblue" points="1529.47,-16.6 1519.14,-18.92 1528.67,-23.55 1529.47,-16.6"/>
</g>
<!-- Node29 -->
<g id="node29" class="node">
<title>Node29</title>
<g id="a_node29"><a xlink:title=" ">
<polygon fill="white" stroke="#bfbfbf" points="1609,-0.5 1609,-19.5 1745,-19.5 1745,-0.5 1609,-0.5"/>
<text text-anchor="middle" x="1677" y="-7.5" font-family="Helvetica,sans-Serif" font-size="10.00">swla/swla_commonLib.h</text>
</a>
</g>
</g>
<!-- Node25&#45;&gt;Node29 -->
<g id="edge28" class="edge">
<title>Node25&#45;&gt;Node29</title>
<path fill="none" stroke="midnightblue" d="M1995.47,-61.58C1945.18,-53.59 1818.36,-33.45 1740.79,-21.13"/>
<polygon fill="midnightblue" stroke="midnightblue" points="1741.07,-17.63 1730.65,-19.52 1739.97,-24.55 1741.07,-17.63"/>
</g>
<!-- Node30 -->
<g id="node30" class="node">
<title>Node30</title>
<g id="a_node30"><a xlink:title=" ">
<polygon fill="white" stroke="#bfbfbf" points="1763,-0.5 1763,-19.5 1851,-19.5 1851,-0.5 1763,-0.5"/>
<text text-anchor="middle" x="1807" y="-7.5" font-family="Helvetica,sans-Serif" font-size="10.00">swl/swl_uuid.h</text>
</a>
</g>
</g>
<!-- Node25&#45;&gt;Node30 -->
<g id="edge29" class="edge">
<title>Node25&#45;&gt;Node30</title>
<path fill="none" stroke="midnightblue" d="M1995.32,-59.42C1961.19,-50.65 1894.3,-33.45 1850.12,-22.09"/>
<polygon fill="midnightblue" stroke="midnightblue" points="1850.8,-18.65 1840.24,-19.55 1849.05,-25.43 1850.8,-18.65"/>
</g>
<!-- Node31 -->
<g id="node31" class="node">
<title>Node31</title>
<g id="a_node31"><a xlink:title=" ">
<polygon fill="white" stroke="#bfbfbf" points="1869,-0.5 1869,-19.5 2021,-19.5 2021,-0.5 1869,-0.5"/>
<text text-anchor="middle" x="1945" y="-7.5" font-family="Helvetica,sans-Serif" font-size="10.00">swla/swla_radioStandards.h</text>
</a>
</g>
</g>
<!-- Node25&#45;&gt;Node31 -->
<g id="edge30" class="edge">
<title>Node25&#45;&gt;Node31</title>
<path fill="none" stroke="midnightblue" d="M2005.43,-56.32C1994.58,-48.18 1978.12,-35.84 1965.12,-26.09"/>
<polygon fill="midnightblue" stroke="midnightblue" points="1966.88,-23.03 1956.78,-19.83 1962.68,-28.63 1966.88,-23.03"/>
</g>
<!-- Node32 -->
<g id="node32" class="node">
<title>Node32</title>
<g id="a_node32"><a xlink:title=" ">
<polygon fill="white" stroke="#bfbfbf" points="2039.5,-0.5 2039.5,-19.5 2140.5,-19.5 2140.5,-0.5 2039.5,-0.5"/>
<text text-anchor="middle" x="2090" y="-7.5" font-family="Helvetica,sans-Serif" font-size="10.00">swla/swla_time.h</text>
</a>
</g>
</g>
<!-- Node25&#45;&gt;Node32 -->
<g id="edge31" class="edge">
<title>Node25&#45;&gt;Node32</title>
<path fill="none" stroke="midnightblue" d="M2028.73,-56.32C2039.84,-48.11 2056.74,-35.6 2069.98,-25.81"/>
<polygon fill="midnightblue" stroke="midnightblue" points="2072.1,-28.59 2078.06,-19.83 2067.94,-22.97 2072.1,-28.59"/>
</g>
<!-- Node33 -->
<g id="node33" class="node">
<title>Node33</title>
<g id="a_node33"><a xlink:title=" ">
<polygon fill="white" stroke="#bfbfbf" points="2158.5,-0.5 2158.5,-19.5 2287.5,-19.5 2287.5,-0.5 2158.5,-0.5"/>
<text text-anchor="middle" x="2223" y="-7.5" font-family="Helvetica,sans-Serif" font-size="10.00">swla/swla_time_spec.h</text>
</a>
</g>
</g>
<!-- Node25&#45;&gt;Node33 -->
<g id="edge32" class="edge">
<title>Node25&#45;&gt;Node33</title>
<path fill="none" stroke="midnightblue" d="M2038.66,-59.32C2072.22,-50.52 2137.44,-33.43 2180.61,-22.11"/>
<polygon fill="midnightblue" stroke="midnightblue" points="2181.75,-25.43 2190.54,-19.51 2179.97,-18.66 2181.75,-25.43"/>
</g>
<!-- Node34 -->
<g id="node34" class="node">
<title>Node34</title>
<g id="a_node34"><a xlink:title=" ">
<polygon fill="white" stroke="#bfbfbf" points="2306,-0.5 2306,-19.5 2400,-19.5 2400,-0.5 2306,-0.5"/>
<text text-anchor="middle" x="2353" y="-7.5" font-family="Helvetica,sans-Serif" font-size="10.00">swla/swla_oui.h</text>
</a>
</g>
</g>
<!-- Node25&#45;&gt;Node34 -->
<g id="edge33" class="edge">
<title>Node25&#45;&gt;Node34</title>
<path fill="none" stroke="midnightblue" d="M2038.53,-61.54C2089.64,-53.33 2219.69,-32.42 2295.58,-20.23"/>
<polygon fill="midnightblue" stroke="midnightblue" points="2296.6,-23.61 2305.92,-18.57 2295.49,-16.7 2296.6,-23.61"/>
</g>
<!-- Node35 -->
<g id="node35" class="node">
<title>Node35</title>
<g id="a_node35"><a xlink:title=" ">
<polygon fill="white" stroke="#bfbfbf" points="2418,-0.5 2418,-19.5 2546,-19.5 2546,-0.5 2418,-0.5"/>
<text text-anchor="middle" x="2482" y="-7.5" font-family="Helvetica,sans-Serif" font-size="10.00">swla/swla_delayExec.h</text>
</a>
</g>
</g>
<!-- Node25&#45;&gt;Node35 -->
<g id="edge34" class="edge">
<title>Node25&#45;&gt;Node35</title>
<path fill="none" stroke="midnightblue" d="M2038.68,-62.58C2096.65,-56.08 2260.28,-37.65 2407.77,-20.14"/>
<polygon fill="midnightblue" stroke="midnightblue" points="2408.39,-23.59 2417.91,-18.93 2407.57,-16.64 2408.39,-23.59"/>
</g>
<!-- Node36 -->
<g id="node36" class="node">
<title>Node36</title>
<g id="a_node36"><a xlink:title=" ">
<polygon fill="white" stroke="#bfbfbf" points="2564.5,-0.5 2564.5,-19.5 2683.5,-19.5 2683.5,-0.5 2564.5,-0.5"/>
<text text-anchor="middle" x="2624" y="-7.5" font-family="Helvetica,sans-Serif" font-size="10.00">swla/swla_function.h</text>
</a>
</g>
</g>
<!-- Node25&#45;&gt;Node36 -->
<g id="edge35" class="edge">
<title>Node25&#45;&gt;Node36</title>
<path fill="none" stroke="midnightblue" d="M2038.56,-63.56C2110.17,-58.69 2346.83,-41.99 2554.03,-20.06"/>
<polygon fill="midnightblue" stroke="midnightblue" points="2554.61,-23.51 2564.18,-18.97 2553.87,-16.55 2554.61,-23.51"/>
</g>
<!-- Node37 -->
<g id="node37" class="node">
<title>Node37</title>
<g id="a_node37"><a xlink:title=" ">
<polygon fill="white" stroke="#bfbfbf" points="2701.5,-0.5 2701.5,-19.5 2842.5,-19.5 2842.5,-0.5 2701.5,-0.5"/>
<text text-anchor="middle" x="2772" y="-7.5" font-family="Helvetica,sans-Serif" font-size="10.00">swl/swl_usp_cmdStatus.h</text>
</a>
</g>
</g>
<!-- Node25&#45;&gt;Node37 -->
<g id="edge36" class="edge">
<title>Node25&#45;&gt;Node37</title>
<path fill="none" stroke="midnightblue" d="M2038.63,-63.93C2121.63,-59.75 2427.95,-43.61 2691.25,-20.12"/>
<polygon fill="midnightblue" stroke="midnightblue" points="2691.73,-23.59 2701.38,-19.21 2691.11,-16.62 2691.73,-23.59"/>
</g>
<!-- Node38 -->
<g id="node38" class="node">
<title>Node38</title>
<g id="a_node38"><a xlink:title=" ">
<polygon fill="white" stroke="#bfbfbf" points="2861,-0.5 2861,-19.5 2947,-19.5 2947,-0.5 2861,-0.5"/>
<text text-anchor="middle" x="2904" y="-7.5" font-family="Helvetica,sans-Serif" font-size="10.00">swl/swl_wps.h</text>
</a>
</g>
</g>
<!-- Node25&#45;&gt;Node38 -->
<g id="edge37" class="edge">
<title>Node25&#45;&gt;Node38</title>
<path fill="none" stroke="midnightblue" d="M2038.69,-64.77C2133.59,-63.55 2521.87,-56.57 2850.72,-20"/>
<polygon fill="midnightblue" stroke="midnightblue" points="2851.38,-23.45 2860.93,-18.86 2850.6,-16.49 2851.38,-23.45"/>
</g>
<!-- Node39 -->
<g id="node39" class="node">
<title>Node39</title>
<g id="a_node39"><a xlink:title=" ">
<polygon fill="white" stroke="#bfbfbf" points="2965,-0.5 2965,-19.5 3069,-19.5 3069,-0.5 2965,-0.5"/>
<text text-anchor="middle" x="3017" y="-7.5" font-family="Helvetica,sans-Serif" font-size="10.00">swl/swl_security.h</text>
</a>
</g>
</g>
<!-- Node25&#45;&gt;Node39 -->
<g id="edge38" class="edge">
<title>Node25&#45;&gt;Node39</title>
<path fill="none" stroke="midnightblue" d="M2038.55,-64.75C2140.21,-63.42 2582.03,-55.81 2954.63,-20.03"/>
<polygon fill="midnightblue" stroke="midnightblue" points="2955.18,-23.5 2964.8,-19.05 2954.51,-16.53 2955.18,-23.5"/>
</g>
<!-- Node40 -->
<g id="node40" class="node">
<title>Node40</title>
<g id="a_node40"><a xlink:title=" ">
<polygon fill="white" stroke="#bfbfbf" points="3087,-0.5 3087,-19.5 3227,-19.5 3227,-0.5 3087,-0.5"/>
<text text-anchor="middle" x="3157" y="-7.5" font-family="Helvetica,sans-Serif" font-size="10.00">amxd/amxd_parameter.h</text>
</a>
</g>
</g>
<!-- Node25&#45;&gt;Node40 -->
<g id="edge41" class="edge">
<title>Node25&#45;&gt;Node40</title>
<path fill="none" stroke="midnightblue" d="M2038.7,-64.65C2148.37,-62.78 2652.79,-52.73 3076.81,-20.03"/>
<polygon fill="midnightblue" stroke="midnightblue" points="3077.11,-23.52 3086.81,-19.26 3076.57,-16.54 3077.11,-23.52"/>
</g>
<!-- Node41 -->
<g id="node41" class="node">
<title>Node41</title>
<g id="a_node41"><a xlink:title=" ">
<polygon fill="white" stroke="#bfbfbf" points="3245.5,-0.5 3245.5,-19.5 3364.5,-19.5 3364.5,-0.5 3245.5,-0.5"/>
<text text-anchor="middle" x="3305" y="-7.5" font-family="Helvetica,sans-Serif" font-size="10.00">amxd/amxd_action.h</text>
</a>
</g>
</g>
<!-- Node25&#45;&gt;Node41 -->
<g id="edge42" class="edge">
<title>Node25&#45;&gt;Node41</title>
<path fill="none" stroke="midnightblue" d="M2038.69,-64.95C2157.81,-64.52 2744.61,-60.41 3235.08,-19.99"/>
<polygon fill="midnightblue" stroke="midnightblue" points="3235.52,-23.46 3245.2,-19.15 3234.94,-16.49 3235.52,-23.46"/>
</g>
<!-- Node42 -->
<g id="node42" class="node">
<title>Node42</title>
<g id="a_node42"><a xlink:title=" ">
<polygon fill="white" stroke="#bfbfbf" points="3382.5,-0.5 3382.5,-19.5 3557.5,-19.5 3557.5,-0.5 3382.5,-0.5"/>
<text text-anchor="middle" x="3470" y="-7.5" font-family="Helvetica,sans-Serif" font-size="10.00">amxd/amxd_object_parameter.h</text>
</a>
</g>
</g>
<!-- Node25&#45;&gt;Node42 -->
<g id="edge43" class="edge">
<title>Node25&#45;&gt;Node42</title>
<path fill="none" stroke="midnightblue" d="M2038.57,-64.77C2165.07,-63.34 2823.65,-54.49 3372.29,-20.07"/>
<polygon fill="midnightblue" stroke="midnightblue" points="3372.62,-23.56 3382.38,-19.43 3372.18,-16.57 3372.62,-23.56"/>
</g>
<!-- Node43 -->
<g id="node43" class="node">
<title>Node43</title>
<g id="a_node43"><a xlink:title=" ">
<polygon fill="white" stroke="#bfbfbf" points="3575.5,-0.5 3575.5,-19.5 3704.5,-19.5 3704.5,-0.5 3575.5,-0.5"/>
<text text-anchor="middle" x="3640" y="-7.5" font-family="Helvetica,sans-Serif" font-size="10.00">amxd/amxd_function.h</text>
</a>
</g>
</g>
<!-- Node25&#45;&gt;Node43 -->
<g id="edge45" class="edge">
<title>Node25&#45;&gt;Node43</title>
<path fill="none" stroke="midnightblue" d="M2038.89,-65.14C2176.49,-65.83 2936.01,-67.31 3564.97,-20.08"/>
<polygon fill="midnightblue" stroke="midnightblue" points="3565.44,-23.56 3575.15,-19.31 3564.92,-16.58 3565.44,-23.56"/>
</g>
<!-- Node44 -->
<g id="node44" class="node">
<title>Node44</title>
<g id="a_node44"><a xlink:title=" ">
<polygon fill="white" stroke="#bfbfbf" points="3722.5,-0.5 3722.5,-19.5 3891.5,-19.5 3891.5,-0.5 3722.5,-0.5"/>
<text text-anchor="middle" x="3807" y="-7.5" font-family="Helvetica,sans-Serif" font-size="10.00">amxd/amxd_object_hierarchy.h</text>
</a>
</g>
</g>
<!-- Node25&#45;&gt;Node44 -->
<g id="edge46" class="edge">
<title>Node25&#45;&gt;Node44</title>
<path fill="none" stroke="midnightblue" d="M2038.57,-65C2182.56,-64.87 3019.63,-62.27 3712.19,-20.07"/>
<polygon fill="midnightblue" stroke="midnightblue" points="3712.61,-23.55 3722.37,-19.44 3712.18,-16.56 3712.61,-23.55"/>
</g>
<!-- Node45 -->
<g id="node45" class="node">
<title>Node45</title>
<g id="a_node45"><a xlink:title=" ">
<polygon fill="white" stroke="#bfbfbf" points="3910,-0.5 3910,-19.5 4054,-19.5 4054,-0.5 3910,-0.5"/>
<text text-anchor="middle" x="3982" y="-7.5" font-family="Helvetica,sans-Serif" font-size="10.00">amxd/amxd_transaction.h</text>
</a>
</g>
</g>
<!-- Node25&#45;&gt;Node45 -->
<g id="edge49" class="edge">
<title>Node25&#45;&gt;Node45</title>
<path fill="none" stroke="midnightblue" d="M2038.93,-65.2C2192.92,-66.43 3128.05,-71.47 3899.4,-20.04"/>
<polygon fill="midnightblue" stroke="midnightblue" points="3899.86,-23.52 3909.6,-19.36 3899.39,-16.54 3899.86,-23.52"/>
</g>
<!-- Node46 -->
<g id="node46" class="node">
<title>Node46</title>
<g id="a_node46"><a xlink:title=" ">
<polygon fill="white" stroke="#bfbfbf" points="4072,-0.5 4072,-19.5 4188,-19.5 4188,-0.5 4072,-0.5"/>
<text text-anchor="middle" x="4130" y="-7.5" font-family="Helvetica,sans-Serif" font-size="10.00">amxb/amxb_types.h</text>
</a>
</g>
</g>
<!-- Node25&#45;&gt;Node46 -->
<g id="edge50" class="edge">
<title>Node25&#45;&gt;Node46</title>
<path fill="none" stroke="midnightblue" d="M2038.76,-64.86C2229.39,-63.56 3618.86,-53.06 4061.65,-19.99"/>
<polygon fill="midnightblue" stroke="midnightblue" points="4062.23,-23.45 4071.94,-19.2 4061.7,-16.47 4062.23,-23.45"/>
</g>
<!-- Node91&#45;&gt;Node25 -->
<g id="edge53" class="edge">
<title>Node91&#45;&gt;Node25</title>
<path fill="none" stroke="midnightblue" d="M1704.79,-112.44C1784.17,-100.89 1922.86,-80.7 1985.13,-71.64"/>
<polygon fill="midnightblue" stroke="midnightblue" points="1985.76,-75.08 1995.15,-70.18 1984.75,-68.16 1985.76,-75.08"/>
</g>
<!-- Node93&#45;&gt;Node25 -->
<g id="edge55" class="edge">
<title>Node93&#45;&gt;Node25</title>
<path fill="none" stroke="midnightblue" d="M1812.5,-112.44C1860.33,-101.82 1941.01,-83.89 1985.39,-74.02"/>
<polygon fill="midnightblue" stroke="midnightblue" points="1986.32,-77.4 1995.33,-71.82 1984.81,-70.57 1986.32,-77.4"/>
</g>
<!-- Node96&#45;&gt;Node25 -->
<g id="edge57" class="edge">
<title>Node96&#45;&gt;Node25</title>
<path fill="none" stroke="midnightblue" d="M1894.13,-112.44C1918.91,-103.28 1958.37,-88.68 1985.86,-78.52"/>
<polygon fill="midnightblue" stroke="midnightblue" points="1987.24,-81.74 1995.4,-74.99 1984.81,-75.17 1987.24,-81.74"/>
</g>
<!-- Node97&#45;&gt;Node25 -->
<g id="edge59" class="edge">
<title>Node97&#45;&gt;Node25</title>
<path fill="none" stroke="midnightblue" d="M1527.41,-113.38C1532.01,-112.91 1536.57,-112.44 1541,-112 1707.89,-95.28 1907.88,-76.92 1984.74,-69.92"/>
<polygon fill="midnightblue" stroke="midnightblue" points="1985.52,-73.37 1995.17,-68.98 1984.89,-66.4 1985.52,-73.37"/>
</g>
<!-- Node97&#45;&gt;Node28 -->
<g id="edge60" class="edge">
<title>Node97&#45;&gt;Node28</title>
<path fill="none" stroke="midnightblue" d="M1456.63,-112.37C1457.92,-94.62 1460.9,-53.67 1462.65,-29.6"/>
<polygon fill="midnightblue" stroke="midnightblue" points="1466.14,-29.82 1463.38,-19.59 1459.16,-29.31 1466.14,-29.82"/>
</g>
</g>
</svg>
