<?xml version="1.0" encoding="UTF-8" standalone="no"?>
<!DOCTYPE svg PUBLIC "-//W3C//DTD SVG 1.1//EN"
 "http://www.w3.org/Graphics/SVG/1.1/DTD/svg11.dtd">
<!-- Generated by graphviz version 2.43.0 (0)
 -->
<!-- Title: test/testNeighborAp/test_neighborAp.c Pages: 1 -->
<svg width="4532pt" height="453pt"
 viewBox="0.00 0.00 4532.00 453.00" xmlns="http://www.w3.org/2000/svg" xmlns:xlink="http://www.w3.org/1999/xlink">
<g id="graph0" class="graph" transform="scale(1 1) rotate(0) translate(4 449)">
<title>test/testNeighborAp/test_neighborAp.c</title>
<polygon fill="white" stroke="transparent" points="-4,4 -4,-449 4528,-449 4528,4 -4,4"/>
<!-- Node1 -->
<g id="node1" class="node">
<title>Node1</title>
<g id="a_node1"><a xlink:title=" ">
<polygon fill="#bfbfbf" stroke="black" points="3441,-414.5 3441,-444.5 3555,-444.5 3555,-414.5 3441,-414.5"/>
<text text-anchor="start" x="3449" y="-432.5" font-family="Helvetica,sans-Serif" font-size="10.00">test/testNeighborAp</text>
<text text-anchor="middle" x="3498" y="-421.5" font-family="Helvetica,sans-Serif" font-size="10.00">/test_neighborAp.c</text>
</a>
</g>
</g>
<!-- Node2 -->
<g id="node2" class="node">
<title>Node2</title>
<g id="a_node2"><a xlink:title=" ">
<polygon fill="white" stroke="#bfbfbf" points="2952,-358.5 2952,-377.5 3008,-377.5 3008,-358.5 2952,-358.5"/>
<text text-anchor="middle" x="2980" y="-365.5" font-family="Helvetica,sans-Serif" font-size="10.00">stdarg.h</text>
</a>
</g>
</g>
<!-- Node1&#45;&gt;Node2 -->
<g id="edge1" class="edge">
<title>Node1&#45;&gt;Node2</title>
<path fill="none" stroke="midnightblue" d="M3440.64,-424.97C3351.98,-418.98 3176.21,-404.9 3018.11,-377.98"/>
<polygon fill="midnightblue" stroke="midnightblue" points="3018.65,-374.52 3008.2,-376.27 3017.46,-381.42 3018.65,-374.52"/>
</g>
<!-- Node3 -->
<g id="node3" class="node">
<title>Node3</title>
<g id="a_node3"><a xlink:title=" ">
<polygon fill="white" stroke="#bfbfbf" points="3026,-358.5 3026,-377.5 3098,-377.5 3098,-358.5 3026,-358.5"/>
<text text-anchor="middle" x="3062" y="-365.5" font-family="Helvetica,sans-Serif" font-size="10.00">sys/types.h</text>
</a>
</g>
</g>
<!-- Node1&#45;&gt;Node3 -->
<g id="edge2" class="edge">
<title>Node1&#45;&gt;Node3</title>
<path fill="none" stroke="midnightblue" d="M3440.84,-422.37C3366.52,-414.12 3232.5,-398.29 3108.37,-378.13"/>
<polygon fill="midnightblue" stroke="midnightblue" points="3108.74,-374.65 3098.31,-376.49 3107.61,-381.56 3108.74,-374.65"/>
</g>
<!-- Node4 -->
<g id="node4" class="node">
<title>Node4</title>
<g id="a_node4"><a xlink:title=" ">
<polygon fill="white" stroke="#bfbfbf" points="3116.5,-358.5 3116.5,-377.5 3175.5,-377.5 3175.5,-358.5 3116.5,-358.5"/>
<text text-anchor="middle" x="3146" y="-365.5" font-family="Helvetica,sans-Serif" font-size="10.00">setjmp.h</text>
</a>
</g>
</g>
<!-- Node1&#45;&gt;Node4 -->
<g id="edge3" class="edge">
<title>Node1&#45;&gt;Node4</title>
<path fill="none" stroke="midnightblue" d="M3440.76,-420.58C3379.81,-411.85 3280.31,-396.79 3185.84,-378.26"/>
<polygon fill="midnightblue" stroke="midnightblue" points="3186.31,-374.79 3175.83,-376.28 3184.96,-381.66 3186.31,-374.79"/>
</g>
<!-- Node5 -->
<g id="node5" class="node">
<title>Node5</title>
<g id="a_node5"><a xlink:title=" ">
<polygon fill="white" stroke="#bfbfbf" points="3193.5,-358.5 3193.5,-377.5 3256.5,-377.5 3256.5,-358.5 3193.5,-358.5"/>
<text text-anchor="middle" x="3225" y="-365.5" font-family="Helvetica,sans-Serif" font-size="10.00">cmocka.h</text>
</a>
</g>
</g>
<!-- Node1&#45;&gt;Node5 -->
<g id="edge4" class="edge">
<title>Node1&#45;&gt;Node5</title>
<path fill="none" stroke="midnightblue" d="M3440.77,-416.03C3388.73,-404.69 3313.17,-388.22 3266.66,-378.08"/>
<polygon fill="midnightblue" stroke="midnightblue" points="3267.14,-374.6 3256.63,-375.89 3265.65,-381.44 3267.14,-374.6"/>
</g>
<!-- Node6 -->
<g id="node6" class="node">
<title>Node6</title>
<g id="a_node6"><a xlink:href="wld_8h.html" target="_top" xlink:title=" ">
<polygon fill="white" stroke="red" points="2799.5,-174 2799.5,-193 2842.5,-193 2842.5,-174 2799.5,-174"/>
<text text-anchor="middle" x="2821" y="-181" font-family="Helvetica,sans-Serif" font-size="10.00">wld.h</text>
</a>
</g>
</g>
<!-- Node1&#45;&gt;Node6 -->
<g id="edge5" class="edge">
<title>Node1&#45;&gt;Node6</title>
<path fill="none" stroke="midnightblue" d="M3472.61,-414.32C3408.15,-378.91 3232.14,-285.8 3075,-235 2997.08,-209.81 2901.46,-194.9 2852.77,-188.4"/>
<polygon fill="midnightblue" stroke="midnightblue" points="2853.21,-184.92 2842.84,-187.1 2852.3,-191.86 2853.21,-184.92"/>
</g>
<!-- Node9 -->
<g id="node9" class="node">
<title>Node9</title>
<g id="a_node9"><a xlink:title=" ">
<polygon fill="white" stroke="#bfbfbf" points="4414,-112.5 4414,-131.5 4524,-131.5 4524,-112.5 4414,-112.5"/>
<text text-anchor="middle" x="4469" y="-119.5" font-family="Helvetica,sans-Serif" font-size="10.00">swl/swl_common.h</text>
</a>
</g>
</g>
<!-- Node1&#45;&gt;Node9 -->
<g id="edge82" class="edge">
<title>Node1&#45;&gt;Node9</title>
<path fill="none" stroke="midnightblue" d="M3555.26,-428.99C3705.23,-428.73 4098,-417.55 4098,-307.5 4098,-307.5 4098,-307.5 4098,-244 4098,-180.42 4297.43,-145.03 4403.86,-130.67"/>
<polygon fill="midnightblue" stroke="midnightblue" points="4404.4,-134.12 4413.86,-129.34 4403.49,-127.19 4404.4,-134.12"/>
</g>
<!-- Node79 -->
<g id="node43" class="node">
<title>Node79</title>
<g id="a_node43"><a xlink:href="wld__accesspoint_8h.html" target="_top" xlink:title=" ">
<polygon fill="white" stroke="red" points="3473,-235.5 3473,-254.5 3579,-254.5 3579,-235.5 3473,-235.5"/>
<text text-anchor="middle" x="3526" y="-242.5" font-family="Helvetica,sans-Serif" font-size="10.00">wld_accesspoint.h</text>
</a>
</g>
</g>
<!-- Node1&#45;&gt;Node79 -->
<g id="edge50" class="edge">
<title>Node1&#45;&gt;Node79</title>
<path fill="none" stroke="midnightblue" d="M3500.15,-414.48C3505.12,-382.1 3517.4,-302.04 3523.06,-265.16"/>
<polygon fill="midnightblue" stroke="midnightblue" points="3526.59,-265.23 3524.65,-254.82 3519.67,-264.17 3526.59,-265.23"/>
</g>
<!-- Node81 -->
<g id="node44" class="node">
<title>Node81</title>
<g id="a_node44"><a xlink:href="wld__util_8h.html" target="_top" xlink:title=" ">
<polygon fill="white" stroke="black" points="3002,-235.5 3002,-254.5 3066,-254.5 3066,-235.5 3002,-235.5"/>
<text text-anchor="middle" x="3034" y="-242.5" font-family="Helvetica,sans-Serif" font-size="10.00">wld_util.h</text>
</a>
</g>
</g>
<!-- Node1&#45;&gt;Node81 -->
<g id="edge52" class="edge">
<title>Node1&#45;&gt;Node81</title>
<path fill="none" stroke="midnightblue" d="M3440.9,-416.18C3402.95,-407.28 3352.32,-394.03 3309,-378 3296.28,-373.29 3127.71,-291.54 3060.95,-259.11"/>
<polygon fill="midnightblue" stroke="midnightblue" points="3062.4,-255.92 3051.87,-254.69 3059.34,-262.21 3062.4,-255.92"/>
</g>
<!-- Node82 -->
<g id="node45" class="node">
<title>Node82</title>
<g id="a_node45"><a xlink:title=" ">
<polygon fill="white" stroke="#bfbfbf" points="4126.5,-358.5 4126.5,-377.5 4287.5,-377.5 4287.5,-358.5 4126.5,-358.5"/>
<text text-anchor="middle" x="4207" y="-365.5" font-family="Helvetica,sans-Serif" font-size="10.00">test&#45;toolbox/ttb_mockTimer.h</text>
</a>
</g>
</g>
<!-- Node1&#45;&gt;Node82 -->
<g id="edge54" class="edge">
<title>Node1&#45;&gt;Node82</title>
<path fill="none" stroke="midnightblue" d="M3555.16,-424.04C3663.71,-415.51 3907.18,-396.12 4112,-378 4113.47,-377.87 4114.95,-377.74 4116.44,-377.6"/>
<polygon fill="midnightblue" stroke="midnightblue" points="4116.77,-381.09 4126.41,-376.7 4116.14,-374.12 4116.77,-381.09"/>
</g>
<!-- Node83 -->
<g id="node46" class="node">
<title>Node83</title>
<g id="a_node46"><a xlink:href="wld__th__mockVendor_8h.html" target="_top" xlink:title=" ">
<polygon fill="white" stroke="red" points="3351,-291.5 3351,-321.5 3463,-321.5 3463,-291.5 3351,-291.5"/>
<text text-anchor="start" x="3359" y="-309.5" font-family="Helvetica,sans-Serif" font-size="10.00">../testHelper/wld_th</text>
<text text-anchor="middle" x="3407" y="-298.5" font-family="Helvetica,sans-Serif" font-size="10.00">_mockVendor.h</text>
</a>
</g>
</g>
<!-- Node1&#45;&gt;Node83 -->
<g id="edge55" class="edge">
<title>Node1&#45;&gt;Node83</title>
<path fill="none" stroke="midnightblue" d="M3487.2,-414.14C3471.54,-393.31 3442.36,-354.51 3423.85,-329.9"/>
<polygon fill="midnightblue" stroke="midnightblue" points="3426.59,-327.73 3417.78,-321.84 3421,-331.93 3426.59,-327.73"/>
</g>
<!-- Node85 -->
<g id="node47" class="node">
<title>Node85</title>
<g id="a_node47"><a xlink:href="wld__th__radio_8h.html" target="_top" xlink:title=" ">
<polygon fill="white" stroke="red" points="3863,-168.5 3863,-198.5 3975,-198.5 3975,-168.5 3863,-168.5"/>
<text text-anchor="start" x="3871" y="-186.5" font-family="Helvetica,sans-Serif" font-size="10.00">../testHelper/wld_th</text>
<text text-anchor="middle" x="3919" y="-175.5" font-family="Helvetica,sans-Serif" font-size="10.00">_radio.h</text>
</a>
</g>
</g>
<!-- Node1&#45;&gt;Node85 -->
<g id="edge57" class="edge">
<title>Node1&#45;&gt;Node85</title>
<path fill="none" stroke="midnightblue" d="M3555.22,-426.81C3609.17,-423.07 3690.8,-411.71 3753,-378 3827.55,-337.6 3883.49,-249.3 3906.92,-207.42"/>
<polygon fill="midnightblue" stroke="midnightblue" points="3910.06,-208.97 3911.79,-198.52 3903.92,-205.61 3910.06,-208.97"/>
</g>
<!-- Node92 -->
<g id="node48" class="node">
<title>Node92</title>
<g id="a_node48"><a xlink:href="wld__th__vap_8h.html" target="_top" xlink:title=" ">
<polygon fill="white" stroke="red" points="3627,-291.5 3627,-321.5 3739,-321.5 3739,-291.5 3627,-291.5"/>
<text text-anchor="start" x="3635" y="-309.5" font-family="Helvetica,sans-Serif" font-size="10.00">../testHelper/wld_th</text>
<text text-anchor="middle" x="3683" y="-298.5" font-family="Helvetica,sans-Serif" font-size="10.00">_vap.h</text>
</a>
</g>
</g>
<!-- Node1&#45;&gt;Node92 -->
<g id="edge65" class="edge">
<title>Node1&#45;&gt;Node92</title>
<path fill="none" stroke="midnightblue" d="M3515.72,-414.28C3534.45,-399.52 3565.08,-376.09 3593,-358 3610.25,-346.82 3630.12,-335.52 3646.8,-326.45"/>
<polygon fill="midnightblue" stroke="midnightblue" points="3648.55,-329.48 3655.69,-321.65 3645.23,-323.32 3648.55,-329.48"/>
</g>
<!-- Node93 -->
<g id="node49" class="node">
<title>Node93</title>
<g id="a_node49"><a xlink:href="wld__th__dm_8h.html" target="_top" xlink:title=" ">
<polygon fill="white" stroke="red" points="3602,-358.5 3602,-377.5 3744,-377.5 3744,-358.5 3602,-358.5"/>
<text text-anchor="middle" x="3673" y="-365.5" font-family="Helvetica,sans-Serif" font-size="10.00">../testHelper/wld_th_dm.h</text>
</a>
</g>
</g>
<!-- Node1&#45;&gt;Node93 -->
<g id="edge75" class="edge">
<title>Node1&#45;&gt;Node93</title>
<path fill="none" stroke="midnightblue" d="M3539.47,-414.4C3569.58,-404.16 3609.85,-390.47 3638.27,-380.81"/>
<polygon fill="midnightblue" stroke="midnightblue" points="3639.45,-384.1 3647.79,-377.57 3637.2,-377.48 3639.45,-384.1"/>
</g>
<!-- Node96 -->
<g id="node50" class="node">
<title>Node96</title>
<g id="a_node50"><a xlink:title=" ">
<polygon fill="white" stroke="#bfbfbf" points="4305.5,-358.5 4305.5,-377.5 4402.5,-377.5 4402.5,-358.5 4305.5,-358.5"/>
<text text-anchor="middle" x="4354" y="-365.5" font-family="Helvetica,sans-Serif" font-size="10.00">swl/ttb/swl_ttb.h</text>
</a>
</g>
</g>
<!-- Node1&#45;&gt;Node96 -->
<g id="edge81" class="edge">
<title>Node1&#45;&gt;Node96</title>
<path fill="none" stroke="midnightblue" d="M3555.32,-426.72C3685.24,-422.28 4012.22,-408.87 4295.18,-378.11"/>
<polygon fill="midnightblue" stroke="midnightblue" points="4295.66,-381.58 4305.22,-377.01 4294.9,-374.62 4295.66,-381.58"/>
</g>
<!-- Node7 -->
<g id="node7" class="node">
<title>Node7</title>
<g id="a_node7"><a xlink:title=" ">
<polygon fill="white" stroke="#bfbfbf" points="0,-56.5 0,-75.5 62,-75.5 62,-56.5 0,-56.5"/>
<text text-anchor="middle" x="31" y="-63.5" font-family="Helvetica,sans-Serif" font-size="10.00">stdbool.h</text>
</a>
</g>
</g>
<!-- Node6&#45;&gt;Node7 -->
<g id="edge6" class="edge">
<title>Node6&#45;&gt;Node7</title>
<path fill="none" stroke="midnightblue" d="M2799.36,-182.53C2542.36,-182.84 81.49,-184.43 30,-132 18.28,-120.06 20.47,-100.16 24.38,-85.52"/>
<polygon fill="midnightblue" stroke="midnightblue" points="27.85,-86.15 27.52,-75.56 21.18,-84.05 27.85,-86.15"/>
</g>
<!-- Node8 -->
<g id="node8" class="node">
<title>Node8</title>
<g id="a_node8"><a xlink:title=" ">
<polygon fill="white" stroke="#bfbfbf" points="3515.5,-0.5 3515.5,-19.5 3568.5,-19.5 3568.5,-0.5 3515.5,-0.5"/>
<text text-anchor="middle" x="3542" y="-7.5" font-family="Helvetica,sans-Serif" font-size="10.00">stdint.h</text>
</a>
</g>
</g>
<!-- Node6&#45;&gt;Node8 -->
<g id="edge7" class="edge">
<title>Node6&#45;&gt;Node8</title>
<path fill="none" stroke="midnightblue" d="M2842.87,-182.72C2959.53,-183.69 3505.21,-185.34 3555,-132 3581.09,-104.05 3563.8,-55.15 3551.42,-28.88"/>
<polygon fill="midnightblue" stroke="midnightblue" points="3554.45,-27.12 3546.86,-19.72 3548.18,-30.24 3554.45,-27.12"/>
</g>
<!-- Node6&#45;&gt;Node9 -->
<g id="edge8" class="edge">
<title>Node6&#45;&gt;Node9</title>
<path fill="none" stroke="midnightblue" d="M2842.82,-182.24C2980.68,-180.52 3745.11,-169.56 4367,-132 4378.92,-131.28 4391.61,-130.32 4403.85,-129.29"/>
<polygon fill="midnightblue" stroke="midnightblue" points="4404.33,-132.76 4413.99,-128.42 4403.72,-125.79 4404.33,-132.76"/>
</g>
<!-- Node10 -->
<g id="node10" class="node">
<title>Node10</title>
<g id="a_node10"><a xlink:title=" ">
<polygon fill="white" stroke="#bfbfbf" points="347,-112.5 347,-131.5 483,-131.5 483,-112.5 347,-112.5"/>
<text text-anchor="middle" x="415" y="-119.5" font-family="Helvetica,sans-Serif" font-size="10.00">swla/swla_commonLib.h</text>
</a>
</g>
</g>
<!-- Node6&#45;&gt;Node10 -->
<g id="edge9" class="edge">
<title>Node6&#45;&gt;Node10</title>
<path fill="none" stroke="midnightblue" d="M2799.24,-182.31C2594.15,-180.52 997.21,-165.61 493.64,-132.03"/>
<polygon fill="midnightblue" stroke="midnightblue" points="493.62,-128.52 483.4,-131.34 493.14,-135.51 493.62,-128.52"/>
</g>
<!-- Node11 -->
<g id="node11" class="node">
<title>Node11</title>
<g id="a_node11"><a xlink:title=" ">
<polygon fill="white" stroke="#bfbfbf" points="501,-112.5 501,-131.5 589,-131.5 589,-112.5 501,-112.5"/>
<text text-anchor="middle" x="545" y="-119.5" font-family="Helvetica,sans-Serif" font-size="10.00">swl/swl_uuid.h</text>
</a>
</g>
</g>
<!-- Node6&#45;&gt;Node11 -->
<g id="edge10" class="edge">
<title>Node6&#45;&gt;Node11</title>
<path fill="none" stroke="midnightblue" d="M2799.28,-182.44C2599.58,-181.87 1079.2,-176.08 599.29,-131.95"/>
<polygon fill="midnightblue" stroke="midnightblue" points="599.47,-128.45 589.18,-131 598.81,-135.42 599.47,-128.45"/>
</g>
<!-- Node12 -->
<g id="node12" class="node">
<title>Node12</title>
<g id="a_node12"><a xlink:title=" ">
<polygon fill="white" stroke="#bfbfbf" points="607,-112.5 607,-131.5 759,-131.5 759,-112.5 607,-112.5"/>
<text text-anchor="middle" x="683" y="-119.5" font-family="Helvetica,sans-Serif" font-size="10.00">swla/swla_radioStandards.h</text>
</a>
</g>
</g>
<!-- Node6&#45;&gt;Node12 -->
<g id="edge11" class="edge">
<title>Node6&#45;&gt;Node12</title>
<path fill="none" stroke="midnightblue" d="M2799.48,-182.63C2639.1,-183.48 1613.72,-186.52 769.66,-132.05"/>
<polygon fill="midnightblue" stroke="midnightblue" points="769.64,-128.54 759.43,-131.39 769.18,-135.53 769.64,-128.54"/>
</g>
<!-- Node13 -->
<g id="node13" class="node">
<title>Node13</title>
<g id="a_node13"><a xlink:title=" ">
<polygon fill="white" stroke="#bfbfbf" points="136.5,-0.5 136.5,-19.5 237.5,-19.5 237.5,-0.5 136.5,-0.5"/>
<text text-anchor="middle" x="187" y="-7.5" font-family="Helvetica,sans-Serif" font-size="10.00">swla/swla_time.h</text>
</a>
</g>
</g>
<!-- Node6&#45;&gt;Node13 -->
<g id="edge12" class="edge">
<title>Node6&#45;&gt;Node13</title>
<path fill="none" stroke="midnightblue" d="M2799.15,-182.41C2552.11,-181.34 291.93,-170.49 236,-132 202.03,-108.62 191.6,-57.36 188.4,-29.65"/>
<polygon fill="midnightblue" stroke="midnightblue" points="191.88,-29.3 187.45,-19.68 184.92,-29.97 191.88,-29.3"/>
</g>
<!-- Node14 -->
<g id="node14" class="node">
<title>Node14</title>
<g id="a_node14"><a xlink:title=" ">
<polygon fill="white" stroke="#bfbfbf" points="777.5,-112.5 777.5,-131.5 906.5,-131.5 906.5,-112.5 777.5,-112.5"/>
<text text-anchor="middle" x="842" y="-119.5" font-family="Helvetica,sans-Serif" font-size="10.00">swla/swla_time_spec.h</text>
</a>
</g>
</g>
<!-- Node6&#45;&gt;Node14 -->
<g id="edge13" class="edge">
<title>Node6&#45;&gt;Node14</title>
<path fill="none" stroke="midnightblue" d="M2799.32,-182.7C2645.08,-183.97 1697.87,-189.13 916.59,-131.95"/>
<polygon fill="midnightblue" stroke="midnightblue" points="916.77,-128.46 906.54,-131.21 916.25,-135.44 916.77,-128.46"/>
</g>
<!-- Node15 -->
<g id="node15" class="node">
<title>Node15</title>
<g id="a_node15"><a xlink:title=" ">
<polygon fill="white" stroke="#bfbfbf" points="925,-112.5 925,-131.5 1019,-131.5 1019,-112.5 925,-112.5"/>
<text text-anchor="middle" x="972" y="-119.5" font-family="Helvetica,sans-Serif" font-size="10.00">swla/swla_oui.h</text>
</a>
</g>
</g>
<!-- Node6&#45;&gt;Node15 -->
<g id="edge14" class="edge">
<title>Node6&#45;&gt;Node15</title>
<path fill="none" stroke="midnightblue" d="M2799.47,-182.28C2623.41,-180.46 1417.26,-166.83 1029.42,-131.98"/>
<polygon fill="midnightblue" stroke="midnightblue" points="1029.58,-128.48 1019.3,-131.05 1028.94,-135.45 1029.58,-128.48"/>
</g>
<!-- Node16 -->
<g id="node16" class="node">
<title>Node16</title>
<g id="a_node16"><a xlink:title=" ">
<polygon fill="white" stroke="#bfbfbf" points="1037,-112.5 1037,-131.5 1165,-131.5 1165,-112.5 1037,-112.5"/>
<text text-anchor="middle" x="1101" y="-119.5" font-family="Helvetica,sans-Serif" font-size="10.00">swla/swla_delayExec.h</text>
</a>
</g>
</g>
<!-- Node6&#45;&gt;Node16 -->
<g id="edge15" class="edge">
<title>Node6&#45;&gt;Node16</title>
<path fill="none" stroke="midnightblue" d="M2799.14,-182.59C2656.74,-183 1846.25,-182.99 1175.42,-132.03"/>
<polygon fill="midnightblue" stroke="midnightblue" points="1175.3,-128.51 1165.06,-131.24 1174.76,-135.49 1175.3,-128.51"/>
</g>
<!-- Node17 -->
<g id="node17" class="node">
<title>Node17</title>
<g id="a_node17"><a xlink:title=" ">
<polygon fill="white" stroke="#bfbfbf" points="1183.5,-112.5 1183.5,-131.5 1302.5,-131.5 1302.5,-112.5 1183.5,-112.5"/>
<text text-anchor="middle" x="1243" y="-119.5" font-family="Helvetica,sans-Serif" font-size="10.00">swla/swla_function.h</text>
</a>
</g>
</g>
<!-- Node6&#45;&gt;Node17 -->
<g id="edge16" class="edge">
<title>Node6&#45;&gt;Node17</title>
<path fill="none" stroke="midnightblue" d="M2799.23,-182.58C2664.01,-182.88 1925.17,-182.11 1313.03,-132.09"/>
<polygon fill="midnightblue" stroke="midnightblue" points="1312.92,-128.57 1302.67,-131.23 1312.35,-135.54 1312.92,-128.57"/>
</g>
<!-- Node18 -->
<g id="node18" class="node">
<title>Node18</title>
<g id="a_node18"><a xlink:title=" ">
<polygon fill="white" stroke="#bfbfbf" points="1320.5,-112.5 1320.5,-131.5 1461.5,-131.5 1461.5,-112.5 1320.5,-112.5"/>
<text text-anchor="middle" x="1391" y="-119.5" font-family="Helvetica,sans-Serif" font-size="10.00">swl/swl_usp_cmdStatus.h</text>
</a>
</g>
</g>
<!-- Node6&#45;&gt;Node18 -->
<g id="edge17" class="edge">
<title>Node6&#45;&gt;Node18</title>
<path fill="none" stroke="midnightblue" d="M2799.12,-182.29C2672.19,-180.97 2017.58,-172.41 1471.69,-131.99"/>
<polygon fill="midnightblue" stroke="midnightblue" points="1471.88,-128.49 1461.64,-131.24 1471.36,-135.47 1471.88,-128.49"/>
</g>
<!-- Node19 -->
<g id="node19" class="node">
<title>Node19</title>
<g id="a_node19"><a xlink:title=" ">
<polygon fill="white" stroke="#bfbfbf" points="1480,-112.5 1480,-131.5 1566,-131.5 1566,-112.5 1480,-112.5"/>
<text text-anchor="middle" x="1523" y="-119.5" font-family="Helvetica,sans-Serif" font-size="10.00">swl/swl_wps.h</text>
</a>
</g>
</g>
<!-- Node6&#45;&gt;Node19 -->
<g id="edge18" class="edge">
<title>Node6&#45;&gt;Node19</title>
<path fill="none" stroke="midnightblue" d="M2799.2,-182.68C2678.15,-183.46 2076.54,-184.47 1576.02,-131.95"/>
<polygon fill="midnightblue" stroke="midnightblue" points="1576.38,-128.47 1566.07,-130.9 1575.65,-135.43 1576.38,-128.47"/>
</g>
<!-- Node20 -->
<g id="node20" class="node">
<title>Node20</title>
<g id="a_node20"><a xlink:title=" ">
<polygon fill="white" stroke="#bfbfbf" points="1584,-112.5 1584,-131.5 1688,-131.5 1688,-112.5 1584,-112.5"/>
<text text-anchor="middle" x="1636" y="-119.5" font-family="Helvetica,sans-Serif" font-size="10.00">swl/swl_security.h</text>
</a>
</g>
</g>
<!-- Node6&#45;&gt;Node20 -->
<g id="edge19" class="edge">
<title>Node6&#45;&gt;Node20</title>
<path fill="none" stroke="midnightblue" d="M2799.14,-182.34C2685.22,-181.36 2148.06,-174.61 1698.47,-132.04"/>
<polygon fill="midnightblue" stroke="midnightblue" points="1698.49,-128.52 1688.2,-131.06 1697.82,-135.49 1698.49,-128.52"/>
</g>
<!-- Node21 -->
<g id="node21" class="node">
<title>Node21</title>
<g id="a_node21"><a xlink:title=" ">
<polygon fill="white" stroke="#bfbfbf" points="4274.5,-112.5 4274.5,-131.5 4357.5,-131.5 4357.5,-112.5 4274.5,-112.5"/>
<text text-anchor="middle" x="4316" y="-119.5" font-family="Helvetica,sans-Serif" font-size="10.00">amxc/amxc.h</text>
</a>
</g>
</g>
<!-- Node6&#45;&gt;Node21 -->
<g id="edge20" class="edge">
<title>Node6&#45;&gt;Node21</title>
<path fill="none" stroke="midnightblue" d="M2842.65,-182.17C2998.54,-179.73 3951.92,-163.71 4264.37,-132"/>
<polygon fill="midnightblue" stroke="midnightblue" points="4264.74,-135.48 4274.32,-130.96 4264.01,-128.52 4264.74,-135.48"/>
</g>
<!-- Node22 -->
<g id="node22" class="node">
<title>Node22</title>
<g id="a_node22"><a xlink:title=" ">
<polygon fill="white" stroke="#bfbfbf" points="3641,-112.5 3641,-131.5 3725,-131.5 3725,-112.5 3641,-112.5"/>
<text text-anchor="middle" x="3683" y="-119.5" font-family="Helvetica,sans-Serif" font-size="10.00">amxp/amxp.h</text>
</a>
</g>
</g>
<!-- Node6&#45;&gt;Node22 -->
<g id="edge21" class="edge">
<title>Node6&#45;&gt;Node22</title>
<path fill="none" stroke="midnightblue" d="M2842.7,-181.31C2933.73,-176.27 3293.66,-155.84 3589,-132 3602.54,-130.91 3617.17,-129.58 3630.76,-128.28"/>
<polygon fill="midnightblue" stroke="midnightblue" points="3631.29,-131.75 3640.91,-127.3 3630.62,-124.78 3631.29,-131.75"/>
</g>
<!-- Node23 -->
<g id="node23" class="node">
<title>Node23</title>
<g id="a_node23"><a xlink:title=" ">
<polygon fill="white" stroke="#bfbfbf" points="1706,-112.5 1706,-131.5 1846,-131.5 1846,-112.5 1706,-112.5"/>
<text text-anchor="middle" x="1776" y="-119.5" font-family="Helvetica,sans-Serif" font-size="10.00">amxd/amxd_parameter.h</text>
</a>
</g>
</g>
<!-- Node6&#45;&gt;Node23 -->
<g id="edge22" class="edge">
<title>Node6&#45;&gt;Node23</title>
<path fill="none" stroke="midnightblue" d="M2799.2,-181.85C2695.38,-178.68 2240.49,-163.6 1856.39,-132.06"/>
<polygon fill="midnightblue" stroke="midnightblue" points="1856.44,-128.56 1846.19,-131.22 1855.87,-135.53 1856.44,-128.56"/>
</g>
<!-- Node24 -->
<g id="node24" class="node">
<title>Node24</title>
<g id="a_node24"><a xlink:title=" ">
<polygon fill="white" stroke="#bfbfbf" points="1864.5,-112.5 1864.5,-131.5 1983.5,-131.5 1983.5,-112.5 1864.5,-112.5"/>
<text text-anchor="middle" x="1924" y="-119.5" font-family="Helvetica,sans-Serif" font-size="10.00">amxd/amxd_action.h</text>
</a>
</g>
</g>
<!-- Node6&#45;&gt;Node24 -->
<g id="edge23" class="edge">
<title>Node6&#45;&gt;Node24</title>
<path fill="none" stroke="midnightblue" d="M2799.18,-181.74C2704.54,-178.32 2320.06,-163.2 1993.8,-132.11"/>
<polygon fill="midnightblue" stroke="midnightblue" points="1993.97,-128.61 1983.68,-131.14 1993.3,-135.58 1993.97,-128.61"/>
</g>
<!-- Node25 -->
<g id="node25" class="node">
<title>Node25</title>
<g id="a_node25"><a xlink:title=" ">
<polygon fill="white" stroke="#bfbfbf" points="2001.5,-112.5 2001.5,-131.5 2176.5,-131.5 2176.5,-112.5 2001.5,-112.5"/>
<text text-anchor="middle" x="2089" y="-119.5" font-family="Helvetica,sans-Serif" font-size="10.00">amxd/amxd_object_parameter.h</text>
</a>
</g>
</g>
<!-- Node6&#45;&gt;Node25 -->
<g id="edge24" class="edge">
<title>Node6&#45;&gt;Node25</title>
<path fill="none" stroke="midnightblue" d="M2799.3,-180.89C2719.4,-174.94 2433.8,-153.45 2186.87,-132.15"/>
<polygon fill="midnightblue" stroke="midnightblue" points="2186.89,-128.64 2176.63,-131.27 2186.29,-135.62 2186.89,-128.64"/>
</g>
<!-- Node26 -->
<g id="node26" class="node">
<title>Node26</title>
<g id="a_node26"><a xlink:title=" ">
<polygon fill="white" stroke="#bfbfbf" points="3743,-112.5 3743,-131.5 3895,-131.5 3895,-112.5 3743,-112.5"/>
<text text-anchor="middle" x="3819" y="-119.5" font-family="Helvetica,sans-Serif" font-size="10.00">amxd/amxd_object_event.h</text>
</a>
</g>
</g>
<!-- Node6&#45;&gt;Node26 -->
<g id="edge25" class="edge">
<title>Node6&#45;&gt;Node26</title>
<path fill="none" stroke="midnightblue" d="M2842.59,-181.71C2942.53,-177.95 3370.32,-160.96 3732.41,-132.09"/>
<polygon fill="midnightblue" stroke="midnightblue" points="3732.87,-135.56 3742.56,-131.28 3732.31,-128.59 3732.87,-135.56"/>
</g>
<!-- Node27 -->
<g id="node27" class="node">
<title>Node27</title>
<g id="a_node27"><a xlink:title=" ">
<polygon fill="white" stroke="#bfbfbf" points="2194.5,-112.5 2194.5,-131.5 2323.5,-131.5 2323.5,-112.5 2194.5,-112.5"/>
<text text-anchor="middle" x="2259" y="-119.5" font-family="Helvetica,sans-Serif" font-size="10.00">amxd/amxd_function.h</text>
</a>
</g>
</g>
<!-- Node6&#45;&gt;Node27 -->
<g id="edge26" class="edge">
<title>Node6&#45;&gt;Node27</title>
<path fill="none" stroke="midnightblue" d="M2799.05,-180.39C2731.39,-173.85 2519.83,-153.16 2333.83,-132.19"/>
<polygon fill="midnightblue" stroke="midnightblue" points="2334.2,-128.71 2323.87,-131.07 2333.41,-135.67 2334.2,-128.71"/>
</g>
<!-- Node28 -->
<g id="node28" class="node">
<title>Node28</title>
<g id="a_node28"><a xlink:title=" ">
<polygon fill="white" stroke="#bfbfbf" points="2341.5,-112.5 2341.5,-131.5 2510.5,-131.5 2510.5,-112.5 2341.5,-112.5"/>
<text text-anchor="middle" x="2426" y="-119.5" font-family="Helvetica,sans-Serif" font-size="10.00">amxd/amxd_object_hierarchy.h</text>
</a>
</g>
</g>
<!-- Node6&#45;&gt;Node28 -->
<g id="edge27" class="edge">
<title>Node6&#45;&gt;Node28</title>
<path fill="none" stroke="midnightblue" d="M2799.48,-179.26C2742.07,-170.61 2583.43,-146.71 2492.44,-133.01"/>
<polygon fill="midnightblue" stroke="midnightblue" points="2492.91,-129.54 2482.5,-131.51 2491.87,-136.46 2492.91,-129.54"/>
</g>
<!-- Node29 -->
<g id="node29" class="node">
<title>Node29</title>
<g id="a_node29"><a xlink:title=" ">
<polygon fill="white" stroke="#bfbfbf" points="3913.5,-112.5 3913.5,-131.5 4032.5,-131.5 4032.5,-112.5 3913.5,-112.5"/>
<text text-anchor="middle" x="3973" y="-119.5" font-family="Helvetica,sans-Serif" font-size="10.00">amxd/amxd_object.h</text>
</a>
</g>
</g>
<!-- Node6&#45;&gt;Node29 -->
<g id="edge28" class="edge">
<title>Node6&#45;&gt;Node29</title>
<path fill="none" stroke="midnightblue" d="M2842.79,-182.16C2954.02,-180.27 3469.77,-169.82 3902.98,-132.01"/>
<polygon fill="midnightblue" stroke="midnightblue" points="3903.54,-135.47 3913.19,-131.11 3902.93,-128.5 3903.54,-135.47"/>
</g>
<!-- Node30 -->
<g id="node30" class="node">
<title>Node30</title>
<g id="a_node30"><a xlink:title=" ">
<polygon fill="white" stroke="#bfbfbf" points="4050.5,-112.5 4050.5,-131.5 4155.5,-131.5 4155.5,-112.5 4050.5,-112.5"/>
<text text-anchor="middle" x="4103" y="-119.5" font-family="Helvetica,sans-Serif" font-size="10.00">amxd/amxd_dm.h</text>
</a>
</g>
</g>
<!-- Node6&#45;&gt;Node30 -->
<g id="edge29" class="edge">
<title>Node6&#45;&gt;Node30</title>
<path fill="none" stroke="midnightblue" d="M2842.74,-182.45C2962.12,-182.02 3550.18,-177.62 4040.36,-132.06"/>
<polygon fill="midnightblue" stroke="midnightblue" points="4040.84,-135.53 4050.47,-131.11 4040.19,-128.56 4040.84,-135.53"/>
</g>
<!-- Node31 -->
<g id="node31" class="node">
<title>Node31</title>
<g id="a_node31"><a xlink:title=" ">
<polygon fill="white" stroke="#bfbfbf" points="2529,-112.5 2529,-131.5 2673,-131.5 2673,-112.5 2529,-112.5"/>
<text text-anchor="middle" x="2601" y="-119.5" font-family="Helvetica,sans-Serif" font-size="10.00">amxd/amxd_transaction.h</text>
</a>
</g>
</g>
<!-- Node6&#45;&gt;Node31 -->
<g id="edge30" class="edge">
<title>Node6&#45;&gt;Node31</title>
<path fill="none" stroke="midnightblue" d="M2799.1,-176.58C2762.65,-166.72 2688.95,-146.79 2642.44,-134.21"/>
<polygon fill="midnightblue" stroke="midnightblue" points="2643.23,-130.8 2632.67,-131.56 2641.41,-137.55 2643.23,-130.8"/>
</g>
<!-- Node32 -->
<g id="node32" class="node">
<title>Node32</title>
<g id="a_node32"><a xlink:title=" ">
<polygon fill="white" stroke="#bfbfbf" points="2691,-112.5 2691,-131.5 2807,-131.5 2807,-112.5 2691,-112.5"/>
<text text-anchor="middle" x="2749" y="-119.5" font-family="Helvetica,sans-Serif" font-size="10.00">amxb/amxb_types.h</text>
</a>
</g>
</g>
<!-- Node6&#45;&gt;Node32 -->
<g id="edge31" class="edge">
<title>Node6&#45;&gt;Node32</title>
<path fill="none" stroke="midnightblue" d="M2810.68,-173.98C2799.35,-164.61 2780.93,-149.38 2767.16,-138.01"/>
<polygon fill="midnightblue" stroke="midnightblue" points="2769.23,-135.18 2759.3,-131.51 2764.78,-140.58 2769.23,-135.18"/>
</g>
<!-- Node33 -->
<g id="node33" class="node">
<title>Node33</title>
<g id="a_node33"><a xlink:title=" ">
<polygon fill="white" stroke="#bfbfbf" points="2825,-112.5 2825,-131.5 2961,-131.5 2961,-112.5 2825,-112.5"/>
<text text-anchor="middle" x="2893" y="-119.5" font-family="Helvetica,sans-Serif" font-size="10.00">amxb/amxb_operators.h</text>
</a>
</g>
</g>
<!-- Node6&#45;&gt;Node33 -->
<g id="edge32" class="edge">
<title>Node6&#45;&gt;Node33</title>
<path fill="none" stroke="midnightblue" d="M2831.32,-173.98C2842.65,-164.61 2861.07,-149.38 2874.84,-138.01"/>
<polygon fill="midnightblue" stroke="midnightblue" points="2877.22,-140.58 2882.7,-131.51 2872.77,-135.18 2877.22,-140.58"/>
</g>
<!-- Node34 -->
<g id="node34" class="node">
<title>Node34</title>
<g id="a_node34"><a xlink:title=" ">
<polygon fill="white" stroke="#bfbfbf" points="2979,-112.5 2979,-131.5 3091,-131.5 3091,-112.5 2979,-112.5"/>
<text text-anchor="middle" x="3035" y="-119.5" font-family="Helvetica,sans-Serif" font-size="10.00">amxb/amxb_error.h</text>
</a>
</g>
</g>
<!-- Node6&#45;&gt;Node34 -->
<g id="edge33" class="edge">
<title>Node6&#45;&gt;Node34</title>
<path fill="none" stroke="midnightblue" d="M2842.7,-176.47C2878.26,-166.58 2949.5,-146.77 2994.58,-134.24"/>
<polygon fill="midnightblue" stroke="midnightblue" points="2995.63,-137.58 3004.33,-131.53 2993.76,-130.83 2995.63,-137.58"/>
</g>
<!-- Node35 -->
<g id="node35" class="node">
<title>Node35</title>
<g id="a_node35"><a xlink:title=" ">
<polygon fill="white" stroke="#bfbfbf" points="4173.5,-112.5 4173.5,-131.5 4256.5,-131.5 4256.5,-112.5 4173.5,-112.5"/>
<text text-anchor="middle" x="4215" y="-119.5" font-family="Helvetica,sans-Serif" font-size="10.00">amxo/amxo.h</text>
</a>
</g>
</g>
<!-- Node6&#45;&gt;Node35 -->
<g id="edge34" class="edge">
<title>Node6&#45;&gt;Node35</title>
<path fill="none" stroke="midnightblue" d="M2842.57,-182.11C2991.7,-179.32 3872.12,-161.85 4163.22,-132.02"/>
<polygon fill="midnightblue" stroke="midnightblue" points="4163.74,-135.48 4173.32,-130.95 4163.01,-128.52 4163.74,-135.48"/>
</g>
<!-- Node36 -->
<g id="node36" class="node">
<title>Node36</title>
<g id="a_node36"><a xlink:title=" ">
<polygon fill="white" stroke="#bfbfbf" points="3109.5,-112.5 3109.5,-131.5 3224.5,-131.5 3224.5,-112.5 3109.5,-112.5"/>
<text text-anchor="middle" x="3167" y="-119.5" font-family="Helvetica,sans-Serif" font-size="10.00">amxo/amxo_types.h</text>
</a>
</g>
</g>
<!-- Node6&#45;&gt;Node36 -->
<g id="edge35" class="edge">
<title>Node6&#45;&gt;Node36</title>
<path fill="none" stroke="midnightblue" d="M2842.64,-178.78C2894.75,-169.82 3028.64,-146.79 3107.15,-133.29"/>
<polygon fill="midnightblue" stroke="midnightblue" points="3108.12,-136.68 3117.38,-131.53 3106.93,-129.78 3108.12,-136.68"/>
</g>
<!-- Node37 -->
<g id="node37" class="node">
<title>Node37</title>
<g id="a_node37"><a xlink:href="wld__types_8h.html" target="_top" xlink:title=" ">
<polygon fill="white" stroke="red" points="3471.5,-56.5 3471.5,-75.5 3546.5,-75.5 3546.5,-56.5 3471.5,-56.5"/>
<text text-anchor="middle" x="3509" y="-63.5" font-family="Helvetica,sans-Serif" font-size="10.00">wld_types.h</text>
</a>
</g>
</g>
<!-- Node6&#45;&gt;Node37 -->
<g id="edge36" class="edge">
<title>Node6&#45;&gt;Node37</title>
<path fill="none" stroke="midnightblue" d="M2799.15,-182.5C2552.03,-182.41 291.39,-180.32 244,-132 237.78,-125.65 237.76,-118.33 244,-112 273.56,-82.03 3060.32,-68.93 3461.18,-67.2"/>
<polygon fill="midnightblue" stroke="midnightblue" points="3461.3,-70.7 3471.28,-67.16 3461.27,-63.7 3461.3,-70.7"/>
</g>
<!-- Node40 -->
<g id="node38" class="node">
<title>Node40</title>
<g id="a_node38"><a xlink:href="wld__channel__types_8h.html" target="_top" xlink:title=" ">
<polygon fill="white" stroke="red" points="39.5,-112.5 39.5,-131.5 158.5,-131.5 158.5,-112.5 39.5,-112.5"/>
<text text-anchor="middle" x="99" y="-119.5" font-family="Helvetica,sans-Serif" font-size="10.00">wld_channel_types.h</text>
</a>
</g>
</g>
<!-- Node6&#45;&gt;Node40 -->
<g id="edge39" class="edge">
<title>Node6&#45;&gt;Node40</title>
<path fill="none" stroke="midnightblue" d="M2799.46,-182.39C2578.77,-181.27 724.85,-170.72 173,-132 171.69,-131.91 170.37,-131.81 169.04,-131.71"/>
<polygon fill="midnightblue" stroke="midnightblue" points="168.99,-128.19 158.72,-130.79 168.38,-135.16 168.99,-128.19"/>
</g>
<!-- Node42 -->
<g id="node39" class="node">
<title>Node42</title>
<g id="a_node39"><a xlink:href="wld__bgdfs_8h.html" target="_top" xlink:title=" ">
<polygon fill="white" stroke="black" points="253.5,-112.5 253.5,-131.5 328.5,-131.5 328.5,-112.5 253.5,-112.5"/>
<text text-anchor="middle" x="291" y="-119.5" font-family="Helvetica,sans-Serif" font-size="10.00">wld_bgdfs.h</text>
</a>
</g>
</g>
<!-- Node6&#45;&gt;Node42 -->
<g id="edge42" class="edge">
<title>Node6&#45;&gt;Node42</title>
<path fill="none" stroke="midnightblue" d="M2799.48,-182.57C2587.8,-183.14 874.78,-186.1 338.75,-131.83"/>
<polygon fill="midnightblue" stroke="midnightblue" points="338.93,-128.33 328.63,-130.78 338.21,-135.29 338.93,-128.33"/>
</g>
<!-- Node43 -->
<g id="node40" class="node">
<title>Node43</title>
<g id="a_node40"><a xlink:href="wld__rad__delayMgr_8h.html" target="_top" xlink:title=" ">
<polygon fill="white" stroke="black" points="3243,-112.5 3243,-131.5 3357,-131.5 3357,-112.5 3243,-112.5"/>
<text text-anchor="middle" x="3300" y="-119.5" font-family="Helvetica,sans-Serif" font-size="10.00">wld_rad_delayMgr.h</text>
</a>
</g>
</g>
<!-- Node6&#45;&gt;Node43 -->
<g id="edge44" class="edge">
<title>Node6&#45;&gt;Node43</title>
<path fill="none" stroke="midnightblue" d="M2842.6,-179.41C2903.14,-171.68 3078.19,-150.73 3224,-132 3226.84,-131.64 3229.74,-131.26 3232.68,-130.88"/>
<polygon fill="midnightblue" stroke="midnightblue" points="3233.32,-134.32 3242.78,-129.56 3232.41,-127.38 3233.32,-134.32"/>
</g>
<!-- Node44 -->
<g id="node41" class="node">
<title>Node44</title>
<g id="a_node41"><a xlink:href="wld__fsm_8h.html" target="_top" xlink:title=" ">
<polygon fill="white" stroke="black" points="3479.5,-112.5 3479.5,-131.5 3546.5,-131.5 3546.5,-112.5 3479.5,-112.5"/>
<text text-anchor="middle" x="3513" y="-119.5" font-family="Helvetica,sans-Serif" font-size="10.00">wld_fsm.h</text>
</a>
</g>
</g>
<!-- Node6&#45;&gt;Node44 -->
<g id="edge46" class="edge">
<title>Node6&#45;&gt;Node44</title>
<path fill="none" stroke="midnightblue" d="M2842.68,-181.83C2923.82,-179.09 3217.39,-167.3 3469.2,-131.92"/>
<polygon fill="midnightblue" stroke="midnightblue" points="3469.86,-135.36 3479.27,-130.49 3468.88,-128.43 3469.86,-135.36"/>
</g>
<!-- Node45 -->
<g id="node42" class="node">
<title>Node45</title>
<g id="a_node42"><a xlink:href="wld__sensing_8h.html" target="_top" xlink:title=" ">
<polygon fill="white" stroke="black" points="3375,-112.5 3375,-131.5 3461,-131.5 3461,-112.5 3375,-112.5"/>
<text text-anchor="middle" x="3418" y="-119.5" font-family="Helvetica,sans-Serif" font-size="10.00">wld_sensing.h</text>
</a>
</g>
</g>
<!-- Node6&#45;&gt;Node45 -->
<g id="edge48" class="edge">
<title>Node6&#45;&gt;Node45</title>
<path fill="none" stroke="midnightblue" d="M2842.69,-180.85C2915.74,-175.66 3157.77,-158.43 3357,-132 3359.5,-131.67 3362.07,-131.3 3364.67,-130.92"/>
<polygon fill="midnightblue" stroke="midnightblue" points="3365.45,-134.34 3374.79,-129.34 3364.37,-127.42 3365.45,-134.34"/>
</g>
<!-- Node37&#45;&gt;Node8 -->
<g id="edge37" class="edge">
<title>Node37&#45;&gt;Node8</title>
<path fill="none" stroke="midnightblue" d="M3514.45,-56.08C3519.01,-48.61 3525.67,-37.72 3531.29,-28.52"/>
<polygon fill="midnightblue" stroke="midnightblue" points="3534.42,-30.11 3536.65,-19.75 3528.45,-26.46 3534.42,-30.11"/>
</g>
<!-- Node37&#45;&gt;Node13 -->
<g id="edge38" class="edge">
<title>Node37&#45;&gt;Node13</title>
<path fill="none" stroke="midnightblue" d="M3471.41,-64.39C3136.53,-58.95 667.55,-18.81 247.63,-11.99"/>
<polygon fill="midnightblue" stroke="midnightblue" points="247.57,-8.48 237.52,-11.82 247.46,-15.48 247.57,-8.48"/>
</g>
<!-- Node40&#45;&gt;Node7 -->
<g id="edge40" class="edge">
<title>Node40&#45;&gt;Node7</title>
<path fill="none" stroke="midnightblue" d="M88.07,-112.32C77.83,-104.18 62.28,-91.84 50,-82.09"/>
<polygon fill="midnightblue" stroke="midnightblue" points="52.13,-79.31 42.12,-75.83 47.78,-84.79 52.13,-79.31"/>
</g>
<!-- Node40&#45;&gt;Node13 -->
<g id="edge41" class="edge">
<title>Node40&#45;&gt;Node13</title>
<path fill="none" stroke="midnightblue" d="M105.91,-112.37C120.49,-94.14 154.66,-51.43 173.66,-27.68"/>
<polygon fill="midnightblue" stroke="midnightblue" points="176.61,-29.59 180.13,-19.59 171.15,-25.21 176.61,-29.59"/>
</g>
<!-- Node42&#45;&gt;Node37 -->
<g id="edge43" class="edge">
<title>Node42&#45;&gt;Node37</title>
<path fill="none" stroke="midnightblue" d="M328.62,-113.19C331.79,-112.72 334.94,-112.31 338,-112 661.56,-78.98 3089.36,-68.58 3461.26,-67.17"/>
<polygon fill="midnightblue" stroke="midnightblue" points="3461.43,-70.67 3471.41,-67.13 3461.4,-63.67 3461.43,-70.67"/>
</g>
<!-- Node43&#45;&gt;Node6 -->
<g id="edge45" class="edge">
<title>Node43&#45;&gt;Node6</title>
<path fill="none" stroke="midnightblue" d="M3245.52,-131.55C3244.34,-131.7 3243.16,-131.85 3242,-132 3097.19,-150.6 2923.54,-171.39 2852.94,-179.25"/>
<polygon fill="midnightblue" stroke="midnightblue" points="2852.45,-175.78 2842.9,-180.36 2853.22,-182.74 2852.45,-175.78"/>
</g>
<!-- Node44&#45;&gt;Node37 -->
<g id="edge47" class="edge">
<title>Node44&#45;&gt;Node37</title>
<path fill="none" stroke="midnightblue" d="M3512.34,-112.08C3511.82,-105.01 3511.06,-94.86 3510.41,-85.99"/>
<polygon fill="midnightblue" stroke="midnightblue" points="3513.88,-85.47 3509.65,-75.75 3506.9,-85.98 3513.88,-85.47"/>
</g>
<!-- Node45&#45;&gt;Node6 -->
<g id="edge49" class="edge">
<title>Node45&#45;&gt;Node6</title>
<path fill="none" stroke="midnightblue" d="M3378.58,-131.51C3377.38,-131.68 3376.18,-131.84 3375,-132 3177.39,-158.21 2937.68,-175.38 2852.61,-180.72"/>
<polygon fill="midnightblue" stroke="midnightblue" points="2852.32,-177.23 2842.56,-181.34 2852.75,-184.22 2852.32,-177.23"/>
</g>
<!-- Node79&#45;&gt;Node6 -->
<g id="edge51" class="edge">
<title>Node79&#45;&gt;Node6</title>
<path fill="none" stroke="midnightblue" d="M3472.64,-236.57C3468.03,-236 3463.43,-235.47 3459,-235 3226.79,-210.23 2945.82,-192.09 2852.68,-186.39"/>
<polygon fill="midnightblue" stroke="midnightblue" points="2852.71,-182.89 2842.52,-185.78 2852.29,-189.88 2852.71,-182.89"/>
</g>
<!-- Node81&#45;&gt;Node6 -->
<g id="edge53" class="edge">
<title>Node81&#45;&gt;Node6</title>
<path fill="none" stroke="midnightblue" d="M3003.48,-235.48C2963.29,-224.25 2892.98,-204.61 2852.37,-193.26"/>
<polygon fill="midnightblue" stroke="midnightblue" points="2853.29,-189.89 2842.72,-190.57 2851.41,-196.63 2853.29,-189.89"/>
</g>
<!-- Node83&#45;&gt;Node6 -->
<g id="edge56" class="edge">
<title>Node83&#45;&gt;Node6</title>
<path fill="none" stroke="midnightblue" d="M3397.58,-291.23C3385.67,-274.54 3363.49,-247.58 3337,-235 3250.49,-193.93 2951.33,-186.24 2852.77,-184.82"/>
<polygon fill="midnightblue" stroke="midnightblue" points="2852.6,-181.32 2842.55,-184.69 2852.5,-188.32 2852.6,-181.32"/>
</g>
<!-- Node85&#45;&gt;Node21 -->
<g id="edge59" class="edge">
<title>Node85&#45;&gt;Node21</title>
<path fill="none" stroke="midnightblue" d="M3975.09,-170.49C3979.79,-169.61 3984.47,-168.76 3989,-168 4108.2,-147.94 4141.57,-150.83 4264.13,-132.23"/>
<polygon fill="midnightblue" stroke="midnightblue" points="4264.93,-135.64 4274.28,-130.67 4263.87,-128.72 4264.93,-135.64"/>
</g>
<!-- Node85&#45;&gt;Node22 -->
<g id="edge60" class="edge">
<title>Node85&#45;&gt;Node22</title>
<path fill="none" stroke="midnightblue" d="M3863.37,-168.47C3821.59,-157.94 3765.17,-143.72 3726.62,-134"/>
<polygon fill="midnightblue" stroke="midnightblue" points="3727.29,-130.56 3716.74,-131.51 3725.58,-137.34 3727.29,-130.56"/>
</g>
<!-- Node85&#45;&gt;Node26 -->
<g id="edge63" class="edge">
<title>Node85&#45;&gt;Node26</title>
<path fill="none" stroke="midnightblue" d="M3895.3,-168.4C3879.27,-158.86 3858.2,-146.32 3842.26,-136.84"/>
<polygon fill="midnightblue" stroke="midnightblue" points="3843.93,-133.76 3833.55,-131.66 3840.36,-139.78 3843.93,-133.76"/>
</g>
<!-- Node85&#45;&gt;Node29 -->
<g id="edge62" class="edge">
<title>Node85&#45;&gt;Node29</title>
<path fill="none" stroke="midnightblue" d="M3931.8,-168.4C3939.72,-159.66 3949.94,-148.41 3958.21,-139.3"/>
<polygon fill="midnightblue" stroke="midnightblue" points="3961.01,-141.42 3965.14,-131.66 3955.83,-136.71 3961.01,-141.42"/>
</g>
<!-- Node85&#45;&gt;Node30 -->
<g id="edge61" class="edge">
<title>Node85&#45;&gt;Node30</title>
<path fill="none" stroke="midnightblue" d="M3962.61,-168.4C3994.4,-158.12 4036.97,-144.35 4066.87,-134.68"/>
<polygon fill="midnightblue" stroke="midnightblue" points="4068.06,-137.98 4076.49,-131.57 4065.9,-131.32 4068.06,-137.98"/>
</g>
<!-- Node85&#45;&gt;Node35 -->
<g id="edge64" class="edge">
<title>Node85&#45;&gt;Node35</title>
<path fill="none" stroke="midnightblue" d="M3975.16,-170.83C3979.84,-169.87 3984.5,-168.91 3989,-168 4048.78,-155.86 4117.52,-142.22 4163.34,-133.17"/>
<polygon fill="midnightblue" stroke="midnightblue" points="4164.19,-136.57 4173.33,-131.2 4162.84,-129.7 4164.19,-136.57"/>
</g>
<!-- Node85&#45;&gt;Node37 -->
<g id="edge58" class="edge">
<title>Node85&#45;&gt;Node37</title>
<path fill="none" stroke="midnightblue" d="M3975.02,-174.68C3991.73,-172.42 4010.09,-170.03 4027,-168 4103.03,-158.87 4419.71,-167.55 4367,-112 4338.94,-82.43 3732.94,-70.54 3556.68,-67.71"/>
<polygon fill="midnightblue" stroke="midnightblue" points="3556.72,-64.21 3546.67,-67.55 3556.61,-71.21 3556.72,-64.21"/>
</g>
<!-- Node92&#45;&gt;Node6 -->
<g id="edge73" class="edge">
<title>Node92&#45;&gt;Node6</title>
<path fill="none" stroke="midnightblue" d="M3669.44,-291.35C3652.28,-274.5 3620.97,-247.11 3588,-235 3449.85,-184.25 2980.37,-183.46 2853.07,-184.22"/>
<polygon fill="midnightblue" stroke="midnightblue" points="2852.8,-180.72 2842.82,-184.29 2852.85,-187.72 2852.8,-180.72"/>
</g>
<!-- Node92&#45;&gt;Node21 -->
<g id="edge67" class="edge">
<title>Node92&#45;&gt;Node21</title>
<path fill="none" stroke="midnightblue" d="M3736.83,-291.48C3798.58,-274.27 3901.87,-242 3984,-199 4004.87,-188.07 4005.18,-176.89 4027,-168 4123.46,-128.68 4157.93,-148.24 4264.11,-132.21"/>
<polygon fill="midnightblue" stroke="midnightblue" points="4264.94,-135.62 4274.27,-130.6 4263.85,-128.71 4264.94,-135.62"/>
</g>
<!-- Node92&#45;&gt;Node22 -->
<g id="edge68" class="edge">
<title>Node92&#45;&gt;Node22</title>
<path fill="none" stroke="midnightblue" d="M3683,-291.48C3683,-259.1 3683,-179.04 3683,-142.16"/>
<polygon fill="midnightblue" stroke="midnightblue" points="3686.5,-141.82 3683,-131.82 3679.5,-141.82 3686.5,-141.82"/>
</g>
<!-- Node92&#45;&gt;Node26 -->
<g id="edge71" class="edge">
<title>Node92&#45;&gt;Node26</title>
<path fill="none" stroke="midnightblue" d="M3686.33,-291.5C3693.28,-264.79 3711.52,-205.86 3745,-168 3757.01,-154.42 3774.12,-143.65 3788.87,-136.05"/>
<polygon fill="midnightblue" stroke="midnightblue" points="3790.69,-139.06 3798.14,-131.52 3787.62,-132.77 3790.69,-139.06"/>
</g>
<!-- Node92&#45;&gt;Node29 -->
<g id="edge70" class="edge">
<title>Node92&#45;&gt;Node29</title>
<path fill="none" stroke="midnightblue" d="M3692.48,-291.33C3714.96,-257.9 3770.53,-176.3 3783,-168 3803.51,-154.35 3861.97,-141.7 3908.68,-133.31"/>
<polygon fill="midnightblue" stroke="midnightblue" points="3909.51,-136.71 3918.75,-131.53 3908.29,-129.82 3909.51,-136.71"/>
</g>
<!-- Node92&#45;&gt;Node30 -->
<g id="edge69" class="edge">
<title>Node92&#45;&gt;Node30</title>
<path fill="none" stroke="midnightblue" d="M3698.8,-291.12C3709.67,-281.13 3724.38,-267.43 3737,-255 3756.15,-236.15 3797.17,-180.42 3821,-168 3825.86,-165.47 3958.71,-144.94 4040.31,-132.5"/>
<polygon fill="midnightblue" stroke="midnightblue" points="4041.12,-135.92 4050.48,-130.95 4040.07,-129 4041.12,-135.92"/>
</g>
<!-- Node92&#45;&gt;Node35 -->
<g id="edge72" class="edge">
<title>Node92&#45;&gt;Node35</title>
<path fill="none" stroke="midnightblue" d="M3706.26,-291.37C3721.64,-281.7 3742.03,-268.28 3759,-255 3770.27,-246.18 3840.98,-173.95 3854,-168 3977.61,-111.56 4025.11,-150.41 4163.19,-132.13"/>
<polygon fill="midnightblue" stroke="midnightblue" points="4163.87,-135.57 4173.29,-130.71 4162.9,-128.63 4163.87,-135.57"/>
</g>
<!-- Node92&#45;&gt;Node37 -->
<g id="edge66" class="edge">
<title>Node92&#45;&gt;Node37</title>
<path fill="none" stroke="midnightblue" d="M3674.95,-291.19C3656.06,-258.11 3606.56,-174.42 3555,-112 3546.39,-101.58 3535.65,-90.96 3526.71,-82.66"/>
<polygon fill="midnightblue" stroke="midnightblue" points="3528.87,-79.89 3519.12,-75.75 3524.16,-85.07 3528.87,-79.89"/>
</g>
<!-- Node92&#45;&gt;Node79 -->
<g id="edge74" class="edge">
<title>Node92&#45;&gt;Node79</title>
<path fill="none" stroke="midnightblue" d="M3645.79,-291.4C3619.22,-281.33 3583.81,-267.91 3558.39,-258.28"/>
<polygon fill="midnightblue" stroke="midnightblue" points="3559.44,-254.93 3548.84,-254.66 3556.96,-261.47 3559.44,-254.93"/>
</g>
<!-- Node93&#45;&gt;Node6 -->
<g id="edge76" class="edge">
<title>Node93&#45;&gt;Node6</title>
<path fill="none" stroke="midnightblue" d="M3657.95,-358.48C3614.39,-334.29 3483.79,-264.98 3366,-235 3175.69,-186.56 2937.48,-183.42 2852.72,-184.01"/>
<polygon fill="midnightblue" stroke="midnightblue" points="2852.67,-180.51 2842.7,-184.1 2852.74,-187.51 2852.67,-180.51"/>
</g>
<!-- Node93&#45;&gt;Node9 -->
<g id="edge77" class="edge">
<title>Node93&#45;&gt;Node9</title>
<path fill="none" stroke="midnightblue" d="M3696.88,-358.39C3720.15,-349.8 3756.4,-335.93 3787,-322 3803.92,-314.3 4066.23,-173.45 4084,-168 4099.04,-163.39 4297.58,-141.5 4403.49,-130.04"/>
<polygon fill="midnightblue" stroke="midnightblue" points="4404.18,-133.48 4413.75,-128.93 4403.43,-126.52 4404.18,-133.48"/>
</g>
<!-- Node93&#45;&gt;Node83 -->
<g id="edge80" class="edge">
<title>Node93&#45;&gt;Node83</title>
<path fill="none" stroke="midnightblue" d="M3634.89,-358.48C3592.73,-349.05 3524.05,-333.68 3473.08,-322.28"/>
<polygon fill="midnightblue" stroke="midnightblue" points="3473.66,-318.83 3463.14,-320.06 3472.13,-325.66 3473.66,-318.83"/>
</g>
<!-- Node93&#45;&gt;Node85 -->
<g id="edge78" class="edge">
<title>Node93&#45;&gt;Node85</title>
<path fill="none" stroke="midnightblue" d="M3687.78,-358.4C3702.99,-349.48 3727.33,-335.05 3748,-322 3793.55,-293.25 3807.36,-289.18 3849,-255 3867.34,-239.95 3886.17,-220.72 3899.68,-206.15"/>
<polygon fill="midnightblue" stroke="midnightblue" points="3902.43,-208.33 3906.6,-198.59 3897.27,-203.6 3902.43,-208.33"/>
</g>
<!-- Node93&#45;&gt;Node92 -->
<g id="edge79" class="edge">
<title>Node93&#45;&gt;Node92</title>
<path fill="none" stroke="midnightblue" d="M3674.43,-358.48C3675.62,-351.4 3677.37,-340.97 3678.98,-331.39"/>
<polygon fill="midnightblue" stroke="midnightblue" points="3682.44,-331.96 3680.64,-321.52 3675.53,-330.8 3682.44,-331.96"/>
</g>
</g>
</svg>
