<?xml version="1.0" encoding="UTF-8" standalone="no"?>
<!DOCTYPE svg PUBLIC "-//W3C//DTD SVG 1.1//EN"
 "http://www.w3.org/Graphics/SVG/1.1/DTD/svg11.dtd">
<!-- Generated by graphviz version 2.43.0 (0)
 -->
<!-- Title: wifiGen_hapd_isRunning Pages: 1 -->
<svg width="462pt" height="28pt"
 viewBox="0.00 0.00 462.00 28.00" xmlns="http://www.w3.org/2000/svg" xmlns:xlink="http://www.w3.org/1999/xlink">
<g id="graph0" class="graph" transform="scale(1 1) rotate(0) translate(4 24)">
<title>wifiGen_hapd_isRunning</title>
<polygon fill="white" stroke="transparent" points="-4,4 -4,-24 458,-24 458,4 -4,4"/>
<!-- Node1 -->
<g id="node1" class="node">
<title>Node1</title>
<g id="a_node1"><a xlink:title=" ">
<polygon fill="#bfbfbf" stroke="black" points="0,-0.5 0,-19.5 136,-19.5 136,-0.5 0,-0.5"/>
<text text-anchor="middle" x="68" y="-7.5" font-family="Helvetica,sans-Serif" font-size="10.00">wifiGen_hapd_isRunning</text>
</a>
</g>
</g>
<!-- Node2 -->
<g id="node2" class="node">
<title>Node2</title>
<g id="a_node2"><a xlink:href="wld__secDmn_8c.html#ad8ebf9f869b635102d27d9a476e4d9eb" target="_top" xlink:title=" ">
<polygon fill="white" stroke="black" points="172,-0.5 172,-19.5 304,-19.5 304,-0.5 172,-0.5"/>
<text text-anchor="middle" x="238" y="-7.5" font-family="Helvetica,sans-Serif" font-size="10.00">wld_secDmn_isRunning</text>
</a>
</g>
</g>
<!-- Node1&#45;&gt;Node2 -->
<g id="edge1" class="edge">
<title>Node1&#45;&gt;Node2</title>
<path fill="none" stroke="midnightblue" d="M136.36,-10C144.67,-10 153.2,-10 161.62,-10"/>
<polygon fill="midnightblue" stroke="midnightblue" points="161.81,-13.5 171.81,-10 161.81,-6.5 161.81,-13.5"/>
</g>
<!-- Node3 -->
<g id="node3" class="node">
<title>Node3</title>
<g id="a_node3"><a xlink:href="wld__daemon_8c.html#a6ba98a859d038541e1c2ee48d8566547" target="_top" xlink:title=" ">
<polygon fill="white" stroke="black" points="340,-0.5 340,-19.5 454,-19.5 454,-0.5 340,-0.5"/>
<text text-anchor="middle" x="397" y="-7.5" font-family="Helvetica,sans-Serif" font-size="10.00">wld_dmn_isRunning</text>
</a>
</g>
</g>
<!-- Node2&#45;&gt;Node3 -->
<g id="edge2" class="edge">
<title>Node2&#45;&gt;Node3</title>
<path fill="none" stroke="midnightblue" d="M304.22,-10C312.6,-10 321.2,-10 329.6,-10"/>
<polygon fill="midnightblue" stroke="midnightblue" points="329.73,-13.5 339.73,-10 329.73,-6.5 329.73,-13.5"/>
</g>
</g>
</svg>
