<?xml version="1.0" encoding="UTF-8" standalone="no"?>
<!DOCTYPE svg PUBLIC "-//W3C//DTD SVG 1.1//EN"
 "http://www.w3.org/Graphics/SVG/1.1/DTD/svg11.dtd">
<!-- Generated by graphviz version 2.43.0 (0)
 -->
<!-- Title: include_priv/Plugin/wifiGen.h Pages: 1 -->
<svg width="384pt" height="95pt"
 viewBox="0.00 0.00 383.50 95.00" xmlns="http://www.w3.org/2000/svg" xmlns:xlink="http://www.w3.org/1999/xlink">
<g id="graph0" class="graph" transform="scale(1 1) rotate(0) translate(4 91)">
<title>include_priv/Plugin/wifiGen.h</title>
<polygon fill="white" stroke="transparent" points="-4,4 -4,-91 379.5,-91 379.5,4 -4,4"/>
<!-- Node1 -->
<g id="node1" class="node">
<title>Node1</title>
<g id="a_node1"><a xlink:title=" ">
<polygon fill="#bfbfbf" stroke="black" points="139.5,-56.5 139.5,-86.5 248.5,-86.5 248.5,-56.5 139.5,-56.5"/>
<text text-anchor="start" x="147.5" y="-74.5" font-family="Helvetica,sans-Serif" font-size="10.00">include_priv/Plugin</text>
<text text-anchor="middle" x="194" y="-63.5" font-family="Helvetica,sans-Serif" font-size="10.00">/wifiGen.h</text>
</a>
</g>
</g>
<!-- Node2 -->
<g id="node2" class="node">
<title>Node2</title>
<g id="a_node2"><a xlink:href="wifiGen_8c.html" target="_top" xlink:title=" ">
<polygon fill="white" stroke="black" points="0,-0.5 0,-19.5 112,-19.5 112,-0.5 0,-0.5"/>
<text text-anchor="middle" x="56" y="-7.5" font-family="Helvetica,sans-Serif" font-size="10.00">src/Plugin/wifiGen.c</text>
</a>
</g>
</g>
<!-- Node1&#45;&gt;Node2 -->
<g id="edge1" class="edge">
<title>Node1&#45;&gt;Node2</title>
<path fill="none" stroke="midnightblue" d="M151.95,-52.37C126.76,-41.51 95.89,-28.2 76.08,-19.66"/>
<polygon fill="midnightblue" stroke="midnightblue" points="150.73,-55.65 161.3,-56.4 153.5,-49.23 150.73,-55.65"/>
</g>
<!-- Node3 -->
<g id="node3" class="node">
<title>Node3</title>
<g id="a_node3"><a xlink:href="wld__plugin_8c.html" target="_top" xlink:title=" ">
<polygon fill="white" stroke="black" points="130,-0.5 130,-19.5 258,-19.5 258,-0.5 130,-0.5"/>
<text text-anchor="middle" x="194" y="-7.5" font-family="Helvetica,sans-Serif" font-size="10.00">src/Plugin/wld_plugin.c</text>
</a>
</g>
</g>
<!-- Node1&#45;&gt;Node3 -->
<g id="edge2" class="edge">
<title>Node1&#45;&gt;Node3</title>
<path fill="none" stroke="midnightblue" d="M194,-46.29C194,-36.86 194,-26.65 194,-19.66"/>
<polygon fill="midnightblue" stroke="midnightblue" points="190.5,-46.4 194,-56.4 197.5,-46.4 190.5,-46.4"/>
</g>
<!-- Node4 -->
<g id="node4" class="node">
<title>Node4</title>
<g id="a_node4"><a xlink:href="test__fta_8c.html" target="_top" xlink:title=" ">
<polygon fill="white" stroke="black" points="276.5,-0.5 276.5,-19.5 375.5,-19.5 375.5,-0.5 276.5,-0.5"/>
<text text-anchor="middle" x="326" y="-7.5" font-family="Helvetica,sans-Serif" font-size="10.00">test/fta/test_fta.c</text>
</a>
</g>
</g>
<!-- Node1&#45;&gt;Node4 -->
<g id="edge3" class="edge">
<title>Node1&#45;&gt;Node4</title>
<path fill="none" stroke="midnightblue" d="M234.54,-52.23C258.57,-41.39 287.93,-28.16 306.79,-19.66"/>
<polygon fill="midnightblue" stroke="midnightblue" points="232.96,-49.1 225.28,-56.4 235.84,-55.48 232.96,-49.1"/>
</g>
</g>
</svg>
