<?xml version="1.0" encoding="UTF-8" standalone="no"?>
<!DOCTYPE svg PUBLIC "-//W3C//DTD SVG 1.1//EN"
 "http://www.w3.org/Graphics/SVG/1.1/DTD/svg11.dtd">
<!-- Generated by graphviz version 2.43.0 (0)
 -->
<!-- Title: wifiGen_rad_stats Pages: 1 -->
<svg width="608pt" height="127pt"
 viewBox="0.00 0.00 608.00 126.50" xmlns="http://www.w3.org/2000/svg" xmlns:xlink="http://www.w3.org/1999/xlink">
<g id="graph0" class="graph" transform="scale(1 1) rotate(0) translate(4 122.5)">
<title>wifiGen_rad_stats</title>
<polygon fill="white" stroke="transparent" points="-4,4 -4,-122.5 604,-122.5 604,4 -4,4"/>
<!-- Node1 -->
<g id="node1" class="node">
<title>Node1</title>
<g id="a_node1"><a xlink:title=" ">
<polygon fill="#bfbfbf" stroke="black" points="0,-44.5 0,-63.5 104,-63.5 104,-44.5 0,-44.5"/>
<text text-anchor="middle" x="52" y="-51.5" font-family="Helvetica,sans-Serif" font-size="10.00">wifiGen_rad_stats</text>
</a>
</g>
</g>
<!-- Node2 -->
<g id="node2" class="node">
<title>Node2</title>
<g id="a_node2"><a xlink:href="wld__linuxIfStats_8c.html#ae12ced660aea54a5d67db283048e138d" target="_top" xlink:title=" ">
<polygon fill="white" stroke="black" points="140,-39 140,-69 283,-69 283,-39 140,-39"/>
<text text-anchor="start" x="148" y="-57" font-family="Helvetica,sans-Serif" font-size="10.00">wld_linuxIfStats_getRadio</text>
<text text-anchor="middle" x="211.5" y="-46" font-family="Helvetica,sans-Serif" font-size="10.00">Stats</text>
</a>
</g>
</g>
<!-- Node1&#45;&gt;Node2 -->
<g id="edge1" class="edge">
<title>Node1&#45;&gt;Node2</title>
<path fill="none" stroke="midnightblue" d="M104.14,-54C112.33,-54 120.99,-54 129.68,-54"/>
<polygon fill="midnightblue" stroke="midnightblue" points="129.87,-57.5 139.87,-54 129.87,-50.5 129.87,-57.5"/>
</g>
<!-- Node3 -->
<g id="node3" class="node">
<title>Node3</title>
<g id="a_node3"><a xlink:href="wld__linuxIfStats_8c.html#a1e6ee2fbdd322b42a53f270dbb558459" target="_top" xlink:title=" ">
<polygon fill="white" stroke="black" points="322,-88 322,-118 462,-118 462,-88 322,-88"/>
<text text-anchor="start" x="330" y="-106" font-family="Helvetica,sans-Serif" font-size="10.00">wld_linuxIfStats_getAllEp</text>
<text text-anchor="middle" x="392" y="-95" font-family="Helvetica,sans-Serif" font-size="10.00">Stats</text>
</a>
</g>
</g>
<!-- Node2&#45;&gt;Node3 -->
<g id="edge2" class="edge">
<title>Node2&#45;&gt;Node3</title>
<path fill="none" stroke="midnightblue" d="M267.51,-69.1C286.09,-74.2 307.01,-79.94 326.27,-85.23"/>
<polygon fill="midnightblue" stroke="midnightblue" points="325.6,-88.68 336.17,-87.95 327.45,-81.93 325.6,-88.68"/>
</g>
<!-- Node4 -->
<g id="node4" class="node">
<title>Node4</title>
<g id="a_node4"><a xlink:href="wld__linuxIfStats_8c.html#a3c381ae85c8fdb89b5173c40d906f5d2" target="_top" xlink:title=" ">
<polygon fill="white" stroke="black" points="319,-39 319,-69 465,-69 465,-39 319,-39"/>
<text text-anchor="start" x="327" y="-57" font-family="Helvetica,sans-Serif" font-size="10.00">wld_linuxIfStats_getAllVap</text>
<text text-anchor="middle" x="392" y="-46" font-family="Helvetica,sans-Serif" font-size="10.00">Stats</text>
</a>
</g>
</g>
<!-- Node2&#45;&gt;Node4 -->
<g id="edge3" class="edge">
<title>Node2&#45;&gt;Node4</title>
<path fill="none" stroke="midnightblue" d="M283.05,-54C291.52,-54 300.23,-54 308.86,-54"/>
<polygon fill="midnightblue" stroke="midnightblue" points="308.92,-57.5 318.92,-54 308.92,-50.5 308.92,-57.5"/>
</g>
<!-- Node5 -->
<g id="node5" class="node">
<title>Node5</title>
<g id="a_node5"><a xlink:href="wld__radio_8c.html#a06bc57deec1afc23c21f9b757973c62c" target="_top" xlink:title=" ">
<polygon fill="white" stroke="black" points="322,-0.5 322,-19.5 462,-19.5 462,-0.5 322,-0.5"/>
<text text-anchor="middle" x="392" y="-7.5" font-family="Helvetica,sans-Serif" font-size="10.00">wld_rad_getCurrentNoise</text>
</a>
</g>
</g>
<!-- Node2&#45;&gt;Node5 -->
<g id="edge4" class="edge">
<title>Node2&#45;&gt;Node5</title>
<path fill="none" stroke="midnightblue" d="M273.43,-38.98C296.01,-33.41 321.29,-27.18 342.61,-21.93"/>
<polygon fill="midnightblue" stroke="midnightblue" points="343.54,-25.3 352.41,-19.51 341.86,-18.51 343.54,-25.3"/>
</g>
<!-- Node6 -->
<g id="node6" class="node">
<title>Node6</title>
<g id="a_node6"><a xlink:href="wld__radio_8c.html#a7ad6ddd63a7962f4787107799804c134" target="_top" xlink:title=" ">
<polygon fill="white" stroke="black" points="501,-0.5 501,-19.5 600,-19.5 600,-0.5 501,-0.5"/>
<text text-anchor="middle" x="550.5" y="-7.5" font-family="Helvetica,sans-Serif" font-size="10.00">wld_rad_isActive</text>
</a>
</g>
</g>
<!-- Node5&#45;&gt;Node6 -->
<g id="edge5" class="edge">
<title>Node5&#45;&gt;Node6</title>
<path fill="none" stroke="midnightblue" d="M462.1,-10C471.72,-10 481.53,-10 490.93,-10"/>
<polygon fill="midnightblue" stroke="midnightblue" points="490.95,-13.5 500.95,-10 490.95,-6.5 490.95,-13.5"/>
</g>
</g>
</svg>
