<?xml version="1.0" encoding="UTF-8" standalone="no"?>
<!DOCTYPE svg PUBLIC "-//W3C//DTD SVG 1.1//EN"
 "http://www.w3.org/Graphics/SVG/1.1/DTD/svg11.dtd">
<!-- Generated by graphviz version 2.43.0 (0)
 -->
<!-- Title: wifiGen_rad_poschans Pages: 1 -->
<svg width="895pt" height="411pt"
 viewBox="0.00 0.00 895.00 410.50" xmlns="http://www.w3.org/2000/svg" xmlns:xlink="http://www.w3.org/1999/xlink">
<g id="graph0" class="graph" transform="scale(1 1) rotate(0) translate(4 406.5)">
<title>wifiGen_rad_poschans</title>
<polygon fill="white" stroke="transparent" points="-4,4 -4,-406.5 891,-406.5 891,4 -4,4"/>
<!-- Node1 -->
<g id="node1" class="node">
<title>Node1</title>
<g id="a_node1"><a xlink:title=" ">
<polygon fill="#bfbfbf" stroke="black" points="0,-69 0,-88 125,-88 125,-69 0,-69"/>
<text text-anchor="middle" x="62.5" y="-76" font-family="Helvetica,sans-Serif" font-size="10.00">wifiGen_rad_poschans</text>
</a>
</g>
</g>
<!-- Node2 -->
<g id="node2" class="node">
<title>Node2</title>
<g id="a_node2"><a xlink:href="wifiGen__rad_8c.html#a5b1310e3851978593b4f264cd3e0fd07" target="_top" xlink:title=" ">
<polygon fill="white" stroke="black" points="194.5,-140 194.5,-159 300.5,-159 300.5,-140 194.5,-140"/>
<text text-anchor="middle" x="247.5" y="-147" font-family="Helvetica,sans-Serif" font-size="10.00">s_updateChannels</text>
</a>
</g>
</g>
<!-- Node1&#45;&gt;Node2 -->
<g id="edge1" class="edge">
<title>Node1&#45;&gt;Node2</title>
<path fill="none" stroke="midnightblue" d="M87.93,-88.05C107.65,-95.75 136.1,-106.84 161,-116.5 177.79,-123.01 196.45,-130.22 212.05,-136.23"/>
<polygon fill="midnightblue" stroke="midnightblue" points="211.21,-139.66 221.8,-139.99 213.73,-133.13 211.21,-139.66"/>
</g>
<!-- Node12 -->
<g id="node12" class="node">
<title>Node12</title>
<g id="a_node12"><a xlink:href="wld__chanmgt_8c.html#a0c7314c11d52fa514321c6db833ad997" target="_top" xlink:title=" ">
<polygon fill="white" stroke="black" points="161,-88 161,-107 334,-107 334,-88 161,-88"/>
<text text-anchor="middle" x="247.5" y="-95" font-family="Helvetica,sans-Serif" font-size="10.00">wld_chanmgt_writeDfsChannels</text>
</a>
</g>
</g>
<!-- Node1&#45;&gt;Node12 -->
<g id="edge11" class="edge">
<title>Node1&#45;&gt;Node12</title>
<path fill="none" stroke="midnightblue" d="M125.2,-84.91C133.4,-85.76 141.97,-86.65 150.58,-87.54"/>
<polygon fill="midnightblue" stroke="midnightblue" points="150.39,-91.04 160.7,-88.59 151.12,-84.08 150.39,-91.04"/>
</g>
<!-- Node13 -->
<g id="node13" class="node">
<title>Node13</title>
<g id="a_node13"><a xlink:href="wld__rad__nl80211_8c.html#aa95d2bdc9f9087faf376b9cc24ada5a8" target="_top" xlink:title=" ">
<polygon fill="white" stroke="black" points="162.5,-50 162.5,-69 332.5,-69 332.5,-50 162.5,-50"/>
<text text-anchor="middle" x="247.5" y="-57" font-family="Helvetica,sans-Serif" font-size="10.00">wld_rad_nl80211_getWiphyInfo</text>
</a>
</g>
</g>
<!-- Node1&#45;&gt;Node13 -->
<g id="edge12" class="edge">
<title>Node1&#45;&gt;Node13</title>
<path fill="none" stroke="midnightblue" d="M125.2,-72.09C133.96,-71.18 143.14,-70.23 152.34,-69.28"/>
<polygon fill="midnightblue" stroke="midnightblue" points="152.75,-72.75 162.33,-68.24 152.02,-65.79 152.75,-72.75"/>
</g>
<!-- Node19 -->
<g id="node19" class="node">
<title>Node19</title>
<g id="a_node19"><a xlink:href="wld__radio_8c.html#a8310acda9a24c2c280cb255e209b7e66" target="_top" xlink:title=" ">
<polygon fill="white" stroke="black" points="182,-0.5 182,-30.5 313,-30.5 313,-0.5 182,-0.5"/>
<text text-anchor="start" x="190" y="-18.5" font-family="Helvetica,sans-Serif" font-size="10.00">wld_rad_write_possible</text>
<text text-anchor="middle" x="247.5" y="-7.5" font-family="Helvetica,sans-Serif" font-size="10.00">_channels</text>
</a>
</g>
</g>
<!-- Node1&#45;&gt;Node19 -->
<g id="edge18" class="edge">
<title>Node1&#45;&gt;Node19</title>
<path fill="none" stroke="midnightblue" d="M86.54,-68.87C106.16,-60.82 135.2,-49.28 161,-40.5 167.95,-38.14 175.25,-35.79 182.55,-33.54"/>
<polygon fill="midnightblue" stroke="midnightblue" points="183.91,-36.78 192.46,-30.53 181.87,-30.08 183.91,-36.78"/>
</g>
<!-- Node3 -->
<g id="node3" class="node">
<title>Node3</title>
<g id="a_node3"><a xlink:href="wifiGen__rad_8c.html#af2a37c704747cf32e599b77115c41774" target="_top" xlink:title=" ">
<polygon fill="white" stroke="black" points="403,-216 403,-235 495,-235 495,-216 403,-216"/>
<text text-anchor="middle" x="449" y="-223" font-family="Helvetica,sans-Serif" font-size="10.00">s_readChanInfo</text>
</a>
</g>
</g>
<!-- Node2&#45;&gt;Node3 -->
<g id="edge2" class="edge">
<title>Node2&#45;&gt;Node3</title>
<path fill="none" stroke="midnightblue" d="M273.77,-159.13C309.14,-172.6 373.56,-197.14 413.38,-212.31"/>
<polygon fill="midnightblue" stroke="midnightblue" points="412.35,-215.66 422.94,-215.95 414.84,-209.12 412.35,-215.66"/>
</g>
<!-- Node11 -->
<g id="node11" class="node">
<title>Node11</title>
<g id="a_node11"><a xlink:href="wld__channel_8c.html#a1a9a035bd946d1c31c8f715f91e9c8b4" target="_top" xlink:title=" ">
<polygon fill="white" stroke="black" points="375.5,-140 375.5,-159 522.5,-159 522.5,-140 375.5,-140"/>
<text text-anchor="middle" x="449" y="-147" font-family="Helvetica,sans-Serif" font-size="10.00">wld_channel_init_channels</text>
</a>
</g>
</g>
<!-- Node2&#45;&gt;Node11 -->
<g id="edge10" class="edge">
<title>Node2&#45;&gt;Node11</title>
<path fill="none" stroke="midnightblue" d="M300.66,-149.5C320.29,-149.5 343.14,-149.5 364.9,-149.5"/>
<polygon fill="midnightblue" stroke="midnightblue" points="365.14,-153 375.14,-149.5 365.14,-146 365.14,-153"/>
</g>
<!-- Node4 -->
<g id="node4" class="node">
<title>Node4</title>
<g id="a_node4"><a xlink:href="wld__channel_8c.html#a1daca3ccba000e743674c98ce51bd86e" target="_top" xlink:title=" ">
<polygon fill="white" stroke="black" points="575.5,-383 575.5,-402 710.5,-402 710.5,-383 575.5,-383"/>
<text text-anchor="middle" x="643" y="-390" font-family="Helvetica,sans-Serif" font-size="10.00">wld_channel_clear_flags</text>
</a>
</g>
</g>
<!-- Node3&#45;&gt;Node4 -->
<g id="edge3" class="edge">
<title>Node3&#45;&gt;Node4</title>
<path fill="none" stroke="midnightblue" d="M454.56,-235.28C467.54,-262 507.45,-336.72 564,-373.5 567.17,-375.56 570.53,-377.39 574.03,-379.03"/>
<polygon fill="midnightblue" stroke="midnightblue" points="572.94,-382.37 583.52,-382.92 575.59,-375.89 572.94,-382.37"/>
</g>
<!-- Node5 -->
<g id="node5" class="node">
<title>Node5</title>
<g id="a_node5"><a xlink:href="wld__channel_8c.html#a03aa2fd7136694da03048717e913ba77" target="_top" xlink:title=" ">
<polygon fill="white" stroke="black" points="568.5,-333.5 568.5,-363.5 717.5,-363.5 717.5,-333.5 568.5,-333.5"/>
<text text-anchor="start" x="576.5" y="-351.5" font-family="Helvetica,sans-Serif" font-size="10.00">wld_channel_clear_passive</text>
<text text-anchor="middle" x="643" y="-340.5" font-family="Helvetica,sans-Serif" font-size="10.00">_channel</text>
</a>
</g>
</g>
<!-- Node3&#45;&gt;Node5 -->
<g id="edge4" class="edge">
<title>Node3&#45;&gt;Node5</title>
<path fill="none" stroke="midnightblue" d="M458.45,-235.16C476.12,-254.78 519.08,-299.56 564,-324.5 567.22,-326.29 570.6,-327.96 574.06,-329.53"/>
<polygon fill="midnightblue" stroke="midnightblue" points="572.81,-332.8 583.38,-333.41 575.5,-326.33 572.81,-332.8"/>
</g>
<!-- Node6 -->
<g id="node6" class="node">
<title>Node6</title>
<g id="a_node6"><a xlink:href="wld__channel_8c.html#a8f4ac82176127ff11de7585347815ecc" target="_top" xlink:title=" ">
<polygon fill="white" stroke="black" points="564,-284.5 564,-314.5 722,-314.5 722,-284.5 564,-284.5"/>
<text text-anchor="start" x="572" y="-302.5" font-family="Helvetica,sans-Serif" font-size="10.00">wld_channel_mark_available</text>
<text text-anchor="middle" x="643" y="-291.5" font-family="Helvetica,sans-Serif" font-size="10.00">_channel</text>
</a>
</g>
</g>
<!-- Node3&#45;&gt;Node6 -->
<g id="edge5" class="edge">
<title>Node3&#45;&gt;Node6</title>
<path fill="none" stroke="midnightblue" d="M469.89,-235.06C492.42,-245.69 530.37,-263 564,-275.5 569.23,-277.44 574.69,-279.36 580.2,-281.2"/>
<polygon fill="midnightblue" stroke="midnightblue" points="579.52,-284.66 590.11,-284.45 581.7,-278.01 579.52,-284.66"/>
</g>
<!-- Node7 -->
<g id="node7" class="node">
<title>Node7</title>
<g id="a_node7"><a xlink:href="wld__channel_8c.html#a274243f69f10bbc51cf7631622860889" target="_top" xlink:title=" ">
<polygon fill="white" stroke="black" points="567.5,-235.5 567.5,-265.5 718.5,-265.5 718.5,-235.5 567.5,-235.5"/>
<text text-anchor="start" x="575.5" y="-253.5" font-family="Helvetica,sans-Serif" font-size="10.00">wld_channel_mark_passive</text>
<text text-anchor="middle" x="643" y="-242.5" font-family="Helvetica,sans-Serif" font-size="10.00">_channel</text>
</a>
</g>
</g>
<!-- Node3&#45;&gt;Node7 -->
<g id="edge6" class="edge">
<title>Node3&#45;&gt;Node7</title>
<path fill="none" stroke="midnightblue" d="M495.02,-231.36C513.58,-233.78 535.72,-236.66 557.12,-239.45"/>
<polygon fill="midnightblue" stroke="midnightblue" points="556.85,-242.94 567.22,-240.76 557.75,-236 556.85,-242.94"/>
</g>
<!-- Node8 -->
<g id="node8" class="node">
<title>Node8</title>
<g id="a_node8"><a xlink:href="wld__channel_8c.html#a2fcd4f372b30ebbdbdab4763c2cddde7" target="_top" xlink:title=" ">
<polygon fill="white" stroke="black" points="573.5,-186.5 573.5,-216.5 712.5,-216.5 712.5,-186.5 573.5,-186.5"/>
<text text-anchor="start" x="581.5" y="-204.5" font-family="Helvetica,sans-Serif" font-size="10.00">wld_channel_mark_radar</text>
<text text-anchor="middle" x="643" y="-193.5" font-family="Helvetica,sans-Serif" font-size="10.00">_detected_channel</text>
</a>
</g>
</g>
<!-- Node3&#45;&gt;Node8 -->
<g id="edge7" class="edge">
<title>Node3&#45;&gt;Node8</title>
<path fill="none" stroke="midnightblue" d="M495.02,-219.87C515.29,-217.34 539.84,-214.27 563.02,-211.37"/>
<polygon fill="midnightblue" stroke="midnightblue" points="563.72,-214.81 573.21,-210.1 562.85,-207.87 563.72,-214.81"/>
</g>
<!-- Node9 -->
<g id="node9" class="node">
<title>Node9</title>
<g id="a_node9"><a xlink:href="wld__channel_8c.html#af280c210df36690e3e3f2feca13c4ad8" target="_top" xlink:title=" ">
<polygon fill="white" stroke="black" points="573.5,-137.5 573.5,-167.5 712.5,-167.5 712.5,-137.5 573.5,-137.5"/>
<text text-anchor="start" x="581.5" y="-155.5" font-family="Helvetica,sans-Serif" font-size="10.00">wld_channel_mark_radar</text>
<text text-anchor="middle" x="643" y="-144.5" font-family="Helvetica,sans-Serif" font-size="10.00">_req_channel</text>
</a>
</g>
</g>
<!-- Node3&#45;&gt;Node9 -->
<g id="edge8" class="edge">
<title>Node3&#45;&gt;Node9</title>
<path fill="none" stroke="midnightblue" d="M471.21,-215.91C493.93,-205.78 531.17,-189.65 564,-177.5 570.18,-175.21 576.68,-172.93 583.19,-170.74"/>
<polygon fill="midnightblue" stroke="midnightblue" points="584.29,-174.06 592.68,-167.58 582.08,-167.41 584.29,-174.06"/>
</g>
<!-- Node10 -->
<g id="node10" class="node">
<title>Node10</title>
<g id="a_node10"><a xlink:href="wld__channel_8c.html#a21233297a99a47a47bdd513f4bd1bc19" target="_top" xlink:title=" ">
<polygon fill="white" stroke="black" points="572.5,-88.5 572.5,-118.5 713.5,-118.5 713.5,-88.5 572.5,-88.5"/>
<text text-anchor="start" x="580.5" y="-106.5" font-family="Helvetica,sans-Serif" font-size="10.00">wld_channel_set_channel</text>
<text text-anchor="middle" x="643" y="-95.5" font-family="Helvetica,sans-Serif" font-size="10.00">_clear_time</text>
</a>
</g>
</g>
<!-- Node3&#45;&gt;Node10 -->
<g id="edge9" class="edge">
<title>Node3&#45;&gt;Node10</title>
<path fill="none" stroke="midnightblue" d="M465.07,-215.85C481.32,-205.14 507.59,-186.94 528,-168.5 545.75,-152.47 543.92,-141.49 564,-128.5 567.17,-126.45 570.53,-124.55 573.99,-122.81"/>
<polygon fill="midnightblue" stroke="midnightblue" points="575.73,-125.86 583.36,-118.51 572.81,-119.49 575.73,-125.86"/>
</g>
<!-- Node14 -->
<g id="node14" class="node">
<title>Node14</title>
<g id="a_node14"><a xlink:href="wld__nl80211__core_8c.html#ab89990c364e3256f803e95aee1684407" target="_top" xlink:title=" ">
<polygon fill="white" stroke="black" points="370,-50 370,-69 528,-69 528,-50 370,-50"/>
<text text-anchor="middle" x="449" y="-57" font-family="Helvetica,sans-Serif" font-size="10.00">wld_nl80211_getSharedState</text>
</a>
</g>
</g>
<!-- Node13&#45;&gt;Node14 -->
<g id="edge13" class="edge">
<title>Node13&#45;&gt;Node14</title>
<path fill="none" stroke="midnightblue" d="M332.53,-59.5C341.5,-59.5 350.65,-59.5 359.67,-59.5"/>
<polygon fill="midnightblue" stroke="midnightblue" points="359.79,-63 369.79,-59.5 359.79,-56 359.79,-63"/>
</g>
<!-- Node16 -->
<g id="node16" class="node">
<title>Node16</title>
<g id="a_node16"><a xlink:href="wld__nl80211__api_8c.html#af9a489d0e99a230994b5a268ce672db8" target="_top" xlink:title=" ">
<polygon fill="white" stroke="black" points="374.5,-12 374.5,-31 523.5,-31 523.5,-12 374.5,-12"/>
<text text-anchor="middle" x="449" y="-19" font-family="Helvetica,sans-Serif" font-size="10.00">wld_nl80211_getWiphyInfo</text>
</a>
</g>
</g>
<!-- Node13&#45;&gt;Node16 -->
<g id="edge15" class="edge">
<title>Node13&#45;&gt;Node16</title>
<path fill="none" stroke="midnightblue" d="M298.58,-49.96C325.74,-44.79 359.49,-38.36 388.03,-32.92"/>
<polygon fill="midnightblue" stroke="midnightblue" points="388.73,-36.35 397.89,-31.04 387.42,-29.48 388.73,-36.35"/>
</g>
<!-- Node15 -->
<g id="node15" class="node">
<title>Node15</title>
<g id="a_node15"><a xlink:href="wld__nl80211__core_8c.html#ac64e98962155641a465909b3c8fc0779" target="_top" xlink:title=" ">
<polygon fill="white" stroke="black" points="600.5,-50 600.5,-69 685.5,-69 685.5,-50 600.5,-50"/>
<text text-anchor="middle" x="643" y="-57" font-family="Helvetica,sans-Serif" font-size="10.00">s_isValidState</text>
</a>
</g>
</g>
<!-- Node14&#45;&gt;Node15 -->
<g id="edge14" class="edge">
<title>Node14&#45;&gt;Node15</title>
<path fill="none" stroke="midnightblue" d="M528.09,-59.5C548.94,-59.5 570.96,-59.5 590.02,-59.5"/>
<polygon fill="midnightblue" stroke="midnightblue" points="590.28,-63 600.28,-59.5 590.28,-56 590.28,-63"/>
</g>
<!-- Node17 -->
<g id="node17" class="node">
<title>Node17</title>
<g id="a_node17"><a xlink:href="wld__nl80211__core_8c.html#a51795ba7297b263584b02e6dd2d8ddb6" target="_top" xlink:title=" ">
<polygon fill="white" stroke="black" points="567,-12 567,-31 719,-31 719,-12 567,-12"/>
<text text-anchor="middle" x="643" y="-19" font-family="Helvetica,sans-Serif" font-size="10.00">wld_nl80211_sendCmdSync</text>
</a>
</g>
</g>
<!-- Node16&#45;&gt;Node17 -->
<g id="edge16" class="edge">
<title>Node16&#45;&gt;Node17</title>
<path fill="none" stroke="midnightblue" d="M523.68,-21.5C534.53,-21.5 545.78,-21.5 556.84,-21.5"/>
<polygon fill="midnightblue" stroke="midnightblue" points="556.93,-25 566.93,-21.5 556.93,-18 556.93,-25"/>
</g>
<!-- Node18 -->
<g id="node18" class="node">
<title>Node18</title>
<g id="a_node18"><a xlink:href="wld__nl80211__core_8c.html#a3c5a525596463f925b95bbc76036d07e" target="_top" xlink:title=" ">
<polygon fill="white" stroke="black" points="758,-12 758,-31 887,-31 887,-12 758,-12"/>
<text text-anchor="middle" x="822.5" y="-19" font-family="Helvetica,sans-Serif" font-size="10.00">wld_nl80211_sendCmd</text>
</a>
</g>
</g>
<!-- Node17&#45;&gt;Node18 -->
<g id="edge17" class="edge">
<title>Node17&#45;&gt;Node18</title>
<path fill="none" stroke="midnightblue" d="M719.02,-21.5C728.54,-21.5 738.27,-21.5 747.77,-21.5"/>
<polygon fill="midnightblue" stroke="midnightblue" points="747.97,-25 757.97,-21.5 747.97,-18 747.97,-25"/>
</g>
</g>
</svg>
