<?xml version="1.0" encoding="UTF-8" standalone="no"?>
<!DOCTYPE svg PUBLIC "-//W3C//DTD SVG 1.1//EN"
 "http://www.w3.org/Graphics/SVG/1.1/DTD/svg11.dtd">
<!-- Generated by graphviz version 2.43.0 (0)
 -->
<!-- Title: wifiGen_rad_createHook Pages: 1 -->
<svg width="1026pt" height="218pt"
 viewBox="0.00 0.00 1026.00 218.00" xmlns="http://www.w3.org/2000/svg" xmlns:xlink="http://www.w3.org/1999/xlink">
<g id="graph0" class="graph" transform="scale(1 1) rotate(0) translate(4 214)">
<title>wifiGen_rad_createHook</title>
<polygon fill="white" stroke="transparent" points="-4,4 -4,-214 1022,-214 1022,4 -4,4"/>
<!-- Node1 -->
<g id="node1" class="node">
<title>Node1</title>
<g id="a_node1"><a xlink:title=" ">
<polygon fill="#bfbfbf" stroke="black" points="0,-57.5 0,-76.5 136,-76.5 136,-57.5 0,-57.5"/>
<text text-anchor="middle" x="68" y="-64.5" font-family="Helvetica,sans-Serif" font-size="10.00">wifiGen_rad_createHook</text>
</a>
</g>
</g>
<!-- Node2 -->
<g id="node2" class="node">
<title>Node2</title>
<g id="a_node2"><a xlink:href="wifiGen__hapd_8c.html#a3e280a7de79155551d8dcf12b517bdc3" target="_top" xlink:title=" ">
<polygon fill="white" stroke="black" points="197,-114.5 197,-133.5 301,-133.5 301,-114.5 197,-114.5"/>
<text text-anchor="middle" x="249" y="-121.5" font-family="Helvetica,sans-Serif" font-size="10.00">wifiGen_hapd_init</text>
</a>
</g>
</g>
<!-- Node1&#45;&gt;Node2 -->
<g id="edge1" class="edge">
<title>Node1&#45;&gt;Node2</title>
<path fill="none" stroke="midnightblue" d="M92.89,-76.65C113.6,-84.82 144.5,-96.52 172,-105 179.85,-107.42 188.23,-109.76 196.46,-111.92"/>
<polygon fill="midnightblue" stroke="midnightblue" points="195.8,-115.36 206.36,-114.45 197.54,-108.58 195.8,-115.36"/>
</g>
<!-- Node11 -->
<g id="node11" class="node">
<title>Node11</title>
<g id="a_node11"><a xlink:href="wifiGen__eventHandlers_8c.html#af55ce47126cf4a6c3699a631a5b38a70" target="_top" xlink:title=" ">
<polygon fill="white" stroke="black" points="173,-76.5 173,-95.5 325,-95.5 325,-76.5 173,-76.5"/>
<text text-anchor="middle" x="249" y="-83.5" font-family="Helvetica,sans-Serif" font-size="10.00">wifiGen_setRadEvtHandlers</text>
</a>
</g>
</g>
<!-- Node1&#45;&gt;Node11 -->
<g id="edge10" class="edge">
<title>Node1&#45;&gt;Node11</title>
<path fill="none" stroke="midnightblue" d="M136.16,-74.13C144.88,-75.05 153.91,-76.01 162.87,-76.96"/>
<polygon fill="midnightblue" stroke="midnightblue" points="162.64,-80.46 172.95,-78.03 163.38,-73.5 162.64,-80.46"/>
</g>
<!-- Node12 -->
<g id="node12" class="node">
<title>Node12</title>
<g id="a_node12"><a xlink:href="wld__eventing_8c.html#ae1d360897e6f003fa37c96c3d4684edb" target="_top" xlink:title=" ">
<polygon fill="white" stroke="black" points="181,-38.5 181,-57.5 317,-57.5 317,-38.5 181,-38.5"/>
<text text-anchor="middle" x="249" y="-45.5" font-family="Helvetica,sans-Serif" font-size="10.00">wld_event_add_callback</text>
</a>
</g>
</g>
<!-- Node1&#45;&gt;Node12 -->
<g id="edge11" class="edge">
<title>Node1&#45;&gt;Node12</title>
<path fill="none" stroke="midnightblue" d="M136.16,-59.87C147.44,-58.67 159.23,-57.42 170.74,-56.2"/>
<polygon fill="midnightblue" stroke="midnightblue" points="171.18,-59.67 180.76,-55.14 170.45,-52.71 171.18,-59.67"/>
</g>
<!-- Node13 -->
<g id="node13" class="node">
<title>Node13</title>
<g id="a_node13"><a xlink:href="wld__linuxIfUtils_8c.html#a02092ba8d6dda33a584c37818c4af732" target="_top" xlink:title=" ">
<polygon fill="white" stroke="black" points="172,-0.5 172,-19.5 326,-19.5 326,-0.5 172,-0.5"/>
<text text-anchor="middle" x="249" y="-7.5" font-family="Helvetica,sans-Serif" font-size="10.00">wld_linuxIfUtils_getNetSock</text>
</a>
</g>
</g>
<!-- Node1&#45;&gt;Node13 -->
<g id="edge12" class="edge">
<title>Node1&#45;&gt;Node13</title>
<path fill="none" stroke="midnightblue" d="M92.89,-57.35C113.6,-49.18 144.5,-37.48 172,-29 179.85,-26.58 188.23,-24.24 196.46,-22.08"/>
<polygon fill="midnightblue" stroke="midnightblue" points="197.54,-25.42 206.36,-19.55 195.8,-18.64 197.54,-25.42"/>
</g>
<!-- Node3 -->
<g id="node3" class="node">
<title>Node3</title>
<g id="a_node3"><a xlink:href="wld__secDmn_8c.html#af0544dc7e9cc28cc7590bcbb6f6ad4ce" target="_top" xlink:title=" ">
<polygon fill="white" stroke="black" points="362,-114.5 362,-133.5 462,-133.5 462,-114.5 362,-114.5"/>
<text text-anchor="middle" x="412" y="-121.5" font-family="Helvetica,sans-Serif" font-size="10.00">wld_secDmn_init</text>
</a>
</g>
</g>
<!-- Node2&#45;&gt;Node3 -->
<g id="edge2" class="edge">
<title>Node2&#45;&gt;Node3</title>
<path fill="none" stroke="midnightblue" d="M301.38,-124C317.39,-124 335.17,-124 351.67,-124"/>
<polygon fill="midnightblue" stroke="midnightblue" points="351.75,-127.5 361.75,-124 351.75,-120.5 351.75,-127.5"/>
</g>
<!-- Node4 -->
<g id="node4" class="node">
<title>Node4</title>
<g id="a_node4"><a xlink:href="wld__daemon_8c.html#adc1404b6fec8fdf62a05025d82440f64" target="_top" xlink:title=" ">
<polygon fill="white" stroke="black" points="498,-114.5 498,-133.5 636,-133.5 636,-114.5 498,-114.5"/>
<text text-anchor="middle" x="567" y="-121.5" font-family="Helvetica,sans-Serif" font-size="10.00">wld_dmn_createDeamon</text>
</a>
</g>
</g>
<!-- Node3&#45;&gt;Node4 -->
<g id="edge3" class="edge">
<title>Node3&#45;&gt;Node4</title>
<path fill="none" stroke="midnightblue" d="M462.25,-124C470.41,-124 479.05,-124 487.72,-124"/>
<polygon fill="midnightblue" stroke="midnightblue" points="487.89,-127.5 497.89,-124 487.89,-120.5 487.89,-127.5"/>
</g>
<!-- Node5 -->
<g id="node5" class="node">
<title>Node5</title>
<g id="a_node5"><a xlink:href="wld__daemon_8c.html#a4075ee8de9e9daa8039d0f758d20d655" target="_top" xlink:title=" ">
<polygon fill="white" stroke="black" points="690,-171.5 690,-190.5 836,-190.5 836,-171.5 690,-171.5"/>
<text text-anchor="middle" x="763" y="-178.5" font-family="Helvetica,sans-Serif" font-size="10.00">wld_dmn_cleanupDaemon</text>
</a>
</g>
</g>
<!-- Node4&#45;&gt;Node5 -->
<g id="edge4" class="edge">
<title>Node4&#45;&gt;Node5</title>
<path fill="none" stroke="midnightblue" d="M591.23,-133.57C612.1,-141.9 643.73,-153.9 672,-162 681.23,-164.65 691.09,-167.1 700.77,-169.3"/>
<polygon fill="midnightblue" stroke="midnightblue" points="700.24,-172.77 710.76,-171.5 701.75,-165.93 700.24,-172.77"/>
</g>
<!-- Node8 -->
<g id="node8" class="node">
<title>Node8</title>
<g id="a_node8"><a xlink:href="wld__daemon_8c.html#add988f9aace86d75ad2250d7ea28ed17" target="_top" xlink:title=" ">
<polygon fill="white" stroke="black" points="688.5,-133.5 688.5,-152.5 837.5,-152.5 837.5,-133.5 688.5,-133.5"/>
<text text-anchor="middle" x="763" y="-140.5" font-family="Helvetica,sans-Serif" font-size="10.00">wld_dmn_initializeDeamon</text>
</a>
</g>
</g>
<!-- Node4&#45;&gt;Node8 -->
<g id="edge7" class="edge">
<title>Node4&#45;&gt;Node8</title>
<path fill="none" stroke="midnightblue" d="M636.12,-130.67C649.74,-132.01 664.19,-133.42 678.27,-134.8"/>
<polygon fill="midnightblue" stroke="midnightblue" points="678.14,-138.3 688.43,-135.79 678.82,-131.34 678.14,-138.3"/>
</g>
<!-- Node9 -->
<g id="node9" class="node">
<title>Node9</title>
<g id="a_node9"><a xlink:href="wld__daemon_8c.html#a335dc3e12939144d97137cf59cfe7951" target="_top" xlink:title=" ">
<polygon fill="white" stroke="black" points="705.5,-95.5 705.5,-114.5 820.5,-114.5 820.5,-95.5 705.5,-95.5"/>
<text text-anchor="middle" x="763" y="-102.5" font-family="Helvetica,sans-Serif" font-size="10.00">wld_dmn_setArgList</text>
</a>
</g>
</g>
<!-- Node4&#45;&gt;Node9 -->
<g id="edge8" class="edge">
<title>Node4&#45;&gt;Node9</title>
<path fill="none" stroke="midnightblue" d="M636.12,-117.33C655.28,-115.45 676.09,-113.41 695.17,-111.55"/>
<polygon fill="midnightblue" stroke="midnightblue" points="695.66,-115.01 705.27,-110.56 694.98,-108.05 695.66,-115.01"/>
</g>
<!-- Node10 -->
<g id="node10" class="node">
<title>Node10</title>
<g id="a_node10"><a xlink:href="wld__daemon_8c.html#a50e230b7cf9c56d9b4ef6e5038576c17" target="_top" xlink:title=" ">
<polygon fill="white" stroke="black" points="672,-57.5 672,-76.5 854,-76.5 854,-57.5 672,-57.5"/>
<text text-anchor="middle" x="763" y="-64.5" font-family="Helvetica,sans-Serif" font-size="10.00">wld_dmn_setDeamonEvtHandlers</text>
</a>
</g>
</g>
<!-- Node4&#45;&gt;Node10 -->
<g id="edge9" class="edge">
<title>Node4&#45;&gt;Node10</title>
<path fill="none" stroke="midnightblue" d="M591.23,-114.43C612.1,-106.1 643.73,-94.1 672,-86 681.23,-83.35 691.09,-80.9 700.77,-78.7"/>
<polygon fill="midnightblue" stroke="midnightblue" points="701.75,-82.07 710.76,-76.5 700.24,-75.23 701.75,-82.07"/>
</g>
<!-- Node6 -->
<g id="node6" class="node">
<title>Node6</title>
<g id="a_node6"><a xlink:href="wld_8c.html#a41e1e95e9813260c184aad989f33bb05" target="_top" xlink:title=" ">
<polygon fill="white" stroke="black" points="891,-190.5 891,-209.5 1017,-209.5 1017,-190.5 891,-190.5"/>
<text text-anchor="middle" x="954" y="-197.5" font-family="Helvetica,sans-Serif" font-size="10.00">get_wld_plugin_parser</text>
</a>
</g>
</g>
<!-- Node5&#45;&gt;Node6 -->
<g id="edge5" class="edge">
<title>Node5&#45;&gt;Node6</title>
<path fill="none" stroke="midnightblue" d="M836.26,-188.26C850.91,-189.74 866.31,-191.29 880.95,-192.76"/>
<polygon fill="midnightblue" stroke="midnightblue" points="880.65,-196.24 890.95,-193.76 881.35,-189.28 880.65,-196.24"/>
</g>
<!-- Node7 -->
<g id="node7" class="node">
<title>Node7</title>
<g id="a_node7"><a xlink:href="wld__daemon_8c.html#adc439fdc85e1c992a5ba6e79b4ebd3a3" target="_top" xlink:title=" ">
<polygon fill="white" stroke="black" points="890,-152.5 890,-171.5 1018,-171.5 1018,-152.5 890,-152.5"/>
<text text-anchor="middle" x="954" y="-159.5" font-family="Helvetica,sans-Serif" font-size="10.00">wld_dmn_stopDeamon</text>
</a>
</g>
</g>
<!-- Node5&#45;&gt;Node7 -->
<g id="edge6" class="edge">
<title>Node5&#45;&gt;Node7</title>
<path fill="none" stroke="midnightblue" d="M836.26,-173.74C850.43,-172.31 865.31,-170.82 879.52,-169.39"/>
<polygon fill="midnightblue" stroke="midnightblue" points="880.13,-172.84 889.73,-168.36 879.43,-165.88 880.13,-172.84"/>
</g>
</g>
</svg>
