<?xml version="1.0" encoding="UTF-8" standalone="no"?>
<!DOCTYPE svg PUBLIC "-//W3C//DTD SVG 1.1//EN"
 "http://www.w3.org/Graphics/SVG/1.1/DTD/svg11.dtd">
<!-- Generated by graphviz version 2.43.0 (0)
 -->
<!-- Title: wifiGen_hapd_countGrpMembers Pages: 1 -->
<svg width="559pt" height="116pt"
 viewBox="0.00 0.00 559.00 115.50" xmlns="http://www.w3.org/2000/svg" xmlns:xlink="http://www.w3.org/1999/xlink">
<g id="graph0" class="graph" transform="scale(1 1) rotate(0) translate(4 111.5)">
<title>wifiGen_hapd_countGrpMembers</title>
<polygon fill="white" stroke="transparent" points="-4,4 -4,-111.5 555,-111.5 555,4 -4,4"/>
<!-- Node1 -->
<g id="node1" class="node">
<title>Node1</title>
<g id="a_node1"><a xlink:title=" ">
<polygon fill="#bfbfbf" stroke="black" points="0,-50 0,-69 178,-69 178,-50 0,-50"/>
<text text-anchor="middle" x="89" y="-57" font-family="Helvetica,sans-Serif" font-size="10.00">wifiGen_hapd_countGrpMembers</text>
</a>
</g>
</g>
<!-- Node2 -->
<g id="node2" class="node">
<title>Node2</title>
<g id="a_node2"><a xlink:href="wld__secDmn_8c.html#a734eba007ba94a51c1cdf408c979c5ab" target="_top" xlink:title=" ">
<polygon fill="white" stroke="black" points="237,-88 237,-107 354,-107 354,-88 237,-88"/>
<text text-anchor="middle" x="295.5" y="-95" font-family="Helvetica,sans-Serif" font-size="10.00">wld_secDmn_getGrp</text>
</a>
</g>
</g>
<!-- Node1&#45;&gt;Node2 -->
<g id="edge1" class="edge">
<title>Node1&#45;&gt;Node2</title>
<path fill="none" stroke="midnightblue" d="M141.34,-69.04C169.17,-74.21 203.77,-80.64 233.03,-86.08"/>
<polygon fill="midnightblue" stroke="midnightblue" points="232.67,-89.57 243.14,-87.96 233.95,-82.69 232.67,-89.57"/>
</g>
<!-- Node3 -->
<g id="node3" class="node">
<title>Node3</title>
<g id="a_node3"><a xlink:href="wld__secDmn_8c.html#a1b0cc11a41a11e2033f3188fd05a0d80" target="_top" xlink:title=" ">
<polygon fill="white" stroke="black" points="220.5,-50 220.5,-69 370.5,-69 370.5,-50 220.5,-50"/>
<text text-anchor="middle" x="295.5" y="-57" font-family="Helvetica,sans-Serif" font-size="10.00">wld_secDmn_isGrpMember</text>
</a>
</g>
</g>
<!-- Node1&#45;&gt;Node3 -->
<g id="edge2" class="edge">
<title>Node1&#45;&gt;Node3</title>
<path fill="none" stroke="midnightblue" d="M178.21,-59.5C188.86,-59.5 199.72,-59.5 210.31,-59.5"/>
<polygon fill="midnightblue" stroke="midnightblue" points="210.36,-63 220.36,-59.5 210.36,-56 210.36,-63"/>
</g>
<!-- Node5 -->
<g id="node5" class="node">
<title>Node5</title>
<g id="a_node5"><a xlink:href="wld__secDmnGrp_8c.html#a7a55988e27b9c7365f21e1b68bc58b85" target="_top" xlink:title=" ">
<polygon fill="white" stroke="black" points="214,-0.5 214,-30.5 377,-30.5 377,-0.5 214,-0.5"/>
<text text-anchor="start" x="222" y="-18.5" font-family="Helvetica,sans-Serif" font-size="10.00">wld_secDmnGrp_getMembers</text>
<text text-anchor="middle" x="295.5" y="-7.5" font-family="Helvetica,sans-Serif" font-size="10.00">Count</text>
</a>
</g>
</g>
<!-- Node1&#45;&gt;Node5 -->
<g id="edge4" class="edge">
<title>Node1&#45;&gt;Node5</title>
<path fill="none" stroke="midnightblue" d="M134.37,-49.95C157.81,-44.91 187.29,-38.57 214.55,-32.7"/>
<polygon fill="midnightblue" stroke="midnightblue" points="215.44,-36.09 224.48,-30.57 213.97,-29.25 215.44,-36.09"/>
</g>
<!-- Node4 -->
<g id="node4" class="node">
<title>Node4</title>
<g id="a_node4"><a xlink:href="wld__secDmnGrp_8c.html#ae5da21db2381b2d5a1f16df5d388d5df" target="_top" xlink:title=" ">
<polygon fill="white" stroke="black" points="413,-50 413,-69 551,-69 551,-50 413,-50"/>
<text text-anchor="middle" x="482" y="-57" font-family="Helvetica,sans-Serif" font-size="10.00">wld_secDmnGrp_getProc</text>
</a>
</g>
</g>
<!-- Node3&#45;&gt;Node4 -->
<g id="edge3" class="edge">
<title>Node3&#45;&gt;Node4</title>
<path fill="none" stroke="midnightblue" d="M370.75,-59.5C381.29,-59.5 392.17,-59.5 402.79,-59.5"/>
<polygon fill="midnightblue" stroke="midnightblue" points="402.87,-63 412.87,-59.5 402.87,-56 402.87,-63"/>
</g>
</g>
</svg>
