<?xml version="1.0" encoding="UTF-8" standalone="no"?>
<!DOCTYPE svg PUBLIC "-//W3C//DTD SVG 1.1//EN"
 "http://www.w3.org/Graphics/SVG/1.1/DTD/svg11.dtd">
<!-- Generated by graphviz version 2.43.0 (0)
 -->
<!-- Title: wifiGen_rad_bgDfsStop Pages: 1 -->
<svg width="1127pt" height="340pt"
 viewBox="0.00 0.00 1127.00 340.00" xmlns="http://www.w3.org/2000/svg" xmlns:xlink="http://www.w3.org/1999/xlink">
<g id="graph0" class="graph" transform="scale(1 1) rotate(0) translate(4 336)">
<title>wifiGen_rad_bgDfsStop</title>
<polygon fill="white" stroke="transparent" points="-4,4 -4,-336 1123,-336 1123,4 -4,4"/>
<!-- Node1 -->
<g id="node1" class="node">
<title>Node1</title>
<g id="a_node1"><a xlink:title=" ">
<polygon fill="#bfbfbf" stroke="black" points="0,-255.5 0,-274.5 130,-274.5 130,-255.5 0,-255.5"/>
<text text-anchor="middle" x="65" y="-262.5" font-family="Helvetica,sans-Serif" font-size="10.00">wifiGen_rad_bgDfsStop</text>
</a>
</g>
</g>
<!-- Node2 -->
<g id="node2" class="node">
<title>Node2</title>
<g id="a_node2"><a xlink:href="wld__bgdfs_8c.html#a609c9c511280d7b756931f0f71451de5" target="_top" xlink:title=" ">
<polygon fill="white" stroke="black" points="184,-312.5 184,-331.5 303,-331.5 303,-312.5 184,-312.5"/>
<text text-anchor="middle" x="243.5" y="-319.5" font-family="Helvetica,sans-Serif" font-size="10.00">wld_bgdfs_isRunning</text>
</a>
</g>
</g>
<!-- Node1&#45;&gt;Node2 -->
<g id="edge1" class="edge">
<title>Node1&#45;&gt;Node2</title>
<path fill="none" stroke="midnightblue" d="M88.76,-274.54C108.86,-282.75 139.06,-294.57 166,-303 173.8,-305.44 182.12,-307.78 190.3,-309.92"/>
<polygon fill="midnightblue" stroke="midnightblue" points="189.61,-313.36 200.16,-312.44 191.34,-306.58 189.61,-313.36"/>
</g>
<!-- Node3 -->
<g id="node3" class="node">
<title>Node3</title>
<g id="a_node3"><a xlink:href="wld__bgdfs_8c.html#a0b5d68a7bcbacb3eab1215d65d03d75e" target="_top" xlink:title=" ">
<polygon fill="white" stroke="black" points="166,-274.5 166,-293.5 321,-293.5 321,-274.5 166,-274.5"/>
<text text-anchor="middle" x="243.5" y="-281.5" font-family="Helvetica,sans-Serif" font-size="10.00">wld_bgdfs_notifyClearEnded</text>
</a>
</g>
</g>
<!-- Node1&#45;&gt;Node3 -->
<g id="edge2" class="edge">
<title>Node1&#45;&gt;Node3</title>
<path fill="none" stroke="midnightblue" d="M130.22,-271.91C138.51,-272.81 147.1,-273.73 155.68,-274.65"/>
<polygon fill="midnightblue" stroke="midnightblue" points="155.4,-278.14 165.72,-275.73 156.15,-271.18 155.4,-278.14"/>
</g>
<!-- Node5 -->
<g id="node5" class="node">
<title>Node5</title>
<g id="a_node5"><a xlink:href="wld__rad__nl80211_8c.html#a91f62b90e3141285f0b5c14bc3f1f05a" target="_top" xlink:title=" ">
<polygon fill="white" stroke="black" points="166,-236.5 166,-255.5 321,-255.5 321,-236.5 166,-236.5"/>
<text text-anchor="middle" x="243.5" y="-243.5" font-family="Helvetica,sans-Serif" font-size="10.00">wld_rad_nl80211_bgDfsStop</text>
</a>
</g>
</g>
<!-- Node1&#45;&gt;Node5 -->
<g id="edge4" class="edge">
<title>Node1&#45;&gt;Node5</title>
<path fill="none" stroke="midnightblue" d="M130.22,-258.09C138.51,-257.19 147.1,-256.27 155.68,-255.35"/>
<polygon fill="midnightblue" stroke="midnightblue" points="156.15,-258.82 165.72,-254.27 155.4,-251.86 156.15,-258.82"/>
</g>
<!-- Node17 -->
<g id="node17" class="node">
<title>Node17</title>
<g id="a_node17"><a xlink:href="wld__radio_8c.html#a71ab662c1a90f0d9ba49b3a11b43e829" target="_top" xlink:title=" ">
<polygon fill="white" stroke="black" points="184,-82.5 184,-101.5 303,-101.5 303,-82.5 184,-82.5"/>
<text text-anchor="middle" x="243.5" y="-89.5" font-family="Helvetica,sans-Serif" font-size="10.00">wld_rad_updateState</text>
</a>
</g>
</g>
<!-- Node1&#45;&gt;Node17 -->
<g id="edge16" class="edge">
<title>Node1&#45;&gt;Node17</title>
<path fill="none" stroke="midnightblue" d="M75.74,-255.45C104.36,-227.4 188.48,-144.94 225.12,-109.04"/>
<polygon fill="midnightblue" stroke="midnightblue" points="227.88,-111.23 232.57,-101.73 222.98,-106.23 227.88,-111.23"/>
</g>
<!-- Node4 -->
<g id="node4" class="node">
<title>Node4</title>
<g id="a_node4"><a xlink:href="wld__channel_8c.html#abbf5b8a94e8a9595f011a635e6a7ced6" target="_top" xlink:title=" ">
<polygon fill="white" stroke="black" points="357.5,-312.5 357.5,-331.5 536.5,-331.5 536.5,-312.5 357.5,-312.5"/>
<text text-anchor="middle" x="447" y="-319.5" font-family="Helvetica,sans-Serif" font-size="10.00">wld_channel_clear_passive_band</text>
</a>
</g>
</g>
<!-- Node3&#45;&gt;Node4 -->
<g id="edge3" class="edge">
<title>Node3&#45;&gt;Node4</title>
<path fill="none" stroke="midnightblue" d="M295.09,-293.54C322.51,-298.71 356.6,-305.14 385.43,-310.58"/>
<polygon fill="midnightblue" stroke="midnightblue" points="384.92,-314.04 395.39,-312.46 386.21,-307.16 384.92,-314.04"/>
</g>
<!-- Node6 -->
<g id="node6" class="node">
<title>Node6</title>
<g id="a_node6"><a xlink:href="wld__nl80211__api_8c.html#aa8dd2626e3aac6906d9f1f604134ff4b" target="_top" xlink:title=" ">
<polygon fill="white" stroke="black" points="380,-274.5 380,-293.5 514,-293.5 514,-274.5 380,-274.5"/>
<text text-anchor="middle" x="447" y="-281.5" font-family="Helvetica,sans-Serif" font-size="10.00">wld_nl80211_bgDfsStop</text>
</a>
</g>
</g>
<!-- Node5&#45;&gt;Node6 -->
<g id="edge5" class="edge">
<title>Node5&#45;&gt;Node6</title>
<path fill="none" stroke="midnightblue" d="M295.09,-255.54C322.51,-260.71 356.6,-267.14 385.43,-272.58"/>
<polygon fill="midnightblue" stroke="midnightblue" points="384.92,-276.04 395.39,-274.46 386.21,-269.16 384.92,-276.04"/>
</g>
<!-- Node10 -->
<g id="node10" class="node">
<title>Node10</title>
<g id="a_node10"><a xlink:href="wld__nl80211__core_8c.html#ab89990c364e3256f803e95aee1684407" target="_top" xlink:title=" ">
<polygon fill="white" stroke="black" points="368,-236.5 368,-255.5 526,-255.5 526,-236.5 368,-236.5"/>
<text text-anchor="middle" x="447" y="-243.5" font-family="Helvetica,sans-Serif" font-size="10.00">wld_nl80211_getSharedState</text>
</a>
</g>
</g>
<!-- Node5&#45;&gt;Node10 -->
<g id="edge9" class="edge">
<title>Node5&#45;&gt;Node10</title>
<path fill="none" stroke="midnightblue" d="M321.25,-246C333.16,-246 345.54,-246 357.67,-246"/>
<polygon fill="midnightblue" stroke="midnightblue" points="357.79,-249.5 367.79,-246 357.79,-242.5 357.79,-249.5"/>
</g>
<!-- Node12 -->
<g id="node12" class="node">
<title>Node12</title>
<g id="a_node12"><a xlink:href="wld__rad__nl80211_8c.html#a207896b46d08b10868e5b33a3c77aaa2" target="_top" xlink:title=" ">
<polygon fill="white" stroke="black" points="376.5,-165 376.5,-195 517.5,-195 517.5,-165 376.5,-165"/>
<text text-anchor="start" x="384.5" y="-183" font-family="Helvetica,sans-Serif" font-size="10.00">wld_rad_nl80211_getFirst</text>
<text text-anchor="middle" x="447" y="-172" font-family="Helvetica,sans-Serif" font-size="10.00">EnabledVapLinkInfo</text>
</a>
</g>
</g>
<!-- Node5&#45;&gt;Node12 -->
<g id="edge11" class="edge">
<title>Node5&#45;&gt;Node12</title>
<path fill="none" stroke="midnightblue" d="M273.8,-236.4C304.16,-226.46 352.35,-210.67 390.04,-198.33"/>
<polygon fill="midnightblue" stroke="midnightblue" points="391.46,-201.55 399.88,-195.11 389.28,-194.89 391.46,-201.55"/>
</g>
<!-- Node7 -->
<g id="node7" class="node">
<title>Node7</title>
<g id="a_node7"><a xlink:href="wld__nl80211__core_8c.html#a2f124c7a531325213fab90ab2a181035" target="_top" xlink:title=" ">
<polygon fill="white" stroke="black" points="573,-285.5 573,-304.5 766,-304.5 766,-285.5 573,-285.5"/>
<text text-anchor="middle" x="669.5" y="-292.5" font-family="Helvetica,sans-Serif" font-size="10.00">wld_nl80211_sendCmdSyncWithAck</text>
</a>
</g>
</g>
<!-- Node6&#45;&gt;Node7 -->
<g id="edge6" class="edge">
<title>Node6&#45;&gt;Node7</title>
<path fill="none" stroke="midnightblue" d="M514.16,-287.3C529.39,-288.06 545.97,-288.89 562.42,-289.71"/>
<polygon fill="midnightblue" stroke="midnightblue" points="562.47,-293.21 572.63,-290.22 562.82,-286.22 562.47,-293.21"/>
</g>
<!-- Node8 -->
<g id="node8" class="node">
<title>Node8</title>
<g id="a_node8"><a xlink:href="wld__nl80211__core_8c.html#a51795ba7297b263584b02e6dd2d8ddb6" target="_top" xlink:title=" ">
<polygon fill="white" stroke="black" points="802,-285.5 802,-304.5 954,-304.5 954,-285.5 802,-285.5"/>
<text text-anchor="middle" x="878" y="-292.5" font-family="Helvetica,sans-Serif" font-size="10.00">wld_nl80211_sendCmdSync</text>
</a>
</g>
</g>
<!-- Node7&#45;&gt;Node8 -->
<g id="edge7" class="edge">
<title>Node7&#45;&gt;Node8</title>
<path fill="none" stroke="midnightblue" d="M766.19,-295C774.67,-295 783.21,-295 791.6,-295"/>
<polygon fill="midnightblue" stroke="midnightblue" points="791.72,-298.5 801.72,-295 791.72,-291.5 791.72,-298.5"/>
</g>
<!-- Node9 -->
<g id="node9" class="node">
<title>Node9</title>
<g id="a_node9"><a xlink:href="wld__nl80211__core_8c.html#a3c5a525596463f925b95bbc76036d07e" target="_top" xlink:title=" ">
<polygon fill="white" stroke="black" points="990,-285.5 990,-304.5 1119,-304.5 1119,-285.5 990,-285.5"/>
<text text-anchor="middle" x="1054.5" y="-292.5" font-family="Helvetica,sans-Serif" font-size="10.00">wld_nl80211_sendCmd</text>
</a>
</g>
</g>
<!-- Node8&#45;&gt;Node9 -->
<g id="edge8" class="edge">
<title>Node8&#45;&gt;Node9</title>
<path fill="none" stroke="midnightblue" d="M954.02,-295C962.49,-295 971.12,-295 979.57,-295"/>
<polygon fill="midnightblue" stroke="midnightblue" points="979.78,-298.5 989.78,-295 979.78,-291.5 979.78,-298.5"/>
</g>
<!-- Node11 -->
<g id="node11" class="node">
<title>Node11</title>
<g id="a_node11"><a xlink:href="wld__nl80211__core_8c.html#ac64e98962155641a465909b3c8fc0779" target="_top" xlink:title=" ">
<polygon fill="white" stroke="black" points="627,-247.5 627,-266.5 712,-266.5 712,-247.5 627,-247.5"/>
<text text-anchor="middle" x="669.5" y="-254.5" font-family="Helvetica,sans-Serif" font-size="10.00">s_isValidState</text>
</a>
</g>
</g>
<!-- Node10&#45;&gt;Node11 -->
<g id="edge10" class="edge">
<title>Node10&#45;&gt;Node11</title>
<path fill="none" stroke="midnightblue" d="M526.05,-249.89C556.15,-251.4 589.76,-253.07 616.77,-254.42"/>
<polygon fill="midnightblue" stroke="midnightblue" points="616.62,-257.92 626.78,-254.92 616.97,-250.92 616.62,-257.92"/>
</g>
<!-- Node13 -->
<g id="node13" class="node">
<title>Node13</title>
<g id="a_node13"><a xlink:href="wld__radio_8c.html#ae211359fd0e7548777cf5bd312ffb8c3" target="_top" xlink:title=" ">
<polygon fill="white" stroke="black" points="589.5,-198 589.5,-228 749.5,-228 749.5,-198 589.5,-198"/>
<text text-anchor="start" x="597.5" y="-216" font-family="Helvetica,sans-Serif" font-size="10.00">wld_rad_getFirstEnabledIface</text>
<text text-anchor="middle" x="669.5" y="-205" font-family="Helvetica,sans-Serif" font-size="10.00">Index</text>
</a>
</g>
</g>
<!-- Node12&#45;&gt;Node13 -->
<g id="edge12" class="edge">
<title>Node12&#45;&gt;Node13</title>
<path fill="none" stroke="midnightblue" d="M517.77,-190.44C537.28,-193.36 558.77,-196.58 579.25,-199.64"/>
<polygon fill="midnightblue" stroke="midnightblue" points="578.8,-203.11 589.21,-201.13 579.83,-196.19 578.8,-203.11"/>
</g>
<!-- Node14 -->
<g id="node14" class="node">
<title>Node14</title>
<g id="a_node14"><a xlink:href="wld__radio_8c.html#a4e8e6a5073523b748c0ccf4d5cd400be" target="_top" xlink:title=" ">
<polygon fill="white" stroke="black" points="592.5,-159.5 592.5,-178.5 746.5,-178.5 746.5,-159.5 592.5,-159.5"/>
<text text-anchor="middle" x="669.5" y="-166.5" font-family="Helvetica,sans-Serif" font-size="10.00">wld_rad_getFirstEnabledVap</text>
</a>
</g>
</g>
<!-- Node12&#45;&gt;Node14 -->
<g id="edge13" class="edge">
<title>Node12&#45;&gt;Node14</title>
<path fill="none" stroke="midnightblue" d="M517.77,-176.52C538.24,-175.5 560.89,-174.37 582.26,-173.3"/>
<polygon fill="midnightblue" stroke="midnightblue" points="582.49,-176.79 592.31,-172.8 582.15,-169.8 582.49,-176.79"/>
</g>
<!-- Node15 -->
<g id="node15" class="node">
<title>Node15</title>
<g id="a_node15"><a xlink:href="wld__ssid__nl80211_8c.html#a2b7bf017bd3b5539305a585d203add46" target="_top" xlink:title=" ">
<polygon fill="white" stroke="black" points="584,-121.5 584,-140.5 755,-140.5 755,-121.5 584,-121.5"/>
<text text-anchor="middle" x="669.5" y="-128.5" font-family="Helvetica,sans-Serif" font-size="10.00">wld_ssid_nl80211_getMldLinkId</text>
</a>
</g>
</g>
<!-- Node12&#45;&gt;Node15 -->
<g id="edge14" class="edge">
<title>Node12&#45;&gt;Node15</title>
<path fill="none" stroke="midnightblue" d="M508.61,-164.95C529.03,-160.01 551.96,-154.62 573,-150 584.37,-147.51 596.52,-144.98 608.23,-142.62"/>
<polygon fill="midnightblue" stroke="midnightblue" points="609.24,-145.98 618.36,-140.59 607.87,-139.12 609.24,-145.98"/>
</g>
<!-- Node16 -->
<g id="node16" class="node">
<title>Node16</title>
<g id="a_node16"><a xlink:href="wld__ssid__nl80211_8c.html#a5ed483fe8b7a472d3064f95daf9c1db7" target="_top" xlink:title=" ">
<polygon fill="white" stroke="black" points="588.5,-72 588.5,-102 750.5,-102 750.5,-72 588.5,-72"/>
<text text-anchor="start" x="596.5" y="-90" font-family="Helvetica,sans-Serif" font-size="10.00">wld_ssid_nl80211_getPrimary</text>
<text text-anchor="middle" x="669.5" y="-79" font-family="Helvetica,sans-Serif" font-size="10.00">LinkIfIndex</text>
</a>
</g>
</g>
<!-- Node12&#45;&gt;Node16 -->
<g id="edge15" class="edge">
<title>Node12&#45;&gt;Node16</title>
<path fill="none" stroke="midnightblue" d="M517.81,-164.85C524.55,-162.09 531.07,-158.83 537,-155 557.93,-141.47 551.95,-125.34 573,-112 576.32,-109.89 579.82,-107.96 583.43,-106.19"/>
<polygon fill="midnightblue" stroke="midnightblue" points="584.89,-109.38 592.61,-102.12 582.05,-102.98 584.89,-109.38"/>
</g>
<!-- Node18 -->
<g id="node18" class="node">
<title>Node18</title>
<g id="a_node18"><a xlink:href="wld__eventing_8c.html#aa79c0a7f8698dee12cd21e53ad8a3bf5" target="_top" xlink:title=" ">
<polygon fill="white" stroke="black" points="372,-126.5 372,-145.5 522,-145.5 522,-126.5 372,-126.5"/>
<text text-anchor="middle" x="447" y="-133.5" font-family="Helvetica,sans-Serif" font-size="10.00">wld_event_trigger_callback</text>
</a>
</g>
</g>
<!-- Node17&#45;&gt;Node18 -->
<g id="edge17" class="edge">
<title>Node17&#45;&gt;Node18</title>
<path fill="none" stroke="midnightblue" d="M286.95,-101.52C308.01,-106.22 333.83,-111.95 357,-117 367.87,-119.37 379.5,-121.87 390.65,-124.26"/>
<polygon fill="midnightblue" stroke="midnightblue" points="390.2,-127.74 400.71,-126.41 391.66,-120.9 390.2,-127.74"/>
</g>
<!-- Node19 -->
<g id="node19" class="node">
<title>Node19</title>
<g id="a_node19"><a xlink:href="wld__util_8c.html#a7aaa0a274fb1a414bae0af12b211da98" target="_top" xlink:title=" ">
<polygon fill="white" stroke="black" points="378.5,-77 378.5,-107 515.5,-107 515.5,-77 378.5,-77"/>
<text text-anchor="start" x="386.5" y="-95" font-family="Helvetica,sans-Serif" font-size="10.00">wld_util_areAllEndpoints</text>
<text text-anchor="middle" x="447" y="-84" font-family="Helvetica,sans-Serif" font-size="10.00">Disabled</text>
</a>
</g>
</g>
<!-- Node17&#45;&gt;Node19 -->
<g id="edge18" class="edge">
<title>Node17&#45;&gt;Node19</title>
<path fill="none" stroke="midnightblue" d="M303.05,-92C323.42,-92 346.59,-92 368.26,-92"/>
<polygon fill="midnightblue" stroke="midnightblue" points="368.42,-95.5 378.42,-92 368.42,-88.5 368.42,-95.5"/>
</g>
<!-- Node20 -->
<g id="node20" class="node">
<title>Node20</title>
<g id="a_node20"><a xlink:href="wld__util_8c.html#adc7b6d02e17d5dadfe3caa517eff88d9" target="_top" xlink:title=" ">
<polygon fill="white" stroke="black" points="369.5,-38.5 369.5,-57.5 524.5,-57.5 524.5,-38.5 369.5,-38.5"/>
<text text-anchor="middle" x="447" y="-45.5" font-family="Helvetica,sans-Serif" font-size="10.00">wld_util_areAllVapsDisabled</text>
</a>
</g>
</g>
<!-- Node17&#45;&gt;Node20 -->
<g id="edge19" class="edge">
<title>Node17&#45;&gt;Node20</title>
<path fill="none" stroke="midnightblue" d="M288.22,-82.45C318.85,-75.76 359.97,-66.79 392.55,-59.67"/>
<polygon fill="midnightblue" stroke="midnightblue" points="393.34,-63.08 402.36,-57.53 391.85,-56.24 393.34,-63.08"/>
</g>
<!-- Node21 -->
<g id="node21" class="node">
<title>Node21</title>
<g id="a_node21"><a xlink:href="wld__util_8c.html#a9bd2e6c3b5a5ecbc64b7e43486a073b3" target="_top" xlink:title=" ">
<polygon fill="white" stroke="black" points="357,-0.5 357,-19.5 537,-19.5 537,-0.5 357,-0.5"/>
<text text-anchor="middle" x="447" y="-7.5" font-family="Helvetica,sans-Serif" font-size="10.00">wld_util_updateStatusChangeInfo</text>
</a>
</g>
</g>
<!-- Node17&#45;&gt;Node21 -->
<g id="edge20" class="edge">
<title>Node17&#45;&gt;Node21</title>
<path fill="none" stroke="midnightblue" d="M258.39,-82.4C278.99,-68.58 319.3,-43.21 357,-29 363.99,-26.37 371.43,-24.06 378.93,-22.04"/>
<polygon fill="midnightblue" stroke="midnightblue" points="379.93,-25.4 388.77,-19.56 378.22,-18.61 379.93,-25.4"/>
</g>
</g>
</svg>
