<?xml version="1.0" encoding="UTF-8" standalone="no"?>
<!DOCTYPE svg PUBLIC "-//W3C//DTD SVG 1.1//EN"
 "http://www.w3.org/Graphics/SVG/1.1/DTD/svg11.dtd">
<!-- Generated by graphviz version 2.43.0 (0)
 -->
<!-- Title: wifiGen_hapd_syncVapStates Pages: 1 -->
<svg width="525pt" height="116pt"
 viewBox="0.00 0.00 525.00 115.50" xmlns="http://www.w3.org/2000/svg" xmlns:xlink="http://www.w3.org/1999/xlink">
<g id="graph0" class="graph" transform="scale(1 1) rotate(0) translate(4 111.5)">
<title>wifiGen_hapd_syncVapStates</title>
<polygon fill="white" stroke="transparent" points="-4,4 -4,-111.5 521,-111.5 521,4 -4,4"/>
<!-- Node1 -->
<g id="node1" class="node">
<title>Node1</title>
<g id="a_node1"><a xlink:title=" ">
<polygon fill="#bfbfbf" stroke="black" points="0,-50 0,-69 159,-69 159,-50 0,-50"/>
<text text-anchor="middle" x="79.5" y="-57" font-family="Helvetica,sans-Serif" font-size="10.00">wifiGen_hapd_syncVapStates</text>
</a>
</g>
</g>
<!-- Node2 -->
<g id="node2" class="node">
<title>Node2</title>
<g id="a_node2"><a xlink:href="wifiGen__hapd_8c.html#ac643c2614f8d47384fd1793f2f25bb3c" target="_top" xlink:title=" ">
<polygon fill="white" stroke="black" points="196.5,-88 196.5,-107 344.5,-107 344.5,-88 196.5,-88"/>
<text text-anchor="middle" x="270.5" y="-95" font-family="Helvetica,sans-Serif" font-size="10.00">wifiGen_hapd_getRadState</text>
</a>
</g>
</g>
<!-- Node1&#45;&gt;Node2 -->
<g id="edge1" class="edge">
<title>Node1&#45;&gt;Node2</title>
<path fill="none" stroke="midnightblue" d="M128.19,-69.09C153.7,-74.22 185.28,-80.57 212.12,-85.96"/>
<polygon fill="midnightblue" stroke="midnightblue" points="211.66,-89.44 222.15,-87.98 213.04,-82.58 211.66,-89.44"/>
</g>
<!-- Node3 -->
<g id="node3" class="node">
<title>Node3</title>
<g id="a_node3"><a xlink:href="wifiGen__eventHandlers_8c.html#ade845e48fcf4e65c73b94977e34d2170" target="_top" xlink:title=" ">
<polygon fill="white" stroke="black" points="201.5,-50 201.5,-69 339.5,-69 339.5,-50 201.5,-50"/>
<text text-anchor="middle" x="270.5" y="-57" font-family="Helvetica,sans-Serif" font-size="10.00">wifiGen_refreshVapsIfIdx</text>
</a>
</g>
</g>
<!-- Node1&#45;&gt;Node3 -->
<g id="edge2" class="edge">
<title>Node1&#45;&gt;Node3</title>
<path fill="none" stroke="midnightblue" d="M159.01,-59.5C169.69,-59.5 180.66,-59.5 191.34,-59.5"/>
<polygon fill="midnightblue" stroke="midnightblue" points="191.47,-63 201.47,-59.5 191.47,-56 191.47,-63"/>
</g>
<!-- Node4 -->
<g id="node4" class="node">
<title>Node4</title>
<g id="a_node4"><a xlink:href="wld__rad__hostapd__api_8c.html#a2ff2a647a5a9edfbf73b677bb42101ae" target="_top" xlink:title=" ">
<polygon fill="white" stroke="black" points="195,-0.5 195,-30.5 346,-30.5 346,-0.5 195,-0.5"/>
<text text-anchor="start" x="203" y="-18.5" font-family="Helvetica,sans-Serif" font-size="10.00">wld_rad_hostapd_updateAll</text>
<text text-anchor="middle" x="270.5" y="-7.5" font-family="Helvetica,sans-Serif" font-size="10.00">VapsConfigId</text>
</a>
</g>
</g>
<!-- Node1&#45;&gt;Node4 -->
<g id="edge3" class="edge">
<title>Node1&#45;&gt;Node4</title>
<path fill="none" stroke="midnightblue" d="M121.51,-49.95C142.98,-44.95 169.94,-38.68 194.95,-32.86"/>
<polygon fill="midnightblue" stroke="midnightblue" points="195.84,-36.24 204.79,-30.57 194.25,-29.42 195.84,-36.24"/>
</g>
<!-- Node5 -->
<g id="node5" class="node">
<title>Node5</title>
<g id="a_node5"><a xlink:href="wld__hostapd__cfgManager_8c.html#ad15aa07c202c5ff5f3a78dc1297429f5" target="_top" xlink:title="load the hostapd configuration from hostpad config file into wld_hostapd_config_t structure">
<polygon fill="white" stroke="black" points="382,-6 382,-25 517,-25 517,-6 382,-6"/>
<text text-anchor="middle" x="449.5" y="-13" font-family="Helvetica,sans-Serif" font-size="10.00">wld_hostapd_loadConfig</text>
</a>
</g>
</g>
<!-- Node4&#45;&gt;Node5 -->
<g id="edge4" class="edge">
<title>Node4&#45;&gt;Node5</title>
<path fill="none" stroke="midnightblue" d="M346.05,-15.5C354.51,-15.5 363.15,-15.5 371.64,-15.5"/>
<polygon fill="midnightblue" stroke="midnightblue" points="371.91,-19 381.91,-15.5 371.91,-12 371.91,-19"/>
</g>
</g>
</svg>
