<?xml version="1.0" encoding="UTF-8" standalone="no"?>
<!DOCTYPE svg PUBLIC "-//W3C//DTD SVG 1.1//EN"
 "http://www.w3.org/Graphics/SVG/1.1/DTD/svg11.dtd">
<!-- Generated by graphviz version 2.43.0 (0)
 -->
<!-- Title: wifiGen_rad_delayedCommitUpdate Pages: 1 -->
<svg width="748pt" height="280pt"
 viewBox="0.00 0.00 748.00 280.00" xmlns="http://www.w3.org/2000/svg" xmlns:xlink="http://www.w3.org/1999/xlink">
<g id="graph0" class="graph" transform="scale(1 1) rotate(0) translate(4 276)">
<title>wifiGen_rad_delayedCommitUpdate</title>
<polygon fill="white" stroke="transparent" points="-4,4 -4,-276 744,-276 744,4 -4,4"/>
<!-- Node1 -->
<g id="node1" class="node">
<title>Node1</title>
<g id="a_node1"><a xlink:title=" ">
<polygon fill="#bfbfbf" stroke="black" points="0,-121 0,-151 158,-151 158,-121 0,-121"/>
<text text-anchor="start" x="8" y="-139" font-family="Helvetica,sans-Serif" font-size="10.00">wifiGen_rad_delayedCommit</text>
<text text-anchor="middle" x="79" y="-128" font-family="Helvetica,sans-Serif" font-size="10.00">Update</text>
</a>
</g>
</g>
<!-- Node2 -->
<g id="node2" class="node">
<title>Node2</title>
<g id="a_node2"><a xlink:href="wifiGen__hapd_8c.html#a390fcf6faed4a6312a55bab71c11440f" target="_top" xlink:title=" ">
<polygon fill="white" stroke="black" points="194,-192.5 194,-211.5 353,-211.5 353,-192.5 194,-192.5"/>
<text text-anchor="middle" x="273.5" y="-199.5" font-family="Helvetica,sans-Serif" font-size="10.00">wifiGen_hapd_syncVapStates</text>
</a>
</g>
</g>
<!-- Node1&#45;&gt;Node2 -->
<g id="edge1" class="edge">
<title>Node1&#45;&gt;Node2</title>
<path fill="none" stroke="midnightblue" d="M124.16,-151.14C157.62,-162.61 203.08,-178.2 234.83,-189.08"/>
<polygon fill="midnightblue" stroke="midnightblue" points="234.03,-192.51 244.62,-192.44 236.3,-185.89 234.03,-192.51"/>
</g>
<!-- Node7 -->
<g id="node7" class="node">
<title>Node7</title>
<g id="a_node7"><a xlink:href="wld__radio_8c.html#a71ab662c1a90f0d9ba49b3a11b43e829" target="_top" xlink:title=" ">
<polygon fill="white" stroke="black" points="214,-82.5 214,-101.5 333,-101.5 333,-82.5 214,-82.5"/>
<text text-anchor="middle" x="273.5" y="-89.5" font-family="Helvetica,sans-Serif" font-size="10.00">wld_rad_updateState</text>
</a>
</g>
</g>
<!-- Node1&#45;&gt;Node7 -->
<g id="edge6" class="edge">
<title>Node1&#45;&gt;Node7</title>
<path fill="none" stroke="midnightblue" d="M145.71,-120.98C170.28,-115.36 197.82,-109.07 220.94,-103.79"/>
<polygon fill="midnightblue" stroke="midnightblue" points="221.91,-107.15 230.88,-101.51 220.35,-100.33 221.91,-107.15"/>
</g>
<!-- Node3 -->
<g id="node3" class="node">
<title>Node3</title>
<g id="a_node3"><a xlink:href="wifiGen__hapd_8c.html#ac643c2614f8d47384fd1793f2f25bb3c" target="_top" xlink:title=" ">
<polygon fill="white" stroke="black" points="405,-252.5 405,-271.5 553,-271.5 553,-252.5 405,-252.5"/>
<text text-anchor="middle" x="479" y="-259.5" font-family="Helvetica,sans-Serif" font-size="10.00">wifiGen_hapd_getRadState</text>
</a>
</g>
</g>
<!-- Node2&#45;&gt;Node3 -->
<g id="edge2" class="edge">
<title>Node2&#45;&gt;Node3</title>
<path fill="none" stroke="midnightblue" d="M298.32,-211.58C321.27,-220.57 357.11,-233.93 389,-243 398.14,-245.6 407.89,-248.02 417.47,-250.22"/>
<polygon fill="midnightblue" stroke="midnightblue" points="416.83,-253.66 427.35,-252.41 418.35,-246.83 416.83,-253.66"/>
</g>
<!-- Node4 -->
<g id="node4" class="node">
<title>Node4</title>
<g id="a_node4"><a xlink:href="wifiGen__eventHandlers_8c.html#ade845e48fcf4e65c73b94977e34d2170" target="_top" xlink:title=" ">
<polygon fill="white" stroke="black" points="410,-214.5 410,-233.5 548,-233.5 548,-214.5 410,-214.5"/>
<text text-anchor="middle" x="479" y="-221.5" font-family="Helvetica,sans-Serif" font-size="10.00">wifiGen_refreshVapsIfIdx</text>
</a>
</g>
</g>
<!-- Node2&#45;&gt;Node4 -->
<g id="edge3" class="edge">
<title>Node2&#45;&gt;Node4</title>
<path fill="none" stroke="midnightblue" d="M353.18,-210.51C368.35,-212.15 384.25,-213.87 399.43,-215.51"/>
<polygon fill="midnightblue" stroke="midnightblue" points="399.48,-219.03 409.8,-216.63 400.23,-212.07 399.48,-219.03"/>
</g>
<!-- Node5 -->
<g id="node5" class="node">
<title>Node5</title>
<g id="a_node5"><a xlink:href="wld__rad__hostapd__api_8c.html#a2ff2a647a5a9edfbf73b677bb42101ae" target="_top" xlink:title=" ">
<polygon fill="white" stroke="black" points="403.5,-165 403.5,-195 554.5,-195 554.5,-165 403.5,-165"/>
<text text-anchor="start" x="411.5" y="-183" font-family="Helvetica,sans-Serif" font-size="10.00">wld_rad_hostapd_updateAll</text>
<text text-anchor="middle" x="479" y="-172" font-family="Helvetica,sans-Serif" font-size="10.00">VapsConfigId</text>
</a>
</g>
</g>
<!-- Node2&#45;&gt;Node5 -->
<g id="edge4" class="edge">
<title>Node2&#45;&gt;Node5</title>
<path fill="none" stroke="midnightblue" d="M353.18,-193.49C366.28,-192.08 379.92,-190.6 393.17,-189.17"/>
<polygon fill="midnightblue" stroke="midnightblue" points="393.64,-192.64 403.2,-188.09 392.89,-185.68 393.64,-192.64"/>
</g>
<!-- Node6 -->
<g id="node6" class="node">
<title>Node6</title>
<g id="a_node6"><a xlink:href="wld__hostapd__cfgManager_8c.html#ad15aa07c202c5ff5f3a78dc1297429f5" target="_top" xlink:title="load the hostapd configuration from hostpad config file into wld_hostapd_config_t structure">
<polygon fill="white" stroke="black" points="605,-170.5 605,-189.5 740,-189.5 740,-170.5 605,-170.5"/>
<text text-anchor="middle" x="672.5" y="-177.5" font-family="Helvetica,sans-Serif" font-size="10.00">wld_hostapd_loadConfig</text>
</a>
</g>
</g>
<!-- Node5&#45;&gt;Node6 -->
<g id="edge5" class="edge">
<title>Node5&#45;&gt;Node6</title>
<path fill="none" stroke="midnightblue" d="M554.59,-180C567.81,-180 581.6,-180 594.88,-180"/>
<polygon fill="midnightblue" stroke="midnightblue" points="594.91,-183.5 604.91,-180 594.91,-176.5 594.91,-183.5"/>
</g>
<!-- Node8 -->
<g id="node8" class="node">
<title>Node8</title>
<g id="a_node8"><a xlink:href="wld__eventing_8c.html#aa79c0a7f8698dee12cd21e53ad8a3bf5" target="_top" xlink:title=" ">
<polygon fill="white" stroke="black" points="404,-126.5 404,-145.5 554,-145.5 554,-126.5 404,-126.5"/>
<text text-anchor="middle" x="479" y="-133.5" font-family="Helvetica,sans-Serif" font-size="10.00">wld_event_trigger_callback</text>
</a>
</g>
</g>
<!-- Node7&#45;&gt;Node8 -->
<g id="edge7" class="edge">
<title>Node7&#45;&gt;Node8</title>
<path fill="none" stroke="midnightblue" d="M318.66,-101.55C349.59,-108.24 391.11,-117.21 424.02,-124.33"/>
<polygon fill="midnightblue" stroke="midnightblue" points="423.42,-127.78 433.93,-126.47 424.9,-120.94 423.42,-127.78"/>
</g>
<!-- Node9 -->
<g id="node9" class="node">
<title>Node9</title>
<g id="a_node9"><a xlink:href="wld__util_8c.html#a7aaa0a274fb1a414bae0af12b211da98" target="_top" xlink:title=" ">
<polygon fill="white" stroke="black" points="410.5,-77 410.5,-107 547.5,-107 547.5,-77 410.5,-77"/>
<text text-anchor="start" x="418.5" y="-95" font-family="Helvetica,sans-Serif" font-size="10.00">wld_util_areAllEndpoints</text>
<text text-anchor="middle" x="479" y="-84" font-family="Helvetica,sans-Serif" font-size="10.00">Disabled</text>
</a>
</g>
</g>
<!-- Node7&#45;&gt;Node9 -->
<g id="edge8" class="edge">
<title>Node7&#45;&gt;Node9</title>
<path fill="none" stroke="midnightblue" d="M333.09,-92C353.96,-92 377.81,-92 400.05,-92"/>
<polygon fill="midnightblue" stroke="midnightblue" points="400.14,-95.5 410.14,-92 400.14,-88.5 400.14,-95.5"/>
</g>
<!-- Node10 -->
<g id="node10" class="node">
<title>Node10</title>
<g id="a_node10"><a xlink:href="wld__util_8c.html#adc7b6d02e17d5dadfe3caa517eff88d9" target="_top" xlink:title=" ">
<polygon fill="white" stroke="black" points="401.5,-38.5 401.5,-57.5 556.5,-57.5 556.5,-38.5 401.5,-38.5"/>
<text text-anchor="middle" x="479" y="-45.5" font-family="Helvetica,sans-Serif" font-size="10.00">wld_util_areAllVapsDisabled</text>
</a>
</g>
</g>
<!-- Node7&#45;&gt;Node10 -->
<g id="edge9" class="edge">
<title>Node7&#45;&gt;Node10</title>
<path fill="none" stroke="midnightblue" d="M317.99,-82.46C339.37,-77.77 365.53,-72.07 389,-67 400.11,-64.6 412,-62.05 423.36,-59.62"/>
<polygon fill="midnightblue" stroke="midnightblue" points="424.12,-63.04 433.17,-57.53 422.66,-56.19 424.12,-63.04"/>
</g>
<!-- Node11 -->
<g id="node11" class="node">
<title>Node11</title>
<g id="a_node11"><a xlink:href="wld__util_8c.html#a9bd2e6c3b5a5ecbc64b7e43486a073b3" target="_top" xlink:title=" ">
<polygon fill="white" stroke="black" points="389,-0.5 389,-19.5 569,-19.5 569,-0.5 389,-0.5"/>
<text text-anchor="middle" x="479" y="-7.5" font-family="Helvetica,sans-Serif" font-size="10.00">wld_util_updateStatusChangeInfo</text>
</a>
</g>
</g>
<!-- Node7&#45;&gt;Node11 -->
<g id="edge10" class="edge">
<title>Node7&#45;&gt;Node11</title>
<path fill="none" stroke="midnightblue" d="M288.66,-82.41C309.67,-68.61 350.73,-43.26 389,-29 396.18,-26.32 403.84,-23.98 411.53,-21.94"/>
<polygon fill="midnightblue" stroke="midnightblue" points="412.41,-25.33 421.26,-19.51 410.71,-18.53 412.41,-25.33"/>
</g>
</g>
</svg>
