<?xml version="1.0" encoding="UTF-8" standalone="no"?>
<!DOCTYPE svg PUBLIC "-//W3C//DTD SVG 1.1//EN"
 "http://www.w3.org/Graphics/SVG/1.1/DTD/svg11.dtd">
<!-- Generated by graphviz version 2.43.0 (0)
 -->
<!-- Title: wifiGen_hapd_isAlive Pages: 1 -->
<svg width="838pt" height="148pt"
 viewBox="0.00 0.00 838.00 147.50" xmlns="http://www.w3.org/2000/svg" xmlns:xlink="http://www.w3.org/1999/xlink">
<g id="graph0" class="graph" transform="scale(1 1) rotate(0) translate(4 143.5)">
<title>wifiGen_hapd_isAlive</title>
<polygon fill="white" stroke="transparent" points="-4,4 -4,-143.5 834,-143.5 834,4 -4,4"/>
<!-- Node1 -->
<g id="node1" class="node">
<title>Node1</title>
<g id="a_node1"><a xlink:title=" ">
<polygon fill="#bfbfbf" stroke="black" points="0,-63 0,-82 121,-82 121,-63 0,-63"/>
<text text-anchor="middle" x="60.5" y="-70" font-family="Helvetica,sans-Serif" font-size="10.00">wifiGen_hapd_isAlive</text>
</a>
</g>
</g>
<!-- Node2 -->
<g id="node2" class="node">
<title>Node2</title>
<g id="a_node2"><a xlink:href="wld__secDmn_8c.html#a1b9d684b37eb9a4922e736e45544a50d" target="_top" xlink:title=" ">
<polygon fill="white" stroke="black" points="157,-63 157,-82 274,-82 274,-63 157,-63"/>
<text text-anchor="middle" x="215.5" y="-70" font-family="Helvetica,sans-Serif" font-size="10.00">wld_secDmn_isAlive</text>
</a>
</g>
</g>
<!-- Node1&#45;&gt;Node2 -->
<g id="edge1" class="edge">
<title>Node1&#45;&gt;Node2</title>
<path fill="none" stroke="midnightblue" d="M121.09,-72.5C129.44,-72.5 138.08,-72.5 146.57,-72.5"/>
<polygon fill="midnightblue" stroke="midnightblue" points="146.83,-76 156.83,-72.5 146.83,-69 146.83,-76"/>
</g>
<!-- Node3 -->
<g id="node3" class="node">
<title>Node3</title>
<g id="a_node3"><a xlink:href="wld__secDmn_8c.html#a1b0cc11a41a11e2033f3188fd05a0d80" target="_top" xlink:title=" ">
<polygon fill="white" stroke="black" points="327.5,-120 327.5,-139 477.5,-139 477.5,-120 327.5,-120"/>
<text text-anchor="middle" x="402.5" y="-127" font-family="Helvetica,sans-Serif" font-size="10.00">wld_secDmn_isGrpMember</text>
</a>
</g>
</g>
<!-- Node2&#45;&gt;Node3 -->
<g id="edge2" class="edge">
<title>Node2&#45;&gt;Node3</title>
<path fill="none" stroke="midnightblue" d="M241.71,-82.04C260.42,-88.96 286.63,-98.33 310,-105.5 323.64,-109.69 338.57,-113.8 352.33,-117.4"/>
<polygon fill="midnightblue" stroke="midnightblue" points="351.56,-120.82 362.12,-119.93 353.31,-114.04 351.56,-120.82"/>
</g>
<!-- Node5 -->
<g id="node5" class="node">
<title>Node5</title>
<g id="a_node5"><a xlink:href="wld__secDmn_8c.html#ad8ebf9f869b635102d27d9a476e4d9eb" target="_top" xlink:title=" ">
<polygon fill="white" stroke="black" points="536.5,-66 536.5,-85 668.5,-85 668.5,-66 536.5,-66"/>
<text text-anchor="middle" x="602.5" y="-73" font-family="Helvetica,sans-Serif" font-size="10.00">wld_secDmn_isRunning</text>
</a>
</g>
</g>
<!-- Node2&#45;&gt;Node5 -->
<g id="edge4" class="edge">
<title>Node2&#45;&gt;Node5</title>
<path fill="none" stroke="midnightblue" d="M274.14,-72.95C341.25,-73.47 452.32,-74.34 526.21,-74.91"/>
<polygon fill="midnightblue" stroke="midnightblue" points="526.35,-78.41 536.38,-74.99 526.4,-71.41 526.35,-78.41"/>
</g>
<!-- Node7 -->
<g id="node7" class="node">
<title>Node7</title>
<g id="a_node7"><a xlink:href="wld__secDmnGrp_8c.html#ac68764d14b9f77537e29250cae786daf" target="_top" xlink:title=" ">
<polygon fill="white" stroke="black" points="310,-44 310,-63 495,-63 495,-44 310,-44"/>
<text text-anchor="middle" x="402.5" y="-51" font-family="Helvetica,sans-Serif" font-size="10.00">wld_secDmnGrp_isMemberStarted</text>
</a>
</g>
</g>
<!-- Node2&#45;&gt;Node7 -->
<g id="edge6" class="edge">
<title>Node2&#45;&gt;Node7</title>
<path fill="none" stroke="midnightblue" d="M274.02,-66.59C282.27,-65.75 290.95,-64.85 299.74,-63.95"/>
<polygon fill="midnightblue" stroke="midnightblue" points="300.11,-67.43 309.7,-62.93 299.4,-60.47 300.11,-67.43"/>
</g>
<!-- Node8 -->
<g id="node8" class="node">
<title>Node8</title>
<g id="a_node8"><a xlink:href="wld__wpaCtrlMngr_8c.html#ad3e7ad2284a85ee77e110a90f0fd34ae" target="_top" xlink:title="check that wpaCtrl manager is connected: i.e can receive events from its main interface.">
<polygon fill="white" stroke="black" points="319,-6 319,-25 486,-25 486,-6 319,-6"/>
<text text-anchor="middle" x="402.5" y="-13" font-family="Helvetica,sans-Serif" font-size="10.00">wld_wpaCtrlMngr_isConnected</text>
</a>
</g>
</g>
<!-- Node2&#45;&gt;Node8 -->
<g id="edge7" class="edge">
<title>Node2&#45;&gt;Node8</title>
<path fill="none" stroke="midnightblue" d="M236.91,-62.95C255.59,-54.51 284.18,-42.36 310,-34.5 318.78,-31.83 328.14,-29.41 337.4,-27.26"/>
<polygon fill="midnightblue" stroke="midnightblue" points="338.38,-30.63 347.38,-25.04 336.86,-23.8 338.38,-30.63"/>
</g>
<!-- Node4 -->
<g id="node4" class="node">
<title>Node4</title>
<g id="a_node4"><a xlink:href="wld__secDmnGrp_8c.html#ae5da21db2381b2d5a1f16df5d388d5df" target="_top" xlink:title=" ">
<polygon fill="white" stroke="black" points="533.5,-120 533.5,-139 671.5,-139 671.5,-120 533.5,-120"/>
<text text-anchor="middle" x="602.5" y="-127" font-family="Helvetica,sans-Serif" font-size="10.00">wld_secDmnGrp_getProc</text>
</a>
</g>
</g>
<!-- Node3&#45;&gt;Node4 -->
<g id="edge3" class="edge">
<title>Node3&#45;&gt;Node4</title>
<path fill="none" stroke="midnightblue" d="M477.51,-129.5C492.41,-129.5 508.13,-129.5 523.17,-129.5"/>
<polygon fill="midnightblue" stroke="midnightblue" points="523.46,-133 533.46,-129.5 523.46,-126 523.46,-133"/>
</g>
<!-- Node6 -->
<g id="node6" class="node">
<title>Node6</title>
<g id="a_node6"><a xlink:href="wld__daemon_8c.html#a6ba98a859d038541e1c2ee48d8566547" target="_top" xlink:title=" ">
<polygon fill="white" stroke="black" points="713,-66 713,-85 827,-85 827,-66 713,-66"/>
<text text-anchor="middle" x="770" y="-73" font-family="Helvetica,sans-Serif" font-size="10.00">wld_dmn_isRunning</text>
</a>
</g>
</g>
<!-- Node5&#45;&gt;Node6 -->
<g id="edge5" class="edge">
<title>Node5&#45;&gt;Node6</title>
<path fill="none" stroke="midnightblue" d="M668.91,-75.5C680.05,-75.5 691.62,-75.5 702.78,-75.5"/>
<polygon fill="midnightblue" stroke="midnightblue" points="702.89,-79 712.89,-75.5 702.89,-72 702.89,-79"/>
</g>
<!-- Node8&#45;&gt;Node5 -->
<g id="edge8" class="edge">
<title>Node8&#45;&gt;Node5</title>
<path fill="none" stroke="midnightblue" d="M456.6,-25C469.28,-27.69 482.7,-30.88 495,-34.5 520.93,-42.13 549.46,-53.27 570.46,-62.01"/>
<polygon fill="midnightblue" stroke="midnightblue" points="569.26,-65.3 579.83,-65.96 571.98,-58.85 569.26,-65.3"/>
</g>
<!-- Node9 -->
<g id="node9" class="node">
<title>Node9</title>
<g id="a_node9"><a xlink:href="wld__wpaCtrlMngr_8c.html#a3dc93dfda0d67c0e7254cc1ffeeb3ebe" target="_top" xlink:title=" ">
<polygon fill="white" stroke="black" points="531,-0.5 531,-30.5 674,-30.5 674,-0.5 531,-0.5"/>
<text text-anchor="start" x="539" y="-18.5" font-family="Helvetica,sans-Serif" font-size="10.00">wld_wpaCtrlMngr_getFirst</text>
<text text-anchor="middle" x="602.5" y="-7.5" font-family="Helvetica,sans-Serif" font-size="10.00">ReadyInterface</text>
</a>
</g>
</g>
<!-- Node8&#45;&gt;Node9 -->
<g id="edge9" class="edge">
<title>Node8&#45;&gt;Node9</title>
<path fill="none" stroke="midnightblue" d="M486.04,-15.5C497.41,-15.5 509.08,-15.5 520.43,-15.5"/>
<polygon fill="midnightblue" stroke="midnightblue" points="520.74,-19 530.74,-15.5 520.74,-12 520.74,-19"/>
</g>
<!-- Node10 -->
<g id="node10" class="node">
<title>Node10</title>
<g id="a_node10"><a xlink:href="wld__wpaCtrlInterface_8c.html#a8b38bc9ca95b60e002d38cdb1374d1d0" target="_top" xlink:title=" ">
<polygon fill="white" stroke="black" points="710,-0.5 710,-30.5 830,-30.5 830,-0.5 710,-0.5"/>
<text text-anchor="start" x="718" y="-18.5" font-family="Helvetica,sans-Serif" font-size="10.00">wld_wpaCtrlInterface</text>
<text text-anchor="middle" x="770" y="-7.5" font-family="Helvetica,sans-Serif" font-size="10.00">_isReady</text>
</a>
</g>
</g>
<!-- Node9&#45;&gt;Node10 -->
<g id="edge10" class="edge">
<title>Node9&#45;&gt;Node10</title>
<path fill="none" stroke="midnightblue" d="M674.17,-15.5C682.6,-15.5 691.2,-15.5 699.62,-15.5"/>
<polygon fill="midnightblue" stroke="midnightblue" points="699.76,-19 709.76,-15.5 699.76,-12 699.76,-19"/>
</g>
</g>
</svg>
