<?xml version="1.0" encoding="UTF-8" standalone="no"?>
<!DOCTYPE svg PUBLIC "-//W3C//DTD SVG 1.1//EN"
 "http://www.w3.org/Graphics/SVG/1.1/DTD/svg11.dtd">
<!-- Generated by graphviz version 2.43.0 (0)
 -->
<!-- Title: wifiGen_rad_delendpointif Pages: 1 -->
<svg width="933pt" height="142pt"
 viewBox="0.00 0.00 933.00 142.00" xmlns="http://www.w3.org/2000/svg" xmlns:xlink="http://www.w3.org/1999/xlink">
<g id="graph0" class="graph" transform="scale(1 1) rotate(0) translate(4 138)">
<title>wifiGen_rad_delendpointif</title>
<polygon fill="white" stroke="transparent" points="-4,4 -4,-138 929,-138 929,4 -4,4"/>
<!-- Node1 -->
<g id="node1" class="node">
<title>Node1</title>
<g id="a_node1"><a xlink:title=" ">
<polygon fill="#bfbfbf" stroke="black" points="0,-38.5 0,-57.5 144,-57.5 144,-38.5 0,-38.5"/>
<text text-anchor="middle" x="72" y="-45.5" font-family="Helvetica,sans-Serif" font-size="10.00">wifiGen_rad_delendpointif</text>
</a>
</g>
</g>
<!-- Node2 -->
<g id="node2" class="node">
<title>Node2</title>
<g id="a_node2"><a xlink:href="wld__linuxIfUtils_8c.html#a2ab34a55a32cf20d507167a9f2493897" target="_top" xlink:title=" ">
<polygon fill="white" stroke="black" points="180,-76.5 180,-95.5 343,-95.5 343,-76.5 180,-76.5"/>
<text text-anchor="middle" x="261.5" y="-83.5" font-family="Helvetica,sans-Serif" font-size="10.00">wld_linuxIfUtils_getIfIndexExt</text>
</a>
</g>
</g>
<!-- Node1&#45;&gt;Node2 -->
<g id="edge1" class="edge">
<title>Node1&#45;&gt;Node2</title>
<path fill="none" stroke="midnightblue" d="M120.31,-57.59C145.61,-62.72 176.95,-69.07 203.57,-74.46"/>
<polygon fill="midnightblue" stroke="midnightblue" points="203.03,-77.92 213.53,-76.48 204.42,-71.06 203.03,-77.92"/>
</g>
<!-- Node5 -->
<g id="node5" class="node">
<title>Node5</title>
<g id="a_node5"><a xlink:href="wld__nl80211__api_8c.html#a13e5b3c1c1cb6b0903ded6297c4741ab" target="_top" xlink:title=" ">
<polygon fill="white" stroke="black" points="190.5,-38.5 190.5,-57.5 332.5,-57.5 332.5,-38.5 190.5,-38.5"/>
<text text-anchor="middle" x="261.5" y="-45.5" font-family="Helvetica,sans-Serif" font-size="10.00">wld_nl80211_delInterface</text>
</a>
</g>
</g>
<!-- Node1&#45;&gt;Node5 -->
<g id="edge4" class="edge">
<title>Node1&#45;&gt;Node5</title>
<path fill="none" stroke="midnightblue" d="M144.15,-48C155.97,-48 168.3,-48 180.32,-48"/>
<polygon fill="midnightblue" stroke="midnightblue" points="180.33,-51.5 190.33,-48 180.33,-44.5 180.33,-51.5"/>
</g>
<!-- Node9 -->
<g id="node9" class="node">
<title>Node9</title>
<g id="a_node9"><a xlink:href="wld__nl80211__core_8c.html#ab89990c364e3256f803e95aee1684407" target="_top" xlink:title=" ">
<polygon fill="white" stroke="black" points="182.5,-0.5 182.5,-19.5 340.5,-19.5 340.5,-0.5 182.5,-0.5"/>
<text text-anchor="middle" x="261.5" y="-7.5" font-family="Helvetica,sans-Serif" font-size="10.00">wld_nl80211_getSharedState</text>
</a>
</g>
</g>
<!-- Node1&#45;&gt;Node9 -->
<g id="edge8" class="edge">
<title>Node1&#45;&gt;Node9</title>
<path fill="none" stroke="midnightblue" d="M120.31,-38.41C145.61,-33.28 176.95,-26.93 203.57,-21.54"/>
<polygon fill="midnightblue" stroke="midnightblue" points="204.42,-24.94 213.53,-19.52 203.03,-18.08 204.42,-24.94"/>
</g>
<!-- Node3 -->
<g id="node3" class="node">
<title>Node3</title>
<g id="a_node3"><a xlink:href="wld__linuxIfUtils_8c.html#ac8a1ce9d47dfdc09b23cd7fd4d4b63f3" target="_top" xlink:title=" ">
<polygon fill="white" stroke="black" points="402,-114.5 402,-133.5 549,-133.5 549,-114.5 402,-114.5"/>
<text text-anchor="middle" x="475.5" y="-121.5" font-family="Helvetica,sans-Serif" font-size="10.00">wld_linuxIfUtils_getIfIndex</text>
</a>
</g>
</g>
<!-- Node2&#45;&gt;Node3 -->
<g id="edge2" class="edge">
<title>Node2&#45;&gt;Node3</title>
<path fill="none" stroke="midnightblue" d="M315.72,-95.54C344.7,-100.73 380.75,-107.2 411.17,-112.65"/>
<polygon fill="midnightblue" stroke="midnightblue" points="410.79,-116.14 421.26,-114.46 412.03,-109.25 410.79,-116.14"/>
</g>
<!-- Node4 -->
<g id="node4" class="node">
<title>Node4</title>
<g id="a_node4"><a xlink:href="wld__linuxIfUtils_8c.html#a02092ba8d6dda33a584c37818c4af732" target="_top" xlink:title=" ">
<polygon fill="white" stroke="black" points="398.5,-76.5 398.5,-95.5 552.5,-95.5 552.5,-76.5 398.5,-76.5"/>
<text text-anchor="middle" x="475.5" y="-83.5" font-family="Helvetica,sans-Serif" font-size="10.00">wld_linuxIfUtils_getNetSock</text>
</a>
</g>
</g>
<!-- Node2&#45;&gt;Node4 -->
<g id="edge3" class="edge">
<title>Node2&#45;&gt;Node4</title>
<path fill="none" stroke="midnightblue" d="M343.25,-86C357.89,-86 373.22,-86 388.02,-86"/>
<polygon fill="midnightblue" stroke="midnightblue" points="388.16,-89.5 398.16,-86 388.16,-82.5 388.16,-89.5"/>
</g>
<!-- Node6 -->
<g id="node6" class="node">
<title>Node6</title>
<g id="a_node6"><a xlink:href="wld__nl80211__core_8c.html#a2f124c7a531325213fab90ab2a181035" target="_top" xlink:title=" ">
<polygon fill="white" stroke="black" points="379,-38.5 379,-57.5 572,-57.5 572,-38.5 379,-38.5"/>
<text text-anchor="middle" x="475.5" y="-45.5" font-family="Helvetica,sans-Serif" font-size="10.00">wld_nl80211_sendCmdSyncWithAck</text>
</a>
</g>
</g>
<!-- Node5&#45;&gt;Node6 -->
<g id="edge5" class="edge">
<title>Node5&#45;&gt;Node6</title>
<path fill="none" stroke="midnightblue" d="M332.5,-48C344.09,-48 356.33,-48 368.57,-48"/>
<polygon fill="midnightblue" stroke="midnightblue" points="368.84,-51.5 378.84,-48 368.84,-44.5 368.84,-51.5"/>
</g>
<!-- Node7 -->
<g id="node7" class="node">
<title>Node7</title>
<g id="a_node7"><a xlink:href="wld__nl80211__core_8c.html#a51795ba7297b263584b02e6dd2d8ddb6" target="_top" xlink:title=" ">
<polygon fill="white" stroke="black" points="608,-38.5 608,-57.5 760,-57.5 760,-38.5 608,-38.5"/>
<text text-anchor="middle" x="684" y="-45.5" font-family="Helvetica,sans-Serif" font-size="10.00">wld_nl80211_sendCmdSync</text>
</a>
</g>
</g>
<!-- Node6&#45;&gt;Node7 -->
<g id="edge6" class="edge">
<title>Node6&#45;&gt;Node7</title>
<path fill="none" stroke="midnightblue" d="M572.19,-48C580.67,-48 589.21,-48 597.6,-48"/>
<polygon fill="midnightblue" stroke="midnightblue" points="597.72,-51.5 607.72,-48 597.72,-44.5 597.72,-51.5"/>
</g>
<!-- Node8 -->
<g id="node8" class="node">
<title>Node8</title>
<g id="a_node8"><a xlink:href="wld__nl80211__core_8c.html#a3c5a525596463f925b95bbc76036d07e" target="_top" xlink:title=" ">
<polygon fill="white" stroke="black" points="796,-38.5 796,-57.5 925,-57.5 925,-38.5 796,-38.5"/>
<text text-anchor="middle" x="860.5" y="-45.5" font-family="Helvetica,sans-Serif" font-size="10.00">wld_nl80211_sendCmd</text>
</a>
</g>
</g>
<!-- Node7&#45;&gt;Node8 -->
<g id="edge7" class="edge">
<title>Node7&#45;&gt;Node8</title>
<path fill="none" stroke="midnightblue" d="M760.02,-48C768.49,-48 777.12,-48 785.57,-48"/>
<polygon fill="midnightblue" stroke="midnightblue" points="785.78,-51.5 795.78,-48 785.78,-44.5 785.78,-51.5"/>
</g>
<!-- Node10 -->
<g id="node10" class="node">
<title>Node10</title>
<g id="a_node10"><a xlink:href="wld__nl80211__core_8c.html#ac64e98962155641a465909b3c8fc0779" target="_top" xlink:title=" ">
<polygon fill="white" stroke="black" points="433,-0.5 433,-19.5 518,-19.5 518,-0.5 433,-0.5"/>
<text text-anchor="middle" x="475.5" y="-7.5" font-family="Helvetica,sans-Serif" font-size="10.00">s_isValidState</text>
</a>
</g>
</g>
<!-- Node9&#45;&gt;Node10 -->
<g id="edge9" class="edge">
<title>Node9&#45;&gt;Node10</title>
<path fill="none" stroke="midnightblue" d="M340.54,-10C367.91,-10 397.97,-10 422.66,-10"/>
<polygon fill="midnightblue" stroke="midnightblue" points="422.89,-13.5 432.89,-10 422.89,-6.5 422.89,-13.5"/>
</g>
</g>
</svg>
