<?xml version="1.0" encoding="UTF-8" standalone="no"?>
<!DOCTYPE svg PUBLIC "-//W3C//DTD SVG 1.1//EN"
 "http://www.w3.org/Graphics/SVG/1.1/DTD/svg11.dtd">
<!-- Generated by graphviz version 2.43.0 (0)
 -->
<!-- Title: wifiGen_vap_mf_sync Pages: 1 -->
<svg width="693pt" height="148pt"
 viewBox="0.00 0.00 693.00 148.00" xmlns="http://www.w3.org/2000/svg" xmlns:xlink="http://www.w3.org/1999/xlink">
<g id="graph0" class="graph" transform="scale(1 1) rotate(0) translate(4 144)">
<title>wifiGen_vap_mf_sync</title>
<polygon fill="white" stroke="transparent" points="-4,4 -4,-144 689,-144 689,4 -4,4"/>
<!-- Node1 -->
<g id="node1" class="node">
<title>Node1</title>
<g id="a_node1"><a xlink:title=" ">
<polygon fill="#bfbfbf" stroke="black" points="0,-82.5 0,-101.5 123,-101.5 123,-82.5 0,-82.5"/>
<text text-anchor="middle" x="61.5" y="-89.5" font-family="Helvetica,sans-Serif" font-size="10.00">wifiGen_vap_mf_sync</text>
</a>
</g>
</g>
<!-- Node2 -->
<g id="node2" class="node">
<title>Node2</title>
<g id="a_node2"><a xlink:href="wld__util_8c.html#af5db082125e72df08522688706e692a3" target="_top" xlink:title=" ">
<polygon fill="white" stroke="black" points="208,-120.5 208,-139.5 303,-139.5 303,-120.5 208,-120.5"/>
<text text-anchor="middle" x="255.5" y="-127.5" font-family="Helvetica,sans-Serif" font-size="10.00">setBitLongArray</text>
</a>
</g>
</g>
<!-- Node1&#45;&gt;Node2 -->
<g id="edge1" class="edge">
<title>Node1&#45;&gt;Node2</title>
<path fill="none" stroke="midnightblue" d="M110.95,-101.59C137.37,-106.82 170.21,-113.32 197.81,-118.78"/>
<polygon fill="midnightblue" stroke="midnightblue" points="197.23,-122.23 207.72,-120.74 198.59,-115.37 197.23,-122.23"/>
</g>
<!-- Node3 -->
<g id="node3" class="node">
<title>Node3</title>
<g id="a_node3"><a xlink:href="wld__hostapd__ap__api_8c.html#a1e366a6284b1effa9a17ef3e0ac27ec8" target="_top" xlink:title="set the MAC Filetring mode and list">
<polygon fill="white" stroke="black" points="159,-82.5 159,-101.5 352,-101.5 352,-82.5 159,-82.5"/>
<text text-anchor="middle" x="255.5" y="-89.5" font-family="Helvetica,sans-Serif" font-size="10.00">wld_ap_hostapd_setMacFilteringList</text>
</a>
</g>
</g>
<!-- Node1&#45;&gt;Node3 -->
<g id="edge2" class="edge">
<title>Node1&#45;&gt;Node3</title>
<path fill="none" stroke="midnightblue" d="M123.25,-92C131.38,-92 139.91,-92 148.54,-92"/>
<polygon fill="midnightblue" stroke="midnightblue" points="148.71,-95.5 158.71,-92 148.71,-88.5 148.71,-95.5"/>
</g>
<!-- Node4 -->
<g id="node4" class="node">
<title>Node4</title>
<g id="a_node4"><a xlink:href="wld__hostapd__cfgFile_8c.html#a0b0eb1c9360a3ff6e88bb54ada391a80" target="_top" xlink:title=" ">
<polygon fill="white" stroke="black" points="197.5,-33 197.5,-63 313.5,-63 313.5,-33 197.5,-33"/>
<text text-anchor="start" x="205.5" y="-51" font-family="Helvetica,sans-Serif" font-size="10.00">wld_hostapd_cfgFile</text>
<text text-anchor="middle" x="255.5" y="-40" font-family="Helvetica,sans-Serif" font-size="10.00">_createExt</text>
</a>
</g>
</g>
<!-- Node1&#45;&gt;Node4 -->
<g id="edge3" class="edge">
<title>Node1&#45;&gt;Node4</title>
<path fill="none" stroke="midnightblue" d="M104.16,-82.45C128.42,-76.89 159.59,-69.75 187.25,-63.41"/>
<polygon fill="midnightblue" stroke="midnightblue" points="188.3,-66.76 197.26,-61.12 186.73,-59.94 188.3,-66.76"/>
</g>
<!-- Node5 -->
<g id="node5" class="node">
<title>Node5</title>
<g id="a_node5"><a xlink:href="wld__hostapd__cfgFile_8c.html#ac14947168cc3ee47fd9e0ef512ee8f2a" target="_top" xlink:title="create a configuration file for the hostapd">
<polygon fill="white" stroke="black" points="388,-33 388,-63 504,-63 504,-33 388,-33"/>
<text text-anchor="start" x="396" y="-51" font-family="Helvetica,sans-Serif" font-size="10.00">wld_hostapd_cfgFile</text>
<text text-anchor="middle" x="446" y="-40" font-family="Helvetica,sans-Serif" font-size="10.00">_create</text>
</a>
</g>
</g>
<!-- Node4&#45;&gt;Node5 -->
<g id="edge4" class="edge">
<title>Node4&#45;&gt;Node5</title>
<path fill="none" stroke="midnightblue" d="M313.57,-48C333.78,-48 356.7,-48 377.68,-48"/>
<polygon fill="midnightblue" stroke="midnightblue" points="377.8,-51.5 387.8,-48 377.8,-44.5 377.8,-51.5"/>
</g>
<!-- Node6 -->
<g id="node6" class="node">
<title>Node6</title>
<g id="a_node6"><a xlink:href="wld__hostapd__cfgManager_8c.html#a230de7631aaa80ccf994572e40d95b70" target="_top" xlink:title="create wld_hostapd_config_t structure from Radio and Vaps configuration">
<polygon fill="white" stroke="black" points="540,-76.5 540,-95.5 685,-95.5 685,-76.5 540,-76.5"/>
<text text-anchor="middle" x="612.5" y="-83.5" font-family="Helvetica,sans-Serif" font-size="10.00">wld_hostapd_createConfig</text>
</a>
</g>
</g>
<!-- Node5&#45;&gt;Node6 -->
<g id="edge5" class="edge">
<title>Node5&#45;&gt;Node6</title>
<path fill="none" stroke="midnightblue" d="M504.07,-61.18C522.3,-65.39 542.36,-70.03 560.15,-74.14"/>
<polygon fill="midnightblue" stroke="midnightblue" points="559.81,-77.65 570.34,-76.49 561.38,-70.83 559.81,-77.65"/>
</g>
<!-- Node7 -->
<g id="node7" class="node">
<title>Node7</title>
<g id="a_node7"><a xlink:href="wld__hostapd__cfgManager_8c.html#abcd4b96a1191c1c593ab53f9d419e740" target="_top" xlink:title="delete a wld_hostapd_config_t map already loaded from hostapd file">
<polygon fill="white" stroke="black" points="540,-38.5 540,-57.5 685,-57.5 685,-38.5 540,-38.5"/>
<text text-anchor="middle" x="612.5" y="-45.5" font-family="Helvetica,sans-Serif" font-size="10.00">wld_hostapd_deleteConfig</text>
</a>
</g>
</g>
<!-- Node5&#45;&gt;Node7 -->
<g id="edge6" class="edge">
<title>Node5&#45;&gt;Node7</title>
<path fill="none" stroke="midnightblue" d="M504.07,-48C512.34,-48 520.99,-48 529.63,-48"/>
<polygon fill="midnightblue" stroke="midnightblue" points="529.75,-51.5 539.75,-48 529.75,-44.5 529.75,-51.5"/>
</g>
<!-- Node8 -->
<g id="node8" class="node">
<title>Node8</title>
<g id="a_node8"><a xlink:href="wld__hostapd__cfgManager_8c.html#aab797f94a64ba5206cdc5e379ba8d3e2" target="_top" xlink:title="write the content of hostapd_config into a file">
<polygon fill="white" stroke="black" points="543,-0.5 543,-19.5 682,-19.5 682,-0.5 543,-0.5"/>
<text text-anchor="middle" x="612.5" y="-7.5" font-family="Helvetica,sans-Serif" font-size="10.00">wld_hostapd_writeConfig</text>
</a>
</g>
</g>
<!-- Node5&#45;&gt;Node8 -->
<g id="edge7" class="edge">
<title>Node5&#45;&gt;Node8</title>
<path fill="none" stroke="midnightblue" d="M504.07,-34.82C522.3,-30.61 542.36,-25.97 560.15,-21.86"/>
<polygon fill="midnightblue" stroke="midnightblue" points="561.38,-25.17 570.34,-19.51 559.81,-18.35 561.38,-25.17"/>
</g>
</g>
</svg>
