<?xml version="1.0" encoding="UTF-8" standalone="no"?>
<!DOCTYPE svg PUBLIC "-//W3C//DTD SVG 1.1//EN"
 "http://www.w3.org/Graphics/SVG/1.1/DTD/svg11.dtd">
<!-- Generated by graphviz version 2.43.0 (0)
 -->
<!-- Title: src/Plugin/wifiGen_radIfMgt.c Pages: 1 -->
<svg width="4498pt" height="319pt"
 viewBox="0.00 0.00 4497.60 319.00" xmlns="http://www.w3.org/2000/svg" xmlns:xlink="http://www.w3.org/1999/xlink">
<g id="graph0" class="graph" transform="scale(1 1) rotate(0) translate(4 315)">
<title>src/Plugin/wifiGen_radIfMgt.c</title>
<polygon fill="white" stroke="transparent" points="-4,4 -4,-315 4493.6,-315 4493.6,4 -4,4"/>
<!-- Node1 -->
<g id="node1" class="node">
<title>Node1</title>
<g id="a_node1"><a xlink:title=" ">
<polygon fill="#bfbfbf" stroke="black" points="2191,-280.5 2191,-310.5 2295,-310.5 2295,-280.5 2191,-280.5"/>
<text text-anchor="start" x="2199" y="-298.5" font-family="Helvetica,sans-Serif" font-size="10.00">src/Plugin/wifiGen</text>
<text text-anchor="middle" x="2243" y="-287.5" font-family="Helvetica,sans-Serif" font-size="10.00">_radIfMgt.c</text>
</a>
</g>
</g>
<!-- Node2 -->
<g id="node2" class="node">
<title>Node2</title>
<g id="a_node2"><a xlink:title=" ">
<polygon fill="white" stroke="#bfbfbf" points="1725.5,-224.5 1725.5,-243.5 1776.5,-243.5 1776.5,-224.5 1725.5,-224.5"/>
<text text-anchor="middle" x="1751" y="-231.5" font-family="Helvetica,sans-Serif" font-size="10.00">errno.h</text>
</a>
</g>
</g>
<!-- Node1&#45;&gt;Node2 -->
<g id="edge1" class="edge">
<title>Node1&#45;&gt;Node2</title>
<path fill="none" stroke="midnightblue" d="M2190.91,-291.16C2107.54,-285.28 1938.91,-271.22 1786.53,-243.83"/>
<polygon fill="midnightblue" stroke="midnightblue" points="1786.99,-240.36 1776.52,-242.01 1785.73,-247.24 1786.99,-240.36"/>
</g>
<!-- Node3 -->
<g id="node3" class="node">
<title>Node3</title>
<g id="a_node3"><a xlink:title=" ">
<polygon fill="white" stroke="#bfbfbf" points="1795,-224.5 1795,-243.5 1845,-243.5 1845,-224.5 1795,-224.5"/>
<text text-anchor="middle" x="1820" y="-231.5" font-family="Helvetica,sans-Serif" font-size="10.00">net/if.h</text>
</a>
</g>
</g>
<!-- Node1&#45;&gt;Node3 -->
<g id="edge2" class="edge">
<title>Node1&#45;&gt;Node3</title>
<path fill="none" stroke="midnightblue" d="M2190.89,-289.25C2116.81,-281.43 1976.95,-265.31 1859,-244 1857.73,-243.77 1856.44,-243.53 1855.14,-243.27"/>
<polygon fill="midnightblue" stroke="midnightblue" points="1855.61,-239.8 1845.1,-241.17 1854.17,-246.65 1855.61,-239.8"/>
</g>
<!-- Node4 -->
<g id="node4" class="node">
<title>Node4</title>
<g id="a_node4"><a xlink:href="wld_8h.html" target="_top" xlink:title=" ">
<polygon fill="white" stroke="red" points="2426.5,-168.5 2426.5,-187.5 2489.5,-187.5 2489.5,-168.5 2426.5,-168.5"/>
<text text-anchor="middle" x="2458" y="-175.5" font-family="Helvetica,sans-Serif" font-size="10.00">wld/wld.h</text>
</a>
</g>
</g>
<!-- Node1&#45;&gt;Node4 -->
<g id="edge3" class="edge">
<title>Node1&#45;&gt;Node4</title>
<path fill="none" stroke="midnightblue" d="M2242.75,-280.47C2243.27,-264.52 2246.66,-238.77 2262,-224 2283.7,-203.1 2365.24,-189.92 2416.06,-183.56"/>
<polygon fill="midnightblue" stroke="midnightblue" points="2416.6,-187.02 2426.1,-182.34 2415.75,-180.07 2416.6,-187.02"/>
</g>
<!-- Node7 -->
<g id="node7" class="node">
<title>Node7</title>
<g id="a_node7"><a xlink:title=" ">
<polygon fill="white" stroke="#bfbfbf" points="0,-112.5 0,-131.5 110,-131.5 110,-112.5 0,-112.5"/>
<text text-anchor="middle" x="55" y="-119.5" font-family="Helvetica,sans-Serif" font-size="10.00">swl/swl_common.h</text>
</a>
</g>
</g>
<!-- Node1&#45;&gt;Node7 -->
<g id="edge59" class="edge">
<title>Node1&#45;&gt;Node7</title>
<path fill="none" stroke="midnightblue" d="M2190.9,-292.53C2121.24,-288.67 1994.63,-277.29 1892,-244 1873.85,-238.11 1872.4,-229.08 1854,-224 1488.23,-123.09 527.38,-160.31 149,-132 139.66,-131.3 129.8,-130.47 120.13,-129.59"/>
<polygon fill="midnightblue" stroke="midnightblue" points="120.42,-126.1 110.14,-128.67 119.78,-133.07 120.42,-126.1"/>
</g>
<!-- Node77 -->
<g id="node42" class="node">
<title>Node77</title>
<g id="a_node42"><a xlink:href="wld__radio_8h.html" target="_top" xlink:title=" ">
<polygon fill="white" stroke="red" points="2411.5,-224.5 2411.5,-243.5 2504.5,-243.5 2504.5,-224.5 2411.5,-224.5"/>
<text text-anchor="middle" x="2458" y="-231.5" font-family="Helvetica,sans-Serif" font-size="10.00">wld/wld_radio.h</text>
</a>
</g>
</g>
<!-- Node1&#45;&gt;Node77 -->
<g id="edge50" class="edge">
<title>Node1&#45;&gt;Node77</title>
<path fill="none" stroke="midnightblue" d="M2293.68,-280.47C2331.42,-270.03 2382.27,-255.96 2417.36,-246.25"/>
<polygon fill="midnightblue" stroke="midnightblue" points="2418.56,-249.55 2427.26,-243.51 2416.69,-242.8 2418.56,-249.55"/>
</g>
<!-- Node84 -->
<g id="node43" class="node">
<title>Node84</title>
<g id="a_node43"><a xlink:href="wld__util_8h.html" target="_top" xlink:title=" ">
<polygon fill="white" stroke="black" points="2523,-224.5 2523,-243.5 2607,-243.5 2607,-224.5 2523,-224.5"/>
<text text-anchor="middle" x="2565" y="-231.5" font-family="Helvetica,sans-Serif" font-size="10.00">wld/wld_util.h</text>
</a>
</g>
</g>
<!-- Node1&#45;&gt;Node84 -->
<g id="edge52" class="edge">
<title>Node1&#45;&gt;Node84</title>
<path fill="none" stroke="midnightblue" d="M2295.09,-284.87C2354.99,-273.81 2452.76,-255.74 2512.73,-244.66"/>
<polygon fill="midnightblue" stroke="midnightblue" points="2513.55,-248.07 2522.75,-242.81 2512.28,-241.18 2513.55,-248.07"/>
</g>
<!-- Node85 -->
<g id="node44" class="node">
<title>Node85</title>
<g id="a_node44"><a xlink:href="wld__ssid_8h.html" target="_top" xlink:title=" ">
<polygon fill="white" stroke="black" points="2625,-224.5 2625,-243.5 2713,-243.5 2713,-224.5 2625,-224.5"/>
<text text-anchor="middle" x="2669" y="-231.5" font-family="Helvetica,sans-Serif" font-size="10.00">wld/wld_ssid.h</text>
</a>
</g>
</g>
<!-- Node1&#45;&gt;Node85 -->
<g id="edge54" class="edge">
<title>Node1&#45;&gt;Node85</title>
<path fill="none" stroke="midnightblue" d="M2295.28,-287.99C2365.52,-279.11 2494.52,-262.37 2614.66,-244.16"/>
<polygon fill="midnightblue" stroke="midnightblue" points="2615.41,-247.59 2624.77,-242.62 2614.36,-240.67 2615.41,-247.59"/>
</g>
<!-- Node86 -->
<g id="node45" class="node">
<title>Node86</title>
<g id="a_node45"><a xlink:href="wld__linuxIfUtils_8h.html" target="_top" xlink:title=" ">
<polygon fill="white" stroke="red" points="2271,-224.5 2271,-243.5 2393,-243.5 2393,-224.5 2271,-224.5"/>
<text text-anchor="middle" x="2332" y="-231.5" font-family="Helvetica,sans-Serif" font-size="10.00">wld/wld_linuxIfUtils.h</text>
</a>
</g>
</g>
<!-- Node1&#45;&gt;Node86 -->
<g id="edge56" class="edge">
<title>Node1&#45;&gt;Node86</title>
<path fill="none" stroke="midnightblue" d="M2264.09,-280.4C2278.09,-271.04 2296.41,-258.79 2310.49,-249.38"/>
<polygon fill="midnightblue" stroke="midnightblue" points="2312.68,-252.13 2319.05,-243.66 2308.79,-246.31 2312.68,-252.13"/>
</g>
<!-- Node87 -->
<g id="node46" class="node">
<title>Node87</title>
<g id="a_node46"><a xlink:href="wld__rad__nl80211_8h.html" target="_top" xlink:title=" ">
<polygon fill="white" stroke="red" points="2731,-224.5 2731,-243.5 2859,-243.5 2859,-224.5 2731,-224.5"/>
<text text-anchor="middle" x="2795" y="-231.5" font-family="Helvetica,sans-Serif" font-size="10.00">wld/wld_rad_nl80211.h</text>
</a>
</g>
</g>
<!-- Node1&#45;&gt;Node87 -->
<g id="edge57" class="edge">
<title>Node1&#45;&gt;Node87</title>
<path fill="none" stroke="midnightblue" d="M2295.13,-289.31C2381.35,-280.65 2559.36,-262.51 2720.8,-244.12"/>
<polygon fill="midnightblue" stroke="midnightblue" points="2721.38,-247.58 2730.91,-242.97 2720.58,-240.62 2721.38,-247.58"/>
</g>
<!-- Node99 -->
<g id="node47" class="node">
<title>Node99</title>
<g id="a_node47"><a xlink:href="wifiGen__rad_8h.html" target="_top" xlink:title=" ">
<polygon fill="white" stroke="black" points="1901.5,-224.5 1901.5,-243.5 1984.5,-243.5 1984.5,-224.5 1901.5,-224.5"/>
<text text-anchor="middle" x="1943" y="-231.5" font-family="Helvetica,sans-Serif" font-size="10.00">wifiGen_rad.h</text>
</a>
</g>
</g>
<!-- Node1&#45;&gt;Node99 -->
<g id="edge60" class="edge">
<title>Node1&#45;&gt;Node99</title>
<path fill="none" stroke="midnightblue" d="M2190.74,-284.14C2135.59,-273.2 2049.2,-256.06 1994.38,-245.19"/>
<polygon fill="midnightblue" stroke="midnightblue" points="1995.02,-241.75 1984.53,-243.24 1993.65,-248.61 1995.02,-241.75"/>
</g>
<!-- Node100 -->
<g id="node48" class="node">
<title>Node100</title>
<g id="a_node48"><a xlink:href="wifiGen__hapd_8h.html" target="_top" xlink:title=" ">
<polygon fill="white" stroke="black" points="2003,-224.5 2003,-243.5 2095,-243.5 2095,-224.5 2003,-224.5"/>
<text text-anchor="middle" x="2049" y="-231.5" font-family="Helvetica,sans-Serif" font-size="10.00">wifiGen_hapd.h</text>
</a>
</g>
</g>
<!-- Node1&#45;&gt;Node100 -->
<g id="edge62" class="edge">
<title>Node1&#45;&gt;Node100</title>
<path fill="none" stroke="midnightblue" d="M2197.02,-280.4C2163.36,-270.07 2118.22,-256.23 2086.68,-246.56"/>
<polygon fill="midnightblue" stroke="midnightblue" points="2087.53,-243.16 2076.95,-243.57 2085.48,-249.85 2087.53,-243.16"/>
</g>
<!-- Node101 -->
<g id="node49" class="node">
<title>Node101</title>
<g id="a_node49"><a xlink:href="wifiGen__events_8h.html" target="_top" xlink:title=" ">
<polygon fill="white" stroke="black" points="2113.5,-224.5 2113.5,-243.5 2214.5,-243.5 2214.5,-224.5 2113.5,-224.5"/>
<text text-anchor="middle" x="2164" y="-231.5" font-family="Helvetica,sans-Serif" font-size="10.00">wifiGen_events.h</text>
</a>
</g>
</g>
<!-- Node1&#45;&gt;Node101 -->
<g id="edge64" class="edge">
<title>Node1&#45;&gt;Node101</title>
<path fill="none" stroke="midnightblue" d="M2224.28,-280.4C2212.09,-271.22 2196.21,-259.26 2183.81,-249.92"/>
<polygon fill="midnightblue" stroke="midnightblue" points="2185.59,-246.88 2175.5,-243.66 2181.38,-252.47 2185.59,-246.88"/>
</g>
<!-- Node102 -->
<g id="node50" class="node">
<title>Node102</title>
<g id="a_node50"><a xlink:href="wifiGen__fsm_8h.html" target="_top" xlink:title=" ">
<polygon fill="white" stroke="black" points="2877,-224.5 2877,-243.5 2963,-243.5 2963,-224.5 2877,-224.5"/>
<text text-anchor="middle" x="2920" y="-231.5" font-family="Helvetica,sans-Serif" font-size="10.00">wifiGen_fsm.h</text>
</a>
</g>
</g>
<!-- Node1&#45;&gt;Node102 -->
<g id="edge66" class="edge">
<title>Node1&#45;&gt;Node102</title>
<path fill="none" stroke="midnightblue" d="M2295.02,-291.9C2400.79,-286.26 2648.67,-271.28 2866.88,-244.03"/>
<polygon fill="midnightblue" stroke="midnightblue" points="2867.43,-247.49 2876.92,-242.77 2866.56,-240.54 2867.43,-247.49"/>
</g>
<!-- Node5 -->
<g id="node5" class="node">
<title>Node5</title>
<g id="a_node5"><a xlink:title=" ">
<polygon fill="white" stroke="#bfbfbf" points="4376,-56.5 4376,-75.5 4438,-75.5 4438,-56.5 4376,-56.5"/>
<text text-anchor="middle" x="4407" y="-63.5" font-family="Helvetica,sans-Serif" font-size="10.00">stdbool.h</text>
</a>
</g>
</g>
<!-- Node4&#45;&gt;Node5 -->
<g id="edge4" class="edge">
<title>Node4&#45;&gt;Node5</title>
<path fill="none" stroke="midnightblue" d="M2489.73,-176.9C2743.06,-176.03 4428.94,-168.87 4465,-132 4481.73,-114.89 4455.63,-94.11 4433.25,-80.72"/>
<polygon fill="midnightblue" stroke="midnightblue" points="4434.75,-77.55 4424.33,-75.64 4431.29,-83.63 4434.75,-77.55"/>
</g>
<!-- Node6 -->
<g id="node6" class="node">
<title>Node6</title>
<g id="a_node6"><a xlink:title=" ">
<polygon fill="white" stroke="#bfbfbf" points="1989.5,-0.5 1989.5,-19.5 2042.5,-19.5 2042.5,-0.5 1989.5,-0.5"/>
<text text-anchor="middle" x="2016" y="-7.5" font-family="Helvetica,sans-Serif" font-size="10.00">stdint.h</text>
</a>
</g>
</g>
<!-- Node4&#45;&gt;Node6 -->
<g id="edge5" class="edge">
<title>Node4&#45;&gt;Node6</title>
<path fill="none" stroke="midnightblue" d="M2426.42,-176.46C2150.7,-171.71 162.21,-137.31 157,-132 150.78,-125.65 150.89,-118.45 157,-112 222.05,-43.32 1723.14,-15.78 1979.06,-11.58"/>
<polygon fill="midnightblue" stroke="midnightblue" points="1979.37,-15.08 1989.31,-11.41 1979.26,-8.08 1979.37,-15.08"/>
</g>
<!-- Node4&#45;&gt;Node7 -->
<g id="edge6" class="edge">
<title>Node4&#45;&gt;Node7</title>
<path fill="none" stroke="midnightblue" d="M2426.36,-176.49C2156.22,-172.12 244.17,-140.97 124,-132 122.89,-131.92 121.76,-131.83 120.63,-131.73"/>
<polygon fill="midnightblue" stroke="midnightblue" points="120.59,-128.21 110.31,-130.76 119.93,-135.18 120.59,-128.21"/>
</g>
<!-- Node8 -->
<g id="node8" class="node">
<title>Node8</title>
<g id="a_node8"><a xlink:title=" ">
<polygon fill="white" stroke="#bfbfbf" points="166,-112.5 166,-131.5 302,-131.5 302,-112.5 166,-112.5"/>
<text text-anchor="middle" x="234" y="-119.5" font-family="Helvetica,sans-Serif" font-size="10.00">swla/swla_commonLib.h</text>
</a>
</g>
</g>
<!-- Node4&#45;&gt;Node8 -->
<g id="edge7" class="edge">
<title>Node4&#45;&gt;Node8</title>
<path fill="none" stroke="midnightblue" d="M2426.35,-176.52C2180.29,-172.76 575.66,-147.82 312.56,-131.99"/>
<polygon fill="midnightblue" stroke="midnightblue" points="312.61,-128.49 302.4,-131.34 312.16,-135.47 312.61,-128.49"/>
</g>
<!-- Node9 -->
<g id="node9" class="node">
<title>Node9</title>
<g id="a_node9"><a xlink:title=" ">
<polygon fill="white" stroke="#bfbfbf" points="320,-112.5 320,-131.5 408,-131.5 408,-112.5 320,-112.5"/>
<text text-anchor="middle" x="364" y="-119.5" font-family="Helvetica,sans-Serif" font-size="10.00">swl/swl_uuid.h</text>
</a>
</g>
</g>
<!-- Node4&#45;&gt;Node9 -->
<g id="edge8" class="edge">
<title>Node4&#45;&gt;Node9</title>
<path fill="none" stroke="midnightblue" d="M2426.49,-176.44C2182.28,-172.06 596.59,-143.32 418.37,-131.78"/>
<polygon fill="midnightblue" stroke="midnightblue" points="418.42,-128.28 408.18,-131 417.88,-135.26 418.42,-128.28"/>
</g>
<!-- Node10 -->
<g id="node10" class="node">
<title>Node10</title>
<g id="a_node10"><a xlink:title=" ">
<polygon fill="white" stroke="#bfbfbf" points="426,-112.5 426,-131.5 578,-131.5 578,-112.5 426,-112.5"/>
<text text-anchor="middle" x="502" y="-119.5" font-family="Helvetica,sans-Serif" font-size="10.00">swla/swla_radioStandards.h</text>
</a>
</g>
</g>
<!-- Node4&#45;&gt;Node10 -->
<g id="edge9" class="edge">
<title>Node4&#45;&gt;Node10</title>
<path fill="none" stroke="midnightblue" d="M2426.14,-176.39C2198.5,-172.02 821.49,-145.21 588.64,-132.01"/>
<polygon fill="midnightblue" stroke="midnightblue" points="588.62,-128.5 578.43,-131.39 588.2,-135.49 588.62,-128.5"/>
</g>
<!-- Node11 -->
<g id="node11" class="node">
<title>Node11</title>
<g id="a_node11"><a xlink:title=" ">
<polygon fill="white" stroke="#bfbfbf" points="4241.5,-0.5 4241.5,-19.5 4342.5,-19.5 4342.5,-0.5 4241.5,-0.5"/>
<text text-anchor="middle" x="4292" y="-7.5" font-family="Helvetica,sans-Serif" font-size="10.00">swla/swla_time.h</text>
</a>
</g>
</g>
<!-- Node4&#45;&gt;Node11 -->
<g id="edge10" class="edge">
<title>Node4&#45;&gt;Node11</title>
<path fill="none" stroke="midnightblue" d="M2489.58,-176.91C2743.54,-176.08 4444.64,-169.18 4481,-132 4504.68,-107.79 4474.61,-77.16 4447,-56 4419.92,-35.25 4383.55,-24.06 4352.84,-18.03"/>
<polygon fill="midnightblue" stroke="midnightblue" points="4353.13,-14.52 4342.66,-16.17 4351.88,-21.41 4353.13,-14.52"/>
</g>
<!-- Node12 -->
<g id="node12" class="node">
<title>Node12</title>
<g id="a_node12"><a xlink:title=" ">
<polygon fill="white" stroke="#bfbfbf" points="681.5,-112.5 681.5,-131.5 810.5,-131.5 810.5,-112.5 681.5,-112.5"/>
<text text-anchor="middle" x="746" y="-119.5" font-family="Helvetica,sans-Serif" font-size="10.00">swla/swla_time_spec.h</text>
</a>
</g>
</g>
<!-- Node4&#45;&gt;Node12 -->
<g id="edge11" class="edge">
<title>Node4&#45;&gt;Node12</title>
<path fill="none" stroke="midnightblue" d="M2426.19,-176.53C2228.92,-173.58 1170.06,-156.81 820.67,-131.95"/>
<polygon fill="midnightblue" stroke="midnightblue" points="820.77,-128.45 810.54,-131.21 820.26,-135.43 820.77,-128.45"/>
</g>
<!-- Node13 -->
<g id="node13" class="node">
<title>Node13</title>
<g id="a_node13"><a xlink:title=" ">
<polygon fill="white" stroke="#bfbfbf" points="829,-112.5 829,-131.5 923,-131.5 923,-112.5 829,-112.5"/>
<text text-anchor="middle" x="876" y="-119.5" font-family="Helvetica,sans-Serif" font-size="10.00">swla/swla_oui.h</text>
</a>
</g>
</g>
<!-- Node4&#45;&gt;Node13 -->
<g id="edge12" class="edge">
<title>Node4&#45;&gt;Node13</title>
<path fill="none" stroke="midnightblue" d="M2426.21,-176.63C2237.16,-174.32 1258.28,-161.16 933.64,-132"/>
<polygon fill="midnightblue" stroke="midnightblue" points="933.58,-128.48 923.3,-131.04 932.94,-135.45 933.58,-128.48"/>
</g>
<!-- Node14 -->
<g id="node14" class="node">
<title>Node14</title>
<g id="a_node14"><a xlink:title=" ">
<polygon fill="white" stroke="#bfbfbf" points="941,-112.5 941,-131.5 1069,-131.5 1069,-112.5 941,-112.5"/>
<text text-anchor="middle" x="1005" y="-119.5" font-family="Helvetica,sans-Serif" font-size="10.00">swla/swla_delayExec.h</text>
</a>
</g>
</g>
<!-- Node4&#45;&gt;Node14 -->
<g id="edge13" class="edge">
<title>Node4&#45;&gt;Node14</title>
<path fill="none" stroke="midnightblue" d="M2426.4,-176.36C2248.88,-172.69 1373.54,-153.82 1079.28,-132.01"/>
<polygon fill="midnightblue" stroke="midnightblue" points="1079.3,-128.5 1069.06,-131.23 1078.77,-135.48 1079.3,-128.5"/>
</g>
<!-- Node15 -->
<g id="node15" class="node">
<title>Node15</title>
<g id="a_node15"><a xlink:title=" ">
<polygon fill="white" stroke="#bfbfbf" points="1087.5,-112.5 1087.5,-131.5 1206.5,-131.5 1206.5,-112.5 1087.5,-112.5"/>
<text text-anchor="middle" x="1147" y="-119.5" font-family="Helvetica,sans-Serif" font-size="10.00">swla/swla_function.h</text>
</a>
</g>
</g>
<!-- Node4&#45;&gt;Node15 -->
<g id="edge14" class="edge">
<title>Node4&#45;&gt;Node15</title>
<path fill="none" stroke="midnightblue" d="M2426.24,-176.96C2285.51,-176.57 1703.96,-172.5 1216.72,-132.06"/>
<polygon fill="midnightblue" stroke="midnightblue" points="1216.93,-128.57 1206.67,-131.22 1216.34,-135.55 1216.93,-128.57"/>
</g>
<!-- Node16 -->
<g id="node16" class="node">
<title>Node16</title>
<g id="a_node16"><a xlink:title=" ">
<polygon fill="white" stroke="#bfbfbf" points="1224.5,-112.5 1224.5,-131.5 1365.5,-131.5 1365.5,-112.5 1224.5,-112.5"/>
<text text-anchor="middle" x="1295" y="-119.5" font-family="Helvetica,sans-Serif" font-size="10.00">swl/swl_usp_cmdStatus.h</text>
</a>
</g>
</g>
<!-- Node4&#45;&gt;Node16 -->
<g id="edge15" class="edge">
<title>Node4&#45;&gt;Node16</title>
<path fill="none" stroke="midnightblue" d="M2426.5,-176.5C2297.68,-174.3 1798.27,-164.1 1375.92,-132.01"/>
<polygon fill="midnightblue" stroke="midnightblue" points="1375.88,-128.49 1365.64,-131.22 1375.35,-135.47 1375.88,-128.49"/>
</g>
<!-- Node17 -->
<g id="node17" class="node">
<title>Node17</title>
<g id="a_node17"><a xlink:title=" ">
<polygon fill="white" stroke="#bfbfbf" points="1384,-112.5 1384,-131.5 1470,-131.5 1470,-112.5 1384,-112.5"/>
<text text-anchor="middle" x="1427" y="-119.5" font-family="Helvetica,sans-Serif" font-size="10.00">swl/swl_wps.h</text>
</a>
</g>
</g>
<!-- Node4&#45;&gt;Node17 -->
<g id="edge16" class="edge">
<title>Node4&#45;&gt;Node17</title>
<path fill="none" stroke="midnightblue" d="M2426.19,-176.99C2304.65,-176.63 1857.79,-172.53 1480.1,-131.97"/>
<polygon fill="midnightblue" stroke="midnightblue" points="1480.39,-128.48 1470.07,-130.88 1479.64,-135.44 1480.39,-128.48"/>
</g>
<!-- Node18 -->
<g id="node18" class="node">
<title>Node18</title>
<g id="a_node18"><a xlink:title=" ">
<polygon fill="white" stroke="#bfbfbf" points="1488,-112.5 1488,-131.5 1592,-131.5 1592,-112.5 1488,-112.5"/>
<text text-anchor="middle" x="1540" y="-119.5" font-family="Helvetica,sans-Serif" font-size="10.00">swl/swl_security.h</text>
</a>
</g>
</g>
<!-- Node4&#45;&gt;Node18 -->
<g id="edge17" class="edge">
<title>Node4&#45;&gt;Node18</title>
<path fill="none" stroke="midnightblue" d="M2426.4,-176.41C2315.04,-174.12 1930.34,-164.27 1602.38,-132.04"/>
<polygon fill="midnightblue" stroke="midnightblue" points="1602.5,-128.54 1592.2,-131.03 1601.81,-135.5 1602.5,-128.54"/>
</g>
<!-- Node19 -->
<g id="node19" class="node">
<title>Node19</title>
<g id="a_node19"><a xlink:title=" ">
<polygon fill="white" stroke="#bfbfbf" points="1610.5,-112.5 1610.5,-131.5 1693.5,-131.5 1693.5,-112.5 1610.5,-112.5"/>
<text text-anchor="middle" x="1652" y="-119.5" font-family="Helvetica,sans-Serif" font-size="10.00">amxc/amxc.h</text>
</a>
</g>
</g>
<!-- Node4&#45;&gt;Node19 -->
<g id="edge18" class="edge">
<title>Node4&#45;&gt;Node19</title>
<path fill="none" stroke="midnightblue" d="M2426.24,-176.41C2323.38,-174.24 1990.02,-165.05 1703.85,-131.95"/>
<polygon fill="midnightblue" stroke="midnightblue" points="1704.03,-128.45 1693.69,-130.76 1703.22,-135.4 1704.03,-128.45"/>
</g>
<!-- Node20 -->
<g id="node20" class="node">
<title>Node20</title>
<g id="a_node20"><a xlink:title=" ">
<polygon fill="white" stroke="#bfbfbf" points="1712,-112.5 1712,-131.5 1796,-131.5 1796,-112.5 1712,-112.5"/>
<text text-anchor="middle" x="1754" y="-119.5" font-family="Helvetica,sans-Serif" font-size="10.00">amxp/amxp.h</text>
</a>
</g>
</g>
<!-- Node4&#45;&gt;Node20 -->
<g id="edge19" class="edge">
<title>Node4&#45;&gt;Node20</title>
<path fill="none" stroke="midnightblue" d="M2426.29,-176.01C2332.89,-172.82 2050.58,-161.4 1806.38,-132.04"/>
<polygon fill="midnightblue" stroke="midnightblue" points="1806.6,-128.54 1796.25,-130.81 1805.75,-135.49 1806.6,-128.54"/>
</g>
<!-- Node21 -->
<g id="node21" class="node">
<title>Node21</title>
<g id="a_node21"><a xlink:title=" ">
<polygon fill="white" stroke="#bfbfbf" points="1814,-112.5 1814,-131.5 1954,-131.5 1954,-112.5 1814,-112.5"/>
<text text-anchor="middle" x="1884" y="-119.5" font-family="Helvetica,sans-Serif" font-size="10.00">amxd/amxd_parameter.h</text>
</a>
</g>
</g>
<!-- Node4&#45;&gt;Node21 -->
<g id="edge20" class="edge">
<title>Node4&#45;&gt;Node21</title>
<path fill="none" stroke="midnightblue" d="M2426.41,-174.38C2349.37,-167.94 2145.45,-150.55 1964.18,-132.1"/>
<polygon fill="midnightblue" stroke="midnightblue" points="1964.51,-128.62 1954.2,-131.08 1963.79,-135.58 1964.51,-128.62"/>
</g>
<!-- Node22 -->
<g id="node22" class="node">
<title>Node22</title>
<g id="a_node22"><a xlink:title=" ">
<polygon fill="white" stroke="#bfbfbf" points="1972.5,-112.5 1972.5,-131.5 2091.5,-131.5 2091.5,-112.5 1972.5,-112.5"/>
<text text-anchor="middle" x="2032" y="-119.5" font-family="Helvetica,sans-Serif" font-size="10.00">amxd/amxd_action.h</text>
</a>
</g>
</g>
<!-- Node4&#45;&gt;Node22 -->
<g id="edge21" class="edge">
<title>Node4&#45;&gt;Node22</title>
<path fill="none" stroke="midnightblue" d="M2426.38,-173.1C2365.62,-165.58 2228.03,-148.48 2101.92,-132.24"/>
<polygon fill="midnightblue" stroke="midnightblue" points="2102.07,-128.73 2091.7,-130.92 2101.17,-135.67 2102.07,-128.73"/>
</g>
<!-- Node23 -->
<g id="node23" class="node">
<title>Node23</title>
<g id="a_node23"><a xlink:title=" ">
<polygon fill="white" stroke="#bfbfbf" points="2109.5,-112.5 2109.5,-131.5 2284.5,-131.5 2284.5,-112.5 2109.5,-112.5"/>
<text text-anchor="middle" x="2197" y="-119.5" font-family="Helvetica,sans-Serif" font-size="10.00">amxd/amxd_object_parameter.h</text>
</a>
</g>
</g>
<!-- Node4&#45;&gt;Node23 -->
<g id="edge22" class="edge">
<title>Node4&#45;&gt;Node23</title>
<path fill="none" stroke="midnightblue" d="M2426.26,-170.43C2381.97,-161.27 2301.14,-144.55 2248.25,-133.6"/>
<polygon fill="midnightblue" stroke="midnightblue" points="2248.9,-130.16 2238.4,-131.56 2247.48,-137.02 2248.9,-130.16"/>
</g>
<!-- Node24 -->
<g id="node24" class="node">
<title>Node24</title>
<g id="a_node24"><a xlink:title=" ">
<polygon fill="white" stroke="#bfbfbf" points="2303,-112.5 2303,-131.5 2455,-131.5 2455,-112.5 2303,-112.5"/>
<text text-anchor="middle" x="2379" y="-119.5" font-family="Helvetica,sans-Serif" font-size="10.00">amxd/amxd_object_event.h</text>
</a>
</g>
</g>
<!-- Node4&#45;&gt;Node24 -->
<g id="edge23" class="edge">
<title>Node4&#45;&gt;Node24</title>
<path fill="none" stroke="midnightblue" d="M2445.31,-168.32C2433.1,-159.98 2414.42,-147.21 2400,-137.35"/>
<polygon fill="midnightblue" stroke="midnightblue" points="2401.89,-134.41 2391.66,-131.65 2397.94,-140.19 2401.89,-134.41"/>
</g>
<!-- Node25 -->
<g id="node25" class="node">
<title>Node25</title>
<g id="a_node25"><a xlink:title=" ">
<polygon fill="white" stroke="#bfbfbf" points="2473.5,-112.5 2473.5,-131.5 2602.5,-131.5 2602.5,-112.5 2473.5,-112.5"/>
<text text-anchor="middle" x="2538" y="-119.5" font-family="Helvetica,sans-Serif" font-size="10.00">amxd/amxd_function.h</text>
</a>
</g>
</g>
<!-- Node4&#45;&gt;Node25 -->
<g id="edge24" class="edge">
<title>Node4&#45;&gt;Node25</title>
<path fill="none" stroke="midnightblue" d="M2470.85,-168.32C2483.22,-159.98 2502.13,-147.21 2516.74,-137.35"/>
<polygon fill="midnightblue" stroke="midnightblue" points="2518.85,-140.15 2525.18,-131.65 2514.93,-134.35 2518.85,-140.15"/>
</g>
<!-- Node26 -->
<g id="node26" class="node">
<title>Node26</title>
<g id="a_node26"><a xlink:title=" ">
<polygon fill="white" stroke="#bfbfbf" points="2620.5,-112.5 2620.5,-131.5 2789.5,-131.5 2789.5,-112.5 2620.5,-112.5"/>
<text text-anchor="middle" x="2705" y="-119.5" font-family="Helvetica,sans-Serif" font-size="10.00">amxd/amxd_object_hierarchy.h</text>
</a>
</g>
</g>
<!-- Node4&#45;&gt;Node26 -->
<g id="edge25" class="edge">
<title>Node4&#45;&gt;Node26</title>
<path fill="none" stroke="midnightblue" d="M2489.53,-170.11C2531.63,-160.9 2606.62,-144.51 2656.09,-133.69"/>
<polygon fill="midnightblue" stroke="midnightblue" points="2656.91,-137.1 2665.93,-131.54 2655.41,-130.26 2656.91,-137.1"/>
</g>
<!-- Node27 -->
<g id="node27" class="node">
<title>Node27</title>
<g id="a_node27"><a xlink:title=" ">
<polygon fill="white" stroke="#bfbfbf" points="2807.5,-112.5 2807.5,-131.5 2926.5,-131.5 2926.5,-112.5 2807.5,-112.5"/>
<text text-anchor="middle" x="2867" y="-119.5" font-family="Helvetica,sans-Serif" font-size="10.00">amxd/amxd_object.h</text>
</a>
</g>
</g>
<!-- Node4&#45;&gt;Node27 -->
<g id="edge26" class="edge">
<title>Node4&#45;&gt;Node27</title>
<path fill="none" stroke="midnightblue" d="M2489.97,-172.79C2548.7,-165.04 2678.01,-147.99 2797.26,-132.23"/>
<polygon fill="midnightblue" stroke="midnightblue" points="2797.84,-135.68 2807.3,-130.9 2796.92,-128.74 2797.84,-135.68"/>
</g>
<!-- Node28 -->
<g id="node28" class="node">
<title>Node28</title>
<g id="a_node28"><a xlink:title=" ">
<polygon fill="white" stroke="#bfbfbf" points="2944.5,-112.5 2944.5,-131.5 3049.5,-131.5 3049.5,-112.5 2944.5,-112.5"/>
<text text-anchor="middle" x="2997" y="-119.5" font-family="Helvetica,sans-Serif" font-size="10.00">amxd/amxd_dm.h</text>
</a>
</g>
</g>
<!-- Node4&#45;&gt;Node28 -->
<g id="edge27" class="edge">
<title>Node4&#45;&gt;Node28</title>
<path fill="none" stroke="midnightblue" d="M2489.66,-174.6C2564.91,-168.77 2760.58,-152.88 2934.36,-132.15"/>
<polygon fill="midnightblue" stroke="midnightblue" points="2934.94,-135.6 2944.45,-130.93 2934.1,-128.65 2934.94,-135.6"/>
</g>
<!-- Node29 -->
<g id="node29" class="node">
<title>Node29</title>
<g id="a_node29"><a xlink:title=" ">
<polygon fill="white" stroke="#bfbfbf" points="3068,-112.5 3068,-131.5 3212,-131.5 3212,-112.5 3068,-112.5"/>
<text text-anchor="middle" x="3140" y="-119.5" font-family="Helvetica,sans-Serif" font-size="10.00">amxd/amxd_transaction.h</text>
</a>
</g>
</g>
<!-- Node4&#45;&gt;Node29 -->
<g id="edge28" class="edge">
<title>Node4&#45;&gt;Node29</title>
<path fill="none" stroke="midnightblue" d="M2489.64,-175.03C2577.79,-169.47 2833.87,-152.72 3057.63,-132.1"/>
<polygon fill="midnightblue" stroke="midnightblue" points="3057.96,-135.58 3067.59,-131.18 3057.31,-128.61 3057.96,-135.58"/>
</g>
<!-- Node30 -->
<g id="node30" class="node">
<title>Node30</title>
<g id="a_node30"><a xlink:title=" ">
<polygon fill="white" stroke="#bfbfbf" points="3230,-112.5 3230,-131.5 3346,-131.5 3346,-112.5 3230,-112.5"/>
<text text-anchor="middle" x="3288" y="-119.5" font-family="Helvetica,sans-Serif" font-size="10.00">amxb/amxb_types.h</text>
</a>
</g>
</g>
<!-- Node4&#45;&gt;Node30 -->
<g id="edge29" class="edge">
<title>Node4&#45;&gt;Node30</title>
<path fill="none" stroke="midnightblue" d="M2489.68,-175.98C2593.05,-172.47 2929.99,-159.62 3219.64,-132.06"/>
<polygon fill="midnightblue" stroke="midnightblue" points="3220.31,-135.51 3229.93,-131.07 3219.64,-128.54 3220.31,-135.51"/>
</g>
<!-- Node31 -->
<g id="node31" class="node">
<title>Node31</title>
<g id="a_node31"><a xlink:title=" ">
<polygon fill="white" stroke="#bfbfbf" points="3364,-112.5 3364,-131.5 3500,-131.5 3500,-112.5 3364,-112.5"/>
<text text-anchor="middle" x="3432" y="-119.5" font-family="Helvetica,sans-Serif" font-size="10.00">amxb/amxb_operators.h</text>
</a>
</g>
</g>
<!-- Node4&#45;&gt;Node31 -->
<g id="edge30" class="edge">
<title>Node4&#45;&gt;Node31</title>
<path fill="none" stroke="midnightblue" d="M2489.83,-176.17C2604.73,-173 3009.03,-160.45 3353.42,-132.08"/>
<polygon fill="midnightblue" stroke="midnightblue" points="3353.91,-135.55 3363.59,-131.23 3353.33,-128.57 3353.91,-135.55"/>
</g>
<!-- Node32 -->
<g id="node32" class="node">
<title>Node32</title>
<g id="a_node32"><a xlink:title=" ">
<polygon fill="white" stroke="#bfbfbf" points="3518,-112.5 3518,-131.5 3630,-131.5 3630,-112.5 3518,-112.5"/>
<text text-anchor="middle" x="3574" y="-119.5" font-family="Helvetica,sans-Serif" font-size="10.00">amxb/amxb_error.h</text>
</a>
</g>
</g>
<!-- Node4&#45;&gt;Node32 -->
<g id="edge31" class="edge">
<title>Node4&#45;&gt;Node32</title>
<path fill="none" stroke="midnightblue" d="M2489.89,-176.74C2616.98,-175.45 3099.82,-168.39 3507.45,-132.05"/>
<polygon fill="midnightblue" stroke="midnightblue" points="3508.02,-135.51 3517.67,-131.13 3507.39,-128.54 3508.02,-135.51"/>
</g>
<!-- Node33 -->
<g id="node33" class="node">
<title>Node33</title>
<g id="a_node33"><a xlink:title=" ">
<polygon fill="white" stroke="#bfbfbf" points="3648.5,-112.5 3648.5,-131.5 3731.5,-131.5 3731.5,-112.5 3648.5,-112.5"/>
<text text-anchor="middle" x="3690" y="-119.5" font-family="Helvetica,sans-Serif" font-size="10.00">amxo/amxo.h</text>
</a>
</g>
</g>
<!-- Node4&#45;&gt;Node33 -->
<g id="edge32" class="edge">
<title>Node4&#45;&gt;Node33</title>
<path fill="none" stroke="midnightblue" d="M2489.59,-177.38C2625.8,-178.67 3176.39,-180.5 3638.11,-131.92"/>
<polygon fill="midnightblue" stroke="midnightblue" points="3638.74,-135.37 3648.32,-130.83 3638,-128.41 3638.74,-135.37"/>
</g>
<!-- Node34 -->
<g id="node34" class="node">
<title>Node34</title>
<g id="a_node34"><a xlink:title=" ">
<polygon fill="white" stroke="#bfbfbf" points="3749.5,-112.5 3749.5,-131.5 3864.5,-131.5 3864.5,-112.5 3749.5,-112.5"/>
<text text-anchor="middle" x="3807" y="-119.5" font-family="Helvetica,sans-Serif" font-size="10.00">amxo/amxo_types.h</text>
</a>
</g>
</g>
<!-- Node4&#45;&gt;Node34 -->
<g id="edge33" class="edge">
<title>Node4&#45;&gt;Node34</title>
<path fill="none" stroke="midnightblue" d="M2489.81,-177.06C2633.39,-177.09 3235.55,-174.56 3739.43,-132.05"/>
<polygon fill="midnightblue" stroke="midnightblue" points="3739.78,-135.53 3749.44,-131.19 3739.18,-128.55 3739.78,-135.53"/>
</g>
<!-- Node35 -->
<g id="node35" class="node">
<title>Node35</title>
<g id="a_node35"><a xlink:href="wld__types_8h.html" target="_top" xlink:title=" ">
<polygon fill="white" stroke="red" points="3888.5,-56.5 3888.5,-75.5 3963.5,-75.5 3963.5,-56.5 3888.5,-56.5"/>
<text text-anchor="middle" x="3926" y="-63.5" font-family="Helvetica,sans-Serif" font-size="10.00">wld_types.h</text>
</a>
</g>
</g>
<!-- Node4&#45;&gt;Node35 -->
<g id="edge34" class="edge">
<title>Node4&#45;&gt;Node35</title>
<path fill="none" stroke="midnightblue" d="M2489.66,-176.74C2693.1,-175 3810.04,-164 3874,-132 3893.93,-122.03 3908.72,-100.48 3917.33,-84.92"/>
<polygon fill="midnightblue" stroke="midnightblue" points="3920.59,-86.24 3922.09,-75.75 3914.38,-83.02 3920.59,-86.24"/>
</g>
<!-- Node38 -->
<g id="node36" class="node">
<title>Node38</title>
<g id="a_node36"><a xlink:href="wld__channel__types_8h.html" target="_top" xlink:title=" ">
<polygon fill="white" stroke="red" points="4232.5,-112.5 4232.5,-131.5 4351.5,-131.5 4351.5,-112.5 4232.5,-112.5"/>
<text text-anchor="middle" x="4292" y="-119.5" font-family="Helvetica,sans-Serif" font-size="10.00">wld_channel_types.h</text>
</a>
</g>
</g>
<!-- Node4&#45;&gt;Node38 -->
<g id="edge37" class="edge">
<title>Node4&#45;&gt;Node38</title>
<path fill="none" stroke="midnightblue" d="M2489.56,-176.65C2695.06,-174.27 3845.92,-159.94 4222.11,-131.96"/>
<polygon fill="midnightblue" stroke="midnightblue" points="4222.5,-135.44 4232.2,-131.19 4221.96,-128.46 4222.5,-135.44"/>
</g>
<!-- Node40 -->
<g id="node37" class="node">
<title>Node40</title>
<g id="a_node37"><a xlink:href="wld__bgdfs_8h.html" target="_top" xlink:title=" ">
<polygon fill="white" stroke="black" points="3921.5,-112.5 3921.5,-131.5 3996.5,-131.5 3996.5,-112.5 3921.5,-112.5"/>
<text text-anchor="middle" x="3959" y="-119.5" font-family="Helvetica,sans-Serif" font-size="10.00">wld_bgdfs.h</text>
</a>
</g>
</g>
<!-- Node4&#45;&gt;Node40 -->
<g id="edge40" class="edge">
<title>Node4&#45;&gt;Node40</title>
<path fill="none" stroke="midnightblue" d="M2489.68,-176.62C2674.8,-174.32 3618.42,-161.31 3907,-132 3908.31,-131.87 3909.63,-131.72 3910.97,-131.56"/>
<polygon fill="midnightblue" stroke="midnightblue" points="3911.87,-134.97 3921.31,-130.16 3910.93,-128.04 3911.87,-134.97"/>
</g>
<!-- Node41 -->
<g id="node38" class="node">
<title>Node41</title>
<g id="a_node38"><a xlink:href="wld__rad__delayMgr_8h.html" target="_top" xlink:title=" ">
<polygon fill="white" stroke="black" points="4100,-112.5 4100,-131.5 4214,-131.5 4214,-112.5 4100,-112.5"/>
<text text-anchor="middle" x="4157" y="-119.5" font-family="Helvetica,sans-Serif" font-size="10.00">wld_rad_delayMgr.h</text>
</a>
</g>
</g>
<!-- Node4&#45;&gt;Node41 -->
<g id="edge42" class="edge">
<title>Node4&#45;&gt;Node41</title>
<path fill="none" stroke="midnightblue" d="M2489.63,-176.56C2687.45,-173.87 3755.34,-158.69 4082,-132 4084.52,-131.79 4087.09,-131.56 4089.7,-131.3"/>
<polygon fill="midnightblue" stroke="midnightblue" points="4090.27,-134.76 4099.83,-130.19 4089.51,-127.8 4090.27,-134.76"/>
</g>
<!-- Node42 -->
<g id="node39" class="node">
<title>Node42</title>
<g id="a_node39"><a xlink:href="wld__fsm_8h.html" target="_top" xlink:title=" ">
<polygon fill="white" stroke="black" points="4014.5,-112.5 4014.5,-131.5 4081.5,-131.5 4081.5,-112.5 4014.5,-112.5"/>
<text text-anchor="middle" x="4048" y="-119.5" font-family="Helvetica,sans-Serif" font-size="10.00">wld_fsm.h</text>
</a>
</g>
</g>
<!-- Node4&#45;&gt;Node42 -->
<g id="edge44" class="edge">
<title>Node4&#45;&gt;Node42</title>
<path fill="none" stroke="midnightblue" d="M2489.64,-176.87C2680.1,-175.94 3676.47,-169.4 4004.19,-131.98"/>
<polygon fill="midnightblue" stroke="midnightblue" points="4004.64,-135.45 4014.16,-130.8 4003.82,-128.5 4004.64,-135.45"/>
</g>
<!-- Node43 -->
<g id="node40" class="node">
<title>Node43</title>
<g id="a_node40"><a xlink:href="wld__sensing_8h.html" target="_top" xlink:title=" ">
<polygon fill="white" stroke="black" points="4370,-112.5 4370,-131.5 4456,-131.5 4456,-112.5 4370,-112.5"/>
<text text-anchor="middle" x="4413" y="-119.5" font-family="Helvetica,sans-Serif" font-size="10.00">wld_sensing.h</text>
</a>
</g>
</g>
<!-- Node4&#45;&gt;Node43 -->
<g id="edge46" class="edge">
<title>Node4&#45;&gt;Node43</title>
<path fill="none" stroke="midnightblue" d="M2489.83,-176.88C2706.73,-176.01 3968.83,-169.48 4352,-132 4354.51,-131.75 4357.09,-131.46 4359.69,-131.12"/>
<polygon fill="midnightblue" stroke="midnightblue" points="4360.42,-134.55 4369.83,-129.67 4359.43,-127.62 4360.42,-134.55"/>
</g>
<!-- Node44 -->
<g id="node41" class="node">
<title>Node44</title>
<g id="a_node41"><a xlink:href="wld__mld_8h.html" target="_top" xlink:title=" ">
<polygon fill="white" stroke="black" points="596.5,-112.5 596.5,-131.5 663.5,-131.5 663.5,-112.5 596.5,-112.5"/>
<text text-anchor="middle" x="630" y="-119.5" font-family="Helvetica,sans-Serif" font-size="10.00">wld_mld.h</text>
</a>
</g>
</g>
<!-- Node4&#45;&gt;Node44 -->
<g id="edge48" class="edge">
<title>Node4&#45;&gt;Node44</title>
<path fill="none" stroke="midnightblue" d="M2426.14,-176.55C2204.56,-173.41 895.73,-154.07 673.85,-131.91"/>
<polygon fill="midnightblue" stroke="midnightblue" points="674.16,-128.42 663.84,-130.82 673.4,-135.38 674.16,-128.42"/>
</g>
<!-- Node35&#45;&gt;Node6 -->
<g id="edge35" class="edge">
<title>Node35&#45;&gt;Node6</title>
<path fill="none" stroke="midnightblue" d="M3888.28,-63.93C3644.51,-57.04 2294.42,-18.87 2052.97,-12.05"/>
<polygon fill="midnightblue" stroke="midnightblue" points="2052.72,-8.54 2042.63,-11.75 2052.52,-15.53 2052.72,-8.54"/>
</g>
<!-- Node35&#45;&gt;Node11 -->
<g id="edge36" class="edge">
<title>Node35&#45;&gt;Node11</title>
<path fill="none" stroke="midnightblue" d="M3963.79,-59.42C4027.15,-50.08 4155.34,-31.16 4231.41,-19.94"/>
<polygon fill="midnightblue" stroke="midnightblue" points="4231.95,-23.4 4241.33,-18.48 4230.92,-16.47 4231.95,-23.4"/>
</g>
<!-- Node38&#45;&gt;Node5 -->
<g id="edge38" class="edge">
<title>Node38&#45;&gt;Node5</title>
<path fill="none" stroke="midnightblue" d="M4310.22,-112.44C4328.9,-103.68 4358.16,-89.94 4379.62,-79.86"/>
<polygon fill="midnightblue" stroke="midnightblue" points="4381.3,-82.93 4388.86,-75.52 4378.32,-76.6 4381.3,-82.93"/>
</g>
<!-- Node38&#45;&gt;Node11 -->
<g id="edge39" class="edge">
<title>Node38&#45;&gt;Node11</title>
<path fill="none" stroke="midnightblue" d="M4292,-112.37C4292,-94.62 4292,-53.67 4292,-29.6"/>
<polygon fill="midnightblue" stroke="midnightblue" points="4295.5,-29.59 4292,-19.59 4288.5,-29.59 4295.5,-29.59"/>
</g>
<!-- Node40&#45;&gt;Node35 -->
<g id="edge41" class="edge">
<title>Node40&#45;&gt;Node35</title>
<path fill="none" stroke="midnightblue" d="M3953.55,-112.08C3948.99,-104.61 3942.33,-93.72 3936.71,-84.52"/>
<polygon fill="midnightblue" stroke="midnightblue" points="3939.55,-82.46 3931.35,-75.75 3933.58,-86.11 3939.55,-82.46"/>
</g>
<!-- Node41&#45;&gt;Node4 -->
<g id="edge43" class="edge">
<title>Node41&#45;&gt;Node4</title>
<path fill="none" stroke="midnightblue" d="M4105.6,-131.5C4103.72,-131.68 4101.84,-131.85 4100,-132 3776.17,-158.46 2723.9,-173.6 2500.06,-176.49"/>
<polygon fill="midnightblue" stroke="midnightblue" points="2499.69,-173 2489.74,-176.62 2499.78,-179.99 2499.69,-173"/>
</g>
<!-- Node42&#45;&gt;Node35 -->
<g id="edge45" class="edge">
<title>Node42&#45;&gt;Node35</title>
<path fill="none" stroke="midnightblue" d="M4028.67,-112.44C4008.68,-103.6 3977.26,-89.69 3954.44,-79.59"/>
<polygon fill="midnightblue" stroke="midnightblue" points="3955.8,-76.36 3945.24,-75.52 3952.97,-82.76 3955.8,-76.36"/>
</g>
<!-- Node43&#45;&gt;Node4 -->
<g id="edge47" class="edge">
<title>Node43&#45;&gt;Node4</title>
<path fill="none" stroke="midnightblue" d="M4374.43,-131.52C4372.94,-131.7 4371.46,-131.86 4370,-132 3989.81,-169.19 2744.31,-175.91 2499.82,-176.86"/>
<polygon fill="midnightblue" stroke="midnightblue" points="2499.57,-173.36 2489.59,-176.9 2499.6,-180.36 2499.57,-173.36"/>
</g>
<!-- Node44&#45;&gt;Node35 -->
<g id="edge49" class="edge">
<title>Node44&#45;&gt;Node35</title>
<path fill="none" stroke="midnightblue" d="M663.83,-113.15C666.58,-112.7 669.33,-112.3 672,-112 1004.07,-74.5 3501.77,-67.88 3878.48,-67.09"/>
<polygon fill="midnightblue" stroke="midnightblue" points="3878.51,-70.59 3888.5,-67.07 3878.49,-63.59 3878.51,-70.59"/>
</g>
<!-- Node77&#45;&gt;Node4 -->
<g id="edge51" class="edge">
<title>Node77&#45;&gt;Node4</title>
<path fill="none" stroke="midnightblue" d="M2458,-224.08C2458,-217.01 2458,-206.86 2458,-197.99"/>
<polygon fill="midnightblue" stroke="midnightblue" points="2461.5,-197.75 2458,-187.75 2454.5,-197.75 2461.5,-197.75"/>
</g>
<!-- Node84&#45;&gt;Node4 -->
<g id="edge53" class="edge">
<title>Node84&#45;&gt;Node4</title>
<path fill="none" stroke="midnightblue" d="M2547.81,-224.32C2530.65,-215.66 2504.05,-202.24 2484.25,-192.25"/>
<polygon fill="midnightblue" stroke="midnightblue" points="2485.65,-189.04 2475.15,-187.65 2482.5,-195.28 2485.65,-189.04"/>
</g>
<!-- Node85&#45;&gt;Node4 -->
<g id="edge55" class="edge">
<title>Node85&#45;&gt;Node4</title>
<path fill="none" stroke="midnightblue" d="M2635.57,-224.44C2598.69,-215.01 2539.3,-199.81 2499.48,-189.62"/>
<polygon fill="midnightblue" stroke="midnightblue" points="2500.11,-186.16 2489.55,-187.08 2498.37,-192.95 2500.11,-186.16"/>
</g>
<!-- Node87&#45;&gt;Node4 -->
<g id="edge58" class="edge">
<title>Node87&#45;&gt;Node4</title>
<path fill="none" stroke="midnightblue" d="M2741.6,-224.44C2674.58,-213.7 2561.02,-195.51 2499.91,-185.72"/>
<polygon fill="midnightblue" stroke="midnightblue" points="2500.28,-182.23 2489.85,-184.1 2499.17,-189.14 2500.28,-182.23"/>
</g>
<!-- Node99&#45;&gt;Node4 -->
<g id="edge61" class="edge">
<title>Node99&#45;&gt;Node4</title>
<path fill="none" stroke="midnightblue" d="M1984.71,-225.37C1987.85,-224.88 1990.97,-224.41 1994,-224 2149.02,-202.84 2334.51,-187.97 2416.05,-181.97"/>
<polygon fill="midnightblue" stroke="midnightblue" points="2416.68,-185.43 2426.4,-181.21 2416.17,-178.45 2416.68,-185.43"/>
</g>
<!-- Node100&#45;&gt;Node4 -->
<g id="edge63" class="edge">
<title>Node100&#45;&gt;Node4</title>
<path fill="none" stroke="midnightblue" d="M2095.19,-225.32C2098.17,-224.86 2101.13,-224.42 2104,-224 2216.61,-207.63 2349.86,-191.59 2416.16,-183.83"/>
<polygon fill="midnightblue" stroke="midnightblue" points="2416.69,-187.29 2426.22,-182.65 2415.88,-180.34 2416.69,-187.29"/>
</g>
<!-- Node101&#45;&gt;Node4 -->
<g id="edge65" class="edge">
<title>Node101&#45;&gt;Node4</title>
<path fill="none" stroke="midnightblue" d="M2210.59,-224.44C2267.17,-214.05 2361.78,-196.67 2416.14,-186.69"/>
<polygon fill="midnightblue" stroke="midnightblue" points="2416.93,-190.1 2426.13,-184.85 2415.66,-183.22 2416.93,-190.1"/>
</g>
</g>
</svg>
