<?xml version="1.0" encoding="UTF-8" standalone="no"?>
<!DOCTYPE svg PUBLIC "-//W3C//DTD SVG 1.1//EN"
 "http://www.w3.org/Graphics/SVG/1.1/DTD/svg11.dtd">
<!-- Generated by graphviz version 2.43.0 (0)
 -->
<!-- Title: include_priv/Plugin/wifiGen_ep.h Pages: 1 -->
<svg width="242pt" height="106pt"
 viewBox="0.00 0.00 242.00 106.00" xmlns="http://www.w3.org/2000/svg" xmlns:xlink="http://www.w3.org/1999/xlink">
<g id="graph0" class="graph" transform="scale(1 1) rotate(0) translate(4 102)">
<title>include_priv/Plugin/wifiGen_ep.h</title>
<polygon fill="white" stroke="transparent" points="-4,4 -4,-102 238,-102 238,4 -4,4"/>
<!-- Node1 -->
<g id="node1" class="node">
<title>Node1</title>
<g id="a_node1"><a xlink:title=" ">
<polygon fill="#bfbfbf" stroke="black" points="64.5,-67.5 64.5,-97.5 173.5,-97.5 173.5,-67.5 64.5,-67.5"/>
<text text-anchor="start" x="72.5" y="-85.5" font-family="Helvetica,sans-Serif" font-size="10.00">include_priv/Plugin</text>
<text text-anchor="middle" x="119" y="-74.5" font-family="Helvetica,sans-Serif" font-size="10.00">/wifiGen_ep.h</text>
</a>
</g>
</g>
<!-- Node2 -->
<g id="node2" class="node">
<title>Node2</title>
<g id="a_node2"><a xlink:href="wifiGen_8c.html" target="_top" xlink:title=" ">
<polygon fill="white" stroke="black" points="0,-6 0,-25 112,-25 112,-6 0,-6"/>
<text text-anchor="middle" x="56" y="-13" font-family="Helvetica,sans-Serif" font-size="10.00">src/Plugin/wifiGen.c</text>
</a>
</g>
</g>
<!-- Node1&#45;&gt;Node2 -->
<g id="edge1" class="edge">
<title>Node1&#45;&gt;Node2</title>
<path fill="none" stroke="midnightblue" d="M98.16,-60C86.66,-48.13 73.01,-34.05 64.43,-25.19"/>
<polygon fill="midnightblue" stroke="midnightblue" points="95.86,-62.65 105.33,-67.4 100.88,-57.78 95.86,-62.65"/>
</g>
<!-- Node3 -->
<g id="node3" class="node">
<title>Node3</title>
<g id="a_node3"><a xlink:href="wifiGen__eventHandlers_8c.html" target="_top" xlink:title=" ">
<polygon fill="white" stroke="black" points="130,-0.5 130,-30.5 234,-30.5 234,-0.5 130,-0.5"/>
<text text-anchor="start" x="138" y="-18.5" font-family="Helvetica,sans-Serif" font-size="10.00">src/Plugin/wifiGen</text>
<text text-anchor="middle" x="182" y="-7.5" font-family="Helvetica,sans-Serif" font-size="10.00">_eventHandlers.c</text>
</a>
</g>
</g>
<!-- Node1&#45;&gt;Node3 -->
<g id="edge2" class="edge">
<title>Node1&#45;&gt;Node3</title>
<path fill="none" stroke="midnightblue" d="M139.81,-60.02C149.2,-50.34 160.02,-39.17 168.36,-30.58"/>
<polygon fill="midnightblue" stroke="midnightblue" points="137.12,-57.78 132.67,-67.4 142.14,-62.65 137.12,-57.78"/>
</g>
</g>
</svg>
