<?xml version="1.0" encoding="UTF-8" standalone="no"?>
<!DOCTYPE svg PUBLIC "-//W3C//DTD SVG 1.1//EN"
 "http://www.w3.org/Graphics/SVG/1.1/DTD/svg11.dtd">
<!-- Generated by graphviz version 2.43.0 (0)
 -->
<!-- Title: wifiGen_rad_getTxPowerdBm Pages: 1 -->
<svg width="1112pt" height="165pt"
 viewBox="0.00 0.00 1112.00 165.00" xmlns="http://www.w3.org/2000/svg" xmlns:xlink="http://www.w3.org/1999/xlink">
<g id="graph0" class="graph" transform="scale(1 1) rotate(0) translate(4 161)">
<title>wifiGen_rad_getTxPowerdBm</title>
<polygon fill="white" stroke="transparent" points="-4,4 -4,-161 1108,-161 1108,4 -4,4"/>
<!-- Node1 -->
<g id="node1" class="node">
<title>Node1</title>
<g id="a_node1"><a xlink:title=" ">
<polygon fill="#bfbfbf" stroke="black" points="0,-88 0,-107 160,-107 160,-88 0,-88"/>
<text text-anchor="middle" x="80" y="-95" font-family="Helvetica,sans-Serif" font-size="10.00">wifiGen_rad_getTxPowerdBm</text>
</a>
</g>
</g>
<!-- Node2 -->
<g id="node2" class="node">
<title>Node2</title>
<g id="a_node2"><a xlink:href="wld__radio_8c.html#a80a1e3e21164a9c72e84d8870c5715e0" target="_top" xlink:title=" ">
<polygon fill="white" stroke="black" points="211,-119 211,-138 343,-138 343,-119 211,-119"/>
<text text-anchor="middle" x="277" y="-126" font-family="Helvetica,sans-Serif" font-size="10.00">wld_rad_hasActiveIface</text>
</a>
</g>
</g>
<!-- Node1&#45;&gt;Node2 -->
<g id="edge1" class="edge">
<title>Node1&#45;&gt;Node2</title>
<path fill="none" stroke="midnightblue" d="M140.83,-107.01C161.42,-110.28 184.65,-113.98 205.98,-117.37"/>
<polygon fill="midnightblue" stroke="midnightblue" points="205.52,-120.84 215.95,-118.95 206.62,-113.93 205.52,-120.84"/>
</g>
<!-- Node4 -->
<g id="node4" class="node">
<title>Node4</title>
<g id="a_node4"><a xlink:href="wld__rad__nl80211_8c.html#a141342d3997dbceaae28134e2d27a480" target="_top" xlink:title=" ">
<polygon fill="white" stroke="black" points="196,-69 196,-88 358,-88 358,-69 196,-69"/>
<text text-anchor="middle" x="277" y="-76" font-family="Helvetica,sans-Serif" font-size="10.00">wld_rad_nl80211_getTxPower</text>
</a>
</g>
</g>
<!-- Node1&#45;&gt;Node4 -->
<g id="edge3" class="edge">
<title>Node1&#45;&gt;Node4</title>
<path fill="none" stroke="midnightblue" d="M160.03,-89.8C168.53,-88.97 177.22,-88.12 185.84,-87.28"/>
<polygon fill="midnightblue" stroke="midnightblue" points="186.29,-90.76 195.9,-86.3 185.61,-83.79 186.29,-90.76"/>
</g>
<!-- Node3 -->
<g id="node3" class="node">
<title>Node3</title>
<g id="a_node3"><a xlink:href="wld__radio_8c.html#af32e11ee7bb69e7f0d5db319e5aa1834" target="_top" xlink:title=" ">
<polygon fill="white" stroke="black" points="398,-126.5 398,-156.5 550,-156.5 550,-126.5 398,-126.5"/>
<text text-anchor="start" x="406" y="-144.5" font-family="Helvetica,sans-Serif" font-size="10.00">wld_rad_getFirstActiveIface</text>
<text text-anchor="middle" x="474" y="-133.5" font-family="Helvetica,sans-Serif" font-size="10.00">Index</text>
</a>
</g>
</g>
<!-- Node2&#45;&gt;Node3 -->
<g id="edge2" class="edge">
<title>Node2&#45;&gt;Node3</title>
<path fill="none" stroke="midnightblue" d="M343.2,-132.85C357.42,-133.79 372.66,-134.81 387.53,-135.8"/>
<polygon fill="midnightblue" stroke="midnightblue" points="387.53,-139.31 397.74,-136.48 388,-132.33 387.53,-139.31"/>
</g>
<!-- Node5 -->
<g id="node5" class="node">
<title>Node5</title>
<g id="a_node5"><a xlink:href="wld__nl80211__core_8c.html#ab89990c364e3256f803e95aee1684407" target="_top" xlink:title=" ">
<polygon fill="white" stroke="black" points="395,-88 395,-107 553,-107 553,-88 395,-88"/>
<text text-anchor="middle" x="474" y="-95" font-family="Helvetica,sans-Serif" font-size="10.00">wld_nl80211_getSharedState</text>
</a>
</g>
</g>
<!-- Node4&#45;&gt;Node5 -->
<g id="edge4" class="edge">
<title>Node4&#45;&gt;Node5</title>
<path fill="none" stroke="midnightblue" d="M358.16,-86.31C366.84,-87.16 375.71,-88.02 384.49,-88.88"/>
<polygon fill="midnightblue" stroke="midnightblue" points="384.43,-92.39 394.73,-89.87 385.11,-85.42 384.43,-92.39"/>
</g>
<!-- Node7 -->
<g id="node7" class="node">
<title>Node7</title>
<g id="a_node7"><a xlink:href="wld__nl80211__api_8c.html#a631f7f8ec3a7cf2a85ad4ac15ffe4b2f" target="_top" xlink:title=" ">
<polygon fill="white" stroke="black" points="403.5,-50 403.5,-69 544.5,-69 544.5,-50 403.5,-50"/>
<text text-anchor="middle" x="474" y="-57" font-family="Helvetica,sans-Serif" font-size="10.00">wld_nl80211_getTxPower</text>
</a>
</g>
</g>
<!-- Node4&#45;&gt;Node7 -->
<g id="edge6" class="edge">
<title>Node4&#45;&gt;Node7</title>
<path fill="none" stroke="midnightblue" d="M358.16,-70.69C369.78,-69.56 381.73,-68.39 393.34,-67.26"/>
<polygon fill="midnightblue" stroke="midnightblue" points="393.82,-70.73 403.44,-66.28 393.14,-63.76 393.82,-70.73"/>
</g>
<!-- Node11 -->
<g id="node11" class="node">
<title>Node11</title>
<g id="a_node11"><a xlink:href="wld__radio_8c.html#ae211359fd0e7548777cf5bd312ffb8c3" target="_top" xlink:title=" ">
<polygon fill="white" stroke="black" points="394,-0.5 394,-30.5 554,-30.5 554,-0.5 394,-0.5"/>
<text text-anchor="start" x="402" y="-18.5" font-family="Helvetica,sans-Serif" font-size="10.00">wld_rad_getFirstEnabledIface</text>
<text text-anchor="middle" x="474" y="-7.5" font-family="Helvetica,sans-Serif" font-size="10.00">Index</text>
</a>
</g>
</g>
<!-- Node4&#45;&gt;Node11 -->
<g id="edge10" class="edge">
<title>Node4&#45;&gt;Node11</title>
<path fill="none" stroke="midnightblue" d="M307.05,-68.89C330.5,-61.16 364.35,-50.05 394,-40.5 400.87,-38.29 408.09,-35.98 415.24,-33.7"/>
<polygon fill="midnightblue" stroke="midnightblue" points="416.46,-36.99 424.93,-30.63 414.34,-30.32 416.46,-36.99"/>
</g>
<!-- Node6 -->
<g id="node6" class="node">
<title>Node6</title>
<g id="a_node6"><a xlink:href="wld__nl80211__core_8c.html#ac64e98962155641a465909b3c8fc0779" target="_top" xlink:title=" ">
<polygon fill="white" stroke="black" points="628,-88 628,-107 713,-107 713,-88 628,-88"/>
<text text-anchor="middle" x="670.5" y="-95" font-family="Helvetica,sans-Serif" font-size="10.00">s_isValidState</text>
</a>
</g>
</g>
<!-- Node5&#45;&gt;Node6 -->
<g id="edge5" class="edge">
<title>Node5&#45;&gt;Node6</title>
<path fill="none" stroke="midnightblue" d="M553.27,-97.5C575.02,-97.5 598.1,-97.5 617.9,-97.5"/>
<polygon fill="midnightblue" stroke="midnightblue" points="617.93,-101 627.93,-97.5 617.93,-94 617.93,-101"/>
</g>
<!-- Node8 -->
<g id="node8" class="node">
<title>Node8</title>
<g id="a_node8"><a xlink:href="wld__nl80211__api_8c.html#a590a1e83f26c3461f2d36c7f238d83ce" target="_top" xlink:title=" ">
<polygon fill="white" stroke="black" points="590,-50 590,-69 751,-69 751,-50 590,-50"/>
<text text-anchor="middle" x="670.5" y="-57" font-family="Helvetica,sans-Serif" font-size="10.00">wld_nl80211_getInterfaceInfo</text>
</a>
</g>
</g>
<!-- Node7&#45;&gt;Node8 -->
<g id="edge7" class="edge">
<title>Node7&#45;&gt;Node8</title>
<path fill="none" stroke="midnightblue" d="M544.67,-59.5C555.97,-59.5 567.81,-59.5 579.5,-59.5"/>
<polygon fill="midnightblue" stroke="midnightblue" points="579.73,-63 589.73,-59.5 579.73,-56 579.73,-63"/>
</g>
<!-- Node9 -->
<g id="node9" class="node">
<title>Node9</title>
<g id="a_node9"><a xlink:href="wld__nl80211__core_8c.html#a51795ba7297b263584b02e6dd2d8ddb6" target="_top" xlink:title=" ">
<polygon fill="white" stroke="black" points="787,-50 787,-69 939,-69 939,-50 787,-50"/>
<text text-anchor="middle" x="863" y="-57" font-family="Helvetica,sans-Serif" font-size="10.00">wld_nl80211_sendCmdSync</text>
</a>
</g>
</g>
<!-- Node8&#45;&gt;Node9 -->
<g id="edge8" class="edge">
<title>Node8&#45;&gt;Node9</title>
<path fill="none" stroke="midnightblue" d="M751.19,-59.5C759.59,-59.5 768.17,-59.5 776.64,-59.5"/>
<polygon fill="midnightblue" stroke="midnightblue" points="776.9,-63 786.9,-59.5 776.9,-56 776.9,-63"/>
</g>
<!-- Node10 -->
<g id="node10" class="node">
<title>Node10</title>
<g id="a_node10"><a xlink:href="wld__nl80211__core_8c.html#a3c5a525596463f925b95bbc76036d07e" target="_top" xlink:title=" ">
<polygon fill="white" stroke="black" points="975,-50 975,-69 1104,-69 1104,-50 975,-50"/>
<text text-anchor="middle" x="1039.5" y="-57" font-family="Helvetica,sans-Serif" font-size="10.00">wld_nl80211_sendCmd</text>
</a>
</g>
</g>
<!-- Node9&#45;&gt;Node10 -->
<g id="edge9" class="edge">
<title>Node9&#45;&gt;Node10</title>
<path fill="none" stroke="midnightblue" d="M939.02,-59.5C947.49,-59.5 956.12,-59.5 964.57,-59.5"/>
<polygon fill="midnightblue" stroke="midnightblue" points="964.78,-63 974.78,-59.5 964.78,-56 964.78,-63"/>
</g>
</g>
</svg>
