<?xml version="1.0" encoding="UTF-8" standalone="no"?>
<!DOCTYPE svg PUBLIC "-//W3C//DTD SVG 1.1//EN"
 "http://www.w3.org/Graphics/SVG/1.1/DTD/svg11.dtd">
<!-- Generated by graphviz version 2.43.0 (0)
 -->
<!-- Title: wifiGen_hapd_init Pages: 1 -->
<svg width="804pt" height="161pt"
 viewBox="0.00 0.00 804.00 161.00" xmlns="http://www.w3.org/2000/svg" xmlns:xlink="http://www.w3.org/1999/xlink">
<g id="graph0" class="graph" transform="scale(1 1) rotate(0) translate(4 157)">
<title>wifiGen_hapd_init</title>
<polygon fill="white" stroke="transparent" points="-4,4 -4,-157 800,-157 800,4 -4,4"/>
<!-- Node1 -->
<g id="node1" class="node">
<title>Node1</title>
<g id="a_node1"><a xlink:title=" ">
<polygon fill="#bfbfbf" stroke="black" points="0,-57.5 0,-76.5 104,-76.5 104,-57.5 0,-57.5"/>
<text text-anchor="middle" x="52" y="-64.5" font-family="Helvetica,sans-Serif" font-size="10.00">wifiGen_hapd_init</text>
</a>
</g>
</g>
<!-- Node2 -->
<g id="node2" class="node">
<title>Node2</title>
<g id="a_node2"><a xlink:href="wld__secDmn_8c.html#af0544dc7e9cc28cc7590bcbb6f6ad4ce" target="_top" xlink:title=" ">
<polygon fill="white" stroke="black" points="140,-57.5 140,-76.5 240,-76.5 240,-57.5 140,-57.5"/>
<text text-anchor="middle" x="190" y="-64.5" font-family="Helvetica,sans-Serif" font-size="10.00">wld_secDmn_init</text>
</a>
</g>
</g>
<!-- Node1&#45;&gt;Node2 -->
<g id="edge1" class="edge">
<title>Node1&#45;&gt;Node2</title>
<path fill="none" stroke="midnightblue" d="M104.03,-67C112.48,-67 121.3,-67 129.93,-67"/>
<polygon fill="midnightblue" stroke="midnightblue" points="129.94,-70.5 139.94,-67 129.94,-63.5 129.94,-70.5"/>
</g>
<!-- Node3 -->
<g id="node3" class="node">
<title>Node3</title>
<g id="a_node3"><a xlink:href="wld__daemon_8c.html#adc1404b6fec8fdf62a05025d82440f64" target="_top" xlink:title=" ">
<polygon fill="white" stroke="black" points="276,-57.5 276,-76.5 414,-76.5 414,-57.5 276,-57.5"/>
<text text-anchor="middle" x="345" y="-64.5" font-family="Helvetica,sans-Serif" font-size="10.00">wld_dmn_createDeamon</text>
</a>
</g>
</g>
<!-- Node2&#45;&gt;Node3 -->
<g id="edge2" class="edge">
<title>Node2&#45;&gt;Node3</title>
<path fill="none" stroke="midnightblue" d="M240.25,-67C248.41,-67 257.05,-67 265.72,-67"/>
<polygon fill="midnightblue" stroke="midnightblue" points="265.89,-70.5 275.89,-67 265.89,-63.5 265.89,-70.5"/>
</g>
<!-- Node4 -->
<g id="node4" class="node">
<title>Node4</title>
<g id="a_node4"><a xlink:href="wld__daemon_8c.html#a4075ee8de9e9daa8039d0f758d20d655" target="_top" xlink:title=" ">
<polygon fill="white" stroke="black" points="468,-114.5 468,-133.5 614,-133.5 614,-114.5 468,-114.5"/>
<text text-anchor="middle" x="541" y="-121.5" font-family="Helvetica,sans-Serif" font-size="10.00">wld_dmn_cleanupDaemon</text>
</a>
</g>
</g>
<!-- Node3&#45;&gt;Node4 -->
<g id="edge3" class="edge">
<title>Node3&#45;&gt;Node4</title>
<path fill="none" stroke="midnightblue" d="M369.23,-76.57C390.1,-84.9 421.73,-96.9 450,-105 459.23,-107.65 469.09,-110.1 478.77,-112.3"/>
<polygon fill="midnightblue" stroke="midnightblue" points="478.24,-115.77 488.76,-114.5 479.75,-108.93 478.24,-115.77"/>
</g>
<!-- Node7 -->
<g id="node7" class="node">
<title>Node7</title>
<g id="a_node7"><a xlink:href="wld__daemon_8c.html#add988f9aace86d75ad2250d7ea28ed17" target="_top" xlink:title=" ">
<polygon fill="white" stroke="black" points="466.5,-76.5 466.5,-95.5 615.5,-95.5 615.5,-76.5 466.5,-76.5"/>
<text text-anchor="middle" x="541" y="-83.5" font-family="Helvetica,sans-Serif" font-size="10.00">wld_dmn_initializeDeamon</text>
</a>
</g>
</g>
<!-- Node3&#45;&gt;Node7 -->
<g id="edge6" class="edge">
<title>Node3&#45;&gt;Node7</title>
<path fill="none" stroke="midnightblue" d="M414.12,-73.67C427.74,-75.01 442.19,-76.42 456.27,-77.8"/>
<polygon fill="midnightblue" stroke="midnightblue" points="456.14,-81.3 466.43,-78.79 456.82,-74.34 456.14,-81.3"/>
</g>
<!-- Node8 -->
<g id="node8" class="node">
<title>Node8</title>
<g id="a_node8"><a xlink:href="wld__daemon_8c.html#a335dc3e12939144d97137cf59cfe7951" target="_top" xlink:title=" ">
<polygon fill="white" stroke="black" points="483.5,-38.5 483.5,-57.5 598.5,-57.5 598.5,-38.5 483.5,-38.5"/>
<text text-anchor="middle" x="541" y="-45.5" font-family="Helvetica,sans-Serif" font-size="10.00">wld_dmn_setArgList</text>
</a>
</g>
</g>
<!-- Node3&#45;&gt;Node8 -->
<g id="edge7" class="edge">
<title>Node3&#45;&gt;Node8</title>
<path fill="none" stroke="midnightblue" d="M414.12,-60.33C433.28,-58.45 454.09,-56.41 473.17,-54.55"/>
<polygon fill="midnightblue" stroke="midnightblue" points="473.66,-58.01 483.27,-53.56 472.98,-51.05 473.66,-58.01"/>
</g>
<!-- Node9 -->
<g id="node9" class="node">
<title>Node9</title>
<g id="a_node9"><a xlink:href="wld__daemon_8c.html#a50e230b7cf9c56d9b4ef6e5038576c17" target="_top" xlink:title=" ">
<polygon fill="white" stroke="black" points="450,-0.5 450,-19.5 632,-19.5 632,-0.5 450,-0.5"/>
<text text-anchor="middle" x="541" y="-7.5" font-family="Helvetica,sans-Serif" font-size="10.00">wld_dmn_setDeamonEvtHandlers</text>
</a>
</g>
</g>
<!-- Node3&#45;&gt;Node9 -->
<g id="edge8" class="edge">
<title>Node3&#45;&gt;Node9</title>
<path fill="none" stroke="midnightblue" d="M369.23,-57.43C390.1,-49.1 421.73,-37.1 450,-29 459.23,-26.35 469.09,-23.9 478.77,-21.7"/>
<polygon fill="midnightblue" stroke="midnightblue" points="479.75,-25.07 488.76,-19.5 478.24,-18.23 479.75,-25.07"/>
</g>
<!-- Node5 -->
<g id="node5" class="node">
<title>Node5</title>
<g id="a_node5"><a xlink:href="wld_8c.html#a41e1e95e9813260c184aad989f33bb05" target="_top" xlink:title=" ">
<polygon fill="white" stroke="black" points="669,-133.5 669,-152.5 795,-152.5 795,-133.5 669,-133.5"/>
<text text-anchor="middle" x="732" y="-140.5" font-family="Helvetica,sans-Serif" font-size="10.00">get_wld_plugin_parser</text>
</a>
</g>
</g>
<!-- Node4&#45;&gt;Node5 -->
<g id="edge4" class="edge">
<title>Node4&#45;&gt;Node5</title>
<path fill="none" stroke="midnightblue" d="M614.26,-131.26C628.91,-132.74 644.31,-134.29 658.95,-135.76"/>
<polygon fill="midnightblue" stroke="midnightblue" points="658.65,-139.24 668.95,-136.76 659.35,-132.28 658.65,-139.24"/>
</g>
<!-- Node6 -->
<g id="node6" class="node">
<title>Node6</title>
<g id="a_node6"><a xlink:href="wld__daemon_8c.html#adc439fdc85e1c992a5ba6e79b4ebd3a3" target="_top" xlink:title=" ">
<polygon fill="white" stroke="black" points="668,-95.5 668,-114.5 796,-114.5 796,-95.5 668,-95.5"/>
<text text-anchor="middle" x="732" y="-102.5" font-family="Helvetica,sans-Serif" font-size="10.00">wld_dmn_stopDeamon</text>
</a>
</g>
</g>
<!-- Node4&#45;&gt;Node6 -->
<g id="edge5" class="edge">
<title>Node4&#45;&gt;Node6</title>
<path fill="none" stroke="midnightblue" d="M614.26,-116.74C628.43,-115.31 643.31,-113.82 657.52,-112.39"/>
<polygon fill="midnightblue" stroke="midnightblue" points="658.13,-115.84 667.73,-111.36 657.43,-108.88 658.13,-115.84"/>
</g>
</g>
</svg>
