<?xml version="1.0" encoding="UTF-8" standalone="no"?>
<!DOCTYPE svg PUBLIC "-//W3C//DTD SVG 1.1//EN"
 "http://www.w3.org/Graphics/SVG/1.1/DTD/svg11.dtd">
<!-- Generated by graphviz version 2.43.0 (0)
 -->
<!-- Title: s_readChanInfo Pages: 1 -->
<svg width="294pt" height="323pt"
 viewBox="0.00 0.00 294.00 322.50" xmlns="http://www.w3.org/2000/svg" xmlns:xlink="http://www.w3.org/1999/xlink">
<g id="graph0" class="graph" transform="scale(1 1) rotate(0) translate(4 318.5)">
<title>s_readChanInfo</title>
<polygon fill="white" stroke="transparent" points="-4,4 -4,-318.5 290,-318.5 290,4 -4,4"/>
<!-- Node1 -->
<g id="node1" class="node">
<title>Node1</title>
<g id="a_node1"><a xlink:title=" ">
<polygon fill="#bfbfbf" stroke="black" points="0,-153 0,-172 92,-172 92,-153 0,-153"/>
<text text-anchor="middle" x="46" y="-160" font-family="Helvetica,sans-Serif" font-size="10.00">s_readChanInfo</text>
</a>
</g>
</g>
<!-- Node2 -->
<g id="node2" class="node">
<title>Node2</title>
<g id="a_node2"><a xlink:href="wld__channel_8c.html#a1daca3ccba000e743674c98ce51bd86e" target="_top" xlink:title=" ">
<polygon fill="white" stroke="black" points="139.5,-295 139.5,-314 274.5,-314 274.5,-295 139.5,-295"/>
<text text-anchor="middle" x="207" y="-302" font-family="Helvetica,sans-Serif" font-size="10.00">wld_channel_clear_flags</text>
</a>
</g>
</g>
<!-- Node1&#45;&gt;Node2 -->
<g id="edge1" class="edge">
<title>Node1&#45;&gt;Node2</title>
<path fill="none" stroke="midnightblue" d="M50.52,-172.29C59.5,-195.78 85.57,-255.61 128,-285.5 130.73,-287.43 133.64,-289.16 136.67,-290.72"/>
<polygon fill="midnightblue" stroke="midnightblue" points="135.47,-294.02 146.03,-294.88 138.32,-287.62 135.47,-294.02"/>
</g>
<!-- Node3 -->
<g id="node3" class="node">
<title>Node3</title>
<g id="a_node3"><a xlink:href="wld__channel_8c.html#a03aa2fd7136694da03048717e913ba77" target="_top" xlink:title=" ">
<polygon fill="white" stroke="black" points="132.5,-245.5 132.5,-275.5 281.5,-275.5 281.5,-245.5 132.5,-245.5"/>
<text text-anchor="start" x="140.5" y="-263.5" font-family="Helvetica,sans-Serif" font-size="10.00">wld_channel_clear_passive</text>
<text text-anchor="middle" x="207" y="-252.5" font-family="Helvetica,sans-Serif" font-size="10.00">_channel</text>
</a>
</g>
</g>
<!-- Node1&#45;&gt;Node3 -->
<g id="edge2" class="edge">
<title>Node1&#45;&gt;Node3</title>
<path fill="none" stroke="midnightblue" d="M54.96,-172.13C68.42,-187.82 97.24,-218.92 128,-236.5 131.04,-238.24 134.23,-239.87 137.5,-241.39"/>
<polygon fill="midnightblue" stroke="midnightblue" points="136.32,-244.69 146.89,-245.4 139.07,-238.25 136.32,-244.69"/>
</g>
<!-- Node4 -->
<g id="node4" class="node">
<title>Node4</title>
<g id="a_node4"><a xlink:href="wld__channel_8c.html#a8f4ac82176127ff11de7585347815ecc" target="_top" xlink:title=" ">
<polygon fill="white" stroke="black" points="128,-196.5 128,-226.5 286,-226.5 286,-196.5 128,-196.5"/>
<text text-anchor="start" x="136" y="-214.5" font-family="Helvetica,sans-Serif" font-size="10.00">wld_channel_mark_available</text>
<text text-anchor="middle" x="207" y="-203.5" font-family="Helvetica,sans-Serif" font-size="10.00">_channel</text>
</a>
</g>
</g>
<!-- Node1&#45;&gt;Node4 -->
<g id="edge3" class="edge">
<title>Node1&#45;&gt;Node4</title>
<path fill="none" stroke="midnightblue" d="M77.77,-172C92.9,-176.67 111.4,-182.39 128,-187.5 134.13,-189.39 140.53,-191.36 146.92,-193.33"/>
<polygon fill="midnightblue" stroke="midnightblue" points="146.31,-196.8 156.9,-196.4 148.37,-190.11 146.31,-196.8"/>
</g>
<!-- Node5 -->
<g id="node5" class="node">
<title>Node5</title>
<g id="a_node5"><a xlink:href="wld__channel_8c.html#a274243f69f10bbc51cf7631622860889" target="_top" xlink:title=" ">
<polygon fill="white" stroke="black" points="131.5,-147.5 131.5,-177.5 282.5,-177.5 282.5,-147.5 131.5,-147.5"/>
<text text-anchor="start" x="139.5" y="-165.5" font-family="Helvetica,sans-Serif" font-size="10.00">wld_channel_mark_passive</text>
<text text-anchor="middle" x="207" y="-154.5" font-family="Helvetica,sans-Serif" font-size="10.00">_channel</text>
</a>
</g>
</g>
<!-- Node1&#45;&gt;Node5 -->
<g id="edge4" class="edge">
<title>Node1&#45;&gt;Node5</title>
<path fill="none" stroke="midnightblue" d="M92.14,-162.5C101.3,-162.5 111.21,-162.5 121.23,-162.5"/>
<polygon fill="midnightblue" stroke="midnightblue" points="121.27,-166 131.27,-162.5 121.27,-159 121.27,-166"/>
</g>
<!-- Node6 -->
<g id="node6" class="node">
<title>Node6</title>
<g id="a_node6"><a xlink:href="wld__channel_8c.html#a2fcd4f372b30ebbdbdab4763c2cddde7" target="_top" xlink:title=" ">
<polygon fill="white" stroke="black" points="137.5,-98.5 137.5,-128.5 276.5,-128.5 276.5,-98.5 137.5,-98.5"/>
<text text-anchor="start" x="145.5" y="-116.5" font-family="Helvetica,sans-Serif" font-size="10.00">wld_channel_mark_radar</text>
<text text-anchor="middle" x="207" y="-105.5" font-family="Helvetica,sans-Serif" font-size="10.00">_detected_channel</text>
</a>
</g>
</g>
<!-- Node1&#45;&gt;Node6 -->
<g id="edge5" class="edge">
<title>Node1&#45;&gt;Node6</title>
<path fill="none" stroke="midnightblue" d="M78.03,-152.94C97.81,-146.84 124.06,-138.75 147.64,-131.49"/>
<polygon fill="midnightblue" stroke="midnightblue" points="148.68,-134.83 157.21,-128.54 146.62,-128.14 148.68,-134.83"/>
</g>
<!-- Node7 -->
<g id="node7" class="node">
<title>Node7</title>
<g id="a_node7"><a xlink:href="wld__channel_8c.html#af280c210df36690e3e3f2feca13c4ad8" target="_top" xlink:title=" ">
<polygon fill="white" stroke="black" points="137.5,-49.5 137.5,-79.5 276.5,-79.5 276.5,-49.5 137.5,-49.5"/>
<text text-anchor="start" x="145.5" y="-67.5" font-family="Helvetica,sans-Serif" font-size="10.00">wld_channel_mark_radar</text>
<text text-anchor="middle" x="207" y="-56.5" font-family="Helvetica,sans-Serif" font-size="10.00">_req_channel</text>
</a>
</g>
</g>
<!-- Node1&#45;&gt;Node7 -->
<g id="edge6" class="edge">
<title>Node1&#45;&gt;Node7</title>
<path fill="none" stroke="midnightblue" d="M55.45,-152.55C69.17,-136.98 97.8,-106.86 128,-89.5 131.68,-87.39 135.55,-85.43 139.53,-83.61"/>
<polygon fill="midnightblue" stroke="midnightblue" points="141.11,-86.75 148.97,-79.64 138.4,-80.29 141.11,-86.75"/>
</g>
<!-- Node8 -->
<g id="node8" class="node">
<title>Node8</title>
<g id="a_node8"><a xlink:href="wld__channel_8c.html#a21233297a99a47a47bdd513f4bd1bc19" target="_top" xlink:title=" ">
<polygon fill="white" stroke="black" points="136.5,-0.5 136.5,-30.5 277.5,-30.5 277.5,-0.5 136.5,-0.5"/>
<text text-anchor="start" x="144.5" y="-18.5" font-family="Helvetica,sans-Serif" font-size="10.00">wld_channel_set_channel</text>
<text text-anchor="middle" x="207" y="-7.5" font-family="Helvetica,sans-Serif" font-size="10.00">_clear_time</text>
</a>
</g>
</g>
<!-- Node1&#45;&gt;Node8 -->
<g id="edge7" class="edge">
<title>Node1&#45;&gt;Node8</title>
<path fill="none" stroke="midnightblue" d="M50.68,-152.98C60.02,-130.1 86.83,-71.63 128,-40.5 130.47,-38.63 133.09,-36.9 135.81,-35.29"/>
<polygon fill="midnightblue" stroke="midnightblue" points="137.55,-38.33 144.79,-30.59 134.3,-32.13 137.55,-38.33"/>
</g>
</g>
</svg>
