<?xml version="1.0" encoding="UTF-8" standalone="no"?>
<!DOCTYPE svg PUBLIC "-//W3C//DTD SVG 1.1//EN"
 "http://www.w3.org/Graphics/SVG/1.1/DTD/svg11.dtd">
<!-- Generated by graphviz version 2.43.0 (0)
 -->
<!-- Title: src/Plugin/wifiGen.c Pages: 1 -->
<svg width="4500pt" height="364pt"
 viewBox="0.00 0.00 4499.70 364.00" xmlns="http://www.w3.org/2000/svg" xmlns:xlink="http://www.w3.org/1999/xlink">
<g id="graph0" class="graph" transform="scale(1 1) rotate(0) translate(4 360)">
<title>src/Plugin/wifiGen.c</title>
<polygon fill="white" stroke="transparent" points="-4,4 -4,-360 4495.7,-360 4495.7,4 -4,4"/>
<!-- Node1 -->
<g id="node1" class="node">
<title>Node1</title>
<g id="a_node1"><a xlink:title=" ">
<polygon fill="#bfbfbf" stroke="black" points="2357.6,-336.5 2357.6,-355.5 2469.6,-355.5 2469.6,-336.5 2357.6,-336.5"/>
<text text-anchor="middle" x="2413.6" y="-343.5" font-family="Helvetica,sans-Serif" font-size="10.00">src/Plugin/wifiGen.c</text>
</a>
</g>
</g>
<!-- Node2 -->
<g id="node2" class="node">
<title>Node2</title>
<g id="a_node2"><a xlink:href="wld_8h.html" target="_top" xlink:title=" ">
<polygon fill="white" stroke="red" points="2409.1,-168.5 2409.1,-187.5 2472.1,-187.5 2472.1,-168.5 2409.1,-168.5"/>
<text text-anchor="middle" x="2440.6" y="-175.5" font-family="Helvetica,sans-Serif" font-size="10.00">wld/wld.h</text>
</a>
</g>
</g>
<!-- Node1&#45;&gt;Node2 -->
<g id="edge1" class="edge">
<title>Node1&#45;&gt;Node2</title>
<path fill="none" stroke="midnightblue" d="M2469.68,-341.73C2562.98,-335.7 2741.73,-321.48 2760.6,-300 2841.15,-208.34 2586.32,-185.87 2482.54,-180.57"/>
<polygon fill="midnightblue" stroke="midnightblue" points="2482.55,-177.07 2472.4,-180.08 2482.22,-184.06 2482.55,-177.07"/>
</g>
<!-- Node75 -->
<g id="node40" class="node">
<title>Node75</title>
<g id="a_node40"><a xlink:href="wld__radio_8h.html" target="_top" xlink:title=" ">
<polygon fill="white" stroke="red" points="2248.1,-224.5 2248.1,-243.5 2341.1,-243.5 2341.1,-224.5 2248.1,-224.5"/>
<text text-anchor="middle" x="2294.6" y="-231.5" font-family="Helvetica,sans-Serif" font-size="10.00">wld/wld_radio.h</text>
</a>
</g>
</g>
<!-- Node1&#45;&gt;Node75 -->
<g id="edge48" class="edge">
<title>Node1&#45;&gt;Node75</title>
<path fill="none" stroke="midnightblue" d="M2357.21,-338.01C2311.78,-331.09 2253.16,-318.78 2238.6,-300 2224.39,-281.67 2248.2,-261.58 2269.02,-248.66"/>
<polygon fill="midnightblue" stroke="midnightblue" points="2270.8,-251.68 2277.65,-243.59 2267.25,-245.64 2270.8,-251.68"/>
</g>
<!-- Node82 -->
<g id="node41" class="node">
<title>Node82</title>
<g id="a_node41"><a xlink:href="wld__nl80211__api_8h.html" target="_top" xlink:title=" ">
<polygon fill="white" stroke="red" points="2000.6,-224.5 2000.6,-243.5 2128.6,-243.5 2128.6,-224.5 2000.6,-224.5"/>
<text text-anchor="middle" x="2064.6" y="-231.5" font-family="Helvetica,sans-Serif" font-size="10.00">wld/wld_nl80211_api.h</text>
</a>
</g>
</g>
<!-- Node1&#45;&gt;Node82 -->
<g id="edge50" class="edge">
<title>Node1&#45;&gt;Node82</title>
<path fill="none" stroke="midnightblue" d="M2359.13,-336.46C2316.88,-329.06 2257.19,-316.86 2206.6,-300 2164.03,-285.81 2117.16,-262.81 2089.34,-248.31"/>
<polygon fill="midnightblue" stroke="midnightblue" points="2090.81,-245.13 2080.33,-243.57 2087.55,-251.32 2090.81,-245.13"/>
</g>
<!-- Node91 -->
<g id="node42" class="node">
<title>Node91</title>
<g id="a_node42"><a xlink:href="wld__rad__nl80211_8h.html" target="_top" xlink:title=" ">
<polygon fill="white" stroke="red" points="1987.6,-280.5 1987.6,-299.5 2115.6,-299.5 2115.6,-280.5 1987.6,-280.5"/>
<text text-anchor="middle" x="2051.6" y="-287.5" font-family="Helvetica,sans-Serif" font-size="10.00">wld/wld_rad_nl80211.h</text>
</a>
</g>
</g>
<!-- Node1&#45;&gt;Node91 -->
<g id="edge51" class="edge">
<title>Node1&#45;&gt;Node91</title>
<path fill="none" stroke="midnightblue" d="M2357.44,-336.62C2293.12,-327.03 2187.79,-311.32 2119.08,-301.07"/>
<polygon fill="midnightblue" stroke="midnightblue" points="2119.2,-297.55 2108.8,-299.53 2118.17,-304.47 2119.2,-297.55"/>
</g>
<!-- Node94 -->
<g id="node43" class="node">
<title>Node94</title>
<g id="a_node43"><a xlink:href="wifiGen_8h.html" target="_top" xlink:title=" ">
<polygon fill="white" stroke="black" points="2247.6,-280.5 2247.6,-299.5 2309.6,-299.5 2309.6,-280.5 2247.6,-280.5"/>
<text text-anchor="middle" x="2278.6" y="-287.5" font-family="Helvetica,sans-Serif" font-size="10.00">wifiGen.h</text>
</a>
</g>
</g>
<!-- Node1&#45;&gt;Node94 -->
<g id="edge54" class="edge">
<title>Node1&#45;&gt;Node94</title>
<path fill="none" stroke="midnightblue" d="M2392.21,-336.44C2369.89,-327.52 2334.7,-313.44 2309.39,-303.32"/>
<polygon fill="midnightblue" stroke="midnightblue" points="2310.48,-299.98 2299.89,-299.52 2307.88,-306.48 2310.48,-299.98"/>
</g>
<!-- Node95 -->
<g id="node44" class="node">
<title>Node95</title>
<g id="a_node44"><a xlink:href="wifiGen__rad_8h.html" target="_top" xlink:title=" ">
<polygon fill="white" stroke="black" points="2147.1,-224.5 2147.1,-243.5 2230.1,-243.5 2230.1,-224.5 2147.1,-224.5"/>
<text text-anchor="middle" x="2188.6" y="-231.5" font-family="Helvetica,sans-Serif" font-size="10.00">wifiGen_rad.h</text>
</a>
</g>
</g>
<!-- Node1&#45;&gt;Node95 -->
<g id="edge55" class="edge">
<title>Node1&#45;&gt;Node95</title>
<path fill="none" stroke="midnightblue" d="M2357.52,-342.22C2318.49,-337.84 2266.97,-326.9 2229.6,-300 2213.4,-288.33 2202.12,-268.09 2195.56,-253.29"/>
<polygon fill="midnightblue" stroke="midnightblue" points="2198.64,-251.59 2191.6,-243.67 2192.17,-254.25 2198.64,-251.59"/>
</g>
<!-- Node96 -->
<g id="node45" class="node">
<title>Node96</title>
<g id="a_node45"><a xlink:href="wifiGen__vap_8h.html" target="_top" xlink:title=" ">
<polygon fill="white" stroke="black" points="2397.6,-224.5 2397.6,-243.5 2483.6,-243.5 2483.6,-224.5 2397.6,-224.5"/>
<text text-anchor="middle" x="2440.6" y="-231.5" font-family="Helvetica,sans-Serif" font-size="10.00">wifiGen_vap.h</text>
</a>
</g>
</g>
<!-- Node1&#45;&gt;Node96 -->
<g id="edge57" class="edge">
<title>Node1&#45;&gt;Node96</title>
<path fill="none" stroke="midnightblue" d="M2418.14,-336.29C2422.55,-327.41 2429.1,-313.11 2432.6,-300 2436.69,-284.71 2438.69,-266.82 2439.68,-253.69"/>
<polygon fill="midnightblue" stroke="midnightblue" points="2443.18,-253.75 2440.3,-243.56 2436.19,-253.32 2443.18,-253.75"/>
</g>
<!-- Node97 -->
<g id="node46" class="node">
<title>Node97</title>
<g id="a_node46"><a xlink:href="wifiGen__ep_8h.html" target="_top" xlink:title=" ">
<polygon fill="white" stroke="black" points="2501.6,-224.5 2501.6,-243.5 2581.6,-243.5 2581.6,-224.5 2501.6,-224.5"/>
<text text-anchor="middle" x="2541.6" y="-231.5" font-family="Helvetica,sans-Serif" font-size="10.00">wifiGen_ep.h</text>
</a>
</g>
</g>
<!-- Node1&#45;&gt;Node97 -->
<g id="edge59" class="edge">
<title>Node1&#45;&gt;Node97</title>
<path fill="none" stroke="midnightblue" d="M2423.65,-336.37C2445.33,-317.73 2496.76,-273.53 2523.99,-250.13"/>
<polygon fill="midnightblue" stroke="midnightblue" points="2526.3,-252.76 2531.6,-243.59 2521.74,-247.45 2526.3,-252.76"/>
</g>
<!-- Node98 -->
<g id="node47" class="node">
<title>Node98</title>
<g id="a_node47"><a xlink:href="wifiGen__fsm_8h.html" target="_top" xlink:title=" ">
<polygon fill="white" stroke="black" points="2517.6,-280.5 2517.6,-299.5 2603.6,-299.5 2603.6,-280.5 2517.6,-280.5"/>
<text text-anchor="middle" x="2560.6" y="-287.5" font-family="Helvetica,sans-Serif" font-size="10.00">wifiGen_fsm.h</text>
</a>
</g>
</g>
<!-- Node1&#45;&gt;Node98 -->
<g id="edge61" class="edge">
<title>Node1&#45;&gt;Node98</title>
<path fill="none" stroke="midnightblue" d="M2436.89,-336.44C2461.41,-327.44 2500.2,-313.19 2527.8,-303.05"/>
<polygon fill="midnightblue" stroke="midnightblue" points="2529.24,-306.25 2537.42,-299.52 2526.82,-299.68 2529.24,-306.25"/>
</g>
<!-- Node99 -->
<g id="node48" class="node">
<title>Node99</title>
<g id="a_node48"><a xlink:href="wifiGen__events_8h.html" target="_top" xlink:title=" ">
<polygon fill="white" stroke="black" points="2600.1,-224.5 2600.1,-243.5 2701.1,-243.5 2701.1,-224.5 2600.1,-224.5"/>
<text text-anchor="middle" x="2650.6" y="-231.5" font-family="Helvetica,sans-Serif" font-size="10.00">wifiGen_events.h</text>
</a>
</g>
</g>
<!-- Node1&#45;&gt;Node99 -->
<g id="edge62" class="edge">
<title>Node1&#45;&gt;Node99</title>
<path fill="none" stroke="midnightblue" d="M2470.02,-344.07C2512.83,-340.75 2571.16,-330.34 2612.6,-300 2628.39,-288.44 2638.7,-268.18 2644.55,-253.34"/>
<polygon fill="midnightblue" stroke="midnightblue" points="2647.93,-254.29 2648.03,-243.7 2641.34,-251.92 2647.93,-254.29"/>
</g>
<!-- Node100 -->
<g id="node49" class="node">
<title>Node100</title>
<g id="a_node49"><a xlink:href="wifiGen__hapd_8h.html" target="_top" xlink:title=" ">
<polygon fill="white" stroke="black" points="2659.6,-280.5 2659.6,-299.5 2751.6,-299.5 2751.6,-280.5 2659.6,-280.5"/>
<text text-anchor="middle" x="2705.6" y="-287.5" font-family="Helvetica,sans-Serif" font-size="10.00">wifiGen_hapd.h</text>
</a>
</g>
</g>
<!-- Node1&#45;&gt;Node100 -->
<g id="edge64" class="edge">
<title>Node1&#45;&gt;Node100</title>
<path fill="none" stroke="midnightblue" d="M2459.87,-336.44C2511.34,-326.92 2594.49,-311.55 2649.6,-301.36"/>
<polygon fill="midnightblue" stroke="midnightblue" points="2650.35,-304.78 2659.55,-299.52 2649.08,-297.89 2650.35,-304.78"/>
</g>
<!-- Node101 -->
<g id="node50" class="node">
<title>Node101</title>
<g id="a_node50"><a xlink:href="wifiGen__zwdfs_8h.html" target="_top" xlink:title=" ">
<polygon fill="white" stroke="red" points="2327.6,-280.5 2327.6,-299.5 2423.6,-299.5 2423.6,-280.5 2327.6,-280.5"/>
<text text-anchor="middle" x="2375.6" y="-287.5" font-family="Helvetica,sans-Serif" font-size="10.00">wifiGen_zwdfs.h</text>
</a>
</g>
</g>
<!-- Node1&#45;&gt;Node101 -->
<g id="edge66" class="edge">
<title>Node1&#45;&gt;Node101</title>
<path fill="none" stroke="midnightblue" d="M2407.33,-336.08C2401.96,-328.46 2394.08,-317.26 2387.52,-307.94"/>
<polygon fill="midnightblue" stroke="midnightblue" points="2390.38,-305.91 2381.76,-299.75 2384.65,-309.94 2390.38,-305.91"/>
</g>
<!-- Node3 -->
<g id="node3" class="node">
<title>Node3</title>
<g id="a_node3"><a xlink:title=" ">
<polygon fill="white" stroke="#bfbfbf" points="4135.6,-56.5 4135.6,-75.5 4197.6,-75.5 4197.6,-56.5 4135.6,-56.5"/>
<text text-anchor="middle" x="4166.6" y="-63.5" font-family="Helvetica,sans-Serif" font-size="10.00">stdbool.h</text>
</a>
</g>
</g>
<!-- Node2&#45;&gt;Node3 -->
<g id="edge2" class="edge">
<title>Node2&#45;&gt;Node3</title>
<path fill="none" stroke="midnightblue" d="M2472.11,-177.16C2685.06,-178.12 3910.14,-181.45 4067.6,-132 4084.47,-126.7 4123.37,-99.17 4147.08,-81.68"/>
<polygon fill="midnightblue" stroke="midnightblue" points="4149.41,-84.31 4155.34,-75.54 4145.23,-78.7 4149.41,-84.31"/>
</g>
<!-- Node4 -->
<g id="node4" class="node">
<title>Node4</title>
<g id="a_node4"><a xlink:title=" ">
<polygon fill="white" stroke="#bfbfbf" points="952.1,-0.5 952.1,-19.5 1005.1,-19.5 1005.1,-0.5 952.1,-0.5"/>
<text text-anchor="middle" x="978.6" y="-7.5" font-family="Helvetica,sans-Serif" font-size="10.00">stdint.h</text>
</a>
</g>
</g>
<!-- Node2&#45;&gt;Node4 -->
<g id="edge3" class="edge">
<title>Node2&#45;&gt;Node4</title>
<path fill="none" stroke="midnightblue" d="M2409.07,-177.03C2127.15,-177.21 48.8,-177.02 4.6,-132 -1.63,-125.66 -1.35,-118.6 4.6,-112 68.62,-41 772.04,-16.8 941.86,-11.96"/>
<polygon fill="midnightblue" stroke="midnightblue" points="942.14,-15.46 952.04,-11.68 941.95,-8.46 942.14,-15.46"/>
</g>
<!-- Node5 -->
<g id="node5" class="node">
<title>Node5</title>
<g id="a_node5"><a xlink:title=" ">
<polygon fill="white" stroke="#bfbfbf" points="99.6,-112.5 99.6,-131.5 209.6,-131.5 209.6,-112.5 99.6,-112.5"/>
<text text-anchor="middle" x="154.6" y="-119.5" font-family="Helvetica,sans-Serif" font-size="10.00">swl/swl_common.h</text>
</a>
</g>
</g>
<!-- Node2&#45;&gt;Node5 -->
<g id="edge4" class="edge">
<title>Node2&#45;&gt;Node5</title>
<path fill="none" stroke="midnightblue" d="M2408.85,-176.88C2173.25,-175.9 693.38,-168.41 220.03,-131.99"/>
<polygon fill="midnightblue" stroke="midnightblue" points="219.96,-128.47 209.71,-131.18 219.41,-135.45 219.96,-128.47"/>
</g>
<!-- Node6 -->
<g id="node6" class="node">
<title>Node6</title>
<g id="a_node6"><a xlink:title=" ">
<polygon fill="white" stroke="#bfbfbf" points="227.6,-112.5 227.6,-131.5 363.6,-131.5 363.6,-112.5 227.6,-112.5"/>
<text text-anchor="middle" x="295.6" y="-119.5" font-family="Helvetica,sans-Serif" font-size="10.00">swla/swla_commonLib.h</text>
</a>
</g>
</g>
<!-- Node2&#45;&gt;Node6 -->
<g id="edge5" class="edge">
<title>Node2&#45;&gt;Node6</title>
<path fill="none" stroke="midnightblue" d="M2408.91,-176.72C2183.12,-174.68 814.73,-161.3 374.24,-132.03"/>
<polygon fill="midnightblue" stroke="midnightblue" points="374.22,-128.52 364,-131.34 373.74,-135.5 374.22,-128.52"/>
</g>
<!-- Node7 -->
<g id="node7" class="node">
<title>Node7</title>
<g id="a_node7"><a xlink:title=" ">
<polygon fill="white" stroke="#bfbfbf" points="381.6,-112.5 381.6,-131.5 469.6,-131.5 469.6,-112.5 381.6,-112.5"/>
<text text-anchor="middle" x="425.6" y="-119.5" font-family="Helvetica,sans-Serif" font-size="10.00">swl/swl_uuid.h</text>
</a>
</g>
</g>
<!-- Node2&#45;&gt;Node7 -->
<g id="edge6" class="edge">
<title>Node2&#45;&gt;Node7</title>
<path fill="none" stroke="midnightblue" d="M2408.77,-176.9C2189.26,-176.15 896.7,-170.16 479.77,-131.93"/>
<polygon fill="midnightblue" stroke="midnightblue" points="480.07,-128.45 469.78,-131 479.41,-135.42 480.07,-128.45"/>
</g>
<!-- Node8 -->
<g id="node8" class="node">
<title>Node8</title>
<g id="a_node8"><a xlink:title=" ">
<polygon fill="white" stroke="#bfbfbf" points="487.6,-112.5 487.6,-131.5 639.6,-131.5 639.6,-112.5 487.6,-112.5"/>
<text text-anchor="middle" x="563.6" y="-119.5" font-family="Helvetica,sans-Serif" font-size="10.00">swla/swla_radioStandards.h</text>
</a>
</g>
</g>
<!-- Node2&#45;&gt;Node8 -->
<g id="edge7" class="edge">
<title>Node2&#45;&gt;Node8</title>
<path fill="none" stroke="midnightblue" d="M2409.03,-177.15C2234.31,-177.81 1368.23,-178.52 650.06,-132.04"/>
<polygon fill="midnightblue" stroke="midnightblue" points="650.24,-128.54 640.03,-131.39 649.78,-135.53 650.24,-128.54"/>
</g>
<!-- Node9 -->
<g id="node9" class="node">
<title>Node9</title>
<g id="a_node9"><a xlink:title=" ">
<polygon fill="white" stroke="#bfbfbf" points="4256.1,-0.5 4256.1,-19.5 4357.1,-19.5 4357.1,-0.5 4256.1,-0.5"/>
<text text-anchor="middle" x="4306.6" y="-7.5" font-family="Helvetica,sans-Serif" font-size="10.00">swla/swla_time.h</text>
</a>
</g>
</g>
<!-- Node2&#45;&gt;Node9 -->
<g id="edge8" class="edge">
<title>Node2&#45;&gt;Node9</title>
<path fill="none" stroke="midnightblue" d="M2472.43,-176.91C2728.4,-176.13 4442.95,-169.47 4479.6,-132 4527.14,-83.4 4414.98,-41.71 4349.58,-22.42"/>
<polygon fill="midnightblue" stroke="midnightblue" points="4350.48,-19.04 4339.9,-19.63 4348.54,-25.77 4350.48,-19.04"/>
</g>
<!-- Node10 -->
<g id="node10" class="node">
<title>Node10</title>
<g id="a_node10"><a xlink:title=" ">
<polygon fill="white" stroke="#bfbfbf" points="743.1,-112.5 743.1,-131.5 872.1,-131.5 872.1,-112.5 743.1,-112.5"/>
<text text-anchor="middle" x="807.6" y="-119.5" font-family="Helvetica,sans-Serif" font-size="10.00">swla/swla_time_spec.h</text>
</a>
</g>
</g>
<!-- Node2&#45;&gt;Node10 -->
<g id="edge9" class="edge">
<title>Node2&#45;&gt;Node10</title>
<path fill="none" stroke="midnightblue" d="M2408.98,-177.17C2247.96,-177.8 1502.93,-178.04 882.19,-131.96"/>
<polygon fill="midnightblue" stroke="midnightblue" points="882.37,-128.46 872.14,-131.2 881.85,-135.44 882.37,-128.46"/>
</g>
<!-- Node11 -->
<g id="node11" class="node">
<title>Node11</title>
<g id="a_node11"><a xlink:title=" ">
<polygon fill="white" stroke="#bfbfbf" points="890.6,-112.5 890.6,-131.5 984.6,-131.5 984.6,-112.5 890.6,-112.5"/>
<text text-anchor="middle" x="937.6" y="-119.5" font-family="Helvetica,sans-Serif" font-size="10.00">swla/swla_oui.h</text>
</a>
</g>
</g>
<!-- Node2&#45;&gt;Node11 -->
<g id="edge10" class="edge">
<title>Node2&#45;&gt;Node11</title>
<path fill="none" stroke="midnightblue" d="M2408.97,-176.57C2226.21,-174 1303.02,-159.86 995.15,-131.99"/>
<polygon fill="midnightblue" stroke="midnightblue" points="995.18,-128.48 984.9,-131.04 994.54,-135.45 995.18,-128.48"/>
</g>
<!-- Node12 -->
<g id="node12" class="node">
<title>Node12</title>
<g id="a_node12"><a xlink:title=" ">
<polygon fill="white" stroke="#bfbfbf" points="1002.6,-112.5 1002.6,-131.5 1130.6,-131.5 1130.6,-112.5 1002.6,-112.5"/>
<text text-anchor="middle" x="1066.6" y="-119.5" font-family="Helvetica,sans-Serif" font-size="10.00">swla/swla_delayExec.h</text>
</a>
</g>
</g>
<!-- Node2&#45;&gt;Node12 -->
<g id="edge11" class="edge">
<title>Node2&#45;&gt;Node12</title>
<path fill="none" stroke="midnightblue" d="M2408.85,-176.93C2264.19,-176.41 1652.98,-171.87 1140.85,-132.02"/>
<polygon fill="midnightblue" stroke="midnightblue" points="1140.91,-128.51 1130.66,-131.22 1140.36,-135.49 1140.91,-128.51"/>
</g>
<!-- Node13 -->
<g id="node13" class="node">
<title>Node13</title>
<g id="a_node13"><a xlink:title=" ">
<polygon fill="white" stroke="#bfbfbf" points="1149.1,-112.5 1149.1,-131.5 1268.1,-131.5 1268.1,-112.5 1149.1,-112.5"/>
<text text-anchor="middle" x="1208.6" y="-119.5" font-family="Helvetica,sans-Serif" font-size="10.00">swla/swla_function.h</text>
</a>
</g>
</g>
<!-- Node2&#45;&gt;Node13 -->
<g id="edge12" class="edge">
<title>Node2&#45;&gt;Node13</title>
<path fill="none" stroke="midnightblue" d="M2409.05,-176.86C2274.23,-176.01 1732.95,-170.34 1278.32,-132.07"/>
<polygon fill="midnightblue" stroke="midnightblue" points="1278.53,-128.57 1268.27,-131.22 1277.94,-135.55 1278.53,-128.57"/>
</g>
<!-- Node14 -->
<g id="node14" class="node">
<title>Node14</title>
<g id="a_node14"><a xlink:title=" ">
<polygon fill="white" stroke="#bfbfbf" points="1286.1,-112.5 1286.1,-131.5 1427.1,-131.5 1427.1,-112.5 1286.1,-112.5"/>
<text text-anchor="middle" x="1356.6" y="-119.5" font-family="Helvetica,sans-Serif" font-size="10.00">swl/swl_usp_cmdStatus.h</text>
</a>
</g>
</g>
<!-- Node2&#45;&gt;Node14 -->
<g id="edge13" class="edge">
<title>Node2&#45;&gt;Node14</title>
<path fill="none" stroke="midnightblue" d="M2408.9,-176.36C2285.71,-173.69 1826.78,-162.23 1437.3,-131.99"/>
<polygon fill="midnightblue" stroke="midnightblue" points="1437.49,-128.5 1427.25,-131.21 1436.94,-135.48 1437.49,-128.5"/>
</g>
<!-- Node15 -->
<g id="node15" class="node">
<title>Node15</title>
<g id="a_node15"><a xlink:title=" ">
<polygon fill="white" stroke="#bfbfbf" points="1445.6,-112.5 1445.6,-131.5 1531.6,-131.5 1531.6,-112.5 1445.6,-112.5"/>
<text text-anchor="middle" x="1488.6" y="-119.5" font-family="Helvetica,sans-Serif" font-size="10.00">swl/swl_wps.h</text>
</a>
</g>
</g>
<!-- Node2&#45;&gt;Node15 -->
<g id="edge14" class="edge">
<title>Node2&#45;&gt;Node15</title>
<path fill="none" stroke="midnightblue" d="M2409.01,-176.81C2294.03,-175.81 1887.03,-169.74 1541.62,-131.97"/>
<polygon fill="midnightblue" stroke="midnightblue" points="1542,-128.49 1531.67,-130.87 1541.23,-135.45 1542,-128.49"/>
</g>
<!-- Node16 -->
<g id="node16" class="node">
<title>Node16</title>
<g id="a_node16"><a xlink:title=" ">
<polygon fill="white" stroke="#bfbfbf" points="1549.6,-112.5 1549.6,-131.5 1653.6,-131.5 1653.6,-112.5 1549.6,-112.5"/>
<text text-anchor="middle" x="1601.6" y="-119.5" font-family="Helvetica,sans-Serif" font-size="10.00">swl/swl_security.h</text>
</a>
</g>
</g>
<!-- Node2&#45;&gt;Node16 -->
<g id="edge15" class="edge">
<title>Node2&#45;&gt;Node16</title>
<path fill="none" stroke="midnightblue" d="M2409.03,-176.18C2304.41,-173.25 1959.5,-161.88 1663.86,-132.04"/>
<polygon fill="midnightblue" stroke="midnightblue" points="1664.11,-128.54 1653.81,-131.01 1663.4,-135.51 1664.11,-128.54"/>
</g>
<!-- Node17 -->
<g id="node17" class="node">
<title>Node17</title>
<g id="a_node17"><a xlink:title=" ">
<polygon fill="white" stroke="#bfbfbf" points="1672.1,-112.5 1672.1,-131.5 1755.1,-131.5 1755.1,-112.5 1672.1,-112.5"/>
<text text-anchor="middle" x="1713.6" y="-119.5" font-family="Helvetica,sans-Serif" font-size="10.00">amxc/amxc.h</text>
</a>
</g>
</g>
<!-- Node2&#45;&gt;Node17 -->
<g id="edge16" class="edge">
<title>Node2&#45;&gt;Node17</title>
<path fill="none" stroke="midnightblue" d="M2408.81,-176.11C2313.15,-173.16 2019.45,-162.22 1765.45,-131.96"/>
<polygon fill="midnightblue" stroke="midnightblue" points="1765.64,-128.46 1755.3,-130.74 1764.81,-135.41 1765.64,-128.46"/>
</g>
<!-- Node18 -->
<g id="node18" class="node">
<title>Node18</title>
<g id="a_node18"><a xlink:title=" ">
<polygon fill="white" stroke="#bfbfbf" points="1773.6,-112.5 1773.6,-131.5 1857.6,-131.5 1857.6,-112.5 1773.6,-112.5"/>
<text text-anchor="middle" x="1815.6" y="-119.5" font-family="Helvetica,sans-Serif" font-size="10.00">amxp/amxp.h</text>
</a>
</g>
</g>
<!-- Node2&#45;&gt;Node18 -->
<g id="edge17" class="edge">
<title>Node2&#45;&gt;Node18</title>
<path fill="none" stroke="midnightblue" d="M2409.07,-175.6C2323.63,-171.57 2080.37,-158.6 1867.95,-132.05"/>
<polygon fill="midnightblue" stroke="midnightblue" points="1868.21,-128.56 1857.85,-130.78 1867.34,-135.51 1868.21,-128.56"/>
</g>
<!-- Node19 -->
<g id="node19" class="node">
<title>Node19</title>
<g id="a_node19"><a xlink:title=" ">
<polygon fill="white" stroke="#bfbfbf" points="1875.6,-112.5 1875.6,-131.5 2015.6,-131.5 2015.6,-112.5 1875.6,-112.5"/>
<text text-anchor="middle" x="1945.6" y="-119.5" font-family="Helvetica,sans-Serif" font-size="10.00">amxd/amxd_parameter.h</text>
</a>
</g>
</g>
<!-- Node2&#45;&gt;Node19 -->
<g id="edge18" class="edge">
<title>Node2&#45;&gt;Node19</title>
<path fill="none" stroke="midnightblue" d="M2409.02,-173.65C2341.09,-166.42 2175.75,-148.75 2026.1,-132.16"/>
<polygon fill="midnightblue" stroke="midnightblue" points="2026.14,-128.64 2015.81,-131.02 2025.36,-135.6 2026.14,-128.64"/>
</g>
<!-- Node20 -->
<g id="node20" class="node">
<title>Node20</title>
<g id="a_node20"><a xlink:title=" ">
<polygon fill="white" stroke="#bfbfbf" points="2034.1,-112.5 2034.1,-131.5 2153.1,-131.5 2153.1,-112.5 2034.1,-112.5"/>
<text text-anchor="middle" x="2093.6" y="-119.5" font-family="Helvetica,sans-Serif" font-size="10.00">amxd/amxd_action.h</text>
</a>
</g>
</g>
<!-- Node2&#45;&gt;Node20 -->
<g id="edge19" class="edge">
<title>Node2&#45;&gt;Node20</title>
<path fill="none" stroke="midnightblue" d="M2408.89,-172.06C2352.32,-163.26 2232.98,-144.69 2158.43,-133.09"/>
<polygon fill="midnightblue" stroke="midnightblue" points="2158.64,-129.58 2148.22,-131.5 2157.57,-136.5 2158.64,-129.58"/>
</g>
<!-- Node21 -->
<g id="node21" class="node">
<title>Node21</title>
<g id="a_node21"><a xlink:title=" ">
<polygon fill="white" stroke="#bfbfbf" points="2171.1,-112.5 2171.1,-131.5 2346.1,-131.5 2346.1,-112.5 2171.1,-112.5"/>
<text text-anchor="middle" x="2258.6" y="-119.5" font-family="Helvetica,sans-Serif" font-size="10.00">amxd/amxd_object_parameter.h</text>
</a>
</g>
</g>
<!-- Node2&#45;&gt;Node21 -->
<g id="edge20" class="edge">
<title>Node2&#45;&gt;Node21</title>
<path fill="none" stroke="midnightblue" d="M2411.76,-168.44C2380.75,-159.24 2331.27,-144.56 2296.98,-134.39"/>
<polygon fill="midnightblue" stroke="midnightblue" points="2297.89,-131.01 2287.31,-131.52 2295.9,-137.72 2297.89,-131.01"/>
</g>
<!-- Node22 -->
<g id="node22" class="node">
<title>Node22</title>
<g id="a_node22"><a xlink:title=" ">
<polygon fill="white" stroke="#bfbfbf" points="2364.6,-112.5 2364.6,-131.5 2516.6,-131.5 2516.6,-112.5 2364.6,-112.5"/>
<text text-anchor="middle" x="2440.6" y="-119.5" font-family="Helvetica,sans-Serif" font-size="10.00">amxd/amxd_object_event.h</text>
</a>
</g>
</g>
<!-- Node2&#45;&gt;Node22 -->
<g id="edge21" class="edge">
<title>Node2&#45;&gt;Node22</title>
<path fill="none" stroke="midnightblue" d="M2440.6,-168.08C2440.6,-161.01 2440.6,-150.86 2440.6,-141.99"/>
<polygon fill="midnightblue" stroke="midnightblue" points="2444.1,-141.75 2440.6,-131.75 2437.1,-141.75 2444.1,-141.75"/>
</g>
<!-- Node23 -->
<g id="node23" class="node">
<title>Node23</title>
<g id="a_node23"><a xlink:title=" ">
<polygon fill="white" stroke="#bfbfbf" points="2535.1,-112.5 2535.1,-131.5 2664.1,-131.5 2664.1,-112.5 2535.1,-112.5"/>
<text text-anchor="middle" x="2599.6" y="-119.5" font-family="Helvetica,sans-Serif" font-size="10.00">amxd/amxd_function.h</text>
</a>
</g>
</g>
<!-- Node2&#45;&gt;Node23 -->
<g id="edge22" class="edge">
<title>Node2&#45;&gt;Node23</title>
<path fill="none" stroke="midnightblue" d="M2465.8,-168.44C2492.54,-159.36 2535,-144.94 2564.91,-134.78"/>
<polygon fill="midnightblue" stroke="midnightblue" points="2566.18,-138.05 2574.53,-131.52 2563.93,-131.42 2566.18,-138.05"/>
</g>
<!-- Node24 -->
<g id="node24" class="node">
<title>Node24</title>
<g id="a_node24"><a xlink:title=" ">
<polygon fill="white" stroke="#bfbfbf" points="2682.1,-112.5 2682.1,-131.5 2851.1,-131.5 2851.1,-112.5 2682.1,-112.5"/>
<text text-anchor="middle" x="2766.6" y="-119.5" font-family="Helvetica,sans-Serif" font-size="10.00">amxd/amxd_object_hierarchy.h</text>
</a>
</g>
</g>
<!-- Node2&#45;&gt;Node24 -->
<g id="edge23" class="edge">
<title>Node2&#45;&gt;Node24</title>
<path fill="none" stroke="midnightblue" d="M2472.16,-171.77C2525.84,-162.88 2635.86,-144.66 2705.16,-133.18"/>
<polygon fill="midnightblue" stroke="midnightblue" points="2705.79,-136.62 2715.08,-131.53 2704.64,-129.72 2705.79,-136.62"/>
</g>
<!-- Node25 -->
<g id="node25" class="node">
<title>Node25</title>
<g id="a_node25"><a xlink:title=" ">
<polygon fill="white" stroke="#bfbfbf" points="2869.1,-112.5 2869.1,-131.5 2988.1,-131.5 2988.1,-112.5 2869.1,-112.5"/>
<text text-anchor="middle" x="2928.6" y="-119.5" font-family="Helvetica,sans-Serif" font-size="10.00">amxd/amxd_object.h</text>
</a>
</g>
</g>
<!-- Node2&#45;&gt;Node25 -->
<g id="edge24" class="edge">
<title>Node2&#45;&gt;Node25</title>
<path fill="none" stroke="midnightblue" d="M2472.24,-173.88C2540.71,-167.07 2707.96,-150.13 2858.56,-132.22"/>
<polygon fill="midnightblue" stroke="midnightblue" points="2859.39,-135.65 2868.91,-130.99 2858.56,-128.7 2859.39,-135.65"/>
</g>
<!-- Node26 -->
<g id="node26" class="node">
<title>Node26</title>
<g id="a_node26"><a xlink:title=" ">
<polygon fill="white" stroke="#bfbfbf" points="3006.1,-112.5 3006.1,-131.5 3111.1,-131.5 3111.1,-112.5 3006.1,-112.5"/>
<text text-anchor="middle" x="3058.6" y="-119.5" font-family="Helvetica,sans-Serif" font-size="10.00">amxd/amxd_dm.h</text>
</a>
</g>
</g>
<!-- Node2&#45;&gt;Node26 -->
<g id="edge25" class="edge">
<title>Node2&#45;&gt;Node26</title>
<path fill="none" stroke="midnightblue" d="M2472.39,-175.17C2556.25,-170.18 2790.6,-155.22 2995.99,-132.12"/>
<polygon fill="midnightblue" stroke="midnightblue" points="2996.52,-135.58 3006.06,-130.98 2995.73,-128.63 2996.52,-135.58"/>
</g>
<!-- Node27 -->
<g id="node27" class="node">
<title>Node27</title>
<g id="a_node27"><a xlink:title=" ">
<polygon fill="white" stroke="#bfbfbf" points="3129.6,-112.5 3129.6,-131.5 3273.6,-131.5 3273.6,-112.5 3129.6,-112.5"/>
<text text-anchor="middle" x="3201.6" y="-119.5" font-family="Helvetica,sans-Serif" font-size="10.00">amxd/amxd_transaction.h</text>
</a>
</g>
</g>
<!-- Node2&#45;&gt;Node27 -->
<g id="edge26" class="edge">
<title>Node2&#45;&gt;Node27</title>
<path fill="none" stroke="midnightblue" d="M2472.16,-175.41C2567.81,-170.5 2863.12,-154.54 3118.96,-132.11"/>
<polygon fill="midnightblue" stroke="midnightblue" points="3119.54,-135.57 3129.19,-131.21 3118.93,-128.6 3119.54,-135.57"/>
</g>
<!-- Node28 -->
<g id="node28" class="node">
<title>Node28</title>
<g id="a_node28"><a xlink:title=" ">
<polygon fill="white" stroke="#bfbfbf" points="3291.6,-112.5 3291.6,-131.5 3407.6,-131.5 3407.6,-112.5 3291.6,-112.5"/>
<text text-anchor="middle" x="3349.6" y="-119.5" font-family="Helvetica,sans-Serif" font-size="10.00">amxb/amxb_types.h</text>
</a>
</g>
</g>
<!-- Node2&#45;&gt;Node28 -->
<g id="edge27" class="edge">
<title>Node2&#45;&gt;Node28</title>
<path fill="none" stroke="midnightblue" d="M2472.4,-176.22C2582.76,-173.32 2959.58,-161.78 3281.54,-132.02"/>
<polygon fill="midnightblue" stroke="midnightblue" points="3281.9,-135.5 3291.53,-131.09 3281.25,-128.53 3281.9,-135.5"/>
</g>
<!-- Node29 -->
<g id="node29" class="node">
<title>Node29</title>
<g id="a_node29"><a xlink:title=" ">
<polygon fill="white" stroke="#bfbfbf" points="3425.6,-112.5 3425.6,-131.5 3561.6,-131.5 3561.6,-112.5 3425.6,-112.5"/>
<text text-anchor="middle" x="3493.6" y="-119.5" font-family="Helvetica,sans-Serif" font-size="10.00">amxb/amxb_operators.h</text>
</a>
</g>
</g>
<!-- Node2&#45;&gt;Node29 -->
<g id="edge28" class="edge">
<title>Node2&#45;&gt;Node29</title>
<path fill="none" stroke="midnightblue" d="M2472.25,-176.35C2593.21,-173.69 3038.01,-162.37 3415.18,-132.06"/>
<polygon fill="midnightblue" stroke="midnightblue" points="3415.51,-135.54 3425.19,-131.25 3414.94,-128.57 3415.51,-135.54"/>
</g>
<!-- Node30 -->
<g id="node30" class="node">
<title>Node30</title>
<g id="a_node30"><a xlink:title=" ">
<polygon fill="white" stroke="#bfbfbf" points="3579.6,-112.5 3579.6,-131.5 3691.6,-131.5 3691.6,-112.5 3579.6,-112.5"/>
<text text-anchor="middle" x="3635.6" y="-119.5" font-family="Helvetica,sans-Serif" font-size="10.00">amxb/amxb_error.h</text>
</a>
</g>
</g>
<!-- Node2&#45;&gt;Node30 -->
<g id="edge29" class="edge">
<title>Node2&#45;&gt;Node30</title>
<path fill="none" stroke="midnightblue" d="M2472.13,-176.87C2604.49,-176.1 3128.43,-170.69 3569.2,-132.03"/>
<polygon fill="midnightblue" stroke="midnightblue" points="3569.62,-135.51 3579.27,-131.14 3569,-128.54 3569.62,-135.51"/>
</g>
<!-- Node31 -->
<g id="node31" class="node">
<title>Node31</title>
<g id="a_node31"><a xlink:title=" ">
<polygon fill="white" stroke="#bfbfbf" points="3710.1,-112.5 3710.1,-131.5 3793.1,-131.5 3793.1,-112.5 3710.1,-112.5"/>
<text text-anchor="middle" x="3751.6" y="-119.5" font-family="Helvetica,sans-Serif" font-size="10.00">amxo/amxo.h</text>
</a>
</g>
</g>
<!-- Node2&#45;&gt;Node31 -->
<g id="edge30" class="edge">
<title>Node2&#45;&gt;Node31</title>
<path fill="none" stroke="midnightblue" d="M2472.21,-176.47C2640.29,-173.55 3431.32,-158.66 3699.82,-131.88"/>
<polygon fill="midnightblue" stroke="midnightblue" points="3700.33,-135.35 3709.92,-130.84 3699.61,-128.38 3700.33,-135.35"/>
</g>
<!-- Node32 -->
<g id="node32" class="node">
<title>Node32</title>
<g id="a_node32"><a xlink:title=" ">
<polygon fill="white" stroke="#bfbfbf" points="3811.1,-112.5 3811.1,-131.5 3926.1,-131.5 3926.1,-112.5 3811.1,-112.5"/>
<text text-anchor="middle" x="3868.6" y="-119.5" font-family="Helvetica,sans-Serif" font-size="10.00">amxo/amxo_types.h</text>
</a>
</g>
</g>
<!-- Node2&#45;&gt;Node32 -->
<g id="edge31" class="edge">
<title>Node2&#45;&gt;Node32</title>
<path fill="none" stroke="midnightblue" d="M2472.35,-177.15C2621.07,-177.61 3263.94,-176.82 3800.77,-132.06"/>
<polygon fill="midnightblue" stroke="midnightblue" points="3801.38,-135.53 3811.05,-131.2 3800.79,-128.55 3801.38,-135.53"/>
</g>
<!-- Node33 -->
<g id="node33" class="node">
<title>Node33</title>
<g id="a_node33"><a xlink:href="wld__types_8h.html" target="_top" xlink:title=" ">
<polygon fill="white" stroke="red" points="2925.1,-56.5 2925.1,-75.5 3000.1,-75.5 3000.1,-56.5 2925.1,-56.5"/>
<text text-anchor="middle" x="2962.6" y="-63.5" font-family="Helvetica,sans-Serif" font-size="10.00">wld_types.h</text>
</a>
</g>
</g>
<!-- Node2&#45;&gt;Node33 -->
<g id="edge32" class="edge">
<title>Node2&#45;&gt;Node33</title>
<path fill="none" stroke="midnightblue" d="M2472.26,-176.65C2685.9,-174.23 3909.2,-159.21 3935.6,-132 3941.79,-125.62 3941.74,-118.43 3935.6,-112 3903.33,-78.2 3201.28,-69.22 3010.23,-67.4"/>
<polygon fill="midnightblue" stroke="midnightblue" points="3010.24,-63.9 3000.21,-67.3 3010.18,-70.9 3010.24,-63.9"/>
</g>
<!-- Node36 -->
<g id="node34" class="node">
<title>Node36</title>
<g id="a_node34"><a xlink:href="wld__channel__types_8h.html" target="_top" xlink:title=" ">
<polygon fill="white" stroke="red" points="4247.1,-112.5 4247.1,-131.5 4366.1,-131.5 4366.1,-112.5 4247.1,-112.5"/>
<text text-anchor="middle" x="4306.6" y="-119.5" font-family="Helvetica,sans-Serif" font-size="10.00">wld_channel_types.h</text>
</a>
</g>
</g>
<!-- Node2&#45;&gt;Node36 -->
<g id="edge35" class="edge">
<title>Node2&#45;&gt;Node36</title>
<path fill="none" stroke="midnightblue" d="M2472.39,-176.66C2680.74,-174.36 3854.04,-160.37 4236.81,-131.95"/>
<polygon fill="midnightblue" stroke="midnightblue" points="4237.1,-135.44 4246.8,-131.19 4236.57,-128.46 4237.1,-135.44"/>
</g>
<!-- Node38 -->
<g id="node35" class="node">
<title>Node38</title>
<g id="a_node35"><a xlink:href="wld__bgdfs_8h.html" target="_top" xlink:title=" ">
<polygon fill="white" stroke="black" points="3983.1,-112.5 3983.1,-131.5 4058.1,-131.5 4058.1,-112.5 3983.1,-112.5"/>
<text text-anchor="middle" x="4020.6" y="-119.5" font-family="Helvetica,sans-Serif" font-size="10.00">wld_bgdfs.h</text>
</a>
</g>
</g>
<!-- Node2&#45;&gt;Node38 -->
<g id="edge38" class="edge">
<title>Node2&#45;&gt;Node38</title>
<path fill="none" stroke="midnightblue" d="M2472.13,-176.68C2662.74,-174.67 3663.29,-162.76 3968.6,-132 3969.91,-131.87 3971.23,-131.72 3972.57,-131.57"/>
<polygon fill="midnightblue" stroke="midnightblue" points="3973.47,-134.98 3982.91,-130.17 3972.54,-128.04 3973.47,-134.98"/>
</g>
<!-- Node39 -->
<g id="node36" class="node">
<title>Node39</title>
<g id="a_node36"><a xlink:href="wld__rad__delayMgr_8h.html" target="_top" xlink:title=" ">
<polygon fill="white" stroke="black" points="4114.6,-112.5 4114.6,-131.5 4228.6,-131.5 4228.6,-112.5 4114.6,-112.5"/>
<text text-anchor="middle" x="4171.6" y="-119.5" font-family="Helvetica,sans-Serif" font-size="10.00">wld_rad_delayMgr.h</text>
</a>
</g>
</g>
<!-- Node2&#45;&gt;Node39 -->
<g id="edge40" class="edge">
<title>Node2&#45;&gt;Node39</title>
<path fill="none" stroke="midnightblue" d="M2472.11,-177.33C2639.44,-178.73 3439.44,-182.05 4091.6,-132 4095.71,-131.68 4099.95,-131.3 4104.24,-130.87"/>
<polygon fill="midnightblue" stroke="midnightblue" points="4104.7,-134.34 4114.27,-129.79 4103.96,-127.38 4104.7,-134.34"/>
</g>
<!-- Node40 -->
<g id="node37" class="node">
<title>Node40</title>
<g id="a_node37"><a xlink:href="wld__fsm_8h.html" target="_top" xlink:title=" ">
<polygon fill="white" stroke="black" points="14.1,-112.5 14.1,-131.5 81.1,-131.5 81.1,-112.5 14.1,-112.5"/>
<text text-anchor="middle" x="47.6" y="-119.5" font-family="Helvetica,sans-Serif" font-size="10.00">wld_fsm.h</text>
</a>
</g>
</g>
<!-- Node2&#45;&gt;Node40 -->
<g id="edge42" class="edge">
<title>Node2&#45;&gt;Node40</title>
<path fill="none" stroke="midnightblue" d="M2408.92,-176.75C2149.45,-174.68 377.05,-159.63 91.57,-131.76"/>
<polygon fill="midnightblue" stroke="midnightblue" points="91.62,-128.24 81.31,-130.68 90.88,-135.2 91.62,-128.24"/>
</g>
<!-- Node41 -->
<g id="node38" class="node">
<title>Node41</title>
<g id="a_node38"><a xlink:href="wld__sensing_8h.html" target="_top" xlink:title=" ">
<polygon fill="white" stroke="black" points="4384.6,-112.5 4384.6,-131.5 4470.6,-131.5 4470.6,-112.5 4384.6,-112.5"/>
<text text-anchor="middle" x="4427.6" y="-119.5" font-family="Helvetica,sans-Serif" font-size="10.00">wld_sensing.h</text>
</a>
</g>
</g>
<!-- Node2&#45;&gt;Node41 -->
<g id="edge44" class="edge">
<title>Node2&#45;&gt;Node41</title>
<path fill="none" stroke="midnightblue" d="M2472.3,-176.9C2690.91,-176.12 3976.56,-170.08 4366.6,-132 4369.11,-131.75 4371.69,-131.46 4374.3,-131.12"/>
<polygon fill="midnightblue" stroke="midnightblue" points="4375.02,-134.55 4384.43,-129.68 4374.03,-127.63 4375.02,-134.55"/>
</g>
<!-- Node42 -->
<g id="node39" class="node">
<title>Node42</title>
<g id="a_node39"><a xlink:href="wld__mld_8h.html" target="_top" xlink:title=" ">
<polygon fill="white" stroke="black" points="658.1,-112.5 658.1,-131.5 725.1,-131.5 725.1,-112.5 658.1,-112.5"/>
<text text-anchor="middle" x="691.6" y="-119.5" font-family="Helvetica,sans-Serif" font-size="10.00">wld_mld.h</text>
</a>
</g>
</g>
<!-- Node2&#45;&gt;Node42 -->
<g id="edge46" class="edge">
<title>Node2&#45;&gt;Node42</title>
<path fill="none" stroke="midnightblue" d="M2409.07,-176.96C2207.52,-176.62 1096.87,-172.91 735.39,-131.97"/>
<polygon fill="midnightblue" stroke="midnightblue" points="735.78,-128.49 725.44,-130.81 734.97,-135.45 735.78,-128.49"/>
</g>
<!-- Node33&#45;&gt;Node4 -->
<g id="edge33" class="edge">
<title>Node33&#45;&gt;Node4</title>
<path fill="none" stroke="midnightblue" d="M2924.74,-63.97C2674.66,-57.16 1262.83,-18.74 1015.56,-12.01"/>
<polygon fill="midnightblue" stroke="midnightblue" points="1015.41,-8.5 1005.31,-11.73 1015.22,-15.5 1015.41,-8.5"/>
</g>
<!-- Node33&#45;&gt;Node9 -->
<g id="edge34" class="edge">
<title>Node33&#45;&gt;Node9</title>
<path fill="none" stroke="midnightblue" d="M3000.3,-63.49C3187.03,-55.98 4013.02,-22.8 4245.52,-13.45"/>
<polygon fill="midnightblue" stroke="midnightblue" points="4245.96,-16.94 4255.81,-13.04 4245.68,-9.95 4245.96,-16.94"/>
</g>
<!-- Node36&#45;&gt;Node3 -->
<g id="edge36" class="edge">
<title>Node36&#45;&gt;Node3</title>
<path fill="none" stroke="midnightblue" d="M4284.42,-112.44C4261.17,-103.48 4224.45,-89.31 4198.19,-79.18"/>
<polygon fill="midnightblue" stroke="midnightblue" points="4199.27,-75.85 4188.68,-75.52 4196.75,-82.38 4199.27,-75.85"/>
</g>
<!-- Node36&#45;&gt;Node9 -->
<g id="edge37" class="edge">
<title>Node36&#45;&gt;Node9</title>
<path fill="none" stroke="midnightblue" d="M4306.6,-112.37C4306.6,-94.62 4306.6,-53.67 4306.6,-29.6"/>
<polygon fill="midnightblue" stroke="midnightblue" points="4310.1,-29.59 4306.6,-19.59 4303.1,-29.59 4310.1,-29.59"/>
</g>
<!-- Node38&#45;&gt;Node33 -->
<g id="edge39" class="edge">
<title>Node38&#45;&gt;Node33</title>
<path fill="none" stroke="midnightblue" d="M3982.91,-113.9C3978.11,-113.16 3973.25,-112.5 3968.6,-112 3601.49,-72.18 3155.35,-67.44 3010.49,-66.99"/>
<polygon fill="midnightblue" stroke="midnightblue" points="3010.19,-63.49 3000.19,-66.97 3010.18,-70.49 3010.19,-63.49"/>
</g>
<!-- Node39&#45;&gt;Node2 -->
<g id="edge41" class="edge">
<title>Node39&#45;&gt;Node2</title>
<path fill="none" stroke="midnightblue" d="M4115.24,-131.53C4113.34,-131.7 4111.46,-131.86 4109.6,-132 3462.84,-181.64 2670.68,-178.78 2482.18,-177.36"/>
<polygon fill="midnightblue" stroke="midnightblue" points="2482.17,-173.86 2472.14,-177.29 2482.11,-180.86 2482.17,-173.86"/>
</g>
<!-- Node40&#45;&gt;Node33 -->
<g id="edge43" class="edge">
<title>Node40&#45;&gt;Node33</title>
<path fill="none" stroke="midnightblue" d="M81.3,-113.31C84.44,-112.79 87.57,-112.34 90.6,-112 382.07,-79.51 2563.08,-68.73 2914.78,-67.2"/>
<polygon fill="midnightblue" stroke="midnightblue" points="2914.9,-70.7 2924.89,-67.16 2914.87,-63.7 2914.9,-70.7"/>
</g>
<!-- Node41&#45;&gt;Node2 -->
<g id="edge45" class="edge">
<title>Node41&#45;&gt;Node2</title>
<path fill="none" stroke="midnightblue" d="M4389.03,-131.52C4387.54,-131.7 4386.06,-131.86 4384.6,-132 3997.8,-169.76 2730.22,-176.02 2482.69,-176.88"/>
<polygon fill="midnightblue" stroke="midnightblue" points="2482.32,-173.38 2472.33,-176.91 2482.34,-180.38 2482.32,-173.38"/>
</g>
<!-- Node42&#45;&gt;Node33 -->
<g id="edge47" class="edge">
<title>Node42&#45;&gt;Node33</title>
<path fill="none" stroke="midnightblue" d="M725.44,-113.17C728.19,-112.71 730.93,-112.31 733.6,-112 956.95,-86.06 2611.33,-70.13 2914.84,-67.42"/>
<polygon fill="midnightblue" stroke="midnightblue" points="2915.09,-70.91 2925.06,-67.33 2915.03,-63.91 2915.09,-70.91"/>
</g>
<!-- Node75&#45;&gt;Node2 -->
<g id="edge49" class="edge">
<title>Node75&#45;&gt;Node2</title>
<path fill="none" stroke="midnightblue" d="M2317.74,-224.44C2342.08,-215.44 2380.61,-201.19 2408.02,-191.05"/>
<polygon fill="midnightblue" stroke="midnightblue" points="2409.41,-194.27 2417.58,-187.52 2406.98,-187.7 2409.41,-194.27"/>
</g>
<!-- Node91&#45;&gt;Node2 -->
<g id="edge52" class="edge">
<title>Node91&#45;&gt;Node2</title>
<path fill="none" stroke="midnightblue" d="M2033.58,-280.43C2009.84,-268.04 1973.16,-244.38 1991.6,-224 2018.66,-194.1 2292.63,-183.19 2398.84,-180.06"/>
<polygon fill="midnightblue" stroke="midnightblue" points="2398.98,-183.56 2408.88,-179.77 2398.78,-176.56 2398.98,-183.56"/>
</g>
<!-- Node91&#45;&gt;Node82 -->
<g id="edge53" class="edge">
<title>Node91&#45;&gt;Node82</title>
<path fill="none" stroke="midnightblue" d="M2053.75,-280.08C2055.47,-272.93 2057.95,-262.64 2060.1,-253.69"/>
<polygon fill="midnightblue" stroke="midnightblue" points="2063.56,-254.29 2062.49,-243.75 2056.75,-252.65 2063.56,-254.29"/>
</g>
<!-- Node95&#45;&gt;Node2 -->
<g id="edge56" class="edge">
<title>Node95&#45;&gt;Node2</title>
<path fill="none" stroke="midnightblue" d="M2228.53,-224.44C2275.08,-214.47 2351.64,-198.06 2398.93,-187.93"/>
<polygon fill="midnightblue" stroke="midnightblue" points="2399.79,-191.32 2408.84,-185.81 2398.33,-184.48 2399.79,-191.32"/>
</g>
<!-- Node96&#45;&gt;Node2 -->
<g id="edge58" class="edge">
<title>Node96&#45;&gt;Node2</title>
<path fill="none" stroke="midnightblue" d="M2440.6,-224.08C2440.6,-217.01 2440.6,-206.86 2440.6,-197.99"/>
<polygon fill="midnightblue" stroke="midnightblue" points="2444.1,-197.75 2440.6,-187.75 2437.1,-197.75 2444.1,-197.75"/>
</g>
<!-- Node97&#45;&gt;Node2 -->
<g id="edge60" class="edge">
<title>Node97&#45;&gt;Node2</title>
<path fill="none" stroke="midnightblue" d="M2525.37,-224.32C2509.25,-215.7 2484.3,-202.36 2465.64,-192.39"/>
<polygon fill="midnightblue" stroke="midnightblue" points="2467.26,-189.28 2456.79,-187.65 2463.96,-195.46 2467.26,-189.28"/>
</g>
<!-- Node99&#45;&gt;Node2 -->
<g id="edge63" class="edge">
<title>Node99&#45;&gt;Node2</title>
<path fill="none" stroke="midnightblue" d="M2617.33,-224.44C2580.73,-215.03 2521.86,-199.89 2482.23,-189.7"/>
<polygon fill="midnightblue" stroke="midnightblue" points="2482.9,-186.26 2472.35,-187.16 2481.16,-193.04 2482.9,-186.26"/>
</g>
<!-- Node100&#45;&gt;Node2 -->
<g id="edge65" class="edge">
<title>Node100&#45;&gt;Node2</title>
<path fill="none" stroke="midnightblue" d="M2709.76,-280.24C2715.59,-266.52 2724.06,-239.89 2710.6,-224 2681.82,-190.03 2550.52,-181.68 2482.2,-179.64"/>
<polygon fill="midnightblue" stroke="midnightblue" points="2482.28,-176.14 2472.19,-179.38 2482.1,-183.14 2482.28,-176.14"/>
</g>
<!-- Node101&#45;&gt;Node2 -->
<g id="edge67" class="edge">
<title>Node101&#45;&gt;Node2</title>
<path fill="none" stroke="midnightblue" d="M2375.59,-280.38C2375.94,-267.32 2378.06,-242.1 2388.6,-224 2395.64,-211.91 2407.13,-201.46 2417.53,-193.68"/>
<polygon fill="midnightblue" stroke="midnightblue" points="2419.72,-196.42 2425.87,-187.8 2415.68,-190.7 2419.72,-196.42"/>
</g>
<!-- Node101&#45;&gt;Node75 -->
<g id="edge68" class="edge">
<title>Node101&#45;&gt;Node75</title>
<path fill="none" stroke="midnightblue" d="M2362.59,-280.32C2350.07,-271.98 2330.92,-259.21 2316.13,-249.35"/>
<polygon fill="midnightblue" stroke="midnightblue" points="2317.85,-246.29 2307.58,-243.65 2313.96,-252.11 2317.85,-246.29"/>
</g>
</g>
</svg>
