<?xml version="1.0" encoding="UTF-8" standalone="no"?>
<!DOCTYPE svg PUBLIC "-//W3C//DTD SVG 1.1//EN"
 "http://www.w3.org/Graphics/SVG/1.1/DTD/svg11.dtd">
<!-- Generated by graphviz version 2.43.0 (0)
 -->
<!-- Title: wifiGen_rad_status Pages: 1 -->
<svg width="490pt" height="279pt"
 viewBox="0.00 0.00 490.00 279.00" xmlns="http://www.w3.org/2000/svg" xmlns:xlink="http://www.w3.org/1999/xlink">
<g id="graph0" class="graph" transform="scale(1 1) rotate(0) translate(4 275)">
<title>wifiGen_rad_status</title>
<polygon fill="white" stroke="transparent" points="-4,4 -4,-275 486,-275 486,4 -4,4"/>
<!-- Node1 -->
<g id="node1" class="node">
<title>Node1</title>
<g id="a_node1"><a xlink:title=" ">
<polygon fill="#bfbfbf" stroke="black" points="0,-114.5 0,-133.5 110,-133.5 110,-114.5 0,-114.5"/>
<text text-anchor="middle" x="55" y="-121.5" font-family="Helvetica,sans-Serif" font-size="10.00">wifiGen_rad_status</text>
</a>
</g>
</g>
<!-- Node2 -->
<g id="node2" class="node">
<title>Node2</title>
<g id="a_node2"><a xlink:href="wld__bgdfs_8c.html#a609c9c511280d7b756931f0f71451de5" target="_top" xlink:title=" ">
<polygon fill="white" stroke="black" points="156.5,-251.5 156.5,-270.5 275.5,-270.5 275.5,-251.5 156.5,-251.5"/>
<text text-anchor="middle" x="216" y="-258.5" font-family="Helvetica,sans-Serif" font-size="10.00">wld_bgdfs_isRunning</text>
</a>
</g>
</g>
<!-- Node1&#45;&gt;Node2 -->
<g id="edge1" class="edge">
<title>Node1&#45;&gt;Node2</title>
<path fill="none" stroke="midnightblue" d="M60.57,-133.65C71.77,-156.24 102.87,-212.87 146,-242 149.06,-244.07 152.35,-245.91 155.76,-247.56"/>
<polygon fill="midnightblue" stroke="midnightblue" points="154.44,-250.8 165.02,-251.46 157.16,-244.35 154.44,-250.8"/>
</g>
<!-- Node3 -->
<g id="node3" class="node">
<title>Node3</title>
<g id="a_node3"><a xlink:href="wld__channel_8c.html#a0b7f74cfed1d43b00cae0e44c230519e" target="_top" xlink:title=" ">
<polygon fill="white" stroke="black" points="156,-202 156,-232 276,-232 276,-202 156,-202"/>
<text text-anchor="start" x="164" y="-220" font-family="Helvetica,sans-Serif" font-size="10.00">wld_channel_is_band</text>
<text text-anchor="middle" x="216" y="-209" font-family="Helvetica,sans-Serif" font-size="10.00">_usable</text>
</a>
</g>
</g>
<!-- Node1&#45;&gt;Node3 -->
<g id="edge2" class="edge">
<title>Node1&#45;&gt;Node3</title>
<path fill="none" stroke="midnightblue" d="M66.31,-133.7C82.28,-148.3 114.46,-176 146,-193 149.26,-194.76 152.68,-196.43 156.17,-198.01"/>
<polygon fill="midnightblue" stroke="midnightblue" points="154.97,-201.3 165.54,-201.97 157.69,-194.85 154.97,-201.3"/>
</g>
<!-- Node4 -->
<g id="node4" class="node">
<title>Node4</title>
<g id="a_node4"><a xlink:href="wld__linuxIfUtils_8c.html#a3bb1f18a5ddc724ff6453d335c0fe2d4" target="_top" xlink:title=" ">
<polygon fill="white" stroke="black" points="149,-153 149,-183 283,-183 283,-153 149,-153"/>
<text text-anchor="start" x="157" y="-171" font-family="Helvetica,sans-Serif" font-size="10.00">wld_linuxIfUtils_getLink</text>
<text text-anchor="middle" x="216" y="-160" font-family="Helvetica,sans-Serif" font-size="10.00">StateExt</text>
</a>
</g>
</g>
<!-- Node1&#45;&gt;Node4 -->
<g id="edge3" class="edge">
<title>Node1&#45;&gt;Node4</title>
<path fill="none" stroke="midnightblue" d="M90.5,-133.55C108.16,-138.43 130.24,-144.55 150.88,-150.26"/>
<polygon fill="midnightblue" stroke="midnightblue" points="149.99,-153.64 160.56,-152.93 151.85,-146.89 149.99,-153.64"/>
</g>
<!-- Node7 -->
<g id="node7" class="node">
<title>Node7</title>
<g id="a_node7"><a xlink:href="wld__radio_8c.html#a38559de25945587fe7c3b6a342a06a9a" target="_top" xlink:title=" ">
<polygon fill="white" stroke="black" points="146,-114.5 146,-133.5 286,-133.5 286,-114.5 146,-114.5"/>
<text text-anchor="middle" x="216" y="-121.5" font-family="Helvetica,sans-Serif" font-size="10.00">wld_rad_getFirstActiveEp</text>
</a>
</g>
</g>
<!-- Node1&#45;&gt;Node7 -->
<g id="edge6" class="edge">
<title>Node1&#45;&gt;Node7</title>
<path fill="none" stroke="midnightblue" d="M110.27,-124C118.49,-124 127.1,-124 135.71,-124"/>
<polygon fill="midnightblue" stroke="midnightblue" points="135.79,-127.5 145.79,-124 135.79,-120.5 135.79,-127.5"/>
</g>
<!-- Node8 -->
<g id="node8" class="node">
<title>Node8</title>
<g id="a_node8"><a xlink:href="wld__radio_8c.html#a80a1e3e21164a9c72e84d8870c5715e0" target="_top" xlink:title=" ">
<polygon fill="white" stroke="black" points="150,-76.5 150,-95.5 282,-95.5 282,-76.5 150,-76.5"/>
<text text-anchor="middle" x="216" y="-83.5" font-family="Helvetica,sans-Serif" font-size="10.00">wld_rad_hasActiveIface</text>
</a>
</g>
</g>
<!-- Node1&#45;&gt;Node8 -->
<g id="edge7" class="edge">
<title>Node1&#45;&gt;Node8</title>
<path fill="none" stroke="midnightblue" d="M96.12,-114.41C117.1,-109.4 142.98,-103.21 165.23,-97.89"/>
<polygon fill="midnightblue" stroke="midnightblue" points="166.25,-101.25 175.17,-95.52 164.63,-94.44 166.25,-101.25"/>
</g>
<!-- Node10 -->
<g id="node10" class="node">
<title>Node10</title>
<g id="a_node10"><a xlink:href="wld__radio_8c.html#ab7a948145edfcf5b588a54039d900ede" target="_top" xlink:title=" ">
<polygon fill="white" stroke="black" points="146,-38.5 146,-57.5 286,-57.5 286,-38.5 146,-38.5"/>
<text text-anchor="middle" x="216" y="-45.5" font-family="Helvetica,sans-Serif" font-size="10.00">wld_rad_hasEnabledIface</text>
</a>
</g>
</g>
<!-- Node1&#45;&gt;Node10 -->
<g id="edge9" class="edge">
<title>Node1&#45;&gt;Node10</title>
<path fill="none" stroke="midnightblue" d="M68.44,-114.43C85.21,-101.92 116.4,-80.1 146,-67 151.39,-64.62 157.14,-62.46 162.95,-60.54"/>
<polygon fill="midnightblue" stroke="midnightblue" points="164.2,-63.82 172.71,-57.51 162.12,-57.13 164.2,-63.82"/>
</g>
<!-- Node12 -->
<g id="node12" class="node">
<title>Node12</title>
<g id="a_node12"><a xlink:href="wld__radio_8c.html#a586b502bdfaca2b3d45feeae0426fb14" target="_top" xlink:title=" ">
<polygon fill="white" stroke="black" points="149,-0.5 149,-19.5 283,-19.5 283,-0.5 149,-0.5"/>
<text text-anchor="middle" x="216" y="-7.5" font-family="Helvetica,sans-Serif" font-size="10.00">wld_rad_hasEnabledVap</text>
</a>
</g>
</g>
<!-- Node1&#45;&gt;Node12 -->
<g id="edge11" class="edge">
<title>Node1&#45;&gt;Node12</title>
<path fill="none" stroke="midnightblue" d="M62.42,-114.27C75.68,-94.99 108.01,-51.8 146,-29 149.6,-26.84 153.44,-24.92 157.41,-23.22"/>
<polygon fill="midnightblue" stroke="midnightblue" points="158.75,-26.45 166.83,-19.61 156.24,-19.92 158.75,-26.45"/>
</g>
<!-- Node5 -->
<g id="node5" class="node">
<title>Node5</title>
<g id="a_node5"><a xlink:href="wld__linuxIfUtils_8c.html#a80a4f2a9c916d1b8631a41017ca85a13" target="_top" xlink:title=" ">
<polygon fill="white" stroke="black" points="335,-178 335,-208 469,-208 469,-178 335,-178"/>
<text text-anchor="start" x="343" y="-196" font-family="Helvetica,sans-Serif" font-size="10.00">wld_linuxIfUtils_getLink</text>
<text text-anchor="middle" x="402" y="-185" font-family="Helvetica,sans-Serif" font-size="10.00">State</text>
</a>
</g>
</g>
<!-- Node4&#45;&gt;Node5 -->
<g id="edge4" class="edge">
<title>Node4&#45;&gt;Node5</title>
<path fill="none" stroke="midnightblue" d="M283.17,-176.99C296.68,-178.83 311,-180.77 324.84,-182.65"/>
<polygon fill="midnightblue" stroke="midnightblue" points="324.42,-186.13 334.8,-184.01 325.36,-179.19 324.42,-186.13"/>
</g>
<!-- Node6 -->
<g id="node6" class="node">
<title>Node6</title>
<g id="a_node6"><a xlink:href="wld__linuxIfUtils_8c.html#a02092ba8d6dda33a584c37818c4af732" target="_top" xlink:title=" ">
<polygon fill="white" stroke="black" points="325,-139.5 325,-158.5 479,-158.5 479,-139.5 325,-139.5"/>
<text text-anchor="middle" x="402" y="-146.5" font-family="Helvetica,sans-Serif" font-size="10.00">wld_linuxIfUtils_getNetSock</text>
</a>
</g>
</g>
<!-- Node4&#45;&gt;Node6 -->
<g id="edge5" class="edge">
<title>Node4&#45;&gt;Node6</title>
<path fill="none" stroke="midnightblue" d="M283.17,-161.17C293.4,-160.11 304.09,-159.01 314.68,-157.91"/>
<polygon fill="midnightblue" stroke="midnightblue" points="315.2,-161.38 324.78,-156.87 314.48,-154.42 315.2,-161.38"/>
</g>
<!-- Node9 -->
<g id="node9" class="node">
<title>Node9</title>
<g id="a_node9"><a xlink:href="wld__radio_8c.html#af32e11ee7bb69e7f0d5db319e5aa1834" target="_top" xlink:title=" ">
<polygon fill="white" stroke="black" points="326,-77 326,-107 478,-107 478,-77 326,-77"/>
<text text-anchor="start" x="334" y="-95" font-family="Helvetica,sans-Serif" font-size="10.00">wld_rad_getFirstActiveIface</text>
<text text-anchor="middle" x="402" y="-84" font-family="Helvetica,sans-Serif" font-size="10.00">Index</text>
</a>
</g>
</g>
<!-- Node8&#45;&gt;Node9 -->
<g id="edge8" class="edge">
<title>Node8&#45;&gt;Node9</title>
<path fill="none" stroke="midnightblue" d="M282.13,-88.12C292.97,-88.48 304.36,-88.85 315.62,-89.22"/>
<polygon fill="midnightblue" stroke="midnightblue" points="315.79,-92.72 325.9,-89.55 316.02,-85.73 315.79,-92.72"/>
</g>
<!-- Node11 -->
<g id="node11" class="node">
<title>Node11</title>
<g id="a_node11"><a xlink:href="wld__radio_8c.html#ae211359fd0e7548777cf5bd312ffb8c3" target="_top" xlink:title=" ">
<polygon fill="white" stroke="black" points="322,-28 322,-58 482,-58 482,-28 322,-28"/>
<text text-anchor="start" x="330" y="-46" font-family="Helvetica,sans-Serif" font-size="10.00">wld_rad_getFirstEnabledIface</text>
<text text-anchor="middle" x="402" y="-35" font-family="Helvetica,sans-Serif" font-size="10.00">Index</text>
</a>
</g>
</g>
<!-- Node10&#45;&gt;Node11 -->
<g id="edge10" class="edge">
<title>Node10&#45;&gt;Node11</title>
<path fill="none" stroke="midnightblue" d="M286.04,-46.12C294.47,-45.89 303.17,-45.66 311.84,-45.42"/>
<polygon fill="midnightblue" stroke="midnightblue" points="312.08,-48.92 321.98,-45.15 311.89,-41.92 312.08,-48.92"/>
</g>
</g>
</svg>
