<?xml version="1.0" encoding="UTF-8" standalone="no"?>
<!DOCTYPE svg PUBLIC "-//W3C//DTD SVG 1.1//EN"
 "http://www.w3.org/Graphics/SVG/1.1/DTD/svg11.dtd">
<!-- Generated by graphviz version 2.43.0 (0)
 -->
<!-- Title: wifiGen_hapd_fetchSockApLink Pages: 1 -->
<svg width="920pt" height="374pt"
 viewBox="0.00 0.00 920.00 373.50" xmlns="http://www.w3.org/2000/svg" xmlns:xlink="http://www.w3.org/1999/xlink">
<g id="graph0" class="graph" transform="scale(1 1) rotate(0) translate(4 369.5)">
<title>wifiGen_hapd_fetchSockApLink</title>
<polygon fill="white" stroke="transparent" points="-4,4 -4,-369.5 916,-369.5 916,4 -4,4"/>
<!-- Node1 -->
<g id="node1" class="node">
<title>Node1</title>
<g id="a_node1"><a xlink:title=" ">
<polygon fill="#bfbfbf" stroke="black" points="0,-213 0,-232 169,-232 169,-213 0,-213"/>
<text text-anchor="middle" x="84.5" y="-220" font-family="Helvetica,sans-Serif" font-size="10.00">wifiGen_hapd_fetchSockApLink</text>
</a>
</g>
</g>
<!-- Node2 -->
<g id="node2" class="node">
<title>Node2</title>
<g id="a_node2"><a xlink:href="wld__secDmn_8c.html#ad5c0cb907dd8b7b4d2789d7177eb0cd6" target="_top" xlink:title=" ">
<polygon fill="white" stroke="black" points="205,-346 205,-365 381,-365 381,-346 205,-346"/>
<text text-anchor="middle" x="293" y="-353" font-family="Helvetica,sans-Serif" font-size="10.00">wld_secDmn_getCtrlIfaceDirPath</text>
</a>
</g>
</g>
<!-- Node1&#45;&gt;Node2 -->
<g id="edge1" class="edge">
<title>Node1&#45;&gt;Node2</title>
<path fill="none" stroke="midnightblue" d="M92.63,-232.28C109.46,-254.6 154.11,-309.46 205,-336.5 209.49,-338.89 214.27,-340.97 219.18,-342.8"/>
<polygon fill="midnightblue" stroke="midnightblue" points="218.16,-346.15 228.75,-346 220.37,-339.51 218.16,-346.15"/>
</g>
<!-- Node3 -->
<g id="node3" class="node">
<title>Node3</title>
<g id="a_node3"><a xlink:href="wld__ssid_8c.html#a82479ab935cc20abf86057e2437c5cf9" target="_top" xlink:title=" ">
<polygon fill="white" stroke="black" points="207,-308 207,-327 379,-327 379,-308 207,-308"/>
<text text-anchor="middle" x="293" y="-315" font-family="Helvetica,sans-Serif" font-size="10.00">wld_ssid_getSsidByMacAddress</text>
</a>
</g>
</g>
<!-- Node1&#45;&gt;Node3 -->
<g id="edge2" class="edge">
<title>Node1&#45;&gt;Node3</title>
<path fill="none" stroke="midnightblue" d="M97.27,-232.01C117.85,-248.16 162.26,-280.89 205,-298.5 211.24,-301.07 217.89,-303.32 224.62,-305.28"/>
<polygon fill="midnightblue" stroke="midnightblue" points="223.93,-308.72 234.49,-307.94 225.75,-301.96 223.93,-308.72"/>
</g>
<!-- Node4 -->
<g id="node4" class="node">
<title>Node4</title>
<g id="a_node4"><a xlink:href="wld__wpaCtrlConnection_8c.html#ab5b29b7ce5f29ef5dfbe951e5b700428" target="_top" xlink:title=" ">
<polygon fill="white" stroke="black" points="215,-270 215,-289 371,-289 371,-270 215,-270"/>
<text text-anchor="middle" x="293" y="-277" font-family="Helvetica,sans-Serif" font-size="10.00">wld_wpaCtrl_getMaxMsgLen</text>
</a>
</g>
</g>
<!-- Node1&#45;&gt;Node4 -->
<g id="edge3" class="edge">
<title>Node1&#45;&gt;Node4</title>
<path fill="none" stroke="midnightblue" d="M113.29,-232.15C137.37,-240.31 173.24,-252 205,-260.5 214.52,-263.05 224.7,-265.5 234.61,-267.76"/>
<polygon fill="midnightblue" stroke="midnightblue" points="233.88,-271.18 244.4,-269.94 235.4,-264.35 233.88,-271.18"/>
</g>
<!-- Node5 -->
<g id="node5" class="node">
<title>Node5</title>
<g id="a_node5"><a xlink:href="wld__wpaCtrl__events_8c.html#a60187519f83cbbd590bd7b2edb52b109" target="_top" xlink:title=" ">
<polygon fill="white" stroke="black" points="216.5,-232 216.5,-251 369.5,-251 369.5,-232 216.5,-232"/>
<text text-anchor="middle" x="293" y="-239" font-family="Helvetica,sans-Serif" font-size="10.00">wld_wpaCtrl_getValueIntExt</text>
</a>
</g>
</g>
<!-- Node1&#45;&gt;Node5 -->
<g id="edge4" class="edge">
<title>Node1&#45;&gt;Node5</title>
<path fill="none" stroke="midnightblue" d="M169.19,-230.2C181.33,-231.32 193.85,-232.47 206.03,-233.59"/>
<polygon fill="midnightblue" stroke="midnightblue" points="205.9,-237.09 216.18,-234.52 206.54,-230.12 205.9,-237.09"/>
</g>
<!-- Node6 -->
<g id="node6" class="node">
<title>Node6</title>
<g id="a_node6"><a xlink:href="wld__wpaCtrl__events_8c.html#a67b83e09a159510b15c2677af1127b60" target="_top" xlink:title=" ">
<polygon fill="white" stroke="black" points="428.5,-238 428.5,-257 566.5,-257 566.5,-238 428.5,-238"/>
<text text-anchor="middle" x="497.5" y="-245" font-family="Helvetica,sans-Serif" font-size="10.00">wld_wpaCtrl_getValueStr</text>
</a>
</g>
</g>
<!-- Node1&#45;&gt;Node6 -->
<g id="edge6" class="edge">
<title>Node1&#45;&gt;Node6</title>
<path fill="none" stroke="midnightblue" d="M169.18,-217.77C228.49,-215.57 309.84,-214.89 381,-222.5 393.79,-223.87 421.75,-229.89 446.95,-235.68"/>
<polygon fill="midnightblue" stroke="midnightblue" points="446.27,-239.12 456.8,-237.96 447.85,-232.3 446.27,-239.12"/>
</g>
<!-- Node7 -->
<g id="node7" class="node">
<title>Node7</title>
<g id="a_node7"><a xlink:href="wld__wpaCtrlConnection_8c.html#a71bdfd4428fb221814547fbeb4ba9152" target="_top" xlink:title=" ">
<polygon fill="white" stroke="black" points="221.5,-156 221.5,-175 364.5,-175 364.5,-156 221.5,-156"/>
<text text-anchor="middle" x="293" y="-163" font-family="Helvetica,sans-Serif" font-size="10.00">wld_wpaCtrl_queryToSock</text>
</a>
</g>
</g>
<!-- Node1&#45;&gt;Node7 -->
<g id="edge7" class="edge">
<title>Node1&#45;&gt;Node7</title>
<path fill="none" stroke="midnightblue" d="M120.01,-212.97C143.88,-206.37 176.37,-197.4 205,-189.5 218.86,-185.68 233.95,-181.51 247.62,-177.74"/>
<polygon fill="midnightblue" stroke="midnightblue" points="248.58,-181.11 257.28,-175.07 246.71,-174.36 248.58,-181.11"/>
</g>
<!-- Node18 -->
<g id="node18" class="node">
<title>Node18</title>
<g id="a_node18"><a xlink:href="wld__wpaCtrlInterface_8c.html#a98993fd06b6a3f3e55a9d1878cb0ad99" target="_top" xlink:title=" ">
<polygon fill="white" stroke="black" points="233,-106.5 233,-136.5 353,-136.5 353,-106.5 233,-106.5"/>
<text text-anchor="start" x="241" y="-124.5" font-family="Helvetica,sans-Serif" font-size="10.00">wld_wpaCtrlInterface</text>
<text text-anchor="middle" x="293" y="-113.5" font-family="Helvetica,sans-Serif" font-size="10.00">_getMgr</text>
</a>
</g>
</g>
<!-- Node1&#45;&gt;Node18 -->
<g id="edge19" class="edge">
<title>Node1&#45;&gt;Node18</title>
<path fill="none" stroke="midnightblue" d="M98.07,-212.77C119.11,-196.89 163.3,-165.28 205,-146.5 210.74,-143.92 216.81,-141.53 222.96,-139.34"/>
<polygon fill="midnightblue" stroke="midnightblue" points="224.32,-142.58 232.68,-136.07 222.09,-135.94 224.32,-142.58"/>
</g>
<!-- Node19 -->
<g id="node19" class="node">
<title>Node19</title>
<g id="a_node19"><a xlink:href="wld__wpaCtrlMngr_8c.html#ad952e3c4155a1027ac119d37be00ad6c" target="_top" xlink:title=" ">
<polygon fill="white" stroke="black" points="211.5,-68 211.5,-87 374.5,-87 374.5,-68 211.5,-68"/>
<text text-anchor="middle" x="293" y="-75" font-family="Helvetica,sans-Serif" font-size="10.00">wld_wpaCtrlMngr_getSecDmn</text>
</a>
</g>
</g>
<!-- Node1&#45;&gt;Node19 -->
<g id="edge20" class="edge">
<title>Node1&#45;&gt;Node19</title>
<path fill="none" stroke="midnightblue" d="M91.7,-212.87C107.49,-189.17 151.76,-127.77 205,-97.5 209.8,-94.77 214.95,-92.41 220.26,-90.38"/>
<polygon fill="midnightblue" stroke="midnightblue" points="221.62,-93.61 229.94,-87.05 219.35,-86.99 221.62,-93.61"/>
</g>
<!-- Node5&#45;&gt;Node6 -->
<g id="edge5" class="edge">
<title>Node5&#45;&gt;Node6</title>
<path fill="none" stroke="midnightblue" d="M369.69,-243.74C385.45,-244.21 402.09,-244.7 417.95,-245.17"/>
<polygon fill="midnightblue" stroke="midnightblue" points="418.14,-248.68 428.24,-245.48 418.35,-241.68 418.14,-248.68"/>
</g>
<!-- Node8 -->
<g id="node8" class="node">
<title>Node8</title>
<g id="a_node8"><a xlink:href="wld__wpaCtrlConnection_8c.html#a379089510626b43f9386a6db71f4a3ef" target="_top" xlink:title=" ">
<polygon fill="white" stroke="black" points="420,-200 420,-219 575,-219 575,-200 420,-200"/>
<text text-anchor="middle" x="497.5" y="-207" font-family="Helvetica,sans-Serif" font-size="10.00">wld_wpaCtrl_checkSockPath</text>
</a>
</g>
</g>
<!-- Node7&#45;&gt;Node8 -->
<g id="edge8" class="edge">
<title>Node7&#45;&gt;Node8</title>
<path fill="none" stroke="midnightblue" d="M337.94,-175.05C368.72,-181.74 410.04,-190.71 442.78,-197.83"/>
<polygon fill="midnightblue" stroke="midnightblue" points="442.13,-201.27 452.65,-199.97 443.62,-194.43 442.13,-201.27"/>
</g>
<!-- Node9 -->
<g id="node9" class="node">
<title>Node9</title>
<g id="a_node9"><a xlink:href="wld__wpaCtrlConnection_8c.html#a4f4cfde4f1cd7c2913047631191bb625" target="_top" xlink:title=" ">
<polygon fill="white" stroke="black" points="432,-150.5 432,-180.5 563,-180.5 563,-150.5 432,-150.5"/>
<text text-anchor="start" x="440" y="-168.5" font-family="Helvetica,sans-Serif" font-size="10.00">wld_wpaCtrlConnection</text>
<text text-anchor="middle" x="497.5" y="-157.5" font-family="Helvetica,sans-Serif" font-size="10.00">_cleanup</text>
</a>
</g>
</g>
<!-- Node7&#45;&gt;Node9 -->
<g id="edge9" class="edge">
<title>Node7&#45;&gt;Node9</title>
<path fill="none" stroke="midnightblue" d="M364.54,-165.5C383.03,-165.5 403.03,-165.5 421.74,-165.5"/>
<polygon fill="midnightblue" stroke="midnightblue" points="421.98,-169 431.98,-165.5 421.98,-162 421.98,-169"/>
</g>
<!-- Node11 -->
<g id="node11" class="node">
<title>Node11</title>
<g id="a_node11"><a xlink:href="wld__wpaCtrlConnection_8c.html#a6b8f3eb022f9117e30b5ae1ce5cd3310" target="_top" xlink:title=" ">
<polygon fill="white" stroke="black" points="421.5,-112 421.5,-131 573.5,-131 573.5,-112 421.5,-112"/>
<text text-anchor="middle" x="497.5" y="-119" font-family="Helvetica,sans-Serif" font-size="10.00">wld_wpaCtrlConnection_init</text>
</a>
</g>
</g>
<!-- Node7&#45;&gt;Node11 -->
<g id="edge11" class="edge">
<title>Node7&#45;&gt;Node11</title>
<path fill="none" stroke="midnightblue" d="M337.94,-155.95C368.72,-149.26 410.04,-140.29 442.78,-133.17"/>
<polygon fill="midnightblue" stroke="midnightblue" points="443.62,-136.57 452.65,-131.03 442.13,-129.73 443.62,-136.57"/>
</g>
<!-- Node12 -->
<g id="node12" class="node">
<title>Node12</title>
<g id="a_node12"><a xlink:href="wld__wpaCtrlConnection_8c.html#a3821c825cc2a8803e75e6e0776b8ee96" target="_top" xlink:title=" ">
<polygon fill="white" stroke="black" points="417,-74 417,-93 578,-93 578,-74 417,-74"/>
<text text-anchor="middle" x="497.5" y="-81" font-family="Helvetica,sans-Serif" font-size="10.00">wld_wpaCtrlConnection_open</text>
</a>
</g>
</g>
<!-- Node7&#45;&gt;Node12 -->
<g id="edge13" class="edge">
<title>Node7&#45;&gt;Node12</title>
<path fill="none" stroke="midnightblue" d="M360.44,-155.94C367.66,-153.47 374.67,-150.38 381,-146.5 402.54,-133.29 395.59,-115.92 417,-102.5 420.42,-100.36 424.06,-98.46 427.83,-96.77"/>
<polygon fill="midnightblue" stroke="midnightblue" points="429.39,-99.92 437.42,-93 426.83,-93.4 429.39,-99.92"/>
</g>
<!-- Node14 -->
<g id="node14" class="node">
<title>Node14</title>
<g id="a_node14"><a xlink:href="wld__wpaCtrlConnection_8c.html#a4ffecc829a17c67728b8ced8b0cccc92" target="_top" xlink:title=" ">
<polygon fill="white" stroke="black" points="432,-24.5 432,-54.5 563,-54.5 563,-24.5 432,-24.5"/>
<text text-anchor="start" x="440" y="-42.5" font-family="Helvetica,sans-Serif" font-size="10.00">wld_wpaCtrlConnection</text>
<text text-anchor="middle" x="497.5" y="-31.5" font-family="Helvetica,sans-Serif" font-size="10.00">_sendCmdSynced</text>
</a>
</g>
</g>
<!-- Node7&#45;&gt;Node14 -->
<g id="edge15" class="edge">
<title>Node7&#45;&gt;Node14</title>
<path fill="none" stroke="midnightblue" d="M364.64,-156.3C370.53,-153.73 376.1,-150.52 381,-146.5 411.8,-121.29 387.36,-91.07 417,-64.5 418.93,-62.77 420.98,-61.16 423.13,-59.65"/>
<polygon fill="midnightblue" stroke="midnightblue" points="425.07,-62.57 431.81,-54.4 421.44,-56.58 425.07,-62.57"/>
</g>
<!-- Node10 -->
<g id="node10" class="node">
<title>Node10</title>
<g id="a_node10"><a xlink:href="wld__wpaCtrlConnection_8c.html#ac77a8013582067279ce3a0ccda177ed8" target="_top" xlink:title=" ">
<polygon fill="white" stroke="black" points="614,-131.5 614,-161.5 745,-161.5 745,-131.5 614,-131.5"/>
<text text-anchor="start" x="622" y="-149.5" font-family="Helvetica,sans-Serif" font-size="10.00">wld_wpaCtrlConnection</text>
<text text-anchor="middle" x="679.5" y="-138.5" font-family="Helvetica,sans-Serif" font-size="10.00">_close</text>
</a>
</g>
</g>
<!-- Node9&#45;&gt;Node10 -->
<g id="edge10" class="edge">
<title>Node9&#45;&gt;Node10</title>
<path fill="none" stroke="midnightblue" d="M563.23,-158.67C576.32,-157.29 590.19,-155.82 603.6,-154.41"/>
<polygon fill="midnightblue" stroke="midnightblue" points="604.16,-157.87 613.74,-153.34 603.43,-150.9 604.16,-157.87"/>
</g>
<!-- Node11&#45;&gt;Node10 -->
<g id="edge12" class="edge">
<title>Node11&#45;&gt;Node10</title>
<path fill="none" stroke="midnightblue" d="M567.06,-131.02C579.09,-132.69 591.67,-134.44 603.85,-136.13"/>
<polygon fill="midnightblue" stroke="midnightblue" points="603.59,-139.63 613.98,-137.54 604.56,-132.7 603.59,-139.63"/>
</g>
<!-- Node13 -->
<g id="node13" class="node">
<title>Node13</title>
<g id="a_node13"><a xlink:href="wld_8c.html#a41e1e95e9813260c184aad989f33bb05" target="_top" xlink:title=" ">
<polygon fill="white" stroke="black" points="616.5,-74 616.5,-93 742.5,-93 742.5,-74 616.5,-74"/>
<text text-anchor="middle" x="679.5" y="-81" font-family="Helvetica,sans-Serif" font-size="10.00">get_wld_plugin_parser</text>
</a>
</g>
</g>
<!-- Node12&#45;&gt;Node13 -->
<g id="edge14" class="edge">
<title>Node12&#45;&gt;Node13</title>
<path fill="none" stroke="midnightblue" d="M578.24,-83.5C587.53,-83.5 596.97,-83.5 606.15,-83.5"/>
<polygon fill="midnightblue" stroke="midnightblue" points="606.39,-87 616.39,-83.5 606.39,-80 606.39,-87"/>
</g>
<!-- Node15 -->
<g id="node15" class="node">
<title>Node15</title>
<g id="a_node15"><a xlink:href="wld__wpaCtrlConnection_8c.html#ae8867992d243efdfa13e360b50730f88" target="_top" xlink:title=" ">
<polygon fill="white" stroke="black" points="614,-24.5 614,-54.5 745,-54.5 745,-24.5 614,-24.5"/>
<text text-anchor="start" x="622" y="-42.5" font-family="Helvetica,sans-Serif" font-size="10.00">wld_wpaCtrlConnection</text>
<text text-anchor="middle" x="679.5" y="-31.5" font-family="Helvetica,sans-Serif" font-size="10.00">_sendCmdSyncedExt</text>
</a>
</g>
</g>
<!-- Node14&#45;&gt;Node15 -->
<g id="edge16" class="edge">
<title>Node14&#45;&gt;Node15</title>
<path fill="none" stroke="midnightblue" d="M563.23,-39.5C576.32,-39.5 590.19,-39.5 603.6,-39.5"/>
<polygon fill="midnightblue" stroke="midnightblue" points="603.74,-43 613.74,-39.5 603.74,-36 603.74,-43"/>
</g>
<!-- Node16 -->
<g id="node16" class="node">
<title>Node16</title>
<g id="a_node16"><a xlink:href="wld__wpaCtrlConnection_8c.html#abfe3f8b17cf527b1e6fe85a564c8604b" target="_top" xlink:title=" ">
<polygon fill="white" stroke="black" points="781,-49.5 781,-79.5 912,-79.5 912,-49.5 781,-49.5"/>
<text text-anchor="start" x="789" y="-67.5" font-family="Helvetica,sans-Serif" font-size="10.00">wld_wpaCtrlConnection</text>
<text text-anchor="middle" x="846.5" y="-56.5" font-family="Helvetica,sans-Serif" font-size="10.00">_getConnSockName</text>
</a>
</g>
</g>
<!-- Node15&#45;&gt;Node16 -->
<g id="edge17" class="edge">
<title>Node15&#45;&gt;Node16</title>
<path fill="none" stroke="midnightblue" d="M745.24,-49.31C753.67,-50.59 762.37,-51.9 770.95,-53.2"/>
<polygon fill="midnightblue" stroke="midnightblue" points="770.54,-56.68 780.95,-54.72 771.59,-49.76 770.54,-56.68"/>
</g>
<!-- Node17 -->
<g id="node17" class="node">
<title>Node17</title>
<g id="a_node17"><a xlink:href="wld__wpaCtrlConnection_8c.html#aa82226c76dbbf306e509b7c6d3088277" target="_top" xlink:title=" ">
<polygon fill="white" stroke="black" points="781,-0.5 781,-30.5 912,-30.5 912,-0.5 781,-0.5"/>
<text text-anchor="start" x="789" y="-18.5" font-family="Helvetica,sans-Serif" font-size="10.00">wld_wpaCtrlConnection</text>
<text text-anchor="middle" x="846.5" y="-7.5" font-family="Helvetica,sans-Serif" font-size="10.00">_sendCmd</text>
</a>
</g>
</g>
<!-- Node15&#45;&gt;Node17 -->
<g id="edge18" class="edge">
<title>Node15&#45;&gt;Node17</title>
<path fill="none" stroke="midnightblue" d="M745.24,-30.08C753.67,-28.86 762.37,-27.59 770.95,-26.34"/>
<polygon fill="midnightblue" stroke="midnightblue" points="771.56,-29.79 780.95,-24.89 770.55,-22.87 771.56,-29.79"/>
</g>
</g>
</svg>
