<?xml version="1.0" encoding="UTF-8" standalone="no"?>
<!DOCTYPE svg PUBLIC "-//W3C//DTD SVG 1.1//EN"
 "http://www.w3.org/Graphics/SVG/1.1/DTD/svg11.dtd">
<!-- Generated by graphviz version 2.43.0 (0)
 -->
<!-- Title: s_getMaxPow Pages: 1 -->
<svg width="845pt" height="85pt"
 viewBox="0.00 0.00 845.00 85.00" xmlns="http://www.w3.org/2000/svg" xmlns:xlink="http://www.w3.org/1999/xlink">
<g id="graph0" class="graph" transform="scale(1 1) rotate(0) translate(4 81)">
<title>s_getMaxPow</title>
<polygon fill="white" stroke="transparent" points="-4,4 -4,-81 841,-81 841,4 -4,4"/>
<!-- Node1 -->
<g id="node1" class="node">
<title>Node1</title>
<g id="a_node1"><a xlink:title=" ">
<polygon fill="#bfbfbf" stroke="black" points="0,-38.5 0,-57.5 84,-57.5 84,-38.5 0,-38.5"/>
<text text-anchor="middle" x="42" y="-45.5" font-family="Helvetica,sans-Serif" font-size="10.00">s_getMaxPow</text>
</a>
</g>
</g>
<!-- Node2 -->
<g id="node2" class="node">
<title>Node2</title>
<g id="a_node2"><a xlink:href="wld__radio_8c.html#ae6aa07e4f2a9f4675b22fdd1412a60cc" target="_top" xlink:title=" ">
<polygon fill="white" stroke="black" points="135,-57.5 135,-76.5 275,-76.5 275,-57.5 135,-57.5"/>
<text text-anchor="middle" x="205" y="-64.5" font-family="Helvetica,sans-Serif" font-size="10.00">wld_rad_getSwlChanspec</text>
</a>
</g>
</g>
<!-- Node1&#45;&gt;Node2 -->
<g id="edge1" class="edge">
<title>Node1&#45;&gt;Node2</title>
<path fill="none" stroke="midnightblue" d="M84.04,-52.84C96.49,-54.31 110.6,-55.98 124.67,-57.64"/>
<polygon fill="midnightblue" stroke="midnightblue" points="124.54,-61.15 134.88,-58.84 125.36,-54.2 124.54,-61.15"/>
</g>
<!-- Node3 -->
<g id="node3" class="node">
<title>Node3</title>
<g id="a_node3"><a xlink:href="wld__rad__nl80211_8c.html#aa95d2bdc9f9087faf376b9cc24ada5a8" target="_top" xlink:title=" ">
<polygon fill="white" stroke="black" points="120,-19.5 120,-38.5 290,-38.5 290,-19.5 120,-19.5"/>
<text text-anchor="middle" x="205" y="-26.5" font-family="Helvetica,sans-Serif" font-size="10.00">wld_rad_nl80211_getWiphyInfo</text>
</a>
</g>
</g>
<!-- Node1&#45;&gt;Node3 -->
<g id="edge2" class="edge">
<title>Node1&#45;&gt;Node3</title>
<path fill="none" stroke="midnightblue" d="M84.04,-43.16C93.06,-42.09 102.95,-40.93 113.06,-39.73"/>
<polygon fill="midnightblue" stroke="midnightblue" points="113.71,-43.18 123.23,-38.53 112.89,-36.23 113.71,-43.18"/>
</g>
<!-- Node4 -->
<g id="node4" class="node">
<title>Node4</title>
<g id="a_node4"><a xlink:href="wld__nl80211__core_8c.html#ab89990c364e3256f803e95aee1684407" target="_top" xlink:title=" ">
<polygon fill="white" stroke="black" points="326,-38.5 326,-57.5 484,-57.5 484,-38.5 326,-38.5"/>
<text text-anchor="middle" x="405" y="-45.5" font-family="Helvetica,sans-Serif" font-size="10.00">wld_nl80211_getSharedState</text>
</a>
</g>
</g>
<!-- Node3&#45;&gt;Node4 -->
<g id="edge3" class="edge">
<title>Node3&#45;&gt;Node4</title>
<path fill="none" stroke="midnightblue" d="M290.26,-37.09C298.64,-37.89 307.16,-38.71 315.58,-39.52"/>
<polygon fill="midnightblue" stroke="midnightblue" points="315.5,-43.02 325.79,-40.49 316.17,-36.06 315.5,-43.02"/>
</g>
<!-- Node6 -->
<g id="node6" class="node">
<title>Node6</title>
<g id="a_node6"><a xlink:href="wld__nl80211__api_8c.html#af9a489d0e99a230994b5a268ce672db8" target="_top" xlink:title=" ">
<polygon fill="white" stroke="black" points="330.5,-0.5 330.5,-19.5 479.5,-19.5 479.5,-0.5 330.5,-0.5"/>
<text text-anchor="middle" x="405" y="-7.5" font-family="Helvetica,sans-Serif" font-size="10.00">wld_nl80211_getWiphyInfo</text>
</a>
</g>
</g>
<!-- Node3&#45;&gt;Node6 -->
<g id="edge5" class="edge">
<title>Node3&#45;&gt;Node6</title>
<path fill="none" stroke="midnightblue" d="M290.26,-20.91C300.18,-19.96 310.3,-18.99 320.22,-18.04"/>
<polygon fill="midnightblue" stroke="midnightblue" points="320.84,-21.5 330.46,-17.06 320.17,-14.53 320.84,-21.5"/>
</g>
<!-- Node5 -->
<g id="node5" class="node">
<title>Node5</title>
<g id="a_node5"><a xlink:href="wld__nl80211__core_8c.html#ac64e98962155641a465909b3c8fc0779" target="_top" xlink:title=" ">
<polygon fill="white" stroke="black" points="553.5,-38.5 553.5,-57.5 638.5,-57.5 638.5,-38.5 553.5,-38.5"/>
<text text-anchor="middle" x="596" y="-45.5" font-family="Helvetica,sans-Serif" font-size="10.00">s_isValidState</text>
</a>
</g>
</g>
<!-- Node4&#45;&gt;Node5 -->
<g id="edge4" class="edge">
<title>Node4&#45;&gt;Node5</title>
<path fill="none" stroke="midnightblue" d="M484.24,-48C504.11,-48 524.97,-48 543.16,-48"/>
<polygon fill="midnightblue" stroke="midnightblue" points="543.25,-51.5 553.25,-48 543.25,-44.5 543.25,-51.5"/>
</g>
<!-- Node7 -->
<g id="node7" class="node">
<title>Node7</title>
<g id="a_node7"><a xlink:href="wld__nl80211__core_8c.html#a51795ba7297b263584b02e6dd2d8ddb6" target="_top" xlink:title=" ">
<polygon fill="white" stroke="black" points="520,-0.5 520,-19.5 672,-19.5 672,-0.5 520,-0.5"/>
<text text-anchor="middle" x="596" y="-7.5" font-family="Helvetica,sans-Serif" font-size="10.00">wld_nl80211_sendCmdSync</text>
</a>
</g>
</g>
<!-- Node6&#45;&gt;Node7 -->
<g id="edge6" class="edge">
<title>Node6&#45;&gt;Node7</title>
<path fill="none" stroke="midnightblue" d="M479.61,-10C489.38,-10 499.47,-10 509.42,-10"/>
<polygon fill="midnightblue" stroke="midnightblue" points="509.72,-13.5 519.72,-10 509.72,-6.5 509.72,-13.5"/>
</g>
<!-- Node8 -->
<g id="node8" class="node">
<title>Node8</title>
<g id="a_node8"><a xlink:href="wld__nl80211__core_8c.html#a3c5a525596463f925b95bbc76036d07e" target="_top" xlink:title=" ">
<polygon fill="white" stroke="black" points="708,-0.5 708,-19.5 837,-19.5 837,-0.5 708,-0.5"/>
<text text-anchor="middle" x="772.5" y="-7.5" font-family="Helvetica,sans-Serif" font-size="10.00">wld_nl80211_sendCmd</text>
</a>
</g>
</g>
<!-- Node7&#45;&gt;Node8 -->
<g id="edge7" class="edge">
<title>Node7&#45;&gt;Node8</title>
<path fill="none" stroke="midnightblue" d="M672.02,-10C680.49,-10 689.12,-10 697.57,-10"/>
<polygon fill="midnightblue" stroke="midnightblue" points="697.78,-13.5 707.78,-10 697.78,-6.5 697.78,-13.5"/>
</g>
</g>
</svg>
