<?xml version="1.0" encoding="UTF-8" standalone="no"?>
<!DOCTYPE svg PUBLIC "-//W3C//DTD SVG 1.1//EN"
 "http://www.w3.org/Graphics/SVG/1.1/DTD/svg11.dtd">
<!-- Generated by graphviz version 2.43.0 (0)
 -->
<!-- Title: s_updateChannels Pages: 1 -->
<svg width="491pt" height="323pt"
 viewBox="0.00 0.00 491.00 322.50" xmlns="http://www.w3.org/2000/svg" xmlns:xlink="http://www.w3.org/1999/xlink">
<g id="graph0" class="graph" transform="scale(1 1) rotate(0) translate(4 318.5)">
<title>s_updateChannels</title>
<polygon fill="white" stroke="transparent" points="-4,4 -4,-318.5 487,-318.5 487,4 -4,4"/>
<!-- Node1 -->
<g id="node1" class="node">
<title>Node1</title>
<g id="a_node1"><a xlink:title=" ">
<polygon fill="#bfbfbf" stroke="black" points="0,-134 0,-153 106,-153 106,-134 0,-134"/>
<text text-anchor="middle" x="53" y="-141" font-family="Helvetica,sans-Serif" font-size="10.00">s_updateChannels</text>
</a>
</g>
</g>
<!-- Node2 -->
<g id="node2" class="node">
<title>Node2</title>
<g id="a_node2"><a xlink:href="wifiGen__rad_8c.html#af2a37c704747cf32e599b77115c41774" target="_top" xlink:title=" ">
<polygon fill="white" stroke="black" points="169.5,-153 169.5,-172 261.5,-172 261.5,-153 169.5,-153"/>
<text text-anchor="middle" x="215.5" y="-160" font-family="Helvetica,sans-Serif" font-size="10.00">s_readChanInfo</text>
</a>
</g>
</g>
<!-- Node1&#45;&gt;Node2 -->
<g id="edge1" class="edge">
<title>Node1&#45;&gt;Node2</title>
<path fill="none" stroke="midnightblue" d="M106.11,-149.67C123.17,-151.69 142.18,-153.94 159.45,-155.98"/>
<polygon fill="midnightblue" stroke="midnightblue" points="159.05,-159.46 169.39,-157.16 159.87,-152.51 159.05,-159.46"/>
</g>
<!-- Node10 -->
<g id="node10" class="node">
<title>Node10</title>
<g id="a_node10"><a xlink:href="wld__channel_8c.html#a1a9a035bd946d1c31c8f715f91e9c8b4" target="_top" xlink:title=" ">
<polygon fill="white" stroke="black" points="142,-115 142,-134 289,-134 289,-115 142,-115"/>
<text text-anchor="middle" x="215.5" y="-122" font-family="Helvetica,sans-Serif" font-size="10.00">wld_channel_init_channels</text>
</a>
</g>
</g>
<!-- Node1&#45;&gt;Node10 -->
<g id="edge9" class="edge">
<title>Node1&#45;&gt;Node10</title>
<path fill="none" stroke="midnightblue" d="M106.11,-137.33C114.42,-136.35 123.2,-135.31 132.01,-134.27"/>
<polygon fill="midnightblue" stroke="midnightblue" points="132.43,-137.74 141.95,-133.09 131.61,-130.79 132.43,-137.74"/>
</g>
<!-- Node3 -->
<g id="node3" class="node">
<title>Node3</title>
<g id="a_node3"><a xlink:href="wld__channel_8c.html#a1daca3ccba000e743674c98ce51bd86e" target="_top" xlink:title=" ">
<polygon fill="white" stroke="black" points="336.5,-295 336.5,-314 471.5,-314 471.5,-295 336.5,-295"/>
<text text-anchor="middle" x="404" y="-302" font-family="Helvetica,sans-Serif" font-size="10.00">wld_channel_clear_flags</text>
</a>
</g>
</g>
<!-- Node2&#45;&gt;Node3 -->
<g id="edge2" class="edge">
<title>Node2&#45;&gt;Node3</title>
<path fill="none" stroke="midnightblue" d="M222.16,-172.29C236.29,-195.78 275.52,-255.61 325,-285.5 328.62,-287.69 332.49,-289.63 336.48,-291.34"/>
<polygon fill="midnightblue" stroke="midnightblue" points="335.39,-294.67 345.98,-294.95 337.87,-288.13 335.39,-294.67"/>
</g>
<!-- Node4 -->
<g id="node4" class="node">
<title>Node4</title>
<g id="a_node4"><a xlink:href="wld__channel_8c.html#a03aa2fd7136694da03048717e913ba77" target="_top" xlink:title=" ">
<polygon fill="white" stroke="black" points="329.5,-245.5 329.5,-275.5 478.5,-275.5 478.5,-245.5 329.5,-245.5"/>
<text text-anchor="start" x="337.5" y="-263.5" font-family="Helvetica,sans-Serif" font-size="10.00">wld_channel_clear_passive</text>
<text text-anchor="middle" x="404" y="-252.5" font-family="Helvetica,sans-Serif" font-size="10.00">_channel</text>
</a>
</g>
</g>
<!-- Node2&#45;&gt;Node4 -->
<g id="edge3" class="edge">
<title>Node2&#45;&gt;Node4</title>
<path fill="none" stroke="midnightblue" d="M228.14,-172.2C247.25,-187.71 286.99,-218.21 325,-236.5 328.99,-238.42 333.16,-240.23 337.42,-241.92"/>
<polygon fill="midnightblue" stroke="midnightblue" points="336.23,-245.21 346.82,-245.45 338.69,-238.66 336.23,-245.21"/>
</g>
<!-- Node5 -->
<g id="node5" class="node">
<title>Node5</title>
<g id="a_node5"><a xlink:href="wld__channel_8c.html#a8f4ac82176127ff11de7585347815ecc" target="_top" xlink:title=" ">
<polygon fill="white" stroke="black" points="325,-196.5 325,-226.5 483,-226.5 483,-196.5 325,-196.5"/>
<text text-anchor="start" x="333" y="-214.5" font-family="Helvetica,sans-Serif" font-size="10.00">wld_channel_mark_available</text>
<text text-anchor="middle" x="404" y="-203.5" font-family="Helvetica,sans-Serif" font-size="10.00">_channel</text>
</a>
</g>
</g>
<!-- Node2&#45;&gt;Node5 -->
<g id="edge4" class="edge">
<title>Node2&#45;&gt;Node5</title>
<path fill="none" stroke="midnightblue" d="M252.9,-172.06C276.51,-178.27 307.99,-186.54 336.02,-193.9"/>
<polygon fill="midnightblue" stroke="midnightblue" points="335.21,-197.31 345.77,-196.46 336.99,-190.54 335.21,-197.31"/>
</g>
<!-- Node6 -->
<g id="node6" class="node">
<title>Node6</title>
<g id="a_node6"><a xlink:href="wld__channel_8c.html#a274243f69f10bbc51cf7631622860889" target="_top" xlink:title=" ">
<polygon fill="white" stroke="black" points="328.5,-147.5 328.5,-177.5 479.5,-177.5 479.5,-147.5 328.5,-147.5"/>
<text text-anchor="start" x="336.5" y="-165.5" font-family="Helvetica,sans-Serif" font-size="10.00">wld_channel_mark_passive</text>
<text text-anchor="middle" x="404" y="-154.5" font-family="Helvetica,sans-Serif" font-size="10.00">_channel</text>
</a>
</g>
</g>
<!-- Node2&#45;&gt;Node6 -->
<g id="edge5" class="edge">
<title>Node2&#45;&gt;Node6</title>
<path fill="none" stroke="midnightblue" d="M261.65,-162.5C278.72,-162.5 298.76,-162.5 318.29,-162.5"/>
<polygon fill="midnightblue" stroke="midnightblue" points="318.44,-166 328.44,-162.5 318.44,-159 318.44,-166"/>
</g>
<!-- Node7 -->
<g id="node7" class="node">
<title>Node7</title>
<g id="a_node7"><a xlink:href="wld__channel_8c.html#a2fcd4f372b30ebbdbdab4763c2cddde7" target="_top" xlink:title=" ">
<polygon fill="white" stroke="black" points="334.5,-98.5 334.5,-128.5 473.5,-128.5 473.5,-98.5 334.5,-98.5"/>
<text text-anchor="start" x="342.5" y="-116.5" font-family="Helvetica,sans-Serif" font-size="10.00">wld_channel_mark_radar</text>
<text text-anchor="middle" x="404" y="-105.5" font-family="Helvetica,sans-Serif" font-size="10.00">_detected_channel</text>
</a>
</g>
</g>
<!-- Node2&#45;&gt;Node7 -->
<g id="edge6" class="edge">
<title>Node2&#45;&gt;Node7</title>
<path fill="none" stroke="midnightblue" d="M253.01,-152.94C264.53,-149.92 277.3,-146.57 289,-143.5 304.18,-139.51 320.5,-135.22 335.91,-131.17"/>
<polygon fill="midnightblue" stroke="midnightblue" points="337.1,-134.47 345.88,-128.54 335.32,-127.7 337.1,-134.47"/>
</g>
<!-- Node8 -->
<g id="node8" class="node">
<title>Node8</title>
<g id="a_node8"><a xlink:href="wld__channel_8c.html#af280c210df36690e3e3f2feca13c4ad8" target="_top" xlink:title=" ">
<polygon fill="white" stroke="black" points="334.5,-49.5 334.5,-79.5 473.5,-79.5 473.5,-49.5 334.5,-49.5"/>
<text text-anchor="start" x="342.5" y="-67.5" font-family="Helvetica,sans-Serif" font-size="10.00">wld_channel_mark_radar</text>
<text text-anchor="middle" x="404" y="-56.5" font-family="Helvetica,sans-Serif" font-size="10.00">_req_channel</text>
</a>
</g>
</g>
<!-- Node2&#45;&gt;Node8 -->
<g id="edge7" class="edge">
<title>Node2&#45;&gt;Node8</title>
<path fill="none" stroke="midnightblue" d="M261.68,-156.05C271.29,-153.25 280.95,-149.24 289,-143.5 312.48,-126.75 301.98,-106.88 325,-89.5 327.47,-87.63 330.09,-85.9 332.81,-84.3"/>
<polygon fill="midnightblue" stroke="midnightblue" points="334.56,-87.34 341.79,-79.6 331.31,-81.13 334.56,-87.34"/>
</g>
<!-- Node9 -->
<g id="node9" class="node">
<title>Node9</title>
<g id="a_node9"><a xlink:href="wld__channel_8c.html#a21233297a99a47a47bdd513f4bd1bc19" target="_top" xlink:title=" ">
<polygon fill="white" stroke="black" points="333.5,-0.5 333.5,-30.5 474.5,-30.5 474.5,-0.5 333.5,-0.5"/>
<text text-anchor="start" x="341.5" y="-18.5" font-family="Helvetica,sans-Serif" font-size="10.00">wld_channel_set_channel</text>
<text text-anchor="middle" x="404" y="-7.5" font-family="Helvetica,sans-Serif" font-size="10.00">_clear_time</text>
</a>
</g>
</g>
<!-- Node2&#45;&gt;Node9 -->
<g id="edge8" class="edge">
<title>Node2&#45;&gt;Node9</title>
<path fill="none" stroke="midnightblue" d="M261.72,-157.81C271.65,-154.95 281.45,-150.47 289,-143.5 324.63,-110.61 290.27,-74.34 325,-40.5 326.49,-39.05 328.06,-37.68 329.71,-36.39"/>
<polygon fill="midnightblue" stroke="midnightblue" points="332.05,-39.04 338.44,-30.59 328.18,-33.21 332.05,-39.04"/>
</g>
</g>
</svg>
