<?xml version="1.0" encoding="UTF-8" standalone="no"?>
<!DOCTYPE svg PUBLIC "-//W3C//DTD SVG 1.1//EN"
 "http://www.w3.org/Graphics/SVG/1.1/DTD/svg11.dtd">
<!-- Generated by graphviz version 2.43.0 (0)
 -->
<!-- Title: wifiGen_rad_delvapif Pages: 1 -->
<svg width="903pt" height="104pt"
 viewBox="0.00 0.00 903.00 104.00" xmlns="http://www.w3.org/2000/svg" xmlns:xlink="http://www.w3.org/1999/xlink">
<g id="graph0" class="graph" transform="scale(1 1) rotate(0) translate(4 100)">
<title>wifiGen_rad_delvapif</title>
<polygon fill="white" stroke="transparent" points="-4,4 -4,-100 899,-100 899,4 -4,4"/>
<!-- Node1 -->
<g id="node1" class="node">
<title>Node1</title>
<g id="a_node1"><a xlink:title=" ">
<polygon fill="#bfbfbf" stroke="black" points="0,-38.5 0,-57.5 119,-57.5 119,-38.5 0,-38.5"/>
<text text-anchor="middle" x="59.5" y="-45.5" font-family="Helvetica,sans-Serif" font-size="10.00">wifiGen_rad_delvapif</text>
</a>
</g>
</g>
<!-- Node2 -->
<g id="node2" class="node">
<title>Node2</title>
<g id="a_node2"><a xlink:href="wld__util_8h.html#a519d08ae48404e6142031973c45f07b9" target="_top" xlink:title=" ">
<polygon fill="white" stroke="black" points="187.5,-76.5 187.5,-95.5 280.5,-95.5 280.5,-76.5 187.5,-76.5"/>
<text text-anchor="middle" x="234" y="-83.5" font-family="Helvetica,sans-Serif" font-size="10.00">if_nametoindex</text>
</a>
</g>
</g>
<!-- Node1&#45;&gt;Node2 -->
<g id="edge1" class="edge">
<title>Node1&#45;&gt;Node2</title>
<path fill="none" stroke="midnightblue" d="M104.03,-57.59C127.1,-62.67 155.63,-68.96 179.98,-74.32"/>
<polygon fill="midnightblue" stroke="midnightblue" points="179.27,-77.75 189.78,-76.48 180.77,-70.91 179.27,-77.75"/>
</g>
<!-- Node3 -->
<g id="node3" class="node">
<title>Node3</title>
<g id="a_node3"><a xlink:href="wld__nl80211__api_8c.html#a13e5b3c1c1cb6b0903ded6297c4741ab" target="_top" xlink:title=" ">
<polygon fill="white" stroke="black" points="163,-38.5 163,-57.5 305,-57.5 305,-38.5 163,-38.5"/>
<text text-anchor="middle" x="234" y="-45.5" font-family="Helvetica,sans-Serif" font-size="10.00">wld_nl80211_delInterface</text>
</a>
</g>
</g>
<!-- Node1&#45;&gt;Node3 -->
<g id="edge2" class="edge">
<title>Node1&#45;&gt;Node3</title>
<path fill="none" stroke="midnightblue" d="M119.38,-48C130.07,-48 141.38,-48 152.56,-48"/>
<polygon fill="midnightblue" stroke="midnightblue" points="152.77,-51.5 162.77,-48 152.77,-44.5 152.77,-51.5"/>
</g>
<!-- Node7 -->
<g id="node7" class="node">
<title>Node7</title>
<g id="a_node7"><a xlink:href="wld__nl80211__core_8c.html#ab89990c364e3256f803e95aee1684407" target="_top" xlink:title=" ">
<polygon fill="white" stroke="black" points="155,-0.5 155,-19.5 313,-19.5 313,-0.5 155,-0.5"/>
<text text-anchor="middle" x="234" y="-7.5" font-family="Helvetica,sans-Serif" font-size="10.00">wld_nl80211_getSharedState</text>
</a>
</g>
</g>
<!-- Node1&#45;&gt;Node7 -->
<g id="edge6" class="edge">
<title>Node1&#45;&gt;Node7</title>
<path fill="none" stroke="midnightblue" d="M104.03,-38.41C127.1,-33.33 155.63,-27.04 179.98,-21.68"/>
<polygon fill="midnightblue" stroke="midnightblue" points="180.77,-25.09 189.78,-19.52 179.27,-18.25 180.77,-25.09"/>
</g>
<!-- Node4 -->
<g id="node4" class="node">
<title>Node4</title>
<g id="a_node4"><a xlink:href="wld__nl80211__core_8c.html#a2f124c7a531325213fab90ab2a181035" target="_top" xlink:title=" ">
<polygon fill="white" stroke="black" points="349,-38.5 349,-57.5 542,-57.5 542,-38.5 349,-38.5"/>
<text text-anchor="middle" x="445.5" y="-45.5" font-family="Helvetica,sans-Serif" font-size="10.00">wld_nl80211_sendCmdSyncWithAck</text>
</a>
</g>
</g>
<!-- Node3&#45;&gt;Node4 -->
<g id="edge3" class="edge">
<title>Node3&#45;&gt;Node4</title>
<path fill="none" stroke="midnightblue" d="M305.05,-48C315.91,-48 327.32,-48 338.76,-48"/>
<polygon fill="midnightblue" stroke="midnightblue" points="338.79,-51.5 348.79,-48 338.79,-44.5 338.79,-51.5"/>
</g>
<!-- Node5 -->
<g id="node5" class="node">
<title>Node5</title>
<g id="a_node5"><a xlink:href="wld__nl80211__core_8c.html#a51795ba7297b263584b02e6dd2d8ddb6" target="_top" xlink:title=" ">
<polygon fill="white" stroke="black" points="578,-38.5 578,-57.5 730,-57.5 730,-38.5 578,-38.5"/>
<text text-anchor="middle" x="654" y="-45.5" font-family="Helvetica,sans-Serif" font-size="10.00">wld_nl80211_sendCmdSync</text>
</a>
</g>
</g>
<!-- Node4&#45;&gt;Node5 -->
<g id="edge4" class="edge">
<title>Node4&#45;&gt;Node5</title>
<path fill="none" stroke="midnightblue" d="M542.19,-48C550.67,-48 559.21,-48 567.6,-48"/>
<polygon fill="midnightblue" stroke="midnightblue" points="567.72,-51.5 577.72,-48 567.72,-44.5 567.72,-51.5"/>
</g>
<!-- Node6 -->
<g id="node6" class="node">
<title>Node6</title>
<g id="a_node6"><a xlink:href="wld__nl80211__core_8c.html#a3c5a525596463f925b95bbc76036d07e" target="_top" xlink:title=" ">
<polygon fill="white" stroke="black" points="766,-38.5 766,-57.5 895,-57.5 895,-38.5 766,-38.5"/>
<text text-anchor="middle" x="830.5" y="-45.5" font-family="Helvetica,sans-Serif" font-size="10.00">wld_nl80211_sendCmd</text>
</a>
</g>
</g>
<!-- Node5&#45;&gt;Node6 -->
<g id="edge5" class="edge">
<title>Node5&#45;&gt;Node6</title>
<path fill="none" stroke="midnightblue" d="M730.02,-48C738.49,-48 747.12,-48 755.57,-48"/>
<polygon fill="midnightblue" stroke="midnightblue" points="755.78,-51.5 765.78,-48 755.78,-44.5 755.78,-51.5"/>
</g>
<!-- Node8 -->
<g id="node8" class="node">
<title>Node8</title>
<g id="a_node8"><a xlink:href="wld__nl80211__core_8c.html#ac64e98962155641a465909b3c8fc0779" target="_top" xlink:title=" ">
<polygon fill="white" stroke="black" points="403,-0.5 403,-19.5 488,-19.5 488,-0.5 403,-0.5"/>
<text text-anchor="middle" x="445.5" y="-7.5" font-family="Helvetica,sans-Serif" font-size="10.00">s_isValidState</text>
</a>
</g>
</g>
<!-- Node7&#45;&gt;Node8 -->
<g id="edge7" class="edge">
<title>Node7&#45;&gt;Node8</title>
<path fill="none" stroke="midnightblue" d="M313.01,-10C339.56,-10 368.57,-10 392.57,-10"/>
<polygon fill="midnightblue" stroke="midnightblue" points="392.87,-13.5 402.87,-10 392.87,-6.5 392.87,-13.5"/>
</g>
</g>
</svg>
