<?xml version="1.0" encoding="UTF-8" standalone="no"?>
<!DOCTYPE svg PUBLIC "-//W3C//DTD SVG 1.1//EN"
 "http://www.w3.org/Graphics/SVG/1.1/DTD/svg11.dtd">
<!-- Generated by graphviz version 2.43.0 (0)
 -->
<!-- Title: wifiGen_hapd_getConfiguredCountryCode Pages: 1 -->
<svg width="765pt" height="116pt"
 viewBox="0.00 0.00 765.00 116.00" xmlns="http://www.w3.org/2000/svg" xmlns:xlink="http://www.w3.org/1999/xlink">
<g id="graph0" class="graph" transform="scale(1 1) rotate(0) translate(4 112)">
<title>wifiGen_hapd_getConfiguredCountryCode</title>
<polygon fill="white" stroke="transparent" points="-4,4 -4,-112 761,-112 761,4 -4,4"/>
<!-- Node1 -->
<g id="node1" class="node">
<title>Node1</title>
<g id="a_node1"><a xlink:title=" ">
<polygon fill="#bfbfbf" stroke="black" points="0,-39 0,-69 156,-69 156,-39 0,-39"/>
<text text-anchor="start" x="8" y="-57" font-family="Helvetica,sans-Serif" font-size="10.00">wifiGen_hapd_getConfigured</text>
<text text-anchor="middle" x="78" y="-46" font-family="Helvetica,sans-Serif" font-size="10.00">CountryCode</text>
</a>
</g>
</g>
<!-- Node2 -->
<g id="node2" class="node">
<title>Node2</title>
<g id="a_node2"><a xlink:href="wld__rad__hostapd__api_8c.html#afde544a6926aebb05ea1f9c934778480" target="_top" xlink:title=" ">
<polygon fill="white" stroke="black" points="192,-44.5 192,-63.5 373,-63.5 373,-44.5 192,-44.5"/>
<text text-anchor="middle" x="282.5" y="-51.5" font-family="Helvetica,sans-Serif" font-size="10.00">wld_rad_hostapd_getCfgParamStr</text>
</a>
</g>
</g>
<!-- Node1&#45;&gt;Node2 -->
<g id="edge1" class="edge">
<title>Node1&#45;&gt;Node2</title>
<path fill="none" stroke="midnightblue" d="M156.13,-54C164.49,-54 173.08,-54 181.65,-54"/>
<polygon fill="midnightblue" stroke="midnightblue" points="181.69,-57.5 191.69,-54 181.69,-50.5 181.69,-57.5"/>
</g>
<!-- Node3 -->
<g id="node3" class="node">
<title>Node3</title>
<g id="a_node3"><a xlink:href="wld__hostapd__cfgManager_8c.html#abcd4b96a1191c1c593ab53f9d419e740" target="_top" xlink:title="delete a wld_hostapd_config_t map already loaded from hostapd file">
<polygon fill="white" stroke="black" points="417,-88.5 417,-107.5 562,-107.5 562,-88.5 417,-88.5"/>
<text text-anchor="middle" x="489.5" y="-95.5" font-family="Helvetica,sans-Serif" font-size="10.00">wld_hostapd_deleteConfig</text>
</a>
</g>
</g>
<!-- Node2&#45;&gt;Node3 -->
<g id="edge2" class="edge">
<title>Node2&#45;&gt;Node3</title>
<path fill="none" stroke="midnightblue" d="M327.98,-63.55C359.14,-70.24 400.97,-79.21 434.12,-86.33"/>
<polygon fill="midnightblue" stroke="midnightblue" points="433.59,-89.79 444.1,-88.47 435.06,-82.95 433.59,-89.79"/>
</g>
<!-- Node4 -->
<g id="node4" class="node">
<title>Node4</title>
<g id="a_node4"><a xlink:href="wld__hostapd__cfgManager_8c.html#af7827e8223cd8d13fc11d3a520f71660" target="_top" xlink:title=" ">
<polygon fill="white" stroke="black" points="409,-39 409,-69 570,-69 570,-39 409,-39"/>
<text text-anchor="start" x="417" y="-57" font-family="Helvetica,sans-Serif" font-size="10.00">wld_hostapd_getConfigParam</text>
<text text-anchor="middle" x="489.5" y="-46" font-family="Helvetica,sans-Serif" font-size="10.00">ValStr</text>
</a>
</g>
</g>
<!-- Node2&#45;&gt;Node4 -->
<g id="edge3" class="edge">
<title>Node2&#45;&gt;Node4</title>
<path fill="none" stroke="midnightblue" d="M373.12,-54C381.54,-54 390.09,-54 398.52,-54"/>
<polygon fill="midnightblue" stroke="midnightblue" points="398.72,-57.5 408.72,-54 398.72,-50.5 398.72,-57.5"/>
</g>
<!-- Node6 -->
<g id="node6" class="node">
<title>Node6</title>
<g id="a_node6"><a xlink:href="wld__hostapd__cfgManager_8c.html#ad15aa07c202c5ff5f3a78dc1297429f5" target="_top" xlink:title="load the hostapd configuration from hostpad config file into wld_hostapd_config_t structure">
<polygon fill="white" stroke="black" points="422,-0.5 422,-19.5 557,-19.5 557,-0.5 422,-0.5"/>
<text text-anchor="middle" x="489.5" y="-7.5" font-family="Helvetica,sans-Serif" font-size="10.00">wld_hostapd_loadConfig</text>
</a>
</g>
</g>
<!-- Node2&#45;&gt;Node6 -->
<g id="edge5" class="edge">
<title>Node2&#45;&gt;Node6</title>
<path fill="none" stroke="midnightblue" d="M327.98,-44.45C359.14,-37.76 400.97,-28.79 434.12,-21.67"/>
<polygon fill="midnightblue" stroke="midnightblue" points="435.06,-25.05 444.1,-19.53 433.59,-18.21 435.06,-25.05"/>
</g>
<!-- Node5 -->
<g id="node5" class="node">
<title>Node5</title>
<g id="a_node5"><a xlink:href="wld__hostapd__cfgManager_8c.html#a0a1bb10a455c35606f794a85a9e5964a" target="_top" xlink:title="get the general/vap config map">
<polygon fill="white" stroke="black" points="606,-44.5 606,-63.5 757,-63.5 757,-44.5 606,-44.5"/>
<text text-anchor="middle" x="681.5" y="-51.5" font-family="Helvetica,sans-Serif" font-size="10.00">wld_hostapd_getConfigMap</text>
</a>
</g>
</g>
<!-- Node4&#45;&gt;Node5 -->
<g id="edge4" class="edge">
<title>Node4&#45;&gt;Node5</title>
<path fill="none" stroke="midnightblue" d="M570.25,-54C578.63,-54 587.16,-54 595.59,-54"/>
<polygon fill="midnightblue" stroke="midnightblue" points="595.81,-57.5 605.81,-54 595.81,-50.5 595.81,-57.5"/>
</g>
</g>
</svg>
