<?xml version="1.0" encoding="UTF-8" standalone="no"?>
<!DOCTYPE svg PUBLIC "-//W3C//DTD SVG 1.1//EN"
 "http://www.w3.org/Graphics/SVG/1.1/DTD/svg11.dtd">
<!-- Generated by graphviz version 2.43.0 (0)
 -->
<!-- Title: wifiGen_fsm_doInit Pages: 1 -->
<svg width="405pt" height="66pt"
 viewBox="0.00 0.00 405.00 66.00" xmlns="http://www.w3.org/2000/svg" xmlns:xlink="http://www.w3.org/1999/xlink">
<g id="graph0" class="graph" transform="scale(1 1) rotate(0) translate(4 62)">
<title>wifiGen_fsm_doInit</title>
<polygon fill="white" stroke="transparent" points="-4,4 -4,-62 401,-62 401,4 -4,4"/>
<!-- Node1 -->
<g id="node1" class="node">
<title>Node1</title>
<g id="a_node1"><a xlink:title=" ">
<polygon fill="#bfbfbf" stroke="black" points="0,-19.5 0,-38.5 110,-38.5 110,-19.5 0,-19.5"/>
<text text-anchor="middle" x="55" y="-26.5" font-family="Helvetica,sans-Serif" font-size="10.00">wifiGen_fsm_doInit</text>
</a>
</g>
</g>
<!-- Node2 -->
<g id="node2" class="node">
<title>Node2</title>
<g id="a_node2"><a xlink:href="wld__eventing_8c.html#ae1d360897e6f003fa37c96c3d4684edb" target="_top" xlink:title=" ">
<polygon fill="white" stroke="black" points="146,-38.5 146,-57.5 282,-57.5 282,-38.5 146,-38.5"/>
<text text-anchor="middle" x="214" y="-45.5" font-family="Helvetica,sans-Serif" font-size="10.00">wld_event_add_callback</text>
</a>
</g>
</g>
<!-- Node1&#45;&gt;Node2 -->
<g id="edge1" class="edge">
<title>Node1&#45;&gt;Node2</title>
<path fill="none" stroke="midnightblue" d="M110.03,-35.54C118.32,-36.54 127.01,-37.59 135.68,-38.64"/>
<polygon fill="midnightblue" stroke="midnightblue" points="135.48,-42.14 145.83,-39.87 136.32,-35.2 135.48,-42.14"/>
</g>
<!-- Node3 -->
<g id="node3" class="node">
<title>Node3</title>
<g id="a_node3"><a xlink:href="wld__rad__fsm_8c.html#a18ba85fa786b9f2b4a39cade120b2748" target="_top" xlink:title=" ">
<polygon fill="white" stroke="black" points="174.5,-0.5 174.5,-19.5 253.5,-19.5 253.5,-0.5 174.5,-0.5"/>
<text text-anchor="middle" x="214" y="-7.5" font-family="Helvetica,sans-Serif" font-size="10.00">wld_fsm_init</text>
</a>
</g>
</g>
<!-- Node1&#45;&gt;Node3 -->
<g id="edge2" class="edge">
<title>Node1&#45;&gt;Node3</title>
<path fill="none" stroke="midnightblue" d="M110.03,-22.46C127.51,-20.35 146.79,-18.01 163.9,-15.94"/>
<polygon fill="midnightblue" stroke="midnightblue" points="164.72,-19.37 174.23,-14.69 163.88,-12.42 164.72,-19.37"/>
</g>
<!-- Node4 -->
<g id="node4" class="node">
<title>Node4</title>
<g id="a_node4"><a xlink:href="wld__rad__fsm_8c.html#a2c35d4300cd37ca31e925253c34d16de" target="_top" xlink:title=" ">
<polygon fill="white" stroke="black" points="318,-0.5 318,-19.5 397,-19.5 397,-0.5 318,-0.5"/>
<text text-anchor="middle" x="357.5" y="-7.5" font-family="Helvetica,sans-Serif" font-size="10.00">wld_rad_fsm</text>
</a>
</g>
</g>
<!-- Node3&#45;&gt;Node4 -->
<g id="edge3" class="edge">
<title>Node3&#45;&gt;Node4</title>
<path fill="none" stroke="midnightblue" d="M253.67,-10C270.36,-10 290.07,-10 307.75,-10"/>
<polygon fill="midnightblue" stroke="midnightblue" points="307.88,-13.5 317.88,-10 307.88,-6.5 307.88,-13.5"/>
</g>
</g>
</svg>
