<?xml version="1.0" encoding="UTF-8" standalone="no"?>
<!DOCTYPE svg PUBLIC "-//W3C//DTD SVG 1.1//EN"
 "http://www.w3.org/Graphics/SVG/1.1/DTD/svg11.dtd">
<!-- Generated by graphviz version 2.43.0 (0)
 -->
<!-- Title: src/Plugin/wifiGen_ep.c Pages: 1 -->
<svg width="4450pt" height="375pt"
 viewBox="0.00 0.00 4449.83 375.00" xmlns="http://www.w3.org/2000/svg" xmlns:xlink="http://www.w3.org/1999/xlink">
<g id="graph0" class="graph" transform="scale(1 1) rotate(0) translate(4 371)">
<title>src/Plugin/wifiGen_ep.c</title>
<polygon fill="white" stroke="transparent" points="-4,4 -4,-371 4445.83,-371 4445.83,4 -4,4"/>
<!-- Node1 -->
<g id="node1" class="node">
<title>Node1</title>
<g id="a_node1"><a xlink:title=" ">
<polygon fill="#bfbfbf" stroke="black" points="2095.69,-347.5 2095.69,-366.5 2224.69,-366.5 2224.69,-347.5 2095.69,-347.5"/>
<text text-anchor="middle" x="2160.19" y="-354.5" font-family="Helvetica,sans-Serif" font-size="10.00">src/Plugin/wifiGen_ep.c</text>
</a>
</g>
</g>
<!-- Node2 -->
<g id="node2" class="node">
<title>Node2</title>
<g id="a_node2"><a xlink:href="wld_8h.html" target="_top" xlink:title=" ">
<polygon fill="white" stroke="red" points="2049.69,-168.5 2049.69,-187.5 2112.69,-187.5 2112.69,-168.5 2049.69,-168.5"/>
<text text-anchor="middle" x="2081.19" y="-175.5" font-family="Helvetica,sans-Serif" font-size="10.00">wld/wld.h</text>
</a>
</g>
</g>
<!-- Node1&#45;&gt;Node2 -->
<g id="edge1" class="edge">
<title>Node1&#45;&gt;Node2</title>
<path fill="none" stroke="midnightblue" d="M2144.46,-347.24C2132.3,-339.48 2116.38,-326.93 2109.19,-311 2103.53,-298.44 2103.83,-292.69 2109.19,-280 2118.12,-258.86 2137.27,-265.14 2146.19,-244 2149.65,-235.81 2150.32,-231.87 2146.19,-224 2138.92,-210.11 2125.18,-199.65 2112.21,-192.33"/>
<polygon fill="midnightblue" stroke="midnightblue" points="2113.49,-189.05 2103,-187.55 2110.27,-195.27 2113.49,-189.05"/>
</g>
<!-- Node75 -->
<g id="node39" class="node">
<title>Node75</title>
<g id="a_node39"><a xlink:href="wld__rad__nl80211_8h.html" target="_top" xlink:title=" ">
<polygon fill="white" stroke="red" points="1481.19,-224.5 1481.19,-243.5 1609.19,-243.5 1609.19,-224.5 1481.19,-224.5"/>
<text text-anchor="middle" x="1545.19" y="-231.5" font-family="Helvetica,sans-Serif" font-size="10.00">wld/wld_rad_nl80211.h</text>
</a>
</g>
</g>
<!-- Node1&#45;&gt;Node75 -->
<g id="edge46" class="edge">
<title>Node1&#45;&gt;Node75</title>
<path fill="none" stroke="midnightblue" d="M2095.48,-349.96C2027.31,-343 1917.06,-330.01 1823.19,-311 1735.2,-293.18 1633.98,-263 1581.31,-246.55"/>
<polygon fill="midnightblue" stroke="midnightblue" points="1582.33,-243.2 1571.74,-243.54 1580.24,-249.88 1582.33,-243.2"/>
</g>
<!-- Node87 -->
<g id="node40" class="node">
<title>Node87</title>
<g id="a_node40"><a xlink:href="wld__ep__nl80211_8h.html" target="_top" xlink:title=" ">
<polygon fill="white" stroke="red" points="1627.69,-224.5 1627.69,-243.5 1752.69,-243.5 1752.69,-224.5 1627.69,-224.5"/>
<text text-anchor="middle" x="1690.19" y="-231.5" font-family="Helvetica,sans-Serif" font-size="10.00">wld/wld_ep_nl80211.h</text>
</a>
</g>
</g>
<!-- Node1&#45;&gt;Node87 -->
<g id="edge48" class="edge">
<title>Node1&#45;&gt;Node87</title>
<path fill="none" stroke="midnightblue" d="M2109.82,-347.46C2063.99,-339.34 1994.65,-326.12 1935.19,-311 1859,-291.62 1771.38,-262.82 1724.33,-246.82"/>
<polygon fill="midnightblue" stroke="midnightblue" points="1725.24,-243.43 1714.64,-243.51 1722.98,-250.05 1725.24,-243.43"/>
</g>
<!-- Node88 -->
<g id="node41" class="node">
<title>Node88</title>
<g id="a_node41"><a xlink:href="wld__linuxIfUtils_8h.html" target="_top" xlink:title=" ">
<polygon fill="white" stroke="red" points="2646.19,-286 2646.19,-305 2768.19,-305 2768.19,-286 2646.19,-286"/>
<text text-anchor="middle" x="2707.19" y="-293" font-family="Helvetica,sans-Serif" font-size="10.00">wld/wld_linuxIfUtils.h</text>
</a>
</g>
</g>
<!-- Node1&#45;&gt;Node88 -->
<g id="edge50" class="edge">
<title>Node1&#45;&gt;Node88</title>
<path fill="none" stroke="midnightblue" d="M2224.94,-351.8C2316.11,-345.44 2487.37,-331.85 2632.19,-311 2640.22,-309.84 2648.69,-308.41 2656.93,-306.91"/>
<polygon fill="midnightblue" stroke="midnightblue" points="2657.65,-310.33 2666.83,-305.04 2656.36,-303.45 2657.65,-310.33"/>
</g>
<!-- Node89 -->
<g id="node42" class="node">
<title>Node89</title>
<g id="a_node42"><a xlink:href="wld__linuxIfStats_8h.html" target="_top" xlink:title=" ">
<polygon fill="white" stroke="black" points="1771.19,-224.5 1771.19,-243.5 1895.19,-243.5 1895.19,-224.5 1771.19,-224.5"/>
<text text-anchor="middle" x="1833.19" y="-231.5" font-family="Helvetica,sans-Serif" font-size="10.00">wld/wld_linuxIfStats.h</text>
</a>
</g>
</g>
<!-- Node1&#45;&gt;Node89 -->
<g id="edge51" class="edge">
<title>Node1&#45;&gt;Node89</title>
<path fill="none" stroke="midnightblue" d="M2130.14,-347.47C2100.83,-338.95 2055.09,-325.12 2016.19,-311 1960.63,-290.83 1897.2,-263.49 1861.51,-247.7"/>
<polygon fill="midnightblue" stroke="midnightblue" points="1862.76,-244.43 1852.2,-243.57 1859.92,-250.82 1862.76,-244.43"/>
</g>
<!-- Node90 -->
<g id="node43" class="node">
<title>Node90</title>
<g id="a_node43"><a xlink:href="wld__radio_8h.html" target="_top" xlink:title=" ">
<polygon fill="white" stroke="red" points="1913.69,-224.5 1913.69,-243.5 2006.69,-243.5 2006.69,-224.5 1913.69,-224.5"/>
<text text-anchor="middle" x="1960.19" y="-231.5" font-family="Helvetica,sans-Serif" font-size="10.00">wld/wld_radio.h</text>
</a>
</g>
</g>
<!-- Node1&#45;&gt;Node90 -->
<g id="edge53" class="edge">
<title>Node1&#45;&gt;Node90</title>
<path fill="none" stroke="midnightblue" d="M2139.25,-347.4C2119.61,-339.04 2089.69,-325.5 2065.19,-311 2033.34,-292.14 1999.07,-266.14 1978.64,-249.96"/>
<polygon fill="midnightblue" stroke="midnightblue" points="1980.77,-247.19 1970.78,-243.68 1976.4,-252.65 1980.77,-247.19"/>
</g>
<!-- Node97 -->
<g id="node44" class="node">
<title>Node97</title>
<g id="a_node44"><a xlink:href="wifiGen__wpaSupp_8h.html" target="_top" xlink:title=" ">
<polygon fill="white" stroke="black" points="2025.19,-224.5 2025.19,-243.5 2137.19,-243.5 2137.19,-224.5 2025.19,-224.5"/>
<text text-anchor="middle" x="2081.19" y="-231.5" font-family="Helvetica,sans-Serif" font-size="10.00">wifiGen_wpaSupp.h</text>
</a>
</g>
</g>
<!-- Node1&#45;&gt;Node97 -->
<g id="edge55" class="edge">
<title>Node1&#45;&gt;Node97</title>
<path fill="none" stroke="midnightblue" d="M2127.21,-347.44C2108.73,-340.77 2087.24,-329.45 2076.19,-311 2065.82,-293.67 2069.6,-269.96 2074.35,-253.66"/>
<polygon fill="midnightblue" stroke="midnightblue" points="2077.82,-254.32 2077.62,-243.72 2071.17,-252.13 2077.82,-254.32"/>
</g>
<!-- Node98 -->
<g id="node45" class="node">
<title>Node98</title>
<g id="a_node45"><a xlink:href="wld__wpaSupp__ep__api_8h.html" target="_top" xlink:title=" ">
<polygon fill="white" stroke="black" points="2468.69,-280.5 2468.69,-310.5 2589.69,-310.5 2589.69,-280.5 2468.69,-280.5"/>
<text text-anchor="start" x="2476.69" y="-298.5" font-family="Helvetica,sans-Serif" font-size="10.00">wld/wld_wpaSupp_ep</text>
<text text-anchor="middle" x="2529.19" y="-287.5" font-family="Helvetica,sans-Serif" font-size="10.00">_api.h</text>
</a>
</g>
</g>
<!-- Node1&#45;&gt;Node98 -->
<g id="edge57" class="edge">
<title>Node1&#45;&gt;Node98</title>
<path fill="none" stroke="midnightblue" d="M2224.45,-347.46C2283.06,-339.43 2372.28,-326.57 2458.68,-311.22"/>
<polygon fill="midnightblue" stroke="midnightblue" points="2459.42,-314.64 2468.65,-309.43 2458.19,-307.75 2459.42,-314.64"/>
</g>
<!-- Node99 -->
<g id="node46" class="node">
<title>Node99</title>
<g id="a_node46"><a xlink:href="wld__wps_8h.html" target="_top" xlink:title=" ">
<polygon fill="white" stroke="black" points="2495.19,-224.5 2495.19,-243.5 2563.19,-243.5 2563.19,-224.5 2495.19,-224.5"/>
<text text-anchor="middle" x="2529.19" y="-231.5" font-family="Helvetica,sans-Serif" font-size="10.00">wld_wps.h</text>
</a>
</g>
</g>
<!-- Node1&#45;&gt;Node99 -->
<g id="edge63" class="edge">
<title>Node1&#45;&gt;Node99</title>
<path fill="none" stroke="midnightblue" d="M2225.07,-354.05C2341.16,-349.9 2574.62,-338.23 2599.19,-311 2608.43,-300.77 2605.8,-292.09 2599.19,-280 2591.38,-265.68 2576.83,-255.24 2563.02,-248.04"/>
<polygon fill="midnightblue" stroke="midnightblue" points="2564.19,-244.72 2553.66,-243.56 2561.17,-251.03 2564.19,-244.72"/>
</g>
<!-- Node100 -->
<g id="node47" class="node">
<title>Node100</title>
<g id="a_node47"><a xlink:href="wld__util_8h.html" target="_top" xlink:title=" ">
<polygon fill="white" stroke="black" points="2118.19,-286 2118.19,-305 2202.19,-305 2202.19,-286 2118.19,-286"/>
<text text-anchor="middle" x="2160.19" y="-293" font-family="Helvetica,sans-Serif" font-size="10.00">wld/wld_util.h</text>
</a>
</g>
</g>
<!-- Node1&#45;&gt;Node100 -->
<g id="edge61" class="edge">
<title>Node1&#45;&gt;Node100</title>
<path fill="none" stroke="midnightblue" d="M2160.19,-347.48C2160.19,-339.08 2160.19,-325.98 2160.19,-315.16"/>
<polygon fill="midnightblue" stroke="midnightblue" points="2163.69,-315.01 2160.19,-305.01 2156.69,-315.01 2163.69,-315.01"/>
</g>
<!-- Node101 -->
<g id="node48" class="node">
<title>Node101</title>
<g id="a_node48"><a xlink:href="wld__endpoint_8h.html" target="_top" xlink:title=" ">
<polygon fill="white" stroke="black" points="2339.69,-286 2339.69,-305 2450.69,-305 2450.69,-286 2339.69,-286"/>
<text text-anchor="middle" x="2395.19" y="-293" font-family="Helvetica,sans-Serif" font-size="10.00">wld/wld_endpoint.h</text>
</a>
</g>
</g>
<!-- Node1&#45;&gt;Node101 -->
<g id="edge64" class="edge">
<title>Node1&#45;&gt;Node101</title>
<path fill="none" stroke="midnightblue" d="M2193.86,-347.48C2235.4,-336.96 2306.09,-319.06 2351.69,-307.51"/>
<polygon fill="midnightblue" stroke="midnightblue" points="2352.75,-310.86 2361.59,-305.01 2351.03,-304.07 2352.75,-310.86"/>
</g>
<!-- Node102 -->
<g id="node49" class="node">
<title>Node102</title>
<g id="a_node49"><a xlink:href="wifiGen__events_8h.html" target="_top" xlink:title=" ">
<polygon fill="white" stroke="black" points="2220.69,-286 2220.69,-305 2321.69,-305 2321.69,-286 2220.69,-286"/>
<text text-anchor="middle" x="2271.19" y="-293" font-family="Helvetica,sans-Serif" font-size="10.00">wifiGen_events.h</text>
</a>
</g>
</g>
<!-- Node1&#45;&gt;Node102 -->
<g id="edge67" class="edge">
<title>Node1&#45;&gt;Node102</title>
<path fill="none" stroke="midnightblue" d="M2176.1,-347.48C2194.48,-337.62 2224.95,-321.29 2246.44,-309.77"/>
<polygon fill="midnightblue" stroke="midnightblue" points="2248.16,-312.82 2255.32,-305.01 2244.85,-306.65 2248.16,-312.82"/>
</g>
<!-- Node103 -->
<g id="node50" class="node">
<title>Node103</title>
<g id="a_node50"><a xlink:href="wifiGen__fsm_8h.html" target="_top" xlink:title=" ">
<polygon fill="white" stroke="black" points="2786.19,-286 2786.19,-305 2872.19,-305 2872.19,-286 2786.19,-286"/>
<text text-anchor="middle" x="2829.19" y="-293" font-family="Helvetica,sans-Serif" font-size="10.00">wifiGen_fsm.h</text>
</a>
</g>
</g>
<!-- Node1&#45;&gt;Node103 -->
<g id="edge69" class="edge">
<title>Node1&#45;&gt;Node103</title>
<path fill="none" stroke="midnightblue" d="M2225.11,-355.5C2338.13,-353.69 2578,-345.68 2777.19,-311 2782.26,-310.12 2787.54,-308.95 2792.71,-307.66"/>
<polygon fill="midnightblue" stroke="midnightblue" points="2793.68,-311.02 2802.44,-305.06 2791.87,-304.26 2793.68,-311.02"/>
</g>
<!-- Node3 -->
<g id="node3" class="node">
<title>Node3</title>
<g id="a_node3"><a xlink:title=" ">
<polygon fill="white" stroke="#bfbfbf" points="122.19,-56.5 122.19,-75.5 184.19,-75.5 184.19,-56.5 122.19,-56.5"/>
<text text-anchor="middle" x="153.19" y="-63.5" font-family="Helvetica,sans-Serif" font-size="10.00">stdbool.h</text>
</a>
</g>
</g>
<!-- Node2&#45;&gt;Node3 -->
<g id="edge2" class="edge">
<title>Node2&#45;&gt;Node3</title>
<path fill="none" stroke="midnightblue" d="M2049.42,-177.17C1807.87,-178.34 268.28,-183.74 186.19,-132 170,-121.79 161.42,-100.95 157.11,-85.61"/>
<polygon fill="midnightblue" stroke="midnightblue" points="160.45,-84.52 154.68,-75.64 153.65,-86.18 160.45,-84.52"/>
</g>
<!-- Node4 -->
<g id="node4" class="node">
<title>Node4</title>
<g id="a_node4"><a xlink:title=" ">
<polygon fill="white" stroke="#bfbfbf" points="395.69,-0.5 395.69,-19.5 448.69,-19.5 448.69,-0.5 395.69,-0.5"/>
<text text-anchor="middle" x="422.19" y="-7.5" font-family="Helvetica,sans-Serif" font-size="10.00">stdint.h</text>
</a>
</g>
</g>
<!-- Node2&#45;&gt;Node4 -->
<g id="edge3" class="edge">
<title>Node2&#45;&gt;Node4</title>
<path fill="none" stroke="midnightblue" d="M2049.46,-176.69C1824,-174.4 472.56,-159.58 441.19,-132 412.41,-106.69 414.74,-57.04 418.64,-29.87"/>
<polygon fill="midnightblue" stroke="midnightblue" points="422.14,-30.17 420.32,-19.73 415.23,-29.03 422.14,-30.17"/>
</g>
<!-- Node5 -->
<g id="node5" class="node">
<title>Node5</title>
<g id="a_node5"><a xlink:title=" ">
<polygon fill="white" stroke="#bfbfbf" points="450.19,-112.5 450.19,-131.5 560.19,-131.5 560.19,-112.5 450.19,-112.5"/>
<text text-anchor="middle" x="505.19" y="-119.5" font-family="Helvetica,sans-Serif" font-size="10.00">swl/swl_common.h</text>
</a>
</g>
</g>
<!-- Node2&#45;&gt;Node5 -->
<g id="edge4" class="edge">
<title>Node2&#45;&gt;Node5</title>
<path fill="none" stroke="midnightblue" d="M2049.4,-176.53C1861.37,-173.68 892.56,-158.01 570.57,-131.99"/>
<polygon fill="midnightblue" stroke="midnightblue" points="570.56,-128.48 560.31,-131.14 569.98,-135.46 570.56,-128.48"/>
</g>
<!-- Node6 -->
<g id="node6" class="node">
<title>Node6</title>
<g id="a_node6"><a xlink:title=" ">
<polygon fill="white" stroke="#bfbfbf" points="578.19,-112.5 578.19,-131.5 714.19,-131.5 714.19,-112.5 578.19,-112.5"/>
<text text-anchor="middle" x="646.19" y="-119.5" font-family="Helvetica,sans-Serif" font-size="10.00">swla/swla_commonLib.h</text>
</a>
</g>
</g>
<!-- Node2&#45;&gt;Node6 -->
<g id="edge5" class="edge">
<title>Node2&#45;&gt;Node6</title>
<path fill="none" stroke="midnightblue" d="M2049.56,-176.92C1901.35,-176.36 1260.68,-171.69 724.86,-132.06"/>
<polygon fill="midnightblue" stroke="midnightblue" points="724.83,-128.55 714.6,-131.29 724.31,-135.53 724.83,-128.55"/>
</g>
<!-- Node7 -->
<g id="node7" class="node">
<title>Node7</title>
<g id="a_node7"><a xlink:title=" ">
<polygon fill="white" stroke="#bfbfbf" points="732.19,-112.5 732.19,-131.5 820.19,-131.5 820.19,-112.5 732.19,-112.5"/>
<text text-anchor="middle" x="776.19" y="-119.5" font-family="Helvetica,sans-Serif" font-size="10.00">swl/swl_uuid.h</text>
</a>
</g>
</g>
<!-- Node2&#45;&gt;Node7 -->
<g id="edge6" class="edge">
<title>Node2&#45;&gt;Node7</title>
<path fill="none" stroke="midnightblue" d="M2049.51,-176.43C1881.92,-173.33 1096.69,-157.72 830.39,-131.95"/>
<polygon fill="midnightblue" stroke="midnightblue" points="830.68,-128.46 820.38,-130.95 829.98,-135.43 830.68,-128.46"/>
</g>
<!-- Node8 -->
<g id="node8" class="node">
<title>Node8</title>
<g id="a_node8"><a xlink:title=" ">
<polygon fill="white" stroke="#bfbfbf" points="838.19,-112.5 838.19,-131.5 990.19,-131.5 990.19,-112.5 838.19,-112.5"/>
<text text-anchor="middle" x="914.19" y="-119.5" font-family="Helvetica,sans-Serif" font-size="10.00">swla/swla_radioStandards.h</text>
</a>
</g>
</g>
<!-- Node2&#45;&gt;Node8 -->
<g id="edge7" class="edge">
<title>Node2&#45;&gt;Node8</title>
<path fill="none" stroke="midnightblue" d="M2049.29,-176.42C1919.92,-173.9 1421.69,-162.71 1000.87,-132.08"/>
<polygon fill="midnightblue" stroke="midnightblue" points="1000.86,-128.57 990.63,-131.33 1000.35,-135.55 1000.86,-128.57"/>
</g>
<!-- Node9 -->
<g id="node9" class="node">
<title>Node9</title>
<g id="a_node9"><a xlink:title=" ">
<polygon fill="white" stroke="#bfbfbf" points="28.69,-0.5 28.69,-19.5 129.69,-19.5 129.69,-0.5 28.69,-0.5"/>
<text text-anchor="middle" x="79.19" y="-7.5" font-family="Helvetica,sans-Serif" font-size="10.00">swla/swla_time.h</text>
</a>
</g>
</g>
<!-- Node2&#45;&gt;Node9 -->
<g id="edge8" class="edge">
<title>Node2&#45;&gt;Node9</title>
<path fill="none" stroke="midnightblue" d="M2049.69,-176.92C1792.56,-176.23 47.47,-170.1 10.19,-132 -21.21,-99.91 29.24,-50.72 59.32,-26.11"/>
<polygon fill="midnightblue" stroke="midnightblue" points="61.89,-28.55 67.54,-19.58 57.53,-23.06 61.89,-28.55"/>
</g>
<!-- Node10 -->
<g id="node10" class="node">
<title>Node10</title>
<g id="a_node10"><a xlink:title=" ">
<polygon fill="white" stroke="#bfbfbf" points="1008.69,-112.5 1008.69,-131.5 1137.69,-131.5 1137.69,-112.5 1008.69,-112.5"/>
<text text-anchor="middle" x="1073.19" y="-119.5" font-family="Helvetica,sans-Serif" font-size="10.00">swla/swla_time_spec.h</text>
</a>
</g>
</g>
<!-- Node2&#45;&gt;Node10 -->
<g id="edge9" class="edge">
<title>Node2&#45;&gt;Node10</title>
<path fill="none" stroke="midnightblue" d="M2049.69,-176.32C1932.25,-173.59 1508.6,-162.18 1147.86,-131.98"/>
<polygon fill="midnightblue" stroke="midnightblue" points="1148,-128.48 1137.74,-131.13 1147.41,-135.46 1148,-128.48"/>
</g>
<!-- Node11 -->
<g id="node11" class="node">
<title>Node11</title>
<g id="a_node11"><a xlink:title=" ">
<polygon fill="white" stroke="#bfbfbf" points="1156.19,-112.5 1156.19,-131.5 1250.19,-131.5 1250.19,-112.5 1156.19,-112.5"/>
<text text-anchor="middle" x="1203.19" y="-119.5" font-family="Helvetica,sans-Serif" font-size="10.00">swla/swla_oui.h</text>
</a>
</g>
</g>
<!-- Node2&#45;&gt;Node11 -->
<g id="edge10" class="edge">
<title>Node2&#45;&gt;Node11</title>
<path fill="none" stroke="midnightblue" d="M2049.36,-176.46C1940.62,-174.34 1573.78,-165.14 1260.39,-132.01"/>
<polygon fill="midnightblue" stroke="midnightblue" points="1260.51,-128.5 1250.2,-130.92 1259.77,-135.46 1260.51,-128.5"/>
</g>
<!-- Node12 -->
<g id="node12" class="node">
<title>Node12</title>
<g id="a_node12"><a xlink:title=" ">
<polygon fill="white" stroke="#bfbfbf" points="1268.19,-112.5 1268.19,-131.5 1396.19,-131.5 1396.19,-112.5 1268.19,-112.5"/>
<text text-anchor="middle" x="1332.19" y="-119.5" font-family="Helvetica,sans-Serif" font-size="10.00">swla/swla_delayExec.h</text>
</a>
</g>
</g>
<!-- Node2&#45;&gt;Node12 -->
<g id="edge11" class="edge">
<title>Node2&#45;&gt;Node12</title>
<path fill="none" stroke="midnightblue" d="M2049.47,-175.52C1953.98,-170.94 1660.72,-155.89 1406.44,-132.07"/>
<polygon fill="midnightblue" stroke="midnightblue" points="1406.55,-128.56 1396.27,-131.11 1405.89,-135.53 1406.55,-128.56"/>
</g>
<!-- Node13 -->
<g id="node13" class="node">
<title>Node13</title>
<g id="a_node13"><a xlink:title=" ">
<polygon fill="white" stroke="#bfbfbf" points="1414.69,-112.5 1414.69,-131.5 1533.69,-131.5 1533.69,-112.5 1414.69,-112.5"/>
<text text-anchor="middle" x="1474.19" y="-119.5" font-family="Helvetica,sans-Serif" font-size="10.00">swla/swla_function.h</text>
</a>
</g>
</g>
<!-- Node2&#45;&gt;Node13 -->
<g id="edge12" class="edge">
<title>Node2&#45;&gt;Node13</title>
<path fill="none" stroke="midnightblue" d="M2049.55,-174.89C1967.72,-169.34 1742.17,-153.29 1543.9,-132.14"/>
<polygon fill="midnightblue" stroke="midnightblue" points="1544.2,-128.65 1533.88,-131.07 1543.45,-135.61 1544.2,-128.65"/>
</g>
<!-- Node14 -->
<g id="node14" class="node">
<title>Node14</title>
<g id="a_node14"><a xlink:title=" ">
<polygon fill="white" stroke="#bfbfbf" points="1551.69,-112.5 1551.69,-131.5 1692.69,-131.5 1692.69,-112.5 1551.69,-112.5"/>
<text text-anchor="middle" x="1622.19" y="-119.5" font-family="Helvetica,sans-Serif" font-size="10.00">swl/swl_usp_cmdStatus.h</text>
</a>
</g>
</g>
<!-- Node2&#45;&gt;Node14 -->
<g id="edge13" class="edge">
<title>Node2&#45;&gt;Node14</title>
<path fill="none" stroke="midnightblue" d="M2049.65,-173.29C1978.88,-164.96 1805.67,-144.58 1702.76,-132.48"/>
<polygon fill="midnightblue" stroke="midnightblue" points="1703.06,-128.99 1692.72,-131.3 1702.25,-135.94 1703.06,-128.99"/>
</g>
<!-- Node15 -->
<g id="node15" class="node">
<title>Node15</title>
<g id="a_node15"><a xlink:title=" ">
<polygon fill="white" stroke="#bfbfbf" points="1711.19,-112.5 1711.19,-131.5 1797.19,-131.5 1797.19,-112.5 1711.19,-112.5"/>
<text text-anchor="middle" x="1754.19" y="-119.5" font-family="Helvetica,sans-Serif" font-size="10.00">swl/swl_wps.h</text>
</a>
</g>
</g>
<!-- Node2&#45;&gt;Node15 -->
<g id="edge14" class="edge">
<title>Node2&#45;&gt;Node15</title>
<path fill="none" stroke="midnightblue" d="M2049.42,-171.9C1999.95,-163.93 1901.26,-147.96 1807.28,-132.17"/>
<polygon fill="midnightblue" stroke="midnightblue" points="1807.76,-128.7 1797.32,-130.5 1806.6,-135.61 1807.76,-128.7"/>
</g>
<!-- Node16 -->
<g id="node16" class="node">
<title>Node16</title>
<g id="a_node16"><a xlink:title=" ">
<polygon fill="white" stroke="#bfbfbf" points="1815.19,-112.5 1815.19,-131.5 1919.19,-131.5 1919.19,-112.5 1815.19,-112.5"/>
<text text-anchor="middle" x="1867.19" y="-119.5" font-family="Helvetica,sans-Serif" font-size="10.00">swl/swl_security.h</text>
</a>
</g>
</g>
<!-- Node2&#45;&gt;Node16 -->
<g id="edge15" class="edge">
<title>Node2&#45;&gt;Node16</title>
<path fill="none" stroke="midnightblue" d="M2049.62,-169.03C2012.88,-159.76 1952.02,-144.4 1910.79,-134"/>
<polygon fill="midnightblue" stroke="midnightblue" points="1911.57,-130.59 1901.02,-131.54 1909.86,-137.38 1911.57,-130.59"/>
</g>
<!-- Node17 -->
<g id="node17" class="node">
<title>Node17</title>
<g id="a_node17"><a xlink:title=" ">
<polygon fill="white" stroke="#bfbfbf" points="1937.69,-112.5 1937.69,-131.5 2020.69,-131.5 2020.69,-112.5 1937.69,-112.5"/>
<text text-anchor="middle" x="1979.19" y="-119.5" font-family="Helvetica,sans-Serif" font-size="10.00">amxc/amxc.h</text>
</a>
</g>
</g>
<!-- Node2&#45;&gt;Node17 -->
<g id="edge16" class="edge">
<title>Node2&#45;&gt;Node17</title>
<path fill="none" stroke="midnightblue" d="M2064.81,-168.32C2048.52,-159.7 2023.33,-146.36 2004.48,-136.39"/>
<polygon fill="midnightblue" stroke="midnightblue" points="2006.02,-133.24 1995.54,-131.65 2002.74,-139.43 2006.02,-133.24"/>
</g>
<!-- Node18 -->
<g id="node18" class="node">
<title>Node18</title>
<g id="a_node18"><a xlink:title=" ">
<polygon fill="white" stroke="#bfbfbf" points="2039.19,-112.5 2039.19,-131.5 2123.19,-131.5 2123.19,-112.5 2039.19,-112.5"/>
<text text-anchor="middle" x="2081.19" y="-119.5" font-family="Helvetica,sans-Serif" font-size="10.00">amxp/amxp.h</text>
</a>
</g>
</g>
<!-- Node2&#45;&gt;Node18 -->
<g id="edge17" class="edge">
<title>Node2&#45;&gt;Node18</title>
<path fill="none" stroke="midnightblue" d="M2081.19,-168.08C2081.19,-161.01 2081.19,-150.86 2081.19,-141.99"/>
<polygon fill="midnightblue" stroke="midnightblue" points="2084.69,-141.75 2081.19,-131.75 2077.69,-141.75 2084.69,-141.75"/>
</g>
<!-- Node19 -->
<g id="node19" class="node">
<title>Node19</title>
<g id="a_node19"><a xlink:title=" ">
<polygon fill="white" stroke="#bfbfbf" points="2141.19,-112.5 2141.19,-131.5 2281.19,-131.5 2281.19,-112.5 2141.19,-112.5"/>
<text text-anchor="middle" x="2211.19" y="-119.5" font-family="Helvetica,sans-Serif" font-size="10.00">amxd/amxd_parameter.h</text>
</a>
</g>
</g>
<!-- Node2&#45;&gt;Node19 -->
<g id="edge18" class="edge">
<title>Node2&#45;&gt;Node19</title>
<path fill="none" stroke="midnightblue" d="M2101.79,-168.44C2123.19,-159.56 2156.88,-145.56 2181.22,-135.45"/>
<polygon fill="midnightblue" stroke="midnightblue" points="2182.8,-138.58 2190.69,-131.52 2180.11,-132.12 2182.8,-138.58"/>
</g>
<!-- Node20 -->
<g id="node20" class="node">
<title>Node20</title>
<g id="a_node20"><a xlink:title=" ">
<polygon fill="white" stroke="#bfbfbf" points="2299.69,-112.5 2299.69,-131.5 2418.69,-131.5 2418.69,-112.5 2299.69,-112.5"/>
<text text-anchor="middle" x="2359.19" y="-119.5" font-family="Helvetica,sans-Serif" font-size="10.00">amxd/amxd_action.h</text>
</a>
</g>
</g>
<!-- Node2&#45;&gt;Node20 -->
<g id="edge19" class="edge">
<title>Node2&#45;&gt;Node20</title>
<path fill="none" stroke="midnightblue" d="M2112.81,-170.86C2159.67,-161.76 2248.14,-144.57 2305.33,-133.46"/>
<polygon fill="midnightblue" stroke="midnightblue" points="2306.13,-136.87 2315.28,-131.53 2304.8,-130 2306.13,-136.87"/>
</g>
<!-- Node21 -->
<g id="node21" class="node">
<title>Node21</title>
<g id="a_node21"><a xlink:title=" ">
<polygon fill="white" stroke="#bfbfbf" points="2436.69,-112.5 2436.69,-131.5 2611.69,-131.5 2611.69,-112.5 2436.69,-112.5"/>
<text text-anchor="middle" x="2524.19" y="-119.5" font-family="Helvetica,sans-Serif" font-size="10.00">amxd/amxd_object_parameter.h</text>
</a>
</g>
</g>
<!-- Node2&#45;&gt;Node21 -->
<g id="edge20" class="edge">
<title>Node2&#45;&gt;Node21</title>
<path fill="none" stroke="midnightblue" d="M2112.7,-173.16C2181.11,-164.82 2345.08,-144.83 2444.14,-132.76"/>
<polygon fill="midnightblue" stroke="midnightblue" points="2444.61,-136.23 2454.11,-131.54 2443.76,-129.28 2444.61,-136.23"/>
</g>
<!-- Node22 -->
<g id="node22" class="node">
<title>Node22</title>
<g id="a_node22"><a xlink:title=" ">
<polygon fill="white" stroke="#bfbfbf" points="2630.19,-112.5 2630.19,-131.5 2782.19,-131.5 2782.19,-112.5 2630.19,-112.5"/>
<text text-anchor="middle" x="2706.19" y="-119.5" font-family="Helvetica,sans-Serif" font-size="10.00">amxd/amxd_object_event.h</text>
</a>
</g>
</g>
<!-- Node2&#45;&gt;Node22 -->
<g id="edge21" class="edge">
<title>Node2&#45;&gt;Node22</title>
<path fill="none" stroke="midnightblue" d="M2112.87,-174.61C2194.78,-168.37 2420.6,-150.85 2619.69,-132.12"/>
<polygon fill="midnightblue" stroke="midnightblue" points="2620.12,-135.6 2629.75,-131.18 2619.46,-128.63 2620.12,-135.6"/>
</g>
<!-- Node23 -->
<g id="node23" class="node">
<title>Node23</title>
<g id="a_node23"><a xlink:title=" ">
<polygon fill="white" stroke="#bfbfbf" points="2800.69,-112.5 2800.69,-131.5 2929.69,-131.5 2929.69,-112.5 2800.69,-112.5"/>
<text text-anchor="middle" x="2865.19" y="-119.5" font-family="Helvetica,sans-Serif" font-size="10.00">amxd/amxd_function.h</text>
</a>
</g>
</g>
<!-- Node2&#45;&gt;Node23 -->
<g id="edge22" class="edge">
<title>Node2&#45;&gt;Node23</title>
<path fill="none" stroke="midnightblue" d="M2112.74,-175.65C2211.15,-171.31 2521.52,-156.56 2790.3,-132.02"/>
<polygon fill="midnightblue" stroke="midnightblue" points="2791.01,-135.47 2800.64,-131.07 2790.37,-128.5 2791.01,-135.47"/>
</g>
<!-- Node24 -->
<g id="node24" class="node">
<title>Node24</title>
<g id="a_node24"><a xlink:title=" ">
<polygon fill="white" stroke="#bfbfbf" points="2947.69,-112.5 2947.69,-131.5 3116.69,-131.5 3116.69,-112.5 2947.69,-112.5"/>
<text text-anchor="middle" x="3032.19" y="-119.5" font-family="Helvetica,sans-Serif" font-size="10.00">amxd/amxd_object_hierarchy.h</text>
</a>
</g>
</g>
<!-- Node2&#45;&gt;Node24 -->
<g id="edge23" class="edge">
<title>Node2&#45;&gt;Node24</title>
<path fill="none" stroke="midnightblue" d="M2112.78,-175.85C2224.1,-171.68 2608.78,-156.36 2937.37,-132.11"/>
<polygon fill="midnightblue" stroke="midnightblue" points="2937.85,-135.58 2947.56,-131.35 2937.33,-128.6 2937.85,-135.58"/>
</g>
<!-- Node25 -->
<g id="node25" class="node">
<title>Node25</title>
<g id="a_node25"><a xlink:title=" ">
<polygon fill="white" stroke="#bfbfbf" points="3134.69,-112.5 3134.69,-131.5 3253.69,-131.5 3253.69,-112.5 3134.69,-112.5"/>
<text text-anchor="middle" x="3194.19" y="-119.5" font-family="Helvetica,sans-Serif" font-size="10.00">amxd/amxd_object.h</text>
</a>
</g>
</g>
<!-- Node2&#45;&gt;Node25 -->
<g id="edge24" class="edge">
<title>Node2&#45;&gt;Node25</title>
<path fill="none" stroke="midnightblue" d="M2112.89,-176.66C2239.24,-175.08 2719.25,-167.05 3124.37,-132.09"/>
<polygon fill="midnightblue" stroke="midnightblue" points="3124.86,-135.56 3134.52,-131.2 3124.26,-128.58 3124.86,-135.56"/>
</g>
<!-- Node26 -->
<g id="node26" class="node">
<title>Node26</title>
<g id="a_node26"><a xlink:title=" ">
<polygon fill="white" stroke="#bfbfbf" points="3271.69,-112.5 3271.69,-131.5 3376.69,-131.5 3376.69,-112.5 3271.69,-112.5"/>
<text text-anchor="middle" x="3324.19" y="-119.5" font-family="Helvetica,sans-Serif" font-size="10.00">amxd/amxd_dm.h</text>
</a>
</g>
</g>
<!-- Node2&#45;&gt;Node26 -->
<g id="edge25" class="edge">
<title>Node2&#45;&gt;Node26</title>
<path fill="none" stroke="midnightblue" d="M2112.78,-177.05C2248.97,-177.02 2799.56,-174.19 3261.46,-132.06"/>
<polygon fill="midnightblue" stroke="midnightblue" points="3262.03,-135.52 3271.67,-131.12 3261.39,-128.55 3262.03,-135.52"/>
</g>
<!-- Node27 -->
<g id="node27" class="node">
<title>Node27</title>
<g id="a_node27"><a xlink:title=" ">
<polygon fill="white" stroke="#bfbfbf" points="3395.19,-112.5 3395.19,-131.5 3539.19,-131.5 3539.19,-112.5 3395.19,-112.5"/>
<text text-anchor="middle" x="3467.19" y="-119.5" font-family="Helvetica,sans-Serif" font-size="10.00">amxd/amxd_transaction.h</text>
</a>
</g>
</g>
<!-- Node2&#45;&gt;Node27 -->
<g id="edge26" class="edge">
<title>Node2&#45;&gt;Node27</title>
<path fill="none" stroke="midnightblue" d="M2113.04,-176.8C2258.09,-175.68 2871.01,-168.95 3384.59,-132.06"/>
<polygon fill="midnightblue" stroke="midnightblue" points="3385.07,-135.53 3394.8,-131.32 3384.57,-128.55 3385.07,-135.53"/>
</g>
<!-- Node28 -->
<g id="node28" class="node">
<title>Node28</title>
<g id="a_node28"><a xlink:title=" ">
<polygon fill="white" stroke="#bfbfbf" points="3557.19,-112.5 3557.19,-131.5 3673.19,-131.5 3673.19,-112.5 3557.19,-112.5"/>
<text text-anchor="middle" x="3615.19" y="-119.5" font-family="Helvetica,sans-Serif" font-size="10.00">amxb/amxb_types.h</text>
</a>
</g>
</g>
<!-- Node2&#45;&gt;Node28 -->
<g id="edge27" class="edge">
<title>Node2&#45;&gt;Node28</title>
<path fill="none" stroke="midnightblue" d="M2112.75,-177.23C2267.89,-178.13 2965.39,-179.26 3546.86,-132.01"/>
<polygon fill="midnightblue" stroke="midnightblue" points="3547.45,-135.48 3557.13,-131.17 3546.88,-128.5 3547.45,-135.48"/>
</g>
<!-- Node29 -->
<g id="node29" class="node">
<title>Node29</title>
<g id="a_node29"><a xlink:title=" ">
<polygon fill="white" stroke="#bfbfbf" points="3691.19,-112.5 3691.19,-131.5 3827.19,-131.5 3827.19,-112.5 3691.19,-112.5"/>
<text text-anchor="middle" x="3759.19" y="-119.5" font-family="Helvetica,sans-Serif" font-size="10.00">amxb/amxb_operators.h</text>
</a>
</g>
</g>
<!-- Node2&#45;&gt;Node29 -->
<g id="edge28" class="edge">
<title>Node2&#45;&gt;Node29</title>
<path fill="none" stroke="midnightblue" d="M2112.84,-177.15C2276.46,-177.7 3042.96,-177.65 3680.47,-132.06"/>
<polygon fill="midnightblue" stroke="midnightblue" points="3681.07,-135.52 3690.79,-131.31 3680.56,-128.54 3681.07,-135.52"/>
</g>
<!-- Node30 -->
<g id="node30" class="node">
<title>Node30</title>
<g id="a_node30"><a xlink:title=" ">
<polygon fill="white" stroke="#bfbfbf" points="3845.19,-112.5 3845.19,-131.5 3957.19,-131.5 3957.19,-112.5 3845.19,-112.5"/>
<text text-anchor="middle" x="3901.19" y="-119.5" font-family="Helvetica,sans-Serif" font-size="10.00">amxb/amxb_error.h</text>
</a>
</g>
</g>
<!-- Node2&#45;&gt;Node30 -->
<g id="edge29" class="edge">
<title>Node2&#45;&gt;Node30</title>
<path fill="none" stroke="midnightblue" d="M2112.91,-176.67C2318.17,-174.48 3461.56,-161.17 3834.85,-131.99"/>
<polygon fill="midnightblue" stroke="midnightblue" points="3835.18,-135.48 3844.87,-131.19 3834.62,-128.5 3835.18,-135.48"/>
</g>
<!-- Node31 -->
<g id="node31" class="node">
<title>Node31</title>
<g id="a_node31"><a xlink:title=" ">
<polygon fill="white" stroke="#bfbfbf" points="3975.69,-112.5 3975.69,-131.5 4058.69,-131.5 4058.69,-112.5 3975.69,-112.5"/>
<text text-anchor="middle" x="4017.19" y="-119.5" font-family="Helvetica,sans-Serif" font-size="10.00">amxo/amxo.h</text>
</a>
</g>
</g>
<!-- Node2&#45;&gt;Node31 -->
<g id="edge30" class="edge">
<title>Node2&#45;&gt;Node31</title>
<path fill="none" stroke="midnightblue" d="M2112.81,-176.9C2326.6,-176.12 3564.08,-170.02 3965.33,-131.88"/>
<polygon fill="midnightblue" stroke="midnightblue" points="3965.9,-135.34 3975.52,-130.88 3965.22,-128.37 3965.9,-135.34"/>
</g>
<!-- Node32 -->
<g id="node32" class="node">
<title>Node32</title>
<g id="a_node32"><a xlink:title=" ">
<polygon fill="white" stroke="#bfbfbf" points="4076.69,-112.5 4076.69,-131.5 4191.69,-131.5 4191.69,-112.5 4076.69,-112.5"/>
<text text-anchor="middle" x="4134.19" y="-119.5" font-family="Helvetica,sans-Serif" font-size="10.00">amxo/amxo_types.h</text>
</a>
</g>
</g>
<!-- Node2&#45;&gt;Node32 -->
<g id="edge31" class="edge">
<title>Node2&#45;&gt;Node32</title>
<path fill="none" stroke="midnightblue" d="M2112.71,-176.77C2332.82,-175.13 3643.73,-164.13 4066.52,-132.02"/>
<polygon fill="midnightblue" stroke="midnightblue" points="4066.94,-135.5 4076.64,-131.24 4066.4,-128.52 4066.94,-135.5"/>
</g>
<!-- Node33 -->
<g id="node33" class="node">
<title>Node33</title>
<g id="a_node33"><a xlink:href="wld__types_8h.html" target="_top" xlink:title=" ">
<polygon fill="white" stroke="red" points="284.69,-56.5 284.69,-75.5 359.69,-75.5 359.69,-56.5 284.69,-56.5"/>
<text text-anchor="middle" x="322.19" y="-63.5" font-family="Helvetica,sans-Serif" font-size="10.00">wld_types.h</text>
</a>
</g>
</g>
<!-- Node2&#45;&gt;Node33 -->
<g id="edge32" class="edge">
<title>Node2&#45;&gt;Node33</title>
<path fill="none" stroke="midnightblue" d="M2049.48,-176.7C1825.48,-174.49 488.57,-160.17 408.19,-132 379.92,-122.09 353.37,-99.16 337.45,-83.36"/>
<polygon fill="midnightblue" stroke="midnightblue" points="339.63,-80.58 330.15,-75.86 334.62,-85.46 339.63,-80.58"/>
</g>
<!-- Node36 -->
<g id="node34" class="node">
<title>Node36</title>
<g id="a_node34"><a xlink:href="wld__channel__types_8h.html" target="_top" xlink:title=" ">
<polygon fill="white" stroke="red" points="19.69,-112.5 19.69,-131.5 138.69,-131.5 138.69,-112.5 19.69,-112.5"/>
<text text-anchor="middle" x="79.19" y="-119.5" font-family="Helvetica,sans-Serif" font-size="10.00">wld_channel_types.h</text>
</a>
</g>
</g>
<!-- Node2&#45;&gt;Node36 -->
<g id="edge35" class="edge">
<title>Node2&#45;&gt;Node36</title>
<path fill="none" stroke="midnightblue" d="M2049.58,-176.69C1831.21,-174.45 543.91,-160.25 153.19,-132 151.89,-131.91 150.57,-131.8 149.24,-131.7"/>
<polygon fill="midnightblue" stroke="midnightblue" points="149.19,-128.18 138.92,-130.77 148.57,-135.15 149.19,-128.18"/>
</g>
<!-- Node38 -->
<g id="node35" class="node">
<title>Node38</title>
<g id="a_node35"><a xlink:href="wld__bgdfs_8h.html" target="_top" xlink:title=" ">
<polygon fill="white" stroke="black" points="195.69,-112.5 195.69,-131.5 270.69,-131.5 270.69,-112.5 195.69,-112.5"/>
<text text-anchor="middle" x="233.19" y="-119.5" font-family="Helvetica,sans-Serif" font-size="10.00">wld_bgdfs.h</text>
</a>
</g>
</g>
<!-- Node2&#45;&gt;Node38 -->
<g id="edge38" class="edge">
<title>Node2&#45;&gt;Node38</title>
<path fill="none" stroke="midnightblue" d="M2049.63,-176.94C1841.48,-176.42 662.97,-171.82 280.75,-131.96"/>
<polygon fill="midnightblue" stroke="midnightblue" points="281.09,-128.47 270.77,-130.89 280.34,-135.43 281.09,-128.47"/>
</g>
<!-- Node39 -->
<g id="node36" class="node">
<title>Node39</title>
<g id="a_node36"><a xlink:href="wld__rad__delayMgr_8h.html" target="_top" xlink:title=" ">
<polygon fill="white" stroke="black" points="4210.19,-112.5 4210.19,-131.5 4324.19,-131.5 4324.19,-112.5 4210.19,-112.5"/>
<text text-anchor="middle" x="4267.19" y="-119.5" font-family="Helvetica,sans-Serif" font-size="10.00">wld_rad_delayMgr.h</text>
</a>
</g>
</g>
<!-- Node2&#45;&gt;Node39 -->
<g id="edge40" class="edge">
<title>Node2&#45;&gt;Node39</title>
<path fill="none" stroke="midnightblue" d="M2112.72,-176.81C2342.57,-175.43 3762.11,-165.78 4192.19,-132 4194.72,-131.8 4197.29,-131.57 4199.89,-131.32"/>
<polygon fill="midnightblue" stroke="midnightblue" points="4200.46,-134.78 4210.03,-130.22 4199.71,-127.82 4200.46,-134.78"/>
</g>
<!-- Node40 -->
<g id="node37" class="node">
<title>Node40</title>
<g id="a_node37"><a xlink:href="wld__fsm_8h.html" target="_top" xlink:title=" ">
<polygon fill="white" stroke="black" points="288.69,-112.5 288.69,-131.5 355.69,-131.5 355.69,-112.5 288.69,-112.5"/>
<text text-anchor="middle" x="322.19" y="-119.5" font-family="Helvetica,sans-Serif" font-size="10.00">wld_fsm.h</text>
</a>
</g>
</g>
<!-- Node2&#45;&gt;Node40 -->
<g id="edge42" class="edge">
<title>Node2&#45;&gt;Node40</title>
<path fill="none" stroke="midnightblue" d="M2049.6,-176.86C1845.76,-175.82 713.88,-168.51 370.19,-132 368.89,-131.86 367.57,-131.71 366.24,-131.54"/>
<polygon fill="midnightblue" stroke="midnightblue" points="366.33,-128.01 355.92,-130.02 365.31,-134.94 366.33,-128.01"/>
</g>
<!-- Node41 -->
<g id="node38" class="node">
<title>Node41</title>
<g id="a_node38"><a xlink:href="wld__sensing_8h.html" target="_top" xlink:title=" ">
<polygon fill="white" stroke="black" points="4342.19,-112.5 4342.19,-131.5 4428.19,-131.5 4428.19,-112.5 4342.19,-112.5"/>
<text text-anchor="middle" x="4385.19" y="-119.5" font-family="Helvetica,sans-Serif" font-size="10.00">wld_sensing.h</text>
</a>
</g>
</g>
<!-- Node2&#45;&gt;Node41 -->
<g id="edge44" class="edge">
<title>Node2&#45;&gt;Node41</title>
<path fill="none" stroke="midnightblue" d="M2112.9,-177.03C2351.47,-177.12 3866.81,-175.9 4324.19,-132 4326.71,-131.76 4329.28,-131.47 4331.89,-131.13"/>
<polygon fill="midnightblue" stroke="midnightblue" points="4332.61,-134.57 4342.02,-129.69 4331.63,-127.63 4332.61,-134.57"/>
</g>
<!-- Node33&#45;&gt;Node4 -->
<g id="edge33" class="edge">
<title>Node33&#45;&gt;Node4</title>
<path fill="none" stroke="midnightblue" d="M338.26,-56.32C354.15,-47.74 378.7,-34.49 397.15,-24.52"/>
<polygon fill="midnightblue" stroke="midnightblue" points="399.03,-27.49 406.17,-19.65 395.71,-21.33 399.03,-27.49"/>
</g>
<!-- Node33&#45;&gt;Node9 -->
<g id="edge34" class="edge">
<title>Node33&#45;&gt;Node9</title>
<path fill="none" stroke="midnightblue" d="M284.49,-56.62C242.27,-47.24 173.71,-32 127.56,-21.75"/>
<polygon fill="midnightblue" stroke="midnightblue" points="128.31,-18.33 117.79,-19.58 126.79,-25.16 128.31,-18.33"/>
</g>
<!-- Node36&#45;&gt;Node3 -->
<g id="edge36" class="edge">
<title>Node36&#45;&gt;Node3</title>
<path fill="none" stroke="midnightblue" d="M91.08,-112.32C102.34,-104.11 119.48,-91.6 132.9,-81.81"/>
<polygon fill="midnightblue" stroke="midnightblue" points="135.07,-84.56 141.09,-75.83 130.95,-78.9 135.07,-84.56"/>
</g>
<!-- Node36&#45;&gt;Node9 -->
<g id="edge37" class="edge">
<title>Node36&#45;&gt;Node9</title>
<path fill="none" stroke="midnightblue" d="M79.19,-112.37C79.19,-94.62 79.19,-53.67 79.19,-29.6"/>
<polygon fill="midnightblue" stroke="midnightblue" points="82.69,-29.59 79.19,-19.59 75.69,-29.59 82.69,-29.59"/>
</g>
<!-- Node38&#45;&gt;Node33 -->
<g id="edge39" class="edge">
<title>Node38&#45;&gt;Node33</title>
<path fill="none" stroke="midnightblue" d="M247.49,-112.32C261.38,-103.9 282.69,-90.97 299,-81.07"/>
<polygon fill="midnightblue" stroke="midnightblue" points="301.2,-83.83 307.93,-75.65 297.57,-77.85 301.2,-83.83"/>
</g>
<!-- Node39&#45;&gt;Node2 -->
<g id="edge41" class="edge">
<title>Node39&#45;&gt;Node2</title>
<path fill="none" stroke="midnightblue" d="M4215.8,-131.52C4213.91,-131.69 4212.04,-131.86 4210.19,-132 3783.5,-165.51 2382.9,-175.27 2122.89,-176.78"/>
<polygon fill="midnightblue" stroke="midnightblue" points="2122.72,-173.28 2112.74,-176.84 2122.76,-180.28 2122.72,-173.28"/>
</g>
<!-- Node40&#45;&gt;Node33 -->
<g id="edge43" class="edge">
<title>Node40&#45;&gt;Node33</title>
<path fill="none" stroke="midnightblue" d="M322.19,-112.08C322.19,-105.01 322.19,-94.86 322.19,-85.99"/>
<polygon fill="midnightblue" stroke="midnightblue" points="325.69,-85.75 322.19,-75.75 318.69,-85.75 325.69,-85.75"/>
</g>
<!-- Node41&#45;&gt;Node2 -->
<g id="edge45" class="edge">
<title>Node41&#45;&gt;Node2</title>
<path fill="none" stroke="midnightblue" d="M4346.62,-131.53C4345.13,-131.7 4343.65,-131.86 4342.19,-132 3888.44,-175.55 2393.45,-177.1 2123.22,-177.03"/>
<polygon fill="midnightblue" stroke="midnightblue" points="2123.05,-173.53 2113.05,-177.03 2123.05,-180.53 2123.05,-173.53"/>
</g>
<!-- Node75&#45;&gt;Node2 -->
<g id="edge47" class="edge">
<title>Node75&#45;&gt;Node2</title>
<path fill="none" stroke="midnightblue" d="M1609.28,-225C1612.29,-224.66 1615.27,-224.32 1618.19,-224 1773.19,-206.92 1957.76,-190 2039.13,-182.72"/>
<polygon fill="midnightblue" stroke="midnightblue" points="2039.8,-186.18 2049.45,-181.8 2039.18,-179.2 2039.8,-186.18"/>
</g>
<!-- Node87&#45;&gt;Node2 -->
<g id="edge49" class="edge">
<title>Node87&#45;&gt;Node2</title>
<path fill="none" stroke="midnightblue" d="M1752.15,-224.44C1832.44,-213.35 1970.29,-194.32 2039.29,-184.79"/>
<polygon fill="midnightblue" stroke="midnightblue" points="2039.93,-188.23 2049.35,-183.4 2038.97,-181.3 2039.93,-188.23"/>
</g>
<!-- Node89&#45;&gt;Node2 -->
<g id="edge52" class="edge">
<title>Node89&#45;&gt;Node2</title>
<path fill="none" stroke="midnightblue" d="M1872.49,-224.44C1918.08,-214.52 1992.91,-198.22 2039.5,-188.08"/>
<polygon fill="midnightblue" stroke="midnightblue" points="2040.53,-191.44 2049.56,-185.89 2039.04,-184.6 2040.53,-191.44"/>
</g>
<!-- Node90&#45;&gt;Node2 -->
<g id="edge54" class="edge">
<title>Node90&#45;&gt;Node2</title>
<path fill="none" stroke="midnightblue" d="M1979.37,-224.44C1999.1,-215.64 2030.08,-201.81 2052.69,-191.72"/>
<polygon fill="midnightblue" stroke="midnightblue" points="2054.41,-194.79 2062.11,-187.52 2051.55,-188.4 2054.41,-194.79"/>
</g>
<!-- Node97&#45;&gt;Node2 -->
<g id="edge56" class="edge">
<title>Node97&#45;&gt;Node2</title>
<path fill="none" stroke="midnightblue" d="M2081.19,-224.08C2081.19,-217.01 2081.19,-206.86 2081.19,-197.99"/>
<polygon fill="midnightblue" stroke="midnightblue" points="2084.69,-197.75 2081.19,-187.75 2077.69,-197.75 2084.69,-197.75"/>
</g>
<!-- Node98&#45;&gt;Node99 -->
<g id="edge58" class="edge">
<title>Node98&#45;&gt;Node99</title>
<path fill="none" stroke="midnightblue" d="M2529.19,-280.4C2529.19,-272.47 2529.19,-262.46 2529.19,-253.86"/>
<polygon fill="midnightblue" stroke="midnightblue" points="2532.69,-253.66 2529.19,-243.66 2525.69,-253.66 2532.69,-253.66"/>
</g>
<!-- Node99&#45;&gt;Node2 -->
<g id="edge60" class="edge">
<title>Node99&#45;&gt;Node2</title>
<path fill="none" stroke="midnightblue" d="M2495.15,-228.9C2414.31,-219.15 2210.98,-194.64 2122.92,-184.03"/>
<polygon fill="midnightblue" stroke="midnightblue" points="2123.12,-180.53 2112.77,-182.81 2122.28,-187.48 2123.12,-180.53"/>
</g>
<!-- Node99&#45;&gt;Node4 -->
<g id="edge59" class="edge">
<title>Node99&#45;&gt;Node4</title>
<path fill="none" stroke="midnightblue" d="M2563.44,-232.51C2815.08,-228.76 4370.07,-202.77 4437.19,-132 4443.31,-125.55 4443.4,-118.36 4437.19,-112 4363.74,-36.67 858.01,-13.6 459.04,-11.21"/>
<polygon fill="midnightblue" stroke="midnightblue" points="458.93,-7.71 448.91,-11.15 458.89,-14.71 458.93,-7.71"/>
</g>
<!-- Node100&#45;&gt;Node2 -->
<g id="edge62" class="edge">
<title>Node100&#45;&gt;Node2</title>
<path fill="none" stroke="midnightblue" d="M2166.85,-285.57C2176.46,-271.46 2191.78,-243.63 2179.19,-224 2166.69,-204.5 2143.37,-193.33 2122.62,-187.01"/>
<polygon fill="midnightblue" stroke="midnightblue" points="2123.27,-183.55 2112.7,-184.27 2121.41,-190.3 2123.27,-183.55"/>
</g>
<!-- Node101&#45;&gt;Node2 -->
<g id="edge65" class="edge">
<title>Node101&#45;&gt;Node2</title>
<path fill="none" stroke="midnightblue" d="M2375.55,-285.98C2343.5,-272.22 2277.88,-244.56 2221.19,-224 2187.21,-211.67 2147.98,-199.21 2119.71,-190.54"/>
<polygon fill="midnightblue" stroke="midnightblue" points="2120.41,-187.09 2109.83,-187.52 2118.37,-193.79 2120.41,-187.09"/>
</g>
<!-- Node101&#45;&gt;Node99 -->
<g id="edge66" class="edge">
<title>Node101&#45;&gt;Node99</title>
<path fill="none" stroke="midnightblue" d="M2414.39,-285.98C2436.98,-275.95 2474.69,-259.2 2500.69,-247.65"/>
<polygon fill="midnightblue" stroke="midnightblue" points="2502.31,-250.77 2510.03,-243.51 2499.47,-244.37 2502.31,-250.77"/>
</g>
<!-- Node102&#45;&gt;Node2 -->
<g id="edge68" class="edge">
<title>Node102&#45;&gt;Node2</title>
<path fill="none" stroke="midnightblue" d="M2263.61,-285.57C2250.81,-270.97 2223.52,-241.84 2195.19,-224 2172.29,-209.58 2144.01,-198.38 2121.35,-190.76"/>
<polygon fill="midnightblue" stroke="midnightblue" points="2122.28,-187.39 2111.69,-187.62 2120.11,-194.04 2122.28,-187.39"/>
</g>
</g>
</svg>
