<?xml version="1.0" encoding="UTF-8" standalone="no"?>
<!DOCTYPE svg PUBLIC "-//W3C//DTD SVG 1.1//EN"
 "http://www.w3.org/Graphics/SVG/1.1/DTD/svg11.dtd">
<!-- Generated by graphviz version 2.43.0 (0)
 -->
<!-- Title: wld_rad_nl80211_getWiphyInfo Pages: 1 -->
<svg width="485pt" height="66pt"
 viewBox="0.00 0.00 485.00 66.00" xmlns="http://www.w3.org/2000/svg" xmlns:xlink="http://www.w3.org/1999/xlink">
<g id="graph0" class="graph" transform="scale(1 1) rotate(0) translate(4 62)">
<title>wld_rad_nl80211_getWiphyInfo</title>
<polygon fill="white" stroke="transparent" points="-4,4 -4,-62 481,-62 481,4 -4,4"/>
<!-- Node1 -->
<g id="node1" class="node">
<title>Node1</title>
<g id="a_node1"><a xlink:title=" ">
<polygon fill="#bfbfbf" stroke="black" points="307,-19.5 307,-38.5 477,-38.5 477,-19.5 307,-19.5"/>
<text text-anchor="middle" x="392" y="-26.5" font-family="Helvetica,sans-Serif" font-size="10.00">wld_rad_nl80211_getWiphyInfo</text>
</a>
</g>
</g>
<!-- Node2 -->
<g id="node2" class="node">
<title>Node2</title>
<g id="a_node2"><a xlink:href="wifiGen__rad_8c.html#a773e3bf8638f377f248e9c7a0cba4442" target="_top" xlink:title=" ">
<polygon fill="white" stroke="black" points="166.5,-38.5 166.5,-57.5 250.5,-57.5 250.5,-38.5 166.5,-38.5"/>
<text text-anchor="middle" x="208.5" y="-45.5" font-family="Helvetica,sans-Serif" font-size="10.00">s_getMaxPow</text>
</a>
</g>
</g>
<!-- Node1&#45;&gt;Node2 -->
<g id="edge1" class="edge">
<title>Node1&#45;&gt;Node2</title>
<path fill="none" stroke="midnightblue" d="M296.83,-38.86C280.68,-40.55 264.67,-42.22 250.85,-43.67"/>
<polygon fill="midnightblue" stroke="midnightblue" points="297.31,-42.33 306.89,-37.8 296.58,-35.37 297.31,-42.33"/>
</g>
<!-- Node4 -->
<g id="node4" class="node">
<title>Node4</title>
<g id="a_node4"><a xlink:href="wifiGen__rad_8c.html#a5971e495b5dfe5dc615d5c1c050faa87" target="_top" xlink:title=" ">
<polygon fill="white" stroke="black" points="146,-0.5 146,-19.5 271,-19.5 271,-0.5 146,-0.5"/>
<text text-anchor="middle" x="208.5" y="-7.5" font-family="Helvetica,sans-Serif" font-size="10.00">wifiGen_rad_poschans</text>
</a>
</g>
</g>
<!-- Node1&#45;&gt;Node4 -->
<g id="edge3" class="edge">
<title>Node1&#45;&gt;Node4</title>
<path fill="none" stroke="midnightblue" d="M296.7,-19.13C288.02,-18.22 279.39,-17.32 271.11,-16.45"/>
<polygon fill="midnightblue" stroke="midnightblue" points="296.58,-22.63 306.89,-20.2 297.31,-15.67 296.58,-22.63"/>
</g>
<!-- Node3 -->
<g id="node3" class="node">
<title>Node3</title>
<g id="a_node3"><a xlink:href="wifiGen__rad_8c.html#a65e1e8b585dc92e66407f6c90bff7db2" target="_top" xlink:title=" ">
<polygon fill="white" stroke="black" points="0,-38.5 0,-57.5 110,-57.5 110,-38.5 0,-38.5"/>
<text text-anchor="middle" x="55" y="-45.5" font-family="Helvetica,sans-Serif" font-size="10.00">wifiGen_rad_txpow</text>
</a>
</g>
</g>
<!-- Node2&#45;&gt;Node3 -->
<g id="edge2" class="edge">
<title>Node2&#45;&gt;Node3</title>
<path fill="none" stroke="midnightblue" d="M155.68,-48C140.99,-48 124.97,-48 110.15,-48"/>
<polygon fill="midnightblue" stroke="midnightblue" points="156.1,-51.5 166.1,-48 156.1,-44.5 156.1,-51.5"/>
</g>
</g>
</svg>
