<?xml version="1.0" encoding="UTF-8" standalone="no"?>
<!DOCTYPE svg PUBLIC "-//W3C//DTD SVG 1.1//EN"
 "http://www.w3.org/Graphics/SVG/1.1/DTD/svg11.dtd">
<!-- Generated by graphviz version 2.43.0 (0)
 -->
<!-- Title: _getSpectrumInfo Pages: 1 -->
<svg width="311pt" height="66pt"
 viewBox="0.00 0.00 311.00 66.00" xmlns="http://www.w3.org/2000/svg" xmlns:xlink="http://www.w3.org/1999/xlink">
<g id="graph0" class="graph" transform="scale(1 1) rotate(0) translate(4 62)">
<title>_getSpectrumInfo</title>
<polygon fill="white" stroke="transparent" points="-4,4 -4,-62 307,-62 307,4 -4,4"/>
<!-- Node1 -->
<g id="node1" class="node">
<title>Node1</title>
<g id="a_node1"><a xlink:title=" ">
<polygon fill="#bfbfbf" stroke="black" points="0,-19.5 0,-38.5 103,-38.5 103,-19.5 0,-19.5"/>
<text text-anchor="middle" x="51.5" y="-26.5" font-family="Helvetica,sans-Serif" font-size="10.00">_getSpectrumInfo</text>
</a>
</g>
</g>
<!-- Node2 -->
<g id="node2" class="node">
<title>Node2</title>
<g id="a_node2"><a xlink:href="wld__rad__scan_8c.html#ae8ebf96ddd41708734ca65371c20757c" target="_top" xlink:title=" ">
<polygon fill="white" stroke="black" points="163.5,-38.5 163.5,-57.5 278.5,-57.5 278.5,-38.5 163.5,-38.5"/>
<text text-anchor="middle" x="221" y="-45.5" font-family="Helvetica,sans-Serif" font-size="10.00">wld_scan_isRunning</text>
</a>
</g>
</g>
<!-- Node1&#45;&gt;Node2 -->
<g id="edge1" class="edge">
<title>Node1&#45;&gt;Node2</title>
<path fill="none" stroke="midnightblue" d="M103.21,-34.75C118.92,-36.53 136.47,-38.53 153.1,-40.41"/>
<polygon fill="midnightblue" stroke="midnightblue" points="152.98,-43.92 163.31,-41.57 153.77,-36.97 152.98,-43.92"/>
</g>
<!-- Node3 -->
<g id="node3" class="node">
<title>Node3</title>
<g id="a_node3"><a xlink:href="wld__rad__scan_8c.html#a6dc702409e9903f7530a9b4e6be50614" target="_top" xlink:title=" ">
<polygon fill="white" stroke="black" points="139,-0.5 139,-19.5 303,-19.5 303,-0.5 139,-0.5"/>
<text text-anchor="middle" x="221" y="-7.5" font-family="Helvetica,sans-Serif" font-size="10.00">wld_spectrum_cleanupResults</text>
</a>
</g>
</g>
<!-- Node1&#45;&gt;Node3 -->
<g id="edge2" class="edge">
<title>Node1&#45;&gt;Node3</title>
<path fill="none" stroke="midnightblue" d="M103.21,-23.25C111.4,-22.32 120.08,-21.33 128.88,-20.34"/>
<polygon fill="midnightblue" stroke="midnightblue" points="129.29,-23.81 138.83,-19.21 128.5,-16.86 129.29,-23.81"/>
</g>
</g>
</svg>
