<?xml version="1.0" encoding="UTF-8" standalone="no"?>
<!DOCTYPE svg PUBLIC "-//W3C//DTD SVG 1.1//EN"
 "http://www.w3.org/Graphics/SVG/1.1/DTD/svg11.dtd">
<!-- Generated by graphviz version 2.43.0 (0)
 -->
<!-- Title: wld_wpaCtrl_checkSockPath Pages: 1 -->
<svg width="1146pt" height="361pt"
 viewBox="0.00 0.00 1146.00 361.00" xmlns="http://www.w3.org/2000/svg" xmlns:xlink="http://www.w3.org/1999/xlink">
<g id="graph0" class="graph" transform="scale(1 1) rotate(0) translate(4 357)">
<title>wld_wpaCtrl_checkSockPath</title>
<polygon fill="white" stroke="transparent" points="-4,4 -4,-357 1142,-357 1142,4 -4,4"/>
<!-- Node1 -->
<g id="node1" class="node">
<title>Node1</title>
<g id="a_node1"><a xlink:title=" ">
<polygon fill="#bfbfbf" stroke="black" points="983,-265.5 983,-284.5 1138,-284.5 1138,-265.5 983,-265.5"/>
<text text-anchor="middle" x="1060.5" y="-272.5" font-family="Helvetica,sans-Serif" font-size="10.00">wld_wpaCtrl_checkSockPath</text>
</a>
</g>
</g>
<!-- Node2 -->
<g id="node2" class="node">
<title>Node2</title>
<g id="a_node2"><a xlink:href="wld__wpaCtrlConnection_8c.html#a71bdfd4428fb221814547fbeb4ba9152" target="_top" xlink:title=" ">
<polygon fill="white" stroke="black" points="804,-289.5 804,-308.5 947,-308.5 947,-289.5 804,-289.5"/>
<text text-anchor="middle" x="875.5" y="-296.5" font-family="Helvetica,sans-Serif" font-size="10.00">wld_wpaCtrl_queryToSock</text>
</a>
</g>
</g>
<!-- Node1&#45;&gt;Node2 -->
<g id="edge1" class="edge">
<title>Node1&#45;&gt;Node2</title>
<path fill="none" stroke="midnightblue" d="M976.71,-285.86C966.86,-287.15 956.87,-288.46 947.21,-289.73"/>
<polygon fill="midnightblue" stroke="midnightblue" points="977.45,-289.29 986.91,-284.52 976.54,-282.35 977.45,-289.29"/>
</g>
<!-- Node7 -->
<g id="node7" class="node">
<title>Node7</title>
<g id="a_node7"><a xlink:href="wld__wpaCtrlInterface_8c.html#a6bc5243e885837a4bdb99fec68952a95" target="_top" xlink:title=" ">
<polygon fill="white" stroke="black" points="812.5,-238 812.5,-268 938.5,-268 938.5,-238 812.5,-238"/>
<text text-anchor="start" x="820.5" y="-256" font-family="Helvetica,sans-Serif" font-size="10.00">wld_wpaCtrlInterface</text>
<text text-anchor="middle" x="875.5" y="-245" font-family="Helvetica,sans-Serif" font-size="10.00">_checkConnectionPath</text>
</a>
</g>
</g>
<!-- Node1&#45;&gt;Node7 -->
<g id="edge6" class="edge">
<title>Node1&#45;&gt;Node7</title>
<path fill="none" stroke="midnightblue" d="M972.84,-264.58C961.27,-263.19 949.61,-261.79 938.58,-260.46"/>
<polygon fill="midnightblue" stroke="midnightblue" points="972.61,-268.08 982.95,-265.8 973.44,-261.13 972.61,-268.08"/>
</g>
<!-- Node3 -->
<g id="node3" class="node">
<title>Node3</title>
<g id="a_node3"><a xlink:href="wifiGen__hapd_8c.html#a7d3e7497d8ba632b42864b29eeb4cd70" target="_top" xlink:title=" ">
<polygon fill="white" stroke="black" points="595,-333.5 595,-352.5 764,-352.5 764,-333.5 595,-333.5"/>
<text text-anchor="middle" x="679.5" y="-340.5" font-family="Helvetica,sans-Serif" font-size="10.00">wifiGen_hapd_fetchSockApLink</text>
</a>
</g>
</g>
<!-- Node2&#45;&gt;Node3 -->
<g id="edge2" class="edge">
<title>Node2&#45;&gt;Node3</title>
<path fill="none" stroke="midnightblue" d="M824.41,-310.94C806.62,-315.13 786.43,-319.84 768,-324 754.05,-327.15 738.83,-330.49 725.05,-333.48"/>
<polygon fill="midnightblue" stroke="midnightblue" points="825.66,-314.24 834.58,-308.54 824.05,-307.43 825.66,-314.24"/>
</g>
<!-- Node4 -->
<g id="node4" class="node">
<title>Node4</title>
<g id="a_node4"><a xlink:href="wld__wpaCtrlInterface_8c.html#ae0a540ffcdf6308c6a9d4b25218f1129" target="_top" xlink:title="send formatted command to wpa_ctrl server over established or temporary connection and check the rece...">
<polygon fill="white" stroke="black" points="591,-284 591,-314 768,-314 768,-284 591,-284"/>
<text text-anchor="start" x="599" y="-302" font-family="Helvetica,sans-Serif" font-size="10.00">wld_wpaCtrl_sendCmdFmtCheck</text>
<text text-anchor="middle" x="679.5" y="-291" font-family="Helvetica,sans-Serif" font-size="10.00">Response</text>
</a>
</g>
</g>
<!-- Node2&#45;&gt;Node4 -->
<g id="edge3" class="edge">
<title>Node2&#45;&gt;Node4</title>
<path fill="none" stroke="midnightblue" d="M793.74,-299C785.32,-299 776.73,-299 768.24,-299"/>
<polygon fill="midnightblue" stroke="midnightblue" points="793.91,-302.5 803.91,-299 793.91,-295.5 793.91,-302.5"/>
</g>
<!-- Node5 -->
<g id="node5" class="node">
<title>Node5</title>
<g id="a_node5"><a xlink:href="wld__rad__hostapd__api_8c.html#a848163f8651e518db2503acba24262c2" target="_top" xlink:title="reconfigure hostapd from file">
<polygon fill="white" stroke="black" points="196,-289.5 196,-308.5 355,-308.5 355,-289.5 196,-289.5"/>
<text text-anchor="middle" x="275.5" y="-296.5" font-family="Helvetica,sans-Serif" font-size="10.00">wld_rad_hostapd_reconfigure</text>
</a>
</g>
</g>
<!-- Node4&#45;&gt;Node5 -->
<g id="edge4" class="edge">
<title>Node4&#45;&gt;Node5</title>
<path fill="none" stroke="midnightblue" d="M580.63,-301.6C571.96,-301.76 563.32,-301.9 555,-302 482.12,-302.89 463.88,-302.95 391,-302 379.37,-301.85 367.07,-301.61 355.03,-301.33"/>
<polygon fill="midnightblue" stroke="midnightblue" points="580.87,-305.09 590.8,-301.39 580.73,-298.09 580.87,-305.09"/>
</g>
<!-- Node6 -->
<g id="node6" class="node">
<title>Node6</title>
<g id="a_node6"><a xlink:href="wifiGen__hapd_8c.html#a3316988b243476f9ae97626a068d4d04" target="_top" xlink:title=" ">
<polygon fill="white" stroke="black" points="0,-289.5 0,-308.5 160,-308.5 160,-289.5 0,-289.5"/>
<text text-anchor="middle" x="80" y="-296.5" font-family="Helvetica,sans-Serif" font-size="10.00">wifiGen_hapd_reloadDaemon</text>
</a>
</g>
</g>
<!-- Node5&#45;&gt;Node6 -->
<g id="edge5" class="edge">
<title>Node5&#45;&gt;Node6</title>
<path fill="none" stroke="midnightblue" d="M185.56,-299C177.12,-299 168.6,-299 160.26,-299"/>
<polygon fill="midnightblue" stroke="midnightblue" points="185.8,-302.5 195.8,-299 185.8,-295.5 185.8,-302.5"/>
</g>
<!-- Node7&#45;&gt;Node4 -->
<g id="edge7" class="edge">
<title>Node7&#45;&gt;Node4</title>
<path fill="none" stroke="midnightblue" d="M802.43,-270.09C783.25,-274.64 762.68,-279.51 744,-283.94"/>
<polygon fill="midnightblue" stroke="midnightblue" points="803.39,-273.46 812.32,-267.74 801.78,-266.65 803.39,-273.46"/>
</g>
<!-- Node8 -->
<g id="node8" class="node">
<title>Node8</title>
<g id="a_node8"><a xlink:href="wld__wpaCtrlInterface_8c.html#a303019c3b064bd2babeb3582ecd91d7f" target="_top" xlink:title="close the wpaCtrl interface to wpa_ctrl server This function closes all relative connections (cmd and...">
<polygon fill="white" stroke="black" points="619.5,-115 619.5,-145 739.5,-145 739.5,-115 619.5,-115"/>
<text text-anchor="start" x="627.5" y="-133" font-family="Helvetica,sans-Serif" font-size="10.00">wld_wpaCtrlInterface</text>
<text text-anchor="middle" x="679.5" y="-122" font-family="Helvetica,sans-Serif" font-size="10.00">_close</text>
</a>
</g>
</g>
<!-- Node7&#45;&gt;Node8 -->
<g id="edge8" class="edge">
<title>Node7&#45;&gt;Node8</title>
<path fill="none" stroke="midnightblue" d="M841.86,-232.3C802.89,-207.6 738.68,-166.89 704.18,-145.01"/>
<polygon fill="midnightblue" stroke="midnightblue" points="840.39,-235.52 850.71,-237.92 844.14,-229.61 840.39,-235.52"/>
</g>
<!-- Node20 -->
<g id="node20" class="node">
<title>Node20</title>
<g id="a_node20"><a xlink:href="wld__wpaCtrlMngr_8c.html#aa181961367a7ddec982aee21b5d0d25e" target="_top" xlink:title=" ">
<polygon fill="white" stroke="black" points="608,-235 608,-265 751,-265 751,-235 608,-235"/>
<text text-anchor="start" x="616" y="-253" font-family="Helvetica,sans-Serif" font-size="10.00">wld_wpaCtrlMngr_getFirst</text>
<text text-anchor="middle" x="679.5" y="-242" font-family="Helvetica,sans-Serif" font-size="10.00">AvailableInterface</text>
</a>
</g>
</g>
<!-- Node7&#45;&gt;Node20 -->
<g id="edge20" class="edge">
<title>Node7&#45;&gt;Node20</title>
<path fill="none" stroke="midnightblue" d="M802.09,-251.88C785.41,-251.62 767.69,-251.35 751.1,-251.09"/>
<polygon fill="midnightblue" stroke="midnightblue" points="802.26,-255.38 812.32,-252.04 802.37,-248.38 802.26,-255.38"/>
</g>
<!-- Node9 -->
<g id="node9" class="node">
<title>Node9</title>
<g id="a_node9"><a xlink:href="wld__wpaCtrlInterface_8c.html#a78b74c321f958dec1e833a1c6b275eae" target="_top" xlink:title=" ">
<polygon fill="white" stroke="black" points="413,-164 413,-194 533,-194 533,-164 413,-164"/>
<text text-anchor="start" x="421" y="-182" font-family="Helvetica,sans-Serif" font-size="10.00">wld_wpaCtrlInterface</text>
<text text-anchor="middle" x="473" y="-171" font-family="Helvetica,sans-Serif" font-size="10.00">_cleanup</text>
</a>
</g>
</g>
<!-- Node8&#45;&gt;Node9 -->
<g id="edge9" class="edge">
<title>Node8&#45;&gt;Node9</title>
<path fill="none" stroke="midnightblue" d="M609.62,-146.5C584.77,-152.46 556.95,-159.12 533.02,-164.86"/>
<polygon fill="midnightblue" stroke="midnightblue" points="610.44,-149.91 619.35,-144.17 608.81,-143.1 610.44,-149.91"/>
</g>
<!-- Node10 -->
<g id="node10" class="node">
<title>Node10</title>
<g id="a_node10"><a xlink:href="wld__wpaCtrlInterface_8c.html#a459412143928ed22bca8796394d85ada" target="_top" xlink:title=" ">
<polygon fill="white" stroke="black" points="413,-115 413,-145 533,-145 533,-115 413,-115"/>
<text text-anchor="start" x="421" y="-133" font-family="Helvetica,sans-Serif" font-size="10.00">wld_wpaCtrlInterface</text>
<text text-anchor="middle" x="473" y="-122" font-family="Helvetica,sans-Serif" font-size="10.00">_setConnectionInfo</text>
</a>
</g>
</g>
<!-- Node8&#45;&gt;Node10 -->
<g id="edge10" class="edge">
<title>Node8&#45;&gt;Node10</title>
<path fill="none" stroke="midnightblue" d="M609.29,-130C584.52,-130 556.85,-130 533.02,-130"/>
<polygon fill="midnightblue" stroke="midnightblue" points="609.35,-133.5 619.35,-130 609.35,-126.5 609.35,-133.5"/>
</g>
<!-- Node13 -->
<g id="node13" class="node">
<title>Node13</title>
<g id="a_node13"><a xlink:href="wld__wpaCtrlMngr_8c.html#a703dcb69cf5fbbf2473edf3505b12ca1" target="_top" xlink:title=" ">
<polygon fill="white" stroke="black" points="400.5,-76.5 400.5,-95.5 545.5,-95.5 545.5,-76.5 400.5,-76.5"/>
<text text-anchor="middle" x="473" y="-83.5" font-family="Helvetica,sans-Serif" font-size="10.00">wld_wpaCtrlMngr_cleanup</text>
</a>
</g>
</g>
<!-- Node8&#45;&gt;Node13 -->
<g id="edge13" class="edge">
<title>Node8&#45;&gt;Node13</title>
<path fill="none" stroke="midnightblue" d="M609.34,-115.12C579.29,-108.65 544.96,-101.27 518.4,-95.55"/>
<polygon fill="midnightblue" stroke="midnightblue" points="608.84,-118.59 619.35,-117.27 610.31,-111.75 608.84,-118.59"/>
</g>
<!-- Node16 -->
<g id="node16" class="node">
<title>Node16</title>
<g id="a_node16"><a xlink:href="wld__wpaCtrlMngr_8c.html#a65f1d3c48476ca6584852b18fc80b2d9" target="_top" xlink:title="disconnect from wpa_ctrl server">
<polygon fill="white" stroke="black" points="393.5,-38.5 393.5,-57.5 552.5,-57.5 552.5,-38.5 393.5,-38.5"/>
<text text-anchor="middle" x="473" y="-45.5" font-family="Helvetica,sans-Serif" font-size="10.00">wld_wpaCtrlMngr_disconnect</text>
</a>
</g>
</g>
<!-- Node8&#45;&gt;Node16 -->
<g id="edge16" class="edge">
<title>Node8&#45;&gt;Node16</title>
<path fill="none" stroke="midnightblue" d="M644.49,-109.82C620.23,-96.14 586.46,-78.52 555,-67 544.96,-63.32 533.96,-60.19 523.39,-57.58"/>
<polygon fill="midnightblue" stroke="midnightblue" points="642.88,-112.93 653.3,-114.85 646.35,-106.85 642.88,-112.93"/>
</g>
<!-- Node11 -->
<g id="node11" class="node">
<title>Node11</title>
<g id="a_node11"><a xlink:href="wld__wpaCtrlInterface_8c.html#a6024f927e9325cb624243ab3ada19169" target="_top" xlink:title=" ">
<polygon fill="white" stroke="black" points="215.5,-115 215.5,-145 335.5,-145 335.5,-115 215.5,-115"/>
<text text-anchor="start" x="223.5" y="-133" font-family="Helvetica,sans-Serif" font-size="10.00">wld_wpaCtrlInterface</text>
<text text-anchor="middle" x="275.5" y="-122" font-family="Helvetica,sans-Serif" font-size="10.00">_initWithSockName</text>
</a>
</g>
</g>
<!-- Node10&#45;&gt;Node11 -->
<g id="edge11" class="edge">
<title>Node10&#45;&gt;Node11</title>
<path fill="none" stroke="midnightblue" d="M402.62,-130C380.79,-130 356.89,-130 335.82,-130"/>
<polygon fill="midnightblue" stroke="midnightblue" points="402.81,-133.5 412.81,-130 402.81,-126.5 402.81,-133.5"/>
</g>
<!-- Node12 -->
<g id="node12" class="node">
<title>Node12</title>
<g id="a_node12"><a xlink:href="wld__wpaCtrlInterface_8c.html#ab633f391100bfb48cab0bb515fd4e908" target="_top" xlink:title=" ">
<polygon fill="white" stroke="black" points="9.5,-120.5 9.5,-139.5 150.5,-139.5 150.5,-120.5 9.5,-120.5"/>
<text text-anchor="middle" x="80" y="-127.5" font-family="Helvetica,sans-Serif" font-size="10.00">wld_wpaCtrlInterface_init</text>
</a>
</g>
</g>
<!-- Node11&#45;&gt;Node12 -->
<g id="edge12" class="edge">
<title>Node11&#45;&gt;Node12</title>
<path fill="none" stroke="midnightblue" d="M205.13,-130C187.41,-130 168.35,-130 150.62,-130"/>
<polygon fill="midnightblue" stroke="midnightblue" points="205.39,-133.5 215.39,-130 205.39,-126.5 205.39,-133.5"/>
</g>
<!-- Node14 -->
<g id="node14" class="node">
<title>Node14</title>
<g id="a_node14"><a xlink:href="wld__secDmn_8c.html#a6bf723465724da6f8b5fa5b8ddddf66f" target="_top" xlink:title=" ">
<polygon fill="white" stroke="black" points="214.5,-76.5 214.5,-95.5 336.5,-95.5 336.5,-76.5 214.5,-76.5"/>
<text text-anchor="middle" x="275.5" y="-83.5" font-family="Helvetica,sans-Serif" font-size="10.00">wld_secDmn_cleanup</text>
</a>
</g>
</g>
<!-- Node13&#45;&gt;Node14 -->
<g id="edge14" class="edge">
<title>Node13&#45;&gt;Node14</title>
<path fill="none" stroke="midnightblue" d="M390.15,-86C372.2,-86 353.52,-86 336.62,-86"/>
<polygon fill="midnightblue" stroke="midnightblue" points="390.31,-89.5 400.31,-86 390.31,-82.5 390.31,-89.5"/>
</g>
<!-- Node15 -->
<g id="node15" class="node">
<title>Node15</title>
<g id="a_node15"><a xlink:href="wifiGen__hapd_8c.html#af643558a6f2cae8f916cc925a5654667" target="_top" xlink:title=" ">
<polygon fill="white" stroke="black" points="17,-76.5 17,-95.5 143,-95.5 143,-76.5 17,-76.5"/>
<text text-anchor="middle" x="80" y="-83.5" font-family="Helvetica,sans-Serif" font-size="10.00">wifiGen_hapd_cleanup</text>
</a>
</g>
</g>
<!-- Node14&#45;&gt;Node15 -->
<g id="edge15" class="edge">
<title>Node14&#45;&gt;Node15</title>
<path fill="none" stroke="midnightblue" d="M204.07,-86C184.12,-86 162.55,-86 143.13,-86"/>
<polygon fill="midnightblue" stroke="midnightblue" points="204.34,-89.5 214.34,-86 204.34,-82.5 204.34,-89.5"/>
</g>
<!-- Node17 -->
<g id="node17" class="node">
<title>Node17</title>
<g id="a_node17"><a xlink:href="wld__secDmn_8c.html#a04e473c6a2f624f5ee15a91d36ca56db" target="_top" xlink:title=" ">
<polygon fill="white" stroke="black" points="211,-38.5 211,-57.5 340,-57.5 340,-38.5 211,-38.5"/>
<text text-anchor="middle" x="275.5" y="-45.5" font-family="Helvetica,sans-Serif" font-size="10.00">wld_secDmn_restartCb</text>
</a>
</g>
</g>
<!-- Node16&#45;&gt;Node17 -->
<g id="edge17" class="edge">
<title>Node16&#45;&gt;Node17</title>
<path fill="none" stroke="midnightblue" d="M383.29,-48C368.69,-48 353.83,-48 340.01,-48"/>
<polygon fill="midnightblue" stroke="midnightblue" points="383.33,-51.5 393.33,-48 383.33,-44.5 383.33,-51.5"/>
</g>
<!-- Node18 -->
<g id="node18" class="node">
<title>Node18</title>
<g id="a_node18"><a xlink:href="wld__secDmn_8c.html#a161897b21440ea0885b570829da259fc" target="_top" xlink:title=" ">
<polygon fill="white" stroke="black" points="223,-0.5 223,-19.5 328,-19.5 328,-0.5 223,-0.5"/>
<text text-anchor="middle" x="275.5" y="-7.5" font-family="Helvetica,sans-Serif" font-size="10.00">wld_secDmn_stop</text>
</a>
</g>
</g>
<!-- Node16&#45;&gt;Node18 -->
<g id="edge18" class="edge">
<title>Node16&#45;&gt;Node18</title>
<path fill="none" stroke="midnightblue" d="M412.89,-36.51C385,-31.09 352.1,-24.69 325.6,-19.54"/>
<polygon fill="midnightblue" stroke="midnightblue" points="412.44,-39.99 422.92,-38.46 413.77,-33.12 412.44,-39.99"/>
</g>
<!-- Node19 -->
<g id="node19" class="node">
<title>Node19</title>
<g id="a_node19"><a xlink:href="wifiGen__hapd_8c.html#a75688dec0e4ad675142a71010b2b536a" target="_top" xlink:title=" ">
<polygon fill="white" stroke="black" points="5,-0.5 5,-19.5 155,-19.5 155,-0.5 5,-0.5"/>
<text text-anchor="middle" x="80" y="-7.5" font-family="Helvetica,sans-Serif" font-size="10.00">wifiGen_hapd_stopDaemon</text>
</a>
</g>
</g>
<!-- Node18&#45;&gt;Node19 -->
<g id="edge19" class="edge">
<title>Node18&#45;&gt;Node19</title>
<path fill="none" stroke="midnightblue" d="M212.7,-10C194.46,-10 174.31,-10 155.36,-10"/>
<polygon fill="midnightblue" stroke="midnightblue" points="212.9,-13.5 222.9,-10 212.9,-6.5 212.9,-13.5"/>
</g>
<!-- Node21 -->
<g id="node21" class="node">
<title>Node21</title>
<g id="a_node21"><a xlink:href="wld__secDmn_8c.html#a714ecb5a7295d3c0c2ffe03c0683bf2c" target="_top" xlink:title=" ">
<polygon fill="white" stroke="black" points="391,-213 391,-243 555,-243 555,-213 391,-213"/>
<text text-anchor="start" x="399" y="-231" font-family="Helvetica,sans-Serif" font-size="10.00">wld_secDmn_hasAvailableCtrl</text>
<text text-anchor="middle" x="473" y="-220" font-family="Helvetica,sans-Serif" font-size="10.00">Iface</text>
</a>
</g>
</g>
<!-- Node20&#45;&gt;Node21 -->
<g id="edge21" class="edge">
<title>Node20&#45;&gt;Node21</title>
<path fill="none" stroke="midnightblue" d="M597.76,-241.31C583.77,-239.81 569.21,-238.24 555.2,-236.74"/>
<polygon fill="midnightblue" stroke="midnightblue" points="597.52,-244.81 607.84,-242.4 598.27,-237.85 597.52,-244.81"/>
</g>
<!-- Node22 -->
<g id="node22" class="node">
<title>Node22</title>
<g id="a_node22"><a xlink:href="wld__wpaCtrlMngr_8c.html#a4d2e687208327e2581cdbb8a1cd100ef" target="_top" xlink:title=" ">
<polygon fill="white" stroke="black" points="394,-262 394,-292 552,-292 552,-262 394,-262"/>
<text text-anchor="start" x="402" y="-280" font-family="Helvetica,sans-Serif" font-size="10.00">wld_wpaCtrlMngr_getDefault</text>
<text text-anchor="middle" x="473" y="-269" font-family="Helvetica,sans-Serif" font-size="10.00">Interface</text>
</a>
</g>
</g>
<!-- Node20&#45;&gt;Node22 -->
<g id="edge22" class="edge">
<title>Node20&#45;&gt;Node22</title>
<path fill="none" stroke="midnightblue" d="M597.57,-260.69C582.57,-262.67 566.93,-264.73 552.01,-266.7"/>
<polygon fill="midnightblue" stroke="midnightblue" points="598.38,-264.11 607.84,-259.33 597.46,-257.17 598.38,-264.11"/>
</g>
<!-- Node22&#45;&gt;Node5 -->
<g id="edge23" class="edge">
<title>Node22&#45;&gt;Node5</title>
<path fill="none" stroke="midnightblue" d="M383.94,-286.91C374.34,-287.99 364.61,-289.09 355.12,-290.15"/>
<polygon fill="midnightblue" stroke="midnightblue" points="384.34,-290.39 393.89,-285.79 383.56,-283.43 384.34,-290.39"/>
</g>
</g>
</svg>
