<?xml version="1.0" encoding="UTF-8" standalone="no"?>
<!DOCTYPE svg PUBLIC "-//W3C//DTD SVG 1.1//EN"
 "http://www.w3.org/Graphics/SVG/1.1/DTD/svg11.dtd">
<!-- Generated by graphviz version 2.43.0 (0)
 -->
<!-- Title: wld_channel_is_long_wait_channel Pages: 1 -->
<svg width="635pt" height="78pt"
 viewBox="0.00 0.00 635.00 77.50" xmlns="http://www.w3.org/2000/svg" xmlns:xlink="http://www.w3.org/1999/xlink">
<g id="graph0" class="graph" transform="scale(1 1) rotate(0) translate(4 73.5)">
<title>wld_channel_is_long_wait_channel</title>
<polygon fill="white" stroke="transparent" points="-4,4 -4,-73.5 631,-73.5 631,4 -4,4"/>
<!-- Node1 -->
<g id="node1" class="node">
<title>Node1</title>
<g id="a_node1"><a xlink:title=" ">
<polygon fill="#bfbfbf" stroke="black" points="510,-22.5 510,-52.5 627,-52.5 627,-22.5 510,-22.5"/>
<text text-anchor="start" x="518" y="-40.5" font-family="Helvetica,sans-Serif" font-size="10.00">wld_channel_is_long</text>
<text text-anchor="middle" x="568.5" y="-29.5" font-family="Helvetica,sans-Serif" font-size="10.00">_wait_channel</text>
</a>
</g>
</g>
<!-- Node2 -->
<g id="node2" class="node">
<title>Node2</title>
<g id="a_node2"><a xlink:href="wld__channel__info_8c.html#a8de0e83d0d1da8531913a6c7df27989f" target="_top" xlink:title=" ">
<polygon fill="white" stroke="black" points="357,-22.5 357,-52.5 474,-52.5 474,-22.5 357,-22.5"/>
<text text-anchor="start" x="365" y="-40.5" font-family="Helvetica,sans-Serif" font-size="10.00">wld_channel_is_long</text>
<text text-anchor="middle" x="415.5" y="-29.5" font-family="Helvetica,sans-Serif" font-size="10.00">_wait_band</text>
</a>
</g>
</g>
<!-- Node1&#45;&gt;Node2 -->
<g id="edge1" class="edge">
<title>Node1&#45;&gt;Node2</title>
<path fill="none" stroke="midnightblue" d="M499.95,-37.5C491.32,-37.5 482.56,-37.5 474.11,-37.5"/>
<polygon fill="midnightblue" stroke="midnightblue" points="499.98,-41 509.98,-37.5 499.98,-34 499.98,-41"/>
</g>
<!-- Node3 -->
<g id="node3" class="node">
<title>Node3</title>
<g id="a_node3"><a xlink:href="wld__channel__info_8c.html#a772b88f7eb8d2446640335ad86ef22a9" target="_top" xlink:title=" ">
<polygon fill="white" stroke="black" points="178,-50 178,-69 321,-69 321,-50 178,-50"/>
<text text-anchor="middle" x="249.5" y="-57" font-family="Helvetica,sans-Serif" font-size="10.00">wld_channel_is_long_wait</text>
</a>
</g>
</g>
<!-- Node2&#45;&gt;Node3 -->
<g id="edge2" class="edge">
<title>Node2&#45;&gt;Node3</title>
<path fill="none" stroke="midnightblue" d="M346.53,-46.62C338.11,-47.75 329.49,-48.9 321.03,-50.04"/>
<polygon fill="midnightblue" stroke="midnightblue" points="347.23,-50.05 356.68,-45.26 346.3,-43.12 347.23,-50.05"/>
</g>
<!-- Node4 -->
<g id="node4" class="node">
<title>Node4</title>
<g id="a_node4"><a xlink:href="wld__channel_8c.html#a5b103ffcd1398b194a2ea6a065a495dd" target="_top" xlink:title=" ">
<polygon fill="white" stroke="black" points="179.5,-0.5 179.5,-30.5 319.5,-30.5 319.5,-0.5 179.5,-0.5"/>
<text text-anchor="start" x="187.5" y="-18.5" font-family="Helvetica,sans-Serif" font-size="10.00">wld_channel_isValidClear</text>
<text text-anchor="middle" x="249.5" y="-7.5" font-family="Helvetica,sans-Serif" font-size="10.00">Channel</text>
</a>
</g>
</g>
<!-- Node2&#45;&gt;Node4 -->
<g id="edge3" class="edge">
<title>Node2&#45;&gt;Node4</title>
<path fill="none" stroke="midnightblue" d="M346.7,-28.4C337.75,-27.2 328.57,-25.97 319.6,-24.77"/>
<polygon fill="midnightblue" stroke="midnightblue" points="346.3,-31.88 356.68,-29.74 347.23,-24.95 346.3,-31.88"/>
</g>
<!-- Node5 -->
<g id="node5" class="node">
<title>Node5</title>
<g id="a_node5"><a xlink:href="wld__channel_8c.html#ac4bbb4144e1201cafc36c76e65939b8e" target="_top" xlink:title=" ">
<polygon fill="white" stroke="black" points="0,-0.5 0,-30.5 142,-30.5 142,-0.5 0,-0.5"/>
<text text-anchor="start" x="8" y="-18.5" font-family="Helvetica,sans-Serif" font-size="10.00">wld_channel_get_channel</text>
<text text-anchor="middle" x="71" y="-7.5" font-family="Helvetica,sans-Serif" font-size="10.00">_to_clear</text>
</a>
</g>
</g>
<!-- Node4&#45;&gt;Node5 -->
<g id="edge4" class="edge">
<title>Node4&#45;&gt;Node5</title>
<path fill="none" stroke="midnightblue" d="M169.17,-15.5C160.18,-15.5 151.07,-15.5 142.21,-15.5"/>
<polygon fill="midnightblue" stroke="midnightblue" points="169.25,-19 179.25,-15.5 169.25,-12 169.25,-19"/>
</g>
</g>
</svg>
