<?xml version="1.0" encoding="UTF-8" standalone="no"?>
<!DOCTYPE svg PUBLIC "-//W3C//DTD SVG 1.1//EN"
 "http://www.w3.org/Graphics/SVG/1.1/DTD/svg11.dtd">
<!-- Generated by graphviz version 2.43.0 (0)
 -->
<!-- Title: wld_nl80211_sendCmdSync Pages: 1 -->
<svg width="1024pt" height="898pt"
 viewBox="0.00 0.00 1024.00 897.50" xmlns="http://www.w3.org/2000/svg" xmlns:xlink="http://www.w3.org/1999/xlink">
<g id="graph0" class="graph" transform="scale(1 1) rotate(0) translate(4 893.5)">
<title>wld_nl80211_sendCmdSync</title>
<polygon fill="white" stroke="transparent" points="-4,4 -4,-893.5 1020,-893.5 1020,4 -4,4"/>
<!-- Node1 -->
<g id="node1" class="node">
<title>Node1</title>
<g id="a_node1"><a xlink:title=" ">
<polygon fill="#bfbfbf" stroke="black" points="864,-637.5 864,-656.5 1016,-656.5 1016,-637.5 864,-637.5"/>
<text text-anchor="middle" x="940" y="-644.5" font-family="Helvetica,sans-Serif" font-size="10.00">wld_nl80211_sendCmdSync</text>
</a>
</g>
</g>
<!-- Node2 -->
<g id="node2" class="node">
<title>Node2</title>
<g id="a_node2"><a xlink:href="wld__nl80211__api_8c.html#afb68f5db7ce72af3116c57f85571395b" target="_top" xlink:title=" ">
<polygon fill="white" stroke="black" points="646.5,-820.5 646.5,-839.5 816.5,-839.5 816.5,-820.5 646.5,-820.5"/>
<text text-anchor="middle" x="731.5" y="-827.5" font-family="Helvetica,sans-Serif" font-size="10.00">wld_nl80211_getAllStationsInfo</text>
</a>
</g>
</g>
<!-- Node1&#45;&gt;Node2 -->
<g id="edge1" class="edge">
<title>Node1&#45;&gt;Node2</title>
<path fill="none" stroke="midnightblue" d="M931.8,-666.2C917.65,-701.1 882.77,-774.64 828,-811 822.23,-814.83 815.85,-817.93 809.22,-820.42"/>
<polygon fill="midnightblue" stroke="midnightblue" points="935.13,-667.29 935.52,-656.7 928.61,-664.74 935.13,-667.29"/>
</g>
<!-- Node3 -->
<g id="node3" class="node">
<title>Node3</title>
<g id="a_node3"><a xlink:href="wld__nl80211__api_8c.html#a7bcdffd87e24c71c464fe00bf4c7fc97" target="_top" xlink:title=" ">
<polygon fill="white" stroke="black" points="651,-782.5 651,-801.5 812,-801.5 812,-782.5 651,-782.5"/>
<text text-anchor="middle" x="731.5" y="-789.5" font-family="Helvetica,sans-Serif" font-size="10.00">wld_nl80211_getAllWiphyInfo</text>
</a>
</g>
</g>
<!-- Node1&#45;&gt;Node3 -->
<g id="edge2" class="edge">
<title>Node1&#45;&gt;Node3</title>
<path fill="none" stroke="midnightblue" d="M928.2,-665.64C910.88,-693.73 874.1,-746.45 828,-773 821.26,-776.88 813.86,-779.98 806.25,-782.45"/>
<polygon fill="midnightblue" stroke="midnightblue" points="931.35,-667.19 933.5,-656.81 925.35,-663.58 931.35,-667.19"/>
</g>
<!-- Node5 -->
<g id="node5" class="node">
<title>Node5</title>
<g id="a_node5"><a xlink:href="wld__nl80211__api_8c.html#a590a1e83f26c3461f2d36c7f238d83ce" target="_top" xlink:title=" ">
<polygon fill="white" stroke="black" points="651,-744.5 651,-763.5 812,-763.5 812,-744.5 651,-744.5"/>
<text text-anchor="middle" x="731.5" y="-751.5" font-family="Helvetica,sans-Serif" font-size="10.00">wld_nl80211_getInterfaceInfo</text>
</a>
</g>
</g>
<!-- Node1&#45;&gt;Node5 -->
<g id="edge4" class="edge">
<title>Node1&#45;&gt;Node5</title>
<path fill="none" stroke="midnightblue" d="M919.41,-663C898.03,-679.83 862.26,-706.15 828,-723 809.7,-732 788.18,-739.25 770.2,-744.47"/>
<polygon fill="midnightblue" stroke="midnightblue" points="921.75,-665.61 927.38,-656.64 917.38,-660.14 921.75,-665.61"/>
</g>
<!-- Node12 -->
<g id="node10" class="node">
<title>Node12</title>
<g id="a_node10"><a xlink:href="wld__nl80211__api_8c.html#a780977706b9f5767d9dfb6946edee0cd" target="_top" xlink:title=" ">
<polygon fill="white" stroke="black" points="649,-694.5 649,-713.5 814,-713.5 814,-694.5 649,-694.5"/>
<text text-anchor="middle" x="731.5" y="-701.5" font-family="Helvetica,sans-Serif" font-size="10.00">wld_nl80211_getInterfacesList</text>
</a>
</g>
</g>
<!-- Node1&#45;&gt;Node12 -->
<g id="edge9" class="edge">
<title>Node1&#45;&gt;Node12</title>
<path fill="none" stroke="midnightblue" d="M904.71,-660.07C882.96,-668.02 854.1,-677.97 828,-685 814.78,-688.56 800.36,-691.77 786.83,-694.5"/>
<polygon fill="midnightblue" stroke="midnightblue" points="906,-663.32 914.17,-656.57 903.57,-656.75 906,-663.32"/>
</g>
<!-- Node15 -->
<g id="node13" class="node">
<title>Node15</title>
<g id="a_node13"><a xlink:href="wld__nl80211__api_8c.html#a748e83fed13841aee61ffcb686c91bc8" target="_top" xlink:title=" ">
<polygon fill="white" stroke="black" points="655.5,-656.5 655.5,-675.5 807.5,-675.5 807.5,-656.5 655.5,-656.5"/>
<text text-anchor="middle" x="731.5" y="-663.5" font-family="Helvetica,sans-Serif" font-size="10.00">wld_nl80211_getStationInfo</text>
</a>
</g>
</g>
<!-- Node1&#45;&gt;Node15 -->
<g id="edge12" class="edge">
<title>Node1&#45;&gt;Node15</title>
<path fill="none" stroke="midnightblue" d="M853.87,-654.83C838.52,-656.25 822.62,-657.71 807.58,-659.09"/>
<polygon fill="midnightblue" stroke="midnightblue" points="854.23,-658.31 863.86,-653.91 853.59,-651.34 854.23,-658.31"/>
</g>
<!-- Node16 -->
<g id="node14" class="node">
<title>Node16</title>
<g id="a_node14"><a xlink:href="wld__nl80211__api_8c.html#a3df4504743b60e3300e02a781c4eec4d" target="_top" xlink:title=" ">
<polygon fill="white" stroke="black" points="648,-618.5 648,-637.5 815,-637.5 815,-618.5 648,-618.5"/>
<text text-anchor="middle" x="731.5" y="-625.5" font-family="Helvetica,sans-Serif" font-size="10.00">wld_nl80211_getSurveyInfoExt</text>
</a>
</g>
</g>
<!-- Node1&#45;&gt;Node16 -->
<g id="edge13" class="edge">
<title>Node1&#45;&gt;Node16</title>
<path fill="none" stroke="midnightblue" d="M853.76,-639.16C841.03,-637.99 827.93,-636.78 815.26,-635.61"/>
<polygon fill="midnightblue" stroke="midnightblue" points="853.59,-642.66 863.86,-640.09 854.23,-635.69 853.59,-642.66"/>
</g>
<!-- Node22 -->
<g id="node19" class="node">
<title>Node22</title>
<g id="a_node19"><a xlink:href="wld__nl80211__api_8c.html#a93824e9719fe028eb11db9f7892bd00b" target="_top" xlink:title=" ">
<polygon fill="white" stroke="black" points="640.5,-580.5 640.5,-599.5 822.5,-599.5 822.5,-580.5 640.5,-580.5"/>
<text text-anchor="middle" x="731.5" y="-587.5" font-family="Helvetica,sans-Serif" font-size="10.00">wld_nl80211_getVendorWiphyInfo</text>
</a>
</g>
</g>
<!-- Node1&#45;&gt;Node22 -->
<g id="edge18" class="edge">
<title>Node1&#45;&gt;Node22</title>
<path fill="none" stroke="midnightblue" d="M904.71,-633.93C882.96,-625.98 854.1,-616.03 828,-609 814.78,-605.44 800.36,-602.23 786.83,-599.5"/>
<polygon fill="midnightblue" stroke="midnightblue" points="903.57,-637.25 914.17,-637.43 906,-630.68 903.57,-637.25"/>
</g>
<!-- Node23 -->
<g id="node20" class="node">
<title>Node23</title>
<g id="a_node20"><a xlink:href="wld__nl80211__api_8c.html#af9a489d0e99a230994b5a268ce672db8" target="_top" xlink:title=" ">
<polygon fill="white" stroke="black" points="657,-542.5 657,-561.5 806,-561.5 806,-542.5 657,-542.5"/>
<text text-anchor="middle" x="731.5" y="-549.5" font-family="Helvetica,sans-Serif" font-size="10.00">wld_nl80211_getWiphyInfo</text>
</a>
</g>
</g>
<!-- Node1&#45;&gt;Node23 -->
<g id="edge19" class="edge">
<title>Node1&#45;&gt;Node23</title>
<path fill="none" stroke="midnightblue" d="M920.45,-630.76C899.46,-613.28 863.57,-585.97 828,-571 818.73,-567.1 808.61,-563.98 798.54,-561.5"/>
<polygon fill="midnightblue" stroke="midnightblue" points="918.34,-633.56 928.23,-637.37 922.87,-628.23 918.34,-633.56"/>
</g>
<!-- Node30 -->
<g id="node26" class="node">
<title>Node30</title>
<g id="a_node26"><a xlink:href="wld__nl80211__api_8c.html#a64c3ec3884b5ea756ec0f8529a804dd5" target="_top" xlink:title=" ">
<polygon fill="white" stroke="black" points="655.5,-482.5 655.5,-501.5 807.5,-501.5 807.5,-482.5 655.5,-482.5"/>
<text text-anchor="middle" x="731.5" y="-489.5" font-family="Helvetica,sans-Serif" font-size="10.00">wld_nl80211_registerFrame</text>
</a>
</g>
</g>
<!-- Node1&#45;&gt;Node30 -->
<g id="edge25" class="edge">
<title>Node1&#45;&gt;Node30</title>
<path fill="none" stroke="midnightblue" d="M925.4,-629.14C906.03,-604.71 868.35,-560.73 828,-533 807.93,-519.2 782.47,-508.56 762.88,-501.57"/>
<polygon fill="midnightblue" stroke="midnightblue" points="922.77,-631.46 931.68,-637.19 928.29,-627.15 922.77,-631.46"/>
</g>
<!-- Node32 -->
<g id="node28" class="node">
<title>Node32</title>
<g id="a_node28"><a xlink:href="wld__nl80211__core_8c.html#a2f124c7a531325213fab90ab2a181035" target="_top" xlink:title=" ">
<polygon fill="white" stroke="black" points="635,-236.5 635,-255.5 828,-255.5 828,-236.5 635,-236.5"/>
<text text-anchor="middle" x="731.5" y="-243.5" font-family="Helvetica,sans-Serif" font-size="10.00">wld_nl80211_sendCmdSyncWithAck</text>
</a>
</g>
</g>
<!-- Node1&#45;&gt;Node32 -->
<g id="edge27" class="edge">
<title>Node1&#45;&gt;Node32</title>
<path fill="none" stroke="midnightblue" d="M929.43,-628.42C893.09,-557.85 764.34,-307.83 737.45,-255.61"/>
<polygon fill="midnightblue" stroke="midnightblue" points="926.41,-630.2 934.1,-637.48 932.63,-626.99 926.41,-630.2"/>
</g>
<!-- Node4 -->
<g id="node4" class="node">
<title>Node4</title>
<g id="a_node4"><a xlink:href="wld__nl80211__api_8c.html#ad48ebd641a9725b0e39fa7b8d6dfb3a7" target="_top" xlink:title=" ">
<polygon fill="white" stroke="black" points="422.5,-859 422.5,-889 590.5,-889 590.5,-859 422.5,-859"/>
<text text-anchor="start" x="430.5" y="-877" font-family="Helvetica,sans-Serif" font-size="10.00">wld_nl80211_addDefaultWiphy</text>
<text text-anchor="middle" x="506.5" y="-866" font-family="Helvetica,sans-Serif" font-size="10.00">InterfacesExt</text>
</a>
</g>
</g>
<!-- Node3&#45;&gt;Node4 -->
<g id="edge3" class="edge">
<title>Node3&#45;&gt;Node4</title>
<path fill="none" stroke="midnightblue" d="M647.64,-805.08C643.26,-806.82 639.02,-808.78 635,-811 614.63,-822.24 618.96,-837.05 599,-849 592.5,-852.89 585.38,-856.19 578.08,-858.99"/>
<polygon fill="midnightblue" stroke="midnightblue" points="649.12,-808.27 657.38,-801.64 646.79,-801.67 649.12,-808.27"/>
</g>
<!-- Node6 -->
<g id="node6" class="node">
<title>Node6</title>
<g id="a_node6"><a xlink:href="wld__nl80211__api_8c.html#a912b5e4cbc5e51be024fd8929c4bb5b3" target="_top" xlink:title=" ">
<polygon fill="white" stroke="black" points="433,-820.5 433,-839.5 580,-839.5 580,-820.5 433,-820.5"/>
<text text-anchor="middle" x="506.5" y="-827.5" font-family="Helvetica,sans-Serif" font-size="10.00">wld_nl80211_getChanSpec</text>
</a>
</g>
</g>
<!-- Node5&#45;&gt;Node6 -->
<g id="edge5" class="edge">
<title>Node5&#45;&gt;Node6</title>
<path fill="none" stroke="midnightblue" d="M647.64,-767.08C643.26,-768.82 639.02,-770.78 635,-773 614.63,-784.24 619.32,-799.67 599,-811 592.06,-814.87 584.42,-817.96 576.61,-820.41"/>
<polygon fill="midnightblue" stroke="midnightblue" points="649.12,-770.27 657.38,-763.64 646.79,-763.67 649.12,-770.27"/>
</g>
<!-- Node7 -->
<g id="node7" class="node">
<title>Node7</title>
<g id="a_node7"><a xlink:href="wld__nl80211__api_8c.html#a631f7f8ec3a7cf2a85ad4ac15ffe4b2f" target="_top" xlink:title=" ">
<polygon fill="white" stroke="black" points="436,-782.5 436,-801.5 577,-801.5 577,-782.5 436,-782.5"/>
<text text-anchor="middle" x="506.5" y="-789.5" font-family="Helvetica,sans-Serif" font-size="10.00">wld_nl80211_getTxPower</text>
</a>
</g>
</g>
<!-- Node5&#45;&gt;Node7 -->
<g id="edge6" class="edge">
<title>Node5&#45;&gt;Node7</title>
<path fill="none" stroke="midnightblue" d="M664.33,-765.28C632.25,-770.74 594.13,-777.24 563.51,-782.46"/>
<polygon fill="midnightblue" stroke="midnightblue" points="665.25,-768.67 674.52,-763.54 664.07,-761.77 665.25,-768.67"/>
</g>
<!-- Node11 -->
<g id="node9" class="node">
<title>Node11</title>
<g id="a_node9"><a xlink:href="wld__rad__nl80211_8c.html#a34acd2cf01d19d3900cb06f98f203c35" target="_top" xlink:title=" ">
<polygon fill="white" stroke="black" points="0,-127.5 0,-146.5 166,-146.5 166,-127.5 0,-127.5"/>
<text text-anchor="middle" x="83" y="-134.5" font-family="Helvetica,sans-Serif" font-size="10.00">wld_rad_nl80211_addInterface</text>
</a>
</g>
</g>
<!-- Node5&#45;&gt;Node11 -->
<g id="edge8" class="edge">
<title>Node5&#45;&gt;Node11</title>
<path fill="none" stroke="midnightblue" d="M660.28,-764.76C544.82,-778 316.33,-784.6 202,-653 131.78,-572.18 91.63,-211.03 84.99,-146.79"/>
<polygon fill="midnightblue" stroke="midnightblue" points="660.9,-768.21 670.41,-763.55 660.07,-761.26 660.9,-768.21"/>
</g>
<!-- Node8 -->
<g id="node8" class="node">
<title>Node8</title>
<g id="a_node8"><a xlink:href="wld__rad__nl80211_8c.html#a141342d3997dbceaae28134e2d27a480" target="_top" xlink:title=" ">
<polygon fill="white" stroke="red" points="209,-782.5 209,-801.5 371,-801.5 371,-782.5 209,-782.5"/>
<text text-anchor="middle" x="290" y="-789.5" font-family="Helvetica,sans-Serif" font-size="10.00">wld_rad_nl80211_getTxPower</text>
</a>
</g>
</g>
<!-- Node7&#45;&gt;Node8 -->
<g id="edge7" class="edge">
<title>Node7&#45;&gt;Node8</title>
<path fill="none" stroke="midnightblue" d="M425.53,-792C407.74,-792 388.88,-792 371.09,-792"/>
<polygon fill="midnightblue" stroke="midnightblue" points="425.86,-795.5 435.86,-792 425.86,-788.5 425.86,-795.5"/>
</g>
<!-- Node13 -->
<g id="node11" class="node">
<title>Node13</title>
<g id="a_node11"><a xlink:href="wld__nl80211__api_8c.html#a9a971f8364508d0502fcbca256b5b92d" target="_top" xlink:title=" ">
<polygon fill="white" stroke="black" points="435,-695 435,-725 578,-725 578,-695 435,-695"/>
<text text-anchor="start" x="443" y="-713" font-family="Helvetica,sans-Serif" font-size="10.00">wld_nl80211_findMldIface</text>
<text text-anchor="middle" x="506.5" y="-702" font-family="Helvetica,sans-Serif" font-size="10.00">ByLinkMac</text>
</a>
</g>
</g>
<!-- Node12&#45;&gt;Node13 -->
<g id="edge10" class="edge">
<title>Node12&#45;&gt;Node13</title>
<path fill="none" stroke="midnightblue" d="M638.6,-706.47C618.45,-707.01 597.41,-707.58 578.24,-708.1"/>
<polygon fill="midnightblue" stroke="midnightblue" points="638.83,-709.97 648.73,-706.2 638.64,-702.97 638.83,-709.97"/>
</g>
<!-- Node14 -->
<g id="node12" class="node">
<title>Node14</title>
<g id="a_node12"><a xlink:href="wld__nl80211__api_8c.html#a56a013e70058b1711c7eab120bc75a18" target="_top" xlink:title=" ">
<polygon fill="white" stroke="black" points="432.5,-656.5 432.5,-675.5 580.5,-675.5 580.5,-656.5 432.5,-656.5"/>
<text text-anchor="middle" x="506.5" y="-663.5" font-family="Helvetica,sans-Serif" font-size="10.00">wld_nl80211_getInterfaces</text>
</a>
</g>
</g>
<!-- Node12&#45;&gt;Node14 -->
<g id="edge11" class="edge">
<title>Node12&#45;&gt;Node14</title>
<path fill="none" stroke="midnightblue" d="M664.33,-692.72C632.25,-687.26 594.13,-680.76 563.51,-675.54"/>
<polygon fill="midnightblue" stroke="midnightblue" points="664.07,-696.23 674.52,-694.46 665.25,-689.33 664.07,-696.23"/>
</g>
<!-- Node17 -->
<g id="node15" class="node">
<title>Node17</title>
<g id="a_node15"><a xlink:href="wld__nl80211__api_8c.html#a1dc4224cc8abbd498c2ac50c53d34645" target="_top" xlink:title=" ">
<polygon fill="white" stroke="black" points="430.5,-618.5 430.5,-637.5 582.5,-637.5 582.5,-618.5 430.5,-618.5"/>
<text text-anchor="middle" x="506.5" y="-625.5" font-family="Helvetica,sans-Serif" font-size="10.00">wld_nl80211_getSurveyInfo</text>
</a>
</g>
</g>
<!-- Node16&#45;&gt;Node17 -->
<g id="edge14" class="edge">
<title>Node16&#45;&gt;Node17</title>
<path fill="none" stroke="midnightblue" d="M637.69,-628C619.37,-628 600.37,-628 582.72,-628"/>
<polygon fill="midnightblue" stroke="midnightblue" points="637.78,-631.5 647.78,-628 637.78,-624.5 637.78,-631.5"/>
</g>
<!-- Node18 -->
<g id="node16" class="node">
<title>Node18</title>
<g id="a_node16"><a xlink:href="wld__rad__nl80211_8c.html#a7d0b85b6f05fd1c5379f8f5b07e648ef" target="_top" xlink:title=" ">
<polygon fill="white" stroke="black" points="420,-580.5 420,-599.5 593,-599.5 593,-580.5 420,-580.5"/>
<text text-anchor="middle" x="506.5" y="-587.5" font-family="Helvetica,sans-Serif" font-size="10.00">wld_rad_nl80211_getSurveyInfo</text>
</a>
</g>
</g>
<!-- Node16&#45;&gt;Node18 -->
<g id="edge15" class="edge">
<title>Node16&#45;&gt;Node18</title>
<path fill="none" stroke="midnightblue" d="M664.33,-616.72C632.25,-611.26 594.13,-604.76 563.51,-599.54"/>
<polygon fill="midnightblue" stroke="midnightblue" points="664.07,-620.23 674.52,-618.46 665.25,-613.33 664.07,-620.23"/>
</g>
<!-- Node19 -->
<g id="node17" class="node">
<title>Node19</title>
<g id="a_node17"><a xlink:href="wifiGen__rad_8c.html#a63ca0312efb1460f235020f8d8fbf442" target="_top" xlink:title=" ">
<polygon fill="white" stroke="black" points="209.5,-624.5 209.5,-643.5 370.5,-643.5 370.5,-624.5 209.5,-624.5"/>
<text text-anchor="middle" x="290" y="-631.5" font-family="Helvetica,sans-Serif" font-size="10.00">wifiGen_rad_getSpectrumInfo</text>
</a>
</g>
</g>
<!-- Node18&#45;&gt;Node19 -->
<g id="edge16" class="edge">
<title>Node18&#45;&gt;Node19</title>
<path fill="none" stroke="midnightblue" d="M448.95,-601.6C414.18,-608.73 370.18,-617.76 337.45,-624.47"/>
<polygon fill="midnightblue" stroke="midnightblue" points="449.86,-604.99 458.96,-599.55 448.46,-598.13 449.86,-604.99"/>
</g>
<!-- Node20 -->
<g id="node18" class="node">
<title>Node20</title>
<g id="a_node18"><a xlink:href="wld__rad__nl80211_8c.html#a6fe347344e38456f156665255d93b4a0" target="_top" xlink:title=" ">
<polygon fill="white" stroke="red" points="211,-586.5 211,-605.5 369,-605.5 369,-586.5 211,-586.5"/>
<text text-anchor="middle" x="290" y="-593.5" font-family="Helvetica,sans-Serif" font-size="10.00">wld_rad_nl80211_getAirstats</text>
</a>
</g>
</g>
<!-- Node18&#45;&gt;Node20 -->
<g id="edge17" class="edge">
<title>Node18&#45;&gt;Node20</title>
<path fill="none" stroke="midnightblue" d="M409.55,-592.68C396.08,-593.06 382.36,-593.44 369.27,-593.81"/>
<polygon fill="midnightblue" stroke="midnightblue" points="409.9,-596.18 419.8,-592.4 409.71,-589.18 409.9,-596.18"/>
</g>
<!-- Node24 -->
<g id="node21" class="node">
<title>Node24</title>
<g id="a_node21"><a xlink:href="wld__nl80211__api_8c.html#a5c34a7f305da83b45a675ca70f943298" target="_top" xlink:title=" ">
<polygon fill="white" stroke="black" points="414,-542.5 414,-561.5 599,-561.5 599,-542.5 414,-542.5"/>
<text text-anchor="middle" x="506.5" y="-549.5" font-family="Helvetica,sans-Serif" font-size="10.00">wld_nl80211_getMaxTxPowerdBm</text>
</a>
</g>
</g>
<!-- Node23&#45;&gt;Node24 -->
<g id="edge20" class="edge">
<title>Node23&#45;&gt;Node24</title>
<path fill="none" stroke="midnightblue" d="M646.81,-552C631.32,-552 615.07,-552 599.36,-552"/>
<polygon fill="midnightblue" stroke="midnightblue" points="646.86,-555.5 656.86,-552 646.86,-548.5 646.86,-555.5"/>
</g>
<!-- Node27 -->
<g id="node23" class="node">
<title>Node27</title>
<g id="a_node23"><a xlink:href="wld__rad__nl80211_8c.html#aa95d2bdc9f9087faf376b9cc24ada5a8" target="_top" xlink:title=" ">
<polygon fill="white" stroke="black" points="421.5,-504.5 421.5,-523.5 591.5,-523.5 591.5,-504.5 421.5,-504.5"/>
<text text-anchor="middle" x="506.5" y="-511.5" font-family="Helvetica,sans-Serif" font-size="10.00">wld_rad_nl80211_getWiphyInfo</text>
</a>
</g>
</g>
<!-- Node23&#45;&gt;Node27 -->
<g id="edge22" class="edge">
<title>Node23&#45;&gt;Node27</title>
<path fill="none" stroke="midnightblue" d="M664.33,-540.72C632.25,-535.26 594.13,-528.76 563.51,-523.54"/>
<polygon fill="midnightblue" stroke="midnightblue" points="664.07,-544.23 674.52,-542.46 665.25,-537.33 664.07,-544.23"/>
</g>
<!-- Node25 -->
<g id="node22" class="node">
<title>Node25</title>
<g id="a_node22"><a xlink:href="wld__rad__nl80211_8c.html#a3f3e8050dc40df634616371b73ec662c" target="_top" xlink:title=" ">
<polygon fill="white" stroke="red" points="213.5,-537 213.5,-567 366.5,-567 366.5,-537 213.5,-537"/>
<text text-anchor="start" x="221.5" y="-555" font-family="Helvetica,sans-Serif" font-size="10.00">wld_rad_nl80211_getMaxTx</text>
<text text-anchor="middle" x="290" y="-544" font-family="Helvetica,sans-Serif" font-size="10.00">PowerdBm</text>
</a>
</g>
</g>
<!-- Node24&#45;&gt;Node25 -->
<g id="edge21" class="edge">
<title>Node24&#45;&gt;Node25</title>
<path fill="none" stroke="midnightblue" d="M403.55,-552C391.17,-552 378.69,-552 366.78,-552"/>
<polygon fill="midnightblue" stroke="midnightblue" points="403.91,-555.5 413.91,-552 403.91,-548.5 403.91,-555.5"/>
</g>
<!-- Node28 -->
<g id="node24" class="node">
<title>Node28</title>
<g id="a_node24"><a xlink:href="wifiGen__rad_8c.html#a773e3bf8638f377f248e9c7a0cba4442" target="_top" xlink:title=" ">
<polygon fill="white" stroke="red" points="248,-498.5 248,-517.5 332,-517.5 332,-498.5 248,-498.5"/>
<text text-anchor="middle" x="290" y="-505.5" font-family="Helvetica,sans-Serif" font-size="10.00">s_getMaxPow</text>
</a>
</g>
</g>
<!-- Node27&#45;&gt;Node28 -->
<g id="edge23" class="edge">
<title>Node27&#45;&gt;Node28</title>
<path fill="none" stroke="midnightblue" d="M411.21,-511.36C383.52,-510.59 354.67,-509.78 332.17,-509.15"/>
<polygon fill="midnightblue" stroke="midnightblue" points="411.25,-514.86 421.34,-511.65 411.44,-507.87 411.25,-514.86"/>
</g>
<!-- Node29 -->
<g id="node25" class="node">
<title>Node29</title>
<g id="a_node25"><a xlink:href="wifiGen__rad_8c.html#a5971e495b5dfe5dc615d5c1c050faa87" target="_top" xlink:title=" ">
<polygon fill="white" stroke="black" points="227.5,-460.5 227.5,-479.5 352.5,-479.5 352.5,-460.5 227.5,-460.5"/>
<text text-anchor="middle" x="290" y="-467.5" font-family="Helvetica,sans-Serif" font-size="10.00">wifiGen_rad_poschans</text>
</a>
</g>
</g>
<!-- Node27&#45;&gt;Node29 -->
<g id="edge24" class="edge">
<title>Node27&#45;&gt;Node29</title>
<path fill="none" stroke="midnightblue" d="M448.95,-502.4C414.18,-495.27 370.18,-486.24 337.45,-479.53"/>
<polygon fill="midnightblue" stroke="midnightblue" points="448.46,-505.87 458.96,-504.45 449.86,-499.01 448.46,-505.87"/>
</g>
<!-- Node31 -->
<g id="node27" class="node">
<title>Node31</title>
<g id="a_node27"><a xlink:href="wld__rad__nl80211_8c.html#a814c188e5fdcbf723cf1a2a85a429814" target="_top" xlink:title=" ">
<polygon fill="white" stroke="black" points="435.5,-455 435.5,-485 577.5,-485 577.5,-455 435.5,-455"/>
<text text-anchor="start" x="443.5" y="-473" font-family="Helvetica,sans-Serif" font-size="10.00">wld_rad_nl80211_register</text>
<text text-anchor="middle" x="506.5" y="-462" font-family="Helvetica,sans-Serif" font-size="10.00">Frame</text>
</a>
</g>
</g>
<!-- Node30&#45;&gt;Node31 -->
<g id="edge26" class="edge">
<title>Node30&#45;&gt;Node31</title>
<path fill="none" stroke="midnightblue" d="M645.21,-483.59C622.95,-481.39 599.23,-479.05 577.84,-476.94"/>
<polygon fill="midnightblue" stroke="midnightblue" points="645.02,-487.08 655.31,-484.58 645.71,-480.12 645.02,-487.08"/>
</g>
<!-- Node33 -->
<g id="node29" class="node">
<title>Node33</title>
<g id="a_node29"><a xlink:href="wld__nl80211__api_8c.html#a2f4aebd7b76c2f3fedc0a004380763f9" target="_top" xlink:title=" ">
<polygon fill="white" stroke="black" points="440.5,-416.5 440.5,-435.5 572.5,-435.5 572.5,-416.5 440.5,-416.5"/>
<text text-anchor="middle" x="506.5" y="-423.5" font-family="Helvetica,sans-Serif" font-size="10.00">wld_nl80211_abortScan</text>
</a>
</g>
</g>
<!-- Node32&#45;&gt;Node33 -->
<g id="edge28" class="edge">
<title>Node32&#45;&gt;Node33</title>
<path fill="none" stroke="midnightblue" d="M721.07,-264.39C702.61,-298.43 658.26,-371.05 599,-407 590.95,-411.88 581.86,-415.53 572.6,-418.24"/>
<polygon fill="midnightblue" stroke="midnightblue" points="724.19,-265.99 725.77,-255.51 718,-262.71 724.19,-265.99"/>
</g>
<!-- Node35 -->
<g id="node31" class="node">
<title>Node35</title>
<g id="a_node31"><a xlink:href="wld__nl80211__api_8c.html#a6daf0ff702d48036740aea1225b7ccd7" target="_top" xlink:title=" ">
<polygon fill="white" stroke="black" points="439,-378.5 439,-397.5 574,-397.5 574,-378.5 439,-378.5"/>
<text text-anchor="middle" x="506.5" y="-385.5" font-family="Helvetica,sans-Serif" font-size="10.00">wld_nl80211_bgDfsStart</text>
</a>
</g>
</g>
<!-- Node32&#45;&gt;Node35 -->
<g id="edge30" class="edge">
<title>Node32&#45;&gt;Node35</title>
<path fill="none" stroke="midnightblue" d="M717.01,-263.75C695.3,-290.97 649.86,-342.63 599,-369 591.37,-372.96 582.97,-376.09 574.46,-378.57"/>
<polygon fill="midnightblue" stroke="midnightblue" points="720.03,-265.56 723.43,-255.53 714.52,-261.25 720.03,-265.56"/>
</g>
<!-- Node38 -->
<g id="node33" class="node">
<title>Node38</title>
<g id="a_node33"><a xlink:href="wld__nl80211__api_8c.html#aa8dd2626e3aac6906d9f1f604134ff4b" target="_top" xlink:title=" ">
<polygon fill="white" stroke="black" points="439.5,-340.5 439.5,-359.5 573.5,-359.5 573.5,-340.5 439.5,-340.5"/>
<text text-anchor="middle" x="506.5" y="-347.5" font-family="Helvetica,sans-Serif" font-size="10.00">wld_nl80211_bgDfsStop</text>
</a>
</g>
</g>
<!-- Node32&#45;&gt;Node38 -->
<g id="edge32" class="edge">
<title>Node32&#45;&gt;Node38</title>
<path fill="none" stroke="midnightblue" d="M711.18,-261.8C686.62,-281.08 642.2,-313.28 599,-331 589.69,-334.82 579.53,-337.9 569.47,-340.38"/>
<polygon fill="midnightblue" stroke="midnightblue" points="713.37,-264.54 719.01,-255.57 709,-259.06 713.37,-264.54"/>
</g>
<!-- Node41 -->
<g id="node35" class="node">
<title>Node41</title>
<g id="a_node35"><a xlink:href="wld__nl80211__api_8c.html#a13e5b3c1c1cb6b0903ded6297c4741ab" target="_top" xlink:title=" ">
<polygon fill="white" stroke="black" points="435.5,-302.5 435.5,-321.5 577.5,-321.5 577.5,-302.5 435.5,-302.5"/>
<text text-anchor="middle" x="506.5" y="-309.5" font-family="Helvetica,sans-Serif" font-size="10.00">wld_nl80211_delInterface</text>
</a>
</g>
</g>
<!-- Node32&#45;&gt;Node41 -->
<g id="edge34" class="edge">
<title>Node32&#45;&gt;Node41</title>
<path fill="none" stroke="midnightblue" d="M696.55,-259.15C670.21,-269.05 632.64,-282.48 599,-292 585.39,-295.85 570.46,-299.4 556.68,-302.4"/>
<polygon fill="midnightblue" stroke="midnightblue" points="697.95,-262.36 706.06,-255.55 695.47,-255.82 697.95,-262.36"/>
</g>
<!-- Node44 -->
<g id="node38" class="node">
<title>Node44</title>
<g id="a_node38"><a xlink:href="wld__nl80211__api_8c.html#a5efa7e8d66bb2b1570d17a3b5934726d" target="_top" xlink:title=" ">
<polygon fill="white" stroke="black" points="421,-253 421,-283 592,-283 592,-253 421,-253"/>
<text text-anchor="start" x="429" y="-271" font-family="Helvetica,sans-Serif" font-size="10.00">wld_nl80211_sendManagement</text>
<text text-anchor="middle" x="506.5" y="-260" font-family="Helvetica,sans-Serif" font-size="10.00">FrameCmd</text>
</a>
</g>
</g>
<!-- Node32&#45;&gt;Node44 -->
<g id="edge37" class="edge">
<title>Node32&#45;&gt;Node44</title>
<path fill="none" stroke="midnightblue" d="M624.94,-256.41C613.99,-257.49 602.97,-258.58 592.29,-259.64"/>
<polygon fill="midnightblue" stroke="midnightblue" points="625.35,-259.89 634.96,-255.43 624.66,-252.92 625.35,-259.89"/>
</g>
<!-- Node45 -->
<g id="node39" class="node">
<title>Node45</title>
<g id="a_node39"><a xlink:href="wld__nl80211__api_8c.html#a6b3cf23329afffa8df5d146fc9f0def6" target="_top" xlink:title=" ">
<polygon fill="white" stroke="black" points="416,-214.5 416,-233.5 597,-233.5 597,-214.5 416,-214.5"/>
<text text-anchor="middle" x="506.5" y="-221.5" font-family="Helvetica,sans-Serif" font-size="10.00">wld_nl80211_sendVendorSubCmd</text>
</a>
</g>
</g>
<!-- Node32&#45;&gt;Node45 -->
<g id="edge38" class="edge">
<title>Node32&#45;&gt;Node45</title>
<path fill="none" stroke="midnightblue" d="M624.93,-235.58C615.65,-234.67 606.32,-233.75 597.19,-232.85"/>
<polygon fill="midnightblue" stroke="midnightblue" points="624.66,-239.08 634.96,-236.57 625.35,-232.11 624.66,-239.08"/>
</g>
<!-- Node47 -->
<g id="node41" class="node">
<title>Node47</title>
<g id="a_node41"><a xlink:href="wld__nl80211__api_8c.html#a13c8f3d48b70f13d45380d27a5db608c" target="_top" xlink:title=" ">
<polygon fill="white" stroke="black" points="427.5,-165 427.5,-195 585.5,-195 585.5,-165 427.5,-165"/>
<text text-anchor="start" x="435.5" y="-183" font-family="Helvetica,sans-Serif" font-size="10.00">wld_nl80211_sendVendorSub</text>
<text text-anchor="middle" x="506.5" y="-172" font-family="Helvetica,sans-Serif" font-size="10.00">CmdAttr</text>
</a>
</g>
</g>
<!-- Node32&#45;&gt;Node47 -->
<g id="edge40" class="edge">
<title>Node32&#45;&gt;Node47</title>
<path fill="none" stroke="midnightblue" d="M691.55,-233.46C665.44,-225.15 630.24,-214.14 599,-205 587.62,-201.67 575.4,-198.24 563.72,-195.02"/>
<polygon fill="midnightblue" stroke="midnightblue" points="690.49,-236.79 701.08,-236.5 692.62,-230.13 690.49,-236.79"/>
</g>
<!-- Node49 -->
<g id="node43" class="node">
<title>Node49</title>
<g id="a_node43"><a xlink:href="wld__nl80211__api_8c.html#af75242af240f2d0a582e316bfe1f9392" target="_top" xlink:title=" ">
<polygon fill="white" stroke="black" points="424.5,-126.5 424.5,-145.5 588.5,-145.5 588.5,-126.5 424.5,-126.5"/>
<text text-anchor="middle" x="506.5" y="-133.5" font-family="Helvetica,sans-Serif" font-size="10.00">wld_nl80211_setInterfaceType</text>
</a>
</g>
</g>
<!-- Node32&#45;&gt;Node49 -->
<g id="edge42" class="edge">
<title>Node32&#45;&gt;Node49</title>
<path fill="none" stroke="midnightblue" d="M712.14,-229.67C687.96,-209.05 643.28,-173.99 599,-155 590.05,-151.16 580.27,-148.08 570.54,-145.61"/>
<polygon fill="midnightblue" stroke="midnightblue" points="709.96,-232.41 719.81,-236.31 714.54,-227.11 709.96,-232.41"/>
</g>
<!-- Node52 -->
<g id="node46" class="node">
<title>Node52</title>
<g id="a_node46"><a xlink:href="wld__nl80211__api_8c.html#af4704087fc79db050a424f3e812eae65" target="_top" xlink:title=" ">
<polygon fill="white" stroke="black" points="435.5,-77 435.5,-107 577.5,-107 577.5,-77 435.5,-77"/>
<text text-anchor="start" x="443.5" y="-95" font-family="Helvetica,sans-Serif" font-size="10.00">wld_nl80211_setInterface</text>
<text text-anchor="middle" x="506.5" y="-84" font-family="Helvetica,sans-Serif" font-size="10.00">Use4Mac</text>
</a>
</g>
</g>
<!-- Node32&#45;&gt;Node52 -->
<g id="edge47" class="edge">
<title>Node32&#45;&gt;Node52</title>
<path fill="none" stroke="midnightblue" d="M717.28,-228.12C695.68,-200.17 650.05,-146.32 599,-117 592.29,-113.15 584.96,-109.86 577.46,-107.07"/>
<polygon fill="midnightblue" stroke="midnightblue" points="714.6,-230.37 723.43,-236.22 720.17,-226.13 714.6,-230.37"/>
</g>
<!-- Node54 -->
<g id="node48" class="node">
<title>Node54</title>
<g id="a_node48"><a xlink:href="wld__nl80211__api_8c.html#afea112af9c64dd8dd1d7005cee898355" target="_top" xlink:title=" ">
<polygon fill="white" stroke="black" points="429,-38.5 429,-57.5 584,-57.5 584,-38.5 429,-38.5"/>
<text text-anchor="middle" x="506.5" y="-45.5" font-family="Helvetica,sans-Serif" font-size="10.00">wld_nl80211_setRegDomain</text>
</a>
</g>
</g>
<!-- Node32&#45;&gt;Node54 -->
<g id="edge49" class="edge">
<title>Node32&#45;&gt;Node54</title>
<path fill="none" stroke="midnightblue" d="M722.36,-227.1C705.31,-189.97 662.17,-107.57 599,-67 592.99,-63.14 586.35,-60.05 579.46,-57.57"/>
<polygon fill="midnightblue" stroke="midnightblue" points="719.19,-228.6 726.47,-236.3 725.58,-225.75 719.19,-228.6"/>
</g>
<!-- Node57 -->
<g id="node50" class="node">
<title>Node57</title>
<g id="a_node50"><a xlink:href="wld__nl80211__api_8c.html#ac08879bb26f97a242a0c631fc55d1cfd" target="_top" xlink:title=" ">
<polygon fill="white" stroke="red" points="419,-0.5 419,-19.5 594,-19.5 594,-0.5 419,-0.5"/>
<text text-anchor="middle" x="506.5" y="-7.5" font-family="Helvetica,sans-Serif" font-size="10.00">wld_nl80211_setWiphyAntennas</text>
</a>
</g>
</g>
<!-- Node32&#45;&gt;Node57 -->
<g id="edge51" class="edge">
<title>Node32&#45;&gt;Node57</title>
<path fill="none" stroke="midnightblue" d="M724.71,-226.72C710.75,-183.75 670.96,-79.87 599,-29 593.57,-25.16 587.53,-22.06 581.22,-19.57"/>
<polygon fill="midnightblue" stroke="midnightblue" points="721.37,-227.77 727.71,-236.27 728.05,-225.68 721.37,-227.77"/>
</g>
<!-- Node34 -->
<g id="node30" class="node">
<title>Node34</title>
<g id="a_node30"><a xlink:href="wld__nl80211__scan_8c.html#ae14e3f81292e950d99fa22112e30b7b5" target="_top" xlink:title=" ">
<polygon fill="white" stroke="black" points="213.5,-416.5 213.5,-435.5 366.5,-435.5 366.5,-416.5 213.5,-416.5"/>
<text text-anchor="middle" x="290" y="-423.5" font-family="Helvetica,sans-Serif" font-size="10.00">wld_rad_nl80211_abortScan</text>
</a>
</g>
</g>
<!-- Node33&#45;&gt;Node34 -->
<g id="edge29" class="edge">
<title>Node33&#45;&gt;Node34</title>
<path fill="none" stroke="midnightblue" d="M430.04,-426C409.55,-426 387.35,-426 366.83,-426"/>
<polygon fill="midnightblue" stroke="midnightblue" points="430.27,-429.5 440.27,-426 430.27,-422.5 430.27,-429.5"/>
</g>
<!-- Node36 -->
<g id="node32" class="node">
<title>Node36</title>
<g id="a_node32"><a xlink:href="wld__rad__nl80211_8c.html#a612fc4497ec8133b6181e77a74bc7d0e" target="_top" xlink:title=" ">
<polygon fill="white" stroke="red" points="212,-378.5 212,-397.5 368,-397.5 368,-378.5 212,-378.5"/>
<text text-anchor="middle" x="290" y="-385.5" font-family="Helvetica,sans-Serif" font-size="10.00">wld_rad_nl80211_bgDfsStart</text>
</a>
</g>
</g>
<!-- Node35&#45;&gt;Node36 -->
<g id="edge31" class="edge">
<title>Node35&#45;&gt;Node36</title>
<path fill="none" stroke="midnightblue" d="M428.67,-388C409,-388 387.85,-388 368.16,-388"/>
<polygon fill="midnightblue" stroke="midnightblue" points="428.81,-391.5 438.81,-388 428.81,-384.5 428.81,-391.5"/>
</g>
<!-- Node39 -->
<g id="node34" class="node">
<title>Node39</title>
<g id="a_node34"><a xlink:href="wld__rad__nl80211_8c.html#a91f62b90e3141285f0b5c14bc3f1f05a" target="_top" xlink:title=" ">
<polygon fill="white" stroke="red" points="212.5,-340.5 212.5,-359.5 367.5,-359.5 367.5,-340.5 212.5,-340.5"/>
<text text-anchor="middle" x="290" y="-347.5" font-family="Helvetica,sans-Serif" font-size="10.00">wld_rad_nl80211_bgDfsStop</text>
</a>
</g>
</g>
<!-- Node38&#45;&gt;Node39 -->
<g id="edge33" class="edge">
<title>Node38&#45;&gt;Node39</title>
<path fill="none" stroke="midnightblue" d="M429.13,-350C409.21,-350 387.73,-350 367.79,-350"/>
<polygon fill="midnightblue" stroke="midnightblue" points="429.39,-353.5 439.39,-350 429.39,-346.5 429.39,-353.5"/>
</g>
<!-- Node42 -->
<g id="node36" class="node">
<title>Node42</title>
<g id="a_node36"><a xlink:href="wifiGen__radIfMgt_8c.html#ab9e00cca2a4610d47ccb49c3518cdc24" target="_top" xlink:title=" ">
<polygon fill="white" stroke="black" points="218,-302.5 218,-321.5 362,-321.5 362,-302.5 218,-302.5"/>
<text text-anchor="middle" x="290" y="-309.5" font-family="Helvetica,sans-Serif" font-size="10.00">wifiGen_rad_delendpointif</text>
</a>
</g>
</g>
<!-- Node41&#45;&gt;Node42 -->
<g id="edge35" class="edge">
<title>Node41&#45;&gt;Node42</title>
<path fill="none" stroke="midnightblue" d="M425.22,-312C404.5,-312 382.35,-312 362.13,-312"/>
<polygon fill="midnightblue" stroke="midnightblue" points="425.26,-315.5 435.26,-312 425.26,-308.5 425.26,-315.5"/>
</g>
<!-- Node43 -->
<g id="node37" class="node">
<title>Node43</title>
<g id="a_node37"><a xlink:href="wifiGen__radIfMgt_8c.html#a2408beb574b0d3bb9b0a03576f3859b7" target="_top" xlink:title=" ">
<polygon fill="white" stroke="black" points="230.5,-264.5 230.5,-283.5 349.5,-283.5 349.5,-264.5 230.5,-264.5"/>
<text text-anchor="middle" x="290" y="-271.5" font-family="Helvetica,sans-Serif" font-size="10.00">wifiGen_rad_delvapif</text>
</a>
</g>
</g>
<!-- Node41&#45;&gt;Node43 -->
<g id="edge36" class="edge">
<title>Node41&#45;&gt;Node43</title>
<path fill="none" stroke="midnightblue" d="M441.45,-300.65C410.67,-295.2 374.2,-288.74 344.87,-283.54"/>
<polygon fill="midnightblue" stroke="midnightblue" points="441.19,-304.16 451.65,-302.46 442.41,-297.27 441.19,-304.16"/>
</g>
<!-- Node46 -->
<g id="node40" class="node">
<title>Node46</title>
<g id="a_node40"><a xlink:href="wld__rad__nl80211_8c.html#ac3ba46bf8f7ca8bd12a69af18cabbaf3" target="_top" xlink:title=" ">
<polygon fill="white" stroke="black" points="209.5,-215 209.5,-245 370.5,-245 370.5,-215 209.5,-215"/>
<text text-anchor="start" x="217.5" y="-233" font-family="Helvetica,sans-Serif" font-size="10.00">wld_rad_nl80211_sendVendor</text>
<text text-anchor="middle" x="290" y="-222" font-family="Helvetica,sans-Serif" font-size="10.00">SubCmd</text>
</a>
</g>
</g>
<!-- Node45&#45;&gt;Node46 -->
<g id="edge39" class="edge">
<title>Node45&#45;&gt;Node46</title>
<path fill="none" stroke="midnightblue" d="M405.57,-226.8C393.92,-227.12 382.14,-227.45 370.81,-227.77"/>
<polygon fill="midnightblue" stroke="midnightblue" points="405.88,-230.29 415.78,-226.51 405.68,-223.29 405.88,-230.29"/>
</g>
<!-- Node48 -->
<g id="node42" class="node">
<title>Node48</title>
<g id="a_node42"><a xlink:href="wld__rad__nl80211_8c.html#a2fd70a691d1e20370c34ae77fca90f9b" target="_top" xlink:title=" ">
<polygon fill="white" stroke="black" points="209.5,-166 209.5,-196 370.5,-196 370.5,-166 209.5,-166"/>
<text text-anchor="start" x="217.5" y="-184" font-family="Helvetica,sans-Serif" font-size="10.00">wld_rad_nl80211_sendVendor</text>
<text text-anchor="middle" x="290" y="-173" font-family="Helvetica,sans-Serif" font-size="10.00">SubCmdAttr</text>
</a>
</g>
</g>
<!-- Node47&#45;&gt;Node48 -->
<g id="edge41" class="edge">
<title>Node47&#45;&gt;Node48</title>
<path fill="none" stroke="midnightblue" d="M417.4,-180.41C401.97,-180.48 385.98,-180.56 370.79,-180.63"/>
<polygon fill="midnightblue" stroke="midnightblue" points="417.47,-183.91 427.45,-180.36 417.44,-176.91 417.47,-183.91"/>
</g>
<!-- Node50 -->
<g id="node44" class="node">
<title>Node50</title>
<g id="a_node44"><a xlink:href="wld__rad__nl80211_8c.html#a85af5037c0598b793245852c20e92baf" target="_top" xlink:title=" ">
<polygon fill="white" stroke="black" points="224,-127.5 224,-146.5 356,-146.5 356,-127.5 224,-127.5"/>
<text text-anchor="middle" x="290" y="-134.5" font-family="Helvetica,sans-Serif" font-size="10.00">wld_rad_nl80211_setAp</text>
</a>
</g>
</g>
<!-- Node49&#45;&gt;Node50 -->
<g id="edge43" class="edge">
<title>Node49&#45;&gt;Node50</title>
<path fill="none" stroke="midnightblue" d="M414.27,-136.43C394.75,-136.52 374.49,-136.61 356.18,-136.7"/>
<polygon fill="midnightblue" stroke="midnightblue" points="414.42,-139.92 424.41,-136.38 414.39,-132.92 414.42,-139.92"/>
</g>
<!-- Node51 -->
<g id="node45" class="node">
<title>Node51</title>
<g id="a_node45"><a xlink:href="wld__rad__nl80211_8c.html#a251899dfab35f326fb3a4083339f78b8" target="_top" xlink:title=" ">
<polygon fill="white" stroke="black" points="222.5,-89.5 222.5,-108.5 357.5,-108.5 357.5,-89.5 222.5,-89.5"/>
<text text-anchor="middle" x="290" y="-96.5" font-family="Helvetica,sans-Serif" font-size="10.00">wld_rad_nl80211_setSta</text>
</a>
</g>
</g>
<!-- Node49&#45;&gt;Node51 -->
<g id="edge45" class="edge">
<title>Node49&#45;&gt;Node51</title>
<path fill="none" stroke="midnightblue" d="M440.31,-124.75C410.32,-119.58 375.11,-113.51 346.42,-108.56"/>
<polygon fill="midnightblue" stroke="midnightblue" points="439.81,-128.22 450.26,-126.47 441,-121.32 439.81,-128.22"/>
</g>
<!-- Node50&#45;&gt;Node11 -->
<g id="edge44" class="edge">
<title>Node50&#45;&gt;Node11</title>
<path fill="none" stroke="midnightblue" d="M213.83,-137C198.36,-137 182,-137 166.29,-137"/>
<polygon fill="midnightblue" stroke="midnightblue" points="213.86,-140.5 223.86,-137 213.86,-133.5 213.86,-140.5"/>
</g>
<!-- Node51&#45;&gt;Node11 -->
<g id="edge46" class="edge">
<title>Node51&#45;&gt;Node11</title>
<path fill="none" stroke="midnightblue" d="M227.4,-110.42C198.07,-115.86 163.39,-122.28 135.49,-127.46"/>
<polygon fill="midnightblue" stroke="midnightblue" points="228.34,-113.8 237.53,-108.54 227.06,-106.92 228.34,-113.8"/>
</g>
<!-- Node53 -->
<g id="node47" class="node">
<title>Node53</title>
<g id="a_node47"><a xlink:href="wld__rad__nl80211_8c.html#a94120451de6e22ee823defd982434aec" target="_top" xlink:title=" ">
<polygon fill="white" stroke="black" points="217,-51.5 217,-70.5 363,-70.5 363,-51.5 217,-51.5"/>
<text text-anchor="middle" x="290" y="-58.5" font-family="Helvetica,sans-Serif" font-size="10.00">wld_rad_nl80211_set4Mac</text>
</a>
</g>
</g>
<!-- Node52&#45;&gt;Node53 -->
<g id="edge48" class="edge">
<title>Node52&#45;&gt;Node53</title>
<path fill="none" stroke="midnightblue" d="M425.09,-80.38C402.65,-77.14 378.53,-73.65 357.03,-70.54"/>
<polygon fill="midnightblue" stroke="midnightblue" points="424.87,-83.88 435.26,-81.85 425.87,-76.95 424.87,-83.88"/>
</g>
<!-- Node55 -->
<g id="node49" class="node">
<title>Node55</title>
<g id="a_node49"><a xlink:href="wld__rad__nl80211_8c.html#ab58e5e6655022844345ceb72940e65a7" target="_top" xlink:title=" ">
<polygon fill="white" stroke="red" points="202,-13.5 202,-32.5 378,-32.5 378,-13.5 202,-13.5"/>
<text text-anchor="middle" x="290" y="-20.5" font-family="Helvetica,sans-Serif" font-size="10.00">wld_rad_nl80211_setRegDomain</text>
</a>
</g>
</g>
<!-- Node54&#45;&gt;Node55 -->
<g id="edge50" class="edge">
<title>Node54&#45;&gt;Node55</title>
<path fill="none" stroke="midnightblue" d="M419,-37.92C403.68,-36.13 387.77,-34.28 372.59,-32.51"/>
<polygon fill="midnightblue" stroke="midnightblue" points="418.63,-41.4 428.97,-39.08 419.44,-34.45 418.63,-41.4"/>
</g>
</g>
</svg>
