<?xml version="1.0" encoding="UTF-8" standalone="no"?>
<!DOCTYPE svg PUBLIC "-//W3C//DTD SVG 1.1//EN"
 "http://www.w3.org/Graphics/SVG/1.1/DTD/svg11.dtd">
<!-- Generated by graphviz version 2.43.0 (0)
 -->
<!-- Title: include/wld/wld_statsmon.h Pages: 1 -->
<svg width="580pt" height="95pt"
 viewBox="0.00 0.00 580.00 95.00" xmlns="http://www.w3.org/2000/svg" xmlns:xlink="http://www.w3.org/1999/xlink">
<g id="graph0" class="graph" transform="scale(1 1) rotate(0) translate(4 91)">
<title>include/wld/wld_statsmon.h</title>
<polygon fill="white" stroke="transparent" points="-4,4 -4,-91 576,-91 576,4 -4,4"/>
<!-- Node1 -->
<g id="node1" class="node">
<title>Node1</title>
<g id="a_node1"><a xlink:title=" ">
<polygon fill="#bfbfbf" stroke="black" points="222,-67.5 222,-86.5 374,-86.5 374,-67.5 222,-67.5"/>
<text text-anchor="middle" x="298" y="-74.5" font-family="Helvetica,sans-Serif" font-size="10.00">include/wld/wld_statsmon.h</text>
</a>
</g>
</g>
<!-- Node2 -->
<g id="node2" class="node">
<title>Node2</title>
<g id="a_node2"><a xlink:href="wifiGen__vap_8c.html" target="_top" xlink:title=" ">
<polygon fill="white" stroke="black" points="0,-0.5 0,-30.5 104,-30.5 104,-0.5 0,-0.5"/>
<text text-anchor="start" x="8" y="-18.5" font-family="Helvetica,sans-Serif" font-size="10.00">src/Plugin/wifiGen</text>
<text text-anchor="middle" x="52" y="-7.5" font-family="Helvetica,sans-Serif" font-size="10.00">_vap.c</text>
</a>
</g>
</g>
<!-- Node1&#45;&gt;Node2 -->
<g id="edge1" class="edge">
<title>Node1&#45;&gt;Node2</title>
<path fill="none" stroke="midnightblue" d="M252.82,-65.07C210.89,-54.93 148.47,-39.83 104.38,-29.17"/>
<polygon fill="midnightblue" stroke="midnightblue" points="252.21,-68.53 262.75,-67.48 253.86,-61.72 252.21,-68.53"/>
</g>
<!-- Node3 -->
<g id="node3" class="node">
<title>Node3</title>
<g id="a_node3"><a xlink:href="wld__rad__ifMgt_8c.html" target="_top" xlink:title=" ">
<polygon fill="white" stroke="black" points="122.5,-0.5 122.5,-30.5 235.5,-30.5 235.5,-0.5 122.5,-0.5"/>
<text text-anchor="start" x="130.5" y="-18.5" font-family="Helvetica,sans-Serif" font-size="10.00">src/RadMgt/wld_rad</text>
<text text-anchor="middle" x="179" y="-7.5" font-family="Helvetica,sans-Serif" font-size="10.00">_ifMgt.c</text>
</a>
</g>
</g>
<!-- Node1&#45;&gt;Node3 -->
<g id="edge2" class="edge">
<title>Node1&#45;&gt;Node3</title>
<path fill="none" stroke="midnightblue" d="M271.88,-62.94C252.69,-53.35 226.67,-40.33 207.05,-30.52"/>
<polygon fill="midnightblue" stroke="midnightblue" points="270.44,-66.13 280.95,-67.48 273.57,-59.87 270.44,-66.13"/>
</g>
<!-- Node4 -->
<g id="node4" class="node">
<title>Node4</title>
<g id="a_node4"><a xlink:href="wld__radio_8c.html" target="_top" xlink:title=" ">
<polygon fill="white" stroke="black" points="253.5,-6 253.5,-25 342.5,-25 342.5,-6 253.5,-6"/>
<text text-anchor="middle" x="298" y="-13" font-family="Helvetica,sans-Serif" font-size="10.00">src/wld_radio.c</text>
</a>
</g>
</g>
<!-- Node1&#45;&gt;Node4 -->
<g id="edge3" class="edge">
<title>Node1&#45;&gt;Node4</title>
<path fill="none" stroke="midnightblue" d="M298,-57.32C298,-46.5 298,-33.4 298,-25.01"/>
<polygon fill="midnightblue" stroke="midnightblue" points="294.5,-57.48 298,-67.48 301.5,-57.48 294.5,-57.48"/>
</g>
<!-- Node5 -->
<g id="node5" class="node">
<title>Node5</title>
<g id="a_node5"><a xlink:href="wld__ssid_8c.html" target="_top" xlink:title=" ">
<polygon fill="white" stroke="black" points="360,-6 360,-25 444,-25 444,-6 360,-6"/>
<text text-anchor="middle" x="402" y="-13" font-family="Helvetica,sans-Serif" font-size="10.00">src/wld_ssid.c</text>
</a>
</g>
</g>
<!-- Node1&#45;&gt;Node5 -->
<g id="edge4" class="edge">
<title>Node1&#45;&gt;Node5</title>
<path fill="none" stroke="midnightblue" d="M321.77,-62.4C341.88,-50.9 370.07,-34.77 387.13,-25.01"/>
<polygon fill="midnightblue" stroke="midnightblue" points="319.84,-59.47 312.9,-67.48 323.32,-65.55 319.84,-59.47"/>
</g>
<!-- Node6 -->
<g id="node6" class="node">
<title>Node6</title>
<g id="a_node6"><a xlink:href="wld__statsmon_8c.html" target="_top" xlink:title=" ">
<polygon fill="white" stroke="black" points="462,-6 462,-25 572,-25 572,-6 462,-6"/>
<text text-anchor="middle" x="517" y="-13" font-family="Helvetica,sans-Serif" font-size="10.00">src/wld_statsmon.c</text>
</a>
</g>
</g>
<!-- Node1&#45;&gt;Node6 -->
<g id="edge5" class="edge">
<title>Node1&#45;&gt;Node6</title>
<path fill="none" stroke="midnightblue" d="M339.14,-64.82C381.68,-53.26 447.17,-35.47 485.68,-25.01"/>
<polygon fill="midnightblue" stroke="midnightblue" points="338.11,-61.48 329.38,-67.48 339.95,-68.23 338.11,-61.48"/>
</g>
</g>
</svg>
