<?xml version="1.0" encoding="UTF-8" standalone="no"?>
<!DOCTYPE svg PUBLIC "-//W3C//DTD SVG 1.1//EN"
 "http://www.w3.org/Graphics/SVG/1.1/DTD/svg11.dtd">
<!-- Generated by graphviz version 2.43.0 (0)
 -->
<!-- Title: wld_radio_scanresults_find Pages: 1 -->
<svg width="735pt" height="78pt"
 viewBox="0.00 0.00 735.00 77.50" xmlns="http://www.w3.org/2000/svg" xmlns:xlink="http://www.w3.org/1999/xlink">
<g id="graph0" class="graph" transform="scale(1 1) rotate(0) translate(4 73.5)">
<title>wld_radio_scanresults_find</title>
<polygon fill="white" stroke="transparent" points="-4,4 -4,-73.5 731,-73.5 731,4 -4,4"/>
<!-- Node1 -->
<g id="node1" class="node">
<title>Node1</title>
<g id="a_node1"><a xlink:title=" ">
<polygon fill="#bfbfbf" stroke="black" points="0,-28 0,-47 148,-47 148,-28 0,-28"/>
<text text-anchor="middle" x="74" y="-35" font-family="Helvetica,sans-Serif" font-size="10.00">wld_radio_scanresults_find</text>
</a>
</g>
</g>
<!-- Node2 -->
<g id="node2" class="node">
<title>Node2</title>
<g id="a_node2"><a xlink:href="wld__util_8c.html#a25b56d0420fd97e5bc5d96b0cf1b2a6e" target="_top" xlink:title="Convert the numeric SSID to a readable string.">
<polygon fill="white" stroke="black" points="206.5,-50 206.5,-69 286.5,-69 286.5,-50 206.5,-50"/>
<text text-anchor="middle" x="246.5" y="-57" font-family="Helvetica,sans-Serif" font-size="10.00">convSsid2Str</text>
</a>
</g>
</g>
<!-- Node1&#45;&gt;Node2 -->
<g id="edge1" class="edge">
<title>Node1&#45;&gt;Node2</title>
<path fill="none" stroke="midnightblue" d="M148.3,-46.96C164.43,-49.04 181.15,-51.2 196.07,-53.12"/>
<polygon fill="midnightblue" stroke="midnightblue" points="195.72,-56.61 206.09,-54.41 196.62,-49.66 195.72,-56.61"/>
</g>
<!-- Node3 -->
<g id="node3" class="node">
<title>Node3</title>
<g id="a_node3"><a xlink:href="wld__rad__scan_8c.html#a86577a674db2a607586fc2f19635d58a" target="_top" xlink:title=" ">
<polygon fill="white" stroke="black" points="184,-0.5 184,-30.5 309,-30.5 309,-0.5 184,-0.5"/>
<text text-anchor="start" x="192" y="-18.5" font-family="Helvetica,sans-Serif" font-size="10.00">wld_radio_scanresults</text>
<text text-anchor="middle" x="246.5" y="-7.5" font-family="Helvetica,sans-Serif" font-size="10.00">_cleanup</text>
</a>
</g>
</g>
<!-- Node1&#45;&gt;Node3 -->
<g id="edge2" class="edge">
<title>Node1&#45;&gt;Node3</title>
<path fill="none" stroke="midnightblue" d="M148.3,-28.04C156.7,-26.96 165.27,-25.85 173.65,-24.77"/>
<polygon fill="midnightblue" stroke="midnightblue" points="174.3,-28.22 183.77,-23.46 173.41,-21.27 174.3,-28.22"/>
</g>
<!-- Node4 -->
<g id="node4" class="node">
<title>Node4</title>
<g id="a_node4"><a xlink:href="wld__rad__scan_8c.html#a194f47a8606d3bd82e8cc4f08ccf25bb" target="_top" xlink:title=" ">
<polygon fill="white" stroke="black" points="345,-6 345,-25 509,-25 509,-6 345,-6"/>
<text text-anchor="middle" x="427" y="-13" font-family="Helvetica,sans-Serif" font-size="10.00">wld_scan_cleanupScanResults</text>
</a>
</g>
</g>
<!-- Node3&#45;&gt;Node4 -->
<g id="edge3" class="edge">
<title>Node3&#45;&gt;Node4</title>
<path fill="none" stroke="midnightblue" d="M309.18,-15.5C317.44,-15.5 326.04,-15.5 334.67,-15.5"/>
<polygon fill="midnightblue" stroke="midnightblue" points="334.8,-19 344.8,-15.5 334.8,-12 334.8,-19"/>
</g>
<!-- Node5 -->
<g id="node5" class="node">
<title>Node5</title>
<g id="a_node5"><a xlink:href="wld__rad__scan_8c.html#a4d88dcf7b64e163cecafdc8d6f5341d6" target="_top" xlink:title=" ">
<polygon fill="white" stroke="black" points="545,-6 545,-25 727,-25 727,-6 545,-6"/>
<text text-anchor="middle" x="636" y="-13" font-family="Helvetica,sans-Serif" font-size="10.00">wld_scan_cleanupScanResultSSID</text>
</a>
</g>
</g>
<!-- Node4&#45;&gt;Node5 -->
<g id="edge4" class="edge">
<title>Node4&#45;&gt;Node5</title>
<path fill="none" stroke="midnightblue" d="M509.22,-15.5C517.6,-15.5 526.19,-15.5 534.75,-15.5"/>
<polygon fill="midnightblue" stroke="midnightblue" points="534.77,-19 544.77,-15.5 534.77,-12 534.77,-19"/>
</g>
</g>
</svg>
