<?xml version="1.0" encoding="UTF-8" standalone="no"?>
<!DOCTYPE svg PUBLIC "-//W3C//DTD SVG 1.1//EN"
 "http://www.w3.org/Graphics/SVG/1.1/DTD/svg11.dtd">
<!-- Generated by graphviz version 2.43.0 (0)
 -->
<!-- Title: wld_rad_nl80211_registerFrame Pages: 1 -->
<svg width="697pt" height="116pt"
 viewBox="0.00 0.00 697.00 115.50" xmlns="http://www.w3.org/2000/svg" xmlns:xlink="http://www.w3.org/1999/xlink">
<g id="graph0" class="graph" transform="scale(1 1) rotate(0) translate(4 111.5)">
<title>wld_rad_nl80211_registerFrame</title>
<polygon fill="white" stroke="transparent" points="-4,4 -4,-111.5 693,-111.5 693,4 -4,4"/>
<!-- Node1 -->
<g id="node1" class="node">
<title>Node1</title>
<g id="a_node1"><a xlink:title=" ">
<polygon fill="#bfbfbf" stroke="black" points="0,-44.5 0,-74.5 142,-74.5 142,-44.5 0,-44.5"/>
<text text-anchor="start" x="8" y="-62.5" font-family="Helvetica,sans-Serif" font-size="10.00">wld_rad_nl80211_register</text>
<text text-anchor="middle" x="71" y="-51.5" font-family="Helvetica,sans-Serif" font-size="10.00">Frame</text>
</a>
</g>
</g>
<!-- Node2 -->
<g id="node2" class="node">
<title>Node2</title>
<g id="a_node2"><a xlink:href="wld__nl80211__core_8c.html#ab89990c364e3256f803e95aee1684407" target="_top" xlink:title=" ">
<polygon fill="white" stroke="black" points="178,-88 178,-107 336,-107 336,-88 178,-88"/>
<text text-anchor="middle" x="257" y="-95" font-family="Helvetica,sans-Serif" font-size="10.00">wld_nl80211_getSharedState</text>
</a>
</g>
</g>
<!-- Node1&#45;&gt;Node2 -->
<g id="edge1" class="edge">
<title>Node1&#45;&gt;Node2</title>
<path fill="none" stroke="midnightblue" d="M142.09,-73.97C161.2,-77.92 181.64,-82.14 199.87,-85.91"/>
<polygon fill="midnightblue" stroke="midnightblue" points="199.24,-89.35 209.74,-87.95 200.65,-82.5 199.24,-89.35"/>
</g>
<!-- Node4 -->
<g id="node4" class="node">
<title>Node4</title>
<g id="a_node4"><a xlink:href="wld__nl80211__api_8c.html#a64c3ec3884b5ea756ec0f8529a804dd5" target="_top" xlink:title=" ">
<polygon fill="white" stroke="black" points="181,-50 181,-69 333,-69 333,-50 181,-50"/>
<text text-anchor="middle" x="257" y="-57" font-family="Helvetica,sans-Serif" font-size="10.00">wld_nl80211_registerFrame</text>
</a>
</g>
</g>
<!-- Node1&#45;&gt;Node4 -->
<g id="edge3" class="edge">
<title>Node1&#45;&gt;Node4</title>
<path fill="none" stroke="midnightblue" d="M142.09,-59.5C151.41,-59.5 161.05,-59.5 170.6,-59.5"/>
<polygon fill="midnightblue" stroke="midnightblue" points="170.9,-63 180.9,-59.5 170.9,-56 170.9,-63"/>
</g>
<!-- Node7 -->
<g id="node7" class="node">
<title>Node7</title>
<g id="a_node7"><a xlink:href="wld__radio_8c.html#af32e11ee7bb69e7f0d5db319e5aa1834" target="_top" xlink:title=" ">
<polygon fill="white" stroke="black" points="181,-0.5 181,-30.5 333,-30.5 333,-0.5 181,-0.5"/>
<text text-anchor="start" x="189" y="-18.5" font-family="Helvetica,sans-Serif" font-size="10.00">wld_rad_getFirstActiveIface</text>
<text text-anchor="middle" x="257" y="-7.5" font-family="Helvetica,sans-Serif" font-size="10.00">Index</text>
</a>
</g>
</g>
<!-- Node1&#45;&gt;Node7 -->
<g id="edge6" class="edge">
<title>Node1&#45;&gt;Node7</title>
<path fill="none" stroke="midnightblue" d="M134.81,-44.48C150.41,-40.75 167.27,-36.72 183.3,-32.88"/>
<polygon fill="midnightblue" stroke="midnightblue" points="184.25,-36.26 193.16,-30.53 182.62,-29.45 184.25,-36.26"/>
</g>
<!-- Node3 -->
<g id="node3" class="node">
<title>Node3</title>
<g id="a_node3"><a xlink:href="wld__nl80211__core_8c.html#ac64e98962155641a465909b3c8fc0779" target="_top" xlink:title=" ">
<polygon fill="white" stroke="black" points="405.5,-88 405.5,-107 490.5,-107 490.5,-88 405.5,-88"/>
<text text-anchor="middle" x="448" y="-95" font-family="Helvetica,sans-Serif" font-size="10.00">s_isValidState</text>
</a>
</g>
</g>
<!-- Node2&#45;&gt;Node3 -->
<g id="edge2" class="edge">
<title>Node2&#45;&gt;Node3</title>
<path fill="none" stroke="midnightblue" d="M336.24,-97.5C356.11,-97.5 376.97,-97.5 395.16,-97.5"/>
<polygon fill="midnightblue" stroke="midnightblue" points="395.25,-101 405.25,-97.5 395.25,-94 395.25,-101"/>
</g>
<!-- Node5 -->
<g id="node5" class="node">
<title>Node5</title>
<g id="a_node5"><a xlink:href="wld__nl80211__core_8c.html#a51795ba7297b263584b02e6dd2d8ddb6" target="_top" xlink:title=" ">
<polygon fill="white" stroke="black" points="372,-50 372,-69 524,-69 524,-50 372,-50"/>
<text text-anchor="middle" x="448" y="-57" font-family="Helvetica,sans-Serif" font-size="10.00">wld_nl80211_sendCmdSync</text>
</a>
</g>
</g>
<!-- Node4&#45;&gt;Node5 -->
<g id="edge4" class="edge">
<title>Node4&#45;&gt;Node5</title>
<path fill="none" stroke="midnightblue" d="M333.24,-59.5C342.54,-59.5 352.1,-59.5 361.53,-59.5"/>
<polygon fill="midnightblue" stroke="midnightblue" points="361.71,-63 371.71,-59.5 361.71,-56 361.71,-63"/>
</g>
<!-- Node6 -->
<g id="node6" class="node">
<title>Node6</title>
<g id="a_node6"><a xlink:href="wld__nl80211__core_8c.html#a3c5a525596463f925b95bbc76036d07e" target="_top" xlink:title=" ">
<polygon fill="white" stroke="black" points="560,-50 560,-69 689,-69 689,-50 560,-50"/>
<text text-anchor="middle" x="624.5" y="-57" font-family="Helvetica,sans-Serif" font-size="10.00">wld_nl80211_sendCmd</text>
</a>
</g>
</g>
<!-- Node5&#45;&gt;Node6 -->
<g id="edge5" class="edge">
<title>Node5&#45;&gt;Node6</title>
<path fill="none" stroke="midnightblue" d="M524.02,-59.5C532.49,-59.5 541.12,-59.5 549.57,-59.5"/>
<polygon fill="midnightblue" stroke="midnightblue" points="549.78,-63 559.78,-59.5 549.78,-56 549.78,-63"/>
</g>
</g>
</svg>
