<?xml version="1.0" encoding="UTF-8" standalone="no"?>
<!DOCTYPE svg PUBLIC "-//W3C//DTD SVG 1.1//EN"
 "http://www.w3.org/Graphics/SVG/1.1/DTD/svg11.dtd">
<!-- Generated by graphviz version 2.43.0 (0)
 -->
<!-- Title: wld_nl80211_delEvtListener Pages: 1 -->
<svg width="371pt" height="66pt"
 viewBox="0.00 0.00 371.00 66.00" xmlns="http://www.w3.org/2000/svg" xmlns:xlink="http://www.w3.org/1999/xlink">
<g id="graph0" class="graph" transform="scale(1 1) rotate(0) translate(4 62)">
<title>wld_nl80211_delEvtListener</title>
<polygon fill="white" stroke="transparent" points="-4,4 -4,-62 367,-62 367,4 -4,4"/>
<!-- Node1 -->
<g id="node1" class="node">
<title>Node1</title>
<g id="a_node1"><a xlink:title=" ">
<polygon fill="#bfbfbf" stroke="black" points="210,-19.5 210,-38.5 363,-38.5 363,-19.5 210,-19.5"/>
<text text-anchor="middle" x="286.5" y="-26.5" font-family="Helvetica,sans-Serif" font-size="10.00">wld_nl80211_delEvtListener</text>
</a>
</g>
</g>
<!-- Node2 -->
<g id="node2" class="node">
<title>Node2</title>
<g id="a_node2"><a xlink:href="wld__rad__nl80211_8c.html#a404bcbdee45a3333a4c892c926eb2493" target="_top" xlink:title=" ">
<polygon fill="white" stroke="black" points="0,-38.5 0,-57.5 174,-57.5 174,-38.5 0,-38.5"/>
<text text-anchor="middle" x="87" y="-45.5" font-family="Helvetica,sans-Serif" font-size="10.00">wld_rad_nl80211_delEvtListener</text>
</a>
</g>
</g>
<!-- Node1&#45;&gt;Node2 -->
<g id="edge1" class="edge">
<title>Node1&#45;&gt;Node2</title>
<path fill="none" stroke="midnightblue" d="M199.97,-37.23C191.37,-38.06 182.63,-38.9 174.03,-39.72"/>
<polygon fill="midnightblue" stroke="midnightblue" points="200.37,-40.71 209.99,-36.26 199.7,-33.74 200.37,-40.71"/>
</g>
<!-- Node3 -->
<g id="node3" class="node">
<title>Node3</title>
<g id="a_node3"><a xlink:href="wld__rad__nl80211_8c.html#aec035a3f1695c584f09ac50c41c542f0" target="_top" xlink:title=" ">
<polygon fill="white" stroke="black" points="0,-0.5 0,-19.5 174,-19.5 174,-0.5 0,-0.5"/>
<text text-anchor="middle" x="87" y="-7.5" font-family="Helvetica,sans-Serif" font-size="10.00">wld_rad_nl80211_setEvtListener</text>
</a>
</g>
</g>
<!-- Node1&#45;&gt;Node3 -->
<g id="edge2" class="edge">
<title>Node1&#45;&gt;Node3</title>
<path fill="none" stroke="midnightblue" d="M199.97,-20.77C191.37,-19.94 182.63,-19.1 174.03,-18.28"/>
<polygon fill="midnightblue" stroke="midnightblue" points="199.7,-24.26 209.99,-21.74 200.37,-17.29 199.7,-24.26"/>
</g>
</g>
</svg>
