<?xml version="1.0" encoding="UTF-8" standalone="no"?>
<!DOCTYPE svg PUBLIC "-//W3C//DTD SVG 1.1//EN"
 "http://www.w3.org/Graphics/SVG/1.1/DTD/svg11.dtd">
<!-- Generated by graphviz version 2.43.0 (0)
 -->
<!-- Title: if_nametoindex Pages: 1 -->
<svg width="259pt" height="66pt"
 viewBox="0.00 0.00 259.00 66.00" xmlns="http://www.w3.org/2000/svg" xmlns:xlink="http://www.w3.org/1999/xlink">
<g id="graph0" class="graph" transform="scale(1 1) rotate(0) translate(4 62)">
<title>if_nametoindex</title>
<polygon fill="white" stroke="transparent" points="-4,4 -4,-62 255,-62 255,4 -4,4"/>
<!-- Node1 -->
<g id="node1" class="node">
<title>Node1</title>
<g id="a_node1"><a xlink:title=" ">
<polygon fill="#bfbfbf" stroke="black" points="158,-19.5 158,-38.5 251,-38.5 251,-19.5 158,-19.5"/>
<text text-anchor="middle" x="204.5" y="-26.5" font-family="Helvetica,sans-Serif" font-size="10.00">if_nametoindex</text>
</a>
</g>
</g>
<!-- Node2 -->
<g id="node2" class="node">
<title>Node2</title>
<g id="a_node2"><a xlink:href="wifiGen__radIfMgt_8c.html#a2408beb574b0d3bb9b0a03576f3859b7" target="_top" xlink:title=" ">
<polygon fill="white" stroke="black" points="1.5,-38.5 1.5,-57.5 120.5,-57.5 120.5,-38.5 1.5,-38.5"/>
<text text-anchor="middle" x="61" y="-45.5" font-family="Helvetica,sans-Serif" font-size="10.00">wifiGen_rad_delvapif</text>
</a>
</g>
</g>
<!-- Node1&#45;&gt;Node2 -->
<g id="edge1" class="edge">
<title>Node1&#45;&gt;Node2</title>
<path fill="none" stroke="midnightblue" d="M148,-36.45C139.02,-37.66 129.7,-38.91 120.66,-40.12"/>
<polygon fill="midnightblue" stroke="midnightblue" points="148.5,-39.92 157.95,-35.12 147.57,-32.98 148.5,-39.92"/>
</g>
<!-- Node3 -->
<g id="node3" class="node">
<title>Node3</title>
<g id="a_node3"><a xlink:href="wifiGen__rad_8c.html#a24f261e38f0ad308c80b5c1a7902f537" target="_top" xlink:title=" ">
<polygon fill="white" stroke="black" points="0,-0.5 0,-19.5 122,-19.5 122,-0.5 0,-0.5"/>
<text text-anchor="middle" x="61" y="-7.5" font-family="Helvetica,sans-Serif" font-size="10.00">wifiGen_rad_supports</text>
</a>
</g>
</g>
<!-- Node1&#45;&gt;Node3 -->
<g id="edge2" class="edge">
<title>Node1&#45;&gt;Node3</title>
<path fill="none" stroke="midnightblue" d="M147.85,-21.53C139.43,-20.4 130.7,-19.22 122.18,-18.08"/>
<polygon fill="midnightblue" stroke="midnightblue" points="147.57,-25.02 157.95,-22.88 148.5,-18.08 147.57,-25.02"/>
</g>
</g>
</svg>
