<?xml version="1.0" encoding="UTF-8" standalone="no"?>
<!DOCTYPE svg PUBLIC "-//W3C//DTD SVG 1.1//EN"
 "http://www.w3.org/Graphics/SVG/1.1/DTD/svg11.dtd">
<!-- Generated by graphviz version 2.43.0 (0)
 -->
<!-- Title: wld_chanmgt_checkInitChannel Pages: 1 -->
<svg width="561pt" height="176pt"
 viewBox="0.00 0.00 561.00 175.50" xmlns="http://www.w3.org/2000/svg" xmlns:xlink="http://www.w3.org/1999/xlink">
<g id="graph0" class="graph" transform="scale(1 1) rotate(0) translate(4 171.5)">
<title>wld_chanmgt_checkInitChannel</title>
<polygon fill="white" stroke="transparent" points="-4,4 -4,-171.5 557,-171.5 557,4 -4,4"/>
<!-- Node1 -->
<g id="node1" class="node">
<title>Node1</title>
<g id="a_node1"><a xlink:title=" ">
<polygon fill="#bfbfbf" stroke="black" points="0,-68.5 0,-87.5 171,-87.5 171,-68.5 0,-68.5"/>
<text text-anchor="middle" x="85.5" y="-75.5" font-family="Helvetica,sans-Serif" font-size="10.00">wld_chanmgt_checkInitChannel</text>
</a>
</g>
</g>
<!-- Node2 -->
<g id="node2" class="node">
<title>Node2</title>
<g id="a_node2"><a xlink:href="wld__chanmgt_8c.html#a622c18ca1144096bd2b01152ce69f764" target="_top" xlink:title=" ">
<polygon fill="white" stroke="black" points="207,-137 207,-167 395,-167 395,-137 207,-137"/>
<text text-anchor="start" x="215" y="-155" font-family="Helvetica,sans-Serif" font-size="10.00">wld_chanmgt_getDefaultSupported</text>
<text text-anchor="middle" x="301" y="-144" font-family="Helvetica,sans-Serif" font-size="10.00">Bandwidth</text>
</a>
</g>
</g>
<!-- Node1&#45;&gt;Node2 -->
<g id="edge1" class="edge">
<title>Node1&#45;&gt;Node2</title>
<path fill="none" stroke="midnightblue" d="M107.96,-87.67C131.83,-98.2 171.68,-115.12 207,-127 214.35,-129.47 222.1,-131.87 229.85,-134.14"/>
<polygon fill="midnightblue" stroke="midnightblue" points="229.06,-137.56 239.64,-136.94 230.99,-130.83 229.06,-137.56"/>
</g>
<!-- Node4 -->
<g id="node4" class="node">
<title>Node4</title>
<g id="a_node4"><a xlink:href="wld__chanmgt_8c.html#af61cf8737487dc43e0bac4591359c422" target="_top" xlink:title=" ">
<polygon fill="white" stroke="black" points="207,-88 207,-118 395,-118 395,-88 207,-88"/>
<text text-anchor="start" x="215" y="-106" font-family="Helvetica,sans-Serif" font-size="10.00">wld_chanmgt_getDefaultSupported</text>
<text text-anchor="middle" x="301" y="-95" font-family="Helvetica,sans-Serif" font-size="10.00">Channel</text>
</a>
</g>
</g>
<!-- Node1&#45;&gt;Node4 -->
<g id="edge3" class="edge">
<title>Node1&#45;&gt;Node4</title>
<path fill="none" stroke="midnightblue" d="M167.82,-87.52C177.27,-88.63 187,-89.77 196.69,-90.9"/>
<polygon fill="midnightblue" stroke="midnightblue" points="196.42,-94.39 206.76,-92.08 197.23,-87.44 196.42,-94.39"/>
</g>
<!-- Node6 -->
<g id="node6" class="node">
<title>Node6</title>
<g id="a_node6"><a xlink:href="wld__chanmgt_8c.html#abf3de1213a4ed93e5ef55a5e80e4e707" target="_top" xlink:title=" ">
<polygon fill="white" stroke="black" points="225,-39 225,-69 377,-69 377,-39 225,-39"/>
<text text-anchor="start" x="233" y="-57" font-family="Helvetica,sans-Serif" font-size="10.00">wld_chanmgt_reportCurrent</text>
<text text-anchor="middle" x="301" y="-46" font-family="Helvetica,sans-Serif" font-size="10.00">Chanspec</text>
</a>
</g>
</g>
<!-- Node1&#45;&gt;Node6 -->
<g id="edge5" class="edge">
<title>Node1&#45;&gt;Node6</title>
<path fill="none" stroke="midnightblue" d="M171.19,-68.48C185.43,-66.88 200.21,-65.22 214.48,-63.61"/>
<polygon fill="midnightblue" stroke="midnightblue" points="215.2,-67.05 224.75,-62.46 214.42,-60.1 215.2,-67.05"/>
</g>
<!-- Node7 -->
<g id="node7" class="node">
<title>Node7</title>
<g id="a_node7"><a xlink:href="wld__radio_8c.html#ae6aa07e4f2a9f4675b22fdd1412a60cc" target="_top" xlink:title=" ">
<polygon fill="white" stroke="black" points="231,-0.5 231,-19.5 371,-19.5 371,-0.5 231,-0.5"/>
<text text-anchor="middle" x="301" y="-7.5" font-family="Helvetica,sans-Serif" font-size="10.00">wld_rad_getSwlChanspec</text>
</a>
</g>
</g>
<!-- Node1&#45;&gt;Node7 -->
<g id="edge6" class="edge">
<title>Node1&#45;&gt;Node7</title>
<path fill="none" stroke="midnightblue" d="M106.98,-68.31C130.62,-57.45 170.9,-39.92 207,-29 215.8,-26.34 225.19,-23.93 234.48,-21.8"/>
<polygon fill="midnightblue" stroke="midnightblue" points="235.49,-25.16 244.5,-19.59 233.98,-18.32 235.49,-25.16"/>
</g>
<!-- Node3 -->
<g id="node3" class="node">
<title>Node3</title>
<g id="a_node3"><a xlink:href="wld__radio_8c.html#a0119bea4b46c7f0a642117de7184bd37" target="_top" xlink:title=" ">
<polygon fill="white" stroke="black" points="431,-142.5 431,-161.5 553,-161.5 553,-142.5 431,-142.5"/>
<text text-anchor="middle" x="492" y="-149.5" font-family="Helvetica,sans-Serif" font-size="10.00">wld_rad_getFreqBand</text>
</a>
</g>
</g>
<!-- Node2&#45;&gt;Node3 -->
<g id="edge2" class="edge">
<title>Node2&#45;&gt;Node3</title>
<path fill="none" stroke="midnightblue" d="M395.12,-152C403.73,-152 412.35,-152 420.71,-152"/>
<polygon fill="midnightblue" stroke="midnightblue" points="420.75,-155.5 430.75,-152 420.75,-148.5 420.75,-155.5"/>
</g>
<!-- Node5 -->
<g id="node5" class="node">
<title>Node5</title>
<g id="a_node5"><a xlink:href="wld__channel_8c.html#a9eabc31bc39b1fd1ce1daf0a0965087a" target="_top" xlink:title=" ">
<polygon fill="white" stroke="black" points="435.5,-88 435.5,-118 548.5,-118 548.5,-88 435.5,-88"/>
<text text-anchor="start" x="443.5" y="-106" font-family="Helvetica,sans-Serif" font-size="10.00">wld_channel_do_for</text>
<text text-anchor="middle" x="492" y="-95" font-family="Helvetica,sans-Serif" font-size="10.00">_each_channel</text>
</a>
</g>
</g>
<!-- Node4&#45;&gt;Node5 -->
<g id="edge4" class="edge">
<title>Node4&#45;&gt;Node5</title>
<path fill="none" stroke="midnightblue" d="M395.12,-103C405.35,-103 415.61,-103 425.41,-103"/>
<polygon fill="midnightblue" stroke="midnightblue" points="425.43,-106.5 435.43,-103 425.43,-99.5 425.43,-106.5"/>
</g>
</g>
</svg>
