<?xml version="1.0" encoding="UTF-8" standalone="no"?>
<!DOCTYPE svg PUBLIC "-//W3C//DTD SVG 1.1//EN"
 "http://www.w3.org/Graphics/SVG/1.1/DTD/svg11.dtd">
<!-- Generated by graphviz version 2.43.0 (0)
 -->
<!-- Title: wld_secDmn_cleanup Pages: 1 -->
<svg width="1264pt" height="335pt"
 viewBox="0.00 0.00 1264.00 335.00" xmlns="http://www.w3.org/2000/svg" xmlns:xlink="http://www.w3.org/1999/xlink">
<g id="graph0" class="graph" transform="scale(1 1) rotate(0) translate(4 331)">
<title>wld_secDmn_cleanup</title>
<polygon fill="white" stroke="transparent" points="-4,4 -4,-331 1260,-331 1260,4 -4,4"/>
<!-- Node1 -->
<g id="node1" class="node">
<title>Node1</title>
<g id="a_node1"><a xlink:title=" ">
<polygon fill="#bfbfbf" stroke="black" points="0,-210.5 0,-229.5 122,-229.5 122,-210.5 0,-210.5"/>
<text text-anchor="middle" x="61" y="-217.5" font-family="Helvetica,sans-Serif" font-size="10.00">wld_secDmn_cleanup</text>
</a>
</g>
</g>
<!-- Node2 -->
<g id="node2" class="node">
<title>Node2</title>
<g id="a_node2"><a xlink:href="wld__daemon_8c.html#a17603235fe716db48dd549fbb8ddf8c0" target="_top" xlink:title=" ">
<polygon fill="white" stroke="black" points="164.5,-268.5 164.5,-287.5 308.5,-287.5 308.5,-268.5 164.5,-268.5"/>
<text text-anchor="middle" x="236.5" y="-275.5" font-family="Helvetica,sans-Serif" font-size="10.00">wld_dmn_destroyDeamon</text>
</a>
</g>
</g>
<!-- Node1&#45;&gt;Node2 -->
<g id="edge1" class="edge">
<title>Node1&#45;&gt;Node2</title>
<path fill="none" stroke="midnightblue" d="M83.83,-229.54C103.11,-237.75 132.09,-249.57 158,-258 166.54,-260.78 175.72,-263.43 184.65,-265.85"/>
<polygon fill="midnightblue" stroke="midnightblue" points="184.04,-269.3 194.6,-268.46 185.82,-262.53 184.04,-269.3"/>
</g>
<!-- Node6 -->
<g id="node6" class="node">
<title>Node6</title>
<g id="a_node6"><a xlink:href="wld__secDmn_8c.html#a1b0cc11a41a11e2033f3188fd05a0d80" target="_top" xlink:title=" ">
<polygon fill="white" stroke="black" points="161.5,-229.5 161.5,-248.5 311.5,-248.5 311.5,-229.5 161.5,-229.5"/>
<text text-anchor="middle" x="236.5" y="-236.5" font-family="Helvetica,sans-Serif" font-size="10.00">wld_secDmn_isGrpMember</text>
</a>
</g>
</g>
<!-- Node1&#45;&gt;Node6 -->
<g id="edge5" class="edge">
<title>Node1&#45;&gt;Node6</title>
<path fill="none" stroke="midnightblue" d="M122.19,-226.59C131.57,-227.62 141.39,-228.69 151.18,-229.77"/>
<polygon fill="midnightblue" stroke="midnightblue" points="151.02,-233.27 161.34,-230.88 151.78,-226.31 151.02,-233.27"/>
</g>
<!-- Node8 -->
<g id="node8" class="node">
<title>Node8</title>
<g id="a_node8"><a xlink:href="wld__secDmnGrp_8c.html#a74873a8be9bba3c30e3f4c009b793922" target="_top" xlink:title=" ">
<polygon fill="white" stroke="black" points="158,-191.5 158,-210.5 315,-210.5 315,-191.5 158,-191.5"/>
<text text-anchor="middle" x="236.5" y="-198.5" font-family="Helvetica,sans-Serif" font-size="10.00">wld_secDmnGrp_delMember</text>
</a>
</g>
</g>
<!-- Node1&#45;&gt;Node8 -->
<g id="edge7" class="edge">
<title>Node1&#45;&gt;Node8</title>
<path fill="none" stroke="midnightblue" d="M122.19,-213.41C130.5,-212.5 139.16,-211.55 147.83,-210.6"/>
<polygon fill="midnightblue" stroke="midnightblue" points="148.43,-214.06 157.99,-209.49 147.67,-207.1 148.43,-214.06"/>
</g>
<!-- Node9 -->
<g id="node9" class="node">
<title>Node9</title>
<g id="a_node9"><a xlink:href="wld__wpaCtrlMngr_8c.html#a703dcb69cf5fbbf2473edf3505b12ca1" target="_top" xlink:title=" ">
<polygon fill="white" stroke="black" points="164,-144.5 164,-163.5 309,-163.5 309,-144.5 164,-144.5"/>
<text text-anchor="middle" x="236.5" y="-151.5" font-family="Helvetica,sans-Serif" font-size="10.00">wld_wpaCtrlMngr_cleanup</text>
</a>
</g>
</g>
<!-- Node1&#45;&gt;Node9 -->
<g id="edge8" class="edge">
<title>Node1&#45;&gt;Node9</title>
<path fill="none" stroke="midnightblue" d="M85.59,-210.43C104.98,-202.62 133.19,-191.39 158,-182 171.33,-176.96 186.02,-171.6 198.99,-166.93"/>
<polygon fill="midnightblue" stroke="midnightblue" points="200.29,-170.19 208.53,-163.52 197.93,-163.6 200.29,-170.19"/>
</g>
<!-- Node3 -->
<g id="node3" class="node">
<title>Node3</title>
<g id="a_node3"><a xlink:href="wld__daemon_8c.html#a4075ee8de9e9daa8039d0f758d20d655" target="_top" xlink:title=" ">
<polygon fill="white" stroke="black" points="351,-269.5 351,-288.5 497,-288.5 497,-269.5 351,-269.5"/>
<text text-anchor="middle" x="424" y="-276.5" font-family="Helvetica,sans-Serif" font-size="10.00">wld_dmn_cleanupDaemon</text>
</a>
</g>
</g>
<!-- Node2&#45;&gt;Node3 -->
<g id="edge2" class="edge">
<title>Node2&#45;&gt;Node3</title>
<path fill="none" stroke="midnightblue" d="M308.69,-278.38C319.14,-278.44 329.98,-278.5 340.64,-278.56"/>
<polygon fill="midnightblue" stroke="midnightblue" points="340.76,-282.06 350.77,-278.61 340.79,-275.06 340.76,-282.06"/>
</g>
<!-- Node4 -->
<g id="node4" class="node">
<title>Node4</title>
<g id="a_node4"><a xlink:href="wld_8c.html#a41e1e95e9813260c184aad989f33bb05" target="_top" xlink:title=" ">
<polygon fill="white" stroke="black" points="553.5,-269.5 553.5,-288.5 679.5,-288.5 679.5,-269.5 553.5,-269.5"/>
<text text-anchor="middle" x="616.5" y="-276.5" font-family="Helvetica,sans-Serif" font-size="10.00">get_wld_plugin_parser</text>
</a>
</g>
</g>
<!-- Node3&#45;&gt;Node4 -->
<g id="edge3" class="edge">
<title>Node3&#45;&gt;Node4</title>
<path fill="none" stroke="midnightblue" d="M497.02,-279C512.09,-279 527.98,-279 543.06,-279"/>
<polygon fill="midnightblue" stroke="midnightblue" points="543.35,-282.5 553.35,-279 543.35,-275.5 543.35,-282.5"/>
</g>
<!-- Node5 -->
<g id="node5" class="node">
<title>Node5</title>
<g id="a_node5"><a xlink:href="wld__daemon_8c.html#adc439fdc85e1c992a5ba6e79b4ebd3a3" target="_top" xlink:title=" ">
<polygon fill="white" stroke="black" points="552.5,-307.5 552.5,-326.5 680.5,-326.5 680.5,-307.5 552.5,-307.5"/>
<text text-anchor="middle" x="616.5" y="-314.5" font-family="Helvetica,sans-Serif" font-size="10.00">wld_dmn_stopDeamon</text>
</a>
</g>
</g>
<!-- Node3&#45;&gt;Node5 -->
<g id="edge4" class="edge">
<title>Node3&#45;&gt;Node5</title>
<path fill="none" stroke="midnightblue" d="M473.07,-288.59C498.78,-293.72 530.61,-300.07 557.66,-305.46"/>
<polygon fill="midnightblue" stroke="midnightblue" points="557.28,-308.96 567.77,-307.48 558.65,-302.09 557.28,-308.96"/>
</g>
<!-- Node7 -->
<g id="node7" class="node">
<title>Node7</title>
<g id="a_node7"><a xlink:href="wld__secDmnGrp_8c.html#ae5da21db2381b2d5a1f16df5d388d5df" target="_top" xlink:title=" ">
<polygon fill="white" stroke="black" points="355,-229.5 355,-248.5 493,-248.5 493,-229.5 355,-229.5"/>
<text text-anchor="middle" x="424" y="-236.5" font-family="Helvetica,sans-Serif" font-size="10.00">wld_secDmnGrp_getProc</text>
</a>
</g>
</g>
<!-- Node6&#45;&gt;Node7 -->
<g id="edge6" class="edge">
<title>Node6&#45;&gt;Node7</title>
<path fill="none" stroke="midnightblue" d="M311.61,-239C322.4,-239 333.53,-239 344.4,-239"/>
<polygon fill="midnightblue" stroke="midnightblue" points="344.72,-242.5 354.72,-239 344.72,-235.5 344.72,-242.5"/>
</g>
<!-- Node10 -->
<g id="node10" class="node">
<title>Node10</title>
<g id="a_node10"><a xlink:href="wld__wpaCtrlInterface_8c.html#a303019c3b064bd2babeb3582ecd91d7f" target="_top" xlink:title="close the wpaCtrl interface to wpa_ctrl server This function closes all relative connections (cmd and...">
<polygon fill="white" stroke="black" points="364,-136 364,-166 484,-166 484,-136 364,-136"/>
<text text-anchor="start" x="372" y="-154" font-family="Helvetica,sans-Serif" font-size="10.00">wld_wpaCtrlInterface</text>
<text text-anchor="middle" x="424" y="-143" font-family="Helvetica,sans-Serif" font-size="10.00">_close</text>
</a>
</g>
</g>
<!-- Node9&#45;&gt;Node10 -->
<g id="edge9" class="edge">
<title>Node9&#45;&gt;Node10</title>
<path fill="none" stroke="midnightblue" d="M309.22,-152.84C323.74,-152.61 338.99,-152.36 353.43,-152.13"/>
<polygon fill="midnightblue" stroke="midnightblue" points="353.85,-155.62 363.79,-151.96 353.73,-148.62 353.85,-155.62"/>
</g>
<!-- Node11 -->
<g id="node11" class="node">
<title>Node11</title>
<g id="a_node11"><a xlink:href="wld__wpaCtrlConnection_8c.html#ac77a8013582067279ce3a0ccda177ed8" target="_top" xlink:title=" ">
<polygon fill="white" stroke="black" points="551,-132 551,-162 682,-162 682,-132 551,-132"/>
<text text-anchor="start" x="559" y="-150" font-family="Helvetica,sans-Serif" font-size="10.00">wld_wpaCtrlConnection</text>
<text text-anchor="middle" x="616.5" y="-139" font-family="Helvetica,sans-Serif" font-size="10.00">_close</text>
</a>
</g>
</g>
<!-- Node10&#45;&gt;Node11 -->
<g id="edge10" class="edge">
<title>Node10&#45;&gt;Node11</title>
<path fill="none" stroke="midnightblue" d="M484.23,-149.76C502.02,-149.38 521.77,-148.97 540.44,-148.58"/>
<polygon fill="midnightblue" stroke="midnightblue" points="540.75,-152.07 550.68,-148.36 540.6,-145.07 540.75,-152.07"/>
</g>
<!-- Node12 -->
<g id="node12" class="node">
<title>Node12</title>
<g id="a_node12"><a xlink:href="wld__wpaCtrlConnection_8c.html#a47a34d899bc01dfe767b26ee4f7b87db" target="_top" xlink:title=" ">
<polygon fill="white" stroke="black" points="945.5,-198 945.5,-228 1076.5,-228 1076.5,-198 945.5,-198"/>
<text text-anchor="start" x="953.5" y="-216" font-family="Helvetica,sans-Serif" font-size="10.00">wld_wpaCtrlConnection</text>
<text text-anchor="middle" x="1011" y="-205" font-family="Helvetica,sans-Serif" font-size="10.00">_getConnSrvPath</text>
</a>
</g>
</g>
<!-- Node10&#45;&gt;Node12 -->
<g id="edge11" class="edge">
<title>Node10&#45;&gt;Node12</title>
<path fill="none" stroke="midnightblue" d="M484.23,-163.69C500.02,-166.75 517.11,-169.78 533,-172 674.57,-191.79 841.21,-203.5 935.34,-209.05"/>
<polygon fill="midnightblue" stroke="midnightblue" points="935.15,-212.54 945.33,-209.63 935.55,-205.55 935.15,-212.54"/>
</g>
<!-- Node13 -->
<g id="node13" class="node">
<title>Node13</title>
<g id="a_node13"><a xlink:href="wld__wpaCtrlConnection_8c.html#af7414d719a14459bfbf836e77f643aff" target="_top" xlink:title=" ">
<polygon fill="white" stroke="black" points="544,-42 544,-72 689,-72 689,-42 544,-42"/>
<text text-anchor="start" x="552" y="-60" font-family="Helvetica,sans-Serif" font-size="10.00">wld_wpaCtrlConnection</text>
<text text-anchor="middle" x="616.5" y="-49" font-family="Helvetica,sans-Serif" font-size="10.00">_sendCmdCheckResponse</text>
</a>
</g>
</g>
<!-- Node10&#45;&gt;Node13 -->
<g id="edge12" class="edge">
<title>Node10&#45;&gt;Node13</title>
<path fill="none" stroke="midnightblue" d="M446.07,-135.81C467.24,-121.07 501.2,-98.81 533,-84 539.48,-80.98 546.39,-78.16 553.35,-75.55"/>
<polygon fill="midnightblue" stroke="midnightblue" points="554.61,-78.82 562.84,-72.15 552.24,-72.23 554.61,-78.82"/>
</g>
<!-- Node19 -->
<g id="node19" class="node">
<title>Node19</title>
<g id="a_node19"><a xlink:href="wld__wpaCtrlInterface_8c.html#a6bc5243e885837a4bdb99fec68952a95" target="_top" xlink:title=" ">
<polygon fill="white" stroke="black" points="553.5,-220 553.5,-250 679.5,-250 679.5,-220 553.5,-220"/>
<text text-anchor="start" x="561.5" y="-238" font-family="Helvetica,sans-Serif" font-size="10.00">wld_wpaCtrlInterface</text>
<text text-anchor="middle" x="616.5" y="-227" font-family="Helvetica,sans-Serif" font-size="10.00">_checkConnectionPath</text>
</a>
</g>
</g>
<!-- Node10&#45;&gt;Node19 -->
<g id="edge18" class="edge">
<title>Node10&#45;&gt;Node19</title>
<path fill="none" stroke="midnightblue" d="M453,-166.11C474.56,-177.48 505.27,-193.07 533,-205 542.14,-208.93 551.97,-212.8 561.56,-216.4"/>
<polygon fill="midnightblue" stroke="midnightblue" points="560.44,-219.71 571.03,-219.89 562.86,-213.15 560.44,-219.71"/>
</g>
<!-- Node22 -->
<g id="node22" class="node">
<title>Node22</title>
<g id="a_node22"><a xlink:href="wld__wpaCtrlMngr_8c.html#ad3e7ad2284a85ee77e110a90f0fd34ae" target="_top" xlink:title="check that wpaCtrl manager is connected: i.e can receive events from its main interface.">
<polygon fill="white" stroke="black" points="533,-93.5 533,-112.5 700,-112.5 700,-93.5 533,-93.5"/>
<text text-anchor="middle" x="616.5" y="-100.5" font-family="Helvetica,sans-Serif" font-size="10.00">wld_wpaCtrlMngr_isConnected</text>
</a>
</g>
</g>
<!-- Node10&#45;&gt;Node22 -->
<g id="edge22" class="edge">
<title>Node10&#45;&gt;Node22</title>
<path fill="none" stroke="midnightblue" d="M479.57,-135.94C496.64,-131.34 515.58,-126.34 533,-122 542.63,-119.6 552.91,-117.14 562.84,-114.83"/>
<polygon fill="midnightblue" stroke="midnightblue" points="563.66,-118.23 572.61,-112.57 562.08,-111.41 563.66,-118.23"/>
</g>
<!-- Node14 -->
<g id="node14" class="node">
<title>Node14</title>
<g id="a_node14"><a xlink:href="wld__wpaCtrlConnection_8c.html#a5ddba0537d0917bc518e9ef71b539f75" target="_top" xlink:title=" ">
<polygon fill="white" stroke="black" points="736,-39 736,-69 897,-69 897,-39 736,-39"/>
<text text-anchor="start" x="744" y="-57" font-family="Helvetica,sans-Serif" font-size="10.00">wld_wpaCtrlConnection</text>
<text text-anchor="middle" x="816.5" y="-46" font-family="Helvetica,sans-Serif" font-size="10.00">_sendCmdCheckResponseExt</text>
</a>
</g>
</g>
<!-- Node13&#45;&gt;Node14 -->
<g id="edge13" class="edge">
<title>Node13&#45;&gt;Node14</title>
<path fill="none" stroke="midnightblue" d="M689.26,-55.91C701.11,-55.73 713.52,-55.55 725.74,-55.36"/>
<polygon fill="midnightblue" stroke="midnightblue" points="726,-58.86 735.94,-55.21 725.89,-51.86 726,-58.86"/>
</g>
<!-- Node15 -->
<g id="node15" class="node">
<title>Node15</title>
<g id="a_node15"><a xlink:href="wld__wpaCtrlConnection_8c.html#ab5b29b7ce5f29ef5dfbe951e5b700428" target="_top" xlink:title=" ">
<polygon fill="white" stroke="black" points="933,-0.5 933,-19.5 1089,-19.5 1089,-0.5 933,-0.5"/>
<text text-anchor="middle" x="1011" y="-7.5" font-family="Helvetica,sans-Serif" font-size="10.00">wld_wpaCtrl_getMaxMsgLen</text>
</a>
</g>
</g>
<!-- Node14&#45;&gt;Node15 -->
<g id="edge14" class="edge">
<title>Node14&#45;&gt;Node15</title>
<path fill="none" stroke="midnightblue" d="M883.21,-38.98C907.78,-33.36 935.32,-27.07 958.44,-21.79"/>
<polygon fill="midnightblue" stroke="midnightblue" points="959.41,-25.15 968.38,-19.51 957.85,-18.33 959.41,-25.15"/>
</g>
<!-- Node16 -->
<g id="node16" class="node">
<title>Node16</title>
<g id="a_node16"><a xlink:href="wld__wpaCtrlConnection_8c.html#ae8867992d243efdfa13e360b50730f88" target="_top" xlink:title=" ">
<polygon fill="white" stroke="black" points="945.5,-39 945.5,-69 1076.5,-69 1076.5,-39 945.5,-39"/>
<text text-anchor="start" x="953.5" y="-57" font-family="Helvetica,sans-Serif" font-size="10.00">wld_wpaCtrlConnection</text>
<text text-anchor="middle" x="1011" y="-46" font-family="Helvetica,sans-Serif" font-size="10.00">_sendCmdSyncedExt</text>
</a>
</g>
</g>
<!-- Node14&#45;&gt;Node16 -->
<g id="edge15" class="edge">
<title>Node14&#45;&gt;Node16</title>
<path fill="none" stroke="midnightblue" d="M897.19,-54C909.71,-54 922.62,-54 935.04,-54"/>
<polygon fill="midnightblue" stroke="midnightblue" points="935.33,-57.5 945.33,-54 935.33,-50.5 935.33,-57.5"/>
</g>
<!-- Node17 -->
<g id="node17" class="node">
<title>Node17</title>
<g id="a_node17"><a xlink:href="wld__wpaCtrlConnection_8c.html#abfe3f8b17cf527b1e6fe85a564c8604b" target="_top" xlink:title=" ">
<polygon fill="white" stroke="black" points="1125,-64 1125,-94 1256,-94 1256,-64 1125,-64"/>
<text text-anchor="start" x="1133" y="-82" font-family="Helvetica,sans-Serif" font-size="10.00">wld_wpaCtrlConnection</text>
<text text-anchor="middle" x="1190.5" y="-71" font-family="Helvetica,sans-Serif" font-size="10.00">_getConnSockName</text>
</a>
</g>
</g>
<!-- Node16&#45;&gt;Node17 -->
<g id="edge16" class="edge">
<title>Node16&#45;&gt;Node17</title>
<path fill="none" stroke="midnightblue" d="M1076.58,-63.1C1089.02,-64.85 1102.14,-66.7 1114.87,-68.49"/>
<polygon fill="midnightblue" stroke="midnightblue" points="1114.57,-71.98 1124.96,-69.91 1115.55,-65.05 1114.57,-71.98"/>
</g>
<!-- Node18 -->
<g id="node18" class="node">
<title>Node18</title>
<g id="a_node18"><a xlink:href="wld__wpaCtrlConnection_8c.html#aa82226c76dbbf306e509b7c6d3088277" target="_top" xlink:title=" ">
<polygon fill="white" stroke="black" points="1125,-15 1125,-45 1256,-45 1256,-15 1125,-15"/>
<text text-anchor="start" x="1133" y="-33" font-family="Helvetica,sans-Serif" font-size="10.00">wld_wpaCtrlConnection</text>
<text text-anchor="middle" x="1190.5" y="-22" font-family="Helvetica,sans-Serif" font-size="10.00">_sendCmd</text>
</a>
</g>
</g>
<!-- Node16&#45;&gt;Node18 -->
<g id="edge17" class="edge">
<title>Node16&#45;&gt;Node18</title>
<path fill="none" stroke="midnightblue" d="M1076.58,-45.27C1089.02,-43.59 1102.14,-41.81 1114.87,-40.09"/>
<polygon fill="midnightblue" stroke="midnightblue" points="1115.52,-43.53 1124.96,-38.73 1114.59,-36.6 1115.52,-43.53"/>
</g>
<!-- Node20 -->
<g id="node20" class="node">
<title>Node20</title>
<g id="a_node20"><a xlink:href="wld__wpaCtrlConnection_8c.html#a379089510626b43f9386a6db71f4a3ef" target="_top" xlink:title=" ">
<polygon fill="white" stroke="black" points="739,-269.5 739,-288.5 894,-288.5 894,-269.5 739,-269.5"/>
<text text-anchor="middle" x="816.5" y="-276.5" font-family="Helvetica,sans-Serif" font-size="10.00">wld_wpaCtrl_checkSockPath</text>
</a>
</g>
</g>
<!-- Node19&#45;&gt;Node20 -->
<g id="edge19" class="edge">
<title>Node19&#45;&gt;Node20</title>
<path fill="none" stroke="midnightblue" d="M679.61,-248.8C706.34,-254.74 737.26,-261.61 762.85,-267.3"/>
<polygon fill="midnightblue" stroke="midnightblue" points="762.21,-270.74 772.73,-269.5 763.73,-263.91 762.21,-270.74"/>
</g>
<!-- Node21 -->
<g id="node21" class="node">
<title>Node21</title>
<g id="a_node21"><a xlink:href="wld__wpaCtrlInterface_8c.html#a9acfa80398f0e1389219c511e1b3b073" target="_top" xlink:title=" ">
<polygon fill="white" stroke="black" points="756.5,-220 756.5,-250 876.5,-250 876.5,-220 756.5,-220"/>
<text text-anchor="start" x="764.5" y="-238" font-family="Helvetica,sans-Serif" font-size="10.00">wld_wpaCtrlInterface</text>
<text text-anchor="middle" x="816.5" y="-227" font-family="Helvetica,sans-Serif" font-size="10.00">_getPath</text>
</a>
</g>
</g>
<!-- Node19&#45;&gt;Node21 -->
<g id="edge20" class="edge">
<title>Node19&#45;&gt;Node21</title>
<path fill="none" stroke="midnightblue" d="M679.61,-235C700.75,-235 724.52,-235 746.2,-235"/>
<polygon fill="midnightblue" stroke="midnightblue" points="746.32,-238.5 756.32,-235 746.32,-231.5 746.32,-238.5"/>
</g>
<!-- Node21&#45;&gt;Node12 -->
<g id="edge21" class="edge">
<title>Node21&#45;&gt;Node12</title>
<path fill="none" stroke="midnightblue" d="M876.56,-228.25C895.11,-226.13 915.82,-223.76 935.3,-221.54"/>
<polygon fill="midnightblue" stroke="midnightblue" points="935.81,-225 945.35,-220.39 935.02,-218.05 935.81,-225"/>
</g>
<!-- Node23 -->
<g id="node23" class="node">
<title>Node23</title>
<g id="a_node23"><a xlink:href="wld__secDmn_8c.html#ad8ebf9f869b635102d27d9a476e4d9eb" target="_top" xlink:title=" ">
<polygon fill="white" stroke="black" points="750.5,-137.5 750.5,-156.5 882.5,-156.5 882.5,-137.5 750.5,-137.5"/>
<text text-anchor="middle" x="816.5" y="-144.5" font-family="Helvetica,sans-Serif" font-size="10.00">wld_secDmn_isRunning</text>
</a>
</g>
</g>
<!-- Node22&#45;&gt;Node23 -->
<g id="edge23" class="edge">
<title>Node22&#45;&gt;Node23</title>
<path fill="none" stroke="midnightblue" d="M660.46,-112.55C690.43,-119.21 730.61,-128.14 762.56,-135.24"/>
<polygon fill="midnightblue" stroke="midnightblue" points="762.1,-138.72 772.62,-137.47 763.62,-131.89 762.1,-138.72"/>
</g>
<!-- Node25 -->
<g id="node25" class="node">
<title>Node25</title>
<g id="a_node25"><a xlink:href="wld__wpaCtrlMngr_8c.html#a3dc93dfda0d67c0e7254cc1ffeeb3ebe" target="_top" xlink:title=" ">
<polygon fill="white" stroke="black" points="745,-88 745,-118 888,-118 888,-88 745,-88"/>
<text text-anchor="start" x="753" y="-106" font-family="Helvetica,sans-Serif" font-size="10.00">wld_wpaCtrlMngr_getFirst</text>
<text text-anchor="middle" x="816.5" y="-95" font-family="Helvetica,sans-Serif" font-size="10.00">ReadyInterface</text>
</a>
</g>
</g>
<!-- Node22&#45;&gt;Node25 -->
<g id="edge25" class="edge">
<title>Node22&#45;&gt;Node25</title>
<path fill="none" stroke="midnightblue" d="M700.04,-103C711.41,-103 723.08,-103 734.43,-103"/>
<polygon fill="midnightblue" stroke="midnightblue" points="734.74,-106.5 744.74,-103 734.74,-99.5 734.74,-106.5"/>
</g>
<!-- Node24 -->
<g id="node24" class="node">
<title>Node24</title>
<g id="a_node24"><a xlink:href="wld__daemon_8c.html#a6ba98a859d038541e1c2ee48d8566547" target="_top" xlink:title=" ">
<polygon fill="white" stroke="black" points="954,-137.5 954,-156.5 1068,-156.5 1068,-137.5 954,-137.5"/>
<text text-anchor="middle" x="1011" y="-144.5" font-family="Helvetica,sans-Serif" font-size="10.00">wld_dmn_isRunning</text>
</a>
</g>
</g>
<!-- Node23&#45;&gt;Node24 -->
<g id="edge24" class="edge">
<title>Node23&#45;&gt;Node24</title>
<path fill="none" stroke="midnightblue" d="M882.67,-147C902.36,-147 924,-147 943.76,-147"/>
<polygon fill="midnightblue" stroke="midnightblue" points="943.9,-150.5 953.9,-147 943.9,-143.5 943.9,-150.5"/>
</g>
<!-- Node26 -->
<g id="node26" class="node">
<title>Node26</title>
<g id="a_node26"><a xlink:href="wld__wpaCtrlInterface_8c.html#a8b38bc9ca95b60e002d38cdb1374d1d0" target="_top" xlink:title=" ">
<polygon fill="white" stroke="black" points="951,-88 951,-118 1071,-118 1071,-88 951,-88"/>
<text text-anchor="start" x="959" y="-106" font-family="Helvetica,sans-Serif" font-size="10.00">wld_wpaCtrlInterface</text>
<text text-anchor="middle" x="1011" y="-95" font-family="Helvetica,sans-Serif" font-size="10.00">_isReady</text>
</a>
</g>
</g>
<!-- Node25&#45;&gt;Node26 -->
<g id="edge26" class="edge">
<title>Node25&#45;&gt;Node26</title>
<path fill="none" stroke="midnightblue" d="M888.09,-103C905.15,-103 923.37,-103 940.39,-103"/>
<polygon fill="midnightblue" stroke="midnightblue" points="940.8,-106.5 950.8,-103 940.8,-99.5 940.8,-106.5"/>
</g>
</g>
</svg>
