<?xml version="1.0" encoding="UTF-8" standalone="no"?>
<!DOCTYPE svg PUBLIC "-//W3C//DTD SVG 1.1//EN"
 "http://www.w3.org/Graphics/SVG/1.1/DTD/svg11.dtd">
<!-- Generated by graphviz version 2.43.0 (0)
 -->
<!-- Title: src/ChannelManagement/wld_chanmgt.c Pages: 1 -->
<svg width="4324pt" height="319pt"
 viewBox="0.00 0.00 4323.50 319.00" xmlns="http://www.w3.org/2000/svg" xmlns:xlink="http://www.w3.org/1999/xlink">
<g id="graph0" class="graph" transform="scale(1 1) rotate(0) translate(4 315)">
<title>src/ChannelManagement/wld_chanmgt.c</title>
<polygon fill="white" stroke="transparent" points="-4,4 -4,-315 4319.5,-315 4319.5,4 -4,4"/>
<!-- Node1 -->
<g id="node1" class="node">
<title>Node1</title>
<g id="a_node1"><a xlink:title=" ">
<polygon fill="#bfbfbf" stroke="black" points="1584,-280.5 1584,-310.5 1722,-310.5 1722,-280.5 1584,-280.5"/>
<text text-anchor="start" x="1592" y="-298.5" font-family="Helvetica,sans-Serif" font-size="10.00">src/ChannelManagement</text>
<text text-anchor="middle" x="1653" y="-287.5" font-family="Helvetica,sans-Serif" font-size="10.00">/wld_chanmgt.c</text>
</a>
</g>
</g>
<!-- Node2 -->
<g id="node2" class="node">
<title>Node2</title>
<g id="a_node2"><a xlink:href="wld_8h.html" target="_top" xlink:title=" ">
<polygon fill="white" stroke="red" points="1867.5,-112.5 1867.5,-131.5 1910.5,-131.5 1910.5,-112.5 1867.5,-112.5"/>
<text text-anchor="middle" x="1889" y="-119.5" font-family="Helvetica,sans-Serif" font-size="10.00">wld.h</text>
</a>
</g>
</g>
<!-- Node1&#45;&gt;Node2 -->
<g id="edge1" class="edge">
<title>Node1&#45;&gt;Node2</title>
<path fill="none" stroke="midnightblue" d="M1672.31,-280.46C1704.41,-257.11 1770.8,-208.83 1827,-168 1841.03,-157.81 1856.85,-146.33 1868.99,-137.51"/>
<polygon fill="midnightblue" stroke="midnightblue" points="1871.07,-140.33 1877.11,-131.62 1866.96,-134.66 1871.07,-140.33"/>
</g>
<!-- Node12 -->
<g id="node12" class="node">
<title>Node12</title>
<g id="a_node12"><a xlink:title=" ">
<polygon fill="white" stroke="#bfbfbf" points="0,-56.5 0,-75.5 128,-75.5 128,-56.5 0,-56.5"/>
<text text-anchor="middle" x="64" y="-63.5" font-family="Helvetica,sans-Serif" font-size="10.00">swla/swla_delayExec.h</text>
</a>
</g>
</g>
<!-- Node1&#45;&gt;Node12 -->
<g id="edge73" class="edge">
<title>Node1&#45;&gt;Node12</title>
<path fill="none" stroke="midnightblue" d="M1583.7,-291.97C1459.07,-286.86 1189.03,-273.21 963,-244 828.05,-226.56 795.58,-213.94 662,-188 458.98,-148.58 217.79,-98.9 114.75,-77.55"/>
<polygon fill="midnightblue" stroke="midnightblue" points="115.42,-74.11 104.92,-75.51 114,-80.97 115.42,-74.11"/>
</g>
<!-- Node48 -->
<g id="node35" class="node">
<title>Node48</title>
<g id="a_node35"><a xlink:title=" ">
<polygon fill="white" stroke="#bfbfbf" points="146.5,-56.5 146.5,-75.5 243.5,-75.5 243.5,-56.5 146.5,-56.5"/>
<text text-anchor="middle" x="195" y="-63.5" font-family="Helvetica,sans-Serif" font-size="10.00">swl/swl_assert.h</text>
</a>
</g>
</g>
<!-- Node1&#45;&gt;Node48 -->
<g id="edge46" class="edge">
<title>Node1&#45;&gt;Node48</title>
<path fill="none" stroke="midnightblue" d="M1583.7,-290.67C1477.03,-284.24 1266.35,-269.42 1089,-244 761.53,-197.06 372.61,-108.72 241.07,-77.92"/>
<polygon fill="midnightblue" stroke="midnightblue" points="241.49,-74.43 230.96,-75.55 239.89,-81.24 241.49,-74.43"/>
</g>
<!-- Node55 -->
<g id="node36" class="node">
<title>Node55</title>
<g id="a_node36"><a xlink:href="wld__dm__trans_8h.html" target="_top" xlink:title=" ">
<polygon fill="white" stroke="red" points="399,-56.5 399,-75.5 493,-75.5 493,-56.5 399,-56.5"/>
<text text-anchor="middle" x="446" y="-63.5" font-family="Helvetica,sans-Serif" font-size="10.00">wld_dm_trans.h</text>
</a>
</g>
</g>
<!-- Node1&#45;&gt;Node55 -->
<g id="edge75" class="edge">
<title>Node1&#45;&gt;Node55</title>
<path fill="none" stroke="midnightblue" d="M1583.73,-289.49C1493.87,-282.38 1332.48,-267.55 1196,-244 921.77,-196.67 598.03,-109.4 486.28,-78.34"/>
<polygon fill="midnightblue" stroke="midnightblue" points="487.02,-74.91 476.44,-75.6 485.14,-81.65 487.02,-74.91"/>
</g>
<!-- Node75 -->
<g id="node37" class="node">
<title>Node75</title>
<g id="a_node37"><a xlink:href="wld__util_8h.html" target="_top" xlink:title=" ">
<polygon fill="white" stroke="black" points="2072,-168.5 2072,-187.5 2136,-187.5 2136,-168.5 2072,-168.5"/>
<text text-anchor="middle" x="2104" y="-175.5" font-family="Helvetica,sans-Serif" font-size="10.00">wld_util.h</text>
</a>
</g>
</g>
<!-- Node1&#45;&gt;Node75 -->
<g id="edge41" class="edge">
<title>Node1&#45;&gt;Node75</title>
<path fill="none" stroke="midnightblue" d="M1722.03,-281.3C1769.27,-271.88 1833.21,-258.38 1889,-244 1952.8,-227.56 2026.03,-204.51 2068.46,-190.73"/>
<polygon fill="midnightblue" stroke="midnightblue" points="2069.63,-194.03 2078.05,-187.61 2067.46,-187.38 2069.63,-194.03"/>
</g>
<!-- Node76 -->
<g id="node38" class="node">
<title>Node76</title>
<g id="a_node38"><a xlink:href="wld__channel_8h.html" target="_top" xlink:title=" ">
<polygon fill="white" stroke="black" points="1285,-168.5 1285,-187.5 1371,-187.5 1371,-168.5 1285,-168.5"/>
<text text-anchor="middle" x="1328" y="-175.5" font-family="Helvetica,sans-Serif" font-size="10.00">wld_channel.h</text>
</a>
</g>
</g>
<!-- Node1&#45;&gt;Node76 -->
<g id="edge43" class="edge">
<title>Node1&#45;&gt;Node76</title>
<path fill="none" stroke="midnightblue" d="M1583.75,-290.3C1507.3,-284.38 1390.49,-271.11 1356,-244 1341.68,-232.74 1334.56,-212.73 1331.1,-197.88"/>
<polygon fill="midnightblue" stroke="midnightblue" points="1334.47,-196.89 1329.11,-187.75 1327.6,-198.24 1334.47,-196.89"/>
</g>
<!-- Node77 -->
<g id="node39" class="node">
<title>Node77</title>
<g id="a_node39"><a xlink:href="wld__channel__lib_8h.html" target="_top" xlink:title=" ">
<polygon fill="white" stroke="red" points="1205,-224.5 1205,-243.5 1309,-243.5 1309,-224.5 1205,-224.5"/>
<text text-anchor="middle" x="1257" y="-231.5" font-family="Helvetica,sans-Serif" font-size="10.00">wld_channel_lib.h</text>
</a>
</g>
</g>
<!-- Node1&#45;&gt;Node77 -->
<g id="edge47" class="edge">
<title>Node1&#45;&gt;Node77</title>
<path fill="none" stroke="midnightblue" d="M1583.57,-284.07C1508.94,-272.85 1391.37,-255.19 1319.53,-244.39"/>
<polygon fill="midnightblue" stroke="midnightblue" points="1319.68,-240.88 1309.27,-242.85 1318.64,-247.8 1319.68,-240.88"/>
</g>
<!-- Node79 -->
<g id="node40" class="node">
<title>Node79</title>
<g id="a_node40"><a xlink:title=" ">
<polygon fill="white" stroke="#bfbfbf" points="1528.5,-224.5 1528.5,-243.5 1581.5,-243.5 1581.5,-224.5 1528.5,-224.5"/>
<text text-anchor="middle" x="1555" y="-231.5" font-family="Helvetica,sans-Serif" font-size="10.00">stdlib.h</text>
</a>
</g>
</g>
<!-- Node1&#45;&gt;Node79 -->
<g id="edge50" class="edge">
<title>Node1&#45;&gt;Node79</title>
<path fill="none" stroke="midnightblue" d="M1629.78,-280.4C1614.21,-270.95 1593.8,-258.56 1578.24,-249.11"/>
<polygon fill="midnightblue" stroke="midnightblue" points="1579.62,-245.86 1569.26,-243.66 1575.99,-251.84 1579.62,-245.86"/>
</g>
<!-- Node80 -->
<g id="node41" class="node">
<title>Node80</title>
<g id="a_node41"><a xlink:title=" ">
<polygon fill="white" stroke="#bfbfbf" points="1599.5,-224.5 1599.5,-243.5 1652.5,-243.5 1652.5,-224.5 1599.5,-224.5"/>
<text text-anchor="middle" x="1626" y="-231.5" font-family="Helvetica,sans-Serif" font-size="10.00">string.h</text>
</a>
</g>
</g>
<!-- Node1&#45;&gt;Node80 -->
<g id="edge51" class="edge">
<title>Node1&#45;&gt;Node80</title>
<path fill="none" stroke="midnightblue" d="M1646.6,-280.4C1642.88,-272.2 1638.15,-261.78 1634.17,-252.99"/>
<polygon fill="midnightblue" stroke="midnightblue" points="1637.25,-251.32 1629.93,-243.66 1630.87,-254.21 1637.25,-251.32"/>
</g>
<!-- Node81 -->
<g id="node42" class="node">
<title>Node81</title>
<g id="a_node42"><a xlink:href="wld__chanmgt_8h.html" target="_top" xlink:title=" ">
<polygon fill="white" stroke="red" points="1427.5,-168.5 1427.5,-187.5 1518.5,-187.5 1518.5,-168.5 1427.5,-168.5"/>
<text text-anchor="middle" x="1473" y="-175.5" font-family="Helvetica,sans-Serif" font-size="10.00">wld_chanmgt.h</text>
</a>
</g>
</g>
<!-- Node1&#45;&gt;Node81 -->
<g id="edge52" class="edge">
<title>Node1&#45;&gt;Node81</title>
<path fill="none" stroke="midnightblue" d="M1594.61,-280.4C1569.91,-272.49 1541.86,-260.75 1520,-244 1503.47,-231.34 1490.22,-211.3 1482.05,-196.81"/>
<polygon fill="midnightblue" stroke="midnightblue" points="1485.05,-194.99 1477.24,-187.83 1478.88,-198.3 1485.05,-194.99"/>
</g>
<!-- Node82 -->
<g id="node43" class="node">
<title>Node82</title>
<g id="a_node43"><a xlink:href="wld__ap__rssiMonitor_8h.html" target="_top" xlink:title=" ">
<polygon fill="white" stroke="black" points="1536.5,-168.5 1536.5,-187.5 1655.5,-187.5 1655.5,-168.5 1536.5,-168.5"/>
<text text-anchor="middle" x="1596" y="-175.5" font-family="Helvetica,sans-Serif" font-size="10.00">wld_ap_rssiMonitor.h</text>
</a>
</g>
</g>
<!-- Node1&#45;&gt;Node82 -->
<g id="edge54" class="edge">
<title>Node1&#45;&gt;Node82</title>
<path fill="none" stroke="midnightblue" d="M1659.42,-280.39C1665.18,-265.5 1671.4,-241.78 1662,-224 1654.58,-209.95 1640.58,-199.47 1627.38,-192.17"/>
<polygon fill="midnightblue" stroke="midnightblue" points="1628.96,-189.04 1618.46,-187.62 1625.78,-195.28 1628.96,-189.04"/>
</g>
<!-- Node83 -->
<g id="node44" class="node">
<title>Node83</title>
<g id="a_node44"><a xlink:href="wld__rad__stamon_8h.html" target="_top" xlink:title=" ">
<polygon fill="white" stroke="black" points="1674,-168.5 1674,-187.5 1780,-187.5 1780,-168.5 1674,-168.5"/>
<text text-anchor="middle" x="1727" y="-175.5" font-family="Helvetica,sans-Serif" font-size="10.00">wld_rad_stamon.h</text>
</a>
</g>
</g>
<!-- Node1&#45;&gt;Node83 -->
<g id="edge56" class="edge">
<title>Node1&#45;&gt;Node83</title>
<path fill="none" stroke="midnightblue" d="M1662.07,-280.34C1675.65,-259.15 1701.22,-219.24 1715.89,-196.34"/>
<polygon fill="midnightblue" stroke="midnightblue" points="1719,-197.98 1721.45,-187.67 1713.1,-194.2 1719,-197.98"/>
</g>
<!-- Node84 -->
<g id="node45" class="node">
<title>Node84</title>
<g id="a_node45"><a xlink:href="wld__eventing_8h.html" target="_top" xlink:title=" ">
<polygon fill="white" stroke="black" points="3625.5,-112.5 3625.5,-131.5 3716.5,-131.5 3716.5,-112.5 3625.5,-112.5"/>
<text text-anchor="middle" x="3671" y="-119.5" font-family="Helvetica,sans-Serif" font-size="10.00">wld_eventing.h</text>
</a>
</g>
</g>
<!-- Node1&#45;&gt;Node84 -->
<g id="edge58" class="edge">
<title>Node1&#45;&gt;Node84</title>
<path fill="none" stroke="midnightblue" d="M1722.28,-283.83C1823.35,-268.6 2017.21,-240.64 2183,-224 2740.46,-168.06 3418.6,-134.53 3615.16,-125.49"/>
<polygon fill="midnightblue" stroke="midnightblue" points="3615.42,-128.98 3625.25,-125.03 3615.1,-121.99 3615.42,-128.98"/>
</g>
<!-- Node85 -->
<g id="node46" class="node">
<title>Node85</title>
<g id="a_node46"><a xlink:href="wld__radio_8h.html" target="_top" xlink:title=" ">
<polygon fill="white" stroke="red" points="1365.5,-224.5 1365.5,-243.5 1438.5,-243.5 1438.5,-224.5 1365.5,-224.5"/>
<text text-anchor="middle" x="1402" y="-231.5" font-family="Helvetica,sans-Serif" font-size="10.00">wld_radio.h</text>
</a>
</g>
</g>
<!-- Node1&#45;&gt;Node85 -->
<g id="edge66" class="edge">
<title>Node1&#45;&gt;Node85</title>
<path fill="none" stroke="midnightblue" d="M1593.83,-280.47C1549.21,-269.9 1488.88,-255.59 1447.87,-245.87"/>
<polygon fill="midnightblue" stroke="midnightblue" points="1448.42,-242.41 1437.88,-243.51 1446.81,-249.22 1448.42,-242.41"/>
</g>
<!-- Node91 -->
<g id="node47" class="node">
<title>Node91</title>
<g id="a_node47"><a xlink:href="wld__accesspoint_8h.html" target="_top" xlink:title=" ">
<polygon fill="white" stroke="red" points="1836,-168.5 1836,-187.5 1942,-187.5 1942,-168.5 1836,-168.5"/>
<text text-anchor="middle" x="1889" y="-175.5" font-family="Helvetica,sans-Serif" font-size="10.00">wld_accesspoint.h</text>
</a>
</g>
</g>
<!-- Node1&#45;&gt;Node91 -->
<g id="edge69" class="edge">
<title>Node1&#45;&gt;Node91</title>
<path fill="none" stroke="midnightblue" d="M1722.27,-281.73C1754.11,-273.92 1791.49,-261.89 1822,-244 1843.74,-231.25 1863.79,-210.01 1876.18,-195.3"/>
<polygon fill="midnightblue" stroke="midnightblue" points="1878.93,-197.46 1882.54,-187.5 1873.51,-193.03 1878.93,-197.46"/>
</g>
<!-- Node93 -->
<g id="node48" class="node">
<title>Node93</title>
<g id="a_node48"><a xlink:href="wld__assocdev_8h.html" target="_top" xlink:title=" ">
<polygon fill="white" stroke="red" points="1960.5,-168.5 1960.5,-187.5 2053.5,-187.5 2053.5,-168.5 1960.5,-168.5"/>
<text text-anchor="middle" x="2007" y="-175.5" font-family="Helvetica,sans-Serif" font-size="10.00">wld_assocdev.h</text>
</a>
</g>
</g>
<!-- Node1&#45;&gt;Node93 -->
<g id="edge71" class="edge">
<title>Node1&#45;&gt;Node93</title>
<path fill="none" stroke="midnightblue" d="M1716.76,-280.43C1755.41,-271.32 1805.49,-258.48 1849,-244 1895.47,-228.54 1947.73,-205.98 1978.98,-191.91"/>
<polygon fill="midnightblue" stroke="midnightblue" points="1980.69,-194.98 1988.35,-187.66 1977.8,-188.6 1980.69,-194.98"/>
</g>
<!-- Node96 -->
<g id="node49" class="node">
<title>Node96</title>
<g id="a_node49"><a xlink:title=" ">
<polygon fill="white" stroke="#bfbfbf" points="2192,-224.5 2192,-243.5 2296,-243.5 2296,-224.5 2192,-224.5"/>
<text text-anchor="middle" x="2244" y="-231.5" font-family="Helvetica,sans-Serif" font-size="10.00">swla/swla_trans.h</text>
</a>
</g>
</g>
<!-- Node1&#45;&gt;Node96 -->
<g id="edge74" class="edge">
<title>Node1&#45;&gt;Node96</title>
<path fill="none" stroke="midnightblue" d="M1722.31,-288.71C1822.85,-280.12 2014.96,-262.95 2178,-244 2179.26,-243.85 2180.53,-243.7 2181.82,-243.55"/>
<polygon fill="midnightblue" stroke="midnightblue" points="2182.29,-247.02 2191.79,-242.31 2181.43,-240.07 2182.29,-247.02"/>
</g>
<!-- Node97 -->
<g id="node50" class="node">
<title>Node97</title>
<g id="a_node50"><a xlink:href="wld__autoCommitMgr_8h.html" target="_top" xlink:title=" ">
<polygon fill="white" stroke="black" points="2314,-224.5 2314,-243.5 2466,-243.5 2466,-224.5 2314,-224.5"/>
<text text-anchor="middle" x="2390" y="-231.5" font-family="Helvetica,sans-Serif" font-size="10.00">Utils/wld_autoCommitMgr.h</text>
</a>
</g>
</g>
<!-- Node1&#45;&gt;Node97 -->
<g id="edge76" class="edge">
<title>Node1&#45;&gt;Node97</title>
<path fill="none" stroke="midnightblue" d="M1722.05,-289.79C1839.32,-281.66 2085.14,-264 2303.51,-244.12"/>
<polygon fill="midnightblue" stroke="midnightblue" points="2303.91,-247.59 2313.55,-243.2 2303.28,-240.62 2303.91,-247.59"/>
</g>
<!-- Node3 -->
<g id="node3" class="node">
<title>Node3</title>
<g id="a_node3"><a xlink:title=" ">
<polygon fill="white" stroke="#bfbfbf" points="390,-0.5 390,-19.5 452,-19.5 452,-0.5 390,-0.5"/>
<text text-anchor="middle" x="421" y="-7.5" font-family="Helvetica,sans-Serif" font-size="10.00">stdbool.h</text>
</a>
</g>
</g>
<!-- Node2&#45;&gt;Node3 -->
<g id="edge2" class="edge">
<title>Node2&#45;&gt;Node3</title>
<path fill="none" stroke="midnightblue" d="M1867.25,-120.88C1704.01,-119.91 673.16,-112.37 540,-76 537.44,-75.3 479.61,-43.43 445.52,-24.58"/>
<polygon fill="midnightblue" stroke="midnightblue" points="447.05,-21.42 436.6,-19.64 443.66,-27.55 447.05,-21.42"/>
</g>
<!-- Node4 -->
<g id="node4" class="node">
<title>Node4</title>
<g id="a_node4"><a xlink:title=" ">
<polygon fill="white" stroke="#bfbfbf" points="2507.5,-0.5 2507.5,-19.5 2560.5,-19.5 2560.5,-0.5 2507.5,-0.5"/>
<text text-anchor="middle" x="2534" y="-7.5" font-family="Helvetica,sans-Serif" font-size="10.00">stdint.h</text>
</a>
</g>
</g>
<!-- Node2&#45;&gt;Node4 -->
<g id="edge3" class="edge">
<title>Node2&#45;&gt;Node4</title>
<path fill="none" stroke="midnightblue" d="M1910.7,-120.85C2052.68,-119.79 2844.38,-112.23 2879,-76 2885.14,-69.57 2884.86,-62.68 2879,-56 2858.86,-33.07 2655.49,-18.3 2570.76,-13.09"/>
<polygon fill="midnightblue" stroke="midnightblue" points="2570.75,-9.59 2560.56,-12.48 2570.33,-16.57 2570.75,-9.59"/>
</g>
<!-- Node5 -->
<g id="node5" class="node">
<title>Node5</title>
<g id="a_node5"><a xlink:title=" ">
<polygon fill="white" stroke="#bfbfbf" points="2330,-56.5 2330,-75.5 2440,-75.5 2440,-56.5 2330,-56.5"/>
<text text-anchor="middle" x="2385" y="-63.5" font-family="Helvetica,sans-Serif" font-size="10.00">swl/swl_common.h</text>
</a>
</g>
</g>
<!-- Node2&#45;&gt;Node5 -->
<g id="edge4" class="edge">
<title>Node2&#45;&gt;Node5</title>
<path fill="none" stroke="midnightblue" d="M1910.61,-119.03C1972.52,-113.31 2156.08,-95.96 2319.61,-76.13"/>
<polygon fill="midnightblue" stroke="midnightblue" points="2320.36,-79.57 2329.86,-74.88 2319.51,-72.62 2320.36,-79.57"/>
</g>
<!-- Node6 -->
<g id="node6" class="node">
<title>Node6</title>
<g id="a_node6"><a xlink:title=" ">
<polygon fill="white" stroke="#bfbfbf" points="2458,-56.5 2458,-75.5 2594,-75.5 2594,-56.5 2458,-56.5"/>
<text text-anchor="middle" x="2526" y="-63.5" font-family="Helvetica,sans-Serif" font-size="10.00">swla/swla_commonLib.h</text>
</a>
</g>
</g>
<!-- Node2&#45;&gt;Node6 -->
<g id="edge5" class="edge">
<title>Node2&#45;&gt;Node6</title>
<path fill="none" stroke="midnightblue" d="M1910.65,-119.54C1984.23,-114.53 2231.68,-97.2 2447.73,-76.09"/>
<polygon fill="midnightblue" stroke="midnightblue" points="2448.38,-79.54 2457.99,-75.08 2447.7,-72.58 2448.38,-79.54"/>
</g>
<!-- Node7 -->
<g id="node7" class="node">
<title>Node7</title>
<g id="a_node7"><a xlink:title=" ">
<polygon fill="white" stroke="#bfbfbf" points="2612,-56.5 2612,-75.5 2700,-75.5 2700,-56.5 2612,-56.5"/>
<text text-anchor="middle" x="2656" y="-63.5" font-family="Helvetica,sans-Serif" font-size="10.00">swl/swl_uuid.h</text>
</a>
</g>
</g>
<!-- Node2&#45;&gt;Node7 -->
<g id="edge6" class="edge">
<title>Node2&#45;&gt;Node7</title>
<path fill="none" stroke="midnightblue" d="M1910.69,-120.47C1996.78,-118.17 2322.86,-107.84 2601.5,-76.05"/>
<polygon fill="midnightblue" stroke="midnightblue" points="2602.27,-79.49 2611.8,-74.86 2601.47,-72.53 2602.27,-79.49"/>
</g>
<!-- Node8 -->
<g id="node8" class="node">
<title>Node8</title>
<g id="a_node8"><a xlink:title=" ">
<polygon fill="white" stroke="#bfbfbf" points="2718,-56.5 2718,-75.5 2870,-75.5 2870,-56.5 2718,-56.5"/>
<text text-anchor="middle" x="2794" y="-63.5" font-family="Helvetica,sans-Serif" font-size="10.00">swla/swla_radioStandards.h</text>
</a>
</g>
</g>
<!-- Node2&#45;&gt;Node8 -->
<g id="edge7" class="edge">
<title>Node2&#45;&gt;Node8</title>
<path fill="none" stroke="midnightblue" d="M1910.57,-120.22C2004.1,-116.75 2384.17,-101.77 2707.53,-76.08"/>
<polygon fill="midnightblue" stroke="midnightblue" points="2707.87,-79.56 2717.56,-75.28 2707.31,-72.59 2707.87,-79.56"/>
</g>
<!-- Node9 -->
<g id="node9" class="node">
<title>Node9</title>
<g id="a_node9"><a xlink:title=" ">
<polygon fill="white" stroke="#bfbfbf" points="2024.5,-0.5 2024.5,-19.5 2125.5,-19.5 2125.5,-0.5 2024.5,-0.5"/>
<text text-anchor="middle" x="2075" y="-7.5" font-family="Helvetica,sans-Serif" font-size="10.00">swla/swla_time.h</text>
</a>
</g>
</g>
<!-- Node2&#45;&gt;Node9 -->
<g id="edge8" class="edge">
<title>Node2&#45;&gt;Node9</title>
<path fill="none" stroke="midnightblue" d="M1910.68,-121.51C1946.02,-121.12 2016.09,-115.07 2056,-76 2068.2,-64.06 2072.67,-44.75 2074.26,-30.28"/>
<polygon fill="midnightblue" stroke="midnightblue" points="2077.78,-30.17 2075,-19.94 2070.79,-29.66 2077.78,-30.17"/>
</g>
<!-- Node10 -->
<g id="node10" class="node">
<title>Node10</title>
<g id="a_node10"><a xlink:title=" ">
<polygon fill="white" stroke="#bfbfbf" points="2926.5,-56.5 2926.5,-75.5 3055.5,-75.5 3055.5,-56.5 2926.5,-56.5"/>
<text text-anchor="middle" x="2991" y="-63.5" font-family="Helvetica,sans-Serif" font-size="10.00">swla/swla_time_spec.h</text>
</a>
</g>
</g>
<!-- Node2&#45;&gt;Node10 -->
<g id="edge9" class="edge">
<title>Node2&#45;&gt;Node10</title>
<path fill="none" stroke="midnightblue" d="M1910.63,-120.61C2018.67,-118.52 2510.58,-107.66 2912,-76 2913.32,-75.9 2914.64,-75.79 2915.98,-75.67"/>
<polygon fill="midnightblue" stroke="midnightblue" points="2916.72,-79.12 2926.37,-74.73 2916.09,-72.15 2916.72,-79.12"/>
</g>
<!-- Node11 -->
<g id="node11" class="node">
<title>Node11</title>
<g id="a_node11"><a xlink:title=" ">
<polygon fill="white" stroke="#bfbfbf" points="3074,-56.5 3074,-75.5 3168,-75.5 3168,-56.5 3074,-56.5"/>
<text text-anchor="middle" x="3121" y="-63.5" font-family="Helvetica,sans-Serif" font-size="10.00">swla/swla_oui.h</text>
</a>
</g>
</g>
<!-- Node2&#45;&gt;Node11 -->
<g id="edge10" class="edge">
<title>Node2&#45;&gt;Node11</title>
<path fill="none" stroke="midnightblue" d="M1910.71,-121.15C2027.44,-121.74 2592.34,-122.05 3063.63,-76.01"/>
<polygon fill="midnightblue" stroke="midnightblue" points="3064.09,-79.48 3073.7,-75.02 3063.4,-72.51 3064.09,-79.48"/>
</g>
<!-- Node2&#45;&gt;Node12 -->
<g id="edge11" class="edge">
<title>Node2&#45;&gt;Node12</title>
<path fill="none" stroke="midnightblue" d="M1867.42,-120.73C1693.55,-118.55 518.08,-103 138.25,-76"/>
<polygon fill="midnightblue" stroke="midnightblue" points="138.29,-72.49 128.06,-75.25 137.78,-79.47 138.29,-72.49"/>
</g>
<!-- Node13 -->
<g id="node13" class="node">
<title>Node13</title>
<g id="a_node13"><a xlink:title=" ">
<polygon fill="white" stroke="#bfbfbf" points="3186.5,-56.5 3186.5,-75.5 3305.5,-75.5 3305.5,-56.5 3186.5,-56.5"/>
<text text-anchor="middle" x="3246" y="-63.5" font-family="Helvetica,sans-Serif" font-size="10.00">swla/swla_function.h</text>
</a>
</g>
</g>
<!-- Node2&#45;&gt;Node13 -->
<g id="edge12" class="edge">
<title>Node2&#45;&gt;Node13</title>
<path fill="none" stroke="midnightblue" d="M1910.69,-121.01C2033.72,-120.91 2656.39,-118.3 3175.87,-76"/>
<polygon fill="midnightblue" stroke="midnightblue" points="3176.52,-79.46 3186.2,-75.15 3175.95,-72.48 3176.52,-79.46"/>
</g>
<!-- Node14 -->
<g id="node14" class="node">
<title>Node14</title>
<g id="a_node14"><a xlink:title=" ">
<polygon fill="white" stroke="#bfbfbf" points="549.5,-56.5 549.5,-75.5 690.5,-75.5 690.5,-56.5 549.5,-56.5"/>
<text text-anchor="middle" x="620" y="-63.5" font-family="Helvetica,sans-Serif" font-size="10.00">swl/swl_usp_cmdStatus.h</text>
</a>
</g>
</g>
<!-- Node2&#45;&gt;Node14 -->
<g id="edge13" class="edge">
<title>Node2&#45;&gt;Node14</title>
<path fill="none" stroke="midnightblue" d="M1867.47,-120.78C1750.49,-119.47 1179.37,-111.49 700.87,-76"/>
<polygon fill="midnightblue" stroke="midnightblue" points="700.88,-72.49 690.64,-75.24 700.36,-79.47 700.88,-72.49"/>
</g>
<!-- Node15 -->
<g id="node15" class="node">
<title>Node15</title>
<g id="a_node15"><a xlink:title=" ">
<polygon fill="white" stroke="#bfbfbf" points="709,-56.5 709,-75.5 795,-75.5 795,-56.5 709,-56.5"/>
<text text-anchor="middle" x="752" y="-63.5" font-family="Helvetica,sans-Serif" font-size="10.00">swl/swl_wps.h</text>
</a>
</g>
</g>
<!-- Node2&#45;&gt;Node15 -->
<g id="edge14" class="edge">
<title>Node2&#45;&gt;Node15</title>
<path fill="none" stroke="midnightblue" d="M1867.14,-121.15C1755.55,-121.68 1238.18,-121.51 805.28,-75.98"/>
<polygon fill="midnightblue" stroke="midnightblue" points="805.38,-72.47 795.07,-74.9 804.64,-79.43 805.38,-72.47"/>
</g>
<!-- Node16 -->
<g id="node16" class="node">
<title>Node16</title>
<g id="a_node16"><a xlink:title=" ">
<polygon fill="white" stroke="#bfbfbf" points="813,-56.5 813,-75.5 917,-75.5 917,-56.5 813,-56.5"/>
<text text-anchor="middle" x="865" y="-63.5" font-family="Helvetica,sans-Serif" font-size="10.00">swl/swl_security.h</text>
</a>
</g>
</g>
<!-- Node2&#45;&gt;Node16 -->
<g id="edge15" class="edge">
<title>Node2&#45;&gt;Node16</title>
<path fill="none" stroke="midnightblue" d="M1867.25,-120.79C1763.64,-119.6 1309.74,-112.52 927.36,-76.03"/>
<polygon fill="midnightblue" stroke="midnightblue" points="927.49,-72.53 917.2,-75.05 926.82,-79.49 927.49,-72.53"/>
</g>
<!-- Node17 -->
<g id="node17" class="node">
<title>Node17</title>
<g id="a_node17"><a xlink:title=" ">
<polygon fill="white" stroke="#bfbfbf" points="3323.5,-56.5 3323.5,-75.5 3406.5,-75.5 3406.5,-56.5 3323.5,-56.5"/>
<text text-anchor="middle" x="3365" y="-63.5" font-family="Helvetica,sans-Serif" font-size="10.00">amxc/amxc.h</text>
</a>
</g>
</g>
<!-- Node2&#45;&gt;Node17 -->
<g id="edge16" class="edge">
<title>Node2&#45;&gt;Node17</title>
<path fill="none" stroke="midnightblue" d="M1910.62,-120.75C2065.14,-118.92 3004.28,-106.71 3313.05,-76.03"/>
<polygon fill="midnightblue" stroke="midnightblue" points="3313.73,-79.47 3323.32,-74.97 3313.02,-72.51 3313.73,-79.47"/>
</g>
<!-- Node18 -->
<g id="node18" class="node">
<title>Node18</title>
<g id="a_node18"><a xlink:title=" ">
<polygon fill="white" stroke="#bfbfbf" points="3425,-56.5 3425,-75.5 3509,-75.5 3509,-56.5 3425,-56.5"/>
<text text-anchor="middle" x="3467" y="-63.5" font-family="Helvetica,sans-Serif" font-size="10.00">amxp/amxp.h</text>
</a>
</g>
</g>
<!-- Node2&#45;&gt;Node18 -->
<g id="edge17" class="edge">
<title>Node2&#45;&gt;Node18</title>
<path fill="none" stroke="midnightblue" d="M1910.57,-120.8C2071.25,-119.21 3084.09,-108.07 3414.71,-75.95"/>
<polygon fill="midnightblue" stroke="midnightblue" points="3415.16,-79.42 3424.77,-74.94 3414.47,-72.45 3415.16,-79.42"/>
</g>
<!-- Node19 -->
<g id="node19" class="node">
<title>Node19</title>
<g id="a_node19"><a xlink:title=" ">
<polygon fill="white" stroke="#bfbfbf" points="3527,-56.5 3527,-75.5 3667,-75.5 3667,-56.5 3527,-56.5"/>
<text text-anchor="middle" x="3597" y="-63.5" font-family="Helvetica,sans-Serif" font-size="10.00">amxd/amxd_parameter.h</text>
</a>
</g>
</g>
<!-- Node2&#45;&gt;Node19 -->
<g id="edge18" class="edge">
<title>Node2&#45;&gt;Node19</title>
<path fill="none" stroke="midnightblue" d="M1910.61,-121.1C2051.42,-121.62 2852.86,-122.39 3516.57,-76.03"/>
<polygon fill="midnightblue" stroke="midnightblue" points="3517.09,-79.5 3526.82,-75.31 3516.6,-72.52 3517.09,-79.5"/>
</g>
<!-- Node20 -->
<g id="node20" class="node">
<title>Node20</title>
<g id="a_node20"><a xlink:title=" ">
<polygon fill="white" stroke="#bfbfbf" points="3685.5,-56.5 3685.5,-75.5 3804.5,-75.5 3804.5,-56.5 3685.5,-56.5"/>
<text text-anchor="middle" x="3745" y="-63.5" font-family="Helvetica,sans-Serif" font-size="10.00">amxd/amxd_action.h</text>
</a>
</g>
</g>
<!-- Node2&#45;&gt;Node20 -->
<g id="edge19" class="edge">
<title>Node2&#45;&gt;Node20</title>
<path fill="none" stroke="midnightblue" d="M1910.73,-120.77C2087.14,-118.82 3287.78,-104.72 3675.09,-75.96"/>
<polygon fill="midnightblue" stroke="midnightblue" points="3675.49,-79.44 3685.2,-75.19 3674.96,-72.46 3675.49,-79.44"/>
</g>
<!-- Node21 -->
<g id="node21" class="node">
<title>Node21</title>
<g id="a_node21"><a xlink:title=" ">
<polygon fill="white" stroke="#bfbfbf" points="3822.5,-56.5 3822.5,-75.5 3997.5,-75.5 3997.5,-56.5 3822.5,-56.5"/>
<text text-anchor="middle" x="3910" y="-63.5" font-family="Helvetica,sans-Serif" font-size="10.00">amxd/amxd_object_parameter.h</text>
</a>
</g>
</g>
<!-- Node2&#45;&gt;Node21 -->
<g id="edge20" class="edge">
<title>Node2&#45;&gt;Node21</title>
<path fill="none" stroke="midnightblue" d="M1910.89,-121.07C2066.65,-121.45 3023.2,-121.77 3812.24,-76.06"/>
<polygon fill="midnightblue" stroke="midnightblue" points="3812.61,-79.54 3822.39,-75.47 3812.2,-72.56 3812.61,-79.54"/>
</g>
<!-- Node22 -->
<g id="node22" class="node">
<title>Node22</title>
<g id="a_node22"><a xlink:title=" ">
<polygon fill="white" stroke="#bfbfbf" points="4016,-56.5 4016,-75.5 4168,-75.5 4168,-56.5 4016,-56.5"/>
<text text-anchor="middle" x="4092" y="-63.5" font-family="Helvetica,sans-Serif" font-size="10.00">amxd/amxd_object_event.h</text>
</a>
</g>
</g>
<!-- Node2&#45;&gt;Node22 -->
<g id="edge21" class="edge">
<title>Node2&#45;&gt;Node22</title>
<path fill="none" stroke="midnightblue" d="M1910.59,-120.79C2104.29,-118.9 3546.76,-104.03 4005.25,-76.04"/>
<polygon fill="midnightblue" stroke="midnightblue" points="4005.81,-79.51 4015.57,-75.4 4005.37,-72.53 4005.81,-79.51"/>
</g>
<!-- Node23 -->
<g id="node23" class="node">
<title>Node23</title>
<g id="a_node23"><a xlink:title=" ">
<polygon fill="white" stroke="#bfbfbf" points="4186.5,-56.5 4186.5,-75.5 4315.5,-75.5 4315.5,-56.5 4186.5,-56.5"/>
<text text-anchor="middle" x="4251" y="-63.5" font-family="Helvetica,sans-Serif" font-size="10.00">amxd/amxd_function.h</text>
</a>
</g>
</g>
<!-- Node2&#45;&gt;Node23 -->
<g id="edge22" class="edge">
<title>Node2&#45;&gt;Node23</title>
<path fill="none" stroke="midnightblue" d="M1910.69,-120.88C2113.52,-119.69 3681.02,-109.56 4176.39,-75.94"/>
<polygon fill="midnightblue" stroke="midnightblue" points="4176.73,-79.42 4186.46,-75.24 4176.25,-72.44 4176.73,-79.42"/>
</g>
<!-- Node24 -->
<g id="node24" class="node">
<title>Node24</title>
<g id="a_node24"><a xlink:title=" ">
<polygon fill="white" stroke="#bfbfbf" points="935.5,-56.5 935.5,-75.5 1104.5,-75.5 1104.5,-56.5 935.5,-56.5"/>
<text text-anchor="middle" x="1020" y="-63.5" font-family="Helvetica,sans-Serif" font-size="10.00">amxd/amxd_object_hierarchy.h</text>
</a>
</g>
</g>
<!-- Node2&#45;&gt;Node24 -->
<g id="edge23" class="edge">
<title>Node2&#45;&gt;Node24</title>
<path fill="none" stroke="midnightblue" d="M1867.38,-120.05C1776.93,-116.02 1419.84,-99.48 1115,-76.13"/>
<polygon fill="midnightblue" stroke="midnightblue" points="1114.87,-72.61 1104.64,-75.33 1114.34,-79.59 1114.87,-72.61"/>
</g>
<!-- Node25 -->
<g id="node25" class="node">
<title>Node25</title>
<g id="a_node25"><a xlink:title=" ">
<polygon fill="white" stroke="#bfbfbf" points="1122.5,-56.5 1122.5,-75.5 1241.5,-75.5 1241.5,-56.5 1122.5,-56.5"/>
<text text-anchor="middle" x="1182" y="-63.5" font-family="Helvetica,sans-Serif" font-size="10.00">amxd/amxd_object.h</text>
</a>
</g>
</g>
<!-- Node2&#45;&gt;Node25 -->
<g id="edge24" class="edge">
<title>Node2&#45;&gt;Node25</title>
<path fill="none" stroke="midnightblue" d="M1867.45,-119.96C1787.44,-116.01 1499.78,-100.91 1251.96,-76.14"/>
<polygon fill="midnightblue" stroke="midnightblue" points="1251.98,-72.63 1241.68,-75.11 1251.28,-79.59 1251.98,-72.63"/>
</g>
<!-- Node26 -->
<g id="node26" class="node">
<title>Node26</title>
<g id="a_node26"><a xlink:title=" ">
<polygon fill="white" stroke="#bfbfbf" points="1259.5,-56.5 1259.5,-75.5 1364.5,-75.5 1364.5,-56.5 1259.5,-56.5"/>
<text text-anchor="middle" x="1312" y="-63.5" font-family="Helvetica,sans-Serif" font-size="10.00">amxd/amxd_dm.h</text>
</a>
</g>
</g>
<!-- Node2&#45;&gt;Node26 -->
<g id="edge25" class="edge">
<title>Node2&#45;&gt;Node26</title>
<path fill="none" stroke="midnightblue" d="M1867.37,-119.55C1797.66,-114.8 1572.43,-98.71 1374.73,-76.02"/>
<polygon fill="midnightblue" stroke="midnightblue" points="1375.07,-72.54 1364.74,-74.86 1374.27,-79.49 1375.07,-72.54"/>
</g>
<!-- Node27 -->
<g id="node27" class="node">
<title>Node27</title>
<g id="a_node27"><a xlink:title=" ">
<polygon fill="white" stroke="#bfbfbf" points="1383,-56.5 1383,-75.5 1527,-75.5 1527,-56.5 1383,-56.5"/>
<text text-anchor="middle" x="1455" y="-63.5" font-family="Helvetica,sans-Serif" font-size="10.00">amxd/amxd_transaction.h</text>
</a>
</g>
</g>
<!-- Node2&#45;&gt;Node27 -->
<g id="edge26" class="edge">
<title>Node2&#45;&gt;Node27</title>
<path fill="none" stroke="midnightblue" d="M1867.48,-118.32C1807.39,-110.85 1635.57,-89.47 1533.64,-76.78"/>
<polygon fill="midnightblue" stroke="midnightblue" points="1534.05,-73.31 1523.69,-75.55 1533.18,-80.25 1534.05,-73.31"/>
</g>
<!-- Node28 -->
<g id="node28" class="node">
<title>Node28</title>
<g id="a_node28"><a xlink:title=" ">
<polygon fill="white" stroke="#bfbfbf" points="1545,-56.5 1545,-75.5 1661,-75.5 1661,-56.5 1545,-56.5"/>
<text text-anchor="middle" x="1603" y="-63.5" font-family="Helvetica,sans-Serif" font-size="10.00">amxb/amxb_types.h</text>
</a>
</g>
</g>
<!-- Node2&#45;&gt;Node28 -->
<g id="edge27" class="edge">
<title>Node2&#45;&gt;Node28</title>
<path fill="none" stroke="midnightblue" d="M1867.03,-116.85C1822.71,-108.48 1721.4,-89.35 1657.95,-77.37"/>
<polygon fill="midnightblue" stroke="midnightblue" points="1658.58,-73.93 1648.1,-75.52 1657.28,-80.81 1658.58,-73.93"/>
</g>
<!-- Node29 -->
<g id="node29" class="node">
<title>Node29</title>
<g id="a_node29"><a xlink:title=" ">
<polygon fill="white" stroke="#bfbfbf" points="1679,-56.5 1679,-75.5 1815,-75.5 1815,-56.5 1679,-56.5"/>
<text text-anchor="middle" x="1747" y="-63.5" font-family="Helvetica,sans-Serif" font-size="10.00">amxb/amxb_operators.h</text>
</a>
</g>
</g>
<!-- Node2&#45;&gt;Node29 -->
<g id="edge28" class="edge">
<title>Node2&#45;&gt;Node29</title>
<path fill="none" stroke="midnightblue" d="M1867.43,-112.8C1843.94,-103.86 1806.11,-89.48 1779.12,-79.21"/>
<polygon fill="midnightblue" stroke="midnightblue" points="1780.3,-75.92 1769.71,-75.64 1777.81,-82.46 1780.3,-75.92"/>
</g>
<!-- Node30 -->
<g id="node30" class="node">
<title>Node30</title>
<g id="a_node30"><a xlink:title=" ">
<polygon fill="white" stroke="#bfbfbf" points="1833,-56.5 1833,-75.5 1945,-75.5 1945,-56.5 1833,-56.5"/>
<text text-anchor="middle" x="1889" y="-63.5" font-family="Helvetica,sans-Serif" font-size="10.00">amxb/amxb_error.h</text>
</a>
</g>
</g>
<!-- Node2&#45;&gt;Node30 -->
<g id="edge29" class="edge">
<title>Node2&#45;&gt;Node30</title>
<path fill="none" stroke="midnightblue" d="M1889,-112.08C1889,-105.01 1889,-94.86 1889,-85.99"/>
<polygon fill="midnightblue" stroke="midnightblue" points="1892.5,-85.75 1889,-75.75 1885.5,-85.75 1892.5,-85.75"/>
</g>
<!-- Node31 -->
<g id="node31" class="node">
<title>Node31</title>
<g id="a_node31"><a xlink:title=" ">
<polygon fill="white" stroke="#bfbfbf" points="1963.5,-56.5 1963.5,-75.5 2046.5,-75.5 2046.5,-56.5 1963.5,-56.5"/>
<text text-anchor="middle" x="2005" y="-63.5" font-family="Helvetica,sans-Serif" font-size="10.00">amxo/amxo.h</text>
</a>
</g>
</g>
<!-- Node2&#45;&gt;Node31 -->
<g id="edge30" class="edge">
<title>Node2&#45;&gt;Node31</title>
<path fill="none" stroke="midnightblue" d="M1907.38,-112.44C1926.22,-103.68 1955.73,-89.94 1977.38,-79.86"/>
<polygon fill="midnightblue" stroke="midnightblue" points="1979.12,-82.91 1986.71,-75.52 1976.16,-76.56 1979.12,-82.91"/>
</g>
<!-- Node32 -->
<g id="node32" class="node">
<title>Node32</title>
<g id="a_node32"><a xlink:title=" ">
<polygon fill="white" stroke="#bfbfbf" points="2196.5,-56.5 2196.5,-75.5 2311.5,-75.5 2311.5,-56.5 2196.5,-56.5"/>
<text text-anchor="middle" x="2254" y="-63.5" font-family="Helvetica,sans-Serif" font-size="10.00">amxo/amxo_types.h</text>
</a>
</g>
</g>
<!-- Node2&#45;&gt;Node32 -->
<g id="edge31" class="edge">
<title>Node2&#45;&gt;Node32</title>
<path fill="none" stroke="midnightblue" d="M1910.74,-117.78C1963.98,-109.91 2102.65,-89.39 2186.55,-76.98"/>
<polygon fill="midnightblue" stroke="midnightblue" points="2187.12,-80.43 2196.5,-75.51 2186.09,-73.51 2187.12,-80.43"/>
</g>
<!-- Node33 -->
<g id="node33" class="node">
<title>Node33</title>
<g id="a_node33"><a xlink:href="wld__types_8h.html" target="_top" xlink:title=" ">
<polygon fill="white" stroke="red" points="2103.5,-56.5 2103.5,-75.5 2178.5,-75.5 2178.5,-56.5 2103.5,-56.5"/>
<text text-anchor="middle" x="2141" y="-63.5" font-family="Helvetica,sans-Serif" font-size="10.00">wld_types.h</text>
</a>
</g>
</g>
<!-- Node2&#45;&gt;Node33 -->
<g id="edge32" class="edge">
<title>Node2&#45;&gt;Node33</title>
<path fill="none" stroke="midnightblue" d="M1910.92,-116.3C1951.39,-107.63 2038.68,-88.92 2093.35,-77.21"/>
<polygon fill="midnightblue" stroke="midnightblue" points="2094.11,-80.63 2103.16,-75.11 2092.65,-73.78 2094.11,-80.63"/>
</g>
<!-- Node36 -->
<g id="node34" class="node">
<title>Node36</title>
<g id="a_node34"><a xlink:href="wld__channel__types_8h.html" target="_top" xlink:title=" ">
<polygon fill="white" stroke="red" points="261.5,-56.5 261.5,-75.5 380.5,-75.5 380.5,-56.5 261.5,-56.5"/>
<text text-anchor="middle" x="321" y="-63.5" font-family="Helvetica,sans-Serif" font-size="10.00">wld_channel_types.h</text>
</a>
</g>
</g>
<!-- Node2&#45;&gt;Node36 -->
<g id="edge35" class="edge">
<title>Node2&#45;&gt;Node36</title>
<path fill="none" stroke="midnightblue" d="M1867.39,-121.16C1733.17,-121.99 999.76,-124.11 391.1,-75.99"/>
<polygon fill="midnightblue" stroke="midnightblue" points="391.05,-72.48 380.8,-75.17 390.49,-79.45 391.05,-72.48"/>
</g>
<!-- Node2&#45;&gt;Node48 -->
<g id="edge38" class="edge">
<title>Node2&#45;&gt;Node48</title>
<path fill="none" stroke="midnightblue" d="M1867.24,-120.79C1699.37,-119.1 607.5,-107.1 253.76,-76.03"/>
<polygon fill="midnightblue" stroke="midnightblue" points="254.04,-72.54 243.77,-75.12 253.41,-79.51 254.04,-72.54"/>
</g>
<!-- Node2&#45;&gt;Node55 -->
<g id="edge39" class="edge">
<title>Node2&#45;&gt;Node55</title>
<path fill="none" stroke="midnightblue" d="M1867.16,-121.2C1737.82,-122.29 1061.04,-125.75 503.41,-76.44"/>
<polygon fill="midnightblue" stroke="midnightblue" points="503.42,-72.93 493.15,-75.53 502.8,-79.9 503.42,-72.93"/>
</g>
<!-- Node33&#45;&gt;Node4 -->
<g id="edge33" class="edge">
<title>Node33&#45;&gt;Node4</title>
<path fill="none" stroke="midnightblue" d="M2178.68,-57.58C2181.83,-57.02 2184.96,-56.49 2188,-56 2300.23,-37.97 2433.83,-22.2 2497.17,-15.06"/>
<polygon fill="midnightblue" stroke="midnightblue" points="2497.9,-18.5 2507.44,-13.9 2497.12,-11.54 2497.9,-18.5"/>
</g>
<!-- Node33&#45;&gt;Node9 -->
<g id="edge34" class="edge">
<title>Node33&#45;&gt;Node9</title>
<path fill="none" stroke="midnightblue" d="M2130.4,-56.32C2120.54,-48.26 2105.65,-36.08 2093.78,-26.37"/>
<polygon fill="midnightblue" stroke="midnightblue" points="2095.75,-23.46 2085.8,-19.83 2091.32,-28.88 2095.75,-23.46"/>
</g>
<!-- Node36&#45;&gt;Node3 -->
<g id="edge36" class="edge">
<title>Node36&#45;&gt;Node3</title>
<path fill="none" stroke="midnightblue" d="M337.07,-56.32C352.96,-47.74 377.51,-34.49 395.96,-24.52"/>
<polygon fill="midnightblue" stroke="midnightblue" points="397.84,-27.49 404.97,-19.65 394.51,-21.33 397.84,-27.49"/>
</g>
<!-- Node36&#45;&gt;Node9 -->
<g id="edge37" class="edge">
<title>Node36&#45;&gt;Node9</title>
<path fill="none" stroke="midnightblue" d="M380.8,-56.82C383.91,-56.51 386.99,-56.24 390,-56 715.15,-30.52 1751.49,-15.3 2014.07,-11.78"/>
<polygon fill="midnightblue" stroke="midnightblue" points="2014.23,-15.28 2024.18,-11.65 2014.13,-8.28 2014.23,-15.28"/>
</g>
<!-- Node55&#45;&gt;Node2 -->
<g id="edge40" class="edge">
<title>Node55&#45;&gt;Node2</title>
<path fill="none" stroke="midnightblue" d="M493.14,-73.33C500.82,-74.38 508.64,-75.34 516,-76 1050.75,-124 1705.95,-122.48 1856.99,-121.33"/>
<polygon fill="midnightblue" stroke="midnightblue" points="1857.41,-124.82 1867.38,-121.24 1857.35,-117.82 1857.41,-124.82"/>
</g>
<!-- Node75&#45;&gt;Node2 -->
<g id="edge42" class="edge">
<title>Node75&#45;&gt;Node2</title>
<path fill="none" stroke="midnightblue" d="M2071.81,-168.92C2030.97,-158.66 1960.98,-141.08 1920.48,-130.91"/>
<polygon fill="midnightblue" stroke="midnightblue" points="1921.16,-127.47 1910.61,-128.43 1919.46,-134.26 1921.16,-127.47"/>
</g>
<!-- Node76&#45;&gt;Node2 -->
<g id="edge44" class="edge">
<title>Node76&#45;&gt;Node2</title>
<path fill="none" stroke="midnightblue" d="M1371.22,-169.86C1375.86,-169.19 1380.53,-168.55 1385,-168 1562.78,-146.05 1777.11,-130.52 1856.97,-125.11"/>
<polygon fill="midnightblue" stroke="midnightblue" points="1857.59,-128.57 1867.33,-124.41 1857.12,-121.59 1857.59,-128.57"/>
</g>
<!-- Node76&#45;&gt;Node36 -->
<g id="edge45" class="edge">
<title>Node76&#45;&gt;Node36</title>
<path fill="none" stroke="midnightblue" d="M1284.78,-172.28C1186.23,-161.51 937.27,-134.36 729,-112 581.59,-96.17 542.14,-93.89 390.95,-76.09"/>
<polygon fill="midnightblue" stroke="midnightblue" points="391.17,-72.59 380.83,-74.89 390.35,-79.54 391.17,-72.59"/>
</g>
<!-- Node77&#45;&gt;Node36 -->
<g id="edge48" class="edge">
<title>Node77&#45;&gt;Node36</title>
<path fill="none" stroke="midnightblue" d="M1208.97,-224.48C1051.42,-196.54 550.62,-107.72 379.2,-77.32"/>
<polygon fill="midnightblue" stroke="midnightblue" points="379.57,-73.83 369.12,-75.53 378.35,-80.73 379.57,-73.83"/>
</g>
<!-- Node77&#45;&gt;Node76 -->
<g id="edge49" class="edge">
<title>Node77&#45;&gt;Node76</title>
<path fill="none" stroke="midnightblue" d="M1268.41,-224.32C1279.11,-216.18 1295.34,-203.84 1308.16,-194.09"/>
<polygon fill="midnightblue" stroke="midnightblue" points="1310.54,-196.67 1316.39,-187.83 1306.31,-191.1 1310.54,-196.67"/>
</g>
<!-- Node81&#45;&gt;Node2 -->
<g id="edge53" class="edge">
<title>Node81&#45;&gt;Node2</title>
<path fill="none" stroke="midnightblue" d="M1518.6,-169.4C1521.78,-168.91 1524.94,-168.44 1528,-168 1649.44,-150.5 1794.45,-133.65 1857.33,-126.54"/>
<polygon fill="midnightblue" stroke="midnightblue" points="1857.85,-130 1867.4,-125.4 1857.07,-123.04 1857.85,-130"/>
</g>
<!-- Node82&#45;&gt;Node2 -->
<g id="edge55" class="edge">
<title>Node82&#45;&gt;Node2</title>
<path fill="none" stroke="midnightblue" d="M1642.43,-168.44C1702.51,-157.37 1805.61,-138.37 1857.38,-128.83"/>
<polygon fill="midnightblue" stroke="midnightblue" points="1858.12,-132.25 1867.32,-127 1856.85,-125.37 1858.12,-132.25"/>
</g>
<!-- Node83&#45;&gt;Node2 -->
<g id="edge57" class="edge">
<title>Node83&#45;&gt;Node2</title>
<path fill="none" stroke="midnightblue" d="M1752.67,-168.44C1781.13,-158.96 1827.03,-143.66 1857.61,-133.46"/>
<polygon fill="midnightblue" stroke="midnightblue" points="1858.96,-136.7 1867.34,-130.22 1856.75,-130.06 1858.96,-136.7"/>
</g>
<!-- Node84&#45;&gt;Node17 -->
<g id="edge59" class="edge">
<title>Node84&#45;&gt;Node17</title>
<path fill="none" stroke="midnightblue" d="M3625.19,-112.92C3569.35,-103.06 3475.24,-86.45 3416.82,-76.14"/>
<polygon fill="midnightblue" stroke="midnightblue" points="3417.15,-72.65 3406.7,-74.36 3415.93,-79.54 3417.15,-72.65"/>
</g>
<!-- Node84&#45;&gt;Node18 -->
<g id="edge60" class="edge">
<title>Node84&#45;&gt;Node18</title>
<path fill="none" stroke="midnightblue" d="M3638.68,-112.44C3603.61,-103.16 3547.5,-88.31 3509.04,-78.13"/>
<polygon fill="midnightblue" stroke="midnightblue" points="3509.74,-74.69 3499.17,-75.52 3507.94,-81.46 3509.74,-74.69"/>
</g>
<!-- Node84&#45;&gt;Node19 -->
<g id="edge61" class="edge">
<title>Node84&#45;&gt;Node19</title>
<path fill="none" stroke="midnightblue" d="M3659.11,-112.32C3647.85,-104.11 3630.71,-91.6 3617.29,-81.81"/>
<polygon fill="midnightblue" stroke="midnightblue" points="3619.25,-78.9 3609.11,-75.83 3615.12,-84.56 3619.25,-78.9"/>
</g>
<!-- Node84&#45;&gt;Node20 -->
<g id="edge62" class="edge">
<title>Node84&#45;&gt;Node20</title>
<path fill="none" stroke="midnightblue" d="M3682.89,-112.32C3694.15,-104.11 3711.29,-91.6 3724.71,-81.81"/>
<polygon fill="midnightblue" stroke="midnightblue" points="3726.88,-84.56 3732.89,-75.83 3722.75,-78.9 3726.88,-84.56"/>
</g>
<!-- Node84&#45;&gt;Node21 -->
<g id="edge63" class="edge">
<title>Node84&#45;&gt;Node21</title>
<path fill="none" stroke="midnightblue" d="M3708.87,-112.44C3750.48,-103.04 3817.37,-87.93 3862.47,-77.74"/>
<polygon fill="midnightblue" stroke="midnightblue" points="3863.32,-81.13 3872.31,-75.52 3861.78,-74.31 3863.32,-81.13"/>
</g>
<!-- Node84&#45;&gt;Node22 -->
<g id="edge64" class="edge">
<title>Node84&#45;&gt;Node22</title>
<path fill="none" stroke="midnightblue" d="M3716.86,-115.12C3788.6,-105.92 3928.2,-88.01 4015.4,-76.83"/>
<polygon fill="midnightblue" stroke="midnightblue" points="4016.02,-80.27 4025.5,-75.53 4015.13,-73.33 4016.02,-80.27"/>
</g>
<!-- Node84&#45;&gt;Node23 -->
<g id="edge65" class="edge">
<title>Node84&#45;&gt;Node23</title>
<path fill="none" stroke="midnightblue" d="M3716.75,-117.43C3803.91,-110.52 4000.05,-94.45 4176.46,-76.02"/>
<polygon fill="midnightblue" stroke="midnightblue" points="4176.86,-79.5 4186.44,-74.98 4176.13,-72.54 4176.86,-79.5"/>
</g>
<!-- Node85&#45;&gt;Node2 -->
<g id="edge67" class="edge">
<title>Node85&#45;&gt;Node2</title>
<path fill="none" stroke="midnightblue" d="M1401.27,-224.25C1400.61,-210.04 1401.64,-182.13 1418,-168 1451.18,-139.35 1756.53,-127.19 1857.07,-123.94"/>
<polygon fill="midnightblue" stroke="midnightblue" points="1857.34,-127.43 1867.22,-123.62 1857.12,-120.44 1857.34,-127.43"/>
</g>
<!-- Node85&#45;&gt;Node76 -->
<g id="edge68" class="edge">
<title>Node85&#45;&gt;Node76</title>
<path fill="none" stroke="midnightblue" d="M1390.11,-224.32C1378.85,-216.11 1361.71,-203.6 1348.29,-193.81"/>
<polygon fill="midnightblue" stroke="midnightblue" points="1350.25,-190.9 1340.11,-187.83 1346.12,-196.56 1350.25,-190.9"/>
</g>
<!-- Node91&#45;&gt;Node2 -->
<g id="edge70" class="edge">
<title>Node91&#45;&gt;Node2</title>
<path fill="none" stroke="midnightblue" d="M1889,-168.08C1889,-161.01 1889,-150.86 1889,-141.99"/>
<polygon fill="midnightblue" stroke="midnightblue" points="1892.5,-141.75 1889,-131.75 1885.5,-141.75 1892.5,-141.75"/>
</g>
<!-- Node93&#45;&gt;Node2 -->
<g id="edge72" class="edge">
<title>Node93&#45;&gt;Node2</title>
<path fill="none" stroke="midnightblue" d="M1988.3,-168.44C1969.06,-159.64 1938.85,-145.81 1916.8,-135.72"/>
<polygon fill="midnightblue" stroke="midnightblue" points="1918.16,-132.5 1907.61,-131.52 1915.25,-138.86 1918.16,-132.5"/>
</g>
</g>
</svg>
