<?xml version="1.0" encoding="UTF-8" standalone="no"?>
<!DOCTYPE svg PUBLIC "-//W3C//DTD SVG 1.1//EN"
 "http://www.w3.org/Graphics/SVG/1.1/DTD/svg11.dtd">
<!-- Generated by graphviz version 2.43.0 (0)
 -->
<!-- Title: wld_mld_isLinkUsable Pages: 1 -->
<svg width="539pt" height="116pt"
 viewBox="0.00 0.00 539.00 116.00" xmlns="http://www.w3.org/2000/svg" xmlns:xlink="http://www.w3.org/1999/xlink">
<g id="graph0" class="graph" transform="scale(1 1) rotate(0) translate(4 112)">
<title>wld_mld_isLinkUsable</title>
<polygon fill="white" stroke="transparent" points="-4,4 -4,-112 535,-112 535,4 -4,4"/>
<!-- Node1 -->
<g id="node1" class="node">
<title>Node1</title>
<g id="a_node1"><a xlink:title=" ">
<polygon fill="#bfbfbf" stroke="black" points="0,-44.5 0,-63.5 125,-63.5 125,-44.5 0,-44.5"/>
<text text-anchor="middle" x="62.5" y="-51.5" font-family="Helvetica,sans-Serif" font-size="10.00">wld_mld_isLinkUsable</text>
</a>
</g>
</g>
<!-- Node2 -->
<g id="node2" class="node">
<title>Node2</title>
<g id="a_node2"><a xlink:href="wld__apMld_8c.html#aa239f32e43bf3e281a5d433615cc94cd" target="_top" xlink:title=" ">
<polygon fill="white" stroke="black" points="161,-88.5 161,-107.5 364,-107.5 364,-88.5 161,-88.5"/>
<text text-anchor="middle" x="262.5" y="-95.5" font-family="Helvetica,sans-Serif" font-size="10.00">wld_apMld_hasSharedConnectionConf</text>
</a>
</g>
</g>
<!-- Node1&#45;&gt;Node2 -->
<g id="edge1" class="edge">
<title>Node1&#45;&gt;Node2</title>
<path fill="none" stroke="midnightblue" d="M98.57,-63.57C117.07,-68.48 140.19,-74.37 161,-79 172.78,-81.62 185.39,-84.19 197.56,-86.55"/>
<polygon fill="midnightblue" stroke="midnightblue" points="197.17,-90.04 207.65,-88.48 198.48,-83.16 197.17,-90.04"/>
</g>
<!-- Node3 -->
<g id="node3" class="node">
<title>Node3</title>
<g id="a_node3"><a xlink:href="wld__mld_8c.html#a3e411b7122cc7dedecdd658537d87520" target="_top" xlink:title=" ">
<polygon fill="white" stroke="black" points="176.5,-39 176.5,-69 348.5,-69 348.5,-39 176.5,-39"/>
<text text-anchor="start" x="184.5" y="-57" font-family="Helvetica,sans-Serif" font-size="10.00">wld_mld_checkUsableLinkBasic</text>
<text text-anchor="middle" x="262.5" y="-46" font-family="Helvetica,sans-Serif" font-size="10.00">Conditions</text>
</a>
</g>
</g>
<!-- Node1&#45;&gt;Node3 -->
<g id="edge2" class="edge">
<title>Node1&#45;&gt;Node3</title>
<path fill="none" stroke="midnightblue" d="M125.06,-54C138.13,-54 152.21,-54 166.19,-54"/>
<polygon fill="midnightblue" stroke="midnightblue" points="166.34,-57.5 176.34,-54 166.34,-50.5 166.34,-57.5"/>
</g>
<!-- Node5 -->
<g id="node5" class="node">
<title>Node5</title>
<g id="a_node5"><a xlink:href="wld__ssid_8c.html#a7f8933b636a696953a13e5f9154fc921" target="_top" xlink:title=" ">
<polygon fill="white" stroke="black" points="211.5,-0.5 211.5,-19.5 313.5,-19.5 313.5,-0.5 211.5,-0.5"/>
<text text-anchor="middle" x="262.5" y="-7.5" font-family="Helvetica,sans-Serif" font-size="10.00">wld_ssid_getType</text>
</a>
</g>
</g>
<!-- Node1&#45;&gt;Node5 -->
<g id="edge4" class="edge">
<title>Node1&#45;&gt;Node5</title>
<path fill="none" stroke="midnightblue" d="M100.45,-44.49C118.64,-39.91 140.92,-34.47 161,-30 174.01,-27.11 188.01,-24.19 201.31,-21.52"/>
<polygon fill="midnightblue" stroke="midnightblue" points="202.19,-24.91 211.31,-19.53 200.82,-18.05 202.19,-24.91"/>
</g>
<!-- Node4 -->
<g id="node4" class="node">
<title>Node4</title>
<g id="a_node4"><a xlink:href="wld__mld_8c.html#aac4ea52675e8bef215ab111032e1a5b3" target="_top" xlink:title=" ">
<polygon fill="white" stroke="black" points="400,-44.5 400,-63.5 531,-63.5 531,-44.5 400,-44.5"/>
<text text-anchor="middle" x="465.5" y="-51.5" font-family="Helvetica,sans-Serif" font-size="10.00">wld_mld_isLinkEnabled</text>
</a>
</g>
</g>
<!-- Node3&#45;&gt;Node4 -->
<g id="edge3" class="edge">
<title>Node3&#45;&gt;Node4</title>
<path fill="none" stroke="midnightblue" d="M348.74,-54C362.38,-54 376.41,-54 389.78,-54"/>
<polygon fill="midnightblue" stroke="midnightblue" points="389.87,-57.5 399.87,-54 389.87,-50.5 389.87,-57.5"/>
</g>
</g>
</svg>
