<?xml version="1.0" encoding="UTF-8" standalone="no"?>
<!DOCTYPE svg PUBLIC "-//W3C//DTD SVG 1.1//EN"
 "http://www.w3.org/Graphics/SVG/1.1/DTD/svg11.dtd">
<!-- Generated by graphviz version 2.43.0 (0)
 -->
<!-- Title: include/wld/wld_dm_trans.h Pages: 1 -->
<svg width="5726pt" height="263pt"
 viewBox="0.00 0.00 5725.50 263.00" xmlns="http://www.w3.org/2000/svg" xmlns:xlink="http://www.w3.org/1999/xlink">
<g id="graph0" class="graph" transform="scale(1 1) rotate(0) translate(4 259)">
<title>include/wld/wld_dm_trans.h</title>
<polygon fill="white" stroke="transparent" points="-4,4 -4,-259 5721.5,-259 5721.5,4 -4,4"/>
<!-- Node1 -->
<g id="node1" class="node">
<title>Node1</title>
<g id="a_node1"><a xlink:title=" ">
<polygon fill="#bfbfbf" stroke="black" points="3363.5,-224.5 3363.5,-254.5 3476.5,-254.5 3476.5,-224.5 3363.5,-224.5"/>
<text text-anchor="start" x="3371.5" y="-242.5" font-family="Helvetica,sans-Serif" font-size="10.00">include/wld/wld_dm</text>
<text text-anchor="middle" x="3420" y="-231.5" font-family="Helvetica,sans-Serif" font-size="10.00">_trans.h</text>
</a>
</g>
</g>
<!-- Node2 -->
<g id="node2" class="node">
<title>Node2</title>
<g id="a_node2"><a xlink:href="wld_8h.html" target="_top" xlink:title=" ">
<polygon fill="white" stroke="red" points="3398.5,-168.5 3398.5,-187.5 3441.5,-187.5 3441.5,-168.5 3398.5,-168.5"/>
<text text-anchor="middle" x="3420" y="-175.5" font-family="Helvetica,sans-Serif" font-size="10.00">wld.h</text>
</a>
</g>
</g>
<!-- Node1&#45;&gt;Node2 -->
<g id="edge1" class="edge">
<title>Node1&#45;&gt;Node2</title>
<path fill="none" stroke="midnightblue" d="M3414.16,-224.4C3413.13,-216.38 3412.97,-206.23 3413.69,-197.57"/>
<polygon fill="midnightblue" stroke="midnightblue" points="3417.16,-198.04 3415.07,-187.66 3410.23,-197.08 3417.16,-198.04"/>
</g>
<!-- Node53 -->
<g id="node50" class="node">
<title>Node53</title>
<g id="a_node50"><a xlink:title=" ">
<polygon fill="white" stroke="#bfbfbf" points="5608.5,-112.5 5608.5,-131.5 5717.5,-131.5 5717.5,-112.5 5608.5,-112.5"/>
<text text-anchor="middle" x="5663" y="-119.5" font-family="Helvetica,sans-Serif" font-size="10.00">swla/swla_object.h</text>
</a>
</g>
</g>
<!-- Node1&#45;&gt;Node53 -->
<g id="edge64" class="edge">
<title>Node1&#45;&gt;Node53</title>
<path fill="none" stroke="midnightblue" d="M3476.53,-237.62C3725.5,-233.38 4749.15,-211.77 5598.24,-131.98"/>
<polygon fill="midnightblue" stroke="midnightblue" points="5598.6,-135.46 5608.23,-131.04 5597.94,-128.49 5598.6,-135.46"/>
</g>
<!-- Node2&#45;&gt;Node1 -->
<g id="edge63" class="edge">
<title>Node2&#45;&gt;Node1</title>
<path fill="none" stroke="midnightblue" d="M3424.93,-187.66C3426.43,-194.65 3427.01,-204.86 3426.64,-214.29"/>
<polygon fill="midnightblue" stroke="midnightblue" points="3423.14,-214.15 3425.84,-224.4 3430.12,-214.71 3423.14,-214.15"/>
</g>
<!-- Node3 -->
<g id="node3" class="node">
<title>Node3</title>
<g id="a_node3"><a xlink:title=" ">
<polygon fill="white" stroke="#bfbfbf" points="3552,-56.5 3552,-75.5 3614,-75.5 3614,-56.5 3552,-56.5"/>
<text text-anchor="middle" x="3583" y="-63.5" font-family="Helvetica,sans-Serif" font-size="10.00">stdbool.h</text>
</a>
</g>
</g>
<!-- Node2&#45;&gt;Node3 -->
<g id="edge2" class="edge">
<title>Node2&#45;&gt;Node3</title>
<path fill="none" stroke="midnightblue" d="M3441.6,-177.75C3475.93,-177.65 3542.46,-171.93 3576,-132 3586.6,-119.38 3587.43,-100.17 3586.16,-85.9"/>
<polygon fill="midnightblue" stroke="midnightblue" points="3589.6,-85.2 3584.84,-75.74 3582.66,-86.11 3589.6,-85.2"/>
</g>
<!-- Node4 -->
<g id="node4" class="node">
<title>Node4</title>
<g id="a_node4"><a xlink:title=" ">
<polygon fill="white" stroke="#bfbfbf" points="5061.5,-0.5 5061.5,-19.5 5114.5,-19.5 5114.5,-0.5 5061.5,-0.5"/>
<text text-anchor="middle" x="5088" y="-7.5" font-family="Helvetica,sans-Serif" font-size="10.00">stdint.h</text>
</a>
</g>
</g>
<!-- Node2&#45;&gt;Node4 -->
<g id="edge3" class="edge">
<title>Node2&#45;&gt;Node4</title>
<path fill="none" stroke="midnightblue" d="M3441.58,-176.89C3645.73,-175.81 5230.52,-166.31 5264,-132 5313.78,-80.99 5189.58,-38.37 5124.6,-20.29"/>
<polygon fill="midnightblue" stroke="midnightblue" points="5125.29,-16.85 5114.72,-17.6 5123.45,-23.61 5125.29,-16.85"/>
</g>
<!-- Node5 -->
<g id="node5" class="node">
<title>Node5</title>
<g id="a_node5"><a xlink:title=" ">
<polygon fill="white" stroke="#bfbfbf" points="4751,-56.5 4751,-75.5 4861,-75.5 4861,-56.5 4751,-56.5"/>
<text text-anchor="middle" x="4806" y="-63.5" font-family="Helvetica,sans-Serif" font-size="10.00">swl/swl_common.h</text>
</a>
</g>
</g>
<!-- Node2&#45;&gt;Node5 -->
<g id="edge4" class="edge">
<title>Node2&#45;&gt;Node5</title>
<path fill="none" stroke="midnightblue" d="M3441.75,-176.88C3644.19,-175.69 5192.27,-165.55 5225,-132 5275.48,-80.24 5001.8,-69.64 4871.7,-67.51"/>
<polygon fill="midnightblue" stroke="midnightblue" points="4871.51,-64.01 4861.46,-67.36 4871.41,-71.01 4871.51,-64.01"/>
</g>
<!-- Node6 -->
<g id="node6" class="node">
<title>Node6</title>
<g id="a_node6"><a xlink:title=" ">
<polygon fill="white" stroke="#bfbfbf" points="5348,-112.5 5348,-131.5 5484,-131.5 5484,-112.5 5348,-112.5"/>
<text text-anchor="middle" x="5416" y="-119.5" font-family="Helvetica,sans-Serif" font-size="10.00">swla/swla_commonLib.h</text>
</a>
</g>
</g>
<!-- Node2&#45;&gt;Node6 -->
<g id="edge5" class="edge">
<title>Node2&#45;&gt;Node6</title>
<path fill="none" stroke="midnightblue" d="M3441.78,-177.2C3597.36,-178.45 4556.28,-183.73 5334,-132 5335.11,-131.93 5336.22,-131.85 5337.35,-131.77"/>
<polygon fill="midnightblue" stroke="midnightblue" points="5337.89,-135.24 5347.58,-130.95 5337.34,-128.26 5337.89,-135.24"/>
</g>
<!-- Node7 -->
<g id="node7" class="node">
<title>Node7</title>
<g id="a_node7"><a xlink:title=" ">
<polygon fill="white" stroke="#bfbfbf" points="5502,-112.5 5502,-131.5 5590,-131.5 5590,-112.5 5502,-112.5"/>
<text text-anchor="middle" x="5546" y="-119.5" font-family="Helvetica,sans-Serif" font-size="10.00">swl/swl_uuid.h</text>
</a>
</g>
</g>
<!-- Node2&#45;&gt;Node7 -->
<g id="edge6" class="edge">
<title>Node2&#45;&gt;Node7</title>
<path fill="none" stroke="midnightblue" d="M3441.75,-176.97C3633.84,-176.63 5044.08,-172.76 5491.75,-131.94"/>
<polygon fill="midnightblue" stroke="midnightblue" points="5492.19,-135.41 5501.82,-131 5491.54,-128.45 5492.19,-135.41"/>
</g>
<!-- Node8 -->
<g id="node8" class="node">
<title>Node8</title>
<g id="a_node8"><a xlink:title=" ">
<polygon fill="white" stroke="#bfbfbf" points="0,-112.5 0,-131.5 152,-131.5 152,-112.5 0,-112.5"/>
<text text-anchor="middle" x="76" y="-119.5" font-family="Helvetica,sans-Serif" font-size="10.00">swla/swla_radioStandards.h</text>
</a>
</g>
</g>
<!-- Node2&#45;&gt;Node8 -->
<g id="edge7" class="edge">
<title>Node2&#45;&gt;Node8</title>
<path fill="none" stroke="midnightblue" d="M3398.38,-176.96C3150.85,-176.46 848.88,-170.79 166,-132 164.72,-131.93 163.43,-131.85 162.14,-131.77"/>
<polygon fill="midnightblue" stroke="midnightblue" points="162.29,-128.27 152.07,-131.07 161.81,-135.25 162.29,-128.27"/>
</g>
<!-- Node9 -->
<g id="node9" class="node">
<title>Node9</title>
<g id="a_node9"><a xlink:title=" ">
<polygon fill="white" stroke="#bfbfbf" points="3460.5,-0.5 3460.5,-19.5 3561.5,-19.5 3561.5,-0.5 3460.5,-0.5"/>
<text text-anchor="middle" x="3511" y="-7.5" font-family="Helvetica,sans-Serif" font-size="10.00">swla/swla_time.h</text>
</a>
</g>
</g>
<!-- Node2&#45;&gt;Node9 -->
<g id="edge8" class="edge">
<title>Node2&#45;&gt;Node9</title>
<path fill="none" stroke="midnightblue" d="M3398.36,-176.91C3119.01,-175.69 228.9,-162.32 199,-132 192.76,-125.67 192.81,-118.38 199,-112 257.88,-51.3 3004.48,-16.88 3450.19,-11.69"/>
<polygon fill="midnightblue" stroke="midnightblue" points="3450.32,-15.19 3460.28,-11.57 3450.24,-8.19 3450.32,-15.19"/>
</g>
<!-- Node10 -->
<g id="node10" class="node">
<title>Node10</title>
<g id="a_node10"><a xlink:title=" ">
<polygon fill="white" stroke="#bfbfbf" points="208.5,-112.5 208.5,-131.5 337.5,-131.5 337.5,-112.5 208.5,-112.5"/>
<text text-anchor="middle" x="273" y="-119.5" font-family="Helvetica,sans-Serif" font-size="10.00">swla/swla_time_spec.h</text>
</a>
</g>
</g>
<!-- Node2&#45;&gt;Node10 -->
<g id="edge9" class="edge">
<title>Node2&#45;&gt;Node10</title>
<path fill="none" stroke="midnightblue" d="M3398.48,-177C3160.27,-177 1012.65,-175.73 347.7,-131.94"/>
<polygon fill="midnightblue" stroke="midnightblue" points="347.75,-128.43 337.54,-131.26 347.28,-135.42 347.75,-128.43"/>
</g>
<!-- Node11 -->
<g id="node11" class="node">
<title>Node11</title>
<g id="a_node11"><a xlink:title=" ">
<polygon fill="white" stroke="#bfbfbf" points="356,-112.5 356,-131.5 450,-131.5 450,-112.5 356,-112.5"/>
<text text-anchor="middle" x="403" y="-119.5" font-family="Helvetica,sans-Serif" font-size="10.00">swla/swla_oui.h</text>
</a>
</g>
</g>
<!-- Node2&#45;&gt;Node11 -->
<g id="edge10" class="edge">
<title>Node2&#45;&gt;Node11</title>
<path fill="none" stroke="midnightblue" d="M3398.37,-176.86C3148.76,-175.24 816.71,-159.47 460.49,-131.93"/>
<polygon fill="midnightblue" stroke="midnightblue" points="460.55,-128.42 450.3,-131.09 459.98,-135.4 460.55,-128.42"/>
</g>
<!-- Node12 -->
<g id="node12" class="node">
<title>Node12</title>
<g id="a_node12"><a xlink:title=" ">
<polygon fill="white" stroke="#bfbfbf" points="468,-112.5 468,-131.5 596,-131.5 596,-112.5 468,-112.5"/>
<text text-anchor="middle" x="532" y="-119.5" font-family="Helvetica,sans-Serif" font-size="10.00">swla/swla_delayExec.h</text>
</a>
</g>
</g>
<!-- Node2&#45;&gt;Node12 -->
<g id="edge11" class="edge">
<title>Node2&#45;&gt;Node12</title>
<path fill="none" stroke="midnightblue" d="M3398.19,-176.97C3169.93,-176.66 1214.7,-172.84 606.24,-131.99"/>
<polygon fill="midnightblue" stroke="midnightblue" points="606.27,-128.48 596.06,-131.29 605.79,-135.46 606.27,-128.48"/>
</g>
<!-- Node13 -->
<g id="node13" class="node">
<title>Node13</title>
<g id="a_node13"><a xlink:title=" ">
<polygon fill="white" stroke="#bfbfbf" points="614.5,-112.5 614.5,-131.5 733.5,-131.5 733.5,-112.5 614.5,-112.5"/>
<text text-anchor="middle" x="674" y="-119.5" font-family="Helvetica,sans-Serif" font-size="10.00">swla/swla_function.h</text>
</a>
</g>
</g>
<!-- Node2&#45;&gt;Node13 -->
<g id="edge12" class="edge">
<title>Node2&#45;&gt;Node13</title>
<path fill="none" stroke="midnightblue" d="M3398.22,-176.98C3176.31,-176.74 1321.83,-173.51 743.75,-132.03"/>
<polygon fill="midnightblue" stroke="midnightblue" points="743.89,-128.53 733.66,-131.29 743.38,-135.51 743.89,-128.53"/>
</g>
<!-- Node14 -->
<g id="node14" class="node">
<title>Node14</title>
<g id="a_node14"><a xlink:title=" ">
<polygon fill="white" stroke="#bfbfbf" points="751.5,-112.5 751.5,-131.5 892.5,-131.5 892.5,-112.5 751.5,-112.5"/>
<text text-anchor="middle" x="822" y="-119.5" font-family="Helvetica,sans-Serif" font-size="10.00">swl/swl_usp_cmdStatus.h</text>
</a>
</g>
</g>
<!-- Node2&#45;&gt;Node14 -->
<g id="edge13" class="edge">
<title>Node2&#45;&gt;Node14</title>
<path fill="none" stroke="midnightblue" d="M3398.2,-176.9C3183.73,-175.82 1448.07,-166.19 902.94,-131.97"/>
<polygon fill="midnightblue" stroke="midnightblue" points="902.84,-128.46 892.64,-131.31 902.39,-135.44 902.84,-128.46"/>
</g>
<!-- Node15 -->
<g id="node15" class="node">
<title>Node15</title>
<g id="a_node15"><a xlink:title=" ">
<polygon fill="white" stroke="#bfbfbf" points="911,-112.5 911,-131.5 997,-131.5 997,-112.5 911,-112.5"/>
<text text-anchor="middle" x="954" y="-119.5" font-family="Helvetica,sans-Serif" font-size="10.00">swl/swl_wps.h</text>
</a>
</g>
</g>
<!-- Node2&#45;&gt;Node15 -->
<g id="edge14" class="edge">
<title>Node2&#45;&gt;Node15</title>
<path fill="none" stroke="midnightblue" d="M3398.43,-177.05C3189.9,-177.51 1528.59,-179.66 1007.29,-131.93"/>
<polygon fill="midnightblue" stroke="midnightblue" points="1007.34,-128.42 997.06,-130.97 1006.69,-135.39 1007.34,-128.42"/>
</g>
<!-- Node16 -->
<g id="node16" class="node">
<title>Node16</title>
<g id="a_node16"><a xlink:title=" ">
<polygon fill="white" stroke="#bfbfbf" points="1015,-112.5 1015,-131.5 1119,-131.5 1119,-112.5 1015,-112.5"/>
<text text-anchor="middle" x="1067" y="-119.5" font-family="Helvetica,sans-Serif" font-size="10.00">swl/swl_security.h</text>
</a>
</g>
</g>
<!-- Node2&#45;&gt;Node16 -->
<g id="edge15" class="edge">
<title>Node2&#45;&gt;Node16</title>
<path fill="none" stroke="midnightblue" d="M3398.26,-176.96C3195.03,-176.48 1624.39,-171.59 1129.26,-131.97"/>
<polygon fill="midnightblue" stroke="midnightblue" points="1129.44,-128.47 1119.19,-131.15 1128.87,-135.45 1129.44,-128.47"/>
</g>
<!-- Node17 -->
<g id="node17" class="node">
<title>Node17</title>
<g id="a_node17"><a xlink:title=" ">
<polygon fill="white" stroke="#bfbfbf" points="1137.5,-112.5 1137.5,-131.5 1220.5,-131.5 1220.5,-112.5 1137.5,-112.5"/>
<text text-anchor="middle" x="1179" y="-119.5" font-family="Helvetica,sans-Serif" font-size="10.00">amxc/amxc.h</text>
</a>
</g>
</g>
<!-- Node2&#45;&gt;Node17 -->
<g id="edge16" class="edge">
<title>Node2&#45;&gt;Node17</title>
<path fill="none" stroke="midnightblue" d="M3398.29,-177.02C3200.28,-177.1 1703.69,-176.3 1230.64,-131.85"/>
<polygon fill="midnightblue" stroke="midnightblue" points="1230.97,-128.37 1220.68,-130.89 1230.3,-135.33 1230.97,-128.37"/>
</g>
<!-- Node18 -->
<g id="node18" class="node">
<title>Node18</title>
<g id="a_node18"><a xlink:title=" ">
<polygon fill="white" stroke="#bfbfbf" points="1239,-112.5 1239,-131.5 1323,-131.5 1323,-112.5 1239,-112.5"/>
<text text-anchor="middle" x="1281" y="-119.5" font-family="Helvetica,sans-Serif" font-size="10.00">amxp/amxp.h</text>
</a>
</g>
</g>
<!-- Node2&#45;&gt;Node18 -->
<g id="edge17" class="edge">
<title>Node2&#45;&gt;Node18</title>
<path fill="none" stroke="midnightblue" d="M3398.4,-176.99C3206.1,-176.85 1784.29,-174.41 1333.38,-131.94"/>
<polygon fill="midnightblue" stroke="midnightblue" points="1333.52,-128.44 1323.23,-130.97 1332.85,-135.41 1333.52,-128.44"/>
</g>
<!-- Node19 -->
<g id="node19" class="node">
<title>Node19</title>
<g id="a_node19"><a xlink:title=" ">
<polygon fill="white" stroke="#bfbfbf" points="1341,-112.5 1341,-131.5 1481,-131.5 1481,-112.5 1341,-112.5"/>
<text text-anchor="middle" x="1411" y="-119.5" font-family="Helvetica,sans-Serif" font-size="10.00">amxd/amxd_parameter.h</text>
</a>
</g>
</g>
<!-- Node2&#45;&gt;Node19 -->
<g id="edge18" class="edge">
<title>Node2&#45;&gt;Node19</title>
<path fill="none" stroke="midnightblue" d="M3398.33,-176.76C3214.19,-174.73 1908.98,-159.48 1491.18,-132"/>
<polygon fill="midnightblue" stroke="midnightblue" points="1491.39,-128.51 1481.18,-131.33 1490.92,-135.49 1491.39,-128.51"/>
</g>
<!-- Node20 -->
<g id="node20" class="node">
<title>Node20</title>
<g id="a_node20"><a xlink:title=" ">
<polygon fill="white" stroke="#bfbfbf" points="1499.5,-112.5 1499.5,-131.5 1618.5,-131.5 1618.5,-112.5 1499.5,-112.5"/>
<text text-anchor="middle" x="1559" y="-119.5" font-family="Helvetica,sans-Serif" font-size="10.00">amxd/amxd_action.h</text>
</a>
</g>
</g>
<!-- Node2&#45;&gt;Node20 -->
<g id="edge19" class="edge">
<title>Node2&#45;&gt;Node20</title>
<path fill="none" stroke="midnightblue" d="M3398.48,-176.78C3222.47,-174.9 2016.71,-161.15 1628.79,-132.04"/>
<polygon fill="midnightblue" stroke="midnightblue" points="1628.9,-128.54 1618.67,-131.26 1628.37,-135.52 1628.9,-128.54"/>
</g>
<!-- Node21 -->
<g id="node21" class="node">
<title>Node21</title>
<g id="a_node21"><a xlink:title=" ">
<polygon fill="white" stroke="#bfbfbf" points="1636.5,-112.5 1636.5,-131.5 1811.5,-131.5 1811.5,-112.5 1636.5,-112.5"/>
<text text-anchor="middle" x="1724" y="-119.5" font-family="Helvetica,sans-Serif" font-size="10.00">amxd/amxd_object_parameter.h</text>
</a>
</g>
</g>
<!-- Node2&#45;&gt;Node21 -->
<g id="edge20" class="edge">
<title>Node2&#45;&gt;Node21</title>
<path fill="none" stroke="midnightblue" d="M3398.34,-176.92C3258.95,-176.27 2473.62,-170.98 1821.82,-132"/>
<polygon fill="midnightblue" stroke="midnightblue" points="1821.94,-128.5 1811.75,-131.4 1821.52,-135.49 1821.94,-128.5"/>
</g>
<!-- Node22 -->
<g id="node22" class="node">
<title>Node22</title>
<g id="a_node22"><a xlink:title=" ">
<polygon fill="white" stroke="#bfbfbf" points="1830,-112.5 1830,-131.5 1982,-131.5 1982,-112.5 1830,-112.5"/>
<text text-anchor="middle" x="1906" y="-119.5" font-family="Helvetica,sans-Serif" font-size="10.00">amxd/amxd_object_event.h</text>
</a>
</g>
</g>
<!-- Node2&#45;&gt;Node22 -->
<g id="edge21" class="edge">
<title>Node2&#45;&gt;Node22</title>
<path fill="none" stroke="midnightblue" d="M3398.14,-176.92C3267.02,-176.31 2571.25,-171.3 1992.65,-132.06"/>
<polygon fill="midnightblue" stroke="midnightblue" points="1992.65,-128.55 1982.43,-131.36 1992.17,-135.54 1992.65,-128.55"/>
</g>
<!-- Node23 -->
<g id="node23" class="node">
<title>Node23</title>
<g id="a_node23"><a xlink:title=" ">
<polygon fill="white" stroke="#bfbfbf" points="2000.5,-112.5 2000.5,-131.5 2129.5,-131.5 2129.5,-112.5 2000.5,-112.5"/>
<text text-anchor="middle" x="2065" y="-119.5" font-family="Helvetica,sans-Serif" font-size="10.00">amxd/amxd_function.h</text>
</a>
</g>
</g>
<!-- Node2&#45;&gt;Node23 -->
<g id="edge22" class="edge">
<title>Node2&#45;&gt;Node23</title>
<path fill="none" stroke="midnightblue" d="M3398.42,-176.95C3275.99,-176.52 2656.32,-172.37 2140.11,-132.1"/>
<polygon fill="midnightblue" stroke="midnightblue" points="2140.09,-128.59 2129.85,-131.29 2139.54,-135.57 2140.09,-128.59"/>
</g>
<!-- Node24 -->
<g id="node24" class="node">
<title>Node24</title>
<g id="a_node24"><a xlink:title=" ">
<polygon fill="white" stroke="#bfbfbf" points="2147.5,-112.5 2147.5,-131.5 2316.5,-131.5 2316.5,-112.5 2147.5,-112.5"/>
<text text-anchor="middle" x="2232" y="-119.5" font-family="Helvetica,sans-Serif" font-size="10.00">amxd/amxd_object_hierarchy.h</text>
</a>
</g>
</g>
<!-- Node2&#45;&gt;Node24 -->
<g id="edge23" class="edge">
<title>Node2&#45;&gt;Node24</title>
<path fill="none" stroke="midnightblue" d="M3398.36,-176.56C3286.76,-174.18 2764.81,-161.93 2326.64,-132.08"/>
<polygon fill="midnightblue" stroke="midnightblue" points="2326.85,-128.58 2316.63,-131.39 2326.37,-135.57 2326.85,-128.58"/>
</g>
<!-- Node25 -->
<g id="node25" class="node">
<title>Node25</title>
<g id="a_node25"><a xlink:title=" ">
<polygon fill="white" stroke="#bfbfbf" points="2334.5,-112.5 2334.5,-131.5 2453.5,-131.5 2453.5,-112.5 2334.5,-112.5"/>
<text text-anchor="middle" x="2394" y="-119.5" font-family="Helvetica,sans-Serif" font-size="10.00">amxd/amxd_object.h</text>
</a>
</g>
</g>
<!-- Node2&#45;&gt;Node25 -->
<g id="edge24" class="edge">
<title>Node2&#45;&gt;Node25</title>
<path fill="none" stroke="midnightblue" d="M3398.37,-176.66C3295.35,-174.91 2844,-165.64 2463.77,-132.09"/>
<polygon fill="midnightblue" stroke="midnightblue" points="2463.94,-128.59 2453.67,-131.19 2463.32,-135.56 2463.94,-128.59"/>
</g>
<!-- Node26 -->
<g id="node26" class="node">
<title>Node26</title>
<g id="a_node26"><a xlink:title=" ">
<polygon fill="white" stroke="#bfbfbf" points="2471.5,-112.5 2471.5,-131.5 2576.5,-131.5 2576.5,-112.5 2471.5,-112.5"/>
<text text-anchor="middle" x="2524" y="-119.5" font-family="Helvetica,sans-Serif" font-size="10.00">amxd/amxd_dm.h</text>
</a>
</g>
</g>
<!-- Node2&#45;&gt;Node26 -->
<g id="edge25" class="edge">
<title>Node2&#45;&gt;Node26</title>
<path fill="none" stroke="midnightblue" d="M3398.36,-176.55C3303.66,-174.43 2916.19,-164.22 2586.94,-131.99"/>
<polygon fill="midnightblue" stroke="midnightblue" points="2587.02,-128.48 2576.73,-130.98 2586.33,-135.45 2587.02,-128.48"/>
</g>
<!-- Node27 -->
<g id="node27" class="node">
<title>Node27</title>
<g id="a_node27"><a xlink:title=" ">
<polygon fill="white" stroke="#bfbfbf" points="2595,-112.5 2595,-131.5 2739,-131.5 2739,-112.5 2595,-112.5"/>
<text text-anchor="middle" x="2667" y="-119.5" font-family="Helvetica,sans-Serif" font-size="10.00">amxd/amxd_transaction.h</text>
</a>
</g>
</g>
<!-- Node2&#45;&gt;Node27 -->
<g id="edge26" class="edge">
<title>Node2&#45;&gt;Node27</title>
<path fill="none" stroke="midnightblue" d="M3398.22,-175.89C3315.29,-171.59 3011.21,-155.15 2749.48,-132.1"/>
<polygon fill="midnightblue" stroke="midnightblue" points="2749.68,-128.6 2739.41,-131.2 2749.06,-135.57 2749.68,-128.6"/>
</g>
<!-- Node28 -->
<g id="node28" class="node">
<title>Node28</title>
<g id="a_node28"><a xlink:title=" ">
<polygon fill="white" stroke="#bfbfbf" points="2757,-112.5 2757,-131.5 2873,-131.5 2873,-112.5 2757,-112.5"/>
<text text-anchor="middle" x="2815" y="-119.5" font-family="Helvetica,sans-Serif" font-size="10.00">amxb/amxb_types.h</text>
</a>
</g>
</g>
<!-- Node2&#45;&gt;Node28 -->
<g id="edge27" class="edge">
<title>Node2&#45;&gt;Node28</title>
<path fill="none" stroke="midnightblue" d="M3398.44,-175.59C3326.81,-170.81 3090.13,-154.36 2883.22,-132.08"/>
<polygon fill="midnightblue" stroke="midnightblue" points="2883.4,-128.58 2873.08,-130.98 2882.65,-135.54 2883.4,-128.58"/>
</g>
<!-- Node29 -->
<g id="node29" class="node">
<title>Node29</title>
<g id="a_node29"><a xlink:title=" ">
<polygon fill="white" stroke="#bfbfbf" points="2891,-112.5 2891,-131.5 3027,-131.5 3027,-112.5 2891,-112.5"/>
<text text-anchor="middle" x="2959" y="-119.5" font-family="Helvetica,sans-Serif" font-size="10.00">amxb/amxb_operators.h</text>
</a>
</g>
</g>
<!-- Node2&#45;&gt;Node29 -->
<g id="edge28" class="edge">
<title>Node2&#45;&gt;Node29</title>
<path fill="none" stroke="midnightblue" d="M3398.38,-174.47C3334.75,-167.01 3145.79,-144.88 3037.53,-132.2"/>
<polygon fill="midnightblue" stroke="midnightblue" points="3037.65,-128.69 3027.31,-131 3036.83,-135.64 3037.65,-128.69"/>
</g>
<!-- Node30 -->
<g id="node30" class="node">
<title>Node30</title>
<g id="a_node30"><a xlink:title=" ">
<polygon fill="white" stroke="#bfbfbf" points="3045,-112.5 3045,-131.5 3157,-131.5 3157,-112.5 3045,-112.5"/>
<text text-anchor="middle" x="3101" y="-119.5" font-family="Helvetica,sans-Serif" font-size="10.00">amxb/amxb_error.h</text>
</a>
</g>
</g>
<!-- Node2&#45;&gt;Node30 -->
<g id="edge29" class="edge">
<title>Node2&#45;&gt;Node30</title>
<path fill="none" stroke="midnightblue" d="M3398.32,-173.33C3350.34,-165.21 3233.7,-145.46 3161.6,-133.26"/>
<polygon fill="midnightblue" stroke="midnightblue" points="3161.74,-129.73 3151.3,-131.51 3160.57,-136.63 3161.74,-129.73"/>
</g>
<!-- Node31 -->
<g id="node31" class="node">
<title>Node31</title>
<g id="a_node31"><a xlink:title=" ">
<polygon fill="white" stroke="#bfbfbf" points="3175.5,-112.5 3175.5,-131.5 3258.5,-131.5 3258.5,-112.5 3175.5,-112.5"/>
<text text-anchor="middle" x="3217" y="-119.5" font-family="Helvetica,sans-Serif" font-size="10.00">amxo/amxo.h</text>
</a>
</g>
</g>
<!-- Node2&#45;&gt;Node31 -->
<g id="edge30" class="edge">
<title>Node2&#45;&gt;Node31</title>
<path fill="none" stroke="midnightblue" d="M3398.28,-171.22C3365.13,-162.41 3301.34,-145.43 3258.96,-134.16"/>
<polygon fill="midnightblue" stroke="midnightblue" points="3259.77,-130.76 3249.21,-131.57 3257.97,-137.52 3259.77,-130.76"/>
</g>
<!-- Node32 -->
<g id="node32" class="node">
<title>Node32</title>
<g id="a_node32"><a xlink:title=" ">
<polygon fill="white" stroke="#bfbfbf" points="3276.5,-112.5 3276.5,-131.5 3391.5,-131.5 3391.5,-112.5 3276.5,-112.5"/>
<text text-anchor="middle" x="3334" y="-119.5" font-family="Helvetica,sans-Serif" font-size="10.00">amxo/amxo_types.h</text>
</a>
</g>
</g>
<!-- Node2&#45;&gt;Node32 -->
<g id="edge31" class="edge">
<title>Node2&#45;&gt;Node32</title>
<path fill="none" stroke="midnightblue" d="M3406.18,-168.32C3392.77,-159.9 3372.18,-146.97 3356.41,-137.07"/>
<polygon fill="midnightblue" stroke="midnightblue" points="3358.11,-134.01 3347.78,-131.65 3354.39,-139.94 3358.11,-134.01"/>
</g>
<!-- Node33 -->
<g id="node33" class="node">
<title>Node33</title>
<g id="a_node33"><a xlink:href="wld__types_8h.html" target="_top" xlink:title=" ">
<polygon fill="white" stroke="red" points="3990.5,-56.5 3990.5,-75.5 4065.5,-75.5 4065.5,-56.5 3990.5,-56.5"/>
<text text-anchor="middle" x="4028" y="-63.5" font-family="Helvetica,sans-Serif" font-size="10.00">wld_types.h</text>
</a>
</g>
</g>
<!-- Node2&#45;&gt;Node33 -->
<g id="edge32" class="edge">
<title>Node2&#45;&gt;Node33</title>
<path fill="none" stroke="midnightblue" d="M3441.76,-176.43C3526.48,-174.02 3834.16,-163.26 3926,-132 3943.08,-126.19 3983.21,-98.87 4007.74,-81.56"/>
<polygon fill="midnightblue" stroke="midnightblue" points="4009.87,-84.33 4015.99,-75.69 4005.82,-78.63 4009.87,-84.33"/>
</g>
<!-- Node34 -->
<g id="node34" class="node">
<title>Node34</title>
<g id="a_node34"><a xlink:title=" ">
<polygon fill="white" stroke="#bfbfbf" points="4269.5,-0.5 4269.5,-19.5 4414.5,-19.5 4414.5,-0.5 4269.5,-0.5"/>
<text text-anchor="middle" x="4342" y="-7.5" font-family="Helvetica,sans-Serif" font-size="10.00">swl/types/swl_arrayType.h</text>
</a>
</g>
</g>
<!-- Node2&#45;&gt;Node34 -->
<g id="edge60" class="edge">
<title>Node2&#45;&gt;Node34</title>
<path fill="none" stroke="midnightblue" d="M3441.64,-176.88C3644.67,-175.75 5208.94,-165.88 5242,-132 5359.84,-11.21 5037.59,-75.74 4870,-56 4713.05,-37.52 4528.99,-23.58 4424.88,-16.41"/>
<polygon fill="midnightblue" stroke="midnightblue" points="4424.96,-12.9 4414.75,-15.71 4424.48,-19.89 4424.96,-12.9"/>
</g>
<!-- Node36 -->
<g id="node35" class="node">
<title>Node36</title>
<g id="a_node35"><a xlink:href="wld__channel__types_8h.html" target="_top" xlink:title=" ">
<polygon fill="white" stroke="black" points="3448.5,-112.5 3448.5,-131.5 3567.5,-131.5 3567.5,-112.5 3448.5,-112.5"/>
<text text-anchor="middle" x="3508" y="-119.5" font-family="Helvetica,sans-Serif" font-size="10.00">wld_channel_types.h</text>
</a>
</g>
</g>
<!-- Node2&#45;&gt;Node36 -->
<g id="edge36" class="edge">
<title>Node2&#45;&gt;Node36</title>
<path fill="none" stroke="midnightblue" d="M3434.14,-168.32C3447.87,-159.9 3468.94,-146.97 3485.06,-137.07"/>
<polygon fill="midnightblue" stroke="midnightblue" points="3487.2,-139.87 3493.9,-131.65 3483.54,-133.9 3487.2,-139.87"/>
</g>
<!-- Node37 -->
<g id="node36" class="node">
<title>Node37</title>
<g id="a_node36"><a xlink:title=" ">
<polygon fill="white" stroke="#bfbfbf" points="3357.5,-56.5 3357.5,-75.5 3482.5,-75.5 3482.5,-56.5 3357.5,-56.5"/>
<text text-anchor="middle" x="3420" y="-63.5" font-family="Helvetica,sans-Serif" font-size="10.00">swla/swla_chanspec.h</text>
</a>
</g>
</g>
<!-- Node2&#45;&gt;Node37 -->
<g id="edge54" class="edge">
<title>Node2&#45;&gt;Node37</title>
<path fill="none" stroke="midnightblue" d="M3420,-168.37C3420,-150.62 3420,-109.67 3420,-85.6"/>
<polygon fill="midnightblue" stroke="midnightblue" points="3423.5,-85.59 3420,-75.59 3416.5,-85.59 3423.5,-85.59"/>
</g>
<!-- Node38 -->
<g id="node37" class="node">
<title>Node38</title>
<g id="a_node37"><a xlink:href="wld__bgdfs_8h.html" target="_top" xlink:title=" ">
<polygon fill="white" stroke="black" points="3709.5,-112.5 3709.5,-131.5 3784.5,-131.5 3784.5,-112.5 3709.5,-112.5"/>
<text text-anchor="middle" x="3747" y="-119.5" font-family="Helvetica,sans-Serif" font-size="10.00">wld_bgdfs.h</text>
</a>
</g>
</g>
<!-- Node2&#45;&gt;Node38 -->
<g id="edge40" class="edge">
<title>Node2&#45;&gt;Node38</title>
<path fill="none" stroke="midnightblue" d="M3441.82,-173.72C3487.52,-166.8 3596.87,-150 3699.41,-132.06"/>
<polygon fill="midnightblue" stroke="midnightblue" points="3700.06,-135.5 3709.31,-130.32 3698.85,-128.6 3700.06,-135.5"/>
</g>
<!-- Node39 -->
<g id="node38" class="node">
<title>Node39</title>
<g id="a_node38"><a xlink:href="wld__rad__delayMgr_8h.html" target="_top" xlink:title=" ">
<polygon fill="white" stroke="black" points="3803,-112.5 3803,-131.5 3917,-131.5 3917,-112.5 3803,-112.5"/>
<text text-anchor="middle" x="3860" y="-119.5" font-family="Helvetica,sans-Serif" font-size="10.00">wld_rad_delayMgr.h</text>
</a>
</g>
</g>
<!-- Node2&#45;&gt;Node39 -->
<g id="edge42" class="edge">
<title>Node2&#45;&gt;Node39</title>
<path fill="none" stroke="midnightblue" d="M3441.6,-173.96C3498.17,-166.87 3653.95,-148.58 3784,-132 3786.84,-131.64 3789.74,-131.26 3792.68,-130.88"/>
<polygon fill="midnightblue" stroke="midnightblue" points="3793.31,-134.33 3802.78,-129.57 3792.41,-127.39 3793.31,-134.33"/>
</g>
<!-- Node40 -->
<g id="node39" class="node">
<title>Node40</title>
<g id="a_node39"><a xlink:href="wld__fsm_8h.html" target="_top" xlink:title=" ">
<polygon fill="white" stroke="black" points="4077.5,-112.5 4077.5,-131.5 4144.5,-131.5 4144.5,-112.5 4077.5,-112.5"/>
<text text-anchor="middle" x="4111" y="-119.5" font-family="Helvetica,sans-Serif" font-size="10.00">wld_fsm.h</text>
</a>
</g>
</g>
<!-- Node2&#45;&gt;Node40 -->
<g id="edge44" class="edge">
<title>Node2&#45;&gt;Node40</title>
<path fill="none" stroke="midnightblue" d="M3441.65,-176.57C3522.67,-174.74 3815.78,-166.12 4067.22,-131.9"/>
<polygon fill="midnightblue" stroke="midnightblue" points="4067.85,-135.35 4077.28,-130.51 4066.89,-128.41 4067.85,-135.35"/>
</g>
<!-- Node41 -->
<g id="node40" class="node">
<title>Node41</title>
<g id="a_node40"><a xlink:href="wld__sensing_8h.html" target="_top" xlink:title=" ">
<polygon fill="white" stroke="black" points="3973,-112.5 3973,-131.5 4059,-131.5 4059,-112.5 3973,-112.5"/>
<text text-anchor="middle" x="4016" y="-119.5" font-family="Helvetica,sans-Serif" font-size="10.00">wld_sensing.h</text>
</a>
</g>
</g>
<!-- Node2&#45;&gt;Node41 -->
<g id="edge46" class="edge">
<title>Node2&#45;&gt;Node41</title>
<path fill="none" stroke="midnightblue" d="M3441.66,-175.53C3514.12,-170.94 3753.06,-155.74 3950,-132 3954.14,-131.5 3958.44,-130.93 3962.78,-130.31"/>
<polygon fill="midnightblue" stroke="midnightblue" points="3963.52,-133.74 3972.91,-128.83 3962.51,-126.82 3963.52,-133.74"/>
</g>
<!-- Node42 -->
<g id="node41" class="node">
<title>Node42</title>
<g id="a_node41"><a xlink:href="wld__mld_8h.html" target="_top" xlink:title=" ">
<polygon fill="white" stroke="black" points="3624.5,-112.5 3624.5,-131.5 3691.5,-131.5 3691.5,-112.5 3624.5,-112.5"/>
<text text-anchor="middle" x="3658" y="-119.5" font-family="Helvetica,sans-Serif" font-size="10.00">wld_mld.h</text>
</a>
</g>
</g>
<!-- Node2&#45;&gt;Node42 -->
<g id="edge48" class="edge">
<title>Node2&#45;&gt;Node42</title>
<path fill="none" stroke="midnightblue" d="M3441.54,-172.11C3480.48,-163.28 3563.29,-144.49 3614.44,-132.88"/>
<polygon fill="midnightblue" stroke="midnightblue" points="3615.25,-136.29 3624.23,-130.66 3613.7,-129.46 3615.25,-136.29"/>
</g>
<!-- Node43 -->
<g id="node42" class="node">
<title>Node43</title>
<g id="a_node42"><a xlink:href="wld__autoCommitRadData_8h.html" target="_top" xlink:title=" ">
<polygon fill="white" stroke="black" points="4163,-112.5 4163,-131.5 4339,-131.5 4339,-112.5 4163,-112.5"/>
<text text-anchor="middle" x="4251" y="-119.5" font-family="Helvetica,sans-Serif" font-size="10.00">Utils/wld_autoCommitRadData.h</text>
</a>
</g>
</g>
<!-- Node2&#45;&gt;Node43 -->
<g id="edge50" class="edge">
<title>Node2&#45;&gt;Node43</title>
<path fill="none" stroke="midnightblue" d="M3441.6,-175.91C3528.87,-171.47 3864.07,-153.94 4152.62,-132"/>
<polygon fill="midnightblue" stroke="midnightblue" points="4153.16,-135.47 4162.86,-131.22 4152.62,-128.49 4153.16,-135.47"/>
</g>
<!-- Node44 -->
<g id="node43" class="node">
<title>Node44</title>
<g id="a_node43"><a xlink:href="wld__dmnMgt_8h.html" target="_top" xlink:title=" ">
<polygon fill="white" stroke="red" points="4357,-112.5 4357,-131.5 4471,-131.5 4471,-112.5 4357,-112.5"/>
<text text-anchor="middle" x="4414" y="-119.5" font-family="Helvetica,sans-Serif" font-size="10.00">Utils/wld_dmnMgt.h</text>
</a>
</g>
</g>
<!-- Node2&#45;&gt;Node44 -->
<g id="edge51" class="edge">
<title>Node2&#45;&gt;Node44</title>
<path fill="none" stroke="midnightblue" d="M3441.63,-176.65C3542.7,-174.85 3978.63,-165.51 4346.75,-132.03"/>
<polygon fill="midnightblue" stroke="midnightblue" points="4347.16,-135.51 4356.8,-131.11 4346.52,-128.54 4347.16,-135.51"/>
</g>
<!-- Node46 -->
<g id="node44" class="node">
<title>Node46</title>
<g id="a_node44"><a xlink:title=" ">
<polygon fill="white" stroke="#bfbfbf" points="4489.5,-112.5 4489.5,-131.5 4590.5,-131.5 4590.5,-112.5 4489.5,-112.5"/>
<text text-anchor="middle" x="4540" y="-119.5" font-family="Helvetica,sans-Serif" font-size="10.00">swl/swl_staCap.h</text>
</a>
</g>
</g>
<!-- Node2&#45;&gt;Node46 -->
<g id="edge55" class="edge">
<title>Node2&#45;&gt;Node46</title>
<path fill="none" stroke="midnightblue" d="M3441.7,-176.94C3551.39,-176.43 4055.82,-172.01 4479.32,-131.94"/>
<polygon fill="midnightblue" stroke="midnightblue" points="4479.69,-135.43 4489.31,-130.99 4479.02,-128.46 4479.69,-135.43"/>
</g>
<!-- Node47 -->
<g id="node45" class="node">
<title>Node47</title>
<g id="a_node45"><a xlink:title=" ">
<polygon fill="white" stroke="#bfbfbf" points="4609,-112.5 4609,-131.5 4713,-131.5 4713,-112.5 4609,-112.5"/>
<text text-anchor="middle" x="4661" y="-119.5" font-family="Helvetica,sans-Serif" font-size="10.00">swla/swla_table.h</text>
</a>
</g>
</g>
<!-- Node2&#45;&gt;Node47 -->
<g id="edge56" class="edge">
<title>Node2&#45;&gt;Node47</title>
<path fill="none" stroke="midnightblue" d="M3441.76,-177.03C3559.56,-177 4132.89,-174.6 4599,-132 4599.1,-131.99 4599.2,-131.98 4599.3,-131.97"/>
<polygon fill="midnightblue" stroke="midnightblue" points="4599.37,-135.48 4608.95,-130.96 4598.64,-128.52 4599.37,-135.48"/>
</g>
<!-- Node48 -->
<g id="node46" class="node">
<title>Node48</title>
<g id="a_node46"><a xlink:title=" ">
<polygon fill="white" stroke="#bfbfbf" points="4731.5,-112.5 4731.5,-131.5 4828.5,-131.5 4828.5,-112.5 4731.5,-112.5"/>
<text text-anchor="middle" x="4780" y="-119.5" font-family="Helvetica,sans-Serif" font-size="10.00">swl/swl_assert.h</text>
</a>
</g>
</g>
<!-- Node2&#45;&gt;Node48 -->
<g id="edge57" class="edge">
<title>Node2&#45;&gt;Node48</title>
<path fill="none" stroke="midnightblue" d="M3441.54,-177.22C3565.05,-178.26 4196.02,-180.92 4721.27,-131.93"/>
<polygon fill="midnightblue" stroke="midnightblue" points="4721.69,-135.41 4731.32,-130.99 4721.03,-128.44 4721.69,-135.41"/>
</g>
<!-- Node49 -->
<g id="node47" class="node">
<title>Node49</title>
<g id="a_node47"><a xlink:title=" ">
<polygon fill="white" stroke="#bfbfbf" points="4846.5,-112.5 4846.5,-131.5 4967.5,-131.5 4967.5,-112.5 4846.5,-112.5"/>
<text text-anchor="middle" x="4907" y="-119.5" font-family="Helvetica,sans-Serif" font-size="10.00">swl/swl_returnCode.h</text>
</a>
</g>
</g>
<!-- Node2&#45;&gt;Node49 -->
<g id="edge58" class="edge">
<title>Node2&#45;&gt;Node49</title>
<path fill="none" stroke="midnightblue" d="M3441.7,-177.11C3571.9,-177.6 4262.73,-177.87 4836.32,-132.05"/>
<polygon fill="midnightblue" stroke="midnightblue" points="4836.77,-135.53 4846.45,-131.24 4836.2,-128.55 4836.77,-135.53"/>
</g>
<!-- Node50 -->
<g id="node48" class="node">
<title>Node50</title>
<g id="a_node48"><a xlink:title=" ">
<polygon fill="white" stroke="#bfbfbf" points="4986,-112.5 4986,-131.5 5112,-131.5 5112,-112.5 4986,-112.5"/>
<text text-anchor="middle" x="5049" y="-119.5" font-family="Helvetica,sans-Serif" font-size="10.00">swla/swla_tupleType.h</text>
</a>
</g>
</g>
<!-- Node2&#45;&gt;Node50 -->
<g id="edge59" class="edge">
<title>Node2&#45;&gt;Node50</title>
<path fill="none" stroke="midnightblue" d="M3441.55,-177.15C3578.56,-177.95 4342.51,-180.06 4975.57,-132.03"/>
<polygon fill="midnightblue" stroke="midnightblue" points="4976.11,-135.5 4985.82,-131.24 4975.58,-128.52 4976.11,-135.5"/>
</g>
<!-- Node51 -->
<g id="node49" class="node">
<title>Node51</title>
<g id="a_node49"><a xlink:title=" ">
<polygon fill="white" stroke="#bfbfbf" points="5130,-112.5 5130,-131.5 5216,-131.5 5216,-112.5 5130,-112.5"/>
<text text-anchor="middle" x="5173" y="-119.5" font-family="Helvetica,sans-Serif" font-size="10.00">swl/swl_mlo.h</text>
</a>
</g>
</g>
<!-- Node2&#45;&gt;Node51 -->
<g id="edge61" class="edge">
<title>Node2&#45;&gt;Node51</title>
<path fill="none" stroke="midnightblue" d="M3441.5,-176.86C3612.26,-175.69 4751.59,-166.7 5119.8,-131.93"/>
<polygon fill="midnightblue" stroke="midnightblue" points="5120.32,-135.4 5129.94,-130.95 5119.64,-128.43 5120.32,-135.4"/>
</g>
<!-- Node2&#45;&gt;Node53 -->
<g id="edge62" class="edge">
<title>Node2&#45;&gt;Node53</title>
<path fill="none" stroke="midnightblue" d="M3441.59,-176.91C3638.48,-176.04 5126.26,-168.33 5597.96,-131.95"/>
<polygon fill="midnightblue" stroke="midnightblue" points="5598.54,-135.41 5608.23,-131.14 5597.99,-128.44 5598.54,-135.41"/>
</g>
<!-- Node33&#45;&gt;Node4 -->
<g id="edge33" class="edge">
<title>Node33&#45;&gt;Node4</title>
<path fill="none" stroke="midnightblue" d="M4065.73,-63.08C4230.83,-54.67 4888.74,-21.15 5051.46,-12.86"/>
<polygon fill="midnightblue" stroke="midnightblue" points="5051.64,-16.36 5061.45,-12.35 5051.29,-9.37 5051.64,-16.36"/>
</g>
<!-- Node33&#45;&gt;Node9 -->
<g id="edge35" class="edge">
<title>Node33&#45;&gt;Node9</title>
<path fill="none" stroke="midnightblue" d="M3990.4,-61.07C3901.94,-51.83 3679.96,-28.65 3571.94,-17.37"/>
<polygon fill="midnightblue" stroke="midnightblue" points="3572.16,-13.87 3561.85,-16.31 3571.44,-20.83 3572.16,-13.87"/>
</g>
<!-- Node33&#45;&gt;Node34 -->
<g id="edge34" class="edge">
<title>Node33&#45;&gt;Node34</title>
<path fill="none" stroke="midnightblue" d="M4065.56,-58.54C4119.34,-49.29 4218.79,-32.19 4282.6,-21.22"/>
<polygon fill="midnightblue" stroke="midnightblue" points="4283.26,-24.65 4292.52,-19.51 4282.07,-17.76 4283.26,-24.65"/>
</g>
<!-- Node36&#45;&gt;Node3 -->
<g id="edge37" class="edge">
<title>Node36&#45;&gt;Node3</title>
<path fill="none" stroke="midnightblue" d="M3520.05,-112.32C3531.46,-104.11 3548.83,-91.6 3562.43,-81.81"/>
<polygon fill="midnightblue" stroke="midnightblue" points="3564.66,-84.52 3570.73,-75.83 3560.57,-78.84 3564.66,-84.52"/>
</g>
<!-- Node36&#45;&gt;Node9 -->
<g id="edge39" class="edge">
<title>Node36&#45;&gt;Node9</title>
<path fill="none" stroke="midnightblue" d="M3508.24,-112.37C3508.72,-94.62 3509.84,-53.67 3510.49,-29.6"/>
<polygon fill="midnightblue" stroke="midnightblue" points="3513.99,-29.68 3510.77,-19.59 3506.99,-29.49 3513.99,-29.68"/>
</g>
<!-- Node36&#45;&gt;Node37 -->
<g id="edge38" class="edge">
<title>Node36&#45;&gt;Node37</title>
<path fill="none" stroke="midnightblue" d="M3493.86,-112.32C3480.13,-103.9 3459.06,-90.97 3442.94,-81.07"/>
<polygon fill="midnightblue" stroke="midnightblue" points="3444.46,-77.9 3434.1,-75.65 3440.8,-83.87 3444.46,-77.9"/>
</g>
<!-- Node38&#45;&gt;Node33 -->
<g id="edge41" class="edge">
<title>Node38&#45;&gt;Node33</title>
<path fill="none" stroke="midnightblue" d="M3784.61,-113.77C3835.15,-104.06 3925.02,-86.79 3980.27,-76.17"/>
<polygon fill="midnightblue" stroke="midnightblue" points="3981.01,-79.59 3990.17,-74.27 3979.69,-72.72 3981.01,-79.59"/>
</g>
<!-- Node39&#45;&gt;Node2 -->
<g id="edge43" class="edge">
<title>Node39&#45;&gt;Node2</title>
<path fill="none" stroke="midnightblue" d="M3805.88,-131.5C3804.57,-131.67 3803.28,-131.84 3802,-132 3672.68,-148.49 3517.92,-166.66 3451.99,-173.84"/>
<polygon fill="midnightblue" stroke="midnightblue" points="3451.4,-170.38 3441.83,-174.93 3452.15,-177.34 3451.4,-170.38"/>
</g>
<!-- Node40&#45;&gt;Node33 -->
<g id="edge45" class="edge">
<title>Node40&#45;&gt;Node33</title>
<path fill="none" stroke="midnightblue" d="M4097.66,-112.32C4084.84,-103.98 4065.22,-91.21 4050.06,-81.35"/>
<polygon fill="midnightblue" stroke="midnightblue" points="4051.59,-78.17 4041.3,-75.65 4047.78,-84.04 4051.59,-78.17"/>
</g>
<!-- Node41&#45;&gt;Node2 -->
<g id="edge47" class="edge">
<title>Node41&#45;&gt;Node2</title>
<path fill="none" stroke="midnightblue" d="M3972.83,-131.39C3971.21,-131.61 3969.59,-131.81 3968,-132 3772.85,-155.52 3536.47,-170.66 3451.84,-175.4"/>
<polygon fill="midnightblue" stroke="midnightblue" points="3451.39,-171.92 3441.6,-175.97 3451.78,-178.91 3451.39,-171.92"/>
</g>
<!-- Node42&#45;&gt;Node33 -->
<g id="edge49" class="edge">
<title>Node42&#45;&gt;Node33</title>
<path fill="none" stroke="midnightblue" d="M3691.88,-113.51C3694.62,-112.98 3697.36,-112.46 3700,-112 3799.21,-94.59 3916.29,-79.93 3980.29,-72.41"/>
<polygon fill="midnightblue" stroke="midnightblue" points="3980.95,-75.86 3990.47,-71.22 3980.14,-68.91 3980.95,-75.86"/>
</g>
<!-- Node44&#45;&gt;Node5 -->
<g id="edge52" class="edge">
<title>Node44&#45;&gt;Node5</title>
<path fill="none" stroke="midnightblue" d="M4471,-113.15C4542.59,-103.29 4665.15,-86.4 4740.52,-76.02"/>
<polygon fill="midnightblue" stroke="midnightblue" points="4741.4,-79.43 4750.83,-74.6 4740.45,-72.5 4741.4,-79.43"/>
</g>
<!-- Node44&#45;&gt;Node33 -->
<g id="edge53" class="edge">
<title>Node44&#45;&gt;Node33</title>
<path fill="none" stroke="midnightblue" d="M4356.63,-112.97C4280.26,-102.29 4146.62,-83.59 4075.56,-73.65"/>
<polygon fill="midnightblue" stroke="midnightblue" points="4075.94,-70.17 4065.55,-72.25 4074.97,-77.1 4075.94,-70.17"/>
</g>
</g>
</svg>
