<?xml version="1.0" encoding="UTF-8" standalone="no"?>
<!DOCTYPE svg PUBLIC "-//W3C//DTD SVG 1.1//EN"
 "http://www.w3.org/Graphics/SVG/1.1/DTD/svg11.dtd">
<!-- Generated by graphviz version 2.43.0 (0)
 -->
<!-- Title: sensingGetVendorData Pages: 1 -->
<svg width="311pt" height="176pt"
 viewBox="0.00 0.00 311.00 176.00" xmlns="http://www.w3.org/2000/svg" xmlns:xlink="http://www.w3.org/1999/xlink">
<g id="graph0" class="graph" transform="scale(1 1) rotate(0) translate(4 172)">
<title>sensingGetVendorData</title>
<polygon fill="white" stroke="transparent" points="-4,4 -4,-172 307,-172 307,4 -4,4"/>
<!-- Node1 -->
<g id="node1" class="node">
<title>Node1</title>
<g id="a_node1"><a xlink:title=" ">
<polygon fill="#bfbfbf" stroke="black" points="175,-77 175,-96 303,-96 303,-77 175,-77"/>
<text text-anchor="middle" x="239" y="-84" font-family="Helvetica,sans-Serif" font-size="10.00">sensingGetVendorData</text>
</a>
</g>
</g>
<!-- Node2 -->
<g id="node2" class="node">
<title>Node2</title>
<g id="a_node2"><a xlink:href="wld__th__sensing_8c.html#a7dce6fc00d7f517eeaf9ed3bff5b6a19" target="_top" xlink:title=" ">
<polygon fill="white" stroke="black" points="13,-137.5 13,-167.5 126,-167.5 126,-137.5 13,-137.5"/>
<text text-anchor="start" x="21" y="-155.5" font-family="Helvetica,sans-Serif" font-size="10.00">wld_th_rad_sensing</text>
<text text-anchor="middle" x="69.5" y="-144.5" font-family="Helvetica,sans-Serif" font-size="10.00">_addClient</text>
</a>
</g>
</g>
<!-- Node1&#45;&gt;Node2 -->
<g id="edge1" class="edge">
<title>Node1&#45;&gt;Node2</title>
<path fill="none" stroke="midnightblue" d="M206.43,-99.98C187.06,-108.15 161.69,-118.67 139,-127.5 130.51,-130.81 121.37,-134.23 112.63,-137.45"/>
<polygon fill="midnightblue" stroke="midnightblue" points="207.85,-103.18 215.7,-96.06 205.13,-96.73 207.85,-103.18"/>
</g>
<!-- Node3 -->
<g id="node3" class="node">
<title>Node3</title>
<g id="a_node3"><a xlink:href="wld__th__sensing_8c.html#a24e180593133a2edc976b40810798a0a" target="_top" xlink:title=" ">
<polygon fill="white" stroke="black" points="0,-99 0,-118 139,-118 139,-99 0,-99"/>
<text text-anchor="middle" x="69.5" y="-106" font-family="Helvetica,sans-Serif" font-size="10.00">wld_th_rad_sensing_cmd</text>
</a>
</g>
</g>
<!-- Node1&#45;&gt;Node3 -->
<g id="edge2" class="edge">
<title>Node1&#45;&gt;Node3</title>
<path fill="none" stroke="midnightblue" d="M164.52,-96.15C156.11,-97.26 147.57,-98.38 139.23,-99.47"/>
<polygon fill="midnightblue" stroke="midnightblue" points="165.22,-99.59 174.68,-94.82 164.3,-92.65 165.22,-99.59"/>
</g>
<!-- Node4 -->
<g id="node4" class="node">
<title>Node4</title>
<g id="a_node4"><a xlink:href="wld__th__sensing_8c.html#a37ac5944e437f13cff891161d09af822" target="_top" xlink:title=" ">
<polygon fill="white" stroke="black" points="13,-49.5 13,-79.5 126,-79.5 126,-49.5 13,-49.5"/>
<text text-anchor="start" x="21" y="-67.5" font-family="Helvetica,sans-Serif" font-size="10.00">wld_th_rad_sensing</text>
<text text-anchor="middle" x="69.5" y="-56.5" font-family="Helvetica,sans-Serif" font-size="10.00">_delClient</text>
</a>
</g>
</g>
<!-- Node1&#45;&gt;Node4 -->
<g id="edge3" class="edge">
<title>Node1&#45;&gt;Node4</title>
<path fill="none" stroke="midnightblue" d="M164.48,-76.84C151.64,-75.16 138.48,-73.43 126.22,-71.82"/>
<polygon fill="midnightblue" stroke="midnightblue" points="164.3,-80.35 174.68,-78.18 165.22,-73.41 164.3,-80.35"/>
</g>
<!-- Node5 -->
<g id="node5" class="node">
<title>Node5</title>
<g id="a_node5"><a xlink:href="wld__th__sensing_8c.html#a20e7730fa4dbcb4bfe55fe47a76bd20d" target="_top" xlink:title=" ">
<polygon fill="white" stroke="black" points="13,-0.5 13,-30.5 126,-30.5 126,-0.5 13,-0.5"/>
<text text-anchor="start" x="21" y="-18.5" font-family="Helvetica,sans-Serif" font-size="10.00">wld_th_rad_sensing</text>
<text text-anchor="middle" x="69.5" y="-7.5" font-family="Helvetica,sans-Serif" font-size="10.00">_resetStats</text>
</a>
</g>
</g>
<!-- Node1&#45;&gt;Node5 -->
<g id="edge4" class="edge">
<title>Node1&#45;&gt;Node5</title>
<path fill="none" stroke="midnightblue" d="M209.48,-72.46C189.85,-63 163.08,-50.47 139,-40.5 130.81,-37.11 121.98,-33.71 113.47,-30.55"/>
<polygon fill="midnightblue" stroke="midnightblue" points="207.97,-75.62 218.5,-76.84 211.03,-69.32 207.97,-75.62"/>
</g>
</g>
</svg>
