<?xml version="1.0" encoding="UTF-8" standalone="no"?>
<!DOCTYPE svg PUBLIC "-//W3C//DTD SVG 1.1//EN"
 "http://www.w3.org/Graphics/SVG/1.1/DTD/svg11.dtd">
<!-- Generated by graphviz version 2.43.0 (0)
 -->
<!-- Title: wld_nl80211_getMaxTxPowerdBm Pages: 1 -->
<svg width="599pt" height="39pt"
 viewBox="0.00 0.00 599.00 39.00" xmlns="http://www.w3.org/2000/svg" xmlns:xlink="http://www.w3.org/1999/xlink">
<g id="graph0" class="graph" transform="scale(1 1) rotate(0) translate(4 35)">
<title>wld_nl80211_getMaxTxPowerdBm</title>
<polygon fill="white" stroke="transparent" points="-4,4 -4,-35 595,-35 595,4 -4,4"/>
<!-- Node1 -->
<g id="node1" class="node">
<title>Node1</title>
<g id="a_node1"><a xlink:title=" ">
<polygon fill="#bfbfbf" stroke="black" points="406,-6 406,-25 591,-25 591,-6 406,-6"/>
<text text-anchor="middle" x="498.5" y="-13" font-family="Helvetica,sans-Serif" font-size="10.00">wld_nl80211_getMaxTxPowerdBm</text>
</a>
</g>
</g>
<!-- Node2 -->
<g id="node2" class="node">
<title>Node2</title>
<g id="a_node2"><a xlink:href="wld__rad__nl80211_8c.html#a3f3e8050dc40df634616371b73ec662c" target="_top" xlink:title=" ">
<polygon fill="white" stroke="black" points="217,-0.5 217,-30.5 370,-30.5 370,-0.5 217,-0.5"/>
<text text-anchor="start" x="225" y="-18.5" font-family="Helvetica,sans-Serif" font-size="10.00">wld_rad_nl80211_getMaxTx</text>
<text text-anchor="middle" x="293.5" y="-7.5" font-family="Helvetica,sans-Serif" font-size="10.00">PowerdBm</text>
</a>
</g>
</g>
<!-- Node1&#45;&gt;Node2 -->
<g id="edge1" class="edge">
<title>Node1&#45;&gt;Node2</title>
<path fill="none" stroke="midnightblue" d="M395.75,-15.5C387.18,-15.5 378.62,-15.5 370.3,-15.5"/>
<polygon fill="midnightblue" stroke="midnightblue" points="395.8,-19 405.8,-15.5 395.8,-12 395.8,-19"/>
</g>
<!-- Node3 -->
<g id="node3" class="node">
<title>Node3</title>
<g id="a_node3"><a xlink:href="wifiGen__rad_8c.html#a3c9963e5436ba92831dfea8173c958c7" target="_top" xlink:title=" ">
<polygon fill="white" stroke="black" points="0,-6 0,-25 181,-25 181,-6 0,-6"/>
<text text-anchor="middle" x="90.5" y="-13" font-family="Helvetica,sans-Serif" font-size="10.00">wifiGen_rad_getMaxTxPowerdBm</text>
</a>
</g>
</g>
<!-- Node2&#45;&gt;Node3 -->
<g id="edge2" class="edge">
<title>Node2&#45;&gt;Node3</title>
<path fill="none" stroke="midnightblue" d="M206.66,-15.5C198.28,-15.5 189.76,-15.5 181.34,-15.5"/>
<polygon fill="midnightblue" stroke="midnightblue" points="206.8,-19 216.8,-15.5 206.8,-12 206.8,-19"/>
</g>
</g>
</svg>
