<?xml version="1.0" encoding="UTF-8" standalone="no"?>
<!DOCTYPE svg PUBLIC "-//W3C//DTD SVG 1.1//EN"
 "http://www.w3.org/Graphics/SVG/1.1/DTD/svg11.dtd">
<!-- Generated by graphviz version 2.43.0 (0)
 -->
<!-- Title: areBitsSetLongArray Pages: 1 -->
<svg width="523pt" height="102pt"
 viewBox="0.00 0.00 523.00 101.50" xmlns="http://www.w3.org/2000/svg" xmlns:xlink="http://www.w3.org/1999/xlink">
<g id="graph0" class="graph" transform="scale(1 1) rotate(0) translate(4 97.5)">
<title>areBitsSetLongArray</title>
<polygon fill="white" stroke="transparent" points="-4,4 -4,-97.5 519,-97.5 519,4 -4,4"/>
<!-- Node1 -->
<g id="node1" class="node">
<title>Node1</title>
<g id="a_node1"><a xlink:title=" ">
<polygon fill="#bfbfbf" stroke="black" points="399,-43.5 399,-62.5 515,-62.5 515,-43.5 399,-43.5"/>
<text text-anchor="middle" x="457" y="-50.5" font-family="Helvetica,sans-Serif" font-size="10.00">areBitsSetLongArray</text>
</a>
</g>
</g>
<!-- Node2 -->
<g id="node2" class="node">
<title>Node2</title>
<g id="a_node2"><a xlink:href="wld__autoCommitMgr_8c.html#ab1188f8502f6aa4f98ba4cdeabd06038" target="_top" xlink:title=" ">
<polygon fill="white" stroke="black" points="211,-63 211,-93 363,-93 363,-63 211,-63"/>
<text text-anchor="start" x="219" y="-81" font-family="Helvetica,sans-Serif" font-size="10.00">wld_autoCommitMgr_notify</text>
<text text-anchor="middle" x="287" y="-70" font-family="Helvetica,sans-Serif" font-size="10.00">EpEdit</text>
</a>
</g>
</g>
<!-- Node1&#45;&gt;Node2 -->
<g id="edge1" class="edge">
<title>Node1&#45;&gt;Node2</title>
<path fill="none" stroke="midnightblue" d="M388.6,-63.03C380.25,-64.27 371.67,-65.55 363.21,-66.81"/>
<polygon fill="midnightblue" stroke="midnightblue" points="389.28,-66.47 398.65,-61.53 388.25,-59.54 389.28,-66.47"/>
</g>
<!-- Node3 -->
<g id="node3" class="node">
<title>Node3</title>
<g id="a_node3"><a xlink:href="wld__autoCommitMgr_8c.html#aee76501d88846dd4f7277d2f4c2e118e" target="_top" xlink:title=" ">
<polygon fill="white" stroke="black" points="211,-14 211,-44 363,-44 363,-14 211,-14"/>
<text text-anchor="start" x="219" y="-32" font-family="Helvetica,sans-Serif" font-size="10.00">wld_autoCommitMgr_notify</text>
<text text-anchor="middle" x="287" y="-21" font-family="Helvetica,sans-Serif" font-size="10.00">RadEdit</text>
</a>
</g>
</g>
<!-- Node1&#45;&gt;Node3 -->
<g id="edge2" class="edge">
<title>Node1&#45;&gt;Node3</title>
<path fill="none" stroke="midnightblue" d="M388.6,-43.37C380.25,-42.18 371.67,-40.95 363.21,-39.74"/>
<polygon fill="midnightblue" stroke="midnightblue" points="388.26,-46.86 398.65,-44.81 389.25,-39.93 388.26,-46.86"/>
</g>
<!-- Node4 -->
<g id="node4" class="node">
<title>Node4</title>
<g id="a_node4"><a xlink:href="wld_8c.html#a9c666237c2421f7c1e2645027469c3c7" target="_top" xlink:title=" ">
<polygon fill="white" stroke="black" points="102.5,-38.5 102.5,-57.5 152.5,-57.5 152.5,-38.5 102.5,-38.5"/>
<text text-anchor="middle" x="127.5" y="-45.5" font-family="Helvetica,sans-Serif" font-size="10.00">_Reset</text>
</a>
</g>
</g>
<!-- Node3&#45;&gt;Node4 -->
<g id="edge3" class="edge">
<title>Node3&#45;&gt;Node4</title>
<path fill="none" stroke="midnightblue" d="M200.57,-39.31C182.99,-41.43 165.86,-43.49 152.71,-45.08"/>
<polygon fill="midnightblue" stroke="midnightblue" points="201.43,-42.73 210.94,-38.05 200.59,-35.78 201.43,-42.73"/>
</g>
<!-- Node5 -->
<g id="node5" class="node">
<title>Node5</title>
<g id="a_node5"><a xlink:href="wld__radio_8c.html#a807685db44775863c85c73c632336685" target="_top" xlink:title=" ">
<polygon fill="white" stroke="black" points="80,-0.5 80,-19.5 175,-19.5 175,-0.5 80,-0.5"/>
<text text-anchor="middle" x="127.5" y="-7.5" font-family="Helvetica,sans-Serif" font-size="10.00">wld_rad_doSync</text>
</a>
</g>
</g>
<!-- Node3&#45;&gt;Node5 -->
<g id="edge4" class="edge">
<title>Node3&#45;&gt;Node5</title>
<path fill="none" stroke="midnightblue" d="M200.93,-18.74C192.08,-17.67 183.34,-16.62 175.16,-15.63"/>
<polygon fill="midnightblue" stroke="midnightblue" points="200.59,-22.22 210.94,-19.95 201.43,-15.27 200.59,-22.22"/>
</g>
<!-- Node6 -->
<g id="node6" class="node">
<title>Node6</title>
<g id="a_node6"><a xlink:href="wld__radio_8c.html#a75d2c0110c4a792581f2ad7a876e85d3" target="_top" xlink:title=" ">
<polygon fill="white" stroke="black" points="0,-0.5 0,-19.5 44,-19.5 44,-0.5 0,-0.5"/>
<text text-anchor="middle" x="22" y="-7.5" font-family="Helvetica,sans-Serif" font-size="10.00">_sync</text>
</a>
</g>
</g>
<!-- Node5&#45;&gt;Node6 -->
<g id="edge5" class="edge">
<title>Node5&#45;&gt;Node6</title>
<path fill="none" stroke="midnightblue" d="M69.86,-10C60.64,-10 51.62,-10 44,-10"/>
<polygon fill="midnightblue" stroke="midnightblue" points="69.9,-13.5 79.9,-10 69.9,-6.5 69.9,-13.5"/>
</g>
</g>
</svg>
