<?xml version="1.0" encoding="UTF-8" standalone="no"?>
<!DOCTYPE svg PUBLIC "-//W3C//DTD SVG 1.1//EN"
 "http://www.w3.org/Graphics/SVG/1.1/DTD/svg11.dtd">
<!-- Generated by graphviz version 2.43.0 (0)
 -->
<!-- Title: wldu_convStrToNum Pages: 1 -->
<svg width="766pt" height="189pt"
 viewBox="0.00 0.00 766.00 189.00" xmlns="http://www.w3.org/2000/svg" xmlns:xlink="http://www.w3.org/1999/xlink">
<g id="graph0" class="graph" transform="scale(1 1) rotate(0) translate(4 185)">
<title>wldu_convStrToNum</title>
<polygon fill="white" stroke="transparent" points="-4,4 -4,-185 762,-185 762,4 -4,4"/>
<!-- Node1 -->
<g id="node1" class="node">
<title>Node1</title>
<g id="a_node1"><a xlink:title=" ">
<polygon fill="#bfbfbf" stroke="black" points="642,-68.5 642,-87.5 758,-87.5 758,-68.5 642,-68.5"/>
<text text-anchor="middle" x="700" y="-75.5" font-family="Helvetica,sans-Serif" font-size="10.00">wldu_convStrToNum</text>
</a>
</g>
</g>
<!-- Node2 -->
<g id="node2" class="node">
<title>Node2</title>
<g id="a_node2"><a xlink:href="wld__rad__hostapd__api_8c.html#abe1746524f390e3a6393472a5ee570d6" target="_top" xlink:title=" ">
<polygon fill="white" stroke="black" points="435.5,-137 435.5,-167 602.5,-167 602.5,-137 435.5,-137"/>
<text text-anchor="start" x="443.5" y="-155" font-family="Helvetica,sans-Serif" font-size="10.00">wld_rad_hostapd_getCfgParam</text>
<text text-anchor="middle" x="519" y="-144" font-family="Helvetica,sans-Serif" font-size="10.00">Int32Def</text>
</a>
</g>
</g>
<!-- Node1&#45;&gt;Node2 -->
<g id="edge1" class="edge">
<title>Node1&#45;&gt;Node2</title>
<path fill="none" stroke="midnightblue" d="M675.13,-92.74C656.75,-103.61 630.44,-118.16 606,-128 597.95,-131.24 589.3,-134.21 580.71,-136.88"/>
<polygon fill="midnightblue" stroke="midnightblue" points="676.94,-95.73 683.71,-87.59 673.34,-89.73 676.94,-95.73"/>
</g>
<!-- Node5 -->
<g id="node5" class="node">
<title>Node5</title>
<g id="a_node5"><a xlink:href="wld__rad__hostapd__api_8c.html#afd18b448561f7188bb1d69ec884a365a" target="_top" xlink:title=" ">
<polygon fill="white" stroke="black" points="434,-88 434,-118 604,-118 604,-88 434,-88"/>
<text text-anchor="start" x="442" y="-106" font-family="Helvetica,sans-Serif" font-size="10.00">wld_rad_hostapd_getCmdReply</text>
<text text-anchor="middle" x="519" y="-95" font-family="Helvetica,sans-Serif" font-size="10.00">Param32Def</text>
</a>
</g>
</g>
<!-- Node1&#45;&gt;Node5 -->
<g id="edge5" class="edge">
<title>Node1&#45;&gt;Node5</title>
<path fill="none" stroke="midnightblue" d="M631.87,-87.38C622.88,-88.63 613.56,-89.93 604.31,-91.22"/>
<polygon fill="midnightblue" stroke="midnightblue" points="632.45,-90.83 641.87,-85.98 631.48,-83.9 632.45,-90.83"/>
</g>
<!-- Node6 -->
<g id="node6" class="node">
<title>Node6</title>
<g id="a_node6"><a xlink:href="wld__wpaCtrlInterface_8c.html#aaca025bf637748df9afed9402b457a70" target="_top" xlink:title="send synchronous command to wpa_ctrl server and convert a parameter value in the reply (string in bas...">
<polygon fill="white" stroke="black" points="432,-39 432,-69 606,-69 606,-39 432,-39"/>
<text text-anchor="start" x="440" y="-57" font-family="Helvetica,sans-Serif" font-size="10.00">wld_wpaCtrl_getSyncCmdParam</text>
<text text-anchor="middle" x="519" y="-46" font-family="Helvetica,sans-Serif" font-size="10.00">ValInt32Def</text>
</a>
</g>
</g>
<!-- Node1&#45;&gt;Node6 -->
<g id="edge6" class="edge">
<title>Node1&#45;&gt;Node6</title>
<path fill="none" stroke="midnightblue" d="M631.84,-69C623.49,-67.88 614.86,-66.72 606.27,-65.57"/>
<polygon fill="midnightblue" stroke="midnightblue" points="631.49,-72.48 641.87,-70.34 632.42,-65.54 631.49,-72.48"/>
</g>
<!-- Node7 -->
<g id="node7" class="node">
<title>Node7</title>
<g id="a_node7"><a xlink:href="wld__util_8c.html#ab6ee78a11c7bcd9bc0019cd2c30aef17" target="_top" xlink:title=" ">
<polygon fill="white" stroke="black" points="457.5,-0.5 457.5,-19.5 580.5,-19.5 580.5,-0.5 457.5,-0.5"/>
<text text-anchor="middle" x="519" y="-7.5" font-family="Helvetica,sans-Serif" font-size="10.00">wldu_checkWpsPinStr</text>
</a>
</g>
</g>
<!-- Node1&#45;&gt;Node7 -->
<g id="edge7" class="edge">
<title>Node1&#45;&gt;Node7</title>
<path fill="none" stroke="midnightblue" d="M674.98,-63.05C656.67,-52.23 630.52,-37.98 606,-29 595.81,-25.27 584.65,-22.14 573.85,-19.58"/>
<polygon fill="midnightblue" stroke="midnightblue" points="673.42,-66.19 683.79,-68.35 677.03,-60.19 673.42,-66.19"/>
</g>
<!-- Node3 -->
<g id="node3" class="node">
<title>Node3</title>
<g id="a_node3"><a xlink:href="wld__rad__hostapd__api_8c.html#a3d62d80913bbb59fd6fe19d9d76b829a" target="_top" xlink:title=" ">
<polygon fill="white" stroke="black" points="220,-161.5 220,-180.5 396,-180.5 396,-161.5 220,-161.5"/>
<text text-anchor="middle" x="308" y="-168.5" font-family="Helvetica,sans-Serif" font-size="10.00">wld_rad_hostapd_getCfgChannel</text>
</a>
</g>
</g>
<!-- Node2&#45;&gt;Node3 -->
<g id="edge2" class="edge">
<title>Node2&#45;&gt;Node3</title>
<path fill="none" stroke="midnightblue" d="M425.35,-160.42C415.64,-161.31 405.8,-162.2 396.15,-163.08"/>
<polygon fill="midnightblue" stroke="midnightblue" points="425.76,-163.9 435.4,-159.51 425.12,-156.93 425.76,-163.9"/>
</g>
<!-- Node4 -->
<g id="node4" class="node">
<title>Node4</title>
<g id="a_node4"><a xlink:href="wld__rad__hostapd__api_8c.html#afca07501bc566df4c7bb67367721bc8e" target="_top" xlink:title=" ">
<polygon fill="white" stroke="black" points="0,-142.5 0,-161.5 184,-161.5 184,-142.5 0,-142.5"/>
<text text-anchor="middle" x="92" y="-149.5" font-family="Helvetica,sans-Serif" font-size="10.00">wld_rad_hostapd_getCfgChanspec</text>
</a>
</g>
</g>
<!-- Node2&#45;&gt;Node4 -->
<g id="edge4" class="edge">
<title>Node2&#45;&gt;Node4</title>
<path fill="none" stroke="midnightblue" d="M424.96,-152C353.5,-152 255.34,-152 184.32,-152"/>
<polygon fill="midnightblue" stroke="midnightblue" points="425.3,-155.5 435.3,-152 425.3,-148.5 425.3,-155.5"/>
</g>
<!-- Node3&#45;&gt;Node4 -->
<g id="edge3" class="edge">
<title>Node3&#45;&gt;Node4</title>
<path fill="none" stroke="midnightblue" d="M209.93,-162.38C201.35,-161.62 192.68,-160.85 184.14,-160.09"/>
<polygon fill="midnightblue" stroke="midnightblue" points="209.69,-165.87 219.96,-163.27 210.31,-158.9 209.69,-165.87"/>
</g>
<!-- Node8 -->
<g id="node8" class="node">
<title>Node8</title>
<g id="a_node8"><a xlink:href="wld__radio_8c.html#ab4cfae547731303244672422ca1ce1a4" target="_top" xlink:title=" ">
<polygon fill="white" stroke="black" points="263.5,-0.5 263.5,-19.5 352.5,-19.5 352.5,-0.5 263.5,-0.5"/>
<text text-anchor="middle" x="308" y="-7.5" font-family="Helvetica,sans-Serif" font-size="10.00">_checkWPSPIN</text>
</a>
</g>
</g>
<!-- Node7&#45;&gt;Node8 -->
<g id="edge8" class="edge">
<title>Node7&#45;&gt;Node8</title>
<path fill="none" stroke="midnightblue" d="M447.26,-10C415.89,-10 379.97,-10 352.61,-10"/>
<polygon fill="midnightblue" stroke="midnightblue" points="447.27,-13.5 457.27,-10 447.27,-6.5 447.27,-13.5"/>
</g>
</g>
</svg>
