<?xml version="1.0" encoding="UTF-8" standalone="no"?>
<!DOCTYPE svg PUBLIC "-//W3C//DTD SVG 1.1//EN"
 "http://www.w3.org/Graphics/SVG/1.1/DTD/svg11.dtd">
<!-- Generated by graphviz version 2.43.0 (0)
 -->
<!-- Title: _stopScan Pages: 1 -->
<svg width="513pt" height="66pt"
 viewBox="0.00 0.00 513.00 66.00" xmlns="http://www.w3.org/2000/svg" xmlns:xlink="http://www.w3.org/1999/xlink">
<g id="graph0" class="graph" transform="scale(1 1) rotate(0) translate(4 62)">
<title>_stopScan</title>
<polygon fill="white" stroke="transparent" points="-4,4 -4,-62 509,-62 509,4 -4,4"/>
<!-- Node1 -->
<g id="node1" class="node">
<title>Node1</title>
<g id="a_node1"><a xlink:title=" ">
<polygon fill="#bfbfbf" stroke="black" points="0,-19.5 0,-38.5 66,-38.5 66,-19.5 0,-19.5"/>
<text text-anchor="middle" x="33" y="-26.5" font-family="Helvetica,sans-Serif" font-size="10.00">_stopScan</text>
</a>
</g>
</g>
<!-- Node2 -->
<g id="node2" class="node">
<title>Node2</title>
<g id="a_node2"><a xlink:href="wld__rad__scan_8c.html#aa748a0e3154976d65a5b0841e1ab6a97" target="_top" xlink:title=" ">
<polygon fill="white" stroke="black" points="102,-19.5 102,-38.5 190,-38.5 190,-19.5 102,-19.5"/>
<text text-anchor="middle" x="146" y="-26.5" font-family="Helvetica,sans-Serif" font-size="10.00">wld_scan_stop</text>
</a>
</g>
</g>
<!-- Node1&#45;&gt;Node2 -->
<g id="edge1" class="edge">
<title>Node1&#45;&gt;Node2</title>
<path fill="none" stroke="midnightblue" d="M66.11,-29C74.11,-29 82.92,-29 91.65,-29"/>
<polygon fill="midnightblue" stroke="midnightblue" points="91.81,-32.5 101.81,-29 91.81,-25.5 91.81,-32.5"/>
</g>
<!-- Node3 -->
<g id="node3" class="node">
<title>Node3</title>
<g id="a_node3"><a xlink:href="wld__rad__scan_8c.html#a78682009d3c7281aa400af42d7c97ac4" target="_top" xlink:title=" ">
<polygon fill="white" stroke="black" points="226,-38.5 226,-57.5 317,-57.5 317,-38.5 226,-38.5"/>
<text text-anchor="middle" x="271.5" y="-45.5" font-family="Helvetica,sans-Serif" font-size="10.00">wld_scan_done</text>
</a>
</g>
</g>
<!-- Node2&#45;&gt;Node3 -->
<g id="edge2" class="edge">
<title>Node2&#45;&gt;Node3</title>
<path fill="none" stroke="midnightblue" d="M190.19,-35.65C198.49,-36.92 207.29,-38.27 215.89,-39.6"/>
<polygon fill="midnightblue" stroke="midnightblue" points="215.45,-43.07 225.86,-41.13 216.51,-36.15 215.45,-43.07"/>
</g>
<!-- Node5 -->
<g id="node5" class="node">
<title>Node5</title>
<g id="a_node5"><a xlink:href="wld__rad__scan_8c.html#ae8ebf96ddd41708734ca65371c20757c" target="_top" xlink:title=" ">
<polygon fill="white" stroke="black" points="371.5,-0.5 371.5,-19.5 486.5,-19.5 486.5,-0.5 371.5,-0.5"/>
<text text-anchor="middle" x="429" y="-7.5" font-family="Helvetica,sans-Serif" font-size="10.00">wld_scan_isRunning</text>
</a>
</g>
</g>
<!-- Node2&#45;&gt;Node5 -->
<g id="edge5" class="edge">
<title>Node2&#45;&gt;Node5</title>
<path fill="none" stroke="midnightblue" d="M190.29,-26.07C235.92,-22.99 308.38,-18.09 361.32,-14.51"/>
<polygon fill="midnightblue" stroke="midnightblue" points="361.56,-18 371.3,-13.83 361.09,-11.02 361.56,-18"/>
</g>
<!-- Node4 -->
<g id="node4" class="node">
<title>Node4</title>
<g id="a_node4"><a xlink:href="wld__rad__scan_8c.html#ad6781577fe655f3a8b66605574fc5cfa" target="_top" xlink:title=" ">
<polygon fill="white" stroke="black" points="353,-38.5 353,-57.5 505,-57.5 505,-38.5 353,-38.5"/>
<text text-anchor="middle" x="429" y="-45.5" font-family="Helvetica,sans-Serif" font-size="10.00">wld_getScanStatsByReason</text>
</a>
</g>
</g>
<!-- Node3&#45;&gt;Node4 -->
<g id="edge3" class="edge">
<title>Node3&#45;&gt;Node4</title>
<path fill="none" stroke="midnightblue" d="M317.06,-48C325.21,-48 333.96,-48 342.84,-48"/>
<polygon fill="midnightblue" stroke="midnightblue" points="342.9,-51.5 352.9,-48 342.9,-44.5 342.9,-51.5"/>
</g>
<!-- Node3&#45;&gt;Node5 -->
<g id="edge4" class="edge">
<title>Node3&#45;&gt;Node5</title>
<path fill="none" stroke="midnightblue" d="M311.74,-38.41C332.26,-33.4 357.57,-27.21 379.33,-21.89"/>
<polygon fill="midnightblue" stroke="midnightblue" points="380.16,-25.29 389.04,-19.52 378.5,-18.49 380.16,-25.29"/>
</g>
</g>
</svg>
