<?xml version="1.0" encoding="UTF-8" standalone="no"?>
<!DOCTYPE svg PUBLIC "-//W3C//DTD SVG 1.1//EN"
 "http://www.w3.org/Graphics/SVG/1.1/DTD/svg11.dtd">
<!-- Generated by graphviz version 2.43.0 (0)
 -->
<!-- Title: include/wld/wld_nl80211_events.h Pages: 1 -->
<svg width="5358pt" height="319pt"
 viewBox="0.00 0.00 5358.00 319.00" xmlns="http://www.w3.org/2000/svg" xmlns:xlink="http://www.w3.org/1999/xlink">
<g id="graph0" class="graph" transform="scale(1 1) rotate(0) translate(4 315)">
<title>include/wld/wld_nl80211_events.h</title>
<polygon fill="white" stroke="transparent" points="-4,4 -4,-315 5354,-315 5354,4 -4,4"/>
<!-- Node1 -->
<g id="node1" class="node">
<title>Node1</title>
<g id="a_node1"><a xlink:title=" ">
<polygon fill="#bfbfbf" stroke="black" points="1155,-280.5 1155,-310.5 1292,-310.5 1292,-280.5 1155,-280.5"/>
<text text-anchor="start" x="1163" y="-298.5" font-family="Helvetica,sans-Serif" font-size="10.00">include/wld/wld_nl80211</text>
<text text-anchor="middle" x="1223.5" y="-287.5" font-family="Helvetica,sans-Serif" font-size="10.00">_events.h</text>
</a>
</g>
</g>
<!-- Node2 -->
<g id="node2" class="node">
<title>Node2</title>
<g id="a_node2"><a xlink:href="wld__nl80211__core_8h.html" target="_top" xlink:title=" ">
<polygon fill="white" stroke="black" points="0,-112.5 0,-131.5 113,-131.5 113,-112.5 0,-112.5"/>
<text text-anchor="middle" x="56.5" y="-119.5" font-family="Helvetica,sans-Serif" font-size="10.00">wld_nl80211_core.h</text>
</a>
</g>
</g>
<!-- Node1&#45;&gt;Node2 -->
<g id="edge1" class="edge">
<title>Node1&#45;&gt;Node2</title>
<path fill="none" stroke="midnightblue" d="M1154.86,-284.41C947.29,-253.91 327.99,-162.9 123.12,-132.79"/>
<polygon fill="midnightblue" stroke="midnightblue" points="123.51,-129.31 113.11,-131.32 122.49,-136.24 123.51,-129.31"/>
</g>
<!-- Node4 -->
<g id="node4" class="node">
<title>Node4</title>
<g id="a_node4"><a xlink:href="wld__nl80211__types_8h.html" target="_top" xlink:title=" ">
<polygon fill="white" stroke="black" points="2330,-224.5 2330,-243.5 2449,-243.5 2449,-224.5 2330,-224.5"/>
<text text-anchor="middle" x="2389.5" y="-231.5" font-family="Helvetica,sans-Serif" font-size="10.00">wld_nl80211_types.h</text>
</a>
</g>
</g>
<!-- Node1&#45;&gt;Node4 -->
<g id="edge3" class="edge">
<title>Node1&#45;&gt;Node4</title>
<path fill="none" stroke="midnightblue" d="M1292.09,-291C1498.39,-280.47 2111.81,-249.17 2319.7,-238.56"/>
<polygon fill="midnightblue" stroke="midnightblue" points="2320.07,-242.05 2329.88,-238.04 2319.71,-235.06 2320.07,-242.05"/>
</g>
<!-- Node3 -->
<g id="node3" class="node">
<title>Node3</title>
<g id="a_node3"><a xlink:title=" ">
<polygon fill="white" stroke="#bfbfbf" points="0,-56.5 0,-75.5 121,-75.5 121,-56.5 0,-56.5"/>
<text text-anchor="middle" x="60.5" y="-63.5" font-family="Helvetica,sans-Serif" font-size="10.00">swl/swl_returnCode.h</text>
</a>
</g>
</g>
<!-- Node2&#45;&gt;Node3 -->
<g id="edge2" class="edge">
<title>Node2&#45;&gt;Node3</title>
<path fill="none" stroke="midnightblue" d="M57.16,-112.08C57.68,-105.01 58.44,-94.86 59.09,-85.99"/>
<polygon fill="midnightblue" stroke="midnightblue" points="62.6,-85.98 59.85,-75.75 55.62,-85.47 62.6,-85.98"/>
</g>
<!-- Node5 -->
<g id="node5" class="node">
<title>Node5</title>
<g id="a_node5"><a xlink:title=" ">
<polygon fill="white" stroke="#bfbfbf" points="5297,-0.5 5297,-19.5 5350,-19.5 5350,-0.5 5297,-0.5"/>
<text text-anchor="middle" x="5323.5" y="-7.5" font-family="Helvetica,sans-Serif" font-size="10.00">stdint.h</text>
</a>
</g>
</g>
<!-- Node4&#45;&gt;Node5 -->
<g id="edge4" class="edge">
<title>Node4&#45;&gt;Node5</title>
<path fill="none" stroke="midnightblue" d="M2449.18,-232.9C2855.88,-232 5207.31,-222.83 5325.5,-132 5352.94,-110.91 5349.37,-89.92 5342.5,-56 5340.61,-46.65 5336.71,-36.83 5332.93,-28.75"/>
<polygon fill="midnightblue" stroke="midnightblue" points="5335.97,-27.01 5328.38,-19.63 5329.71,-30.14 5335.97,-27.01"/>
</g>
<!-- Node6 -->
<g id="node6" class="node">
<title>Node6</title>
<g id="a_node6"><a xlink:href="wld_8h.html" target="_top" xlink:title=" ">
<polygon fill="white" stroke="red" points="2475,-168.5 2475,-187.5 2518,-187.5 2518,-168.5 2475,-168.5"/>
<text text-anchor="middle" x="2496.5" y="-175.5" font-family="Helvetica,sans-Serif" font-size="10.00">wld.h</text>
</a>
</g>
</g>
<!-- Node4&#45;&gt;Node6 -->
<g id="edge5" class="edge">
<title>Node4&#45;&gt;Node6</title>
<path fill="none" stroke="midnightblue" d="M2406.69,-224.32C2423.85,-215.66 2450.45,-202.24 2470.25,-192.25"/>
<polygon fill="midnightblue" stroke="midnightblue" points="2472,-195.28 2479.35,-187.65 2468.85,-189.04 2472,-195.28"/>
</g>
<!-- Node69 -->
<g id="node49" class="node">
<title>Node69</title>
<g id="a_node49"><a xlink:title=" ">
<polygon fill="white" stroke="#bfbfbf" points="2157.5,-168.5 2157.5,-187.5 2303.5,-187.5 2303.5,-168.5 2157.5,-168.5"/>
<text text-anchor="middle" x="2230.5" y="-175.5" font-family="Helvetica,sans-Serif" font-size="10.00">swl/swl_common_trilean.h</text>
</a>
</g>
</g>
<!-- Node4&#45;&gt;Node69 -->
<g id="edge63" class="edge">
<title>Node4&#45;&gt;Node69</title>
<path fill="none" stroke="midnightblue" d="M2364.31,-224.44C2337.56,-215.36 2295.1,-200.94 2265.19,-190.78"/>
<polygon fill="midnightblue" stroke="midnightblue" points="2266.17,-187.42 2255.58,-187.52 2263.92,-194.05 2266.17,-187.42"/>
</g>
<!-- Node76 -->
<g id="node50" class="node">
<title>Node76</title>
<g id="a_node50"><a xlink:title=" ">
<polygon fill="white" stroke="#bfbfbf" points="2322,-168.5 2322,-187.5 2457,-187.5 2457,-168.5 2322,-168.5"/>
<text text-anchor="middle" x="2389.5" y="-175.5" font-family="Helvetica,sans-Serif" font-size="10.00">swl/swl_common_mcs.h</text>
</a>
</g>
</g>
<!-- Node4&#45;&gt;Node76 -->
<g id="edge64" class="edge">
<title>Node4&#45;&gt;Node76</title>
<path fill="none" stroke="midnightblue" d="M2389.5,-224.08C2389.5,-217.01 2389.5,-206.86 2389.5,-197.99"/>
<polygon fill="midnightblue" stroke="midnightblue" points="2393,-197.75 2389.5,-187.75 2386,-197.75 2393,-197.75"/>
</g>
<!-- Node6&#45;&gt;Node2 -->
<g id="edge62" class="edge">
<title>Node6&#45;&gt;Node2</title>
<path fill="none" stroke="midnightblue" d="M2474.71,-169.7C2471.97,-169.01 2469.19,-168.42 2466.5,-168 2209.63,-128.28 386.77,-150.37 127.5,-132 126.03,-131.9 124.54,-131.78 123.04,-131.66"/>
<polygon fill="midnightblue" stroke="midnightblue" points="123.3,-128.17 113.03,-130.74 122.66,-135.14 123.3,-128.17"/>
</g>
<!-- Node6&#45;&gt;Node3 -->
<g id="edge61" class="edge">
<title>Node6&#45;&gt;Node3</title>
<path fill="none" stroke="midnightblue" d="M2474.71,-169.7C2471.97,-169.01 2469.19,-168.42 2466.5,-168 2215.35,-129.12 425.24,-196.8 179.5,-132 141.69,-122.03 102.84,-97.63 80.23,-81.73"/>
<polygon fill="midnightblue" stroke="midnightblue" points="82.01,-78.7 71.85,-75.7 77.92,-84.38 82.01,-78.7"/>
</g>
<!-- Node6&#45;&gt;Node5 -->
<g id="edge7" class="edge">
<title>Node6&#45;&gt;Node5</title>
<path fill="none" stroke="midnightblue" d="M2518.24,-177.04C2776.42,-177.49 5248.7,-180.5 5304.5,-132 5333.43,-106.86 5331.04,-57.13 5327.09,-29.91"/>
<polygon fill="midnightblue" stroke="midnightblue" points="5330.5,-29.04 5325.39,-19.76 5323.59,-30.2 5330.5,-29.04"/>
</g>
<!-- Node7 -->
<g id="node7" class="node">
<title>Node7</title>
<g id="a_node7"><a xlink:title=" ">
<polygon fill="white" stroke="#bfbfbf" points="142.5,-56.5 142.5,-75.5 204.5,-75.5 204.5,-56.5 142.5,-56.5"/>
<text text-anchor="middle" x="173.5" y="-63.5" font-family="Helvetica,sans-Serif" font-size="10.00">stdbool.h</text>
</a>
</g>
</g>
<!-- Node6&#45;&gt;Node7 -->
<g id="edge6" class="edge">
<title>Node6&#45;&gt;Node7</title>
<path fill="none" stroke="midnightblue" d="M2474.71,-169.7C2471.97,-169.01 2469.19,-168.42 2466.5,-168 2404.23,-158.36 250.15,-168.08 198.5,-132 183.65,-121.63 177.62,-101.13 175.17,-85.92"/>
<polygon fill="midnightblue" stroke="midnightblue" points="178.59,-85.07 173.91,-75.57 171.65,-85.92 178.59,-85.07"/>
</g>
<!-- Node8 -->
<g id="node8" class="node">
<title>Node8</title>
<g id="a_node8"><a xlink:title=" ">
<polygon fill="white" stroke="#bfbfbf" points="452.5,-56.5 452.5,-75.5 562.5,-75.5 562.5,-56.5 452.5,-56.5"/>
<text text-anchor="middle" x="507.5" y="-63.5" font-family="Helvetica,sans-Serif" font-size="10.00">swl/swl_common.h</text>
</a>
</g>
</g>
<!-- Node6&#45;&gt;Node8 -->
<g id="edge8" class="edge">
<title>Node6&#45;&gt;Node8</title>
<path fill="none" stroke="midnightblue" d="M2474.7,-169.71C2471.97,-169.02 2469.19,-168.42 2466.5,-168 2411.16,-159.37 489.75,-171.96 450.5,-132 433.86,-115.06 459.56,-94.23 481.62,-80.79"/>
<polygon fill="midnightblue" stroke="midnightblue" points="483.52,-83.74 490.41,-75.69 480,-77.68 483.52,-83.74"/>
</g>
<!-- Node9 -->
<g id="node9" class="node">
<title>Node9</title>
<g id="a_node9"><a xlink:title=" ">
<polygon fill="white" stroke="#bfbfbf" points="715.5,-112.5 715.5,-131.5 851.5,-131.5 851.5,-112.5 715.5,-112.5"/>
<text text-anchor="middle" x="783.5" y="-119.5" font-family="Helvetica,sans-Serif" font-size="10.00">swla/swla_commonLib.h</text>
</a>
</g>
</g>
<!-- Node6&#45;&gt;Node9 -->
<g id="edge9" class="edge">
<title>Node6&#45;&gt;Node9</title>
<path fill="none" stroke="midnightblue" d="M2474.7,-169.72C2471.97,-169.03 2469.19,-168.42 2466.5,-168 2117.09,-112.71 1232.79,-155.95 861.92,-132"/>
<polygon fill="midnightblue" stroke="midnightblue" points="862.11,-128.51 851.9,-131.33 861.65,-135.49 862.11,-128.51"/>
</g>
<!-- Node10 -->
<g id="node10" class="node">
<title>Node10</title>
<g id="a_node10"><a xlink:title=" ">
<polygon fill="white" stroke="#bfbfbf" points="869.5,-112.5 869.5,-131.5 957.5,-131.5 957.5,-112.5 869.5,-112.5"/>
<text text-anchor="middle" x="913.5" y="-119.5" font-family="Helvetica,sans-Serif" font-size="10.00">swl/swl_uuid.h</text>
</a>
</g>
</g>
<!-- Node6&#45;&gt;Node10 -->
<g id="edge10" class="edge">
<title>Node6&#45;&gt;Node10</title>
<path fill="none" stroke="midnightblue" d="M2474.7,-169.73C2471.97,-169.03 2469.19,-168.43 2466.5,-168 2140.43,-116.14 1314.73,-163.06 967.81,-131.94"/>
<polygon fill="midnightblue" stroke="midnightblue" points="967.96,-128.44 957.68,-130.99 967.31,-135.41 967.96,-128.44"/>
</g>
<!-- Node11 -->
<g id="node11" class="node">
<title>Node11</title>
<g id="a_node11"><a xlink:title=" ">
<polygon fill="white" stroke="#bfbfbf" points="975.5,-112.5 975.5,-131.5 1127.5,-131.5 1127.5,-112.5 975.5,-112.5"/>
<text text-anchor="middle" x="1051.5" y="-119.5" font-family="Helvetica,sans-Serif" font-size="10.00">swla/swla_radioStandards.h</text>
</a>
</g>
</g>
<!-- Node6&#45;&gt;Node11 -->
<g id="edge11" class="edge">
<title>Node6&#45;&gt;Node11</title>
<path fill="none" stroke="midnightblue" d="M2474.7,-169.73C2471.96,-169.04 2469.18,-168.43 2466.5,-168 2178.07,-121.67 1448.92,-150.72 1138.33,-131.96"/>
<polygon fill="midnightblue" stroke="midnightblue" points="1138.11,-128.44 1127.91,-131.31 1137.67,-135.43 1138.11,-128.44"/>
</g>
<!-- Node12 -->
<g id="node12" class="node">
<title>Node12</title>
<g id="a_node12"><a xlink:title=" ">
<polygon fill="white" stroke="#bfbfbf" points="364,-0.5 364,-19.5 465,-19.5 465,-0.5 364,-0.5"/>
<text text-anchor="middle" x="414.5" y="-7.5" font-family="Helvetica,sans-Serif" font-size="10.00">swla/swla_time.h</text>
</a>
</g>
</g>
<!-- Node6&#45;&gt;Node12 -->
<g id="edge12" class="edge">
<title>Node6&#45;&gt;Node12</title>
<path fill="none" stroke="midnightblue" d="M2474.7,-169.71C2471.97,-169.02 2469.19,-168.42 2466.5,-168 2410.91,-159.34 485.09,-167.57 441.5,-132 411.3,-107.35 410.32,-57.01 412.33,-29.67"/>
<polygon fill="midnightblue" stroke="midnightblue" points="415.83,-29.79 413.3,-19.51 408.86,-29.13 415.83,-29.79"/>
</g>
<!-- Node13 -->
<g id="node13" class="node">
<title>Node13</title>
<g id="a_node13"><a xlink:title=" ">
<polygon fill="white" stroke="#bfbfbf" points="1146,-112.5 1146,-131.5 1275,-131.5 1275,-112.5 1146,-112.5"/>
<text text-anchor="middle" x="1210.5" y="-119.5" font-family="Helvetica,sans-Serif" font-size="10.00">swla/swla_time_spec.h</text>
</a>
</g>
</g>
<!-- Node6&#45;&gt;Node13 -->
<g id="edge13" class="edge">
<title>Node6&#45;&gt;Node13</title>
<path fill="none" stroke="midnightblue" d="M2474.7,-169.74C2471.96,-169.04 2469.18,-168.44 2466.5,-168 2210.27,-126.4 1562.6,-151.26 1285.15,-131.94"/>
<polygon fill="midnightblue" stroke="midnightblue" points="1285.27,-128.43 1275.04,-131.2 1284.76,-135.42 1285.27,-128.43"/>
</g>
<!-- Node14 -->
<g id="node14" class="node">
<title>Node14</title>
<g id="a_node14"><a xlink:title=" ">
<polygon fill="white" stroke="#bfbfbf" points="1293.5,-112.5 1293.5,-131.5 1387.5,-131.5 1387.5,-112.5 1293.5,-112.5"/>
<text text-anchor="middle" x="1340.5" y="-119.5" font-family="Helvetica,sans-Serif" font-size="10.00">swla/swla_oui.h</text>
</a>
</g>
</g>
<!-- Node6&#45;&gt;Node14 -->
<g id="edge14" class="edge">
<title>Node6&#45;&gt;Node14</title>
<path fill="none" stroke="midnightblue" d="M2474.7,-169.75C2471.96,-169.05 2469.18,-168.44 2466.5,-168 2000.27,-91.54 1871.92,-176.62 1397.99,-132.01"/>
<polygon fill="midnightblue" stroke="midnightblue" points="1398.09,-128.5 1387.8,-131.03 1397.42,-135.47 1398.09,-128.5"/>
</g>
<!-- Node15 -->
<g id="node15" class="node">
<title>Node15</title>
<g id="a_node15"><a xlink:title=" ">
<polygon fill="white" stroke="#bfbfbf" points="1405.5,-112.5 1405.5,-131.5 1533.5,-131.5 1533.5,-112.5 1405.5,-112.5"/>
<text text-anchor="middle" x="1469.5" y="-119.5" font-family="Helvetica,sans-Serif" font-size="10.00">swla/swla_delayExec.h</text>
</a>
</g>
</g>
<!-- Node6&#45;&gt;Node15 -->
<g id="edge15" class="edge">
<title>Node6&#45;&gt;Node15</title>
<path fill="none" stroke="midnightblue" d="M2474.7,-169.76C2471.96,-169.06 2469.18,-168.45 2466.5,-168 2064.82,-101.02 1954.49,-163.78 1543.71,-131.92"/>
<polygon fill="midnightblue" stroke="midnightblue" points="1543.89,-128.43 1533.64,-131.13 1543.34,-135.4 1543.89,-128.43"/>
</g>
<!-- Node16 -->
<g id="node16" class="node">
<title>Node16</title>
<g id="a_node16"><a xlink:title=" ">
<polygon fill="white" stroke="#bfbfbf" points="1552,-112.5 1552,-131.5 1671,-131.5 1671,-112.5 1552,-112.5"/>
<text text-anchor="middle" x="1611.5" y="-119.5" font-family="Helvetica,sans-Serif" font-size="10.00">swla/swla_function.h</text>
</a>
</g>
</g>
<!-- Node6&#45;&gt;Node16 -->
<g id="edge16" class="edge">
<title>Node6&#45;&gt;Node16</title>
<path fill="none" stroke="midnightblue" d="M2474.69,-169.78C2471.96,-169.08 2469.18,-168.46 2466.5,-168 2125.04,-109.87 2030.65,-161.64 1681.45,-131.99"/>
<polygon fill="midnightblue" stroke="midnightblue" points="1681.57,-128.49 1671.31,-131.11 1680.97,-135.46 1681.57,-128.49"/>
</g>
<!-- Node17 -->
<g id="node17" class="node">
<title>Node17</title>
<g id="a_node17"><a xlink:title=" ">
<polygon fill="white" stroke="#bfbfbf" points="1689,-112.5 1689,-131.5 1830,-131.5 1830,-112.5 1689,-112.5"/>
<text text-anchor="middle" x="1759.5" y="-119.5" font-family="Helvetica,sans-Serif" font-size="10.00">swl/swl_usp_cmdStatus.h</text>
</a>
</g>
</g>
<!-- Node6&#45;&gt;Node17 -->
<g id="edge17" class="edge">
<title>Node6&#45;&gt;Node17</title>
<path fill="none" stroke="midnightblue" d="M2474.69,-169.81C2471.95,-169.1 2469.18,-168.47 2466.5,-168 2194.83,-120.13 2119.39,-154.78 1840.17,-131.99"/>
<polygon fill="midnightblue" stroke="midnightblue" points="1840.41,-128.5 1830.15,-131.16 1839.82,-135.48 1840.41,-128.5"/>
</g>
<!-- Node18 -->
<g id="node18" class="node">
<title>Node18</title>
<g id="a_node18"><a xlink:title=" ">
<polygon fill="white" stroke="#bfbfbf" points="1848.5,-112.5 1848.5,-131.5 1934.5,-131.5 1934.5,-112.5 1848.5,-112.5"/>
<text text-anchor="middle" x="1891.5" y="-119.5" font-family="Helvetica,sans-Serif" font-size="10.00">swl/swl_wps.h</text>
</a>
</g>
</g>
<!-- Node6&#45;&gt;Node18 -->
<g id="edge18" class="edge">
<title>Node6&#45;&gt;Node18</title>
<path fill="none" stroke="midnightblue" d="M2474.68,-169.84C2471.95,-169.13 2469.17,-168.49 2466.5,-168 2240.52,-126.86 2176.62,-158.97 1944.68,-132.01"/>
<polygon fill="midnightblue" stroke="midnightblue" points="1944.92,-128.51 1934.58,-130.81 1944.1,-135.46 1944.92,-128.51"/>
</g>
<!-- Node19 -->
<g id="node19" class="node">
<title>Node19</title>
<g id="a_node19"><a xlink:title=" ">
<polygon fill="white" stroke="#bfbfbf" points="1952.5,-112.5 1952.5,-131.5 2056.5,-131.5 2056.5,-112.5 1952.5,-112.5"/>
<text text-anchor="middle" x="2004.5" y="-119.5" font-family="Helvetica,sans-Serif" font-size="10.00">swl/swl_security.h</text>
</a>
</g>
</g>
<!-- Node6&#45;&gt;Node19 -->
<g id="edge19" class="edge">
<title>Node6&#45;&gt;Node19</title>
<path fill="none" stroke="midnightblue" d="M2475,-169.98C2472.16,-169.23 2469.28,-168.54 2466.5,-168 2291.24,-134.18 2243.78,-152.83 2066.5,-132 2066.4,-131.99 2066.3,-131.98 2066.2,-131.96"/>
<polygon fill="midnightblue" stroke="midnightblue" points="2066.92,-128.53 2056.57,-130.77 2066.06,-135.47 2066.92,-128.53"/>
</g>
<!-- Node20 -->
<g id="node20" class="node">
<title>Node20</title>
<g id="a_node20"><a xlink:title=" ">
<polygon fill="white" stroke="#bfbfbf" points="2075,-112.5 2075,-131.5 2158,-131.5 2158,-112.5 2075,-112.5"/>
<text text-anchor="middle" x="2116.5" y="-119.5" font-family="Helvetica,sans-Serif" font-size="10.00">amxc/amxc.h</text>
</a>
</g>
</g>
<!-- Node6&#45;&gt;Node20 -->
<g id="edge20" class="edge">
<title>Node6&#45;&gt;Node20</title>
<path fill="none" stroke="midnightblue" d="M2474.98,-170.06C2472.15,-169.29 2469.27,-168.58 2466.5,-168 2338.67,-141.34 2301.69,-151.13 2168.41,-132.04"/>
<polygon fill="midnightblue" stroke="midnightblue" points="2168.62,-128.54 2158.22,-130.55 2167.61,-135.46 2168.62,-128.54"/>
</g>
<!-- Node21 -->
<g id="node21" class="node">
<title>Node21</title>
<g id="a_node21"><a xlink:title=" ">
<polygon fill="white" stroke="#bfbfbf" points="2176.5,-112.5 2176.5,-131.5 2260.5,-131.5 2260.5,-112.5 2176.5,-112.5"/>
<text text-anchor="middle" x="2218.5" y="-119.5" font-family="Helvetica,sans-Serif" font-size="10.00">amxp/amxp.h</text>
</a>
</g>
</g>
<!-- Node6&#45;&gt;Node21 -->
<g id="edge21" class="edge">
<title>Node6&#45;&gt;Node21</title>
<path fill="none" stroke="midnightblue" d="M2474.95,-170.22C2472.12,-169.42 2469.25,-168.66 2466.5,-168 2457.02,-165.73 2340.53,-144.81 2270.63,-132.3"/>
<polygon fill="midnightblue" stroke="midnightblue" points="2271.13,-128.84 2260.67,-130.53 2269.9,-135.73 2271.13,-128.84"/>
</g>
<!-- Node22 -->
<g id="node22" class="node">
<title>Node22</title>
<g id="a_node22"><a xlink:title=" ">
<polygon fill="white" stroke="#bfbfbf" points="2278.5,-112.5 2278.5,-131.5 2418.5,-131.5 2418.5,-112.5 2278.5,-112.5"/>
<text text-anchor="middle" x="2348.5" y="-119.5" font-family="Helvetica,sans-Serif" font-size="10.00">amxd/amxd_parameter.h</text>
</a>
</g>
</g>
<!-- Node6&#45;&gt;Node22 -->
<g id="edge22" class="edge">
<title>Node6&#45;&gt;Node22</title>
<path fill="none" stroke="midnightblue" d="M2474.98,-169.15C2450.45,-160.2 2410.08,-145.47 2381.55,-135.06"/>
<polygon fill="midnightblue" stroke="midnightblue" points="2382.6,-131.72 2372,-131.58 2380.2,-138.29 2382.6,-131.72"/>
</g>
<!-- Node23 -->
<g id="node23" class="node">
<title>Node23</title>
<g id="a_node23"><a xlink:title=" ">
<polygon fill="white" stroke="#bfbfbf" points="2437,-112.5 2437,-131.5 2556,-131.5 2556,-112.5 2437,-112.5"/>
<text text-anchor="middle" x="2496.5" y="-119.5" font-family="Helvetica,sans-Serif" font-size="10.00">amxd/amxd_action.h</text>
</a>
</g>
</g>
<!-- Node6&#45;&gt;Node23 -->
<g id="edge23" class="edge">
<title>Node6&#45;&gt;Node23</title>
<path fill="none" stroke="midnightblue" d="M2496.5,-168.08C2496.5,-161.01 2496.5,-150.86 2496.5,-141.99"/>
<polygon fill="midnightblue" stroke="midnightblue" points="2500,-141.75 2496.5,-131.75 2493,-141.75 2500,-141.75"/>
</g>
<!-- Node24 -->
<g id="node24" class="node">
<title>Node24</title>
<g id="a_node24"><a xlink:title=" ">
<polygon fill="white" stroke="#bfbfbf" points="2574,-112.5 2574,-131.5 2749,-131.5 2749,-112.5 2574,-112.5"/>
<text text-anchor="middle" x="2661.5" y="-119.5" font-family="Helvetica,sans-Serif" font-size="10.00">amxd/amxd_object_parameter.h</text>
</a>
</g>
</g>
<!-- Node6&#45;&gt;Node24 -->
<g id="edge24" class="edge">
<title>Node6&#45;&gt;Node24</title>
<path fill="none" stroke="midnightblue" d="M2518.07,-169.94C2545.38,-161 2592.82,-145.48 2625.62,-134.74"/>
<polygon fill="midnightblue" stroke="midnightblue" points="2626.88,-138.01 2635.3,-131.58 2624.7,-131.36 2626.88,-138.01"/>
</g>
<!-- Node25 -->
<g id="node25" class="node">
<title>Node25</title>
<g id="a_node25"><a xlink:title=" ">
<polygon fill="white" stroke="#bfbfbf" points="2767.5,-112.5 2767.5,-131.5 2919.5,-131.5 2919.5,-112.5 2767.5,-112.5"/>
<text text-anchor="middle" x="2843.5" y="-119.5" font-family="Helvetica,sans-Serif" font-size="10.00">amxd/amxd_object_event.h</text>
</a>
</g>
</g>
<!-- Node6&#45;&gt;Node25 -->
<g id="edge25" class="edge">
<title>Node6&#45;&gt;Node25</title>
<path fill="none" stroke="midnightblue" d="M2518.21,-173.62C2569.43,-165.65 2699.47,-145.41 2778.75,-133.08"/>
<polygon fill="midnightblue" stroke="midnightblue" points="2779.29,-136.53 2788.64,-131.54 2778.22,-129.62 2779.29,-136.53"/>
</g>
<!-- Node26 -->
<g id="node26" class="node">
<title>Node26</title>
<g id="a_node26"><a xlink:title=" ">
<polygon fill="white" stroke="#bfbfbf" points="2938,-112.5 2938,-131.5 3067,-131.5 3067,-112.5 2938,-112.5"/>
<text text-anchor="middle" x="3002.5" y="-119.5" font-family="Helvetica,sans-Serif" font-size="10.00">amxd/amxd_function.h</text>
</a>
</g>
</g>
<!-- Node6&#45;&gt;Node26 -->
<g id="edge26" class="edge">
<title>Node6&#45;&gt;Node26</title>
<path fill="none" stroke="midnightblue" d="M2518.09,-174.88C2579.96,-168.79 2763.41,-150.53 2927.64,-132.08"/>
<polygon fill="midnightblue" stroke="midnightblue" points="2928.39,-135.52 2937.93,-130.92 2927.6,-128.56 2928.39,-135.52"/>
</g>
<!-- Node27 -->
<g id="node27" class="node">
<title>Node27</title>
<g id="a_node27"><a xlink:title=" ">
<polygon fill="white" stroke="#bfbfbf" points="3085,-112.5 3085,-131.5 3254,-131.5 3254,-112.5 3085,-112.5"/>
<text text-anchor="middle" x="3169.5" y="-119.5" font-family="Helvetica,sans-Serif" font-size="10.00">amxd/amxd_object_hierarchy.h</text>
</a>
</g>
</g>
<!-- Node6&#45;&gt;Node27 -->
<g id="edge27" class="edge">
<title>Node6&#45;&gt;Node27</title>
<path fill="none" stroke="midnightblue" d="M2518.11,-175.47C2593.34,-170.12 2850.97,-151.54 3074.9,-132.13"/>
<polygon fill="midnightblue" stroke="midnightblue" points="3075.2,-135.61 3084.86,-131.26 3074.59,-128.64 3075.2,-135.61"/>
</g>
<!-- Node28 -->
<g id="node28" class="node">
<title>Node28</title>
<g id="a_node28"><a xlink:title=" ">
<polygon fill="white" stroke="#bfbfbf" points="3272,-112.5 3272,-131.5 3391,-131.5 3391,-112.5 3272,-112.5"/>
<text text-anchor="middle" x="3331.5" y="-119.5" font-family="Helvetica,sans-Serif" font-size="10.00">amxd/amxd_object.h</text>
</a>
</g>
</g>
<!-- Node6&#45;&gt;Node28 -->
<g id="edge28" class="edge">
<title>Node6&#45;&gt;Node28</title>
<path fill="none" stroke="midnightblue" d="M2518.2,-176.31C2608.19,-173.31 2961,-160.38 3261.6,-132.12"/>
<polygon fill="midnightblue" stroke="midnightblue" points="3262.2,-135.58 3271.82,-131.15 3261.54,-128.61 3262.2,-135.58"/>
</g>
<!-- Node29 -->
<g id="node29" class="node">
<title>Node29</title>
<g id="a_node29"><a xlink:title=" ">
<polygon fill="white" stroke="#bfbfbf" points="3409,-112.5 3409,-131.5 3514,-131.5 3514,-112.5 3409,-112.5"/>
<text text-anchor="middle" x="3461.5" y="-119.5" font-family="Helvetica,sans-Serif" font-size="10.00">amxd/amxd_dm.h</text>
</a>
</g>
</g>
<!-- Node6&#45;&gt;Node29 -->
<g id="edge29" class="edge">
<title>Node6&#45;&gt;Node29</title>
<path fill="none" stroke="midnightblue" d="M2518.25,-176.69C2617.95,-175.13 3041.46,-166.71 3398.94,-132.06"/>
<polygon fill="midnightblue" stroke="midnightblue" points="3399.36,-135.54 3408.97,-131.08 3398.67,-128.57 3399.36,-135.54"/>
</g>
<!-- Node30 -->
<g id="node30" class="node">
<title>Node30</title>
<g id="a_node30"><a xlink:title=" ">
<polygon fill="white" stroke="#bfbfbf" points="3532.5,-112.5 3532.5,-131.5 3676.5,-131.5 3676.5,-112.5 3532.5,-112.5"/>
<text text-anchor="middle" x="3604.5" y="-119.5" font-family="Helvetica,sans-Serif" font-size="10.00">amxd/amxd_transaction.h</text>
</a>
</g>
</g>
<!-- Node6&#45;&gt;Node30 -->
<g id="edge30" class="edge">
<title>Node6&#45;&gt;Node30</title>
<path fill="none" stroke="midnightblue" d="M2518.21,-176.59C2625.77,-174.43 3112.3,-163.37 3521.83,-132.08"/>
<polygon fill="midnightblue" stroke="midnightblue" points="3522.4,-135.54 3532.1,-131.29 3521.86,-128.56 3522.4,-135.54"/>
</g>
<!-- Node31 -->
<g id="node31" class="node">
<title>Node31</title>
<g id="a_node31"><a xlink:title=" ">
<polygon fill="white" stroke="#bfbfbf" points="3694.5,-112.5 3694.5,-131.5 3810.5,-131.5 3810.5,-112.5 3694.5,-112.5"/>
<text text-anchor="middle" x="3752.5" y="-119.5" font-family="Helvetica,sans-Serif" font-size="10.00">amxb/amxb_types.h</text>
</a>
</g>
</g>
<!-- Node6&#45;&gt;Node31 -->
<g id="edge31" class="edge">
<title>Node6&#45;&gt;Node31</title>
<path fill="none" stroke="midnightblue" d="M2518.04,-176.95C2635.09,-176.54 3206.53,-172.49 3684.23,-132.02"/>
<polygon fill="midnightblue" stroke="midnightblue" points="3684.77,-135.48 3694.43,-131.15 3684.17,-128.51 3684.77,-135.48"/>
</g>
<!-- Node32 -->
<g id="node32" class="node">
<title>Node32</title>
<g id="a_node32"><a xlink:title=" ">
<polygon fill="white" stroke="#bfbfbf" points="3828.5,-112.5 3828.5,-131.5 3964.5,-131.5 3964.5,-112.5 3828.5,-112.5"/>
<text text-anchor="middle" x="3896.5" y="-119.5" font-family="Helvetica,sans-Serif" font-size="10.00">amxb/amxb_operators.h</text>
</a>
</g>
</g>
<!-- Node6&#45;&gt;Node32 -->
<g id="edge32" class="edge">
<title>Node6&#45;&gt;Node32</title>
<path fill="none" stroke="midnightblue" d="M2518.36,-176.93C2643.72,-176.39 3284.2,-171.76 3817.88,-132.06"/>
<polygon fill="midnightblue" stroke="midnightblue" points="3818.38,-135.53 3828.09,-131.29 3817.86,-128.55 3818.38,-135.53"/>
</g>
<!-- Node33 -->
<g id="node33" class="node">
<title>Node33</title>
<g id="a_node33"><a xlink:title=" ">
<polygon fill="white" stroke="#bfbfbf" points="3982.5,-112.5 3982.5,-131.5 4094.5,-131.5 4094.5,-112.5 3982.5,-112.5"/>
<text text-anchor="middle" x="4038.5" y="-119.5" font-family="Helvetica,sans-Serif" font-size="10.00">amxb/amxb_error.h</text>
</a>
</g>
</g>
<!-- Node6&#45;&gt;Node33 -->
<g id="edge33" class="edge">
<title>Node6&#45;&gt;Node33</title>
<path fill="none" stroke="midnightblue" d="M2518.23,-177.21C2651.65,-178.33 3373.53,-181.8 3972.04,-132.02"/>
<polygon fill="midnightblue" stroke="midnightblue" points="3972.5,-135.5 3982.17,-131.18 3971.91,-128.52 3972.5,-135.5"/>
</g>
<!-- Node34 -->
<g id="node34" class="node">
<title>Node34</title>
<g id="a_node34"><a xlink:title=" ">
<polygon fill="white" stroke="#bfbfbf" points="4113,-112.5 4113,-131.5 4196,-131.5 4196,-112.5 4113,-112.5"/>
<text text-anchor="middle" x="4154.5" y="-119.5" font-family="Helvetica,sans-Serif" font-size="10.00">amxo/amxo.h</text>
</a>
</g>
</g>
<!-- Node6&#45;&gt;Node34 -->
<g id="edge34" class="edge">
<title>Node6&#45;&gt;Node34</title>
<path fill="none" stroke="midnightblue" d="M2518.13,-176.83C2683.8,-175.47 3754.47,-165.53 4102.73,-131.87"/>
<polygon fill="midnightblue" stroke="midnightblue" points="4103.22,-135.34 4112.82,-130.87 4102.52,-128.37 4103.22,-135.34"/>
</g>
<!-- Node35 -->
<g id="node35" class="node">
<title>Node35</title>
<g id="a_node35"><a xlink:title=" ">
<polygon fill="white" stroke="#bfbfbf" points="4214,-112.5 4214,-131.5 4329,-131.5 4329,-112.5 4214,-112.5"/>
<text text-anchor="middle" x="4271.5" y="-119.5" font-family="Helvetica,sans-Serif" font-size="10.00">amxo/amxo_types.h</text>
</a>
</g>
</g>
<!-- Node6&#45;&gt;Node35 -->
<g id="edge35" class="edge">
<title>Node6&#45;&gt;Node35</title>
<path fill="none" stroke="midnightblue" d="M2518.1,-176.76C2689.58,-174.78 3833.79,-160.67 4203.76,-132.03"/>
<polygon fill="midnightblue" stroke="midnightblue" points="4204.26,-135.5 4213.95,-131.22 4203.7,-128.53 4204.26,-135.5"/>
</g>
<!-- Node36 -->
<g id="node36" class="node">
<title>Node36</title>
<g id="a_node36"><a xlink:href="wld__types_8h.html" target="_top" xlink:title=" ">
<polygon fill="white" stroke="red" points="650,-56.5 650,-75.5 725,-75.5 725,-56.5 650,-56.5"/>
<text text-anchor="middle" x="687.5" y="-63.5" font-family="Helvetica,sans-Serif" font-size="10.00">wld_types.h</text>
</a>
</g>
</g>
<!-- Node6&#45;&gt;Node36 -->
<g id="edge36" class="edge">
<title>Node6&#45;&gt;Node36</title>
<path fill="none" stroke="midnightblue" d="M2474.7,-169.72C2471.97,-169.02 2469.19,-168.42 2466.5,-168 2369.89,-152.81 784.15,-191.45 706.5,-132 692.66,-121.41 688.48,-101.29 687.41,-86.23"/>
<polygon fill="midnightblue" stroke="midnightblue" points="690.9,-85.83 687.09,-75.94 683.9,-86.04 690.9,-85.83"/>
</g>
<!-- Node39 -->
<g id="node37" class="node">
<title>Node39</title>
<g id="a_node37"><a xlink:href="wld__channel__types_8h.html" target="_top" xlink:title=" ">
<polygon fill="white" stroke="black" points="208,-112.5 208,-131.5 327,-131.5 327,-112.5 208,-112.5"/>
<text text-anchor="middle" x="267.5" y="-119.5" font-family="Helvetica,sans-Serif" font-size="10.00">wld_channel_types.h</text>
</a>
</g>
</g>
<!-- Node6&#45;&gt;Node39 -->
<g id="edge39" class="edge">
<title>Node6&#45;&gt;Node39</title>
<path fill="none" stroke="midnightblue" d="M2474.71,-169.71C2471.97,-169.02 2469.19,-168.42 2466.5,-168 1999.81,-95.46 812.67,-164.55 341.5,-132 340.19,-131.91 338.87,-131.81 337.54,-131.71"/>
<polygon fill="midnightblue" stroke="midnightblue" points="337.49,-128.19 327.22,-130.8 336.88,-135.16 337.49,-128.19"/>
</g>
<!-- Node40 -->
<g id="node38" class="node">
<title>Node40</title>
<g id="a_node38"><a xlink:title=" ">
<polygon fill="white" stroke="#bfbfbf" points="261,-56.5 261,-75.5 386,-75.5 386,-56.5 261,-56.5"/>
<text text-anchor="middle" x="323.5" y="-63.5" font-family="Helvetica,sans-Serif" font-size="10.00">swla/swla_chanspec.h</text>
</a>
</g>
</g>
<!-- Node6&#45;&gt;Node40 -->
<g id="edge57" class="edge">
<title>Node6&#45;&gt;Node40</title>
<path fill="none" stroke="midnightblue" d="M2474.7,-169.71C2471.97,-169.02 2469.19,-168.42 2466.5,-168 2351.92,-150.17 484.49,-181.23 379.5,-132 358.5,-122.16 342.33,-100.24 332.89,-84.58"/>
<polygon fill="midnightblue" stroke="midnightblue" points="335.88,-82.76 327.89,-75.81 329.79,-86.23 335.88,-82.76"/>
</g>
<!-- Node41 -->
<g id="node39" class="node">
<title>Node41</title>
<g id="a_node39"><a xlink:href="wld__bgdfs_8h.html" target="_top" xlink:title=" ">
<polygon fill="white" stroke="black" points="5135,-112.5 5135,-131.5 5210,-131.5 5210,-112.5 5135,-112.5"/>
<text text-anchor="middle" x="5172.5" y="-119.5" font-family="Helvetica,sans-Serif" font-size="10.00">wld_bgdfs.h</text>
</a>
</g>
</g>
<!-- Node6&#45;&gt;Node41 -->
<g id="edge43" class="edge">
<title>Node6&#45;&gt;Node41</title>
<path fill="none" stroke="midnightblue" d="M2518.22,-176.86C2752.27,-175.34 4805.44,-161.26 5124.72,-131.92"/>
<polygon fill="midnightblue" stroke="midnightblue" points="5125.32,-135.37 5134.93,-130.91 5124.63,-128.41 5125.32,-135.37"/>
</g>
<!-- Node42 -->
<g id="node40" class="node">
<title>Node42</title>
<g id="a_node40"><a xlink:href="wld__rad__delayMgr_8h.html" target="_top" xlink:title=" ">
<polygon fill="white" stroke="black" points="4347.5,-112.5 4347.5,-131.5 4461.5,-131.5 4461.5,-112.5 4347.5,-112.5"/>
<text text-anchor="middle" x="4404.5" y="-119.5" font-family="Helvetica,sans-Serif" font-size="10.00">wld_rad_delayMgr.h</text>
</a>
</g>
</g>
<!-- Node6&#45;&gt;Node42 -->
<g id="edge45" class="edge">
<title>Node6&#45;&gt;Node42</title>
<path fill="none" stroke="midnightblue" d="M2518.18,-176.79C2698.66,-175.02 3952.24,-162.24 4329.5,-132 4332.02,-131.8 4334.59,-131.56 4337.2,-131.31"/>
<polygon fill="midnightblue" stroke="midnightblue" points="4337.77,-134.77 4347.33,-130.21 4337.01,-127.81 4337.77,-134.77"/>
</g>
<!-- Node43 -->
<g id="node41" class="node">
<title>Node43</title>
<g id="a_node41"><a xlink:href="wld__fsm_8h.html" target="_top" xlink:title=" ">
<polygon fill="white" stroke="black" points="5228,-112.5 5228,-131.5 5295,-131.5 5295,-112.5 5228,-112.5"/>
<text text-anchor="middle" x="5261.5" y="-119.5" font-family="Helvetica,sans-Serif" font-size="10.00">wld_fsm.h</text>
</a>
</g>
</g>
<!-- Node6&#45;&gt;Node43 -->
<g id="edge47" class="edge">
<title>Node6&#45;&gt;Node43</title>
<path fill="none" stroke="midnightblue" d="M2518.23,-176.9C2757.01,-175.75 4889.07,-164.69 5217.61,-131.92"/>
<polygon fill="midnightblue" stroke="midnightblue" points="5218.1,-135.38 5227.67,-130.84 5217.35,-128.42 5218.1,-135.38"/>
</g>
<!-- Node44 -->
<g id="node42" class="node">
<title>Node44</title>
<g id="a_node42"><a xlink:href="wld__sensing_8h.html" target="_top" xlink:title=" ">
<polygon fill="white" stroke="black" points="4479.5,-112.5 4479.5,-131.5 4565.5,-131.5 4565.5,-112.5 4479.5,-112.5"/>
<text text-anchor="middle" x="4522.5" y="-119.5" font-family="Helvetica,sans-Serif" font-size="10.00">wld_sensing.h</text>
</a>
</g>
</g>
<!-- Node6&#45;&gt;Node44 -->
<g id="edge49" class="edge">
<title>Node6&#45;&gt;Node44</title>
<path fill="none" stroke="midnightblue" d="M2518.07,-176.95C2705.36,-176.43 4056.56,-171.44 4461.5,-132 4464.01,-131.76 4466.59,-131.46 4469.19,-131.12"/>
<polygon fill="midnightblue" stroke="midnightblue" points="4469.92,-134.56 4479.33,-129.68 4468.93,-127.63 4469.92,-134.56"/>
</g>
<!-- Node45 -->
<g id="node43" class="node">
<title>Node45</title>
<g id="a_node43"><a xlink:href="wld__mld_8h.html" target="_top" xlink:title=" ">
<polygon fill="white" stroke="black" points="592,-112.5 592,-131.5 659,-131.5 659,-112.5 592,-112.5"/>
<text text-anchor="middle" x="625.5" y="-119.5" font-family="Helvetica,sans-Serif" font-size="10.00">wld_mld.h</text>
</a>
</g>
</g>
<!-- Node6&#45;&gt;Node45 -->
<g id="edge51" class="edge">
<title>Node6&#45;&gt;Node45</title>
<path fill="none" stroke="midnightblue" d="M2474.7,-169.72C2471.97,-169.02 2469.19,-168.42 2466.5,-168 2072.8,-106.17 1069.92,-172.86 673.5,-132 672.2,-131.87 670.87,-131.71 669.54,-131.55"/>
<polygon fill="midnightblue" stroke="midnightblue" points="669.63,-128.02 659.23,-130.05 668.62,-134.95 669.63,-128.02"/>
</g>
<!-- Node46 -->
<g id="node44" class="node">
<title>Node46</title>
<g id="a_node44"><a xlink:href="wld__autoCommitRadData_8h.html" target="_top" xlink:title=" ">
<polygon fill="white" stroke="black" points="4583.5,-112.5 4583.5,-131.5 4759.5,-131.5 4759.5,-112.5 4583.5,-112.5"/>
<text text-anchor="middle" x="4671.5" y="-119.5" font-family="Helvetica,sans-Serif" font-size="10.00">Utils/wld_autoCommitRadData.h</text>
</a>
</g>
</g>
<!-- Node6&#45;&gt;Node46 -->
<g id="edge53" class="edge">
<title>Node6&#45;&gt;Node46</title>
<path fill="none" stroke="midnightblue" d="M2518.02,-177.11C2679.47,-177.84 3717.93,-180.46 4573.44,-132.01"/>
<polygon fill="midnightblue" stroke="midnightblue" points="4573.71,-135.5 4583.49,-131.44 4573.31,-128.51 4573.71,-135.5"/>
</g>
<!-- Node47 -->
<g id="node45" class="node">
<title>Node47</title>
<g id="a_node45"><a xlink:href="wld__dmnMgt_8h.html" target="_top" xlink:title=" ">
<polygon fill="white" stroke="red" points="459.5,-112.5 459.5,-131.5 573.5,-131.5 573.5,-112.5 459.5,-112.5"/>
<text text-anchor="middle" x="516.5" y="-119.5" font-family="Helvetica,sans-Serif" font-size="10.00">Utils/wld_dmnMgt.h</text>
</a>
</g>
</g>
<!-- Node6&#45;&gt;Node47 -->
<g id="edge54" class="edge">
<title>Node6&#45;&gt;Node47</title>
<path fill="none" stroke="midnightblue" d="M2474.7,-169.71C2471.97,-169.02 2469.19,-168.42 2466.5,-168 2056.25,-103.78 1017.2,-162.97 583.96,-131.89"/>
<polygon fill="midnightblue" stroke="midnightblue" points="584.07,-128.39 573.84,-131.14 583.55,-135.37 584.07,-128.39"/>
</g>
<!-- Node49 -->
<g id="node46" class="node">
<title>Node49</title>
<g id="a_node46"><a xlink:title=" ">
<polygon fill="white" stroke="#bfbfbf" points="4778,-112.5 4778,-131.5 4879,-131.5 4879,-112.5 4778,-112.5"/>
<text text-anchor="middle" x="4828.5" y="-119.5" font-family="Helvetica,sans-Serif" font-size="10.00">swl/swl_staCap.h</text>
</a>
</g>
</g>
<!-- Node6&#45;&gt;Node49 -->
<g id="edge58" class="edge">
<title>Node6&#45;&gt;Node49</title>
<path fill="none" stroke="midnightblue" d="M2518.05,-176.96C2719.51,-176.51 4276.49,-171.85 4767.82,-131.9"/>
<polygon fill="midnightblue" stroke="midnightblue" points="4768.14,-135.39 4777.82,-131.07 4767.56,-128.41 4768.14,-135.39"/>
</g>
<!-- Node50 -->
<g id="node47" class="node">
<title>Node50</title>
<g id="a_node47"><a xlink:title=" ">
<polygon fill="white" stroke="#bfbfbf" points="4897.5,-112.5 4897.5,-131.5 5001.5,-131.5 5001.5,-112.5 4897.5,-112.5"/>
<text text-anchor="middle" x="4949.5" y="-119.5" font-family="Helvetica,sans-Serif" font-size="10.00">swla/swla_table.h</text>
</a>
</g>
</g>
<!-- Node6&#45;&gt;Node50 -->
<g id="edge59" class="edge">
<title>Node6&#45;&gt;Node50</title>
<path fill="none" stroke="midnightblue" d="M2518.19,-176.98C2726.16,-176.69 4370.41,-173.15 4887.17,-131.97"/>
<polygon fill="midnightblue" stroke="midnightblue" points="4887.62,-135.45 4897.31,-131.15 4887.06,-128.47 4887.62,-135.45"/>
</g>
<!-- Node51 -->
<g id="node48" class="node">
<title>Node51</title>
<g id="a_node48"><a xlink:title=" ">
<polygon fill="white" stroke="#bfbfbf" points="5020,-112.5 5020,-131.5 5117,-131.5 5117,-112.5 5020,-112.5"/>
<text text-anchor="middle" x="5068.5" y="-119.5" font-family="Helvetica,sans-Serif" font-size="10.00">swl/swl_assert.h</text>
</a>
</g>
</g>
<!-- Node6&#45;&gt;Node51 -->
<g id="edge60" class="edge">
<title>Node6&#45;&gt;Node51</title>
<path fill="none" stroke="midnightblue" d="M2518.28,-177.02C2732.5,-177.17 4466.12,-176.98 5009.56,-131.91"/>
<polygon fill="midnightblue" stroke="midnightblue" points="5010.15,-135.38 5019.82,-131.04 5009.56,-128.4 5010.15,-135.38"/>
</g>
<!-- Node36&#45;&gt;Node5 -->
<g id="edge37" class="edge">
<title>Node36&#45;&gt;Node5</title>
<path fill="none" stroke="midnightblue" d="M725.16,-64.56C1141.36,-59.71 4875.39,-16.22 5286.75,-11.43"/>
<polygon fill="midnightblue" stroke="midnightblue" points="5286.95,-14.93 5296.9,-11.31 5286.86,-7.93 5286.95,-14.93"/>
</g>
<!-- Node36&#45;&gt;Node12 -->
<g id="edge38" class="edge">
<title>Node36&#45;&gt;Node12</title>
<path fill="none" stroke="midnightblue" d="M649.83,-57.55C602.56,-48.2 521.2,-32.11 467.63,-21.51"/>
<polygon fill="midnightblue" stroke="midnightblue" points="468.12,-18.04 457.63,-19.53 466.76,-24.91 468.12,-18.04"/>
</g>
<!-- Node39&#45;&gt;Node7 -->
<g id="edge40" class="edge">
<title>Node39&#45;&gt;Node7</title>
<path fill="none" stroke="midnightblue" d="M252.4,-112.32C237.6,-103.82 214.81,-90.73 197.52,-80.8"/>
<polygon fill="midnightblue" stroke="midnightblue" points="198.98,-77.6 188.57,-75.65 195.49,-83.67 198.98,-77.6"/>
</g>
<!-- Node39&#45;&gt;Node12 -->
<g id="edge42" class="edge">
<title>Node39&#45;&gt;Node12</title>
<path fill="none" stroke="midnightblue" d="M261.05,-112.06C252.18,-98.58 238.69,-72.83 251.5,-56 264.11,-39.44 312.76,-27.42 353.66,-19.99"/>
<polygon fill="midnightblue" stroke="midnightblue" points="354.35,-23.42 363.6,-18.24 353.14,-16.53 354.35,-23.42"/>
</g>
<!-- Node39&#45;&gt;Node40 -->
<g id="edge41" class="edge">
<title>Node39&#45;&gt;Node40</title>
<path fill="none" stroke="midnightblue" d="M276.5,-112.32C284.69,-104.42 297.01,-92.55 306.97,-82.94"/>
<polygon fill="midnightblue" stroke="midnightblue" points="309.57,-85.29 314.34,-75.83 304.71,-80.26 309.57,-85.29"/>
</g>
<!-- Node41&#45;&gt;Node36 -->
<g id="edge44" class="edge">
<title>Node41&#45;&gt;Node36</title>
<path fill="none" stroke="midnightblue" d="M5134.93,-113.07C5132.09,-112.65 5129.25,-112.28 5126.5,-112 4667.57,-65.18 1184.21,-66.58 735.13,-66.95"/>
<polygon fill="midnightblue" stroke="midnightblue" points="735.09,-63.45 725.09,-66.96 735.09,-70.45 735.09,-63.45"/>
</g>
<!-- Node42&#45;&gt;Node6 -->
<g id="edge46" class="edge">
<title>Node42&#45;&gt;Node6</title>
<path fill="none" stroke="midnightblue" d="M4353.1,-131.51C4351.22,-131.69 4349.34,-131.85 4347.5,-132 3974.14,-161.92 2742.49,-174.76 2528.34,-176.73"/>
<polygon fill="midnightblue" stroke="midnightblue" points="2528.07,-173.23 2518.11,-176.82 2528.14,-180.23 2528.07,-173.23"/>
</g>
<!-- Node43&#45;&gt;Node36 -->
<g id="edge48" class="edge">
<title>Node43&#45;&gt;Node36</title>
<path fill="none" stroke="midnightblue" d="M5227.67,-113.14C5224.92,-112.69 5222.17,-112.3 5219.5,-112 4751.15,-60.03 1190.99,-65.92 735.43,-66.89"/>
<polygon fill="midnightblue" stroke="midnightblue" points="735.24,-63.39 725.24,-66.91 735.25,-70.39 735.24,-63.39"/>
</g>
<!-- Node44&#45;&gt;Node6 -->
<g id="edge50" class="edge">
<title>Node44&#45;&gt;Node6</title>
<path fill="none" stroke="midnightblue" d="M4483.93,-131.52C4482.44,-131.7 4480.96,-131.86 4479.5,-132 4078.57,-171.05 2750.01,-176.33 2528.04,-176.93"/>
<polygon fill="midnightblue" stroke="midnightblue" points="2528.03,-173.43 2518.04,-176.96 2528.04,-180.43 2528.03,-173.43"/>
</g>
<!-- Node45&#45;&gt;Node36 -->
<g id="edge52" class="edge">
<title>Node45&#45;&gt;Node36</title>
<path fill="none" stroke="midnightblue" d="M635.46,-112.32C644.63,-104.34 658.44,-92.31 669.53,-82.65"/>
<polygon fill="midnightblue" stroke="midnightblue" points="672.12,-85.04 677.36,-75.83 667.52,-79.76 672.12,-85.04"/>
</g>
<!-- Node47&#45;&gt;Node8 -->
<g id="edge55" class="edge">
<title>Node47&#45;&gt;Node8</title>
<path fill="none" stroke="midnightblue" d="M515.01,-112.08C513.82,-104.93 512.11,-94.64 510.62,-85.69"/>
<polygon fill="midnightblue" stroke="midnightblue" points="514.05,-85.04 508.96,-75.75 507.15,-86.19 514.05,-85.04"/>
</g>
<!-- Node47&#45;&gt;Node36 -->
<g id="edge56" class="edge">
<title>Node47&#45;&gt;Node36</title>
<path fill="none" stroke="midnightblue" d="M543.6,-112.44C572.49,-103.32 618.42,-88.81 650.61,-78.65"/>
<polygon fill="midnightblue" stroke="midnightblue" points="652.05,-81.87 660.53,-75.52 649.94,-75.19 652.05,-81.87"/>
</g>
</g>
</svg>
