<?xml version="1.0" encoding="UTF-8" standalone="no"?>
<!DOCTYPE svg PUBLIC "-//W3C//DTD SVG 1.1//EN"
 "http://www.w3.org/Graphics/SVG/1.1/DTD/svg11.dtd">
<!-- Generated by graphviz version 2.43.0 (0)
 -->
<!-- Title: wld_th_vap_vendorCb_addVapIf Pages: 1 -->
<svg width="454pt" height="66pt"
 viewBox="0.00 0.00 454.00 66.00" xmlns="http://www.w3.org/2000/svg" xmlns:xlink="http://www.w3.org/1999/xlink">
<g id="graph0" class="graph" transform="scale(1 1) rotate(0) translate(4 62)">
<title>wld_th_vap_vendorCb_addVapIf</title>
<polygon fill="white" stroke="transparent" points="-4,4 -4,-62 450,-62 450,4 -4,4"/>
<!-- Node1 -->
<g id="node1" class="node">
<title>Node1</title>
<g id="a_node1"><a xlink:title=" ">
<polygon fill="#bfbfbf" stroke="black" points="0,-14 0,-44 124,-44 124,-14 0,-14"/>
<text text-anchor="start" x="8" y="-32" font-family="Helvetica,sans-Serif" font-size="10.00">wld_th_vap_vendorCb</text>
<text text-anchor="middle" x="62" y="-21" font-family="Helvetica,sans-Serif" font-size="10.00">_addVapIf</text>
</a>
</g>
</g>
<!-- Node2 -->
<g id="node2" class="node">
<title>Node2</title>
<g id="a_node2"><a xlink:href="wld__radio_8c.html#a3c6a4a3914a668c43cb9abbd36c384f6" target="_top" xlink:title=" ">
<polygon fill="white" stroke="black" points="160,-19.5 160,-38.5 276,-38.5 276,-19.5 160,-19.5"/>
<text text-anchor="middle" x="218" y="-26.5" font-family="Helvetica,sans-Serif" font-size="10.00">wld_rad_countIfaces</text>
</a>
</g>
</g>
<!-- Node1&#45;&gt;Node2 -->
<g id="edge1" class="edge">
<title>Node1&#45;&gt;Node2</title>
<path fill="none" stroke="midnightblue" d="M124.31,-29C132.66,-29 141.26,-29 149.71,-29"/>
<polygon fill="midnightblue" stroke="midnightblue" points="149.91,-32.5 159.91,-29 149.91,-25.5 149.91,-32.5"/>
</g>
<!-- Node3 -->
<g id="node3" class="node">
<title>Node3</title>
<g id="a_node3"><a xlink:href="wld__radio_8c.html#a40352176f4c51d619775aabaaf9737e8" target="_top" xlink:title=" ">
<polygon fill="white" stroke="black" points="315,-38.5 315,-57.5 443,-57.5 443,-38.5 315,-38.5"/>
<text text-anchor="middle" x="379" y="-45.5" font-family="Helvetica,sans-Serif" font-size="10.00">wld_rad_countEpIfaces</text>
</a>
</g>
</g>
<!-- Node2&#45;&gt;Node3 -->
<g id="edge2" class="edge">
<title>Node2&#45;&gt;Node3</title>
<path fill="none" stroke="midnightblue" d="M276.4,-35.86C285.55,-36.95 295.12,-38.1 304.57,-39.23"/>
<polygon fill="midnightblue" stroke="midnightblue" points="304.41,-42.73 314.76,-40.44 305.25,-35.78 304.41,-42.73"/>
</g>
<!-- Node4 -->
<g id="node4" class="node">
<title>Node4</title>
<g id="a_node4"><a xlink:href="wld__radio_8c.html#a2ff9abb173ddd8349c0659c90c06e6fd" target="_top" xlink:title=" ">
<polygon fill="white" stroke="black" points="312,-0.5 312,-19.5 446,-19.5 446,-0.5 312,-0.5"/>
<text text-anchor="middle" x="379" y="-7.5" font-family="Helvetica,sans-Serif" font-size="10.00">wld_rad_countVapIfaces</text>
</a>
</g>
</g>
<!-- Node2&#45;&gt;Node4 -->
<g id="edge3" class="edge">
<title>Node2&#45;&gt;Node4</title>
<path fill="none" stroke="midnightblue" d="M276.4,-22.14C284.65,-21.16 293.24,-20.13 301.78,-19.11"/>
<polygon fill="midnightblue" stroke="midnightblue" points="302.25,-22.58 311.76,-17.91 301.42,-15.63 302.25,-22.58"/>
</g>
</g>
</svg>
