<?xml version="1.0" encoding="UTF-8" standalone="no"?>
<!DOCTYPE svg PUBLIC "-//W3C//DTD SVG 1.1//EN"
 "http://www.w3.org/Graphics/SVG/1.1/DTD/svg11.dtd">
<!-- Generated by graphviz version 2.43.0 (0)
 -->
<!-- Title: wld_util_getMaxBwCap Pages: 1 -->
<svg width="338pt" height="78pt"
 viewBox="0.00 0.00 338.00 77.50" xmlns="http://www.w3.org/2000/svg" xmlns:xlink="http://www.w3.org/1999/xlink">
<g id="graph0" class="graph" transform="scale(1 1) rotate(0) translate(4 73.5)">
<title>wld_util_getMaxBwCap</title>
<polygon fill="white" stroke="transparent" points="-4,4 -4,-73.5 334,-73.5 334,4 -4,4"/>
<!-- Node1 -->
<g id="node1" class="node">
<title>Node1</title>
<g id="a_node1"><a xlink:title=" ">
<polygon fill="#bfbfbf" stroke="black" points="199,-28 199,-47 330,-47 330,-28 199,-28"/>
<text text-anchor="middle" x="264.5" y="-35" font-family="Helvetica,sans-Serif" font-size="10.00">wld_util_getMaxBwCap</text>
</a>
</g>
</g>
<!-- Node2 -->
<g id="node2" class="node">
<title>Node2</title>
<g id="a_node2"><a xlink:href="wld__assocdev_8c.html#a29fb3ec2c3c3ec38427bde04380db427" target="_top" xlink:title=" ">
<polygon fill="white" stroke="black" points="32.5,-50 32.5,-69 130.5,-69 130.5,-50 32.5,-50"/>
<text text-anchor="middle" x="81.5" y="-57" font-family="Helvetica,sans-Serif" font-size="10.00">wld_ad_syncInfo</text>
</a>
</g>
</g>
<!-- Node1&#45;&gt;Node2 -->
<g id="edge1" class="edge">
<title>Node1&#45;&gt;Node2</title>
<path fill="none" stroke="midnightblue" d="M188.75,-46.59C169.08,-48.98 148.39,-51.49 130.55,-53.66"/>
<polygon fill="midnightblue" stroke="midnightblue" points="189.42,-50.03 198.92,-45.35 188.57,-43.08 189.42,-50.03"/>
</g>
<!-- Node3 -->
<g id="node3" class="node">
<title>Node3</title>
<g id="a_node3"><a xlink:href="wld__assocdev_8c.html#ab163d58b1b893cfda532f95bd8b94d0a" target="_top" xlink:title=" ">
<polygon fill="white" stroke="black" points="0,-0.5 0,-30.5 163,-30.5 163,-0.5 0,-0.5"/>
<text text-anchor="start" x="8" y="-18.5" font-family="Helvetica,sans-Serif" font-size="10.00">wld_assocDev_copyAssocDev</text>
<text text-anchor="middle" x="81.5" y="-7.5" font-family="Helvetica,sans-Serif" font-size="10.00">InfoFromIEs</text>
</a>
</g>
</g>
<!-- Node1&#45;&gt;Node3 -->
<g id="edge2" class="edge">
<title>Node1&#45;&gt;Node3</title>
<path fill="none" stroke="midnightblue" d="M188.75,-28.41C180.32,-27.39 171.7,-26.34 163.2,-25.31"/>
<polygon fill="midnightblue" stroke="midnightblue" points="188.57,-31.92 198.92,-29.65 189.42,-24.97 188.57,-31.92"/>
</g>
</g>
</svg>
