<?xml version="1.0" encoding="UTF-8" standalone="no"?>
<!DOCTYPE svg PUBLIC "-//W3C//DTD SVG 1.1//EN"
 "http://www.w3.org/Graphics/SVG/1.1/DTD/svg11.dtd">
<!-- Generated by graphviz version 2.43.0 (0)
 -->
<!-- Title: include/wld/wld_wpaCtrlMngr.h Pages: 1 -->
<svg width="775pt" height="207pt"
 viewBox="0.00 0.00 774.50 207.00" xmlns="http://www.w3.org/2000/svg" xmlns:xlink="http://www.w3.org/1999/xlink">
<g id="graph0" class="graph" transform="scale(1 1) rotate(0) translate(4 203)">
<title>include/wld/wld_wpaCtrlMngr.h</title>
<polygon fill="white" stroke="transparent" points="-4,4 -4,-203 770.5,-203 770.5,4 -4,4"/>
<!-- Node1 -->
<g id="node1" class="node">
<title>Node1</title>
<g id="a_node1"><a xlink:title=" ">
<polygon fill="#bfbfbf" stroke="black" points="21,-179.5 21,-198.5 189,-198.5 189,-179.5 21,-179.5"/>
<text text-anchor="middle" x="105" y="-186.5" font-family="Helvetica,sans-Serif" font-size="10.00">include/wld/wld_wpaCtrlMngr.h</text>
</a>
</g>
</g>
<!-- Node2 -->
<g id="node2" class="node">
<title>Node2</title>
<g id="a_node2"><a xlink:href="wld__wpaCtrl__types_8h.html" target="_top" xlink:title=" ">
<polygon fill="white" stroke="black" points="0,-6 0,-25 118,-25 118,-6 0,-6"/>
<text text-anchor="middle" x="59" y="-13" font-family="Helvetica,sans-Serif" font-size="10.00">wld_wpaCtrl_types.h</text>
</a>
</g>
</g>
<!-- Node1&#45;&gt;Node2 -->
<g id="edge1" class="edge">
<title>Node1&#45;&gt;Node2</title>
<path fill="none" stroke="midnightblue" d="M98.3,-179.22C92.01,-170.51 82.87,-156.55 78,-143 64.85,-106.37 60.8,-60.61 59.55,-35.39"/>
<polygon fill="midnightblue" stroke="midnightblue" points="63.04,-34.92 59.15,-25.07 56.04,-35.19 63.04,-34.92"/>
</g>
<!-- Node3 -->
<g id="node3" class="node">
<title>Node3</title>
<g id="a_node3"><a xlink:href="wld__wpaCtrlInterface_8h.html" target="_top" xlink:title=" ">
<polygon fill="white" stroke="black" points="87.5,-123.5 87.5,-142.5 216.5,-142.5 216.5,-123.5 87.5,-123.5"/>
<text text-anchor="middle" x="152" y="-130.5" font-family="Helvetica,sans-Serif" font-size="10.00">wld_wpaCtrlInterface.h</text>
</a>
</g>
</g>
<!-- Node1&#45;&gt;Node3 -->
<g id="edge2" class="edge">
<title>Node1&#45;&gt;Node3</title>
<path fill="none" stroke="midnightblue" d="M112.76,-179.08C119.54,-171.3 129.54,-159.8 137.76,-150.37"/>
<polygon fill="midnightblue" stroke="midnightblue" points="140.46,-152.59 144.38,-142.75 135.18,-148 140.46,-152.59"/>
</g>
<!-- Node3&#45;&gt;Node2 -->
<g id="edge3" class="edge">
<title>Node3&#45;&gt;Node2</title>
<path fill="none" stroke="midnightblue" d="M145.01,-123.32C129.59,-104.17 92.45,-58.04 72.39,-33.13"/>
<polygon fill="midnightblue" stroke="midnightblue" points="75.07,-30.88 66.07,-25.28 69.62,-35.27 75.07,-30.88"/>
</g>
<!-- Node4 -->
<g id="node4" class="node">
<title>Node4</title>
<g id="a_node4"><a xlink:href="wld__wpaCtrl__events_8h.html" target="_top" xlink:title=" ">
<polygon fill="white" stroke="black" points="268,-67.5 268,-86.5 392,-86.5 392,-67.5 268,-67.5"/>
<text text-anchor="middle" x="330" y="-74.5" font-family="Helvetica,sans-Serif" font-size="10.00">wld_wpaCtrl_events.h</text>
</a>
</g>
</g>
<!-- Node3&#45;&gt;Node4 -->
<g id="edge4" class="edge">
<title>Node3&#45;&gt;Node4</title>
<path fill="none" stroke="midnightblue" d="M180.2,-123.44C210.41,-114.28 258.51,-99.69 292.03,-89.52"/>
<polygon fill="midnightblue" stroke="midnightblue" points="293.37,-92.77 301.93,-86.52 291.34,-86.07 293.37,-92.77"/>
</g>
<!-- Node4&#45;&gt;Node2 -->
<g id="edge10" class="edge">
<title>Node4&#45;&gt;Node2</title>
<path fill="none" stroke="midnightblue" d="M291.17,-67.48C242.88,-56.87 160.39,-38.76 107.85,-27.22"/>
<polygon fill="midnightblue" stroke="midnightblue" points="108.27,-23.74 97.76,-25.01 106.77,-30.57 108.27,-23.74"/>
</g>
<!-- Node5 -->
<g id="node5" class="node">
<title>Node5</title>
<g id="a_node5"><a xlink:title=" ">
<polygon fill="white" stroke="#bfbfbf" points="136.5,-6 136.5,-25 261.5,-25 261.5,-6 136.5,-6"/>
<text text-anchor="middle" x="199" y="-13" font-family="Helvetica,sans-Serif" font-size="10.00">swla/swla_chanspec.h</text>
</a>
</g>
</g>
<!-- Node4&#45;&gt;Node5 -->
<g id="edge5" class="edge">
<title>Node4&#45;&gt;Node5</title>
<path fill="none" stroke="midnightblue" d="M311.23,-67.48C289.15,-57.45 252.28,-40.7 226.86,-29.15"/>
<polygon fill="midnightblue" stroke="midnightblue" points="228.29,-25.96 217.73,-25.01 225.39,-32.33 228.29,-25.96"/>
</g>
<!-- Node6 -->
<g id="node6" class="node">
<title>Node6</title>
<g id="a_node6"><a xlink:title=" ">
<polygon fill="white" stroke="#bfbfbf" points="280,-6 280,-25 380,-25 380,-6 280,-6"/>
<text text-anchor="middle" x="330" y="-13" font-family="Helvetica,sans-Serif" font-size="10.00">swla/swla_mac.h</text>
</a>
</g>
</g>
<!-- Node4&#45;&gt;Node6 -->
<g id="edge6" class="edge">
<title>Node4&#45;&gt;Node6</title>
<path fill="none" stroke="midnightblue" d="M330,-67.48C330,-59.08 330,-45.98 330,-35.16"/>
<polygon fill="midnightblue" stroke="midnightblue" points="333.5,-35.01 330,-25.01 326.5,-35.01 333.5,-35.01"/>
</g>
<!-- Node7 -->
<g id="node7" class="node">
<title>Node7</title>
<g id="a_node7"><a xlink:title=" ">
<polygon fill="white" stroke="#bfbfbf" points="398,-0.5 398,-30.5 512,-30.5 512,-0.5 398,-0.5"/>
<text text-anchor="start" x="406" y="-18.5" font-family="Helvetica,sans-Serif" font-size="10.00">swl/swl_ieee802_1x</text>
<text text-anchor="middle" x="455" y="-7.5" font-family="Helvetica,sans-Serif" font-size="10.00">_defs.h</text>
</a>
</g>
</g>
<!-- Node4&#45;&gt;Node7 -->
<g id="edge7" class="edge">
<title>Node4&#45;&gt;Node7</title>
<path fill="none" stroke="midnightblue" d="M347.91,-67.48C365.71,-59 393.58,-45.74 416.42,-34.86"/>
<polygon fill="midnightblue" stroke="midnightblue" points="418.01,-37.98 425.54,-30.52 415.01,-31.66 418.01,-37.98"/>
</g>
<!-- Node8 -->
<g id="node8" class="node">
<title>Node8</title>
<g id="a_node8"><a xlink:title=" ">
<polygon fill="white" stroke="#bfbfbf" points="530.5,-6 530.5,-25 627.5,-25 627.5,-6 530.5,-6"/>
<text text-anchor="middle" x="579" y="-13" font-family="Helvetica,sans-Serif" font-size="10.00">swl/swl_80211.h</text>
</a>
</g>
</g>
<!-- Node4&#45;&gt;Node8 -->
<g id="edge8" class="edge">
<title>Node4&#45;&gt;Node8</title>
<path fill="none" stroke="midnightblue" d="M367.01,-67.44C405.51,-58.49 467.53,-43.98 521,-31 525.67,-29.87 530.55,-28.67 535.41,-27.47"/>
<polygon fill="midnightblue" stroke="midnightblue" points="536.42,-30.82 545.28,-25.01 534.73,-24.03 536.42,-30.82"/>
</g>
<!-- Node9 -->
<g id="node9" class="node">
<title>Node9</title>
<g id="a_node9"><a xlink:title=" ">
<polygon fill="white" stroke="#bfbfbf" points="645.5,-6 645.5,-25 766.5,-25 766.5,-6 645.5,-6"/>
<text text-anchor="middle" x="706" y="-13" font-family="Helvetica,sans-Serif" font-size="10.00">swl/swl_returnCode.h</text>
</a>
</g>
</g>
<!-- Node4&#45;&gt;Node9 -->
<g id="edge9" class="edge">
<title>Node4&#45;&gt;Node9</title>
<path fill="none" stroke="midnightblue" d="M392.22,-68.02C454.36,-59.79 552.55,-46.05 637,-31 643.64,-29.82 650.62,-28.47 657.48,-27.09"/>
<polygon fill="midnightblue" stroke="midnightblue" points="658.31,-30.49 667.4,-25.05 656.9,-23.63 658.31,-30.49"/>
</g>
</g>
</svg>
