<?xml version="1.0" encoding="UTF-8" standalone="no"?>
<!DOCTYPE svg PUBLIC "-//W3C//DTD SVG 1.1//EN"
 "http://www.w3.org/Graphics/SVG/1.1/DTD/svg11.dtd">
<!-- Generated by graphviz version 2.43.0 (0)
 -->
<!-- Title: wld_nl80211_getWiphy Pages: 1 -->
<svg width="547pt" height="154pt"
 viewBox="0.00 0.00 547.00 154.00" xmlns="http://www.w3.org/2000/svg" xmlns:xlink="http://www.w3.org/1999/xlink">
<g id="graph0" class="graph" transform="scale(1 1) rotate(0) translate(4 150)">
<title>wld_nl80211_getWiphy</title>
<polygon fill="white" stroke="transparent" points="-4,4 -4,-150 543,-150 543,4 -4,4"/>
<!-- Node1 -->
<g id="node1" class="node">
<title>Node1</title>
<g id="a_node1"><a xlink:title=" ">
<polygon fill="#bfbfbf" stroke="black" points="409,-66.5 409,-85.5 539,-85.5 539,-66.5 409,-66.5"/>
<text text-anchor="middle" x="474" y="-73.5" font-family="Helvetica,sans-Serif" font-size="10.00">wld_nl80211_getWiphy</text>
</a>
</g>
</g>
<!-- Node2 -->
<g id="node2" class="node">
<title>Node2</title>
<g id="a_node2"><a xlink:href="wld__nl80211__parser_8c.html#a6258a68b7b0e3f8faa0a18c359f18718" target="_top" xlink:title=" ">
<polygon fill="white" stroke="black" points="200,-126.5 200,-145.5 373,-145.5 373,-126.5 200,-126.5"/>
<text text-anchor="middle" x="286.5" y="-133.5" font-family="Helvetica,sans-Serif" font-size="10.00">wld_nl80211_parseInterfaceInfo</text>
</a>
</g>
</g>
<!-- Node1&#45;&gt;Node2 -->
<g id="edge1" class="edge">
<title>Node1&#45;&gt;Node2</title>
<path fill="none" stroke="midnightblue" d="M443.37,-89.71C423.72,-98.41 397.2,-109.41 373,-117 361.54,-120.59 349.01,-123.78 337.16,-126.47"/>
<polygon fill="midnightblue" stroke="midnightblue" points="445,-92.81 452.69,-85.52 442.14,-86.43 445,-92.81"/>
</g>
<!-- Node3 -->
<g id="node3" class="node">
<title>Node3</title>
<g id="a_node3"><a xlink:href="wld__nl80211__parser_8c.html#ab7d2a06b216ad0ba4383a99e21cda1c7" target="_top" xlink:title=" ">
<polygon fill="white" stroke="black" points="207.5,-88.5 207.5,-107.5 365.5,-107.5 365.5,-88.5 207.5,-88.5"/>
<text text-anchor="middle" x="286.5" y="-95.5" font-family="Helvetica,sans-Serif" font-size="10.00">wld_nl80211_parseRadarInfo</text>
</a>
</g>
</g>
<!-- Node1&#45;&gt;Node3 -->
<g id="edge2" class="edge">
<title>Node1&#45;&gt;Node3</title>
<path fill="none" stroke="midnightblue" d="M398.97,-84.78C388.02,-86.08 376.71,-87.42 365.69,-88.73"/>
<polygon fill="midnightblue" stroke="midnightblue" points="399.38,-88.26 408.9,-83.6 398.56,-81.3 399.38,-88.26"/>
</g>
<!-- Node4 -->
<g id="node4" class="node">
<title>Node4</title>
<g id="a_node4"><a xlink:href="wld__nl80211__parser_8c.html#af58c86541bf9ddf1ff67fb92b738b9d2" target="_top" xlink:title=" ">
<polygon fill="white" stroke="black" points="204.5,-39 204.5,-69 368.5,-69 368.5,-39 204.5,-39"/>
<text text-anchor="start" x="212.5" y="-57" font-family="Helvetica,sans-Serif" font-size="10.00">wld_nl80211_parseScanResult</text>
<text text-anchor="middle" x="286.5" y="-46" font-family="Helvetica,sans-Serif" font-size="10.00">PerFreqBand</text>
</a>
</g>
</g>
<!-- Node1&#45;&gt;Node4 -->
<g id="edge3" class="edge">
<title>Node1&#45;&gt;Node4</title>
<path fill="none" stroke="midnightblue" d="M398.71,-67.19C388.81,-66.02 378.62,-64.81 368.62,-63.62"/>
<polygon fill="midnightblue" stroke="midnightblue" points="398.56,-70.7 408.9,-68.4 399.38,-63.74 398.56,-70.7"/>
</g>
<!-- Node6 -->
<g id="node6" class="node">
<title>Node6</title>
<g id="a_node6"><a xlink:href="wld__nl80211__parser_8c.html#a491336306743b88b27d68af55e9e2e94" target="_top" xlink:title=" ">
<polygon fill="white" stroke="black" points="206.5,-0.5 206.5,-19.5 366.5,-19.5 366.5,-0.5 206.5,-0.5"/>
<text text-anchor="middle" x="286.5" y="-7.5" font-family="Helvetica,sans-Serif" font-size="10.00">wld_nl80211_parseWiphyInfo</text>
</a>
</g>
</g>
<!-- Node1&#45;&gt;Node6 -->
<g id="edge5" class="edge">
<title>Node1&#45;&gt;Node6</title>
<path fill="none" stroke="midnightblue" d="M445.99,-61.77C426.21,-51.8 398.48,-38.74 373,-30 361.18,-25.94 348.15,-22.43 335.92,-19.54"/>
<polygon fill="midnightblue" stroke="midnightblue" points="444.53,-64.95 455.02,-66.39 447.71,-58.72 444.53,-64.95"/>
</g>
<!-- Node5 -->
<g id="node5" class="node">
<title>Node5</title>
<g id="a_node5"><a xlink:href="wld__nl80211__parser_8c.html#a316af38fac37025f40db309879fe3f72" target="_top" xlink:title=" ">
<polygon fill="white" stroke="black" points="0,-44.5 0,-63.5 164,-63.5 164,-44.5 0,-44.5"/>
<text text-anchor="middle" x="82" y="-51.5" font-family="Helvetica,sans-Serif" font-size="10.00">wld_nl80211_parseScanResult</text>
</a>
</g>
</g>
<!-- Node4&#45;&gt;Node5 -->
<g id="edge4" class="edge">
<title>Node4&#45;&gt;Node5</title>
<path fill="none" stroke="midnightblue" d="M194.01,-54C184.08,-54 174.02,-54 164.22,-54"/>
<polygon fill="midnightblue" stroke="midnightblue" points="194.3,-57.5 204.3,-54 194.3,-50.5 194.3,-57.5"/>
</g>
</g>
</svg>
