<?xml version="1.0" encoding="UTF-8" standalone="no"?>
<!DOCTYPE svg PUBLIC "-//W3C//DTD SVG 1.1//EN"
 "http://www.w3.org/Graphics/SVG/1.1/DTD/svg11.dtd">
<!-- Generated by graphviz version 2.43.0 (0)
 -->
<!-- Title: wld_wpaCtrlInterface_ping Pages: 1 -->
<svg width="891pt" height="102pt"
 viewBox="0.00 0.00 891.00 101.50" xmlns="http://www.w3.org/2000/svg" xmlns:xlink="http://www.w3.org/1999/xlink">
<g id="graph0" class="graph" transform="scale(1 1) rotate(0) translate(4 97.5)">
<title>wld_wpaCtrlInterface_ping</title>
<polygon fill="white" stroke="transparent" points="-4,4 -4,-97.5 887,-97.5 887,4 -4,4"/>
<!-- Node1 -->
<g id="node1" class="node">
<title>Node1</title>
<g id="a_node1"><a xlink:title=" ">
<polygon fill="#bfbfbf" stroke="black" points="0,-52 0,-71 146,-71 146,-52 0,-52"/>
<text text-anchor="middle" x="73" y="-59" font-family="Helvetica,sans-Serif" font-size="10.00">wld_wpaCtrlInterface_ping</text>
</a>
</g>
</g>
<!-- Node2 -->
<g id="node2" class="node">
<title>Node2</title>
<g id="a_node2"><a xlink:href="wld__wpaCtrlConnection_8c.html#af7414d719a14459bfbf836e77f643aff" target="_top" xlink:title=" ">
<polygon fill="white" stroke="black" points="182,-46.5 182,-76.5 327,-76.5 327,-46.5 182,-46.5"/>
<text text-anchor="start" x="190" y="-64.5" font-family="Helvetica,sans-Serif" font-size="10.00">wld_wpaCtrlConnection</text>
<text text-anchor="middle" x="254.5" y="-53.5" font-family="Helvetica,sans-Serif" font-size="10.00">_sendCmdCheckResponse</text>
</a>
</g>
</g>
<!-- Node1&#45;&gt;Node2 -->
<g id="edge1" class="edge">
<title>Node1&#45;&gt;Node2</title>
<path fill="none" stroke="midnightblue" d="M146.23,-61.5C154.71,-61.5 163.4,-61.5 171.98,-61.5"/>
<polygon fill="midnightblue" stroke="midnightblue" points="172,-65 182,-61.5 172,-58 172,-65"/>
</g>
<!-- Node3 -->
<g id="node3" class="node">
<title>Node3</title>
<g id="a_node3"><a xlink:href="wld__wpaCtrlConnection_8c.html#a5ddba0537d0917bc518e9ef71b539f75" target="_top" xlink:title=" ">
<polygon fill="white" stroke="black" points="363,-46.5 363,-76.5 524,-76.5 524,-46.5 363,-46.5"/>
<text text-anchor="start" x="371" y="-64.5" font-family="Helvetica,sans-Serif" font-size="10.00">wld_wpaCtrlConnection</text>
<text text-anchor="middle" x="443.5" y="-53.5" font-family="Helvetica,sans-Serif" font-size="10.00">_sendCmdCheckResponseExt</text>
</a>
</g>
</g>
<!-- Node2&#45;&gt;Node3 -->
<g id="edge2" class="edge">
<title>Node2&#45;&gt;Node3</title>
<path fill="none" stroke="midnightblue" d="M327.26,-61.5C335.63,-61.5 344.24,-61.5 352.81,-61.5"/>
<polygon fill="midnightblue" stroke="midnightblue" points="352.83,-65 362.83,-61.5 352.83,-58 352.83,-65"/>
</g>
<!-- Node4 -->
<g id="node4" class="node">
<title>Node4</title>
<g id="a_node4"><a xlink:href="wld__wpaCtrlConnection_8c.html#ab5b29b7ce5f29ef5dfbe951e5b700428" target="_top" xlink:title=" ">
<polygon fill="white" stroke="black" points="560,-74 560,-93 716,-93 716,-74 560,-74"/>
<text text-anchor="middle" x="638" y="-81" font-family="Helvetica,sans-Serif" font-size="10.00">wld_wpaCtrl_getMaxMsgLen</text>
</a>
</g>
</g>
<!-- Node3&#45;&gt;Node4 -->
<g id="edge3" class="edge">
<title>Node3&#45;&gt;Node4</title>
<path fill="none" stroke="midnightblue" d="M524.19,-70.61C532.66,-71.58 541.31,-72.56 549.87,-73.54"/>
<polygon fill="midnightblue" stroke="midnightblue" points="549.52,-77.02 559.85,-74.68 550.31,-70.07 549.52,-77.02"/>
</g>
<!-- Node5 -->
<g id="node5" class="node">
<title>Node5</title>
<g id="a_node5"><a xlink:href="wld__wpaCtrlConnection_8c.html#ae8867992d243efdfa13e360b50730f88" target="_top" xlink:title=" ">
<polygon fill="white" stroke="black" points="572.5,-24.5 572.5,-54.5 703.5,-54.5 703.5,-24.5 572.5,-24.5"/>
<text text-anchor="start" x="580.5" y="-42.5" font-family="Helvetica,sans-Serif" font-size="10.00">wld_wpaCtrlConnection</text>
<text text-anchor="middle" x="638" y="-31.5" font-family="Helvetica,sans-Serif" font-size="10.00">_sendCmdSyncedExt</text>
</a>
</g>
</g>
<!-- Node3&#45;&gt;Node5 -->
<g id="edge4" class="edge">
<title>Node3&#45;&gt;Node5</title>
<path fill="none" stroke="midnightblue" d="M524.19,-52.39C536.71,-50.96 549.62,-49.49 562.04,-48.07"/>
<polygon fill="midnightblue" stroke="midnightblue" points="562.79,-51.5 572.33,-46.89 561.99,-44.55 562.79,-51.5"/>
</g>
<!-- Node6 -->
<g id="node6" class="node">
<title>Node6</title>
<g id="a_node6"><a xlink:href="wld__wpaCtrlConnection_8c.html#abfe3f8b17cf527b1e6fe85a564c8604b" target="_top" xlink:title=" ">
<polygon fill="white" stroke="black" points="752,-49.5 752,-79.5 883,-79.5 883,-49.5 752,-49.5"/>
<text text-anchor="start" x="760" y="-67.5" font-family="Helvetica,sans-Serif" font-size="10.00">wld_wpaCtrlConnection</text>
<text text-anchor="middle" x="817.5" y="-56.5" font-family="Helvetica,sans-Serif" font-size="10.00">_getConnSockName</text>
</a>
</g>
</g>
<!-- Node5&#45;&gt;Node6 -->
<g id="edge5" class="edge">
<title>Node5&#45;&gt;Node6</title>
<path fill="none" stroke="midnightblue" d="M703.58,-48.6C716.02,-50.35 729.14,-52.2 741.87,-53.99"/>
<polygon fill="midnightblue" stroke="midnightblue" points="741.57,-57.48 751.96,-55.41 742.55,-50.55 741.57,-57.48"/>
</g>
<!-- Node7 -->
<g id="node7" class="node">
<title>Node7</title>
<g id="a_node7"><a xlink:href="wld__wpaCtrlConnection_8c.html#aa82226c76dbbf306e509b7c6d3088277" target="_top" xlink:title=" ">
<polygon fill="white" stroke="black" points="752,-0.5 752,-30.5 883,-30.5 883,-0.5 752,-0.5"/>
<text text-anchor="start" x="760" y="-18.5" font-family="Helvetica,sans-Serif" font-size="10.00">wld_wpaCtrlConnection</text>
<text text-anchor="middle" x="817.5" y="-7.5" font-family="Helvetica,sans-Serif" font-size="10.00">_sendCmd</text>
</a>
</g>
</g>
<!-- Node5&#45;&gt;Node7 -->
<g id="edge6" class="edge">
<title>Node5&#45;&gt;Node7</title>
<path fill="none" stroke="midnightblue" d="M703.58,-30.77C716.02,-29.09 729.14,-27.31 741.87,-25.59"/>
<polygon fill="midnightblue" stroke="midnightblue" points="742.52,-29.03 751.96,-24.23 741.59,-22.1 742.52,-29.03"/>
</g>
</g>
</svg>
