<?xml version="1.0" encoding="UTF-8" standalone="no"?>
<!DOCTYPE svg PUBLIC "-//W3C//DTD SVG 1.1//EN"
 "http://www.w3.org/Graphics/SVG/1.1/DTD/svg11.dtd">
<!-- Generated by graphviz version 2.43.0 (0)
 -->
<!-- Title: wld_rad_hostapd_updateAllVapsConfigId Pages: 1 -->
<svg width="548pt" height="39pt"
 viewBox="0.00 0.00 548.00 39.00" xmlns="http://www.w3.org/2000/svg" xmlns:xlink="http://www.w3.org/1999/xlink">
<g id="graph0" class="graph" transform="scale(1 1) rotate(0) translate(4 35)">
<title>wld_rad_hostapd_updateAllVapsConfigId</title>
<polygon fill="white" stroke="transparent" points="-4,4 -4,-35 544,-35 544,4 -4,4"/>
<!-- Node1 -->
<g id="node1" class="node">
<title>Node1</title>
<g id="a_node1"><a xlink:title=" ">
<polygon fill="#bfbfbf" stroke="black" points="389,-0.5 389,-30.5 540,-30.5 540,-0.5 389,-0.5"/>
<text text-anchor="start" x="397" y="-18.5" font-family="Helvetica,sans-Serif" font-size="10.00">wld_rad_hostapd_updateAll</text>
<text text-anchor="middle" x="464.5" y="-7.5" font-family="Helvetica,sans-Serif" font-size="10.00">VapsConfigId</text>
</a>
</g>
</g>
<!-- Node2 -->
<g id="node2" class="node">
<title>Node2</title>
<g id="a_node2"><a xlink:href="wifiGen__hapd_8c.html#a390fcf6faed4a6312a55bab71c11440f" target="_top" xlink:title=" ">
<polygon fill="white" stroke="black" points="194,-6 194,-25 353,-25 353,-6 194,-6"/>
<text text-anchor="middle" x="273.5" y="-13" font-family="Helvetica,sans-Serif" font-size="10.00">wifiGen_hapd_syncVapStates</text>
</a>
</g>
</g>
<!-- Node1&#45;&gt;Node2 -->
<g id="edge1" class="edge">
<title>Node1&#45;&gt;Node2</title>
<path fill="none" stroke="midnightblue" d="M378.79,-15.5C370.21,-15.5 361.52,-15.5 353,-15.5"/>
<polygon fill="midnightblue" stroke="midnightblue" points="378.8,-19 388.8,-15.5 378.8,-12 378.8,-19"/>
</g>
<!-- Node3 -->
<g id="node3" class="node">
<title>Node3</title>
<g id="a_node3"><a xlink:href="wifiGen__rad_8c.html#a0c40e12d7d78f9e69f6b42402be3eed7" target="_top" xlink:title=" ">
<polygon fill="white" stroke="black" points="0,-0.5 0,-30.5 158,-30.5 158,-0.5 0,-0.5"/>
<text text-anchor="start" x="8" y="-18.5" font-family="Helvetica,sans-Serif" font-size="10.00">wifiGen_rad_delayedCommit</text>
<text text-anchor="middle" x="79" y="-7.5" font-family="Helvetica,sans-Serif" font-size="10.00">Update</text>
</a>
</g>
</g>
<!-- Node2&#45;&gt;Node3 -->
<g id="edge2" class="edge">
<title>Node2&#45;&gt;Node3</title>
<path fill="none" stroke="midnightblue" d="M183.85,-15.5C175.23,-15.5 166.52,-15.5 158.01,-15.5"/>
<polygon fill="midnightblue" stroke="midnightblue" points="183.93,-19 193.93,-15.5 183.93,-12 183.93,-19"/>
</g>
</g>
</svg>
