<?xml version="1.0" encoding="UTF-8" standalone="no"?>
<!DOCTYPE svg PUBLIC "-//W3C//DTD SVG 1.1//EN"
 "http://www.w3.org/Graphics/SVG/1.1/DTD/svg11.dtd">
<!-- Generated by graphviz version 2.43.0 (0)
 -->
<!-- Title: src/ChannelManagement/wld_channel.c Pages: 1 -->
<svg width="4869pt" height="375pt"
 viewBox="0.00 0.00 4869.00 375.00" xmlns="http://www.w3.org/2000/svg" xmlns:xlink="http://www.w3.org/1999/xlink">
<g id="graph0" class="graph" transform="scale(1 1) rotate(0) translate(4 371)">
<title>src/ChannelManagement/wld_channel.c</title>
<polygon fill="white" stroke="transparent" points="-4,4 -4,-371 4865,-371 4865,4 -4,4"/>
<!-- Node1 -->
<g id="node1" class="node">
<title>Node1</title>
<g id="a_node1"><a xlink:title=" ">
<polygon fill="#bfbfbf" stroke="black" points="3920,-336.5 3920,-366.5 4058,-366.5 4058,-336.5 3920,-336.5"/>
<text text-anchor="start" x="3928" y="-354.5" font-family="Helvetica,sans-Serif" font-size="10.00">src/ChannelManagement</text>
<text text-anchor="middle" x="3989" y="-343.5" font-family="Helvetica,sans-Serif" font-size="10.00">/wld_channel.c</text>
</a>
</g>
</g>
<!-- Node2 -->
<g id="node2" class="node">
<title>Node2</title>
<g id="a_node2"><a xlink:href="wld__channel_8h.html" target="_top" xlink:title=" ">
<polygon fill="white" stroke="black" points="4217,-224.5 4217,-243.5 4303,-243.5 4303,-224.5 4217,-224.5"/>
<text text-anchor="middle" x="4260" y="-231.5" font-family="Helvetica,sans-Serif" font-size="10.00">wld_channel.h</text>
</a>
</g>
</g>
<!-- Node1&#45;&gt;Node2 -->
<g id="edge1" class="edge">
<title>Node1&#45;&gt;Node2</title>
<path fill="none" stroke="midnightblue" d="M4021.96,-336.45C4075.25,-313.74 4179.51,-269.3 4230.5,-247.57"/>
<polygon fill="midnightblue" stroke="midnightblue" points="4232.13,-250.68 4239.96,-243.54 4229.39,-244.24 4232.13,-250.68"/>
</g>
<!-- Node4 -->
<g id="node4" class="node">
<title>Node4</title>
<g id="a_node4"><a xlink:title=" ">
<polygon fill="white" stroke="#bfbfbf" points="4646,-56.5 4646,-75.5 4708,-75.5 4708,-56.5 4646,-56.5"/>
<text text-anchor="middle" x="4677" y="-63.5" font-family="Helvetica,sans-Serif" font-size="10.00">stdbool.h</text>
</a>
</g>
</g>
<!-- Node1&#45;&gt;Node4 -->
<g id="edge54" class="edge">
<title>Node1&#45;&gt;Node4</title>
<path fill="none" stroke="midnightblue" d="M4058.15,-348.59C4264.4,-341.97 4861,-315.84 4861,-235 4861,-235 4861,-235 4861,-177 4861,-144.4 4852.14,-132.76 4827,-112 4796.07,-86.46 4750.97,-75.41 4718.31,-70.64"/>
<polygon fill="midnightblue" stroke="midnightblue" points="4718.55,-67.14 4708.17,-69.29 4717.63,-74.08 4718.55,-67.14"/>
</g>
<!-- Node5 -->
<g id="node5" class="node">
<title>Node5</title>
<g id="a_node5"><a xlink:title=" ">
<polygon fill="white" stroke="#bfbfbf" points="2522.5,-0.5 2522.5,-19.5 2575.5,-19.5 2575.5,-0.5 2522.5,-0.5"/>
<text text-anchor="middle" x="2549" y="-7.5" font-family="Helvetica,sans-Serif" font-size="10.00">stdint.h</text>
</a>
</g>
</g>
<!-- Node1&#45;&gt;Node5 -->
<g id="edge56" class="edge">
<title>Node1&#45;&gt;Node5</title>
<path fill="none" stroke="midnightblue" d="M3919.94,-350.34C3445.62,-349.14 677.8,-340.45 306,-300 167.78,-284.96 0,-374.03 0,-235 0,-235 0,-235 0,-121 0,-87.31 9.83,-72.86 39,-56 94.99,-23.63 2206.27,-12.6 2512.2,-11.16"/>
<polygon fill="midnightblue" stroke="midnightblue" points="2512.33,-14.66 2522.31,-11.12 2512.29,-7.66 2512.33,-14.66"/>
</g>
<!-- Node6 -->
<g id="node6" class="node">
<title>Node6</title>
<g id="a_node6"><a xlink:title=" ">
<polygon fill="white" stroke="#bfbfbf" points="48,-56.5 48,-75.5 158,-75.5 158,-56.5 48,-56.5"/>
<text text-anchor="middle" x="103" y="-63.5" font-family="Helvetica,sans-Serif" font-size="10.00">swl/swl_common.h</text>
</a>
</g>
</g>
<!-- Node1&#45;&gt;Node6 -->
<g id="edge57" class="edge">
<title>Node1&#45;&gt;Node6</title>
<path fill="none" stroke="midnightblue" d="M3919.59,-350.35C3392.22,-348.96 38,-336.17 38,-235 38,-235 38,-235 38,-177 38,-146.9 41.52,-137.81 57,-112 63.78,-100.7 74.07,-90.27 83.2,-82.3"/>
<polygon fill="midnightblue" stroke="midnightblue" points="85.67,-84.79 91.13,-75.71 81.2,-79.41 85.67,-84.79"/>
</g>
<!-- Node76 -->
<g id="node43" class="node">
<title>Node76</title>
<g id="a_node43"><a xlink:title=" ">
<polygon fill="white" stroke="#bfbfbf" points="4003.5,-280.5 4003.5,-299.5 4056.5,-299.5 4056.5,-280.5 4003.5,-280.5"/>
<text text-anchor="middle" x="4030" y="-287.5" font-family="Helvetica,sans-Serif" font-size="10.00">stdlib.h</text>
</a>
</g>
</g>
<!-- Node1&#45;&gt;Node76 -->
<g id="edge55" class="edge">
<title>Node1&#45;&gt;Node76</title>
<path fill="none" stroke="midnightblue" d="M3998.72,-336.4C4004.55,-327.93 4012.02,-317.1 4018.19,-308.14"/>
<polygon fill="midnightblue" stroke="midnightblue" points="4021.24,-309.88 4024.03,-299.66 4015.48,-305.91 4021.24,-309.88"/>
</g>
<!-- Node77 -->
<g id="node44" class="node">
<title>Node77</title>
<g id="a_node44"><a xlink:href="wld__radio_8h.html" target="_top" xlink:title=" ">
<polygon fill="white" stroke="black" points="3912.5,-280.5 3912.5,-299.5 3985.5,-299.5 3985.5,-280.5 3912.5,-280.5"/>
<text text-anchor="middle" x="3949" y="-287.5" font-family="Helvetica,sans-Serif" font-size="10.00">wld_radio.h</text>
</a>
</g>
</g>
<!-- Node1&#45;&gt;Node77 -->
<g id="edge58" class="edge">
<title>Node1&#45;&gt;Node77</title>
<path fill="none" stroke="midnightblue" d="M3979.52,-336.4C3973.83,-327.93 3966.55,-317.1 3960.52,-308.14"/>
<polygon fill="midnightblue" stroke="midnightblue" points="3963.3,-306 3954.82,-299.66 3957.49,-309.91 3963.3,-306"/>
</g>
<!-- Node83 -->
<g id="node48" class="node">
<title>Node83</title>
<g id="a_node48"><a xlink:href="wld__util_8h.html" target="_top" xlink:title=" ">
<polygon fill="white" stroke="black" points="3062,-280.5 3062,-299.5 3126,-299.5 3126,-280.5 3062,-280.5"/>
<text text-anchor="middle" x="3094" y="-287.5" font-family="Helvetica,sans-Serif" font-size="10.00">wld_util.h</text>
</a>
</g>
</g>
<!-- Node1&#45;&gt;Node83 -->
<g id="edge69" class="edge">
<title>Node1&#45;&gt;Node83</title>
<path fill="none" stroke="midnightblue" d="M3919.89,-345.91C3743.28,-334.16 3279.33,-303.32 3136.48,-293.82"/>
<polygon fill="midnightblue" stroke="midnightblue" points="3136.58,-290.32 3126.37,-293.15 3136.11,-297.31 3136.58,-290.32"/>
</g>
<!-- Node84 -->
<g id="node49" class="node">
<title>Node84</title>
<g id="a_node49"><a xlink:href="wld__channel__lib_8h.html" target="_top" xlink:title=" ">
<polygon fill="white" stroke="black" points="4435,-280.5 4435,-299.5 4539,-299.5 4539,-280.5 4435,-280.5"/>
<text text-anchor="middle" x="4487" y="-287.5" font-family="Helvetica,sans-Serif" font-size="10.00">wld_channel_lib.h</text>
</a>
</g>
</g>
<!-- Node1&#45;&gt;Node84 -->
<g id="edge71" class="edge">
<title>Node1&#45;&gt;Node84</title>
<path fill="none" stroke="midnightblue" d="M4058.24,-342.23C4155.49,-330.61 4331.06,-309.63 4424.51,-298.47"/>
<polygon fill="midnightblue" stroke="midnightblue" points="4425.15,-301.91 4434.67,-297.25 4424.32,-294.96 4425.15,-301.91"/>
</g>
<!-- Node3 -->
<g id="node3" class="node">
<title>Node3</title>
<g id="a_node3"><a xlink:href="wld_8h.html" target="_top" xlink:title=" ">
<polygon fill="white" stroke="red" points="2730.5,-168.5 2730.5,-187.5 2773.5,-187.5 2773.5,-168.5 2730.5,-168.5"/>
<text text-anchor="middle" x="2752" y="-175.5" font-family="Helvetica,sans-Serif" font-size="10.00">wld.h</text>
</a>
</g>
</g>
<!-- Node2&#45;&gt;Node3 -->
<g id="edge2" class="edge">
<title>Node2&#45;&gt;Node3</title>
<path fill="none" stroke="midnightblue" d="M4216.56,-228.05C4201.8,-226.53 4185.2,-225 4170,-224 3615.57,-187.52 2937.18,-180.39 2783.81,-179.21"/>
<polygon fill="midnightblue" stroke="midnightblue" points="2783.71,-175.71 2773.69,-179.13 2783.66,-182.71 2783.71,-175.71"/>
</g>
<!-- Node37 -->
<g id="node35" class="node">
<title>Node37</title>
<g id="a_node35"><a xlink:href="wld__channel__types_8h.html" target="_top" xlink:title=" ">
<polygon fill="white" stroke="red" points="4698.5,-112.5 4698.5,-131.5 4817.5,-131.5 4817.5,-112.5 4698.5,-112.5"/>
<text text-anchor="middle" x="4758" y="-119.5" font-family="Helvetica,sans-Serif" font-size="10.00">wld_channel_types.h</text>
</a>
</g>
</g>
<!-- Node2&#45;&gt;Node37 -->
<g id="edge53" class="edge">
<title>Node2&#45;&gt;Node37</title>
<path fill="none" stroke="midnightblue" d="M4303.32,-231.06C4394.46,-226.51 4603.07,-213.59 4669,-188 4697.56,-176.92 4725.2,-154.28 4741.91,-138.87"/>
<polygon fill="midnightblue" stroke="midnightblue" points="4744.75,-140.99 4749.6,-131.57 4739.93,-135.92 4744.75,-140.99"/>
</g>
<!-- Node3&#45;&gt;Node4 -->
<g id="edge3" class="edge">
<title>Node3&#45;&gt;Node4</title>
<path fill="none" stroke="midnightblue" d="M2773.69,-176.94C2956.33,-176.37 4234.5,-170.98 4400,-132 4420.52,-127.17 4422.94,-118.48 4443,-112 4508.69,-90.76 4588.17,-78.09 4635.55,-71.84"/>
<polygon fill="midnightblue" stroke="midnightblue" points="4636.26,-75.28 4645.73,-70.53 4635.37,-68.34 4636.26,-75.28"/>
</g>
<!-- Node3&#45;&gt;Node5 -->
<g id="edge4" class="edge">
<title>Node3&#45;&gt;Node5</title>
<path fill="none" stroke="midnightblue" d="M2730.3,-171.55C2725.59,-170.38 2720.63,-169.14 2716,-168 2650.27,-151.79 2613.84,-181.81 2568,-132 2542.28,-104.06 2543.2,-56.22 2546.11,-29.84"/>
<polygon fill="midnightblue" stroke="midnightblue" points="2549.61,-30.05 2547.45,-19.67 2542.67,-29.13 2549.61,-30.05"/>
</g>
<!-- Node3&#45;&gt;Node6 -->
<g id="edge5" class="edge">
<title>Node3&#45;&gt;Node6</title>
<path fill="none" stroke="midnightblue" d="M2730.45,-170.76C2725.73,-169.63 2720.73,-168.62 2716,-168 2440.97,-132.13 487.99,-203.51 220,-132 182.71,-122.05 144.55,-97.64 122.35,-81.73"/>
<polygon fill="midnightblue" stroke="midnightblue" points="124.26,-78.79 114.13,-75.7 120.12,-84.44 124.26,-78.79"/>
</g>
<!-- Node7 -->
<g id="node7" class="node">
<title>Node7</title>
<g id="a_node7"><a xlink:title=" ">
<polygon fill="white" stroke="#bfbfbf" points="3186,-112.5 3186,-131.5 3322,-131.5 3322,-112.5 3186,-112.5"/>
<text text-anchor="middle" x="3254" y="-119.5" font-family="Helvetica,sans-Serif" font-size="10.00">swla/swla_commonLib.h</text>
</a>
</g>
</g>
<!-- Node3&#45;&gt;Node7 -->
<g id="edge6" class="edge">
<title>Node3&#45;&gt;Node7</title>
<path fill="none" stroke="midnightblue" d="M2773.68,-174.79C2834.97,-168.52 3014.92,-149.99 3175.9,-132.11"/>
<polygon fill="midnightblue" stroke="midnightblue" points="3176.43,-135.57 3185.98,-130.99 3175.66,-128.62 3176.43,-135.57"/>
</g>
<!-- Node8 -->
<g id="node8" class="node">
<title>Node8</title>
<g id="a_node8"><a xlink:title=" ">
<polygon fill="white" stroke="#bfbfbf" points="3340,-112.5 3340,-131.5 3428,-131.5 3428,-112.5 3340,-112.5"/>
<text text-anchor="middle" x="3384" y="-119.5" font-family="Helvetica,sans-Serif" font-size="10.00">swl/swl_uuid.h</text>
</a>
</g>
</g>
<!-- Node3&#45;&gt;Node8 -->
<g id="edge7" class="edge">
<title>Node3&#45;&gt;Node8</title>
<path fill="none" stroke="midnightblue" d="M2773.63,-176.03C2848.92,-172.49 3106.66,-159.16 3329.87,-132.03"/>
<polygon fill="midnightblue" stroke="midnightblue" points="3330.3,-135.51 3339.8,-130.81 3329.45,-128.56 3330.3,-135.51"/>
</g>
<!-- Node9 -->
<g id="node9" class="node">
<title>Node9</title>
<g id="a_node9"><a xlink:title=" ">
<polygon fill="white" stroke="#bfbfbf" points="4452,-112.5 4452,-131.5 4604,-131.5 4604,-112.5 4452,-112.5"/>
<text text-anchor="middle" x="4528" y="-119.5" font-family="Helvetica,sans-Serif" font-size="10.00">swla/swla_radioStandards.h</text>
</a>
</g>
</g>
<!-- Node3&#45;&gt;Node9 -->
<g id="edge8" class="edge">
<title>Node3&#45;&gt;Node9</title>
<path fill="none" stroke="midnightblue" d="M2773.89,-177.02C2919,-177.02 3757.11,-175.07 4438,-132 4439.28,-131.92 4440.57,-131.83 4441.86,-131.75"/>
<polygon fill="midnightblue" stroke="midnightblue" points="4442.21,-135.23 4451.92,-131 4441.69,-128.25 4442.21,-135.23"/>
</g>
<!-- Node10 -->
<g id="node10" class="node">
<title>Node10</title>
<g id="a_node10"><a xlink:title=" ">
<polygon fill="white" stroke="#bfbfbf" points="4335.5,-0.5 4335.5,-19.5 4436.5,-19.5 4436.5,-0.5 4335.5,-0.5"/>
<text text-anchor="middle" x="4386" y="-7.5" font-family="Helvetica,sans-Serif" font-size="10.00">swla/swla_time.h</text>
</a>
</g>
</g>
<!-- Node3&#45;&gt;Node10 -->
<g id="edge9" class="edge">
<title>Node3&#45;&gt;Node10</title>
<path fill="none" stroke="midnightblue" d="M2773.76,-176.78C2963.84,-174.8 4335.64,-159.59 4367,-132 4395.78,-106.68 4393.45,-57.03 4389.55,-29.86"/>
<polygon fill="midnightblue" stroke="midnightblue" points="4392.96,-29.03 4387.87,-19.73 4386.06,-30.17 4392.96,-29.03"/>
</g>
<!-- Node11 -->
<g id="node11" class="node">
<title>Node11</title>
<g id="a_node11"><a xlink:title=" ">
<polygon fill="white" stroke="#bfbfbf" points="3531.5,-112.5 3531.5,-131.5 3660.5,-131.5 3660.5,-112.5 3531.5,-112.5"/>
<text text-anchor="middle" x="3596" y="-119.5" font-family="Helvetica,sans-Serif" font-size="10.00">swla/swla_time_spec.h</text>
</a>
</g>
</g>
<!-- Node3&#45;&gt;Node11 -->
<g id="edge10" class="edge">
<title>Node3&#45;&gt;Node11</title>
<path fill="none" stroke="midnightblue" d="M2773.81,-176.24C2864.24,-172.99 3218.8,-159.18 3520.87,-132.14"/>
<polygon fill="midnightblue" stroke="midnightblue" points="3521.5,-135.6 3531.14,-131.22 3520.87,-128.63 3521.5,-135.6"/>
</g>
<!-- Node12 -->
<g id="node12" class="node">
<title>Node12</title>
<g id="a_node12"><a xlink:title=" ">
<polygon fill="white" stroke="#bfbfbf" points="3717,-112.5 3717,-131.5 3811,-131.5 3811,-112.5 3717,-112.5"/>
<text text-anchor="middle" x="3764" y="-119.5" font-family="Helvetica,sans-Serif" font-size="10.00">swla/swla_oui.h</text>
</a>
</g>
</g>
<!-- Node3&#45;&gt;Node12 -->
<g id="edge11" class="edge">
<title>Node3&#45;&gt;Node12</title>
<path fill="none" stroke="midnightblue" d="M2773.83,-176.77C2877.72,-175.49 3332.43,-168.01 3703,-132 3704.26,-131.88 3705.53,-131.75 3706.81,-131.61"/>
<polygon fill="midnightblue" stroke="midnightblue" points="3707.24,-135.08 3716.77,-130.44 3706.43,-128.13 3707.24,-135.08"/>
</g>
<!-- Node13 -->
<g id="node13" class="node">
<title>Node13</title>
<g id="a_node13"><a xlink:title=" ">
<polygon fill="white" stroke="#bfbfbf" points="3829,-112.5 3829,-131.5 3957,-131.5 3957,-112.5 3829,-112.5"/>
<text text-anchor="middle" x="3893" y="-119.5" font-family="Helvetica,sans-Serif" font-size="10.00">swla/swla_delayExec.h</text>
</a>
</g>
</g>
<!-- Node3&#45;&gt;Node13 -->
<g id="edge12" class="edge">
<title>Node3&#45;&gt;Node13</title>
<path fill="none" stroke="midnightblue" d="M2773.85,-176.73C2884.27,-175.25 3392.14,-166.8 3818.87,-132.02"/>
<polygon fill="midnightblue" stroke="midnightblue" points="3819.26,-135.5 3828.94,-131.19 3818.68,-128.52 3819.26,-135.5"/>
</g>
<!-- Node14 -->
<g id="node14" class="node">
<title>Node14</title>
<g id="a_node14"><a xlink:title=" ">
<polygon fill="white" stroke="#bfbfbf" points="3975.5,-112.5 3975.5,-131.5 4094.5,-131.5 4094.5,-112.5 3975.5,-112.5"/>
<text text-anchor="middle" x="4035" y="-119.5" font-family="Helvetica,sans-Serif" font-size="10.00">swla/swla_function.h</text>
</a>
</g>
</g>
<!-- Node3&#45;&gt;Node14 -->
<g id="edge13" class="edge">
<title>Node3&#45;&gt;Node14</title>
<path fill="none" stroke="midnightblue" d="M2773.6,-176.95C2892.23,-176.5 3476.63,-172.28 3965.12,-131.98"/>
<polygon fill="midnightblue" stroke="midnightblue" points="3965.52,-135.46 3975.2,-131.14 3964.94,-128.49 3965.52,-135.46"/>
</g>
<!-- Node15 -->
<g id="node15" class="node">
<title>Node15</title>
<g id="a_node15"><a xlink:title=" ">
<polygon fill="white" stroke="#bfbfbf" points="4112.5,-112.5 4112.5,-131.5 4253.5,-131.5 4253.5,-112.5 4112.5,-112.5"/>
<text text-anchor="middle" x="4183" y="-119.5" font-family="Helvetica,sans-Serif" font-size="10.00">swl/swl_usp_cmdStatus.h</text>
</a>
</g>
</g>
<!-- Node3&#45;&gt;Node15 -->
<g id="edge14" class="edge">
<title>Node3&#45;&gt;Node15</title>
<path fill="none" stroke="midnightblue" d="M2773.5,-176.93C2899.6,-176.39 3556.04,-171.73 4102.34,-132.06"/>
<polygon fill="midnightblue" stroke="midnightblue" points="4102.67,-135.55 4112.39,-131.33 4102.16,-128.57 4102.67,-135.55"/>
</g>
<!-- Node16 -->
<g id="node16" class="node">
<title>Node16</title>
<g id="a_node16"><a xlink:title=" ">
<polygon fill="white" stroke="#bfbfbf" points="4272,-112.5 4272,-131.5 4358,-131.5 4358,-112.5 4272,-112.5"/>
<text text-anchor="middle" x="4315" y="-119.5" font-family="Helvetica,sans-Serif" font-size="10.00">swl/swl_wps.h</text>
</a>
</g>
</g>
<!-- Node3&#45;&gt;Node16 -->
<g id="edge15" class="edge">
<title>Node3&#45;&gt;Node16</title>
<path fill="none" stroke="midnightblue" d="M2773.6,-176.78C2933.41,-175.07 3934.7,-163.27 4261.98,-131.92"/>
<polygon fill="midnightblue" stroke="midnightblue" points="4262.33,-135.4 4271.93,-130.94 4261.64,-128.43 4262.33,-135.4"/>
</g>
<!-- Node17 -->
<g id="node17" class="node">
<title>Node17</title>
<g id="a_node17"><a xlink:title=" ">
<polygon fill="white" stroke="#bfbfbf" points="246,-112.5 246,-131.5 350,-131.5 350,-112.5 246,-112.5"/>
<text text-anchor="middle" x="298" y="-119.5" font-family="Helvetica,sans-Serif" font-size="10.00">swl/swl_security.h</text>
</a>
</g>
</g>
<!-- Node3&#45;&gt;Node17 -->
<g id="edge16" class="edge">
<title>Node3&#45;&gt;Node17</title>
<path fill="none" stroke="midnightblue" d="M2730.45,-170.76C2725.73,-169.63 2720.73,-168.62 2716,-168 2199.89,-100.46 897.79,-173.38 360.4,-131.97"/>
<polygon fill="midnightblue" stroke="midnightblue" points="360.44,-128.46 350.19,-131.16 359.88,-135.44 360.44,-128.46"/>
</g>
<!-- Node18 -->
<g id="node18" class="node">
<title>Node18</title>
<g id="a_node18"><a xlink:title=" ">
<polygon fill="white" stroke="#bfbfbf" points="176.5,-56.5 176.5,-75.5 259.5,-75.5 259.5,-56.5 176.5,-56.5"/>
<text text-anchor="middle" x="218" y="-63.5" font-family="Helvetica,sans-Serif" font-size="10.00">amxc/amxc.h</text>
</a>
</g>
</g>
<!-- Node3&#45;&gt;Node18 -->
<g id="edge17" class="edge">
<title>Node3&#45;&gt;Node18</title>
<path fill="none" stroke="midnightblue" d="M2730.45,-170.76C2725.73,-169.63 2720.73,-168.62 2716,-168 2647.71,-159.09 291.81,-173.7 237,-132 223.13,-121.45 218.95,-101.33 217.89,-86.25"/>
<polygon fill="midnightblue" stroke="midnightblue" points="221.38,-85.84 217.58,-75.95 214.39,-86.05 221.38,-85.84"/>
</g>
<!-- Node19 -->
<g id="node19" class="node">
<title>Node19</title>
<g id="a_node19"><a xlink:title=" ">
<polygon fill="white" stroke="#bfbfbf" points="368,-112.5 368,-131.5 452,-131.5 452,-112.5 368,-112.5"/>
<text text-anchor="middle" x="410" y="-119.5" font-family="Helvetica,sans-Serif" font-size="10.00">amxp/amxp.h</text>
</a>
</g>
</g>
<!-- Node3&#45;&gt;Node19 -->
<g id="edge18" class="edge">
<title>Node3&#45;&gt;Node19</title>
<path fill="none" stroke="midnightblue" d="M2730.45,-170.76C2725.73,-169.63 2720.73,-168.62 2716,-168 2222.36,-103.23 976.47,-178.69 462.37,-131.93"/>
<polygon fill="midnightblue" stroke="midnightblue" points="462.51,-128.43 452.23,-130.98 461.86,-135.4 462.51,-128.43"/>
</g>
<!-- Node20 -->
<g id="node20" class="node">
<title>Node20</title>
<g id="a_node20"><a xlink:title=" ">
<polygon fill="white" stroke="#bfbfbf" points="470,-112.5 470,-131.5 610,-131.5 610,-112.5 470,-112.5"/>
<text text-anchor="middle" x="540" y="-119.5" font-family="Helvetica,sans-Serif" font-size="10.00">amxd/amxd_parameter.h</text>
</a>
</g>
</g>
<!-- Node3&#45;&gt;Node20 -->
<g id="edge19" class="edge">
<title>Node3&#45;&gt;Node20</title>
<path fill="none" stroke="midnightblue" d="M2730.45,-170.77C2725.73,-169.64 2720.73,-168.62 2716,-168 2257.2,-107.52 1100.61,-161.64 620.35,-132"/>
<polygon fill="midnightblue" stroke="midnightblue" points="620.38,-128.49 610.18,-131.35 619.94,-135.48 620.38,-128.49"/>
</g>
<!-- Node21 -->
<g id="node21" class="node">
<title>Node21</title>
<g id="a_node21"><a xlink:title=" ">
<polygon fill="white" stroke="#bfbfbf" points="628.5,-112.5 628.5,-131.5 747.5,-131.5 747.5,-112.5 628.5,-112.5"/>
<text text-anchor="middle" x="688" y="-119.5" font-family="Helvetica,sans-Serif" font-size="10.00">amxd/amxd_action.h</text>
</a>
</g>
</g>
<!-- Node3&#45;&gt;Node21 -->
<g id="edge20" class="edge">
<title>Node3&#45;&gt;Node21</title>
<path fill="none" stroke="midnightblue" d="M2730.45,-170.77C2725.73,-169.64 2720.73,-168.63 2716,-168 2287.41,-111.24 1206.92,-163.82 757.83,-132.03"/>
<polygon fill="midnightblue" stroke="midnightblue" points="757.89,-128.52 747.66,-131.29 757.38,-135.5 757.89,-128.52"/>
</g>
<!-- Node22 -->
<g id="node22" class="node">
<title>Node22</title>
<g id="a_node22"><a xlink:title=" ">
<polygon fill="white" stroke="#bfbfbf" points="765.5,-112.5 765.5,-131.5 940.5,-131.5 940.5,-112.5 765.5,-112.5"/>
<text text-anchor="middle" x="853" y="-119.5" font-family="Helvetica,sans-Serif" font-size="10.00">amxd/amxd_object_parameter.h</text>
</a>
</g>
</g>
<!-- Node3&#45;&gt;Node22 -->
<g id="edge21" class="edge">
<title>Node3&#45;&gt;Node22</title>
<path fill="none" stroke="midnightblue" d="M2730.45,-170.78C2725.73,-169.65 2720.73,-168.63 2716,-168 2330.15,-116.5 1358.21,-153.52 950.86,-131.98"/>
<polygon fill="midnightblue" stroke="midnightblue" points="950.92,-128.48 940.75,-131.43 950.54,-135.47 950.92,-128.48"/>
</g>
<!-- Node23 -->
<g id="node23" class="node">
<title>Node23</title>
<g id="a_node23"><a xlink:title=" ">
<polygon fill="white" stroke="#bfbfbf" points="959,-112.5 959,-131.5 1111,-131.5 1111,-112.5 959,-112.5"/>
<text text-anchor="middle" x="1035" y="-119.5" font-family="Helvetica,sans-Serif" font-size="10.00">amxd/amxd_object_event.h</text>
</a>
</g>
</g>
<!-- Node3&#45;&gt;Node23 -->
<g id="edge22" class="edge">
<title>Node3&#45;&gt;Node23</title>
<path fill="none" stroke="midnightblue" d="M2730.45,-170.79C2725.73,-169.66 2720.72,-168.64 2716,-168 2367.67,-121.13 1490.5,-154.07 1121.66,-132.03"/>
<polygon fill="midnightblue" stroke="midnightblue" points="1121.63,-128.52 1111.43,-131.39 1121.19,-135.51 1121.63,-128.52"/>
</g>
<!-- Node24 -->
<g id="node24" class="node">
<title>Node24</title>
<g id="a_node24"><a xlink:title=" ">
<polygon fill="white" stroke="#bfbfbf" points="1129.5,-112.5 1129.5,-131.5 1258.5,-131.5 1258.5,-112.5 1129.5,-112.5"/>
<text text-anchor="middle" x="1194" y="-119.5" font-family="Helvetica,sans-Serif" font-size="10.00">amxd/amxd_function.h</text>
</a>
</g>
</g>
<!-- Node3&#45;&gt;Node24 -->
<g id="edge23" class="edge">
<title>Node3&#45;&gt;Node24</title>
<path fill="none" stroke="midnightblue" d="M2730.45,-170.79C2725.73,-169.66 2720.72,-168.64 2716,-168 2400.1,-125.12 1604.75,-155.11 1269.13,-132.06"/>
<polygon fill="midnightblue" stroke="midnightblue" points="1269.07,-128.55 1258.85,-131.33 1268.57,-135.53 1269.07,-128.55"/>
</g>
<!-- Node25 -->
<g id="node25" class="node">
<title>Node25</title>
<g id="a_node25"><a xlink:title=" ">
<polygon fill="white" stroke="#bfbfbf" points="1276.5,-112.5 1276.5,-131.5 1445.5,-131.5 1445.5,-112.5 1276.5,-112.5"/>
<text text-anchor="middle" x="1361" y="-119.5" font-family="Helvetica,sans-Serif" font-size="10.00">amxd/amxd_object_hierarchy.h</text>
</a>
</g>
</g>
<!-- Node3&#45;&gt;Node25 -->
<g id="edge24" class="edge">
<title>Node3&#45;&gt;Node25</title>
<path fill="none" stroke="midnightblue" d="M2730.45,-170.81C2725.72,-169.68 2720.72,-168.65 2716,-168 2163.51,-91.97 2015.82,-166.13 1455.99,-132.08"/>
<polygon fill="midnightblue" stroke="midnightblue" points="1455.82,-128.56 1445.63,-131.44 1455.39,-135.55 1455.82,-128.56"/>
</g>
<!-- Node26 -->
<g id="node26" class="node">
<title>Node26</title>
<g id="a_node26"><a xlink:title=" ">
<polygon fill="white" stroke="#bfbfbf" points="1463.5,-112.5 1463.5,-131.5 1582.5,-131.5 1582.5,-112.5 1463.5,-112.5"/>
<text text-anchor="middle" x="1523" y="-119.5" font-family="Helvetica,sans-Serif" font-size="10.00">amxd/amxd_object.h</text>
</a>
</g>
</g>
<!-- Node3&#45;&gt;Node26 -->
<g id="edge25" class="edge">
<title>Node3&#45;&gt;Node26</title>
<path fill="none" stroke="midnightblue" d="M2730.44,-170.82C2725.72,-169.69 2720.72,-168.66 2716,-168 2223.8,-99.4 2091.33,-171.9 1592.64,-132.05"/>
<polygon fill="midnightblue" stroke="midnightblue" points="1592.92,-128.56 1582.67,-131.24 1592.35,-135.54 1592.92,-128.56"/>
</g>
<!-- Node27 -->
<g id="node27" class="node">
<title>Node27</title>
<g id="a_node27"><a xlink:title=" ">
<polygon fill="white" stroke="#bfbfbf" points="1600.5,-112.5 1600.5,-131.5 1705.5,-131.5 1705.5,-112.5 1600.5,-112.5"/>
<text text-anchor="middle" x="1653" y="-119.5" font-family="Helvetica,sans-Serif" font-size="10.00">amxd/amxd_dm.h</text>
</a>
</g>
</g>
<!-- Node3&#45;&gt;Node27 -->
<g id="edge26" class="edge">
<title>Node3&#45;&gt;Node27</title>
<path fill="none" stroke="midnightblue" d="M2730.44,-170.83C2725.72,-169.7 2720.72,-168.67 2716,-168 2278.54,-106.15 2160.16,-171.04 1715.94,-131.96"/>
<polygon fill="midnightblue" stroke="midnightblue" points="1715.99,-128.45 1705.72,-131.05 1715.37,-135.42 1715.99,-128.45"/>
</g>
<!-- Node28 -->
<g id="node28" class="node">
<title>Node28</title>
<g id="a_node28"><a xlink:title=" ">
<polygon fill="white" stroke="#bfbfbf" points="1724,-112.5 1724,-131.5 1868,-131.5 1868,-112.5 1724,-112.5"/>
<text text-anchor="middle" x="1796" y="-119.5" font-family="Helvetica,sans-Serif" font-size="10.00">amxd/amxd_transaction.h</text>
</a>
</g>
</g>
<!-- Node3&#45;&gt;Node28 -->
<g id="edge27" class="edge">
<title>Node3&#45;&gt;Node28</title>
<path fill="none" stroke="midnightblue" d="M2730.44,-170.86C2725.72,-169.72 2720.72,-168.68 2716,-168 2349.87,-114.94 2250.87,-159.82 1878.37,-132.05"/>
<polygon fill="midnightblue" stroke="midnightblue" points="1878.64,-128.56 1868.4,-131.29 1878.11,-135.54 1878.64,-128.56"/>
</g>
<!-- Node29 -->
<g id="node29" class="node">
<title>Node29</title>
<g id="a_node29"><a xlink:title=" ">
<polygon fill="white" stroke="#bfbfbf" points="1886,-112.5 1886,-131.5 2002,-131.5 2002,-112.5 1886,-112.5"/>
<text text-anchor="middle" x="1944" y="-119.5" font-family="Helvetica,sans-Serif" font-size="10.00">amxb/amxb_types.h</text>
</a>
</g>
</g>
<!-- Node3&#45;&gt;Node29 -->
<g id="edge28" class="edge">
<title>Node3&#45;&gt;Node29</title>
<path fill="none" stroke="midnightblue" d="M2730.43,-170.89C2725.71,-169.75 2720.72,-168.7 2716,-168 2409.02,-122.23 2325.2,-160.08 2012.34,-132.04"/>
<polygon fill="midnightblue" stroke="midnightblue" points="2012.35,-128.52 2002.07,-131.1 2011.71,-135.49 2012.35,-128.52"/>
</g>
<!-- Node30 -->
<g id="node30" class="node">
<title>Node30</title>
<g id="a_node30"><a xlink:title=" ">
<polygon fill="white" stroke="#bfbfbf" points="2020,-112.5 2020,-131.5 2156,-131.5 2156,-112.5 2020,-112.5"/>
<text text-anchor="middle" x="2088" y="-119.5" font-family="Helvetica,sans-Serif" font-size="10.00">amxb/amxb_operators.h</text>
</a>
</g>
</g>
<!-- Node3&#45;&gt;Node30 -->
<g id="edge29" class="edge">
<title>Node3&#45;&gt;Node30</title>
<path fill="none" stroke="midnightblue" d="M2730.43,-170.94C2725.71,-169.8 2720.71,-168.74 2716,-168 2476.85,-130.6 2411.19,-153.6 2166.29,-132.06"/>
<polygon fill="midnightblue" stroke="midnightblue" points="2166.27,-128.55 2156,-131.14 2165.65,-135.52 2166.27,-128.55"/>
</g>
<!-- Node31 -->
<g id="node31" class="node">
<title>Node31</title>
<g id="a_node31"><a xlink:title=" ">
<polygon fill="white" stroke="#bfbfbf" points="2174,-112.5 2174,-131.5 2286,-131.5 2286,-112.5 2174,-112.5"/>
<text text-anchor="middle" x="2230" y="-119.5" font-family="Helvetica,sans-Serif" font-size="10.00">amxb/amxb_error.h</text>
</a>
</g>
</g>
<!-- Node3&#45;&gt;Node31 -->
<g id="edge30" class="edge">
<title>Node3&#45;&gt;Node31</title>
<path fill="none" stroke="midnightblue" d="M2730.42,-171.01C2725.69,-169.87 2720.7,-168.78 2716,-168 2534.02,-137.67 2483.4,-152.35 2296.51,-132.11"/>
<polygon fill="midnightblue" stroke="midnightblue" points="2296.67,-128.6 2286.35,-130.99 2295.9,-135.56 2296.67,-128.6"/>
</g>
<!-- Node32 -->
<g id="node32" class="node">
<title>Node32</title>
<g id="a_node32"><a xlink:title=" ">
<polygon fill="white" stroke="#bfbfbf" points="2304.5,-112.5 2304.5,-131.5 2387.5,-131.5 2387.5,-112.5 2304.5,-112.5"/>
<text text-anchor="middle" x="2346" y="-119.5" font-family="Helvetica,sans-Serif" font-size="10.00">amxo/amxo.h</text>
</a>
</g>
</g>
<!-- Node3&#45;&gt;Node32 -->
<g id="edge31" class="edge">
<title>Node3&#45;&gt;Node32</title>
<path fill="none" stroke="midnightblue" d="M2730.4,-171.1C2725.68,-169.96 2720.69,-168.85 2716,-168 2578.32,-143.16 2539.35,-152.25 2397.64,-132.15"/>
<polygon fill="midnightblue" stroke="midnightblue" points="2398.11,-128.68 2387.71,-130.72 2397.11,-135.61 2398.11,-128.68"/>
</g>
<!-- Node33 -->
<g id="node33" class="node">
<title>Node33</title>
<g id="a_node33"><a xlink:title=" ">
<polygon fill="white" stroke="#bfbfbf" points="2405.5,-112.5 2405.5,-131.5 2520.5,-131.5 2520.5,-112.5 2405.5,-112.5"/>
<text text-anchor="middle" x="2463" y="-119.5" font-family="Helvetica,sans-Serif" font-size="10.00">amxo/amxo_types.h</text>
</a>
</g>
</g>
<!-- Node3&#45;&gt;Node33 -->
<g id="edge32" class="edge">
<title>Node3&#45;&gt;Node33</title>
<path fill="none" stroke="midnightblue" d="M2730.35,-171.33C2725.64,-170.17 2720.66,-169 2716,-168 2652.19,-154.37 2578.72,-141.62 2527.45,-133.2"/>
<polygon fill="midnightblue" stroke="midnightblue" points="2527.93,-129.74 2517.5,-131.58 2526.8,-136.64 2527.93,-129.74"/>
</g>
<!-- Node34 -->
<g id="node34" class="node">
<title>Node34</title>
<g id="a_node34"><a xlink:href="wld__types_8h.html" target="_top" xlink:title=" ">
<polygon fill="white" stroke="red" points="3442.5,-56.5 3442.5,-75.5 3517.5,-75.5 3517.5,-56.5 3442.5,-56.5"/>
<text text-anchor="middle" x="3480" y="-63.5" font-family="Helvetica,sans-Serif" font-size="10.00">wld_types.h</text>
</a>
</g>
</g>
<!-- Node3&#45;&gt;Node34 -->
<g id="edge33" class="edge">
<title>Node3&#45;&gt;Node34</title>
<path fill="none" stroke="midnightblue" d="M2773.85,-176.77C2910.07,-175.24 3638.09,-165.51 3670,-132 3714.08,-85.71 3597.57,-72.38 3527.88,-68.55"/>
<polygon fill="midnightblue" stroke="midnightblue" points="3527.71,-65.04 3517.55,-68.03 3527.36,-72.03 3527.71,-65.04"/>
</g>
<!-- Node3&#45;&gt;Node37 -->
<g id="edge36" class="edge">
<title>Node3&#45;&gt;Node37</title>
<path fill="none" stroke="midnightblue" d="M2773.64,-176.79C2926.27,-175.22 3856.64,-164.61 4613,-132 4637.58,-130.94 4664.49,-129.38 4688.38,-127.86"/>
<polygon fill="midnightblue" stroke="midnightblue" points="4688.66,-131.35 4698.41,-127.21 4688.21,-124.36 4688.66,-131.35"/>
</g>
<!-- Node39 -->
<g id="node36" class="node">
<title>Node39</title>
<g id="a_node36"><a xlink:href="wld__bgdfs_8h.html" target="_top" xlink:title=" ">
<polygon fill="white" stroke="black" points="2813.5,-112.5 2813.5,-131.5 2888.5,-131.5 2888.5,-112.5 2813.5,-112.5"/>
<text text-anchor="middle" x="2851" y="-119.5" font-family="Helvetica,sans-Serif" font-size="10.00">wld_bgdfs.h</text>
</a>
</g>
</g>
<!-- Node3&#45;&gt;Node39 -->
<g id="edge39" class="edge">
<title>Node3&#45;&gt;Node39</title>
<path fill="none" stroke="midnightblue" d="M2767.91,-168.32C2783.64,-159.74 2807.94,-146.49 2826.21,-136.52"/>
<polygon fill="midnightblue" stroke="midnightblue" points="2828.03,-139.52 2835.13,-131.65 2824.68,-133.37 2828.03,-139.52"/>
</g>
<!-- Node40 -->
<g id="node37" class="node">
<title>Node40</title>
<g id="a_node37"><a xlink:href="wld__rad__delayMgr_8h.html" target="_top" xlink:title=" ">
<polygon fill="white" stroke="black" points="2577,-112.5 2577,-131.5 2691,-131.5 2691,-112.5 2577,-112.5"/>
<text text-anchor="middle" x="2634" y="-119.5" font-family="Helvetica,sans-Serif" font-size="10.00">wld_rad_delayMgr.h</text>
</a>
</g>
</g>
<!-- Node3&#45;&gt;Node40 -->
<g id="edge41" class="edge">
<title>Node3&#45;&gt;Node40</title>
<path fill="none" stroke="midnightblue" d="M2730.47,-169.38C2709.53,-160.76 2678.17,-146.56 2656.83,-136.14"/>
<polygon fill="midnightblue" stroke="midnightblue" points="2658.32,-132.97 2647.8,-131.65 2655.2,-139.24 2658.32,-132.97"/>
</g>
<!-- Node41 -->
<g id="node38" class="node">
<title>Node41</title>
<g id="a_node38"><a xlink:href="wld__fsm_8h.html" target="_top" xlink:title=" ">
<polygon fill="white" stroke="black" points="3100.5,-112.5 3100.5,-131.5 3167.5,-131.5 3167.5,-112.5 3100.5,-112.5"/>
<text text-anchor="middle" x="3134" y="-119.5" font-family="Helvetica,sans-Serif" font-size="10.00">wld_fsm.h</text>
</a>
</g>
</g>
<!-- Node3&#45;&gt;Node41 -->
<g id="edge43" class="edge">
<title>Node3&#45;&gt;Node41</title>
<path fill="none" stroke="midnightblue" d="M2773.5,-174.71C2825.81,-169.01 2964.06,-153.25 3090.04,-132.05"/>
<polygon fill="midnightblue" stroke="midnightblue" points="3090.97,-135.44 3100.24,-130.31 3089.8,-128.54 3090.97,-135.44"/>
</g>
<!-- Node42 -->
<g id="node39" class="node">
<title>Node42</title>
<g id="a_node39"><a xlink:href="wld__sensing_8h.html" target="_top" xlink:title=" ">
<polygon fill="white" stroke="black" points="2709,-112.5 2709,-131.5 2795,-131.5 2795,-112.5 2709,-112.5"/>
<text text-anchor="middle" x="2752" y="-119.5" font-family="Helvetica,sans-Serif" font-size="10.00">wld_sensing.h</text>
</a>
</g>
</g>
<!-- Node3&#45;&gt;Node42 -->
<g id="edge45" class="edge">
<title>Node3&#45;&gt;Node42</title>
<path fill="none" stroke="midnightblue" d="M2746.83,-168.08C2745.32,-160.93 2744.89,-150.64 2745.54,-141.69"/>
<polygon fill="midnightblue" stroke="midnightblue" points="2749.02,-142.13 2746.87,-131.75 2742.08,-141.2 2749.02,-142.13"/>
</g>
<!-- Node43 -->
<g id="node40" class="node">
<title>Node43</title>
<g id="a_node40"><a xlink:href="wld__mld_8h.html" target="_top" xlink:title=" ">
<polygon fill="white" stroke="black" points="3446.5,-112.5 3446.5,-131.5 3513.5,-131.5 3513.5,-112.5 3446.5,-112.5"/>
<text text-anchor="middle" x="3480" y="-119.5" font-family="Helvetica,sans-Serif" font-size="10.00">wld_mld.h</text>
</a>
</g>
</g>
<!-- Node3&#45;&gt;Node43 -->
<g id="edge47" class="edge">
<title>Node3&#45;&gt;Node43</title>
<path fill="none" stroke="midnightblue" d="M2773.71,-176.68C2857.69,-175.23 3169.46,-167.69 3436.02,-131.92"/>
<polygon fill="midnightblue" stroke="midnightblue" points="3436.84,-135.34 3446.28,-130.53 3435.9,-128.4 3436.84,-135.34"/>
</g>
<!-- Node44 -->
<g id="node41" class="node">
<title>Node44</title>
<g id="a_node41"><a xlink:href="wld__autoCommitRadData_8h.html" target="_top" xlink:title=" ">
<polygon fill="white" stroke="black" points="2906,-112.5 2906,-131.5 3082,-131.5 3082,-112.5 2906,-112.5"/>
<text text-anchor="middle" x="2994" y="-119.5" font-family="Helvetica,sans-Serif" font-size="10.00">Utils/wld_autoCommitRadData.h</text>
</a>
</g>
</g>
<!-- Node3&#45;&gt;Node44 -->
<g id="edge49" class="edge">
<title>Node3&#45;&gt;Node44</title>
<path fill="none" stroke="midnightblue" d="M2773.9,-172.11C2812.52,-163.5 2893.55,-145.42 2945.78,-133.76"/>
<polygon fill="midnightblue" stroke="midnightblue" points="2946.83,-137.11 2955.82,-131.52 2945.3,-130.28 2946.83,-137.11"/>
</g>
<!-- Node75 -->
<g id="node42" class="node">
<title>Node75</title>
<g id="a_node42"><a xlink:href="wld__extMod_8h.html" target="_top" xlink:title=" ">
<polygon fill="white" stroke="black" points="66.5,-112.5 66.5,-131.5 151.5,-131.5 151.5,-112.5 66.5,-112.5"/>
<text text-anchor="middle" x="109" y="-119.5" font-family="Helvetica,sans-Serif" font-size="10.00">wld_extMod.h</text>
</a>
</g>
</g>
<!-- Node3&#45;&gt;Node75 -->
<g id="edge50" class="edge">
<title>Node3&#45;&gt;Node75</title>
<path fill="none" stroke="midnightblue" d="M2730.45,-170.76C2725.73,-169.63 2720.73,-168.62 2716,-168 2154.03,-94.79 730.66,-180.32 166,-132 164.53,-131.87 163.05,-131.73 161.55,-131.58"/>
<polygon fill="midnightblue" stroke="midnightblue" points="161.9,-128.1 151.56,-130.4 161.08,-135.05 161.9,-128.1"/>
</g>
<!-- Node34&#45;&gt;Node5 -->
<g id="edge34" class="edge">
<title>Node34&#45;&gt;Node5</title>
<path fill="none" stroke="midnightblue" d="M3442.35,-62.82C3291.86,-54.09 2734.5,-21.76 2585.71,-13.13"/>
<polygon fill="midnightblue" stroke="midnightblue" points="2585.9,-9.63 2575.72,-12.55 2585.5,-16.62 2585.9,-9.63"/>
</g>
<!-- Node34&#45;&gt;Node10 -->
<g id="edge35" class="edge">
<title>Node34&#45;&gt;Node10</title>
<path fill="none" stroke="midnightblue" d="M3517.78,-62.75C3658.32,-54.37 4151.8,-24.96 4325.2,-14.62"/>
<polygon fill="midnightblue" stroke="midnightblue" points="4325.65,-18.1 4335.42,-14.01 4325.23,-11.12 4325.65,-18.1"/>
</g>
<!-- Node37&#45;&gt;Node4 -->
<g id="edge37" class="edge">
<title>Node37&#45;&gt;Node4</title>
<path fill="none" stroke="midnightblue" d="M4744.99,-112.32C4732.47,-103.98 4713.32,-91.21 4698.53,-81.35"/>
<polygon fill="midnightblue" stroke="midnightblue" points="4700.24,-78.29 4689.98,-75.65 4696.36,-84.11 4700.24,-78.29"/>
</g>
<!-- Node37&#45;&gt;Node10 -->
<g id="edge38" class="edge">
<title>Node37&#45;&gt;Node10</title>
<path fill="none" stroke="midnightblue" d="M4755.16,-112.09C4750.06,-97.65 4737.87,-69.42 4717,-56 4673.46,-27.99 4529.63,-17.16 4446.6,-13.17"/>
<polygon fill="midnightblue" stroke="midnightblue" points="4446.69,-9.67 4436.54,-12.71 4446.36,-16.67 4446.69,-9.67"/>
</g>
<!-- Node39&#45;&gt;Node34 -->
<g id="edge40" class="edge">
<title>Node39&#45;&gt;Node34</title>
<path fill="none" stroke="midnightblue" d="M2888.6,-113.27C2891.43,-112.81 2894.26,-112.37 2897,-112 3094.71,-85.12 3332.48,-72.99 3432.26,-68.8"/>
<polygon fill="midnightblue" stroke="midnightblue" points="3432.48,-72.3 3442.33,-68.39 3432.19,-65.3 3432.48,-72.3"/>
</g>
<!-- Node40&#45;&gt;Node3 -->
<g id="edge42" class="edge">
<title>Node40&#45;&gt;Node3</title>
<path fill="none" stroke="midnightblue" d="M2658.02,-131.65C2678.9,-140.35 2708.67,-153.85 2729.18,-163.86"/>
<polygon fill="midnightblue" stroke="midnightblue" points="2727.64,-167.01 2738.16,-168.32 2730.76,-160.74 2727.64,-167.01"/>
</g>
<!-- Node41&#45;&gt;Node34 -->
<g id="edge44" class="edge">
<title>Node41&#45;&gt;Node34</title>
<path fill="none" stroke="midnightblue" d="M3167.76,-113.74C3170.88,-113.13 3174,-112.54 3177,-112 3266.82,-95.94 3372.35,-81.2 3432.18,-73.22"/>
<polygon fill="midnightblue" stroke="midnightblue" points="3432.64,-76.69 3442.09,-71.9 3431.72,-69.75 3432.64,-76.69"/>
</g>
<!-- Node42&#45;&gt;Node3 -->
<g id="edge46" class="edge">
<title>Node42&#45;&gt;Node3</title>
<path fill="none" stroke="midnightblue" d="M2757.13,-131.75C2758.66,-138.86 2759.1,-149.14 2758.47,-158.1"/>
<polygon fill="midnightblue" stroke="midnightblue" points="2754.99,-157.71 2757.17,-168.08 2761.93,-158.62 2754.99,-157.71"/>
</g>
<!-- Node43&#45;&gt;Node34 -->
<g id="edge48" class="edge">
<title>Node43&#45;&gt;Node34</title>
<path fill="none" stroke="midnightblue" d="M3480,-112.08C3480,-105.01 3480,-94.86 3480,-85.99"/>
<polygon fill="midnightblue" stroke="midnightblue" points="3483.5,-85.75 3480,-75.75 3476.5,-85.75 3483.5,-85.75"/>
</g>
<!-- Node75&#45;&gt;Node6 -->
<g id="edge52" class="edge">
<title>Node75&#45;&gt;Node6</title>
<path fill="none" stroke="midnightblue" d="M108.01,-112.08C107.21,-104.93 106.07,-94.64 105.08,-85.69"/>
<polygon fill="midnightblue" stroke="midnightblue" points="108.56,-85.3 103.97,-75.75 101.6,-86.08 108.56,-85.3"/>
</g>
<!-- Node75&#45;&gt;Node18 -->
<g id="edge51" class="edge">
<title>Node75&#45;&gt;Node18</title>
<path fill="none" stroke="midnightblue" d="M126.51,-112.32C144.07,-103.62 171.33,-90.12 191.53,-80.11"/>
<polygon fill="midnightblue" stroke="midnightblue" points="193.12,-83.23 200.53,-75.65 190.02,-76.96 193.12,-83.23"/>
</g>
<!-- Node77&#45;&gt;Node2 -->
<g id="edge61" class="edge">
<title>Node77&#45;&gt;Node2</title>
<path fill="none" stroke="midnightblue" d="M3985.64,-281.75C3988.81,-281.14 3991.96,-280.56 3995,-280 4068.31,-266.61 4153.29,-252.41 4206.84,-243.63"/>
<polygon fill="midnightblue" stroke="midnightblue" points="4207.49,-247.07 4216.8,-242 4206.36,-240.16 4207.49,-247.07"/>
</g>
<!-- Node77&#45;&gt;Node3 -->
<g id="edge60" class="edge">
<title>Node77&#45;&gt;Node3</title>
<path fill="none" stroke="midnightblue" d="M3912.19,-285.62C3732.7,-269.12 2951.06,-197.29 2783.64,-181.91"/>
<polygon fill="midnightblue" stroke="midnightblue" points="2783.79,-178.41 2773.51,-180.98 2783.15,-185.38 2783.79,-178.41"/>
</g>
<!-- Node77&#45;&gt;Node75 -->
<g id="edge66" class="edge">
<title>Node77&#45;&gt;Node75</title>
<path fill="none" stroke="midnightblue" d="M3912.35,-288.02C3571.52,-278.86 950.95,-206.67 169,-132 166.61,-131.77 164.17,-131.51 161.71,-131.23"/>
<polygon fill="midnightblue" stroke="midnightblue" points="161.9,-127.73 151.54,-129.96 161.03,-134.67 161.9,-127.73"/>
</g>
<!-- Node78 -->
<g id="node45" class="node">
<title>Node78</title>
<g id="a_node45"><a xlink:title=" ">
<polygon fill="white" stroke="#bfbfbf" points="3863,-224.5 3863,-243.5 3973,-243.5 3973,-224.5 3863,-224.5"/>
<text text-anchor="middle" x="3918" y="-231.5" font-family="Helvetica,sans-Serif" font-size="10.00">swla/swla_trilean.h</text>
</a>
</g>
</g>
<!-- Node77&#45;&gt;Node78 -->
<g id="edge59" class="edge">
<title>Node77&#45;&gt;Node78</title>
<path fill="none" stroke="midnightblue" d="M3943.88,-280.08C3939.59,-272.61 3933.34,-261.72 3928.06,-252.52"/>
<polygon fill="midnightblue" stroke="midnightblue" points="3931.04,-250.68 3923.02,-243.75 3924.97,-254.17 3931.04,-250.68"/>
</g>
<!-- Node79 -->
<g id="node46" class="node">
<title>Node79</title>
<g id="a_node46"><a xlink:href="wld__radioOperatingStandards_8h.html" target="_top" xlink:title=" ">
<polygon fill="white" stroke="black" points="3991,-224.5 3991,-243.5 4161,-243.5 4161,-224.5 3991,-224.5"/>
<text text-anchor="middle" x="4076" y="-231.5" font-family="Helvetica,sans-Serif" font-size="10.00">wld_radioOperatingStandards.h</text>
</a>
</g>
</g>
<!-- Node77&#45;&gt;Node79 -->
<g id="edge62" class="edge">
<title>Node77&#45;&gt;Node79</title>
<path fill="none" stroke="midnightblue" d="M3969.12,-280.44C3990.02,-271.56 4022.93,-257.56 4046.72,-247.45"/>
<polygon fill="midnightblue" stroke="midnightblue" points="4048.14,-250.65 4055.97,-243.52 4045.4,-244.21 4048.14,-250.65"/>
</g>
<!-- Node80 -->
<g id="node47" class="node">
<title>Node80</title>
<g id="a_node47"><a xlink:href="wld__rad__macCfg_8h.html" target="_top" xlink:title=" ">
<polygon fill="white" stroke="red" points="4412.5,-168.5 4412.5,-187.5 4519.5,-187.5 4519.5,-168.5 4412.5,-168.5"/>
<text text-anchor="middle" x="4466" y="-175.5" font-family="Helvetica,sans-Serif" font-size="10.00">wld_rad_macCfg.h</text>
</a>
</g>
</g>
<!-- Node77&#45;&gt;Node80 -->
<g id="edge67" class="edge">
<title>Node77&#45;&gt;Node80</title>
<path fill="none" stroke="midnightblue" d="M3985.66,-281.82C4046.21,-269.91 4161.33,-247.09 4170,-244 4187.98,-237.59 4189.94,-230.16 4208,-224 4272.28,-202.08 4349.39,-190.42 4402.47,-184.51"/>
<polygon fill="midnightblue" stroke="midnightblue" points="4402.85,-187.99 4412.42,-183.44 4402.1,-181.03 4402.85,-187.99"/>
</g>
<!-- Node79&#45;&gt;Node3 -->
<g id="edge65" class="edge">
<title>Node79&#45;&gt;Node3</title>
<path fill="none" stroke="midnightblue" d="M3990.96,-224.63C3987.94,-224.41 3984.94,-224.19 3982,-224 3506.13,-192.54 2925.12,-181.73 2783.99,-179.48"/>
<polygon fill="midnightblue" stroke="midnightblue" points="2783.92,-175.98 2773.87,-179.32 2783.81,-182.98 2783.92,-175.98"/>
</g>
<!-- Node79&#45;&gt;Node4 -->
<g id="edge63" class="edge">
<title>Node79&#45;&gt;Node4</title>
<path fill="none" stroke="midnightblue" d="M4161.07,-226.42C4282.55,-216.74 4494.86,-198.66 4529,-188 4577.99,-172.7 4591.6,-166.06 4630,-132 4645.41,-118.34 4658.7,-98.77 4667.17,-84.68"/>
<polygon fill="midnightblue" stroke="midnightblue" points="4670.25,-86.34 4672.24,-75.94 4664.2,-82.83 4670.25,-86.34"/>
</g>
<!-- Node79&#45;&gt;Node9 -->
<g id="edge64" class="edge">
<title>Node79&#45;&gt;Node9</title>
<path fill="none" stroke="midnightblue" d="M4111.09,-224.46C4192.28,-204.7 4392.99,-155.86 4483.03,-133.94"/>
<polygon fill="midnightblue" stroke="midnightblue" points="4484.04,-137.3 4492.93,-131.53 4482.39,-130.5 4484.04,-137.3"/>
</g>
<!-- Node80&#45;&gt;Node34 -->
<g id="edge68" class="edge">
<title>Node80&#45;&gt;Node34</title>
<path fill="none" stroke="midnightblue" d="M4519.63,-170.93C4573.76,-162.81 4645.1,-145.4 4613,-112 4574.85,-72.31 3738.07,-67.62 3527.67,-67.07"/>
<polygon fill="midnightblue" stroke="midnightblue" points="3527.57,-63.57 3517.56,-67.05 3527.55,-70.57 3527.57,-63.57"/>
</g>
<!-- Node83&#45;&gt;Node3 -->
<g id="edge70" class="edge">
<title>Node83&#45;&gt;Node3</title>
<path fill="none" stroke="midnightblue" d="M3067.45,-280.46C3005.2,-260.44 2850.08,-210.55 2783.35,-189.08"/>
<polygon fill="midnightblue" stroke="midnightblue" points="2784.38,-185.74 2773.79,-186.01 2782.24,-192.4 2784.38,-185.74"/>
</g>
<!-- Node84&#45;&gt;Node2 -->
<g id="edge74" class="edge">
<title>Node84&#45;&gt;Node2</title>
<path fill="none" stroke="midnightblue" d="M4451.03,-280.44C4411.68,-271.08 4348.51,-256.06 4305.69,-245.87"/>
<polygon fill="midnightblue" stroke="midnightblue" points="4306.34,-242.43 4295.8,-243.52 4304.72,-249.24 4306.34,-242.43"/>
</g>
<!-- Node84&#45;&gt;Node37 -->
<g id="edge73" class="edge">
<title>Node84&#45;&gt;Node37</title>
<path fill="none" stroke="midnightblue" d="M4513.08,-280.47C4555.14,-265.91 4639.38,-233.37 4700,-188 4718.28,-174.32 4735.16,-154.18 4745.95,-139.95"/>
<polygon fill="midnightblue" stroke="midnightblue" points="4749,-141.7 4752.1,-131.58 4743.36,-137.56 4749,-141.7"/>
</g>
<!-- Node85 -->
<g id="node50" class="node">
<title>Node85</title>
<g id="a_node50"><a xlink:href="wld__chaninfo_8h.html" target="_top" xlink:title=" ">
<polygon fill="white" stroke="black" points="4743,-224.5 4743,-243.5 4833,-243.5 4833,-224.5 4743,-224.5"/>
<text text-anchor="middle" x="4788" y="-231.5" font-family="Helvetica,sans-Serif" font-size="10.00">wld_chaninfo.h</text>
</a>
</g>
</g>
<!-- Node84&#45;&gt;Node85 -->
<g id="edge72" class="edge">
<title>Node84&#45;&gt;Node85</title>
<path fill="none" stroke="midnightblue" d="M4534.69,-280.44C4588.65,-270.76 4676.36,-255.03 4733.11,-244.85"/>
<polygon fill="midnightblue" stroke="midnightblue" points="4733.76,-248.29 4742.99,-243.08 4732.53,-241.4 4733.76,-248.29"/>
</g>
</g>
</svg>
