<?xml version="1.0" encoding="UTF-8" standalone="no"?>
<!DOCTYPE svg PUBLIC "-//W3C//DTD SVG 1.1//EN"
 "http://www.w3.org/Graphics/SVG/1.1/DTD/svg11.dtd">
<!-- Generated by graphviz version 2.43.0 (0)
 -->
<!-- Title: wld_wpaCtrlInterface_checkConnectionPath Pages: 1 -->
<svg width="938pt" height="302pt"
 viewBox="0.00 0.00 938.00 302.00" xmlns="http://www.w3.org/2000/svg" xmlns:xlink="http://www.w3.org/1999/xlink">
<g id="graph0" class="graph" transform="scale(1 1) rotate(0) translate(4 298)">
<title>wld_wpaCtrlInterface_checkConnectionPath</title>
<polygon fill="white" stroke="transparent" points="-4,4 -4,-298 934,-298 934,4 -4,4"/>
<!-- Node1 -->
<g id="node1" class="node">
<title>Node1</title>
<g id="a_node1"><a xlink:title=" ">
<polygon fill="#bfbfbf" stroke="black" points="804,-95.5 804,-125.5 930,-125.5 930,-95.5 804,-95.5"/>
<text text-anchor="start" x="812" y="-113.5" font-family="Helvetica,sans-Serif" font-size="10.00">wld_wpaCtrlInterface</text>
<text text-anchor="middle" x="867" y="-102.5" font-family="Helvetica,sans-Serif" font-size="10.00">_checkConnectionPath</text>
</a>
</g>
</g>
<!-- Node2 -->
<g id="node2" class="node">
<title>Node2</title>
<g id="a_node2"><a xlink:href="wld__wpaCtrlInterface_8c.html#ae0a540ffcdf6308c6a9d4b25218f1129" target="_top" xlink:title="send formatted command to wpa_ctrl server over established or temporary connection and check the rece...">
<polygon fill="white" stroke="black" points="591,-95.5 591,-125.5 768,-125.5 768,-95.5 591,-95.5"/>
<text text-anchor="start" x="599" y="-113.5" font-family="Helvetica,sans-Serif" font-size="10.00">wld_wpaCtrl_sendCmdFmtCheck</text>
<text text-anchor="middle" x="679.5" y="-102.5" font-family="Helvetica,sans-Serif" font-size="10.00">Response</text>
</a>
</g>
</g>
<!-- Node1&#45;&gt;Node2 -->
<g id="edge1" class="edge">
<title>Node1&#45;&gt;Node2</title>
<path fill="none" stroke="midnightblue" d="M793.86,-110.5C785.46,-110.5 776.81,-110.5 768.23,-110.5"/>
<polygon fill="midnightblue" stroke="midnightblue" points="793.97,-114 803.97,-110.5 793.97,-107 793.97,-114"/>
</g>
<!-- Node5 -->
<g id="node5" class="node">
<title>Node5</title>
<g id="a_node5"><a xlink:href="wld__wpaCtrlInterface_8c.html#a303019c3b064bd2babeb3582ecd91d7f" target="_top" xlink:title="close the wpaCtrl interface to wpa_ctrl server This function closes all relative connections (cmd and...">
<polygon fill="white" stroke="black" points="619.5,-175.5 619.5,-205.5 739.5,-205.5 739.5,-175.5 619.5,-175.5"/>
<text text-anchor="start" x="627.5" y="-193.5" font-family="Helvetica,sans-Serif" font-size="10.00">wld_wpaCtrlInterface</text>
<text text-anchor="middle" x="679.5" y="-182.5" font-family="Helvetica,sans-Serif" font-size="10.00">_close</text>
</a>
</g>
</g>
<!-- Node1&#45;&gt;Node5 -->
<g id="edge4" class="edge">
<title>Node1&#45;&gt;Node5</title>
<path fill="none" stroke="midnightblue" d="M821.83,-129.55C789.31,-143.58 745.69,-162.39 715.55,-175.38"/>
<polygon fill="midnightblue" stroke="midnightblue" points="823.31,-132.72 831.11,-125.55 820.54,-126.29 823.31,-132.72"/>
</g>
<!-- Node17 -->
<g id="node17" class="node">
<title>Node17</title>
<g id="a_node17"><a xlink:href="wld__wpaCtrlMngr_8c.html#aa181961367a7ddec982aee21b5d0d25e" target="_top" xlink:title=" ">
<polygon fill="white" stroke="black" points="608,-46.5 608,-76.5 751,-76.5 751,-46.5 608,-46.5"/>
<text text-anchor="start" x="616" y="-64.5" font-family="Helvetica,sans-Serif" font-size="10.00">wld_wpaCtrlMngr_getFirst</text>
<text text-anchor="middle" x="679.5" y="-53.5" font-family="Helvetica,sans-Serif" font-size="10.00">AvailableInterface</text>
</a>
</g>
</g>
<!-- Node1&#45;&gt;Node17 -->
<g id="edge16" class="edge">
<title>Node1&#45;&gt;Node17</title>
<path fill="none" stroke="midnightblue" d="M799.28,-92.88C778.99,-87.52 756.89,-81.68 737.31,-76.51"/>
<polygon fill="midnightblue" stroke="midnightblue" points="798.52,-96.3 809.08,-95.47 800.31,-89.53 798.52,-96.3"/>
</g>
<!-- Node3 -->
<g id="node3" class="node">
<title>Node3</title>
<g id="a_node3"><a xlink:href="wld__rad__hostapd__api_8c.html#a848163f8651e518db2503acba24262c2" target="_top" xlink:title="reconfigure hostapd from file">
<polygon fill="white" stroke="black" points="196,-77 196,-96 355,-96 355,-77 196,-77"/>
<text text-anchor="middle" x="275.5" y="-84" font-family="Helvetica,sans-Serif" font-size="10.00">wld_rad_hostapd_reconfigure</text>
</a>
</g>
</g>
<!-- Node2&#45;&gt;Node3 -->
<g id="edge2" class="edge">
<title>Node2&#45;&gt;Node3</title>
<path fill="none" stroke="midnightblue" d="M580.73,-104.66C511.46,-100.53 419.74,-95.05 355.19,-91.2"/>
<polygon fill="midnightblue" stroke="midnightblue" points="580.59,-108.16 590.78,-105.26 581,-101.17 580.59,-108.16"/>
</g>
<!-- Node4 -->
<g id="node4" class="node">
<title>Node4</title>
<g id="a_node4"><a xlink:href="wifiGen__hapd_8c.html#a3316988b243476f9ae97626a068d4d04" target="_top" xlink:title=" ">
<polygon fill="white" stroke="black" points="0,-77 0,-96 160,-96 160,-77 0,-77"/>
<text text-anchor="middle" x="80" y="-84" font-family="Helvetica,sans-Serif" font-size="10.00">wifiGen_hapd_reloadDaemon</text>
</a>
</g>
</g>
<!-- Node3&#45;&gt;Node4 -->
<g id="edge3" class="edge">
<title>Node3&#45;&gt;Node4</title>
<path fill="none" stroke="midnightblue" d="M185.56,-86.5C177.12,-86.5 168.6,-86.5 160.26,-86.5"/>
<polygon fill="midnightblue" stroke="midnightblue" points="185.8,-90 195.8,-86.5 185.8,-83 185.8,-90"/>
</g>
<!-- Node6 -->
<g id="node6" class="node">
<title>Node6</title>
<g id="a_node6"><a xlink:href="wld__wpaCtrlInterface_8c.html#a78b74c321f958dec1e833a1c6b275eae" target="_top" xlink:title=" ">
<polygon fill="white" stroke="black" points="413,-175.5 413,-205.5 533,-205.5 533,-175.5 413,-175.5"/>
<text text-anchor="start" x="421" y="-193.5" font-family="Helvetica,sans-Serif" font-size="10.00">wld_wpaCtrlInterface</text>
<text text-anchor="middle" x="473" y="-182.5" font-family="Helvetica,sans-Serif" font-size="10.00">_cleanup</text>
</a>
</g>
</g>
<!-- Node5&#45;&gt;Node6 -->
<g id="edge5" class="edge">
<title>Node5&#45;&gt;Node6</title>
<path fill="none" stroke="midnightblue" d="M609.29,-190.5C584.52,-190.5 556.85,-190.5 533.02,-190.5"/>
<polygon fill="midnightblue" stroke="midnightblue" points="609.35,-194 619.35,-190.5 609.35,-187 609.35,-194"/>
</g>
<!-- Node7 -->
<g id="node7" class="node">
<title>Node7</title>
<g id="a_node7"><a xlink:href="wld__wpaCtrlInterface_8c.html#a459412143928ed22bca8796394d85ada" target="_top" xlink:title=" ">
<polygon fill="white" stroke="black" points="413,-263.5 413,-293.5 533,-293.5 533,-263.5 413,-263.5"/>
<text text-anchor="start" x="421" y="-281.5" font-family="Helvetica,sans-Serif" font-size="10.00">wld_wpaCtrlInterface</text>
<text text-anchor="middle" x="473" y="-270.5" font-family="Helvetica,sans-Serif" font-size="10.00">_setConnectionInfo</text>
</a>
</g>
</g>
<!-- Node5&#45;&gt;Node7 -->
<g id="edge6" class="edge">
<title>Node5&#45;&gt;Node7</title>
<path fill="none" stroke="midnightblue" d="M643.29,-210.52C618.99,-223.82 585.65,-241.06 555,-253.5 546.27,-257.04 536.85,-260.38 527.62,-263.38"/>
<polygon fill="midnightblue" stroke="midnightblue" points="645.08,-213.53 652.14,-205.63 641.7,-207.4 645.08,-213.53"/>
</g>
<!-- Node10 -->
<g id="node10" class="node">
<title>Node10</title>
<g id="a_node10"><a xlink:href="wld__wpaCtrlMngr_8c.html#a703dcb69cf5fbbf2473edf3505b12ca1" target="_top" xlink:title=" ">
<polygon fill="white" stroke="black" points="400.5,-225 400.5,-244 545.5,-244 545.5,-225 400.5,-225"/>
<text text-anchor="middle" x="473" y="-232" font-family="Helvetica,sans-Serif" font-size="10.00">wld_wpaCtrlMngr_cleanup</text>
</a>
</g>
</g>
<!-- Node5&#45;&gt;Node10 -->
<g id="edge9" class="edge">
<title>Node5&#45;&gt;Node10</title>
<path fill="none" stroke="midnightblue" d="M609.34,-205.38C579.29,-211.85 544.96,-219.23 518.4,-224.95"/>
<polygon fill="midnightblue" stroke="midnightblue" points="610.31,-208.75 619.35,-203.23 608.84,-201.91 610.31,-208.75"/>
</g>
<!-- Node13 -->
<g id="node13" class="node">
<title>Node13</title>
<g id="a_node13"><a xlink:href="wld__wpaCtrlMngr_8c.html#a65f1d3c48476ca6584852b18fc80b2d9" target="_top" xlink:title="disconnect from wpa_ctrl server">
<polygon fill="white" stroke="black" points="393.5,-137 393.5,-156 552.5,-156 552.5,-137 393.5,-137"/>
<text text-anchor="middle" x="473" y="-144" font-family="Helvetica,sans-Serif" font-size="10.00">wld_wpaCtrlMngr_disconnect</text>
</a>
</g>
</g>
<!-- Node5&#45;&gt;Node13 -->
<g id="edge12" class="edge">
<title>Node5&#45;&gt;Node13</title>
<path fill="none" stroke="midnightblue" d="M609.34,-175.62C579.29,-169.15 544.96,-161.77 518.4,-156.05"/>
<polygon fill="midnightblue" stroke="midnightblue" points="608.84,-179.09 619.35,-177.77 610.31,-172.25 608.84,-179.09"/>
</g>
<!-- Node8 -->
<g id="node8" class="node">
<title>Node8</title>
<g id="a_node8"><a xlink:href="wld__wpaCtrlInterface_8c.html#a6024f927e9325cb624243ab3ada19169" target="_top" xlink:title=" ">
<polygon fill="white" stroke="black" points="215.5,-263.5 215.5,-293.5 335.5,-293.5 335.5,-263.5 215.5,-263.5"/>
<text text-anchor="start" x="223.5" y="-281.5" font-family="Helvetica,sans-Serif" font-size="10.00">wld_wpaCtrlInterface</text>
<text text-anchor="middle" x="275.5" y="-270.5" font-family="Helvetica,sans-Serif" font-size="10.00">_initWithSockName</text>
</a>
</g>
</g>
<!-- Node7&#45;&gt;Node8 -->
<g id="edge7" class="edge">
<title>Node7&#45;&gt;Node8</title>
<path fill="none" stroke="midnightblue" d="M402.62,-278.5C380.79,-278.5 356.89,-278.5 335.82,-278.5"/>
<polygon fill="midnightblue" stroke="midnightblue" points="402.81,-282 412.81,-278.5 402.81,-275 402.81,-282"/>
</g>
<!-- Node9 -->
<g id="node9" class="node">
<title>Node9</title>
<g id="a_node9"><a xlink:href="wld__wpaCtrlInterface_8c.html#ab633f391100bfb48cab0bb515fd4e908" target="_top" xlink:title=" ">
<polygon fill="white" stroke="black" points="9.5,-269 9.5,-288 150.5,-288 150.5,-269 9.5,-269"/>
<text text-anchor="middle" x="80" y="-276" font-family="Helvetica,sans-Serif" font-size="10.00">wld_wpaCtrlInterface_init</text>
</a>
</g>
</g>
<!-- Node8&#45;&gt;Node9 -->
<g id="edge8" class="edge">
<title>Node8&#45;&gt;Node9</title>
<path fill="none" stroke="midnightblue" d="M205.13,-278.5C187.41,-278.5 168.35,-278.5 150.62,-278.5"/>
<polygon fill="midnightblue" stroke="midnightblue" points="205.39,-282 215.39,-278.5 205.39,-275 205.39,-282"/>
</g>
<!-- Node11 -->
<g id="node11" class="node">
<title>Node11</title>
<g id="a_node11"><a xlink:href="wld__secDmn_8c.html#a6bf723465724da6f8b5fa5b8ddddf66f" target="_top" xlink:title=" ">
<polygon fill="white" stroke="black" points="214.5,-225 214.5,-244 336.5,-244 336.5,-225 214.5,-225"/>
<text text-anchor="middle" x="275.5" y="-232" font-family="Helvetica,sans-Serif" font-size="10.00">wld_secDmn_cleanup</text>
</a>
</g>
</g>
<!-- Node10&#45;&gt;Node11 -->
<g id="edge10" class="edge">
<title>Node10&#45;&gt;Node11</title>
<path fill="none" stroke="midnightblue" d="M390.15,-234.5C372.2,-234.5 353.52,-234.5 336.62,-234.5"/>
<polygon fill="midnightblue" stroke="midnightblue" points="390.31,-238 400.31,-234.5 390.31,-231 390.31,-238"/>
</g>
<!-- Node12 -->
<g id="node12" class="node">
<title>Node12</title>
<g id="a_node12"><a xlink:href="wifiGen__hapd_8c.html#af643558a6f2cae8f916cc925a5654667" target="_top" xlink:title=" ">
<polygon fill="white" stroke="black" points="17,-225 17,-244 143,-244 143,-225 17,-225"/>
<text text-anchor="middle" x="80" y="-232" font-family="Helvetica,sans-Serif" font-size="10.00">wifiGen_hapd_cleanup</text>
</a>
</g>
</g>
<!-- Node11&#45;&gt;Node12 -->
<g id="edge11" class="edge">
<title>Node11&#45;&gt;Node12</title>
<path fill="none" stroke="midnightblue" d="M204.07,-234.5C184.12,-234.5 162.55,-234.5 143.13,-234.5"/>
<polygon fill="midnightblue" stroke="midnightblue" points="204.34,-238 214.34,-234.5 204.34,-231 204.34,-238"/>
</g>
<!-- Node14 -->
<g id="node14" class="node">
<title>Node14</title>
<g id="a_node14"><a xlink:href="wld__secDmn_8c.html#a04e473c6a2f624f5ee15a91d36ca56db" target="_top" xlink:title=" ">
<polygon fill="white" stroke="black" points="211,-118 211,-137 340,-137 340,-118 211,-118"/>
<text text-anchor="middle" x="275.5" y="-125" font-family="Helvetica,sans-Serif" font-size="10.00">wld_secDmn_restartCb</text>
</a>
</g>
</g>
<!-- Node13&#45;&gt;Node14 -->
<g id="edge13" class="edge">
<title>Node13&#45;&gt;Node14</title>
<path fill="none" stroke="midnightblue" d="M383.29,-137.88C368.69,-136.46 353.83,-135.02 340.01,-133.67"/>
<polygon fill="midnightblue" stroke="midnightblue" points="383.04,-141.37 393.33,-138.85 383.71,-134.4 383.04,-141.37"/>
</g>
<!-- Node15 -->
<g id="node15" class="node">
<title>Node15</title>
<g id="a_node15"><a xlink:href="wld__secDmn_8c.html#a161897b21440ea0885b570829da259fc" target="_top" xlink:title=" ">
<polygon fill="white" stroke="black" points="223,-156 223,-175 328,-175 328,-156 223,-156"/>
<text text-anchor="middle" x="275.5" y="-163" font-family="Helvetica,sans-Serif" font-size="10.00">wld_secDmn_stop</text>
</a>
</g>
</g>
<!-- Node13&#45;&gt;Node15 -->
<g id="edge14" class="edge">
<title>Node13&#45;&gt;Node15</title>
<path fill="none" stroke="midnightblue" d="M383.21,-155.13C364.34,-156.96 345.02,-158.84 328.1,-160.49"/>
<polygon fill="midnightblue" stroke="midnightblue" points="383.71,-158.6 393.33,-154.15 383.04,-151.63 383.71,-158.6"/>
</g>
<!-- Node16 -->
<g id="node16" class="node">
<title>Node16</title>
<g id="a_node16"><a xlink:href="wifiGen__hapd_8c.html#a75688dec0e4ad675142a71010b2b536a" target="_top" xlink:title=" ">
<polygon fill="white" stroke="black" points="5,-156 5,-175 155,-175 155,-156 5,-156"/>
<text text-anchor="middle" x="80" y="-163" font-family="Helvetica,sans-Serif" font-size="10.00">wifiGen_hapd_stopDaemon</text>
</a>
</g>
</g>
<!-- Node15&#45;&gt;Node16 -->
<g id="edge15" class="edge">
<title>Node15&#45;&gt;Node16</title>
<path fill="none" stroke="midnightblue" d="M212.7,-165.5C194.46,-165.5 174.31,-165.5 155.36,-165.5"/>
<polygon fill="midnightblue" stroke="midnightblue" points="212.9,-169 222.9,-165.5 212.9,-162 212.9,-169"/>
</g>
<!-- Node18 -->
<g id="node18" class="node">
<title>Node18</title>
<g id="a_node18"><a xlink:href="wld__secDmn_8c.html#a714ecb5a7295d3c0c2ffe03c0683bf2c" target="_top" xlink:title=" ">
<polygon fill="white" stroke="black" points="391,-0.5 391,-30.5 555,-30.5 555,-0.5 391,-0.5"/>
<text text-anchor="start" x="399" y="-18.5" font-family="Helvetica,sans-Serif" font-size="10.00">wld_secDmn_hasAvailableCtrl</text>
<text text-anchor="middle" x="473" y="-7.5" font-family="Helvetica,sans-Serif" font-size="10.00">Iface</text>
</a>
</g>
</g>
<!-- Node17&#45;&gt;Node18 -->
<g id="edge17" class="edge">
<title>Node17&#45;&gt;Node18</title>
<path fill="none" stroke="midnightblue" d="M601.54,-44.19C581.55,-39.69 560.18,-34.89 540.76,-30.52"/>
<polygon fill="midnightblue" stroke="midnightblue" points="601.01,-47.66 611.54,-46.44 602.55,-40.83 601.01,-47.66"/>
</g>
<!-- Node19 -->
<g id="node19" class="node">
<title>Node19</title>
<g id="a_node19"><a xlink:href="wld__wpaCtrlMngr_8c.html#a4d2e687208327e2581cdbb8a1cd100ef" target="_top" xlink:title=" ">
<polygon fill="white" stroke="black" points="394,-49.5 394,-79.5 552,-79.5 552,-49.5 394,-49.5"/>
<text text-anchor="start" x="402" y="-67.5" font-family="Helvetica,sans-Serif" font-size="10.00">wld_wpaCtrlMngr_getDefault</text>
<text text-anchor="middle" x="473" y="-56.5" font-family="Helvetica,sans-Serif" font-size="10.00">Interface</text>
</a>
</g>
</g>
<!-- Node17&#45;&gt;Node19 -->
<g id="edge18" class="edge">
<title>Node17&#45;&gt;Node19</title>
<path fill="none" stroke="midnightblue" d="M597.57,-62.69C582.57,-62.91 566.93,-63.14 552.01,-63.36"/>
<polygon fill="midnightblue" stroke="midnightblue" points="597.89,-66.18 607.84,-62.54 597.79,-59.18 597.89,-66.18"/>
</g>
<!-- Node19&#45;&gt;Node3 -->
<g id="edge19" class="edge">
<title>Node19&#45;&gt;Node3</title>
<path fill="none" stroke="midnightblue" d="M383.94,-74.41C374.34,-75.49 364.61,-76.59 355.12,-77.65"/>
<polygon fill="midnightblue" stroke="midnightblue" points="384.34,-77.89 393.89,-73.29 383.56,-70.93 384.34,-77.89"/>
</g>
</g>
</svg>
