<?xml version="1.0" encoding="UTF-8" standalone="no"?>
<!DOCTYPE svg PUBLIC "-//W3C//DTD SVG 1.1//EN"
 "http://www.w3.org/Graphics/SVG/1.1/DTD/svg11.dtd">
<!-- Generated by graphviz version 2.43.0 (0)
 -->
<!-- Title: wld_rad_hostapd_getCmdReplyParamStr Pages: 1 -->
<svg width="1103pt" height="154pt"
 viewBox="0.00 0.00 1103.00 153.50" xmlns="http://www.w3.org/2000/svg" xmlns:xlink="http://www.w3.org/1999/xlink">
<g id="graph0" class="graph" transform="scale(1 1) rotate(0) translate(4 149.5)">
<title>wld_rad_hostapd_getCmdReplyParamStr</title>
<polygon fill="white" stroke="transparent" points="-4,4 -4,-149.5 1099,-149.5 1099,4 -4,4"/>
<!-- Node1 -->
<g id="node1" class="node">
<title>Node1</title>
<g id="a_node1"><a xlink:title=" ">
<polygon fill="#bfbfbf" stroke="black" points="0,-63.5 0,-93.5 170,-93.5 170,-63.5 0,-63.5"/>
<text text-anchor="start" x="8" y="-81.5" font-family="Helvetica,sans-Serif" font-size="10.00">wld_rad_hostapd_getCmdReply</text>
<text text-anchor="middle" x="85" y="-70.5" font-family="Helvetica,sans-Serif" font-size="10.00">ParamStr</text>
</a>
</g>
</g>
<!-- Node2 -->
<g id="node2" class="node">
<title>Node2</title>
<g id="a_node2"><a xlink:href="wld__secDmn_8c.html#af6f5c940cdf44ae30f012827a423a0c9" target="_top" xlink:title=" ">
<polygon fill="white" stroke="black" points="221.5,-107 221.5,-126 379.5,-126 379.5,-107 221.5,-107"/>
<text text-anchor="middle" x="300.5" y="-114" font-family="Helvetica,sans-Serif" font-size="10.00">wld_secDmn_getWpaCtrlMgr</text>
</a>
</g>
</g>
<!-- Node1&#45;&gt;Node2 -->
<g id="edge1" class="edge">
<title>Node1&#45;&gt;Node2</title>
<path fill="none" stroke="midnightblue" d="M170.07,-93.46C192.04,-97.37 215.34,-101.52 236.03,-105.2"/>
<polygon fill="midnightblue" stroke="midnightblue" points="235.5,-108.66 245.96,-106.97 236.73,-101.77 235.5,-108.66"/>
</g>
<!-- Node3 -->
<g id="node3" class="node">
<title>Node3</title>
<g id="a_node3"><a xlink:href="wld__wpaCtrlInterface_8c.html#af5a74650770b378805df194c8cc4f52b" target="_top" xlink:title="send synchronous command to wpa_ctrl server and check a parameter value in the reply">
<polygon fill="white" stroke="black" points="206,-69 206,-88 395,-88 395,-69 206,-69"/>
<text text-anchor="middle" x="300.5" y="-76" font-family="Helvetica,sans-Serif" font-size="10.00">wld_wpaCtrl_getSyncCmdParamVal</text>
</a>
</g>
</g>
<!-- Node1&#45;&gt;Node3 -->
<g id="edge2" class="edge">
<title>Node1&#45;&gt;Node3</title>
<path fill="none" stroke="midnightblue" d="M170.07,-78.5C178.55,-78.5 187.22,-78.5 195.86,-78.5"/>
<polygon fill="midnightblue" stroke="midnightblue" points="195.98,-82 205.98,-78.5 195.98,-75 195.98,-82"/>
</g>
<!-- Node11 -->
<g id="node11" class="node">
<title>Node11</title>
<g id="a_node11"><a xlink:href="wld__wpaCtrlMngr_8c.html#a3dc93dfda0d67c0e7254cc1ffeeb3ebe" target="_top" xlink:title=" ">
<polygon fill="white" stroke="black" points="229,-19.5 229,-49.5 372,-49.5 372,-19.5 229,-19.5"/>
<text text-anchor="start" x="237" y="-37.5" font-family="Helvetica,sans-Serif" font-size="10.00">wld_wpaCtrlMngr_getFirst</text>
<text text-anchor="middle" x="300.5" y="-26.5" font-family="Helvetica,sans-Serif" font-size="10.00">ReadyInterface</text>
</a>
</g>
</g>
<!-- Node1&#45;&gt;Node11 -->
<g id="edge10" class="edge">
<title>Node1&#45;&gt;Node11</title>
<path fill="none" stroke="midnightblue" d="M158.88,-63.48C178.2,-59.5 199.18,-55.18 218.89,-51.11"/>
<polygon fill="midnightblue" stroke="midnightblue" points="219.67,-54.53 228.76,-49.08 218.26,-47.67 219.67,-54.53"/>
</g>
<!-- Node4 -->
<g id="node4" class="node">
<title>Node4</title>
<g id="a_node4"><a xlink:href="wld__wpaCtrlConnection_8c.html#ab5b29b7ce5f29ef5dfbe951e5b700428" target="_top" xlink:title=" ">
<polygon fill="white" stroke="black" points="434.5,-126 434.5,-145 590.5,-145 590.5,-126 434.5,-126"/>
<text text-anchor="middle" x="512.5" y="-133" font-family="Helvetica,sans-Serif" font-size="10.00">wld_wpaCtrl_getMaxMsgLen</text>
</a>
</g>
</g>
<!-- Node3&#45;&gt;Node4 -->
<g id="edge3" class="edge">
<title>Node3&#45;&gt;Node4</title>
<path fill="none" stroke="midnightblue" d="M361.55,-88.06C372.82,-90.59 384.39,-93.71 395,-97.5 412.04,-103.59 414.06,-110.15 431,-116.5 437.75,-119.03 444.94,-121.3 452.15,-123.31"/>
<polygon fill="midnightblue" stroke="midnightblue" points="451.39,-126.73 461.95,-125.9 453.18,-119.96 451.39,-126.73"/>
</g>
<!-- Node5 -->
<g id="node5" class="node">
<title>Node5</title>
<g id="a_node5"><a xlink:href="wld__wpaCtrl__events_8c.html#a67b83e09a159510b15c2677af1127b60" target="_top" xlink:title=" ">
<polygon fill="white" stroke="black" points="443.5,-88 443.5,-107 581.5,-107 581.5,-88 443.5,-88"/>
<text text-anchor="middle" x="512.5" y="-95" font-family="Helvetica,sans-Serif" font-size="10.00">wld_wpaCtrl_getValueStr</text>
</a>
</g>
</g>
<!-- Node3&#45;&gt;Node5 -->
<g id="edge4" class="edge">
<title>Node3&#45;&gt;Node5</title>
<path fill="none" stroke="midnightblue" d="M395.14,-86.97C407.78,-88.12 420.65,-89.28 433,-90.4"/>
<polygon fill="midnightblue" stroke="midnightblue" points="432.96,-93.91 443.23,-91.32 433.59,-86.94 432.96,-93.91"/>
</g>
<!-- Node6 -->
<g id="node6" class="node">
<title>Node6</title>
<g id="a_node6"><a xlink:href="wld__wpaCtrlInterface_8c.html#a4e9aeb5d1118a418053afcb9a3b8375c" target="_top" xlink:title="send command to wpa_ctrl server and wait for the reply">
<polygon fill="white" stroke="black" points="431,-50 431,-69 594,-69 594,-50 431,-50"/>
<text text-anchor="middle" x="512.5" y="-57" font-family="Helvetica,sans-Serif" font-size="10.00">wld_wpaCtrl_sendCmdSynced</text>
</a>
</g>
</g>
<!-- Node3&#45;&gt;Node6 -->
<g id="edge5" class="edge">
<title>Node3&#45;&gt;Node6</title>
<path fill="none" stroke="midnightblue" d="M395.14,-70.03C403.61,-69.26 412.19,-68.49 420.64,-67.72"/>
<polygon fill="midnightblue" stroke="midnightblue" points="421.23,-71.18 430.87,-66.79 420.6,-64.21 421.23,-71.18"/>
</g>
<!-- Node7 -->
<g id="node7" class="node">
<title>Node7</title>
<g id="a_node7"><a xlink:href="wld__wpaCtrlConnection_8c.html#a4ffecc829a17c67728b8ced8b0cccc92" target="_top" xlink:title=" ">
<polygon fill="white" stroke="black" points="630,-44.5 630,-74.5 761,-74.5 761,-44.5 630,-44.5"/>
<text text-anchor="start" x="638" y="-62.5" font-family="Helvetica,sans-Serif" font-size="10.00">wld_wpaCtrlConnection</text>
<text text-anchor="middle" x="695.5" y="-51.5" font-family="Helvetica,sans-Serif" font-size="10.00">_sendCmdSynced</text>
</a>
</g>
</g>
<!-- Node6&#45;&gt;Node7 -->
<g id="edge6" class="edge">
<title>Node6&#45;&gt;Node7</title>
<path fill="none" stroke="midnightblue" d="M594.21,-59.5C602.72,-59.5 611.35,-59.5 619.79,-59.5"/>
<polygon fill="midnightblue" stroke="midnightblue" points="619.97,-63 629.97,-59.5 619.97,-56 619.97,-63"/>
</g>
<!-- Node8 -->
<g id="node8" class="node">
<title>Node8</title>
<g id="a_node8"><a xlink:href="wld__wpaCtrlConnection_8c.html#ae8867992d243efdfa13e360b50730f88" target="_top" xlink:title=" ">
<polygon fill="white" stroke="black" points="797,-44.5 797,-74.5 928,-74.5 928,-44.5 797,-44.5"/>
<text text-anchor="start" x="805" y="-62.5" font-family="Helvetica,sans-Serif" font-size="10.00">wld_wpaCtrlConnection</text>
<text text-anchor="middle" x="862.5" y="-51.5" font-family="Helvetica,sans-Serif" font-size="10.00">_sendCmdSyncedExt</text>
</a>
</g>
</g>
<!-- Node7&#45;&gt;Node8 -->
<g id="edge7" class="edge">
<title>Node7&#45;&gt;Node8</title>
<path fill="none" stroke="midnightblue" d="M761.24,-59.5C769.58,-59.5 778.18,-59.5 786.67,-59.5"/>
<polygon fill="midnightblue" stroke="midnightblue" points="786.95,-63 796.95,-59.5 786.95,-56 786.95,-63"/>
</g>
<!-- Node9 -->
<g id="node9" class="node">
<title>Node9</title>
<g id="a_node9"><a xlink:href="wld__wpaCtrlConnection_8c.html#abfe3f8b17cf527b1e6fe85a564c8604b" target="_top" xlink:title=" ">
<polygon fill="white" stroke="black" points="964,-69.5 964,-99.5 1095,-99.5 1095,-69.5 964,-69.5"/>
<text text-anchor="start" x="972" y="-87.5" font-family="Helvetica,sans-Serif" font-size="10.00">wld_wpaCtrlConnection</text>
<text text-anchor="middle" x="1029.5" y="-76.5" font-family="Helvetica,sans-Serif" font-size="10.00">_getConnSockName</text>
</a>
</g>
</g>
<!-- Node8&#45;&gt;Node9 -->
<g id="edge8" class="edge">
<title>Node8&#45;&gt;Node9</title>
<path fill="none" stroke="midnightblue" d="M928.24,-69.31C936.67,-70.59 945.37,-71.9 953.95,-73.2"/>
<polygon fill="midnightblue" stroke="midnightblue" points="953.54,-76.68 963.95,-74.72 954.59,-69.76 953.54,-76.68"/>
</g>
<!-- Node10 -->
<g id="node10" class="node">
<title>Node10</title>
<g id="a_node10"><a xlink:href="wld__wpaCtrlConnection_8c.html#aa82226c76dbbf306e509b7c6d3088277" target="_top" xlink:title=" ">
<polygon fill="white" stroke="black" points="964,-20.5 964,-50.5 1095,-50.5 1095,-20.5 964,-20.5"/>
<text text-anchor="start" x="972" y="-38.5" font-family="Helvetica,sans-Serif" font-size="10.00">wld_wpaCtrlConnection</text>
<text text-anchor="middle" x="1029.5" y="-27.5" font-family="Helvetica,sans-Serif" font-size="10.00">_sendCmd</text>
</a>
</g>
</g>
<!-- Node8&#45;&gt;Node10 -->
<g id="edge9" class="edge">
<title>Node8&#45;&gt;Node10</title>
<path fill="none" stroke="midnightblue" d="M928.24,-50.08C936.67,-48.86 945.37,-47.59 953.95,-46.34"/>
<polygon fill="midnightblue" stroke="midnightblue" points="954.56,-49.79 963.95,-44.89 953.55,-42.87 954.56,-49.79"/>
</g>
<!-- Node12 -->
<g id="node12" class="node">
<title>Node12</title>
<g id="a_node12"><a xlink:href="wld__wpaCtrlInterface_8c.html#a8b38bc9ca95b60e002d38cdb1374d1d0" target="_top" xlink:title=" ">
<polygon fill="white" stroke="black" points="452.5,-0.5 452.5,-30.5 572.5,-30.5 572.5,-0.5 452.5,-0.5"/>
<text text-anchor="start" x="460.5" y="-18.5" font-family="Helvetica,sans-Serif" font-size="10.00">wld_wpaCtrlInterface</text>
<text text-anchor="middle" x="512.5" y="-7.5" font-family="Helvetica,sans-Serif" font-size="10.00">_isReady</text>
</a>
</g>
</g>
<!-- Node11&#45;&gt;Node12 -->
<g id="edge11" class="edge">
<title>Node11&#45;&gt;Node12</title>
<path fill="none" stroke="midnightblue" d="M372.01,-28.12C394.64,-26.07 419.67,-23.81 442.21,-21.77"/>
<polygon fill="midnightblue" stroke="midnightblue" points="442.73,-25.24 452.38,-20.85 442.1,-18.26 442.73,-25.24"/>
</g>
</g>
</svg>
