<?xml version="1.0" encoding="UTF-8" standalone="no"?>
<!DOCTYPE svg PUBLIC "-//W3C//DTD SVG 1.1//EN"
 "http://www.w3.org/Graphics/SVG/1.1/DTD/svg11.dtd">
<!-- Generated by graphviz version 2.43.0 (0)
 -->
<!-- Title: wld_secDmn_getCmdSupp Pages: 1 -->
<svg width="378pt" height="78pt"
 viewBox="0.00 0.00 378.00 77.50" xmlns="http://www.w3.org/2000/svg" xmlns:xlink="http://www.w3.org/1999/xlink">
<g id="graph0" class="graph" transform="scale(1 1) rotate(0) translate(4 73.5)">
<title>wld_secDmn_getCmdSupp</title>
<polygon fill="white" stroke="transparent" points="-4,4 -4,-73.5 374,-73.5 374,4 -4,4"/>
<!-- Node1 -->
<g id="node1" class="node">
<title>Node1</title>
<g id="a_node1"><a xlink:title=" ">
<polygon fill="#bfbfbf" stroke="black" points="0,-28 0,-47 146,-47 146,-28 0,-28"/>
<text text-anchor="middle" x="73" y="-35" font-family="Helvetica,sans-Serif" font-size="10.00">wld_secDmn_getCmdSupp</text>
</a>
</g>
</g>
<!-- Node2 -->
<g id="node2" class="node">
<title>Node2</title>
<g id="a_node2"><a xlink:href="wld__secDmnGrp_8c.html#af0b4f287e6977f3f12c69dfffbfb213e" target="_top" xlink:title=" ">
<polygon fill="white" stroke="black" points="182,-50 182,-69 370,-69 370,-50 182,-50"/>
<text text-anchor="middle" x="276" y="-57" font-family="Helvetica,sans-Serif" font-size="10.00">wld_secDmnGrp_getMemberByPos</text>
</a>
</g>
</g>
<!-- Node1&#45;&gt;Node2 -->
<g id="edge1" class="edge">
<title>Node1&#45;&gt;Node2</title>
<path fill="none" stroke="midnightblue" d="M146.28,-45.41C156.52,-46.53 167.18,-47.7 177.79,-48.86"/>
<polygon fill="midnightblue" stroke="midnightblue" points="177.61,-52.36 187.93,-49.97 178.37,-45.4 177.61,-52.36"/>
</g>
<!-- Node3 -->
<g id="node3" class="node">
<title>Node3</title>
<g id="a_node3"><a xlink:href="wld__secDmnGrp_8c.html#a7a55988e27b9c7365f21e1b68bc58b85" target="_top" xlink:title=" ">
<polygon fill="white" stroke="black" points="194.5,-0.5 194.5,-30.5 357.5,-30.5 357.5,-0.5 194.5,-0.5"/>
<text text-anchor="start" x="202.5" y="-18.5" font-family="Helvetica,sans-Serif" font-size="10.00">wld_secDmnGrp_getMembers</text>
<text text-anchor="middle" x="276" y="-7.5" font-family="Helvetica,sans-Serif" font-size="10.00">Count</text>
</a>
</g>
</g>
<!-- Node1&#45;&gt;Node3 -->
<g id="edge2" class="edge">
<title>Node1&#45;&gt;Node3</title>
<path fill="none" stroke="midnightblue" d="M146.28,-29.59C158.54,-28.25 171.4,-26.84 184.06,-25.45"/>
<polygon fill="midnightblue" stroke="midnightblue" points="184.6,-28.92 194.16,-24.35 183.83,-21.96 184.6,-28.92"/>
</g>
</g>
</svg>
