<?xml version="1.0" encoding="UTF-8" standalone="no"?>
<!DOCTYPE svg PUBLIC "-//W3C//DTD SVG 1.1//EN"
 "http://www.w3.org/Graphics/SVG/1.1/DTD/svg11.dtd">
<!-- Generated by graphviz version 2.43.0 (0)
 -->
<!-- Title: wld_rad_hostapd_enable Pages: 1 -->
<svg width="895pt" height="176pt"
 viewBox="0.00 0.00 895.00 175.50" xmlns="http://www.w3.org/2000/svg" xmlns:xlink="http://www.w3.org/1999/xlink">
<g id="graph0" class="graph" transform="scale(1 1) rotate(0) translate(4 171.5)">
<title>wld_rad_hostapd_enable</title>
<polygon fill="white" stroke="transparent" points="-4,4 -4,-171.5 891,-171.5 891,4 -4,4"/>
<!-- Node1 -->
<g id="node1" class="node">
<title>Node1</title>
<g id="a_node1"><a xlink:title="enable main hostapd interface">
<polygon fill="#bfbfbf" stroke="black" points="0,-79 0,-98 137,-98 137,-79 0,-79"/>
<text text-anchor="middle" x="68.5" y="-86" font-family="Helvetica,sans-Serif" font-size="10.00">wld_rad_hostapd_enable</text>
</a>
</g>
</g>
<!-- Node2 -->
<g id="node2" class="node">
<title>Node2</title>
<g id="a_node2"><a xlink:href="wld__secDmn_8c.html#af6f5c940cdf44ae30f012827a423a0c9" target="_top" xlink:title=" ">
<polygon fill="white" stroke="black" points="173,-148 173,-167 331,-167 331,-148 173,-148"/>
<text text-anchor="middle" x="252" y="-155" font-family="Helvetica,sans-Serif" font-size="10.00">wld_secDmn_getWpaCtrlMgr</text>
</a>
</g>
</g>
<!-- Node1&#45;&gt;Node2 -->
<g id="edge1" class="edge">
<title>Node1&#45;&gt;Node2</title>
<path fill="none" stroke="midnightblue" d="M86.6,-98.15C106.73,-109.18 141.44,-127.18 173,-138.5 180.02,-141.02 187.52,-143.32 194.99,-145.37"/>
<polygon fill="midnightblue" stroke="midnightblue" points="194.18,-148.78 204.74,-147.94 195.96,-142.01 194.18,-148.78"/>
</g>
<!-- Node3 -->
<g id="node3" class="node">
<title>Node3</title>
<g id="a_node3"><a xlink:href="wld__wpaCtrlInterface_8c.html#a49de62b20f7f9804ee70a5fc50f6724d" target="_top" xlink:title="send synchronous command to wpa_ctrl server and check the received reply within a defined delay">
<polygon fill="white" stroke="black" points="173,-98.5 173,-128.5 331,-128.5 331,-98.5 173,-98.5"/>
<text text-anchor="start" x="181" y="-116.5" font-family="Helvetica,sans-Serif" font-size="10.00">wld_wpaCtrl_sendCmdCheck</text>
<text text-anchor="middle" x="252" y="-105.5" font-family="Helvetica,sans-Serif" font-size="10.00">ResponseExt</text>
</a>
</g>
</g>
<!-- Node1&#45;&gt;Node3 -->
<g id="edge2" class="edge">
<title>Node1&#45;&gt;Node3</title>
<path fill="none" stroke="midnightblue" d="M137.08,-97.81C145.49,-98.97 154.17,-100.16 162.83,-101.36"/>
<polygon fill="midnightblue" stroke="midnightblue" points="162.57,-104.85 172.96,-102.75 163.53,-97.92 162.57,-104.85"/>
</g>
<!-- Node9 -->
<g id="node9" class="node">
<title>Node9</title>
<g id="a_node9"><a xlink:href="wld__wpaCtrlInterface_8c.html#a5394fec853913f82bd5c52accf2687b8" target="_top" xlink:title=" ">
<polygon fill="white" stroke="black" points="192,-49.5 192,-79.5 312,-79.5 312,-49.5 192,-49.5"/>
<text text-anchor="start" x="200" y="-67.5" font-family="Helvetica,sans-Serif" font-size="10.00">wld_wpaCtrlInterface</text>
<text text-anchor="middle" x="252" y="-56.5" font-family="Helvetica,sans-Serif" font-size="10.00">_getName</text>
</a>
</g>
</g>
<!-- Node1&#45;&gt;Node9 -->
<g id="edge8" class="edge">
<title>Node1&#45;&gt;Node9</title>
<path fill="none" stroke="midnightblue" d="M137.08,-79.56C151.66,-77.64 167.09,-75.6 181.73,-73.66"/>
<polygon fill="midnightblue" stroke="midnightblue" points="182.26,-77.12 191.72,-72.34 181.35,-70.18 182.26,-77.12"/>
</g>
<!-- Node10 -->
<g id="node10" class="node">
<title>Node10</title>
<g id="a_node10"><a xlink:href="wld__wpaCtrlMngr_8c.html#a3dc93dfda0d67c0e7254cc1ffeeb3ebe" target="_top" xlink:title=" ">
<polygon fill="white" stroke="black" points="180.5,-0.5 180.5,-30.5 323.5,-30.5 323.5,-0.5 180.5,-0.5"/>
<text text-anchor="start" x="188.5" y="-18.5" font-family="Helvetica,sans-Serif" font-size="10.00">wld_wpaCtrlMngr_getFirst</text>
<text text-anchor="middle" x="252" y="-7.5" font-family="Helvetica,sans-Serif" font-size="10.00">ReadyInterface</text>
</a>
</g>
</g>
<!-- Node1&#45;&gt;Node10 -->
<g id="edge9" class="edge">
<title>Node1&#45;&gt;Node10</title>
<path fill="none" stroke="midnightblue" d="M88.27,-78.94C108.77,-68.69 142.74,-52.31 173,-40.5 178.82,-38.23 184.95,-36 191.1,-33.86"/>
<polygon fill="midnightblue" stroke="midnightblue" points="192.4,-37.12 200.74,-30.59 190.15,-30.49 192.4,-37.12"/>
</g>
<!-- Node4 -->
<g id="node4" class="node">
<title>Node4</title>
<g id="a_node4"><a xlink:href="wld__wpaCtrlConnection_8c.html#a5ddba0537d0917bc518e9ef71b539f75" target="_top" xlink:title=" ">
<polygon fill="white" stroke="black" points="367,-98.5 367,-128.5 528,-128.5 528,-98.5 367,-98.5"/>
<text text-anchor="start" x="375" y="-116.5" font-family="Helvetica,sans-Serif" font-size="10.00">wld_wpaCtrlConnection</text>
<text text-anchor="middle" x="447.5" y="-105.5" font-family="Helvetica,sans-Serif" font-size="10.00">_sendCmdCheckResponseExt</text>
</a>
</g>
</g>
<!-- Node3&#45;&gt;Node4 -->
<g id="edge3" class="edge">
<title>Node3&#45;&gt;Node4</title>
<path fill="none" stroke="midnightblue" d="M331.15,-113.5C339.59,-113.5 348.23,-113.5 356.8,-113.5"/>
<polygon fill="midnightblue" stroke="midnightblue" points="356.8,-117 366.8,-113.5 356.8,-110 356.8,-117"/>
</g>
<!-- Node5 -->
<g id="node5" class="node">
<title>Node5</title>
<g id="a_node5"><a xlink:href="wld__wpaCtrlConnection_8c.html#ab5b29b7ce5f29ef5dfbe951e5b700428" target="_top" xlink:title=" ">
<polygon fill="white" stroke="black" points="564,-126 564,-145 720,-145 720,-126 564,-126"/>
<text text-anchor="middle" x="642" y="-133" font-family="Helvetica,sans-Serif" font-size="10.00">wld_wpaCtrl_getMaxMsgLen</text>
</a>
</g>
</g>
<!-- Node4&#45;&gt;Node5 -->
<g id="edge4" class="edge">
<title>Node4&#45;&gt;Node5</title>
<path fill="none" stroke="midnightblue" d="M528.19,-122.61C536.66,-123.58 545.31,-124.56 553.87,-125.54"/>
<polygon fill="midnightblue" stroke="midnightblue" points="553.52,-129.02 563.85,-126.68 554.31,-122.07 553.52,-129.02"/>
</g>
<!-- Node6 -->
<g id="node6" class="node">
<title>Node6</title>
<g id="a_node6"><a xlink:href="wld__wpaCtrlConnection_8c.html#ae8867992d243efdfa13e360b50730f88" target="_top" xlink:title=" ">
<polygon fill="white" stroke="black" points="576.5,-76.5 576.5,-106.5 707.5,-106.5 707.5,-76.5 576.5,-76.5"/>
<text text-anchor="start" x="584.5" y="-94.5" font-family="Helvetica,sans-Serif" font-size="10.00">wld_wpaCtrlConnection</text>
<text text-anchor="middle" x="642" y="-83.5" font-family="Helvetica,sans-Serif" font-size="10.00">_sendCmdSyncedExt</text>
</a>
</g>
</g>
<!-- Node4&#45;&gt;Node6 -->
<g id="edge5" class="edge">
<title>Node4&#45;&gt;Node6</title>
<path fill="none" stroke="midnightblue" d="M528.19,-104.39C540.71,-102.96 553.62,-101.49 566.04,-100.07"/>
<polygon fill="midnightblue" stroke="midnightblue" points="566.79,-103.5 576.33,-98.89 565.99,-96.55 566.79,-103.5"/>
</g>
<!-- Node7 -->
<g id="node7" class="node">
<title>Node7</title>
<g id="a_node7"><a xlink:href="wld__wpaCtrlConnection_8c.html#abfe3f8b17cf527b1e6fe85a564c8604b" target="_top" xlink:title=" ">
<polygon fill="white" stroke="black" points="756,-101.5 756,-131.5 887,-131.5 887,-101.5 756,-101.5"/>
<text text-anchor="start" x="764" y="-119.5" font-family="Helvetica,sans-Serif" font-size="10.00">wld_wpaCtrlConnection</text>
<text text-anchor="middle" x="821.5" y="-108.5" font-family="Helvetica,sans-Serif" font-size="10.00">_getConnSockName</text>
</a>
</g>
</g>
<!-- Node6&#45;&gt;Node7 -->
<g id="edge6" class="edge">
<title>Node6&#45;&gt;Node7</title>
<path fill="none" stroke="midnightblue" d="M707.58,-100.6C720.02,-102.35 733.14,-104.2 745.87,-105.99"/>
<polygon fill="midnightblue" stroke="midnightblue" points="745.57,-109.48 755.96,-107.41 746.55,-102.55 745.57,-109.48"/>
</g>
<!-- Node8 -->
<g id="node8" class="node">
<title>Node8</title>
<g id="a_node8"><a xlink:href="wld__wpaCtrlConnection_8c.html#aa82226c76dbbf306e509b7c6d3088277" target="_top" xlink:title=" ">
<polygon fill="white" stroke="black" points="756,-52.5 756,-82.5 887,-82.5 887,-52.5 756,-52.5"/>
<text text-anchor="start" x="764" y="-70.5" font-family="Helvetica,sans-Serif" font-size="10.00">wld_wpaCtrlConnection</text>
<text text-anchor="middle" x="821.5" y="-59.5" font-family="Helvetica,sans-Serif" font-size="10.00">_sendCmd</text>
</a>
</g>
</g>
<!-- Node6&#45;&gt;Node8 -->
<g id="edge7" class="edge">
<title>Node6&#45;&gt;Node8</title>
<path fill="none" stroke="midnightblue" d="M707.58,-82.77C720.02,-81.09 733.14,-79.31 745.87,-77.59"/>
<polygon fill="midnightblue" stroke="midnightblue" points="746.52,-81.03 755.96,-76.23 745.59,-74.1 746.52,-81.03"/>
</g>
<!-- Node11 -->
<g id="node11" class="node">
<title>Node11</title>
<g id="a_node11"><a xlink:href="wld__wpaCtrlInterface_8c.html#a8b38bc9ca95b60e002d38cdb1374d1d0" target="_top" xlink:title=" ">
<polygon fill="white" stroke="black" points="387.5,-0.5 387.5,-30.5 507.5,-30.5 507.5,-0.5 387.5,-0.5"/>
<text text-anchor="start" x="395.5" y="-18.5" font-family="Helvetica,sans-Serif" font-size="10.00">wld_wpaCtrlInterface</text>
<text text-anchor="middle" x="447.5" y="-7.5" font-family="Helvetica,sans-Serif" font-size="10.00">_isReady</text>
</a>
</g>
</g>
<!-- Node10&#45;&gt;Node11 -->
<g id="edge10" class="edge">
<title>Node10&#45;&gt;Node11</title>
<path fill="none" stroke="midnightblue" d="M323.68,-15.5C341.19,-15.5 359.93,-15.5 377.36,-15.5"/>
<polygon fill="midnightblue" stroke="midnightblue" points="377.46,-19 387.45,-15.5 377.45,-12 377.46,-19"/>
</g>
</g>
</svg>
