<?xml version="1.0" encoding="UTF-8" standalone="no"?>
<!DOCTYPE svg PUBLIC "-//W3C//DTD SVG 1.1//EN"
 "http://www.w3.org/Graphics/SVG/1.1/DTD/svg11.dtd">
<!-- Generated by graphviz version 2.43.0 (0)
 -->
<!-- Title: test/testHelper/wld_th_fsm.h Pages: 1 -->
<svg width="2551pt" height="240pt"
 viewBox="0.00 0.00 2551.00 240.00" xmlns="http://www.w3.org/2000/svg" xmlns:xlink="http://www.w3.org/1999/xlink">
<g id="graph0" class="graph" transform="scale(1 1) rotate(0) translate(4 236)">
<title>test/testHelper/wld_th_fsm.h</title>
<polygon fill="white" stroke="transparent" points="-4,4 -4,-236 2547,-236 2547,4 -4,4"/>
<!-- Node1 -->
<g id="node1" class="node">
<title>Node1</title>
<g id="a_node1"><a xlink:title=" ">
<polygon fill="#bfbfbf" stroke="black" points="1436,-201.5 1436,-231.5 1546,-231.5 1546,-201.5 1436,-201.5"/>
<text text-anchor="start" x="1444" y="-219.5" font-family="Helvetica,sans-Serif" font-size="10.00">test/testHelper/wld</text>
<text text-anchor="middle" x="1491" y="-208.5" font-family="Helvetica,sans-Serif" font-size="10.00">_th_fsm.h</text>
</a>
</g>
</g>
<!-- Node2 -->
<g id="node2" class="node">
<title>Node2</title>
<g id="a_node2"><a xlink:href="wld__th__fsm_8c.html" target="_top" xlink:title=" ">
<polygon fill="white" stroke="black" points="1611,-67.5 1611,-97.5 1721,-97.5 1721,-67.5 1611,-67.5"/>
<text text-anchor="start" x="1619" y="-85.5" font-family="Helvetica,sans-Serif" font-size="10.00">test/testHelper/wld</text>
<text text-anchor="middle" x="1666" y="-74.5" font-family="Helvetica,sans-Serif" font-size="10.00">_th_fsm.c</text>
</a>
</g>
</g>
<!-- Node1&#45;&gt;Node2 -->
<g id="edge1" class="edge">
<title>Node1&#45;&gt;Node2</title>
<path fill="none" stroke="midnightblue" d="M1517.8,-195.28C1553.66,-168.24 1616.31,-120.98 1647.41,-97.52"/>
<polygon fill="midnightblue" stroke="midnightblue" points="1515.6,-192.56 1509.73,-201.37 1519.82,-198.15 1515.6,-192.56"/>
</g>
<!-- Node3 -->
<g id="node3" class="node">
<title>Node3</title>
<g id="a_node3"><a xlink:href="wld__th__mockVendor_8c.html" target="_top" xlink:title=" ">
<polygon fill="white" stroke="black" points="0,-0.5 0,-30.5 110,-30.5 110,-0.5 0,-0.5"/>
<text text-anchor="start" x="8" y="-18.5" font-family="Helvetica,sans-Serif" font-size="10.00">test/testHelper/wld</text>
<text text-anchor="middle" x="55" y="-7.5" font-family="Helvetica,sans-Serif" font-size="10.00">_th_mockVendor.c</text>
</a>
</g>
</g>
<!-- Node1&#45;&gt;Node3 -->
<g id="edge2" class="edge">
<title>Node1&#45;&gt;Node3</title>
<path fill="none" stroke="midnightblue" d="M1425.52,-215.87C1186.89,-216.3 365.63,-209.46 133,-98 101.74,-83.02 76.42,-49.79 63.77,-30.71"/>
<polygon fill="midnightblue" stroke="midnightblue" points="1425.78,-219.37 1435.78,-215.85 1425.77,-212.37 1425.78,-219.37"/>
</g>
<!-- Node4 -->
<g id="node4" class="node">
<title>Node4</title>
<g id="a_node4"><a xlink:href="wld__th__radio_8h.html" target="_top" xlink:title=" ">
<polygon fill="white" stroke="black" points="1220,-134.5 1220,-164.5 1330,-164.5 1330,-134.5 1220,-134.5"/>
<text text-anchor="start" x="1228" y="-152.5" font-family="Helvetica,sans-Serif" font-size="10.00">test/testHelper/wld</text>
<text text-anchor="middle" x="1275" y="-141.5" font-family="Helvetica,sans-Serif" font-size="10.00">_th_radio.h</text>
</a>
</g>
</g>
<!-- Node1&#45;&gt;Node4 -->
<g id="edge3" class="edge">
<title>Node1&#45;&gt;Node4</title>
<path fill="none" stroke="midnightblue" d="M1434.77,-198.58C1399.69,-188.02 1355.06,-174.59 1321.89,-164.61"/>
<polygon fill="midnightblue" stroke="midnightblue" points="1433.81,-201.95 1444.4,-201.48 1435.83,-195.24 1433.81,-201.95"/>
</g>
<!-- Node26 -->
<g id="node26" class="node">
<title>Node26</title>
<g id="a_node26"><a xlink:href="wld__th__vap_8h.html" target="_top" xlink:title=" ">
<polygon fill="white" stroke="black" points="1739,-134.5 1739,-164.5 1849,-164.5 1849,-134.5 1739,-134.5"/>
<text text-anchor="start" x="1747" y="-152.5" font-family="Helvetica,sans-Serif" font-size="10.00">test/testHelper/wld</text>
<text text-anchor="middle" x="1794" y="-141.5" font-family="Helvetica,sans-Serif" font-size="10.00">_th_vap.h</text>
</a>
</g>
</g>
<!-- Node1&#45;&gt;Node26 -->
<g id="edge45" class="edge">
<title>Node1&#45;&gt;Node26</title>
<path fill="none" stroke="midnightblue" d="M1556.12,-201.53C1610.59,-189.84 1687.44,-173.36 1738.9,-162.32"/>
<polygon fill="midnightblue" stroke="midnightblue" points="1555.27,-198.13 1546.22,-203.65 1556.73,-204.98 1555.27,-198.13"/>
</g>
<!-- Node4&#45;&gt;Node2 -->
<g id="edge26" class="edge">
<title>Node4&#45;&gt;Node2</title>
<path fill="none" stroke="midnightblue" d="M1340.25,-139.27C1405.42,-129.82 1508.37,-114.25 1597,-98 1601.45,-97.18 1606.06,-96.3 1610.69,-95.39"/>
<polygon fill="midnightblue" stroke="midnightblue" points="1339.52,-135.84 1330.13,-140.74 1340.53,-142.77 1339.52,-135.84"/>
</g>
<!-- Node4&#45;&gt;Node3 -->
<g id="edge27" class="edge">
<title>Node4&#45;&gt;Node3</title>
<path fill="none" stroke="midnightblue" d="M1209.58,-149.05C1008.46,-150.15 401.49,-149.05 212,-98 159.22,-83.78 103.93,-49.93 75.14,-30.63"/>
<polygon fill="midnightblue" stroke="midnightblue" points="1209.72,-152.54 1219.7,-148.99 1209.67,-145.54 1209.72,-152.54"/>
</g>
<!-- Node5 -->
<g id="node5" class="node">
<title>Node5</title>
<g id="a_node5"><a xlink:href="test__fta_8c.html" target="_top" xlink:title=" ">
<polygon fill="white" stroke="black" points="1782.5,-6 1782.5,-25 1881.5,-25 1881.5,-6 1782.5,-6"/>
<text text-anchor="middle" x="1832" y="-13" font-family="Helvetica,sans-Serif" font-size="10.00">test/fta/test_fta.c</text>
</a>
</g>
</g>
<!-- Node4&#45;&gt;Node5 -->
<g id="edge4" class="edge">
<title>Node4&#45;&gt;Node5</title>
<path fill="none" stroke="midnightblue" d="M1314.33,-129.79C1332.5,-120.75 1354.18,-109.4 1373,-98 1393.46,-85.6 1394.59,-75.37 1417,-67 1565.99,-11.38 1616.29,-58.04 1773,-31 1782.04,-29.44 1791.75,-27.26 1800.63,-25.07"/>
<polygon fill="midnightblue" stroke="midnightblue" points="1312.6,-126.74 1305.17,-134.29 1315.69,-133.02 1312.6,-126.74"/>
</g>
<!-- Node6 -->
<g id="node6" class="node">
<title>Node6</title>
<g id="a_node6"><a xlink:href="test__enableSync_8c.html" target="_top" xlink:title=" ">
<polygon fill="white" stroke="black" points="1899.5,-0.5 1899.5,-30.5 2012.5,-30.5 2012.5,-0.5 1899.5,-0.5"/>
<text text-anchor="start" x="1907.5" y="-18.5" font-family="Helvetica,sans-Serif" font-size="10.00">test/testEnableSync</text>
<text text-anchor="middle" x="1956" y="-7.5" font-family="Helvetica,sans-Serif" font-size="10.00">/test_enableSync.c</text>
</a>
</g>
</g>
<!-- Node4&#45;&gt;Node6 -->
<g id="edge5" class="edge">
<title>Node4&#45;&gt;Node6</title>
<path fill="none" stroke="midnightblue" d="M1329.78,-131.1C1354.55,-122.42 1383.84,-110.99 1409,-98 1430.91,-86.69 1431.74,-75.17 1455,-67 1638.46,-2.58 1698.77,-60.24 1891,-31 1893.74,-30.58 1896.54,-30.12 1899.37,-29.61"/>
<polygon fill="midnightblue" stroke="midnightblue" points="1328.49,-127.84 1320.18,-134.41 1330.77,-134.46 1328.49,-127.84"/>
</g>
<!-- Node7 -->
<g id="node7" class="node">
<title>Node7</title>
<g id="a_node7"><a xlink:href="test__fullScan_8c.html" target="_top" xlink:title=" ">
<polygon fill="white" stroke="black" points="556.5,-0.5 556.5,-30.5 675.5,-30.5 675.5,-0.5 556.5,-0.5"/>
<text text-anchor="start" x="564.5" y="-18.5" font-family="Helvetica,sans-Serif" font-size="10.00">test/testFullScan/test</text>
<text text-anchor="middle" x="616" y="-7.5" font-family="Helvetica,sans-Serif" font-size="10.00">_fullScan.c</text>
</a>
</g>
</g>
<!-- Node4&#45;&gt;Node7 -->
<g id="edge6" class="edge">
<title>Node4&#45;&gt;Node7</title>
<path fill="none" stroke="midnightblue" d="M1209.59,-143.81C1130.05,-137.29 992.05,-123.32 876,-98 795.12,-80.35 703.32,-48.75 653.32,-30.51"/>
<polygon fill="midnightblue" stroke="midnightblue" points="1209.69,-147.33 1219.94,-144.65 1210.25,-140.35 1209.69,-147.33"/>
</g>
<!-- Node8 -->
<g id="node8" class="node">
<title>Node8</title>
<g id="a_node8"><a xlink:href="wld__th__dm_8c.html" target="_top" xlink:title=" ">
<polygon fill="white" stroke="black" points="2031,-0.5 2031,-30.5 2141,-30.5 2141,-0.5 2031,-0.5"/>
<text text-anchor="start" x="2039" y="-18.5" font-family="Helvetica,sans-Serif" font-size="10.00">test/testHelper/wld</text>
<text text-anchor="middle" x="2086" y="-7.5" font-family="Helvetica,sans-Serif" font-size="10.00">_th_dm.c</text>
</a>
</g>
</g>
<!-- Node4&#45;&gt;Node8 -->
<g id="edge7" class="edge">
<title>Node4&#45;&gt;Node8</title>
<path fill="none" stroke="midnightblue" d="M1339.92,-134.16C1372.59,-125.75 1412.29,-113.67 1446,-98 1468.69,-87.45 1469.29,-75 1493,-67 1716.28,8.36 1788.83,-65.14 2022,-31 2024.93,-30.57 2027.93,-30.08 2030.94,-29.54"/>
<polygon fill="midnightblue" stroke="midnightblue" points="1338.87,-130.82 1330.02,-136.65 1340.58,-137.6 1338.87,-130.82"/>
</g>
<!-- Node9 -->
<g id="node9" class="node">
<title>Node9</title>
<g id="a_node9"><a xlink:href="wld__th__dm_8h.html" target="_top" xlink:title=" ">
<polygon fill="white" stroke="black" points="1179,-67.5 1179,-97.5 1289,-97.5 1289,-67.5 1179,-67.5"/>
<text text-anchor="start" x="1187" y="-85.5" font-family="Helvetica,sans-Serif" font-size="10.00">test/testHelper/wld</text>
<text text-anchor="middle" x="1234" y="-74.5" font-family="Helvetica,sans-Serif" font-size="10.00">_th_dm.h</text>
</a>
</g>
</g>
<!-- Node4&#45;&gt;Node9 -->
<g id="edge8" class="edge">
<title>Node4&#45;&gt;Node9</title>
<path fill="none" stroke="midnightblue" d="M1260.72,-125.87C1254.79,-116.46 1248.09,-105.83 1242.88,-97.58"/>
<polygon fill="midnightblue" stroke="midnightblue" points="1257.81,-127.81 1266.1,-134.4 1263.73,-124.07 1257.81,-127.81"/>
</g>
<!-- Node11 -->
<g id="node11" class="node">
<title>Node11</title>
<g id="a_node11"><a xlink:href="test__macFiltering_8c.html" target="_top" xlink:title=" ">
<polygon fill="white" stroke="black" points="2159.5,-0.5 2159.5,-30.5 2276.5,-30.5 2276.5,-0.5 2159.5,-0.5"/>
<text text-anchor="start" x="2167.5" y="-18.5" font-family="Helvetica,sans-Serif" font-size="10.00">test/testMacFiltering</text>
<text text-anchor="middle" x="2218" y="-7.5" font-family="Helvetica,sans-Serif" font-size="10.00">/test_macFiltering.c</text>
</a>
</g>
</g>
<!-- Node4&#45;&gt;Node11 -->
<g id="edge34" class="edge">
<title>Node4&#45;&gt;Node11</title>
<path fill="none" stroke="midnightblue" d="M1340.13,-138.49C1382.06,-130.65 1437.11,-117.72 1483,-98 1506.33,-87.97 1506.86,-74.89 1531,-67 1661.98,-24.21 2013.45,-49.42 2150,-31 2153.11,-30.58 2156.29,-30.1 2159.49,-29.57"/>
<polygon fill="midnightblue" stroke="midnightblue" points="1339.25,-135.09 1330.04,-140.33 1340.5,-141.98 1339.25,-135.09"/>
</g>
<!-- Node12 -->
<g id="node12" class="node">
<title>Node12</title>
<g id="a_node12"><a xlink:href="test__neighborAp_8c.html" target="_top" xlink:title=" ">
<polygon fill="white" stroke="black" points="2295,-0.5 2295,-30.5 2409,-30.5 2409,-0.5 2295,-0.5"/>
<text text-anchor="start" x="2303" y="-18.5" font-family="Helvetica,sans-Serif" font-size="10.00">test/testNeighborAp</text>
<text text-anchor="middle" x="2352" y="-7.5" font-family="Helvetica,sans-Serif" font-size="10.00">/test_neighborAp.c</text>
</a>
</g>
</g>
<!-- Node4&#45;&gt;Node12 -->
<g id="edge35" class="edge">
<title>Node4&#45;&gt;Node12</title>
<path fill="none" stroke="midnightblue" d="M1340.62,-141.74C1391.32,-134.94 1462.48,-121.92 1521,-98 1544.51,-88.39 1544.83,-74.79 1569,-67 1720.84,-18.06 2127.88,-52.19 2286,-31 2288.91,-30.61 2291.88,-30.16 2294.87,-29.66"/>
<polygon fill="midnightblue" stroke="midnightblue" points="1339.92,-138.3 1330.45,-143.06 1340.81,-145.25 1339.92,-138.3"/>
</g>
<!-- Node13 -->
<g id="node13" class="node">
<title>Node13</title>
<g id="a_node13"><a xlink:href="test__radio11be_8c.html" target="_top" xlink:title=" ">
<polygon fill="white" stroke="black" points="971.5,-0.5 971.5,-30.5 1080.5,-30.5 1080.5,-0.5 971.5,-0.5"/>
<text text-anchor="start" x="979.5" y="-18.5" font-family="Helvetica,sans-Serif" font-size="10.00">test/testRadio11be</text>
<text text-anchor="middle" x="1026" y="-7.5" font-family="Helvetica,sans-Serif" font-size="10.00">/test_radio11be.c</text>
</a>
</g>
</g>
<!-- Node4&#45;&gt;Node13 -->
<g id="edge36" class="edge">
<title>Node4&#45;&gt;Node13</title>
<path fill="none" stroke="midnightblue" d="M1209.51,-148.06C1163.22,-144.47 1102.31,-132.69 1061,-98 1040.36,-80.67 1031.58,-48.95 1028.1,-30.61"/>
<polygon fill="midnightblue" stroke="midnightblue" points="1209.53,-151.57 1219.74,-148.74 1210,-144.59 1209.53,-151.57"/>
</g>
<!-- Node14 -->
<g id="node14" class="node">
<title>Node14</title>
<g id="a_node14"><a xlink:href="test__radioStatus_8c.html" target="_top" xlink:title=" ">
<polygon fill="white" stroke="black" points="2427,-0.5 2427,-30.5 2543,-30.5 2543,-0.5 2427,-0.5"/>
<text text-anchor="start" x="2435" y="-18.5" font-family="Helvetica,sans-Serif" font-size="10.00">test/testRadioStatus</text>
<text text-anchor="middle" x="2485" y="-7.5" font-family="Helvetica,sans-Serif" font-size="10.00">/test_radioStatus.c</text>
</a>
</g>
</g>
<!-- Node4&#45;&gt;Node14 -->
<g id="edge37" class="edge">
<title>Node4&#45;&gt;Node14</title>
<path fill="none" stroke="midnightblue" d="M1340.5,-145.15C1399.63,-140.22 1487.97,-128.06 1559,-98 1580.7,-88.82 1579.74,-74.73 1602,-67 1773.46,-7.43 2237.99,-54.28 2418,-31 2420.95,-30.62 2423.96,-30.17 2427,-29.68"/>
<polygon fill="midnightblue" stroke="midnightblue" points="1339.87,-141.69 1330.18,-145.96 1340.42,-148.67 1339.87,-141.69"/>
</g>
<!-- Node15 -->
<g id="node15" class="node">
<title>Node15</title>
<g id="a_node15"><a xlink:href="test__scanSsid_8c.html" target="_top" xlink:title=" ">
<polygon fill="white" stroke="black" points="694,-0.5 694,-30.5 816,-30.5 816,-0.5 694,-0.5"/>
<text text-anchor="start" x="702" y="-18.5" font-family="Helvetica,sans-Serif" font-size="10.00">test/testScanSsid/test</text>
<text text-anchor="middle" x="755" y="-7.5" font-family="Helvetica,sans-Serif" font-size="10.00">_scanSsid.c</text>
</a>
</g>
</g>
<!-- Node4&#45;&gt;Node15 -->
<g id="edge38" class="edge">
<title>Node4&#45;&gt;Node15</title>
<path fill="none" stroke="midnightblue" d="M1209.67,-141.49C1147.37,-133.91 1051.25,-119.89 970,-98 902.74,-79.88 827.28,-48.59 786.05,-30.51"/>
<polygon fill="midnightblue" stroke="midnightblue" points="1209.41,-144.98 1219.76,-142.69 1210.24,-138.03 1209.41,-144.98"/>
</g>
<!-- Node16 -->
<g id="node16" class="node">
<title>Node16</title>
<g id="a_node16"><a xlink:href="test__staStats_8c.html" target="_top" xlink:title=" ">
<polygon fill="white" stroke="black" points="834.5,-0.5 834.5,-30.5 953.5,-30.5 953.5,-0.5 834.5,-0.5"/>
<text text-anchor="start" x="842.5" y="-18.5" font-family="Helvetica,sans-Serif" font-size="10.00">test/testStaStats/test</text>
<text text-anchor="middle" x="894" y="-7.5" font-family="Helvetica,sans-Serif" font-size="10.00">_staStats.c</text>
</a>
</g>
</g>
<!-- Node4&#45;&gt;Node16 -->
<g id="edge39" class="edge">
<title>Node4&#45;&gt;Node16</title>
<path fill="none" stroke="midnightblue" d="M1209.55,-140.44C1160.38,-133.04 1091.98,-119.82 1035,-98 989.06,-80.4 940.43,-49.08 913.99,-30.81"/>
<polygon fill="midnightblue" stroke="midnightblue" points="1209.34,-143.95 1219.74,-141.94 1210.35,-137.02 1209.34,-143.95"/>
</g>
<!-- Node17 -->
<g id="node17" class="node">
<title>Node17</title>
<g id="a_node17"><a xlink:href="test__staStatsWiFi7_8c.html" target="_top" xlink:title=" ">
<polygon fill="white" stroke="black" points="1098.5,-0.5 1098.5,-30.5 1223.5,-30.5 1223.5,-0.5 1098.5,-0.5"/>
<text text-anchor="start" x="1106.5" y="-18.5" font-family="Helvetica,sans-Serif" font-size="10.00">test/testStaStatsWiFi7</text>
<text text-anchor="middle" x="1161" y="-7.5" font-family="Helvetica,sans-Serif" font-size="10.00">/test_staStatsWiFi7.c</text>
</a>
</g>
</g>
<!-- Node4&#45;&gt;Node17 -->
<g id="edge40" class="edge">
<title>Node4&#45;&gt;Node17</title>
<path fill="none" stroke="midnightblue" d="M1209.78,-141.05C1182.62,-134.36 1153.6,-121.75 1137,-98 1122.55,-77.33 1138.11,-47.91 1150.04,-30.65"/>
<polygon fill="midnightblue" stroke="midnightblue" points="1209.16,-144.5 1219.68,-143.25 1210.68,-137.66 1209.16,-144.5"/>
</g>
<!-- Node18 -->
<g id="node18" class="node">
<title>Node18</title>
<g id="a_node18"><a xlink:href="test__wifiObjReference_8c.html" target="_top" xlink:title=" ">
<polygon fill="white" stroke="black" points="394,-0.5 394,-30.5 538,-30.5 538,-0.5 394,-0.5"/>
<text text-anchor="start" x="402" y="-18.5" font-family="Helvetica,sans-Serif" font-size="10.00">test/testWiFiObjReference</text>
<text text-anchor="middle" x="466" y="-7.5" font-family="Helvetica,sans-Serif" font-size="10.00">/test_wifiObjReference.c</text>
</a>
</g>
</g>
<!-- Node4&#45;&gt;Node18 -->
<g id="edge41" class="edge">
<title>Node4&#45;&gt;Node18</title>
<path fill="none" stroke="midnightblue" d="M1209.6,-145.6C1111.78,-140.47 921.84,-127.41 763,-98 670.73,-80.92 565.39,-48.95 508.26,-30.54"/>
<polygon fill="midnightblue" stroke="midnightblue" points="1209.47,-149.1 1219.64,-146.12 1209.83,-142.11 1209.47,-149.1"/>
</g>
<!-- Node20 -->
<g id="node20" class="node">
<title>Node20</title>
<g id="a_node20"><a xlink:href="test__wld__rad__chanMgt_8c.html" target="_top" xlink:title=" ">
<polygon fill="white" stroke="black" points="1496.5,-0.5 1496.5,-30.5 1621.5,-30.5 1621.5,-0.5 1496.5,-0.5"/>
<text text-anchor="start" x="1504.5" y="-18.5" font-family="Helvetica,sans-Serif" font-size="10.00">test/wld_chanMgt/test</text>
<text text-anchor="middle" x="1559" y="-7.5" font-family="Helvetica,sans-Serif" font-size="10.00">_wld_rad_chanMgt.c</text>
</a>
</g>
</g>
<!-- Node4&#45;&gt;Node20 -->
<g id="edge42" class="edge">
<title>Node4&#45;&gt;Node20</title>
<path fill="none" stroke="midnightblue" d="M1287.73,-125.49C1299.24,-106.87 1317.89,-81.45 1341,-67 1347.71,-62.8 1434.26,-43.48 1496.25,-29.99"/>
<polygon fill="midnightblue" stroke="midnightblue" points="1284.62,-123.87 1282.53,-134.26 1290.64,-127.45 1284.62,-123.87"/>
</g>
<!-- Node21 -->
<g id="node21" class="node">
<title>Node21</title>
<g id="a_node21"><a xlink:href="test__wld__fsm_8c.html" target="_top" xlink:title=" ">
<polygon fill="white" stroke="black" points="1640,-0.5 1640,-30.5 1764,-30.5 1764,-0.5 1640,-0.5"/>
<text text-anchor="start" x="1648" y="-18.5" font-family="Helvetica,sans-Serif" font-size="10.00">test/wld_fsm/test_wld</text>
<text text-anchor="middle" x="1702" y="-7.5" font-family="Helvetica,sans-Serif" font-size="10.00">_fsm.c</text>
</a>
</g>
</g>
<!-- Node4&#45;&gt;Node21 -->
<g id="edge43" class="edge">
<title>Node4&#45;&gt;Node21</title>
<path fill="none" stroke="midnightblue" d="M1300.33,-128.12C1329.64,-104.61 1374.49,-68.92 1379,-67 1483.06,-22.6 1519.53,-50.33 1631,-31 1633.85,-30.51 1636.76,-29.98 1639.7,-29.44"/>
<polygon fill="midnightblue" stroke="midnightblue" points="1298.13,-125.4 1292.52,-134.39 1302.51,-130.86 1298.13,-125.4"/>
</g>
<!-- Node22 -->
<g id="node22" class="node">
<title>Node22</title>
<g id="a_node22"><a xlink:href="test__wld__sensing_8c.html" target="_top" xlink:title=" ">
<polygon fill="white" stroke="black" points="256,-0.5 256,-30.5 376,-30.5 376,-0.5 256,-0.5"/>
<text text-anchor="start" x="264" y="-18.5" font-family="Helvetica,sans-Serif" font-size="10.00">test/wld_sensing/test</text>
<text text-anchor="middle" x="316" y="-7.5" font-family="Helvetica,sans-Serif" font-size="10.00">_wld_sensing.c</text>
</a>
</g>
</g>
<!-- Node4&#45;&gt;Node22 -->
<g id="edge44" class="edge">
<title>Node4&#45;&gt;Node22</title>
<path fill="none" stroke="midnightblue" d="M1209.73,-147.26C1092.35,-144.17 838.16,-133.6 627,-98 529.99,-81.64 419.15,-49.18 359.5,-30.54"/>
<polygon fill="midnightblue" stroke="midnightblue" points="1209.89,-150.76 1219.98,-147.52 1210.07,-143.77 1209.89,-150.76"/>
</g>
<!-- Node23 -->
<g id="node23" class="node">
<title>Node23</title>
<g id="a_node23"><a xlink:href="wld__th__radio_8c.html" target="_top" xlink:title=" ">
<polygon fill="white" stroke="black" points="1739,-67.5 1739,-97.5 1849,-97.5 1849,-67.5 1739,-67.5"/>
<text text-anchor="start" x="1747" y="-85.5" font-family="Helvetica,sans-Serif" font-size="10.00">test/testHelper/wld</text>
<text text-anchor="middle" x="1794" y="-74.5" font-family="Helvetica,sans-Serif" font-size="10.00">_th_radio.c</text>
</a>
</g>
</g>
<!-- Node4&#45;&gt;Node23 -->
<g id="edge28" class="edge">
<title>Node4&#45;&gt;Node23</title>
<path fill="none" stroke="midnightblue" d="M1340.43,-143.56C1429.12,-136.34 1592.22,-121.18 1730,-98 1732.92,-97.51 1735.91,-96.97 1738.92,-96.39"/>
<polygon fill="midnightblue" stroke="midnightblue" points="1339.94,-140.09 1330.26,-144.38 1340.51,-147.07 1339.94,-140.09"/>
</g>
<!-- Node24 -->
<g id="node24" class="node">
<title>Node24</title>
<g id="a_node24"><a xlink:href="wld__th__sensing_8c.html" target="_top" xlink:title=" ">
<polygon fill="white" stroke="black" points="128,-0.5 128,-30.5 238,-30.5 238,-0.5 128,-0.5"/>
<text text-anchor="start" x="136" y="-18.5" font-family="Helvetica,sans-Serif" font-size="10.00">test/testHelper/wld</text>
<text text-anchor="middle" x="183" y="-7.5" font-family="Helvetica,sans-Serif" font-size="10.00">_th_sensing.c</text>
</a>
</g>
</g>
<!-- Node4&#45;&gt;Node24 -->
<g id="edge29" class="edge">
<title>Node4&#45;&gt;Node24</title>
<path fill="none" stroke="midnightblue" d="M1209.69,-148.31C997.53,-147.26 336.42,-140.57 251,-98 221.64,-83.37 200.24,-49.68 189.92,-30.51"/>
<polygon fill="midnightblue" stroke="midnightblue" points="1209.73,-151.81 1219.75,-148.35 1209.77,-144.81 1209.73,-151.81"/>
</g>
<!-- Node25 -->
<g id="node25" class="node">
<title>Node25</title>
<g id="a_node25"><a xlink:href="wld__th__sensing_8h.html" target="_top" xlink:title=" ">
<polygon fill="white" stroke="black" points="260,-67.5 260,-97.5 370,-97.5 370,-67.5 260,-67.5"/>
<text text-anchor="start" x="268" y="-85.5" font-family="Helvetica,sans-Serif" font-size="10.00">test/testHelper/wld</text>
<text text-anchor="middle" x="315" y="-74.5" font-family="Helvetica,sans-Serif" font-size="10.00">_th_sensing.h</text>
</a>
</g>
</g>
<!-- Node4&#45;&gt;Node25 -->
<g id="edge30" class="edge">
<title>Node4&#45;&gt;Node25</title>
<path fill="none" stroke="midnightblue" d="M1209.61,-146.45C1066.05,-141.57 712.62,-127.37 418,-98 402.46,-96.45 385.66,-94.29 370.23,-92.11"/>
<polygon fill="midnightblue" stroke="midnightblue" points="1209.87,-149.97 1219.98,-146.8 1210.11,-142.97 1209.87,-149.97"/>
</g>
<!-- Node9&#45;&gt;Node5 -->
<g id="edge9" class="edge">
<title>Node9&#45;&gt;Node5</title>
<path fill="none" stroke="midnightblue" d="M1299.16,-74.86C1324.13,-72.35 1352.88,-69.5 1379,-67 1554.04,-50.25 1599.58,-60.06 1773,-31 1782.15,-29.47 1791.99,-27.27 1800.95,-25.06"/>
<polygon fill="midnightblue" stroke="midnightblue" points="1298.67,-71.4 1289.07,-75.88 1299.37,-78.36 1298.67,-71.4"/>
</g>
<!-- Node9&#45;&gt;Node6 -->
<g id="edge11" class="edge">
<title>Node9&#45;&gt;Node6</title>
<path fill="none" stroke="midnightblue" d="M1299.32,-76.27C1334.24,-73.49 1377.96,-70.03 1417,-67 1627.64,-50.66 1682.03,-62.08 1891,-31 1893.74,-30.59 1896.55,-30.13 1899.37,-29.64"/>
<polygon fill="midnightblue" stroke="midnightblue" points="1298.94,-72.79 1289.25,-77.07 1299.5,-79.77 1298.94,-72.79"/>
</g>
<!-- Node9&#45;&gt;Node7 -->
<g id="edge12" class="edge">
<title>Node9&#45;&gt;Node7</title>
<path fill="none" stroke="midnightblue" d="M1168.77,-76.45C1044.2,-66.65 776.71,-44.81 685,-31 681.97,-30.54 678.88,-30.04 675.76,-29.5"/>
<polygon fill="midnightblue" stroke="midnightblue" points="1168.68,-79.95 1178.93,-77.25 1169.23,-72.98 1168.68,-79.95"/>
</g>
<!-- Node9&#45;&gt;Node8 -->
<g id="edge13" class="edge">
<title>Node9&#45;&gt;Node8</title>
<path fill="none" stroke="midnightblue" d="M1299.39,-77.17C1343.38,-74.27 1402.67,-70.38 1455,-67 1706.98,-50.73 1772.07,-67.01 2022,-31 2024.93,-30.58 2027.93,-30.09 2030.95,-29.56"/>
<polygon fill="midnightblue" stroke="midnightblue" points="1299.15,-73.68 1289.4,-77.83 1299.61,-80.67 1299.15,-73.68"/>
</g>
<!-- Node10 -->
<g id="node10" class="node">
<title>Node10</title>
<g id="a_node10"><a xlink:href="test__startStop_8c.html" target="_top" xlink:title=" ">
<polygon fill="white" stroke="black" points="1374,-0.5 1374,-30.5 1478,-30.5 1478,-0.5 1374,-0.5"/>
<text text-anchor="start" x="1382" y="-18.5" font-family="Helvetica,sans-Serif" font-size="10.00">test/startStop/test</text>
<text text-anchor="middle" x="1426" y="-7.5" font-family="Helvetica,sans-Serif" font-size="10.00">_startStop.c</text>
</a>
</g>
</g>
<!-- Node9&#45;&gt;Node10 -->
<g id="edge10" class="edge">
<title>Node9&#45;&gt;Node10</title>
<path fill="none" stroke="midnightblue" d="M1285.42,-64.09C1316.42,-53.6 1355.38,-40.41 1384.42,-30.58"/>
<polygon fill="midnightblue" stroke="midnightblue" points="1284.01,-60.87 1275.66,-67.4 1286.26,-67.5 1284.01,-60.87"/>
</g>
<!-- Node9&#45;&gt;Node11 -->
<g id="edge14" class="edge">
<title>Node9&#45;&gt;Node11</title>
<path fill="none" stroke="midnightblue" d="M1299.23,-77.83C1351.6,-74.88 1427.03,-70.65 1493,-67 1784.99,-50.83 1860.12,-69.61 2150,-31 2153.11,-30.59 2156.29,-30.11 2159.5,-29.58"/>
<polygon fill="midnightblue" stroke="midnightblue" points="1298.86,-74.34 1289.07,-78.4 1299.25,-81.33 1298.86,-74.34"/>
</g>
<!-- Node9&#45;&gt;Node12 -->
<g id="edge15" class="edge">
<title>Node9&#45;&gt;Node12</title>
<path fill="none" stroke="midnightblue" d="M1299.13,-78.3C1359.3,-75.35 1451.18,-70.85 1531,-67 1866.55,-50.81 1952.98,-75.2 2286,-31 2288.91,-30.61 2291.88,-30.17 2294.87,-29.67"/>
<polygon fill="midnightblue" stroke="midnightblue" points="1298.83,-74.81 1289.01,-78.8 1299.17,-81.8 1298.83,-74.81"/>
</g>
<!-- Node9&#45;&gt;Node13 -->
<g id="edge16" class="edge">
<title>Node9&#45;&gt;Node13</title>
<path fill="none" stroke="midnightblue" d="M1179.42,-64.44C1145.7,-53.91 1102.96,-40.55 1071.15,-30.61"/>
<polygon fill="midnightblue" stroke="midnightblue" points="1178.53,-67.83 1189.12,-67.48 1180.62,-61.15 1178.53,-67.83"/>
</g>
<!-- Node9&#45;&gt;Node14 -->
<g id="edge17" class="edge">
<title>Node9&#45;&gt;Node14</title>
<path fill="none" stroke="midnightblue" d="M1299.19,-78.66C1366.7,-75.73 1475.23,-71.02 1569,-67 1946.33,-50.83 2043.41,-79.12 2418,-31 2420.83,-30.64 2423.72,-30.21 2426.64,-29.74"/>
<polygon fill="midnightblue" stroke="midnightblue" points="1298.97,-75.17 1289.13,-79.1 1299.27,-82.16 1298.97,-75.17"/>
</g>
<!-- Node9&#45;&gt;Node15 -->
<g id="edge18" class="edge">
<title>Node9&#45;&gt;Node15</title>
<path fill="none" stroke="midnightblue" d="M1168.68,-75.01C1087.92,-66.62 946.4,-50.71 826,-31 822.77,-30.47 819.47,-29.9 816.13,-29.3"/>
<polygon fill="midnightblue" stroke="midnightblue" points="1168.39,-78.5 1178.7,-76.04 1169.11,-71.53 1168.39,-78.5"/>
</g>
<!-- Node9&#45;&gt;Node16 -->
<g id="edge19" class="edge">
<title>Node9&#45;&gt;Node16</title>
<path fill="none" stroke="midnightblue" d="M1168.96,-69.81C1114.01,-59.83 1033.27,-44.93 963,-31 960,-30.4 956.92,-29.79 953.82,-29.16"/>
<polygon fill="midnightblue" stroke="midnightblue" points="1168.45,-73.28 1178.91,-71.62 1169.7,-66.39 1168.45,-73.28"/>
</g>
<!-- Node9&#45;&gt;Node17 -->
<g id="edge20" class="edge">
<title>Node9&#45;&gt;Node17</title>
<path fill="none" stroke="midnightblue" d="M1210.53,-60.6C1199.5,-50.78 1186.66,-39.34 1176.81,-30.58"/>
<polygon fill="midnightblue" stroke="midnightblue" points="1208.36,-63.36 1218.16,-67.4 1213.02,-58.13 1208.36,-63.36"/>
</g>
<!-- Node9&#45;&gt;Node18 -->
<g id="edge21" class="edge">
<title>Node9&#45;&gt;Node18</title>
<path fill="none" stroke="midnightblue" d="M1168.59,-77.08C1008.88,-66.24 607.59,-38.63 547,-31 544.17,-30.64 541.28,-30.25 538.37,-29.84"/>
<polygon fill="midnightblue" stroke="midnightblue" points="1168.54,-80.59 1178.76,-77.77 1169.02,-73.6 1168.54,-80.59"/>
</g>
<!-- Node19 -->
<g id="node19" class="node">
<title>Node19</title>
<g id="a_node19"><a xlink:href="test__channel5G_8c.html" target="_top" xlink:title=" ">
<polygon fill="white" stroke="black" points="1242,-0.5 1242,-30.5 1356,-30.5 1356,-0.5 1242,-0.5"/>
<text text-anchor="start" x="1250" y="-18.5" font-family="Helvetica,sans-Serif" font-size="10.00">test/test_channel5G</text>
<text text-anchor="middle" x="1299" y="-7.5" font-family="Helvetica,sans-Serif" font-size="10.00">/test_channel5G.c</text>
</a>
</g>
</g>
<!-- Node9&#45;&gt;Node19 -->
<g id="edge22" class="edge">
<title>Node9&#45;&gt;Node19</title>
<path fill="none" stroke="midnightblue" d="M1255.19,-60.31C1264.94,-50.56 1276.24,-39.26 1284.92,-30.58"/>
<polygon fill="midnightblue" stroke="midnightblue" points="1252.7,-57.85 1248.1,-67.4 1257.65,-62.8 1252.7,-57.85"/>
</g>
<!-- Node9&#45;&gt;Node20 -->
<g id="edge23" class="edge">
<title>Node9&#45;&gt;Node20</title>
<path fill="none" stroke="midnightblue" d="M1299.22,-67.77C1300.49,-67.51 1301.75,-67.25 1303,-67 1384.66,-50.43 1405.27,-47.23 1487,-31 1490,-30.4 1493.07,-29.79 1496.18,-29.17"/>
<polygon fill="midnightblue" stroke="midnightblue" points="1298.44,-64.36 1289.35,-69.8 1299.85,-71.21 1298.44,-64.36"/>
</g>
<!-- Node9&#45;&gt;Node21 -->
<g id="edge24" class="edge">
<title>Node9&#45;&gt;Node21</title>
<path fill="none" stroke="midnightblue" d="M1299.16,-72.55C1312.97,-70.69 1327.46,-68.76 1341,-67 1469.8,-50.28 1502.83,-52.01 1631,-31 1633.86,-30.53 1636.77,-30.03 1639.71,-29.51"/>
<polygon fill="midnightblue" stroke="midnightblue" points="1298.68,-69.08 1289.24,-73.89 1299.62,-76.02 1298.68,-69.08"/>
</g>
<!-- Node9&#45;&gt;Node22 -->
<g id="edge25" class="edge">
<title>Node9&#45;&gt;Node22</title>
<path fill="none" stroke="midnightblue" d="M1168.62,-77.07C1124.63,-74.12 1065.34,-70.22 1013,-67 733.96,-49.85 662.13,-67.85 385,-31 382.09,-30.61 379.12,-30.17 376.12,-29.69"/>
<polygon fill="midnightblue" stroke="midnightblue" points="1168.39,-80.56 1178.61,-77.74 1168.86,-73.58 1168.39,-80.56"/>
</g>
<!-- Node25&#45;&gt;Node3 -->
<g id="edge31" class="edge">
<title>Node25&#45;&gt;Node3</title>
<path fill="none" stroke="midnightblue" d="M250.03,-65.26C206.93,-54.48 150.97,-40.49 110.06,-30.26"/>
<polygon fill="midnightblue" stroke="midnightblue" points="249.31,-68.69 259.86,-67.72 251.01,-61.89 249.31,-68.69"/>
</g>
<!-- Node25&#45;&gt;Node22 -->
<g id="edge33" class="edge">
<title>Node25&#45;&gt;Node22</title>
<path fill="none" stroke="midnightblue" d="M315.38,-57.11C315.51,-48.15 315.66,-38.32 315.78,-30.58"/>
<polygon fill="midnightblue" stroke="midnightblue" points="311.87,-57.34 315.22,-67.4 318.87,-57.45 311.87,-57.34"/>
</g>
<!-- Node25&#45;&gt;Node24 -->
<g id="edge32" class="edge">
<title>Node25&#45;&gt;Node24</title>
<path fill="none" stroke="midnightblue" d="M277.13,-62.85C256.26,-52.58 230.77,-40.03 211.59,-30.58"/>
<polygon fill="midnightblue" stroke="midnightblue" points="275.84,-66.12 286.36,-67.4 278.93,-59.84 275.84,-66.12"/>
</g>
<!-- Node26&#45;&gt;Node2 -->
<g id="edge50" class="edge">
<title>Node26&#45;&gt;Node2</title>
<path fill="none" stroke="midnightblue" d="M1757.28,-129.85C1737.04,-119.58 1712.33,-107.03 1693.72,-97.58"/>
<polygon fill="midnightblue" stroke="midnightblue" points="1755.72,-132.99 1766.23,-134.4 1758.89,-126.75 1755.72,-132.99"/>
</g>
<!-- Node26&#45;&gt;Node3 -->
<g id="edge51" class="edge">
<title>Node26&#45;&gt;Node3</title>
<path fill="none" stroke="midnightblue" d="M1728.76,-146.41C1435.77,-137.03 255.55,-99.15 251,-98 221.14,-90.43 217.23,-79.34 189,-67 158.13,-53.51 122.4,-40.15 95.6,-30.57"/>
<polygon fill="midnightblue" stroke="midnightblue" points="1728.7,-149.91 1738.81,-146.73 1728.92,-142.91 1728.7,-149.91"/>
</g>
<!-- Node26&#45;&gt;Node5 -->
<g id="edge46" class="edge">
<title>Node26&#45;&gt;Node5</title>
<path fill="none" stroke="midnightblue" d="M1859.12,-140.35C1885.33,-133.51 1913.07,-120.97 1929,-98 1936.85,-86.68 1936.15,-78.78 1929,-67 1915.8,-45.25 1889.84,-32.43 1868.1,-25.16"/>
<polygon fill="midnightblue" stroke="midnightblue" points="1858.11,-136.99 1849.18,-142.7 1859.72,-143.81 1858.11,-136.99"/>
</g>
<!-- Node26&#45;&gt;Node6 -->
<g id="edge47" class="edge">
<title>Node26&#45;&gt;Node6</title>
<path fill="none" stroke="midnightblue" d="M1859.4,-142.38C1889.91,-136.05 1924.03,-123.36 1945,-98 1960.74,-78.97 1960.23,-48.44 1958.25,-30.64"/>
<polygon fill="midnightblue" stroke="midnightblue" points="1858.4,-139 1849.22,-144.29 1859.69,-145.88 1858.4,-139"/>
</g>
<!-- Node26&#45;&gt;Node8 -->
<g id="edge48" class="edge">
<title>Node26&#45;&gt;Node8</title>
<path fill="none" stroke="midnightblue" d="M1858.99,-134.3C1891.67,-125.92 1931.37,-113.83 1965,-98 2004.64,-79.34 2045.97,-48.68 2068.59,-30.76"/>
<polygon fill="midnightblue" stroke="midnightblue" points="1857.93,-130.95 1849.08,-136.78 1859.63,-137.74 1857.93,-130.95"/>
</g>
<!-- Node26&#45;&gt;Node9 -->
<g id="edge49" class="edge">
<title>Node26&#45;&gt;Node9</title>
<path fill="none" stroke="midnightblue" d="M1728.69,-140.92C1617.45,-128.01 1393.18,-101.98 1289.23,-89.91"/>
<polygon fill="midnightblue" stroke="midnightblue" points="1728.44,-144.41 1738.77,-142.09 1729.24,-137.46 1728.44,-144.41"/>
</g>
<!-- Node26&#45;&gt;Node11 -->
<g id="edge55" class="edge">
<title>Node26&#45;&gt;Node11</title>
<path fill="none" stroke="midnightblue" d="M1859.01,-135.24C1901.04,-126.11 1956.7,-112.95 2005,-98 2041.82,-86.6 2050,-80.78 2086,-67 2118.2,-54.68 2154.81,-40.67 2181.3,-30.54"/>
<polygon fill="midnightblue" stroke="midnightblue" points="1858.22,-131.83 1849.18,-137.36 1859.69,-138.68 1858.22,-131.83"/>
</g>
<!-- Node26&#45;&gt;Node12 -->
<g id="edge56" class="edge">
<title>Node26&#45;&gt;Node12</title>
<path fill="none" stroke="midnightblue" d="M1859.47,-148.88C1943.69,-147.52 2093.47,-138.82 2214,-98 2260.38,-82.29 2308.22,-49.66 2333.58,-30.8"/>
<polygon fill="midnightblue" stroke="midnightblue" points="1859.24,-145.38 1849.28,-149.01 1859.33,-152.38 1859.24,-145.38"/>
</g>
<!-- Node26&#45;&gt;Node13 -->
<g id="edge57" class="edge">
<title>Node26&#45;&gt;Node13</title>
<path fill="none" stroke="midnightblue" d="M1728.4,-147.41C1586.93,-144.4 1257.38,-133.66 1152,-98 1108.32,-83.22 1064.81,-49.92 1042.11,-30.77"/>
<polygon fill="midnightblue" stroke="midnightblue" points="1728.6,-150.91 1738.67,-147.62 1728.74,-143.91 1728.6,-150.91"/>
</g>
<!-- Node26&#45;&gt;Node14 -->
<g id="edge58" class="edge">
<title>Node26&#45;&gt;Node14</title>
<path fill="none" stroke="midnightblue" d="M1859.24,-146.3C1949.95,-142.14 2118.83,-130.4 2259,-98 2330.52,-81.47 2410.52,-49.15 2453.54,-30.56"/>
<polygon fill="midnightblue" stroke="midnightblue" points="1858.95,-142.81 1849.11,-146.75 1859.26,-149.8 1858.95,-142.81"/>
</g>
<!-- Node26&#45;&gt;Node16 -->
<g id="edge59" class="edge">
<title>Node26&#45;&gt;Node16</title>
<path fill="none" stroke="midnightblue" d="M1728.91,-146.53C1578.31,-141.53 1209.49,-126.68 1089,-98 1084.82,-97 982.16,-53.75 927.51,-30.67"/>
<polygon fill="midnightblue" stroke="midnightblue" points="1728.83,-150.03 1738.94,-146.86 1729.06,-143.03 1728.83,-150.03"/>
</g>
<!-- Node26&#45;&gt;Node17 -->
<g id="edge60" class="edge">
<title>Node26&#45;&gt;Node17</title>
<path fill="none" stroke="midnightblue" d="M1728.74,-147.83C1576.84,-145.62 1209.47,-136.33 1170,-98 1152.13,-80.64 1154.49,-48.93 1157.77,-30.6"/>
<polygon fill="midnightblue" stroke="midnightblue" points="1728.82,-151.33 1738.87,-147.97 1728.92,-144.33 1728.82,-151.33"/>
</g>
<!-- Node26&#45;&gt;Node20 -->
<g id="edge61" class="edge">
<title>Node26&#45;&gt;Node20</title>
<path fill="none" stroke="midnightblue" d="M1827.02,-128.58C1850.66,-111.85 1875.48,-87.47 1858,-67 1824.83,-28.16 1681.27,-40.04 1631,-31 1627.99,-30.46 1624.91,-29.89 1621.8,-29.31"/>
<polygon fill="midnightblue" stroke="midnightblue" points="1824.77,-125.88 1818.45,-134.38 1828.69,-131.68 1824.77,-125.88"/>
</g>
<!-- Node26&#45;&gt;Node21 -->
<g id="edge62" class="edge">
<title>Node26&#45;&gt;Node21</title>
<path fill="none" stroke="midnightblue" d="M1853.62,-130.09C1868.37,-122.56 1882.4,-112.18 1891,-98 1898.15,-86.22 1899.39,-77.93 1891,-67 1883.02,-56.61 1816.04,-40.41 1764.06,-29.17"/>
<polygon fill="midnightblue" stroke="midnightblue" points="1851.95,-127 1844.38,-134.42 1854.92,-133.34 1851.95,-127"/>
</g>
<!-- Node26&#45;&gt;Node22 -->
<g id="edge63" class="edge">
<title>Node26&#45;&gt;Node22</title>
<path fill="none" stroke="midnightblue" d="M1728.82,-146.47C1527.62,-139.48 898.87,-112.19 385,-31 382.1,-30.54 379.13,-30.04 376.14,-29.51"/>
<polygon fill="midnightblue" stroke="midnightblue" points="1728.81,-149.97 1738.93,-146.82 1729.05,-142.98 1728.81,-149.97"/>
</g>
<!-- Node26&#45;&gt;Node23 -->
<g id="edge52" class="edge">
<title>Node26&#45;&gt;Node23</title>
<path fill="none" stroke="midnightblue" d="M1794,-124.11C1794,-115.15 1794,-105.32 1794,-97.58"/>
<polygon fill="midnightblue" stroke="midnightblue" points="1790.5,-124.4 1794,-134.4 1797.5,-124.4 1790.5,-124.4"/>
</g>
<!-- Node26&#45;&gt;Node24 -->
<g id="edge53" class="edge">
<title>Node26&#45;&gt;Node24</title>
<path fill="none" stroke="midnightblue" d="M1728.76,-146.09C1501.89,-137.64 755.28,-109.28 648,-98 468.3,-79.1 424.3,-65.87 247,-31 244.09,-30.43 241.12,-29.82 238.12,-29.2"/>
<polygon fill="midnightblue" stroke="midnightblue" points="1728.73,-149.59 1738.85,-146.46 1728.99,-142.6 1728.73,-149.59"/>
</g>
<!-- Node27 -->
<g id="node27" class="node">
<title>Node27</title>
<g id="a_node27"><a xlink:href="wld__th__vap_8c.html" target="_top" xlink:title=" ">
<polygon fill="white" stroke="black" points="2095,-67.5 2095,-97.5 2205,-97.5 2205,-67.5 2095,-67.5"/>
<text text-anchor="start" x="2103" y="-85.5" font-family="Helvetica,sans-Serif" font-size="10.00">test/testHelper/wld</text>
<text text-anchor="middle" x="2150" y="-74.5" font-family="Helvetica,sans-Serif" font-size="10.00">_th_vap.c</text>
</a>
</g>
</g>
<!-- Node26&#45;&gt;Node27 -->
<g id="edge54" class="edge">
<title>Node26&#45;&gt;Node27</title>
<path fill="none" stroke="midnightblue" d="M1859.28,-137.64C1917.53,-127.81 2005.08,-112.65 2081,-98 2085.45,-97.14 2090.05,-96.23 2094.67,-95.29"/>
<polygon fill="midnightblue" stroke="midnightblue" points="1858.4,-134.24 1849.12,-139.36 1859.56,-141.15 1858.4,-134.24"/>
</g>
</g>
</svg>
