<?xml version="1.0" encoding="UTF-8" standalone="no"?>
<!DOCTYPE svg PUBLIC "-//W3C//DTD SVG 1.1//EN"
 "http://www.w3.org/Graphics/SVG/1.1/DTD/svg11.dtd">
<!-- Generated by graphviz version 2.43.0 (0)
 -->
<!-- Title: src/Utils/wld_autoNeighAdd.c Pages: 1 -->
<svg width="5269pt" height="308pt"
 viewBox="0.00 0.00 5268.63 308.00" xmlns="http://www.w3.org/2000/svg" xmlns:xlink="http://www.w3.org/1999/xlink">
<g id="graph0" class="graph" transform="scale(1 1) rotate(0) translate(4 304)">
<title>src/Utils/wld_autoNeighAdd.c</title>
<polygon fill="white" stroke="transparent" points="-4,4 -4,-304 5264.63,-304 5264.63,4 -4,4"/>
<!-- Node1 -->
<g id="node1" class="node">
<title>Node1</title>
<g id="a_node1"><a xlink:title=" ">
<polygon fill="#bfbfbf" stroke="black" points="3130.17,-280.5 3130.17,-299.5 3289.17,-299.5 3289.17,-280.5 3130.17,-280.5"/>
<text text-anchor="middle" x="3209.67" y="-287.5" font-family="Helvetica,sans-Serif" font-size="10.00">src/Utils/wld_autoNeighAdd.c</text>
</a>
</g>
</g>
<!-- Node2 -->
<g id="node2" class="node">
<title>Node2</title>
<g id="a_node2"><a xlink:title=" ">
<polygon fill="white" stroke="#bfbfbf" points="5129.67,-56.5 5129.67,-75.5 5239.67,-75.5 5239.67,-56.5 5129.67,-56.5"/>
<text text-anchor="middle" x="5184.67" y="-63.5" font-family="Helvetica,sans-Serif" font-size="10.00">swl/swl_common.h</text>
</a>
</g>
</g>
<!-- Node1&#45;&gt;Node2 -->
<g id="edge1" class="edge">
<title>Node1&#45;&gt;Node2</title>
<path fill="none" stroke="midnightblue" d="M3289.18,-289.02C3646.59,-288.32 5092.98,-276.5 5226.67,-132 5240.94,-116.58 5222.09,-95.74 5205.27,-81.86"/>
<polygon fill="midnightblue" stroke="midnightblue" points="5207.37,-79.05 5197.33,-75.65 5203.06,-84.57 5207.37,-79.05"/>
</g>
<!-- Node3 -->
<g id="node3" class="node">
<title>Node3</title>
<g id="a_node3"><a xlink:href="wld_8h.html" target="_top" xlink:title=" ">
<polygon fill="white" stroke="red" points="3067.17,-168.5 3067.17,-187.5 3110.17,-187.5 3110.17,-168.5 3067.17,-168.5"/>
<text text-anchor="middle" x="3088.67" y="-175.5" font-family="Helvetica,sans-Serif" font-size="10.00">wld.h</text>
</a>
</g>
</g>
<!-- Node1&#45;&gt;Node3 -->
<g id="edge2" class="edge">
<title>Node1&#45;&gt;Node3</title>
<path fill="none" stroke="midnightblue" d="M3220.75,-280.33C3235.91,-267.42 3259.72,-242.65 3245.67,-224 3230.64,-204.05 3161.95,-190.25 3120.57,-183.58"/>
<polygon fill="midnightblue" stroke="midnightblue" points="3120.85,-180.08 3110.43,-182 3119.78,-187 3120.85,-180.08"/>
</g>
<!-- Node75 -->
<g id="node47" class="node">
<title>Node75</title>
<g id="a_node47"><a xlink:href="wld__accesspoint_8h.html" target="_top" xlink:title=" ">
<polygon fill="white" stroke="red" points="3292.67,-224.5 3292.67,-243.5 3398.67,-243.5 3398.67,-224.5 3292.67,-224.5"/>
<text text-anchor="middle" x="3345.67" y="-231.5" font-family="Helvetica,sans-Serif" font-size="10.00">wld_accesspoint.h</text>
</a>
</g>
</g>
<!-- Node1&#45;&gt;Node75 -->
<g id="edge59" class="edge">
<title>Node1&#45;&gt;Node75</title>
<path fill="none" stroke="midnightblue" d="M3231.22,-280.44C3253.7,-271.52 3289.16,-257.44 3314.65,-247.32"/>
<polygon fill="midnightblue" stroke="midnightblue" points="3316.22,-250.46 3324.22,-243.52 3313.63,-243.95 3316.22,-250.46"/>
</g>
<!-- Node77 -->
<g id="node48" class="node">
<title>Node77</title>
<g id="a_node48"><a xlink:href="wld__radio_8h.html" target="_top" xlink:title=" ">
<polygon fill="white" stroke="red" points="2899.17,-224.5 2899.17,-243.5 2972.17,-243.5 2972.17,-224.5 2899.17,-224.5"/>
<text text-anchor="middle" x="2935.67" y="-231.5" font-family="Helvetica,sans-Serif" font-size="10.00">wld_radio.h</text>
</a>
</g>
</g>
<!-- Node1&#45;&gt;Node77 -->
<g id="edge61" class="edge">
<title>Node1&#45;&gt;Node77</title>
<path fill="none" stroke="midnightblue" d="M3166.25,-280.44C3116.03,-270.55 3033.67,-254.31 2982.17,-244.17"/>
<polygon fill="midnightblue" stroke="midnightblue" points="2982.79,-240.72 2972.31,-242.22 2981.44,-247.59 2982.79,-240.72"/>
</g>
<!-- Node84 -->
<g id="node49" class="node">
<title>Node84</title>
<g id="a_node49"><a xlink:href="wld__util_8h.html" target="_top" xlink:title=" ">
<polygon fill="white" stroke="black" points="2990.67,-224.5 2990.67,-243.5 3054.67,-243.5 3054.67,-224.5 2990.67,-224.5"/>
<text text-anchor="middle" x="3022.67" y="-231.5" font-family="Helvetica,sans-Serif" font-size="10.00">wld_util.h</text>
</a>
</g>
</g>
<!-- Node1&#45;&gt;Node84 -->
<g id="edge63" class="edge">
<title>Node1&#45;&gt;Node84</title>
<path fill="none" stroke="midnightblue" d="M3180.04,-280.44C3148.17,-271.24 3097.34,-256.56 3062.1,-246.39"/>
<polygon fill="midnightblue" stroke="midnightblue" points="3062.74,-242.93 3052.16,-243.52 3060.8,-249.65 3062.74,-242.93"/>
</g>
<!-- Node85 -->
<g id="node50" class="node">
<title>Node85</title>
<g id="a_node50"><a xlink:href="wld__autoNeighAdd_8h.html" target="_top" xlink:title=" ">
<polygon fill="white" stroke="black" points="3073.17,-224.5 3073.17,-243.5 3236.17,-243.5 3236.17,-224.5 3073.17,-224.5"/>
<text text-anchor="middle" x="3154.67" y="-231.5" font-family="Helvetica,sans-Serif" font-size="10.00">wld/Utils/wld_autoNeighAdd.h</text>
</a>
</g>
</g>
<!-- Node1&#45;&gt;Node85 -->
<g id="edge65" class="edge">
<title>Node1&#45;&gt;Node85</title>
<path fill="none" stroke="midnightblue" d="M3200.59,-280.08C3192.5,-272.14 3180.47,-260.34 3170.76,-250.8"/>
<polygon fill="midnightblue" stroke="midnightblue" points="3173.17,-248.26 3163.58,-243.75 3168.27,-253.25 3173.17,-248.26"/>
</g>
<!-- Node3&#45;&gt;Node2 -->
<g id="edge5" class="edge">
<title>Node3&#45;&gt;Node2</title>
<path fill="none" stroke="midnightblue" d="M3110.29,-176.96C3331.25,-176.51 5171.9,-171.6 5210.67,-132 5223.75,-118.64 5211.72,-97.87 5200.04,-83.42"/>
<polygon fill="midnightblue" stroke="midnightblue" points="5202.59,-81.01 5193.39,-75.74 5197.29,-85.59 5202.59,-81.01"/>
</g>
<!-- Node4 -->
<g id="node4" class="node">
<title>Node4</title>
<g id="a_node4"><a xlink:title=" ">
<polygon fill="white" stroke="#bfbfbf" points="3784.67,-56.5 3784.67,-75.5 3846.67,-75.5 3846.67,-56.5 3784.67,-56.5"/>
<text text-anchor="middle" x="3815.67" y="-63.5" font-family="Helvetica,sans-Serif" font-size="10.00">stdbool.h</text>
</a>
</g>
</g>
<!-- Node3&#45;&gt;Node4 -->
<g id="edge3" class="edge">
<title>Node3&#45;&gt;Node4</title>
<path fill="none" stroke="midnightblue" d="M3110.25,-176.45C3227.77,-173.38 3786.22,-157.46 3811.67,-132 3823.51,-120.15 3822.98,-100.23 3820.44,-85.56"/>
<polygon fill="midnightblue" stroke="midnightblue" points="3823.81,-84.61 3818.27,-75.59 3816.97,-86.1 3823.81,-84.61"/>
</g>
<!-- Node5 -->
<g id="node5" class="node">
<title>Node5</title>
<g id="a_node5"><a xlink:title=" ">
<polygon fill="white" stroke="#bfbfbf" points="4693.17,-0.5 4693.17,-19.5 4746.17,-19.5 4746.17,-0.5 4693.17,-0.5"/>
<text text-anchor="middle" x="4719.67" y="-7.5" font-family="Helvetica,sans-Serif" font-size="10.00">stdint.h</text>
</a>
</g>
</g>
<!-- Node3&#45;&gt;Node5 -->
<g id="edge4" class="edge">
<title>Node3&#45;&gt;Node5</title>
<path fill="none" stroke="midnightblue" d="M3110.38,-176.88C3332.27,-175.59 5180.86,-163.93 5226.67,-132 5255.52,-111.89 5272.46,-81.9 5248.67,-56 5215.45,-19.84 4870.99,-12.7 4756.46,-11.32"/>
<polygon fill="midnightblue" stroke="midnightblue" points="4756.46,-7.82 4746.43,-11.21 4756.39,-14.82 4756.46,-7.82"/>
</g>
<!-- Node6 -->
<g id="node6" class="node">
<title>Node6</title>
<g id="a_node6"><a xlink:title=" ">
<polygon fill="white" stroke="#bfbfbf" points="13.67,-112.5 13.67,-131.5 149.67,-131.5 149.67,-112.5 13.67,-112.5"/>
<text text-anchor="middle" x="81.67" y="-119.5" font-family="Helvetica,sans-Serif" font-size="10.00">swla/swla_commonLib.h</text>
</a>
</g>
</g>
<!-- Node3&#45;&gt;Node6 -->
<g id="edge6" class="edge">
<title>Node3&#45;&gt;Node6</title>
<path fill="none" stroke="midnightblue" d="M3067.07,-176.97C2834.71,-176.62 793.42,-172.45 160.2,-132.02"/>
<polygon fill="midnightblue" stroke="midnightblue" points="160.28,-128.51 150.07,-131.36 159.82,-135.5 160.28,-128.51"/>
</g>
<!-- Node7 -->
<g id="node7" class="node">
<title>Node7</title>
<g id="a_node7"><a xlink:title=" ">
<polygon fill="white" stroke="#bfbfbf" points="167.67,-112.5 167.67,-131.5 255.67,-131.5 255.67,-112.5 167.67,-112.5"/>
<text text-anchor="middle" x="211.67" y="-119.5" font-family="Helvetica,sans-Serif" font-size="10.00">swl/swl_uuid.h</text>
</a>
</g>
</g>
<!-- Node3&#45;&gt;Node7 -->
<g id="edge7" class="edge">
<title>Node3&#45;&gt;Node7</title>
<path fill="none" stroke="midnightblue" d="M3066.91,-176.86C2823.07,-175.21 606.21,-159.6 265.82,-131.88"/>
<polygon fill="midnightblue" stroke="midnightblue" points="266.11,-128.4 255.85,-131.02 265.51,-135.37 266.11,-128.4"/>
</g>
<!-- Node8 -->
<g id="node8" class="node">
<title>Node8</title>
<g id="a_node8"><a xlink:title=" ">
<polygon fill="white" stroke="#bfbfbf" points="273.67,-112.5 273.67,-131.5 425.67,-131.5 425.67,-112.5 273.67,-112.5"/>
<text text-anchor="middle" x="349.67" y="-119.5" font-family="Helvetica,sans-Serif" font-size="10.00">swla/swla_radioStandards.h</text>
</a>
</g>
</g>
<!-- Node3&#45;&gt;Node8 -->
<g id="edge8" class="edge">
<title>Node3&#45;&gt;Node8</title>
<path fill="none" stroke="midnightblue" d="M3067.13,-176.88C2846.39,-175.63 992.12,-164.26 439.67,-132 438.39,-131.93 437.1,-131.85 435.81,-131.76"/>
<polygon fill="midnightblue" stroke="midnightblue" points="435.96,-128.27 425.74,-131.05 435.47,-135.25 435.96,-128.27"/>
</g>
<!-- Node9 -->
<g id="node9" class="node">
<title>Node9</title>
<g id="a_node9"><a xlink:title=" ">
<polygon fill="white" stroke="#bfbfbf" points="3692.17,-0.5 3692.17,-19.5 3793.17,-19.5 3793.17,-0.5 3692.17,-0.5"/>
<text text-anchor="middle" x="3742.67" y="-7.5" font-family="Helvetica,sans-Serif" font-size="10.00">swla/swla_time.h</text>
</a>
</g>
</g>
<!-- Node3&#45;&gt;Node9 -->
<g id="edge9" class="edge">
<title>Node3&#45;&gt;Node9</title>
<path fill="none" stroke="midnightblue" d="M3067.12,-176.89C2794.81,-175.53 33.25,-161.01 4.67,-132 -1.57,-125.67 -1.53,-118.37 4.67,-112 71.54,-43.21 3203.57,-15.33 3681.73,-11.47"/>
<polygon fill="midnightblue" stroke="midnightblue" points="3681.9,-14.97 3691.87,-11.39 3681.85,-7.97 3681.9,-14.97"/>
</g>
<!-- Node10 -->
<g id="node10" class="node">
<title>Node10</title>
<g id="a_node10"><a xlink:title=" ">
<polygon fill="white" stroke="#bfbfbf" points="482.17,-112.5 482.17,-131.5 611.17,-131.5 611.17,-112.5 482.17,-112.5"/>
<text text-anchor="middle" x="546.67" y="-119.5" font-family="Helvetica,sans-Serif" font-size="10.00">swla/swla_time_spec.h</text>
</a>
</g>
</g>
<!-- Node3&#45;&gt;Node10 -->
<g id="edge10" class="edge">
<title>Node3&#45;&gt;Node10</title>
<path fill="none" stroke="midnightblue" d="M3066.96,-176.91C2855.29,-176.03 1155.45,-167.88 621.3,-131.94"/>
<polygon fill="midnightblue" stroke="midnightblue" points="621.42,-128.44 611.21,-131.25 620.94,-135.42 621.42,-128.44"/>
</g>
<!-- Node11 -->
<g id="node11" class="node">
<title>Node11</title>
<g id="a_node11"><a xlink:title=" ">
<polygon fill="white" stroke="#bfbfbf" points="629.67,-112.5 629.67,-131.5 723.67,-131.5 723.67,-112.5 629.67,-112.5"/>
<text text-anchor="middle" x="676.67" y="-119.5" font-family="Helvetica,sans-Serif" font-size="10.00">swla/swla_oui.h</text>
</a>
</g>
</g>
<!-- Node3&#45;&gt;Node11 -->
<g id="edge11" class="edge">
<title>Node3&#45;&gt;Node11</title>
<path fill="none" stroke="midnightblue" d="M3066.98,-177.01C2860.73,-177.01 1242.41,-175.69 733.94,-131.96"/>
<polygon fill="midnightblue" stroke="midnightblue" points="734.23,-128.47 723.97,-131.08 733.62,-135.44 734.23,-128.47"/>
</g>
<!-- Node12 -->
<g id="node12" class="node">
<title>Node12</title>
<g id="a_node12"><a xlink:title=" ">
<polygon fill="white" stroke="#bfbfbf" points="741.67,-112.5 741.67,-131.5 869.67,-131.5 869.67,-112.5 741.67,-112.5"/>
<text text-anchor="middle" x="805.67" y="-119.5" font-family="Helvetica,sans-Serif" font-size="10.00">swla/swla_delayExec.h</text>
</a>
</g>
</g>
<!-- Node3&#45;&gt;Node12 -->
<g id="edge12" class="edge">
<title>Node3&#45;&gt;Node12</title>
<path fill="none" stroke="midnightblue" d="M3067.09,-176.87C2868.67,-175.59 1357.94,-164.94 879.8,-131.98"/>
<polygon fill="midnightblue" stroke="midnightblue" points="879.95,-128.48 869.73,-131.27 879.46,-135.47 879.95,-128.48"/>
</g>
<!-- Node13 -->
<g id="node13" class="node">
<title>Node13</title>
<g id="a_node13"><a xlink:title=" ">
<polygon fill="white" stroke="#bfbfbf" points="888.17,-112.5 888.17,-131.5 1007.17,-131.5 1007.17,-112.5 888.17,-112.5"/>
<text text-anchor="middle" x="947.67" y="-119.5" font-family="Helvetica,sans-Serif" font-size="10.00">swla/swla_function.h</text>
</a>
</g>
</g>
<!-- Node3&#45;&gt;Node13 -->
<g id="edge13" class="edge">
<title>Node3&#45;&gt;Node13</title>
<path fill="none" stroke="midnightblue" d="M3066.93,-176.86C2874.92,-175.56 1465.26,-165.03 1017.41,-132.03"/>
<polygon fill="midnightblue" stroke="midnightblue" points="1017.57,-128.53 1007.33,-131.27 1017.04,-135.52 1017.57,-128.53"/>
</g>
<!-- Node14 -->
<g id="node14" class="node">
<title>Node14</title>
<g id="a_node14"><a xlink:title=" ">
<polygon fill="white" stroke="#bfbfbf" points="1025.17,-112.5 1025.17,-131.5 1166.17,-131.5 1166.17,-112.5 1025.17,-112.5"/>
<text text-anchor="middle" x="1095.67" y="-119.5" font-family="Helvetica,sans-Serif" font-size="10.00">swl/swl_usp_cmdStatus.h</text>
</a>
</g>
</g>
<!-- Node3&#45;&gt;Node14 -->
<g id="edge14" class="edge">
<title>Node3&#45;&gt;Node14</title>
<path fill="none" stroke="midnightblue" d="M3066.9,-176.75C2883.35,-174.64 1591.38,-159.01 1176.54,-131.97"/>
<polygon fill="midnightblue" stroke="midnightblue" points="1176.52,-128.46 1166.31,-131.29 1176.05,-135.45 1176.52,-128.46"/>
</g>
<!-- Node15 -->
<g id="node15" class="node">
<title>Node15</title>
<g id="a_node15"><a xlink:title=" ">
<polygon fill="white" stroke="#bfbfbf" points="1184.67,-112.5 1184.67,-131.5 1270.67,-131.5 1270.67,-112.5 1184.67,-112.5"/>
<text text-anchor="middle" x="1227.67" y="-119.5" font-family="Helvetica,sans-Serif" font-size="10.00">swl/swl_wps.h</text>
</a>
</g>
</g>
<!-- Node3&#45;&gt;Node15 -->
<g id="edge15" class="edge">
<title>Node3&#45;&gt;Node15</title>
<path fill="none" stroke="midnightblue" d="M3066.95,-176.9C2889.29,-176.01 1672.21,-168.64 1280.94,-131.94"/>
<polygon fill="midnightblue" stroke="midnightblue" points="1281.02,-128.43 1270.73,-130.95 1280.35,-135.4 1281.02,-128.43"/>
</g>
<!-- Node16 -->
<g id="node16" class="node">
<title>Node16</title>
<g id="a_node16"><a xlink:title=" ">
<polygon fill="white" stroke="#bfbfbf" points="1288.67,-112.5 1288.67,-131.5 1392.67,-131.5 1392.67,-112.5 1288.67,-112.5"/>
<text text-anchor="middle" x="1340.67" y="-119.5" font-family="Helvetica,sans-Serif" font-size="10.00">swl/swl_security.h</text>
</a>
</g>
</g>
<!-- Node3&#45;&gt;Node16 -->
<g id="edge16" class="edge">
<title>Node3&#45;&gt;Node16</title>
<path fill="none" stroke="midnightblue" d="M3067.08,-176.78C2896.84,-175 1768.23,-162.21 1402.92,-131.97"/>
<polygon fill="midnightblue" stroke="midnightblue" points="1403.12,-128.48 1392.86,-131.12 1402.53,-135.45 1403.12,-128.48"/>
</g>
<!-- Node17 -->
<g id="node17" class="node">
<title>Node17</title>
<g id="a_node17"><a xlink:title=" ">
<polygon fill="white" stroke="#bfbfbf" points="1411.17,-112.5 1411.17,-131.5 1494.17,-131.5 1494.17,-112.5 1411.17,-112.5"/>
<text text-anchor="middle" x="1452.67" y="-119.5" font-family="Helvetica,sans-Serif" font-size="10.00">amxc/amxc.h</text>
</a>
</g>
</g>
<!-- Node3&#45;&gt;Node17 -->
<g id="edge17" class="edge">
<title>Node3&#45;&gt;Node17</title>
<path fill="none" stroke="midnightblue" d="M3067.08,-176.82C2902.8,-175.4 1847.73,-165.13 1504.3,-131.86"/>
<polygon fill="midnightblue" stroke="midnightblue" points="1504.65,-128.38 1494.35,-130.87 1503.95,-135.34 1504.65,-128.38"/>
</g>
<!-- Node18 -->
<g id="node18" class="node">
<title>Node18</title>
<g id="a_node18"><a xlink:title=" ">
<polygon fill="white" stroke="#bfbfbf" points="1512.67,-112.5 1512.67,-131.5 1596.67,-131.5 1596.67,-112.5 1512.67,-112.5"/>
<text text-anchor="middle" x="1554.67" y="-119.5" font-family="Helvetica,sans-Serif" font-size="10.00">amxp/amxp.h</text>
</a>
</g>
</g>
<!-- Node3&#45;&gt;Node18 -->
<g id="edge18" class="edge">
<title>Node3&#45;&gt;Node18</title>
<path fill="none" stroke="midnightblue" d="M3066.96,-176.77C2908.58,-175.05 1928.44,-163.26 1607.14,-131.96"/>
<polygon fill="midnightblue" stroke="midnightblue" points="1607.2,-128.45 1596.9,-130.94 1606.5,-135.42 1607.2,-128.45"/>
</g>
<!-- Node19 -->
<g id="node19" class="node">
<title>Node19</title>
<g id="a_node19"><a xlink:title=" ">
<polygon fill="white" stroke="#bfbfbf" points="1614.67,-112.5 1614.67,-131.5 1754.67,-131.5 1754.67,-112.5 1614.67,-112.5"/>
<text text-anchor="middle" x="1684.67" y="-119.5" font-family="Helvetica,sans-Serif" font-size="10.00">amxd/amxd_parameter.h</text>
</a>
</g>
</g>
<!-- Node3&#45;&gt;Node19 -->
<g id="edge19" class="edge">
<title>Node3&#45;&gt;Node19</title>
<path fill="none" stroke="midnightblue" d="M3066.78,-176.91C2941.24,-176.24 2299.83,-171.04 1765.09,-132.04"/>
<polygon fill="midnightblue" stroke="midnightblue" points="1765.08,-128.53 1754.85,-131.29 1764.57,-135.51 1765.08,-128.53"/>
</g>
<!-- Node20 -->
<g id="node20" class="node">
<title>Node20</title>
<g id="a_node20"><a xlink:title=" ">
<polygon fill="white" stroke="#bfbfbf" points="1773.17,-112.5 1773.17,-131.5 1892.17,-131.5 1892.17,-112.5 1773.17,-112.5"/>
<text text-anchor="middle" x="1832.67" y="-119.5" font-family="Helvetica,sans-Serif" font-size="10.00">amxd/amxd_action.h</text>
</a>
</g>
</g>
<!-- Node3&#45;&gt;Node20 -->
<g id="edge20" class="edge">
<title>Node3&#45;&gt;Node20</title>
<path fill="none" stroke="midnightblue" d="M3067.14,-176.94C2950.2,-176.44 2379.28,-172.02 1902.52,-132.08"/>
<polygon fill="midnightblue" stroke="midnightblue" points="1902.6,-128.57 1892.34,-131.22 1902.01,-135.55 1902.6,-128.57"/>
</g>
<!-- Node21 -->
<g id="node21" class="node">
<title>Node21</title>
<g id="a_node21"><a xlink:title=" ">
<polygon fill="white" stroke="#bfbfbf" points="1910.17,-112.5 1910.17,-131.5 2085.17,-131.5 2085.17,-112.5 1910.17,-112.5"/>
<text text-anchor="middle" x="1997.67" y="-119.5" font-family="Helvetica,sans-Serif" font-size="10.00">amxd/amxd_object_parameter.h</text>
</a>
</g>
</g>
<!-- Node3&#45;&gt;Node21 -->
<g id="edge21" class="edge">
<title>Node3&#45;&gt;Node21</title>
<path fill="none" stroke="midnightblue" d="M3066.96,-176.4C2961.54,-173.39 2492.27,-159.12 2095.66,-132.03"/>
<polygon fill="midnightblue" stroke="midnightblue" points="2095.64,-128.52 2085.42,-131.33 2095.16,-135.51 2095.64,-128.52"/>
</g>
<!-- Node22 -->
<g id="node22" class="node">
<title>Node22</title>
<g id="a_node22"><a xlink:title=" ">
<polygon fill="white" stroke="#bfbfbf" points="2103.67,-112.5 2103.67,-131.5 2255.67,-131.5 2255.67,-112.5 2103.67,-112.5"/>
<text text-anchor="middle" x="2179.67" y="-119.5" font-family="Helvetica,sans-Serif" font-size="10.00">amxd/amxd_object_event.h</text>
</a>
</g>
</g>
<!-- Node3&#45;&gt;Node22 -->
<g id="edge22" class="edge">
<title>Node3&#45;&gt;Node22</title>
<path fill="none" stroke="midnightblue" d="M3067,-176.22C2973,-172.77 2591.08,-157.85 2266.19,-132.08"/>
<polygon fill="midnightblue" stroke="midnightblue" points="2266.35,-128.59 2256.11,-131.28 2265.8,-135.56 2266.35,-128.59"/>
</g>
<!-- Node23 -->
<g id="node23" class="node">
<title>Node23</title>
<g id="a_node23"><a xlink:title=" ">
<polygon fill="white" stroke="#bfbfbf" points="2274.17,-112.5 2274.17,-131.5 2403.17,-131.5 2403.17,-112.5 2274.17,-112.5"/>
<text text-anchor="middle" x="2338.67" y="-119.5" font-family="Helvetica,sans-Serif" font-size="10.00">amxd/amxd_function.h</text>
</a>
</g>
</g>
<!-- Node3&#45;&gt;Node23 -->
<g id="edge23" class="edge">
<title>Node3&#45;&gt;Node23</title>
<path fill="none" stroke="midnightblue" d="M3067,-176C2983.85,-172.09 2677,-156.8 2413.66,-132.14"/>
<polygon fill="midnightblue" stroke="midnightblue" points="2413.81,-128.64 2403.53,-131.19 2413.15,-135.61 2413.81,-128.64"/>
</g>
<!-- Node24 -->
<g id="node24" class="node">
<title>Node24</title>
<g id="a_node24"><a xlink:title=" ">
<polygon fill="white" stroke="#bfbfbf" points="2421.17,-112.5 2421.17,-131.5 2590.17,-131.5 2590.17,-112.5 2421.17,-112.5"/>
<text text-anchor="middle" x="2505.67" y="-119.5" font-family="Helvetica,sans-Serif" font-size="10.00">amxd/amxd_object_hierarchy.h</text>
</a>
</g>
</g>
<!-- Node3&#45;&gt;Node24 -->
<g id="edge24" class="edge">
<title>Node3&#45;&gt;Node24</title>
<path fill="none" stroke="midnightblue" d="M3066.69,-175.02C2998.93,-168.91 2787.03,-149.73 2600.31,-132.15"/>
<polygon fill="midnightblue" stroke="midnightblue" points="2600.6,-128.66 2590.31,-131.21 2599.94,-135.63 2600.6,-128.66"/>
</g>
<!-- Node25 -->
<g id="node25" class="node">
<title>Node25</title>
<g id="a_node25"><a xlink:title=" ">
<polygon fill="white" stroke="#bfbfbf" points="2608.17,-112.5 2608.17,-131.5 2727.17,-131.5 2727.17,-112.5 2608.17,-112.5"/>
<text text-anchor="middle" x="2667.67" y="-119.5" font-family="Helvetica,sans-Serif" font-size="10.00">amxd/amxd_object.h</text>
</a>
</g>
</g>
<!-- Node3&#45;&gt;Node25 -->
<g id="edge25" class="edge">
<title>Node3&#45;&gt;Node25</title>
<path fill="none" stroke="midnightblue" d="M3066.77,-174.25C3012.74,-167.44 2868.53,-149.23 2737.58,-132.24"/>
<polygon fill="midnightblue" stroke="midnightblue" points="2737.74,-128.73 2727.37,-130.92 2736.84,-135.68 2737.74,-128.73"/>
</g>
<!-- Node26 -->
<g id="node26" class="node">
<title>Node26</title>
<g id="a_node26"><a xlink:title=" ">
<polygon fill="white" stroke="#bfbfbf" points="2745.17,-112.5 2745.17,-131.5 2850.17,-131.5 2850.17,-112.5 2745.17,-112.5"/>
<text text-anchor="middle" x="2797.67" y="-119.5" font-family="Helvetica,sans-Serif" font-size="10.00">amxd/amxd_dm.h</text>
</a>
</g>
</g>
<!-- Node3&#45;&gt;Node26 -->
<g id="edge26" class="edge">
<title>Node3&#45;&gt;Node26</title>
<path fill="none" stroke="midnightblue" d="M3066.8,-172.94C3021.94,-164.62 2918.32,-145.39 2853.54,-133.37"/>
<polygon fill="midnightblue" stroke="midnightblue" points="2853.96,-129.89 2843.49,-131.5 2852.68,-136.77 2853.96,-129.89"/>
</g>
<!-- Node27 -->
<g id="node27" class="node">
<title>Node27</title>
<g id="a_node27"><a xlink:title=" ">
<polygon fill="white" stroke="#bfbfbf" points="2868.67,-112.5 2868.67,-131.5 3012.67,-131.5 3012.67,-112.5 2868.67,-112.5"/>
<text text-anchor="middle" x="2940.67" y="-119.5" font-family="Helvetica,sans-Serif" font-size="10.00">amxd/amxd_transaction.h</text>
</a>
</g>
</g>
<!-- Node3&#45;&gt;Node27 -->
<g id="edge27" class="edge">
<title>Node3&#45;&gt;Node27</title>
<path fill="none" stroke="midnightblue" d="M3067.15,-169.15C3042.62,-160.2 3002.25,-145.47 2973.72,-135.06"/>
<polygon fill="midnightblue" stroke="midnightblue" points="2974.77,-131.72 2964.17,-131.58 2972.37,-138.29 2974.77,-131.72"/>
</g>
<!-- Node28 -->
<g id="node28" class="node">
<title>Node28</title>
<g id="a_node28"><a xlink:title=" ">
<polygon fill="white" stroke="#bfbfbf" points="3030.67,-112.5 3030.67,-131.5 3146.67,-131.5 3146.67,-112.5 3030.67,-112.5"/>
<text text-anchor="middle" x="3088.67" y="-119.5" font-family="Helvetica,sans-Serif" font-size="10.00">amxb/amxb_types.h</text>
</a>
</g>
</g>
<!-- Node3&#45;&gt;Node28 -->
<g id="edge28" class="edge">
<title>Node3&#45;&gt;Node28</title>
<path fill="none" stroke="midnightblue" d="M3088.67,-168.08C3088.67,-161.01 3088.67,-150.86 3088.67,-141.99"/>
<polygon fill="midnightblue" stroke="midnightblue" points="3092.17,-141.75 3088.67,-131.75 3085.17,-141.75 3092.17,-141.75"/>
</g>
<!-- Node29 -->
<g id="node29" class="node">
<title>Node29</title>
<g id="a_node29"><a xlink:title=" ">
<polygon fill="white" stroke="#bfbfbf" points="3164.67,-112.5 3164.67,-131.5 3300.67,-131.5 3300.67,-112.5 3164.67,-112.5"/>
<text text-anchor="middle" x="3232.67" y="-119.5" font-family="Helvetica,sans-Serif" font-size="10.00">amxb/amxb_operators.h</text>
</a>
</g>
</g>
<!-- Node3&#45;&gt;Node29 -->
<g id="edge29" class="edge">
<title>Node3&#45;&gt;Node29</title>
<path fill="none" stroke="midnightblue" d="M3110.23,-168.92C3133.99,-160.01 3172.47,-145.57 3199.95,-135.27"/>
<polygon fill="midnightblue" stroke="midnightblue" points="3201.4,-138.47 3209.53,-131.68 3198.94,-131.91 3201.4,-138.47"/>
</g>
<!-- Node30 -->
<g id="node30" class="node">
<title>Node30</title>
<g id="a_node30"><a xlink:title=" ">
<polygon fill="white" stroke="#bfbfbf" points="3318.67,-112.5 3318.67,-131.5 3430.67,-131.5 3430.67,-112.5 3318.67,-112.5"/>
<text text-anchor="middle" x="3374.67" y="-119.5" font-family="Helvetica,sans-Serif" font-size="10.00">amxb/amxb_error.h</text>
</a>
</g>
</g>
<!-- Node3&#45;&gt;Node30 -->
<g id="edge30" class="edge">
<title>Node3&#45;&gt;Node30</title>
<path fill="none" stroke="midnightblue" d="M3110.64,-172.85C3154.96,-164.48 3256.27,-145.35 3319.72,-133.37"/>
<polygon fill="midnightblue" stroke="midnightblue" points="3320.39,-136.81 3329.56,-131.52 3319.09,-129.93 3320.39,-136.81"/>
</g>
<!-- Node31 -->
<g id="node31" class="node">
<title>Node31</title>
<g id="a_node31"><a xlink:title=" ">
<polygon fill="white" stroke="#bfbfbf" points="3449.17,-112.5 3449.17,-131.5 3532.17,-131.5 3532.17,-112.5 3449.17,-112.5"/>
<text text-anchor="middle" x="3490.67" y="-119.5" font-family="Helvetica,sans-Serif" font-size="10.00">amxo/amxo.h</text>
</a>
</g>
</g>
<!-- Node3&#45;&gt;Node31 -->
<g id="edge31" class="edge">
<title>Node3&#45;&gt;Node31</title>
<path fill="none" stroke="midnightblue" d="M3110.49,-174.57C3164.31,-168.48 3307.92,-151.79 3438.75,-132.07"/>
<polygon fill="midnightblue" stroke="midnightblue" points="3439.58,-135.49 3448.95,-130.53 3438.53,-128.57 3439.58,-135.49"/>
</g>
<!-- Node32 -->
<g id="node32" class="node">
<title>Node32</title>
<g id="a_node32"><a xlink:title=" ">
<polygon fill="white" stroke="#bfbfbf" points="3550.17,-112.5 3550.17,-131.5 3665.17,-131.5 3665.17,-112.5 3550.17,-112.5"/>
<text text-anchor="middle" x="3607.67" y="-119.5" font-family="Helvetica,sans-Serif" font-size="10.00">amxo/amxo_types.h</text>
</a>
</g>
</g>
<!-- Node3&#45;&gt;Node32 -->
<g id="edge32" class="edge">
<title>Node3&#45;&gt;Node32</title>
<path fill="none" stroke="midnightblue" d="M3110.39,-175.13C3174.46,-169.54 3368.47,-152.19 3540.12,-132.15"/>
<polygon fill="midnightblue" stroke="midnightblue" points="3540.57,-135.62 3550.09,-130.98 3539.75,-128.67 3540.57,-135.62"/>
</g>
<!-- Node33 -->
<g id="node33" class="node">
<title>Node33</title>
<g id="a_node33"><a xlink:href="wld__types_8h.html" target="_top" xlink:title=" ">
<polygon fill="white" stroke="red" points="4134.17,-56.5 4134.17,-75.5 4209.17,-75.5 4209.17,-56.5 4134.17,-56.5"/>
<text text-anchor="middle" x="4171.67" y="-63.5" font-family="Helvetica,sans-Serif" font-size="10.00">wld_types.h</text>
</a>
</g>
</g>
<!-- Node3&#45;&gt;Node33 -->
<g id="edge33" class="edge">
<title>Node3&#45;&gt;Node33</title>
<path fill="none" stroke="midnightblue" d="M3110.42,-176.79C3258.19,-175.31 4110.14,-165.31 4152.67,-132 4166.39,-121.26 4170.59,-101.16 4171.7,-86.15"/>
<polygon fill="midnightblue" stroke="midnightblue" points="4175.2,-86.01 4172.05,-75.9 4168.21,-85.77 4175.2,-86.01"/>
</g>
<!-- Node36 -->
<g id="node34" class="node">
<title>Node36</title>
<g id="a_node34"><a xlink:href="wld__channel__types_8h.html" target="_top" xlink:title=" ">
<polygon fill="white" stroke="black" points="3683.17,-112.5 3683.17,-131.5 3802.17,-131.5 3802.17,-112.5 3683.17,-112.5"/>
<text text-anchor="middle" x="3742.67" y="-119.5" font-family="Helvetica,sans-Serif" font-size="10.00">wld_channel_types.h</text>
</a>
</g>
</g>
<!-- Node3&#45;&gt;Node36 -->
<g id="edge36" class="edge">
<title>Node3&#45;&gt;Node36</title>
<path fill="none" stroke="midnightblue" d="M3110.26,-175.77C3186.01,-171.37 3446.91,-155.46 3672.93,-132.13"/>
<polygon fill="midnightblue" stroke="midnightblue" points="3673.4,-135.6 3682.99,-131.09 3672.68,-128.64 3673.4,-135.6"/>
</g>
<!-- Node37 -->
<g id="node35" class="node">
<title>Node37</title>
<g id="a_node35"><a xlink:title=" ">
<polygon fill="white" stroke="#bfbfbf" points="1990.17,-56.5 1990.17,-75.5 2115.17,-75.5 2115.17,-56.5 1990.17,-56.5"/>
<text text-anchor="middle" x="2052.67" y="-63.5" font-family="Helvetica,sans-Serif" font-size="10.00">swla/swla_chanspec.h</text>
</a>
</g>
</g>
<!-- Node3&#45;&gt;Node37 -->
<g id="edge54" class="edge">
<title>Node3&#45;&gt;Node37</title>
<path fill="none" stroke="midnightblue" d="M3066.87,-177.05C2818.01,-177.57 520.85,-181.02 472.67,-132 466.44,-125.66 466.47,-118.37 472.67,-112 499.26,-84.64 1672.89,-70.85 1979.84,-67.71"/>
<polygon fill="midnightblue" stroke="midnightblue" points="1979.99,-71.2 1989.96,-67.6 1979.92,-64.2 1979.99,-71.2"/>
</g>
<!-- Node38 -->
<g id="node36" class="node">
<title>Node38</title>
<g id="a_node36"><a xlink:href="wld__bgdfs_8h.html" target="_top" xlink:title=" ">
<polygon fill="white" stroke="black" points="4304.17,-112.5 4304.17,-131.5 4379.17,-131.5 4379.17,-112.5 4304.17,-112.5"/>
<text text-anchor="middle" x="4341.67" y="-119.5" font-family="Helvetica,sans-Serif" font-size="10.00">wld_bgdfs.h</text>
</a>
</g>
</g>
<!-- Node3&#45;&gt;Node38 -->
<g id="edge40" class="edge">
<title>Node3&#45;&gt;Node38</title>
<path fill="none" stroke="midnightblue" d="M3110.25,-176.64C3250.19,-174.27 4031.16,-159.97 4293.79,-131.86"/>
<polygon fill="midnightblue" stroke="midnightblue" points="4294.48,-135.31 4304.04,-130.73 4293.71,-128.35 4294.48,-135.31"/>
</g>
<!-- Node39 -->
<g id="node37" class="node">
<title>Node39</title>
<g id="a_node37"><a xlink:href="wld__rad__delayMgr_8h.html" target="_top" xlink:title=" ">
<polygon fill="white" stroke="black" points="4029.67,-112.5 4029.67,-131.5 4143.67,-131.5 4143.67,-112.5 4029.67,-112.5"/>
<text text-anchor="middle" x="4086.67" y="-119.5" font-family="Helvetica,sans-Serif" font-size="10.00">wld_rad_delayMgr.h</text>
</a>
</g>
</g>
<!-- Node3&#45;&gt;Node39 -->
<g id="edge42" class="edge">
<title>Node3&#45;&gt;Node39</title>
<path fill="none" stroke="midnightblue" d="M3110.5,-176.6C3212.71,-174.67 3652.35,-165.11 4011.67,-132 4014.19,-131.77 4016.76,-131.51 4019.36,-131.23"/>
<polygon fill="midnightblue" stroke="midnightblue" points="4019.95,-134.69 4029.49,-130.07 4019.16,-127.73 4019.95,-134.69"/>
</g>
<!-- Node40 -->
<g id="node38" class="node">
<title>Node40</title>
<g id="a_node38"><a xlink:href="wld__fsm_8h.html" target="_top" xlink:title=" ">
<polygon fill="white" stroke="black" points="3859.17,-112.5 3859.17,-131.5 3926.17,-131.5 3926.17,-112.5 3859.17,-112.5"/>
<text text-anchor="middle" x="3892.67" y="-119.5" font-family="Helvetica,sans-Serif" font-size="10.00">wld_fsm.h</text>
</a>
</g>
</g>
<!-- Node3&#45;&gt;Node40 -->
<g id="edge44" class="edge">
<title>Node3&#45;&gt;Node40</title>
<path fill="none" stroke="midnightblue" d="M3110.41,-176.71C3200.79,-175.27 3555.61,-167.56 3844.67,-132 3845.97,-131.84 3847.29,-131.67 3848.62,-131.48"/>
<polygon fill="midnightblue" stroke="midnightblue" points="3849.58,-134.87 3858.92,-129.88 3848.5,-127.96 3849.58,-134.87"/>
</g>
<!-- Node41 -->
<g id="node39" class="node">
<title>Node41</title>
<g id="a_node39"><a xlink:href="wld__sensing_8h.html" target="_top" xlink:title=" ">
<polygon fill="white" stroke="black" points="4199.67,-112.5 4199.67,-131.5 4285.67,-131.5 4285.67,-112.5 4199.67,-112.5"/>
<text text-anchor="middle" x="4242.67" y="-119.5" font-family="Helvetica,sans-Serif" font-size="10.00">wld_sensing.h</text>
</a>
</g>
</g>
<!-- Node3&#45;&gt;Node41 -->
<g id="edge46" class="edge">
<title>Node3&#45;&gt;Node41</title>
<path fill="none" stroke="midnightblue" d="M3110.24,-177.04C3222.41,-177.02 3748.46,-174.45 4176.67,-132 4180.82,-131.59 4185.13,-131.07 4189.47,-130.5"/>
<polygon fill="midnightblue" stroke="midnightblue" points="4190.19,-133.93 4199.61,-129.07 4189.22,-127 4190.19,-133.93"/>
</g>
<!-- Node42 -->
<g id="node40" class="node">
<title>Node42</title>
<g id="a_node40"><a xlink:href="wld__mld_8h.html" target="_top" xlink:title=" ">
<polygon fill="white" stroke="black" points="3944.17,-112.5 3944.17,-131.5 4011.17,-131.5 4011.17,-112.5 3944.17,-112.5"/>
<text text-anchor="middle" x="3977.67" y="-119.5" font-family="Helvetica,sans-Serif" font-size="10.00">wld_mld.h</text>
</a>
</g>
</g>
<!-- Node3&#45;&gt;Node42 -->
<g id="edge48" class="edge">
<title>Node3&#45;&gt;Node42</title>
<path fill="none" stroke="midnightblue" d="M3110.38,-177.1C3206.25,-177.3 3601.2,-175.39 3933.51,-132.09"/>
<polygon fill="midnightblue" stroke="midnightblue" points="3934.37,-135.51 3943.82,-130.73 3933.45,-128.57 3934.37,-135.51"/>
</g>
<!-- Node43 -->
<g id="node41" class="node">
<title>Node43</title>
<g id="a_node41"><a xlink:href="wld__autoCommitRadData_8h.html" target="_top" xlink:title=" ">
<polygon fill="white" stroke="black" points="4396.67,-112.5 4396.67,-131.5 4572.67,-131.5 4572.67,-112.5 4396.67,-112.5"/>
<text text-anchor="middle" x="4484.67" y="-119.5" font-family="Helvetica,sans-Serif" font-size="10.00">Utils/wld_autoCommitRadData.h</text>
</a>
</g>
</g>
<!-- Node3&#45;&gt;Node43 -->
<g id="edge50" class="edge">
<title>Node3&#45;&gt;Node43</title>
<path fill="none" stroke="midnightblue" d="M3110.54,-176.72C3234.62,-175.06 3862.84,-165.33 4386.51,-132.1"/>
<polygon fill="midnightblue" stroke="midnightblue" points="4386.78,-135.6 4396.54,-131.47 4386.34,-128.61 4386.78,-135.6"/>
</g>
<!-- Node44 -->
<g id="node42" class="node">
<title>Node44</title>
<g id="a_node42"><a xlink:href="wld__dmnMgt_8h.html" target="_top" xlink:title=" ">
<polygon fill="white" stroke="red" points="4590.67,-112.5 4590.67,-131.5 4704.67,-131.5 4704.67,-112.5 4590.67,-112.5"/>
<text text-anchor="middle" x="4647.67" y="-119.5" font-family="Helvetica,sans-Serif" font-size="10.00">Utils/wld_dmnMgt.h</text>
</a>
</g>
</g>
<!-- Node3&#45;&gt;Node44 -->
<g id="edge51" class="edge">
<title>Node3&#45;&gt;Node44</title>
<path fill="none" stroke="midnightblue" d="M3110.2,-177.2C3243.9,-178.29 3974.49,-181.68 4580.22,-132.02"/>
<polygon fill="midnightblue" stroke="midnightblue" points="4580.79,-135.49 4590.47,-131.17 4580.22,-128.51 4580.79,-135.49"/>
</g>
<!-- Node46 -->
<g id="node43" class="node">
<title>Node46</title>
<g id="a_node43"><a xlink:title=" ">
<polygon fill="white" stroke="#bfbfbf" points="4723.17,-112.5 4723.17,-131.5 4824.17,-131.5 4824.17,-112.5 4723.17,-112.5"/>
<text text-anchor="middle" x="4773.67" y="-119.5" font-family="Helvetica,sans-Serif" font-size="10.00">swl/swl_staCap.h</text>
</a>
</g>
</g>
<!-- Node3&#45;&gt;Node46 -->
<g id="edge55" class="edge">
<title>Node3&#45;&gt;Node46</title>
<path fill="none" stroke="midnightblue" d="M3110.26,-176.76C3276.85,-174.88 4360.13,-161.66 4712.76,-131.93"/>
<polygon fill="midnightblue" stroke="midnightblue" points="4713.32,-135.39 4722.98,-131.04 4712.72,-128.42 4713.32,-135.39"/>
</g>
<!-- Node47 -->
<g id="node44" class="node">
<title>Node47</title>
<g id="a_node44"><a xlink:title=" ">
<polygon fill="white" stroke="#bfbfbf" points="4842.67,-112.5 4842.67,-131.5 4946.67,-131.5 4946.67,-112.5 4842.67,-112.5"/>
<text text-anchor="middle" x="4894.67" y="-119.5" font-family="Helvetica,sans-Serif" font-size="10.00">swla/swla_table.h</text>
</a>
</g>
</g>
<!-- Node3&#45;&gt;Node47 -->
<g id="edge56" class="edge">
<title>Node3&#45;&gt;Node47</title>
<path fill="none" stroke="midnightblue" d="M3110.44,-176.8C3284.64,-175.16 4454.66,-163.1 4832.34,-131.98"/>
<polygon fill="midnightblue" stroke="midnightblue" points="4832.8,-135.45 4842.47,-131.12 4832.21,-128.48 4832.8,-135.45"/>
</g>
<!-- Node48 -->
<g id="node45" class="node">
<title>Node48</title>
<g id="a_node45"><a xlink:title=" ">
<polygon fill="white" stroke="#bfbfbf" points="4965.17,-112.5 4965.17,-131.5 5062.17,-131.5 5062.17,-112.5 4965.17,-112.5"/>
<text text-anchor="middle" x="5013.67" y="-119.5" font-family="Helvetica,sans-Serif" font-size="10.00">swl/swl_assert.h</text>
</a>
</g>
</g>
<!-- Node3&#45;&gt;Node48 -->
<g id="edge57" class="edge">
<title>Node3&#45;&gt;Node48</title>
<path fill="none" stroke="midnightblue" d="M3110.21,-176.87C3290.48,-175.7 4550.8,-166.4 4955.02,-131.89"/>
<polygon fill="midnightblue" stroke="midnightblue" points="4955.33,-135.38 4964.99,-131.02 4954.72,-128.41 4955.33,-135.38"/>
</g>
<!-- Node49 -->
<g id="node46" class="node">
<title>Node49</title>
<g id="a_node46"><a xlink:title=" ">
<polygon fill="white" stroke="#bfbfbf" points="5080.17,-112.5 5080.17,-131.5 5201.17,-131.5 5201.17,-112.5 5080.17,-112.5"/>
<text text-anchor="middle" x="5140.67" y="-119.5" font-family="Helvetica,sans-Serif" font-size="10.00">swl/swl_returnCode.h</text>
</a>
</g>
</g>
<!-- Node3&#45;&gt;Node49 -->
<g id="edge58" class="edge">
<title>Node3&#45;&gt;Node49</title>
<path fill="none" stroke="midnightblue" d="M3110.34,-176.83C3297.31,-175.31 4640.95,-163.4 5069.86,-132.04"/>
<polygon fill="midnightblue" stroke="midnightblue" points="5070.41,-135.51 5080.12,-131.27 5069.89,-128.53 5070.41,-135.51"/>
</g>
<!-- Node33&#45;&gt;Node5 -->
<g id="edge34" class="edge">
<title>Node33&#45;&gt;Node5</title>
<path fill="none" stroke="midnightblue" d="M4209.33,-61.29C4309.78,-51.39 4583.12,-24.46 4682.73,-14.64"/>
<polygon fill="midnightblue" stroke="midnightblue" points="4683.3,-18.1 4692.91,-13.64 4682.61,-11.13 4683.3,-18.1"/>
</g>
<!-- Node33&#45;&gt;Node9 -->
<g id="edge35" class="edge">
<title>Node33&#45;&gt;Node9</title>
<path fill="none" stroke="midnightblue" d="M4133.97,-60.26C4059.65,-50.9 3893.63,-30 3803.58,-18.67"/>
<polygon fill="midnightblue" stroke="midnightblue" points="3803.87,-15.18 3793.51,-17.4 3803,-22.12 3803.87,-15.18"/>
</g>
<!-- Node36&#45;&gt;Node4 -->
<g id="edge37" class="edge">
<title>Node36&#45;&gt;Node4</title>
<path fill="none" stroke="midnightblue" d="M3754.4,-112.32C3765.51,-104.11 3782.41,-91.6 3795.65,-81.81"/>
<polygon fill="midnightblue" stroke="midnightblue" points="3797.77,-84.59 3803.73,-75.83 3793.61,-78.97 3797.77,-84.59"/>
</g>
<!-- Node36&#45;&gt;Node9 -->
<g id="edge39" class="edge">
<title>Node36&#45;&gt;Node9</title>
<path fill="none" stroke="midnightblue" d="M3742.67,-112.37C3742.67,-94.62 3742.67,-53.67 3742.67,-29.6"/>
<polygon fill="midnightblue" stroke="midnightblue" points="3746.17,-29.59 3742.67,-19.59 3739.17,-29.59 3746.17,-29.59"/>
</g>
<!-- Node36&#45;&gt;Node37 -->
<g id="edge38" class="edge">
<title>Node36&#45;&gt;Node37</title>
<path fill="none" stroke="midnightblue" d="M3683,-112.75C3680.19,-112.47 3677.4,-112.22 3674.67,-112 3367.27,-87.46 2399.34,-71.98 2125.5,-68.01"/>
<polygon fill="midnightblue" stroke="midnightblue" points="2125.33,-64.51 2115.28,-67.87 2125.23,-71.51 2125.33,-64.51"/>
</g>
<!-- Node38&#45;&gt;Node33 -->
<g id="edge41" class="edge">
<title>Node38&#45;&gt;Node33</title>
<path fill="none" stroke="midnightblue" d="M4314.73,-112.44C4286.01,-103.32 4240.34,-88.81 4208.35,-78.65"/>
<polygon fill="midnightblue" stroke="midnightblue" points="4209.07,-75.21 4198.48,-75.52 4206.95,-81.88 4209.07,-75.21"/>
</g>
<!-- Node39&#45;&gt;Node3 -->
<g id="edge43" class="edge">
<title>Node39&#45;&gt;Node3</title>
<path fill="none" stroke="midnightblue" d="M4034.56,-131.52C4032.91,-131.69 4031.28,-131.85 4029.67,-132 3674.58,-164.72 3241.05,-174.44 3120.8,-176.52"/>
<polygon fill="midnightblue" stroke="midnightblue" points="3120.41,-173.03 3110.47,-176.7 3120.52,-180.03 3120.41,-173.03"/>
</g>
<!-- Node40&#45;&gt;Node33 -->
<g id="edge45" class="edge">
<title>Node40&#45;&gt;Node33</title>
<path fill="none" stroke="midnightblue" d="M3926.46,-113.87C3929.57,-113.23 3932.68,-112.6 3935.67,-112 4000.83,-98.97 4076.28,-84.73 4123.99,-75.83"/>
<polygon fill="midnightblue" stroke="midnightblue" points="4124.83,-79.24 4134.02,-73.96 4123.55,-72.35 4124.83,-79.24"/>
</g>
<!-- Node41&#45;&gt;Node3 -->
<g id="edge47" class="edge">
<title>Node41&#45;&gt;Node3</title>
<path fill="none" stroke="midnightblue" d="M4199.51,-131.48C4197.88,-131.67 4196.26,-131.84 4194.67,-132 3771.71,-173.92 3253.29,-176.96 3120.65,-177.04"/>
<polygon fill="midnightblue" stroke="midnightblue" points="3120.39,-173.54 3110.39,-177.04 3120.39,-180.54 3120.39,-173.54"/>
</g>
<!-- Node42&#45;&gt;Node33 -->
<g id="edge49" class="edge">
<title>Node42&#45;&gt;Node33</title>
<path fill="none" stroke="midnightblue" d="M4008.41,-112.44C4041.61,-103.2 4094.66,-88.44 4131.23,-78.26"/>
<polygon fill="midnightblue" stroke="midnightblue" points="4132.38,-81.57 4141.07,-75.52 4130.5,-74.83 4132.38,-81.57"/>
</g>
<!-- Node44&#45;&gt;Node2 -->
<g id="edge52" class="edge">
<title>Node44&#45;&gt;Node2</title>
<path fill="none" stroke="midnightblue" d="M4704.67,-113.19C4708.05,-112.78 4711.4,-112.38 4714.67,-112 4858.95,-95.41 5028.64,-80.23 5119.46,-72.45"/>
<polygon fill="midnightblue" stroke="midnightblue" points="5119.94,-75.93 5129.61,-71.59 5119.34,-68.95 5119.94,-75.93"/>
</g>
<!-- Node44&#45;&gt;Node33 -->
<g id="edge53" class="edge">
<title>Node44&#45;&gt;Node33</title>
<path fill="none" stroke="midnightblue" d="M4590.44,-113.1C4587.48,-112.72 4584.54,-112.35 4581.67,-112 4450.83,-95.9 4296.15,-79.69 4219.57,-71.85"/>
<polygon fill="midnightblue" stroke="midnightblue" points="4219.6,-68.33 4209.3,-70.8 4218.89,-75.3 4219.6,-68.33"/>
</g>
<!-- Node75&#45;&gt;Node3 -->
<g id="edge60" class="edge">
<title>Node75&#45;&gt;Node3</title>
<path fill="none" stroke="midnightblue" d="M3304.95,-224.44C3253.63,-213.66 3166.53,-195.36 3120.07,-185.6"/>
<polygon fill="midnightblue" stroke="midnightblue" points="3120.76,-182.17 3110.25,-183.54 3119.32,-189.02 3120.76,-182.17"/>
</g>
<!-- Node77&#45;&gt;Node3 -->
<g id="edge62" class="edge">
<title>Node77&#45;&gt;Node3</title>
<path fill="none" stroke="midnightblue" d="M2959.91,-224.44C2986.29,-215.13 3028.56,-200.22 3057.41,-190.03"/>
<polygon fill="midnightblue" stroke="midnightblue" points="3058.75,-193.27 3067.01,-186.64 3056.42,-186.67 3058.75,-193.27"/>
</g>
<!-- Node84&#45;&gt;Node3 -->
<g id="edge64" class="edge">
<title>Node84&#45;&gt;Node3</title>
<path fill="none" stroke="midnightblue" d="M3033.27,-224.32C3043.12,-216.26 3058.02,-204.08 3069.88,-194.37"/>
<polygon fill="midnightblue" stroke="midnightblue" points="3072.35,-196.88 3077.87,-187.83 3067.92,-191.46 3072.35,-196.88"/>
</g>
<!-- Node85&#45;&gt;Node3 -->
<g id="edge66" class="edge">
<title>Node85&#45;&gt;Node3</title>
<path fill="none" stroke="midnightblue" d="M3144.06,-224.32C3134.21,-216.26 3119.32,-204.08 3107.45,-194.37"/>
<polygon fill="midnightblue" stroke="midnightblue" points="3109.42,-191.46 3099.47,-187.83 3104.99,-196.88 3109.42,-191.46"/>
</g>
</g>
</svg>
