<?xml version="1.0" encoding="UTF-8" standalone="no"?>
<!DOCTYPE svg PUBLIC "-//W3C//DTD SVG 1.1//EN"
 "http://www.w3.org/Graphics/SVG/1.1/DTD/svg11.dtd">
<!-- Generated by graphviz version 2.43.0 (0)
 -->
<!-- Title: test/testHelper/wld_th_vap.h Pages: 1 -->
<svg width="4948pt" height="319pt"
 viewBox="0.00 0.00 4948.00 319.00" xmlns="http://www.w3.org/2000/svg" xmlns:xlink="http://www.w3.org/1999/xlink">
<g id="graph0" class="graph" transform="scale(1 1) rotate(0) translate(4 315)">
<title>test/testHelper/wld_th_vap.h</title>
<polygon fill="white" stroke="transparent" points="-4,4 -4,-315 4944,-315 4944,4 -4,4"/>
<!-- Node1 -->
<g id="node1" class="node">
<title>Node1</title>
<g id="a_node1"><a xlink:title=" ">
<polygon fill="#bfbfbf" stroke="black" points="2300.5,-280.5 2300.5,-310.5 2410.5,-310.5 2410.5,-280.5 2300.5,-280.5"/>
<text text-anchor="start" x="2308.5" y="-298.5" font-family="Helvetica,sans-Serif" font-size="10.00">test/testHelper/wld</text>
<text text-anchor="middle" x="2355.5" y="-287.5" font-family="Helvetica,sans-Serif" font-size="10.00">_th_vap.h</text>
</a>
</g>
</g>
<!-- Node2 -->
<g id="node2" class="node">
<title>Node2</title>
<g id="a_node2"><a xlink:href="wld__types_8h.html" target="_top" xlink:title=" ">
<polygon fill="white" stroke="black" points="4612,-56.5 4612,-75.5 4687,-75.5 4687,-56.5 4612,-56.5"/>
<text text-anchor="middle" x="4649.5" y="-63.5" font-family="Helvetica,sans-Serif" font-size="10.00">wld_types.h</text>
</a>
</g>
</g>
<!-- Node1&#45;&gt;Node2 -->
<g id="edge1" class="edge">
<title>Node1&#45;&gt;Node2</title>
<path fill="none" stroke="midnightblue" d="M2390.73,-280.45C2414.59,-270.71 2446.72,-257.18 2474.5,-244 2491.74,-235.82 2494.01,-228.75 2512.5,-224 2725.08,-169.41 4269.1,-209.76 4487.5,-188 4625.51,-174.25 4705.66,-238.51 4794.5,-132 4824.63,-95.88 4750.3,-79.04 4697.29,-71.82"/>
<polygon fill="midnightblue" stroke="midnightblue" points="4697.71,-68.34 4687.34,-70.54 4696.81,-75.29 4697.71,-68.34"/>
</g>
<!-- Node7 -->
<g id="node7" class="node">
<title>Node7</title>
<g id="a_node7"><a xlink:href="wld__th__types_8h.html" target="_top" xlink:title=" ">
<polygon fill="white" stroke="black" points="2521.5,-224.5 2521.5,-243.5 2611.5,-243.5 2611.5,-224.5 2521.5,-224.5"/>
<text text-anchor="middle" x="2566.5" y="-231.5" font-family="Helvetica,sans-Serif" font-size="10.00">wld_th_types.h</text>
</a>
</g>
</g>
<!-- Node1&#45;&gt;Node7 -->
<g id="edge6" class="edge">
<title>Node1&#45;&gt;Node7</title>
<path fill="none" stroke="midnightblue" d="M2405.24,-280.47C2442.27,-270.03 2492.18,-255.96 2526.62,-246.25"/>
<polygon fill="midnightblue" stroke="midnightblue" points="2527.66,-249.59 2536.33,-243.51 2525.76,-242.85 2527.66,-249.59"/>
</g>
<!-- Node8 -->
<g id="node8" class="node">
<title>Node8</title>
<g id="a_node8"><a xlink:title=" ">
<polygon fill="white" stroke="#bfbfbf" points="2629.5,-224.5 2629.5,-243.5 2753.5,-243.5 2753.5,-224.5 2629.5,-224.5"/>
<text text-anchor="middle" x="2691.5" y="-231.5" font-family="Helvetica,sans-Serif" font-size="10.00">amxc/amxc_macros.h</text>
</a>
</g>
</g>
<!-- Node1&#45;&gt;Node8 -->
<g id="edge7" class="edge">
<title>Node1&#45;&gt;Node8</title>
<path fill="none" stroke="midnightblue" d="M2410.61,-284.74C2471.98,-273.87 2570.76,-256.38 2633.34,-245.3"/>
<polygon fill="midnightblue" stroke="midnightblue" points="2634.21,-248.7 2643.45,-243.51 2632.99,-241.81 2634.21,-248.7"/>
</g>
<!-- Node9 -->
<g id="node9" class="node">
<title>Node9</title>
<g id="a_node9"><a xlink:title=" ">
<polygon fill="white" stroke="#bfbfbf" points="0,-112.5 0,-131.5 83,-131.5 83,-112.5 0,-112.5"/>
<text text-anchor="middle" x="41.5" y="-119.5" font-family="Helvetica,sans-Serif" font-size="10.00">amxc/amxc.h</text>
</a>
</g>
</g>
<!-- Node1&#45;&gt;Node9 -->
<g id="edge8" class="edge">
<title>Node1&#45;&gt;Node9</title>
<path fill="none" stroke="midnightblue" d="M2300.38,-293.63C2075.11,-289.61 1202.6,-269.34 490.5,-188 316.23,-168.09 270.56,-160.25 93.16,-132.06"/>
<polygon fill="midnightblue" stroke="midnightblue" points="93.65,-128.6 83.23,-130.49 92.56,-135.51 93.65,-128.6"/>
</g>
<!-- Node10 -->
<g id="node10" class="node">
<title>Node10</title>
<g id="a_node10"><a xlink:title=" ">
<polygon fill="white" stroke="#bfbfbf" points="101.5,-112.5 101.5,-131.5 185.5,-131.5 185.5,-112.5 101.5,-112.5"/>
<text text-anchor="middle" x="143.5" y="-119.5" font-family="Helvetica,sans-Serif" font-size="10.00">amxp/amxp.h</text>
</a>
</g>
</g>
<!-- Node1&#45;&gt;Node10 -->
<g id="edge9" class="edge">
<title>Node1&#45;&gt;Node10</title>
<path fill="none" stroke="midnightblue" d="M2300.3,-292.27C2155.12,-286.25 1750.64,-268.44 1414.5,-244 874.75,-204.76 735.88,-204.27 195.75,-132.07"/>
<polygon fill="midnightblue" stroke="midnightblue" points="196.13,-128.59 185.76,-130.74 195.21,-135.53 196.13,-128.59"/>
</g>
<!-- Node11 -->
<g id="node11" class="node">
<title>Node11</title>
<g id="a_node11"><a xlink:title=" ">
<polygon fill="white" stroke="#bfbfbf" points="204,-112.5 204,-131.5 309,-131.5 309,-112.5 204,-112.5"/>
<text text-anchor="middle" x="256.5" y="-119.5" font-family="Helvetica,sans-Serif" font-size="10.00">amxd/amxd_dm.h</text>
</a>
</g>
</g>
<!-- Node1&#45;&gt;Node11 -->
<g id="edge10" class="edge">
<title>Node1&#45;&gt;Node11</title>
<path fill="none" stroke="midnightblue" d="M2300.1,-293.08C2169.94,-289.28 1834.63,-276.88 1556.5,-244 1412.24,-226.95 1377.18,-215.26 1234.5,-188 1191.69,-179.82 1181.74,-173.42 1138.5,-168 779.37,-123.02 682.83,-165.91 319.05,-132.05"/>
<polygon fill="midnightblue" stroke="midnightblue" points="319.32,-128.56 309.03,-131.1 318.66,-135.52 319.32,-128.56"/>
</g>
<!-- Node12 -->
<g id="node12" class="node">
<title>Node12</title>
<g id="a_node12"><a xlink:title=" ">
<polygon fill="white" stroke="#bfbfbf" points="327,-112.5 327,-131.5 446,-131.5 446,-112.5 327,-112.5"/>
<text text-anchor="middle" x="386.5" y="-119.5" font-family="Helvetica,sans-Serif" font-size="10.00">amxd/amxd_object.h</text>
</a>
</g>
</g>
<!-- Node1&#45;&gt;Node12 -->
<g id="edge11" class="edge">
<title>Node1&#45;&gt;Node12</title>
<path fill="none" stroke="midnightblue" d="M2300.24,-289.31C2204.96,-280.32 2003.58,-261.18 1833.5,-244 1596.95,-220.11 1534.63,-234.65 1301.5,-188 1271.03,-181.9 1265.14,-173.2 1234.5,-168 896.05,-110.55 802.53,-161.45 456.36,-131.98"/>
<polygon fill="midnightblue" stroke="midnightblue" points="456.57,-128.49 446.31,-131.11 455.97,-135.46 456.57,-128.49"/>
</g>
<!-- Node13 -->
<g id="node13" class="node">
<title>Node13</title>
<g id="a_node13"><a xlink:title=" ">
<polygon fill="white" stroke="#bfbfbf" points="2772,-224.5 2772,-243.5 2883,-243.5 2883,-224.5 2772,-224.5"/>
<text text-anchor="middle" x="2827.5" y="-231.5" font-family="Helvetica,sans-Serif" font-size="10.00">amxd/amxd_path.h</text>
</a>
</g>
</g>
<!-- Node1&#45;&gt;Node13 -->
<g id="edge12" class="edge">
<title>Node1&#45;&gt;Node13</title>
<path fill="none" stroke="midnightblue" d="M2410.83,-287.89C2487.17,-278.71 2629.38,-261.4 2761.53,-244.11"/>
<polygon fill="midnightblue" stroke="midnightblue" points="2762.38,-247.53 2771.84,-242.76 2761.47,-240.59 2762.38,-247.53"/>
</g>
<!-- Node14 -->
<g id="node14" class="node">
<title>Node14</title>
<g id="a_node14"><a xlink:title=" ">
<polygon fill="white" stroke="#bfbfbf" points="464.5,-112.5 464.5,-131.5 616.5,-131.5 616.5,-112.5 464.5,-112.5"/>
<text text-anchor="middle" x="540.5" y="-119.5" font-family="Helvetica,sans-Serif" font-size="10.00">amxd/amxd_object_event.h</text>
</a>
</g>
</g>
<!-- Node1&#45;&gt;Node14 -->
<g id="edge13" class="edge">
<title>Node1&#45;&gt;Node14</title>
<path fill="none" stroke="midnightblue" d="M2300.49,-286.59C2144.37,-264.43 1685.02,-201.19 1301.5,-168 1005.12,-142.35 927.17,-155.54 627.24,-132.1"/>
<polygon fill="midnightblue" stroke="midnightblue" points="627.18,-128.58 616.94,-131.28 626.63,-135.56 627.18,-128.58"/>
</g>
<!-- Node15 -->
<g id="node15" class="node">
<title>Node15</title>
<g id="a_node15"><a xlink:title=" ">
<polygon fill="white" stroke="#bfbfbf" points="635,-112.5 635,-131.5 718,-131.5 718,-112.5 635,-112.5"/>
<text text-anchor="middle" x="676.5" y="-119.5" font-family="Helvetica,sans-Serif" font-size="10.00">amxo/amxo.h</text>
</a>
</g>
</g>
<!-- Node1&#45;&gt;Node15 -->
<g id="edge14" class="edge">
<title>Node1&#45;&gt;Node15</title>
<path fill="none" stroke="midnightblue" d="M2308.34,-280.5C2213.55,-253.07 1992.7,-192.78 1802.5,-168 1339.47,-107.66 1218.09,-167.49 752.5,-132 744.68,-131.4 736.42,-130.6 728.34,-129.73"/>
<polygon fill="midnightblue" stroke="midnightblue" points="728.58,-126.23 718.25,-128.58 727.79,-133.19 728.58,-126.23"/>
</g>
<!-- Node16 -->
<g id="node16" class="node">
<title>Node16</title>
<g id="a_node16"><a xlink:title=" ">
<polygon fill="white" stroke="#bfbfbf" points="2901,-224.5 2901,-243.5 3012,-243.5 3012,-224.5 2901,-224.5"/>
<text text-anchor="middle" x="2956.5" y="-231.5" font-family="Helvetica,sans-Serif" font-size="10.00">amxo/amxo_save.h</text>
</a>
</g>
</g>
<!-- Node1&#45;&gt;Node16 -->
<g id="edge15" class="edge">
<title>Node1&#45;&gt;Node16</title>
<path fill="none" stroke="midnightblue" d="M2410.75,-290.09C2506.29,-282.3 2708.77,-265.02 2890.82,-244.03"/>
<polygon fill="midnightblue" stroke="midnightblue" points="2891.32,-247.5 2900.85,-242.87 2890.51,-240.54 2891.32,-247.5"/>
</g>
<!-- Node17 -->
<g id="node17" class="node">
<title>Node17</title>
<g id="a_node17"><a xlink:title=" ">
<polygon fill="white" stroke="#bfbfbf" points="3030.5,-224.5 3030.5,-243.5 3114.5,-243.5 3114.5,-224.5 3030.5,-224.5"/>
<text text-anchor="middle" x="3072.5" y="-231.5" font-family="Helvetica,sans-Serif" font-size="10.00">amxb/amxb.h</text>
</a>
</g>
</g>
<!-- Node1&#45;&gt;Node17 -->
<g id="edge16" class="edge">
<title>Node1&#45;&gt;Node17</title>
<path fill="none" stroke="midnightblue" d="M2410.85,-292.09C2523.51,-286.79 2787.67,-272.39 3020.26,-243.89"/>
<polygon fill="midnightblue" stroke="midnightblue" points="3020.77,-247.36 3030.26,-242.66 3019.91,-240.41 3020.77,-247.36"/>
</g>
<!-- Node18 -->
<g id="node18" class="node">
<title>Node18</title>
<g id="a_node18"><a xlink:href="wld_8h.html" target="_top" xlink:title=" ">
<polygon fill="white" stroke="red" points="2359,-168.5 2359,-187.5 2422,-187.5 2422,-168.5 2359,-168.5"/>
<text text-anchor="middle" x="2390.5" y="-175.5" font-family="Helvetica,sans-Serif" font-size="10.00">wld/wld.h</text>
</a>
</g>
</g>
<!-- Node1&#45;&gt;Node18 -->
<g id="edge17" class="edge">
<title>Node1&#45;&gt;Node18</title>
<path fill="none" stroke="midnightblue" d="M2358.96,-280.36C2362.55,-266.06 2368.46,-243.36 2374.5,-224 2377.28,-215.08 2380.71,-205.3 2383.68,-197.14"/>
<polygon fill="midnightblue" stroke="midnightblue" points="2387.04,-198.15 2387.23,-187.56 2380.48,-195.72 2387.04,-198.15"/>
</g>
<!-- Node80 -->
<g id="node49" class="node">
<title>Node80</title>
<g id="a_node49"><a xlink:href="wld__accesspoint_8h.html" target="_top" xlink:title=" ">
<polygon fill="white" stroke="red" points="2201.5,-224.5 2201.5,-243.5 2327.5,-243.5 2327.5,-224.5 2201.5,-224.5"/>
<text text-anchor="middle" x="2264.5" y="-231.5" font-family="Helvetica,sans-Serif" font-size="10.00">wld/wld_accesspoint.h</text>
</a>
</g>
</g>
<!-- Node1&#45;&gt;Node80 -->
<g id="edge68" class="edge">
<title>Node1&#45;&gt;Node80</title>
<path fill="none" stroke="midnightblue" d="M2333.93,-280.4C2319.62,-271.04 2300.89,-258.79 2286.49,-249.38"/>
<polygon fill="midnightblue" stroke="midnightblue" points="2288.03,-246.2 2277.74,-243.66 2284.2,-252.06 2288.03,-246.2"/>
</g>
<!-- Node82 -->
<g id="node50" class="node">
<title>Node82</title>
<g id="a_node50"><a xlink:href="wld__th__fsm_8h.html" target="_top" xlink:title=" ">
<polygon fill="white" stroke="black" points="2383.5,-224.5 2383.5,-243.5 2465.5,-243.5 2465.5,-224.5 2383.5,-224.5"/>
<text text-anchor="middle" x="2424.5" y="-231.5" font-family="Helvetica,sans-Serif" font-size="10.00">wld_th_fsm.h</text>
</a>
</g>
</g>
<!-- Node1&#45;&gt;Node82 -->
<g id="edge70" class="edge">
<title>Node1&#45;&gt;Node82</title>
<path fill="none" stroke="midnightblue" d="M2371.85,-280.4C2382.4,-271.31 2396.1,-259.49 2406.88,-250.19"/>
<polygon fill="midnightblue" stroke="midnightblue" points="2409.17,-252.84 2414.46,-243.66 2404.6,-247.54 2409.17,-252.84"/>
</g>
<!-- Node3 -->
<g id="node3" class="node">
<title>Node3</title>
<g id="a_node3"><a xlink:title=" ">
<polygon fill="white" stroke="#bfbfbf" points="2726,-0.5 2726,-19.5 2779,-19.5 2779,-0.5 2726,-0.5"/>
<text text-anchor="middle" x="2752.5" y="-7.5" font-family="Helvetica,sans-Serif" font-size="10.00">stdint.h</text>
</a>
</g>
</g>
<!-- Node2&#45;&gt;Node3 -->
<g id="edge2" class="edge">
<title>Node2&#45;&gt;Node3</title>
<path fill="none" stroke="midnightblue" d="M4611.61,-63.92C4368.48,-57 3030.16,-18.9 2789.56,-12.05"/>
<polygon fill="midnightblue" stroke="midnightblue" points="2789.34,-8.55 2779.25,-11.76 2789.15,-15.54 2789.34,-8.55"/>
</g>
<!-- Node4 -->
<g id="node4" class="node">
<title>Node4</title>
<g id="a_node4"><a xlink:title=" ">
<polygon fill="white" stroke="#bfbfbf" points="4590,-0.5 4590,-19.5 4735,-19.5 4735,-0.5 4590,-0.5"/>
<text text-anchor="middle" x="4662.5" y="-7.5" font-family="Helvetica,sans-Serif" font-size="10.00">swl/types/swl_arrayType.h</text>
</a>
</g>
</g>
<!-- Node2&#45;&gt;Node4 -->
<g id="edge3" class="edge">
<title>Node2&#45;&gt;Node4</title>
<path fill="none" stroke="midnightblue" d="M4651.65,-56.08C4653.37,-48.93 4655.85,-38.64 4658,-29.69"/>
<polygon fill="midnightblue" stroke="midnightblue" points="4661.46,-30.29 4660.39,-19.75 4654.65,-28.65 4661.46,-30.29"/>
</g>
<!-- Node5 -->
<g id="node5" class="node">
<title>Node5</title>
<g id="a_node5"><a xlink:title=" ">
<polygon fill="white" stroke="#bfbfbf" points="4779,-0.5 4779,-19.5 4940,-19.5 4940,-0.5 4779,-0.5"/>
<text text-anchor="middle" x="4859.5" y="-7.5" font-family="Helvetica,sans-Serif" font-size="10.00">swla/swla_namedTupleType.h</text>
</a>
</g>
</g>
<!-- Node2&#45;&gt;Node5 -->
<g id="edge4" class="edge">
<title>Node2&#45;&gt;Node5</title>
<path fill="none" stroke="midnightblue" d="M4682.78,-56.44C4718.95,-47.14 4776.88,-32.25 4816.48,-22.06"/>
<polygon fill="midnightblue" stroke="midnightblue" points="4817.57,-25.4 4826.38,-19.52 4815.82,-18.62 4817.57,-25.4"/>
</g>
<!-- Node6 -->
<g id="node6" class="node">
<title>Node6</title>
<g id="a_node6"><a xlink:title=" ">
<polygon fill="white" stroke="#bfbfbf" points="784,-0.5 784,-19.5 885,-19.5 885,-0.5 784,-0.5"/>
<text text-anchor="middle" x="834.5" y="-7.5" font-family="Helvetica,sans-Serif" font-size="10.00">swla/swla_time.h</text>
</a>
</g>
</g>
<!-- Node2&#45;&gt;Node6 -->
<g id="edge5" class="edge">
<title>Node2&#45;&gt;Node6</title>
<path fill="none" stroke="midnightblue" d="M4611.74,-64.47C4246.94,-59.3 1351.88,-18.32 895.09,-11.86"/>
<polygon fill="midnightblue" stroke="midnightblue" points="895.12,-8.36 885.07,-11.72 895.02,-15.36 895.12,-8.36"/>
</g>
<!-- Node18&#45;&gt;Node2 -->
<g id="edge48" class="edge">
<title>Node18&#45;&gt;Node2</title>
<path fill="none" stroke="midnightblue" d="M2422.33,-176.72C2676.65,-174.44 4371.62,-158.27 4475.5,-132 4494.39,-127.22 4496.54,-119.55 4514.5,-112 4545.8,-98.85 4582.41,-86.85 4609.6,-78.55"/>
<polygon fill="midnightblue" stroke="midnightblue" points="4610.96,-81.8 4619.53,-75.56 4608.94,-75.09 4610.96,-81.8"/>
</g>
<!-- Node18&#45;&gt;Node3 -->
<g id="edge19" class="edge">
<title>Node18&#45;&gt;Node3</title>
<path fill="none" stroke="midnightblue" d="M2358.87,-176.11C2153.28,-170.28 1015.06,-137.77 1008.5,-132 982.97,-109.52 975.76,-80.36 999.5,-56 1030.53,-24.16 2465.21,-12.96 2715.46,-11.24"/>
<polygon fill="midnightblue" stroke="midnightblue" points="2715.85,-14.74 2725.83,-11.17 2715.81,-7.74 2715.85,-14.74"/>
</g>
<!-- Node18&#45;&gt;Node4 -->
<g id="edge66" class="edge">
<title>Node18&#45;&gt;Node4</title>
<path fill="none" stroke="midnightblue" d="M2422.27,-177.02C2701.91,-177.09 4734.25,-176.07 4777.5,-132 4815.59,-93.18 4736.05,-46.26 4690.86,-23.97"/>
<polygon fill="midnightblue" stroke="midnightblue" points="4692.32,-20.79 4681.79,-19.6 4689.28,-27.09 4692.32,-20.79"/>
</g>
<!-- Node18&#45;&gt;Node5 -->
<g id="edge67" class="edge">
<title>Node18&#45;&gt;Node5</title>
<path fill="none" stroke="midnightblue" d="M2422.38,-176.85C2702.96,-175.51 4742.51,-164.6 4795.5,-132 4832.33,-109.35 4849.13,-57.78 4855.78,-29.84"/>
<polygon fill="midnightblue" stroke="midnightblue" points="4859.26,-30.28 4857.97,-19.77 4852.42,-28.8 4859.26,-30.28"/>
</g>
<!-- Node18&#45;&gt;Node6 -->
<g id="edge24" class="edge">
<title>Node18&#45;&gt;Node6</title>
<path fill="none" stroke="midnightblue" d="M2358.81,-176.1C2301.48,-174.47 2176.73,-170.93 2071.5,-168 2035.22,-166.99 790.81,-158.01 765.5,-132 734.19,-99.82 784.59,-50.67 814.65,-26.09"/>
<polygon fill="midnightblue" stroke="midnightblue" points="817.2,-28.53 822.86,-19.57 812.85,-23.05 817.2,-28.53"/>
</g>
<!-- Node18&#45;&gt;Node9 -->
<g id="edge32" class="edge">
<title>Node18&#45;&gt;Node9</title>
<path fill="none" stroke="midnightblue" d="M2358.81,-177.06C2118.75,-177.38 582.86,-177.63 93.48,-131.88"/>
<polygon fill="midnightblue" stroke="midnightblue" points="93.46,-128.37 83.18,-130.9 92.8,-135.33 93.46,-128.37"/>
</g>
<!-- Node18&#45;&gt;Node10 -->
<g id="edge33" class="edge">
<title>Node18&#45;&gt;Node10</title>
<path fill="none" stroke="midnightblue" d="M2358.73,-177.02C2124.6,-177.09 662.78,-175.74 195.9,-131.95"/>
<polygon fill="midnightblue" stroke="midnightblue" points="196.02,-128.44 185.73,-130.97 195.35,-135.41 196.02,-128.44"/>
</g>
<!-- Node18&#45;&gt;Node11 -->
<g id="edge41" class="edge">
<title>Node18&#45;&gt;Node11</title>
<path fill="none" stroke="midnightblue" d="M2358.72,-176.85C2132.31,-175.74 760.21,-167.62 319.27,-132.02"/>
<polygon fill="midnightblue" stroke="midnightblue" points="319.28,-128.51 309.02,-131.17 318.7,-135.49 319.28,-128.51"/>
</g>
<!-- Node18&#45;&gt;Node12 -->
<g id="edge40" class="edge">
<title>Node18&#45;&gt;Node12</title>
<path fill="none" stroke="midnightblue" d="M2358.77,-176.73C2141.41,-174.78 868.88,-162.25 456.47,-131.96"/>
<polygon fill="midnightblue" stroke="midnightblue" points="456.53,-128.45 446.3,-131.2 456.01,-135.44 456.53,-128.45"/>
</g>
<!-- Node18&#45;&gt;Node14 -->
<g id="edge37" class="edge">
<title>Node18&#45;&gt;Node14</title>
<path fill="none" stroke="midnightblue" d="M2358.95,-176.54C2153.5,-173.5 1002.89,-155.7 627.02,-132.03"/>
<polygon fill="midnightblue" stroke="midnightblue" points="627.13,-128.53 616.93,-131.38 626.69,-135.52 627.13,-128.53"/>
</g>
<!-- Node18&#45;&gt;Node15 -->
<g id="edge46" class="edge">
<title>Node18&#45;&gt;Node15</title>
<path fill="none" stroke="midnightblue" d="M2358.81,-176.09C2301.48,-174.45 2176.73,-170.9 2071.5,-168 1476.4,-151.61 1325.25,-187.35 732.5,-132 731.03,-131.86 729.54,-131.71 728.04,-131.55"/>
<polygon fill="midnightblue" stroke="midnightblue" points="728.37,-128.06 718.01,-130.3 727.5,-135.01 728.37,-128.06"/>
</g>
<!-- Node19 -->
<g id="node19" class="node">
<title>Node19</title>
<g id="a_node19"><a xlink:title=" ">
<polygon fill="white" stroke="#bfbfbf" points="866.5,-56.5 866.5,-75.5 928.5,-75.5 928.5,-56.5 866.5,-56.5"/>
<text text-anchor="middle" x="897.5" y="-63.5" font-family="Helvetica,sans-Serif" font-size="10.00">stdbool.h</text>
</a>
</g>
</g>
<!-- Node18&#45;&gt;Node19 -->
<g id="edge18" class="edge">
<title>Node18&#45;&gt;Node19</title>
<path fill="none" stroke="midnightblue" d="M2358.85,-176.11C2147.98,-170.14 954.62,-136.21 946.5,-132 927.15,-121.97 913.33,-100.44 905.4,-84.9"/>
<polygon fill="midnightblue" stroke="midnightblue" points="908.5,-83.26 901.04,-75.74 902.18,-86.27 908.5,-83.26"/>
</g>
<!-- Node20 -->
<g id="node20" class="node">
<title>Node20</title>
<g id="a_node20"><a xlink:title=" ">
<polygon fill="white" stroke="#bfbfbf" points="1008.5,-56.5 1008.5,-75.5 1118.5,-75.5 1118.5,-56.5 1008.5,-56.5"/>
<text text-anchor="middle" x="1063.5" y="-63.5" font-family="Helvetica,sans-Serif" font-size="10.00">swl/swl_common.h</text>
</a>
</g>
</g>
<!-- Node18&#45;&gt;Node20 -->
<g id="edge20" class="edge">
<title>Node18&#45;&gt;Node20</title>
<path fill="none" stroke="midnightblue" d="M2358.73,-176.11C2153.53,-170.33 1023.53,-138.23 1017.5,-132 1002.46,-116.46 1022.97,-95.65 1041.2,-81.8"/>
<polygon fill="midnightblue" stroke="midnightblue" points="1043.73,-84.3 1049.81,-75.62 1039.64,-78.62 1043.73,-84.3"/>
</g>
<!-- Node21 -->
<g id="node21" class="node">
<title>Node21</title>
<g id="a_node21"><a xlink:title=" ">
<polygon fill="white" stroke="#bfbfbf" points="1158.5,-112.5 1158.5,-131.5 1294.5,-131.5 1294.5,-112.5 1158.5,-112.5"/>
<text text-anchor="middle" x="1226.5" y="-119.5" font-family="Helvetica,sans-Serif" font-size="10.00">swla/swla_commonLib.h</text>
</a>
</g>
</g>
<!-- Node18&#45;&gt;Node21 -->
<g id="edge21" class="edge">
<title>Node18&#45;&gt;Node21</title>
<path fill="none" stroke="midnightblue" d="M2358.76,-176.01C2205.09,-171.16 1536.61,-149.49 1304.95,-132.04"/>
<polygon fill="midnightblue" stroke="midnightblue" points="1305.15,-128.55 1294.91,-131.27 1304.61,-135.53 1305.15,-128.55"/>
</g>
<!-- Node22 -->
<g id="node22" class="node">
<title>Node22</title>
<g id="a_node22"><a xlink:title=" ">
<polygon fill="white" stroke="#bfbfbf" points="1312.5,-112.5 1312.5,-131.5 1400.5,-131.5 1400.5,-112.5 1312.5,-112.5"/>
<text text-anchor="middle" x="1356.5" y="-119.5" font-family="Helvetica,sans-Serif" font-size="10.00">swl/swl_uuid.h</text>
</a>
</g>
</g>
<!-- Node18&#45;&gt;Node22 -->
<g id="edge22" class="edge">
<title>Node18&#45;&gt;Node22</title>
<path fill="none" stroke="midnightblue" d="M2358.73,-176.07C2214.49,-171.75 1619.6,-153.08 1410.64,-131.96"/>
<polygon fill="midnightblue" stroke="midnightblue" points="1411,-128.48 1400.69,-130.92 1410.27,-135.44 1411,-128.48"/>
</g>
<!-- Node23 -->
<g id="node23" class="node">
<title>Node23</title>
<g id="a_node23"><a xlink:title=" ">
<polygon fill="white" stroke="#bfbfbf" points="1418.5,-112.5 1418.5,-131.5 1570.5,-131.5 1570.5,-112.5 1418.5,-112.5"/>
<text text-anchor="middle" x="1494.5" y="-119.5" font-family="Helvetica,sans-Serif" font-size="10.00">swla/swla_radioStandards.h</text>
</a>
</g>
</g>
<!-- Node18&#45;&gt;Node23 -->
<g id="edge23" class="edge">
<title>Node18&#45;&gt;Node23</title>
<path fill="none" stroke="midnightblue" d="M2358.77,-175.81C2251.2,-171.66 1890.27,-156.75 1581,-132.08"/>
<polygon fill="midnightblue" stroke="midnightblue" points="1581.19,-128.59 1570.94,-131.28 1580.63,-135.56 1581.19,-128.59"/>
</g>
<!-- Node24 -->
<g id="node24" class="node">
<title>Node24</title>
<g id="a_node24"><a xlink:title=" ">
<polygon fill="white" stroke="#bfbfbf" points="1589,-112.5 1589,-131.5 1718,-131.5 1718,-112.5 1589,-112.5"/>
<text text-anchor="middle" x="1653.5" y="-119.5" font-family="Helvetica,sans-Serif" font-size="10.00">swla/swla_time_spec.h</text>
</a>
</g>
</g>
<!-- Node18&#45;&gt;Node24 -->
<g id="edge25" class="edge">
<title>Node18&#45;&gt;Node24</title>
<path fill="none" stroke="midnightblue" d="M2358.71,-175.44C2264.36,-170.7 1977.54,-155.36 1728.03,-132"/>
<polygon fill="midnightblue" stroke="midnightblue" points="1728.34,-128.51 1718.05,-131.06 1727.68,-135.48 1728.34,-128.51"/>
</g>
<!-- Node25 -->
<g id="node25" class="node">
<title>Node25</title>
<g id="a_node25"><a xlink:title=" ">
<polygon fill="white" stroke="#bfbfbf" points="1736.5,-112.5 1736.5,-131.5 1830.5,-131.5 1830.5,-112.5 1736.5,-112.5"/>
<text text-anchor="middle" x="1783.5" y="-119.5" font-family="Helvetica,sans-Serif" font-size="10.00">swla/swla_oui.h</text>
</a>
</g>
</g>
<!-- Node18&#45;&gt;Node25 -->
<g id="edge26" class="edge">
<title>Node18&#45;&gt;Node25</title>
<path fill="none" stroke="midnightblue" d="M2358.73,-175.27C2275.47,-170.56 2043.89,-156.28 1840.49,-132.03"/>
<polygon fill="midnightblue" stroke="midnightblue" points="1840.86,-128.55 1830.52,-130.83 1840.03,-135.5 1840.86,-128.55"/>
</g>
<!-- Node26 -->
<g id="node26" class="node">
<title>Node26</title>
<g id="a_node26"><a xlink:title=" ">
<polygon fill="white" stroke="#bfbfbf" points="1848.5,-112.5 1848.5,-131.5 1976.5,-131.5 1976.5,-112.5 1848.5,-112.5"/>
<text text-anchor="middle" x="1912.5" y="-119.5" font-family="Helvetica,sans-Serif" font-size="10.00">swla/swla_delayExec.h</text>
</a>
</g>
</g>
<!-- Node18&#45;&gt;Node26 -->
<g id="edge27" class="edge">
<title>Node18&#45;&gt;Node26</title>
<path fill="none" stroke="midnightblue" d="M2358.98,-173.63C2292.34,-166.47 2132.04,-149.11 1986.59,-132.12"/>
<polygon fill="midnightblue" stroke="midnightblue" points="1986.93,-128.63 1976.59,-130.95 1986.11,-135.58 1986.93,-128.63"/>
</g>
<!-- Node27 -->
<g id="node27" class="node">
<title>Node27</title>
<g id="a_node27"><a xlink:title=" ">
<polygon fill="white" stroke="#bfbfbf" points="1995,-112.5 1995,-131.5 2114,-131.5 2114,-112.5 1995,-112.5"/>
<text text-anchor="middle" x="2054.5" y="-119.5" font-family="Helvetica,sans-Serif" font-size="10.00">swla/swla_function.h</text>
</a>
</g>
</g>
<!-- Node18&#45;&gt;Node27 -->
<g id="edge28" class="edge">
<title>Node18&#45;&gt;Node27</title>
<path fill="none" stroke="midnightblue" d="M2358.89,-171.92C2303.93,-163.09 2189.76,-144.74 2117.93,-133.19"/>
<polygon fill="midnightblue" stroke="midnightblue" points="2118.08,-129.67 2107.65,-131.54 2116.97,-136.58 2118.08,-129.67"/>
</g>
<!-- Node28 -->
<g id="node28" class="node">
<title>Node28</title>
<g id="a_node28"><a xlink:title=" ">
<polygon fill="white" stroke="#bfbfbf" points="2132,-112.5 2132,-131.5 2273,-131.5 2273,-112.5 2132,-112.5"/>
<text text-anchor="middle" x="2202.5" y="-119.5" font-family="Helvetica,sans-Serif" font-size="10.00">swl/swl_usp_cmdStatus.h</text>
</a>
</g>
</g>
<!-- Node18&#45;&gt;Node28 -->
<g id="edge29" class="edge">
<title>Node18&#45;&gt;Node28</title>
<path fill="none" stroke="midnightblue" d="M2360.71,-168.44C2328.67,-159.24 2277.57,-144.56 2242.15,-134.39"/>
<polygon fill="midnightblue" stroke="midnightblue" points="2242.73,-130.91 2232.15,-131.52 2240.79,-137.64 2242.73,-130.91"/>
</g>
<!-- Node29 -->
<g id="node29" class="node">
<title>Node29</title>
<g id="a_node29"><a xlink:title=" ">
<polygon fill="white" stroke="#bfbfbf" points="2291.5,-112.5 2291.5,-131.5 2377.5,-131.5 2377.5,-112.5 2291.5,-112.5"/>
<text text-anchor="middle" x="2334.5" y="-119.5" font-family="Helvetica,sans-Serif" font-size="10.00">swl/swl_wps.h</text>
</a>
</g>
</g>
<!-- Node18&#45;&gt;Node29 -->
<g id="edge30" class="edge">
<title>Node18&#45;&gt;Node29</title>
<path fill="none" stroke="midnightblue" d="M2381.5,-168.32C2373.31,-160.42 2360.99,-148.55 2351.03,-138.94"/>
<polygon fill="midnightblue" stroke="midnightblue" points="2353.29,-136.26 2343.66,-131.83 2348.43,-141.29 2353.29,-136.26"/>
</g>
<!-- Node30 -->
<g id="node30" class="node">
<title>Node30</title>
<g id="a_node30"><a xlink:title=" ">
<polygon fill="white" stroke="#bfbfbf" points="2395.5,-112.5 2395.5,-131.5 2499.5,-131.5 2499.5,-112.5 2395.5,-112.5"/>
<text text-anchor="middle" x="2447.5" y="-119.5" font-family="Helvetica,sans-Serif" font-size="10.00">swl/swl_security.h</text>
</a>
</g>
</g>
<!-- Node18&#45;&gt;Node30 -->
<g id="edge31" class="edge">
<title>Node18&#45;&gt;Node30</title>
<path fill="none" stroke="midnightblue" d="M2399.66,-168.32C2408,-160.42 2420.53,-148.55 2430.68,-138.94"/>
<polygon fill="midnightblue" stroke="midnightblue" points="2433.32,-141.25 2438.18,-131.83 2428.51,-136.17 2433.32,-141.25"/>
</g>
<!-- Node31 -->
<g id="node31" class="node">
<title>Node31</title>
<g id="a_node31"><a xlink:title=" ">
<polygon fill="white" stroke="#bfbfbf" points="2517.5,-112.5 2517.5,-131.5 2657.5,-131.5 2657.5,-112.5 2517.5,-112.5"/>
<text text-anchor="middle" x="2587.5" y="-119.5" font-family="Helvetica,sans-Serif" font-size="10.00">amxd/amxd_parameter.h</text>
</a>
</g>
</g>
<!-- Node18&#45;&gt;Node31 -->
<g id="edge34" class="edge">
<title>Node18&#45;&gt;Node31</title>
<path fill="none" stroke="midnightblue" d="M2421.72,-168.44C2455.43,-159.2 2509.3,-144.44 2546.43,-134.26"/>
<polygon fill="midnightblue" stroke="midnightblue" points="2547.71,-137.54 2556.43,-131.52 2545.86,-130.78 2547.71,-137.54"/>
</g>
<!-- Node32 -->
<g id="node32" class="node">
<title>Node32</title>
<g id="a_node32"><a xlink:title=" ">
<polygon fill="white" stroke="#bfbfbf" points="2676,-112.5 2676,-131.5 2795,-131.5 2795,-112.5 2676,-112.5"/>
<text text-anchor="middle" x="2735.5" y="-119.5" font-family="Helvetica,sans-Serif" font-size="10.00">amxd/amxd_action.h</text>
</a>
</g>
</g>
<!-- Node18&#45;&gt;Node32 -->
<g id="edge35" class="edge">
<title>Node18&#45;&gt;Node32</title>
<path fill="none" stroke="midnightblue" d="M2422.03,-172.06C2478.27,-163.26 2596.93,-144.69 2671.04,-133.09"/>
<polygon fill="midnightblue" stroke="midnightblue" points="2671.85,-136.5 2681.19,-131.5 2670.77,-129.59 2671.85,-136.5"/>
</g>
<!-- Node33 -->
<g id="node33" class="node">
<title>Node33</title>
<g id="a_node33"><a xlink:title=" ">
<polygon fill="white" stroke="#bfbfbf" points="2813,-112.5 2813,-131.5 2988,-131.5 2988,-112.5 2813,-112.5"/>
<text text-anchor="middle" x="2900.5" y="-119.5" font-family="Helvetica,sans-Serif" font-size="10.00">amxd/amxd_object_parameter.h</text>
</a>
</g>
</g>
<!-- Node18&#45;&gt;Node33 -->
<g id="edge36" class="edge">
<title>Node18&#45;&gt;Node33</title>
<path fill="none" stroke="midnightblue" d="M2422.02,-173.66C2498.09,-165.61 2694.04,-144.86 2810.22,-132.56"/>
<polygon fill="midnightblue" stroke="midnightblue" points="2810.6,-136.04 2820.18,-131.5 2809.86,-129.08 2810.6,-136.04"/>
</g>
<!-- Node34 -->
<g id="node34" class="node">
<title>Node34</title>
<g id="a_node34"><a xlink:title=" ">
<polygon fill="white" stroke="#bfbfbf" points="3006,-112.5 3006,-131.5 3135,-131.5 3135,-112.5 3006,-112.5"/>
<text text-anchor="middle" x="3070.5" y="-119.5" font-family="Helvetica,sans-Serif" font-size="10.00">amxd/amxd_function.h</text>
</a>
</g>
</g>
<!-- Node18&#45;&gt;Node34 -->
<g id="edge38" class="edge">
<title>Node18&#45;&gt;Node34</title>
<path fill="none" stroke="midnightblue" d="M2422.09,-175.18C2510.7,-169.96 2769.33,-153.96 2995.86,-132.01"/>
<polygon fill="midnightblue" stroke="midnightblue" points="2996.33,-135.49 3005.95,-131.03 2995.65,-128.52 2996.33,-135.49"/>
</g>
<!-- Node35 -->
<g id="node35" class="node">
<title>Node35</title>
<g id="a_node35"><a xlink:title=" ">
<polygon fill="white" stroke="#bfbfbf" points="3153,-112.5 3153,-131.5 3322,-131.5 3322,-112.5 3153,-112.5"/>
<text text-anchor="middle" x="3237.5" y="-119.5" font-family="Helvetica,sans-Serif" font-size="10.00">amxd/amxd_object_hierarchy.h</text>
</a>
</g>
</g>
<!-- Node18&#45;&gt;Node35 -->
<g id="edge39" class="edge">
<title>Node18&#45;&gt;Node35</title>
<path fill="none" stroke="midnightblue" d="M2422.09,-175.52C2524.41,-170.63 2856.18,-154.11 3142.79,-132.03"/>
<polygon fill="midnightblue" stroke="midnightblue" points="3143.26,-135.5 3152.96,-131.24 3142.72,-128.52 3143.26,-135.5"/>
</g>
<!-- Node36 -->
<g id="node36" class="node">
<title>Node36</title>
<g id="a_node36"><a xlink:title=" ">
<polygon fill="white" stroke="#bfbfbf" points="3340.5,-112.5 3340.5,-131.5 3484.5,-131.5 3484.5,-112.5 3340.5,-112.5"/>
<text text-anchor="middle" x="3412.5" y="-119.5" font-family="Helvetica,sans-Serif" font-size="10.00">amxd/amxd_transaction.h</text>
</a>
</g>
</g>
<!-- Node18&#45;&gt;Node36 -->
<g id="edge42" class="edge">
<title>Node18&#45;&gt;Node36</title>
<path fill="none" stroke="midnightblue" d="M2422.19,-176.19C2540.35,-173.02 2966.6,-160.26 3329.9,-131.99"/>
<polygon fill="midnightblue" stroke="midnightblue" points="3330.39,-135.46 3340.09,-131.19 3329.84,-128.48 3330.39,-135.46"/>
</g>
<!-- Node37 -->
<g id="node37" class="node">
<title>Node37</title>
<g id="a_node37"><a xlink:title=" ">
<polygon fill="white" stroke="#bfbfbf" points="3502.5,-112.5 3502.5,-131.5 3618.5,-131.5 3618.5,-112.5 3502.5,-112.5"/>
<text text-anchor="middle" x="3560.5" y="-119.5" font-family="Helvetica,sans-Serif" font-size="10.00">amxb/amxb_types.h</text>
</a>
</g>
</g>
<!-- Node18&#45;&gt;Node37 -->
<g id="edge43" class="edge">
<title>Node18&#45;&gt;Node37</title>
<path fill="none" stroke="midnightblue" d="M2422.16,-176.78C2552.75,-175.66 3062.55,-169.05 3492.3,-132.02"/>
<polygon fill="midnightblue" stroke="midnightblue" points="3492.77,-135.49 3502.43,-131.14 3492.17,-128.51 3492.77,-135.49"/>
</g>
<!-- Node38 -->
<g id="node38" class="node">
<title>Node38</title>
<g id="a_node38"><a xlink:title=" ">
<polygon fill="white" stroke="#bfbfbf" points="3636.5,-112.5 3636.5,-131.5 3772.5,-131.5 3772.5,-112.5 3636.5,-112.5"/>
<text text-anchor="middle" x="3704.5" y="-119.5" font-family="Helvetica,sans-Serif" font-size="10.00">amxb/amxb_operators.h</text>
</a>
</g>
</g>
<!-- Node18&#45;&gt;Node38 -->
<g id="edge44" class="edge">
<title>Node18&#45;&gt;Node38</title>
<path fill="none" stroke="midnightblue" d="M2422.09,-176.78C2562.09,-175.61 3140.62,-168.73 3626.08,-132.05"/>
<polygon fill="midnightblue" stroke="midnightblue" points="3626.39,-135.53 3636.09,-131.28 3625.86,-128.55 3626.39,-135.53"/>
</g>
<!-- Node39 -->
<g id="node39" class="node">
<title>Node39</title>
<g id="a_node39"><a xlink:title=" ">
<polygon fill="white" stroke="#bfbfbf" points="3790.5,-112.5 3790.5,-131.5 3902.5,-131.5 3902.5,-112.5 3790.5,-112.5"/>
<text text-anchor="middle" x="3846.5" y="-119.5" font-family="Helvetica,sans-Serif" font-size="10.00">amxb/amxb_error.h</text>
</a>
</g>
</g>
<!-- Node18&#45;&gt;Node39 -->
<g id="edge45" class="edge">
<title>Node18&#45;&gt;Node39</title>
<path fill="none" stroke="midnightblue" d="M2422.16,-177.21C2572.66,-177.93 3230.81,-178.21 3780.06,-132.02"/>
<polygon fill="midnightblue" stroke="midnightblue" points="3780.5,-135.5 3790.17,-131.17 3779.91,-128.53 3780.5,-135.5"/>
</g>
<!-- Node40 -->
<g id="node40" class="node">
<title>Node40</title>
<g id="a_node40"><a xlink:title=" ">
<polygon fill="white" stroke="#bfbfbf" points="3921,-112.5 3921,-131.5 4036,-131.5 4036,-112.5 3921,-112.5"/>
<text text-anchor="middle" x="3978.5" y="-119.5" font-family="Helvetica,sans-Serif" font-size="10.00">amxo/amxo_types.h</text>
</a>
</g>
</g>
<!-- Node18&#45;&gt;Node40 -->
<g id="edge47" class="edge">
<title>Node18&#45;&gt;Node40</title>
<path fill="none" stroke="midnightblue" d="M2422.15,-177.28C2580.89,-178.45 3306.26,-180.77 3910.57,-131.97"/>
<polygon fill="midnightblue" stroke="midnightblue" points="3911.11,-135.44 3920.8,-131.14 3910.55,-128.46 3911.11,-135.44"/>
</g>
<!-- Node41 -->
<g id="node41" class="node">
<title>Node41</title>
<g id="a_node41"><a xlink:href="wld__channel__types_8h.html" target="_top" xlink:title=" ">
<polygon fill="white" stroke="red" points="775,-112.5 775,-131.5 894,-131.5 894,-112.5 775,-112.5"/>
<text text-anchor="middle" x="834.5" y="-119.5" font-family="Helvetica,sans-Serif" font-size="10.00">wld_channel_types.h</text>
</a>
</g>
</g>
<!-- Node18&#45;&gt;Node41 -->
<g id="edge49" class="edge">
<title>Node18&#45;&gt;Node41</title>
<path fill="none" stroke="midnightblue" d="M2358.7,-176.07C2146.74,-169.9 945.94,-134.84 908.5,-132 907.19,-131.9 905.87,-131.8 904.55,-131.68"/>
<polygon fill="midnightblue" stroke="midnightblue" points="904.51,-128.17 894.23,-130.74 903.87,-135.14 904.51,-128.17"/>
</g>
<!-- Node43 -->
<g id="node42" class="node">
<title>Node43</title>
<g id="a_node42"><a xlink:href="wld__bgdfs_8h.html" target="_top" xlink:title=" ">
<polygon fill="white" stroke="black" points="4523,-112.5 4523,-131.5 4598,-131.5 4598,-112.5 4523,-112.5"/>
<text text-anchor="middle" x="4560.5" y="-119.5" font-family="Helvetica,sans-Serif" font-size="10.00">wld_bgdfs.h</text>
</a>
</g>
</g>
<!-- Node18&#45;&gt;Node43 -->
<g id="edge52" class="edge">
<title>Node18&#45;&gt;Node43</title>
<path fill="none" stroke="midnightblue" d="M2422.23,-176.98C2653.16,-176.74 4078.35,-173.56 4508.5,-132 4509.81,-131.87 4511.13,-131.73 4512.47,-131.58"/>
<polygon fill="midnightblue" stroke="midnightblue" points="4513.36,-134.99 4522.82,-130.21 4512.44,-128.05 4513.36,-134.99"/>
</g>
<!-- Node44 -->
<g id="node43" class="node">
<title>Node44</title>
<g id="a_node43"><a xlink:href="wld__rad__delayMgr_8h.html" target="_top" xlink:title=" ">
<polygon fill="white" stroke="black" points="4054.5,-112.5 4054.5,-131.5 4168.5,-131.5 4168.5,-112.5 4054.5,-112.5"/>
<text text-anchor="middle" x="4111.5" y="-119.5" font-family="Helvetica,sans-Serif" font-size="10.00">wld_rad_delayMgr.h</text>
</a>
</g>
</g>
<!-- Node18&#45;&gt;Node44 -->
<g id="edge54" class="edge">
<title>Node18&#45;&gt;Node44</title>
<path fill="none" stroke="midnightblue" d="M2422.26,-176.58C2621.99,-173.94 3705.26,-159.01 4036.5,-132 4039.02,-131.79 4041.59,-131.56 4044.2,-131.3"/>
<polygon fill="midnightblue" stroke="midnightblue" points="4044.77,-134.76 4054.33,-130.19 4044.01,-127.8 4044.77,-134.76"/>
</g>
<!-- Node45 -->
<g id="node44" class="node">
<title>Node45</title>
<g id="a_node44"><a xlink:href="wld__fsm_8h.html" target="_top" xlink:title=" ">
<polygon fill="white" stroke="black" points="4616,-112.5 4616,-131.5 4683,-131.5 4683,-112.5 4616,-112.5"/>
<text text-anchor="middle" x="4649.5" y="-119.5" font-family="Helvetica,sans-Serif" font-size="10.00">wld_fsm.h</text>
</a>
</g>
</g>
<!-- Node18&#45;&gt;Node45 -->
<g id="edge56" class="edge">
<title>Node18&#45;&gt;Node45</title>
<path fill="none" stroke="midnightblue" d="M2422.38,-176.72C2673.98,-174.47 4336.49,-158.73 4605.63,-131.91"/>
<polygon fill="midnightblue" stroke="midnightblue" points="4606.1,-135.38 4615.67,-130.83 4605.35,-128.42 4606.1,-135.38"/>
</g>
<!-- Node46 -->
<g id="node45" class="node">
<title>Node46</title>
<g id="a_node45"><a xlink:href="wld__sensing_8h.html" target="_top" xlink:title=" ">
<polygon fill="white" stroke="black" points="4186.5,-112.5 4186.5,-131.5 4272.5,-131.5 4272.5,-112.5 4186.5,-112.5"/>
<text text-anchor="middle" x="4229.5" y="-119.5" font-family="Helvetica,sans-Serif" font-size="10.00">wld_sensing.h</text>
</a>
</g>
</g>
<!-- Node18&#45;&gt;Node46 -->
<g id="edge58" class="edge">
<title>Node18&#45;&gt;Node46</title>
<path fill="none" stroke="midnightblue" d="M2422.25,-176.82C2631.15,-175.6 3809.86,-167.36 4168.5,-132 4171.01,-131.75 4173.59,-131.45 4176.19,-131.12"/>
<polygon fill="midnightblue" stroke="midnightblue" points="4176.92,-134.55 4186.33,-129.67 4175.93,-127.62 4176.92,-134.55"/>
</g>
<!-- Node47 -->
<g id="node46" class="node">
<title>Node47</title>
<g id="a_node46"><a xlink:href="wld__mld_8h.html" target="_top" xlink:title=" ">
<polygon fill="white" stroke="black" points="4701,-112.5 4701,-131.5 4768,-131.5 4768,-112.5 4701,-112.5"/>
<text text-anchor="middle" x="4734.5" y="-119.5" font-family="Helvetica,sans-Serif" font-size="10.00">wld_mld.h</text>
</a>
</g>
</g>
<!-- Node18&#45;&gt;Node47 -->
<g id="edge60" class="edge">
<title>Node18&#45;&gt;Node47</title>
<path fill="none" stroke="midnightblue" d="M2422.36,-176.75C2679.42,-174.66 4412.3,-159.65 4690.66,-131.91"/>
<polygon fill="midnightblue" stroke="midnightblue" points="4691.1,-135.38 4700.67,-130.83 4690.35,-128.42 4691.1,-135.38"/>
</g>
<!-- Node48 -->
<g id="node47" class="node">
<title>Node48</title>
<g id="a_node47"><a xlink:href="wld__autoCommitRadData_8h.html" target="_top" xlink:title=" ">
<polygon fill="white" stroke="black" points="4290.5,-112.5 4290.5,-131.5 4466.5,-131.5 4466.5,-112.5 4290.5,-112.5"/>
<text text-anchor="middle" x="4378.5" y="-119.5" font-family="Helvetica,sans-Serif" font-size="10.00">Utils/wld_autoCommitRadData.h</text>
</a>
</g>
</g>
<!-- Node18&#45;&gt;Node48 -->
<g id="edge62" class="edge">
<title>Node18&#45;&gt;Node48</title>
<path fill="none" stroke="midnightblue" d="M2422.02,-177.06C2602.15,-177.24 3519.77,-175.89 4280.43,-132.02"/>
<polygon fill="midnightblue" stroke="midnightblue" points="4280.71,-135.5 4290.49,-131.43 4280.31,-128.52 4280.71,-135.5"/>
</g>
<!-- Node49 -->
<g id="node48" class="node">
<title>Node49</title>
<g id="a_node48"><a xlink:href="wld__dmnMgt_8h.html" target="_top" xlink:title=" ">
<polygon fill="white" stroke="red" points="1026.5,-112.5 1026.5,-131.5 1140.5,-131.5 1140.5,-112.5 1026.5,-112.5"/>
<text text-anchor="middle" x="1083.5" y="-119.5" font-family="Helvetica,sans-Serif" font-size="10.00">Utils/wld_dmnMgt.h</text>
</a>
</g>
</g>
<!-- Node18&#45;&gt;Node49 -->
<g id="edge63" class="edge">
<title>Node18&#45;&gt;Node49</title>
<path fill="none" stroke="midnightblue" d="M2358.82,-176.04C2181.37,-170.64 1313.33,-143.88 1150.77,-131.95"/>
<polygon fill="midnightblue" stroke="midnightblue" points="1150.94,-128.45 1140.7,-131.15 1150.39,-135.43 1150.94,-128.45"/>
</g>
<!-- Node41&#45;&gt;Node6 -->
<g id="edge51" class="edge">
<title>Node41&#45;&gt;Node6</title>
<path fill="none" stroke="midnightblue" d="M834.5,-112.37C834.5,-94.62 834.5,-53.67 834.5,-29.6"/>
<polygon fill="midnightblue" stroke="midnightblue" points="838,-29.59 834.5,-19.59 831,-29.59 838,-29.59"/>
</g>
<!-- Node41&#45;&gt;Node19 -->
<g id="edge50" class="edge">
<title>Node41&#45;&gt;Node19</title>
<path fill="none" stroke="midnightblue" d="M844.62,-112.32C854.03,-104.26 868.24,-92.08 879.57,-82.37"/>
<polygon fill="midnightblue" stroke="midnightblue" points="881.88,-85 887.19,-75.83 877.32,-79.68 881.88,-85"/>
</g>
<!-- Node43&#45;&gt;Node2 -->
<g id="edge53" class="edge">
<title>Node43&#45;&gt;Node2</title>
<path fill="none" stroke="midnightblue" d="M4574.8,-112.32C4588.68,-103.9 4609.99,-90.97 4626.3,-81.07"/>
<polygon fill="midnightblue" stroke="midnightblue" points="4628.5,-83.83 4635.24,-75.65 4624.87,-77.85 4628.5,-83.83"/>
</g>
<!-- Node44&#45;&gt;Node18 -->
<g id="edge55" class="edge">
<title>Node44&#45;&gt;Node18</title>
<path fill="none" stroke="midnightblue" d="M4060.1,-131.5C4058.22,-131.68 4056.34,-131.85 4054.5,-132 3725.96,-158.79 2657.65,-173.7 2432.39,-176.51"/>
<polygon fill="midnightblue" stroke="midnightblue" points="2432.26,-173.01 2422.31,-176.63 2432.35,-180.01 2432.26,-173.01"/>
</g>
<!-- Node45&#45;&gt;Node2 -->
<g id="edge57" class="edge">
<title>Node45&#45;&gt;Node2</title>
<path fill="none" stroke="midnightblue" d="M4649.5,-112.08C4649.5,-105.01 4649.5,-94.86 4649.5,-85.99"/>
<polygon fill="midnightblue" stroke="midnightblue" points="4653,-85.75 4649.5,-75.75 4646,-85.75 4653,-85.75"/>
</g>
<!-- Node46&#45;&gt;Node18 -->
<g id="edge59" class="edge">
<title>Node46&#45;&gt;Node18</title>
<path fill="none" stroke="midnightblue" d="M4190.93,-131.52C4189.44,-131.7 4187.96,-131.86 4186.5,-132 3830.81,-167.07 2668.53,-175.46 2432.5,-176.79"/>
<polygon fill="midnightblue" stroke="midnightblue" points="2432.26,-173.29 2422.28,-176.85 2432.3,-180.29 2432.26,-173.29"/>
</g>
<!-- Node47&#45;&gt;Node2 -->
<g id="edge61" class="edge">
<title>Node47&#45;&gt;Node2</title>
<path fill="none" stroke="midnightblue" d="M4720.84,-112.32C4707.58,-103.9 4687.23,-90.97 4671.65,-81.07"/>
<polygon fill="midnightblue" stroke="midnightblue" points="4673.44,-78.06 4663.12,-75.65 4669.69,-83.97 4673.44,-78.06"/>
</g>
<!-- Node49&#45;&gt;Node2 -->
<g id="edge65" class="edge">
<title>Node49&#45;&gt;Node2</title>
<path fill="none" stroke="midnightblue" d="M1140.69,-112.76C1143.67,-112.47 1146.62,-112.21 1149.5,-112 1508.89,-85.29 4207.38,-69.44 4601.52,-67.26"/>
<polygon fill="midnightblue" stroke="midnightblue" points="4601.74,-70.76 4611.72,-67.2 4601.7,-63.76 4601.74,-70.76"/>
</g>
<!-- Node49&#45;&gt;Node20 -->
<g id="edge64" class="edge">
<title>Node49&#45;&gt;Node20</title>
<path fill="none" stroke="midnightblue" d="M1080.2,-112.08C1077.52,-104.85 1073.65,-94.41 1070.31,-85.4"/>
<polygon fill="midnightblue" stroke="midnightblue" points="1073.5,-83.91 1066.74,-75.75 1066.93,-86.34 1073.5,-83.91"/>
</g>
<!-- Node80&#45;&gt;Node18 -->
<g id="edge69" class="edge">
<title>Node80&#45;&gt;Node18</title>
<path fill="none" stroke="midnightblue" d="M2284.47,-224.44C2305.11,-215.6 2337.56,-201.69 2361.13,-191.59"/>
<polygon fill="midnightblue" stroke="midnightblue" points="2362.82,-194.67 2370.63,-187.52 2360.06,-188.24 2362.82,-194.67"/>
</g>
<!-- Node82&#45;&gt;Node2 -->
<g id="edge72" class="edge">
<title>Node82&#45;&gt;Node2</title>
<path fill="none" stroke="midnightblue" d="M2465.57,-225.72C2470.26,-225.05 2474.98,-224.46 2479.5,-224 2606.62,-211.1 4688.98,-224.14 4777.5,-132 4806.03,-102.3 4744.4,-83.86 4697.11,-74.52"/>
<polygon fill="midnightblue" stroke="midnightblue" points="4697.75,-71.08 4687.28,-72.66 4696.45,-77.96 4697.75,-71.08"/>
</g>
<!-- Node82&#45;&gt;Node18 -->
<g id="edge71" class="edge">
<title>Node82&#45;&gt;Node18</title>
<path fill="none" stroke="midnightblue" d="M2418.89,-224.08C2414.13,-216.53 2407.18,-205.49 2401.35,-196.23"/>
<polygon fill="midnightblue" stroke="midnightblue" points="2404.3,-194.35 2396.01,-187.75 2398.38,-198.08 2404.3,-194.35"/>
</g>
</g>
</svg>
