<?xml version="1.0" encoding="UTF-8" standalone="no"?>
<!DOCTYPE svg PUBLIC "-//W3C//DTD SVG 1.1//EN"
 "http://www.w3.org/Graphics/SVG/1.1/DTD/svg11.dtd">
<!-- Generated by graphviz version 2.43.0 (0)
 -->
<!-- Title: include/wld/wld_wpaSupp_ep_api.h Pages: 1 -->
<svg width="5583pt" height="319pt"
 viewBox="0.00 0.00 5583.05 319.00" xmlns="http://www.w3.org/2000/svg" xmlns:xlink="http://www.w3.org/1999/xlink">
<g id="graph0" class="graph" transform="scale(1 1) rotate(0) translate(4 315)">
<title>include/wld/wld_wpaSupp_ep_api.h</title>
<polygon fill="white" stroke="transparent" points="-4,4 -4,-315 5579.05,-315 5579.05,4 -4,4"/>
<!-- Node1 -->
<g id="node1" class="node">
<title>Node1</title>
<g id="a_node1"><a xlink:title=" ">
<polygon fill="#bfbfbf" stroke="black" points="1197.5,-280.5 1197.5,-310.5 1339.5,-310.5 1339.5,-280.5 1197.5,-280.5"/>
<text text-anchor="start" x="1205.5" y="-298.5" font-family="Helvetica,sans-Serif" font-size="10.00">include/wld/wld_wpaSupp</text>
<text text-anchor="middle" x="1268.5" y="-287.5" font-family="Helvetica,sans-Serif" font-size="10.00">_ep_api.h</text>
</a>
</g>
</g>
<!-- Node2 -->
<g id="node2" class="node">
<title>Node2</title>
<g id="a_node2"><a xlink:href="wld__wps_8h.html" target="_top" xlink:title=" ">
<polygon fill="white" stroke="black" points="1234.5,-224.5 1234.5,-243.5 1302.5,-243.5 1302.5,-224.5 1234.5,-224.5"/>
<text text-anchor="middle" x="1268.5" y="-231.5" font-family="Helvetica,sans-Serif" font-size="10.00">wld_wps.h</text>
</a>
</g>
</g>
<!-- Node1&#45;&gt;Node2 -->
<g id="edge1" class="edge">
<title>Node1&#45;&gt;Node2</title>
<path fill="none" stroke="midnightblue" d="M1268.5,-280.4C1268.5,-272.47 1268.5,-262.46 1268.5,-253.86"/>
<polygon fill="midnightblue" stroke="midnightblue" points="1272,-253.66 1268.5,-243.66 1265,-253.66 1272,-253.66"/>
</g>
<!-- Node3 -->
<g id="node3" class="node">
<title>Node3</title>
<g id="a_node3"><a xlink:title=" ">
<polygon fill="white" stroke="#bfbfbf" points="0,-0.5 0,-19.5 53,-19.5 53,-0.5 0,-0.5"/>
<text text-anchor="middle" x="26.5" y="-7.5" font-family="Helvetica,sans-Serif" font-size="10.00">stdint.h</text>
</a>
</g>
</g>
<!-- Node2&#45;&gt;Node3 -->
<g id="edge2" class="edge">
<title>Node2&#45;&gt;Node3</title>
<path fill="none" stroke="midnightblue" d="M1234.32,-232.27C1046.96,-227.97 149.49,-203.74 51.5,-132 20.01,-108.95 20.65,-57.55 23.66,-29.74"/>
<polygon fill="midnightblue" stroke="midnightblue" points="27.14,-30.09 24.96,-19.72 20.2,-29.19 27.14,-30.09"/>
</g>
<!-- Node4 -->
<g id="node4" class="node">
<title>Node4</title>
<g id="a_node4"><a xlink:href="wld_8h.html" target="_top" xlink:title=" ">
<polygon fill="white" stroke="red" points="2618,-168.5 2618,-187.5 2661,-187.5 2661,-168.5 2618,-168.5"/>
<text text-anchor="middle" x="2639.5" y="-175.5" font-family="Helvetica,sans-Serif" font-size="10.00">wld.h</text>
</a>
</g>
</g>
<!-- Node2&#45;&gt;Node4 -->
<g id="edge3" class="edge">
<title>Node2&#45;&gt;Node4</title>
<path fill="none" stroke="midnightblue" d="M1302.73,-231.65C1493.53,-224.14 2423.75,-187.5 2607.82,-180.25"/>
<polygon fill="midnightblue" stroke="midnightblue" points="2608.06,-183.74 2617.92,-179.85 2607.79,-176.75 2608.06,-183.74"/>
</g>
<!-- Node4&#45;&gt;Node3 -->
<g id="edge5" class="edge">
<title>Node4&#45;&gt;Node3</title>
<path fill="none" stroke="midnightblue" d="M2617.82,-176.95C2372.68,-176.41 129.89,-170.33 74.5,-132 40.69,-108.6 30.69,-57.35 27.74,-29.65"/>
<polygon fill="midnightblue" stroke="midnightblue" points="31.22,-29.34 26.87,-19.68 24.25,-29.94 31.22,-29.34"/>
</g>
<!-- Node5 -->
<g id="node5" class="node">
<title>Node5</title>
<g id="a_node5"><a xlink:title=" ">
<polygon fill="white" stroke="#bfbfbf" points="1762.5,-56.5 1762.5,-75.5 1824.5,-75.5 1824.5,-56.5 1762.5,-56.5"/>
<text text-anchor="middle" x="1793.5" y="-63.5" font-family="Helvetica,sans-Serif" font-size="10.00">stdbool.h</text>
</a>
</g>
</g>
<!-- Node4&#45;&gt;Node5 -->
<g id="edge4" class="edge">
<title>Node4&#45;&gt;Node5</title>
<path fill="none" stroke="midnightblue" d="M2617.98,-176.94C2401.92,-176.33 630.83,-170.16 593.5,-132 587.28,-125.65 587.33,-118.4 593.5,-112 634.53,-69.41 1545.75,-66.97 1752.18,-66.96"/>
<polygon fill="midnightblue" stroke="midnightblue" points="1752.3,-70.46 1762.3,-66.96 1752.3,-63.46 1752.3,-70.46"/>
</g>
<!-- Node6 -->
<g id="node6" class="node">
<title>Node6</title>
<g id="a_node6"><a xlink:title=" ">
<polygon fill="white" stroke="#bfbfbf" points="74.5,-56.5 74.5,-75.5 184.5,-75.5 184.5,-56.5 74.5,-56.5"/>
<text text-anchor="middle" x="129.5" y="-63.5" font-family="Helvetica,sans-Serif" font-size="10.00">swl/swl_common.h</text>
</a>
</g>
</g>
<!-- Node4&#45;&gt;Node6 -->
<g id="edge6" class="edge">
<title>Node4&#45;&gt;Node6</title>
<path fill="none" stroke="midnightblue" d="M2617.83,-177.04C2372.73,-177.45 130.55,-179.88 83.5,-132 68.35,-116.58 88.88,-95.74 107.15,-81.86"/>
<polygon fill="midnightblue" stroke="midnightblue" points="109.7,-84.34 115.77,-75.65 105.61,-78.65 109.7,-84.34"/>
</g>
<!-- Node7 -->
<g id="node7" class="node">
<title>Node7</title>
<g id="a_node7"><a xlink:title=" ">
<polygon fill="white" stroke="#bfbfbf" points="602.5,-112.5 602.5,-131.5 738.5,-131.5 738.5,-112.5 602.5,-112.5"/>
<text text-anchor="middle" x="670.5" y="-119.5" font-family="Helvetica,sans-Serif" font-size="10.00">swla/swla_commonLib.h</text>
</a>
</g>
</g>
<!-- Node4&#45;&gt;Node7 -->
<g id="edge7" class="edge">
<title>Node4&#45;&gt;Node7</title>
<path fill="none" stroke="midnightblue" d="M2617.97,-176.76C2436.43,-174.73 1158.59,-159.6 749,-132.02"/>
<polygon fill="midnightblue" stroke="midnightblue" points="749.12,-128.52 738.9,-131.33 748.64,-135.51 749.12,-128.52"/>
</g>
<!-- Node8 -->
<g id="node8" class="node">
<title>Node8</title>
<g id="a_node8"><a xlink:title=" ">
<polygon fill="white" stroke="#bfbfbf" points="756.5,-112.5 756.5,-131.5 844.5,-131.5 844.5,-112.5 756.5,-112.5"/>
<text text-anchor="middle" x="800.5" y="-119.5" font-family="Helvetica,sans-Serif" font-size="10.00">swl/swl_uuid.h</text>
</a>
</g>
</g>
<!-- Node4&#45;&gt;Node8 -->
<g id="edge8" class="edge">
<title>Node4&#45;&gt;Node8</title>
<path fill="none" stroke="midnightblue" d="M2617.77,-176.88C2441.38,-175.85 1240.89,-167.65 854.76,-131.95"/>
<polygon fill="midnightblue" stroke="midnightblue" points="854.97,-128.45 844.68,-130.99 854.31,-135.42 854.97,-128.45"/>
</g>
<!-- Node9 -->
<g id="node9" class="node">
<title>Node9</title>
<g id="a_node9"><a xlink:title=" ">
<polygon fill="white" stroke="#bfbfbf" points="862.5,-112.5 862.5,-131.5 1014.5,-131.5 1014.5,-112.5 862.5,-112.5"/>
<text text-anchor="middle" x="938.5" y="-119.5" font-family="Helvetica,sans-Serif" font-size="10.00">swla/swla_radioStandards.h</text>
</a>
</g>
</g>
<!-- Node4&#45;&gt;Node9 -->
<g id="edge9" class="edge">
<title>Node4&#45;&gt;Node9</title>
<path fill="none" stroke="midnightblue" d="M2617.61,-177.03C2476.69,-177.1 1682.79,-175.49 1025.09,-132.05"/>
<polygon fill="midnightblue" stroke="midnightblue" points="1025.14,-128.55 1014.93,-131.38 1024.68,-135.53 1025.14,-128.55"/>
</g>
<!-- Node10 -->
<g id="node10" class="node">
<title>Node10</title>
<g id="a_node10"><a xlink:title=" ">
<polygon fill="white" stroke="#bfbfbf" points="486,-0.5 486,-19.5 587,-19.5 587,-0.5 486,-0.5"/>
<text text-anchor="middle" x="536.5" y="-7.5" font-family="Helvetica,sans-Serif" font-size="10.00">swla/swla_time.h</text>
</a>
</g>
</g>
<!-- Node4&#45;&gt;Node10 -->
<g id="edge10" class="edge">
<title>Node4&#45;&gt;Node10</title>
<path fill="none" stroke="midnightblue" d="M2617.97,-176.86C2401.8,-175.39 629.61,-162.43 585.5,-132 551.56,-108.58 541.11,-57.34 537.91,-29.64"/>
<polygon fill="midnightblue" stroke="midnightblue" points="541.39,-29.29 536.95,-19.67 534.42,-29.96 541.39,-29.29"/>
</g>
<!-- Node11 -->
<g id="node11" class="node">
<title>Node11</title>
<g id="a_node11"><a xlink:title=" ">
<polygon fill="white" stroke="#bfbfbf" points="1033,-112.5 1033,-131.5 1162,-131.5 1162,-112.5 1033,-112.5"/>
<text text-anchor="middle" x="1097.5" y="-119.5" font-family="Helvetica,sans-Serif" font-size="10.00">swla/swla_time_spec.h</text>
</a>
</g>
</g>
<!-- Node4&#45;&gt;Node11 -->
<g id="edge11" class="edge">
<title>Node4&#45;&gt;Node11</title>
<path fill="none" stroke="midnightblue" d="M2617.91,-177.07C2485.37,-177.36 1768.2,-176.73 1172.13,-131.96"/>
<polygon fill="midnightblue" stroke="midnightblue" points="1172.28,-128.46 1162.04,-131.2 1171.75,-135.44 1172.28,-128.46"/>
</g>
<!-- Node12 -->
<g id="node12" class="node">
<title>Node12</title>
<g id="a_node12"><a xlink:title=" ">
<polygon fill="white" stroke="#bfbfbf" points="1180.5,-112.5 1180.5,-131.5 1274.5,-131.5 1274.5,-112.5 1180.5,-112.5"/>
<text text-anchor="middle" x="1227.5" y="-119.5" font-family="Helvetica,sans-Serif" font-size="10.00">swla/swla_oui.h</text>
</a>
</g>
</g>
<!-- Node4&#45;&gt;Node12 -->
<g id="edge12" class="edge">
<title>Node4&#45;&gt;Node12</title>
<path fill="none" stroke="midnightblue" d="M2617.75,-176.65C2467.32,-174.21 1579.27,-158.88 1285.02,-131.99"/>
<polygon fill="midnightblue" stroke="midnightblue" points="1285.09,-128.48 1274.8,-131.03 1284.43,-135.45 1285.09,-128.48"/>
</g>
<!-- Node13 -->
<g id="node13" class="node">
<title>Node13</title>
<g id="a_node13"><a xlink:title=" ">
<polygon fill="white" stroke="#bfbfbf" points="1292.5,-112.5 1292.5,-131.5 1420.5,-131.5 1420.5,-112.5 1292.5,-112.5"/>
<text text-anchor="middle" x="1356.5" y="-119.5" font-family="Helvetica,sans-Serif" font-size="10.00">swla/swla_delayExec.h</text>
</a>
</g>
</g>
<!-- Node4&#45;&gt;Node13 -->
<g id="edge13" class="edge">
<title>Node4&#45;&gt;Node13</title>
<path fill="none" stroke="midnightblue" d="M2617.97,-176.89C2499.76,-176.12 1917.39,-170.51 1430.6,-132.01"/>
<polygon fill="midnightblue" stroke="midnightblue" points="1430.81,-128.52 1420.56,-131.21 1430.25,-135.5 1430.81,-128.52"/>
</g>
<!-- Node14 -->
<g id="node14" class="node">
<title>Node14</title>
<g id="a_node14"><a xlink:title=" ">
<polygon fill="white" stroke="#bfbfbf" points="1439,-112.5 1439,-131.5 1558,-131.5 1558,-112.5 1439,-112.5"/>
<text text-anchor="middle" x="1498.5" y="-119.5" font-family="Helvetica,sans-Serif" font-size="10.00">swla/swla_function.h</text>
</a>
</g>
</g>
<!-- Node4&#45;&gt;Node14 -->
<g id="edge14" class="edge">
<title>Node4&#45;&gt;Node14</title>
<path fill="none" stroke="midnightblue" d="M2617.91,-176.81C2507.71,-175.71 1996.68,-168.82 1568.28,-132.08"/>
<polygon fill="midnightblue" stroke="midnightblue" points="1568.44,-128.58 1558.17,-131.21 1567.83,-135.55 1568.44,-128.58"/>
</g>
<!-- Node15 -->
<g id="node15" class="node">
<title>Node15</title>
<g id="a_node15"><a xlink:title=" ">
<polygon fill="white" stroke="#bfbfbf" points="1576,-112.5 1576,-131.5 1717,-131.5 1717,-112.5 1576,-112.5"/>
<text text-anchor="middle" x="1646.5" y="-119.5" font-family="Helvetica,sans-Serif" font-size="10.00">swl/swl_usp_cmdStatus.h</text>
</a>
</g>
</g>
<!-- Node4&#45;&gt;Node15 -->
<g id="edge15" class="edge">
<title>Node4&#45;&gt;Node15</title>
<path fill="none" stroke="midnightblue" d="M2617.9,-176.44C2517.94,-173.72 2090.06,-160.97 1727.32,-132.01"/>
<polygon fill="midnightblue" stroke="midnightblue" points="1727.4,-128.5 1717.15,-131.19 1726.83,-135.48 1727.4,-128.5"/>
</g>
<!-- Node16 -->
<g id="node16" class="node">
<title>Node16</title>
<g id="a_node16"><a xlink:title=" ">
<polygon fill="white" stroke="#bfbfbf" points="1735.5,-112.5 1735.5,-131.5 1821.5,-131.5 1821.5,-112.5 1735.5,-112.5"/>
<text text-anchor="middle" x="1778.5" y="-119.5" font-family="Helvetica,sans-Serif" font-size="10.00">swl/swl_wps.h</text>
</a>
</g>
</g>
<!-- Node4&#45;&gt;Node16 -->
<g id="edge16" class="edge">
<title>Node4&#45;&gt;Node16</title>
<path fill="none" stroke="midnightblue" d="M2617.86,-176.72C2524.88,-175.3 2150,-167.65 1831.92,-132.02"/>
<polygon fill="midnightblue" stroke="midnightblue" points="1831.91,-128.5 1821.57,-130.85 1831.12,-135.45 1831.91,-128.5"/>
</g>
<!-- Node17 -->
<g id="node17" class="node">
<title>Node17</title>
<g id="a_node17"><a xlink:title=" ">
<polygon fill="white" stroke="#bfbfbf" points="1839.5,-112.5 1839.5,-131.5 1943.5,-131.5 1943.5,-112.5 1839.5,-112.5"/>
<text text-anchor="middle" x="1891.5" y="-119.5" font-family="Helvetica,sans-Serif" font-size="10.00">swl/swl_security.h</text>
</a>
</g>
</g>
<!-- Node4&#45;&gt;Node17 -->
<g id="edge17" class="edge">
<title>Node4&#45;&gt;Node17</title>
<path fill="none" stroke="midnightblue" d="M2617.79,-176.22C2533.76,-173.06 2221.75,-160.11 1954.01,-132.08"/>
<polygon fill="midnightblue" stroke="midnightblue" points="1954.02,-128.56 1943.71,-130.99 1953.28,-135.52 1954.02,-128.56"/>
</g>
<!-- Node18 -->
<g id="node18" class="node">
<title>Node18</title>
<g id="a_node18"><a xlink:title=" ">
<polygon fill="white" stroke="#bfbfbf" points="1962,-112.5 1962,-131.5 2045,-131.5 2045,-112.5 1962,-112.5"/>
<text text-anchor="middle" x="2003.5" y="-119.5" font-family="Helvetica,sans-Serif" font-size="10.00">amxc/amxc.h</text>
</a>
</g>
</g>
<!-- Node4&#45;&gt;Node18 -->
<g id="edge18" class="edge">
<title>Node4&#45;&gt;Node18</title>
<path fill="none" stroke="midnightblue" d="M2617.91,-176.1C2542.16,-172.8 2281.34,-160.07 2055.26,-131.96"/>
<polygon fill="midnightblue" stroke="midnightblue" points="2055.56,-128.47 2045.2,-130.7 2054.68,-135.42 2055.56,-128.47"/>
</g>
<!-- Node19 -->
<g id="node19" class="node">
<title>Node19</title>
<g id="a_node19"><a xlink:title=" ">
<polygon fill="white" stroke="#bfbfbf" points="2063.5,-112.5 2063.5,-131.5 2147.5,-131.5 2147.5,-112.5 2063.5,-112.5"/>
<text text-anchor="middle" x="2105.5" y="-119.5" font-family="Helvetica,sans-Serif" font-size="10.00">amxp/amxp.h</text>
</a>
</g>
</g>
<!-- Node4&#45;&gt;Node19 -->
<g id="edge19" class="edge">
<title>Node4&#45;&gt;Node19</title>
<path fill="none" stroke="midnightblue" d="M2617.77,-175.61C2550.81,-171.2 2341.61,-156.42 2157.87,-132.08"/>
<polygon fill="midnightblue" stroke="midnightblue" points="2158.14,-128.59 2147.76,-130.73 2157.21,-135.53 2158.14,-128.59"/>
</g>
<!-- Node20 -->
<g id="node20" class="node">
<title>Node20</title>
<g id="a_node20"><a xlink:title=" ">
<polygon fill="white" stroke="#bfbfbf" points="2165.5,-112.5 2165.5,-131.5 2305.5,-131.5 2305.5,-112.5 2165.5,-112.5"/>
<text text-anchor="middle" x="2235.5" y="-119.5" font-family="Helvetica,sans-Serif" font-size="10.00">amxd/amxd_parameter.h</text>
</a>
</g>
</g>
<!-- Node4&#45;&gt;Node20 -->
<g id="edge20" class="edge">
<title>Node4&#45;&gt;Node20</title>
<path fill="none" stroke="midnightblue" d="M2617.78,-174.1C2560.53,-166.45 2403.49,-145.45 2309.45,-132.88"/>
<polygon fill="midnightblue" stroke="midnightblue" points="2309.81,-129.4 2299.43,-131.55 2308.88,-136.34 2309.81,-129.4"/>
</g>
<!-- Node21 -->
<g id="node21" class="node">
<title>Node21</title>
<g id="a_node21"><a xlink:title=" ">
<polygon fill="white" stroke="#bfbfbf" points="2324,-112.5 2324,-131.5 2443,-131.5 2443,-112.5 2324,-112.5"/>
<text text-anchor="middle" x="2383.5" y="-119.5" font-family="Helvetica,sans-Serif" font-size="10.00">amxd/amxd_action.h</text>
</a>
</g>
</g>
<!-- Node4&#45;&gt;Node21 -->
<g id="edge21" class="edge">
<title>Node4&#45;&gt;Node21</title>
<path fill="none" stroke="midnightblue" d="M2617.67,-172.4C2577.26,-163.87 2489.84,-145.43 2433.99,-133.65"/>
<polygon fill="midnightblue" stroke="midnightblue" points="2434.45,-130.17 2423.94,-131.53 2433.01,-137.02 2434.45,-130.17"/>
</g>
<!-- Node22 -->
<g id="node22" class="node">
<title>Node22</title>
<g id="a_node22"><a xlink:title=" ">
<polygon fill="white" stroke="#bfbfbf" points="2461,-112.5 2461,-131.5 2636,-131.5 2636,-112.5 2461,-112.5"/>
<text text-anchor="middle" x="2548.5" y="-119.5" font-family="Helvetica,sans-Serif" font-size="10.00">amxd/amxd_object_parameter.h</text>
</a>
</g>
</g>
<!-- Node4&#45;&gt;Node22 -->
<g id="edge22" class="edge">
<title>Node4&#45;&gt;Node22</title>
<path fill="none" stroke="midnightblue" d="M2624.88,-168.32C2610.55,-159.82 2588.49,-146.73 2571.75,-136.8"/>
<polygon fill="midnightblue" stroke="midnightblue" points="2573.47,-133.75 2563.08,-131.65 2569.9,-139.77 2573.47,-133.75"/>
</g>
<!-- Node23 -->
<g id="node23" class="node">
<title>Node23</title>
<g id="a_node23"><a xlink:title=" ">
<polygon fill="white" stroke="#bfbfbf" points="2654.5,-112.5 2654.5,-131.5 2806.5,-131.5 2806.5,-112.5 2654.5,-112.5"/>
<text text-anchor="middle" x="2730.5" y="-119.5" font-family="Helvetica,sans-Serif" font-size="10.00">amxd/amxd_object_event.h</text>
</a>
</g>
</g>
<!-- Node4&#45;&gt;Node23 -->
<g id="edge23" class="edge">
<title>Node4&#45;&gt;Node23</title>
<path fill="none" stroke="midnightblue" d="M2654.12,-168.32C2668.45,-159.82 2690.51,-146.73 2707.25,-136.8"/>
<polygon fill="midnightblue" stroke="midnightblue" points="2709.1,-139.77 2715.92,-131.65 2705.53,-133.75 2709.1,-139.77"/>
</g>
<!-- Node24 -->
<g id="node24" class="node">
<title>Node24</title>
<g id="a_node24"><a xlink:title=" ">
<polygon fill="white" stroke="#bfbfbf" points="2825,-112.5 2825,-131.5 2954,-131.5 2954,-112.5 2825,-112.5"/>
<text text-anchor="middle" x="2889.5" y="-119.5" font-family="Helvetica,sans-Serif" font-size="10.00">amxd/amxd_function.h</text>
</a>
</g>
</g>
<!-- Node4&#45;&gt;Node24 -->
<g id="edge24" class="edge">
<title>Node4&#45;&gt;Node24</title>
<path fill="none" stroke="midnightblue" d="M2661.25,-172.3C2700.84,-163.75 2785.59,-145.44 2839.94,-133.7"/>
<polygon fill="midnightblue" stroke="midnightblue" points="2840.68,-137.12 2849.72,-131.59 2839.21,-130.28 2840.68,-137.12"/>
</g>
<!-- Node25 -->
<g id="node25" class="node">
<title>Node25</title>
<g id="a_node25"><a xlink:title=" ">
<polygon fill="white" stroke="#bfbfbf" points="2972,-112.5 2972,-131.5 3141,-131.5 3141,-112.5 2972,-112.5"/>
<text text-anchor="middle" x="3056.5" y="-119.5" font-family="Helvetica,sans-Serif" font-size="10.00">amxd/amxd_object_hierarchy.h</text>
</a>
</g>
</g>
<!-- Node4&#45;&gt;Node25 -->
<g id="edge25" class="edge">
<title>Node4&#45;&gt;Node25</title>
<path fill="none" stroke="midnightblue" d="M2661.04,-174.21C2719.43,-166.65 2882.88,-145.48 2980.41,-132.85"/>
<polygon fill="midnightblue" stroke="midnightblue" points="2981.04,-136.3 2990.5,-131.55 2980.14,-129.36 2981.04,-136.3"/>
</g>
<!-- Node26 -->
<g id="node26" class="node">
<title>Node26</title>
<g id="a_node26"><a xlink:title=" ">
<polygon fill="white" stroke="#bfbfbf" points="3159,-112.5 3159,-131.5 3278,-131.5 3278,-112.5 3159,-112.5"/>
<text text-anchor="middle" x="3218.5" y="-119.5" font-family="Helvetica,sans-Serif" font-size="10.00">amxd/amxd_object.h</text>
</a>
</g>
</g>
<!-- Node4&#45;&gt;Node26 -->
<g id="edge26" class="edge">
<title>Node4&#45;&gt;Node26</title>
<path fill="none" stroke="midnightblue" d="M2661.4,-175.4C2730.93,-170.23 2953.08,-153.21 3148.51,-132.06"/>
<polygon fill="midnightblue" stroke="midnightblue" points="3149.12,-135.52 3158.68,-130.96 3148.36,-128.56 3149.12,-135.52"/>
</g>
<!-- Node27 -->
<g id="node27" class="node">
<title>Node27</title>
<g id="a_node27"><a xlink:title=" ">
<polygon fill="white" stroke="#bfbfbf" points="3296,-112.5 3296,-131.5 3401,-131.5 3401,-112.5 3296,-112.5"/>
<text text-anchor="middle" x="3348.5" y="-119.5" font-family="Helvetica,sans-Serif" font-size="10.00">amxd/amxd_dm.h</text>
</a>
</g>
</g>
<!-- Node4&#45;&gt;Node27 -->
<g id="edge27" class="edge">
<title>Node4&#45;&gt;Node27</title>
<path fill="none" stroke="midnightblue" d="M2661.05,-176.09C2741.74,-172.54 3033.76,-158.63 3285.69,-132"/>
<polygon fill="midnightblue" stroke="midnightblue" points="3286.2,-135.47 3295.77,-130.93 3285.45,-128.51 3286.2,-135.47"/>
</g>
<!-- Node28 -->
<g id="node28" class="node">
<title>Node28</title>
<g id="a_node28"><a xlink:title=" ">
<polygon fill="white" stroke="#bfbfbf" points="3419.5,-112.5 3419.5,-131.5 3563.5,-131.5 3563.5,-112.5 3419.5,-112.5"/>
<text text-anchor="middle" x="3491.5" y="-119.5" font-family="Helvetica,sans-Serif" font-size="10.00">amxd/amxd_transaction.h</text>
</a>
</g>
</g>
<!-- Node4&#45;&gt;Node28 -->
<g id="edge28" class="edge">
<title>Node4&#45;&gt;Node28</title>
<path fill="none" stroke="midnightblue" d="M2661.27,-176.13C2751.55,-172.46 3105.53,-157.22 3408.77,-132.01"/>
<polygon fill="midnightblue" stroke="midnightblue" points="3409.41,-135.47 3419.08,-131.15 3408.83,-128.5 3409.41,-135.47"/>
</g>
<!-- Node29 -->
<g id="node29" class="node">
<title>Node29</title>
<g id="a_node29"><a xlink:title=" ">
<polygon fill="white" stroke="#bfbfbf" points="3581.5,-112.5 3581.5,-131.5 3697.5,-131.5 3697.5,-112.5 3581.5,-112.5"/>
<text text-anchor="middle" x="3639.5" y="-119.5" font-family="Helvetica,sans-Serif" font-size="10.00">amxb/amxb_types.h</text>
</a>
</g>
</g>
<!-- Node4&#45;&gt;Node29 -->
<g id="edge29" class="edge">
<title>Node4&#45;&gt;Node29</title>
<path fill="none" stroke="midnightblue" d="M2661.25,-176.64C2762.85,-174.8 3201.11,-165.28 3571.32,-132.02"/>
<polygon fill="midnightblue" stroke="midnightblue" points="3571.79,-135.5 3581.43,-131.11 3571.15,-128.53 3571.79,-135.5"/>
</g>
<!-- Node30 -->
<g id="node30" class="node">
<title>Node30</title>
<g id="a_node30"><a xlink:title=" ">
<polygon fill="white" stroke="#bfbfbf" points="3715.5,-112.5 3715.5,-131.5 3851.5,-131.5 3851.5,-112.5 3715.5,-112.5"/>
<text text-anchor="middle" x="3783.5" y="-119.5" font-family="Helvetica,sans-Serif" font-size="10.00">amxb/amxb_operators.h</text>
</a>
</g>
</g>
<!-- Node4&#45;&gt;Node30 -->
<g id="edge30" class="edge">
<title>Node4&#45;&gt;Node30</title>
<path fill="none" stroke="midnightblue" d="M2661.32,-176.68C2771.63,-174.94 3278.93,-165.47 3705.04,-132.06"/>
<polygon fill="midnightblue" stroke="midnightblue" points="3705.4,-135.54 3715.09,-131.26 3704.85,-128.56 3705.4,-135.54"/>
</g>
<!-- Node31 -->
<g id="node31" class="node">
<title>Node31</title>
<g id="a_node31"><a xlink:title=" ">
<polygon fill="white" stroke="#bfbfbf" points="3869.5,-112.5 3869.5,-131.5 3981.5,-131.5 3981.5,-112.5 3869.5,-112.5"/>
<text text-anchor="middle" x="3925.5" y="-119.5" font-family="Helvetica,sans-Serif" font-size="10.00">amxb/amxb_error.h</text>
</a>
</g>
</g>
<!-- Node4&#45;&gt;Node31 -->
<g id="edge31" class="edge">
<title>Node4&#45;&gt;Node31</title>
<path fill="none" stroke="midnightblue" d="M2661.23,-177.02C2780.58,-176.93 3368.47,-174.35 3859.05,-132.03"/>
<polygon fill="midnightblue" stroke="midnightblue" points="3859.51,-135.51 3869.17,-131.15 3858.9,-128.53 3859.51,-135.51"/>
</g>
<!-- Node32 -->
<g id="node32" class="node">
<title>Node32</title>
<g id="a_node32"><a xlink:title=" ">
<polygon fill="white" stroke="#bfbfbf" points="4000,-112.5 4000,-131.5 4083,-131.5 4083,-112.5 4000,-112.5"/>
<text text-anchor="middle" x="4041.5" y="-119.5" font-family="Helvetica,sans-Serif" font-size="10.00">amxo/amxo.h</text>
</a>
</g>
</g>
<!-- Node4&#45;&gt;Node32 -->
<g id="edge32" class="edge">
<title>Node4&#45;&gt;Node32</title>
<path fill="none" stroke="midnightblue" d="M2661.18,-176.7C2811.08,-174.55 3696.03,-160.86 3989.63,-131.89"/>
<polygon fill="midnightblue" stroke="midnightblue" points="3990.22,-135.34 3999.82,-130.85 3989.52,-128.38 3990.22,-135.34"/>
</g>
<!-- Node33 -->
<g id="node33" class="node">
<title>Node33</title>
<g id="a_node33"><a xlink:title=" ">
<polygon fill="white" stroke="#bfbfbf" points="4101,-112.5 4101,-131.5 4216,-131.5 4216,-112.5 4101,-112.5"/>
<text text-anchor="middle" x="4158.5" y="-119.5" font-family="Helvetica,sans-Serif" font-size="10.00">amxo/amxo_types.h</text>
</a>
</g>
</g>
<!-- Node4&#45;&gt;Node33 -->
<g id="edge33" class="edge">
<title>Node4&#45;&gt;Node33</title>
<path fill="none" stroke="midnightblue" d="M2661.29,-177.16C2793.52,-177.98 3501.88,-179.9 4090.4,-131.99"/>
<polygon fill="midnightblue" stroke="midnightblue" points="4091.12,-135.44 4100.8,-131.13 4090.54,-128.46 4091.12,-135.44"/>
</g>
<!-- Node34 -->
<g id="node34" class="node">
<title>Node34</title>
<g id="a_node34"><a xlink:href="wld__types_8h.html" target="_top" xlink:title=" ">
<polygon fill="white" stroke="red" points="308,-56.5 308,-75.5 383,-75.5 383,-56.5 308,-56.5"/>
<text text-anchor="middle" x="345.5" y="-63.5" font-family="Helvetica,sans-Serif" font-size="10.00">wld_types.h</text>
</a>
</g>
</g>
<!-- Node4&#45;&gt;Node34 -->
<g id="edge34" class="edge">
<title>Node4&#45;&gt;Node34</title>
<path fill="none" stroke="midnightblue" d="M2617.82,-177.01C2381.83,-177.1 297.3,-176.63 253.5,-132 231.99,-110.09 271.47,-90.6 305.22,-78.81"/>
<polygon fill="midnightblue" stroke="midnightblue" points="306.61,-82.04 314.98,-75.55 304.39,-75.4 306.61,-82.04"/>
</g>
<!-- Node35 -->
<g id="node35" class="node">
<title>Node35</title>
<g id="a_node35"><a xlink:title=" ">
<polygon fill="white" stroke="#bfbfbf" points="3064,-0.5 3064,-19.5 3209,-19.5 3209,-0.5 3064,-0.5"/>
<text text-anchor="middle" x="3136.5" y="-7.5" font-family="Helvetica,sans-Serif" font-size="10.00">swl/types/swl_arrayType.h</text>
</a>
</g>
</g>
<!-- Node4&#45;&gt;Node35 -->
<g id="edge62" class="edge">
<title>Node4&#45;&gt;Node35</title>
<path fill="none" stroke="midnightblue" d="M2661.26,-177.07C2925.02,-177.92 5498.68,-184.79 5554.5,-132 5579.08,-108.76 5582.19,-80.14 5558.5,-56 5516.65,-13.37 3639.98,-10.96 3219.5,-10.96"/>
<polygon fill="midnightblue" stroke="midnightblue" points="3219.25,-7.46 3209.25,-10.96 3219.25,-14.46 3219.25,-7.46"/>
</g>
<!-- Node37 -->
<g id="node36" class="node">
<title>Node37</title>
<g id="a_node36"><a xlink:href="wld__channel__types_8h.html" target="_top" xlink:title=" ">
<polygon fill="white" stroke="black" points="5410,-112.5 5410,-131.5 5529,-131.5 5529,-112.5 5410,-112.5"/>
<text text-anchor="middle" x="5469.5" y="-119.5" font-family="Helvetica,sans-Serif" font-size="10.00">wld_channel_types.h</text>
</a>
</g>
</g>
<!-- Node4&#45;&gt;Node37 -->
<g id="edge38" class="edge">
<title>Node4&#45;&gt;Node37</title>
<path fill="none" stroke="midnightblue" d="M2661.24,-176.99C2886.8,-176.82 4802.96,-174.14 5399.72,-131.94"/>
<polygon fill="midnightblue" stroke="midnightblue" points="5399.98,-135.43 5409.7,-131.22 5399.48,-128.45 5399.98,-135.43"/>
</g>
<!-- Node38 -->
<g id="node37" class="node">
<title>Node38</title>
<g id="a_node37"><a xlink:title=" ">
<polygon fill="white" stroke="#bfbfbf" points="5424,-56.5 5424,-75.5 5549,-75.5 5549,-56.5 5424,-56.5"/>
<text text-anchor="middle" x="5486.5" y="-63.5" font-family="Helvetica,sans-Serif" font-size="10.00">swla/swla_chanspec.h</text>
</a>
</g>
</g>
<!-- Node4&#45;&gt;Node38 -->
<g id="edge56" class="edge">
<title>Node4&#45;&gt;Node38</title>
<path fill="none" stroke="midnightblue" d="M2661.37,-176.87C2926.39,-175.3 5511.7,-159.22 5538.5,-132 5554.49,-115.76 5531.06,-94.87 5510.7,-81.22"/>
<polygon fill="midnightblue" stroke="midnightblue" points="5512.31,-78.1 5502,-75.67 5508.55,-84 5512.31,-78.1"/>
</g>
<!-- Node39 -->
<g id="node38" class="node">
<title>Node39</title>
<g id="a_node38"><a xlink:href="wld__bgdfs_8h.html" target="_top" xlink:title=" ">
<polygon fill="white" stroke="black" points="263,-112.5 263,-131.5 338,-131.5 338,-112.5 263,-112.5"/>
<text text-anchor="middle" x="300.5" y="-119.5" font-family="Helvetica,sans-Serif" font-size="10.00">wld_bgdfs.h</text>
</a>
</g>
</g>
<!-- Node4&#45;&gt;Node39 -->
<g id="edge42" class="edge">
<title>Node4&#45;&gt;Node39</title>
<path fill="none" stroke="midnightblue" d="M2617.74,-177.1C2414.3,-177.91 842.07,-182.55 348.12,-131.96"/>
<polygon fill="midnightblue" stroke="midnightblue" points="348.39,-128.46 338.07,-130.9 347.66,-135.43 348.39,-128.46"/>
</g>
<!-- Node40 -->
<g id="node39" class="node">
<title>Node40</title>
<g id="a_node39"><a xlink:href="wld__rad__delayMgr_8h.html" target="_top" xlink:title=" ">
<polygon fill="white" stroke="black" points="4234.5,-112.5 4234.5,-131.5 4348.5,-131.5 4348.5,-112.5 4234.5,-112.5"/>
<text text-anchor="middle" x="4291.5" y="-119.5" font-family="Helvetica,sans-Serif" font-size="10.00">wld_rad_delayMgr.h</text>
</a>
</g>
</g>
<!-- Node4&#45;&gt;Node40 -->
<g id="edge44" class="edge">
<title>Node4&#45;&gt;Node40</title>
<path fill="none" stroke="midnightblue" d="M2661.2,-176.67C2826.98,-174.21 3893.1,-158.16 4215.5,-132 4218.35,-131.77 4221.27,-131.5 4224.22,-131.2"/>
<polygon fill="midnightblue" stroke="midnightblue" points="4224.77,-134.66 4234.33,-130.1 4224.01,-127.7 4224.77,-134.66"/>
</g>
<!-- Node41 -->
<g id="node40" class="node">
<title>Node41</title>
<g id="a_node40"><a xlink:href="wld__fsm_8h.html" target="_top" xlink:title=" ">
<polygon fill="white" stroke="black" points="356,-112.5 356,-131.5 423,-131.5 423,-112.5 356,-112.5"/>
<text text-anchor="middle" x="389.5" y="-119.5" font-family="Helvetica,sans-Serif" font-size="10.00">wld_fsm.h</text>
</a>
</g>
</g>
<!-- Node4&#45;&gt;Node41 -->
<g id="edge46" class="edge">
<title>Node4&#45;&gt;Node41</title>
<path fill="none" stroke="midnightblue" d="M2617.92,-177.13C2419.45,-178.23 908.47,-184.84 433.34,-131.97"/>
<polygon fill="midnightblue" stroke="midnightblue" points="433.67,-128.48 423.33,-130.83 432.87,-135.44 433.67,-128.48"/>
</g>
<!-- Node42 -->
<g id="node41" class="node">
<title>Node42</title>
<g id="a_node41"><a xlink:href="wld__sensing_8h.html" target="_top" xlink:title=" ">
<polygon fill="white" stroke="black" points="4366.5,-112.5 4366.5,-131.5 4452.5,-131.5 4452.5,-112.5 4366.5,-112.5"/>
<text text-anchor="middle" x="4409.5" y="-119.5" font-family="Helvetica,sans-Serif" font-size="10.00">wld_sensing.h</text>
</a>
</g>
</g>
<!-- Node4&#45;&gt;Node42 -->
<g id="edge48" class="edge">
<title>Node4&#45;&gt;Node42</title>
<path fill="none" stroke="midnightblue" d="M2661.23,-176.85C2834.94,-175.66 3998.33,-166.7 4348.5,-132 4351.01,-131.75 4353.59,-131.45 4356.19,-131.11"/>
<polygon fill="midnightblue" stroke="midnightblue" points="4356.92,-134.55 4366.33,-129.66 4355.93,-127.62 4356.92,-134.55"/>
</g>
<!-- Node43 -->
<g id="node42" class="node">
<title>Node43</title>
<g id="a_node42"><a xlink:href="wld__mld_8h.html" target="_top" xlink:title=" ">
<polygon fill="white" stroke="black" points="441,-112.5 441,-131.5 508,-131.5 508,-112.5 441,-112.5"/>
<text text-anchor="middle" x="474.5" y="-119.5" font-family="Helvetica,sans-Serif" font-size="10.00">wld_mld.h</text>
</a>
</g>
</g>
<!-- Node4&#45;&gt;Node43 -->
<g id="edge50" class="edge">
<title>Node4&#45;&gt;Node43</title>
<path fill="none" stroke="midnightblue" d="M2617.9,-177.03C2422.64,-177.24 959,-177.25 522.5,-132 521.2,-131.86 519.87,-131.71 518.54,-131.55"/>
<polygon fill="midnightblue" stroke="midnightblue" points="518.63,-128.02 508.23,-130.04 517.62,-134.95 518.63,-128.02"/>
</g>
<!-- Node44 -->
<g id="node43" class="node">
<title>Node44</title>
<g id="a_node43"><a xlink:href="wld__autoCommitRadData_8h.html" target="_top" xlink:title=" ">
<polygon fill="white" stroke="black" points="4470.5,-112.5 4470.5,-131.5 4646.5,-131.5 4646.5,-112.5 4470.5,-112.5"/>
<text text-anchor="middle" x="4558.5" y="-119.5" font-family="Helvetica,sans-Serif" font-size="10.00">Utils/wld_autoCommitRadData.h</text>
</a>
</g>
</g>
<!-- Node4&#45;&gt;Node44 -->
<g id="edge52" class="edge">
<title>Node4&#45;&gt;Node44</title>
<path fill="none" stroke="midnightblue" d="M2661.18,-177.02C2811.48,-177.05 3714.15,-175.38 4460.34,-132.02"/>
<polygon fill="midnightblue" stroke="midnightblue" points="4460.71,-135.51 4470.49,-131.43 4460.3,-128.52 4460.71,-135.51"/>
</g>
<!-- Node45 -->
<g id="node44" class="node">
<title>Node45</title>
<g id="a_node44"><a xlink:href="wld__dmnMgt_8h.html" target="_top" xlink:title=" ">
<polygon fill="white" stroke="red" points="92.5,-112.5 92.5,-131.5 206.5,-131.5 206.5,-112.5 92.5,-112.5"/>
<text text-anchor="middle" x="149.5" y="-119.5" font-family="Helvetica,sans-Serif" font-size="10.00">Utils/wld_dmnMgt.h</text>
</a>
</g>
</g>
<!-- Node4&#45;&gt;Node45 -->
<g id="edge53" class="edge">
<title>Node4&#45;&gt;Node45</title>
<path fill="none" stroke="midnightblue" d="M2617.9,-176.92C2407.66,-176.1 722.97,-168.41 220.5,-132 219.38,-131.92 218.26,-131.83 217.13,-131.74"/>
<polygon fill="midnightblue" stroke="midnightblue" points="217.07,-128.22 206.8,-130.8 216.44,-135.19 217.07,-128.22"/>
</g>
<!-- Node47 -->
<g id="node45" class="node">
<title>Node47</title>
<g id="a_node45"><a xlink:title=" ">
<polygon fill="white" stroke="#bfbfbf" points="4665,-112.5 4665,-131.5 4766,-131.5 4766,-112.5 4665,-112.5"/>
<text text-anchor="middle" x="4715.5" y="-119.5" font-family="Helvetica,sans-Serif" font-size="10.00">swl/swl_staCap.h</text>
</a>
</g>
</g>
<!-- Node4&#45;&gt;Node47 -->
<g id="edge57" class="edge">
<title>Node4&#45;&gt;Node47</title>
<path fill="none" stroke="midnightblue" d="M2661.24,-176.9C2850.26,-175.93 4218.37,-167.79 4654.68,-131.92"/>
<polygon fill="midnightblue" stroke="midnightblue" points="4655.14,-135.39 4664.81,-131.06 4654.56,-128.41 4655.14,-135.39"/>
</g>
<!-- Node48 -->
<g id="node46" class="node">
<title>Node48</title>
<g id="a_node46"><a xlink:title=" ">
<polygon fill="white" stroke="#bfbfbf" points="4784.5,-112.5 4784.5,-131.5 4888.5,-131.5 4888.5,-112.5 4784.5,-112.5"/>
<text text-anchor="middle" x="4836.5" y="-119.5" font-family="Helvetica,sans-Serif" font-size="10.00">swla/swla_table.h</text>
</a>
</g>
</g>
<!-- Node4&#45;&gt;Node48 -->
<g id="edge58" class="edge">
<title>Node4&#45;&gt;Node48</title>
<path fill="none" stroke="midnightblue" d="M2661.27,-176.91C2858.09,-176.06 4333.44,-168.52 4774.5,-132 4774.6,-131.99 4774.7,-131.98 4774.81,-131.97"/>
<polygon fill="midnightblue" stroke="midnightblue" points="4774.85,-135.49 4784.46,-131.03 4774.16,-128.52 4774.85,-135.49"/>
</g>
<!-- Node49 -->
<g id="node47" class="node">
<title>Node49</title>
<g id="a_node47"><a xlink:title=" ">
<polygon fill="white" stroke="#bfbfbf" points="4907,-112.5 4907,-131.5 5004,-131.5 5004,-112.5 4907,-112.5"/>
<text text-anchor="middle" x="4955.5" y="-119.5" font-family="Helvetica,sans-Serif" font-size="10.00">swl/swl_assert.h</text>
</a>
</g>
</g>
<!-- Node4&#45;&gt;Node49 -->
<g id="edge59" class="edge">
<title>Node4&#45;&gt;Node49</title>
<path fill="none" stroke="midnightblue" d="M2661.23,-176.97C2862.73,-176.64 4408.12,-172.78 4896.54,-131.92"/>
<polygon fill="midnightblue" stroke="midnightblue" points="4897.16,-135.38 4906.82,-131.04 4896.56,-128.4 4897.16,-135.38"/>
</g>
<!-- Node50 -->
<g id="node48" class="node">
<title>Node50</title>
<g id="a_node48"><a xlink:title=" ">
<polygon fill="white" stroke="#bfbfbf" points="5022,-112.5 5022,-131.5 5143,-131.5 5143,-112.5 5022,-112.5"/>
<text text-anchor="middle" x="5082.5" y="-119.5" font-family="Helvetica,sans-Serif" font-size="10.00">swl/swl_returnCode.h</text>
</a>
</g>
</g>
<!-- Node4&#45;&gt;Node50 -->
<g id="edge60" class="edge">
<title>Node4&#45;&gt;Node50</title>
<path fill="none" stroke="midnightblue" d="M2661.02,-176.92C2867.29,-176.07 4498.18,-168.33 5011.76,-131.94"/>
<polygon fill="midnightblue" stroke="midnightblue" points="5012.11,-135.42 5021.83,-131.21 5011.61,-128.44 5012.11,-135.42"/>
</g>
<!-- Node51 -->
<g id="node49" class="node">
<title>Node51</title>
<g id="a_node49"><a xlink:title=" ">
<polygon fill="white" stroke="#bfbfbf" points="5161.5,-112.5 5161.5,-131.5 5287.5,-131.5 5287.5,-112.5 5161.5,-112.5"/>
<text text-anchor="middle" x="5224.5" y="-119.5" font-family="Helvetica,sans-Serif" font-size="10.00">swla/swla_tupleType.h</text>
</a>
</g>
</g>
<!-- Node4&#45;&gt;Node51 -->
<g id="edge61" class="edge">
<title>Node4&#45;&gt;Node51</title>
<path fill="none" stroke="midnightblue" d="M2661.26,-176.93C2875.33,-176.21 4607.73,-169.32 5151.05,-132"/>
<polygon fill="midnightblue" stroke="midnightblue" points="5151.59,-135.47 5161.32,-131.28 5151.1,-128.49 5151.59,-135.47"/>
</g>
<!-- Node52 -->
<g id="node50" class="node">
<title>Node52</title>
<g id="a_node50"><a xlink:title=" ">
<polygon fill="white" stroke="#bfbfbf" points="5305.5,-112.5 5305.5,-131.5 5391.5,-131.5 5391.5,-112.5 5305.5,-112.5"/>
<text text-anchor="middle" x="5348.5" y="-119.5" font-family="Helvetica,sans-Serif" font-size="10.00">swl/swl_mlo.h</text>
</a>
</g>
</g>
<!-- Node4&#45;&gt;Node52 -->
<g id="edge63" class="edge">
<title>Node4&#45;&gt;Node52</title>
<path fill="none" stroke="midnightblue" d="M2661.12,-177.1C2881.39,-178.02 4722.14,-184.11 5295.43,-131.91"/>
<polygon fill="midnightblue" stroke="midnightblue" points="5295.81,-135.39 5305.44,-130.98 5295.16,-128.42 5295.81,-135.39"/>
</g>
<!-- Node34&#45;&gt;Node3 -->
<g id="edge35" class="edge">
<title>Node34&#45;&gt;Node3</title>
<path fill="none" stroke="midnightblue" d="M307.97,-58.65C246.32,-48.21 124.35,-27.56 63.23,-17.22"/>
<polygon fill="midnightblue" stroke="midnightblue" points="63.7,-13.75 53.25,-15.53 62.53,-20.65 63.7,-13.75"/>
</g>
<!-- Node34&#45;&gt;Node10 -->
<g id="edge37" class="edge">
<title>Node34&#45;&gt;Node10</title>
<path fill="none" stroke="midnightblue" d="M375.76,-56.44C408.46,-47.2 460.68,-32.44 496.68,-22.26"/>
<polygon fill="midnightblue" stroke="midnightblue" points="497.71,-25.61 506.38,-19.52 495.8,-18.87 497.71,-25.61"/>
</g>
<!-- Node34&#45;&gt;Node35 -->
<g id="edge36" class="edge">
<title>Node34&#45;&gt;Node35</title>
<path fill="none" stroke="midnightblue" d="M383.1,-64.27C678.52,-58.56 2625.88,-20.88 3053.55,-12.6"/>
<polygon fill="midnightblue" stroke="midnightblue" points="3053.74,-16.1 3063.67,-12.41 3053.6,-9.1 3053.74,-16.1"/>
</g>
<!-- Node37&#45;&gt;Node5 -->
<g id="edge39" class="edge">
<title>Node37&#45;&gt;Node5</title>
<path fill="none" stroke="midnightblue" d="M5409.7,-112.76C5406.59,-112.47 5403.51,-112.21 5400.5,-112 5027.42,-85.43 2209.65,-69.26 1834.68,-67.22"/>
<polygon fill="midnightblue" stroke="midnightblue" points="1834.57,-63.72 1824.55,-67.17 1834.53,-70.72 1834.57,-63.72"/>
</g>
<!-- Node37&#45;&gt;Node10 -->
<g id="edge41" class="edge">
<title>Node37&#45;&gt;Node10</title>
<path fill="none" stroke="midnightblue" d="M5409.7,-112.8C5406.59,-112.5 5403.51,-112.23 5400.5,-112 4402.98,-36.81 1087.1,-14.29 597.19,-11.35"/>
<polygon fill="midnightblue" stroke="midnightblue" points="597.17,-7.85 587.14,-11.29 597.12,-14.85 597.17,-7.85"/>
</g>
<!-- Node37&#45;&gt;Node38 -->
<g id="edge40" class="edge">
<title>Node37&#45;&gt;Node38</title>
<path fill="none" stroke="midnightblue" d="M5472.31,-112.08C5474.58,-104.85 5477.87,-94.41 5480.71,-85.4"/>
<polygon fill="midnightblue" stroke="midnightblue" points="5484.08,-86.34 5483.75,-75.75 5477.4,-84.24 5484.08,-86.34"/>
</g>
<!-- Node39&#45;&gt;Node34 -->
<g id="edge43" class="edge">
<title>Node39&#45;&gt;Node34</title>
<path fill="none" stroke="midnightblue" d="M307.93,-112.08C314.35,-104.38 323.81,-93.03 331.62,-83.65"/>
<polygon fill="midnightblue" stroke="midnightblue" points="334.49,-85.67 338.21,-75.75 329.12,-81.19 334.49,-85.67"/>
</g>
<!-- Node40&#45;&gt;Node4 -->
<g id="edge45" class="edge">
<title>Node40&#45;&gt;Node4</title>
<path fill="none" stroke="midnightblue" d="M4238.83,-131.53C4237.03,-131.7 4235.25,-131.86 4233.5,-132 3914.56,-157.88 2867.76,-173.87 2671.36,-176.59"/>
<polygon fill="midnightblue" stroke="midnightblue" points="2671.1,-173.09 2661.15,-176.73 2671.19,-180.09 2671.1,-173.09"/>
</g>
<!-- Node41&#45;&gt;Node34 -->
<g id="edge47" class="edge">
<title>Node41&#45;&gt;Node34</title>
<path fill="none" stroke="midnightblue" d="M382.23,-112.08C375.96,-104.38 366.71,-93.03 359.07,-83.65"/>
<polygon fill="midnightblue" stroke="midnightblue" points="361.66,-81.29 352.63,-75.75 356.23,-85.71 361.66,-81.29"/>
</g>
<!-- Node42&#45;&gt;Node4 -->
<g id="edge49" class="edge">
<title>Node42&#45;&gt;Node4</title>
<path fill="none" stroke="midnightblue" d="M4370.93,-131.52C4369.44,-131.69 4367.96,-131.86 4366.5,-132 4019.93,-166.35 2876.8,-175.47 2671.26,-176.81"/>
<polygon fill="midnightblue" stroke="midnightblue" points="2671.11,-173.31 2661.13,-176.88 2671.15,-180.31 2671.11,-173.31"/>
</g>
<!-- Node43&#45;&gt;Node34 -->
<g id="edge51" class="edge">
<title>Node43&#45;&gt;Node34</title>
<path fill="none" stroke="midnightblue" d="M454.06,-112.44C432.83,-103.56 399.4,-89.56 375.25,-79.45"/>
<polygon fill="midnightblue" stroke="midnightblue" points="376.42,-76.15 365.84,-75.52 373.72,-82.61 376.42,-76.15"/>
</g>
<!-- Node45&#45;&gt;Node6 -->
<g id="edge54" class="edge">
<title>Node45&#45;&gt;Node6</title>
<path fill="none" stroke="midnightblue" d="M146.2,-112.08C143.52,-104.85 139.65,-94.41 136.31,-85.4"/>
<polygon fill="midnightblue" stroke="midnightblue" points="139.5,-83.91 132.74,-75.75 132.93,-86.34 139.5,-83.91"/>
</g>
<!-- Node45&#45;&gt;Node34 -->
<g id="edge55" class="edge">
<title>Node45&#45;&gt;Node34</title>
<path fill="none" stroke="midnightblue" d="M180.56,-112.44C214.1,-103.2 267.7,-88.44 304.64,-78.26"/>
<polygon fill="midnightblue" stroke="midnightblue" points="305.88,-81.55 314.59,-75.52 304.02,-74.8 305.88,-81.55"/>
</g>
</g>
</svg>
