<?xml version="1.0" encoding="UTF-8" standalone="no"?>
<!DOCTYPE svg PUBLIC "-//W3C//DTD SVG 1.1//EN"
 "http://www.w3.org/Graphics/SVG/1.1/DTD/svg11.dtd">
<!-- Generated by graphviz version 2.43.0 (0)
 -->
<!-- Title: wld_rad_nl80211_setTxPowerLimited Pages: 1 -->
<svg width="503pt" height="66pt"
 viewBox="0.00 0.00 503.00 66.00" xmlns="http://www.w3.org/2000/svg" xmlns:xlink="http://www.w3.org/1999/xlink">
<g id="graph0" class="graph" transform="scale(1 1) rotate(0) translate(4 62)">
<title>wld_rad_nl80211_setTxPowerLimited</title>
<polygon fill="white" stroke="transparent" points="-4,4 -4,-62 499,-62 499,4 -4,4"/>
<!-- Node1 -->
<g id="node1" class="node">
<title>Node1</title>
<g id="a_node1"><a xlink:title=" ">
<polygon fill="#bfbfbf" stroke="black" points="0,-14 0,-44 161,-44 161,-14 0,-14"/>
<text text-anchor="start" x="8" y="-32" font-family="Helvetica,sans-Serif" font-size="10.00">wld_rad_nl80211_setTxPower</text>
<text text-anchor="middle" x="80.5" y="-21" font-family="Helvetica,sans-Serif" font-size="10.00">Limited</text>
</a>
</g>
</g>
<!-- Node2 -->
<g id="node2" class="node">
<title>Node2</title>
<g id="a_node2"><a xlink:href="wld__nl80211__core_8c.html#ab89990c364e3256f803e95aee1684407" target="_top" xlink:title=" ">
<polygon fill="white" stroke="black" points="206.5,-38.5 206.5,-57.5 364.5,-57.5 364.5,-38.5 206.5,-38.5"/>
<text text-anchor="middle" x="285.5" y="-45.5" font-family="Helvetica,sans-Serif" font-size="10.00">wld_nl80211_getSharedState</text>
</a>
</g>
</g>
<!-- Node1&#45;&gt;Node2 -->
<g id="edge1" class="edge">
<title>Node1&#45;&gt;Node2</title>
<path fill="none" stroke="midnightblue" d="M161.15,-36.45C172.66,-37.53 184.57,-38.65 196.23,-39.74"/>
<polygon fill="midnightblue" stroke="midnightblue" points="196.13,-43.24 206.41,-40.69 196.78,-36.27 196.13,-43.24"/>
</g>
<!-- Node4 -->
<g id="node4" class="node">
<title>Node4</title>
<g id="a_node4"><a xlink:href="wld__nl80211__api_8c.html#a82cc18befb7fa920805b59403b6075e9" target="_top" xlink:title=" ">
<polygon fill="white" stroke="black" points="197,-0.5 197,-19.5 374,-19.5 374,-0.5 197,-0.5"/>
<text text-anchor="middle" x="285.5" y="-7.5" font-family="Helvetica,sans-Serif" font-size="10.00">wld_nl80211_setTxPowerLimited</text>
</a>
</g>
</g>
<!-- Node1&#45;&gt;Node4 -->
<g id="edge3" class="edge">
<title>Node1&#45;&gt;Node4</title>
<path fill="none" stroke="midnightblue" d="M161.15,-21.55C169.53,-20.76 178.12,-19.96 186.68,-19.16"/>
<polygon fill="midnightblue" stroke="midnightblue" points="187.06,-22.64 196.69,-18.22 186.41,-15.67 187.06,-22.64"/>
</g>
<!-- Node3 -->
<g id="node3" class="node">
<title>Node3</title>
<g id="a_node3"><a xlink:href="wld__nl80211__core_8c.html#ac64e98962155641a465909b3c8fc0779" target="_top" xlink:title=" ">
<polygon fill="white" stroke="black" points="410,-38.5 410,-57.5 495,-57.5 495,-38.5 410,-38.5"/>
<text text-anchor="middle" x="452.5" y="-45.5" font-family="Helvetica,sans-Serif" font-size="10.00">s_isValidState</text>
</a>
</g>
</g>
<!-- Node2&#45;&gt;Node3 -->
<g id="edge2" class="edge">
<title>Node2&#45;&gt;Node3</title>
<path fill="none" stroke="midnightblue" d="M364.65,-48C376.64,-48 388.75,-48 399.97,-48"/>
<polygon fill="midnightblue" stroke="midnightblue" points="399.99,-51.5 409.99,-48 399.99,-44.5 399.99,-51.5"/>
</g>
</g>
</svg>
