<?xml version="1.0" encoding="UTF-8" standalone="no"?>
<!DOCTYPE svg PUBLIC "-//W3C//DTD SVG 1.1//EN"
 "http://www.w3.org/Graphics/SVG/1.1/DTD/svg11.dtd">
<!-- Generated by graphviz version 2.43.0 (0)
 -->
<!-- Title: _createNonAssociatedDevice Pages: 1 -->
<svg width="613pt" height="123pt"
 viewBox="0.00 0.00 613.00 123.00" xmlns="http://www.w3.org/2000/svg" xmlns:xlink="http://www.w3.org/1999/xlink">
<g id="graph0" class="graph" transform="scale(1 1) rotate(0) translate(4 119)">
<title>_createNonAssociatedDevice</title>
<polygon fill="white" stroke="transparent" points="-4,4 -4,-119 609,-119 609,4 -4,4"/>
<!-- Node1 -->
<g id="node1" class="node">
<title>Node1</title>
<g id="a_node1"><a xlink:title=" ">
<polygon fill="#bfbfbf" stroke="black" points="0,-38.5 0,-57.5 159,-57.5 159,-38.5 0,-38.5"/>
<text text-anchor="middle" x="79.5" y="-45.5" font-family="Helvetica,sans-Serif" font-size="10.00">_createNonAssociatedDevice</text>
</a>
</g>
</g>
<!-- Node2 -->
<g id="node2" class="node">
<title>Node2</title>
<g id="a_node2"><a xlink:href="wld__radio_8c.html#a5bc526661be71f2eb0810b099efe607d" target="_top" xlink:title=" ">
<polygon fill="white" stroke="black" points="215,-76.5 215,-95.5 315,-95.5 315,-76.5 215,-76.5"/>
<text text-anchor="middle" x="265" y="-83.5" font-family="Helvetica,sans-Serif" font-size="10.00">wld_rad_fromObj</text>
</a>
</g>
</g>
<!-- Node1&#45;&gt;Node2 -->
<g id="edge1" class="edge">
<title>Node1&#45;&gt;Node2</title>
<path fill="none" stroke="midnightblue" d="M126.8,-57.59C151.46,-62.69 181.96,-69.01 207.94,-74.39"/>
<polygon fill="midnightblue" stroke="midnightblue" points="207.53,-77.88 218.03,-76.48 208.95,-71.02 207.53,-77.88"/>
</g>
<!-- Node6 -->
<g id="node6" class="node">
<title>Node6</title>
<g id="a_node6"><a xlink:href="wld__radio_8c.html#ae6aa07e4f2a9f4675b22fdd1412a60cc" target="_top" xlink:title=" ">
<polygon fill="white" stroke="black" points="195,-38.5 195,-57.5 335,-57.5 335,-38.5 195,-38.5"/>
<text text-anchor="middle" x="265" y="-45.5" font-family="Helvetica,sans-Serif" font-size="10.00">wld_rad_getSwlChanspec</text>
</a>
</g>
</g>
<!-- Node1&#45;&gt;Node6 -->
<g id="edge5" class="edge">
<title>Node1&#45;&gt;Node6</title>
<path fill="none" stroke="midnightblue" d="M159.12,-48C167.56,-48 176.14,-48 184.59,-48"/>
<polygon fill="midnightblue" stroke="midnightblue" points="184.8,-51.5 194.8,-48 184.8,-44.5 184.8,-51.5"/>
</g>
<!-- Node7 -->
<g id="node7" class="node">
<title>Node7</title>
<g id="a_node7"><a xlink:href="wld__radio_8c.html#aa588f181ad2d2eafc06fc568c540ab13" target="_top" xlink:title=" ">
<polygon fill="white" stroke="black" points="206.5,-0.5 206.5,-19.5 323.5,-19.5 323.5,-0.5 206.5,-0.5"/>
<text text-anchor="middle" x="265" y="-7.5" font-family="Helvetica,sans-Serif" font-size="10.00">wld_rad_hasChannel</text>
</a>
</g>
</g>
<!-- Node1&#45;&gt;Node7 -->
<g id="edge6" class="edge">
<title>Node1&#45;&gt;Node7</title>
<path fill="none" stroke="midnightblue" d="M126.8,-38.41C151.46,-33.31 181.96,-26.99 207.94,-21.61"/>
<polygon fill="midnightblue" stroke="midnightblue" points="208.95,-24.98 218.03,-19.52 207.53,-18.12 208.95,-24.98"/>
</g>
<!-- Node3 -->
<g id="node3" class="node">
<title>Node3</title>
<g id="a_node3"><a xlink:href="wld__util_8c.html#a18c61fa964e131e3008ec440b72b61c8" target="_top" xlink:title=" ">
<polygon fill="white" stroke="black" points="371,-95.5 371,-114.5 479,-114.5 479,-95.5 371,-95.5"/>
<text text-anchor="middle" x="425" y="-102.5" font-family="Helvetica,sans-Serif" font-size="10.00">debugIsRadPointer</text>
</a>
</g>
</g>
<!-- Node2&#45;&gt;Node3 -->
<g id="edge2" class="edge">
<title>Node2&#45;&gt;Node3</title>
<path fill="none" stroke="midnightblue" d="M315.13,-91.91C329.48,-93.63 345.37,-95.54 360.48,-97.36"/>
<polygon fill="midnightblue" stroke="midnightblue" points="360.44,-100.88 370.79,-98.6 361.28,-93.93 360.44,-100.88"/>
</g>
<!-- Node4 -->
<g id="node4" class="node">
<title>Node4</title>
<g id="a_node4"><a xlink:href="wld__radio_8c.html#a7cad1ba5d4b5338e778c1ae67b58874f" target="_top" xlink:title=" ">
<polygon fill="white" stroke="black" points="373,-57.5 373,-76.5 477,-76.5 477,-57.5 373,-57.5"/>
<text text-anchor="middle" x="425" y="-64.5" font-family="Helvetica,sans-Serif" font-size="10.00">wld_rad_isRadObj</text>
</a>
</g>
</g>
<!-- Node2&#45;&gt;Node4 -->
<g id="edge3" class="edge">
<title>Node2&#45;&gt;Node4</title>
<path fill="none" stroke="midnightblue" d="M315.13,-80.09C330.21,-78.28 347,-76.26 362.79,-74.36"/>
<polygon fill="midnightblue" stroke="midnightblue" points="363.48,-77.8 372.99,-73.13 362.65,-70.85 363.48,-77.8"/>
</g>
<!-- Node5 -->
<g id="node5" class="node">
<title>Node5</title>
<g id="a_node5"><a xlink:href="wld_8c.html#a86eb0dd5db7f6f4c724e09f6d1b831d8" target="_top" xlink:title=" ">
<polygon fill="white" stroke="black" points="515,-57.5 515,-76.5 605,-76.5 605,-57.5 515,-57.5"/>
<text text-anchor="middle" x="560" y="-64.5" font-family="Helvetica,sans-Serif" font-size="10.00">get_wld_object</text>
</a>
</g>
</g>
<!-- Node4&#45;&gt;Node5 -->
<g id="edge4" class="edge">
<title>Node4&#45;&gt;Node5</title>
<path fill="none" stroke="midnightblue" d="M477.04,-67C486.09,-67 495.54,-67 504.68,-67"/>
<polygon fill="midnightblue" stroke="midnightblue" points="504.82,-70.5 514.82,-67 504.82,-63.5 504.82,-70.5"/>
</g>
</g>
</svg>
