<?xml version="1.0" encoding="UTF-8" standalone="no"?>
<!DOCTYPE svg PUBLIC "-//W3C//DTD SVG 1.1//EN"
 "http://www.w3.org/Graphics/SVG/1.1/DTD/svg11.dtd">
<!-- Generated by graphviz version 2.43.0 (0)
 -->
<!-- Title: wld_ad_syncInfo Pages: 1 -->
<svg width="338pt" height="218pt"
 viewBox="0.00 0.00 338.00 218.00" xmlns="http://www.w3.org/2000/svg" xmlns:xlink="http://www.w3.org/1999/xlink">
<g id="graph0" class="graph" transform="scale(1 1) rotate(0) translate(4 214)">
<title>wld_ad_syncInfo</title>
<polygon fill="white" stroke="transparent" points="-4,4 -4,-214 334,-214 334,4 -4,4"/>
<!-- Node1 -->
<g id="node1" class="node">
<title>Node1</title>
<g id="a_node1"><a xlink:title=" ">
<polygon fill="#bfbfbf" stroke="black" points="0,-95.5 0,-114.5 98,-114.5 98,-95.5 0,-95.5"/>
<text text-anchor="middle" x="49" y="-102.5" font-family="Helvetica,sans-Serif" font-size="10.00">wld_ad_syncInfo</text>
</a>
</g>
</g>
<!-- Node2 -->
<g id="node2" class="node">
<title>Node2</title>
<g id="a_node2"><a xlink:href="wld__assocdev_8c.html#a37207ff73b7fab23ba5b33119af46917" target="_top" xlink:title=" ">
<polygon fill="white" stroke="black" points="145,-190.5 145,-209.5 319,-209.5 319,-190.5 145,-190.5"/>
<text text-anchor="middle" x="232" y="-197.5" font-family="Helvetica,sans-Serif" font-size="10.00">wld_ad_getNrActiveAffiliatedSta</text>
</a>
</g>
</g>
<!-- Node1&#45;&gt;Node2 -->
<g id="edge1" class="edge">
<title>Node1&#45;&gt;Node2</title>
<path fill="none" stroke="midnightblue" d="M57.63,-114.73C71.14,-131.21 100.94,-164.44 134,-181 138.84,-183.43 143.97,-185.54 149.23,-187.39"/>
<polygon fill="midnightblue" stroke="midnightblue" points="148.22,-190.74 158.81,-190.43 150.34,-184.07 148.22,-190.74"/>
</g>
<!-- Node3 -->
<g id="node3" class="node">
<title>Node3</title>
<g id="a_node3"><a xlink:href="wld__assocdev_8c.html#a33cce33170c4860ab00840f1664c65b7" target="_top" xlink:title=" ">
<polygon fill="white" stroke="black" points="163.5,-152.5 163.5,-171.5 300.5,-171.5 300.5,-152.5 163.5,-152.5"/>
<text text-anchor="middle" x="232" y="-159.5" font-family="Helvetica,sans-Serif" font-size="10.00">wld_ad_syncCapabilities</text>
</a>
</g>
</g>
<!-- Node1&#45;&gt;Node3 -->
<g id="edge2" class="edge">
<title>Node1&#45;&gt;Node3</title>
<path fill="none" stroke="midnightblue" d="M67.87,-114.55C84.56,-123.11 110.37,-135.45 134,-143 142.64,-145.76 151.85,-148.19 161.03,-150.31"/>
<polygon fill="midnightblue" stroke="midnightblue" points="160.43,-153.76 170.94,-152.49 161.93,-146.92 160.43,-153.76"/>
</g>
<!-- Node4 -->
<g id="node4" class="node">
<title>Node4</title>
<g id="a_node4"><a xlink:href="wld__assocdev_8c.html#ad9c063040f84712fcaa538e6ac2a90ed" target="_top" xlink:title=" ">
<polygon fill="white" stroke="black" points="134,-114.5 134,-133.5 330,-133.5 330,-114.5 134,-114.5"/>
<text text-anchor="middle" x="232" y="-121.5" font-family="Helvetica,sans-Serif" font-size="10.00">wld_ad_syncdetailedMcsCapabilities</text>
</a>
</g>
</g>
<!-- Node1&#45;&gt;Node4 -->
<g id="edge3" class="edge">
<title>Node1&#45;&gt;Node4</title>
<path fill="none" stroke="midnightblue" d="M98.03,-110.04C108.05,-111.09 118.97,-112.24 130.11,-113.41"/>
<polygon fill="midnightblue" stroke="midnightblue" points="130.06,-116.92 140.37,-114.49 130.79,-109.96 130.06,-116.92"/>
</g>
<!-- Node5 -->
<g id="node5" class="node">
<title>Node5</title>
<g id="a_node5"><a xlink:href="wld__assocdev_8c.html#ad95c8c7ea88e467fdc5881f1686d12d1" target="_top" xlink:title=" ">
<polygon fill="white" stroke="black" points="153.5,-76.5 153.5,-95.5 310.5,-95.5 310.5,-76.5 153.5,-76.5"/>
<text text-anchor="middle" x="232" y="-83.5" font-family="Helvetica,sans-Serif" font-size="10.00">wld_ad_syncRrmCapabilities</text>
</a>
</g>
</g>
<!-- Node1&#45;&gt;Node5 -->
<g id="edge4" class="edge">
<title>Node1&#45;&gt;Node5</title>
<path fill="none" stroke="midnightblue" d="M98.03,-99.96C111.95,-98.5 127.6,-96.85 143.14,-95.22"/>
<polygon fill="midnightblue" stroke="midnightblue" points="143.75,-98.68 153.33,-94.15 143.02,-91.72 143.75,-98.68"/>
</g>
<!-- Node6 -->
<g id="node6" class="node">
<title>Node6</title>
<g id="a_node6"><a xlink:href="wld__util_8c.html#ab4e2a60e8daca057b1a575a2c43b8b06" target="_top" xlink:title=" ">
<polygon fill="white" stroke="black" points="166.5,-38.5 166.5,-57.5 297.5,-57.5 297.5,-38.5 166.5,-38.5"/>
<text text-anchor="middle" x="232" y="-45.5" font-family="Helvetica,sans-Serif" font-size="10.00">wld_util_getMaxBwCap</text>
</a>
</g>
</g>
<!-- Node1&#45;&gt;Node6 -->
<g id="edge5" class="edge">
<title>Node1&#45;&gt;Node6</title>
<path fill="none" stroke="midnightblue" d="M67.87,-95.45C84.56,-86.89 110.37,-74.55 134,-67 142.64,-64.24 151.85,-61.81 161.03,-59.69"/>
<polygon fill="midnightblue" stroke="midnightblue" points="161.93,-63.08 170.94,-57.51 160.43,-56.24 161.93,-63.08"/>
</g>
<!-- Node7 -->
<g id="node7" class="node">
<title>Node7</title>
<g id="a_node7"><a xlink:href="wld__util_8c.html#a0d24c165677161f86ceb7af2f31fe5e7" target="_top" xlink:title=" ">
<polygon fill="white" stroke="black" points="168.5,-0.5 168.5,-19.5 295.5,-19.5 295.5,-0.5 168.5,-0.5"/>
<text text-anchor="middle" x="232" y="-7.5" font-family="Helvetica,sans-Serif" font-size="10.00">wld_writeCapsToString</text>
</a>
</g>
</g>
<!-- Node1&#45;&gt;Node7 -->
<g id="edge6" class="edge">
<title>Node1&#45;&gt;Node7</title>
<path fill="none" stroke="midnightblue" d="M57.63,-95.27C71.14,-78.79 100.94,-45.56 134,-29 141.61,-25.19 149.91,-22.14 158.35,-19.7"/>
<polygon fill="midnightblue" stroke="midnightblue" points="159.49,-23.02 168.29,-17.11 157.73,-16.25 159.49,-23.02"/>
</g>
</g>
</svg>
