<?xml version="1.0" encoding="UTF-8" standalone="no"?>
<!DOCTYPE svg PUBLIC "-//W3C//DTD SVG 1.1//EN"
 "http://www.w3.org/Graphics/SVG/1.1/DTD/svg11.dtd">
<!-- Generated by graphviz version 2.43.0 (0)
 -->
<!-- Title: wld_rad_nl80211_setTxPowerFixed Pages: 1 -->
<svg width="492pt" height="66pt"
 viewBox="0.00 0.00 492.00 66.00" xmlns="http://www.w3.org/2000/svg" xmlns:xlink="http://www.w3.org/1999/xlink">
<g id="graph0" class="graph" transform="scale(1 1) rotate(0) translate(4 62)">
<title>wld_rad_nl80211_setTxPowerFixed</title>
<polygon fill="white" stroke="transparent" points="-4,4 -4,-62 488,-62 488,4 -4,4"/>
<!-- Node1 -->
<g id="node1" class="node">
<title>Node1</title>
<g id="a_node1"><a xlink:title=" ">
<polygon fill="#bfbfbf" stroke="black" points="0,-14 0,-44 161,-44 161,-14 0,-14"/>
<text text-anchor="start" x="8" y="-32" font-family="Helvetica,sans-Serif" font-size="10.00">wld_rad_nl80211_setTxPower</text>
<text text-anchor="middle" x="80.5" y="-21" font-family="Helvetica,sans-Serif" font-size="10.00">Fixed</text>
</a>
</g>
</g>
<!-- Node2 -->
<g id="node2" class="node">
<title>Node2</title>
<g id="a_node2"><a xlink:href="wld__nl80211__core_8c.html#ab89990c364e3256f803e95aee1684407" target="_top" xlink:title=" ">
<polygon fill="white" stroke="black" points="201,-38.5 201,-57.5 359,-57.5 359,-38.5 201,-38.5"/>
<text text-anchor="middle" x="280" y="-45.5" font-family="Helvetica,sans-Serif" font-size="10.00">wld_nl80211_getSharedState</text>
</a>
</g>
</g>
<!-- Node1&#45;&gt;Node2 -->
<g id="edge1" class="edge">
<title>Node1&#45;&gt;Node2</title>
<path fill="none" stroke="midnightblue" d="M161.26,-36.67C170.96,-37.61 180.9,-38.56 190.71,-39.51"/>
<polygon fill="midnightblue" stroke="midnightblue" points="190.58,-43.01 200.87,-40.48 191.25,-36.04 190.58,-43.01"/>
</g>
<!-- Node4 -->
<g id="node4" class="node">
<title>Node4</title>
<g id="a_node4"><a xlink:href="wld__nl80211__api_8c.html#a1acc971fb429d1c867c0ab43494ed8ab" target="_top" xlink:title=" ">
<polygon fill="white" stroke="black" points="197,-0.5 197,-19.5 363,-19.5 363,-0.5 197,-0.5"/>
<text text-anchor="middle" x="280" y="-7.5" font-family="Helvetica,sans-Serif" font-size="10.00">wld_nl80211_setTxPowerFixed</text>
</a>
</g>
</g>
<!-- Node1&#45;&gt;Node4 -->
<g id="edge3" class="edge">
<title>Node1&#45;&gt;Node4</title>
<path fill="none" stroke="midnightblue" d="M161.26,-21.33C169.56,-20.53 178.04,-19.71 186.46,-18.9"/>
<polygon fill="midnightblue" stroke="midnightblue" points="187.07,-22.36 196.69,-17.92 186.4,-15.39 187.07,-22.36"/>
</g>
<!-- Node3 -->
<g id="node3" class="node">
<title>Node3</title>
<g id="a_node3"><a xlink:href="wld__nl80211__core_8c.html#ac64e98962155641a465909b3c8fc0779" target="_top" xlink:title=" ">
<polygon fill="white" stroke="black" points="399,-38.5 399,-57.5 484,-57.5 484,-38.5 399,-38.5"/>
<text text-anchor="middle" x="441.5" y="-45.5" font-family="Helvetica,sans-Serif" font-size="10.00">s_isValidState</text>
</a>
</g>
</g>
<!-- Node2&#45;&gt;Node3 -->
<g id="edge2" class="edge">
<title>Node2&#45;&gt;Node3</title>
<path fill="none" stroke="midnightblue" d="M359.35,-48C369.19,-48 379.07,-48 388.37,-48"/>
<polygon fill="midnightblue" stroke="midnightblue" points="388.6,-51.5 398.6,-48 388.6,-44.5 388.6,-51.5"/>
</g>
</g>
</svg>
