<?xml version="1.0" encoding="UTF-8" standalone="no"?>
<!DOCTYPE svg PUBLIC "-//W3C//DTD SVG 1.1//EN"
 "http://www.w3.org/Graphics/SVG/1.1/DTD/svg11.dtd">
<!-- Generated by graphviz version 2.43.0 (0)
 -->
<!-- Title: src/wld_radioOperatingStandards.c Pages: 1 -->
<svg width="4869pt" height="364pt"
 viewBox="0.00 0.00 4869.16 364.00" xmlns="http://www.w3.org/2000/svg" xmlns:xlink="http://www.w3.org/1999/xlink">
<g id="graph0" class="graph" transform="scale(1 1) rotate(0) translate(4 360)">
<title>src/wld_radioOperatingStandards.c</title>
<polygon fill="white" stroke="transparent" points="-4,4 -4,-360 4865.16,-360 4865.16,4 -4,4"/>
<!-- Node1 -->
<g id="node1" class="node">
<title>Node1</title>
<g id="a_node1"><a xlink:title=" ">
<polygon fill="#bfbfbf" stroke="black" points="2745.5,-336.5 2745.5,-355.5 2931.5,-355.5 2931.5,-336.5 2745.5,-336.5"/>
<text text-anchor="middle" x="2838.5" y="-343.5" font-family="Helvetica,sans-Serif" font-size="10.00">src/wld_radioOperatingStandards.c</text>
</a>
</g>
</g>
<!-- Node2 -->
<g id="node2" class="node">
<title>Node2</title>
<g id="a_node2"><a xlink:title=" ">
<polygon fill="white" stroke="#bfbfbf" points="2421,-280.5 2421,-299.5 2474,-299.5 2474,-280.5 2421,-280.5"/>
<text text-anchor="middle" x="2447.5" y="-287.5" font-family="Helvetica,sans-Serif" font-size="10.00">stdlib.h</text>
</a>
</g>
</g>
<!-- Node1&#45;&gt;Node2 -->
<g id="edge1" class="edge">
<title>Node1&#45;&gt;Node2</title>
<path fill="none" stroke="midnightblue" d="M2745.42,-336.48C2675.77,-329.34 2578.03,-317.74 2484.13,-300.12"/>
<polygon fill="midnightblue" stroke="midnightblue" points="2484.65,-296.66 2474.17,-298.23 2483.34,-303.54 2484.65,-296.66"/>
</g>
<!-- Node3 -->
<g id="node3" class="node">
<title>Node3</title>
<g id="a_node3"><a xlink:title=" ">
<polygon fill="white" stroke="#bfbfbf" points="2492,-280.5 2492,-299.5 2593,-299.5 2593,-280.5 2492,-280.5"/>
<text text-anchor="middle" x="2542.5" y="-287.5" font-family="Helvetica,sans-Serif" font-size="10.00">debug/sahtrace.h</text>
</a>
</g>
</g>
<!-- Node1&#45;&gt;Node3 -->
<g id="edge2" class="edge">
<title>Node1&#45;&gt;Node3</title>
<path fill="none" stroke="midnightblue" d="M2791.6,-336.44C2739.42,-326.92 2655.13,-311.55 2599.27,-301.36"/>
<polygon fill="midnightblue" stroke="midnightblue" points="2599.65,-297.87 2589.18,-299.52 2598.39,-304.75 2599.65,-297.87"/>
</g>
<!-- Node4 -->
<g id="node4" class="node">
<title>Node4</title>
<g id="a_node4"><a xlink:title=" ">
<polygon fill="white" stroke="#bfbfbf" points="2611,-280.5 2611,-299.5 2664,-299.5 2664,-280.5 2611,-280.5"/>
<text text-anchor="middle" x="2637.5" y="-287.5" font-family="Helvetica,sans-Serif" font-size="10.00">string.h</text>
</a>
</g>
</g>
<!-- Node1&#45;&gt;Node4 -->
<g id="edge3" class="edge">
<title>Node1&#45;&gt;Node4</title>
<path fill="none" stroke="midnightblue" d="M2806.65,-336.44C2770.63,-326.77 2712.07,-311.03 2674.17,-300.85"/>
<polygon fill="midnightblue" stroke="midnightblue" points="2674.63,-297.35 2664.06,-298.14 2672.81,-304.11 2674.63,-297.35"/>
</g>
<!-- Node5 -->
<g id="node5" class="node">
<title>Node5</title>
<g id="a_node5"><a xlink:title=" ">
<polygon fill="white" stroke="#bfbfbf" points="2682.5,-280.5 2682.5,-299.5 2738.5,-299.5 2738.5,-280.5 2682.5,-280.5"/>
<text text-anchor="middle" x="2710.5" y="-287.5" font-family="Helvetica,sans-Serif" font-size="10.00">assert.h</text>
</a>
</g>
</g>
<!-- Node1&#45;&gt;Node5 -->
<g id="edge4" class="edge">
<title>Node1&#45;&gt;Node5</title>
<path fill="none" stroke="midnightblue" d="M2818.22,-336.44C2797.15,-327.56 2763.98,-313.56 2740.01,-303.45"/>
<polygon fill="midnightblue" stroke="midnightblue" points="2741.26,-300.18 2730.69,-299.52 2738.54,-306.63 2741.26,-300.18"/>
</g>
<!-- Node6 -->
<g id="node6" class="node">
<title>Node6</title>
<g id="a_node6"><a xlink:title=" ">
<polygon fill="white" stroke="#bfbfbf" points="2757,-280.5 2757,-299.5 2810,-299.5 2810,-280.5 2757,-280.5"/>
<text text-anchor="middle" x="2783.5" y="-287.5" font-family="Helvetica,sans-Serif" font-size="10.00">ctype.h</text>
</a>
</g>
</g>
<!-- Node1&#45;&gt;Node6 -->
<g id="edge5" class="edge">
<title>Node1&#45;&gt;Node6</title>
<path fill="none" stroke="midnightblue" d="M2829.42,-336.08C2821.33,-328.14 2809.3,-316.34 2799.59,-306.8"/>
<polygon fill="midnightblue" stroke="midnightblue" points="2802,-304.26 2792.41,-299.75 2797.1,-309.25 2802,-304.26"/>
</g>
<!-- Node7 -->
<g id="node7" class="node">
<title>Node7</title>
<g id="a_node7"><a xlink:href="wld_8h.html" target="_top" xlink:title=" ">
<polygon fill="white" stroke="red" points="2915,-168.5 2915,-187.5 2958,-187.5 2958,-168.5 2915,-168.5"/>
<text text-anchor="middle" x="2936.5" y="-175.5" font-family="Helvetica,sans-Serif" font-size="10.00">wld.h</text>
</a>
</g>
</g>
<!-- Node1&#45;&gt;Node7 -->
<g id="edge6" class="edge">
<title>Node1&#45;&gt;Node7</title>
<path fill="none" stroke="midnightblue" d="M2841.56,-336.32C2849.01,-315.78 2869.42,-262.99 2895.5,-224 2902.54,-213.48 2911.96,-202.96 2920,-194.74"/>
<polygon fill="midnightblue" stroke="midnightblue" points="2922.52,-197.16 2927.16,-187.63 2917.59,-192.19 2922.52,-197.16"/>
</g>
<!-- Node53 -->
<g id="node46" class="node">
<title>Node53</title>
<g id="a_node46"><a xlink:title=" ">
<polygon fill="white" stroke="#bfbfbf" points="0,-112.5 0,-131.5 97,-131.5 97,-112.5 0,-112.5"/>
<text text-anchor="middle" x="48.5" y="-119.5" font-family="Helvetica,sans-Serif" font-size="10.00">swl/swl_assert.h</text>
</a>
</g>
</g>
<!-- Node1&#45;&gt;Node53 -->
<g id="edge64" class="edge">
<title>Node1&#45;&gt;Node53</title>
<path fill="none" stroke="midnightblue" d="M2838.71,-336.11C2838.52,-321.71 2835.8,-293.52 2818.5,-280 2583.08,-96 450.11,-162.4 107.35,-132.01"/>
<polygon fill="midnightblue" stroke="midnightblue" points="107.57,-128.52 97.27,-131.04 106.89,-135.48 107.57,-128.52"/>
</g>
<!-- Node80 -->
<g id="node47" class="node">
<title>Node80</title>
<g id="a_node47"><a xlink:href="wld__util_8h.html" target="_top" xlink:title=" ">
<polygon fill="white" stroke="black" points="2904.5,-224.5 2904.5,-243.5 2968.5,-243.5 2968.5,-224.5 2904.5,-224.5"/>
<text text-anchor="middle" x="2936.5" y="-231.5" font-family="Helvetica,sans-Serif" font-size="10.00">wld_util.h</text>
</a>
</g>
</g>
<!-- Node1&#45;&gt;Node80 -->
<g id="edge55" class="edge">
<title>Node1&#45;&gt;Node80</title>
<path fill="none" stroke="midnightblue" d="M2849.96,-336.41C2860.99,-327.84 2877.83,-313.97 2890.5,-300 2903.95,-285.17 2916.91,-266.31 2925.62,-252.73"/>
<polygon fill="midnightblue" stroke="midnightblue" points="2928.81,-254.24 2931.16,-243.91 2922.88,-250.52 2928.81,-254.24"/>
</g>
<!-- Node81 -->
<g id="node48" class="node">
<title>Node81</title>
<g id="a_node48"><a xlink:href="wld__radio_8h.html" target="_top" xlink:title=" ">
<polygon fill="white" stroke="red" points="2956,-280.5 2956,-299.5 3029,-299.5 3029,-280.5 2956,-280.5"/>
<text text-anchor="middle" x="2992.5" y="-287.5" font-family="Helvetica,sans-Serif" font-size="10.00">wld_radio.h</text>
</a>
</g>
</g>
<!-- Node1&#45;&gt;Node81 -->
<g id="edge57" class="edge">
<title>Node1&#45;&gt;Node81</title>
<path fill="none" stroke="midnightblue" d="M2862.9,-336.44C2888.7,-327.4 2929.58,-313.06 2958.52,-302.92"/>
<polygon fill="midnightblue" stroke="midnightblue" points="2959.93,-306.13 2968.21,-299.52 2957.62,-299.52 2959.93,-306.13"/>
</g>
<!-- Node84 -->
<g id="node49" class="node">
<title>Node84</title>
<g id="a_node49"><a xlink:href="wld__radioOperatingStandards_8h.html" target="_top" xlink:title=" ">
<polygon fill="white" stroke="black" points="3024.5,-224.5 3024.5,-243.5 3194.5,-243.5 3194.5,-224.5 3024.5,-224.5"/>
<text text-anchor="middle" x="3109.5" y="-231.5" font-family="Helvetica,sans-Serif" font-size="10.00">wld_radioOperatingStandards.h</text>
</a>
</g>
</g>
<!-- Node1&#45;&gt;Node84 -->
<g id="edge65" class="edge">
<title>Node1&#45;&gt;Node84</title>
<path fill="none" stroke="midnightblue" d="M2919.69,-336.49C2957.41,-330.14 3001.91,-319.11 3038.5,-300 3061.53,-287.97 3082.78,-266.58 3095.91,-251.63"/>
<polygon fill="midnightblue" stroke="midnightblue" points="3098.85,-253.58 3102.66,-243.69 3093.51,-249.05 3098.85,-253.58"/>
</g>
<!-- Node88 -->
<g id="node50" class="node">
<title>Node88</title>
<g id="a_node50"><a xlink:href="wld__autoCommitMgr_8h.html" target="_top" xlink:title=" ">
<polygon fill="white" stroke="black" points="3085.5,-280.5 3085.5,-299.5 3237.5,-299.5 3237.5,-280.5 3085.5,-280.5"/>
<text text-anchor="middle" x="3161.5" y="-287.5" font-family="Helvetica,sans-Serif" font-size="10.00">Utils/wld_autoCommitMgr.h</text>
</a>
</g>
</g>
<!-- Node1&#45;&gt;Node88 -->
<g id="edge63" class="edge">
<title>Node1&#45;&gt;Node88</title>
<path fill="none" stroke="midnightblue" d="M2889.68,-336.44C2946.97,-326.87 3039.74,-311.36 3100.69,-301.17"/>
<polygon fill="midnightblue" stroke="midnightblue" points="3101.27,-304.62 3110.56,-299.52 3100.12,-297.71 3101.27,-304.62"/>
</g>
<!-- Node8 -->
<g id="node8" class="node">
<title>Node8</title>
<g id="a_node8"><a xlink:title=" ">
<polygon fill="white" stroke="#bfbfbf" points="4631.5,-56.5 4631.5,-75.5 4693.5,-75.5 4693.5,-56.5 4631.5,-56.5"/>
<text text-anchor="middle" x="4662.5" y="-63.5" font-family="Helvetica,sans-Serif" font-size="10.00">stdbool.h</text>
</a>
</g>
</g>
<!-- Node7&#45;&gt;Node8 -->
<g id="edge7" class="edge">
<title>Node7&#45;&gt;Node8</title>
<path fill="none" stroke="midnightblue" d="M2958.23,-176.78C3154.07,-174.78 4608.46,-159 4643.5,-132 4657.3,-121.37 4661.49,-101.26 4662.57,-86.21"/>
<polygon fill="midnightblue" stroke="midnightblue" points="4666.08,-86.04 4662.9,-75.93 4659.08,-85.81 4666.08,-86.04"/>
</g>
<!-- Node9 -->
<g id="node9" class="node">
<title>Node9</title>
<g id="a_node9"><a xlink:title=" ">
<polygon fill="white" stroke="#bfbfbf" points="3382,-0.5 3382,-19.5 3435,-19.5 3435,-0.5 3382,-0.5"/>
<text text-anchor="middle" x="3408.5" y="-7.5" font-family="Helvetica,sans-Serif" font-size="10.00">stdint.h</text>
</a>
</g>
</g>
<!-- Node7&#45;&gt;Node9 -->
<g id="edge8" class="edge">
<title>Node7&#45;&gt;Node9</title>
<path fill="none" stroke="midnightblue" d="M2958.26,-176.44C3028.24,-174.33 3246.51,-165.16 3307.5,-132 3351.63,-108.01 3384.4,-56.22 3399.41,-28.82"/>
<polygon fill="midnightblue" stroke="midnightblue" points="3402.7,-30.1 3404.29,-19.63 3396.51,-26.83 3402.7,-30.1"/>
</g>
<!-- Node10 -->
<g id="node10" class="node">
<title>Node10</title>
<g id="a_node10"><a xlink:title=" ">
<polygon fill="white" stroke="#bfbfbf" points="4126.5,-112.5 4126.5,-131.5 4236.5,-131.5 4236.5,-112.5 4126.5,-112.5"/>
<text text-anchor="middle" x="4181.5" y="-119.5" font-family="Helvetica,sans-Serif" font-size="10.00">swl/swl_common.h</text>
</a>
</g>
</g>
<!-- Node7&#45;&gt;Node10 -->
<g id="edge9" class="edge">
<title>Node7&#45;&gt;Node10</title>
<path fill="none" stroke="midnightblue" d="M2958.19,-176.91C3075.64,-176.26 3647.28,-171.16 4112.5,-132 4113.61,-131.91 4114.74,-131.81 4115.87,-131.7"/>
<polygon fill="midnightblue" stroke="midnightblue" points="4116.59,-135.15 4126.19,-130.67 4115.89,-128.18 4116.59,-135.15"/>
</g>
<!-- Node11 -->
<g id="node11" class="node">
<title>Node11</title>
<g id="a_node11"><a xlink:title=" ">
<polygon fill="white" stroke="#bfbfbf" points="4254.5,-112.5 4254.5,-131.5 4390.5,-131.5 4390.5,-112.5 4254.5,-112.5"/>
<text text-anchor="middle" x="4322.5" y="-119.5" font-family="Helvetica,sans-Serif" font-size="10.00">swla/swla_commonLib.h</text>
</a>
</g>
</g>
<!-- Node7&#45;&gt;Node11 -->
<g id="edge10" class="edge">
<title>Node7&#45;&gt;Node11</title>
<path fill="none" stroke="midnightblue" d="M2958.13,-176.92C3082.16,-176.33 3715.87,-171.44 4243.99,-132.05"/>
<polygon fill="midnightblue" stroke="midnightblue" points="4244.38,-135.53 4254.09,-131.29 4243.86,-128.55 4244.38,-135.53"/>
</g>
<!-- Node12 -->
<g id="node12" class="node">
<title>Node12</title>
<g id="a_node12"><a xlink:title=" ">
<polygon fill="white" stroke="#bfbfbf" points="4408.5,-112.5 4408.5,-131.5 4496.5,-131.5 4496.5,-112.5 4408.5,-112.5"/>
<text text-anchor="middle" x="4452.5" y="-119.5" font-family="Helvetica,sans-Serif" font-size="10.00">swl/swl_uuid.h</text>
</a>
</g>
</g>
<!-- Node7&#45;&gt;Node12 -->
<g id="edge11" class="edge">
<title>Node7&#45;&gt;Node12</title>
<path fill="none" stroke="midnightblue" d="M2958.17,-176.74C3115.18,-174.82 4081.16,-161.95 4398.22,-131.95"/>
<polygon fill="midnightblue" stroke="midnightblue" points="4398.7,-135.42 4408.32,-130.97 4398.02,-128.46 4398.7,-135.42"/>
</g>
<!-- Node13 -->
<g id="node13" class="node">
<title>Node13</title>
<g id="a_node13"><a xlink:title=" ">
<polygon fill="white" stroke="#bfbfbf" points="4690.5,-112.5 4690.5,-131.5 4842.5,-131.5 4842.5,-112.5 4690.5,-112.5"/>
<text text-anchor="middle" x="4766.5" y="-119.5" font-family="Helvetica,sans-Serif" font-size="10.00">swla/swla_radioStandards.h</text>
</a>
</g>
</g>
<!-- Node7&#45;&gt;Node13 -->
<g id="edge12" class="edge">
<title>Node7&#45;&gt;Node13</title>
<path fill="none" stroke="midnightblue" d="M2958.14,-177.04C3105.13,-177.22 3972.29,-176.26 4676.5,-132 4677.78,-131.92 4679.07,-131.84 4680.36,-131.75"/>
<polygon fill="midnightblue" stroke="midnightblue" points="4680.71,-135.23 4690.42,-131.01 4680.19,-128.25 4680.71,-135.23"/>
</g>
<!-- Node14 -->
<g id="node14" class="node">
<title>Node14</title>
<g id="a_node14"><a xlink:title=" ">
<polygon fill="white" stroke="#bfbfbf" points="4048,-0.5 4048,-19.5 4149,-19.5 4149,-0.5 4048,-0.5"/>
<text text-anchor="middle" x="4098.5" y="-7.5" font-family="Helvetica,sans-Serif" font-size="10.00">swla/swla_time.h</text>
</a>
</g>
</g>
<!-- Node7&#45;&gt;Node14 -->
<g id="edge13" class="edge">
<title>Node7&#45;&gt;Node14</title>
<path fill="none" stroke="midnightblue" d="M2958.41,-176.92C3113.12,-176.26 4036.01,-170.7 4079.5,-132 4108.13,-106.52 4105.86,-56.93 4102.01,-29.82"/>
<polygon fill="midnightblue" stroke="midnightblue" points="4105.43,-29.01 4100.35,-19.71 4098.52,-30.15 4105.43,-29.01"/>
</g>
<!-- Node15 -->
<g id="node15" class="node">
<title>Node15</title>
<g id="a_node15"><a xlink:title=" ">
<polygon fill="white" stroke="#bfbfbf" points="115,-112.5 115,-131.5 244,-131.5 244,-112.5 115,-112.5"/>
<text text-anchor="middle" x="179.5" y="-119.5" font-family="Helvetica,sans-Serif" font-size="10.00">swla/swla_time_spec.h</text>
</a>
</g>
</g>
<!-- Node7&#45;&gt;Node15 -->
<g id="edge14" class="edge">
<title>Node7&#45;&gt;Node15</title>
<path fill="none" stroke="midnightblue" d="M2914.79,-174.11C2897.86,-172 2873.73,-169.28 2852.5,-168 1702.76,-98.59 1407.82,-209.2 254.23,-131.95"/>
<polygon fill="midnightblue" stroke="midnightblue" points="254.25,-128.44 244.04,-131.26 253.78,-135.43 254.25,-128.44"/>
</g>
<!-- Node16 -->
<g id="node16" class="node">
<title>Node16</title>
<g id="a_node16"><a xlink:title=" ">
<polygon fill="white" stroke="#bfbfbf" points="262.5,-112.5 262.5,-131.5 356.5,-131.5 356.5,-112.5 262.5,-112.5"/>
<text text-anchor="middle" x="309.5" y="-119.5" font-family="Helvetica,sans-Serif" font-size="10.00">swla/swla_oui.h</text>
</a>
</g>
</g>
<!-- Node7&#45;&gt;Node16 -->
<g id="edge15" class="edge">
<title>Node7&#45;&gt;Node16</title>
<path fill="none" stroke="midnightblue" d="M2914.79,-174.12C2897.86,-172 2873.73,-169.29 2852.5,-168 2304.16,-134.73 933.01,-179.43 367.13,-131.98"/>
<polygon fill="midnightblue" stroke="midnightblue" points="367.06,-128.46 356.8,-131.09 366.46,-135.44 367.06,-128.46"/>
</g>
<!-- Node17 -->
<g id="node17" class="node">
<title>Node17</title>
<g id="a_node17"><a xlink:title=" ">
<polygon fill="white" stroke="#bfbfbf" points="374.5,-112.5 374.5,-131.5 502.5,-131.5 502.5,-112.5 374.5,-112.5"/>
<text text-anchor="middle" x="438.5" y="-119.5" font-family="Helvetica,sans-Serif" font-size="10.00">swla/swla_delayExec.h</text>
</a>
</g>
</g>
<!-- Node7&#45;&gt;Node17 -->
<g id="edge16" class="edge">
<title>Node7&#45;&gt;Node17</title>
<path fill="none" stroke="midnightblue" d="M2914.79,-174.12C2897.86,-172.01 2873.73,-169.3 2852.5,-168 1817.29,-104.72 1551.34,-203.11 512.88,-132"/>
<polygon fill="midnightblue" stroke="midnightblue" points="512.77,-128.49 502.56,-131.29 512.29,-135.47 512.77,-128.49"/>
</g>
<!-- Node18 -->
<g id="node18" class="node">
<title>Node18</title>
<g id="a_node18"><a xlink:title=" ">
<polygon fill="white" stroke="#bfbfbf" points="521,-112.5 521,-131.5 640,-131.5 640,-112.5 521,-112.5"/>
<text text-anchor="middle" x="580.5" y="-119.5" font-family="Helvetica,sans-Serif" font-size="10.00">swla/swla_function.h</text>
</a>
</g>
</g>
<!-- Node7&#45;&gt;Node18 -->
<g id="edge17" class="edge">
<title>Node7&#45;&gt;Node18</title>
<path fill="none" stroke="midnightblue" d="M2914.79,-174.13C2897.86,-172.02 2873.73,-169.31 2852.5,-168 1878.01,-107.96 1627.22,-203.73 650.24,-132.04"/>
<polygon fill="midnightblue" stroke="midnightblue" points="650.39,-128.54 640.16,-131.29 649.88,-135.52 650.39,-128.54"/>
</g>
<!-- Node19 -->
<g id="node19" class="node">
<title>Node19</title>
<g id="a_node19"><a xlink:title=" ">
<polygon fill="white" stroke="#bfbfbf" points="658,-112.5 658,-131.5 799,-131.5 799,-112.5 658,-112.5"/>
<text text-anchor="middle" x="728.5" y="-119.5" font-family="Helvetica,sans-Serif" font-size="10.00">swl/swl_usp_cmdStatus.h</text>
</a>
</g>
</g>
<!-- Node7&#45;&gt;Node19 -->
<g id="edge18" class="edge">
<title>Node7&#45;&gt;Node19</title>
<path fill="none" stroke="midnightblue" d="M2914.79,-174.14C2897.86,-172.03 2873.73,-169.32 2852.5,-168 1948.99,-111.75 1716.87,-190.27 809.17,-131.96"/>
<polygon fill="midnightblue" stroke="midnightblue" points="809.34,-128.47 799.14,-131.31 808.89,-135.45 809.34,-128.47"/>
</g>
<!-- Node20 -->
<g id="node20" class="node">
<title>Node20</title>
<g id="a_node20"><a xlink:title=" ">
<polygon fill="white" stroke="#bfbfbf" points="817.5,-112.5 817.5,-131.5 903.5,-131.5 903.5,-112.5 817.5,-112.5"/>
<text text-anchor="middle" x="860.5" y="-119.5" font-family="Helvetica,sans-Serif" font-size="10.00">swl/swl_wps.h</text>
</a>
</g>
</g>
<!-- Node7&#45;&gt;Node20 -->
<g id="edge19" class="edge">
<title>Node7&#45;&gt;Node20</title>
<path fill="none" stroke="midnightblue" d="M2914.79,-174.14C2897.85,-172.04 2873.73,-169.33 2852.5,-168 1995.18,-114.22 1772.72,-213 913.7,-131.94"/>
<polygon fill="midnightblue" stroke="midnightblue" points="913.85,-128.44 903.56,-130.97 913.19,-135.4 913.85,-128.44"/>
</g>
<!-- Node21 -->
<g id="node21" class="node">
<title>Node21</title>
<g id="a_node21"><a xlink:title=" ">
<polygon fill="white" stroke="#bfbfbf" points="921.5,-112.5 921.5,-131.5 1025.5,-131.5 1025.5,-112.5 921.5,-112.5"/>
<text text-anchor="middle" x="973.5" y="-119.5" font-family="Helvetica,sans-Serif" font-size="10.00">swl/swl_security.h</text>
</a>
</g>
</g>
<!-- Node7&#45;&gt;Node21 -->
<g id="edge20" class="edge">
<title>Node7&#45;&gt;Node21</title>
<path fill="none" stroke="midnightblue" d="M2914.79,-174.15C2897.85,-172.05 2873.72,-169.34 2852.5,-168 2049.31,-117.12 1841.59,-198.43 1035.8,-131.98"/>
<polygon fill="midnightblue" stroke="midnightblue" points="1035.95,-128.48 1025.69,-131.14 1035.37,-135.46 1035.95,-128.48"/>
</g>
<!-- Node22 -->
<g id="node22" class="node">
<title>Node22</title>
<g id="a_node22"><a xlink:title=" ">
<polygon fill="white" stroke="#bfbfbf" points="1044,-112.5 1044,-131.5 1127,-131.5 1127,-112.5 1044,-112.5"/>
<text text-anchor="middle" x="1085.5" y="-119.5" font-family="Helvetica,sans-Serif" font-size="10.00">amxc/amxc.h</text>
</a>
</g>
</g>
<!-- Node7&#45;&gt;Node22 -->
<g id="edge21" class="edge">
<title>Node7&#45;&gt;Node22</title>
<path fill="none" stroke="midnightblue" d="M2914.79,-174.16C2897.85,-172.06 2873.72,-169.36 2852.5,-168 2094.57,-119.54 1897.42,-205.74 1137.28,-131.88"/>
<polygon fill="midnightblue" stroke="midnightblue" points="1137.47,-128.38 1127.18,-130.89 1136.79,-135.35 1137.47,-128.38"/>
</g>
<!-- Node23 -->
<g id="node23" class="node">
<title>Node23</title>
<g id="a_node23"><a xlink:title=" ">
<polygon fill="white" stroke="#bfbfbf" points="1145.5,-112.5 1145.5,-131.5 1229.5,-131.5 1229.5,-112.5 1145.5,-112.5"/>
<text text-anchor="middle" x="1187.5" y="-119.5" font-family="Helvetica,sans-Serif" font-size="10.00">amxp/amxp.h</text>
</a>
</g>
</g>
<!-- Node7&#45;&gt;Node23 -->
<g id="edge22" class="edge">
<title>Node7&#45;&gt;Node23</title>
<path fill="none" stroke="midnightblue" d="M2914.79,-174.16C2897.85,-172.08 2873.72,-169.37 2852.5,-168 2139.8,-121.95 1954.25,-201.8 1239.76,-131.95"/>
<polygon fill="midnightblue" stroke="midnightblue" points="1240.03,-128.46 1229.73,-130.96 1239.34,-135.43 1240.03,-128.46"/>
</g>
<!-- Node24 -->
<g id="node24" class="node">
<title>Node24</title>
<g id="a_node24"><a xlink:title=" ">
<polygon fill="white" stroke="#bfbfbf" points="1247.5,-112.5 1247.5,-131.5 1387.5,-131.5 1387.5,-112.5 1247.5,-112.5"/>
<text text-anchor="middle" x="1317.5" y="-119.5" font-family="Helvetica,sans-Serif" font-size="10.00">amxd/amxd_parameter.h</text>
</a>
</g>
</g>
<!-- Node7&#45;&gt;Node24 -->
<g id="edge23" class="edge">
<title>Node7&#45;&gt;Node24</title>
<path fill="none" stroke="midnightblue" d="M2914.79,-174.18C2897.85,-172.1 2873.72,-169.4 2852.5,-168 2209.9,-125.7 2043.96,-176.16 1397.71,-132.01"/>
<polygon fill="midnightblue" stroke="midnightblue" points="1397.9,-128.52 1387.68,-131.32 1397.42,-135.5 1397.9,-128.52"/>
</g>
<!-- Node25 -->
<g id="node25" class="node">
<title>Node25</title>
<g id="a_node25"><a xlink:title=" ">
<polygon fill="white" stroke="#bfbfbf" points="1406,-112.5 1406,-131.5 1525,-131.5 1525,-112.5 1406,-112.5"/>
<text text-anchor="middle" x="1465.5" y="-119.5" font-family="Helvetica,sans-Serif" font-size="10.00">amxd/amxd_action.h</text>
</a>
</g>
</g>
<!-- Node7&#45;&gt;Node25 -->
<g id="edge24" class="edge">
<title>Node7&#45;&gt;Node25</title>
<path fill="none" stroke="midnightblue" d="M2914.79,-174.19C2897.85,-172.12 2873.72,-169.42 2852.5,-168 2270.8,-128.96 2119.86,-177.96 1535.54,-132.08"/>
<polygon fill="midnightblue" stroke="midnightblue" points="1535.41,-128.55 1525.17,-131.25 1534.86,-135.53 1535.41,-128.55"/>
</g>
<!-- Node26 -->
<g id="node26" class="node">
<title>Node26</title>
<g id="a_node26"><a xlink:title=" ">
<polygon fill="white" stroke="#bfbfbf" points="1543,-112.5 1543,-131.5 1718,-131.5 1718,-112.5 1543,-112.5"/>
<text text-anchor="middle" x="1630.5" y="-119.5" font-family="Helvetica,sans-Serif" font-size="10.00">amxd/amxd_object_parameter.h</text>
</a>
</g>
</g>
<!-- Node7&#45;&gt;Node26 -->
<g id="edge25" class="edge">
<title>Node7&#45;&gt;Node26</title>
<path fill="none" stroke="midnightblue" d="M2914.78,-174.22C2897.85,-172.17 2873.72,-169.47 2852.5,-168 2356.74,-133.56 2228.47,-162.73 1728.26,-132"/>
<polygon fill="midnightblue" stroke="midnightblue" points="1728.45,-128.51 1718.25,-131.38 1728.01,-135.49 1728.45,-128.51"/>
</g>
<!-- Node27 -->
<g id="node27" class="node">
<title>Node27</title>
<g id="a_node27"><a xlink:title=" ">
<polygon fill="white" stroke="#bfbfbf" points="1736.5,-112.5 1736.5,-131.5 1888.5,-131.5 1888.5,-112.5 1736.5,-112.5"/>
<text text-anchor="middle" x="1812.5" y="-119.5" font-family="Helvetica,sans-Serif" font-size="10.00">amxd/amxd_object_event.h</text>
</a>
</g>
</g>
<!-- Node7&#45;&gt;Node27 -->
<g id="edge26" class="edge">
<title>Node7&#45;&gt;Node27</title>
<path fill="none" stroke="midnightblue" d="M2914.78,-174.26C2897.84,-172.22 2873.71,-169.53 2852.5,-168 2432.17,-137.6 2322.86,-161.99 1899.01,-132.06"/>
<polygon fill="midnightblue" stroke="midnightblue" points="1899.16,-128.56 1888.93,-131.34 1898.66,-135.54 1899.16,-128.56"/>
</g>
<!-- Node28 -->
<g id="node28" class="node">
<title>Node28</title>
<g id="a_node28"><a xlink:title=" ">
<polygon fill="white" stroke="#bfbfbf" points="1907,-112.5 1907,-131.5 2036,-131.5 2036,-112.5 1907,-112.5"/>
<text text-anchor="middle" x="1971.5" y="-119.5" font-family="Helvetica,sans-Serif" font-size="10.00">amxd/amxd_function.h</text>
</a>
</g>
</g>
<!-- Node7&#45;&gt;Node28 -->
<g id="edge27" class="edge">
<title>Node7&#45;&gt;Node28</title>
<path fill="none" stroke="midnightblue" d="M2914.78,-174.3C2897.84,-172.28 2873.71,-169.61 2852.5,-168 2497.39,-141.09 2404.43,-161.63 2046.48,-132.1"/>
<polygon fill="midnightblue" stroke="midnightblue" points="2046.61,-128.6 2036.35,-131.26 2046.03,-135.58 2046.61,-128.6"/>
</g>
<!-- Node29 -->
<g id="node29" class="node">
<title>Node29</title>
<g id="a_node29"><a xlink:title=" ">
<polygon fill="white" stroke="#bfbfbf" points="2054,-112.5 2054,-131.5 2223,-131.5 2223,-112.5 2054,-112.5"/>
<text text-anchor="middle" x="2138.5" y="-119.5" font-family="Helvetica,sans-Serif" font-size="10.00">amxd/amxd_object_hierarchy.h</text>
</a>
</g>
</g>
<!-- Node7&#45;&gt;Node29 -->
<g id="edge28" class="edge">
<title>Node7&#45;&gt;Node29</title>
<path fill="none" stroke="midnightblue" d="M2914.77,-174.38C2897.83,-172.4 2873.69,-169.75 2852.5,-168 2580.34,-145.54 2508.88,-153.13 2233.44,-132.12"/>
<polygon fill="midnightblue" stroke="midnightblue" points="2233.37,-128.61 2223.14,-131.33 2232.84,-135.59 2233.37,-128.61"/>
</g>
<!-- Node30 -->
<g id="node30" class="node">
<title>Node30</title>
<g id="a_node30"><a xlink:title=" ">
<polygon fill="white" stroke="#bfbfbf" points="2241,-112.5 2241,-131.5 2360,-131.5 2360,-112.5 2241,-112.5"/>
<text text-anchor="middle" x="2300.5" y="-119.5" font-family="Helvetica,sans-Serif" font-size="10.00">amxd/amxd_object.h</text>
</a>
</g>
</g>
<!-- Node7&#45;&gt;Node30 -->
<g id="edge29" class="edge">
<title>Node7&#45;&gt;Node30</title>
<path fill="none" stroke="midnightblue" d="M2914.76,-174.48C2897.82,-172.55 2873.68,-169.92 2852.5,-168 2640.93,-148.8 2584.75,-153.99 2370.19,-132.12"/>
<polygon fill="midnightblue" stroke="midnightblue" points="2370.49,-128.64 2360.18,-131.1 2369.77,-135.6 2370.49,-128.64"/>
</g>
<!-- Node31 -->
<g id="node31" class="node">
<title>Node31</title>
<g id="a_node31"><a xlink:title=" ">
<polygon fill="white" stroke="#bfbfbf" points="2378,-112.5 2378,-131.5 2483,-131.5 2483,-112.5 2378,-112.5"/>
<text text-anchor="middle" x="2430.5" y="-119.5" font-family="Helvetica,sans-Serif" font-size="10.00">amxd/amxd_dm.h</text>
</a>
</g>
</g>
<!-- Node7&#45;&gt;Node31 -->
<g id="edge30" class="edge">
<title>Node7&#45;&gt;Node31</title>
<path fill="none" stroke="midnightblue" d="M2914.75,-174.63C2897.79,-172.79 2873.65,-170.19 2852.5,-168 2695.84,-151.77 2653.81,-151.56 2493.47,-132.07"/>
<polygon fill="midnightblue" stroke="midnightblue" points="2493.59,-128.56 2483.24,-130.82 2492.75,-135.51 2493.59,-128.56"/>
</g>
<!-- Node32 -->
<g id="node32" class="node">
<title>Node32</title>
<g id="a_node32"><a xlink:title=" ">
<polygon fill="white" stroke="#bfbfbf" points="2501.5,-112.5 2501.5,-131.5 2645.5,-131.5 2645.5,-112.5 2501.5,-112.5"/>
<text text-anchor="middle" x="2573.5" y="-119.5" font-family="Helvetica,sans-Serif" font-size="10.00">amxd/amxd_transaction.h</text>
</a>
</g>
</g>
<!-- Node7&#45;&gt;Node32 -->
<g id="edge31" class="edge">
<title>Node7&#45;&gt;Node32</title>
<path fill="none" stroke="midnightblue" d="M2914.88,-173.78C2861.93,-165.91 2724.02,-145.39 2640.58,-132.98"/>
<polygon fill="midnightblue" stroke="midnightblue" points="2641.09,-129.52 2630.69,-131.51 2640.06,-136.44 2641.09,-129.52"/>
</g>
<!-- Node33 -->
<g id="node33" class="node">
<title>Node33</title>
<g id="a_node33"><a xlink:title=" ">
<polygon fill="white" stroke="#bfbfbf" points="2663.5,-112.5 2663.5,-131.5 2779.5,-131.5 2779.5,-112.5 2663.5,-112.5"/>
<text text-anchor="middle" x="2721.5" y="-119.5" font-family="Helvetica,sans-Serif" font-size="10.00">amxb/amxb_types.h</text>
</a>
</g>
</g>
<!-- Node7&#45;&gt;Node33 -->
<g id="edge32" class="edge">
<title>Node7&#45;&gt;Node33</title>
<path fill="none" stroke="midnightblue" d="M2914.7,-171.53C2879.86,-162.78 2810.95,-145.47 2765.55,-134.06"/>
<polygon fill="midnightblue" stroke="midnightblue" points="2766.23,-130.63 2755.68,-131.59 2764.53,-137.42 2766.23,-130.63"/>
</g>
<!-- Node34 -->
<g id="node34" class="node">
<title>Node34</title>
<g id="a_node34"><a xlink:title=" ">
<polygon fill="white" stroke="#bfbfbf" points="2797.5,-112.5 2797.5,-131.5 2933.5,-131.5 2933.5,-112.5 2797.5,-112.5"/>
<text text-anchor="middle" x="2865.5" y="-119.5" font-family="Helvetica,sans-Serif" font-size="10.00">amxb/amxb_operators.h</text>
</a>
</g>
</g>
<!-- Node7&#45;&gt;Node34 -->
<g id="edge33" class="edge">
<title>Node7&#45;&gt;Node34</title>
<path fill="none" stroke="midnightblue" d="M2925.09,-168.32C2914.39,-160.18 2898.16,-147.84 2885.34,-138.09"/>
<polygon fill="midnightblue" stroke="midnightblue" points="2887.19,-135.1 2877.11,-131.83 2882.96,-140.67 2887.19,-135.1"/>
</g>
<!-- Node35 -->
<g id="node35" class="node">
<title>Node35</title>
<g id="a_node35"><a xlink:title=" ">
<polygon fill="white" stroke="#bfbfbf" points="2951.5,-112.5 2951.5,-131.5 3063.5,-131.5 3063.5,-112.5 2951.5,-112.5"/>
<text text-anchor="middle" x="3007.5" y="-119.5" font-family="Helvetica,sans-Serif" font-size="10.00">amxb/amxb_error.h</text>
</a>
</g>
</g>
<!-- Node7&#45;&gt;Node35 -->
<g id="edge34" class="edge">
<title>Node7&#45;&gt;Node35</title>
<path fill="none" stroke="midnightblue" d="M2947.91,-168.32C2958.61,-160.18 2974.84,-147.84 2987.66,-138.09"/>
<polygon fill="midnightblue" stroke="midnightblue" points="2990.04,-140.67 2995.89,-131.83 2985.81,-135.1 2990.04,-140.67"/>
</g>
<!-- Node36 -->
<g id="node36" class="node">
<title>Node36</title>
<g id="a_node36"><a xlink:title=" ">
<polygon fill="white" stroke="#bfbfbf" points="3082,-112.5 3082,-131.5 3165,-131.5 3165,-112.5 3082,-112.5"/>
<text text-anchor="middle" x="3123.5" y="-119.5" font-family="Helvetica,sans-Serif" font-size="10.00">amxo/amxo.h</text>
</a>
</g>
</g>
<!-- Node7&#45;&gt;Node36 -->
<g id="edge35" class="edge">
<title>Node7&#45;&gt;Node36</title>
<path fill="none" stroke="midnightblue" d="M2958.32,-170.7C2989.09,-161.81 3045.77,-145.45 3084.05,-134.39"/>
<polygon fill="midnightblue" stroke="midnightblue" points="3085.2,-137.7 3093.83,-131.57 3083.26,-130.98 3085.2,-137.7"/>
</g>
<!-- Node37 -->
<g id="node37" class="node">
<title>Node37</title>
<g id="a_node37"><a xlink:title=" ">
<polygon fill="white" stroke="#bfbfbf" points="3183,-112.5 3183,-131.5 3298,-131.5 3298,-112.5 3183,-112.5"/>
<text text-anchor="middle" x="3240.5" y="-119.5" font-family="Helvetica,sans-Serif" font-size="10.00">amxo/amxo_types.h</text>
</a>
</g>
</g>
<!-- Node7&#45;&gt;Node37 -->
<g id="edge36" class="edge">
<title>Node7&#45;&gt;Node37</title>
<path fill="none" stroke="midnightblue" d="M2958.36,-173.12C3004.72,-164.88 3114.21,-145.43 3182.36,-133.33"/>
<polygon fill="midnightblue" stroke="midnightblue" points="3183.27,-136.72 3192.51,-131.52 3182.05,-129.83 3183.27,-136.72"/>
</g>
<!-- Node38 -->
<g id="node38" class="node">
<title>Node38</title>
<g id="a_node38"><a xlink:href="wld__types_8h.html" target="_top" xlink:title=" ">
<polygon fill="white" stroke="red" points="3534,-56.5 3534,-75.5 3609,-75.5 3609,-56.5 3534,-56.5"/>
<text text-anchor="middle" x="3571.5" y="-63.5" font-family="Helvetica,sans-Serif" font-size="10.00">wld_types.h</text>
</a>
</g>
</g>
<!-- Node7&#45;&gt;Node38 -->
<g id="edge37" class="edge">
<title>Node7&#45;&gt;Node38</title>
<path fill="none" stroke="midnightblue" d="M2958.41,-176.96C3019.87,-176.35 3198.64,-171.07 3340.5,-132 3361.21,-126.3 3364.19,-118.99 3384.5,-112 3430.88,-96.04 3485.59,-83.58 3523.81,-75.86"/>
<polygon fill="midnightblue" stroke="midnightblue" points="3524.52,-79.29 3533.65,-73.9 3523.15,-72.42 3524.52,-79.29"/>
</g>
<!-- Node41 -->
<g id="node39" class="node">
<title>Node41</title>
<g id="a_node39"><a xlink:href="wld__channel__types_8h.html" target="_top" xlink:title=" ">
<polygon fill="white" stroke="red" points="4515,-112.5 4515,-131.5 4634,-131.5 4634,-112.5 4515,-112.5"/>
<text text-anchor="middle" x="4574.5" y="-119.5" font-family="Helvetica,sans-Serif" font-size="10.00">wld_channel_types.h</text>
</a>
</g>
</g>
<!-- Node7&#45;&gt;Node41 -->
<g id="edge40" class="edge">
<title>Node7&#45;&gt;Node41</title>
<path fill="none" stroke="midnightblue" d="M2958.22,-177.2C3096.31,-178.32 3866.25,-182.03 4504.37,-131.99"/>
<polygon fill="midnightblue" stroke="midnightblue" points="4505.01,-135.45 4514.7,-131.18 4504.46,-128.47 4505.01,-135.45"/>
</g>
<!-- Node43 -->
<g id="node40" class="node">
<title>Node43</title>
<g id="a_node40"><a xlink:href="wld__bgdfs_8h.html" target="_top" xlink:title=" ">
<polygon fill="white" stroke="black" points="3393,-112.5 3393,-131.5 3468,-131.5 3468,-112.5 3393,-112.5"/>
<text text-anchor="middle" x="3430.5" y="-119.5" font-family="Helvetica,sans-Serif" font-size="10.00">wld_bgdfs.h</text>
</a>
</g>
</g>
<!-- Node7&#45;&gt;Node43 -->
<g id="edge43" class="edge">
<title>Node7&#45;&gt;Node43</title>
<path fill="none" stroke="midnightblue" d="M2958.18,-175.33C3022.48,-170.27 3217.64,-154.08 3378.5,-132 3379.8,-131.82 3381.12,-131.63 3382.45,-131.44"/>
<polygon fill="midnightblue" stroke="midnightblue" points="3383.43,-134.83 3392.77,-129.85 3382.36,-127.91 3383.43,-134.83"/>
</g>
<!-- Node44 -->
<g id="node41" class="node">
<title>Node44</title>
<g id="a_node41"><a xlink:href="wld__rad__delayMgr_8h.html" target="_top" xlink:title=" ">
<polygon fill="white" stroke="black" points="3486.5,-112.5 3486.5,-131.5 3600.5,-131.5 3600.5,-112.5 3486.5,-112.5"/>
<text text-anchor="middle" x="3543.5" y="-119.5" font-family="Helvetica,sans-Serif" font-size="10.00">wld_rad_delayMgr.h</text>
</a>
</g>
</g>
<!-- Node7&#45;&gt;Node44 -->
<g id="edge45" class="edge">
<title>Node7&#45;&gt;Node44</title>
<path fill="none" stroke="midnightblue" d="M2958.23,-175.35C3030.92,-170.23 3270.59,-153.71 3468.5,-132 3471.01,-131.72 3473.58,-131.43 3476.18,-131.12"/>
<polygon fill="midnightblue" stroke="midnightblue" points="3476.8,-134.57 3486.3,-129.88 3475.95,-127.62 3476.8,-134.57"/>
</g>
<!-- Node45 -->
<g id="node42" class="node">
<title>Node45</title>
<g id="a_node42"><a xlink:href="wld__fsm_8h.html" target="_top" xlink:title=" ">
<polygon fill="white" stroke="black" points="3619,-112.5 3619,-131.5 3686,-131.5 3686,-112.5 3619,-112.5"/>
<text text-anchor="middle" x="3652.5" y="-119.5" font-family="Helvetica,sans-Serif" font-size="10.00">wld_fsm.h</text>
</a>
</g>
</g>
<!-- Node7&#45;&gt;Node45 -->
<g id="edge47" class="edge">
<title>Node7&#45;&gt;Node45</title>
<path fill="none" stroke="midnightblue" d="M2958.11,-176.65C3041.05,-175.08 3346.95,-167.19 3608.7,-131.9"/>
<polygon fill="midnightblue" stroke="midnightblue" points="3609.34,-135.34 3618.78,-130.52 3608.39,-128.41 3609.34,-135.34"/>
</g>
<!-- Node46 -->
<g id="node43" class="node">
<title>Node46</title>
<g id="a_node43"><a xlink:href="wld__sensing_8h.html" target="_top" xlink:title=" ">
<polygon fill="white" stroke="black" points="3704.5,-112.5 3704.5,-131.5 3790.5,-131.5 3790.5,-112.5 3704.5,-112.5"/>
<text text-anchor="middle" x="3747.5" y="-119.5" font-family="Helvetica,sans-Serif" font-size="10.00">wld_sensing.h</text>
</a>
</g>
</g>
<!-- Node7&#45;&gt;Node46 -->
<g id="edge49" class="edge">
<title>Node7&#45;&gt;Node46</title>
<path fill="none" stroke="midnightblue" d="M2958.12,-176.54C3048.03,-174.55 3399.33,-165.26 3686.5,-132 3689.01,-131.71 3691.58,-131.38 3694.18,-131.02"/>
<polygon fill="midnightblue" stroke="midnightblue" points="3694.94,-134.44 3704.31,-129.5 3693.9,-127.52 3694.94,-134.44"/>
</g>
<!-- Node47 -->
<g id="node44" class="node">
<title>Node47</title>
<g id="a_node44"><a xlink:href="wld__mld_8h.html" target="_top" xlink:title=" ">
<polygon fill="white" stroke="black" points="3809,-112.5 3809,-131.5 3876,-131.5 3876,-112.5 3809,-112.5"/>
<text text-anchor="middle" x="3842.5" y="-119.5" font-family="Helvetica,sans-Serif" font-size="10.00">wld_mld.h</text>
</a>
</g>
</g>
<!-- Node7&#45;&gt;Node47 -->
<g id="edge51" class="edge">
<title>Node7&#45;&gt;Node47</title>
<path fill="none" stroke="midnightblue" d="M2958.29,-177.1C3055.41,-177.27 3458.62,-175.29 3798.74,-131.87"/>
<polygon fill="midnightblue" stroke="midnightblue" points="3799.31,-135.32 3808.78,-130.57 3798.42,-128.38 3799.31,-135.32"/>
</g>
<!-- Node48 -->
<g id="node45" class="node">
<title>Node48</title>
<g id="a_node45"><a xlink:href="wld__autoCommitRadData_8h.html" target="_top" xlink:title=" ">
<polygon fill="white" stroke="black" points="3894.5,-112.5 3894.5,-131.5 4070.5,-131.5 4070.5,-112.5 3894.5,-112.5"/>
<text text-anchor="middle" x="3982.5" y="-119.5" font-family="Helvetica,sans-Serif" font-size="10.00">Utils/wld_autoCommitRadData.h</text>
</a>
</g>
</g>
<!-- Node7&#45;&gt;Node48 -->
<g id="edge53" class="edge">
<title>Node7&#45;&gt;Node48</title>
<path fill="none" stroke="midnightblue" d="M2958.25,-176.33C3060.84,-173.11 3506.94,-158.23 3884.46,-132.04"/>
<polygon fill="midnightblue" stroke="midnightblue" points="3884.75,-135.53 3894.49,-131.34 3884.27,-128.55 3884.75,-135.53"/>
</g>
<!-- Node7&#45;&gt;Node53 -->
<g id="edge54" class="edge">
<title>Node7&#45;&gt;Node53</title>
<path fill="none" stroke="midnightblue" d="M2914.79,-174.11C2897.86,-171.99 2873.73,-169.27 2852.5,-168 2246.37,-131.64 730.2,-183.18 107.27,-132.01"/>
<polygon fill="midnightblue" stroke="midnightblue" points="107.52,-128.52 97.26,-131.17 106.93,-135.49 107.52,-128.52"/>
</g>
<!-- Node38&#45;&gt;Node9 -->
<g id="edge38" class="edge">
<title>Node38&#45;&gt;Node9</title>
<path fill="none" stroke="midnightblue" d="M3545.67,-56.44C3518.25,-47.36 3474.72,-32.94 3444.07,-22.78"/>
<polygon fill="midnightblue" stroke="midnightblue" points="3444.8,-19.34 3434.21,-19.52 3442.6,-25.98 3444.8,-19.34"/>
</g>
<!-- Node38&#45;&gt;Node14 -->
<g id="edge39" class="edge">
<title>Node38&#45;&gt;Node14</title>
<path fill="none" stroke="midnightblue" d="M3609.4,-61.12C3699.6,-51.87 3927.65,-28.51 4037.5,-17.25"/>
<polygon fill="midnightblue" stroke="midnightblue" points="4038.16,-20.7 4047.76,-16.2 4037.45,-13.74 4038.16,-20.7"/>
</g>
<!-- Node41&#45;&gt;Node8 -->
<g id="edge41" class="edge">
<title>Node41&#45;&gt;Node8</title>
<path fill="none" stroke="midnightblue" d="M4588.64,-112.32C4602.37,-103.9 4623.44,-90.97 4639.56,-81.07"/>
<polygon fill="midnightblue" stroke="midnightblue" points="4641.7,-83.87 4648.4,-75.65 4638.04,-77.9 4641.7,-83.87"/>
</g>
<!-- Node41&#45;&gt;Node14 -->
<g id="edge42" class="edge">
<title>Node41&#45;&gt;Node14</title>
<path fill="none" stroke="midnightblue" d="M4537.55,-112.46C4451.87,-92.66 4239.82,-43.66 4145.29,-21.81"/>
<polygon fill="midnightblue" stroke="midnightblue" points="4145.96,-18.38 4135.43,-19.53 4144.39,-25.2 4145.96,-18.38"/>
</g>
<!-- Node43&#45;&gt;Node38 -->
<g id="edge44" class="edge">
<title>Node43&#45;&gt;Node38</title>
<path fill="none" stroke="midnightblue" d="M3452.84,-112.44C3476.25,-103.48 3513.24,-89.31 3539.69,-79.18"/>
<polygon fill="midnightblue" stroke="midnightblue" points="3541.18,-82.36 3549.26,-75.52 3538.67,-75.82 3541.18,-82.36"/>
</g>
<!-- Node44&#45;&gt;Node7 -->
<g id="edge46" class="edge">
<title>Node44&#45;&gt;Node7</title>
<path fill="none" stroke="midnightblue" d="M3490.68,-131.53C3489.27,-131.69 3487.88,-131.85 3486.5,-132 3290.19,-153.53 3052.8,-169.96 2968.16,-175.22"/>
<polygon fill="midnightblue" stroke="midnightblue" points="2967.92,-171.73 2958.15,-175.83 2968.35,-178.71 2967.92,-171.73"/>
</g>
<!-- Node45&#45;&gt;Node38 -->
<g id="edge48" class="edge">
<title>Node45&#45;&gt;Node38</title>
<path fill="none" stroke="midnightblue" d="M3639.49,-112.32C3626.97,-103.98 3607.82,-91.21 3593.03,-81.35"/>
<polygon fill="midnightblue" stroke="midnightblue" points="3594.74,-78.29 3584.48,-75.65 3590.86,-84.11 3594.74,-78.29"/>
</g>
<!-- Node46&#45;&gt;Node7 -->
<g id="edge50" class="edge">
<title>Node46&#45;&gt;Node7</title>
<path fill="none" stroke="midnightblue" d="M3708.36,-131.53C3707.06,-131.69 3705.77,-131.85 3704.5,-132 3420.5,-164.89 3073.77,-174.34 2968.29,-176.47"/>
<polygon fill="midnightblue" stroke="midnightblue" points="2967.94,-172.97 2958.01,-176.67 2968.08,-179.97 2967.94,-172.97"/>
</g>
<!-- Node47&#45;&gt;Node38 -->
<g id="edge52" class="edge">
<title>Node47&#45;&gt;Node38</title>
<path fill="none" stroke="midnightblue" d="M3808.71,-113.89C3805.59,-113.25 3802.49,-112.61 3799.5,-112 3737.2,-99.33 3665.2,-85.21 3619.06,-76.22"/>
<polygon fill="midnightblue" stroke="midnightblue" points="3619.53,-72.75 3609.05,-74.27 3618.19,-79.62 3619.53,-72.75"/>
</g>
<!-- Node80&#45;&gt;Node7 -->
<g id="edge56" class="edge">
<title>Node80&#45;&gt;Node7</title>
<path fill="none" stroke="midnightblue" d="M2936.5,-224.08C2936.5,-217.01 2936.5,-206.86 2936.5,-197.99"/>
<polygon fill="midnightblue" stroke="midnightblue" points="2940,-197.75 2936.5,-187.75 2933,-197.75 2940,-197.75"/>
</g>
<!-- Node81&#45;&gt;Node7 -->
<g id="edge58" class="edge">
<title>Node81&#45;&gt;Node7</title>
<path fill="none" stroke="midnightblue" d="M2991.88,-280.1C2990.66,-267.1 2987.18,-242.46 2977.5,-224 2971.7,-212.93 2962.51,-202.49 2954.3,-194.46"/>
<polygon fill="midnightblue" stroke="midnightblue" points="2956.58,-191.8 2946.88,-187.55 2951.82,-196.92 2956.58,-191.8"/>
</g>
<!-- Node81&#45;&gt;Node84 -->
<g id="edge59" class="edge">
<title>Node81&#45;&gt;Node84</title>
<path fill="none" stroke="midnightblue" d="M3011.04,-280.44C3030.12,-271.64 3060.07,-257.81 3081.94,-247.72"/>
<polygon fill="midnightblue" stroke="midnightblue" points="3083.43,-250.88 3091.05,-243.52 3080.5,-244.53 3083.43,-250.88"/>
</g>
<!-- Node84&#45;&gt;Node7 -->
<g id="edge62" class="edge">
<title>Node84&#45;&gt;Node7</title>
<path fill="none" stroke="midnightblue" d="M3082.09,-224.44C3051.05,-214.76 3000.58,-199 2967.96,-188.82"/>
<polygon fill="midnightblue" stroke="midnightblue" points="2968.63,-185.36 2958.05,-185.73 2966.55,-192.05 2968.63,-185.36"/>
</g>
<!-- Node84&#45;&gt;Node8 -->
<g id="edge60" class="edge">
<title>Node84&#45;&gt;Node8</title>
<path fill="none" stroke="midnightblue" d="M3194.79,-231.29C3536.95,-224.02 4794.4,-193.21 4851.5,-132 4896.19,-84.09 4772.15,-71.5 4703.96,-68.18"/>
<polygon fill="midnightblue" stroke="midnightblue" points="4704.08,-64.68 4693.93,-67.74 4703.77,-71.68 4704.08,-64.68"/>
</g>
<!-- Node84&#45;&gt;Node13 -->
<g id="edge61" class="edge">
<title>Node84&#45;&gt;Node13</title>
<path fill="none" stroke="midnightblue" d="M3194.51,-228.58C3430.11,-216.1 4111.37,-178.45 4676.5,-132 4677.78,-131.9 4679.06,-131.79 4680.36,-131.68"/>
<polygon fill="midnightblue" stroke="midnightblue" points="4680.75,-135.16 4690.41,-130.8 4680.14,-128.18 4680.75,-135.16"/>
</g>
</g>
</svg>
