<?xml version="1.0" encoding="UTF-8" standalone="no"?>
<!DOCTYPE svg PUBLIC "-//W3C//DTD SVG 1.1//EN"
 "http://www.w3.org/Graphics/SVG/1.1/DTD/svg11.dtd">
<!-- Generated by graphviz version 2.43.0 (0)
 -->
<!-- Title: wld_rad_nl80211_getAirStatsFromSurveyInfo Pages: 1 -->
<svg width="568pt" height="78pt"
 viewBox="0.00 0.00 568.00 77.50" xmlns="http://www.w3.org/2000/svg" xmlns:xlink="http://www.w3.org/1999/xlink">
<g id="graph0" class="graph" transform="scale(1 1) rotate(0) translate(4 73.5)">
<title>wld_rad_nl80211_getAirStatsFromSurveyInfo</title>
<polygon fill="white" stroke="transparent" points="-4,4 -4,-73.5 564,-73.5 564,4 -4,4"/>
<!-- Node1 -->
<g id="node1" class="node">
<title>Node1</title>
<g id="a_node1"><a xlink:title=" ">
<polygon fill="#bfbfbf" stroke="black" points="402,-22.5 402,-52.5 560,-52.5 560,-22.5 402,-22.5"/>
<text text-anchor="start" x="410" y="-40.5" font-family="Helvetica,sans-Serif" font-size="10.00">wld_rad_nl80211_getAirStats</text>
<text text-anchor="middle" x="481" y="-29.5" font-family="Helvetica,sans-Serif" font-size="10.00">FromSurveyInfo</text>
</a>
</g>
</g>
<!-- Node2 -->
<g id="node2" class="node">
<title>Node2</title>
<g id="a_node2"><a xlink:href="wld__rad__nl80211_8c.html#a6fe347344e38456f156665255d93b4a0" target="_top" xlink:title=" ">
<polygon fill="white" stroke="black" points="202.5,-50 202.5,-69 360.5,-69 360.5,-50 202.5,-50"/>
<text text-anchor="middle" x="281.5" y="-57" font-family="Helvetica,sans-Serif" font-size="10.00">wld_rad_nl80211_getAirstats</text>
</a>
</g>
</g>
<!-- Node1&#45;&gt;Node2 -->
<g id="edge1" class="edge">
<title>Node1&#45;&gt;Node2</title>
<path fill="none" stroke="midnightblue" d="M391.99,-47.3C381.54,-48.47 370.93,-49.65 360.64,-50.8"/>
<polygon fill="midnightblue" stroke="midnightblue" points="392.39,-50.78 401.94,-46.19 391.62,-43.82 392.39,-50.78"/>
</g>
<!-- Node4 -->
<g id="node4" class="node">
<title>Node4</title>
<g id="a_node4"><a xlink:href="wld__rad__nl80211_8c.html#a27e046bcc6b8d56984848349fe978e99" target="_top" xlink:title=" ">
<polygon fill="white" stroke="black" points="197,-0.5 197,-30.5 366,-30.5 366,-0.5 197,-0.5"/>
<text text-anchor="start" x="205" y="-18.5" font-family="Helvetica,sans-Serif" font-size="10.00">wld_rad_nl80211_updateUsage</text>
<text text-anchor="middle" x="281.5" y="-7.5" font-family="Helvetica,sans-Serif" font-size="10.00">StatsFromSurveyInfo</text>
</a>
</g>
</g>
<!-- Node1&#45;&gt;Node4 -->
<g id="edge3" class="edge">
<title>Node1&#45;&gt;Node4</title>
<path fill="none" stroke="midnightblue" d="M391.95,-27.69C383.37,-26.74 374.69,-25.77 366.16,-24.82"/>
<polygon fill="midnightblue" stroke="midnightblue" points="391.62,-31.18 401.94,-28.81 392.39,-24.22 391.62,-31.18"/>
</g>
<!-- Node3 -->
<g id="node3" class="node">
<title>Node3</title>
<g id="a_node3"><a xlink:href="wifiGen__rad_8c.html#a04fa8e5a56b65287842c1484c0804faf" target="_top" xlink:title=" ">
<polygon fill="white" stroke="black" points="13.5,-50 13.5,-69 147.5,-69 147.5,-50 13.5,-50"/>
<text text-anchor="middle" x="80.5" y="-57" font-family="Helvetica,sans-Serif" font-size="10.00">wifiGen_rad_getAirStats</text>
</a>
</g>
</g>
<!-- Node2&#45;&gt;Node3 -->
<g id="edge2" class="edge">
<title>Node2&#45;&gt;Node3</title>
<path fill="none" stroke="midnightblue" d="M192.17,-59.5C177.25,-59.5 162,-59.5 147.77,-59.5"/>
<polygon fill="midnightblue" stroke="midnightblue" points="192.42,-63 202.42,-59.5 192.42,-56 192.42,-63"/>
</g>
<!-- Node5 -->
<g id="node5" class="node">
<title>Node5</title>
<g id="a_node5"><a xlink:href="wifiGen__rad_8c.html#a63ca0312efb1460f235020f8d8fbf442" target="_top" xlink:title=" ">
<polygon fill="white" stroke="black" points="0,-6 0,-25 161,-25 161,-6 0,-6"/>
<text text-anchor="middle" x="80.5" y="-13" font-family="Helvetica,sans-Serif" font-size="10.00">wifiGen_rad_getSpectrumInfo</text>
</a>
</g>
</g>
<!-- Node4&#45;&gt;Node5 -->
<g id="edge4" class="edge">
<title>Node4&#45;&gt;Node5</title>
<path fill="none" stroke="midnightblue" d="M186.95,-15.5C178.38,-15.5 169.75,-15.5 161.32,-15.5"/>
<polygon fill="midnightblue" stroke="midnightblue" points="186.97,-19 196.97,-15.5 186.97,-12 186.97,-19"/>
</g>
</g>
</svg>
