<?xml version="1.0" encoding="UTF-8" standalone="no"?>
<!DOCTYPE svg PUBLIC "-//W3C//DTD SVG 1.1//EN"
 "http://www.w3.org/Graphics/SVG/1.1/DTD/svg11.dtd">
<!-- Generated by graphviz version 2.43.0 (0)
 -->
<!-- Title: wld_mld_getLinkSsidByLinkId Pages: 1 -->
<svg width="324pt" height="66pt"
 viewBox="0.00 0.00 324.00 66.00" xmlns="http://www.w3.org/2000/svg" xmlns:xlink="http://www.w3.org/1999/xlink">
<g id="graph0" class="graph" transform="scale(1 1) rotate(0) translate(4 62)">
<title>wld_mld_getLinkSsidByLinkId</title>
<polygon fill="white" stroke="transparent" points="-4,4 -4,-62 320,-62 320,4 -4,4"/>
<!-- Node1 -->
<g id="node1" class="node">
<title>Node1</title>
<g id="a_node1"><a xlink:title=" ">
<polygon fill="#bfbfbf" stroke="black" points="0,-19.5 0,-38.5 161,-38.5 161,-19.5 0,-19.5"/>
<text text-anchor="middle" x="80.5" y="-26.5" font-family="Helvetica,sans-Serif" font-size="10.00">wld_mld_getLinkSsidByLinkId</text>
</a>
</g>
</g>
<!-- Node2 -->
<g id="node2" class="node">
<title>Node2</title>
<g id="a_node2"><a xlink:href="wld__mld_8c.html#a9c4a384096d9195dc6d73e084eabf975" target="_top" xlink:title=" ">
<polygon fill="white" stroke="black" points="202.5,-38.5 202.5,-57.5 310.5,-57.5 310.5,-38.5 202.5,-38.5"/>
<text text-anchor="middle" x="256.5" y="-45.5" font-family="Helvetica,sans-Serif" font-size="10.00">wld_mld_getLinkId</text>
</a>
</g>
</g>
<!-- Node1&#45;&gt;Node2 -->
<g id="edge1" class="edge">
<title>Node1&#45;&gt;Node2</title>
<path fill="none" stroke="midnightblue" d="M161.12,-37.69C171.59,-38.84 182.2,-40 192.34,-41.1"/>
<polygon fill="midnightblue" stroke="midnightblue" points="191.99,-44.59 202.31,-42.19 192.75,-37.63 191.99,-44.59"/>
</g>
<!-- Node3 -->
<g id="node3" class="node">
<title>Node3</title>
<g id="a_node3"><a xlink:href="wld__mld_8c.html#a76c7faf25698a1ac7b59d8199724dbf6" target="_top" xlink:title=" ">
<polygon fill="white" stroke="black" points="197,-0.5 197,-19.5 316,-19.5 316,-0.5 197,-0.5"/>
<text text-anchor="middle" x="256.5" y="-7.5" font-family="Helvetica,sans-Serif" font-size="10.00">wld_mld_getLinkSsid</text>
</a>
</g>
</g>
<!-- Node1&#45;&gt;Node3 -->
<g id="edge2" class="edge">
<title>Node1&#45;&gt;Node3</title>
<path fill="none" stroke="midnightblue" d="M161.12,-20.31C169.7,-19.37 178.39,-18.42 186.83,-17.5"/>
<polygon fill="midnightblue" stroke="midnightblue" points="187.43,-20.95 196.99,-16.39 186.67,-14 187.43,-20.95"/>
</g>
</g>
</svg>
