<?xml version="1.0" encoding="UTF-8" standalone="no"?>
<!DOCTYPE svg PUBLIC "-//W3C//DTD SVG 1.1//EN"
 "http://www.w3.org/Graphics/SVG/1.1/DTD/svg11.dtd">
<!-- Generated by graphviz version 2.43.0 (0)
 -->
<!-- Title: wld_rad_nl80211_updateUsageStatsFromSurveyInfo Pages: 1 -->
<svg width="567pt" height="88pt"
 viewBox="0.00 0.00 567.00 88.00" xmlns="http://www.w3.org/2000/svg" xmlns:xlink="http://www.w3.org/1999/xlink">
<g id="graph0" class="graph" transform="scale(1 1) rotate(0) translate(4 84)">
<title>wld_rad_nl80211_updateUsageStatsFromSurveyInfo</title>
<polygon fill="white" stroke="transparent" points="-4,4 -4,-84 563,-84 563,4 -4,4"/>
<!-- Node1 -->
<g id="node1" class="node">
<title>Node1</title>
<g id="a_node1"><a xlink:title=" ">
<polygon fill="#bfbfbf" stroke="black" points="0,-24.5 0,-54.5 169,-54.5 169,-24.5 0,-24.5"/>
<text text-anchor="start" x="8" y="-42.5" font-family="Helvetica,sans-Serif" font-size="10.00">wld_rad_nl80211_updateUsage</text>
<text text-anchor="middle" x="84.5" y="-31.5" font-family="Helvetica,sans-Serif" font-size="10.00">StatsFromSurveyInfo</text>
</a>
</g>
</g>
<!-- Node2 -->
<g id="node2" class="node">
<title>Node2</title>
<g id="a_node2"><a xlink:href="wld__rad__nl80211_8c.html#abe0caea840f01d16672102574ebdceca" target="_top" xlink:title=" ">
<polygon fill="white" stroke="black" points="211,-49.5 211,-79.5 369,-79.5 369,-49.5 211,-49.5"/>
<text text-anchor="start" x="219" y="-67.5" font-family="Helvetica,sans-Serif" font-size="10.00">wld_rad_nl80211_getAirStats</text>
<text text-anchor="middle" x="290" y="-56.5" font-family="Helvetica,sans-Serif" font-size="10.00">FromSurveyInfo</text>
</a>
</g>
</g>
<!-- Node1&#45;&gt;Node2 -->
<g id="edge1" class="edge">
<title>Node1&#45;&gt;Node2</title>
<path fill="none" stroke="midnightblue" d="M169.15,-49.78C179.62,-51.06 190.35,-52.38 200.88,-53.67"/>
<polygon fill="midnightblue" stroke="midnightblue" points="200.55,-57.16 210.91,-54.91 201.41,-50.21 200.55,-57.16"/>
</g>
<!-- Node3 -->
<g id="node3" class="node">
<title>Node3</title>
<g id="a_node3"><a xlink:href="wld__util_8c.html#a2d2611af137f5b97865337c7c3a2f789" target="_top" xlink:title="add or update a spectrum result entry in provided list, based on the channel of the provided data str...">
<polygon fill="white" stroke="black" points="205,-0.5 205,-30.5 375,-30.5 375,-0.5 205,-0.5"/>
<text text-anchor="start" x="213" y="-18.5" font-family="Helvetica,sans-Serif" font-size="10.00">wld_util_addorUpdateSpectrum</text>
<text text-anchor="middle" x="290" y="-7.5" font-family="Helvetica,sans-Serif" font-size="10.00">Entry</text>
</a>
</g>
</g>
<!-- Node1&#45;&gt;Node3 -->
<g id="edge2" class="edge">
<title>Node1&#45;&gt;Node3</title>
<path fill="none" stroke="midnightblue" d="M169.15,-29.63C177.58,-28.64 186.19,-27.63 194.72,-26.62"/>
<polygon fill="midnightblue" stroke="midnightblue" points="195.16,-30.09 204.69,-25.44 194.34,-23.14 195.16,-30.09"/>
</g>
<!-- Node4 -->
<g id="node4" class="node">
<title>Node4</title>
<g id="a_node4"><a xlink:href="wld__util_8c.html#afc923d0ae8df35793889b4473f08faf9" target="_top" xlink:title="fetch, by channel, a spectrum result entry in provided list">
<polygon fill="white" stroke="black" points="411,-0.5 411,-30.5 559,-30.5 559,-0.5 411,-0.5"/>
<text text-anchor="start" x="419" y="-18.5" font-family="Helvetica,sans-Serif" font-size="10.00">wld_util_getSpectrumEntry</text>
<text text-anchor="middle" x="485" y="-7.5" font-family="Helvetica,sans-Serif" font-size="10.00">ByChannel</text>
</a>
</g>
</g>
<!-- Node3&#45;&gt;Node4 -->
<g id="edge3" class="edge">
<title>Node3&#45;&gt;Node4</title>
<path fill="none" stroke="midnightblue" d="M375.09,-15.5C383.54,-15.5 392.12,-15.5 400.56,-15.5"/>
<polygon fill="midnightblue" stroke="midnightblue" points="400.77,-19 410.77,-15.5 400.77,-12 400.77,-19"/>
</g>
</g>
</svg>
