<?xml version="1.0" encoding="UTF-8" standalone="no"?>
<!DOCTYPE svg PUBLIC "-//W3C//DTD SVG 1.1//EN"
 "http://www.w3.org/Graphics/SVG/1.1/DTD/svg11.dtd">
<!-- Generated by graphviz version 2.43.0 (0)
 -->
<!-- Title: wld_rad_staMon_getNonAssociatedDevice Pages: 1 -->
<svg width="588pt" height="39pt"
 viewBox="0.00 0.00 588.00 39.00" xmlns="http://www.w3.org/2000/svg" xmlns:xlink="http://www.w3.org/1999/xlink">
<g id="graph0" class="graph" transform="scale(1 1) rotate(0) translate(4 35)">
<title>wld_rad_staMon_getNonAssociatedDevice</title>
<polygon fill="white" stroke="transparent" points="-4,4 -4,-35 584,-35 584,4 -4,4"/>
<!-- Node1 -->
<g id="node1" class="node">
<title>Node1</title>
<g id="a_node1"><a xlink:title=" ">
<polygon fill="#bfbfbf" stroke="black" points="0,-0.5 0,-30.5 190,-30.5 190,-0.5 0,-0.5"/>
<text text-anchor="start" x="8" y="-18.5" font-family="Helvetica,sans-Serif" font-size="10.00">wld_rad_staMon_getNonAssociated</text>
<text text-anchor="middle" x="95" y="-7.5" font-family="Helvetica,sans-Serif" font-size="10.00">Device</text>
</a>
</g>
</g>
<!-- Node2 -->
<g id="node2" class="node">
<title>Node2</title>
<g id="a_node2"><a xlink:href="wld__rad__stamon_8c.html#a0880c50617982aa08ae4b397a0c991ee" target="_top" xlink:title=" ">
<polygon fill="white" stroke="black" points="226,-6 226,-25 377,-25 377,-6 226,-6"/>
<text text-anchor="middle" x="301.5" y="-13" font-family="Helvetica,sans-Serif" font-size="10.00">wld_rad_staMon_getDevice</text>
</a>
</g>
</g>
<!-- Node1&#45;&gt;Node2 -->
<g id="edge1" class="edge">
<title>Node1&#45;&gt;Node2</title>
<path fill="none" stroke="midnightblue" d="M190.17,-15.5C198.67,-15.5 207.24,-15.5 215.65,-15.5"/>
<polygon fill="midnightblue" stroke="midnightblue" points="215.81,-19 225.81,-15.5 215.81,-12 215.81,-19"/>
</g>
<!-- Node3 -->
<g id="node3" class="node">
<title>Node3</title>
<g id="a_node3"><a xlink:href="wld__rad__stamon_8c.html#af36b40de59009e8e854698b638653c37" target="_top" xlink:title=" ">
<polygon fill="white" stroke="black" points="413,-6 413,-25 580,-25 580,-6 413,-6"/>
<text text-anchor="middle" x="496.5" y="-13" font-family="Helvetica,sans-Serif" font-size="10.00">wld_rad_staMon_getDeviceExt</text>
</a>
</g>
</g>
<!-- Node2&#45;&gt;Node3 -->
<g id="edge2" class="edge">
<title>Node2&#45;&gt;Node3</title>
<path fill="none" stroke="midnightblue" d="M377.12,-15.5C385.51,-15.5 394.12,-15.5 402.7,-15.5"/>
<polygon fill="midnightblue" stroke="midnightblue" points="402.74,-19 412.74,-15.5 402.74,-12 402.74,-19"/>
</g>
</g>
</svg>
