<?xml version="1.0" encoding="UTF-8" standalone="no"?>
<!DOCTYPE svg PUBLIC "-//W3C//DTD SVG 1.1//EN"
 "http://www.w3.org/Graphics/SVG/1.1/DTD/svg11.dtd">
<!-- Generated by graphviz version 2.43.0 (0)
 -->
<!-- Title: src/nl80211/wld_wpaCtrlInterface.c Pages: 1 -->
<svg width="4901pt" height="319pt"
 viewBox="0.00 0.00 4901.47 319.00" xmlns="http://www.w3.org/2000/svg" xmlns:xlink="http://www.w3.org/1999/xlink">
<g id="graph0" class="graph" transform="scale(1 1) rotate(0) translate(4 315)">
<title>src/nl80211/wld_wpaCtrlInterface.c</title>
<polygon fill="white" stroke="transparent" points="-4,4 -4,-315 4897.47,-315 4897.47,4 -4,4"/>
<!-- Node1 -->
<g id="node1" class="node">
<title>Node1</title>
<g id="a_node1"><a xlink:title=" ">
<polygon fill="#bfbfbf" stroke="black" points="2361.63,-291.5 2361.63,-310.5 2549.63,-310.5 2549.63,-291.5 2361.63,-291.5"/>
<text text-anchor="middle" x="2455.63" y="-298.5" font-family="Helvetica,sans-Serif" font-size="10.00">src/nl80211/wld_wpaCtrlInterface.c</text>
</a>
</g>
</g>
<!-- Node2 -->
<g id="node2" class="node">
<title>Node2</title>
<g id="a_node2"><a xlink:title=" ">
<polygon fill="white" stroke="#bfbfbf" points="2167.13,-230 2167.13,-249 2218.13,-249 2218.13,-230 2167.13,-230"/>
<text text-anchor="middle" x="2192.63" y="-237" font-family="Helvetica,sans-Serif" font-size="10.00">errno.h</text>
</a>
</g>
</g>
<!-- Node1&#45;&gt;Node2 -->
<g id="edge1" class="edge">
<title>Node1&#45;&gt;Node2</title>
<path fill="none" stroke="midnightblue" d="M2394.02,-291.48C2347.43,-284.17 2282.2,-272.1 2226.63,-255 2224.49,-254.34 2222.3,-253.59 2220.11,-252.79"/>
<polygon fill="midnightblue" stroke="midnightblue" points="2221.31,-249.5 2210.72,-249.04 2218.71,-256 2221.31,-249.5"/>
</g>
<!-- Node3 -->
<g id="node3" class="node">
<title>Node3</title>
<g id="a_node3"><a xlink:title=" ">
<polygon fill="white" stroke="#bfbfbf" points="2236.13,-230 2236.13,-249 2313.13,-249 2313.13,-230 2236.13,-230"/>
<text text-anchor="middle" x="2274.63" y="-237" font-family="Helvetica,sans-Serif" font-size="10.00">sys/socket.h</text>
</a>
</g>
</g>
<!-- Node1&#45;&gt;Node3 -->
<g id="edge2" class="edge">
<title>Node1&#45;&gt;Node3</title>
<path fill="none" stroke="midnightblue" d="M2429.7,-291.48C2398.38,-281.18 2345.54,-263.81 2310.38,-252.25"/>
<polygon fill="midnightblue" stroke="midnightblue" points="2311.11,-248.81 2300.52,-249.01 2308.92,-255.46 2311.11,-248.81"/>
</g>
<!-- Node4 -->
<g id="node4" class="node">
<title>Node4</title>
<g id="a_node4"><a xlink:title=" ">
<polygon fill="white" stroke="#bfbfbf" points="2331.13,-230 2331.13,-249 2388.13,-249 2388.13,-230 2331.13,-230"/>
<text text-anchor="middle" x="2359.63" y="-237" font-family="Helvetica,sans-Serif" font-size="10.00">sys/un.h</text>
</a>
</g>
</g>
<!-- Node1&#45;&gt;Node4 -->
<g id="edge3" class="edge">
<title>Node1&#45;&gt;Node4</title>
<path fill="none" stroke="midnightblue" d="M2441.88,-291.48C2426.27,-281.8 2400.57,-265.87 2382.05,-254.39"/>
<polygon fill="midnightblue" stroke="midnightblue" points="2383.7,-251.3 2373.36,-249.01 2380.02,-257.25 2383.7,-251.3"/>
</g>
<!-- Node5 -->
<g id="node5" class="node">
<title>Node5</title>
<g id="a_node5"><a xlink:title=" ">
<polygon fill="white" stroke="#bfbfbf" points="2406.13,-230 2406.13,-249 2453.13,-249 2453.13,-230 2406.13,-230"/>
<text text-anchor="middle" x="2429.63" y="-237" font-family="Helvetica,sans-Serif" font-size="10.00">fcntl.h</text>
</a>
</g>
</g>
<!-- Node1&#45;&gt;Node5 -->
<g id="edge4" class="edge">
<title>Node1&#45;&gt;Node5</title>
<path fill="none" stroke="midnightblue" d="M2451.91,-291.48C2448.16,-282.9 2442.27,-269.43 2437.49,-258.48"/>
<polygon fill="midnightblue" stroke="midnightblue" points="2440.56,-256.77 2433.35,-249.01 2434.15,-259.57 2440.56,-256.77"/>
</g>
<!-- Node6 -->
<g id="node6" class="node">
<title>Node6</title>
<g id="a_node6"><a xlink:href="wld_8h.html" target="_top" xlink:title=" ">
<polygon fill="white" stroke="red" points="2696.13,-168.5 2696.13,-187.5 2739.13,-187.5 2739.13,-168.5 2696.13,-168.5"/>
<text text-anchor="middle" x="2717.63" y="-175.5" font-family="Helvetica,sans-Serif" font-size="10.00">wld.h</text>
</a>
</g>
</g>
<!-- Node1&#45;&gt;Node6 -->
<g id="edge5" class="edge">
<title>Node1&#45;&gt;Node6</title>
<path fill="none" stroke="midnightblue" d="M2462.41,-291.46C2475.43,-275.64 2505.6,-241.78 2538.63,-224 2586.14,-198.42 2648.59,-187.03 2685.77,-182.22"/>
<polygon fill="midnightblue" stroke="midnightblue" points="2686.5,-185.66 2696.01,-180.98 2685.66,-178.71 2686.5,-185.66"/>
</g>
<!-- Node79 -->
<g id="node48" class="node">
<title>Node79</title>
<g id="a_node48"><a xlink:href="wld__wpaCtrl__api_8h.html" target="_top" xlink:title=" ">
<polygon fill="white" stroke="red" points="1201.63,-168.5 1201.63,-187.5 1307.63,-187.5 1307.63,-168.5 1201.63,-168.5"/>
<text text-anchor="middle" x="1254.63" y="-175.5" font-family="Helvetica,sans-Serif" font-size="10.00">wld_wpaCtrl_api.h</text>
</a>
</g>
</g>
<!-- Node1&#45;&gt;Node79 -->
<g id="edge59" class="edge">
<title>Node1&#45;&gt;Node79</title>
<path fill="none" stroke="midnightblue" d="M2459.99,-291.31C2467.2,-275.55 2479.17,-242.21 2461.63,-224 2421.67,-182.52 1561.18,-179.1 1318.08,-178.96"/>
<polygon fill="midnightblue" stroke="midnightblue" points="1317.99,-175.46 1307.99,-178.95 1317.99,-182.46 1317.99,-175.46"/>
</g>
<!-- Node80 -->
<g id="node49" class="node">
<title>Node80</title>
<g id="a_node49"><a xlink:href="wld__wpaCtrlInterface__priv_8h.html" target="_top" xlink:title=" ">
<polygon fill="white" stroke="red" points="2547.63,-224.5 2547.63,-254.5 2667.63,-254.5 2667.63,-224.5 2547.63,-224.5"/>
<text text-anchor="start" x="2555.63" y="-242.5" font-family="Helvetica,sans-Serif" font-size="10.00">wld_wpaCtrlInterface</text>
<text text-anchor="middle" x="2607.63" y="-231.5" font-family="Helvetica,sans-Serif" font-size="10.00">_priv.h</text>
</a>
</g>
</g>
<!-- Node1&#45;&gt;Node80 -->
<g id="edge61" class="edge">
<title>Node1&#45;&gt;Node80</title>
<path fill="none" stroke="midnightblue" d="M2477.41,-291.48C2499.44,-282.85 2534.15,-269.26 2562.2,-258.29"/>
<polygon fill="midnightblue" stroke="midnightblue" points="2563.77,-261.43 2571.81,-254.52 2561.22,-254.91 2563.77,-261.43"/>
</g>
<!-- Node82 -->
<g id="node50" class="node">
<title>Node82</title>
<g id="a_node50"><a xlink:href="wld__util_8h.html" target="_top" xlink:title=" ">
<polygon fill="white" stroke="black" points="2685.63,-230 2685.63,-249 2749.63,-249 2749.63,-230 2685.63,-230"/>
<text text-anchor="middle" x="2717.63" y="-237" font-family="Helvetica,sans-Serif" font-size="10.00">wld_util.h</text>
</a>
</g>
</g>
<!-- Node1&#45;&gt;Node82 -->
<g id="edge62" class="edge">
<title>Node1&#45;&gt;Node82</title>
<path fill="none" stroke="midnightblue" d="M2507.91,-291.47C2553,-283.61 2619.66,-270.79 2676.63,-255 2679.59,-254.18 2682.65,-253.25 2685.69,-252.28"/>
<polygon fill="midnightblue" stroke="midnightblue" points="2686.9,-255.56 2695.25,-249.05 2684.66,-248.93 2686.9,-255.56"/>
</g>
<!-- Node7 -->
<g id="node7" class="node">
<title>Node7</title>
<g id="a_node7"><a xlink:title=" ">
<polygon fill="white" stroke="#bfbfbf" points="4589.63,-56.5 4589.63,-75.5 4651.63,-75.5 4651.63,-56.5 4589.63,-56.5"/>
<text text-anchor="middle" x="4620.63" y="-63.5" font-family="Helvetica,sans-Serif" font-size="10.00">stdbool.h</text>
</a>
</g>
</g>
<!-- Node6&#45;&gt;Node7 -->
<g id="edge6" class="edge">
<title>Node6&#45;&gt;Node7</title>
<path fill="none" stroke="midnightblue" d="M2739.29,-176.93C2953,-176.21 4677.27,-169.2 4713.63,-132 4735.19,-109.95 4695.61,-90.56 4661.6,-78.82"/>
<polygon fill="midnightblue" stroke="midnightblue" points="4662.34,-75.39 4651.75,-75.58 4660.15,-82.03 4662.34,-75.39"/>
</g>
<!-- Node8 -->
<g id="node8" class="node">
<title>Node8</title>
<g id="a_node8"><a xlink:title=" ">
<polygon fill="white" stroke="#bfbfbf" points="1921.13,-0.5 1921.13,-19.5 1974.13,-19.5 1974.13,-0.5 1921.13,-0.5"/>
<text text-anchor="middle" x="1947.63" y="-7.5" font-family="Helvetica,sans-Serif" font-size="10.00">stdint.h</text>
</a>
</g>
</g>
<!-- Node6&#45;&gt;Node8 -->
<g id="edge7" class="edge">
<title>Node6&#45;&gt;Node8</title>
<path fill="none" stroke="midnightblue" d="M2695.88,-176.79C2442.63,-174.32 62.65,-150.6 32.63,-132 8.81,-117.23 10.26,-103.23 3.63,-76 1.53,-67.36 -2.58,-62.36 3.63,-56 38.27,-20.56 1645.67,-12.27 1910.79,-11.14"/>
<polygon fill="midnightblue" stroke="midnightblue" points="1911.05,-14.64 1921.04,-11.1 1911.02,-7.64 1911.05,-14.64"/>
</g>
<!-- Node9 -->
<g id="node9" class="node">
<title>Node9</title>
<g id="a_node9"><a xlink:title=" ">
<polygon fill="white" stroke="#bfbfbf" points="12.63,-56.5 12.63,-75.5 122.63,-75.5 122.63,-56.5 12.63,-56.5"/>
<text text-anchor="middle" x="67.63" y="-63.5" font-family="Helvetica,sans-Serif" font-size="10.00">swl/swl_common.h</text>
</a>
</g>
</g>
<!-- Node6&#45;&gt;Node9 -->
<g id="edge8" class="edge">
<title>Node6&#45;&gt;Node9</title>
<path fill="none" stroke="midnightblue" d="M2695.91,-176.84C2442.99,-175.01 66.31,-157.09 41.63,-132 28.52,-118.67 40.55,-97.89 52.25,-83.43"/>
<polygon fill="midnightblue" stroke="midnightblue" points="55,-85.6 58.9,-75.75 49.71,-81.02 55,-85.6"/>
</g>
<!-- Node10 -->
<g id="node10" class="node">
<title>Node10</title>
<g id="a_node10"><a xlink:title=" ">
<polygon fill="white" stroke="#bfbfbf" points="50.63,-112.5 50.63,-131.5 186.63,-131.5 186.63,-112.5 50.63,-112.5"/>
<text text-anchor="middle" x="118.63" y="-119.5" font-family="Helvetica,sans-Serif" font-size="10.00">swla/swla_commonLib.h</text>
</a>
</g>
</g>
<!-- Node6&#45;&gt;Node10 -->
<g id="edge9" class="edge">
<title>Node6&#45;&gt;Node10</title>
<path fill="none" stroke="midnightblue" d="M2696.13,-176.91C2482.8,-175.98 742.79,-167.38 197.34,-132.03"/>
<polygon fill="midnightblue" stroke="midnightblue" points="197.24,-128.52 187.03,-131.35 196.78,-135.5 197.24,-128.52"/>
</g>
<!-- Node11 -->
<g id="node11" class="node">
<title>Node11</title>
<g id="a_node11"><a xlink:title=" ">
<polygon fill="white" stroke="#bfbfbf" points="204.63,-112.5 204.63,-131.5 292.63,-131.5 292.63,-112.5 204.63,-112.5"/>
<text text-anchor="middle" x="248.63" y="-119.5" font-family="Helvetica,sans-Serif" font-size="10.00">swl/swl_uuid.h</text>
</a>
</g>
</g>
<!-- Node6&#45;&gt;Node11 -->
<g id="edge10" class="edge">
<title>Node6&#45;&gt;Node11</title>
<path fill="none" stroke="midnightblue" d="M2695.96,-176.79C2473.06,-174.65 599.71,-156.03 303.08,-131.91"/>
<polygon fill="midnightblue" stroke="midnightblue" points="303.08,-128.39 292.81,-131.01 302.47,-135.37 303.08,-128.39"/>
</g>
<!-- Node12 -->
<g id="node12" class="node">
<title>Node12</title>
<g id="a_node12"><a xlink:title=" ">
<polygon fill="white" stroke="#bfbfbf" points="310.63,-112.5 310.63,-131.5 462.63,-131.5 462.63,-112.5 310.63,-112.5"/>
<text text-anchor="middle" x="386.63" y="-119.5" font-family="Helvetica,sans-Serif" font-size="10.00">swla/swla_radioStandards.h</text>
</a>
</g>
</g>
<!-- Node6&#45;&gt;Node12 -->
<g id="edge11" class="edge">
<title>Node6&#45;&gt;Node12</title>
<path fill="none" stroke="midnightblue" d="M2696.02,-176.82C2495.7,-175.15 959.24,-161.46 473.3,-132.04"/>
<polygon fill="midnightblue" stroke="midnightblue" points="473.26,-128.53 463.06,-131.4 472.83,-135.51 473.26,-128.53"/>
</g>
<!-- Node13 -->
<g id="node13" class="node">
<title>Node13</title>
<g id="a_node13"><a xlink:title=" ">
<polygon fill="white" stroke="#bfbfbf" points="4400.13,-0.5 4400.13,-19.5 4501.13,-19.5 4501.13,-0.5 4400.13,-0.5"/>
<text text-anchor="middle" x="4450.63" y="-7.5" font-family="Helvetica,sans-Serif" font-size="10.00">swla/swla_time.h</text>
</a>
</g>
</g>
<!-- Node6&#45;&gt;Node13 -->
<g id="edge12" class="edge">
<title>Node6&#45;&gt;Node13</title>
<path fill="none" stroke="midnightblue" d="M2739.23,-176.97C2961.93,-176.59 4832.25,-172.21 4871.63,-132 4979.61,-21.75 4651.89,-10.25 4511.35,-10.23"/>
<polygon fill="midnightblue" stroke="midnightblue" points="4511.15,-6.73 4501.16,-10.25 4511.16,-13.73 4511.15,-6.73"/>
</g>
<!-- Node14 -->
<g id="node14" class="node">
<title>Node14</title>
<g id="a_node14"><a xlink:title=" ">
<polygon fill="white" stroke="#bfbfbf" points="613.13,-112.5 613.13,-131.5 742.13,-131.5 742.13,-112.5 613.13,-112.5"/>
<text text-anchor="middle" x="677.63" y="-119.5" font-family="Helvetica,sans-Serif" font-size="10.00">swla/swla_time_spec.h</text>
</a>
</g>
</g>
<!-- Node6&#45;&gt;Node14 -->
<g id="edge13" class="edge">
<title>Node6&#45;&gt;Node14</title>
<path fill="none" stroke="midnightblue" d="M2695.85,-176.8C2509.38,-175.02 1178.55,-161.43 752.37,-131.95"/>
<polygon fill="midnightblue" stroke="midnightblue" points="752.39,-128.44 742.17,-131.23 751.9,-135.42 752.39,-128.44"/>
</g>
<!-- Node15 -->
<g id="node15" class="node">
<title>Node15</title>
<g id="a_node15"><a xlink:title=" ">
<polygon fill="white" stroke="#bfbfbf" points="760.63,-112.5 760.63,-131.5 854.63,-131.5 854.63,-112.5 760.63,-112.5"/>
<text text-anchor="middle" x="807.63" y="-119.5" font-family="Helvetica,sans-Serif" font-size="10.00">swla/swla_oui.h</text>
</a>
</g>
</g>
<!-- Node6&#45;&gt;Node15 -->
<g id="edge14" class="edge">
<title>Node6&#45;&gt;Node15</title>
<path fill="none" stroke="midnightblue" d="M2695.95,-176.88C2515.93,-175.81 1265.99,-167.2 865.11,-131.98"/>
<polygon fill="midnightblue" stroke="midnightblue" points="865.21,-128.47 854.93,-131.06 864.58,-135.45 865.21,-128.47"/>
</g>
<!-- Node16 -->
<g id="node16" class="node">
<title>Node16</title>
<g id="a_node16"><a xlink:title=" ">
<polygon fill="white" stroke="#bfbfbf" points="872.63,-112.5 872.63,-131.5 1000.63,-131.5 1000.63,-112.5 872.63,-112.5"/>
<text text-anchor="middle" x="936.63" y="-119.5" font-family="Helvetica,sans-Serif" font-size="10.00">swla/swla_delayExec.h</text>
</a>
</g>
</g>
<!-- Node6&#45;&gt;Node16 -->
<g id="edge15" class="edge">
<title>Node6&#45;&gt;Node16</title>
<path fill="none" stroke="midnightblue" d="M2695.91,-177.22C2550.88,-178.5 1707.69,-183.45 1010.68,-131.99"/>
<polygon fill="midnightblue" stroke="midnightblue" points="1010.92,-128.5 1000.69,-131.25 1010.4,-135.48 1010.92,-128.5"/>
</g>
<!-- Node17 -->
<g id="node17" class="node">
<title>Node17</title>
<g id="a_node17"><a xlink:title=" ">
<polygon fill="white" stroke="#bfbfbf" points="1019.13,-112.5 1019.13,-131.5 1138.13,-131.5 1138.13,-112.5 1019.13,-112.5"/>
<text text-anchor="middle" x="1078.63" y="-119.5" font-family="Helvetica,sans-Serif" font-size="10.00">swla/swla_function.h</text>
</a>
</g>
</g>
<!-- Node6&#45;&gt;Node17 -->
<g id="edge16" class="edge">
<title>Node6&#45;&gt;Node17</title>
<path fill="none" stroke="midnightblue" d="M2695.89,-177.22C2557.61,-178.44 1786.65,-182.67 1148.62,-132.07"/>
<polygon fill="midnightblue" stroke="midnightblue" points="1148.55,-128.56 1138.3,-131.25 1147.99,-135.54 1148.55,-128.56"/>
</g>
<!-- Node18 -->
<g id="node18" class="node">
<title>Node18</title>
<g id="a_node18"><a xlink:title=" ">
<polygon fill="white" stroke="#bfbfbf" points="1156.13,-112.5 1156.13,-131.5 1297.13,-131.5 1297.13,-112.5 1156.13,-112.5"/>
<text text-anchor="middle" x="1226.63" y="-119.5" font-family="Helvetica,sans-Serif" font-size="10.00">swl/swl_usp_cmdStatus.h</text>
</a>
</g>
</g>
<!-- Node6&#45;&gt;Node18 -->
<g id="edge17" class="edge">
<title>Node6&#45;&gt;Node18</title>
<path fill="none" stroke="midnightblue" d="M2696.05,-176.96C2566.56,-176.59 1879.44,-172.75 1307.38,-131.98"/>
<polygon fill="midnightblue" stroke="midnightblue" points="1307.5,-128.48 1297.27,-131.26 1307,-135.46 1307.5,-128.48"/>
</g>
<!-- Node19 -->
<g id="node19" class="node">
<title>Node19</title>
<g id="a_node19"><a xlink:title=" ">
<polygon fill="white" stroke="#bfbfbf" points="1315.63,-112.5 1315.63,-131.5 1401.63,-131.5 1401.63,-112.5 1315.63,-112.5"/>
<text text-anchor="middle" x="1358.63" y="-119.5" font-family="Helvetica,sans-Serif" font-size="10.00">swl/swl_wps.h</text>
</a>
</g>
</g>
<!-- Node6&#45;&gt;Node19 -->
<g id="edge18" class="edge">
<title>Node6&#45;&gt;Node19</title>
<path fill="none" stroke="midnightblue" d="M2695.71,-176.66C2548.02,-174.28 1695.76,-159.62 1411.96,-131.95"/>
<polygon fill="midnightblue" stroke="midnightblue" points="1412,-128.44 1401.7,-130.92 1411.3,-135.4 1412,-128.44"/>
</g>
<!-- Node20 -->
<g id="node20" class="node">
<title>Node20</title>
<g id="a_node20"><a xlink:title=" ">
<polygon fill="white" stroke="#bfbfbf" points="1419.63,-112.5 1419.63,-131.5 1523.63,-131.5 1523.63,-112.5 1419.63,-112.5"/>
<text text-anchor="middle" x="1471.63" y="-119.5" font-family="Helvetica,sans-Serif" font-size="10.00">swl/swl_security.h</text>
</a>
</g>
</g>
<!-- Node6&#45;&gt;Node20 -->
<g id="edge19" class="edge">
<title>Node6&#45;&gt;Node20</title>
<path fill="none" stroke="midnightblue" d="M2695.76,-177.05C2578.19,-177.16 2009.2,-175.35 1533.98,-132.02"/>
<polygon fill="midnightblue" stroke="midnightblue" points="1534.11,-128.51 1523.83,-131.08 1533.47,-135.48 1534.11,-128.51"/>
</g>
<!-- Node21 -->
<g id="node21" class="node">
<title>Node21</title>
<g id="a_node21"><a xlink:title=" ">
<polygon fill="white" stroke="#bfbfbf" points="1542.13,-112.5 1542.13,-131.5 1625.13,-131.5 1625.13,-112.5 1542.13,-112.5"/>
<text text-anchor="middle" x="1583.63" y="-119.5" font-family="Helvetica,sans-Serif" font-size="10.00">amxc/amxc.h</text>
</a>
</g>
</g>
<!-- Node6&#45;&gt;Node21 -->
<g id="edge20" class="edge">
<title>Node6&#45;&gt;Node21</title>
<path fill="none" stroke="midnightblue" d="M2695.81,-177.17C2584.41,-177.82 2067.94,-178.13 1635.51,-131.92"/>
<polygon fill="midnightblue" stroke="midnightblue" points="1635.63,-128.41 1625.32,-130.82 1634.88,-135.37 1635.63,-128.41"/>
</g>
<!-- Node22 -->
<g id="node22" class="node">
<title>Node22</title>
<g id="a_node22"><a xlink:title=" ">
<polygon fill="white" stroke="#bfbfbf" points="1643.63,-112.5 1643.63,-131.5 1727.63,-131.5 1727.63,-112.5 1643.63,-112.5"/>
<text text-anchor="middle" x="1685.63" y="-119.5" font-family="Helvetica,sans-Serif" font-size="10.00">amxp/amxp.h</text>
</a>
</g>
</g>
<!-- Node6&#45;&gt;Node22 -->
<g id="edge21" class="edge">
<title>Node6&#45;&gt;Node22</title>
<path fill="none" stroke="midnightblue" d="M2695.8,-177.04C2590.8,-177 2127.2,-174.39 1737.92,-131.99"/>
<polygon fill="midnightblue" stroke="midnightblue" points="1738.2,-128.5 1727.87,-130.89 1737.43,-135.46 1738.2,-128.5"/>
</g>
<!-- Node23 -->
<g id="node23" class="node">
<title>Node23</title>
<g id="a_node23"><a xlink:title=" ">
<polygon fill="white" stroke="#bfbfbf" points="1745.63,-112.5 1745.63,-131.5 1885.63,-131.5 1885.63,-112.5 1745.63,-112.5"/>
<text text-anchor="middle" x="1815.63" y="-119.5" font-family="Helvetica,sans-Serif" font-size="10.00">amxd/amxd_parameter.h</text>
</a>
</g>
</g>
<!-- Node6&#45;&gt;Node23 -->
<g id="edge22" class="edge">
<title>Node6&#45;&gt;Node23</title>
<path fill="none" stroke="midnightblue" d="M2695.98,-176.28C2602.08,-173.08 2220.55,-159.07 1895.89,-132.06"/>
<polygon fill="midnightblue" stroke="midnightblue" points="1896.08,-128.56 1885.82,-131.21 1895.49,-135.54 1896.08,-128.56"/>
</g>
<!-- Node24 -->
<g id="node24" class="node">
<title>Node24</title>
<g id="a_node24"><a xlink:title=" ">
<polygon fill="white" stroke="#bfbfbf" points="1904.13,-112.5 1904.13,-131.5 2023.13,-131.5 2023.13,-112.5 1904.13,-112.5"/>
<text text-anchor="middle" x="1963.63" y="-119.5" font-family="Helvetica,sans-Serif" font-size="10.00">amxd/amxd_action.h</text>
</a>
</g>
</g>
<!-- Node6&#45;&gt;Node24 -->
<g id="edge23" class="edge">
<title>Node6&#45;&gt;Node24</title>
<path fill="none" stroke="midnightblue" d="M2695.96,-176.1C2612.11,-172.51 2300.68,-158.18 2033.59,-132.14"/>
<polygon fill="midnightblue" stroke="midnightblue" points="2033.6,-128.62 2023.31,-131.13 2032.92,-135.59 2033.6,-128.62"/>
</g>
<!-- Node25 -->
<g id="node25" class="node">
<title>Node25</title>
<g id="a_node25"><a xlink:title=" ">
<polygon fill="white" stroke="#bfbfbf" points="2041.13,-112.5 2041.13,-131.5 2216.13,-131.5 2216.13,-112.5 2041.13,-112.5"/>
<text text-anchor="middle" x="2128.63" y="-119.5" font-family="Helvetica,sans-Serif" font-size="10.00">amxd/amxd_object_parameter.h</text>
</a>
</g>
</g>
<!-- Node6&#45;&gt;Node25 -->
<g id="edge24" class="edge">
<title>Node6&#45;&gt;Node25</title>
<path fill="none" stroke="midnightblue" d="M2696.05,-175.04C2628.56,-168.89 2415.24,-149.46 2226.26,-132.06"/>
<polygon fill="midnightblue" stroke="midnightblue" points="2226.42,-128.56 2216.14,-131.12 2225.78,-135.53 2226.42,-128.56"/>
</g>
<!-- Node26 -->
<g id="node26" class="node">
<title>Node26</title>
<g id="a_node26"><a xlink:title=" ">
<polygon fill="white" stroke="#bfbfbf" points="2234.63,-112.5 2234.63,-131.5 2386.63,-131.5 2386.63,-112.5 2234.63,-112.5"/>
<text text-anchor="middle" x="2310.63" y="-119.5" font-family="Helvetica,sans-Serif" font-size="10.00">amxd/amxd_object_event.h</text>
</a>
</g>
</g>
<!-- Node6&#45;&gt;Node26 -->
<g id="edge25" class="edge">
<title>Node6&#45;&gt;Node26</title>
<path fill="none" stroke="midnightblue" d="M2696.04,-174.13C2638.56,-166.51 2479.76,-145.44 2384.89,-132.85"/>
<polygon fill="midnightblue" stroke="midnightblue" points="2385.16,-129.36 2374.78,-131.51 2384.24,-136.3 2385.16,-129.36"/>
</g>
<!-- Node27 -->
<g id="node27" class="node">
<title>Node27</title>
<g id="a_node27"><a xlink:title=" ">
<polygon fill="white" stroke="#bfbfbf" points="2405.13,-112.5 2405.13,-131.5 2534.13,-131.5 2534.13,-112.5 2405.13,-112.5"/>
<text text-anchor="middle" x="2469.63" y="-119.5" font-family="Helvetica,sans-Serif" font-size="10.00">amxd/amxd_function.h</text>
</a>
</g>
</g>
<!-- Node6&#45;&gt;Node27 -->
<g id="edge26" class="edge">
<title>Node6&#45;&gt;Node27</title>
<path fill="none" stroke="midnightblue" d="M2696.06,-172.3C2656.87,-163.77 2573.06,-145.52 2519.13,-133.78"/>
<polygon fill="midnightblue" stroke="midnightblue" points="2519.61,-130.3 2509.09,-131.59 2518.12,-137.14 2519.61,-130.3"/>
</g>
<!-- Node28 -->
<g id="node28" class="node">
<title>Node28</title>
<g id="a_node28"><a xlink:title=" ">
<polygon fill="white" stroke="#bfbfbf" points="2552.13,-112.5 2552.13,-131.5 2721.13,-131.5 2721.13,-112.5 2552.13,-112.5"/>
<text text-anchor="middle" x="2636.63" y="-119.5" font-family="Helvetica,sans-Serif" font-size="10.00">amxd/amxd_object_hierarchy.h</text>
</a>
</g>
</g>
<!-- Node6&#45;&gt;Node28 -->
<g id="edge27" class="edge">
<title>Node6&#45;&gt;Node28</title>
<path fill="none" stroke="midnightblue" d="M2704.62,-168.32C2692.1,-159.98 2672.95,-147.21 2658.16,-137.35"/>
<polygon fill="midnightblue" stroke="midnightblue" points="2659.88,-134.29 2649.61,-131.65 2655.99,-140.11 2659.88,-134.29"/>
</g>
<!-- Node29 -->
<g id="node29" class="node">
<title>Node29</title>
<g id="a_node29"><a xlink:title=" ">
<polygon fill="white" stroke="#bfbfbf" points="2739.13,-112.5 2739.13,-131.5 2858.13,-131.5 2858.13,-112.5 2739.13,-112.5"/>
<text text-anchor="middle" x="2798.63" y="-119.5" font-family="Helvetica,sans-Serif" font-size="10.00">amxd/amxd_object.h</text>
</a>
</g>
</g>
<!-- Node6&#45;&gt;Node29 -->
<g id="edge28" class="edge">
<title>Node6&#45;&gt;Node29</title>
<path fill="none" stroke="midnightblue" d="M2730.65,-168.32C2743.16,-159.98 2762.31,-147.21 2777.1,-137.35"/>
<polygon fill="midnightblue" stroke="midnightblue" points="2779.27,-140.11 2785.65,-131.65 2775.39,-134.29 2779.27,-140.11"/>
</g>
<!-- Node30 -->
<g id="node30" class="node">
<title>Node30</title>
<g id="a_node30"><a xlink:title=" ">
<polygon fill="white" stroke="#bfbfbf" points="2876.13,-112.5 2876.13,-131.5 2981.13,-131.5 2981.13,-112.5 2876.13,-112.5"/>
<text text-anchor="middle" x="2928.63" y="-119.5" font-family="Helvetica,sans-Serif" font-size="10.00">amxd/amxd_dm.h</text>
</a>
</g>
</g>
<!-- Node6&#45;&gt;Node30 -->
<g id="edge29" class="edge">
<title>Node6&#45;&gt;Node30</title>
<path fill="none" stroke="midnightblue" d="M2739.42,-171.42C2773.71,-162.65 2840.92,-145.45 2885.3,-134.09"/>
<polygon fill="midnightblue" stroke="midnightblue" points="2886.41,-137.42 2895.23,-131.55 2884.68,-130.64 2886.41,-137.42"/>
</g>
<!-- Node31 -->
<g id="node31" class="node">
<title>Node31</title>
<g id="a_node31"><a xlink:title=" ">
<polygon fill="white" stroke="#bfbfbf" points="2999.63,-112.5 2999.63,-131.5 3143.63,-131.5 3143.63,-112.5 2999.63,-112.5"/>
<text text-anchor="middle" x="3071.63" y="-119.5" font-family="Helvetica,sans-Serif" font-size="10.00">amxd/amxd_transaction.h</text>
</a>
</g>
</g>
<!-- Node6&#45;&gt;Node31 -->
<g id="edge30" class="edge">
<title>Node6&#45;&gt;Node31</title>
<path fill="none" stroke="midnightblue" d="M2739.24,-173.7C2791.14,-165.79 2924.5,-145.44 3005.65,-133.07"/>
<polygon fill="midnightblue" stroke="midnightblue" points="3006.4,-136.49 3015.76,-131.52 3005.35,-129.57 3006.4,-136.49"/>
</g>
<!-- Node32 -->
<g id="node32" class="node">
<title>Node32</title>
<g id="a_node32"><a xlink:title=" ">
<polygon fill="white" stroke="#bfbfbf" points="3161.63,-112.5 3161.63,-131.5 3277.63,-131.5 3277.63,-112.5 3161.63,-112.5"/>
<text text-anchor="middle" x="3219.63" y="-119.5" font-family="Helvetica,sans-Serif" font-size="10.00">amxb/amxb_types.h</text>
</a>
</g>
</g>
<!-- Node6&#45;&gt;Node32 -->
<g id="edge31" class="edge">
<title>Node6&#45;&gt;Node32</title>
<path fill="none" stroke="midnightblue" d="M2739.38,-174.99C2801.71,-169.17 2986.51,-151.56 3151.22,-132.14"/>
<polygon fill="midnightblue" stroke="midnightblue" points="3152.02,-135.57 3161.54,-130.91 3151.2,-128.61 3152.02,-135.57"/>
</g>
<!-- Node33 -->
<g id="node33" class="node">
<title>Node33</title>
<g id="a_node33"><a xlink:title=" ">
<polygon fill="white" stroke="#bfbfbf" points="3295.63,-112.5 3295.63,-131.5 3431.63,-131.5 3431.63,-112.5 3295.63,-112.5"/>
<text text-anchor="middle" x="3363.63" y="-119.5" font-family="Helvetica,sans-Serif" font-size="10.00">amxb/amxb_operators.h</text>
</a>
</g>
</g>
<!-- Node6&#45;&gt;Node33 -->
<g id="edge32" class="edge">
<title>Node6&#45;&gt;Node33</title>
<path fill="none" stroke="midnightblue" d="M2739.36,-175.58C2813.84,-170.63 3065.82,-153.4 3285.52,-132.07"/>
<polygon fill="midnightblue" stroke="midnightblue" points="3286.01,-135.54 3295.63,-131.09 3285.33,-128.58 3286.01,-135.54"/>
</g>
<!-- Node34 -->
<g id="node34" class="node">
<title>Node34</title>
<g id="a_node34"><a xlink:title=" ">
<polygon fill="white" stroke="#bfbfbf" points="3449.63,-112.5 3449.63,-131.5 3561.63,-131.5 3561.63,-112.5 3449.63,-112.5"/>
<text text-anchor="middle" x="3505.63" y="-119.5" font-family="Helvetica,sans-Serif" font-size="10.00">amxb/amxb_error.h</text>
</a>
</g>
</g>
<!-- Node6&#45;&gt;Node34 -->
<g id="edge33" class="edge">
<title>Node6&#45;&gt;Node34</title>
<path fill="none" stroke="midnightblue" d="M2739.27,-176.25C2825.93,-173.12 3156.52,-159.99 3439.26,-132.07"/>
<polygon fill="midnightblue" stroke="midnightblue" points="3439.69,-135.54 3449.29,-131.07 3439,-128.57 3439.69,-135.54"/>
</g>
<!-- Node35 -->
<g id="node35" class="node">
<title>Node35</title>
<g id="a_node35"><a xlink:title=" ">
<polygon fill="white" stroke="#bfbfbf" points="3580.13,-112.5 3580.13,-131.5 3663.13,-131.5 3663.13,-112.5 3580.13,-112.5"/>
<text text-anchor="middle" x="3621.63" y="-119.5" font-family="Helvetica,sans-Serif" font-size="10.00">amxo/amxo.h</text>
</a>
</g>
</g>
<!-- Node6&#45;&gt;Node35 -->
<g id="edge34" class="edge">
<title>Node6&#45;&gt;Node35</title>
<path fill="none" stroke="midnightblue" d="M2739.14,-176.83C2835,-175.87 3233.08,-169.76 3569.99,-131.91"/>
<polygon fill="midnightblue" stroke="midnightblue" points="3570.4,-135.39 3579.94,-130.78 3569.61,-128.43 3570.4,-135.39"/>
</g>
<!-- Node36 -->
<g id="node36" class="node">
<title>Node36</title>
<g id="a_node36"><a xlink:title=" ">
<polygon fill="white" stroke="#bfbfbf" points="3681.13,-112.5 3681.13,-131.5 3796.13,-131.5 3796.13,-112.5 3681.13,-112.5"/>
<text text-anchor="middle" x="3738.63" y="-119.5" font-family="Helvetica,sans-Serif" font-size="10.00">amxo/amxo_types.h</text>
</a>
</g>
</g>
<!-- Node6&#45;&gt;Node36 -->
<g id="edge35" class="edge">
<title>Node6&#45;&gt;Node36</title>
<path fill="none" stroke="midnightblue" d="M2739.2,-176.69C2841.91,-175.06 3291.89,-166.28 3671.01,-132.07"/>
<polygon fill="midnightblue" stroke="midnightblue" points="3671.43,-135.55 3681.07,-131.15 3670.8,-128.57 3671.43,-135.55"/>
</g>
<!-- Node37 -->
<g id="node37" class="node">
<title>Node37</title>
<g id="a_node37"><a xlink:href="wld__types_8h.html" target="_top" xlink:title=" ">
<polygon fill="white" stroke="red" points="3872.13,-56.5 3872.13,-75.5 3947.13,-75.5 3947.13,-56.5 3872.13,-56.5"/>
<text text-anchor="middle" x="3909.63" y="-63.5" font-family="Helvetica,sans-Serif" font-size="10.00">wld_types.h</text>
</a>
</g>
</g>
<!-- Node6&#45;&gt;Node37 -->
<g id="edge36" class="edge">
<title>Node6&#45;&gt;Node37</title>
<path fill="none" stroke="midnightblue" d="M2739.31,-176.88C2895.45,-175.95 3843.45,-168.8 3890.63,-132 3904.37,-121.28 3908.57,-101.19 3909.67,-86.16"/>
<polygon fill="midnightblue" stroke="midnightblue" points="3913.18,-86.02 3910.01,-75.91 3906.18,-85.78 3913.18,-86.02"/>
</g>
<!-- Node40 -->
<g id="node38" class="node">
<title>Node40</title>
<g id="a_node38"><a xlink:href="wld__channel__types_8h.html" target="_top" xlink:title=" ">
<polygon fill="white" stroke="black" points="4391.13,-112.5 4391.13,-131.5 4510.13,-131.5 4510.13,-112.5 4391.13,-112.5"/>
<text text-anchor="middle" x="4450.63" y="-119.5" font-family="Helvetica,sans-Serif" font-size="10.00">wld_channel_types.h</text>
</a>
</g>
</g>
<!-- Node6&#45;&gt;Node40 -->
<g id="edge39" class="edge">
<title>Node6&#45;&gt;Node40</title>
<path fill="none" stroke="midnightblue" d="M2739.2,-176.72C2907.95,-174.5 4019.49,-159.05 4380.63,-131.97"/>
<polygon fill="midnightblue" stroke="midnightblue" points="4381.13,-135.44 4390.83,-131.18 4380.59,-128.46 4381.13,-135.44"/>
</g>
<!-- Node41 -->
<g id="node39" class="node">
<title>Node41</title>
<g id="a_node39"><a xlink:title=" ">
<polygon fill="white" stroke="#bfbfbf" points="4246.13,-56.5 4246.13,-75.5 4371.13,-75.5 4371.13,-56.5 4246.13,-56.5"/>
<text text-anchor="middle" x="4308.63" y="-63.5" font-family="Helvetica,sans-Serif" font-size="10.00">swla/swla_chanspec.h</text>
</a>
</g>
</g>
<!-- Node6&#45;&gt;Node41 -->
<g id="edge57" class="edge">
<title>Node6&#45;&gt;Node41</title>
<path fill="none" stroke="midnightblue" d="M2739.19,-176.8C2919.18,-175.07 4167.12,-162.02 4239.63,-132 4263.53,-122.11 4284.09,-99.86 4296.4,-84.16"/>
<polygon fill="midnightblue" stroke="midnightblue" points="4299.46,-85.92 4302.66,-75.82 4293.86,-81.72 4299.46,-85.92"/>
</g>
<!-- Node42 -->
<g id="node40" class="node">
<title>Node42</title>
<g id="a_node40"><a xlink:href="wld__bgdfs_8h.html" target="_top" xlink:title=" ">
<polygon fill="white" stroke="black" points="3938.13,-112.5 3938.13,-131.5 4013.13,-131.5 4013.13,-112.5 3938.13,-112.5"/>
<text text-anchor="middle" x="3975.63" y="-119.5" font-family="Helvetica,sans-Serif" font-size="10.00">wld_bgdfs.h</text>
</a>
</g>
</g>
<!-- Node6&#45;&gt;Node42 -->
<g id="edge43" class="edge">
<title>Node6&#45;&gt;Node42</title>
<path fill="none" stroke="midnightblue" d="M2739.51,-177.28C2859.23,-178.56 3446.96,-181.92 3923.63,-132 3924.94,-131.86 3926.26,-131.71 3927.6,-131.55"/>
<polygon fill="midnightblue" stroke="midnightblue" points="3928.51,-134.96 3937.94,-130.13 3927.56,-128.03 3928.51,-134.96"/>
</g>
<!-- Node43 -->
<g id="node41" class="node">
<title>Node43</title>
<g id="a_node41"><a xlink:href="wld__rad__delayMgr_8h.html" target="_top" xlink:title=" ">
<polygon fill="white" stroke="black" points="4116.63,-112.5 4116.63,-131.5 4230.63,-131.5 4230.63,-112.5 4116.63,-112.5"/>
<text text-anchor="middle" x="4173.63" y="-119.5" font-family="Helvetica,sans-Serif" font-size="10.00">wld_rad_delayMgr.h</text>
</a>
</g>
</g>
<!-- Node6&#45;&gt;Node43 -->
<g id="edge45" class="edge">
<title>Node6&#45;&gt;Node43</title>
<path fill="none" stroke="midnightblue" d="M2739.39,-177.15C2868.67,-177.79 3547.07,-178.41 4098.63,-132 4101.15,-131.79 4103.72,-131.55 4106.33,-131.28"/>
<polygon fill="midnightblue" stroke="midnightblue" points="4106.91,-134.74 4116.46,-130.16 4106.14,-127.78 4106.91,-134.74"/>
</g>
<!-- Node44 -->
<g id="node42" class="node">
<title>Node44</title>
<g id="a_node42"><a xlink:href="wld__fsm_8h.html" target="_top" xlink:title=" ">
<polygon fill="white" stroke="black" points="4031.13,-112.5 4031.13,-131.5 4098.13,-131.5 4098.13,-112.5 4031.13,-112.5"/>
<text text-anchor="middle" x="4064.63" y="-119.5" font-family="Helvetica,sans-Serif" font-size="10.00">wld_fsm.h</text>
</a>
</g>
</g>
<!-- Node6&#45;&gt;Node44 -->
<g id="edge47" class="edge">
<title>Node6&#45;&gt;Node44</title>
<path fill="none" stroke="midnightblue" d="M2739.53,-176.77C2887.09,-175.18 3738.52,-164.71 4020.6,-132.01"/>
<polygon fill="midnightblue" stroke="midnightblue" points="4021.28,-135.45 4030.79,-130.79 4020.45,-128.5 4021.28,-135.45"/>
</g>
<!-- Node45 -->
<g id="node43" class="node">
<title>Node45</title>
<g id="a_node43"><a xlink:href="wld__sensing_8h.html" target="_top" xlink:title=" ">
<polygon fill="white" stroke="black" points="4286.63,-112.5 4286.63,-131.5 4372.63,-131.5 4372.63,-112.5 4286.63,-112.5"/>
<text text-anchor="middle" x="4329.63" y="-119.5" font-family="Helvetica,sans-Serif" font-size="10.00">wld_sensing.h</text>
</a>
</g>
</g>
<!-- Node6&#45;&gt;Node45 -->
<g id="edge49" class="edge">
<title>Node6&#45;&gt;Node45</title>
<path fill="none" stroke="midnightblue" d="M2739.15,-176.73C2902.56,-174.73 3947.82,-161.38 4263.63,-132 4267.78,-131.61 4272.09,-131.12 4276.44,-130.55"/>
<polygon fill="midnightblue" stroke="midnightblue" points="4277.16,-133.98 4286.58,-129.14 4276.19,-127.05 4277.16,-133.98"/>
</g>
<!-- Node46 -->
<g id="node44" class="node">
<title>Node46</title>
<g id="a_node44"><a xlink:href="wld__mld_8h.html" target="_top" xlink:title=" ">
<polygon fill="white" stroke="black" points="3814.13,-112.5 3814.13,-131.5 3881.13,-131.5 3881.13,-112.5 3814.13,-112.5"/>
<text text-anchor="middle" x="3847.63" y="-119.5" font-family="Helvetica,sans-Serif" font-size="10.00">wld_mld.h</text>
</a>
</g>
</g>
<!-- Node6&#45;&gt;Node46 -->
<g id="edge51" class="edge">
<title>Node6&#45;&gt;Node46</title>
<path fill="none" stroke="midnightblue" d="M2739.22,-176.61C2870.87,-174.14 3567.48,-160 3803.57,-132.02"/>
<polygon fill="midnightblue" stroke="midnightblue" points="3804.29,-135.46 3813.79,-130.77 3803.44,-128.51 3804.29,-135.46"/>
</g>
<!-- Node47 -->
<g id="node45" class="node">
<title>Node47</title>
<g id="a_node45"><a xlink:href="wld__autoCommitRadData_8h.html" target="_top" xlink:title=" ">
<polygon fill="white" stroke="black" points="4528.63,-112.5 4528.63,-131.5 4704.63,-131.5 4704.63,-112.5 4528.63,-112.5"/>
<text text-anchor="middle" x="4616.63" y="-119.5" font-family="Helvetica,sans-Serif" font-size="10.00">Utils/wld_autoCommitRadData.h</text>
</a>
</g>
</g>
<!-- Node6&#45;&gt;Node47 -->
<g id="edge53" class="edge">
<title>Node6&#45;&gt;Node47</title>
<path fill="none" stroke="midnightblue" d="M2739.55,-177.01C2889.64,-176.98 3781.28,-174.96 4518.6,-132.01"/>
<polygon fill="midnightblue" stroke="midnightblue" points="4518.85,-135.51 4528.62,-131.43 4518.44,-128.52 4518.85,-135.51"/>
</g>
<!-- Node48 -->
<g id="node46" class="node">
<title>Node48</title>
<g id="a_node46"><a xlink:href="wld__dmnMgt_8h.html" target="_top" xlink:title=" ">
<polygon fill="white" stroke="red" points="480.63,-112.5 480.63,-131.5 594.63,-131.5 594.63,-112.5 480.63,-112.5"/>
<text text-anchor="middle" x="537.63" y="-119.5" font-family="Helvetica,sans-Serif" font-size="10.00">Utils/wld_dmnMgt.h</text>
</a>
</g>
</g>
<!-- Node6&#45;&gt;Node48 -->
<g id="edge54" class="edge">
<title>Node6&#45;&gt;Node48</title>
<path fill="none" stroke="midnightblue" d="M2696.08,-176.88C2502.69,-175.77 1062.55,-166.47 605.12,-132"/>
<polygon fill="midnightblue" stroke="midnightblue" points="605.07,-128.48 594.83,-131.21 604.53,-135.46 605.07,-128.48"/>
</g>
<!-- Node50 -->
<g id="node47" class="node">
<title>Node50</title>
<g id="a_node47"><a xlink:title=" ">
<polygon fill="white" stroke="#bfbfbf" points="4761.13,-112.5 4761.13,-131.5 4862.13,-131.5 4862.13,-112.5 4761.13,-112.5"/>
<text text-anchor="middle" x="4811.63" y="-119.5" font-family="Helvetica,sans-Serif" font-size="10.00">swl/swl_staCap.h</text>
</a>
</g>
</g>
<!-- Node6&#45;&gt;Node50 -->
<g id="edge58" class="edge">
<title>Node6&#45;&gt;Node50</title>
<path fill="none" stroke="midnightblue" d="M2739.21,-176.87C2929.76,-175.63 4328.02,-165.51 4746.63,-132 4747.94,-131.9 4749.26,-131.78 4750.6,-131.66"/>
<polygon fill="midnightblue" stroke="midnightblue" points="4751.36,-135.1 4760.95,-130.59 4750.65,-128.14 4751.36,-135.1"/>
</g>
<!-- Node37&#45;&gt;Node8 -->
<g id="edge37" class="edge">
<title>Node37&#45;&gt;Node8</title>
<path fill="none" stroke="midnightblue" d="M3871.76,-63.96C3623.37,-57.12 2229.9,-18.77 1984.53,-12.02"/>
<polygon fill="midnightblue" stroke="midnightblue" points="1984.45,-8.51 1974.36,-11.74 1984.26,-15.51 1984.45,-8.51"/>
</g>
<!-- Node37&#45;&gt;Node13 -->
<g id="edge38" class="edge">
<title>Node37&#45;&gt;Node13</title>
<path fill="none" stroke="midnightblue" d="M3947.24,-61.25C4039.38,-52.05 4277.02,-28.33 4389.67,-17.09"/>
<polygon fill="midnightblue" stroke="midnightblue" points="4390.24,-20.55 4399.84,-16.07 4389.55,-13.58 4390.24,-20.55"/>
</g>
<!-- Node40&#45;&gt;Node7 -->
<g id="edge40" class="edge">
<title>Node40&#45;&gt;Node7</title>
<path fill="none" stroke="midnightblue" d="M4477.57,-112.44C4506.29,-103.32 4551.96,-88.81 4583.95,-78.65"/>
<polygon fill="midnightblue" stroke="midnightblue" points="4585.35,-81.88 4593.82,-75.52 4583.23,-75.21 4585.35,-81.88"/>
</g>
<!-- Node40&#45;&gt;Node13 -->
<g id="edge42" class="edge">
<title>Node40&#45;&gt;Node13</title>
<path fill="none" stroke="midnightblue" d="M4450.63,-112.37C4450.63,-94.62 4450.63,-53.67 4450.63,-29.6"/>
<polygon fill="midnightblue" stroke="midnightblue" points="4454.13,-29.59 4450.63,-19.59 4447.13,-29.59 4454.13,-29.59"/>
</g>
<!-- Node40&#45;&gt;Node41 -->
<g id="edge41" class="edge">
<title>Node40&#45;&gt;Node41</title>
<path fill="none" stroke="midnightblue" d="M4428.13,-112.44C4404.55,-103.48 4367.31,-89.31 4340.67,-79.18"/>
<polygon fill="midnightblue" stroke="midnightblue" points="4341.62,-75.8 4331.03,-75.52 4339.13,-82.34 4341.62,-75.8"/>
</g>
<!-- Node42&#45;&gt;Node37 -->
<g id="edge44" class="edge">
<title>Node42&#45;&gt;Node37</title>
<path fill="none" stroke="midnightblue" d="M3965.03,-112.32C3955.18,-104.26 3940.28,-92.08 3928.42,-82.37"/>
<polygon fill="midnightblue" stroke="midnightblue" points="3930.38,-79.46 3920.43,-75.83 3925.95,-84.88 3930.38,-79.46"/>
</g>
<!-- Node43&#45;&gt;Node6 -->
<g id="edge46" class="edge">
<title>Node43&#45;&gt;Node6</title>
<path fill="none" stroke="midnightblue" d="M4121.88,-131.52C4120.11,-131.7 4118.36,-131.85 4116.63,-132 3570.95,-177.92 2901.12,-177.79 2749.19,-177.17"/>
<polygon fill="midnightblue" stroke="midnightblue" points="2749.17,-173.67 2739.15,-177.12 2749.14,-180.67 2749.17,-173.67"/>
</g>
<!-- Node44&#45;&gt;Node37 -->
<g id="edge48" class="edge">
<title>Node44&#45;&gt;Node37</title>
<path fill="none" stroke="midnightblue" d="M4040.07,-112.44C4014.11,-103.4 3972.96,-89.06 3943.83,-78.92"/>
<polygon fill="midnightblue" stroke="midnightblue" points="3944.67,-75.5 3934.08,-75.52 3942.37,-82.11 3944.67,-75.5"/>
</g>
<!-- Node45&#45;&gt;Node6 -->
<g id="edge50" class="edge">
<title>Node45&#45;&gt;Node6</title>
<path fill="none" stroke="midnightblue" d="M4286.48,-131.51C4284.85,-131.69 4283.23,-131.85 4281.63,-132 3969.21,-161.07 2942.88,-174.44 2749.25,-176.66"/>
<polygon fill="midnightblue" stroke="midnightblue" points="2749.13,-173.16 2739.17,-176.78 2749.21,-180.16 2749.13,-173.16"/>
</g>
<!-- Node46&#45;&gt;Node37 -->
<g id="edge52" class="edge">
<title>Node46&#45;&gt;Node37</title>
<path fill="none" stroke="midnightblue" d="M3857.59,-112.32C3866.76,-104.34 3880.57,-92.31 3891.66,-82.65"/>
<polygon fill="midnightblue" stroke="midnightblue" points="3894.25,-85.04 3899.49,-75.83 3889.65,-79.76 3894.25,-85.04"/>
</g>
<!-- Node48&#45;&gt;Node9 -->
<g id="edge55" class="edge">
<title>Node48&#45;&gt;Node9</title>
<path fill="none" stroke="midnightblue" d="M480.41,-113.11C477.44,-112.73 474.5,-112.36 471.63,-112 352.49,-97.24 213.3,-82.23 133.31,-73.81"/>
<polygon fill="midnightblue" stroke="midnightblue" points="133.21,-70.28 122.9,-72.72 132.48,-77.25 133.21,-70.28"/>
</g>
<!-- Node48&#45;&gt;Node37 -->
<g id="edge56" class="edge">
<title>Node48&#45;&gt;Node37</title>
<path fill="none" stroke="midnightblue" d="M594.82,-112.77C597.8,-112.47 600.75,-112.22 603.63,-112 1277.28,-61.67 3506.84,-65.85 3861.81,-66.85"/>
<polygon fill="midnightblue" stroke="midnightblue" points="3861.99,-70.35 3872,-66.88 3862.01,-63.35 3861.99,-70.35"/>
</g>
<!-- Node79&#45;&gt;Node9 -->
<g id="edge60" class="edge">
<title>Node79&#45;&gt;Node9</title>
<path fill="none" stroke="midnightblue" d="M1201.52,-177.11C969.01,-177.35 50.61,-175.53 8.63,-132 -8.11,-114.65 18.38,-93.92 41.05,-80.61"/>
<polygon fill="midnightblue" stroke="midnightblue" points="43.06,-83.5 50.08,-75.56 39.65,-77.39 43.06,-83.5"/>
</g>
<!-- Node82&#45;&gt;Node6 -->
<g id="edge63" class="edge">
<title>Node82&#45;&gt;Node6</title>
<path fill="none" stroke="midnightblue" d="M2717.63,-229.98C2717.63,-221.58 2717.63,-208.48 2717.63,-197.66"/>
<polygon fill="midnightblue" stroke="midnightblue" points="2721.13,-197.51 2717.63,-187.51 2714.13,-197.51 2721.13,-197.51"/>
</g>
</g>
</svg>
