<?xml version="1.0" encoding="UTF-8" standalone="no"?>
<!DOCTYPE svg PUBLIC "-//W3C//DTD SVG 1.1//EN"
 "http://www.w3.org/Graphics/SVG/1.1/DTD/svg11.dtd">
<!-- Generated by graphviz version 2.43.0 (0)
 -->
<!-- Title: include/wld/wld_nl80211_types.h Pages: 1 -->
<svg width="5831pt" height="263pt"
 viewBox="0.00 0.00 5830.95 263.00" xmlns="http://www.w3.org/2000/svg" xmlns:xlink="http://www.w3.org/1999/xlink">
<g id="graph0" class="graph" transform="scale(1 1) rotate(0) translate(4 259)">
<title>include/wld/wld_nl80211_types.h</title>
<polygon fill="white" stroke="transparent" points="-4,4 -4,-259 5826.95,-259 5826.95,4 -4,4"/>
<!-- Node1 -->
<g id="node1" class="node">
<title>Node1</title>
<g id="a_node1"><a xlink:title=" ">
<polygon fill="#bfbfbf" stroke="black" points="5476.95,-224.5 5476.95,-254.5 5613.95,-254.5 5613.95,-224.5 5476.95,-224.5"/>
<text text-anchor="start" x="5484.95" y="-242.5" font-family="Helvetica,sans-Serif" font-size="10.00">include/wld/wld_nl80211</text>
<text text-anchor="middle" x="5545.45" y="-231.5" font-family="Helvetica,sans-Serif" font-size="10.00">_types.h</text>
</a>
</g>
</g>
<!-- Node2 -->
<g id="node2" class="node">
<title>Node2</title>
<g id="a_node2"><a xlink:title=" ">
<polygon fill="white" stroke="#bfbfbf" points="5430.95,-0.5 5430.95,-19.5 5483.95,-19.5 5483.95,-0.5 5430.95,-0.5"/>
<text text-anchor="middle" x="5457.45" y="-7.5" font-family="Helvetica,sans-Serif" font-size="10.00">stdint.h</text>
</a>
</g>
</g>
<!-- Node1&#45;&gt;Node2 -->
<g id="edge1" class="edge">
<title>Node1&#45;&gt;Node2</title>
<path fill="none" stroke="midnightblue" d="M5535.55,-224.42C5528.93,-214.57 5520.38,-200.9 5514.45,-188 5488.99,-132.64 5470.09,-62.7 5461.92,-29.77"/>
<polygon fill="midnightblue" stroke="midnightblue" points="5465.24,-28.64 5459.48,-19.75 5458.44,-30.29 5465.24,-28.64"/>
</g>
<!-- Node3 -->
<g id="node3" class="node">
<title>Node3</title>
<g id="a_node3"><a xlink:href="wld_8h.html" target="_top" xlink:title=" ">
<polygon fill="white" stroke="red" points="3317.95,-168.5 3317.95,-187.5 3360.95,-187.5 3360.95,-168.5 3317.95,-168.5"/>
<text text-anchor="middle" x="3339.45" y="-175.5" font-family="Helvetica,sans-Serif" font-size="10.00">wld.h</text>
</a>
</g>
</g>
<!-- Node1&#45;&gt;Node3 -->
<g id="edge2" class="edge">
<title>Node1&#45;&gt;Node3</title>
<path fill="none" stroke="midnightblue" d="M5476.71,-236.65C5133.38,-227.39 3611.43,-186.34 3371.38,-179.86"/>
<polygon fill="midnightblue" stroke="midnightblue" points="3371.32,-176.36 3361.23,-179.59 3371.13,-183.36 3371.32,-176.36"/>
</g>
<!-- Node68 -->
<g id="node49" class="node">
<title>Node68</title>
<g id="a_node49"><a xlink:title=" ">
<polygon fill="white" stroke="#bfbfbf" points="5523.45,-168.5 5523.45,-187.5 5669.45,-187.5 5669.45,-168.5 5523.45,-168.5"/>
<text text-anchor="middle" x="5596.45" y="-175.5" font-family="Helvetica,sans-Serif" font-size="10.00">swl/swl_common_trilean.h</text>
</a>
</g>
</g>
<!-- Node1&#45;&gt;Node68 -->
<g id="edge62" class="edge">
<title>Node1&#45;&gt;Node68</title>
<path fill="none" stroke="midnightblue" d="M5557.54,-224.4C5565.03,-215.66 5574.67,-204.41 5582.48,-195.3"/>
<polygon fill="midnightblue" stroke="midnightblue" points="5585.18,-197.53 5589.03,-187.66 5579.87,-192.97 5585.18,-197.53"/>
</g>
<!-- Node75 -->
<g id="node50" class="node">
<title>Node75</title>
<g id="a_node50"><a xlink:title=" ">
<polygon fill="white" stroke="#bfbfbf" points="5687.95,-168.5 5687.95,-187.5 5822.95,-187.5 5822.95,-168.5 5687.95,-168.5"/>
<text text-anchor="middle" x="5755.45" y="-175.5" font-family="Helvetica,sans-Serif" font-size="10.00">swl/swl_common_mcs.h</text>
</a>
</g>
</g>
<!-- Node1&#45;&gt;Node75 -->
<g id="edge63" class="edge">
<title>Node1&#45;&gt;Node75</title>
<path fill="none" stroke="midnightblue" d="M5594.95,-224.47C5631.82,-214.03 5681.48,-199.96 5715.76,-190.25"/>
<polygon fill="midnightblue" stroke="midnightblue" points="5716.76,-193.6 5725.43,-187.51 5714.85,-186.87 5716.76,-193.6"/>
</g>
<!-- Node3&#45;&gt;Node2 -->
<g id="edge4" class="edge">
<title>Node3&#45;&gt;Node2</title>
<path fill="none" stroke="midnightblue" d="M3361.24,-176.88C3580.05,-175.61 5373.86,-164.23 5417.45,-132 5449.68,-108.18 5456.33,-57.49 5457.46,-29.88"/>
<polygon fill="midnightblue" stroke="midnightblue" points="5460.96,-29.68 5457.67,-19.61 5453.97,-29.54 5460.96,-29.68"/>
</g>
<!-- Node4 -->
<g id="node4" class="node">
<title>Node4</title>
<g id="a_node4"><a xlink:title=" ">
<polygon fill="white" stroke="#bfbfbf" points="221.45,-56.5 221.45,-75.5 283.45,-75.5 283.45,-56.5 221.45,-56.5"/>
<text text-anchor="middle" x="252.45" y="-63.5" font-family="Helvetica,sans-Serif" font-size="10.00">stdbool.h</text>
</a>
</g>
</g>
<!-- Node3&#45;&gt;Node4 -->
<g id="edge3" class="edge">
<title>Node3&#45;&gt;Node4</title>
<path fill="none" stroke="midnightblue" d="M3317.54,-176.92C3031.62,-175.79 43.36,-163.32 12.45,-132 -47.44,-71.29 128.02,-65.57 211.27,-66.12"/>
<polygon fill="midnightblue" stroke="midnightblue" points="211.38,-69.63 221.42,-66.23 211.45,-62.63 211.38,-69.63"/>
</g>
<!-- Node5 -->
<g id="node5" class="node">
<title>Node5</title>
<g id="a_node5"><a xlink:title=" ">
<polygon fill="white" stroke="#bfbfbf" points="3886.45,-56.5 3886.45,-75.5 3996.45,-75.5 3996.45,-56.5 3886.45,-56.5"/>
<text text-anchor="middle" x="3941.45" y="-63.5" font-family="Helvetica,sans-Serif" font-size="10.00">swl/swl_common.h</text>
</a>
</g>
</g>
<!-- Node3&#45;&gt;Node5 -->
<g id="edge5" class="edge">
<title>Node3&#45;&gt;Node5</title>
<path fill="none" stroke="midnightblue" d="M3360.99,-176.64C3446.27,-174.99 3760.17,-166.64 3852.45,-132 3881.13,-121.23 3908.75,-98.51 3925.41,-83"/>
<polygon fill="midnightblue" stroke="midnightblue" points="3928.29,-85.09 3933.08,-75.65 3923.44,-80.04 3928.29,-85.09"/>
</g>
<!-- Node6 -->
<g id="node6" class="node">
<title>Node6</title>
<g id="a_node6"><a xlink:title=" ">
<polygon fill="white" stroke="#bfbfbf" points="21.45,-112.5 21.45,-131.5 157.45,-131.5 157.45,-112.5 21.45,-112.5"/>
<text text-anchor="middle" x="89.45" y="-119.5" font-family="Helvetica,sans-Serif" font-size="10.00">swla/swla_commonLib.h</text>
</a>
</g>
</g>
<!-- Node3&#45;&gt;Node6 -->
<g id="edge6" class="edge">
<title>Node3&#45;&gt;Node6</title>
<path fill="none" stroke="midnightblue" d="M3317.61,-177C3073.56,-176.97 853.69,-175.47 168.08,-132.02"/>
<polygon fill="midnightblue" stroke="midnightblue" points="168.06,-128.51 157.85,-131.36 167.61,-135.5 168.06,-128.51"/>
</g>
<!-- Node7 -->
<g id="node7" class="node">
<title>Node7</title>
<g id="a_node7"><a xlink:title=" ">
<polygon fill="white" stroke="#bfbfbf" points="175.45,-112.5 175.45,-131.5 263.45,-131.5 263.45,-112.5 175.45,-112.5"/>
<text text-anchor="middle" x="219.45" y="-119.5" font-family="Helvetica,sans-Serif" font-size="10.00">swl/swl_uuid.h</text>
</a>
</g>
</g>
<!-- Node3&#45;&gt;Node7 -->
<g id="edge7" class="edge">
<title>Node3&#45;&gt;Node7</title>
<path fill="none" stroke="midnightblue" d="M3317.85,-176.89C3063.4,-175.52 640.89,-161.76 273.65,-131.89"/>
<polygon fill="midnightblue" stroke="midnightblue" points="273.9,-128.4 263.63,-131.02 273.29,-135.37 273.9,-128.4"/>
</g>
<!-- Node8 -->
<g id="node8" class="node">
<title>Node8</title>
<g id="a_node8"><a xlink:title=" ">
<polygon fill="white" stroke="#bfbfbf" points="281.45,-112.5 281.45,-131.5 433.45,-131.5 433.45,-112.5 281.45,-112.5"/>
<text text-anchor="middle" x="357.45" y="-119.5" font-family="Helvetica,sans-Serif" font-size="10.00">swla/swla_radioStandards.h</text>
</a>
</g>
</g>
<!-- Node3&#45;&gt;Node8 -->
<g id="edge8" class="edge">
<title>Node3&#45;&gt;Node8</title>
<path fill="none" stroke="midnightblue" d="M3317.74,-176.93C3086.28,-176.2 1069.93,-168.77 443.9,-132.02"/>
<polygon fill="midnightblue" stroke="midnightblue" points="444.07,-128.52 433.88,-131.42 443.65,-135.51 444.07,-128.52"/>
</g>
<!-- Node9 -->
<g id="node9" class="node">
<title>Node9</title>
<g id="a_node9"><a xlink:title=" ">
<polygon fill="white" stroke="#bfbfbf" points="3787.95,-0.5 3787.95,-19.5 3888.95,-19.5 3888.95,-0.5 3787.95,-0.5"/>
<text text-anchor="middle" x="3838.45" y="-7.5" font-family="Helvetica,sans-Serif" font-size="10.00">swla/swla_time.h</text>
</a>
</g>
</g>
<!-- Node3&#45;&gt;Node9 -->
<g id="edge9" class="edge">
<title>Node3&#45;&gt;Node9</title>
<path fill="none" stroke="midnightblue" d="M3361.2,-176.25C3447.65,-173.06 3763.94,-159.6 3798.45,-132 3829.6,-107.09 3836.71,-57.27 3838.2,-29.97"/>
<polygon fill="midnightblue" stroke="midnightblue" points="3841.7,-29.9 3838.54,-19.79 3834.71,-29.66 3841.7,-29.9"/>
</g>
<!-- Node10 -->
<g id="node10" class="node">
<title>Node10</title>
<g id="a_node10"><a xlink:title=" ">
<polygon fill="white" stroke="#bfbfbf" points="588.95,-112.5 588.95,-131.5 717.95,-131.5 717.95,-112.5 588.95,-112.5"/>
<text text-anchor="middle" x="653.45" y="-119.5" font-family="Helvetica,sans-Serif" font-size="10.00">swla/swla_time_spec.h</text>
</a>
</g>
</g>
<!-- Node3&#45;&gt;Node10 -->
<g id="edge10" class="edge">
<title>Node3&#45;&gt;Node10</title>
<path fill="none" stroke="midnightblue" d="M3317.87,-176.94C3099.95,-176.28 1293.77,-169.75 728.27,-131.95"/>
<polygon fill="midnightblue" stroke="midnightblue" points="728.2,-128.44 717.99,-131.25 727.73,-135.42 728.2,-128.44"/>
</g>
<!-- Node11 -->
<g id="node11" class="node">
<title>Node11</title>
<g id="a_node11"><a xlink:title=" ">
<polygon fill="white" stroke="#bfbfbf" points="736.45,-112.5 736.45,-131.5 830.45,-131.5 830.45,-112.5 736.45,-112.5"/>
<text text-anchor="middle" x="783.45" y="-119.5" font-family="Helvetica,sans-Serif" font-size="10.00">swla/swla_oui.h</text>
</a>
</g>
</g>
<!-- Node3&#45;&gt;Node11 -->
<g id="edge11" class="edge">
<title>Node3&#45;&gt;Node11</title>
<path fill="none" stroke="midnightblue" d="M3317.79,-177.03C3104.75,-177.31 1380.68,-178.15 840.95,-131.97"/>
<polygon fill="midnightblue" stroke="midnightblue" points="841.02,-128.47 830.75,-131.08 840.41,-135.44 841.02,-128.47"/>
</g>
<!-- Node12 -->
<g id="node12" class="node">
<title>Node12</title>
<g id="a_node12"><a xlink:title=" ">
<polygon fill="white" stroke="#bfbfbf" points="848.45,-112.5 848.45,-131.5 976.45,-131.5 976.45,-112.5 848.45,-112.5"/>
<text text-anchor="middle" x="912.45" y="-119.5" font-family="Helvetica,sans-Serif" font-size="10.00">swla/swla_delayExec.h</text>
</a>
</g>
</g>
<!-- Node3&#45;&gt;Node12 -->
<g id="edge12" class="edge">
<title>Node3&#45;&gt;Node12</title>
<path fill="none" stroke="midnightblue" d="M3317.79,-176.9C3111.8,-175.87 1495.47,-166.81 986.5,-131.97"/>
<polygon fill="midnightblue" stroke="midnightblue" points="986.73,-128.48 976.51,-131.28 986.24,-135.47 986.73,-128.48"/>
</g>
<!-- Node13 -->
<g id="node13" class="node">
<title>Node13</title>
<g id="a_node13"><a xlink:title=" ">
<polygon fill="white" stroke="#bfbfbf" points="994.95,-112.5 994.95,-131.5 1113.95,-131.5 1113.95,-112.5 994.95,-112.5"/>
<text text-anchor="middle" x="1054.45" y="-119.5" font-family="Helvetica,sans-Serif" font-size="10.00">swla/swla_function.h</text>
</a>
</g>
</g>
<!-- Node3&#45;&gt;Node13 -->
<g id="edge13" class="edge">
<title>Node3&#45;&gt;Node13</title>
<path fill="none" stroke="midnightblue" d="M3317.81,-176.89C3118.73,-175.87 1603.09,-167.05 1124.2,-132.03"/>
<polygon fill="midnightblue" stroke="midnightblue" points="1124.35,-128.53 1114.12,-131.28 1123.83,-135.51 1124.35,-128.53"/>
</g>
<!-- Node14 -->
<g id="node14" class="node">
<title>Node14</title>
<g id="a_node14"><a xlink:title=" ">
<polygon fill="white" stroke="#bfbfbf" points="1131.95,-112.5 1131.95,-131.5 1272.95,-131.5 1272.95,-112.5 1131.95,-112.5"/>
<text text-anchor="middle" x="1202.45" y="-119.5" font-family="Helvetica,sans-Serif" font-size="10.00">swl/swl_usp_cmdStatus.h</text>
</a>
</g>
</g>
<!-- Node3&#45;&gt;Node14 -->
<g id="edge14" class="edge">
<title>Node3&#45;&gt;Node14</title>
<path fill="none" stroke="midnightblue" d="M3317.89,-176.8C3127.39,-174.97 1728.86,-160.72 1283.12,-131.96"/>
<polygon fill="midnightblue" stroke="midnightblue" points="1283.3,-128.46 1273.09,-131.3 1282.84,-135.45 1283.3,-128.46"/>
</g>
<!-- Node15 -->
<g id="node15" class="node">
<title>Node15</title>
<g id="a_node15"><a xlink:title=" ">
<polygon fill="white" stroke="#bfbfbf" points="1291.45,-112.5 1291.45,-131.5 1377.45,-131.5 1377.45,-112.5 1291.45,-112.5"/>
<text text-anchor="middle" x="1334.45" y="-119.5" font-family="Helvetica,sans-Serif" font-size="10.00">swl/swl_wps.h</text>
</a>
</g>
</g>
<!-- Node3&#45;&gt;Node15 -->
<g id="edge15" class="edge">
<title>Node3&#45;&gt;Node15</title>
<path fill="none" stroke="midnightblue" d="M3317.8,-176.94C3132.46,-176.41 1809.7,-171.25 1387.62,-131.92"/>
<polygon fill="midnightblue" stroke="midnightblue" points="1387.8,-128.43 1377.52,-130.96 1387.14,-135.39 1387.8,-128.43"/>
</g>
<!-- Node16 -->
<g id="node16" class="node">
<title>Node16</title>
<g id="a_node16"><a xlink:title=" ">
<polygon fill="white" stroke="#bfbfbf" points="1395.45,-112.5 1395.45,-131.5 1499.45,-131.5 1499.45,-112.5 1395.45,-112.5"/>
<text text-anchor="middle" x="1447.45" y="-119.5" font-family="Helvetica,sans-Serif" font-size="10.00">swl/swl_security.h</text>
</a>
</g>
</g>
<!-- Node3&#45;&gt;Node16 -->
<g id="edge16" class="edge">
<title>Node3&#45;&gt;Node16</title>
<path fill="none" stroke="midnightblue" d="M3317.76,-176.83C3138.97,-175.39 1905.81,-164.43 1509.7,-131.97"/>
<polygon fill="midnightblue" stroke="midnightblue" points="1509.9,-128.48 1499.65,-131.13 1509.32,-135.45 1509.9,-128.48"/>
</g>
<!-- Node17 -->
<g id="node17" class="node">
<title>Node17</title>
<g id="a_node17"><a xlink:title=" ">
<polygon fill="white" stroke="#bfbfbf" points="1517.95,-112.5 1517.95,-131.5 1600.95,-131.5 1600.95,-112.5 1517.95,-112.5"/>
<text text-anchor="middle" x="1559.45" y="-119.5" font-family="Helvetica,sans-Serif" font-size="10.00">amxc/amxc.h</text>
</a>
</g>
</g>
<!-- Node3&#45;&gt;Node17 -->
<g id="edge17" class="edge">
<title>Node3&#45;&gt;Node17</title>
<path fill="none" stroke="midnightblue" d="M3317.87,-176.88C3145.21,-175.86 1985.53,-167.78 1611.17,-131.86"/>
<polygon fill="midnightblue" stroke="midnightblue" points="1611.43,-128.37 1601.13,-130.88 1610.74,-135.34 1611.43,-128.37"/>
</g>
<!-- Node18 -->
<g id="node18" class="node">
<title>Node18</title>
<g id="a_node18"><a xlink:title=" ">
<polygon fill="white" stroke="#bfbfbf" points="1619.45,-112.5 1619.45,-131.5 1703.45,-131.5 1703.45,-112.5 1619.45,-112.5"/>
<text text-anchor="middle" x="1661.45" y="-119.5" font-family="Helvetica,sans-Serif" font-size="10.00">amxp/amxp.h</text>
</a>
</g>
</g>
<!-- Node3&#45;&gt;Node18 -->
<g id="edge18" class="edge">
<title>Node3&#45;&gt;Node18</title>
<path fill="none" stroke="midnightblue" d="M3317.83,-176.84C3150.98,-175.54 2066.02,-165.9 1713.89,-131.96"/>
<polygon fill="midnightblue" stroke="midnightblue" points="1713.98,-128.45 1703.69,-130.95 1713.29,-135.42 1713.98,-128.45"/>
</g>
<!-- Node19 -->
<g id="node19" class="node">
<title>Node19</title>
<g id="a_node19"><a xlink:title=" ">
<polygon fill="white" stroke="#bfbfbf" points="1721.45,-112.5 1721.45,-131.5 1861.45,-131.5 1861.45,-112.5 1721.45,-112.5"/>
<text text-anchor="middle" x="1791.45" y="-119.5" font-family="Helvetica,sans-Serif" font-size="10.00">amxd/amxd_parameter.h</text>
</a>
</g>
</g>
<!-- Node3&#45;&gt;Node19 -->
<g id="edge19" class="edge">
<title>Node3&#45;&gt;Node19</title>
<path fill="none" stroke="midnightblue" d="M3317.85,-177.01C3185.25,-176.94 2467.73,-174.54 1871.72,-132.02"/>
<polygon fill="midnightblue" stroke="midnightblue" points="1871.86,-128.53 1861.64,-131.3 1871.36,-135.51 1871.86,-128.53"/>
</g>
<!-- Node20 -->
<g id="node20" class="node">
<title>Node20</title>
<g id="a_node20"><a xlink:title=" ">
<polygon fill="white" stroke="#bfbfbf" points="1879.95,-112.5 1879.95,-131.5 1998.95,-131.5 1998.95,-112.5 1879.95,-112.5"/>
<text text-anchor="middle" x="1939.45" y="-119.5" font-family="Helvetica,sans-Serif" font-size="10.00">amxd/amxd_action.h</text>
</a>
</g>
</g>
<!-- Node3&#45;&gt;Node20 -->
<g id="edge20" class="edge">
<title>Node3&#45;&gt;Node20</title>
<path fill="none" stroke="midnightblue" d="M3317.85,-177.06C3192.58,-177.25 2546.66,-176.01 2009.4,-132.08"/>
<polygon fill="midnightblue" stroke="midnightblue" points="2009.37,-128.57 1999.12,-131.23 2008.8,-135.54 2009.37,-128.57"/>
</g>
<!-- Node21 -->
<g id="node21" class="node">
<title>Node21</title>
<g id="a_node21"><a xlink:title=" ">
<polygon fill="white" stroke="#bfbfbf" points="2016.95,-112.5 2016.95,-131.5 2191.95,-131.5 2191.95,-112.5 2016.95,-112.5"/>
<text text-anchor="middle" x="2104.45" y="-119.5" font-family="Helvetica,sans-Serif" font-size="10.00">amxd/amxd_object_parameter.h</text>
</a>
</g>
</g>
<!-- Node3&#45;&gt;Node21 -->
<g id="edge21" class="edge">
<title>Node3&#45;&gt;Node21</title>
<path fill="none" stroke="midnightblue" d="M3317.73,-176.57C3203.37,-174.22 2659.33,-161.92 2202.31,-132.02"/>
<polygon fill="midnightblue" stroke="midnightblue" points="2202.41,-128.52 2192.21,-131.35 2201.95,-135.5 2202.41,-128.52"/>
</g>
<!-- Node22 -->
<g id="node22" class="node">
<title>Node22</title>
<g id="a_node22"><a xlink:title=" ">
<polygon fill="white" stroke="#bfbfbf" points="2210.45,-112.5 2210.45,-131.5 2362.45,-131.5 2362.45,-112.5 2210.45,-112.5"/>
<text text-anchor="middle" x="2286.45" y="-119.5" font-family="Helvetica,sans-Serif" font-size="10.00">amxd/amxd_object_event.h</text>
</a>
</g>
</g>
<!-- Node3&#45;&gt;Node22 -->
<g id="edge22" class="edge">
<title>Node3&#45;&gt;Node22</title>
<path fill="none" stroke="midnightblue" d="M3317.61,-176.46C3213.6,-173.8 2757.84,-161.02 2373.11,-132.08"/>
<polygon fill="midnightblue" stroke="midnightblue" points="2373.12,-128.57 2362.89,-131.31 2372.6,-135.55 2373.12,-128.57"/>
</g>
<!-- Node23 -->
<g id="node23" class="node">
<title>Node23</title>
<g id="a_node23"><a xlink:title=" ">
<polygon fill="white" stroke="#bfbfbf" points="2380.95,-112.5 2380.95,-131.5 2509.95,-131.5 2509.95,-112.5 2380.95,-112.5"/>
<text text-anchor="middle" x="2445.45" y="-119.5" font-family="Helvetica,sans-Serif" font-size="10.00">amxd/amxd_function.h</text>
</a>
</g>
</g>
<!-- Node3&#45;&gt;Node23 -->
<g id="edge23" class="edge">
<title>Node3&#45;&gt;Node23</title>
<path fill="none" stroke="midnightblue" d="M3317.85,-176.36C3224.15,-173.45 2843.45,-160.47 2520.33,-132.11"/>
<polygon fill="midnightblue" stroke="midnightblue" points="2520.58,-128.62 2510.31,-131.23 2519.96,-135.59 2520.58,-128.62"/>
</g>
<!-- Node24 -->
<g id="node24" class="node">
<title>Node24</title>
<g id="a_node24"><a xlink:title=" ">
<polygon fill="white" stroke="#bfbfbf" points="2527.95,-112.5 2527.95,-131.5 2696.95,-131.5 2696.95,-112.5 2527.95,-112.5"/>
<text text-anchor="middle" x="2612.45" y="-119.5" font-family="Helvetica,sans-Serif" font-size="10.00">amxd/amxd_object_hierarchy.h</text>
</a>
</g>
</g>
<!-- Node3&#45;&gt;Node24 -->
<g id="edge24" class="edge">
<title>Node3&#45;&gt;Node24</title>
<path fill="none" stroke="midnightblue" d="M3317.82,-175.67C3238.14,-170.71 2953.38,-152.63 2707.3,-132.14"/>
<polygon fill="midnightblue" stroke="midnightblue" points="2707.35,-128.63 2697.09,-131.28 2706.77,-135.6 2707.35,-128.63"/>
</g>
<!-- Node25 -->
<g id="node25" class="node">
<title>Node25</title>
<g id="a_node25"><a xlink:title=" ">
<polygon fill="white" stroke="#bfbfbf" points="2714.95,-112.5 2714.95,-131.5 2833.95,-131.5 2833.95,-112.5 2714.95,-112.5"/>
<text text-anchor="middle" x="2774.45" y="-119.5" font-family="Helvetica,sans-Serif" font-size="10.00">amxd/amxd_object.h</text>
</a>
</g>
</g>
<!-- Node3&#45;&gt;Node25 -->
<g id="edge25" class="edge">
<title>Node3&#45;&gt;Node25</title>
<path fill="none" stroke="midnightblue" d="M3317.62,-175.35C3249.35,-170.11 3033.62,-153.05 2844.28,-132.17"/>
<polygon fill="midnightblue" stroke="midnightblue" points="2844.46,-128.67 2834.14,-131.04 2843.69,-135.62 2844.46,-128.67"/>
</g>
<!-- Node26 -->
<g id="node26" class="node">
<title>Node26</title>
<g id="a_node26"><a xlink:title=" ">
<polygon fill="white" stroke="#bfbfbf" points="2851.95,-112.5 2851.95,-131.5 2956.95,-131.5 2956.95,-112.5 2851.95,-112.5"/>
<text text-anchor="middle" x="2904.45" y="-119.5" font-family="Helvetica,sans-Serif" font-size="10.00">amxd/amxd_dm.h</text>
</a>
</g>
</g>
<!-- Node3&#45;&gt;Node26 -->
<g id="edge26" class="edge">
<title>Node3&#45;&gt;Node26</title>
<path fill="none" stroke="midnightblue" d="M3317.57,-174.55C3261.36,-168.2 3107.11,-150.55 2967.25,-132.08"/>
<polygon fill="midnightblue" stroke="midnightblue" points="2967.58,-128.59 2957.21,-130.75 2966.66,-135.53 2967.58,-128.59"/>
</g>
<!-- Node27 -->
<g id="node27" class="node">
<title>Node27</title>
<g id="a_node27"><a xlink:title=" ">
<polygon fill="white" stroke="#bfbfbf" points="2975.45,-112.5 2975.45,-131.5 3119.45,-131.5 3119.45,-112.5 2975.45,-112.5"/>
<text text-anchor="middle" x="3047.45" y="-119.5" font-family="Helvetica,sans-Serif" font-size="10.00">amxd/amxd_transaction.h</text>
</a>
</g>
</g>
<!-- Node3&#45;&gt;Node27 -->
<g id="edge27" class="edge">
<title>Node3&#45;&gt;Node27</title>
<path fill="none" stroke="midnightblue" d="M3317.51,-172.94C3272.5,-164.62 3168.52,-145.39 3103.51,-133.37"/>
<polygon fill="midnightblue" stroke="midnightblue" points="3103.9,-129.88 3093.43,-131.5 3102.63,-136.76 3103.9,-129.88"/>
</g>
<!-- Node28 -->
<g id="node28" class="node">
<title>Node28</title>
<g id="a_node28"><a xlink:title=" ">
<polygon fill="white" stroke="#bfbfbf" points="3137.45,-112.5 3137.45,-131.5 3253.45,-131.5 3253.45,-112.5 3137.45,-112.5"/>
<text text-anchor="middle" x="3195.45" y="-119.5" font-family="Helvetica,sans-Serif" font-size="10.00">amxb/amxb_types.h</text>
</a>
</g>
</g>
<!-- Node3&#45;&gt;Node28 -->
<g id="edge28" class="edge">
<title>Node3&#45;&gt;Node28</title>
<path fill="none" stroke="midnightblue" d="M3317.89,-168.92C3294.14,-160.01 3255.65,-145.57 3228.17,-135.27"/>
<polygon fill="midnightblue" stroke="midnightblue" points="3229.18,-131.91 3218.59,-131.68 3226.73,-138.47 3229.18,-131.91"/>
</g>
<!-- Node29 -->
<g id="node29" class="node">
<title>Node29</title>
<g id="a_node29"><a xlink:title=" ">
<polygon fill="white" stroke="#bfbfbf" points="3271.45,-112.5 3271.45,-131.5 3407.45,-131.5 3407.45,-112.5 3271.45,-112.5"/>
<text text-anchor="middle" x="3339.45" y="-119.5" font-family="Helvetica,sans-Serif" font-size="10.00">amxb/amxb_operators.h</text>
</a>
</g>
</g>
<!-- Node3&#45;&gt;Node29 -->
<g id="edge29" class="edge">
<title>Node3&#45;&gt;Node29</title>
<path fill="none" stroke="midnightblue" d="M3339.45,-168.08C3339.45,-161.01 3339.45,-150.86 3339.45,-141.99"/>
<polygon fill="midnightblue" stroke="midnightblue" points="3342.95,-141.75 3339.45,-131.75 3335.95,-141.75 3342.95,-141.75"/>
</g>
<!-- Node30 -->
<g id="node30" class="node">
<title>Node30</title>
<g id="a_node30"><a xlink:title=" ">
<polygon fill="white" stroke="#bfbfbf" points="3425.45,-112.5 3425.45,-131.5 3537.45,-131.5 3537.45,-112.5 3425.45,-112.5"/>
<text text-anchor="middle" x="3481.45" y="-119.5" font-family="Helvetica,sans-Serif" font-size="10.00">amxb/amxb_error.h</text>
</a>
</g>
</g>
<!-- Node3&#45;&gt;Node30 -->
<g id="edge30" class="edge">
<title>Node3&#45;&gt;Node30</title>
<path fill="none" stroke="midnightblue" d="M3361.02,-168.8C3384.51,-159.86 3422.34,-145.48 3449.33,-135.21"/>
<polygon fill="midnightblue" stroke="midnightblue" points="3450.64,-138.46 3458.74,-131.64 3448.15,-131.92 3450.64,-138.46"/>
</g>
<!-- Node31 -->
<g id="node31" class="node">
<title>Node31</title>
<g id="a_node31"><a xlink:title=" ">
<polygon fill="white" stroke="#bfbfbf" points="3555.95,-112.5 3555.95,-131.5 3638.95,-131.5 3638.95,-112.5 3555.95,-112.5"/>
<text text-anchor="middle" x="3597.45" y="-119.5" font-family="Helvetica,sans-Serif" font-size="10.00">amxo/amxo.h</text>
</a>
</g>
</g>
<!-- Node3&#45;&gt;Node31 -->
<g id="edge31" class="edge">
<title>Node3&#45;&gt;Node31</title>
<path fill="none" stroke="midnightblue" d="M3361.01,-172.49C3401.56,-164 3490.22,-145.44 3546.71,-133.62"/>
<polygon fill="midnightblue" stroke="midnightblue" points="3547.45,-137.04 3556.52,-131.57 3546.01,-130.19 3547.45,-137.04"/>
</g>
<!-- Node32 -->
<g id="node32" class="node">
<title>Node32</title>
<g id="a_node32"><a xlink:title=" ">
<polygon fill="white" stroke="#bfbfbf" points="3656.95,-112.5 3656.95,-131.5 3771.95,-131.5 3771.95,-112.5 3656.95,-112.5"/>
<text text-anchor="middle" x="3714.45" y="-119.5" font-family="Helvetica,sans-Serif" font-size="10.00">amxo/amxo_types.h</text>
</a>
</g>
</g>
<!-- Node3&#45;&gt;Node32 -->
<g id="edge32" class="edge">
<title>Node3&#45;&gt;Node32</title>
<path fill="none" stroke="midnightblue" d="M3360.96,-173.9C3415.38,-166.07 3560.33,-145.19 3646.78,-132.74"/>
<polygon fill="midnightblue" stroke="midnightblue" points="3647.37,-136.2 3656.77,-131.31 3646.37,-129.27 3647.37,-136.2"/>
</g>
<!-- Node33 -->
<g id="node33" class="node">
<title>Node33</title>
<g id="a_node33"><a xlink:href="wld__types_8h.html" target="_top" xlink:title=" ">
<polygon fill="white" stroke="red" points="4311.95,-56.5 4311.95,-75.5 4386.95,-75.5 4386.95,-56.5 4311.95,-56.5"/>
<text text-anchor="middle" x="4349.45" y="-63.5" font-family="Helvetica,sans-Serif" font-size="10.00">wld_types.h</text>
</a>
</g>
</g>
<!-- Node3&#45;&gt;Node33 -->
<g id="edge33" class="edge">
<title>Node3&#45;&gt;Node33</title>
<path fill="none" stroke="midnightblue" d="M3361.2,-176.58C3490.82,-173.96 4158.68,-159.23 4245.45,-132 4263,-126.49 4304.24,-98.81 4329.19,-81.39"/>
<polygon fill="midnightblue" stroke="midnightblue" points="4331.41,-84.12 4337.57,-75.5 4327.38,-78.39 4331.41,-84.12"/>
</g>
<!-- Node34 -->
<g id="node34" class="node">
<title>Node34</title>
<g id="a_node34"><a xlink:title=" ">
<polygon fill="white" stroke="#bfbfbf" points="4814.95,-0.5 4814.95,-19.5 4959.95,-19.5 4959.95,-0.5 4814.95,-0.5"/>
<text text-anchor="middle" x="4887.45" y="-7.5" font-family="Helvetica,sans-Serif" font-size="10.00">swl/types/swl_arrayType.h</text>
</a>
</g>
</g>
<!-- Node3&#45;&gt;Node34 -->
<g id="edge61" class="edge">
<title>Node3&#45;&gt;Node34</title>
<path fill="none" stroke="midnightblue" d="M3361.13,-176.95C3578.77,-176.37 5362.85,-170.43 5400.45,-132 5462.99,-68.08 5130.98,-31.23 4970.45,-17.38"/>
<polygon fill="midnightblue" stroke="midnightblue" points="4970.39,-13.86 4960.13,-16.5 4969.8,-20.83 4970.39,-13.86"/>
</g>
<!-- Node36 -->
<g id="node35" class="node">
<title>Node36</title>
<g id="a_node35"><a xlink:href="wld__channel__types_8h.html" target="_top" xlink:title=" ">
<polygon fill="white" stroke="black" points="451.95,-112.5 451.95,-131.5 570.95,-131.5 570.95,-112.5 451.95,-112.5"/>
<text text-anchor="middle" x="511.45" y="-119.5" font-family="Helvetica,sans-Serif" font-size="10.00">wld_channel_types.h</text>
</a>
</g>
</g>
<!-- Node3&#45;&gt;Node36 -->
<g id="edge37" class="edge">
<title>Node3&#45;&gt;Node36</title>
<path fill="none" stroke="midnightblue" d="M3317.72,-176.99C3092.3,-176.88 1177.68,-174.67 581.52,-132.05"/>
<polygon fill="midnightblue" stroke="midnightblue" points="581.34,-128.53 571.12,-131.29 580.84,-135.51 581.34,-128.53"/>
</g>
<!-- Node37 -->
<g id="node36" class="node">
<title>Node37</title>
<g id="a_node36"><a xlink:title=" ">
<polygon fill="white" stroke="#bfbfbf" points="2913.95,-56.5 2913.95,-75.5 3038.95,-75.5 3038.95,-56.5 2913.95,-56.5"/>
<text text-anchor="middle" x="2976.45" y="-63.5" font-family="Helvetica,sans-Serif" font-size="10.00">swla/swla_chanspec.h</text>
</a>
</g>
</g>
<!-- Node3&#45;&gt;Node37 -->
<g id="edge55" class="edge">
<title>Node3&#45;&gt;Node37</title>
<path fill="none" stroke="midnightblue" d="M3361.24,-177.17C3457.97,-177.54 3841.14,-175.12 3781.45,-112 3756.49,-85.6 3242.34,-72.42 3049.05,-68.38"/>
<polygon fill="midnightblue" stroke="midnightblue" points="3049.06,-64.88 3038.99,-68.18 3048.92,-71.88 3049.06,-64.88"/>
</g>
<!-- Node38 -->
<g id="node37" class="node">
<title>Node38</title>
<g id="a_node37"><a xlink:href="wld__bgdfs_8h.html" target="_top" xlink:title=" ">
<polygon fill="white" stroke="black" points="4396.95,-112.5 4396.95,-131.5 4471.95,-131.5 4471.95,-112.5 4396.95,-112.5"/>
<text text-anchor="middle" x="4434.45" y="-119.5" font-family="Helvetica,sans-Serif" font-size="10.00">wld_bgdfs.h</text>
</a>
</g>
</g>
<!-- Node3&#45;&gt;Node38 -->
<g id="edge41" class="edge">
<title>Node3&#45;&gt;Node38</title>
<path fill="none" stroke="midnightblue" d="M3361.31,-177.24C3470.64,-178.22 3969.17,-179.79 4386.66,-131.89"/>
<polygon fill="midnightblue" stroke="midnightblue" points="4387.29,-135.34 4396.82,-130.71 4386.48,-128.38 4387.29,-135.34"/>
</g>
<!-- Node39 -->
<g id="node38" class="node">
<title>Node39</title>
<g id="a_node38"><a xlink:href="wld__rad__delayMgr_8h.html" target="_top" xlink:title=" ">
<polygon fill="white" stroke="black" points="4122.45,-112.5 4122.45,-131.5 4236.45,-131.5 4236.45,-112.5 4122.45,-112.5"/>
<text text-anchor="middle" x="4179.45" y="-119.5" font-family="Helvetica,sans-Serif" font-size="10.00">wld_rad_delayMgr.h</text>
</a>
</g>
</g>
<!-- Node3&#45;&gt;Node39 -->
<g id="edge43" class="edge">
<title>Node3&#45;&gt;Node39</title>
<path fill="none" stroke="midnightblue" d="M3361.22,-176.25C3452.39,-173.2 3810.72,-160.52 4104.45,-132 4106.97,-131.76 4109.54,-131.49 4112.14,-131.2"/>
<polygon fill="midnightblue" stroke="midnightblue" points="4112.74,-134.65 4122.27,-130.02 4111.93,-127.7 4112.74,-134.65"/>
</g>
<!-- Node40 -->
<g id="node39" class="node">
<title>Node40</title>
<g id="a_node39"><a xlink:href="wld__fsm_8h.html" target="_top" xlink:title=" ">
<polygon fill="white" stroke="black" points="4683.95,-112.5 4683.95,-131.5 4750.95,-131.5 4750.95,-112.5 4683.95,-112.5"/>
<text text-anchor="middle" x="4717.45" y="-119.5" font-family="Helvetica,sans-Serif" font-size="10.00">wld_fsm.h</text>
</a>
</g>
</g>
<!-- Node3&#45;&gt;Node40 -->
<g id="edge45" class="edge">
<title>Node3&#45;&gt;Node40</title>
<path fill="none" stroke="midnightblue" d="M3361.37,-176.78C3510.97,-175.2 4384.27,-164.73 4673.7,-131.81"/>
<polygon fill="midnightblue" stroke="midnightblue" points="4674.22,-135.27 4683.74,-130.63 4673.4,-128.32 4674.22,-135.27"/>
</g>
<!-- Node41 -->
<g id="node40" class="node">
<title>Node41</title>
<g id="a_node40"><a xlink:href="wld__sensing_8h.html" target="_top" xlink:title=" ">
<polygon fill="white" stroke="black" points="4292.45,-112.5 4292.45,-131.5 4378.45,-131.5 4378.45,-112.5 4292.45,-112.5"/>
<text text-anchor="middle" x="4335.45" y="-119.5" font-family="Helvetica,sans-Serif" font-size="10.00">wld_sensing.h</text>
</a>
</g>
</g>
<!-- Node3&#45;&gt;Node41 -->
<g id="edge47" class="edge">
<title>Node3&#45;&gt;Node41</title>
<path fill="none" stroke="midnightblue" d="M3361.14,-176.8C3463.59,-175.72 3907.4,-169.15 4269.45,-132 4273.6,-131.57 4277.91,-131.05 4282.25,-130.47"/>
<polygon fill="midnightblue" stroke="midnightblue" points="4282.98,-133.9 4292.39,-129.03 4282,-126.97 4282.98,-133.9"/>
</g>
<!-- Node42 -->
<g id="node41" class="node">
<title>Node42</title>
<g id="a_node41"><a xlink:href="wld__mld_8h.html" target="_top" xlink:title=" ">
<polygon fill="white" stroke="black" points="4036.95,-112.5 4036.95,-131.5 4103.95,-131.5 4103.95,-112.5 4036.95,-112.5"/>
<text text-anchor="middle" x="4070.45" y="-119.5" font-family="Helvetica,sans-Serif" font-size="10.00">wld_mld.h</text>
</a>
</g>
</g>
<!-- Node3&#45;&gt;Node42 -->
<g id="edge49" class="edge">
<title>Node3&#45;&gt;Node42</title>
<path fill="none" stroke="midnightblue" d="M3360.96,-176.7C3444.93,-175.28 3758.75,-167.84 4026.81,-131.87"/>
<polygon fill="midnightblue" stroke="midnightblue" points="4027.29,-135.34 4036.73,-130.53 4026.35,-128.4 4027.29,-135.34"/>
</g>
<!-- Node43 -->
<g id="node42" class="node">
<title>Node43</title>
<g id="a_node42"><a xlink:href="wld__autoCommitRadData_8h.html" target="_top" xlink:title=" ">
<polygon fill="white" stroke="black" points="4489.45,-112.5 4489.45,-131.5 4665.45,-131.5 4665.45,-112.5 4489.45,-112.5"/>
<text text-anchor="middle" x="4577.45" y="-119.5" font-family="Helvetica,sans-Serif" font-size="10.00">Utils/wld_autoCommitRadData.h</text>
</a>
</g>
</g>
<!-- Node3&#45;&gt;Node43 -->
<g id="edge51" class="edge">
<title>Node3&#45;&gt;Node43</title>
<path fill="none" stroke="midnightblue" d="M3361.25,-176.58C3476.01,-174.28 4021.98,-162.21 4479.21,-132.12"/>
<polygon fill="midnightblue" stroke="midnightblue" points="4479.57,-135.6 4489.32,-131.45 4479.11,-128.62 4479.57,-135.6"/>
</g>
<!-- Node44 -->
<g id="node43" class="node">
<title>Node44</title>
<g id="a_node43"><a xlink:href="wld__dmnMgt_8h.html" target="_top" xlink:title=" ">
<polygon fill="white" stroke="red" points="3904.45,-112.5 3904.45,-131.5 4018.45,-131.5 4018.45,-112.5 3904.45,-112.5"/>
<text text-anchor="middle" x="3961.45" y="-119.5" font-family="Helvetica,sans-Serif" font-size="10.00">Utils/wld_dmnMgt.h</text>
</a>
</g>
</g>
<!-- Node3&#45;&gt;Node44 -->
<g id="edge52" class="edge">
<title>Node3&#45;&gt;Node44</title>
<path fill="none" stroke="midnightblue" d="M3361.01,-175.59C3434.91,-170.67 3684.73,-153.43 3890.45,-132 3891.56,-131.88 3892.69,-131.77 3893.82,-131.64"/>
<polygon fill="midnightblue" stroke="midnightblue" points="3894.58,-135.08 3904.13,-130.49 3893.8,-128.12 3894.58,-135.08"/>
</g>
<!-- Node46 -->
<g id="node44" class="node">
<title>Node46</title>
<g id="a_node44"><a xlink:title=" ">
<polygon fill="white" stroke="#bfbfbf" points="4768.95,-112.5 4768.95,-131.5 4869.95,-131.5 4869.95,-112.5 4768.95,-112.5"/>
<text text-anchor="middle" x="4819.45" y="-119.5" font-family="Helvetica,sans-Serif" font-size="10.00">swl/swl_staCap.h</text>
</a>
</g>
</g>
<!-- Node3&#45;&gt;Node46 -->
<g id="edge56" class="edge">
<title>Node3&#45;&gt;Node46</title>
<path fill="none" stroke="midnightblue" d="M3360.99,-176.67C3514.91,-174.28 4450.45,-158.84 4758.4,-132.06"/>
<polygon fill="midnightblue" stroke="midnightblue" points="4759,-135.52 4768.65,-131.14 4758.38,-128.55 4759,-135.52"/>
</g>
<!-- Node47 -->
<g id="node45" class="node">
<title>Node47</title>
<g id="a_node45"><a xlink:title=" ">
<polygon fill="white" stroke="#bfbfbf" points="4888.45,-112.5 4888.45,-131.5 4992.45,-131.5 4992.45,-112.5 4888.45,-112.5"/>
<text text-anchor="middle" x="4940.45" y="-119.5" font-family="Helvetica,sans-Serif" font-size="10.00">swla/swla_table.h</text>
</a>
</g>
</g>
<!-- Node3&#45;&gt;Node47 -->
<g id="edge57" class="edge">
<title>Node3&#45;&gt;Node47</title>
<path fill="none" stroke="midnightblue" d="M3361.2,-176.72C3523.19,-174.55 4544.3,-159.95 4878.11,-131.99"/>
<polygon fill="midnightblue" stroke="midnightblue" points="4878.59,-135.46 4888.26,-131.11 4877.99,-128.48 4878.59,-135.46"/>
</g>
<!-- Node48 -->
<g id="node46" class="node">
<title>Node48</title>
<g id="a_node46"><a xlink:title=" ">
<polygon fill="white" stroke="#bfbfbf" points="5010.95,-112.5 5010.95,-131.5 5107.95,-131.5 5107.95,-112.5 5010.95,-112.5"/>
<text text-anchor="middle" x="5059.45" y="-119.5" font-family="Helvetica,sans-Serif" font-size="10.00">swl/swl_assert.h</text>
</a>
</g>
</g>
<!-- Node3&#45;&gt;Node48 -->
<g id="edge58" class="edge">
<title>Node3&#45;&gt;Node48</title>
<path fill="none" stroke="midnightblue" d="M3361,-176.79C3529.6,-175.12 4640.09,-163.08 5000.59,-131.92"/>
<polygon fill="midnightblue" stroke="midnightblue" points="5001.12,-135.38 5010.77,-131.01 5000.5,-128.41 5001.12,-135.38"/>
</g>
<!-- Node49 -->
<g id="node47" class="node">
<title>Node49</title>
<g id="a_node47"><a xlink:title=" ">
<polygon fill="white" stroke="#bfbfbf" points="5125.95,-112.5 5125.95,-131.5 5246.95,-131.5 5246.95,-112.5 5125.95,-112.5"/>
<text text-anchor="middle" x="5186.45" y="-119.5" font-family="Helvetica,sans-Serif" font-size="10.00">swl/swl_returnCode.h</text>
</a>
</g>
</g>
<!-- Node3&#45;&gt;Node49 -->
<g id="edge59" class="edge">
<title>Node3&#45;&gt;Node49</title>
<path fill="none" stroke="midnightblue" d="M3361.07,-176.76C3536.59,-174.81 4731.19,-160.6 5115.87,-132.02"/>
<polygon fill="midnightblue" stroke="midnightblue" points="5116.2,-135.51 5125.91,-131.26 5115.67,-128.53 5116.2,-135.51"/>
</g>
<!-- Node50 -->
<g id="node48" class="node">
<title>Node50</title>
<g id="a_node48"><a xlink:title=" ">
<polygon fill="white" stroke="#bfbfbf" points="5265.45,-112.5 5265.45,-131.5 5391.45,-131.5 5391.45,-112.5 5265.45,-112.5"/>
<text text-anchor="middle" x="5328.45" y="-119.5" font-family="Helvetica,sans-Serif" font-size="10.00">swla/swla_tupleType.h</text>
</a>
</g>
</g>
<!-- Node3&#45;&gt;Node50 -->
<g id="edge60" class="edge">
<title>Node3&#45;&gt;Node50</title>
<path fill="none" stroke="midnightblue" d="M3360.98,-176.79C3543.85,-175.01 4839.81,-161.47 5255.03,-132.01"/>
<polygon fill="midnightblue" stroke="midnightblue" points="5255.55,-135.48 5265.27,-131.26 5255.05,-128.5 5255.55,-135.48"/>
</g>
<!-- Node33&#45;&gt;Node2 -->
<g id="edge34" class="edge">
<title>Node33&#45;&gt;Node2</title>
<path fill="none" stroke="midnightblue" d="M4386.95,-63.17C4556.64,-54.9 5251.59,-21.03 5420.38,-12.81"/>
<polygon fill="midnightblue" stroke="midnightblue" points="5420.69,-16.3 5430.51,-12.31 5420.35,-9.3 5420.69,-16.3"/>
</g>
<!-- Node33&#45;&gt;Node9 -->
<g id="edge36" class="edge">
<title>Node33&#45;&gt;Node9</title>
<path fill="none" stroke="midnightblue" d="M4311.88,-61.03C4224.24,-51.77 4005.66,-28.67 3898.97,-17.39"/>
<polygon fill="midnightblue" stroke="midnightblue" points="3899.31,-13.91 3889,-16.34 3898.58,-20.87 3899.31,-13.91"/>
</g>
<!-- Node33&#45;&gt;Node34 -->
<g id="edge35" class="edge">
<title>Node33&#45;&gt;Node34</title>
<path fill="none" stroke="midnightblue" d="M4387.28,-61.2C4473.51,-52.55 4686.27,-31.19 4804.63,-19.31"/>
<polygon fill="midnightblue" stroke="midnightblue" points="4805.14,-22.78 4814.74,-18.3 4804.44,-15.81 4805.14,-22.78"/>
</g>
<!-- Node36&#45;&gt;Node4 -->
<g id="edge38" class="edge">
<title>Node36&#45;&gt;Node4</title>
<path fill="none" stroke="midnightblue" d="M470.41,-112.44C421.94,-102.34 341.79,-85.63 293.37,-75.53"/>
<polygon fill="midnightblue" stroke="midnightblue" points="294.05,-72.1 283.55,-73.48 292.62,-78.95 294.05,-72.1"/>
</g>
<!-- Node36&#45;&gt;Node9 -->
<g id="edge40" class="edge">
<title>Node36&#45;&gt;Node9</title>
<path fill="none" stroke="midnightblue" d="M571.12,-112.76C573.93,-112.48 576.72,-112.22 579.45,-112 1867.36,-7.08 3449.69,-8.97 3777.36,-10.61"/>
<polygon fill="midnightblue" stroke="midnightblue" points="3777.57,-14.11 3787.59,-10.66 3777.61,-7.11 3777.57,-14.11"/>
</g>
<!-- Node36&#45;&gt;Node37 -->
<g id="edge39" class="edge">
<title>Node36&#45;&gt;Node37</title>
<path fill="none" stroke="midnightblue" d="M571.12,-112.72C573.93,-112.45 576.72,-112.21 579.45,-112 1047.99,-76.71 2554.55,-68.67 2903.72,-67.26"/>
<polygon fill="midnightblue" stroke="midnightblue" points="2903.97,-70.76 2913.95,-67.22 2903.94,-63.76 2903.97,-70.76"/>
</g>
<!-- Node38&#45;&gt;Node33 -->
<g id="edge42" class="edge">
<title>Node38&#45;&gt;Node33</title>
<path fill="none" stroke="midnightblue" d="M4420.8,-112.32C4407.54,-103.9 4387.18,-90.97 4371.61,-81.07"/>
<polygon fill="midnightblue" stroke="midnightblue" points="4373.39,-78.06 4363.08,-75.65 4369.64,-83.97 4373.39,-78.06"/>
</g>
<!-- Node39&#45;&gt;Node3 -->
<g id="edge44" class="edge">
<title>Node39&#45;&gt;Node3</title>
<path fill="none" stroke="midnightblue" d="M4127.34,-131.5C4125.7,-131.68 4124.06,-131.84 4122.45,-132 3831.67,-160.24 3477.59,-172.94 3371.08,-176.15"/>
<polygon fill="midnightblue" stroke="midnightblue" points="3370.89,-172.66 3360.99,-176.45 3371.09,-179.65 3370.89,-172.66"/>
</g>
<!-- Node40&#45;&gt;Node33 -->
<g id="edge46" class="edge">
<title>Node40&#45;&gt;Node33</title>
<path fill="none" stroke="midnightblue" d="M4683.69,-113.71C4680.57,-113.1 4677.46,-112.52 4674.45,-112 4576.37,-94.97 4460.73,-80.22 4397.23,-72.57"/>
<polygon fill="midnightblue" stroke="midnightblue" points="4397.46,-69.07 4387.12,-71.36 4396.63,-76.03 4397.46,-69.07"/>
</g>
<!-- Node41&#45;&gt;Node3 -->
<g id="edge48" class="edge">
<title>Node41&#45;&gt;Node3</title>
<path fill="none" stroke="midnightblue" d="M4292.3,-131.47C4290.67,-131.66 4289.05,-131.84 4287.45,-132 3929.67,-168.71 3492.05,-175.56 3371.42,-176.76"/>
<polygon fill="midnightblue" stroke="midnightblue" points="3371.03,-173.26 3361.07,-176.86 3371.1,-180.26 3371.03,-173.26"/>
</g>
<!-- Node42&#45;&gt;Node33 -->
<g id="edge50" class="edge">
<title>Node42&#45;&gt;Node33</title>
<path fill="none" stroke="midnightblue" d="M4104.24,-113.87C4107.35,-113.23 4110.46,-112.6 4113.45,-112 4178.61,-98.97 4254.07,-84.73 4301.77,-75.83"/>
<polygon fill="midnightblue" stroke="midnightblue" points="4302.62,-79.24 4311.81,-73.96 4301.34,-72.35 4302.62,-79.24"/>
</g>
<!-- Node44&#45;&gt;Node5 -->
<g id="edge53" class="edge">
<title>Node44&#45;&gt;Node5</title>
<path fill="none" stroke="midnightblue" d="M3958.15,-112.08C3955.47,-104.85 3951.6,-94.41 3948.27,-85.4"/>
<polygon fill="midnightblue" stroke="midnightblue" points="3951.45,-83.91 3944.69,-75.75 3944.88,-86.34 3951.45,-83.91"/>
</g>
<!-- Node44&#45;&gt;Node33 -->
<g id="edge54" class="edge">
<title>Node44&#45;&gt;Node33</title>
<path fill="none" stroke="midnightblue" d="M4018.7,-113.03C4095.45,-102.35 4230.3,-83.58 4301.81,-73.63"/>
<polygon fill="midnightblue" stroke="midnightblue" points="4302.46,-77.07 4311.89,-72.23 4301.5,-70.14 4302.46,-77.07"/>
</g>
</g>
</svg>
