<?xml version="1.0" encoding="UTF-8" standalone="no"?>
<!DOCTYPE svg PUBLIC "-//W3C//DTD SVG 1.1//EN"
 "http://www.w3.org/Graphics/SVG/1.1/DTD/svg11.dtd">
<!-- Generated by graphviz version 2.43.0 (0)
 -->
<!-- Title: _startAutoChannelSelection Pages: 1 -->
<svg width="531pt" height="66pt"
 viewBox="0.00 0.00 531.00 66.00" xmlns="http://www.w3.org/2000/svg" xmlns:xlink="http://www.w3.org/1999/xlink">
<g id="graph0" class="graph" transform="scale(1 1) rotate(0) translate(4 62)">
<title>_startAutoChannelSelection</title>
<polygon fill="white" stroke="transparent" points="-4,4 -4,-62 527,-62 527,4 -4,4"/>
<!-- Node1 -->
<g id="node1" class="node">
<title>Node1</title>
<g id="a_node1"><a xlink:title=" ">
<polygon fill="#bfbfbf" stroke="black" points="0,-19.5 0,-38.5 152,-38.5 152,-19.5 0,-19.5"/>
<text text-anchor="middle" x="76" y="-26.5" font-family="Helvetica,sans-Serif" font-size="10.00">_startAutoChannelSelection</text>
</a>
</g>
</g>
<!-- Node2 -->
<g id="node2" class="node">
<title>Node2</title>
<g id="a_node2"><a xlink:href="wld__util_8c.html#a18c61fa964e131e3008ec440b72b61c8" target="_top" xlink:title=" ">
<polygon fill="white" stroke="black" points="389,-38.5 389,-57.5 497,-57.5 497,-38.5 389,-38.5"/>
<text text-anchor="middle" x="443" y="-45.5" font-family="Helvetica,sans-Serif" font-size="10.00">debugIsRadPointer</text>
</a>
</g>
</g>
<!-- Node1&#45;&gt;Node2 -->
<g id="edge1" class="edge">
<title>Node1&#45;&gt;Node2</title>
<path fill="none" stroke="midnightblue" d="M152.19,-32.91C219,-36.39 315.59,-41.42 378.58,-44.7"/>
<polygon fill="midnightblue" stroke="midnightblue" points="378.61,-48.2 388.77,-45.23 378.97,-41.21 378.61,-48.2"/>
</g>
<!-- Node3 -->
<g id="node3" class="node">
<title>Node3</title>
<g id="a_node3"><a xlink:href="wld__radio_8c.html#a6aa71e11d4380d50a3b535ccdd8d2551" target="_top" xlink:title=" ">
<polygon fill="white" stroke="black" points="188,-0.5 188,-19.5 327,-19.5 327,-0.5 188,-0.5"/>
<text text-anchor="middle" x="257.5" y="-7.5" font-family="Helvetica,sans-Serif" font-size="10.00">wld_rad_doRadioCommit</text>
</a>
</g>
</g>
<!-- Node1&#45;&gt;Node3 -->
<g id="edge2" class="edge">
<title>Node1&#45;&gt;Node3</title>
<path fill="none" stroke="midnightblue" d="M152.08,-21.05C160.48,-20.16 169.06,-19.26 177.51,-18.36"/>
<polygon fill="midnightblue" stroke="midnightblue" points="178.15,-21.81 187.73,-17.28 177.42,-14.85 178.15,-21.81"/>
</g>
<!-- Node3&#45;&gt;Node2 -->
<g id="edge3" class="edge">
<title>Node3&#45;&gt;Node2</title>
<path fill="none" stroke="midnightblue" d="M304.8,-19.59C329.46,-24.69 359.96,-31.01 385.94,-36.39"/>
<polygon fill="midnightblue" stroke="midnightblue" points="385.53,-39.88 396.03,-38.48 386.95,-33.02 385.53,-39.88"/>
</g>
<!-- Node4 -->
<g id="node4" class="node">
<title>Node4</title>
<g id="a_node4"><a xlink:href="wld__radio_8c.html#af27c87b788a93e8fe4da5086e38f816f" target="_top" xlink:title=" ">
<polygon fill="white" stroke="black" points="363,-0.5 363,-19.5 523,-19.5 523,-0.5 363,-0.5"/>
<text text-anchor="middle" x="443" y="-7.5" font-family="Helvetica,sans-Serif" font-size="10.00">wld_rad_triggerDelayCommit</text>
</a>
</g>
</g>
<!-- Node3&#45;&gt;Node4 -->
<g id="edge4" class="edge">
<title>Node3&#45;&gt;Node4</title>
<path fill="none" stroke="midnightblue" d="M327.09,-10C335.5,-10 344.2,-10 352.86,-10"/>
<polygon fill="midnightblue" stroke="midnightblue" points="352.99,-13.5 362.99,-10 352.99,-6.5 352.99,-13.5"/>
</g>
</g>
</svg>
