<?xml version="1.0" encoding="UTF-8" standalone="no"?>
<!DOCTYPE svg PUBLIC "-//W3C//DTD SVG 1.1//EN"
 "http://www.w3.org/Graphics/SVG/1.1/DTD/svg11.dtd">
<!-- Generated by graphviz version 2.43.0 (0)
 -->
<!-- Title: _wld_rad_setOperatingClass Pages: 1 -->
<svg width="543pt" height="85pt"
 viewBox="0.00 0.00 543.00 85.00" xmlns="http://www.w3.org/2000/svg" xmlns:xlink="http://www.w3.org/1999/xlink">
<g id="graph0" class="graph" transform="scale(1 1) rotate(0) translate(4 81)">
<title>_wld_rad_setOperatingClass</title>
<polygon fill="white" stroke="transparent" points="-4,4 -4,-81 539,-81 539,4 -4,4"/>
<!-- Node1 -->
<g id="node1" class="node">
<title>Node1</title>
<g id="a_node1"><a xlink:title=" ">
<polygon fill="#bfbfbf" stroke="black" points="0,-38.5 0,-57.5 155,-57.5 155,-38.5 0,-38.5"/>
<text text-anchor="middle" x="77.5" y="-45.5" font-family="Helvetica,sans-Serif" font-size="10.00">_wld_rad_setOperatingClass</text>
</a>
</g>
</g>
<!-- Node2 -->
<g id="node2" class="node">
<title>Node2</title>
<g id="a_node2"><a xlink:href="wld_8c.html#a0509a117a7c60ae778f6d72901982404" target="_top" xlink:title=" ">
<polygon fill="white" stroke="black" points="219.5,-57.5 219.5,-76.5 330.5,-76.5 330.5,-57.5 219.5,-57.5"/>
<text text-anchor="middle" x="275" y="-64.5" font-family="Helvetica,sans-Serif" font-size="10.00">get_wld_plugin_dm</text>
</a>
</g>
</g>
<!-- Node1&#45;&gt;Node2 -->
<g id="edge1" class="edge">
<title>Node1&#45;&gt;Node2</title>
<path fill="none" stroke="midnightblue" d="M155.21,-55.45C173.09,-57.19 191.96,-59.03 209.27,-60.71"/>
<polygon fill="midnightblue" stroke="midnightblue" points="208.97,-64.2 219.26,-61.68 209.64,-57.23 208.97,-64.2"/>
</g>
<!-- Node3 -->
<g id="node3" class="node">
<title>Node3</title>
<g id="a_node3"><a xlink:href="wld__radio_8c.html#a81add1a28b82f1f77ffa673997bf4a1a" target="_top" xlink:title=" ">
<polygon fill="white" stroke="black" points="191,-19.5 191,-38.5 359,-38.5 359,-19.5 191,-19.5"/>
<text text-anchor="middle" x="275" y="-26.5" font-family="Helvetica,sans-Serif" font-size="10.00">wld_rad_updateOperatingClass</text>
</a>
</g>
</g>
<!-- Node1&#45;&gt;Node3 -->
<g id="edge2" class="edge">
<title>Node1&#45;&gt;Node3</title>
<path fill="none" stroke="midnightblue" d="M155.21,-40.55C163.59,-39.73 172.18,-38.9 180.74,-38.06"/>
<polygon fill="midnightblue" stroke="midnightblue" points="181.12,-41.54 190.74,-37.09 180.45,-34.58 181.12,-41.54"/>
</g>
<!-- Node4 -->
<g id="node4" class="node">
<title>Node4</title>
<g id="a_node4"><a xlink:href="wld__util_8c.html#ab702f8b9102748a4dc45fb1bae6e9b0e" target="_top" xlink:title=" ">
<polygon fill="white" stroke="black" points="417.5,-38.5 417.5,-57.5 512.5,-57.5 512.5,-38.5 417.5,-38.5"/>
<text text-anchor="middle" x="465" y="-45.5" font-family="Helvetica,sans-Serif" font-size="10.00">getCountryZone</text>
</a>
</g>
</g>
<!-- Node3&#45;&gt;Node4 -->
<g id="edge3" class="edge">
<title>Node3&#45;&gt;Node4</title>
<path fill="none" stroke="midnightblue" d="M359.01,-37.39C375.23,-39.03 391.9,-40.71 407.04,-42.24"/>
<polygon fill="midnightblue" stroke="midnightblue" points="406.95,-45.75 417.25,-43.28 407.66,-38.79 406.95,-45.75"/>
</g>
<!-- Node5 -->
<g id="node5" class="node">
<title>Node5</title>
<g id="a_node5"><a xlink:href="wld__radio_8c.html#ae6aa07e4f2a9f4675b22fdd1412a60cc" target="_top" xlink:title=" ">
<polygon fill="white" stroke="black" points="395,-0.5 395,-19.5 535,-19.5 535,-0.5 395,-0.5"/>
<text text-anchor="middle" x="465" y="-7.5" font-family="Helvetica,sans-Serif" font-size="10.00">wld_rad_getSwlChanspec</text>
</a>
</g>
</g>
<!-- Node3&#45;&gt;Node5 -->
<g id="edge4" class="edge">
<title>Node3&#45;&gt;Node5</title>
<path fill="none" stroke="midnightblue" d="M359.01,-20.61C367.63,-19.74 376.38,-18.85 384.96,-17.99"/>
<polygon fill="midnightblue" stroke="midnightblue" points="385.34,-21.47 394.94,-16.98 384.64,-14.5 385.34,-21.47"/>
</g>
</g>
</svg>
