<?xml version="1.0" encoding="UTF-8" standalone="no"?>
<!DOCTYPE svg PUBLIC "-//W3C//DTD SVG 1.1//EN"
 "http://www.w3.org/Graphics/SVG/1.1/DTD/svg11.dtd">
<!-- Generated by graphviz version 2.43.0 (0)
 -->
<!-- Title: include/wld/wld_linuxIfUtils.h Pages: 1 -->
<svg width="1819pt" height="95pt"
 viewBox="0.00 0.00 1818.50 95.00" xmlns="http://www.w3.org/2000/svg" xmlns:xlink="http://www.w3.org/1999/xlink">
<g id="graph0" class="graph" transform="scale(1 1) rotate(0) translate(4 91)">
<title>include/wld/wld_linuxIfUtils.h</title>
<polygon fill="white" stroke="transparent" points="-4,4 -4,-91 1814.5,-91 1814.5,4 -4,4"/>
<!-- Node1 -->
<g id="node1" class="node">
<title>Node1</title>
<g id="a_node1"><a xlink:title=" ">
<polygon fill="#bfbfbf" stroke="black" points="851.5,-67.5 851.5,-86.5 1011.5,-86.5 1011.5,-67.5 851.5,-67.5"/>
<text text-anchor="middle" x="931.5" y="-74.5" font-family="Helvetica,sans-Serif" font-size="10.00">include/wld/wld_linuxIfUtils.h</text>
</a>
</g>
</g>
<!-- Node2 -->
<g id="node2" class="node">
<title>Node2</title>
<g id="a_node2"><a xlink:href="wifiGen__ep_8c.html" target="_top" xlink:title=" ">
<polygon fill="white" stroke="black" points="0,-6 0,-25 129,-25 129,-6 0,-6"/>
<text text-anchor="middle" x="64.5" y="-13" font-family="Helvetica,sans-Serif" font-size="10.00">src/Plugin/wifiGen_ep.c</text>
</a>
</g>
</g>
<!-- Node1&#45;&gt;Node2 -->
<g id="edge1" class="edge">
<title>Node1&#45;&gt;Node2</title>
<path fill="none" stroke="midnightblue" d="M840.89,-74.88C693.22,-72.16 391.69,-62.84 138.5,-31 126.81,-29.53 114.19,-27.3 102.75,-25.03"/>
<polygon fill="midnightblue" stroke="midnightblue" points="841.19,-78.39 851.25,-75.07 841.32,-71.39 841.19,-78.39"/>
</g>
<!-- Node3 -->
<g id="node3" class="node">
<title>Node3</title>
<g id="a_node3"><a xlink:href="wifiGen__eventHandlers_8c.html" target="_top" xlink:title=" ">
<polygon fill="white" stroke="black" points="147.5,-0.5 147.5,-30.5 251.5,-30.5 251.5,-0.5 147.5,-0.5"/>
<text text-anchor="start" x="155.5" y="-18.5" font-family="Helvetica,sans-Serif" font-size="10.00">src/Plugin/wifiGen</text>
<text text-anchor="middle" x="199.5" y="-7.5" font-family="Helvetica,sans-Serif" font-size="10.00">_eventHandlers.c</text>
</a>
</g>
</g>
<!-- Node1&#45;&gt;Node3 -->
<g id="edge2" class="edge">
<title>Node1&#45;&gt;Node3</title>
<path fill="none" stroke="midnightblue" d="M840.99,-74.7C711.6,-71.76 466.61,-62.19 260.5,-31 257.59,-30.56 254.62,-30.05 251.63,-29.49"/>
<polygon fill="midnightblue" stroke="midnightblue" points="841.17,-78.2 851.24,-74.92 841.32,-71.21 841.17,-78.2"/>
</g>
<!-- Node4 -->
<g id="node4" class="node">
<title>Node4</title>
<g id="a_node4"><a xlink:href="wifiGen__fsm_8c.html" target="_top" xlink:title=" ">
<polygon fill="white" stroke="black" points="269.5,-0.5 269.5,-30.5 373.5,-30.5 373.5,-0.5 269.5,-0.5"/>
<text text-anchor="start" x="277.5" y="-18.5" font-family="Helvetica,sans-Serif" font-size="10.00">src/Plugin/wifiGen</text>
<text text-anchor="middle" x="321.5" y="-7.5" font-family="Helvetica,sans-Serif" font-size="10.00">_fsm.c</text>
</a>
</g>
</g>
<!-- Node1&#45;&gt;Node4 -->
<g id="edge3" class="edge">
<title>Node1&#45;&gt;Node4</title>
<path fill="none" stroke="midnightblue" d="M841.18,-72.79C731.97,-67.95 542.85,-56.48 382.5,-31 379.6,-30.54 376.63,-30.01 373.64,-29.44"/>
<polygon fill="midnightblue" stroke="midnightblue" points="841.35,-76.31 851.5,-73.24 841.66,-69.31 841.35,-76.31"/>
</g>
<!-- Node5 -->
<g id="node5" class="node">
<title>Node5</title>
<g id="a_node5"><a xlink:href="wifiGen__hapd_8c.html" target="_top" xlink:title=" ">
<polygon fill="white" stroke="black" points="391.5,-0.5 391.5,-30.5 495.5,-30.5 495.5,-0.5 391.5,-0.5"/>
<text text-anchor="start" x="399.5" y="-18.5" font-family="Helvetica,sans-Serif" font-size="10.00">src/Plugin/wifiGen</text>
<text text-anchor="middle" x="443.5" y="-7.5" font-family="Helvetica,sans-Serif" font-size="10.00">_hapd.c</text>
</a>
</g>
</g>
<!-- Node1&#45;&gt;Node5 -->
<g id="edge4" class="edge">
<title>Node1&#45;&gt;Node5</title>
<path fill="none" stroke="midnightblue" d="M841.13,-69.86C754.38,-63.17 619.88,-50.71 504.5,-31 501.6,-30.51 498.64,-29.95 495.65,-29.36"/>
<polygon fill="midnightblue" stroke="midnightblue" points="840.96,-73.36 851.2,-70.63 841.5,-66.38 840.96,-73.36"/>
</g>
<!-- Node6 -->
<g id="node6" class="node">
<title>Node6</title>
<g id="a_node6"><a xlink:href="wifiGen__mld_8c.html" target="_top" xlink:title=" ">
<polygon fill="white" stroke="black" points="513.5,-0.5 513.5,-30.5 617.5,-30.5 617.5,-0.5 513.5,-0.5"/>
<text text-anchor="start" x="521.5" y="-18.5" font-family="Helvetica,sans-Serif" font-size="10.00">src/Plugin/wifiGen</text>
<text text-anchor="middle" x="565.5" y="-7.5" font-family="Helvetica,sans-Serif" font-size="10.00">_mld.c</text>
</a>
</g>
</g>
<!-- Node1&#45;&gt;Node6 -->
<g id="edge5" class="edge">
<title>Node1&#45;&gt;Node6</title>
<path fill="none" stroke="midnightblue" d="M851.8,-66.17C790.07,-58.09 702.55,-45.62 626.5,-31 623.61,-30.45 620.66,-29.85 617.68,-29.22"/>
<polygon fill="midnightblue" stroke="midnightblue" points="851.49,-69.66 861.86,-67.48 852.4,-62.72 851.49,-69.66"/>
</g>
<!-- Node7 -->
<g id="node7" class="node">
<title>Node7</title>
<g id="a_node7"><a xlink:href="wifiGen__rad_8c.html" target="_top" xlink:title=" ">
<polygon fill="white" stroke="black" points="635.5,-0.5 635.5,-30.5 739.5,-30.5 739.5,-0.5 635.5,-0.5"/>
<text text-anchor="start" x="643.5" y="-18.5" font-family="Helvetica,sans-Serif" font-size="10.00">src/Plugin/wifiGen</text>
<text text-anchor="middle" x="687.5" y="-7.5" font-family="Helvetica,sans-Serif" font-size="10.00">_rad.c</text>
</a>
</g>
</g>
<!-- Node1&#45;&gt;Node7 -->
<g id="edge6" class="edge">
<title>Node1&#45;&gt;Node7</title>
<path fill="none" stroke="midnightblue" d="M886.72,-65.08C845.27,-54.97 783.63,-39.94 739.91,-29.28"/>
<polygon fill="midnightblue" stroke="midnightblue" points="886,-68.51 896.54,-67.48 887.65,-61.71 886,-68.51"/>
</g>
<!-- Node8 -->
<g id="node8" class="node">
<title>Node8</title>
<g id="a_node8"><a xlink:href="wifiGen__radIfMgt_8c.html" target="_top" xlink:title=" ">
<polygon fill="white" stroke="black" points="757.5,-0.5 757.5,-30.5 861.5,-30.5 861.5,-0.5 757.5,-0.5"/>
<text text-anchor="start" x="765.5" y="-18.5" font-family="Helvetica,sans-Serif" font-size="10.00">src/Plugin/wifiGen</text>
<text text-anchor="middle" x="809.5" y="-7.5" font-family="Helvetica,sans-Serif" font-size="10.00">_radIfMgt.c</text>
</a>
</g>
</g>
<!-- Node1&#45;&gt;Node8 -->
<g id="edge7" class="edge">
<title>Node1&#45;&gt;Node8</title>
<path fill="none" stroke="midnightblue" d="M904.99,-63.07C885.29,-53.47 858.46,-40.38 838.25,-30.52"/>
<polygon fill="midnightblue" stroke="midnightblue" points="903.5,-66.24 914.02,-67.48 906.57,-59.95 903.5,-66.24"/>
</g>
<!-- Node9 -->
<g id="node9" class="node">
<title>Node9</title>
<g id="a_node9"><a xlink:href="wifiGen__vap_8c.html" target="_top" xlink:title=" ">
<polygon fill="white" stroke="black" points="879.5,-0.5 879.5,-30.5 983.5,-30.5 983.5,-0.5 879.5,-0.5"/>
<text text-anchor="start" x="887.5" y="-18.5" font-family="Helvetica,sans-Serif" font-size="10.00">src/Plugin/wifiGen</text>
<text text-anchor="middle" x="931.5" y="-7.5" font-family="Helvetica,sans-Serif" font-size="10.00">_vap.c</text>
</a>
</g>
</g>
<!-- Node1&#45;&gt;Node9 -->
<g id="edge8" class="edge">
<title>Node1&#45;&gt;Node9</title>
<path fill="none" stroke="midnightblue" d="M931.5,-57.23C931.5,-48.59 931.5,-38.5 931.5,-30.52"/>
<polygon fill="midnightblue" stroke="midnightblue" points="928,-57.48 931.5,-67.48 935,-57.48 928,-57.48"/>
</g>
<!-- Node10 -->
<g id="node10" class="node">
<title>Node10</title>
<g id="a_node10"><a xlink:href="wld__nl80211__api_8c.html" target="_top" xlink:title=" ">
<polygon fill="white" stroke="black" points="1002,-0.5 1002,-30.5 1139,-30.5 1139,-0.5 1002,-0.5"/>
<text text-anchor="start" x="1010" y="-18.5" font-family="Helvetica,sans-Serif" font-size="10.00">src/nl80211/wld_nl80211</text>
<text text-anchor="middle" x="1070.5" y="-7.5" font-family="Helvetica,sans-Serif" font-size="10.00">_api.c</text>
</a>
</g>
</g>
<!-- Node1&#45;&gt;Node10 -->
<g id="edge9" class="edge">
<title>Node1&#45;&gt;Node10</title>
<path fill="none" stroke="midnightblue" d="M960.79,-63.46C983.31,-53.82 1014.4,-40.51 1037.74,-30.52"/>
<polygon fill="midnightblue" stroke="midnightblue" points="959.23,-60.32 951.42,-67.48 961.99,-66.76 959.23,-60.32"/>
</g>
<!-- Node11 -->
<g id="node11" class="node">
<title>Node11</title>
<g id="a_node11"><a xlink:href="wld__nl80211__scan_8c.html" target="_top" xlink:title=" ">
<polygon fill="white" stroke="black" points="1157,-0.5 1157,-30.5 1294,-30.5 1294,-0.5 1157,-0.5"/>
<text text-anchor="start" x="1165" y="-18.5" font-family="Helvetica,sans-Serif" font-size="10.00">src/nl80211/wld_nl80211</text>
<text text-anchor="middle" x="1225.5" y="-7.5" font-family="Helvetica,sans-Serif" font-size="10.00">_scan.c</text>
</a>
</g>
</g>
<!-- Node1&#45;&gt;Node11 -->
<g id="edge10" class="edge">
<title>Node1&#45;&gt;Node11</title>
<path fill="none" stroke="midnightblue" d="M983.54,-65.47C1031.76,-55.71 1103.83,-41.12 1156.78,-30.41"/>
<polygon fill="midnightblue" stroke="midnightblue" points="982.73,-62.06 973.62,-67.48 984.12,-68.92 982.73,-62.06"/>
</g>
<!-- Node12 -->
<g id="node12" class="node">
<title>Node12</title>
<g id="a_node12"><a xlink:href="wld__rad__nl80211_8c.html" target="_top" xlink:title=" ">
<polygon fill="white" stroke="black" points="1312.5,-0.5 1312.5,-30.5 1426.5,-30.5 1426.5,-0.5 1312.5,-0.5"/>
<text text-anchor="start" x="1320.5" y="-18.5" font-family="Helvetica,sans-Serif" font-size="10.00">src/nl80211/wld_rad</text>
<text text-anchor="middle" x="1369.5" y="-7.5" font-family="Helvetica,sans-Serif" font-size="10.00">_nl80211.c</text>
</a>
</g>
</g>
<!-- Node1&#45;&gt;Node12 -->
<g id="edge11" class="edge">
<title>Node1&#45;&gt;Node12</title>
<path fill="none" stroke="midnightblue" d="M1021.6,-67.54C1097.16,-59.87 1207.75,-47.27 1303.5,-31 1306.39,-30.51 1309.35,-29.97 1312.33,-29.41"/>
<polygon fill="midnightblue" stroke="midnightblue" points="1021.24,-64.06 1011.64,-68.55 1021.94,-71.03 1021.24,-64.06"/>
</g>
<!-- Node13 -->
<g id="node13" class="node">
<title>Node13</title>
<g id="a_node13"><a xlink:href="wld_8c.html" target="_top" xlink:title=" ">
<polygon fill="white" stroke="black" points="1445,-6 1445,-25 1504,-25 1504,-6 1445,-6"/>
<text text-anchor="middle" x="1474.5" y="-13" font-family="Helvetica,sans-Serif" font-size="10.00">src/wld.c</text>
</a>
</g>
</g>
<!-- Node1&#45;&gt;Node13 -->
<g id="edge12" class="edge">
<title>Node1&#45;&gt;Node13</title>
<path fill="none" stroke="midnightblue" d="M1021.75,-75.16C1123.48,-72.55 1293.23,-63.19 1435.5,-31 1441.84,-29.57 1448.54,-27.35 1454.57,-25.07"/>
<polygon fill="midnightblue" stroke="midnightblue" points="1021.43,-71.67 1011.52,-75.4 1021.6,-78.66 1021.43,-71.67"/>
</g>
<!-- Node14 -->
<g id="node14" class="node">
<title>Node14</title>
<g id="a_node14"><a xlink:href="wld__radio_8c.html" target="_top" xlink:title=" ">
<polygon fill="white" stroke="black" points="1522,-6 1522,-25 1611,-25 1611,-6 1522,-6"/>
<text text-anchor="middle" x="1566.5" y="-13" font-family="Helvetica,sans-Serif" font-size="10.00">src/wld_radio.c</text>
</a>
</g>
</g>
<!-- Node1&#45;&gt;Node14 -->
<g id="edge13" class="edge">
<title>Node1&#45;&gt;Node14</title>
<path fill="none" stroke="midnightblue" d="M1021.81,-74.32C1136.79,-70.97 1341.22,-60.95 1513.5,-31 1521.96,-29.53 1531.02,-27.3 1539.22,-25.03"/>
<polygon fill="midnightblue" stroke="midnightblue" points="1021.54,-70.82 1011.64,-74.6 1021.74,-77.82 1021.54,-70.82"/>
</g>
<!-- Node15 -->
<g id="node15" class="node">
<title>Node15</title>
<g id="a_node15"><a xlink:href="wld__ssid_8c.html" target="_top" xlink:title=" ">
<polygon fill="white" stroke="black" points="1628.5,-6 1628.5,-25 1712.5,-25 1712.5,-6 1628.5,-6"/>
<text text-anchor="middle" x="1670.5" y="-13" font-family="Helvetica,sans-Serif" font-size="10.00">src/wld_ssid.c</text>
</a>
</g>
</g>
<!-- Node1&#45;&gt;Node15 -->
<g id="edge14" class="edge">
<title>Node1&#45;&gt;Node15</title>
<path fill="none" stroke="midnightblue" d="M1021.83,-76.32C1154.2,-75.38 1408.2,-68.26 1620.5,-31 1628.6,-29.58 1637.26,-27.34 1645.06,-25.03"/>
<polygon fill="midnightblue" stroke="midnightblue" points="1021.72,-72.82 1011.74,-76.38 1021.76,-79.82 1021.72,-72.82"/>
</g>
<!-- Node16 -->
<g id="node16" class="node">
<title>Node16</title>
<g id="a_node16"><a xlink:href="wld__util_8c.html" target="_top" xlink:title=" ">
<polygon fill="white" stroke="black" points="1730.5,-6 1730.5,-25 1810.5,-25 1810.5,-6 1730.5,-6"/>
<text text-anchor="middle" x="1770.5" y="-13" font-family="Helvetica,sans-Serif" font-size="10.00">src/wld_util.c</text>
</a>
</g>
</g>
<!-- Node1&#45;&gt;Node16 -->
<g id="edge15" class="edge">
<title>Node1&#45;&gt;Node16</title>
<path fill="none" stroke="midnightblue" d="M1021.64,-73.48C1199.4,-68.08 1589.4,-53.99 1721.5,-31 1729.54,-29.6 1738.13,-27.33 1745.84,-25.01"/>
<polygon fill="midnightblue" stroke="midnightblue" points="1021.42,-69.99 1011.53,-73.79 1021.63,-76.98 1021.42,-69.99"/>
</g>
</g>
</svg>
