<?xml version="1.0" encoding="UTF-8" standalone="no"?>
<!DOCTYPE svg PUBLIC "-//W3C//DTD SVG 1.1//EN"
 "http://www.w3.org/Graphics/SVG/1.1/DTD/svg11.dtd">
<!-- Generated by graphviz version 2.43.0 (0)
 -->
<!-- Title: include_priv/nl80211/wld_wpaSupp_cfgManager_priv.h Pages: 1 -->
<svg width="312pt" height="117pt"
 viewBox="0.00 0.00 312.00 117.00" xmlns="http://www.w3.org/2000/svg" xmlns:xlink="http://www.w3.org/1999/xlink">
<g id="graph0" class="graph" transform="scale(1 1) rotate(0) translate(4 113)">
<title>include_priv/nl80211/wld_wpaSupp_cfgManager_priv.h</title>
<polygon fill="white" stroke="transparent" points="-4,4 -4,-113 308,-113 308,4 -4,4"/>
<!-- Node1 -->
<g id="node1" class="node">
<title>Node1</title>
<g id="a_node1"><a xlink:title=" ">
<polygon fill="#bfbfbf" stroke="black" points="77,-67.5 77,-108.5 226,-108.5 226,-67.5 77,-67.5"/>
<text text-anchor="start" x="85" y="-96.5" font-family="Helvetica,sans-Serif" font-size="10.00">include_priv/nl80211</text>
<text text-anchor="start" x="85" y="-85.5" font-family="Helvetica,sans-Serif" font-size="10.00">/wld_wpaSupp_cfgManager</text>
<text text-anchor="middle" x="151.5" y="-74.5" font-family="Helvetica,sans-Serif" font-size="10.00">_priv.h</text>
</a>
</g>
</g>
<!-- Node2 -->
<g id="node2" class="node">
<title>Node2</title>
<g id="a_node2"><a xlink:href="wld__wpaSupp__cfgFile_8c.html" target="_top" xlink:title=" ">
<polygon fill="white" stroke="black" points="0,-0.5 0,-30.5 143,-30.5 143,-0.5 0,-0.5"/>
<text text-anchor="start" x="8" y="-18.5" font-family="Helvetica,sans-Serif" font-size="10.00">src/nl80211/wld_wpaSupp</text>
<text text-anchor="middle" x="71.5" y="-7.5" font-family="Helvetica,sans-Serif" font-size="10.00">_cfgFile.c</text>
</a>
</g>
</g>
<!-- Node1&#45;&gt;Node2 -->
<g id="edge1" class="edge">
<title>Node1&#45;&gt;Node2</title>
<path fill="none" stroke="midnightblue" d="M121.49,-60.55C109.98,-50.41 97.29,-39.23 87.58,-30.67"/>
<polygon fill="midnightblue" stroke="midnightblue" points="119.4,-63.38 129.22,-67.36 124.03,-58.12 119.4,-63.38"/>
</g>
<!-- Node3 -->
<g id="node3" class="node">
<title>Node3</title>
<g id="a_node3"><a xlink:href="wld__wpaSupp__cfgManager_8c.html" target="_top" xlink:title=" ">
<polygon fill="white" stroke="black" points="161,-0.5 161,-30.5 304,-30.5 304,-0.5 161,-0.5"/>
<text text-anchor="start" x="169" y="-18.5" font-family="Helvetica,sans-Serif" font-size="10.00">src/nl80211/wld_wpaSupp</text>
<text text-anchor="middle" x="232.5" y="-7.5" font-family="Helvetica,sans-Serif" font-size="10.00">_cfgManager.c</text>
</a>
</g>
</g>
<!-- Node1&#45;&gt;Node3 -->
<g id="edge2" class="edge">
<title>Node1&#45;&gt;Node3</title>
<path fill="none" stroke="midnightblue" d="M181.89,-60.55C193.54,-50.41 206.39,-39.23 216.22,-30.67"/>
<polygon fill="midnightblue" stroke="midnightblue" points="179.31,-58.16 174.06,-67.36 183.9,-63.44 179.31,-58.16"/>
</g>
</g>
</svg>
