<?xml version="1.0" encoding="UTF-8" standalone="no"?>
<!DOCTYPE svg PUBLIC "-//W3C//DTD SVG 1.1//EN"
 "http://www.w3.org/Graphics/SVG/1.1/DTD/svg11.dtd">
<!-- Generated by graphviz version 2.43.0 (0)
 -->
<!-- Title: include/wld/wld_nl80211.h Pages: 1 -->
<svg width="2831pt" height="430pt"
 viewBox="0.00 0.00 2830.50 430.00" xmlns="http://www.w3.org/2000/svg" xmlns:xlink="http://www.w3.org/1999/xlink">
<g id="graph0" class="graph" transform="scale(1 1) rotate(0) translate(4 426)">
<title>include/wld/wld_nl80211.h</title>
<polygon fill="white" stroke="transparent" points="-4,4 -4,-426 2826.5,-426 2826.5,4 -4,4"/>
<!-- Node1 -->
<g id="node1" class="node">
<title>Node1</title>
<g id="a_node1"><a xlink:title=" ">
<polygon fill="#bfbfbf" stroke="black" points="2092,-402.5 2092,-421.5 2238,-421.5 2238,-402.5 2092,-402.5"/>
<text text-anchor="middle" x="2165" y="-409.5" font-family="Helvetica,sans-Serif" font-size="10.00">include/wld/wld_nl80211.h</text>
</a>
</g>
</g>
<!-- Node2 -->
<g id="node2" class="node">
<title>Node2</title>
<g id="a_node2"><a xlink:href="wld__nl80211__attr_8h.html" target="_top" xlink:title=" ">
<polygon fill="white" stroke="black" points="2029.5,-201.5 2029.5,-231.5 2166.5,-231.5 2166.5,-201.5 2029.5,-201.5"/>
<text text-anchor="start" x="2037.5" y="-219.5" font-family="Helvetica,sans-Serif" font-size="10.00">include/wld/wld_nl80211</text>
<text text-anchor="middle" x="2098" y="-208.5" font-family="Helvetica,sans-Serif" font-size="10.00">_attr.h</text>
</a>
</g>
</g>
<!-- Node1&#45;&gt;Node2 -->
<g id="edge1" class="edge">
<title>Node1&#45;&gt;Node2</title>
<path fill="none" stroke="midnightblue" d="M2158.63,-392.6C2145.32,-354.16 2114.81,-266.04 2102.89,-231.63"/>
<polygon fill="midnightblue" stroke="midnightblue" points="2155.46,-394.13 2162.03,-402.44 2162.07,-391.84 2155.46,-394.13"/>
</g>
<!-- Node35 -->
<g id="node35" class="node">
<title>Node35</title>
<g id="a_node35"><a xlink:href="wld__nl80211__compat_8h.html" target="_top" xlink:title=" ">
<polygon fill="white" stroke="black" points="2164.5,-335.5 2164.5,-365.5 2301.5,-365.5 2301.5,-335.5 2164.5,-335.5"/>
<text text-anchor="start" x="2172.5" y="-353.5" font-family="Helvetica,sans-Serif" font-size="10.00">include/wld/wld_nl80211</text>
<text text-anchor="middle" x="2233" y="-342.5" font-family="Helvetica,sans-Serif" font-size="10.00">_compat.h</text>
</a>
</g>
</g>
<!-- Node1&#45;&gt;Node35 -->
<g id="edge50" class="edge">
<title>Node1&#45;&gt;Node35</title>
<path fill="none" stroke="midnightblue" d="M2182.55,-395.65C2193.18,-386.35 2206.63,-374.57 2216.97,-365.52"/>
<polygon fill="midnightblue" stroke="midnightblue" points="2179.96,-393.26 2174.74,-402.48 2184.57,-398.52 2179.96,-393.26"/>
</g>
<!-- Node3 -->
<g id="node3" class="node">
<title>Node3</title>
<g id="a_node3"><a xlink:href="wld__nl80211__api_8h.html" target="_top" xlink:title=" ">
<polygon fill="white" stroke="black" points="1678.5,-134.5 1678.5,-164.5 1815.5,-164.5 1815.5,-134.5 1678.5,-134.5"/>
<text text-anchor="start" x="1686.5" y="-152.5" font-family="Helvetica,sans-Serif" font-size="10.00">include/wld/wld_nl80211</text>
<text text-anchor="middle" x="1747" y="-141.5" font-family="Helvetica,sans-Serif" font-size="10.00">_api.h</text>
</a>
</g>
</g>
<!-- Node2&#45;&gt;Node3 -->
<g id="edge2" class="edge">
<title>Node2&#45;&gt;Node3</title>
<path fill="none" stroke="midnightblue" d="M2019.49,-200.96C1958.3,-189.63 1874.16,-174.05 1815.64,-163.21"/>
<polygon fill="midnightblue" stroke="midnightblue" points="2019.02,-204.43 2029.49,-202.81 2020.29,-197.55 2019.02,-204.43"/>
</g>
<!-- Node27 -->
<g id="node27" class="node">
<title>Node27</title>
<g id="a_node27"><a xlink:href="wld__nl80211__attr_8c.html" target="_top" xlink:title=" ">
<polygon fill="white" stroke="black" points="2065.5,-0.5 2065.5,-30.5 2202.5,-30.5 2202.5,-0.5 2065.5,-0.5"/>
<text text-anchor="start" x="2073.5" y="-18.5" font-family="Helvetica,sans-Serif" font-size="10.00">src/nl80211/wld_nl80211</text>
<text text-anchor="middle" x="2134" y="-7.5" font-family="Helvetica,sans-Serif" font-size="10.00">_attr.c</text>
</a>
</g>
</g>
<!-- Node2&#45;&gt;Node27 -->
<g id="edge48" class="edge">
<title>Node2&#45;&gt;Node27</title>
<path fill="none" stroke="midnightblue" d="M2086.15,-191.92C2072.68,-161.62 2054.89,-108.06 2074,-67 2081.18,-51.57 2095.65,-39.17 2108.59,-30.52"/>
<polygon fill="midnightblue" stroke="midnightblue" points="2083.1,-193.66 2090.49,-201.25 2089.44,-190.71 2083.1,-193.66"/>
</g>
<!-- Node29 -->
<g id="node29" class="node">
<title>Node29</title>
<g id="a_node29"><a xlink:href="wld__nl80211__api__priv_8h.html" target="_top" xlink:title=" ">
<polygon fill="white" stroke="black" points="2265,-134.5 2265,-164.5 2399,-164.5 2399,-134.5 2265,-134.5"/>
<text text-anchor="start" x="2273" y="-152.5" font-family="Helvetica,sans-Serif" font-size="10.00">include_priv/nl80211</text>
<text text-anchor="middle" x="2332" y="-141.5" font-family="Helvetica,sans-Serif" font-size="10.00">/wld_nl80211_api_priv.h</text>
</a>
</g>
</g>
<!-- Node2&#45;&gt;Node29 -->
<g id="edge38" class="edge">
<title>Node2&#45;&gt;Node29</title>
<path fill="none" stroke="midnightblue" d="M2158.43,-198.71C2196.51,-188.14 2245.11,-174.63 2281.2,-164.61"/>
<polygon fill="midnightblue" stroke="midnightblue" points="2157.18,-195.43 2148.49,-201.48 2159.06,-202.17 2157.18,-195.43"/>
</g>
<!-- Node34 -->
<g id="node34" class="node">
<title>Node34</title>
<g id="a_node34"><a xlink:href="wld__nl80211__core_8c.html" target="_top" xlink:title=" ">
<polygon fill="white" stroke="black" points="2442.5,-67.5 2442.5,-97.5 2579.5,-97.5 2579.5,-67.5 2442.5,-67.5"/>
<text text-anchor="start" x="2450.5" y="-85.5" font-family="Helvetica,sans-Serif" font-size="10.00">src/nl80211/wld_nl80211</text>
<text text-anchor="middle" x="2511" y="-74.5" font-family="Helvetica,sans-Serif" font-size="10.00">_core.c</text>
</a>
</g>
</g>
<!-- Node2&#45;&gt;Node34 -->
<g id="edge49" class="edge">
<title>Node2&#45;&gt;Node34</title>
<path fill="none" stroke="midnightblue" d="M2176.82,-213.56C2241.4,-209.45 2333.89,-197.69 2408,-165 2444.72,-148.8 2479.63,-116.36 2497.87,-97.66"/>
<polygon fill="midnightblue" stroke="midnightblue" points="2176.48,-210.07 2166.7,-214.15 2176.89,-217.06 2176.48,-210.07"/>
</g>
<!-- Node4 -->
<g id="node4" class="node">
<title>Node4</title>
<g id="a_node4"><a xlink:href="wld__ap__nl80211_8h.html" target="_top" xlink:title=" ">
<polygon fill="white" stroke="black" points="809,-67.5 809,-97.5 919,-97.5 919,-67.5 809,-67.5"/>
<text text-anchor="start" x="817" y="-85.5" font-family="Helvetica,sans-Serif" font-size="10.00">include/wld/wld_ap</text>
<text text-anchor="middle" x="864" y="-74.5" font-family="Helvetica,sans-Serif" font-size="10.00">_nl80211.h</text>
</a>
</g>
</g>
<!-- Node3&#45;&gt;Node4 -->
<g id="edge3" class="edge">
<title>Node3&#45;&gt;Node4</title>
<path fill="none" stroke="midnightblue" d="M1668.22,-142.7C1492.16,-129.74 1070.4,-98.69 919.15,-87.56"/>
<polygon fill="midnightblue" stroke="midnightblue" points="1668.22,-146.21 1678.45,-143.45 1668.73,-139.23 1668.22,-146.21"/>
</g>
<!-- Node11 -->
<g id="node11" class="node">
<title>Node11</title>
<g id="a_node11"><a xlink:href="wld__ep__nl80211_8h.html" target="_top" xlink:title=" ">
<polygon fill="white" stroke="black" points="534,-67.5 534,-97.5 644,-97.5 644,-67.5 534,-67.5"/>
<text text-anchor="start" x="542" y="-85.5" font-family="Helvetica,sans-Serif" font-size="10.00">include/wld/wld_ep</text>
<text text-anchor="middle" x="589" y="-74.5" font-family="Helvetica,sans-Serif" font-size="10.00">_nl80211.h</text>
</a>
</g>
</g>
<!-- Node3&#45;&gt;Node11 -->
<g id="edge10" class="edge">
<title>Node3&#45;&gt;Node11</title>
<path fill="none" stroke="midnightblue" d="M1667.97,-144.7C1505.42,-136.78 1121.81,-117.64 800,-98 747.04,-94.77 686.64,-90.57 644.07,-87.52"/>
<polygon fill="midnightblue" stroke="midnightblue" points="1668.2,-148.21 1678.35,-145.2 1668.54,-141.22 1668.2,-148.21"/>
</g>
<!-- Node13 -->
<g id="node13" class="node">
<title>Node13</title>
<g id="a_node13"><a xlink:href="wld__rad__nl80211_8h.html" target="_top" xlink:title=" ">
<polygon fill="white" stroke="black" points="1235.5,-67.5 1235.5,-97.5 1348.5,-97.5 1348.5,-67.5 1235.5,-67.5"/>
<text text-anchor="start" x="1243.5" y="-85.5" font-family="Helvetica,sans-Serif" font-size="10.00">include/wld/wld_rad</text>
<text text-anchor="middle" x="1292" y="-74.5" font-family="Helvetica,sans-Serif" font-size="10.00">_nl80211.h</text>
</a>
</g>
</g>
<!-- Node3&#45;&gt;Node13 -->
<g id="edge13" class="edge">
<title>Node3&#45;&gt;Node13</title>
<path fill="none" stroke="midnightblue" d="M1668.38,-137.27C1577.2,-124.24 1429.13,-103.09 1348.57,-91.58"/>
<polygon fill="midnightblue" stroke="midnightblue" points="1667.99,-140.75 1678.39,-138.7 1668.98,-133.82 1667.99,-140.75"/>
</g>
<!-- Node14 -->
<g id="node14" class="node">
<title>Node14</title>
<g id="a_node14"><a xlink:href="wifiGen_8c.html" target="_top" xlink:title=" ">
<polygon fill="white" stroke="black" points="1780,-6 1780,-25 1892,-25 1892,-6 1780,-6"/>
<text text-anchor="middle" x="1836" y="-13" font-family="Helvetica,sans-Serif" font-size="10.00">src/Plugin/wifiGen.c</text>
</a>
</g>
</g>
<!-- Node3&#45;&gt;Node14 -->
<g id="edge33" class="edge">
<title>Node3&#45;&gt;Node14</title>
<path fill="none" stroke="midnightblue" d="M1748.21,-123.99C1750.08,-106.81 1754.7,-83.96 1766,-67 1778.79,-47.79 1801.52,-33.42 1817.61,-25.01"/>
<polygon fill="midnightblue" stroke="midnightblue" points="1744.69,-124.09 1747.34,-134.35 1751.67,-124.68 1744.69,-124.09"/>
</g>
<!-- Node22 -->
<g id="node22" class="node">
<title>Node22</title>
<g id="a_node22"><a xlink:href="wld__ssid__nl80211__priv_8h.html" target="_top" xlink:title=" ">
<polygon fill="white" stroke="black" points="254,-67.5 254,-97.5 392,-97.5 392,-67.5 254,-67.5"/>
<text text-anchor="start" x="262" y="-85.5" font-family="Helvetica,sans-Serif" font-size="10.00">include_priv/nl80211</text>
<text text-anchor="middle" x="323" y="-74.5" font-family="Helvetica,sans-Serif" font-size="10.00">/wld_ssid_nl80211_priv.h</text>
</a>
</g>
</g>
<!-- Node3&#45;&gt;Node22 -->
<g id="edge27" class="edge">
<title>Node3&#45;&gt;Node22</title>
<path fill="none" stroke="midnightblue" d="M1668.28,-146.08C1474.05,-139.91 956.38,-122.39 525,-98 480.77,-95.5 431.14,-91.95 392.15,-88.99"/>
<polygon fill="midnightblue" stroke="midnightblue" points="1668.29,-149.58 1678.4,-146.4 1668.51,-142.58 1668.29,-149.58"/>
</g>
<!-- Node24 -->
<g id="node24" class="node">
<title>Node24</title>
<g id="a_node24"><a xlink:href="wld__zwdfs_8c.html" target="_top" xlink:title=" ">
<polygon fill="white" stroke="black" points="1775,-67.5 1775,-97.5 1913,-97.5 1913,-67.5 1775,-67.5"/>
<text text-anchor="start" x="1783" y="-85.5" font-family="Helvetica,sans-Serif" font-size="10.00">src/ChannelManagement</text>
<text text-anchor="middle" x="1844" y="-74.5" font-family="Helvetica,sans-Serif" font-size="10.00">/wld_zwdfs.c</text>
</a>
</g>
</g>
<!-- Node3&#45;&gt;Node24 -->
<g id="edge32" class="edge">
<title>Node3&#45;&gt;Node24</title>
<path fill="none" stroke="midnightblue" d="M1776.5,-128.73C1791.51,-118.68 1809.4,-106.68 1822.99,-97.58"/>
<polygon fill="midnightblue" stroke="midnightblue" points="1774.41,-125.92 1768.05,-134.4 1778.3,-131.74 1774.41,-125.92"/>
</g>
<!-- Node25 -->
<g id="node25" class="node">
<title>Node25</title>
<g id="a_node25"><a xlink:href="wifiGen__mld_8c.html" target="_top" xlink:title=" ">
<polygon fill="white" stroke="black" points="1615,-67.5 1615,-97.5 1719,-97.5 1719,-67.5 1615,-67.5"/>
<text text-anchor="start" x="1623" y="-85.5" font-family="Helvetica,sans-Serif" font-size="10.00">src/Plugin/wifiGen</text>
<text text-anchor="middle" x="1667" y="-74.5" font-family="Helvetica,sans-Serif" font-size="10.00">_mld.c</text>
</a>
</g>
</g>
<!-- Node3&#45;&gt;Node25 -->
<g id="edge34" class="edge">
<title>Node3&#45;&gt;Node25</title>
<path fill="none" stroke="midnightblue" d="M1721.63,-127.88C1709.47,-118.01 1695.22,-106.43 1684.32,-97.58"/>
<polygon fill="midnightblue" stroke="midnightblue" points="1719.67,-130.81 1729.64,-134.4 1724.09,-125.37 1719.67,-130.81"/>
</g>
<!-- Node26 -->
<g id="node26" class="node">
<title>Node26</title>
<g id="a_node26"><a xlink:href="wld__nl80211__api_8c.html" target="_top" xlink:title=" ">
<polygon fill="white" stroke="black" points="2220.5,-0.5 2220.5,-30.5 2357.5,-30.5 2357.5,-0.5 2220.5,-0.5"/>
<text text-anchor="start" x="2228.5" y="-18.5" font-family="Helvetica,sans-Serif" font-size="10.00">src/nl80211/wld_nl80211</text>
<text text-anchor="middle" x="2289" y="-7.5" font-family="Helvetica,sans-Serif" font-size="10.00">_api.c</text>
</a>
</g>
</g>
<!-- Node3&#45;&gt;Node26 -->
<g id="edge35" class="edge">
<title>Node3&#45;&gt;Node26</title>
<path fill="none" stroke="midnightblue" d="M1825.67,-132.65C1869.54,-123.4 1925.04,-111.01 1974,-98 2018.97,-86.05 2029.1,-79.22 2074,-67 2123.95,-53.41 2181,-40.11 2223.78,-30.57"/>
<polygon fill="midnightblue" stroke="midnightblue" points="1824.71,-129.28 1815.64,-134.75 1826.15,-136.13 1824.71,-129.28"/>
</g>
<!-- Node3&#45;&gt;Node27 -->
<g id="edge36" class="edge">
<title>Node3&#45;&gt;Node27</title>
<path fill="none" stroke="midnightblue" d="M1809.87,-131.77C1843.38,-122.5 1885.17,-110.37 1922,-98 1926.38,-96.53 2038.07,-53.49 2097.53,-30.57"/>
<polygon fill="midnightblue" stroke="midnightblue" points="1808.92,-128.4 1800.21,-134.43 1810.78,-135.15 1808.92,-128.4"/>
</g>
<!-- Node28 -->
<g id="node28" class="node">
<title>Node28</title>
<g id="a_node28"><a xlink:href="test__wld__nl80211_8c.html" target="_top" xlink:title=" ">
<polygon fill="white" stroke="black" points="2083,-67.5 2083,-97.5 2205,-97.5 2205,-67.5 2083,-67.5"/>
<text text-anchor="start" x="2091" y="-85.5" font-family="Helvetica,sans-Serif" font-size="10.00">test/wld_nl80211/test</text>
<text text-anchor="middle" x="2144" y="-74.5" font-family="Helvetica,sans-Serif" font-size="10.00">_wld_nl80211.c</text>
</a>
</g>
</g>
<!-- Node3&#45;&gt;Node28 -->
<g id="edge37" class="edge">
<title>Node3&#45;&gt;Node28</title>
<path fill="none" stroke="midnightblue" d="M1825.8,-136.94C1891.07,-127.17 1986.2,-112.49 2069,-98 2073.44,-97.22 2078.03,-96.4 2082.64,-95.55"/>
<polygon fill="midnightblue" stroke="midnightblue" points="1824.96,-133.52 1815.58,-138.46 1825.99,-140.45 1824.96,-133.52"/>
</g>
<!-- Node5 -->
<g id="node5" class="node">
<title>Node5</title>
<g id="a_node5"><a xlink:href="wifiGen__eventHandlers_8c.html" target="_top" xlink:title=" ">
<polygon fill="white" stroke="black" points="1056,-0.5 1056,-30.5 1160,-30.5 1160,-0.5 1056,-0.5"/>
<text text-anchor="start" x="1064" y="-18.5" font-family="Helvetica,sans-Serif" font-size="10.00">src/Plugin/wifiGen</text>
<text text-anchor="middle" x="1108" y="-7.5" font-family="Helvetica,sans-Serif" font-size="10.00">_eventHandlers.c</text>
</a>
</g>
</g>
<!-- Node4&#45;&gt;Node5 -->
<g id="edge4" class="edge">
<title>Node4&#45;&gt;Node5</title>
<path fill="none" stroke="midnightblue" d="M926.32,-64.9C966.42,-54.22 1017.94,-40.49 1055.87,-30.39"/>
<polygon fill="midnightblue" stroke="midnightblue" points="925.41,-61.52 916.64,-67.48 927.21,-68.28 925.41,-61.52"/>
</g>
<!-- Node6 -->
<g id="node6" class="node">
<title>Node6</title>
<g id="a_node6"><a xlink:href="wifiGen__fsm_8c.html" target="_top" xlink:title=" ">
<polygon fill="white" stroke="black" points="812,-0.5 812,-30.5 916,-30.5 916,-0.5 812,-0.5"/>
<text text-anchor="start" x="820" y="-18.5" font-family="Helvetica,sans-Serif" font-size="10.00">src/Plugin/wifiGen</text>
<text text-anchor="middle" x="864" y="-7.5" font-family="Helvetica,sans-Serif" font-size="10.00">_fsm.c</text>
</a>
</g>
</g>
<!-- Node4&#45;&gt;Node6 -->
<g id="edge5" class="edge">
<title>Node4&#45;&gt;Node6</title>
<path fill="none" stroke="midnightblue" d="M864,-57.11C864,-48.15 864,-38.32 864,-30.58"/>
<polygon fill="midnightblue" stroke="midnightblue" points="860.5,-57.4 864,-67.4 867.5,-57.4 860.5,-57.4"/>
</g>
<!-- Node7 -->
<g id="node7" class="node">
<title>Node7</title>
<g id="a_node7"><a xlink:href="wifiGen__vap_8c.html" target="_top" xlink:title=" ">
<polygon fill="white" stroke="black" points="934,-0.5 934,-30.5 1038,-30.5 1038,-0.5 934,-0.5"/>
<text text-anchor="start" x="942" y="-18.5" font-family="Helvetica,sans-Serif" font-size="10.00">src/Plugin/wifiGen</text>
<text text-anchor="middle" x="986" y="-7.5" font-family="Helvetica,sans-Serif" font-size="10.00">_vap.c</text>
</a>
</g>
</g>
<!-- Node4&#45;&gt;Node7 -->
<g id="edge6" class="edge">
<title>Node4&#45;&gt;Node7</title>
<path fill="none" stroke="midnightblue" d="M899.52,-62.57C918.71,-52.35 942,-39.94 959.58,-30.58"/>
<polygon fill="midnightblue" stroke="midnightblue" points="897.65,-59.6 890.47,-67.4 900.94,-65.78 897.65,-59.6"/>
</g>
<!-- Node8 -->
<g id="node8" class="node">
<title>Node8</title>
<g id="a_node8"><a xlink:href="wld__ap__nl80211_8c.html" target="_top" xlink:title=" ">
<polygon fill="white" stroke="black" points="268,-0.5 268,-30.5 378,-30.5 378,-0.5 268,-0.5"/>
<text text-anchor="start" x="276" y="-18.5" font-family="Helvetica,sans-Serif" font-size="10.00">src/nl80211/wld_ap</text>
<text text-anchor="middle" x="323" y="-7.5" font-family="Helvetica,sans-Serif" font-size="10.00">_nl80211.c</text>
</a>
</g>
</g>
<!-- Node4&#45;&gt;Node8 -->
<g id="edge7" class="edge">
<title>Node4&#45;&gt;Node8</title>
<path fill="none" stroke="midnightblue" d="M798.98,-77.05C706.87,-70.19 533.3,-55.23 387,-31 384.08,-30.52 381.09,-29.98 378.08,-29.41"/>
<polygon fill="midnightblue" stroke="midnightblue" points="798.76,-80.54 808.99,-77.78 799.28,-73.56 798.76,-80.54"/>
</g>
<!-- Node9 -->
<g id="node9" class="node">
<title>Node9</title>
<g id="a_node9"><a xlink:href="wld__rad__nl80211_8c.html" target="_top" xlink:title=" ">
<polygon fill="white" stroke="black" points="136,-0.5 136,-30.5 250,-30.5 250,-0.5 136,-0.5"/>
<text text-anchor="start" x="144" y="-18.5" font-family="Helvetica,sans-Serif" font-size="10.00">src/nl80211/wld_rad</text>
<text text-anchor="middle" x="193" y="-7.5" font-family="Helvetica,sans-Serif" font-size="10.00">_nl80211.c</text>
</a>
</g>
</g>
<!-- Node4&#45;&gt;Node9 -->
<g id="edge8" class="edge">
<title>Node4&#45;&gt;Node9</title>
<path fill="none" stroke="midnightblue" d="M798.5,-77.14C664.19,-68.02 361.59,-46.48 259,-31 256.1,-30.56 253.14,-30.07 250.15,-29.54"/>
<polygon fill="midnightblue" stroke="midnightblue" points="798.44,-80.64 808.65,-77.83 798.91,-73.66 798.44,-80.64"/>
</g>
<!-- Node10 -->
<g id="node10" class="node">
<title>Node10</title>
<g id="a_node10"><a xlink:href="wld__accesspoint_8c.html" target="_top" xlink:title=" ">
<polygon fill="white" stroke="black" points="672,-6 672,-25 794,-25 794,-6 672,-6"/>
<text text-anchor="middle" x="733" y="-13" font-family="Helvetica,sans-Serif" font-size="10.00">src/wld_accesspoint.c</text>
</a>
</g>
</g>
<!-- Node4&#45;&gt;Node10 -->
<g id="edge9" class="edge">
<title>Node4&#45;&gt;Node10</title>
<path fill="none" stroke="midnightblue" d="M826.32,-62.8C801.2,-50.34 769.39,-34.56 750.14,-25.01"/>
<polygon fill="midnightblue" stroke="midnightblue" points="825.06,-66.09 835.57,-67.4 828.17,-59.82 825.06,-66.09"/>
</g>
<!-- Node11&#45;&gt;Node9 -->
<g id="edge12" class="edge">
<title>Node11&#45;&gt;Node9</title>
<path fill="none" stroke="midnightblue" d="M523.98,-72.81C457.27,-63.6 350.59,-48.05 259,-31 256.12,-30.46 253.17,-29.89 250.19,-29.3"/>
<polygon fill="midnightblue" stroke="midnightblue" points="523.55,-76.28 533.93,-74.18 524.5,-69.35 523.55,-76.28"/>
</g>
<!-- Node12 -->
<g id="node12" class="node">
<title>Node12</title>
<g id="a_node12"><a xlink:href="wifiGen__ep_8c.html" target="_top" xlink:title=" ">
<polygon fill="white" stroke="black" points="524.5,-6 524.5,-25 653.5,-25 653.5,-6 524.5,-6"/>
<text text-anchor="middle" x="589" y="-13" font-family="Helvetica,sans-Serif" font-size="10.00">src/Plugin/wifiGen_ep.c</text>
</a>
</g>
</g>
<!-- Node11&#45;&gt;Node12 -->
<g id="edge11" class="edge">
<title>Node11&#45;&gt;Node12</title>
<path fill="none" stroke="midnightblue" d="M589,-57.25C589,-46.02 589,-33.38 589,-25.19"/>
<polygon fill="midnightblue" stroke="midnightblue" points="585.5,-57.4 589,-67.4 592.5,-57.4 585.5,-57.4"/>
</g>
<!-- Node13&#45;&gt;Node5 -->
<g id="edge16" class="edge">
<title>Node13&#45;&gt;Node5</title>
<path fill="none" stroke="midnightblue" d="M1242.33,-63.96C1212.7,-53.48 1175.56,-40.37 1147.85,-30.58"/>
<polygon fill="midnightblue" stroke="midnightblue" points="1241.48,-67.37 1252.07,-67.4 1243.81,-60.76 1241.48,-67.37"/>
</g>
<!-- Node13&#45;&gt;Node6 -->
<g id="edge17" class="edge">
<title>Node13&#45;&gt;Node6</title>
<path fill="none" stroke="midnightblue" d="M1225.38,-74.29C1151.6,-65.86 1029.3,-50.53 925,-31 922.11,-30.46 919.15,-29.87 916.17,-29.25"/>
<polygon fill="midnightblue" stroke="midnightblue" points="1225.13,-77.79 1235.46,-75.44 1225.91,-70.83 1225.13,-77.79"/>
</g>
<!-- Node13&#45;&gt;Node7 -->
<g id="edge21" class="edge">
<title>Node13&#45;&gt;Node7</title>
<path fill="none" stroke="midnightblue" d="M1225.55,-68.36C1176.2,-58.47 1107.29,-44.38 1047,-31 1044.13,-30.36 1041.19,-29.7 1038.22,-29.02"/>
<polygon fill="midnightblue" stroke="midnightblue" points="1224.96,-71.82 1235.46,-70.35 1226.34,-64.95 1224.96,-71.82"/>
</g>
<!-- Node13&#45;&gt;Node9 -->
<g id="edge24" class="edge">
<title>Node13&#45;&gt;Node9</title>
<path fill="none" stroke="midnightblue" d="M1225.02,-78.88C1011.31,-70.42 354.16,-43.69 259,-31 256.09,-30.61 253.12,-30.16 250.13,-29.67"/>
<polygon fill="midnightblue" stroke="midnightblue" points="1225.02,-82.38 1235.15,-79.28 1225.3,-75.39 1225.02,-82.38"/>
</g>
<!-- Node13&#45;&gt;Node12 -->
<g id="edge15" class="edge">
<title>Node13&#45;&gt;Node12</title>
<path fill="none" stroke="midnightblue" d="M1225.31,-78.63C1110.18,-73.13 866.85,-59.06 663,-31 651.59,-29.43 639.28,-27.22 628.03,-25.01"/>
<polygon fill="midnightblue" stroke="midnightblue" points="1225.23,-82.13 1235.38,-79.11 1225.56,-75.14 1225.23,-82.13"/>
</g>
<!-- Node13&#45;&gt;Node14 -->
<g id="edge14" class="edge">
<title>Node13&#45;&gt;Node14</title>
<path fill="none" stroke="midnightblue" d="M1358.79,-76.88C1451.65,-69.92 1624.84,-54.93 1771,-31 1780.81,-29.39 1791.37,-27.23 1801.06,-25.07"/>
<polygon fill="midnightblue" stroke="midnightblue" points="1358.4,-73.4 1348.69,-77.63 1358.92,-80.38 1358.4,-73.4"/>
</g>
<!-- Node15 -->
<g id="node15" class="node">
<title>Node15</title>
<g id="a_node15"><a xlink:href="wifiGen__hapd_8c.html" target="_top" xlink:title=" ">
<polygon fill="white" stroke="black" points="1414,-0.5 1414,-30.5 1518,-30.5 1518,-0.5 1414,-0.5"/>
<text text-anchor="start" x="1422" y="-18.5" font-family="Helvetica,sans-Serif" font-size="10.00">src/Plugin/wifiGen</text>
<text text-anchor="middle" x="1466" y="-7.5" font-family="Helvetica,sans-Serif" font-size="10.00">_hapd.c</text>
</a>
</g>
</g>
<!-- Node13&#45;&gt;Node15 -->
<g id="edge18" class="edge">
<title>Node13&#45;&gt;Node15</title>
<path fill="none" stroke="midnightblue" d="M1339.33,-63.82C1367.3,-53.37 1402.23,-40.32 1428.32,-30.58"/>
<polygon fill="midnightblue" stroke="midnightblue" points="1337.9,-60.62 1329.76,-67.4 1340.35,-67.18 1337.9,-60.62"/>
</g>
<!-- Node16 -->
<g id="node16" class="node">
<title>Node16</title>
<g id="a_node16"><a xlink:href="wifiGen__rad_8c.html" target="_top" xlink:title=" ">
<polygon fill="white" stroke="black" points="1536,-0.5 1536,-30.5 1640,-30.5 1640,-0.5 1536,-0.5"/>
<text text-anchor="start" x="1544" y="-18.5" font-family="Helvetica,sans-Serif" font-size="10.00">src/Plugin/wifiGen</text>
<text text-anchor="middle" x="1588" y="-7.5" font-family="Helvetica,sans-Serif" font-size="10.00">_rad.c</text>
</a>
</g>
</g>
<!-- Node13&#45;&gt;Node16 -->
<g id="edge19" class="edge">
<title>Node13&#45;&gt;Node16</title>
<path fill="none" stroke="midnightblue" d="M1358.65,-67.58C1405.75,-57.64 1470.31,-43.83 1527,-31 1529.87,-30.35 1532.81,-29.68 1535.77,-28.99"/>
<polygon fill="midnightblue" stroke="midnightblue" points="1357.64,-64.21 1348.58,-69.7 1359.09,-71.06 1357.64,-64.21"/>
</g>
<!-- Node17 -->
<g id="node17" class="node">
<title>Node17</title>
<g id="a_node17"><a xlink:href="wifiGen__radIfMgt_8c.html" target="_top" xlink:title=" ">
<polygon fill="white" stroke="black" points="1658,-0.5 1658,-30.5 1762,-30.5 1762,-0.5 1658,-0.5"/>
<text text-anchor="start" x="1666" y="-18.5" font-family="Helvetica,sans-Serif" font-size="10.00">src/Plugin/wifiGen</text>
<text text-anchor="middle" x="1710" y="-7.5" font-family="Helvetica,sans-Serif" font-size="10.00">_radIfMgt.c</text>
</a>
</g>
</g>
<!-- Node13&#45;&gt;Node17 -->
<g id="edge20" class="edge">
<title>Node13&#45;&gt;Node17</title>
<path fill="none" stroke="midnightblue" d="M1358.81,-73.93C1430.76,-65.34 1548.46,-50.02 1649,-31 1651.89,-30.45 1654.85,-29.86 1657.82,-29.24"/>
<polygon fill="midnightblue" stroke="midnightblue" points="1358.05,-70.49 1348.53,-75.15 1358.88,-77.45 1358.05,-70.49"/>
</g>
<!-- Node18 -->
<g id="node18" class="node">
<title>Node18</title>
<g id="a_node18"><a xlink:href="wld__ep__nl80211_8c.html" target="_top" xlink:title=" ">
<polygon fill="white" stroke="black" points="396,-0.5 396,-30.5 506,-30.5 506,-0.5 396,-0.5"/>
<text text-anchor="start" x="404" y="-18.5" font-family="Helvetica,sans-Serif" font-size="10.00">src/nl80211/wld_ep</text>
<text text-anchor="middle" x="451" y="-7.5" font-family="Helvetica,sans-Serif" font-size="10.00">_nl80211.c</text>
</a>
</g>
</g>
<!-- Node13&#45;&gt;Node18 -->
<g id="edge22" class="edge">
<title>Node13&#45;&gt;Node18</title>
<path fill="none" stroke="midnightblue" d="M1224.91,-78.5C1062.44,-71.03 651.23,-50.73 515,-31 512.07,-30.58 509.07,-30.09 506.05,-29.55"/>
<polygon fill="midnightblue" stroke="midnightblue" points="1225.1,-82.02 1235.25,-78.98 1225.42,-75.02 1225.1,-82.02"/>
</g>
<!-- Node19 -->
<g id="node19" class="node">
<title>Node19</title>
<g id="a_node19"><a xlink:href="wld__nl80211__scan_8c.html" target="_top" xlink:title=" ">
<polygon fill="white" stroke="black" points="1910.5,-0.5 1910.5,-30.5 2047.5,-30.5 2047.5,-0.5 1910.5,-0.5"/>
<text text-anchor="start" x="1918.5" y="-18.5" font-family="Helvetica,sans-Serif" font-size="10.00">src/nl80211/wld_nl80211</text>
<text text-anchor="middle" x="1979" y="-7.5" font-family="Helvetica,sans-Serif" font-size="10.00">_scan.c</text>
</a>
</g>
</g>
<!-- Node13&#45;&gt;Node19 -->
<g id="edge23" class="edge">
<title>Node13&#45;&gt;Node19</title>
<path fill="none" stroke="midnightblue" d="M1359.05,-78.16C1471.48,-72.07 1704.97,-57.28 1901,-31 1904,-30.6 1907.07,-30.16 1910.16,-29.69"/>
<polygon fill="midnightblue" stroke="midnightblue" points="1358.68,-74.68 1348.88,-78.71 1359.05,-81.67 1358.68,-74.68"/>
</g>
<!-- Node20 -->
<g id="node20" class="node">
<title>Node20</title>
<g id="a_node20"><a xlink:href="wld__assocdev_8c.html" target="_top" xlink:title=" ">
<polygon fill="white" stroke="black" points="1178,-6 1178,-25 1288,-25 1288,-6 1178,-6"/>
<text text-anchor="middle" x="1233" y="-13" font-family="Helvetica,sans-Serif" font-size="10.00">src/wld_assocdev.c</text>
</a>
</g>
</g>
<!-- Node13&#45;&gt;Node20 -->
<g id="edge25" class="edge">
<title>Node13&#45;&gt;Node20</title>
<path fill="none" stroke="midnightblue" d="M1272.17,-59.66C1261.47,-47.86 1248.85,-33.97 1240.89,-25.19"/>
<polygon fill="midnightblue" stroke="midnightblue" points="1269.89,-62.34 1279.2,-67.4 1275.07,-57.64 1269.89,-62.34"/>
</g>
<!-- Node21 -->
<g id="node21" class="node">
<title>Node21</title>
<g id="a_node21"><a xlink:href="wld__radio_8c.html" target="_top" xlink:title=" ">
<polygon fill="white" stroke="black" points="1306.5,-6 1306.5,-25 1395.5,-25 1395.5,-6 1306.5,-6"/>
<text text-anchor="middle" x="1351" y="-13" font-family="Helvetica,sans-Serif" font-size="10.00">src/wld_radio.c</text>
</a>
</g>
</g>
<!-- Node13&#45;&gt;Node21 -->
<g id="edge26" class="edge">
<title>Node13&#45;&gt;Node21</title>
<path fill="none" stroke="midnightblue" d="M1311.83,-59.66C1322.53,-47.86 1335.15,-33.97 1343.11,-25.19"/>
<polygon fill="midnightblue" stroke="midnightblue" points="1308.93,-57.64 1304.8,-67.4 1314.11,-62.34 1308.93,-57.64"/>
</g>
<!-- Node22&#45;&gt;Node8 -->
<g id="edge28" class="edge">
<title>Node22&#45;&gt;Node8</title>
<path fill="none" stroke="midnightblue" d="M323,-57.11C323,-48.15 323,-38.32 323,-30.58"/>
<polygon fill="midnightblue" stroke="midnightblue" points="319.5,-57.4 323,-67.4 326.5,-57.4 319.5,-57.4"/>
</g>
<!-- Node22&#45;&gt;Node9 -->
<g id="edge30" class="edge">
<title>Node22&#45;&gt;Node9</title>
<path fill="none" stroke="midnightblue" d="M285.71,-62.85C265.15,-52.58 240.05,-40.03 221.15,-30.58"/>
<polygon fill="midnightblue" stroke="midnightblue" points="284.28,-66.05 294.79,-67.4 287.41,-59.79 284.28,-66.05"/>
</g>
<!-- Node22&#45;&gt;Node18 -->
<g id="edge29" class="edge">
<title>Node22&#45;&gt;Node18</title>
<path fill="none" stroke="midnightblue" d="M359.72,-62.85C379.96,-52.58 404.67,-40.03 423.28,-30.58"/>
<polygon fill="midnightblue" stroke="midnightblue" points="358.11,-59.75 350.77,-67.4 361.28,-65.99 358.11,-59.75"/>
</g>
<!-- Node23 -->
<g id="node23" class="node">
<title>Node23</title>
<g id="a_node23"><a xlink:href="wld__ssid__nl80211_8c.html" target="_top" xlink:title=" ">
<polygon fill="white" stroke="black" points="0,-0.5 0,-30.5 118,-30.5 118,-0.5 0,-0.5"/>
<text text-anchor="start" x="8" y="-18.5" font-family="Helvetica,sans-Serif" font-size="10.00">src/nl80211/wld_ssid</text>
<text text-anchor="middle" x="59" y="-7.5" font-family="Helvetica,sans-Serif" font-size="10.00">_nl80211.c</text>
</a>
</g>
</g>
<!-- Node22&#45;&gt;Node23 -->
<g id="edge31" class="edge">
<title>Node22&#45;&gt;Node23</title>
<path fill="none" stroke="midnightblue" d="M256.19,-65.05C213.03,-54.43 157.46,-40.74 116.31,-30.61"/>
<polygon fill="midnightblue" stroke="midnightblue" points="255.49,-68.48 266.04,-67.48 257.17,-61.69 255.49,-68.48"/>
</g>
<!-- Node29&#45;&gt;Node26 -->
<g id="edge45" class="edge">
<title>Node29&#45;&gt;Node26</title>
<path fill="none" stroke="midnightblue" d="M2309.24,-126.91C2302.02,-118.63 2294.91,-108.6 2291,-98 2282.73,-75.56 2284.5,-47.23 2286.67,-30.56"/>
<polygon fill="midnightblue" stroke="midnightblue" points="2306.72,-129.34 2316.09,-134.28 2311.84,-124.57 2306.72,-129.34"/>
</g>
<!-- Node29&#45;&gt;Node28 -->
<g id="edge47" class="edge">
<title>Node29&#45;&gt;Node28</title>
<path fill="none" stroke="midnightblue" d="M2281.65,-131.09C2251.3,-120.6 2213.15,-107.41 2184.71,-97.58"/>
<polygon fill="midnightblue" stroke="midnightblue" points="2280.61,-134.44 2291.21,-134.4 2282.9,-127.82 2280.61,-134.44"/>
</g>
<!-- Node30 -->
<g id="node30" class="node">
<title>Node30</title>
<g id="a_node30"><a xlink:href="wld__nl80211__parser_8h.html" target="_top" xlink:title=" ">
<polygon fill="white" stroke="black" points="2299.5,-67.5 2299.5,-97.5 2424.5,-97.5 2424.5,-67.5 2299.5,-67.5"/>
<text text-anchor="start" x="2307.5" y="-85.5" font-family="Helvetica,sans-Serif" font-size="10.00">include_priv/nl80211</text>
<text text-anchor="middle" x="2362" y="-74.5" font-family="Helvetica,sans-Serif" font-size="10.00">/wld_nl80211_parser.h</text>
</a>
</g>
</g>
<!-- Node29&#45;&gt;Node30 -->
<g id="edge39" class="edge">
<title>Node29&#45;&gt;Node30</title>
<path fill="none" stroke="midnightblue" d="M2342.72,-125.28C2346.99,-116.02 2351.77,-105.66 2355.5,-97.58"/>
<polygon fill="midnightblue" stroke="midnightblue" points="2339.52,-123.85 2338.51,-134.4 2345.88,-126.78 2339.52,-123.85"/>
</g>
<!-- Node29&#45;&gt;Node34 -->
<g id="edge46" class="edge">
<title>Node29&#45;&gt;Node34</title>
<path fill="none" stroke="midnightblue" d="M2380.32,-130.96C2409.15,-120.48 2445.28,-107.37 2472.24,-97.58"/>
<polygon fill="midnightblue" stroke="midnightblue" points="2379.05,-127.69 2370.84,-134.4 2381.43,-134.27 2379.05,-127.69"/>
</g>
<!-- Node30&#45;&gt;Node26 -->
<g id="edge40" class="edge">
<title>Node30&#45;&gt;Node26</title>
<path fill="none" stroke="midnightblue" d="M2338.53,-60.6C2327.5,-50.78 2314.66,-39.34 2304.81,-30.58"/>
<polygon fill="midnightblue" stroke="midnightblue" points="2336.36,-63.36 2346.16,-67.4 2341.02,-58.13 2336.36,-63.36"/>
</g>
<!-- Node30&#45;&gt;Node27 -->
<g id="edge41" class="edge">
<title>Node30&#45;&gt;Node27</title>
<path fill="none" stroke="midnightblue" d="M2303.12,-64.71C2266.02,-54.14 2218.66,-40.63 2183.5,-30.61"/>
<polygon fill="midnightblue" stroke="midnightblue" points="2302.23,-68.1 2312.81,-67.48 2304.15,-61.37 2302.23,-68.1"/>
</g>
<!-- Node31 -->
<g id="node31" class="node">
<title>Node31</title>
<g id="a_node31"><a xlink:href="wld__nl80211__events_8c.html" target="_top" xlink:title=" ">
<polygon fill="white" stroke="black" points="2530.5,-0.5 2530.5,-30.5 2667.5,-30.5 2667.5,-0.5 2530.5,-0.5"/>
<text text-anchor="start" x="2538.5" y="-18.5" font-family="Helvetica,sans-Serif" font-size="10.00">src/nl80211/wld_nl80211</text>
<text text-anchor="middle" x="2599" y="-7.5" font-family="Helvetica,sans-Serif" font-size="10.00">_events.c</text>
</a>
</g>
</g>
<!-- Node30&#45;&gt;Node31 -->
<g id="edge42" class="edge">
<title>Node30&#45;&gt;Node31</title>
<path fill="none" stroke="midnightblue" d="M2423.2,-64.71C2461.77,-54.14 2511,-40.63 2547.55,-30.61"/>
<polygon fill="midnightblue" stroke="midnightblue" points="2421.85,-61.46 2413.13,-67.48 2423.7,-68.21 2421.85,-61.46"/>
</g>
<!-- Node32 -->
<g id="node32" class="node">
<title>Node32</title>
<g id="a_node32"><a xlink:href="wld__nl80211__parser_8c.html" target="_top" xlink:title=" ">
<polygon fill="white" stroke="black" points="2375.5,-0.5 2375.5,-30.5 2512.5,-30.5 2512.5,-0.5 2375.5,-0.5"/>
<text text-anchor="start" x="2383.5" y="-18.5" font-family="Helvetica,sans-Serif" font-size="10.00">src/nl80211/wld_nl80211</text>
<text text-anchor="middle" x="2444" y="-7.5" font-family="Helvetica,sans-Serif" font-size="10.00">_parser.c</text>
</a>
</g>
</g>
<!-- Node30&#45;&gt;Node32 -->
<g id="edge43" class="edge">
<title>Node30&#45;&gt;Node32</title>
<path fill="none" stroke="midnightblue" d="M2387.65,-61.17C2400.19,-51.23 2414.97,-39.51 2426.24,-30.58"/>
<polygon fill="midnightblue" stroke="midnightblue" points="2385.46,-58.44 2379.79,-67.4 2389.8,-63.93 2385.46,-58.44"/>
</g>
<!-- Node33 -->
<g id="node33" class="node">
<title>Node33</title>
<g id="a_node33"><a xlink:href="wld__nl80211__utils_8c.html" target="_top" xlink:title=" ">
<polygon fill="white" stroke="black" points="2685.5,-0.5 2685.5,-30.5 2822.5,-30.5 2822.5,-0.5 2685.5,-0.5"/>
<text text-anchor="start" x="2693.5" y="-18.5" font-family="Helvetica,sans-Serif" font-size="10.00">src/nl80211/wld_nl80211</text>
<text text-anchor="middle" x="2754" y="-7.5" font-family="Helvetica,sans-Serif" font-size="10.00">_utils.c</text>
</a>
</g>
</g>
<!-- Node30&#45;&gt;Node33 -->
<g id="edge44" class="edge">
<title>Node30&#45;&gt;Node33</title>
<path fill="none" stroke="midnightblue" d="M2434.83,-66.91C2543.25,-48.25 2572.49,-48.58 2677,-31 2679.68,-30.55 2682.42,-30.08 2685.18,-29.6"/>
<polygon fill="midnightblue" stroke="midnightblue" points="2434.05,-63.5 2424.79,-68.66 2435.24,-70.39 2434.05,-63.5"/>
</g>
<!-- Node36 -->
<g id="node36" class="node">
<title>Node36</title>
<g id="a_node36"><a xlink:href="wld__nl80211__utils_8h.html" target="_top" xlink:title=" ">
<polygon fill="white" stroke="black" points="2164.5,-268.5 2164.5,-298.5 2301.5,-298.5 2301.5,-268.5 2164.5,-268.5"/>
<text text-anchor="start" x="2172.5" y="-286.5" font-family="Helvetica,sans-Serif" font-size="10.00">include/wld/wld_nl80211</text>
<text text-anchor="middle" x="2233" y="-275.5" font-family="Helvetica,sans-Serif" font-size="10.00">_utils.h</text>
</a>
</g>
</g>
<!-- Node35&#45;&gt;Node36 -->
<g id="edge51" class="edge">
<title>Node35&#45;&gt;Node36</title>
<path fill="none" stroke="midnightblue" d="M2233,-325.11C2233,-316.15 2233,-306.32 2233,-298.58"/>
<polygon fill="midnightblue" stroke="midnightblue" points="2229.5,-325.4 2233,-335.4 2236.5,-325.4 2229.5,-325.4"/>
</g>
<!-- Node37 -->
<g id="node37" class="node">
<title>Node37</title>
<g id="a_node37"><a xlink:href="wld__nl80211__core__priv_8h.html" target="_top" xlink:title=" ">
<polygon fill="white" stroke="black" points="2534,-201.5 2534,-231.5 2674,-231.5 2674,-201.5 2534,-201.5"/>
<text text-anchor="start" x="2542" y="-219.5" font-family="Helvetica,sans-Serif" font-size="10.00">include_priv/nl80211</text>
<text text-anchor="middle" x="2604" y="-208.5" font-family="Helvetica,sans-Serif" font-size="10.00">/wld_nl80211_core_priv.h</text>
</a>
</g>
</g>
<!-- Node35&#45;&gt;Node37 -->
<g id="edge65" class="edge">
<title>Node35&#45;&gt;Node37</title>
<path fill="none" stroke="midnightblue" d="M2281.96,-332.08C2356.3,-305.63 2496.21,-255.85 2564.49,-231.56"/>
<polygon fill="midnightblue" stroke="midnightblue" points="2280.6,-328.85 2272.35,-335.5 2282.95,-335.44 2280.6,-328.85"/>
</g>
<!-- Node36&#45;&gt;Node9 -->
<g id="edge63" class="edge">
<title>Node36&#45;&gt;Node9</title>
<path fill="none" stroke="midnightblue" d="M2154.38,-279.27C1805.91,-264.41 410.56,-198.99 245,-98 219.64,-82.53 204.49,-49.49 197.55,-30.57"/>
<polygon fill="midnightblue" stroke="midnightblue" points="2154.24,-282.77 2164.38,-279.69 2154.54,-275.77 2154.24,-282.77"/>
</g>
<!-- Node36&#45;&gt;Node19 -->
<g id="edge61" class="edge">
<title>Node36&#45;&gt;Node19</title>
<path fill="none" stroke="midnightblue" d="M2154.44,-272.76C2102.04,-264.64 2039.49,-251.27 2021,-232 1966.24,-174.93 1972.66,-68.79 1977.05,-30.63"/>
<polygon fill="midnightblue" stroke="midnightblue" points="2154.02,-276.24 2164.43,-274.27 2155.07,-269.32 2154.02,-276.24"/>
</g>
<!-- Node36&#45;&gt;Node26 -->
<g id="edge59" class="edge">
<title>Node36&#45;&gt;Node26</title>
<path fill="none" stroke="midnightblue" d="M2235.84,-258.29C2239.52,-228.76 2246.58,-177.41 2256,-134 2264.18,-96.31 2277.41,-52.82 2284.37,-30.83"/>
<polygon fill="midnightblue" stroke="midnightblue" points="2232.34,-258.13 2234.6,-268.48 2239.28,-258.97 2232.34,-258.13"/>
</g>
<!-- Node36&#45;&gt;Node28 -->
<g id="edge64" class="edge">
<title>Node36&#45;&gt;Node28</title>
<path fill="none" stroke="midnightblue" d="M2222.4,-258.8C2203.71,-217.01 2165.45,-131.47 2150.34,-97.68"/>
<polygon fill="midnightblue" stroke="midnightblue" points="2219.32,-260.49 2226.6,-268.19 2225.71,-257.63 2219.32,-260.49"/>
</g>
<!-- Node36&#45;&gt;Node32 -->
<g id="edge60" class="edge">
<title>Node36&#45;&gt;Node32</title>
<path fill="none" stroke="midnightblue" d="M2270.17,-263.87C2360.47,-218.54 2584.38,-105.59 2589,-98 2610.98,-61.85 2560.32,-40.39 2512.96,-28.64"/>
<polygon fill="midnightblue" stroke="midnightblue" points="2268.47,-260.81 2261.1,-268.43 2271.61,-267.07 2268.47,-260.81"/>
</g>
<!-- Node36&#45;&gt;Node33 -->
<g id="edge62" class="edge">
<title>Node36&#45;&gt;Node33</title>
<path fill="none" stroke="midnightblue" d="M2311.86,-283.02C2425.02,-282.24 2626.12,-274.65 2683,-232 2748.87,-182.61 2754.51,-70.23 2754.36,-30.63"/>
<polygon fill="midnightblue" stroke="midnightblue" points="2311.5,-279.53 2301.52,-283.08 2311.54,-286.53 2311.5,-279.53"/>
</g>
<!-- Node36&#45;&gt;Node37 -->
<g id="edge52" class="edge">
<title>Node36&#45;&gt;Node37</title>
<path fill="none" stroke="midnightblue" d="M2311.83,-268.69C2377.65,-257.16 2470.62,-240.87 2533.88,-229.78"/>
<polygon fill="midnightblue" stroke="midnightblue" points="2311.16,-265.25 2301.91,-270.43 2312.37,-272.15 2311.16,-265.25"/>
</g>
<!-- Node37&#45;&gt;Node29 -->
<g id="edge53" class="edge">
<title>Node37&#45;&gt;Node29</title>
<path fill="none" stroke="midnightblue" d="M2535.45,-199.12C2490.94,-188.48 2433.53,-174.76 2391.05,-164.61"/>
<polygon fill="midnightblue" stroke="midnightblue" points="2534.78,-202.56 2545.31,-201.48 2536.4,-195.75 2534.78,-202.56"/>
</g>
<!-- Node37&#45;&gt;Node31 -->
<g id="edge58" class="edge">
<title>Node37&#45;&gt;Node31</title>
<path fill="none" stroke="midnightblue" d="M2659.04,-196.86C2673.23,-189.28 2686.8,-178.92 2695,-165 2701.99,-153.13 2699.63,-146.98 2695,-134 2679.34,-90.08 2639.44,-50.72 2616.31,-30.62"/>
<polygon fill="midnightblue" stroke="midnightblue" points="2657.11,-193.91 2649.67,-201.46 2660.19,-200.2 2657.11,-193.91"/>
</g>
<!-- Node37&#45;&gt;Node34 -->
<g id="edge57" class="edge">
<title>Node37&#45;&gt;Node34</title>
<path fill="none" stroke="midnightblue" d="M2560.41,-196.4C2547.1,-188.52 2533.71,-178.11 2525,-165 2511.42,-144.55 2509.74,-115.05 2510.11,-97.72"/>
<polygon fill="midnightblue" stroke="midnightblue" points="2559.1,-199.68 2569.55,-201.46 2562.49,-193.55 2559.1,-199.68"/>
</g>
<!-- Node38 -->
<g id="node38" class="node">
<title>Node38</title>
<g id="a_node38"><a xlink:href="wld__nl80211__events__priv_8h.html" target="_top" xlink:title=" ">
<polygon fill="white" stroke="black" points="2534,-134.5 2534,-164.5 2686,-164.5 2686,-134.5 2534,-134.5"/>
<text text-anchor="start" x="2542" y="-152.5" font-family="Helvetica,sans-Serif" font-size="10.00">include_priv/nl80211</text>
<text text-anchor="middle" x="2610" y="-141.5" font-family="Helvetica,sans-Serif" font-size="10.00">/wld_nl80211_events_priv.h</text>
</a>
</g>
</g>
<!-- Node37&#45;&gt;Node38 -->
<g id="edge54" class="edge">
<title>Node37&#45;&gt;Node38</title>
<path fill="none" stroke="midnightblue" d="M2606.22,-191.4C2607.06,-182.37 2607.98,-172.41 2608.7,-164.58"/>
<polygon fill="midnightblue" stroke="midnightblue" points="2602.74,-191.12 2605.3,-201.4 2609.71,-191.76 2602.74,-191.12"/>
</g>
<!-- Node38&#45;&gt;Node31 -->
<g id="edge56" class="edge">
<title>Node38&#45;&gt;Node31</title>
<path fill="none" stroke="midnightblue" d="M2618.06,-124.45C2622.43,-108.14 2626.15,-86.15 2622,-67 2619.18,-54.01 2612.72,-40.35 2607.36,-30.52"/>
<polygon fill="midnightblue" stroke="midnightblue" points="2614.64,-123.68 2615.18,-134.26 2621.36,-125.65 2614.64,-123.68"/>
</g>
<!-- Node38&#45;&gt;Node34 -->
<g id="edge55" class="edge">
<title>Node38&#45;&gt;Node34</title>
<path fill="none" stroke="midnightblue" d="M2579.89,-128.73C2564.58,-118.68 2546.31,-106.68 2532.44,-97.58"/>
<polygon fill="midnightblue" stroke="midnightblue" points="2578.24,-131.83 2588.52,-134.4 2582.08,-125.98 2578.24,-131.83"/>
</g>
</g>
</svg>
