<?xml version="1.0" encoding="UTF-8" standalone="no"?>
<!DOCTYPE svg PUBLIC "-//W3C//DTD SVG 1.1//EN"
 "http://www.w3.org/Graphics/SVG/1.1/DTD/svg11.dtd">
<!-- Generated by graphviz version 2.43.0 (0)
 -->
<!-- Title: get_wld_object Pages: 1 -->
<svg width="713pt" height="1275pt"
 viewBox="0.00 0.00 713.00 1275.00" xmlns="http://www.w3.org/2000/svg" xmlns:xlink="http://www.w3.org/1999/xlink">
<g id="graph0" class="graph" transform="scale(1 1) rotate(0) translate(4 1271)">
<title>get_wld_object</title>
<polygon fill="white" stroke="transparent" points="-4,4 -4,-1271 709,-1271 709,4 -4,4"/>
<!-- Node1 -->
<g id="node1" class="node">
<title>Node1</title>
<g id="a_node1"><a xlink:title=" ">
<polygon fill="#bfbfbf" stroke="black" points="615,-657.5 615,-676.5 705,-676.5 705,-657.5 615,-657.5"/>
<text text-anchor="middle" x="660" y="-664.5" font-family="Helvetica,sans-Serif" font-size="10.00">get_wld_object</text>
</a>
</g>
</g>
<!-- Node2 -->
<g id="node2" class="node">
<title>Node2</title>
<g id="a_node2"><a xlink:href="wld__accesspoint_8c.html#afae0379e629c3997b9359b4359b67dc8" target="_top" xlink:title=" ">
<polygon fill="white" stroke="black" points="424,-904.5 424,-923.5 566,-923.5 566,-904.5 424,-904.5"/>
<text text-anchor="middle" x="495" y="-911.5" font-family="Helvetica,sans-Serif" font-size="10.00">_wld_ap_addInstance_oaf</text>
</a>
</g>
</g>
<!-- Node1&#45;&gt;Node2 -->
<g id="edge1" class="edge">
<title>Node1&#45;&gt;Node2</title>
<path fill="none" stroke="midnightblue" d="M658.2,-686.57C655.27,-730.8 641.73,-838.95 579,-895 574.7,-898.84 569.79,-901.95 564.54,-904.47"/>
<polygon fill="midnightblue" stroke="midnightblue" points="661.69,-686.73 658.74,-676.55 654.7,-686.35 661.69,-686.73"/>
</g>
<!-- Node3 -->
<g id="node3" class="node">
<title>Node3</title>
<g id="a_node3"><a xlink:href="wld__endpoint_8c.html#ad7be42fc9b16c6a74cbecd5a1d32abc3" target="_top" xlink:title=" ">
<polygon fill="white" stroke="black" points="424,-866.5 424,-885.5 566,-885.5 566,-866.5 424,-866.5"/>
<text text-anchor="middle" x="495" y="-873.5" font-family="Helvetica,sans-Serif" font-size="10.00">_wld_ep_addInstance_oaf</text>
</a>
</g>
</g>
<!-- Node1&#45;&gt;Node3 -->
<g id="edge2" class="edge">
<title>Node1&#45;&gt;Node3</title>
<path fill="none" stroke="midnightblue" d="M656.62,-686.71C650.84,-725.57 632.38,-812.16 579,-857 574.47,-860.8 569.33,-863.88 563.88,-866.37"/>
<polygon fill="midnightblue" stroke="midnightblue" points="660.1,-687.07 657.98,-676.69 653.17,-686.12 660.1,-687.07"/>
</g>
<!-- Node4 -->
<g id="node4" class="node">
<title>Node4</title>
<g id="a_node4"><a xlink:href="wld__radio_8c.html#ad04b7c8b53627ddd3320552be7357da4" target="_top" xlink:title=" ">
<polygon fill="white" stroke="black" points="453,-828.5 453,-847.5 537,-847.5 537,-828.5 453,-828.5"/>
<text text-anchor="middle" x="495" y="-835.5" font-family="Helvetica,sans-Serif" font-size="10.00">s_selectRadio</text>
</a>
</g>
</g>
<!-- Node1&#45;&gt;Node4 -->
<g id="edge3" class="edge">
<title>Node1&#45;&gt;Node4</title>
<path fill="none" stroke="midnightblue" d="M654.44,-686.36C645.7,-719.03 623.38,-784.86 579,-819 567.17,-828.1 551.75,-832.98 537.42,-835.55"/>
<polygon fill="midnightblue" stroke="midnightblue" points="657.84,-687.2 656.9,-676.65 651.05,-685.48 657.84,-687.2"/>
</g>
<!-- Node6 -->
<g id="node6" class="node">
<title>Node6</title>
<g id="a_node6"><a xlink:href="wld__accesspoint_8c.html#a2ec39b228a84f69591bd1ba237fec4d8" target="_top" xlink:title=" ">
<polygon fill="white" stroke="black" points="447,-790.5 447,-809.5 543,-809.5 543,-790.5 447,-790.5"/>
<text text-anchor="middle" x="495" y="-797.5" font-family="Helvetica,sans-Serif" font-size="10.00">wld_ap_fromObj</text>
</a>
</g>
</g>
<!-- Node1&#45;&gt;Node6 -->
<g id="edge5" class="edge">
<title>Node1&#45;&gt;Node6</title>
<path fill="none" stroke="midnightblue" d="M650.92,-686.19C639.07,-711.94 614.45,-757.17 579,-781 568.45,-788.09 555.62,-792.57 543.24,-795.38"/>
<polygon fill="midnightblue" stroke="midnightblue" points="654.25,-687.33 655.09,-676.77 647.85,-684.5 654.25,-687.33"/>
</g>
<!-- Node7 -->
<g id="node7" class="node">
<title>Node7</title>
<g id="a_node7"><a xlink:href="wld__dmnMgt_8c.html#a115e2c85916561f253910fb66063fa7e" target="_top" xlink:title=" ">
<polygon fill="white" stroke="black" points="425,-752.5 425,-771.5 565,-771.5 565,-752.5 425,-752.5"/>
<text text-anchor="middle" x="495" y="-759.5" font-family="Helvetica,sans-Serif" font-size="10.00">wld_dmnMgt_getDmnCtx</text>
</a>
</g>
</g>
<!-- Node1&#45;&gt;Node7 -->
<g id="edge6" class="edge">
<title>Node1&#45;&gt;Node7</title>
<path fill="none" stroke="midnightblue" d="M645.51,-684.42C630.99,-701.93 606.27,-728.37 579,-743 571.71,-746.91 563.63,-750.02 555.47,-752.5"/>
<polygon fill="midnightblue" stroke="midnightblue" points="648.23,-686.62 651.78,-676.63 642.78,-682.22 648.23,-686.62"/>
</g>
<!-- Node8 -->
<g id="node8" class="node">
<title>Node8</title>
<g id="a_node8"><a xlink:href="wld__endpoint_8c.html#a1fb14cac84fe686df9b56474d04deaee" target="_top" xlink:title=" ">
<polygon fill="white" stroke="black" points="447,-714.5 447,-733.5 543,-733.5 543,-714.5 447,-714.5"/>
<text text-anchor="middle" x="495" y="-721.5" font-family="Helvetica,sans-Serif" font-size="10.00">wld_ep_fromObj</text>
</a>
</g>
</g>
<!-- Node1&#45;&gt;Node8 -->
<g id="edge7" class="edge">
<title>Node1&#45;&gt;Node8</title>
<path fill="none" stroke="midnightblue" d="M627.91,-680.75C613.23,-687.01 595.36,-694.28 579,-700 563.85,-705.3 546.86,-710.36 532.22,-714.46"/>
<polygon fill="midnightblue" stroke="midnightblue" points="629.72,-683.79 637.52,-676.61 626.95,-677.36 629.72,-683.79"/>
</g>
<!-- Node9 -->
<g id="node9" class="node">
<title>Node9</title>
<g id="a_node9"><a xlink:href="wld_8c.html#a0eb5b6b8c0bd058ef3697cc7813fac1e" target="_top" xlink:title=" ">
<polygon fill="white" stroke="black" points="29,-1247.5 29,-1266.5 152,-1266.5 152,-1247.5 29,-1247.5"/>
<text text-anchor="middle" x="90.5" y="-1254.5" font-family="Helvetica,sans-Serif" font-size="10.00">wld_firstRadFromObjs</text>
</a>
</g>
</g>
<!-- Node1&#45;&gt;Node9 -->
<g id="edge8" class="edge">
<title>Node1&#45;&gt;Node9</title>
<path fill="none" stroke="midnightblue" d="M604.71,-666.05C506.04,-667.71 299.88,-687.57 217,-819 167.15,-898.05 242.88,-1167.97 181,-1238 173.43,-1246.57 163.03,-1251.82 152.01,-1254.95"/>
<polygon fill="midnightblue" stroke="midnightblue" points="604.81,-669.55 614.77,-665.94 604.73,-662.55 604.81,-669.55"/>
</g>
<!-- Node10 -->
<g id="node10" class="node">
<title>Node10</title>
<g id="a_node10"><a xlink:href="wld_8c.html#a3372ff1f8188bf00dbd04f4eff8e712d" target="_top" xlink:title=" ">
<polygon fill="white" stroke="black" points="433.5,-562.5 433.5,-581.5 556.5,-581.5 556.5,-562.5 433.5,-562.5"/>
<text text-anchor="middle" x="495" y="-569.5" font-family="Helvetica,sans-Serif" font-size="10.00">wld_getRootObjName</text>
</a>
</g>
</g>
<!-- Node1&#45;&gt;Node10 -->
<g id="edge9" class="edge">
<title>Node1&#45;&gt;Node10</title>
<path fill="none" stroke="midnightblue" d="M645.51,-649.58C630.99,-632.07 606.27,-605.63 579,-591 571.71,-587.09 563.63,-583.98 555.47,-581.5"/>
<polygon fill="midnightblue" stroke="midnightblue" points="642.78,-651.78 651.78,-657.37 648.23,-647.38 642.78,-651.78"/>
</g>
<!-- Node11 -->
<g id="node11" class="node">
<title>Node11</title>
<g id="a_node11"><a xlink:href="wld_8c.html#ab41ddb0838171ee6f9bfd68b72078b74" target="_top" xlink:title=" ">
<polygon fill="white" stroke="black" points="29.5,-1209.5 29.5,-1228.5 151.5,-1228.5 151.5,-1209.5 29.5,-1209.5"/>
<text text-anchor="middle" x="90.5" y="-1216.5" font-family="Helvetica,sans-Serif" font-size="10.00">wld_lastRadFromObjs</text>
</a>
</g>
</g>
<!-- Node1&#45;&gt;Node11 -->
<g id="edge10" class="edge">
<title>Node1&#45;&gt;Node11</title>
<path fill="none" stroke="midnightblue" d="M604.55,-658.91C498.82,-644.55 271.32,-620.68 217,-672 131.51,-752.77 258.09,-1111.18 181,-1200 173.4,-1208.76 162.86,-1214.06 151.67,-1217.18"/>
<polygon fill="midnightblue" stroke="midnightblue" points="604.31,-662.41 614.7,-660.31 605.27,-655.48 604.31,-662.41"/>
</g>
<!-- Node12 -->
<g id="node12" class="node">
<title>Node12</title>
<g id="a_node12"><a xlink:href="wld__persist__off_8c.html#afafb93ba6c17c22f425e0c3942f17dd4" target="_top" xlink:title=" ">
<polygon fill="white" stroke="black" points="416,-524.5 416,-543.5 574,-543.5 574,-524.5 416,-524.5"/>
<text text-anchor="middle" x="495" y="-531.5" font-family="Helvetica,sans-Serif" font-size="10.00">wld_persist_onRadioCreation</text>
</a>
</g>
</g>
<!-- Node1&#45;&gt;Node12 -->
<g id="edge11" class="edge">
<title>Node1&#45;&gt;Node12</title>
<path fill="none" stroke="midnightblue" d="M650.92,-647.81C639.07,-622.06 614.45,-576.83 579,-553 573.23,-549.12 566.79,-546.03 560.11,-543.56"/>
<polygon fill="midnightblue" stroke="midnightblue" points="647.85,-649.5 655.09,-657.23 654.25,-646.67 647.85,-649.5"/>
</g>
<!-- Node15 -->
<g id="node15" class="node">
<title>Node15</title>
<g id="a_node15"><a xlink:href="wld__radio_8c.html#a9ffe52a7430f4e03a50bb0091a116dd5" target="_top" xlink:title=" ">
<polygon fill="white" stroke="black" points="423,-486.5 423,-505.5 567,-505.5 567,-486.5 423,-486.5"/>
<text text-anchor="middle" x="495" y="-493.5" font-family="Helvetica,sans-Serif" font-size="10.00">wld_rad_countMappedAPs</text>
</a>
</g>
</g>
<!-- Node1&#45;&gt;Node15 -->
<g id="edge14" class="edge">
<title>Node1&#45;&gt;Node15</title>
<path fill="none" stroke="midnightblue" d="M654.44,-647.64C645.7,-614.97 623.38,-549.14 579,-515 573.96,-511.12 568.27,-508.01 562.3,-505.52"/>
<polygon fill="midnightblue" stroke="midnightblue" points="651.05,-648.52 656.9,-657.35 657.84,-646.8 651.05,-648.52"/>
</g>
<!-- Node16 -->
<g id="node16" class="node">
<title>Node16</title>
<g id="a_node16"><a xlink:href="wld__radio_8c.html#a7cad1ba5d4b5338e778c1ae67b58874f" target="_top" xlink:title=" ">
<polygon fill="white" stroke="black" points="443,-600.5 443,-619.5 547,-619.5 547,-600.5 443,-600.5"/>
<text text-anchor="middle" x="495" y="-607.5" font-family="Helvetica,sans-Serif" font-size="10.00">wld_rad_isRadObj</text>
</a>
</g>
</g>
<!-- Node1&#45;&gt;Node16 -->
<g id="edge15" class="edge">
<title>Node1&#45;&gt;Node16</title>
<path fill="none" stroke="midnightblue" d="M627.91,-653.25C613.23,-646.99 595.36,-639.72 579,-634 563.85,-628.7 546.86,-623.64 532.22,-619.54"/>
<polygon fill="midnightblue" stroke="midnightblue" points="626.95,-656.64 637.52,-657.39 629.72,-650.21 626.95,-656.64"/>
</g>
<!-- Node61 -->
<g id="node47" class="node">
<title>Node61</title>
<g id="a_node47"><a xlink:href="wld__ssid_8c.html#a3b3e2dc82a1b23c34f153c4169d2068a" target="_top" xlink:title=" ">
<polygon fill="white" stroke="black" points="443,-448.5 443,-467.5 547,-467.5 547,-448.5 443,-448.5"/>
<text text-anchor="middle" x="495" y="-455.5" font-family="Helvetica,sans-Serif" font-size="10.00">wld_ssid_fromObj</text>
</a>
</g>
</g>
<!-- Node1&#45;&gt;Node61 -->
<g id="edge50" class="edge">
<title>Node1&#45;&gt;Node61</title>
<path fill="none" stroke="midnightblue" d="M656.62,-647.29C650.84,-608.43 632.38,-521.84 579,-477 570.06,-469.49 558.73,-464.8 547.34,-461.92"/>
<polygon fill="midnightblue" stroke="midnightblue" points="653.17,-647.88 657.98,-657.31 660.1,-646.93 653.17,-647.88"/>
</g>
<!-- Node62 -->
<g id="node48" class="node">
<title>Node62</title>
<g id="a_node48"><a xlink:href="wld__util_8c.html#a4b4c28f52ac6ac0a79226c177bcb255f" target="_top" xlink:title=" ">
<polygon fill="white" stroke="black" points="411,-410.5 411,-429.5 579,-429.5 579,-410.5 411,-410.5"/>
<text text-anchor="middle" x="495" y="-417.5" font-family="Helvetica,sans-Serif" font-size="10.00">wld_util_getRealReferencePath</text>
</a>
</g>
</g>
<!-- Node1&#45;&gt;Node62 -->
<g id="edge51" class="edge">
<title>Node1&#45;&gt;Node62</title>
<path fill="none" stroke="midnightblue" d="M658.2,-647.43C655.27,-603.2 641.73,-495.05 579,-439 574.7,-435.16 569.79,-432.05 564.54,-429.53"/>
<polygon fill="midnightblue" stroke="midnightblue" points="654.7,-647.65 658.74,-657.45 661.69,-647.27 654.7,-647.65"/>
</g>
<!-- Node5 -->
<g id="node5" class="node">
<title>Node5</title>
<g id="a_node5"><a xlink:href="wld__radio_8c.html#a6d96391c6bd6d7b0a350fba27b8d9a91" target="_top" xlink:title=" ">
<polygon fill="white" stroke="black" points="217,-828.5 217,-847.5 375,-847.5 375,-828.5 217,-828.5"/>
<text text-anchor="middle" x="296" y="-835.5" font-family="Helvetica,sans-Serif" font-size="10.00">_wld_rad_setVendorData_ocf</text>
</a>
</g>
</g>
<!-- Node4&#45;&gt;Node5 -->
<g id="edge4" class="edge">
<title>Node4&#45;&gt;Node5</title>
<path fill="none" stroke="midnightblue" d="M442.61,-838C422.05,-838 397.9,-838 375.25,-838"/>
<polygon fill="midnightblue" stroke="midnightblue" points="442.7,-841.5 452.7,-838 442.7,-834.5 442.7,-841.5"/>
</g>
<!-- Node13 -->
<g id="node13" class="node">
<title>Node13</title>
<g id="a_node13"><a xlink:href="wld_8c.html#a64c338bcccd982aa0f1bd86a8d95473a" target="_top" xlink:title=" ">
<polygon fill="white" stroke="black" points="253.5,-470.5 253.5,-489.5 338.5,-489.5 338.5,-470.5 253.5,-470.5"/>
<text text-anchor="middle" x="296" y="-477.5" font-family="Helvetica,sans-Serif" font-size="10.00">wld_addRadio</text>
</a>
</g>
</g>
<!-- Node12&#45;&gt;Node13 -->
<g id="edge12" class="edge">
<title>Node12&#45;&gt;Node13</title>
<path fill="none" stroke="midnightblue" d="M439.64,-522.16C430.07,-519.9 420.22,-517.47 411,-515 381.8,-507.19 348.83,-496.9 325.88,-489.51"/>
<polygon fill="midnightblue" stroke="midnightblue" points="438.95,-525.59 449.49,-524.44 440.53,-518.77 438.95,-525.59"/>
</g>
<!-- Node14 -->
<g id="node14" class="node">
<title>Node14</title>
<g id="a_node14"><a xlink:href="wld__rad__nl80211_8c.html#ac4eed247eba7d9e6f87d8dff1374b804" target="_top" xlink:title=" ">
<polygon fill="white" stroke="black" points="13,-0.5 13,-19.5 168,-19.5 168,-0.5 13,-0.5"/>
<text text-anchor="middle" x="90.5" y="-7.5" font-family="Helvetica,sans-Serif" font-size="10.00">wld_rad_nl80211_addRadios</text>
</a>
</g>
</g>
<!-- Node13&#45;&gt;Node14 -->
<g id="edge13" class="edge">
<title>Node13&#45;&gt;Node14</title>
<path fill="none" stroke="midnightblue" d="M247.85,-466.42C235.96,-460.75 224.47,-452.87 217,-442 164.81,-366.08 242.04,-98 181,-29 177.32,-24.84 172.97,-21.46 168.2,-18.72"/>
<polygon fill="midnightblue" stroke="midnightblue" points="246.82,-469.78 257.39,-470.5 249.57,-463.35 246.82,-469.78"/>
</g>
<!-- Node17 -->
<g id="node17" class="node">
<title>Node17</title>
<g id="a_node17"><a xlink:href="wld__radio_8c.html#a5bc526661be71f2eb0810b099efe607d" target="_top" xlink:title=" ">
<polygon fill="white" stroke="red" points="246,-600.5 246,-619.5 346,-619.5 346,-600.5 246,-600.5"/>
<text text-anchor="middle" x="296" y="-607.5" font-family="Helvetica,sans-Serif" font-size="10.00">wld_rad_fromObj</text>
</a>
</g>
</g>
<!-- Node16&#45;&gt;Node17 -->
<g id="edge16" class="edge">
<title>Node16&#45;&gt;Node17</title>
<path fill="none" stroke="midnightblue" d="M432.74,-610C404.94,-610 372.49,-610 346.29,-610"/>
<polygon fill="midnightblue" stroke="midnightblue" points="432.75,-613.5 442.75,-610 432.75,-606.5 432.75,-613.5"/>
</g>
<!-- Node56 -->
<g id="node45" class="node">
<title>Node56</title>
<g id="a_node45"><a xlink:href="wld__radio_8c.html#a7be63ab1a4146a7aaaca171fdf9081cd" target="_top" xlink:title=" ">
<polygon fill="white" stroke="black" points="19.5,-76.5 19.5,-95.5 161.5,-95.5 161.5,-76.5 19.5,-76.5"/>
<text text-anchor="middle" x="90.5" y="-83.5" font-family="Helvetica,sans-Serif" font-size="10.00">wld_rad_nextRadFromObj</text>
</a>
</g>
</g>
<!-- Node16&#45;&gt;Node56 -->
<g id="edge48" class="edge">
<title>Node16&#45;&gt;Node56</title>
<path fill="none" stroke="midnightblue" d="M432.73,-598.66C355.48,-583.77 230.99,-557.59 217,-541 154.34,-466.67 245.25,-177.96 181,-105 175.75,-99.04 169.14,-94.68 161.89,-91.53"/>
<polygon fill="midnightblue" stroke="midnightblue" points="432.36,-602.15 442.84,-600.6 433.68,-595.28 432.36,-602.15"/>
</g>
<!-- Node57 -->
<g id="node46" class="node">
<title>Node57</title>
<g id="a_node46"><a xlink:href="wld__radio_8c.html#a7c296231f9f10b5d324940b8847f876b" target="_top" xlink:title=" ">
<polygon fill="white" stroke="red" points="19.5,-38.5 19.5,-57.5 161.5,-57.5 161.5,-38.5 19.5,-38.5"/>
<text text-anchor="middle" x="90.5" y="-45.5" font-family="Helvetica,sans-Serif" font-size="10.00">wld_rad_prevRadFromObj</text>
</a>
</g>
</g>
<!-- Node16&#45;&gt;Node57 -->
<g id="edge49" class="edge">
<title>Node16&#45;&gt;Node57</title>
<path fill="none" stroke="midnightblue" d="M433.26,-601.53C425.4,-598.9 417.74,-595.47 411,-591 388.18,-575.86 397.55,-556.54 375,-541 315.17,-499.78 263.65,-554.71 217,-499 155.16,-425.14 244.69,-139.27 181,-67 175.75,-61.04 169.13,-56.69 161.89,-53.53"/>
<polygon fill="midnightblue" stroke="midnightblue" points="432.34,-604.91 442.92,-604.35 434.3,-598.19 432.34,-604.91"/>
</g>
<!-- Node17&#45;&gt;Node9 -->
<g id="edge44" class="edge">
<title>Node17&#45;&gt;Node9</title>
<path fill="none" stroke="midnightblue" d="M266.27,-624.69C248.77,-635.3 227.78,-651.37 217,-672 158.65,-783.71 263.4,-1142.63 181,-1238 173.52,-1246.65 163.17,-1251.94 152.16,-1255.08"/>
<polygon fill="midnightblue" stroke="midnightblue" points="268.1,-627.67 275.02,-619.65 264.61,-621.61 268.1,-627.67"/>
</g>
<!-- Node17&#45;&gt;Node11 -->
<g id="edge45" class="edge">
<title>Node17&#45;&gt;Node11</title>
<path fill="none" stroke="midnightblue" d="M236.2,-619.35C228.8,-622.84 222.06,-627.59 217,-634 138.94,-732.95 263.4,-1104.63 181,-1200 173.42,-1208.77 162.88,-1214.09 151.7,-1217.2"/>
<polygon fill="midnightblue" stroke="midnightblue" points="237.83,-622.47 245.85,-615.55 235.27,-615.95 237.83,-622.47"/>
</g>
<!-- Node18 -->
<g id="node18" class="node">
<title>Node18</title>
<g id="a_node18"><a xlink:href="wld__rad__stamon_8c.html#a59f9f5f913f647b17aba76b21dcf4c5d" target="_top" xlink:title=" ">
<polygon fill="white" stroke="black" points="11.5,-532.5 11.5,-551.5 169.5,-551.5 169.5,-532.5 11.5,-532.5"/>
<text text-anchor="middle" x="90.5" y="-539.5" font-family="Helvetica,sans-Serif" font-size="10.00">_clearNonAssociatedDevices</text>
</a>
</g>
</g>
<!-- Node17&#45;&gt;Node18 -->
<g id="edge17" class="edge">
<title>Node17&#45;&gt;Node18</title>
<path fill="none" stroke="midnightblue" d="M251.22,-597.34C239.87,-593.54 227.81,-589.03 217,-584 200,-576.1 198.38,-569.03 181,-562 170.52,-557.76 158.97,-554.34 147.75,-551.6"/>
<polygon fill="midnightblue" stroke="midnightblue" points="250.36,-600.74 260.95,-600.49 252.52,-594.08 250.36,-600.74"/>
</g>
<!-- Node19 -->
<g id="node19" class="node">
<title>Node19</title>
<g id="a_node19"><a xlink:href="wld__rad__stamon_8c.html#add44bee3c5663943c43231c8dd0a566b" target="_top" xlink:title=" ">
<polygon fill="white" stroke="black" points="28.5,-494.5 28.5,-513.5 152.5,-513.5 152.5,-494.5 28.5,-494.5"/>
<text text-anchor="middle" x="90.5" y="-501.5" font-family="Helvetica,sans-Serif" font-size="10.00">_createMonitorDevice</text>
</a>
</g>
</g>
<!-- Node17&#45;&gt;Node19 -->
<g id="edge18" class="edge">
<title>Node17&#45;&gt;Node19</title>
<path fill="none" stroke="midnightblue" d="M239.13,-596.9C231.21,-593.52 223.54,-589.29 217,-584 192.52,-564.21 206.56,-541.38 181,-523 172.62,-516.97 162.72,-512.78 152.62,-509.88"/>
<polygon fill="midnightblue" stroke="midnightblue" points="237.91,-600.18 248.5,-600.49 240.41,-593.64 237.91,-600.18"/>
</g>
<!-- Node20 -->
<g id="node20" class="node">
<title>Node20</title>
<g id="a_node20"><a xlink:href="wld__rad__stamon_8c.html#a438c3523b7fb29a4fde39c0ad2388d25" target="_top" xlink:title=" ">
<polygon fill="white" stroke="black" points="11,-456.5 11,-475.5 170,-475.5 170,-456.5 11,-456.5"/>
<text text-anchor="middle" x="90.5" y="-463.5" font-family="Helvetica,sans-Serif" font-size="10.00">_createNonAssociatedDevice</text>
</a>
</g>
</g>
<!-- Node17&#45;&gt;Node20 -->
<g id="edge19" class="edge">
<title>Node17&#45;&gt;Node20</title>
<path fill="none" stroke="midnightblue" d="M236.6,-597.18C229.4,-593.77 222.61,-589.46 217,-584 183.45,-551.34 216.33,-515.72 181,-485 176.68,-481.25 171.81,-478.18 166.63,-475.67"/>
<polygon fill="midnightblue" stroke="midnightblue" points="235.3,-600.44 245.88,-601.03 237.99,-593.97 235.3,-600.44"/>
</g>
<!-- Node21 -->
<g id="node21" class="node">
<title>Node21</title>
<g id="a_node21"><a xlink:href="wld__rad__stamon_8c.html#aa5bb1f814707c78321f36dbb16185efa" target="_top" xlink:title=" ">
<polygon fill="white" stroke="black" points="28.5,-418.5 28.5,-437.5 152.5,-437.5 152.5,-418.5 28.5,-418.5"/>
<text text-anchor="middle" x="90.5" y="-425.5" font-family="Helvetica,sans-Serif" font-size="10.00">_deleteMonitorDevice</text>
</a>
</g>
</g>
<!-- Node17&#45;&gt;Node21 -->
<g id="edge20" class="edge">
<title>Node17&#45;&gt;Node21</title>
<path fill="none" stroke="midnightblue" d="M236.4,-597.78C229.16,-594.28 222.42,-589.79 217,-584 173.95,-538.06 226.57,-490.44 181,-447 173.18,-439.55 163.2,-434.71 152.76,-431.63"/>
<polygon fill="midnightblue" stroke="midnightblue" points="235.18,-601.07 245.76,-601.7 237.88,-594.61 235.18,-601.07"/>
</g>
<!-- Node22 -->
<g id="node22" class="node">
<title>Node22</title>
<g id="a_node22"><a xlink:href="wld__rad__stamon_8c.html#a3bdc3ac614b64a41e3adc765b5e8213e" target="_top" xlink:title=" ">
<polygon fill="white" stroke="black" points="11,-380.5 11,-399.5 170,-399.5 170,-380.5 11,-380.5"/>
<text text-anchor="middle" x="90.5" y="-387.5" font-family="Helvetica,sans-Serif" font-size="10.00">_deleteNonAssociatedDevice</text>
</a>
</g>
</g>
<!-- Node17&#45;&gt;Node22 -->
<g id="edge21" class="edge">
<title>Node17&#45;&gt;Node22</title>
<path fill="none" stroke="midnightblue" d="M236.38,-598.18C229.08,-594.63 222.33,-590 217,-584 164.29,-524.62 236.97,-465.33 181,-409 177.31,-405.28 173.08,-402.21 168.51,-399.67"/>
<polygon fill="midnightblue" stroke="midnightblue" points="235.26,-601.51 245.84,-602.14 237.97,-595.05 235.26,-601.51"/>
</g>
<!-- Node23 -->
<g id="node23" class="node">
<title>Node23</title>
<g id="a_node23"><a xlink:href="wld__radio_8c.html#a3e689f676344ee2a109d502da8713aa1" target="_top" xlink:title=" ">
<polygon fill="white" stroke="black" points="6.5,-342.5 6.5,-361.5 174.5,-361.5 174.5,-342.5 6.5,-342.5"/>
<text text-anchor="middle" x="90.5" y="-349.5" font-family="Helvetica,sans-Serif" font-size="10.00">_getCurrentTransmitPowerdBm</text>
</a>
</g>
</g>
<!-- Node17&#45;&gt;Node23 -->
<g id="edge22" class="edge">
<title>Node17&#45;&gt;Node23</title>
<path fill="none" stroke="midnightblue" d="M236.18,-598.35C228.92,-594.77 222.22,-590.1 217,-584 154.55,-511.08 247.46,-440.29 181,-371 177.37,-367.22 173.19,-364.09 168.66,-361.52"/>
<polygon fill="midnightblue" stroke="midnightblue" points="235.05,-601.67 245.62,-602.33 237.77,-595.22 235.05,-601.67"/>
</g>
<!-- Node24 -->
<g id="node24" class="node">
<title>Node24</title>
<g id="a_node24"><a xlink:href="wld__radio_8c.html#a1d1b6f0aa974a544b0df2bb8ce0316ef" target="_top" xlink:title=" ">
<polygon fill="white" stroke="black" points="14,-304.5 14,-323.5 167,-323.5 167,-304.5 14,-304.5"/>
<text text-anchor="middle" x="90.5" y="-311.5" font-family="Helvetica,sans-Serif" font-size="10.00">_getMaxTransmitPowerdBm</text>
</a>
</g>
</g>
<!-- Node17&#45;&gt;Node24 -->
<g id="edge23" class="edge">
<title>Node17&#45;&gt;Node24</title>
<path fill="none" stroke="midnightblue" d="M236.31,-598.61C228.96,-594.99 222.21,-590.24 217,-584 144.77,-497.5 257.99,-415.3 181,-333 176.99,-328.71 172.26,-325.26 167.12,-322.5"/>
<polygon fill="midnightblue" stroke="midnightblue" points="235.3,-601.97 245.87,-602.6 238,-595.52 235.3,-601.97"/>
</g>
<!-- Node25 -->
<g id="node25" class="node">
<title>Node25</title>
<g id="a_node25"><a xlink:href="wld__radio_8c.html#a0e90bffc04e6dc5e7b2b16f57d4bd601" target="_top" xlink:title=" ">
<polygon fill="white" stroke="black" points="38.5,-266.5 38.5,-285.5 142.5,-285.5 142.5,-266.5 38.5,-266.5"/>
<text text-anchor="middle" x="90.5" y="-273.5" font-family="Helvetica,sans-Serif" font-size="10.00">_getRadioAirStats</text>
</a>
</g>
</g>
<!-- Node17&#45;&gt;Node25 -->
<g id="edge24" class="edge">
<title>Node17&#45;&gt;Node25</title>
<path fill="none" stroke="midnightblue" d="M236.21,-598.69C228.87,-595.07 222.15,-590.29 217,-584 134.96,-483.88 268.54,-390.34 181,-295 171.22,-284.35 157.09,-278.87 142.93,-276.23"/>
<polygon fill="midnightblue" stroke="midnightblue" points="235.18,-602.06 245.76,-602.7 237.89,-595.6 235.18,-602.06"/>
</g>
<!-- Node26 -->
<g id="node26" class="node">
<title>Node26</title>
<g id="a_node26"><a xlink:href="wld__rad__scan_8c.html#a5d169905345db2b70a4f29e6eea90db5" target="_top" xlink:title=" ">
<polygon fill="white" stroke="black" points="23.5,-228.5 23.5,-247.5 157.5,-247.5 157.5,-228.5 23.5,-228.5"/>
<text text-anchor="middle" x="90.5" y="-235.5" font-family="Helvetica,sans-Serif" font-size="10.00">_getScanCombinedData</text>
</a>
</g>
</g>
<!-- Node17&#45;&gt;Node26 -->
<g id="edge25" class="edge">
<title>Node17&#45;&gt;Node26</title>
<path fill="none" stroke="midnightblue" d="M236.13,-598.76C228.8,-595.12 222.11,-590.32 217,-584 125.14,-470.25 279.12,-365.4 181,-257 174.71,-250.05 166.57,-245.3 157.76,-242.09"/>
<polygon fill="midnightblue" stroke="midnightblue" points="235.09,-602.12 245.67,-602.77 237.81,-595.67 235.09,-602.12"/>
</g>
<!-- Node27 -->
<g id="node27" class="node">
<title>Node27</title>
<g id="a_node27"><a xlink:href="wld__radio_8c.html#a9c46184e05995965fffcf7358139b3ad" target="_top" xlink:title=" ">
<polygon fill="white" stroke="black" points="44.5,-190.5 44.5,-209.5 136.5,-209.5 136.5,-190.5 44.5,-190.5"/>
<text text-anchor="middle" x="90.5" y="-197.5" font-family="Helvetica,sans-Serif" font-size="10.00">_Radio_commit</text>
</a>
</g>
</g>
<!-- Node17&#45;&gt;Node27 -->
<g id="edge26" class="edge">
<title>Node17&#45;&gt;Node27</title>
<path fill="none" stroke="midnightblue" d="M236.06,-598.81C228.75,-595.17 222.07,-590.35 217,-584 166.15,-520.3 235.35,-279.74 181,-219 169.88,-206.57 152.82,-201.14 136.57,-199.06"/>
<polygon fill="midnightblue" stroke="midnightblue" points="235.02,-602.17 245.6,-602.83 237.74,-595.72 235.02,-602.17"/>
</g>
<!-- Node28 -->
<g id="node28" class="node">
<title>Node28</title>
<g id="a_node28"><a xlink:href="wld__sensing_8c.html#aacd06f73593f5a06a1d67c3647d9ba52" target="_top" xlink:title=" ">
<polygon fill="white" stroke="black" points="34.5,-152.5 34.5,-171.5 146.5,-171.5 146.5,-152.5 34.5,-152.5"/>
<text text-anchor="middle" x="90.5" y="-159.5" font-family="Helvetica,sans-Serif" font-size="10.00">_Sensing_addClient</text>
</a>
</g>
</g>
<!-- Node17&#45;&gt;Node28 -->
<g id="edge27" class="edge">
<title>Node17&#45;&gt;Node28</title>
<path fill="none" stroke="midnightblue" d="M236.28,-598.99C228.87,-595.32 222.1,-590.46 217,-584 161.23,-513.47 240.65,-248.28 181,-181 172.25,-171.13 159.77,-165.67 146.89,-162.79"/>
<polygon fill="midnightblue" stroke="midnightblue" points="235.37,-602.4 245.94,-603.02 238.06,-595.94 235.37,-602.4"/>
</g>
<!-- Node29 -->
<g id="node29" class="node">
<title>Node29</title>
<g id="a_node29"><a xlink:href="wld__sensing_8c.html#af3b32ce9003ca6f9889c0eada4be7ce4" target="_top" xlink:title=" ">
<polygon fill="white" stroke="black" points="38.5,-114.5 38.5,-133.5 142.5,-133.5 142.5,-114.5 38.5,-114.5"/>
<text text-anchor="middle" x="90.5" y="-121.5" font-family="Helvetica,sans-Serif" font-size="10.00">_Sensing_csiStats</text>
</a>
</g>
</g>
<!-- Node17&#45;&gt;Node29 -->
<g id="edge28" class="edge">
<title>Node17&#45;&gt;Node29</title>
<path fill="none" stroke="midnightblue" d="M236.24,-599.02C228.83,-595.35 222.08,-590.48 217,-584 156.31,-506.64 245.95,-216.82 181,-143 171.35,-132.03 157.07,-126.49 142.75,-123.89"/>
<polygon fill="midnightblue" stroke="midnightblue" points="235.32,-602.43 245.89,-603.06 238.02,-595.97 235.32,-602.43"/>
</g>
<!-- Node30 -->
<g id="node30" class="node">
<title>Node30</title>
<g id="a_node30"><a xlink:href="wld__sensing_8c.html#a598b1f2929de4e6cff4d0e5dcd20595f" target="_top" xlink:title=" ">
<polygon fill="white" stroke="black" points="43,-1171.5 43,-1190.5 138,-1190.5 138,-1171.5 43,-1171.5"/>
<text text-anchor="middle" x="90.5" y="-1178.5" font-family="Helvetica,sans-Serif" font-size="10.00">_Sensing_debug</text>
</a>
</g>
</g>
<!-- Node17&#45;&gt;Node30 -->
<g id="edge29" class="edge">
<title>Node17&#45;&gt;Node30</title>
<path fill="none" stroke="midnightblue" d="M236.22,-619.37C228.82,-622.86 222.07,-627.6 217,-634 143.95,-726.17 258.09,-1073.18 181,-1162 170.38,-1174.24 154.01,-1179.74 138.17,-1181.93"/>
<polygon fill="midnightblue" stroke="midnightblue" points="237.86,-622.49 245.88,-615.57 235.3,-615.97 237.86,-622.49"/>
</g>
<!-- Node31 -->
<g id="node31" class="node">
<title>Node31</title>
<g id="a_node31"><a xlink:href="wld__sensing_8c.html#a221d9e15e458cacf3f1d3ce77fc1db64" target="_top" xlink:title=" ">
<polygon fill="white" stroke="black" points="36,-1133.5 36,-1152.5 145,-1152.5 145,-1133.5 36,-1133.5"/>
<text text-anchor="middle" x="90.5" y="-1140.5" font-family="Helvetica,sans-Serif" font-size="10.00">_Sensing_delClient</text>
</a>
</g>
</g>
<!-- Node17&#45;&gt;Node31 -->
<g id="edge30" class="edge">
<title>Node17&#45;&gt;Node31</title>
<path fill="none" stroke="midnightblue" d="M236.25,-619.39C228.84,-622.88 222.09,-627.61 217,-634 148.96,-719.39 252.79,-1041.73 181,-1124 171.91,-1134.41 158.67,-1139.94 145.14,-1142.71"/>
<polygon fill="midnightblue" stroke="midnightblue" points="237.89,-622.51 245.92,-615.6 235.33,-615.99 237.89,-622.51"/>
</g>
<!-- Node32 -->
<g id="node32" class="node">
<title>Node32</title>
<g id="a_node32"><a xlink:href="wld__sensing_8c.html#a8d74a551d838d8bee8d62fc82ce13cdd" target="_top" xlink:title=" ">
<polygon fill="white" stroke="black" points="33,-1095.5 33,-1114.5 148,-1114.5 148,-1095.5 33,-1095.5"/>
<text text-anchor="middle" x="90.5" y="-1102.5" font-family="Helvetica,sans-Serif" font-size="10.00">_Sensing_resetStats</text>
</a>
</g>
</g>
<!-- Node17&#45;&gt;Node32 -->
<g id="edge31" class="edge">
<title>Node17&#45;&gt;Node32</title>
<path fill="none" stroke="midnightblue" d="M236.29,-619.42C228.88,-622.91 222.11,-627.63 217,-634 153.96,-712.61 247.48,-1010.28 181,-1086 172.62,-1095.55 160.73,-1100.99 148.35,-1103.95"/>
<polygon fill="midnightblue" stroke="midnightblue" points="237.92,-622.54 245.95,-615.63 235.37,-616.02 237.92,-622.54"/>
</g>
<!-- Node33 -->
<g id="node33" class="node">
<title>Node33</title>
<g id="a_node33"><a xlink:href="wld__bgdfs_8c.html#a664359b3ce4a39d042ecb940ee9ddadc" target="_top" xlink:title=" ">
<polygon fill="white" stroke="black" points="41,-1057.5 41,-1076.5 140,-1076.5 140,-1057.5 41,-1057.5"/>
<text text-anchor="middle" x="90.5" y="-1064.5" font-family="Helvetica,sans-Serif" font-size="10.00">_startBgDfsClear</text>
</a>
</g>
</g>
<!-- Node17&#45;&gt;Node33 -->
<g id="edge32" class="edge">
<title>Node17&#45;&gt;Node33</title>
<path fill="none" stroke="midnightblue" d="M236.06,-619.58C228.75,-623.05 222.07,-627.72 217,-634 158.97,-705.83 242.18,-978.83 181,-1048 170.79,-1059.54 155.47,-1065.06 140.38,-1067.47"/>
<polygon fill="midnightblue" stroke="midnightblue" points="237.59,-622.74 245.6,-615.8 235.01,-616.23 237.59,-622.74"/>
</g>
<!-- Node34 -->
<g id="node34" class="node">
<title>Node34</title>
<g id="a_node34"><a xlink:href="wld__radio_8c.html#a35dea1e12edb606e8de581a658744cd2" target="_top" xlink:title=" ">
<polygon fill="white" stroke="black" points="37.5,-1019.5 37.5,-1038.5 143.5,-1038.5 143.5,-1019.5 37.5,-1019.5"/>
<text text-anchor="middle" x="90.5" y="-1026.5" font-family="Helvetica,sans-Serif" font-size="10.00">_startPlatformACS</text>
</a>
</g>
</g>
<!-- Node17&#45;&gt;Node34 -->
<g id="edge33" class="edge">
<title>Node17&#45;&gt;Node34</title>
<path fill="none" stroke="midnightblue" d="M236.11,-619.62C228.79,-623.09 222.1,-627.75 217,-634 163.97,-699.06 236.88,-947.37 181,-1010 171.48,-1020.67 157.59,-1026.18 143.59,-1028.85"/>
<polygon fill="midnightblue" stroke="midnightblue" points="237.64,-622.78 245.65,-615.84 235.06,-616.27 237.64,-622.78"/>
</g>
<!-- Node35 -->
<g id="node35" class="node">
<title>Node35</title>
<g id="a_node35"><a xlink:href="wld__bgdfs_8c.html#a4609f3cf8d31ab032b2a3e1bfcc75a0a" target="_top" xlink:title=" ">
<polygon fill="white" stroke="black" points="41.5,-981.5 41.5,-1000.5 139.5,-1000.5 139.5,-981.5 41.5,-981.5"/>
<text text-anchor="middle" x="90.5" y="-988.5" font-family="Helvetica,sans-Serif" font-size="10.00">_stopBgDfsClear</text>
</a>
</g>
</g>
<!-- Node17&#45;&gt;Node35 -->
<g id="edge34" class="edge">
<title>Node17&#45;&gt;Node35</title>
<path fill="none" stroke="midnightblue" d="M236.17,-619.67C228.84,-623.13 222.13,-627.77 217,-634 120.93,-750.59 282.18,-859.81 181,-972 170.57,-983.56 155.01,-989.05 139.78,-991.43"/>
<polygon fill="midnightblue" stroke="midnightblue" points="237.7,-622.83 245.72,-615.9 235.13,-616.32 237.7,-622.83"/>
</g>
<!-- Node36 -->
<g id="node36" class="node">
<title>Node36</title>
<g id="a_node36"><a xlink:href="wld__chanmgt_8c.html#aa3d3dfd8ca181e056552758d57fc4fa5" target="_top" xlink:title=" ">
<polygon fill="white" stroke="black" points="16,-932 16,-962 165,-962 165,-932 16,-932"/>
<text text-anchor="start" x="24" y="-950" font-family="Helvetica,sans-Serif" font-size="10.00">_wld_chanmgt_validateAcs</text>
<text text-anchor="middle" x="90.5" y="-939" font-family="Helvetica,sans-Serif" font-size="10.00">BootChannel_pvf</text>
</a>
</g>
</g>
<!-- Node17&#45;&gt;Node36 -->
<g id="edge35" class="edge">
<title>Node17&#45;&gt;Node36</title>
<path fill="none" stroke="midnightblue" d="M236.27,-619.76C228.93,-623.2 222.19,-627.82 217,-634 134.06,-732.8 265.22,-824.29 181,-922 176.58,-927.13 171.19,-931.25 165.29,-934.56"/>
<polygon fill="midnightblue" stroke="midnightblue" points="237.81,-622.91 245.83,-615.99 235.24,-616.4 237.81,-622.91"/>
</g>
<!-- Node37 -->
<g id="node37" class="node">
<title>Node37</title>
<g id="a_node37"><a xlink:href="wld__radio_8c.html#a47dd708bbd10861f4bcf29e519a8b172" target="_top" xlink:title=" ">
<polygon fill="white" stroke="black" points="9,-893.5 9,-912.5 172,-912.5 172,-893.5 9,-893.5"/>
<text text-anchor="middle" x="90.5" y="-900.5" font-family="Helvetica,sans-Serif" font-size="10.00">_wld_rad_getChannelLoad_prf</text>
</a>
</g>
</g>
<!-- Node17&#45;&gt;Node37 -->
<g id="edge36" class="edge">
<title>Node17&#45;&gt;Node37</title>
<path fill="none" stroke="midnightblue" d="M236.38,-619.84C229.02,-623.28 222.25,-627.87 217,-634 144.03,-719.3 257.71,-802.04 181,-884 177.53,-887.71 173.52,-890.79 169.18,-893.34"/>
<polygon fill="midnightblue" stroke="midnightblue" points="237.92,-623 245.94,-616.09 235.36,-616.49 237.92,-623"/>
</g>
<!-- Node38 -->
<g id="node38" class="node">
<title>Node38</title>
<g id="a_node38"><a xlink:href="wld__radio_8c.html#ac921337ec24fa352ec51b818a38f583a" target="_top" xlink:title=" ">
<polygon fill="white" stroke="black" points="12,-855.5 12,-874.5 169,-874.5 169,-855.5 12,-855.5"/>
<text text-anchor="middle" x="90.5" y="-862.5" font-family="Helvetica,sans-Serif" font-size="10.00">_wld_rad_getLastChange_prf</text>
</a>
</g>
</g>
<!-- Node17&#45;&gt;Node38 -->
<g id="edge37" class="edge">
<title>Node17&#45;&gt;Node38</title>
<path fill="none" stroke="midnightblue" d="M236.24,-620.09C228.97,-623.49 222.26,-628.01 217,-634 153.96,-705.83 247.18,-777.05 181,-846 177.37,-849.78 173.19,-852.9 168.66,-855.47"/>
<polygon fill="midnightblue" stroke="midnightblue" points="237.68,-623.29 245.69,-616.35 235.11,-616.78 237.68,-623.29"/>
</g>
<!-- Node39 -->
<g id="node39" class="node">
<title>Node39</title>
<g id="a_node39"><a xlink:href="wld__radio_8c.html#a0f18491772a1e28bc1e39740a4c27901" target="_top" xlink:title=" ">
<polygon fill="white" stroke="black" points="0,-806 0,-836 181,-836 181,-806 0,-806"/>
<text text-anchor="start" x="8" y="-824" font-family="Helvetica,sans-Serif" font-size="10.00">_wld_rad_getSupportedFrequency</text>
<text text-anchor="middle" x="90.5" y="-813" font-family="Helvetica,sans-Serif" font-size="10.00">Bands_prf</text>
</a>
</g>
</g>
<!-- Node17&#45;&gt;Node39 -->
<g id="edge38" class="edge">
<title>Node17&#45;&gt;Node39</title>
<path fill="none" stroke="midnightblue" d="M236.52,-620.34C229.2,-623.7 222.41,-628.14 217,-634 166.97,-688.19 231.73,-742.46 181,-796 177.34,-799.86 173.13,-803.15 168.59,-805.94"/>
<polygon fill="midnightblue" stroke="midnightblue" points="237.96,-623.53 245.99,-616.62 235.41,-617.01 237.96,-623.53"/>
</g>
<!-- Node40 -->
<g id="node40" class="node">
<title>Node40</title>
<g id="a_node40"><a xlink:href="wld__rad__stamon_8c.html#aa1f9ffc6aeae7b209b7b0510b46eb9d3" target="_top" xlink:title=" ">
<polygon fill="white" stroke="black" points="3,-767.5 3,-786.5 178,-786.5 178,-767.5 3,-767.5"/>
<text text-anchor="middle" x="90.5" y="-774.5" font-family="Helvetica,sans-Serif" font-size="10.00">_wld_rad_staMon_addNaSta_oaf</text>
</a>
</g>
</g>
<!-- Node17&#45;&gt;Node40 -->
<g id="edge39" class="edge">
<title>Node17&#45;&gt;Node40</title>
<path fill="none" stroke="midnightblue" d="M236.58,-620.78C229.32,-624.09 222.52,-628.39 217,-634 176.75,-674.9 223.04,-718.94 181,-758 176.93,-761.78 172.3,-764.89 167.33,-767.43"/>
<polygon fill="midnightblue" stroke="midnightblue" points="237.92,-624.02 245.96,-617.11 235.37,-617.5 237.92,-624.02"/>
</g>
<!-- Node41 -->
<g id="node41" class="node">
<title>Node41</title>
<g id="a_node41"><a xlink:href="wld__rad__stamon_8c.html#a5a05202078f6cc95ac91865274d59e8a" target="_top" xlink:title=" ">
<polygon fill="white" stroke="black" points="14,-718 14,-748 167,-748 167,-718 14,-718"/>
<text text-anchor="start" x="22" y="-736" font-family="Helvetica,sans-Serif" font-size="10.00">_wld_rad_staMon_addNasta</text>
<text text-anchor="middle" x="90.5" y="-725" font-family="Helvetica,sans-Serif" font-size="10.00">MonDev_oaf</text>
</a>
</g>
</g>
<!-- Node17&#45;&gt;Node41 -->
<g id="edge40" class="edge">
<title>Node17&#45;&gt;Node41</title>
<path fill="none" stroke="midnightblue" d="M236.08,-622.23C229.18,-625.31 222.61,-629.17 217,-634 188.98,-658.13 209.45,-685.39 181,-709 176.79,-712.49 172.12,-715.48 167.19,-718.04"/>
<polygon fill="midnightblue" stroke="midnightblue" points="237.61,-625.39 245.64,-618.49 235.06,-618.87 237.61,-625.39"/>
</g>
<!-- Node42 -->
<g id="node42" class="node">
<title>Node42</title>
<g id="a_node42"><a xlink:href="wld__radio_8c.html#a479deedeb96c18edd1b6b7117efecd5c" target="_top" xlink:title=" ">
<polygon fill="white" stroke="black" points="13,-669 13,-699 168,-699 168,-669 13,-669"/>
<text text-anchor="start" x="21" y="-687" font-family="Helvetica,sans-Serif" font-size="10.00">_wld_rad_validateBasicData</text>
<text text-anchor="middle" x="90.5" y="-676" font-family="Helvetica,sans-Serif" font-size="10.00">Rates_pvf</text>
</a>
</g>
</g>
<!-- Node17&#45;&gt;Node42 -->
<g id="edge41" class="edge">
<title>Node17&#45;&gt;Node42</title>
<path fill="none" stroke="midnightblue" d="M245.57,-622.53C235.87,-625.73 225.94,-629.55 217,-634 199.33,-642.8 198.83,-651.53 181,-660 173.88,-663.38 166.21,-666.35 158.45,-668.94"/>
<polygon fill="midnightblue" stroke="midnightblue" points="246.65,-625.86 255.15,-619.54 244.56,-619.18 246.65,-625.86"/>
</g>
<!-- Node43 -->
<g id="node43" class="node">
<title>Node43</title>
<g id="a_node43"><a xlink:href="wld__radio_8c.html#a30a0382369266e351f089a7b8006d4a0" target="_top" xlink:title=" ">
<polygon fill="white" stroke="black" points="20,-620 20,-650 161,-650 161,-620 20,-620"/>
<text text-anchor="start" x="28" y="-638" font-family="Helvetica,sans-Serif" font-size="10.00">_wld_rad_validateExplicit</text>
<text text-anchor="middle" x="90.5" y="-627" font-family="Helvetica,sans-Serif" font-size="10.00">BeamForming_pvf</text>
</a>
</g>
</g>
<!-- Node17&#45;&gt;Node43 -->
<g id="edge42" class="edge">
<title>Node17&#45;&gt;Node43</title>
<path fill="none" stroke="midnightblue" d="M235.89,-617.26C212.54,-620.13 185.53,-623.45 161.24,-626.43"/>
<polygon fill="midnightblue" stroke="midnightblue" points="236.5,-620.71 246,-616.02 235.65,-613.77 236.5,-620.71"/>
</g>
<!-- Node44 -->
<g id="node44" class="node">
<title>Node44</title>
<g id="a_node44"><a xlink:href="wld__radio_8c.html#a88f397850a65499df8a7dc3c93360580" target="_top" xlink:title=" ">
<polygon fill="white" stroke="black" points="9.5,-571 9.5,-601 171.5,-601 171.5,-571 9.5,-571"/>
<text text-anchor="start" x="17.5" y="-589" font-family="Helvetica,sans-Serif" font-size="10.00">_wld_rad_validateIEEE80211h</text>
<text text-anchor="middle" x="90.5" y="-578" font-family="Helvetica,sans-Serif" font-size="10.00">Enabled_pvf</text>
</a>
</g>
</g>
<!-- Node17&#45;&gt;Node44 -->
<g id="edge43" class="edge">
<title>Node17&#45;&gt;Node44</title>
<path fill="none" stroke="midnightblue" d="M235.81,-603.02C215.83,-600.66 193.18,-597.99 171.84,-595.48"/>
<polygon fill="midnightblue" stroke="midnightblue" points="235.66,-606.53 246,-604.22 236.48,-599.57 235.66,-606.53"/>
</g>
<!-- Node17&#45;&gt;Node56 -->
<g id="edge46" class="edge">
<title>Node17&#45;&gt;Node56</title>
<path fill="none" stroke="midnightblue" d="M236.2,-599.05C228.8,-595.38 222.06,-590.49 217,-584 151.38,-499.81 251.25,-185.37 181,-105 175.67,-98.9 168.91,-94.48 161.5,-91.3"/>
<polygon fill="midnightblue" stroke="midnightblue" points="235.28,-602.46 245.85,-603.09 237.98,-596 235.28,-602.46"/>
</g>
<!-- Node17&#45;&gt;Node57 -->
<g id="edge47" class="edge">
<title>Node17&#45;&gt;Node57</title>
<path fill="none" stroke="midnightblue" d="M268.93,-594.65C250.97,-582.54 228.37,-563.89 217,-541 169.99,-446.4 250.55,-146.51 181,-67 175.77,-61.02 169.17,-56.65 161.93,-53.5"/>
<polygon fill="midnightblue" stroke="midnightblue" points="267.51,-597.9 277.81,-600.38 271.3,-592.02 267.51,-597.9"/>
</g>
<!-- Node63 -->
<g id="node49" class="node">
<title>Node63</title>
<g id="a_node49"><a xlink:href="wld__rad__ifMgt_8c.html#a38b500509419100012dbfbc2d78eae94" target="_top" xlink:title="_addEndPointIntf">
<polygon fill="white" stroke="black" points="246.5,-375.5 246.5,-394.5 345.5,-394.5 345.5,-375.5 246.5,-375.5"/>
<text text-anchor="middle" x="296" y="-382.5" font-family="Helvetica,sans-Serif" font-size="10.00">_addEndPointIntf</text>
</a>
</g>
</g>
<!-- Node62&#45;&gt;Node63 -->
<g id="edge52" class="edge">
<title>Node62&#45;&gt;Node63</title>
<path fill="none" stroke="midnightblue" d="M430.48,-408.71C402.91,-403.82 371.13,-398.17 345.51,-393.62"/>
<polygon fill="midnightblue" stroke="midnightblue" points="429.97,-412.18 440.43,-410.48 431.2,-405.29 429.97,-412.18"/>
</g>
<!-- Node64 -->
<g id="node50" class="node">
<title>Node64</title>
<g id="a_node50"><a xlink:href="wld__rad__ifMgt_8c.html#a8b3b14e34e80a874bd962e88a930449f" target="_top" xlink:title=" ">
<polygon fill="white" stroke="black" points="258.5,-413.5 258.5,-432.5 333.5,-432.5 333.5,-413.5 258.5,-413.5"/>
<text text-anchor="middle" x="296" y="-420.5" font-family="Helvetica,sans-Serif" font-size="10.00">_addVAPIntf</text>
</a>
</g>
</g>
<!-- Node62&#45;&gt;Node64 -->
<g id="edge53" class="edge">
<title>Node62&#45;&gt;Node64</title>
<path fill="none" stroke="midnightblue" d="M400.6,-421.42C376.85,-421.78 352.71,-422.15 333.71,-422.44"/>
<polygon fill="midnightblue" stroke="midnightblue" points="400.79,-424.92 410.74,-421.27 400.69,-417.92 400.79,-424.92"/>
</g>
</g>
</svg>
