<?xml version="1.0" encoding="UTF-8" standalone="no"?>
<!DOCTYPE svg PUBLIC "-//W3C//DTD SVG 1.1//EN"
 "http://www.w3.org/Graphics/SVG/1.1/DTD/svg11.dtd">
<!-- Generated by graphviz version 2.43.0 (0)
 -->
<!-- Title: wld_hostapd_cfgFile_createExt Pages: 1 -->
<svg width="457pt" height="104pt"
 viewBox="0.00 0.00 457.00 104.00" xmlns="http://www.w3.org/2000/svg" xmlns:xlink="http://www.w3.org/1999/xlink">
<g id="graph0" class="graph" transform="scale(1 1) rotate(0) translate(4 100)">
<title>wld_hostapd_cfgFile_createExt</title>
<polygon fill="white" stroke="transparent" points="-4,4 -4,-100 453,-100 453,4 -4,4"/>
<!-- Node1 -->
<g id="node1" class="node">
<title>Node1</title>
<g id="a_node1"><a xlink:title=" ">
<polygon fill="#bfbfbf" stroke="black" points="0,-33 0,-63 116,-63 116,-33 0,-33"/>
<text text-anchor="start" x="8" y="-51" font-family="Helvetica,sans-Serif" font-size="10.00">wld_hostapd_cfgFile</text>
<text text-anchor="middle" x="58" y="-40" font-family="Helvetica,sans-Serif" font-size="10.00">_createExt</text>
</a>
</g>
</g>
<!-- Node2 -->
<g id="node2" class="node">
<title>Node2</title>
<g id="a_node2"><a xlink:href="wld__hostapd__cfgFile_8c.html#ac14947168cc3ee47fd9e0ef512ee8f2a" target="_top" xlink:title="create a configuration file for the hostapd">
<polygon fill="white" stroke="black" points="152,-33 152,-63 268,-63 268,-33 152,-33"/>
<text text-anchor="start" x="160" y="-51" font-family="Helvetica,sans-Serif" font-size="10.00">wld_hostapd_cfgFile</text>
<text text-anchor="middle" x="210" y="-40" font-family="Helvetica,sans-Serif" font-size="10.00">_create</text>
</a>
</g>
</g>
<!-- Node1&#45;&gt;Node2 -->
<g id="edge1" class="edge">
<title>Node1&#45;&gt;Node2</title>
<path fill="none" stroke="midnightblue" d="M116.14,-48C124.38,-48 132.92,-48 141.34,-48"/>
<polygon fill="midnightblue" stroke="midnightblue" points="141.53,-51.5 151.53,-48 141.53,-44.5 141.53,-51.5"/>
</g>
<!-- Node3 -->
<g id="node3" class="node">
<title>Node3</title>
<g id="a_node3"><a xlink:href="wld__hostapd__cfgManager_8c.html#a230de7631aaa80ccf994572e40d95b70" target="_top" xlink:title="create wld_hostapd_config_t structure from Radio and Vaps configuration">
<polygon fill="white" stroke="black" points="304,-76.5 304,-95.5 449,-95.5 449,-76.5 304,-76.5"/>
<text text-anchor="middle" x="376.5" y="-83.5" font-family="Helvetica,sans-Serif" font-size="10.00">wld_hostapd_createConfig</text>
</a>
</g>
</g>
<!-- Node2&#45;&gt;Node3 -->
<g id="edge2" class="edge">
<title>Node2&#45;&gt;Node3</title>
<path fill="none" stroke="midnightblue" d="M268.07,-61.18C286.3,-65.39 306.36,-70.03 324.15,-74.14"/>
<polygon fill="midnightblue" stroke="midnightblue" points="323.81,-77.65 334.34,-76.49 325.38,-70.83 323.81,-77.65"/>
</g>
<!-- Node4 -->
<g id="node4" class="node">
<title>Node4</title>
<g id="a_node4"><a xlink:href="wld__hostapd__cfgManager_8c.html#abcd4b96a1191c1c593ab53f9d419e740" target="_top" xlink:title="delete a wld_hostapd_config_t map already loaded from hostapd file">
<polygon fill="white" stroke="black" points="304,-38.5 304,-57.5 449,-57.5 449,-38.5 304,-38.5"/>
<text text-anchor="middle" x="376.5" y="-45.5" font-family="Helvetica,sans-Serif" font-size="10.00">wld_hostapd_deleteConfig</text>
</a>
</g>
</g>
<!-- Node2&#45;&gt;Node4 -->
<g id="edge3" class="edge">
<title>Node2&#45;&gt;Node4</title>
<path fill="none" stroke="midnightblue" d="M268.07,-48C276.34,-48 284.99,-48 293.63,-48"/>
<polygon fill="midnightblue" stroke="midnightblue" points="293.75,-51.5 303.75,-48 293.75,-44.5 293.75,-51.5"/>
</g>
<!-- Node5 -->
<g id="node5" class="node">
<title>Node5</title>
<g id="a_node5"><a xlink:href="wld__hostapd__cfgManager_8c.html#aab797f94a64ba5206cdc5e379ba8d3e2" target="_top" xlink:title="write the content of hostapd_config into a file">
<polygon fill="white" stroke="black" points="307,-0.5 307,-19.5 446,-19.5 446,-0.5 307,-0.5"/>
<text text-anchor="middle" x="376.5" y="-7.5" font-family="Helvetica,sans-Serif" font-size="10.00">wld_hostapd_writeConfig</text>
</a>
</g>
</g>
<!-- Node2&#45;&gt;Node5 -->
<g id="edge4" class="edge">
<title>Node2&#45;&gt;Node5</title>
<path fill="none" stroke="midnightblue" d="M268.07,-34.82C286.3,-30.61 306.36,-25.97 324.15,-21.86"/>
<polygon fill="midnightblue" stroke="midnightblue" points="325.38,-25.17 334.34,-19.51 323.81,-18.35 325.38,-25.17"/>
</g>
</g>
</svg>
