<?xml version="1.0" encoding="UTF-8" standalone="no"?>
<!DOCTYPE svg PUBLIC "-//W3C//DTD SVG 1.1//EN"
 "http://www.w3.org/Graphics/SVG/1.1/DTD/svg11.dtd">
<!-- Generated by graphviz version 2.43.0 (0)
 -->
<!-- Title: wld_util_addorUpdateSpectrumEntry Pages: 1 -->
<svg width="362pt" height="39pt"
 viewBox="0.00 0.00 362.00 39.00" xmlns="http://www.w3.org/2000/svg" xmlns:xlink="http://www.w3.org/1999/xlink">
<g id="graph0" class="graph" transform="scale(1 1) rotate(0) translate(4 35)">
<title>wld_util_addorUpdateSpectrumEntry</title>
<polygon fill="white" stroke="transparent" points="-4,4 -4,-35 358,-35 358,4 -4,4"/>
<!-- Node1 -->
<g id="node1" class="node">
<title>Node1</title>
<g id="a_node1"><a xlink:title="add or update a spectrum result entry in provided list, based on the channel of the provided data str...">
<polygon fill="#bfbfbf" stroke="black" points="0,-0.5 0,-30.5 170,-30.5 170,-0.5 0,-0.5"/>
<text text-anchor="start" x="8" y="-18.5" font-family="Helvetica,sans-Serif" font-size="10.00">wld_util_addorUpdateSpectrum</text>
<text text-anchor="middle" x="85" y="-7.5" font-family="Helvetica,sans-Serif" font-size="10.00">Entry</text>
</a>
</g>
</g>
<!-- Node2 -->
<g id="node2" class="node">
<title>Node2</title>
<g id="a_node2"><a xlink:href="wld__util_8c.html#afc923d0ae8df35793889b4473f08faf9" target="_top" xlink:title="fetch, by channel, a spectrum result entry in provided list">
<polygon fill="white" stroke="black" points="206,-0.5 206,-30.5 354,-30.5 354,-0.5 206,-0.5"/>
<text text-anchor="start" x="214" y="-18.5" font-family="Helvetica,sans-Serif" font-size="10.00">wld_util_getSpectrumEntry</text>
<text text-anchor="middle" x="280" y="-7.5" font-family="Helvetica,sans-Serif" font-size="10.00">ByChannel</text>
</a>
</g>
</g>
<!-- Node1&#45;&gt;Node2 -->
<g id="edge1" class="edge">
<title>Node1&#45;&gt;Node2</title>
<path fill="none" stroke="midnightblue" d="M170.09,-15.5C178.54,-15.5 187.12,-15.5 195.56,-15.5"/>
<polygon fill="midnightblue" stroke="midnightblue" points="195.77,-19 205.77,-15.5 195.77,-12 195.77,-19"/>
</g>
</g>
</svg>
