<?xml version="1.0" encoding="UTF-8" standalone="no"?>
<!DOCTYPE svg PUBLIC "-//W3C//DTD SVG 1.1//EN"
 "http://www.w3.org/Graphics/SVG/1.1/DTD/svg11.dtd">
<!-- Generated by graphviz version 2.43.0 (0)
 -->
<!-- Title: wld_wpaCtrl_queryToSock Pages: 1 -->
<svg width="755pt" height="78pt"
 viewBox="0.00 0.00 755.00 77.50" xmlns="http://www.w3.org/2000/svg" xmlns:xlink="http://www.w3.org/1999/xlink">
<g id="graph0" class="graph" transform="scale(1 1) rotate(0) translate(4 73.5)">
<title>wld_wpaCtrl_queryToSock</title>
<polygon fill="white" stroke="transparent" points="-4,4 -4,-73.5 751,-73.5 751,4 -4,4"/>
<!-- Node1 -->
<g id="node1" class="node">
<title>Node1</title>
<g id="a_node1"><a xlink:title=" ">
<polygon fill="#bfbfbf" stroke="black" points="604,-28 604,-47 747,-47 747,-28 604,-28"/>
<text text-anchor="middle" x="675.5" y="-35" font-family="Helvetica,sans-Serif" font-size="10.00">wld_wpaCtrl_queryToSock</text>
</a>
</g>
</g>
<!-- Node2 -->
<g id="node2" class="node">
<title>Node2</title>
<g id="a_node2"><a xlink:href="wifiGen__hapd_8c.html#a7d3e7497d8ba632b42864b29eeb4cd70" target="_top" xlink:title=" ">
<polygon fill="white" stroke="black" points="395,-50 395,-69 564,-69 564,-50 395,-50"/>
<text text-anchor="middle" x="479.5" y="-57" font-family="Helvetica,sans-Serif" font-size="10.00">wifiGen_hapd_fetchSockApLink</text>
</a>
</g>
</g>
<!-- Node1&#45;&gt;Node2 -->
<g id="edge1" class="edge">
<title>Node1&#45;&gt;Node2</title>
<path fill="none" stroke="midnightblue" d="M593.82,-46.65C584.05,-47.76 574.04,-48.89 564.22,-50.01"/>
<polygon fill="midnightblue" stroke="midnightblue" points="594.37,-50.11 603.91,-45.5 593.58,-43.15 594.37,-50.11"/>
</g>
<!-- Node3 -->
<g id="node3" class="node">
<title>Node3</title>
<g id="a_node3"><a xlink:href="wld__wpaCtrlInterface_8c.html#ae0a540ffcdf6308c6a9d4b25218f1129" target="_top" xlink:title="send formatted command to wpa_ctrl server over established or temporary connection and check the rece...">
<polygon fill="white" stroke="black" points="391,-0.5 391,-30.5 568,-30.5 568,-0.5 391,-0.5"/>
<text text-anchor="start" x="399" y="-18.5" font-family="Helvetica,sans-Serif" font-size="10.00">wld_wpaCtrl_sendCmdFmtCheck</text>
<text text-anchor="middle" x="479.5" y="-7.5" font-family="Helvetica,sans-Serif" font-size="10.00">Response</text>
</a>
</g>
</g>
<!-- Node1&#45;&gt;Node3 -->
<g id="edge2" class="edge">
<title>Node1&#45;&gt;Node3</title>
<path fill="none" stroke="midnightblue" d="M593.74,-28.34C585.32,-27.39 576.73,-26.41 568.24,-25.45"/>
<polygon fill="midnightblue" stroke="midnightblue" points="593.58,-31.85 603.91,-29.5 594.37,-24.89 593.58,-31.85"/>
</g>
<!-- Node4 -->
<g id="node4" class="node">
<title>Node4</title>
<g id="a_node4"><a xlink:href="wld__rad__hostapd__api_8c.html#a848163f8651e518db2503acba24262c2" target="_top" xlink:title="reconfigure hostapd from file">
<polygon fill="white" stroke="black" points="196,-6 196,-25 355,-25 355,-6 196,-6"/>
<text text-anchor="middle" x="275.5" y="-13" font-family="Helvetica,sans-Serif" font-size="10.00">wld_rad_hostapd_reconfigure</text>
</a>
</g>
</g>
<!-- Node3&#45;&gt;Node4 -->
<g id="edge3" class="edge">
<title>Node3&#45;&gt;Node4</title>
<path fill="none" stroke="midnightblue" d="M380.77,-15.5C372.21,-15.5 363.62,-15.5 355.25,-15.5"/>
<polygon fill="midnightblue" stroke="midnightblue" points="380.78,-19 390.78,-15.5 380.78,-12 380.78,-19"/>
</g>
<!-- Node5 -->
<g id="node5" class="node">
<title>Node5</title>
<g id="a_node5"><a xlink:href="wifiGen__hapd_8c.html#a3316988b243476f9ae97626a068d4d04" target="_top" xlink:title=" ">
<polygon fill="white" stroke="black" points="0,-6 0,-25 160,-25 160,-6 0,-6"/>
<text text-anchor="middle" x="80" y="-13" font-family="Helvetica,sans-Serif" font-size="10.00">wifiGen_hapd_reloadDaemon</text>
</a>
</g>
</g>
<!-- Node4&#45;&gt;Node5 -->
<g id="edge4" class="edge">
<title>Node4&#45;&gt;Node5</title>
<path fill="none" stroke="midnightblue" d="M185.56,-15.5C177.12,-15.5 168.6,-15.5 160.26,-15.5"/>
<polygon fill="midnightblue" stroke="midnightblue" points="185.8,-19 195.8,-15.5 185.8,-12 185.8,-19"/>
</g>
</g>
</svg>
