<?xml version="1.0" encoding="UTF-8" standalone="no"?>
<!DOCTYPE svg PUBLIC "-//W3C//DTD SVG 1.1//EN"
 "http://www.w3.org/Graphics/SVG/1.1/DTD/svg11.dtd">
<!-- Generated by graphviz version 2.43.0 (0)
 -->
<!-- Title: wld_getAccesspointByAlias Pages: 1 -->
<svg width="468pt" height="66pt"
 viewBox="0.00 0.00 468.00 66.00" xmlns="http://www.w3.org/2000/svg" xmlns:xlink="http://www.w3.org/1999/xlink">
<g id="graph0" class="graph" transform="scale(1 1) rotate(0) translate(4 62)">
<title>wld_getAccesspointByAlias</title>
<polygon fill="white" stroke="transparent" points="-4,4 -4,-62 464,-62 464,4 -4,4"/>
<!-- Node1 -->
<g id="node1" class="node">
<title>Node1</title>
<g id="a_node1"><a xlink:title=" ">
<polygon fill="#bfbfbf" stroke="black" points="310,-19.5 310,-38.5 460,-38.5 460,-19.5 310,-19.5"/>
<text text-anchor="middle" x="385" y="-26.5" font-family="Helvetica,sans-Serif" font-size="10.00">wld_getAccesspointByAlias</text>
</a>
</g>
</g>
<!-- Node2 -->
<g id="node2" class="node">
<title>Node2</title>
<g id="a_node2"><a xlink:href="wld__th__dm_8c.html#ab6fac1ee07c4779d3f52c6fe518489ce" target="_top" xlink:title=" ">
<polygon fill="white" stroke="black" points="165.5,-38.5 165.5,-57.5 256.5,-57.5 256.5,-38.5 165.5,-38.5"/>
<text text-anchor="middle" x="211" y="-45.5" font-family="Helvetica,sans-Serif" font-size="10.00">wld_th_dm_init</text>
</a>
</g>
</g>
<!-- Node1&#45;&gt;Node2 -->
<g id="edge1" class="edge">
<title>Node1&#45;&gt;Node2</title>
<path fill="none" stroke="midnightblue" d="M299.63,-38.32C284.88,-39.95 270.07,-41.59 256.93,-43.04"/>
<polygon fill="midnightblue" stroke="midnightblue" points="300.25,-41.77 309.81,-37.2 299.48,-34.81 300.25,-41.77"/>
</g>
<!-- Node4 -->
<g id="node4" class="node">
<title>Node4</title>
<g id="a_node4"><a xlink:href="wld__th__vap_8c.html#a3a7acaf12c4a42603b82859661ef7628" target="_top" xlink:title=" ">
<polygon fill="white" stroke="black" points="148,-0.5 148,-19.5 274,-19.5 274,-0.5 148,-0.5"/>
<text text-anchor="middle" x="211" y="-7.5" font-family="Helvetica,sans-Serif" font-size="10.00">wld_th_vap_createVap</text>
</a>
</g>
</g>
<!-- Node1&#45;&gt;Node4 -->
<g id="edge3" class="edge">
<title>Node1&#45;&gt;Node4</title>
<path fill="none" stroke="midnightblue" d="M299.71,-19.69C291.07,-18.73 282.42,-17.78 274.09,-16.86"/>
<polygon fill="midnightblue" stroke="midnightblue" points="299.48,-23.19 309.81,-20.8 300.25,-16.23 299.48,-23.19"/>
</g>
<!-- Node3 -->
<g id="node3" class="node">
<title>Node3</title>
<g id="a_node3"><a xlink:href="wld__th__dm_8c.html#ae00bc827b2dccc09a3c4b6051dcf761e" target="_top" xlink:title=" ">
<polygon fill="white" stroke="black" points="0,-38.5 0,-57.5 112,-57.5 112,-38.5 0,-38.5"/>
<text text-anchor="middle" x="56" y="-45.5" font-family="Helvetica,sans-Serif" font-size="10.00">wld_th_dm_initFreq</text>
</a>
</g>
</g>
<!-- Node2&#45;&gt;Node3 -->
<g id="edge2" class="edge">
<title>Node2&#45;&gt;Node3</title>
<path fill="none" stroke="midnightblue" d="M155.32,-48C141.26,-48 126.12,-48 112.04,-48"/>
<polygon fill="midnightblue" stroke="midnightblue" points="155.33,-51.5 165.33,-48 155.33,-44.5 155.33,-51.5"/>
</g>
</g>
</svg>
