<?xml version="1.0" encoding="UTF-8" standalone="no"?>
<!DOCTYPE svg PUBLIC "-//W3C//DTD SVG 1.1//EN"
 "http://www.w3.org/Graphics/SVG/1.1/DTD/svg11.dtd">
<!-- Generated by graphviz version 2.43.0 (0)
 -->
<!-- Title: wld_rad_getExtModData Pages: 1 -->
<svg width="402pt" height="28pt"
 viewBox="0.00 0.00 402.00 28.00" xmlns="http://www.w3.org/2000/svg" xmlns:xlink="http://www.w3.org/1999/xlink">
<g id="graph0" class="graph" transform="scale(1 1) rotate(0) translate(4 24)">
<title>wld_rad_getExtModData</title>
<polygon fill="white" stroke="transparent" points="-4,4 -4,-24 398,-24 398,4 -4,4"/>
<!-- Node1 -->
<g id="node1" class="node">
<title>Node1</title>
<g id="a_node1"><a xlink:title=" ">
<polygon fill="#bfbfbf" stroke="black" points="0,-0.5 0,-19.5 136,-19.5 136,-0.5 0,-0.5"/>
<text text-anchor="middle" x="68" y="-7.5" font-family="Helvetica,sans-Serif" font-size="10.00">wld_rad_getExtModData</text>
</a>
</g>
</g>
<!-- Node2 -->
<g id="node2" class="node">
<title>Node2</title>
<g id="a_node2"><a xlink:href="wld__extMod_8c.html#a9caf156ba8ea03343a93eb64e15041e7" target="_top" xlink:title="retrieve the extModData that was registered for a given extModId">
<polygon fill="white" stroke="black" points="172,-0.5 172,-19.5 292,-19.5 292,-0.5 172,-0.5"/>
<text text-anchor="middle" x="232" y="-7.5" font-family="Helvetica,sans-Serif" font-size="10.00">wld_extMod_getData</text>
</a>
</g>
</g>
<!-- Node1&#45;&gt;Node2 -->
<g id="edge1" class="edge">
<title>Node1&#45;&gt;Node2</title>
<path fill="none" stroke="midnightblue" d="M136.3,-10C144.7,-10 153.31,-10 161.74,-10"/>
<polygon fill="midnightblue" stroke="midnightblue" points="161.92,-13.5 171.92,-10 161.92,-6.5 161.92,-13.5"/>
</g>
<!-- Node3 -->
<g id="node3" class="node">
<title>Node3</title>
<g id="a_node3"><a xlink:href="wld__extMod_8c.html#a9f5e023c951684b754d84e10ddee14a1" target="_top" xlink:title=" ">
<polygon fill="white" stroke="black" points="328,-0.5 328,-19.5 394,-19.5 394,-0.5 328,-0.5"/>
<text text-anchor="middle" x="361" y="-7.5" font-family="Helvetica,sans-Serif" font-size="10.00">s_getData</text>
</a>
</g>
</g>
<!-- Node2&#45;&gt;Node3 -->
<g id="edge2" class="edge">
<title>Node2&#45;&gt;Node3</title>
<path fill="none" stroke="midnightblue" d="M292.04,-10C300.69,-10 309.46,-10 317.69,-10"/>
<polygon fill="midnightblue" stroke="midnightblue" points="317.77,-13.5 327.77,-10 317.77,-6.5 317.77,-13.5"/>
</g>
</g>
</svg>
