<?xml version="1.0" encoding="UTF-8" standalone="no"?>
<!DOCTYPE svg PUBLIC "-//W3C//DTD SVG 1.1//EN"
 "http://www.w3.org/Graphics/SVG/1.1/DTD/svg11.dtd">
<!-- Generated by graphviz version 2.43.0 (0)
 -->
<!-- Title: _wld_rad_staMon_addNastaMonDev_oaf Pages: 1 -->
<svg width="567pt" height="66pt"
 viewBox="0.00 0.00 567.00 66.00" xmlns="http://www.w3.org/2000/svg" xmlns:xlink="http://www.w3.org/1999/xlink">
<g id="graph0" class="graph" transform="scale(1 1) rotate(0) translate(4 62)">
<title>_wld_rad_staMon_addNastaMonDev_oaf</title>
<polygon fill="white" stroke="transparent" points="-4,4 -4,-62 563,-62 563,4 -4,4"/>
<!-- Node1 -->
<g id="node1" class="node">
<title>Node1</title>
<g id="a_node1"><a xlink:title=" ">
<polygon fill="#bfbfbf" stroke="black" points="0,-14 0,-44 153,-44 153,-14 0,-14"/>
<text text-anchor="start" x="8" y="-32" font-family="Helvetica,sans-Serif" font-size="10.00">_wld_rad_staMon_addNasta</text>
<text text-anchor="middle" x="76.5" y="-21" font-family="Helvetica,sans-Serif" font-size="10.00">MonDev_oaf</text>
</a>
</g>
</g>
<!-- Node2 -->
<g id="node2" class="node">
<title>Node2</title>
<g id="a_node2"><a xlink:href="wld__radio_8c.html#a5bc526661be71f2eb0810b099efe607d" target="_top" xlink:title=" ">
<polygon fill="white" stroke="black" points="189,-19.5 189,-38.5 289,-38.5 289,-19.5 189,-19.5"/>
<text text-anchor="middle" x="239" y="-26.5" font-family="Helvetica,sans-Serif" font-size="10.00">wld_rad_fromObj</text>
</a>
</g>
</g>
<!-- Node1&#45;&gt;Node2 -->
<g id="edge1" class="edge">
<title>Node1&#45;&gt;Node2</title>
<path fill="none" stroke="midnightblue" d="M153.05,-29C161.72,-29 170.46,-29 178.88,-29"/>
<polygon fill="midnightblue" stroke="midnightblue" points="178.94,-32.5 188.94,-29 178.94,-25.5 178.94,-32.5"/>
</g>
<!-- Node3 -->
<g id="node3" class="node">
<title>Node3</title>
<g id="a_node3"><a xlink:href="wld__util_8c.html#a18c61fa964e131e3008ec440b72b61c8" target="_top" xlink:title=" ">
<polygon fill="white" stroke="black" points="325,-38.5 325,-57.5 433,-57.5 433,-38.5 325,-38.5"/>
<text text-anchor="middle" x="379" y="-45.5" font-family="Helvetica,sans-Serif" font-size="10.00">debugIsRadPointer</text>
</a>
</g>
</g>
<!-- Node2&#45;&gt;Node3 -->
<g id="edge2" class="edge">
<title>Node2&#45;&gt;Node3</title>
<path fill="none" stroke="midnightblue" d="M289.04,-35.75C297.39,-36.9 306.17,-38.11 314.83,-39.3"/>
<polygon fill="midnightblue" stroke="midnightblue" points="314.52,-42.79 324.9,-40.69 315.47,-35.86 314.52,-42.79"/>
</g>
<!-- Node4 -->
<g id="node4" class="node">
<title>Node4</title>
<g id="a_node4"><a xlink:href="wld__radio_8c.html#a7cad1ba5d4b5338e778c1ae67b58874f" target="_top" xlink:title=" ">
<polygon fill="white" stroke="black" points="327,-0.5 327,-19.5 431,-19.5 431,-0.5 327,-0.5"/>
<text text-anchor="middle" x="379" y="-7.5" font-family="Helvetica,sans-Serif" font-size="10.00">wld_rad_isRadObj</text>
</a>
</g>
</g>
<!-- Node2&#45;&gt;Node4 -->
<g id="edge3" class="edge">
<title>Node2&#45;&gt;Node4</title>
<path fill="none" stroke="midnightblue" d="M289.04,-22.25C298.03,-21.01 307.51,-19.7 316.81,-18.43"/>
<polygon fill="midnightblue" stroke="midnightblue" points="317.35,-21.88 326.78,-17.05 316.4,-14.95 317.35,-21.88"/>
</g>
<!-- Node5 -->
<g id="node5" class="node">
<title>Node5</title>
<g id="a_node5"><a xlink:href="wld_8c.html#a86eb0dd5db7f6f4c724e09f6d1b831d8" target="_top" xlink:title=" ">
<polygon fill="white" stroke="black" points="469,-0.5 469,-19.5 559,-19.5 559,-0.5 469,-0.5"/>
<text text-anchor="middle" x="514" y="-7.5" font-family="Helvetica,sans-Serif" font-size="10.00">get_wld_object</text>
</a>
</g>
</g>
<!-- Node4&#45;&gt;Node5 -->
<g id="edge4" class="edge">
<title>Node4&#45;&gt;Node5</title>
<path fill="none" stroke="midnightblue" d="M431.04,-10C440.09,-10 449.54,-10 458.68,-10"/>
<polygon fill="midnightblue" stroke="midnightblue" points="458.82,-13.5 468.82,-10 458.82,-6.5 458.82,-13.5"/>
</g>
</g>
</svg>
