<?xml version="1.0" encoding="UTF-8" standalone="no"?>
<!DOCTYPE svg PUBLIC "-//W3C//DTD SVG 1.1//EN"
 "http://www.w3.org/Graphics/SVG/1.1/DTD/svg11.dtd">
<!-- Generated by graphviz version 2.43.0 (0)
 -->
<!-- Title: wld_rad_hostapd_getCfgChanspec Pages: 1 -->
<svg width="1208pt" height="116pt"
 viewBox="0.00 0.00 1208.00 116.00" xmlns="http://www.w3.org/2000/svg" xmlns:xlink="http://www.w3.org/1999/xlink">
<g id="graph0" class="graph" transform="scale(1 1) rotate(0) translate(4 112)">
<title>wld_rad_hostapd_getCfgChanspec</title>
<polygon fill="white" stroke="transparent" points="-4,4 -4,-112 1204,-112 1204,4 -4,4"/>
<!-- Node1 -->
<g id="node1" class="node">
<title>Node1</title>
<g id="a_node1"><a xlink:title=" ">
<polygon fill="#bfbfbf" stroke="black" points="0,-25.5 0,-44.5 184,-44.5 184,-25.5 0,-25.5"/>
<text text-anchor="middle" x="92" y="-32.5" font-family="Helvetica,sans-Serif" font-size="10.00">wld_rad_hostapd_getCfgChanspec</text>
</a>
</g>
</g>
<!-- Node2 -->
<g id="node2" class="node">
<title>Node2</title>
<g id="a_node2"><a xlink:href="wld__rad__hostapd__api_8c.html#a3d62d80913bbb59fd6fe19d9d76b829a" target="_top" xlink:title=" ">
<polygon fill="white" stroke="black" points="220,-44.5 220,-63.5 396,-63.5 396,-44.5 220,-44.5"/>
<text text-anchor="middle" x="308" y="-51.5" font-family="Helvetica,sans-Serif" font-size="10.00">wld_rad_hostapd_getCfgChannel</text>
</a>
</g>
</g>
<!-- Node1&#45;&gt;Node2 -->
<g id="edge1" class="edge">
<title>Node1&#45;&gt;Node2</title>
<path fill="none" stroke="midnightblue" d="M184.07,-43.09C192.57,-43.84 201.21,-44.61 209.77,-45.37"/>
<polygon fill="midnightblue" stroke="midnightblue" points="209.49,-48.86 219.76,-46.25 210.11,-41.88 209.49,-48.86"/>
</g>
<!-- Node3 -->
<g id="node3" class="node">
<title>Node3</title>
<g id="a_node3"><a xlink:href="wld__rad__hostapd__api_8c.html#abe1746524f390e3a6393472a5ee570d6" target="_top" xlink:title=" ">
<polygon fill="white" stroke="black" points="432,-20 432,-50 599,-50 599,-20 432,-20"/>
<text text-anchor="start" x="440" y="-38" font-family="Helvetica,sans-Serif" font-size="10.00">wld_rad_hostapd_getCfgParam</text>
<text text-anchor="middle" x="515.5" y="-27" font-family="Helvetica,sans-Serif" font-size="10.00">Int32Def</text>
</a>
</g>
</g>
<!-- Node1&#45;&gt;Node3 -->
<g id="edge9" class="edge">
<title>Node1&#45;&gt;Node3</title>
<path fill="none" stroke="midnightblue" d="M184.2,-35C254.34,-35 350.87,-35 421.47,-35"/>
<polygon fill="midnightblue" stroke="midnightblue" points="421.69,-38.5 431.69,-35 421.69,-31.5 421.69,-38.5"/>
</g>
<!-- Node2&#45;&gt;Node3 -->
<g id="edge2" class="edge">
<title>Node2&#45;&gt;Node3</title>
<path fill="none" stroke="midnightblue" d="M396.15,-45.94C404.64,-45.16 413.28,-44.36 421.82,-43.57"/>
<polygon fill="midnightblue" stroke="midnightblue" points="422.16,-47.05 431.79,-42.65 421.51,-40.08 422.16,-47.05"/>
</g>
<!-- Node4 -->
<g id="node4" class="node">
<title>Node4</title>
<g id="a_node4"><a xlink:href="wld__rad__hostapd__api_8c.html#afde544a6926aebb05ea1f9c934778480" target="_top" xlink:title=" ">
<polygon fill="white" stroke="black" points="635,-44.5 635,-63.5 816,-63.5 816,-44.5 635,-44.5"/>
<text text-anchor="middle" x="725.5" y="-51.5" font-family="Helvetica,sans-Serif" font-size="10.00">wld_rad_hostapd_getCfgParamStr</text>
</a>
</g>
</g>
<!-- Node3&#45;&gt;Node4 -->
<g id="edge3" class="edge">
<title>Node3&#45;&gt;Node4</title>
<path fill="none" stroke="midnightblue" d="M599.01,-42.54C607.48,-43.31 616.16,-44.1 624.8,-44.89"/>
<polygon fill="midnightblue" stroke="midnightblue" points="624.63,-48.39 634.91,-45.82 625.27,-41.42 624.63,-48.39"/>
</g>
<!-- Node9 -->
<g id="node9" class="node">
<title>Node9</title>
<g id="a_node9"><a xlink:href="wld__util_8c.html#a1885348d15676dcae318538076904ed3" target="_top" xlink:title=" ">
<polygon fill="white" stroke="black" points="667.5,-6.5 667.5,-25.5 783.5,-25.5 783.5,-6.5 667.5,-6.5"/>
<text text-anchor="middle" x="725.5" y="-13.5" font-family="Helvetica,sans-Serif" font-size="10.00">wldu_convStrToNum</text>
</a>
</g>
</g>
<!-- Node3&#45;&gt;Node9 -->
<g id="edge8" class="edge">
<title>Node3&#45;&gt;Node9</title>
<path fill="none" stroke="midnightblue" d="M599.01,-27.46C618.34,-25.7 638.7,-23.84 657.28,-22.14"/>
<polygon fill="midnightblue" stroke="midnightblue" points="657.75,-25.61 667.39,-21.22 657.11,-18.64 657.75,-25.61"/>
</g>
<!-- Node5 -->
<g id="node5" class="node">
<title>Node5</title>
<g id="a_node5"><a xlink:href="wld__hostapd__cfgManager_8c.html#abcd4b96a1191c1c593ab53f9d419e740" target="_top" xlink:title="delete a wld_hostapd_config_t map already loaded from hostapd file">
<polygon fill="white" stroke="black" points="860,-88.5 860,-107.5 1005,-107.5 1005,-88.5 860,-88.5"/>
<text text-anchor="middle" x="932.5" y="-95.5" font-family="Helvetica,sans-Serif" font-size="10.00">wld_hostapd_deleteConfig</text>
</a>
</g>
</g>
<!-- Node4&#45;&gt;Node5 -->
<g id="edge4" class="edge">
<title>Node4&#45;&gt;Node5</title>
<path fill="none" stroke="midnightblue" d="M770.98,-63.55C802.14,-70.24 843.97,-79.21 877.12,-86.33"/>
<polygon fill="midnightblue" stroke="midnightblue" points="876.59,-89.79 887.1,-88.47 878.06,-82.95 876.59,-89.79"/>
</g>
<!-- Node6 -->
<g id="node6" class="node">
<title>Node6</title>
<g id="a_node6"><a xlink:href="wld__hostapd__cfgManager_8c.html#af7827e8223cd8d13fc11d3a520f71660" target="_top" xlink:title=" ">
<polygon fill="white" stroke="black" points="852,-39 852,-69 1013,-69 1013,-39 852,-39"/>
<text text-anchor="start" x="860" y="-57" font-family="Helvetica,sans-Serif" font-size="10.00">wld_hostapd_getConfigParam</text>
<text text-anchor="middle" x="932.5" y="-46" font-family="Helvetica,sans-Serif" font-size="10.00">ValStr</text>
</a>
</g>
</g>
<!-- Node4&#45;&gt;Node6 -->
<g id="edge5" class="edge">
<title>Node4&#45;&gt;Node6</title>
<path fill="none" stroke="midnightblue" d="M816.12,-54C824.54,-54 833.09,-54 841.52,-54"/>
<polygon fill="midnightblue" stroke="midnightblue" points="841.72,-57.5 851.72,-54 841.72,-50.5 841.72,-57.5"/>
</g>
<!-- Node8 -->
<g id="node8" class="node">
<title>Node8</title>
<g id="a_node8"><a xlink:href="wld__hostapd__cfgManager_8c.html#ad15aa07c202c5ff5f3a78dc1297429f5" target="_top" xlink:title="load the hostapd configuration from hostpad config file into wld_hostapd_config_t structure">
<polygon fill="white" stroke="black" points="865,-0.5 865,-19.5 1000,-19.5 1000,-0.5 865,-0.5"/>
<text text-anchor="middle" x="932.5" y="-7.5" font-family="Helvetica,sans-Serif" font-size="10.00">wld_hostapd_loadConfig</text>
</a>
</g>
</g>
<!-- Node4&#45;&gt;Node8 -->
<g id="edge7" class="edge">
<title>Node4&#45;&gt;Node8</title>
<path fill="none" stroke="midnightblue" d="M771.58,-44.47C785.79,-41.45 801.56,-38.1 816,-35 836.16,-30.68 858.29,-25.9 877.73,-21.68"/>
<polygon fill="midnightblue" stroke="midnightblue" points="878.6,-25.08 887.63,-19.54 877.12,-18.24 878.6,-25.08"/>
</g>
<!-- Node7 -->
<g id="node7" class="node">
<title>Node7</title>
<g id="a_node7"><a xlink:href="wld__hostapd__cfgManager_8c.html#a0a1bb10a455c35606f794a85a9e5964a" target="_top" xlink:title="get the general/vap config map">
<polygon fill="white" stroke="black" points="1049,-44.5 1049,-63.5 1200,-63.5 1200,-44.5 1049,-44.5"/>
<text text-anchor="middle" x="1124.5" y="-51.5" font-family="Helvetica,sans-Serif" font-size="10.00">wld_hostapd_getConfigMap</text>
</a>
</g>
</g>
<!-- Node6&#45;&gt;Node7 -->
<g id="edge6" class="edge">
<title>Node6&#45;&gt;Node7</title>
<path fill="none" stroke="midnightblue" d="M1013.25,-54C1021.63,-54 1030.16,-54 1038.59,-54"/>
<polygon fill="midnightblue" stroke="midnightblue" points="1038.81,-57.5 1048.81,-54 1038.81,-50.5 1038.81,-57.5"/>
</g>
</g>
</svg>
