<?xml version="1.0" encoding="UTF-8" standalone="no"?>
<!DOCTYPE svg PUBLIC "-//W3C//DTD SVG 1.1//EN"
 "http://www.w3.org/Graphics/SVG/1.1/DTD/svg11.dtd">
<!-- Generated by graphviz version 2.43.0 (0)
 -->
<!-- Title: wld_chanmgt_getCurChspec Pages: 1 -->
<svg width="358pt" height="66pt"
 viewBox="0.00 0.00 358.00 66.00" xmlns="http://www.w3.org/2000/svg" xmlns:xlink="http://www.w3.org/1999/xlink">
<g id="graph0" class="graph" transform="scale(1 1) rotate(0) translate(4 62)">
<title>wld_chanmgt_getCurChspec</title>
<polygon fill="white" stroke="transparent" points="-4,4 -4,-62 354,-62 354,4 -4,4"/>
<!-- Node1 -->
<g id="node1" class="node">
<title>Node1</title>
<g id="a_node1"><a xlink:title=" ">
<polygon fill="#bfbfbf" stroke="black" points="195,-19.5 195,-38.5 350,-38.5 350,-19.5 195,-19.5"/>
<text text-anchor="middle" x="272.5" y="-26.5" font-family="Helvetica,sans-Serif" font-size="10.00">wld_chanmgt_getCurChspec</text>
</a>
</g>
</g>
<!-- Node2 -->
<g id="node2" class="node">
<title>Node2</title>
<g id="a_node2"><a xlink:href="wld__chanmgt_8c.html#ab42232d9984e26533bbf9edfed18463a" target="_top" xlink:title=" ">
<polygon fill="white" stroke="black" points="12.5,-38.5 12.5,-57.5 146.5,-57.5 146.5,-38.5 12.5,-38.5"/>
<text text-anchor="middle" x="79.5" y="-45.5" font-family="Helvetica,sans-Serif" font-size="10.00">wld_chanmgt_getCurBw</text>
</a>
</g>
</g>
<!-- Node1&#45;&gt;Node2 -->
<g id="edge1" class="edge">
<title>Node1&#45;&gt;Node2</title>
<path fill="none" stroke="midnightblue" d="M184.72,-37.63C171.93,-38.91 158.93,-40.2 146.65,-41.42"/>
<polygon fill="midnightblue" stroke="midnightblue" points="185.31,-41.09 194.91,-36.62 184.62,-34.13 185.31,-41.09"/>
</g>
<!-- Node3 -->
<g id="node3" class="node">
<title>Node3</title>
<g id="a_node3"><a xlink:href="wld__chanmgt_8c.html#a25f1ec63a245b6396ac2906d3238e705" target="_top" xlink:title=" ">
<polygon fill="white" stroke="black" points="0,-0.5 0,-19.5 159,-19.5 159,-0.5 0,-0.5"/>
<text text-anchor="middle" x="79.5" y="-7.5" font-family="Helvetica,sans-Serif" font-size="10.00">wld_chanmgt_getCurChannel</text>
</a>
</g>
</g>
<!-- Node1&#45;&gt;Node3 -->
<g id="edge2" class="edge">
<title>Node1&#45;&gt;Node3</title>
<path fill="none" stroke="midnightblue" d="M184.94,-20.39C176.39,-19.54 167.75,-18.68 159.29,-17.84"/>
<polygon fill="midnightblue" stroke="midnightblue" points="184.62,-23.87 194.91,-21.38 185.31,-16.91 184.62,-23.87"/>
</g>
</g>
</svg>
