<?xml version="1.0" encoding="UTF-8" standalone="no"?>
<!DOCTYPE svg PUBLIC "-//W3C//DTD SVG 1.1//EN"
 "http://www.w3.org/Graphics/SVG/1.1/DTD/svg11.dtd">
<!-- Generated by graphviz version 2.43.0 (0)
 -->
<!-- Title: wld_secDmn_isRunning Pages: 1 -->
<svg width="1136pt" height="328pt"
 viewBox="0.00 0.00 1136.00 328.00" xmlns="http://www.w3.org/2000/svg" xmlns:xlink="http://www.w3.org/1999/xlink">
<g id="graph0" class="graph" transform="scale(1 1) rotate(0) translate(4 324)">
<title>wld_secDmn_isRunning</title>
<polygon fill="white" stroke="transparent" points="-4,4 -4,-324 1132,-324 1132,4 -4,4"/>
<!-- Node1 -->
<g id="node1" class="node">
<title>Node1</title>
<g id="a_node1"><a xlink:title=" ">
<polygon fill="#bfbfbf" stroke="black" points="996,-210.5 996,-229.5 1128,-229.5 1128,-210.5 996,-210.5"/>
<text text-anchor="middle" x="1062" y="-217.5" font-family="Helvetica,sans-Serif" font-size="10.00">wld_secDmn_isRunning</text>
</a>
</g>
</g>
<!-- Node2 -->
<g id="node2" class="node">
<title>Node2</title>
<g id="a_node2"><a xlink:href="wifiGen__hapd_8c.html#a3ba402dd55c4b0f7cd42f0f781504cbd" target="_top" xlink:title=" ">
<polygon fill="white" stroke="black" points="808.5,-248.5 808.5,-267.5 944.5,-267.5 944.5,-248.5 808.5,-248.5"/>
<text text-anchor="middle" x="876.5" y="-255.5" font-family="Helvetica,sans-Serif" font-size="10.00">wifiGen_hapd_isRunning</text>
</a>
</g>
</g>
<!-- Node1&#45;&gt;Node2 -->
<g id="edge1" class="edge">
<title>Node1&#45;&gt;Node2</title>
<path fill="none" stroke="midnightblue" d="M1004.59,-231.68C978.57,-237.07 948.07,-243.39 923.47,-248.48"/>
<polygon fill="midnightblue" stroke="midnightblue" points="1005.61,-235.04 1014.7,-229.59 1004.19,-228.19 1005.61,-235.04"/>
</g>
<!-- Node3 -->
<g id="node3" class="node">
<title>Node3</title>
<g id="a_node3"><a xlink:href="wld__secDmn_8c.html#a1b9d684b37eb9a4922e736e45544a50d" target="_top" xlink:title=" ">
<polygon fill="white" stroke="black" points="626,-218.5 626,-237.5 743,-237.5 743,-218.5 626,-218.5"/>
<text text-anchor="middle" x="684.5" y="-225.5" font-family="Helvetica,sans-Serif" font-size="10.00">wld_secDmn_isAlive</text>
</a>
</g>
</g>
<!-- Node1&#45;&gt;Node3 -->
<g id="edge2" class="edge">
<title>Node1&#45;&gt;Node3</title>
<path fill="none" stroke="midnightblue" d="M985.29,-221.61C913.75,-223.14 807.99,-225.39 743.09,-226.77"/>
<polygon fill="midnightblue" stroke="midnightblue" points="985.67,-225.11 995.59,-221.39 985.52,-218.11 985.67,-225.11"/>
</g>
<!-- Node9 -->
<g id="node9" class="node">
<title>Node9</title>
<g id="a_node9"><a xlink:href="wld__wpaCtrlMngr_8c.html#ad3e7ad2284a85ee77e110a90f0fd34ae" target="_top" xlink:title="check that wpaCtrl manager is connected: i.e can receive events from its main interface.">
<polygon fill="white" stroke="black" points="793,-157.5 793,-176.5 960,-176.5 960,-157.5 793,-157.5"/>
<text text-anchor="middle" x="876.5" y="-164.5" font-family="Helvetica,sans-Serif" font-size="10.00">wld_wpaCtrlMngr_isConnected</text>
</a>
</g>
</g>
<!-- Node1&#45;&gt;Node9 -->
<g id="edge9" class="edge">
<title>Node1&#45;&gt;Node9</title>
<path fill="none" stroke="midnightblue" d="M1017.98,-207.57C985.13,-198.09 940.54,-185.21 910.48,-176.53"/>
<polygon fill="midnightblue" stroke="midnightblue" points="1017.19,-210.99 1027.77,-210.4 1019.13,-204.26 1017.19,-210.99"/>
</g>
<!-- Node4 -->
<g id="node4" class="node">
<title>Node4</title>
<g id="a_node4"><a xlink:href="wifiGen__hapd_8c.html#a34f0f7ab3fbb907b8468f24eab479a29" target="_top" xlink:title=" ">
<polygon fill="white" stroke="black" points="418.5,-300.5 418.5,-319.5 539.5,-319.5 539.5,-300.5 418.5,-300.5"/>
<text text-anchor="middle" x="479" y="-307.5" font-family="Helvetica,sans-Serif" font-size="10.00">wifiGen_hapd_isAlive</text>
</a>
</g>
</g>
<!-- Node3&#45;&gt;Node4 -->
<g id="edge3" class="edge">
<title>Node3&#45;&gt;Node4</title>
<path fill="none" stroke="midnightblue" d="M659.76,-243.06C638.5,-255.98 606.14,-274.31 576,-286 560.78,-291.9 543.64,-296.73 528.1,-300.46"/>
<polygon fill="midnightblue" stroke="midnightblue" points="661.74,-245.94 668.42,-237.72 658.07,-239.99 661.74,-245.94"/>
</g>
<!-- Node6 -->
<g id="node6" class="node">
<title>Node6</title>
<g id="a_node6"><a xlink:href="wld__secDmn_8c.html#a2ef4347d15906169439607244d607cc8" target="_top" xlink:title=" ">
<polygon fill="white" stroke="black" points="0,-240.5 0,-259.5 151,-259.5 151,-240.5 0,-240.5"/>
<text text-anchor="middle" x="75.5" y="-247.5" font-family="Helvetica,sans-Serif" font-size="10.00">wld_secDmn_isActiveAlone</text>
</a>
</g>
</g>
<!-- Node3&#45;&gt;Node6 -->
<g id="edge5" class="edge">
<title>Node3&#45;&gt;Node6</title>
<path fill="none" stroke="midnightblue" d="M641.05,-240.23C621.44,-245.27 597.72,-250.51 576,-253 426.09,-270.2 249.21,-262.63 151.27,-256.02"/>
<polygon fill="midnightblue" stroke="midnightblue" points="642.13,-243.57 650.91,-237.63 640.34,-236.8 642.13,-243.57"/>
</g>
<!-- Node7 -->
<g id="node7" class="node">
<title>Node7</title>
<g id="a_node7"><a xlink:href="wld__secDmnGrp_8c.html#af0c8baba6a72e3d8962f0666ac93ccc9" target="_top" xlink:title=" ">
<polygon fill="white" stroke="black" points="382,-213 382,-243 576,-243 576,-213 382,-213"/>
<text text-anchor="start" x="390" y="-231" font-family="Helvetica,sans-Serif" font-size="10.00">wld_secDmnGrp_getActiveMembers</text>
<text text-anchor="middle" x="479" y="-220" font-family="Helvetica,sans-Serif" font-size="10.00">Count</text>
</a>
</g>
</g>
<!-- Node3&#45;&gt;Node7 -->
<g id="edge6" class="edge">
<title>Node3&#45;&gt;Node7</title>
<path fill="none" stroke="midnightblue" d="M615.71,-228C602.97,-228 589.44,-228 576.03,-228"/>
<polygon fill="midnightblue" stroke="midnightblue" points="615.73,-231.5 625.73,-228 615.73,-224.5 615.73,-231.5"/>
</g>
<!-- Node5 -->
<g id="node5" class="node">
<title>Node5</title>
<g id="a_node5"><a xlink:href="wifiGen__rad_8c.html#aa2e0292b4ea755002c53ad76b381543e" target="_top" xlink:title=" ">
<polygon fill="white" stroke="black" points="199.5,-300.5 199.5,-319.5 333.5,-319.5 333.5,-300.5 199.5,-300.5"/>
<text text-anchor="middle" x="266.5" y="-307.5" font-family="Helvetica,sans-Serif" font-size="10.00">wifiGen_rad_regDomain</text>
</a>
</g>
</g>
<!-- Node4&#45;&gt;Node5 -->
<g id="edge4" class="edge">
<title>Node4&#45;&gt;Node5</title>
<path fill="none" stroke="midnightblue" d="M408.15,-310C384.15,-310 357.39,-310 333.69,-310"/>
<polygon fill="midnightblue" stroke="midnightblue" points="408.24,-313.5 418.24,-310 408.24,-306.5 408.24,-313.5"/>
</g>
<!-- Node8 -->
<g id="node8" class="node">
<title>Node8</title>
<g id="a_node8"><a xlink:href="wld__secDmn_8c.html#a02e589b0c9a457e6d5f9d0b2081f1ff5" target="_top" xlink:title=" ">
<polygon fill="white" stroke="black" points="187,-213 187,-243 346,-243 346,-213 187,-213"/>
<text text-anchor="start" x="195" y="-231" font-family="Helvetica,sans-Serif" font-size="10.00">wld_secDmn_countActiveGrp</text>
<text text-anchor="middle" x="266.5" y="-220" font-family="Helvetica,sans-Serif" font-size="10.00">Members</text>
</a>
</g>
</g>
<!-- Node7&#45;&gt;Node8 -->
<g id="edge7" class="edge">
<title>Node7&#45;&gt;Node8</title>
<path fill="none" stroke="midnightblue" d="M371.81,-228C363.13,-228 354.46,-228 346.03,-228"/>
<polygon fill="midnightblue" stroke="midnightblue" points="371.99,-231.5 381.99,-228 371.99,-224.5 371.99,-231.5"/>
</g>
<!-- Node8&#45;&gt;Node6 -->
<g id="edge8" class="edge">
<title>Node8&#45;&gt;Node6</title>
<path fill="none" stroke="midnightblue" d="M176.91,-238.31C168.29,-239.32 159.6,-240.33 151.13,-241.31"/>
<polygon fill="midnightblue" stroke="midnightblue" points="177.46,-241.77 186.99,-237.14 176.65,-234.82 177.46,-241.77"/>
</g>
<!-- Node9&#45;&gt;Node3 -->
<g id="edge10" class="edge">
<title>Node9&#45;&gt;Node3</title>
<path fill="none" stroke="midnightblue" d="M836.14,-179.64C800.21,-191.17 747.87,-207.98 715.29,-218.44"/>
<polygon fill="midnightblue" stroke="midnightblue" points="837.36,-182.92 845.81,-176.53 835.22,-176.26 837.36,-182.92"/>
</g>
<!-- Node10 -->
<g id="node10" class="node">
<title>Node10</title>
<g id="a_node10"><a xlink:href="wld__wpaCtrlInterface_8c.html#a303019c3b064bd2babeb3582ecd91d7f" target="_top" xlink:title="close the wpaCtrl interface to wpa_ctrl server This function closes all relative connections (cmd and...">
<polygon fill="white" stroke="black" points="624.5,-122 624.5,-152 744.5,-152 744.5,-122 624.5,-122"/>
<text text-anchor="start" x="632.5" y="-140" font-family="Helvetica,sans-Serif" font-size="10.00">wld_wpaCtrlInterface</text>
<text text-anchor="middle" x="684.5" y="-129" font-family="Helvetica,sans-Serif" font-size="10.00">_close</text>
</a>
</g>
</g>
<!-- Node9&#45;&gt;Node10 -->
<g id="edge11" class="edge">
<title>Node9&#45;&gt;Node10</title>
<path fill="none" stroke="midnightblue" d="M805.2,-155.9C785.32,-152.76 763.9,-149.38 744.75,-146.35"/>
<polygon fill="midnightblue" stroke="midnightblue" points="804.7,-159.36 815.12,-157.47 805.79,-152.45 804.7,-159.36"/>
</g>
<!-- Node22 -->
<g id="node22" class="node">
<title>Node22</title>
<g id="a_node22"><a xlink:href="wld__wpaCtrlMngr_8c.html#ab9e3aeaefd21ef085fcd3443ef111291" target="_top" xlink:title="start connecting to wpa_ctrl server">
<polygon fill="white" stroke="black" points="612,-83.5 612,-102.5 757,-102.5 757,-83.5 612,-83.5"/>
<text text-anchor="middle" x="684.5" y="-90.5" font-family="Helvetica,sans-Serif" font-size="10.00">wld_wpaCtrlMngr_connect</text>
</a>
</g>
</g>
<!-- Node9&#45;&gt;Node22 -->
<g id="edge23" class="edge">
<title>Node9&#45;&gt;Node22</title>
<path fill="none" stroke="midnightblue" d="M847.9,-152.94C824.2,-141.24 788.92,-124.66 757,-113 746.35,-109.11 734.57,-105.53 723.7,-102.51"/>
<polygon fill="midnightblue" stroke="midnightblue" points="846.48,-156.15 856.99,-157.48 849.61,-149.89 846.48,-156.15"/>
</g>
<!-- Node11 -->
<g id="node11" class="node">
<title>Node11</title>
<g id="a_node11"><a xlink:href="wld__wpaCtrlInterface_8c.html#a78b74c321f958dec1e833a1c6b275eae" target="_top" xlink:title=" ">
<polygon fill="white" stroke="black" points="419,-164 419,-194 539,-194 539,-164 419,-164"/>
<text text-anchor="start" x="427" y="-182" font-family="Helvetica,sans-Serif" font-size="10.00">wld_wpaCtrlInterface</text>
<text text-anchor="middle" x="479" y="-171" font-family="Helvetica,sans-Serif" font-size="10.00">_cleanup</text>
</a>
</g>
</g>
<!-- Node10&#45;&gt;Node11 -->
<g id="edge12" class="edge">
<title>Node10&#45;&gt;Node11</title>
<path fill="none" stroke="midnightblue" d="M614.45,-151.25C590.04,-156.29 562.81,-161.91 539.28,-166.77"/>
<polygon fill="midnightblue" stroke="midnightblue" points="615.28,-154.65 624.37,-149.2 613.86,-147.8 615.28,-154.65"/>
</g>
<!-- Node12 -->
<g id="node12" class="node">
<title>Node12</title>
<g id="a_node12"><a xlink:href="wld__wpaCtrlInterface_8c.html#a459412143928ed22bca8796394d85ada" target="_top" xlink:title=" ">
<polygon fill="white" stroke="black" points="419,-115 419,-145 539,-145 539,-115 419,-115"/>
<text text-anchor="start" x="427" y="-133" font-family="Helvetica,sans-Serif" font-size="10.00">wld_wpaCtrlInterface</text>
<text text-anchor="middle" x="479" y="-122" font-family="Helvetica,sans-Serif" font-size="10.00">_setConnectionInfo</text>
</a>
</g>
</g>
<!-- Node10&#45;&gt;Node12 -->
<g id="edge13" class="edge">
<title>Node10&#45;&gt;Node12</title>
<path fill="none" stroke="midnightblue" d="M614.13,-134.61C589.8,-133.78 562.71,-132.85 539.28,-132.04"/>
<polygon fill="midnightblue" stroke="midnightblue" points="614.25,-138.12 624.37,-134.97 614.49,-131.12 614.25,-138.12"/>
</g>
<!-- Node15 -->
<g id="node15" class="node">
<title>Node15</title>
<g id="a_node15"><a xlink:href="wld__wpaCtrlMngr_8c.html#a703dcb69cf5fbbf2473edf3505b12ca1" target="_top" xlink:title=" ">
<polygon fill="white" stroke="black" points="406.5,-76.5 406.5,-95.5 551.5,-95.5 551.5,-76.5 406.5,-76.5"/>
<text text-anchor="middle" x="479" y="-83.5" font-family="Helvetica,sans-Serif" font-size="10.00">wld_wpaCtrlMngr_cleanup</text>
</a>
</g>
</g>
<!-- Node10&#45;&gt;Node15 -->
<g id="edge16" class="edge">
<title>Node10&#45;&gt;Node15</title>
<path fill="none" stroke="midnightblue" d="M624.16,-119.02C608.56,-114.53 591.7,-109.89 576,-106 560.96,-102.27 544.49,-98.67 529.49,-95.57"/>
<polygon fill="midnightblue" stroke="midnightblue" points="623.63,-122.51 634.21,-121.94 625.58,-115.79 623.63,-122.51"/>
</g>
<!-- Node18 -->
<g id="node18" class="node">
<title>Node18</title>
<g id="a_node18"><a xlink:href="wld__wpaCtrlMngr_8c.html#a65f1d3c48476ca6584852b18fc80b2d9" target="_top" xlink:title="disconnect from wpa_ctrl server">
<polygon fill="white" stroke="black" points="399.5,-38.5 399.5,-57.5 558.5,-57.5 558.5,-38.5 399.5,-38.5"/>
<text text-anchor="middle" x="479" y="-45.5" font-family="Helvetica,sans-Serif" font-size="10.00">wld_wpaCtrlMngr_disconnect</text>
</a>
</g>
</g>
<!-- Node10&#45;&gt;Node18 -->
<g id="edge19" class="edge">
<title>Node10&#45;&gt;Node18</title>
<path fill="none" stroke="midnightblue" d="M620.47,-117.31C617.52,-115.67 614.68,-113.9 612,-112 591.1,-97.2 597.89,-80.29 576,-67 569.61,-63.12 562.58,-60.01 555.32,-57.53"/>
<polygon fill="midnightblue" stroke="midnightblue" points="619.03,-120.51 629.54,-121.87 622.18,-114.25 619.03,-120.51"/>
</g>
<!-- Node13 -->
<g id="node13" class="node">
<title>Node13</title>
<g id="a_node13"><a xlink:href="wld__wpaCtrlInterface_8c.html#a6024f927e9325cb624243ab3ada19169" target="_top" xlink:title=" ">
<polygon fill="white" stroke="black" points="206.5,-115 206.5,-145 326.5,-145 326.5,-115 206.5,-115"/>
<text text-anchor="start" x="214.5" y="-133" font-family="Helvetica,sans-Serif" font-size="10.00">wld_wpaCtrlInterface</text>
<text text-anchor="middle" x="266.5" y="-122" font-family="Helvetica,sans-Serif" font-size="10.00">_initWithSockName</text>
</a>
</g>
</g>
<!-- Node12&#45;&gt;Node13 -->
<g id="edge14" class="edge">
<title>Node12&#45;&gt;Node13</title>
<path fill="none" stroke="midnightblue" d="M408.45,-130C381.96,-130 352.05,-130 326.62,-130"/>
<polygon fill="midnightblue" stroke="midnightblue" points="408.8,-133.5 418.8,-130 408.8,-126.5 408.8,-133.5"/>
</g>
<!-- Node14 -->
<g id="node14" class="node">
<title>Node14</title>
<g id="a_node14"><a xlink:href="wld__wpaCtrlInterface_8c.html#ab633f391100bfb48cab0bb515fd4e908" target="_top" xlink:title=" ">
<polygon fill="white" stroke="black" points="5,-120.5 5,-139.5 146,-139.5 146,-120.5 5,-120.5"/>
<text text-anchor="middle" x="75.5" y="-127.5" font-family="Helvetica,sans-Serif" font-size="10.00">wld_wpaCtrlInterface_init</text>
</a>
</g>
</g>
<!-- Node13&#45;&gt;Node14 -->
<g id="edge15" class="edge">
<title>Node13&#45;&gt;Node14</title>
<path fill="none" stroke="midnightblue" d="M196.47,-130C180.13,-130 162.7,-130 146.33,-130"/>
<polygon fill="midnightblue" stroke="midnightblue" points="196.48,-133.5 206.48,-130 196.48,-126.5 196.48,-133.5"/>
</g>
<!-- Node16 -->
<g id="node16" class="node">
<title>Node16</title>
<g id="a_node16"><a xlink:href="wld__secDmn_8c.html#a6bf723465724da6f8b5fa5b8ddddf66f" target="_top" xlink:title=" ">
<polygon fill="white" stroke="black" points="205.5,-76.5 205.5,-95.5 327.5,-95.5 327.5,-76.5 205.5,-76.5"/>
<text text-anchor="middle" x="266.5" y="-83.5" font-family="Helvetica,sans-Serif" font-size="10.00">wld_secDmn_cleanup</text>
</a>
</g>
</g>
<!-- Node15&#45;&gt;Node16 -->
<g id="edge17" class="edge">
<title>Node15&#45;&gt;Node16</title>
<path fill="none" stroke="midnightblue" d="M396.4,-86C373.51,-86 349.04,-86 327.65,-86"/>
<polygon fill="midnightblue" stroke="midnightblue" points="396.44,-89.5 406.44,-86 396.44,-82.5 396.44,-89.5"/>
</g>
<!-- Node17 -->
<g id="node17" class="node">
<title>Node17</title>
<g id="a_node17"><a xlink:href="wifiGen__hapd_8c.html#af643558a6f2cae8f916cc925a5654667" target="_top" xlink:title=" ">
<polygon fill="white" stroke="black" points="12.5,-76.5 12.5,-95.5 138.5,-95.5 138.5,-76.5 12.5,-76.5"/>
<text text-anchor="middle" x="75.5" y="-83.5" font-family="Helvetica,sans-Serif" font-size="10.00">wifiGen_hapd_cleanup</text>
</a>
</g>
</g>
<!-- Node16&#45;&gt;Node17 -->
<g id="edge18" class="edge">
<title>Node16&#45;&gt;Node17</title>
<path fill="none" stroke="midnightblue" d="M195.28,-86C176.71,-86 156.8,-86 138.68,-86"/>
<polygon fill="midnightblue" stroke="midnightblue" points="195.44,-89.5 205.44,-86 195.44,-82.5 195.44,-89.5"/>
</g>
<!-- Node19 -->
<g id="node19" class="node">
<title>Node19</title>
<g id="a_node19"><a xlink:href="wld__secDmn_8c.html#a04e473c6a2f624f5ee15a91d36ca56db" target="_top" xlink:title=" ">
<polygon fill="white" stroke="black" points="202,-38.5 202,-57.5 331,-57.5 331,-38.5 202,-38.5"/>
<text text-anchor="middle" x="266.5" y="-45.5" font-family="Helvetica,sans-Serif" font-size="10.00">wld_secDmn_restartCb</text>
</a>
</g>
</g>
<!-- Node18&#45;&gt;Node19 -->
<g id="edge20" class="edge">
<title>Node18&#45;&gt;Node19</title>
<path fill="none" stroke="midnightblue" d="M389.18,-48C369.63,-48 349.31,-48 331,-48"/>
<polygon fill="midnightblue" stroke="midnightblue" points="389.32,-51.5 399.32,-48 389.32,-44.5 389.32,-51.5"/>
</g>
<!-- Node20 -->
<g id="node20" class="node">
<title>Node20</title>
<g id="a_node20"><a xlink:href="wld__secDmn_8c.html#a161897b21440ea0885b570829da259fc" target="_top" xlink:title=" ">
<polygon fill="white" stroke="black" points="214,-0.5 214,-19.5 319,-19.5 319,-0.5 214,-0.5"/>
<text text-anchor="middle" x="266.5" y="-7.5" font-family="Helvetica,sans-Serif" font-size="10.00">wld_secDmn_stop</text>
</a>
</g>
</g>
<!-- Node18&#45;&gt;Node20 -->
<g id="edge21" class="edge">
<title>Node18&#45;&gt;Node20</title>
<path fill="none" stroke="midnightblue" d="M415.03,-36.63C384.47,-31.12 348.2,-24.57 319.28,-19.35"/>
<polygon fill="midnightblue" stroke="midnightblue" points="414.69,-40.13 425.15,-38.46 415.93,-33.24 414.69,-40.13"/>
</g>
<!-- Node21 -->
<g id="node21" class="node">
<title>Node21</title>
<g id="a_node21"><a xlink:href="wifiGen__hapd_8c.html#a75688dec0e4ad675142a71010b2b536a" target="_top" xlink:title=" ">
<polygon fill="white" stroke="black" points="0.5,-0.5 0.5,-19.5 150.5,-19.5 150.5,-0.5 0.5,-0.5"/>
<text text-anchor="middle" x="75.5" y="-7.5" font-family="Helvetica,sans-Serif" font-size="10.00">wifiGen_hapd_stopDaemon</text>
</a>
</g>
</g>
<!-- Node20&#45;&gt;Node21 -->
<g id="edge22" class="edge">
<title>Node20&#45;&gt;Node21</title>
<path fill="none" stroke="midnightblue" d="M203.57,-10C186.7,-10 168.24,-10 150.76,-10"/>
<polygon fill="midnightblue" stroke="midnightblue" points="203.85,-13.5 213.85,-10 203.85,-6.5 203.85,-13.5"/>
</g>
</g>
</svg>
