<?xml version="1.0" encoding="UTF-8" standalone="no"?>
<!DOCTYPE svg PUBLIC "-//W3C//DTD SVG 1.1//EN"
 "http://www.w3.org/Graphics/SVG/1.1/DTD/svg11.dtd">
<!-- Generated by graphviz version 2.43.0 (0)
 -->
<!-- Title: wld_wpaSupp_cfgFile_networkConfigUpdate Pages: 1 -->
<svg width="474pt" height="142pt"
 viewBox="0.00 0.00 474.00 142.00" xmlns="http://www.w3.org/2000/svg" xmlns:xlink="http://www.w3.org/1999/xlink">
<g id="graph0" class="graph" transform="scale(1 1) rotate(0) translate(4 138)">
<title>wld_wpaSupp_cfgFile_networkConfigUpdate</title>
<polygon fill="white" stroke="transparent" points="-4,4 -4,-138 470,-138 470,4 -4,4"/>
<!-- Node1 -->
<g id="node1" class="node">
<title>Node1</title>
<g id="a_node1"><a xlink:title=" ">
<polygon fill="#bfbfbf" stroke="black" points="0,-52 0,-82 128,-82 128,-52 0,-52"/>
<text text-anchor="start" x="8" y="-70" font-family="Helvetica,sans-Serif" font-size="10.00">wld_wpaSupp_cfgFile</text>
<text text-anchor="middle" x="64" y="-59" font-family="Helvetica,sans-Serif" font-size="10.00">_networkConfigUpdate</text>
</a>
</g>
</g>
<!-- Node2 -->
<g id="node2" class="node">
<title>Node2</title>
<g id="a_node2"><a xlink:href="wld__wpaSupp__cfgFile_8c.html#aa63265cf88dd4de114291ae924942393" target="_top" xlink:title="update a configuration file for the wpa_supplicant">
<polygon fill="white" stroke="black" points="164,-57.5 164,-76.5 262,-76.5 262,-57.5 164,-57.5"/>
<text text-anchor="middle" x="213" y="-64.5" font-family="Helvetica,sans-Serif" font-size="10.00">s_cfgFile_update</text>
</a>
</g>
</g>
<!-- Node1&#45;&gt;Node2 -->
<g id="edge1" class="edge">
<title>Node1&#45;&gt;Node2</title>
<path fill="none" stroke="midnightblue" d="M128.19,-67C136.71,-67 145.42,-67 153.85,-67"/>
<polygon fill="midnightblue" stroke="midnightblue" points="153.96,-70.5 163.96,-67 153.96,-63.5 153.96,-70.5"/>
</g>
<!-- Node3 -->
<g id="node3" class="node">
<title>Node3</title>
<g id="a_node3"><a xlink:href="wld__wpaSupp__cfgManager_8c.html#adce13285e3bf78e55f38489bbc5d789b" target="_top" xlink:title="add/update a key value in the config map">
<polygon fill="white" stroke="black" points="298,-114.5 298,-133.5 466,-133.5 466,-114.5 298,-114.5"/>
<text text-anchor="middle" x="382" y="-121.5" font-family="Helvetica,sans-Serif" font-size="10.00">wld_wpaSupp_addConfigParam</text>
</a>
</g>
</g>
<!-- Node2&#45;&gt;Node3 -->
<g id="edge2" class="edge">
<title>Node2&#45;&gt;Node3</title>
<path fill="none" stroke="midnightblue" d="M232.25,-76.54C248.99,-84.98 274.64,-97.13 298,-105 305.67,-107.58 313.85,-109.93 321.98,-112.02"/>
<polygon fill="midnightblue" stroke="midnightblue" points="321.28,-115.46 331.83,-114.45 322.96,-108.66 321.28,-115.46"/>
</g>
<!-- Node4 -->
<g id="node4" class="node">
<title>Node4</title>
<g id="a_node4"><a xlink:href="wld__wpaSupp__cfgManager_8c.html#ac65fa7dbd9118ae5d2cd2abb64f93f5f" target="_top" xlink:title="delete a wld_wpaSupp_config_t map already loaded from wpa_supplicant file">
<polygon fill="white" stroke="black" points="307,-76.5 307,-95.5 457,-95.5 457,-76.5 307,-76.5"/>
<text text-anchor="middle" x="382" y="-83.5" font-family="Helvetica,sans-Serif" font-size="10.00">wld_wpaSupp_deleteConfig</text>
</a>
</g>
</g>
<!-- Node2&#45;&gt;Node4 -->
<g id="edge3" class="edge">
<title>Node2&#45;&gt;Node4</title>
<path fill="none" stroke="midnightblue" d="M262.3,-72.5C273.03,-73.72 284.71,-75.04 296.42,-76.38"/>
<polygon fill="midnightblue" stroke="midnightblue" points="296.36,-79.89 306.69,-77.55 297.15,-72.94 296.36,-79.89"/>
</g>
<!-- Node5 -->
<g id="node5" class="node">
<title>Node5</title>
<g id="a_node5"><a xlink:href="wld__wpaSupp__cfgManager_8c.html#a92bf6bc854ae4c3386781428d49c2649" target="_top" xlink:title="load the wpaSupplicant configuration from wpaSupplicant config file into wld_wpaSupp_config_t structu...">
<polygon fill="white" stroke="black" points="312,-38.5 312,-57.5 452,-57.5 452,-38.5 312,-38.5"/>
<text text-anchor="middle" x="382" y="-45.5" font-family="Helvetica,sans-Serif" font-size="10.00">wld_wpaSupp_loadConfig</text>
</a>
</g>
</g>
<!-- Node2&#45;&gt;Node5 -->
<g id="edge4" class="edge">
<title>Node2&#45;&gt;Node5</title>
<path fill="none" stroke="midnightblue" d="M262.3,-61.5C274.66,-60.1 288.28,-58.55 301.75,-57.02"/>
<polygon fill="midnightblue" stroke="midnightblue" points="302.46,-60.46 312,-55.85 301.67,-53.5 302.46,-60.46"/>
</g>
<!-- Node6 -->
<g id="node6" class="node">
<title>Node6</title>
<g id="a_node6"><a xlink:href="wld__wpaSupp__cfgManager_8c.html#a031cf2e90d4dc6f274675702c5aca707" target="_top" xlink:title="write the content of wpaSupp_config_t into a file">
<polygon fill="white" stroke="black" points="310,-0.5 310,-19.5 454,-19.5 454,-0.5 310,-0.5"/>
<text text-anchor="middle" x="382" y="-7.5" font-family="Helvetica,sans-Serif" font-size="10.00">wld_wpaSupp_writeConfig</text>
</a>
</g>
</g>
<!-- Node2&#45;&gt;Node6 -->
<g id="edge5" class="edge">
<title>Node2&#45;&gt;Node6</title>
<path fill="none" stroke="midnightblue" d="M232.25,-57.46C248.99,-49.02 274.64,-36.87 298,-29 305.67,-26.42 313.85,-24.07 321.98,-21.98"/>
<polygon fill="midnightblue" stroke="midnightblue" points="322.96,-25.34 331.83,-19.55 321.28,-18.54 322.96,-25.34"/>
</g>
</g>
</svg>
