<?xml version="1.0" encoding="UTF-8" standalone="no"?>
<!DOCTYPE svg PUBLIC "-//W3C//DTD SVG 1.1//EN"
 "http://www.w3.org/Graphics/SVG/1.1/DTD/svg11.dtd">
<!-- Generated by graphviz version 2.43.0 (0)
 -->
<!-- Title: src/Utils/wld_extMod.c Pages: 1 -->
<svg width="347pt" height="140pt"
 viewBox="0.00 0.00 346.50 140.00" xmlns="http://www.w3.org/2000/svg" xmlns:xlink="http://www.w3.org/1999/xlink">
<g id="graph0" class="graph" transform="scale(1 1) rotate(0) translate(4 136)">
<title>src/Utils/wld_extMod.c</title>
<polygon fill="white" stroke="transparent" points="-4,4 -4,-136 342.5,-136 342.5,4 -4,4"/>
<!-- Node1 -->
<g id="node1" class="node">
<title>Node1</title>
<g id="a_node1"><a xlink:title=" ">
<polygon fill="#bfbfbf" stroke="black" points="55,-112.5 55,-131.5 182,-131.5 182,-112.5 55,-112.5"/>
<text text-anchor="middle" x="118.5" y="-119.5" font-family="Helvetica,sans-Serif" font-size="10.00">src/Utils/wld_extMod.c</text>
</a>
</g>
</g>
<!-- Node2 -->
<g id="node2" class="node">
<title>Node2</title>
<g id="a_node2"><a xlink:title=" ">
<polygon fill="white" stroke="#bfbfbf" points="0,-56.5 0,-75.5 53,-75.5 53,-56.5 0,-56.5"/>
<text text-anchor="middle" x="26.5" y="-63.5" font-family="Helvetica,sans-Serif" font-size="10.00">stdlib.h</text>
</a>
</g>
</g>
<!-- Node1&#45;&gt;Node2 -->
<g id="edge1" class="edge">
<title>Node1&#45;&gt;Node2</title>
<path fill="none" stroke="midnightblue" d="M103.72,-112.32C89.23,-103.82 66.93,-90.73 50.01,-80.8"/>
<polygon fill="midnightblue" stroke="midnightblue" points="51.64,-77.7 41.24,-75.65 48.1,-83.74 51.64,-77.7"/>
</g>
<!-- Node3 -->
<g id="node3" class="node">
<title>Node3</title>
<g id="a_node3"><a xlink:title=" ">
<polygon fill="white" stroke="#bfbfbf" points="71,-56.5 71,-75.5 166,-75.5 166,-56.5 71,-56.5"/>
<text text-anchor="middle" x="118.5" y="-63.5" font-family="Helvetica,sans-Serif" font-size="10.00">swl/swl_string.h</text>
</a>
</g>
</g>
<!-- Node1&#45;&gt;Node3 -->
<g id="edge2" class="edge">
<title>Node1&#45;&gt;Node3</title>
<path fill="none" stroke="midnightblue" d="M118.5,-112.08C118.5,-105.01 118.5,-94.86 118.5,-85.99"/>
<polygon fill="midnightblue" stroke="midnightblue" points="122,-85.75 118.5,-75.75 115,-85.75 122,-85.75"/>
</g>
<!-- Node4 -->
<g id="node4" class="node">
<title>Node4</title>
<g id="a_node4"><a xlink:href="wld__extMod_8h.html" target="_top" xlink:title=" ">
<polygon fill="white" stroke="black" points="184,-56.5 184,-75.5 269,-75.5 269,-56.5 184,-56.5"/>
<text text-anchor="middle" x="226.5" y="-63.5" font-family="Helvetica,sans-Serif" font-size="10.00">wld_extMod.h</text>
</a>
</g>
</g>
<!-- Node1&#45;&gt;Node4 -->
<g id="edge3" class="edge">
<title>Node1&#45;&gt;Node4</title>
<path fill="none" stroke="midnightblue" d="M135.85,-112.32C153.17,-103.66 180.02,-90.24 200,-80.25"/>
<polygon fill="midnightblue" stroke="midnightblue" points="201.81,-83.26 209.19,-75.65 198.68,-77 201.81,-83.26"/>
</g>
<!-- Node5 -->
<g id="node5" class="node">
<title>Node5</title>
<g id="a_node5"><a xlink:title=" ">
<polygon fill="white" stroke="#bfbfbf" points="127,-0.5 127,-19.5 210,-19.5 210,-0.5 127,-0.5"/>
<text text-anchor="middle" x="168.5" y="-7.5" font-family="Helvetica,sans-Serif" font-size="10.00">amxc/amxc.h</text>
</a>
</g>
</g>
<!-- Node4&#45;&gt;Node5 -->
<g id="edge4" class="edge">
<title>Node4&#45;&gt;Node5</title>
<path fill="none" stroke="midnightblue" d="M217.18,-56.32C208.61,-48.34 195.69,-36.31 185.31,-26.65"/>
<polygon fill="midnightblue" stroke="midnightblue" points="187.69,-24.09 177.99,-19.83 182.92,-29.21 187.69,-24.09"/>
</g>
<!-- Node6 -->
<g id="node6" class="node">
<title>Node6</title>
<g id="a_node6"><a xlink:title=" ">
<polygon fill="white" stroke="#bfbfbf" points="228.5,-0.5 228.5,-19.5 338.5,-19.5 338.5,-0.5 228.5,-0.5"/>
<text text-anchor="middle" x="283.5" y="-7.5" font-family="Helvetica,sans-Serif" font-size="10.00">swl/swl_common.h</text>
</a>
</g>
</g>
<!-- Node4&#45;&gt;Node6 -->
<g id="edge5" class="edge">
<title>Node4&#45;&gt;Node6</title>
<path fill="none" stroke="midnightblue" d="M235.66,-56.32C244,-48.42 256.53,-36.55 266.68,-26.94"/>
<polygon fill="midnightblue" stroke="midnightblue" points="269.32,-29.25 274.18,-19.83 264.51,-24.17 269.32,-29.25"/>
</g>
</g>
</svg>
