<?xml version="1.0" encoding="UTF-8" standalone="no"?>
<!DOCTYPE svg PUBLIC "-//W3C//DTD SVG 1.1//EN"
 "http://www.w3.org/Graphics/SVG/1.1/DTD/svg11.dtd">
<!-- Generated by graphviz version 2.43.0 (0)
 -->
<!-- Title: wld_dmn_cleanupDaemon Pages: 1 -->
<svg width="826pt" height="66pt"
 viewBox="0.00 0.00 826.00 66.00" xmlns="http://www.w3.org/2000/svg" xmlns:xlink="http://www.w3.org/1999/xlink">
<g id="graph0" class="graph" transform="scale(1 1) rotate(0) translate(4 62)">
<title>wld_dmn_cleanupDaemon</title>
<polygon fill="white" stroke="transparent" points="-4,4 -4,-62 822,-62 822,4 -4,4"/>
<!-- Node1 -->
<g id="node1" class="node">
<title>Node1</title>
<g id="a_node1"><a xlink:title=" ">
<polygon fill="#bfbfbf" stroke="black" points="672,-19.5 672,-38.5 818,-38.5 818,-19.5 672,-19.5"/>
<text text-anchor="middle" x="745" y="-26.5" font-family="Helvetica,sans-Serif" font-size="10.00">wld_dmn_cleanupDaemon</text>
</a>
</g>
</g>
<!-- Node2 -->
<g id="node2" class="node">
<title>Node2</title>
<g id="a_node2"><a xlink:href="wld__daemon_8c.html#adc1404b6fec8fdf62a05025d82440f64" target="_top" xlink:title=" ">
<polygon fill="white" stroke="black" points="495,-38.5 495,-57.5 633,-57.5 633,-38.5 495,-38.5"/>
<text text-anchor="middle" x="564" y="-45.5" font-family="Helvetica,sans-Serif" font-size="10.00">wld_dmn_createDeamon</text>
</a>
</g>
</g>
<!-- Node1&#45;&gt;Node2 -->
<g id="edge1" class="edge">
<title>Node1&#45;&gt;Node2</title>
<path fill="none" stroke="midnightblue" d="M661.97,-37.71C652.32,-38.73 642.55,-39.77 633.11,-40.77"/>
<polygon fill="midnightblue" stroke="midnightblue" points="662.39,-41.18 671.97,-36.65 661.65,-34.22 662.39,-41.18"/>
</g>
<!-- Node6 -->
<g id="node6" class="node">
<title>Node6</title>
<g id="a_node6"><a xlink:href="wld__daemon_8c.html#a17603235fe716db48dd549fbb8ddf8c0" target="_top" xlink:title=" ">
<polygon fill="white" stroke="black" points="492,-0.5 492,-19.5 636,-19.5 636,-0.5 492,-0.5"/>
<text text-anchor="middle" x="564" y="-7.5" font-family="Helvetica,sans-Serif" font-size="10.00">wld_dmn_destroyDeamon</text>
</a>
</g>
</g>
<!-- Node1&#45;&gt;Node6 -->
<g id="edge5" class="edge">
<title>Node1&#45;&gt;Node6</title>
<path fill="none" stroke="midnightblue" d="M661.89,-20.28C653.25,-19.37 644.51,-18.44 636.01,-17.54"/>
<polygon fill="midnightblue" stroke="midnightblue" points="661.65,-23.78 671.97,-21.35 662.39,-16.82 661.65,-23.78"/>
</g>
<!-- Node3 -->
<g id="node3" class="node">
<title>Node3</title>
<g id="a_node3"><a xlink:href="wld__secDmn_8c.html#af0544dc7e9cc28cc7590bcbb6f6ad4ce" target="_top" xlink:title=" ">
<polygon fill="white" stroke="black" points="345,-38.5 345,-57.5 445,-57.5 445,-38.5 345,-38.5"/>
<text text-anchor="middle" x="395" y="-45.5" font-family="Helvetica,sans-Serif" font-size="10.00">wld_secDmn_init</text>
</a>
</g>
</g>
<!-- Node2&#45;&gt;Node3 -->
<g id="edge2" class="edge">
<title>Node2&#45;&gt;Node3</title>
<path fill="none" stroke="midnightblue" d="M484.41,-48C471.03,-48 457.48,-48 445.14,-48"/>
<polygon fill="midnightblue" stroke="midnightblue" points="484.59,-51.5 494.59,-48 484.59,-44.5 484.59,-51.5"/>
</g>
<!-- Node4 -->
<g id="node4" class="node">
<title>Node4</title>
<g id="a_node4"><a xlink:href="wifiGen__hapd_8c.html#a3e280a7de79155551d8dcf12b517bdc3" target="_top" xlink:title=" ">
<polygon fill="white" stroke="black" points="183,-38.5 183,-57.5 287,-57.5 287,-38.5 183,-38.5"/>
<text text-anchor="middle" x="235" y="-45.5" font-family="Helvetica,sans-Serif" font-size="10.00">wifiGen_hapd_init</text>
</a>
</g>
</g>
<!-- Node3&#45;&gt;Node4 -->
<g id="edge3" class="edge">
<title>Node3&#45;&gt;Node4</title>
<path fill="none" stroke="midnightblue" d="M334.74,-48C319.04,-48 302.23,-48 287.01,-48"/>
<polygon fill="midnightblue" stroke="midnightblue" points="334.87,-51.5 344.87,-48 334.87,-44.5 334.87,-51.5"/>
</g>
<!-- Node5 -->
<g id="node5" class="node">
<title>Node5</title>
<g id="a_node5"><a xlink:href="wifiGen__rad_8c.html#a22779d44a0417c824f5a4d4024a0a0c0" target="_top" xlink:title=" ">
<polygon fill="white" stroke="black" points="0,-38.5 0,-57.5 136,-57.5 136,-38.5 0,-38.5"/>
<text text-anchor="middle" x="68" y="-45.5" font-family="Helvetica,sans-Serif" font-size="10.00">wifiGen_rad_createHook</text>
</a>
</g>
</g>
<!-- Node4&#45;&gt;Node5 -->
<g id="edge4" class="edge">
<title>Node4&#45;&gt;Node5</title>
<path fill="none" stroke="midnightblue" d="M172.45,-48C160.58,-48 148.09,-48 136.06,-48"/>
<polygon fill="midnightblue" stroke="midnightblue" points="172.7,-51.5 182.7,-48 172.7,-44.5 172.7,-51.5"/>
</g>
<!-- Node7 -->
<g id="node7" class="node">
<title>Node7</title>
<g id="a_node7"><a xlink:href="wld__secDmn_8c.html#a6bf723465724da6f8b5fa5b8ddddf66f" target="_top" xlink:title=" ">
<polygon fill="white" stroke="black" points="334,-0.5 334,-19.5 456,-19.5 456,-0.5 334,-0.5"/>
<text text-anchor="middle" x="395" y="-7.5" font-family="Helvetica,sans-Serif" font-size="10.00">wld_secDmn_cleanup</text>
</a>
</g>
</g>
<!-- Node6&#45;&gt;Node7 -->
<g id="edge6" class="edge">
<title>Node6&#45;&gt;Node7</title>
<path fill="none" stroke="midnightblue" d="M481.61,-10C472.99,-10 464.35,-10 456.03,-10"/>
<polygon fill="midnightblue" stroke="midnightblue" points="481.69,-13.5 491.69,-10 481.69,-6.5 481.69,-13.5"/>
</g>
<!-- Node8 -->
<g id="node8" class="node">
<title>Node8</title>
<g id="a_node8"><a xlink:href="wifiGen__hapd_8c.html#af643558a6f2cae8f916cc925a5654667" target="_top" xlink:title=" ">
<polygon fill="white" stroke="black" points="172,-0.5 172,-19.5 298,-19.5 298,-0.5 172,-0.5"/>
<text text-anchor="middle" x="235" y="-7.5" font-family="Helvetica,sans-Serif" font-size="10.00">wifiGen_hapd_cleanup</text>
</a>
</g>
</g>
<!-- Node7&#45;&gt;Node8 -->
<g id="edge7" class="edge">
<title>Node7&#45;&gt;Node8</title>
<path fill="none" stroke="midnightblue" d="M323.56,-10C315.08,-10 306.47,-10 298.11,-10"/>
<polygon fill="midnightblue" stroke="midnightblue" points="323.82,-13.5 333.82,-10 323.82,-6.5 323.82,-13.5"/>
</g>
</g>
</svg>
