<?xml version="1.0" encoding="UTF-8" standalone="no"?>
<!DOCTYPE svg PUBLIC "-//W3C//DTD SVG 1.1//EN"
 "http://www.w3.org/Graphics/SVG/1.1/DTD/svg11.dtd">
<!-- Generated by graphviz version 2.43.0 (0)
 -->
<!-- Title: wld_endpoint_validate_profile Pages: 1 -->
<svg width="366pt" height="104pt"
 viewBox="0.00 0.00 366.00 104.00" xmlns="http://www.w3.org/2000/svg" xmlns:xlink="http://www.w3.org/1999/xlink">
<g id="graph0" class="graph" transform="scale(1 1) rotate(0) translate(4 100)">
<title>wld_endpoint_validate_profile</title>
<polygon fill="white" stroke="transparent" points="-4,4 -4,-100 362,-100 362,4 -4,4"/>
<!-- Node1 -->
<g id="node1" class="node">
<title>Node1</title>
<g id="a_node1"><a xlink:title="wld_endpoint_validate_profile">
<polygon fill="#bfbfbf" stroke="black" points="0,-33 0,-63 127,-63 127,-33 0,-33"/>
<text text-anchor="start" x="8" y="-51" font-family="Helvetica,sans-Serif" font-size="10.00">wld_endpoint_validate</text>
<text text-anchor="middle" x="63.5" y="-40" font-family="Helvetica,sans-Serif" font-size="10.00">_profile</text>
</a>
</g>
</g>
<!-- Node2 -->
<g id="node2" class="node">
<title>Node2</title>
<g id="a_node2"><a xlink:href="wld__util_8c.html#ab1c3bc5bfee662b50fee6f27eb33f636" target="_top" xlink:title=" ">
<polygon fill="white" stroke="black" points="164.5,-76.5 164.5,-95.5 250.5,-95.5 250.5,-76.5 164.5,-76.5"/>
<text text-anchor="middle" x="207.5" y="-83.5" font-family="Helvetica,sans-Serif" font-size="10.00">isValidAESKey</text>
</a>
</g>
</g>
<!-- Node1&#45;&gt;Node2 -->
<g id="edge1" class="edge">
<title>Node1&#45;&gt;Node2</title>
<path fill="none" stroke="midnightblue" d="M120.62,-63.02C133.96,-66.59 148.03,-70.35 160.83,-73.78"/>
<polygon fill="midnightblue" stroke="midnightblue" points="160.22,-77.24 170.79,-76.44 162.03,-70.48 160.22,-77.24"/>
</g>
<!-- Node4 -->
<g id="node4" class="node">
<title>Node4</title>
<g id="a_node4"><a xlink:href="wld__util_8c.html#a4f13d57f6243ec98cbc4d391f3cd335e" target="_top" xlink:title=" ">
<polygon fill="white" stroke="black" points="164.5,-38.5 164.5,-57.5 250.5,-57.5 250.5,-38.5 164.5,-38.5"/>
<text text-anchor="middle" x="207.5" y="-45.5" font-family="Helvetica,sans-Serif" font-size="10.00">isValidPSKKey</text>
</a>
</g>
</g>
<!-- Node1&#45;&gt;Node4 -->
<g id="edge3" class="edge">
<title>Node1&#45;&gt;Node4</title>
<path fill="none" stroke="midnightblue" d="M127.2,-48C136.17,-48 145.32,-48 154.06,-48"/>
<polygon fill="midnightblue" stroke="midnightblue" points="154.11,-51.5 164.11,-48 154.11,-44.5 154.11,-51.5"/>
</g>
<!-- Node5 -->
<g id="node5" class="node">
<title>Node5</title>
<g id="a_node5"><a xlink:href="wld__util_8c.html#a7305b881548a80f65506291b6ef6afb3" target="_top" xlink:title=" ">
<polygon fill="white" stroke="black" points="163,-0.5 163,-19.5 252,-19.5 252,-0.5 163,-0.5"/>
<text text-anchor="middle" x="207.5" y="-7.5" font-family="Helvetica,sans-Serif" font-size="10.00">isValidWEPKey</text>
</a>
</g>
</g>
<!-- Node1&#45;&gt;Node5 -->
<g id="edge4" class="edge">
<title>Node1&#45;&gt;Node5</title>
<path fill="none" stroke="midnightblue" d="M120.62,-32.98C133.96,-29.41 148.03,-25.65 160.83,-22.22"/>
<polygon fill="midnightblue" stroke="midnightblue" points="162.03,-25.52 170.79,-19.56 160.22,-18.76 162.03,-25.52"/>
</g>
<!-- Node3 -->
<g id="node3" class="node">
<title>Node3</title>
<g id="a_node3"><a xlink:href="wld__util_8c.html#a2d5b061595a121996db8996ad85a9d50" target="_top" xlink:title=" ">
<polygon fill="white" stroke="black" points="288,-76.5 288,-95.5 358,-95.5 358,-76.5 288,-76.5"/>
<text text-anchor="middle" x="323" y="-83.5" font-family="Helvetica,sans-Serif" font-size="10.00">isSanitized</text>
</a>
</g>
</g>
<!-- Node2&#45;&gt;Node3 -->
<g id="edge2" class="edge">
<title>Node2&#45;&gt;Node3</title>
<path fill="none" stroke="midnightblue" d="M250.76,-86C259.55,-86 268.84,-86 277.7,-86"/>
<polygon fill="midnightblue" stroke="midnightblue" points="277.85,-89.5 287.85,-86 277.85,-82.5 277.85,-89.5"/>
</g>
</g>
</svg>
