<?xml version="1.0" encoding="UTF-8" standalone="no"?>
<!DOCTYPE svg PUBLIC "-//W3C//DTD SVG 1.1//EN"
 "http://www.w3.org/Graphics/SVG/1.1/DTD/svg11.dtd">
<!-- Generated by graphviz version 2.43.0 (0)
 -->
<!-- Title: src/ApMgt/wld_ap_security.c Pages: 1 -->
<svg width="4397pt" height="364pt"
 viewBox="0.00 0.00 4397.00 364.00" xmlns="http://www.w3.org/2000/svg" xmlns:xlink="http://www.w3.org/1999/xlink">
<g id="graph0" class="graph" transform="scale(1 1) rotate(0) translate(4 360)">
<title>src/ApMgt/wld_ap_security.c</title>
<polygon fill="white" stroke="transparent" points="-4,4 -4,-360 4393,-360 4393,4 -4,4"/>
<!-- Node1 -->
<g id="node1" class="node">
<title>Node1</title>
<g id="a_node1"><a xlink:title=" ">
<polygon fill="#bfbfbf" stroke="black" points="1956.5,-336.5 1956.5,-355.5 2110.5,-355.5 2110.5,-336.5 1956.5,-336.5"/>
<text text-anchor="middle" x="2033.5" y="-343.5" font-family="Helvetica,sans-Serif" font-size="10.00">src/ApMgt/wld_ap_security.c</text>
</a>
</g>
</g>
<!-- Node2 -->
<g id="node2" class="node">
<title>Node2</title>
<g id="a_node2"><a xlink:title=" ">
<polygon fill="white" stroke="#bfbfbf" points="1457.5,-280.5 1457.5,-299.5 1507.5,-299.5 1507.5,-280.5 1457.5,-280.5"/>
<text text-anchor="middle" x="1482.5" y="-287.5" font-family="Helvetica,sans-Serif" font-size="10.00">stdio.h</text>
</a>
</g>
</g>
<!-- Node1&#45;&gt;Node2 -->
<g id="edge1" class="edge">
<title>Node1&#45;&gt;Node2</title>
<path fill="none" stroke="midnightblue" d="M1956.32,-342.42C1856.88,-338.18 1678.65,-327.45 1517.73,-299.92"/>
<polygon fill="midnightblue" stroke="midnightblue" points="1518.1,-296.43 1507.64,-298.17 1516.9,-303.33 1518.1,-296.43"/>
</g>
<!-- Node3 -->
<g id="node3" class="node">
<title>Node3</title>
<g id="a_node3"><a xlink:title=" ">
<polygon fill="white" stroke="#bfbfbf" points="1526,-280.5 1526,-299.5 1579,-299.5 1579,-280.5 1526,-280.5"/>
<text text-anchor="middle" x="1552.5" y="-287.5" font-family="Helvetica,sans-Serif" font-size="10.00">stdlib.h</text>
</a>
</g>
</g>
<!-- Node1&#45;&gt;Node3 -->
<g id="edge2" class="edge">
<title>Node1&#45;&gt;Node3</title>
<path fill="none" stroke="midnightblue" d="M1956.46,-340.77C1869.35,-335.2 1723.19,-323.43 1589.2,-300.07"/>
<polygon fill="midnightblue" stroke="midnightblue" points="1589.62,-296.59 1579.16,-298.3 1588.4,-303.49 1589.62,-296.59"/>
</g>
<!-- Node4 -->
<g id="node4" class="node">
<title>Node4</title>
<g id="a_node4"><a xlink:title=" ">
<polygon fill="white" stroke="#bfbfbf" points="1597,-280.5 1597,-299.5 1650,-299.5 1650,-280.5 1597,-280.5"/>
<text text-anchor="middle" x="1623.5" y="-287.5" font-family="Helvetica,sans-Serif" font-size="10.00">string.h</text>
</a>
</g>
</g>
<!-- Node1&#45;&gt;Node4 -->
<g id="edge3" class="edge">
<title>Node1&#45;&gt;Node4</title>
<path fill="none" stroke="midnightblue" d="M1956.2,-338.73C1882.36,-332.06 1767.84,-319.94 1660.23,-300.12"/>
<polygon fill="midnightblue" stroke="midnightblue" points="1660.64,-296.64 1650.17,-298.25 1659.36,-303.52 1660.64,-296.64"/>
</g>
<!-- Node5 -->
<g id="node5" class="node">
<title>Node5</title>
<g id="a_node5"><a xlink:title=" ">
<polygon fill="white" stroke="#bfbfbf" points="1668,-280.5 1668,-299.5 1769,-299.5 1769,-280.5 1668,-280.5"/>
<text text-anchor="middle" x="1718.5" y="-287.5" font-family="Helvetica,sans-Serif" font-size="10.00">debug/sahtrace.h</text>
</a>
</g>
</g>
<!-- Node1&#45;&gt;Node5 -->
<g id="edge4" class="edge">
<title>Node1&#45;&gt;Node5</title>
<path fill="none" stroke="midnightblue" d="M1983.59,-336.44C1927.83,-326.89 1837.61,-311.42 1778.17,-301.23"/>
<polygon fill="midnightblue" stroke="midnightblue" points="1778.63,-297.76 1768.18,-299.52 1777.44,-304.66 1778.63,-297.76"/>
</g>
<!-- Node6 -->
<g id="node6" class="node">
<title>Node6</title>
<g id="a_node6"><a xlink:title=" ">
<polygon fill="white" stroke="#bfbfbf" points="1787.5,-280.5 1787.5,-299.5 1843.5,-299.5 1843.5,-280.5 1787.5,-280.5"/>
<text text-anchor="middle" x="1815.5" y="-287.5" font-family="Helvetica,sans-Serif" font-size="10.00">assert.h</text>
</a>
</g>
</g>
<!-- Node1&#45;&gt;Node6 -->
<g id="edge5" class="edge">
<title>Node1&#45;&gt;Node6</title>
<path fill="none" stroke="midnightblue" d="M1998.96,-336.44C1959.33,-326.63 1894.57,-310.59 1853.53,-300.42"/>
<polygon fill="midnightblue" stroke="midnightblue" points="1854.19,-296.98 1843.64,-297.97 1852.51,-303.77 1854.19,-296.98"/>
</g>
<!-- Node7 -->
<g id="node7" class="node">
<title>Node7</title>
<g id="a_node7"><a xlink:href="wld_8h.html" target="_top" xlink:title=" ">
<polygon fill="white" stroke="red" points="2038,-168.5 2038,-187.5 2081,-187.5 2081,-168.5 2038,-168.5"/>
<text text-anchor="middle" x="2059.5" y="-175.5" font-family="Helvetica,sans-Serif" font-size="10.00">wld.h</text>
</a>
</g>
</g>
<!-- Node1&#45;&gt;Node7 -->
<g id="edge6" class="edge">
<title>Node1&#45;&gt;Node7</title>
<path fill="none" stroke="midnightblue" d="M2110.81,-339.17C2174.01,-329.85 2259.68,-305.82 2302.5,-244 2307.56,-236.69 2308.18,-230.83 2302.5,-224 2275.97,-192.11 2150.85,-182.72 2091.24,-180.04"/>
<polygon fill="midnightblue" stroke="midnightblue" points="2091.38,-176.54 2081.24,-179.62 2091.09,-183.53 2091.38,-176.54"/>
</g>
<!-- Node53 -->
<g id="node42" class="node">
<title>Node53</title>
<g id="a_node42"><a xlink:title=" ">
<polygon fill="white" stroke="#bfbfbf" points="4292,-112.5 4292,-131.5 4389,-131.5 4389,-112.5 4292,-112.5"/>
<text text-anchor="middle" x="4340.5" y="-119.5" font-family="Helvetica,sans-Serif" font-size="10.00">swl/swl_assert.h</text>
</a>
</g>
</g>
<!-- Node1&#45;&gt;Node53 -->
<g id="edge62" class="edge">
<title>Node1&#45;&gt;Node53</title>
<path fill="none" stroke="midnightblue" d="M2103.95,-336.48C2170.1,-328.2 2271.74,-314.73 2359.5,-300 2404.63,-292.42 2415.18,-286.31 2460.5,-280 3262.29,-168.44 3474.58,-227.85 4281.59,-132.16"/>
<polygon fill="midnightblue" stroke="midnightblue" points="4282.2,-135.61 4291.72,-130.95 4281.37,-128.66 4282.2,-135.61"/>
</g>
<!-- Node80 -->
<g id="node43" class="node">
<title>Node80</title>
<g id="a_node43"><a xlink:href="wld__util_8h.html" target="_top" xlink:title=" ">
<polygon fill="white" stroke="black" points="2349.5,-224.5 2349.5,-243.5 2413.5,-243.5 2413.5,-224.5 2349.5,-224.5"/>
<text text-anchor="middle" x="2381.5" y="-231.5" font-family="Helvetica,sans-Serif" font-size="10.00">wld_util.h</text>
</a>
</g>
</g>
<!-- Node1&#45;&gt;Node80 -->
<g id="edge48" class="edge">
<title>Node1&#45;&gt;Node80</title>
<path fill="none" stroke="midnightblue" d="M2110.6,-340.38C2187.36,-334.58 2298.87,-322.53 2335.5,-300 2353.3,-289.05 2366.11,-268.38 2373.63,-253.28"/>
<polygon fill="midnightblue" stroke="midnightblue" points="2376.94,-254.44 2377.98,-243.9 2370.59,-251.5 2376.94,-254.44"/>
</g>
<!-- Node81 -->
<g id="node44" class="node">
<title>Node81</title>
<g id="a_node44"><a xlink:href="wld__accesspoint_8h.html" target="_top" xlink:title=" ">
<polygon fill="white" stroke="red" points="1899.5,-280.5 1899.5,-299.5 2005.5,-299.5 2005.5,-280.5 1899.5,-280.5"/>
<text text-anchor="middle" x="1952.5" y="-287.5" font-family="Helvetica,sans-Serif" font-size="10.00">wld_accesspoint.h</text>
</a>
</g>
</g>
<!-- Node1&#45;&gt;Node81 -->
<g id="edge50" class="edge">
<title>Node1&#45;&gt;Node81</title>
<path fill="none" stroke="midnightblue" d="M2020.49,-336.32C2007.97,-327.98 1988.82,-315.21 1974.03,-305.35"/>
<polygon fill="midnightblue" stroke="midnightblue" points="1975.74,-302.29 1965.48,-299.65 1971.86,-308.11 1975.74,-302.29"/>
</g>
<!-- Node82 -->
<g id="node45" class="node">
<title>Node82</title>
<g id="a_node45"><a xlink:href="wld__wps_8h.html" target="_top" xlink:title=" ">
<polygon fill="white" stroke="black" points="1761.5,-224.5 1761.5,-243.5 1829.5,-243.5 1829.5,-224.5 1761.5,-224.5"/>
<text text-anchor="middle" x="1795.5" y="-231.5" font-family="Helvetica,sans-Serif" font-size="10.00">wld_wps.h</text>
</a>
</g>
</g>
<!-- Node1&#45;&gt;Node82 -->
<g id="edge59" class="edge">
<title>Node1&#45;&gt;Node82</title>
<path fill="none" stroke="midnightblue" d="M1996.22,-336.49C1966.67,-329 1924.79,-316.67 1890.5,-300 1861.95,-286.12 1832.26,-264.44 1813.83,-249.98"/>
<polygon fill="midnightblue" stroke="midnightblue" points="1815.97,-247.22 1805.97,-243.72 1811.61,-252.69 1815.97,-247.22"/>
</g>
<!-- Node83 -->
<g id="node46" class="node">
<title>Node83</title>
<g id="a_node46"><a xlink:href="wld__ssid_8h.html" target="_top" xlink:title=" ">
<polygon fill="white" stroke="black" points="1885.5,-224.5 1885.5,-243.5 1953.5,-243.5 1953.5,-224.5 1885.5,-224.5"/>
<text text-anchor="middle" x="1919.5" y="-231.5" font-family="Helvetica,sans-Serif" font-size="10.00">wld_ssid.h</text>
</a>
</g>
</g>
<!-- Node1&#45;&gt;Node83 -->
<g id="edge55" class="edge">
<title>Node1&#45;&gt;Node83</title>
<path fill="none" stroke="midnightblue" d="M2033.17,-336.37C2032.21,-322.84 2028.54,-296.46 2014.5,-280 2001.31,-264.54 1981.61,-254.01 1963.57,-247.05"/>
<polygon fill="midnightblue" stroke="midnightblue" points="1964.36,-243.62 1953.77,-243.55 1962,-250.21 1964.36,-243.62"/>
</g>
<!-- Node84 -->
<g id="node47" class="node">
<title>Node84</title>
<g id="a_node47"><a xlink:href="wld__radio_8h.html" target="_top" xlink:title=" ">
<polygon fill="white" stroke="red" points="1972,-224.5 1972,-243.5 2045,-243.5 2045,-224.5 1972,-224.5"/>
<text text-anchor="middle" x="2008.5" y="-231.5" font-family="Helvetica,sans-Serif" font-size="10.00">wld_radio.h</text>
</a>
</g>
</g>
<!-- Node1&#45;&gt;Node84 -->
<g id="edge57" class="edge">
<title>Node1&#45;&gt;Node84</title>
<path fill="none" stroke="midnightblue" d="M2038.39,-336.36C2044.89,-323.69 2054.76,-299.47 2047.5,-280 2043.33,-268.81 2034.98,-258.56 2027.08,-250.68"/>
<polygon fill="midnightblue" stroke="midnightblue" points="2029.2,-247.87 2019.49,-243.63 2024.44,-253 2029.2,-247.87"/>
</g>
<!-- Node91 -->
<g id="node48" class="node">
<title>Node91</title>
<g id="a_node48"><a xlink:href="wld__assocdev_8h.html" target="_top" xlink:title=" ">
<polygon fill="white" stroke="red" points="2063,-224.5 2063,-243.5 2156,-243.5 2156,-224.5 2063,-224.5"/>
<text text-anchor="middle" x="2109.5" y="-231.5" font-family="Helvetica,sans-Serif" font-size="10.00">wld_assocdev.h</text>
</a>
</g>
</g>
<!-- Node1&#45;&gt;Node91 -->
<g id="edge60" class="edge">
<title>Node1&#45;&gt;Node91</title>
<path fill="none" stroke="midnightblue" d="M2039.46,-336.37C2052.01,-318.22 2081.31,-275.8 2097.76,-251.99"/>
<polygon fill="midnightblue" stroke="midnightblue" points="2100.76,-253.81 2103.56,-243.59 2095,-249.83 2100.76,-253.81"/>
</g>
<!-- Node94 -->
<g id="node49" class="node">
<title>Node94</title>
<g id="a_node49"><a xlink:href="wld__ap__rssiMonitor_8h.html" target="_top" xlink:title=" ">
<polygon fill="white" stroke="black" points="2174,-224.5 2174,-243.5 2293,-243.5 2293,-224.5 2174,-224.5"/>
<text text-anchor="middle" x="2233.5" y="-231.5" font-family="Helvetica,sans-Serif" font-size="10.00">wld_ap_rssiMonitor.h</text>
</a>
</g>
</g>
<!-- Node1&#45;&gt;Node94 -->
<g id="edge63" class="edge">
<title>Node1&#45;&gt;Node94</title>
<path fill="none" stroke="midnightblue" d="M2049.19,-336.37C2083.88,-317.29 2167.28,-271.42 2208.94,-248.51"/>
<polygon fill="midnightblue" stroke="midnightblue" points="2210.8,-251.48 2217.88,-243.59 2207.43,-245.34 2210.8,-251.48"/>
</g>
<!-- Node95 -->
<g id="node50" class="node">
<title>Node95</title>
<g id="a_node50"><a xlink:href="wld__autoCommitMgr_8h.html" target="_top" xlink:title=" ">
<polygon fill="white" stroke="black" points="2469.5,-280.5 2469.5,-299.5 2621.5,-299.5 2621.5,-280.5 2469.5,-280.5"/>
<text text-anchor="middle" x="2545.5" y="-287.5" font-family="Helvetica,sans-Serif" font-size="10.00">Utils/wld_autoCommitMgr.h</text>
</a>
</g>
</g>
<!-- Node1&#45;&gt;Node95 -->
<g id="edge65" class="edge">
<title>Node1&#45;&gt;Node95</title>
<path fill="none" stroke="midnightblue" d="M2110.71,-336.86C2204.33,-326.98 2361.68,-310.39 2459.21,-300.1"/>
<polygon fill="midnightblue" stroke="midnightblue" points="2459.76,-303.56 2469.34,-299.03 2459.03,-296.6 2459.76,-303.56"/>
</g>
<!-- Node8 -->
<g id="node8" class="node">
<title>Node8</title>
<g id="a_node8"><a xlink:title=" ">
<polygon fill="white" stroke="#bfbfbf" points="4102.5,-56.5 4102.5,-75.5 4164.5,-75.5 4164.5,-56.5 4102.5,-56.5"/>
<text text-anchor="middle" x="4133.5" y="-63.5" font-family="Helvetica,sans-Serif" font-size="10.00">stdbool.h</text>
</a>
</g>
</g>
<!-- Node7&#45;&gt;Node8 -->
<g id="edge7" class="edge">
<title>Node7&#45;&gt;Node8</title>
<path fill="none" stroke="midnightblue" d="M2081.07,-176.45C2137.8,-175.01 2295.88,-171.02 2427.5,-168 2474.17,-166.93 4069.13,-158.58 4107.5,-132 4122.47,-121.63 4128.82,-101.14 4131.52,-85.92"/>
<polygon fill="midnightblue" stroke="midnightblue" points="4135.05,-85.95 4132.95,-75.57 4128.11,-84.99 4135.05,-85.95"/>
</g>
<!-- Node9 -->
<g id="node9" class="node">
<title>Node9</title>
<g id="a_node9"><a xlink:title=" ">
<polygon fill="white" stroke="#bfbfbf" points="0,-0.5 0,-19.5 53,-19.5 53,-0.5 0,-0.5"/>
<text text-anchor="middle" x="26.5" y="-7.5" font-family="Helvetica,sans-Serif" font-size="10.00">stdint.h</text>
</a>
</g>
</g>
<!-- Node7&#45;&gt;Node9 -->
<g id="edge8" class="edge">
<title>Node7&#45;&gt;Node9</title>
<path fill="none" stroke="midnightblue" d="M2037.68,-176.9C1822.36,-175.88 85.01,-166.56 45.5,-132 16.65,-106.76 19.01,-57.08 22.93,-29.88"/>
<polygon fill="midnightblue" stroke="midnightblue" points="26.43,-30.18 24.62,-19.74 19.52,-29.03 26.43,-30.18"/>
</g>
<!-- Node10 -->
<g id="node10" class="node">
<title>Node10</title>
<g id="a_node10"><a xlink:title=" ">
<polygon fill="white" stroke="#bfbfbf" points="224.5,-112.5 224.5,-131.5 334.5,-131.5 334.5,-112.5 224.5,-112.5"/>
<text text-anchor="middle" x="279.5" y="-119.5" font-family="Helvetica,sans-Serif" font-size="10.00">swl/swl_common.h</text>
</a>
</g>
</g>
<!-- Node7&#45;&gt;Node10 -->
<g id="edge9" class="edge">
<title>Node7&#45;&gt;Node10</title>
<path fill="none" stroke="midnightblue" d="M2037.81,-176.77C1865.62,-174.9 716.67,-161.49 344.85,-131.99"/>
<polygon fill="midnightblue" stroke="midnightblue" points="344.86,-128.48 334.61,-131.15 344.3,-135.45 344.86,-128.48"/>
</g>
<!-- Node11 -->
<g id="node11" class="node">
<title>Node11</title>
<g id="a_node11"><a xlink:title=" ">
<polygon fill="white" stroke="#bfbfbf" points="352.5,-112.5 352.5,-131.5 488.5,-131.5 488.5,-112.5 352.5,-112.5"/>
<text text-anchor="middle" x="420.5" y="-119.5" font-family="Helvetica,sans-Serif" font-size="10.00">swla/swla_commonLib.h</text>
</a>
</g>
</g>
<!-- Node7&#45;&gt;Node11 -->
<g id="edge10" class="edge">
<title>Node7&#45;&gt;Node11</title>
<path fill="none" stroke="midnightblue" d="M2037.89,-177.09C1900.46,-177.51 1134.21,-177.69 499.18,-132.05"/>
<polygon fill="midnightblue" stroke="midnightblue" points="499.13,-128.54 488.9,-131.31 498.63,-135.52 499.13,-128.54"/>
</g>
<!-- Node12 -->
<g id="node12" class="node">
<title>Node12</title>
<g id="a_node12"><a xlink:title=" ">
<polygon fill="white" stroke="#bfbfbf" points="506.5,-112.5 506.5,-131.5 594.5,-131.5 594.5,-112.5 506.5,-112.5"/>
<text text-anchor="middle" x="550.5" y="-119.5" font-family="Helvetica,sans-Serif" font-size="10.00">swl/swl_uuid.h</text>
</a>
</g>
</g>
<!-- Node7&#45;&gt;Node12 -->
<g id="edge11" class="edge">
<title>Node7&#45;&gt;Node12</title>
<path fill="none" stroke="midnightblue" d="M2037.68,-176.74C1880.64,-174.79 920.14,-161.82 604.73,-131.95"/>
<polygon fill="midnightblue" stroke="midnightblue" points="604.98,-128.46 594.68,-130.97 604.3,-135.42 604.98,-128.46"/>
</g>
<!-- Node13 -->
<g id="node13" class="node">
<title>Node13</title>
<g id="a_node13"><a xlink:title=" ">
<polygon fill="white" stroke="#bfbfbf" points="612.5,-112.5 612.5,-131.5 764.5,-131.5 764.5,-112.5 612.5,-112.5"/>
<text text-anchor="middle" x="688.5" y="-119.5" font-family="Helvetica,sans-Serif" font-size="10.00">swla/swla_radioStandards.h</text>
</a>
</g>
</g>
<!-- Node7&#45;&gt;Node13 -->
<g id="edge12" class="edge">
<title>Node7&#45;&gt;Node13</title>
<path fill="none" stroke="midnightblue" d="M2037.86,-176.81C1915.1,-175.64 1293.77,-168.12 775.24,-132.07"/>
<polygon fill="midnightblue" stroke="midnightblue" points="775.15,-128.56 764.93,-131.35 774.66,-135.54 775.15,-128.56"/>
</g>
<!-- Node14 -->
<g id="node14" class="node">
<title>Node14</title>
<g id="a_node14"><a xlink:title=" ">
<polygon fill="white" stroke="#bfbfbf" points="146,-0.5 146,-19.5 247,-19.5 247,-0.5 146,-0.5"/>
<text text-anchor="middle" x="196.5" y="-7.5" font-family="Helvetica,sans-Serif" font-size="10.00">swla/swla_time.h</text>
</a>
</g>
</g>
<!-- Node7&#45;&gt;Node14 -->
<g id="edge13" class="edge">
<title>Node7&#45;&gt;Node14</title>
<path fill="none" stroke="midnightblue" d="M2037.96,-176.86C1834.1,-175.46 251.55,-163.6 215.5,-132 186.68,-106.73 189.02,-57.06 192.94,-29.88"/>
<polygon fill="midnightblue" stroke="midnightblue" points="196.43,-30.18 194.62,-19.74 189.53,-29.03 196.43,-30.18"/>
</g>
<!-- Node15 -->
<g id="node15" class="node">
<title>Node15</title>
<g id="a_node15"><a xlink:title=" ">
<polygon fill="white" stroke="#bfbfbf" points="783,-112.5 783,-131.5 912,-131.5 912,-112.5 783,-112.5"/>
<text text-anchor="middle" x="847.5" y="-119.5" font-family="Helvetica,sans-Serif" font-size="10.00">swla/swla_time_spec.h</text>
</a>
</g>
</g>
<!-- Node7&#45;&gt;Node15 -->
<g id="edge14" class="edge">
<title>Node7&#45;&gt;Node15</title>
<path fill="none" stroke="midnightblue" d="M2037.76,-176.8C1923.32,-175.61 1378.92,-168.26 922.14,-131.97"/>
<polygon fill="midnightblue" stroke="midnightblue" points="922.29,-128.47 912.04,-131.16 921.73,-135.45 922.29,-128.47"/>
</g>
<!-- Node16 -->
<g id="node16" class="node">
<title>Node16</title>
<g id="a_node16"><a xlink:title=" ">
<polygon fill="white" stroke="#bfbfbf" points="930.5,-112.5 930.5,-131.5 1024.5,-131.5 1024.5,-112.5 930.5,-112.5"/>
<text text-anchor="middle" x="977.5" y="-119.5" font-family="Helvetica,sans-Serif" font-size="10.00">swla/swla_oui.h</text>
</a>
</g>
</g>
<!-- Node7&#45;&gt;Node16 -->
<g id="edge15" class="edge">
<title>Node7&#45;&gt;Node16</title>
<path fill="none" stroke="midnightblue" d="M2037.77,-176.98C1930.16,-176.67 1443.43,-173.02 1034.75,-132"/>
<polygon fill="midnightblue" stroke="midnightblue" points="1034.8,-128.48 1024.5,-130.96 1034.1,-135.45 1034.8,-128.48"/>
</g>
<!-- Node17 -->
<g id="node17" class="node">
<title>Node17</title>
<g id="a_node17"><a xlink:title=" ">
<polygon fill="white" stroke="#bfbfbf" points="1042.5,-112.5 1042.5,-131.5 1170.5,-131.5 1170.5,-112.5 1042.5,-112.5"/>
<text text-anchor="middle" x="1106.5" y="-119.5" font-family="Helvetica,sans-Serif" font-size="10.00">swla/swla_delayExec.h</text>
</a>
</g>
</g>
<!-- Node7&#45;&gt;Node17 -->
<g id="edge16" class="edge">
<title>Node7&#45;&gt;Node17</title>
<path fill="none" stroke="midnightblue" d="M2037.69,-176.46C1939.54,-173.91 1528.8,-161.96 1180.59,-132.03"/>
<polygon fill="midnightblue" stroke="midnightblue" points="1180.83,-128.54 1170.57,-131.16 1180.23,-135.51 1180.83,-128.54"/>
</g>
<!-- Node18 -->
<g id="node18" class="node">
<title>Node18</title>
<g id="a_node18"><a xlink:title=" ">
<polygon fill="white" stroke="#bfbfbf" points="1189,-112.5 1189,-131.5 1308,-131.5 1308,-112.5 1189,-112.5"/>
<text text-anchor="middle" x="1248.5" y="-119.5" font-family="Helvetica,sans-Serif" font-size="10.00">swla/swla_function.h</text>
</a>
</g>
</g>
<!-- Node7&#45;&gt;Node18 -->
<g id="edge17" class="edge">
<title>Node7&#45;&gt;Node18</title>
<path fill="none" stroke="midnightblue" d="M2037.88,-176.25C1949.79,-173.09 1609.21,-159.74 1318.5,-132.13"/>
<polygon fill="midnightblue" stroke="midnightblue" points="1318.46,-128.61 1308.18,-131.14 1317.8,-135.58 1318.46,-128.61"/>
</g>
<!-- Node19 -->
<g id="node19" class="node">
<title>Node19</title>
<g id="a_node19"><a xlink:title=" ">
<polygon fill="white" stroke="#bfbfbf" points="1326,-112.5 1326,-131.5 1467,-131.5 1467,-112.5 1326,-112.5"/>
<text text-anchor="middle" x="1396.5" y="-119.5" font-family="Helvetica,sans-Serif" font-size="10.00">swl/swl_usp_cmdStatus.h</text>
</a>
</g>
</g>
<!-- Node7&#45;&gt;Node19 -->
<g id="edge18" class="edge">
<title>Node7&#45;&gt;Node19</title>
<path fill="none" stroke="midnightblue" d="M2037.77,-175.6C1962.12,-170.66 1703.04,-153.27 1477.21,-132.03"/>
<polygon fill="midnightblue" stroke="midnightblue" points="1477.44,-128.54 1467.16,-131.08 1476.78,-135.51 1477.44,-128.54"/>
</g>
<!-- Node20 -->
<g id="node20" class="node">
<title>Node20</title>
<g id="a_node20"><a xlink:title=" ">
<polygon fill="white" stroke="#bfbfbf" points="1485.5,-112.5 1485.5,-131.5 1571.5,-131.5 1571.5,-112.5 1485.5,-112.5"/>
<text text-anchor="middle" x="1528.5" y="-119.5" font-family="Helvetica,sans-Serif" font-size="10.00">swl/swl_wps.h</text>
</a>
</g>
</g>
<!-- Node7&#45;&gt;Node20 -->
<g id="edge19" class="edge">
<title>Node7&#45;&gt;Node20</title>
<path fill="none" stroke="midnightblue" d="M2037.95,-175.58C1971.56,-171.06 1764.12,-156.01 1581.64,-132.05"/>
<polygon fill="midnightblue" stroke="midnightblue" points="1581.96,-128.57 1571.59,-130.72 1581.04,-135.51 1581.96,-128.57"/>
</g>
<!-- Node21 -->
<g id="node21" class="node">
<title>Node21</title>
<g id="a_node21"><a xlink:title=" ">
<polygon fill="white" stroke="#bfbfbf" points="1589.5,-112.5 1589.5,-131.5 1693.5,-131.5 1693.5,-112.5 1589.5,-112.5"/>
<text text-anchor="middle" x="1641.5" y="-119.5" font-family="Helvetica,sans-Serif" font-size="10.00">swl/swl_security.h</text>
</a>
</g>
</g>
<!-- Node7&#45;&gt;Node21 -->
<g id="edge20" class="edge">
<title>Node7&#45;&gt;Node21</title>
<path fill="none" stroke="midnightblue" d="M2037.75,-174.42C1983.34,-167.93 1836.77,-150.25 1703.7,-132.14"/>
<polygon fill="midnightblue" stroke="midnightblue" points="1704.11,-128.67 1693.73,-130.78 1703.17,-135.6 1704.11,-128.67"/>
</g>
<!-- Node22 -->
<g id="node22" class="node">
<title>Node22</title>
<g id="a_node22"><a xlink:title=" ">
<polygon fill="white" stroke="#bfbfbf" points="1712,-112.5 1712,-131.5 1795,-131.5 1795,-112.5 1712,-112.5"/>
<text text-anchor="middle" x="1753.5" y="-119.5" font-family="Helvetica,sans-Serif" font-size="10.00">amxc/amxc.h</text>
</a>
</g>
</g>
<!-- Node7&#45;&gt;Node22 -->
<g id="edge21" class="edge">
<title>Node7&#45;&gt;Node22</title>
<path fill="none" stroke="midnightblue" d="M2037.98,-173.2C1990.04,-164.74 1873.32,-144.14 1805.21,-132.13"/>
<polygon fill="midnightblue" stroke="midnightblue" points="1805.58,-128.64 1795.13,-130.35 1804.37,-135.53 1805.58,-128.64"/>
</g>
<!-- Node23 -->
<g id="node23" class="node">
<title>Node23</title>
<g id="a_node23"><a xlink:title=" ">
<polygon fill="white" stroke="#bfbfbf" points="1813.5,-112.5 1813.5,-131.5 1897.5,-131.5 1897.5,-112.5 1813.5,-112.5"/>
<text text-anchor="middle" x="1855.5" y="-119.5" font-family="Helvetica,sans-Serif" font-size="10.00">amxp/amxp.h</text>
</a>
</g>
</g>
<!-- Node7&#45;&gt;Node23 -->
<g id="edge22" class="edge">
<title>Node7&#45;&gt;Node23</title>
<path fill="none" stroke="midnightblue" d="M2037.67,-171.22C2004.36,-162.41 1940.25,-145.43 1897.67,-134.16"/>
<polygon fill="midnightblue" stroke="midnightblue" points="1898.43,-130.74 1887.87,-131.57 1896.64,-137.51 1898.43,-130.74"/>
</g>
<!-- Node24 -->
<g id="node24" class="node">
<title>Node24</title>
<g id="a_node24"><a xlink:title=" ">
<polygon fill="white" stroke="#bfbfbf" points="1915.5,-112.5 1915.5,-131.5 2055.5,-131.5 2055.5,-112.5 1915.5,-112.5"/>
<text text-anchor="middle" x="1985.5" y="-119.5" font-family="Helvetica,sans-Serif" font-size="10.00">amxd/amxd_parameter.h</text>
</a>
</g>
</g>
<!-- Node7&#45;&gt;Node24 -->
<g id="edge23" class="edge">
<title>Node7&#45;&gt;Node24</title>
<path fill="none" stroke="midnightblue" d="M2047.61,-168.32C2036.35,-160.11 2019.21,-147.6 2005.79,-137.81"/>
<polygon fill="midnightblue" stroke="midnightblue" points="2007.75,-134.9 1997.61,-131.83 2003.62,-140.56 2007.75,-134.9"/>
</g>
<!-- Node25 -->
<g id="node25" class="node">
<title>Node25</title>
<g id="a_node25"><a xlink:title=" ">
<polygon fill="white" stroke="#bfbfbf" points="2074,-112.5 2074,-131.5 2193,-131.5 2193,-112.5 2074,-112.5"/>
<text text-anchor="middle" x="2133.5" y="-119.5" font-family="Helvetica,sans-Serif" font-size="10.00">amxd/amxd_action.h</text>
</a>
</g>
</g>
<!-- Node7&#45;&gt;Node25 -->
<g id="edge24" class="edge">
<title>Node7&#45;&gt;Node25</title>
<path fill="none" stroke="midnightblue" d="M2071.39,-168.32C2082.65,-160.11 2099.79,-147.6 2113.21,-137.81"/>
<polygon fill="midnightblue" stroke="midnightblue" points="2115.38,-140.56 2121.39,-131.83 2111.25,-134.9 2115.38,-140.56"/>
</g>
<!-- Node26 -->
<g id="node26" class="node">
<title>Node26</title>
<g id="a_node26"><a xlink:title=" ">
<polygon fill="white" stroke="#bfbfbf" points="2211,-112.5 2211,-131.5 2386,-131.5 2386,-112.5 2211,-112.5"/>
<text text-anchor="middle" x="2298.5" y="-119.5" font-family="Helvetica,sans-Serif" font-size="10.00">amxd/amxd_object_parameter.h</text>
</a>
</g>
</g>
<!-- Node7&#45;&gt;Node26 -->
<g id="edge25" class="edge">
<title>Node7&#45;&gt;Node26</title>
<path fill="none" stroke="midnightblue" d="M2081.13,-172.11C2119.27,-163.5 2199.29,-145.42 2250.88,-133.76"/>
<polygon fill="midnightblue" stroke="midnightblue" points="2251.81,-137.14 2260.8,-131.52 2250.27,-130.31 2251.81,-137.14"/>
</g>
<!-- Node27 -->
<g id="node27" class="node">
<title>Node27</title>
<g id="a_node27"><a xlink:title=" ">
<polygon fill="white" stroke="#bfbfbf" points="2404.5,-112.5 2404.5,-131.5 2556.5,-131.5 2556.5,-112.5 2404.5,-112.5"/>
<text text-anchor="middle" x="2480.5" y="-119.5" font-family="Helvetica,sans-Serif" font-size="10.00">amxd/amxd_object_event.h</text>
</a>
</g>
</g>
<!-- Node7&#45;&gt;Node27 -->
<g id="edge26" class="edge">
<title>Node7&#45;&gt;Node27</title>
<path fill="none" stroke="midnightblue" d="M2081.25,-174.21C2140.2,-166.65 2305.22,-145.48 2403.68,-132.85"/>
<polygon fill="midnightblue" stroke="midnightblue" points="2404.4,-136.29 2413.87,-131.55 2403.51,-129.35 2404.4,-136.29"/>
</g>
<!-- Node28 -->
<g id="node28" class="node">
<title>Node28</title>
<g id="a_node28"><a xlink:title=" ">
<polygon fill="white" stroke="#bfbfbf" points="2575,-112.5 2575,-131.5 2704,-131.5 2704,-112.5 2575,-112.5"/>
<text text-anchor="middle" x="2639.5" y="-119.5" font-family="Helvetica,sans-Serif" font-size="10.00">amxd/amxd_function.h</text>
</a>
</g>
</g>
<!-- Node7&#45;&gt;Node28 -->
<g id="edge27" class="edge">
<title>Node7&#45;&gt;Node28</title>
<path fill="none" stroke="midnightblue" d="M2081.22,-175.32C2150.19,-169.94 2370.53,-152.33 2564.83,-132.04"/>
<polygon fill="midnightblue" stroke="midnightblue" points="2565.36,-135.5 2574.94,-130.98 2564.63,-128.54 2565.36,-135.5"/>
</g>
<!-- Node29 -->
<g id="node29" class="node">
<title>Node29</title>
<g id="a_node29"><a xlink:title=" ">
<polygon fill="white" stroke="#bfbfbf" points="2722,-112.5 2722,-131.5 2891,-131.5 2891,-112.5 2722,-112.5"/>
<text text-anchor="middle" x="2806.5" y="-119.5" font-family="Helvetica,sans-Serif" font-size="10.00">amxd/amxd_object_hierarchy.h</text>
</a>
</g>
</g>
<!-- Node7&#45;&gt;Node29 -->
<g id="edge28" class="edge">
<title>Node7&#45;&gt;Node29</title>
<path fill="none" stroke="midnightblue" d="M2081.25,-175.72C2162.69,-170.9 2457.47,-153.02 2711.7,-132.13"/>
<polygon fill="midnightblue" stroke="midnightblue" points="2712.18,-135.6 2721.86,-131.29 2711.61,-128.63 2712.18,-135.6"/>
</g>
<!-- Node30 -->
<g id="node30" class="node">
<title>Node30</title>
<g id="a_node30"><a xlink:title=" ">
<polygon fill="white" stroke="#bfbfbf" points="2909,-112.5 2909,-131.5 3028,-131.5 3028,-112.5 2909,-112.5"/>
<text text-anchor="middle" x="2968.5" y="-119.5" font-family="Helvetica,sans-Serif" font-size="10.00">amxd/amxd_object.h</text>
</a>
</g>
</g>
<!-- Node7&#45;&gt;Node30 -->
<g id="edge29" class="edge">
<title>Node7&#45;&gt;Node30</title>
<path fill="none" stroke="midnightblue" d="M2081.31,-176.46C2176.76,-173.97 2567.34,-162.4 2898.55,-132.11"/>
<polygon fill="midnightblue" stroke="midnightblue" points="2899.19,-135.57 2908.83,-131.17 2898.55,-128.6 2899.19,-135.57"/>
</g>
<!-- Node31 -->
<g id="node31" class="node">
<title>Node31</title>
<g id="a_node31"><a xlink:title=" ">
<polygon fill="white" stroke="#bfbfbf" points="3046,-112.5 3046,-131.5 3151,-131.5 3151,-112.5 3046,-112.5"/>
<text text-anchor="middle" x="3098.5" y="-119.5" font-family="Helvetica,sans-Serif" font-size="10.00">amxd/amxd_dm.h</text>
</a>
</g>
</g>
<!-- Node7&#45;&gt;Node31 -->
<g id="edge30" class="edge">
<title>Node7&#45;&gt;Node31</title>
<path fill="none" stroke="midnightblue" d="M2081.28,-176.3C2205.14,-172.25 2822.38,-151.49 3035.81,-132.05"/>
<polygon fill="midnightblue" stroke="midnightblue" points="3036.34,-135.51 3045.97,-131.09 3035.69,-128.54 3036.34,-135.51"/>
</g>
<!-- Node32 -->
<g id="node32" class="node">
<title>Node32</title>
<g id="a_node32"><a xlink:title=" ">
<polygon fill="white" stroke="#bfbfbf" points="3169.5,-112.5 3169.5,-131.5 3313.5,-131.5 3313.5,-112.5 3169.5,-112.5"/>
<text text-anchor="middle" x="3241.5" y="-119.5" font-family="Helvetica,sans-Serif" font-size="10.00">amxd/amxd_transaction.h</text>
</a>
</g>
</g>
<!-- Node7&#45;&gt;Node32 -->
<g id="edge31" class="edge">
<title>Node7&#45;&gt;Node32</title>
<path fill="none" stroke="midnightblue" d="M2081.32,-176.32C2214.42,-172.12 2919.1,-149.43 3159.05,-132.04"/>
<polygon fill="midnightblue" stroke="midnightblue" points="3159.39,-135.53 3169.1,-131.3 3158.87,-128.55 3159.39,-135.53"/>
</g>
<!-- Node33 -->
<g id="node33" class="node">
<title>Node33</title>
<g id="a_node33"><a xlink:title=" ">
<polygon fill="white" stroke="#bfbfbf" points="3331.5,-112.5 3331.5,-131.5 3447.5,-131.5 3447.5,-112.5 3331.5,-112.5"/>
<text text-anchor="middle" x="3389.5" y="-119.5" font-family="Helvetica,sans-Serif" font-size="10.00">amxb/amxb_types.h</text>
</a>
</g>
</g>
<!-- Node7&#45;&gt;Node33 -->
<g id="edge32" class="edge">
<title>Node7&#45;&gt;Node33</title>
<path fill="none" stroke="midnightblue" d="M2081.14,-176.52C2225.04,-173.28 3046.03,-154.13 3321.1,-132.01"/>
<polygon fill="midnightblue" stroke="midnightblue" points="3321.76,-135.47 3331.43,-131.15 3321.18,-128.49 3321.76,-135.47"/>
</g>
<!-- Node34 -->
<g id="node34" class="node">
<title>Node34</title>
<g id="a_node34"><a xlink:title=" ">
<polygon fill="white" stroke="#bfbfbf" points="3465.5,-112.5 3465.5,-131.5 3601.5,-131.5 3601.5,-112.5 3465.5,-112.5"/>
<text text-anchor="middle" x="3533.5" y="-119.5" font-family="Helvetica,sans-Serif" font-size="10.00">amxb/amxb_operators.h</text>
</a>
</g>
</g>
<!-- Node7&#45;&gt;Node34 -->
<g id="edge33" class="edge">
<title>Node7&#45;&gt;Node34</title>
<path fill="none" stroke="midnightblue" d="M2081.13,-176.41C2243.63,-171.99 3271.37,-143.79 3454.92,-132"/>
<polygon fill="midnightblue" stroke="midnightblue" points="3455.36,-135.48 3465.09,-131.3 3454.88,-128.49 3455.36,-135.48"/>
</g>
<!-- Node35 -->
<g id="node35" class="node">
<title>Node35</title>
<g id="a_node35"><a xlink:title=" ">
<polygon fill="white" stroke="#bfbfbf" points="3619.5,-112.5 3619.5,-131.5 3731.5,-131.5 3731.5,-112.5 3619.5,-112.5"/>
<text text-anchor="middle" x="3675.5" y="-119.5" font-family="Helvetica,sans-Serif" font-size="10.00">amxb/amxb_error.h</text>
</a>
</g>
</g>
<!-- Node7&#45;&gt;Node35 -->
<g id="edge34" class="edge">
<title>Node7&#45;&gt;Node35</title>
<path fill="none" stroke="midnightblue" d="M2081.09,-176.44C2257.57,-171.86 3459.81,-140.51 3608.87,-131.88"/>
<polygon fill="midnightblue" stroke="midnightblue" points="3609.43,-135.35 3619.17,-131.18 3608.96,-128.36 3609.43,-135.35"/>
</g>
<!-- Node36 -->
<g id="node36" class="node">
<title>Node36</title>
<g id="a_node36"><a xlink:title=" ">
<polygon fill="white" stroke="#bfbfbf" points="3750,-112.5 3750,-131.5 3833,-131.5 3833,-112.5 3750,-112.5"/>
<text text-anchor="middle" x="3791.5" y="-119.5" font-family="Helvetica,sans-Serif" font-size="10.00">amxo/amxo.h</text>
</a>
</g>
</g>
<!-- Node7&#45;&gt;Node36 -->
<g id="edge35" class="edge">
<title>Node7&#45;&gt;Node36</title>
<path fill="none" stroke="midnightblue" d="M2081.08,-176.47C2267.46,-171.86 3601.33,-138.76 3739.72,-131.54"/>
<polygon fill="midnightblue" stroke="midnightblue" points="3740.07,-135.02 3749.82,-130.87 3739.61,-128.04 3740.07,-135.02"/>
</g>
<!-- Node37 -->
<g id="node37" class="node">
<title>Node37</title>
<g id="a_node37"><a xlink:title=" ">
<polygon fill="white" stroke="#bfbfbf" points="3851,-112.5 3851,-131.5 3966,-131.5 3966,-112.5 3851,-112.5"/>
<text text-anchor="middle" x="3908.5" y="-119.5" font-family="Helvetica,sans-Serif" font-size="10.00">amxo/amxo_types.h</text>
</a>
</g>
</g>
<!-- Node7&#45;&gt;Node37 -->
<g id="edge36" class="edge">
<title>Node7&#45;&gt;Node37</title>
<path fill="none" stroke="midnightblue" d="M2081.1,-176.47C2274.51,-171.73 3704.27,-136.68 3840.95,-131.68"/>
<polygon fill="midnightblue" stroke="midnightblue" points="3841.12,-135.17 3850.95,-131.23 3840.8,-128.18 3841.12,-135.17"/>
</g>
<!-- Node38 -->
<g id="node38" class="node">
<title>Node38</title>
<g id="a_node38"><a xlink:href="wld__types_8h.html" target="_top" xlink:title=" ">
<polygon fill="white" stroke="red" points="74,-56.5 74,-75.5 149,-75.5 149,-56.5 74,-56.5"/>
<text text-anchor="middle" x="111.5" y="-63.5" font-family="Helvetica,sans-Serif" font-size="10.00">wld_types.h</text>
</a>
</g>
</g>
<!-- Node7&#45;&gt;Node38 -->
<g id="edge37" class="edge">
<title>Node7&#45;&gt;Node38</title>
<path fill="none" stroke="midnightblue" d="M2037.92,-176.92C1835.38,-176.07 272.98,-168.42 182.5,-132 157.91,-122.1 136.53,-99.51 123.83,-83.76"/>
<polygon fill="midnightblue" stroke="midnightblue" points="126.59,-81.61 117.7,-75.84 121.05,-85.89 126.59,-81.61"/>
</g>
<!-- Node41 -->
<g id="node39" class="node">
<title>Node41</title>
<g id="a_node39"><a xlink:href="wld__channel__types_8h.html" target="_top" xlink:title=" ">
<polygon fill="white" stroke="red" points="4155,-112.5 4155,-131.5 4274,-131.5 4274,-112.5 4155,-112.5"/>
<text text-anchor="middle" x="4214.5" y="-119.5" font-family="Helvetica,sans-Serif" font-size="10.00">wld_channel_types.h</text>
</a>
</g>
</g>
<!-- Node7&#45;&gt;Node41 -->
<g id="edge40" class="edge">
<title>Node7&#45;&gt;Node41</title>
<path fill="none" stroke="midnightblue" d="M2081.07,-176.45C2137.8,-175 2295.88,-170.99 2427.5,-168 3188.8,-150.69 3380.92,-186.04 4140.5,-132 4141.81,-131.91 4143.13,-131.81 4144.46,-131.7"/>
<polygon fill="midnightblue" stroke="midnightblue" points="4145.12,-135.16 4154.78,-130.78 4144.5,-128.18 4145.12,-135.16"/>
</g>
<!-- Node43 -->
<g id="node40" class="node">
<title>Node43</title>
<g id="a_node40"><a xlink:href="wld__bgdfs_8h.html" target="_top" xlink:title=" ">
<polygon fill="white" stroke="black" points="55,-112.5 55,-131.5 130,-131.5 130,-112.5 55,-112.5"/>
<text text-anchor="middle" x="92.5" y="-119.5" font-family="Helvetica,sans-Serif" font-size="10.00">wld_bgdfs.h</text>
</a>
</g>
</g>
<!-- Node7&#45;&gt;Node43 -->
<g id="edge43" class="edge">
<title>Node7&#45;&gt;Node43</title>
<path fill="none" stroke="midnightblue" d="M2037.98,-176.93C1853.68,-176.3 538.16,-170.48 144.5,-132 143.19,-131.87 141.87,-131.73 140.53,-131.58"/>
<polygon fill="midnightblue" stroke="midnightblue" points="140.56,-128.05 130.18,-130.2 139.63,-134.99 140.56,-128.05"/>
</g>
<!-- Node44 -->
<g id="node41" class="node">
<title>Node44</title>
<g id="a_node41"><a xlink:href="wld__rad__delayMgr_8h.html" target="_top" xlink:title=" ">
<polygon fill="white" stroke="black" points="3984.5,-112.5 3984.5,-131.5 4098.5,-131.5 4098.5,-112.5 3984.5,-112.5"/>
<text text-anchor="middle" x="4041.5" y="-119.5" font-family="Helvetica,sans-Serif" font-size="10.00">wld_rad_delayMgr.h</text>
</a>
</g>
</g>
<!-- Node7&#45;&gt;Node44 -->
<g id="edge45" class="edge">
<title>Node7&#45;&gt;Node44</title>
<path fill="none" stroke="midnightblue" d="M2081.15,-176.35C2137.22,-174.85 2290.4,-171.06 2418.5,-168 3106.49,-151.59 3280.48,-186.58 3966.5,-132 3969.02,-131.8 3971.59,-131.57 3974.2,-131.31"/>
<polygon fill="midnightblue" stroke="midnightblue" points="3974.77,-134.77 3984.33,-130.21 3974.01,-127.81 3974.77,-134.77"/>
</g>
<!-- Node7&#45;&gt;Node53 -->
<g id="edge47" class="edge">
<title>Node7&#45;&gt;Node53</title>
<path fill="none" stroke="midnightblue" d="M2081.07,-176.43C2137.8,-174.96 2295.88,-170.89 2427.5,-168 2836.6,-159.03 3855.98,-168.11 4281.49,-132.04"/>
<polygon fill="midnightblue" stroke="midnightblue" points="4282.08,-135.5 4291.74,-131.15 4281.47,-128.53 4282.08,-135.5"/>
</g>
<!-- Node38&#45;&gt;Node9 -->
<g id="edge38" class="edge">
<title>Node38&#45;&gt;Node9</title>
<path fill="none" stroke="midnightblue" d="M97.84,-56.32C84.58,-47.9 64.23,-34.97 48.65,-25.07"/>
<polygon fill="midnightblue" stroke="midnightblue" points="50.44,-22.06 40.12,-19.65 46.69,-27.97 50.44,-22.06"/>
</g>
<!-- Node38&#45;&gt;Node14 -->
<g id="edge39" class="edge">
<title>Node38&#45;&gt;Node14</title>
<path fill="none" stroke="midnightblue" d="M125.16,-56.32C138.42,-47.9 158.77,-34.97 174.35,-25.07"/>
<polygon fill="midnightblue" stroke="midnightblue" points="176.31,-27.97 182.88,-19.65 172.56,-22.06 176.31,-27.97"/>
</g>
<!-- Node41&#45;&gt;Node8 -->
<g id="edge41" class="edge">
<title>Node41&#45;&gt;Node8</title>
<path fill="none" stroke="midnightblue" d="M4201.49,-112.32C4188.97,-103.98 4169.82,-91.21 4155.03,-81.35"/>
<polygon fill="midnightblue" stroke="midnightblue" points="4156.74,-78.29 4146.48,-75.65 4152.86,-84.11 4156.74,-78.29"/>
</g>
<!-- Node41&#45;&gt;Node14 -->
<g id="edge42" class="edge">
<title>Node41&#45;&gt;Node14</title>
<path fill="none" stroke="midnightblue" d="M4211.99,-112.27C4207.24,-97.56 4195.4,-68.24 4173.5,-56 4084.2,-6.08 750,-10.03 257.12,-10.88"/>
<polygon fill="midnightblue" stroke="midnightblue" points="257.01,-7.38 247.01,-10.9 257.02,-14.38 257.01,-7.38"/>
</g>
<!-- Node43&#45;&gt;Node38 -->
<g id="edge44" class="edge">
<title>Node43&#45;&gt;Node38</title>
<path fill="none" stroke="midnightblue" d="M95.64,-112.08C98.18,-104.85 101.86,-94.41 105.03,-85.4"/>
<polygon fill="midnightblue" stroke="midnightblue" points="108.4,-86.35 108.42,-75.75 101.8,-84.02 108.4,-86.35"/>
</g>
<!-- Node44&#45;&gt;Node7 -->
<g id="edge46" class="edge">
<title>Node44&#45;&gt;Node7</title>
<path fill="none" stroke="midnightblue" d="M3990.1,-131.51C3988.22,-131.69 3986.34,-131.85 3984.5,-132 3298.48,-186.58 3124.49,-151.59 2436.5,-168 2308.8,-171.05 2156.18,-174.82 2091.11,-176.33"/>
<polygon fill="midnightblue" stroke="midnightblue" points="2091,-172.83 2081.08,-176.56 2091.16,-179.83 2091,-172.83"/>
</g>
<!-- Node80&#45;&gt;Node7 -->
<g id="edge49" class="edge">
<title>Node80&#45;&gt;Node7</title>
<path fill="none" stroke="midnightblue" d="M2349.35,-226.58C2344.71,-225.69 2339.99,-224.8 2335.5,-224 2247.16,-208.16 2142.49,-191.73 2091.14,-183.83"/>
<polygon fill="midnightblue" stroke="midnightblue" points="2091.43,-180.33 2081.01,-182.27 2090.36,-187.25 2091.43,-180.33"/>
</g>
<!-- Node81&#45;&gt;Node7 -->
<g id="edge51" class="edge">
<title>Node81&#45;&gt;Node7</title>
<path fill="none" stroke="midnightblue" d="M1927.87,-280.39C1899.19,-269.01 1857.97,-247.64 1876.5,-224 1894.98,-200.42 1980.69,-187.55 2027.97,-182.13"/>
<polygon fill="midnightblue" stroke="midnightblue" points="2028.43,-185.6 2037.99,-181.03 2027.67,-178.64 2028.43,-185.6"/>
</g>
<!-- Node81&#45;&gt;Node82 -->
<g id="edge52" class="edge">
<title>Node81&#45;&gt;Node82</title>
<path fill="none" stroke="midnightblue" d="M1927.62,-280.44C1901.21,-271.36 1859.28,-256.94 1829.76,-246.78"/>
<polygon fill="midnightblue" stroke="midnightblue" points="1830.86,-243.46 1820.26,-243.52 1828.58,-250.08 1830.86,-243.46"/>
</g>
<!-- Node82&#45;&gt;Node7 -->
<g id="edge54" class="edge">
<title>Node82&#45;&gt;Node7</title>
<path fill="none" stroke="midnightblue" d="M1829.74,-226C1881.32,-215.45 1978.21,-195.63 2028.08,-185.43"/>
<polygon fill="midnightblue" stroke="midnightblue" points="2028.88,-188.84 2037.97,-183.4 2027.47,-181.98 2028.88,-188.84"/>
</g>
<!-- Node82&#45;&gt;Node9 -->
<g id="edge53" class="edge">
<title>Node82&#45;&gt;Node9</title>
<path fill="none" stroke="midnightblue" d="M1761.26,-232.23C1521.05,-226.65 96.36,-191.15 28.5,-132 -0.3,-106.89 10.81,-56.39 19.66,-29.25"/>
<polygon fill="midnightblue" stroke="midnightblue" points="22.97,-30.38 22.97,-19.79 16.36,-28.07 22.97,-30.38"/>
</g>
<!-- Node83&#45;&gt;Node7 -->
<g id="edge56" class="edge">
<title>Node83&#45;&gt;Node7</title>
<path fill="none" stroke="midnightblue" d="M1941.68,-224.44C1965.07,-215.42 2002.08,-201.15 2028.38,-191"/>
<polygon fill="midnightblue" stroke="midnightblue" points="2029.81,-194.2 2037.88,-187.34 2027.29,-187.67 2029.81,-194.2"/>
</g>
<!-- Node84&#45;&gt;Node7 -->
<g id="edge58" class="edge">
<title>Node84&#45;&gt;Node7</title>
<path fill="none" stroke="midnightblue" d="M2016.92,-224.08C2024.35,-216.22 2035.35,-204.57 2044.31,-195.08"/>
<polygon fill="midnightblue" stroke="midnightblue" points="2046.91,-197.42 2051.24,-187.75 2041.82,-192.62 2046.91,-197.42"/>
</g>
<!-- Node91&#45;&gt;Node7 -->
<g id="edge61" class="edge">
<title>Node91&#45;&gt;Node7</title>
<path fill="none" stroke="midnightblue" d="M2101.24,-224.08C2094.04,-216.3 2083.39,-204.8 2074.65,-195.37"/>
<polygon fill="midnightblue" stroke="midnightblue" points="2076.97,-192.71 2067.6,-187.75 2071.83,-197.47 2076.97,-192.71"/>
</g>
<!-- Node94&#45;&gt;Node7 -->
<g id="edge64" class="edge">
<title>Node94&#45;&gt;Node7</title>
<path fill="none" stroke="midnightblue" d="M2205.93,-224.44C2174.71,-214.76 2123.95,-199 2091.14,-188.82"/>
<polygon fill="midnightblue" stroke="midnightblue" points="2091.76,-185.35 2081.17,-185.73 2089.68,-192.03 2091.76,-185.35"/>
</g>
</g>
</svg>
