<?xml version="1.0" encoding="UTF-8" standalone="no"?>
<!DOCTYPE svg PUBLIC "-//W3C//DTD SVG 1.1//EN"
 "http://www.w3.org/Graphics/SVG/1.1/DTD/svg11.dtd">
<!-- Generated by graphviz version 2.43.0 (0)
 -->
<!-- Title: include/wld/wld_rad_stamon.h Pages: 1 -->
<svg width="5683pt" height="263pt"
 viewBox="0.00 0.00 5683.00 263.00" xmlns="http://www.w3.org/2000/svg" xmlns:xlink="http://www.w3.org/1999/xlink">
<g id="graph0" class="graph" transform="scale(1 1) rotate(0) translate(4 259)">
<title>include/wld/wld_rad_stamon.h</title>
<polygon fill="white" stroke="transparent" points="-4,4 -4,-259 5679,-259 5679,4 -4,4"/>
<!-- Node1 -->
<g id="node1" class="node">
<title>Node1</title>
<g id="a_node1"><a xlink:title=" ">
<polygon fill="#bfbfbf" stroke="black" points="2397.5,-224.5 2397.5,-254.5 2510.5,-254.5 2510.5,-224.5 2397.5,-224.5"/>
<text text-anchor="start" x="2405.5" y="-242.5" font-family="Helvetica,sans-Serif" font-size="10.00">include/wld/wld_rad</text>
<text text-anchor="middle" x="2454" y="-231.5" font-family="Helvetica,sans-Serif" font-size="10.00">_stamon.h</text>
</a>
</g>
</g>
<!-- Node2 -->
<g id="node2" class="node">
<title>Node2</title>
<g id="a_node2"><a xlink:href="wld_8h.html" target="_top" xlink:title=" ">
<polygon fill="white" stroke="red" points="2432.5,-168.5 2432.5,-187.5 2475.5,-187.5 2475.5,-168.5 2432.5,-168.5"/>
<text text-anchor="middle" x="2454" y="-175.5" font-family="Helvetica,sans-Serif" font-size="10.00">wld.h</text>
</a>
</g>
</g>
<!-- Node1&#45;&gt;Node2 -->
<g id="edge1" class="edge">
<title>Node1&#45;&gt;Node2</title>
<path fill="none" stroke="midnightblue" d="M2454,-224.4C2454,-216.47 2454,-206.46 2454,-197.86"/>
<polygon fill="midnightblue" stroke="midnightblue" points="2457.5,-197.66 2454,-187.66 2450.5,-197.66 2457.5,-197.66"/>
</g>
<!-- Node3 -->
<g id="node3" class="node">
<title>Node3</title>
<g id="a_node3"><a xlink:title=" ">
<polygon fill="white" stroke="#bfbfbf" points="0,-56.5 0,-75.5 62,-75.5 62,-56.5 0,-56.5"/>
<text text-anchor="middle" x="31" y="-63.5" font-family="Helvetica,sans-Serif" font-size="10.00">stdbool.h</text>
</a>
</g>
</g>
<!-- Node2&#45;&gt;Node3 -->
<g id="edge2" class="edge">
<title>Node2&#45;&gt;Node3</title>
<path fill="none" stroke="midnightblue" d="M2432.41,-176.89C2197.33,-175.7 120.6,-164.27 67,-132 50.28,-121.93 40.75,-101.07 35.75,-85.68"/>
<polygon fill="midnightblue" stroke="midnightblue" points="39,-84.32 32.87,-75.67 32.27,-86.25 39,-84.32"/>
</g>
<!-- Node4 -->
<g id="node4" class="node">
<title>Node4</title>
<g id="a_node4"><a xlink:title=" ">
<polygon fill="white" stroke="#bfbfbf" points="396.5,-0.5 396.5,-19.5 449.5,-19.5 449.5,-0.5 396.5,-0.5"/>
<text text-anchor="middle" x="423" y="-7.5" font-family="Helvetica,sans-Serif" font-size="10.00">stdint.h</text>
</a>
</g>
</g>
<!-- Node2&#45;&gt;Node4 -->
<g id="edge3" class="edge">
<title>Node2&#45;&gt;Node4</title>
<path fill="none" stroke="midnightblue" d="M2432.28,-176.96C2212.27,-176.45 394.31,-171.14 356,-132 324.81,-100.14 374.11,-50.84 403.55,-26.16"/>
<polygon fill="midnightblue" stroke="midnightblue" points="406.04,-28.64 411.59,-19.62 401.62,-23.22 406.04,-28.64"/>
</g>
<!-- Node5 -->
<g id="node5" class="node">
<title>Node5</title>
<g id="a_node5"><a xlink:title=" ">
<polygon fill="white" stroke="#bfbfbf" points="662,-56.5 662,-75.5 772,-75.5 772,-56.5 662,-56.5"/>
<text text-anchor="middle" x="717" y="-63.5" font-family="Helvetica,sans-Serif" font-size="10.00">swl/swl_common.h</text>
</a>
</g>
</g>
<!-- Node2&#45;&gt;Node5 -->
<g id="edge4" class="edge">
<title>Node2&#45;&gt;Node5</title>
<path fill="none" stroke="midnightblue" d="M2432.49,-176.78C2244.58,-174.8 886.67,-159.54 806,-132 776.75,-122.01 748.97,-98.74 732.46,-82.93"/>
<polygon fill="midnightblue" stroke="midnightblue" points="734.87,-80.4 725.3,-75.86 729.95,-85.38 734.87,-80.4"/>
</g>
<!-- Node6 -->
<g id="node6" class="node">
<title>Node6</title>
<g id="a_node6"><a xlink:title=" ">
<polygon fill="white" stroke="#bfbfbf" points="886,-112.5 886,-131.5 1022,-131.5 1022,-112.5 886,-112.5"/>
<text text-anchor="middle" x="954" y="-119.5" font-family="Helvetica,sans-Serif" font-size="10.00">swla/swla_commonLib.h</text>
</a>
</g>
</g>
<!-- Node2&#45;&gt;Node6 -->
<g id="edge5" class="edge">
<title>Node2&#45;&gt;Node6</title>
<path fill="none" stroke="midnightblue" d="M2432.23,-177C2301.62,-176.88 1608.59,-174.24 1032.58,-132.05"/>
<polygon fill="midnightblue" stroke="midnightblue" points="1032.64,-128.54 1022.4,-131.3 1032.12,-135.53 1032.64,-128.54"/>
</g>
<!-- Node7 -->
<g id="node7" class="node">
<title>Node7</title>
<g id="a_node7"><a xlink:title=" ">
<polygon fill="white" stroke="#bfbfbf" points="1040,-112.5 1040,-131.5 1128,-131.5 1128,-112.5 1040,-112.5"/>
<text text-anchor="middle" x="1084" y="-119.5" font-family="Helvetica,sans-Serif" font-size="10.00">swl/swl_uuid.h</text>
</a>
</g>
</g>
<!-- Node2&#45;&gt;Node7 -->
<g id="edge6" class="edge">
<title>Node2&#45;&gt;Node7</title>
<path fill="none" stroke="midnightblue" d="M2432.39,-176.66C2284.96,-174.27 1424.67,-159.41 1138.53,-131.98"/>
<polygon fill="midnightblue" stroke="midnightblue" points="1138.48,-128.46 1128.19,-130.96 1137.79,-135.43 1138.48,-128.46"/>
</g>
<!-- Node8 -->
<g id="node8" class="node">
<title>Node8</title>
<g id="a_node8"><a xlink:title=" ">
<polygon fill="white" stroke="#bfbfbf" points="1146,-112.5 1146,-131.5 1298,-131.5 1298,-112.5 1146,-112.5"/>
<text text-anchor="middle" x="1222" y="-119.5" font-family="Helvetica,sans-Serif" font-size="10.00">swla/swla_radioStandards.h</text>
</a>
</g>
</g>
<!-- Node2&#45;&gt;Node8 -->
<g id="edge7" class="edge">
<title>Node2&#45;&gt;Node8</title>
<path fill="none" stroke="midnightblue" d="M2432.12,-176.67C2316.92,-174.83 1768.92,-164.7 1308.58,-131.98"/>
<polygon fill="midnightblue" stroke="midnightblue" points="1308.63,-128.48 1298.41,-131.26 1308.13,-135.46 1308.63,-128.48"/>
</g>
<!-- Node9 -->
<g id="node9" class="node">
<title>Node9</title>
<g id="a_node9"><a xlink:title=" ">
<polygon fill="white" stroke="#bfbfbf" points="221.5,-0.5 221.5,-19.5 322.5,-19.5 322.5,-0.5 221.5,-0.5"/>
<text text-anchor="middle" x="272" y="-7.5" font-family="Helvetica,sans-Serif" font-size="10.00">swla/swla_time.h</text>
</a>
</g>
</g>
<!-- Node2&#45;&gt;Node9 -->
<g id="edge8" class="edge">
<title>Node2&#45;&gt;Node9</title>
<path fill="none" stroke="midnightblue" d="M2432.24,-176.83C2211.86,-175.09 390.52,-159.89 343,-132 304.61,-109.47 284.85,-57.45 276.68,-29.52"/>
<polygon fill="midnightblue" stroke="midnightblue" points="280.04,-28.52 274.03,-19.8 273.29,-30.37 280.04,-28.52"/>
</g>
<!-- Node10 -->
<g id="node10" class="node">
<title>Node10</title>
<g id="a_node10"><a xlink:title=" ">
<polygon fill="white" stroke="#bfbfbf" points="1316.5,-112.5 1316.5,-131.5 1445.5,-131.5 1445.5,-112.5 1316.5,-112.5"/>
<text text-anchor="middle" x="1381" y="-119.5" font-family="Helvetica,sans-Serif" font-size="10.00">swla/swla_time_spec.h</text>
</a>
</g>
</g>
<!-- Node2&#45;&gt;Node10 -->
<g id="edge9" class="edge">
<title>Node2&#45;&gt;Node10</title>
<path fill="none" stroke="midnightblue" d="M2432.17,-176.63C2326.11,-174.71 1853.94,-164.71 1455.53,-131.97"/>
<polygon fill="midnightblue" stroke="midnightblue" points="1455.8,-128.48 1445.54,-131.14 1455.22,-135.46 1455.8,-128.48"/>
</g>
<!-- Node11 -->
<g id="node11" class="node">
<title>Node11</title>
<g id="a_node11"><a xlink:title=" ">
<polygon fill="white" stroke="#bfbfbf" points="1464,-112.5 1464,-131.5 1558,-131.5 1558,-112.5 1464,-112.5"/>
<text text-anchor="middle" x="1511" y="-119.5" font-family="Helvetica,sans-Serif" font-size="10.00">swla/swla_oui.h</text>
</a>
</g>
</g>
<!-- Node2&#45;&gt;Node11 -->
<g id="edge10" class="edge">
<title>Node2&#45;&gt;Node11</title>
<path fill="none" stroke="midnightblue" d="M2432.32,-176.77C2333.87,-175.53 1918.88,-168.38 1568.1,-131.99"/>
<polygon fill="midnightblue" stroke="midnightblue" points="1568.31,-128.49 1558,-130.93 1567.59,-135.46 1568.31,-128.49"/>
</g>
<!-- Node12 -->
<g id="node12" class="node">
<title>Node12</title>
<g id="a_node12"><a xlink:title=" ">
<polygon fill="white" stroke="#bfbfbf" points="1576,-112.5 1576,-131.5 1704,-131.5 1704,-112.5 1576,-112.5"/>
<text text-anchor="middle" x="1640" y="-119.5" font-family="Helvetica,sans-Serif" font-size="10.00">swla/swla_delayExec.h</text>
</a>
</g>
</g>
<!-- Node2&#45;&gt;Node12 -->
<g id="edge11" class="edge">
<title>Node2&#45;&gt;Node12</title>
<path fill="none" stroke="midnightblue" d="M2432.47,-176.17C2344.77,-172.67 2005.67,-158.19 1714.49,-131.98"/>
<polygon fill="midnightblue" stroke="midnightblue" points="1714.43,-128.46 1704.15,-131.04 1713.79,-135.43 1714.43,-128.46"/>
</g>
<!-- Node13 -->
<g id="node13" class="node">
<title>Node13</title>
<g id="a_node13"><a xlink:title=" ">
<polygon fill="white" stroke="#bfbfbf" points="1722.5,-112.5 1722.5,-131.5 1841.5,-131.5 1841.5,-112.5 1722.5,-112.5"/>
<text text-anchor="middle" x="1782" y="-119.5" font-family="Helvetica,sans-Serif" font-size="10.00">swla/swla_function.h</text>
</a>
</g>
</g>
<!-- Node2&#45;&gt;Node13 -->
<g id="edge12" class="edge">
<title>Node2&#45;&gt;Node13</title>
<path fill="none" stroke="midnightblue" d="M2432.33,-175.82C2355.06,-171.51 2085.66,-155.7 1851.87,-132.03"/>
<polygon fill="midnightblue" stroke="midnightblue" points="1852.12,-128.54 1841.82,-131.01 1851.41,-135.5 1852.12,-128.54"/>
</g>
<!-- Node14 -->
<g id="node14" class="node">
<title>Node14</title>
<g id="a_node14"><a xlink:title=" ">
<polygon fill="white" stroke="#bfbfbf" points="1859.5,-112.5 1859.5,-131.5 2000.5,-131.5 2000.5,-112.5 1859.5,-112.5"/>
<text text-anchor="middle" x="1930" y="-119.5" font-family="Helvetica,sans-Serif" font-size="10.00">swl/swl_usp_cmdStatus.h</text>
</a>
</g>
</g>
<!-- Node2&#45;&gt;Node14 -->
<g id="edge13" class="edge">
<title>Node2&#45;&gt;Node14</title>
<path fill="none" stroke="midnightblue" d="M2432.28,-174.88C2369.1,-168.71 2179.76,-150.09 2010.74,-132.07"/>
<polygon fill="midnightblue" stroke="midnightblue" points="2010.98,-128.57 2000.67,-130.99 2010.24,-135.53 2010.98,-128.57"/>
</g>
<!-- Node15 -->
<g id="node15" class="node">
<title>Node15</title>
<g id="a_node15"><a xlink:title=" ">
<polygon fill="white" stroke="#bfbfbf" points="2019,-112.5 2019,-131.5 2105,-131.5 2105,-112.5 2019,-112.5"/>
<text text-anchor="middle" x="2062" y="-119.5" font-family="Helvetica,sans-Serif" font-size="10.00">swl/swl_wps.h</text>
</a>
</g>
</g>
<!-- Node2&#45;&gt;Node15 -->
<g id="edge14" class="edge">
<title>Node2&#45;&gt;Node15</title>
<path fill="none" stroke="midnightblue" d="M2432.48,-174.45C2380.1,-168.19 2241.64,-151.26 2115.34,-132.15"/>
<polygon fill="midnightblue" stroke="midnightblue" points="2115.52,-128.64 2105.11,-130.6 2114.47,-135.56 2115.52,-128.64"/>
</g>
<!-- Node16 -->
<g id="node16" class="node">
<title>Node16</title>
<g id="a_node16"><a xlink:title=" ">
<polygon fill="white" stroke="#bfbfbf" points="2123,-112.5 2123,-131.5 2227,-131.5 2227,-112.5 2123,-112.5"/>
<text text-anchor="middle" x="2175" y="-119.5" font-family="Helvetica,sans-Serif" font-size="10.00">swl/swl_security.h</text>
</a>
</g>
</g>
<!-- Node2&#45;&gt;Node16 -->
<g id="edge15" class="edge">
<title>Node2&#45;&gt;Node16</title>
<path fill="none" stroke="midnightblue" d="M2432.11,-172.76C2388.73,-164.37 2290.72,-145.4 2229.02,-133.46"/>
<polygon fill="midnightblue" stroke="midnightblue" points="2229.55,-129.99 2219.07,-131.53 2228.22,-136.87 2229.55,-129.99"/>
</g>
<!-- Node17 -->
<g id="node17" class="node">
<title>Node17</title>
<g id="a_node17"><a xlink:title=" ">
<polygon fill="white" stroke="#bfbfbf" points="2245.5,-112.5 2245.5,-131.5 2328.5,-131.5 2328.5,-112.5 2245.5,-112.5"/>
<text text-anchor="middle" x="2287" y="-119.5" font-family="Helvetica,sans-Serif" font-size="10.00">amxc/amxc.h</text>
</a>
</g>
</g>
<!-- Node2&#45;&gt;Node17 -->
<g id="edge16" class="edge">
<title>Node2&#45;&gt;Node17</title>
<path fill="none" stroke="midnightblue" d="M2432.17,-169.94C2404.52,-161 2356.51,-145.48 2323.31,-134.74"/>
<polygon fill="midnightblue" stroke="midnightblue" points="2324.11,-131.32 2313.52,-131.58 2321.96,-137.98 2324.11,-131.32"/>
</g>
<!-- Node18 -->
<g id="node18" class="node">
<title>Node18</title>
<g id="a_node18"><a xlink:title=" ">
<polygon fill="white" stroke="#bfbfbf" points="2347,-112.5 2347,-131.5 2431,-131.5 2431,-112.5 2347,-112.5"/>
<text text-anchor="middle" x="2389" y="-119.5" font-family="Helvetica,sans-Serif" font-size="10.00">amxp/amxp.h</text>
</a>
</g>
</g>
<!-- Node2&#45;&gt;Node18 -->
<g id="edge17" class="edge">
<title>Node2&#45;&gt;Node18</title>
<path fill="none" stroke="midnightblue" d="M2443.56,-168.32C2433.85,-160.26 2419.18,-148.08 2407.5,-138.37"/>
<polygon fill="midnightblue" stroke="midnightblue" points="2409.56,-135.53 2399.63,-131.83 2405.09,-140.92 2409.56,-135.53"/>
</g>
<!-- Node19 -->
<g id="node19" class="node">
<title>Node19</title>
<g id="a_node19"><a xlink:title=" ">
<polygon fill="white" stroke="#bfbfbf" points="2449,-112.5 2449,-131.5 2589,-131.5 2589,-112.5 2449,-112.5"/>
<text text-anchor="middle" x="2519" y="-119.5" font-family="Helvetica,sans-Serif" font-size="10.00">amxd/amxd_parameter.h</text>
</a>
</g>
</g>
<!-- Node2&#45;&gt;Node19 -->
<g id="edge18" class="edge">
<title>Node2&#45;&gt;Node19</title>
<path fill="none" stroke="midnightblue" d="M2464.44,-168.32C2474.15,-160.26 2488.82,-148.08 2500.5,-138.37"/>
<polygon fill="midnightblue" stroke="midnightblue" points="2502.91,-140.92 2508.37,-131.83 2498.44,-135.53 2502.91,-140.92"/>
</g>
<!-- Node20 -->
<g id="node20" class="node">
<title>Node20</title>
<g id="a_node20"><a xlink:title=" ">
<polygon fill="white" stroke="#bfbfbf" points="2607.5,-112.5 2607.5,-131.5 2726.5,-131.5 2726.5,-112.5 2607.5,-112.5"/>
<text text-anchor="middle" x="2667" y="-119.5" font-family="Helvetica,sans-Serif" font-size="10.00">amxd/amxd_action.h</text>
</a>
</g>
</g>
<!-- Node2&#45;&gt;Node20 -->
<g id="edge19" class="edge">
<title>Node2&#45;&gt;Node20</title>
<path fill="none" stroke="midnightblue" d="M2475.6,-171.53C2510.11,-162.78 2578.38,-145.47 2623.36,-134.06"/>
<polygon fill="midnightblue" stroke="midnightblue" points="2624.3,-137.44 2633.14,-131.59 2622.58,-130.65 2624.3,-137.44"/>
</g>
<!-- Node21 -->
<g id="node21" class="node">
<title>Node21</title>
<g id="a_node21"><a xlink:title=" ">
<polygon fill="white" stroke="#bfbfbf" points="2744.5,-112.5 2744.5,-131.5 2919.5,-131.5 2919.5,-112.5 2744.5,-112.5"/>
<text text-anchor="middle" x="2832" y="-119.5" font-family="Helvetica,sans-Serif" font-size="10.00">amxd/amxd_object_parameter.h</text>
</a>
</g>
</g>
<!-- Node2&#45;&gt;Node21 -->
<g id="edge20" class="edge">
<title>Node2&#45;&gt;Node21</title>
<path fill="none" stroke="midnightblue" d="M2475.68,-173.9C2530.23,-166.11 2675.04,-145.42 2762.35,-132.95"/>
<polygon fill="midnightblue" stroke="midnightblue" points="2763.03,-136.39 2772.44,-131.51 2762.04,-129.46 2763.03,-136.39"/>
</g>
<!-- Node22 -->
<g id="node22" class="node">
<title>Node22</title>
<g id="a_node22"><a xlink:title=" ">
<polygon fill="white" stroke="#bfbfbf" points="2938,-112.5 2938,-131.5 3090,-131.5 3090,-112.5 2938,-112.5"/>
<text text-anchor="middle" x="3014" y="-119.5" font-family="Helvetica,sans-Serif" font-size="10.00">amxd/amxd_object_event.h</text>
</a>
</g>
</g>
<!-- Node2&#45;&gt;Node22 -->
<g id="edge21" class="edge">
<title>Node2&#45;&gt;Node22</title>
<path fill="none" stroke="midnightblue" d="M2475.79,-175.02C2541.97,-169 2746.69,-150.22 2927.59,-132.13"/>
<polygon fill="midnightblue" stroke="midnightblue" points="2927.95,-135.61 2937.55,-131.14 2927.25,-128.65 2927.95,-135.61"/>
</g>
<!-- Node23 -->
<g id="node23" class="node">
<title>Node23</title>
<g id="a_node23"><a xlink:title=" ">
<polygon fill="white" stroke="#bfbfbf" points="3108.5,-112.5 3108.5,-131.5 3237.5,-131.5 3237.5,-112.5 3108.5,-112.5"/>
<text text-anchor="middle" x="3173" y="-119.5" font-family="Helvetica,sans-Serif" font-size="10.00">amxd/amxd_function.h</text>
</a>
</g>
</g>
<!-- Node2&#45;&gt;Node23 -->
<g id="edge22" class="edge">
<title>Node2&#45;&gt;Node23</title>
<path fill="none" stroke="midnightblue" d="M2475.75,-175.89C2556.52,-171.68 2847.04,-155.78 3098.4,-132.01"/>
<polygon fill="midnightblue" stroke="midnightblue" points="3098.82,-135.48 3108.45,-131.05 3098.16,-128.51 3098.82,-135.48"/>
</g>
<!-- Node24 -->
<g id="node24" class="node">
<title>Node24</title>
<g id="a_node24"><a xlink:title=" ">
<polygon fill="white" stroke="#bfbfbf" points="3255.5,-112.5 3255.5,-131.5 3424.5,-131.5 3424.5,-112.5 3255.5,-112.5"/>
<text text-anchor="middle" x="3340" y="-119.5" font-family="Helvetica,sans-Serif" font-size="10.00">amxd/amxd_object_hierarchy.h</text>
</a>
</g>
</g>
<!-- Node2&#45;&gt;Node24 -->
<g id="edge23" class="edge">
<title>Node2&#45;&gt;Node24</title>
<path fill="none" stroke="midnightblue" d="M2475.78,-176.08C2567.74,-172.14 2933.45,-155.8 3245.23,-132.11"/>
<polygon fill="midnightblue" stroke="midnightblue" points="3245.66,-135.59 3255.37,-131.33 3245.13,-128.61 3245.66,-135.59"/>
</g>
<!-- Node25 -->
<g id="node25" class="node">
<title>Node25</title>
<g id="a_node25"><a xlink:title=" ">
<polygon fill="white" stroke="#bfbfbf" points="3442.5,-112.5 3442.5,-131.5 3561.5,-131.5 3561.5,-112.5 3442.5,-112.5"/>
<text text-anchor="middle" x="3502" y="-119.5" font-family="Helvetica,sans-Serif" font-size="10.00">amxd/amxd_object.h</text>
</a>
</g>
</g>
<!-- Node2&#45;&gt;Node25 -->
<g id="edge24" class="edge">
<title>Node2&#45;&gt;Node25</title>
<path fill="none" stroke="midnightblue" d="M2475.77,-176.69C2580.51,-175.06 3043.02,-166.23 3432.28,-132.08"/>
<polygon fill="midnightblue" stroke="midnightblue" points="3432.68,-135.56 3442.33,-131.19 3432.06,-128.59 3432.68,-135.56"/>
</g>
<!-- Node26 -->
<g id="node26" class="node">
<title>Node26</title>
<g id="a_node26"><a xlink:title=" ">
<polygon fill="white" stroke="#bfbfbf" points="3579.5,-112.5 3579.5,-131.5 3684.5,-131.5 3684.5,-112.5 3579.5,-112.5"/>
<text text-anchor="middle" x="3632" y="-119.5" font-family="Helvetica,sans-Serif" font-size="10.00">amxd/amxd_dm.h</text>
</a>
</g>
</g>
<!-- Node2&#45;&gt;Node26 -->
<g id="edge25" class="edge">
<title>Node2&#45;&gt;Node26</title>
<path fill="none" stroke="midnightblue" d="M2475.73,-176.98C2588.93,-176.71 3122.74,-173.27 3569.27,-132.06"/>
<polygon fill="midnightblue" stroke="midnightblue" points="3569.84,-135.52 3579.47,-131.11 3569.19,-128.55 3569.84,-135.52"/>
</g>
<!-- Node27 -->
<g id="node27" class="node">
<title>Node27</title>
<g id="a_node27"><a xlink:title=" ">
<polygon fill="white" stroke="#bfbfbf" points="3703,-112.5 3703,-131.5 3847,-131.5 3847,-112.5 3703,-112.5"/>
<text text-anchor="middle" x="3775" y="-119.5" font-family="Helvetica,sans-Serif" font-size="10.00">amxd/amxd_transaction.h</text>
</a>
</g>
</g>
<!-- Node2&#45;&gt;Node27 -->
<g id="edge26" class="edge">
<title>Node2&#45;&gt;Node27</title>
<path fill="none" stroke="midnightblue" d="M2475.65,-176.82C2595.85,-175.67 3193.24,-168.35 3692.31,-132.07"/>
<polygon fill="midnightblue" stroke="midnightblue" points="3692.88,-135.54 3702.6,-131.31 3692.37,-128.55 3692.88,-135.54"/>
</g>
<!-- Node28 -->
<g id="node28" class="node">
<title>Node28</title>
<g id="a_node28"><a xlink:title=" ">
<polygon fill="white" stroke="#bfbfbf" points="3865,-112.5 3865,-131.5 3981,-131.5 3981,-112.5 3865,-112.5"/>
<text text-anchor="middle" x="3923" y="-119.5" font-family="Helvetica,sans-Serif" font-size="10.00">amxb/amxb_types.h</text>
</a>
</g>
</g>
<!-- Node2&#45;&gt;Node28 -->
<g id="edge27" class="edge">
<title>Node2&#45;&gt;Node28</title>
<path fill="none" stroke="midnightblue" d="M2475.88,-177.13C2605.69,-177.73 3287.92,-178.47 3854.92,-131.99"/>
<polygon fill="midnightblue" stroke="midnightblue" points="3855.26,-135.48 3864.93,-131.17 3854.68,-128.5 3855.26,-135.48"/>
</g>
<!-- Node29 -->
<g id="node29" class="node">
<title>Node29</title>
<g id="a_node29"><a xlink:title=" ">
<polygon fill="white" stroke="#bfbfbf" points="3999,-112.5 3999,-131.5 4135,-131.5 4135,-112.5 3999,-112.5"/>
<text text-anchor="middle" x="4067" y="-119.5" font-family="Helvetica,sans-Serif" font-size="10.00">amxb/amxb_operators.h</text>
</a>
</g>
</g>
<!-- Node2&#45;&gt;Node29 -->
<g id="edge28" class="edge">
<title>Node2&#45;&gt;Node29</title>
<path fill="none" stroke="midnightblue" d="M2475.69,-177.07C2612.02,-177.4 3364.56,-177.04 3988.5,-132.04"/>
<polygon fill="midnightblue" stroke="midnightblue" points="3988.88,-135.52 3998.6,-131.31 3988.37,-128.54 3988.88,-135.52"/>
</g>
<!-- Node30 -->
<g id="node30" class="node">
<title>Node30</title>
<g id="a_node30"><a xlink:title=" ">
<polygon fill="white" stroke="#bfbfbf" points="4153,-112.5 4153,-131.5 4265,-131.5 4265,-112.5 4153,-112.5"/>
<text text-anchor="middle" x="4209" y="-119.5" font-family="Helvetica,sans-Serif" font-size="10.00">amxb/amxb_error.h</text>
</a>
</g>
</g>
<!-- Node2&#45;&gt;Node30 -->
<g id="edge29" class="edge">
<title>Node2&#45;&gt;Node30</title>
<path fill="none" stroke="midnightblue" d="M2475.63,-176.76C2646.15,-174.78 3776.66,-160.74 4142.59,-132"/>
<polygon fill="midnightblue" stroke="midnightblue" points="4142.99,-135.48 4152.67,-131.19 4142.42,-128.5 4142.99,-135.48"/>
</g>
<!-- Node31 -->
<g id="node31" class="node">
<title>Node31</title>
<g id="a_node31"><a xlink:title=" ">
<polygon fill="white" stroke="#bfbfbf" points="4283.5,-112.5 4283.5,-131.5 4366.5,-131.5 4366.5,-112.5 4283.5,-112.5"/>
<text text-anchor="middle" x="4325" y="-119.5" font-family="Helvetica,sans-Serif" font-size="10.00">amxo/amxo.h</text>
</a>
</g>
</g>
<!-- Node2&#45;&gt;Node31 -->
<g id="edge30" class="edge">
<title>Node2&#45;&gt;Node31</title>
<path fill="none" stroke="midnightblue" d="M2475.57,-176.91C2653.34,-176.13 3879.52,-169.45 4273.33,-131.86"/>
<polygon fill="midnightblue" stroke="midnightblue" points="4273.71,-135.34 4283.32,-130.88 4273.03,-128.37 4273.71,-135.34"/>
</g>
<!-- Node32 -->
<g id="node32" class="node">
<title>Node32</title>
<g id="a_node32"><a xlink:title=" ">
<polygon fill="white" stroke="#bfbfbf" points="4384.5,-112.5 4384.5,-131.5 4499.5,-131.5 4499.5,-112.5 4384.5,-112.5"/>
<text text-anchor="middle" x="4442" y="-119.5" font-family="Helvetica,sans-Serif" font-size="10.00">amxo/amxo_types.h</text>
</a>
</g>
</g>
<!-- Node2&#45;&gt;Node32 -->
<g id="edge31" class="edge">
<title>Node2&#45;&gt;Node32</title>
<path fill="none" stroke="midnightblue" d="M2475.59,-176.83C2658.95,-175.33 3958.44,-163.71 4374.2,-132.03"/>
<polygon fill="midnightblue" stroke="midnightblue" points="4374.75,-135.5 4384.45,-131.23 4374.21,-128.52 4374.75,-135.5"/>
</g>
<!-- Node33 -->
<g id="node33" class="node">
<title>Node33</title>
<g id="a_node33"><a xlink:href="wld__types_8h.html" target="_top" xlink:title=" ">
<polygon fill="white" stroke="black" points="465.5,-56.5 465.5,-75.5 540.5,-75.5 540.5,-56.5 465.5,-56.5"/>
<text text-anchor="middle" x="503" y="-63.5" font-family="Helvetica,sans-Serif" font-size="10.00">wld_types.h</text>
</a>
</g>
</g>
<!-- Node2&#45;&gt;Node33 -->
<g id="edge32" class="edge">
<title>Node2&#45;&gt;Node33</title>
<path fill="none" stroke="midnightblue" d="M2432.39,-176.95C2213.54,-176.43 405.1,-170.93 367,-132 336.18,-100.5 404.75,-82.32 455.3,-73.56"/>
<polygon fill="midnightblue" stroke="midnightblue" points="456.15,-76.97 465.45,-71.88 455.01,-70.06 456.15,-76.97"/>
</g>
<!-- Node34 -->
<g id="node34" class="node">
<title>Node34</title>
<g id="a_node34"><a xlink:title=" ">
<polygon fill="white" stroke="#bfbfbf" points="476.5,-0.5 476.5,-19.5 621.5,-19.5 621.5,-0.5 476.5,-0.5"/>
<text text-anchor="middle" x="549" y="-7.5" font-family="Helvetica,sans-Serif" font-size="10.00">swl/types/swl_arrayType.h</text>
</a>
</g>
</g>
<!-- Node2&#45;&gt;Node34 -->
<g id="edge61" class="edge">
<title>Node2&#45;&gt;Node34</title>
<path fill="none" stroke="midnightblue" d="M2432.3,-176.83C2247.03,-175.36 935.91,-163.84 860,-132 815.07,-113.16 824.24,-78.45 781,-56 734.95,-32.09 677.77,-20.82 631.71,-15.54"/>
<polygon fill="midnightblue" stroke="midnightblue" points="632.07,-12.06 621.76,-14.47 631.33,-19.02 632.07,-12.06"/>
</g>
<!-- Node35 -->
<g id="node35" class="node">
<title>Node35</title>
<g id="a_node35"><a xlink:title=" ">
<polygon fill="white" stroke="#bfbfbf" points="731.5,-0.5 731.5,-19.5 892.5,-19.5 892.5,-0.5 731.5,-0.5"/>
<text text-anchor="middle" x="812" y="-7.5" font-family="Helvetica,sans-Serif" font-size="10.00">swla/swla_namedTupleType.h</text>
</a>
</g>
</g>
<!-- Node2&#45;&gt;Node35 -->
<g id="edge63" class="edge">
<title>Node2&#45;&gt;Node35</title>
<path fill="none" stroke="midnightblue" d="M2432.45,-177C2248.41,-176.91 946.29,-174.79 877,-132 872.1,-128.98 837.64,-61.72 820.97,-28.81"/>
<polygon fill="midnightblue" stroke="midnightblue" points="824.06,-27.16 816.43,-19.81 817.81,-30.32 824.06,-27.16"/>
</g>
<!-- Node36 -->
<g id="node36" class="node">
<title>Node36</title>
<g id="a_node36"><a xlink:href="wld__channel__types_8h.html" target="_top" xlink:title=" ">
<polygon fill="white" stroke="black" points="76.5,-112.5 76.5,-131.5 195.5,-131.5 195.5,-112.5 76.5,-112.5"/>
<text text-anchor="middle" x="136" y="-119.5" font-family="Helvetica,sans-Serif" font-size="10.00">wld_channel_types.h</text>
</a>
</g>
</g>
<!-- Node2&#45;&gt;Node36 -->
<g id="edge37" class="edge">
<title>Node2&#45;&gt;Node36</title>
<path fill="none" stroke="midnightblue" d="M2432.48,-176.84C2231.52,-175.28 680.69,-162.36 217,-132 213.32,-131.76 209.56,-131.47 205.76,-131.16"/>
<polygon fill="midnightblue" stroke="midnightblue" points="205.94,-127.66 195.66,-130.25 205.31,-134.63 205.94,-127.66"/>
</g>
<!-- Node37 -->
<g id="node37" class="node">
<title>Node37</title>
<g id="a_node37"><a xlink:title=" ">
<polygon fill="white" stroke="#bfbfbf" points="118.5,-56.5 118.5,-75.5 243.5,-75.5 243.5,-56.5 118.5,-56.5"/>
<text text-anchor="middle" x="181" y="-63.5" font-family="Helvetica,sans-Serif" font-size="10.00">swla/swla_chanspec.h</text>
</a>
</g>
</g>
<!-- Node2&#45;&gt;Node37 -->
<g id="edge55" class="edge">
<title>Node2&#45;&gt;Node37</title>
<path fill="none" stroke="midnightblue" d="M2432.35,-176.97C2211.03,-176.62 365.31,-172.49 258,-132 232.04,-122.2 208.68,-99.59 194.68,-83.81"/>
<polygon fill="midnightblue" stroke="midnightblue" points="197.05,-81.2 187.9,-75.86 191.73,-85.74 197.05,-81.2"/>
</g>
<!-- Node38 -->
<g id="node38" class="node">
<title>Node38</title>
<g id="a_node38"><a xlink:href="wld__bgdfs_8h.html" target="_top" xlink:title=" ">
<polygon fill="white" stroke="black" points="376.5,-112.5 376.5,-131.5 451.5,-131.5 451.5,-112.5 376.5,-112.5"/>
<text text-anchor="middle" x="414" y="-119.5" font-family="Helvetica,sans-Serif" font-size="10.00">wld_bgdfs.h</text>
</a>
</g>
</g>
<!-- Node2&#45;&gt;Node38 -->
<g id="edge41" class="edge">
<title>Node2&#45;&gt;Node38</title>
<path fill="none" stroke="midnightblue" d="M2432.49,-177.02C2245.42,-177.13 891.49,-176.43 461.56,-131.95"/>
<polygon fill="midnightblue" stroke="midnightblue" points="461.89,-128.47 451.58,-130.89 461.15,-135.43 461.89,-128.47"/>
</g>
<!-- Node39 -->
<g id="node39" class="node">
<title>Node39</title>
<g id="a_node39"><a xlink:href="wld__rad__delayMgr_8h.html" target="_top" xlink:title=" ">
<polygon fill="white" stroke="black" points="4518,-112.5 4518,-131.5 4632,-131.5 4632,-112.5 4518,-112.5"/>
<text text-anchor="middle" x="4575" y="-119.5" font-family="Helvetica,sans-Serif" font-size="10.00">wld_rad_delayMgr.h</text>
</a>
</g>
</g>
<!-- Node2&#45;&gt;Node39 -->
<g id="edge43" class="edge">
<title>Node2&#45;&gt;Node39</title>
<path fill="none" stroke="midnightblue" d="M2475.6,-176.86C2667.26,-175.57 4077.1,-165.36 4500,-132 4502.52,-131.8 4505.09,-131.57 4507.7,-131.31"/>
<polygon fill="midnightblue" stroke="midnightblue" points="4508.27,-134.77 4517.83,-130.22 4507.52,-127.81 4508.27,-134.77"/>
</g>
<!-- Node40 -->
<g id="node40" class="node">
<title>Node40</title>
<g id="a_node40"><a xlink:href="wld__fsm_8h.html" target="_top" xlink:title=" ">
<polygon fill="white" stroke="black" points="469.5,-112.5 469.5,-131.5 536.5,-131.5 536.5,-112.5 469.5,-112.5"/>
<text text-anchor="middle" x="503" y="-119.5" font-family="Helvetica,sans-Serif" font-size="10.00">wld_fsm.h</text>
</a>
</g>
</g>
<!-- Node2&#45;&gt;Node40 -->
<g id="edge45" class="edge">
<title>Node2&#45;&gt;Node40</title>
<path fill="none" stroke="midnightblue" d="M2432.26,-177.04C2248.98,-177.25 958.96,-177.18 546.87,-131.81"/>
<polygon fill="midnightblue" stroke="midnightblue" points="547.04,-128.31 536.71,-130.66 546.25,-135.26 547.04,-128.31"/>
</g>
<!-- Node41 -->
<g id="node41" class="node">
<title>Node41</title>
<g id="a_node41"><a xlink:href="wld__sensing_8h.html" target="_top" xlink:title=" ">
<polygon fill="white" stroke="black" points="4650,-112.5 4650,-131.5 4736,-131.5 4736,-112.5 4650,-112.5"/>
<text text-anchor="middle" x="4693" y="-119.5" font-family="Helvetica,sans-Serif" font-size="10.00">wld_sensing.h</text>
</a>
</g>
</g>
<!-- Node2&#45;&gt;Node41 -->
<g id="edge47" class="edge">
<title>Node2&#45;&gt;Node41</title>
<path fill="none" stroke="midnightblue" d="M2475.53,-177.01C2673.73,-176.99 4181.45,-175.38 4632,-132 4634.51,-131.76 4637.09,-131.46 4639.69,-131.13"/>
<polygon fill="midnightblue" stroke="midnightblue" points="4640.42,-134.56 4649.83,-129.69 4639.44,-127.63 4640.42,-134.56"/>
</g>
<!-- Node42 -->
<g id="node42" class="node">
<title>Node42</title>
<g id="a_node42"><a xlink:href="wld__mld_8h.html" target="_top" xlink:title=" ">
<polygon fill="white" stroke="black" points="554.5,-112.5 554.5,-131.5 621.5,-131.5 621.5,-112.5 554.5,-112.5"/>
<text text-anchor="middle" x="588" y="-119.5" font-family="Helvetica,sans-Serif" font-size="10.00">wld_mld.h</text>
</a>
</g>
</g>
<!-- Node2&#45;&gt;Node42 -->
<g id="edge49" class="edge">
<title>Node2&#45;&gt;Node42</title>
<path fill="none" stroke="midnightblue" d="M2432.38,-177.01C2254.23,-176.99 1025.51,-175.33 631.7,-131.79"/>
<polygon fill="midnightblue" stroke="midnightblue" points="632.04,-128.31 621.71,-130.66 631.25,-135.26 632.04,-128.31"/>
</g>
<!-- Node43 -->
<g id="node43" class="node">
<title>Node43</title>
<g id="a_node43"><a xlink:href="wld__autoCommitRadData_8h.html" target="_top" xlink:title=" ">
<polygon fill="white" stroke="black" points="4754,-112.5 4754,-131.5 4930,-131.5 4930,-112.5 4754,-112.5"/>
<text text-anchor="middle" x="4842" y="-119.5" font-family="Helvetica,sans-Serif" font-size="10.00">Utils/wld_autoCommitRadData.h</text>
</a>
</g>
</g>
<!-- Node2&#45;&gt;Node43 -->
<g id="edge51" class="edge">
<title>Node2&#45;&gt;Node43</title>
<path fill="none" stroke="midnightblue" d="M2475.72,-176.79C2678.76,-174.82 4247.94,-158.91 4743.9,-132"/>
<polygon fill="midnightblue" stroke="midnightblue" points="4744.2,-135.49 4753.99,-131.45 4743.81,-128.5 4744.2,-135.49"/>
</g>
<!-- Node44 -->
<g id="node44" class="node">
<title>Node44</title>
<g id="a_node44"><a xlink:href="wld__dmnMgt_8h.html" target="_top" xlink:title=" ">
<polygon fill="white" stroke="red" points="640,-112.5 640,-131.5 754,-131.5 754,-112.5 640,-112.5"/>
<text text-anchor="middle" x="697" y="-119.5" font-family="Helvetica,sans-Serif" font-size="10.00">Utils/wld_dmnMgt.h</text>
</a>
</g>
</g>
<!-- Node2&#45;&gt;Node44 -->
<g id="edge52" class="edge">
<title>Node2&#45;&gt;Node44</title>
<path fill="none" stroke="midnightblue" d="M2432.43,-176.72C2260.74,-174.45 1113.42,-158.44 768,-132 766.89,-131.91 765.76,-131.82 764.63,-131.73"/>
<polygon fill="midnightblue" stroke="midnightblue" points="764.58,-128.21 754.3,-130.76 763.93,-135.18 764.58,-128.21"/>
</g>
<!-- Node46 -->
<g id="node45" class="node">
<title>Node46</title>
<g id="a_node45"><a xlink:title=" ">
<polygon fill="white" stroke="#bfbfbf" points="4948.5,-112.5 4948.5,-131.5 5049.5,-131.5 5049.5,-112.5 4948.5,-112.5"/>
<text text-anchor="middle" x="4999" y="-119.5" font-family="Helvetica,sans-Serif" font-size="10.00">swl/swl_staCap.h</text>
</a>
</g>
</g>
<!-- Node2&#45;&gt;Node46 -->
<g id="edge56" class="edge">
<title>Node2&#45;&gt;Node46</title>
<path fill="none" stroke="midnightblue" d="M2475.53,-177C2687.26,-176.95 4400.79,-175.23 4938.16,-131.91"/>
<polygon fill="midnightblue" stroke="midnightblue" points="4938.64,-135.39 4948.32,-131.08 4938.06,-128.41 4938.64,-135.39"/>
</g>
<!-- Node47 -->
<g id="node46" class="node">
<title>Node47</title>
<g id="a_node46"><a xlink:title=" ">
<polygon fill="white" stroke="#bfbfbf" points="5068,-112.5 5068,-131.5 5172,-131.5 5172,-112.5 5068,-112.5"/>
<text text-anchor="middle" x="5120" y="-119.5" font-family="Helvetica,sans-Serif" font-size="10.00">swla/swla_table.h</text>
</a>
</g>
</g>
<!-- Node2&#45;&gt;Node47 -->
<g id="edge57" class="edge">
<title>Node2&#45;&gt;Node47</title>
<path fill="none" stroke="midnightblue" d="M2475.53,-177.01C2692.92,-177.1 4494.71,-176.49 5057.58,-131.98"/>
<polygon fill="midnightblue" stroke="midnightblue" points="5058.12,-135.45 5067.81,-131.15 5057.56,-128.47 5058.12,-135.45"/>
</g>
<!-- Node48 -->
<g id="node47" class="node">
<title>Node48</title>
<g id="a_node47"><a xlink:title=" ">
<polygon fill="white" stroke="#bfbfbf" points="5190.5,-112.5 5190.5,-131.5 5287.5,-131.5 5287.5,-112.5 5190.5,-112.5"/>
<text text-anchor="middle" x="5239" y="-119.5" font-family="Helvetica,sans-Serif" font-size="10.00">swl/swl_assert.h</text>
</a>
</g>
</g>
<!-- Node2&#45;&gt;Node48 -->
<g id="edge58" class="edge">
<title>Node2&#45;&gt;Node48</title>
<path fill="none" stroke="midnightblue" d="M2475.83,-177.06C2700.24,-177.58 4590.75,-180.48 5180.04,-131.91"/>
<polygon fill="midnightblue" stroke="midnightblue" points="5180.65,-135.37 5190.32,-131.05 5180.07,-128.4 5180.65,-135.37"/>
</g>
<!-- Node49 -->
<g id="node48" class="node">
<title>Node49</title>
<g id="a_node48"><a xlink:title=" ">
<polygon fill="white" stroke="#bfbfbf" points="5305.5,-112.5 5305.5,-131.5 5426.5,-131.5 5426.5,-112.5 5305.5,-112.5"/>
<text text-anchor="middle" x="5366" y="-119.5" font-family="Helvetica,sans-Serif" font-size="10.00">swl/swl_returnCode.h</text>
</a>
</g>
</g>
<!-- Node2&#45;&gt;Node49 -->
<g id="edge59" class="edge">
<title>Node2&#45;&gt;Node49</title>
<path fill="none" stroke="midnightblue" d="M2475.67,-177C2704.52,-176.95 4681.05,-175.29 5295.18,-132.03"/>
<polygon fill="midnightblue" stroke="midnightblue" points="5295.73,-135.5 5305.46,-131.29 5295.23,-128.52 5295.73,-135.5"/>
</g>
<!-- Node50 -->
<g id="node49" class="node">
<title>Node50</title>
<g id="a_node49"><a xlink:title=" ">
<polygon fill="white" stroke="#bfbfbf" points="5445,-112.5 5445,-131.5 5571,-131.5 5571,-112.5 5445,-112.5"/>
<text text-anchor="middle" x="5508" y="-119.5" font-family="Helvetica,sans-Serif" font-size="10.00">swla/swla_tupleType.h</text>
</a>
</g>
</g>
<!-- Node2&#45;&gt;Node50 -->
<g id="edge60" class="edge">
<title>Node2&#45;&gt;Node50</title>
<path fill="none" stroke="midnightblue" d="M2475.61,-177C2710.32,-176.98 4789.8,-175.57 5434.5,-132"/>
<polygon fill="midnightblue" stroke="midnightblue" points="5435.09,-135.47 5444.82,-131.29 5434.61,-128.49 5435.09,-135.47"/>
</g>
<!-- Node51 -->
<g id="node50" class="node">
<title>Node51</title>
<g id="a_node50"><a xlink:title=" ">
<polygon fill="white" stroke="#bfbfbf" points="5589,-112.5 5589,-131.5 5675,-131.5 5675,-112.5 5589,-112.5"/>
<text text-anchor="middle" x="5632" y="-119.5" font-family="Helvetica,sans-Serif" font-size="10.00">swl/swl_mlo.h</text>
</a>
</g>
</g>
<!-- Node2&#45;&gt;Node51 -->
<g id="edge62" class="edge">
<title>Node2&#45;&gt;Node51</title>
<path fill="none" stroke="midnightblue" d="M2475.62,-176.9C2732.79,-175.64 5204.31,-162.8 5578.73,-131.89"/>
<polygon fill="midnightblue" stroke="midnightblue" points="5579.28,-135.35 5588.94,-130.99 5578.67,-128.38 5579.28,-135.35"/>
</g>
<!-- Node33&#45;&gt;Node4 -->
<g id="edge33" class="edge">
<title>Node33&#45;&gt;Node4</title>
<path fill="none" stroke="midnightblue" d="M490.15,-56.32C477.78,-47.98 458.87,-35.21 444.26,-25.35"/>
<polygon fill="midnightblue" stroke="midnightblue" points="446.07,-22.35 435.82,-19.65 442.15,-28.15 446.07,-22.35"/>
</g>
<!-- Node33&#45;&gt;Node9 -->
<g id="edge36" class="edge">
<title>Node33&#45;&gt;Node9</title>
<path fill="none" stroke="midnightblue" d="M466.4,-56.44C426.27,-47.06 361.8,-31.99 318.22,-21.8"/>
<polygon fill="midnightblue" stroke="midnightblue" points="318.97,-18.38 308.43,-19.52 317.37,-25.2 318.97,-18.38"/>
</g>
<!-- Node33&#45;&gt;Node34 -->
<g id="edge34" class="edge">
<title>Node33&#45;&gt;Node34</title>
<path fill="none" stroke="midnightblue" d="M510.6,-56.08C517.23,-48.3 527.02,-36.8 535.06,-27.37"/>
<polygon fill="midnightblue" stroke="midnightblue" points="537.73,-29.63 541.55,-19.75 532.4,-25.09 537.73,-29.63"/>
</g>
<!-- Node33&#45;&gt;Node35 -->
<g id="edge35" class="edge">
<title>Node33&#45;&gt;Node35</title>
<path fill="none" stroke="midnightblue" d="M540.58,-58.43C593.52,-49.18 690.58,-32.22 753.14,-21.29"/>
<polygon fill="midnightblue" stroke="midnightblue" points="754.01,-24.69 763.26,-19.52 752.81,-17.79 754.01,-24.69"/>
</g>
<!-- Node36&#45;&gt;Node3 -->
<g id="edge38" class="edge">
<title>Node36&#45;&gt;Node3</title>
<path fill="none" stroke="midnightblue" d="M119.13,-112.32C102.29,-103.66 76.19,-90.24 56.76,-80.25"/>
<polygon fill="midnightblue" stroke="midnightblue" points="58.32,-77.12 47.83,-75.65 55.12,-83.34 58.32,-77.12"/>
</g>
<!-- Node36&#45;&gt;Node9 -->
<g id="edge40" class="edge">
<title>Node36&#45;&gt;Node9</title>
<path fill="none" stroke="midnightblue" d="M127.16,-112.28C114.86,-99.08 95.53,-73.69 109,-56 121.61,-39.44 170.26,-27.42 211.16,-19.99"/>
<polygon fill="midnightblue" stroke="midnightblue" points="211.85,-23.42 221.1,-18.24 210.64,-16.53 211.85,-23.42"/>
</g>
<!-- Node36&#45;&gt;Node37 -->
<g id="edge39" class="edge">
<title>Node36&#45;&gt;Node37</title>
<path fill="none" stroke="midnightblue" d="M143.43,-112.08C149.85,-104.38 159.31,-93.03 167.12,-83.65"/>
<polygon fill="midnightblue" stroke="midnightblue" points="169.99,-85.67 173.71,-75.75 164.62,-81.19 169.99,-85.67"/>
</g>
<!-- Node38&#45;&gt;Node33 -->
<g id="edge42" class="edge">
<title>Node38&#45;&gt;Node33</title>
<path fill="none" stroke="midnightblue" d="M428.3,-112.32C442.18,-103.9 463.49,-90.97 479.8,-81.07"/>
<polygon fill="midnightblue" stroke="midnightblue" points="482,-83.83 488.74,-75.65 478.37,-77.85 482,-83.83"/>
</g>
<!-- Node39&#45;&gt;Node2 -->
<g id="edge44" class="edge">
<title>Node39&#45;&gt;Node2</title>
<path fill="none" stroke="midnightblue" d="M4523.6,-131.52C4521.72,-131.69 4519.84,-131.85 4518,-132 4099.51,-165.01 2714.54,-175.35 2486.02,-176.81"/>
<polygon fill="midnightblue" stroke="midnightblue" points="2485.71,-173.31 2475.73,-176.88 2485.75,-180.31 2485.71,-173.31"/>
</g>
<!-- Node40&#45;&gt;Node33 -->
<g id="edge46" class="edge">
<title>Node40&#45;&gt;Node33</title>
<path fill="none" stroke="midnightblue" d="M503,-112.08C503,-105.01 503,-94.86 503,-85.99"/>
<polygon fill="midnightblue" stroke="midnightblue" points="506.5,-85.75 503,-75.75 499.5,-85.75 506.5,-85.75"/>
</g>
<!-- Node41&#45;&gt;Node2 -->
<g id="edge48" class="edge">
<title>Node41&#45;&gt;Node2</title>
<path fill="none" stroke="midnightblue" d="M4654.43,-131.53C4652.94,-131.7 4651.46,-131.86 4650,-132 4204.16,-174.92 2723.17,-176.95 2486.1,-177.01"/>
<polygon fill="midnightblue" stroke="midnightblue" points="2485.76,-173.51 2475.76,-177.01 2485.76,-180.51 2485.76,-173.51"/>
</g>
<!-- Node42&#45;&gt;Node33 -->
<g id="edge50" class="edge">
<title>Node42&#45;&gt;Node33</title>
<path fill="none" stroke="midnightblue" d="M574.34,-112.32C561.08,-103.9 540.73,-90.97 525.15,-81.07"/>
<polygon fill="midnightblue" stroke="midnightblue" points="526.94,-78.06 516.62,-75.65 523.19,-83.97 526.94,-78.06"/>
</g>
<!-- Node44&#45;&gt;Node5 -->
<g id="edge53" class="edge">
<title>Node44&#45;&gt;Node5</title>
<path fill="none" stroke="midnightblue" d="M700.3,-112.08C702.98,-104.85 706.85,-94.41 710.19,-85.4"/>
<polygon fill="midnightblue" stroke="midnightblue" points="713.57,-86.34 713.76,-75.75 707,-83.91 713.57,-86.34"/>
</g>
<!-- Node44&#45;&gt;Node33 -->
<g id="edge54" class="edge">
<title>Node44&#45;&gt;Node33</title>
<path fill="none" stroke="midnightblue" d="M666.26,-112.44C633.06,-103.2 580.01,-88.44 543.44,-78.26"/>
<polygon fill="midnightblue" stroke="midnightblue" points="544.17,-74.83 533.6,-75.52 542.29,-81.57 544.17,-74.83"/>
</g>
</g>
</svg>
