<?xml version="1.0" encoding="UTF-8" standalone="no"?>
<!DOCTYPE svg PUBLIC "-//W3C//DTD SVG 1.1//EN"
 "http://www.w3.org/Graphics/SVG/1.1/DTD/svg11.dtd">
<!-- Generated by graphviz version 2.43.0 (0)
 -->
<!-- Title: include/wld/wld_nl80211_compat.h Pages: 1 -->
<svg width="880pt" height="151pt"
 viewBox="0.00 0.00 879.50 151.00" xmlns="http://www.w3.org/2000/svg" xmlns:xlink="http://www.w3.org/1999/xlink">
<g id="graph0" class="graph" transform="scale(1 1) rotate(0) translate(4 147)">
<title>include/wld/wld_nl80211_compat.h</title>
<polygon fill="white" stroke="transparent" points="-4,4 -4,-147 875.5,-147 875.5,4 -4,4"/>
<!-- Node1 -->
<g id="node1" class="node">
<title>Node1</title>
<g id="a_node1"><a xlink:title=" ">
<polygon fill="#bfbfbf" stroke="black" points="361.5,-112.5 361.5,-142.5 498.5,-142.5 498.5,-112.5 361.5,-112.5"/>
<text text-anchor="start" x="369.5" y="-130.5" font-family="Helvetica,sans-Serif" font-size="10.00">include/wld/wld_nl80211</text>
<text text-anchor="middle" x="430" y="-119.5" font-family="Helvetica,sans-Serif" font-size="10.00">_compat.h</text>
</a>
</g>
</g>
<!-- Node2 -->
<g id="node2" class="node">
<title>Node2</title>
<g id="a_node2"><a xlink:title=" ">
<polygon fill="white" stroke="#bfbfbf" points="0,-56.5 0,-75.5 84,-75.5 84,-56.5 0,-56.5"/>
<text text-anchor="middle" x="42" y="-63.5" font-family="Helvetica,sans-Serif" font-size="10.00">linux/socket.h</text>
</a>
</g>
</g>
<!-- Node1&#45;&gt;Node2 -->
<g id="edge1" class="edge">
<title>Node1&#45;&gt;Node2</title>
<path fill="none" stroke="midnightblue" d="M361.18,-116.72C295.28,-107.23 192.78,-92.16 94.16,-76.15"/>
<polygon fill="midnightblue" stroke="midnightblue" points="94.44,-72.66 84.01,-74.5 93.32,-79.56 94.44,-72.66"/>
</g>
<!-- Node3 -->
<g id="node3" class="node">
<title>Node3</title>
<g id="a_node3"><a xlink:title=" ">
<polygon fill="white" stroke="#bfbfbf" points="102,-56.5 102,-75.5 188,-75.5 188,-56.5 102,-56.5"/>
<text text-anchor="middle" x="145" y="-63.5" font-family="Helvetica,sans-Serif" font-size="10.00">linux/netlink.h</text>
</a>
</g>
</g>
<!-- Node1&#45;&gt;Node3 -->
<g id="edge2" class="edge">
<title>Node1&#45;&gt;Node3</title>
<path fill="none" stroke="midnightblue" d="M362.82,-112.47C311.61,-101.78 242.19,-87.29 195.61,-77.57"/>
<polygon fill="midnightblue" stroke="midnightblue" points="196.25,-74.12 185.74,-75.51 194.82,-80.98 196.25,-74.12"/>
</g>
<!-- Node4 -->
<g id="node4" class="node">
<title>Node4</title>
<g id="a_node4"><a xlink:href="wld__nl80211_8h.html" target="_top" xlink:title=" ">
<polygon fill="white" stroke="black" points="206.5,-56.5 206.5,-75.5 293.5,-75.5 293.5,-56.5 206.5,-56.5"/>
<text text-anchor="middle" x="250" y="-63.5" font-family="Helvetica,sans-Serif" font-size="10.00">wld_nl80211.h</text>
</a>
</g>
</g>
<!-- Node1&#45;&gt;Node4 -->
<g id="edge3" class="edge">
<title>Node1&#45;&gt;Node4</title>
<path fill="none" stroke="midnightblue" d="M387.34,-112.4C356.37,-102.16 314.95,-88.47 285.72,-78.81"/>
<polygon fill="midnightblue" stroke="midnightblue" points="286.52,-75.39 275.93,-75.57 284.33,-82.03 286.52,-75.39"/>
</g>
<!-- Node6 -->
<g id="node6" class="node">
<title>Node6</title>
<g id="a_node6"><a xlink:title=" ">
<polygon fill="white" stroke="#bfbfbf" points="311.5,-56.5 311.5,-75.5 418.5,-75.5 418.5,-56.5 311.5,-56.5"/>
<text text-anchor="middle" x="365" y="-63.5" font-family="Helvetica,sans-Serif" font-size="10.00">netlink/genl/genl.h</text>
</a>
</g>
</g>
<!-- Node1&#45;&gt;Node6 -->
<g id="edge5" class="edge">
<title>Node1&#45;&gt;Node6</title>
<path fill="none" stroke="midnightblue" d="M414.6,-112.4C404.76,-103.4 392.01,-91.72 381.89,-82.47"/>
<polygon fill="midnightblue" stroke="midnightblue" points="384.2,-79.83 374.46,-75.66 379.47,-84.99 384.2,-79.83"/>
</g>
<!-- Node7 -->
<g id="node7" class="node">
<title>Node7</title>
<g id="a_node7"><a xlink:title=" ">
<polygon fill="white" stroke="#bfbfbf" points="437,-56.5 437,-75.5 553,-75.5 553,-56.5 437,-56.5"/>
<text text-anchor="middle" x="495" y="-63.5" font-family="Helvetica,sans-Serif" font-size="10.00">netlink/genl/family.h</text>
</a>
</g>
</g>
<!-- Node1&#45;&gt;Node7 -->
<g id="edge6" class="edge">
<title>Node1&#45;&gt;Node7</title>
<path fill="none" stroke="midnightblue" d="M445.4,-112.4C455.24,-103.4 467.99,-91.72 478.11,-82.47"/>
<polygon fill="midnightblue" stroke="midnightblue" points="480.53,-84.99 485.54,-75.66 475.8,-79.83 480.53,-84.99"/>
</g>
<!-- Node8 -->
<g id="node8" class="node">
<title>Node8</title>
<g id="a_node8"><a xlink:title=" ">
<polygon fill="white" stroke="#bfbfbf" points="571,-56.5 571,-75.5 673,-75.5 673,-56.5 571,-56.5"/>
<text text-anchor="middle" x="622" y="-63.5" font-family="Helvetica,sans-Serif" font-size="10.00">netlink/genl/ctrl.h</text>
</a>
</g>
</g>
<!-- Node1&#45;&gt;Node8 -->
<g id="edge7" class="edge">
<title>Node1&#45;&gt;Node8</title>
<path fill="none" stroke="midnightblue" d="M475.5,-112.4C508.82,-102.07 553.49,-88.23 584.71,-78.56"/>
<polygon fill="midnightblue" stroke="midnightblue" points="585.83,-81.87 594.34,-75.57 583.75,-75.19 585.83,-81.87"/>
</g>
<!-- Node9 -->
<g id="node9" class="node">
<title>Node9</title>
<g id="a_node9"><a xlink:title=" ">
<polygon fill="white" stroke="#bfbfbf" points="691.5,-56.5 691.5,-75.5 774.5,-75.5 774.5,-56.5 691.5,-56.5"/>
<text text-anchor="middle" x="733" y="-63.5" font-family="Helvetica,sans-Serif" font-size="10.00">netlink/msg.h</text>
</a>
</g>
</g>
<!-- Node1&#45;&gt;Node9 -->
<g id="edge8" class="edge">
<title>Node1&#45;&gt;Node9</title>
<path fill="none" stroke="midnightblue" d="M498.76,-113C554.13,-102.12 630.78,-87.07 681.11,-77.19"/>
<polygon fill="midnightblue" stroke="midnightblue" points="681.98,-80.59 691.12,-75.22 680.63,-73.72 681.98,-80.59"/>
</g>
<!-- Node10 -->
<g id="node10" class="node">
<title>Node10</title>
<g id="a_node10"><a xlink:title=" ">
<polygon fill="white" stroke="#bfbfbf" points="792.5,-56.5 792.5,-75.5 871.5,-75.5 871.5,-56.5 792.5,-56.5"/>
<text text-anchor="middle" x="832" y="-63.5" font-family="Helvetica,sans-Serif" font-size="10.00">netlink/attr.h</text>
</a>
</g>
</g>
<!-- Node1&#45;&gt;Node10 -->
<g id="edge9" class="edge">
<title>Node1&#45;&gt;Node10</title>
<path fill="none" stroke="midnightblue" d="M498.66,-117.61C567.85,-108.44 677.93,-93.3 782.38,-76.21"/>
<polygon fill="midnightblue" stroke="midnightblue" points="783.17,-79.63 792.47,-74.55 782.04,-72.72 783.17,-79.63"/>
</g>
<!-- Node5 -->
<g id="node5" class="node">
<title>Node5</title>
<g id="a_node5"><a xlink:title=" ">
<polygon fill="white" stroke="#bfbfbf" points="193,-0.5 193,-19.5 307,-19.5 307,-0.5 193,-0.5"/>
<text text-anchor="middle" x="250" y="-7.5" font-family="Helvetica,sans-Serif" font-size="10.00">wld_nl80211_path.h</text>
</a>
</g>
</g>
<!-- Node4&#45;&gt;Node5 -->
<g id="edge4" class="edge">
<title>Node4&#45;&gt;Node5</title>
<path fill="none" stroke="midnightblue" d="M250,-56.08C250,-49.01 250,-38.86 250,-29.99"/>
<polygon fill="midnightblue" stroke="midnightblue" points="253.5,-29.75 250,-19.75 246.5,-29.75 253.5,-29.75"/>
</g>
</g>
</svg>
