<?xml version="1.0" encoding="UTF-8" standalone="no"?>
<!DOCTYPE svg PUBLIC "-//W3C//DTD SVG 1.1//EN"
 "http://www.w3.org/Graphics/SVG/1.1/DTD/svg11.dtd">
<!-- Generated by graphviz version 2.43.0 (0)
 -->
<!-- Title: wld_nl80211_getWiphyInfo Pages: 1 -->
<svg width="784pt" height="116pt"
 viewBox="0.00 0.00 784.00 115.50" xmlns="http://www.w3.org/2000/svg" xmlns:xlink="http://www.w3.org/1999/xlink">
<g id="graph0" class="graph" transform="scale(1 1) rotate(0) translate(4 111.5)">
<title>wld_nl80211_getWiphyInfo</title>
<polygon fill="white" stroke="transparent" points="-4,4 -4,-111.5 780,-111.5 780,4 -4,4"/>
<!-- Node1 -->
<g id="node1" class="node">
<title>Node1</title>
<g id="a_node1"><a xlink:title=" ">
<polygon fill="#bfbfbf" stroke="black" points="627,-57.5 627,-76.5 776,-76.5 776,-57.5 627,-57.5"/>
<text text-anchor="middle" x="701.5" y="-64.5" font-family="Helvetica,sans-Serif" font-size="10.00">wld_nl80211_getWiphyInfo</text>
</a>
</g>
</g>
<!-- Node2 -->
<g id="node2" class="node">
<title>Node2</title>
<g id="a_node2"><a xlink:href="wld__nl80211__api_8c.html#a5c34a7f305da83b45a675ca70f943298" target="_top" xlink:title=" ">
<polygon fill="white" stroke="black" points="406,-79.5 406,-98.5 591,-98.5 591,-79.5 406,-79.5"/>
<text text-anchor="middle" x="498.5" y="-86.5" font-family="Helvetica,sans-Serif" font-size="10.00">wld_nl80211_getMaxTxPowerdBm</text>
</a>
</g>
</g>
<!-- Node1&#45;&gt;Node2 -->
<g id="edge1" class="edge">
<title>Node1&#45;&gt;Node2</title>
<path fill="none" stroke="midnightblue" d="M616.54,-76.19C606.61,-77.28 596.46,-78.39 586.49,-79.48"/>
<polygon fill="midnightblue" stroke="midnightblue" points="617.24,-79.63 626.8,-75.07 616.47,-72.68 617.24,-79.63"/>
</g>
<!-- Node5 -->
<g id="node5" class="node">
<title>Node5</title>
<g id="a_node5"><a xlink:href="wld__rad__nl80211_8c.html#aa95d2bdc9f9087faf376b9cc24ada5a8" target="_top" xlink:title=" ">
<polygon fill="white" stroke="black" points="413.5,-38.5 413.5,-57.5 583.5,-57.5 583.5,-38.5 413.5,-38.5"/>
<text text-anchor="middle" x="498.5" y="-45.5" font-family="Helvetica,sans-Serif" font-size="10.00">wld_rad_nl80211_getWiphyInfo</text>
</a>
</g>
</g>
<!-- Node1&#45;&gt;Node5 -->
<g id="edge4" class="edge">
<title>Node1&#45;&gt;Node5</title>
<path fill="none" stroke="midnightblue" d="M616.51,-59.06C605.67,-58.04 594.57,-56.99 583.73,-55.96"/>
<polygon fill="midnightblue" stroke="midnightblue" points="616.51,-62.58 626.8,-60.03 617.17,-55.61 616.51,-62.58"/>
</g>
<!-- Node3 -->
<g id="node3" class="node">
<title>Node3</title>
<g id="a_node3"><a xlink:href="wld__rad__nl80211_8c.html#a3f3e8050dc40df634616371b73ec662c" target="_top" xlink:title=" ">
<polygon fill="white" stroke="black" points="217,-77 217,-107 370,-107 370,-77 217,-77"/>
<text text-anchor="start" x="225" y="-95" font-family="Helvetica,sans-Serif" font-size="10.00">wld_rad_nl80211_getMaxTx</text>
<text text-anchor="middle" x="293.5" y="-84" font-family="Helvetica,sans-Serif" font-size="10.00">PowerdBm</text>
</a>
</g>
</g>
<!-- Node2&#45;&gt;Node3 -->
<g id="edge2" class="edge">
<title>Node2&#45;&gt;Node3</title>
<path fill="none" stroke="midnightblue" d="M395.75,-90.5C387.18,-90.63 378.62,-90.76 370.3,-90.88"/>
<polygon fill="midnightblue" stroke="midnightblue" points="395.85,-94 405.8,-90.36 395.75,-87 395.85,-94"/>
</g>
<!-- Node4 -->
<g id="node4" class="node">
<title>Node4</title>
<g id="a_node4"><a xlink:href="wifiGen__rad_8c.html#a3c9963e5436ba92831dfea8173c958c7" target="_top" xlink:title=" ">
<polygon fill="white" stroke="black" points="0,-82.5 0,-101.5 181,-101.5 181,-82.5 0,-82.5"/>
<text text-anchor="middle" x="90.5" y="-89.5" font-family="Helvetica,sans-Serif" font-size="10.00">wifiGen_rad_getMaxTxPowerdBm</text>
</a>
</g>
</g>
<!-- Node3&#45;&gt;Node4 -->
<g id="edge3" class="edge">
<title>Node3&#45;&gt;Node4</title>
<path fill="none" stroke="midnightblue" d="M206.66,-92C198.28,-92 189.76,-92 181.34,-92"/>
<polygon fill="midnightblue" stroke="midnightblue" points="206.8,-95.5 216.8,-92 206.8,-88.5 206.8,-95.5"/>
</g>
<!-- Node6 -->
<g id="node6" class="node">
<title>Node6</title>
<g id="a_node6"><a xlink:href="wifiGen__rad_8c.html#a773e3bf8638f377f248e9c7a0cba4442" target="_top" xlink:title=" ">
<polygon fill="white" stroke="black" points="251.5,-38.5 251.5,-57.5 335.5,-57.5 335.5,-38.5 251.5,-38.5"/>
<text text-anchor="middle" x="293.5" y="-45.5" font-family="Helvetica,sans-Serif" font-size="10.00">s_getMaxPow</text>
</a>
</g>
</g>
<!-- Node5&#45;&gt;Node6 -->
<g id="edge5" class="edge">
<title>Node5&#45;&gt;Node6</title>
<path fill="none" stroke="midnightblue" d="M403.34,-48C379.6,-48 355.32,-48 335.74,-48"/>
<polygon fill="midnightblue" stroke="midnightblue" points="403.47,-51.5 413.47,-48 403.47,-44.5 403.47,-51.5"/>
</g>
<!-- Node8 -->
<g id="node8" class="node">
<title>Node8</title>
<g id="a_node8"><a xlink:href="wifiGen__rad_8c.html#a5971e495b5dfe5dc615d5c1c050faa87" target="_top" xlink:title=" ">
<polygon fill="white" stroke="black" points="231,-0.5 231,-19.5 356,-19.5 356,-0.5 231,-0.5"/>
<text text-anchor="middle" x="293.5" y="-7.5" font-family="Helvetica,sans-Serif" font-size="10.00">wifiGen_rad_poschans</text>
</a>
</g>
</g>
<!-- Node5&#45;&gt;Node8 -->
<g id="edge7" class="edge">
<title>Node5&#45;&gt;Node8</title>
<path fill="none" stroke="midnightblue" d="M436.5,-36.58C407.46,-31.14 373.12,-24.72 345.48,-19.54"/>
<polygon fill="midnightblue" stroke="midnightblue" points="436.06,-40.06 446.54,-38.46 437.35,-33.18 436.06,-40.06"/>
</g>
<!-- Node7 -->
<g id="node7" class="node">
<title>Node7</title>
<g id="a_node7"><a xlink:href="wifiGen__rad_8c.html#a65e1e8b585dc92e66407f6c90bff7db2" target="_top" xlink:title=" ">
<polygon fill="white" stroke="black" points="35.5,-38.5 35.5,-57.5 145.5,-57.5 145.5,-38.5 35.5,-38.5"/>
<text text-anchor="middle" x="90.5" y="-45.5" font-family="Helvetica,sans-Serif" font-size="10.00">wifiGen_rad_txpow</text>
</a>
</g>
</g>
<!-- Node6&#45;&gt;Node7 -->
<g id="edge6" class="edge">
<title>Node6&#45;&gt;Node7</title>
<path fill="none" stroke="midnightblue" d="M241.32,-48C212.04,-48 175.33,-48 145.58,-48"/>
<polygon fill="midnightblue" stroke="midnightblue" points="241.34,-51.5 251.34,-48 241.34,-44.5 241.34,-51.5"/>
</g>
</g>
</svg>
