<?xml version="1.0" encoding="UTF-8" standalone="no"?>
<!DOCTYPE svg PUBLIC "-//W3C//DTD SVG 1.1//EN"
 "http://www.w3.org/Graphics/SVG/1.1/DTD/svg11.dtd">
<!-- Generated by graphviz version 2.43.0 (0)
 -->
<!-- Title: wld_hostapd_cfgFile_create Pages: 1 -->
<svg width="305pt" height="104pt"
 viewBox="0.00 0.00 305.00 104.00" xmlns="http://www.w3.org/2000/svg" xmlns:xlink="http://www.w3.org/1999/xlink">
<g id="graph0" class="graph" transform="scale(1 1) rotate(0) translate(4 100)">
<title>wld_hostapd_cfgFile_create</title>
<polygon fill="white" stroke="transparent" points="-4,4 -4,-100 301,-100 301,4 -4,4"/>
<!-- Node1 -->
<g id="node1" class="node">
<title>Node1</title>
<g id="a_node1"><a xlink:title="create a configuration file for the hostapd">
<polygon fill="#bfbfbf" stroke="black" points="0,-33 0,-63 116,-63 116,-33 0,-33"/>
<text text-anchor="start" x="8" y="-51" font-family="Helvetica,sans-Serif" font-size="10.00">wld_hostapd_cfgFile</text>
<text text-anchor="middle" x="58" y="-40" font-family="Helvetica,sans-Serif" font-size="10.00">_create</text>
</a>
</g>
</g>
<!-- Node2 -->
<g id="node2" class="node">
<title>Node2</title>
<g id="a_node2"><a xlink:href="wld__hostapd__cfgManager_8c.html#a230de7631aaa80ccf994572e40d95b70" target="_top" xlink:title="create wld_hostapd_config_t structure from Radio and Vaps configuration">
<polygon fill="white" stroke="black" points="152,-76.5 152,-95.5 297,-95.5 297,-76.5 152,-76.5"/>
<text text-anchor="middle" x="224.5" y="-83.5" font-family="Helvetica,sans-Serif" font-size="10.00">wld_hostapd_createConfig</text>
</a>
</g>
</g>
<!-- Node1&#45;&gt;Node2 -->
<g id="edge1" class="edge">
<title>Node1&#45;&gt;Node2</title>
<path fill="none" stroke="midnightblue" d="M116.07,-61.18C134.3,-65.39 154.36,-70.03 172.15,-74.14"/>
<polygon fill="midnightblue" stroke="midnightblue" points="171.81,-77.65 182.34,-76.49 173.38,-70.83 171.81,-77.65"/>
</g>
<!-- Node3 -->
<g id="node3" class="node">
<title>Node3</title>
<g id="a_node3"><a xlink:href="wld__hostapd__cfgManager_8c.html#abcd4b96a1191c1c593ab53f9d419e740" target="_top" xlink:title="delete a wld_hostapd_config_t map already loaded from hostapd file">
<polygon fill="white" stroke="black" points="152,-38.5 152,-57.5 297,-57.5 297,-38.5 152,-38.5"/>
<text text-anchor="middle" x="224.5" y="-45.5" font-family="Helvetica,sans-Serif" font-size="10.00">wld_hostapd_deleteConfig</text>
</a>
</g>
</g>
<!-- Node1&#45;&gt;Node3 -->
<g id="edge2" class="edge">
<title>Node1&#45;&gt;Node3</title>
<path fill="none" stroke="midnightblue" d="M116.07,-48C124.34,-48 132.99,-48 141.63,-48"/>
<polygon fill="midnightblue" stroke="midnightblue" points="141.75,-51.5 151.75,-48 141.75,-44.5 141.75,-51.5"/>
</g>
<!-- Node4 -->
<g id="node4" class="node">
<title>Node4</title>
<g id="a_node4"><a xlink:href="wld__hostapd__cfgManager_8c.html#aab797f94a64ba5206cdc5e379ba8d3e2" target="_top" xlink:title="write the content of hostapd_config into a file">
<polygon fill="white" stroke="black" points="155,-0.5 155,-19.5 294,-19.5 294,-0.5 155,-0.5"/>
<text text-anchor="middle" x="224.5" y="-7.5" font-family="Helvetica,sans-Serif" font-size="10.00">wld_hostapd_writeConfig</text>
</a>
</g>
</g>
<!-- Node1&#45;&gt;Node4 -->
<g id="edge3" class="edge">
<title>Node1&#45;&gt;Node4</title>
<path fill="none" stroke="midnightblue" d="M116.07,-34.82C134.3,-30.61 154.36,-25.97 172.15,-21.86"/>
<polygon fill="midnightblue" stroke="midnightblue" points="173.38,-25.17 182.34,-19.51 171.81,-18.35 173.38,-25.17"/>
</g>
</g>
</svg>
