<?xml version="1.0" encoding="UTF-8" standalone="no"?>
<!DOCTYPE svg PUBLIC "-//W3C//DTD SVG 1.1//EN"
 "http://www.w3.org/Graphics/SVG/1.1/DTD/svg11.dtd">
<!-- Generated by graphviz version 2.43.0 (0)
 -->
<!-- Title: wld_event_remove_callback Pages: 1 -->
<svg width="497pt" height="142pt"
 viewBox="0.00 0.00 497.00 142.00" xmlns="http://www.w3.org/2000/svg" xmlns:xlink="http://www.w3.org/1999/xlink">
<g id="graph0" class="graph" transform="scale(1 1) rotate(0) translate(4 138)">
<title>wld_event_remove_callback</title>
<polygon fill="white" stroke="transparent" points="-4,4 -4,-138 493,-138 493,4 -4,4"/>
<!-- Node1 -->
<g id="node1" class="node">
<title>Node1</title>
<g id="a_node1"><a xlink:title=" ">
<polygon fill="#bfbfbf" stroke="black" points="334,-57.5 334,-76.5 489,-76.5 489,-57.5 334,-57.5"/>
<text text-anchor="middle" x="411.5" y="-64.5" font-family="Helvetica,sans-Serif" font-size="10.00">wld_event_remove_callback</text>
</a>
</g>
</g>
<!-- Node2 -->
<g id="node2" class="node">
<title>Node2</title>
<g id="a_node2"><a xlink:href="wifiGen__rad_8c.html#a282d705f76d982294bd85df4c5ff19e5" target="_top" xlink:title=" ">
<polygon fill="white" stroke="black" points="156,-114.5 156,-133.5 298,-133.5 298,-114.5 156,-114.5"/>
<text text-anchor="middle" x="227" y="-121.5" font-family="Helvetica,sans-Serif" font-size="10.00">wifiGen_rad_destroyHook</text>
</a>
</g>
</g>
<!-- Node1&#45;&gt;Node2 -->
<g id="edge1" class="edge">
<title>Node1&#45;&gt;Node2</title>
<path fill="none" stroke="midnightblue" d="M374.24,-79.87C352.28,-87.51 323.65,-97.19 298,-105 287.28,-108.26 275.55,-111.55 264.81,-114.46"/>
<polygon fill="midnightblue" stroke="midnightblue" points="375.54,-83.12 383.83,-76.52 373.23,-76.52 375.54,-83.12"/>
</g>
<!-- Node3 -->
<g id="node3" class="node">
<title>Node3</title>
<g id="a_node3"><a xlink:href="wld__rad__scan_8c.html#ae0152b9d0d78f683d24d8e3b5b6c8521" target="_top" xlink:title=" ">
<polygon fill="white" stroke="black" points="175,-76.5 175,-95.5 279,-95.5 279,-76.5 175,-76.5"/>
<text text-anchor="middle" x="227" y="-83.5" font-family="Helvetica,sans-Serif" font-size="10.00">wld_scan_destroy</text>
</a>
</g>
</g>
<!-- Node1&#45;&gt;Node3 -->
<g id="edge2" class="edge">
<title>Node1&#45;&gt;Node3</title>
<path fill="none" stroke="midnightblue" d="M323.9,-76.02C308.62,-77.61 293.16,-79.22 279.25,-80.66"/>
<polygon fill="midnightblue" stroke="midnightblue" points="324.31,-79.49 333.9,-74.98 323.59,-72.53 324.31,-79.49"/>
</g>
<!-- Node4 -->
<g id="node4" class="node">
<title>Node4</title>
<g id="a_node4"><a xlink:href="wld__tinyRoam_8c.html#a1e5262ecc674d9db2f6e5de82c464930" target="_top" xlink:title=" ">
<polygon fill="white" stroke="black" points="162,-38.5 162,-57.5 292,-57.5 292,-38.5 162,-38.5"/>
<text text-anchor="middle" x="227" y="-45.5" font-family="Helvetica,sans-Serif" font-size="10.00">wld_tinyRoam_cleanup</text>
</a>
</g>
</g>
<!-- Node1&#45;&gt;Node4 -->
<g id="edge3" class="edge">
<title>Node1&#45;&gt;Node4</title>
<path fill="none" stroke="midnightblue" d="M323.77,-57.97C313.16,-56.87 302.47,-55.75 292.28,-54.69"/>
<polygon fill="midnightblue" stroke="midnightblue" points="323.59,-61.47 333.9,-59.02 324.31,-54.51 323.59,-61.47"/>
</g>
<!-- Node5 -->
<g id="node5" class="node">
<title>Node5</title>
<g id="a_node5"><a xlink:href="wld__zwdfs_8c.html#ad6a66791a95bcbd7047eb671a562d4a5" target="_top" xlink:title=" ">
<polygon fill="white" stroke="black" points="176.5,-0.5 176.5,-19.5 277.5,-19.5 277.5,-0.5 176.5,-0.5"/>
<text text-anchor="middle" x="227" y="-7.5" font-family="Helvetica,sans-Serif" font-size="10.00">wld_zwdfs_deinit</text>
</a>
</g>
</g>
<!-- Node1&#45;&gt;Node5 -->
<g id="edge4" class="edge">
<title>Node1&#45;&gt;Node5</title>
<path fill="none" stroke="midnightblue" d="M374.24,-54.13C352.28,-46.49 323.65,-36.81 298,-29 287.28,-25.74 275.55,-22.45 264.81,-19.54"/>
<polygon fill="midnightblue" stroke="midnightblue" points="373.23,-57.48 383.83,-57.48 375.54,-50.88 373.23,-57.48"/>
</g>
<!-- Node6 -->
<g id="node6" class="node">
<title>Node6</title>
<g id="a_node6"><a xlink:href="wifiGen__zwdfs_8c.html#a99d222da31fe11a8a1f5c6d2e12f2376" target="_top" xlink:title=" ">
<polygon fill="white" stroke="black" points="0,-0.5 0,-19.5 120,-19.5 120,-0.5 0,-0.5"/>
<text text-anchor="middle" x="60" y="-7.5" font-family="Helvetica,sans-Serif" font-size="10.00">wifiGen_zwdfs_deinit</text>
</a>
</g>
</g>
<!-- Node5&#45;&gt;Node6 -->
<g id="edge5" class="edge">
<title>Node5&#45;&gt;Node6</title>
<path fill="none" stroke="midnightblue" d="M166.28,-10C151.23,-10 135.09,-10 120.07,-10"/>
<polygon fill="midnightblue" stroke="midnightblue" points="166.49,-13.5 176.49,-10 166.49,-6.5 166.49,-13.5"/>
</g>
</g>
</svg>
