<?xml version="1.0" encoding="UTF-8" standalone="no"?>
<!DOCTYPE svg PUBLIC "-//W3C//DTD SVG 1.1//EN"
 "http://www.w3.org/Graphics/SVG/1.1/DTD/svg11.dtd">
<!-- Generated by graphviz version 2.43.0 (0)
 -->
<!-- Title: wld_secDmn_stop Pages: 1 -->
<svg width="1254pt" height="394pt"
 viewBox="0.00 0.00 1254.00 393.50" xmlns="http://www.w3.org/2000/svg" xmlns:xlink="http://www.w3.org/1999/xlink">
<g id="graph0" class="graph" transform="scale(1 1) rotate(0) translate(4 389.5)">
<title>wld_secDmn_stop</title>
<polygon fill="white" stroke="transparent" points="-4,4 -4,-389.5 1250,-389.5 1250,4 -4,4"/>
<!-- Node1 -->
<g id="node1" class="node">
<title>Node1</title>
<g id="a_node1"><a xlink:title=" ">
<polygon fill="#bfbfbf" stroke="black" points="0,-271 0,-290 105,-290 105,-271 0,-271"/>
<text text-anchor="middle" x="52.5" y="-278" font-family="Helvetica,sans-Serif" font-size="10.00">wld_secDmn_stop</text>
</a>
</g>
</g>
<!-- Node2 -->
<g id="node2" class="node">
<title>Node2</title>
<g id="a_node2"><a xlink:href="wld__daemon_8c.html#ab5b83dfbd0686247be8426a033dd575d" target="_top" xlink:title=" ">
<polygon fill="white" stroke="black" points="170.5,-366 170.5,-385 283.5,-385 283.5,-366 170.5,-366"/>
<text text-anchor="middle" x="227" y="-373" font-family="Helvetica,sans-Serif" font-size="10.00">wld_dmn_isEnabled</text>
</a>
</g>
</g>
<!-- Node1&#45;&gt;Node2 -->
<g id="edge1" class="edge">
<title>Node1&#45;&gt;Node2</title>
<path fill="none" stroke="midnightblue" d="M61.59,-290.13C75.87,-306.46 107.23,-339.45 141,-356.5 147.08,-359.57 153.64,-362.14 160.34,-364.31"/>
<polygon fill="midnightblue" stroke="midnightblue" points="159.63,-367.74 170.21,-367.19 161.59,-361.03 159.63,-367.74"/>
</g>
<!-- Node3 -->
<g id="node3" class="node">
<title>Node3</title>
<g id="a_node3"><a xlink:href="wld__daemon_8c.html#adc439fdc85e1c992a5ba6e79b4ebd3a3" target="_top" xlink:title=" ">
<polygon fill="white" stroke="black" points="163,-328 163,-347 291,-347 291,-328 163,-328"/>
<text text-anchor="middle" x="227" y="-335" font-family="Helvetica,sans-Serif" font-size="10.00">wld_dmn_stopDeamon</text>
</a>
</g>
</g>
<!-- Node1&#45;&gt;Node3 -->
<g id="edge2" class="edge">
<title>Node1&#45;&gt;Node3</title>
<path fill="none" stroke="midnightblue" d="M72.55,-290.03C90.01,-298.46 116.75,-310.6 141,-318.5 148.96,-321.09 157.45,-323.45 165.87,-325.56"/>
<polygon fill="midnightblue" stroke="midnightblue" points="165.14,-328.98 175.68,-327.91 166.77,-322.17 165.14,-328.98"/>
</g>
<!-- Node4 -->
<g id="node4" class="node">
<title>Node4</title>
<g id="a_node4"><a xlink:href="wld__secDmn_8c.html#a1b0cc11a41a11e2033f3188fd05a0d80" target="_top" xlink:title=" ">
<polygon fill="white" stroke="black" points="152,-290 152,-309 302,-309 302,-290 152,-290"/>
<text text-anchor="middle" x="227" y="-297" font-family="Helvetica,sans-Serif" font-size="10.00">wld_secDmn_isGrpMember</text>
</a>
</g>
</g>
<!-- Node1&#45;&gt;Node4 -->
<g id="edge3" class="edge">
<title>Node1&#45;&gt;Node4</title>
<path fill="none" stroke="midnightblue" d="M105.26,-286.2C116.85,-287.48 129.43,-288.86 141.95,-290.24"/>
<polygon fill="midnightblue" stroke="midnightblue" points="141.64,-293.73 151.96,-291.34 142.4,-286.77 141.64,-293.73"/>
</g>
<!-- Node6 -->
<g id="node6" class="node">
<title>Node6</title>
<g id="a_node6"><a xlink:href="wld__secDmn_8c.html#ad694ff05adbf2a8f84da2e8a876562ac" target="_top" xlink:title=" ">
<polygon fill="white" stroke="black" points="141,-252 141,-271 313,-271 313,-252 141,-252"/>
<text text-anchor="middle" x="227" y="-259" font-family="Helvetica,sans-Serif" font-size="10.00">wld_secDmn_setRestartNeeded</text>
</a>
</g>
</g>
<!-- Node1&#45;&gt;Node6 -->
<g id="edge5" class="edge">
<title>Node1&#45;&gt;Node6</title>
<path fill="none" stroke="midnightblue" d="M105.26,-274.8C113.32,-273.91 121.86,-272.97 130.52,-272.02"/>
<polygon fill="midnightblue" stroke="midnightblue" points="131.18,-275.47 140.74,-270.89 130.41,-268.51 131.18,-275.47"/>
</g>
<!-- Node7 -->
<g id="node7" class="node">
<title>Node7</title>
<g id="a_node7"><a xlink:href="wld__secDmnGrp_8c.html#a6b3f94c327b8a6bbd1b6f88c007f0a6c" target="_top" xlink:title=" ">
<polygon fill="white" stroke="black" points="145.5,-214 145.5,-233 308.5,-233 308.5,-214 145.5,-214"/>
<text text-anchor="middle" x="227" y="-221" font-family="Helvetica,sans-Serif" font-size="10.00">wld_secDmnGrp_stopMember</text>
</a>
</g>
</g>
<!-- Node1&#45;&gt;Node7 -->
<g id="edge6" class="edge">
<title>Node1&#45;&gt;Node7</title>
<path fill="none" stroke="midnightblue" d="M72.55,-270.97C90.01,-262.54 116.75,-250.4 141,-242.5 148.96,-239.91 157.45,-237.55 165.87,-235.44"/>
<polygon fill="midnightblue" stroke="midnightblue" points="166.77,-238.83 175.68,-233.09 165.14,-232.02 166.77,-238.83"/>
</g>
<!-- Node8 -->
<g id="node8" class="node">
<title>Node8</title>
<g id="a_node8"><a xlink:href="wld__wpaCtrlMngr_8c.html#a65f1d3c48476ca6584852b18fc80b2d9" target="_top" xlink:title="disconnect from wpa_ctrl server">
<polygon fill="white" stroke="black" points="147.5,-176 147.5,-195 306.5,-195 306.5,-176 147.5,-176"/>
<text text-anchor="middle" x="227" y="-183" font-family="Helvetica,sans-Serif" font-size="10.00">wld_wpaCtrlMngr_disconnect</text>
</a>
</g>
</g>
<!-- Node1&#45;&gt;Node8 -->
<g id="edge7" class="edge">
<title>Node1&#45;&gt;Node8</title>
<path fill="none" stroke="midnightblue" d="M61.59,-270.87C75.87,-254.54 107.23,-221.55 141,-204.5 145.81,-202.07 150.93,-199.95 156.17,-198.1"/>
<polygon fill="midnightblue" stroke="midnightblue" points="157.25,-201.43 165.71,-195.05 155.12,-194.76 157.25,-201.43"/>
</g>
<!-- Node5 -->
<g id="node5" class="node">
<title>Node5</title>
<g id="a_node5"><a xlink:href="wld__secDmnGrp_8c.html#ae5da21db2381b2d5a1f16df5d388d5df" target="_top" xlink:title=" ">
<polygon fill="white" stroke="black" points="349,-290 349,-309 487,-309 487,-290 349,-290"/>
<text text-anchor="middle" x="418" y="-297" font-family="Helvetica,sans-Serif" font-size="10.00">wld_secDmnGrp_getProc</text>
</a>
</g>
</g>
<!-- Node4&#45;&gt;Node5 -->
<g id="edge4" class="edge">
<title>Node4&#45;&gt;Node5</title>
<path fill="none" stroke="midnightblue" d="M302.16,-299.5C314.19,-299.5 326.69,-299.5 338.83,-299.5"/>
<polygon fill="midnightblue" stroke="midnightblue" points="338.91,-303 348.91,-299.5 338.91,-296 338.91,-303"/>
</g>
<!-- Node9 -->
<g id="node9" class="node">
<title>Node9</title>
<g id="a_node9"><a xlink:href="wld__wpaCtrlInterface_8c.html#a303019c3b064bd2babeb3582ecd91d7f" target="_top" xlink:title="close the wpaCtrl interface to wpa_ctrl server This function closes all relative connections (cmd and...">
<polygon fill="white" stroke="black" points="358,-170.5 358,-200.5 478,-200.5 478,-170.5 358,-170.5"/>
<text text-anchor="start" x="366" y="-188.5" font-family="Helvetica,sans-Serif" font-size="10.00">wld_wpaCtrlInterface</text>
<text text-anchor="middle" x="418" y="-177.5" font-family="Helvetica,sans-Serif" font-size="10.00">_close</text>
</a>
</g>
</g>
<!-- Node8&#45;&gt;Node9 -->
<g id="edge8" class="edge">
<title>Node8&#45;&gt;Node9</title>
<path fill="none" stroke="midnightblue" d="M306.51,-185.5C320.17,-185.5 334.29,-185.5 347.68,-185.5"/>
<polygon fill="midnightblue" stroke="midnightblue" points="347.76,-189 357.76,-185.5 347.76,-182 347.76,-189"/>
</g>
<!-- Node10 -->
<g id="node10" class="node">
<title>Node10</title>
<g id="a_node10"><a xlink:href="wld__wpaCtrlConnection_8c.html#ac77a8013582067279ce3a0ccda177ed8" target="_top" xlink:title=" ">
<polygon fill="white" stroke="black" points="541,-263.5 541,-293.5 672,-293.5 672,-263.5 541,-263.5"/>
<text text-anchor="start" x="549" y="-281.5" font-family="Helvetica,sans-Serif" font-size="10.00">wld_wpaCtrlConnection</text>
<text text-anchor="middle" x="606.5" y="-270.5" font-family="Helvetica,sans-Serif" font-size="10.00">_close</text>
</a>
</g>
</g>
<!-- Node9&#45;&gt;Node10 -->
<g id="edge9" class="edge">
<title>Node9&#45;&gt;Node10</title>
<path fill="none" stroke="midnightblue" d="M437.89,-200.6C457.97,-216.02 491.16,-239.73 523,-254.5 527.26,-256.48 531.72,-258.33 536.26,-260.06"/>
<polygon fill="midnightblue" stroke="midnightblue" points="535.08,-263.35 545.67,-263.44 537.44,-256.76 535.08,-263.35"/>
</g>
<!-- Node11 -->
<g id="node11" class="node">
<title>Node11</title>
<g id="a_node11"><a xlink:href="wld__wpaCtrlConnection_8c.html#a47a34d899bc01dfe767b26ee4f7b87db" target="_top" xlink:title=" ">
<polygon fill="white" stroke="black" points="935.5,-129.5 935.5,-159.5 1066.5,-159.5 1066.5,-129.5 935.5,-129.5"/>
<text text-anchor="start" x="943.5" y="-147.5" font-family="Helvetica,sans-Serif" font-size="10.00">wld_wpaCtrlConnection</text>
<text text-anchor="middle" x="1001" y="-136.5" font-family="Helvetica,sans-Serif" font-size="10.00">_getConnSrvPath</text>
</a>
</g>
</g>
<!-- Node9&#45;&gt;Node11 -->
<g id="edge10" class="edge">
<title>Node9&#45;&gt;Node11</title>
<path fill="none" stroke="midnightblue" d="M478.33,-185.97C567.39,-186.02 740.81,-183.6 887,-166.5 899.45,-165.04 912.59,-162.98 925.32,-160.69"/>
<polygon fill="midnightblue" stroke="midnightblue" points="926.24,-164.08 935.43,-158.82 924.96,-157.2 926.24,-164.08"/>
</g>
<!-- Node12 -->
<g id="node12" class="node">
<title>Node12</title>
<g id="a_node12"><a xlink:href="wld__wpaCtrlConnection_8c.html#af7414d719a14459bfbf836e77f643aff" target="_top" xlink:title=" ">
<polygon fill="white" stroke="black" points="534,-214.5 534,-244.5 679,-244.5 679,-214.5 534,-214.5"/>
<text text-anchor="start" x="542" y="-232.5" font-family="Helvetica,sans-Serif" font-size="10.00">wld_wpaCtrlConnection</text>
<text text-anchor="middle" x="606.5" y="-221.5" font-family="Helvetica,sans-Serif" font-size="10.00">_sendCmdCheckResponse</text>
</a>
</g>
</g>
<!-- Node9&#45;&gt;Node12 -->
<g id="edge11" class="edge">
<title>Node9&#45;&gt;Node12</title>
<path fill="none" stroke="midnightblue" d="M478.01,-199.42C495.12,-203.46 514.01,-207.92 531.89,-212.13"/>
<polygon fill="midnightblue" stroke="midnightblue" points="531.17,-215.56 541.71,-214.45 532.78,-208.75 531.17,-215.56"/>
</g>
<!-- Node18 -->
<g id="node18" class="node">
<title>Node18</title>
<g id="a_node18"><a xlink:href="wld__wpaCtrlInterface_8c.html#a6bc5243e885837a4bdb99fec68952a95" target="_top" xlink:title=" ">
<polygon fill="white" stroke="black" points="543.5,-126.5 543.5,-156.5 669.5,-156.5 669.5,-126.5 543.5,-126.5"/>
<text text-anchor="start" x="551.5" y="-144.5" font-family="Helvetica,sans-Serif" font-size="10.00">wld_wpaCtrlInterface</text>
<text text-anchor="middle" x="606.5" y="-133.5" font-family="Helvetica,sans-Serif" font-size="10.00">_checkConnectionPath</text>
</a>
</g>
</g>
<!-- Node9&#45;&gt;Node18 -->
<g id="edge17" class="edge">
<title>Node9&#45;&gt;Node18</title>
<path fill="none" stroke="midnightblue" d="M478.01,-171.58C495.65,-167.42 515.19,-162.81 533.56,-158.47"/>
<polygon fill="midnightblue" stroke="midnightblue" points="534.4,-161.87 543.33,-156.17 532.8,-155.06 534.4,-161.87"/>
</g>
<!-- Node21 -->
<g id="node21" class="node">
<title>Node21</title>
<g id="a_node21"><a xlink:href="wld__wpaCtrlMngr_8c.html#ad3e7ad2284a85ee77e110a90f0fd34ae" target="_top" xlink:title="check that wpaCtrl manager is connected: i.e can receive events from its main interface.">
<polygon fill="white" stroke="black" points="523,-50 523,-69 690,-69 690,-50 523,-50"/>
<text text-anchor="middle" x="606.5" y="-57" font-family="Helvetica,sans-Serif" font-size="10.00">wld_wpaCtrlMngr_isConnected</text>
</a>
</g>
</g>
<!-- Node9&#45;&gt;Node21 -->
<g id="edge21" class="edge">
<title>Node9&#45;&gt;Node21</title>
<path fill="none" stroke="midnightblue" d="M441.5,-170.3C477.4,-146.04 547.25,-98.85 583.1,-74.64"/>
<polygon fill="midnightblue" stroke="midnightblue" points="585.11,-77.5 591.44,-69 581.19,-71.7 585.11,-77.5"/>
</g>
<!-- Node13 -->
<g id="node13" class="node">
<title>Node13</title>
<g id="a_node13"><a xlink:href="wld__wpaCtrlConnection_8c.html#a5ddba0537d0917bc518e9ef71b539f75" target="_top" xlink:title=" ">
<polygon fill="white" stroke="black" points="726,-214.5 726,-244.5 887,-244.5 887,-214.5 726,-214.5"/>
<text text-anchor="start" x="734" y="-232.5" font-family="Helvetica,sans-Serif" font-size="10.00">wld_wpaCtrlConnection</text>
<text text-anchor="middle" x="806.5" y="-221.5" font-family="Helvetica,sans-Serif" font-size="10.00">_sendCmdCheckResponseExt</text>
</a>
</g>
</g>
<!-- Node12&#45;&gt;Node13 -->
<g id="edge12" class="edge">
<title>Node12&#45;&gt;Node13</title>
<path fill="none" stroke="midnightblue" d="M679.26,-229.5C691.11,-229.5 703.52,-229.5 715.74,-229.5"/>
<polygon fill="midnightblue" stroke="midnightblue" points="715.94,-233 725.94,-229.5 715.94,-226 715.94,-233"/>
</g>
<!-- Node14 -->
<g id="node14" class="node">
<title>Node14</title>
<g id="a_node14"><a xlink:href="wld__wpaCtrlConnection_8c.html#ab5b29b7ce5f29ef5dfbe951e5b700428" target="_top" xlink:title=" ">
<polygon fill="white" stroke="black" points="923,-198 923,-217 1079,-217 1079,-198 923,-198"/>
<text text-anchor="middle" x="1001" y="-205" font-family="Helvetica,sans-Serif" font-size="10.00">wld_wpaCtrl_getMaxMsgLen</text>
</a>
</g>
</g>
<!-- Node13&#45;&gt;Node14 -->
<g id="edge13" class="edge">
<title>Node13&#45;&gt;Node14</title>
<path fill="none" stroke="midnightblue" d="M887.19,-220.39C895.66,-219.42 904.31,-218.44 912.87,-217.46"/>
<polygon fill="midnightblue" stroke="midnightblue" points="913.31,-220.93 922.85,-216.32 912.52,-213.98 913.31,-220.93"/>
</g>
<!-- Node15 -->
<g id="node15" class="node">
<title>Node15</title>
<g id="a_node15"><a xlink:href="wld__wpaCtrlConnection_8c.html#ae8867992d243efdfa13e360b50730f88" target="_top" xlink:title=" ">
<polygon fill="white" stroke="black" points="935.5,-236.5 935.5,-266.5 1066.5,-266.5 1066.5,-236.5 935.5,-236.5"/>
<text text-anchor="start" x="943.5" y="-254.5" font-family="Helvetica,sans-Serif" font-size="10.00">wld_wpaCtrlConnection</text>
<text text-anchor="middle" x="1001" y="-243.5" font-family="Helvetica,sans-Serif" font-size="10.00">_sendCmdSyncedExt</text>
</a>
</g>
</g>
<!-- Node13&#45;&gt;Node15 -->
<g id="edge14" class="edge">
<title>Node13&#45;&gt;Node15</title>
<path fill="none" stroke="midnightblue" d="M887.19,-238.61C899.71,-240.04 912.62,-241.51 925.04,-242.93"/>
<polygon fill="midnightblue" stroke="midnightblue" points="924.99,-246.45 935.33,-244.11 925.79,-239.5 924.99,-246.45"/>
</g>
<!-- Node16 -->
<g id="node16" class="node">
<title>Node16</title>
<g id="a_node16"><a xlink:href="wld__wpaCtrlConnection_8c.html#abfe3f8b17cf527b1e6fe85a564c8604b" target="_top" xlink:title=" ">
<polygon fill="white" stroke="black" points="1115,-260.5 1115,-290.5 1246,-290.5 1246,-260.5 1115,-260.5"/>
<text text-anchor="start" x="1123" y="-278.5" font-family="Helvetica,sans-Serif" font-size="10.00">wld_wpaCtrlConnection</text>
<text text-anchor="middle" x="1180.5" y="-267.5" font-family="Helvetica,sans-Serif" font-size="10.00">_getConnSockName</text>
</a>
</g>
</g>
<!-- Node15&#45;&gt;Node16 -->
<g id="edge15" class="edge">
<title>Node15&#45;&gt;Node16</title>
<path fill="none" stroke="midnightblue" d="M1066.58,-260.23C1079.02,-261.91 1092.14,-263.69 1104.87,-265.41"/>
<polygon fill="midnightblue" stroke="midnightblue" points="1104.59,-268.9 1114.96,-266.77 1105.52,-261.97 1104.59,-268.9"/>
</g>
<!-- Node17 -->
<g id="node17" class="node">
<title>Node17</title>
<g id="a_node17"><a xlink:href="wld__wpaCtrlConnection_8c.html#aa82226c76dbbf306e509b7c6d3088277" target="_top" xlink:title=" ">
<polygon fill="white" stroke="black" points="1115,-211.5 1115,-241.5 1246,-241.5 1246,-211.5 1115,-211.5"/>
<text text-anchor="start" x="1123" y="-229.5" font-family="Helvetica,sans-Serif" font-size="10.00">wld_wpaCtrlConnection</text>
<text text-anchor="middle" x="1180.5" y="-218.5" font-family="Helvetica,sans-Serif" font-size="10.00">_sendCmd</text>
</a>
</g>
</g>
<!-- Node15&#45;&gt;Node17 -->
<g id="edge16" class="edge">
<title>Node15&#45;&gt;Node17</title>
<path fill="none" stroke="midnightblue" d="M1066.58,-242.4C1079.02,-240.65 1092.14,-238.8 1104.87,-237.01"/>
<polygon fill="midnightblue" stroke="midnightblue" points="1105.55,-240.45 1114.96,-235.59 1104.57,-233.52 1105.55,-240.45"/>
</g>
<!-- Node19 -->
<g id="node19" class="node">
<title>Node19</title>
<g id="a_node19"><a xlink:href="wld__wpaCtrlConnection_8c.html#a379089510626b43f9386a6db71f4a3ef" target="_top" xlink:title=" ">
<polygon fill="white" stroke="black" points="729,-138 729,-157 884,-157 884,-138 729,-138"/>
<text text-anchor="middle" x="806.5" y="-145" font-family="Helvetica,sans-Serif" font-size="10.00">wld_wpaCtrl_checkSockPath</text>
</a>
</g>
</g>
<!-- Node18&#45;&gt;Node19 -->
<g id="edge18" class="edge">
<title>Node18&#45;&gt;Node19</title>
<path fill="none" stroke="midnightblue" d="M669.61,-143.38C685.2,-143.85 702.21,-144.37 718.76,-144.87"/>
<polygon fill="midnightblue" stroke="midnightblue" points="718.89,-148.38 728.99,-145.18 719.1,-141.38 718.89,-148.38"/>
</g>
<!-- Node20 -->
<g id="node20" class="node">
<title>Node20</title>
<g id="a_node20"><a xlink:href="wld__wpaCtrlInterface_8c.html#a9acfa80398f0e1389219c511e1b3b073" target="_top" xlink:title=" ">
<polygon fill="white" stroke="black" points="746.5,-88.5 746.5,-118.5 866.5,-118.5 866.5,-88.5 746.5,-88.5"/>
<text text-anchor="start" x="754.5" y="-106.5" font-family="Helvetica,sans-Serif" font-size="10.00">wld_wpaCtrlInterface</text>
<text text-anchor="middle" x="806.5" y="-95.5" font-family="Helvetica,sans-Serif" font-size="10.00">_getPath</text>
</a>
</g>
</g>
<!-- Node18&#45;&gt;Node20 -->
<g id="edge19" class="edge">
<title>Node18&#45;&gt;Node20</title>
<path fill="none" stroke="midnightblue" d="M669.61,-129.58C690.85,-125.5 714.74,-120.92 736.49,-116.74"/>
<polygon fill="midnightblue" stroke="midnightblue" points="737.16,-120.18 746.32,-114.86 735.84,-113.31 737.16,-120.18"/>
</g>
<!-- Node20&#45;&gt;Node11 -->
<g id="edge20" class="edge">
<title>Node20&#45;&gt;Node11</title>
<path fill="none" stroke="midnightblue" d="M866.56,-116.08C885.19,-120.05 906.01,-124.48 925.56,-128.65"/>
<polygon fill="midnightblue" stroke="midnightblue" points="924.84,-132.07 935.35,-130.73 926.3,-125.22 924.84,-132.07"/>
</g>
<!-- Node22 -->
<g id="node22" class="node">
<title>Node22</title>
<g id="a_node22"><a xlink:href="wld__secDmn_8c.html#ad8ebf9f869b635102d27d9a476e4d9eb" target="_top" xlink:title=" ">
<polygon fill="white" stroke="black" points="740.5,-50 740.5,-69 872.5,-69 872.5,-50 740.5,-50"/>
<text text-anchor="middle" x="806.5" y="-57" font-family="Helvetica,sans-Serif" font-size="10.00">wld_secDmn_isRunning</text>
</a>
</g>
</g>
<!-- Node21&#45;&gt;Node22 -->
<g id="edge22" class="edge">
<title>Node21&#45;&gt;Node22</title>
<path fill="none" stroke="midnightblue" d="M690.04,-59.5C703.27,-59.5 716.9,-59.5 729.95,-59.5"/>
<polygon fill="midnightblue" stroke="midnightblue" points="730.28,-63 740.28,-59.5 730.28,-56 730.28,-63"/>
</g>
<!-- Node24 -->
<g id="node24" class="node">
<title>Node24</title>
<g id="a_node24"><a xlink:href="wld__wpaCtrlMngr_8c.html#a3dc93dfda0d67c0e7254cc1ffeeb3ebe" target="_top" xlink:title=" ">
<polygon fill="white" stroke="black" points="735,-0.5 735,-30.5 878,-30.5 878,-0.5 735,-0.5"/>
<text text-anchor="start" x="743" y="-18.5" font-family="Helvetica,sans-Serif" font-size="10.00">wld_wpaCtrlMngr_getFirst</text>
<text text-anchor="middle" x="806.5" y="-7.5" font-family="Helvetica,sans-Serif" font-size="10.00">ReadyInterface</text>
</a>
</g>
</g>
<!-- Node21&#45;&gt;Node24 -->
<g id="edge24" class="edge">
<title>Node21&#45;&gt;Node24</title>
<path fill="none" stroke="midnightblue" d="M650.46,-49.95C673.05,-44.93 701.45,-38.62 727.75,-32.78"/>
<polygon fill="midnightblue" stroke="midnightblue" points="728.7,-36.15 737.71,-30.57 727.18,-29.32 728.7,-36.15"/>
</g>
<!-- Node23 -->
<g id="node23" class="node">
<title>Node23</title>
<g id="a_node23"><a xlink:href="wld__daemon_8c.html#a6ba98a859d038541e1c2ee48d8566547" target="_top" xlink:title=" ">
<polygon fill="white" stroke="black" points="944,-50 944,-69 1058,-69 1058,-50 944,-50"/>
<text text-anchor="middle" x="1001" y="-57" font-family="Helvetica,sans-Serif" font-size="10.00">wld_dmn_isRunning</text>
</a>
</g>
</g>
<!-- Node22&#45;&gt;Node23 -->
<g id="edge23" class="edge">
<title>Node22&#45;&gt;Node23</title>
<path fill="none" stroke="midnightblue" d="M872.67,-59.5C892.36,-59.5 914,-59.5 933.76,-59.5"/>
<polygon fill="midnightblue" stroke="midnightblue" points="933.9,-63 943.9,-59.5 933.9,-56 933.9,-63"/>
</g>
<!-- Node25 -->
<g id="node25" class="node">
<title>Node25</title>
<g id="a_node25"><a xlink:href="wld__wpaCtrlInterface_8c.html#a8b38bc9ca95b60e002d38cdb1374d1d0" target="_top" xlink:title=" ">
<polygon fill="white" stroke="black" points="941,-0.5 941,-30.5 1061,-30.5 1061,-0.5 941,-0.5"/>
<text text-anchor="start" x="949" y="-18.5" font-family="Helvetica,sans-Serif" font-size="10.00">wld_wpaCtrlInterface</text>
<text text-anchor="middle" x="1001" y="-7.5" font-family="Helvetica,sans-Serif" font-size="10.00">_isReady</text>
</a>
</g>
</g>
<!-- Node24&#45;&gt;Node25 -->
<g id="edge25" class="edge">
<title>Node24&#45;&gt;Node25</title>
<path fill="none" stroke="midnightblue" d="M878.09,-15.5C895.15,-15.5 913.37,-15.5 930.39,-15.5"/>
<polygon fill="midnightblue" stroke="midnightblue" points="930.8,-19 940.8,-15.5 930.8,-12 930.8,-19"/>
</g>
</g>
</svg>
