<?xml version="1.0" encoding="UTF-8" standalone="no"?>
<!DOCTYPE svg PUBLIC "-//W3C//DTD SVG 1.1//EN"
 "http://www.w3.org/Graphics/SVG/1.1/DTD/svg11.dtd">
<!-- Generated by graphviz version 2.43.0 (0)
 -->
<!-- Title: wld_nl80211_newState Pages: 1 -->
<svg width="299pt" height="66pt"
 viewBox="0.00 0.00 299.00 66.00" xmlns="http://www.w3.org/2000/svg" xmlns:xlink="http://www.w3.org/1999/xlink">
<g id="graph0" class="graph" transform="scale(1 1) rotate(0) translate(4 62)">
<title>wld_nl80211_newState</title>
<polygon fill="white" stroke="transparent" points="-4,4 -4,-62 295,-62 295,4 -4,4"/>
<!-- Node1 -->
<g id="node1" class="node">
<title>Node1</title>
<g id="a_node1"><a xlink:title=" ">
<polygon fill="#bfbfbf" stroke="black" points="0,-19.5 0,-38.5 129,-38.5 129,-19.5 0,-19.5"/>
<text text-anchor="middle" x="64.5" y="-26.5" font-family="Helvetica,sans-Serif" font-size="10.00">wld_nl80211_newState</text>
</a>
</g>
</g>
<!-- Node2 -->
<g id="node2" class="node">
<title>Node2</title>
<g id="a_node2"><a xlink:href="wld_8c.html#a41e1e95e9813260c184aad989f33bb05" target="_top" xlink:title=" ">
<polygon fill="white" stroke="black" points="165,-38.5 165,-57.5 291,-57.5 291,-38.5 165,-38.5"/>
<text text-anchor="middle" x="228" y="-45.5" font-family="Helvetica,sans-Serif" font-size="10.00">get_wld_plugin_parser</text>
</a>
</g>
</g>
<!-- Node1&#45;&gt;Node2 -->
<g id="edge1" class="edge">
<title>Node1&#45;&gt;Node2</title>
<path fill="none" stroke="midnightblue" d="M129.33,-36.51C137.76,-37.5 146.44,-38.52 155,-39.53"/>
<polygon fill="midnightblue" stroke="midnightblue" points="154.61,-43.01 164.95,-40.7 155.43,-36.06 154.61,-43.01"/>
</g>
<!-- Node3 -->
<g id="node3" class="node">
<title>Node3</title>
<g id="a_node3"><a xlink:href="wld__nl80211__core_8c.html#ac8d2fddf1d4a808b0b542bc3619add9a" target="_top" xlink:title=" ">
<polygon fill="white" stroke="black" points="179,-0.5 179,-19.5 277,-19.5 277,-0.5 179,-0.5"/>
<text text-anchor="middle" x="228" y="-7.5" font-family="Helvetica,sans-Serif" font-size="10.00">s_learnDriverIDs</text>
</a>
</g>
</g>
<!-- Node1&#45;&gt;Node3 -->
<g id="edge2" class="edge">
<title>Node1&#45;&gt;Node3</title>
<path fill="none" stroke="midnightblue" d="M129.33,-21.49C142.27,-19.97 155.82,-18.37 168.56,-16.88"/>
<polygon fill="midnightblue" stroke="midnightblue" points="169.06,-20.34 178.58,-15.7 168.24,-13.39 169.06,-20.34"/>
</g>
</g>
</svg>
