<?xml version="1.0" encoding="UTF-8" standalone="no"?>
<!DOCTYPE svg PUBLIC "-//W3C//DTD SVG 1.1//EN"
 "http://www.w3.org/Graphics/SVG/1.1/DTD/svg11.dtd">
<!-- Generated by graphviz version 2.43.0 (0)
 -->
<!-- Title: include/wld/wld_sensing.h Pages: 1 -->
<svg width="5719pt" height="252pt"
 viewBox="0.00 0.00 5719.00 252.00" xmlns="http://www.w3.org/2000/svg" xmlns:xlink="http://www.w3.org/1999/xlink">
<g id="graph0" class="graph" transform="scale(1 1) rotate(0) translate(4 248)">
<title>include/wld/wld_sensing.h</title>
<polygon fill="white" stroke="transparent" points="-4,4 -4,-248 5715,-248 5715,4 -4,4"/>
<!-- Node1 -->
<g id="node1" class="node">
<title>Node1</title>
<g id="a_node1"><a xlink:title=" ">
<polygon fill="#bfbfbf" stroke="black" points="2317,-224.5 2317,-243.5 2461,-243.5 2461,-224.5 2317,-224.5"/>
<text text-anchor="middle" x="2389" y="-231.5" font-family="Helvetica,sans-Serif" font-size="10.00">include/wld/wld_sensing.h</text>
</a>
</g>
</g>
<!-- Node2 -->
<g id="node2" class="node">
<title>Node2</title>
<g id="a_node2"><a xlink:href="wld_8h.html" target="_top" xlink:title=" ">
<polygon fill="white" stroke="red" points="2367.5,-168.5 2367.5,-187.5 2410.5,-187.5 2410.5,-168.5 2367.5,-168.5"/>
<text text-anchor="middle" x="2389" y="-175.5" font-family="Helvetica,sans-Serif" font-size="10.00">wld.h</text>
</a>
</g>
</g>
<!-- Node1&#45;&gt;Node2 -->
<g id="edge1" class="edge">
<title>Node1&#45;&gt;Node2</title>
<path fill="none" stroke="midnightblue" d="M2383.83,-224.08C2382.32,-216.93 2381.89,-206.64 2382.54,-197.69"/>
<polygon fill="midnightblue" stroke="midnightblue" points="2386.02,-198.13 2383.87,-187.75 2379.08,-197.2 2386.02,-198.13"/>
</g>
<!-- Node2&#45;&gt;Node1 -->
<g id="edge47" class="edge">
<title>Node2&#45;&gt;Node1</title>
<path fill="none" stroke="midnightblue" d="M2394.13,-187.75C2395.66,-194.86 2396.1,-205.14 2395.47,-214.1"/>
<polygon fill="midnightblue" stroke="midnightblue" points="2391.99,-213.71 2394.17,-224.08 2398.93,-214.62 2391.99,-213.71"/>
</g>
<!-- Node3 -->
<g id="node3" class="node">
<title>Node3</title>
<g id="a_node3"><a xlink:title=" ">
<polygon fill="white" stroke="#bfbfbf" points="0,-56.5 0,-75.5 62,-75.5 62,-56.5 0,-56.5"/>
<text text-anchor="middle" x="31" y="-63.5" font-family="Helvetica,sans-Serif" font-size="10.00">stdbool.h</text>
</a>
</g>
</g>
<!-- Node2&#45;&gt;Node3 -->
<g id="edge2" class="edge">
<title>Node2&#45;&gt;Node3</title>
<path fill="none" stroke="midnightblue" d="M2367.28,-176.88C2135.14,-175.58 119.08,-163.37 67,-132 50.28,-121.93 40.75,-101.06 35.75,-85.68"/>
<polygon fill="midnightblue" stroke="midnightblue" points="39,-84.32 32.87,-75.67 32.28,-86.25 39,-84.32"/>
</g>
<!-- Node4 -->
<g id="node4" class="node">
<title>Node4</title>
<g id="a_node4"><a xlink:title=" ">
<polygon fill="white" stroke="#bfbfbf" points="396.5,-0.5 396.5,-19.5 449.5,-19.5 449.5,-0.5 396.5,-0.5"/>
<text text-anchor="middle" x="423" y="-7.5" font-family="Helvetica,sans-Serif" font-size="10.00">stdint.h</text>
</a>
</g>
</g>
<!-- Node2&#45;&gt;Node4 -->
<g id="edge3" class="edge">
<title>Node2&#45;&gt;Node4</title>
<path fill="none" stroke="midnightblue" d="M2367.28,-176.94C2151.1,-176.3 393.07,-169.9 356,-132 324.82,-100.13 374.12,-50.84 403.55,-26.16"/>
<polygon fill="midnightblue" stroke="midnightblue" points="406.05,-28.64 411.59,-19.61 401.63,-23.22 406.05,-28.64"/>
</g>
<!-- Node5 -->
<g id="node5" class="node">
<title>Node5</title>
<g id="a_node5"><a xlink:title=" ">
<polygon fill="white" stroke="#bfbfbf" points="662,-56.5 662,-75.5 772,-75.5 772,-56.5 662,-56.5"/>
<text text-anchor="middle" x="717" y="-63.5" font-family="Helvetica,sans-Serif" font-size="10.00">swl/swl_common.h</text>
</a>
</g>
</g>
<!-- Node2&#45;&gt;Node5 -->
<g id="edge4" class="edge">
<title>Node2&#45;&gt;Node5</title>
<path fill="none" stroke="midnightblue" d="M2367.48,-176.75C2183.73,-174.6 883.35,-158.46 806,-132 776.75,-121.99 748.97,-98.73 732.46,-82.93"/>
<polygon fill="midnightblue" stroke="midnightblue" points="734.87,-80.39 725.3,-75.86 729.96,-85.37 734.87,-80.39"/>
</g>
<!-- Node6 -->
<g id="node6" class="node">
<title>Node6</title>
<g id="a_node6"><a xlink:title=" ">
<polygon fill="white" stroke="#bfbfbf" points="886,-112.5 886,-131.5 1022,-131.5 1022,-112.5 886,-112.5"/>
<text text-anchor="middle" x="954" y="-119.5" font-family="Helvetica,sans-Serif" font-size="10.00">swla/swla_commonLib.h</text>
</a>
</g>
</g>
<!-- Node2&#45;&gt;Node6 -->
<g id="edge5" class="edge">
<title>Node2&#45;&gt;Node6</title>
<path fill="none" stroke="midnightblue" d="M2367.4,-176.96C2240.73,-176.57 1581.33,-172.65 1032.5,-132.05"/>
<polygon fill="midnightblue" stroke="midnightblue" points="1032.64,-128.55 1022.41,-131.29 1032.12,-135.53 1032.64,-128.55"/>
</g>
<!-- Node7 -->
<g id="node7" class="node">
<title>Node7</title>
<g id="a_node7"><a xlink:title=" ">
<polygon fill="white" stroke="#bfbfbf" points="1040,-112.5 1040,-131.5 1128,-131.5 1128,-112.5 1040,-112.5"/>
<text text-anchor="middle" x="1084" y="-119.5" font-family="Helvetica,sans-Serif" font-size="10.00">swl/swl_uuid.h</text>
</a>
</g>
</g>
<!-- Node2&#45;&gt;Node7 -->
<g id="edge6" class="edge">
<title>Node2&#45;&gt;Node7</title>
<path fill="none" stroke="midnightblue" d="M2367.07,-176.61C2223.07,-173.98 1410.35,-158.25 1138.41,-131.97"/>
<polygon fill="midnightblue" stroke="midnightblue" points="1138.48,-128.46 1128.19,-130.95 1137.79,-135.43 1138.48,-128.46"/>
</g>
<!-- Node8 -->
<g id="node8" class="node">
<title>Node8</title>
<g id="a_node8"><a xlink:title=" ">
<polygon fill="white" stroke="#bfbfbf" points="1146,-112.5 1146,-131.5 1298,-131.5 1298,-112.5 1146,-112.5"/>
<text text-anchor="middle" x="1222" y="-119.5" font-family="Helvetica,sans-Serif" font-size="10.00">swla/swla_radioStandards.h</text>
</a>
</g>
</g>
<!-- Node2&#45;&gt;Node8 -->
<g id="edge7" class="edge">
<title>Node2&#45;&gt;Node8</title>
<path fill="none" stroke="midnightblue" d="M2367.27,-176.6C2256.33,-174.46 1741.85,-163.28 1308.63,-131.99"/>
<polygon fill="midnightblue" stroke="midnightblue" points="1308.64,-128.48 1298.41,-131.25 1308.13,-135.46 1308.64,-128.48"/>
</g>
<!-- Node9 -->
<g id="node9" class="node">
<title>Node9</title>
<g id="a_node9"><a xlink:title=" ">
<polygon fill="white" stroke="#bfbfbf" points="221.5,-0.5 221.5,-19.5 322.5,-19.5 322.5,-0.5 221.5,-0.5"/>
<text text-anchor="middle" x="272" y="-7.5" font-family="Helvetica,sans-Serif" font-size="10.00">swla/swla_time.h</text>
</a>
</g>
</g>
<!-- Node2&#45;&gt;Node9 -->
<g id="edge8" class="edge">
<title>Node2&#45;&gt;Node9</title>
<path fill="none" stroke="midnightblue" d="M2367.24,-176.82C2150.65,-174.96 389,-159.02 343,-132 304.62,-109.46 284.86,-57.44 276.69,-29.52"/>
<polygon fill="midnightblue" stroke="midnightblue" points="280.04,-28.52 274.03,-19.8 273.29,-30.36 280.04,-28.52"/>
</g>
<!-- Node10 -->
<g id="node10" class="node">
<title>Node10</title>
<g id="a_node10"><a xlink:title=" ">
<polygon fill="white" stroke="#bfbfbf" points="1316.5,-112.5 1316.5,-131.5 1445.5,-131.5 1445.5,-112.5 1316.5,-112.5"/>
<text text-anchor="middle" x="1381" y="-119.5" font-family="Helvetica,sans-Serif" font-size="10.00">swla/swla_time_spec.h</text>
</a>
</g>
</g>
<!-- Node2&#45;&gt;Node10 -->
<g id="edge9" class="edge">
<title>Node2&#45;&gt;Node10</title>
<path fill="none" stroke="midnightblue" d="M2367.24,-176.54C2265.57,-174.26 1826.98,-163.06 1455.68,-131.99"/>
<polygon fill="midnightblue" stroke="midnightblue" points="1455.8,-128.48 1445.55,-131.13 1455.22,-135.46 1455.8,-128.48"/>
</g>
<!-- Node11 -->
<g id="node11" class="node">
<title>Node11</title>
<g id="a_node11"><a xlink:title=" ">
<polygon fill="white" stroke="#bfbfbf" points="1464,-112.5 1464,-131.5 1558,-131.5 1558,-112.5 1464,-112.5"/>
<text text-anchor="middle" x="1511" y="-119.5" font-family="Helvetica,sans-Serif" font-size="10.00">swla/swla_oui.h</text>
</a>
</g>
</g>
<!-- Node2&#45;&gt;Node11 -->
<g id="edge10" class="edge">
<title>Node2&#45;&gt;Node11</title>
<path fill="none" stroke="midnightblue" d="M2367.34,-176.65C2273.41,-174.94 1891.83,-166.23 1568.05,-131.99"/>
<polygon fill="midnightblue" stroke="midnightblue" points="1568.32,-128.5 1558.01,-130.92 1567.58,-135.46 1568.32,-128.5"/>
</g>
<!-- Node12 -->
<g id="node12" class="node">
<title>Node12</title>
<g id="a_node12"><a xlink:title=" ">
<polygon fill="white" stroke="#bfbfbf" points="1576,-112.5 1576,-131.5 1704,-131.5 1704,-112.5 1576,-112.5"/>
<text text-anchor="middle" x="1640" y="-119.5" font-family="Helvetica,sans-Serif" font-size="10.00">swla/swla_delayExec.h</text>
</a>
</g>
</g>
<!-- Node2&#45;&gt;Node12 -->
<g id="edge11" class="edge">
<title>Node2&#45;&gt;Node12</title>
<path fill="none" stroke="midnightblue" d="M2367.4,-175.99C2284.5,-172.02 1978.57,-156.55 1714.32,-131.97"/>
<polygon fill="midnightblue" stroke="midnightblue" points="1714.43,-128.47 1704.15,-131.02 1713.78,-135.44 1714.43,-128.47"/>
</g>
<!-- Node13 -->
<g id="node13" class="node">
<title>Node13</title>
<g id="a_node13"><a xlink:title=" ">
<polygon fill="white" stroke="#bfbfbf" points="1722.5,-112.5 1722.5,-131.5 1841.5,-131.5 1841.5,-112.5 1722.5,-112.5"/>
<text text-anchor="middle" x="1782" y="-119.5" font-family="Helvetica,sans-Serif" font-size="10.00">swla/swla_function.h</text>
</a>
</g>
</g>
<!-- Node2&#45;&gt;Node13 -->
<g id="edge12" class="edge">
<title>Node2&#45;&gt;Node13</title>
<path fill="none" stroke="midnightblue" d="M2367.44,-175.56C2295.83,-170.69 2059.17,-153.99 1851.97,-132.06"/>
<polygon fill="midnightblue" stroke="midnightblue" points="1852.13,-128.55 1841.82,-130.97 1851.39,-135.51 1852.13,-128.55"/>
</g>
<!-- Node14 -->
<g id="node14" class="node">
<title>Node14</title>
<g id="a_node14"><a xlink:title=" ">
<polygon fill="white" stroke="#bfbfbf" points="1859.5,-112.5 1859.5,-131.5 2000.5,-131.5 2000.5,-112.5 1859.5,-112.5"/>
<text text-anchor="middle" x="1930" y="-119.5" font-family="Helvetica,sans-Serif" font-size="10.00">swl/swl_usp_cmdStatus.h</text>
</a>
</g>
</g>
<!-- Node2&#45;&gt;Node14 -->
<g id="edge13" class="edge">
<title>Node2&#45;&gt;Node14</title>
<path fill="none" stroke="midnightblue" d="M2367.48,-174.47C2304.64,-167.07 2119.03,-145.24 2010.83,-132.51"/>
<polygon fill="midnightblue" stroke="midnightblue" points="2010.95,-129 2000.61,-131.31 2010.13,-135.95 2010.95,-129"/>
</g>
<!-- Node15 -->
<g id="node15" class="node">
<title>Node15</title>
<g id="a_node15"><a xlink:title=" ">
<polygon fill="white" stroke="#bfbfbf" points="2019,-112.5 2019,-131.5 2105,-131.5 2105,-112.5 2019,-112.5"/>
<text text-anchor="middle" x="2062" y="-119.5" font-family="Helvetica,sans-Serif" font-size="10.00">swl/swl_wps.h</text>
</a>
</g>
</g>
<!-- Node2&#45;&gt;Node15 -->
<g id="edge14" class="edge">
<title>Node2&#45;&gt;Node15</title>
<path fill="none" stroke="midnightblue" d="M2367.24,-173.51C2322.24,-166.27 2215.4,-149.02 2115.12,-132.18"/>
<polygon fill="midnightblue" stroke="midnightblue" points="2115.57,-128.7 2105.13,-130.5 2114.41,-135.61 2115.57,-128.7"/>
</g>
<!-- Node16 -->
<g id="node16" class="node">
<title>Node16</title>
<g id="a_node16"><a xlink:title=" ">
<polygon fill="white" stroke="#bfbfbf" points="2123,-112.5 2123,-131.5 2227,-131.5 2227,-112.5 2123,-112.5"/>
<text text-anchor="middle" x="2175" y="-119.5" font-family="Helvetica,sans-Serif" font-size="10.00">swl/swl_security.h</text>
</a>
</g>
</g>
<!-- Node2&#45;&gt;Node16 -->
<g id="edge15" class="edge">
<title>Node2&#45;&gt;Node16</title>
<path fill="none" stroke="midnightblue" d="M2367.3,-171.53C2332.63,-162.78 2264.04,-145.47 2218.85,-134.06"/>
<polygon fill="midnightblue" stroke="midnightblue" points="2219.57,-130.64 2209.02,-131.59 2217.86,-137.43 2219.57,-130.64"/>
</g>
<!-- Node17 -->
<g id="node17" class="node">
<title>Node17</title>
<g id="a_node17"><a xlink:title=" ">
<polygon fill="white" stroke="#bfbfbf" points="2245.5,-112.5 2245.5,-131.5 2328.5,-131.5 2328.5,-112.5 2245.5,-112.5"/>
<text text-anchor="middle" x="2287" y="-119.5" font-family="Helvetica,sans-Serif" font-size="10.00">amxc/amxc.h</text>
</a>
</g>
</g>
<!-- Node2&#45;&gt;Node17 -->
<g id="edge16" class="edge">
<title>Node2&#45;&gt;Node17</title>
<path fill="none" stroke="midnightblue" d="M2372.61,-168.32C2356.33,-159.7 2331.13,-146.36 2312.28,-136.39"/>
<polygon fill="midnightblue" stroke="midnightblue" points="2313.82,-133.24 2303.35,-131.65 2310.55,-139.43 2313.82,-133.24"/>
</g>
<!-- Node18 -->
<g id="node18" class="node">
<title>Node18</title>
<g id="a_node18"><a xlink:title=" ">
<polygon fill="white" stroke="#bfbfbf" points="2347,-112.5 2347,-131.5 2431,-131.5 2431,-112.5 2347,-112.5"/>
<text text-anchor="middle" x="2389" y="-119.5" font-family="Helvetica,sans-Serif" font-size="10.00">amxp/amxp.h</text>
</a>
</g>
</g>
<!-- Node2&#45;&gt;Node18 -->
<g id="edge17" class="edge">
<title>Node2&#45;&gt;Node18</title>
<path fill="none" stroke="midnightblue" d="M2389,-168.08C2389,-161.01 2389,-150.86 2389,-141.99"/>
<polygon fill="midnightblue" stroke="midnightblue" points="2392.5,-141.75 2389,-131.75 2385.5,-141.75 2392.5,-141.75"/>
</g>
<!-- Node19 -->
<g id="node19" class="node">
<title>Node19</title>
<g id="a_node19"><a xlink:title=" ">
<polygon fill="white" stroke="#bfbfbf" points="2449,-112.5 2449,-131.5 2589,-131.5 2589,-112.5 2449,-112.5"/>
<text text-anchor="middle" x="2519" y="-119.5" font-family="Helvetica,sans-Serif" font-size="10.00">amxd/amxd_parameter.h</text>
</a>
</g>
</g>
<!-- Node2&#45;&gt;Node19 -->
<g id="edge18" class="edge">
<title>Node2&#45;&gt;Node19</title>
<path fill="none" stroke="midnightblue" d="M2409.6,-168.44C2430.99,-159.56 2464.68,-145.56 2489.02,-135.45"/>
<polygon fill="midnightblue" stroke="midnightblue" points="2490.61,-138.58 2498.5,-131.52 2487.92,-132.12 2490.61,-138.58"/>
</g>
<!-- Node20 -->
<g id="node20" class="node">
<title>Node20</title>
<g id="a_node20"><a xlink:title=" ">
<polygon fill="white" stroke="#bfbfbf" points="2607.5,-112.5 2607.5,-131.5 2726.5,-131.5 2726.5,-112.5 2607.5,-112.5"/>
<text text-anchor="middle" x="2667" y="-119.5" font-family="Helvetica,sans-Serif" font-size="10.00">amxd/amxd_action.h</text>
</a>
</g>
</g>
<!-- Node2&#45;&gt;Node20 -->
<g id="edge19" class="edge">
<title>Node2&#45;&gt;Node20</title>
<path fill="none" stroke="midnightblue" d="M2410.81,-172.76C2454.04,-164.37 2551.69,-145.4 2613.17,-133.46"/>
<polygon fill="midnightblue" stroke="midnightblue" points="2613.94,-136.87 2623.09,-131.53 2612.61,-130 2613.94,-136.87"/>
</g>
<!-- Node21 -->
<g id="node21" class="node">
<title>Node21</title>
<g id="a_node21"><a xlink:title=" ">
<polygon fill="white" stroke="#bfbfbf" points="2744.5,-112.5 2744.5,-131.5 2919.5,-131.5 2919.5,-112.5 2744.5,-112.5"/>
<text text-anchor="middle" x="2832" y="-119.5" font-family="Helvetica,sans-Serif" font-size="10.00">amxd/amxd_object_parameter.h</text>
</a>
</g>
</g>
<!-- Node2&#45;&gt;Node21 -->
<g id="edge20" class="edge">
<title>Node2&#45;&gt;Node21</title>
<path fill="none" stroke="midnightblue" d="M2410.67,-174.36C2471.78,-166.91 2647.81,-145.45 2752,-132.75"/>
<polygon fill="midnightblue" stroke="midnightblue" points="2752.66,-136.2 2762.16,-131.51 2751.81,-129.25 2752.66,-136.2"/>
</g>
<!-- Node22 -->
<g id="node22" class="node">
<title>Node22</title>
<g id="a_node22"><a xlink:title=" ">
<polygon fill="white" stroke="#bfbfbf" points="2938,-112.5 2938,-131.5 3090,-131.5 3090,-112.5 2938,-112.5"/>
<text text-anchor="middle" x="3014" y="-119.5" font-family="Helvetica,sans-Serif" font-size="10.00">amxd/amxd_object_event.h</text>
</a>
</g>
</g>
<!-- Node2&#45;&gt;Node22 -->
<g id="edge21" class="edge">
<title>Node2&#45;&gt;Node22</title>
<path fill="none" stroke="midnightblue" d="M2410.62,-175.37C2482.44,-169.93 2719.82,-151.65 2927.38,-132.14"/>
<polygon fill="midnightblue" stroke="midnightblue" points="2927.93,-135.6 2937.55,-131.18 2927.27,-128.63 2927.93,-135.6"/>
</g>
<!-- Node23 -->
<g id="node23" class="node">
<title>Node23</title>
<g id="a_node23"><a xlink:title=" ">
<polygon fill="white" stroke="#bfbfbf" points="3108.5,-112.5 3108.5,-131.5 3237.5,-131.5 3237.5,-112.5 3108.5,-112.5"/>
<text text-anchor="middle" x="3173" y="-119.5" font-family="Helvetica,sans-Serif" font-size="10.00">amxd/amxd_function.h</text>
</a>
</g>
</g>
<!-- Node2&#45;&gt;Node23 -->
<g id="edge22" class="edge">
<title>Node2&#45;&gt;Node23</title>
<path fill="none" stroke="midnightblue" d="M2410.53,-176.09C2495.99,-172.38 2819.77,-157.44 3098.15,-132.02"/>
<polygon fill="midnightblue" stroke="midnightblue" points="3098.81,-135.47 3108.45,-131.07 3098.17,-128.5 3098.81,-135.47"/>
</g>
<!-- Node24 -->
<g id="node24" class="node">
<title>Node24</title>
<g id="a_node24"><a xlink:title=" ">
<polygon fill="white" stroke="#bfbfbf" points="3255.5,-112.5 3255.5,-131.5 3424.5,-131.5 3424.5,-112.5 3255.5,-112.5"/>
<text text-anchor="middle" x="3340" y="-119.5" font-family="Helvetica,sans-Serif" font-size="10.00">amxd/amxd_object_hierarchy.h</text>
</a>
</g>
</g>
<!-- Node2&#45;&gt;Node24 -->
<g id="edge23" class="edge">
<title>Node2&#45;&gt;Node24</title>
<path fill="none" stroke="midnightblue" d="M2410.57,-176.22C2506.75,-172.66 2906.26,-157.13 3245.35,-132.09"/>
<polygon fill="midnightblue" stroke="midnightblue" points="3245.65,-135.58 3255.37,-131.35 3245.13,-128.6 3245.65,-135.58"/>
</g>
<!-- Node25 -->
<g id="node25" class="node">
<title>Node25</title>
<g id="a_node25"><a xlink:title=" ">
<polygon fill="white" stroke="#bfbfbf" points="3442.5,-112.5 3442.5,-131.5 3561.5,-131.5 3561.5,-112.5 3442.5,-112.5"/>
<text text-anchor="middle" x="3502" y="-119.5" font-family="Helvetica,sans-Serif" font-size="10.00">amxd/amxd_object.h</text>
</a>
</g>
</g>
<!-- Node2&#45;&gt;Node25 -->
<g id="edge24" class="edge">
<title>Node2&#45;&gt;Node25</title>
<path fill="none" stroke="midnightblue" d="M2410.74,-176.78C2519.54,-175.52 3015.72,-168.03 3432.2,-132.08"/>
<polygon fill="midnightblue" stroke="midnightblue" points="3432.67,-135.56 3442.33,-131.2 3432.06,-128.58 3432.67,-135.56"/>
</g>
<!-- Node26 -->
<g id="node26" class="node">
<title>Node26</title>
<g id="a_node26"><a xlink:title=" ">
<polygon fill="white" stroke="#bfbfbf" points="3579.5,-112.5 3579.5,-131.5 3684.5,-131.5 3684.5,-112.5 3579.5,-112.5"/>
<text text-anchor="middle" x="3632" y="-119.5" font-family="Helvetica,sans-Serif" font-size="10.00">amxd/amxd_dm.h</text>
</a>
</g>
</g>
<!-- Node2&#45;&gt;Node26 -->
<g id="edge25" class="edge">
<title>Node2&#45;&gt;Node26</title>
<path fill="none" stroke="midnightblue" d="M2410.81,-177.05C2528.08,-177.14 3095.64,-175.26 3569.35,-132.05"/>
<polygon fill="midnightblue" stroke="midnightblue" points="3569.83,-135.52 3579.47,-131.12 3569.19,-128.55 3569.83,-135.52"/>
</g>
<!-- Node27 -->
<g id="node27" class="node">
<title>Node27</title>
<g id="a_node27"><a xlink:title=" ">
<polygon fill="white" stroke="#bfbfbf" points="3703,-112.5 3703,-131.5 3847,-131.5 3847,-112.5 3703,-112.5"/>
<text text-anchor="middle" x="3775" y="-119.5" font-family="Helvetica,sans-Serif" font-size="10.00">amxd/amxd_transaction.h</text>
</a>
</g>
</g>
<!-- Node2&#45;&gt;Node27 -->
<g id="edge26" class="edge">
<title>Node2&#45;&gt;Node27</title>
<path fill="none" stroke="midnightblue" d="M2410.56,-176.87C2534.2,-176.01 3165.88,-169.88 3692.52,-132.05"/>
<polygon fill="midnightblue" stroke="midnightblue" points="3692.88,-135.53 3702.6,-131.32 3692.38,-128.55 3692.88,-135.53"/>
</g>
<!-- Node28 -->
<g id="node28" class="node">
<title>Node28</title>
<g id="a_node28"><a xlink:title=" ">
<polygon fill="white" stroke="#bfbfbf" points="3865,-112.5 3865,-131.5 3981,-131.5 3981,-112.5 3865,-112.5"/>
<text text-anchor="middle" x="3923" y="-119.5" font-family="Helvetica,sans-Serif" font-size="10.00">amxb/amxb_types.h</text>
</a>
</g>
</g>
<!-- Node2&#45;&gt;Node28 -->
<g id="edge27" class="edge">
<title>Node2&#45;&gt;Node28</title>
<path fill="none" stroke="midnightblue" d="M2410.58,-177.17C2543.08,-178.05 3259.99,-180.35 3854.87,-132"/>
<polygon fill="midnightblue" stroke="midnightblue" points="3855.25,-135.48 3864.94,-131.17 3854.68,-128.5 3855.25,-135.48"/>
</g>
<!-- Node29 -->
<g id="node29" class="node">
<title>Node29</title>
<g id="a_node29"><a xlink:title=" ">
<polygon fill="white" stroke="#bfbfbf" points="3999,-112.5 3999,-131.5 4135,-131.5 4135,-112.5 3999,-112.5"/>
<text text-anchor="middle" x="4067" y="-119.5" font-family="Helvetica,sans-Serif" font-size="10.00">amxb/amxb_operators.h</text>
</a>
</g>
</g>
<!-- Node2&#45;&gt;Node29 -->
<g id="edge28" class="edge">
<title>Node2&#45;&gt;Node29</title>
<path fill="none" stroke="midnightblue" d="M2410.7,-177.11C2550.34,-177.68 3337.07,-178.64 3988.54,-132.04"/>
<polygon fill="midnightblue" stroke="midnightblue" points="3988.87,-135.52 3998.6,-131.31 3988.37,-128.54 3988.87,-135.52"/>
</g>
<!-- Node30 -->
<g id="node30" class="node">
<title>Node30</title>
<g id="a_node30"><a xlink:title=" ">
<polygon fill="white" stroke="#bfbfbf" points="4153,-112.5 4153,-131.5 4265,-131.5 4265,-112.5 4153,-112.5"/>
<text text-anchor="middle" x="4209" y="-119.5" font-family="Helvetica,sans-Serif" font-size="10.00">amxb/amxb_error.h</text>
</a>
</g>
</g>
<!-- Node2&#45;&gt;Node30 -->
<g id="edge29" class="edge">
<title>Node2&#45;&gt;Node30</title>
<path fill="none" stroke="midnightblue" d="M2410.62,-176.78C2584.82,-174.96 3762.48,-161.69 4142.48,-132.01"/>
<polygon fill="midnightblue" stroke="midnightblue" points="4142.98,-135.48 4152.67,-131.19 4142.43,-128.5 4142.98,-135.48"/>
</g>
<!-- Node31 -->
<g id="node31" class="node">
<title>Node31</title>
<g id="a_node31"><a xlink:title=" ">
<polygon fill="white" stroke="#bfbfbf" points="4283.5,-112.5 4283.5,-131.5 4366.5,-131.5 4366.5,-112.5 4283.5,-112.5"/>
<text text-anchor="middle" x="4325" y="-119.5" font-family="Helvetica,sans-Serif" font-size="10.00">amxo/amxo.h</text>
</a>
</g>
</g>
<!-- Node2&#45;&gt;Node31 -->
<g id="edge30" class="edge">
<title>Node2&#45;&gt;Node31</title>
<path fill="none" stroke="midnightblue" d="M2410.76,-176.93C2592.81,-176.31 3865.6,-170.64 4273.27,-131.86"/>
<polygon fill="midnightblue" stroke="midnightblue" points="4273.71,-135.34 4283.32,-130.88 4273.03,-128.37 4273.71,-135.34"/>
</g>
<!-- Node32 -->
<g id="node32" class="node">
<title>Node32</title>
<g id="a_node32"><a xlink:title=" ">
<polygon fill="white" stroke="#bfbfbf" points="4384.5,-112.5 4384.5,-131.5 4499.5,-131.5 4499.5,-112.5 4384.5,-112.5"/>
<text text-anchor="middle" x="4442" y="-119.5" font-family="Helvetica,sans-Serif" font-size="10.00">amxo/amxo_types.h</text>
</a>
</g>
</g>
<!-- Node2&#45;&gt;Node32 -->
<g id="edge31" class="edge">
<title>Node2&#45;&gt;Node32</title>
<path fill="none" stroke="midnightblue" d="M2410.72,-176.85C2598.08,-175.48 3944.51,-164.63 4374.16,-132.04"/>
<polygon fill="midnightblue" stroke="midnightblue" points="4374.75,-135.5 4384.45,-131.24 4374.21,-128.52 4374.75,-135.5"/>
</g>
<!-- Node33 -->
<g id="node33" class="node">
<title>Node33</title>
<g id="a_node33"><a xlink:href="wld__types_8h.html" target="_top" xlink:title=" ">
<polygon fill="white" stroke="black" points="465.5,-56.5 465.5,-75.5 540.5,-75.5 540.5,-56.5 465.5,-56.5"/>
<text text-anchor="middle" x="503" y="-63.5" font-family="Helvetica,sans-Serif" font-size="10.00">wld_types.h</text>
</a>
</g>
</g>
<!-- Node2&#45;&gt;Node33 -->
<g id="edge32" class="edge">
<title>Node2&#45;&gt;Node33</title>
<path fill="none" stroke="midnightblue" d="M2367.4,-176.94C2152.39,-176.27 403.86,-169.69 367,-132 336.19,-100.49 404.76,-82.31 455.3,-73.56"/>
<polygon fill="midnightblue" stroke="midnightblue" points="456.15,-76.96 465.45,-71.88 455.01,-70.06 456.15,-76.96"/>
</g>
<!-- Node34 -->
<g id="node34" class="node">
<title>Node34</title>
<g id="a_node34"><a xlink:title=" ">
<polygon fill="white" stroke="#bfbfbf" points="476.5,-0.5 476.5,-19.5 621.5,-19.5 621.5,-0.5 476.5,-0.5"/>
<text text-anchor="middle" x="549" y="-7.5" font-family="Helvetica,sans-Serif" font-size="10.00">swl/types/swl_arrayType.h</text>
</a>
</g>
</g>
<!-- Node2&#45;&gt;Node34 -->
<g id="edge60" class="edge">
<title>Node2&#45;&gt;Node34</title>
<path fill="none" stroke="midnightblue" d="M2367.34,-176.81C2186.5,-175.14 932.69,-162.54 860,-132 815.08,-113.13 824.24,-78.45 781,-56 734.95,-32.09 677.77,-20.82 631.71,-15.54"/>
<polygon fill="midnightblue" stroke="midnightblue" points="632.07,-12.06 621.76,-14.47 631.33,-19.02 632.07,-12.06"/>
</g>
<!-- Node35 -->
<g id="node35" class="node">
<title>Node35</title>
<g id="a_node35"><a xlink:title=" ">
<polygon fill="white" stroke="#bfbfbf" points="731.5,-0.5 731.5,-19.5 892.5,-19.5 892.5,-0.5 731.5,-0.5"/>
<text text-anchor="middle" x="812" y="-7.5" font-family="Helvetica,sans-Serif" font-size="10.00">swla/swla_namedTupleType.h</text>
</a>
</g>
</g>
<!-- Node2&#45;&gt;Node35 -->
<g id="edge62" class="edge">
<title>Node2&#45;&gt;Node35</title>
<path fill="none" stroke="midnightblue" d="M2367.49,-176.97C2187.95,-176.66 943.31,-173 877,-132 872.11,-128.97 837.64,-61.72 820.98,-28.81"/>
<polygon fill="midnightblue" stroke="midnightblue" points="824.06,-27.16 816.43,-19.81 817.81,-30.32 824.06,-27.16"/>
</g>
<!-- Node36 -->
<g id="node36" class="node">
<title>Node36</title>
<g id="a_node36"><a xlink:href="wld__channel__types_8h.html" target="_top" xlink:title=" ">
<polygon fill="white" stroke="black" points="76.5,-112.5 76.5,-131.5 195.5,-131.5 195.5,-112.5 76.5,-112.5"/>
<text text-anchor="middle" x="136" y="-119.5" font-family="Helvetica,sans-Serif" font-size="10.00">wld_channel_types.h</text>
</a>
</g>
</g>
<!-- Node2&#45;&gt;Node36 -->
<g id="edge37" class="edge">
<title>Node2&#45;&gt;Node36</title>
<path fill="none" stroke="midnightblue" d="M2367.49,-176.82C2169.84,-175.15 666.74,-161.58 217,-132 213.32,-131.76 209.56,-131.47 205.76,-131.15"/>
<polygon fill="midnightblue" stroke="midnightblue" points="205.94,-127.66 195.66,-130.24 205.31,-134.63 205.94,-127.66"/>
</g>
<!-- Node37 -->
<g id="node37" class="node">
<title>Node37</title>
<g id="a_node37"><a xlink:title=" ">
<polygon fill="white" stroke="#bfbfbf" points="118.5,-56.5 118.5,-75.5 243.5,-75.5 243.5,-56.5 118.5,-56.5"/>
<text text-anchor="middle" x="181" y="-63.5" font-family="Helvetica,sans-Serif" font-size="10.00">swla/swla_chanspec.h</text>
</a>
</g>
</g>
<!-- Node2&#45;&gt;Node37 -->
<g id="edge54" class="edge">
<title>Node2&#45;&gt;Node37</title>
<path fill="none" stroke="midnightblue" d="M2367.32,-176.96C2149.5,-176.47 362.02,-171.28 258,-132 232.04,-122.2 208.69,-99.59 194.68,-83.8"/>
<polygon fill="midnightblue" stroke="midnightblue" points="197.05,-81.2 187.9,-75.86 191.73,-85.74 197.05,-81.2"/>
</g>
<!-- Node38 -->
<g id="node38" class="node">
<title>Node38</title>
<g id="a_node38"><a xlink:href="wld__bgdfs_8h.html" target="_top" xlink:title=" ">
<polygon fill="white" stroke="black" points="376.5,-112.5 376.5,-131.5 451.5,-131.5 451.5,-112.5 376.5,-112.5"/>
<text text-anchor="middle" x="414" y="-119.5" font-family="Helvetica,sans-Serif" font-size="10.00">wld_bgdfs.h</text>
</a>
</g>
</g>
<!-- Node2&#45;&gt;Node38 -->
<g id="edge41" class="edge">
<title>Node2&#45;&gt;Node38</title>
<path fill="none" stroke="midnightblue" d="M2367.32,-177C2183.1,-176.95 877.38,-175.08 461.53,-131.95"/>
<polygon fill="midnightblue" stroke="midnightblue" points="461.89,-128.47 451.58,-130.89 461.15,-135.43 461.89,-128.47"/>
</g>
<!-- Node39 -->
<g id="node39" class="node">
<title>Node39</title>
<g id="a_node39"><a xlink:href="wld__rad__delayMgr_8h.html" target="_top" xlink:title=" ">
<polygon fill="white" stroke="black" points="4518,-112.5 4518,-131.5 4632,-131.5 4632,-112.5 4518,-112.5"/>
<text text-anchor="middle" x="4575" y="-119.5" font-family="Helvetica,sans-Serif" font-size="10.00">wld_rad_delayMgr.h</text>
</a>
</g>
</g>
<!-- Node2&#45;&gt;Node39 -->
<g id="edge43" class="edge">
<title>Node2&#45;&gt;Node39</title>
<path fill="none" stroke="midnightblue" d="M2410.72,-176.87C2606.23,-175.72 4063.26,-166.3 4500,-132 4502.52,-131.8 4505.09,-131.57 4507.7,-131.32"/>
<polygon fill="midnightblue" stroke="midnightblue" points="4508.27,-134.78 4517.83,-130.22 4507.52,-127.82 4508.27,-134.78"/>
</g>
<!-- Node40 -->
<g id="node40" class="node">
<title>Node40</title>
<g id="a_node40"><a xlink:href="wld__fsm_8h.html" target="_top" xlink:title=" ">
<polygon fill="white" stroke="black" points="469.5,-112.5 469.5,-131.5 536.5,-131.5 536.5,-112.5 469.5,-112.5"/>
<text text-anchor="middle" x="503" y="-119.5" font-family="Helvetica,sans-Serif" font-size="10.00">wld_fsm.h</text>
</a>
</g>
</g>
<!-- Node2&#45;&gt;Node40 -->
<g id="edge45" class="edge">
<title>Node2&#45;&gt;Node40</title>
<path fill="none" stroke="midnightblue" d="M2367.43,-177.01C2188.36,-177.05 945.06,-175.77 546.81,-131.81"/>
<polygon fill="midnightblue" stroke="midnightblue" points="547.04,-128.31 536.71,-130.66 546.25,-135.26 547.04,-128.31"/>
</g>
<!-- Node41 -->
<g id="node41" class="node">
<title>Node41</title>
<g id="a_node41"><a xlink:href="wld__mld_8h.html" target="_top" xlink:title=" ">
<polygon fill="white" stroke="black" points="554.5,-112.5 554.5,-131.5 621.5,-131.5 621.5,-112.5 554.5,-112.5"/>
<text text-anchor="middle" x="588" y="-119.5" font-family="Helvetica,sans-Serif" font-size="10.00">wld_mld.h</text>
</a>
</g>
</g>
<!-- Node2&#45;&gt;Node41 -->
<g id="edge48" class="edge">
<title>Node2&#45;&gt;Node41</title>
<path fill="none" stroke="midnightblue" d="M2367.32,-176.98C2192.67,-176.78 1011.97,-173.91 631.9,-131.82"/>
<polygon fill="midnightblue" stroke="midnightblue" points="632.04,-128.31 621.71,-130.66 631.25,-135.26 632.04,-128.31"/>
</g>
<!-- Node42 -->
<g id="node42" class="node">
<title>Node42</title>
<g id="a_node42"><a xlink:href="wld__autoCommitRadData_8h.html" target="_top" xlink:title=" ">
<polygon fill="white" stroke="black" points="4650,-112.5 4650,-131.5 4826,-131.5 4826,-112.5 4650,-112.5"/>
<text text-anchor="middle" x="4738" y="-119.5" font-family="Helvetica,sans-Serif" font-size="10.00">Utils/wld_autoCommitRadData.h</text>
</a>
</g>
</g>
<!-- Node2&#45;&gt;Node42 -->
<g id="edge50" class="edge">
<title>Node2&#45;&gt;Node42</title>
<path fill="none" stroke="midnightblue" d="M2410.67,-177.17C2580.13,-178.33 3710.28,-183.9 4639.75,-132.02"/>
<polygon fill="midnightblue" stroke="midnightblue" points="4640.2,-135.5 4649.99,-131.45 4639.81,-128.51 4640.2,-135.5"/>
</g>
<!-- Node43 -->
<g id="node43" class="node">
<title>Node43</title>
<g id="a_node43"><a xlink:href="wld__dmnMgt_8h.html" target="_top" xlink:title=" ">
<polygon fill="white" stroke="red" points="640,-112.5 640,-131.5 754,-131.5 754,-112.5 640,-112.5"/>
<text text-anchor="middle" x="697" y="-119.5" font-family="Helvetica,sans-Serif" font-size="10.00">Utils/wld_dmnMgt.h</text>
</a>
</g>
</g>
<!-- Node2&#45;&gt;Node43 -->
<g id="edge51" class="edge">
<title>Node2&#45;&gt;Node43</title>
<path fill="none" stroke="midnightblue" d="M2367.48,-177.2C2226.6,-178.34 1421.33,-182.35 768,-132 766.89,-131.91 765.76,-131.82 764.63,-131.73"/>
<polygon fill="midnightblue" stroke="midnightblue" points="764.59,-128.21 754.3,-130.75 763.93,-135.18 764.59,-128.21"/>
</g>
<!-- Node45 -->
<g id="node44" class="node">
<title>Node45</title>
<g id="a_node44"><a xlink:title=" ">
<polygon fill="white" stroke="#bfbfbf" points="4844.5,-112.5 4844.5,-131.5 4945.5,-131.5 4945.5,-112.5 4844.5,-112.5"/>
<text text-anchor="middle" x="4895" y="-119.5" font-family="Helvetica,sans-Serif" font-size="10.00">swl/swl_staCap.h</text>
</a>
</g>
</g>
<!-- Node2&#45;&gt;Node45 -->
<g id="edge55" class="edge">
<title>Node2&#45;&gt;Node45</title>
<path fill="none" stroke="midnightblue" d="M2410.52,-176.99C2620.37,-176.87 4305.52,-174.61 4834.32,-131.9"/>
<polygon fill="midnightblue" stroke="midnightblue" points="4834.64,-135.39 4844.32,-131.08 4834.06,-128.41 4834.64,-135.39"/>
</g>
<!-- Node46 -->
<g id="node45" class="node">
<title>Node46</title>
<g id="a_node45"><a xlink:title=" ">
<polygon fill="white" stroke="#bfbfbf" points="4964,-112.5 4964,-131.5 5068,-131.5 5068,-112.5 4964,-112.5"/>
<text text-anchor="middle" x="5016" y="-119.5" font-family="Helvetica,sans-Serif" font-size="10.00">swla/swla_table.h</text>
</a>
</g>
</g>
<!-- Node2&#45;&gt;Node46 -->
<g id="edge56" class="edge">
<title>Node2&#45;&gt;Node46</title>
<path fill="none" stroke="midnightblue" d="M2410.55,-177.01C2626.2,-177.03 4399.46,-175.88 4953.73,-131.97"/>
<polygon fill="midnightblue" stroke="midnightblue" points="4954.12,-135.45 4963.81,-131.15 4953.56,-128.47 4954.12,-135.45"/>
</g>
<!-- Node47 -->
<g id="node46" class="node">
<title>Node47</title>
<g id="a_node46"><a xlink:title=" ">
<polygon fill="white" stroke="#bfbfbf" points="5086.5,-112.5 5086.5,-131.5 5183.5,-131.5 5183.5,-112.5 5086.5,-112.5"/>
<text text-anchor="middle" x="5135" y="-119.5" font-family="Helvetica,sans-Serif" font-size="10.00">swl/swl_assert.h</text>
</a>
</g>
</g>
<!-- Node2&#45;&gt;Node47 -->
<g id="edge57" class="edge">
<title>Node2&#45;&gt;Node47</title>
<path fill="none" stroke="midnightblue" d="M2410.52,-177.05C2631.71,-177.5 4495.19,-179.86 5076.19,-131.9"/>
<polygon fill="midnightblue" stroke="midnightblue" points="5076.65,-135.38 5086.32,-131.05 5076.07,-128.4 5076.65,-135.38"/>
</g>
<!-- Node48 -->
<g id="node47" class="node">
<title>Node48</title>
<g id="a_node47"><a xlink:title=" ">
<polygon fill="white" stroke="#bfbfbf" points="5201.5,-112.5 5201.5,-131.5 5322.5,-131.5 5322.5,-112.5 5201.5,-112.5"/>
<text text-anchor="middle" x="5262" y="-119.5" font-family="Helvetica,sans-Serif" font-size="10.00">swl/swl_returnCode.h</text>
</a>
</g>
</g>
<!-- Node2&#45;&gt;Node48 -->
<g id="edge58" class="edge">
<title>Node2&#45;&gt;Node48</title>
<path fill="none" stroke="midnightblue" d="M2410.73,-176.99C2638.11,-176.89 4585.83,-174.74 5191.33,-132.02"/>
<polygon fill="midnightblue" stroke="midnightblue" points="5191.73,-135.5 5201.46,-131.29 5191.23,-128.52 5191.73,-135.5"/>
</g>
<!-- Node49 -->
<g id="node48" class="node">
<title>Node49</title>
<g id="a_node48"><a xlink:title=" ">
<polygon fill="white" stroke="#bfbfbf" points="5341,-112.5 5341,-131.5 5467,-131.5 5467,-112.5 5341,-112.5"/>
<text text-anchor="middle" x="5404" y="-119.5" font-family="Helvetica,sans-Serif" font-size="10.00">swla/swla_tupleType.h</text>
</a>
</g>
</g>
<!-- Node2&#45;&gt;Node49 -->
<g id="edge59" class="edge">
<title>Node2&#45;&gt;Node49</title>
<path fill="none" stroke="midnightblue" d="M2410.69,-177C2644.1,-176.92 4694.59,-175.05 5330.64,-131.99"/>
<polygon fill="midnightblue" stroke="midnightblue" points="5331.09,-135.47 5340.82,-131.29 5330.61,-128.49 5331.09,-135.47"/>
</g>
<!-- Node50 -->
<g id="node49" class="node">
<title>Node50</title>
<g id="a_node49"><a xlink:title=" ">
<polygon fill="white" stroke="#bfbfbf" points="5485,-112.5 5485,-131.5 5571,-131.5 5571,-112.5 5485,-112.5"/>
<text text-anchor="middle" x="5528" y="-119.5" font-family="Helvetica,sans-Serif" font-size="10.00">swl/swl_mlo.h</text>
</a>
</g>
</g>
<!-- Node2&#45;&gt;Node50 -->
<g id="edge61" class="edge">
<title>Node2&#45;&gt;Node50</title>
<path fill="none" stroke="midnightblue" d="M2410.75,-176.89C2666.85,-175.59 5105.21,-162.44 5474.86,-131.87"/>
<polygon fill="midnightblue" stroke="midnightblue" points="5475.28,-135.35 5484.94,-130.99 5474.67,-128.38 5475.28,-135.35"/>
</g>
<!-- Node51 -->
<g id="node50" class="node">
<title>Node51</title>
<g id="a_node50"><a xlink:title=" ">
<polygon fill="white" stroke="#bfbfbf" points="5589,-112.5 5589,-131.5 5711,-131.5 5711,-112.5 5589,-112.5"/>
<text text-anchor="middle" x="5650" y="-119.5" font-family="Helvetica,sans-Serif" font-size="10.00">swla/swla_circTable.h</text>
</a>
</g>
</g>
<!-- Node2&#45;&gt;Node51 -->
<g id="edge63" class="edge">
<title>Node2&#45;&gt;Node51</title>
<path fill="none" stroke="midnightblue" d="M2410.59,-177.04C2654.14,-177.41 4889.31,-179.53 5578.92,-131.97"/>
<polygon fill="midnightblue" stroke="midnightblue" points="5579.23,-135.45 5588.96,-131.26 5578.74,-128.47 5579.23,-135.45"/>
</g>
<!-- Node33&#45;&gt;Node4 -->
<g id="edge33" class="edge">
<title>Node33&#45;&gt;Node4</title>
<path fill="none" stroke="midnightblue" d="M490.15,-56.32C477.78,-47.98 458.87,-35.21 444.26,-25.35"/>
<polygon fill="midnightblue" stroke="midnightblue" points="446.07,-22.35 435.82,-19.65 442.15,-28.15 446.07,-22.35"/>
</g>
<!-- Node33&#45;&gt;Node9 -->
<g id="edge36" class="edge">
<title>Node33&#45;&gt;Node9</title>
<path fill="none" stroke="midnightblue" d="M466.4,-56.44C426.27,-47.06 361.8,-31.99 318.22,-21.8"/>
<polygon fill="midnightblue" stroke="midnightblue" points="318.97,-18.38 308.43,-19.52 317.37,-25.2 318.97,-18.38"/>
</g>
<!-- Node33&#45;&gt;Node34 -->
<g id="edge34" class="edge">
<title>Node33&#45;&gt;Node34</title>
<path fill="none" stroke="midnightblue" d="M510.6,-56.08C517.23,-48.3 527.02,-36.8 535.06,-27.37"/>
<polygon fill="midnightblue" stroke="midnightblue" points="537.73,-29.63 541.55,-19.75 532.4,-25.09 537.73,-29.63"/>
</g>
<!-- Node33&#45;&gt;Node35 -->
<g id="edge35" class="edge">
<title>Node33&#45;&gt;Node35</title>
<path fill="none" stroke="midnightblue" d="M540.58,-58.43C593.52,-49.18 690.58,-32.22 753.14,-21.29"/>
<polygon fill="midnightblue" stroke="midnightblue" points="754.01,-24.69 763.26,-19.52 752.81,-17.79 754.01,-24.69"/>
</g>
<!-- Node36&#45;&gt;Node3 -->
<g id="edge38" class="edge">
<title>Node36&#45;&gt;Node3</title>
<path fill="none" stroke="midnightblue" d="M119.13,-112.32C102.29,-103.66 76.19,-90.24 56.76,-80.25"/>
<polygon fill="midnightblue" stroke="midnightblue" points="58.32,-77.12 47.83,-75.65 55.12,-83.34 58.32,-77.12"/>
</g>
<!-- Node36&#45;&gt;Node9 -->
<g id="edge40" class="edge">
<title>Node36&#45;&gt;Node9</title>
<path fill="none" stroke="midnightblue" d="M127.16,-112.28C114.86,-99.08 95.53,-73.69 109,-56 121.61,-39.44 170.26,-27.42 211.16,-19.99"/>
<polygon fill="midnightblue" stroke="midnightblue" points="211.85,-23.42 221.1,-18.24 210.64,-16.53 211.85,-23.42"/>
</g>
<!-- Node36&#45;&gt;Node37 -->
<g id="edge39" class="edge">
<title>Node36&#45;&gt;Node37</title>
<path fill="none" stroke="midnightblue" d="M143.43,-112.08C149.85,-104.38 159.31,-93.03 167.12,-83.65"/>
<polygon fill="midnightblue" stroke="midnightblue" points="169.99,-85.67 173.71,-75.75 164.62,-81.19 169.99,-85.67"/>
</g>
<!-- Node38&#45;&gt;Node33 -->
<g id="edge42" class="edge">
<title>Node38&#45;&gt;Node33</title>
<path fill="none" stroke="midnightblue" d="M428.3,-112.32C442.18,-103.9 463.49,-90.97 479.8,-81.07"/>
<polygon fill="midnightblue" stroke="midnightblue" points="482,-83.83 488.74,-75.65 478.37,-77.85 482,-83.83"/>
</g>
<!-- Node39&#45;&gt;Node2 -->
<g id="edge44" class="edge">
<title>Node39&#45;&gt;Node2</title>
<path fill="none" stroke="midnightblue" d="M4523.6,-131.52C4521.72,-131.69 4519.84,-131.86 4518,-132 4085.6,-165.96 2653.09,-175.53 2420.89,-176.84"/>
<polygon fill="midnightblue" stroke="midnightblue" points="2420.73,-173.34 2410.75,-176.89 2420.76,-180.34 2420.73,-173.34"/>
</g>
<!-- Node40&#45;&gt;Node33 -->
<g id="edge46" class="edge">
<title>Node40&#45;&gt;Node33</title>
<path fill="none" stroke="midnightblue" d="M503,-112.08C503,-105.01 503,-94.86 503,-85.99"/>
<polygon fill="midnightblue" stroke="midnightblue" points="506.5,-85.75 503,-75.75 499.5,-85.75 506.5,-85.75"/>
</g>
<!-- Node41&#45;&gt;Node33 -->
<g id="edge49" class="edge">
<title>Node41&#45;&gt;Node33</title>
<path fill="none" stroke="midnightblue" d="M574.34,-112.32C561.08,-103.9 540.73,-90.97 525.15,-81.07"/>
<polygon fill="midnightblue" stroke="midnightblue" points="526.94,-78.06 516.62,-75.65 523.19,-83.97 526.94,-78.06"/>
</g>
<!-- Node43&#45;&gt;Node5 -->
<g id="edge52" class="edge">
<title>Node43&#45;&gt;Node5</title>
<path fill="none" stroke="midnightblue" d="M700.3,-112.08C702.98,-104.85 706.85,-94.41 710.19,-85.4"/>
<polygon fill="midnightblue" stroke="midnightblue" points="713.57,-86.34 713.76,-75.75 707,-83.91 713.57,-86.34"/>
</g>
<!-- Node43&#45;&gt;Node33 -->
<g id="edge53" class="edge">
<title>Node43&#45;&gt;Node33</title>
<path fill="none" stroke="midnightblue" d="M666.26,-112.44C633.06,-103.2 580.01,-88.44 543.44,-78.26"/>
<polygon fill="midnightblue" stroke="midnightblue" points="544.17,-74.83 533.6,-75.52 542.29,-81.57 544.17,-74.83"/>
</g>
</g>
</svg>
