<?xml version="1.0" encoding="UTF-8" standalone="no"?>
<!DOCTYPE svg PUBLIC "-//W3C//DTD SVG 1.1//EN"
 "http://www.w3.org/Graphics/SVG/1.1/DTD/svg11.dtd">
<!-- Generated by graphviz version 2.43.0 (0)
 -->
<!-- Title: wld_util_getSpectrumEntryByChannel Pages: 1 -->
<svg width="764pt" height="39pt"
 viewBox="0.00 0.00 764.00 39.00" xmlns="http://www.w3.org/2000/svg" xmlns:xlink="http://www.w3.org/1999/xlink">
<g id="graph0" class="graph" transform="scale(1 1) rotate(0) translate(4 35)">
<title>wld_util_getSpectrumEntryByChannel</title>
<polygon fill="white" stroke="transparent" points="-4,4 -4,-35 760,-35 760,4 -4,4"/>
<!-- Node1 -->
<g id="node1" class="node">
<title>Node1</title>
<g id="a_node1"><a xlink:title="fetch, by channel, a spectrum result entry in provided list">
<polygon fill="#bfbfbf" stroke="black" points="608,-0.5 608,-30.5 756,-30.5 756,-0.5 608,-0.5"/>
<text text-anchor="start" x="616" y="-18.5" font-family="Helvetica,sans-Serif" font-size="10.00">wld_util_getSpectrumEntry</text>
<text text-anchor="middle" x="682" y="-7.5" font-family="Helvetica,sans-Serif" font-size="10.00">ByChannel</text>
</a>
</g>
</g>
<!-- Node2 -->
<g id="node2" class="node">
<title>Node2</title>
<g id="a_node2"><a xlink:href="wld__util_8c.html#a2d2611af137f5b97865337c7c3a2f789" target="_top" xlink:title="add or update a spectrum result entry in provided list, based on the channel of the provided data str...">
<polygon fill="white" stroke="black" points="402,-0.5 402,-30.5 572,-30.5 572,-0.5 402,-0.5"/>
<text text-anchor="start" x="410" y="-18.5" font-family="Helvetica,sans-Serif" font-size="10.00">wld_util_addorUpdateSpectrum</text>
<text text-anchor="middle" x="487" y="-7.5" font-family="Helvetica,sans-Serif" font-size="10.00">Entry</text>
</a>
</g>
</g>
<!-- Node1&#45;&gt;Node2 -->
<g id="edge1" class="edge">
<title>Node1&#45;&gt;Node2</title>
<path fill="none" stroke="midnightblue" d="M597.58,-15.5C589.16,-15.5 580.61,-15.5 572.18,-15.5"/>
<polygon fill="midnightblue" stroke="midnightblue" points="597.76,-19 607.76,-15.5 597.76,-12 597.76,-19"/>
</g>
<!-- Node3 -->
<g id="node3" class="node">
<title>Node3</title>
<g id="a_node3"><a xlink:href="wld__rad__nl80211_8c.html#a27e046bcc6b8d56984848349fe978e99" target="_top" xlink:title=" ">
<polygon fill="white" stroke="black" points="197,-0.5 197,-30.5 366,-30.5 366,-0.5 197,-0.5"/>
<text text-anchor="start" x="205" y="-18.5" font-family="Helvetica,sans-Serif" font-size="10.00">wld_rad_nl80211_updateUsage</text>
<text text-anchor="middle" x="281.5" y="-7.5" font-family="Helvetica,sans-Serif" font-size="10.00">StatsFromSurveyInfo</text>
</a>
</g>
</g>
<!-- Node2&#45;&gt;Node3 -->
<g id="edge2" class="edge">
<title>Node2&#45;&gt;Node3</title>
<path fill="none" stroke="midnightblue" d="M391.73,-15.5C383.15,-15.5 374.5,-15.5 366.02,-15.5"/>
<polygon fill="midnightblue" stroke="midnightblue" points="391.76,-19 401.76,-15.5 391.76,-12 391.76,-19"/>
</g>
<!-- Node4 -->
<g id="node4" class="node">
<title>Node4</title>
<g id="a_node4"><a xlink:href="wifiGen__rad_8c.html#a63ca0312efb1460f235020f8d8fbf442" target="_top" xlink:title=" ">
<polygon fill="white" stroke="black" points="0,-6 0,-25 161,-25 161,-6 0,-6"/>
<text text-anchor="middle" x="80.5" y="-13" font-family="Helvetica,sans-Serif" font-size="10.00">wifiGen_rad_getSpectrumInfo</text>
</a>
</g>
</g>
<!-- Node3&#45;&gt;Node4 -->
<g id="edge3" class="edge">
<title>Node3&#45;&gt;Node4</title>
<path fill="none" stroke="midnightblue" d="M186.95,-15.5C178.38,-15.5 169.75,-15.5 161.32,-15.5"/>
<polygon fill="midnightblue" stroke="midnightblue" points="186.97,-19 196.97,-15.5 186.97,-12 186.97,-19"/>
</g>
</g>
</svg>
