<?xml version="1.0" encoding="UTF-8" standalone="no"?>
<!DOCTYPE svg PUBLIC "-//W3C//DTD SVG 1.1//EN"
 "http://www.w3.org/Graphics/SVG/1.1/DTD/svg11.dtd">
<!-- Generated by graphviz version 2.43.0 (0)
 -->
<!-- Title: src/Utils/wld_linuxWExtUtils.c Pages: 1 -->
<svg width="854pt" height="140pt"
 viewBox="0.00 0.00 854.00 140.00" xmlns="http://www.w3.org/2000/svg" xmlns:xlink="http://www.w3.org/1999/xlink">
<g id="graph0" class="graph" transform="scale(1 1) rotate(0) translate(4 136)">
<title>src/Utils/wld_linuxWExtUtils.c</title>
<polygon fill="white" stroke="transparent" points="-4,4 -4,-136 850,-136 850,4 -4,4"/>
<!-- Node1 -->
<g id="node1" class="node">
<title>Node1</title>
<g id="a_node1"><a xlink:title=" ">
<polygon fill="#bfbfbf" stroke="black" points="300,-112.5 300,-131.5 462,-131.5 462,-112.5 300,-112.5"/>
<text text-anchor="middle" x="381" y="-119.5" font-family="Helvetica,sans-Serif" font-size="10.00">src/Utils/wld_linuxWExtUtils.c</text>
</a>
</g>
</g>
<!-- Node2 -->
<g id="node2" class="node">
<title>Node2</title>
<g id="a_node2"><a xlink:title=" ">
<polygon fill="white" stroke="#bfbfbf" points="0,-56.5 0,-75.5 56,-75.5 56,-56.5 0,-56.5"/>
<text text-anchor="middle" x="28" y="-63.5" font-family="Helvetica,sans-Serif" font-size="10.00">unistd.h</text>
</a>
</g>
</g>
<!-- Node1&#45;&gt;Node2 -->
<g id="edge1" class="edge">
<title>Node1&#45;&gt;Node2</title>
<path fill="none" stroke="midnightblue" d="M306.6,-112.48C244.67,-104.91 154.01,-92.73 66.09,-76.06"/>
<polygon fill="midnightblue" stroke="midnightblue" points="66.7,-72.61 56.22,-74.16 65.38,-79.48 66.7,-72.61"/>
</g>
<!-- Node3 -->
<g id="node3" class="node">
<title>Node3</title>
<g id="a_node3"><a xlink:title=" ">
<polygon fill="white" stroke="#bfbfbf" points="74.5,-56.5 74.5,-75.5 127.5,-75.5 127.5,-56.5 74.5,-56.5"/>
<text text-anchor="middle" x="101" y="-63.5" font-family="Helvetica,sans-Serif" font-size="10.00">stdlib.h</text>
</a>
</g>
</g>
<!-- Node1&#45;&gt;Node3 -->
<g id="edge2" class="edge">
<title>Node1&#45;&gt;Node3</title>
<path fill="none" stroke="midnightblue" d="M329.4,-112.45C282.11,-104.4 209.94,-91.56 137.86,-76.07"/>
<polygon fill="midnightblue" stroke="midnightblue" points="138.21,-72.57 127.69,-73.87 136.73,-79.41 138.21,-72.57"/>
</g>
<!-- Node4 -->
<g id="node4" class="node">
<title>Node4</title>
<g id="a_node4"><a xlink:title=" ">
<polygon fill="white" stroke="#bfbfbf" points="145.5,-56.5 145.5,-75.5 196.5,-75.5 196.5,-56.5 145.5,-56.5"/>
<text text-anchor="middle" x="171" y="-63.5" font-family="Helvetica,sans-Serif" font-size="10.00">errno.h</text>
</a>
</g>
</g>
<!-- Node1&#45;&gt;Node4 -->
<g id="edge3" class="edge">
<title>Node1&#45;&gt;Node4</title>
<path fill="none" stroke="midnightblue" d="M347.72,-112.44C309.1,-102.51 245.69,-86.21 206.25,-76.06"/>
<polygon fill="midnightblue" stroke="midnightblue" points="207.08,-72.66 196.52,-73.56 205.34,-79.44 207.08,-72.66"/>
</g>
<!-- Node5 -->
<g id="node5" class="node">
<title>Node5</title>
<g id="a_node5"><a xlink:title=" ">
<polygon fill="white" stroke="#bfbfbf" points="214.5,-56.5 214.5,-75.5 291.5,-75.5 291.5,-56.5 214.5,-56.5"/>
<text text-anchor="middle" x="253" y="-63.5" font-family="Helvetica,sans-Serif" font-size="10.00">sys/socket.h</text>
</a>
</g>
</g>
<!-- Node1&#45;&gt;Node5 -->
<g id="edge4" class="edge">
<title>Node1&#45;&gt;Node5</title>
<path fill="none" stroke="midnightblue" d="M360.72,-112.44C339.65,-103.56 306.48,-89.56 282.51,-79.45"/>
<polygon fill="midnightblue" stroke="midnightblue" points="283.76,-76.18 273.19,-75.52 281.04,-82.63 283.76,-76.18"/>
</g>
<!-- Node6 -->
<g id="node6" class="node">
<title>Node6</title>
<g id="a_node6"><a xlink:title=" ">
<polygon fill="white" stroke="#bfbfbf" points="310,-56.5 310,-75.5 376,-75.5 376,-56.5 310,-56.5"/>
<text text-anchor="middle" x="343" y="-63.5" font-family="Helvetica,sans-Serif" font-size="10.00">sys/ioctl.h</text>
</a>
</g>
</g>
<!-- Node1&#45;&gt;Node6 -->
<g id="edge5" class="edge">
<title>Node1&#45;&gt;Node6</title>
<path fill="none" stroke="midnightblue" d="M374.73,-112.08C369.36,-104.46 361.48,-93.26 354.92,-83.94"/>
<polygon fill="midnightblue" stroke="midnightblue" points="357.78,-81.91 349.16,-75.75 352.05,-85.94 357.78,-81.91"/>
</g>
<!-- Node7 -->
<g id="node7" class="node">
<title>Node7</title>
<g id="a_node7"><a xlink:title=" ">
<polygon fill="white" stroke="#bfbfbf" points="394,-56.5 394,-75.5 444,-75.5 444,-56.5 394,-56.5"/>
<text text-anchor="middle" x="419" y="-63.5" font-family="Helvetica,sans-Serif" font-size="10.00">net/if.h</text>
</a>
</g>
</g>
<!-- Node1&#45;&gt;Node7 -->
<g id="edge6" class="edge">
<title>Node1&#45;&gt;Node7</title>
<path fill="none" stroke="midnightblue" d="M387.27,-112.08C392.64,-104.46 400.52,-93.26 407.08,-83.94"/>
<polygon fill="midnightblue" stroke="midnightblue" points="409.95,-85.94 412.84,-75.75 404.22,-81.91 409.95,-85.94"/>
</g>
<!-- Node8 -->
<g id="node8" class="node">
<title>Node8</title>
<g id="a_node8"><a xlink:title=" ">
<polygon fill="white" stroke="#bfbfbf" points="462.5,-56.5 462.5,-75.5 555.5,-75.5 555.5,-56.5 462.5,-56.5"/>
<text text-anchor="middle" x="509" y="-63.5" font-family="Helvetica,sans-Serif" font-size="10.00">linux/wireless.h</text>
</a>
</g>
</g>
<!-- Node1&#45;&gt;Node8 -->
<g id="edge7" class="edge">
<title>Node1&#45;&gt;Node8</title>
<path fill="none" stroke="midnightblue" d="M401.28,-112.44C422.35,-103.56 455.52,-89.56 479.49,-79.45"/>
<polygon fill="midnightblue" stroke="midnightblue" points="480.96,-82.63 488.81,-75.52 478.24,-76.18 480.96,-82.63"/>
</g>
<!-- Node9 -->
<g id="node9" class="node">
<title>Node9</title>
<g id="a_node9"><a xlink:title=" ">
<polygon fill="white" stroke="#bfbfbf" points="630,-0.5 630,-19.5 740,-19.5 740,-0.5 630,-0.5"/>
<text text-anchor="middle" x="685" y="-7.5" font-family="Helvetica,sans-Serif" font-size="10.00">swl/swl_common.h</text>
</a>
</g>
</g>
<!-- Node1&#45;&gt;Node9 -->
<g id="edge8" class="edge">
<title>Node1&#45;&gt;Node9</title>
<path fill="none" stroke="midnightblue" d="M430.47,-112.48C468.12,-105.15 520.82,-93.04 565,-76 574.81,-72.22 628.69,-42.44 660.83,-24.53"/>
<polygon fill="midnightblue" stroke="midnightblue" points="662.62,-27.53 669.64,-19.6 659.2,-21.42 662.62,-27.53"/>
</g>
<!-- Node10 -->
<g id="node10" class="node">
<title>Node10</title>
<g id="a_node10"><a xlink:title=" ">
<polygon fill="white" stroke="#bfbfbf" points="612.5,-56.5 612.5,-75.5 707.5,-75.5 707.5,-56.5 612.5,-56.5"/>
<text text-anchor="middle" x="660" y="-63.5" font-family="Helvetica,sans-Serif" font-size="10.00">swl/swl_string.h</text>
</a>
</g>
</g>
<!-- Node1&#45;&gt;Node10 -->
<g id="edge9" class="edge">
<title>Node1&#45;&gt;Node10</title>
<path fill="none" stroke="midnightblue" d="M425.21,-112.44C474.29,-102.94 553.51,-87.61 606.16,-77.42"/>
<polygon fill="midnightblue" stroke="midnightblue" points="606.85,-80.85 616,-75.52 605.52,-73.98 606.85,-80.85"/>
</g>
<!-- Node11 -->
<g id="node11" class="node">
<title>Node11</title>
<g id="a_node11"><a xlink:href="wld__linuxWExtUtils_8h.html" target="_top" xlink:title=" ">
<polygon fill="white" stroke="black" points="726,-56.5 726,-75.5 846,-75.5 846,-56.5 726,-56.5"/>
<text text-anchor="middle" x="786" y="-63.5" font-family="Helvetica,sans-Serif" font-size="10.00">wld_linuxWExtUtils.h</text>
</a>
</g>
</g>
<!-- Node1&#45;&gt;Node11 -->
<g id="edge10" class="edge">
<title>Node1&#45;&gt;Node11</title>
<path fill="none" stroke="midnightblue" d="M445.17,-112.44C518.92,-102.61 639.57,-86.52 715.77,-76.36"/>
<polygon fill="midnightblue" stroke="midnightblue" points="716.31,-79.82 725.76,-75.03 715.39,-72.88 716.31,-79.82"/>
</g>
<!-- Node11&#45;&gt;Node9 -->
<g id="edge11" class="edge">
<title>Node11&#45;&gt;Node9</title>
<path fill="none" stroke="midnightblue" d="M769.77,-56.32C753.65,-47.7 728.7,-34.36 710.04,-24.39"/>
<polygon fill="midnightblue" stroke="midnightblue" points="711.66,-21.28 701.19,-19.65 708.36,-27.46 711.66,-21.28"/>
</g>
</g>
</svg>
