<?xml version="1.0" encoding="UTF-8" standalone="no"?>
<!DOCTYPE svg PUBLIC "-//W3C//DTD SVG 1.1//EN"
 "http://www.w3.org/Graphics/SVG/1.1/DTD/svg11.dtd">
<!-- Generated by graphviz version 2.43.0 (0)
 -->
<!-- Title: wld_secDmnGrp_getActiveMembersCount Pages: 1 -->
<svg width="911pt" height="148pt"
 viewBox="0.00 0.00 911.00 147.50" xmlns="http://www.w3.org/2000/svg" xmlns:xlink="http://www.w3.org/1999/xlink">
<g id="graph0" class="graph" transform="scale(1 1) rotate(0) translate(4 143.5)">
<title>wld_secDmnGrp_getActiveMembersCount</title>
<polygon fill="white" stroke="transparent" points="-4,4 -4,-143.5 907,-143.5 907,4 -4,4"/>
<!-- Node1 -->
<g id="node1" class="node">
<title>Node1</title>
<g id="a_node1"><a xlink:title=" ">
<polygon fill="#bfbfbf" stroke="black" points="0,-57.5 0,-87.5 194,-87.5 194,-57.5 0,-57.5"/>
<text text-anchor="start" x="8" y="-75.5" font-family="Helvetica,sans-Serif" font-size="10.00">wld_secDmnGrp_getActiveMembers</text>
<text text-anchor="middle" x="97" y="-64.5" font-family="Helvetica,sans-Serif" font-size="10.00">Count</text>
</a>
</g>
</g>
<!-- Node2 -->
<g id="node2" class="node">
<title>Node2</title>
<g id="a_node2"><a xlink:href="wld__secDmn_8c.html#a1b9d684b37eb9a4922e736e45544a50d" target="_top" xlink:title=" ">
<polygon fill="white" stroke="black" points="230,-63 230,-82 347,-82 347,-63 230,-63"/>
<text text-anchor="middle" x="288.5" y="-70" font-family="Helvetica,sans-Serif" font-size="10.00">wld_secDmn_isAlive</text>
</a>
</g>
</g>
<!-- Node1&#45;&gt;Node2 -->
<g id="edge1" class="edge">
<title>Node1&#45;&gt;Node2</title>
<path fill="none" stroke="midnightblue" d="M194.14,-72.5C202.8,-72.5 211.45,-72.5 219.79,-72.5"/>
<polygon fill="midnightblue" stroke="midnightblue" points="219.79,-76 229.79,-72.5 219.79,-69 219.79,-76"/>
</g>
<!-- Node3 -->
<g id="node3" class="node">
<title>Node3</title>
<g id="a_node3"><a xlink:href="wld__secDmn_8c.html#a1b0cc11a41a11e2033f3188fd05a0d80" target="_top" xlink:title=" ">
<polygon fill="white" stroke="black" points="400.5,-120 400.5,-139 550.5,-139 550.5,-120 400.5,-120"/>
<text text-anchor="middle" x="475.5" y="-127" font-family="Helvetica,sans-Serif" font-size="10.00">wld_secDmn_isGrpMember</text>
</a>
</g>
</g>
<!-- Node2&#45;&gt;Node3 -->
<g id="edge2" class="edge">
<title>Node2&#45;&gt;Node3</title>
<path fill="none" stroke="midnightblue" d="M314.71,-82.04C333.42,-88.96 359.63,-98.33 383,-105.5 396.64,-109.69 411.57,-113.8 425.33,-117.4"/>
<polygon fill="midnightblue" stroke="midnightblue" points="424.56,-120.82 435.12,-119.93 426.31,-114.04 424.56,-120.82"/>
</g>
<!-- Node5 -->
<g id="node5" class="node">
<title>Node5</title>
<g id="a_node5"><a xlink:href="wld__secDmn_8c.html#ad8ebf9f869b635102d27d9a476e4d9eb" target="_top" xlink:title=" ">
<polygon fill="white" stroke="black" points="609.5,-66 609.5,-85 741.5,-85 741.5,-66 609.5,-66"/>
<text text-anchor="middle" x="675.5" y="-73" font-family="Helvetica,sans-Serif" font-size="10.00">wld_secDmn_isRunning</text>
</a>
</g>
</g>
<!-- Node2&#45;&gt;Node5 -->
<g id="edge4" class="edge">
<title>Node2&#45;&gt;Node5</title>
<path fill="none" stroke="midnightblue" d="M347.14,-72.95C414.25,-73.47 525.32,-74.34 599.21,-74.91"/>
<polygon fill="midnightblue" stroke="midnightblue" points="599.35,-78.41 609.38,-74.99 599.4,-71.41 599.35,-78.41"/>
</g>
<!-- Node7 -->
<g id="node7" class="node">
<title>Node7</title>
<g id="a_node7"><a xlink:href="wld__secDmnGrp_8c.html#ac68764d14b9f77537e29250cae786daf" target="_top" xlink:title=" ">
<polygon fill="white" stroke="black" points="383,-44 383,-63 568,-63 568,-44 383,-44"/>
<text text-anchor="middle" x="475.5" y="-51" font-family="Helvetica,sans-Serif" font-size="10.00">wld_secDmnGrp_isMemberStarted</text>
</a>
</g>
</g>
<!-- Node2&#45;&gt;Node7 -->
<g id="edge6" class="edge">
<title>Node2&#45;&gt;Node7</title>
<path fill="none" stroke="midnightblue" d="M347.02,-66.59C355.27,-65.75 363.95,-64.85 372.74,-63.95"/>
<polygon fill="midnightblue" stroke="midnightblue" points="373.11,-67.43 382.7,-62.93 372.4,-60.47 373.11,-67.43"/>
</g>
<!-- Node8 -->
<g id="node8" class="node">
<title>Node8</title>
<g id="a_node8"><a xlink:href="wld__wpaCtrlMngr_8c.html#ad3e7ad2284a85ee77e110a90f0fd34ae" target="_top" xlink:title="check that wpaCtrl manager is connected: i.e can receive events from its main interface.">
<polygon fill="white" stroke="black" points="392,-6 392,-25 559,-25 559,-6 392,-6"/>
<text text-anchor="middle" x="475.5" y="-13" font-family="Helvetica,sans-Serif" font-size="10.00">wld_wpaCtrlMngr_isConnected</text>
</a>
</g>
</g>
<!-- Node2&#45;&gt;Node8 -->
<g id="edge7" class="edge">
<title>Node2&#45;&gt;Node8</title>
<path fill="none" stroke="midnightblue" d="M309.91,-62.95C328.59,-54.51 357.18,-42.36 383,-34.5 391.78,-31.83 401.14,-29.41 410.4,-27.26"/>
<polygon fill="midnightblue" stroke="midnightblue" points="411.38,-30.63 420.38,-25.04 409.86,-23.8 411.38,-30.63"/>
</g>
<!-- Node4 -->
<g id="node4" class="node">
<title>Node4</title>
<g id="a_node4"><a xlink:href="wld__secDmnGrp_8c.html#ae5da21db2381b2d5a1f16df5d388d5df" target="_top" xlink:title=" ">
<polygon fill="white" stroke="black" points="606.5,-120 606.5,-139 744.5,-139 744.5,-120 606.5,-120"/>
<text text-anchor="middle" x="675.5" y="-127" font-family="Helvetica,sans-Serif" font-size="10.00">wld_secDmnGrp_getProc</text>
</a>
</g>
</g>
<!-- Node3&#45;&gt;Node4 -->
<g id="edge3" class="edge">
<title>Node3&#45;&gt;Node4</title>
<path fill="none" stroke="midnightblue" d="M550.51,-129.5C565.41,-129.5 581.13,-129.5 596.17,-129.5"/>
<polygon fill="midnightblue" stroke="midnightblue" points="596.46,-133 606.46,-129.5 596.46,-126 596.46,-133"/>
</g>
<!-- Node6 -->
<g id="node6" class="node">
<title>Node6</title>
<g id="a_node6"><a xlink:href="wld__daemon_8c.html#a6ba98a859d038541e1c2ee48d8566547" target="_top" xlink:title=" ">
<polygon fill="white" stroke="black" points="786,-66 786,-85 900,-85 900,-66 786,-66"/>
<text text-anchor="middle" x="843" y="-73" font-family="Helvetica,sans-Serif" font-size="10.00">wld_dmn_isRunning</text>
</a>
</g>
</g>
<!-- Node5&#45;&gt;Node6 -->
<g id="edge5" class="edge">
<title>Node5&#45;&gt;Node6</title>
<path fill="none" stroke="midnightblue" d="M741.91,-75.5C753.05,-75.5 764.62,-75.5 775.78,-75.5"/>
<polygon fill="midnightblue" stroke="midnightblue" points="775.89,-79 785.89,-75.5 775.89,-72 775.89,-79"/>
</g>
<!-- Node8&#45;&gt;Node5 -->
<g id="edge8" class="edge">
<title>Node8&#45;&gt;Node5</title>
<path fill="none" stroke="midnightblue" d="M529.6,-25C542.28,-27.69 555.7,-30.88 568,-34.5 593.93,-42.13 622.46,-53.27 643.46,-62.01"/>
<polygon fill="midnightblue" stroke="midnightblue" points="642.26,-65.3 652.83,-65.96 644.98,-58.85 642.26,-65.3"/>
</g>
<!-- Node9 -->
<g id="node9" class="node">
<title>Node9</title>
<g id="a_node9"><a xlink:href="wld__wpaCtrlMngr_8c.html#a3dc93dfda0d67c0e7254cc1ffeeb3ebe" target="_top" xlink:title=" ">
<polygon fill="white" stroke="black" points="604,-0.5 604,-30.5 747,-30.5 747,-0.5 604,-0.5"/>
<text text-anchor="start" x="612" y="-18.5" font-family="Helvetica,sans-Serif" font-size="10.00">wld_wpaCtrlMngr_getFirst</text>
<text text-anchor="middle" x="675.5" y="-7.5" font-family="Helvetica,sans-Serif" font-size="10.00">ReadyInterface</text>
</a>
</g>
</g>
<!-- Node8&#45;&gt;Node9 -->
<g id="edge9" class="edge">
<title>Node8&#45;&gt;Node9</title>
<path fill="none" stroke="midnightblue" d="M559.04,-15.5C570.41,-15.5 582.08,-15.5 593.43,-15.5"/>
<polygon fill="midnightblue" stroke="midnightblue" points="593.74,-19 603.74,-15.5 593.74,-12 593.74,-19"/>
</g>
<!-- Node10 -->
<g id="node10" class="node">
<title>Node10</title>
<g id="a_node10"><a xlink:href="wld__wpaCtrlInterface_8c.html#a8b38bc9ca95b60e002d38cdb1374d1d0" target="_top" xlink:title=" ">
<polygon fill="white" stroke="black" points="783,-0.5 783,-30.5 903,-30.5 903,-0.5 783,-0.5"/>
<text text-anchor="start" x="791" y="-18.5" font-family="Helvetica,sans-Serif" font-size="10.00">wld_wpaCtrlInterface</text>
<text text-anchor="middle" x="843" y="-7.5" font-family="Helvetica,sans-Serif" font-size="10.00">_isReady</text>
</a>
</g>
</g>
<!-- Node9&#45;&gt;Node10 -->
<g id="edge10" class="edge">
<title>Node9&#45;&gt;Node10</title>
<path fill="none" stroke="midnightblue" d="M747.17,-15.5C755.6,-15.5 764.2,-15.5 772.62,-15.5"/>
<polygon fill="midnightblue" stroke="midnightblue" points="772.76,-19 782.76,-15.5 772.76,-12 772.76,-19"/>
</g>
</g>
</svg>
