<?xml version="1.0" encoding="UTF-8" standalone="no"?>
<!DOCTYPE svg PUBLIC "-//W3C//DTD SVG 1.1//EN"
 "http://www.w3.org/Graphics/SVG/1.1/DTD/svg11.dtd">
<!-- Generated by graphviz version 2.43.0 (0)
 -->
<!-- Title: wld_wpaSupp_addConfigParam Pages: 1 -->
<svg width="474pt" height="88pt"
 viewBox="0.00 0.00 474.00 88.00" xmlns="http://www.w3.org/2000/svg" xmlns:xlink="http://www.w3.org/1999/xlink">
<g id="graph0" class="graph" transform="scale(1 1) rotate(0) translate(4 84)">
<title>wld_wpaSupp_addConfigParam</title>
<polygon fill="white" stroke="transparent" points="-4,4 -4,-84 470,-84 470,4 -4,4"/>
<!-- Node1 -->
<g id="node1" class="node">
<title>Node1</title>
<g id="a_node1"><a xlink:title="add/update a key value in the config map">
<polygon fill="#bfbfbf" stroke="black" points="298,-30 298,-49 466,-49 466,-30 298,-30"/>
<text text-anchor="middle" x="382" y="-37" font-family="Helvetica,sans-Serif" font-size="10.00">wld_wpaSupp_addConfigParam</text>
</a>
</g>
</g>
<!-- Node2 -->
<g id="node2" class="node">
<title>Node2</title>
<g id="a_node2"><a xlink:href="wld__wpaSupp__cfgFile_8c.html#aa63265cf88dd4de114291ae924942393" target="_top" xlink:title="update a configuration file for the wpa_supplicant">
<polygon fill="white" stroke="black" points="164,-30 164,-49 262,-49 262,-30 164,-30"/>
<text text-anchor="middle" x="213" y="-37" font-family="Helvetica,sans-Serif" font-size="10.00">s_cfgFile_update</text>
</a>
</g>
</g>
<!-- Node1&#45;&gt;Node2 -->
<g id="edge1" class="edge">
<title>Node1&#45;&gt;Node2</title>
<path fill="none" stroke="midnightblue" d="M287.94,-39.5C279.07,-39.5 270.34,-39.5 262.17,-39.5"/>
<polygon fill="midnightblue" stroke="midnightblue" points="287.99,-43 297.99,-39.5 287.99,-36 287.99,-43"/>
</g>
<!-- Node3 -->
<g id="node3" class="node">
<title>Node3</title>
<g id="a_node3"><a xlink:href="wld__wpaSupp__cfgFile_8c.html#addc888bc4793bcfd16b04bd506c73c29" target="_top" xlink:title=" ">
<polygon fill="white" stroke="black" points="3.5,-49.5 3.5,-79.5 124.5,-79.5 124.5,-49.5 3.5,-49.5"/>
<text text-anchor="start" x="11.5" y="-67.5" font-family="Helvetica,sans-Serif" font-size="10.00">wld_wpaSupp_cfgFile</text>
<text text-anchor="middle" x="64" y="-56.5" font-family="Helvetica,sans-Serif" font-size="10.00">_globalConfigUpdate</text>
</a>
</g>
</g>
<!-- Node2&#45;&gt;Node3 -->
<g id="edge2" class="edge">
<title>Node2&#45;&gt;Node3</title>
<path fill="none" stroke="midnightblue" d="M153.96,-49.37C144.29,-51.02 134.25,-52.72 124.55,-54.37"/>
<polygon fill="midnightblue" stroke="midnightblue" points="154.6,-52.81 163.87,-47.69 153.42,-45.91 154.6,-52.81"/>
</g>
<!-- Node4 -->
<g id="node4" class="node">
<title>Node4</title>
<g id="a_node4"><a xlink:href="wld__wpaSupp__cfgFile_8c.html#a1c35b421504283cf192fd09154c73290" target="_top" xlink:title=" ">
<polygon fill="white" stroke="black" points="0,-0.5 0,-30.5 128,-30.5 128,-0.5 0,-0.5"/>
<text text-anchor="start" x="8" y="-18.5" font-family="Helvetica,sans-Serif" font-size="10.00">wld_wpaSupp_cfgFile</text>
<text text-anchor="middle" x="64" y="-7.5" font-family="Helvetica,sans-Serif" font-size="10.00">_networkConfigUpdate</text>
</a>
</g>
</g>
<!-- Node2&#45;&gt;Node4 -->
<g id="edge3" class="edge">
<title>Node2&#45;&gt;Node4</title>
<path fill="none" stroke="midnightblue" d="M153.79,-30C145.39,-28.63 136.71,-27.21 128.22,-25.82"/>
<polygon fill="midnightblue" stroke="midnightblue" points="153.43,-33.48 163.87,-31.64 154.56,-26.58 153.43,-33.48"/>
</g>
</g>
</svg>
