<?xml version="1.0" encoding="UTF-8" standalone="no"?>
<!DOCTYPE svg PUBLIC "-//W3C//DTD SVG 1.1//EN"
 "http://www.w3.org/Graphics/SVG/1.1/DTD/svg11.dtd">
<!-- Generated by graphviz version 2.43.0 (0)
 -->
<!-- Title: wpsInitPin Pages: 1 -->
<svg width="722pt" height="66pt"
 viewBox="0.00 0.00 722.00 66.00" xmlns="http://www.w3.org/2000/svg" xmlns:xlink="http://www.w3.org/1999/xlink">
<g id="graph0" class="graph" transform="scale(1 1) rotate(0) translate(4 62)">
<title>wpsInitPin</title>
<polygon fill="white" stroke="transparent" points="-4,4 -4,-62 718,-62 718,4 -4,4"/>
<!-- Node1 -->
<g id="node1" class="node">
<title>Node1</title>
<g id="a_node1"><a xlink:title=" ">
<polygon fill="#bfbfbf" stroke="black" points="647,-19.5 647,-38.5 714,-38.5 714,-19.5 647,-19.5"/>
<text text-anchor="middle" x="680.5" y="-26.5" font-family="Helvetica,sans-Serif" font-size="10.00">wpsInitPin</text>
</a>
</g>
</g>
<!-- Node2 -->
<g id="node2" class="node">
<title>Node2</title>
<g id="a_node2"><a xlink:href="wld__util_8c.html#a50e3c6ec470085fdd36cae1a0e9c8f7e" target="_top" xlink:title=" ">
<polygon fill="white" stroke="black" points="540,-19.5 540,-38.5 611,-38.5 611,-19.5 540,-19.5"/>
<text text-anchor="middle" x="575.5" y="-26.5" font-family="Helvetica,sans-Serif" font-size="10.00">wpsPinGen</text>
</a>
</g>
</g>
<!-- Node1&#45;&gt;Node2 -->
<g id="edge1" class="edge">
<title>Node1&#45;&gt;Node2</title>
<path fill="none" stroke="midnightblue" d="M636.7,-29C628.14,-29 619.25,-29 611.01,-29"/>
<polygon fill="midnightblue" stroke="midnightblue" points="636.91,-32.5 646.91,-29 636.91,-25.5 636.91,-32.5"/>
</g>
<!-- Node3 -->
<g id="node3" class="node">
<title>Node3</title>
<g id="a_node3"><a xlink:href="wld__wps_8c.html#a5e60853e5a5b1a60a5a5b631d340fa36" target="_top" xlink:title=" ">
<polygon fill="white" stroke="black" points="420,-38.5 420,-57.5 490,-57.5 490,-38.5 420,-38.5"/>
<text text-anchor="middle" x="455" y="-45.5" font-family="Helvetica,sans-Serif" font-size="10.00">genSelfPIN</text>
</a>
</g>
</g>
<!-- Node2&#45;&gt;Node3 -->
<g id="edge2" class="edge">
<title>Node2&#45;&gt;Node3</title>
<path fill="none" stroke="midnightblue" d="M530.03,-36.13C516.79,-38.25 502.49,-40.55 490.02,-42.54"/>
<polygon fill="midnightblue" stroke="midnightblue" points="530.59,-39.59 539.91,-34.55 529.48,-32.67 530.59,-39.59"/>
</g>
<!-- Node5 -->
<g id="node5" class="node">
<title>Node5</title>
<g id="a_node5"><a xlink:href="wld_8c.html#a36aa34c9c1a57fbe65d300ae3a9bbc2f" target="_top" xlink:title=" ">
<polygon fill="white" stroke="black" points="406,-0.5 406,-19.5 504,-19.5 504,-0.5 406,-0.5"/>
<text text-anchor="middle" x="455" y="-7.5" font-family="Helvetica,sans-Serif" font-size="10.00">wld_createRadio</text>
</a>
</g>
</g>
<!-- Node2&#45;&gt;Node5 -->
<g id="edge4" class="edge">
<title>Node2&#45;&gt;Node5</title>
<path fill="none" stroke="midnightblue" d="M529.88,-21.85C521.45,-20.49 512.6,-19.07 504.07,-17.71"/>
<polygon fill="midnightblue" stroke="midnightblue" points="529.48,-25.33 539.91,-23.45 530.59,-18.41 529.48,-25.33"/>
</g>
<!-- Node4 -->
<g id="node4" class="node">
<title>Node4</title>
<g id="a_node4"><a xlink:href="wld__radio_8c.html#a57c6500df2b22dcd70f13b6b5113388a" target="_top" xlink:title=" ">
<polygon fill="white" stroke="black" points="191,-38.5 191,-57.5 370,-57.5 370,-38.5 191,-38.5"/>
<text text-anchor="middle" x="280.5" y="-45.5" font-family="Helvetica,sans-Serif" font-size="10.00">_wps_DefParam_wps_GenSelfPIN</text>
</a>
</g>
</g>
<!-- Node3&#45;&gt;Node4 -->
<g id="edge3" class="edge">
<title>Node3&#45;&gt;Node4</title>
<path fill="none" stroke="midnightblue" d="M409.66,-48C397.52,-48 383.92,-48 370.24,-48"/>
<polygon fill="midnightblue" stroke="midnightblue" points="409.92,-51.5 419.92,-48 409.92,-44.5 409.92,-51.5"/>
</g>
<!-- Node6 -->
<g id="node6" class="node">
<title>Node6</title>
<g id="a_node6"><a xlink:href="wld_8c.html#a64c338bcccd982aa0f1bd86a8d95473a" target="_top" xlink:title=" ">
<polygon fill="white" stroke="black" points="238,-0.5 238,-19.5 323,-19.5 323,-0.5 238,-0.5"/>
<text text-anchor="middle" x="280.5" y="-7.5" font-family="Helvetica,sans-Serif" font-size="10.00">wld_addRadio</text>
</a>
</g>
</g>
<!-- Node5&#45;&gt;Node6 -->
<g id="edge5" class="edge">
<title>Node5&#45;&gt;Node6</title>
<path fill="none" stroke="midnightblue" d="M395.94,-10C372.08,-10 344.98,-10 323.14,-10"/>
<polygon fill="midnightblue" stroke="midnightblue" points="395.95,-13.5 405.95,-10 395.95,-6.5 395.95,-13.5"/>
</g>
<!-- Node7 -->
<g id="node7" class="node">
<title>Node7</title>
<g id="a_node7"><a xlink:href="wld__rad__nl80211_8c.html#ac4eed247eba7d9e6f87d8dff1374b804" target="_top" xlink:title=" ">
<polygon fill="white" stroke="black" points="0,-0.5 0,-19.5 155,-19.5 155,-0.5 0,-0.5"/>
<text text-anchor="middle" x="77.5" y="-7.5" font-family="Helvetica,sans-Serif" font-size="10.00">wld_rad_nl80211_addRadios</text>
</a>
</g>
</g>
<!-- Node6&#45;&gt;Node7 -->
<g id="edge6" class="edge">
<title>Node6&#45;&gt;Node7</title>
<path fill="none" stroke="midnightblue" d="M227.68,-10C205.57,-10 179.31,-10 155.03,-10"/>
<polygon fill="midnightblue" stroke="midnightblue" points="227.85,-13.5 237.85,-10 227.85,-6.5 227.85,-13.5"/>
</g>
</g>
</svg>
