<?xml version="1.0" encoding="UTF-8" standalone="no"?>
<!DOCTYPE svg PUBLIC "-//W3C//DTD SVG 1.1//EN"
 "http://www.w3.org/Graphics/SVG/1.1/DTD/svg11.dtd">
<!-- Generated by graphviz version 2.43.0 (0)
 -->
<!-- Title: _checkWPSPIN Pages: 1 -->
<svg width="408pt" height="85pt"
 viewBox="0.00 0.00 408.00 85.00" xmlns="http://www.w3.org/2000/svg" xmlns:xlink="http://www.w3.org/1999/xlink">
<g id="graph0" class="graph" transform="scale(1 1) rotate(0) translate(4 81)">
<title>_checkWPSPIN</title>
<polygon fill="white" stroke="transparent" points="-4,4 -4,-81 404,-81 404,4 -4,4"/>
<!-- Node1 -->
<g id="node1" class="node">
<title>Node1</title>
<g id="a_node1"><a xlink:title=" ">
<polygon fill="#bfbfbf" stroke="black" points="0,-38.5 0,-57.5 89,-57.5 89,-38.5 0,-38.5"/>
<text text-anchor="middle" x="44.5" y="-45.5" font-family="Helvetica,sans-Serif" font-size="10.00">_checkWPSPIN</text>
</a>
</g>
</g>
<!-- Node2 -->
<g id="node2" class="node">
<title>Node2</title>
<g id="a_node2"><a xlink:href="wld__util_8c.html#acaa32afc3880f0fa2909341fc6c18660" target="_top" xlink:title=" ">
<polygon fill="white" stroke="black" points="145,-57.5 145,-76.5 228,-76.5 228,-57.5 145,-57.5"/>
<text text-anchor="middle" x="186.5" y="-64.5" font-family="Helvetica,sans-Serif" font-size="10.00">stripOutToken</text>
</a>
</g>
</g>
<!-- Node1&#45;&gt;Node2 -->
<g id="edge1" class="edge">
<title>Node1&#45;&gt;Node2</title>
<path fill="none" stroke="midnightblue" d="M89.03,-53.91C103.51,-55.87 119.76,-58.08 134.73,-60.11"/>
<polygon fill="midnightblue" stroke="midnightblue" points="134.48,-63.61 144.86,-61.48 135.42,-56.67 134.48,-63.61"/>
</g>
<!-- Node3 -->
<g id="node3" class="node">
<title>Node3</title>
<g id="a_node3"><a xlink:href="wld__util_8c.html#ab6ee78a11c7bcd9bc0019cd2c30aef17" target="_top" xlink:title=" ">
<polygon fill="white" stroke="black" points="125,-19.5 125,-38.5 248,-38.5 248,-19.5 125,-19.5"/>
<text text-anchor="middle" x="186.5" y="-26.5" font-family="Helvetica,sans-Serif" font-size="10.00">wldu_checkWpsPinStr</text>
</a>
</g>
</g>
<!-- Node1&#45;&gt;Node3 -->
<g id="edge2" class="edge">
<title>Node1&#45;&gt;Node3</title>
<path fill="none" stroke="midnightblue" d="M89.03,-42.09C97.25,-40.98 106.05,-39.78 114.86,-38.59"/>
<polygon fill="midnightblue" stroke="midnightblue" points="115.34,-42.05 124.78,-37.24 114.4,-35.12 115.34,-42.05"/>
</g>
<!-- Node4 -->
<g id="node4" class="node">
<title>Node4</title>
<g id="a_node4"><a xlink:href="wld__util_8c.html#a1885348d15676dcae318538076904ed3" target="_top" xlink:title=" ">
<polygon fill="white" stroke="black" points="284,-38.5 284,-57.5 400,-57.5 400,-38.5 284,-38.5"/>
<text text-anchor="middle" x="342" y="-45.5" font-family="Helvetica,sans-Serif" font-size="10.00">wldu_convStrToNum</text>
</a>
</g>
</g>
<!-- Node3&#45;&gt;Node4 -->
<g id="edge3" class="edge">
<title>Node3&#45;&gt;Node4</title>
<path fill="none" stroke="midnightblue" d="M248.17,-36.51C256.6,-37.55 265.3,-38.63 273.85,-39.69"/>
<polygon fill="midnightblue" stroke="midnightblue" points="273.42,-43.16 283.77,-40.92 274.28,-36.21 273.42,-43.16"/>
</g>
<!-- Node5 -->
<g id="node5" class="node">
<title>Node5</title>
<g id="a_node5"><a xlink:href="wld__util_8c.html#a484ad36a27282cb8ba60d80e1485d858" target="_top" xlink:title=" ">
<polygon fill="white" stroke="black" points="304.5,-0.5 304.5,-19.5 379.5,-19.5 379.5,-0.5 304.5,-0.5"/>
<text text-anchor="middle" x="342" y="-7.5" font-family="Helvetica,sans-Serif" font-size="10.00">wpsPinValid</text>
</a>
</g>
</g>
<!-- Node3&#45;&gt;Node5 -->
<g id="edge4" class="edge">
<title>Node3&#45;&gt;Node5</title>
<path fill="none" stroke="midnightblue" d="M248.17,-21.49C263.41,-19.6 279.53,-17.61 293.99,-15.82"/>
<polygon fill="midnightblue" stroke="midnightblue" points="294.7,-19.26 304.19,-14.56 293.84,-12.31 294.7,-19.26"/>
</g>
</g>
</svg>
