<?xml version="1.0" encoding="UTF-8" standalone="no"?>
<!DOCTYPE svg PUBLIC "-//W3C//DTD SVG 1.1//EN"
 "http://www.w3.org/Graphics/SVG/1.1/DTD/svg11.dtd">
<!-- Generated by graphviz version 2.43.0 (0)
 -->
<!-- Title: wld_rad_hostapd_getCfgParamInt32Def Pages: 1 -->
<svg width="776pt" height="116pt"
 viewBox="0.00 0.00 776.00 116.00" xmlns="http://www.w3.org/2000/svg" xmlns:xlink="http://www.w3.org/1999/xlink">
<g id="graph0" class="graph" transform="scale(1 1) rotate(0) translate(4 112)">
<title>wld_rad_hostapd_getCfgParamInt32Def</title>
<polygon fill="white" stroke="transparent" points="-4,4 -4,-112 772,-112 772,4 -4,4"/>
<!-- Node1 -->
<g id="node1" class="node">
<title>Node1</title>
<g id="a_node1"><a xlink:title=" ">
<polygon fill="#bfbfbf" stroke="black" points="0,-20 0,-50 167,-50 167,-20 0,-20"/>
<text text-anchor="start" x="8" y="-38" font-family="Helvetica,sans-Serif" font-size="10.00">wld_rad_hostapd_getCfgParam</text>
<text text-anchor="middle" x="83.5" y="-27" font-family="Helvetica,sans-Serif" font-size="10.00">Int32Def</text>
</a>
</g>
</g>
<!-- Node2 -->
<g id="node2" class="node">
<title>Node2</title>
<g id="a_node2"><a xlink:href="wld__rad__hostapd__api_8c.html#afde544a6926aebb05ea1f9c934778480" target="_top" xlink:title=" ">
<polygon fill="white" stroke="black" points="203,-44.5 203,-63.5 384,-63.5 384,-44.5 203,-44.5"/>
<text text-anchor="middle" x="293.5" y="-51.5" font-family="Helvetica,sans-Serif" font-size="10.00">wld_rad_hostapd_getCfgParamStr</text>
</a>
</g>
</g>
<!-- Node1&#45;&gt;Node2 -->
<g id="edge1" class="edge">
<title>Node1&#45;&gt;Node2</title>
<path fill="none" stroke="midnightblue" d="M167.01,-42.54C175.48,-43.31 184.16,-44.1 192.8,-44.89"/>
<polygon fill="midnightblue" stroke="midnightblue" points="192.63,-48.39 202.91,-45.82 193.27,-41.42 192.63,-48.39"/>
</g>
<!-- Node7 -->
<g id="node7" class="node">
<title>Node7</title>
<g id="a_node7"><a xlink:href="wld__util_8c.html#a1885348d15676dcae318538076904ed3" target="_top" xlink:title=" ">
<polygon fill="white" stroke="black" points="235.5,-6.5 235.5,-25.5 351.5,-25.5 351.5,-6.5 235.5,-6.5"/>
<text text-anchor="middle" x="293.5" y="-13.5" font-family="Helvetica,sans-Serif" font-size="10.00">wldu_convStrToNum</text>
</a>
</g>
</g>
<!-- Node1&#45;&gt;Node7 -->
<g id="edge6" class="edge">
<title>Node1&#45;&gt;Node7</title>
<path fill="none" stroke="midnightblue" d="M167.01,-27.46C186.34,-25.7 206.7,-23.84 225.28,-22.14"/>
<polygon fill="midnightblue" stroke="midnightblue" points="225.75,-25.61 235.39,-21.22 225.11,-18.64 225.75,-25.61"/>
</g>
<!-- Node3 -->
<g id="node3" class="node">
<title>Node3</title>
<g id="a_node3"><a xlink:href="wld__hostapd__cfgManager_8c.html#abcd4b96a1191c1c593ab53f9d419e740" target="_top" xlink:title="delete a wld_hostapd_config_t map already loaded from hostapd file">
<polygon fill="white" stroke="black" points="428,-88.5 428,-107.5 573,-107.5 573,-88.5 428,-88.5"/>
<text text-anchor="middle" x="500.5" y="-95.5" font-family="Helvetica,sans-Serif" font-size="10.00">wld_hostapd_deleteConfig</text>
</a>
</g>
</g>
<!-- Node2&#45;&gt;Node3 -->
<g id="edge2" class="edge">
<title>Node2&#45;&gt;Node3</title>
<path fill="none" stroke="midnightblue" d="M338.98,-63.55C370.14,-70.24 411.97,-79.21 445.12,-86.33"/>
<polygon fill="midnightblue" stroke="midnightblue" points="444.59,-89.79 455.1,-88.47 446.06,-82.95 444.59,-89.79"/>
</g>
<!-- Node4 -->
<g id="node4" class="node">
<title>Node4</title>
<g id="a_node4"><a xlink:href="wld__hostapd__cfgManager_8c.html#af7827e8223cd8d13fc11d3a520f71660" target="_top" xlink:title=" ">
<polygon fill="white" stroke="black" points="420,-39 420,-69 581,-69 581,-39 420,-39"/>
<text text-anchor="start" x="428" y="-57" font-family="Helvetica,sans-Serif" font-size="10.00">wld_hostapd_getConfigParam</text>
<text text-anchor="middle" x="500.5" y="-46" font-family="Helvetica,sans-Serif" font-size="10.00">ValStr</text>
</a>
</g>
</g>
<!-- Node2&#45;&gt;Node4 -->
<g id="edge3" class="edge">
<title>Node2&#45;&gt;Node4</title>
<path fill="none" stroke="midnightblue" d="M384.12,-54C392.54,-54 401.09,-54 409.52,-54"/>
<polygon fill="midnightblue" stroke="midnightblue" points="409.72,-57.5 419.72,-54 409.72,-50.5 409.72,-57.5"/>
</g>
<!-- Node6 -->
<g id="node6" class="node">
<title>Node6</title>
<g id="a_node6"><a xlink:href="wld__hostapd__cfgManager_8c.html#ad15aa07c202c5ff5f3a78dc1297429f5" target="_top" xlink:title="load the hostapd configuration from hostpad config file into wld_hostapd_config_t structure">
<polygon fill="white" stroke="black" points="433,-0.5 433,-19.5 568,-19.5 568,-0.5 433,-0.5"/>
<text text-anchor="middle" x="500.5" y="-7.5" font-family="Helvetica,sans-Serif" font-size="10.00">wld_hostapd_loadConfig</text>
</a>
</g>
</g>
<!-- Node2&#45;&gt;Node6 -->
<g id="edge5" class="edge">
<title>Node2&#45;&gt;Node6</title>
<path fill="none" stroke="midnightblue" d="M339.58,-44.47C353.79,-41.45 369.56,-38.1 384,-35 404.16,-30.68 426.29,-25.9 445.73,-21.68"/>
<polygon fill="midnightblue" stroke="midnightblue" points="446.6,-25.08 455.63,-19.54 445.12,-18.24 446.6,-25.08"/>
</g>
<!-- Node5 -->
<g id="node5" class="node">
<title>Node5</title>
<g id="a_node5"><a xlink:href="wld__hostapd__cfgManager_8c.html#a0a1bb10a455c35606f794a85a9e5964a" target="_top" xlink:title="get the general/vap config map">
<polygon fill="white" stroke="black" points="617,-44.5 617,-63.5 768,-63.5 768,-44.5 617,-44.5"/>
<text text-anchor="middle" x="692.5" y="-51.5" font-family="Helvetica,sans-Serif" font-size="10.00">wld_hostapd_getConfigMap</text>
</a>
</g>
</g>
<!-- Node4&#45;&gt;Node5 -->
<g id="edge4" class="edge">
<title>Node4&#45;&gt;Node5</title>
<path fill="none" stroke="midnightblue" d="M581.25,-54C589.63,-54 598.16,-54 606.59,-54"/>
<polygon fill="midnightblue" stroke="midnightblue" points="606.81,-57.5 616.81,-54 606.81,-50.5 606.81,-57.5"/>
</g>
</g>
</svg>
