<?xml version="1.0" encoding="UTF-8" standalone="no"?>
<!DOCTYPE svg PUBLIC "-//W3C//DTD SVG 1.1//EN"
 "http://www.w3.org/Graphics/SVG/1.1/DTD/svg11.dtd">
<!-- Generated by graphviz version 2.43.0 (0)
 -->
<!-- Title: wld_secDmn_getWpaCtrlMgr Pages: 1 -->
<svg width="589pt" height="154pt"
 viewBox="0.00 0.00 589.00 154.00" xmlns="http://www.w3.org/2000/svg" xmlns:xlink="http://www.w3.org/1999/xlink">
<g id="graph0" class="graph" transform="scale(1 1) rotate(0) translate(4 150)">
<title>wld_secDmn_getWpaCtrlMgr</title>
<polygon fill="white" stroke="transparent" points="-4,4 -4,-150 585,-150 585,4 -4,4"/>
<!-- Node1 -->
<g id="node1" class="node">
<title>Node1</title>
<g id="a_node1"><a xlink:title=" ">
<polygon fill="#bfbfbf" stroke="black" points="423,-66.5 423,-85.5 581,-85.5 581,-66.5 423,-66.5"/>
<text text-anchor="middle" x="502" y="-73.5" font-family="Helvetica,sans-Serif" font-size="10.00">wld_secDmn_getWpaCtrlMgr</text>
</a>
</g>
</g>
<!-- Node2 -->
<g id="node2" class="node">
<title>Node2</title>
<g id="a_node2"><a xlink:href="wld__rad__hostapd__api_8c.html#abe6c566b0fbeb786e5862f4496c7a2a1" target="_top" xlink:title="disable main hostapd interface">
<polygon fill="white" stroke="black" points="232,-126.5 232,-145.5 372,-145.5 372,-126.5 232,-126.5"/>
<text text-anchor="middle" x="302" y="-133.5" font-family="Helvetica,sans-Serif" font-size="10.00">wld_rad_hostapd_disable</text>
</a>
</g>
</g>
<!-- Node1&#45;&gt;Node2 -->
<g id="edge1" class="edge">
<title>Node1&#45;&gt;Node2</title>
<path fill="none" stroke="midnightblue" d="M467.82,-89.16C445.26,-97.79 414.61,-108.94 387,-117 375.09,-120.48 362.07,-123.69 349.91,-126.46"/>
<polygon fill="midnightblue" stroke="midnightblue" points="469.2,-92.37 477.26,-85.5 466.67,-85.84 469.2,-92.37"/>
</g>
<!-- Node3 -->
<g id="node3" class="node">
<title>Node3</title>
<g id="a_node3"><a xlink:href="wld__rad__hostapd__api_8c.html#afb2b0bb8a38b6030246e283bfddd6811" target="_top" xlink:title="enable main hostapd interface">
<polygon fill="white" stroke="black" points="233.5,-88.5 233.5,-107.5 370.5,-107.5 370.5,-88.5 233.5,-88.5"/>
<text text-anchor="middle" x="302" y="-95.5" font-family="Helvetica,sans-Serif" font-size="10.00">wld_rad_hostapd_enable</text>
</a>
</g>
</g>
<!-- Node1&#45;&gt;Node3 -->
<g id="edge2" class="edge">
<title>Node1&#45;&gt;Node3</title>
<path fill="none" stroke="midnightblue" d="M412.59,-85.82C398.55,-87.38 384.23,-88.97 370.76,-90.47"/>
<polygon fill="midnightblue" stroke="midnightblue" points="413.19,-89.28 422.75,-84.69 412.42,-82.32 413.19,-89.28"/>
</g>
<!-- Node4 -->
<g id="node4" class="node">
<title>Node4</title>
<g id="a_node4"><a xlink:href="wld__rad__hostapd__api_8c.html#ab6f300904d214f4def189a78b2827d6e" target="_top" xlink:title=" ">
<polygon fill="white" stroke="black" points="217,-39 217,-69 387,-69 387,-39 217,-39"/>
<text text-anchor="start" x="225" y="-57" font-family="Helvetica,sans-Serif" font-size="10.00">wld_rad_hostapd_getCmdReply</text>
<text text-anchor="middle" x="302" y="-46" font-family="Helvetica,sans-Serif" font-size="10.00">ParamStr</text>
</a>
</g>
</g>
<!-- Node1&#45;&gt;Node4 -->
<g id="edge3" class="edge">
<title>Node1&#45;&gt;Node4</title>
<path fill="none" stroke="midnightblue" d="M412.54,-66.17C404.11,-65.23 395.59,-64.29 387.2,-63.36"/>
<polygon fill="midnightblue" stroke="midnightblue" points="412.42,-69.68 422.75,-67.31 413.19,-62.72 412.42,-69.68"/>
</g>
<!-- Node7 -->
<g id="node7" class="node">
<title>Node7</title>
<g id="a_node7"><a xlink:href="wld__rad__hostapd__api_8c.html#a848163f8651e518db2503acba24262c2" target="_top" xlink:title="reconfigure hostapd from file">
<polygon fill="white" stroke="black" points="222.5,-0.5 222.5,-19.5 381.5,-19.5 381.5,-0.5 222.5,-0.5"/>
<text text-anchor="middle" x="302" y="-7.5" font-family="Helvetica,sans-Serif" font-size="10.00">wld_rad_hostapd_reconfigure</text>
</a>
</g>
</g>
<!-- Node1&#45;&gt;Node7 -->
<g id="edge6" class="edge">
<title>Node1&#45;&gt;Node7</title>
<path fill="none" stroke="midnightblue" d="M471.68,-62.31C448.95,-52.09 416.46,-38.33 387,-29 375.74,-25.43 363.43,-22.26 351.79,-19.57"/>
<polygon fill="midnightblue" stroke="midnightblue" points="470.24,-65.5 480.79,-66.45 473.14,-59.12 470.24,-65.5"/>
</g>
<!-- Node5 -->
<g id="node5" class="node">
<title>Node5</title>
<g id="a_node5"><a xlink:href="wld__rad__hostapd__api_8c.html#afd18b448561f7188bb1d69ec884a365a" target="_top" xlink:title=" ">
<polygon fill="white" stroke="black" points="5.5,-80 5.5,-110 175.5,-110 175.5,-80 5.5,-80"/>
<text text-anchor="start" x="13.5" y="-98" font-family="Helvetica,sans-Serif" font-size="10.00">wld_rad_hostapd_getCmdReply</text>
<text text-anchor="middle" x="90.5" y="-87" font-family="Helvetica,sans-Serif" font-size="10.00">Param32Def</text>
</a>
</g>
</g>
<!-- Node4&#45;&gt;Node5 -->
<g id="edge4" class="edge">
<title>Node4&#45;&gt;Node5</title>
<path fill="none" stroke="midnightblue" d="M214.26,-70.98C199.02,-73.96 183.25,-77.04 168.31,-79.97"/>
<polygon fill="midnightblue" stroke="midnightblue" points="215.04,-74.39 224.18,-69.03 213.69,-67.52 215.04,-74.39"/>
</g>
<!-- Node6 -->
<g id="node6" class="node">
<title>Node6</title>
<g id="a_node6"><a xlink:href="wld__rad__hostapd__api_8c.html#aa1d1f91190e17100f85785edaafd38ba" target="_top" xlink:title=" ">
<polygon fill="white" stroke="black" points="0,-41.5 0,-60.5 181,-60.5 181,-41.5 0,-41.5"/>
<text text-anchor="middle" x="90.5" y="-48.5" font-family="Helvetica,sans-Serif" font-size="10.00">wld_rad_hostapd_getRunMainVap</text>
</a>
</g>
</g>
<!-- Node4&#45;&gt;Node6 -->
<g id="edge5" class="edge">
<title>Node4&#45;&gt;Node6</title>
<path fill="none" stroke="midnightblue" d="M206.93,-52.65C198.31,-52.53 189.59,-52.4 181.01,-52.28"/>
<polygon fill="midnightblue" stroke="midnightblue" points="206.95,-56.15 217,-52.8 207.05,-49.15 206.95,-56.15"/>
</g>
<!-- Node8 -->
<g id="node8" class="node">
<title>Node8</title>
<g id="a_node8"><a xlink:href="wifiGen__hapd_8c.html#a3316988b243476f9ae97626a068d4d04" target="_top" xlink:title=" ">
<polygon fill="white" stroke="black" points="10.5,-0.5 10.5,-19.5 170.5,-19.5 170.5,-0.5 10.5,-0.5"/>
<text text-anchor="middle" x="90.5" y="-7.5" font-family="Helvetica,sans-Serif" font-size="10.00">wifiGen_hapd_reloadDaemon</text>
</a>
</g>
</g>
<!-- Node7&#45;&gt;Node8 -->
<g id="edge7" class="edge">
<title>Node7&#45;&gt;Node8</title>
<path fill="none" stroke="midnightblue" d="M212.36,-10C198.48,-10 184.2,-10 170.55,-10"/>
<polygon fill="midnightblue" stroke="midnightblue" points="212.39,-13.5 222.39,-10 212.39,-6.5 212.39,-13.5"/>
</g>
</g>
</svg>
