<?xml version="1.0" encoding="UTF-8" standalone="no"?>
<!DOCTYPE svg PUBLIC "-//W3C//DTD SVG 1.1//EN"
 "http://www.w3.org/Graphics/SVG/1.1/DTD/svg11.dtd">
<!-- Generated by graphviz version 2.43.0 (0)
 -->
<!-- Title: wld_nl80211_cleanNlAttrList Pages: 1 -->
<svg width="682pt" height="47pt"
 viewBox="0.00 0.00 682.00 47.00" xmlns="http://www.w3.org/2000/svg" xmlns:xlink="http://www.w3.org/1999/xlink">
<g id="graph0" class="graph" transform="scale(1 1) rotate(0) translate(4 43)">
<title>wld_nl80211_cleanNlAttrList</title>
<polygon fill="white" stroke="transparent" points="-4,4 -4,-43 678,-43 678,4 -4,4"/>
<!-- Node1 -->
<g id="node1" class="node">
<title>Node1</title>
<g id="a_node1"><a xlink:title=" ">
<polygon fill="#bfbfbf" stroke="black" points="0,-19.5 0,-38.5 155,-38.5 155,-19.5 0,-19.5"/>
<text text-anchor="middle" x="77.5" y="-26.5" font-family="Helvetica,sans-Serif" font-size="10.00">wld_nl80211_cleanNlAttrList</text>
</a>
</g>
</g>
<!-- Node2 -->
<g id="node2" class="node">
<title>Node2</title>
<g id="a_node2"><a xlink:href="wld__nl80211__attr_8c.html#a477186d4ccc978692cc22855dd0faf58" target="_top" xlink:title=" ">
<polygon fill="white" stroke="black" points="191,-19.5 191,-38.5 329,-38.5 329,-19.5 191,-19.5"/>
<text text-anchor="middle" x="260" y="-26.5" font-family="Helvetica,sans-Serif" font-size="10.00">wld_nl80211_cleanNlAttr</text>
</a>
</g>
</g>
<!-- Node1&#45;&gt;Node2 -->
<g id="edge1" class="edge">
<title>Node1&#45;&gt;Node2</title>
<path fill="none" stroke="midnightblue" d="M155.05,-22.32C163.52,-22.23 172.15,-22.23 180.65,-22.3"/>
<polygon fill="midnightblue" stroke="midnightblue" points="180.87,-25.81 190.91,-22.43 180.96,-18.81 180.87,-25.81"/>
</g>
<!-- Node4 -->
<g id="node4" class="node">
<title>Node4</title>
<g id="a_node4"><a xlink:href="wld__nl80211__attr_8c.html#a39bfc8517088cba97d0242bbef289398" target="_top" xlink:title=" ">
<polygon fill="white" stroke="black" points="529,-0.5 529,-19.5 674,-19.5 674,-0.5 529,-0.5"/>
<text text-anchor="middle" x="601.5" y="-7.5" font-family="Helvetica,sans-Serif" font-size="10.00">wld_nl80211_initNlAttrList</text>
</a>
</g>
</g>
<!-- Node1&#45;&gt;Node4 -->
<g id="edge5" class="edge">
<title>Node1&#45;&gt;Node4</title>
<path fill="none" stroke="midnightblue" d="M124.26,-19.49C144.6,-15.72 168.89,-11.85 191,-10 304.4,-0.49 436.1,-2.87 518.87,-5.99"/>
<polygon fill="midnightblue" stroke="midnightblue" points="518.83,-9.5 528.96,-6.39 519.11,-2.5 518.83,-9.5"/>
</g>
<!-- Node2&#45;&gt;Node1 -->
<g id="edge2" class="edge">
<title>Node2&#45;&gt;Node1</title>
<path fill="none" stroke="midnightblue" d="M190.91,-35.57C182.5,-35.71 173.81,-35.77 165.16,-35.75"/>
<polygon fill="midnightblue" stroke="midnightblue" points="165.07,-32.24 155.05,-35.68 165.03,-39.24 165.07,-32.24"/>
</g>
<!-- Node3 -->
<g id="node3" class="node">
<title>Node3</title>
<g id="a_node3"><a xlink:href="wld__nl80211__attr_8c.html#a4c8110b2ccfb38d1a63c35b987126331" target="_top" xlink:title=" ">
<polygon fill="white" stroke="black" points="365,-19.5 365,-38.5 493,-38.5 493,-19.5 365,-19.5"/>
<text text-anchor="middle" x="429" y="-26.5" font-family="Helvetica,sans-Serif" font-size="10.00">wld_nl80211_initNlAttr</text>
</a>
</g>
</g>
<!-- Node2&#45;&gt;Node3 -->
<g id="edge3" class="edge">
<title>Node2&#45;&gt;Node3</title>
<path fill="none" stroke="midnightblue" d="M329.41,-29C337.73,-29 346.26,-29 354.66,-29"/>
<polygon fill="midnightblue" stroke="midnightblue" points="354.8,-32.5 364.8,-29 354.8,-25.5 354.8,-32.5"/>
</g>
<!-- Node3&#45;&gt;Node4 -->
<g id="edge4" class="edge">
<title>Node3&#45;&gt;Node4</title>
<path fill="none" stroke="midnightblue" d="M493,-21.98C501.39,-21.04 510.09,-20.08 518.73,-19.11"/>
<polygon fill="midnightblue" stroke="midnightblue" points="519.29,-22.57 528.84,-17.99 518.51,-15.61 519.29,-22.57"/>
</g>
</g>
</svg>
