<?xml version="1.0" encoding="UTF-8" standalone="no"?>
<!DOCTYPE svg PUBLIC "-//W3C//DTD SVG 1.1//EN"
 "http://www.w3.org/Graphics/SVG/1.1/DTD/svg11.dtd">
<!-- Generated by graphviz version 2.43.0 (0)
 -->
<!-- Title: wld_nl80211_addEvtListener Pages: 1 -->
<svg width="374pt" height="78pt"
 viewBox="0.00 0.00 374.00 77.50" xmlns="http://www.w3.org/2000/svg" xmlns:xlink="http://www.w3.org/1999/xlink">
<g id="graph0" class="graph" transform="scale(1 1) rotate(0) translate(4 73.5)">
<title>wld_nl80211_addEvtListener</title>
<polygon fill="white" stroke="transparent" points="-4,4 -4,-73.5 370,-73.5 370,4 -4,4"/>
<!-- Node1 -->
<g id="node1" class="node">
<title>Node1</title>
<g id="a_node1"><a xlink:title=" ">
<polygon fill="#bfbfbf" stroke="black" points="210,-22.5 210,-41.5 366,-41.5 366,-22.5 210,-22.5"/>
<text text-anchor="middle" x="288" y="-29.5" font-family="Helvetica,sans-Serif" font-size="10.00">wld_nl80211_addEvtListener</text>
</a>
</g>
</g>
<!-- Node2 -->
<g id="node2" class="node">
<title>Node2</title>
<g id="a_node2"><a xlink:href="wld__nl80211__core_8c.html#a7f9439127997f696745b2c2f0bfae442" target="_top" xlink:title=" ">
<polygon fill="white" stroke="black" points="12.5,-39 12.5,-69 161.5,-69 161.5,-39 12.5,-39"/>
<text text-anchor="start" x="20.5" y="-57" font-family="Helvetica,sans-Serif" font-size="10.00">wld_nl80211_addGlobalEvt</text>
<text text-anchor="middle" x="87" y="-46" font-family="Helvetica,sans-Serif" font-size="10.00">Listener</text>
</a>
</g>
</g>
<!-- Node1&#45;&gt;Node2 -->
<g id="edge1" class="edge">
<title>Node1&#45;&gt;Node2</title>
<path fill="none" stroke="midnightblue" d="M199.66,-41.66C186.96,-43.06 173.99,-44.49 161.59,-45.86"/>
<polygon fill="midnightblue" stroke="midnightblue" points="200.22,-45.11 209.78,-40.54 199.45,-38.16 200.22,-45.11"/>
</g>
<!-- Node3 -->
<g id="node3" class="node">
<title>Node3</title>
<g id="a_node3"><a xlink:href="wld__rad__nl80211_8c.html#aec035a3f1695c584f09ac50c41c542f0" target="_top" xlink:title=" ">
<polygon fill="white" stroke="black" points="0,-0.5 0,-19.5 174,-19.5 174,-0.5 0,-0.5"/>
<text text-anchor="middle" x="87" y="-7.5" font-family="Helvetica,sans-Serif" font-size="10.00">wld_rad_nl80211_setEvtListener</text>
</a>
</g>
</g>
<!-- Node1&#45;&gt;Node3 -->
<g id="edge2" class="edge">
<title>Node1&#45;&gt;Node3</title>
<path fill="none" stroke="midnightblue" d="M199.83,-22.36C191.29,-21.42 182.63,-20.46 174.1,-19.52"/>
<polygon fill="midnightblue" stroke="midnightblue" points="199.45,-25.84 209.78,-23.46 200.22,-18.89 199.45,-25.84"/>
</g>
</g>
</svg>
