<?xml version="1.0" encoding="UTF-8" standalone="no"?>
<!DOCTYPE svg PUBLIC "-//W3C//DTD SVG 1.1//EN"
 "http://www.w3.org/Graphics/SVG/1.1/DTD/svg11.dtd">
<!-- Generated by graphviz version 2.43.0 (0)
 -->
<!-- Title: wld_wpaCtrlMngr_ping Pages: 1 -->
<svg width="1055pt" height="105pt"
 viewBox="0.00 0.00 1055.00 104.50" xmlns="http://www.w3.org/2000/svg" xmlns:xlink="http://www.w3.org/1999/xlink">
<g id="graph0" class="graph" transform="scale(1 1) rotate(0) translate(4 100.5)">
<title>wld_wpaCtrlMngr_ping</title>
<polygon fill="white" stroke="transparent" points="-4,4 -4,-100.5 1051,-100.5 1051,4 -4,4"/>
<!-- Node1 -->
<g id="node1" class="node">
<title>Node1</title>
<g id="a_node1"><a xlink:title=" ">
<polygon fill="#bfbfbf" stroke="black" points="0,-30 0,-49 128,-49 128,-30 0,-30"/>
<text text-anchor="middle" x="64" y="-37" font-family="Helvetica,sans-Serif" font-size="10.00">wld_wpaCtrlMngr_ping</text>
</a>
</g>
</g>
<!-- Node2 -->
<g id="node2" class="node">
<title>Node2</title>
<g id="a_node2"><a xlink:href="wld__wpaCtrlInterface_8c.html#a9d8d8309e489cea3a3e5566dba74bafb" target="_top" xlink:title=" ">
<polygon fill="white" stroke="black" points="164,-53 164,-72 310,-72 310,-53 164,-53"/>
<text text-anchor="middle" x="237" y="-60" font-family="Helvetica,sans-Serif" font-size="10.00">wld_wpaCtrlInterface_ping</text>
</a>
</g>
</g>
<!-- Node1&#45;&gt;Node2 -->
<g id="edge1" class="edge">
<title>Node1&#45;&gt;Node2</title>
<path fill="none" stroke="midnightblue" d="M128.19,-48C136.97,-49.18 146.08,-50.41 155.13,-51.62"/>
<polygon fill="midnightblue" stroke="midnightblue" points="154.92,-55.13 165.29,-52.99 155.85,-48.19 154.92,-55.13"/>
</g>
<!-- Node9 -->
<g id="node9" class="node">
<title>Node9</title>
<g id="a_node9"><a xlink:href="wld__wpaCtrlMngr_8c.html#a3dc93dfda0d67c0e7254cc1ffeeb3ebe" target="_top" xlink:title=" ">
<polygon fill="white" stroke="black" points="165.5,-2.5 165.5,-32.5 308.5,-32.5 308.5,-2.5 165.5,-2.5"/>
<text text-anchor="start" x="173.5" y="-20.5" font-family="Helvetica,sans-Serif" font-size="10.00">wld_wpaCtrlMngr_getFirst</text>
<text text-anchor="middle" x="237" y="-9.5" font-family="Helvetica,sans-Serif" font-size="10.00">ReadyInterface</text>
</a>
</g>
</g>
<!-- Node1&#45;&gt;Node9 -->
<g id="edge8" class="edge">
<title>Node1&#45;&gt;Node9</title>
<path fill="none" stroke="midnightblue" d="M128.19,-31.37C136.97,-30.24 146.08,-29.07 155.13,-27.9"/>
<polygon fill="midnightblue" stroke="midnightblue" points="155.82,-31.34 165.29,-26.6 154.93,-24.4 155.82,-31.34"/>
</g>
<!-- Node3 -->
<g id="node3" class="node">
<title>Node3</title>
<g id="a_node3"><a xlink:href="wld__wpaCtrlConnection_8c.html#af7414d719a14459bfbf836e77f643aff" target="_top" xlink:title=" ">
<polygon fill="white" stroke="black" points="346,-49.5 346,-79.5 491,-79.5 491,-49.5 346,-49.5"/>
<text text-anchor="start" x="354" y="-67.5" font-family="Helvetica,sans-Serif" font-size="10.00">wld_wpaCtrlConnection</text>
<text text-anchor="middle" x="418.5" y="-56.5" font-family="Helvetica,sans-Serif" font-size="10.00">_sendCmdCheckResponse</text>
</a>
</g>
</g>
<!-- Node2&#45;&gt;Node3 -->
<g id="edge2" class="edge">
<title>Node2&#45;&gt;Node3</title>
<path fill="none" stroke="midnightblue" d="M310.23,-63.3C318.71,-63.4 327.4,-63.5 335.98,-63.59"/>
<polygon fill="midnightblue" stroke="midnightblue" points="335.96,-67.09 346,-63.7 336.04,-60.09 335.96,-67.09"/>
</g>
<!-- Node4 -->
<g id="node4" class="node">
<title>Node4</title>
<g id="a_node4"><a xlink:href="wld__wpaCtrlConnection_8c.html#a5ddba0537d0917bc518e9ef71b539f75" target="_top" xlink:title=" ">
<polygon fill="white" stroke="black" points="527,-49.5 527,-79.5 688,-79.5 688,-49.5 527,-49.5"/>
<text text-anchor="start" x="535" y="-67.5" font-family="Helvetica,sans-Serif" font-size="10.00">wld_wpaCtrlConnection</text>
<text text-anchor="middle" x="607.5" y="-56.5" font-family="Helvetica,sans-Serif" font-size="10.00">_sendCmdCheckResponseExt</text>
</a>
</g>
</g>
<!-- Node3&#45;&gt;Node4 -->
<g id="edge3" class="edge">
<title>Node3&#45;&gt;Node4</title>
<path fill="none" stroke="midnightblue" d="M491.26,-64.5C499.63,-64.5 508.24,-64.5 516.81,-64.5"/>
<polygon fill="midnightblue" stroke="midnightblue" points="516.83,-68 526.83,-64.5 516.83,-61 516.83,-68"/>
</g>
<!-- Node5 -->
<g id="node5" class="node">
<title>Node5</title>
<g id="a_node5"><a xlink:href="wld__wpaCtrlConnection_8c.html#ab5b29b7ce5f29ef5dfbe951e5b700428" target="_top" xlink:title=" ">
<polygon fill="white" stroke="black" points="724,-77 724,-96 880,-96 880,-77 724,-77"/>
<text text-anchor="middle" x="802" y="-84" font-family="Helvetica,sans-Serif" font-size="10.00">wld_wpaCtrl_getMaxMsgLen</text>
</a>
</g>
</g>
<!-- Node4&#45;&gt;Node5 -->
<g id="edge4" class="edge">
<title>Node4&#45;&gt;Node5</title>
<path fill="none" stroke="midnightblue" d="M688.19,-73.61C696.66,-74.58 705.31,-75.56 713.87,-76.54"/>
<polygon fill="midnightblue" stroke="midnightblue" points="713.52,-80.02 723.85,-77.68 714.31,-73.07 713.52,-80.02"/>
</g>
<!-- Node6 -->
<g id="node6" class="node">
<title>Node6</title>
<g id="a_node6"><a xlink:href="wld__wpaCtrlConnection_8c.html#ae8867992d243efdfa13e360b50730f88" target="_top" xlink:title=" ">
<polygon fill="white" stroke="black" points="736.5,-27.5 736.5,-57.5 867.5,-57.5 867.5,-27.5 736.5,-27.5"/>
<text text-anchor="start" x="744.5" y="-45.5" font-family="Helvetica,sans-Serif" font-size="10.00">wld_wpaCtrlConnection</text>
<text text-anchor="middle" x="802" y="-34.5" font-family="Helvetica,sans-Serif" font-size="10.00">_sendCmdSyncedExt</text>
</a>
</g>
</g>
<!-- Node4&#45;&gt;Node6 -->
<g id="edge5" class="edge">
<title>Node4&#45;&gt;Node6</title>
<path fill="none" stroke="midnightblue" d="M688.19,-55.39C700.71,-53.96 713.62,-52.49 726.04,-51.07"/>
<polygon fill="midnightblue" stroke="midnightblue" points="726.79,-54.5 736.33,-49.89 725.99,-47.55 726.79,-54.5"/>
</g>
<!-- Node7 -->
<g id="node7" class="node">
<title>Node7</title>
<g id="a_node7"><a xlink:href="wld__wpaCtrlConnection_8c.html#abfe3f8b17cf527b1e6fe85a564c8604b" target="_top" xlink:title=" ">
<polygon fill="white" stroke="black" points="916,-52.5 916,-82.5 1047,-82.5 1047,-52.5 916,-52.5"/>
<text text-anchor="start" x="924" y="-70.5" font-family="Helvetica,sans-Serif" font-size="10.00">wld_wpaCtrlConnection</text>
<text text-anchor="middle" x="981.5" y="-59.5" font-family="Helvetica,sans-Serif" font-size="10.00">_getConnSockName</text>
</a>
</g>
</g>
<!-- Node6&#45;&gt;Node7 -->
<g id="edge6" class="edge">
<title>Node6&#45;&gt;Node7</title>
<path fill="none" stroke="midnightblue" d="M867.58,-51.6C880.02,-53.35 893.14,-55.2 905.87,-56.99"/>
<polygon fill="midnightblue" stroke="midnightblue" points="905.57,-60.48 915.96,-58.41 906.55,-53.55 905.57,-60.48"/>
</g>
<!-- Node8 -->
<g id="node8" class="node">
<title>Node8</title>
<g id="a_node8"><a xlink:href="wld__wpaCtrlConnection_8c.html#aa82226c76dbbf306e509b7c6d3088277" target="_top" xlink:title=" ">
<polygon fill="white" stroke="black" points="916,-3.5 916,-33.5 1047,-33.5 1047,-3.5 916,-3.5"/>
<text text-anchor="start" x="924" y="-21.5" font-family="Helvetica,sans-Serif" font-size="10.00">wld_wpaCtrlConnection</text>
<text text-anchor="middle" x="981.5" y="-10.5" font-family="Helvetica,sans-Serif" font-size="10.00">_sendCmd</text>
</a>
</g>
</g>
<!-- Node6&#45;&gt;Node8 -->
<g id="edge7" class="edge">
<title>Node6&#45;&gt;Node8</title>
<path fill="none" stroke="midnightblue" d="M867.58,-33.77C880.02,-32.09 893.14,-30.31 905.87,-28.59"/>
<polygon fill="midnightblue" stroke="midnightblue" points="906.52,-32.03 915.96,-27.23 905.59,-25.1 906.52,-32.03"/>
</g>
<!-- Node10 -->
<g id="node10" class="node">
<title>Node10</title>
<g id="a_node10"><a xlink:href="wld__wpaCtrlInterface_8c.html#a8b38bc9ca95b60e002d38cdb1374d1d0" target="_top" xlink:title=" ">
<polygon fill="white" stroke="black" points="358.5,-0.5 358.5,-30.5 478.5,-30.5 478.5,-0.5 358.5,-0.5"/>
<text text-anchor="start" x="366.5" y="-18.5" font-family="Helvetica,sans-Serif" font-size="10.00">wld_wpaCtrlInterface</text>
<text text-anchor="middle" x="418.5" y="-7.5" font-family="Helvetica,sans-Serif" font-size="10.00">_isReady</text>
</a>
</g>
</g>
<!-- Node9&#45;&gt;Node10 -->
<g id="edge9" class="edge">
<title>Node9&#45;&gt;Node10</title>
<path fill="none" stroke="midnightblue" d="M308.69,-16.71C321.69,-16.57 335.26,-16.42 348.22,-16.27"/>
<polygon fill="midnightblue" stroke="midnightblue" points="348.5,-19.77 358.46,-16.16 348.43,-12.77 348.5,-19.77"/>
</g>
</g>
</svg>
