<?xml version="1.0" encoding="UTF-8" standalone="no"?>
<!DOCTYPE svg PUBLIC "-//W3C//DTD SVG 1.1//EN"
 "http://www.w3.org/Graphics/SVG/1.1/DTD/svg11.dtd">
<!-- Generated by graphviz version 2.43.0 (0)
 -->
<!-- Title: wld_nl80211_sendCmdSyncWithAck Pages: 1 -->
<svg width="832pt" height="469pt"
 viewBox="0.00 0.00 832.00 469.00" xmlns="http://www.w3.org/2000/svg" xmlns:xlink="http://www.w3.org/1999/xlink">
<g id="graph0" class="graph" transform="scale(1 1) rotate(0) translate(4 465)">
<title>wld_nl80211_sendCmdSyncWithAck</title>
<polygon fill="white" stroke="transparent" points="-4,4 -4,-465 828,-465 828,4 -4,4"/>
<!-- Node1 -->
<g id="node1" class="node">
<title>Node1</title>
<g id="a_node1"><a xlink:title=" ">
<polygon fill="#bfbfbf" stroke="black" points="631,-239.5 631,-258.5 824,-258.5 824,-239.5 631,-239.5"/>
<text text-anchor="middle" x="727.5" y="-246.5" font-family="Helvetica,sans-Serif" font-size="10.00">wld_nl80211_sendCmdSyncWithAck</text>
</a>
</g>
</g>
<!-- Node2 -->
<g id="node2" class="node">
<title>Node2</title>
<g id="a_node2"><a xlink:href="wld__nl80211__api_8c.html#a2f4aebd7b76c2f3fedc0a004380763f9" target="_top" xlink:title=" ">
<polygon fill="white" stroke="black" points="438.5,-441.5 438.5,-460.5 570.5,-460.5 570.5,-441.5 438.5,-441.5"/>
<text text-anchor="middle" x="504.5" y="-448.5" font-family="Helvetica,sans-Serif" font-size="10.00">wld_nl80211_abortScan</text>
</a>
</g>
</g>
<!-- Node1&#45;&gt;Node2 -->
<g id="edge1" class="edge">
<title>Node1&#45;&gt;Node2</title>
<path fill="none" stroke="midnightblue" d="M718.46,-268.29C701.61,-306.21 658.78,-390.36 595,-432 587.68,-436.78 579.38,-440.38 570.85,-443.09"/>
<polygon fill="midnightblue" stroke="midnightblue" points="721.77,-269.47 722.52,-258.9 715.34,-266.69 721.77,-269.47"/>
</g>
<!-- Node4 -->
<g id="node4" class="node">
<title>Node4</title>
<g id="a_node4"><a xlink:href="wld__nl80211__api_8c.html#a6daf0ff702d48036740aea1225b7ccd7" target="_top" xlink:title=" ">
<polygon fill="white" stroke="black" points="437,-403.5 437,-422.5 572,-422.5 572,-403.5 437,-403.5"/>
<text text-anchor="middle" x="504.5" y="-410.5" font-family="Helvetica,sans-Serif" font-size="10.00">wld_nl80211_bgDfsStart</text>
</a>
</g>
</g>
<!-- Node1&#45;&gt;Node4 -->
<g id="edge3" class="edge">
<title>Node1&#45;&gt;Node4</title>
<path fill="none" stroke="midnightblue" d="M715.48,-267.27C695.58,-298.55 650.54,-362.08 595,-394 587.98,-398.04 580.2,-401.22 572.25,-403.73"/>
<polygon fill="midnightblue" stroke="midnightblue" points="718.52,-269.01 720.83,-258.67 712.57,-265.31 718.52,-269.01"/>
</g>
<!-- Node7 -->
<g id="node7" class="node">
<title>Node7</title>
<g id="a_node7"><a xlink:href="wld__nl80211__api_8c.html#aa8dd2626e3aac6906d9f1f604134ff4b" target="_top" xlink:title=" ">
<polygon fill="white" stroke="black" points="437.5,-365.5 437.5,-384.5 571.5,-384.5 571.5,-365.5 437.5,-365.5"/>
<text text-anchor="middle" x="504.5" y="-372.5" font-family="Helvetica,sans-Serif" font-size="10.00">wld_nl80211_bgDfsStop</text>
</a>
</g>
</g>
<!-- Node1&#45;&gt;Node7 -->
<g id="edge6" class="edge">
<title>Node1&#45;&gt;Node7</title>
<path fill="none" stroke="midnightblue" d="M710.78,-266.13C687.78,-290.11 642.47,-333.3 595,-356 586.83,-359.91 577.86,-363.02 568.86,-365.49"/>
<polygon fill="midnightblue" stroke="midnightblue" points="713.39,-268.47 717.7,-258.79 708.3,-263.67 713.39,-268.47"/>
</g>
<!-- Node10 -->
<g id="node10" class="node">
<title>Node10</title>
<g id="a_node10"><a xlink:href="wld__nl80211__api_8c.html#a13e5b3c1c1cb6b0903ded6297c4741ab" target="_top" xlink:title=" ">
<polygon fill="white" stroke="black" points="433.5,-327.5 433.5,-346.5 575.5,-346.5 575.5,-327.5 433.5,-327.5"/>
<text text-anchor="middle" x="504.5" y="-334.5" font-family="Helvetica,sans-Serif" font-size="10.00">wld_nl80211_delInterface</text>
</a>
</g>
</g>
<!-- Node1&#45;&gt;Node10 -->
<g id="edge9" class="edge">
<title>Node1&#45;&gt;Node10</title>
<path fill="none" stroke="midnightblue" d="M702.69,-264.06C677.03,-279.67 634.53,-303.74 595,-318 584.54,-321.77 573.11,-324.9 562.02,-327.46"/>
<polygon fill="midnightblue" stroke="midnightblue" points="704.67,-266.95 711.35,-258.73 701,-260.99 704.67,-266.95"/>
</g>
<!-- Node13 -->
<g id="node13" class="node">
<title>Node13</title>
<g id="a_node13"><a xlink:href="wld__nl80211__api_8c.html#a5efa7e8d66bb2b1570d17a3b5934726d" target="_top" xlink:title=" ">
<polygon fill="white" stroke="black" points="419,-278 419,-308 590,-308 590,-278 419,-278"/>
<text text-anchor="start" x="427" y="-296" font-family="Helvetica,sans-Serif" font-size="10.00">wld_nl80211_sendManagement</text>
<text text-anchor="middle" x="504.5" y="-285" font-family="Helvetica,sans-Serif" font-size="10.00">FrameCmd</text>
</a>
</g>
</g>
<!-- Node1&#45;&gt;Node13 -->
<g id="edge12" class="edge">
<title>Node1&#45;&gt;Node13</title>
<path fill="none" stroke="midnightblue" d="M668.58,-260.53C641.86,-265.85 609.78,-272.24 581.17,-277.93"/>
<polygon fill="midnightblue" stroke="midnightblue" points="669.42,-263.93 678.55,-258.55 668.06,-257.07 669.42,-263.93"/>
</g>
<!-- Node14 -->
<g id="node14" class="node">
<title>Node14</title>
<g id="a_node14"><a xlink:href="wld__nl80211__api_8c.html#a6b3cf23329afffa8df5d146fc9f0def6" target="_top" xlink:title=" ">
<polygon fill="white" stroke="black" points="414,-239.5 414,-258.5 595,-258.5 595,-239.5 414,-239.5"/>
<text text-anchor="middle" x="504.5" y="-246.5" font-family="Helvetica,sans-Serif" font-size="10.00">wld_nl80211_sendVendorSubCmd</text>
</a>
</g>
</g>
<!-- Node1&#45;&gt;Node14 -->
<g id="edge13" class="edge">
<title>Node1&#45;&gt;Node14</title>
<path fill="none" stroke="midnightblue" d="M620.77,-249C612.15,-249 603.5,-249 595.02,-249"/>
<polygon fill="midnightblue" stroke="midnightblue" points="620.85,-252.5 630.85,-249 620.85,-245.5 620.85,-252.5"/>
</g>
<!-- Node16 -->
<g id="node16" class="node">
<title>Node16</title>
<g id="a_node16"><a xlink:href="wld__nl80211__api_8c.html#a13c8f3d48b70f13d45380d27a5db608c" target="_top" xlink:title=" ">
<polygon fill="white" stroke="black" points="425.5,-190 425.5,-220 583.5,-220 583.5,-190 425.5,-190"/>
<text text-anchor="start" x="433.5" y="-208" font-family="Helvetica,sans-Serif" font-size="10.00">wld_nl80211_sendVendorSub</text>
<text text-anchor="middle" x="504.5" y="-197" font-family="Helvetica,sans-Serif" font-size="10.00">CmdAttr</text>
</a>
</g>
</g>
<!-- Node1&#45;&gt;Node16 -->
<g id="edge15" class="edge">
<title>Node1&#45;&gt;Node16</title>
<path fill="none" stroke="midnightblue" d="M668.58,-237.47C641.86,-232.15 609.78,-225.76 581.17,-220.07"/>
<polygon fill="midnightblue" stroke="midnightblue" points="668.06,-240.93 678.55,-239.45 669.42,-234.07 668.06,-240.93"/>
</g>
<!-- Node18 -->
<g id="node18" class="node">
<title>Node18</title>
<g id="a_node18"><a xlink:href="wld__nl80211__api_8c.html#af75242af240f2d0a582e316bfe1f9392" target="_top" xlink:title=" ">
<polygon fill="white" stroke="black" points="422.5,-151.5 422.5,-170.5 586.5,-170.5 586.5,-151.5 422.5,-151.5"/>
<text text-anchor="middle" x="504.5" y="-158.5" font-family="Helvetica,sans-Serif" font-size="10.00">wld_nl80211_setInterfaceType</text>
</a>
</g>
</g>
<!-- Node1&#45;&gt;Node18 -->
<g id="edge17" class="edge">
<title>Node1&#45;&gt;Node18</title>
<path fill="none" stroke="midnightblue" d="M702.63,-234.26C676.91,-218.96 634.37,-195.31 595,-181 583.48,-176.81 570.79,-173.34 558.68,-170.52"/>
<polygon fill="midnightblue" stroke="midnightblue" points="700.93,-237.32 711.3,-239.48 704.54,-231.33 700.93,-237.32"/>
</g>
<!-- Node22 -->
<g id="node22" class="node">
<title>Node22</title>
<g id="a_node22"><a xlink:href="wld__nl80211__api_8c.html#af4704087fc79db050a424f3e812eae65" target="_top" xlink:title=" ">
<polygon fill="white" stroke="black" points="433.5,-99 433.5,-129 575.5,-129 575.5,-99 433.5,-99"/>
<text text-anchor="start" x="441.5" y="-117" font-family="Helvetica,sans-Serif" font-size="10.00">wld_nl80211_setInterface</text>
<text text-anchor="middle" x="504.5" y="-106" font-family="Helvetica,sans-Serif" font-size="10.00">Use4Mac</text>
</a>
</g>
</g>
<!-- Node1&#45;&gt;Node22 -->
<g id="edge22" class="edge">
<title>Node1&#45;&gt;Node22</title>
<path fill="none" stroke="midnightblue" d="M710.13,-232.12C686.64,-208.79 641.12,-166.78 595,-142 585.68,-136.99 575.32,-132.72 565.05,-129.14"/>
<polygon fill="midnightblue" stroke="midnightblue" points="707.69,-234.63 717.21,-239.26 712.65,-229.7 707.69,-234.63"/>
</g>
<!-- Node24 -->
<g id="node24" class="node">
<title>Node24</title>
<g id="a_node24"><a xlink:href="wld__nl80211__api_8c.html#afea112af9c64dd8dd1d7005cee898355" target="_top" xlink:title=" ">
<polygon fill="white" stroke="black" points="427,-54.5 427,-73.5 582,-73.5 582,-54.5 427,-54.5"/>
<text text-anchor="middle" x="504.5" y="-61.5" font-family="Helvetica,sans-Serif" font-size="10.00">wld_nl80211_setRegDomain</text>
</a>
</g>
</g>
<!-- Node1&#45;&gt;Node24 -->
<g id="edge24" class="edge">
<title>Node1&#45;&gt;Node24</title>
<path fill="none" stroke="midnightblue" d="M716.22,-230.36C696.91,-197.08 651.98,-127.43 595,-90 583.91,-82.71 570.74,-77.43 557.97,-73.61"/>
<polygon fill="midnightblue" stroke="midnightblue" points="713.4,-232.47 721.38,-239.44 719.49,-229.02 713.4,-232.47"/>
</g>
<!-- Node27 -->
<g id="node27" class="node">
<title>Node27</title>
<g id="a_node27"><a xlink:href="wld__nl80211__api_8c.html#ac08879bb26f97a242a0c631fc55d1cfd" target="_top" xlink:title=" ">
<polygon fill="white" stroke="black" points="417,-4.5 417,-23.5 592,-23.5 592,-4.5 417,-4.5"/>
<text text-anchor="middle" x="504.5" y="-11.5" font-family="Helvetica,sans-Serif" font-size="10.00">wld_nl80211_setWiphyAntennas</text>
</a>
</g>
</g>
<!-- Node1&#45;&gt;Node27 -->
<g id="edge27" class="edge">
<title>Node1&#45;&gt;Node27</title>
<path fill="none" stroke="midnightblue" d="M719.26,-229.88C703.12,-189.78 660.4,-96.37 595,-45 582.46,-35.15 566.57,-28.31 551.67,-23.62"/>
<polygon fill="midnightblue" stroke="midnightblue" points="716.04,-231.25 722.94,-239.28 722.55,-228.7 716.04,-231.25"/>
</g>
<!-- Node3 -->
<g id="node3" class="node">
<title>Node3</title>
<g id="a_node3"><a xlink:href="wld__nl80211__scan_8c.html#ae14e3f81292e950d99fa22112e30b7b5" target="_top" xlink:title=" ">
<polygon fill="white" stroke="black" points="213.5,-441.5 213.5,-460.5 366.5,-460.5 366.5,-441.5 213.5,-441.5"/>
<text text-anchor="middle" x="290" y="-448.5" font-family="Helvetica,sans-Serif" font-size="10.00">wld_rad_nl80211_abortScan</text>
</a>
</g>
</g>
<!-- Node2&#45;&gt;Node3 -->
<g id="edge2" class="edge">
<title>Node2&#45;&gt;Node3</title>
<path fill="none" stroke="midnightblue" d="M428.29,-451C408.24,-451 386.57,-451 366.51,-451"/>
<polygon fill="midnightblue" stroke="midnightblue" points="428.3,-454.5 438.3,-451 428.3,-447.5 428.3,-454.5"/>
</g>
<!-- Node5 -->
<g id="node5" class="node">
<title>Node5</title>
<g id="a_node5"><a xlink:href="wld__rad__nl80211_8c.html#a612fc4497ec8133b6181e77a74bc7d0e" target="_top" xlink:title=" ">
<polygon fill="white" stroke="black" points="212,-403.5 212,-422.5 368,-422.5 368,-403.5 212,-403.5"/>
<text text-anchor="middle" x="290" y="-410.5" font-family="Helvetica,sans-Serif" font-size="10.00">wld_rad_nl80211_bgDfsStart</text>
</a>
</g>
</g>
<!-- Node4&#45;&gt;Node5 -->
<g id="edge4" class="edge">
<title>Node4&#45;&gt;Node5</title>
<path fill="none" stroke="midnightblue" d="M426.72,-413C407.67,-413 387.25,-413 368.18,-413"/>
<polygon fill="midnightblue" stroke="midnightblue" points="426.85,-416.5 436.85,-413 426.85,-409.5 426.85,-416.5"/>
</g>
<!-- Node6 -->
<g id="node6" class="node">
<title>Node6</title>
<g id="a_node6"><a xlink:href="wifiGen__rad_8c.html#a9233592c6fba03287d70436e4532b9c5" target="_top" xlink:title=" ">
<polygon fill="white" stroke="black" points="9.5,-403.5 9.5,-422.5 156.5,-422.5 156.5,-403.5 9.5,-403.5"/>
<text text-anchor="middle" x="83" y="-410.5" font-family="Helvetica,sans-Serif" font-size="10.00">wifiGen_rad_bgDfsStartExt</text>
</a>
</g>
</g>
<!-- Node5&#45;&gt;Node6 -->
<g id="edge5" class="edge">
<title>Node5&#45;&gt;Node6</title>
<path fill="none" stroke="midnightblue" d="M201.54,-413C186.6,-413 171.24,-413 156.74,-413"/>
<polygon fill="midnightblue" stroke="midnightblue" points="201.79,-416.5 211.79,-413 201.79,-409.5 201.79,-416.5"/>
</g>
<!-- Node8 -->
<g id="node8" class="node">
<title>Node8</title>
<g id="a_node8"><a xlink:href="wld__rad__nl80211_8c.html#a91f62b90e3141285f0b5c14bc3f1f05a" target="_top" xlink:title=" ">
<polygon fill="white" stroke="black" points="212.5,-365.5 212.5,-384.5 367.5,-384.5 367.5,-365.5 212.5,-365.5"/>
<text text-anchor="middle" x="290" y="-372.5" font-family="Helvetica,sans-Serif" font-size="10.00">wld_rad_nl80211_bgDfsStop</text>
</a>
</g>
</g>
<!-- Node7&#45;&gt;Node8 -->
<g id="edge7" class="edge">
<title>Node7&#45;&gt;Node8</title>
<path fill="none" stroke="midnightblue" d="M427.18,-375C407.88,-375 387.14,-375 367.82,-375"/>
<polygon fill="midnightblue" stroke="midnightblue" points="427.43,-378.5 437.43,-375 427.43,-371.5 427.43,-378.5"/>
</g>
<!-- Node9 -->
<g id="node9" class="node">
<title>Node9</title>
<g id="a_node9"><a xlink:href="wifiGen__rad_8c.html#a4648b18985ef392da90c2a0c8273fc69" target="_top" xlink:title=" ">
<polygon fill="white" stroke="black" points="18,-365.5 18,-384.5 148,-384.5 148,-365.5 18,-365.5"/>
<text text-anchor="middle" x="83" y="-372.5" font-family="Helvetica,sans-Serif" font-size="10.00">wifiGen_rad_bgDfsStop</text>
</a>
</g>
</g>
<!-- Node8&#45;&gt;Node9 -->
<g id="edge8" class="edge">
<title>Node8&#45;&gt;Node9</title>
<path fill="none" stroke="midnightblue" d="M202.36,-375C184.18,-375 165.31,-375 148.13,-375"/>
<polygon fill="midnightblue" stroke="midnightblue" points="202.37,-378.5 212.37,-375 202.37,-371.5 202.37,-378.5"/>
</g>
<!-- Node11 -->
<g id="node11" class="node">
<title>Node11</title>
<g id="a_node11"><a xlink:href="wifiGen__radIfMgt_8c.html#ab9e00cca2a4610d47ccb49c3518cdc24" target="_top" xlink:title=" ">
<polygon fill="white" stroke="black" points="218,-327.5 218,-346.5 362,-346.5 362,-327.5 218,-327.5"/>
<text text-anchor="middle" x="290" y="-334.5" font-family="Helvetica,sans-Serif" font-size="10.00">wifiGen_rad_delendpointif</text>
</a>
</g>
</g>
<!-- Node10&#45;&gt;Node11 -->
<g id="edge10" class="edge">
<title>Node10&#45;&gt;Node11</title>
<path fill="none" stroke="midnightblue" d="M423.28,-337C403.2,-337 381.79,-337 362.19,-337"/>
<polygon fill="midnightblue" stroke="midnightblue" points="423.33,-340.5 433.33,-337 423.33,-333.5 423.33,-340.5"/>
</g>
<!-- Node12 -->
<g id="node12" class="node">
<title>Node12</title>
<g id="a_node12"><a xlink:href="wifiGen__radIfMgt_8c.html#a2408beb574b0d3bb9b0a03576f3859b7" target="_top" xlink:title=" ">
<polygon fill="white" stroke="black" points="230.5,-289.5 230.5,-308.5 349.5,-308.5 349.5,-289.5 230.5,-289.5"/>
<text text-anchor="middle" x="290" y="-296.5" font-family="Helvetica,sans-Serif" font-size="10.00">wifiGen_rad_delvapif</text>
</a>
</g>
</g>
<!-- Node10&#45;&gt;Node12 -->
<g id="edge11" class="edge">
<title>Node10&#45;&gt;Node12</title>
<path fill="none" stroke="midnightblue" d="M440.05,-325.65C409.56,-320.2 373.42,-313.74 344.37,-308.54"/>
<polygon fill="midnightblue" stroke="midnightblue" points="439.69,-329.14 450.15,-327.46 440.92,-322.25 439.69,-329.14"/>
</g>
<!-- Node15 -->
<g id="node15" class="node">
<title>Node15</title>
<g id="a_node15"><a xlink:href="wld__rad__nl80211_8c.html#ac3ba46bf8f7ca8bd12a69af18cabbaf3" target="_top" xlink:title=" ">
<polygon fill="white" stroke="black" points="209.5,-240 209.5,-270 370.5,-270 370.5,-240 209.5,-240"/>
<text text-anchor="start" x="217.5" y="-258" font-family="Helvetica,sans-Serif" font-size="10.00">wld_rad_nl80211_sendVendor</text>
<text text-anchor="middle" x="290" y="-247" font-family="Helvetica,sans-Serif" font-size="10.00">SubCmd</text>
</a>
</g>
</g>
<!-- Node14&#45;&gt;Node15 -->
<g id="edge14" class="edge">
<title>Node14&#45;&gt;Node15</title>
<path fill="none" stroke="midnightblue" d="M403.81,-251.81C392.68,-252.13 381.45,-252.45 370.61,-252.75"/>
<polygon fill="midnightblue" stroke="midnightblue" points="404.1,-255.31 414,-251.53 403.9,-248.31 404.1,-255.31"/>
</g>
<!-- Node17 -->
<g id="node17" class="node">
<title>Node17</title>
<g id="a_node17"><a xlink:href="wld__rad__nl80211_8c.html#a2fd70a691d1e20370c34ae77fca90f9b" target="_top" xlink:title=" ">
<polygon fill="white" stroke="black" points="209.5,-191 209.5,-221 370.5,-221 370.5,-191 209.5,-191"/>
<text text-anchor="start" x="217.5" y="-209" font-family="Helvetica,sans-Serif" font-size="10.00">wld_rad_nl80211_sendVendor</text>
<text text-anchor="middle" x="290" y="-198" font-family="Helvetica,sans-Serif" font-size="10.00">SubCmdAttr</text>
</a>
</g>
</g>
<!-- Node16&#45;&gt;Node17 -->
<g id="edge16" class="edge">
<title>Node16&#45;&gt;Node17</title>
<path fill="none" stroke="midnightblue" d="M415.19,-205.42C400.49,-205.48 385.31,-205.56 370.83,-205.62"/>
<polygon fill="midnightblue" stroke="midnightblue" points="415.29,-208.92 425.28,-205.37 415.26,-201.92 415.29,-208.92"/>
</g>
<!-- Node19 -->
<g id="node19" class="node">
<title>Node19</title>
<g id="a_node19"><a xlink:href="wld__rad__nl80211_8c.html#a85af5037c0598b793245852c20e92baf" target="_top" xlink:title=" ">
<polygon fill="white" stroke="black" points="224,-152.5 224,-171.5 356,-171.5 356,-152.5 224,-152.5"/>
<text text-anchor="middle" x="290" y="-159.5" font-family="Helvetica,sans-Serif" font-size="10.00">wld_rad_nl80211_setAp</text>
</a>
</g>
</g>
<!-- Node18&#45;&gt;Node19 -->
<g id="edge18" class="edge">
<title>Node18&#45;&gt;Node19</title>
<path fill="none" stroke="midnightblue" d="M412.15,-161.43C393.27,-161.52 373.75,-161.61 356.03,-161.69"/>
<polygon fill="midnightblue" stroke="midnightblue" points="412.27,-164.93 422.25,-161.38 412.24,-157.93 412.27,-164.93"/>
</g>
<!-- Node21 -->
<g id="node21" class="node">
<title>Node21</title>
<g id="a_node21"><a xlink:href="wld__rad__nl80211_8c.html#a251899dfab35f326fb3a4083339f78b8" target="_top" xlink:title=" ">
<polygon fill="white" stroke="black" points="222.5,-114.5 222.5,-133.5 357.5,-133.5 357.5,-114.5 222.5,-114.5"/>
<text text-anchor="middle" x="290" y="-121.5" font-family="Helvetica,sans-Serif" font-size="10.00">wld_rad_nl80211_setSta</text>
</a>
</g>
</g>
<!-- Node18&#45;&gt;Node21 -->
<g id="edge20" class="edge">
<title>Node18&#45;&gt;Node21</title>
<path fill="none" stroke="midnightblue" d="M438.92,-149.75C409.2,-144.58 374.33,-138.51 345.91,-133.56"/>
<polygon fill="midnightblue" stroke="midnightblue" points="438.32,-153.2 448.78,-151.47 439.52,-146.31 438.32,-153.2"/>
</g>
<!-- Node20 -->
<g id="node20" class="node">
<title>Node20</title>
<g id="a_node20"><a xlink:href="wld__rad__nl80211_8c.html#a34acd2cf01d19d3900cb06f98f203c35" target="_top" xlink:title=" ">
<polygon fill="white" stroke="black" points="0,-133.5 0,-152.5 166,-152.5 166,-133.5 0,-133.5"/>
<text text-anchor="middle" x="83" y="-140.5" font-family="Helvetica,sans-Serif" font-size="10.00">wld_rad_nl80211_addInterface</text>
</a>
</g>
</g>
<!-- Node19&#45;&gt;Node20 -->
<g id="edge19" class="edge">
<title>Node19&#45;&gt;Node20</title>
<path fill="none" stroke="midnightblue" d="M213.83,-155.03C198.36,-153.6 182,-152.08 166.29,-150.63"/>
<polygon fill="midnightblue" stroke="midnightblue" points="213.57,-158.52 223.86,-155.96 214.22,-151.55 213.57,-158.52"/>
</g>
<!-- Node21&#45;&gt;Node20 -->
<g id="edge21" class="edge">
<title>Node21&#45;&gt;Node20</title>
<path fill="none" stroke="midnightblue" d="M212.22,-131.12C197.25,-132.5 181.5,-133.96 166.36,-135.37"/>
<polygon fill="midnightblue" stroke="midnightblue" points="212.81,-134.58 222.44,-130.17 212.16,-127.61 212.81,-134.58"/>
</g>
<!-- Node23 -->
<g id="node23" class="node">
<title>Node23</title>
<g id="a_node23"><a xlink:href="wld__rad__nl80211_8c.html#a94120451de6e22ee823defd982434aec" target="_top" xlink:title=" ">
<polygon fill="white" stroke="black" points="217,-76.5 217,-95.5 363,-95.5 363,-76.5 217,-76.5"/>
<text text-anchor="middle" x="290" y="-83.5" font-family="Helvetica,sans-Serif" font-size="10.00">wld_rad_nl80211_set4Mac</text>
</a>
</g>
</g>
<!-- Node22&#45;&gt;Node23 -->
<g id="edge23" class="edge">
<title>Node22&#45;&gt;Node23</title>
<path fill="none" stroke="midnightblue" d="M423.17,-103.42C403.49,-100.82 382.55,-98.06 363.28,-95.52"/>
<polygon fill="midnightblue" stroke="midnightblue" points="422.96,-106.92 433.33,-104.75 423.87,-99.98 422.96,-106.92"/>
</g>
<!-- Node25 -->
<g id="node25" class="node">
<title>Node25</title>
<g id="a_node25"><a xlink:href="wld__rad__nl80211_8c.html#ab58e5e6655022844345ceb72940e65a7" target="_top" xlink:title=" ">
<polygon fill="white" stroke="black" points="202,-38.5 202,-57.5 378,-57.5 378,-38.5 202,-38.5"/>
<text text-anchor="middle" x="290" y="-45.5" font-family="Helvetica,sans-Serif" font-size="10.00">wld_rad_nl80211_setRegDomain</text>
</a>
</g>
</g>
<!-- Node24&#45;&gt;Node25 -->
<g id="edge25" class="edge">
<title>Node24&#45;&gt;Node25</title>
<path fill="none" stroke="midnightblue" d="M416.67,-57.46C403.93,-56.5 390.81,-55.51 378.06,-54.56"/>
<polygon fill="midnightblue" stroke="midnightblue" points="416.55,-60.96 426.78,-58.22 417.07,-53.98 416.55,-60.96"/>
</g>
<!-- Node26 -->
<g id="node26" class="node">
<title>Node26</title>
<g id="a_node26"><a xlink:href="wifiGen__rad_8c.html#aa2e0292b4ea755002c53ad76b381543e" target="_top" xlink:title=" ">
<polygon fill="white" stroke="black" points="16,-38.5 16,-57.5 150,-57.5 150,-38.5 16,-38.5"/>
<text text-anchor="middle" x="83" y="-45.5" font-family="Helvetica,sans-Serif" font-size="10.00">wifiGen_rad_regDomain</text>
</a>
</g>
</g>
<!-- Node25&#45;&gt;Node26 -->
<g id="edge26" class="edge">
<title>Node25&#45;&gt;Node26</title>
<path fill="none" stroke="midnightblue" d="M191.56,-48C177.49,-48 163.3,-48 150.04,-48"/>
<polygon fill="midnightblue" stroke="midnightblue" points="191.76,-51.5 201.76,-48 191.76,-44.5 191.76,-51.5"/>
</g>
<!-- Node28 -->
<g id="node28" class="node">
<title>Node28</title>
<g id="a_node28"><a xlink:href="wld__rad__nl80211_8c.html#acaed2ca166a98656dc0786e5fc8480b0" target="_top" xlink:title=" ">
<polygon fill="white" stroke="black" points="207.5,-0.5 207.5,-19.5 372.5,-19.5 372.5,-0.5 207.5,-0.5"/>
<text text-anchor="middle" x="290" y="-7.5" font-family="Helvetica,sans-Serif" font-size="10.00">wld_rad_nl80211_setAntennas</text>
</a>
</g>
</g>
<!-- Node27&#45;&gt;Node28 -->
<g id="edge28" class="edge">
<title>Node27&#45;&gt;Node28</title>
<path fill="none" stroke="midnightblue" d="M406.44,-12.17C395.15,-11.96 383.72,-11.75 372.66,-11.54"/>
<polygon fill="midnightblue" stroke="midnightblue" points="406.7,-15.68 416.76,-12.37 406.83,-8.68 406.7,-15.68"/>
</g>
<!-- Node29 -->
<g id="node29" class="node">
<title>Node29</title>
<g id="a_node29"><a xlink:href="wifiGen__rad_8c.html#a11f836d815ae1ff363a72499cb65f553" target="_top" xlink:title=" ">
<polygon fill="white" stroke="black" points="15.5,-0.5 15.5,-19.5 150.5,-19.5 150.5,-0.5 15.5,-0.5"/>
<text text-anchor="middle" x="83" y="-7.5" font-family="Helvetica,sans-Serif" font-size="10.00">wifiGen_rad_antennactrl</text>
</a>
</g>
</g>
<!-- Node28&#45;&gt;Node29 -->
<g id="edge29" class="edge">
<title>Node28&#45;&gt;Node29</title>
<path fill="none" stroke="midnightblue" d="M197.14,-10C181.44,-10 165.4,-10 150.53,-10"/>
<polygon fill="midnightblue" stroke="midnightblue" points="197.39,-13.5 207.39,-10 197.39,-6.5 197.39,-13.5"/>
</g>
</g>
</svg>
