<?xml version="1.0" encoding="UTF-8" standalone="no"?>
<!DOCTYPE svg PUBLIC "-//W3C//DTD SVG 1.1//EN"
 "http://www.w3.org/Graphics/SVG/1.1/DTD/svg11.dtd">
<!-- Generated by graphviz version 2.43.0 (0)
 -->
<!-- Title: include/wld/wld_vendorModule_mgr.h Pages: 1 -->
<svg width="380pt" height="151pt"
 viewBox="0.00 0.00 379.50 151.00" xmlns="http://www.w3.org/2000/svg" xmlns:xlink="http://www.w3.org/1999/xlink">
<g id="graph0" class="graph" transform="scale(1 1) rotate(0) translate(4 147)">
<title>include/wld/wld_vendorModule_mgr.h</title>
<polygon fill="white" stroke="transparent" points="-4,4 -4,-147 375.5,-147 375.5,4 -4,4"/>
<!-- Node1 -->
<g id="node1" class="node">
<title>Node1</title>
<g id="a_node1"><a xlink:title=" ">
<polygon fill="#bfbfbf" stroke="black" points="102.5,-112.5 102.5,-142.5 269.5,-142.5 269.5,-112.5 102.5,-112.5"/>
<text text-anchor="start" x="110.5" y="-130.5" font-family="Helvetica,sans-Serif" font-size="10.00">include/wld/wld_vendorModule</text>
<text text-anchor="middle" x="186" y="-119.5" font-family="Helvetica,sans-Serif" font-size="10.00">_mgr.h</text>
</a>
</g>
</g>
<!-- Node2 -->
<g id="node2" class="node">
<title>Node2</title>
<g id="a_node2"><a xlink:href="wld__vendorModule_8h.html" target="_top" xlink:title=" ">
<polygon fill="white" stroke="black" points="127,-56.5 127,-75.5 245,-75.5 245,-56.5 127,-56.5"/>
<text text-anchor="middle" x="186" y="-63.5" font-family="Helvetica,sans-Serif" font-size="10.00">wld_vendorModule.h</text>
</a>
</g>
</g>
<!-- Node1&#45;&gt;Node2 -->
<g id="edge1" class="edge">
<title>Node1&#45;&gt;Node2</title>
<path fill="none" stroke="midnightblue" d="M186,-112.4C186,-104.47 186,-94.46 186,-85.86"/>
<polygon fill="midnightblue" stroke="midnightblue" points="189.5,-85.66 186,-75.66 182.5,-85.66 189.5,-85.66"/>
</g>
<!-- Node3 -->
<g id="node3" class="node">
<title>Node3</title>
<g id="a_node3"><a xlink:title=" ">
<polygon fill="white" stroke="#bfbfbf" points="0,-0.5 0,-19.5 122,-19.5 122,-0.5 0,-0.5"/>
<text text-anchor="middle" x="61" y="-7.5" font-family="Helvetica,sans-Serif" font-size="10.00">amxc/amxc_variant.h</text>
</a>
</g>
</g>
<!-- Node2&#45;&gt;Node3 -->
<g id="edge2" class="edge">
<title>Node2&#45;&gt;Node3</title>
<path fill="none" stroke="midnightblue" d="M166.19,-56.44C145.71,-47.6 113.52,-33.69 90.14,-23.59"/>
<polygon fill="midnightblue" stroke="midnightblue" points="91.28,-20.27 80.71,-19.52 88.51,-26.7 91.28,-20.27"/>
</g>
<!-- Node4 -->
<g id="node4" class="node">
<title>Node4</title>
<g id="a_node4"><a xlink:title=" ">
<polygon fill="white" stroke="#bfbfbf" points="140,-0.5 140,-19.5 232,-19.5 232,-0.5 140,-0.5"/>
<text text-anchor="middle" x="186" y="-7.5" font-family="Helvetica,sans-Serif" font-size="10.00">amxm/amxm.h</text>
</a>
</g>
</g>
<!-- Node2&#45;&gt;Node4 -->
<g id="edge3" class="edge">
<title>Node2&#45;&gt;Node4</title>
<path fill="none" stroke="midnightblue" d="M186,-56.08C186,-49.01 186,-38.86 186,-29.99"/>
<polygon fill="midnightblue" stroke="midnightblue" points="189.5,-29.75 186,-19.75 182.5,-29.75 189.5,-29.75"/>
</g>
<!-- Node5 -->
<g id="node5" class="node">
<title>Node5</title>
<g id="a_node5"><a xlink:title=" ">
<polygon fill="white" stroke="#bfbfbf" points="250.5,-0.5 250.5,-19.5 371.5,-19.5 371.5,-0.5 250.5,-0.5"/>
<text text-anchor="middle" x="311" y="-7.5" font-family="Helvetica,sans-Serif" font-size="10.00">swl/swl_returnCode.h</text>
</a>
</g>
</g>
<!-- Node2&#45;&gt;Node5 -->
<g id="edge4" class="edge">
<title>Node2&#45;&gt;Node5</title>
<path fill="none" stroke="midnightblue" d="M205.81,-56.44C226.29,-47.6 258.48,-33.69 281.86,-23.59"/>
<polygon fill="midnightblue" stroke="midnightblue" points="283.49,-26.7 291.29,-19.52 280.72,-20.27 283.49,-26.7"/>
</g>
</g>
</svg>
