<?xml version="1.0" encoding="UTF-8" standalone="no"?>
<!DOCTYPE svg PUBLIC "-//W3C//DTD SVG 1.1//EN"
 "http://www.w3.org/Graphics/SVG/1.1/DTD/svg11.dtd">
<!-- Generated by graphviz version 2.43.0 (0)
 -->
<!-- Title: include/wld/wld_channel.h Pages: 1 -->
<svg width="6206pt" height="229pt"
 viewBox="0.00 0.00 6206.00 229.00" xmlns="http://www.w3.org/2000/svg" xmlns:xlink="http://www.w3.org/1999/xlink">
<g id="graph0" class="graph" transform="scale(1 1) rotate(0) translate(4 225)">
<title>include/wld/wld_channel.h</title>
<polygon fill="white" stroke="transparent" points="-4,4 -4,-225 6202,-225 6202,4 -4,4"/>
<!-- Node1 -->
<g id="node1" class="node">
<title>Node1</title>
<g id="a_node1"><a xlink:title=" ">
<polygon fill="#bfbfbf" stroke="black" points="3154.5,-201.5 3154.5,-220.5 3299.5,-220.5 3299.5,-201.5 3154.5,-201.5"/>
<text text-anchor="middle" x="3227" y="-208.5" font-family="Helvetica,sans-Serif" font-size="10.00">include/wld/wld_channel.h</text>
</a>
</g>
</g>
<!-- Node2 -->
<g id="node2" class="node">
<title>Node2</title>
<g id="a_node2"><a xlink:href="wld__channel__lib_8h.html" target="_top" xlink:title=" ">
<polygon fill="white" stroke="black" points="259,-134.5 259,-164.5 395,-164.5 395,-134.5 259,-134.5"/>
<text text-anchor="start" x="267" y="-152.5" font-family="Helvetica,sans-Serif" font-size="10.00">include/wld/wld_channel</text>
<text text-anchor="middle" x="327" y="-141.5" font-family="Helvetica,sans-Serif" font-size="10.00">_lib.h</text>
</a>
</g>
</g>
<!-- Node1&#45;&gt;Node2 -->
<g id="edge1" class="edge">
<title>Node1&#45;&gt;Node2</title>
<path fill="none" stroke="midnightblue" d="M3144.24,-209.28C2825.17,-206.33 1644.23,-193.99 672,-165 575.83,-162.13 464.64,-157.16 395.06,-153.85"/>
<polygon fill="midnightblue" stroke="midnightblue" points="3144.3,-212.78 3154.33,-209.37 3144.36,-205.78 3144.3,-212.78"/>
</g>
<!-- Node3 -->
<g id="node3" class="node">
<title>Node3</title>
<g id="a_node3"><a xlink:href="wld__chanmgt_8c.html" target="_top" xlink:title=" ">
<polygon fill="white" stroke="black" points="0,-67.5 0,-97.5 138,-97.5 138,-67.5 0,-67.5"/>
<text text-anchor="start" x="8" y="-85.5" font-family="Helvetica,sans-Serif" font-size="10.00">src/ChannelManagement</text>
<text text-anchor="middle" x="69" y="-74.5" font-family="Helvetica,sans-Serif" font-size="10.00">/wld_chanmgt.c</text>
</a>
</g>
</g>
<!-- Node1&#45;&gt;Node3 -->
<g id="edge53" class="edge">
<title>Node1&#45;&gt;Node3</title>
<path fill="none" stroke="midnightblue" d="M3144.42,-209.7C2678.58,-207.87 394.93,-197.27 250,-165 189.79,-151.59 125.29,-117.09 91.93,-97.55"/>
<polygon fill="midnightblue" stroke="midnightblue" points="3144.42,-213.2 3154.43,-209.74 3144.44,-206.2 3144.42,-213.2"/>
</g>
<!-- Node4 -->
<g id="node4" class="node">
<title>Node4</title>
<g id="a_node4"><a xlink:href="wld__channel_8c.html" target="_top" xlink:title=" ">
<polygon fill="white" stroke="black" points="156,-67.5 156,-97.5 294,-97.5 294,-67.5 156,-67.5"/>
<text text-anchor="start" x="164" y="-85.5" font-family="Helvetica,sans-Serif" font-size="10.00">src/ChannelManagement</text>
<text text-anchor="middle" x="225" y="-74.5" font-family="Helvetica,sans-Serif" font-size="10.00">/wld_channel.c</text>
</a>
</g>
</g>
<!-- Node1&#45;&gt;Node4 -->
<g id="edge54" class="edge">
<title>Node1&#45;&gt;Node4</title>
<path fill="none" stroke="midnightblue" d="M3144.09,-209.22C2791.1,-205.76 1411.8,-190.83 978,-165 677.06,-147.08 601.47,-140.48 303,-98 300.14,-97.59 297.22,-97.15 294.27,-96.69"/>
<polygon fill="midnightblue" stroke="midnightblue" points="3144.19,-212.72 3154.23,-209.32 3144.26,-205.72 3144.19,-212.72"/>
</g>
<!-- Node5 -->
<g id="node5" class="node">
<title>Node5</title>
<g id="a_node5"><a xlink:href="wld__channel__info_8c.html" target="_top" xlink:title=" ">
<polygon fill="white" stroke="black" points="312,-67.5 312,-97.5 450,-97.5 450,-67.5 312,-67.5"/>
<text text-anchor="start" x="320" y="-85.5" font-family="Helvetica,sans-Serif" font-size="10.00">src/ChannelManagement</text>
<text text-anchor="middle" x="381" y="-74.5" font-family="Helvetica,sans-Serif" font-size="10.00">/wld_channel_info.c</text>
</a>
</g>
</g>
<!-- Node1&#45;&gt;Node5 -->
<g id="edge55" class="edge">
<title>Node1&#45;&gt;Node5</title>
<path fill="none" stroke="midnightblue" d="M3144.39,-208.32C2743.6,-199.89 999.02,-160.26 459,-98 456.13,-97.67 453.2,-97.29 450.25,-96.89"/>
<polygon fill="midnightblue" stroke="midnightblue" points="3144.38,-211.82 3154.45,-208.53 3144.53,-204.82 3144.38,-211.82"/>
</g>
<!-- Node6 -->
<g id="node6" class="node">
<title>Node6</title>
<g id="a_node6"><a xlink:href="wld__radio_8h.html" target="_top" xlink:title=" ">
<polygon fill="white" stroke="red" points="3048.5,-140 3048.5,-159 3179.5,-159 3179.5,-140 3048.5,-140"/>
<text text-anchor="middle" x="3114" y="-147" font-family="Helvetica,sans-Serif" font-size="10.00">include/wld/wld_radio.h</text>
</a>
</g>
</g>
<!-- Node1&#45;&gt;Node6 -->
<g id="edge5" class="edge">
<title>Node1&#45;&gt;Node6</title>
<path fill="none" stroke="midnightblue" d="M3201.76,-196.71C3179.88,-185.19 3148.86,-168.86 3130.16,-159.01"/>
<polygon fill="midnightblue" stroke="midnightblue" points="3200.33,-199.91 3210.81,-201.48 3203.59,-193.72 3200.33,-199.91"/>
</g>
<!-- Node24 -->
<g id="node19" class="node">
<title>Node24</title>
<g id="a_node19"><a xlink:href="wld__bgdfs_8c.html" target="_top" xlink:title=" ">
<polygon fill="white" stroke="black" points="468,-67.5 468,-97.5 606,-97.5 606,-67.5 468,-67.5"/>
<text text-anchor="start" x="476" y="-85.5" font-family="Helvetica,sans-Serif" font-size="10.00">src/ChannelManagement</text>
<text text-anchor="middle" x="537" y="-74.5" font-family="Helvetica,sans-Serif" font-size="10.00">/wld_bgdfs.c</text>
</a>
</g>
</g>
<!-- Node1&#45;&gt;Node24 -->
<g id="edge52" class="edge">
<title>Node1&#45;&gt;Node24</title>
<path fill="none" stroke="midnightblue" d="M3144.02,-204.28C2937.56,-190.25 2384.11,-153.82 1922,-134 1341.42,-109.1 1192.87,-159.29 615,-98 612.12,-97.69 609.19,-97.34 606.24,-96.95"/>
<polygon fill="midnightblue" stroke="midnightblue" points="3143.96,-207.79 3154.17,-204.97 3144.44,-200.8 3143.96,-207.79"/>
</g>
<!-- Node30 -->
<g id="node25" class="node">
<title>Node30</title>
<g id="a_node25"><a xlink:href="wifiGen__rad_8c.html" target="_top" xlink:title=" ">
<polygon fill="white" stroke="black" points="624,-67.5 624,-97.5 728,-97.5 728,-67.5 624,-67.5"/>
<text text-anchor="start" x="632" y="-85.5" font-family="Helvetica,sans-Serif" font-size="10.00">src/Plugin/wifiGen</text>
<text text-anchor="middle" x="676" y="-74.5" font-family="Helvetica,sans-Serif" font-size="10.00">_rad.c</text>
</a>
</g>
</g>
<!-- Node1&#45;&gt;Node30 -->
<g id="edge56" class="edge">
<title>Node1&#45;&gt;Node30</title>
<path fill="none" stroke="midnightblue" d="M3157.61,-200.04C3035.48,-183.01 2774.04,-148.67 2552,-134 2149.47,-107.4 1137.18,-148.94 737,-98 734.08,-97.63 731.11,-97.17 728.11,-96.66"/>
<polygon fill="midnightblue" stroke="midnightblue" points="3157.18,-203.52 3167.57,-201.44 3158.15,-196.59 3157.18,-203.52"/>
</g>
<!-- Node34 -->
<g id="node29" class="node">
<title>Node34</title>
<g id="a_node29"><a xlink:href="wld__rad__caps_8c.html" target="_top" xlink:title=" ">
<polygon fill="white" stroke="black" points="5428.5,-67.5 5428.5,-97.5 5541.5,-97.5 5541.5,-67.5 5428.5,-67.5"/>
<text text-anchor="start" x="5436.5" y="-85.5" font-family="Helvetica,sans-Serif" font-size="10.00">src/RadMgt/wld_rad</text>
<text text-anchor="middle" x="5485" y="-74.5" font-family="Helvetica,sans-Serif" font-size="10.00">_caps.c</text>
</a>
</g>
</g>
<!-- Node1&#45;&gt;Node34 -->
<g id="edge57" class="edge">
<title>Node1&#45;&gt;Node34</title>
<path fill="none" stroke="midnightblue" d="M3221.95,-191.28C3218.5,-173.82 3216.92,-148.36 3232,-134 3276.03,-92.09 5359.64,-105.15 5420,-98 5422.76,-97.67 5425.57,-97.28 5428.4,-96.84"/>
<polygon fill="midnightblue" stroke="midnightblue" points="3218.64,-192.47 3224.33,-201.41 3225.45,-190.87 3218.64,-192.47"/>
</g>
<!-- Node36 -->
<g id="node31" class="node">
<title>Node36</title>
<g id="a_node31"><a xlink:href="wld__rad__ifMgt_8c.html" target="_top" xlink:title=" ">
<polygon fill="white" stroke="black" points="5559.5,-67.5 5559.5,-97.5 5672.5,-97.5 5672.5,-67.5 5559.5,-67.5"/>
<text text-anchor="start" x="5567.5" y="-85.5" font-family="Helvetica,sans-Serif" font-size="10.00">src/RadMgt/wld_rad</text>
<text text-anchor="middle" x="5616" y="-74.5" font-family="Helvetica,sans-Serif" font-size="10.00">_ifMgt.c</text>
</a>
</g>
</g>
<!-- Node1&#45;&gt;Node36 -->
<g id="edge58" class="edge">
<title>Node1&#45;&gt;Node36</title>
<path fill="none" stroke="midnightblue" d="M3231.66,-191.66C3237.36,-173.45 3248.96,-146.49 3270,-134 3324.49,-101.65 5488.07,-105.44 5551,-98 5553.76,-97.67 5556.57,-97.28 5559.4,-96.84"/>
<polygon fill="midnightblue" stroke="midnightblue" points="3228.25,-190.85 3228.9,-201.43 3234.98,-192.76 3228.25,-190.85"/>
</g>
<!-- Node49 -->
<g id="node44" class="node">
<title>Node49</title>
<g id="a_node44"><a xlink:href="wld__rad__hostapd__api_8c.html" target="_top" xlink:title=" ">
<polygon fill="white" stroke="black" points="5691,-67.5 5691,-97.5 5805,-97.5 5805,-67.5 5691,-67.5"/>
<text text-anchor="start" x="5699" y="-85.5" font-family="Helvetica,sans-Serif" font-size="10.00">src/nl80211/wld_rad</text>
<text text-anchor="middle" x="5748" y="-74.5" font-family="Helvetica,sans-Serif" font-size="10.00">_hostapd_api.c</text>
</a>
</g>
</g>
<!-- Node1&#45;&gt;Node49 -->
<g id="edge60" class="edge">
<title>Node1&#45;&gt;Node49</title>
<path fill="none" stroke="midnightblue" d="M3242.68,-194.11C3263.9,-172.8 3300.03,-137.22 3308,-134 3430.28,-84.54 5550.98,-113.23 5682,-98 5684.91,-97.66 5687.89,-97.25 5690.88,-96.79"/>
<polygon fill="midnightblue" stroke="midnightblue" points="3239.92,-191.92 3235.37,-201.49 3244.89,-196.85 3239.92,-191.92"/>
</g>
<!-- Node58 -->
<g id="node45" class="node">
<title>Node58</title>
<g id="a_node45"><a xlink:href="wld__radio_8c.html" target="_top" xlink:title=" ">
<polygon fill="white" stroke="black" points="5823.5,-73 5823.5,-92 5912.5,-92 5912.5,-73 5823.5,-73"/>
<text text-anchor="middle" x="5868" y="-80" font-family="Helvetica,sans-Serif" font-size="10.00">src/wld_radio.c</text>
</a>
</g>
</g>
<!-- Node1&#45;&gt;Node58 -->
<g id="edge62" class="edge">
<title>Node1&#45;&gt;Node58</title>
<path fill="none" stroke="midnightblue" d="M3252.18,-196.52C3267.7,-187.95 3287.84,-176.37 3305,-165 3324.04,-152.38 3324.4,-141.42 3346,-134 3475.68,-89.44 5678.19,-116.93 5814,-98 5823.04,-96.74 5832.72,-94.45 5841.35,-92.06"/>
<polygon fill="midnightblue" stroke="midnightblue" points="3250.28,-193.56 3243.18,-201.43 3253.64,-199.71 3250.28,-193.56"/>
</g>
<!-- Node77 -->
<g id="node46" class="node">
<title>Node77</title>
<g id="a_node46"><a xlink:href="test__wld__rad__chanMgt_8c.html" target="_top" xlink:title=" ">
<polygon fill="white" stroke="black" points="5930.5,-67.5 5930.5,-97.5 6055.5,-97.5 6055.5,-67.5 5930.5,-67.5"/>
<text text-anchor="start" x="5938.5" y="-85.5" font-family="Helvetica,sans-Serif" font-size="10.00">test/wld_chanMgt/test</text>
<text text-anchor="middle" x="5993" y="-74.5" font-family="Helvetica,sans-Serif" font-size="10.00">_wld_rad_chanMgt.c</text>
</a>
</g>
</g>
<!-- Node1&#45;&gt;Node77 -->
<g id="edge63" class="edge">
<title>Node1&#45;&gt;Node77</title>
<path fill="none" stroke="midnightblue" d="M3262.95,-198.13C3285.65,-190.05 3315.25,-178.4 3340,-165 3361.03,-153.61 3361.25,-141.39 3384,-134 3518.12,-90.45 5781.8,-113.17 5922,-98 5924.75,-97.7 5927.55,-97.35 5930.38,-96.95"/>
<polygon fill="midnightblue" stroke="midnightblue" points="3261.65,-194.88 3253.36,-201.48 3263.96,-201.49 3261.65,-194.88"/>
</g>
<!-- Node78 -->
<g id="node47" class="node">
<title>Node78</title>
<g id="a_node47"><a xlink:href="test__wld__fsm_8c.html" target="_top" xlink:title=" ">
<polygon fill="white" stroke="black" points="6074,-67.5 6074,-97.5 6198,-97.5 6198,-67.5 6074,-67.5"/>
<text text-anchor="start" x="6082" y="-85.5" font-family="Helvetica,sans-Serif" font-size="10.00">test/wld_fsm/test_wld</text>
<text text-anchor="middle" x="6136" y="-74.5" font-family="Helvetica,sans-Serif" font-size="10.00">_fsm.c</text>
</a>
</g>
</g>
<!-- Node1&#45;&gt;Node78 -->
<g id="edge65" class="edge">
<title>Node1&#45;&gt;Node78</title>
<path fill="none" stroke="midnightblue" d="M3278.67,-199.03C3308.14,-191.65 3345.21,-180.43 3376,-165 3396.74,-154.61 3396.01,-141.4 3418,-134 3557.38,-87.08 5918.78,-113.78 6065,-98 6067.88,-97.69 6070.81,-97.32 6073.77,-96.9"/>
<polygon fill="midnightblue" stroke="midnightblue" points="3277.48,-195.72 3268.59,-201.48 3279.14,-202.52 3277.48,-195.72"/>
</g>
<!-- Node81 -->
<g id="node48" class="node">
<title>Node81</title>
<g id="a_node48"><a xlink:href="wld__nl80211__debug_8c.html" target="_top" xlink:title=" ">
<polygon fill="white" stroke="black" points="3426.5,-134.5 3426.5,-164.5 3563.5,-164.5 3563.5,-134.5 3426.5,-134.5"/>
<text text-anchor="start" x="3434.5" y="-152.5" font-family="Helvetica,sans-Serif" font-size="10.00">src/nl80211/wld_nl80211</text>
<text text-anchor="middle" x="3495" y="-141.5" font-family="Helvetica,sans-Serif" font-size="10.00">_debug.c</text>
</a>
</g>
</g>
<!-- Node1&#45;&gt;Node81 -->
<g id="edge59" class="edge">
<title>Node1&#45;&gt;Node81</title>
<path fill="none" stroke="midnightblue" d="M3275.23,-199.29C3319.03,-189.57 3383.92,-175.16 3431.84,-164.52"/>
<polygon fill="midnightblue" stroke="midnightblue" points="3274.4,-195.89 3265.4,-201.48 3275.92,-202.72 3274.4,-195.89"/>
</g>
<!-- Node82 -->
<g id="node49" class="node">
<title>Node82</title>
<g id="a_node49"><a xlink:href="wld__wpaCtrl__events_8c.html" target="_top" xlink:title=" ">
<polygon fill="white" stroke="black" points="3582,-134.5 3582,-164.5 3718,-164.5 3718,-134.5 3582,-134.5"/>
<text text-anchor="start" x="3590" y="-152.5" font-family="Helvetica,sans-Serif" font-size="10.00">src/nl80211/wld_wpaCtrl</text>
<text text-anchor="middle" x="3650" y="-141.5" font-family="Helvetica,sans-Serif" font-size="10.00">_events.c</text>
</a>
</g>
</g>
<!-- Node1&#45;&gt;Node82 -->
<g id="edge61" class="edge">
<title>Node1&#45;&gt;Node82</title>
<path fill="none" stroke="midnightblue" d="M3309.85,-200.56C3380.07,-192.25 3483.34,-179.26 3573,-165 3575.82,-164.55 3578.7,-164.08 3581.6,-163.59"/>
<polygon fill="midnightblue" stroke="midnightblue" points="3309.26,-197.11 3299.74,-201.76 3310.08,-204.06 3309.26,-197.11"/>
</g>
<!-- Node83 -->
<g id="node50" class="node">
<title>Node83</title>
<g id="a_node50"><a xlink:href="test__wld__channel__info_8c.html" target="_top" xlink:title=" ">
<polygon fill="white" stroke="black" points="3736.5,-134.5 3736.5,-164.5 3857.5,-164.5 3857.5,-134.5 3736.5,-134.5"/>
<text text-anchor="start" x="3744.5" y="-152.5" font-family="Helvetica,sans-Serif" font-size="10.00">test/wld_channel/test</text>
<text text-anchor="middle" x="3797" y="-141.5" font-family="Helvetica,sans-Serif" font-size="10.00">_wld_channel_info.c</text>
</a>
</g>
</g>
<!-- Node1&#45;&gt;Node83 -->
<g id="edge64" class="edge">
<title>Node1&#45;&gt;Node83</title>
<path fill="none" stroke="midnightblue" d="M3309.75,-205.46C3409.19,-199.34 3580.92,-186.63 3727,-165 3730.07,-164.55 3733.21,-164.04 3736.37,-163.5"/>
<polygon fill="midnightblue" stroke="midnightblue" points="3309.53,-201.97 3299.76,-206.07 3309.95,-208.96 3309.53,-201.97"/>
</g>
<!-- Node2&#45;&gt;Node3 -->
<g id="edge2" class="edge">
<title>Node2&#45;&gt;Node3</title>
<path fill="none" stroke="midnightblue" d="M261.45,-131.98C219.3,-121.37 165.14,-107.72 125.01,-97.61"/>
<polygon fill="midnightblue" stroke="midnightblue" points="260.78,-135.43 271.34,-134.48 262.49,-128.64 260.78,-135.43"/>
</g>
<!-- Node2&#45;&gt;Node4 -->
<g id="edge3" class="edge">
<title>Node2&#45;&gt;Node4</title>
<path fill="none" stroke="midnightblue" d="M296.42,-129.02C280.55,-118.9 261.52,-106.77 247.09,-97.58"/>
<polygon fill="midnightblue" stroke="midnightblue" points="294.55,-131.97 304.87,-134.4 298.32,-126.07 294.55,-131.97"/>
</g>
<!-- Node2&#45;&gt;Node5 -->
<g id="edge4" class="edge">
<title>Node2&#45;&gt;Node5</title>
<path fill="none" stroke="midnightblue" d="M345.32,-126.45C353.25,-116.9 362.3,-106 369.31,-97.58"/>
<polygon fill="midnightblue" stroke="midnightblue" points="342.42,-124.47 338.72,-134.4 347.8,-128.94 342.42,-124.47"/>
</g>
<!-- Node6&#45;&gt;Node3 -->
<g id="edge19" class="edge">
<title>Node6&#45;&gt;Node3</title>
<path fill="none" stroke="midnightblue" d="M3038.27,-147.97C2604.26,-144.81 441.9,-127.71 147,-98 144.12,-97.71 141.19,-97.37 138.24,-96.99"/>
<polygon fill="midnightblue" stroke="midnightblue" points="3038.47,-151.47 3048.5,-148.04 3038.52,-144.47 3038.47,-151.47"/>
</g>
<!-- Node6&#45;&gt;Node4 -->
<g id="edge20" class="edge">
<title>Node6&#45;&gt;Node4</title>
<path fill="none" stroke="midnightblue" d="M3038.33,-148.84C2647.63,-150.33 855.65,-153.94 303,-98 300.12,-97.71 297.19,-97.37 294.24,-96.99"/>
<polygon fill="midnightblue" stroke="midnightblue" points="3038.4,-152.34 3048.39,-148.8 3038.38,-145.34 3038.4,-152.34"/>
</g>
<!-- Node6&#45;&gt;Node5 -->
<g id="edge21" class="edge">
<title>Node6&#45;&gt;Node5</title>
<path fill="none" stroke="midnightblue" d="M3038.18,-147.41C2618.12,-141.33 590.51,-111.38 459,-98 456.12,-97.71 453.19,-97.36 450.24,-96.98"/>
<polygon fill="midnightblue" stroke="midnightblue" points="3038.34,-150.91 3048.39,-147.56 3038.44,-143.91 3038.34,-150.91"/>
</g>
<!-- Node7 -->
<g id="node7" class="node">
<title>Node7</title>
<g id="a_node7"><a xlink:href="wld__common_8h.html" target="_top" xlink:title=" ">
<polygon fill="white" stroke="red" points="746.5,-73 746.5,-92 895.5,-92 895.5,-73 746.5,-73"/>
<text text-anchor="middle" x="821" y="-80" font-family="Helvetica,sans-Serif" font-size="10.00">include/wld/wld_common.h</text>
</a>
</g>
</g>
<!-- Node6&#45;&gt;Node7 -->
<g id="edge6" class="edge">
<title>Node6&#45;&gt;Node7</title>
<path fill="none" stroke="midnightblue" d="M3038.07,-142.81C2993.75,-139.7 2936.74,-136.07 2886,-134 2446.96,-116.05 1346.6,-137.82 909,-98 894.66,-96.69 879.12,-94.42 865.16,-92.06"/>
<polygon fill="midnightblue" stroke="midnightblue" points="3037.97,-146.31 3048.19,-143.52 3038.46,-139.33 3037.97,-146.31"/>
</g>
<!-- Node12 -->
<g id="node8" class="node">
<title>Node12</title>
<g id="a_node8"><a xlink:href="wld__zwdfs_8h.html" target="_top" xlink:title=" ">
<polygon fill="white" stroke="red" points="951.5,-73 951.5,-92 1086.5,-92 1086.5,-73 951.5,-73"/>
<text text-anchor="middle" x="1019" y="-80" font-family="Helvetica,sans-Serif" font-size="10.00">include/wld/wld_zwdfs.h</text>
</a>
</g>
</g>
<!-- Node6&#45;&gt;Node12 -->
<g id="edge7" class="edge">
<title>Node6&#45;&gt;Node12</title>
<path fill="none" stroke="midnightblue" d="M3038.07,-142.84C2993.75,-139.75 2936.74,-136.12 2886,-134 2489.6,-117.41 1495.86,-136.66 1101,-98 1087.62,-96.69 1073.14,-94.42 1060.12,-92.06"/>
<polygon fill="midnightblue" stroke="midnightblue" points="3037.97,-146.35 3048.19,-143.56 3038.46,-139.36 3037.97,-146.35"/>
</g>
<!-- Node13 -->
<g id="node9" class="node">
<title>Node13</title>
<g id="a_node9"><a xlink:href="wld__zwdfs_8c.html" target="_top" xlink:title=" ">
<polygon fill="white" stroke="black" points="914,-0.5 914,-30.5 1052,-30.5 1052,-0.5 914,-0.5"/>
<text text-anchor="start" x="922" y="-18.5" font-family="Helvetica,sans-Serif" font-size="10.00">src/ChannelManagement</text>
<text text-anchor="middle" x="983" y="-7.5" font-family="Helvetica,sans-Serif" font-size="10.00">/wld_zwdfs.c</text>
</a>
</g>
</g>
<!-- Node6&#45;&gt;Node13 -->
<g id="edge22" class="edge">
<title>Node6&#45;&gt;Node13</title>
<path fill="none" stroke="midnightblue" d="M3038.07,-142.81C2993.75,-139.71 2936.74,-136.08 2886,-134 2832.04,-131.79 979.84,-136.54 942,-98 922.92,-78.56 947.98,-48.45 966.49,-30.79"/>
<polygon fill="midnightblue" stroke="midnightblue" points="3037.97,-146.31 3048.19,-143.53 3038.46,-139.33 3037.97,-146.31"/>
</g>
<!-- Node15 -->
<g id="node10" class="node">
<title>Node15</title>
<g id="a_node10"><a xlink:href="wifiGen__zwdfs_8h.html" target="_top" xlink:title=" ">
<polygon fill="white" stroke="red" points="1143.5,-67.5 1143.5,-97.5 1252.5,-97.5 1252.5,-67.5 1143.5,-67.5"/>
<text text-anchor="start" x="1151.5" y="-85.5" font-family="Helvetica,sans-Serif" font-size="10.00">include_priv/Plugin</text>
<text text-anchor="middle" x="1198" y="-74.5" font-family="Helvetica,sans-Serif" font-size="10.00">/wifiGen_zwdfs.h</text>
</a>
</g>
</g>
<!-- Node6&#45;&gt;Node15 -->
<g id="edge9" class="edge">
<title>Node6&#45;&gt;Node15</title>
<path fill="none" stroke="midnightblue" d="M3038.07,-142.88C2993.75,-139.8 2936.73,-136.17 2886,-134 2525.35,-118.54 1620.27,-142.1 1262,-98 1258.95,-97.62 1255.83,-97.17 1252.69,-96.65"/>
<polygon fill="midnightblue" stroke="midnightblue" points="3037.97,-146.38 3048.19,-143.59 3038.46,-139.4 3037.97,-146.38"/>
</g>
<!-- Node16 -->
<g id="node11" class="node">
<title>Node16</title>
<g id="a_node11"><a xlink:href="wifiGen_8c.html" target="_top" xlink:title=" ">
<polygon fill="white" stroke="black" points="1094,-6 1094,-25 1206,-25 1206,-6 1094,-6"/>
<text text-anchor="middle" x="1150" y="-13" font-family="Helvetica,sans-Serif" font-size="10.00">src/Plugin/wifiGen.c</text>
</a>
</g>
</g>
<!-- Node6&#45;&gt;Node16 -->
<g id="edge24" class="edge">
<title>Node6&#45;&gt;Node16</title>
<path fill="none" stroke="midnightblue" d="M3038.07,-142.85C2993.75,-139.76 2936.74,-136.13 2886,-134 2837.37,-131.95 1168.06,-132.77 1134,-98 1114.42,-78.02 1133.71,-41.52 1144.19,-25.01"/>
<polygon fill="midnightblue" stroke="midnightblue" points="3037.97,-146.35 3048.19,-143.56 3038.46,-139.37 3037.97,-146.35"/>
</g>
<!-- Node17 -->
<g id="node12" class="node">
<title>Node17</title>
<g id="a_node12"><a xlink:href="wld__apMgmt_8c.html" target="_top" xlink:title=" ">
<polygon fill="white" stroke="black" points="1271,-73 1271,-92 1411,-92 1411,-73 1271,-73"/>
<text text-anchor="middle" x="1341" y="-80" font-family="Helvetica,sans-Serif" font-size="10.00">src/ApMgt/wld_apMgmt.c</text>
</a>
</g>
</g>
<!-- Node6&#45;&gt;Node17 -->
<g id="edge11" class="edge">
<title>Node6&#45;&gt;Node17</title>
<path fill="none" stroke="midnightblue" d="M3038.07,-142.93C2993.74,-139.86 2936.73,-136.24 2886,-134 2234.88,-105.31 2068.3,-165.04 1420,-98 1407.1,-96.67 1393.15,-94.39 1380.61,-92.03"/>
<polygon fill="midnightblue" stroke="midnightblue" points="3037.97,-146.43 3048.19,-143.63 3038.45,-139.45 3037.97,-146.43"/>
</g>
<!-- Node18 -->
<g id="node13" class="node">
<title>Node18</title>
<g id="a_node13"><a xlink:href="wld__ap__bss__transfer_8c.html" target="_top" xlink:title=" ">
<polygon fill="white" stroke="black" points="1429.5,-67.5 1429.5,-97.5 1554.5,-97.5 1554.5,-67.5 1429.5,-67.5"/>
<text text-anchor="start" x="1437.5" y="-85.5" font-family="Helvetica,sans-Serif" font-size="10.00">src/ApMgt/wld_ap_bss</text>
<text text-anchor="middle" x="1492" y="-74.5" font-family="Helvetica,sans-Serif" font-size="10.00">_transfer.c</text>
</a>
</g>
</g>
<!-- Node6&#45;&gt;Node18 -->
<g id="edge12" class="edge">
<title>Node6&#45;&gt;Node18</title>
<path fill="none" stroke="midnightblue" d="M3038.07,-142.98C2993.74,-139.93 2936.73,-136.3 2886,-134 2298.39,-107.33 2147.38,-165.1 1563,-98 1560.25,-97.68 1557.45,-97.32 1554.62,-96.91"/>
<polygon fill="midnightblue" stroke="midnightblue" points="3037.97,-146.48 3048.18,-143.68 3038.45,-139.5 3037.97,-146.48"/>
</g>
<!-- Node19 -->
<g id="node14" class="node">
<title>Node19</title>
<g id="a_node14"><a xlink:href="wld__ap__macfilter_8c.html" target="_top" xlink:title=" ">
<polygon fill="white" stroke="black" points="1572.5,-73 1572.5,-92 1731.5,-92 1731.5,-73 1572.5,-73"/>
<text text-anchor="middle" x="1652" y="-80" font-family="Helvetica,sans-Serif" font-size="10.00">src/ApMgt/wld_ap_macfilter.c</text>
</a>
</g>
</g>
<!-- Node6&#45;&gt;Node19 -->
<g id="edge13" class="edge">
<title>Node6&#45;&gt;Node19</title>
<path fill="none" stroke="midnightblue" d="M3038.06,-143.06C2993.74,-140.04 2936.72,-136.41 2886,-134 2377.43,-109.84 2247.77,-147.04 1741,-98 1726.66,-96.61 1711.14,-94.35 1697.13,-92.02"/>
<polygon fill="midnightblue" stroke="midnightblue" points="3037.96,-146.56 3048.18,-143.75 3038.44,-139.58 3037.96,-146.56"/>
</g>
<!-- Node20 -->
<g id="node15" class="node">
<title>Node20</title>
<g id="a_node15"><a xlink:href="wld__ap__neighbours_8c.html" target="_top" xlink:title=" ">
<polygon fill="white" stroke="black" points="1750,-73 1750,-92 1920,-92 1920,-73 1750,-73"/>
<text text-anchor="middle" x="1835" y="-80" font-family="Helvetica,sans-Serif" font-size="10.00">src/ApMgt/wld_ap_neighbours.c</text>
</a>
</g>
</g>
<!-- Node6&#45;&gt;Node20 -->
<g id="edge14" class="edge">
<title>Node6&#45;&gt;Node20</title>
<path fill="none" stroke="midnightblue" d="M3038.06,-143.18C2993.73,-140.19 2936.71,-136.57 2886,-134 2460.91,-112.49 2352.7,-138.51 1929,-98 1914.04,-96.57 1897.84,-94.32 1883.17,-92.02"/>
<polygon fill="midnightblue" stroke="midnightblue" points="3037.96,-146.68 3048.18,-143.86 3038.43,-139.69 3037.96,-146.68"/>
</g>
<!-- Node21 -->
<g id="node16" class="node">
<title>Node21</title>
<g id="a_node16"><a xlink:href="wld__ap__rrm_8c.html" target="_top" xlink:title=" ">
<polygon fill="white" stroke="black" points="1938,-73 1938,-92 2072,-92 2072,-73 1938,-73"/>
<text text-anchor="middle" x="2005" y="-80" font-family="Helvetica,sans-Serif" font-size="10.00">src/ApMgt/wld_ap_rrm.c</text>
</a>
</g>
</g>
<!-- Node6&#45;&gt;Node21 -->
<g id="edge15" class="edge">
<title>Node6&#45;&gt;Node21</title>
<path fill="none" stroke="midnightblue" d="M3038.05,-143.31C2993.72,-140.37 2936.71,-136.75 2886,-134 2528.39,-114.63 2436.7,-139.67 2081,-98 2068.86,-96.58 2055.75,-94.33 2043.89,-92.03"/>
<polygon fill="midnightblue" stroke="midnightblue" points="3037.96,-146.81 3048.17,-143.98 3038.42,-139.83 3037.96,-146.81"/>
</g>
<!-- Node22 -->
<g id="node17" class="node">
<title>Node22</title>
<g id="a_node17"><a xlink:href="wld__ap__rssiMonitor_8c.html" target="_top" xlink:title=" ">
<polygon fill="white" stroke="black" points="2090,-73 2090,-92 2260,-92 2260,-73 2090,-73"/>
<text text-anchor="middle" x="2175" y="-80" font-family="Helvetica,sans-Serif" font-size="10.00">src/ApMgt/wld_ap_rssiMonitor.c</text>
</a>
</g>
</g>
<!-- Node6&#45;&gt;Node22 -->
<g id="edge16" class="edge">
<title>Node6&#45;&gt;Node22</title>
<path fill="none" stroke="midnightblue" d="M3038.03,-143.57C2993.7,-140.72 2936.69,-137.09 2886,-134 2611.82,-117.28 2542.16,-126.97 2269,-98 2254.55,-96.47 2238.93,-94.28 2224.64,-92.06"/>
<polygon fill="midnightblue" stroke="midnightblue" points="3037.95,-147.07 3048.16,-144.22 3038.4,-140.09 3037.95,-147.07"/>
</g>
<!-- Node23 -->
<g id="node18" class="node">
<title>Node23</title>
<g id="a_node18"><a xlink:href="wld__ap__security_8c.html" target="_top" xlink:title=" ">
<polygon fill="white" stroke="black" points="2278,-73 2278,-92 2432,-92 2432,-73 2278,-73"/>
<text text-anchor="middle" x="2355" y="-80" font-family="Helvetica,sans-Serif" font-size="10.00">src/ApMgt/wld_ap_security.c</text>
</a>
</g>
</g>
<!-- Node6&#45;&gt;Node23 -->
<g id="edge17" class="edge">
<title>Node6&#45;&gt;Node23</title>
<path fill="none" stroke="midnightblue" d="M3038.35,-143.71C2887.67,-134.01 2554.77,-111.83 2441,-98 2427.92,-96.41 2413.8,-94.23 2400.86,-92.04"/>
<polygon fill="midnightblue" stroke="midnightblue" points="3038.24,-147.21 3048.45,-144.35 3038.69,-140.22 3038.24,-147.21"/>
</g>
<!-- Node6&#45;&gt;Node24 -->
<g id="edge18" class="edge">
<title>Node6&#45;&gt;Node24</title>
<path fill="none" stroke="midnightblue" d="M3038.1,-146.37C2930.12,-143.37 2725.93,-137.86 2552,-134 2121.59,-124.45 1043.32,-141.49 615,-98 612.12,-97.71 609.19,-97.37 606.24,-96.98"/>
<polygon fill="midnightblue" stroke="midnightblue" points="3038.15,-149.87 3048.25,-146.65 3038.35,-142.87 3038.15,-149.87"/>
</g>
<!-- Node25 -->
<g id="node20" class="node">
<title>Node25</title>
<g id="a_node20"><a xlink:href="wld__epProfile_8c.html" target="_top" xlink:title=" ">
<polygon fill="white" stroke="black" points="2450.5,-73 2450.5,-92 2591.5,-92 2591.5,-73 2450.5,-73"/>
<text text-anchor="middle" x="2521" y="-80" font-family="Helvetica,sans-Serif" font-size="10.00">src/EpMgt/wld_epProfile.c</text>
</a>
</g>
</g>
<!-- Node6&#45;&gt;Node25 -->
<g id="edge23" class="edge">
<title>Node6&#45;&gt;Node25</title>
<path fill="none" stroke="midnightblue" d="M3038.42,-143.06C2938,-135.38 2755.16,-119.82 2600,-98 2588.26,-96.35 2575.61,-94.2 2563.94,-92.06"/>
<polygon fill="midnightblue" stroke="midnightblue" points="3038.24,-146.56 3048.48,-143.83 3038.77,-139.58 3038.24,-146.56"/>
</g>
<!-- Node26 -->
<g id="node21" class="node">
<title>Node26</title>
<g id="a_node21"><a xlink:href="wifiGen__ep_8c.html" target="_top" xlink:title=" ">
<polygon fill="white" stroke="black" points="2609.5,-73 2609.5,-92 2738.5,-92 2738.5,-73 2609.5,-73"/>
<text text-anchor="middle" x="2674" y="-80" font-family="Helvetica,sans-Serif" font-size="10.00">src/Plugin/wifiGen_ep.c</text>
</a>
</g>
</g>
<!-- Node6&#45;&gt;Node26 -->
<g id="edge25" class="edge">
<title>Node6&#45;&gt;Node26</title>
<path fill="none" stroke="midnightblue" d="M3038.2,-139.31C2964.05,-130.02 2848.01,-114.68 2748,-98 2737.41,-96.23 2726.01,-94.11 2715.41,-92.04"/>
<polygon fill="midnightblue" stroke="midnightblue" points="3038.02,-142.81 3048.38,-140.58 3038.89,-135.87 3038.02,-142.81"/>
</g>
<!-- Node27 -->
<g id="node22" class="node">
<title>Node27</title>
<g id="a_node22"><a xlink:href="wifiGen__eventHandlers_8c.html" target="_top" xlink:title=" ">
<polygon fill="white" stroke="black" points="2757,-67.5 2757,-97.5 2861,-97.5 2861,-67.5 2757,-67.5"/>
<text text-anchor="start" x="2765" y="-85.5" font-family="Helvetica,sans-Serif" font-size="10.00">src/Plugin/wifiGen</text>
<text text-anchor="middle" x="2809" y="-74.5" font-family="Helvetica,sans-Serif" font-size="10.00">_eventHandlers.c</text>
</a>
</g>
</g>
<!-- Node6&#45;&gt;Node27 -->
<g id="edge26" class="edge">
<title>Node6&#45;&gt;Node27</title>
<path fill="none" stroke="midnightblue" d="M3060.88,-137.97C3011.39,-128.05 2935.58,-112.58 2870,-98 2867.13,-97.36 2864.19,-96.7 2861.22,-96.02"/>
<polygon fill="midnightblue" stroke="midnightblue" points="3060.23,-141.41 3070.72,-139.94 3061.6,-134.55 3060.23,-141.41"/>
</g>
<!-- Node28 -->
<g id="node23" class="node">
<title>Node28</title>
<g id="a_node23"><a xlink:href="wifiGen__hapd_8c.html" target="_top" xlink:title=" ">
<polygon fill="white" stroke="black" points="2879,-67.5 2879,-97.5 2983,-97.5 2983,-67.5 2879,-67.5"/>
<text text-anchor="start" x="2887" y="-85.5" font-family="Helvetica,sans-Serif" font-size="10.00">src/Plugin/wifiGen</text>
<text text-anchor="middle" x="2931" y="-74.5" font-family="Helvetica,sans-Serif" font-size="10.00">_hapd.c</text>
</a>
</g>
</g>
<!-- Node6&#45;&gt;Node28 -->
<g id="edge27" class="edge">
<title>Node6&#45;&gt;Node28</title>
<path fill="none" stroke="midnightblue" d="M3080.19,-136.49C3049.16,-125.47 3003.19,-109.14 2970.49,-97.53"/>
<polygon fill="midnightblue" stroke="midnightblue" points="3079.1,-139.82 3089.7,-139.87 3081.45,-133.22 3079.1,-139.82"/>
</g>
<!-- Node29 -->
<g id="node24" class="node">
<title>Node29</title>
<g id="a_node24"><a xlink:href="wifiGen__mld_8c.html" target="_top" xlink:title=" ">
<polygon fill="white" stroke="black" points="3001,-67.5 3001,-97.5 3105,-97.5 3105,-67.5 3001,-67.5"/>
<text text-anchor="start" x="3009" y="-85.5" font-family="Helvetica,sans-Serif" font-size="10.00">src/Plugin/wifiGen</text>
<text text-anchor="middle" x="3053" y="-74.5" font-family="Helvetica,sans-Serif" font-size="10.00">_mld.c</text>
</a>
</g>
</g>
<!-- Node6&#45;&gt;Node29 -->
<g id="edge28" class="edge">
<title>Node6&#45;&gt;Node29</title>
<path fill="none" stroke="midnightblue" d="M3098.8,-132.3C3088.79,-121.63 3075.81,-107.8 3066.22,-97.59"/>
<polygon fill="midnightblue" stroke="midnightblue" points="3096.38,-134.84 3105.77,-139.73 3101.48,-130.05 3096.38,-134.84"/>
</g>
<!-- Node6&#45;&gt;Node30 -->
<g id="edge29" class="edge">
<title>Node6&#45;&gt;Node30</title>
<path fill="none" stroke="midnightblue" d="M3038.07,-142.78C2993.75,-139.66 2936.74,-136.04 2886,-134 2408.76,-114.84 1210.89,-157.58 737,-98 734.08,-97.63 731.1,-97.18 728.11,-96.67"/>
<polygon fill="midnightblue" stroke="midnightblue" points="3037.97,-146.28 3048.19,-143.5 3038.46,-139.3 3037.97,-146.28"/>
</g>
<!-- Node31 -->
<g id="node26" class="node">
<title>Node31</title>
<g id="a_node26"><a xlink:href="wifiGen__radIfMgt_8c.html" target="_top" xlink:title=" ">
<polygon fill="white" stroke="black" points="3123,-67.5 3123,-97.5 3227,-97.5 3227,-67.5 3123,-67.5"/>
<text text-anchor="start" x="3131" y="-85.5" font-family="Helvetica,sans-Serif" font-size="10.00">src/Plugin/wifiGen</text>
<text text-anchor="middle" x="3175" y="-74.5" font-family="Helvetica,sans-Serif" font-size="10.00">_radIfMgt.c</text>
</a>
</g>
</g>
<!-- Node6&#45;&gt;Node31 -->
<g id="edge30" class="edge">
<title>Node6&#45;&gt;Node31</title>
<path fill="none" stroke="midnightblue" d="M3129.2,-132.3C3139.21,-121.63 3152.19,-107.8 3161.78,-97.59"/>
<polygon fill="midnightblue" stroke="midnightblue" points="3126.52,-130.05 3122.23,-139.73 3131.62,-134.84 3126.52,-130.05"/>
</g>
<!-- Node32 -->
<g id="node27" class="node">
<title>Node32</title>
<g id="a_node27"><a xlink:href="wifiGen__vap_8c.html" target="_top" xlink:title=" ">
<polygon fill="white" stroke="black" points="3245,-67.5 3245,-97.5 3349,-97.5 3349,-67.5 3245,-67.5"/>
<text text-anchor="start" x="3253" y="-85.5" font-family="Helvetica,sans-Serif" font-size="10.00">src/Plugin/wifiGen</text>
<text text-anchor="middle" x="3297" y="-74.5" font-family="Helvetica,sans-Serif" font-size="10.00">_vap.c</text>
</a>
</g>
</g>
<!-- Node6&#45;&gt;Node32 -->
<g id="edge31" class="edge">
<title>Node6&#45;&gt;Node32</title>
<path fill="none" stroke="midnightblue" d="M3147.81,-136.49C3178.84,-125.47 3224.81,-109.14 3257.51,-97.53"/>
<polygon fill="midnightblue" stroke="midnightblue" points="3146.55,-133.22 3138.3,-139.87 3148.9,-139.82 3146.55,-133.22"/>
</g>
<!-- Node33 -->
<g id="node28" class="node">
<title>Node33</title>
<g id="a_node28"><a xlink:href="wifiGen__wpaSupp_8c.html" target="_top" xlink:title=" ">
<polygon fill="white" stroke="black" points="3367,-67.5 3367,-97.5 3471,-97.5 3471,-67.5 3367,-67.5"/>
<text text-anchor="start" x="3375" y="-85.5" font-family="Helvetica,sans-Serif" font-size="10.00">src/Plugin/wifiGen</text>
<text text-anchor="middle" x="3419" y="-74.5" font-family="Helvetica,sans-Serif" font-size="10.00">_wpaSupp.c</text>
</a>
</g>
</g>
<!-- Node6&#45;&gt;Node33 -->
<g id="edge32" class="edge">
<title>Node6&#45;&gt;Node33</title>
<path fill="none" stroke="midnightblue" d="M3167.12,-137.97C3216.61,-128.05 3292.42,-112.58 3358,-98 3360.87,-97.36 3363.81,-96.7 3366.78,-96.02"/>
<polygon fill="midnightblue" stroke="midnightblue" points="3166.4,-134.55 3157.28,-139.94 3167.77,-141.41 3166.4,-134.55"/>
</g>
<!-- Node6&#45;&gt;Node34 -->
<g id="edge33" class="edge">
<title>Node6&#45;&gt;Node34</title>
<path fill="none" stroke="midnightblue" d="M3163.85,-138.17C3173.8,-136.48 3184.2,-134.96 3194,-134 3686.37,-85.72 4928.7,-156.16 5420,-98 5422.76,-97.67 5425.57,-97.28 5428.4,-96.84"/>
<polygon fill="midnightblue" stroke="midnightblue" points="3162.93,-134.78 3153.7,-139.98 3164.16,-141.67 3162.93,-134.78"/>
</g>
<!-- Node35 -->
<g id="node30" class="node">
<title>Node35</title>
<g id="a_node30"><a xlink:href="wld__rad__fsm_8c.html" target="_top" xlink:title=" ">
<polygon fill="white" stroke="black" points="3489.5,-67.5 3489.5,-97.5 3602.5,-97.5 3602.5,-67.5 3489.5,-67.5"/>
<text text-anchor="start" x="3497.5" y="-85.5" font-family="Helvetica,sans-Serif" font-size="10.00">src/RadMgt/wld_rad</text>
<text text-anchor="middle" x="3546" y="-74.5" font-family="Helvetica,sans-Serif" font-size="10.00">_fsm.c</text>
</a>
</g>
</g>
<!-- Node6&#45;&gt;Node35 -->
<g id="edge34" class="edge">
<title>Node6&#45;&gt;Node35</title>
<path fill="none" stroke="midnightblue" d="M3168.89,-138.15C3177.29,-136.68 3185.87,-135.25 3194,-134 3320.63,-114.57 3353.75,-119.77 3480,-98 3483.01,-97.48 3486.08,-96.92 3489.18,-96.33"/>
<polygon fill="midnightblue" stroke="midnightblue" points="3168.01,-134.75 3158.78,-139.94 3169.24,-141.64 3168.01,-134.75"/>
</g>
<!-- Node6&#45;&gt;Node36 -->
<g id="edge35" class="edge">
<title>Node6&#45;&gt;Node36</title>
<path fill="none" stroke="midnightblue" d="M3183.33,-138.73C3199.28,-136.83 3216.21,-135.09 3232,-134 3746.17,-98.52 5039.16,-158.42 5551,-98 5553.76,-97.67 5556.57,-97.28 5559.4,-96.84"/>
<polygon fill="midnightblue" stroke="midnightblue" points="3182.5,-135.3 3173,-140 3183.36,-142.25 3182.5,-135.3"/>
</g>
<!-- Node37 -->
<g id="node32" class="node">
<title>Node37</title>
<g id="a_node32"><a xlink:href="wld__rad__macCfg_8c.html" target="_top" xlink:title=" ">
<polygon fill="white" stroke="black" points="3620.5,-67.5 3620.5,-97.5 3733.5,-97.5 3733.5,-67.5 3620.5,-67.5"/>
<text text-anchor="start" x="3628.5" y="-85.5" font-family="Helvetica,sans-Serif" font-size="10.00">src/RadMgt/wld_rad</text>
<text text-anchor="middle" x="3677" y="-74.5" font-family="Helvetica,sans-Serif" font-size="10.00">_macCfg.c</text>
</a>
</g>
</g>
<!-- Node6&#45;&gt;Node37 -->
<g id="edge36" class="edge">
<title>Node6&#45;&gt;Node37</title>
<path fill="none" stroke="midnightblue" d="M3167.04,-138.17C3176.02,-136.63 3185.26,-135.17 3194,-134 3378.83,-109.35 3427.7,-126.36 3612,-98 3614.74,-97.58 3617.54,-97.11 3620.36,-96.6"/>
<polygon fill="midnightblue" stroke="midnightblue" points="3166.3,-134.75 3157.06,-139.93 3167.52,-141.64 3166.3,-134.75"/>
</g>
<!-- Node38 -->
<g id="node33" class="node">
<title>Node38</title>
<g id="a_node33"><a xlink:href="wld__rad__stamon_8c.html" target="_top" xlink:title=" ">
<polygon fill="white" stroke="black" points="3751.5,-67.5 3751.5,-97.5 3864.5,-97.5 3864.5,-67.5 3751.5,-67.5"/>
<text text-anchor="start" x="3759.5" y="-85.5" font-family="Helvetica,sans-Serif" font-size="10.00">src/RadMgt/wld_rad</text>
<text text-anchor="middle" x="3808" y="-74.5" font-family="Helvetica,sans-Serif" font-size="10.00">_stamon.c</text>
</a>
</g>
</g>
<!-- Node6&#45;&gt;Node38 -->
<g id="edge37" class="edge">
<title>Node6&#45;&gt;Node38</title>
<path fill="none" stroke="midnightblue" d="M3165.79,-138.23C3175.15,-136.62 3184.84,-135.13 3194,-134 3436.69,-104.15 3500.95,-132.72 3743,-98 3745.75,-97.61 3748.55,-97.16 3751.37,-96.67"/>
<polygon fill="midnightblue" stroke="midnightblue" points="3165.03,-134.81 3155.8,-140 3166.25,-141.7 3165.03,-134.81"/>
</g>
<!-- Node39 -->
<g id="node34" class="node">
<title>Node39</title>
<g id="a_node34"><a xlink:href="wld__autoCommitMgr_8c.html" target="_top" xlink:title=" ">
<polygon fill="white" stroke="black" points="3882.5,-67.5 3882.5,-97.5 4025.5,-97.5 4025.5,-67.5 3882.5,-67.5"/>
<text text-anchor="start" x="3890.5" y="-85.5" font-family="Helvetica,sans-Serif" font-size="10.00">src/Utils/wld_autoCommit</text>
<text text-anchor="middle" x="3954" y="-74.5" font-family="Helvetica,sans-Serif" font-size="10.00">Mgr.c</text>
</a>
</g>
</g>
<!-- Node6&#45;&gt;Node39 -->
<g id="edge38" class="edge">
<title>Node6&#45;&gt;Node39</title>
<path fill="none" stroke="midnightblue" d="M3165.46,-138.18C3174.92,-136.57 3184.73,-135.08 3194,-134 3494.61,-98.94 3573.39,-133.06 3874,-98 3876.66,-97.69 3879.37,-97.34 3882.11,-96.97"/>
<polygon fill="midnightblue" stroke="midnightblue" points="3164.61,-134.78 3155.37,-139.97 3165.83,-141.67 3164.61,-134.78"/>
</g>
<!-- Node40 -->
<g id="node35" class="node">
<title>Node40</title>
<g id="a_node35"><a xlink:href="wld__autoNeighAdd_8c.html" target="_top" xlink:title=" ">
<polygon fill="white" stroke="black" points="4043.5,-73 4043.5,-92 4202.5,-92 4202.5,-73 4043.5,-73"/>
<text text-anchor="middle" x="4123" y="-80" font-family="Helvetica,sans-Serif" font-size="10.00">src/Utils/wld_autoNeighAdd.c</text>
</a>
</g>
</g>
<!-- Node6&#45;&gt;Node40 -->
<g id="edge39" class="edge">
<title>Node6&#45;&gt;Node40</title>
<path fill="none" stroke="midnightblue" d="M3164.83,-138.21C3174.48,-136.56 3184.53,-135.06 3194,-134 3565.82,-92.54 3662.86,-136.48 4035,-98 4048.86,-96.57 4063.85,-94.35 4077.47,-92.08"/>
<polygon fill="midnightblue" stroke="midnightblue" points="3164.18,-134.77 3154.95,-139.97 3165.41,-141.66 3164.18,-134.77"/>
</g>
<!-- Node41 -->
<g id="node36" class="node">
<title>Node41</title>
<g id="a_node36"><a xlink:href="wld__dmnMgt_8c.html" target="_top" xlink:title=" ">
<polygon fill="white" stroke="black" points="4220.5,-73 4220.5,-92 4351.5,-92 4351.5,-73 4220.5,-73"/>
<text text-anchor="middle" x="4286" y="-80" font-family="Helvetica,sans-Serif" font-size="10.00">src/Utils/wld_dmnMgt.c</text>
</a>
</g>
</g>
<!-- Node6&#45;&gt;Node41 -->
<g id="edge40" class="edge">
<title>Node6&#45;&gt;Node41</title>
<path fill="none" stroke="midnightblue" d="M3164.5,-138.21C3174.26,-136.55 3184.42,-135.03 3194,-134 3644.12,-85.5 3762.23,-149.69 4212,-98 4223.97,-96.62 4236.89,-94.37 4248.53,-92.03"/>
<polygon fill="midnightblue" stroke="midnightblue" points="3163.77,-134.79 3154.53,-139.98 3164.99,-141.68 3163.77,-134.79"/>
</g>
<!-- Node42 -->
<g id="node37" class="node">
<title>Node42</title>
<g id="a_node37"><a xlink:href="wld__linuxIfStats_8c.html" target="_top" xlink:title=" ">
<polygon fill="white" stroke="black" points="4370,-73 4370,-92 4516,-92 4516,-73 4370,-73"/>
<text text-anchor="middle" x="4443" y="-80" font-family="Helvetica,sans-Serif" font-size="10.00">src/Utils/wld_linuxIfStats.c</text>
</a>
</g>
</g>
<!-- Node6&#45;&gt;Node42 -->
<g id="edge41" class="edge">
<title>Node6&#45;&gt;Node42</title>
<path fill="none" stroke="midnightblue" d="M3164.5,-138.17C3174.25,-136.51 3184.42,-135.01 3194,-134 3710.05,-79.58 3844.83,-151.32 4361,-98 4374.23,-96.63 4388.54,-94.38 4401.45,-92.05"/>
<polygon fill="midnightblue" stroke="midnightblue" points="3163.76,-134.75 3154.53,-139.95 3164.99,-141.64 3163.76,-134.75"/>
</g>
<!-- Node43 -->
<g id="node38" class="node">
<title>Node43</title>
<g id="a_node38"><a xlink:href="wld__monitor_8c.html" target="_top" xlink:title=" ">
<polygon fill="white" stroke="black" points="4534,-73 4534,-92 4662,-92 4662,-73 4534,-73"/>
<text text-anchor="middle" x="4598" y="-80" font-family="Helvetica,sans-Serif" font-size="10.00">src/Utils/wld_monitor.c</text>
</a>
</g>
</g>
<!-- Node6&#45;&gt;Node43 -->
<g id="edge42" class="edge">
<title>Node6&#45;&gt;Node43</title>
<path fill="none" stroke="midnightblue" d="M3164.18,-138.2C3174.03,-136.52 3184.31,-135 3194,-134 3782.63,-73.05 3936.91,-163.88 4525,-98 4536.94,-96.66 4549.84,-94.38 4561.43,-92.02"/>
<polygon fill="midnightblue" stroke="midnightblue" points="3163.35,-134.79 3154.12,-139.99 3164.58,-141.68 3163.35,-134.79"/>
</g>
<!-- Node44 -->
<g id="node39" class="node">
<title>Node44</title>
<g id="a_node39"><a xlink:href="wld__ep__nl80211_8c.html" target="_top" xlink:title=" ">
<polygon fill="white" stroke="black" points="4680,-67.5 4680,-97.5 4790,-97.5 4790,-67.5 4680,-67.5"/>
<text text-anchor="start" x="4688" y="-85.5" font-family="Helvetica,sans-Serif" font-size="10.00">src/nl80211/wld_ep</text>
<text text-anchor="middle" x="4735" y="-74.5" font-family="Helvetica,sans-Serif" font-size="10.00">_nl80211.c</text>
</a>
</g>
</g>
<!-- Node6&#45;&gt;Node44 -->
<g id="edge43" class="edge">
<title>Node6&#45;&gt;Node44</title>
<path fill="none" stroke="midnightblue" d="M3164.18,-138.18C3174.03,-136.5 3184.31,-134.99 3194,-134 3847.24,-67.25 4019.37,-178.94 4671,-98 4673.94,-97.63 4676.94,-97.19 4679.96,-96.7"/>
<polygon fill="midnightblue" stroke="midnightblue" points="3163.34,-134.77 3154.11,-139.97 3164.57,-141.66 3163.34,-134.77"/>
</g>
<!-- Node45 -->
<g id="node40" class="node">
<title>Node45</title>
<g id="a_node40"><a xlink:href="wld__hostapd__ap__api_8c.html" target="_top" xlink:title=" ">
<polygon fill="white" stroke="black" points="4808.5,-67.5 4808.5,-97.5 4945.5,-97.5 4945.5,-67.5 4808.5,-67.5"/>
<text text-anchor="start" x="4816.5" y="-85.5" font-family="Helvetica,sans-Serif" font-size="10.00">src/nl80211/wld_hostapd</text>
<text text-anchor="middle" x="4877" y="-74.5" font-family="Helvetica,sans-Serif" font-size="10.00">_ap_api.c</text>
</a>
</g>
</g>
<!-- Node6&#45;&gt;Node45 -->
<g id="edge44" class="edge">
<title>Node6&#45;&gt;Node45</title>
<path fill="none" stroke="midnightblue" d="M3164.18,-138.16C3174.02,-136.49 3184.31,-134.98 3194,-134 3903.89,-62.15 4089.28,-171.44 4799,-98 4802.01,-97.69 4805.09,-97.32 4808.18,-96.92"/>
<polygon fill="midnightblue" stroke="midnightblue" points="3163.34,-134.76 3154.11,-139.96 3164.57,-141.65 3163.34,-134.76"/>
</g>
<!-- Node46 -->
<g id="node41" class="node">
<title>Node46</title>
<g id="a_node41"><a xlink:href="wld__hostapd__cfgFile_8c.html" target="_top" xlink:title=" ">
<polygon fill="white" stroke="black" points="4963.5,-67.5 4963.5,-97.5 5100.5,-97.5 5100.5,-67.5 4963.5,-67.5"/>
<text text-anchor="start" x="4971.5" y="-85.5" font-family="Helvetica,sans-Serif" font-size="10.00">src/nl80211/wld_hostapd</text>
<text text-anchor="middle" x="5032" y="-74.5" font-family="Helvetica,sans-Serif" font-size="10.00">_cfgFile.c</text>
</a>
</g>
</g>
<!-- Node6&#45;&gt;Node46 -->
<g id="edge45" class="edge">
<title>Node6&#45;&gt;Node46</title>
<path fill="none" stroke="midnightblue" d="M3164.17,-138.15C3174.02,-136.47 3184.31,-134.97 3194,-134 3972.93,-55.95 4176.34,-178.71 4955,-98 4957.71,-97.72 4960.46,-97.39 4963.24,-97.03"/>
<polygon fill="midnightblue" stroke="midnightblue" points="3163.34,-134.74 3154.11,-139.94 3164.57,-141.63 3163.34,-134.74"/>
</g>
<!-- Node47 -->
<g id="node42" class="node">
<title>Node47</title>
<g id="a_node42"><a xlink:href="wld__hostapd__cfgManager_8c.html" target="_top" xlink:title=" ">
<polygon fill="white" stroke="black" points="5118.5,-67.5 5118.5,-97.5 5255.5,-97.5 5255.5,-67.5 5118.5,-67.5"/>
<text text-anchor="start" x="5126.5" y="-85.5" font-family="Helvetica,sans-Serif" font-size="10.00">src/nl80211/wld_hostapd</text>
<text text-anchor="middle" x="5187" y="-74.5" font-family="Helvetica,sans-Serif" font-size="10.00">_cfgManager.c</text>
</a>
</g>
</g>
<!-- Node6&#45;&gt;Node47 -->
<g id="edge46" class="edge">
<title>Node6&#45;&gt;Node47</title>
<path fill="none" stroke="midnightblue" d="M3164.17,-138.14C3174.02,-136.46 3184.3,-134.96 3194,-134 4041.53,-49.78 4262.76,-185.11 5110,-98 5112.71,-97.72 5115.46,-97.4 5118.24,-97.04"/>
<polygon fill="midnightblue" stroke="midnightblue" points="3163.34,-134.73 3154.11,-139.93 3164.57,-141.62 3163.34,-134.73"/>
</g>
<!-- Node48 -->
<g id="node43" class="node">
<title>Node48</title>
<g id="a_node43"><a xlink:href="wld__nl80211__scan_8c.html" target="_top" xlink:title=" ">
<polygon fill="white" stroke="black" points="5273.5,-67.5 5273.5,-97.5 5410.5,-97.5 5410.5,-67.5 5273.5,-67.5"/>
<text text-anchor="start" x="5281.5" y="-85.5" font-family="Helvetica,sans-Serif" font-size="10.00">src/nl80211/wld_nl80211</text>
<text text-anchor="middle" x="5342" y="-74.5" font-family="Helvetica,sans-Serif" font-size="10.00">_scan.c</text>
</a>
</g>
</g>
<!-- Node6&#45;&gt;Node48 -->
<g id="edge47" class="edge">
<title>Node6&#45;&gt;Node48</title>
<path fill="none" stroke="midnightblue" d="M3163.85,-138.18C3173.8,-136.48 3184.2,-134.97 3194,-134 4110.14,-43.61 4349.18,-191.51 5265,-98 5267.71,-97.72 5270.46,-97.4 5273.24,-97.04"/>
<polygon fill="midnightblue" stroke="midnightblue" points="3162.93,-134.79 3153.7,-139.99 3164.16,-141.68 3162.93,-134.79"/>
</g>
<!-- Node6&#45;&gt;Node49 -->
<g id="edge48" class="edge">
<title>Node6&#45;&gt;Node49</title>
<path fill="none" stroke="midnightblue" d="M3189.56,-140.28C3215.07,-137.83 3243.74,-135.41 3270,-134 3805.28,-105.17 5149.52,-159.83 5682,-98 5684.91,-97.66 5687.89,-97.25 5690.88,-96.79"/>
<polygon fill="midnightblue" stroke="midnightblue" points="3189.18,-136.8 3179.57,-141.26 3189.87,-143.77 3189.18,-136.8"/>
</g>
<!-- Node6&#45;&gt;Node58 -->
<g id="edge49" class="edge">
<title>Node6&#45;&gt;Node58</title>
<path fill="none" stroke="midnightblue" d="M3190.29,-141.73C3226.01,-138.84 3269.15,-135.73 3308,-134 3586.2,-121.62 5538.19,-136.4 5814,-98 5823.04,-96.74 5832.72,-94.45 5841.35,-92.06"/>
<polygon fill="midnightblue" stroke="midnightblue" points="3189.62,-138.27 3179.94,-142.58 3190.19,-145.25 3189.62,-138.27"/>
</g>
<!-- Node6&#45;&gt;Node77 -->
<g id="edge50" class="edge">
<title>Node6&#45;&gt;Node77</title>
<path fill="none" stroke="midnightblue" d="M3189.75,-142.84C3235.06,-139.68 3293.79,-136 3346,-134 3918.08,-112.14 5352.82,-159.55 5922,-98 5924.75,-97.7 5927.55,-97.35 5930.38,-96.95"/>
<polygon fill="midnightblue" stroke="midnightblue" points="3189.44,-139.35 3179.71,-143.54 3189.93,-146.33 3189.44,-139.35"/>
</g>
<!-- Node6&#45;&gt;Node78 -->
<g id="edge51" class="edge">
<title>Node6&#45;&gt;Node78</title>
<path fill="none" stroke="midnightblue" d="M3189.91,-143.61C3244,-140.32 3318.44,-136.2 3384,-134 3979.5,-114.02 5472.6,-161.89 6065,-98 6067.88,-97.69 6070.81,-97.32 6073.77,-96.9"/>
<polygon fill="midnightblue" stroke="midnightblue" points="3189.48,-140.13 3179.71,-144.23 3189.91,-147.11 3189.48,-140.13"/>
</g>
<!-- Node12&#45;&gt;Node13 -->
<g id="edge8" class="edge">
<title>Node12&#45;&gt;Node13</title>
<path fill="none" stroke="midnightblue" d="M1009.15,-63.71C1003.37,-53.29 996.18,-40.3 990.8,-30.59"/>
<polygon fill="midnightblue" stroke="midnightblue" points="1006.24,-65.68 1014.14,-72.73 1012.36,-62.29 1006.24,-65.68"/>
</g>
<!-- Node15&#45;&gt;Node16 -->
<g id="edge10" class="edge">
<title>Node15&#45;&gt;Node16</title>
<path fill="none" stroke="midnightblue" d="M1181.62,-59.32C1172.96,-47.6 1162.84,-33.88 1156.42,-25.19"/>
<polygon fill="midnightblue" stroke="midnightblue" points="1178.83,-61.43 1187.58,-67.4 1184.46,-57.27 1178.83,-61.43"/>
</g>
</g>
</svg>
