<?xml version="1.0" encoding="UTF-8" standalone="no"?>
<!DOCTYPE svg PUBLIC "-//W3C//DTD SVG 1.1//EN"
 "http://www.w3.org/Graphics/SVG/1.1/DTD/svg11.dtd">
<!-- Generated by graphviz version 2.43.0 (0)
 -->
<!-- Title: wld_getVendorByName Pages: 1 -->
<svg width="333pt" height="66pt"
 viewBox="0.00 0.00 333.00 66.00" xmlns="http://www.w3.org/2000/svg" xmlns:xlink="http://www.w3.org/1999/xlink">
<g id="graph0" class="graph" transform="scale(1 1) rotate(0) translate(4 62)">
<title>wld_getVendorByName</title>
<polygon fill="white" stroke="transparent" points="-4,4 -4,-62 329,-62 329,4 -4,4"/>
<!-- Node1 -->
<g id="node1" class="node">
<title>Node1</title>
<g id="a_node1"><a xlink:title=" ">
<polygon fill="#bfbfbf" stroke="black" points="194,-19.5 194,-38.5 325,-38.5 325,-19.5 194,-19.5"/>
<text text-anchor="middle" x="259.5" y="-26.5" font-family="Helvetica,sans-Serif" font-size="10.00">wld_getVendorByName</text>
</a>
</g>
</g>
<!-- Node2 -->
<g id="node2" class="node">
<title>Node2</title>
<g id="a_node2"><a xlink:href="wld__nl80211__api_8c.html#af65c627c2db04381a6c729185ee803d5" target="_top" xlink:title=" ">
<polygon fill="white" stroke="black" points="6.5,-38.5 6.5,-57.5 151.5,-57.5 151.5,-38.5 6.5,-38.5"/>
<text text-anchor="middle" x="79" y="-45.5" font-family="Helvetica,sans-Serif" font-size="10.00">wld_nl80211_getFsmMngr</text>
</a>
</g>
</g>
<!-- Node1&#45;&gt;Node2 -->
<g id="edge1" class="edge">
<title>Node1&#45;&gt;Node2</title>
<path fill="none" stroke="midnightblue" d="M183.75,-36.96C173.15,-38.09 162.27,-39.24 151.72,-40.37"/>
<polygon fill="midnightblue" stroke="midnightblue" points="184.23,-40.43 193.81,-35.89 183.49,-33.46 184.23,-40.43"/>
</g>
<!-- Node3 -->
<g id="node3" class="node">
<title>Node3</title>
<g id="a_node3"><a xlink:href="wld__nl80211__api_8c.html#ab0f22d6f8a69576f593dad37e00a83c8" target="_top" xlink:title=" ">
<polygon fill="white" stroke="black" points="0,-0.5 0,-19.5 158,-19.5 158,-0.5 0,-0.5"/>
<text text-anchor="middle" x="79" y="-7.5" font-family="Helvetica,sans-Serif" font-size="10.00">wld_nl80211_getVendorTable</text>
</a>
</g>
</g>
<!-- Node1&#45;&gt;Node3 -->
<g id="edge2" class="edge">
<title>Node1&#45;&gt;Node3</title>
<path fill="none" stroke="midnightblue" d="M183.64,-21.03C175.22,-20.14 166.62,-19.22 158.16,-18.32"/>
<polygon fill="midnightblue" stroke="midnightblue" points="183.49,-24.54 193.81,-22.11 184.23,-17.57 183.49,-24.54"/>
</g>
</g>
</svg>
