<?xml version="1.0" encoding="UTF-8" standalone="no"?>
<!DOCTYPE svg PUBLIC "-//W3C//DTD SVG 1.1//EN"
 "http://www.w3.org/Graphics/SVG/1.1/DTD/svg11.dtd">
<!-- Generated by graphviz version 2.43.0 (0)
 -->
<!-- Title: wld_linuxIfUtils_getChipsetVendor Pages: 1 -->
<svg width="604pt" height="39pt"
 viewBox="0.00 0.00 604.00 39.00" xmlns="http://www.w3.org/2000/svg" xmlns:xlink="http://www.w3.org/1999/xlink">
<g id="graph0" class="graph" transform="scale(1 1) rotate(0) translate(4 35)">
<title>wld_linuxIfUtils_getChipsetVendor</title>
<polygon fill="white" stroke="transparent" points="-4,4 -4,-35 600,-35 600,4 -4,4"/>
<!-- Node1 -->
<g id="node1" class="node">
<title>Node1</title>
<g id="a_node1"><a xlink:title=" ">
<polygon fill="#bfbfbf" stroke="black" points="446,-0.5 446,-30.5 596,-30.5 596,-0.5 446,-0.5"/>
<text text-anchor="start" x="454" y="-18.5" font-family="Helvetica,sans-Serif" font-size="10.00">wld_linuxIfUtils_getChipset</text>
<text text-anchor="middle" x="521" y="-7.5" font-family="Helvetica,sans-Serif" font-size="10.00">Vendor</text>
</a>
</g>
</g>
<!-- Node2 -->
<g id="node2" class="node">
<title>Node2</title>
<g id="a_node2"><a xlink:href="wld_8c.html#a36aa34c9c1a57fbe65d300ae3a9bbc2f" target="_top" xlink:title=" ">
<polygon fill="white" stroke="black" points="312,-6 312,-25 410,-25 410,-6 312,-6"/>
<text text-anchor="middle" x="361" y="-13" font-family="Helvetica,sans-Serif" font-size="10.00">wld_createRadio</text>
</a>
</g>
</g>
<!-- Node1&#45;&gt;Node2 -->
<g id="edge1" class="edge">
<title>Node1&#45;&gt;Node2</title>
<path fill="none" stroke="midnightblue" d="M435.49,-15.5C426.86,-15.5 418.33,-15.5 410.29,-15.5"/>
<polygon fill="midnightblue" stroke="midnightblue" points="435.63,-19 445.63,-15.5 435.63,-12 435.63,-19"/>
</g>
<!-- Node3 -->
<g id="node3" class="node">
<title>Node3</title>
<g id="a_node3"><a xlink:href="wld_8c.html#a64c338bcccd982aa0f1bd86a8d95473a" target="_top" xlink:title=" ">
<polygon fill="white" stroke="black" points="191,-6 191,-25 276,-25 276,-6 191,-6"/>
<text text-anchor="middle" x="233.5" y="-13" font-family="Helvetica,sans-Serif" font-size="10.00">wld_addRadio</text>
</a>
</g>
</g>
<!-- Node2&#45;&gt;Node3 -->
<g id="edge2" class="edge">
<title>Node2&#45;&gt;Node3</title>
<path fill="none" stroke="midnightblue" d="M301.79,-15.5C293.15,-15.5 284.4,-15.5 276.19,-15.5"/>
<polygon fill="midnightblue" stroke="midnightblue" points="301.84,-19 311.84,-15.5 301.84,-12 301.84,-19"/>
</g>
<!-- Node4 -->
<g id="node4" class="node">
<title>Node4</title>
<g id="a_node4"><a xlink:href="wld__rad__nl80211_8c.html#ac4eed247eba7d9e6f87d8dff1374b804" target="_top" xlink:title=" ">
<polygon fill="white" stroke="black" points="0,-6 0,-25 155,-25 155,-6 0,-6"/>
<text text-anchor="middle" x="77.5" y="-13" font-family="Helvetica,sans-Serif" font-size="10.00">wld_rad_nl80211_addRadios</text>
</a>
</g>
</g>
<!-- Node3&#45;&gt;Node4 -->
<g id="edge3" class="edge">
<title>Node3&#45;&gt;Node4</title>
<path fill="none" stroke="midnightblue" d="M180.69,-15.5C172.49,-15.5 163.85,-15.5 155.22,-15.5"/>
<polygon fill="midnightblue" stroke="midnightblue" points="180.83,-19 190.83,-15.5 180.83,-12 180.83,-19"/>
</g>
</g>
</svg>
