<?xml version="1.0" encoding="UTF-8" standalone="no"?>
<!DOCTYPE svg PUBLIC "-//W3C//DTD SVG 1.1//EN"
 "http://www.w3.org/Graphics/SVG/1.1/DTD/svg11.dtd">
<!-- Generated by graphviz version 2.43.0 (0)
 -->
<!-- Title: include/wld/wld_tinyRoam.h Pages: 1 -->
<svg width="725pt" height="95pt"
 viewBox="0.00 0.00 725.00 95.00" xmlns="http://www.w3.org/2000/svg" xmlns:xlink="http://www.w3.org/1999/xlink">
<g id="graph0" class="graph" transform="scale(1 1) rotate(0) translate(4 91)">
<title>include/wld/wld_tinyRoam.h</title>
<polygon fill="white" stroke="transparent" points="-4,4 -4,-91 721,-91 721,4 -4,4"/>
<!-- Node1 -->
<g id="node1" class="node">
<title>Node1</title>
<g id="a_node1"><a xlink:title=" ">
<polygon fill="#bfbfbf" stroke="black" points="315.5,-67.5 315.5,-86.5 469.5,-86.5 469.5,-67.5 315.5,-67.5"/>
<text text-anchor="middle" x="392.5" y="-74.5" font-family="Helvetica,sans-Serif" font-size="10.00">include/wld/wld_tinyRoam.h</text>
</a>
</g>
</g>
<!-- Node2 -->
<g id="node2" class="node">
<title>Node2</title>
<g id="a_node2"><a xlink:href="wld__epProfile_8c.html" target="_top" xlink:title=" ">
<polygon fill="white" stroke="black" points="0,-6 0,-25 141,-25 141,-6 0,-6"/>
<text text-anchor="middle" x="70.5" y="-13" font-family="Helvetica,sans-Serif" font-size="10.00">src/EpMgt/wld_epProfile.c</text>
</a>
</g>
</g>
<!-- Node1&#45;&gt;Node2 -->
<g id="edge1" class="edge">
<title>Node1&#45;&gt;Node2</title>
<path fill="none" stroke="midnightblue" d="M336.31,-65.62C273.95,-54.09 174.49,-35.72 116.55,-25.01"/>
<polygon fill="midnightblue" stroke="midnightblue" points="335.9,-69.1 346.37,-67.48 337.17,-62.22 335.9,-69.1"/>
</g>
<!-- Node3 -->
<g id="node3" class="node">
<title>Node3</title>
<g id="a_node3"><a xlink:href="wld__tinyRoam_8c.html" target="_top" xlink:title=" ">
<polygon fill="white" stroke="black" points="159.5,-6 159.5,-25 305.5,-25 305.5,-6 159.5,-6"/>
<text text-anchor="middle" x="232.5" y="-13" font-family="Helvetica,sans-Serif" font-size="10.00">src/EpMgt/wld_tinyRoam.c</text>
</a>
</g>
</g>
<!-- Node1&#45;&gt;Node3 -->
<g id="edge2" class="edge">
<title>Node1&#45;&gt;Node3</title>
<path fill="none" stroke="midnightblue" d="M360.05,-63.93C328.95,-52.37 282.81,-35.21 255.38,-25.01"/>
<polygon fill="midnightblue" stroke="midnightblue" points="358.98,-67.27 369.58,-67.48 361.42,-60.71 358.98,-67.27"/>
</g>
<!-- Node4 -->
<g id="node4" class="node">
<title>Node4</title>
<g id="a_node4"><a xlink:href="wld__tinyRoam__bus_8c.html" target="_top" xlink:title=" ">
<polygon fill="white" stroke="black" points="324,-0.5 324,-30.5 461,-30.5 461,-0.5 324,-0.5"/>
<text text-anchor="start" x="332" y="-18.5" font-family="Helvetica,sans-Serif" font-size="10.00">src/EpMgt/wld_tinyRoam</text>
<text text-anchor="middle" x="392.5" y="-7.5" font-family="Helvetica,sans-Serif" font-size="10.00">_bus.c</text>
</a>
</g>
</g>
<!-- Node1&#45;&gt;Node4 -->
<g id="edge3" class="edge">
<title>Node1&#45;&gt;Node4</title>
<path fill="none" stroke="midnightblue" d="M392.5,-57.23C392.5,-48.59 392.5,-38.5 392.5,-30.52"/>
<polygon fill="midnightblue" stroke="midnightblue" points="389,-57.48 392.5,-67.48 396,-57.48 389,-57.48"/>
</g>
<!-- Node5 -->
<g id="node5" class="node">
<title>Node5</title>
<g id="a_node5"><a xlink:href="wld__rad__ifMgt_8c.html" target="_top" xlink:title=" ">
<polygon fill="white" stroke="black" points="479,-0.5 479,-30.5 592,-30.5 592,-0.5 479,-0.5"/>
<text text-anchor="start" x="487" y="-18.5" font-family="Helvetica,sans-Serif" font-size="10.00">src/RadMgt/wld_rad</text>
<text text-anchor="middle" x="535.5" y="-7.5" font-family="Helvetica,sans-Serif" font-size="10.00">_ifMgt.c</text>
</a>
</g>
</g>
<!-- Node1&#45;&gt;Node5 -->
<g id="edge4" class="edge">
<title>Node1&#45;&gt;Node5</title>
<path fill="none" stroke="midnightblue" d="M422.33,-63.59C445.51,-53.94 477.68,-40.56 501.8,-30.52"/>
<polygon fill="midnightblue" stroke="midnightblue" points="420.88,-60.4 412.99,-67.48 423.57,-66.86 420.88,-60.4"/>
</g>
<!-- Node6 -->
<g id="node6" class="node">
<title>Node6</title>
<g id="a_node6"><a xlink:href="wld__endpoint_8c.html" target="_top" xlink:title=" ">
<polygon fill="white" stroke="black" points="610,-6 610,-25 717,-25 717,-6 610,-6"/>
<text text-anchor="middle" x="663.5" y="-13" font-family="Helvetica,sans-Serif" font-size="10.00">src/wld_endpoint.c</text>
</a>
</g>
</g>
<!-- Node1&#45;&gt;Node6 -->
<g id="edge5" class="edge">
<title>Node1&#45;&gt;Node6</title>
<path fill="none" stroke="midnightblue" d="M443.19,-65.35C485.55,-56.38 547.52,-43.12 601.5,-31 609.91,-29.11 618.95,-27.03 627.46,-25.04"/>
<polygon fill="midnightblue" stroke="midnightblue" points="442.46,-61.93 433.4,-67.42 443.9,-68.77 442.46,-61.93"/>
</g>
</g>
</svg>
