<?xml version="1.0" encoding="UTF-8" standalone="no"?>
<!DOCTYPE svg PUBLIC "-//W3C//DTD SVG 1.1//EN"
 "http://www.w3.org/Graphics/SVG/1.1/DTD/svg11.dtd">
<!-- Generated by graphviz version 2.43.0 (0)
 -->
<!-- Title: wld_wpaCtrlMngr_unregisterInterface Pages: 1 -->
<svg width="320pt" height="39pt"
 viewBox="0.00 0.00 320.00 39.00" xmlns="http://www.w3.org/2000/svg" xmlns:xlink="http://www.w3.org/1999/xlink">
<g id="graph0" class="graph" transform="scale(1 1) rotate(0) translate(4 35)">
<title>wld_wpaCtrlMngr_unregisterInterface</title>
<polygon fill="white" stroke="transparent" points="-4,4 -4,-35 316,-35 316,4 -4,4"/>
<!-- Node1 -->
<g id="node1" class="node">
<title>Node1</title>
<g id="a_node1"><a xlink:title="unregister wpa_ctrl interface from wpa_ctrl manager">
<polygon fill="#bfbfbf" stroke="black" points="156,-0.5 156,-30.5 312,-30.5 312,-0.5 156,-0.5"/>
<text text-anchor="start" x="164" y="-18.5" font-family="Helvetica,sans-Serif" font-size="10.00">wld_wpaCtrlMngr_unregister</text>
<text text-anchor="middle" x="234" y="-7.5" font-family="Helvetica,sans-Serif" font-size="10.00">Interface</text>
</a>
</g>
</g>
<!-- Node2 -->
<g id="node2" class="node">
<title>Node2</title>
<g id="a_node2"><a xlink:href="wld__wpaCtrlInterface_8c.html#a78b74c321f958dec1e833a1c6b275eae" target="_top" xlink:title=" ">
<polygon fill="white" stroke="black" points="0,-0.5 0,-30.5 120,-30.5 120,-0.5 0,-0.5"/>
<text text-anchor="start" x="8" y="-18.5" font-family="Helvetica,sans-Serif" font-size="10.00">wld_wpaCtrlInterface</text>
<text text-anchor="middle" x="60" y="-7.5" font-family="Helvetica,sans-Serif" font-size="10.00">_cleanup</text>
</a>
</g>
</g>
<!-- Node1&#45;&gt;Node2 -->
<g id="edge1" class="edge">
<title>Node1&#45;&gt;Node2</title>
<path fill="none" stroke="midnightblue" d="M145.67,-15.5C137.03,-15.5 128.41,-15.5 120.15,-15.5"/>
<polygon fill="midnightblue" stroke="midnightblue" points="145.8,-19 155.8,-15.5 145.8,-12 145.8,-19"/>
</g>
</g>
</svg>
