<?xml version="1.0" encoding="UTF-8" standalone="no"?>
<!DOCTYPE svg PUBLIC "-//W3C//DTD SVG 1.1//EN"
 "http://www.w3.org/Graphics/SVG/1.1/DTD/svg11.dtd">
<!-- Generated by graphviz version 2.43.0 (0)
 -->
<!-- Title: include/wld/wld_common.h Pages: 1 -->
<svg width="506pt" height="95pt"
 viewBox="0.00 0.00 505.50 95.00" xmlns="http://www.w3.org/2000/svg" xmlns:xlink="http://www.w3.org/1999/xlink">
<g id="graph0" class="graph" transform="scale(1 1) rotate(0) translate(4 91)">
<title>include/wld/wld_common.h</title>
<polygon fill="white" stroke="transparent" points="-4,4 -4,-91 501.5,-91 501.5,4 -4,4"/>
<!-- Node1 -->
<g id="node1" class="node">
<title>Node1</title>
<g id="a_node1"><a xlink:title=" ">
<polygon fill="#bfbfbf" stroke="black" points="169.5,-67.5 169.5,-86.5 318.5,-86.5 318.5,-67.5 169.5,-67.5"/>
<text text-anchor="middle" x="244" y="-74.5" font-family="Helvetica,sans-Serif" font-size="10.00">include/wld/wld_common.h</text>
</a>
</g>
</g>
<!-- Node2 -->
<g id="node2" class="node">
<title>Node2</title>
<g id="a_node2"><a xlink:href="wifiGen__fsm_8c.html" target="_top" xlink:title=" ">
<polygon fill="white" stroke="black" points="0,-0.5 0,-30.5 104,-30.5 104,-0.5 0,-0.5"/>
<text text-anchor="start" x="8" y="-18.5" font-family="Helvetica,sans-Serif" font-size="10.00">src/Plugin/wifiGen</text>
<text text-anchor="middle" x="52" y="-7.5" font-family="Helvetica,sans-Serif" font-size="10.00">_fsm.c</text>
</a>
</g>
</g>
<!-- Node1&#45;&gt;Node2 -->
<g id="edge1" class="edge">
<title>Node1&#45;&gt;Node2</title>
<path fill="none" stroke="midnightblue" d="M206.84,-64.48C175.53,-54.78 130.64,-40.87 97.25,-30.52"/>
<polygon fill="midnightblue" stroke="midnightblue" points="205.9,-67.86 216.49,-67.48 207.98,-61.17 205.9,-67.86"/>
</g>
<!-- Node3 -->
<g id="node3" class="node">
<title>Node3</title>
<g id="a_node3"><a xlink:href="wld__rad__delayMgr_8c.html" target="_top" xlink:title=" ">
<polygon fill="white" stroke="black" points="122.5,-0.5 122.5,-30.5 235.5,-30.5 235.5,-0.5 122.5,-0.5"/>
<text text-anchor="start" x="130.5" y="-18.5" font-family="Helvetica,sans-Serif" font-size="10.00">src/RadMgt/wld_rad</text>
<text text-anchor="middle" x="179" y="-7.5" font-family="Helvetica,sans-Serif" font-size="10.00">_delayMgr.c</text>
</a>
</g>
</g>
<!-- Node1&#45;&gt;Node3 -->
<g id="edge2" class="edge">
<title>Node1&#45;&gt;Node3</title>
<path fill="none" stroke="midnightblue" d="M227.23,-60.65C217.07,-51.35 204.2,-39.57 194.32,-30.52"/>
<polygon fill="midnightblue" stroke="midnightblue" points="224.95,-63.3 234.69,-67.48 229.67,-58.14 224.95,-63.3"/>
</g>
<!-- Node4 -->
<g id="node4" class="node">
<title>Node4</title>
<g id="a_node4"><a xlink:href="wld__rad__evtHandler_8c.html" target="_top" xlink:title=" ">
<polygon fill="white" stroke="black" points="253.5,-0.5 253.5,-30.5 366.5,-30.5 366.5,-0.5 253.5,-0.5"/>
<text text-anchor="start" x="261.5" y="-18.5" font-family="Helvetica,sans-Serif" font-size="10.00">src/RadMgt/wld_rad</text>
<text text-anchor="middle" x="310" y="-7.5" font-family="Helvetica,sans-Serif" font-size="10.00">_evtHandler.c</text>
</a>
</g>
</g>
<!-- Node1&#45;&gt;Node4 -->
<g id="edge3" class="edge">
<title>Node1&#45;&gt;Node4</title>
<path fill="none" stroke="midnightblue" d="M261.03,-60.65C271.35,-51.35 284.41,-39.57 294.45,-30.52"/>
<polygon fill="midnightblue" stroke="midnightblue" points="258.54,-58.18 253.46,-67.48 263.23,-63.38 258.54,-58.18"/>
</g>
<!-- Node5 -->
<g id="node5" class="node">
<title>Node5</title>
<g id="a_node5"><a xlink:href="wld__rad__scan_8c.html" target="_top" xlink:title=" ">
<polygon fill="white" stroke="black" points="384.5,-0.5 384.5,-30.5 497.5,-30.5 497.5,-0.5 384.5,-0.5"/>
<text text-anchor="start" x="392.5" y="-18.5" font-family="Helvetica,sans-Serif" font-size="10.00">src/RadMgt/wld_rad</text>
<text text-anchor="middle" x="441" y="-7.5" font-family="Helvetica,sans-Serif" font-size="10.00">_scan.c</text>
</a>
</g>
</g>
<!-- Node1&#45;&gt;Node5 -->
<g id="edge4" class="edge">
<title>Node1&#45;&gt;Node5</title>
<path fill="none" stroke="midnightblue" d="M282.13,-64.48C314.25,-54.78 360.31,-40.87 394.57,-30.52"/>
<polygon fill="midnightblue" stroke="midnightblue" points="280.79,-61.23 272.23,-67.48 282.81,-67.93 280.79,-61.23"/>
</g>
</g>
</svg>
