<?xml version="1.0" encoding="UTF-8" standalone="no"?>
<!DOCTYPE svg PUBLIC "-//W3C//DTD SVG 1.1//EN"
 "http://www.w3.org/Graphics/SVG/1.1/DTD/svg11.dtd">
<!-- Generated by graphviz version 2.43.0 (0)
 -->
<!-- Title: wld_wpaCtrlConnection_close Pages: 1 -->
<svg width="1126pt" height="247pt"
 viewBox="0.00 0.00 1126.00 247.00" xmlns="http://www.w3.org/2000/svg" xmlns:xlink="http://www.w3.org/1999/xlink">
<g id="graph0" class="graph" transform="scale(1 1) rotate(0) translate(4 243)">
<title>wld_wpaCtrlConnection_close</title>
<polygon fill="white" stroke="transparent" points="-4,4 -4,-243 1122,-243 1122,4 -4,4"/>
<!-- Node1 -->
<g id="node1" class="node">
<title>Node1</title>
<g id="a_node1"><a xlink:title=" ">
<polygon fill="#bfbfbf" stroke="black" points="987,-104 987,-134 1118,-134 1118,-104 987,-104"/>
<text text-anchor="start" x="995" y="-122" font-family="Helvetica,sans-Serif" font-size="10.00">wld_wpaCtrlConnection</text>
<text text-anchor="middle" x="1052.5" y="-111" font-family="Helvetica,sans-Serif" font-size="10.00">_close</text>
</a>
</g>
</g>
<!-- Node2 -->
<g id="node2" class="node">
<title>Node2</title>
<g id="a_node2"><a xlink:href="wld__wpaCtrlConnection_8c.html#a4f4cfde4f1cd7c2913047631191bb625" target="_top" xlink:title=" ">
<polygon fill="white" stroke="black" points="809.5,-104 809.5,-134 940.5,-134 940.5,-104 809.5,-104"/>
<text text-anchor="start" x="817.5" y="-122" font-family="Helvetica,sans-Serif" font-size="10.00">wld_wpaCtrlConnection</text>
<text text-anchor="middle" x="875" y="-111" font-family="Helvetica,sans-Serif" font-size="10.00">_cleanup</text>
</a>
</g>
</g>
<!-- Node1&#45;&gt;Node2 -->
<g id="edge1" class="edge">
<title>Node1&#45;&gt;Node2</title>
<path fill="none" stroke="midnightblue" d="M976.3,-119C964.41,-119 952.21,-119 940.58,-119"/>
<polygon fill="midnightblue" stroke="midnightblue" points="976.65,-122.5 986.65,-119 976.65,-115.5 976.65,-122.5"/>
</g>
<!-- Node9 -->
<g id="node9" class="node">
<title>Node9</title>
<g id="a_node9"><a xlink:href="wld__wpaCtrlConnection_8c.html#a6b8f3eb022f9117e30b5ae1ce5cd3310" target="_top" xlink:title=" ">
<polygon fill="white" stroke="black" points="799,-153.5 799,-172.5 951,-172.5 951,-153.5 799,-153.5"/>
<text text-anchor="middle" x="875" y="-160.5" font-family="Helvetica,sans-Serif" font-size="10.00">wld_wpaCtrlConnection_init</text>
</a>
</g>
</g>
<!-- Node1&#45;&gt;Node9 -->
<g id="edge8" class="edge">
<title>Node1&#45;&gt;Node9</title>
<path fill="none" stroke="midnightblue" d="M981.8,-136.47C958.66,-142.28 933.77,-148.52 913.94,-153.49"/>
<polygon fill="midnightblue" stroke="midnightblue" points="982.75,-139.85 991.59,-134.02 981.04,-133.06 982.75,-139.85"/>
</g>
<!-- Node13 -->
<g id="node13" class="node">
<title>Node13</title>
<g id="a_node13"><a xlink:href="wld__wpaCtrlInterface_8c.html#a303019c3b064bd2babeb3582ecd91d7f" target="_top" xlink:title="close the wpaCtrl interface to wpa_ctrl server This function closes all relative connections (cmd and...">
<polygon fill="white" stroke="black" points="815,-55 815,-85 935,-85 935,-55 815,-55"/>
<text text-anchor="start" x="823" y="-73" font-family="Helvetica,sans-Serif" font-size="10.00">wld_wpaCtrlInterface</text>
<text text-anchor="middle" x="875" y="-62" font-family="Helvetica,sans-Serif" font-size="10.00">_close</text>
</a>
</g>
</g>
<!-- Node1&#45;&gt;Node13 -->
<g id="edge13" class="edge">
<title>Node1&#45;&gt;Node13</title>
<path fill="none" stroke="midnightblue" d="M987.67,-101.18C968.72,-95.89 948.16,-90.15 929.91,-85.05"/>
<polygon fill="midnightblue" stroke="midnightblue" points="986.84,-104.58 997.41,-103.9 988.72,-97.84 986.84,-104.58"/>
</g>
<!-- Node3 -->
<g id="node3" class="node">
<title>Node3</title>
<g id="a_node3"><a xlink:href="wld__wpaCtrlConnection_8c.html#a71bdfd4428fb221814547fbeb4ba9152" target="_top" xlink:title=" ">
<polygon fill="white" stroke="black" points="612,-175.5 612,-194.5 755,-194.5 755,-175.5 612,-175.5"/>
<text text-anchor="middle" x="683.5" y="-182.5" font-family="Helvetica,sans-Serif" font-size="10.00">wld_wpaCtrl_queryToSock</text>
</a>
</g>
</g>
<!-- Node2&#45;&gt;Node3 -->
<g id="edge2" class="edge">
<title>Node2&#45;&gt;Node3</title>
<path fill="none" stroke="midnightblue" d="M813.67,-137.76C808.65,-139.73 803.7,-141.81 799,-144 782,-151.9 780.32,-158.82 763,-166 753.93,-169.76 743.96,-172.88 734.24,-175.44"/>
<polygon fill="midnightblue" stroke="midnightblue" points="815.22,-140.92 823.36,-134.13 812.77,-134.36 815.22,-140.92"/>
</g>
<!-- Node8 -->
<g id="node8" class="node">
<title>Node8</title>
<g id="a_node8"><a xlink:href="wld__wpaCtrlInterface_8c.html#a78b74c321f958dec1e833a1c6b275eae" target="_top" xlink:title=" ">
<polygon fill="white" stroke="black" points="623.5,-77 623.5,-107 743.5,-107 743.5,-77 623.5,-77"/>
<text text-anchor="start" x="631.5" y="-95" font-family="Helvetica,sans-Serif" font-size="10.00">wld_wpaCtrlInterface</text>
<text text-anchor="middle" x="683.5" y="-84" font-family="Helvetica,sans-Serif" font-size="10.00">_cleanup</text>
</a>
</g>
</g>
<!-- Node2&#45;&gt;Node8 -->
<g id="edge7" class="edge">
<title>Node2&#45;&gt;Node8</title>
<path fill="none" stroke="midnightblue" d="M799.22,-108.35C780.81,-105.72 761.36,-102.95 743.8,-100.45"/>
<polygon fill="midnightblue" stroke="midnightblue" points="798.92,-111.84 809.31,-109.78 799.91,-104.91 798.92,-111.84"/>
</g>
<!-- Node4 -->
<g id="node4" class="node">
<title>Node4</title>
<g id="a_node4"><a xlink:href="wifiGen__hapd_8c.html#a7d3e7497d8ba632b42864b29eeb4cd70" target="_top" xlink:title=" ">
<polygon fill="white" stroke="black" points="395,-219.5 395,-238.5 564,-238.5 564,-219.5 395,-219.5"/>
<text text-anchor="middle" x="479.5" y="-226.5" font-family="Helvetica,sans-Serif" font-size="10.00">wifiGen_hapd_fetchSockApLink</text>
</a>
</g>
</g>
<!-- Node3&#45;&gt;Node4 -->
<g id="edge3" class="edge">
<title>Node3&#45;&gt;Node4</title>
<path fill="none" stroke="midnightblue" d="M629.19,-196.65C609.91,-200.86 587.98,-205.65 568,-210 553.87,-213.08 538.46,-216.42 524.57,-219.44"/>
<polygon fill="midnightblue" stroke="midnightblue" points="629.98,-200.06 639.01,-194.51 628.49,-193.22 629.98,-200.06"/>
</g>
<!-- Node5 -->
<g id="node5" class="node">
<title>Node5</title>
<g id="a_node5"><a xlink:href="wld__wpaCtrlInterface_8c.html#ae0a540ffcdf6308c6a9d4b25218f1129" target="_top" xlink:title="send formatted command to wpa_ctrl server over established or temporary connection and check the rece...">
<polygon fill="white" stroke="black" points="391,-170 391,-200 568,-200 568,-170 391,-170"/>
<text text-anchor="start" x="399" y="-188" font-family="Helvetica,sans-Serif" font-size="10.00">wld_wpaCtrl_sendCmdFmtCheck</text>
<text text-anchor="middle" x="479.5" y="-177" font-family="Helvetica,sans-Serif" font-size="10.00">Response</text>
</a>
</g>
</g>
<!-- Node3&#45;&gt;Node5 -->
<g id="edge4" class="edge">
<title>Node3&#45;&gt;Node5</title>
<path fill="none" stroke="midnightblue" d="M601.8,-185C590.74,-185 579.34,-185 568.16,-185"/>
<polygon fill="midnightblue" stroke="midnightblue" points="601.85,-188.5 611.85,-185 601.85,-181.5 601.85,-188.5"/>
</g>
<!-- Node6 -->
<g id="node6" class="node">
<title>Node6</title>
<g id="a_node6"><a xlink:href="wld__rad__hostapd__api_8c.html#a848163f8651e518db2503acba24262c2" target="_top" xlink:title="reconfigure hostapd from file">
<polygon fill="white" stroke="black" points="196,-175.5 196,-194.5 355,-194.5 355,-175.5 196,-175.5"/>
<text text-anchor="middle" x="275.5" y="-182.5" font-family="Helvetica,sans-Serif" font-size="10.00">wld_rad_hostapd_reconfigure</text>
</a>
</g>
</g>
<!-- Node5&#45;&gt;Node6 -->
<g id="edge5" class="edge">
<title>Node5&#45;&gt;Node6</title>
<path fill="none" stroke="midnightblue" d="M380.77,-185C372.21,-185 363.62,-185 355.25,-185"/>
<polygon fill="midnightblue" stroke="midnightblue" points="380.78,-188.5 390.78,-185 380.78,-181.5 380.78,-188.5"/>
</g>
<!-- Node7 -->
<g id="node7" class="node">
<title>Node7</title>
<g id="a_node7"><a xlink:href="wifiGen__hapd_8c.html#a3316988b243476f9ae97626a068d4d04" target="_top" xlink:title=" ">
<polygon fill="white" stroke="black" points="0,-175.5 0,-194.5 160,-194.5 160,-175.5 0,-175.5"/>
<text text-anchor="middle" x="80" y="-182.5" font-family="Helvetica,sans-Serif" font-size="10.00">wifiGen_hapd_reloadDaemon</text>
</a>
</g>
</g>
<!-- Node6&#45;&gt;Node7 -->
<g id="edge6" class="edge">
<title>Node6&#45;&gt;Node7</title>
<path fill="none" stroke="midnightblue" d="M185.56,-185C177.12,-185 168.6,-185 160.26,-185"/>
<polygon fill="midnightblue" stroke="midnightblue" points="185.8,-188.5 195.8,-185 185.8,-181.5 185.8,-188.5"/>
</g>
<!-- Node9&#45;&gt;Node3 -->
<g id="edge9" class="edge">
<title>Node9&#45;&gt;Node3</title>
<path fill="none" stroke="midnightblue" d="M788.65,-172.91C777.48,-174.21 766.14,-175.52 755.26,-176.79"/>
<polygon fill="midnightblue" stroke="midnightblue" points="789.3,-176.36 798.83,-171.73 788.5,-169.4 789.3,-176.36"/>
</g>
<!-- Node10 -->
<g id="node10" class="node">
<title>Node10</title>
<g id="a_node10"><a xlink:href="wld__wpaCtrlInterface_8c.html#a459412143928ed22bca8796394d85ada" target="_top" xlink:title=" ">
<polygon fill="white" stroke="black" points="623.5,-126 623.5,-156 743.5,-156 743.5,-126 623.5,-126"/>
<text text-anchor="start" x="631.5" y="-144" font-family="Helvetica,sans-Serif" font-size="10.00">wld_wpaCtrlInterface</text>
<text text-anchor="middle" x="683.5" y="-133" font-family="Helvetica,sans-Serif" font-size="10.00">_setConnectionInfo</text>
</a>
</g>
</g>
<!-- Node9&#45;&gt;Node10 -->
<g id="edge10" class="edge">
<title>Node9&#45;&gt;Node10</title>
<path fill="none" stroke="midnightblue" d="M788.83,-153.11C773.52,-151.33 757.87,-149.52 743.5,-147.85"/>
<polygon fill="midnightblue" stroke="midnightblue" points="788.5,-156.6 798.83,-154.27 789.3,-149.64 788.5,-156.6"/>
</g>
<!-- Node11 -->
<g id="node11" class="node">
<title>Node11</title>
<g id="a_node11"><a xlink:href="wld__wpaCtrlInterface_8c.html#a6024f927e9325cb624243ab3ada19169" target="_top" xlink:title=" ">
<polygon fill="white" stroke="black" points="419.5,-121 419.5,-151 539.5,-151 539.5,-121 419.5,-121"/>
<text text-anchor="start" x="427.5" y="-139" font-family="Helvetica,sans-Serif" font-size="10.00">wld_wpaCtrlInterface</text>
<text text-anchor="middle" x="479.5" y="-128" font-family="Helvetica,sans-Serif" font-size="10.00">_initWithSockName</text>
</a>
</g>
</g>
<!-- Node10&#45;&gt;Node11 -->
<g id="edge11" class="edge">
<title>Node10&#45;&gt;Node11</title>
<path fill="none" stroke="midnightblue" d="M613.19,-139.28C589.3,-138.69 562.76,-138.04 539.74,-137.47"/>
<polygon fill="midnightblue" stroke="midnightblue" points="613.17,-142.79 623.26,-139.53 613.35,-135.79 613.17,-142.79"/>
</g>
<!-- Node12 -->
<g id="node12" class="node">
<title>Node12</title>
<g id="a_node12"><a xlink:href="wld__wpaCtrlInterface_8c.html#ab633f391100bfb48cab0bb515fd4e908" target="_top" xlink:title=" ">
<polygon fill="white" stroke="black" points="205,-126.5 205,-145.5 346,-145.5 346,-126.5 205,-126.5"/>
<text text-anchor="middle" x="275.5" y="-133.5" font-family="Helvetica,sans-Serif" font-size="10.00">wld_wpaCtrlInterface_init</text>
</a>
</g>
</g>
<!-- Node11&#45;&gt;Node12 -->
<g id="edge12" class="edge">
<title>Node11&#45;&gt;Node12</title>
<path fill="none" stroke="midnightblue" d="M409.11,-136C388.74,-136 366.46,-136 346.08,-136"/>
<polygon fill="midnightblue" stroke="midnightblue" points="409.26,-139.5 419.26,-136 409.26,-132.5 409.26,-139.5"/>
</g>
<!-- Node13&#45;&gt;Node8 -->
<g id="edge14" class="edge">
<title>Node13&#45;&gt;Node8</title>
<path fill="none" stroke="midnightblue" d="M804.8,-78.03C784.71,-80.37 762.96,-82.89 743.56,-85.14"/>
<polygon fill="midnightblue" stroke="midnightblue" points="805.29,-81.5 814.82,-76.87 804.48,-74.55 805.29,-81.5"/>
</g>
<!-- Node13&#45;&gt;Node10 -->
<g id="edge15" class="edge">
<title>Node13&#45;&gt;Node10</title>
<path fill="none" stroke="midnightblue" d="M813.67,-88.76C808.65,-90.73 803.7,-92.81 799,-95 782,-102.9 780.1,-109.31 763,-117 755.72,-120.27 747.87,-123.26 740.05,-125.94"/>
<polygon fill="midnightblue" stroke="midnightblue" points="815.22,-91.92 823.36,-85.13 812.77,-85.36 815.22,-91.92"/>
</g>
<!-- Node14 -->
<g id="node14" class="node">
<title>Node14</title>
<g id="a_node14"><a xlink:href="wld__wpaCtrlMngr_8c.html#a703dcb69cf5fbbf2473edf3505b12ca1" target="_top" xlink:title=" ">
<polygon fill="white" stroke="black" points="611,-0.5 611,-19.5 756,-19.5 756,-0.5 611,-0.5"/>
<text text-anchor="middle" x="683.5" y="-7.5" font-family="Helvetica,sans-Serif" font-size="10.00">wld_wpaCtrlMngr_cleanup</text>
</a>
</g>
</g>
<!-- Node13&#45;&gt;Node14 -->
<g id="edge16" class="edge">
<title>Node13&#45;&gt;Node14</title>
<path fill="none" stroke="midnightblue" d="M827.27,-51.36C807.6,-43.88 784.36,-35.51 763,-29 751.73,-25.57 739.41,-22.34 727.93,-19.56"/>
<polygon fill="midnightblue" stroke="midnightblue" points="826.02,-54.63 836.61,-54.95 828.53,-48.1 826.02,-54.63"/>
</g>
<!-- Node17 -->
<g id="node17" class="node">
<title>Node17</title>
<g id="a_node17"><a xlink:href="wld__wpaCtrlMngr_8c.html#a65f1d3c48476ca6584852b18fc80b2d9" target="_top" xlink:title="disconnect from wpa_ctrl server">
<polygon fill="white" stroke="black" points="604,-38.5 604,-57.5 763,-57.5 763,-38.5 604,-38.5"/>
<text text-anchor="middle" x="683.5" y="-45.5" font-family="Helvetica,sans-Serif" font-size="10.00">wld_wpaCtrlMngr_disconnect</text>
</a>
</g>
</g>
<!-- Node13&#45;&gt;Node17 -->
<g id="edge19" class="edge">
<title>Node13&#45;&gt;Node17</title>
<path fill="none" stroke="midnightblue" d="M804.64,-61.95C791.12,-60.38 776.84,-58.72 763.04,-57.12"/>
<polygon fill="midnightblue" stroke="midnightblue" points="804.48,-65.45 814.82,-63.13 805.29,-58.5 804.48,-65.45"/>
</g>
<!-- Node15 -->
<g id="node15" class="node">
<title>Node15</title>
<g id="a_node15"><a xlink:href="wld__secDmn_8c.html#a6bf723465724da6f8b5fa5b8ddddf66f" target="_top" xlink:title=" ">
<polygon fill="white" stroke="black" points="418.5,-0.5 418.5,-19.5 540.5,-19.5 540.5,-0.5 418.5,-0.5"/>
<text text-anchor="middle" x="479.5" y="-7.5" font-family="Helvetica,sans-Serif" font-size="10.00">wld_secDmn_cleanup</text>
</a>
</g>
</g>
<!-- Node14&#45;&gt;Node15 -->
<g id="edge17" class="edge">
<title>Node14&#45;&gt;Node15</title>
<path fill="none" stroke="midnightblue" d="M600.88,-10C580.72,-10 559.48,-10 540.55,-10"/>
<polygon fill="midnightblue" stroke="midnightblue" points="601,-13.5 611,-10 601,-6.5 601,-13.5"/>
</g>
<!-- Node16 -->
<g id="node16" class="node">
<title>Node16</title>
<g id="a_node16"><a xlink:href="wifiGen__hapd_8c.html#af643558a6f2cae8f916cc925a5654667" target="_top" xlink:title=" ">
<polygon fill="white" stroke="black" points="212.5,-0.5 212.5,-19.5 338.5,-19.5 338.5,-0.5 212.5,-0.5"/>
<text text-anchor="middle" x="275.5" y="-7.5" font-family="Helvetica,sans-Serif" font-size="10.00">wifiGen_hapd_cleanup</text>
</a>
</g>
</g>
<!-- Node15&#45;&gt;Node16 -->
<g id="edge18" class="edge">
<title>Node15&#45;&gt;Node16</title>
<path fill="none" stroke="midnightblue" d="M408.23,-10C385.63,-10 360.77,-10 338.78,-10"/>
<polygon fill="midnightblue" stroke="midnightblue" points="408.44,-13.5 418.44,-10 408.44,-6.5 408.44,-13.5"/>
</g>
<!-- Node18 -->
<g id="node18" class="node">
<title>Node18</title>
<g id="a_node18"><a xlink:href="wld__secDmn_8c.html#a04e473c6a2f624f5ee15a91d36ca56db" target="_top" xlink:title=" ">
<polygon fill="white" stroke="black" points="415,-38.5 415,-57.5 544,-57.5 544,-38.5 415,-38.5"/>
<text text-anchor="middle" x="479.5" y="-45.5" font-family="Helvetica,sans-Serif" font-size="10.00">wld_secDmn_restartCb</text>
</a>
</g>
</g>
<!-- Node17&#45;&gt;Node18 -->
<g id="edge20" class="edge">
<title>Node17&#45;&gt;Node18</title>
<path fill="none" stroke="midnightblue" d="M593.57,-48C576.98,-48 559.94,-48 544.3,-48"/>
<polygon fill="midnightblue" stroke="midnightblue" points="593.82,-51.5 603.82,-48 593.82,-44.5 593.82,-51.5"/>
</g>
<!-- Node19 -->
<g id="node19" class="node">
<title>Node19</title>
<g id="a_node19"><a xlink:href="wld__secDmn_8c.html#a161897b21440ea0885b570829da259fc" target="_top" xlink:title=" ">
<polygon fill="white" stroke="black" points="427,-76.5 427,-95.5 532,-95.5 532,-76.5 427,-76.5"/>
<text text-anchor="middle" x="479.5" y="-83.5" font-family="Helvetica,sans-Serif" font-size="10.00">wld_secDmn_stop</text>
</a>
</g>
</g>
<!-- Node17&#45;&gt;Node19 -->
<g id="edge21" class="edge">
<title>Node17&#45;&gt;Node19</title>
<path fill="none" stroke="midnightblue" d="M621.8,-59.42C592.9,-64.86 558.73,-71.28 531.23,-76.46"/>
<polygon fill="midnightblue" stroke="midnightblue" points="622.61,-62.83 631.79,-57.54 621.31,-55.95 622.61,-62.83"/>
</g>
<!-- Node20 -->
<g id="node20" class="node">
<title>Node20</title>
<g id="a_node20"><a xlink:href="wifiGen__hapd_8c.html#a75688dec0e4ad675142a71010b2b536a" target="_top" xlink:title=" ">
<polygon fill="white" stroke="black" points="200.5,-76.5 200.5,-95.5 350.5,-95.5 350.5,-76.5 200.5,-76.5"/>
<text text-anchor="middle" x="275.5" y="-83.5" font-family="Helvetica,sans-Serif" font-size="10.00">wifiGen_hapd_stopDaemon</text>
</a>
</g>
</g>
<!-- Node19&#45;&gt;Node20 -->
<g id="edge22" class="edge">
<title>Node19&#45;&gt;Node20</title>
<path fill="none" stroke="midnightblue" d="M416.73,-86C395.85,-86 372.33,-86 350.6,-86"/>
<polygon fill="midnightblue" stroke="midnightblue" points="416.74,-89.5 426.74,-86 416.74,-82.5 416.74,-89.5"/>
</g>
</g>
</svg>
