<?xml version="1.0" encoding="UTF-8" standalone="no"?>
<!DOCTYPE svg PUBLIC "-//W3C//DTD SVG 1.1//EN"
 "http://www.w3.org/Graphics/SVG/1.1/DTD/svg11.dtd">
<!-- Generated by graphviz version 2.43.0 (0)
 -->
<!-- Title: wldu_checkWpsPinStr Pages: 1 -->
<svg width="283pt" height="66pt"
 viewBox="0.00 0.00 283.00 66.00" xmlns="http://www.w3.org/2000/svg" xmlns:xlink="http://www.w3.org/1999/xlink">
<g id="graph0" class="graph" transform="scale(1 1) rotate(0) translate(4 62)">
<title>wldu_checkWpsPinStr</title>
<polygon fill="white" stroke="transparent" points="-4,4 -4,-62 279,-62 279,4 -4,4"/>
<!-- Node1 -->
<g id="node1" class="node">
<title>Node1</title>
<g id="a_node1"><a xlink:title=" ">
<polygon fill="#bfbfbf" stroke="black" points="0,-19.5 0,-38.5 123,-38.5 123,-19.5 0,-19.5"/>
<text text-anchor="middle" x="61.5" y="-26.5" font-family="Helvetica,sans-Serif" font-size="10.00">wldu_checkWpsPinStr</text>
</a>
</g>
</g>
<!-- Node2 -->
<g id="node2" class="node">
<title>Node2</title>
<g id="a_node2"><a xlink:href="wld__util_8c.html#a1885348d15676dcae318538076904ed3" target="_top" xlink:title=" ">
<polygon fill="white" stroke="black" points="159,-38.5 159,-57.5 275,-57.5 275,-38.5 159,-38.5"/>
<text text-anchor="middle" x="217" y="-45.5" font-family="Helvetica,sans-Serif" font-size="10.00">wldu_convStrToNum</text>
</a>
</g>
</g>
<!-- Node1&#45;&gt;Node2 -->
<g id="edge1" class="edge">
<title>Node1&#45;&gt;Node2</title>
<path fill="none" stroke="midnightblue" d="M123.17,-36.51C131.6,-37.55 140.3,-38.63 148.85,-39.69"/>
<polygon fill="midnightblue" stroke="midnightblue" points="148.42,-43.16 158.77,-40.92 149.28,-36.21 148.42,-43.16"/>
</g>
<!-- Node3 -->
<g id="node3" class="node">
<title>Node3</title>
<g id="a_node3"><a xlink:href="wld__util_8c.html#a484ad36a27282cb8ba60d80e1485d858" target="_top" xlink:title=" ">
<polygon fill="white" stroke="black" points="179.5,-0.5 179.5,-19.5 254.5,-19.5 254.5,-0.5 179.5,-0.5"/>
<text text-anchor="middle" x="217" y="-7.5" font-family="Helvetica,sans-Serif" font-size="10.00">wpsPinValid</text>
</a>
</g>
</g>
<!-- Node1&#45;&gt;Node3 -->
<g id="edge2" class="edge">
<title>Node1&#45;&gt;Node3</title>
<path fill="none" stroke="midnightblue" d="M123.17,-21.49C138.41,-19.6 154.53,-17.61 168.99,-15.82"/>
<polygon fill="midnightblue" stroke="midnightblue" points="169.7,-19.26 179.19,-14.56 168.84,-12.31 169.7,-19.26"/>
</g>
</g>
</svg>
