<?xml version="1.0" encoding="UTF-8" standalone="no"?>
<!DOCTYPE svg PUBLIC "-//W3C//DTD SVG 1.1//EN"
 "http://www.w3.org/Graphics/SVG/1.1/DTD/svg11.dtd">
<!-- Generated by graphviz version 2.43.0 (0)
 -->
<!-- Title: _addVAPIntf Pages: 1 -->
<svg width="413pt" height="104pt"
 viewBox="0.00 0.00 413.00 104.00" xmlns="http://www.w3.org/2000/svg" xmlns:xlink="http://www.w3.org/1999/xlink">
<g id="graph0" class="graph" transform="scale(1 1) rotate(0) translate(4 100)">
<title>_addVAPIntf</title>
<polygon fill="white" stroke="transparent" points="-4,4 -4,-100 409,-100 409,4 -4,4"/>
<!-- Node1 -->
<g id="node1" class="node">
<title>Node1</title>
<g id="a_node1"><a xlink:title=" ">
<polygon fill="#bfbfbf" stroke="black" points="0,-38.5 0,-57.5 75,-57.5 75,-38.5 0,-38.5"/>
<text text-anchor="middle" x="37.5" y="-45.5" font-family="Helvetica,sans-Serif" font-size="10.00">_addVAPIntf</text>
</a>
</g>
</g>
<!-- Node2 -->
<g id="node2" class="node">
<title>Node2</title>
<g id="a_node2"><a xlink:href="wld_8c.html#a0509a117a7c60ae778f6d72901982404" target="_top" xlink:title=" ">
<polygon fill="white" stroke="black" points="139.5,-76.5 139.5,-95.5 250.5,-95.5 250.5,-76.5 139.5,-76.5"/>
<text text-anchor="middle" x="195" y="-83.5" font-family="Helvetica,sans-Serif" font-size="10.00">get_wld_plugin_dm</text>
</a>
</g>
</g>
<!-- Node1&#45;&gt;Node2 -->
<g id="edge1" class="edge">
<title>Node1&#45;&gt;Node2</title>
<path fill="none" stroke="midnightblue" d="M74.21,-57.6C85.92,-60.68 99,-64.05 111,-67 120.8,-69.4 131.27,-71.88 141.36,-74.21"/>
<polygon fill="midnightblue" stroke="midnightblue" points="140.76,-77.66 151.29,-76.49 142.33,-70.84 140.76,-77.66"/>
</g>
<!-- Node3 -->
<g id="node3" class="node">
<title>Node3</title>
<g id="a_node3"><a xlink:href="wld__radio_8c.html#ac9dc32221b26911d19953223d04acef6" target="_top" xlink:title=" ">
<polygon fill="white" stroke="black" points="123,-38.5 123,-57.5 267,-57.5 267,-38.5 123,-38.5"/>
<text text-anchor="middle" x="195" y="-45.5" font-family="Helvetica,sans-Serif" font-size="10.00">wld_getRadioDataHandler</text>
</a>
</g>
</g>
<!-- Node1&#45;&gt;Node3 -->
<g id="edge2" class="edge">
<title>Node1&#45;&gt;Node3</title>
<path fill="none" stroke="midnightblue" d="M75.35,-48C86.73,-48 99.74,-48 112.89,-48"/>
<polygon fill="midnightblue" stroke="midnightblue" points="112.94,-51.5 122.94,-48 112.94,-44.5 112.94,-51.5"/>
</g>
<!-- Node4 -->
<g id="node4" class="node">
<title>Node4</title>
<g id="a_node4"><a xlink:href="wld__util_8c.html#a4b4c28f52ac6ac0a79226c177bcb255f" target="_top" xlink:title=" ">
<polygon fill="white" stroke="black" points="111,-0.5 111,-19.5 279,-19.5 279,-0.5 111,-0.5"/>
<text text-anchor="middle" x="195" y="-7.5" font-family="Helvetica,sans-Serif" font-size="10.00">wld_util_getRealReferencePath</text>
</a>
</g>
</g>
<!-- Node1&#45;&gt;Node4 -->
<g id="edge3" class="edge">
<title>Node1&#45;&gt;Node4</title>
<path fill="none" stroke="midnightblue" d="M74.21,-38.4C85.92,-35.32 99,-31.95 111,-29 120.8,-26.6 131.27,-24.12 141.36,-21.79"/>
<polygon fill="midnightblue" stroke="midnightblue" points="142.33,-25.16 151.29,-19.51 140.76,-18.34 142.33,-25.16"/>
</g>
<!-- Node5 -->
<g id="node5" class="node">
<title>Node5</title>
<g id="a_node5"><a xlink:href="wld_8c.html#a86eb0dd5db7f6f4c724e09f6d1b831d8" target="_top" xlink:title=" ">
<polygon fill="white" stroke="black" points="315,-0.5 315,-19.5 405,-19.5 405,-0.5 315,-0.5"/>
<text text-anchor="middle" x="360" y="-7.5" font-family="Helvetica,sans-Serif" font-size="10.00">get_wld_object</text>
</a>
</g>
</g>
<!-- Node4&#45;&gt;Node5 -->
<g id="edge4" class="edge">
<title>Node4&#45;&gt;Node5</title>
<path fill="none" stroke="midnightblue" d="M279.41,-10C288,-10 296.56,-10 304.72,-10"/>
<polygon fill="midnightblue" stroke="midnightblue" points="304.8,-13.5 314.8,-10 304.8,-6.5 304.8,-13.5"/>
</g>
</g>
</svg>
