<?xml version="1.0" encoding="UTF-8" standalone="no"?>
<!DOCTYPE svg PUBLIC "-//W3C//DTD SVG 1.1//EN"
 "http://www.w3.org/Graphics/SVG/1.1/DTD/svg11.dtd">
<!-- Generated by graphviz version 2.43.0 (0)
 -->
<!-- Title: wld_rad_hasActiveIface Pages: 1 -->
<svg width="336pt" height="104pt"
 viewBox="0.00 0.00 336.00 104.00" xmlns="http://www.w3.org/2000/svg" xmlns:xlink="http://www.w3.org/1999/xlink">
<g id="graph0" class="graph" transform="scale(1 1) rotate(0) translate(4 100)">
<title>wld_rad_hasActiveIface</title>
<polygon fill="white" stroke="transparent" points="-4,4 -4,-100 332,-100 332,4 -4,4"/>
<!-- Node1 -->
<g id="node1" class="node">
<title>Node1</title>
<g id="a_node1"><a xlink:title=" ">
<polygon fill="#bfbfbf" stroke="black" points="196,-38.5 196,-57.5 328,-57.5 328,-38.5 196,-38.5"/>
<text text-anchor="middle" x="262" y="-45.5" font-family="Helvetica,sans-Serif" font-size="10.00">wld_rad_hasActiveIface</text>
</a>
</g>
</g>
<!-- Node2 -->
<g id="node2" class="node">
<title>Node2</title>
<g id="a_node2"><a xlink:href="wifiGen__rad_8c.html#afcba2a85022aa299811538d597d695de" target="_top" xlink:title=" ">
<polygon fill="white" stroke="black" points="0,-76.5 0,-95.5 160,-95.5 160,-76.5 0,-76.5"/>
<text text-anchor="middle" x="80" y="-83.5" font-family="Helvetica,sans-Serif" font-size="10.00">wifiGen_rad_getTxPowerdBm</text>
</a>
</g>
</g>
<!-- Node1&#45;&gt;Node2 -->
<g id="edge1" class="edge">
<title>Node1&#45;&gt;Node2</title>
<path fill="none" stroke="midnightblue" d="M205.67,-59.68C180.14,-65.07 150.22,-71.39 126.09,-76.48"/>
<polygon fill="midnightblue" stroke="midnightblue" points="206.52,-63.08 215.58,-57.59 205.07,-56.23 206.52,-63.08"/>
</g>
<!-- Node3 -->
<g id="node3" class="node">
<title>Node3</title>
<g id="a_node3"><a xlink:href="wifiGen__rad_8c.html#afac25ba3d1cac3746971c9fd591c2d1b" target="_top" xlink:title=" ">
<polygon fill="white" stroke="black" points="25,-38.5 25,-57.5 135,-57.5 135,-38.5 25,-38.5"/>
<text text-anchor="middle" x="80" y="-45.5" font-family="Helvetica,sans-Serif" font-size="10.00">wifiGen_rad_status</text>
</a>
</g>
</g>
<!-- Node1&#45;&gt;Node3 -->
<g id="edge2" class="edge">
<title>Node1&#45;&gt;Node3</title>
<path fill="none" stroke="midnightblue" d="M185.36,-48C168.47,-48 150.88,-48 135.07,-48"/>
<polygon fill="midnightblue" stroke="midnightblue" points="185.76,-51.5 195.76,-48 185.76,-44.5 185.76,-51.5"/>
</g>
<!-- Node4 -->
<g id="node4" class="node">
<title>Node4</title>
<g id="a_node4"><a xlink:href="wifiGen__rad_8c.html#a65e1e8b585dc92e66407f6c90bff7db2" target="_top" xlink:title=" ">
<polygon fill="white" stroke="black" points="25,-0.5 25,-19.5 135,-19.5 135,-0.5 25,-0.5"/>
<text text-anchor="middle" x="80" y="-7.5" font-family="Helvetica,sans-Serif" font-size="10.00">wifiGen_rad_txpow</text>
</a>
</g>
</g>
<!-- Node1&#45;&gt;Node4 -->
<g id="edge3" class="edge">
<title>Node1&#45;&gt;Node4</title>
<path fill="none" stroke="midnightblue" d="M205.67,-36.32C180.14,-30.93 150.22,-24.61 126.09,-19.52"/>
<polygon fill="midnightblue" stroke="midnightblue" points="205.07,-39.77 215.58,-38.41 206.52,-32.92 205.07,-39.77"/>
</g>
</g>
</svg>
