<?xml version="1.0" encoding="UTF-8" standalone="no"?>
<!DOCTYPE svg PUBLIC "-//W3C//DTD SVG 1.1//EN"
 "http://www.w3.org/Graphics/SVG/1.1/DTD/svg11.dtd">
<!-- Generated by graphviz version 2.43.0 (0)
 -->
<!-- Title: wld_secDmn_getGrp Pages: 1 -->
<svg width="535pt" height="151pt"
 viewBox="0.00 0.00 535.00 151.00" xmlns="http://www.w3.org/2000/svg" xmlns:xlink="http://www.w3.org/1999/xlink">
<g id="graph0" class="graph" transform="scale(1 1) rotate(0) translate(4 147)">
<title>wld_secDmn_getGrp</title>
<polygon fill="white" stroke="transparent" points="-4,4 -4,-147 531,-147 531,4 -4,4"/>
<!-- Node1 -->
<g id="node1" class="node">
<title>Node1</title>
<g id="a_node1"><a xlink:title=" ">
<polygon fill="#bfbfbf" stroke="black" points="410,-44.5 410,-63.5 527,-63.5 527,-44.5 410,-44.5"/>
<text text-anchor="middle" x="468.5" y="-51.5" font-family="Helvetica,sans-Serif" font-size="10.00">wld_secDmn_getGrp</text>
</a>
</g>
</g>
<!-- Node2 -->
<g id="node2" class="node">
<title>Node2</title>
<g id="a_node2"><a xlink:href="wifiGen__hapd_8c.html#a2671410f51adadb1692d7eccb1edc89c" target="_top" xlink:title=" ">
<polygon fill="white" stroke="black" points="196,-88.5 196,-107.5 374,-107.5 374,-88.5 196,-88.5"/>
<text text-anchor="middle" x="285" y="-95.5" font-family="Helvetica,sans-Serif" font-size="10.00">wifiGen_hapd_countGrpMembers</text>
</a>
</g>
</g>
<!-- Node1&#45;&gt;Node2 -->
<g id="edge1" class="edge">
<title>Node1&#45;&gt;Node2</title>
<path fill="none" stroke="midnightblue" d="M421.08,-66.19C406.07,-70.05 389.35,-74.29 374,-78 359.38,-81.54 343.35,-85.23 329.02,-88.47"/>
<polygon fill="midnightblue" stroke="midnightblue" points="422.34,-69.47 431.15,-63.58 420.59,-62.7 422.34,-69.47"/>
</g>
<!-- Node5 -->
<g id="node5" class="node">
<title>Node5</title>
<g id="a_node5"><a xlink:href="wld__secDmn_8c.html#a02e589b0c9a457e6d5f9d0b2081f1ff5" target="_top" xlink:title=" ">
<polygon fill="white" stroke="black" points="205.5,-39 205.5,-69 364.5,-69 364.5,-39 205.5,-39"/>
<text text-anchor="start" x="213.5" y="-57" font-family="Helvetica,sans-Serif" font-size="10.00">wld_secDmn_countActiveGrp</text>
<text text-anchor="middle" x="285" y="-46" font-family="Helvetica,sans-Serif" font-size="10.00">Members</text>
</a>
</g>
</g>
<!-- Node1&#45;&gt;Node5 -->
<g id="edge4" class="edge">
<title>Node1&#45;&gt;Node5</title>
<path fill="none" stroke="midnightblue" d="M399.56,-54C388.21,-54 376.35,-54 364.76,-54"/>
<polygon fill="midnightblue" stroke="midnightblue" points="399.82,-57.5 409.82,-54 399.82,-50.5 399.82,-57.5"/>
</g>
<!-- Node7 -->
<g id="node7" class="node">
<title>Node7</title>
<g id="a_node7"><a xlink:href="wld__secDmn_8c.html#a88e1c5b6b4052d577d7839ba2cc53ad2" target="_top" xlink:title=" ">
<polygon fill="white" stroke="black" points="198,-0.5 198,-19.5 372,-19.5 372,-0.5 198,-0.5"/>
<text text-anchor="middle" x="285" y="-7.5" font-family="Helvetica,sans-Serif" font-size="10.00">wld_secDmn_countGrpMembers</text>
</a>
</g>
</g>
<!-- Node1&#45;&gt;Node7 -->
<g id="edge6" class="edge">
<title>Node1&#45;&gt;Node7</title>
<path fill="none" stroke="midnightblue" d="M423.5,-41.76C407.91,-37.55 390.21,-32.92 374,-29 360.48,-25.73 345.72,-22.44 332.22,-19.54"/>
<polygon fill="midnightblue" stroke="midnightblue" points="422.84,-45.21 433.41,-44.46 424.68,-38.46 422.84,-45.21"/>
</g>
<!-- Node3 -->
<g id="node3" class="node">
<title>Node3</title>
<g id="a_node3"><a xlink:href="wifiGen__hapd_8c.html#a3316988b243476f9ae97626a068d4d04" target="_top" xlink:title=" ">
<polygon fill="white" stroke="black" points="0,-123.5 0,-142.5 160,-142.5 160,-123.5 0,-123.5"/>
<text text-anchor="middle" x="80" y="-130.5" font-family="Helvetica,sans-Serif" font-size="10.00">wifiGen_hapd_reloadDaemon</text>
</a>
</g>
</g>
<!-- Node2&#45;&gt;Node3 -->
<g id="edge2" class="edge">
<title>Node2&#45;&gt;Node3</title>
<path fill="none" stroke="midnightblue" d="M218.8,-109.24C192.17,-113.83 161.7,-119.09 136.19,-123.48"/>
<polygon fill="midnightblue" stroke="midnightblue" points="219.54,-112.67 228.8,-107.52 218.35,-105.77 219.54,-112.67"/>
</g>
<!-- Node4 -->
<g id="node4" class="node">
<title>Node4</title>
<g id="a_node4"><a xlink:href="wifiGen__rad_8c.html#a99b90477eeb3ee4e29b87752bbcffe2f" target="_top" xlink:title=" ">
<polygon fill="white" stroke="black" points="0.5,-85.5 0.5,-104.5 159.5,-104.5 159.5,-85.5 0.5,-85.5"/>
<text text-anchor="middle" x="80" y="-92.5" font-family="Helvetica,sans-Serif" font-size="10.00">wifiGen_rad_miscHasSupport</text>
</a>
</g>
</g>
<!-- Node2&#45;&gt;Node4 -->
<g id="edge3" class="edge">
<title>Node2&#45;&gt;Node4</title>
<path fill="none" stroke="midnightblue" d="M185.6,-96.55C176.85,-96.42 168.06,-96.29 159.5,-96.16"/>
<polygon fill="midnightblue" stroke="midnightblue" points="185.8,-100.05 195.85,-96.7 185.9,-93.05 185.8,-100.05"/>
</g>
<!-- Node6 -->
<g id="node6" class="node">
<title>Node6</title>
<g id="a_node6"><a xlink:href="wld__secDmn_8c.html#a2ef4347d15906169439607244d607cc8" target="_top" xlink:title=" ">
<polygon fill="white" stroke="black" points="4.5,-44.5 4.5,-63.5 155.5,-63.5 155.5,-44.5 4.5,-44.5"/>
<text text-anchor="middle" x="80" y="-51.5" font-family="Helvetica,sans-Serif" font-size="10.00">wld_secDmn_isActiveAlone</text>
</a>
</g>
</g>
<!-- Node5&#45;&gt;Node6 -->
<g id="edge5" class="edge">
<title>Node5&#45;&gt;Node6</title>
<path fill="none" stroke="midnightblue" d="M195.22,-54C182.05,-54 168.59,-54 155.74,-54"/>
<polygon fill="midnightblue" stroke="midnightblue" points="195.22,-57.5 205.22,-54 195.22,-50.5 195.22,-57.5"/>
</g>
</g>
</svg>
