<?xml version="1.0" encoding="UTF-8" standalone="no"?>
<!DOCTYPE svg PUBLIC "-//W3C//DTD SVG 1.1//EN"
 "http://www.w3.org/Graphics/SVG/1.1/DTD/svg11.dtd">
<!-- Generated by graphviz version 2.43.0 (0)
 -->
<!-- Title: _sync Pages: 1 -->
<svg width="546pt" height="66pt"
 viewBox="0.00 0.00 546.00 66.00" xmlns="http://www.w3.org/2000/svg" xmlns:xlink="http://www.w3.org/1999/xlink">
<g id="graph0" class="graph" transform="scale(1 1) rotate(0) translate(4 62)">
<title>_sync</title>
<polygon fill="white" stroke="transparent" points="-4,4 -4,-62 542,-62 542,4 -4,4"/>
<!-- Node1 -->
<g id="node1" class="node">
<title>Node1</title>
<g id="a_node1"><a xlink:title=" ">
<polygon fill="#bfbfbf" stroke="black" points="0,-19.5 0,-38.5 44,-38.5 44,-19.5 0,-19.5"/>
<text text-anchor="middle" x="22" y="-26.5" font-family="Helvetica,sans-Serif" font-size="10.00">_sync</text>
</a>
</g>
</g>
<!-- Node2 -->
<g id="node2" class="node">
<title>Node2</title>
<g id="a_node2"><a xlink:href="wld__radio_8c.html#a807685db44775863c85c73c632336685" target="_top" xlink:title=" ">
<polygon fill="white" stroke="black" points="80,-19.5 80,-38.5 175,-38.5 175,-19.5 80,-19.5"/>
<text text-anchor="middle" x="127.5" y="-26.5" font-family="Helvetica,sans-Serif" font-size="10.00">wld_rad_doSync</text>
</a>
</g>
</g>
<!-- Node1&#45;&gt;Node2 -->
<g id="edge1" class="edge">
<title>Node1&#45;&gt;Node2</title>
<path fill="none" stroke="midnightblue" d="M44.19,-29C51.67,-29 60.47,-29 69.49,-29"/>
<polygon fill="midnightblue" stroke="midnightblue" points="69.7,-32.5 79.7,-29 69.7,-25.5 69.7,-32.5"/>
</g>
<!-- Node3 -->
<g id="node3" class="node">
<title>Node3</title>
<g id="a_node3"><a xlink:href="wld__autoCommitMgr_8c.html#aee76501d88846dd4f7277d2f4c2e118e" target="_top" xlink:title=" ">
<polygon fill="white" stroke="black" points="211,-14 211,-44 363,-44 363,-14 211,-14"/>
<text text-anchor="start" x="219" y="-32" font-family="Helvetica,sans-Serif" font-size="10.00">wld_autoCommitMgr_notify</text>
<text text-anchor="middle" x="287" y="-21" font-family="Helvetica,sans-Serif" font-size="10.00">RadEdit</text>
</a>
</g>
</g>
<!-- Node2&#45;&gt;Node3 -->
<g id="edge2" class="edge">
<title>Node2&#45;&gt;Node3</title>
<path fill="none" stroke="midnightblue" d="M175.33,-29C183.35,-29 191.89,-29 200.55,-29"/>
<polygon fill="midnightblue" stroke="midnightblue" points="200.74,-32.5 210.74,-29 200.74,-25.5 200.74,-32.5"/>
</g>
<!-- Node4 -->
<g id="node4" class="node">
<title>Node4</title>
<g id="a_node4"><a xlink:href="wld__util_8c.html#a661cdf0ccc273192d3c1ff05be929a74" target="_top" xlink:title=" ">
<polygon fill="white" stroke="black" points="410.5,-38.5 410.5,-57.5 526.5,-57.5 526.5,-38.5 410.5,-38.5"/>
<text text-anchor="middle" x="468.5" y="-45.5" font-family="Helvetica,sans-Serif" font-size="10.00">areBitsSetLongArray</text>
</a>
</g>
</g>
<!-- Node3&#45;&gt;Node4 -->
<g id="edge3" class="edge">
<title>Node3&#45;&gt;Node4</title>
<path fill="none" stroke="midnightblue" d="M363.08,-36.95C375.47,-38.26 388.23,-39.61 400.41,-40.9"/>
<polygon fill="midnightblue" stroke="midnightblue" points="400.16,-44.39 410.47,-41.96 400.89,-37.43 400.16,-44.39"/>
</g>
<!-- Node5 -->
<g id="node5" class="node">
<title>Node5</title>
<g id="a_node5"><a xlink:href="wld__autoCommitMgr_8c.html#acab57ef23b64ab88021260d7c900c4d2" target="_top" xlink:title=" ">
<polygon fill="white" stroke="black" points="399,-0.5 399,-19.5 538,-19.5 538,-0.5 399,-0.5"/>
<text text-anchor="middle" x="468.5" y="-7.5" font-family="Helvetica,sans-Serif" font-size="10.00">s_startRadioAutoCommit</text>
</a>
</g>
</g>
<!-- Node3&#45;&gt;Node5 -->
<g id="edge4" class="edge">
<title>Node3&#45;&gt;Node5</title>
<path fill="none" stroke="midnightblue" d="M363.08,-21.05C371.48,-20.16 380.06,-19.26 388.51,-18.36"/>
<polygon fill="midnightblue" stroke="midnightblue" points="389.15,-21.81 398.73,-17.28 388.42,-14.85 389.15,-21.81"/>
</g>
</g>
</svg>
