<?xml version="1.0" encoding="UTF-8" standalone="no"?>
<!DOCTYPE svg PUBLIC "-//W3C//DTD SVG 1.1//EN"
 "http://www.w3.org/Graphics/SVG/1.1/DTD/svg11.dtd">
<!-- Generated by graphviz version 2.43.0 (0)
 -->
<!-- Title: wld_wps_sendPairingNotification Pages: 1 -->
<svg width="369pt" height="66pt"
 viewBox="0.00 0.00 369.00 66.00" xmlns="http://www.w3.org/2000/svg" xmlns:xlink="http://www.w3.org/1999/xlink">
<g id="graph0" class="graph" transform="scale(1 1) rotate(0) translate(4 62)">
<title>wld_wps_sendPairingNotification</title>
<polygon fill="white" stroke="transparent" points="-4,4 -4,-62 365,-62 365,4 -4,4"/>
<!-- Node1 -->
<g id="node1" class="node">
<title>Node1</title>
<g id="a_node1"><a xlink:title=" ">
<polygon fill="#bfbfbf" stroke="black" points="0,-19.5 0,-38.5 176,-38.5 176,-19.5 0,-19.5"/>
<text text-anchor="middle" x="88" y="-26.5" font-family="Helvetica,sans-Serif" font-size="10.00">wld_wps_sendPairingNotification</text>
</a>
</g>
</g>
<!-- Node2 -->
<g id="node2" class="node">
<title>Node2</title>
<g id="a_node2"><a xlink:href="wld__wps_8c.html#ab88e265a279fdb32599eea81735fc2dc" target="_top" xlink:title=" ">
<polygon fill="white" stroke="black" points="231,-38.5 231,-57.5 342,-57.5 342,-38.5 231,-38.5"/>
<text text-anchor="middle" x="286.5" y="-45.5" font-family="Helvetica,sans-Serif" font-size="10.00">s_startPairingTimer</text>
</a>
</g>
</g>
<!-- Node1&#45;&gt;Node2 -->
<g id="edge1" class="edge">
<title>Node1&#45;&gt;Node2</title>
<path fill="none" stroke="midnightblue" d="M176.05,-37.42C191.08,-38.87 206.47,-40.36 220.78,-41.74"/>
<polygon fill="midnightblue" stroke="midnightblue" points="220.7,-45.25 230.99,-42.73 221.37,-38.28 220.7,-45.25"/>
</g>
<!-- Node3 -->
<g id="node3" class="node">
<title>Node3</title>
<g id="a_node3"><a xlink:href="wld__wps_8c.html#a5dceb4d8f6e321022124f251f59e9d7b" target="_top" xlink:title=" ">
<polygon fill="white" stroke="black" points="212,-0.5 212,-19.5 361,-19.5 361,-0.5 212,-0.5"/>
<text text-anchor="middle" x="286.5" y="-7.5" font-family="Helvetica,sans-Serif" font-size="10.00">wld_wps_clearPairingTimer</text>
</a>
</g>
</g>
<!-- Node1&#45;&gt;Node3 -->
<g id="edge2" class="edge">
<title>Node1&#45;&gt;Node3</title>
<path fill="none" stroke="midnightblue" d="M176.05,-20.58C184.51,-19.76 193.09,-18.94 201.53,-18.12"/>
<polygon fill="midnightblue" stroke="midnightblue" points="202.11,-21.58 211.73,-17.13 201.44,-14.61 202.11,-21.58"/>
</g>
</g>
</svg>
