<?xml version="1.0" encoding="UTF-8" standalone="no"?>
<!DOCTYPE svg PUBLIC "-//W3C//DTD SVG 1.1//EN"
 "http://www.w3.org/Graphics/SVG/1.1/DTD/svg11.dtd">
<!-- Generated by graphviz version 2.43.0 (0)
 -->
<!-- Title: wld_rad_nl80211_abortScan Pages: 1 -->
<svg width="939pt" height="116pt"
 viewBox="0.00 0.00 939.00 115.50" xmlns="http://www.w3.org/2000/svg" xmlns:xlink="http://www.w3.org/1999/xlink">
<g id="graph0" class="graph" transform="scale(1 1) rotate(0) translate(4 111.5)">
<title>wld_rad_nl80211_abortScan</title>
<polygon fill="white" stroke="transparent" points="-4,4 -4,-111.5 935,-111.5 935,4 -4,4"/>
<!-- Node1 -->
<g id="node1" class="node">
<title>Node1</title>
<g id="a_node1"><a xlink:title=" ">
<polygon fill="#bfbfbf" stroke="black" points="0,-50 0,-69 153,-69 153,-50 0,-50"/>
<text text-anchor="middle" x="76.5" y="-57" font-family="Helvetica,sans-Serif" font-size="10.00">wld_rad_nl80211_abortScan</text>
</a>
</g>
</g>
<!-- Node2 -->
<g id="node2" class="node">
<title>Node2</title>
<g id="a_node2"><a xlink:href="wld__nl80211__api_8c.html#a2f4aebd7b76c2f3fedc0a004380763f9" target="_top" xlink:title=" ">
<polygon fill="white" stroke="black" points="203,-88 203,-107 335,-107 335,-88 203,-88"/>
<text text-anchor="middle" x="269" y="-95" font-family="Helvetica,sans-Serif" font-size="10.00">wld_nl80211_abortScan</text>
</a>
</g>
</g>
<!-- Node1&#45;&gt;Node2 -->
<g id="edge1" class="edge">
<title>Node1&#45;&gt;Node2</title>
<path fill="none" stroke="midnightblue" d="M125.57,-69.09C151.28,-74.22 183.11,-80.57 210.16,-85.96"/>
<polygon fill="midnightblue" stroke="midnightblue" points="209.78,-89.46 220.27,-87.98 211.15,-82.59 209.78,-89.46"/>
</g>
<!-- Node6 -->
<g id="node6" class="node">
<title>Node6</title>
<g id="a_node6"><a xlink:href="wld__nl80211__core_8c.html#ab89990c364e3256f803e95aee1684407" target="_top" xlink:title=" ">
<polygon fill="white" stroke="black" points="190,-50 190,-69 348,-69 348,-50 190,-50"/>
<text text-anchor="middle" x="269" y="-57" font-family="Helvetica,sans-Serif" font-size="10.00">wld_nl80211_getSharedState</text>
</a>
</g>
</g>
<!-- Node1&#45;&gt;Node6 -->
<g id="edge5" class="edge">
<title>Node1&#45;&gt;Node6</title>
<path fill="none" stroke="midnightblue" d="M153.06,-59.5C161.82,-59.5 170.81,-59.5 179.71,-59.5"/>
<polygon fill="midnightblue" stroke="midnightblue" points="179.72,-63 189.72,-59.5 179.72,-56 179.72,-63"/>
</g>
<!-- Node8 -->
<g id="node8" class="node">
<title>Node8</title>
<g id="a_node8"><a xlink:href="wld__radio_8c.html#ae211359fd0e7548777cf5bd312ffb8c3" target="_top" xlink:title=" ">
<polygon fill="white" stroke="black" points="189,-0.5 189,-30.5 349,-30.5 349,-0.5 189,-0.5"/>
<text text-anchor="start" x="197" y="-18.5" font-family="Helvetica,sans-Serif" font-size="10.00">wld_rad_getFirstEnabledIface</text>
<text text-anchor="middle" x="269" y="-7.5" font-family="Helvetica,sans-Serif" font-size="10.00">Index</text>
</a>
</g>
</g>
<!-- Node1&#45;&gt;Node8 -->
<g id="edge7" class="edge">
<title>Node1&#45;&gt;Node8</title>
<path fill="none" stroke="midnightblue" d="M118.84,-49.95C140.48,-44.95 167.65,-38.68 192.86,-32.86"/>
<polygon fill="midnightblue" stroke="midnightblue" points="193.82,-36.23 202.77,-30.57 192.24,-29.41 193.82,-36.23"/>
</g>
<!-- Node3 -->
<g id="node3" class="node">
<title>Node3</title>
<g id="a_node3"><a xlink:href="wld__nl80211__core_8c.html#a2f124c7a531325213fab90ab2a181035" target="_top" xlink:title=" ">
<polygon fill="white" stroke="black" points="385,-88 385,-107 578,-107 578,-88 385,-88"/>
<text text-anchor="middle" x="481.5" y="-95" font-family="Helvetica,sans-Serif" font-size="10.00">wld_nl80211_sendCmdSyncWithAck</text>
</a>
</g>
</g>
<!-- Node2&#45;&gt;Node3 -->
<g id="edge2" class="edge">
<title>Node2&#45;&gt;Node3</title>
<path fill="none" stroke="midnightblue" d="M335.16,-97.5C347.67,-97.5 361.07,-97.5 374.48,-97.5"/>
<polygon fill="midnightblue" stroke="midnightblue" points="374.73,-101 384.73,-97.5 374.73,-94 374.73,-101"/>
</g>
<!-- Node4 -->
<g id="node4" class="node">
<title>Node4</title>
<g id="a_node4"><a xlink:href="wld__nl80211__core_8c.html#a51795ba7297b263584b02e6dd2d8ddb6" target="_top" xlink:title=" ">
<polygon fill="white" stroke="black" points="614,-88 614,-107 766,-107 766,-88 614,-88"/>
<text text-anchor="middle" x="690" y="-95" font-family="Helvetica,sans-Serif" font-size="10.00">wld_nl80211_sendCmdSync</text>
</a>
</g>
</g>
<!-- Node3&#45;&gt;Node4 -->
<g id="edge3" class="edge">
<title>Node3&#45;&gt;Node4</title>
<path fill="none" stroke="midnightblue" d="M578.19,-97.5C586.67,-97.5 595.21,-97.5 603.6,-97.5"/>
<polygon fill="midnightblue" stroke="midnightblue" points="603.72,-101 613.72,-97.5 603.72,-94 603.72,-101"/>
</g>
<!-- Node5 -->
<g id="node5" class="node">
<title>Node5</title>
<g id="a_node5"><a xlink:href="wld__nl80211__core_8c.html#a3c5a525596463f925b95bbc76036d07e" target="_top" xlink:title=" ">
<polygon fill="white" stroke="black" points="802,-88 802,-107 931,-107 931,-88 802,-88"/>
<text text-anchor="middle" x="866.5" y="-95" font-family="Helvetica,sans-Serif" font-size="10.00">wld_nl80211_sendCmd</text>
</a>
</g>
</g>
<!-- Node4&#45;&gt;Node5 -->
<g id="edge4" class="edge">
<title>Node4&#45;&gt;Node5</title>
<path fill="none" stroke="midnightblue" d="M766.02,-97.5C774.49,-97.5 783.12,-97.5 791.57,-97.5"/>
<polygon fill="midnightblue" stroke="midnightblue" points="791.78,-101 801.78,-97.5 791.78,-94 791.78,-101"/>
</g>
<!-- Node7 -->
<g id="node7" class="node">
<title>Node7</title>
<g id="a_node7"><a xlink:href="wld__nl80211__core_8c.html#ac64e98962155641a465909b3c8fc0779" target="_top" xlink:title=" ">
<polygon fill="white" stroke="black" points="439,-50 439,-69 524,-69 524,-50 439,-50"/>
<text text-anchor="middle" x="481.5" y="-57" font-family="Helvetica,sans-Serif" font-size="10.00">s_isValidState</text>
</a>
</g>
</g>
<!-- Node6&#45;&gt;Node7 -->
<g id="edge6" class="edge">
<title>Node6&#45;&gt;Node7</title>
<path fill="none" stroke="midnightblue" d="M348.08,-59.5C375.01,-59.5 404.48,-59.5 428.77,-59.5"/>
<polygon fill="midnightblue" stroke="midnightblue" points="428.84,-63 438.84,-59.5 428.84,-56 428.84,-63"/>
</g>
</g>
</svg>
