<?xml version="1.0" encoding="UTF-8" standalone="no"?>
<!DOCTYPE svg PUBLIC "-//W3C//DTD SVG 1.1//EN"
 "http://www.w3.org/Graphics/SVG/1.1/DTD/svg11.dtd">
<!-- Generated by graphviz version 2.43.0 (0)
 -->
<!-- Title: wld_secDmn_countActiveGrpMembers Pages: 1 -->
<svg width="1106pt" height="148pt"
 viewBox="0.00 0.00 1106.00 147.50" xmlns="http://www.w3.org/2000/svg" xmlns:xlink="http://www.w3.org/1999/xlink">
<g id="graph0" class="graph" transform="scale(1 1) rotate(0) translate(4 143.5)">
<title>wld_secDmn_countActiveGrpMembers</title>
<polygon fill="white" stroke="transparent" points="-4,4 -4,-143.5 1102,-143.5 1102,4 -4,4"/>
<!-- Node1 -->
<g id="node1" class="node">
<title>Node1</title>
<g id="a_node1"><a xlink:title=" ">
<polygon fill="#bfbfbf" stroke="black" points="0,-79.5 0,-109.5 159,-109.5 159,-79.5 0,-79.5"/>
<text text-anchor="start" x="8" y="-97.5" font-family="Helvetica,sans-Serif" font-size="10.00">wld_secDmn_countActiveGrp</text>
<text text-anchor="middle" x="79.5" y="-86.5" font-family="Helvetica,sans-Serif" font-size="10.00">Members</text>
</a>
</g>
</g>
<!-- Node2 -->
<g id="node2" class="node">
<title>Node2</title>
<g id="a_node2"><a xlink:href="wld__secDmn_8c.html#a734eba007ba94a51c1cdf408c979c5ab" target="_top" xlink:title=" ">
<polygon fill="white" stroke="black" points="233.5,-107 233.5,-126 350.5,-126 350.5,-107 233.5,-107"/>
<text text-anchor="middle" x="292" y="-114" font-family="Helvetica,sans-Serif" font-size="10.00">wld_secDmn_getGrp</text>
</a>
</g>
</g>
<!-- Node1&#45;&gt;Node2 -->
<g id="edge1" class="edge">
<title>Node1&#45;&gt;Node2</title>
<path fill="none" stroke="midnightblue" d="M159.18,-102.72C180.26,-104.93 202.86,-107.29 223.29,-109.42"/>
<polygon fill="midnightblue" stroke="midnightblue" points="223.13,-112.93 233.44,-110.48 223.86,-105.96 223.13,-112.93"/>
</g>
<!-- Node3 -->
<g id="node3" class="node">
<title>Node3</title>
<g id="a_node3"><a xlink:href="wld__secDmnGrp_8c.html#af0c8baba6a72e3d8962f0666ac93ccc9" target="_top" xlink:title=" ">
<polygon fill="white" stroke="black" points="195,-57.5 195,-87.5 389,-87.5 389,-57.5 195,-57.5"/>
<text text-anchor="start" x="203" y="-75.5" font-family="Helvetica,sans-Serif" font-size="10.00">wld_secDmnGrp_getActiveMembers</text>
<text text-anchor="middle" x="292" y="-64.5" font-family="Helvetica,sans-Serif" font-size="10.00">Count</text>
</a>
</g>
</g>
<!-- Node1&#45;&gt;Node3 -->
<g id="edge2" class="edge">
<title>Node1&#45;&gt;Node3</title>
<path fill="none" stroke="midnightblue" d="M159.18,-86.28C167.58,-85.4 176.21,-84.5 184.85,-83.59"/>
<polygon fill="midnightblue" stroke="midnightblue" points="185.41,-87.06 194.99,-82.53 184.68,-80.09 185.41,-87.06"/>
</g>
<!-- Node4 -->
<g id="node4" class="node">
<title>Node4</title>
<g id="a_node4"><a xlink:href="wld__secDmn_8c.html#a1b9d684b37eb9a4922e736e45544a50d" target="_top" xlink:title=" ">
<polygon fill="white" stroke="black" points="425,-63 425,-82 542,-82 542,-63 425,-63"/>
<text text-anchor="middle" x="483.5" y="-70" font-family="Helvetica,sans-Serif" font-size="10.00">wld_secDmn_isAlive</text>
</a>
</g>
</g>
<!-- Node3&#45;&gt;Node4 -->
<g id="edge3" class="edge">
<title>Node3&#45;&gt;Node4</title>
<path fill="none" stroke="midnightblue" d="M389.14,-72.5C397.8,-72.5 406.45,-72.5 414.79,-72.5"/>
<polygon fill="midnightblue" stroke="midnightblue" points="414.79,-76 424.79,-72.5 414.79,-69 414.79,-76"/>
</g>
<!-- Node5 -->
<g id="node5" class="node">
<title>Node5</title>
<g id="a_node5"><a xlink:href="wld__secDmn_8c.html#a1b0cc11a41a11e2033f3188fd05a0d80" target="_top" xlink:title=" ">
<polygon fill="white" stroke="black" points="595.5,-120 595.5,-139 745.5,-139 745.5,-120 595.5,-120"/>
<text text-anchor="middle" x="670.5" y="-127" font-family="Helvetica,sans-Serif" font-size="10.00">wld_secDmn_isGrpMember</text>
</a>
</g>
</g>
<!-- Node4&#45;&gt;Node5 -->
<g id="edge4" class="edge">
<title>Node4&#45;&gt;Node5</title>
<path fill="none" stroke="midnightblue" d="M509.71,-82.04C528.42,-88.96 554.63,-98.33 578,-105.5 591.64,-109.69 606.57,-113.8 620.33,-117.4"/>
<polygon fill="midnightblue" stroke="midnightblue" points="619.56,-120.82 630.12,-119.93 621.31,-114.04 619.56,-120.82"/>
</g>
<!-- Node7 -->
<g id="node7" class="node">
<title>Node7</title>
<g id="a_node7"><a xlink:href="wld__secDmn_8c.html#ad8ebf9f869b635102d27d9a476e4d9eb" target="_top" xlink:title=" ">
<polygon fill="white" stroke="black" points="804.5,-66 804.5,-85 936.5,-85 936.5,-66 804.5,-66"/>
<text text-anchor="middle" x="870.5" y="-73" font-family="Helvetica,sans-Serif" font-size="10.00">wld_secDmn_isRunning</text>
</a>
</g>
</g>
<!-- Node4&#45;&gt;Node7 -->
<g id="edge6" class="edge">
<title>Node4&#45;&gt;Node7</title>
<path fill="none" stroke="midnightblue" d="M542.14,-72.95C609.25,-73.47 720.32,-74.34 794.21,-74.91"/>
<polygon fill="midnightblue" stroke="midnightblue" points="794.35,-78.41 804.38,-74.99 794.4,-71.41 794.35,-78.41"/>
</g>
<!-- Node9 -->
<g id="node9" class="node">
<title>Node9</title>
<g id="a_node9"><a xlink:href="wld__secDmnGrp_8c.html#ac68764d14b9f77537e29250cae786daf" target="_top" xlink:title=" ">
<polygon fill="white" stroke="black" points="578,-44 578,-63 763,-63 763,-44 578,-44"/>
<text text-anchor="middle" x="670.5" y="-51" font-family="Helvetica,sans-Serif" font-size="10.00">wld_secDmnGrp_isMemberStarted</text>
</a>
</g>
</g>
<!-- Node4&#45;&gt;Node9 -->
<g id="edge8" class="edge">
<title>Node4&#45;&gt;Node9</title>
<path fill="none" stroke="midnightblue" d="M542.02,-66.59C550.27,-65.75 558.95,-64.85 567.74,-63.95"/>
<polygon fill="midnightblue" stroke="midnightblue" points="568.11,-67.43 577.7,-62.93 567.4,-60.47 568.11,-67.43"/>
</g>
<!-- Node10 -->
<g id="node10" class="node">
<title>Node10</title>
<g id="a_node10"><a xlink:href="wld__wpaCtrlMngr_8c.html#ad3e7ad2284a85ee77e110a90f0fd34ae" target="_top" xlink:title="check that wpaCtrl manager is connected: i.e can receive events from its main interface.">
<polygon fill="white" stroke="black" points="587,-6 587,-25 754,-25 754,-6 587,-6"/>
<text text-anchor="middle" x="670.5" y="-13" font-family="Helvetica,sans-Serif" font-size="10.00">wld_wpaCtrlMngr_isConnected</text>
</a>
</g>
</g>
<!-- Node4&#45;&gt;Node10 -->
<g id="edge9" class="edge">
<title>Node4&#45;&gt;Node10</title>
<path fill="none" stroke="midnightblue" d="M504.91,-62.95C523.59,-54.51 552.18,-42.36 578,-34.5 586.78,-31.83 596.14,-29.41 605.4,-27.26"/>
<polygon fill="midnightblue" stroke="midnightblue" points="606.38,-30.63 615.38,-25.04 604.86,-23.8 606.38,-30.63"/>
</g>
<!-- Node6 -->
<g id="node6" class="node">
<title>Node6</title>
<g id="a_node6"><a xlink:href="wld__secDmnGrp_8c.html#ae5da21db2381b2d5a1f16df5d388d5df" target="_top" xlink:title=" ">
<polygon fill="white" stroke="black" points="801.5,-120 801.5,-139 939.5,-139 939.5,-120 801.5,-120"/>
<text text-anchor="middle" x="870.5" y="-127" font-family="Helvetica,sans-Serif" font-size="10.00">wld_secDmnGrp_getProc</text>
</a>
</g>
</g>
<!-- Node5&#45;&gt;Node6 -->
<g id="edge5" class="edge">
<title>Node5&#45;&gt;Node6</title>
<path fill="none" stroke="midnightblue" d="M745.51,-129.5C760.41,-129.5 776.13,-129.5 791.17,-129.5"/>
<polygon fill="midnightblue" stroke="midnightblue" points="791.46,-133 801.46,-129.5 791.46,-126 791.46,-133"/>
</g>
<!-- Node8 -->
<g id="node8" class="node">
<title>Node8</title>
<g id="a_node8"><a xlink:href="wld__daemon_8c.html#a6ba98a859d038541e1c2ee48d8566547" target="_top" xlink:title=" ">
<polygon fill="white" stroke="black" points="981,-66 981,-85 1095,-85 1095,-66 981,-66"/>
<text text-anchor="middle" x="1038" y="-73" font-family="Helvetica,sans-Serif" font-size="10.00">wld_dmn_isRunning</text>
</a>
</g>
</g>
<!-- Node7&#45;&gt;Node8 -->
<g id="edge7" class="edge">
<title>Node7&#45;&gt;Node8</title>
<path fill="none" stroke="midnightblue" d="M936.91,-75.5C948.05,-75.5 959.62,-75.5 970.78,-75.5"/>
<polygon fill="midnightblue" stroke="midnightblue" points="970.89,-79 980.89,-75.5 970.89,-72 970.89,-79"/>
</g>
<!-- Node10&#45;&gt;Node7 -->
<g id="edge10" class="edge">
<title>Node10&#45;&gt;Node7</title>
<path fill="none" stroke="midnightblue" d="M724.6,-25C737.28,-27.69 750.7,-30.88 763,-34.5 788.93,-42.13 817.46,-53.27 838.46,-62.01"/>
<polygon fill="midnightblue" stroke="midnightblue" points="837.26,-65.3 847.83,-65.96 839.98,-58.85 837.26,-65.3"/>
</g>
<!-- Node11 -->
<g id="node11" class="node">
<title>Node11</title>
<g id="a_node11"><a xlink:href="wld__wpaCtrlMngr_8c.html#a3dc93dfda0d67c0e7254cc1ffeeb3ebe" target="_top" xlink:title=" ">
<polygon fill="white" stroke="black" points="799,-0.5 799,-30.5 942,-30.5 942,-0.5 799,-0.5"/>
<text text-anchor="start" x="807" y="-18.5" font-family="Helvetica,sans-Serif" font-size="10.00">wld_wpaCtrlMngr_getFirst</text>
<text text-anchor="middle" x="870.5" y="-7.5" font-family="Helvetica,sans-Serif" font-size="10.00">ReadyInterface</text>
</a>
</g>
</g>
<!-- Node10&#45;&gt;Node11 -->
<g id="edge11" class="edge">
<title>Node10&#45;&gt;Node11</title>
<path fill="none" stroke="midnightblue" d="M754.04,-15.5C765.41,-15.5 777.08,-15.5 788.43,-15.5"/>
<polygon fill="midnightblue" stroke="midnightblue" points="788.74,-19 798.74,-15.5 788.74,-12 788.74,-19"/>
</g>
<!-- Node12 -->
<g id="node12" class="node">
<title>Node12</title>
<g id="a_node12"><a xlink:href="wld__wpaCtrlInterface_8c.html#a8b38bc9ca95b60e002d38cdb1374d1d0" target="_top" xlink:title=" ">
<polygon fill="white" stroke="black" points="978,-0.5 978,-30.5 1098,-30.5 1098,-0.5 978,-0.5"/>
<text text-anchor="start" x="986" y="-18.5" font-family="Helvetica,sans-Serif" font-size="10.00">wld_wpaCtrlInterface</text>
<text text-anchor="middle" x="1038" y="-7.5" font-family="Helvetica,sans-Serif" font-size="10.00">_isReady</text>
</a>
</g>
</g>
<!-- Node11&#45;&gt;Node12 -->
<g id="edge12" class="edge">
<title>Node11&#45;&gt;Node12</title>
<path fill="none" stroke="midnightblue" d="M942.17,-15.5C950.6,-15.5 959.2,-15.5 967.62,-15.5"/>
<polygon fill="midnightblue" stroke="midnightblue" points="967.76,-19 977.76,-15.5 967.76,-12 967.76,-19"/>
</g>
</g>
</svg>
