<?xml version="1.0" encoding="UTF-8" standalone="no"?>
<!DOCTYPE svg PUBLIC "-//W3C//DTD SVG 1.1//EN"
 "http://www.w3.org/Graphics/SVG/1.1/DTD/svg11.dtd">
<!-- Generated by graphviz version 2.43.0 (0)
 -->
<!-- Title: include/wld/wld_monitor.h Pages: 1 -->
<svg width="456pt" height="95pt"
 viewBox="0.00 0.00 456.00 95.00" xmlns="http://www.w3.org/2000/svg" xmlns:xlink="http://www.w3.org/1999/xlink">
<g id="graph0" class="graph" transform="scale(1 1) rotate(0) translate(4 91)">
<title>include/wld/wld_monitor.h</title>
<polygon fill="white" stroke="transparent" points="-4,4 -4,-91 452,-91 452,4 -4,4"/>
<!-- Node1 -->
<g id="node1" class="node">
<title>Node1</title>
<g id="a_node1"><a xlink:title=" ">
<polygon fill="#bfbfbf" stroke="black" points="173,-67.5 173,-86.5 317,-86.5 317,-67.5 173,-67.5"/>
<text text-anchor="middle" x="245" y="-74.5" font-family="Helvetica,sans-Serif" font-size="10.00">include/wld/wld_monitor.h</text>
</a>
</g>
</g>
<!-- Node2 -->
<g id="node2" class="node">
<title>Node2</title>
<g id="a_node2"><a xlink:href="wld__ap__rssiMonitor_8c.html" target="_top" xlink:title=" ">
<polygon fill="white" stroke="black" points="0,-6 0,-25 170,-25 170,-6 0,-6"/>
<text text-anchor="middle" x="85" y="-13" font-family="Helvetica,sans-Serif" font-size="10.00">src/ApMgt/wld_ap_rssiMonitor.c</text>
</a>
</g>
</g>
<!-- Node1&#45;&gt;Node2 -->
<g id="edge1" class="edge">
<title>Node1&#45;&gt;Node2</title>
<path fill="none" stroke="midnightblue" d="M212.55,-63.93C181.45,-52.37 135.31,-35.21 107.88,-25.01"/>
<polygon fill="midnightblue" stroke="midnightblue" points="211.48,-67.27 222.08,-67.48 213.92,-60.71 211.48,-67.27"/>
</g>
<!-- Node3 -->
<g id="node3" class="node">
<title>Node3</title>
<g id="a_node3"><a xlink:href="wld__rad__stamon_8c.html" target="_top" xlink:title=" ">
<polygon fill="white" stroke="black" points="188.5,-0.5 188.5,-30.5 301.5,-30.5 301.5,-0.5 188.5,-0.5"/>
<text text-anchor="start" x="196.5" y="-18.5" font-family="Helvetica,sans-Serif" font-size="10.00">src/RadMgt/wld_rad</text>
<text text-anchor="middle" x="245" y="-7.5" font-family="Helvetica,sans-Serif" font-size="10.00">_stamon.c</text>
</a>
</g>
</g>
<!-- Node1&#45;&gt;Node3 -->
<g id="edge2" class="edge">
<title>Node1&#45;&gt;Node3</title>
<path fill="none" stroke="midnightblue" d="M245,-57.23C245,-48.59 245,-38.5 245,-30.52"/>
<polygon fill="midnightblue" stroke="midnightblue" points="241.5,-57.48 245,-67.48 248.5,-57.48 241.5,-57.48"/>
</g>
<!-- Node4 -->
<g id="node4" class="node">
<title>Node4</title>
<g id="a_node4"><a xlink:href="wld__monitor_8c.html" target="_top" xlink:title=" ">
<polygon fill="white" stroke="black" points="320,-6 320,-25 448,-25 448,-6 320,-6"/>
<text text-anchor="middle" x="384" y="-13" font-family="Helvetica,sans-Serif" font-size="10.00">src/Utils/wld_monitor.c</text>
</a>
</g>
</g>
<!-- Node1&#45;&gt;Node4 -->
<g id="edge3" class="edge">
<title>Node1&#45;&gt;Node4</title>
<path fill="none" stroke="midnightblue" d="M274.25,-63.48C301.25,-51.92 340.6,-35.08 364.12,-25.01"/>
<polygon fill="midnightblue" stroke="midnightblue" points="272.73,-60.32 264.92,-67.48 275.49,-66.76 272.73,-60.32"/>
</g>
</g>
</svg>
