<?xml version="1.0" encoding="UTF-8" standalone="no"?>
<!DOCTYPE svg PUBLIC "-//W3C//DTD SVG 1.1//EN"
 "http://www.w3.org/Graphics/SVG/1.1/DTD/svg11.dtd">
<!-- Generated by graphviz version 2.43.0 (0)
 -->
<!-- Title: wld_wpaCtrlMngr_getFirstInterface Pages: 1 -->
<svg width="360pt" height="66pt"
 viewBox="0.00 0.00 360.00 66.00" xmlns="http://www.w3.org/2000/svg" xmlns:xlink="http://www.w3.org/1999/xlink">
<g id="graph0" class="graph" transform="scale(1 1) rotate(0) translate(4 62)">
<title>wld_wpaCtrlMngr_getFirstInterface</title>
<polygon fill="white" stroke="transparent" points="-4,4 -4,-62 356,-62 356,4 -4,4"/>
<!-- Node1 -->
<g id="node1" class="node">
<title>Node1</title>
<g id="a_node1"><a xlink:title=" ">
<polygon fill="#bfbfbf" stroke="black" points="209,-14 209,-44 352,-44 352,-14 209,-14"/>
<text text-anchor="start" x="217" y="-32" font-family="Helvetica,sans-Serif" font-size="10.00">wld_wpaCtrlMngr_getFirst</text>
<text text-anchor="middle" x="280.5" y="-21" font-family="Helvetica,sans-Serif" font-size="10.00">Interface</text>
</a>
</g>
</g>
<!-- Node2 -->
<g id="node2" class="node">
<title>Node2</title>
<g id="a_node2"><a xlink:href="wld__wpaCtrlMngr_8c.html#afd3a74e8308c1c3b5b69b6057d13904c" target="_top" xlink:title=" ">
<polygon fill="white" stroke="black" points="9,-38.5 9,-57.5 164,-57.5 164,-38.5 9,-38.5"/>
<text text-anchor="middle" x="86.5" y="-45.5" font-family="Helvetica,sans-Serif" font-size="10.00">s_checkMgrConnectedIfaces</text>
</a>
</g>
</g>
<!-- Node1&#45;&gt;Node2 -->
<g id="edge1" class="edge">
<title>Node1&#45;&gt;Node2</title>
<path fill="none" stroke="midnightblue" d="M198.83,-36.98C187.35,-38.12 175.57,-39.29 164.16,-40.41"/>
<polygon fill="midnightblue" stroke="midnightblue" points="199.22,-40.46 208.82,-35.99 198.53,-33.5 199.22,-40.46"/>
</g>
<!-- Node3 -->
<g id="node3" class="node">
<title>Node3</title>
<g id="a_node3"><a xlink:href="wifiGen__mld_8c.html#a961b7d70c252e0243b518dbad005a616" target="_top" xlink:title=" ">
<polygon fill="white" stroke="black" points="0,-0.5 0,-19.5 173,-19.5 173,-0.5 0,-0.5"/>
<text text-anchor="middle" x="86.5" y="-7.5" font-family="Helvetica,sans-Serif" font-size="10.00">wifiGen_mld_fetchSockLinkSSID</text>
</a>
</g>
</g>
<!-- Node1&#45;&gt;Node3 -->
<g id="edge2" class="edge">
<title>Node1&#45;&gt;Node3</title>
<path fill="none" stroke="midnightblue" d="M198.6,-20.99C190.14,-20.16 181.52,-19.3 173.01,-18.46"/>
<polygon fill="midnightblue" stroke="midnightblue" points="198.53,-24.5 208.82,-22.01 199.22,-17.54 198.53,-24.5"/>
</g>
</g>
</svg>
