<?xml version="1.0" encoding="UTF-8" standalone="no"?>
<!DOCTYPE svg PUBLIC "-//W3C//DTD SVG 1.1//EN"
 "http://www.w3.org/Graphics/SVG/1.1/DTD/svg11.dtd">
<!-- Generated by graphviz version 2.43.0 (0)
 -->
<!-- Title: wld_dmn_createDeamon Pages: 1 -->
<svg width="528pt" height="161pt"
 viewBox="0.00 0.00 528.00 161.00" xmlns="http://www.w3.org/2000/svg" xmlns:xlink="http://www.w3.org/1999/xlink">
<g id="graph0" class="graph" transform="scale(1 1) rotate(0) translate(4 157)">
<title>wld_dmn_createDeamon</title>
<polygon fill="white" stroke="transparent" points="-4,4 -4,-157 524,-157 524,4 -4,4"/>
<!-- Node1 -->
<g id="node1" class="node">
<title>Node1</title>
<g id="a_node1"><a xlink:title=" ">
<polygon fill="#bfbfbf" stroke="black" points="0,-57.5 0,-76.5 138,-76.5 138,-57.5 0,-57.5"/>
<text text-anchor="middle" x="69" y="-64.5" font-family="Helvetica,sans-Serif" font-size="10.00">wld_dmn_createDeamon</text>
</a>
</g>
</g>
<!-- Node2 -->
<g id="node2" class="node">
<title>Node2</title>
<g id="a_node2"><a xlink:href="wld__daemon_8c.html#a4075ee8de9e9daa8039d0f758d20d655" target="_top" xlink:title=" ">
<polygon fill="white" stroke="black" points="192,-114.5 192,-133.5 338,-133.5 338,-114.5 192,-114.5"/>
<text text-anchor="middle" x="265" y="-121.5" font-family="Helvetica,sans-Serif" font-size="10.00">wld_dmn_cleanupDaemon</text>
</a>
</g>
</g>
<!-- Node1&#45;&gt;Node2 -->
<g id="edge1" class="edge">
<title>Node1&#45;&gt;Node2</title>
<path fill="none" stroke="midnightblue" d="M93.23,-76.57C114.1,-84.9 145.73,-96.9 174,-105 183.23,-107.65 193.09,-110.1 202.77,-112.3"/>
<polygon fill="midnightblue" stroke="midnightblue" points="202.24,-115.77 212.76,-114.5 203.75,-108.93 202.24,-115.77"/>
</g>
<!-- Node5 -->
<g id="node5" class="node">
<title>Node5</title>
<g id="a_node5"><a xlink:href="wld__daemon_8c.html#add988f9aace86d75ad2250d7ea28ed17" target="_top" xlink:title=" ">
<polygon fill="white" stroke="black" points="190.5,-76.5 190.5,-95.5 339.5,-95.5 339.5,-76.5 190.5,-76.5"/>
<text text-anchor="middle" x="265" y="-83.5" font-family="Helvetica,sans-Serif" font-size="10.00">wld_dmn_initializeDeamon</text>
</a>
</g>
</g>
<!-- Node1&#45;&gt;Node5 -->
<g id="edge4" class="edge">
<title>Node1&#45;&gt;Node5</title>
<path fill="none" stroke="midnightblue" d="M138.12,-73.67C151.74,-75.01 166.19,-76.42 180.27,-77.8"/>
<polygon fill="midnightblue" stroke="midnightblue" points="180.14,-81.3 190.43,-78.79 180.82,-74.34 180.14,-81.3"/>
</g>
<!-- Node6 -->
<g id="node6" class="node">
<title>Node6</title>
<g id="a_node6"><a xlink:href="wld__daemon_8c.html#a335dc3e12939144d97137cf59cfe7951" target="_top" xlink:title=" ">
<polygon fill="white" stroke="black" points="207.5,-38.5 207.5,-57.5 322.5,-57.5 322.5,-38.5 207.5,-38.5"/>
<text text-anchor="middle" x="265" y="-45.5" font-family="Helvetica,sans-Serif" font-size="10.00">wld_dmn_setArgList</text>
</a>
</g>
</g>
<!-- Node1&#45;&gt;Node6 -->
<g id="edge5" class="edge">
<title>Node1&#45;&gt;Node6</title>
<path fill="none" stroke="midnightblue" d="M138.12,-60.33C157.28,-58.45 178.09,-56.41 197.17,-54.55"/>
<polygon fill="midnightblue" stroke="midnightblue" points="197.66,-58.01 207.27,-53.56 196.98,-51.05 197.66,-58.01"/>
</g>
<!-- Node7 -->
<g id="node7" class="node">
<title>Node7</title>
<g id="a_node7"><a xlink:href="wld__daemon_8c.html#a50e230b7cf9c56d9b4ef6e5038576c17" target="_top" xlink:title=" ">
<polygon fill="white" stroke="black" points="174,-0.5 174,-19.5 356,-19.5 356,-0.5 174,-0.5"/>
<text text-anchor="middle" x="265" y="-7.5" font-family="Helvetica,sans-Serif" font-size="10.00">wld_dmn_setDeamonEvtHandlers</text>
</a>
</g>
</g>
<!-- Node1&#45;&gt;Node7 -->
<g id="edge6" class="edge">
<title>Node1&#45;&gt;Node7</title>
<path fill="none" stroke="midnightblue" d="M93.23,-57.43C114.1,-49.1 145.73,-37.1 174,-29 183.23,-26.35 193.09,-23.9 202.77,-21.7"/>
<polygon fill="midnightblue" stroke="midnightblue" points="203.75,-25.07 212.76,-19.5 202.24,-18.23 203.75,-25.07"/>
</g>
<!-- Node3 -->
<g id="node3" class="node">
<title>Node3</title>
<g id="a_node3"><a xlink:href="wld_8c.html#a41e1e95e9813260c184aad989f33bb05" target="_top" xlink:title=" ">
<polygon fill="white" stroke="black" points="393,-133.5 393,-152.5 519,-152.5 519,-133.5 393,-133.5"/>
<text text-anchor="middle" x="456" y="-140.5" font-family="Helvetica,sans-Serif" font-size="10.00">get_wld_plugin_parser</text>
</a>
</g>
</g>
<!-- Node2&#45;&gt;Node3 -->
<g id="edge2" class="edge">
<title>Node2&#45;&gt;Node3</title>
<path fill="none" stroke="midnightblue" d="M338.26,-131.26C352.91,-132.74 368.31,-134.29 382.95,-135.76"/>
<polygon fill="midnightblue" stroke="midnightblue" points="382.65,-139.24 392.95,-136.76 383.35,-132.28 382.65,-139.24"/>
</g>
<!-- Node4 -->
<g id="node4" class="node">
<title>Node4</title>
<g id="a_node4"><a xlink:href="wld__daemon_8c.html#adc439fdc85e1c992a5ba6e79b4ebd3a3" target="_top" xlink:title=" ">
<polygon fill="white" stroke="black" points="392,-95.5 392,-114.5 520,-114.5 520,-95.5 392,-95.5"/>
<text text-anchor="middle" x="456" y="-102.5" font-family="Helvetica,sans-Serif" font-size="10.00">wld_dmn_stopDeamon</text>
</a>
</g>
</g>
<!-- Node2&#45;&gt;Node4 -->
<g id="edge3" class="edge">
<title>Node2&#45;&gt;Node4</title>
<path fill="none" stroke="midnightblue" d="M338.26,-116.74C352.43,-115.31 367.31,-113.82 381.52,-112.39"/>
<polygon fill="midnightblue" stroke="midnightblue" points="382.13,-115.84 391.73,-111.36 381.43,-108.88 382.13,-115.84"/>
</g>
</g>
</svg>
