<?xml version="1.0" encoding="UTF-8" standalone="no"?>
<!DOCTYPE svg PUBLIC "-//W3C//DTD SVG 1.1//EN"
 "http://www.w3.org/Graphics/SVG/1.1/DTD/svg11.dtd">
<!-- Generated by graphviz version 2.43.0 (0)
 -->
<!-- Title: include/wld/wld_hostapd_ap_api.h Pages: 1 -->
<svg width="194pt" height="106pt"
 viewBox="0.00 0.00 193.50 106.00" xmlns="http://www.w3.org/2000/svg" xmlns:xlink="http://www.w3.org/1999/xlink">
<g id="graph0" class="graph" transform="scale(1 1) rotate(0) translate(4 102)">
<title>include/wld/wld_hostapd_ap_api.h</title>
<polygon fill="white" stroke="transparent" points="-4,4 -4,-102 189.5,-102 189.5,4 -4,4"/>
<!-- Node1 -->
<g id="node1" class="node">
<title>Node1</title>
<g id="a_node1"><a xlink:title=" ">
<polygon fill="#bfbfbf" stroke="black" points="9,-67.5 9,-97.5 146,-97.5 146,-67.5 9,-67.5"/>
<text text-anchor="start" x="17" y="-85.5" font-family="Helvetica,sans-Serif" font-size="10.00">include/wld/wld_hostapd</text>
<text text-anchor="middle" x="77.5" y="-74.5" font-family="Helvetica,sans-Serif" font-size="10.00">_ap_api.h</text>
</a>
</g>
</g>
<!-- Node2 -->
<g id="node2" class="node">
<title>Node2</title>
<g id="a_node2"><a xlink:title=" ">
<polygon fill="white" stroke="#bfbfbf" points="0,-6 0,-25 53,-25 53,-6 0,-6"/>
<text text-anchor="middle" x="26.5" y="-13" font-family="Helvetica,sans-Serif" font-size="10.00">stdint.h</text>
</a>
</g>
</g>
<!-- Node1&#45;&gt;Node2 -->
<g id="edge1" class="edge">
<title>Node1&#45;&gt;Node2</title>
<path fill="none" stroke="midnightblue" d="M66.43,-67.4C58.56,-57.36 47.95,-43.84 39.65,-33.25"/>
<polygon fill="midnightblue" stroke="midnightblue" points="42.25,-30.9 33.32,-25.19 36.74,-35.22 42.25,-30.9"/>
</g>
<!-- Node3 -->
<g id="node3" class="node">
<title>Node3</title>
<g id="a_node3"><a xlink:title=" ">
<polygon fill="white" stroke="#bfbfbf" points="71.5,-0.5 71.5,-30.5 185.5,-30.5 185.5,-0.5 71.5,-0.5"/>
<text text-anchor="start" x="79.5" y="-18.5" font-family="Helvetica,sans-Serif" font-size="10.00">swl/swl_ieee802_1x</text>
<text text-anchor="middle" x="128.5" y="-7.5" font-family="Helvetica,sans-Serif" font-size="10.00">_defs.h</text>
</a>
</g>
</g>
<!-- Node1&#45;&gt;Node3 -->
<g id="edge2" class="edge">
<title>Node1&#45;&gt;Node3</title>
<path fill="none" stroke="midnightblue" d="M88.57,-67.4C95.18,-58.96 103.73,-48.07 111.22,-38.52"/>
<polygon fill="midnightblue" stroke="midnightblue" points="114.04,-40.6 117.46,-30.58 108.53,-36.28 114.04,-40.6"/>
</g>
</g>
</svg>
