<?xml version="1.0" encoding="UTF-8" standalone="no"?>
<!DOCTYPE svg PUBLIC "-//W3C//DTD SVG 1.1//EN"
 "http://www.w3.org/Graphics/SVG/1.1/DTD/svg11.dtd">
<!-- Generated by graphviz version 2.43.0 (0)
 -->
<!-- Title: test/testHelper/wld_th_sensing.h Pages: 1 -->
<svg width="384pt" height="106pt"
 viewBox="0.00 0.00 384.00 106.00" xmlns="http://www.w3.org/2000/svg" xmlns:xlink="http://www.w3.org/1999/xlink">
<g id="graph0" class="graph" transform="scale(1 1) rotate(0) translate(4 102)">
<title>test/testHelper/wld_th_sensing.h</title>
<polygon fill="white" stroke="transparent" points="-4,4 -4,-102 380,-102 380,4 -4,4"/>
<!-- Node1 -->
<g id="node1" class="node">
<title>Node1</title>
<g id="a_node1"><a xlink:title=" ">
<polygon fill="#bfbfbf" stroke="black" points="128,-67.5 128,-97.5 238,-97.5 238,-67.5 128,-67.5"/>
<text text-anchor="start" x="136" y="-85.5" font-family="Helvetica,sans-Serif" font-size="10.00">test/testHelper/wld</text>
<text text-anchor="middle" x="183" y="-74.5" font-family="Helvetica,sans-Serif" font-size="10.00">_th_sensing.h</text>
</a>
</g>
</g>
<!-- Node2 -->
<g id="node2" class="node">
<title>Node2</title>
<g id="a_node2"><a xlink:href="wld__th__mockVendor_8c.html" target="_top" xlink:title=" ">
<polygon fill="white" stroke="black" points="0,-0.5 0,-30.5 110,-30.5 110,-0.5 0,-0.5"/>
<text text-anchor="start" x="8" y="-18.5" font-family="Helvetica,sans-Serif" font-size="10.00">test/testHelper/wld</text>
<text text-anchor="middle" x="55" y="-7.5" font-family="Helvetica,sans-Serif" font-size="10.00">_th_mockVendor.c</text>
</a>
</g>
</g>
<!-- Node1&#45;&gt;Node2 -->
<g id="edge1" class="edge">
<title>Node1&#45;&gt;Node2</title>
<path fill="none" stroke="midnightblue" d="M146.28,-62.85C126.04,-52.58 101.33,-40.03 82.72,-30.58"/>
<polygon fill="midnightblue" stroke="midnightblue" points="144.72,-65.99 155.23,-67.4 147.89,-59.75 144.72,-65.99"/>
</g>
<!-- Node3 -->
<g id="node3" class="node">
<title>Node3</title>
<g id="a_node3"><a xlink:href="wld__th__sensing_8c.html" target="_top" xlink:title=" ">
<polygon fill="white" stroke="black" points="128,-0.5 128,-30.5 238,-30.5 238,-0.5 128,-0.5"/>
<text text-anchor="start" x="136" y="-18.5" font-family="Helvetica,sans-Serif" font-size="10.00">test/testHelper/wld</text>
<text text-anchor="middle" x="183" y="-7.5" font-family="Helvetica,sans-Serif" font-size="10.00">_th_sensing.c</text>
</a>
</g>
</g>
<!-- Node1&#45;&gt;Node3 -->
<g id="edge2" class="edge">
<title>Node1&#45;&gt;Node3</title>
<path fill="none" stroke="midnightblue" d="M183,-57.11C183,-48.15 183,-38.32 183,-30.58"/>
<polygon fill="midnightblue" stroke="midnightblue" points="179.5,-57.4 183,-67.4 186.5,-57.4 179.5,-57.4"/>
</g>
<!-- Node4 -->
<g id="node4" class="node">
<title>Node4</title>
<g id="a_node4"><a xlink:href="test__wld__sensing_8c.html" target="_top" xlink:title=" ">
<polygon fill="white" stroke="black" points="256,-0.5 256,-30.5 376,-30.5 376,-0.5 256,-0.5"/>
<text text-anchor="start" x="264" y="-18.5" font-family="Helvetica,sans-Serif" font-size="10.00">test/wld_sensing/test</text>
<text text-anchor="middle" x="316" y="-7.5" font-family="Helvetica,sans-Serif" font-size="10.00">_wld_sensing.c</text>
</a>
</g>
</g>
<!-- Node1&#45;&gt;Node4 -->
<g id="edge3" class="edge">
<title>Node1&#45;&gt;Node4</title>
<path fill="none" stroke="midnightblue" d="M220.87,-62.99C241.95,-52.69 267.78,-40.07 287.2,-30.58"/>
<polygon fill="midnightblue" stroke="midnightblue" points="219.31,-59.86 211.86,-67.4 222.38,-66.15 219.31,-59.86"/>
</g>
</g>
</svg>
