<?xml version="1.0" encoding="UTF-8" standalone="no"?>
<!DOCTYPE svg PUBLIC "-//W3C//DTD SVG 1.1//EN"
 "http://www.w3.org/Graphics/SVG/1.1/DTD/svg11.dtd">
<!-- Generated by graphviz version 2.43.0 (0)
 -->
<!-- Title: wld_hostapd_cfgFile_setRadioConfig Pages: 1 -->
<svg width="552pt" height="367pt"
 viewBox="0.00 0.00 552.00 366.50" xmlns="http://www.w3.org/2000/svg" xmlns:xlink="http://www.w3.org/1999/xlink">
<g id="graph0" class="graph" transform="scale(1 1) rotate(0) translate(4 362.5)">
<title>wld_hostapd_cfgFile_setRadioConfig</title>
<polygon fill="white" stroke="transparent" points="-4,4 -4,-362.5 548,-362.5 548,4 -4,4"/>
<!-- Node1 -->
<g id="node1" class="node">
<title>Node1</title>
<g id="a_node1"><a xlink:title="set the radio parameters">
<polygon fill="#bfbfbf" stroke="black" points="0,-147 0,-177 116,-177 116,-147 0,-147"/>
<text text-anchor="start" x="8" y="-165" font-family="Helvetica,sans-Serif" font-size="10.00">wld_hostapd_cfgFile</text>
<text text-anchor="middle" x="58" y="-154" font-family="Helvetica,sans-Serif" font-size="10.00">_setRadioConfig</text>
</a>
</g>
</g>
<!-- Node2 -->
<g id="node2" class="node">
<title>Node2</title>
<g id="a_node2"><a xlink:href="wld__chanmgt_8c.html#a622c18ca1144096bd2b01152ce69f764" target="_top" xlink:title=" ">
<polygon fill="white" stroke="black" points="152,-328 152,-358 340,-358 340,-328 152,-328"/>
<text text-anchor="start" x="160" y="-346" font-family="Helvetica,sans-Serif" font-size="10.00">wld_chanmgt_getDefaultSupported</text>
<text text-anchor="middle" x="246" y="-335" font-family="Helvetica,sans-Serif" font-size="10.00">Bandwidth</text>
</a>
</g>
</g>
<!-- Node1&#45;&gt;Node2 -->
<g id="edge1" class="edge">
<title>Node1&#45;&gt;Node2</title>
<path fill="none" stroke="midnightblue" d="M63.59,-177.2C73.93,-208.75 102.1,-281.51 152,-319 153.84,-320.38 155.75,-321.69 157.73,-322.92"/>
<polygon fill="midnightblue" stroke="midnightblue" points="156.26,-326.1 166.71,-327.84 159.62,-319.96 156.26,-326.1"/>
</g>
<!-- Node4 -->
<g id="node4" class="node">
<title>Node4</title>
<g id="a_node4"><a xlink:href="wld__chanmgt_8c.html#af61cf8737487dc43e0bac4591359c422" target="_top" xlink:title=" ">
<polygon fill="white" stroke="black" points="152,-279 152,-309 340,-309 340,-279 152,-279"/>
<text text-anchor="start" x="160" y="-297" font-family="Helvetica,sans-Serif" font-size="10.00">wld_chanmgt_getDefaultSupported</text>
<text text-anchor="middle" x="246" y="-286" font-family="Helvetica,sans-Serif" font-size="10.00">Channel</text>
</a>
</g>
</g>
<!-- Node1&#45;&gt;Node4 -->
<g id="edge3" class="edge">
<title>Node1&#45;&gt;Node4</title>
<path fill="none" stroke="midnightblue" d="M68.06,-177.31C82.7,-200.7 113.81,-245.12 152,-269 155.41,-271.13 159,-273.09 162.71,-274.87"/>
<polygon fill="midnightblue" stroke="midnightblue" points="161.56,-278.19 172.13,-278.99 164.37,-271.78 161.56,-278.19"/>
</g>
<!-- Node6 -->
<g id="node6" class="node">
<title>Node6</title>
<g id="a_node6"><a xlink:href="wld__chanmgt_8c.html#aa9b1826d904bbdd0da7517d21cb4d5a4" target="_top" xlink:title=" ">
<polygon fill="white" stroke="black" points="169,-240.5 169,-259.5 323,-259.5 323,-240.5 169,-240.5"/>
<text text-anchor="middle" x="246" y="-247.5" font-family="Helvetica,sans-Serif" font-size="10.00">wld_chanmgt_getTgtChspec</text>
</a>
</g>
</g>
<!-- Node1&#45;&gt;Node6 -->
<g id="edge5" class="edge">
<title>Node1&#45;&gt;Node6</title>
<path fill="none" stroke="midnightblue" d="M74.74,-177.12C92.19,-193.02 121.89,-217.56 152,-231 157.73,-233.56 163.81,-235.77 170.01,-237.7"/>
<polygon fill="midnightblue" stroke="midnightblue" points="169.25,-241.12 179.82,-240.48 171.15,-234.38 169.25,-241.12"/>
</g>
<!-- Node7 -->
<g id="node7" class="node">
<title>Node7</title>
<g id="a_node7"><a xlink:href="wld__channel__info_8c.html#a30dbfefee66f7473e59a233b5b95b1ad" target="_top" xlink:title=" ">
<polygon fill="white" stroke="black" points="173,-191 173,-221 319,-221 319,-191 173,-191"/>
<text text-anchor="start" x="181" y="-209" font-family="Helvetica,sans-Serif" font-size="10.00">wld_channel_getExtension</text>
<text text-anchor="middle" x="246" y="-198" font-family="Helvetica,sans-Serif" font-size="10.00">Channel</text>
</a>
</g>
</g>
<!-- Node1&#45;&gt;Node7 -->
<g id="edge6" class="edge">
<title>Node1&#45;&gt;Node7</title>
<path fill="none" stroke="midnightblue" d="M116.07,-175.5C133.63,-179.65 153.21,-184.29 171.7,-188.66"/>
<polygon fill="midnightblue" stroke="midnightblue" points="171.01,-192.09 181.55,-190.99 172.62,-185.28 171.01,-192.09"/>
</g>
<!-- Node8 -->
<g id="node8" class="node">
<title>Node8</title>
<g id="a_node8"><a xlink:href="wld__channel__info_8c.html#abc6b1c0df2f1f618afdabd1195f6a98a" target="_top" xlink:title=" ">
<polygon fill="white" stroke="black" points="376,-169 376,-199 544,-199 544,-169 376,-169"/>
<text text-anchor="start" x="384" y="-187" font-family="Helvetica,sans-Serif" font-size="10.00">wld_channel_hasChannelWidth</text>
<text text-anchor="middle" x="460" y="-176" font-family="Helvetica,sans-Serif" font-size="10.00">Covered</text>
</a>
</g>
</g>
<!-- Node1&#45;&gt;Node8 -->
<g id="edge8" class="edge">
<title>Node1&#45;&gt;Node8</title>
<path fill="none" stroke="midnightblue" d="M116.31,-165.15C181.33,-168.73 288.33,-174.61 365.49,-178.86"/>
<polygon fill="midnightblue" stroke="midnightblue" points="365.52,-182.36 375.69,-179.42 365.9,-175.37 365.52,-182.36"/>
</g>
<!-- Node9 -->
<g id="node9" class="node">
<title>Node9</title>
<g id="a_node9"><a xlink:href="wld__radioOperatingStandards_8c.html#ae3d8d225197b9909a08b3b9ea1f77ff6" target="_top" xlink:title=" ">
<polygon fill="white" stroke="black" points="165,-114.5 165,-133.5 327,-133.5 327,-114.5 165,-114.5"/>
<text text-anchor="middle" x="246" y="-121.5" font-family="Helvetica,sans-Serif" font-size="10.00">wld_rad_checkEnabledRadStd</text>
</a>
</g>
</g>
<!-- Node1&#45;&gt;Node9 -->
<g id="edge9" class="edge">
<title>Node1&#45;&gt;Node9</title>
<path fill="none" stroke="midnightblue" d="M116.07,-150.34C139.05,-145.65 165.48,-140.25 188.41,-135.56"/>
<polygon fill="midnightblue" stroke="midnightblue" points="189.24,-138.96 198.33,-133.53 187.84,-132.11 189.24,-138.96"/>
</g>
<!-- Node10 -->
<g id="node10" class="node">
<title>Node10</title>
<g id="a_node10"><a xlink:href="wld__radio_8c.html#a1143f1257139c1d3d6b428a8475b5fac" target="_top" xlink:title=" ">
<polygon fill="white" stroke="black" points="175,-76.5 175,-95.5 317,-95.5 317,-76.5 175,-76.5"/>
<text text-anchor="middle" x="246" y="-83.5" font-family="Helvetica,sans-Serif" font-size="10.00">wld_rad_hasUsableApMld</text>
</a>
</g>
</g>
<!-- Node1&#45;&gt;Node10 -->
<g id="edge10" class="edge">
<title>Node1&#45;&gt;Node10</title>
<path fill="none" stroke="midnightblue" d="M78.96,-146.91C97.09,-133.91 125.05,-115.63 152,-105 158.75,-102.34 165.92,-100.03 173.17,-98.04"/>
<polygon fill="midnightblue" stroke="midnightblue" points="174.27,-101.37 183.09,-95.5 172.53,-94.59 174.27,-101.37"/>
</g>
<!-- Node11 -->
<g id="node11" class="node">
<title>Node11</title>
<g id="a_node11"><a xlink:href="wld__radio_8c.html#aa278bea67c721dfdc303926254cb343a" target="_top" xlink:title=" ">
<polygon fill="white" stroke="black" points="194.5,-38.5 194.5,-57.5 297.5,-57.5 297.5,-38.5 194.5,-38.5"/>
<text text-anchor="middle" x="246" y="-45.5" font-family="Helvetica,sans-Serif" font-size="10.00">wld_rad_is_24ghz</text>
</a>
</g>
</g>
<!-- Node1&#45;&gt;Node11 -->
<g id="edge11" class="edge">
<title>Node1&#45;&gt;Node11</title>
<path fill="none" stroke="midnightblue" d="M69.33,-146.75C84.71,-125.33 115.72,-86.76 152,-67 161.96,-61.57 173.29,-57.69 184.53,-54.92"/>
<polygon fill="midnightblue" stroke="midnightblue" points="185.34,-58.32 194.35,-52.75 183.83,-51.49 185.34,-58.32"/>
</g>
<!-- Node12 -->
<g id="node12" class="node">
<title>Node12</title>
<g id="a_node12"><a xlink:href="wld__radio_8c.html#aa3def1a3c6a1c1dda049b17be731c6fb" target="_top" xlink:title=" ">
<polygon fill="white" stroke="black" points="197,-0.5 197,-19.5 295,-19.5 295,-0.5 197,-0.5"/>
<text text-anchor="middle" x="246" y="-7.5" font-family="Helvetica,sans-Serif" font-size="10.00">wld_rad_isUpExt</text>
</a>
</g>
</g>
<!-- Node1&#45;&gt;Node12 -->
<g id="edge12" class="edge">
<title>Node1&#45;&gt;Node12</title>
<path fill="none" stroke="midnightblue" d="M65.05,-146.79C77.08,-118.66 106.78,-58.69 152,-29 162.33,-22.22 174.59,-17.78 186.76,-14.89"/>
<polygon fill="midnightblue" stroke="midnightblue" points="187.83,-18.24 196.92,-12.81 186.42,-11.39 187.83,-18.24"/>
</g>
<!-- Node3 -->
<g id="node3" class="node">
<title>Node3</title>
<g id="a_node3"><a xlink:href="wld__radio_8c.html#a0119bea4b46c7f0a642117de7184bd37" target="_top" xlink:title=" ">
<polygon fill="white" stroke="black" points="399,-333.5 399,-352.5 521,-352.5 521,-333.5 399,-333.5"/>
<text text-anchor="middle" x="460" y="-340.5" font-family="Helvetica,sans-Serif" font-size="10.00">wld_rad_getFreqBand</text>
</a>
</g>
</g>
<!-- Node2&#45;&gt;Node3 -->
<g id="edge2" class="edge">
<title>Node2&#45;&gt;Node3</title>
<path fill="none" stroke="midnightblue" d="M340.29,-343C356.61,-343 373.33,-343 388.88,-343"/>
<polygon fill="midnightblue" stroke="midnightblue" points="388.91,-346.5 398.91,-343 388.91,-339.5 388.91,-346.5"/>
</g>
<!-- Node5 -->
<g id="node5" class="node">
<title>Node5</title>
<g id="a_node5"><a xlink:href="wld__channel_8c.html#a9eabc31bc39b1fd1ce1daf0a0965087a" target="_top" xlink:title=" ">
<polygon fill="white" stroke="black" points="403.5,-279 403.5,-309 516.5,-309 516.5,-279 403.5,-279"/>
<text text-anchor="start" x="411.5" y="-297" font-family="Helvetica,sans-Serif" font-size="10.00">wld_channel_do_for</text>
<text text-anchor="middle" x="460" y="-286" font-family="Helvetica,sans-Serif" font-size="10.00">_each_channel</text>
</a>
</g>
</g>
<!-- Node4&#45;&gt;Node5 -->
<g id="edge4" class="edge">
<title>Node4&#45;&gt;Node5</title>
<path fill="none" stroke="midnightblue" d="M340.29,-294C358.14,-294 376.48,-294 393.24,-294"/>
<polygon fill="midnightblue" stroke="midnightblue" points="393.45,-297.5 403.45,-294 393.45,-290.5 393.45,-297.5"/>
</g>
<!-- Node7&#45;&gt;Node8 -->
<g id="edge7" class="edge">
<title>Node7&#45;&gt;Node8</title>
<path fill="none" stroke="midnightblue" d="M319.07,-198.52C334.04,-196.97 350.01,-195.31 365.62,-193.69"/>
<polygon fill="midnightblue" stroke="midnightblue" points="366.22,-197.15 375.81,-192.63 365.5,-190.18 366.22,-197.15"/>
</g>
</g>
</svg>
