<?xml version="1.0" encoding="UTF-8" standalone="no"?>
<!DOCTYPE svg PUBLIC "-//W3C//DTD SVG 1.1//EN"
 "http://www.w3.org/Graphics/SVG/1.1/DTD/svg11.dtd">
<!-- Generated by graphviz version 2.43.0 (0)
 -->
<!-- Title: wld_mld_getPrimaryLinkIfName Pages: 1 -->
<svg width="548pt" height="85pt"
 viewBox="0.00 0.00 548.00 85.00" xmlns="http://www.w3.org/2000/svg" xmlns:xlink="http://www.w3.org/1999/xlink">
<g id="graph0" class="graph" transform="scale(1 1) rotate(0) translate(4 81)">
<title>wld_mld_getPrimaryLinkIfName</title>
<polygon fill="white" stroke="transparent" points="-4,4 -4,-81 544,-81 544,4 -4,4"/>
<!-- Node1 -->
<g id="node1" class="node">
<title>Node1</title>
<g id="a_node1"><a xlink:title=" ">
<polygon fill="#bfbfbf" stroke="black" points="0,-19.5 0,-38.5 173,-38.5 173,-19.5 0,-19.5"/>
<text text-anchor="middle" x="86.5" y="-26.5" font-family="Helvetica,sans-Serif" font-size="10.00">wld_mld_getPrimaryLinkIfName</text>
</a>
</g>
</g>
<!-- Node2 -->
<g id="node2" class="node">
<title>Node2</title>
<g id="a_node2"><a xlink:href="wld__mld_8c.html#a93acd0516243fb70c024795d9ed86469" target="_top" xlink:title=" ">
<polygon fill="white" stroke="black" points="209,-38.5 209,-57.5 367,-57.5 367,-38.5 209,-38.5"/>
<text text-anchor="middle" x="288" y="-45.5" font-family="Helvetica,sans-Serif" font-size="10.00">wld_mld_getPrimaryLinkSsid</text>
</a>
</g>
</g>
<!-- Node1&#45;&gt;Node2 -->
<g id="edge1" class="edge">
<title>Node1&#45;&gt;Node2</title>
<path fill="none" stroke="midnightblue" d="M173.26,-37.17C181.67,-37.97 190.22,-38.78 198.65,-39.59"/>
<polygon fill="midnightblue" stroke="midnightblue" points="198.58,-43.09 208.87,-40.56 199.24,-36.13 198.58,-43.09"/>
</g>
<!-- Node5 -->
<g id="node5" class="node">
<title>Node5</title>
<g id="a_node5"><a xlink:href="wld__ssid_8c.html#ae8903c170f2876d18c081584527da5cd" target="_top" xlink:title=" ">
<polygon fill="white" stroke="black" points="230,-0.5 230,-19.5 346,-19.5 346,-0.5 230,-0.5"/>
<text text-anchor="middle" x="288" y="-7.5" font-family="Helvetica,sans-Serif" font-size="10.00">wld_ssid_getIfName</text>
</a>
</g>
</g>
<!-- Node1&#45;&gt;Node5 -->
<g id="edge4" class="edge">
<title>Node1&#45;&gt;Node5</title>
<path fill="none" stroke="midnightblue" d="M173.26,-20.83C188.79,-19.35 204.79,-17.83 219.69,-16.41"/>
<polygon fill="midnightblue" stroke="midnightblue" points="220.2,-19.88 229.82,-15.45 219.54,-12.91 220.2,-19.88"/>
</g>
<!-- Node3 -->
<g id="node3" class="node">
<title>Node3</title>
<g id="a_node3"><a xlink:href="wld__mld_8c.html#a76c7faf25698a1ac7b59d8199724dbf6" target="_top" xlink:title=" ">
<polygon fill="white" stroke="black" points="412,-57.5 412,-76.5 531,-76.5 531,-57.5 412,-57.5"/>
<text text-anchor="middle" x="471.5" y="-64.5" font-family="Helvetica,sans-Serif" font-size="10.00">wld_mld_getLinkSsid</text>
</a>
</g>
</g>
<!-- Node2&#45;&gt;Node3 -->
<g id="edge2" class="edge">
<title>Node2&#45;&gt;Node3</title>
<path fill="none" stroke="midnightblue" d="M367.03,-56.17C378.5,-57.37 390.25,-58.6 401.53,-59.78"/>
<polygon fill="midnightblue" stroke="midnightblue" points="401.42,-63.29 411.73,-60.85 402.15,-56.33 401.42,-63.29"/>
</g>
<!-- Node4 -->
<g id="node4" class="node">
<title>Node4</title>
<g id="a_node4"><a xlink:href="wld__mld_8c.html#a5a22c785e66b2fa3cefd805bec557e3f" target="_top" xlink:title=" ">
<polygon fill="white" stroke="black" points="403,-19.5 403,-38.5 540,-38.5 540,-19.5 403,-19.5"/>
<text text-anchor="middle" x="471.5" y="-26.5" font-family="Helvetica,sans-Serif" font-size="10.00">wld_mld_getPrimaryLink</text>
</a>
</g>
</g>
<!-- Node2&#45;&gt;Node4 -->
<g id="edge3" class="edge">
<title>Node2&#45;&gt;Node4</title>
<path fill="none" stroke="midnightblue" d="M367.03,-39.83C375.59,-38.94 384.31,-38.02 392.86,-37.13"/>
<polygon fill="midnightblue" stroke="midnightblue" points="393.24,-40.61 402.82,-36.09 392.51,-33.65 393.24,-40.61"/>
</g>
</g>
</svg>
