<?xml version="1.0" encoding="UTF-8" standalone="no"?>
<!DOCTYPE svg PUBLIC "-//W3C//DTD SVG 1.1//EN"
 "http://www.w3.org/Graphics/SVG/1.1/DTD/svg11.dtd">
<!-- Generated by graphviz version 2.43.0 (0)
 -->
<!-- Title: wld_secDmnGrp_getMembersCount Pages: 1 -->
<svg width="808pt" height="142pt"
 viewBox="0.00 0.00 808.00 142.00" xmlns="http://www.w3.org/2000/svg" xmlns:xlink="http://www.w3.org/1999/xlink">
<g id="graph0" class="graph" transform="scale(1 1) rotate(0) translate(4 138)">
<title>wld_secDmnGrp_getMembersCount</title>
<polygon fill="white" stroke="transparent" points="-4,4 -4,-138 804,-138 804,4 -4,4"/>
<!-- Node1 -->
<g id="node1" class="node">
<title>Node1</title>
<g id="a_node1"><a xlink:title=" ">
<polygon fill="#bfbfbf" stroke="black" points="637,-52 637,-82 800,-82 800,-52 637,-52"/>
<text text-anchor="start" x="645" y="-70" font-family="Helvetica,sans-Serif" font-size="10.00">wld_secDmnGrp_getMembers</text>
<text text-anchor="middle" x="718.5" y="-59" font-family="Helvetica,sans-Serif" font-size="10.00">Count</text>
</a>
</g>
</g>
<!-- Node2 -->
<g id="node2" class="node">
<title>Node2</title>
<g id="a_node2"><a xlink:href="wifiGen__hapd_8c.html#a2671410f51adadb1692d7eccb1edc89c" target="_top" xlink:title=" ">
<polygon fill="white" stroke="black" points="423,-114.5 423,-133.5 601,-133.5 601,-114.5 423,-114.5"/>
<text text-anchor="middle" x="512" y="-121.5" font-family="Helvetica,sans-Serif" font-size="10.00">wifiGen_hapd_countGrpMembers</text>
</a>
</g>
</g>
<!-- Node1&#45;&gt;Node2 -->
<g id="edge1" class="edge">
<title>Node1&#45;&gt;Node2</title>
<path fill="none" stroke="midnightblue" d="M665.39,-85.26C645.39,-91.94 622.27,-99.25 601,-105 588.33,-108.43 574.49,-111.65 561.63,-114.43"/>
<polygon fill="midnightblue" stroke="midnightblue" points="666.58,-88.56 674.94,-82.05 664.34,-81.92 666.58,-88.56"/>
</g>
<!-- Node5 -->
<g id="node5" class="node">
<title>Node5</title>
<g id="a_node5"><a xlink:href="wld__secDmn_8c.html#a88e1c5b6b4052d577d7839ba2cc53ad2" target="_top" xlink:title=" ">
<polygon fill="white" stroke="black" points="425,-76.5 425,-95.5 599,-95.5 599,-76.5 425,-76.5"/>
<text text-anchor="middle" x="512" y="-83.5" font-family="Helvetica,sans-Serif" font-size="10.00">wld_secDmn_countGrpMembers</text>
</a>
</g>
</g>
<!-- Node1&#45;&gt;Node5 -->
<g id="edge4" class="edge">
<title>Node1&#45;&gt;Node5</title>
<path fill="none" stroke="midnightblue" d="M627,-75.41C617.76,-76.27 608.38,-77.14 599.19,-77.99"/>
<polygon fill="midnightblue" stroke="midnightblue" points="627.34,-78.89 636.97,-74.48 626.69,-71.92 627.34,-78.89"/>
</g>
<!-- Node6 -->
<g id="node6" class="node">
<title>Node6</title>
<g id="a_node6"><a xlink:href="wld__secDmn_8c.html#af259fc7fdc2eb62b9d2b531ef92b6536" target="_top" xlink:title=" ">
<polygon fill="white" stroke="black" points="426.5,-38.5 426.5,-57.5 597.5,-57.5 597.5,-38.5 426.5,-38.5"/>
<text text-anchor="middle" x="512" y="-45.5" font-family="Helvetica,sans-Serif" font-size="10.00">wld_secDmn_getCfgParamSupp</text>
</a>
</g>
</g>
<!-- Node1&#45;&gt;Node6 -->
<g id="edge5" class="edge">
<title>Node1&#45;&gt;Node6</title>
<path fill="none" stroke="midnightblue" d="M626.95,-58.59C617.27,-57.69 607.44,-56.77 597.83,-55.88"/>
<polygon fill="midnightblue" stroke="midnightblue" points="626.69,-62.08 636.97,-59.52 627.34,-55.11 626.69,-62.08"/>
</g>
<!-- Node8 -->
<g id="node8" class="node">
<title>Node8</title>
<g id="a_node8"><a xlink:href="wld__secDmn_8c.html#a195c507517bc352d7a1b33c39ec94594" target="_top" xlink:title=" ">
<polygon fill="white" stroke="black" points="439,-0.5 439,-19.5 585,-19.5 585,-0.5 439,-0.5"/>
<text text-anchor="middle" x="512" y="-7.5" font-family="Helvetica,sans-Serif" font-size="10.00">wld_secDmn_getCmdSupp</text>
</a>
</g>
</g>
<!-- Node1&#45;&gt;Node8 -->
<g id="edge7" class="edge">
<title>Node1&#45;&gt;Node8</title>
<path fill="none" stroke="midnightblue" d="M665.39,-48.74C645.39,-42.06 622.27,-34.75 601,-29 588.33,-25.57 574.49,-22.35 561.63,-19.57"/>
<polygon fill="midnightblue" stroke="midnightblue" points="664.34,-52.08 674.94,-51.95 666.58,-45.44 664.34,-52.08"/>
</g>
<!-- Node3 -->
<g id="node3" class="node">
<title>Node3</title>
<g id="a_node3"><a xlink:href="wifiGen__hapd_8c.html#a3316988b243476f9ae97626a068d4d04" target="_top" xlink:title=" ">
<polygon fill="white" stroke="black" points="0,-57.5 0,-76.5 160,-76.5 160,-57.5 0,-57.5"/>
<text text-anchor="middle" x="80" y="-64.5" font-family="Helvetica,sans-Serif" font-size="10.00">wifiGen_hapd_reloadDaemon</text>
</a>
</g>
</g>
<!-- Node2&#45;&gt;Node3 -->
<g id="edge2" class="edge">
<title>Node2&#45;&gt;Node3</title>
<path fill="none" stroke="midnightblue" d="M412.41,-124.57C349.9,-123.34 267.61,-118.75 196,-105 163.17,-98.7 126.76,-85.56 103.88,-76.52"/>
<polygon fill="midnightblue" stroke="midnightblue" points="412.6,-128.08 422.66,-124.75 412.72,-121.08 412.6,-128.08"/>
</g>
<!-- Node4 -->
<g id="node4" class="node">
<title>Node4</title>
<g id="a_node4"><a xlink:href="wifiGen__rad_8c.html#a99b90477eeb3ee4e29b87752bbcffe2f" target="_top" xlink:title=" ">
<polygon fill="white" stroke="black" points="212,-76.5 212,-95.5 371,-95.5 371,-76.5 212,-76.5"/>
<text text-anchor="middle" x="291.5" y="-83.5" font-family="Helvetica,sans-Serif" font-size="10.00">wifiGen_rad_miscHasSupport</text>
</a>
</g>
</g>
<!-- Node2&#45;&gt;Node4 -->
<g id="edge3" class="edge">
<title>Node2&#45;&gt;Node4</title>
<path fill="none" stroke="midnightblue" d="M446.16,-112.72C414.73,-107.26 377.38,-100.76 347.38,-95.54"/>
<polygon fill="midnightblue" stroke="midnightblue" points="445.69,-116.19 456.15,-114.46 446.89,-109.3 445.69,-116.19"/>
</g>
<!-- Node7 -->
<g id="node7" class="node">
<title>Node7</title>
<g id="a_node7"><a xlink:href="wld__rad__hostapd__api_8c.html#ae96e7d77d8d387f1933ecb6a3b8fe89e" target="_top" xlink:title=" ">
<polygon fill="white" stroke="black" points="196,-38.5 196,-57.5 387,-57.5 387,-38.5 196,-38.5"/>
<text text-anchor="middle" x="291.5" y="-45.5" font-family="Helvetica,sans-Serif" font-size="10.00">wld_rad_hostapd_getCfgParamSupp</text>
</a>
</g>
</g>
<!-- Node6&#45;&gt;Node7 -->
<g id="edge6" class="edge">
<title>Node6&#45;&gt;Node7</title>
<path fill="none" stroke="midnightblue" d="M416.2,-48C406.53,-48 396.71,-48 387.04,-48"/>
<polygon fill="midnightblue" stroke="midnightblue" points="416.21,-51.5 426.21,-48 416.21,-44.5 416.21,-51.5"/>
</g>
<!-- Node9 -->
<g id="node9" class="node">
<title>Node9</title>
<g id="a_node9"><a xlink:href="wld__rad__hostapd__api_8c.html#a848163f8651e518db2503acba24262c2" target="_top" xlink:title="reconfigure hostapd from file">
<polygon fill="white" stroke="black" points="212,-0.5 212,-19.5 371,-19.5 371,-0.5 212,-0.5"/>
<text text-anchor="middle" x="291.5" y="-7.5" font-family="Helvetica,sans-Serif" font-size="10.00">wld_rad_hostapd_reconfigure</text>
</a>
</g>
</g>
<!-- Node8&#45;&gt;Node9 -->
<g id="edge8" class="edge">
<title>Node8&#45;&gt;Node9</title>
<path fill="none" stroke="midnightblue" d="M428.83,-10C410,-10 390.03,-10 371.35,-10"/>
<polygon fill="midnightblue" stroke="midnightblue" points="428.85,-13.5 438.85,-10 428.85,-6.5 428.85,-13.5"/>
</g>
<!-- Node9&#45;&gt;Node3 -->
<g id="edge9" class="edge">
<title>Node9&#45;&gt;Node3</title>
<path fill="none" stroke="midnightblue" d="M227.3,-21.61C216.79,-23.85 206.05,-26.34 196,-29 164.9,-37.23 129.9,-49.2 106.76,-57.49"/>
<polygon fill="midnightblue" stroke="midnightblue" points="228.18,-25 237.26,-19.53 226.76,-18.14 228.18,-25"/>
</g>
</g>
</svg>
