<?xml version="1.0" encoding="UTF-8" standalone="no"?>
<!DOCTYPE svg PUBLIC "-//W3C//DTD SVG 1.1//EN"
 "http://www.w3.org/Graphics/SVG/1.1/DTD/svg11.dtd">
<!-- Generated by graphviz version 2.43.0 (0)
 -->
<!-- Title: test/testHelper/wld_th_ep.h Pages: 1 -->
<svg width="5673pt" height="263pt"
 viewBox="0.00 0.00 5672.50 263.00" xmlns="http://www.w3.org/2000/svg" xmlns:xlink="http://www.w3.org/1999/xlink">
<g id="graph0" class="graph" transform="scale(1 1) rotate(0) translate(4 259)">
<title>test/testHelper/wld_th_ep.h</title>
<polygon fill="white" stroke="transparent" points="-4,4 -4,-259 5668.5,-259 5668.5,4 -4,4"/>
<!-- Node1 -->
<g id="node1" class="node">
<title>Node1</title>
<g id="a_node1"><a xlink:title=" ">
<polygon fill="#bfbfbf" stroke="black" points="4950.5,-224.5 4950.5,-254.5 5060.5,-254.5 5060.5,-224.5 4950.5,-224.5"/>
<text text-anchor="start" x="4958.5" y="-242.5" font-family="Helvetica,sans-Serif" font-size="10.00">test/testHelper/wld</text>
<text text-anchor="middle" x="5005.5" y="-231.5" font-family="Helvetica,sans-Serif" font-size="10.00">_th_ep.h</text>
</a>
</g>
</g>
<!-- Node2 -->
<g id="node2" class="node">
<title>Node2</title>
<g id="a_node2"><a xlink:href="wld_8h.html" target="_top" xlink:title=" ">
<polygon fill="white" stroke="red" points="2244,-168.5 2244,-187.5 2287,-187.5 2287,-168.5 2244,-168.5"/>
<text text-anchor="middle" x="2265.5" y="-175.5" font-family="Helvetica,sans-Serif" font-size="10.00">wld.h</text>
</a>
</g>
</g>
<!-- Node1&#45;&gt;Node2 -->
<g id="edge1" class="edge">
<title>Node1&#45;&gt;Node2</title>
<path fill="none" stroke="midnightblue" d="M4950.46,-237.3C4590.29,-229.48 2575.93,-185.74 2297.44,-179.69"/>
<polygon fill="midnightblue" stroke="midnightblue" points="2297.29,-176.19 2287.21,-179.47 2297.14,-183.19 2297.29,-176.19"/>
</g>
<!-- Node17 -->
<g id="node17" class="node">
<title>Node17</title>
<g id="a_node17"><a xlink:title=" ">
<polygon fill="white" stroke="#bfbfbf" points="0,-112.5 0,-131.5 83,-131.5 83,-112.5 0,-112.5"/>
<text text-anchor="middle" x="41.5" y="-119.5" font-family="Helvetica,sans-Serif" font-size="10.00">amxc/amxc.h</text>
</a>
</g>
</g>
<!-- Node1&#45;&gt;Node17 -->
<g id="edge60" class="edge">
<title>Node1&#45;&gt;Node17</title>
<path fill="none" stroke="midnightblue" d="M4950.41,-238.59C4507.25,-239.19 1517.22,-241.19 616.5,-188 386,-174.39 326.09,-165.08 93.35,-132.04"/>
<polygon fill="midnightblue" stroke="midnightblue" points="93.6,-128.54 83.21,-130.6 92.62,-135.47 93.6,-128.54"/>
</g>
<!-- Node18 -->
<g id="node18" class="node">
<title>Node18</title>
<g id="a_node18"><a xlink:title=" ">
<polygon fill="white" stroke="#bfbfbf" points="101.5,-112.5 101.5,-131.5 185.5,-131.5 185.5,-112.5 101.5,-112.5"/>
<text text-anchor="middle" x="143.5" y="-119.5" font-family="Helvetica,sans-Serif" font-size="10.00">amxp/amxp.h</text>
</a>
</g>
</g>
<!-- Node1&#45;&gt;Node18 -->
<g id="edge61" class="edge">
<title>Node1&#45;&gt;Node18</title>
<path fill="none" stroke="midnightblue" d="M4950.27,-238.3C4622.56,-236.99 2899.84,-228.37 1494.5,-188 919.81,-171.49 771.13,-194.56 195.95,-132.01"/>
<polygon fill="midnightblue" stroke="midnightblue" points="196.06,-128.5 185.74,-130.9 195.3,-135.46 196.06,-128.5"/>
</g>
<!-- Node22 -->
<g id="node22" class="node">
<title>Node22</title>
<g id="a_node22"><a xlink:title=" ">
<polygon fill="white" stroke="#bfbfbf" points="203.5,-112.5 203.5,-131.5 355.5,-131.5 355.5,-112.5 203.5,-112.5"/>
<text text-anchor="middle" x="279.5" y="-119.5" font-family="Helvetica,sans-Serif" font-size="10.00">amxd/amxd_object_event.h</text>
</a>
</g>
</g>
<!-- Node1&#45;&gt;Node22 -->
<g id="edge65" class="edge">
<title>Node1&#45;&gt;Node22</title>
<path fill="none" stroke="midnightblue" d="M4950.33,-237.74C4665.05,-233.73 3328.21,-214.34 2234.5,-188 2029.73,-183.07 614.25,-147.14 366.21,-132.03"/>
<polygon fill="midnightblue" stroke="midnightblue" points="366.14,-128.52 355.93,-131.37 365.69,-135.5 366.14,-128.52"/>
</g>
<!-- Node25 -->
<g id="node25" class="node">
<title>Node25</title>
<g id="a_node25"><a xlink:title=" ">
<polygon fill="white" stroke="#bfbfbf" points="4820,-112.5 4820,-131.5 4939,-131.5 4939,-112.5 4820,-112.5"/>
<text text-anchor="middle" x="4879.5" y="-119.5" font-family="Helvetica,sans-Serif" font-size="10.00">amxd/amxd_object.h</text>
</a>
</g>
</g>
<!-- Node1&#45;&gt;Node25 -->
<g id="edge63" class="edge">
<title>Node1&#45;&gt;Node25</title>
<path fill="none" stroke="midnightblue" d="M4990.05,-224.34C4966.32,-202.58 4921.06,-161.09 4896.45,-138.54"/>
<polygon fill="midnightblue" stroke="midnightblue" points="4898.69,-135.85 4888.96,-131.67 4893.96,-141.01 4898.69,-135.85"/>
</g>
<!-- Node26 -->
<g id="node26" class="node">
<title>Node26</title>
<g id="a_node26"><a xlink:title=" ">
<polygon fill="white" stroke="#bfbfbf" points="4996,-112.5 4996,-131.5 5101,-131.5 5101,-112.5 4996,-112.5"/>
<text text-anchor="middle" x="5048.5" y="-119.5" font-family="Helvetica,sans-Serif" font-size="10.00">amxd/amxd_dm.h</text>
</a>
</g>
</g>
<!-- Node1&#45;&gt;Node26 -->
<g id="edge62" class="edge">
<title>Node1&#45;&gt;Node26</title>
<path fill="none" stroke="midnightblue" d="M5009.99,-224.35C5014.6,-210.04 5022.14,-187.33 5029.5,-168 5032.94,-158.97 5037.08,-149.07 5040.61,-140.86"/>
<polygon fill="midnightblue" stroke="midnightblue" points="5043.88,-142.12 5044.67,-131.55 5037.47,-139.32 5043.88,-142.12"/>
</g>
<!-- Node31 -->
<g id="node31" class="node">
<title>Node31</title>
<g id="a_node31"><a xlink:title=" ">
<polygon fill="white" stroke="#bfbfbf" points="5119,-112.5 5119,-131.5 5202,-131.5 5202,-112.5 5119,-112.5"/>
<text text-anchor="middle" x="5160.5" y="-119.5" font-family="Helvetica,sans-Serif" font-size="10.00">amxo/amxo.h</text>
</a>
</g>
</g>
<!-- Node1&#45;&gt;Node31 -->
<g id="edge66" class="edge">
<title>Node1&#45;&gt;Node31</title>
<path fill="none" stroke="midnightblue" d="M5014.03,-224.43C5024.03,-208.92 5041.87,-184.03 5062.5,-168 5080.84,-153.75 5104.41,-142.74 5123.84,-135.18"/>
<polygon fill="midnightblue" stroke="midnightblue" points="5125.15,-138.43 5133.29,-131.65 5122.7,-131.87 5125.15,-138.43"/>
</g>
<!-- Node33 -->
<g id="node33" class="node">
<title>Node33</title>
<g id="a_node33"><a xlink:href="wld__types_8h.html" target="_top" xlink:title=" ">
<polygon fill="white" stroke="red" points="2299,-56.5 2299,-75.5 2374,-75.5 2374,-56.5 2299,-56.5"/>
<text text-anchor="middle" x="2336.5" y="-63.5" font-family="Helvetica,sans-Serif" font-size="10.00">wld_types.h</text>
</a>
</g>
</g>
<!-- Node1&#45;&gt;Node33 -->
<g id="edge57" class="edge">
<title>Node1&#45;&gt;Node33</title>
<path fill="none" stroke="midnightblue" d="M5003.84,-224.35C4999.81,-197.07 4986.73,-137.65 4947.5,-112 4891.71,-75.52 2733.63,-68.09 2384.1,-67.12"/>
<polygon fill="midnightblue" stroke="midnightblue" points="2384.06,-63.62 2374.05,-67.09 2384.04,-70.62 2384.06,-63.62"/>
</g>
<!-- Node75 -->
<g id="node46" class="node">
<title>Node75</title>
<g id="a_node46"><a xlink:href="wld__th__types_8h.html" target="_top" xlink:title=" ">
<polygon fill="white" stroke="black" points="5071.5,-168.5 5071.5,-187.5 5161.5,-187.5 5161.5,-168.5 5071.5,-168.5"/>
<text text-anchor="middle" x="5116.5" y="-175.5" font-family="Helvetica,sans-Serif" font-size="10.00">wld_th_types.h</text>
</a>
</g>
</g>
<!-- Node1&#45;&gt;Node75 -->
<g id="edge58" class="edge">
<title>Node1&#45;&gt;Node75</title>
<path fill="none" stroke="midnightblue" d="M5031.81,-224.4C5049.76,-214.77 5073.42,-202.09 5091.17,-192.58"/>
<polygon fill="midnightblue" stroke="midnightblue" points="5093.19,-195.47 5100.35,-187.66 5089.88,-189.3 5093.19,-195.47"/>
</g>
<!-- Node76 -->
<g id="node47" class="node">
<title>Node76</title>
<g id="a_node47"><a xlink:title=" ">
<polygon fill="white" stroke="#bfbfbf" points="5179.5,-168.5 5179.5,-187.5 5303.5,-187.5 5303.5,-168.5 5179.5,-168.5"/>
<text text-anchor="middle" x="5241.5" y="-175.5" font-family="Helvetica,sans-Serif" font-size="10.00">amxc/amxc_macros.h</text>
</a>
</g>
</g>
<!-- Node1&#45;&gt;Node76 -->
<g id="edge59" class="edge">
<title>Node1&#45;&gt;Node76</title>
<path fill="none" stroke="midnightblue" d="M5060.53,-224.62C5102.29,-214.1 5158.93,-199.82 5197.66,-190.05"/>
<polygon fill="midnightblue" stroke="midnightblue" points="5198.75,-193.39 5207.59,-187.55 5197.03,-186.6 5198.75,-193.39"/>
</g>
<!-- Node77 -->
<g id="node48" class="node">
<title>Node77</title>
<g id="a_node48"><a xlink:title=" ">
<polygon fill="white" stroke="#bfbfbf" points="5322,-168.5 5322,-187.5 5433,-187.5 5433,-168.5 5322,-168.5"/>
<text text-anchor="middle" x="5377.5" y="-175.5" font-family="Helvetica,sans-Serif" font-size="10.00">amxd/amxd_path.h</text>
</a>
</g>
</g>
<!-- Node1&#45;&gt;Node77 -->
<g id="edge64" class="edge">
<title>Node1&#45;&gt;Node77</title>
<path fill="none" stroke="midnightblue" d="M5060.79,-229.66C5128.5,-218.83 5242.94,-200.52 5314.14,-189.13"/>
<polygon fill="midnightblue" stroke="midnightblue" points="5315,-192.54 5324.32,-187.51 5313.89,-185.63 5315,-192.54"/>
</g>
<!-- Node78 -->
<g id="node49" class="node">
<title>Node78</title>
<g id="a_node49"><a xlink:title=" ">
<polygon fill="white" stroke="#bfbfbf" points="5451,-168.5 5451,-187.5 5562,-187.5 5562,-168.5 5451,-168.5"/>
<text text-anchor="middle" x="5506.5" y="-175.5" font-family="Helvetica,sans-Serif" font-size="10.00">amxo/amxo_save.h</text>
</a>
</g>
</g>
<!-- Node1&#45;&gt;Node78 -->
<g id="edge67" class="edge">
<title>Node1&#45;&gt;Node78</title>
<path fill="none" stroke="midnightblue" d="M5060.74,-232.56C5141.76,-223.75 5297.85,-206.4 5440.42,-188.24"/>
<polygon fill="midnightblue" stroke="midnightblue" points="5441.19,-191.67 5450.66,-186.93 5440.3,-184.73 5441.19,-191.67"/>
</g>
<!-- Node79 -->
<g id="node50" class="node">
<title>Node79</title>
<g id="a_node50"><a xlink:title=" ">
<polygon fill="white" stroke="#bfbfbf" points="5580.5,-168.5 5580.5,-187.5 5664.5,-187.5 5664.5,-168.5 5580.5,-168.5"/>
<text text-anchor="middle" x="5622.5" y="-175.5" font-family="Helvetica,sans-Serif" font-size="10.00">amxb/amxb.h</text>
</a>
</g>
</g>
<!-- Node1&#45;&gt;Node79 -->
<g id="edge68" class="edge">
<title>Node1&#45;&gt;Node79</title>
<path fill="none" stroke="midnightblue" d="M5060.71,-235.15C5160.43,-228.76 5377.37,-213.28 5570.21,-188.07"/>
<polygon fill="midnightblue" stroke="midnightblue" points="5570.79,-191.52 5580.24,-186.74 5569.87,-184.58 5570.79,-191.52"/>
</g>
<!-- Node3 -->
<g id="node3" class="node">
<title>Node3</title>
<g id="a_node3"><a xlink:title=" ">
<polygon fill="white" stroke="#bfbfbf" points="924.5,-56.5 924.5,-75.5 986.5,-75.5 986.5,-56.5 924.5,-56.5"/>
<text text-anchor="middle" x="955.5" y="-63.5" font-family="Helvetica,sans-Serif" font-size="10.00">stdbool.h</text>
</a>
</g>
</g>
<!-- Node2&#45;&gt;Node3 -->
<g id="edge2" class="edge">
<title>Node2&#45;&gt;Node3</title>
<path fill="none" stroke="midnightblue" d="M2243.96,-176.3C2077.96,-170.88 1008.63,-135.85 1001.5,-132 982.92,-121.96 970.14,-100.76 962.85,-85.29"/>
<polygon fill="midnightblue" stroke="midnightblue" points="965.87,-83.48 958.67,-75.71 959.45,-86.27 965.87,-83.48"/>
</g>
<!-- Node4 -->
<g id="node4" class="node">
<title>Node4</title>
<g id="a_node4"><a xlink:title=" ">
<polygon fill="white" stroke="#bfbfbf" points="3352,-0.5 3352,-19.5 3405,-19.5 3405,-0.5 3352,-0.5"/>
<text text-anchor="middle" x="3378.5" y="-7.5" font-family="Helvetica,sans-Serif" font-size="10.00">stdint.h</text>
</a>
</g>
</g>
<!-- Node2&#45;&gt;Node4 -->
<g id="edge3" class="edge">
<title>Node2&#45;&gt;Node4</title>
<path fill="none" stroke="midnightblue" d="M2287.12,-176.9C2493.34,-175.89 4106.43,-166.89 4140.5,-132 4245.45,-24.5 3581.37,-12.49 3415.43,-11.16"/>
<polygon fill="midnightblue" stroke="midnightblue" points="3415.26,-7.66 3405.23,-11.09 3415.21,-14.66 3415.26,-7.66"/>
</g>
<!-- Node5 -->
<g id="node5" class="node">
<title>Node5</title>
<g id="a_node5"><a xlink:title=" ">
<polygon fill="white" stroke="#bfbfbf" points="1224.5,-56.5 1224.5,-75.5 1334.5,-75.5 1334.5,-56.5 1224.5,-56.5"/>
<text text-anchor="middle" x="1279.5" y="-63.5" font-family="Helvetica,sans-Serif" font-size="10.00">swl/swl_common.h</text>
</a>
</g>
</g>
<!-- Node2&#45;&gt;Node5 -->
<g id="edge4" class="edge">
<title>Node2&#45;&gt;Node5</title>
<path fill="none" stroke="midnightblue" d="M2243.55,-176.28C2092.58,-171.27 1213.83,-141.73 1204.5,-132 1185.65,-112.33 1218.7,-92.16 1246.73,-79.61"/>
<polygon fill="midnightblue" stroke="midnightblue" points="1248.14,-82.81 1255.96,-75.66 1245.39,-76.38 1248.14,-82.81"/>
</g>
<!-- Node6 -->
<g id="node6" class="node">
<title>Node6</title>
<g id="a_node6"><a xlink:title=" ">
<polygon fill="white" stroke="#bfbfbf" points="2132.5,-112.5 2132.5,-131.5 2268.5,-131.5 2268.5,-112.5 2132.5,-112.5"/>
<text text-anchor="middle" x="2200.5" y="-119.5" font-family="Helvetica,sans-Serif" font-size="10.00">swla/swla_commonLib.h</text>
</a>
</g>
</g>
<!-- Node2&#45;&gt;Node6 -->
<g id="edge5" class="edge">
<title>Node2&#45;&gt;Node6</title>
<path fill="none" stroke="midnightblue" d="M2255.06,-168.32C2245.35,-160.26 2230.68,-148.08 2219,-138.37"/>
<polygon fill="midnightblue" stroke="midnightblue" points="2221.06,-135.53 2211.13,-131.83 2216.59,-140.92 2221.06,-135.53"/>
</g>
<!-- Node7 -->
<g id="node7" class="node">
<title>Node7</title>
<g id="a_node7"><a xlink:title=" ">
<polygon fill="white" stroke="#bfbfbf" points="2286.5,-112.5 2286.5,-131.5 2374.5,-131.5 2374.5,-112.5 2286.5,-112.5"/>
<text text-anchor="middle" x="2330.5" y="-119.5" font-family="Helvetica,sans-Serif" font-size="10.00">swl/swl_uuid.h</text>
</a>
</g>
</g>
<!-- Node2&#45;&gt;Node7 -->
<g id="edge6" class="edge">
<title>Node2&#45;&gt;Node7</title>
<path fill="none" stroke="midnightblue" d="M2275.94,-168.32C2285.65,-160.26 2300.32,-148.08 2312,-138.37"/>
<polygon fill="midnightblue" stroke="midnightblue" points="2314.41,-140.92 2319.87,-131.83 2309.94,-135.53 2314.41,-140.92"/>
</g>
<!-- Node8 -->
<g id="node8" class="node">
<title>Node8</title>
<g id="a_node8"><a xlink:title=" ">
<polygon fill="white" stroke="#bfbfbf" points="2392.5,-112.5 2392.5,-131.5 2544.5,-131.5 2544.5,-112.5 2392.5,-112.5"/>
<text text-anchor="middle" x="2468.5" y="-119.5" font-family="Helvetica,sans-Serif" font-size="10.00">swla/swla_radioStandards.h</text>
</a>
</g>
</g>
<!-- Node2&#45;&gt;Node8 -->
<g id="edge7" class="edge">
<title>Node2&#45;&gt;Node8</title>
<path fill="none" stroke="midnightblue" d="M2287.22,-171.22C2320.37,-162.41 2384.16,-145.43 2426.54,-134.16"/>
<polygon fill="midnightblue" stroke="midnightblue" points="2427.53,-137.52 2436.29,-131.57 2425.73,-130.76 2427.53,-137.52"/>
</g>
<!-- Node9 -->
<g id="node9" class="node">
<title>Node9</title>
<g id="a_node9"><a xlink:title=" ">
<polygon fill="white" stroke="#bfbfbf" points="965,-0.5 965,-19.5 1066,-19.5 1066,-0.5 965,-0.5"/>
<text text-anchor="middle" x="1015.5" y="-7.5" font-family="Helvetica,sans-Serif" font-size="10.00">swla/swla_time.h</text>
</a>
</g>
</g>
<!-- Node2&#45;&gt;Node9 -->
<g id="edge8" class="edge">
<title>Node2&#45;&gt;Node9</title>
<path fill="none" stroke="midnightblue" d="M2243.83,-176.4C2080.32,-171.82 1046.28,-142.46 1034.5,-132 1005.83,-106.56 1008.11,-56.96 1011.98,-29.83"/>
<polygon fill="midnightblue" stroke="midnightblue" points="1015.47,-30.15 1013.64,-19.72 1008.56,-29.02 1015.47,-30.15"/>
</g>
<!-- Node10 -->
<g id="node10" class="node">
<title>Node10</title>
<g id="a_node10"><a xlink:title=" ">
<polygon fill="white" stroke="#bfbfbf" points="2733,-112.5 2733,-131.5 2862,-131.5 2862,-112.5 2733,-112.5"/>
<text text-anchor="middle" x="2797.5" y="-119.5" font-family="Helvetica,sans-Serif" font-size="10.00">swla/swla_time_spec.h</text>
</a>
</g>
</g>
<!-- Node2&#45;&gt;Node10 -->
<g id="edge9" class="edge">
<title>Node2&#45;&gt;Node10</title>
<path fill="none" stroke="midnightblue" d="M2287.45,-175.02C2352.19,-169.16 2548.27,-151.12 2722.8,-132.05"/>
<polygon fill="midnightblue" stroke="midnightblue" points="2723.38,-135.51 2732.94,-130.94 2722.61,-128.55 2723.38,-135.51"/>
</g>
<!-- Node11 -->
<g id="node11" class="node">
<title>Node11</title>
<g id="a_node11"><a xlink:title=" ">
<polygon fill="white" stroke="#bfbfbf" points="2880.5,-112.5 2880.5,-131.5 2974.5,-131.5 2974.5,-112.5 2880.5,-112.5"/>
<text text-anchor="middle" x="2927.5" y="-119.5" font-family="Helvetica,sans-Serif" font-size="10.00">swla/swla_oui.h</text>
</a>
</g>
</g>
<!-- Node2&#45;&gt;Node11 -->
<g id="edge10" class="edge">
<title>Node2&#45;&gt;Node11</title>
<path fill="none" stroke="midnightblue" d="M2287.27,-176.03C2364.87,-172.44 2635.39,-158.75 2870.17,-131.93"/>
<polygon fill="midnightblue" stroke="midnightblue" points="2870.73,-135.39 2880.26,-130.77 2869.93,-128.43 2870.73,-135.39"/>
</g>
<!-- Node12 -->
<g id="node12" class="node">
<title>Node12</title>
<g id="a_node12"><a xlink:title=" ">
<polygon fill="white" stroke="#bfbfbf" points="2992.5,-112.5 2992.5,-131.5 3120.5,-131.5 3120.5,-112.5 2992.5,-112.5"/>
<text text-anchor="middle" x="3056.5" y="-119.5" font-family="Helvetica,sans-Serif" font-size="10.00">swla/swla_delayExec.h</text>
</a>
</g>
</g>
<!-- Node2&#45;&gt;Node12 -->
<g id="edge11" class="edge">
<title>Node2&#45;&gt;Node12</title>
<path fill="none" stroke="midnightblue" d="M2287.27,-176.11C2373.75,-172.49 2701.48,-157.82 2982.45,-132.04"/>
<polygon fill="midnightblue" stroke="midnightblue" points="2982.79,-135.53 2992.43,-131.12 2982.15,-128.56 2982.79,-135.53"/>
</g>
<!-- Node13 -->
<g id="node13" class="node">
<title>Node13</title>
<g id="a_node13"><a xlink:title=" ">
<polygon fill="white" stroke="#bfbfbf" points="3139,-112.5 3139,-131.5 3258,-131.5 3258,-112.5 3139,-112.5"/>
<text text-anchor="middle" x="3198.5" y="-119.5" font-family="Helvetica,sans-Serif" font-size="10.00">swla/swla_function.h</text>
</a>
</g>
</g>
<!-- Node2&#45;&gt;Node13 -->
<g id="edge12" class="edge">
<title>Node2&#45;&gt;Node13</title>
<path fill="none" stroke="midnightblue" d="M2287.25,-176.49C2384.19,-174.08 2786.84,-162.72 3128.6,-132"/>
<polygon fill="midnightblue" stroke="midnightblue" points="3129.05,-135.48 3138.69,-131.09 3128.42,-128.51 3129.05,-135.48"/>
</g>
<!-- Node14 -->
<g id="node14" class="node">
<title>Node14</title>
<g id="a_node14"><a xlink:title=" ">
<polygon fill="white" stroke="#bfbfbf" points="3276,-112.5 3276,-131.5 3417,-131.5 3417,-112.5 3276,-112.5"/>
<text text-anchor="middle" x="3346.5" y="-119.5" font-family="Helvetica,sans-Serif" font-size="10.00">swl/swl_usp_cmdStatus.h</text>
</a>
</g>
</g>
<!-- Node2&#45;&gt;Node14 -->
<g id="edge13" class="edge">
<title>Node2&#45;&gt;Node14</title>
<path fill="none" stroke="midnightblue" d="M2287.02,-176.57C2392.56,-174.34 2866.17,-163.05 3265.83,-131.99"/>
<polygon fill="midnightblue" stroke="midnightblue" points="3266.16,-135.48 3275.85,-131.21 3265.61,-128.5 3266.16,-135.48"/>
</g>
<!-- Node15 -->
<g id="node15" class="node">
<title>Node15</title>
<g id="a_node15"><a xlink:title=" ">
<polygon fill="white" stroke="#bfbfbf" points="3435.5,-112.5 3435.5,-131.5 3521.5,-131.5 3521.5,-112.5 3435.5,-112.5"/>
<text text-anchor="middle" x="3478.5" y="-119.5" font-family="Helvetica,sans-Serif" font-size="10.00">swl/swl_wps.h</text>
</a>
</g>
</g>
<!-- Node2&#45;&gt;Node15 -->
<g id="edge14" class="edge">
<title>Node2&#45;&gt;Node15</title>
<path fill="none" stroke="midnightblue" d="M2287.31,-177.2C2404.16,-178.08 2967.95,-179.52 3425.5,-132 3425.6,-131.99 3425.7,-131.98 3425.8,-131.97"/>
<polygon fill="midnightblue" stroke="midnightblue" points="3425.96,-135.47 3435.47,-130.79 3425.11,-128.53 3425.96,-135.47"/>
</g>
<!-- Node16 -->
<g id="node16" class="node">
<title>Node16</title>
<g id="a_node16"><a xlink:title=" ">
<polygon fill="white" stroke="#bfbfbf" points="3539.5,-112.5 3539.5,-131.5 3643.5,-131.5 3643.5,-112.5 3539.5,-112.5"/>
<text text-anchor="middle" x="3591.5" y="-119.5" font-family="Helvetica,sans-Serif" font-size="10.00">swl/swl_security.h</text>
</a>
</g>
</g>
<!-- Node2&#45;&gt;Node16 -->
<g id="edge15" class="edge">
<title>Node2&#45;&gt;Node16</title>
<path fill="none" stroke="midnightblue" d="M2287.21,-177.13C2409.05,-177.65 3020.11,-177.84 3529.18,-132.01"/>
<polygon fill="midnightblue" stroke="midnightblue" points="3529.66,-135.48 3539.3,-131.09 3529.03,-128.51 3529.66,-135.48"/>
</g>
<!-- Node2&#45;&gt;Node17 -->
<g id="edge16" class="edge">
<title>Node2&#45;&gt;Node17</title>
<path fill="none" stroke="midnightblue" d="M2243.96,-177.01C2047.53,-177.06 563.24,-176 93.41,-131.88"/>
<polygon fill="midnightblue" stroke="midnightblue" points="93.47,-128.37 83.18,-130.89 92.8,-135.33 93.47,-128.37"/>
</g>
<!-- Node2&#45;&gt;Node18 -->
<g id="edge17" class="edge">
<title>Node2&#45;&gt;Node18</title>
<path fill="none" stroke="midnightblue" d="M2243.8,-176.73C2039.4,-174.17 454.71,-153.71 196.05,-131.91"/>
<polygon fill="midnightblue" stroke="midnightblue" points="196.01,-128.39 185.73,-130.97 195.37,-135.36 196.01,-128.39"/>
</g>
<!-- Node19 -->
<g id="node19" class="node">
<title>Node19</title>
<g id="a_node19"><a xlink:title=" ">
<polygon fill="white" stroke="#bfbfbf" points="3661.5,-112.5 3661.5,-131.5 3801.5,-131.5 3801.5,-112.5 3661.5,-112.5"/>
<text text-anchor="middle" x="3731.5" y="-119.5" font-family="Helvetica,sans-Serif" font-size="10.00">amxd/amxd_parameter.h</text>
</a>
</g>
</g>
<!-- Node2&#45;&gt;Node19 -->
<g id="edge18" class="edge">
<title>Node2&#45;&gt;Node19</title>
<path fill="none" stroke="midnightblue" d="M2287.14,-176.96C2415.45,-176.55 3089.74,-172.56 3650.99,-132.04"/>
<polygon fill="midnightblue" stroke="midnightblue" points="3651.6,-135.51 3661.32,-131.29 3651.09,-128.53 3651.6,-135.51"/>
</g>
<!-- Node20 -->
<g id="node20" class="node">
<title>Node20</title>
<g id="a_node20"><a xlink:title=" ">
<polygon fill="white" stroke="#bfbfbf" points="3820,-112.5 3820,-131.5 3939,-131.5 3939,-112.5 3820,-112.5"/>
<text text-anchor="middle" x="3879.5" y="-119.5" font-family="Helvetica,sans-Serif" font-size="10.00">amxd/amxd_action.h</text>
</a>
</g>
</g>
<!-- Node2&#45;&gt;Node20 -->
<g id="edge19" class="edge">
<title>Node2&#45;&gt;Node20</title>
<path fill="none" stroke="midnightblue" d="M2287.33,-177.19C2424.51,-178.21 3181.71,-181.35 3809.54,-131.98"/>
<polygon fill="midnightblue" stroke="midnightblue" points="3810.01,-135.45 3819.7,-131.17 3809.45,-128.47 3810.01,-135.45"/>
</g>
<!-- Node21 -->
<g id="node21" class="node">
<title>Node21</title>
<g id="a_node21"><a xlink:title=" ">
<polygon fill="white" stroke="#bfbfbf" points="3957,-112.5 3957,-131.5 4132,-131.5 4132,-112.5 3957,-112.5"/>
<text text-anchor="middle" x="4044.5" y="-119.5" font-family="Helvetica,sans-Serif" font-size="10.00">amxd/amxd_object_parameter.h</text>
</a>
</g>
</g>
<!-- Node2&#45;&gt;Node21 -->
<g id="edge20" class="edge">
<title>Node2&#45;&gt;Node21</title>
<path fill="none" stroke="midnightblue" d="M2287.34,-176.96C2431.37,-176.57 3259.93,-172.6 3946.65,-132"/>
<polygon fill="midnightblue" stroke="midnightblue" points="3946.98,-135.49 3956.75,-131.4 3946.56,-128.5 3946.98,-135.49"/>
</g>
<!-- Node2&#45;&gt;Node22 -->
<g id="edge21" class="edge">
<title>Node2&#45;&gt;Node22</title>
<path fill="none" stroke="midnightblue" d="M2243.67,-176.26C2195.36,-174.63 2075.7,-170.67 1975.5,-168 1262.9,-148.98 1080.9,-177.48 365.96,-132.04"/>
<polygon fill="midnightblue" stroke="midnightblue" points="366.13,-128.54 355.93,-131.4 365.69,-135.53 366.13,-128.54"/>
</g>
<!-- Node23 -->
<g id="node23" class="node">
<title>Node23</title>
<g id="a_node23"><a xlink:title=" ">
<polygon fill="white" stroke="#bfbfbf" points="4189,-112.5 4189,-131.5 4318,-131.5 4318,-112.5 4189,-112.5"/>
<text text-anchor="middle" x="4253.5" y="-119.5" font-family="Helvetica,sans-Serif" font-size="10.00">amxd/amxd_function.h</text>
</a>
</g>
</g>
<!-- Node2&#45;&gt;Node23 -->
<g id="edge22" class="edge">
<title>Node2&#45;&gt;Node23</title>
<path fill="none" stroke="midnightblue" d="M2287.23,-176.76C2471.92,-174.66 3781.34,-158.97 4174.5,-132 4175.82,-131.91 4177.15,-131.81 4178.48,-131.71"/>
<polygon fill="midnightblue" stroke="midnightblue" points="4179.2,-135.16 4188.87,-130.84 4178.62,-128.19 4179.2,-135.16"/>
</g>
<!-- Node24 -->
<g id="node24" class="node">
<title>Node24</title>
<g id="a_node24"><a xlink:title=" ">
<polygon fill="white" stroke="#bfbfbf" points="4336,-112.5 4336,-131.5 4505,-131.5 4505,-112.5 4336,-112.5"/>
<text text-anchor="middle" x="4420.5" y="-119.5" font-family="Helvetica,sans-Serif" font-size="10.00">amxd/amxd_object_hierarchy.h</text>
</a>
</g>
</g>
<!-- Node2&#45;&gt;Node24 -->
<g id="edge23" class="edge">
<title>Node2&#45;&gt;Node24</title>
<path fill="none" stroke="midnightblue" d="M2287.1,-177.13C2448.06,-177.99 3477.21,-181.34 4325.69,-131.99"/>
<polygon fill="midnightblue" stroke="midnightblue" points="4326.19,-135.47 4335.97,-131.39 4325.78,-128.48 4326.19,-135.47"/>
</g>
<!-- Node2&#45;&gt;Node25 -->
<g id="edge24" class="edge">
<title>Node2&#45;&gt;Node25</title>
<path fill="none" stroke="midnightblue" d="M2287.2,-176.95C2502.56,-176.45 4259.46,-171.15 4809.7,-131.94"/>
<polygon fill="midnightblue" stroke="midnightblue" points="4809.98,-135.43 4819.7,-131.22 4809.48,-128.45 4809.98,-135.43"/>
</g>
<!-- Node2&#45;&gt;Node26 -->
<g id="edge25" class="edge">
<title>Node2&#45;&gt;Node26</title>
<path fill="none" stroke="midnightblue" d="M2287.31,-176.85C2510.77,-175.31 4388,-161.58 4947.5,-132 4959.91,-131.34 4973.17,-130.36 4985.85,-129.29"/>
<polygon fill="midnightblue" stroke="midnightblue" points="4986.21,-132.77 4995.87,-128.41 4985.6,-125.8 4986.21,-132.77"/>
</g>
<!-- Node27 -->
<g id="node27" class="node">
<title>Node27</title>
<g id="a_node27"><a xlink:title=" ">
<polygon fill="white" stroke="#bfbfbf" points="4523.5,-112.5 4523.5,-131.5 4667.5,-131.5 4667.5,-112.5 4523.5,-112.5"/>
<text text-anchor="middle" x="4595.5" y="-119.5" font-family="Helvetica,sans-Serif" font-size="10.00">amxd/amxd_transaction.h</text>
</a>
</g>
</g>
<!-- Node2&#45;&gt;Node27 -->
<g id="edge26" class="edge">
<title>Node2&#45;&gt;Node27</title>
<path fill="none" stroke="midnightblue" d="M2287.13,-176.83C2487.64,-175.26 4025.51,-162.36 4512.83,-131.95"/>
<polygon fill="midnightblue" stroke="midnightblue" points="4513.34,-135.43 4523.09,-131.3 4512.89,-128.44 4513.34,-135.43"/>
</g>
<!-- Node28 -->
<g id="node28" class="node">
<title>Node28</title>
<g id="a_node28"><a xlink:title=" ">
<polygon fill="white" stroke="#bfbfbf" points="4685.5,-112.5 4685.5,-131.5 4801.5,-131.5 4801.5,-112.5 4685.5,-112.5"/>
<text text-anchor="middle" x="4743.5" y="-119.5" font-family="Helvetica,sans-Serif" font-size="10.00">amxb/amxb_types.h</text>
</a>
</g>
</g>
<!-- Node2&#45;&gt;Node28 -->
<g id="edge27" class="edge">
<title>Node2&#45;&gt;Node28</title>
<path fill="none" stroke="midnightblue" d="M2287.03,-176.94C2495.21,-176.32 4153.76,-170.25 4675.21,-131.98"/>
<polygon fill="midnightblue" stroke="midnightblue" points="4675.73,-135.45 4685.44,-131.21 4675.2,-128.47 4675.73,-135.45"/>
</g>
<!-- Node29 -->
<g id="node29" class="node">
<title>Node29</title>
<g id="a_node29"><a xlink:title=" ">
<polygon fill="white" stroke="#bfbfbf" points="373.5,-112.5 373.5,-131.5 509.5,-131.5 509.5,-112.5 373.5,-112.5"/>
<text text-anchor="middle" x="441.5" y="-119.5" font-family="Helvetica,sans-Serif" font-size="10.00">amxb/amxb_operators.h</text>
</a>
</g>
</g>
<!-- Node2&#45;&gt;Node29 -->
<g id="edge28" class="edge">
<title>Node2&#45;&gt;Node29</title>
<path fill="none" stroke="midnightblue" d="M2243.67,-176.28C2195.36,-174.68 2075.7,-170.79 1975.5,-168 1331.32,-150.05 1166.33,-177.36 519.94,-132.03"/>
<polygon fill="midnightblue" stroke="midnightblue" points="520.12,-128.54 509.9,-131.32 519.63,-135.52 520.12,-128.54"/>
</g>
<!-- Node30 -->
<g id="node30" class="node">
<title>Node30</title>
<g id="a_node30"><a xlink:title=" ">
<polygon fill="white" stroke="#bfbfbf" points="527.5,-112.5 527.5,-131.5 639.5,-131.5 639.5,-112.5 527.5,-112.5"/>
<text text-anchor="middle" x="583.5" y="-119.5" font-family="Helvetica,sans-Serif" font-size="10.00">amxb/amxb_error.h</text>
</a>
</g>
</g>
<!-- Node2&#45;&gt;Node30 -->
<g id="edge29" class="edge">
<title>Node2&#45;&gt;Node30</title>
<path fill="none" stroke="midnightblue" d="M2243.67,-176.29C2195.36,-174.74 2075.7,-170.91 1975.5,-168 1389.07,-150.95 1238.19,-180.2 649.84,-132.01"/>
<polygon fill="midnightblue" stroke="midnightblue" points="650.08,-128.52 639.83,-131.19 649.51,-135.5 650.08,-128.52"/>
</g>
<!-- Node2&#45;&gt;Node31 -->
<g id="edge30" class="edge">
<title>Node2&#45;&gt;Node31</title>
<path fill="none" stroke="midnightblue" d="M2287.04,-176.87C2530.75,-175.41 4766.35,-161.24 5108.8,-131.94"/>
<polygon fill="midnightblue" stroke="midnightblue" points="5109.19,-135.42 5118.83,-131.02 5108.55,-128.45 5109.19,-135.42"/>
</g>
<!-- Node32 -->
<g id="node32" class="node">
<title>Node32</title>
<g id="a_node32"><a xlink:title=" ">
<polygon fill="white" stroke="#bfbfbf" points="658,-112.5 658,-131.5 773,-131.5 773,-112.5 658,-112.5"/>
<text text-anchor="middle" x="715.5" y="-119.5" font-family="Helvetica,sans-Serif" font-size="10.00">amxo/amxo_types.h</text>
</a>
</g>
</g>
<!-- Node2&#45;&gt;Node32 -->
<g id="edge31" class="edge">
<title>Node2&#45;&gt;Node32</title>
<path fill="none" stroke="midnightblue" d="M2243.67,-176.32C2195.35,-174.81 2075.69,-171.07 1975.5,-168 1447.51,-151.81 1314.16,-172.81 787.5,-132 786.19,-131.9 784.87,-131.79 783.54,-131.68"/>
<polygon fill="midnightblue" stroke="midnightblue" points="783.51,-128.16 773.22,-130.7 782.85,-135.13 783.51,-128.16"/>
</g>
<!-- Node2&#45;&gt;Node33 -->
<g id="edge32" class="edge">
<title>Node2&#45;&gt;Node33</title>
<path fill="none" stroke="midnightblue" d="M2243.79,-176.17C2139.31,-172.08 1692.33,-153.39 1672.5,-132 1666.46,-125.48 1666.43,-118.49 1672.5,-112 1714.35,-67.22 2143.01,-65.76 2288.49,-66.57"/>
<polygon fill="midnightblue" stroke="midnightblue" points="2288.85,-70.07 2298.87,-66.63 2288.9,-63.07 2288.85,-70.07"/>
</g>
<!-- Node36 -->
<g id="node34" class="node">
<title>Node36</title>
<g id="a_node34"><a xlink:href="wld__channel__types_8h.html" target="_top" xlink:title=" ">
<polygon fill="white" stroke="black" points="830,-112.5 830,-131.5 949,-131.5 949,-112.5 830,-112.5"/>
<text text-anchor="middle" x="889.5" y="-119.5" font-family="Helvetica,sans-Serif" font-size="10.00">wld_channel_types.h</text>
</a>
</g>
</g>
<!-- Node2&#45;&gt;Node36 -->
<g id="edge35" class="edge">
<title>Node2&#45;&gt;Node36</title>
<path fill="none" stroke="midnightblue" d="M2243.86,-176.31C2079.29,-171.02 1029.99,-137.18 963.5,-132 962.19,-131.9 960.87,-131.79 959.55,-131.68"/>
<polygon fill="midnightblue" stroke="midnightblue" points="959.51,-128.16 949.23,-130.71 958.86,-135.13 959.51,-128.16"/>
</g>
<!-- Node37 -->
<g id="node35" class="node">
<title>Node37</title>
<g id="a_node35"><a xlink:title=" ">
<polygon fill="white" stroke="#bfbfbf" points="740,-56.5 740,-75.5 865,-75.5 865,-56.5 740,-56.5"/>
<text text-anchor="middle" x="802.5" y="-63.5" font-family="Helvetica,sans-Serif" font-size="10.00">swla/swla_chanspec.h</text>
</a>
</g>
</g>
<!-- Node2&#45;&gt;Node37 -->
<g id="edge53" class="edge">
<title>Node2&#45;&gt;Node37</title>
<path fill="none" stroke="midnightblue" d="M2243.95,-176.33C2064.2,-170.73 820.5,-132 820.5,-132 806.85,-121.28 802.97,-101.18 802.13,-86.16"/>
<polygon fill="midnightblue" stroke="midnightblue" points="805.62,-85.85 801.96,-75.9 798.62,-85.96 805.62,-85.85"/>
</g>
<!-- Node38 -->
<g id="node36" class="node">
<title>Node38</title>
<g id="a_node36"><a xlink:href="wld__bgdfs_8h.html" target="_top" xlink:title=" ">
<polygon fill="white" stroke="black" points="2039,-112.5 2039,-131.5 2114,-131.5 2114,-112.5 2039,-112.5"/>
<text text-anchor="middle" x="2076.5" y="-119.5" font-family="Helvetica,sans-Serif" font-size="10.00">wld_bgdfs.h</text>
</a>
</g>
</g>
<!-- Node2&#45;&gt;Node38 -->
<g id="edge39" class="edge">
<title>Node2&#45;&gt;Node38</title>
<path fill="none" stroke="midnightblue" d="M2243.82,-170.81C2212.76,-161.93 2155.06,-145.44 2116.22,-134.35"/>
<polygon fill="midnightblue" stroke="midnightblue" points="2116.86,-130.89 2106.29,-131.51 2114.94,-137.62 2116.86,-130.89"/>
</g>
<!-- Node39 -->
<g id="node37" class="node">
<title>Node39</title>
<g id="a_node37"><a xlink:href="wld__rad__delayMgr_8h.html" target="_top" xlink:title=" ">
<polygon fill="white" stroke="black" points="1043.5,-112.5 1043.5,-131.5 1157.5,-131.5 1157.5,-112.5 1043.5,-112.5"/>
<text text-anchor="middle" x="1100.5" y="-119.5" font-family="Helvetica,sans-Serif" font-size="10.00">wld_rad_delayMgr.h</text>
</a>
</g>
</g>
<!-- Node2&#45;&gt;Node39 -->
<g id="edge41" class="edge">
<title>Node2&#45;&gt;Node39</title>
<path fill="none" stroke="midnightblue" d="M2243.72,-176.42C2110.39,-172.66 1404.3,-151.14 1167.49,-132.37"/>
<polygon fill="midnightblue" stroke="midnightblue" points="1167.49,-128.86 1157.24,-131.53 1166.92,-135.83 1167.49,-128.86"/>
</g>
<!-- Node40 -->
<g id="node38" class="node">
<title>Node40</title>
<g id="a_node38"><a xlink:href="wld__fsm_8h.html" target="_top" xlink:title=" ">
<polygon fill="white" stroke="black" points="2563,-112.5 2563,-131.5 2630,-131.5 2630,-112.5 2563,-112.5"/>
<text text-anchor="middle" x="2596.5" y="-119.5" font-family="Helvetica,sans-Serif" font-size="10.00">wld_fsm.h</text>
</a>
</g>
</g>
<!-- Node2&#45;&gt;Node40 -->
<g id="edge43" class="edge">
<title>Node2&#45;&gt;Node40</title>
<path fill="none" stroke="midnightblue" d="M2287.24,-173.99C2333.9,-167.45 2447.29,-151.12 2552.87,-132.03"/>
<polygon fill="midnightblue" stroke="midnightblue" points="2553.52,-135.47 2562.73,-130.24 2552.27,-128.59 2553.52,-135.47"/>
</g>
<!-- Node41 -->
<g id="node39" class="node">
<title>Node41</title>
<g id="a_node39"><a xlink:href="wld__sensing_8h.html" target="_top" xlink:title=" ">
<polygon fill="white" stroke="black" points="1213.5,-112.5 1213.5,-131.5 1299.5,-131.5 1299.5,-112.5 1213.5,-112.5"/>
<text text-anchor="middle" x="1256.5" y="-119.5" font-family="Helvetica,sans-Serif" font-size="10.00">wld_sensing.h</text>
</a>
</g>
</g>
<!-- Node2&#45;&gt;Node41 -->
<g id="edge45" class="edge">
<title>Node2&#45;&gt;Node41</title>
<path fill="none" stroke="midnightblue" d="M2243.8,-176.42C2120.8,-172.87 1511.59,-153.63 1305.45,-132.58"/>
<polygon fill="midnightblue" stroke="midnightblue" points="1305.67,-129.08 1295.36,-131.51 1304.93,-136.05 1305.67,-129.08"/>
</g>
<!-- Node42 -->
<g id="node40" class="node">
<title>Node42</title>
<g id="a_node40"><a xlink:href="wld__mld_8h.html" target="_top" xlink:title=" ">
<polygon fill="white" stroke="black" points="2648,-112.5 2648,-131.5 2715,-131.5 2715,-112.5 2648,-112.5"/>
<text text-anchor="middle" x="2681.5" y="-119.5" font-family="Helvetica,sans-Serif" font-size="10.00">wld_mld.h</text>
</a>
</g>
</g>
<!-- Node2&#45;&gt;Node42 -->
<g id="edge47" class="edge">
<title>Node2&#45;&gt;Node42</title>
<path fill="none" stroke="midnightblue" d="M2287.04,-175.06C2343.06,-169.87 2498.1,-154.62 2637.73,-131.99"/>
<polygon fill="midnightblue" stroke="midnightblue" points="2638.45,-135.42 2647.75,-130.35 2637.32,-128.51 2638.45,-135.42"/>
</g>
<!-- Node43 -->
<g id="node41" class="node">
<title>Node43</title>
<g id="a_node41"><a xlink:href="wld__autoCommitRadData_8h.html" target="_top" xlink:title=" ">
<polygon fill="white" stroke="black" points="1449.5,-112.5 1449.5,-131.5 1625.5,-131.5 1625.5,-112.5 1449.5,-112.5"/>
<text text-anchor="middle" x="1537.5" y="-119.5" font-family="Helvetica,sans-Serif" font-size="10.00">Utils/wld_autoCommitRadData.h</text>
</a>
</g>
</g>
<!-- Node2&#45;&gt;Node43 -->
<g id="edge49" class="edge">
<title>Node2&#45;&gt;Node43</title>
<path fill="none" stroke="midnightblue" d="M2243.87,-175.57C2163.74,-170.26 1876.28,-150.96 1639.5,-132 1638.23,-131.9 1636.95,-131.8 1635.66,-131.69"/>
<polygon fill="midnightblue" stroke="midnightblue" points="1635.93,-128.2 1625.68,-130.87 1635.36,-135.18 1635.93,-128.2"/>
</g>
<!-- Node44 -->
<g id="node42" class="node">
<title>Node44</title>
<g id="a_node42"><a xlink:href="wld__dmnMgt_8h.html" target="_top" xlink:title=" ">
<polygon fill="white" stroke="red" points="1317.5,-112.5 1317.5,-131.5 1431.5,-131.5 1431.5,-112.5 1317.5,-112.5"/>
<text text-anchor="middle" x="1374.5" y="-119.5" font-family="Helvetica,sans-Serif" font-size="10.00">Utils/wld_dmnMgt.h</text>
</a>
</g>
</g>
<!-- Node2&#45;&gt;Node44 -->
<g id="edge50" class="edge">
<title>Node2&#45;&gt;Node44</title>
<path fill="none" stroke="midnightblue" d="M2243.78,-176.46C2149.59,-174 1766.89,-162.58 1441.79,-132.04"/>
<polygon fill="midnightblue" stroke="midnightblue" points="1441.99,-128.55 1431.7,-131.09 1441.33,-135.52 1441.99,-128.55"/>
</g>
<!-- Node46 -->
<g id="node43" class="node">
<title>Node46</title>
<g id="a_node43"><a xlink:title=" ">
<polygon fill="white" stroke="#bfbfbf" points="1682,-112.5 1682,-131.5 1783,-131.5 1783,-112.5 1682,-112.5"/>
<text text-anchor="middle" x="1732.5" y="-119.5" font-family="Helvetica,sans-Serif" font-size="10.00">swl/swl_staCap.h</text>
</a>
</g>
</g>
<!-- Node2&#45;&gt;Node46 -->
<g id="edge54" class="edge">
<title>Node2&#45;&gt;Node46</title>
<path fill="none" stroke="midnightblue" d="M2243.77,-175.35C2177.76,-170.26 1973.64,-153.87 1793.15,-132.02"/>
<polygon fill="midnightblue" stroke="midnightblue" points="1793.56,-128.54 1783.21,-130.8 1792.72,-135.49 1793.56,-128.54"/>
</g>
<!-- Node47 -->
<g id="node44" class="node">
<title>Node47</title>
<g id="a_node44"><a xlink:title=" ">
<polygon fill="white" stroke="#bfbfbf" points="1801.5,-112.5 1801.5,-131.5 1905.5,-131.5 1905.5,-112.5 1801.5,-112.5"/>
<text text-anchor="middle" x="1853.5" y="-119.5" font-family="Helvetica,sans-Serif" font-size="10.00">swla/swla_table.h</text>
</a>
</g>
</g>
<!-- Node2&#45;&gt;Node47 -->
<g id="edge55" class="edge">
<title>Node2&#45;&gt;Node47</title>
<path fill="none" stroke="midnightblue" d="M2243.71,-174.35C2189.96,-167.79 2046.5,-150.09 1915.91,-132.17"/>
<polygon fill="midnightblue" stroke="midnightblue" points="1916.12,-128.67 1905.73,-130.77 1915.16,-135.6 1916.12,-128.67"/>
</g>
<!-- Node48 -->
<g id="node45" class="node">
<title>Node48</title>
<g id="a_node45"><a xlink:title=" ">
<polygon fill="white" stroke="#bfbfbf" points="1924,-112.5 1924,-131.5 2021,-131.5 2021,-112.5 1924,-112.5"/>
<text text-anchor="middle" x="1972.5" y="-119.5" font-family="Helvetica,sans-Serif" font-size="10.00">swl/swl_assert.h</text>
</a>
</g>
</g>
<!-- Node2&#45;&gt;Node48 -->
<g id="edge56" class="edge">
<title>Node2&#45;&gt;Node48</title>
<path fill="none" stroke="midnightblue" d="M2243.96,-173.03C2199.11,-164.76 2094.46,-145.48 2028.99,-133.41"/>
<polygon fill="midnightblue" stroke="midnightblue" points="2029.3,-129.91 2018.83,-131.54 2028.03,-136.79 2029.3,-129.91"/>
</g>
<!-- Node33&#45;&gt;Node4 -->
<g id="edge33" class="edge">
<title>Node33&#45;&gt;Node4</title>
<path fill="none" stroke="midnightblue" d="M2374.2,-63.05C2537.2,-54.6 3180.34,-21.27 3341.65,-12.91"/>
<polygon fill="midnightblue" stroke="midnightblue" points="3342.19,-16.39 3351.99,-12.37 3341.83,-9.4 3342.19,-16.39"/>
</g>
<!-- Node33&#45;&gt;Node9 -->
<g id="edge34" class="edge">
<title>Node33&#45;&gt;Node9</title>
<path fill="none" stroke="midnightblue" d="M2298.74,-63.46C2114.03,-55.91 1305.3,-22.85 1076.19,-13.48"/>
<polygon fill="midnightblue" stroke="midnightblue" points="1076.17,-9.98 1066.04,-13.07 1075.89,-16.97 1076.17,-9.98"/>
</g>
<!-- Node36&#45;&gt;Node3 -->
<g id="edge36" class="edge">
<title>Node36&#45;&gt;Node3</title>
<path fill="none" stroke="midnightblue" d="M900.1,-112.32C909.96,-104.26 924.85,-92.08 936.72,-82.37"/>
<polygon fill="midnightblue" stroke="midnightblue" points="939.18,-84.88 944.7,-75.83 934.75,-79.46 939.18,-84.88"/>
</g>
<!-- Node36&#45;&gt;Node9 -->
<g id="edge38" class="edge">
<title>Node36&#45;&gt;Node9</title>
<path fill="none" stroke="midnightblue" d="M890.84,-112.3C893.36,-98.66 900.03,-72.14 915.5,-56 930.49,-40.36 951.91,-29.74 971.08,-22.76"/>
<polygon fill="midnightblue" stroke="midnightblue" points="972.23,-26.06 980.56,-19.52 969.97,-19.44 972.23,-26.06"/>
</g>
<!-- Node36&#45;&gt;Node37 -->
<g id="edge37" class="edge">
<title>Node36&#45;&gt;Node37</title>
<path fill="none" stroke="midnightblue" d="M875.52,-112.32C861.95,-103.9 841.12,-90.97 825.18,-81.07"/>
<polygon fill="midnightblue" stroke="midnightblue" points="826.79,-77.95 816.44,-75.65 823.09,-83.9 826.79,-77.95"/>
</g>
<!-- Node38&#45;&gt;Node33 -->
<g id="edge40" class="edge">
<title>Node38&#45;&gt;Node33</title>
<path fill="none" stroke="midnightblue" d="M2114.03,-113.21C2160.21,-103.61 2238.66,-87.32 2289,-76.87"/>
<polygon fill="midnightblue" stroke="midnightblue" points="2289.9,-80.25 2298.98,-74.79 2288.48,-73.4 2289.9,-80.25"/>
</g>
<!-- Node39&#45;&gt;Node2 -->
<g id="edge42" class="edge">
<title>Node39&#45;&gt;Node2</title>
<path fill="none" stroke="midnightblue" d="M1157.84,-129.7C1165.49,-130.58 1173.19,-131.39 1180.5,-132 1393.47,-149.85 2076.31,-171.06 2233.22,-175.96"/>
<polygon fill="midnightblue" stroke="midnightblue" points="2233.49,-179.47 2243.59,-176.28 2233.71,-172.47 2233.49,-179.47"/>
</g>
<!-- Node40&#45;&gt;Node33 -->
<g id="edge44" class="edge">
<title>Node40&#45;&gt;Node33</title>
<path fill="none" stroke="midnightblue" d="M2562.7,-113.92C2559.59,-113.27 2556.49,-112.62 2553.5,-112 2495.14,-99.84 2427.94,-85.92 2383.97,-76.82"/>
<polygon fill="midnightblue" stroke="midnightblue" points="2384.64,-73.38 2374.14,-74.78 2383.22,-80.24 2384.64,-73.38"/>
</g>
<!-- Node41&#45;&gt;Node2 -->
<g id="edge46" class="edge">
<title>Node41&#45;&gt;Node2</title>
<path fill="none" stroke="midnightblue" d="M1299.68,-129.56C1305.7,-130.51 1311.76,-131.37 1317.5,-132 1501.6,-152.18 2089.61,-171.3 2233.55,-175.94"/>
<polygon fill="midnightblue" stroke="midnightblue" points="2233.77,-179.45 2243.88,-176.27 2234,-172.45 2233.77,-179.45"/>
</g>
<!-- Node42&#45;&gt;Node33 -->
<g id="edge48" class="edge">
<title>Node42&#45;&gt;Node33</title>
<path fill="none" stroke="midnightblue" d="M2647.74,-113.74C2644.62,-113.13 2641.5,-112.54 2638.5,-112 2549.16,-96.01 2444.23,-81.28 2384.53,-73.28"/>
<polygon fill="midnightblue" stroke="midnightblue" points="2384.66,-69.76 2374.28,-71.91 2383.73,-76.7 2384.66,-69.76"/>
</g>
<!-- Node44&#45;&gt;Node5 -->
<g id="edge51" class="edge">
<title>Node44&#45;&gt;Node5</title>
<path fill="none" stroke="midnightblue" d="M1359.24,-112.32C1344.28,-103.82 1321.25,-90.73 1303.77,-80.8"/>
<polygon fill="midnightblue" stroke="midnightblue" points="1305.15,-77.55 1294.73,-75.65 1301.69,-83.64 1305.15,-77.55"/>
</g>
<!-- Node44&#45;&gt;Node33 -->
<g id="edge52" class="edge">
<title>Node44&#45;&gt;Node33</title>
<path fill="none" stroke="midnightblue" d="M1431.7,-112.9C1434.68,-112.57 1437.62,-112.27 1440.5,-112 1763.62,-81.91 2154.3,-70.99 2288.53,-67.97"/>
<polygon fill="midnightblue" stroke="midnightblue" points="2288.94,-71.46 2298.86,-67.74 2288.79,-64.46 2288.94,-71.46"/>
</g>
</g>
</svg>
