<?xml version="1.0" encoding="UTF-8" standalone="no"?>
<!DOCTYPE svg PUBLIC "-//W3C//DTD SVG 1.1//EN"
 "http://www.w3.org/Graphics/SVG/1.1/DTD/svg11.dtd">
<!-- Generated by graphviz version 2.43.0 (0)
 -->
<!-- Title: wld_mld_getPrimaryLinkSsid Pages: 1 -->
<svg width="339pt" height="66pt"
 viewBox="0.00 0.00 339.00 66.00" xmlns="http://www.w3.org/2000/svg" xmlns:xlink="http://www.w3.org/1999/xlink">
<g id="graph0" class="graph" transform="scale(1 1) rotate(0) translate(4 62)">
<title>wld_mld_getPrimaryLinkSsid</title>
<polygon fill="white" stroke="transparent" points="-4,4 -4,-62 335,-62 335,4 -4,4"/>
<!-- Node1 -->
<g id="node1" class="node">
<title>Node1</title>
<g id="a_node1"><a xlink:title=" ">
<polygon fill="#bfbfbf" stroke="black" points="0,-19.5 0,-38.5 158,-38.5 158,-19.5 0,-19.5"/>
<text text-anchor="middle" x="79" y="-26.5" font-family="Helvetica,sans-Serif" font-size="10.00">wld_mld_getPrimaryLinkSsid</text>
</a>
</g>
</g>
<!-- Node2 -->
<g id="node2" class="node">
<title>Node2</title>
<g id="a_node2"><a xlink:href="wld__mld_8c.html#a76c7faf25698a1ac7b59d8199724dbf6" target="_top" xlink:title=" ">
<polygon fill="white" stroke="black" points="203,-38.5 203,-57.5 322,-57.5 322,-38.5 203,-38.5"/>
<text text-anchor="middle" x="262.5" y="-45.5" font-family="Helvetica,sans-Serif" font-size="10.00">wld_mld_getLinkSsid</text>
</a>
</g>
</g>
<!-- Node1&#45;&gt;Node2 -->
<g id="edge1" class="edge">
<title>Node1&#45;&gt;Node2</title>
<path fill="none" stroke="midnightblue" d="M158.03,-37.17C169.5,-38.37 181.25,-39.6 192.53,-40.78"/>
<polygon fill="midnightblue" stroke="midnightblue" points="192.42,-44.29 202.73,-41.85 193.15,-37.33 192.42,-44.29"/>
</g>
<!-- Node3 -->
<g id="node3" class="node">
<title>Node3</title>
<g id="a_node3"><a xlink:href="wld__mld_8c.html#a5a22c785e66b2fa3cefd805bec557e3f" target="_top" xlink:title=" ">
<polygon fill="white" stroke="black" points="194,-0.5 194,-19.5 331,-19.5 331,-0.5 194,-0.5"/>
<text text-anchor="middle" x="262.5" y="-7.5" font-family="Helvetica,sans-Serif" font-size="10.00">wld_mld_getPrimaryLink</text>
</a>
</g>
</g>
<!-- Node1&#45;&gt;Node3 -->
<g id="edge2" class="edge">
<title>Node1&#45;&gt;Node3</title>
<path fill="none" stroke="midnightblue" d="M158.03,-20.83C166.59,-19.94 175.31,-19.02 183.86,-18.13"/>
<polygon fill="midnightblue" stroke="midnightblue" points="184.24,-21.61 193.82,-17.09 183.51,-14.65 184.24,-21.61"/>
</g>
</g>
</svg>
