<?xml version="1.0" encoding="UTF-8" standalone="no"?>
<!DOCTYPE svg PUBLIC "-//W3C//DTD SVG 1.1//EN"
 "http://www.w3.org/Graphics/SVG/1.1/DTD/svg11.dtd">
<!-- Generated by graphviz version 2.43.0 (0)
 -->
<!-- Title: wld_linuxIfUtils_updateMacExt Pages: 1 -->
<svg width="540pt" height="142pt"
 viewBox="0.00 0.00 540.00 142.00" xmlns="http://www.w3.org/2000/svg" xmlns:xlink="http://www.w3.org/1999/xlink">
<g id="graph0" class="graph" transform="scale(1 1) rotate(0) translate(4 138)">
<title>wld_linuxIfUtils_updateMacExt</title>
<polygon fill="white" stroke="transparent" points="-4,4 -4,-138 536,-138 536,4 -4,4"/>
<!-- Node1 -->
<g id="node1" class="node">
<title>Node1</title>
<g id="a_node1"><a xlink:title=" ">
<polygon fill="#bfbfbf" stroke="black" points="0,-76.5 0,-95.5 167,-95.5 167,-76.5 0,-76.5"/>
<text text-anchor="middle" x="83.5" y="-83.5" font-family="Helvetica,sans-Serif" font-size="10.00">wld_linuxIfUtils_updateMacExt</text>
</a>
</g>
</g>
<!-- Node2 -->
<g id="node2" class="node">
<title>Node2</title>
<g id="a_node2"><a xlink:href="wld__linuxIfUtils_8c.html#a02092ba8d6dda33a584c37818c4af732" target="_top" xlink:title=" ">
<polygon fill="white" stroke="black" points="203,-95.5 203,-114.5 357,-114.5 357,-95.5 203,-95.5"/>
<text text-anchor="middle" x="280" y="-102.5" font-family="Helvetica,sans-Serif" font-size="10.00">wld_linuxIfUtils_getNetSock</text>
</a>
</g>
</g>
<!-- Node1&#45;&gt;Node2 -->
<g id="edge1" class="edge">
<title>Node1&#45;&gt;Node2</title>
<path fill="none" stroke="midnightblue" d="M167.27,-94.09C175.65,-94.9 184.17,-95.74 192.59,-96.56"/>
<polygon fill="midnightblue" stroke="midnightblue" points="192.49,-100.07 202.79,-97.55 193.17,-93.1 192.49,-100.07"/>
</g>
<!-- Node3 -->
<g id="node3" class="node">
<title>Node3</title>
<g id="a_node3"><a xlink:href="wld__linuxIfUtils_8c.html#a959a9e146e5060f68af048061372b919" target="_top" xlink:title=" ">
<polygon fill="white" stroke="black" points="204,-57.5 204,-76.5 356,-76.5 356,-57.5 204,-57.5"/>
<text text-anchor="middle" x="280" y="-64.5" font-family="Helvetica,sans-Serif" font-size="10.00">wld_linuxIfUtils_updateMac</text>
</a>
</g>
</g>
<!-- Node1&#45;&gt;Node3 -->
<g id="edge2" class="edge">
<title>Node1&#45;&gt;Node3</title>
<path fill="none" stroke="midnightblue" d="M167.27,-77.91C175.96,-77.07 184.82,-76.2 193.54,-75.35"/>
<polygon fill="midnightblue" stroke="midnightblue" points="194.09,-78.81 203.71,-74.36 193.41,-71.84 194.09,-78.81"/>
</g>
<!-- Node4 -->
<g id="node4" class="node">
<title>Node4</title>
<g id="a_node4"><a xlink:href="wld__linuxIfUtils_8c.html#ae42910ec7c1a37e0fee82b594951f976" target="_top" xlink:title=" ">
<polygon fill="white" stroke="black" points="395.5,-114.5 395.5,-133.5 529.5,-133.5 529.5,-114.5 395.5,-114.5"/>
<text text-anchor="middle" x="462.5" y="-121.5" font-family="Helvetica,sans-Serif" font-size="10.00">wld_linuxIfUtils_getMac</text>
</a>
</g>
</g>
<!-- Node3&#45;&gt;Node4 -->
<g id="edge3" class="edge">
<title>Node3&#45;&gt;Node4</title>
<path fill="none" stroke="midnightblue" d="M326.96,-76.6C337,-79.22 347.47,-82.36 357,-86 373.9,-92.46 376.19,-98.32 393,-105 398.95,-107.36 405.29,-109.55 411.64,-111.53"/>
<polygon fill="midnightblue" stroke="midnightblue" points="410.96,-114.98 421.54,-114.47 412.95,-108.27 410.96,-114.98"/>
</g>
<!-- Node5 -->
<g id="node5" class="node">
<title>Node5</title>
<g id="a_node5"><a xlink:href="wld__linuxIfUtils_8c.html#a1ed70e31f78a4556b3c3b560e29a2c00" target="_top" xlink:title=" ">
<polygon fill="white" stroke="black" points="393,-76.5 393,-95.5 532,-95.5 532,-76.5 393,-76.5"/>
<text text-anchor="middle" x="462.5" y="-83.5" font-family="Helvetica,sans-Serif" font-size="10.00">wld_linuxIfUtils_getState</text>
</a>
</g>
</g>
<!-- Node3&#45;&gt;Node5 -->
<g id="edge4" class="edge">
<title>Node3&#45;&gt;Node5</title>
<path fill="none" stroke="midnightblue" d="M356.24,-74.92C364.93,-75.83 373.81,-76.77 382.55,-77.69"/>
<polygon fill="midnightblue" stroke="midnightblue" points="382.41,-81.19 392.72,-78.76 383.15,-74.23 382.41,-81.19"/>
</g>
<!-- Node6 -->
<g id="node6" class="node">
<title>Node6</title>
<g id="a_node6"><a xlink:href="wld__linuxIfUtils_8c.html#aebd566d1abd259c7802087dc76c7d745" target="_top" xlink:title=" ">
<polygon fill="white" stroke="black" points="396,-38.5 396,-57.5 529,-57.5 529,-38.5 396,-38.5"/>
<text text-anchor="middle" x="462.5" y="-45.5" font-family="Helvetica,sans-Serif" font-size="10.00">wld_linuxIfUtils_setMac</text>
</a>
</g>
</g>
<!-- Node3&#45;&gt;Node6 -->
<g id="edge5" class="edge">
<title>Node3&#45;&gt;Node6</title>
<path fill="none" stroke="midnightblue" d="M356.24,-59.08C366.01,-58.05 376.01,-57 385.78,-55.97"/>
<polygon fill="midnightblue" stroke="midnightblue" points="386.28,-59.44 395.86,-54.91 385.55,-52.48 386.28,-59.44"/>
</g>
<!-- Node7 -->
<g id="node7" class="node">
<title>Node7</title>
<g id="a_node7"><a xlink:href="wld__linuxIfUtils_8c.html#a3cfe5875e4903211756333c2be3c3ac7" target="_top" xlink:title=" ">
<polygon fill="white" stroke="black" points="393.5,-0.5 393.5,-19.5 531.5,-19.5 531.5,-0.5 393.5,-0.5"/>
<text text-anchor="middle" x="462.5" y="-7.5" font-family="Helvetica,sans-Serif" font-size="10.00">wld_linuxIfUtils_setState</text>
</a>
</g>
</g>
<!-- Node3&#45;&gt;Node7 -->
<g id="edge6" class="edge">
<title>Node3&#45;&gt;Node7</title>
<path fill="none" stroke="midnightblue" d="M308.02,-57.35C330.62,-49.4 363.76,-38.01 393,-29 400.3,-26.75 408.07,-24.48 415.66,-22.33"/>
<polygon fill="midnightblue" stroke="midnightblue" points="416.8,-25.65 425.48,-19.58 414.91,-18.9 416.8,-25.65"/>
</g>
</g>
</svg>
