<?xml version="1.0" encoding="UTF-8" standalone="no"?>
<!DOCTYPE svg PUBLIC "-//W3C//DTD SVG 1.1//EN"
 "http://www.w3.org/Graphics/SVG/1.1/DTD/svg11.dtd">
<!-- Generated by graphviz version 2.43.0 (0)
 -->
<!-- Title: test/testHelper/wld_th_radio.h Pages: 1 -->
<svg width="5370pt" height="319pt"
 viewBox="0.00 0.00 5369.50 319.00" xmlns="http://www.w3.org/2000/svg" xmlns:xlink="http://www.w3.org/1999/xlink">
<g id="graph0" class="graph" transform="scale(1 1) rotate(0) translate(4 315)">
<title>test/testHelper/wld_th_radio.h</title>
<polygon fill="white" stroke="transparent" points="-4,4 -4,-315 5365.5,-315 5365.5,4 -4,4"/>
<!-- Node1 -->
<g id="node1" class="node">
<title>Node1</title>
<g id="a_node1"><a xlink:title=" ">
<polygon fill="#bfbfbf" stroke="black" points="4460.5,-280.5 4460.5,-310.5 4570.5,-310.5 4570.5,-280.5 4460.5,-280.5"/>
<text text-anchor="start" x="4468.5" y="-298.5" font-family="Helvetica,sans-Serif" font-size="10.00">test/testHelper/wld</text>
<text text-anchor="middle" x="4515.5" y="-287.5" font-family="Helvetica,sans-Serif" font-size="10.00">_th_radio.h</text>
</a>
</g>
</g>
<!-- Node2 -->
<g id="node2" class="node">
<title>Node2</title>
<g id="a_node2"><a xlink:href="wld__types_8h.html" target="_top" xlink:title=" ">
<polygon fill="white" stroke="black" points="217,-56.5 217,-75.5 292,-75.5 292,-56.5 217,-56.5"/>
<text text-anchor="middle" x="254.5" y="-63.5" font-family="Helvetica,sans-Serif" font-size="10.00">wld_types.h</text>
</a>
</g>
</g>
<!-- Node1&#45;&gt;Node2 -->
<g id="edge1" class="edge">
<title>Node1&#45;&gt;Node2</title>
<path fill="none" stroke="midnightblue" d="M4460.3,-293.93C3995.6,-289.02 743.09,-252.5 314.5,-188 221.95,-174.07 168.2,-206.46 111.5,-132 83.54,-95.29 155.03,-78.71 206.7,-71.69"/>
<polygon fill="midnightblue" stroke="midnightblue" points="207.26,-75.14 216.74,-70.41 206.38,-68.2 207.26,-75.14"/>
</g>
<!-- Node7 -->
<g id="node7" class="node">
<title>Node7</title>
<g id="a_node7"><a xlink:href="wld__th__types_8h.html" target="_top" xlink:title=" ">
<polygon fill="white" stroke="black" points="4562.5,-224.5 4562.5,-243.5 4652.5,-243.5 4652.5,-224.5 4562.5,-224.5"/>
<text text-anchor="middle" x="4607.5" y="-231.5" font-family="Helvetica,sans-Serif" font-size="10.00">wld_th_types.h</text>
</a>
</g>
</g>
<!-- Node1&#45;&gt;Node7 -->
<g id="edge6" class="edge">
<title>Node1&#45;&gt;Node7</title>
<path fill="none" stroke="midnightblue" d="M4537.3,-280.4C4551.91,-270.95 4571.07,-258.56 4585.68,-249.11"/>
<polygon fill="midnightblue" stroke="midnightblue" points="4587.62,-252.03 4594.11,-243.66 4583.82,-246.15 4587.62,-252.03"/>
</g>
<!-- Node8 -->
<g id="node8" class="node">
<title>Node8</title>
<g id="a_node8"><a xlink:title=" ">
<polygon fill="white" stroke="#bfbfbf" points="4670.5,-224.5 4670.5,-243.5 4858.5,-243.5 4858.5,-224.5 4670.5,-224.5"/>
<text text-anchor="middle" x="4764.5" y="-231.5" font-family="Helvetica,sans-Serif" font-size="10.00">swl/swl_common_radioStandards.h</text>
</a>
</g>
</g>
<!-- Node1&#45;&gt;Node8 -->
<g id="edge7" class="edge">
<title>Node1&#45;&gt;Node8</title>
<path fill="none" stroke="midnightblue" d="M4570.76,-281.3C4615.24,-270.67 4676.99,-255.91 4718.73,-245.94"/>
<polygon fill="midnightblue" stroke="midnightblue" points="4719.71,-249.3 4728.63,-243.57 4718.09,-242.49 4719.71,-249.3"/>
</g>
<!-- Node9 -->
<g id="node9" class="node">
<title>Node9</title>
<g id="a_node9"><a xlink:title=" ">
<polygon fill="white" stroke="#bfbfbf" points="4876.5,-224.5 4876.5,-243.5 5000.5,-243.5 5000.5,-224.5 4876.5,-224.5"/>
<text text-anchor="middle" x="4938.5" y="-231.5" font-family="Helvetica,sans-Serif" font-size="10.00">amxc/amxc_macros.h</text>
</a>
</g>
</g>
<!-- Node1&#45;&gt;Node9 -->
<g id="edge8" class="edge">
<title>Node1&#45;&gt;Node9</title>
<path fill="none" stroke="midnightblue" d="M4570.8,-286.72C4647.09,-275.99 4784.63,-256.64 4868.15,-244.9"/>
<polygon fill="midnightblue" stroke="midnightblue" points="4868.64,-248.36 4878.06,-243.5 4867.67,-241.43 4868.64,-248.36"/>
</g>
<!-- Node10 -->
<g id="node10" class="node">
<title>Node10</title>
<g id="a_node10"><a xlink:title=" ">
<polygon fill="white" stroke="#bfbfbf" points="4183,-112.5 4183,-131.5 4266,-131.5 4266,-112.5 4183,-112.5"/>
<text text-anchor="middle" x="4224.5" y="-119.5" font-family="Helvetica,sans-Serif" font-size="10.00">amxc/amxc.h</text>
</a>
</g>
</g>
<!-- Node1&#45;&gt;Node10 -->
<g id="edge9" class="edge">
<title>Node1&#45;&gt;Node10</title>
<path fill="none" stroke="midnightblue" d="M4491.69,-280.47C4436.88,-248.17 4302.36,-168.88 4247.93,-136.81"/>
<polygon fill="midnightblue" stroke="midnightblue" points="4249.42,-133.62 4239.02,-131.56 4245.86,-139.65 4249.42,-133.62"/>
</g>
<!-- Node11 -->
<g id="node11" class="node">
<title>Node11</title>
<g id="a_node11"><a xlink:title=" ">
<polygon fill="white" stroke="#bfbfbf" points="4284.5,-112.5 4284.5,-131.5 4368.5,-131.5 4368.5,-112.5 4284.5,-112.5"/>
<text text-anchor="middle" x="4326.5" y="-119.5" font-family="Helvetica,sans-Serif" font-size="10.00">amxp/amxp.h</text>
</a>
</g>
</g>
<!-- Node1&#45;&gt;Node11 -->
<g id="edge10" class="edge">
<title>Node1&#45;&gt;Node11</title>
<path fill="none" stroke="midnightblue" d="M4499.14,-280.48C4487.46,-270.41 4471.42,-256.48 4457.5,-244 4415.88,-206.67 4367.79,-161.8 4343.07,-138.6"/>
<polygon fill="midnightblue" stroke="midnightblue" points="4345.31,-135.9 4335.63,-131.6 4340.52,-141 4345.31,-135.9"/>
</g>
<!-- Node12 -->
<g id="node12" class="node">
<title>Node12</title>
<g id="a_node12"><a xlink:title=" ">
<polygon fill="white" stroke="#bfbfbf" points="4387,-112.5 4387,-131.5 4492,-131.5 4492,-112.5 4387,-112.5"/>
<text text-anchor="middle" x="4439.5" y="-119.5" font-family="Helvetica,sans-Serif" font-size="10.00">amxd/amxd_dm.h</text>
</a>
</g>
</g>
<!-- Node1&#45;&gt;Node12 -->
<g id="edge11" class="edge">
<title>Node1&#45;&gt;Node12</title>
<path fill="none" stroke="midnightblue" d="M4500.02,-280.4C4490.51,-270.96 4478.8,-257.77 4471.5,-244 4453.75,-210.52 4445.33,-166.51 4441.77,-141.85"/>
<polygon fill="midnightblue" stroke="midnightblue" points="4445.21,-141.16 4440.43,-131.7 4438.27,-142.08 4445.21,-141.16"/>
</g>
<!-- Node13 -->
<g id="node13" class="node">
<title>Node13</title>
<g id="a_node13"><a xlink:title=" ">
<polygon fill="white" stroke="#bfbfbf" points="4510,-112.5 4510,-131.5 4629,-131.5 4629,-112.5 4510,-112.5"/>
<text text-anchor="middle" x="4569.5" y="-119.5" font-family="Helvetica,sans-Serif" font-size="10.00">amxd/amxd_object.h</text>
</a>
</g>
</g>
<!-- Node1&#45;&gt;Node13 -->
<g id="edge12" class="edge">
<title>Node1&#45;&gt;Node13</title>
<path fill="none" stroke="midnightblue" d="M4502.89,-280.19C4495.36,-270.66 4486.51,-257.45 4482.5,-244 4472.86,-211.63 4464.94,-196.85 4482.5,-168 4491.96,-152.46 4508.71,-142.05 4525,-135.19"/>
<polygon fill="midnightblue" stroke="midnightblue" points="4526.4,-138.4 4534.49,-131.55 4523.9,-131.87 4526.4,-138.4"/>
</g>
<!-- Node14 -->
<g id="node14" class="node">
<title>Node14</title>
<g id="a_node14"><a xlink:title=" ">
<polygon fill="white" stroke="#bfbfbf" points="5019,-224.5 5019,-243.5 5130,-243.5 5130,-224.5 5019,-224.5"/>
<text text-anchor="middle" x="5074.5" y="-231.5" font-family="Helvetica,sans-Serif" font-size="10.00">amxd/amxd_path.h</text>
</a>
</g>
</g>
<!-- Node1&#45;&gt;Node14 -->
<g id="edge13" class="edge">
<title>Node1&#45;&gt;Node14</title>
<path fill="none" stroke="midnightblue" d="M4570.77,-289.5C4660.29,-281.26 4842.83,-263.86 5008.47,-244.08"/>
<polygon fill="midnightblue" stroke="midnightblue" points="5009.34,-247.5 5018.85,-242.84 5008.5,-240.55 5009.34,-247.5"/>
</g>
<!-- Node15 -->
<g id="node15" class="node">
<title>Node15</title>
<g id="a_node15"><a xlink:title=" ">
<polygon fill="white" stroke="#bfbfbf" points="4647.5,-112.5 4647.5,-131.5 4799.5,-131.5 4799.5,-112.5 4647.5,-112.5"/>
<text text-anchor="middle" x="4723.5" y="-119.5" font-family="Helvetica,sans-Serif" font-size="10.00">amxd/amxd_object_event.h</text>
</a>
</g>
</g>
<!-- Node1&#45;&gt;Node15 -->
<g id="edge14" class="edge">
<title>Node1&#45;&gt;Node15</title>
<path fill="none" stroke="midnightblue" d="M4511.1,-280.41C4504.05,-254.78 4493.58,-200.21 4520.5,-168 4529.56,-157.16 4603.5,-142.74 4659.55,-133.18"/>
<polygon fill="midnightblue" stroke="midnightblue" points="4660.15,-136.63 4669.43,-131.51 4658.99,-129.72 4660.15,-136.63"/>
</g>
<!-- Node16 -->
<g id="node16" class="node">
<title>Node16</title>
<g id="a_node16"><a xlink:title=" ">
<polygon fill="white" stroke="#bfbfbf" points="4818,-112.5 4818,-131.5 4901,-131.5 4901,-112.5 4818,-112.5"/>
<text text-anchor="middle" x="4859.5" y="-119.5" font-family="Helvetica,sans-Serif" font-size="10.00">amxo/amxo.h</text>
</a>
</g>
</g>
<!-- Node1&#45;&gt;Node16 -->
<g id="edge15" class="edge">
<title>Node1&#45;&gt;Node16</title>
<path fill="none" stroke="midnightblue" d="M4519.63,-280.27C4524.96,-264.37 4535.7,-238.92 4553.5,-224 4593.42,-190.53 4737.21,-152.31 4812.61,-133.96"/>
<polygon fill="midnightblue" stroke="midnightblue" points="4813.88,-137.25 4822.78,-131.5 4812.24,-130.45 4813.88,-137.25"/>
</g>
<!-- Node17 -->
<g id="node17" class="node">
<title>Node17</title>
<g id="a_node17"><a xlink:title=" ">
<polygon fill="white" stroke="#bfbfbf" points="5148,-224.5 5148,-243.5 5259,-243.5 5259,-224.5 5148,-224.5"/>
<text text-anchor="middle" x="5203.5" y="-231.5" font-family="Helvetica,sans-Serif" font-size="10.00">amxo/amxo_save.h</text>
</a>
</g>
</g>
<!-- Node1&#45;&gt;Node17 -->
<g id="edge16" class="edge">
<title>Node1&#45;&gt;Node17</title>
<path fill="none" stroke="midnightblue" d="M4570.7,-291.13C4677.93,-284.34 4922.14,-267.73 5137.45,-244.17"/>
<polygon fill="midnightblue" stroke="midnightblue" points="5138.12,-247.62 5147.68,-243.05 5137.35,-240.66 5138.12,-247.62"/>
</g>
<!-- Node18 -->
<g id="node18" class="node">
<title>Node18</title>
<g id="a_node18"><a xlink:title=" ">
<polygon fill="white" stroke="#bfbfbf" points="5277.5,-224.5 5277.5,-243.5 5361.5,-243.5 5361.5,-224.5 5277.5,-224.5"/>
<text text-anchor="middle" x="5319.5" y="-231.5" font-family="Helvetica,sans-Serif" font-size="10.00">amxb/amxb.h</text>
</a>
</g>
</g>
<!-- Node1&#45;&gt;Node18 -->
<g id="edge17" class="edge">
<title>Node1&#45;&gt;Node18</title>
<path fill="none" stroke="midnightblue" d="M4570.96,-292.83C4694.29,-288.66 5000.78,-275.87 5267,-244.05"/>
<polygon fill="midnightblue" stroke="midnightblue" points="5267.74,-247.49 5277.25,-242.82 5266.9,-240.54 5267.74,-247.49"/>
</g>
<!-- Node19 -->
<g id="node19" class="node">
<title>Node19</title>
<g id="a_node19"><a xlink:href="wld__th__fsm_8h.html" target="_top" xlink:title=" ">
<polygon fill="white" stroke="black" points="2216.5,-224.5 2216.5,-243.5 2298.5,-243.5 2298.5,-224.5 2216.5,-224.5"/>
<text text-anchor="middle" x="2257.5" y="-231.5" font-family="Helvetica,sans-Serif" font-size="10.00">wld_th_fsm.h</text>
</a>
</g>
</g>
<!-- Node1&#45;&gt;Node19 -->
<g id="edge18" class="edge">
<title>Node1&#45;&gt;Node19</title>
<path fill="none" stroke="midnightblue" d="M4460.24,-293.04C4148.27,-284.82 2610.49,-244.3 2308.88,-236.35"/>
<polygon fill="midnightblue" stroke="midnightblue" points="2308.77,-232.85 2298.68,-236.09 2308.58,-239.85 2308.77,-232.85"/>
</g>
<!-- Node3 -->
<g id="node3" class="node">
<title>Node3</title>
<g id="a_node3"><a xlink:title=" ">
<polygon fill="white" stroke="#bfbfbf" points="0,-0.5 0,-19.5 53,-19.5 53,-0.5 0,-0.5"/>
<text text-anchor="middle" x="26.5" y="-7.5" font-family="Helvetica,sans-Serif" font-size="10.00">stdint.h</text>
</a>
</g>
</g>
<!-- Node2&#45;&gt;Node3 -->
<g id="edge2" class="edge">
<title>Node2&#45;&gt;Node3</title>
<path fill="none" stroke="midnightblue" d="M218.37,-56.44C175.92,-46.39 105.86,-29.79 63.17,-19.68"/>
<polygon fill="midnightblue" stroke="midnightblue" points="63.73,-16.22 53.2,-17.32 62.12,-23.03 63.73,-16.22"/>
</g>
<!-- Node4 -->
<g id="node4" class="node">
<title>Node4</title>
<g id="a_node4"><a xlink:title=" ">
<polygon fill="white" stroke="#bfbfbf" points="145,-0.5 145,-19.5 290,-19.5 290,-0.5 145,-0.5"/>
<text text-anchor="middle" x="217.5" y="-7.5" font-family="Helvetica,sans-Serif" font-size="10.00">swl/types/swl_arrayType.h</text>
</a>
</g>
</g>
<!-- Node2&#45;&gt;Node4 -->
<g id="edge3" class="edge">
<title>Node2&#45;&gt;Node4</title>
<path fill="none" stroke="midnightblue" d="M248.39,-56.08C243.22,-48.53 235.65,-37.49 229.31,-28.23"/>
<polygon fill="midnightblue" stroke="midnightblue" points="232.04,-26.02 223.5,-19.75 226.26,-29.98 232.04,-26.02"/>
</g>
<!-- Node5 -->
<g id="node5" class="node">
<title>Node5</title>
<g id="a_node5"><a xlink:title=" ">
<polygon fill="white" stroke="#bfbfbf" points="384,-0.5 384,-19.5 545,-19.5 545,-0.5 384,-0.5"/>
<text text-anchor="middle" x="464.5" y="-7.5" font-family="Helvetica,sans-Serif" font-size="10.00">swla/swla_namedTupleType.h</text>
</a>
</g>
</g>
<!-- Node2&#45;&gt;Node5 -->
<g id="edge4" class="edge">
<title>Node2&#45;&gt;Node5</title>
<path fill="none" stroke="midnightblue" d="M287.78,-56.44C323.95,-47.14 381.88,-32.25 421.48,-22.06"/>
<polygon fill="midnightblue" stroke="midnightblue" points="422.57,-25.4 431.38,-19.52 420.82,-18.62 422.57,-25.4"/>
</g>
<!-- Node6 -->
<g id="node6" class="node">
<title>Node6</title>
<g id="a_node6"><a xlink:title=" ">
<polygon fill="white" stroke="#bfbfbf" points="602,-0.5 602,-19.5 703,-19.5 703,-0.5 602,-0.5"/>
<text text-anchor="middle" x="652.5" y="-7.5" font-family="Helvetica,sans-Serif" font-size="10.00">swla/swla_time.h</text>
</a>
</g>
</g>
<!-- Node2&#45;&gt;Node6 -->
<g id="edge5" class="edge">
<title>Node2&#45;&gt;Node6</title>
<path fill="none" stroke="midnightblue" d="M292.3,-59.87C361.41,-50.49 508.66,-30.52 591.9,-19.22"/>
<polygon fill="midnightblue" stroke="midnightblue" points="592.53,-22.67 601.97,-17.86 591.59,-15.73 592.53,-22.67"/>
</g>
<!-- Node19&#45;&gt;Node2 -->
<g id="edge70" class="edge">
<title>Node19&#45;&gt;Node2</title>
<path fill="none" stroke="midnightblue" d="M2216.46,-232.65C1926.71,-229.96 198.54,-210.67 123.5,-132 94.38,-101.47 158.27,-83.19 206.68,-74.11"/>
<polygon fill="midnightblue" stroke="midnightblue" points="207.51,-77.52 216.74,-72.32 206.28,-70.63 207.51,-77.52"/>
</g>
<!-- Node20 -->
<g id="node20" class="node">
<title>Node20</title>
<g id="a_node20"><a xlink:href="wld_8h.html" target="_top" xlink:title=" ">
<polygon fill="white" stroke="red" points="2226,-168.5 2226,-187.5 2289,-187.5 2289,-168.5 2226,-168.5"/>
<text text-anchor="middle" x="2257.5" y="-175.5" font-family="Helvetica,sans-Serif" font-size="10.00">wld/wld.h</text>
</a>
</g>
</g>
<!-- Node19&#45;&gt;Node20 -->
<g id="edge19" class="edge">
<title>Node19&#45;&gt;Node20</title>
<path fill="none" stroke="midnightblue" d="M2257.5,-224.08C2257.5,-217.01 2257.5,-206.86 2257.5,-197.99"/>
<polygon fill="midnightblue" stroke="midnightblue" points="2261,-197.75 2257.5,-187.75 2254,-197.75 2261,-197.75"/>
</g>
<!-- Node20&#45;&gt;Node2 -->
<g id="edge50" class="edge">
<title>Node20&#45;&gt;Node2</title>
<path fill="none" stroke="midnightblue" d="M2225.92,-176.81C1984.16,-175.29 433.24,-164.32 340.5,-132 312.21,-122.14 285.67,-99.19 269.75,-83.38"/>
<polygon fill="midnightblue" stroke="midnightblue" points="271.93,-80.6 262.45,-75.87 266.91,-85.48 271.93,-80.6"/>
</g>
<!-- Node20&#45;&gt;Node3 -->
<g id="edge21" class="edge">
<title>Node20&#45;&gt;Node3</title>
<path fill="none" stroke="midnightblue" d="M2225.82,-176.74C1963.4,-174.52 158.19,-158.3 109.5,-132 68.34,-109.77 43.53,-57.18 32.78,-29.21"/>
<polygon fill="midnightblue" stroke="midnightblue" points="35.96,-27.71 29.24,-19.51 29.38,-30.1 35.96,-27.71"/>
</g>
<!-- Node20&#45;&gt;Node4 -->
<g id="edge68" class="edge">
<title>Node20&#45;&gt;Node4</title>
<path fill="none" stroke="midnightblue" d="M2225.87,-176.94C1963.88,-176.41 161.96,-171.28 123.5,-132 88.76,-96.52 154.67,-48.44 192.91,-25.01"/>
<polygon fill="midnightblue" stroke="midnightblue" points="195.17,-27.73 201.96,-19.6 191.58,-21.72 195.17,-27.73"/>
</g>
<!-- Node20&#45;&gt;Node5 -->
<g id="edge69" class="edge">
<title>Node20&#45;&gt;Node5</title>
<path fill="none" stroke="midnightblue" d="M2225.66,-176.76C2006.56,-175.05 728.55,-163.75 653.5,-132 608.92,-113.14 616.02,-82.48 575.5,-56 553.46,-41.6 526.07,-30.44 504.01,-22.83"/>
<polygon fill="midnightblue" stroke="midnightblue" points="504.89,-19.43 494.29,-19.59 502.67,-26.07 504.89,-19.43"/>
</g>
<!-- Node20&#45;&gt;Node6 -->
<g id="edge26" class="edge">
<title>Node20&#45;&gt;Node6</title>
<path fill="none" stroke="midnightblue" d="M2225.76,-176.66C2004.6,-174.21 701.77,-158.64 671.5,-132 642.73,-106.68 645.05,-57.03 648.95,-29.86"/>
<polygon fill="midnightblue" stroke="midnightblue" points="652.45,-30.17 650.63,-19.73 645.54,-29.03 652.45,-30.17"/>
</g>
<!-- Node20&#45;&gt;Node10 -->
<g id="edge34" class="edge">
<title>Node20&#45;&gt;Node10</title>
<path fill="none" stroke="midnightblue" d="M2289.2,-176.84C2506.75,-175.68 3782.05,-167.44 4168.5,-132 4169.97,-131.87 4171.46,-131.72 4172.96,-131.55"/>
<polygon fill="midnightblue" stroke="midnightblue" points="4173.49,-135.01 4182.99,-130.31 4172.64,-128.07 4173.49,-135.01"/>
</g>
<!-- Node20&#45;&gt;Node11 -->
<g id="edge35" class="edge">
<title>Node20&#45;&gt;Node11</title>
<path fill="none" stroke="midnightblue" d="M2289.16,-176.96C2511.79,-176.55 3845.53,-172.46 4274.31,-131.93"/>
<polygon fill="midnightblue" stroke="midnightblue" points="4274.65,-135.41 4284.27,-130.96 4273.98,-128.44 4274.65,-135.41"/>
</g>
<!-- Node20&#45;&gt;Node12 -->
<g id="edge43" class="edge">
<title>Node20&#45;&gt;Node12</title>
<path fill="none" stroke="midnightblue" d="M2289.25,-176.86C2518.57,-175.79 3924.9,-167.85 4376.62,-131.93"/>
<polygon fill="midnightblue" stroke="midnightblue" points="4377.1,-135.4 4386.79,-131.1 4376.53,-128.42 4377.1,-135.4"/>
</g>
<!-- Node20&#45;&gt;Node13 -->
<g id="edge42" class="edge">
<title>Node20&#45;&gt;Node13</title>
<path fill="none" stroke="midnightblue" d="M2289.18,-176.85C2525.93,-175.67 4022.34,-166.9 4499.78,-132.03"/>
<polygon fill="midnightblue" stroke="midnightblue" points="4500.12,-135.51 4509.84,-131.28 4499.6,-128.53 4500.12,-135.51"/>
</g>
<!-- Node20&#45;&gt;Node15 -->
<g id="edge39" class="edge">
<title>Node20&#45;&gt;Node15</title>
<path fill="none" stroke="midnightblue" d="M2289.12,-176.78C2533.82,-175.02 4129.04,-162.53 4636.74,-132.04"/>
<polygon fill="midnightblue" stroke="midnightblue" points="4637.3,-135.51 4647.07,-131.41 4636.88,-128.53 4637.3,-135.51"/>
</g>
<!-- Node20&#45;&gt;Node16 -->
<g id="edge48" class="edge">
<title>Node20&#45;&gt;Node16</title>
<path fill="none" stroke="midnightblue" d="M2289.34,-177.13C2544.76,-178.05 4264.27,-182.31 4807.56,-131.88"/>
<polygon fill="midnightblue" stroke="midnightblue" points="4808.2,-135.33 4817.82,-130.9 4807.54,-128.36 4808.2,-135.33"/>
</g>
<!-- Node21 -->
<g id="node21" class="node">
<title>Node21</title>
<g id="a_node21"><a xlink:title=" ">
<polygon fill="white" stroke="#bfbfbf" points="4079.5,-56.5 4079.5,-75.5 4141.5,-75.5 4141.5,-56.5 4079.5,-56.5"/>
<text text-anchor="middle" x="4110.5" y="-63.5" font-family="Helvetica,sans-Serif" font-size="10.00">stdbool.h</text>
</a>
</g>
</g>
<!-- Node20&#45;&gt;Node21 -->
<g id="edge20" class="edge">
<title>Node20&#45;&gt;Node21</title>
<path fill="none" stroke="midnightblue" d="M2289.09,-176.85C2532.56,-175.63 4101.88,-166.44 4135.5,-132 4148.49,-118.69 4136.85,-97.91 4125.48,-83.44"/>
<polygon fill="midnightblue" stroke="midnightblue" points="4128.13,-81.15 4119.01,-75.76 4122.77,-85.66 4128.13,-81.15"/>
</g>
<!-- Node22 -->
<g id="node22" class="node">
<title>Node22</title>
<g id="a_node22"><a xlink:title=" ">
<polygon fill="white" stroke="#bfbfbf" points="456.5,-56.5 456.5,-75.5 566.5,-75.5 566.5,-56.5 456.5,-56.5"/>
<text text-anchor="middle" x="511.5" y="-63.5" font-family="Helvetica,sans-Serif" font-size="10.00">swl/swl_common.h</text>
</a>
</g>
</g>
<!-- Node20&#45;&gt;Node22 -->
<g id="edge22" class="edge">
<title>Node20&#45;&gt;Node22</title>
<path fill="none" stroke="midnightblue" d="M2225.73,-176.67C2002.86,-174.32 680.29,-159.24 600.5,-132 571.25,-122.01 543.47,-98.74 526.96,-82.93"/>
<polygon fill="midnightblue" stroke="midnightblue" points="529.37,-80.4 519.8,-75.86 524.45,-85.38 529.37,-80.4"/>
</g>
<!-- Node23 -->
<g id="node23" class="node">
<title>Node23</title>
<g id="a_node23"><a xlink:title=" ">
<polygon fill="white" stroke="#bfbfbf" points="680.5,-112.5 680.5,-131.5 816.5,-131.5 816.5,-112.5 680.5,-112.5"/>
<text text-anchor="middle" x="748.5" y="-119.5" font-family="Helvetica,sans-Serif" font-size="10.00">swla/swla_commonLib.h</text>
</a>
</g>
</g>
<!-- Node20&#45;&gt;Node23 -->
<g id="edge23" class="edge">
<title>Node20&#45;&gt;Node23</title>
<path fill="none" stroke="midnightblue" d="M2225.95,-177C2073.07,-176.79 1393.82,-173.51 826.92,-132.04"/>
<polygon fill="midnightblue" stroke="midnightblue" points="827.14,-128.54 816.9,-131.3 826.62,-135.53 827.14,-128.54"/>
</g>
<!-- Node24 -->
<g id="node24" class="node">
<title>Node24</title>
<g id="a_node24"><a xlink:title=" ">
<polygon fill="white" stroke="#bfbfbf" points="834.5,-112.5 834.5,-131.5 922.5,-131.5 922.5,-112.5 834.5,-112.5"/>
<text text-anchor="middle" x="878.5" y="-119.5" font-family="Helvetica,sans-Serif" font-size="10.00">swl/swl_uuid.h</text>
</a>
</g>
</g>
<!-- Node20&#45;&gt;Node24 -->
<g id="edge24" class="edge">
<title>Node20&#45;&gt;Node24</title>
<path fill="none" stroke="midnightblue" d="M2225.98,-176.51C2052.83,-173.71 1215.13,-159.02 932.89,-131.97"/>
<polygon fill="midnightblue" stroke="midnightblue" points="932.98,-128.46 922.69,-130.96 932.29,-135.43 932.98,-128.46"/>
</g>
<!-- Node25 -->
<g id="node25" class="node">
<title>Node25</title>
<g id="a_node25"><a xlink:title=" ">
<polygon fill="white" stroke="#bfbfbf" points="940.5,-112.5 940.5,-131.5 1092.5,-131.5 1092.5,-112.5 940.5,-112.5"/>
<text text-anchor="middle" x="1016.5" y="-119.5" font-family="Helvetica,sans-Serif" font-size="10.00">swla/swla_radioStandards.h</text>
</a>
</g>
</g>
<!-- Node20&#45;&gt;Node25 -->
<g id="edge25" class="edge">
<title>Node20&#45;&gt;Node25</title>
<path fill="none" stroke="midnightblue" d="M2225.76,-176.52C2091.32,-174.35 1555.28,-164.06 1102.91,-131.97"/>
<polygon fill="midnightblue" stroke="midnightblue" points="1103.13,-128.48 1092.91,-131.26 1102.63,-135.46 1103.13,-128.48"/>
</g>
<!-- Node26 -->
<g id="node26" class="node">
<title>Node26</title>
<g id="a_node26"><a xlink:title=" ">
<polygon fill="white" stroke="#bfbfbf" points="1111,-112.5 1111,-131.5 1240,-131.5 1240,-112.5 1111,-112.5"/>
<text text-anchor="middle" x="1175.5" y="-119.5" font-family="Helvetica,sans-Serif" font-size="10.00">swla/swla_time_spec.h</text>
</a>
</g>
</g>
<!-- Node20&#45;&gt;Node26 -->
<g id="edge27" class="edge">
<title>Node20&#45;&gt;Node26</title>
<path fill="none" stroke="midnightblue" d="M2225.67,-176.46C2101.95,-174.2 1641.09,-164.02 1250.14,-131.98"/>
<polygon fill="midnightblue" stroke="midnightblue" points="1250.3,-128.48 1240.04,-131.14 1249.72,-135.46 1250.3,-128.48"/>
</g>
<!-- Node27 -->
<g id="node27" class="node">
<title>Node27</title>
<g id="a_node27"><a xlink:title=" ">
<polygon fill="white" stroke="#bfbfbf" points="1258.5,-112.5 1258.5,-131.5 1352.5,-131.5 1352.5,-112.5 1258.5,-112.5"/>
<text text-anchor="middle" x="1305.5" y="-119.5" font-family="Helvetica,sans-Serif" font-size="10.00">swla/swla_oui.h</text>
</a>
</g>
</g>
<!-- Node20&#45;&gt;Node27 -->
<g id="edge28" class="edge">
<title>Node20&#45;&gt;Node27</title>
<path fill="none" stroke="midnightblue" d="M2225.66,-176.66C2110.73,-175.15 1706.41,-167.58 1362.66,-132"/>
<polygon fill="midnightblue" stroke="midnightblue" points="1362.81,-128.49 1352.5,-130.94 1362.09,-135.46 1362.81,-128.49"/>
</g>
<!-- Node28 -->
<g id="node28" class="node">
<title>Node28</title>
<g id="a_node28"><a xlink:title=" ">
<polygon fill="white" stroke="#bfbfbf" points="1370.5,-112.5 1370.5,-131.5 1498.5,-131.5 1498.5,-112.5 1370.5,-112.5"/>
<text text-anchor="middle" x="1434.5" y="-119.5" font-family="Helvetica,sans-Serif" font-size="10.00">swla/swla_delayExec.h</text>
</a>
</g>
</g>
<!-- Node20&#45;&gt;Node28 -->
<g id="edge29" class="edge">
<title>Node20&#45;&gt;Node28</title>
<path fill="none" stroke="midnightblue" d="M2225.69,-175.78C2123.42,-171.73 1793.66,-157.51 1508.77,-131.96"/>
<polygon fill="midnightblue" stroke="midnightblue" points="1508.92,-128.46 1498.65,-131.04 1508.29,-135.43 1508.92,-128.46"/>
</g>
<!-- Node29 -->
<g id="node29" class="node">
<title>Node29</title>
<g id="a_node29"><a xlink:title=" ">
<polygon fill="white" stroke="#bfbfbf" points="1517,-112.5 1517,-131.5 1636,-131.5 1636,-112.5 1517,-112.5"/>
<text text-anchor="middle" x="1576.5" y="-119.5" font-family="Helvetica,sans-Serif" font-size="10.00">swla/swla_function.h</text>
</a>
</g>
</g>
<!-- Node20&#45;&gt;Node29 -->
<g id="edge30" class="edge">
<title>Node20&#45;&gt;Node29</title>
<path fill="none" stroke="midnightblue" d="M2225.91,-175.31C2136.71,-170.39 1875.1,-155.06 1646.49,-132.04"/>
<polygon fill="midnightblue" stroke="midnightblue" points="1646.62,-128.54 1636.32,-131.01 1645.91,-135.5 1646.62,-128.54"/>
</g>
<!-- Node30 -->
<g id="node30" class="node">
<title>Node30</title>
<g id="a_node30"><a xlink:title=" ">
<polygon fill="white" stroke="#bfbfbf" points="1654,-112.5 1654,-131.5 1795,-131.5 1795,-112.5 1654,-112.5"/>
<text text-anchor="middle" x="1724.5" y="-119.5" font-family="Helvetica,sans-Serif" font-size="10.00">swl/swl_usp_cmdStatus.h</text>
</a>
</g>
</g>
<!-- Node20&#45;&gt;Node30 -->
<g id="edge31" class="edge">
<title>Node20&#45;&gt;Node30</title>
<path fill="none" stroke="midnightblue" d="M2225.91,-174C2153.62,-167.12 1970.39,-149.5 1805.5,-132.09"/>
<polygon fill="midnightblue" stroke="midnightblue" points="1805.48,-128.57 1795.16,-131 1804.74,-135.53 1805.48,-128.57"/>
</g>
<!-- Node31 -->
<g id="node31" class="node">
<title>Node31</title>
<g id="a_node31"><a xlink:title=" ">
<polygon fill="white" stroke="#bfbfbf" points="1813.5,-112.5 1813.5,-131.5 1899.5,-131.5 1899.5,-112.5 1813.5,-112.5"/>
<text text-anchor="middle" x="1856.5" y="-119.5" font-family="Helvetica,sans-Serif" font-size="10.00">swl/swl_wps.h</text>
</a>
</g>
</g>
<!-- Node20&#45;&gt;Node31 -->
<g id="edge32" class="edge">
<title>Node20&#45;&gt;Node31</title>
<path fill="none" stroke="midnightblue" d="M2225.68,-173.36C2165.87,-166.43 2032.37,-150.47 1909.56,-132.11"/>
<polygon fill="midnightblue" stroke="midnightblue" points="1910.02,-128.63 1899.61,-130.61 1908.98,-135.56 1910.02,-128.63"/>
</g>
<!-- Node32 -->
<g id="node32" class="node">
<title>Node32</title>
<g id="a_node32"><a xlink:title=" ">
<polygon fill="white" stroke="#bfbfbf" points="1917.5,-112.5 1917.5,-131.5 2021.5,-131.5 2021.5,-112.5 1917.5,-112.5"/>
<text text-anchor="middle" x="1969.5" y="-119.5" font-family="Helvetica,sans-Serif" font-size="10.00">swl/swl_security.h</text>
</a>
</g>
</g>
<!-- Node20&#45;&gt;Node32 -->
<g id="edge33" class="edge">
<title>Node20&#45;&gt;Node32</title>
<path fill="none" stroke="midnightblue" d="M2225.86,-171.07C2177.51,-162 2084.6,-144.58 2024.9,-133.39"/>
<polygon fill="midnightblue" stroke="midnightblue" points="2025.37,-129.91 2014.89,-131.51 2024.08,-136.79 2025.37,-129.91"/>
</g>
<!-- Node33 -->
<g id="node33" class="node">
<title>Node33</title>
<g id="a_node33"><a xlink:title=" ">
<polygon fill="white" stroke="#bfbfbf" points="2039.5,-112.5 2039.5,-131.5 2179.5,-131.5 2179.5,-112.5 2039.5,-112.5"/>
<text text-anchor="middle" x="2109.5" y="-119.5" font-family="Helvetica,sans-Serif" font-size="10.00">amxd/amxd_parameter.h</text>
</a>
</g>
</g>
<!-- Node20&#45;&gt;Node33 -->
<g id="edge36" class="edge">
<title>Node20&#45;&gt;Node33</title>
<path fill="none" stroke="midnightblue" d="M2234.05,-168.44C2209.37,-159.44 2170.31,-145.19 2142.52,-135.05"/>
<polygon fill="midnightblue" stroke="midnightblue" points="2143.44,-131.66 2132.84,-131.52 2141.04,-138.23 2143.44,-131.66"/>
</g>
<!-- Node34 -->
<g id="node34" class="node">
<title>Node34</title>
<g id="a_node34"><a xlink:title=" ">
<polygon fill="white" stroke="#bfbfbf" points="2198,-112.5 2198,-131.5 2317,-131.5 2317,-112.5 2198,-112.5"/>
<text text-anchor="middle" x="2257.5" y="-119.5" font-family="Helvetica,sans-Serif" font-size="10.00">amxd/amxd_action.h</text>
</a>
</g>
</g>
<!-- Node20&#45;&gt;Node34 -->
<g id="edge37" class="edge">
<title>Node20&#45;&gt;Node34</title>
<path fill="none" stroke="midnightblue" d="M2257.5,-168.08C2257.5,-161.01 2257.5,-150.86 2257.5,-141.99"/>
<polygon fill="midnightblue" stroke="midnightblue" points="2261,-141.75 2257.5,-131.75 2254,-141.75 2261,-141.75"/>
</g>
<!-- Node35 -->
<g id="node35" class="node">
<title>Node35</title>
<g id="a_node35"><a xlink:title=" ">
<polygon fill="white" stroke="#bfbfbf" points="2335,-112.5 2335,-131.5 2510,-131.5 2510,-112.5 2335,-112.5"/>
<text text-anchor="middle" x="2422.5" y="-119.5" font-family="Helvetica,sans-Serif" font-size="10.00">amxd/amxd_object_parameter.h</text>
</a>
</g>
</g>
<!-- Node20&#45;&gt;Node35 -->
<g id="edge38" class="edge">
<title>Node20&#45;&gt;Node35</title>
<path fill="none" stroke="midnightblue" d="M2283.64,-168.44C2311.52,-159.32 2355.85,-144.81 2386.9,-134.65"/>
<polygon fill="midnightblue" stroke="midnightblue" points="2388.06,-137.95 2396.48,-131.52 2385.88,-131.3 2388.06,-137.95"/>
</g>
<!-- Node36 -->
<g id="node36" class="node">
<title>Node36</title>
<g id="a_node36"><a xlink:title=" ">
<polygon fill="white" stroke="#bfbfbf" points="2528,-112.5 2528,-131.5 2657,-131.5 2657,-112.5 2528,-112.5"/>
<text text-anchor="middle" x="2592.5" y="-119.5" font-family="Helvetica,sans-Serif" font-size="10.00">amxd/amxd_function.h</text>
</a>
</g>
</g>
<!-- Node20&#45;&gt;Node36 -->
<g id="edge40" class="edge">
<title>Node20&#45;&gt;Node36</title>
<path fill="none" stroke="midnightblue" d="M2289.02,-171.92C2343.82,-163.09 2457.65,-144.74 2529.26,-133.19"/>
<polygon fill="midnightblue" stroke="midnightblue" points="2530.19,-136.59 2539.51,-131.54 2529.08,-129.68 2530.19,-136.59"/>
</g>
<!-- Node37 -->
<g id="node37" class="node">
<title>Node37</title>
<g id="a_node37"><a xlink:title=" ">
<polygon fill="white" stroke="#bfbfbf" points="2675,-112.5 2675,-131.5 2844,-131.5 2844,-112.5 2675,-112.5"/>
<text text-anchor="middle" x="2759.5" y="-119.5" font-family="Helvetica,sans-Serif" font-size="10.00">amxd/amxd_object_hierarchy.h</text>
</a>
</g>
</g>
<!-- Node20&#45;&gt;Node37 -->
<g id="edge41" class="edge">
<title>Node20&#45;&gt;Node37</title>
<path fill="none" stroke="midnightblue" d="M2289.28,-173.58C2364.6,-165.48 2556.15,-144.87 2670.19,-132.61"/>
<polygon fill="midnightblue" stroke="midnightblue" points="2670.73,-136.07 2680.29,-131.52 2669.98,-129.11 2670.73,-136.07"/>
</g>
<!-- Node38 -->
<g id="node38" class="node">
<title>Node38</title>
<g id="a_node38"><a xlink:title=" ">
<polygon fill="white" stroke="#bfbfbf" points="2862.5,-112.5 2862.5,-131.5 3006.5,-131.5 3006.5,-112.5 2862.5,-112.5"/>
<text text-anchor="middle" x="2934.5" y="-119.5" font-family="Helvetica,sans-Serif" font-size="10.00">amxd/amxd_transaction.h</text>
</a>
</g>
</g>
<!-- Node20&#45;&gt;Node38 -->
<g id="edge44" class="edge">
<title>Node20&#45;&gt;Node38</title>
<path fill="none" stroke="midnightblue" d="M2289.19,-175C2376.87,-169.39 2630.25,-152.61 2851.89,-132.12"/>
<polygon fill="midnightblue" stroke="midnightblue" points="2852.46,-135.58 2862.09,-131.17 2851.81,-128.61 2852.46,-135.58"/>
</g>
<!-- Node39 -->
<g id="node39" class="node">
<title>Node39</title>
<g id="a_node39"><a xlink:title=" ">
<polygon fill="white" stroke="#bfbfbf" points="3024.5,-112.5 3024.5,-131.5 3140.5,-131.5 3140.5,-112.5 3024.5,-112.5"/>
<text text-anchor="middle" x="3082.5" y="-119.5" font-family="Helvetica,sans-Serif" font-size="10.00">amxb/amxb_types.h</text>
</a>
</g>
</g>
<!-- Node20&#45;&gt;Node39 -->
<g id="edge45" class="edge">
<title>Node20&#45;&gt;Node39</title>
<path fill="none" stroke="midnightblue" d="M2289.34,-175.96C2392.45,-172.4 2726.74,-159.47 3014.22,-132.05"/>
<polygon fill="midnightblue" stroke="midnightblue" points="3014.81,-135.51 3024.43,-131.07 3014.14,-128.54 3014.81,-135.51"/>
</g>
<!-- Node40 -->
<g id="node40" class="node">
<title>Node40</title>
<g id="a_node40"><a xlink:title=" ">
<polygon fill="white" stroke="#bfbfbf" points="3158.5,-112.5 3158.5,-131.5 3294.5,-131.5 3294.5,-112.5 3158.5,-112.5"/>
<text text-anchor="middle" x="3226.5" y="-119.5" font-family="Helvetica,sans-Serif" font-size="10.00">amxb/amxb_operators.h</text>
</a>
</g>
</g>
<!-- Node20&#45;&gt;Node40 -->
<g id="edge46" class="edge">
<title>Node20&#45;&gt;Node40</title>
<path fill="none" stroke="midnightblue" d="M2289.15,-176.16C2403.41,-172.96 2805.46,-160.34 3147.97,-132.07"/>
<polygon fill="midnightblue" stroke="midnightblue" points="3148.41,-135.55 3158.09,-131.23 3147.83,-128.57 3148.41,-135.55"/>
</g>
<!-- Node41 -->
<g id="node41" class="node">
<title>Node41</title>
<g id="a_node41"><a xlink:title=" ">
<polygon fill="white" stroke="#bfbfbf" points="3312.5,-112.5 3312.5,-131.5 3424.5,-131.5 3424.5,-112.5 3312.5,-112.5"/>
<text text-anchor="middle" x="3368.5" y="-119.5" font-family="Helvetica,sans-Serif" font-size="10.00">amxb/amxb_error.h</text>
</a>
</g>
</g>
<!-- Node20&#45;&gt;Node41 -->
<g id="edge47" class="edge">
<title>Node20&#45;&gt;Node41</title>
<path fill="none" stroke="midnightblue" d="M2289.24,-176.73C2415.72,-175.42 2896.27,-168.26 3302,-132.05"/>
<polygon fill="midnightblue" stroke="midnightblue" points="3302.52,-135.51 3312.17,-131.13 3301.89,-128.54 3302.52,-135.51"/>
</g>
<!-- Node42 -->
<g id="node42" class="node">
<title>Node42</title>
<g id="a_node42"><a xlink:title=" ">
<polygon fill="white" stroke="#bfbfbf" points="3443,-112.5 3443,-131.5 3558,-131.5 3558,-112.5 3443,-112.5"/>
<text text-anchor="middle" x="3500.5" y="-119.5" font-family="Helvetica,sans-Serif" font-size="10.00">amxo/amxo_types.h</text>
</a>
</g>
</g>
<!-- Node20&#45;&gt;Node42 -->
<g id="edge49" class="edge">
<title>Node20&#45;&gt;Node42</title>
<path fill="none" stroke="midnightblue" d="M2289.38,-176.89C2425.6,-176.2 2972.48,-171.07 3432.62,-131.98"/>
<polygon fill="midnightblue" stroke="midnightblue" points="3433.13,-135.45 3442.8,-131.11 3432.53,-128.47 3433.13,-135.45"/>
</g>
<!-- Node43 -->
<g id="node43" class="node">
<title>Node43</title>
<g id="a_node43"><a xlink:href="wld__channel__types_8h.html" target="_top" xlink:title=" ">
<polygon fill="white" stroke="red" points="4007,-112.5 4007,-131.5 4126,-131.5 4126,-112.5 4007,-112.5"/>
<text text-anchor="middle" x="4066.5" y="-119.5" font-family="Helvetica,sans-Serif" font-size="10.00">wld_channel_types.h</text>
</a>
</g>
</g>
<!-- Node20&#45;&gt;Node43 -->
<g id="edge51" class="edge">
<title>Node20&#45;&gt;Node43</title>
<path fill="none" stroke="midnightblue" d="M2289.27,-176.63C2493.61,-174.18 3625.61,-159.6 3996.48,-131.97"/>
<polygon fill="midnightblue" stroke="midnightblue" points="3997,-135.44 4006.7,-131.19 3996.46,-128.46 3997,-135.44"/>
</g>
<!-- Node45 -->
<g id="node44" class="node">
<title>Node45</title>
<g id="a_node44"><a xlink:href="wld__bgdfs_8h.html" target="_top" xlink:title=" ">
<polygon fill="white" stroke="black" points="217,-112.5 217,-131.5 292,-131.5 292,-112.5 217,-112.5"/>
<text text-anchor="middle" x="254.5" y="-119.5" font-family="Helvetica,sans-Serif" font-size="10.00">wld_bgdfs.h</text>
</a>
</g>
</g>
<!-- Node20&#45;&gt;Node45 -->
<g id="edge54" class="edge">
<title>Node20&#45;&gt;Node45</title>
<path fill="none" stroke="midnightblue" d="M2225.85,-176.91C2005.78,-176.22 701.24,-170.5 306.5,-132 305.19,-131.87 303.87,-131.73 302.53,-131.58"/>
<polygon fill="midnightblue" stroke="midnightblue" points="302.56,-128.05 292.18,-130.2 301.63,-134.99 302.56,-128.05"/>
</g>
<!-- Node46 -->
<g id="node45" class="node">
<title>Node46</title>
<g id="a_node45"><a xlink:href="wld__rad__delayMgr_8h.html" target="_top" xlink:title=" ">
<polygon fill="white" stroke="black" points="3576.5,-112.5 3576.5,-131.5 3690.5,-131.5 3690.5,-112.5 3576.5,-112.5"/>
<text text-anchor="middle" x="3633.5" y="-119.5" font-family="Helvetica,sans-Serif" font-size="10.00">wld_rad_delayMgr.h</text>
</a>
</g>
</g>
<!-- Node20&#45;&gt;Node46 -->
<g id="edge56" class="edge">
<title>Node20&#45;&gt;Node46</title>
<path fill="none" stroke="midnightblue" d="M2289.42,-177.1C2435.49,-177.24 3053.43,-175 3558.5,-132 3561.02,-131.79 3563.59,-131.54 3566.19,-131.28"/>
<polygon fill="midnightblue" stroke="midnightblue" points="3566.78,-134.73 3576.33,-130.15 3566,-127.78 3566.78,-134.73"/>
</g>
<!-- Node47 -->
<g id="node46" class="node">
<title>Node47</title>
<g id="a_node46"><a xlink:href="wld__fsm_8h.html" target="_top" xlink:title=" ">
<polygon fill="white" stroke="black" points="349,-112.5 349,-131.5 416,-131.5 416,-112.5 349,-112.5"/>
<text text-anchor="middle" x="382.5" y="-119.5" font-family="Helvetica,sans-Serif" font-size="10.00">wld_fsm.h</text>
</a>
</g>
</g>
<!-- Node20&#45;&gt;Node47 -->
<g id="edge58" class="edge">
<title>Node20&#45;&gt;Node47</title>
<path fill="none" stroke="midnightblue" d="M2225.74,-177.01C2015.04,-176.96 815.62,-174.8 426.37,-131.81"/>
<polygon fill="midnightblue" stroke="midnightblue" points="426.54,-128.31 416.21,-130.66 425.75,-135.26 426.54,-128.31"/>
</g>
<!-- Node48 -->
<g id="node47" class="node">
<title>Node48</title>
<g id="a_node47"><a xlink:href="wld__sensing_8h.html" target="_top" xlink:title=" ">
<polygon fill="white" stroke="black" points="3708.5,-112.5 3708.5,-131.5 3794.5,-131.5 3794.5,-112.5 3708.5,-112.5"/>
<text text-anchor="middle" x="3751.5" y="-119.5" font-family="Helvetica,sans-Serif" font-size="10.00">wld_sensing.h</text>
</a>
</g>
</g>
<!-- Node20&#45;&gt;Node48 -->
<g id="edge60" class="edge">
<title>Node20&#45;&gt;Node48</title>
<path fill="none" stroke="midnightblue" d="M2289.25,-176.58C2473.4,-174.17 3404.72,-161.05 3690.5,-132 3693.01,-131.74 3695.59,-131.44 3698.19,-131.1"/>
<polygon fill="midnightblue" stroke="midnightblue" points="3698.93,-134.53 3708.32,-129.64 3697.93,-127.6 3698.93,-134.53"/>
</g>
<!-- Node49 -->
<g id="node48" class="node">
<title>Node49</title>
<g id="a_node48"><a xlink:href="wld__mld_8h.html" target="_top" xlink:title=" ">
<polygon fill="white" stroke="black" points="132,-112.5 132,-131.5 199,-131.5 199,-112.5 132,-112.5"/>
<text text-anchor="middle" x="165.5" y="-119.5" font-family="Helvetica,sans-Serif" font-size="10.00">wld_mld.h</text>
</a>
</g>
</g>
<!-- Node20&#45;&gt;Node49 -->
<g id="edge62" class="edge">
<title>Node20&#45;&gt;Node49</title>
<path fill="none" stroke="midnightblue" d="M2225.7,-177.11C2000.64,-177.73 644.62,-179.51 209.32,-131.8"/>
<polygon fill="midnightblue" stroke="midnightblue" points="209.53,-128.31 199.21,-130.67 208.75,-135.26 209.53,-128.31"/>
</g>
<!-- Node50 -->
<g id="node49" class="node">
<title>Node50</title>
<g id="a_node49"><a xlink:href="wld__autoCommitRadData_8h.html" target="_top" xlink:title=" ">
<polygon fill="white" stroke="black" points="3812.5,-112.5 3812.5,-131.5 3988.5,-131.5 3988.5,-112.5 3812.5,-112.5"/>
<text text-anchor="middle" x="3900.5" y="-119.5" font-family="Helvetica,sans-Serif" font-size="10.00">Utils/wld_autoCommitRadData.h</text>
</a>
</g>
</g>
<!-- Node20&#45;&gt;Node50 -->
<g id="edge64" class="edge">
<title>Node20&#45;&gt;Node50</title>
<path fill="none" stroke="midnightblue" d="M2289.1,-176.82C2449.18,-175.78 3186.75,-169.12 3802.08,-132.04"/>
<polygon fill="midnightblue" stroke="midnightblue" points="3802.72,-135.51 3812.49,-131.41 3802.3,-128.52 3802.72,-135.51"/>
</g>
<!-- Node51 -->
<g id="node50" class="node">
<title>Node51</title>
<g id="a_node50"><a xlink:href="wld__dmnMgt_8h.html" target="_top" xlink:title=" ">
<polygon fill="white" stroke="red" points="434.5,-112.5 434.5,-131.5 548.5,-131.5 548.5,-112.5 434.5,-112.5"/>
<text text-anchor="middle" x="491.5" y="-119.5" font-family="Helvetica,sans-Serif" font-size="10.00">Utils/wld_dmnMgt.h</text>
</a>
</g>
</g>
<!-- Node20&#45;&gt;Node51 -->
<g id="edge65" class="edge">
<title>Node20&#45;&gt;Node51</title>
<path fill="none" stroke="midnightblue" d="M2225.9,-176.59C2023.24,-173.91 903.71,-158.09 562.5,-132 561.39,-131.91 560.26,-131.82 559.13,-131.73"/>
<polygon fill="midnightblue" stroke="midnightblue" points="559.08,-128.21 548.8,-130.76 558.43,-135.18 559.08,-128.21"/>
</g>
<!-- Node43&#45;&gt;Node6 -->
<g id="edge53" class="edge">
<title>Node43&#45;&gt;Node6</title>
<path fill="none" stroke="midnightblue" d="M4006.7,-112.83C4003.59,-112.52 4000.51,-112.24 3997.5,-112 2673.35,-5.92 1046.22,-8.76 713.57,-10.58"/>
<polygon fill="midnightblue" stroke="midnightblue" points="713.18,-7.08 703.2,-10.64 713.21,-14.08 713.18,-7.08"/>
</g>
<!-- Node43&#45;&gt;Node21 -->
<g id="edge52" class="edge">
<title>Node43&#45;&gt;Node21</title>
<path fill="none" stroke="midnightblue" d="M4073.77,-112.08C4080.04,-104.38 4089.29,-93.03 4096.93,-83.65"/>
<polygon fill="midnightblue" stroke="midnightblue" points="4099.77,-85.71 4103.37,-75.75 4094.34,-81.29 4099.77,-85.71"/>
</g>
<!-- Node45&#45;&gt;Node2 -->
<g id="edge55" class="edge">
<title>Node45&#45;&gt;Node2</title>
<path fill="none" stroke="midnightblue" d="M254.5,-112.08C254.5,-105.01 254.5,-94.86 254.5,-85.99"/>
<polygon fill="midnightblue" stroke="midnightblue" points="258,-85.75 254.5,-75.75 251,-85.75 258,-85.75"/>
</g>
<!-- Node46&#45;&gt;Node20 -->
<g id="edge57" class="edge">
<title>Node46&#45;&gt;Node20</title>
<path fill="none" stroke="midnightblue" d="M3581.75,-131.52C3579.98,-131.69 3578.23,-131.85 3576.5,-132 3075.62,-174.64 2463.75,-177.2 2299.6,-177.1"/>
<polygon fill="midnightblue" stroke="midnightblue" points="2299.44,-173.6 2289.44,-177.09 2299.43,-180.6 2299.44,-173.6"/>
</g>
<!-- Node47&#45;&gt;Node2 -->
<g id="edge59" class="edge">
<title>Node47&#45;&gt;Node2</title>
<path fill="none" stroke="midnightblue" d="M362.22,-112.44C341.15,-103.56 307.98,-89.56 284.01,-79.45"/>
<polygon fill="midnightblue" stroke="midnightblue" points="285.26,-76.18 274.69,-75.52 282.54,-82.63 285.26,-76.18"/>
</g>
<!-- Node48&#45;&gt;Node20 -->
<g id="edge61" class="edge">
<title>Node48&#45;&gt;Node20</title>
<path fill="none" stroke="midnightblue" d="M3712.93,-131.51C3711.44,-131.69 3709.96,-131.85 3708.5,-132 3425,-160.81 2506.23,-173.96 2299.16,-176.52"/>
<polygon fill="midnightblue" stroke="midnightblue" points="2298.97,-173.03 2289.01,-176.65 2299.06,-180.03 2298.97,-173.03"/>
</g>
<!-- Node49&#45;&gt;Node2 -->
<g id="edge63" class="edge">
<title>Node49&#45;&gt;Node2</title>
<path fill="none" stroke="midnightblue" d="M179.8,-112.32C193.68,-103.9 214.99,-90.97 231.3,-81.07"/>
<polygon fill="midnightblue" stroke="midnightblue" points="233.5,-83.83 240.24,-75.65 229.87,-77.85 233.5,-83.83"/>
</g>
<!-- Node51&#45;&gt;Node2 -->
<g id="edge67" class="edge">
<title>Node51&#45;&gt;Node2</title>
<path fill="none" stroke="midnightblue" d="M453.95,-112.44C412.69,-103.04 346.36,-87.93 301.63,-77.74"/>
<polygon fill="midnightblue" stroke="midnightblue" points="302.41,-74.33 291.88,-75.52 300.85,-81.15 302.41,-74.33"/>
</g>
<!-- Node51&#45;&gt;Node22 -->
<g id="edge66" class="edge">
<title>Node51&#45;&gt;Node22</title>
<path fill="none" stroke="midnightblue" d="M494.8,-112.08C497.48,-104.85 501.35,-94.41 504.69,-85.4"/>
<polygon fill="midnightblue" stroke="midnightblue" points="508.07,-86.34 508.26,-75.75 501.5,-83.91 508.07,-86.34"/>
</g>
</g>
</svg>
