<?xml version="1.0" encoding="UTF-8" standalone="no"?>
<!DOCTYPE svg PUBLIC "-//W3C//DTD SVG 1.1//EN"
 "http://www.w3.org/Graphics/SVG/1.1/DTD/svg11.dtd">
<!-- Generated by graphviz version 2.43.0 (0)
 -->
<!-- Title: test/testHelper/wld_th_fsm.h Pages: 1 -->
<svg width="5559pt" height="263pt"
 viewBox="0.00 0.00 5558.61 263.00" xmlns="http://www.w3.org/2000/svg" xmlns:xlink="http://www.w3.org/1999/xlink">
<g id="graph0" class="graph" transform="scale(1 1) rotate(0) translate(4 259)">
<title>test/testHelper/wld_th_fsm.h</title>
<polygon fill="white" stroke="transparent" points="-4,4 -4,-259 5554.61,-259 5554.61,4 -4,4"/>
<!-- Node1 -->
<g id="node1" class="node">
<title>Node1</title>
<g id="a_node1"><a xlink:title=" ">
<polygon fill="#bfbfbf" stroke="black" points="1155.5,-224.5 1155.5,-254.5 1265.5,-254.5 1265.5,-224.5 1155.5,-224.5"/>
<text text-anchor="start" x="1163.5" y="-242.5" font-family="Helvetica,sans-Serif" font-size="10.00">test/testHelper/wld</text>
<text text-anchor="middle" x="1210.5" y="-231.5" font-family="Helvetica,sans-Serif" font-size="10.00">_th_fsm.h</text>
</a>
</g>
</g>
<!-- Node2 -->
<g id="node2" class="node">
<title>Node2</title>
<g id="a_node2"><a xlink:href="wld_8h.html" target="_top" xlink:title=" ">
<polygon fill="white" stroke="red" points="2358,-168.5 2358,-187.5 2421,-187.5 2421,-168.5 2358,-168.5"/>
<text text-anchor="middle" x="2389.5" y="-175.5" font-family="Helvetica,sans-Serif" font-size="10.00">wld/wld.h</text>
</a>
</g>
</g>
<!-- Node1&#45;&gt;Node2 -->
<g id="edge1" class="edge">
<title>Node1&#45;&gt;Node2</title>
<path fill="none" stroke="midnightblue" d="M1265.78,-235.71C1468.66,-225.47 2169.63,-190.1 2347.97,-181.1"/>
<polygon fill="midnightblue" stroke="midnightblue" points="2348.18,-184.59 2357.99,-180.59 2347.83,-177.6 2348.18,-184.59"/>
</g>
<!-- Node33 -->
<g id="node33" class="node">
<title>Node33</title>
<g id="a_node33"><a xlink:href="wld__types_8h.html" target="_top" xlink:title=" ">
<polygon fill="white" stroke="black" points="208,-56.5 208,-75.5 283,-75.5 283,-56.5 208,-56.5"/>
<text text-anchor="middle" x="245.5" y="-63.5" font-family="Helvetica,sans-Serif" font-size="10.00">wld_types.h</text>
</a>
</g>
</g>
<!-- Node1&#45;&gt;Node33 -->
<g id="edge64" class="edge">
<title>Node1&#45;&gt;Node33</title>
<path fill="none" stroke="midnightblue" d="M1155.23,-237.69C934.67,-233.92 125.77,-214.49 50.5,-132 44.51,-125.43 44.97,-118.96 50.5,-112 68.55,-89.31 145.92,-77.08 197.61,-71.32"/>
<polygon fill="midnightblue" stroke="midnightblue" points="198.01,-74.79 207.58,-70.25 197.27,-67.83 198.01,-74.79"/>
</g>
<!-- Node3 -->
<g id="node3" class="node">
<title>Node3</title>
<g id="a_node3"><a xlink:title=" ">
<polygon fill="white" stroke="#bfbfbf" points="5488.5,-56.5 5488.5,-75.5 5550.5,-75.5 5550.5,-56.5 5488.5,-56.5"/>
<text text-anchor="middle" x="5519.5" y="-63.5" font-family="Helvetica,sans-Serif" font-size="10.00">stdbool.h</text>
</a>
</g>
</g>
<!-- Node2&#45;&gt;Node3 -->
<g id="edge2" class="edge">
<title>Node2&#45;&gt;Node3</title>
<path fill="none" stroke="midnightblue" d="M2421.19,-176.85C2749.31,-175.3 5515.56,-161.36 5544.5,-132 5557.56,-118.76 5545.9,-97.96 5534.51,-83.47"/>
<polygon fill="midnightblue" stroke="midnightblue" points="5537.15,-81.17 5528.03,-75.77 5531.79,-85.68 5537.15,-81.17"/>
</g>
<!-- Node4 -->
<g id="node4" class="node">
<title>Node4</title>
<g id="a_node4"><a xlink:title=" ">
<polygon fill="white" stroke="#bfbfbf" points="0,-0.5 0,-19.5 53,-19.5 53,-0.5 0,-0.5"/>
<text text-anchor="middle" x="26.5" y="-7.5" font-family="Helvetica,sans-Serif" font-size="10.00">stdint.h</text>
</a>
</g>
</g>
<!-- Node2&#45;&gt;Node4 -->
<g id="edge3" class="edge">
<title>Node2&#45;&gt;Node4</title>
<path fill="none" stroke="midnightblue" d="M2358,-176.99C2080.73,-176.88 65.56,-174.56 21.5,-132 -6,-105.43 8.1,-55.55 18.57,-28.88"/>
<polygon fill="midnightblue" stroke="midnightblue" points="21.82,-30.18 22.44,-19.6 15.36,-27.48 21.82,-30.18"/>
</g>
<!-- Node5 -->
<g id="node5" class="node">
<title>Node5</title>
<g id="a_node5"><a xlink:title=" ">
<polygon fill="white" stroke="#bfbfbf" points="41.5,-56.5 41.5,-75.5 151.5,-75.5 151.5,-56.5 41.5,-56.5"/>
<text text-anchor="middle" x="96.5" y="-63.5" font-family="Helvetica,sans-Serif" font-size="10.00">swl/swl_common.h</text>
</a>
</g>
</g>
<!-- Node2&#45;&gt;Node5 -->
<g id="edge4" class="edge">
<title>Node2&#45;&gt;Node5</title>
<path fill="none" stroke="midnightblue" d="M2357.94,-177C2082.26,-176.96 92.85,-175.17 50.5,-132 35.36,-116.56 55.89,-95.73 74.16,-81.85"/>
<polygon fill="midnightblue" stroke="midnightblue" points="76.7,-84.33 82.77,-75.65 72.61,-78.65 76.7,-84.33"/>
</g>
<!-- Node6 -->
<g id="node6" class="node">
<title>Node6</title>
<g id="a_node6"><a xlink:title=" ">
<polygon fill="white" stroke="#bfbfbf" points="608.5,-112.5 608.5,-131.5 744.5,-131.5 744.5,-112.5 608.5,-112.5"/>
<text text-anchor="middle" x="676.5" y="-119.5" font-family="Helvetica,sans-Serif" font-size="10.00">swla/swla_commonLib.h</text>
</a>
</g>
</g>
<!-- Node2&#45;&gt;Node6 -->
<g id="edge5" class="edge">
<title>Node2&#45;&gt;Node6</title>
<path fill="none" stroke="midnightblue" d="M2357.98,-177.17C2192.53,-177.88 1407.41,-178.52 754.98,-132.04"/>
<polygon fill="midnightblue" stroke="midnightblue" points="755.13,-128.54 744.9,-131.31 754.63,-135.52 755.13,-128.54"/>
</g>
<!-- Node7 -->
<g id="node7" class="node">
<title>Node7</title>
<g id="a_node7"><a xlink:title=" ">
<polygon fill="white" stroke="#bfbfbf" points="762.5,-112.5 762.5,-131.5 850.5,-131.5 850.5,-112.5 762.5,-112.5"/>
<text text-anchor="middle" x="806.5" y="-119.5" font-family="Helvetica,sans-Serif" font-size="10.00">swl/swl_uuid.h</text>
</a>
</g>
</g>
<!-- Node2&#45;&gt;Node7 -->
<g id="edge6" class="edge">
<title>Node2&#45;&gt;Node7</title>
<path fill="none" stroke="midnightblue" d="M2357.94,-176.67C2169.13,-174.6 1186.69,-162.57 861.06,-131.98"/>
<polygon fill="midnightblue" stroke="midnightblue" points="860.97,-128.45 850.68,-130.97 860.3,-135.42 860.97,-128.45"/>
</g>
<!-- Node8 -->
<g id="node8" class="node">
<title>Node8</title>
<g id="a_node8"><a xlink:title=" ">
<polygon fill="white" stroke="#bfbfbf" points="868.5,-112.5 868.5,-131.5 1020.5,-131.5 1020.5,-112.5 868.5,-112.5"/>
<text text-anchor="middle" x="944.5" y="-119.5" font-family="Helvetica,sans-Serif" font-size="10.00">swla/swla_radioStandards.h</text>
</a>
</g>
</g>
<!-- Node2&#45;&gt;Node8 -->
<g id="edge7" class="edge">
<title>Node2&#45;&gt;Node8</title>
<path fill="none" stroke="midnightblue" d="M2357.85,-176.78C2209.58,-175.6 1568.61,-168.54 1031.19,-131.99"/>
<polygon fill="midnightblue" stroke="midnightblue" points="1031.12,-128.47 1020.91,-131.28 1030.65,-135.46 1031.12,-128.47"/>
</g>
<!-- Node9 -->
<g id="node9" class="node">
<title>Node9</title>
<g id="a_node9"><a xlink:title=" ">
<polygon fill="white" stroke="#bfbfbf" points="492,-0.5 492,-19.5 593,-19.5 593,-0.5 492,-0.5"/>
<text text-anchor="middle" x="542.5" y="-7.5" font-family="Helvetica,sans-Serif" font-size="10.00">swla/swla_time.h</text>
</a>
</g>
</g>
<!-- Node2&#45;&gt;Node9 -->
<g id="edge8" class="edge">
<title>Node2&#45;&gt;Node9</title>
<path fill="none" stroke="midnightblue" d="M2357.84,-176.69C2120.54,-174.31 628.24,-158.32 590.5,-132 556.93,-108.58 546.83,-57.73 543.8,-29.99"/>
<polygon fill="midnightblue" stroke="midnightblue" points="547.25,-29.31 542.89,-19.66 540.28,-29.93 547.25,-29.31"/>
</g>
<!-- Node10 -->
<g id="node10" class="node">
<title>Node10</title>
<g id="a_node10"><a xlink:title=" ">
<polygon fill="white" stroke="#bfbfbf" points="1039,-112.5 1039,-131.5 1168,-131.5 1168,-112.5 1039,-112.5"/>
<text text-anchor="middle" x="1103.5" y="-119.5" font-family="Helvetica,sans-Serif" font-size="10.00">swla/swla_time_spec.h</text>
</a>
</g>
</g>
<!-- Node2&#45;&gt;Node10 -->
<g id="edge9" class="edge">
<title>Node2&#45;&gt;Node10</title>
<path fill="none" stroke="midnightblue" d="M2357.61,-176.8C2218.84,-175.72 1653.67,-169.18 1178.2,-131.97"/>
<polygon fill="midnightblue" stroke="midnightblue" points="1178.29,-128.47 1168.04,-131.17 1177.74,-135.45 1178.29,-128.47"/>
</g>
<!-- Node11 -->
<g id="node11" class="node">
<title>Node11</title>
<g id="a_node11"><a xlink:title=" ">
<polygon fill="white" stroke="#bfbfbf" points="1186.5,-112.5 1186.5,-131.5 1280.5,-131.5 1280.5,-112.5 1186.5,-112.5"/>
<text text-anchor="middle" x="1233.5" y="-119.5" font-family="Helvetica,sans-Serif" font-size="10.00">swla/swla_oui.h</text>
</a>
</g>
</g>
<!-- Node2&#45;&gt;Node11 -->
<g id="edge10" class="edge">
<title>Node2&#45;&gt;Node11</title>
<path fill="none" stroke="midnightblue" d="M2357.9,-177.07C2227.56,-177.09 1718.77,-174.36 1290.6,-131.98"/>
<polygon fill="midnightblue" stroke="midnightblue" points="1290.8,-128.48 1280.5,-130.97 1290.1,-135.44 1290.8,-128.48"/>
</g>
<!-- Node12 -->
<g id="node12" class="node">
<title>Node12</title>
<g id="a_node12"><a xlink:title=" ">
<polygon fill="white" stroke="#bfbfbf" points="1298.5,-112.5 1298.5,-131.5 1426.5,-131.5 1426.5,-112.5 1298.5,-112.5"/>
<text text-anchor="middle" x="1362.5" y="-119.5" font-family="Helvetica,sans-Serif" font-size="10.00">swla/swla_delayExec.h</text>
</a>
</g>
</g>
<!-- Node2&#45;&gt;Node12 -->
<g id="edge11" class="edge">
<title>Node2&#45;&gt;Node12</title>
<path fill="none" stroke="midnightblue" d="M2357.77,-176.35C2238.5,-173.74 1805.47,-162.64 1436.71,-131.94"/>
<polygon fill="midnightblue" stroke="midnightblue" points="1436.9,-128.44 1426.65,-131.1 1436.32,-135.42 1436.9,-128.44"/>
</g>
<!-- Node13 -->
<g id="node13" class="node">
<title>Node13</title>
<g id="a_node13"><a xlink:title=" ">
<polygon fill="white" stroke="#bfbfbf" points="1445,-112.5 1445,-131.5 1564,-131.5 1564,-112.5 1445,-112.5"/>
<text text-anchor="middle" x="1504.5" y="-119.5" font-family="Helvetica,sans-Serif" font-size="10.00">swla/swla_function.h</text>
</a>
</g>
</g>
<!-- Node2&#45;&gt;Node13 -->
<g id="edge12" class="edge">
<title>Node2&#45;&gt;Node13</title>
<path fill="none" stroke="midnightblue" d="M2357.93,-176.11C2250.1,-172.88 1886.24,-160.51 1574.45,-132.01"/>
<polygon fill="midnightblue" stroke="midnightblue" points="1574.59,-128.51 1564.31,-131.08 1573.95,-135.48 1574.59,-128.51"/>
</g>
<!-- Node14 -->
<g id="node14" class="node">
<title>Node14</title>
<g id="a_node14"><a xlink:title=" ">
<polygon fill="white" stroke="#bfbfbf" points="1582,-112.5 1582,-131.5 1723,-131.5 1723,-112.5 1582,-112.5"/>
<text text-anchor="middle" x="1652.5" y="-119.5" font-family="Helvetica,sans-Serif" font-size="10.00">swl/swl_usp_cmdStatus.h</text>
</a>
</g>
</g>
<!-- Node2&#45;&gt;Node14 -->
<g id="edge13" class="edge">
<title>Node2&#45;&gt;Node14</title>
<path fill="none" stroke="midnightblue" d="M2357.67,-175.31C2263.9,-170.24 1980.37,-154.15 1733.4,-132.04"/>
<polygon fill="midnightblue" stroke="midnightblue" points="1733.43,-128.53 1723.15,-131.12 1732.8,-135.5 1733.43,-128.53"/>
</g>
<!-- Node15 -->
<g id="node15" class="node">
<title>Node15</title>
<g id="a_node15"><a xlink:title=" ">
<polygon fill="white" stroke="#bfbfbf" points="1741.5,-112.5 1741.5,-131.5 1827.5,-131.5 1827.5,-112.5 1741.5,-112.5"/>
<text text-anchor="middle" x="1784.5" y="-119.5" font-family="Helvetica,sans-Serif" font-size="10.00">swl/swl_wps.h</text>
</a>
</g>
</g>
<!-- Node2&#45;&gt;Node15 -->
<g id="edge14" class="edge">
<title>Node2&#45;&gt;Node15</title>
<path fill="none" stroke="midnightblue" d="M2357.91,-175.43C2274.57,-171.07 2041.73,-157.53 1837.59,-132.03"/>
<polygon fill="midnightblue" stroke="midnightblue" points="1837.94,-128.54 1827.59,-130.77 1837.07,-135.49 1837.94,-128.54"/>
</g>
<!-- Node16 -->
<g id="node16" class="node">
<title>Node16</title>
<g id="a_node16"><a xlink:title=" ">
<polygon fill="white" stroke="#bfbfbf" points="1845.5,-112.5 1845.5,-131.5 1949.5,-131.5 1949.5,-112.5 1845.5,-112.5"/>
<text text-anchor="middle" x="1897.5" y="-119.5" font-family="Helvetica,sans-Serif" font-size="10.00">swl/swl_security.h</text>
</a>
</g>
</g>
<!-- Node2&#45;&gt;Node16 -->
<g id="edge15" class="edge">
<title>Node2&#45;&gt;Node16</title>
<path fill="none" stroke="midnightblue" d="M2357.89,-174.13C2286.68,-167.56 2108.28,-150.58 1959.5,-132 1959.4,-131.99 1959.3,-131.97 1959.2,-131.96"/>
<polygon fill="midnightblue" stroke="midnightblue" points="1959.94,-128.53 1949.57,-130.71 1959.04,-135.47 1959.94,-128.53"/>
</g>
<!-- Node17 -->
<g id="node17" class="node">
<title>Node17</title>
<g id="a_node17"><a xlink:title=" ">
<polygon fill="white" stroke="#bfbfbf" points="1968,-112.5 1968,-131.5 2051,-131.5 2051,-112.5 1968,-112.5"/>
<text text-anchor="middle" x="2009.5" y="-119.5" font-family="Helvetica,sans-Serif" font-size="10.00">amxc/amxc.h</text>
</a>
</g>
</g>
<!-- Node2&#45;&gt;Node17 -->
<g id="edge16" class="edge">
<title>Node2&#45;&gt;Node17</title>
<path fill="none" stroke="midnightblue" d="M2357.68,-173.06C2300.55,-165.91 2176.57,-149.97 2061.28,-132.07"/>
<polygon fill="midnightblue" stroke="midnightblue" points="2061.65,-128.58 2051.23,-130.5 2060.57,-135.5 2061.65,-128.58"/>
</g>
<!-- Node18 -->
<g id="node18" class="node">
<title>Node18</title>
<g id="a_node18"><a xlink:title=" ">
<polygon fill="white" stroke="#bfbfbf" points="2069.5,-112.5 2069.5,-131.5 2153.5,-131.5 2153.5,-112.5 2069.5,-112.5"/>
<text text-anchor="middle" x="2111.5" y="-119.5" font-family="Helvetica,sans-Serif" font-size="10.00">amxp/amxp.h</text>
</a>
</g>
</g>
<!-- Node2&#45;&gt;Node18 -->
<g id="edge17" class="edge">
<title>Node2&#45;&gt;Node18</title>
<path fill="none" stroke="midnightblue" d="M2357.88,-170.86C2310.62,-161.68 2221.03,-144.28 2163.89,-133.18"/>
<polygon fill="midnightblue" stroke="midnightblue" points="2164.45,-129.72 2153.97,-131.25 2163.12,-136.59 2164.45,-129.72"/>
</g>
<!-- Node19 -->
<g id="node19" class="node">
<title>Node19</title>
<g id="a_node19"><a xlink:title=" ">
<polygon fill="white" stroke="#bfbfbf" points="2171.5,-112.5 2171.5,-131.5 2311.5,-131.5 2311.5,-112.5 2171.5,-112.5"/>
<text text-anchor="middle" x="2241.5" y="-119.5" font-family="Helvetica,sans-Serif" font-size="10.00">amxd/amxd_parameter.h</text>
</a>
</g>
</g>
<!-- Node2&#45;&gt;Node19 -->
<g id="edge18" class="edge">
<title>Node2&#45;&gt;Node19</title>
<path fill="none" stroke="midnightblue" d="M2366.05,-168.44C2341.37,-159.44 2302.31,-145.19 2274.52,-135.05"/>
<polygon fill="midnightblue" stroke="midnightblue" points="2275.44,-131.66 2264.84,-131.52 2273.04,-138.23 2275.44,-131.66"/>
</g>
<!-- Node20 -->
<g id="node20" class="node">
<title>Node20</title>
<g id="a_node20"><a xlink:title=" ">
<polygon fill="white" stroke="#bfbfbf" points="2330,-112.5 2330,-131.5 2449,-131.5 2449,-112.5 2330,-112.5"/>
<text text-anchor="middle" x="2389.5" y="-119.5" font-family="Helvetica,sans-Serif" font-size="10.00">amxd/amxd_action.h</text>
</a>
</g>
</g>
<!-- Node2&#45;&gt;Node20 -->
<g id="edge19" class="edge">
<title>Node2&#45;&gt;Node20</title>
<path fill="none" stroke="midnightblue" d="M2389.5,-168.08C2389.5,-161.01 2389.5,-150.86 2389.5,-141.99"/>
<polygon fill="midnightblue" stroke="midnightblue" points="2393,-141.75 2389.5,-131.75 2386,-141.75 2393,-141.75"/>
</g>
<!-- Node21 -->
<g id="node21" class="node">
<title>Node21</title>
<g id="a_node21"><a xlink:title=" ">
<polygon fill="white" stroke="#bfbfbf" points="2467,-112.5 2467,-131.5 2642,-131.5 2642,-112.5 2467,-112.5"/>
<text text-anchor="middle" x="2554.5" y="-119.5" font-family="Helvetica,sans-Serif" font-size="10.00">amxd/amxd_object_parameter.h</text>
</a>
</g>
</g>
<!-- Node2&#45;&gt;Node21 -->
<g id="edge20" class="edge">
<title>Node2&#45;&gt;Node21</title>
<path fill="none" stroke="midnightblue" d="M2415.64,-168.44C2443.52,-159.32 2487.85,-144.81 2518.9,-134.65"/>
<polygon fill="midnightblue" stroke="midnightblue" points="2520.06,-137.95 2528.48,-131.52 2517.88,-131.3 2520.06,-137.95"/>
</g>
<!-- Node22 -->
<g id="node22" class="node">
<title>Node22</title>
<g id="a_node22"><a xlink:title=" ">
<polygon fill="white" stroke="#bfbfbf" points="2660.5,-112.5 2660.5,-131.5 2812.5,-131.5 2812.5,-112.5 2660.5,-112.5"/>
<text text-anchor="middle" x="2736.5" y="-119.5" font-family="Helvetica,sans-Serif" font-size="10.00">amxd/amxd_object_event.h</text>
</a>
</g>
</g>
<!-- Node2&#45;&gt;Node22 -->
<g id="edge21" class="edge">
<title>Node2&#45;&gt;Node22</title>
<path fill="none" stroke="midnightblue" d="M2421.21,-172.06C2477.78,-163.26 2597.12,-144.69 2671.67,-133.09"/>
<polygon fill="midnightblue" stroke="midnightblue" points="2672.53,-136.5 2681.88,-131.5 2671.46,-129.58 2672.53,-136.5"/>
</g>
<!-- Node23 -->
<g id="node23" class="node">
<title>Node23</title>
<g id="a_node23"><a xlink:title=" ">
<polygon fill="white" stroke="#bfbfbf" points="2831,-112.5 2831,-131.5 2960,-131.5 2960,-112.5 2831,-112.5"/>
<text text-anchor="middle" x="2895.5" y="-119.5" font-family="Helvetica,sans-Serif" font-size="10.00">amxd/amxd_function.h</text>
</a>
</g>
</g>
<!-- Node2&#45;&gt;Node23 -->
<g id="edge22" class="edge">
<title>Node2&#45;&gt;Node23</title>
<path fill="none" stroke="midnightblue" d="M2421.23,-173.88C2491.18,-166.97 2664.18,-149.66 2820.65,-132.08"/>
<polygon fill="midnightblue" stroke="midnightblue" points="2821.39,-135.52 2830.93,-130.92 2820.6,-128.56 2821.39,-135.52"/>
</g>
<!-- Node24 -->
<g id="node24" class="node">
<title>Node24</title>
<g id="a_node24"><a xlink:title=" ">
<polygon fill="white" stroke="#bfbfbf" points="2978,-112.5 2978,-131.5 3147,-131.5 3147,-112.5 2978,-112.5"/>
<text text-anchor="middle" x="3062.5" y="-119.5" font-family="Helvetica,sans-Serif" font-size="10.00">amxd/amxd_object_hierarchy.h</text>
</a>
</g>
</g>
<!-- Node2&#45;&gt;Node24 -->
<g id="edge23" class="edge">
<title>Node2&#45;&gt;Node24</title>
<path fill="none" stroke="midnightblue" d="M2421.27,-174.75C2507.37,-168.6 2752.64,-150.79 2967.64,-132.15"/>
<polygon fill="midnightblue" stroke="midnightblue" points="2968.2,-135.61 2977.86,-131.26 2967.59,-128.64 2968.2,-135.61"/>
</g>
<!-- Node25 -->
<g id="node25" class="node">
<title>Node25</title>
<g id="a_node25"><a xlink:title=" ">
<polygon fill="white" stroke="#bfbfbf" points="3165,-112.5 3165,-131.5 3284,-131.5 3284,-112.5 3165,-112.5"/>
<text text-anchor="middle" x="3224.5" y="-119.5" font-family="Helvetica,sans-Serif" font-size="10.00">amxd/amxd_object.h</text>
</a>
</g>
</g>
<!-- Node2&#45;&gt;Node25 -->
<g id="edge24" class="edge">
<title>Node2&#45;&gt;Node25</title>
<path fill="none" stroke="midnightblue" d="M2421.35,-175.96C2525.25,-172.41 2863.94,-159.44 3154.51,-132.13"/>
<polygon fill="midnightblue" stroke="midnightblue" points="3155.2,-135.58 3164.82,-131.15 3154.54,-128.61 3155.2,-135.58"/>
</g>
<!-- Node26 -->
<g id="node26" class="node">
<title>Node26</title>
<g id="a_node26"><a xlink:title=" ">
<polygon fill="white" stroke="#bfbfbf" points="3302,-112.5 3302,-131.5 3407,-131.5 3407,-112.5 3302,-112.5"/>
<text text-anchor="middle" x="3354.5" y="-119.5" font-family="Helvetica,sans-Serif" font-size="10.00">amxd/amxd_dm.h</text>
</a>
</g>
</g>
<!-- Node2&#45;&gt;Node26 -->
<g id="edge25" class="edge">
<title>Node2&#45;&gt;Node26</title>
<path fill="none" stroke="midnightblue" d="M2421.21,-176.53C2536.59,-174.59 2945.09,-165.69 3291.98,-132.06"/>
<polygon fill="midnightblue" stroke="midnightblue" points="3292.36,-135.54 3301.97,-131.08 3291.67,-128.57 3292.36,-135.54"/>
</g>
<!-- Node27 -->
<g id="node27" class="node">
<title>Node27</title>
<g id="a_node27"><a xlink:title=" ">
<polygon fill="white" stroke="#bfbfbf" points="3425.5,-112.5 3425.5,-131.5 3569.5,-131.5 3569.5,-112.5 3425.5,-112.5"/>
<text text-anchor="middle" x="3497.5" y="-119.5" font-family="Helvetica,sans-Serif" font-size="10.00">amxd/amxd_transaction.h</text>
</a>
</g>
</g>
<!-- Node2&#45;&gt;Node27 -->
<g id="edge26" class="edge">
<title>Node2&#45;&gt;Node27</title>
<path fill="none" stroke="midnightblue" d="M2421.06,-176.39C2545.81,-173.8 3016.68,-162.51 3415.11,-132.06"/>
<polygon fill="midnightblue" stroke="midnightblue" points="3415.4,-135.54 3425.1,-131.29 3414.86,-128.57 3415.4,-135.54"/>
</g>
<!-- Node28 -->
<g id="node28" class="node">
<title>Node28</title>
<g id="a_node28"><a xlink:title=" ">
<polygon fill="white" stroke="#bfbfbf" points="3587.5,-112.5 3587.5,-131.5 3703.5,-131.5 3703.5,-112.5 3587.5,-112.5"/>
<text text-anchor="middle" x="3645.5" y="-119.5" font-family="Helvetica,sans-Serif" font-size="10.00">amxb/amxb_types.h</text>
</a>
</g>
</g>
<!-- Node2&#45;&gt;Node28 -->
<g id="edge27" class="edge">
<title>Node2&#45;&gt;Node28</title>
<path fill="none" stroke="midnightblue" d="M2421.26,-176.91C2558.2,-176.3 3111.86,-171.45 3577.15,-132.02"/>
<polygon fill="midnightblue" stroke="midnightblue" points="3577.77,-135.48 3587.43,-131.15 3577.17,-128.51 3577.77,-135.48"/>
</g>
<!-- Node29 -->
<g id="node29" class="node">
<title>Node29</title>
<g id="a_node29"><a xlink:title=" ">
<polygon fill="white" stroke="#bfbfbf" points="3721.5,-112.5 3721.5,-131.5 3857.5,-131.5 3857.5,-112.5 3721.5,-112.5"/>
<text text-anchor="middle" x="3789.5" y="-119.5" font-family="Helvetica,sans-Serif" font-size="10.00">amxb/amxb_operators.h</text>
</a>
</g>
</g>
<!-- Node2&#45;&gt;Node29 -->
<g id="edge28" class="edge">
<title>Node2&#45;&gt;Node29</title>
<path fill="none" stroke="midnightblue" d="M2421.29,-176.88C2567.5,-176.15 3190.04,-170.82 3711.12,-132.04"/>
<polygon fill="midnightblue" stroke="midnightblue" points="3711.38,-135.53 3721.09,-131.29 3710.86,-128.55 3711.38,-135.53"/>
</g>
<!-- Node30 -->
<g id="node30" class="node">
<title>Node30</title>
<g id="a_node30"><a xlink:title=" ">
<polygon fill="white" stroke="#bfbfbf" points="3875.5,-112.5 3875.5,-131.5 3987.5,-131.5 3987.5,-112.5 3875.5,-112.5"/>
<text text-anchor="middle" x="3931.5" y="-119.5" font-family="Helvetica,sans-Serif" font-size="10.00">amxb/amxb_error.h</text>
</a>
</g>
</g>
<!-- Node2&#45;&gt;Node30 -->
<g id="edge29" class="edge">
<title>Node2&#45;&gt;Node30</title>
<path fill="none" stroke="midnightblue" d="M2421.01,-177.29C2576.71,-178.46 3279.5,-180.71 3864.83,-132.04"/>
<polygon fill="midnightblue" stroke="midnightblue" points="3865.5,-135.5 3875.17,-131.18 3864.91,-128.52 3865.5,-135.5"/>
</g>
<!-- Node31 -->
<g id="node31" class="node">
<title>Node31</title>
<g id="a_node31"><a xlink:title=" ">
<polygon fill="white" stroke="#bfbfbf" points="4006,-112.5 4006,-131.5 4089,-131.5 4089,-112.5 4006,-112.5"/>
<text text-anchor="middle" x="4047.5" y="-119.5" font-family="Helvetica,sans-Serif" font-size="10.00">amxo/amxo.h</text>
</a>
</g>
</g>
<!-- Node2&#45;&gt;Node31 -->
<g id="edge30" class="edge">
<title>Node2&#45;&gt;Node31</title>
<path fill="none" stroke="midnightblue" d="M2421.05,-176.75C2615.47,-175.1 3653.5,-164.94 3995.66,-131.88"/>
<polygon fill="midnightblue" stroke="midnightblue" points="3996.22,-135.34 4005.82,-130.87 3995.52,-128.37 3996.22,-135.34"/>
</g>
<!-- Node32 -->
<g id="node32" class="node">
<title>Node32</title>
<g id="a_node32"><a xlink:title=" ">
<polygon fill="white" stroke="#bfbfbf" points="4107,-112.5 4107,-131.5 4222,-131.5 4222,-112.5 4107,-112.5"/>
<text text-anchor="middle" x="4164.5" y="-119.5" font-family="Helvetica,sans-Serif" font-size="10.00">amxo/amxo_types.h</text>
</a>
</g>
</g>
<!-- Node2&#45;&gt;Node32 -->
<g id="edge31" class="edge">
<title>Node2&#45;&gt;Node32</title>
<path fill="none" stroke="midnightblue" d="M2421.04,-176.64C2622.62,-174.28 3733.52,-160.17 4096.94,-132.02"/>
<polygon fill="midnightblue" stroke="midnightblue" points="4097.26,-135.51 4106.95,-131.22 4096.7,-128.53 4097.26,-135.51"/>
</g>
<!-- Node2&#45;&gt;Node33 -->
<g id="edge32" class="edge">
<title>Node2&#45;&gt;Node33</title>
<path fill="none" stroke="midnightblue" d="M2357.71,-177.14C2117.41,-178.11 590.63,-182.21 392.5,-132 373.62,-127.21 371.17,-120.2 353.5,-112 328.09,-100.21 298.72,-88.07 277.03,-79.37"/>
<polygon fill="midnightblue" stroke="midnightblue" points="278.23,-76.08 267.65,-75.63 275.64,-82.59 278.23,-76.08"/>
</g>
<!-- Node34 -->
<g id="node34" class="node">
<title>Node34</title>
<g id="a_node34"><a xlink:title=" ">
<polygon fill="white" stroke="#bfbfbf" points="81,-0.5 81,-19.5 226,-19.5 226,-0.5 81,-0.5"/>
<text text-anchor="middle" x="153.5" y="-7.5" font-family="Helvetica,sans-Serif" font-size="10.00">swl/types/swl_arrayType.h</text>
</a>
</g>
</g>
<!-- Node2&#45;&gt;Node34 -->
<g id="edge61" class="edge">
<title>Node2&#45;&gt;Node34</title>
<path fill="none" stroke="midnightblue" d="M2357.86,-176.96C2081.54,-176.5 87.33,-171.82 41.5,-132 15.82,-109.69 13.09,-83.93 32.5,-56 43.88,-39.63 61.96,-29.2 80.72,-22.56"/>
<polygon fill="midnightblue" stroke="midnightblue" points="81.79,-25.89 90.25,-19.51 79.66,-19.22 81.79,-25.89"/>
</g>
<!-- Node35 -->
<g id="node35" class="node">
<title>Node35</title>
<g id="a_node35"><a xlink:title=" ">
<polygon fill="white" stroke="#bfbfbf" points="249,-0.5 249,-19.5 410,-19.5 410,-0.5 249,-0.5"/>
<text text-anchor="middle" x="329.5" y="-7.5" font-family="Helvetica,sans-Serif" font-size="10.00">swla/swla_namedTupleType.h</text>
</a>
</g>
</g>
<!-- Node2&#45;&gt;Node35 -->
<g id="edge63" class="edge">
<title>Node2&#45;&gt;Node35</title>
<path fill="none" stroke="midnightblue" d="M2357.99,-177.06C2130.79,-177.42 746.69,-177.7 566.5,-132 480.27,-110.13 389.67,-52.7 350.06,-25.58"/>
<polygon fill="midnightblue" stroke="midnightblue" points="351.76,-22.5 341.55,-19.68 347.77,-28.25 351.76,-22.5"/>
</g>
<!-- Node36 -->
<g id="node36" class="node">
<title>Node36</title>
<g id="a_node36"><a xlink:href="wld__channel__types_8h.html" target="_top" xlink:title=" ">
<polygon fill="white" stroke="black" points="5416,-112.5 5416,-131.5 5535,-131.5 5535,-112.5 5416,-112.5"/>
<text text-anchor="middle" x="5475.5" y="-119.5" font-family="Helvetica,sans-Serif" font-size="10.00">wld_channel_types.h</text>
</a>
</g>
</g>
<!-- Node2&#45;&gt;Node36 -->
<g id="edge37" class="edge">
<title>Node2&#45;&gt;Node36</title>
<path fill="none" stroke="midnightblue" d="M2421.13,-177.03C2701.19,-177.23 4761.15,-177.13 5405.39,-131.96"/>
<polygon fill="midnightblue" stroke="midnightblue" points="5405.98,-135.43 5415.7,-131.23 5405.48,-128.45 5405.98,-135.43"/>
</g>
<!-- Node37 -->
<g id="node37" class="node">
<title>Node37</title>
<g id="a_node37"><a xlink:title=" ">
<polygon fill="white" stroke="#bfbfbf" points="1788,-56.5 1788,-75.5 1913,-75.5 1913,-56.5 1788,-56.5"/>
<text text-anchor="middle" x="1850.5" y="-63.5" font-family="Helvetica,sans-Serif" font-size="10.00">swla/swla_chanspec.h</text>
</a>
</g>
</g>
<!-- Node2&#45;&gt;Node37 -->
<g id="edge55" class="edge">
<title>Node2&#45;&gt;Node37</title>
<path fill="none" stroke="midnightblue" d="M2357.9,-176.81C2120.99,-175.34 631.46,-164.78 599.5,-132 593.29,-125.64 593.33,-118.4 599.5,-112 640.56,-69.43 1516.6,-66.72 1777.69,-66.86"/>
<polygon fill="midnightblue" stroke="midnightblue" points="1777.82,-70.36 1787.82,-66.87 1777.83,-63.36 1777.82,-70.36"/>
</g>
<!-- Node38 -->
<g id="node38" class="node">
<title>Node38</title>
<g id="a_node38"><a xlink:href="wld__bgdfs_8h.html" target="_top" xlink:title=" ">
<polygon fill="white" stroke="black" points="401,-112.5 401,-131.5 476,-131.5 476,-112.5 401,-112.5"/>
<text text-anchor="middle" x="438.5" y="-119.5" font-family="Helvetica,sans-Serif" font-size="10.00">wld_bgdfs.h</text>
</a>
</g>
</g>
<!-- Node2&#45;&gt;Node38 -->
<g id="edge41" class="edge">
<title>Node2&#45;&gt;Node38</title>
<path fill="none" stroke="midnightblue" d="M2358,-176.89C2141.78,-176.05 874.3,-169.55 490.5,-132 489.19,-131.87 487.87,-131.73 486.53,-131.58"/>
<polygon fill="midnightblue" stroke="midnightblue" points="486.56,-128.05 476.18,-130.2 485.63,-134.99 486.56,-128.05"/>
</g>
<!-- Node39 -->
<g id="node39" class="node">
<title>Node39</title>
<g id="a_node39"><a xlink:href="wld__rad__delayMgr_8h.html" target="_top" xlink:title=" ">
<polygon fill="white" stroke="black" points="4240.5,-112.5 4240.5,-131.5 4354.5,-131.5 4354.5,-112.5 4240.5,-112.5"/>
<text text-anchor="middle" x="4297.5" y="-119.5" font-family="Helvetica,sans-Serif" font-size="10.00">wld_rad_delayMgr.h</text>
</a>
</g>
</g>
<!-- Node2&#45;&gt;Node39 -->
<g id="edge43" class="edge">
<title>Node2&#45;&gt;Node39</title>
<path fill="none" stroke="midnightblue" d="M2421.24,-176.69C2633.79,-174.59 3851.62,-161.73 4222.5,-132 4225.02,-131.8 4227.59,-131.56 4230.2,-131.31"/>
<polygon fill="midnightblue" stroke="midnightblue" points="4230.77,-134.77 4240.33,-130.21 4230.01,-127.81 4230.77,-134.77"/>
</g>
<!-- Node40 -->
<g id="node40" class="node">
<title>Node40</title>
<g id="a_node40"><a xlink:href="wld__fsm_8h.html" target="_top" xlink:title=" ">
<polygon fill="white" stroke="black" points="192,-112.5 192,-131.5 259,-131.5 259,-112.5 192,-112.5"/>
<text text-anchor="middle" x="225.5" y="-119.5" font-family="Helvetica,sans-Serif" font-size="10.00">wld_fsm.h</text>
</a>
</g>
</g>
<!-- Node2&#45;&gt;Node40 -->
<g id="edge45" class="edge">
<title>Node2&#45;&gt;Node40</title>
<path fill="none" stroke="midnightblue" d="M2357.7,-177.13C2128.09,-177.97 720.01,-181.08 269.35,-131.81"/>
<polygon fill="midnightblue" stroke="midnightblue" points="269.53,-128.31 259.21,-130.67 268.75,-135.26 269.53,-128.31"/>
</g>
<!-- Node41 -->
<g id="node41" class="node">
<title>Node41</title>
<g id="a_node41"><a xlink:href="wld__sensing_8h.html" target="_top" xlink:title=" ">
<polygon fill="white" stroke="black" points="4372.5,-112.5 4372.5,-131.5 4458.5,-131.5 4458.5,-112.5 4372.5,-112.5"/>
<text text-anchor="middle" x="4415.5" y="-119.5" font-family="Helvetica,sans-Serif" font-size="10.00">wld_sensing.h</text>
</a>
</g>
</g>
<!-- Node2&#45;&gt;Node41 -->
<g id="edge47" class="edge">
<title>Node2&#45;&gt;Node41</title>
<path fill="none" stroke="midnightblue" d="M2421.16,-176.92C2642.22,-176.26 3956.17,-170.79 4354.5,-132 4357.01,-131.76 4359.59,-131.46 4362.19,-131.12"/>
<polygon fill="midnightblue" stroke="midnightblue" points="4362.92,-134.56 4372.33,-129.68 4361.93,-127.63 4362.92,-134.56"/>
</g>
<!-- Node42 -->
<g id="node42" class="node">
<title>Node42</title>
<g id="a_node42"><a xlink:href="wld__mld_8h.html" target="_top" xlink:title=" ">
<polygon fill="white" stroke="black" points="277,-112.5 277,-131.5 344,-131.5 344,-112.5 277,-112.5"/>
<text text-anchor="middle" x="310.5" y="-119.5" font-family="Helvetica,sans-Serif" font-size="10.00">wld_mld.h</text>
</a>
</g>
</g>
<!-- Node2&#45;&gt;Node42 -->
<g id="edge49" class="edge">
<title>Node2&#45;&gt;Node42</title>
<path fill="none" stroke="midnightblue" d="M2357.99,-177.01C2133.22,-176.95 770.03,-174.85 358.5,-132 357.2,-131.86 355.87,-131.71 354.54,-131.55"/>
<polygon fill="midnightblue" stroke="midnightblue" points="354.63,-128.02 344.23,-130.04 353.62,-134.95 354.63,-128.02"/>
</g>
<!-- Node43 -->
<g id="node43" class="node">
<title>Node43</title>
<g id="a_node43"><a xlink:href="wld__autoCommitRadData_8h.html" target="_top" xlink:title=" ">
<polygon fill="white" stroke="black" points="4476.5,-112.5 4476.5,-131.5 4652.5,-131.5 4652.5,-112.5 4476.5,-112.5"/>
<text text-anchor="middle" x="4564.5" y="-119.5" font-family="Helvetica,sans-Serif" font-size="10.00">Utils/wld_autoCommitRadData.h</text>
</a>
</g>
</g>
<!-- Node2&#45;&gt;Node43 -->
<g id="edge51" class="edge">
<title>Node2&#45;&gt;Node43</title>
<path fill="none" stroke="midnightblue" d="M2421.27,-177.16C2612.23,-177.93 3627.08,-179.55 4466.32,-132.02"/>
<polygon fill="midnightblue" stroke="midnightblue" points="4466.71,-135.5 4476.49,-131.44 4466.31,-128.51 4466.71,-135.5"/>
</g>
<!-- Node44 -->
<g id="node44" class="node">
<title>Node44</title>
<g id="a_node44"><a xlink:href="wld__dmnMgt_8h.html" target="_top" xlink:title=" ">
<polygon fill="white" stroke="red" points="59.5,-112.5 59.5,-131.5 173.5,-131.5 173.5,-112.5 59.5,-112.5"/>
<text text-anchor="middle" x="116.5" y="-119.5" font-family="Helvetica,sans-Serif" font-size="10.00">Utils/wld_dmnMgt.h</text>
</a>
</g>
</g>
<!-- Node2&#45;&gt;Node44 -->
<g id="edge52" class="edge">
<title>Node2&#45;&gt;Node44</title>
<path fill="none" stroke="midnightblue" d="M2357.96,-176.86C2123.97,-175.72 654.15,-167.27 183.94,-131.99"/>
<polygon fill="midnightblue" stroke="midnightblue" points="183.93,-128.48 173.69,-131.21 183.4,-135.46 183.93,-128.48"/>
</g>
<!-- Node46 -->
<g id="node45" class="node">
<title>Node46</title>
<g id="a_node45"><a xlink:title=" ">
<polygon fill="white" stroke="#bfbfbf" points="4671,-112.5 4671,-131.5 4772,-131.5 4772,-112.5 4671,-112.5"/>
<text text-anchor="middle" x="4721.5" y="-119.5" font-family="Helvetica,sans-Serif" font-size="10.00">swl/swl_staCap.h</text>
</a>
</g>
</g>
<!-- Node2&#45;&gt;Node46 -->
<g id="edge56" class="edge">
<title>Node2&#45;&gt;Node46</title>
<path fill="none" stroke="midnightblue" d="M2421.2,-176.94C2659.71,-176.36 4176.42,-171.25 4660.62,-131.92"/>
<polygon fill="midnightblue" stroke="midnightblue" points="4661.14,-135.39 4670.82,-131.07 4660.56,-128.41 4661.14,-135.39"/>
</g>
<!-- Node47 -->
<g id="node46" class="node">
<title>Node47</title>
<g id="a_node46"><a xlink:title=" ">
<polygon fill="white" stroke="#bfbfbf" points="4790.5,-112.5 4790.5,-131.5 4894.5,-131.5 4894.5,-112.5 4790.5,-112.5"/>
<text text-anchor="middle" x="4842.5" y="-119.5" font-family="Helvetica,sans-Serif" font-size="10.00">swla/swla_table.h</text>
</a>
</g>
</g>
<!-- Node2&#45;&gt;Node47 -->
<g id="edge57" class="edge">
<title>Node2&#45;&gt;Node47</title>
<path fill="none" stroke="midnightblue" d="M2421.28,-176.96C2667.26,-176.58 4271.2,-172.56 4780.32,-131.96"/>
<polygon fill="midnightblue" stroke="midnightblue" points="4780.62,-135.45 4790.31,-131.15 4780.06,-128.47 4780.62,-135.45"/>
</g>
<!-- Node48 -->
<g id="node47" class="node">
<title>Node48</title>
<g id="a_node47"><a xlink:title=" ">
<polygon fill="white" stroke="#bfbfbf" points="4913,-112.5 4913,-131.5 5010,-131.5 5010,-112.5 4913,-112.5"/>
<text text-anchor="middle" x="4961.5" y="-119.5" font-family="Helvetica,sans-Serif" font-size="10.00">swl/swl_assert.h</text>
</a>
</g>
</g>
<!-- Node2&#45;&gt;Node48 -->
<g id="edge58" class="edge">
<title>Node2&#45;&gt;Node48</title>
<path fill="none" stroke="midnightblue" d="M2421.27,-177.03C2674.32,-177.16 4366.98,-176.35 4902.7,-131.9"/>
<polygon fill="midnightblue" stroke="midnightblue" points="4903.15,-135.38 4912.82,-131.04 4902.56,-128.4 4903.15,-135.38"/>
</g>
<!-- Node49 -->
<g id="node48" class="node">
<title>Node49</title>
<g id="a_node48"><a xlink:title=" ">
<polygon fill="white" stroke="#bfbfbf" points="5028,-112.5 5028,-131.5 5149,-131.5 5149,-112.5 5028,-112.5"/>
<text text-anchor="middle" x="5088.5" y="-119.5" font-family="Helvetica,sans-Serif" font-size="10.00">swl/swl_returnCode.h</text>
</a>
</g>
</g>
<!-- Node2&#45;&gt;Node49 -->
<g id="edge59" class="edge">
<title>Node2&#45;&gt;Node49</title>
<path fill="none" stroke="midnightblue" d="M2421.06,-176.95C2679.92,-176.47 4457.35,-171.79 5017.77,-132.03"/>
<polygon fill="midnightblue" stroke="midnightblue" points="5018.24,-135.5 5027.96,-131.29 5017.73,-128.52 5018.24,-135.5"/>
</g>
<!-- Node50 -->
<g id="node49" class="node">
<title>Node50</title>
<g id="a_node49"><a xlink:title=" ">
<polygon fill="white" stroke="#bfbfbf" points="5167.5,-112.5 5167.5,-131.5 5293.5,-131.5 5293.5,-112.5 5167.5,-112.5"/>
<text text-anchor="middle" x="5230.5" y="-119.5" font-family="Helvetica,sans-Serif" font-size="10.00">swla/swla_tupleType.h</text>
</a>
</g>
</g>
<!-- Node2&#45;&gt;Node50 -->
<g id="edge60" class="edge">
<title>Node2&#45;&gt;Node50</title>
<path fill="none" stroke="midnightblue" d="M2421.02,-176.96C2687.37,-176.54 4566.17,-172.2 5157.01,-132"/>
<polygon fill="midnightblue" stroke="midnightblue" points="5157.59,-135.47 5167.32,-131.29 5157.1,-128.49 5157.59,-135.47"/>
</g>
<!-- Node51 -->
<g id="node50" class="node">
<title>Node51</title>
<g id="a_node50"><a xlink:title=" ">
<polygon fill="white" stroke="#bfbfbf" points="5311.5,-112.5 5311.5,-131.5 5397.5,-131.5 5397.5,-112.5 5311.5,-112.5"/>
<text text-anchor="middle" x="5354.5" y="-119.5" font-family="Helvetica,sans-Serif" font-size="10.00">swl/swl_mlo.h</text>
</a>
</g>
</g>
<!-- Node2&#45;&gt;Node51 -->
<g id="edge62" class="edge">
<title>Node2&#45;&gt;Node51</title>
<path fill="none" stroke="midnightblue" d="M2421.41,-176.81C2715.76,-175.02 4954.69,-160.52 5301.28,-131.88"/>
<polygon fill="midnightblue" stroke="midnightblue" points="5301.78,-135.35 5311.44,-130.99 5301.17,-128.38 5301.78,-135.35"/>
</g>
<!-- Node33&#45;&gt;Node4 -->
<g id="edge33" class="edge">
<title>Node33&#45;&gt;Node4</title>
<path fill="none" stroke="midnightblue" d="M210.8,-56.44C170.44,-46.49 104.11,-30.14 62.99,-20"/>
<polygon fill="midnightblue" stroke="midnightblue" points="63.66,-16.56 53.12,-17.56 61.99,-23.36 63.66,-16.56"/>
</g>
<!-- Node33&#45;&gt;Node9 -->
<g id="edge36" class="edge">
<title>Node33&#45;&gt;Node9</title>
<path fill="none" stroke="midnightblue" d="M283.12,-58.16C334.24,-48.86 426.11,-32.16 485.67,-21.33"/>
<polygon fill="midnightblue" stroke="midnightblue" points="486.46,-24.75 495.67,-19.51 485.2,-17.86 486.46,-24.75"/>
</g>
<!-- Node33&#45;&gt;Node34 -->
<g id="edge34" class="edge">
<title>Node33&#45;&gt;Node34</title>
<path fill="none" stroke="midnightblue" d="M230.72,-56.32C216.23,-47.82 193.93,-34.73 177.01,-24.8"/>
<polygon fill="midnightblue" stroke="midnightblue" points="178.64,-21.7 168.24,-19.65 175.1,-27.74 178.64,-21.7"/>
</g>
<!-- Node33&#45;&gt;Node35 -->
<g id="edge35" class="edge">
<title>Node33&#45;&gt;Node35</title>
<path fill="none" stroke="midnightblue" d="M259,-56.32C272.1,-47.9 292.21,-34.97 307.61,-25.07"/>
<polygon fill="midnightblue" stroke="midnightblue" points="309.52,-28.01 316.04,-19.65 305.73,-22.12 309.52,-28.01"/>
</g>
<!-- Node36&#45;&gt;Node3 -->
<g id="edge38" class="edge">
<title>Node36&#45;&gt;Node3</title>
<path fill="none" stroke="midnightblue" d="M5482.77,-112.08C5489.04,-104.38 5498.29,-93.03 5505.93,-83.65"/>
<polygon fill="midnightblue" stroke="midnightblue" points="5508.77,-85.71 5512.37,-75.75 5503.34,-81.29 5508.77,-85.71"/>
</g>
<!-- Node36&#45;&gt;Node9 -->
<g id="edge40" class="edge">
<title>Node36&#45;&gt;Node9</title>
<path fill="none" stroke="midnightblue" d="M5415.7,-112.8C5412.59,-112.5 5409.51,-112.23 5406.5,-112 4408.98,-36.81 1093.1,-14.29 603.19,-11.35"/>
<polygon fill="midnightblue" stroke="midnightblue" points="603.17,-7.85 593.14,-11.29 603.12,-14.85 603.17,-7.85"/>
</g>
<!-- Node36&#45;&gt;Node37 -->
<g id="edge39" class="edge">
<title>Node36&#45;&gt;Node37</title>
<path fill="none" stroke="midnightblue" d="M5415.7,-112.77C5412.59,-112.47 5409.51,-112.21 5406.5,-112 4694.07,-61.2 2364.83,-65.47 1923.16,-66.76"/>
<polygon fill="midnightblue" stroke="midnightblue" points="1923.06,-63.26 1913.07,-66.79 1923.09,-70.26 1923.06,-63.26"/>
</g>
<!-- Node38&#45;&gt;Node33 -->
<g id="edge42" class="edge">
<title>Node38&#45;&gt;Node33</title>
<path fill="none" stroke="midnightblue" d="M407.92,-112.44C374.89,-103.2 322.11,-88.44 285.73,-78.26"/>
<polygon fill="midnightblue" stroke="midnightblue" points="286.51,-74.84 275.94,-75.52 284.63,-81.58 286.51,-74.84"/>
</g>
<!-- Node39&#45;&gt;Node2 -->
<g id="edge44" class="edge">
<title>Node39&#45;&gt;Node2</title>
<path fill="none" stroke="midnightblue" d="M4246.1,-131.51C4244.22,-131.69 4242.34,-131.85 4240.5,-132 3872.5,-161.49 2670.66,-174.38 2431.18,-176.64"/>
<polygon fill="midnightblue" stroke="midnightblue" points="2431.11,-173.14 2421.15,-176.73 2431.18,-180.14 2431.11,-173.14"/>
</g>
<!-- Node40&#45;&gt;Node33 -->
<g id="edge46" class="edge">
<title>Node40&#45;&gt;Node33</title>
<path fill="none" stroke="midnightblue" d="M228.8,-112.08C231.48,-104.85 235.35,-94.41 238.69,-85.4"/>
<polygon fill="midnightblue" stroke="midnightblue" points="242.07,-86.34 242.26,-75.75 235.5,-83.91 242.07,-86.34"/>
</g>
<!-- Node41&#45;&gt;Node2 -->
<g id="edge48" class="edge">
<title>Node41&#45;&gt;Node2</title>
<path fill="none" stroke="midnightblue" d="M4376.93,-131.52C4375.44,-131.7 4373.96,-131.86 4372.5,-132 3977.29,-170.49 2680.74,-176.17 2431.21,-176.9"/>
<polygon fill="midnightblue" stroke="midnightblue" points="2431.11,-173.4 2421.12,-176.93 2431.13,-180.4 2431.11,-173.4"/>
</g>
<!-- Node42&#45;&gt;Node33 -->
<g id="edge50" class="edge">
<title>Node42&#45;&gt;Node33</title>
<path fill="none" stroke="midnightblue" d="M300.06,-112.32C290.35,-104.26 275.68,-92.08 264,-82.37"/>
<polygon fill="midnightblue" stroke="midnightblue" points="266.06,-79.53 256.13,-75.83 261.59,-84.92 266.06,-79.53"/>
</g>
<!-- Node44&#45;&gt;Node5 -->
<g id="edge53" class="edge">
<title>Node44&#45;&gt;Node5</title>
<path fill="none" stroke="midnightblue" d="M113.2,-112.08C110.52,-104.85 106.65,-94.41 103.31,-85.4"/>
<polygon fill="midnightblue" stroke="midnightblue" points="106.5,-83.91 99.74,-75.75 99.93,-86.34 106.5,-83.91"/>
</g>
<!-- Node44&#45;&gt;Node33 -->
<g id="edge54" class="edge">
<title>Node44&#45;&gt;Node33</title>
<path fill="none" stroke="midnightblue" d="M136.94,-112.44C158.17,-103.56 191.6,-89.56 215.75,-79.45"/>
<polygon fill="midnightblue" stroke="midnightblue" points="217.28,-82.61 225.16,-75.52 214.58,-76.15 217.28,-82.61"/>
</g>
</g>
</svg>
