<?xml version="1.0" encoding="UTF-8" standalone="no"?>
<!DOCTYPE svg PUBLIC "-//W3C//DTD SVG 1.1//EN"
 "http://www.w3.org/Graphics/SVG/1.1/DTD/svg11.dtd">
<!-- Generated by graphviz version 2.43.0 (0)
 -->
<!-- Title: getShortCountryName Pages: 1 -->
<svg width="330pt" height="66pt"
 viewBox="0.00 0.00 330.00 66.00" xmlns="http://www.w3.org/2000/svg" xmlns:xlink="http://www.w3.org/1999/xlink">
<g id="graph0" class="graph" transform="scale(1 1) rotate(0) translate(4 62)">
<title>getShortCountryName</title>
<polygon fill="white" stroke="transparent" points="-4,4 -4,-62 326,-62 326,4 -4,4"/>
<!-- Node1 -->
<g id="node1" class="node">
<title>Node1</title>
<g id="a_node1"><a xlink:title=" ">
<polygon fill="#bfbfbf" stroke="black" points="197,-19.5 197,-38.5 322,-38.5 322,-19.5 197,-19.5"/>
<text text-anchor="middle" x="259.5" y="-26.5" font-family="Helvetica,sans-Serif" font-size="10.00">getShortCountryName</text>
</a>
</g>
</g>
<!-- Node2 -->
<g id="node2" class="node">
<title>Node2</title>
<g id="a_node2"><a xlink:href="wifiGen__rad_8c.html#aa2e0292b4ea755002c53ad76b381543e" target="_top" xlink:title=" ">
<polygon fill="white" stroke="black" points="13.5,-38.5 13.5,-57.5 147.5,-57.5 147.5,-38.5 13.5,-38.5"/>
<text text-anchor="middle" x="80.5" y="-45.5" font-family="Helvetica,sans-Serif" font-size="10.00">wifiGen_rad_regDomain</text>
</a>
</g>
</g>
<!-- Node1&#45;&gt;Node2 -->
<g id="edge1" class="edge">
<title>Node1&#45;&gt;Node2</title>
<path fill="none" stroke="midnightblue" d="M186.42,-36.74C173.57,-38.12 160.25,-39.55 147.59,-40.91"/>
<polygon fill="midnightblue" stroke="midnightblue" points="187.02,-40.19 196.59,-35.65 186.28,-33.23 187.02,-40.19"/>
</g>
<!-- Node3 -->
<g id="node3" class="node">
<title>Node3</title>
<g id="a_node3"><a xlink:href="wld__th__radio_8c.html#a72a6cc0f8a70d711d18d9167ef1ffbef" target="_top" xlink:title=" ">
<polygon fill="white" stroke="black" points="0,-0.5 0,-19.5 161,-19.5 161,-0.5 0,-0.5"/>
<text text-anchor="middle" x="80.5" y="-7.5" font-family="Helvetica,sans-Serif" font-size="10.00">wld_th_mfn_wrad_regdomain</text>
</a>
</g>
</g>
<!-- Node1&#45;&gt;Node3 -->
<g id="edge2" class="edge">
<title>Node1&#45;&gt;Node3</title>
<path fill="none" stroke="midnightblue" d="M186.51,-21.27C178.14,-20.37 169.57,-19.45 161.1,-18.55"/>
<polygon fill="midnightblue" stroke="midnightblue" points="186.28,-24.77 196.59,-22.35 187.02,-17.81 186.28,-24.77"/>
</g>
</g>
</svg>
