<?xml version="1.0" encoding="UTF-8" standalone="no"?>
<!DOCTYPE svg PUBLIC "-//W3C//DTD SVG 1.1//EN"
 "http://www.w3.org/Graphics/SVG/1.1/DTD/svg11.dtd">
<!-- Generated by graphviz version 2.43.0 (0)
 -->
<!-- Title: src/Utils/wld_linuxIfUtils.c Pages: 1 -->
<svg width="4896pt" height="252pt"
 viewBox="0.00 0.00 4895.74 252.00" xmlns="http://www.w3.org/2000/svg" xmlns:xlink="http://www.w3.org/1999/xlink">
<g id="graph0" class="graph" transform="scale(1 1) rotate(0) translate(4 248)">
<title>src/Utils/wld_linuxIfUtils.c</title>
<polygon fill="white" stroke="transparent" points="-4,4 -4,-248 4891.74,-248 4891.74,4 -4,4"/>
<!-- Node1 -->
<g id="node1" class="node">
<title>Node1</title>
<g id="a_node1"><a xlink:title=" ">
<polygon fill="#bfbfbf" stroke="black" points="2819.6,-224.5 2819.6,-243.5 2962.6,-243.5 2962.6,-224.5 2819.6,-224.5"/>
<text text-anchor="middle" x="2891.1" y="-231.5" font-family="Helvetica,sans-Serif" font-size="10.00">src/Utils/wld_linuxIfUtils.c</text>
</a>
</g>
</g>
<!-- Node2 -->
<g id="node2" class="node">
<title>Node2</title>
<g id="a_node2"><a xlink:title=" ">
<polygon fill="white" stroke="#bfbfbf" points="2528.1,-168.5 2528.1,-187.5 2584.1,-187.5 2584.1,-168.5 2528.1,-168.5"/>
<text text-anchor="middle" x="2556.1" y="-175.5" font-family="Helvetica,sans-Serif" font-size="10.00">unistd.h</text>
</a>
</g>
</g>
<!-- Node1&#45;&gt;Node2 -->
<g id="edge1" class="edge">
<title>Node1&#45;&gt;Node2</title>
<path fill="none" stroke="midnightblue" d="M2824.19,-224.46C2763.82,-216.38 2672.69,-203.23 2594.1,-188 2594,-187.98 2593.9,-187.96 2593.8,-187.94"/>
<polygon fill="midnightblue" stroke="midnightblue" points="2594.77,-184.57 2584.27,-185.94 2593.34,-191.42 2594.77,-184.57"/>
</g>
<!-- Node3 -->
<g id="node3" class="node">
<title>Node3</title>
<g id="a_node3"><a xlink:title=" ">
<polygon fill="white" stroke="#bfbfbf" points="2602.6,-168.5 2602.6,-187.5 2653.6,-187.5 2653.6,-168.5 2602.6,-168.5"/>
<text text-anchor="middle" x="2628.1" y="-175.5" font-family="Helvetica,sans-Serif" font-size="10.00">errno.h</text>
</a>
</g>
</g>
<!-- Node1&#45;&gt;Node3 -->
<g id="edge2" class="edge">
<title>Node1&#45;&gt;Node3</title>
<path fill="none" stroke="midnightblue" d="M2843.78,-224.47C2799.72,-216.35 2731.99,-203.4 2663.75,-188.04"/>
<polygon fill="midnightblue" stroke="midnightblue" points="2664.2,-184.55 2653.68,-185.75 2662.65,-191.38 2664.2,-184.55"/>
</g>
<!-- Node4 -->
<g id="node4" class="node">
<title>Node4</title>
<g id="a_node4"><a xlink:title=" ">
<polygon fill="white" stroke="#bfbfbf" points="2671.6,-168.5 2671.6,-187.5 2748.6,-187.5 2748.6,-168.5 2671.6,-168.5"/>
<text text-anchor="middle" x="2710.1" y="-175.5" font-family="Helvetica,sans-Serif" font-size="10.00">sys/socket.h</text>
</a>
</g>
</g>
<!-- Node1&#45;&gt;Node4 -->
<g id="edge3" class="edge">
<title>Node1&#45;&gt;Node4</title>
<path fill="none" stroke="midnightblue" d="M2862.42,-224.44C2831.58,-215.24 2782.37,-200.56 2748.27,-190.39"/>
<polygon fill="midnightblue" stroke="midnightblue" points="2749.23,-187.02 2738.65,-187.52 2747.23,-193.73 2749.23,-187.02"/>
</g>
<!-- Node5 -->
<g id="node5" class="node">
<title>Node5</title>
<g id="a_node5"><a xlink:title=" ">
<polygon fill="white" stroke="#bfbfbf" points="2767.1,-168.5 2767.1,-187.5 2833.1,-187.5 2833.1,-168.5 2767.1,-168.5"/>
<text text-anchor="middle" x="2800.1" y="-175.5" font-family="Helvetica,sans-Serif" font-size="10.00">sys/ioctl.h</text>
</a>
</g>
</g>
<!-- Node1&#45;&gt;Node5 -->
<g id="edge4" class="edge">
<title>Node1&#45;&gt;Node5</title>
<path fill="none" stroke="midnightblue" d="M2876.48,-224.32C2862.15,-215.82 2840.09,-202.73 2823.35,-192.8"/>
<polygon fill="midnightblue" stroke="midnightblue" points="2825.07,-189.75 2814.69,-187.65 2821.5,-195.77 2825.07,-189.75"/>
</g>
<!-- Node6 -->
<g id="node6" class="node">
<title>Node6</title>
<g id="a_node6"><a xlink:title=" ">
<polygon fill="white" stroke="#bfbfbf" points="2851.1,-168.5 2851.1,-187.5 2931.1,-187.5 2931.1,-168.5 2851.1,-168.5"/>
<text text-anchor="middle" x="2891.1" y="-175.5" font-family="Helvetica,sans-Serif" font-size="10.00">linux/if_arp.h</text>
</a>
</g>
</g>
<!-- Node1&#45;&gt;Node6 -->
<g id="edge5" class="edge">
<title>Node1&#45;&gt;Node6</title>
<path fill="none" stroke="midnightblue" d="M2891.1,-224.08C2891.1,-217.01 2891.1,-206.86 2891.1,-197.99"/>
<polygon fill="midnightblue" stroke="midnightblue" points="2894.6,-197.75 2891.1,-187.75 2887.6,-197.75 2894.6,-197.75"/>
</g>
<!-- Node7 -->
<g id="node7" class="node">
<title>Node7</title>
<g id="a_node7"><a xlink:title=" ">
<polygon fill="white" stroke="#bfbfbf" points="4757.1,-56.5 4757.1,-75.5 4867.1,-75.5 4867.1,-56.5 4757.1,-56.5"/>
<text text-anchor="middle" x="4812.1" y="-63.5" font-family="Helvetica,sans-Serif" font-size="10.00">swl/swl_common.h</text>
</a>
</g>
</g>
<!-- Node1&#45;&gt;Node7 -->
<g id="edge6" class="edge">
<title>Node1&#45;&gt;Node7</title>
<path fill="none" stroke="midnightblue" d="M2962.64,-232.05C3307.84,-227.11 4787.69,-201.92 4854.1,-132 4868.58,-116.76 4849.69,-95.88 4832.8,-81.94"/>
<polygon fill="midnightblue" stroke="midnightblue" points="4834.86,-79.11 4824.82,-75.71 4830.55,-84.62 4834.86,-79.11"/>
</g>
<!-- Node8 -->
<g id="node8" class="node">
<title>Node8</title>
<g id="a_node8"><a xlink:title=" ">
<polygon fill="white" stroke="#bfbfbf" points="3011.1,-168.5 3011.1,-187.5 3111.1,-187.5 3111.1,-168.5 3011.1,-168.5"/>
<text text-anchor="middle" x="3061.1" y="-175.5" font-family="Helvetica,sans-Serif" font-size="10.00">swla/swla_mac.h</text>
</a>
</g>
</g>
<!-- Node1&#45;&gt;Node8 -->
<g id="edge7" class="edge">
<title>Node1&#45;&gt;Node8</title>
<path fill="none" stroke="midnightblue" d="M2918.04,-224.44C2946.76,-215.32 2992.43,-200.81 3024.42,-190.65"/>
<polygon fill="midnightblue" stroke="midnightblue" points="3025.82,-193.88 3034.29,-187.52 3023.7,-187.21 3025.82,-193.88"/>
</g>
<!-- Node9 -->
<g id="node9" class="node">
<title>Node9</title>
<g id="a_node9"><a xlink:title=" ">
<polygon fill="white" stroke="#bfbfbf" points="3129.6,-168.5 3129.6,-187.5 3224.6,-187.5 3224.6,-168.5 3129.6,-168.5"/>
<text text-anchor="middle" x="3177.1" y="-175.5" font-family="Helvetica,sans-Serif" font-size="10.00">swl/swl_string.h</text>
</a>
</g>
</g>
<!-- Node1&#45;&gt;Node9 -->
<g id="edge8" class="edge">
<title>Node1&#45;&gt;Node9</title>
<path fill="none" stroke="midnightblue" d="M2936.42,-224.44C2986.73,-214.94 3067.94,-199.61 3121.92,-189.42"/>
<polygon fill="midnightblue" stroke="midnightblue" points="3122.82,-192.81 3132,-187.52 3121.52,-185.93 3122.82,-192.81"/>
</g>
<!-- Node10 -->
<g id="node10" class="node">
<title>Node10</title>
<g id="a_node10"><a xlink:href="wld_8h.html" target="_top" xlink:title=" ">
<polygon fill="white" stroke="red" points="2949.6,-168.5 2949.6,-187.5 2992.6,-187.5 2992.6,-168.5 2949.6,-168.5"/>
<text text-anchor="middle" x="2971.1" y="-175.5" font-family="Helvetica,sans-Serif" font-size="10.00">wld.h</text>
</a>
</g>
</g>
<!-- Node1&#45;&gt;Node10 -->
<g id="edge9" class="edge">
<title>Node1&#45;&gt;Node10</title>
<path fill="none" stroke="midnightblue" d="M2903.96,-224.32C2916.32,-215.98 2935.23,-203.21 2949.84,-193.35"/>
<polygon fill="midnightblue" stroke="midnightblue" points="2951.95,-196.15 2958.28,-187.65 2948.03,-190.35 2951.95,-196.15"/>
</g>
<!-- Node10&#45;&gt;Node7 -->
<g id="edge12" class="edge">
<title>Node10&#45;&gt;Node7</title>
<path fill="none" stroke="midnightblue" d="M2992.62,-169.97C2995.77,-169.17 2999,-168.47 3002.1,-168 3052.53,-160.32 4802.39,-168.42 4838.1,-132 4851.19,-118.65 4839.17,-97.88 4827.48,-83.42"/>
<polygon fill="midnightblue" stroke="midnightblue" points="4830.02,-81.01 4820.83,-75.74 4824.73,-85.59 4830.02,-81.01"/>
</g>
<!-- Node11 -->
<g id="node11" class="node">
<title>Node11</title>
<g id="a_node11"><a xlink:title=" ">
<polygon fill="white" stroke="#bfbfbf" points="3022.1,-56.5 3022.1,-75.5 3084.1,-75.5 3084.1,-56.5 3022.1,-56.5"/>
<text text-anchor="middle" x="3053.1" y="-63.5" font-family="Helvetica,sans-Serif" font-size="10.00">stdbool.h</text>
</a>
</g>
</g>
<!-- Node10&#45;&gt;Node11 -->
<g id="edge10" class="edge">
<title>Node10&#45;&gt;Node11</title>
<path fill="none" stroke="midnightblue" d="M2992.63,-170.04C2995.78,-169.23 2999.01,-168.51 3002.1,-168 3046.44,-160.68 3779.05,-164.47 3810.1,-132 3816.25,-125.58 3816.2,-118.47 3810.1,-112 3785.39,-85.77 3249.12,-71.49 3094.49,-67.91"/>
<polygon fill="midnightblue" stroke="midnightblue" points="3094.52,-64.41 3084.45,-67.68 3094.36,-71.4 3094.52,-64.41"/>
</g>
<!-- Node12 -->
<g id="node12" class="node">
<title>Node12</title>
<g id="a_node12"><a xlink:title=" ">
<polygon fill="white" stroke="#bfbfbf" points="4524.6,-0.5 4524.6,-19.5 4577.6,-19.5 4577.6,-0.5 4524.6,-0.5"/>
<text text-anchor="middle" x="4551.1" y="-7.5" font-family="Helvetica,sans-Serif" font-size="10.00">stdint.h</text>
</a>
</g>
</g>
<!-- Node10&#45;&gt;Node12 -->
<g id="edge11" class="edge">
<title>Node10&#45;&gt;Node12</title>
<path fill="none" stroke="midnightblue" d="M2992.62,-169.97C2995.77,-169.17 2999,-168.47 3002.1,-168 3103.84,-152.52 4769.63,-190.78 4854.1,-132 4882.97,-111.91 4899.2,-82.52 4876.1,-56 4839.07,-13.49 4665.01,-9.82 4587.96,-10.33"/>
<polygon fill="midnightblue" stroke="midnightblue" points="4587.72,-6.84 4577.75,-10.43 4587.79,-13.84 4587.72,-6.84"/>
</g>
<!-- Node13 -->
<g id="node13" class="node">
<title>Node13</title>
<g id="a_node13"><a xlink:title=" ">
<polygon fill="white" stroke="#bfbfbf" points="17.1,-112.5 17.1,-131.5 153.1,-131.5 153.1,-112.5 17.1,-112.5"/>
<text text-anchor="middle" x="85.1" y="-119.5" font-family="Helvetica,sans-Serif" font-size="10.00">swla/swla_commonLib.h</text>
</a>
</g>
</g>
<!-- Node10&#45;&gt;Node13 -->
<g id="edge13" class="edge">
<title>Node10&#45;&gt;Node13</title>
<path fill="none" stroke="midnightblue" d="M2949.59,-169.95C2946.44,-169.15 2943.21,-168.46 2940.1,-168 2637.83,-123.01 513.3,-151.36 163.56,-131.97"/>
<polygon fill="midnightblue" stroke="midnightblue" points="163.69,-128.47 153.5,-131.37 163.28,-135.46 163.69,-128.47"/>
</g>
<!-- Node14 -->
<g id="node14" class="node">
<title>Node14</title>
<g id="a_node14"><a xlink:title=" ">
<polygon fill="white" stroke="#bfbfbf" points="171.1,-112.5 171.1,-131.5 259.1,-131.5 259.1,-112.5 171.1,-112.5"/>
<text text-anchor="middle" x="215.1" y="-119.5" font-family="Helvetica,sans-Serif" font-size="10.00">swl/swl_uuid.h</text>
</a>
</g>
</g>
<!-- Node10&#45;&gt;Node14 -->
<g id="edge14" class="edge">
<title>Node10&#45;&gt;Node14</title>
<path fill="none" stroke="midnightblue" d="M2949.59,-169.95C2946.44,-169.15 2943.21,-168.46 2940.1,-168 2649.52,-124.67 607.32,-158.21 269.46,-131.89"/>
<polygon fill="midnightblue" stroke="midnightblue" points="269.54,-128.38 259.28,-131.03 268.95,-135.36 269.54,-128.38"/>
</g>
<!-- Node15 -->
<g id="node15" class="node">
<title>Node15</title>
<g id="a_node15"><a xlink:title=" ">
<polygon fill="white" stroke="#bfbfbf" points="277.1,-112.5 277.1,-131.5 429.1,-131.5 429.1,-112.5 277.1,-112.5"/>
<text text-anchor="middle" x="353.1" y="-119.5" font-family="Helvetica,sans-Serif" font-size="10.00">swla/swla_radioStandards.h</text>
</a>
</g>
</g>
<!-- Node10&#45;&gt;Node15 -->
<g id="edge15" class="edge">
<title>Node10&#45;&gt;Node15</title>
<path fill="none" stroke="midnightblue" d="M2949.59,-169.95C2946.44,-169.16 2943.21,-168.46 2940.1,-168 2668.22,-127.33 759.21,-148.17 439.8,-131.99"/>
<polygon fill="midnightblue" stroke="midnightblue" points="439.71,-128.48 429.53,-131.42 439.32,-135.47 439.71,-128.48"/>
</g>
<!-- Node16 -->
<g id="node16" class="node">
<title>Node16</title>
<g id="a_node16"><a xlink:title=" ">
<polygon fill="white" stroke="#bfbfbf" points="456.6,-0.5 456.6,-19.5 557.6,-19.5 557.6,-0.5 456.6,-0.5"/>
<text text-anchor="middle" x="507.1" y="-7.5" font-family="Helvetica,sans-Serif" font-size="10.00">swla/swla_time.h</text>
</a>
</g>
</g>
<!-- Node10&#45;&gt;Node16 -->
<g id="edge16" class="edge">
<title>Node10&#45;&gt;Node16</title>
<path fill="none" stroke="midnightblue" d="M2949.59,-169.95C2946.44,-169.15 2943.21,-168.46 2940.1,-168 2859.54,-156.04 65.34,-189.95 8.1,-132 -55.83,-67.28 299.37,-28.85 446.01,-15.92"/>
<polygon fill="midnightblue" stroke="midnightblue" points="446.54,-19.39 456.2,-15.04 445.93,-12.42 446.54,-19.39"/>
</g>
<!-- Node17 -->
<g id="node17" class="node">
<title>Node17</title>
<g id="a_node17"><a xlink:title=" ">
<polygon fill="white" stroke="#bfbfbf" points="584.6,-112.5 584.6,-131.5 713.6,-131.5 713.6,-112.5 584.6,-112.5"/>
<text text-anchor="middle" x="649.1" y="-119.5" font-family="Helvetica,sans-Serif" font-size="10.00">swla/swla_time_spec.h</text>
</a>
</g>
</g>
<!-- Node10&#45;&gt;Node17 -->
<g id="edge17" class="edge">
<title>Node10&#45;&gt;Node17</title>
<path fill="none" stroke="midnightblue" d="M2949.59,-169.96C2946.44,-169.16 2943.21,-168.47 2940.1,-168 2456.07,-95.14 1230.97,-164.86 723.64,-131.92"/>
<polygon fill="midnightblue" stroke="midnightblue" points="723.85,-128.43 713.64,-131.25 723.38,-135.41 723.85,-128.43"/>
</g>
<!-- Node18 -->
<g id="node18" class="node">
<title>Node18</title>
<g id="a_node18"><a xlink:title=" ">
<polygon fill="white" stroke="#bfbfbf" points="732.1,-112.5 732.1,-131.5 826.1,-131.5 826.1,-112.5 732.1,-112.5"/>
<text text-anchor="middle" x="779.1" y="-119.5" font-family="Helvetica,sans-Serif" font-size="10.00">swla/swla_oui.h</text>
</a>
</g>
</g>
<!-- Node10&#45;&gt;Node18 -->
<g id="edge18" class="edge">
<title>Node10&#45;&gt;Node18</title>
<path fill="none" stroke="midnightblue" d="M2949.59,-169.96C2946.44,-169.16 2943.21,-168.47 2940.1,-168 2480.77,-98.66 1317.75,-172.17 836.59,-131.96"/>
<polygon fill="midnightblue" stroke="midnightblue" points="836.66,-128.46 826.4,-131.09 836.06,-135.43 836.66,-128.46"/>
</g>
<!-- Node19 -->
<g id="node19" class="node">
<title>Node19</title>
<g id="a_node19"><a xlink:title=" ">
<polygon fill="white" stroke="#bfbfbf" points="844.1,-112.5 844.1,-131.5 972.1,-131.5 972.1,-112.5 844.1,-112.5"/>
<text text-anchor="middle" x="908.1" y="-119.5" font-family="Helvetica,sans-Serif" font-size="10.00">swla/swla_delayExec.h</text>
</a>
</g>
</g>
<!-- Node10&#45;&gt;Node19 -->
<g id="edge19" class="edge">
<title>Node10&#45;&gt;Node19</title>
<path fill="none" stroke="midnightblue" d="M2949.59,-169.96C2946.43,-169.17 2943.21,-168.47 2940.1,-168 2512.87,-103.23 1431.95,-161.78 982.34,-131.98"/>
<polygon fill="midnightblue" stroke="midnightblue" points="982.38,-128.47 972.16,-131.28 981.9,-135.46 982.38,-128.47"/>
</g>
<!-- Node20 -->
<g id="node20" class="node">
<title>Node20</title>
<g id="a_node20"><a xlink:title=" ">
<polygon fill="white" stroke="#bfbfbf" points="990.6,-112.5 990.6,-131.5 1109.6,-131.5 1109.6,-112.5 990.6,-112.5"/>
<text text-anchor="middle" x="1050.1" y="-119.5" font-family="Helvetica,sans-Serif" font-size="10.00">swla/swla_function.h</text>
</a>
</g>
</g>
<!-- Node10&#45;&gt;Node20 -->
<g id="edge20" class="edge">
<title>Node10&#45;&gt;Node20</title>
<path fill="none" stroke="midnightblue" d="M2949.59,-169.97C2946.43,-169.17 2943.21,-168.47 2940.1,-168 2542.98,-107.51 1538.27,-161.73 1119.85,-132.02"/>
<polygon fill="midnightblue" stroke="midnightblue" points="1120,-128.52 1109.77,-131.28 1119.48,-135.5 1120,-128.52"/>
</g>
<!-- Node21 -->
<g id="node21" class="node">
<title>Node21</title>
<g id="a_node21"><a xlink:title=" ">
<polygon fill="white" stroke="#bfbfbf" points="1127.6,-112.5 1127.6,-131.5 1268.6,-131.5 1268.6,-112.5 1127.6,-112.5"/>
<text text-anchor="middle" x="1198.1" y="-119.5" font-family="Helvetica,sans-Serif" font-size="10.00">swl/swl_usp_cmdStatus.h</text>
</a>
</g>
</g>
<!-- Node10&#45;&gt;Node21 -->
<g id="edge21" class="edge">
<title>Node10&#45;&gt;Node21</title>
<path fill="none" stroke="midnightblue" d="M2949.58,-169.97C2946.43,-169.17 2943.21,-168.48 2940.1,-168 2578.16,-112.52 1662.97,-155.9 1278.83,-131.95"/>
<polygon fill="midnightblue" stroke="midnightblue" points="1278.95,-128.45 1268.74,-131.3 1278.5,-135.44 1278.95,-128.45"/>
</g>
<!-- Node22 -->
<g id="node22" class="node">
<title>Node22</title>
<g id="a_node22"><a xlink:title=" ">
<polygon fill="white" stroke="#bfbfbf" points="1287.1,-112.5 1287.1,-131.5 1373.1,-131.5 1373.1,-112.5 1287.1,-112.5"/>
<text text-anchor="middle" x="1330.1" y="-119.5" font-family="Helvetica,sans-Serif" font-size="10.00">swl/swl_wps.h</text>
</a>
</g>
</g>
<!-- Node10&#45;&gt;Node22 -->
<g id="edge22" class="edge">
<title>Node10&#45;&gt;Node22</title>
<path fill="none" stroke="midnightblue" d="M2949.58,-169.98C2946.43,-169.18 2943.2,-168.48 2940.1,-168 2601,-115.77 1742.9,-164.7 1383.14,-131.9"/>
<polygon fill="midnightblue" stroke="midnightblue" points="1383.45,-128.42 1373.17,-130.96 1382.79,-135.39 1383.45,-128.42"/>
</g>
<!-- Node23 -->
<g id="node23" class="node">
<title>Node23</title>
<g id="a_node23"><a xlink:title=" ">
<polygon fill="white" stroke="#bfbfbf" points="1391.1,-112.5 1391.1,-131.5 1495.1,-131.5 1495.1,-112.5 1391.1,-112.5"/>
<text text-anchor="middle" x="1443.1" y="-119.5" font-family="Helvetica,sans-Serif" font-size="10.00">swl/swl_security.h</text>
</a>
</g>
</g>
<!-- Node10&#45;&gt;Node23 -->
<g id="edge23" class="edge">
<title>Node10&#45;&gt;Node23</title>
<path fill="none" stroke="midnightblue" d="M2949.58,-169.98C2946.43,-169.18 2943.2,-168.48 2940.1,-168 2627.89,-119.6 1838.55,-158.53 1505.5,-131.97"/>
<polygon fill="midnightblue" stroke="midnightblue" points="1505.55,-128.47 1495.3,-131.13 1504.97,-135.44 1505.55,-128.47"/>
</g>
<!-- Node24 -->
<g id="node24" class="node">
<title>Node24</title>
<g id="a_node24"><a xlink:title=" ">
<polygon fill="white" stroke="#bfbfbf" points="1513.6,-112.5 1513.6,-131.5 1596.6,-131.5 1596.6,-112.5 1513.6,-112.5"/>
<text text-anchor="middle" x="1555.1" y="-119.5" font-family="Helvetica,sans-Serif" font-size="10.00">amxc/amxc.h</text>
</a>
</g>
</g>
<!-- Node10&#45;&gt;Node24 -->
<g id="edge24" class="edge">
<title>Node10&#45;&gt;Node24</title>
<path fill="none" stroke="midnightblue" d="M2949.58,-169.99C2946.43,-169.19 2943.2,-168.48 2940.1,-168 2650.24,-122.78 1917.12,-161.01 1606.74,-131.85"/>
<polygon fill="midnightblue" stroke="midnightblue" points="1607.07,-128.36 1596.78,-130.87 1606.39,-135.33 1607.07,-128.36"/>
</g>
<!-- Node25 -->
<g id="node25" class="node">
<title>Node25</title>
<g id="a_node25"><a xlink:title=" ">
<polygon fill="white" stroke="#bfbfbf" points="1615.1,-112.5 1615.1,-131.5 1699.1,-131.5 1699.1,-112.5 1615.1,-112.5"/>
<text text-anchor="middle" x="1657.1" y="-119.5" font-family="Helvetica,sans-Serif" font-size="10.00">amxp/amxp.h</text>
</a>
</g>
</g>
<!-- Node10&#45;&gt;Node25 -->
<g id="edge25" class="edge">
<title>Node10&#45;&gt;Node25</title>
<path fill="none" stroke="midnightblue" d="M2949.58,-170C2946.43,-169.19 2943.2,-168.49 2940.1,-168 2402.26,-83.47 2254.84,-186.47 1709.43,-131.96"/>
<polygon fill="midnightblue" stroke="midnightblue" points="1709.64,-128.47 1699.34,-130.94 1708.93,-135.43 1709.64,-128.47"/>
</g>
<!-- Node26 -->
<g id="node26" class="node">
<title>Node26</title>
<g id="a_node26"><a xlink:title=" ">
<polygon fill="white" stroke="#bfbfbf" points="1717.1,-112.5 1717.1,-131.5 1857.1,-131.5 1857.1,-112.5 1717.1,-112.5"/>
<text text-anchor="middle" x="1787.1" y="-119.5" font-family="Helvetica,sans-Serif" font-size="10.00">amxd/amxd_parameter.h</text>
</a>
</g>
</g>
<!-- Node10&#45;&gt;Node26 -->
<g id="edge26" class="edge">
<title>Node10&#45;&gt;Node26</title>
<path fill="none" stroke="midnightblue" d="M2949.58,-170.01C2946.43,-169.2 2943.2,-168.49 2940.1,-168 2471.79,-93.37 2344.22,-166.01 1867.54,-132.03"/>
<polygon fill="midnightblue" stroke="midnightblue" points="1867.51,-128.52 1857.29,-131.29 1867.01,-135.5 1867.51,-128.52"/>
</g>
<!-- Node27 -->
<g id="node27" class="node">
<title>Node27</title>
<g id="a_node27"><a xlink:title=" ">
<polygon fill="white" stroke="#bfbfbf" points="1875.6,-112.5 1875.6,-131.5 1994.6,-131.5 1994.6,-112.5 1875.6,-112.5"/>
<text text-anchor="middle" x="1935.1" y="-119.5" font-family="Helvetica,sans-Serif" font-size="10.00">amxd/amxd_action.h</text>
</a>
</g>
</g>
<!-- Node10&#45;&gt;Node27 -->
<g id="edge27" class="edge">
<title>Node10&#45;&gt;Node27</title>
<path fill="none" stroke="midnightblue" d="M2949.58,-170.02C2946.43,-169.21 2943.2,-168.5 2940.1,-168 2532.02,-101.94 2420.15,-166.32 2004.95,-132.07"/>
<polygon fill="midnightblue" stroke="midnightblue" points="2005.03,-128.57 1994.77,-131.22 2004.44,-135.54 2005.03,-128.57"/>
</g>
<!-- Node28 -->
<g id="node28" class="node">
<title>Node28</title>
<g id="a_node28"><a xlink:title=" ">
<polygon fill="white" stroke="#bfbfbf" points="2012.6,-112.5 2012.6,-131.5 2187.6,-131.5 2187.6,-112.5 2012.6,-112.5"/>
<text text-anchor="middle" x="2100.1" y="-119.5" font-family="Helvetica,sans-Serif" font-size="10.00">amxd/amxd_object_parameter.h</text>
</a>
</g>
</g>
<!-- Node10&#45;&gt;Node28 -->
<g id="edge28" class="edge">
<title>Node10&#45;&gt;Node28</title>
<path fill="none" stroke="midnightblue" d="M2949.57,-170.05C2946.42,-169.24 2943.2,-168.52 2940.1,-168 2617.35,-114.1 2528.7,-154.43 2198.21,-132.03"/>
<polygon fill="midnightblue" stroke="midnightblue" points="2198.08,-128.52 2187.86,-131.32 2197.59,-135.5 2198.08,-128.52"/>
</g>
<!-- Node29 -->
<g id="node29" class="node">
<title>Node29</title>
<g id="a_node29"><a xlink:title=" ">
<polygon fill="white" stroke="#bfbfbf" points="2206.1,-112.5 2206.1,-131.5 2358.1,-131.5 2358.1,-112.5 2206.1,-112.5"/>
<text text-anchor="middle" x="2282.1" y="-119.5" font-family="Helvetica,sans-Serif" font-size="10.00">amxd/amxd_object_event.h</text>
</a>
</g>
</g>
<!-- Node10&#45;&gt;Node29 -->
<g id="edge29" class="edge">
<title>Node10&#45;&gt;Node29</title>
<path fill="none" stroke="midnightblue" d="M2949.57,-170.09C2946.42,-169.27 2943.19,-168.54 2940.1,-168 2692.48,-124.8 2623.74,-152.51 2368.84,-132.01"/>
<polygon fill="midnightblue" stroke="midnightblue" points="2368.77,-128.49 2358.52,-131.16 2368.2,-135.47 2368.77,-128.49"/>
</g>
<!-- Node30 -->
<g id="node30" class="node">
<title>Node30</title>
<g id="a_node30"><a xlink:title=" ">
<polygon fill="white" stroke="#bfbfbf" points="2376.6,-112.5 2376.6,-131.5 2505.6,-131.5 2505.6,-112.5 2376.6,-112.5"/>
<text text-anchor="middle" x="2441.1" y="-119.5" font-family="Helvetica,sans-Serif" font-size="10.00">amxd/amxd_function.h</text>
</a>
</g>
</g>
<!-- Node10&#45;&gt;Node30 -->
<g id="edge30" class="edge">
<title>Node10&#45;&gt;Node30</title>
<path fill="none" stroke="midnightblue" d="M2949.55,-170.15C2946.41,-169.33 2943.19,-168.57 2940.1,-168 2756.91,-134 2705.42,-150.85 2515.68,-132.01"/>
<polygon fill="midnightblue" stroke="midnightblue" points="2515.96,-128.52 2505.66,-130.99 2515.26,-135.48 2515.96,-128.52"/>
</g>
<!-- Node31 -->
<g id="node31" class="node">
<title>Node31</title>
<g id="a_node31"><a xlink:title=" ">
<polygon fill="white" stroke="#bfbfbf" points="2523.6,-112.5 2523.6,-131.5 2692.6,-131.5 2692.6,-112.5 2523.6,-112.5"/>
<text text-anchor="middle" x="2608.1" y="-119.5" font-family="Helvetica,sans-Serif" font-size="10.00">amxd/amxd_object_hierarchy.h</text>
</a>
</g>
</g>
<!-- Node10&#45;&gt;Node31 -->
<g id="edge31" class="edge">
<title>Node10&#45;&gt;Node31</title>
<path fill="none" stroke="midnightblue" d="M2949.53,-170.29C2946.38,-169.45 2943.17,-168.65 2940.1,-168 2893.94,-158.23 2772.96,-142.77 2690.52,-132.76"/>
<polygon fill="midnightblue" stroke="midnightblue" points="2690.76,-129.26 2680.41,-131.53 2689.92,-136.21 2690.76,-129.26"/>
</g>
<!-- Node32 -->
<g id="node32" class="node">
<title>Node32</title>
<g id="a_node32"><a xlink:title=" ">
<polygon fill="white" stroke="#bfbfbf" points="2710.6,-112.5 2710.6,-131.5 2829.6,-131.5 2829.6,-112.5 2710.6,-112.5"/>
<text text-anchor="middle" x="2770.1" y="-119.5" font-family="Helvetica,sans-Serif" font-size="10.00">amxd/amxd_object.h</text>
</a>
</g>
</g>
<!-- Node10&#45;&gt;Node32 -->
<g id="edge32" class="edge">
<title>Node10&#45;&gt;Node32</title>
<path fill="none" stroke="midnightblue" d="M2949.44,-170.64C2946.31,-169.74 2943.13,-168.84 2940.1,-168 2896.99,-156.04 2847.54,-143.03 2813.12,-134.09"/>
<polygon fill="midnightblue" stroke="midnightblue" points="2813.95,-130.68 2803.39,-131.56 2812.19,-137.46 2813.95,-130.68"/>
</g>
<!-- Node33 -->
<g id="node33" class="node">
<title>Node33</title>
<g id="a_node33"><a xlink:title=" ">
<polygon fill="white" stroke="#bfbfbf" points="2847.6,-112.5 2847.6,-131.5 2952.6,-131.5 2952.6,-112.5 2847.6,-112.5"/>
<text text-anchor="middle" x="2900.1" y="-119.5" font-family="Helvetica,sans-Serif" font-size="10.00">amxd/amxd_dm.h</text>
</a>
</g>
</g>
<!-- Node10&#45;&gt;Node33 -->
<g id="edge33" class="edge">
<title>Node10&#45;&gt;Node33</title>
<path fill="none" stroke="midnightblue" d="M2959.7,-168.32C2948.99,-160.18 2932.76,-147.84 2919.94,-138.09"/>
<polygon fill="midnightblue" stroke="midnightblue" points="2921.8,-135.1 2911.72,-131.83 2917.56,-140.67 2921.8,-135.1"/>
</g>
<!-- Node34 -->
<g id="node34" class="node">
<title>Node34</title>
<g id="a_node34"><a xlink:title=" ">
<polygon fill="white" stroke="#bfbfbf" points="2971.1,-112.5 2971.1,-131.5 3115.1,-131.5 3115.1,-112.5 2971.1,-112.5"/>
<text text-anchor="middle" x="3043.1" y="-119.5" font-family="Helvetica,sans-Serif" font-size="10.00">amxd/amxd_transaction.h</text>
</a>
</g>
</g>
<!-- Node10&#45;&gt;Node34 -->
<g id="edge34" class="edge">
<title>Node10&#45;&gt;Node34</title>
<path fill="none" stroke="midnightblue" d="M2982.67,-168.32C2993.52,-160.18 3009.98,-147.84 3022.99,-138.09"/>
<polygon fill="midnightblue" stroke="midnightblue" points="3025.42,-140.63 3031.32,-131.83 3021.22,-135.03 3025.42,-140.63"/>
</g>
<!-- Node35 -->
<g id="node35" class="node">
<title>Node35</title>
<g id="a_node35"><a xlink:title=" ">
<polygon fill="white" stroke="#bfbfbf" points="3133.1,-112.5 3133.1,-131.5 3249.1,-131.5 3249.1,-112.5 3133.1,-112.5"/>
<text text-anchor="middle" x="3191.1" y="-119.5" font-family="Helvetica,sans-Serif" font-size="10.00">amxb/amxb_types.h</text>
</a>
</g>
</g>
<!-- Node10&#45;&gt;Node35 -->
<g id="edge35" class="edge">
<title>Node10&#45;&gt;Node35</title>
<path fill="none" stroke="midnightblue" d="M2992.75,-170.57C2995.88,-169.68 2999.07,-168.8 3002.1,-168 3049.85,-155.39 3104.81,-142.49 3143.1,-133.75"/>
<polygon fill="midnightblue" stroke="midnightblue" points="3143.98,-137.14 3152.96,-131.51 3142.43,-130.31 3143.98,-137.14"/>
</g>
<!-- Node36 -->
<g id="node36" class="node">
<title>Node36</title>
<g id="a_node36"><a xlink:title=" ">
<polygon fill="white" stroke="#bfbfbf" points="3267.1,-112.5 3267.1,-131.5 3403.1,-131.5 3403.1,-112.5 3267.1,-112.5"/>
<text text-anchor="middle" x="3335.1" y="-119.5" font-family="Helvetica,sans-Serif" font-size="10.00">amxb/amxb_operators.h</text>
</a>
</g>
</g>
<!-- Node10&#45;&gt;Node36 -->
<g id="edge36" class="edge">
<title>Node10&#45;&gt;Node36</title>
<path fill="none" stroke="midnightblue" d="M2992.68,-170.29C2995.82,-169.45 2999.03,-168.65 3002.1,-168 3049.22,-158.03 3174.09,-142.2 3256.81,-132.22"/>
<polygon fill="midnightblue" stroke="midnightblue" points="3257.42,-135.67 3266.93,-131 3256.58,-128.72 3257.42,-135.67"/>
</g>
<!-- Node37 -->
<g id="node37" class="node">
<title>Node37</title>
<g id="a_node37"><a xlink:title=" ">
<polygon fill="white" stroke="#bfbfbf" points="3421.1,-112.5 3421.1,-131.5 3533.1,-131.5 3533.1,-112.5 3421.1,-112.5"/>
<text text-anchor="middle" x="3477.1" y="-119.5" font-family="Helvetica,sans-Serif" font-size="10.00">amxb/amxb_error.h</text>
</a>
</g>
</g>
<!-- Node10&#45;&gt;Node37 -->
<g id="edge37" class="edge">
<title>Node10&#45;&gt;Node37</title>
<path fill="none" stroke="midnightblue" d="M2992.65,-170.16C2995.8,-169.33 2999.02,-168.58 3002.1,-168 3178.65,-134.95 3228.54,-151.91 3410.57,-132.11"/>
<polygon fill="midnightblue" stroke="midnightblue" points="3411.2,-135.56 3420.75,-130.98 3410.43,-128.6 3411.2,-135.56"/>
</g>
<!-- Node38 -->
<g id="node38" class="node">
<title>Node38</title>
<g id="a_node38"><a xlink:title=" ">
<polygon fill="white" stroke="#bfbfbf" points="3551.6,-112.5 3551.6,-131.5 3634.6,-131.5 3634.6,-112.5 3551.6,-112.5"/>
<text text-anchor="middle" x="3593.1" y="-119.5" font-family="Helvetica,sans-Serif" font-size="10.00">amxo/amxo.h</text>
</a>
</g>
</g>
<!-- Node10&#45;&gt;Node38 -->
<g id="edge38" class="edge">
<title>Node10&#45;&gt;Node38</title>
<path fill="none" stroke="midnightblue" d="M2992.64,-170.1C2995.79,-169.28 2999.01,-168.55 3002.1,-168 3235.74,-126.8 3301.53,-160.01 3541.34,-131.94"/>
<polygon fill="midnightblue" stroke="midnightblue" points="3541.89,-135.4 3551.41,-130.74 3541.06,-128.45 3541.89,-135.4"/>
</g>
<!-- Node39 -->
<g id="node39" class="node">
<title>Node39</title>
<g id="a_node39"><a xlink:title=" ">
<polygon fill="white" stroke="#bfbfbf" points="3652.6,-112.5 3652.6,-131.5 3767.6,-131.5 3767.6,-112.5 3652.6,-112.5"/>
<text text-anchor="middle" x="3710.1" y="-119.5" font-family="Helvetica,sans-Serif" font-size="10.00">amxo/amxo_types.h</text>
</a>
</g>
</g>
<!-- Node10&#45;&gt;Node39 -->
<g id="edge39" class="edge">
<title>Node10&#45;&gt;Node39</title>
<path fill="none" stroke="midnightblue" d="M2992.64,-170.07C2995.79,-169.26 2999.01,-168.53 3002.1,-168 3280.5,-120.42 3357.83,-158.41 3642.33,-132.09"/>
<polygon fill="midnightblue" stroke="midnightblue" points="3642.91,-135.55 3652.54,-131.12 3642.26,-128.58 3642.91,-135.55"/>
</g>
<!-- Node40 -->
<g id="node40" class="node">
<title>Node40</title>
<g id="a_node40"><a xlink:href="wld__types_8h.html" target="_top" xlink:title=" ">
<polygon fill="white" stroke="red" points="4169.6,-56.5 4169.6,-75.5 4244.6,-75.5 4244.6,-56.5 4169.6,-56.5"/>
<text text-anchor="middle" x="4207.1" y="-63.5" font-family="Helvetica,sans-Serif" font-size="10.00">wld_types.h</text>
</a>
</g>
</g>
<!-- Node10&#45;&gt;Node40 -->
<g id="edge40" class="edge">
<title>Node10&#45;&gt;Node40</title>
<path fill="none" stroke="midnightblue" d="M2992.62,-169.99C2995.77,-169.19 2999,-168.48 3002.1,-168 3076.34,-156.43 4301.68,-185.83 4354.1,-132 4387.64,-97.56 4309.47,-80.04 4254.75,-72.26"/>
<polygon fill="midnightblue" stroke="midnightblue" points="4255.21,-68.79 4244.84,-70.92 4254.28,-75.73 4255.21,-68.79"/>
</g>
<!-- Node43 -->
<g id="node41" class="node">
<title>Node43</title>
<g id="a_node41"><a xlink:href="wld__channel__types_8h.html" target="_top" xlink:title=" ">
<polygon fill="white" stroke="black" points="447.6,-112.5 447.6,-131.5 566.6,-131.5 566.6,-112.5 447.6,-112.5"/>
<text text-anchor="middle" x="507.1" y="-119.5" font-family="Helvetica,sans-Serif" font-size="10.00">wld_channel_types.h</text>
</a>
</g>
</g>
<!-- Node10&#45;&gt;Node43 -->
<g id="edge43" class="edge">
<title>Node10&#45;&gt;Node43</title>
<path fill="none" stroke="midnightblue" d="M2949.59,-169.96C2946.44,-169.16 2943.21,-168.47 2940.1,-168 2423.6,-90.53 1116.04,-169.53 577,-132.03"/>
<polygon fill="midnightblue" stroke="midnightblue" points="576.99,-128.52 566.77,-131.3 576.49,-135.5 576.99,-128.52"/>
</g>
<!-- Node44 -->
<g id="node42" class="node">
<title>Node44</title>
<g id="a_node42"><a xlink:title=" ">
<polygon fill="white" stroke="#bfbfbf" points="2097.6,-56.5 2097.6,-75.5 2222.6,-75.5 2222.6,-56.5 2097.6,-56.5"/>
<text text-anchor="middle" x="2160.1" y="-63.5" font-family="Helvetica,sans-Serif" font-size="10.00">swla/swla_chanspec.h</text>
</a>
</g>
</g>
<!-- Node10&#45;&gt;Node44 -->
<g id="edge61" class="edge">
<title>Node10&#45;&gt;Node44</title>
<path fill="none" stroke="midnightblue" d="M2992.63,-170.04C2995.78,-169.23 2999.01,-168.51 3002.1,-168 3044.62,-160.94 3747.34,-163.18 3777.1,-132 3783.24,-125.57 3783.3,-118.37 3777.1,-112 3749.83,-83.96 2544.77,-70.64 2233.08,-67.66"/>
<polygon fill="midnightblue" stroke="midnightblue" points="2232.84,-64.16 2222.81,-67.56 2232.77,-71.16 2232.84,-64.16"/>
</g>
<!-- Node45 -->
<g id="node43" class="node">
<title>Node45</title>
<g id="a_node43"><a xlink:href="wld__bgdfs_8h.html" target="_top" xlink:title=" ">
<polygon fill="white" stroke="black" points="3862.6,-112.5 3862.6,-131.5 3937.6,-131.5 3937.6,-112.5 3862.6,-112.5"/>
<text text-anchor="middle" x="3900.1" y="-119.5" font-family="Helvetica,sans-Serif" font-size="10.00">wld_bgdfs.h</text>
</a>
</g>
</g>
<!-- Node10&#45;&gt;Node45 -->
<g id="edge47" class="edge">
<title>Node10&#45;&gt;Node45</title>
<path fill="none" stroke="midnightblue" d="M2992.63,-170.03C2995.78,-169.22 2999.01,-168.51 3002.1,-168 3373.48,-107.1 3473.91,-172.17 3848.1,-132 3849.41,-131.86 3850.73,-131.71 3852.07,-131.54"/>
<polygon fill="midnightblue" stroke="midnightblue" points="3852.98,-134.95 3862.41,-130.11 3852.02,-128.02 3852.98,-134.95"/>
</g>
<!-- Node46 -->
<g id="node44" class="node">
<title>Node46</title>
<g id="a_node44"><a xlink:href="wld__rad__delayMgr_8h.html" target="_top" xlink:title=" ">
<polygon fill="white" stroke="black" points="4041.1,-112.5 4041.1,-131.5 4155.1,-131.5 4155.1,-112.5 4041.1,-112.5"/>
<text text-anchor="middle" x="4098.1" y="-119.5" font-family="Helvetica,sans-Serif" font-size="10.00">wld_rad_delayMgr.h</text>
</a>
</g>
</g>
<!-- Node10&#45;&gt;Node46 -->
<g id="edge49" class="edge">
<title>Node10&#45;&gt;Node46</title>
<path fill="none" stroke="midnightblue" d="M2990.42,-168.47C2991.32,-168.3 2992.22,-168.14 2993.1,-168 3445.4,-95.59 3566.71,-170.99 4023.1,-132 4025.62,-131.78 4028.2,-131.54 4030.8,-131.27"/>
<polygon fill="midnightblue" stroke="midnightblue" points="4031.38,-134.73 4040.93,-130.15 4030.61,-127.77 4031.38,-134.73"/>
</g>
<!-- Node47 -->
<g id="node45" class="node">
<title>Node47</title>
<g id="a_node45"><a xlink:href="wld__fsm_8h.html" target="_top" xlink:title=" ">
<polygon fill="white" stroke="black" points="3955.6,-112.5 3955.6,-131.5 4022.6,-131.5 4022.6,-112.5 3955.6,-112.5"/>
<text text-anchor="middle" x="3989.1" y="-119.5" font-family="Helvetica,sans-Serif" font-size="10.00">wld_fsm.h</text>
</a>
</g>
</g>
<!-- Node10&#45;&gt;Node47 -->
<g id="edge51" class="edge">
<title>Node10&#45;&gt;Node47</title>
<path fill="none" stroke="midnightblue" d="M2992.63,-170.02C2995.78,-169.21 2999,-168.5 3002.1,-168 3413.68,-101.45 3528.21,-182.9 3945.05,-132.04"/>
<polygon fill="midnightblue" stroke="midnightblue" points="3945.77,-135.48 3955.26,-130.78 3944.91,-128.53 3945.77,-135.48"/>
</g>
<!-- Node48 -->
<g id="node46" class="node">
<title>Node48</title>
<g id="a_node46"><a xlink:href="wld__sensing_8h.html" target="_top" xlink:title=" ">
<polygon fill="white" stroke="black" points="4259.1,-112.5 4259.1,-131.5 4345.1,-131.5 4345.1,-112.5 4259.1,-112.5"/>
<text text-anchor="middle" x="4302.1" y="-119.5" font-family="Helvetica,sans-Serif" font-size="10.00">wld_sensing.h</text>
</a>
</g>
</g>
<!-- Node10&#45;&gt;Node48 -->
<g id="edge53" class="edge">
<title>Node10&#45;&gt;Node48</title>
<path fill="none" stroke="midnightblue" d="M2990.42,-168.47C2991.32,-168.3 2992.22,-168.14 2993.1,-168 3541.29,-81.95 3688.98,-187.46 4241.1,-132 4243.62,-131.75 4246.19,-131.45 4248.79,-131.11"/>
<polygon fill="midnightblue" stroke="midnightblue" points="4249.53,-134.54 4258.93,-129.65 4248.53,-127.61 4249.53,-134.54"/>
</g>
<!-- Node49 -->
<g id="node47" class="node">
<title>Node49</title>
<g id="a_node47"><a xlink:href="wld__mld_8h.html" target="_top" xlink:title=" ">
<polygon fill="white" stroke="black" points="4173.6,-112.5 4173.6,-131.5 4240.6,-131.5 4240.6,-112.5 4173.6,-112.5"/>
<text text-anchor="middle" x="4207.1" y="-119.5" font-family="Helvetica,sans-Serif" font-size="10.00">wld_mld.h</text>
</a>
</g>
</g>
<!-- Node10&#45;&gt;Node49 -->
<g id="edge55" class="edge">
<title>Node10&#45;&gt;Node49</title>
<path fill="none" stroke="midnightblue" d="M2992.63,-170C2995.78,-169.2 2999,-168.49 3002.1,-168 3509.1,-87.86 3649.2,-191.77 4163.11,-131.85"/>
<polygon fill="midnightblue" stroke="midnightblue" points="4163.87,-135.29 4173.39,-130.64 4163.05,-128.34 4163.87,-135.29"/>
</g>
<!-- Node50 -->
<g id="node48" class="node">
<title>Node50</title>
<g id="a_node48"><a xlink:href="wld__autoCommitRadData_8h.html" target="_top" xlink:title=" ">
<polygon fill="white" stroke="black" points="4401.1,-112.5 4401.1,-131.5 4577.1,-131.5 4577.1,-112.5 4401.1,-112.5"/>
<text text-anchor="middle" x="4489.1" y="-119.5" font-family="Helvetica,sans-Serif" font-size="10.00">Utils/wld_autoCommitRadData.h</text>
</a>
</g>
</g>
<!-- Node10&#45;&gt;Node50 -->
<g id="edge57" class="edge">
<title>Node10&#45;&gt;Node50</title>
<path fill="none" stroke="midnightblue" d="M2992.62,-169.99C2995.77,-169.18 2999,-168.48 3002.1,-168 3306.33,-120.69 4079.72,-149.54 4387.1,-132 4388.38,-131.93 4389.66,-131.85 4390.95,-131.77"/>
<polygon fill="midnightblue" stroke="midnightblue" points="4391.19,-135.26 4400.94,-131.12 4390.74,-128.28 4391.19,-135.26"/>
</g>
<!-- Node51 -->
<g id="node49" class="node">
<title>Node51</title>
<g id="a_node49"><a xlink:href="wld__dmnMgt_8h.html" target="_top" xlink:title=" ">
<polygon fill="white" stroke="red" points="4715.1,-112.5 4715.1,-131.5 4829.1,-131.5 4829.1,-112.5 4715.1,-112.5"/>
<text text-anchor="middle" x="4772.1" y="-119.5" font-family="Helvetica,sans-Serif" font-size="10.00">Utils/wld_dmnMgt.h</text>
</a>
</g>
</g>
<!-- Node10&#45;&gt;Node51 -->
<g id="edge58" class="edge">
<title>Node10&#45;&gt;Node51</title>
<path fill="none" stroke="midnightblue" d="M2992.62,-169.97C2995.77,-169.17 2999,-168.47 3002.1,-168 3373.3,-111.2 4312.29,-160.77 4704.88,-131.97"/>
<polygon fill="midnightblue" stroke="midnightblue" points="4705.2,-135.45 4714.91,-131.21 4704.67,-128.47 4705.2,-135.45"/>
</g>
<!-- Node53 -->
<g id="node50" class="node">
<title>Node53</title>
<g id="a_node50"><a xlink:title=" ">
<polygon fill="white" stroke="#bfbfbf" points="4595.6,-112.5 4595.6,-131.5 4696.6,-131.5 4696.6,-112.5 4595.6,-112.5"/>
<text text-anchor="middle" x="4646.1" y="-119.5" font-family="Helvetica,sans-Serif" font-size="10.00">swl/swl_staCap.h</text>
</a>
</g>
</g>
<!-- Node10&#45;&gt;Node53 -->
<g id="edge62" class="edge">
<title>Node10&#45;&gt;Node53</title>
<path fill="none" stroke="midnightblue" d="M2992.62,-169.98C2995.77,-169.18 2999,-168.48 3002.1,-168 3346.87,-114.96 4218.93,-161.3 4585.26,-131.91"/>
<polygon fill="midnightblue" stroke="midnightblue" points="4585.74,-135.38 4595.42,-131.06 4585.16,-128.4 4585.74,-135.38"/>
</g>
<!-- Node40&#45;&gt;Node12 -->
<g id="edge41" class="edge">
<title>Node40&#45;&gt;Node12</title>
<path fill="none" stroke="midnightblue" d="M4244.9,-59.07C4311.5,-48.61 4448.91,-27.04 4514.59,-16.73"/>
<polygon fill="midnightblue" stroke="midnightblue" points="4515.15,-20.19 4524.49,-15.18 4514.07,-13.27 4515.15,-20.19"/>
</g>
<!-- Node40&#45;&gt;Node16 -->
<g id="edge42" class="edge">
<title>Node40&#45;&gt;Node16</title>
<path fill="none" stroke="midnightblue" d="M4169.58,-64.45C3812.47,-59.24 1016.89,-18.44 567.87,-11.89"/>
<polygon fill="midnightblue" stroke="midnightblue" points="567.75,-8.38 557.7,-11.74 567.65,-15.38 567.75,-8.38"/>
</g>
<!-- Node43&#45;&gt;Node11 -->
<g id="edge44" class="edge">
<title>Node43&#45;&gt;Node11</title>
<path fill="none" stroke="midnightblue" d="M566.77,-112.71C569.58,-112.45 572.37,-112.2 575.1,-112 827.41,-93.07 2707.96,-70.94 3011.72,-67.47"/>
<polygon fill="midnightblue" stroke="midnightblue" points="3011.9,-70.97 3021.86,-67.35 3011.82,-63.97 3011.9,-70.97"/>
</g>
<!-- Node43&#45;&gt;Node16 -->
<g id="edge46" class="edge">
<title>Node43&#45;&gt;Node16</title>
<path fill="none" stroke="midnightblue" d="M507.1,-112.37C507.1,-94.62 507.1,-53.67 507.1,-29.6"/>
<polygon fill="midnightblue" stroke="midnightblue" points="510.6,-29.59 507.1,-19.59 503.6,-29.59 510.6,-29.59"/>
</g>
<!-- Node43&#45;&gt;Node44 -->
<g id="edge45" class="edge">
<title>Node43&#45;&gt;Node44</title>
<path fill="none" stroke="midnightblue" d="M566.77,-112.75C569.58,-112.47 572.37,-112.22 575.1,-112 1156.82,-65.37 1862,-65.11 2087.26,-66.4"/>
<polygon fill="midnightblue" stroke="midnightblue" points="2087.28,-69.9 2097.3,-66.46 2087.33,-62.9 2087.28,-69.9"/>
</g>
<!-- Node45&#45;&gt;Node40 -->
<g id="edge48" class="edge">
<title>Node45&#45;&gt;Node40</title>
<path fill="none" stroke="midnightblue" d="M3937.8,-113.72C3940.95,-113.13 3944.08,-112.55 3947.1,-112 4021.04,-98.52 4107,-83.84 4159.2,-75.03"/>
<polygon fill="midnightblue" stroke="midnightblue" points="4159.89,-78.46 4169.17,-73.35 4158.73,-71.56 4159.89,-78.46"/>
</g>
<!-- Node46&#45;&gt;Node10 -->
<g id="edge50" class="edge">
<title>Node46&#45;&gt;Node10</title>
<path fill="none" stroke="midnightblue" d="M4046.35,-131.52C4044.58,-131.69 4042.83,-131.85 4041.1,-132 3584.71,-170.99 3463.4,-95.59 3011.1,-168 3008.35,-168.44 3005.5,-169.05 3002.63,-169.74"/>
<polygon fill="midnightblue" stroke="midnightblue" points="3001.65,-166.38 2992.88,-172.32 3003.44,-173.15 3001.65,-166.38"/>
</g>
<!-- Node47&#45;&gt;Node40 -->
<g id="edge52" class="edge">
<title>Node47&#45;&gt;Node40</title>
<path fill="none" stroke="midnightblue" d="M4022.69,-112.68C4060.31,-103.36 4121.45,-88.22 4162.93,-77.94"/>
<polygon fill="midnightblue" stroke="midnightblue" points="4163.9,-81.31 4172.76,-75.51 4162.21,-74.51 4163.9,-81.31"/>
</g>
<!-- Node48&#45;&gt;Node10 -->
<g id="edge54" class="edge">
<title>Node48&#45;&gt;Node10</title>
<path fill="none" stroke="midnightblue" d="M4263.53,-131.51C4262.04,-131.69 4260.56,-131.85 4259.1,-132 3706.98,-187.46 3559.29,-81.95 3011.1,-168 3008.35,-168.43 3005.5,-169.04 3002.63,-169.73"/>
<polygon fill="midnightblue" stroke="midnightblue" points="3001.65,-166.36 2992.88,-172.3 3003.44,-173.13 3001.65,-166.36"/>
</g>
<!-- Node49&#45;&gt;Node40 -->
<g id="edge56" class="edge">
<title>Node49&#45;&gt;Node40</title>
<path fill="none" stroke="midnightblue" d="M4207.1,-112.08C4207.1,-105.01 4207.1,-94.86 4207.1,-85.99"/>
<polygon fill="midnightblue" stroke="midnightblue" points="4210.6,-85.75 4207.1,-75.75 4203.6,-85.75 4210.6,-85.75"/>
</g>
<!-- Node51&#45;&gt;Node7 -->
<g id="edge59" class="edge">
<title>Node51&#45;&gt;Node7</title>
<path fill="none" stroke="midnightblue" d="M4778.71,-112.08C4784.36,-104.46 4792.65,-93.26 4799.55,-83.94"/>
<polygon fill="midnightblue" stroke="midnightblue" points="4802.48,-85.87 4805.62,-75.75 4796.86,-81.7 4802.48,-85.87"/>
</g>
<!-- Node51&#45;&gt;Node40 -->
<g id="edge60" class="edge">
<title>Node51&#45;&gt;Node40</title>
<path fill="none" stroke="midnightblue" d="M4714.89,-113.04C4711.92,-112.67 4708.98,-112.33 4706.1,-112 4540.66,-93.27 4343.63,-77.39 4254.76,-70.57"/>
<polygon fill="midnightblue" stroke="midnightblue" points="4254.96,-67.08 4244.72,-69.8 4254.43,-74.05 4254.96,-67.08"/>
</g>
</g>
</svg>
