<?xml version="1.0" encoding="UTF-8" standalone="no"?>
<!DOCTYPE svg PUBLIC "-//W3C//DTD SVG 1.1//EN"
 "http://www.w3.org/Graphics/SVG/1.1/DTD/svg11.dtd">
<!-- Generated by graphviz version 2.43.0 (0)
 -->
<!-- Title: src/RadMgt/wld_rad_delayMgr.c Pages: 1 -->
<svg width="4829pt" height="431pt"
 viewBox="0.00 0.00 4829.00 431.00" xmlns="http://www.w3.org/2000/svg" xmlns:xlink="http://www.w3.org/1999/xlink">
<g id="graph0" class="graph" transform="scale(1 1) rotate(0) translate(4 427)">
<title>src/RadMgt/wld_rad_delayMgr.c</title>
<polygon fill="white" stroke="transparent" points="-4,4 -4,-427 4825,-427 4825,4 -4,4"/>
<!-- Node1 -->
<g id="node1" class="node">
<title>Node1</title>
<g id="a_node1"><a xlink:title=" ">
<polygon fill="#bfbfbf" stroke="black" points="2322,-392.5 2322,-422.5 2435,-422.5 2435,-392.5 2322,-392.5"/>
<text text-anchor="start" x="2330" y="-410.5" font-family="Helvetica,sans-Serif" font-size="10.00">src/RadMgt/wld_rad</text>
<text text-anchor="middle" x="2378.5" y="-399.5" font-family="Helvetica,sans-Serif" font-size="10.00">_delayMgr.c</text>
</a>
</g>
</g>
<!-- Node2 -->
<g id="node2" class="node">
<title>Node2</title>
<g id="a_node2"><a xlink:href="wld__common_8h.html" target="_top" xlink:title=" ">
<polygon fill="white" stroke="black" points="2208,-336.5 2208,-355.5 2299,-355.5 2299,-336.5 2208,-336.5"/>
<text text-anchor="middle" x="2253.5" y="-343.5" font-family="Helvetica,sans-Serif" font-size="10.00">wld_common.h</text>
</a>
</g>
</g>
<!-- Node1&#45;&gt;Node2 -->
<g id="edge1" class="edge">
<title>Node1&#45;&gt;Node2</title>
<path fill="none" stroke="midnightblue" d="M2348.88,-392.4C2328.28,-382.59 2301.02,-369.62 2280.92,-360.05"/>
<polygon fill="midnightblue" stroke="midnightblue" points="2282.22,-356.8 2271.69,-355.66 2279.21,-363.12 2282.22,-356.8"/>
</g>
<!-- Node40 -->
<g id="node37" class="node">
<title>Node40</title>
<g id="a_node37"><a xlink:href="wld__rad__delayMgr_8h.html" target="_top" xlink:title=" ">
<polygon fill="white" stroke="black" points="3697.5,-112.5 3697.5,-131.5 3811.5,-131.5 3811.5,-112.5 3697.5,-112.5"/>
<text text-anchor="middle" x="3754.5" y="-119.5" font-family="Helvetica,sans-Serif" font-size="10.00">wld_rad_delayMgr.h</text>
</a>
</g>
</g>
<!-- Node1&#45;&gt;Node40 -->
<g id="edge79" class="edge">
<title>Node1&#45;&gt;Node40</title>
<path fill="none" stroke="midnightblue" d="M2435.32,-406.56C2660.57,-406.07 3478.5,-396.97 3478.5,-291 3478.5,-291 3478.5,-291 3478.5,-233 3478.5,-186.13 3617.58,-150.37 3698.28,-133.57"/>
<polygon fill="midnightblue" stroke="midnightblue" points="3699.21,-136.95 3708.3,-131.52 3697.8,-130.09 3699.21,-136.95"/>
</g>
<!-- Node3 -->
<g id="node3" class="node">
<title>Node3</title>
<g id="a_node3"><a xlink:href="wld_8h.html" target="_top" xlink:title=" ">
<polygon fill="white" stroke="red" points="2157,-168.5 2157,-187.5 2200,-187.5 2200,-168.5 2157,-168.5"/>
<text text-anchor="middle" x="2178.5" y="-175.5" font-family="Helvetica,sans-Serif" font-size="10.00">wld.h</text>
</a>
</g>
</g>
<!-- Node2&#45;&gt;Node3 -->
<g id="edge2" class="edge">
<title>Node2&#45;&gt;Node3</title>
<path fill="none" stroke="midnightblue" d="M2299.24,-345.01C2334.25,-342.29 2380.47,-332.24 2404.5,-300 2418.73,-280.91 2403.9,-239.1 2387.5,-224 2361.95,-200.48 2262.1,-187.3 2210.21,-181.91"/>
<polygon fill="midnightblue" stroke="midnightblue" points="2210.51,-178.43 2200.21,-180.91 2209.81,-185.39 2210.51,-178.43"/>
</g>
<!-- Node34 -->
<g id="node34" class="node">
<title>Node34</title>
<g id="a_node34"><a xlink:href="wld__types_8h.html" target="_top" xlink:title=" ">
<polygon fill="white" stroke="red" points="704,-56.5 704,-75.5 779,-75.5 779,-56.5 704,-56.5"/>
<text text-anchor="middle" x="741.5" y="-63.5" font-family="Helvetica,sans-Serif" font-size="10.00">wld_types.h</text>
</a>
</g>
</g>
<!-- Node2&#45;&gt;Node34 -->
<g id="edge75" class="edge">
<title>Node2&#45;&gt;Node34</title>
<path fill="none" stroke="midnightblue" d="M2207.58,-345.13C1895.84,-345.7 102.5,-344.26 102.5,-235 102.5,-235 102.5,-235 102.5,-177 102.5,-146.9 98.09,-130.91 121.5,-112 165.63,-76.35 555.55,-68.91 693.44,-67.38"/>
<polygon fill="midnightblue" stroke="midnightblue" points="693.74,-70.88 703.7,-67.27 693.66,-63.88 693.74,-70.88"/>
</g>
<!-- Node76 -->
<g id="node43" class="node">
<title>Node76</title>
<g id="a_node43"><a xlink:href="wld__eventing_8h.html" target="_top" xlink:title=" ">
<polygon fill="white" stroke="black" points="4223,-168.5 4223,-187.5 4314,-187.5 4314,-168.5 4223,-168.5"/>
<text text-anchor="middle" x="4268.5" y="-175.5" font-family="Helvetica,sans-Serif" font-size="10.00">wld_eventing.h</text>
</a>
</g>
</g>
<!-- Node2&#45;&gt;Node76 -->
<g id="edge53" class="edge">
<title>Node2&#45;&gt;Node76</title>
<path fill="none" stroke="midnightblue" d="M2299.37,-341.22C2566.42,-319.22 3918.95,-207.8 4212.31,-183.63"/>
<polygon fill="midnightblue" stroke="midnightblue" points="4213.02,-187.08 4222.7,-182.77 4212.45,-180.11 4213.02,-187.08"/>
</g>
<!-- Node77 -->
<g id="node44" class="node">
<title>Node77</title>
<g id="a_node44"><a xlink:href="wld__radio_8h.html" target="_top" xlink:title=" ">
<polygon fill="white" stroke="red" points="2091,-224.5 2091,-243.5 2164,-243.5 2164,-224.5 2091,-224.5"/>
<text text-anchor="middle" x="2127.5" y="-231.5" font-family="Helvetica,sans-Serif" font-size="10.00">wld_radio.h</text>
</a>
</g>
</g>
<!-- Node2&#45;&gt;Node77 -->
<g id="edge61" class="edge">
<title>Node2&#45;&gt;Node77</title>
<path fill="none" stroke="midnightblue" d="M2247.14,-336.33C2237.24,-323.2 2217.14,-297.9 2196.5,-280 2182.8,-268.12 2165.76,-256.98 2152.03,-248.75"/>
<polygon fill="midnightblue" stroke="midnightblue" points="2153.54,-245.58 2143.14,-243.54 2150.01,-251.62 2153.54,-245.58"/>
</g>
<!-- Node84 -->
<g id="node45" class="node">
<title>Node84</title>
<g id="a_node45"><a xlink:href="wld__accesspoint_8h.html" target="_top" xlink:title=" ">
<polygon fill="white" stroke="red" points="1971.5,-280.5 1971.5,-299.5 2077.5,-299.5 2077.5,-280.5 1971.5,-280.5"/>
<text text-anchor="middle" x="2024.5" y="-287.5" font-family="Helvetica,sans-Serif" font-size="10.00">wld_accesspoint.h</text>
</a>
</g>
</g>
<!-- Node2&#45;&gt;Node84 -->
<g id="edge63" class="edge">
<title>Node2&#45;&gt;Node84</title>
<path fill="none" stroke="midnightblue" d="M2217.21,-336.44C2177.52,-327.08 2113.79,-312.06 2070.59,-301.87"/>
<polygon fill="midnightblue" stroke="midnightblue" points="2071.15,-298.41 2060.62,-299.52 2069.55,-305.22 2071.15,-298.41"/>
</g>
<!-- Node85 -->
<g id="node46" class="node">
<title>Node85</title>
<g id="a_node46"><a xlink:href="wld__wps_8h.html" target="_top" xlink:title=" ">
<polygon fill="white" stroke="black" points="1928.5,-224.5 1928.5,-243.5 1996.5,-243.5 1996.5,-224.5 1928.5,-224.5"/>
<text text-anchor="middle" x="1962.5" y="-231.5" font-family="Helvetica,sans-Serif" font-size="10.00">wld_wps.h</text>
</a>
</g>
</g>
<!-- Node2&#45;&gt;Node85 -->
<g id="edge78" class="edge">
<title>Node2&#45;&gt;Node85</title>
<path fill="none" stroke="midnightblue" d="M2207.96,-344.86C2134.17,-343.55 1993.57,-336.24 1962.5,-300 1951.73,-287.44 1953.3,-267.94 1956.6,-253.58"/>
<polygon fill="midnightblue" stroke="midnightblue" points="1960.02,-254.36 1959.29,-243.79 1953.27,-252.51 1960.02,-254.36"/>
</g>
<!-- Node86 -->
<g id="node47" class="node">
<title>Node86</title>
<g id="a_node47"><a xlink:href="wld__endpoint_8h.html" target="_top" xlink:title=" ">
<polygon fill="white" stroke="black" points="2096,-280.5 2096,-299.5 2187,-299.5 2187,-280.5 2096,-280.5"/>
<text text-anchor="middle" x="2141.5" y="-287.5" font-family="Helvetica,sans-Serif" font-size="10.00">wld_endpoint.h</text>
</a>
</g>
</g>
<!-- Node2&#45;&gt;Node86 -->
<g id="edge68" class="edge">
<title>Node2&#45;&gt;Node86</title>
<path fill="none" stroke="midnightblue" d="M2235.51,-336.32C2217.46,-327.62 2189.45,-314.12 2168.7,-304.11"/>
<polygon fill="midnightblue" stroke="midnightblue" points="2169.98,-300.84 2159.45,-299.65 2166.94,-307.15 2169.98,-300.84"/>
</g>
<!-- Node87 -->
<g id="node48" class="node">
<title>Node87</title>
<g id="a_node48"><a xlink:href="wld__assocdev_8h.html" target="_top" xlink:title=" ">
<polygon fill="white" stroke="red" points="2182,-224.5 2182,-243.5 2275,-243.5 2275,-224.5 2182,-224.5"/>
<text text-anchor="middle" x="2228.5" y="-231.5" font-family="Helvetica,sans-Serif" font-size="10.00">wld_assocdev.h</text>
</a>
</g>
</g>
<!-- Node2&#45;&gt;Node87 -->
<g id="edge71" class="edge">
<title>Node2&#45;&gt;Node87</title>
<path fill="none" stroke="midnightblue" d="M2251.54,-336.37C2247.5,-318.62 2238.2,-277.67 2232.73,-253.6"/>
<polygon fill="midnightblue" stroke="midnightblue" points="2236.08,-252.57 2230.45,-243.59 2229.26,-254.12 2236.08,-252.57"/>
</g>
<!-- Node90 -->
<g id="node49" class="node">
<title>Node90</title>
<g id="a_node49"><a xlink:href="wld__ssid_8h.html" target="_top" xlink:title=" ">
<polygon fill="white" stroke="black" points="2293.5,-224.5 2293.5,-243.5 2361.5,-243.5 2361.5,-224.5 2293.5,-224.5"/>
<text text-anchor="middle" x="2327.5" y="-231.5" font-family="Helvetica,sans-Serif" font-size="10.00">wld_ssid.h</text>
</a>
</g>
</g>
<!-- Node2&#45;&gt;Node90 -->
<g id="edge73" class="edge">
<title>Node2&#45;&gt;Node90</title>
<path fill="none" stroke="midnightblue" d="M2259.31,-336.37C2271.52,-318.22 2300.05,-275.8 2316.07,-251.99"/>
<polygon fill="midnightblue" stroke="midnightblue" points="2319.04,-253.84 2321.72,-243.59 2313.23,-249.94 2319.04,-253.84"/>
</g>
<!-- Node91 -->
<g id="node50" class="node">
<title>Node91</title>
<g id="a_node50"><a xlink:href="wld__util_8h.html" target="_top" xlink:title=" ">
<polygon fill="white" stroke="black" points="2331.5,-280.5 2331.5,-299.5 2395.5,-299.5 2395.5,-280.5 2331.5,-280.5"/>
<text text-anchor="middle" x="2363.5" y="-287.5" font-family="Helvetica,sans-Serif" font-size="10.00">wld_util.h</text>
</a>
</g>
</g>
<!-- Node2&#45;&gt;Node91 -->
<g id="edge76" class="edge">
<title>Node2&#45;&gt;Node91</title>
<path fill="none" stroke="midnightblue" d="M2271.17,-336.32C2288.89,-327.62 2316.4,-314.12 2336.79,-304.11"/>
<polygon fill="midnightblue" stroke="midnightblue" points="2338.44,-307.2 2345.87,-299.65 2335.35,-300.92 2338.44,-307.2"/>
</g>
<!-- Node4 -->
<g id="node4" class="node">
<title>Node4</title>
<g id="a_node4"><a xlink:title=" ">
<polygon fill="white" stroke="#bfbfbf" points="2567.5,-56.5 2567.5,-75.5 2629.5,-75.5 2629.5,-56.5 2567.5,-56.5"/>
<text text-anchor="middle" x="2598.5" y="-63.5" font-family="Helvetica,sans-Serif" font-size="10.00">stdbool.h</text>
</a>
</g>
</g>
<!-- Node3&#45;&gt;Node4 -->
<g id="edge3" class="edge">
<title>Node3&#45;&gt;Node4</title>
<path fill="none" stroke="midnightblue" d="M2194.01,-168.26C2224.79,-150.96 2291.07,-113.83 2296.5,-112 2386.28,-81.68 2497.94,-71.76 2557.14,-68.54"/>
<polygon fill="midnightblue" stroke="midnightblue" points="2557.41,-72.03 2567.22,-68.03 2557.05,-65.04 2557.41,-72.03"/>
</g>
<!-- Node5 -->
<g id="node5" class="node">
<title>Node5</title>
<g id="a_node5"><a xlink:title=" ">
<polygon fill="white" stroke="#bfbfbf" points="0,-0.5 0,-19.5 53,-19.5 53,-0.5 0,-0.5"/>
<text text-anchor="middle" x="26.5" y="-7.5" font-family="Helvetica,sans-Serif" font-size="10.00">stdint.h</text>
</a>
</g>
</g>
<!-- Node3&#45;&gt;Node5 -->
<g id="edge4" class="edge">
<title>Node3&#45;&gt;Node5</title>
<path fill="none" stroke="midnightblue" d="M2156.71,-177.09C1941.62,-177.95 204.36,-183.29 109.5,-132 68.35,-109.75 43.53,-57.17 32.78,-29.21"/>
<polygon fill="midnightblue" stroke="midnightblue" points="35.96,-27.7 29.24,-19.51 29.38,-30.1 35.96,-27.7"/>
</g>
<!-- Node6 -->
<g id="node6" class="node">
<title>Node6</title>
<g id="a_node6"><a xlink:title=" ">
<polygon fill="white" stroke="#bfbfbf" points="211.5,-56.5 211.5,-75.5 321.5,-75.5 321.5,-56.5 211.5,-56.5"/>
<text text-anchor="middle" x="266.5" y="-63.5" font-family="Helvetica,sans-Serif" font-size="10.00">swl/swl_common.h</text>
</a>
</g>
</g>
<!-- Node3&#45;&gt;Node6 -->
<g id="edge5" class="edge">
<title>Node3&#45;&gt;Node6</title>
<path fill="none" stroke="midnightblue" d="M2156.87,-176.95C1939.65,-176.36 159.03,-170.36 121.5,-132 91.93,-101.77 149.75,-84.44 200.92,-75.4"/>
<polygon fill="midnightblue" stroke="midnightblue" points="201.75,-78.81 211.03,-73.7 200.59,-71.9 201.75,-78.81"/>
</g>
<!-- Node7 -->
<g id="node7" class="node">
<title>Node7</title>
<g id="a_node7"><a xlink:title=" ">
<polygon fill="white" stroke="#bfbfbf" points="926.5,-112.5 926.5,-131.5 1062.5,-131.5 1062.5,-112.5 926.5,-112.5"/>
<text text-anchor="middle" x="994.5" y="-119.5" font-family="Helvetica,sans-Serif" font-size="10.00">swla/swla_commonLib.h</text>
</a>
</g>
</g>
<!-- Node3&#45;&gt;Node7 -->
<g id="edge6" class="edge">
<title>Node3&#45;&gt;Node7</title>
<path fill="none" stroke="midnightblue" d="M2156.99,-176.73C2044.9,-175.21 1516.31,-166.48 1073.03,-132.06"/>
<polygon fill="midnightblue" stroke="midnightblue" points="1073.15,-128.56 1062.91,-131.27 1072.6,-135.54 1073.15,-128.56"/>
</g>
<!-- Node8 -->
<g id="node8" class="node">
<title>Node8</title>
<g id="a_node8"><a xlink:title=" ">
<polygon fill="white" stroke="#bfbfbf" points="1080.5,-112.5 1080.5,-131.5 1168.5,-131.5 1168.5,-112.5 1080.5,-112.5"/>
<text text-anchor="middle" x="1124.5" y="-119.5" font-family="Helvetica,sans-Serif" font-size="10.00">swl/swl_uuid.h</text>
</a>
</g>
</g>
<!-- Node3&#45;&gt;Node8 -->
<g id="edge7" class="edge">
<title>Node3&#45;&gt;Node8</title>
<path fill="none" stroke="midnightblue" d="M2156.94,-177.01C2051.21,-176.88 1576.82,-173.91 1178.67,-131.98"/>
<polygon fill="midnightblue" stroke="midnightblue" points="1179,-128.5 1168.69,-130.92 1178.26,-135.46 1179,-128.5"/>
</g>
<!-- Node9 -->
<g id="node9" class="node">
<title>Node9</title>
<g id="a_node9"><a xlink:title=" ">
<polygon fill="white" stroke="#bfbfbf" points="1186.5,-112.5 1186.5,-131.5 1338.5,-131.5 1338.5,-112.5 1186.5,-112.5"/>
<text text-anchor="middle" x="1262.5" y="-119.5" font-family="Helvetica,sans-Serif" font-size="10.00">swla/swla_radioStandards.h</text>
</a>
</g>
</g>
<!-- Node3&#45;&gt;Node9 -->
<g id="edge8" class="edge">
<title>Node3&#45;&gt;Node9</title>
<path fill="none" stroke="midnightblue" d="M2156.97,-176.24C2062.72,-172.84 1677.05,-158.02 1349.11,-132.09"/>
<polygon fill="midnightblue" stroke="midnightblue" points="1349.18,-128.59 1338.94,-131.28 1348.63,-135.56 1349.18,-128.59"/>
</g>
<!-- Node10 -->
<g id="node10" class="node">
<title>Node10</title>
<g id="a_node10"><a xlink:title=" ">
<polygon fill="white" stroke="#bfbfbf" points="1892,-0.5 1892,-19.5 1993,-19.5 1993,-0.5 1892,-0.5"/>
<text text-anchor="middle" x="1942.5" y="-7.5" font-family="Helvetica,sans-Serif" font-size="10.00">swla/swla_time.h</text>
</a>
</g>
</g>
<!-- Node3&#45;&gt;Node10 -->
<g id="edge9" class="edge">
<title>Node3&#45;&gt;Node10</title>
<path fill="none" stroke="midnightblue" d="M2156.82,-175.57C2107.32,-171.83 1988.23,-160.07 1961.5,-132 1935.31,-104.5 1936.41,-56.49 1939.48,-29.96"/>
<polygon fill="midnightblue" stroke="midnightblue" points="1942.99,-30.12 1940.88,-19.74 1936.05,-29.17 1942.99,-30.12"/>
</g>
<!-- Node11 -->
<g id="node11" class="node">
<title>Node11</title>
<g id="a_node11"><a xlink:title=" ">
<polygon fill="white" stroke="#bfbfbf" points="1527,-112.5 1527,-131.5 1656,-131.5 1656,-112.5 1527,-112.5"/>
<text text-anchor="middle" x="1591.5" y="-119.5" font-family="Helvetica,sans-Serif" font-size="10.00">swla/swla_time_spec.h</text>
</a>
</g>
</g>
<!-- Node3&#45;&gt;Node11 -->
<g id="edge10" class="edge">
<title>Node3&#45;&gt;Node11</title>
<path fill="none" stroke="midnightblue" d="M2156.97,-175.37C2087.59,-170.07 1863.4,-152.51 1666.03,-132.02"/>
<polygon fill="midnightblue" stroke="midnightblue" points="1666.37,-128.54 1656.06,-130.98 1665.64,-135.5 1666.37,-128.54"/>
</g>
<!-- Node12 -->
<g id="node12" class="node">
<title>Node12</title>
<g id="a_node12"><a xlink:title=" ">
<polygon fill="white" stroke="#bfbfbf" points="1674.5,-112.5 1674.5,-131.5 1768.5,-131.5 1768.5,-112.5 1674.5,-112.5"/>
<text text-anchor="middle" x="1721.5" y="-119.5" font-family="Helvetica,sans-Serif" font-size="10.00">swla/swla_oui.h</text>
</a>
</g>
</g>
<!-- Node3&#45;&gt;Node12 -->
<g id="edge11" class="edge">
<title>Node3&#45;&gt;Node12</title>
<path fill="none" stroke="midnightblue" d="M2156.72,-174.92C2097.66,-169.22 1929.32,-152.43 1778.44,-132.07"/>
<polygon fill="midnightblue" stroke="midnightblue" points="1778.91,-128.6 1768.53,-130.72 1777.97,-135.54 1778.91,-128.6"/>
</g>
<!-- Node13 -->
<g id="node13" class="node">
<title>Node13</title>
<g id="a_node13"><a xlink:title=" ">
<polygon fill="white" stroke="#bfbfbf" points="1786.5,-112.5 1786.5,-131.5 1914.5,-131.5 1914.5,-112.5 1786.5,-112.5"/>
<text text-anchor="middle" x="1850.5" y="-119.5" font-family="Helvetica,sans-Serif" font-size="10.00">swla/swla_delayExec.h</text>
</a>
</g>
</g>
<!-- Node3&#45;&gt;Node13 -->
<g id="edge12" class="edge">
<title>Node3&#45;&gt;Node13</title>
<path fill="none" stroke="midnightblue" d="M2156.98,-173.46C2108.04,-165.4 1986.91,-145.46 1912.42,-133.19"/>
<polygon fill="midnightblue" stroke="midnightblue" points="1912.67,-129.69 1902.24,-131.52 1911.53,-136.6 1912.67,-129.69"/>
</g>
<!-- Node14 -->
<g id="node14" class="node">
<title>Node14</title>
<g id="a_node14"><a xlink:title=" ">
<polygon fill="white" stroke="#bfbfbf" points="1971,-112.5 1971,-131.5 2090,-131.5 2090,-112.5 1971,-112.5"/>
<text text-anchor="middle" x="2030.5" y="-119.5" font-family="Helvetica,sans-Serif" font-size="10.00">swla/swla_function.h</text>
</a>
</g>
</g>
<!-- Node3&#45;&gt;Node14 -->
<g id="edge13" class="edge">
<title>Node3&#45;&gt;Node14</title>
<path fill="none" stroke="midnightblue" d="M2156.98,-169.15C2132.45,-160.2 2092.08,-145.47 2063.55,-135.06"/>
<polygon fill="midnightblue" stroke="midnightblue" points="2064.6,-131.72 2054,-131.58 2062.2,-138.29 2064.6,-131.72"/>
</g>
<!-- Node15 -->
<g id="node15" class="node">
<title>Node15</title>
<g id="a_node15"><a xlink:title=" ">
<polygon fill="white" stroke="#bfbfbf" points="2108,-112.5 2108,-131.5 2249,-131.5 2249,-112.5 2108,-112.5"/>
<text text-anchor="middle" x="2178.5" y="-119.5" font-family="Helvetica,sans-Serif" font-size="10.00">swl/swl_usp_cmdStatus.h</text>
</a>
</g>
</g>
<!-- Node3&#45;&gt;Node15 -->
<g id="edge14" class="edge">
<title>Node3&#45;&gt;Node15</title>
<path fill="none" stroke="midnightblue" d="M2178.5,-168.08C2178.5,-161.01 2178.5,-150.86 2178.5,-141.99"/>
<polygon fill="midnightblue" stroke="midnightblue" points="2182,-141.75 2178.5,-131.75 2175,-141.75 2182,-141.75"/>
</g>
<!-- Node16 -->
<g id="node16" class="node">
<title>Node16</title>
<g id="a_node16"><a xlink:title=" ">
<polygon fill="white" stroke="#bfbfbf" points="2305.5,-112.5 2305.5,-131.5 2391.5,-131.5 2391.5,-112.5 2305.5,-112.5"/>
<text text-anchor="middle" x="2348.5" y="-119.5" font-family="Helvetica,sans-Serif" font-size="10.00">swl/swl_wps.h</text>
</a>
</g>
</g>
<!-- Node3&#45;&gt;Node16 -->
<g id="edge15" class="edge">
<title>Node3&#45;&gt;Node16</title>
<path fill="none" stroke="midnightblue" d="M2200.03,-170.16C2228.17,-161.22 2277.86,-145.44 2311.95,-134.61"/>
<polygon fill="midnightblue" stroke="midnightblue" points="2313.08,-137.92 2321.55,-131.56 2310.96,-131.25 2313.08,-137.92"/>
</g>
<!-- Node17 -->
<g id="node17" class="node">
<title>Node17</title>
<g id="a_node17"><a xlink:title=" ">
<polygon fill="white" stroke="#bfbfbf" points="2409.5,-112.5 2409.5,-131.5 2513.5,-131.5 2513.5,-112.5 2409.5,-112.5"/>
<text text-anchor="middle" x="2461.5" y="-119.5" font-family="Helvetica,sans-Serif" font-size="10.00">swl/swl_security.h</text>
</a>
</g>
</g>
<!-- Node3&#45;&gt;Node17 -->
<g id="edge16" class="edge">
<title>Node3&#45;&gt;Node17</title>
<path fill="none" stroke="midnightblue" d="M2200.24,-172.85C2244.01,-164.5 2343.93,-145.43 2406.74,-133.45"/>
<polygon fill="midnightblue" stroke="midnightblue" points="2407.7,-136.83 2416.87,-131.52 2406.39,-129.95 2407.7,-136.83"/>
</g>
<!-- Node18 -->
<g id="node18" class="node">
<title>Node18</title>
<g id="a_node18"><a xlink:title=" ">
<polygon fill="white" stroke="#bfbfbf" points="4738,-112.5 4738,-131.5 4821,-131.5 4821,-112.5 4738,-112.5"/>
<text text-anchor="middle" x="4779.5" y="-119.5" font-family="Helvetica,sans-Serif" font-size="10.00">amxc/amxc.h</text>
</a>
</g>
</g>
<!-- Node3&#45;&gt;Node18 -->
<g id="edge17" class="edge">
<title>Node3&#45;&gt;Node18</title>
<path fill="none" stroke="midnightblue" d="M2200.27,-177.1C2416.25,-178.02 4178.25,-183.92 4727.84,-131.98"/>
<polygon fill="midnightblue" stroke="midnightblue" points="4728.21,-135.46 4737.83,-131.02 4727.54,-128.49 4728.21,-135.46"/>
</g>
<!-- Node19 -->
<g id="node19" class="node">
<title>Node19</title>
<g id="a_node19"><a xlink:title=" ">
<polygon fill="white" stroke="#bfbfbf" points="3829.5,-112.5 3829.5,-131.5 3913.5,-131.5 3913.5,-112.5 3829.5,-112.5"/>
<text text-anchor="middle" x="3871.5" y="-119.5" font-family="Helvetica,sans-Serif" font-size="10.00">amxp/amxp.h</text>
</a>
</g>
</g>
<!-- Node3&#45;&gt;Node19 -->
<g id="edge18" class="edge">
<title>Node3&#45;&gt;Node19</title>
<path fill="none" stroke="midnightblue" d="M2200.06,-176.85C2367.58,-175.59 3464.01,-166.18 3819.23,-131.94"/>
<polygon fill="midnightblue" stroke="midnightblue" points="3819.66,-135.42 3829.27,-130.95 3818.97,-128.45 3819.66,-135.42"/>
</g>
<!-- Node20 -->
<g id="node20" class="node">
<title>Node20</title>
<g id="a_node20"><a xlink:title=" ">
<polygon fill="white" stroke="#bfbfbf" points="3931.5,-112.5 3931.5,-131.5 4071.5,-131.5 4071.5,-112.5 3931.5,-112.5"/>
<text text-anchor="middle" x="4001.5" y="-119.5" font-family="Helvetica,sans-Serif" font-size="10.00">amxd/amxd_parameter.h</text>
</a>
</g>
</g>
<!-- Node3&#45;&gt;Node20 -->
<g id="edge19" class="edge">
<title>Node3&#45;&gt;Node20</title>
<path fill="none" stroke="midnightblue" d="M2200.2,-177.16C2346.87,-178.08 3208.73,-181.16 3921.11,-132.03"/>
<polygon fill="midnightblue" stroke="midnightblue" points="3921.58,-135.5 3931.32,-131.32 3921.1,-128.52 3921.58,-135.5"/>
</g>
<!-- Node21 -->
<g id="node21" class="node">
<title>Node21</title>
<g id="a_node21"><a xlink:title=" ">
<polygon fill="white" stroke="#bfbfbf" points="4454,-112.5 4454,-131.5 4573,-131.5 4573,-112.5 4454,-112.5"/>
<text text-anchor="middle" x="4513.5" y="-119.5" font-family="Helvetica,sans-Serif" font-size="10.00">amxd/amxd_action.h</text>
</a>
</g>
</g>
<!-- Node3&#45;&gt;Node21 -->
<g id="edge20" class="edge">
<title>Node3&#45;&gt;Node21</title>
<path fill="none" stroke="midnightblue" d="M2200.3,-176.9C2402.46,-175.91 3952.93,-167.29 4443.37,-131.97"/>
<polygon fill="midnightblue" stroke="midnightblue" points="4443.99,-135.43 4453.7,-131.21 4443.47,-128.45 4443.99,-135.43"/>
</g>
<!-- Node22 -->
<g id="node22" class="node">
<title>Node22</title>
<g id="a_node22"><a xlink:title=" ">
<polygon fill="white" stroke="#bfbfbf" points="4090,-112.5 4090,-131.5 4265,-131.5 4265,-112.5 4090,-112.5"/>
<text text-anchor="middle" x="4177.5" y="-119.5" font-family="Helvetica,sans-Serif" font-size="10.00">amxd/amxd_object_parameter.h</text>
</a>
</g>
</g>
<!-- Node3&#45;&gt;Node22 -->
<g id="edge21" class="edge">
<title>Node3&#45;&gt;Node22</title>
<path fill="none" stroke="midnightblue" d="M2200.13,-177.05C2354.02,-177.31 3299.13,-176.97 4079.71,-132"/>
<polygon fill="midnightblue" stroke="midnightblue" points="4079.97,-135.49 4089.75,-131.41 4079.57,-128.5 4079.97,-135.49"/>
</g>
<!-- Node23 -->
<g id="node23" class="node">
<title>Node23</title>
<g id="a_node23"><a xlink:title=" ">
<polygon fill="white" stroke="#bfbfbf" points="4283.5,-112.5 4283.5,-131.5 4435.5,-131.5 4435.5,-112.5 4283.5,-112.5"/>
<text text-anchor="middle" x="4359.5" y="-119.5" font-family="Helvetica,sans-Serif" font-size="10.00">amxd/amxd_object_event.h</text>
</a>
</g>
</g>
<!-- Node3&#45;&gt;Node23 -->
<g id="edge22" class="edge">
<title>Node3&#45;&gt;Node23</title>
<path fill="none" stroke="midnightblue" d="M2200.17,-176.79C2393.06,-174.85 3819.28,-159.78 4272.86,-132.04"/>
<polygon fill="midnightblue" stroke="midnightblue" points="4273.31,-135.51 4283.07,-131.4 4272.87,-128.53 4273.31,-135.51"/>
</g>
<!-- Node24 -->
<g id="node24" class="node">
<title>Node24</title>
<g id="a_node24"><a xlink:title=" ">
<polygon fill="white" stroke="#bfbfbf" points="4591,-112.5 4591,-131.5 4720,-131.5 4720,-112.5 4591,-112.5"/>
<text text-anchor="middle" x="4655.5" y="-119.5" font-family="Helvetica,sans-Serif" font-size="10.00">amxd/amxd_function.h</text>
</a>
</g>
</g>
<!-- Node3&#45;&gt;Node24 -->
<g id="edge23" class="edge">
<title>Node3&#45;&gt;Node24</title>
<path fill="none" stroke="midnightblue" d="M2200.3,-176.91C2409.25,-175.96 4061.36,-167.46 4580.47,-132.06"/>
<polygon fill="midnightblue" stroke="midnightblue" points="4580.92,-135.53 4590.66,-131.35 4580.44,-128.55 4580.92,-135.53"/>
</g>
<!-- Node25 -->
<g id="node25" class="node">
<title>Node25</title>
<g id="a_node25"><a xlink:title=" ">
<polygon fill="white" stroke="#bfbfbf" points="2532,-112.5 2532,-131.5 2701,-131.5 2701,-112.5 2532,-112.5"/>
<text text-anchor="middle" x="2616.5" y="-119.5" font-family="Helvetica,sans-Serif" font-size="10.00">amxd/amxd_object_hierarchy.h</text>
</a>
</g>
</g>
<!-- Node3&#45;&gt;Node25 -->
<g id="edge24" class="edge">
<title>Node3&#45;&gt;Node25</title>
<path fill="none" stroke="midnightblue" d="M2200.22,-174.32C2260.86,-166.85 2434.26,-145.47 2537.14,-132.78"/>
<polygon fill="midnightblue" stroke="midnightblue" points="2537.68,-136.24 2547.18,-131.55 2536.82,-129.3 2537.68,-136.24"/>
</g>
<!-- Node26 -->
<g id="node26" class="node">
<title>Node26</title>
<g id="a_node26"><a xlink:title=" ">
<polygon fill="white" stroke="#bfbfbf" points="2719,-112.5 2719,-131.5 2838,-131.5 2838,-112.5 2719,-112.5"/>
<text text-anchor="middle" x="2778.5" y="-119.5" font-family="Helvetica,sans-Serif" font-size="10.00">amxd/amxd_object.h</text>
</a>
</g>
</g>
<!-- Node3&#45;&gt;Node26 -->
<g id="edge25" class="edge">
<title>Node3&#45;&gt;Node26</title>
<path fill="none" stroke="midnightblue" d="M2200.07,-175.54C2271.19,-170.66 2504.91,-154 2708.82,-132.14"/>
<polygon fill="midnightblue" stroke="midnightblue" points="2709.25,-135.61 2718.82,-131.06 2708.5,-128.65 2709.25,-135.61"/>
</g>
<!-- Node27 -->
<g id="node27" class="node">
<title>Node27</title>
<g id="a_node27"><a xlink:title=" ">
<polygon fill="white" stroke="#bfbfbf" points="2856,-112.5 2856,-131.5 2961,-131.5 2961,-112.5 2856,-112.5"/>
<text text-anchor="middle" x="2908.5" y="-119.5" font-family="Helvetica,sans-Serif" font-size="10.00">amxd/amxd_dm.h</text>
</a>
</g>
</g>
<!-- Node3&#45;&gt;Node27 -->
<g id="edge26" class="edge">
<title>Node3&#45;&gt;Node27</title>
<path fill="none" stroke="midnightblue" d="M2200.21,-176.17C2282.87,-172.86 2585.9,-159.56 2845.95,-132.09"/>
<polygon fill="midnightblue" stroke="midnightblue" points="2846.39,-135.56 2855.96,-131.02 2845.65,-128.6 2846.39,-135.56"/>
</g>
<!-- Node28 -->
<g id="node28" class="node">
<title>Node28</title>
<g id="a_node28"><a xlink:title=" ">
<polygon fill="white" stroke="#bfbfbf" points="2979.5,-112.5 2979.5,-131.5 3123.5,-131.5 3123.5,-112.5 2979.5,-112.5"/>
<text text-anchor="middle" x="3051.5" y="-119.5" font-family="Helvetica,sans-Serif" font-size="10.00">amxd/amxd_transaction.h</text>
</a>
</g>
</g>
<!-- Node3&#45;&gt;Node28 -->
<g id="edge27" class="edge">
<title>Node3&#45;&gt;Node28</title>
<path fill="none" stroke="midnightblue" d="M2200.26,-176.19C2292.14,-172.7 2657.52,-157.91 2968.97,-132.09"/>
<polygon fill="midnightblue" stroke="midnightblue" points="2969.42,-135.56 2979.1,-131.24 2968.84,-128.58 2969.42,-135.56"/>
</g>
<!-- Node29 -->
<g id="node29" class="node">
<title>Node29</title>
<g id="a_node29"><a xlink:title=" ">
<polygon fill="white" stroke="#bfbfbf" points="3141.5,-112.5 3141.5,-131.5 3257.5,-131.5 3257.5,-112.5 3141.5,-112.5"/>
<text text-anchor="middle" x="3199.5" y="-119.5" font-family="Helvetica,sans-Serif" font-size="10.00">amxb/amxb_types.h</text>
</a>
</g>
</g>
<!-- Node3&#45;&gt;Node29 -->
<g id="edge28" class="edge">
<title>Node3&#45;&gt;Node29</title>
<path fill="none" stroke="midnightblue" d="M2200.04,-176.67C2302.64,-174.97 2752.13,-165.89 3131.36,-132.02"/>
<polygon fill="midnightblue" stroke="midnightblue" points="3131.78,-135.5 3141.43,-131.11 3131.16,-128.52 3131.78,-135.5"/>
</g>
<!-- Node30 -->
<g id="node30" class="node">
<title>Node30</title>
<g id="a_node30"><a xlink:title=" ">
<polygon fill="white" stroke="#bfbfbf" points="3275.5,-112.5 3275.5,-131.5 3411.5,-131.5 3411.5,-112.5 3275.5,-112.5"/>
<text text-anchor="middle" x="3343.5" y="-119.5" font-family="Helvetica,sans-Serif" font-size="10.00">amxb/amxb_operators.h</text>
</a>
</g>
</g>
<!-- Node3&#45;&gt;Node30 -->
<g id="edge29" class="edge">
<title>Node3&#45;&gt;Node30</title>
<path fill="none" stroke="midnightblue" d="M2200.01,-176.71C2310.93,-175.09 2829.55,-166.02 3264.83,-132.07"/>
<polygon fill="midnightblue" stroke="midnightblue" points="3265.4,-135.54 3275.09,-131.27 3264.85,-128.56 3265.4,-135.54"/>
</g>
<!-- Node31 -->
<g id="node31" class="node">
<title>Node31</title>
<g id="a_node31"><a xlink:title=" ">
<polygon fill="white" stroke="#bfbfbf" points="3429.5,-112.5 3429.5,-131.5 3541.5,-131.5 3541.5,-112.5 3429.5,-112.5"/>
<text text-anchor="middle" x="3485.5" y="-119.5" font-family="Helvetica,sans-Serif" font-size="10.00">amxb/amxb_error.h</text>
</a>
</g>
</g>
<!-- Node3&#45;&gt;Node31 -->
<g id="edge30" class="edge">
<title>Node3&#45;&gt;Node31</title>
<path fill="none" stroke="midnightblue" d="M2200.21,-177.03C2320.69,-177.06 2919.46,-174.96 3418.87,-132.05"/>
<polygon fill="midnightblue" stroke="midnightblue" points="3419.51,-135.51 3429.17,-131.16 3418.9,-128.53 3419.51,-135.51"/>
</g>
<!-- Node32 -->
<g id="node32" class="node">
<title>Node32</title>
<g id="a_node32"><a xlink:title=" ">
<polygon fill="white" stroke="#bfbfbf" points="131,-112.5 131,-131.5 214,-131.5 214,-112.5 131,-112.5"/>
<text text-anchor="middle" x="172.5" y="-119.5" font-family="Helvetica,sans-Serif" font-size="10.00">amxo/amxo.h</text>
</a>
</g>
</g>
<!-- Node3&#45;&gt;Node32 -->
<g id="edge31" class="edge">
<title>Node3&#45;&gt;Node32</title>
<path fill="none" stroke="midnightblue" d="M2156.81,-176.97C1971.17,-176.6 646.27,-172.64 224.28,-132"/>
<polygon fill="midnightblue" stroke="midnightblue" points="224.47,-128.5 214.17,-131 223.78,-135.47 224.47,-128.5"/>
</g>
<!-- Node33 -->
<g id="node33" class="node">
<title>Node33</title>
<g id="a_node33"><a xlink:title=" ">
<polygon fill="white" stroke="#bfbfbf" points="232,-112.5 232,-131.5 347,-131.5 347,-112.5 232,-112.5"/>
<text text-anchor="middle" x="289.5" y="-119.5" font-family="Helvetica,sans-Serif" font-size="10.00">amxo/amxo_types.h</text>
</a>
</g>
</g>
<!-- Node3&#45;&gt;Node33 -->
<g id="edge32" class="edge">
<title>Node3&#45;&gt;Node33</title>
<path fill="none" stroke="midnightblue" d="M2156.92,-176.79C1979.04,-175.02 752.1,-161.91 357.22,-131.94"/>
<polygon fill="midnightblue" stroke="midnightblue" points="357.44,-128.44 347.2,-131.16 356.9,-135.42 357.44,-128.44"/>
</g>
<!-- Node3&#45;&gt;Node34 -->
<g id="edge33" class="edge">
<title>Node3&#45;&gt;Node34</title>
<path fill="none" stroke="midnightblue" d="M2156.74,-176.79C1971,-174.91 658.35,-160.67 630.5,-132 605.99,-106.77 653.66,-87.98 693.97,-77.26"/>
<polygon fill="midnightblue" stroke="midnightblue" points="694.92,-80.63 703.75,-74.77 693.19,-73.84 694.92,-80.63"/>
</g>
<!-- Node37 -->
<g id="node35" class="node">
<title>Node37</title>
<g id="a_node35"><a xlink:href="wld__channel__types_8h.html" target="_top" xlink:title=" ">
<polygon fill="white" stroke="red" points="3560,-112.5 3560,-131.5 3679,-131.5 3679,-112.5 3560,-112.5"/>
<text text-anchor="middle" x="3619.5" y="-119.5" font-family="Helvetica,sans-Serif" font-size="10.00">wld_channel_types.h</text>
</a>
</g>
</g>
<!-- Node3&#45;&gt;Node37 -->
<g id="edge36" class="edge">
<title>Node3&#45;&gt;Node37</title>
<path fill="none" stroke="midnightblue" d="M2200.33,-177.08C2328.35,-177.36 2994.77,-176.59 3549.49,-131.99"/>
<polygon fill="midnightblue" stroke="midnightblue" points="3550.01,-135.46 3559.7,-131.16 3549.45,-128.48 3550.01,-135.46"/>
</g>
<!-- Node39 -->
<g id="node36" class="node">
<title>Node39</title>
<g id="a_node36"><a xlink:href="wld__bgdfs_8h.html" target="_top" xlink:title=" ">
<polygon fill="white" stroke="black" points="833,-112.5 833,-131.5 908,-131.5 908,-112.5 833,-112.5"/>
<text text-anchor="middle" x="870.5" y="-119.5" font-family="Helvetica,sans-Serif" font-size="10.00">wld_bgdfs.h</text>
</a>
</g>
</g>
<!-- Node3&#45;&gt;Node39 -->
<g id="edge39" class="edge">
<title>Node3&#45;&gt;Node39</title>
<path fill="none" stroke="midnightblue" d="M2156.88,-176.68C2013.1,-174.51 1192.85,-161.04 918.44,-131.87"/>
<polygon fill="midnightblue" stroke="midnightblue" points="918.45,-128.35 908.13,-130.73 917.69,-135.3 918.45,-128.35"/>
</g>
<!-- Node3&#45;&gt;Node40 -->
<g id="edge41" class="edge">
<title>Node3&#45;&gt;Node40</title>
<path fill="none" stroke="midnightblue" d="M2200.1,-177.24C2335.32,-178.43 3077.03,-181.91 3679.5,-132 3682.02,-131.79 3684.59,-131.55 3687.19,-131.29"/>
<polygon fill="midnightblue" stroke="midnightblue" points="3687.77,-134.75 3697.33,-130.18 3687.01,-127.79 3687.77,-134.75"/>
</g>
<!-- Node41 -->
<g id="node38" class="node">
<title>Node41</title>
<g id="a_node38"><a xlink:href="wld__fsm_8h.html" target="_top" xlink:title=" ">
<polygon fill="white" stroke="black" points="1357,-112.5 1357,-131.5 1424,-131.5 1424,-112.5 1357,-112.5"/>
<text text-anchor="middle" x="1390.5" y="-119.5" font-family="Helvetica,sans-Serif" font-size="10.00">wld_fsm.h</text>
</a>
</g>
</g>
<!-- Node3&#45;&gt;Node41 -->
<g id="edge43" class="edge">
<title>Node3&#45;&gt;Node41</title>
<path fill="none" stroke="midnightblue" d="M2156.72,-176.88C2067.99,-176.16 1725.1,-170.95 1434.66,-132.11"/>
<polygon fill="midnightblue" stroke="midnightblue" points="1434.73,-128.59 1424.35,-130.71 1433.79,-135.52 1434.73,-128.59"/>
</g>
<!-- Node42 -->
<g id="node39" class="node">
<title>Node42</title>
<g id="a_node39"><a xlink:href="wld__sensing_8h.html" target="_top" xlink:title=" ">
<polygon fill="white" stroke="black" points="497.5,-112.5 497.5,-131.5 583.5,-131.5 583.5,-112.5 497.5,-112.5"/>
<text text-anchor="middle" x="540.5" y="-119.5" font-family="Helvetica,sans-Serif" font-size="10.00">wld_sensing.h</text>
</a>
</g>
</g>
<!-- Node3&#45;&gt;Node42 -->
<g id="edge45" class="edge">
<title>Node3&#45;&gt;Node42</title>
<path fill="none" stroke="midnightblue" d="M2156.9,-176.79C1992.15,-175.03 933.82,-162.31 593.75,-132.42"/>
<polygon fill="midnightblue" stroke="midnightblue" points="593.93,-128.92 583.65,-131.51 593.3,-135.89 593.93,-128.92"/>
</g>
<!-- Node43 -->
<g id="node40" class="node">
<title>Node43</title>
<g id="a_node40"><a xlink:href="wld__mld_8h.html" target="_top" xlink:title=" ">
<polygon fill="white" stroke="black" points="1442,-112.5 1442,-131.5 1509,-131.5 1509,-112.5 1442,-112.5"/>
<text text-anchor="middle" x="1475.5" y="-119.5" font-family="Helvetica,sans-Serif" font-size="10.00">wld_mld.h</text>
</a>
</g>
</g>
<!-- Node3&#45;&gt;Node43 -->
<g id="edge47" class="edge">
<title>Node3&#45;&gt;Node43</title>
<path fill="none" stroke="midnightblue" d="M2156.99,-176.65C2075.14,-175.1 1775.29,-167.28 1519.58,-132.11"/>
<polygon fill="midnightblue" stroke="midnightblue" points="1519.74,-128.6 1509.35,-130.69 1518.77,-135.54 1519.74,-128.6"/>
</g>
<!-- Node44 -->
<g id="node41" class="node">
<title>Node44</title>
<g id="a_node41"><a xlink:href="wld__autoCommitRadData_8h.html" target="_top" xlink:title=" ">
<polygon fill="white" stroke="black" points="639.5,-112.5 639.5,-131.5 815.5,-131.5 815.5,-112.5 639.5,-112.5"/>
<text text-anchor="middle" x="727.5" y="-119.5" font-family="Helvetica,sans-Serif" font-size="10.00">Utils/wld_autoCommitRadData.h</text>
</a>
</g>
</g>
<!-- Node3&#45;&gt;Node44 -->
<g id="edge49" class="edge">
<title>Node3&#45;&gt;Node44</title>
<path fill="none" stroke="midnightblue" d="M2156.96,-176.77C2030.64,-175.33 1373.04,-166.45 825.7,-132.11"/>
<polygon fill="midnightblue" stroke="midnightblue" points="825.83,-128.61 815.63,-131.47 825.39,-135.59 825.83,-128.61"/>
</g>
<!-- Node45 -->
<g id="node42" class="node">
<title>Node45</title>
<g id="a_node42"><a xlink:href="wld__dmnMgt_8h.html" target="_top" xlink:title=" ">
<polygon fill="white" stroke="red" points="365.5,-112.5 365.5,-131.5 479.5,-131.5 479.5,-112.5 365.5,-112.5"/>
<text text-anchor="middle" x="422.5" y="-119.5" font-family="Helvetica,sans-Serif" font-size="10.00">Utils/wld_dmnMgt.h</text>
</a>
</g>
</g>
<!-- Node3&#45;&gt;Node45 -->
<g id="edge50" class="edge">
<title>Node3&#45;&gt;Node45</title>
<path fill="none" stroke="midnightblue" d="M2156.87,-176.75C1986.36,-174.72 855.87,-160.39 489.78,-131.99"/>
<polygon fill="midnightblue" stroke="midnightblue" points="489.94,-128.49 479.7,-131.19 489.39,-135.47 489.94,-128.49"/>
</g>
<!-- Node34&#45;&gt;Node5 -->
<g id="edge34" class="edge">
<title>Node34&#45;&gt;Node5</title>
<path fill="none" stroke="midnightblue" d="M703.81,-62.15C579.83,-52.79 185.58,-23.01 63.14,-13.77"/>
<polygon fill="midnightblue" stroke="midnightblue" points="63.37,-10.27 53.14,-13.01 62.84,-17.25 63.37,-10.27"/>
</g>
<!-- Node34&#45;&gt;Node10 -->
<g id="edge35" class="edge">
<title>Node34&#45;&gt;Node10</title>
<path fill="none" stroke="midnightblue" d="M779.09,-63.31C951.49,-55.56 1667.22,-23.38 1881.57,-13.74"/>
<polygon fill="midnightblue" stroke="midnightblue" points="1881.86,-17.23 1891.7,-13.28 1881.55,-10.24 1881.86,-17.23"/>
</g>
<!-- Node37&#45;&gt;Node4 -->
<g id="edge37" class="edge">
<title>Node37&#45;&gt;Node4</title>
<path fill="none" stroke="midnightblue" d="M3559.69,-112.89C3556.59,-112.57 3553.51,-112.27 3550.5,-112 3199.07,-80.83 2772.62,-70.36 2639.92,-67.74"/>
<polygon fill="midnightblue" stroke="midnightblue" points="2639.86,-64.24 2629.79,-67.54 2639.72,-71.24 2639.86,-64.24"/>
</g>
<!-- Node37&#45;&gt;Node10 -->
<g id="edge38" class="edge">
<title>Node37&#45;&gt;Node10</title>
<path fill="none" stroke="midnightblue" d="M3559.69,-112.95C3556.58,-112.61 3553.51,-112.29 3550.5,-112 2948.52,-53.9 2216.39,-21.9 2003.34,-13.35"/>
<polygon fill="midnightblue" stroke="midnightblue" points="2003.42,-9.85 1993.29,-12.95 2003.14,-16.85 2003.42,-9.85"/>
</g>
<!-- Node39&#45;&gt;Node34 -->
<g id="edge40" class="edge">
<title>Node39&#45;&gt;Node34</title>
<path fill="none" stroke="midnightblue" d="M850.06,-112.44C828.83,-103.56 795.4,-89.56 771.25,-79.45"/>
<polygon fill="midnightblue" stroke="midnightblue" points="772.42,-76.15 761.84,-75.52 769.72,-82.61 772.42,-76.15"/>
</g>
<!-- Node40&#45;&gt;Node3 -->
<g id="edge42" class="edge">
<title>Node40&#45;&gt;Node3</title>
<path fill="none" stroke="midnightblue" d="M3702.75,-131.53C3700.98,-131.7 3699.23,-131.86 3697.5,-132 3102.18,-181.32 2370.89,-178.5 2210.49,-177.28"/>
<polygon fill="midnightblue" stroke="midnightblue" points="2210.37,-173.78 2200.34,-177.2 2210.31,-180.78 2210.37,-173.78"/>
</g>
<!-- Node41&#45;&gt;Node34 -->
<g id="edge44" class="edge">
<title>Node41&#45;&gt;Node34</title>
<path fill="none" stroke="midnightblue" d="M1356.77,-113.5C1353.65,-112.94 1350.52,-112.43 1347.5,-112 1140.97,-82.85 892,-71.88 789.32,-68.4"/>
<polygon fill="midnightblue" stroke="midnightblue" points="789.38,-64.9 779.27,-68.07 789.15,-71.9 789.38,-64.9"/>
</g>
<!-- Node42&#45;&gt;Node3 -->
<g id="edge46" class="edge">
<title>Node42&#45;&gt;Node3</title>
<path fill="none" stroke="midnightblue" d="M583.55,-129.14C591.24,-130.27 599.12,-131.32 606.5,-132 921.8,-161.26 1952.25,-174.32 2146.73,-176.62"/>
<polygon fill="midnightblue" stroke="midnightblue" points="2146.81,-180.13 2156.85,-176.74 2146.89,-173.13 2146.81,-180.13"/>
</g>
<!-- Node43&#45;&gt;Node34 -->
<g id="edge48" class="edge">
<title>Node43&#45;&gt;Node34</title>
<path fill="none" stroke="midnightblue" d="M1441.78,-113.47C1438.65,-112.92 1435.52,-112.41 1432.5,-112 1192.24,-79.2 901.62,-70.15 789.14,-67.79"/>
<polygon fill="midnightblue" stroke="midnightblue" points="789.21,-64.29 779.14,-67.59 789.07,-71.29 789.21,-64.29"/>
</g>
<!-- Node45&#45;&gt;Node6 -->
<g id="edge51" class="edge">
<title>Node45&#45;&gt;Node6</title>
<path fill="none" stroke="midnightblue" d="M397.78,-112.44C371.65,-103.4 330.24,-89.06 300.92,-78.92"/>
<polygon fill="midnightblue" stroke="midnightblue" points="301.7,-75.48 291.1,-75.52 299.41,-82.1 301.7,-75.48"/>
</g>
<!-- Node45&#45;&gt;Node34 -->
<g id="edge52" class="edge">
<title>Node45&#45;&gt;Node34</title>
<path fill="none" stroke="midnightblue" d="M473.05,-112.44C533.66,-102.18 634.5,-85.11 693.82,-75.07"/>
<polygon fill="midnightblue" stroke="midnightblue" points="694.4,-78.52 703.68,-73.4 693.23,-71.62 694.4,-78.52"/>
</g>
<!-- Node76&#45;&gt;Node18 -->
<g id="edge54" class="edge">
<title>Node76&#45;&gt;Node18</title>
<path fill="none" stroke="midnightblue" d="M4314.12,-173.78C4395.27,-167.77 4570.23,-153.63 4727.47,-132.19"/>
<polygon fill="midnightblue" stroke="midnightblue" points="4728.37,-135.6 4737.8,-130.77 4727.41,-128.66 4728.37,-135.6"/>
</g>
<!-- Node76&#45;&gt;Node19 -->
<g id="edge55" class="edge">
<title>Node76&#45;&gt;Node19</title>
<path fill="none" stroke="midnightblue" d="M4222.79,-171.72C4158.43,-164.15 4037.2,-149.34 3924,-132.17"/>
<polygon fill="midnightblue" stroke="midnightblue" points="3924.19,-128.66 3913.78,-130.61 3923.13,-135.58 3924.19,-128.66"/>
</g>
<!-- Node76&#45;&gt;Node20 -->
<g id="edge56" class="edge">
<title>Node76&#45;&gt;Node20</title>
<path fill="none" stroke="midnightblue" d="M4226.19,-168.44C4179.42,-158.98 4104.04,-143.74 4053.65,-133.55"/>
<polygon fill="midnightblue" stroke="midnightblue" points="4054.1,-130.07 4043.61,-131.52 4052.72,-136.93 4054.1,-130.07"/>
</g>
<!-- Node76&#45;&gt;Node21 -->
<g id="edge57" class="edge">
<title>Node76&#45;&gt;Node21</title>
<path fill="none" stroke="midnightblue" d="M4307.32,-168.44C4350.06,-159.02 4418.83,-143.87 4465.07,-133.68"/>
<polygon fill="midnightblue" stroke="midnightblue" points="4465.85,-137.09 4474.86,-131.52 4464.34,-130.25 4465.85,-137.09"/>
</g>
<!-- Node76&#45;&gt;Node22 -->
<g id="edge58" class="edge">
<title>Node76&#45;&gt;Node22</title>
<path fill="none" stroke="midnightblue" d="M4253.88,-168.32C4239.55,-159.82 4217.49,-146.73 4200.75,-136.8"/>
<polygon fill="midnightblue" stroke="midnightblue" points="4202.47,-133.75 4192.08,-131.65 4198.9,-139.77 4202.47,-133.75"/>
</g>
<!-- Node76&#45;&gt;Node23 -->
<g id="edge59" class="edge">
<title>Node76&#45;&gt;Node23</title>
<path fill="none" stroke="midnightblue" d="M4283.12,-168.32C4297.45,-159.82 4319.51,-146.73 4336.25,-136.8"/>
<polygon fill="midnightblue" stroke="midnightblue" points="4338.1,-139.77 4344.92,-131.65 4334.53,-133.75 4338.1,-139.77"/>
</g>
<!-- Node76&#45;&gt;Node24 -->
<g id="edge60" class="edge">
<title>Node76&#45;&gt;Node24</title>
<path fill="none" stroke="midnightblue" d="M4314.03,-170.65C4380.67,-161.35 4505.39,-143.95 4584.24,-132.94"/>
<polygon fill="midnightblue" stroke="midnightblue" points="4585.16,-136.35 4594.58,-131.5 4584.19,-129.42 4585.16,-136.35"/>
</g>
<!-- Node77&#45;&gt;Node3 -->
<g id="edge62" class="edge">
<title>Node77&#45;&gt;Node3</title>
<path fill="none" stroke="midnightblue" d="M2135.92,-224.08C2143.35,-216.22 2154.35,-204.57 2163.31,-195.08"/>
<polygon fill="midnightblue" stroke="midnightblue" points="2165.91,-197.42 2170.24,-187.75 2160.82,-192.62 2165.91,-197.42"/>
</g>
<!-- Node84&#45;&gt;Node3 -->
<g id="edge64" class="edge">
<title>Node84&#45;&gt;Node3</title>
<path fill="none" stroke="midnightblue" d="M2029.24,-280.29C2037.04,-266.63 2053.83,-240.1 2074.5,-224 2096.21,-207.09 2125.23,-195.23 2147.11,-187.94"/>
<polygon fill="midnightblue" stroke="midnightblue" points="2148.43,-191.19 2156.9,-184.82 2146.31,-184.52 2148.43,-191.19"/>
</g>
<!-- Node84&#45;&gt;Node85 -->
<g id="edge65" class="edge">
<title>Node84&#45;&gt;Node85</title>
<path fill="none" stroke="midnightblue" d="M2014.54,-280.32C2005.37,-272.34 1991.56,-260.31 1980.47,-250.65"/>
<polygon fill="midnightblue" stroke="midnightblue" points="1982.48,-247.76 1972.64,-243.83 1977.88,-253.04 1982.48,-247.76"/>
</g>
<!-- Node85&#45;&gt;Node3 -->
<g id="edge67" class="edge">
<title>Node85&#45;&gt;Node3</title>
<path fill="none" stroke="midnightblue" d="M1996.73,-224.44C2038.09,-214.1 2107.11,-196.85 2147.15,-186.84"/>
<polygon fill="midnightblue" stroke="midnightblue" points="2148.05,-190.22 2156.9,-184.4 2146.35,-183.43 2148.05,-190.22"/>
</g>
<!-- Node85&#45;&gt;Node5 -->
<g id="edge66" class="edge">
<title>Node85&#45;&gt;Node5</title>
<path fill="none" stroke="midnightblue" d="M1928.48,-232.93C1688.05,-232.25 249.56,-224.27 81.5,-132 44.52,-111.7 32.31,-58.69 28.35,-30.04"/>
<polygon fill="midnightblue" stroke="midnightblue" points="31.78,-29.25 27.14,-19.73 24.83,-30.07 31.78,-29.25"/>
</g>
<!-- Node86&#45;&gt;Node3 -->
<g id="edge69" class="edge">
<title>Node86&#45;&gt;Node3</title>
<path fill="none" stroke="midnightblue" d="M2123.22,-280.36C2101.02,-268.62 2068.19,-246.51 2082.5,-224 2096.57,-201.87 2124.7,-190.44 2146.89,-184.65"/>
<polygon fill="midnightblue" stroke="midnightblue" points="2147.97,-187.99 2156.91,-182.3 2146.37,-181.17 2147.97,-187.99"/>
</g>
<!-- Node86&#45;&gt;Node85 -->
<g id="edge70" class="edge">
<title>Node86&#45;&gt;Node85</title>
<path fill="none" stroke="midnightblue" d="M2113.14,-280.44C2082.76,-271.28 2034.39,-256.69 2000.68,-246.52"/>
<polygon fill="midnightblue" stroke="midnightblue" points="2001.32,-243.05 1990.73,-243.52 1999.29,-249.76 2001.32,-243.05"/>
</g>
<!-- Node87&#45;&gt;Node3 -->
<g id="edge72" class="edge">
<title>Node87&#45;&gt;Node3</title>
<path fill="none" stroke="midnightblue" d="M2220.24,-224.08C2213.04,-216.3 2202.39,-204.8 2193.65,-195.37"/>
<polygon fill="midnightblue" stroke="midnightblue" points="2195.97,-192.71 2186.6,-187.75 2190.83,-197.47 2195.97,-192.71"/>
</g>
<!-- Node90&#45;&gt;Node3 -->
<g id="edge74" class="edge">
<title>Node90&#45;&gt;Node3</title>
<path fill="none" stroke="midnightblue" d="M2303.89,-224.44C2278.46,-215.23 2237.87,-200.52 2209.79,-190.34"/>
<polygon fill="midnightblue" stroke="midnightblue" points="2210.66,-186.93 2200.06,-186.82 2208.27,-193.51 2210.66,-186.93"/>
</g>
<!-- Node91&#45;&gt;Node3 -->
<g id="edge77" class="edge">
<title>Node91&#45;&gt;Node3</title>
<path fill="none" stroke="midnightblue" d="M2367.93,-280.35C2374.18,-266.78 2383.47,-240.37 2370.5,-224 2350.83,-199.19 2259.39,-186.74 2210.13,-181.74"/>
<polygon fill="midnightblue" stroke="midnightblue" points="2210.3,-178.24 2200.01,-180.76 2209.63,-185.21 2210.3,-178.24"/>
</g>
</g>
</svg>
