<?xml version="1.0" encoding="UTF-8" standalone="no"?>
<!DOCTYPE svg PUBLIC "-//W3C//DTD SVG 1.1//EN"
 "http://www.w3.org/Graphics/SVG/1.1/DTD/svg11.dtd">
<!-- Generated by graphviz version 2.43.0 (0)
 -->
<!-- Title: src/ApMgt/wld_apMgmt.c Pages: 1 -->
<svg width="4656pt" height="308pt"
 viewBox="0.00 0.00 4655.50 308.00" xmlns="http://www.w3.org/2000/svg" xmlns:xlink="http://www.w3.org/1999/xlink">
<g id="graph0" class="graph" transform="scale(1 1) rotate(0) translate(4 304)">
<title>src/ApMgt/wld_apMgmt.c</title>
<polygon fill="white" stroke="transparent" points="-4,4 -4,-304 4651.5,-304 4651.5,4 -4,4"/>
<!-- Node1 -->
<g id="node1" class="node">
<title>Node1</title>
<g id="a_node1"><a xlink:title=" ">
<polygon fill="#bfbfbf" stroke="black" points="1901,-280.5 1901,-299.5 2041,-299.5 2041,-280.5 1901,-280.5"/>
<text text-anchor="middle" x="1971" y="-287.5" font-family="Helvetica,sans-Serif" font-size="10.00">src/ApMgt/wld_apMgmt.c</text>
</a>
</g>
</g>
<!-- Node2 -->
<g id="node2" class="node">
<title>Node2</title>
<g id="a_node2"><a xlink:title=" ">
<polygon fill="white" stroke="#bfbfbf" points="1519,-224.5 1519,-243.5 1569,-243.5 1569,-224.5 1519,-224.5"/>
<text text-anchor="middle" x="1544" y="-231.5" font-family="Helvetica,sans-Serif" font-size="10.00">stdio.h</text>
</a>
</g>
</g>
<!-- Node1&#45;&gt;Node2 -->
<g id="edge1" class="edge">
<title>Node1&#45;&gt;Node2</title>
<path fill="none" stroke="midnightblue" d="M1900.97,-284.06C1824.17,-277.95 1697.2,-265.81 1579.1,-243.96"/>
<polygon fill="midnightblue" stroke="midnightblue" points="1579.63,-240.5 1569.16,-242.09 1578.34,-247.38 1579.63,-240.5"/>
</g>
<!-- Node3 -->
<g id="node3" class="node">
<title>Node3</title>
<g id="a_node3"><a xlink:title=" ">
<polygon fill="white" stroke="#bfbfbf" points="1587.5,-224.5 1587.5,-243.5 1640.5,-243.5 1640.5,-224.5 1587.5,-224.5"/>
<text text-anchor="middle" x="1614" y="-231.5" font-family="Helvetica,sans-Serif" font-size="10.00">stdlib.h</text>
</a>
</g>
</g>
<!-- Node1&#45;&gt;Node3 -->
<g id="edge2" class="edge">
<title>Node1&#45;&gt;Node3</title>
<path fill="none" stroke="midnightblue" d="M1900.9,-281.51C1837.71,-274.24 1742.12,-261.93 1650.66,-244.16"/>
<polygon fill="midnightblue" stroke="midnightblue" points="1651.17,-240.69 1640.68,-242.19 1649.82,-247.56 1651.17,-240.69"/>
</g>
<!-- Node4 -->
<g id="node4" class="node">
<title>Node4</title>
<g id="a_node4"><a xlink:title=" ">
<polygon fill="white" stroke="#bfbfbf" points="1658.5,-224.5 1658.5,-243.5 1711.5,-243.5 1711.5,-224.5 1658.5,-224.5"/>
<text text-anchor="middle" x="1685" y="-231.5" font-family="Helvetica,sans-Serif" font-size="10.00">string.h</text>
</a>
</g>
</g>
<!-- Node1&#45;&gt;Node4 -->
<g id="edge3" class="edge">
<title>Node1&#45;&gt;Node4</title>
<path fill="none" stroke="midnightblue" d="M1916.91,-280.5C1868.12,-272.55 1794.17,-259.85 1721.48,-244.21"/>
<polygon fill="midnightblue" stroke="midnightblue" points="1722.22,-240.79 1711.7,-242.08 1720.73,-247.63 1722.22,-240.79"/>
</g>
<!-- Node5 -->
<g id="node5" class="node">
<title>Node5</title>
<g id="a_node5"><a xlink:title=" ">
<polygon fill="white" stroke="#bfbfbf" points="1729.5,-224.5 1729.5,-243.5 1830.5,-243.5 1830.5,-224.5 1729.5,-224.5"/>
<text text-anchor="middle" x="1780" y="-231.5" font-family="Helvetica,sans-Serif" font-size="10.00">debug/sahtrace.h</text>
</a>
</g>
</g>
<!-- Node1&#45;&gt;Node5 -->
<g id="edge4" class="edge">
<title>Node1&#45;&gt;Node5</title>
<path fill="none" stroke="midnightblue" d="M1940.74,-280.44C1908.04,-271.2 1855.82,-256.44 1819.82,-246.26"/>
<polygon fill="midnightblue" stroke="midnightblue" points="1820.7,-242.87 1810.12,-243.52 1818.79,-249.61 1820.7,-242.87"/>
</g>
<!-- Node6 -->
<g id="node6" class="node">
<title>Node6</title>
<g id="a_node6"><a xlink:title=" ">
<polygon fill="white" stroke="#bfbfbf" points="1849,-224.5 1849,-243.5 1905,-243.5 1905,-224.5 1849,-224.5"/>
<text text-anchor="middle" x="1877" y="-231.5" font-family="Helvetica,sans-Serif" font-size="10.00">assert.h</text>
</a>
</g>
</g>
<!-- Node1&#45;&gt;Node6 -->
<g id="edge5" class="edge">
<title>Node1&#45;&gt;Node6</title>
<path fill="none" stroke="midnightblue" d="M1955.9,-280.32C1941.1,-271.82 1918.31,-258.73 1901.02,-248.8"/>
<polygon fill="midnightblue" stroke="midnightblue" points="1902.48,-245.6 1892.07,-243.65 1898.99,-251.67 1902.48,-245.6"/>
</g>
<!-- Node7 -->
<g id="node7" class="node">
<title>Node7</title>
<g id="a_node7"><a xlink:href="wld_8h.html" target="_top" xlink:title=" ">
<polygon fill="white" stroke="red" points="2112.5,-168.5 2112.5,-187.5 2155.5,-187.5 2155.5,-168.5 2112.5,-168.5"/>
<text text-anchor="middle" x="2134" y="-175.5" font-family="Helvetica,sans-Serif" font-size="10.00">wld.h</text>
</a>
</g>
</g>
<!-- Node1&#45;&gt;Node7 -->
<g id="edge6" class="edge">
<title>Node1&#45;&gt;Node7</title>
<path fill="none" stroke="midnightblue" d="M1971.07,-280.13C1971.66,-266.26 1974.85,-239.44 1990,-224 2019.76,-193.69 2069.6,-183.72 2102.14,-180.49"/>
<polygon fill="midnightblue" stroke="midnightblue" points="2102.78,-183.95 2112.45,-179.63 2102.2,-176.97 2102.78,-183.95"/>
</g>
<!-- Node16 -->
<g id="node16" class="node">
<title>Node16</title>
<g id="a_node16"><a xlink:title=" ">
<polygon fill="white" stroke="#bfbfbf" points="0,-112.5 0,-131.5 94,-131.5 94,-112.5 0,-112.5"/>
<text text-anchor="middle" x="47" y="-119.5" font-family="Helvetica,sans-Serif" font-size="10.00">swla/swla_oui.h</text>
</a>
</g>
</g>
<!-- Node1&#45;&gt;Node16 -->
<g id="edge64" class="edge">
<title>Node1&#45;&gt;Node16</title>
<path fill="none" stroke="midnightblue" d="M1966.45,-280.28C1958.23,-265.59 1939.39,-236.3 1914,-224 1735.28,-137.41 326.95,-147.95 129,-132 120.98,-131.35 112.54,-130.56 104.23,-129.71"/>
<polygon fill="midnightblue" stroke="midnightblue" points="104.53,-126.22 94.22,-128.65 103.8,-133.18 104.53,-126.22"/>
</g>
<!-- Node53 -->
<g id="node45" class="node">
<title>Node53</title>
<g id="a_node45"><a xlink:title=" ">
<polygon fill="white" stroke="#bfbfbf" points="4550.5,-112.5 4550.5,-131.5 4647.5,-131.5 4647.5,-112.5 4550.5,-112.5"/>
<text text-anchor="middle" x="4599" y="-119.5" font-family="Helvetica,sans-Serif" font-size="10.00">swl/swl_assert.h</text>
</a>
</g>
</g>
<!-- Node1&#45;&gt;Node53 -->
<g id="edge62" class="edge">
<title>Node1&#45;&gt;Node53</title>
<path fill="none" stroke="midnightblue" d="M2041.34,-288.79C2123,-286.8 2260.92,-278.06 2374,-244 2392.65,-238.38 2394.17,-228.98 2413,-224 2867.36,-103.85 4053.02,-177.52 4540.01,-131.95"/>
<polygon fill="midnightblue" stroke="midnightblue" points="4540.7,-135.4 4550.32,-130.95 4540.03,-128.43 4540.7,-135.4"/>
</g>
<!-- Node80 -->
<g id="node46" class="node">
<title>Node80</title>
<g id="a_node46"><a xlink:href="wld__util_8h.html" target="_top" xlink:title=" ">
<polygon fill="white" stroke="black" points="1999,-224.5 1999,-243.5 2063,-243.5 2063,-224.5 1999,-224.5"/>
<text text-anchor="middle" x="2031" y="-231.5" font-family="Helvetica,sans-Serif" font-size="10.00">wld_util.h</text>
</a>
</g>
</g>
<!-- Node1&#45;&gt;Node80 -->
<g id="edge54" class="edge">
<title>Node1&#45;&gt;Node80</title>
<path fill="none" stroke="midnightblue" d="M1980.64,-280.32C1989.51,-272.34 2002.87,-260.31 2013.61,-250.65"/>
<polygon fill="midnightblue" stroke="midnightblue" points="2016.09,-253.13 2021.18,-243.83 2011.41,-247.92 2016.09,-253.13"/>
</g>
<!-- Node81 -->
<g id="node47" class="node">
<title>Node81</title>
<g id="a_node47"><a xlink:href="wld__accesspoint_8h.html" target="_top" xlink:title=" ">
<polygon fill="white" stroke="red" points="2081,-224.5 2081,-243.5 2187,-243.5 2187,-224.5 2081,-224.5"/>
<text text-anchor="middle" x="2134" y="-231.5" font-family="Helvetica,sans-Serif" font-size="10.00">wld_accesspoint.h</text>
</a>
</g>
</g>
<!-- Node1&#45;&gt;Node81 -->
<g id="edge56" class="edge">
<title>Node1&#45;&gt;Node81</title>
<path fill="none" stroke="midnightblue" d="M1996.83,-280.44C2024.25,-271.36 2067.78,-256.94 2098.43,-246.78"/>
<polygon fill="midnightblue" stroke="midnightblue" points="2099.9,-249.98 2108.29,-243.52 2097.7,-243.34 2099.9,-249.98"/>
</g>
<!-- Node83 -->
<g id="node48" class="node">
<title>Node83</title>
<g id="a_node48"><a xlink:href="wld__ssid_8h.html" target="_top" xlink:title=" ">
<polygon fill="white" stroke="black" points="2205,-224.5 2205,-243.5 2273,-243.5 2273,-224.5 2205,-224.5"/>
<text text-anchor="middle" x="2239" y="-231.5" font-family="Helvetica,sans-Serif" font-size="10.00">wld_ssid.h</text>
</a>
</g>
</g>
<!-- Node1&#45;&gt;Node83 -->
<g id="edge58" class="edge">
<title>Node1&#45;&gt;Node83</title>
<path fill="none" stroke="midnightblue" d="M2014.16,-280.49C2057.34,-271.94 2125.96,-258.29 2194.61,-244.27"/>
<polygon fill="midnightblue" stroke="midnightblue" points="2195.64,-247.63 2204.74,-242.2 2194.24,-240.77 2195.64,-247.63"/>
</g>
<!-- Node84 -->
<g id="node49" class="node">
<title>Node84</title>
<g id="a_node49"><a xlink:href="wld__radio_8h.html" target="_top" xlink:title=" ">
<polygon fill="white" stroke="red" points="2291.5,-224.5 2291.5,-243.5 2364.5,-243.5 2364.5,-224.5 2291.5,-224.5"/>
<text text-anchor="middle" x="2328" y="-231.5" font-family="Helvetica,sans-Serif" font-size="10.00">wld_radio.h</text>
</a>
</g>
</g>
<!-- Node1&#45;&gt;Node84 -->
<g id="edge60" class="edge">
<title>Node1&#45;&gt;Node84</title>
<path fill="none" stroke="midnightblue" d="M2036.37,-280.5C2097.19,-272.37 2190.58,-259.34 2281.45,-244.02"/>
<polygon fill="midnightblue" stroke="midnightblue" points="2282.1,-247.46 2291.37,-242.34 2280.93,-240.56 2282.1,-247.46"/>
</g>
<!-- Node91 -->
<g id="node50" class="node">
<title>Node91</title>
<g id="a_node50"><a xlink:title=" ">
<polygon fill="white" stroke="#bfbfbf" points="2421.5,-224.5 2421.5,-243.5 2506.5,-243.5 2506.5,-224.5 2421.5,-224.5"/>
<text text-anchor="middle" x="2464" y="-231.5" font-family="Helvetica,sans-Serif" font-size="10.00">swl/swl_hex.h</text>
</a>
</g>
</g>
<!-- Node1&#45;&gt;Node91 -->
<g id="edge63" class="edge">
<title>Node1&#45;&gt;Node91</title>
<path fill="none" stroke="midnightblue" d="M2041.36,-282.91C2127.66,-275.17 2278.35,-260.78 2407,-244 2408.46,-243.81 2409.94,-243.61 2411.43,-243.41"/>
<polygon fill="midnightblue" stroke="midnightblue" points="2411.99,-246.86 2421.39,-241.98 2411,-239.93 2411.99,-246.86"/>
</g>
<!-- Node8 -->
<g id="node8" class="node">
<title>Node8</title>
<g id="a_node8"><a xlink:title=" ">
<polygon fill="white" stroke="#bfbfbf" points="111,-56.5 111,-75.5 173,-75.5 173,-56.5 111,-56.5"/>
<text text-anchor="middle" x="142" y="-63.5" font-family="Helvetica,sans-Serif" font-size="10.00">stdbool.h</text>
</a>
</g>
</g>
<!-- Node7&#45;&gt;Node8 -->
<g id="edge7" class="edge">
<title>Node7&#45;&gt;Node8</title>
<path fill="none" stroke="midnightblue" d="M2112.41,-175.76C2077.61,-173.81 2006.93,-170.04 1947,-168 1896.85,-166.29 176.12,-167.83 141,-132 129.29,-120.05 131.47,-100.15 135.39,-85.51"/>
<polygon fill="midnightblue" stroke="midnightblue" points="138.86,-86.15 138.52,-75.56 132.18,-84.05 138.86,-86.15"/>
</g>
<!-- Node9 -->
<g id="node9" class="node">
<title>Node9</title>
<g id="a_node9"><a xlink:title=" ">
<polygon fill="white" stroke="#bfbfbf" points="515.5,-0.5 515.5,-19.5 568.5,-19.5 568.5,-0.5 515.5,-0.5"/>
<text text-anchor="middle" x="542" y="-7.5" font-family="Helvetica,sans-Serif" font-size="10.00">stdint.h</text>
</a>
</g>
</g>
<!-- Node7&#45;&gt;Node9 -->
<g id="edge8" class="edge">
<title>Node7&#45;&gt;Node9</title>
<path fill="none" stroke="midnightblue" d="M2112.41,-175.82C2077.6,-173.95 2006.92,-170.28 1947,-168 1875.36,-165.28 722.48,-161.19 657,-132 607.75,-110.04 569.34,-56.09 552.03,-28.24"/>
<polygon fill="midnightblue" stroke="midnightblue" points="554.97,-26.33 546.81,-19.58 548.97,-29.95 554.97,-26.33"/>
</g>
<!-- Node10 -->
<g id="node10" class="node">
<title>Node10</title>
<g id="a_node10"><a xlink:title=" ">
<polygon fill="white" stroke="#bfbfbf" points="666,-112.5 666,-131.5 776,-131.5 776,-112.5 666,-112.5"/>
<text text-anchor="middle" x="721" y="-119.5" font-family="Helvetica,sans-Serif" font-size="10.00">swl/swl_common.h</text>
</a>
</g>
</g>
<!-- Node7&#45;&gt;Node10 -->
<g id="edge9" class="edge">
<title>Node7&#45;&gt;Node10</title>
<path fill="none" stroke="midnightblue" d="M2112.41,-175.84C2077.6,-174 2006.92,-170.37 1947,-168 1434.11,-147.71 1301.55,-175.67 786.42,-132.02"/>
<polygon fill="midnightblue" stroke="midnightblue" points="786.38,-128.5 776.11,-131.14 785.78,-135.47 786.38,-128.5"/>
</g>
<!-- Node11 -->
<g id="node11" class="node">
<title>Node11</title>
<g id="a_node11"><a xlink:title=" ">
<polygon fill="white" stroke="#bfbfbf" points="794,-112.5 794,-131.5 930,-131.5 930,-112.5 794,-112.5"/>
<text text-anchor="middle" x="862" y="-119.5" font-family="Helvetica,sans-Serif" font-size="10.00">swla/swla_commonLib.h</text>
</a>
</g>
</g>
<!-- Node7&#45;&gt;Node11 -->
<g id="edge10" class="edge">
<title>Node7&#45;&gt;Node11</title>
<path fill="none" stroke="midnightblue" d="M2112.41,-175.87C2077.6,-174.08 2006.92,-170.51 1947,-168 1502.5,-149.37 1387.72,-165.8 940.69,-132.07"/>
<polygon fill="midnightblue" stroke="midnightblue" points="940.64,-128.55 930.41,-131.29 940.11,-135.53 940.64,-128.55"/>
</g>
<!-- Node12 -->
<g id="node12" class="node">
<title>Node12</title>
<g id="a_node12"><a xlink:title=" ">
<polygon fill="white" stroke="#bfbfbf" points="948,-112.5 948,-131.5 1036,-131.5 1036,-112.5 948,-112.5"/>
<text text-anchor="middle" x="992" y="-119.5" font-family="Helvetica,sans-Serif" font-size="10.00">swl/swl_uuid.h</text>
</a>
</g>
</g>
<!-- Node7&#45;&gt;Node12 -->
<g id="edge11" class="edge">
<title>Node7&#45;&gt;Node12</title>
<path fill="none" stroke="midnightblue" d="M2112.41,-175.9C2077.6,-174.15 2006.91,-170.64 1947,-168 1549.51,-150.5 1445.75,-173.29 1046.28,-131.99"/>
<polygon fill="midnightblue" stroke="midnightblue" points="1046.5,-128.49 1036.19,-130.94 1045.77,-135.46 1046.5,-128.49"/>
</g>
<!-- Node13 -->
<g id="node13" class="node">
<title>Node13</title>
<g id="a_node13"><a xlink:title=" ">
<polygon fill="white" stroke="#bfbfbf" points="1054,-112.5 1054,-131.5 1206,-131.5 1206,-112.5 1054,-112.5"/>
<text text-anchor="middle" x="1130" y="-119.5" font-family="Helvetica,sans-Serif" font-size="10.00">swla/swla_radioStandards.h</text>
</a>
</g>
</g>
<!-- Node7&#45;&gt;Node13 -->
<g id="edge12" class="edge">
<title>Node7&#45;&gt;Node13</title>
<path fill="none" stroke="midnightblue" d="M2112.34,-175.96C1982.62,-169.7 1311.48,-137.33 1216.55,-131.93"/>
<polygon fill="midnightblue" stroke="midnightblue" points="1216.63,-128.42 1206.44,-131.3 1216.2,-135.41 1216.63,-128.42"/>
</g>
<!-- Node14 -->
<g id="node14" class="node">
<title>Node14</title>
<g id="a_node14"><a xlink:title=" ">
<polygon fill="white" stroke="#bfbfbf" points="247.5,-0.5 247.5,-19.5 348.5,-19.5 348.5,-0.5 247.5,-0.5"/>
<text text-anchor="middle" x="298" y="-7.5" font-family="Helvetica,sans-Serif" font-size="10.00">swla/swla_time.h</text>
</a>
</g>
</g>
<!-- Node7&#45;&gt;Node14 -->
<g id="edge13" class="edge">
<title>Node7&#45;&gt;Node14</title>
<path fill="none" stroke="midnightblue" d="M2112.41,-175.78C2077.61,-173.86 2006.93,-170.12 1947,-168 1902.52,-166.43 381.45,-157.55 345,-132 311.58,-108.57 301.92,-57.72 299.13,-29.98"/>
<polygon fill="midnightblue" stroke="midnightblue" points="302.59,-29.35 298.31,-19.66 295.61,-29.91 302.59,-29.35"/>
</g>
<!-- Node15 -->
<g id="node15" class="node">
<title>Node15</title>
<g id="a_node15"><a xlink:title=" ">
<polygon fill="white" stroke="#bfbfbf" points="1224.5,-112.5 1224.5,-131.5 1353.5,-131.5 1353.5,-112.5 1224.5,-112.5"/>
<text text-anchor="middle" x="1289" y="-119.5" font-family="Helvetica,sans-Serif" font-size="10.00">swla/swla_time_spec.h</text>
</a>
</g>
</g>
<!-- Node7&#45;&gt;Node15 -->
<g id="edge14" class="edge">
<title>Node7&#45;&gt;Node15</title>
<path fill="none" stroke="midnightblue" d="M2112.39,-175.92C2005.73,-170.58 1534,-146.61 1363.61,-131.98"/>
<polygon fill="midnightblue" stroke="midnightblue" points="1363.82,-128.48 1353.55,-131.09 1363.2,-135.46 1363.82,-128.48"/>
</g>
<!-- Node7&#45;&gt;Node16 -->
<g id="edge15" class="edge">
<title>Node7&#45;&gt;Node16</title>
<path fill="none" stroke="midnightblue" d="M2112.41,-175.76C2077.61,-173.81 2006.93,-170.03 1947,-168 1129.98,-140.35 922.67,-199.8 108,-132 106.74,-131.9 105.47,-131.78 104.18,-131.66"/>
<polygon fill="midnightblue" stroke="midnightblue" points="104.54,-128.18 94.22,-130.57 103.78,-135.14 104.54,-128.18"/>
</g>
<!-- Node17 -->
<g id="node17" class="node">
<title>Node17</title>
<g id="a_node17"><a xlink:title=" ">
<polygon fill="white" stroke="#bfbfbf" points="1372,-112.5 1372,-131.5 1500,-131.5 1500,-112.5 1372,-112.5"/>
<text text-anchor="middle" x="1436" y="-119.5" font-family="Helvetica,sans-Serif" font-size="10.00">swla/swla_delayExec.h</text>
</a>
</g>
</g>
<!-- Node7&#45;&gt;Node17 -->
<g id="edge16" class="edge">
<title>Node7&#45;&gt;Node17</title>
<path fill="none" stroke="midnightblue" d="M2112.38,-175.84C2033.39,-171.53 1752.85,-155.48 1510.14,-132.06"/>
<polygon fill="midnightblue" stroke="midnightblue" points="1510.37,-128.57 1500.07,-131.09 1509.69,-135.54 1510.37,-128.57"/>
</g>
<!-- Node18 -->
<g id="node18" class="node">
<title>Node18</title>
<g id="a_node18"><a xlink:title=" ">
<polygon fill="white" stroke="#bfbfbf" points="1518.5,-112.5 1518.5,-131.5 1637.5,-131.5 1637.5,-112.5 1518.5,-112.5"/>
<text text-anchor="middle" x="1578" y="-119.5" font-family="Helvetica,sans-Serif" font-size="10.00">swla/swla_function.h</text>
</a>
</g>
</g>
<!-- Node7&#45;&gt;Node18 -->
<g id="edge17" class="edge">
<title>Node7&#45;&gt;Node18</title>
<path fill="none" stroke="midnightblue" d="M2112.08,-175.29C2044.52,-169.96 1833.28,-152.78 1647.63,-132.15"/>
<polygon fill="midnightblue" stroke="midnightblue" points="1648.01,-128.67 1637.69,-131.04 1647.24,-135.63 1648.01,-128.67"/>
</g>
<!-- Node19 -->
<g id="node19" class="node">
<title>Node19</title>
<g id="a_node19"><a xlink:title=" ">
<polygon fill="white" stroke="#bfbfbf" points="1655.5,-112.5 1655.5,-131.5 1796.5,-131.5 1796.5,-112.5 1655.5,-112.5"/>
<text text-anchor="middle" x="1726" y="-119.5" font-family="Helvetica,sans-Serif" font-size="10.00">swl/swl_usp_cmdStatus.h</text>
</a>
</g>
</g>
<!-- Node7&#45;&gt;Node19 -->
<g id="edge18" class="edge">
<title>Node7&#45;&gt;Node19</title>
<path fill="none" stroke="midnightblue" d="M2112.35,-174.13C2054.73,-166.51 1895.54,-145.44 1800.44,-132.85"/>
<polygon fill="midnightblue" stroke="midnightblue" points="1800.68,-129.35 1790.31,-131.51 1799.76,-136.29 1800.68,-129.35"/>
</g>
<!-- Node20 -->
<g id="node20" class="node">
<title>Node20</title>
<g id="a_node20"><a xlink:title=" ">
<polygon fill="white" stroke="#bfbfbf" points="1815,-112.5 1815,-131.5 1901,-131.5 1901,-112.5 1815,-112.5"/>
<text text-anchor="middle" x="1858" y="-119.5" font-family="Helvetica,sans-Serif" font-size="10.00">swl/swl_wps.h</text>
</a>
</g>
</g>
<!-- Node7&#45;&gt;Node20 -->
<g id="edge19" class="edge">
<title>Node7&#45;&gt;Node20</title>
<path fill="none" stroke="midnightblue" d="M2112.34,-172.76C2069.31,-164.34 1971.93,-145.29 1910.93,-133.36"/>
<polygon fill="midnightblue" stroke="midnightblue" points="1911.58,-129.92 1901.09,-131.43 1910.23,-136.79 1911.58,-129.92"/>
</g>
<!-- Node21 -->
<g id="node21" class="node">
<title>Node21</title>
<g id="a_node21"><a xlink:title=" ">
<polygon fill="white" stroke="#bfbfbf" points="1919,-112.5 1919,-131.5 2023,-131.5 2023,-112.5 1919,-112.5"/>
<text text-anchor="middle" x="1971" y="-119.5" font-family="Helvetica,sans-Serif" font-size="10.00">swl/swl_security.h</text>
</a>
</g>
</g>
<!-- Node7&#45;&gt;Node21 -->
<g id="edge20" class="edge">
<title>Node7&#45;&gt;Node21</title>
<path fill="none" stroke="midnightblue" d="M2112.35,-169.83C2085.28,-160.86 2038.56,-145.38 2006.28,-134.69"/>
<polygon fill="midnightblue" stroke="midnightblue" points="2007.36,-131.36 1996.77,-131.54 2005.16,-138 2007.36,-131.36"/>
</g>
<!-- Node22 -->
<g id="node22" class="node">
<title>Node22</title>
<g id="a_node22"><a xlink:title=" ">
<polygon fill="white" stroke="#bfbfbf" points="2041.5,-112.5 2041.5,-131.5 2124.5,-131.5 2124.5,-112.5 2041.5,-112.5"/>
<text text-anchor="middle" x="2083" y="-119.5" font-family="Helvetica,sans-Serif" font-size="10.00">amxc/amxc.h</text>
</a>
</g>
</g>
<!-- Node7&#45;&gt;Node22 -->
<g id="edge21" class="edge">
<title>Node7&#45;&gt;Node22</title>
<path fill="none" stroke="midnightblue" d="M2125.58,-168.08C2118.15,-160.22 2107.15,-148.57 2098.19,-139.08"/>
<polygon fill="midnightblue" stroke="midnightblue" points="2100.68,-136.62 2091.26,-131.75 2095.59,-141.42 2100.68,-136.62"/>
</g>
<!-- Node23 -->
<g id="node23" class="node">
<title>Node23</title>
<g id="a_node23"><a xlink:title=" ">
<polygon fill="white" stroke="#bfbfbf" points="2143,-112.5 2143,-131.5 2227,-131.5 2227,-112.5 2143,-112.5"/>
<text text-anchor="middle" x="2185" y="-119.5" font-family="Helvetica,sans-Serif" font-size="10.00">amxp/amxp.h</text>
</a>
</g>
</g>
<!-- Node7&#45;&gt;Node23 -->
<g id="edge22" class="edge">
<title>Node7&#45;&gt;Node23</title>
<path fill="none" stroke="midnightblue" d="M2142.42,-168.08C2149.85,-160.22 2160.85,-148.57 2169.81,-139.08"/>
<polygon fill="midnightblue" stroke="midnightblue" points="2172.41,-141.42 2176.74,-131.75 2167.32,-136.62 2172.41,-141.42"/>
</g>
<!-- Node24 -->
<g id="node24" class="node">
<title>Node24</title>
<g id="a_node24"><a xlink:title=" ">
<polygon fill="white" stroke="#bfbfbf" points="2245,-112.5 2245,-131.5 2385,-131.5 2385,-112.5 2245,-112.5"/>
<text text-anchor="middle" x="2315" y="-119.5" font-family="Helvetica,sans-Serif" font-size="10.00">amxd/amxd_parameter.h</text>
</a>
</g>
</g>
<!-- Node7&#45;&gt;Node24 -->
<g id="edge23" class="edge">
<title>Node7&#45;&gt;Node24</title>
<path fill="none" stroke="midnightblue" d="M2155.83,-170.49C2185.66,-161.59 2239.61,-145.49 2276.36,-134.53"/>
<polygon fill="midnightblue" stroke="midnightblue" points="2277.65,-137.8 2286.23,-131.58 2275.65,-131.09 2277.65,-137.8"/>
</g>
<!-- Node25 -->
<g id="node25" class="node">
<title>Node25</title>
<g id="a_node25"><a xlink:title=" ">
<polygon fill="white" stroke="#bfbfbf" points="2403.5,-112.5 2403.5,-131.5 2522.5,-131.5 2522.5,-112.5 2403.5,-112.5"/>
<text text-anchor="middle" x="2463" y="-119.5" font-family="Helvetica,sans-Serif" font-size="10.00">amxd/amxd_action.h</text>
</a>
</g>
</g>
<!-- Node7&#45;&gt;Node25 -->
<g id="edge24" class="edge">
<title>Node7&#45;&gt;Node25</title>
<path fill="none" stroke="midnightblue" d="M2155.59,-173.46C2204.67,-165.4 2326.17,-145.46 2400.89,-133.19"/>
<polygon fill="midnightblue" stroke="midnightblue" points="2401.81,-136.59 2411.11,-131.52 2400.67,-129.68 2401.81,-136.59"/>
</g>
<!-- Node26 -->
<g id="node26" class="node">
<title>Node26</title>
<g id="a_node26"><a xlink:title=" ">
<polygon fill="white" stroke="#bfbfbf" points="2540.5,-112.5 2540.5,-131.5 2715.5,-131.5 2715.5,-112.5 2540.5,-112.5"/>
<text text-anchor="middle" x="2628" y="-119.5" font-family="Helvetica,sans-Serif" font-size="10.00">amxd/amxd_object_parameter.h</text>
</a>
</g>
</g>
<!-- Node7&#45;&gt;Node26 -->
<g id="edge25" class="edge">
<title>Node7&#45;&gt;Node26</title>
<path fill="none" stroke="midnightblue" d="M2155.54,-174.64C2221.32,-167.46 2422.17,-145.5 2539.75,-132.65"/>
<polygon fill="midnightblue" stroke="midnightblue" points="2540.25,-136.11 2549.81,-131.55 2539.49,-129.15 2540.25,-136.11"/>
</g>
<!-- Node27 -->
<g id="node27" class="node">
<title>Node27</title>
<g id="a_node27"><a xlink:title=" ">
<polygon fill="white" stroke="#bfbfbf" points="2734,-112.5 2734,-131.5 2886,-131.5 2886,-112.5 2734,-112.5"/>
<text text-anchor="middle" x="2810" y="-119.5" font-family="Helvetica,sans-Serif" font-size="10.00">amxd/amxd_object_event.h</text>
</a>
</g>
</g>
<!-- Node7&#45;&gt;Node27 -->
<g id="edge26" class="edge">
<title>Node7&#45;&gt;Node27</title>
<path fill="none" stroke="midnightblue" d="M2155.75,-175.58C2232.09,-170.53 2495.02,-152.74 2723.39,-132.12"/>
<polygon fill="midnightblue" stroke="midnightblue" points="2723.91,-135.59 2733.55,-131.2 2723.28,-128.62 2723.91,-135.59"/>
</g>
<!-- Node28 -->
<g id="node28" class="node">
<title>Node28</title>
<g id="a_node28"><a xlink:title=" ">
<polygon fill="white" stroke="#bfbfbf" points="2904.5,-112.5 2904.5,-131.5 3033.5,-131.5 3033.5,-112.5 2904.5,-112.5"/>
<text text-anchor="middle" x="2969" y="-119.5" font-family="Helvetica,sans-Serif" font-size="10.00">amxd/amxd_function.h</text>
</a>
</g>
</g>
<!-- Node7&#45;&gt;Node28 -->
<g id="edge27" class="edge">
<title>Node7&#45;&gt;Node28</title>
<path fill="none" stroke="midnightblue" d="M2155.52,-176.22C2244.78,-172.86 2594.72,-158.71 2894.26,-132"/>
<polygon fill="midnightblue" stroke="midnightblue" points="2894.8,-135.47 2904.45,-131.09 2894.18,-128.5 2894.8,-135.47"/>
</g>
<!-- Node29 -->
<g id="node29" class="node">
<title>Node29</title>
<g id="a_node29"><a xlink:title=" ">
<polygon fill="white" stroke="#bfbfbf" points="3051.5,-112.5 3051.5,-131.5 3220.5,-131.5 3220.5,-112.5 3051.5,-112.5"/>
<text text-anchor="middle" x="3136" y="-119.5" font-family="Helvetica,sans-Serif" font-size="10.00">amxd/amxd_object_hierarchy.h</text>
</a>
</g>
</g>
<!-- Node7&#45;&gt;Node29 -->
<g id="edge28" class="edge">
<title>Node7&#45;&gt;Node29</title>
<path fill="none" stroke="midnightblue" d="M2155.83,-176.3C2255.94,-173 2681.23,-158.14 3041.27,-132.1"/>
<polygon fill="midnightblue" stroke="midnightblue" points="3041.65,-135.58 3051.37,-131.36 3041.14,-128.6 3041.65,-135.58"/>
</g>
<!-- Node30 -->
<g id="node30" class="node">
<title>Node30</title>
<g id="a_node30"><a xlink:title=" ">
<polygon fill="white" stroke="#bfbfbf" points="3238.5,-112.5 3238.5,-131.5 3357.5,-131.5 3357.5,-112.5 3238.5,-112.5"/>
<text text-anchor="middle" x="3298" y="-119.5" font-family="Helvetica,sans-Serif" font-size="10.00">amxd/amxd_object.h</text>
</a>
</g>
</g>
<!-- Node7&#45;&gt;Node30 -->
<g id="edge29" class="edge">
<title>Node7&#45;&gt;Node30</title>
<path fill="none" stroke="midnightblue" d="M2155.66,-176.17C2299.36,-170.63 3112.59,-139.2 3228.33,-131.92"/>
<polygon fill="midnightblue" stroke="midnightblue" points="3228.6,-135.41 3238.33,-131.21 3228.11,-128.43 3228.6,-135.41"/>
</g>
<!-- Node31 -->
<g id="node31" class="node">
<title>Node31</title>
<g id="a_node31"><a xlink:title=" ">
<polygon fill="white" stroke="#bfbfbf" points="3375.5,-112.5 3375.5,-131.5 3480.5,-131.5 3480.5,-112.5 3375.5,-112.5"/>
<text text-anchor="middle" x="3428" y="-119.5" font-family="Helvetica,sans-Serif" font-size="10.00">amxd/amxd_dm.h</text>
</a>
</g>
</g>
<!-- Node7&#45;&gt;Node31 -->
<g id="edge30" class="edge">
<title>Node7&#45;&gt;Node31</title>
<path fill="none" stroke="midnightblue" d="M2155.63,-176.2C2198.33,-174.63 2296.48,-171.02 2379,-168 2814.79,-152.06 2927.73,-171.82 3365.4,-132.05"/>
<polygon fill="midnightblue" stroke="midnightblue" points="3365.83,-135.52 3375.47,-131.12 3365.19,-128.55 3365.83,-135.52"/>
</g>
<!-- Node32 -->
<g id="node32" class="node">
<title>Node32</title>
<g id="a_node32"><a xlink:title=" ">
<polygon fill="white" stroke="#bfbfbf" points="3499,-112.5 3499,-131.5 3643,-131.5 3643,-112.5 3499,-112.5"/>
<text text-anchor="middle" x="3571" y="-119.5" font-family="Helvetica,sans-Serif" font-size="10.00">amxd/amxd_transaction.h</text>
</a>
</g>
</g>
<!-- Node7&#45;&gt;Node32 -->
<g id="edge31" class="edge">
<title>Node7&#45;&gt;Node32</title>
<path fill="none" stroke="midnightblue" d="M2155.63,-176.17C2198.33,-174.55 2296.48,-170.85 2379,-168 2869.37,-151.05 2995.51,-167.08 3488.37,-132.06"/>
<polygon fill="midnightblue" stroke="midnightblue" points="3488.88,-135.53 3498.6,-131.33 3488.38,-128.55 3488.88,-135.53"/>
</g>
<!-- Node33 -->
<g id="node33" class="node">
<title>Node33</title>
<g id="a_node33"><a xlink:title=" ">
<polygon fill="white" stroke="#bfbfbf" points="3661,-112.5 3661,-131.5 3777,-131.5 3777,-112.5 3661,-112.5"/>
<text text-anchor="middle" x="3719" y="-119.5" font-family="Helvetica,sans-Serif" font-size="10.00">amxb/amxb_types.h</text>
</a>
</g>
</g>
<!-- Node7&#45;&gt;Node33 -->
<g id="edge32" class="edge">
<title>Node7&#45;&gt;Node33</title>
<path fill="none" stroke="midnightblue" d="M2155.63,-176.14C2198.33,-174.47 2296.47,-170.68 2379,-168 2941.39,-149.72 3086.16,-177.41 3650.91,-131.99"/>
<polygon fill="midnightblue" stroke="midnightblue" points="3651.25,-135.47 3660.94,-131.18 3650.69,-128.5 3651.25,-135.47"/>
</g>
<!-- Node34 -->
<g id="node34" class="node">
<title>Node34</title>
<g id="a_node34"><a xlink:title=" ">
<polygon fill="white" stroke="#bfbfbf" points="3795,-112.5 3795,-131.5 3931,-131.5 3931,-112.5 3795,-112.5"/>
<text text-anchor="middle" x="3863" y="-119.5" font-family="Helvetica,sans-Serif" font-size="10.00">amxb/amxb_operators.h</text>
</a>
</g>
</g>
<!-- Node7&#45;&gt;Node34 -->
<g id="edge33" class="edge">
<title>Node7&#45;&gt;Node34</title>
<path fill="none" stroke="midnightblue" d="M2155.63,-176.12C2198.32,-174.41 2296.47,-170.57 2379,-168 3000.88,-148.62 3160.33,-176.06 3784.44,-132.04"/>
<polygon fill="midnightblue" stroke="midnightblue" points="3784.87,-135.52 3794.6,-131.32 3784.37,-128.54 3784.87,-135.52"/>
</g>
<!-- Node35 -->
<g id="node35" class="node">
<title>Node35</title>
<g id="a_node35"><a xlink:title=" ">
<polygon fill="white" stroke="#bfbfbf" points="3949,-112.5 3949,-131.5 4061,-131.5 4061,-112.5 3949,-112.5"/>
<text text-anchor="middle" x="4005" y="-119.5" font-family="Helvetica,sans-Serif" font-size="10.00">amxb/amxb_error.h</text>
</a>
</g>
</g>
<!-- Node7&#45;&gt;Node35 -->
<g id="edge34" class="edge">
<title>Node7&#45;&gt;Node35</title>
<path fill="none" stroke="midnightblue" d="M2155.63,-176.11C2198.32,-174.36 2296.46,-170.47 2379,-168 3069.27,-147.36 3246.55,-187.29 3938.45,-132.02"/>
<polygon fill="midnightblue" stroke="midnightblue" points="3938.99,-135.49 3948.67,-131.2 3938.43,-128.51 3938.99,-135.49"/>
</g>
<!-- Node36 -->
<g id="node36" class="node">
<title>Node36</title>
<g id="a_node36"><a xlink:title=" ">
<polygon fill="white" stroke="#bfbfbf" points="4079.5,-112.5 4079.5,-131.5 4162.5,-131.5 4162.5,-112.5 4079.5,-112.5"/>
<text text-anchor="middle" x="4121" y="-119.5" font-family="Helvetica,sans-Serif" font-size="10.00">amxo/amxo.h</text>
</a>
</g>
</g>
<!-- Node7&#45;&gt;Node36 -->
<g id="edge35" class="edge">
<title>Node7&#45;&gt;Node36</title>
<path fill="none" stroke="midnightblue" d="M2155.63,-176.09C2198.32,-174.33 2296.46,-170.39 2379,-168 2751.4,-157.2 3679.44,-168.56 4069.09,-131.88"/>
<polygon fill="midnightblue" stroke="midnightblue" points="4069.71,-135.34 4079.32,-130.89 4069.03,-128.37 4069.71,-135.34"/>
</g>
<!-- Node37 -->
<g id="node37" class="node">
<title>Node37</title>
<g id="a_node37"><a xlink:title=" ">
<polygon fill="white" stroke="#bfbfbf" points="4180.5,-112.5 4180.5,-131.5 4295.5,-131.5 4295.5,-112.5 4180.5,-112.5"/>
<text text-anchor="middle" x="4238" y="-119.5" font-family="Helvetica,sans-Serif" font-size="10.00">amxo/amxo_types.h</text>
</a>
</g>
</g>
<!-- Node7&#45;&gt;Node37 -->
<g id="edge36" class="edge">
<title>Node7&#45;&gt;Node37</title>
<path fill="none" stroke="midnightblue" d="M2155.63,-176.08C2198.32,-174.3 2296.46,-170.34 2379,-168 3172.32,-145.47 3375.63,-193.54 4170.19,-132.04"/>
<polygon fill="midnightblue" stroke="midnightblue" points="4170.75,-135.51 4180.45,-131.25 4170.21,-128.53 4170.75,-135.51"/>
</g>
<!-- Node38 -->
<g id="node38" class="node">
<title>Node38</title>
<g id="a_node38"><a xlink:href="wld__types_8h.html" target="_top" xlink:title=" ">
<polygon fill="white" stroke="red" points="408.5,-56.5 408.5,-75.5 483.5,-75.5 483.5,-56.5 408.5,-56.5"/>
<text text-anchor="middle" x="446" y="-63.5" font-family="Helvetica,sans-Serif" font-size="10.00">wld_types.h</text>
</a>
</g>
</g>
<!-- Node7&#45;&gt;Node38 -->
<g id="edge37" class="edge">
<title>Node7&#45;&gt;Node38</title>
<path fill="none" stroke="midnightblue" d="M2112.41,-175.78C2077.61,-173.86 2006.93,-170.12 1947,-168 1902.79,-166.44 385.92,-163.63 355,-132 333.69,-110.2 372.75,-90.69 406.14,-78.86"/>
<polygon fill="midnightblue" stroke="midnightblue" points="407.45,-82.12 415.8,-75.59 405.2,-75.49 407.45,-82.12"/>
</g>
<!-- Node41 -->
<g id="node39" class="node">
<title>Node41</title>
<g id="a_node39"><a xlink:href="wld__channel__types_8h.html" target="_top" xlink:title=" ">
<polygon fill="white" stroke="red" points="150.5,-112.5 150.5,-131.5 269.5,-131.5 269.5,-112.5 150.5,-112.5"/>
<text text-anchor="middle" x="210" y="-119.5" font-family="Helvetica,sans-Serif" font-size="10.00">wld_channel_types.h</text>
</a>
</g>
</g>
<!-- Node7&#45;&gt;Node41 -->
<g id="edge40" class="edge">
<title>Node7&#45;&gt;Node41</title>
<path fill="none" stroke="midnightblue" d="M2112.41,-175.78C2077.61,-173.84 2006.93,-170.09 1947,-168 1208.17,-142.23 1021.4,-184.69 284,-132 282.69,-131.91 281.37,-131.81 280.04,-131.7"/>
<polygon fill="midnightblue" stroke="midnightblue" points="280,-128.18 269.73,-130.78 279.37,-135.15 280,-128.18"/>
</g>
<!-- Node43 -->
<g id="node40" class="node">
<title>Node43</title>
<g id="a_node40"><a xlink:href="wld__bgdfs_8h.html" target="_top" xlink:title=" ">
<polygon fill="white" stroke="black" points="364.5,-112.5 364.5,-131.5 439.5,-131.5 439.5,-112.5 364.5,-112.5"/>
<text text-anchor="middle" x="402" y="-119.5" font-family="Helvetica,sans-Serif" font-size="10.00">wld_bgdfs.h</text>
</a>
</g>
</g>
<!-- Node7&#45;&gt;Node43 -->
<g id="edge43" class="edge">
<title>Node7&#45;&gt;Node43</title>
<path fill="none" stroke="midnightblue" d="M2112.41,-175.79C2077.61,-173.88 2006.93,-170.16 1947,-168 1617.26,-156.11 795.5,-167.88 449.67,-131.97"/>
<polygon fill="midnightblue" stroke="midnightblue" points="449.89,-128.47 439.58,-130.89 449.15,-135.43 449.89,-128.47"/>
</g>
<!-- Node44 -->
<g id="node41" class="node">
<title>Node44</title>
<g id="a_node41"><a xlink:href="wld__rad__delayMgr_8h.html" target="_top" xlink:title=" ">
<polygon fill="white" stroke="black" points="4314,-112.5 4314,-131.5 4428,-131.5 4428,-112.5 4314,-112.5"/>
<text text-anchor="middle" x="4371" y="-119.5" font-family="Helvetica,sans-Serif" font-size="10.00">wld_rad_delayMgr.h</text>
</a>
</g>
</g>
<!-- Node7&#45;&gt;Node44 -->
<g id="edge45" class="edge">
<title>Node7&#45;&gt;Node44</title>
<path fill="none" stroke="midnightblue" d="M2155.64,-175.84C2197.39,-173.95 2290.86,-170.19 2370,-168 3225.82,-144.28 3442.39,-197.95 4296,-132 4298.52,-131.81 4301.1,-131.58 4303.7,-131.33"/>
<polygon fill="midnightblue" stroke="midnightblue" points="4304.27,-134.78 4313.84,-130.24 4303.52,-127.82 4304.27,-134.78"/>
</g>
<!-- Node45 -->
<g id="node42" class="node">
<title>Node45</title>
<g id="a_node42"><a xlink:href="wld__fsm_8h.html" target="_top" xlink:title=" ">
<polygon fill="white" stroke="black" points="457.5,-112.5 457.5,-131.5 524.5,-131.5 524.5,-112.5 457.5,-112.5"/>
<text text-anchor="middle" x="491" y="-119.5" font-family="Helvetica,sans-Serif" font-size="10.00">wld_fsm.h</text>
</a>
</g>
</g>
<!-- Node7&#45;&gt;Node45 -->
<g id="edge47" class="edge">
<title>Node7&#45;&gt;Node45</title>
<path fill="none" stroke="midnightblue" d="M2112.41,-175.8C2077.61,-173.91 2006.93,-170.2 1947,-168 1636.11,-156.56 861.23,-168.83 534.83,-131.98"/>
<polygon fill="midnightblue" stroke="midnightblue" points="535.17,-128.49 524.84,-130.81 534.36,-135.44 535.17,-128.49"/>
</g>
<!-- Node46 -->
<g id="node43" class="node">
<title>Node46</title>
<g id="a_node43"><a xlink:href="wld__sensing_8h.html" target="_top" xlink:title=" ">
<polygon fill="white" stroke="black" points="4446,-112.5 4446,-131.5 4532,-131.5 4532,-112.5 4446,-112.5"/>
<text text-anchor="middle" x="4489" y="-119.5" font-family="Helvetica,sans-Serif" font-size="10.00">wld_sensing.h</text>
</a>
</g>
</g>
<!-- Node7&#45;&gt;Node46 -->
<g id="edge49" class="edge">
<title>Node7&#45;&gt;Node46</title>
<path fill="none" stroke="midnightblue" d="M2155.64,-175.83C2197.39,-173.92 2290.86,-170.15 2370,-168 2827.24,-155.6 3972.63,-175.13 4428,-132 4430.51,-131.76 4433.09,-131.47 4435.7,-131.14"/>
<polygon fill="midnightblue" stroke="midnightblue" points="4436.42,-134.57 4445.83,-129.71 4435.44,-127.64 4436.42,-134.57"/>
</g>
<!-- Node47 -->
<g id="node44" class="node">
<title>Node47</title>
<g id="a_node44"><a xlink:href="wld__mld_8h.html" target="_top" xlink:title=" ">
<polygon fill="white" stroke="black" points="542.5,-112.5 542.5,-131.5 609.5,-131.5 609.5,-112.5 542.5,-112.5"/>
<text text-anchor="middle" x="576" y="-119.5" font-family="Helvetica,sans-Serif" font-size="10.00">wld_mld.h</text>
</a>
</g>
</g>
<!-- Node7&#45;&gt;Node47 -->
<g id="edge51" class="edge">
<title>Node7&#45;&gt;Node47</title>
<path fill="none" stroke="midnightblue" d="M2112.41,-175.81C2077.6,-173.94 2006.93,-170.26 1947,-168 1359.2,-145.86 1208.9,-194.4 624,-132 622.7,-131.86 621.37,-131.71 620.04,-131.54"/>
<polygon fill="midnightblue" stroke="midnightblue" points="620.13,-128.01 609.73,-130.02 619.11,-134.94 620.13,-128.01"/>
</g>
<!-- Node7&#45;&gt;Node53 -->
<g id="edge53" class="edge">
<title>Node7&#45;&gt;Node53</title>
<path fill="none" stroke="midnightblue" d="M2155.63,-176.06C2198.32,-174.24 2296.46,-170.2 2379,-168 2856.06,-155.27 4045.82,-172.7 4540.21,-131.9"/>
<polygon fill="midnightblue" stroke="midnightblue" points="4540.65,-135.38 4550.32,-131.05 4540.07,-128.4 4540.65,-135.38"/>
</g>
<!-- Node38&#45;&gt;Node9 -->
<g id="edge38" class="edge">
<title>Node38&#45;&gt;Node9</title>
<path fill="none" stroke="midnightblue" d="M461.42,-56.32C476.54,-47.82 499.82,-34.73 517.47,-24.8"/>
<polygon fill="midnightblue" stroke="midnightblue" points="519.61,-27.61 526.61,-19.65 516.18,-21.51 519.61,-27.61"/>
</g>
<!-- Node38&#45;&gt;Node14 -->
<g id="edge39" class="edge">
<title>Node38&#45;&gt;Node14</title>
<path fill="none" stroke="midnightblue" d="M422.55,-56.44C397.87,-47.44 358.81,-33.19 331.02,-23.05"/>
<polygon fill="midnightblue" stroke="midnightblue" points="331.94,-19.66 321.34,-19.52 329.54,-26.23 331.94,-19.66"/>
</g>
<!-- Node41&#45;&gt;Node8 -->
<g id="edge41" class="edge">
<title>Node41&#45;&gt;Node8</title>
<path fill="none" stroke="midnightblue" d="M199.07,-112.32C188.83,-104.18 173.28,-91.84 161,-82.09"/>
<polygon fill="midnightblue" stroke="midnightblue" points="163.13,-79.31 153.12,-75.83 158.78,-84.79 163.13,-79.31"/>
</g>
<!-- Node41&#45;&gt;Node14 -->
<g id="edge42" class="edge">
<title>Node41&#45;&gt;Node14</title>
<path fill="none" stroke="midnightblue" d="M216.91,-112.37C231.49,-94.14 265.66,-51.43 284.66,-27.68"/>
<polygon fill="midnightblue" stroke="midnightblue" points="287.61,-29.59 291.13,-19.59 282.15,-25.21 287.61,-29.59"/>
</g>
<!-- Node43&#45;&gt;Node38 -->
<g id="edge44" class="edge">
<title>Node43&#45;&gt;Node38</title>
<path fill="none" stroke="midnightblue" d="M409.27,-112.08C415.54,-104.38 424.79,-93.03 432.43,-83.65"/>
<polygon fill="midnightblue" stroke="midnightblue" points="435.27,-85.71 438.87,-75.75 429.84,-81.29 435.27,-85.71"/>
</g>
<!-- Node44&#45;&gt;Node7 -->
<g id="edge46" class="edge">
<title>Node44&#45;&gt;Node7</title>
<path fill="none" stroke="midnightblue" d="M4319.6,-131.52C4317.72,-131.7 4315.84,-131.86 4314,-132 3460.39,-197.95 3243.82,-144.28 2388,-168 2308.3,-170.21 2214.05,-174 2165.7,-175.88"/>
<polygon fill="midnightblue" stroke="midnightblue" points="2165.4,-172.39 2155.54,-176.27 2165.67,-179.39 2165.4,-172.39"/>
</g>
<!-- Node45&#45;&gt;Node38 -->
<g id="edge48" class="edge">
<title>Node45&#45;&gt;Node38</title>
<path fill="none" stroke="midnightblue" d="M483.57,-112.08C477.15,-104.38 467.69,-93.03 459.88,-83.65"/>
<polygon fill="midnightblue" stroke="midnightblue" points="462.38,-81.19 453.29,-75.75 457.01,-85.67 462.38,-81.19"/>
</g>
<!-- Node46&#45;&gt;Node7 -->
<g id="edge50" class="edge">
<title>Node46&#45;&gt;Node7</title>
<path fill="none" stroke="midnightblue" d="M4450.71,-131.5C4449.12,-131.69 4447.55,-131.85 4446,-132 3990.63,-175.13 2845.24,-155.6 2388,-168 2308.29,-170.16 2214.05,-173.98 2165.7,-175.87"/>
<polygon fill="midnightblue" stroke="midnightblue" points="2165.39,-172.38 2155.54,-176.27 2165.67,-179.37 2165.39,-172.38"/>
</g>
<!-- Node47&#45;&gt;Node38 -->
<g id="edge52" class="edge">
<title>Node47&#45;&gt;Node38</title>
<path fill="none" stroke="midnightblue" d="M555.4,-112.44C534.01,-103.56 500.32,-89.56 475.98,-79.45"/>
<polygon fill="midnightblue" stroke="midnightblue" points="477.08,-76.12 466.5,-75.52 474.39,-82.58 477.08,-76.12"/>
</g>
<!-- Node80&#45;&gt;Node7 -->
<g id="edge55" class="edge">
<title>Node80&#45;&gt;Node7</title>
<path fill="none" stroke="midnightblue" d="M2047.55,-224.32C2063.99,-215.7 2089.43,-202.36 2108.47,-192.39"/>
<polygon fill="midnightblue" stroke="midnightblue" points="2110.26,-195.4 2117.49,-187.65 2107.01,-189.2 2110.26,-195.4"/>
</g>
<!-- Node81&#45;&gt;Node7 -->
<g id="edge57" class="edge">
<title>Node81&#45;&gt;Node7</title>
<path fill="none" stroke="midnightblue" d="M2134,-224.08C2134,-217.01 2134,-206.86 2134,-197.99"/>
<polygon fill="midnightblue" stroke="midnightblue" points="2137.5,-197.75 2134,-187.75 2130.5,-197.75 2137.5,-197.75"/>
</g>
<!-- Node83&#45;&gt;Node7 -->
<g id="edge59" class="edge">
<title>Node83&#45;&gt;Node7</title>
<path fill="none" stroke="midnightblue" d="M2222.13,-224.32C2205.29,-215.66 2179.19,-202.24 2159.76,-192.25"/>
<polygon fill="midnightblue" stroke="midnightblue" points="2161.32,-189.12 2150.83,-187.65 2158.12,-195.34 2161.32,-189.12"/>
</g>
<!-- Node84&#45;&gt;Node7 -->
<g id="edge61" class="edge">
<title>Node84&#45;&gt;Node7</title>
<path fill="none" stroke="midnightblue" d="M2297.26,-224.44C2261.28,-214.43 2202,-197.93 2165.64,-187.81"/>
<polygon fill="midnightblue" stroke="midnightblue" points="2166.16,-184.32 2155.59,-185.01 2164.28,-191.06 2166.16,-184.32"/>
</g>
</g>
</svg>
