<?xml version="1.0" encoding="UTF-8" standalone="no"?>
<!DOCTYPE svg PUBLIC "-//W3C//DTD SVG 1.1//EN"
 "http://www.w3.org/Graphics/SVG/1.1/DTD/svg11.dtd">
<!-- Generated by graphviz version 2.43.0 (0)
 -->
<!-- Title: wld_wpaCtrl_getSyncCmdParamValInt32Def Pages: 1 -->
<svg width="1107pt" height="134pt"
 viewBox="0.00 0.00 1107.00 133.50" xmlns="http://www.w3.org/2000/svg" xmlns:xlink="http://www.w3.org/1999/xlink">
<g id="graph0" class="graph" transform="scale(1 1) rotate(0) translate(4 129.5)">
<title>wld_wpaCtrl_getSyncCmdParamValInt32Def</title>
<polygon fill="white" stroke="transparent" points="-4,4 -4,-129.5 1103,-129.5 1103,4 -4,4"/>
<!-- Node1 -->
<g id="node1" class="node">
<title>Node1</title>
<g id="a_node1"><a xlink:title="send synchronous command to wpa_ctrl server and convert a parameter value in the reply (string in bas...">
<polygon fill="#bfbfbf" stroke="black" points="0,-43.5 0,-73.5 174,-73.5 174,-43.5 0,-43.5"/>
<text text-anchor="start" x="8" y="-61.5" font-family="Helvetica,sans-Serif" font-size="10.00">wld_wpaCtrl_getSyncCmdParam</text>
<text text-anchor="middle" x="87" y="-50.5" font-family="Helvetica,sans-Serif" font-size="10.00">ValInt32Def</text>
</a>
</g>
</g>
<!-- Node2 -->
<g id="node2" class="node">
<title>Node2</title>
<g id="a_node2"><a xlink:href="wld__wpaCtrlInterface_8c.html#af5a74650770b378805df194c8cc4f52b" target="_top" xlink:title="send synchronous command to wpa_ctrl server and check a parameter value in the reply">
<polygon fill="white" stroke="black" points="210,-68 210,-87 399,-87 399,-68 210,-68"/>
<text text-anchor="middle" x="304.5" y="-75" font-family="Helvetica,sans-Serif" font-size="10.00">wld_wpaCtrl_getSyncCmdParamVal</text>
</a>
</g>
</g>
<!-- Node1&#45;&gt;Node2 -->
<g id="edge1" class="edge">
<title>Node1&#45;&gt;Node2</title>
<path fill="none" stroke="midnightblue" d="M174.1,-66.09C182.53,-66.83 191.14,-67.59 199.71,-68.35"/>
<polygon fill="midnightblue" stroke="midnightblue" points="199.49,-71.84 209.75,-69.23 200.1,-64.87 199.49,-71.84"/>
</g>
<!-- Node10 -->
<g id="node10" class="node">
<title>Node10</title>
<g id="a_node10"><a xlink:href="wld__util_8c.html#a1885348d15676dcae318538076904ed3" target="_top" xlink:title=" ">
<polygon fill="white" stroke="black" points="246.5,-30 246.5,-49 362.5,-49 362.5,-30 246.5,-30"/>
<text text-anchor="middle" x="304.5" y="-37" font-family="Helvetica,sans-Serif" font-size="10.00">wldu_convStrToNum</text>
</a>
</g>
</g>
<!-- Node1&#45;&gt;Node10 -->
<g id="edge9" class="edge">
<title>Node1&#45;&gt;Node10</title>
<path fill="none" stroke="midnightblue" d="M174.1,-50.91C194.77,-49.09 216.54,-47.17 236.21,-45.43"/>
<polygon fill="midnightblue" stroke="midnightblue" points="236.63,-48.91 246.29,-44.54 236.02,-41.94 236.63,-48.91"/>
</g>
<!-- Node3 -->
<g id="node3" class="node">
<title>Node3</title>
<g id="a_node3"><a xlink:href="wld__wpaCtrlConnection_8c.html#ab5b29b7ce5f29ef5dfbe951e5b700428" target="_top" xlink:title=" ">
<polygon fill="white" stroke="black" points="438.5,-106 438.5,-125 594.5,-125 594.5,-106 438.5,-106"/>
<text text-anchor="middle" x="516.5" y="-113" font-family="Helvetica,sans-Serif" font-size="10.00">wld_wpaCtrl_getMaxMsgLen</text>
</a>
</g>
</g>
<!-- Node2&#45;&gt;Node3 -->
<g id="edge2" class="edge">
<title>Node2&#45;&gt;Node3</title>
<path fill="none" stroke="midnightblue" d="M358.22,-87.04C386.93,-92.23 422.64,-98.7 452.77,-104.15"/>
<polygon fill="midnightblue" stroke="midnightblue" points="452.29,-107.62 462.76,-105.96 453.54,-100.73 452.29,-107.62"/>
</g>
<!-- Node4 -->
<g id="node4" class="node">
<title>Node4</title>
<g id="a_node4"><a xlink:href="wld__wpaCtrl__events_8c.html#a67b83e09a159510b15c2677af1127b60" target="_top" xlink:title=" ">
<polygon fill="white" stroke="black" points="447.5,-68 447.5,-87 585.5,-87 585.5,-68 447.5,-68"/>
<text text-anchor="middle" x="516.5" y="-75" font-family="Helvetica,sans-Serif" font-size="10.00">wld_wpaCtrl_getValueStr</text>
</a>
</g>
</g>
<!-- Node2&#45;&gt;Node4 -->
<g id="edge3" class="edge">
<title>Node2&#45;&gt;Node4</title>
<path fill="none" stroke="midnightblue" d="M399.14,-77.5C411.78,-77.5 424.65,-77.5 437,-77.5"/>
<polygon fill="midnightblue" stroke="midnightblue" points="437.23,-81 447.23,-77.5 437.23,-74 437.23,-81"/>
</g>
<!-- Node5 -->
<g id="node5" class="node">
<title>Node5</title>
<g id="a_node5"><a xlink:href="wld__wpaCtrlInterface_8c.html#a4e9aeb5d1118a418053afcb9a3b8375c" target="_top" xlink:title="send command to wpa_ctrl server and wait for the reply">
<polygon fill="white" stroke="black" points="435,-30 435,-49 598,-49 598,-30 435,-30"/>
<text text-anchor="middle" x="516.5" y="-37" font-family="Helvetica,sans-Serif" font-size="10.00">wld_wpaCtrl_sendCmdSynced</text>
</a>
</g>
</g>
<!-- Node2&#45;&gt;Node5 -->
<g id="edge4" class="edge">
<title>Node2&#45;&gt;Node5</title>
<path fill="none" stroke="midnightblue" d="M358.22,-67.96C386.93,-62.77 422.64,-56.3 452.77,-50.85"/>
<polygon fill="midnightblue" stroke="midnightblue" points="453.54,-54.27 462.76,-49.04 452.29,-47.38 453.54,-54.27"/>
</g>
<!-- Node6 -->
<g id="node6" class="node">
<title>Node6</title>
<g id="a_node6"><a xlink:href="wld__wpaCtrlConnection_8c.html#a4ffecc829a17c67728b8ced8b0cccc92" target="_top" xlink:title=" ">
<polygon fill="white" stroke="black" points="634,-24.5 634,-54.5 765,-54.5 765,-24.5 634,-24.5"/>
<text text-anchor="start" x="642" y="-42.5" font-family="Helvetica,sans-Serif" font-size="10.00">wld_wpaCtrlConnection</text>
<text text-anchor="middle" x="699.5" y="-31.5" font-family="Helvetica,sans-Serif" font-size="10.00">_sendCmdSynced</text>
</a>
</g>
</g>
<!-- Node5&#45;&gt;Node6 -->
<g id="edge5" class="edge">
<title>Node5&#45;&gt;Node6</title>
<path fill="none" stroke="midnightblue" d="M598.21,-39.5C606.72,-39.5 615.35,-39.5 623.79,-39.5"/>
<polygon fill="midnightblue" stroke="midnightblue" points="623.97,-43 633.97,-39.5 623.97,-36 623.97,-43"/>
</g>
<!-- Node7 -->
<g id="node7" class="node">
<title>Node7</title>
<g id="a_node7"><a xlink:href="wld__wpaCtrlConnection_8c.html#ae8867992d243efdfa13e360b50730f88" target="_top" xlink:title=" ">
<polygon fill="white" stroke="black" points="801,-24.5 801,-54.5 932,-54.5 932,-24.5 801,-24.5"/>
<text text-anchor="start" x="809" y="-42.5" font-family="Helvetica,sans-Serif" font-size="10.00">wld_wpaCtrlConnection</text>
<text text-anchor="middle" x="866.5" y="-31.5" font-family="Helvetica,sans-Serif" font-size="10.00">_sendCmdSyncedExt</text>
</a>
</g>
</g>
<!-- Node6&#45;&gt;Node7 -->
<g id="edge6" class="edge">
<title>Node6&#45;&gt;Node7</title>
<path fill="none" stroke="midnightblue" d="M765.24,-39.5C773.58,-39.5 782.18,-39.5 790.67,-39.5"/>
<polygon fill="midnightblue" stroke="midnightblue" points="790.95,-43 800.95,-39.5 790.95,-36 790.95,-43"/>
</g>
<!-- Node8 -->
<g id="node8" class="node">
<title>Node8</title>
<g id="a_node8"><a xlink:href="wld__wpaCtrlConnection_8c.html#abfe3f8b17cf527b1e6fe85a564c8604b" target="_top" xlink:title=" ">
<polygon fill="white" stroke="black" points="968,-49.5 968,-79.5 1099,-79.5 1099,-49.5 968,-49.5"/>
<text text-anchor="start" x="976" y="-67.5" font-family="Helvetica,sans-Serif" font-size="10.00">wld_wpaCtrlConnection</text>
<text text-anchor="middle" x="1033.5" y="-56.5" font-family="Helvetica,sans-Serif" font-size="10.00">_getConnSockName</text>
</a>
</g>
</g>
<!-- Node7&#45;&gt;Node8 -->
<g id="edge7" class="edge">
<title>Node7&#45;&gt;Node8</title>
<path fill="none" stroke="midnightblue" d="M932.24,-49.31C940.67,-50.59 949.37,-51.9 957.95,-53.2"/>
<polygon fill="midnightblue" stroke="midnightblue" points="957.54,-56.68 967.95,-54.72 958.59,-49.76 957.54,-56.68"/>
</g>
<!-- Node9 -->
<g id="node9" class="node">
<title>Node9</title>
<g id="a_node9"><a xlink:href="wld__wpaCtrlConnection_8c.html#aa82226c76dbbf306e509b7c6d3088277" target="_top" xlink:title=" ">
<polygon fill="white" stroke="black" points="968,-0.5 968,-30.5 1099,-30.5 1099,-0.5 968,-0.5"/>
<text text-anchor="start" x="976" y="-18.5" font-family="Helvetica,sans-Serif" font-size="10.00">wld_wpaCtrlConnection</text>
<text text-anchor="middle" x="1033.5" y="-7.5" font-family="Helvetica,sans-Serif" font-size="10.00">_sendCmd</text>
</a>
</g>
</g>
<!-- Node7&#45;&gt;Node9 -->
<g id="edge8" class="edge">
<title>Node7&#45;&gt;Node9</title>
<path fill="none" stroke="midnightblue" d="M932.24,-30.08C940.67,-28.86 949.37,-27.59 957.95,-26.34"/>
<polygon fill="midnightblue" stroke="midnightblue" points="958.56,-29.79 967.95,-24.89 957.55,-22.87 958.56,-29.79"/>
</g>
</g>
</svg>
