<?xml version="1.0" encoding="UTF-8" standalone="no"?>
<!DOCTYPE svg PUBLIC "-//W3C//DTD SVG 1.1//EN"
 "http://www.w3.org/Graphics/SVG/1.1/DTD/svg11.dtd">
<!-- Generated by graphviz version 2.43.0 (0)
 -->
<!-- Title: wld_scan_isRunning Pages: 1 -->
<svg width="516pt" height="123pt"
 viewBox="0.00 0.00 516.00 123.00" xmlns="http://www.w3.org/2000/svg" xmlns:xlink="http://www.w3.org/1999/xlink">
<g id="graph0" class="graph" transform="scale(1 1) rotate(0) translate(4 119)">
<title>wld_scan_isRunning</title>
<polygon fill="white" stroke="transparent" points="-4,4 -4,-119 512,-119 512,4 -4,4"/>
<!-- Node1 -->
<g id="node1" class="node">
<title>Node1</title>
<g id="a_node1"><a xlink:title=" ">
<polygon fill="#bfbfbf" stroke="black" points="393,-38.5 393,-57.5 508,-57.5 508,-38.5 393,-38.5"/>
<text text-anchor="middle" x="450.5" y="-45.5" font-family="Helvetica,sans-Serif" font-size="10.00">wld_scan_isRunning</text>
</a>
</g>
</g>
<!-- Node2 -->
<g id="node2" class="node">
<title>Node2</title>
<g id="a_node2"><a xlink:href="wld__rad__scan_8c.html#a7bf5166850088b0456d2f83afa14107b" target="_top" xlink:title=" ">
<polygon fill="white" stroke="black" points="240,-95.5 240,-114.5 343,-114.5 343,-95.5 240,-95.5"/>
<text text-anchor="middle" x="291.5" y="-102.5" font-family="Helvetica,sans-Serif" font-size="10.00">_getSpectrumInfo</text>
</a>
</g>
</g>
<!-- Node1&#45;&gt;Node2 -->
<g id="edge1" class="edge">
<title>Node1&#45;&gt;Node2</title>
<path fill="none" stroke="midnightblue" d="M418.72,-61.58C400.87,-69.22 377.87,-78.66 357,-86 347.42,-89.37 336.9,-92.64 327.19,-95.5"/>
<polygon fill="midnightblue" stroke="midnightblue" points="420.27,-64.72 428.06,-57.55 417.49,-58.3 420.27,-64.72"/>
</g>
<!-- Node3 -->
<g id="node3" class="node">
<title>Node3</title>
<g id="a_node3"><a xlink:href="wld__radio_8c.html#a3438e11eef730284adccf3165a258906" target="_top" xlink:title=" ">
<polygon fill="white" stroke="black" points="226,-57.5 226,-76.5 357,-76.5 357,-57.5 226,-57.5"/>
<text text-anchor="middle" x="291.5" y="-64.5" font-family="Helvetica,sans-Serif" font-size="10.00">wld_rad_isUpAndReady</text>
</a>
</g>
</g>
<!-- Node1&#45;&gt;Node3 -->
<g id="edge2" class="edge">
<title>Node1&#45;&gt;Node3</title>
<path fill="none" stroke="midnightblue" d="M382.62,-56.09C374.16,-57.12 365.52,-58.16 357.09,-59.18"/>
<polygon fill="midnightblue" stroke="midnightblue" points="383.31,-59.54 392.82,-54.86 382.47,-52.59 383.31,-59.54"/>
</g>
<!-- Node4 -->
<g id="node4" class="node">
<title>Node4</title>
<g id="a_node4"><a xlink:href="wld__rad__scan_8c.html#a78682009d3c7281aa400af42d7c97ac4" target="_top" xlink:title=" ">
<polygon fill="white" stroke="black" points="246,-19.5 246,-38.5 337,-38.5 337,-19.5 246,-19.5"/>
<text text-anchor="middle" x="291.5" y="-26.5" font-family="Helvetica,sans-Serif" font-size="10.00">wld_scan_done</text>
</a>
</g>
</g>
<!-- Node1&#45;&gt;Node4 -->
<g id="edge3" class="edge">
<title>Node1&#45;&gt;Node4</title>
<path fill="none" stroke="midnightblue" d="M382.83,-39.93C367.46,-38.07 351.46,-36.14 337.28,-34.42"/>
<polygon fill="midnightblue" stroke="midnightblue" points="382.47,-43.41 392.82,-41.14 383.31,-36.46 382.47,-43.41"/>
</g>
<!-- Node5 -->
<g id="node5" class="node">
<title>Node5</title>
<g id="a_node5"><a xlink:href="wld__rad__scan_8c.html#aa748a0e3154976d65a5b0841e1ab6a97" target="_top" xlink:title=" ">
<polygon fill="white" stroke="black" points="102,-0.5 102,-19.5 190,-19.5 190,-0.5 102,-0.5"/>
<text text-anchor="middle" x="146" y="-7.5" font-family="Helvetica,sans-Serif" font-size="10.00">wld_scan_stop</text>
</a>
</g>
</g>
<!-- Node1&#45;&gt;Node5 -->
<g id="edge6" class="edge">
<title>Node1&#45;&gt;Node5</title>
<path fill="none" stroke="midnightblue" d="M422.79,-33.76C404.77,-24.99 380.14,-14.57 357,-10 300.13,1.23 232.89,-1.49 190.11,-5.16"/>
<polygon fill="midnightblue" stroke="midnightblue" points="421.56,-37.06 432.07,-38.42 424.7,-30.81 421.56,-37.06"/>
</g>
<!-- Node4&#45;&gt;Node5 -->
<g id="edge4" class="edge">
<title>Node4&#45;&gt;Node5</title>
<path fill="none" stroke="midnightblue" d="M235.65,-21.74C220.57,-19.74 204.43,-17.6 190.12,-15.71"/>
<polygon fill="midnightblue" stroke="midnightblue" points="235.51,-25.25 245.88,-23.09 236.43,-18.31 235.51,-25.25"/>
</g>
<!-- Node6 -->
<g id="node6" class="node">
<title>Node6</title>
<g id="a_node6"><a xlink:href="wld__rad__scan_8c.html#acac0aead4b1341c387615ae86aa78b2b" target="_top" xlink:title=" ">
<polygon fill="white" stroke="black" points="0,-0.5 0,-19.5 66,-19.5 66,-0.5 0,-0.5"/>
<text text-anchor="middle" x="33" y="-7.5" font-family="Helvetica,sans-Serif" font-size="10.00">_stopScan</text>
</a>
</g>
</g>
<!-- Node5&#45;&gt;Node6 -->
<g id="edge5" class="edge">
<title>Node5&#45;&gt;Node6</title>
<path fill="none" stroke="midnightblue" d="M91.67,-10C82.99,-10 74.25,-10 66.29,-10"/>
<polygon fill="midnightblue" stroke="midnightblue" points="91.77,-13.5 101.77,-10 91.77,-6.5 91.77,-13.5"/>
</g>
</g>
</svg>
