<?xml version="1.0" encoding="UTF-8" standalone="no"?>
<!DOCTYPE svg PUBLIC "-//W3C//DTD SVG 1.1//EN"
 "http://www.w3.org/Graphics/SVG/1.1/DTD/svg11.dtd">
<!-- Generated by graphviz version 2.43.0 (0)
 -->
<!-- Title: _Sensing_delClient Pages: 1 -->
<svg width="563pt" height="97pt"
 viewBox="0.00 0.00 563.00 96.50" xmlns="http://www.w3.org/2000/svg" xmlns:xlink="http://www.w3.org/1999/xlink">
<g id="graph0" class="graph" transform="scale(1 1) rotate(0) translate(4 92.5)">
<title>_Sensing_delClient</title>
<polygon fill="white" stroke="transparent" points="-4,4 -4,-92.5 559,-92.5 559,4 -4,4"/>
<!-- Node1 -->
<g id="node1" class="node">
<title>Node1</title>
<g id="a_node1"><a xlink:title=" ">
<polygon fill="#bfbfbf" stroke="black" points="0,-28 0,-47 109,-47 109,-28 0,-28"/>
<text text-anchor="middle" x="54.5" y="-35" font-family="Helvetica,sans-Serif" font-size="10.00">_Sensing_delClient</text>
</a>
</g>
</g>
<!-- Node2 -->
<g id="node2" class="node">
<title>Node2</title>
<g id="a_node2"><a xlink:href="wld__radio_8c.html#a5bc526661be71f2eb0810b099efe607d" target="_top" xlink:title=" ">
<polygon fill="white" stroke="black" points="165,-50 165,-69 265,-69 265,-50 165,-50"/>
<text text-anchor="middle" x="215" y="-57" font-family="Helvetica,sans-Serif" font-size="10.00">wld_rad_fromObj</text>
</a>
</g>
</g>
<!-- Node1&#45;&gt;Node2 -->
<g id="edge1" class="edge">
<title>Node1&#45;&gt;Node2</title>
<path fill="none" stroke="midnightblue" d="M109.16,-44.95C123.83,-46.98 139.8,-49.2 154.76,-51.28"/>
<polygon fill="midnightblue" stroke="midnightblue" points="154.54,-54.78 164.93,-52.69 155.5,-47.85 154.54,-54.78"/>
</g>
<!-- Node6 -->
<g id="node6" class="node">
<title>Node6</title>
<g id="a_node6"><a xlink:href="wld__sensing_8c.html#aeb33cfc0b4ad5fe24ad503b8d79ec387" target="_top" xlink:title=" ">
<polygon fill="white" stroke="black" points="145,-0.5 145,-30.5 285,-30.5 285,-0.5 145,-0.5"/>
<text text-anchor="start" x="153" y="-18.5" font-family="Helvetica,sans-Serif" font-size="10.00">wld_sensing_delCsiClient</text>
<text text-anchor="middle" x="215" y="-7.5" font-family="Helvetica,sans-Serif" font-size="10.00">Entry</text>
</a>
</g>
</g>
<!-- Node1&#45;&gt;Node6 -->
<g id="edge5" class="edge">
<title>Node1&#45;&gt;Node6</title>
<path fill="none" stroke="midnightblue" d="M109.16,-30.05C117.42,-28.9 126.1,-27.7 134.78,-26.5"/>
<polygon fill="midnightblue" stroke="midnightblue" points="135.52,-29.93 144.94,-25.09 134.55,-22.99 135.52,-29.93"/>
</g>
<!-- Node3 -->
<g id="node3" class="node">
<title>Node3</title>
<g id="a_node3"><a xlink:href="wld__util_8c.html#a18c61fa964e131e3008ec440b72b61c8" target="_top" xlink:title=" ">
<polygon fill="white" stroke="black" points="321,-69 321,-88 429,-88 429,-69 321,-69"/>
<text text-anchor="middle" x="375" y="-76" font-family="Helvetica,sans-Serif" font-size="10.00">debugIsRadPointer</text>
</a>
</g>
</g>
<!-- Node2&#45;&gt;Node3 -->
<g id="edge2" class="edge">
<title>Node2&#45;&gt;Node3</title>
<path fill="none" stroke="midnightblue" d="M265.13,-65.41C279.48,-67.13 295.37,-69.04 310.48,-70.86"/>
<polygon fill="midnightblue" stroke="midnightblue" points="310.44,-74.38 320.79,-72.1 311.28,-67.43 310.44,-74.38"/>
</g>
<!-- Node4 -->
<g id="node4" class="node">
<title>Node4</title>
<g id="a_node4"><a xlink:href="wld__radio_8c.html#a7cad1ba5d4b5338e778c1ae67b58874f" target="_top" xlink:title=" ">
<polygon fill="white" stroke="black" points="323,-31 323,-50 427,-50 427,-31 323,-31"/>
<text text-anchor="middle" x="375" y="-38" font-family="Helvetica,sans-Serif" font-size="10.00">wld_rad_isRadObj</text>
</a>
</g>
</g>
<!-- Node2&#45;&gt;Node4 -->
<g id="edge3" class="edge">
<title>Node2&#45;&gt;Node4</title>
<path fill="none" stroke="midnightblue" d="M265.13,-53.59C280.21,-51.78 297,-49.76 312.79,-47.86"/>
<polygon fill="midnightblue" stroke="midnightblue" points="313.48,-51.3 322.99,-46.63 312.65,-44.35 313.48,-51.3"/>
</g>
<!-- Node5 -->
<g id="node5" class="node">
<title>Node5</title>
<g id="a_node5"><a xlink:href="wld_8c.html#a86eb0dd5db7f6f4c724e09f6d1b831d8" target="_top" xlink:title=" ">
<polygon fill="white" stroke="black" points="465,-31 465,-50 555,-50 555,-31 465,-31"/>
<text text-anchor="middle" x="510" y="-38" font-family="Helvetica,sans-Serif" font-size="10.00">get_wld_object</text>
</a>
</g>
</g>
<!-- Node4&#45;&gt;Node5 -->
<g id="edge4" class="edge">
<title>Node4&#45;&gt;Node5</title>
<path fill="none" stroke="midnightblue" d="M427.04,-40.5C436.09,-40.5 445.54,-40.5 454.68,-40.5"/>
<polygon fill="midnightblue" stroke="midnightblue" points="454.82,-44 464.82,-40.5 454.82,-37 454.82,-44"/>
</g>
</g>
</svg>
