<?xml version="1.0" encoding="UTF-8" standalone="no"?>
<!DOCTYPE svg PUBLIC "-//W3C//DTD SVG 1.1//EN"
 "http://www.w3.org/Graphics/SVG/1.1/DTD/svg11.dtd">
<!-- Generated by graphviz version 2.43.0 (0)
 -->
<!-- Title: wld_cleanup Pages: 1 -->
<svg width="837pt" height="465pt"
 viewBox="0.00 0.00 837.00 465.00" xmlns="http://www.w3.org/2000/svg" xmlns:xlink="http://www.w3.org/1999/xlink">
<g id="graph0" class="graph" transform="scale(1 1) rotate(0) translate(4 461)">
<title>wld_cleanup</title>
<polygon fill="white" stroke="transparent" points="-4,4 -4,-461 833,-461 833,4 -4,4"/>
<!-- Node1 -->
<g id="node1" class="node">
<title>Node1</title>
<g id="a_node1"><a xlink:title=" ">
<polygon fill="#bfbfbf" stroke="black" points="0,-133.5 0,-152.5 77,-152.5 77,-133.5 0,-133.5"/>
<text text-anchor="middle" x="38.5" y="-140.5" font-family="Helvetica,sans-Serif" font-size="10.00">wld_cleanup</text>
</a>
</g>
</g>
<!-- Node2 -->
<g id="node2" class="node">
<title>Node2</title>
<g id="a_node2"><a xlink:href="wld__channel_8c.html#a96c1dcc2e81d60f99a2d555b085b5077" target="_top" xlink:title=" ">
<polygon fill="white" stroke="black" points="122,-266.5 122,-285.5 244,-285.5 244,-266.5 122,-266.5"/>
<text text-anchor="middle" x="183" y="-273.5" font-family="Helvetica,sans-Serif" font-size="10.00">wld_channel_cleanAll</text>
</a>
</g>
</g>
<!-- Node1&#45;&gt;Node2 -->
<g id="edge1" class="edge">
<title>Node1&#45;&gt;Node2</title>
<path fill="none" stroke="midnightblue" d="M42.94,-152.65C51.3,-174.68 74.85,-228.98 113,-257 115.65,-258.95 118.5,-260.7 121.46,-262.27"/>
<polygon fill="midnightblue" stroke="midnightblue" points="120.11,-265.5 130.66,-266.46 123.01,-259.13 120.11,-265.5"/>
</g>
<!-- Node3 -->
<g id="node3" class="node">
<title>Node3</title>
<g id="a_node3"><a xlink:href="wld_8c.html#a5c5a761363ecd65567e1e393d1ca01c4" target="_top" xlink:title=" ">
<polygon fill="white" stroke="black" points="133,-228.5 133,-247.5 233,-247.5 233,-228.5 133,-228.5"/>
<text text-anchor="middle" x="183" y="-235.5" font-family="Helvetica,sans-Serif" font-size="10.00">wld_deleteAllEps</text>
</a>
</g>
</g>
<!-- Node1&#45;&gt;Node3 -->
<g id="edge2" class="edge">
<title>Node1&#45;&gt;Node3</title>
<path fill="none" stroke="midnightblue" d="M46.02,-152.51C57.59,-168.66 83.32,-201.39 113,-219 116.67,-221.18 120.59,-223.11 124.64,-224.83"/>
<polygon fill="midnightblue" stroke="midnightblue" points="123.64,-228.19 134.23,-228.45 126.12,-221.64 123.64,-228.19"/>
</g>
<!-- Node4 -->
<g id="node4" class="node">
<title>Node4</title>
<g id="a_node4"><a xlink:href="wld_8c.html#af0a45672f3645c93972370bcbe9367e3" target="_top" xlink:title=" ">
<polygon fill="white" stroke="black" points="125,-190.5 125,-209.5 241,-209.5 241,-190.5 125,-190.5"/>
<text text-anchor="middle" x="183" y="-197.5" font-family="Helvetica,sans-Serif" font-size="10.00">wld_deleteAllRadios</text>
</a>
</g>
</g>
<!-- Node1&#45;&gt;Node4 -->
<g id="edge3" class="edge">
<title>Node1&#45;&gt;Node4</title>
<path fill="none" stroke="midnightblue" d="M55.68,-152.62C70.28,-160.98 92.53,-172.99 113,-181 119,-183.35 125.4,-185.52 131.79,-187.5"/>
<polygon fill="midnightblue" stroke="midnightblue" points="131.19,-190.97 141.77,-190.44 133.16,-184.26 131.19,-190.97"/>
</g>
<!-- Node20 -->
<g id="node20" class="node">
<title>Node20</title>
<g id="a_node20"><a xlink:href="wld_8c.html#a001673cb98d2e7fc96a145b7a99f609f" target="_top" xlink:title=" ">
<polygon fill="white" stroke="black" points="130,-152.5 130,-171.5 236,-171.5 236,-152.5 130,-152.5"/>
<text text-anchor="middle" x="183" y="-159.5" font-family="Helvetica,sans-Serif" font-size="10.00">wld_deleteAllVaps</text>
</a>
</g>
</g>
<!-- Node1&#45;&gt;Node20 -->
<g id="edge19" class="edge">
<title>Node1&#45;&gt;Node20</title>
<path fill="none" stroke="midnightblue" d="M77.31,-148.04C90.38,-149.78 105.38,-151.78 119.87,-153.72"/>
<polygon fill="midnightblue" stroke="midnightblue" points="119.42,-157.19 129.79,-155.04 120.34,-150.25 119.42,-157.19"/>
</g>
<!-- Node21 -->
<g id="node21" class="node">
<title>Node21</title>
<g id="a_node21"><a xlink:href="wld__eventing_8c.html#aa323419be519d0d3c8eca067088d32af" target="_top" xlink:title=" ">
<polygon fill="white" stroke="black" points="128.5,-114.5 128.5,-133.5 237.5,-133.5 237.5,-114.5 128.5,-114.5"/>
<text text-anchor="middle" x="183" y="-121.5" font-family="Helvetica,sans-Serif" font-size="10.00">wld_event_destroy</text>
</a>
</g>
</g>
<!-- Node1&#45;&gt;Node21 -->
<g id="edge20" class="edge">
<title>Node1&#45;&gt;Node21</title>
<path fill="none" stroke="midnightblue" d="M77.31,-137.96C89.92,-136.28 104.33,-134.36 118.35,-132.49"/>
<polygon fill="midnightblue" stroke="midnightblue" points="119,-135.93 128.45,-131.14 118.08,-128.99 119,-135.93"/>
</g>
<!-- Node22 -->
<g id="node22" class="node">
<title>Node22</title>
<g id="a_node22"><a xlink:href="wld__nl80211__core_8c.html#a280ef877e0e6e63700748c4d71689849" target="_top" xlink:title=" ">
<polygon fill="white" stroke="black" points="116,-76.5 116,-95.5 250,-95.5 250,-76.5 116,-76.5"/>
<text text-anchor="middle" x="183" y="-83.5" font-family="Helvetica,sans-Serif" font-size="10.00">wld_nl80211_cleanupAll</text>
</a>
</g>
</g>
<!-- Node1&#45;&gt;Node22 -->
<g id="edge21" class="edge">
<title>Node1&#45;&gt;Node22</title>
<path fill="none" stroke="midnightblue" d="M55.68,-133.38C70.28,-125.02 92.53,-113.01 113,-105 119,-102.65 125.4,-100.48 131.79,-98.5"/>
<polygon fill="midnightblue" stroke="midnightblue" points="133.16,-101.74 141.77,-95.56 131.19,-95.03 133.16,-101.74"/>
</g>
<!-- Node26 -->
<g id="node26" class="node">
<title>Node26</title>
<g id="a_node26"><a xlink:href="wld__ssid_8c.html#acebf637933c1ab1be1a64fa56d9f43fa" target="_top" xlink:title=" ">
<polygon fill="white" stroke="black" points="131.5,-38.5 131.5,-57.5 234.5,-57.5 234.5,-38.5 131.5,-38.5"/>
<text text-anchor="middle" x="183" y="-45.5" font-family="Helvetica,sans-Serif" font-size="10.00">wld_ssid_cleanAll</text>
</a>
</g>
</g>
<!-- Node1&#45;&gt;Node26 -->
<g id="edge25" class="edge">
<title>Node1&#45;&gt;Node26</title>
<path fill="none" stroke="midnightblue" d="M46.02,-133.49C57.59,-117.34 83.32,-84.61 113,-67 116.67,-64.82 120.59,-62.89 124.64,-61.17"/>
<polygon fill="midnightblue" stroke="midnightblue" points="126.12,-64.36 134.23,-57.55 123.64,-57.81 126.12,-64.36"/>
</g>
<!-- Node27 -->
<g id="node27" class="node">
<title>Node27</title>
<g id="a_node27"><a xlink:href="wld_8c.html#a4119e29d775b6e7ca12f30a4d7555c96" target="_top" xlink:title=" ">
<polygon fill="white" stroke="black" points="113,-0.5 113,-19.5 253,-19.5 253,-0.5 113,-0.5"/>
<text text-anchor="middle" x="183" y="-7.5" font-family="Helvetica,sans-Serif" font-size="10.00">wld_unregisterAllVendors</text>
</a>
</g>
</g>
<!-- Node1&#45;&gt;Node27 -->
<g id="edge26" class="edge">
<title>Node1&#45;&gt;Node27</title>
<path fill="none" stroke="midnightblue" d="M42.94,-133.35C51.3,-111.32 74.85,-57.02 113,-29 115.65,-27.05 118.5,-25.3 121.46,-23.73"/>
<polygon fill="midnightblue" stroke="midnightblue" points="123.01,-26.87 130.66,-19.54 120.11,-20.5 123.01,-26.87"/>
</g>
<!-- Node5 -->
<g id="node5" class="node">
<title>Node5</title>
<g id="a_node5"><a xlink:href="wld_8c.html#a798af38bd94fac2d41bbc0c9b3138188" target="_top" xlink:title=" ">
<polygon fill="white" stroke="black" points="293,-247.5 293,-266.5 407,-266.5 407,-247.5 293,-247.5"/>
<text text-anchor="middle" x="350" y="-254.5" font-family="Helvetica,sans-Serif" font-size="10.00">wld_deleteRadioObj</text>
</a>
</g>
</g>
<!-- Node4&#45;&gt;Node5 -->
<g id="edge4" class="edge">
<title>Node4&#45;&gt;Node5</title>
<path fill="none" stroke="midnightblue" d="M221.46,-209.52C231.75,-212.35 242.87,-215.61 253,-219 274.76,-226.28 298.76,-235.78 317.32,-243.46"/>
<polygon fill="midnightblue" stroke="midnightblue" points="316.18,-246.77 326.75,-247.4 318.87,-240.32 316.18,-246.77"/>
</g>
<!-- Node19 -->
<g id="node19" class="node">
<title>Node19</title>
<g id="a_node19"><a xlink:href="wld__radio_8c.html#af061ce7c4a6066ba3118ea9986590e3d" target="_top" xlink:title=" ">
<polygon fill="white" stroke="black" points="305,-190.5 305,-209.5 395,-209.5 395,-190.5 305,-190.5"/>
<text text-anchor="middle" x="350" y="-197.5" font-family="Helvetica,sans-Serif" font-size="10.00">wld_rad_fromIt</text>
</a>
</g>
</g>
<!-- Node4&#45;&gt;Node19 -->
<g id="edge18" class="edge">
<title>Node4&#45;&gt;Node19</title>
<path fill="none" stroke="midnightblue" d="M241.25,-200C258.51,-200 277.41,-200 294.49,-200"/>
<polygon fill="midnightblue" stroke="midnightblue" points="294.86,-203.5 304.86,-200 294.86,-196.5 294.86,-203.5"/>
</g>
<!-- Node6 -->
<g id="node6" class="node">
<title>Node6</title>
<g id="a_node6"><a xlink:href="wld__autoCommitMgr_8c.html#a99a39f4add934b5c9bd259517a88ffad" target="_top" xlink:title=" ">
<polygon fill="white" stroke="black" points="448.5,-437.5 448.5,-456.5 609.5,-456.5 609.5,-437.5 448.5,-437.5"/>
<text text-anchor="middle" x="529" y="-444.5" font-family="Helvetica,sans-Serif" font-size="10.00">wld_autoCommitMgr_destroy</text>
</a>
</g>
</g>
<!-- Node5&#45;&gt;Node6 -->
<g id="edge5" class="edge">
<title>Node5&#45;&gt;Node6</title>
<path fill="none" stroke="midnightblue" d="M353.42,-266.57C361.33,-295.82 389.32,-384.62 447,-428 449.38,-429.79 451.9,-431.42 454.53,-432.89"/>
<polygon fill="midnightblue" stroke="midnightblue" points="453.28,-436.17 463.81,-437.35 456.31,-429.86 453.28,-436.17"/>
</g>
<!-- Node7 -->
<g id="node7" class="node">
<title>Node7</title>
<g id="a_node7"><a xlink:href="wld__chanmgt_8c.html#a8d7c7f9f54526cdebe54bf59c56362f9" target="_top" xlink:title=" ">
<polygon fill="white" stroke="black" points="466.5,-399.5 466.5,-418.5 591.5,-418.5 591.5,-399.5 466.5,-399.5"/>
<text text-anchor="middle" x="529" y="-406.5" font-family="Helvetica,sans-Serif" font-size="10.00">wld_chanmgt_cleanup</text>
</a>
</g>
</g>
<!-- Node5&#45;&gt;Node7 -->
<g id="edge6" class="edge">
<title>Node5&#45;&gt;Node7</title>
<path fill="none" stroke="midnightblue" d="M354.97,-266.51C365.77,-291.17 398.19,-357.46 447,-390 450.13,-392.09 453.46,-393.94 456.92,-395.6"/>
<polygon fill="midnightblue" stroke="midnightblue" points="455.74,-398.9 466.32,-399.52 458.44,-392.44 455.74,-398.9"/>
</g>
<!-- Node8 -->
<g id="node8" class="node">
<title>Node8</title>
<g id="a_node8"><a xlink:href="wld__extMod_8c.html#aa2ca70b5b598c205d60ab831640bbc33" target="_top" xlink:title="clean up the extModDataList for a given core object. This will call the delete handlers for all activ...">
<polygon fill="white" stroke="black" points="449,-361.5 449,-380.5 609,-380.5 609,-361.5 449,-361.5"/>
<text text-anchor="middle" x="529" y="-368.5" font-family="Helvetica,sans-Serif" font-size="10.00">wld_extMod_cleanupDataList</text>
</a>
</g>
</g>
<!-- Node5&#45;&gt;Node8 -->
<g id="edge7" class="edge">
<title>Node5&#45;&gt;Node8</title>
<path fill="none" stroke="midnightblue" d="M357.72,-266.54C371.88,-285.88 406.79,-329.75 447,-352 451.2,-354.32 455.68,-356.37 460.29,-358.16"/>
<polygon fill="midnightblue" stroke="midnightblue" points="459.3,-361.52 469.89,-361.5 461.6,-354.91 459.3,-361.52"/>
</g>
<!-- Node9 -->
<g id="node9" class="node">
<title>Node9</title>
<g id="a_node9"><a xlink:href="wld__rad__caps_8c.html#a3746d48346230aedaa939a3851411183" target="_top" xlink:title=" ">
<polygon fill="white" stroke="black" points="454.5,-323.5 454.5,-342.5 603.5,-342.5 603.5,-323.5 454.5,-323.5"/>
<text text-anchor="middle" x="529" y="-330.5" font-family="Helvetica,sans-Serif" font-size="10.00">wld_rad_clearSuppDrvCaps</text>
</a>
</g>
</g>
<!-- Node5&#45;&gt;Node9 -->
<g id="edge8" class="edge">
<title>Node5&#45;&gt;Node9</title>
<path fill="none" stroke="midnightblue" d="M364.3,-266.7C382.23,-279.34 415.54,-301.32 447,-314 453.3,-316.54 460.02,-318.79 466.79,-320.76"/>
<polygon fill="midnightblue" stroke="midnightblue" points="466.14,-324.21 476.71,-323.47 467.98,-317.46 466.14,-324.21"/>
</g>
<!-- Node10 -->
<g id="node10" class="node">
<title>Node10</title>
<g id="a_node10"><a xlink:href="wld__radio_8c.html#a03089b86ce2b3573ee098c9434b60bce" target="_top" xlink:title=" ">
<polygon fill="white" stroke="black" points="450.5,-285.5 450.5,-304.5 607.5,-304.5 607.5,-285.5 450.5,-285.5"/>
<text text-anchor="middle" x="529" y="-292.5" font-family="Helvetica,sans-Serif" font-size="10.00">wld_rad_triggerChangeEvent</text>
</a>
</g>
</g>
<!-- Node5&#45;&gt;Node10 -->
<g id="edge9" class="edge">
<title>Node5&#45;&gt;Node10</title>
<path fill="none" stroke="midnightblue" d="M395.66,-266.59C419.34,-271.67 448.61,-277.96 473.6,-283.32"/>
<polygon fill="midnightblue" stroke="midnightblue" points="473.14,-286.8 483.66,-285.48 474.61,-279.96 473.14,-286.8"/>
</g>
<!-- Node12 -->
<g id="node12" class="node">
<title>Node12</title>
<g id="a_node12"><a xlink:href="wld__rad__stamon_8c.html#afa47a1bb2714393a6b2f7a831911a98b" target="_top" xlink:title=" ">
<polygon fill="white" stroke="black" points="462,-247.5 462,-266.5 596,-266.5 596,-247.5 462,-247.5"/>
<text text-anchor="middle" x="529" y="-254.5" font-family="Helvetica,sans-Serif" font-size="10.00">wld_radStaMon_destroy</text>
</a>
</g>
</g>
<!-- Node5&#45;&gt;Node12 -->
<g id="edge11" class="edge">
<title>Node5&#45;&gt;Node12</title>
<path fill="none" stroke="midnightblue" d="M407,-257C421.16,-257 436.6,-257 451.57,-257"/>
<polygon fill="midnightblue" stroke="midnightblue" points="451.84,-260.5 461.84,-257 451.84,-253.5 451.84,-260.5"/>
</g>
<!-- Node14 -->
<g id="node14" class="node">
<title>Node14</title>
<g id="a_node14"><a xlink:href="wld__rad__scan_8c.html#a194f47a8606d3bd82e8cc4f08ccf25bb" target="_top" xlink:title=" ">
<polygon fill="white" stroke="black" points="447,-209.5 447,-228.5 611,-228.5 611,-209.5 447,-209.5"/>
<text text-anchor="middle" x="529" y="-216.5" font-family="Helvetica,sans-Serif" font-size="10.00">wld_scan_cleanupScanResults</text>
</a>
</g>
</g>
<!-- Node5&#45;&gt;Node14 -->
<g id="edge13" class="edge">
<title>Node5&#45;&gt;Node14</title>
<path fill="none" stroke="midnightblue" d="M395.66,-247.41C419.34,-242.33 448.61,-236.04 473.6,-230.68"/>
<polygon fill="midnightblue" stroke="midnightblue" points="474.61,-234.04 483.66,-228.52 473.14,-227.2 474.61,-234.04"/>
</g>
<!-- Node16 -->
<g id="node16" class="node">
<title>Node16</title>
<g id="a_node16"><a xlink:href="wld__radio_8h.html#aad96942514444774702d14cc1d635255" target="_top" xlink:title=" ">
<polygon fill="white" stroke="black" points="477,-171.5 477,-190.5 581,-190.5 581,-171.5 477,-171.5"/>
<text text-anchor="middle" x="529" y="-178.5" font-family="Helvetica,sans-Serif" font-size="10.00">wld_scan_destroy</text>
</a>
</g>
</g>
<!-- Node5&#45;&gt;Node16 -->
<g id="edge15" class="edge">
<title>Node5&#45;&gt;Node16</title>
<path fill="none" stroke="midnightblue" d="M365.95,-247.36C388.56,-232.91 430.55,-206.63 447,-200 453.3,-197.46 460.02,-195.21 466.79,-193.24"/>
<polygon fill="midnightblue" stroke="midnightblue" points="467.98,-196.54 476.71,-190.53 466.14,-189.79 467.98,-196.54"/>
</g>
<!-- Node17 -->
<g id="node17" class="node">
<title>Node17</title>
<g id="a_node17"><a xlink:href="wld__sensing_8c.html#a21f4d2b4c0975b6cd4389ac842326231" target="_top" xlink:title=" ">
<polygon fill="white" stroke="black" points="469,-133.5 469,-152.5 589,-152.5 589,-133.5 469,-133.5"/>
<text text-anchor="middle" x="529" y="-140.5" font-family="Helvetica,sans-Serif" font-size="10.00">wld_sensing_cleanup</text>
</a>
</g>
</g>
<!-- Node5&#45;&gt;Node17 -->
<g id="edge16" class="edge">
<title>Node5&#45;&gt;Node17</title>
<path fill="none" stroke="midnightblue" d="M370.66,-247.45C383.19,-240.7 399.24,-230.78 411,-219 432.17,-197.8 422.6,-179.38 447,-162 450.91,-159.21 455.17,-156.83 459.63,-154.79"/>
<polygon fill="midnightblue" stroke="midnightblue" points="460.99,-158.02 469,-151.08 458.41,-151.51 460.99,-158.02"/>
</g>
<!-- Node18 -->
<g id="node18" class="node">
<title>Node18</title>
<g id="a_node18"><a xlink:href="wld__rad__scan_8c.html#a6dc702409e9903f7530a9b4e6be50614" target="_top" xlink:title=" ">
<polygon fill="white" stroke="black" points="447,-95.5 447,-114.5 611,-114.5 611,-95.5 447,-95.5"/>
<text text-anchor="middle" x="529" y="-102.5" font-family="Helvetica,sans-Serif" font-size="10.00">wld_spectrum_cleanupResults</text>
</a>
</g>
</g>
<!-- Node5&#45;&gt;Node18 -->
<g id="edge17" class="edge">
<title>Node5&#45;&gt;Node18</title>
<path fill="none" stroke="midnightblue" d="M372.93,-247.47C385.55,-241.03 400.87,-231.42 411,-219 439.54,-184.01 413.04,-153.76 447,-124 448.77,-122.45 450.63,-121.03 452.58,-119.71"/>
<polygon fill="midnightblue" stroke="midnightblue" points="454.61,-122.59 461.6,-114.62 451.17,-116.49 454.61,-122.59"/>
</g>
<!-- Node11 -->
<g id="node11" class="node">
<title>Node11</title>
<g id="a_node11"><a xlink:href="wld__eventing_8c.html#aa79c0a7f8698dee12cd21e53ad8a3bf5" target="_top" xlink:title=" ">
<polygon fill="white" stroke="black" points="663,-285.5 663,-304.5 813,-304.5 813,-285.5 663,-285.5"/>
<text text-anchor="middle" x="738" y="-292.5" font-family="Helvetica,sans-Serif" font-size="10.00">wld_event_trigger_callback</text>
</a>
</g>
</g>
<!-- Node10&#45;&gt;Node11 -->
<g id="edge10" class="edge">
<title>Node10&#45;&gt;Node11</title>
<path fill="none" stroke="midnightblue" d="M607.67,-295C622.3,-295 637.67,-295 652.5,-295"/>
<polygon fill="midnightblue" stroke="midnightblue" points="652.67,-298.5 662.67,-295 652.67,-291.5 652.67,-298.5"/>
</g>
<!-- Node13 -->
<g id="node13" class="node">
<title>Node13</title>
<g id="a_node13"><a xlink:href="wld__monitor_8c.html#abedac9e495fba36decd9de9e4da5b4bc" target="_top" xlink:title=" ">
<polygon fill="white" stroke="black" points="676,-247.5 676,-266.5 800,-266.5 800,-247.5 676,-247.5"/>
<text text-anchor="middle" x="738" y="-254.5" font-family="Helvetica,sans-Serif" font-size="10.00">wld_mon_destroyMon</text>
</a>
</g>
</g>
<!-- Node12&#45;&gt;Node13 -->
<g id="edge12" class="edge">
<title>Node12&#45;&gt;Node13</title>
<path fill="none" stroke="midnightblue" d="M596.07,-257C618.23,-257 643.04,-257 665.59,-257"/>
<polygon fill="midnightblue" stroke="midnightblue" points="665.78,-260.5 675.78,-257 665.78,-253.5 665.78,-260.5"/>
</g>
<!-- Node15 -->
<g id="node15" class="node">
<title>Node15</title>
<g id="a_node15"><a xlink:href="wld__rad__scan_8c.html#a4d88dcf7b64e163cecafdc8d6f5341d6" target="_top" xlink:title=" ">
<polygon fill="white" stroke="black" points="647,-209.5 647,-228.5 829,-228.5 829,-209.5 647,-209.5"/>
<text text-anchor="middle" x="738" y="-216.5" font-family="Helvetica,sans-Serif" font-size="10.00">wld_scan_cleanupScanResultSSID</text>
</a>
</g>
</g>
<!-- Node14&#45;&gt;Node15 -->
<g id="edge14" class="edge">
<title>Node14&#45;&gt;Node15</title>
<path fill="none" stroke="midnightblue" d="M611.22,-219C619.6,-219 628.19,-219 636.75,-219"/>
<polygon fill="midnightblue" stroke="midnightblue" points="636.77,-222.5 646.77,-219 636.77,-215.5 636.77,-222.5"/>
</g>
<!-- Node23 -->
<g id="node23" class="node">
<title>Node23</title>
<g id="a_node23"><a xlink:href="wld__nl80211__core_8c.html#aa5811385f0145482b9e40cecb8f52762" target="_top" xlink:title=" ">
<polygon fill="white" stroke="black" points="289,-57.5 289,-76.5 411,-76.5 411,-57.5 289,-57.5"/>
<text text-anchor="middle" x="350" y="-64.5" font-family="Helvetica,sans-Serif" font-size="10.00">wld_nl80211_cleanup</text>
</a>
</g>
</g>
<!-- Node22&#45;&gt;Node23 -->
<g id="edge22" class="edge">
<title>Node22&#45;&gt;Node23</title>
<path fill="none" stroke="midnightblue" d="M250.16,-78.38C259.58,-77.3 269.29,-76.18 278.78,-75.09"/>
<polygon fill="midnightblue" stroke="midnightblue" points="279.43,-78.53 288.96,-73.91 278.63,-71.58 279.43,-78.53"/>
</g>
<!-- Node24 -->
<g id="node24" class="node">
<title>Node24</title>
<g id="a_node24"><a xlink:href="wld_8c.html#a41e1e95e9813260c184aad989f33bb05" target="_top" xlink:title=" ">
<polygon fill="white" stroke="black" points="466,-57.5 466,-76.5 592,-76.5 592,-57.5 466,-57.5"/>
<text text-anchor="middle" x="529" y="-64.5" font-family="Helvetica,sans-Serif" font-size="10.00">get_wld_plugin_parser</text>
</a>
</g>
</g>
<!-- Node23&#45;&gt;Node24 -->
<g id="edge23" class="edge">
<title>Node23&#45;&gt;Node24</title>
<path fill="none" stroke="midnightblue" d="M411.42,-67C425.66,-67 440.98,-67 455.68,-67"/>
<polygon fill="midnightblue" stroke="midnightblue" points="455.75,-70.5 465.75,-67 455.75,-63.5 455.75,-70.5"/>
</g>
<!-- Node25 -->
<g id="node25" class="node">
<title>Node25</title>
<g id="a_node25"><a xlink:href="wld__nl80211__core_8c.html#ac64e98962155641a465909b3c8fc0779" target="_top" xlink:title=" ">
<polygon fill="white" stroke="black" points="486.5,-19.5 486.5,-38.5 571.5,-38.5 571.5,-19.5 486.5,-19.5"/>
<text text-anchor="middle" x="529" y="-26.5" font-family="Helvetica,sans-Serif" font-size="10.00">s_isValidState</text>
</a>
</g>
</g>
<!-- Node23&#45;&gt;Node25 -->
<g id="edge24" class="edge">
<title>Node23&#45;&gt;Node25</title>
<path fill="none" stroke="midnightblue" d="M395.66,-57.41C420.26,-52.13 450.89,-45.55 476.49,-40.06"/>
<polygon fill="midnightblue" stroke="midnightblue" points="477.35,-43.45 486.39,-37.93 475.88,-36.61 477.35,-43.45"/>
</g>
</g>
</svg>
