<?xml version="1.0" encoding="UTF-8" standalone="no"?>
<!DOCTYPE svg PUBLIC "-//W3C//DTD SVG 1.1//EN"
 "http://www.w3.org/Graphics/SVG/1.1/DTD/svg11.dtd">
<!-- Generated by graphviz version 2.43.0 (0)
 -->
<!-- Title: include/wld/wld_monitor.h Pages: 1 -->
<svg width="5668pt" height="252pt"
 viewBox="0.00 0.00 5667.76 252.00" xmlns="http://www.w3.org/2000/svg" xmlns:xlink="http://www.w3.org/1999/xlink">
<g id="graph0" class="graph" transform="scale(1 1) rotate(0) translate(4 248)">
<title>include/wld/wld_monitor.h</title>
<polygon fill="white" stroke="transparent" points="-4,4 -4,-248 5663.76,-248 5663.76,4 -4,4"/>
<!-- Node1 -->
<g id="node1" class="node">
<title>Node1</title>
<g id="a_node1"><a xlink:title=" ">
<polygon fill="#bfbfbf" stroke="black" points="1234,-224.5 1234,-243.5 1378,-243.5 1378,-224.5 1234,-224.5"/>
<text text-anchor="middle" x="1306" y="-231.5" font-family="Helvetica,sans-Serif" font-size="10.00">include/wld/wld_monitor.h</text>
</a>
</g>
</g>
<!-- Node2 -->
<g id="node2" class="node">
<title>Node2</title>
<g id="a_node2"><a xlink:title=" ">
<polygon fill="white" stroke="#bfbfbf" points="0,-56.5 0,-75.5 62,-75.5 62,-56.5 0,-56.5"/>
<text text-anchor="middle" x="31" y="-63.5" font-family="Helvetica,sans-Serif" font-size="10.00">stdbool.h</text>
</a>
</g>
</g>
<!-- Node1&#45;&gt;Node2 -->
<g id="edge1" class="edge">
<title>Node1&#45;&gt;Node2</title>
<path fill="none" stroke="midnightblue" d="M1233.93,-231.85C980.92,-227.19 143.48,-206.22 51,-132 37.35,-121.05 32.8,-100.99 31.39,-86.04"/>
<polygon fill="midnightblue" stroke="midnightblue" points="34.88,-85.63 30.83,-75.84 27.89,-86.02 34.88,-85.63"/>
</g>
<!-- Node3 -->
<g id="node3" class="node">
<title>Node3</title>
<g id="a_node3"><a xlink:href="wld_8h.html" target="_top" xlink:title=" ">
<polygon fill="white" stroke="red" points="2570.5,-168.5 2570.5,-187.5 2613.5,-187.5 2613.5,-168.5 2570.5,-168.5"/>
<text text-anchor="middle" x="2592" y="-175.5" font-family="Helvetica,sans-Serif" font-size="10.00">wld.h</text>
</a>
</g>
</g>
<!-- Node1&#45;&gt;Node3 -->
<g id="edge2" class="edge">
<title>Node1&#45;&gt;Node3</title>
<path fill="none" stroke="midnightblue" d="M1378.36,-229.96C1620.1,-219.81 2393.88,-187.32 2560.28,-180.33"/>
<polygon fill="midnightblue" stroke="midnightblue" points="2560.51,-183.83 2570.35,-179.91 2560.22,-176.83 2560.51,-183.83"/>
</g>
<!-- Node3&#45;&gt;Node2 -->
<g id="edge3" class="edge">
<title>Node3&#45;&gt;Node2</title>
<path fill="none" stroke="midnightblue" d="M2570.41,-176.89C2328.56,-175.58 135.36,-162.86 77,-132 58.33,-122.13 45.56,-100.9 38.3,-85.37"/>
<polygon fill="midnightblue" stroke="midnightblue" points="41.33,-83.55 34.15,-75.75 34.9,-86.32 41.33,-83.55"/>
</g>
<!-- Node4 -->
<g id="node4" class="node">
<title>Node4</title>
<g id="a_node4"><a xlink:title=" ">
<polygon fill="white" stroke="#bfbfbf" points="3278.5,-0.5 3278.5,-19.5 3331.5,-19.5 3331.5,-0.5 3278.5,-0.5"/>
<text text-anchor="middle" x="3305" y="-7.5" font-family="Helvetica,sans-Serif" font-size="10.00">stdint.h</text>
</a>
</g>
</g>
<!-- Node3&#45;&gt;Node4 -->
<g id="edge4" class="edge">
<title>Node3&#45;&gt;Node4</title>
<path fill="none" stroke="midnightblue" d="M2613.73,-176.89C2885.43,-175.49 5613.75,-160.67 5642,-132 5665.71,-107.94 5665.65,-80.11 5642,-56 5599.94,-13.12 3635.71,-11.07 3341.67,-11"/>
<polygon fill="midnightblue" stroke="midnightblue" points="3341.54,-7.5 3331.54,-11 3341.54,-14.5 3341.54,-7.5"/>
</g>
<!-- Node5 -->
<g id="node5" class="node">
<title>Node5</title>
<g id="a_node5"><a xlink:title=" ">
<polygon fill="white" stroke="#bfbfbf" points="358,-56.5 358,-75.5 468,-75.5 468,-56.5 358,-56.5"/>
<text text-anchor="middle" x="413" y="-63.5" font-family="Helvetica,sans-Serif" font-size="10.00">swl/swl_common.h</text>
</a>
</g>
</g>
<!-- Node3&#45;&gt;Node5 -->
<g id="edge5" class="edge">
<title>Node3&#45;&gt;Node5</title>
<path fill="none" stroke="midnightblue" d="M2570.4,-176.98C2343.67,-176.75 407.73,-173.56 367,-132 351.87,-116.56 372.4,-95.72 390.66,-81.85"/>
<polygon fill="midnightblue" stroke="midnightblue" points="393.2,-84.33 399.28,-75.65 389.11,-78.65 393.2,-84.33"/>
</g>
<!-- Node6 -->
<g id="node6" class="node">
<title>Node6</title>
<g id="a_node6"><a xlink:title=" ">
<polygon fill="white" stroke="#bfbfbf" points="811,-112.5 811,-131.5 947,-131.5 947,-112.5 811,-112.5"/>
<text text-anchor="middle" x="879" y="-119.5" font-family="Helvetica,sans-Serif" font-size="10.00">swla/swla_commonLib.h</text>
</a>
</g>
</g>
<!-- Node3&#45;&gt;Node6 -->
<g id="edge6" class="edge">
<title>Node3&#45;&gt;Node6</title>
<path fill="none" stroke="midnightblue" d="M2570.29,-177.13C2428.87,-177.83 1623.93,-179.51 957.69,-132.05"/>
<polygon fill="midnightblue" stroke="midnightblue" points="957.63,-128.54 947.4,-131.31 957.13,-135.52 957.63,-128.54"/>
</g>
<!-- Node7 -->
<g id="node7" class="node">
<title>Node7</title>
<g id="a_node7"><a xlink:title=" ">
<polygon fill="white" stroke="#bfbfbf" points="965,-112.5 965,-131.5 1053,-131.5 1053,-112.5 965,-112.5"/>
<text text-anchor="middle" x="1009" y="-119.5" font-family="Helvetica,sans-Serif" font-size="10.00">swl/swl_uuid.h</text>
</a>
</g>
</g>
<!-- Node3&#45;&gt;Node7 -->
<g id="edge7" class="edge">
<title>Node3&#45;&gt;Node7</title>
<path fill="none" stroke="midnightblue" d="M2570.39,-176.78C2409.41,-175.06 1394.67,-163.13 1063.26,-131.95"/>
<polygon fill="midnightblue" stroke="midnightblue" points="1063.48,-128.45 1053.18,-130.97 1062.8,-135.42 1063.48,-128.45"/>
</g>
<!-- Node8 -->
<g id="node8" class="node">
<title>Node8</title>
<g id="a_node8"><a xlink:title=" ">
<polygon fill="white" stroke="#bfbfbf" points="1071,-112.5 1071,-131.5 1223,-131.5 1223,-112.5 1071,-112.5"/>
<text text-anchor="middle" x="1147" y="-119.5" font-family="Helvetica,sans-Serif" font-size="10.00">swla/swla_radioStandards.h</text>
</a>
</g>
</g>
<!-- Node3&#45;&gt;Node8 -->
<g id="edge8" class="edge">
<title>Node3&#45;&gt;Node8</title>
<path fill="none" stroke="midnightblue" d="M2570.39,-176.86C2443.67,-175.93 1783.97,-169.43 1233.54,-131.97"/>
<polygon fill="midnightblue" stroke="midnightblue" points="1233.62,-128.47 1223.41,-131.28 1233.15,-135.46 1233.62,-128.47"/>
</g>
<!-- Node9 -->
<g id="node9" class="node">
<title>Node9</title>
<g id="a_node9"><a xlink:title=" ">
<polygon fill="white" stroke="#bfbfbf" points="221.5,-0.5 221.5,-19.5 322.5,-19.5 322.5,-0.5 221.5,-0.5"/>
<text text-anchor="middle" x="272" y="-7.5" font-family="Helvetica,sans-Serif" font-size="10.00">swla/swla_time.h</text>
</a>
</g>
</g>
<!-- Node3&#45;&gt;Node9 -->
<g id="edge9" class="edge">
<title>Node3&#45;&gt;Node9</title>
<path fill="none" stroke="midnightblue" d="M2570.21,-176.87C2341.5,-175.47 388.39,-162.6 338,-132 300.79,-109.4 283.13,-57.81 276.03,-29.85"/>
<polygon fill="midnightblue" stroke="midnightblue" points="279.36,-28.72 273.67,-19.78 272.55,-30.31 279.36,-28.72"/>
</g>
<!-- Node10 -->
<g id="node10" class="node">
<title>Node10</title>
<g id="a_node10"><a xlink:title=" ">
<polygon fill="white" stroke="#bfbfbf" points="1241.5,-112.5 1241.5,-131.5 1370.5,-131.5 1370.5,-112.5 1241.5,-112.5"/>
<text text-anchor="middle" x="1306" y="-119.5" font-family="Helvetica,sans-Serif" font-size="10.00">swla/swla_time_spec.h</text>
</a>
</g>
</g>
<!-- Node3&#45;&gt;Node10 -->
<g id="edge10" class="edge">
<title>Node3&#45;&gt;Node10</title>
<path fill="none" stroke="midnightblue" d="M2570.44,-176.87C2452.03,-176.05 1868.73,-170.17 1380.61,-131.97"/>
<polygon fill="midnightblue" stroke="midnightblue" points="1380.79,-128.47 1370.54,-131.17 1380.24,-135.45 1380.79,-128.47"/>
</g>
<!-- Node11 -->
<g id="node11" class="node">
<title>Node11</title>
<g id="a_node11"><a xlink:title=" ">
<polygon fill="white" stroke="#bfbfbf" points="1389,-112.5 1389,-131.5 1483,-131.5 1483,-112.5 1389,-112.5"/>
<text text-anchor="middle" x="1436" y="-119.5" font-family="Helvetica,sans-Serif" font-size="10.00">swla/swla_oui.h</text>
</a>
</g>
</g>
<!-- Node3&#45;&gt;Node11 -->
<g id="edge11" class="edge">
<title>Node3&#45;&gt;Node11</title>
<path fill="none" stroke="midnightblue" d="M2570.22,-177.07C2457.9,-177.21 1932.68,-175.49 1493.04,-131.97"/>
<polygon fill="midnightblue" stroke="midnightblue" points="1493.3,-128.48 1483,-130.97 1492.6,-135.44 1493.3,-128.48"/>
</g>
<!-- Node12 -->
<g id="node12" class="node">
<title>Node12</title>
<g id="a_node12"><a xlink:title=" ">
<polygon fill="white" stroke="#bfbfbf" points="1501,-112.5 1501,-131.5 1629,-131.5 1629,-112.5 1501,-112.5"/>
<text text-anchor="middle" x="1565" y="-119.5" font-family="Helvetica,sans-Serif" font-size="10.00">swla/swla_delayExec.h</text>
</a>
</g>
</g>
<!-- Node3&#45;&gt;Node12 -->
<g id="edge12" class="edge">
<title>Node3&#45;&gt;Node12</title>
<path fill="none" stroke="midnightblue" d="M2570.49,-176.57C2468.04,-174.41 2019.18,-163.57 1639.24,-131.94"/>
<polygon fill="midnightblue" stroke="midnightblue" points="1639.4,-128.44 1629.15,-131.1 1638.82,-135.42 1639.4,-128.44"/>
</g>
<!-- Node13 -->
<g id="node13" class="node">
<title>Node13</title>
<g id="a_node13"><a xlink:title=" ">
<polygon fill="white" stroke="#bfbfbf" points="1647.5,-112.5 1647.5,-131.5 1766.5,-131.5 1766.5,-112.5 1647.5,-112.5"/>
<text text-anchor="middle" x="1707" y="-119.5" font-family="Helvetica,sans-Serif" font-size="10.00">swla/swla_function.h</text>
</a>
</g>
</g>
<!-- Node3&#45;&gt;Node13 -->
<g id="edge13" class="edge">
<title>Node3&#45;&gt;Node13</title>
<path fill="none" stroke="midnightblue" d="M2570.21,-176.4C2476.51,-173.67 2098.56,-161.41 1776.79,-132"/>
<polygon fill="midnightblue" stroke="midnightblue" points="1777.09,-128.51 1766.81,-131.08 1776.45,-135.48 1777.09,-128.51"/>
</g>
<!-- Node14 -->
<g id="node14" class="node">
<title>Node14</title>
<g id="a_node14"><a xlink:title=" ">
<polygon fill="white" stroke="#bfbfbf" points="1784.5,-112.5 1784.5,-131.5 1925.5,-131.5 1925.5,-112.5 1784.5,-112.5"/>
<text text-anchor="middle" x="1855" y="-119.5" font-family="Helvetica,sans-Serif" font-size="10.00">swl/swl_usp_cmdStatus.h</text>
</a>
</g>
</g>
<!-- Node3&#45;&gt;Node14 -->
<g id="edge14" class="edge">
<title>Node3&#45;&gt;Node14</title>
<path fill="none" stroke="midnightblue" d="M2570.42,-175.87C2488.98,-171.51 2192.33,-155 1935.91,-132.04"/>
<polygon fill="midnightblue" stroke="midnightblue" points="1935.93,-128.53 1925.65,-131.12 1935.3,-135.5 1935.93,-128.53"/>
</g>
<!-- Node15 -->
<g id="node15" class="node">
<title>Node15</title>
<g id="a_node15"><a xlink:title=" ">
<polygon fill="white" stroke="#bfbfbf" points="1944,-112.5 1944,-131.5 2030,-131.5 2030,-112.5 1944,-112.5"/>
<text text-anchor="middle" x="1987" y="-119.5" font-family="Helvetica,sans-Serif" font-size="10.00">swl/swl_wps.h</text>
</a>
</g>
</g>
<!-- Node3&#45;&gt;Node15 -->
<g id="edge15" class="edge">
<title>Node3&#45;&gt;Node15</title>
<path fill="none" stroke="midnightblue" d="M2570.32,-175.94C2497.19,-172.22 2252.73,-158.58 2040.18,-132.04"/>
<polygon fill="midnightblue" stroke="midnightblue" points="2040.44,-128.54 2030.09,-130.77 2039.57,-135.49 2040.44,-128.54"/>
</g>
<!-- Node16 -->
<g id="node16" class="node">
<title>Node16</title>
<g id="a_node16"><a xlink:title=" ">
<polygon fill="white" stroke="#bfbfbf" points="2048,-112.5 2048,-131.5 2152,-131.5 2152,-112.5 2048,-112.5"/>
<text text-anchor="middle" x="2100" y="-119.5" font-family="Helvetica,sans-Serif" font-size="10.00">swl/swl_security.h</text>
</a>
</g>
</g>
<!-- Node3&#45;&gt;Node16 -->
<g id="edge16" class="edge">
<title>Node3&#45;&gt;Node16</title>
<path fill="none" stroke="midnightblue" d="M2570.49,-175.05C2507.56,-169.3 2318.41,-151.53 2162,-132 2161.9,-131.99 2161.8,-131.97 2161.7,-131.96"/>
<polygon fill="midnightblue" stroke="midnightblue" points="2162.44,-128.53 2152.07,-130.71 2161.54,-135.47 2162.44,-128.53"/>
</g>
<!-- Node17 -->
<g id="node17" class="node">
<title>Node17</title>
<g id="a_node17"><a xlink:title=" ">
<polygon fill="white" stroke="#bfbfbf" points="2170.5,-112.5 2170.5,-131.5 2253.5,-131.5 2253.5,-112.5 2170.5,-112.5"/>
<text text-anchor="middle" x="2212" y="-119.5" font-family="Helvetica,sans-Serif" font-size="10.00">amxc/amxc.h</text>
</a>
</g>
</g>
<!-- Node3&#45;&gt;Node17 -->
<g id="edge17" class="edge">
<title>Node3&#45;&gt;Node17</title>
<path fill="none" stroke="midnightblue" d="M2570.4,-174.34C2519.14,-167.96 2385.9,-151.03 2263.63,-132.05"/>
<polygon fill="midnightblue" stroke="midnightblue" points="2264.15,-128.58 2253.73,-130.5 2263.07,-135.5 2264.15,-128.58"/>
</g>
<!-- Node18 -->
<g id="node18" class="node">
<title>Node18</title>
<g id="a_node18"><a xlink:title=" ">
<polygon fill="white" stroke="#bfbfbf" points="2272,-112.5 2272,-131.5 2356,-131.5 2356,-112.5 2272,-112.5"/>
<text text-anchor="middle" x="2314" y="-119.5" font-family="Helvetica,sans-Serif" font-size="10.00">amxp/amxp.h</text>
</a>
</g>
</g>
<!-- Node3&#45;&gt;Node18 -->
<g id="edge18" class="edge">
<title>Node3&#45;&gt;Node18</title>
<path fill="none" stroke="midnightblue" d="M2570.19,-172.76C2526.54,-164.28 2427.38,-145.02 2366.03,-133.11"/>
<polygon fill="midnightblue" stroke="midnightblue" points="2366.63,-129.66 2356.15,-131.19 2365.3,-136.53 2366.63,-129.66"/>
</g>
<!-- Node19 -->
<g id="node19" class="node">
<title>Node19</title>
<g id="a_node19"><a xlink:title=" ">
<polygon fill="white" stroke="#bfbfbf" points="2374,-112.5 2374,-131.5 2514,-131.5 2514,-112.5 2374,-112.5"/>
<text text-anchor="middle" x="2444" y="-119.5" font-family="Helvetica,sans-Serif" font-size="10.00">amxd/amxd_parameter.h</text>
</a>
</g>
</g>
<!-- Node3&#45;&gt;Node19 -->
<g id="edge19" class="edge">
<title>Node3&#45;&gt;Node19</title>
<path fill="none" stroke="midnightblue" d="M2570.48,-169.15C2545.95,-160.2 2505.58,-145.47 2477.05,-135.06"/>
<polygon fill="midnightblue" stroke="midnightblue" points="2478.1,-131.72 2467.5,-131.58 2475.7,-138.29 2478.1,-131.72"/>
</g>
<!-- Node20 -->
<g id="node20" class="node">
<title>Node20</title>
<g id="a_node20"><a xlink:title=" ">
<polygon fill="white" stroke="#bfbfbf" points="2532.5,-112.5 2532.5,-131.5 2651.5,-131.5 2651.5,-112.5 2532.5,-112.5"/>
<text text-anchor="middle" x="2592" y="-119.5" font-family="Helvetica,sans-Serif" font-size="10.00">amxd/amxd_action.h</text>
</a>
</g>
</g>
<!-- Node3&#45;&gt;Node20 -->
<g id="edge20" class="edge">
<title>Node3&#45;&gt;Node20</title>
<path fill="none" stroke="midnightblue" d="M2592,-168.08C2592,-161.01 2592,-150.86 2592,-141.99"/>
<polygon fill="midnightblue" stroke="midnightblue" points="2595.5,-141.75 2592,-131.75 2588.5,-141.75 2595.5,-141.75"/>
</g>
<!-- Node21 -->
<g id="node21" class="node">
<title>Node21</title>
<g id="a_node21"><a xlink:title=" ">
<polygon fill="white" stroke="#bfbfbf" points="2669.5,-112.5 2669.5,-131.5 2844.5,-131.5 2844.5,-112.5 2669.5,-112.5"/>
<text text-anchor="middle" x="2757" y="-119.5" font-family="Helvetica,sans-Serif" font-size="10.00">amxd/amxd_object_parameter.h</text>
</a>
</g>
</g>
<!-- Node3&#45;&gt;Node21 -->
<g id="edge21" class="edge">
<title>Node3&#45;&gt;Node21</title>
<path fill="none" stroke="midnightblue" d="M2613.57,-169.94C2640.88,-161 2688.32,-145.48 2721.12,-134.74"/>
<polygon fill="midnightblue" stroke="midnightblue" points="2722.38,-138.01 2730.8,-131.58 2720.2,-131.36 2722.38,-138.01"/>
</g>
<!-- Node22 -->
<g id="node22" class="node">
<title>Node22</title>
<g id="a_node22"><a xlink:title=" ">
<polygon fill="white" stroke="#bfbfbf" points="2863,-112.5 2863,-131.5 3015,-131.5 3015,-112.5 2863,-112.5"/>
<text text-anchor="middle" x="2939" y="-119.5" font-family="Helvetica,sans-Serif" font-size="10.00">amxd/amxd_object_event.h</text>
</a>
</g>
</g>
<!-- Node3&#45;&gt;Node22 -->
<g id="edge22" class="edge">
<title>Node3&#45;&gt;Node22</title>
<path fill="none" stroke="midnightblue" d="M2613.71,-173.62C2664.93,-165.65 2794.97,-145.41 2874.25,-133.08"/>
<polygon fill="midnightblue" stroke="midnightblue" points="2874.79,-136.53 2884.14,-131.54 2873.72,-129.62 2874.79,-136.53"/>
</g>
<!-- Node23 -->
<g id="node23" class="node">
<title>Node23</title>
<g id="a_node23"><a xlink:title=" ">
<polygon fill="white" stroke="#bfbfbf" points="3033.5,-112.5 3033.5,-131.5 3162.5,-131.5 3162.5,-112.5 3033.5,-112.5"/>
<text text-anchor="middle" x="3098" y="-119.5" font-family="Helvetica,sans-Serif" font-size="10.00">amxd/amxd_function.h</text>
</a>
</g>
</g>
<!-- Node3&#45;&gt;Node23 -->
<g id="edge23" class="edge">
<title>Node3&#45;&gt;Node23</title>
<path fill="none" stroke="midnightblue" d="M2613.59,-174.88C2675.46,-168.79 2858.91,-150.53 3023.14,-132.08"/>
<polygon fill="midnightblue" stroke="midnightblue" points="3023.89,-135.52 3033.43,-130.92 3023.1,-128.56 3023.89,-135.52"/>
</g>
<!-- Node24 -->
<g id="node24" class="node">
<title>Node24</title>
<g id="a_node24"><a xlink:title=" ">
<polygon fill="white" stroke="#bfbfbf" points="3180.5,-112.5 3180.5,-131.5 3349.5,-131.5 3349.5,-112.5 3180.5,-112.5"/>
<text text-anchor="middle" x="3265" y="-119.5" font-family="Helvetica,sans-Serif" font-size="10.00">amxd/amxd_object_hierarchy.h</text>
</a>
</g>
</g>
<!-- Node3&#45;&gt;Node24 -->
<g id="edge24" class="edge">
<title>Node3&#45;&gt;Node24</title>
<path fill="none" stroke="midnightblue" d="M2613.61,-175.47C2688.84,-170.12 2946.47,-151.54 3170.4,-132.13"/>
<polygon fill="midnightblue" stroke="midnightblue" points="3170.7,-135.61 3180.36,-131.26 3170.09,-128.64 3170.7,-135.61"/>
</g>
<!-- Node25 -->
<g id="node25" class="node">
<title>Node25</title>
<g id="a_node25"><a xlink:title=" ">
<polygon fill="white" stroke="#bfbfbf" points="3367.5,-112.5 3367.5,-131.5 3486.5,-131.5 3486.5,-112.5 3367.5,-112.5"/>
<text text-anchor="middle" x="3427" y="-119.5" font-family="Helvetica,sans-Serif" font-size="10.00">amxd/amxd_object.h</text>
</a>
</g>
</g>
<!-- Node3&#45;&gt;Node25 -->
<g id="edge25" class="edge">
<title>Node3&#45;&gt;Node25</title>
<path fill="none" stroke="midnightblue" d="M2613.7,-176.31C2703.69,-173.31 3056.5,-160.38 3357.1,-132.12"/>
<polygon fill="midnightblue" stroke="midnightblue" points="3357.7,-135.58 3367.32,-131.15 3357.04,-128.61 3357.7,-135.58"/>
</g>
<!-- Node26 -->
<g id="node26" class="node">
<title>Node26</title>
<g id="a_node26"><a xlink:title=" ">
<polygon fill="white" stroke="#bfbfbf" points="3504.5,-112.5 3504.5,-131.5 3609.5,-131.5 3609.5,-112.5 3504.5,-112.5"/>
<text text-anchor="middle" x="3557" y="-119.5" font-family="Helvetica,sans-Serif" font-size="10.00">amxd/amxd_dm.h</text>
</a>
</g>
</g>
<!-- Node3&#45;&gt;Node26 -->
<g id="edge26" class="edge">
<title>Node3&#45;&gt;Node26</title>
<path fill="none" stroke="midnightblue" d="M2613.75,-176.69C2713.45,-175.13 3136.96,-166.71 3494.44,-132.06"/>
<polygon fill="midnightblue" stroke="midnightblue" points="3494.86,-135.54 3504.47,-131.08 3494.17,-128.57 3494.86,-135.54"/>
</g>
<!-- Node27 -->
<g id="node27" class="node">
<title>Node27</title>
<g id="a_node27"><a xlink:title=" ">
<polygon fill="white" stroke="#bfbfbf" points="3628,-112.5 3628,-131.5 3772,-131.5 3772,-112.5 3628,-112.5"/>
<text text-anchor="middle" x="3700" y="-119.5" font-family="Helvetica,sans-Serif" font-size="10.00">amxd/amxd_transaction.h</text>
</a>
</g>
</g>
<!-- Node3&#45;&gt;Node27 -->
<g id="edge27" class="edge">
<title>Node3&#45;&gt;Node27</title>
<path fill="none" stroke="midnightblue" d="M2613.71,-176.59C2721.27,-174.43 3207.8,-163.37 3617.33,-132.08"/>
<polygon fill="midnightblue" stroke="midnightblue" points="3617.9,-135.54 3627.6,-131.29 3617.36,-128.56 3617.9,-135.54"/>
</g>
<!-- Node28 -->
<g id="node28" class="node">
<title>Node28</title>
<g id="a_node28"><a xlink:title=" ">
<polygon fill="white" stroke="#bfbfbf" points="3790,-112.5 3790,-131.5 3906,-131.5 3906,-112.5 3790,-112.5"/>
<text text-anchor="middle" x="3848" y="-119.5" font-family="Helvetica,sans-Serif" font-size="10.00">amxb/amxb_types.h</text>
</a>
</g>
</g>
<!-- Node3&#45;&gt;Node28 -->
<g id="edge28" class="edge">
<title>Node3&#45;&gt;Node28</title>
<path fill="none" stroke="midnightblue" d="M2613.54,-176.95C2730.59,-176.54 3302.03,-172.49 3779.73,-132.02"/>
<polygon fill="midnightblue" stroke="midnightblue" points="3780.27,-135.48 3789.93,-131.15 3779.67,-128.51 3780.27,-135.48"/>
</g>
<!-- Node29 -->
<g id="node29" class="node">
<title>Node29</title>
<g id="a_node29"><a xlink:title=" ">
<polygon fill="white" stroke="#bfbfbf" points="3924,-112.5 3924,-131.5 4060,-131.5 4060,-112.5 3924,-112.5"/>
<text text-anchor="middle" x="3992" y="-119.5" font-family="Helvetica,sans-Serif" font-size="10.00">amxb/amxb_operators.h</text>
</a>
</g>
</g>
<!-- Node3&#45;&gt;Node29 -->
<g id="edge29" class="edge">
<title>Node3&#45;&gt;Node29</title>
<path fill="none" stroke="midnightblue" d="M2613.86,-176.93C2739.22,-176.39 3379.7,-171.76 3913.38,-132.06"/>
<polygon fill="midnightblue" stroke="midnightblue" points="3913.88,-135.53 3923.59,-131.29 3913.36,-128.55 3913.88,-135.53"/>
</g>
<!-- Node30 -->
<g id="node30" class="node">
<title>Node30</title>
<g id="a_node30"><a xlink:title=" ">
<polygon fill="white" stroke="#bfbfbf" points="4078,-112.5 4078,-131.5 4190,-131.5 4190,-112.5 4078,-112.5"/>
<text text-anchor="middle" x="4134" y="-119.5" font-family="Helvetica,sans-Serif" font-size="10.00">amxb/amxb_error.h</text>
</a>
</g>
</g>
<!-- Node3&#45;&gt;Node30 -->
<g id="edge30" class="edge">
<title>Node3&#45;&gt;Node30</title>
<path fill="none" stroke="midnightblue" d="M2613.73,-177.21C2747.15,-178.33 3469.03,-181.8 4067.54,-132.02"/>
<polygon fill="midnightblue" stroke="midnightblue" points="4068,-135.5 4077.67,-131.18 4067.41,-128.52 4068,-135.5"/>
</g>
<!-- Node31 -->
<g id="node31" class="node">
<title>Node31</title>
<g id="a_node31"><a xlink:title=" ">
<polygon fill="white" stroke="#bfbfbf" points="4208.5,-112.5 4208.5,-131.5 4291.5,-131.5 4291.5,-112.5 4208.5,-112.5"/>
<text text-anchor="middle" x="4250" y="-119.5" font-family="Helvetica,sans-Serif" font-size="10.00">amxo/amxo.h</text>
</a>
</g>
</g>
<!-- Node3&#45;&gt;Node31 -->
<g id="edge31" class="edge">
<title>Node3&#45;&gt;Node31</title>
<path fill="none" stroke="midnightblue" d="M2613.63,-176.83C2779.3,-175.47 3849.97,-165.53 4198.23,-131.87"/>
<polygon fill="midnightblue" stroke="midnightblue" points="4198.72,-135.34 4208.32,-130.87 4198.02,-128.37 4198.72,-135.34"/>
</g>
<!-- Node32 -->
<g id="node32" class="node">
<title>Node32</title>
<g id="a_node32"><a xlink:title=" ">
<polygon fill="white" stroke="#bfbfbf" points="4309.5,-112.5 4309.5,-131.5 4424.5,-131.5 4424.5,-112.5 4309.5,-112.5"/>
<text text-anchor="middle" x="4367" y="-119.5" font-family="Helvetica,sans-Serif" font-size="10.00">amxo/amxo_types.h</text>
</a>
</g>
</g>
<!-- Node3&#45;&gt;Node32 -->
<g id="edge32" class="edge">
<title>Node3&#45;&gt;Node32</title>
<path fill="none" stroke="midnightblue" d="M2613.6,-176.76C2785.08,-174.78 3929.29,-160.67 4299.26,-132.03"/>
<polygon fill="midnightblue" stroke="midnightblue" points="4299.76,-135.5 4309.45,-131.22 4299.2,-128.53 4299.76,-135.5"/>
</g>
<!-- Node33 -->
<g id="node33" class="node">
<title>Node33</title>
<g id="a_node33"><a xlink:href="wld__types_8h.html" target="_top" xlink:title=" ">
<polygon fill="white" stroke="black" points="589.5,-56.5 589.5,-75.5 664.5,-75.5 664.5,-56.5 589.5,-56.5"/>
<text text-anchor="middle" x="627" y="-63.5" font-family="Helvetica,sans-Serif" font-size="10.00">wld_types.h</text>
</a>
</g>
</g>
<!-- Node3&#45;&gt;Node33 -->
<g id="edge33" class="edge">
<title>Node3&#45;&gt;Node33</title>
<path fill="none" stroke="midnightblue" d="M2570.37,-176.88C2367.32,-175.67 801.01,-165.28 709,-132 681.65,-122.11 656.44,-99.17 641.39,-83.37"/>
<polygon fill="midnightblue" stroke="midnightblue" points="643.83,-80.85 634.49,-75.86 638.68,-85.59 643.83,-80.85"/>
</g>
<!-- Node34 -->
<g id="node34" class="node">
<title>Node34</title>
<g id="a_node34"><a xlink:title=" ">
<polygon fill="white" stroke="#bfbfbf" points="458.5,-0.5 458.5,-19.5 603.5,-19.5 603.5,-0.5 458.5,-0.5"/>
<text text-anchor="middle" x="531" y="-7.5" font-family="Helvetica,sans-Serif" font-size="10.00">swl/types/swl_arrayType.h</text>
</a>
</g>
</g>
<!-- Node3&#45;&gt;Node34 -->
<g id="edge62" class="edge">
<title>Node3&#45;&gt;Node34</title>
<path fill="none" stroke="midnightblue" d="M2570.34,-176.95C2343.04,-176.37 402.09,-170.34 358,-132 332.33,-109.68 328.03,-82.78 349,-56 361.86,-39.57 407.5,-28.31 449.85,-21.16"/>
<polygon fill="midnightblue" stroke="midnightblue" points="450.64,-24.58 459.95,-19.52 449.52,-17.67 450.64,-24.58"/>
</g>
<!-- Node35 -->
<g id="node35" class="node">
<title>Node35</title>
<g id="a_node35"><a xlink:title=" ">
<polygon fill="white" stroke="#bfbfbf" points="642.5,-0.5 642.5,-19.5 803.5,-19.5 803.5,-0.5 642.5,-0.5"/>
<text text-anchor="middle" x="723" y="-7.5" font-family="Helvetica,sans-Serif" font-size="10.00">swla/swla_namedTupleType.h</text>
</a>
</g>
</g>
<!-- Node3&#45;&gt;Node35 -->
<g id="edge64" class="edge">
<title>Node3&#45;&gt;Node35</title>
<path fill="none" stroke="midnightblue" d="M2613.91,-176.89C2885.03,-175.44 5581.07,-160.35 5609,-132 5615.24,-125.67 5615.22,-118.35 5609,-112 5521.78,-22.96 1475.94,-12.28 814.12,-11.13"/>
<polygon fill="midnightblue" stroke="midnightblue" points="813.7,-7.63 803.69,-11.11 813.68,-14.63 813.7,-7.63"/>
</g>
<!-- Node36 -->
<g id="node36" class="node">
<title>Node36</title>
<g id="a_node36"><a xlink:href="wld__channel__types_8h.html" target="_top" xlink:title=" ">
<polygon fill="white" stroke="black" points="86.5,-112.5 86.5,-131.5 205.5,-131.5 205.5,-112.5 86.5,-112.5"/>
<text text-anchor="middle" x="146" y="-119.5" font-family="Helvetica,sans-Serif" font-size="10.00">wld_channel_types.h</text>
</a>
</g>
</g>
<!-- Node3&#45;&gt;Node36 -->
<g id="edge38" class="edge">
<title>Node3&#45;&gt;Node36</title>
<path fill="none" stroke="midnightblue" d="M2570.49,-176.9C2362.95,-175.85 712.53,-166.53 220,-132 218.69,-131.91 217.37,-131.81 216.04,-131.71"/>
<polygon fill="midnightblue" stroke="midnightblue" points="215.99,-128.19 205.72,-130.79 215.38,-135.16 215.99,-128.19"/>
</g>
<!-- Node37 -->
<g id="node37" class="node">
<title>Node37</title>
<g id="a_node37"><a xlink:title=" ">
<polygon fill="white" stroke="#bfbfbf" points="118.5,-56.5 118.5,-75.5 243.5,-75.5 243.5,-56.5 118.5,-56.5"/>
<text text-anchor="middle" x="181" y="-63.5" font-family="Helvetica,sans-Serif" font-size="10.00">swla/swla_chanspec.h</text>
</a>
</g>
</g>
<!-- Node3&#45;&gt;Node37 -->
<g id="edge56" class="edge">
<title>Node3&#45;&gt;Node37</title>
<path fill="none" stroke="midnightblue" d="M2570.43,-177C2341.93,-176.93 372.32,-175.05 258,-132 232.03,-122.22 208.68,-99.6 194.67,-83.81"/>
<polygon fill="midnightblue" stroke="midnightblue" points="197.05,-81.21 187.9,-75.87 191.72,-85.75 197.05,-81.21"/>
</g>
<!-- Node38 -->
<g id="node38" class="node">
<title>Node38</title>
<g id="a_node38"><a xlink:href="wld__bgdfs_8h.html" target="_top" xlink:title=" ">
<polygon fill="white" stroke="black" points="717.5,-112.5 717.5,-131.5 792.5,-131.5 792.5,-112.5 717.5,-112.5"/>
<text text-anchor="middle" x="755" y="-119.5" font-family="Helvetica,sans-Serif" font-size="10.00">wld_bgdfs.h</text>
</a>
</g>
</g>
<!-- Node3&#45;&gt;Node38 -->
<g id="edge42" class="edge">
<title>Node3&#45;&gt;Node38</title>
<path fill="none" stroke="midnightblue" d="M2570.22,-176.95C2393.38,-176.43 1189.88,-171.51 802.73,-131.83"/>
<polygon fill="midnightblue" stroke="midnightblue" points="802.94,-128.33 792.63,-130.77 802.21,-135.3 802.94,-128.33"/>
</g>
<!-- Node39 -->
<g id="node39" class="node">
<title>Node39</title>
<g id="a_node39"><a xlink:href="wld__rad__delayMgr_8h.html" target="_top" xlink:title=" ">
<polygon fill="white" stroke="black" points="4443,-112.5 4443,-131.5 4557,-131.5 4557,-112.5 4443,-112.5"/>
<text text-anchor="middle" x="4500" y="-119.5" font-family="Helvetica,sans-Serif" font-size="10.00">wld_rad_delayMgr.h</text>
</a>
</g>
</g>
<!-- Node3&#45;&gt;Node39 -->
<g id="edge44" class="edge">
<title>Node3&#45;&gt;Node39</title>
<path fill="none" stroke="midnightblue" d="M2613.68,-176.79C2794.16,-175.02 4047.74,-162.24 4425,-132 4427.52,-131.8 4430.09,-131.56 4432.7,-131.31"/>
<polygon fill="midnightblue" stroke="midnightblue" points="4433.27,-134.77 4442.83,-130.21 4432.51,-127.81 4433.27,-134.77"/>
</g>
<!-- Node40 -->
<g id="node40" class="node">
<title>Node40</title>
<g id="a_node40"><a xlink:href="wld__fsm_8h.html" target="_top" xlink:title=" ">
<polygon fill="white" stroke="black" points="508.5,-112.5 508.5,-131.5 575.5,-131.5 575.5,-112.5 508.5,-112.5"/>
<text text-anchor="middle" x="542" y="-119.5" font-family="Helvetica,sans-Serif" font-size="10.00">wld_fsm.h</text>
</a>
</g>
</g>
<!-- Node3&#45;&gt;Node40 -->
<g id="edge46" class="edge">
<title>Node3&#45;&gt;Node40</title>
<path fill="none" stroke="midnightblue" d="M2570.34,-177.06C2382.01,-177.54 1019.01,-179.35 585.77,-131.8"/>
<polygon fill="midnightblue" stroke="midnightblue" points="586.03,-128.31 575.71,-130.67 585.25,-135.26 586.03,-128.31"/>
</g>
<!-- Node41 -->
<g id="node41" class="node">
<title>Node41</title>
<g id="a_node41"><a xlink:href="wld__sensing_8h.html" target="_top" xlink:title=" ">
<polygon fill="white" stroke="black" points="4575,-112.5 4575,-131.5 4661,-131.5 4661,-112.5 4575,-112.5"/>
<text text-anchor="middle" x="4618" y="-119.5" font-family="Helvetica,sans-Serif" font-size="10.00">wld_sensing.h</text>
</a>
</g>
</g>
<!-- Node3&#45;&gt;Node41 -->
<g id="edge48" class="edge">
<title>Node3&#45;&gt;Node41</title>
<path fill="none" stroke="midnightblue" d="M2613.57,-176.95C2800.86,-176.43 4152.06,-171.44 4557,-132 4559.51,-131.76 4562.09,-131.46 4564.69,-131.12"/>
<polygon fill="midnightblue" stroke="midnightblue" points="4565.42,-134.56 4574.83,-129.68 4564.43,-127.63 4565.42,-134.56"/>
</g>
<!-- Node42 -->
<g id="node42" class="node">
<title>Node42</title>
<g id="a_node42"><a xlink:href="wld__mld_8h.html" target="_top" xlink:title=" ">
<polygon fill="white" stroke="black" points="593.5,-112.5 593.5,-131.5 660.5,-131.5 660.5,-112.5 593.5,-112.5"/>
<text text-anchor="middle" x="627" y="-119.5" font-family="Helvetica,sans-Serif" font-size="10.00">wld_mld.h</text>
</a>
</g>
</g>
<!-- Node3&#45;&gt;Node42 -->
<g id="edge50" class="edge">
<title>Node3&#45;&gt;Node42</title>
<path fill="none" stroke="midnightblue" d="M2570.45,-176.98C2385.92,-176.7 1068.79,-173.27 675,-132 673.7,-131.86 672.37,-131.71 671.04,-131.54"/>
<polygon fill="midnightblue" stroke="midnightblue" points="671.13,-128.02 660.73,-130.03 670.12,-134.95 671.13,-128.02"/>
</g>
<!-- Node43 -->
<g id="node43" class="node">
<title>Node43</title>
<g id="a_node43"><a xlink:href="wld__autoCommitRadData_8h.html" target="_top" xlink:title=" ">
<polygon fill="white" stroke="black" points="4679,-112.5 4679,-131.5 4855,-131.5 4855,-112.5 4679,-112.5"/>
<text text-anchor="middle" x="4767" y="-119.5" font-family="Helvetica,sans-Serif" font-size="10.00">Utils/wld_autoCommitRadData.h</text>
</a>
</g>
</g>
<!-- Node3&#45;&gt;Node43 -->
<g id="edge52" class="edge">
<title>Node3&#45;&gt;Node43</title>
<path fill="none" stroke="midnightblue" d="M2613.52,-177.11C2774.97,-177.84 3813.43,-180.46 4668.94,-132.01"/>
<polygon fill="midnightblue" stroke="midnightblue" points="4669.21,-135.5 4678.99,-131.44 4668.81,-128.51 4669.21,-135.5"/>
</g>
<!-- Node44 -->
<g id="node44" class="node">
<title>Node44</title>
<g id="a_node44"><a xlink:href="wld__dmnMgt_8h.html" target="_top" xlink:title=" ">
<polygon fill="white" stroke="red" points="376,-112.5 376,-131.5 490,-131.5 490,-112.5 376,-112.5"/>
<text text-anchor="middle" x="433" y="-119.5" font-family="Helvetica,sans-Serif" font-size="10.00">Utils/wld_dmnMgt.h</text>
</a>
</g>
</g>
<!-- Node3&#45;&gt;Node44 -->
<g id="edge53" class="edge">
<title>Node3&#45;&gt;Node44</title>
<path fill="none" stroke="midnightblue" d="M2570.37,-176.87C2377.79,-175.66 953.92,-165.72 500.54,-131.91"/>
<polygon fill="midnightblue" stroke="midnightblue" points="500.57,-128.4 490.34,-131.13 500.04,-135.38 500.57,-128.4"/>
</g>
<!-- Node46 -->
<g id="node45" class="node">
<title>Node46</title>
<g id="a_node45"><a xlink:title=" ">
<polygon fill="white" stroke="#bfbfbf" points="4873.5,-112.5 4873.5,-131.5 4974.5,-131.5 4974.5,-112.5 4873.5,-112.5"/>
<text text-anchor="middle" x="4924" y="-119.5" font-family="Helvetica,sans-Serif" font-size="10.00">swl/swl_staCap.h</text>
</a>
</g>
</g>
<!-- Node3&#45;&gt;Node46 -->
<g id="edge57" class="edge">
<title>Node3&#45;&gt;Node46</title>
<path fill="none" stroke="midnightblue" d="M2613.55,-176.96C2815.01,-176.51 4371.99,-171.85 4863.32,-131.9"/>
<polygon fill="midnightblue" stroke="midnightblue" points="4863.64,-135.39 4873.32,-131.07 4863.06,-128.41 4863.64,-135.39"/>
</g>
<!-- Node47 -->
<g id="node46" class="node">
<title>Node47</title>
<g id="a_node46"><a xlink:title=" ">
<polygon fill="white" stroke="#bfbfbf" points="4993,-112.5 4993,-131.5 5097,-131.5 5097,-112.5 4993,-112.5"/>
<text text-anchor="middle" x="5045" y="-119.5" font-family="Helvetica,sans-Serif" font-size="10.00">swla/swla_table.h</text>
</a>
</g>
</g>
<!-- Node3&#45;&gt;Node47 -->
<g id="edge58" class="edge">
<title>Node3&#45;&gt;Node47</title>
<path fill="none" stroke="midnightblue" d="M2613.69,-176.98C2821.66,-176.69 4465.91,-173.15 4982.67,-131.97"/>
<polygon fill="midnightblue" stroke="midnightblue" points="4983.12,-135.45 4992.81,-131.15 4982.56,-128.47 4983.12,-135.45"/>
</g>
<!-- Node48 -->
<g id="node47" class="node">
<title>Node48</title>
<g id="a_node47"><a xlink:title=" ">
<polygon fill="white" stroke="#bfbfbf" points="5115.5,-112.5 5115.5,-131.5 5212.5,-131.5 5212.5,-112.5 5115.5,-112.5"/>
<text text-anchor="middle" x="5164" y="-119.5" font-family="Helvetica,sans-Serif" font-size="10.00">swl/swl_assert.h</text>
</a>
</g>
</g>
<!-- Node3&#45;&gt;Node48 -->
<g id="edge59" class="edge">
<title>Node3&#45;&gt;Node48</title>
<path fill="none" stroke="midnightblue" d="M2613.78,-177.02C2828,-177.17 4561.62,-176.98 5105.06,-131.91"/>
<polygon fill="midnightblue" stroke="midnightblue" points="5105.65,-135.38 5115.32,-131.04 5105.06,-128.4 5105.65,-135.38"/>
</g>
<!-- Node49 -->
<g id="node48" class="node">
<title>Node49</title>
<g id="a_node48"><a xlink:title=" ">
<polygon fill="white" stroke="#bfbfbf" points="5230.5,-112.5 5230.5,-131.5 5351.5,-131.5 5351.5,-112.5 5230.5,-112.5"/>
<text text-anchor="middle" x="5291" y="-119.5" font-family="Helvetica,sans-Serif" font-size="10.00">swl/swl_returnCode.h</text>
</a>
</g>
</g>
<!-- Node3&#45;&gt;Node49 -->
<g id="edge60" class="edge">
<title>Node3&#45;&gt;Node49</title>
<path fill="none" stroke="midnightblue" d="M2613.73,-176.97C2833.17,-176.59 4651.94,-172.33 5220.13,-132.04"/>
<polygon fill="midnightblue" stroke="midnightblue" points="5220.74,-135.5 5230.46,-131.29 5220.23,-128.52 5220.74,-135.5"/>
</g>
<!-- Node50 -->
<g id="node49" class="node">
<title>Node50</title>
<g id="a_node49"><a xlink:title=" ">
<polygon fill="white" stroke="#bfbfbf" points="5370,-112.5 5370,-131.5 5496,-131.5 5496,-112.5 5370,-112.5"/>
<text text-anchor="middle" x="5433" y="-119.5" font-family="Helvetica,sans-Serif" font-size="10.00">swla/swla_tupleType.h</text>
</a>
</g>
</g>
<!-- Node3&#45;&gt;Node50 -->
<g id="edge61" class="edge">
<title>Node3&#45;&gt;Node50</title>
<path fill="none" stroke="midnightblue" d="M2613.81,-176.97C2840,-176.65 4761.62,-172.72 5359.81,-131.98"/>
<polygon fill="midnightblue" stroke="midnightblue" points="5360.09,-135.47 5369.82,-131.29 5359.6,-128.49 5360.09,-135.47"/>
</g>
<!-- Node51 -->
<g id="node50" class="node">
<title>Node51</title>
<g id="a_node50"><a xlink:title=" ">
<polygon fill="white" stroke="#bfbfbf" points="5514,-112.5 5514,-131.5 5600,-131.5 5600,-112.5 5514,-112.5"/>
<text text-anchor="middle" x="5557" y="-119.5" font-family="Helvetica,sans-Serif" font-size="10.00">swl/swl_mlo.h</text>
</a>
</g>
</g>
<!-- Node3&#45;&gt;Node51 -->
<g id="edge63" class="edge">
<title>Node3&#45;&gt;Node51</title>
<path fill="none" stroke="midnightblue" d="M2613.67,-176.87C2861.25,-175.38 5153.45,-160.87 5503.91,-131.87"/>
<polygon fill="midnightblue" stroke="midnightblue" points="5504.29,-135.35 5513.94,-130.99 5503.67,-128.38 5504.29,-135.35"/>
</g>
<!-- Node33&#45;&gt;Node4 -->
<g id="edge34" class="edge">
<title>Node33&#45;&gt;Node4</title>
<path fill="none" stroke="midnightblue" d="M664.6,-64.24C964.83,-58.19 2969.22,-17.77 3267.83,-11.75"/>
<polygon fill="midnightblue" stroke="midnightblue" points="3268.18,-15.24 3278.11,-11.54 3268.04,-8.24 3268.18,-15.24"/>
</g>
<!-- Node33&#45;&gt;Node9 -->
<g id="edge37" class="edge">
<title>Node33&#45;&gt;Node9</title>
<path fill="none" stroke="midnightblue" d="M589.34,-59.27C528.08,-49.95 406.27,-31.42 332.67,-20.23"/>
<polygon fill="midnightblue" stroke="midnightblue" points="333.03,-16.74 322.62,-18.7 331.98,-23.66 333.03,-16.74"/>
</g>
<!-- Node33&#45;&gt;Node34 -->
<g id="edge35" class="edge">
<title>Node33&#45;&gt;Node34</title>
<path fill="none" stroke="midnightblue" d="M611.58,-56.32C596.46,-47.82 573.18,-34.73 555.53,-24.8"/>
<polygon fill="midnightblue" stroke="midnightblue" points="556.82,-21.51 546.39,-19.65 553.39,-27.61 556.82,-21.51"/>
</g>
<!-- Node33&#45;&gt;Node35 -->
<g id="edge36" class="edge">
<title>Node33&#45;&gt;Node35</title>
<path fill="none" stroke="midnightblue" d="M642.42,-56.32C657.54,-47.82 680.82,-34.73 698.47,-24.8"/>
<polygon fill="midnightblue" stroke="midnightblue" points="700.61,-27.61 707.61,-19.65 697.18,-21.51 700.61,-27.61"/>
</g>
<!-- Node36&#45;&gt;Node2 -->
<g id="edge39" class="edge">
<title>Node36&#45;&gt;Node2</title>
<path fill="none" stroke="midnightblue" d="M127.78,-112.44C109.1,-103.68 79.84,-89.94 58.38,-79.86"/>
<polygon fill="midnightblue" stroke="midnightblue" points="59.68,-76.6 49.14,-75.52 56.7,-82.93 59.68,-76.6"/>
</g>
<!-- Node36&#45;&gt;Node9 -->
<g id="edge41" class="edge">
<title>Node36&#45;&gt;Node9</title>
<path fill="none" stroke="midnightblue" d="M134.67,-112.35C119.15,-99.45 94.76,-74.7 109,-56 121.61,-39.44 170.26,-27.42 211.16,-19.99"/>
<polygon fill="midnightblue" stroke="midnightblue" points="211.85,-23.42 221.1,-18.24 210.64,-16.53 211.85,-23.42"/>
</g>
<!-- Node36&#45;&gt;Node37 -->
<g id="edge40" class="edge">
<title>Node36&#45;&gt;Node37</title>
<path fill="none" stroke="midnightblue" d="M151.78,-112.08C156.67,-104.53 163.83,-93.49 169.83,-84.23"/>
<polygon fill="midnightblue" stroke="midnightblue" points="172.83,-86.05 175.33,-75.75 166.95,-82.24 172.83,-86.05"/>
</g>
<!-- Node38&#45;&gt;Node33 -->
<g id="edge43" class="edge">
<title>Node38&#45;&gt;Node33</title>
<path fill="none" stroke="midnightblue" d="M734.72,-112.44C713.65,-103.56 680.48,-89.56 656.51,-79.45"/>
<polygon fill="midnightblue" stroke="midnightblue" points="657.76,-76.18 647.19,-75.52 655.04,-82.63 657.76,-76.18"/>
</g>
<!-- Node39&#45;&gt;Node3 -->
<g id="edge45" class="edge">
<title>Node39&#45;&gt;Node3</title>
<path fill="none" stroke="midnightblue" d="M4448.6,-131.51C4446.72,-131.69 4444.84,-131.85 4443,-132 4069.64,-161.92 2837.99,-174.76 2623.84,-176.73"/>
<polygon fill="midnightblue" stroke="midnightblue" points="2623.57,-173.23 2613.61,-176.82 2623.64,-180.23 2623.57,-173.23"/>
</g>
<!-- Node40&#45;&gt;Node33 -->
<g id="edge47" class="edge">
<title>Node40&#45;&gt;Node33</title>
<path fill="none" stroke="midnightblue" d="M555.66,-112.32C568.92,-103.9 589.27,-90.97 604.85,-81.07"/>
<polygon fill="midnightblue" stroke="midnightblue" points="606.81,-83.97 613.38,-75.65 603.06,-78.06 606.81,-83.97"/>
</g>
<!-- Node41&#45;&gt;Node3 -->
<g id="edge49" class="edge">
<title>Node41&#45;&gt;Node3</title>
<path fill="none" stroke="midnightblue" d="M4579.43,-131.52C4577.94,-131.7 4576.46,-131.86 4575,-132 4174.07,-171.05 2845.51,-176.33 2623.54,-176.93"/>
<polygon fill="midnightblue" stroke="midnightblue" points="2623.53,-173.43 2613.54,-176.96 2623.54,-180.43 2623.53,-173.43"/>
</g>
<!-- Node42&#45;&gt;Node33 -->
<g id="edge51" class="edge">
<title>Node42&#45;&gt;Node33</title>
<path fill="none" stroke="midnightblue" d="M627,-112.08C627,-105.01 627,-94.86 627,-85.99"/>
<polygon fill="midnightblue" stroke="midnightblue" points="630.5,-85.75 627,-75.75 623.5,-85.75 630.5,-85.75"/>
</g>
<!-- Node44&#45;&gt;Node5 -->
<g id="edge54" class="edge">
<title>Node44&#45;&gt;Node5</title>
<path fill="none" stroke="midnightblue" d="M429.7,-112.08C427.02,-104.85 423.15,-94.41 419.81,-85.4"/>
<polygon fill="midnightblue" stroke="midnightblue" points="423,-83.91 416.24,-75.75 416.43,-86.34 423,-83.91"/>
</g>
<!-- Node44&#45;&gt;Node33 -->
<g id="edge55" class="edge">
<title>Node44&#45;&gt;Node33</title>
<path fill="none" stroke="midnightblue" d="M463.74,-112.44C496.94,-103.2 549.99,-88.44 586.56,-78.26"/>
<polygon fill="midnightblue" stroke="midnightblue" points="587.71,-81.57 596.4,-75.52 585.83,-74.83 587.71,-81.57"/>
</g>
</g>
</svg>
