<?xml version="1.0" encoding="UTF-8" standalone="no"?>
<!DOCTYPE svg PUBLIC "-//W3C//DTD SVG 1.1//EN"
 "http://www.w3.org/Graphics/SVG/1.1/DTD/svg11.dtd">
<!-- Generated by graphviz version 2.43.0 (0)
 -->
<!-- Title: include/wld/wld_nl80211_api.h Pages: 1 -->
<svg width="5268pt" height="319pt"
 viewBox="0.00 0.00 5268.00 319.00" xmlns="http://www.w3.org/2000/svg" xmlns:xlink="http://www.w3.org/1999/xlink">
<g id="graph0" class="graph" transform="scale(1 1) rotate(0) translate(4 315)">
<title>include/wld/wld_nl80211_api.h</title>
<polygon fill="white" stroke="transparent" points="-4,4 -4,-315 5264,-315 5264,4 -4,4"/>
<!-- Node1 -->
<g id="node1" class="node">
<title>Node1</title>
<g id="a_node1"><a xlink:title=" ">
<polygon fill="#bfbfbf" stroke="black" points="472.5,-280.5 472.5,-310.5 609.5,-310.5 609.5,-280.5 472.5,-280.5"/>
<text text-anchor="start" x="480.5" y="-298.5" font-family="Helvetica,sans-Serif" font-size="10.00">include/wld/wld_nl80211</text>
<text text-anchor="middle" x="541" y="-287.5" font-family="Helvetica,sans-Serif" font-size="10.00">_api.h</text>
</a>
</g>
</g>
<!-- Node2 -->
<g id="node2" class="node">
<title>Node2</title>
<g id="a_node2"><a xlink:href="wld__nl80211__core_8h.html" target="_top" xlink:title=" ">
<polygon fill="white" stroke="black" points="484.5,-112.5 484.5,-131.5 597.5,-131.5 597.5,-112.5 484.5,-112.5"/>
<text text-anchor="middle" x="541" y="-119.5" font-family="Helvetica,sans-Serif" font-size="10.00">wld_nl80211_core.h</text>
</a>
</g>
</g>
<!-- Node1&#45;&gt;Node2 -->
<g id="edge1" class="edge">
<title>Node1&#45;&gt;Node2</title>
<path fill="none" stroke="midnightblue" d="M541,-280.47C541,-249.7 541,-176.33 541,-141.7"/>
<polygon fill="midnightblue" stroke="midnightblue" points="544.5,-141.56 541,-131.56 537.5,-141.56 544.5,-141.56"/>
</g>
<!-- Node4 -->
<g id="node4" class="node">
<title>Node4</title>
<g id="a_node4"><a xlink:href="wld__nl80211__attr_8h.html" target="_top" xlink:title=" ">
<polygon fill="white" stroke="black" points="266.5,-224.5 266.5,-243.5 375.5,-243.5 375.5,-224.5 266.5,-224.5"/>
<text text-anchor="middle" x="321" y="-231.5" font-family="Helvetica,sans-Serif" font-size="10.00">wld_nl80211_attr.h</text>
</a>
</g>
</g>
<!-- Node1&#45;&gt;Node4 -->
<g id="edge3" class="edge">
<title>Node1&#45;&gt;Node4</title>
<path fill="none" stroke="midnightblue" d="M489.14,-280.47C450.36,-269.99 398.04,-255.84 362.12,-246.12"/>
<polygon fill="midnightblue" stroke="midnightblue" points="363.02,-242.74 352.45,-243.51 361.19,-249.5 363.02,-242.74"/>
</g>
<!-- Node11 -->
<g id="node11" class="node">
<title>Node11</title>
<g id="a_node11"><a xlink:href="wld__nl80211__types_8h.html" target="_top" xlink:title=" ">
<polygon fill="white" stroke="black" points="3125.5,-224.5 3125.5,-243.5 3244.5,-243.5 3244.5,-224.5 3125.5,-224.5"/>
<text text-anchor="middle" x="3185" y="-231.5" font-family="Helvetica,sans-Serif" font-size="10.00">wld_nl80211_types.h</text>
</a>
</g>
</g>
<!-- Node1&#45;&gt;Node11 -->
<g id="edge10" class="edge">
<title>Node1&#45;&gt;Node11</title>
<path fill="none" stroke="midnightblue" d="M609.69,-292.95C980.64,-284.61 2741.84,-244.97 3115.3,-236.57"/>
<polygon fill="midnightblue" stroke="midnightblue" points="3115.51,-240.06 3125.43,-236.34 3115.35,-233.07 3115.51,-240.06"/>
</g>
<!-- Node3 -->
<g id="node3" class="node">
<title>Node3</title>
<g id="a_node3"><a xlink:title=" ">
<polygon fill="white" stroke="#bfbfbf" points="523.5,-56.5 523.5,-75.5 644.5,-75.5 644.5,-56.5 523.5,-56.5"/>
<text text-anchor="middle" x="584" y="-63.5" font-family="Helvetica,sans-Serif" font-size="10.00">swl/swl_returnCode.h</text>
</a>
</g>
</g>
<!-- Node2&#45;&gt;Node3 -->
<g id="edge2" class="edge">
<title>Node2&#45;&gt;Node3</title>
<path fill="none" stroke="midnightblue" d="M548.1,-112.08C554.24,-104.38 563.27,-93.03 570.74,-83.65"/>
<polygon fill="midnightblue" stroke="midnightblue" points="573.54,-85.75 577.03,-75.75 568.06,-81.39 573.54,-85.75"/>
</g>
<!-- Node5 -->
<g id="node5" class="node">
<title>Node5</title>
<g id="a_node5"><a xlink:title=" ">
<polygon fill="white" stroke="#bfbfbf" points="119,-168.5 119,-187.5 203,-187.5 203,-168.5 119,-168.5"/>
<text text-anchor="middle" x="161" y="-175.5" font-family="Helvetica,sans-Serif" font-size="10.00">linux/socket.h</text>
</a>
</g>
</g>
<!-- Node4&#45;&gt;Node5 -->
<g id="edge4" class="edge">
<title>Node4&#45;&gt;Node5</title>
<path fill="none" stroke="midnightblue" d="M295.65,-224.44C268.73,-215.36 226,-200.94 195.91,-190.78"/>
<polygon fill="midnightblue" stroke="midnightblue" points="196.83,-187.4 186.23,-187.52 194.59,-194.03 196.83,-187.4"/>
</g>
<!-- Node6 -->
<g id="node6" class="node">
<title>Node6</title>
<g id="a_node6"><a xlink:title=" ">
<polygon fill="white" stroke="#bfbfbf" points="221,-168.5 221,-187.5 307,-187.5 307,-168.5 221,-168.5"/>
<text text-anchor="middle" x="264" y="-175.5" font-family="Helvetica,sans-Serif" font-size="10.00">linux/netlink.h</text>
</a>
</g>
</g>
<!-- Node4&#45;&gt;Node6 -->
<g id="edge5" class="edge">
<title>Node4&#45;&gt;Node6</title>
<path fill="none" stroke="midnightblue" d="M311.84,-224.32C303.5,-216.42 290.97,-204.55 280.82,-194.94"/>
<polygon fill="midnightblue" stroke="midnightblue" points="282.99,-192.17 273.32,-187.83 278.18,-197.25 282.99,-192.17"/>
</g>
<!-- Node7 -->
<g id="node7" class="node">
<title>Node7</title>
<g id="a_node7"><a xlink:href="wld__nl80211_8h.html" target="_top" xlink:title=" ">
<polygon fill="white" stroke="black" points="13.5,-168.5 13.5,-187.5 100.5,-187.5 100.5,-168.5 13.5,-168.5"/>
<text text-anchor="middle" x="57" y="-175.5" font-family="Helvetica,sans-Serif" font-size="10.00">wld_nl80211.h</text>
</a>
</g>
</g>
<!-- Node4&#45;&gt;Node7 -->
<g id="edge6" class="edge">
<title>Node4&#45;&gt;Node7</title>
<path fill="none" stroke="midnightblue" d="M279.17,-224.44C232.92,-214.98 158.39,-199.74 108.56,-189.55"/>
<polygon fill="midnightblue" stroke="midnightblue" points="109.13,-186.09 98.64,-187.52 107.73,-192.95 109.13,-186.09"/>
</g>
<!-- Node9 -->
<g id="node9" class="node">
<title>Node9</title>
<g id="a_node9"><a xlink:title=" ">
<polygon fill="white" stroke="#bfbfbf" points="356,-112.5 356,-131.5 466,-131.5 466,-112.5 356,-112.5"/>
<text text-anchor="middle" x="411" y="-119.5" font-family="Helvetica,sans-Serif" font-size="10.00">swl/swl_common.h</text>
</a>
</g>
</g>
<!-- Node4&#45;&gt;Node9 -->
<g id="edge8" class="edge">
<title>Node4&#45;&gt;Node9</title>
<path fill="none" stroke="midnightblue" d="M375.79,-225.78C399,-219.71 423.89,-208.54 438,-188 448.43,-172.82 437.22,-152.98 426.23,-139.24"/>
<polygon fill="midnightblue" stroke="midnightblue" points="428.8,-136.85 419.62,-131.56 423.5,-141.42 428.8,-136.85"/>
</g>
<!-- Node10 -->
<g id="node10" class="node">
<title>Node10</title>
<g id="a_node10"><a xlink:title=" ">
<polygon fill="white" stroke="#bfbfbf" points="325,-168.5 325,-187.5 429,-187.5 429,-168.5 325,-168.5"/>
<text text-anchor="middle" x="377" y="-175.5" font-family="Helvetica,sans-Serif" font-size="10.00">swl/swl_unLiList.h</text>
</a>
</g>
</g>
<!-- Node4&#45;&gt;Node10 -->
<g id="edge9" class="edge">
<title>Node4&#45;&gt;Node10</title>
<path fill="none" stroke="midnightblue" d="M330,-224.32C338.19,-216.42 350.51,-204.55 360.47,-194.94"/>
<polygon fill="midnightblue" stroke="midnightblue" points="363.07,-197.29 367.84,-187.83 358.21,-192.26 363.07,-197.29"/>
</g>
<!-- Node8 -->
<g id="node8" class="node">
<title>Node8</title>
<g id="a_node8"><a xlink:title=" ">
<polygon fill="white" stroke="#bfbfbf" points="0,-112.5 0,-131.5 114,-131.5 114,-112.5 0,-112.5"/>
<text text-anchor="middle" x="57" y="-119.5" font-family="Helvetica,sans-Serif" font-size="10.00">wld_nl80211_path.h</text>
</a>
</g>
</g>
<!-- Node7&#45;&gt;Node8 -->
<g id="edge7" class="edge">
<title>Node7&#45;&gt;Node8</title>
<path fill="none" stroke="midnightblue" d="M57,-168.08C57,-161.01 57,-150.86 57,-141.99"/>
<polygon fill="midnightblue" stroke="midnightblue" points="60.5,-141.75 57,-131.75 53.5,-141.75 60.5,-141.75"/>
</g>
<!-- Node12 -->
<g id="node12" class="node">
<title>Node12</title>
<g id="a_node12"><a xlink:title=" ">
<polygon fill="white" stroke="#bfbfbf" points="4443.5,-0.5 4443.5,-19.5 4496.5,-19.5 4496.5,-0.5 4443.5,-0.5"/>
<text text-anchor="middle" x="4470" y="-7.5" font-family="Helvetica,sans-Serif" font-size="10.00">stdint.h</text>
</a>
</g>
</g>
<!-- Node11&#45;&gt;Node12 -->
<g id="edge11" class="edge">
<title>Node11&#45;&gt;Node12</title>
<path fill="none" stroke="midnightblue" d="M3244.54,-232.08C3557.77,-226.97 5002.8,-199.74 5067,-132 5146.94,-47.65 4649.63,-18.95 4507.28,-12.52"/>
<polygon fill="midnightblue" stroke="midnightblue" points="4507.04,-9 4496.9,-12.06 4506.73,-16 4507.04,-9"/>
</g>
<!-- Node13 -->
<g id="node13" class="node">
<title>Node13</title>
<g id="a_node13"><a xlink:href="wld_8h.html" target="_top" xlink:title=" ">
<polygon fill="white" stroke="red" points="3163.5,-168.5 3163.5,-187.5 3206.5,-187.5 3206.5,-168.5 3163.5,-168.5"/>
<text text-anchor="middle" x="3185" y="-175.5" font-family="Helvetica,sans-Serif" font-size="10.00">wld.h</text>
</a>
</g>
</g>
<!-- Node11&#45;&gt;Node13 -->
<g id="edge12" class="edge">
<title>Node11&#45;&gt;Node13</title>
<path fill="none" stroke="midnightblue" d="M3185,-224.08C3185,-217.01 3185,-206.86 3185,-197.99"/>
<polygon fill="midnightblue" stroke="midnightblue" points="3188.5,-197.75 3185,-187.75 3181.5,-197.75 3188.5,-197.75"/>
</g>
<!-- Node75 -->
<g id="node49" class="node">
<title>Node75</title>
<g id="a_node49"><a xlink:title=" ">
<polygon fill="white" stroke="#bfbfbf" points="5114,-168.5 5114,-187.5 5260,-187.5 5260,-168.5 5114,-168.5"/>
<text text-anchor="middle" x="5187" y="-175.5" font-family="Helvetica,sans-Serif" font-size="10.00">swl/swl_common_trilean.h</text>
</a>
</g>
</g>
<!-- Node11&#45;&gt;Node75 -->
<g id="edge61" class="edge">
<title>Node11&#45;&gt;Node75</title>
<path fill="none" stroke="midnightblue" d="M3244.64,-233.33C3480.37,-234.25 4369.84,-234.27 5100,-188 5101.28,-187.92 5102.57,-187.83 5103.86,-187.74"/>
<polygon fill="midnightblue" stroke="midnightblue" points="5104.23,-191.23 5113.93,-186.98 5103.7,-184.25 5104.23,-191.23"/>
</g>
<!-- Node82 -->
<g id="node50" class="node">
<title>Node82</title>
<g id="a_node50"><a xlink:title=" ">
<polygon fill="white" stroke="#bfbfbf" points="3010.5,-168.5 3010.5,-187.5 3145.5,-187.5 3145.5,-168.5 3010.5,-168.5"/>
<text text-anchor="middle" x="3078" y="-175.5" font-family="Helvetica,sans-Serif" font-size="10.00">swl/swl_common_mcs.h</text>
</a>
</g>
</g>
<!-- Node11&#45;&gt;Node82 -->
<g id="edge62" class="edge">
<title>Node11&#45;&gt;Node82</title>
<path fill="none" stroke="midnightblue" d="M3167.81,-224.32C3150.65,-215.66 3124.05,-202.24 3104.25,-192.25"/>
<polygon fill="midnightblue" stroke="midnightblue" points="3105.65,-189.04 3095.15,-187.65 3102.5,-195.28 3105.65,-189.04"/>
</g>
<!-- Node13&#45;&gt;Node2 -->
<g id="edge60" class="edge">
<title>Node13&#45;&gt;Node2</title>
<path fill="none" stroke="midnightblue" d="M3163.48,-169.95C3160.33,-169.16 3157.1,-168.46 3154,-168 2874.63,-126.25 893.78,-151.79 612,-132 610.53,-131.9 609.04,-131.78 607.54,-131.66"/>
<polygon fill="midnightblue" stroke="midnightblue" points="607.8,-128.17 597.52,-130.74 607.16,-135.14 607.8,-128.17"/>
</g>
<!-- Node13&#45;&gt;Node3 -->
<g id="edge59" class="edge">
<title>Node13&#45;&gt;Node3</title>
<path fill="none" stroke="midnightblue" d="M3163.48,-169.95C3160.33,-169.16 3157.1,-168.46 3154,-168 3016.13,-147.38 772.53,-188.3 645,-132 622.96,-122.27 605.17,-100.33 594.61,-84.64"/>
<polygon fill="midnightblue" stroke="midnightblue" points="597.32,-82.38 588.99,-75.83 591.42,-86.15 597.32,-82.38"/>
</g>
<!-- Node13&#45;&gt;Node9 -->
<g id="edge15" class="edge">
<title>Node13&#45;&gt;Node9</title>
<path fill="none" stroke="midnightblue" d="M3163.48,-169.95C3160.33,-169.15 3157.1,-168.46 3154,-168 2862.65,-124.56 815.46,-154.14 476.32,-131.92"/>
<polygon fill="midnightblue" stroke="midnightblue" points="476.33,-128.42 466.11,-131.2 475.84,-135.4 476.33,-128.42"/>
</g>
<!-- Node13&#45;&gt;Node12 -->
<g id="edge14" class="edge">
<title>Node13&#45;&gt;Node12</title>
<path fill="none" stroke="midnightblue" d="M3206.6,-177.01C3369.69,-176.96 4402.5,-174.99 4451,-132 4479.68,-106.57 4477.39,-56.97 4473.53,-29.83"/>
<polygon fill="midnightblue" stroke="midnightblue" points="4476.94,-29.02 4471.86,-19.72 4470.03,-30.16 4476.94,-29.02"/>
</g>
<!-- Node14 -->
<g id="node14" class="node">
<title>Node14</title>
<g id="a_node14"><a xlink:title=" ">
<polygon fill="white" stroke="#bfbfbf" points="4085,-56.5 4085,-75.5 4147,-75.5 4147,-56.5 4085,-56.5"/>
<text text-anchor="middle" x="4116" y="-63.5" font-family="Helvetica,sans-Serif" font-size="10.00">stdbool.h</text>
</a>
</g>
</g>
<!-- Node13&#45;&gt;Node14 -->
<g id="edge13" class="edge">
<title>Node13&#45;&gt;Node14</title>
<path fill="none" stroke="midnightblue" d="M3206.54,-176.74C3342.41,-175.03 4076.29,-164.28 4110,-132 4122.13,-120.38 4122.23,-100.43 4120.16,-85.69"/>
<polygon fill="midnightblue" stroke="midnightblue" points="4123.56,-84.86 4118.31,-75.65 4116.68,-86.12 4123.56,-84.86"/>
</g>
<!-- Node15 -->
<g id="node15" class="node">
<title>Node15</title>
<g id="a_node15"><a xlink:title=" ">
<polygon fill="white" stroke="#bfbfbf" points="4498,-112.5 4498,-131.5 4634,-131.5 4634,-112.5 4498,-112.5"/>
<text text-anchor="middle" x="4566" y="-119.5" font-family="Helvetica,sans-Serif" font-size="10.00">swla/swla_commonLib.h</text>
</a>
</g>
</g>
<!-- Node13&#45;&gt;Node15 -->
<g id="edge16" class="edge">
<title>Node13&#45;&gt;Node15</title>
<path fill="none" stroke="midnightblue" d="M3206.86,-176.85C3331.69,-175.89 3966.9,-169.28 4484,-132 4485.11,-131.92 4486.22,-131.84 4487.34,-131.75"/>
<polygon fill="midnightblue" stroke="midnightblue" points="4487.9,-135.22 4497.58,-130.9 4487.32,-128.24 4487.9,-135.22"/>
</g>
<!-- Node16 -->
<g id="node16" class="node">
<title>Node16</title>
<g id="a_node16"><a xlink:title=" ">
<polygon fill="white" stroke="#bfbfbf" points="4652,-112.5 4652,-131.5 4740,-131.5 4740,-112.5 4652,-112.5"/>
<text text-anchor="middle" x="4696" y="-119.5" font-family="Helvetica,sans-Serif" font-size="10.00">swl/swl_uuid.h</text>
</a>
</g>
</g>
<!-- Node13&#45;&gt;Node16 -->
<g id="edge17" class="edge">
<title>Node13&#45;&gt;Node16</title>
<path fill="none" stroke="midnightblue" d="M3206.85,-176.74C3364.11,-174.79 4325.93,-161.85 4641.76,-131.95"/>
<polygon fill="midnightblue" stroke="midnightblue" points="4642.2,-135.42 4651.82,-130.97 4641.52,-128.46 4642.2,-135.42"/>
</g>
<!-- Node17 -->
<g id="node17" class="node">
<title>Node17</title>
<g id="a_node17"><a xlink:title=" ">
<polygon fill="white" stroke="#bfbfbf" points="4758,-112.5 4758,-131.5 4910,-131.5 4910,-112.5 4758,-112.5"/>
<text text-anchor="middle" x="4834" y="-119.5" font-family="Helvetica,sans-Serif" font-size="10.00">swla/swla_radioStandards.h</text>
</a>
</g>
</g>
<!-- Node13&#45;&gt;Node17 -->
<g id="edge18" class="edge">
<title>Node13&#45;&gt;Node17</title>
<path fill="none" stroke="midnightblue" d="M3206.63,-177C3344.2,-176.89 4111.23,-174.35 4747.28,-132.06"/>
<polygon fill="midnightblue" stroke="midnightblue" points="4747.82,-135.53 4757.57,-131.37 4747.36,-128.55 4747.82,-135.53"/>
</g>
<!-- Node18 -->
<g id="node18" class="node">
<title>Node18</title>
<g id="a_node18"><a xlink:title=" ">
<polygon fill="white" stroke="#bfbfbf" points="3991.5,-0.5 3991.5,-19.5 4092.5,-19.5 4092.5,-0.5 3991.5,-0.5"/>
<text text-anchor="middle" x="4042" y="-7.5" font-family="Helvetica,sans-Serif" font-size="10.00">swla/swla_time.h</text>
</a>
</g>
</g>
<!-- Node13&#45;&gt;Node18 -->
<g id="edge19" class="edge">
<title>Node13&#45;&gt;Node18</title>
<path fill="none" stroke="midnightblue" d="M3206.79,-176.68C3323.09,-174.86 3868.01,-164.63 3935,-132 3981.48,-109.36 4016.51,-56.57 4032.47,-28.8"/>
<polygon fill="midnightblue" stroke="midnightblue" points="4035.67,-30.25 4037.48,-19.81 4029.56,-26.84 4035.67,-30.25"/>
</g>
<!-- Node19 -->
<g id="node19" class="node">
<title>Node19</title>
<g id="a_node19"><a xlink:title=" ">
<polygon fill="white" stroke="#bfbfbf" points="4928.5,-112.5 4928.5,-131.5 5057.5,-131.5 5057.5,-112.5 4928.5,-112.5"/>
<text text-anchor="middle" x="4993" y="-119.5" font-family="Helvetica,sans-Serif" font-size="10.00">swla/swla_time_spec.h</text>
</a>
</g>
</g>
<!-- Node13&#45;&gt;Node19 -->
<g id="edge20" class="edge">
<title>Node13&#45;&gt;Node19</title>
<path fill="none" stroke="midnightblue" d="M3206.58,-177.21C3352.44,-178.51 4209.51,-183.58 4918.3,-131.96"/>
<polygon fill="midnightblue" stroke="midnightblue" points="4918.74,-135.44 4928.46,-131.22 4918.23,-128.46 4918.74,-135.44"/>
</g>
<!-- Node20 -->
<g id="node20" class="node">
<title>Node20</title>
<g id="a_node20"><a xlink:title=" ">
<polygon fill="white" stroke="#bfbfbf" points="654,-112.5 654,-131.5 748,-131.5 748,-112.5 654,-112.5"/>
<text text-anchor="middle" x="701" y="-119.5" font-family="Helvetica,sans-Serif" font-size="10.00">swla/swla_oui.h</text>
</a>
</g>
</g>
<!-- Node13&#45;&gt;Node20 -->
<g id="edge21" class="edge">
<title>Node13&#45;&gt;Node20</title>
<path fill="none" stroke="midnightblue" d="M3163.48,-169.96C3160.33,-169.16 3157.1,-168.47 3154,-168 2630.37,-89.51 1304.02,-177.3 758.26,-131.94"/>
<polygon fill="midnightblue" stroke="midnightblue" points="758.56,-128.46 748.3,-131.09 757.96,-135.43 758.56,-128.46"/>
</g>
<!-- Node21 -->
<g id="node21" class="node">
<title>Node21</title>
<g id="a_node21"><a xlink:title=" ">
<polygon fill="white" stroke="#bfbfbf" points="766,-112.5 766,-131.5 894,-131.5 894,-112.5 766,-112.5"/>
<text text-anchor="middle" x="830" y="-119.5" font-family="Helvetica,sans-Serif" font-size="10.00">swla/swla_delayExec.h</text>
</a>
</g>
</g>
<!-- Node13&#45;&gt;Node21 -->
<g id="edge22" class="edge">
<title>Node13&#45;&gt;Node21</title>
<path fill="none" stroke="midnightblue" d="M3163.48,-169.96C3160.33,-169.16 3157.1,-168.47 3154,-168 2662.54,-94.09 1418.63,-165.7 904.2,-131.97"/>
<polygon fill="midnightblue" stroke="midnightblue" points="904.27,-128.47 894.06,-131.29 903.8,-135.46 904.27,-128.47"/>
</g>
<!-- Node22 -->
<g id="node22" class="node">
<title>Node22</title>
<g id="a_node22"><a xlink:title=" ">
<polygon fill="white" stroke="#bfbfbf" points="912.5,-112.5 912.5,-131.5 1031.5,-131.5 1031.5,-112.5 912.5,-112.5"/>
<text text-anchor="middle" x="972" y="-119.5" font-family="Helvetica,sans-Serif" font-size="10.00">swla/swla_function.h</text>
</a>
</g>
</g>
<!-- Node13&#45;&gt;Node22 -->
<g id="edge23" class="edge">
<title>Node13&#45;&gt;Node22</title>
<path fill="none" stroke="midnightblue" d="M3163.48,-169.96C3160.33,-169.16 3157.1,-168.47 3154,-168 2692.7,-98.38 1525.23,-165.91 1041.9,-132.03"/>
<polygon fill="midnightblue" stroke="midnightblue" points="1041.89,-128.52 1031.66,-131.29 1041.39,-135.5 1041.89,-128.52"/>
</g>
<!-- Node23 -->
<g id="node23" class="node">
<title>Node23</title>
<g id="a_node23"><a xlink:title=" ">
<polygon fill="white" stroke="#bfbfbf" points="1049.5,-112.5 1049.5,-131.5 1190.5,-131.5 1190.5,-112.5 1049.5,-112.5"/>
<text text-anchor="middle" x="1120" y="-119.5" font-family="Helvetica,sans-Serif" font-size="10.00">swl/swl_usp_cmdStatus.h</text>
</a>
</g>
</g>
<!-- Node13&#45;&gt;Node23 -->
<g id="edge24" class="edge">
<title>Node13&#45;&gt;Node23</title>
<path fill="none" stroke="midnightblue" d="M3163.48,-169.97C3160.33,-169.17 3157.1,-168.47 3154,-168 2727.86,-103.38 1649.85,-159.44 1200.8,-131.95"/>
<polygon fill="midnightblue" stroke="midnightblue" points="1200.84,-128.45 1190.64,-131.31 1200.4,-135.43 1200.84,-128.45"/>
</g>
<!-- Node24 -->
<g id="node24" class="node">
<title>Node24</title>
<g id="a_node24"><a xlink:title=" ">
<polygon fill="white" stroke="#bfbfbf" points="1209,-112.5 1209,-131.5 1295,-131.5 1295,-112.5 1209,-112.5"/>
<text text-anchor="middle" x="1252" y="-119.5" font-family="Helvetica,sans-Serif" font-size="10.00">swl/swl_wps.h</text>
</a>
</g>
</g>
<!-- Node13&#45;&gt;Node24 -->
<g id="edge25" class="edge">
<title>Node13&#45;&gt;Node24</title>
<path fill="none" stroke="midnightblue" d="M3163.48,-169.97C3160.33,-169.17 3157.1,-168.47 3154,-168 2750.77,-106.64 1729.94,-170.14 1305.29,-131.92"/>
<polygon fill="midnightblue" stroke="midnightblue" points="1305.34,-128.41 1295.06,-130.97 1304.7,-135.38 1305.34,-128.41"/>
</g>
<!-- Node25 -->
<g id="node25" class="node">
<title>Node25</title>
<g id="a_node25"><a xlink:title=" ">
<polygon fill="white" stroke="#bfbfbf" points="1313,-112.5 1313,-131.5 1417,-131.5 1417,-112.5 1313,-112.5"/>
<text text-anchor="middle" x="1365" y="-119.5" font-family="Helvetica,sans-Serif" font-size="10.00">swl/swl_security.h</text>
</a>
</g>
</g>
<!-- Node13&#45;&gt;Node25 -->
<g id="edge26" class="edge">
<title>Node13&#45;&gt;Node25</title>
<path fill="none" stroke="midnightblue" d="M3163.48,-169.97C3160.33,-169.17 3157.1,-168.47 3154,-168 2777.57,-110.46 1825.2,-163.18 1427.36,-131.97"/>
<polygon fill="midnightblue" stroke="midnightblue" points="1427.44,-128.46 1417.19,-131.14 1426.88,-135.44 1427.44,-128.46"/>
</g>
<!-- Node26 -->
<g id="node26" class="node">
<title>Node26</title>
<g id="a_node26"><a xlink:title=" ">
<polygon fill="white" stroke="#bfbfbf" points="1435.5,-112.5 1435.5,-131.5 1518.5,-131.5 1518.5,-112.5 1435.5,-112.5"/>
<text text-anchor="middle" x="1477" y="-119.5" font-family="Helvetica,sans-Serif" font-size="10.00">amxc/amxc.h</text>
</a>
</g>
</g>
<!-- Node13&#45;&gt;Node26 -->
<g id="edge27" class="edge">
<title>Node13&#45;&gt;Node26</title>
<path fill="none" stroke="midnightblue" d="M3163.48,-169.98C3160.33,-169.17 3157.1,-168.48 3154,-168 2799.99,-113.65 1904.05,-166.54 1528.81,-131.86"/>
<polygon fill="midnightblue" stroke="midnightblue" points="1528.97,-128.36 1518.68,-130.89 1528.3,-135.33 1528.97,-128.36"/>
</g>
<!-- Node27 -->
<g id="node27" class="node">
<title>Node27</title>
<g id="a_node27"><a xlink:title=" ">
<polygon fill="white" stroke="#bfbfbf" points="1537,-112.5 1537,-131.5 1621,-131.5 1621,-112.5 1537,-112.5"/>
<text text-anchor="middle" x="1579" y="-119.5" font-family="Helvetica,sans-Serif" font-size="10.00">amxp/amxp.h</text>
</a>
</g>
</g>
<!-- Node13&#45;&gt;Node27 -->
<g id="edge28" class="edge">
<title>Node13&#45;&gt;Node27</title>
<path fill="none" stroke="midnightblue" d="M3163.48,-169.98C3160.33,-169.18 3157.1,-168.48 3154,-168 2822.39,-116.83 1983.28,-164.6 1631.25,-131.92"/>
<polygon fill="midnightblue" stroke="midnightblue" points="1631.52,-128.43 1621.23,-130.96 1630.85,-135.4 1631.52,-128.43"/>
</g>
<!-- Node28 -->
<g id="node28" class="node">
<title>Node28</title>
<g id="a_node28"><a xlink:title=" ">
<polygon fill="white" stroke="#bfbfbf" points="1639,-112.5 1639,-131.5 1779,-131.5 1779,-112.5 1639,-112.5"/>
<text text-anchor="middle" x="1709" y="-119.5" font-family="Helvetica,sans-Serif" font-size="10.00">amxd/amxd_parameter.h</text>
</a>
</g>
</g>
<!-- Node13&#45;&gt;Node28 -->
<g id="edge29" class="edge">
<title>Node13&#45;&gt;Node28</title>
<path fill="none" stroke="midnightblue" d="M3163.48,-169.99C3160.33,-169.19 3157.1,-168.48 3154,-168 2857.18,-121.79 2107.26,-152.53 1789.38,-132"/>
<polygon fill="midnightblue" stroke="midnightblue" points="1789.39,-128.5 1779.18,-131.32 1788.92,-135.48 1789.39,-128.5"/>
</g>
<!-- Node29 -->
<g id="node29" class="node">
<title>Node29</title>
<g id="a_node29"><a xlink:title=" ">
<polygon fill="white" stroke="#bfbfbf" points="1797.5,-112.5 1797.5,-131.5 1916.5,-131.5 1916.5,-112.5 1797.5,-112.5"/>
<text text-anchor="middle" x="1857" y="-119.5" font-family="Helvetica,sans-Serif" font-size="10.00">amxd/amxd_action.h</text>
</a>
</g>
</g>
<!-- Node13&#45;&gt;Node29 -->
<g id="edge30" class="edge">
<title>Node13&#45;&gt;Node29</title>
<path fill="none" stroke="midnightblue" d="M3163.48,-170C3160.33,-169.19 3157.1,-168.49 3154,-168 2887.25,-126.07 2213.38,-153.3 1926.7,-132.03"/>
<polygon fill="midnightblue" stroke="midnightblue" points="1926.91,-128.53 1916.67,-131.25 1926.37,-135.51 1926.91,-128.53"/>
</g>
<!-- Node30 -->
<g id="node30" class="node">
<title>Node30</title>
<g id="a_node30"><a xlink:title=" ">
<polygon fill="white" stroke="#bfbfbf" points="1934.5,-112.5 1934.5,-131.5 2109.5,-131.5 2109.5,-112.5 1934.5,-112.5"/>
<text text-anchor="middle" x="2022" y="-119.5" font-family="Helvetica,sans-Serif" font-size="10.00">amxd/amxd_object_parameter.h</text>
</a>
</g>
</g>
<!-- Node13&#45;&gt;Node30 -->
<g id="edge31" class="edge">
<title>Node13&#45;&gt;Node30</title>
<path fill="none" stroke="midnightblue" d="M3163.48,-170.01C3160.33,-169.21 3157.1,-168.5 3154,-168 2702.83,-95.81 2580.14,-160.31 2119.99,-132.01"/>
<polygon fill="midnightblue" stroke="midnightblue" points="2119.95,-128.5 2109.75,-131.37 2119.51,-135.49 2119.95,-128.5"/>
</g>
<!-- Node31 -->
<g id="node31" class="node">
<title>Node31</title>
<g id="a_node31"><a xlink:title=" ">
<polygon fill="white" stroke="#bfbfbf" points="2128,-112.5 2128,-131.5 2280,-131.5 2280,-112.5 2128,-112.5"/>
<text text-anchor="middle" x="2204" y="-119.5" font-family="Helvetica,sans-Serif" font-size="10.00">amxd/amxd_object_event.h</text>
</a>
</g>
</g>
<!-- Node13&#45;&gt;Node31 -->
<g id="edge32" class="edge">
<title>Node13&#45;&gt;Node31</title>
<path fill="none" stroke="midnightblue" d="M3163.47,-170.03C3160.32,-169.22 3157.1,-168.51 3154,-168 2777.51,-106.44 2674.49,-159.35 2290.43,-132.05"/>
<polygon fill="midnightblue" stroke="midnightblue" points="2290.66,-128.56 2280.43,-131.33 2290.16,-135.54 2290.66,-128.56"/>
</g>
<!-- Node32 -->
<g id="node32" class="node">
<title>Node32</title>
<g id="a_node32"><a xlink:title=" ">
<polygon fill="white" stroke="#bfbfbf" points="2298.5,-112.5 2298.5,-131.5 2427.5,-131.5 2427.5,-112.5 2298.5,-112.5"/>
<text text-anchor="middle" x="2363" y="-119.5" font-family="Helvetica,sans-Serif" font-size="10.00">amxd/amxd_function.h</text>
</a>
</g>
</g>
<!-- Node13&#45;&gt;Node32 -->
<g id="edge33" class="edge">
<title>Node13&#45;&gt;Node32</title>
<path fill="none" stroke="midnightblue" d="M3163.47,-170.05C3160.32,-169.24 3157.1,-168.52 3154,-168 2842.13,-115.64 2756.08,-158.66 2437.82,-132.09"/>
<polygon fill="midnightblue" stroke="midnightblue" points="2438.11,-128.6 2427.85,-131.24 2437.52,-135.58 2438.11,-128.6"/>
</g>
<!-- Node33 -->
<g id="node33" class="node">
<title>Node33</title>
<g id="a_node33"><a xlink:title=" ">
<polygon fill="white" stroke="#bfbfbf" points="2445.5,-112.5 2445.5,-131.5 2614.5,-131.5 2614.5,-112.5 2445.5,-112.5"/>
<text text-anchor="middle" x="2530" y="-119.5" font-family="Helvetica,sans-Serif" font-size="10.00">amxd/amxd_object_hierarchy.h</text>
</a>
</g>
</g>
<!-- Node13&#45;&gt;Node33 -->
<g id="edge34" class="edge">
<title>Node13&#45;&gt;Node33</title>
<path fill="none" stroke="midnightblue" d="M3163.46,-170.1C3160.31,-169.29 3157.09,-168.55 3154,-168 2924.37,-127.37 2860.54,-150.71 2624.9,-132.12"/>
<polygon fill="midnightblue" stroke="midnightblue" points="2624.89,-128.61 2614.64,-131.3 2624.32,-135.59 2624.89,-128.61"/>
</g>
<!-- Node34 -->
<g id="node34" class="node">
<title>Node34</title>
<g id="a_node34"><a xlink:title=" ">
<polygon fill="white" stroke="#bfbfbf" points="2632.5,-112.5 2632.5,-131.5 2751.5,-131.5 2751.5,-112.5 2632.5,-112.5"/>
<text text-anchor="middle" x="2692" y="-119.5" font-family="Helvetica,sans-Serif" font-size="10.00">amxd/amxd_object.h</text>
</a>
</g>
</g>
<!-- Node13&#45;&gt;Node34 -->
<g id="edge35" class="edge">
<title>Node13&#45;&gt;Node34</title>
<path fill="none" stroke="midnightblue" d="M3163.45,-170.17C3160.3,-169.34 3157.08,-168.58 3154,-168 2984.43,-135.94 2936.52,-150.96 2761.74,-132.14"/>
<polygon fill="midnightblue" stroke="midnightblue" points="2762.01,-128.65 2751.69,-131.04 2761.25,-135.61 2762.01,-128.65"/>
</g>
<!-- Node35 -->
<g id="node35" class="node">
<title>Node35</title>
<g id="a_node35"><a xlink:title=" ">
<polygon fill="white" stroke="#bfbfbf" points="2769.5,-112.5 2769.5,-131.5 2874.5,-131.5 2874.5,-112.5 2769.5,-112.5"/>
<text text-anchor="middle" x="2822" y="-119.5" font-family="Helvetica,sans-Serif" font-size="10.00">amxd/amxd_dm.h</text>
</a>
</g>
</g>
<!-- Node13&#45;&gt;Node35 -->
<g id="edge36" class="edge">
<title>Node13&#45;&gt;Node35</title>
<path fill="none" stroke="midnightblue" d="M3163.42,-170.29C3160.28,-169.44 3157.07,-168.65 3154,-168 3038.66,-143.71 3005.63,-148.42 2884.77,-132.08"/>
<polygon fill="midnightblue" stroke="midnightblue" points="2885.14,-128.59 2874.76,-130.7 2884.19,-135.53 2885.14,-128.59"/>
</g>
<!-- Node36 -->
<g id="node36" class="node">
<title>Node36</title>
<g id="a_node36"><a xlink:title=" ">
<polygon fill="white" stroke="#bfbfbf" points="2893,-112.5 2893,-131.5 3037,-131.5 3037,-112.5 2893,-112.5"/>
<text text-anchor="middle" x="2965" y="-119.5" font-family="Helvetica,sans-Serif" font-size="10.00">amxd/amxd_transaction.h</text>
</a>
</g>
</g>
<!-- Node13&#45;&gt;Node36 -->
<g id="edge37" class="edge">
<title>Node13&#45;&gt;Node36</title>
<path fill="none" stroke="midnightblue" d="M3163.36,-170.57C3160.22,-169.68 3157.03,-168.8 3154,-168 3106.25,-155.39 3051.3,-142.49 3013,-133.75"/>
<polygon fill="midnightblue" stroke="midnightblue" points="3013.67,-130.31 3003.15,-131.51 3012.12,-137.14 3013.67,-130.31"/>
</g>
<!-- Node37 -->
<g id="node37" class="node">
<title>Node37</title>
<g id="a_node37"><a xlink:title=" ">
<polygon fill="white" stroke="#bfbfbf" points="3055,-112.5 3055,-131.5 3171,-131.5 3171,-112.5 3055,-112.5"/>
<text text-anchor="middle" x="3113" y="-119.5" font-family="Helvetica,sans-Serif" font-size="10.00">amxb/amxb_types.h</text>
</a>
</g>
</g>
<!-- Node13&#45;&gt;Node37 -->
<g id="edge38" class="edge">
<title>Node13&#45;&gt;Node37</title>
<path fill="none" stroke="midnightblue" d="M3173.43,-168.32C3162.58,-160.18 3146.12,-147.84 3133.12,-138.09"/>
<polygon fill="midnightblue" stroke="midnightblue" points="3134.88,-135.03 3124.78,-131.83 3130.68,-140.63 3134.88,-135.03"/>
</g>
<!-- Node38 -->
<g id="node38" class="node">
<title>Node38</title>
<g id="a_node38"><a xlink:title=" ">
<polygon fill="white" stroke="#bfbfbf" points="3189,-112.5 3189,-131.5 3325,-131.5 3325,-112.5 3189,-112.5"/>
<text text-anchor="middle" x="3257" y="-119.5" font-family="Helvetica,sans-Serif" font-size="10.00">amxb/amxb_operators.h</text>
</a>
</g>
</g>
<!-- Node13&#45;&gt;Node38 -->
<g id="edge39" class="edge">
<title>Node13&#45;&gt;Node38</title>
<path fill="none" stroke="midnightblue" d="M3196.57,-168.32C3207.42,-160.18 3223.88,-147.84 3236.88,-138.09"/>
<polygon fill="midnightblue" stroke="midnightblue" points="3239.32,-140.63 3245.22,-131.83 3235.12,-135.03 3239.32,-140.63"/>
</g>
<!-- Node39 -->
<g id="node39" class="node">
<title>Node39</title>
<g id="a_node39"><a xlink:title=" ">
<polygon fill="white" stroke="#bfbfbf" points="3343,-112.5 3343,-131.5 3455,-131.5 3455,-112.5 3343,-112.5"/>
<text text-anchor="middle" x="3399" y="-119.5" font-family="Helvetica,sans-Serif" font-size="10.00">amxb/amxb_error.h</text>
</a>
</g>
</g>
<!-- Node13&#45;&gt;Node39 -->
<g id="edge40" class="edge">
<title>Node13&#45;&gt;Node39</title>
<path fill="none" stroke="midnightblue" d="M3206.7,-171.53C3241.37,-162.78 3309.96,-145.47 3355.15,-134.06"/>
<polygon fill="midnightblue" stroke="midnightblue" points="3356.14,-137.43 3364.98,-131.59 3354.43,-130.64 3356.14,-137.43"/>
</g>
<!-- Node40 -->
<g id="node40" class="node">
<title>Node40</title>
<g id="a_node40"><a xlink:title=" ">
<polygon fill="white" stroke="#bfbfbf" points="3473.5,-112.5 3473.5,-131.5 3556.5,-131.5 3556.5,-112.5 3473.5,-112.5"/>
<text text-anchor="middle" x="3515" y="-119.5" font-family="Helvetica,sans-Serif" font-size="10.00">amxo/amxo.h</text>
</a>
</g>
</g>
<!-- Node13&#45;&gt;Node40 -->
<g id="edge41" class="edge">
<title>Node13&#45;&gt;Node40</title>
<path fill="none" stroke="midnightblue" d="M3206.72,-173.61C3252.23,-166.48 3361.12,-149.3 3463.39,-132.08"/>
<polygon fill="midnightblue" stroke="midnightblue" points="3463.98,-135.53 3473.26,-130.42 3462.82,-128.63 3463.98,-135.53"/>
</g>
<!-- Node41 -->
<g id="node41" class="node">
<title>Node41</title>
<g id="a_node41"><a xlink:title=" ">
<polygon fill="white" stroke="#bfbfbf" points="3574.5,-112.5 3574.5,-131.5 3689.5,-131.5 3689.5,-112.5 3574.5,-112.5"/>
<text text-anchor="middle" x="3632" y="-119.5" font-family="Helvetica,sans-Serif" font-size="10.00">amxo/amxo_types.h</text>
</a>
</g>
</g>
<!-- Node13&#45;&gt;Node41 -->
<g id="edge42" class="edge">
<title>Node13&#45;&gt;Node41</title>
<path fill="none" stroke="midnightblue" d="M3206.86,-174.53C3263.75,-168.09 3421.28,-150.07 3564.01,-132.11"/>
<polygon fill="midnightblue" stroke="midnightblue" points="3564.78,-135.54 3574.26,-130.81 3563.9,-128.59 3564.78,-135.54"/>
</g>
<!-- Node42 -->
<g id="node42" class="node">
<title>Node42</title>
<g id="a_node42"><a xlink:href="wld__types_8h.html" target="_top" xlink:title=" ">
<polygon fill="white" stroke="red" points="4240.5,-56.5 4240.5,-75.5 4315.5,-75.5 4315.5,-56.5 4240.5,-56.5"/>
<text text-anchor="middle" x="4278" y="-63.5" font-family="Helvetica,sans-Serif" font-size="10.00">wld_types.h</text>
</a>
</g>
</g>
<!-- Node13&#45;&gt;Node42 -->
<g id="edge43" class="edge">
<title>Node13&#45;&gt;Node42</title>
<path fill="none" stroke="midnightblue" d="M3206.55,-177.03C3329.69,-177.04 3945.26,-174.92 4129,-132 4153.3,-126.32 4215.15,-97.46 4251.06,-80.16"/>
<polygon fill="midnightblue" stroke="midnightblue" points="4252.97,-83.13 4260.45,-75.62 4249.92,-76.83 4252.97,-83.13"/>
</g>
<!-- Node45 -->
<g id="node43" class="node">
<title>Node45</title>
<g id="a_node43"><a xlink:href="wld__channel__types_8h.html" target="_top" xlink:title=" ">
<polygon fill="white" stroke="red" points="3982.5,-112.5 3982.5,-131.5 4101.5,-131.5 4101.5,-112.5 3982.5,-112.5"/>
<text text-anchor="middle" x="4042" y="-119.5" font-family="Helvetica,sans-Serif" font-size="10.00">wld_channel_types.h</text>
</a>
</g>
</g>
<!-- Node13&#45;&gt;Node45 -->
<g id="edge46" class="edge">
<title>Node13&#45;&gt;Node45</title>
<path fill="none" stroke="midnightblue" d="M3206.52,-176.27C3298.37,-173.03 3666.58,-158.96 3968,-132 3969.31,-131.88 3970.62,-131.76 3971.95,-131.64"/>
<polygon fill="midnightblue" stroke="midnightblue" points="3972.66,-135.08 3982.26,-130.6 3971.96,-128.12 3972.66,-135.08"/>
</g>
<!-- Node47 -->
<g id="node44" class="node">
<title>Node47</title>
<g id="a_node44"><a xlink:href="wld__bgdfs_8h.html" target="_top" xlink:title=" ">
<polygon fill="white" stroke="black" points="4196.5,-112.5 4196.5,-131.5 4271.5,-131.5 4271.5,-112.5 4196.5,-112.5"/>
<text text-anchor="middle" x="4234" y="-119.5" font-family="Helvetica,sans-Serif" font-size="10.00">wld_bgdfs.h</text>
</a>
</g>
</g>
<!-- Node13&#45;&gt;Node47 -->
<g id="edge49" class="edge">
<title>Node13&#45;&gt;Node47</title>
<path fill="none" stroke="midnightblue" d="M3206.83,-177.03C3313.74,-176.99 3792.71,-174.3 4182,-132 4183.31,-131.86 4184.63,-131.7 4185.96,-131.54"/>
<polygon fill="midnightblue" stroke="midnightblue" points="4186.88,-134.94 4196.31,-130.1 4185.92,-128.01 4186.88,-134.94"/>
</g>
<!-- Node48 -->
<g id="node45" class="node">
<title>Node48</title>
<g id="a_node45"><a xlink:href="wld__rad__delayMgr_8h.html" target="_top" xlink:title=" ">
<polygon fill="white" stroke="black" points="3708,-112.5 3708,-131.5 3822,-131.5 3822,-112.5 3708,-112.5"/>
<text text-anchor="middle" x="3765" y="-119.5" font-family="Helvetica,sans-Serif" font-size="10.00">wld_rad_delayMgr.h</text>
</a>
</g>
</g>
<!-- Node13&#45;&gt;Node48 -->
<g id="edge51" class="edge">
<title>Node13&#45;&gt;Node48</title>
<path fill="none" stroke="midnightblue" d="M3206.63,-175.17C3276.73,-169.72 3502.4,-152.71 3689,-132 3691.84,-131.68 3694.75,-131.35 3697.7,-131"/>
<polygon fill="midnightblue" stroke="midnightblue" points="3698.3,-134.45 3707.8,-129.75 3697.45,-127.5 3698.3,-134.45"/>
</g>
<!-- Node49 -->
<g id="node46" class="node">
<title>Node49</title>
<g id="a_node46"><a xlink:href="wld__fsm_8h.html" target="_top" xlink:title=" ">
<polygon fill="white" stroke="black" points="4289.5,-112.5 4289.5,-131.5 4356.5,-131.5 4356.5,-112.5 4289.5,-112.5"/>
<text text-anchor="middle" x="4323" y="-119.5" font-family="Helvetica,sans-Serif" font-size="10.00">wld_fsm.h</text>
</a>
</g>
</g>
<!-- Node13&#45;&gt;Node49 -->
<g id="edge53" class="edge">
<title>Node13&#45;&gt;Node49</title>
<path fill="none" stroke="midnightblue" d="M3206.73,-176.6C3339.27,-174.07 4040.94,-159.62 4279.31,-131.81"/>
<polygon fill="midnightblue" stroke="midnightblue" points="4279.78,-135.28 4289.29,-130.61 4278.94,-128.33 4279.78,-135.28"/>
</g>
<!-- Node50 -->
<g id="node47" class="node">
<title>Node50</title>
<g id="a_node47"><a xlink:href="wld__sensing_8h.html" target="_top" xlink:title=" ">
<polygon fill="white" stroke="black" points="3840,-112.5 3840,-131.5 3926,-131.5 3926,-112.5 3840,-112.5"/>
<text text-anchor="middle" x="3883" y="-119.5" font-family="Helvetica,sans-Serif" font-size="10.00">wld_sensing.h</text>
</a>
</g>
</g>
<!-- Node13&#45;&gt;Node50 -->
<g id="edge55" class="edge">
<title>Node13&#45;&gt;Node50</title>
<path fill="none" stroke="midnightblue" d="M3206.7,-176.16C3288.13,-173.1 3581.48,-161.11 3822,-132 3824.51,-131.7 3827.08,-131.35 3829.68,-130.98"/>
<polygon fill="midnightblue" stroke="midnightblue" points="3830.44,-134.41 3839.8,-129.45 3829.39,-127.49 3830.44,-134.41"/>
</g>
<!-- Node51 -->
<g id="node48" class="node">
<title>Node51</title>
<g id="a_node48"><a xlink:href="wld__mld_8h.html" target="_top" xlink:title=" ">
<polygon fill="white" stroke="black" points="4374.5,-112.5 4374.5,-131.5 4441.5,-131.5 4441.5,-112.5 4374.5,-112.5"/>
<text text-anchor="middle" x="4408" y="-119.5" font-family="Helvetica,sans-Serif" font-size="10.00">wld_mld.h</text>
</a>
</g>
</g>
<!-- Node13&#45;&gt;Node51 -->
<g id="edge57" class="edge">
<title>Node13&#45;&gt;Node51</title>
<path fill="none" stroke="midnightblue" d="M3206.59,-176.69C3344.89,-174.61 4108.55,-162.01 4364.19,-131.99"/>
<polygon fill="midnightblue" stroke="midnightblue" points="4364.66,-135.46 4374.16,-130.78 4363.81,-128.51 4364.66,-135.46"/>
</g>
<!-- Node42&#45;&gt;Node12 -->
<g id="edge44" class="edge">
<title>Node42&#45;&gt;Node12</title>
<path fill="none" stroke="midnightblue" d="M4308.42,-56.44C4342.44,-46.87 4397.51,-31.39 4433.74,-21.2"/>
<polygon fill="midnightblue" stroke="midnightblue" points="4434.75,-24.55 4443.43,-18.47 4432.86,-17.81 4434.75,-24.55"/>
</g>
<!-- Node42&#45;&gt;Node18 -->
<g id="edge45" class="edge">
<title>Node42&#45;&gt;Node18</title>
<path fill="none" stroke="midnightblue" d="M4240.61,-56.44C4199.61,-47.06 4133.75,-31.99 4089.22,-21.8"/>
<polygon fill="midnightblue" stroke="midnightblue" points="4089.75,-18.34 4079.22,-19.52 4088.19,-25.16 4089.75,-18.34"/>
</g>
<!-- Node45&#45;&gt;Node14 -->
<g id="edge47" class="edge">
<title>Node45&#45;&gt;Node14</title>
<path fill="none" stroke="midnightblue" d="M4053.89,-112.32C4065.15,-104.11 4082.29,-91.6 4095.71,-81.81"/>
<polygon fill="midnightblue" stroke="midnightblue" points="4097.88,-84.56 4103.89,-75.83 4093.75,-78.9 4097.88,-84.56"/>
</g>
<!-- Node45&#45;&gt;Node18 -->
<g id="edge48" class="edge">
<title>Node45&#45;&gt;Node18</title>
<path fill="none" stroke="midnightblue" d="M4042,-112.37C4042,-94.62 4042,-53.67 4042,-29.6"/>
<polygon fill="midnightblue" stroke="midnightblue" points="4045.5,-29.59 4042,-19.59 4038.5,-29.59 4045.5,-29.59"/>
</g>
<!-- Node47&#45;&gt;Node42 -->
<g id="edge50" class="edge">
<title>Node47&#45;&gt;Node42</title>
<path fill="none" stroke="midnightblue" d="M4241.27,-112.08C4247.54,-104.38 4256.79,-93.03 4264.43,-83.65"/>
<polygon fill="midnightblue" stroke="midnightblue" points="4267.27,-85.71 4270.87,-75.75 4261.84,-81.29 4267.27,-85.71"/>
</g>
<!-- Node48&#45;&gt;Node13 -->
<g id="edge52" class="edge">
<title>Node48&#45;&gt;Node13</title>
<path fill="none" stroke="midnightblue" d="M3711.24,-131.52C3709.82,-131.68 3708.4,-131.84 3707,-132 3522.04,-152.52 3298.7,-169.42 3216.84,-175.02"/>
<polygon fill="midnightblue" stroke="midnightblue" points="3216.43,-171.54 3206.69,-175.71 3216.9,-178.53 3216.43,-171.54"/>
</g>
<!-- Node49&#45;&gt;Node42 -->
<g id="edge54" class="edge">
<title>Node49&#45;&gt;Node42</title>
<path fill="none" stroke="midnightblue" d="M4315.57,-112.08C4309.15,-104.38 4299.69,-93.03 4291.88,-83.65"/>
<polygon fill="midnightblue" stroke="midnightblue" points="4294.38,-81.19 4285.29,-75.75 4289.01,-85.67 4294.38,-81.19"/>
</g>
<!-- Node50&#45;&gt;Node13 -->
<g id="edge56" class="edge">
<title>Node50&#45;&gt;Node13</title>
<path fill="none" stroke="midnightblue" d="M3843.86,-131.51C3842.56,-131.68 3841.27,-131.85 3840,-132 3601.96,-160.81 3312.17,-172.85 3216.87,-176.07"/>
<polygon fill="midnightblue" stroke="midnightblue" points="3216.62,-172.57 3206.74,-176.4 3216.85,-179.57 3216.62,-172.57"/>
</g>
<!-- Node51&#45;&gt;Node42 -->
<g id="edge58" class="edge">
<title>Node51&#45;&gt;Node42</title>
<path fill="none" stroke="midnightblue" d="M4387.4,-112.44C4366.01,-103.56 4332.32,-89.56 4307.98,-79.45"/>
<polygon fill="midnightblue" stroke="midnightblue" points="4309.08,-76.12 4298.5,-75.52 4306.39,-82.58 4309.08,-76.12"/>
</g>
</g>
</svg>
