<?xml version="1.0" encoding="UTF-8" standalone="no"?>
<!DOCTYPE svg PUBLIC "-//W3C//DTD SVG 1.1//EN"
 "http://www.w3.org/Graphics/SVG/1.1/DTD/svg11.dtd">
<!-- Generated by graphviz version 2.43.0 (0)
 -->
<!-- Title: _Sensing_csiStats Pages: 1 -->
<svg width="518pt" height="66pt"
 viewBox="0.00 0.00 518.00 66.00" xmlns="http://www.w3.org/2000/svg" xmlns:xlink="http://www.w3.org/1999/xlink">
<g id="graph0" class="graph" transform="scale(1 1) rotate(0) translate(4 62)">
<title>_Sensing_csiStats</title>
<polygon fill="white" stroke="transparent" points="-4,4 -4,-62 514,-62 514,4 -4,4"/>
<!-- Node1 -->
<g id="node1" class="node">
<title>Node1</title>
<g id="a_node1"><a xlink:title=" ">
<polygon fill="#bfbfbf" stroke="black" points="0,-19.5 0,-38.5 104,-38.5 104,-19.5 0,-19.5"/>
<text text-anchor="middle" x="52" y="-26.5" font-family="Helvetica,sans-Serif" font-size="10.00">_Sensing_csiStats</text>
</a>
</g>
</g>
<!-- Node2 -->
<g id="node2" class="node">
<title>Node2</title>
<g id="a_node2"><a xlink:href="wld__radio_8c.html#a5bc526661be71f2eb0810b099efe607d" target="_top" xlink:title=" ">
<polygon fill="white" stroke="black" points="140,-19.5 140,-38.5 240,-38.5 240,-19.5 140,-19.5"/>
<text text-anchor="middle" x="190" y="-26.5" font-family="Helvetica,sans-Serif" font-size="10.00">wld_rad_fromObj</text>
</a>
</g>
</g>
<!-- Node1&#45;&gt;Node2 -->
<g id="edge1" class="edge">
<title>Node1&#45;&gt;Node2</title>
<path fill="none" stroke="midnightblue" d="M104.03,-29C112.48,-29 121.3,-29 129.93,-29"/>
<polygon fill="midnightblue" stroke="midnightblue" points="129.94,-32.5 139.94,-29 129.94,-25.5 129.94,-32.5"/>
</g>
<!-- Node3 -->
<g id="node3" class="node">
<title>Node3</title>
<g id="a_node3"><a xlink:href="wld__util_8c.html#a18c61fa964e131e3008ec440b72b61c8" target="_top" xlink:title=" ">
<polygon fill="white" stroke="black" points="276,-38.5 276,-57.5 384,-57.5 384,-38.5 276,-38.5"/>
<text text-anchor="middle" x="330" y="-45.5" font-family="Helvetica,sans-Serif" font-size="10.00">debugIsRadPointer</text>
</a>
</g>
</g>
<!-- Node2&#45;&gt;Node3 -->
<g id="edge2" class="edge">
<title>Node2&#45;&gt;Node3</title>
<path fill="none" stroke="midnightblue" d="M240.04,-35.75C248.39,-36.9 257.17,-38.11 265.83,-39.3"/>
<polygon fill="midnightblue" stroke="midnightblue" points="265.52,-42.79 275.9,-40.69 266.47,-35.86 265.52,-42.79"/>
</g>
<!-- Node4 -->
<g id="node4" class="node">
<title>Node4</title>
<g id="a_node4"><a xlink:href="wld__radio_8c.html#a7cad1ba5d4b5338e778c1ae67b58874f" target="_top" xlink:title=" ">
<polygon fill="white" stroke="black" points="278,-0.5 278,-19.5 382,-19.5 382,-0.5 278,-0.5"/>
<text text-anchor="middle" x="330" y="-7.5" font-family="Helvetica,sans-Serif" font-size="10.00">wld_rad_isRadObj</text>
</a>
</g>
</g>
<!-- Node2&#45;&gt;Node4 -->
<g id="edge3" class="edge">
<title>Node2&#45;&gt;Node4</title>
<path fill="none" stroke="midnightblue" d="M240.04,-22.25C249.03,-21.01 258.51,-19.7 267.81,-18.43"/>
<polygon fill="midnightblue" stroke="midnightblue" points="268.35,-21.88 277.78,-17.05 267.4,-14.95 268.35,-21.88"/>
</g>
<!-- Node5 -->
<g id="node5" class="node">
<title>Node5</title>
<g id="a_node5"><a xlink:href="wld_8c.html#a86eb0dd5db7f6f4c724e09f6d1b831d8" target="_top" xlink:title=" ">
<polygon fill="white" stroke="black" points="420,-0.5 420,-19.5 510,-19.5 510,-0.5 420,-0.5"/>
<text text-anchor="middle" x="465" y="-7.5" font-family="Helvetica,sans-Serif" font-size="10.00">get_wld_object</text>
</a>
</g>
</g>
<!-- Node4&#45;&gt;Node5 -->
<g id="edge4" class="edge">
<title>Node4&#45;&gt;Node5</title>
<path fill="none" stroke="midnightblue" d="M382.04,-10C391.09,-10 400.54,-10 409.68,-10"/>
<polygon fill="midnightblue" stroke="midnightblue" points="409.82,-13.5 419.82,-10 409.82,-6.5 409.82,-13.5"/>
</g>
</g>
</svg>
