<?xml version="1.0" encoding="UTF-8" standalone="no"?>
<!DOCTYPE svg PUBLIC "-//W3C//DTD SVG 1.1//EN"
 "http://www.w3.org/Graphics/SVG/1.1/DTD/svg11.dtd">
<!-- Generated by graphviz version 2.43.0 (0)
 -->
<!-- Title: wld_channel_getExtensionChannel Pages: 1 -->
<svg width="568pt" height="91pt"
 viewBox="0.00 0.00 568.00 91.00" xmlns="http://www.w3.org/2000/svg" xmlns:xlink="http://www.w3.org/1999/xlink">
<g id="graph0" class="graph" transform="scale(1 1) rotate(0) translate(4 87)">
<title>wld_channel_getExtensionChannel</title>
<polygon fill="white" stroke="transparent" points="-4,4 -4,-87 564,-87 564,4 -4,4"/>
<!-- Node1 -->
<g id="node1" class="node">
<title>Node1</title>
<g id="a_node1"><a xlink:title=" ">
<polygon fill="#bfbfbf" stroke="black" points="414,-17 414,-47 560,-47 560,-17 414,-17"/>
<text text-anchor="start" x="422" y="-35" font-family="Helvetica,sans-Serif" font-size="10.00">wld_channel_getExtension</text>
<text text-anchor="middle" x="487" y="-24" font-family="Helvetica,sans-Serif" font-size="10.00">Channel</text>
</a>
</g>
</g>
<!-- Node2 -->
<g id="node2" class="node">
<title>Node2</title>
<g id="a_node2"><a xlink:href="wld__hostapd__cfgFile_8c.html#aa4ef0964a05f5b4f72d9c4b2f9046aa4" target="_top" xlink:title="set the radio parameters">
<polygon fill="white" stroke="black" points="238,-39 238,-69 354,-69 354,-39 238,-39"/>
<text text-anchor="start" x="246" y="-57" font-family="Helvetica,sans-Serif" font-size="10.00">wld_hostapd_cfgFile</text>
<text text-anchor="middle" x="296" y="-46" font-family="Helvetica,sans-Serif" font-size="10.00">_setRadioConfig</text>
</a>
</g>
</g>
<!-- Node1&#45;&gt;Node2 -->
<g id="edge1" class="edge">
<title>Node1&#45;&gt;Node2</title>
<path fill="none" stroke="midnightblue" d="M403.48,-41.61C386.87,-43.54 369.76,-45.53 354.24,-47.34"/>
<polygon fill="midnightblue" stroke="midnightblue" points="404.21,-45.04 413.74,-40.41 403.4,-38.09 404.21,-45.04"/>
</g>
<!-- Node5 -->
<g id="node5" class="node">
<title>Node5</title>
<g id="a_node5"><a xlink:href="wld__radio_8c.html#a6fa49867bafd918952a9143ac258dd3b" target="_top" xlink:title=" ">
<polygon fill="white" stroke="black" points="214,-0.5 214,-19.5 378,-19.5 378,-0.5 214,-0.5"/>
<text text-anchor="middle" x="296" y="-7.5" font-family="Helvetica,sans-Serif" font-size="10.00">wld_rad_getExtensionChannel</text>
</a>
</g>
</g>
<!-- Node1&#45;&gt;Node5 -->
<g id="edge4" class="edge">
<title>Node1&#45;&gt;Node5</title>
<path fill="none" stroke="midnightblue" d="M403.79,-22.43C395.25,-21.44 386.58,-20.43 378.05,-19.43"/>
<polygon fill="midnightblue" stroke="midnightblue" points="403.4,-25.91 413.74,-23.59 404.21,-18.96 403.4,-25.91"/>
</g>
<!-- Node3 -->
<g id="node3" class="node">
<title>Node3</title>
<g id="a_node3"><a xlink:href="wld__rad__hostapd__api_8c.html#aea42b1d7acee5d51484de01cac65c983" target="_top" xlink:title="set main interface channel parameters">
<polygon fill="white" stroke="black" points="9.5,-63.5 9.5,-82.5 168.5,-82.5 168.5,-63.5 9.5,-63.5"/>
<text text-anchor="middle" x="89" y="-70.5" font-family="Helvetica,sans-Serif" font-size="10.00">wld_rad_hostapd_setChannel</text>
</a>
</g>
</g>
<!-- Node2&#45;&gt;Node3 -->
<g id="edge2" class="edge">
<title>Node2&#45;&gt;Node3</title>
<path fill="none" stroke="midnightblue" d="M227.88,-60.22C208.95,-61.98 188.17,-63.9 168.63,-65.71"/>
<polygon fill="midnightblue" stroke="midnightblue" points="228.26,-63.7 237.9,-59.29 227.62,-56.73 228.26,-63.7"/>
</g>
<!-- Node4 -->
<g id="node4" class="node">
<title>Node4</title>
<g id="a_node4"><a xlink:href="wld__rad__hostapd__api_8c.html#a5411827e8b4ab433c4f62efe4dee6b5e" target="_top" xlink:title=" ">
<polygon fill="white" stroke="black" points="0,-25.5 0,-44.5 178,-44.5 178,-25.5 0,-25.5"/>
<text text-anchor="middle" x="89" y="-32.5" font-family="Helvetica,sans-Serif" font-size="10.00">wld_rad_hostapd_setMiscParams</text>
</a>
</g>
</g>
<!-- Node2&#45;&gt;Node4 -->
<g id="edge3" class="edge">
<title>Node2&#45;&gt;Node4</title>
<path fill="none" stroke="midnightblue" d="M227.71,-47.76C211.91,-46.3 194.84,-44.72 178.27,-43.18"/>
<polygon fill="midnightblue" stroke="midnightblue" points="227.62,-51.27 237.9,-48.71 228.26,-44.3 227.62,-51.27"/>
</g>
</g>
</svg>
