<?xml version="1.0" encoding="UTF-8" standalone="no"?>
<!DOCTYPE svg PUBLIC "-//W3C//DTD SVG 1.1//EN"
 "http://www.w3.org/Graphics/SVG/1.1/DTD/svg11.dtd">
<!-- Generated by graphviz version 2.43.0 (0)
 -->
<!-- Title: wld_dmn_destroyDeamon Pages: 1 -->
<svg width="498pt" height="66pt"
 viewBox="0.00 0.00 498.00 66.00" xmlns="http://www.w3.org/2000/svg" xmlns:xlink="http://www.w3.org/1999/xlink">
<g id="graph0" class="graph" transform="scale(1 1) rotate(0) translate(4 62)">
<title>wld_dmn_destroyDeamon</title>
<polygon fill="white" stroke="transparent" points="-4,4 -4,-62 494,-62 494,4 -4,4"/>
<!-- Node1 -->
<g id="node1" class="node">
<title>Node1</title>
<g id="a_node1"><a xlink:title=" ">
<polygon fill="#bfbfbf" stroke="black" points="0,-19.5 0,-38.5 144,-38.5 144,-19.5 0,-19.5"/>
<text text-anchor="middle" x="72" y="-26.5" font-family="Helvetica,sans-Serif" font-size="10.00">wld_dmn_destroyDeamon</text>
</a>
</g>
</g>
<!-- Node2 -->
<g id="node2" class="node">
<title>Node2</title>
<g id="a_node2"><a xlink:href="wld__daemon_8c.html#a4075ee8de9e9daa8039d0f758d20d655" target="_top" xlink:title=" ">
<polygon fill="white" stroke="black" points="180,-19.5 180,-38.5 326,-38.5 326,-19.5 180,-19.5"/>
<text text-anchor="middle" x="253" y="-26.5" font-family="Helvetica,sans-Serif" font-size="10.00">wld_dmn_cleanupDaemon</text>
</a>
</g>
</g>
<!-- Node1&#45;&gt;Node2 -->
<g id="edge1" class="edge">
<title>Node1&#45;&gt;Node2</title>
<path fill="none" stroke="midnightblue" d="M144,-29C152.49,-29 161.21,-29 169.84,-29"/>
<polygon fill="midnightblue" stroke="midnightblue" points="169.91,-32.5 179.91,-29 169.91,-25.5 169.91,-32.5"/>
</g>
<!-- Node3 -->
<g id="node3" class="node">
<title>Node3</title>
<g id="a_node3"><a xlink:href="wld_8c.html#a41e1e95e9813260c184aad989f33bb05" target="_top" xlink:title=" ">
<polygon fill="white" stroke="black" points="363,-38.5 363,-57.5 489,-57.5 489,-38.5 363,-38.5"/>
<text text-anchor="middle" x="426" y="-45.5" font-family="Helvetica,sans-Serif" font-size="10.00">get_wld_plugin_parser</text>
</a>
</g>
</g>
<!-- Node2&#45;&gt;Node3 -->
<g id="edge2" class="edge">
<title>Node2&#45;&gt;Node3</title>
<path fill="none" stroke="midnightblue" d="M326.02,-37C334.81,-37.98 343.8,-38.98 352.6,-39.96"/>
<polygon fill="midnightblue" stroke="midnightblue" points="352.49,-43.46 362.81,-41.09 353.26,-36.51 352.49,-43.46"/>
</g>
<!-- Node4 -->
<g id="node4" class="node">
<title>Node4</title>
<g id="a_node4"><a xlink:href="wld__daemon_8c.html#adc439fdc85e1c992a5ba6e79b4ebd3a3" target="_top" xlink:title=" ">
<polygon fill="white" stroke="black" points="362,-0.5 362,-19.5 490,-19.5 490,-0.5 362,-0.5"/>
<text text-anchor="middle" x="426" y="-7.5" font-family="Helvetica,sans-Serif" font-size="10.00">wld_dmn_stopDeamon</text>
</a>
</g>
</g>
<!-- Node2&#45;&gt;Node4 -->
<g id="edge3" class="edge">
<title>Node2&#45;&gt;Node4</title>
<path fill="none" stroke="midnightblue" d="M326.02,-21C334.46,-20.06 343.08,-19.1 351.53,-18.16"/>
<polygon fill="midnightblue" stroke="midnightblue" points="352.19,-21.61 361.74,-17.03 351.42,-14.65 352.19,-21.61"/>
</g>
</g>
</svg>
