<?xml version="1.0" encoding="UTF-8" standalone="no"?>
<!DOCTYPE svg PUBLIC "-//W3C//DTD SVG 1.1//EN"
 "http://www.w3.org/Graphics/SVG/1.1/DTD/svg11.dtd">
<!-- Generated by graphviz version 2.43.0 (0)
 -->
<!-- Title: wld_extMod_isValidId Pages: 1 -->
<svg width="502pt" height="66pt"
 viewBox="0.00 0.00 502.00 66.00" xmlns="http://www.w3.org/2000/svg" xmlns:xlink="http://www.w3.org/1999/xlink">
<g id="graph0" class="graph" transform="scale(1 1) rotate(0) translate(4 62)">
<title>wld_extMod_isValidId</title>
<polygon fill="white" stroke="transparent" points="-4,4 -4,-62 498,-62 498,4 -4,4"/>
<!-- Node1 -->
<g id="node1" class="node">
<title>Node1</title>
<g id="a_node1"><a xlink:title=" ">
<polygon fill="#bfbfbf" stroke="black" points="372,-19.5 372,-38.5 494,-38.5 494,-19.5 372,-19.5"/>
<text text-anchor="middle" x="433" y="-26.5" font-family="Helvetica,sans-Serif" font-size="10.00">wld_extMod_isValidId</text>
</a>
</g>
</g>
<!-- Node2 -->
<g id="node2" class="node">
<title>Node2</title>
<g id="a_node2"><a xlink:href="wld__extMod_8c.html#a9d0c44c8f7cdda03ca7417eda68925ea" target="_top" xlink:title="register extModData for a given extenion module">
<polygon fill="white" stroke="black" points="194,-19.5 194,-38.5 336,-38.5 336,-19.5 194,-19.5"/>
<text text-anchor="middle" x="265" y="-26.5" font-family="Helvetica,sans-Serif" font-size="10.00">wld_extMod_registerData</text>
</a>
</g>
</g>
<!-- Node1&#45;&gt;Node2 -->
<g id="edge1" class="edge">
<title>Node1&#45;&gt;Node2</title>
<path fill="none" stroke="midnightblue" d="M361.5,-29C353.13,-29 344.58,-29 336.21,-29"/>
<polygon fill="midnightblue" stroke="midnightblue" points="361.6,-32.5 371.6,-29 361.6,-25.5 361.6,-32.5"/>
</g>
<!-- Node3 -->
<g id="node3" class="node">
<title>Node3</title>
<g id="a_node3"><a xlink:href="wld__assocdev_8c.html#a5b2aa91e618fed058812b319ef79df42" target="_top" xlink:title=" ">
<polygon fill="white" stroke="black" points="2,-38.5 2,-57.5 156,-57.5 156,-38.5 2,-38.5"/>
<text text-anchor="middle" x="79" y="-45.5" font-family="Helvetica,sans-Serif" font-size="10.00">wld_ad_registerExtModData</text>
</a>
</g>
</g>
<!-- Node2&#45;&gt;Node3 -->
<g id="edge2" class="edge">
<title>Node2&#45;&gt;Node3</title>
<path fill="none" stroke="midnightblue" d="M183.94,-37.27C174.67,-38.22 165.24,-39.2 156.02,-40.15"/>
<polygon fill="midnightblue" stroke="midnightblue" points="184.33,-40.75 193.91,-36.24 183.61,-33.78 184.33,-40.75"/>
</g>
<!-- Node4 -->
<g id="node4" class="node">
<title>Node4</title>
<g id="a_node4"><a xlink:href="wld__radio_8c.html#a161ac2883897bd3d4f19364e1e07327f" target="_top" xlink:title=" ">
<polygon fill="white" stroke="black" points="0,-0.5 0,-19.5 158,-19.5 158,-0.5 0,-0.5"/>
<text text-anchor="middle" x="79" y="-7.5" font-family="Helvetica,sans-Serif" font-size="10.00">wld_rad_registerExtModData</text>
</a>
</g>
</g>
<!-- Node2&#45;&gt;Node4 -->
<g id="edge3" class="edge">
<title>Node2&#45;&gt;Node4</title>
<path fill="none" stroke="midnightblue" d="M183.96,-20.73C175.41,-19.85 166.72,-18.95 158.19,-18.07"/>
<polygon fill="midnightblue" stroke="midnightblue" points="183.61,-24.22 193.91,-21.76 184.33,-17.25 183.61,-24.22"/>
</g>
</g>
</svg>
