<?xml version="1.0" encoding="UTF-8" standalone="no"?>
<!DOCTYPE svg PUBLIC "-//W3C//DTD SVG 1.1//EN"
 "http://www.w3.org/Graphics/SVG/1.1/DTD/svg11.dtd">
<!-- Generated by graphviz version 2.43.0 (0)
 -->
<!-- Title: wld_wpaCtrlConnection_sendCmdCheckResponseExt Pages: 1 -->
<svg width="1153pt" height="318pt"
 viewBox="0.00 0.00 1153.00 318.00" xmlns="http://www.w3.org/2000/svg" xmlns:xlink="http://www.w3.org/1999/xlink">
<g id="graph0" class="graph" transform="scale(1 1) rotate(0) translate(4 314)">
<title>wld_wpaCtrlConnection_sendCmdCheckResponseExt</title>
<polygon fill="white" stroke="transparent" points="-4,4 -4,-314 1149,-314 1149,4 -4,4"/>
<!-- Node1 -->
<g id="node1" class="node">
<title>Node1</title>
<g id="a_node1"><a xlink:title=" ">
<polygon fill="#bfbfbf" stroke="black" points="984,-176 984,-206 1145,-206 1145,-176 984,-176"/>
<text text-anchor="start" x="992" y="-194" font-family="Helvetica,sans-Serif" font-size="10.00">wld_wpaCtrlConnection</text>
<text text-anchor="middle" x="1064.5" y="-183" font-family="Helvetica,sans-Serif" font-size="10.00">_sendCmdCheckResponseExt</text>
</a>
</g>
</g>
<!-- Node2 -->
<g id="node2" class="node">
<title>Node2</title>
<g id="a_node2"><a xlink:href="wld__wpaCtrlInterface_8c.html#a49de62b20f7f9804ee70a5fc50f6724d" target="_top" xlink:title="send synchronous command to wpa_ctrl server and check the received reply within a defined delay">
<polygon fill="white" stroke="black" points="790,-247 790,-277 948,-277 948,-247 790,-247"/>
<text text-anchor="start" x="798" y="-265" font-family="Helvetica,sans-Serif" font-size="10.00">wld_wpaCtrl_sendCmdCheck</text>
<text text-anchor="middle" x="869" y="-254" font-family="Helvetica,sans-Serif" font-size="10.00">ResponseExt</text>
</a>
</g>
</g>
<!-- Node1&#45;&gt;Node2 -->
<g id="edge1" class="edge">
<title>Node1&#45;&gt;Node2</title>
<path fill="none" stroke="midnightblue" d="M1012.91,-209.56C981.15,-221.22 940.72,-236.05 910.98,-246.96"/>
<polygon fill="midnightblue" stroke="midnightblue" points="1014.28,-212.79 1022.46,-206.06 1011.87,-206.22 1014.28,-212.79"/>
</g>
<!-- Node5 -->
<g id="node5" class="node">
<title>Node5</title>
<g id="a_node5"><a xlink:href="wld__wpaCtrlConnection_8c.html#af7414d719a14459bfbf836e77f643aff" target="_top" xlink:title=" ">
<polygon fill="white" stroke="black" points="796.5,-130 796.5,-160 941.5,-160 941.5,-130 796.5,-130"/>
<text text-anchor="start" x="804.5" y="-148" font-family="Helvetica,sans-Serif" font-size="10.00">wld_wpaCtrlConnection</text>
<text text-anchor="middle" x="869" y="-137" font-family="Helvetica,sans-Serif" font-size="10.00">_sendCmdCheckResponse</text>
</a>
</g>
</g>
<!-- Node1&#45;&gt;Node5 -->
<g id="edge4" class="edge">
<title>Node1&#45;&gt;Node5</title>
<path fill="none" stroke="midnightblue" d="M990.16,-173.57C971.39,-169.1 951.38,-164.35 933.17,-160.02"/>
<polygon fill="midnightblue" stroke="midnightblue" points="989.6,-177.03 1000.14,-175.94 991.22,-170.22 989.6,-177.03"/>
</g>
<!-- Node3 -->
<g id="node3" class="node">
<title>Node3</title>
<g id="a_node3"><a xlink:href="wld__rad__hostapd__api_8c.html#abe6c566b0fbeb786e5862f4496c7a2a1" target="_top" xlink:title="disable main hostapd interface">
<polygon fill="white" stroke="black" points="595.5,-290.5 595.5,-309.5 735.5,-309.5 735.5,-290.5 595.5,-290.5"/>
<text text-anchor="middle" x="665.5" y="-297.5" font-family="Helvetica,sans-Serif" font-size="10.00">wld_rad_hostapd_disable</text>
</a>
</g>
</g>
<!-- Node2&#45;&gt;Node3 -->
<g id="edge2" class="edge">
<title>Node2&#45;&gt;Node3</title>
<path fill="none" stroke="midnightblue" d="M779.69,-278.65C758.24,-282.7 736.03,-286.89 717.03,-290.47"/>
<polygon fill="midnightblue" stroke="midnightblue" points="780.63,-282.04 789.81,-276.75 779.33,-275.16 780.63,-282.04"/>
</g>
<!-- Node4 -->
<g id="node4" class="node">
<title>Node4</title>
<g id="a_node4"><a xlink:href="wld__rad__hostapd__api_8c.html#afb2b0bb8a38b6030246e283bfddd6811" target="_top" xlink:title="enable main hostapd interface">
<polygon fill="white" stroke="black" points="597,-252.5 597,-271.5 734,-271.5 734,-252.5 597,-252.5"/>
<text text-anchor="middle" x="665.5" y="-259.5" font-family="Helvetica,sans-Serif" font-size="10.00">wld_rad_hostapd_enable</text>
</a>
</g>
</g>
<!-- Node2&#45;&gt;Node4 -->
<g id="edge3" class="edge">
<title>Node2&#45;&gt;Node4</title>
<path fill="none" stroke="midnightblue" d="M779.38,-262C764.22,-262 748.68,-262 734.17,-262"/>
<polygon fill="midnightblue" stroke="midnightblue" points="779.81,-265.5 789.81,-262 779.81,-258.5 779.81,-265.5"/>
</g>
<!-- Node6 -->
<g id="node6" class="node">
<title>Node6</title>
<g id="a_node6"><a xlink:href="wld__wpaCtrlInterface_8c.html#a8ea828db9ee5b8b2b53edad1f332c249" target="_top" xlink:title="send synchronous command to wpa_ctrl server and check the received reply within default delay (1s)">
<polygon fill="white" stroke="black" points="586.5,-203 586.5,-233 744.5,-233 744.5,-203 586.5,-203"/>
<text text-anchor="start" x="594.5" y="-221" font-family="Helvetica,sans-Serif" font-size="10.00">wld_wpaCtrl_sendCmdCheck</text>
<text text-anchor="middle" x="665.5" y="-210" font-family="Helvetica,sans-Serif" font-size="10.00">Response</text>
</a>
</g>
</g>
<!-- Node5&#45;&gt;Node6 -->
<g id="edge5" class="edge">
<title>Node5&#45;&gt;Node6</title>
<path fill="none" stroke="midnightblue" d="M826.9,-164.3C805.45,-173.95 778.62,-185.38 754,-194 744.93,-197.18 735.22,-200.2 725.68,-202.97"/>
<polygon fill="midnightblue" stroke="midnightblue" points="828.38,-167.47 836.04,-160.15 825.49,-161.1 828.38,-167.47"/>
</g>
<!-- Node7 -->
<g id="node7" class="node">
<title>Node7</title>
<g id="a_node7"><a xlink:href="wld__wpaCtrlInterface_8c.html#ae0a540ffcdf6308c6a9d4b25218f1129" target="_top" xlink:title="send formatted command to wpa_ctrl server over established or temporary connection and check the rece...">
<polygon fill="white" stroke="black" points="577,-154 577,-184 754,-184 754,-154 577,-154"/>
<text text-anchor="start" x="585" y="-172" font-family="Helvetica,sans-Serif" font-size="10.00">wld_wpaCtrl_sendCmdFmtCheck</text>
<text text-anchor="middle" x="665.5" y="-161" font-family="Helvetica,sans-Serif" font-size="10.00">Response</text>
</a>
</g>
</g>
<!-- Node5&#45;&gt;Node7 -->
<g id="edge6" class="edge">
<title>Node5&#45;&gt;Node7</title>
<path fill="none" stroke="midnightblue" d="M786.32,-154.73C775.71,-155.99 764.81,-157.29 754.11,-158.57"/>
<polygon fill="midnightblue" stroke="midnightblue" points="786.88,-158.19 796.39,-153.53 786.05,-151.24 786.88,-158.19"/>
</g>
<!-- Node10 -->
<g id="node10" class="node">
<title>Node10</title>
<g id="a_node10"><a xlink:href="wld__wpaCtrlInterface_8c.html#a303019c3b064bd2babeb3582ecd91d7f" target="_top" xlink:title="close the wpaCtrl interface to wpa_ctrl server This function closes all relative connections (cmd and...">
<polygon fill="white" stroke="black" points="605.5,-105 605.5,-135 725.5,-135 725.5,-105 605.5,-105"/>
<text text-anchor="start" x="613.5" y="-123" font-family="Helvetica,sans-Serif" font-size="10.00">wld_wpaCtrlInterface</text>
<text text-anchor="middle" x="665.5" y="-112" font-family="Helvetica,sans-Serif" font-size="10.00">_close</text>
</a>
</g>
</g>
<!-- Node5&#45;&gt;Node10 -->
<g id="edge9" class="edge">
<title>Node5&#45;&gt;Node10</title>
<path fill="none" stroke="midnightblue" d="M786.21,-134.85C765.92,-132.33 744.55,-129.68 725.58,-127.33"/>
<polygon fill="midnightblue" stroke="midnightblue" points="786.04,-138.36 796.39,-136.12 786.9,-131.41 786.04,-138.36"/>
</g>
<!-- Node22 -->
<g id="node22" class="node">
<title>Node22</title>
<g id="a_node22"><a xlink:href="wld__wpaCtrlInterface_8c.html#a939382f275a0f5719a0ad4c534cae04e" target="_top" xlink:title="open the wpaCtrl interface of wpa_ctrl server The first connection is for sending commands and the se...">
<polygon fill="white" stroke="black" points="591,-66.5 591,-85.5 740,-85.5 740,-66.5 591,-66.5"/>
<text text-anchor="middle" x="665.5" y="-73.5" font-family="Helvetica,sans-Serif" font-size="10.00">wld_wpaCtrlInterface_open</text>
</a>
</g>
</g>
<!-- Node5&#45;&gt;Node22 -->
<g id="edge21" class="edge">
<title>Node5&#45;&gt;Node22</title>
<path fill="none" stroke="midnightblue" d="M827.97,-125.68C806.41,-115.82 779.15,-104.21 754,-96 741.7,-91.99 728.18,-88.48 715.52,-85.56"/>
<polygon fill="midnightblue" stroke="midnightblue" points="826.59,-128.9 837.14,-129.92 829.53,-122.54 826.59,-128.9"/>
</g>
<!-- Node23 -->
<g id="node23" class="node">
<title>Node23</title>
<g id="a_node23"><a xlink:href="wld__wpaCtrlInterface_8c.html#a9d8d8309e489cea3a3e5566dba74bafb" target="_top" xlink:title=" ">
<polygon fill="white" stroke="black" points="592.5,-19.5 592.5,-38.5 738.5,-38.5 738.5,-19.5 592.5,-19.5"/>
<text text-anchor="middle" x="665.5" y="-26.5" font-family="Helvetica,sans-Serif" font-size="10.00">wld_wpaCtrlInterface_ping</text>
</a>
</g>
</g>
<!-- Node5&#45;&gt;Node23 -->
<g id="edge22" class="edge">
<title>Node5&#45;&gt;Node23</title>
<path fill="none" stroke="midnightblue" d="M844.78,-123.12C822.85,-103.47 788.3,-75.01 754,-57 739.17,-49.21 721.79,-43.1 706.44,-38.61"/>
<polygon fill="midnightblue" stroke="midnightblue" points="842.51,-125.78 852.26,-129.92 847.22,-120.61 842.51,-125.78"/>
</g>
<!-- Node8 -->
<g id="node8" class="node">
<title>Node8</title>
<g id="a_node8"><a xlink:href="wld__rad__hostapd__api_8c.html#a848163f8651e518db2503acba24262c2" target="_top" xlink:title="reconfigure hostapd from file">
<polygon fill="white" stroke="black" points="382,-213.5 382,-232.5 541,-232.5 541,-213.5 382,-213.5"/>
<text text-anchor="middle" x="461.5" y="-220.5" font-family="Helvetica,sans-Serif" font-size="10.00">wld_rad_hostapd_reconfigure</text>
</a>
</g>
</g>
<!-- Node7&#45;&gt;Node8 -->
<g id="edge7" class="edge">
<title>Node7&#45;&gt;Node8</title>
<path fill="none" stroke="midnightblue" d="M602.05,-186.81C574.74,-194.58 547.44,-202.31 541,-204 528.79,-207.21 515.47,-210.51 503.32,-213.44"/>
<polygon fill="midnightblue" stroke="midnightblue" points="603.01,-190.18 611.67,-184.08 601.09,-183.45 603.01,-190.18"/>
</g>
<!-- Node9 -->
<g id="node9" class="node">
<title>Node9</title>
<g id="a_node9"><a xlink:href="wifiGen__hapd_8c.html#a3316988b243476f9ae97626a068d4d04" target="_top" xlink:title=" ">
<polygon fill="white" stroke="black" points="186,-213.5 186,-232.5 346,-232.5 346,-213.5 186,-213.5"/>
<text text-anchor="middle" x="266" y="-220.5" font-family="Helvetica,sans-Serif" font-size="10.00">wifiGen_hapd_reloadDaemon</text>
</a>
</g>
</g>
<!-- Node8&#45;&gt;Node9 -->
<g id="edge8" class="edge">
<title>Node8&#45;&gt;Node9</title>
<path fill="none" stroke="midnightblue" d="M371.56,-223C363.12,-223 354.6,-223 346.26,-223"/>
<polygon fill="midnightblue" stroke="midnightblue" points="371.8,-226.5 381.8,-223 371.8,-219.5 371.8,-226.5"/>
</g>
<!-- Node11 -->
<g id="node11" class="node">
<title>Node11</title>
<g id="a_node11"><a xlink:href="wld__wpaCtrlInterface_8c.html#a78b74c321f958dec1e833a1c6b275eae" target="_top" xlink:title=" ">
<polygon fill="white" stroke="black" points="401.5,-164 401.5,-194 521.5,-194 521.5,-164 401.5,-164"/>
<text text-anchor="start" x="409.5" y="-182" font-family="Helvetica,sans-Serif" font-size="10.00">wld_wpaCtrlInterface</text>
<text text-anchor="middle" x="461.5" y="-171" font-family="Helvetica,sans-Serif" font-size="10.00">_cleanup</text>
</a>
</g>
</g>
<!-- Node10&#45;&gt;Node11 -->
<g id="edge10" class="edge">
<title>Node10&#45;&gt;Node11</title>
<path fill="none" stroke="midnightblue" d="M601.61,-137.88C593.33,-140.26 584.96,-142.68 577,-145 555.9,-151.15 532.64,-158.03 512.63,-163.99"/>
<polygon fill="midnightblue" stroke="midnightblue" points="602.61,-141.24 611.26,-135.12 600.68,-134.51 602.61,-141.24"/>
</g>
<!-- Node12 -->
<g id="node12" class="node">
<title>Node12</title>
<g id="a_node12"><a xlink:href="wld__wpaCtrlInterface_8c.html#a459412143928ed22bca8796394d85ada" target="_top" xlink:title=" ">
<polygon fill="white" stroke="black" points="401.5,-115 401.5,-145 521.5,-145 521.5,-115 401.5,-115"/>
<text text-anchor="start" x="409.5" y="-133" font-family="Helvetica,sans-Serif" font-size="10.00">wld_wpaCtrlInterface</text>
<text text-anchor="middle" x="461.5" y="-122" font-family="Helvetica,sans-Serif" font-size="10.00">_setConnectionInfo</text>
</a>
</g>
</g>
<!-- Node10&#45;&gt;Node12 -->
<g id="edge11" class="edge">
<title>Node10&#45;&gt;Node12</title>
<path fill="none" stroke="midnightblue" d="M595.19,-123.43C571.3,-124.61 544.76,-125.93 521.74,-127.07"/>
<polygon fill="midnightblue" stroke="midnightblue" points="595.44,-126.92 605.26,-122.93 595.1,-119.93 595.44,-126.92"/>
</g>
<!-- Node15 -->
<g id="node15" class="node">
<title>Node15</title>
<g id="a_node15"><a xlink:href="wld__wpaCtrlMngr_8c.html#a703dcb69cf5fbbf2473edf3505b12ca1" target="_top" xlink:title=" ">
<polygon fill="white" stroke="black" points="389,-76.5 389,-95.5 534,-95.5 534,-76.5 389,-76.5"/>
<text text-anchor="middle" x="461.5" y="-83.5" font-family="Helvetica,sans-Serif" font-size="10.00">wld_wpaCtrlMngr_cleanup</text>
</a>
</g>
</g>
<!-- Node10&#45;&gt;Node15 -->
<g id="edge14" class="edge">
<title>Node10&#45;&gt;Node15</title>
<path fill="none" stroke="midnightblue" d="M595.16,-108.33C570.31,-104.15 542.6,-99.48 518.96,-95.5"/>
<polygon fill="midnightblue" stroke="midnightblue" points="594.82,-111.82 605.26,-110.03 595.98,-104.92 594.82,-111.82"/>
</g>
<!-- Node18 -->
<g id="node18" class="node">
<title>Node18</title>
<g id="a_node18"><a xlink:href="wld__wpaCtrlMngr_8c.html#a65f1d3c48476ca6584852b18fc80b2d9" target="_top" xlink:title="disconnect from wpa_ctrl server">
<polygon fill="white" stroke="black" points="382,-38.5 382,-57.5 541,-57.5 541,-38.5 382,-38.5"/>
<text text-anchor="middle" x="461.5" y="-45.5" font-family="Helvetica,sans-Serif" font-size="10.00">wld_wpaCtrlMngr_disconnect</text>
</a>
</g>
</g>
<!-- Node10&#45;&gt;Node18 -->
<g id="edge17" class="edge">
<title>Node10&#45;&gt;Node18</title>
<path fill="none" stroke="midnightblue" d="M595.85,-103.15C589.35,-100.74 582.96,-98.03 577,-95 558.93,-85.83 559.26,-75.8 541,-67 533.04,-63.16 524.25,-60.06 515.51,-57.57"/>
<polygon fill="midnightblue" stroke="midnightblue" points="594.83,-106.5 605.42,-106.48 597.13,-99.89 594.83,-106.5"/>
</g>
<!-- Node13 -->
<g id="node13" class="node">
<title>Node13</title>
<g id="a_node13"><a xlink:href="wld__wpaCtrlInterface_8c.html#a6024f927e9325cb624243ab3ada19169" target="_top" xlink:title=" ">
<polygon fill="white" stroke="black" points="206,-115 206,-145 326,-145 326,-115 206,-115"/>
<text text-anchor="start" x="214" y="-133" font-family="Helvetica,sans-Serif" font-size="10.00">wld_wpaCtrlInterface</text>
<text text-anchor="middle" x="266" y="-122" font-family="Helvetica,sans-Serif" font-size="10.00">_initWithSockName</text>
</a>
</g>
</g>
<!-- Node12&#45;&gt;Node13 -->
<g id="edge12" class="edge">
<title>Node12&#45;&gt;Node13</title>
<path fill="none" stroke="midnightblue" d="M391.12,-130C369.83,-130 346.61,-130 326.08,-130"/>
<polygon fill="midnightblue" stroke="midnightblue" points="391.39,-133.5 401.39,-130 391.39,-126.5 391.39,-133.5"/>
</g>
<!-- Node14 -->
<g id="node14" class="node">
<title>Node14</title>
<g id="a_node14"><a xlink:href="wld__wpaCtrlInterface_8c.html#ab633f391100bfb48cab0bb515fd4e908" target="_top" xlink:title=" ">
<polygon fill="white" stroke="black" points="4.5,-120.5 4.5,-139.5 145.5,-139.5 145.5,-120.5 4.5,-120.5"/>
<text text-anchor="middle" x="75" y="-127.5" font-family="Helvetica,sans-Serif" font-size="10.00">wld_wpaCtrlInterface_init</text>
</a>
</g>
</g>
<!-- Node13&#45;&gt;Node14 -->
<g id="edge13" class="edge">
<title>Node13&#45;&gt;Node14</title>
<path fill="none" stroke="midnightblue" d="M195.97,-130C179.63,-130 162.2,-130 145.83,-130"/>
<polygon fill="midnightblue" stroke="midnightblue" points="195.98,-133.5 205.98,-130 195.98,-126.5 195.98,-133.5"/>
</g>
<!-- Node16 -->
<g id="node16" class="node">
<title>Node16</title>
<g id="a_node16"><a xlink:href="wld__secDmn_8c.html#a6bf723465724da6f8b5fa5b8ddddf66f" target="_top" xlink:title=" ">
<polygon fill="white" stroke="black" points="205,-76.5 205,-95.5 327,-95.5 327,-76.5 205,-76.5"/>
<text text-anchor="middle" x="266" y="-83.5" font-family="Helvetica,sans-Serif" font-size="10.00">wld_secDmn_cleanup</text>
</a>
</g>
</g>
<!-- Node15&#45;&gt;Node16 -->
<g id="edge15" class="edge">
<title>Node15&#45;&gt;Node16</title>
<path fill="none" stroke="midnightblue" d="M378.87,-86C361.51,-86 343.49,-86 327.11,-86"/>
<polygon fill="midnightblue" stroke="midnightblue" points="379,-89.5 389,-86 379,-82.5 379,-89.5"/>
</g>
<!-- Node17 -->
<g id="node17" class="node">
<title>Node17</title>
<g id="a_node17"><a xlink:href="wifiGen__hapd_8c.html#af643558a6f2cae8f916cc925a5654667" target="_top" xlink:title=" ">
<polygon fill="white" stroke="black" points="12,-76.5 12,-95.5 138,-95.5 138,-76.5 12,-76.5"/>
<text text-anchor="middle" x="75" y="-83.5" font-family="Helvetica,sans-Serif" font-size="10.00">wifiGen_hapd_cleanup</text>
</a>
</g>
</g>
<!-- Node16&#45;&gt;Node17 -->
<g id="edge16" class="edge">
<title>Node16&#45;&gt;Node17</title>
<path fill="none" stroke="midnightblue" d="M194.78,-86C176.21,-86 156.3,-86 138.18,-86"/>
<polygon fill="midnightblue" stroke="midnightblue" points="194.94,-89.5 204.94,-86 194.94,-82.5 194.94,-89.5"/>
</g>
<!-- Node19 -->
<g id="node19" class="node">
<title>Node19</title>
<g id="a_node19"><a xlink:href="wld__secDmn_8c.html#a04e473c6a2f624f5ee15a91d36ca56db" target="_top" xlink:title=" ">
<polygon fill="white" stroke="black" points="201.5,-38.5 201.5,-57.5 330.5,-57.5 330.5,-38.5 201.5,-38.5"/>
<text text-anchor="middle" x="266" y="-45.5" font-family="Helvetica,sans-Serif" font-size="10.00">wld_secDmn_restartCb</text>
</a>
</g>
</g>
<!-- Node18&#45;&gt;Node19 -->
<g id="edge18" class="edge">
<title>Node18&#45;&gt;Node19</title>
<path fill="none" stroke="midnightblue" d="M371.73,-48C357.83,-48 343.71,-48 330.53,-48"/>
<polygon fill="midnightblue" stroke="midnightblue" points="371.8,-51.5 381.8,-48 371.8,-44.5 371.8,-51.5"/>
</g>
<!-- Node20 -->
<g id="node20" class="node">
<title>Node20</title>
<g id="a_node20"><a xlink:href="wld__secDmn_8c.html#a161897b21440ea0885b570829da259fc" target="_top" xlink:title=" ">
<polygon fill="white" stroke="black" points="213.5,-0.5 213.5,-19.5 318.5,-19.5 318.5,-0.5 213.5,-0.5"/>
<text text-anchor="middle" x="266" y="-7.5" font-family="Helvetica,sans-Serif" font-size="10.00">wld_secDmn_stop</text>
</a>
</g>
</g>
<!-- Node18&#45;&gt;Node20 -->
<g id="edge19" class="edge">
<title>Node18&#45;&gt;Node20</title>
<path fill="none" stroke="midnightblue" d="M401.75,-36.46C374.15,-31.04 341.65,-24.66 315.48,-19.52"/>
<polygon fill="midnightblue" stroke="midnightblue" points="401.18,-39.92 411.67,-38.41 402.53,-33.05 401.18,-39.92"/>
</g>
<!-- Node21 -->
<g id="node21" class="node">
<title>Node21</title>
<g id="a_node21"><a xlink:href="wifiGen__hapd_8c.html#a75688dec0e4ad675142a71010b2b536a" target="_top" xlink:title=" ">
<polygon fill="white" stroke="black" points="0,-0.5 0,-19.5 150,-19.5 150,-0.5 0,-0.5"/>
<text text-anchor="middle" x="75" y="-7.5" font-family="Helvetica,sans-Serif" font-size="10.00">wifiGen_hapd_stopDaemon</text>
</a>
</g>
</g>
<!-- Node20&#45;&gt;Node21 -->
<g id="edge20" class="edge">
<title>Node20&#45;&gt;Node21</title>
<path fill="none" stroke="midnightblue" d="M203.07,-10C186.2,-10 167.74,-10 150.26,-10"/>
<polygon fill="midnightblue" stroke="midnightblue" points="203.35,-13.5 213.35,-10 203.35,-6.5 203.35,-13.5"/>
</g>
<!-- Node24 -->
<g id="node24" class="node">
<title>Node24</title>
<g id="a_node24"><a xlink:href="wld__wpaCtrlMngr_8c.html#a3f5ee8d93b578b86a7a909edb425294c" target="_top" xlink:title=" ">
<polygon fill="white" stroke="black" points="397.5,-0.5 397.5,-19.5 525.5,-19.5 525.5,-0.5 397.5,-0.5"/>
<text text-anchor="middle" x="461.5" y="-7.5" font-family="Helvetica,sans-Serif" font-size="10.00">wld_wpaCtrlMngr_ping</text>
</a>
</g>
</g>
<!-- Node23&#45;&gt;Node24 -->
<g id="edge23" class="edge">
<title>Node23&#45;&gt;Node24</title>
<path fill="none" stroke="midnightblue" d="M582.37,-21.27C563.51,-19.5 543.74,-17.64 525.83,-15.96"/>
<polygon fill="midnightblue" stroke="midnightblue" points="582.15,-24.77 592.43,-22.22 582.8,-17.8 582.15,-24.77"/>
</g>
</g>
</svg>
