<?xml version="1.0" encoding="UTF-8" standalone="no"?>
<!DOCTYPE svg PUBLIC "-//W3C//DTD SVG 1.1//EN"
 "http://www.w3.org/Graphics/SVG/1.1/DTD/svg11.dtd">
<!-- Generated by graphviz version 2.43.0 (0)
 -->
<!-- Title: wld_rad_doRadioCommit Pages: 1 -->
<svg width="502pt" height="170pt"
 viewBox="0.00 0.00 502.00 170.00" xmlns="http://www.w3.org/2000/svg" xmlns:xlink="http://www.w3.org/1999/xlink">
<g id="graph0" class="graph" transform="scale(1 1) rotate(0) translate(4 166)">
<title>wld_rad_doRadioCommit</title>
<polygon fill="white" stroke="transparent" points="-4,4 -4,-166 498,-166 498,4 -4,4"/>
<!-- Node1 -->
<g id="node1" class="node">
<title>Node1</title>
<g id="a_node1"><a xlink:title=" ">
<polygon fill="#bfbfbf" stroke="black" points="355,-104.5 355,-123.5 494,-123.5 494,-104.5 355,-104.5"/>
<text text-anchor="middle" x="424.5" y="-111.5" font-family="Helvetica,sans-Serif" font-size="10.00">wld_rad_doRadioCommit</text>
</a>
</g>
</g>
<!-- Node2 -->
<g id="node2" class="node">
<title>Node2</title>
<g id="a_node2"><a xlink:href="wld__radio_8c.html#a9c46184e05995965fffcf7358139b3ad" target="_top" xlink:title=" ">
<polygon fill="white" stroke="black" points="188.5,-142.5 188.5,-161.5 280.5,-161.5 280.5,-142.5 188.5,-142.5"/>
<text text-anchor="middle" x="234.5" y="-149.5" font-family="Helvetica,sans-Serif" font-size="10.00">_Radio_commit</text>
</a>
</g>
</g>
<!-- Node1&#45;&gt;Node2 -->
<g id="edge1" class="edge">
<title>Node1&#45;&gt;Node2</title>
<path fill="none" stroke="midnightblue" d="M366.19,-125.58C338.74,-131.13 306.33,-137.68 280.66,-142.87"/>
<polygon fill="midnightblue" stroke="midnightblue" points="366.95,-129 376.06,-123.59 365.56,-122.14 366.95,-129"/>
</g>
<!-- Node3 -->
<g id="node3" class="node">
<title>Node3</title>
<g id="a_node3"><a xlink:href="wld__radio_8c.html#a29ccd9386aab480c5554c4ce0bd26c6b" target="_top" xlink:title=" ">
<polygon fill="white" stroke="black" points="158.5,-104.5 158.5,-123.5 310.5,-123.5 310.5,-104.5 158.5,-104.5"/>
<text text-anchor="middle" x="234.5" y="-111.5" font-family="Helvetica,sans-Serif" font-size="10.00">_startAutoChannelSelection</text>
</a>
</g>
</g>
<!-- Node1&#45;&gt;Node3 -->
<g id="edge2" class="edge">
<title>Node1&#45;&gt;Node3</title>
<path fill="none" stroke="midnightblue" d="M344.6,-114C333.36,-114 321.82,-114 310.64,-114"/>
<polygon fill="midnightblue" stroke="midnightblue" points="344.83,-117.5 354.83,-114 344.83,-110.5 344.83,-117.5"/>
</g>
<!-- Node5 -->
<g id="node5" class="node">
<title>Node5</title>
<g id="a_node5"><a xlink:href="wld__radio_8c.html#acd644ffec62c7a01c9d53854a88792df" target="_top" xlink:title=" ">
<polygon fill="white" stroke="black" points="150,-57.5 150,-76.5 319,-76.5 319,-57.5 150,-57.5"/>
<text text-anchor="middle" x="234.5" y="-64.5" font-family="Helvetica,sans-Serif" font-size="10.00">wld_rad_doCommitIfUnblocked</text>
</a>
</g>
</g>
<!-- Node1&#45;&gt;Node5 -->
<g id="edge4" class="edge">
<title>Node1&#45;&gt;Node5</title>
<path fill="none" stroke="midnightblue" d="M375.56,-102.01C343.99,-94.12 303.21,-83.93 273.81,-76.58"/>
<polygon fill="midnightblue" stroke="midnightblue" points="374.91,-105.46 385.46,-104.49 376.6,-98.67 374.91,-105.46"/>
</g>
<!-- Node4 -->
<g id="node4" class="node">
<title>Node4</title>
<g id="a_node4"><a xlink:href="wld__radio_8c.html#a19fc6ef45cfa46a63a1ab3c96ba22b3f" target="_top" xlink:title=" ">
<polygon fill="white" stroke="black" points="25,-114.5 25,-133.5 89,-133.5 89,-114.5 25,-114.5"/>
<text text-anchor="middle" x="57" y="-121.5" font-family="Helvetica,sans-Serif" font-size="10.00">_startACS</text>
</a>
</g>
</g>
<!-- Node3&#45;&gt;Node4 -->
<g id="edge3" class="edge">
<title>Node3&#45;&gt;Node4</title>
<path fill="none" stroke="midnightblue" d="M148.05,-118.87C127.07,-120.06 105.93,-121.27 89.4,-122.21"/>
<polygon fill="midnightblue" stroke="midnightblue" points="148.52,-122.35 158.31,-118.28 148.13,-115.36 148.52,-122.35"/>
</g>
<!-- Node6 -->
<g id="node6" class="node">
<title>Node6</title>
<g id="a_node6"><a xlink:href="wifiGen__rad_8c.html#a3a0bd37359b3dbcef4e8d870f6431aaa" target="_top" xlink:title=" ">
<polygon fill="white" stroke="black" points="0,-76.5 0,-95.5 114,-95.5 114,-76.5 0,-76.5"/>
<text text-anchor="middle" x="57" y="-83.5" font-family="Helvetica,sans-Serif" font-size="10.00">wifiGen_rad_refresh</text>
</a>
</g>
</g>
<!-- Node5&#45;&gt;Node6 -->
<g id="edge5" class="edge">
<title>Node5&#45;&gt;Node6</title>
<path fill="none" stroke="midnightblue" d="M139.73,-77.15C131.11,-78.09 122.56,-79.01 114.43,-79.89"/>
<polygon fill="midnightblue" stroke="midnightblue" points="140.3,-80.61 149.86,-76.05 139.54,-73.65 140.3,-80.61"/>
</g>
<!-- Node7 -->
<g id="node7" class="node">
<title>Node7</title>
<g id="a_node7"><a xlink:href="wifiGen__rad_8c.html#ab788015af16689843e1db5b7c36450e8" target="_top" xlink:title=" ">
<polygon fill="white" stroke="black" points="1,-38.5 1,-57.5 113,-57.5 113,-38.5 1,-38.5"/>
<text text-anchor="middle" x="57" y="-45.5" font-family="Helvetica,sans-Serif" font-size="10.00">wifiGen_rad_restart</text>
</a>
</g>
</g>
<!-- Node5&#45;&gt;Node7 -->
<g id="edge6" class="edge">
<title>Node5&#45;&gt;Node7</title>
<path fill="none" stroke="midnightblue" d="M139.72,-56.85C130.75,-55.88 121.86,-54.91 113.44,-54"/>
<polygon fill="midnightblue" stroke="midnightblue" points="139.54,-60.35 149.86,-57.95 140.3,-53.39 139.54,-60.35"/>
</g>
<!-- Node8 -->
<g id="node8" class="node">
<title>Node8</title>
<g id="a_node8"><a xlink:href="wifiGen__rad_8c.html#a7fb03b9b6d6e545ca73ca0b6e06b4051" target="_top" xlink:title=" ">
<polygon fill="white" stroke="black" points="2,-0.5 2,-19.5 112,-19.5 112,-0.5 2,-0.5"/>
<text text-anchor="middle" x="57" y="-7.5" font-family="Helvetica,sans-Serif" font-size="10.00">wifiGen_rad_toggle</text>
</a>
</g>
</g>
<!-- Node5&#45;&gt;Node8 -->
<g id="edge7" class="edge">
<title>Node5&#45;&gt;Node8</title>
<path fill="none" stroke="midnightblue" d="M194.53,-54.34C162.18,-43.84 116.86,-29.12 87.47,-19.57"/>
<polygon fill="midnightblue" stroke="midnightblue" points="193.53,-57.7 204.13,-57.46 195.7,-51.04 193.53,-57.7"/>
</g>
</g>
</svg>
