<?xml version="1.0" encoding="UTF-8" standalone="no"?>
<!DOCTYPE svg PUBLIC "-//W3C//DTD SVG 1.1//EN"
 "http://www.w3.org/Graphics/SVG/1.1/DTD/svg11.dtd">
<!-- Generated by graphviz version 2.43.0 (0)
 -->
<!-- Title: src/wld_util.c Pages: 1 -->
<svg width="5402pt" height="308pt"
 viewBox="0.00 0.00 5401.50 308.00" xmlns="http://www.w3.org/2000/svg" xmlns:xlink="http://www.w3.org/1999/xlink">
<g id="graph0" class="graph" transform="scale(1 1) rotate(0) translate(4 304)">
<title>src/wld_util.c</title>
<polygon fill="white" stroke="transparent" points="-4,4 -4,-304 5397.5,-304 5397.5,4 -4,4"/>
<!-- Node1 -->
<g id="node1" class="node">
<title>Node1</title>
<g id="a_node1"><a xlink:title=" ">
<polygon fill="#bfbfbf" stroke="black" points="4526,-280.5 4526,-299.5 4606,-299.5 4606,-280.5 4526,-280.5"/>
<text text-anchor="middle" x="4566" y="-287.5" font-family="Helvetica,sans-Serif" font-size="10.00">src/wld_util.c</text>
</a>
</g>
</g>
<!-- Node2 -->
<g id="node2" class="node">
<title>Node2</title>
<g id="a_node2"><a xlink:href="wld__util_8h.html" target="_top" xlink:title=" ">
<polygon fill="white" stroke="black" points="3364,-224.5 3364,-243.5 3428,-243.5 3428,-224.5 3364,-224.5"/>
<text text-anchor="middle" x="3396" y="-231.5" font-family="Helvetica,sans-Serif" font-size="10.00">wld_util.h</text>
</a>
</g>
</g>
<!-- Node1&#45;&gt;Node2 -->
<g id="edge1" class="edge">
<title>Node1&#45;&gt;Node2</title>
<path fill="none" stroke="midnightblue" d="M4525.73,-287.14C4346.38,-278.86 3621.19,-245.39 3438.13,-236.94"/>
<polygon fill="midnightblue" stroke="midnightblue" points="3438.24,-233.45 3428.09,-236.48 3437.92,-240.44 3438.24,-233.45"/>
</g>
<!-- Node28 -->
<g id="node28" class="node">
<title>Node28</title>
<g id="a_node28"><a xlink:title=" ">
<polygon fill="white" stroke="#bfbfbf" points="4114,-112.5 4114,-131.5 4258,-131.5 4258,-112.5 4114,-112.5"/>
<text text-anchor="middle" x="4186" y="-119.5" font-family="Helvetica,sans-Serif" font-size="10.00">amxd/amxd_transaction.h</text>
</a>
</g>
</g>
<!-- Node1&#45;&gt;Node28 -->
<g id="edge56" class="edge">
<title>Node1&#45;&gt;Node28</title>
<path fill="none" stroke="midnightblue" d="M4525.73,-287.65C4476.77,-284.63 4392.68,-274.95 4328,-244 4273.69,-218.01 4223.38,-165.97 4199.9,-139.41"/>
<polygon fill="midnightblue" stroke="midnightblue" points="4202.45,-137 4193.25,-131.75 4197.16,-141.59 4202.45,-137"/>
</g>
<!-- Node49 -->
<g id="node38" class="node">
<title>Node49</title>
<g id="a_node38"><a xlink:title=" ">
<polygon fill="white" stroke="#bfbfbf" points="4276.5,-112.5 4276.5,-131.5 4373.5,-131.5 4373.5,-112.5 4276.5,-112.5"/>
<text text-anchor="middle" x="4325" y="-119.5" font-family="Helvetica,sans-Serif" font-size="10.00">swl/swl_assert.h</text>
</a>
</g>
</g>
<!-- Node1&#45;&gt;Node49 -->
<g id="edge50" class="edge">
<title>Node1&#45;&gt;Node49</title>
<path fill="none" stroke="midnightblue" d="M4525.86,-286.26C4468.84,-281.5 4368.53,-269.65 4344,-244 4317.75,-216.56 4318.88,-168.53 4321.96,-141.98"/>
<polygon fill="midnightblue" stroke="midnightblue" points="4325.47,-142.13 4323.37,-131.74 4318.54,-141.17 4325.47,-142.13"/>
</g>
<!-- Node54 -->
<g id="node39" class="node">
<title>Node54</title>
<g id="a_node39"><a xlink:title=" ">
<polygon fill="white" stroke="#bfbfbf" points="4391.5,-112.5 4391.5,-131.5 4500.5,-131.5 4500.5,-112.5 4391.5,-112.5"/>
<text text-anchor="middle" x="4446" y="-119.5" font-family="Helvetica,sans-Serif" font-size="10.00">swla/swla_object.h</text>
</a>
</g>
</g>
<!-- Node1&#45;&gt;Node54 -->
<g id="edge52" class="edge">
<title>Node1&#45;&gt;Node54</title>
<path fill="none" stroke="midnightblue" d="M4525.67,-286.24C4470.76,-281.55 4376.92,-269.88 4356,-244 4325.5,-206.27 4386.31,-159.77 4422.22,-136.96"/>
<polygon fill="midnightblue" stroke="midnightblue" points="4424.08,-139.92 4430.74,-131.69 4420.39,-133.97 4424.08,-139.92"/>
</g>
<!-- Node76 -->
<g id="node40" class="node">
<title>Node76</title>
<g id="a_node40"><a xlink:title=" ">
<polygon fill="white" stroke="#bfbfbf" points="4365,-224.5 4365,-243.5 4415,-243.5 4415,-224.5 4365,-224.5"/>
<text text-anchor="middle" x="4390" y="-231.5" font-family="Helvetica,sans-Serif" font-size="10.00">stdio.h</text>
</a>
</g>
</g>
<!-- Node1&#45;&gt;Node76 -->
<g id="edge45" class="edge">
<title>Node1&#45;&gt;Node76</title>
<path fill="none" stroke="midnightblue" d="M4538.11,-280.44C4507.46,-271.04 4458.16,-255.91 4424.94,-245.72"/>
<polygon fill="midnightblue" stroke="midnightblue" points="4425.78,-242.32 4415.19,-242.73 4423.72,-249.01 4425.78,-242.32"/>
</g>
<!-- Node77 -->
<g id="node41" class="node">
<title>Node77</title>
<g id="a_node41"><a xlink:title=" ">
<polygon fill="white" stroke="#bfbfbf" points="4433.5,-224.5 4433.5,-243.5 4486.5,-243.5 4486.5,-224.5 4433.5,-224.5"/>
<text text-anchor="middle" x="4460" y="-231.5" font-family="Helvetica,sans-Serif" font-size="10.00">string.h</text>
</a>
</g>
</g>
<!-- Node1&#45;&gt;Node77 -->
<g id="edge46" class="edge">
<title>Node1&#45;&gt;Node77</title>
<path fill="none" stroke="midnightblue" d="M4548.97,-280.32C4531.97,-271.66 4505.62,-258.24 4486.01,-248.25"/>
<polygon fill="midnightblue" stroke="midnightblue" points="4487.49,-245.08 4476.99,-243.65 4484.31,-251.31 4487.49,-245.08"/>
</g>
<!-- Node78 -->
<g id="node42" class="node">
<title>Node78</title>
<g id="a_node42"><a xlink:title=" ">
<polygon fill="white" stroke="#bfbfbf" points="4504.5,-224.5 4504.5,-243.5 4557.5,-243.5 4557.5,-224.5 4504.5,-224.5"/>
<text text-anchor="middle" x="4531" y="-231.5" font-family="Helvetica,sans-Serif" font-size="10.00">stdlib.h</text>
</a>
</g>
</g>
<!-- Node1&#45;&gt;Node78 -->
<g id="edge47" class="edge">
<title>Node1&#45;&gt;Node78</title>
<path fill="none" stroke="midnightblue" d="M4560.22,-280.08C4555.33,-272.53 4548.17,-261.49 4542.17,-252.23"/>
<polygon fill="midnightblue" stroke="midnightblue" points="4545.05,-250.24 4536.67,-243.75 4539.17,-254.05 4545.05,-250.24"/>
</g>
<!-- Node79 -->
<g id="node43" class="node">
<title>Node79</title>
<g id="a_node43"><a xlink:title=" ">
<polygon fill="white" stroke="#bfbfbf" points="4575.5,-224.5 4575.5,-243.5 4626.5,-243.5 4626.5,-224.5 4575.5,-224.5"/>
<text text-anchor="middle" x="4601" y="-231.5" font-family="Helvetica,sans-Serif" font-size="10.00">errno.h</text>
</a>
</g>
</g>
<!-- Node1&#45;&gt;Node79 -->
<g id="edge48" class="edge">
<title>Node1&#45;&gt;Node79</title>
<path fill="none" stroke="midnightblue" d="M4571.78,-280.08C4576.67,-272.53 4583.83,-261.49 4589.83,-252.23"/>
<polygon fill="midnightblue" stroke="midnightblue" points="4592.83,-254.05 4595.33,-243.75 4586.95,-250.24 4592.83,-254.05"/>
</g>
<!-- Node80 -->
<g id="node44" class="node">
<title>Node80</title>
<g id="a_node44"><a xlink:title=" ">
<polygon fill="white" stroke="#bfbfbf" points="4645,-224.5 4645,-243.5 4729,-243.5 4729,-224.5 4645,-224.5"/>
<text text-anchor="middle" x="4687" y="-231.5" font-family="Helvetica,sans-Serif" font-size="10.00">openssl/evp.h</text>
</a>
</g>
</g>
<!-- Node1&#45;&gt;Node80 -->
<g id="edge49" class="edge">
<title>Node1&#45;&gt;Node80</title>
<path fill="none" stroke="midnightblue" d="M4585.17,-280.44C4604.91,-271.64 4635.89,-257.81 4658.49,-247.72"/>
<polygon fill="midnightblue" stroke="midnightblue" points="4660.21,-250.79 4667.92,-243.52 4657.36,-244.4 4660.21,-250.79"/>
</g>
<!-- Node81 -->
<g id="node45" class="node">
<title>Node81</title>
<g id="a_node45"><a xlink:title=" ">
<polygon fill="white" stroke="#bfbfbf" points="4747,-224.5 4747,-243.5 4879,-243.5 4879,-224.5 4747,-224.5"/>
<text text-anchor="middle" x="4813" y="-231.5" font-family="Helvetica,sans-Serif" font-size="10.00">swla/swla_conversion.h</text>
</a>
</g>
</g>
<!-- Node1&#45;&gt;Node81 -->
<g id="edge51" class="edge">
<title>Node1&#45;&gt;Node81</title>
<path fill="none" stroke="midnightblue" d="M4605.14,-280.44C4648.23,-271.02 4717.56,-255.87 4764.17,-245.68"/>
<polygon fill="midnightblue" stroke="midnightblue" points="4765.02,-249.07 4774.05,-243.52 4763.53,-242.23 4765.02,-249.07"/>
</g>
<!-- Node82 -->
<g id="node46" class="node">
<title>Node82</title>
<g id="a_node46"><a xlink:title=" ">
<polygon fill="white" stroke="#bfbfbf" points="4897.5,-224.5 4897.5,-243.5 4992.5,-243.5 4992.5,-224.5 4897.5,-224.5"/>
<text text-anchor="middle" x="4945" y="-231.5" font-family="Helvetica,sans-Serif" font-size="10.00">swl/swl_string.h</text>
</a>
</g>
</g>
<!-- Node1&#45;&gt;Node82 -->
<g id="edge53" class="edge">
<title>Node1&#45;&gt;Node82</title>
<path fill="none" stroke="midnightblue" d="M4606.19,-283.62C4665.32,-275.65 4779.48,-260.06 4887.34,-244.07"/>
<polygon fill="midnightblue" stroke="midnightblue" points="4888.05,-247.51 4897.42,-242.58 4887.02,-240.58 4888.05,-247.51"/>
</g>
<!-- Node83 -->
<g id="node47" class="node">
<title>Node83</title>
<g id="a_node47"><a xlink:title=" ">
<polygon fill="white" stroke="#bfbfbf" points="5010.5,-224.5 5010.5,-243.5 5095.5,-243.5 5095.5,-224.5 5010.5,-224.5"/>
<text text-anchor="middle" x="5053" y="-231.5" font-family="Helvetica,sans-Serif" font-size="10.00">swl/swl_hex.h</text>
</a>
</g>
</g>
<!-- Node1&#45;&gt;Node83 -->
<g id="edge54" class="edge">
<title>Node1&#45;&gt;Node83</title>
<path fill="none" stroke="midnightblue" d="M4606.29,-285.76C4681.56,-279.5 4848.83,-264.65 5000.5,-243.97"/>
<polygon fill="midnightblue" stroke="midnightblue" points="5001.04,-247.43 5010.47,-242.6 5000.09,-240.5 5001.04,-247.43"/>
</g>
<!-- Node84 -->
<g id="node48" class="node">
<title>Node84</title>
<g id="a_node48"><a xlink:title=" ">
<polygon fill="white" stroke="#bfbfbf" points="5113.5,-224.5 5113.5,-243.5 5274.5,-243.5 5274.5,-224.5 5113.5,-224.5"/>
<text text-anchor="middle" x="5194" y="-231.5" font-family="Helvetica,sans-Serif" font-size="10.00">swl/swl_common_chanspec.h</text>
</a>
</g>
</g>
<!-- Node1&#45;&gt;Node84 -->
<g id="edge55" class="edge">
<title>Node1&#45;&gt;Node84</title>
<path fill="none" stroke="midnightblue" d="M4606.18,-285.86C4694.11,-278.95 4910.46,-261.68 5103.03,-244.08"/>
<polygon fill="midnightblue" stroke="midnightblue" points="5103.41,-247.56 5113.05,-243.16 5102.78,-240.58 5103.41,-247.56"/>
</g>
<!-- Node85 -->
<g id="node49" class="node">
<title>Node85</title>
<g id="a_node49"><a xlink:href="wld__linuxIfUtils_8h.html" target="_top" xlink:title=" ">
<polygon fill="white" stroke="black" points="5292.5,-224.5 5292.5,-243.5 5393.5,-243.5 5393.5,-224.5 5292.5,-224.5"/>
<text text-anchor="middle" x="5343" y="-231.5" font-family="Helvetica,sans-Serif" font-size="10.00">wld_linuxIfUtils.h</text>
</a>
</g>
</g>
<!-- Node1&#45;&gt;Node85 -->
<g id="edge57" class="edge">
<title>Node1&#45;&gt;Node85</title>
<path fill="none" stroke="midnightblue" d="M4606.2,-287.73C4714.01,-284.07 5018.76,-271.95 5282.05,-244.13"/>
<polygon fill="midnightblue" stroke="midnightblue" points="5282.62,-247.58 5292.19,-243.04 5281.87,-240.62 5282.62,-247.58"/>
</g>
<!-- Node3 -->
<g id="node3" class="node">
<title>Node3</title>
<g id="a_node3"><a xlink:href="wld_8h.html" target="_top" xlink:title=" ">
<polygon fill="white" stroke="red" points="2665.5,-168.5 2665.5,-187.5 2708.5,-187.5 2708.5,-168.5 2665.5,-168.5"/>
<text text-anchor="middle" x="2687" y="-175.5" font-family="Helvetica,sans-Serif" font-size="10.00">wld.h</text>
</a>
</g>
</g>
<!-- Node2&#45;&gt;Node3 -->
<g id="edge2" class="edge">
<title>Node2&#45;&gt;Node3</title>
<path fill="none" stroke="midnightblue" d="M3363.69,-230.54C3245.35,-221.53 2836.31,-190.37 2718.8,-181.42"/>
<polygon fill="midnightblue" stroke="midnightblue" points="2718.9,-177.92 2708.66,-180.65 2718.37,-184.9 2718.9,-177.92"/>
</g>
<!-- Node4 -->
<g id="node4" class="node">
<title>Node4</title>
<g id="a_node4"><a xlink:title=" ">
<polygon fill="white" stroke="#bfbfbf" points="3341,-56.5 3341,-75.5 3403,-75.5 3403,-56.5 3341,-56.5"/>
<text text-anchor="middle" x="3372" y="-63.5" font-family="Helvetica,sans-Serif" font-size="10.00">stdbool.h</text>
</a>
</g>
</g>
<!-- Node3&#45;&gt;Node4 -->
<g id="edge3" class="edge">
<title>Node3&#45;&gt;Node4</title>
<path fill="none" stroke="midnightblue" d="M2708.6,-176.67C2814.8,-174.89 3278.73,-165.27 3333,-132 3350.14,-121.49 3360.71,-100.38 3366.45,-85.06"/>
<polygon fill="midnightblue" stroke="midnightblue" points="3369.77,-86.18 3369.67,-75.59 3363.14,-83.93 3369.77,-86.18"/>
</g>
<!-- Node5 -->
<g id="node5" class="node">
<title>Node5</title>
<g id="a_node5"><a xlink:title=" ">
<polygon fill="white" stroke="#bfbfbf" points="3636.5,-0.5 3636.5,-19.5 3689.5,-19.5 3689.5,-0.5 3636.5,-0.5"/>
<text text-anchor="middle" x="3663" y="-7.5" font-family="Helvetica,sans-Serif" font-size="10.00">stdint.h</text>
</a>
</g>
</g>
<!-- Node3&#45;&gt;Node5 -->
<g id="edge4" class="edge">
<title>Node3&#45;&gt;Node5</title>
<path fill="none" stroke="midnightblue" d="M2708.62,-176.71C2848.37,-174.73 3619.5,-162.47 3658,-132 3688.13,-108.16 3677.79,-56.7 3669.41,-29.2"/>
<polygon fill="midnightblue" stroke="midnightblue" points="3672.71,-28.05 3666.27,-19.63 3666.06,-30.23 3672.71,-28.05"/>
</g>
<!-- Node6 -->
<g id="node6" class="node">
<title>Node6</title>
<g id="a_node6"><a xlink:title=" ">
<polygon fill="white" stroke="#bfbfbf" points="3726,-112.5 3726,-131.5 3836,-131.5 3836,-112.5 3726,-112.5"/>
<text text-anchor="middle" x="3781" y="-119.5" font-family="Helvetica,sans-Serif" font-size="10.00">swl/swl_common.h</text>
</a>
</g>
</g>
<!-- Node3&#45;&gt;Node6 -->
<g id="edge5" class="edge">
<title>Node3&#45;&gt;Node6</title>
<path fill="none" stroke="midnightblue" d="M2708.68,-176.74C2816.99,-175.29 3310.07,-166.97 3712,-132 3713.11,-131.9 3714.24,-131.8 3715.37,-131.7"/>
<polygon fill="midnightblue" stroke="midnightblue" points="3716.09,-135.14 3725.68,-130.64 3715.38,-128.18 3716.09,-135.14"/>
</g>
<!-- Node7 -->
<g id="node7" class="node">
<title>Node7</title>
<g id="a_node7"><a xlink:title=" ">
<polygon fill="white" stroke="#bfbfbf" points="3854,-112.5 3854,-131.5 3990,-131.5 3990,-112.5 3854,-112.5"/>
<text text-anchor="middle" x="3922" y="-119.5" font-family="Helvetica,sans-Serif" font-size="10.00">swla/swla_commonLib.h</text>
</a>
</g>
</g>
<!-- Node3&#45;&gt;Node7 -->
<g id="edge6" class="edge">
<title>Node3&#45;&gt;Node7</title>
<path fill="none" stroke="midnightblue" d="M2708.73,-176.78C2824.33,-175.5 3378.95,-167.71 3843.33,-132.07"/>
<polygon fill="midnightblue" stroke="midnightblue" points="3843.89,-135.53 3853.59,-131.27 3843.35,-128.56 3843.89,-135.53"/>
</g>
<!-- Node8 -->
<g id="node8" class="node">
<title>Node8</title>
<g id="a_node8"><a xlink:title=" ">
<polygon fill="white" stroke="#bfbfbf" points="4008,-112.5 4008,-131.5 4096,-131.5 4096,-112.5 4008,-112.5"/>
<text text-anchor="middle" x="4052" y="-119.5" font-family="Helvetica,sans-Serif" font-size="10.00">swl/swl_uuid.h</text>
</a>
</g>
</g>
<!-- Node3&#45;&gt;Node8 -->
<g id="edge7" class="edge">
<title>Node3&#45;&gt;Node8</title>
<path fill="none" stroke="midnightblue" d="M2708.53,-176.66C2855.4,-174.26 3712.42,-159.32 3997.51,-131.98"/>
<polygon fill="midnightblue" stroke="midnightblue" points="3998.21,-135.43 4007.81,-130.96 3997.52,-128.46 3998.21,-135.43"/>
</g>
<!-- Node9 -->
<g id="node9" class="node">
<title>Node9</title>
<g id="a_node9"><a xlink:title=" ">
<polygon fill="white" stroke="#bfbfbf" points="0,-112.5 0,-131.5 152,-131.5 152,-112.5 0,-112.5"/>
<text text-anchor="middle" x="76" y="-119.5" font-family="Helvetica,sans-Serif" font-size="10.00">swla/swla_radioStandards.h</text>
</a>
</g>
</g>
<!-- Node3&#45;&gt;Node9 -->
<g id="edge8" class="edge">
<title>Node3&#45;&gt;Node9</title>
<path fill="none" stroke="midnightblue" d="M2665.46,-176.88C2451.82,-175.64 709.21,-164.6 162.75,-132.04"/>
<polygon fill="midnightblue" stroke="midnightblue" points="162.62,-128.52 152.43,-131.41 162.2,-135.51 162.62,-128.52"/>
</g>
<!-- Node10 -->
<g id="node10" class="node">
<title>Node10</title>
<g id="a_node10"><a xlink:title=" ">
<polygon fill="white" stroke="#bfbfbf" points="3477.5,-0.5 3477.5,-19.5 3578.5,-19.5 3578.5,-0.5 3477.5,-0.5"/>
<text text-anchor="middle" x="3528" y="-7.5" font-family="Helvetica,sans-Serif" font-size="10.00">swla/swla_time.h</text>
</a>
</g>
</g>
<!-- Node3&#45;&gt;Node10 -->
<g id="edge9" class="edge">
<title>Node3&#45;&gt;Node10</title>
<path fill="none" stroke="midnightblue" d="M2708.9,-176.57C2836.31,-173.95 3477.38,-159.45 3508,-132 3536.58,-106.38 3534.83,-56.85 3531.29,-29.78"/>
<polygon fill="midnightblue" stroke="midnightblue" points="3534.72,-29.05 3529.75,-19.69 3527.8,-30.11 3534.72,-29.05"/>
</g>
<!-- Node11 -->
<g id="node11" class="node">
<title>Node11</title>
<g id="a_node11"><a xlink:title=" ">
<polygon fill="white" stroke="#bfbfbf" points="170.5,-112.5 170.5,-131.5 299.5,-131.5 299.5,-112.5 170.5,-112.5"/>
<text text-anchor="middle" x="235" y="-119.5" font-family="Helvetica,sans-Serif" font-size="10.00">swla/swla_time_spec.h</text>
</a>
</g>
</g>
<!-- Node3&#45;&gt;Node11 -->
<g id="edge10" class="edge">
<title>Node3&#45;&gt;Node11</title>
<path fill="none" stroke="midnightblue" d="M2665.44,-176.9C2458.75,-175.87 824.53,-166.73 309.64,-131.94"/>
<polygon fill="midnightblue" stroke="midnightblue" points="309.75,-128.44 299.54,-131.24 309.27,-135.42 309.75,-128.44"/>
</g>
<!-- Node12 -->
<g id="node12" class="node">
<title>Node12</title>
<g id="a_node12"><a xlink:title=" ">
<polygon fill="white" stroke="#bfbfbf" points="318,-112.5 318,-131.5 412,-131.5 412,-112.5 318,-112.5"/>
<text text-anchor="middle" x="365" y="-119.5" font-family="Helvetica,sans-Serif" font-size="10.00">swla/swla_oui.h</text>
</a>
</g>
</g>
<!-- Node3&#45;&gt;Node12 -->
<g id="edge11" class="edge">
<title>Node3&#45;&gt;Node12</title>
<path fill="none" stroke="midnightblue" d="M2665.19,-176.99C2462.96,-176.82 912,-174.16 422.6,-131.99"/>
<polygon fill="midnightblue" stroke="midnightblue" points="422.57,-128.47 412.3,-131.08 421.95,-135.44 422.57,-128.47"/>
</g>
<!-- Node13 -->
<g id="node13" class="node">
<title>Node13</title>
<g id="a_node13"><a xlink:title=" ">
<polygon fill="white" stroke="#bfbfbf" points="430,-112.5 430,-131.5 558,-131.5 558,-112.5 430,-112.5"/>
<text text-anchor="middle" x="494" y="-119.5" font-family="Helvetica,sans-Serif" font-size="10.00">swla/swla_delayExec.h</text>
</a>
</g>
</g>
<!-- Node3&#45;&gt;Node13 -->
<g id="edge12" class="edge">
<title>Node3&#45;&gt;Node13</title>
<path fill="none" stroke="midnightblue" d="M2665.39,-176.84C2471.43,-175.41 1026.72,-163.76 568.05,-131.98"/>
<polygon fill="midnightblue" stroke="midnightblue" points="568.28,-128.49 558.06,-131.27 567.79,-135.47 568.28,-128.49"/>
</g>
<!-- Node14 -->
<g id="node14" class="node">
<title>Node14</title>
<g id="a_node14"><a xlink:title=" ">
<polygon fill="white" stroke="#bfbfbf" points="576.5,-112.5 576.5,-131.5 695.5,-131.5 695.5,-112.5 576.5,-112.5"/>
<text text-anchor="middle" x="636" y="-119.5" font-family="Helvetica,sans-Serif" font-size="10.00">swla/swla_function.h</text>
</a>
</g>
</g>
<!-- Node3&#45;&gt;Node14 -->
<g id="edge13" class="edge">
<title>Node3&#45;&gt;Node14</title>
<path fill="none" stroke="midnightblue" d="M2665.33,-176.83C2478.35,-175.36 1134.69,-163.78 705.93,-132.05"/>
<polygon fill="midnightblue" stroke="midnightblue" points="705.9,-128.54 695.67,-131.27 705.37,-135.52 705.9,-128.54"/>
</g>
<!-- Node15 -->
<g id="node15" class="node">
<title>Node15</title>
<g id="a_node15"><a xlink:title=" ">
<polygon fill="white" stroke="#bfbfbf" points="713.5,-112.5 713.5,-131.5 854.5,-131.5 854.5,-112.5 713.5,-112.5"/>
<text text-anchor="middle" x="784" y="-119.5" font-family="Helvetica,sans-Serif" font-size="10.00">swl/swl_usp_cmdStatus.h</text>
</a>
</g>
</g>
<!-- Node3&#45;&gt;Node15 -->
<g id="edge14" class="edge">
<title>Node3&#45;&gt;Node15</title>
<path fill="none" stroke="midnightblue" d="M2665.3,-177.18C2514.85,-178.29 1611.3,-182.56 864.79,-131.98"/>
<polygon fill="midnightblue" stroke="midnightblue" points="864.85,-128.47 854.64,-131.29 864.38,-135.46 864.85,-128.47"/>
</g>
<!-- Node16 -->
<g id="node16" class="node">
<title>Node16</title>
<g id="a_node16"><a xlink:title=" ">
<polygon fill="white" stroke="#bfbfbf" points="873,-112.5 873,-131.5 959,-131.5 959,-112.5 873,-112.5"/>
<text text-anchor="middle" x="916" y="-119.5" font-family="Helvetica,sans-Serif" font-size="10.00">swl/swl_wps.h</text>
</a>
</g>
</g>
<!-- Node3&#45;&gt;Node16 -->
<g id="edge15" class="edge">
<title>Node3&#45;&gt;Node16</title>
<path fill="none" stroke="midnightblue" d="M2665.27,-176.87C2492.66,-175.74 1340.76,-167.01 969.03,-131.92"/>
<polygon fill="midnightblue" stroke="midnightblue" points="969.36,-128.43 959.06,-130.95 968.68,-135.4 969.36,-128.43"/>
</g>
<!-- Node17 -->
<g id="node17" class="node">
<title>Node17</title>
<g id="a_node17"><a xlink:title=" ">
<polygon fill="white" stroke="#bfbfbf" points="977,-112.5 977,-131.5 1081,-131.5 1081,-112.5 977,-112.5"/>
<text text-anchor="middle" x="1029" y="-119.5" font-family="Helvetica,sans-Serif" font-size="10.00">swl/swl_security.h</text>
</a>
</g>
</g>
<!-- Node3&#45;&gt;Node17 -->
<g id="edge16" class="edge">
<title>Node3&#45;&gt;Node17</title>
<path fill="none" stroke="midnightblue" d="M2665.25,-176.74C2499.79,-174.72 1437.09,-160.82 1091.22,-131.97"/>
<polygon fill="midnightblue" stroke="midnightblue" points="1091.46,-128.48 1081.2,-131.12 1090.86,-135.46 1091.46,-128.48"/>
</g>
<!-- Node18 -->
<g id="node18" class="node">
<title>Node18</title>
<g id="a_node18"><a xlink:title=" ">
<polygon fill="white" stroke="#bfbfbf" points="1099.5,-112.5 1099.5,-131.5 1182.5,-131.5 1182.5,-112.5 1099.5,-112.5"/>
<text text-anchor="middle" x="1141" y="-119.5" font-family="Helvetica,sans-Serif" font-size="10.00">amxc/amxc.h</text>
</a>
</g>
</g>
<!-- Node3&#45;&gt;Node18 -->
<g id="edge17" class="edge">
<title>Node3&#45;&gt;Node18</title>
<path fill="none" stroke="midnightblue" d="M2665.37,-176.78C2506.52,-175.09 1517.57,-163.49 1193.02,-131.9"/>
<polygon fill="midnightblue" stroke="midnightblue" points="1192.98,-128.38 1182.68,-130.86 1192.28,-135.34 1192.98,-128.38"/>
</g>
<!-- Node19 -->
<g id="node19" class="node">
<title>Node19</title>
<g id="a_node19"><a xlink:title=" ">
<polygon fill="white" stroke="#bfbfbf" points="1201,-112.5 1201,-131.5 1285,-131.5 1285,-112.5 1201,-112.5"/>
<text text-anchor="middle" x="1243" y="-119.5" font-family="Helvetica,sans-Serif" font-size="10.00">amxp/amxp.h</text>
</a>
</g>
</g>
<!-- Node3&#45;&gt;Node19 -->
<g id="edge18" class="edge">
<title>Node3&#45;&gt;Node19</title>
<path fill="none" stroke="midnightblue" d="M2665.15,-176.72C2511.98,-174.7 1597.07,-161.61 1295.28,-131.95"/>
<polygon fill="midnightblue" stroke="midnightblue" points="1295.54,-128.46 1285.24,-130.93 1294.83,-135.42 1295.54,-128.46"/>
</g>
<!-- Node20 -->
<g id="node20" class="node">
<title>Node20</title>
<g id="a_node20"><a xlink:title=" ">
<polygon fill="white" stroke="#bfbfbf" points="1303,-112.5 1303,-131.5 1443,-131.5 1443,-112.5 1303,-112.5"/>
<text text-anchor="middle" x="1373" y="-119.5" font-family="Helvetica,sans-Serif" font-size="10.00">amxd/amxd_parameter.h</text>
</a>
</g>
</g>
<!-- Node3&#45;&gt;Node20 -->
<g id="edge19" class="edge">
<title>Node3&#45;&gt;Node20</title>
<path fill="none" stroke="midnightblue" d="M2665.43,-176.83C2545.72,-175.79 1950.69,-168.91 1453.44,-132.05"/>
<polygon fill="midnightblue" stroke="midnightblue" points="1453.42,-128.53 1443.18,-131.28 1452.9,-135.51 1453.42,-128.53"/>
</g>
<!-- Node21 -->
<g id="node21" class="node">
<title>Node21</title>
<g id="a_node21"><a xlink:title=" ">
<polygon fill="white" stroke="#bfbfbf" points="1461.5,-112.5 1461.5,-131.5 1580.5,-131.5 1580.5,-112.5 1461.5,-112.5"/>
<text text-anchor="middle" x="1521" y="-119.5" font-family="Helvetica,sans-Serif" font-size="10.00">amxd/amxd_action.h</text>
</a>
</g>
</g>
<!-- Node3&#45;&gt;Node21 -->
<g id="edge20" class="edge">
<title>Node3&#45;&gt;Node21</title>
<path fill="none" stroke="midnightblue" d="M2665.28,-176.84C2553.27,-175.87 2029.44,-169.5 1590.69,-132.07"/>
<polygon fill="midnightblue" stroke="midnightblue" points="1590.93,-128.58 1580.67,-131.21 1590.33,-135.55 1590.93,-128.58"/>
</g>
<!-- Node22 -->
<g id="node22" class="node">
<title>Node22</title>
<g id="a_node22"><a xlink:title=" ">
<polygon fill="white" stroke="#bfbfbf" points="1598.5,-112.5 1598.5,-131.5 1773.5,-131.5 1773.5,-112.5 1598.5,-112.5"/>
<text text-anchor="middle" x="1686" y="-119.5" font-family="Helvetica,sans-Serif" font-size="10.00">amxd/amxd_object_parameter.h</text>
</a>
</g>
</g>
<!-- Node3&#45;&gt;Node22 -->
<g id="edge21" class="edge">
<title>Node3&#45;&gt;Node22</title>
<path fill="none" stroke="midnightblue" d="M2665.29,-176.26C2565.75,-172.81 2142.83,-157.36 1783.82,-132.03"/>
<polygon fill="midnightblue" stroke="midnightblue" points="1783.98,-128.53 1773.76,-131.31 1783.48,-135.51 1783.98,-128.53"/>
</g>
<!-- Node23 -->
<g id="node23" class="node">
<title>Node23</title>
<g id="a_node23"><a xlink:title=" ">
<polygon fill="white" stroke="#bfbfbf" points="1792,-112.5 1792,-131.5 1944,-131.5 1944,-112.5 1792,-112.5"/>
<text text-anchor="middle" x="1868" y="-119.5" font-family="Helvetica,sans-Serif" font-size="10.00">amxd/amxd_object_event.h</text>
</a>
</g>
</g>
<!-- Node3&#45;&gt;Node23 -->
<g id="edge22" class="edge">
<title>Node3&#45;&gt;Node23</title>
<path fill="none" stroke="midnightblue" d="M2665.36,-176.02C2577.94,-172.01 2242.17,-155.88 1954.65,-132.1"/>
<polygon fill="midnightblue" stroke="midnightblue" points="1954.7,-128.6 1944.44,-131.26 1954.12,-135.57 1954.7,-128.6"/>
</g>
<!-- Node24 -->
<g id="node24" class="node">
<title>Node24</title>
<g id="a_node24"><a xlink:title=" ">
<polygon fill="white" stroke="#bfbfbf" points="1962.5,-112.5 1962.5,-131.5 2091.5,-131.5 2091.5,-112.5 1962.5,-112.5"/>
<text text-anchor="middle" x="2027" y="-119.5" font-family="Helvetica,sans-Serif" font-size="10.00">amxd/amxd_function.h</text>
</a>
</g>
</g>
<!-- Node3&#45;&gt;Node24 -->
<g id="edge23" class="edge">
<title>Node3&#45;&gt;Node24</title>
<path fill="none" stroke="midnightblue" d="M2665.38,-175.7C2589.52,-171.08 2328.25,-154.52 2101.93,-132.16"/>
<polygon fill="midnightblue" stroke="midnightblue" points="2102.16,-128.66 2091.86,-131.15 2101.47,-135.63 2102.16,-128.66"/>
</g>
<!-- Node25 -->
<g id="node25" class="node">
<title>Node25</title>
<g id="a_node25"><a xlink:title=" ">
<polygon fill="white" stroke="#bfbfbf" points="2109.5,-112.5 2109.5,-131.5 2278.5,-131.5 2278.5,-112.5 2109.5,-112.5"/>
<text text-anchor="middle" x="2194" y="-119.5" font-family="Helvetica,sans-Serif" font-size="10.00">amxd/amxd_object_hierarchy.h</text>
</a>
</g>
</g>
<!-- Node3&#45;&gt;Node25 -->
<g id="edge24" class="edge">
<title>Node3&#45;&gt;Node25</title>
<path fill="none" stroke="midnightblue" d="M2665.5,-174.64C2599.86,-167.46 2399.41,-145.5 2282.07,-132.65"/>
<polygon fill="midnightblue" stroke="midnightblue" points="2282.35,-129.16 2272.03,-131.55 2281.59,-136.11 2282.35,-129.16"/>
</g>
<!-- Node26 -->
<g id="node26" class="node">
<title>Node26</title>
<g id="a_node26"><a xlink:title=" ">
<polygon fill="white" stroke="#bfbfbf" points="2296.5,-112.5 2296.5,-131.5 2415.5,-131.5 2415.5,-112.5 2296.5,-112.5"/>
<text text-anchor="middle" x="2356" y="-119.5" font-family="Helvetica,sans-Serif" font-size="10.00">amxd/amxd_object.h</text>
</a>
</g>
</g>
<!-- Node3&#45;&gt;Node26 -->
<g id="edge25" class="edge">
<title>Node3&#45;&gt;Node26</title>
<path fill="none" stroke="midnightblue" d="M2665.28,-173.46C2615.9,-165.4 2493.66,-145.46 2418.49,-133.19"/>
<polygon fill="midnightblue" stroke="midnightblue" points="2418.64,-129.67 2408.21,-131.52 2417.51,-136.58 2418.64,-129.67"/>
</g>
<!-- Node27 -->
<g id="node27" class="node">
<title>Node27</title>
<g id="a_node27"><a xlink:title=" ">
<polygon fill="white" stroke="#bfbfbf" points="2433.5,-112.5 2433.5,-131.5 2538.5,-131.5 2538.5,-112.5 2433.5,-112.5"/>
<text text-anchor="middle" x="2486" y="-119.5" font-family="Helvetica,sans-Serif" font-size="10.00">amxd/amxd_dm.h</text>
</a>
</g>
</g>
<!-- Node3&#45;&gt;Node27 -->
<g id="edge26" class="edge">
<title>Node3&#45;&gt;Node27</title>
<path fill="none" stroke="midnightblue" d="M2665.49,-171.22C2632.74,-162.42 2569.77,-145.51 2527.81,-134.23"/>
<polygon fill="midnightblue" stroke="midnightblue" points="2528.46,-130.78 2517.89,-131.57 2526.64,-137.54 2528.46,-130.78"/>
</g>
<!-- Node3&#45;&gt;Node28 -->
<g id="edge27" class="edge">
<title>Node3&#45;&gt;Node28</title>
<path fill="none" stroke="midnightblue" d="M2708.69,-176.95C2838.82,-176.55 3529.32,-172.52 4103.46,-132.05"/>
<polygon fill="midnightblue" stroke="midnightblue" points="4103.88,-135.53 4113.6,-131.33 4103.38,-128.55 4103.88,-135.53"/>
</g>
<!-- Node29 -->
<g id="node29" class="node">
<title>Node29</title>
<g id="a_node29"><a xlink:title=" ">
<polygon fill="white" stroke="#bfbfbf" points="2557,-112.5 2557,-131.5 2673,-131.5 2673,-112.5 2557,-112.5"/>
<text text-anchor="middle" x="2615" y="-119.5" font-family="Helvetica,sans-Serif" font-size="10.00">amxb/amxb_types.h</text>
</a>
</g>
</g>
<!-- Node3&#45;&gt;Node29 -->
<g id="edge28" class="edge">
<title>Node3&#45;&gt;Node29</title>
<path fill="none" stroke="midnightblue" d="M2675.43,-168.32C2664.58,-160.18 2648.12,-147.84 2635.12,-138.09"/>
<polygon fill="midnightblue" stroke="midnightblue" points="2636.88,-135.03 2626.78,-131.83 2632.68,-140.63 2636.88,-135.03"/>
</g>
<!-- Node30 -->
<g id="node30" class="node">
<title>Node30</title>
<g id="a_node30"><a xlink:title=" ">
<polygon fill="white" stroke="#bfbfbf" points="2691,-112.5 2691,-131.5 2827,-131.5 2827,-112.5 2691,-112.5"/>
<text text-anchor="middle" x="2759" y="-119.5" font-family="Helvetica,sans-Serif" font-size="10.00">amxb/amxb_operators.h</text>
</a>
</g>
</g>
<!-- Node3&#45;&gt;Node30 -->
<g id="edge29" class="edge">
<title>Node3&#45;&gt;Node30</title>
<path fill="none" stroke="midnightblue" d="M2698.57,-168.32C2709.42,-160.18 2725.88,-147.84 2738.88,-138.09"/>
<polygon fill="midnightblue" stroke="midnightblue" points="2741.32,-140.63 2747.22,-131.83 2737.12,-135.03 2741.32,-140.63"/>
</g>
<!-- Node31 -->
<g id="node31" class="node">
<title>Node31</title>
<g id="a_node31"><a xlink:title=" ">
<polygon fill="white" stroke="#bfbfbf" points="2845,-112.5 2845,-131.5 2957,-131.5 2957,-112.5 2845,-112.5"/>
<text text-anchor="middle" x="2901" y="-119.5" font-family="Helvetica,sans-Serif" font-size="10.00">amxb/amxb_error.h</text>
</a>
</g>
</g>
<!-- Node3&#45;&gt;Node31 -->
<g id="edge30" class="edge">
<title>Node3&#45;&gt;Node31</title>
<path fill="none" stroke="midnightblue" d="M2708.7,-171.53C2743.37,-162.78 2811.96,-145.47 2857.15,-134.06"/>
<polygon fill="midnightblue" stroke="midnightblue" points="2858.14,-137.43 2866.98,-131.59 2856.43,-130.64 2858.14,-137.43"/>
</g>
<!-- Node32 -->
<g id="node32" class="node">
<title>Node32</title>
<g id="a_node32"><a xlink:title=" ">
<polygon fill="white" stroke="#bfbfbf" points="2975.5,-112.5 2975.5,-131.5 3058.5,-131.5 3058.5,-112.5 2975.5,-112.5"/>
<text text-anchor="middle" x="3017" y="-119.5" font-family="Helvetica,sans-Serif" font-size="10.00">amxo/amxo.h</text>
</a>
</g>
</g>
<!-- Node3&#45;&gt;Node32 -->
<g id="edge31" class="edge">
<title>Node3&#45;&gt;Node32</title>
<path fill="none" stroke="midnightblue" d="M2708.72,-173.61C2754.23,-166.48 2863.12,-149.3 2965.39,-132.08"/>
<polygon fill="midnightblue" stroke="midnightblue" points="2965.98,-135.53 2975.26,-130.42 2964.82,-128.63 2965.98,-135.53"/>
</g>
<!-- Node33 -->
<g id="node33" class="node">
<title>Node33</title>
<g id="a_node33"><a xlink:title=" ">
<polygon fill="white" stroke="#bfbfbf" points="3076.5,-112.5 3076.5,-131.5 3191.5,-131.5 3191.5,-112.5 3076.5,-112.5"/>
<text text-anchor="middle" x="3134" y="-119.5" font-family="Helvetica,sans-Serif" font-size="10.00">amxo/amxo_types.h</text>
</a>
</g>
</g>
<!-- Node3&#45;&gt;Node33 -->
<g id="edge32" class="edge">
<title>Node3&#45;&gt;Node33</title>
<path fill="none" stroke="midnightblue" d="M2708.86,-174.53C2765.75,-168.09 2923.28,-150.07 3066.01,-132.11"/>
<polygon fill="midnightblue" stroke="midnightblue" points="3066.78,-135.54 3076.26,-130.81 3065.9,-128.59 3066.78,-135.54"/>
</g>
<!-- Node34 -->
<g id="node34" class="node">
<title>Node34</title>
<g id="a_node34"><a xlink:href="wld__types_8h.html" target="_top" xlink:title=" ">
<polygon fill="white" stroke="red" points="3590.5,-56.5 3590.5,-75.5 3665.5,-75.5 3665.5,-56.5 3590.5,-56.5"/>
<text text-anchor="middle" x="3628" y="-63.5" font-family="Helvetica,sans-Serif" font-size="10.00">wld_types.h</text>
</a>
</g>
</g>
<!-- Node3&#45;&gt;Node34 -->
<g id="edge33" class="edge">
<title>Node3&#45;&gt;Node34</title>
<path fill="none" stroke="midnightblue" d="M2708.78,-176.81C2847.83,-175.51 3606.77,-166.83 3640,-132 3651.84,-119.59 3645.76,-99.5 3638.65,-84.94"/>
<polygon fill="midnightblue" stroke="midnightblue" points="3641.6,-83.04 3633.77,-75.91 3635.44,-86.37 3641.6,-83.04"/>
</g>
<!-- Node37 -->
<g id="node35" class="node">
<title>Node37</title>
<g id="a_node35"><a xlink:href="wld__channel__types_8h.html" target="_top" xlink:title=" ">
<polygon fill="white" stroke="red" points="3380.5,-112.5 3380.5,-131.5 3499.5,-131.5 3499.5,-112.5 3380.5,-112.5"/>
<text text-anchor="middle" x="3440" y="-119.5" font-family="Helvetica,sans-Serif" font-size="10.00">wld_channel_types.h</text>
</a>
</g>
</g>
<!-- Node3&#45;&gt;Node37 -->
<g id="edge36" class="edge">
<title>Node3&#45;&gt;Node37</title>
<path fill="none" stroke="midnightblue" d="M2708.73,-175.99C2793.2,-171.99 3107.82,-156.24 3366,-132 3367.3,-131.88 3368.62,-131.75 3369.95,-131.62"/>
<polygon fill="midnightblue" stroke="midnightblue" points="3370.67,-135.06 3380.26,-130.55 3369.95,-128.1 3370.67,-135.06"/>
</g>
<!-- Node39 -->
<g id="node36" class="node">
<title>Node39</title>
<g id="a_node36"><a xlink:href="wld__bgdfs_8h.html" target="_top" xlink:title=" ">
<polygon fill="white" stroke="black" points="3556.5,-112.5 3556.5,-131.5 3631.5,-131.5 3631.5,-112.5 3556.5,-112.5"/>
<text text-anchor="middle" x="3594" y="-119.5" font-family="Helvetica,sans-Serif" font-size="10.00">wld_bgdfs.h</text>
</a>
</g>
</g>
<!-- Node3&#45;&gt;Node39 -->
<g id="edge39" class="edge">
<title>Node3&#45;&gt;Node39</title>
<path fill="none" stroke="midnightblue" d="M2708.55,-176.81C2805.58,-175.74 3211.49,-169.17 3542,-132 3543.31,-131.85 3544.63,-131.69 3545.96,-131.53"/>
<polygon fill="midnightblue" stroke="midnightblue" points="3546.89,-134.93 3556.3,-130.07 3545.91,-128 3546.89,-134.93"/>
</g>
<!-- Node40 -->
<g id="node37" class="node">
<title>Node40</title>
<g id="a_node37"><a xlink:href="wld__rad__delayMgr_8h.html" target="_top" xlink:title=" ">
<polygon fill="white" stroke="black" points="3210,-112.5 3210,-131.5 3324,-131.5 3324,-112.5 3210,-112.5"/>
<text text-anchor="middle" x="3267" y="-119.5" font-family="Helvetica,sans-Serif" font-size="10.00">wld_rad_delayMgr.h</text>
</a>
</g>
</g>
<!-- Node3&#45;&gt;Node40 -->
<g id="edge41" class="edge">
<title>Node3&#45;&gt;Node40</title>
<path fill="none" stroke="midnightblue" d="M2708.63,-175.17C2778.73,-169.72 3004.4,-152.71 3191,-132 3193.84,-131.68 3196.75,-131.35 3199.7,-131"/>
<polygon fill="midnightblue" stroke="midnightblue" points="3200.3,-134.45 3209.8,-129.75 3199.45,-127.5 3200.3,-134.45"/>
</g>
<!-- Node3&#45;&gt;Node49 -->
<g id="edge43" class="edge">
<title>Node3&#45;&gt;Node49</title>
<path fill="none" stroke="midnightblue" d="M2708.52,-176.76C2872.19,-174.87 3923.19,-161.76 4266.14,-131.92"/>
<polygon fill="midnightblue" stroke="midnightblue" points="4266.67,-135.38 4276.32,-131.01 4266.05,-128.41 4266.67,-135.38"/>
</g>
<!-- Node3&#45;&gt;Node54 -->
<g id="edge44" class="edge">
<title>Node3&#45;&gt;Node54</title>
<path fill="none" stroke="midnightblue" d="M2708.69,-176.76C2879.72,-174.84 4013.6,-161.17 4381.11,-131.94"/>
<polygon fill="midnightblue" stroke="midnightblue" points="4381.55,-135.42 4391.23,-131.12 4380.98,-128.44 4381.55,-135.42"/>
</g>
<!-- Node34&#45;&gt;Node5 -->
<g id="edge34" class="edge">
<title>Node34&#45;&gt;Node5</title>
<path fill="none" stroke="midnightblue" d="M3633.78,-56.08C3638.67,-48.53 3645.83,-37.49 3651.83,-28.23"/>
<polygon fill="midnightblue" stroke="midnightblue" points="3654.83,-30.05 3657.33,-19.75 3648.95,-26.24 3654.83,-30.05"/>
</g>
<!-- Node34&#45;&gt;Node10 -->
<g id="edge35" class="edge">
<title>Node34&#45;&gt;Node10</title>
<path fill="none" stroke="midnightblue" d="M3611.93,-56.32C3596.04,-47.74 3571.49,-34.49 3553.04,-24.52"/>
<polygon fill="midnightblue" stroke="midnightblue" points="3554.49,-21.33 3544.03,-19.65 3551.16,-27.49 3554.49,-21.33"/>
</g>
<!-- Node37&#45;&gt;Node4 -->
<g id="edge37" class="edge">
<title>Node37&#45;&gt;Node4</title>
<path fill="none" stroke="midnightblue" d="M3429.07,-112.32C3418.83,-104.18 3403.28,-91.84 3391,-82.09"/>
<polygon fill="midnightblue" stroke="midnightblue" points="3393.13,-79.31 3383.12,-75.83 3388.78,-84.79 3393.13,-79.31"/>
</g>
<!-- Node37&#45;&gt;Node10 -->
<g id="edge38" class="edge">
<title>Node37&#45;&gt;Node10</title>
<path fill="none" stroke="midnightblue" d="M3446.91,-112.37C3461.49,-94.14 3495.66,-51.43 3514.66,-27.68"/>
<polygon fill="midnightblue" stroke="midnightblue" points="3517.61,-29.59 3521.13,-19.59 3512.15,-25.21 3517.61,-29.59"/>
</g>
<!-- Node39&#45;&gt;Node34 -->
<g id="edge40" class="edge">
<title>Node39&#45;&gt;Node34</title>
<path fill="none" stroke="midnightblue" d="M3599.61,-112.08C3604.37,-104.53 3611.32,-93.49 3617.15,-84.23"/>
<polygon fill="midnightblue" stroke="midnightblue" points="3620.12,-86.08 3622.49,-75.75 3614.2,-82.35 3620.12,-86.08"/>
</g>
<!-- Node40&#45;&gt;Node3 -->
<g id="edge42" class="edge">
<title>Node40&#45;&gt;Node3</title>
<path fill="none" stroke="midnightblue" d="M3213.24,-131.52C3211.82,-131.68 3210.4,-131.84 3209,-132 3024.04,-152.52 2800.7,-169.42 2718.84,-175.02"/>
<polygon fill="midnightblue" stroke="midnightblue" points="2718.43,-171.54 2708.69,-175.71 2718.9,-178.53 2718.43,-171.54"/>
</g>
<!-- Node63 -->
<g id="node50" class="node">
<title>Node63</title>
<g id="a_node50"><a xlink:title=" ">
<polygon fill="white" stroke="#bfbfbf" points="5293,-168.5 5293,-187.5 5393,-187.5 5393,-168.5 5293,-168.5"/>
<text text-anchor="middle" x="5343" y="-175.5" font-family="Helvetica,sans-Serif" font-size="10.00">swla/swla_mac.h</text>
</a>
</g>
</g>
<!-- Node85&#45;&gt;Node63 -->
<g id="edge58" class="edge">
<title>Node85&#45;&gt;Node63</title>
<path fill="none" stroke="midnightblue" d="M5343,-224.08C5343,-217.01 5343,-206.86 5343,-197.99"/>
<polygon fill="midnightblue" stroke="midnightblue" points="5346.5,-197.75 5343,-187.75 5339.5,-197.75 5346.5,-197.75"/>
</g>
</g>
</svg>
