<?xml version="1.0" encoding="UTF-8" standalone="no"?>
<!DOCTYPE svg PUBLIC "-//W3C//DTD SVG 1.1//EN"
 "http://www.w3.org/Graphics/SVG/1.1/DTD/svg11.dtd">
<!-- Generated by graphviz version 2.43.0 (0)
 -->
<!-- Title: wld_secDmn_isAlive Pages: 1 -->
<svg width="681pt" height="148pt"
 viewBox="0.00 0.00 681.00 147.50" xmlns="http://www.w3.org/2000/svg" xmlns:xlink="http://www.w3.org/1999/xlink">
<g id="graph0" class="graph" transform="scale(1 1) rotate(0) translate(4 143.5)">
<title>wld_secDmn_isAlive</title>
<polygon fill="white" stroke="transparent" points="-4,4 -4,-143.5 677,-143.5 677,4 -4,4"/>
<!-- Node1 -->
<g id="node1" class="node">
<title>Node1</title>
<g id="a_node1"><a xlink:title=" ">
<polygon fill="#bfbfbf" stroke="black" points="0,-63 0,-82 117,-82 117,-63 0,-63"/>
<text text-anchor="middle" x="58.5" y="-70" font-family="Helvetica,sans-Serif" font-size="10.00">wld_secDmn_isAlive</text>
</a>
</g>
</g>
<!-- Node2 -->
<g id="node2" class="node">
<title>Node2</title>
<g id="a_node2"><a xlink:href="wld__secDmn_8c.html#a1b0cc11a41a11e2033f3188fd05a0d80" target="_top" xlink:title=" ">
<polygon fill="white" stroke="black" points="170.5,-120 170.5,-139 320.5,-139 320.5,-120 170.5,-120"/>
<text text-anchor="middle" x="245.5" y="-127" font-family="Helvetica,sans-Serif" font-size="10.00">wld_secDmn_isGrpMember</text>
</a>
</g>
</g>
<!-- Node1&#45;&gt;Node2 -->
<g id="edge1" class="edge">
<title>Node1&#45;&gt;Node2</title>
<path fill="none" stroke="midnightblue" d="M84.71,-82.04C103.42,-88.96 129.63,-98.33 153,-105.5 166.64,-109.69 181.57,-113.8 195.33,-117.4"/>
<polygon fill="midnightblue" stroke="midnightblue" points="194.56,-120.82 205.12,-119.93 196.31,-114.04 194.56,-120.82"/>
</g>
<!-- Node4 -->
<g id="node4" class="node">
<title>Node4</title>
<g id="a_node4"><a xlink:href="wld__secDmn_8c.html#ad8ebf9f869b635102d27d9a476e4d9eb" target="_top" xlink:title=" ">
<polygon fill="white" stroke="black" points="379.5,-66 379.5,-85 511.5,-85 511.5,-66 379.5,-66"/>
<text text-anchor="middle" x="445.5" y="-73" font-family="Helvetica,sans-Serif" font-size="10.00">wld_secDmn_isRunning</text>
</a>
</g>
</g>
<!-- Node1&#45;&gt;Node4 -->
<g id="edge3" class="edge">
<title>Node1&#45;&gt;Node4</title>
<path fill="none" stroke="midnightblue" d="M117.14,-72.95C184.25,-73.47 295.32,-74.34 369.21,-74.91"/>
<polygon fill="midnightblue" stroke="midnightblue" points="369.35,-78.41 379.38,-74.99 369.4,-71.41 369.35,-78.41"/>
</g>
<!-- Node6 -->
<g id="node6" class="node">
<title>Node6</title>
<g id="a_node6"><a xlink:href="wld__secDmnGrp_8c.html#ac68764d14b9f77537e29250cae786daf" target="_top" xlink:title=" ">
<polygon fill="white" stroke="black" points="153,-44 153,-63 338,-63 338,-44 153,-44"/>
<text text-anchor="middle" x="245.5" y="-51" font-family="Helvetica,sans-Serif" font-size="10.00">wld_secDmnGrp_isMemberStarted</text>
</a>
</g>
</g>
<!-- Node1&#45;&gt;Node6 -->
<g id="edge5" class="edge">
<title>Node1&#45;&gt;Node6</title>
<path fill="none" stroke="midnightblue" d="M117.02,-66.59C125.27,-65.75 133.95,-64.85 142.74,-63.95"/>
<polygon fill="midnightblue" stroke="midnightblue" points="143.11,-67.43 152.7,-62.93 142.4,-60.47 143.11,-67.43"/>
</g>
<!-- Node7 -->
<g id="node7" class="node">
<title>Node7</title>
<g id="a_node7"><a xlink:href="wld__wpaCtrlMngr_8c.html#ad3e7ad2284a85ee77e110a90f0fd34ae" target="_top" xlink:title="check that wpaCtrl manager is connected: i.e can receive events from its main interface.">
<polygon fill="white" stroke="black" points="162,-6 162,-25 329,-25 329,-6 162,-6"/>
<text text-anchor="middle" x="245.5" y="-13" font-family="Helvetica,sans-Serif" font-size="10.00">wld_wpaCtrlMngr_isConnected</text>
</a>
</g>
</g>
<!-- Node1&#45;&gt;Node7 -->
<g id="edge6" class="edge">
<title>Node1&#45;&gt;Node7</title>
<path fill="none" stroke="midnightblue" d="M79.91,-62.95C98.59,-54.51 127.18,-42.36 153,-34.5 161.78,-31.83 171.14,-29.41 180.4,-27.26"/>
<polygon fill="midnightblue" stroke="midnightblue" points="181.38,-30.63 190.38,-25.04 179.86,-23.8 181.38,-30.63"/>
</g>
<!-- Node3 -->
<g id="node3" class="node">
<title>Node3</title>
<g id="a_node3"><a xlink:href="wld__secDmnGrp_8c.html#ae5da21db2381b2d5a1f16df5d388d5df" target="_top" xlink:title=" ">
<polygon fill="white" stroke="black" points="376.5,-120 376.5,-139 514.5,-139 514.5,-120 376.5,-120"/>
<text text-anchor="middle" x="445.5" y="-127" font-family="Helvetica,sans-Serif" font-size="10.00">wld_secDmnGrp_getProc</text>
</a>
</g>
</g>
<!-- Node2&#45;&gt;Node3 -->
<g id="edge2" class="edge">
<title>Node2&#45;&gt;Node3</title>
<path fill="none" stroke="midnightblue" d="M320.51,-129.5C335.41,-129.5 351.13,-129.5 366.17,-129.5"/>
<polygon fill="midnightblue" stroke="midnightblue" points="366.46,-133 376.46,-129.5 366.46,-126 366.46,-133"/>
</g>
<!-- Node5 -->
<g id="node5" class="node">
<title>Node5</title>
<g id="a_node5"><a xlink:href="wld__daemon_8c.html#a6ba98a859d038541e1c2ee48d8566547" target="_top" xlink:title=" ">
<polygon fill="white" stroke="black" points="556,-66 556,-85 670,-85 670,-66 556,-66"/>
<text text-anchor="middle" x="613" y="-73" font-family="Helvetica,sans-Serif" font-size="10.00">wld_dmn_isRunning</text>
</a>
</g>
</g>
<!-- Node4&#45;&gt;Node5 -->
<g id="edge4" class="edge">
<title>Node4&#45;&gt;Node5</title>
<path fill="none" stroke="midnightblue" d="M511.91,-75.5C523.05,-75.5 534.62,-75.5 545.78,-75.5"/>
<polygon fill="midnightblue" stroke="midnightblue" points="545.89,-79 555.89,-75.5 545.89,-72 545.89,-79"/>
</g>
<!-- Node7&#45;&gt;Node4 -->
<g id="edge7" class="edge">
<title>Node7&#45;&gt;Node4</title>
<path fill="none" stroke="midnightblue" d="M299.6,-25C312.28,-27.69 325.7,-30.88 338,-34.5 363.93,-42.13 392.46,-53.27 413.46,-62.01"/>
<polygon fill="midnightblue" stroke="midnightblue" points="412.26,-65.3 422.83,-65.96 414.98,-58.85 412.26,-65.3"/>
</g>
<!-- Node8 -->
<g id="node8" class="node">
<title>Node8</title>
<g id="a_node8"><a xlink:href="wld__wpaCtrlMngr_8c.html#a3dc93dfda0d67c0e7254cc1ffeeb3ebe" target="_top" xlink:title=" ">
<polygon fill="white" stroke="black" points="374,-0.5 374,-30.5 517,-30.5 517,-0.5 374,-0.5"/>
<text text-anchor="start" x="382" y="-18.5" font-family="Helvetica,sans-Serif" font-size="10.00">wld_wpaCtrlMngr_getFirst</text>
<text text-anchor="middle" x="445.5" y="-7.5" font-family="Helvetica,sans-Serif" font-size="10.00">ReadyInterface</text>
</a>
</g>
</g>
<!-- Node7&#45;&gt;Node8 -->
<g id="edge8" class="edge">
<title>Node7&#45;&gt;Node8</title>
<path fill="none" stroke="midnightblue" d="M329.04,-15.5C340.41,-15.5 352.08,-15.5 363.43,-15.5"/>
<polygon fill="midnightblue" stroke="midnightblue" points="363.74,-19 373.74,-15.5 363.74,-12 363.74,-19"/>
</g>
<!-- Node9 -->
<g id="node9" class="node">
<title>Node9</title>
<g id="a_node9"><a xlink:href="wld__wpaCtrlInterface_8c.html#a8b38bc9ca95b60e002d38cdb1374d1d0" target="_top" xlink:title=" ">
<polygon fill="white" stroke="black" points="553,-0.5 553,-30.5 673,-30.5 673,-0.5 553,-0.5"/>
<text text-anchor="start" x="561" y="-18.5" font-family="Helvetica,sans-Serif" font-size="10.00">wld_wpaCtrlInterface</text>
<text text-anchor="middle" x="613" y="-7.5" font-family="Helvetica,sans-Serif" font-size="10.00">_isReady</text>
</a>
</g>
</g>
<!-- Node8&#45;&gt;Node9 -->
<g id="edge9" class="edge">
<title>Node8&#45;&gt;Node9</title>
<path fill="none" stroke="midnightblue" d="M517.17,-15.5C525.6,-15.5 534.2,-15.5 542.62,-15.5"/>
<polygon fill="midnightblue" stroke="midnightblue" points="542.76,-19 552.76,-15.5 542.76,-12 542.76,-19"/>
</g>
</g>
</svg>
