<?xml version="1.0" encoding="UTF-8" standalone="no"?>
<!DOCTYPE svg PUBLIC "-//W3C//DTD SVG 1.1//EN"
 "http://www.w3.org/Graphics/SVG/1.1/DTD/svg11.dtd">
<!-- Generated by graphviz version 2.43.0 (0)
 -->
<!-- Title: wld_rad_is_24ghz Pages: 1 -->
<svg width="513pt" height="102pt"
 viewBox="0.00 0.00 513.00 101.50" xmlns="http://www.w3.org/2000/svg" xmlns:xlink="http://www.w3.org/1999/xlink">
<g id="graph0" class="graph" transform="scale(1 1) rotate(0) translate(4 97.5)">
<title>wld_rad_is_24ghz</title>
<polygon fill="white" stroke="transparent" points="-4,4 -4,-97.5 509,-97.5 509,4 -4,4"/>
<!-- Node1 -->
<g id="node1" class="node">
<title>Node1</title>
<g id="a_node1"><a xlink:title=" ">
<polygon fill="#bfbfbf" stroke="black" points="402,-43.5 402,-62.5 505,-62.5 505,-43.5 402,-43.5"/>
<text text-anchor="middle" x="453.5" y="-50.5" font-family="Helvetica,sans-Serif" font-size="10.00">wld_rad_is_24ghz</text>
</a>
</g>
</g>
<!-- Node2 -->
<g id="node2" class="node">
<title>Node2</title>
<g id="a_node2"><a xlink:href="wld__radio_8c.html#acc9ef3aa6f6596061e23d0944dd2bb35" target="_top" xlink:title=" ">
<polygon fill="white" stroke="black" points="214,-63 214,-93 366,-93 366,-63 214,-63"/>
<text text-anchor="start" x="222" y="-81" font-family="Helvetica,sans-Serif" font-size="10.00">_wld_rad_validatePreamble</text>
<text text-anchor="middle" x="290" y="-70" font-family="Helvetica,sans-Serif" font-size="10.00">Type_pvf</text>
</a>
</g>
</g>
<!-- Node1&#45;&gt;Node2 -->
<g id="edge1" class="edge">
<title>Node1&#45;&gt;Node2</title>
<path fill="none" stroke="midnightblue" d="M391.77,-62.4C383.36,-63.7 374.65,-65.05 366.02,-66.39"/>
<polygon fill="midnightblue" stroke="midnightblue" points="392.5,-65.83 401.84,-60.84 391.43,-58.91 392.5,-65.83"/>
</g>
<!-- Node3 -->
<g id="node3" class="node">
<title>Node3</title>
<g id="a_node3"><a xlink:href="wld__hostapd__cfgFile_8c.html#aa4ef0964a05f5b4f72d9c4b2f9046aa4" target="_top" xlink:title="set the radio parameters">
<polygon fill="white" stroke="black" points="232,-14 232,-44 348,-44 348,-14 232,-14"/>
<text text-anchor="start" x="240" y="-32" font-family="Helvetica,sans-Serif" font-size="10.00">wld_hostapd_cfgFile</text>
<text text-anchor="middle" x="290" y="-21" font-family="Helvetica,sans-Serif" font-size="10.00">_setRadioConfig</text>
</a>
</g>
</g>
<!-- Node1&#45;&gt;Node3 -->
<g id="edge2" class="edge">
<title>Node1&#45;&gt;Node3</title>
<path fill="none" stroke="midnightblue" d="M391.66,-43.96C377.42,-41.84 362.3,-39.6 348.23,-37.5"/>
<polygon fill="midnightblue" stroke="midnightblue" points="391.44,-47.46 401.84,-45.47 392.47,-40.54 391.44,-47.46"/>
</g>
<!-- Node4 -->
<g id="node4" class="node">
<title>Node4</title>
<g id="a_node4"><a xlink:href="wld__rad__hostapd__api_8c.html#aea42b1d7acee5d51484de01cac65c983" target="_top" xlink:title="set main interface channel parameters">
<polygon fill="white" stroke="black" points="9.5,-38.5 9.5,-57.5 168.5,-57.5 168.5,-38.5 9.5,-38.5"/>
<text text-anchor="middle" x="89" y="-45.5" font-family="Helvetica,sans-Serif" font-size="10.00">wld_rad_hostapd_setChannel</text>
</a>
</g>
</g>
<!-- Node3&#45;&gt;Node4 -->
<g id="edge3" class="edge">
<title>Node3&#45;&gt;Node4</title>
<path fill="none" stroke="midnightblue" d="M221.57,-35.44C204.52,-37.07 186.08,-38.83 168.54,-40.5"/>
<polygon fill="midnightblue" stroke="midnightblue" points="222.35,-38.88 231.97,-34.44 221.69,-31.91 222.35,-38.88"/>
</g>
<!-- Node5 -->
<g id="node5" class="node">
<title>Node5</title>
<g id="a_node5"><a xlink:href="wld__rad__hostapd__api_8c.html#a5411827e8b4ab433c4f62efe4dee6b5e" target="_top" xlink:title=" ">
<polygon fill="white" stroke="black" points="0,-0.5 0,-19.5 178,-19.5 178,-0.5 0,-0.5"/>
<text text-anchor="middle" x="89" y="-7.5" font-family="Helvetica,sans-Serif" font-size="10.00">wld_rad_hostapd_setMiscParams</text>
</a>
</g>
</g>
<!-- Node3&#45;&gt;Node5 -->
<g id="edge4" class="edge">
<title>Node3&#45;&gt;Node5</title>
<path fill="none" stroke="midnightblue" d="M221.94,-22.6C207.9,-21.26 192.89,-19.82 178.22,-18.42"/>
<polygon fill="midnightblue" stroke="midnightblue" points="221.69,-26.09 231.97,-23.56 222.35,-19.12 221.69,-26.09"/>
</g>
</g>
</svg>
