<?xml version="1.0" encoding="UTF-8" standalone="no"?>
<!DOCTYPE svg PUBLIC "-//W3C//DTD SVG 1.1//EN"
 "http://www.w3.org/Graphics/SVG/1.1/DTD/svg11.dtd">
<!-- Generated by graphviz version 2.43.0 (0)
 -->
<!-- Title: wld_nl80211_getSurveyInfoExt Pages: 1 -->
<svg width="751pt" height="85pt"
 viewBox="0.00 0.00 751.00 85.00" xmlns="http://www.w3.org/2000/svg" xmlns:xlink="http://www.w3.org/1999/xlink">
<g id="graph0" class="graph" transform="scale(1 1) rotate(0) translate(4 81)">
<title>wld_nl80211_getSurveyInfoExt</title>
<polygon fill="white" stroke="transparent" points="-4,4 -4,-81 747,-81 747,4 -4,4"/>
<!-- Node1 -->
<g id="node1" class="node">
<title>Node1</title>
<g id="a_node1"><a xlink:title=" ">
<polygon fill="#bfbfbf" stroke="black" points="576,-38.5 576,-57.5 743,-57.5 743,-38.5 576,-38.5"/>
<text text-anchor="middle" x="659.5" y="-45.5" font-family="Helvetica,sans-Serif" font-size="10.00">wld_nl80211_getSurveyInfoExt</text>
</a>
</g>
</g>
<!-- Node2 -->
<g id="node2" class="node">
<title>Node2</title>
<g id="a_node2"><a xlink:href="wld__nl80211__api_8c.html#a1dc4224cc8abbd498c2ac50c53d34645" target="_top" xlink:title=" ">
<polygon fill="white" stroke="black" points="377.5,-57.5 377.5,-76.5 529.5,-76.5 529.5,-57.5 377.5,-57.5"/>
<text text-anchor="middle" x="453.5" y="-64.5" font-family="Helvetica,sans-Serif" font-size="10.00">wld_nl80211_getSurveyInfo</text>
</a>
</g>
</g>
<!-- Node1&#45;&gt;Node2 -->
<g id="edge1" class="edge">
<title>Node1&#45;&gt;Node2</title>
<path fill="none" stroke="midnightblue" d="M565.75,-56.64C553.69,-57.76 541.46,-58.9 529.73,-59.99"/>
<polygon fill="midnightblue" stroke="midnightblue" points="566.19,-60.11 575.82,-55.7 565.54,-53.14 566.19,-60.11"/>
</g>
<!-- Node3 -->
<g id="node3" class="node">
<title>Node3</title>
<g id="a_node3"><a xlink:href="wld__rad__nl80211_8c.html#a7d0b85b6f05fd1c5379f8f5b07e648ef" target="_top" xlink:title=" ">
<polygon fill="white" stroke="black" points="367,-19.5 367,-38.5 540,-38.5 540,-19.5 367,-19.5"/>
<text text-anchor="middle" x="453.5" y="-26.5" font-family="Helvetica,sans-Serif" font-size="10.00">wld_rad_nl80211_getSurveyInfo</text>
</a>
</g>
</g>
<!-- Node1&#45;&gt;Node3 -->
<g id="edge2" class="edge">
<title>Node1&#45;&gt;Node3</title>
<path fill="none" stroke="midnightblue" d="M565.59,-39.35C557.16,-38.56 548.65,-37.77 540.29,-36.99"/>
<polygon fill="midnightblue" stroke="midnightblue" points="565.54,-42.86 575.82,-40.3 566.19,-35.89 565.54,-42.86"/>
</g>
<!-- Node4 -->
<g id="node4" class="node">
<title>Node4</title>
<g id="a_node4"><a xlink:href="wifiGen__rad_8c.html#a63ca0312efb1460f235020f8d8fbf442" target="_top" xlink:title=" ">
<polygon fill="white" stroke="black" points="170,-38.5 170,-57.5 331,-57.5 331,-38.5 170,-38.5"/>
<text text-anchor="middle" x="250.5" y="-45.5" font-family="Helvetica,sans-Serif" font-size="10.00">wifiGen_rad_getSpectrumInfo</text>
</a>
</g>
</g>
<!-- Node3&#45;&gt;Node4 -->
<g id="edge3" class="edge">
<title>Node3&#45;&gt;Node4</title>
<path fill="none" stroke="midnightblue" d="M356.91,-38.04C348.31,-38.85 339.66,-39.67 331.21,-40.46"/>
<polygon fill="midnightblue" stroke="midnightblue" points="357.34,-41.51 366.97,-37.09 356.68,-34.54 357.34,-41.51"/>
</g>
<!-- Node5 -->
<g id="node5" class="node">
<title>Node5</title>
<g id="a_node5"><a xlink:href="wld__rad__nl80211_8c.html#a6fe347344e38456f156665255d93b4a0" target="_top" xlink:title=" ">
<polygon fill="white" stroke="black" points="171.5,-0.5 171.5,-19.5 329.5,-19.5 329.5,-0.5 171.5,-0.5"/>
<text text-anchor="middle" x="250.5" y="-7.5" font-family="Helvetica,sans-Serif" font-size="10.00">wld_rad_nl80211_getAirstats</text>
</a>
</g>
</g>
<!-- Node3&#45;&gt;Node5 -->
<g id="edge4" class="edge">
<title>Node3&#45;&gt;Node5</title>
<path fill="none" stroke="midnightblue" d="M356.75,-19.95C347.66,-19.09 338.52,-18.23 329.63,-17.39"/>
<polygon fill="midnightblue" stroke="midnightblue" points="356.68,-23.46 366.97,-20.91 357.34,-16.49 356.68,-23.46"/>
</g>
<!-- Node6 -->
<g id="node6" class="node">
<title>Node6</title>
<g id="a_node6"><a xlink:href="wifiGen__rad_8c.html#a04fa8e5a56b65287842c1484c0804faf" target="_top" xlink:title=" ">
<polygon fill="white" stroke="black" points="0,-0.5 0,-19.5 134,-19.5 134,-0.5 0,-0.5"/>
<text text-anchor="middle" x="67" y="-7.5" font-family="Helvetica,sans-Serif" font-size="10.00">wifiGen_rad_getAirStats</text>
</a>
</g>
</g>
<!-- Node5&#45;&gt;Node6 -->
<g id="edge5" class="edge">
<title>Node5&#45;&gt;Node6</title>
<path fill="none" stroke="midnightblue" d="M161.25,-10C152.17,-10 143.06,-10 134.27,-10"/>
<polygon fill="midnightblue" stroke="midnightblue" points="161.47,-13.5 171.47,-10 161.47,-6.5 161.47,-13.5"/>
</g>
</g>
</svg>
