<?xml version="1.0" encoding="UTF-8" standalone="no"?>
<!DOCTYPE svg PUBLIC "-//W3C//DTD SVG 1.1//EN"
 "http://www.w3.org/Graphics/SVG/1.1/DTD/svg11.dtd">
<!-- Generated by graphviz version 2.43.0 (0)
 -->
<!-- Title: wld_scan_done Pages: 1 -->
<svg width="287pt" height="66pt"
 viewBox="0.00 0.00 287.00 66.00" xmlns="http://www.w3.org/2000/svg" xmlns:xlink="http://www.w3.org/1999/xlink">
<g id="graph0" class="graph" transform="scale(1 1) rotate(0) translate(4 62)">
<title>wld_scan_done</title>
<polygon fill="white" stroke="transparent" points="-4,4 -4,-62 283,-62 283,4 -4,4"/>
<!-- Node1 -->
<g id="node1" class="node">
<title>Node1</title>
<g id="a_node1"><a xlink:title=" ">
<polygon fill="#bfbfbf" stroke="black" points="0,-19.5 0,-38.5 91,-38.5 91,-19.5 0,-19.5"/>
<text text-anchor="middle" x="45.5" y="-26.5" font-family="Helvetica,sans-Serif" font-size="10.00">wld_scan_done</text>
</a>
</g>
</g>
<!-- Node2 -->
<g id="node2" class="node">
<title>Node2</title>
<g id="a_node2"><a xlink:href="wld__rad__scan_8c.html#ad6781577fe655f3a8b66605574fc5cfa" target="_top" xlink:title=" ">
<polygon fill="white" stroke="black" points="127,-38.5 127,-57.5 279,-57.5 279,-38.5 127,-38.5"/>
<text text-anchor="middle" x="203" y="-45.5" font-family="Helvetica,sans-Serif" font-size="10.00">wld_getScanStatsByReason</text>
</a>
</g>
</g>
<!-- Node1&#45;&gt;Node2 -->
<g id="edge1" class="edge">
<title>Node1&#45;&gt;Node2</title>
<path fill="none" stroke="midnightblue" d="M91.06,-34.44C99.21,-35.44 107.96,-36.51 116.84,-37.59"/>
<polygon fill="midnightblue" stroke="midnightblue" points="116.55,-41.08 126.9,-38.82 117.39,-34.14 116.55,-41.08"/>
</g>
<!-- Node3 -->
<g id="node3" class="node">
<title>Node3</title>
<g id="a_node3"><a xlink:href="wld__rad__scan_8c.html#ae8ebf96ddd41708734ca65371c20757c" target="_top" xlink:title=" ">
<polygon fill="white" stroke="black" points="145.5,-0.5 145.5,-19.5 260.5,-19.5 260.5,-0.5 145.5,-0.5"/>
<text text-anchor="middle" x="203" y="-7.5" font-family="Helvetica,sans-Serif" font-size="10.00">wld_scan_isRunning</text>
</a>
</g>
</g>
<!-- Node1&#45;&gt;Node3 -->
<g id="edge2" class="edge">
<title>Node1&#45;&gt;Node3</title>
<path fill="none" stroke="midnightblue" d="M91.06,-23.56C104.77,-21.88 120.17,-20 135.04,-18.18"/>
<polygon fill="midnightblue" stroke="midnightblue" points="135.72,-21.63 145.22,-16.94 134.87,-14.68 135.72,-21.63"/>
</g>
</g>
</svg>
