<?xml version="1.0" encoding="UTF-8" standalone="no"?>
<!DOCTYPE svg PUBLIC "-//W3C//DTD SVG 1.1//EN"
 "http://www.w3.org/Graphics/SVG/1.1/DTD/svg11.dtd">
<!-- Generated by graphviz version 2.43.0 (0)
 -->
<!-- Title: include/wld/wld_radioOperatingStandards.h Pages: 1 -->
<svg width="5636pt" height="263pt"
 viewBox="0.00 0.00 5636.23 263.00" xmlns="http://www.w3.org/2000/svg" xmlns:xlink="http://www.w3.org/1999/xlink">
<g id="graph0" class="graph" transform="scale(1 1) rotate(0) translate(4 259)">
<title>include/wld/wld_radioOperatingStandards.h</title>
<polygon fill="white" stroke="transparent" points="-4,4 -4,-259 5632.23,-259 5632.23,4 -4,4"/>
<!-- Node1 -->
<g id="node1" class="node">
<title>Node1</title>
<g id="a_node1"><a xlink:title=" ">
<polygon fill="#bfbfbf" stroke="black" points="8.47,-224.5 8.47,-254.5 178.47,-254.5 178.47,-224.5 8.47,-224.5"/>
<text text-anchor="start" x="16.47" y="-242.5" font-family="Helvetica,sans-Serif" font-size="10.00">include/wld/wld_radioOperating</text>
<text text-anchor="middle" x="93.47" y="-231.5" font-family="Helvetica,sans-Serif" font-size="10.00">Standards.h</text>
</a>
</g>
</g>
<!-- Node2 -->
<g id="node2" class="node">
<title>Node2</title>
<g id="a_node2"><a xlink:title=" ">
<polygon fill="white" stroke="#bfbfbf" points="139.47,-56.5 139.47,-75.5 201.47,-75.5 201.47,-56.5 139.47,-56.5"/>
<text text-anchor="middle" x="170.47" y="-63.5" font-family="Helvetica,sans-Serif" font-size="10.00">stdbool.h</text>
</a>
</g>
</g>
<!-- Node1&#45;&gt;Node2 -->
<g id="edge1" class="edge">
<title>Node1&#45;&gt;Node2</title>
<path fill="none" stroke="midnightblue" d="M71.75,-224.47C37.68,-200.73 -21.47,-151.39 8.47,-112 23.06,-92.8 86.32,-79.64 129.33,-72.72"/>
<polygon fill="midnightblue" stroke="midnightblue" points="129.91,-76.17 139.25,-71.17 128.83,-69.25 129.91,-76.17"/>
</g>
<!-- Node3 -->
<g id="node3" class="node">
<title>Node3</title>
<g id="a_node3"><a xlink:title=" ">
<polygon fill="white" stroke="#bfbfbf" points="17.47,-112.5 17.47,-131.5 169.47,-131.5 169.47,-112.5 17.47,-112.5"/>
<text text-anchor="middle" x="93.47" y="-119.5" font-family="Helvetica,sans-Serif" font-size="10.00">swla/swla_radioStandards.h</text>
</a>
</g>
</g>
<!-- Node1&#45;&gt;Node3 -->
<g id="edge2" class="edge">
<title>Node1&#45;&gt;Node3</title>
<path fill="none" stroke="midnightblue" d="M93.47,-224.34C93.47,-203.62 93.47,-165.02 93.47,-141.9"/>
<polygon fill="midnightblue" stroke="midnightblue" points="96.97,-141.67 93.47,-131.67 89.97,-141.67 96.97,-141.67"/>
</g>
<!-- Node4 -->
<g id="node4" class="node">
<title>Node4</title>
<g id="a_node4"><a xlink:href="wld_8h.html" target="_top" xlink:title=" ">
<polygon fill="white" stroke="red" points="2538.97,-168.5 2538.97,-187.5 2581.97,-187.5 2581.97,-168.5 2538.97,-168.5"/>
<text text-anchor="middle" x="2560.47" y="-175.5" font-family="Helvetica,sans-Serif" font-size="10.00">wld.h</text>
</a>
</g>
</g>
<!-- Node1&#45;&gt;Node4 -->
<g id="edge3" class="edge">
<title>Node1&#45;&gt;Node4</title>
<path fill="none" stroke="midnightblue" d="M178.75,-236.44C580.54,-226.75 2275.82,-185.87 2528.83,-179.76"/>
<polygon fill="midnightblue" stroke="midnightblue" points="2528.92,-183.26 2538.83,-179.52 2528.75,-176.26 2528.92,-183.26"/>
</g>
<!-- Node4&#45;&gt;Node2 -->
<g id="edge4" class="edge">
<title>Node4&#45;&gt;Node2</title>
<path fill="none" stroke="midnightblue" d="M2538.92,-176.86C2306.5,-175.29 270.73,-160.74 216.47,-132 197.81,-122.12 185.04,-100.89 177.77,-85.37"/>
<polygon fill="midnightblue" stroke="midnightblue" points="180.8,-83.54 173.62,-75.75 174.37,-86.32 180.8,-83.54"/>
</g>
<!-- Node4&#45;&gt;Node3 -->
<g id="edge9" class="edge">
<title>Node4&#45;&gt;Node3</title>
<path fill="none" stroke="midnightblue" d="M2538.92,-176.83C2330.98,-175.19 677.38,-161.32 183.47,-132 182.19,-131.92 180.9,-131.84 179.6,-131.76"/>
<polygon fill="midnightblue" stroke="midnightblue" points="179.77,-128.26 169.54,-131.04 179.27,-135.24 179.77,-128.26"/>
</g>
<!-- Node5 -->
<g id="node5" class="node">
<title>Node5</title>
<g id="a_node5"><a xlink:title=" ">
<polygon fill="white" stroke="#bfbfbf" points="3337.97,-0.5 3337.97,-19.5 3390.97,-19.5 3390.97,-0.5 3337.97,-0.5"/>
<text text-anchor="middle" x="3364.47" y="-7.5" font-family="Helvetica,sans-Serif" font-size="10.00">stdint.h</text>
</a>
</g>
</g>
<!-- Node4&#45;&gt;Node5 -->
<g id="edge5" class="edge">
<title>Node4&#45;&gt;Node5</title>
<path fill="none" stroke="midnightblue" d="M2582.2,-176.89C2853.9,-175.49 5582.21,-160.67 5610.47,-132 5634.18,-107.94 5634.11,-80.12 5610.47,-56 5570.14,-14.86 3690.06,-11.33 3401.47,-11.03"/>
<polygon fill="midnightblue" stroke="midnightblue" points="3401.14,-7.53 3391.14,-11.02 3401.13,-14.53 3401.14,-7.53"/>
</g>
<!-- Node6 -->
<g id="node6" class="node">
<title>Node6</title>
<g id="a_node6"><a xlink:title=" ">
<polygon fill="white" stroke="#bfbfbf" points="497.47,-56.5 497.47,-75.5 607.47,-75.5 607.47,-56.5 497.47,-56.5"/>
<text text-anchor="middle" x="552.47" y="-63.5" font-family="Helvetica,sans-Serif" font-size="10.00">swl/swl_common.h</text>
</a>
</g>
</g>
<!-- Node4&#45;&gt;Node6 -->
<g id="edge6" class="edge">
<title>Node4&#45;&gt;Node6</title>
<path fill="none" stroke="midnightblue" d="M2538.87,-176.95C2321.96,-176.35 543.94,-170.3 506.47,-132 491.35,-116.54 511.87,-95.71 530.13,-81.84"/>
<polygon fill="midnightblue" stroke="midnightblue" points="532.67,-84.33 538.75,-75.65 528.59,-78.64 532.67,-84.33"/>
</g>
<!-- Node7 -->
<g id="node7" class="node">
<title>Node7</title>
<g id="a_node7"><a xlink:title=" ">
<polygon fill="white" stroke="#bfbfbf" points="949.47,-112.5 949.47,-131.5 1085.47,-131.5 1085.47,-112.5 949.47,-112.5"/>
<text text-anchor="middle" x="1017.47" y="-119.5" font-family="Helvetica,sans-Serif" font-size="10.00">swla/swla_commonLib.h</text>
</a>
</g>
</g>
<!-- Node4&#45;&gt;Node7 -->
<g id="edge7" class="edge">
<title>Node4&#45;&gt;Node7</title>
<path fill="none" stroke="midnightblue" d="M2538.91,-177.03C2406.57,-177.09 1690.46,-175.32 1095.93,-132.04"/>
<polygon fill="midnightblue" stroke="midnightblue" points="1096.1,-128.54 1085.87,-131.3 1095.59,-135.52 1096.1,-128.54"/>
</g>
<!-- Node8 -->
<g id="node8" class="node">
<title>Node8</title>
<g id="a_node8"><a xlink:title=" ">
<polygon fill="white" stroke="#bfbfbf" points="1103.47,-112.5 1103.47,-131.5 1191.47,-131.5 1191.47,-112.5 1103.47,-112.5"/>
<text text-anchor="middle" x="1147.47" y="-119.5" font-family="Helvetica,sans-Serif" font-size="10.00">swl/swl_uuid.h</text>
</a>
</g>
</g>
<!-- Node4&#45;&gt;Node8 -->
<g id="edge8" class="edge">
<title>Node4&#45;&gt;Node8</title>
<path fill="none" stroke="midnightblue" d="M2538.66,-176.67C2387.89,-174.36 1497.82,-159.71 1201.88,-131.84"/>
<polygon fill="midnightblue" stroke="midnightblue" points="1201.9,-128.33 1191.61,-130.84 1201.22,-135.29 1201.9,-128.33"/>
</g>
<!-- Node9 -->
<g id="node9" class="node">
<title>Node9</title>
<g id="a_node9"><a xlink:title=" ">
<polygon fill="white" stroke="#bfbfbf" points="360.97,-0.5 360.97,-19.5 461.97,-19.5 461.97,-0.5 360.97,-0.5"/>
<text text-anchor="middle" x="411.47" y="-7.5" font-family="Helvetica,sans-Serif" font-size="10.00">swla/swla_time.h</text>
</a>
</g>
</g>
<!-- Node4&#45;&gt;Node9 -->
<g id="edge10" class="edge">
<title>Node4&#45;&gt;Node9</title>
<path fill="none" stroke="midnightblue" d="M2538.65,-176.83C2319.62,-175.12 523.89,-160.24 477.47,-132 440.28,-109.37 422.61,-57.8 415.51,-29.84"/>
<polygon fill="midnightblue" stroke="midnightblue" points="418.83,-28.71 413.15,-19.77 412.02,-30.31 418.83,-28.71"/>
</g>
<!-- Node10 -->
<g id="node10" class="node">
<title>Node10</title>
<g id="a_node10"><a xlink:title=" ">
<polygon fill="white" stroke="#bfbfbf" points="1209.97,-112.5 1209.97,-131.5 1338.97,-131.5 1338.97,-112.5 1209.97,-112.5"/>
<text text-anchor="middle" x="1274.47" y="-119.5" font-family="Helvetica,sans-Serif" font-size="10.00">swla/swla_time_spec.h</text>
</a>
</g>
</g>
<!-- Node4&#45;&gt;Node10 -->
<g id="edge11" class="edge">
<title>Node4&#45;&gt;Node10</title>
<path fill="none" stroke="midnightblue" d="M2538.91,-176.87C2420.5,-176.05 1837.2,-170.17 1349.08,-131.97"/>
<polygon fill="midnightblue" stroke="midnightblue" points="1349.25,-128.47 1339.01,-131.17 1348.7,-135.45 1349.25,-128.47"/>
</g>
<!-- Node11 -->
<g id="node11" class="node">
<title>Node11</title>
<g id="a_node11"><a xlink:title=" ">
<polygon fill="white" stroke="#bfbfbf" points="1357.47,-112.5 1357.47,-131.5 1451.47,-131.5 1451.47,-112.5 1357.47,-112.5"/>
<text text-anchor="middle" x="1404.47" y="-119.5" font-family="Helvetica,sans-Serif" font-size="10.00">swla/swla_oui.h</text>
</a>
</g>
</g>
<!-- Node4&#45;&gt;Node11 -->
<g id="edge12" class="edge">
<title>Node4&#45;&gt;Node11</title>
<path fill="none" stroke="midnightblue" d="M2538.69,-177.07C2426.37,-177.21 1901.15,-175.49 1461.51,-131.97"/>
<polygon fill="midnightblue" stroke="midnightblue" points="1461.77,-128.48 1451.47,-130.97 1461.07,-135.44 1461.77,-128.48"/>
</g>
<!-- Node12 -->
<g id="node12" class="node">
<title>Node12</title>
<g id="a_node12"><a xlink:title=" ">
<polygon fill="white" stroke="#bfbfbf" points="1469.47,-112.5 1469.47,-131.5 1597.47,-131.5 1597.47,-112.5 1469.47,-112.5"/>
<text text-anchor="middle" x="1533.47" y="-119.5" font-family="Helvetica,sans-Serif" font-size="10.00">swla/swla_delayExec.h</text>
</a>
</g>
</g>
<!-- Node4&#45;&gt;Node12 -->
<g id="edge13" class="edge">
<title>Node4&#45;&gt;Node12</title>
<path fill="none" stroke="midnightblue" d="M2538.96,-176.57C2436.51,-174.41 1987.64,-163.57 1607.7,-131.94"/>
<polygon fill="midnightblue" stroke="midnightblue" points="1607.87,-128.44 1597.61,-131.1 1607.29,-135.42 1607.87,-128.44"/>
</g>
<!-- Node13 -->
<g id="node13" class="node">
<title>Node13</title>
<g id="a_node13"><a xlink:title=" ">
<polygon fill="white" stroke="#bfbfbf" points="1615.97,-112.5 1615.97,-131.5 1734.97,-131.5 1734.97,-112.5 1615.97,-112.5"/>
<text text-anchor="middle" x="1675.47" y="-119.5" font-family="Helvetica,sans-Serif" font-size="10.00">swla/swla_function.h</text>
</a>
</g>
</g>
<!-- Node4&#45;&gt;Node13 -->
<g id="edge14" class="edge">
<title>Node4&#45;&gt;Node13</title>
<path fill="none" stroke="midnightblue" d="M2538.67,-176.4C2444.98,-173.67 2067.02,-161.41 1745.26,-132"/>
<polygon fill="midnightblue" stroke="midnightblue" points="1745.56,-128.51 1735.28,-131.08 1744.91,-135.48 1745.56,-128.51"/>
</g>
<!-- Node14 -->
<g id="node14" class="node">
<title>Node14</title>
<g id="a_node14"><a xlink:title=" ">
<polygon fill="white" stroke="#bfbfbf" points="1752.97,-112.5 1752.97,-131.5 1893.97,-131.5 1893.97,-112.5 1752.97,-112.5"/>
<text text-anchor="middle" x="1823.47" y="-119.5" font-family="Helvetica,sans-Serif" font-size="10.00">swl/swl_usp_cmdStatus.h</text>
</a>
</g>
</g>
<!-- Node4&#45;&gt;Node14 -->
<g id="edge15" class="edge">
<title>Node4&#45;&gt;Node14</title>
<path fill="none" stroke="midnightblue" d="M2538.89,-175.87C2457.45,-171.51 2160.8,-155 1904.38,-132.04"/>
<polygon fill="midnightblue" stroke="midnightblue" points="1904.4,-128.53 1894.12,-131.12 1903.77,-135.5 1904.4,-128.53"/>
</g>
<!-- Node15 -->
<g id="node15" class="node">
<title>Node15</title>
<g id="a_node15"><a xlink:title=" ">
<polygon fill="white" stroke="#bfbfbf" points="1912.47,-112.5 1912.47,-131.5 1998.47,-131.5 1998.47,-112.5 1912.47,-112.5"/>
<text text-anchor="middle" x="1955.47" y="-119.5" font-family="Helvetica,sans-Serif" font-size="10.00">swl/swl_wps.h</text>
</a>
</g>
</g>
<!-- Node4&#45;&gt;Node15 -->
<g id="edge16" class="edge">
<title>Node4&#45;&gt;Node15</title>
<path fill="none" stroke="midnightblue" d="M2538.79,-175.94C2465.65,-172.22 2221.2,-158.58 2008.65,-132.04"/>
<polygon fill="midnightblue" stroke="midnightblue" points="2008.91,-128.54 1998.55,-130.77 2008.04,-135.49 2008.91,-128.54"/>
</g>
<!-- Node16 -->
<g id="node16" class="node">
<title>Node16</title>
<g id="a_node16"><a xlink:title=" ">
<polygon fill="white" stroke="#bfbfbf" points="2016.47,-112.5 2016.47,-131.5 2120.47,-131.5 2120.47,-112.5 2016.47,-112.5"/>
<text text-anchor="middle" x="2068.47" y="-119.5" font-family="Helvetica,sans-Serif" font-size="10.00">swl/swl_security.h</text>
</a>
</g>
</g>
<!-- Node4&#45;&gt;Node16 -->
<g id="edge17" class="edge">
<title>Node4&#45;&gt;Node16</title>
<path fill="none" stroke="midnightblue" d="M2538.96,-175.05C2476.03,-169.3 2286.88,-151.53 2130.47,-132 2130.37,-131.99 2130.27,-131.97 2130.16,-131.96"/>
<polygon fill="midnightblue" stroke="midnightblue" points="2130.91,-128.53 2120.54,-130.71 2130.01,-135.47 2130.91,-128.53"/>
</g>
<!-- Node17 -->
<g id="node17" class="node">
<title>Node17</title>
<g id="a_node17"><a xlink:title=" ">
<polygon fill="white" stroke="#bfbfbf" points="2138.97,-112.5 2138.97,-131.5 2221.97,-131.5 2221.97,-112.5 2138.97,-112.5"/>
<text text-anchor="middle" x="2180.47" y="-119.5" font-family="Helvetica,sans-Serif" font-size="10.00">amxc/amxc.h</text>
</a>
</g>
</g>
<!-- Node4&#45;&gt;Node17 -->
<g id="edge18" class="edge">
<title>Node4&#45;&gt;Node17</title>
<path fill="none" stroke="midnightblue" d="M2538.87,-174.34C2487.61,-167.96 2354.37,-151.03 2232.1,-132.05"/>
<polygon fill="midnightblue" stroke="midnightblue" points="2232.61,-128.58 2222.19,-130.5 2231.54,-135.5 2232.61,-128.58"/>
</g>
<!-- Node18 -->
<g id="node18" class="node">
<title>Node18</title>
<g id="a_node18"><a xlink:title=" ">
<polygon fill="white" stroke="#bfbfbf" points="2240.47,-112.5 2240.47,-131.5 2324.47,-131.5 2324.47,-112.5 2240.47,-112.5"/>
<text text-anchor="middle" x="2282.47" y="-119.5" font-family="Helvetica,sans-Serif" font-size="10.00">amxp/amxp.h</text>
</a>
</g>
</g>
<!-- Node4&#45;&gt;Node18 -->
<g id="edge19" class="edge">
<title>Node4&#45;&gt;Node18</title>
<path fill="none" stroke="midnightblue" d="M2538.65,-172.76C2495,-164.28 2395.85,-145.02 2334.49,-133.11"/>
<polygon fill="midnightblue" stroke="midnightblue" points="2335.1,-129.66 2324.61,-131.19 2333.76,-136.53 2335.1,-129.66"/>
</g>
<!-- Node19 -->
<g id="node19" class="node">
<title>Node19</title>
<g id="a_node19"><a xlink:title=" ">
<polygon fill="white" stroke="#bfbfbf" points="2342.47,-112.5 2342.47,-131.5 2482.47,-131.5 2482.47,-112.5 2342.47,-112.5"/>
<text text-anchor="middle" x="2412.47" y="-119.5" font-family="Helvetica,sans-Serif" font-size="10.00">amxd/amxd_parameter.h</text>
</a>
</g>
</g>
<!-- Node4&#45;&gt;Node19 -->
<g id="edge20" class="edge">
<title>Node4&#45;&gt;Node19</title>
<path fill="none" stroke="midnightblue" d="M2538.95,-169.15C2514.42,-160.2 2474.05,-145.47 2445.52,-135.06"/>
<polygon fill="midnightblue" stroke="midnightblue" points="2446.57,-131.72 2435.97,-131.58 2444.17,-138.29 2446.57,-131.72"/>
</g>
<!-- Node20 -->
<g id="node20" class="node">
<title>Node20</title>
<g id="a_node20"><a xlink:title=" ">
<polygon fill="white" stroke="#bfbfbf" points="2500.97,-112.5 2500.97,-131.5 2619.97,-131.5 2619.97,-112.5 2500.97,-112.5"/>
<text text-anchor="middle" x="2560.47" y="-119.5" font-family="Helvetica,sans-Serif" font-size="10.00">amxd/amxd_action.h</text>
</a>
</g>
</g>
<!-- Node4&#45;&gt;Node20 -->
<g id="edge21" class="edge">
<title>Node4&#45;&gt;Node20</title>
<path fill="none" stroke="midnightblue" d="M2560.47,-168.08C2560.47,-161.01 2560.47,-150.86 2560.47,-141.99"/>
<polygon fill="midnightblue" stroke="midnightblue" points="2563.97,-141.75 2560.47,-131.75 2556.97,-141.75 2563.97,-141.75"/>
</g>
<!-- Node21 -->
<g id="node21" class="node">
<title>Node21</title>
<g id="a_node21"><a xlink:title=" ">
<polygon fill="white" stroke="#bfbfbf" points="2637.97,-112.5 2637.97,-131.5 2812.97,-131.5 2812.97,-112.5 2637.97,-112.5"/>
<text text-anchor="middle" x="2725.47" y="-119.5" font-family="Helvetica,sans-Serif" font-size="10.00">amxd/amxd_object_parameter.h</text>
</a>
</g>
</g>
<!-- Node4&#45;&gt;Node21 -->
<g id="edge22" class="edge">
<title>Node4&#45;&gt;Node21</title>
<path fill="none" stroke="midnightblue" d="M2582.04,-169.94C2609.35,-161 2656.79,-145.48 2689.59,-134.74"/>
<polygon fill="midnightblue" stroke="midnightblue" points="2690.85,-138.01 2699.26,-131.58 2688.67,-131.36 2690.85,-138.01"/>
</g>
<!-- Node22 -->
<g id="node22" class="node">
<title>Node22</title>
<g id="a_node22"><a xlink:title=" ">
<polygon fill="white" stroke="#bfbfbf" points="2831.47,-112.5 2831.47,-131.5 2983.47,-131.5 2983.47,-112.5 2831.47,-112.5"/>
<text text-anchor="middle" x="2907.47" y="-119.5" font-family="Helvetica,sans-Serif" font-size="10.00">amxd/amxd_object_event.h</text>
</a>
</g>
</g>
<!-- Node4&#45;&gt;Node22 -->
<g id="edge23" class="edge">
<title>Node4&#45;&gt;Node22</title>
<path fill="none" stroke="midnightblue" d="M2582.17,-173.62C2633.4,-165.65 2763.44,-145.41 2842.72,-133.08"/>
<polygon fill="midnightblue" stroke="midnightblue" points="2843.26,-136.53 2852.6,-131.54 2842.19,-129.62 2843.26,-136.53"/>
</g>
<!-- Node23 -->
<g id="node23" class="node">
<title>Node23</title>
<g id="a_node23"><a xlink:title=" ">
<polygon fill="white" stroke="#bfbfbf" points="3001.97,-112.5 3001.97,-131.5 3130.97,-131.5 3130.97,-112.5 3001.97,-112.5"/>
<text text-anchor="middle" x="3066.47" y="-119.5" font-family="Helvetica,sans-Serif" font-size="10.00">amxd/amxd_function.h</text>
</a>
</g>
</g>
<!-- Node4&#45;&gt;Node23 -->
<g id="edge24" class="edge">
<title>Node4&#45;&gt;Node23</title>
<path fill="none" stroke="midnightblue" d="M2582.06,-174.88C2643.93,-168.79 2827.38,-150.53 2991.61,-132.08"/>
<polygon fill="midnightblue" stroke="midnightblue" points="2992.36,-135.52 3001.9,-130.92 2991.57,-128.56 2992.36,-135.52"/>
</g>
<!-- Node24 -->
<g id="node24" class="node">
<title>Node24</title>
<g id="a_node24"><a xlink:title=" ">
<polygon fill="white" stroke="#bfbfbf" points="3148.97,-112.5 3148.97,-131.5 3317.97,-131.5 3317.97,-112.5 3148.97,-112.5"/>
<text text-anchor="middle" x="3233.47" y="-119.5" font-family="Helvetica,sans-Serif" font-size="10.00">amxd/amxd_object_hierarchy.h</text>
</a>
</g>
</g>
<!-- Node4&#45;&gt;Node24 -->
<g id="edge25" class="edge">
<title>Node4&#45;&gt;Node24</title>
<path fill="none" stroke="midnightblue" d="M2582.07,-175.47C2657.3,-170.12 2914.94,-151.54 3138.86,-132.13"/>
<polygon fill="midnightblue" stroke="midnightblue" points="3139.17,-135.61 3148.83,-131.26 3138.56,-128.64 3139.17,-135.61"/>
</g>
<!-- Node25 -->
<g id="node25" class="node">
<title>Node25</title>
<g id="a_node25"><a xlink:title=" ">
<polygon fill="white" stroke="#bfbfbf" points="3335.97,-112.5 3335.97,-131.5 3454.97,-131.5 3454.97,-112.5 3335.97,-112.5"/>
<text text-anchor="middle" x="3395.47" y="-119.5" font-family="Helvetica,sans-Serif" font-size="10.00">amxd/amxd_object.h</text>
</a>
</g>
</g>
<!-- Node4&#45;&gt;Node25 -->
<g id="edge26" class="edge">
<title>Node4&#45;&gt;Node25</title>
<path fill="none" stroke="midnightblue" d="M2582.17,-176.31C2672.16,-173.31 3024.97,-160.38 3325.57,-132.12"/>
<polygon fill="midnightblue" stroke="midnightblue" points="3326.17,-135.58 3335.79,-131.15 3325.51,-128.61 3326.17,-135.58"/>
</g>
<!-- Node26 -->
<g id="node26" class="node">
<title>Node26</title>
<g id="a_node26"><a xlink:title=" ">
<polygon fill="white" stroke="#bfbfbf" points="3472.97,-112.5 3472.97,-131.5 3577.97,-131.5 3577.97,-112.5 3472.97,-112.5"/>
<text text-anchor="middle" x="3525.47" y="-119.5" font-family="Helvetica,sans-Serif" font-size="10.00">amxd/amxd_dm.h</text>
</a>
</g>
</g>
<!-- Node4&#45;&gt;Node26 -->
<g id="edge27" class="edge">
<title>Node4&#45;&gt;Node26</title>
<path fill="none" stroke="midnightblue" d="M2582.21,-176.69C2681.92,-175.13 3105.43,-166.71 3462.91,-132.06"/>
<polygon fill="midnightblue" stroke="midnightblue" points="3463.32,-135.54 3472.94,-131.08 3462.64,-128.57 3463.32,-135.54"/>
</g>
<!-- Node27 -->
<g id="node27" class="node">
<title>Node27</title>
<g id="a_node27"><a xlink:title=" ">
<polygon fill="white" stroke="#bfbfbf" points="3596.47,-112.5 3596.47,-131.5 3740.47,-131.5 3740.47,-112.5 3596.47,-112.5"/>
<text text-anchor="middle" x="3668.47" y="-119.5" font-family="Helvetica,sans-Serif" font-size="10.00">amxd/amxd_transaction.h</text>
</a>
</g>
</g>
<!-- Node4&#45;&gt;Node27 -->
<g id="edge28" class="edge">
<title>Node4&#45;&gt;Node27</title>
<path fill="none" stroke="midnightblue" d="M2582.18,-176.59C2689.74,-174.43 3176.27,-163.37 3585.8,-132.08"/>
<polygon fill="midnightblue" stroke="midnightblue" points="3586.37,-135.54 3596.07,-131.29 3585.83,-128.56 3586.37,-135.54"/>
</g>
<!-- Node28 -->
<g id="node28" class="node">
<title>Node28</title>
<g id="a_node28"><a xlink:title=" ">
<polygon fill="white" stroke="#bfbfbf" points="3758.47,-112.5 3758.47,-131.5 3874.47,-131.5 3874.47,-112.5 3758.47,-112.5"/>
<text text-anchor="middle" x="3816.47" y="-119.5" font-family="Helvetica,sans-Serif" font-size="10.00">amxb/amxb_types.h</text>
</a>
</g>
</g>
<!-- Node4&#45;&gt;Node28 -->
<g id="edge29" class="edge">
<title>Node4&#45;&gt;Node28</title>
<path fill="none" stroke="midnightblue" d="M2582.01,-176.95C2699.06,-176.54 3270.5,-172.49 3748.2,-132.02"/>
<polygon fill="midnightblue" stroke="midnightblue" points="3748.74,-135.48 3758.4,-131.15 3748.14,-128.51 3748.74,-135.48"/>
</g>
<!-- Node29 -->
<g id="node29" class="node">
<title>Node29</title>
<g id="a_node29"><a xlink:title=" ">
<polygon fill="white" stroke="#bfbfbf" points="3892.47,-112.5 3892.47,-131.5 4028.47,-131.5 4028.47,-112.5 3892.47,-112.5"/>
<text text-anchor="middle" x="3960.47" y="-119.5" font-family="Helvetica,sans-Serif" font-size="10.00">amxb/amxb_operators.h</text>
</a>
</g>
</g>
<!-- Node4&#45;&gt;Node29 -->
<g id="edge30" class="edge">
<title>Node4&#45;&gt;Node29</title>
<path fill="none" stroke="midnightblue" d="M2582.33,-176.93C2707.69,-176.39 3348.17,-171.76 3881.85,-132.06"/>
<polygon fill="midnightblue" stroke="midnightblue" points="3882.35,-135.53 3892.06,-131.29 3881.83,-128.55 3882.35,-135.53"/>
</g>
<!-- Node30 -->
<g id="node30" class="node">
<title>Node30</title>
<g id="a_node30"><a xlink:title=" ">
<polygon fill="white" stroke="#bfbfbf" points="4046.47,-112.5 4046.47,-131.5 4158.47,-131.5 4158.47,-112.5 4046.47,-112.5"/>
<text text-anchor="middle" x="4102.47" y="-119.5" font-family="Helvetica,sans-Serif" font-size="10.00">amxb/amxb_error.h</text>
</a>
</g>
</g>
<!-- Node4&#45;&gt;Node30 -->
<g id="edge31" class="edge">
<title>Node4&#45;&gt;Node30</title>
<path fill="none" stroke="midnightblue" d="M2582.2,-177.21C2715.62,-178.33 3437.5,-181.8 4036.01,-132.02"/>
<polygon fill="midnightblue" stroke="midnightblue" points="4036.47,-135.5 4046.14,-131.18 4035.88,-128.52 4036.47,-135.5"/>
</g>
<!-- Node31 -->
<g id="node31" class="node">
<title>Node31</title>
<g id="a_node31"><a xlink:title=" ">
<polygon fill="white" stroke="#bfbfbf" points="4176.97,-112.5 4176.97,-131.5 4259.97,-131.5 4259.97,-112.5 4176.97,-112.5"/>
<text text-anchor="middle" x="4218.47" y="-119.5" font-family="Helvetica,sans-Serif" font-size="10.00">amxo/amxo.h</text>
</a>
</g>
</g>
<!-- Node4&#45;&gt;Node31 -->
<g id="edge32" class="edge">
<title>Node4&#45;&gt;Node31</title>
<path fill="none" stroke="midnightblue" d="M2582.09,-176.83C2747.77,-175.47 3818.44,-165.53 4166.7,-131.87"/>
<polygon fill="midnightblue" stroke="midnightblue" points="4167.18,-135.34 4176.79,-130.87 4166.49,-128.37 4167.18,-135.34"/>
</g>
<!-- Node32 -->
<g id="node32" class="node">
<title>Node32</title>
<g id="a_node32"><a xlink:title=" ">
<polygon fill="white" stroke="#bfbfbf" points="4277.97,-112.5 4277.97,-131.5 4392.97,-131.5 4392.97,-112.5 4277.97,-112.5"/>
<text text-anchor="middle" x="4335.47" y="-119.5" font-family="Helvetica,sans-Serif" font-size="10.00">amxo/amxo_types.h</text>
</a>
</g>
</g>
<!-- Node4&#45;&gt;Node32 -->
<g id="edge33" class="edge">
<title>Node4&#45;&gt;Node32</title>
<path fill="none" stroke="midnightblue" d="M2582.06,-176.76C2753.55,-174.78 3897.76,-160.67 4267.73,-132.03"/>
<polygon fill="midnightblue" stroke="midnightblue" points="4268.22,-135.5 4277.92,-131.22 4267.67,-128.53 4268.22,-135.5"/>
</g>
<!-- Node33 -->
<g id="node33" class="node">
<title>Node33</title>
<g id="a_node33"><a xlink:href="wld__types_8h.html" target="_top" xlink:title=" ">
<polygon fill="white" stroke="black" points="736.97,-56.5 736.97,-75.5 811.97,-75.5 811.97,-56.5 736.97,-56.5"/>
<text text-anchor="middle" x="774.47" y="-63.5" font-family="Helvetica,sans-Serif" font-size="10.00">wld_types.h</text>
</a>
</g>
</g>
<!-- Node4&#45;&gt;Node33 -->
<g id="edge34" class="edge">
<title>Node4&#45;&gt;Node33</title>
<path fill="none" stroke="midnightblue" d="M2538.84,-176.99C2358.14,-176.85 1102.08,-174.32 940.47,-132 922.01,-127.17 919.96,-119.63 902.47,-112 872.73,-99.03 837.95,-86.99 812.15,-78.64"/>
<polygon fill="midnightblue" stroke="midnightblue" points="812.98,-75.23 802.38,-75.51 810.84,-81.89 812.98,-75.23"/>
</g>
<!-- Node34 -->
<g id="node34" class="node">
<title>Node34</title>
<g id="a_node34"><a xlink:title=" ">
<polygon fill="white" stroke="#bfbfbf" points="603.97,-0.5 603.97,-19.5 748.97,-19.5 748.97,-0.5 603.97,-0.5"/>
<text text-anchor="middle" x="676.47" y="-7.5" font-family="Helvetica,sans-Serif" font-size="10.00">swl/types/swl_arrayType.h</text>
</a>
</g>
</g>
<!-- Node4&#45;&gt;Node34 -->
<g id="edge63" class="edge">
<title>Node4&#45;&gt;Node34</title>
<path fill="none" stroke="midnightblue" d="M2538.8,-176.91C2321.28,-175.99 538.05,-167.35 497.47,-132 471.82,-109.66 467.4,-82.7 488.47,-56 501.92,-38.94 549.85,-27.63 593.94,-20.61"/>
<polygon fill="midnightblue" stroke="midnightblue" points="594.5,-24.07 603.86,-19.09 593.44,-17.15 594.5,-24.07"/>
</g>
<!-- Node35 -->
<g id="node35" class="node">
<title>Node35</title>
<g id="a_node35"><a xlink:title=" ">
<polygon fill="white" stroke="#bfbfbf" points="791.97,-0.5 791.97,-19.5 952.97,-19.5 952.97,-0.5 791.97,-0.5"/>
<text text-anchor="middle" x="872.47" y="-7.5" font-family="Helvetica,sans-Serif" font-size="10.00">swla/swla_namedTupleType.h</text>
</a>
</g>
</g>
<!-- Node4&#45;&gt;Node35 -->
<g id="edge65" class="edge">
<title>Node4&#45;&gt;Node35</title>
<path fill="none" stroke="midnightblue" d="M2582.38,-176.89C2853.5,-175.44 5549.54,-160.35 5577.47,-132 5583.71,-125.67 5583.69,-118.35 5577.47,-112 5493.65,-26.36 1609.87,-12.86 963.27,-11.2"/>
<polygon fill="midnightblue" stroke="midnightblue" points="963.09,-7.7 953.08,-11.18 963.07,-14.7 963.09,-7.7"/>
</g>
<!-- Node36 -->
<g id="node36" class="node">
<title>Node36</title>
<g id="a_node36"><a xlink:href="wld__channel__types_8h.html" target="_top" xlink:title=" ">
<polygon fill="white" stroke="black" points="225.97,-112.5 225.97,-131.5 344.97,-131.5 344.97,-112.5 225.97,-112.5"/>
<text text-anchor="middle" x="285.47" y="-119.5" font-family="Helvetica,sans-Serif" font-size="10.00">wld_channel_types.h</text>
</a>
</g>
</g>
<!-- Node4&#45;&gt;Node36 -->
<g id="edge39" class="edge">
<title>Node4&#45;&gt;Node36</title>
<path fill="none" stroke="midnightblue" d="M2538.67,-176.86C2338.36,-175.51 815.05,-164.28 359.47,-132 358.16,-131.91 356.84,-131.81 355.51,-131.7"/>
<polygon fill="midnightblue" stroke="midnightblue" points="355.46,-128.18 345.19,-130.79 354.84,-135.16 355.46,-128.18"/>
</g>
<!-- Node37 -->
<g id="node37" class="node">
<title>Node37</title>
<g id="a_node37"><a xlink:title=" ">
<polygon fill="white" stroke="#bfbfbf" points="257.97,-56.5 257.97,-75.5 382.97,-75.5 382.97,-56.5 257.97,-56.5"/>
<text text-anchor="middle" x="320.47" y="-63.5" font-family="Helvetica,sans-Serif" font-size="10.00">swla/swla_chanspec.h</text>
</a>
</g>
</g>
<!-- Node4&#45;&gt;Node37 -->
<g id="edge57" class="edge">
<title>Node4&#45;&gt;Node37</title>
<path fill="none" stroke="midnightblue" d="M2538.8,-176.96C2319.26,-176.54 503.11,-171.88 397.47,-132 371.51,-122.2 348.15,-99.59 334.15,-83.8"/>
<polygon fill="midnightblue" stroke="midnightblue" points="336.52,-81.2 327.37,-75.86 331.2,-85.74 336.52,-81.2"/>
</g>
<!-- Node38 -->
<g id="node38" class="node">
<title>Node38</title>
<g id="a_node38"><a xlink:href="wld__bgdfs_8h.html" target="_top" xlink:title=" ">
<polygon fill="white" stroke="black" points="647.97,-112.5 647.97,-131.5 722.97,-131.5 722.97,-112.5 647.97,-112.5"/>
<text text-anchor="middle" x="685.47" y="-119.5" font-family="Helvetica,sans-Serif" font-size="10.00">wld_bgdfs.h</text>
</a>
</g>
</g>
<!-- Node4&#45;&gt;Node38 -->
<g id="edge43" class="edge">
<title>Node4&#45;&gt;Node38</title>
<path fill="none" stroke="midnightblue" d="M2538.8,-176.96C2360.21,-176.54 1128.41,-172.28 733.13,-131.82"/>
<polygon fill="midnightblue" stroke="midnightblue" points="733.41,-128.33 723.1,-130.77 732.68,-135.3 733.41,-128.33"/>
</g>
<!-- Node39 -->
<g id="node39" class="node">
<title>Node39</title>
<g id="a_node39"><a xlink:href="wld__rad__delayMgr_8h.html" target="_top" xlink:title=" ">
<polygon fill="white" stroke="black" points="4411.47,-112.5 4411.47,-131.5 4525.47,-131.5 4525.47,-112.5 4411.47,-112.5"/>
<text text-anchor="middle" x="4468.47" y="-119.5" font-family="Helvetica,sans-Serif" font-size="10.00">wld_rad_delayMgr.h</text>
</a>
</g>
</g>
<!-- Node4&#45;&gt;Node39 -->
<g id="edge45" class="edge">
<title>Node4&#45;&gt;Node39</title>
<path fill="none" stroke="midnightblue" d="M2582.15,-176.79C2762.63,-175.02 4016.21,-162.24 4393.47,-132 4395.99,-131.8 4398.56,-131.56 4401.16,-131.31"/>
<polygon fill="midnightblue" stroke="midnightblue" points="4401.74,-134.77 4411.3,-130.21 4400.98,-127.81 4401.74,-134.77"/>
</g>
<!-- Node40 -->
<g id="node40" class="node">
<title>Node40</title>
<g id="a_node40"><a xlink:href="wld__fsm_8h.html" target="_top" xlink:title=" ">
<polygon fill="white" stroke="black" points="740.97,-112.5 740.97,-131.5 807.97,-131.5 807.97,-112.5 740.97,-112.5"/>
<text text-anchor="middle" x="774.47" y="-119.5" font-family="Helvetica,sans-Serif" font-size="10.00">wld_fsm.h</text>
</a>
</g>
</g>
<!-- Node4&#45;&gt;Node40 -->
<g id="edge47" class="edge">
<title>Node4&#45;&gt;Node40</title>
<path fill="none" stroke="midnightblue" d="M2538.7,-176.98C2364.56,-176.73 1194.98,-173.58 818.28,-131.81"/>
<polygon fill="midnightblue" stroke="midnightblue" points="818.51,-128.31 808.17,-130.65 817.71,-135.27 818.51,-128.31"/>
</g>
<!-- Node41 -->
<g id="node41" class="node">
<title>Node41</title>
<g id="a_node41"><a xlink:href="wld__sensing_8h.html" target="_top" xlink:title=" ">
<polygon fill="white" stroke="black" points="4543.47,-112.5 4543.47,-131.5 4629.47,-131.5 4629.47,-112.5 4543.47,-112.5"/>
<text text-anchor="middle" x="4586.47" y="-119.5" font-family="Helvetica,sans-Serif" font-size="10.00">wld_sensing.h</text>
</a>
</g>
</g>
<!-- Node4&#45;&gt;Node41 -->
<g id="edge49" class="edge">
<title>Node4&#45;&gt;Node41</title>
<path fill="none" stroke="midnightblue" d="M2582.04,-176.95C2769.33,-176.43 4120.53,-171.44 4525.47,-132 4527.98,-131.76 4530.56,-131.46 4533.16,-131.12"/>
<polygon fill="midnightblue" stroke="midnightblue" points="4533.89,-134.56 4543.3,-129.68 4532.9,-127.63 4533.89,-134.56"/>
</g>
<!-- Node42 -->
<g id="node42" class="node">
<title>Node42</title>
<g id="a_node42"><a xlink:href="wld__mld_8h.html" target="_top" xlink:title=" ">
<polygon fill="white" stroke="black" points="825.97,-112.5 825.97,-131.5 892.97,-131.5 892.97,-112.5 825.97,-112.5"/>
<text text-anchor="middle" x="859.47" y="-119.5" font-family="Helvetica,sans-Serif" font-size="10.00">wld_mld.h</text>
</a>
</g>
</g>
<!-- Node4&#45;&gt;Node42 -->
<g id="edge51" class="edge">
<title>Node4&#45;&gt;Node42</title>
<path fill="none" stroke="midnightblue" d="M2538.76,-176.88C2368.47,-175.88 1244.85,-167.99 907.47,-132 906.16,-131.86 904.84,-131.71 903.51,-131.54"/>
<polygon fill="midnightblue" stroke="midnightblue" points="903.6,-128.01 893.2,-130.02 902.58,-134.94 903.6,-128.01"/>
</g>
<!-- Node43 -->
<g id="node43" class="node">
<title>Node43</title>
<g id="a_node43"><a xlink:href="wld__autoCommitRadData_8h.html" target="_top" xlink:title=" ">
<polygon fill="white" stroke="black" points="4647.47,-112.5 4647.47,-131.5 4823.47,-131.5 4823.47,-112.5 4647.47,-112.5"/>
<text text-anchor="middle" x="4735.47" y="-119.5" font-family="Helvetica,sans-Serif" font-size="10.00">Utils/wld_autoCommitRadData.h</text>
</a>
</g>
</g>
<!-- Node4&#45;&gt;Node43 -->
<g id="edge53" class="edge">
<title>Node4&#45;&gt;Node43</title>
<path fill="none" stroke="midnightblue" d="M2581.99,-177.11C2743.44,-177.84 3781.9,-180.46 4637.4,-132.01"/>
<polygon fill="midnightblue" stroke="midnightblue" points="4637.68,-135.5 4647.46,-131.44 4637.28,-128.51 4637.68,-135.5"/>
</g>
<!-- Node44 -->
<g id="node44" class="node">
<title>Node44</title>
<g id="a_node44"><a xlink:href="wld__dmnMgt_8h.html" target="_top" xlink:title=" ">
<polygon fill="white" stroke="red" points="515.47,-112.5 515.47,-131.5 629.47,-131.5 629.47,-112.5 515.47,-112.5"/>
<text text-anchor="middle" x="572.47" y="-119.5" font-family="Helvetica,sans-Serif" font-size="10.00">Utils/wld_dmnMgt.h</text>
</a>
</g>
</g>
<!-- Node4&#45;&gt;Node44 -->
<g id="edge54" class="edge">
<title>Node4&#45;&gt;Node44</title>
<path fill="none" stroke="midnightblue" d="M2538.89,-176.82C2355.58,-175.27 1056.2,-163.3 639.78,-131.89"/>
<polygon fill="midnightblue" stroke="midnightblue" points="640.05,-128.4 629.81,-131.12 639.51,-135.38 640.05,-128.4"/>
</g>
<!-- Node46 -->
<g id="node45" class="node">
<title>Node46</title>
<g id="a_node45"><a xlink:title=" ">
<polygon fill="white" stroke="#bfbfbf" points="4841.97,-112.5 4841.97,-131.5 4942.97,-131.5 4942.97,-112.5 4841.97,-112.5"/>
<text text-anchor="middle" x="4892.47" y="-119.5" font-family="Helvetica,sans-Serif" font-size="10.00">swl/swl_staCap.h</text>
</a>
</g>
</g>
<!-- Node4&#45;&gt;Node46 -->
<g id="edge58" class="edge">
<title>Node4&#45;&gt;Node46</title>
<path fill="none" stroke="midnightblue" d="M2582.02,-176.96C2783.48,-176.51 4340.46,-171.85 4831.79,-131.9"/>
<polygon fill="midnightblue" stroke="midnightblue" points="4832.11,-135.39 4841.78,-131.07 4831.53,-128.41 4832.11,-135.39"/>
</g>
<!-- Node47 -->
<g id="node46" class="node">
<title>Node47</title>
<g id="a_node46"><a xlink:title=" ">
<polygon fill="white" stroke="#bfbfbf" points="4961.47,-112.5 4961.47,-131.5 5065.47,-131.5 5065.47,-112.5 4961.47,-112.5"/>
<text text-anchor="middle" x="5013.47" y="-119.5" font-family="Helvetica,sans-Serif" font-size="10.00">swla/swla_table.h</text>
</a>
</g>
</g>
<!-- Node4&#45;&gt;Node47 -->
<g id="edge59" class="edge">
<title>Node4&#45;&gt;Node47</title>
<path fill="none" stroke="midnightblue" d="M2582.16,-176.98C2790.13,-176.69 4434.38,-173.15 4951.14,-131.97"/>
<polygon fill="midnightblue" stroke="midnightblue" points="4951.59,-135.45 4961.28,-131.15 4951.02,-128.47 4951.59,-135.45"/>
</g>
<!-- Node48 -->
<g id="node47" class="node">
<title>Node48</title>
<g id="a_node47"><a xlink:title=" ">
<polygon fill="white" stroke="#bfbfbf" points="5083.97,-112.5 5083.97,-131.5 5180.97,-131.5 5180.97,-112.5 5083.97,-112.5"/>
<text text-anchor="middle" x="5132.47" y="-119.5" font-family="Helvetica,sans-Serif" font-size="10.00">swl/swl_assert.h</text>
</a>
</g>
</g>
<!-- Node4&#45;&gt;Node48 -->
<g id="edge60" class="edge">
<title>Node4&#45;&gt;Node48</title>
<path fill="none" stroke="midnightblue" d="M2582.25,-177.02C2796.47,-177.17 4530.08,-176.98 5073.52,-131.91"/>
<polygon fill="midnightblue" stroke="midnightblue" points="5074.12,-135.38 5083.79,-131.04 5073.53,-128.4 5074.12,-135.38"/>
</g>
<!-- Node49 -->
<g id="node48" class="node">
<title>Node49</title>
<g id="a_node48"><a xlink:title=" ">
<polygon fill="white" stroke="#bfbfbf" points="5198.97,-112.5 5198.97,-131.5 5319.97,-131.5 5319.97,-112.5 5198.97,-112.5"/>
<text text-anchor="middle" x="5259.47" y="-119.5" font-family="Helvetica,sans-Serif" font-size="10.00">swl/swl_returnCode.h</text>
</a>
</g>
</g>
<!-- Node4&#45;&gt;Node49 -->
<g id="edge61" class="edge">
<title>Node4&#45;&gt;Node49</title>
<path fill="none" stroke="midnightblue" d="M2582.2,-176.97C2801.64,-176.59 4620.41,-172.33 5188.6,-132.04"/>
<polygon fill="midnightblue" stroke="midnightblue" points="5189.2,-135.5 5198.93,-131.29 5188.7,-128.52 5189.2,-135.5"/>
</g>
<!-- Node50 -->
<g id="node49" class="node">
<title>Node50</title>
<g id="a_node49"><a xlink:title=" ">
<polygon fill="white" stroke="#bfbfbf" points="5338.47,-112.5 5338.47,-131.5 5464.47,-131.5 5464.47,-112.5 5338.47,-112.5"/>
<text text-anchor="middle" x="5401.47" y="-119.5" font-family="Helvetica,sans-Serif" font-size="10.00">swla/swla_tupleType.h</text>
</a>
</g>
</g>
<!-- Node4&#45;&gt;Node50 -->
<g id="edge62" class="edge">
<title>Node4&#45;&gt;Node50</title>
<path fill="none" stroke="midnightblue" d="M2582.27,-176.97C2808.47,-176.65 4730.09,-172.72 5328.28,-131.98"/>
<polygon fill="midnightblue" stroke="midnightblue" points="5328.56,-135.47 5338.29,-131.29 5328.07,-128.49 5328.56,-135.47"/>
</g>
<!-- Node51 -->
<g id="node50" class="node">
<title>Node51</title>
<g id="a_node50"><a xlink:title=" ">
<polygon fill="white" stroke="#bfbfbf" points="5482.47,-112.5 5482.47,-131.5 5568.47,-131.5 5568.47,-112.5 5482.47,-112.5"/>
<text text-anchor="middle" x="5525.47" y="-119.5" font-family="Helvetica,sans-Serif" font-size="10.00">swl/swl_mlo.h</text>
</a>
</g>
</g>
<!-- Node4&#45;&gt;Node51 -->
<g id="edge64" class="edge">
<title>Node4&#45;&gt;Node51</title>
<path fill="none" stroke="midnightblue" d="M2582.14,-176.87C2829.72,-175.38 5121.92,-160.87 5472.38,-131.87"/>
<polygon fill="midnightblue" stroke="midnightblue" points="5472.75,-135.35 5482.41,-130.99 5472.14,-128.38 5472.75,-135.35"/>
</g>
<!-- Node33&#45;&gt;Node5 -->
<g id="edge35" class="edge">
<title>Node33&#45;&gt;Node5</title>
<path fill="none" stroke="midnightblue" d="M812.08,-64.22C1106.42,-58.08 3036.51,-17.84 3327.7,-11.77"/>
<polygon fill="midnightblue" stroke="midnightblue" points="3327.81,-15.27 3337.74,-11.56 3327.67,-8.27 3327.81,-15.27"/>
</g>
<!-- Node33&#45;&gt;Node9 -->
<g id="edge38" class="edge">
<title>Node33&#45;&gt;Node9</title>
<path fill="none" stroke="midnightblue" d="M736.65,-59.37C673.95,-50.05 547.94,-31.3 472.52,-20.08"/>
<polygon fill="midnightblue" stroke="midnightblue" points="472.63,-16.56 462.22,-18.55 471.6,-23.48 472.63,-16.56"/>
</g>
<!-- Node33&#45;&gt;Node34 -->
<g id="edge36" class="edge">
<title>Node33&#45;&gt;Node34</title>
<path fill="none" stroke="midnightblue" d="M758.72,-56.32C743.15,-47.74 719.09,-34.49 701.01,-24.52"/>
<polygon fill="midnightblue" stroke="midnightblue" points="702.62,-21.42 692.17,-19.65 699.24,-27.55 702.62,-21.42"/>
</g>
<!-- Node33&#45;&gt;Node35 -->
<g id="edge37" class="edge">
<title>Node33&#45;&gt;Node35</title>
<path fill="none" stroke="midnightblue" d="M790.21,-56.32C805.79,-47.74 829.85,-34.49 847.93,-24.52"/>
<polygon fill="midnightblue" stroke="midnightblue" points="849.69,-27.55 856.76,-19.65 846.31,-21.42 849.69,-27.55"/>
</g>
<!-- Node36&#45;&gt;Node2 -->
<g id="edge40" class="edge">
<title>Node36&#45;&gt;Node2</title>
<path fill="none" stroke="midnightblue" d="M267.25,-112.44C248.57,-103.68 219.31,-89.94 197.85,-79.86"/>
<polygon fill="midnightblue" stroke="midnightblue" points="199.14,-76.6 188.6,-75.52 196.17,-82.93 199.14,-76.6"/>
</g>
<!-- Node36&#45;&gt;Node9 -->
<g id="edge42" class="edge">
<title>Node36&#45;&gt;Node9</title>
<path fill="none" stroke="midnightblue" d="M274.14,-112.35C258.62,-99.45 234.23,-74.7 248.47,-56 261.08,-39.44 309.73,-27.42 350.63,-19.99"/>
<polygon fill="midnightblue" stroke="midnightblue" points="351.32,-23.42 360.56,-18.24 350.11,-16.53 351.32,-23.42"/>
</g>
<!-- Node36&#45;&gt;Node37 -->
<g id="edge41" class="edge">
<title>Node36&#45;&gt;Node37</title>
<path fill="none" stroke="midnightblue" d="M291.25,-112.08C296.14,-104.53 303.3,-93.49 309.3,-84.23"/>
<polygon fill="midnightblue" stroke="midnightblue" points="312.29,-86.05 314.8,-75.75 306.42,-82.24 312.29,-86.05"/>
</g>
<!-- Node38&#45;&gt;Node33 -->
<g id="edge44" class="edge">
<title>Node38&#45;&gt;Node33</title>
<path fill="none" stroke="midnightblue" d="M699.77,-112.32C713.65,-103.9 734.96,-90.97 751.27,-81.07"/>
<polygon fill="midnightblue" stroke="midnightblue" points="753.47,-83.83 760.2,-75.65 749.84,-77.85 753.47,-83.83"/>
</g>
<!-- Node39&#45;&gt;Node4 -->
<g id="edge46" class="edge">
<title>Node39&#45;&gt;Node4</title>
<path fill="none" stroke="midnightblue" d="M4417.07,-131.51C4415.18,-131.69 4413.31,-131.85 4411.47,-132 4038.11,-161.92 2806.46,-174.76 2592.31,-176.73"/>
<polygon fill="midnightblue" stroke="midnightblue" points="2592.04,-173.23 2582.07,-176.82 2592.1,-180.23 2592.04,-173.23"/>
</g>
<!-- Node40&#45;&gt;Node33 -->
<g id="edge48" class="edge">
<title>Node40&#45;&gt;Node33</title>
<path fill="none" stroke="midnightblue" d="M774.47,-112.08C774.47,-105.01 774.47,-94.86 774.47,-85.99"/>
<polygon fill="midnightblue" stroke="midnightblue" points="777.97,-85.75 774.47,-75.75 770.97,-85.75 777.97,-85.75"/>
</g>
<!-- Node41&#45;&gt;Node4 -->
<g id="edge50" class="edge">
<title>Node41&#45;&gt;Node4</title>
<path fill="none" stroke="midnightblue" d="M4547.9,-131.52C4546.41,-131.7 4544.93,-131.86 4543.47,-132 4142.53,-171.05 2813.98,-176.33 2592.01,-176.93"/>
<polygon fill="midnightblue" stroke="midnightblue" points="2591.99,-173.43 2582,-176.96 2592.01,-180.43 2591.99,-173.43"/>
</g>
<!-- Node42&#45;&gt;Node33 -->
<g id="edge52" class="edge">
<title>Node42&#45;&gt;Node33</title>
<path fill="none" stroke="midnightblue" d="M845.81,-112.32C832.55,-103.9 812.2,-90.97 796.62,-81.07"/>
<polygon fill="midnightblue" stroke="midnightblue" points="798.41,-78.06 788.09,-75.65 794.65,-83.97 798.41,-78.06"/>
</g>
<!-- Node44&#45;&gt;Node6 -->
<g id="edge55" class="edge">
<title>Node44&#45;&gt;Node6</title>
<path fill="none" stroke="midnightblue" d="M569.17,-112.08C566.49,-104.85 562.62,-94.41 559.28,-85.4"/>
<polygon fill="midnightblue" stroke="midnightblue" points="562.46,-83.91 555.71,-75.75 555.9,-86.34 562.46,-83.91"/>
</g>
<!-- Node44&#45;&gt;Node33 -->
<g id="edge56" class="edge">
<title>Node44&#45;&gt;Node33</title>
<path fill="none" stroke="midnightblue" d="M604.48,-112.44C639.2,-103.16 694.76,-88.31 732.84,-78.13"/>
<polygon fill="midnightblue" stroke="midnightblue" points="733.85,-81.48 742.61,-75.52 732.05,-74.72 733.85,-81.48"/>
</g>
</g>
</svg>
