<?xml version="1.0" encoding="UTF-8" standalone="no"?>
<!DOCTYPE svg PUBLIC "-//W3C//DTD SVG 1.1//EN"
 "http://www.w3.org/Graphics/SVG/1.1/DTD/svg11.dtd">
<!-- Generated by graphviz version 2.43.0 (0)
 -->
<!-- Title: wld_nl80211_chanSpecNlToSwl Pages: 1 -->
<svg width="588pt" height="116pt"
 viewBox="0.00 0.00 588.00 115.50" xmlns="http://www.w3.org/2000/svg" xmlns:xlink="http://www.w3.org/1999/xlink">
<g id="graph0" class="graph" transform="scale(1 1) rotate(0) translate(4 111.5)">
<title>wld_nl80211_chanSpecNlToSwl</title>
<polygon fill="white" stroke="transparent" points="-4,4 -4,-111.5 584,-111.5 584,4 -4,4"/>
<!-- Node1 -->
<g id="node1" class="node">
<title>Node1</title>
<g id="a_node1"><a xlink:title=" ">
<polygon fill="#bfbfbf" stroke="black" points="412,-50 412,-69 580,-69 580,-50 412,-50"/>
<text text-anchor="middle" x="496" y="-57" font-family="Helvetica,sans-Serif" font-size="10.00">wld_nl80211_chanSpecNlToSwl</text>
</a>
</g>
</g>
<!-- Node2 -->
<g id="node2" class="node">
<title>Node2</title>
<g id="a_node2"><a xlink:href="wifiGen__eventHandlers_8c.html#ada33173b7a6342a0da0a0783aadfdb19" target="_top" xlink:title=" ">
<polygon fill="white" stroke="black" points="249.5,-88 249.5,-107 330.5,-107 330.5,-88 249.5,-88"/>
<text text-anchor="middle" x="290" y="-95" font-family="Helvetica,sans-Serif" font-size="10.00">s_radarEvtCb</text>
</a>
</g>
</g>
<!-- Node1&#45;&gt;Node2 -->
<g id="edge1" class="edge">
<title>Node1&#45;&gt;Node2</title>
<path fill="none" stroke="midnightblue" d="M433.66,-70.93C400.26,-77.15 359.91,-84.66 330.65,-90.11"/>
<polygon fill="midnightblue" stroke="midnightblue" points="434.6,-74.31 443.79,-69.04 433.31,-67.43 434.6,-74.31"/>
</g>
<!-- Node3 -->
<g id="node3" class="node">
<title>Node3</title>
<g id="a_node3"><a xlink:href="wld__nl80211__api_8c.html#a912b5e4cbc5e51be024fd8929c4bb5b3" target="_top" xlink:title=" ">
<polygon fill="white" stroke="black" points="216.5,-50 216.5,-69 363.5,-69 363.5,-50 216.5,-50"/>
<text text-anchor="middle" x="290" y="-57" font-family="Helvetica,sans-Serif" font-size="10.00">wld_nl80211_getChanSpec</text>
</a>
</g>
</g>
<!-- Node1&#45;&gt;Node3 -->
<g id="edge2" class="edge">
<title>Node1&#45;&gt;Node3</title>
<path fill="none" stroke="midnightblue" d="M401.55,-59.5C388.79,-59.5 375.85,-59.5 363.54,-59.5"/>
<polygon fill="midnightblue" stroke="midnightblue" points="401.73,-63 411.73,-59.5 401.73,-56 401.73,-63"/>
</g>
<!-- Node4 -->
<g id="node4" class="node">
<title>Node4</title>
<g id="a_node4"><a xlink:href="wld__nl80211__api_8c.html#a3a92bd8a4138d817be98fc65b3d3e785" target="_top" xlink:title=" ">
<polygon fill="white" stroke="black" points="204,-0.5 204,-30.5 376,-30.5 376,-0.5 204,-0.5"/>
<text text-anchor="start" x="212" y="-18.5" font-family="Helvetica,sans-Serif" font-size="10.00">wld_nl80211_getChanSpecFrom</text>
<text text-anchor="middle" x="290" y="-7.5" font-family="Helvetica,sans-Serif" font-size="10.00">IfaceInfo</text>
</a>
</g>
</g>
<!-- Node1&#45;&gt;Node4 -->
<g id="edge3" class="edge">
<title>Node1&#45;&gt;Node4</title>
<path fill="none" stroke="midnightblue" d="M440.89,-47.83C416.35,-42.54 387.02,-36.21 360.85,-30.57"/>
<polygon fill="midnightblue" stroke="midnightblue" points="440.22,-51.27 450.74,-49.95 441.7,-44.42 440.22,-51.27"/>
</g>
<!-- Node5 -->
<g id="node5" class="node">
<title>Node5</title>
<g id="a_node5"><a xlink:href="wld__rad__nl80211_8c.html#a0b025a7f9630e9833a9af3881f27df3f" target="_top" xlink:title=" ">
<polygon fill="white" stroke="black" points="0,-0.5 0,-30.5 168,-30.5 168,-0.5 0,-0.5"/>
<text text-anchor="start" x="8" y="-18.5" font-family="Helvetica,sans-Serif" font-size="10.00">wld_rad_nl80211_getChanSpec</text>
<text text-anchor="middle" x="84" y="-7.5" font-family="Helvetica,sans-Serif" font-size="10.00">FromIfaceInfo</text>
</a>
</g>
</g>
<!-- Node4&#45;&gt;Node5 -->
<g id="edge4" class="edge">
<title>Node4&#45;&gt;Node5</title>
<path fill="none" stroke="midnightblue" d="M193.94,-15.5C185.37,-15.5 176.72,-15.5 168.26,-15.5"/>
<polygon fill="midnightblue" stroke="midnightblue" points="193.96,-19 203.96,-15.5 193.96,-12 193.96,-19"/>
</g>
</g>
</svg>
