<?xml version="1.0" encoding="UTF-8" standalone="no"?>
<!DOCTYPE svg PUBLIC "-//W3C//DTD SVG 1.1//EN"
 "http://www.w3.org/Graphics/SVG/1.1/DTD/svg11.dtd">
<!-- Generated by graphviz version 2.43.0 (0)
 -->
<!-- Title: wld_wpaCtrlMngr_disconnect Pages: 1 -->
<svg width="518pt" height="66pt"
 viewBox="0.00 0.00 518.00 66.00" xmlns="http://www.w3.org/2000/svg" xmlns:xlink="http://www.w3.org/1999/xlink">
<g id="graph0" class="graph" transform="scale(1 1) rotate(0) translate(4 62)">
<title>wld_wpaCtrlMngr_disconnect</title>
<polygon fill="white" stroke="transparent" points="-4,4 -4,-62 514,-62 514,4 -4,4"/>
<!-- Node1 -->
<g id="node1" class="node">
<title>Node1</title>
<g id="a_node1"><a xlink:title="disconnect from wpa_ctrl server">
<polygon fill="#bfbfbf" stroke="black" points="351,-19.5 351,-38.5 510,-38.5 510,-19.5 351,-19.5"/>
<text text-anchor="middle" x="430.5" y="-26.5" font-family="Helvetica,sans-Serif" font-size="10.00">wld_wpaCtrlMngr_disconnect</text>
</a>
</g>
</g>
<!-- Node2 -->
<g id="node2" class="node">
<title>Node2</title>
<g id="a_node2"><a xlink:href="wld__secDmn_8c.html#a04e473c6a2f624f5ee15a91d36ca56db" target="_top" xlink:title=" ">
<polygon fill="white" stroke="black" points="186,-38.5 186,-57.5 315,-57.5 315,-38.5 186,-38.5"/>
<text text-anchor="middle" x="250.5" y="-45.5" font-family="Helvetica,sans-Serif" font-size="10.00">wld_secDmn_restartCb</text>
</a>
</g>
</g>
<!-- Node1&#45;&gt;Node2 -->
<g id="edge1" class="edge">
<title>Node1&#45;&gt;Node2</title>
<path fill="none" stroke="midnightblue" d="M340.81,-38.47C332.19,-39.39 323.56,-40.31 315.26,-41.19"/>
<polygon fill="midnightblue" stroke="midnightblue" points="341.34,-41.93 350.91,-37.39 340.59,-34.97 341.34,-41.93"/>
</g>
<!-- Node3 -->
<g id="node3" class="node">
<title>Node3</title>
<g id="a_node3"><a xlink:href="wld__secDmn_8c.html#a161897b21440ea0885b570829da259fc" target="_top" xlink:title=" ">
<polygon fill="white" stroke="black" points="198,-0.5 198,-19.5 303,-19.5 303,-0.5 198,-0.5"/>
<text text-anchor="middle" x="250.5" y="-7.5" font-family="Helvetica,sans-Serif" font-size="10.00">wld_secDmn_stop</text>
</a>
</g>
</g>
<!-- Node1&#45;&gt;Node3 -->
<g id="edge2" class="edge">
<title>Node1&#45;&gt;Node3</title>
<path fill="none" stroke="midnightblue" d="M340.61,-19.51C327.75,-18.14 314.88,-16.77 303.08,-15.51"/>
<polygon fill="midnightblue" stroke="midnightblue" points="340.59,-23.03 350.91,-20.61 341.34,-16.07 340.59,-23.03"/>
</g>
<!-- Node4 -->
<g id="node4" class="node">
<title>Node4</title>
<g id="a_node4"><a xlink:href="wifiGen__hapd_8c.html#a75688dec0e4ad675142a71010b2b536a" target="_top" xlink:title=" ">
<polygon fill="white" stroke="black" points="0,-0.5 0,-19.5 150,-19.5 150,-0.5 0,-0.5"/>
<text text-anchor="middle" x="75" y="-7.5" font-family="Helvetica,sans-Serif" font-size="10.00">wifiGen_hapd_stopDaemon</text>
</a>
</g>
</g>
<!-- Node3&#45;&gt;Node4 -->
<g id="edge3" class="edge">
<title>Node3&#45;&gt;Node4</title>
<path fill="none" stroke="midnightblue" d="M187.86,-10C175.67,-10 162.75,-10 150.18,-10"/>
<polygon fill="midnightblue" stroke="midnightblue" points="187.91,-13.5 197.91,-10 187.91,-6.5 187.91,-13.5"/>
</g>
</g>
</svg>
