<?xml version="1.0" encoding="UTF-8" standalone="no"?>
<!DOCTYPE svg PUBLIC "-//W3C//DTD SVG 1.1//EN"
 "http://www.w3.org/Graphics/SVG/1.1/DTD/svg11.dtd">
<!-- Generated by graphviz version 2.43.0 (0)
 -->
<!-- Title: src/ChannelManagement/wld_bgdfs.c Pages: 1 -->
<svg width="5163pt" height="375pt"
 viewBox="0.00 0.00 5162.50 375.00" xmlns="http://www.w3.org/2000/svg" xmlns:xlink="http://www.w3.org/1999/xlink">
<g id="graph0" class="graph" transform="scale(1 1) rotate(0) translate(4 371)">
<title>src/ChannelManagement/wld_bgdfs.c</title>
<polygon fill="white" stroke="transparent" points="-4,4 -4,-371 5158.5,-371 5158.5,4 -4,4"/>
<!-- Node1 -->
<g id="node1" class="node">
<title>Node1</title>
<g id="a_node1"><a xlink:title=" ">
<polygon fill="#bfbfbf" stroke="black" points="2952.5,-336.5 2952.5,-366.5 3090.5,-366.5 3090.5,-336.5 2952.5,-336.5"/>
<text text-anchor="start" x="2960.5" y="-354.5" font-family="Helvetica,sans-Serif" font-size="10.00">src/ChannelManagement</text>
<text text-anchor="middle" x="3021.5" y="-343.5" font-family="Helvetica,sans-Serif" font-size="10.00">/wld_bgdfs.c</text>
</a>
</g>
</g>
<!-- Node2 -->
<g id="node2" class="node">
<title>Node2</title>
<g id="a_node2"><a xlink:title=" ">
<polygon fill="white" stroke="#bfbfbf" points="2613,-280.5 2613,-299.5 2666,-299.5 2666,-280.5 2613,-280.5"/>
<text text-anchor="middle" x="2639.5" y="-287.5" font-family="Helvetica,sans-Serif" font-size="10.00">stdlib.h</text>
</a>
</g>
</g>
<!-- Node1&#45;&gt;Node2 -->
<g id="edge1" class="edge">
<title>Node1&#45;&gt;Node2</title>
<path fill="none" stroke="midnightblue" d="M2952.37,-341.69C2883.31,-332.55 2774.24,-317.21 2680.5,-300 2679.21,-299.76 2677.9,-299.52 2676.57,-299.26"/>
<polygon fill="midnightblue" stroke="midnightblue" points="2676.85,-295.74 2666.35,-297.17 2675.45,-302.6 2676.85,-295.74"/>
</g>
<!-- Node3 -->
<g id="node3" class="node">
<title>Node3</title>
<g id="a_node3"><a xlink:title=" ">
<polygon fill="white" stroke="#bfbfbf" points="4831.5,-56.5 4831.5,-75.5 4893.5,-75.5 4893.5,-56.5 4831.5,-56.5"/>
<text text-anchor="middle" x="4862.5" y="-63.5" font-family="Helvetica,sans-Serif" font-size="10.00">stdbool.h</text>
</a>
</g>
</g>
<!-- Node1&#45;&gt;Node3 -->
<g id="edge2" class="edge">
<title>Node1&#45;&gt;Node3</title>
<path fill="none" stroke="midnightblue" d="M3090.72,-350.05C3435.45,-347.36 4950.5,-330.14 4950.5,-235 4950.5,-235 4950.5,-235 4950.5,-177 4950.5,-146.9 4949.44,-136.17 4931.5,-112 4921.46,-98.47 4906.04,-87.86 4892.33,-80.35"/>
<polygon fill="midnightblue" stroke="midnightblue" points="4893.69,-77.12 4883.2,-75.65 4890.48,-83.34 4893.69,-77.12"/>
</g>
<!-- Node4 -->
<g id="node4" class="node">
<title>Node4</title>
<g id="a_node4"><a xlink:title=" ">
<polygon fill="white" stroke="#bfbfbf" points="4979,-280.5 4979,-299.5 5032,-299.5 5032,-280.5 4979,-280.5"/>
<text text-anchor="middle" x="5005.5" y="-287.5" font-family="Helvetica,sans-Serif" font-size="10.00">string.h</text>
</a>
</g>
</g>
<!-- Node1&#45;&gt;Node4 -->
<g id="edge3" class="edge">
<title>Node1&#45;&gt;Node4</title>
<path fill="none" stroke="midnightblue" d="M3090.66,-350.46C3391.84,-350.04 4590.69,-345.47 4964.5,-300 4965.8,-299.84 4967.12,-299.66 4968.46,-299.46"/>
<polygon fill="midnightblue" stroke="midnightblue" points="4969.48,-302.83 4978.72,-297.64 4968.26,-295.94 4969.48,-302.83"/>
</g>
<!-- Node5 -->
<g id="node5" class="node">
<title>Node5</title>
<g id="a_node5"><a xlink:href="wld_8h.html" target="_top" xlink:title=" ">
<polygon fill="white" stroke="red" points="2735,-168.5 2735,-187.5 2778,-187.5 2778,-168.5 2735,-168.5"/>
<text text-anchor="middle" x="2756.5" y="-175.5" font-family="Helvetica,sans-Serif" font-size="10.00">wld.h</text>
</a>
</g>
</g>
<!-- Node1&#45;&gt;Node5 -->
<g id="edge4" class="edge">
<title>Node1&#45;&gt;Node5</title>
<path fill="none" stroke="midnightblue" d="M2992.89,-336.46C2977.13,-327.65 2958.07,-315.1 2944.5,-300 2919.12,-271.77 2934.66,-248.31 2905.5,-224 2871.94,-196.02 2821.32,-185.43 2788.59,-181.43"/>
<polygon fill="midnightblue" stroke="midnightblue" points="2788.54,-177.9 2778.22,-180.31 2787.79,-184.86 2788.54,-177.9"/>
</g>
<!-- Node38 -->
<g id="node36" class="node">
<title>Node38</title>
<g id="a_node36"><a xlink:href="wld__channel__types_8h.html" target="_top" xlink:title=" ">
<polygon fill="white" stroke="black" points="4688,-112.5 4688,-131.5 4807,-131.5 4807,-112.5 4688,-112.5"/>
<text text-anchor="middle" x="4747.5" y="-119.5" font-family="Helvetica,sans-Serif" font-size="10.00">wld_channel_types.h</text>
</a>
</g>
</g>
<!-- Node1&#45;&gt;Node38 -->
<g id="edge67" class="edge">
<title>Node1&#45;&gt;Node38</title>
<path fill="none" stroke="midnightblue" d="M3090.76,-341.37C3368.42,-304.77 4399.32,-168.89 4677.79,-132.19"/>
<polygon fill="midnightblue" stroke="midnightblue" points="4678.31,-135.65 4687.77,-130.87 4677.39,-128.71 4678.31,-135.65"/>
</g>
<!-- Node40 -->
<g id="node38" class="node">
<title>Node40</title>
<g id="a_node38"><a xlink:href="wld__bgdfs_8h.html" target="_top" xlink:title=" ">
<polygon fill="white" stroke="black" points="0,-112.5 0,-131.5 75,-131.5 75,-112.5 0,-112.5"/>
<text text-anchor="middle" x="37.5" y="-119.5" font-family="Helvetica,sans-Serif" font-size="10.00">wld_bgdfs.h</text>
</a>
</g>
</g>
<!-- Node1&#45;&gt;Node40 -->
<g id="edge70" class="edge">
<title>Node1&#45;&gt;Node40</title>
<path fill="none" stroke="midnightblue" d="M2965.12,-336.46C2896.8,-320.05 2777.98,-293.43 2674.5,-280 1541.66,-133.02 1246.02,-236.78 108.5,-132 100.93,-131.3 92.92,-130.42 85.12,-129.49"/>
<polygon fill="midnightblue" stroke="midnightblue" points="85.39,-126 75.03,-128.24 84.53,-132.95 85.39,-126"/>
</g>
<!-- Node50 -->
<g id="node45" class="node">
<title>Node50</title>
<g id="a_node45"><a xlink:title=" ">
<polygon fill="white" stroke="#bfbfbf" points="4825,-112.5 4825,-131.5 4922,-131.5 4922,-112.5 4825,-112.5"/>
<text text-anchor="middle" x="4873.5" y="-119.5" font-family="Helvetica,sans-Serif" font-size="10.00">swl/swl_assert.h</text>
</a>
</g>
</g>
<!-- Node1&#45;&gt;Node50 -->
<g id="edge60" class="edge">
<title>Node1&#45;&gt;Node50</title>
<path fill="none" stroke="midnightblue" d="M3090.78,-343.59C3183.31,-334.25 3352.35,-316.83 3496.5,-300 4080.61,-231.79 4229.35,-215.64 4814.74,-132.22"/>
<polygon fill="midnightblue" stroke="midnightblue" points="4815.29,-135.68 4824.7,-130.8 4814.3,-128.75 4815.29,-135.68"/>
</g>
<!-- Node77 -->
<g id="node46" class="node">
<title>Node77</title>
<g id="a_node46"><a xlink:href="wld__util_8h.html" target="_top" xlink:title=" ">
<polygon fill="white" stroke="black" points="2832.5,-224.5 2832.5,-243.5 2896.5,-243.5 2896.5,-224.5 2832.5,-224.5"/>
<text text-anchor="middle" x="2864.5" y="-231.5" font-family="Helvetica,sans-Serif" font-size="10.00">wld_util.h</text>
</a>
</g>
</g>
<!-- Node1&#45;&gt;Node77 -->
<g id="edge58" class="edge">
<title>Node1&#45;&gt;Node77</title>
<path fill="none" stroke="midnightblue" d="M2977.11,-336.49C2955.48,-328.2 2930,-316.12 2910.5,-300 2894.57,-286.83 2881.56,-266.87 2873.49,-252.55"/>
<polygon fill="midnightblue" stroke="midnightblue" points="2876.54,-250.83 2868.72,-243.69 2870.38,-254.15 2876.54,-250.83"/>
</g>
<!-- Node78 -->
<g id="node47" class="node">
<title>Node78</title>
<g id="a_node47"><a xlink:title=" ">
<polygon fill="white" stroke="#bfbfbf" points="5050.5,-280.5 5050.5,-299.5 5154.5,-299.5 5154.5,-280.5 5050.5,-280.5"/>
<text text-anchor="middle" x="5102.5" y="-287.5" font-family="Helvetica,sans-Serif" font-size="10.00">swla/swla_trans.h</text>
</a>
</g>
</g>
<!-- Node1&#45;&gt;Node78 -->
<g id="edge61" class="edge">
<title>Node1&#45;&gt;Node78</title>
<path fill="none" stroke="midnightblue" d="M3090.72,-349.9C3396.61,-347.08 4629.66,-333.84 5040.17,-299.98"/>
<polygon fill="midnightblue" stroke="midnightblue" points="5040.63,-303.45 5050.31,-299.13 5040.05,-296.48 5040.63,-303.45"/>
</g>
<!-- Node79 -->
<g id="node48" class="node">
<title>Node79</title>
<g id="a_node48"><a xlink:href="wld__radio_8h.html" target="_top" xlink:title=" ">
<polygon fill="white" stroke="red" points="2953,-280.5 2953,-299.5 3026,-299.5 3026,-280.5 2953,-280.5"/>
<text text-anchor="middle" x="2989.5" y="-287.5" font-family="Helvetica,sans-Serif" font-size="10.00">wld_radio.h</text>
</a>
</g>
</g>
<!-- Node1&#45;&gt;Node79 -->
<g id="edge62" class="edge">
<title>Node1&#45;&gt;Node79</title>
<path fill="none" stroke="midnightblue" d="M3013.92,-336.4C3009.46,-328.11 3003.78,-317.55 2999.02,-308.71"/>
<polygon fill="midnightblue" stroke="midnightblue" points="3001.98,-306.81 2994.16,-299.66 2995.81,-310.12 3001.98,-306.81"/>
</g>
<!-- Node81 -->
<g id="node49" class="node">
<title>Node81</title>
<g id="a_node49"><a xlink:href="wld__channel_8h.html" target="_top" xlink:title=" ">
<polygon fill="white" stroke="black" points="3001.5,-224.5 3001.5,-243.5 3087.5,-243.5 3087.5,-224.5 3001.5,-224.5"/>
<text text-anchor="middle" x="3044.5" y="-231.5" font-family="Helvetica,sans-Serif" font-size="10.00">wld_channel.h</text>
</a>
</g>
</g>
<!-- Node1&#45;&gt;Node81 -->
<g id="edge71" class="edge">
<title>Node1&#45;&gt;Node81</title>
<path fill="none" stroke="midnightblue" d="M3025.93,-336.47C3028.97,-326.41 3032.92,-312.47 3035.5,-300 3038.68,-284.64 3041.04,-267 3042.55,-253.98"/>
<polygon fill="midnightblue" stroke="midnightblue" points="3046.04,-254.22 3043.65,-243.9 3039.08,-253.46 3046.04,-254.22"/>
</g>
<!-- Node86 -->
<g id="node50" class="node">
<title>Node86</title>
<g id="a_node50"><a xlink:href="wld__chanmgt_8h.html" target="_top" xlink:title=" ">
<polygon fill="white" stroke="red" points="2723,-224.5 2723,-243.5 2814,-243.5 2814,-224.5 2723,-224.5"/>
<text text-anchor="middle" x="2768.5" y="-231.5" font-family="Helvetica,sans-Serif" font-size="10.00">wld_chanmgt.h</text>
</a>
</g>
</g>
<!-- Node1&#45;&gt;Node86 -->
<g id="edge68" class="edge">
<title>Node1&#45;&gt;Node86</title>
<path fill="none" stroke="midnightblue" d="M2979.84,-336.49C2953.07,-327.08 2917.78,-313.89 2887.5,-300 2853.27,-284.3 2815.36,-262.84 2791.73,-248.95"/>
<polygon fill="midnightblue" stroke="midnightblue" points="2793.21,-245.76 2782.82,-243.67 2789.64,-251.78 2793.21,-245.76"/>
</g>
<!-- Node5&#45;&gt;Node3 -->
<g id="edge5" class="edge">
<title>Node5&#45;&gt;Node3</title>
<path fill="none" stroke="midnightblue" d="M2778.05,-177.01C2974.07,-177 4445.56,-175.53 4635.5,-132 4656.44,-127.2 4659.21,-119.04 4679.5,-112 4727.11,-95.49 4783.67,-82.55 4821.18,-74.87"/>
<polygon fill="midnightblue" stroke="midnightblue" points="4822.12,-78.25 4831.23,-72.85 4820.74,-71.39 4822.12,-78.25"/>
</g>
<!-- Node6 -->
<g id="node6" class="node">
<title>Node6</title>
<g id="a_node6"><a xlink:title=" ">
<polygon fill="white" stroke="#bfbfbf" points="139,-0.5 139,-19.5 192,-19.5 192,-0.5 139,-0.5"/>
<text text-anchor="middle" x="165.5" y="-7.5" font-family="Helvetica,sans-Serif" font-size="10.00">stdint.h</text>
</a>
</g>
</g>
<!-- Node5&#45;&gt;Node6 -->
<g id="edge6" class="edge">
<title>Node5&#45;&gt;Node6</title>
<path fill="none" stroke="midnightblue" d="M2734.63,-172.08C2726.47,-170.46 2717.11,-168.86 2708.5,-168 2637.02,-160.85 172.94,-183.15 122.5,-132 93.67,-102.76 128.58,-52.96 150.44,-27.32"/>
<polygon fill="midnightblue" stroke="midnightblue" points="153.25,-29.43 157.24,-19.62 148,-24.8 153.25,-29.43"/>
</g>
<!-- Node7 -->
<g id="node7" class="node">
<title>Node7</title>
<g id="a_node7"><a xlink:title=" ">
<polygon fill="white" stroke="#bfbfbf" points="385.5,-56.5 385.5,-75.5 495.5,-75.5 495.5,-56.5 385.5,-56.5"/>
<text text-anchor="middle" x="440.5" y="-63.5" font-family="Helvetica,sans-Serif" font-size="10.00">swl/swl_common.h</text>
</a>
</g>
</g>
<!-- Node5&#45;&gt;Node7 -->
<g id="edge7" class="edge">
<title>Node5&#45;&gt;Node7</title>
<path fill="none" stroke="midnightblue" d="M2734.63,-172.09C2726.47,-170.48 2717.1,-168.87 2708.5,-168 2588.21,-155.82 647.43,-169.55 532.5,-132 502.47,-122.19 473.7,-98.87 456.56,-83"/>
<polygon fill="midnightblue" stroke="midnightblue" points="458.78,-80.28 449.13,-75.91 453.94,-85.34 458.78,-80.28"/>
</g>
<!-- Node8 -->
<g id="node8" class="node">
<title>Node8</title>
<g id="a_node8"><a xlink:title=" ">
<polygon fill="white" stroke="#bfbfbf" points="549.5,-112.5 549.5,-131.5 685.5,-131.5 685.5,-112.5 549.5,-112.5"/>
<text text-anchor="middle" x="617.5" y="-119.5" font-family="Helvetica,sans-Serif" font-size="10.00">swla/swla_commonLib.h</text>
</a>
</g>
</g>
<!-- Node5&#45;&gt;Node8 -->
<g id="edge8" class="edge">
<title>Node5&#45;&gt;Node8</title>
<path fill="none" stroke="midnightblue" d="M2734.63,-172.1C2726.47,-170.48 2717.1,-168.88 2708.5,-168 2266.44,-122.93 1157.52,-161.45 696.01,-132.01"/>
<polygon fill="midnightblue" stroke="midnightblue" points="696.11,-128.51 685.9,-131.35 695.65,-135.5 696.11,-128.51"/>
</g>
<!-- Node9 -->
<g id="node9" class="node">
<title>Node9</title>
<g id="a_node9"><a xlink:title=" ">
<polygon fill="white" stroke="#bfbfbf" points="703.5,-112.5 703.5,-131.5 791.5,-131.5 791.5,-112.5 703.5,-112.5"/>
<text text-anchor="middle" x="747.5" y="-119.5" font-family="Helvetica,sans-Serif" font-size="10.00">swl/swl_uuid.h</text>
</a>
</g>
</g>
<!-- Node5&#45;&gt;Node9 -->
<g id="edge9" class="edge">
<title>Node5&#45;&gt;Node9</title>
<path fill="none" stroke="midnightblue" d="M2734.63,-172.1C2726.47,-170.49 2717.1,-168.88 2708.5,-168 1868.06,-81.89 1646.67,-210.21 801.65,-131.94"/>
<polygon fill="midnightblue" stroke="midnightblue" points="801.96,-128.45 791.68,-131.01 801.31,-135.42 801.96,-128.45"/>
</g>
<!-- Node10 -->
<g id="node10" class="node">
<title>Node10</title>
<g id="a_node10"><a xlink:title=" ">
<polygon fill="white" stroke="#bfbfbf" points="809.5,-112.5 809.5,-131.5 961.5,-131.5 961.5,-112.5 809.5,-112.5"/>
<text text-anchor="middle" x="885.5" y="-119.5" font-family="Helvetica,sans-Serif" font-size="10.00">swla/swla_radioStandards.h</text>
</a>
</g>
</g>
<!-- Node5&#45;&gt;Node10 -->
<g id="edge10" class="edge">
<title>Node5&#45;&gt;Node10</title>
<path fill="none" stroke="midnightblue" d="M2734.63,-172.11C2726.47,-170.5 2717.1,-168.89 2708.5,-168 1943.36,-88.89 1743.33,-179.91 972.17,-132.04"/>
<polygon fill="midnightblue" stroke="midnightblue" points="972.13,-128.53 961.93,-131.4 971.69,-135.52 972.13,-128.53"/>
</g>
<!-- Node11 -->
<g id="node11" class="node">
<title>Node11</title>
<g id="a_node11"><a xlink:title=" ">
<polygon fill="white" stroke="#bfbfbf" points="4571,-0.5 4571,-19.5 4672,-19.5 4672,-0.5 4571,-0.5"/>
<text text-anchor="middle" x="4621.5" y="-7.5" font-family="Helvetica,sans-Serif" font-size="10.00">swla/swla_time.h</text>
</a>
</g>
</g>
<!-- Node5&#45;&gt;Node11 -->
<g id="edge11" class="edge">
<title>Node5&#45;&gt;Node11</title>
<path fill="none" stroke="midnightblue" d="M2778.07,-176.86C2982.14,-175.46 4566.41,-163.63 4602.5,-132 4631.32,-106.73 4628.98,-57.06 4625.06,-29.88"/>
<polygon fill="midnightblue" stroke="midnightblue" points="4628.47,-29.03 4623.38,-19.74 4621.57,-30.18 4628.47,-29.03"/>
</g>
<!-- Node12 -->
<g id="node12" class="node">
<title>Node12</title>
<g id="a_node12"><a xlink:title=" ">
<polygon fill="white" stroke="#bfbfbf" points="980,-112.5 980,-131.5 1109,-131.5 1109,-112.5 980,-112.5"/>
<text text-anchor="middle" x="1044.5" y="-119.5" font-family="Helvetica,sans-Serif" font-size="10.00">swla/swla_time_spec.h</text>
</a>
</g>
</g>
<!-- Node5&#45;&gt;Node12 -->
<g id="edge12" class="edge">
<title>Node5&#45;&gt;Node12</title>
<path fill="none" stroke="midnightblue" d="M2734.63,-172.12C2726.47,-170.51 2717.1,-168.9 2708.5,-168 2008.82,-94.97 1825.27,-181.9 1119.21,-131.95"/>
<polygon fill="midnightblue" stroke="midnightblue" points="1119.26,-128.45 1109.04,-131.23 1118.76,-135.43 1119.26,-128.45"/>
</g>
<!-- Node13 -->
<g id="node13" class="node">
<title>Node13</title>
<g id="a_node13"><a xlink:title=" ">
<polygon fill="white" stroke="#bfbfbf" points="1127.5,-112.5 1127.5,-131.5 1221.5,-131.5 1221.5,-112.5 1127.5,-112.5"/>
<text text-anchor="middle" x="1174.5" y="-119.5" font-family="Helvetica,sans-Serif" font-size="10.00">swla/swla_oui.h</text>
</a>
</g>
</g>
<!-- Node5&#45;&gt;Node13 -->
<g id="edge13" class="edge">
<title>Node5&#45;&gt;Node13</title>
<path fill="none" stroke="midnightblue" d="M2734.63,-172.13C2726.47,-170.52 2717.1,-168.91 2708.5,-168 2058.38,-99.58 1886.57,-191.32 1231.96,-131.99"/>
<polygon fill="midnightblue" stroke="midnightblue" points="1232.08,-128.49 1221.8,-131.06 1231.44,-135.46 1232.08,-128.49"/>
</g>
<!-- Node14 -->
<g id="node14" class="node">
<title>Node14</title>
<g id="a_node14"><a xlink:title=" ">
<polygon fill="white" stroke="#bfbfbf" points="1239.5,-112.5 1239.5,-131.5 1367.5,-131.5 1367.5,-112.5 1239.5,-112.5"/>
<text text-anchor="middle" x="1303.5" y="-119.5" font-family="Helvetica,sans-Serif" font-size="10.00">swla/swla_delayExec.h</text>
</a>
</g>
</g>
<!-- Node5&#45;&gt;Node14 -->
<g id="edge14" class="edge">
<title>Node5&#45;&gt;Node14</title>
<path fill="none" stroke="midnightblue" d="M2734.62,-172.14C2726.47,-170.53 2717.1,-168.92 2708.5,-168 2122.93,-105.59 1968.79,-175.49 1377.62,-132"/>
<polygon fill="midnightblue" stroke="midnightblue" points="1377.79,-128.5 1367.56,-131.25 1377.27,-135.48 1377.79,-128.5"/>
</g>
<!-- Node15 -->
<g id="node15" class="node">
<title>Node15</title>
<g id="a_node15"><a xlink:title=" ">
<polygon fill="white" stroke="#bfbfbf" points="1386,-112.5 1386,-131.5 1505,-131.5 1505,-112.5 1386,-112.5"/>
<text text-anchor="middle" x="1445.5" y="-119.5" font-family="Helvetica,sans-Serif" font-size="10.00">swla/swla_function.h</text>
</a>
</g>
</g>
<!-- Node5&#45;&gt;Node15 -->
<g id="edge15" class="edge">
<title>Node5&#45;&gt;Node15</title>
<path fill="none" stroke="midnightblue" d="M2734.62,-172.16C2726.46,-170.55 2717.1,-168.93 2708.5,-168 2183.58,-111.23 2044.87,-174.11 1515.36,-132.06"/>
<polygon fill="midnightblue" stroke="midnightblue" points="1515.42,-128.56 1505.17,-131.25 1514.86,-135.53 1515.42,-128.56"/>
</g>
<!-- Node16 -->
<g id="node16" class="node">
<title>Node16</title>
<g id="a_node16"><a xlink:title=" ">
<polygon fill="white" stroke="#bfbfbf" points="1523,-112.5 1523,-131.5 1664,-131.5 1664,-112.5 1523,-112.5"/>
<text text-anchor="middle" x="1593.5" y="-119.5" font-family="Helvetica,sans-Serif" font-size="10.00">swl/swl_usp_cmdStatus.h</text>
</a>
</g>
</g>
<!-- Node5&#45;&gt;Node16 -->
<g id="edge16" class="edge">
<title>Node5&#45;&gt;Node16</title>
<path fill="none" stroke="midnightblue" d="M2734.62,-172.18C2726.46,-170.57 2717.1,-168.95 2708.5,-168 2254.36,-117.82 2134.29,-165.05 1674.38,-131.99"/>
<polygon fill="midnightblue" stroke="midnightblue" points="1674.37,-128.48 1664.14,-131.25 1673.86,-135.46 1674.37,-128.48"/>
</g>
<!-- Node17 -->
<g id="node17" class="node">
<title>Node17</title>
<g id="a_node17"><a xlink:title=" ">
<polygon fill="white" stroke="#bfbfbf" points="1682.5,-112.5 1682.5,-131.5 1768.5,-131.5 1768.5,-112.5 1682.5,-112.5"/>
<text text-anchor="middle" x="1725.5" y="-119.5" font-family="Helvetica,sans-Serif" font-size="10.00">swl/swl_wps.h</text>
</a>
</g>
</g>
<!-- Node5&#45;&gt;Node17 -->
<g id="edge17" class="edge">
<title>Node5&#45;&gt;Node17</title>
<path fill="none" stroke="midnightblue" d="M2734.62,-172.2C2726.46,-170.59 2717.09,-168.97 2708.5,-168 2300.32,-122.09 2191.06,-174.55 1778.68,-131.96"/>
<polygon fill="midnightblue" stroke="midnightblue" points="1778.88,-128.47 1768.57,-130.91 1778.15,-135.43 1778.88,-128.47"/>
</g>
<!-- Node18 -->
<g id="node18" class="node">
<title>Node18</title>
<g id="a_node18"><a xlink:title=" ">
<polygon fill="white" stroke="#bfbfbf" points="1786.5,-112.5 1786.5,-131.5 1890.5,-131.5 1890.5,-112.5 1786.5,-112.5"/>
<text text-anchor="middle" x="1838.5" y="-119.5" font-family="Helvetica,sans-Serif" font-size="10.00">swl/swl_security.h</text>
</a>
</g>
</g>
<!-- Node5&#45;&gt;Node18 -->
<g id="edge18" class="edge">
<title>Node5&#45;&gt;Node18</title>
<path fill="none" stroke="midnightblue" d="M2734.61,-172.22C2726.46,-170.62 2717.09,-168.99 2708.5,-168 2354.28,-127.12 2259.52,-165.58 1900.85,-132.02"/>
<polygon fill="midnightblue" stroke="midnightblue" points="1900.99,-128.52 1890.7,-131.06 1900.33,-135.49 1900.99,-128.52"/>
</g>
<!-- Node19 -->
<g id="node19" class="node">
<title>Node19</title>
<g id="a_node19"><a xlink:title=" ">
<polygon fill="white" stroke="#bfbfbf" points="1909,-112.5 1909,-131.5 1992,-131.5 1992,-112.5 1909,-112.5"/>
<text text-anchor="middle" x="1950.5" y="-119.5" font-family="Helvetica,sans-Serif" font-size="10.00">amxc/amxc.h</text>
</a>
</g>
</g>
<!-- Node5&#45;&gt;Node19 -->
<g id="edge19" class="edge">
<title>Node5&#45;&gt;Node19</title>
<path fill="none" stroke="midnightblue" d="M2734.61,-172.25C2726.45,-170.65 2717.09,-169.02 2708.5,-168 2399.42,-131.32 2315.92,-166.63 2002.48,-131.94"/>
<polygon fill="midnightblue" stroke="midnightblue" points="2002.52,-128.43 1992.19,-130.79 2001.73,-135.38 2002.52,-128.43"/>
</g>
<!-- Node20 -->
<g id="node20" class="node">
<title>Node20</title>
<g id="a_node20"><a xlink:title=" ">
<polygon fill="white" stroke="#bfbfbf" points="2010.5,-112.5 2010.5,-131.5 2094.5,-131.5 2094.5,-112.5 2010.5,-112.5"/>
<text text-anchor="middle" x="2052.5" y="-119.5" font-family="Helvetica,sans-Serif" font-size="10.00">amxp/amxp.h</text>
</a>
</g>
</g>
<!-- Node5&#45;&gt;Node20 -->
<g id="edge20" class="edge">
<title>Node5&#45;&gt;Node20</title>
<path fill="none" stroke="midnightblue" d="M2734.61,-172.29C2726.45,-170.7 2717.08,-169.06 2708.5,-168 2444.41,-135.52 2372.76,-162.78 2104.77,-132.01"/>
<polygon fill="midnightblue" stroke="midnightblue" points="2105.08,-128.52 2094.75,-130.84 2104.27,-135.47 2105.08,-128.52"/>
</g>
<!-- Node21 -->
<g id="node21" class="node">
<title>Node21</title>
<g id="a_node21"><a xlink:title=" ">
<polygon fill="white" stroke="#bfbfbf" points="2112.5,-112.5 2112.5,-131.5 2252.5,-131.5 2252.5,-112.5 2112.5,-112.5"/>
<text text-anchor="middle" x="2182.5" y="-119.5" font-family="Helvetica,sans-Serif" font-size="10.00">amxd/amxd_parameter.h</text>
</a>
</g>
</g>
<!-- Node5&#45;&gt;Node21 -->
<g id="edge21" class="edge">
<title>Node5&#45;&gt;Node21</title>
<path fill="none" stroke="midnightblue" d="M2734.59,-172.39C2726.43,-170.81 2717.07,-169.15 2708.5,-168 2514.23,-142.04 2461.61,-150.97 2262.89,-132.1"/>
<polygon fill="midnightblue" stroke="midnightblue" points="2262.99,-128.59 2252.7,-131.12 2262.32,-135.56 2262.99,-128.59"/>
</g>
<!-- Node22 -->
<g id="node22" class="node">
<title>Node22</title>
<g id="a_node22"><a xlink:title=" ">
<polygon fill="white" stroke="#bfbfbf" points="2271,-112.5 2271,-131.5 2390,-131.5 2390,-112.5 2271,-112.5"/>
<text text-anchor="middle" x="2330.5" y="-119.5" font-family="Helvetica,sans-Serif" font-size="10.00">amxd/amxd_action.h</text>
</a>
</g>
</g>
<!-- Node5&#45;&gt;Node22 -->
<g id="edge22" class="edge">
<title>Node5&#45;&gt;Node22</title>
<path fill="none" stroke="midnightblue" d="M2734.57,-172.56C2726.41,-170.99 2717.05,-169.3 2708.5,-168 2574.58,-147.69 2537.85,-149.02 2400.28,-132.2"/>
<polygon fill="midnightblue" stroke="midnightblue" points="2400.55,-128.71 2390.2,-130.96 2399.69,-135.65 2400.55,-128.71"/>
</g>
<!-- Node23 -->
<g id="node23" class="node">
<title>Node23</title>
<g id="a_node23"><a xlink:title=" ">
<polygon fill="white" stroke="#bfbfbf" points="2408,-112.5 2408,-131.5 2583,-131.5 2583,-112.5 2408,-112.5"/>
<text text-anchor="middle" x="2495.5" y="-119.5" font-family="Helvetica,sans-Serif" font-size="10.00">amxd/amxd_object_parameter.h</text>
</a>
</g>
</g>
<!-- Node5&#45;&gt;Node23 -->
<g id="edge23" class="edge">
<title>Node5&#45;&gt;Node23</title>
<path fill="none" stroke="midnightblue" d="M2734.7,-172.49C2693.67,-164 2603.98,-145.44 2546.83,-133.62"/>
<polygon fill="midnightblue" stroke="midnightblue" points="2547.41,-130.17 2536.91,-131.57 2545.99,-137.02 2547.41,-130.17"/>
</g>
<!-- Node24 -->
<g id="node24" class="node">
<title>Node24</title>
<g id="a_node24"><a xlink:title=" ">
<polygon fill="white" stroke="#bfbfbf" points="2601.5,-112.5 2601.5,-131.5 2753.5,-131.5 2753.5,-112.5 2601.5,-112.5"/>
<text text-anchor="middle" x="2677.5" y="-119.5" font-family="Helvetica,sans-Serif" font-size="10.00">amxd/amxd_object_event.h</text>
</a>
</g>
</g>
<!-- Node5&#45;&gt;Node24 -->
<g id="edge24" class="edge">
<title>Node5&#45;&gt;Node24</title>
<path fill="none" stroke="midnightblue" d="M2743.81,-168.32C2731.6,-159.98 2712.92,-147.21 2698.5,-137.35"/>
<polygon fill="midnightblue" stroke="midnightblue" points="2700.39,-134.41 2690.16,-131.65 2696.44,-140.19 2700.39,-134.41"/>
</g>
<!-- Node25 -->
<g id="node25" class="node">
<title>Node25</title>
<g id="a_node25"><a xlink:title=" ">
<polygon fill="white" stroke="#bfbfbf" points="2772,-112.5 2772,-131.5 2901,-131.5 2901,-112.5 2772,-112.5"/>
<text text-anchor="middle" x="2836.5" y="-119.5" font-family="Helvetica,sans-Serif" font-size="10.00">amxd/amxd_function.h</text>
</a>
</g>
</g>
<!-- Node5&#45;&gt;Node25 -->
<g id="edge25" class="edge">
<title>Node5&#45;&gt;Node25</title>
<path fill="none" stroke="midnightblue" d="M2769.35,-168.32C2781.72,-159.98 2800.63,-147.21 2815.24,-137.35"/>
<polygon fill="midnightblue" stroke="midnightblue" points="2817.35,-140.15 2823.68,-131.65 2813.43,-134.35 2817.35,-140.15"/>
</g>
<!-- Node26 -->
<g id="node26" class="node">
<title>Node26</title>
<g id="a_node26"><a xlink:title=" ">
<polygon fill="white" stroke="#bfbfbf" points="2919,-112.5 2919,-131.5 3088,-131.5 3088,-112.5 2919,-112.5"/>
<text text-anchor="middle" x="3003.5" y="-119.5" font-family="Helvetica,sans-Serif" font-size="10.00">amxd/amxd_object_hierarchy.h</text>
</a>
</g>
</g>
<!-- Node5&#45;&gt;Node26 -->
<g id="edge26" class="edge">
<title>Node5&#45;&gt;Node26</title>
<path fill="none" stroke="midnightblue" d="M2778.42,-172.21C2817.68,-163.62 2900.9,-145.43 2954.41,-133.73"/>
<polygon fill="midnightblue" stroke="midnightblue" points="2955.34,-137.11 2964.37,-131.56 2953.85,-130.27 2955.34,-137.11"/>
</g>
<!-- Node27 -->
<g id="node27" class="node">
<title>Node27</title>
<g id="a_node27"><a xlink:title=" ">
<polygon fill="white" stroke="#bfbfbf" points="3106,-112.5 3106,-131.5 3225,-131.5 3225,-112.5 3106,-112.5"/>
<text text-anchor="middle" x="3165.5" y="-119.5" font-family="Helvetica,sans-Serif" font-size="10.00">amxd/amxd_object.h</text>
</a>
</g>
</g>
<!-- Node5&#45;&gt;Node27 -->
<g id="edge27" class="edge">
<title>Node5&#45;&gt;Node27</title>
<path fill="none" stroke="midnightblue" d="M2778.04,-174.16C2830.48,-167.25 2969.16,-148.96 3095.56,-132.26"/>
<polygon fill="midnightblue" stroke="midnightblue" points="3096.34,-135.68 3105.8,-130.9 3095.42,-128.74 3096.34,-135.68"/>
</g>
<!-- Node28 -->
<g id="node28" class="node">
<title>Node28</title>
<g id="a_node28"><a xlink:title=" ">
<polygon fill="white" stroke="#bfbfbf" points="3243,-112.5 3243,-131.5 3348,-131.5 3348,-112.5 3243,-112.5"/>
<text text-anchor="middle" x="3295.5" y="-119.5" font-family="Helvetica,sans-Serif" font-size="10.00">amxd/amxd_dm.h</text>
</a>
</g>
</g>
<!-- Node5&#45;&gt;Node28 -->
<g id="edge28" class="edge">
<title>Node5&#45;&gt;Node28</title>
<path fill="none" stroke="midnightblue" d="M2778.46,-175.35C2845.16,-170.24 3051.43,-153.79 3232.96,-132.13"/>
<polygon fill="midnightblue" stroke="midnightblue" points="3233.44,-135.6 3242.95,-130.93 3232.6,-128.65 3233.44,-135.6"/>
</g>
<!-- Node29 -->
<g id="node29" class="node">
<title>Node29</title>
<g id="a_node29"><a xlink:title=" ">
<polygon fill="white" stroke="#bfbfbf" points="3366.5,-112.5 3366.5,-131.5 3510.5,-131.5 3510.5,-112.5 3366.5,-112.5"/>
<text text-anchor="middle" x="3438.5" y="-119.5" font-family="Helvetica,sans-Serif" font-size="10.00">amxd/amxd_transaction.h</text>
</a>
</g>
</g>
<!-- Node5&#45;&gt;Node29 -->
<g id="edge29" class="edge">
<title>Node5&#45;&gt;Node29</title>
<path fill="none" stroke="midnightblue" d="M2778.08,-175.67C2855.05,-170.85 3123.41,-153.54 3356.09,-132.1"/>
<polygon fill="midnightblue" stroke="midnightblue" points="3356.46,-135.58 3366.09,-131.18 3355.81,-128.61 3356.46,-135.58"/>
</g>
<!-- Node30 -->
<g id="node30" class="node">
<title>Node30</title>
<g id="a_node30"><a xlink:title=" ">
<polygon fill="white" stroke="#bfbfbf" points="3528.5,-112.5 3528.5,-131.5 3644.5,-131.5 3644.5,-112.5 3528.5,-112.5"/>
<text text-anchor="middle" x="3586.5" y="-119.5" font-family="Helvetica,sans-Serif" font-size="10.00">amxb/amxb_types.h</text>
</a>
</g>
</g>
<!-- Node5&#45;&gt;Node30 -->
<g id="edge30" class="edge">
<title>Node5&#45;&gt;Node30</title>
<path fill="none" stroke="midnightblue" d="M2778.09,-176.32C2867.62,-173.36 3218.6,-160.56 3518.24,-132.05"/>
<polygon fill="midnightblue" stroke="midnightblue" points="3518.81,-135.51 3528.43,-131.07 3518.14,-128.54 3518.81,-135.51"/>
</g>
<!-- Node31 -->
<g id="node31" class="node">
<title>Node31</title>
<g id="a_node31"><a xlink:title=" ">
<polygon fill="white" stroke="#bfbfbf" points="3662.5,-112.5 3662.5,-131.5 3798.5,-131.5 3798.5,-112.5 3662.5,-112.5"/>
<text text-anchor="middle" x="3730.5" y="-119.5" font-family="Helvetica,sans-Serif" font-size="10.00">amxb/amxb_operators.h</text>
</a>
</g>
</g>
<!-- Node5&#45;&gt;Node31 -->
<g id="edge31" class="edge">
<title>Node5&#45;&gt;Node31</title>
<path fill="none" stroke="midnightblue" d="M2778.06,-176.45C2876.87,-173.8 3296.56,-161.34 3651.86,-132.08"/>
<polygon fill="midnightblue" stroke="midnightblue" points="3652.41,-135.55 3662.09,-131.23 3651.83,-128.57 3652.41,-135.55"/>
</g>
<!-- Node32 -->
<g id="node32" class="node">
<title>Node32</title>
<g id="a_node32"><a xlink:title=" ">
<polygon fill="white" stroke="#bfbfbf" points="3816.5,-112.5 3816.5,-131.5 3928.5,-131.5 3928.5,-112.5 3816.5,-112.5"/>
<text text-anchor="middle" x="3872.5" y="-119.5" font-family="Helvetica,sans-Serif" font-size="10.00">amxb/amxb_error.h</text>
</a>
</g>
</g>
<!-- Node5&#45;&gt;Node32 -->
<g id="edge32" class="edge">
<title>Node5&#45;&gt;Node32</title>
<path fill="none" stroke="midnightblue" d="M2778.01,-176.84C2886.7,-175.85 3386.47,-169.44 3805.96,-132.05"/>
<polygon fill="midnightblue" stroke="midnightblue" points="3806.52,-135.51 3816.17,-131.13 3805.89,-128.54 3806.52,-135.51"/>
</g>
<!-- Node33 -->
<g id="node33" class="node">
<title>Node33</title>
<g id="a_node33"><a xlink:title=" ">
<polygon fill="white" stroke="#bfbfbf" points="3947,-112.5 3947,-131.5 4030,-131.5 4030,-112.5 3947,-112.5"/>
<text text-anchor="middle" x="3988.5" y="-119.5" font-family="Helvetica,sans-Serif" font-size="10.00">amxo/amxo.h</text>
</a>
</g>
</g>
<!-- Node5&#45;&gt;Node33 -->
<g id="edge33" class="edge">
<title>Node5&#45;&gt;Node33</title>
<path fill="none" stroke="midnightblue" d="M2778.08,-176.58C2916.3,-173.84 3679.56,-157.78 3936.78,-131.88"/>
<polygon fill="midnightblue" stroke="midnightblue" points="3937.23,-135.35 3946.82,-130.83 3936.51,-128.39 3937.23,-135.35"/>
</g>
<!-- Node34 -->
<g id="node34" class="node">
<title>Node34</title>
<g id="a_node34"><a xlink:title=" ">
<polygon fill="white" stroke="#bfbfbf" points="4048,-112.5 4048,-131.5 4163,-131.5 4163,-112.5 4048,-112.5"/>
<text text-anchor="middle" x="4105.5" y="-119.5" font-family="Helvetica,sans-Serif" font-size="10.00">amxo/amxo_types.h</text>
</a>
</g>
</g>
<!-- Node5&#45;&gt;Node34 -->
<g id="edge34" class="edge">
<title>Node5&#45;&gt;Node34</title>
<path fill="none" stroke="midnightblue" d="M2778.11,-177.05C2900.68,-177.19 3521.04,-175.64 4037.67,-132.07"/>
<polygon fill="midnightblue" stroke="midnightblue" points="4038.28,-135.53 4047.94,-131.19 4037.68,-128.55 4038.28,-135.53"/>
</g>
<!-- Node35 -->
<g id="node35" class="node">
<title>Node35</title>
<g id="a_node35"><a xlink:href="wld__types_8h.html" target="_top" xlink:title=" ">
<polygon fill="white" stroke="red" points="190,-56.5 190,-75.5 265,-75.5 265,-56.5 190,-56.5"/>
<text text-anchor="middle" x="227.5" y="-63.5" font-family="Helvetica,sans-Serif" font-size="10.00">wld_types.h</text>
</a>
</g>
</g>
<!-- Node5&#45;&gt;Node35 -->
<g id="edge35" class="edge">
<title>Node5&#45;&gt;Node35</title>
<path fill="none" stroke="midnightblue" d="M2734.63,-172.08C2726.47,-170.47 2717.1,-168.86 2708.5,-168 2640.45,-161.17 300.93,-173.42 246.5,-132 232.63,-121.45 228.45,-101.32 227.39,-86.25"/>
<polygon fill="midnightblue" stroke="midnightblue" points="230.88,-85.84 227.08,-75.95 223.89,-86.05 230.88,-85.84"/>
</g>
<!-- Node5&#45;&gt;Node38 -->
<g id="edge38" class="edge">
<title>Node5&#45;&gt;Node38</title>
<path fill="none" stroke="midnightblue" d="M2778.11,-176.62C2976.3,-173.13 4475.11,-146.36 4673.5,-132 4674.81,-131.91 4676.13,-131.8 4677.45,-131.7"/>
<polygon fill="midnightblue" stroke="midnightblue" points="4678.13,-135.15 4687.77,-130.77 4677.5,-128.18 4678.13,-135.15"/>
</g>
<!-- Node39 -->
<g id="node37" class="node">
<title>Node39</title>
<g id="a_node37"><a xlink:title=" ">
<polygon fill="white" stroke="#bfbfbf" points="4650,-56.5 4650,-75.5 4775,-75.5 4775,-56.5 4650,-56.5"/>
<text text-anchor="middle" x="4712.5" y="-63.5" font-family="Helvetica,sans-Serif" font-size="10.00">swla/swla_chanspec.h</text>
</a>
</g>
</g>
<!-- Node5&#45;&gt;Node39 -->
<g id="edge56" class="edge">
<title>Node5&#45;&gt;Node39</title>
<path fill="none" stroke="midnightblue" d="M2734.63,-172.09C2726.47,-170.48 2717.1,-168.87 2708.5,-168 2648.58,-161.93 582.73,-174.94 540.5,-132 534.27,-125.66 534.25,-118.32 540.5,-112 578.04,-74.05 4086.19,-67.83 4639.42,-67.09"/>
<polygon fill="midnightblue" stroke="midnightblue" points="4639.66,-70.59 4649.66,-67.07 4639.65,-63.59 4639.66,-70.59"/>
</g>
<!-- Node5&#45;&gt;Node40 -->
<g id="edge42" class="edge">
<title>Node5&#45;&gt;Node40</title>
<path fill="none" stroke="midnightblue" d="M2734.63,-172.08C2726.47,-170.46 2717.11,-168.86 2708.5,-168 2129.33,-110.15 669.06,-185.8 89.5,-132 88.19,-131.88 86.87,-131.74 85.53,-131.59"/>
<polygon fill="midnightblue" stroke="midnightblue" points="85.55,-128.07 75.18,-130.24 84.64,-135.01 85.55,-128.07"/>
</g>
<!-- Node41 -->
<g id="node39" class="node">
<title>Node41</title>
<g id="a_node39"><a xlink:href="wld__rad__delayMgr_8h.html" target="_top" xlink:title=" ">
<polygon fill="white" stroke="black" points="4181.5,-112.5 4181.5,-131.5 4295.5,-131.5 4295.5,-112.5 4181.5,-112.5"/>
<text text-anchor="middle" x="4238.5" y="-119.5" font-family="Helvetica,sans-Serif" font-size="10.00">wld_rad_delayMgr.h</text>
</a>
</g>
</g>
<!-- Node5&#45;&gt;Node41 -->
<g id="edge44" class="edge">
<title>Node5&#45;&gt;Node41</title>
<path fill="none" stroke="midnightblue" d="M2778.09,-176.58C2933.15,-173.69 3877.04,-156.02 4163.5,-132 4166.02,-131.79 4168.59,-131.55 4171.19,-131.28"/>
<polygon fill="midnightblue" stroke="midnightblue" points="4171.77,-134.74 4181.33,-130.17 4171.01,-127.78 4171.77,-134.74"/>
</g>
<!-- Node42 -->
<g id="node40" class="node">
<title>Node42</title>
<g id="a_node40"><a xlink:href="wld__fsm_8h.html" target="_top" xlink:title=" ">
<polygon fill="white" stroke="black" points="256,-112.5 256,-131.5 323,-131.5 323,-112.5 256,-112.5"/>
<text text-anchor="middle" x="289.5" y="-119.5" font-family="Helvetica,sans-Serif" font-size="10.00">wld_fsm.h</text>
</a>
</g>
</g>
<!-- Node5&#45;&gt;Node42 -->
<g id="edge46" class="edge">
<title>Node5&#45;&gt;Node42</title>
<path fill="none" stroke="midnightblue" d="M2734.63,-172.09C2726.47,-170.47 2717.1,-168.87 2708.5,-168 2186.43,-115.49 874.12,-189.41 333.47,-131.81"/>
<polygon fill="midnightblue" stroke="midnightblue" points="333.52,-128.29 323.2,-130.69 332.76,-135.25 333.52,-128.29"/>
</g>
<!-- Node43 -->
<g id="node41" class="node">
<title>Node43</title>
<g id="a_node41"><a xlink:href="wld__sensing_8h.html" target="_top" xlink:title=" ">
<polygon fill="white" stroke="black" points="4313.5,-112.5 4313.5,-131.5 4399.5,-131.5 4399.5,-112.5 4313.5,-112.5"/>
<text text-anchor="middle" x="4356.5" y="-119.5" font-family="Helvetica,sans-Serif" font-size="10.00">wld_sensing.h</text>
</a>
</g>
</g>
<!-- Node5&#45;&gt;Node43 -->
<g id="edge48" class="edge">
<title>Node5&#45;&gt;Node43</title>
<path fill="none" stroke="midnightblue" d="M2778.18,-176.77C2941.7,-175.08 3981.5,-163.57 4295.5,-132 4298.01,-131.75 4300.59,-131.44 4303.19,-131.11"/>
<polygon fill="midnightblue" stroke="midnightblue" points="4303.92,-134.54 4313.32,-129.65 4302.93,-127.61 4303.92,-134.54"/>
</g>
<!-- Node44 -->
<g id="node42" class="node">
<title>Node44</title>
<g id="a_node42"><a xlink:href="wld__mld_8h.html" target="_top" xlink:title=" ">
<polygon fill="white" stroke="black" points="132,-112.5 132,-131.5 199,-131.5 199,-112.5 132,-112.5"/>
<text text-anchor="middle" x="165.5" y="-119.5" font-family="Helvetica,sans-Serif" font-size="10.00">wld_mld.h</text>
</a>
</g>
</g>
<!-- Node5&#45;&gt;Node44 -->
<g id="edge50" class="edge">
<title>Node5&#45;&gt;Node44</title>
<path fill="none" stroke="midnightblue" d="M2734.63,-172.08C2726.47,-170.47 2717.11,-168.86 2708.5,-168 2156.76,-112.7 765.24,-187.3 213.5,-132 212.2,-131.87 210.87,-131.72 209.54,-131.56"/>
<polygon fill="midnightblue" stroke="midnightblue" points="209.62,-128.03 199.22,-130.07 208.62,-134.96 209.62,-128.03"/>
</g>
<!-- Node45 -->
<g id="node43" class="node">
<title>Node45</title>
<g id="a_node43"><a xlink:href="wld__autoCommitRadData_8h.html" target="_top" xlink:title=" ">
<polygon fill="white" stroke="black" points="4417.5,-112.5 4417.5,-131.5 4593.5,-131.5 4593.5,-112.5 4417.5,-112.5"/>
<text text-anchor="middle" x="4505.5" y="-119.5" font-family="Helvetica,sans-Serif" font-size="10.00">Utils/wld_autoCommitRadData.h</text>
</a>
</g>
</g>
<!-- Node5&#45;&gt;Node45 -->
<g id="edge52" class="edge">
<title>Node5&#45;&gt;Node45</title>
<path fill="none" stroke="midnightblue" d="M2778.17,-176.6C2946.56,-173.51 4048.74,-152.69 4407.36,-132.01"/>
<polygon fill="midnightblue" stroke="midnightblue" points="4407.71,-135.5 4417.49,-131.42 4407.3,-128.51 4407.71,-135.5"/>
</g>
<!-- Node46 -->
<g id="node44" class="node">
<title>Node46</title>
<g id="a_node44"><a xlink:href="wld__dmnMgt_8h.html" target="_top" xlink:title=" ">
<polygon fill="white" stroke="red" points="341.5,-112.5 341.5,-131.5 455.5,-131.5 455.5,-112.5 341.5,-112.5"/>
<text text-anchor="middle" x="398.5" y="-119.5" font-family="Helvetica,sans-Serif" font-size="10.00">Utils/wld_dmnMgt.h</text>
</a>
</g>
</g>
<!-- Node5&#45;&gt;Node46 -->
<g id="edge53" class="edge">
<title>Node5&#45;&gt;Node46</title>
<path fill="none" stroke="midnightblue" d="M2734.63,-172.09C2726.47,-170.47 2717.1,-168.87 2708.5,-168 2213.4,-117.97 965.86,-167.34 469.5,-132 468.38,-131.92 467.26,-131.84 466.13,-131.75"/>
<polygon fill="midnightblue" stroke="midnightblue" points="466.07,-128.23 455.8,-130.81 465.44,-135.2 466.07,-128.23"/>
</g>
<!-- Node5&#45;&gt;Node50 -->
<g id="edge57" class="edge">
<title>Node5&#45;&gt;Node50</title>
<path fill="none" stroke="midnightblue" d="M2778.11,-176.93C2968.97,-176.26 4370.17,-170.1 4814.73,-132.02"/>
<polygon fill="midnightblue" stroke="midnightblue" points="4815.08,-135.5 4824.74,-131.14 4814.47,-128.53 4815.08,-135.5"/>
</g>
<!-- Node35&#45;&gt;Node6 -->
<g id="edge36" class="edge">
<title>Node35&#45;&gt;Node6</title>
<path fill="none" stroke="midnightblue" d="M217.54,-56.32C208.37,-48.34 194.56,-36.31 183.47,-26.65"/>
<polygon fill="midnightblue" stroke="midnightblue" points="185.48,-23.76 175.64,-19.83 180.88,-29.04 185.48,-23.76"/>
</g>
<!-- Node35&#45;&gt;Node11 -->
<g id="edge37" class="edge">
<title>Node35&#45;&gt;Node11</title>
<path fill="none" stroke="midnightblue" d="M265.14,-62.21C295.25,-60.1 338.56,-57.35 376.5,-56 1243.64,-25.23 4106.75,-12.99 4560.64,-11.23"/>
<polygon fill="midnightblue" stroke="midnightblue" points="4560.93,-14.73 4570.91,-11.19 4560.9,-7.73 4560.93,-14.73"/>
</g>
<!-- Node38&#45;&gt;Node3 -->
<g id="edge39" class="edge">
<title>Node38&#45;&gt;Node3</title>
<path fill="none" stroke="midnightblue" d="M4765.72,-112.44C4784.4,-103.68 4813.66,-89.94 4835.12,-79.86"/>
<polygon fill="midnightblue" stroke="midnightblue" points="4836.8,-82.93 4844.36,-75.52 4833.82,-76.6 4836.8,-82.93"/>
</g>
<!-- Node38&#45;&gt;Node11 -->
<g id="edge41" class="edge">
<title>Node38&#45;&gt;Node11</title>
<path fill="none" stroke="midnightblue" d="M4758.83,-112.35C4774.35,-99.45 4798.74,-74.7 4784.5,-56 4771.89,-39.44 4723.24,-27.42 4682.34,-19.99"/>
<polygon fill="midnightblue" stroke="midnightblue" points="4682.86,-16.53 4672.4,-18.24 4681.65,-23.42 4682.86,-16.53"/>
</g>
<!-- Node38&#45;&gt;Node39 -->
<g id="edge40" class="edge">
<title>Node38&#45;&gt;Node39</title>
<path fill="none" stroke="midnightblue" d="M4741.72,-112.08C4736.83,-104.53 4729.67,-93.49 4723.67,-84.23"/>
<polygon fill="midnightblue" stroke="midnightblue" points="4726.55,-82.24 4718.17,-75.75 4720.67,-86.05 4726.55,-82.24"/>
</g>
<!-- Node40&#45;&gt;Node35 -->
<g id="edge43" class="edge">
<title>Node40&#45;&gt;Node35</title>
<path fill="none" stroke="midnightblue" d="M67.61,-112.44C100.13,-103.2 152.08,-88.44 187.89,-78.26"/>
<polygon fill="midnightblue" stroke="midnightblue" points="188.87,-81.62 197.53,-75.52 186.96,-74.88 188.87,-81.62"/>
</g>
<!-- Node41&#45;&gt;Node5 -->
<g id="edge45" class="edge">
<title>Node41&#45;&gt;Node5</title>
<path fill="none" stroke="midnightblue" d="M4186.75,-131.53C4184.98,-131.7 4183.23,-131.86 4181.5,-132 3898.23,-155.75 2972.1,-173.3 2788.32,-176.48"/>
<polygon fill="midnightblue" stroke="midnightblue" points="2788.16,-172.98 2778.23,-176.65 2788.29,-179.98 2788.16,-172.98"/>
</g>
<!-- Node42&#45;&gt;Node35 -->
<g id="edge47" class="edge">
<title>Node42&#45;&gt;Node35</title>
<path fill="none" stroke="midnightblue" d="M279.54,-112.32C270.37,-104.34 256.56,-92.31 245.47,-82.65"/>
<polygon fill="midnightblue" stroke="midnightblue" points="247.48,-79.76 237.64,-75.83 242.88,-85.04 247.48,-79.76"/>
</g>
<!-- Node43&#45;&gt;Node5 -->
<g id="edge49" class="edge">
<title>Node43&#45;&gt;Node5</title>
<path fill="none" stroke="midnightblue" d="M4317.93,-131.51C4316.44,-131.69 4314.96,-131.85 4313.5,-132 4002.87,-163.24 2981.9,-174.83 2788.3,-176.72"/>
<polygon fill="midnightblue" stroke="midnightblue" points="2788.18,-173.22 2778.21,-176.81 2788.25,-180.22 2788.18,-173.22"/>
</g>
<!-- Node44&#45;&gt;Node35 -->
<g id="edge51" class="edge">
<title>Node44&#45;&gt;Node35</title>
<path fill="none" stroke="midnightblue" d="M175.46,-112.32C184.63,-104.34 198.44,-92.31 209.53,-82.65"/>
<polygon fill="midnightblue" stroke="midnightblue" points="212.12,-85.04 217.36,-75.83 207.52,-79.76 212.12,-85.04"/>
</g>
<!-- Node46&#45;&gt;Node7 -->
<g id="edge54" class="edge">
<title>Node46&#45;&gt;Node7</title>
<path fill="none" stroke="midnightblue" d="M405.44,-112.08C411.43,-104.38 420.25,-93.03 427.55,-83.65"/>
<polygon fill="midnightblue" stroke="midnightblue" points="430.32,-85.79 433.69,-75.75 424.79,-81.5 430.32,-85.79"/>
</g>
<!-- Node46&#45;&gt;Node35 -->
<g id="edge55" class="edge">
<title>Node46&#45;&gt;Node35</title>
<path fill="none" stroke="midnightblue" d="M371.4,-112.44C342.51,-103.32 296.58,-88.81 264.39,-78.65"/>
<polygon fill="midnightblue" stroke="midnightblue" points="265.06,-75.19 254.47,-75.52 262.95,-81.87 265.06,-75.19"/>
</g>
<!-- Node77&#45;&gt;Node5 -->
<g id="edge59" class="edge">
<title>Node77&#45;&gt;Node5</title>
<path fill="none" stroke="midnightblue" d="M2847.15,-224.32C2829.83,-215.66 2802.98,-202.24 2783,-192.25"/>
<polygon fill="midnightblue" stroke="midnightblue" points="2784.32,-189 2773.81,-187.65 2781.19,-195.26 2784.32,-189"/>
</g>
<!-- Node79&#45;&gt;Node5 -->
<g id="edge63" class="edge">
<title>Node79&#45;&gt;Node5</title>
<path fill="none" stroke="midnightblue" d="M2985.17,-280.33C2977.67,-266.23 2960.9,-238.49 2938.5,-224 2891.9,-193.87 2826.66,-183.92 2788.27,-180.62"/>
<polygon fill="midnightblue" stroke="midnightblue" points="2788.42,-177.13 2778.19,-179.86 2787.89,-184.11 2788.42,-177.13"/>
</g>
<!-- Node79&#45;&gt;Node81 -->
<g id="edge64" class="edge">
<title>Node79&#45;&gt;Node81</title>
<path fill="none" stroke="midnightblue" d="M2998.58,-280.08C3006.67,-272.14 3018.7,-260.34 3028.41,-250.8"/>
<polygon fill="midnightblue" stroke="midnightblue" points="3030.9,-253.25 3035.59,-243.75 3026,-248.26 3030.9,-253.25"/>
</g>
<!-- Node81&#45;&gt;Node5 -->
<g id="edge65" class="edge">
<title>Node81&#45;&gt;Node5</title>
<path fill="none" stroke="midnightblue" d="M3001.38,-224.92C2942.96,-213.96 2840,-194.66 2788.18,-184.94"/>
<polygon fill="midnightblue" stroke="midnightblue" points="2788.7,-181.48 2778.23,-183.07 2787.41,-188.36 2788.7,-181.48"/>
</g>
<!-- Node81&#45;&gt;Node38 -->
<g id="edge66" class="edge">
<title>Node81&#45;&gt;Node38</title>
<path fill="none" stroke="midnightblue" d="M3087.68,-231.26C3276.04,-223.48 4044.61,-189.69 4673.5,-132 4674.8,-131.88 4676.12,-131.76 4677.45,-131.63"/>
<polygon fill="midnightblue" stroke="midnightblue" points="4678.17,-135.07 4687.76,-130.57 4677.45,-128.11 4678.17,-135.07"/>
</g>
<!-- Node86&#45;&gt;Node5 -->
<g id="edge69" class="edge">
<title>Node86&#45;&gt;Node5</title>
<path fill="none" stroke="midnightblue" d="M2766.52,-224.08C2764.93,-216.93 2762.64,-206.64 2760.65,-197.69"/>
<polygon fill="midnightblue" stroke="midnightblue" points="2764.03,-196.75 2758.44,-187.75 2757.2,-198.27 2764.03,-196.75"/>
</g>
</g>
</svg>
