<?xml version="1.0" encoding="UTF-8" standalone="no"?>
<!DOCTYPE svg PUBLIC "-//W3C//DTD SVG 1.1//EN"
 "http://www.w3.org/Graphics/SVG/1.1/DTD/svg11.dtd">
<!-- Generated by graphviz version 2.43.0 (0)
 -->
<!-- Title: test/testHelper/wld_th_radio.c Pages: 1 -->
<svg width="4021pt" height="207pt"
 viewBox="0.00 0.00 4021.00 207.00" xmlns="http://www.w3.org/2000/svg" xmlns:xlink="http://www.w3.org/1999/xlink">
<g id="graph0" class="graph" transform="scale(1 1) rotate(0) translate(4 203)">
<title>test/testHelper/wld_th_radio.c</title>
<polygon fill="white" stroke="transparent" points="-4,4 -4,-203 4017,-203 4017,4 -4,4"/>
<!-- Node1 -->
<g id="node1" class="node">
<title>Node1</title>
<g id="a_node1"><a xlink:title=" ">
<polygon fill="#bfbfbf" stroke="black" points="2663.5,-168.5 2663.5,-198.5 2773.5,-198.5 2773.5,-168.5 2663.5,-168.5"/>
<text text-anchor="start" x="2671.5" y="-186.5" font-family="Helvetica,sans-Serif" font-size="10.00">test/testHelper/wld</text>
<text text-anchor="middle" x="2718.5" y="-175.5" font-family="Helvetica,sans-Serif" font-size="10.00">_th_radio.c</text>
</a>
</g>
</g>
<!-- Node2 -->
<g id="node2" class="node">
<title>Node2</title>
<g id="a_node2"><a xlink:title=" ">
<polygon fill="white" stroke="#bfbfbf" points="1951.5,-112.5 1951.5,-131.5 2035.5,-131.5 2035.5,-112.5 1951.5,-112.5"/>
<text text-anchor="middle" x="1993.5" y="-119.5" font-family="Helvetica,sans-Serif" font-size="10.00">sys/signalfd.h</text>
</a>
</g>
</g>
<!-- Node1&#45;&gt;Node2 -->
<g id="edge1" class="edge">
<title>Node1&#45;&gt;Node2</title>
<path fill="none" stroke="midnightblue" d="M2663.27,-180.23C2549.59,-175.16 2281.03,-161.09 2045.86,-132.05"/>
<polygon fill="midnightblue" stroke="midnightblue" points="2046.11,-128.56 2035.75,-130.79 2045.24,-135.5 2046.11,-128.56"/>
</g>
<!-- Node3 -->
<g id="node3" class="node">
<title>Node3</title>
<g id="a_node3"><a xlink:title=" ">
<polygon fill="white" stroke="#bfbfbf" points="2054,-112.5 2054,-131.5 2109,-131.5 2109,-112.5 2054,-112.5"/>
<text text-anchor="middle" x="2081.5" y="-119.5" font-family="Helvetica,sans-Serif" font-size="10.00">signal.h</text>
</a>
</g>
</g>
<!-- Node1&#45;&gt;Node3 -->
<g id="edge2" class="edge">
<title>Node1&#45;&gt;Node3</title>
<path fill="none" stroke="midnightblue" d="M2663.14,-180.7C2558.63,-176.68 2325.06,-164.75 2119.37,-131.88"/>
<polygon fill="midnightblue" stroke="midnightblue" points="2119.72,-128.39 2109.29,-130.25 2118.6,-135.3 2119.72,-128.39"/>
</g>
<!-- Node4 -->
<g id="node4" class="node">
<title>Node4</title>
<g id="a_node4"><a xlink:title=" ">
<polygon fill="white" stroke="#bfbfbf" points="2127.5,-112.5 2127.5,-131.5 2183.5,-131.5 2183.5,-112.5 2127.5,-112.5"/>
<text text-anchor="middle" x="2155.5" y="-119.5" font-family="Helvetica,sans-Serif" font-size="10.00">unistd.h</text>
</a>
</g>
</g>
<!-- Node1&#45;&gt;Node4 -->
<g id="edge3" class="edge">
<title>Node1&#45;&gt;Node4</title>
<path fill="none" stroke="midnightblue" d="M2663.26,-179.8C2568.85,-174.61 2370.34,-161.24 2193.69,-131.98"/>
<polygon fill="midnightblue" stroke="midnightblue" points="2194.14,-128.5 2183.7,-130.3 2192.98,-135.4 2194.14,-128.5"/>
</g>
<!-- Node5 -->
<g id="node5" class="node">
<title>Node5</title>
<g id="a_node5"><a xlink:title=" ">
<polygon fill="white" stroke="#bfbfbf" points="2201.5,-112.5 2201.5,-131.5 2265.5,-131.5 2265.5,-112.5 2201.5,-112.5"/>
<text text-anchor="middle" x="2233.5" y="-119.5" font-family="Helvetica,sans-Serif" font-size="10.00">sys/stat.h</text>
</a>
</g>
</g>
<!-- Node1&#45;&gt;Node5 -->
<g id="edge4" class="edge">
<title>Node1&#45;&gt;Node5</title>
<path fill="none" stroke="midnightblue" d="M2663.22,-178.05C2580.87,-171.02 2420.98,-155.82 2275.66,-132.04"/>
<polygon fill="midnightblue" stroke="midnightblue" points="2276.11,-128.57 2265.67,-130.39 2274.96,-135.47 2276.11,-128.57"/>
</g>
<!-- Node6 -->
<g id="node6" class="node">
<title>Node6</title>
<g id="a_node6"><a xlink:title=" ">
<polygon fill="white" stroke="#bfbfbf" points="2284,-112.5 2284,-131.5 2337,-131.5 2337,-112.5 2284,-112.5"/>
<text text-anchor="middle" x="2310.5" y="-119.5" font-family="Helvetica,sans-Serif" font-size="10.00">stdlib.h</text>
</a>
</g>
</g>
<!-- Node1&#45;&gt;Node6 -->
<g id="edge5" class="edge">
<title>Node1&#45;&gt;Node6</title>
<path fill="none" stroke="midnightblue" d="M2663.36,-176.93C2592.45,-169.35 2465.38,-154.32 2347.12,-131.92"/>
<polygon fill="midnightblue" stroke="midnightblue" points="2347.64,-128.46 2337.16,-130.01 2346.33,-135.33 2347.64,-128.46"/>
</g>
<!-- Node7 -->
<g id="node7" class="node">
<title>Node7</title>
<g id="a_node7"><a xlink:title=" ">
<polygon fill="white" stroke="#bfbfbf" points="2355.5,-112.5 2355.5,-131.5 2405.5,-131.5 2405.5,-112.5 2355.5,-112.5"/>
<text text-anchor="middle" x="2380.5" y="-119.5" font-family="Helvetica,sans-Serif" font-size="10.00">stdio.h</text>
</a>
</g>
</g>
<!-- Node1&#45;&gt;Node7 -->
<g id="edge6" class="edge">
<title>Node1&#45;&gt;Node7</title>
<path fill="none" stroke="midnightblue" d="M2663.29,-174.92C2604.3,-166.47 2507.88,-151.64 2415.74,-132.1"/>
<polygon fill="midnightblue" stroke="midnightblue" points="2416.2,-128.62 2405.69,-129.95 2414.73,-135.47 2416.2,-128.62"/>
</g>
<!-- Node8 -->
<g id="node8" class="node">
<title>Node8</title>
<g id="a_node8"><a xlink:title=" ">
<polygon fill="white" stroke="#bfbfbf" points="2424,-112.5 2424,-131.5 2483,-131.5 2483,-112.5 2424,-112.5"/>
<text text-anchor="middle" x="2453.5" y="-119.5" font-family="Helvetica,sans-Serif" font-size="10.00">setjmp.h</text>
</a>
</g>
</g>
<!-- Node1&#45;&gt;Node8 -->
<g id="edge7" class="edge">
<title>Node1&#45;&gt;Node8</title>
<path fill="none" stroke="midnightblue" d="M2663.21,-170.26C2619.68,-160.59 2557.19,-146.66 2493.17,-132.14"/>
<polygon fill="midnightblue" stroke="midnightblue" points="2493.83,-128.7 2483.31,-129.9 2492.28,-135.53 2493.83,-128.7"/>
</g>
<!-- Node9 -->
<g id="node9" class="node">
<title>Node9</title>
<g id="a_node9"><a xlink:title=" ">
<polygon fill="white" stroke="#bfbfbf" points="2501.5,-112.5 2501.5,-131.5 2557.5,-131.5 2557.5,-112.5 2501.5,-112.5"/>
<text text-anchor="middle" x="2529.5" y="-119.5" font-family="Helvetica,sans-Serif" font-size="10.00">stdarg.h</text>
</a>
</g>
</g>
<!-- Node1&#45;&gt;Node9 -->
<g id="edge8" class="edge">
<title>Node1&#45;&gt;Node9</title>
<path fill="none" stroke="midnightblue" d="M2673.71,-168.4C2641.05,-158.12 2597.32,-144.35 2566.61,-134.68"/>
<polygon fill="midnightblue" stroke="midnightblue" points="2567.31,-131.24 2556.73,-131.57 2565.21,-137.91 2567.31,-131.24"/>
</g>
<!-- Node10 -->
<g id="node10" class="node">
<title>Node10</title>
<g id="a_node10"><a xlink:title=" ">
<polygon fill="white" stroke="#bfbfbf" points="2576,-112.5 2576,-131.5 2639,-131.5 2639,-112.5 2576,-112.5"/>
<text text-anchor="middle" x="2607.5" y="-119.5" font-family="Helvetica,sans-Serif" font-size="10.00">cmocka.h</text>
</a>
</g>
</g>
<!-- Node1&#45;&gt;Node10 -->
<g id="edge9" class="edge">
<title>Node1&#45;&gt;Node10</title>
<path fill="none" stroke="midnightblue" d="M2692.19,-168.4C2674.24,-158.77 2650.58,-146.09 2632.83,-136.58"/>
<polygon fill="midnightblue" stroke="midnightblue" points="2634.12,-133.3 2623.65,-131.66 2630.81,-139.47 2634.12,-133.3"/>
</g>
<!-- Node11 -->
<g id="node11" class="node">
<title>Node11</title>
<g id="a_node11"><a xlink:href="wld_8h.html" target="_top" xlink:title=" ">
<polygon fill="white" stroke="red" points="2455,-56.5 2455,-75.5 2498,-75.5 2498,-56.5 2455,-56.5"/>
<text text-anchor="middle" x="2476.5" y="-63.5" font-family="Helvetica,sans-Serif" font-size="10.00">wld.h</text>
</a>
</g>
</g>
<!-- Node1&#45;&gt;Node11 -->
<g id="edge10" class="edge">
<title>Node1&#45;&gt;Node11</title>
<path fill="none" stroke="midnightblue" d="M2773.77,-180.26C2844.92,-176.08 2962.62,-164.35 2989.5,-132 2995.18,-125.16 2995.5,-118.55 2989.5,-112 2956.95,-76.47 2615.38,-68.87 2508.37,-67.35"/>
<polygon fill="midnightblue" stroke="midnightblue" points="2508.24,-63.85 2498.2,-67.22 2508.15,-70.85 2508.24,-63.85"/>
</g>
<!-- Node83 -->
<g id="node42" class="node">
<title>Node83</title>
<g id="a_node42"><a xlink:href="wld__th__radio_8h.html" target="_top" xlink:title=" ">
<polygon fill="white" stroke="red" points="3649.5,-56.5 3649.5,-75.5 3737.5,-75.5 3737.5,-56.5 3649.5,-56.5"/>
<text text-anchor="middle" x="3693.5" y="-63.5" font-family="Helvetica,sans-Serif" font-size="10.00">wld_th_radio.h</text>
</a>
</g>
</g>
<!-- Node1&#45;&gt;Node83 -->
<g id="edge41" class="edge">
<title>Node1&#45;&gt;Node83</title>
<path fill="none" stroke="midnightblue" d="M2773.51,-182.1C2934.64,-180.46 3403.42,-172.27 3550.5,-132 3569.29,-126.86 3571.88,-120.32 3589.5,-112 3614.07,-100.4 3642.4,-88.22 3663.29,-79.46"/>
<polygon fill="midnightblue" stroke="midnightblue" points="3664.72,-82.65 3672.6,-75.57 3662.03,-76.19 3664.72,-82.65"/>
</g>
<!-- Node91 -->
<g id="node43" class="node">
<title>Node91</title>
<g id="a_node43"><a xlink:href="wld__util_8h.html" target="_top" xlink:title=" ">
<polygon fill="white" stroke="black" points="3036.5,-112.5 3036.5,-131.5 3100.5,-131.5 3100.5,-112.5 3036.5,-112.5"/>
<text text-anchor="middle" x="3068.5" y="-119.5" font-family="Helvetica,sans-Serif" font-size="10.00">wld_util.h</text>
</a>
</g>
</g>
<!-- Node1&#45;&gt;Node91 -->
<g id="edge48" class="edge">
<title>Node1&#45;&gt;Node91</title>
<path fill="none" stroke="midnightblue" d="M2773.5,-173.85C2834.45,-164.15 2935.63,-147.71 3022.5,-132 3023.76,-131.77 3025.04,-131.54 3026.33,-131.3"/>
<polygon fill="midnightblue" stroke="midnightblue" points="3027.17,-134.7 3036.35,-129.41 3025.88,-127.82 3027.17,-134.7"/>
</g>
<!-- Node92 -->
<g id="node44" class="node">
<title>Node92</title>
<g id="a_node44"><a xlink:href="wld__th__mockVendor_8h.html" target="_top" xlink:title=" ">
<polygon fill="white" stroke="red" points="2657,-112.5 2657,-131.5 2780,-131.5 2780,-112.5 2657,-112.5"/>
<text text-anchor="middle" x="2718.5" y="-119.5" font-family="Helvetica,sans-Serif" font-size="10.00">wld_th_mockVendor.h</text>
</a>
</g>
</g>
<!-- Node1&#45;&gt;Node92 -->
<g id="edge50" class="edge">
<title>Node1&#45;&gt;Node92</title>
<path fill="none" stroke="midnightblue" d="M2718.5,-168.4C2718.5,-160.47 2718.5,-150.46 2718.5,-141.86"/>
<polygon fill="midnightblue" stroke="midnightblue" points="2722,-141.66 2718.5,-131.66 2715,-141.66 2722,-141.66"/>
</g>
<!-- Node93 -->
<g id="node45" class="node">
<title>Node93</title>
<g id="a_node45"><a xlink:title=" ">
<polygon fill="white" stroke="#bfbfbf" points="3598,-112.5 3598,-131.5 3699,-131.5 3699,-112.5 3598,-112.5"/>
<text text-anchor="middle" x="3648.5" y="-119.5" font-family="Helvetica,sans-Serif" font-size="10.00">test&#45;toolbox/ttb.h</text>
</a>
</g>
</g>
<!-- Node1&#45;&gt;Node93 -->
<g id="edge52" class="edge">
<title>Node1&#45;&gt;Node93</title>
<path fill="none" stroke="midnightblue" d="M2773.52,-180.8C2910.6,-176.24 3278.28,-161.99 3583.5,-132 3584.81,-131.87 3586.13,-131.74 3587.46,-131.6"/>
<polygon fill="midnightblue" stroke="midnightblue" points="3588.27,-135.03 3597.8,-130.41 3587.47,-128.07 3588.27,-135.03"/>
</g>
<!-- Node94 -->
<g id="node46" class="node">
<title>Node94</title>
<g id="a_node46"><a xlink:href="wld__th__vap_8h.html" target="_top" xlink:title=" ">
<polygon fill="white" stroke="red" points="3358,-112.5 3358,-131.5 3439,-131.5 3439,-112.5 3358,-112.5"/>
<text text-anchor="middle" x="3398.5" y="-119.5" font-family="Helvetica,sans-Serif" font-size="10.00">wld_th_vap.h</text>
</a>
</g>
</g>
<!-- Node1&#45;&gt;Node94 -->
<g id="edge53" class="edge">
<title>Node1&#45;&gt;Node94</title>
<path fill="none" stroke="midnightblue" d="M2773.57,-177.68C2902.58,-166.39 3222.86,-138.37 3347.62,-127.45"/>
<polygon fill="midnightblue" stroke="midnightblue" points="3348.01,-130.93 3357.67,-126.57 3347.4,-123.96 3348.01,-130.93"/>
</g>
<!-- Node97 -->
<g id="node47" class="node">
<title>Node97</title>
<g id="a_node47"><a xlink:href="wld__th__ep_8h.html" target="_top" xlink:title=" ">
<polygon fill="white" stroke="red" points="3466,-112.5 3466,-131.5 3541,-131.5 3541,-112.5 3466,-112.5"/>
<text text-anchor="middle" x="3503.5" y="-119.5" font-family="Helvetica,sans-Serif" font-size="10.00">wld_th_ep.h</text>
</a>
</g>
</g>
<!-- Node1&#45;&gt;Node97 -->
<g id="edge61" class="edge">
<title>Node1&#45;&gt;Node97</title>
<path fill="none" stroke="midnightblue" d="M2773.61,-180.44C2895.56,-175.5 3197.38,-161.17 3448.5,-132 3450.98,-131.71 3453.52,-131.39 3456.08,-131.05"/>
<polygon fill="midnightblue" stroke="midnightblue" points="3456.59,-134.51 3465.99,-129.62 3455.59,-127.58 3456.59,-134.51"/>
</g>
<!-- Node98 -->
<g id="node48" class="node">
<title>Node98</title>
<g id="a_node48"><a xlink:href="wld__radio_8h.html" target="_top" xlink:title=" ">
<polygon fill="white" stroke="red" points="2798,-112.5 2798,-131.5 2871,-131.5 2871,-112.5 2798,-112.5"/>
<text text-anchor="middle" x="2834.5" y="-119.5" font-family="Helvetica,sans-Serif" font-size="10.00">wld_radio.h</text>
</a>
</g>
</g>
<!-- Node1&#45;&gt;Node98 -->
<g id="edge69" class="edge">
<title>Node1&#45;&gt;Node98</title>
<path fill="none" stroke="midnightblue" d="M2745.99,-168.4C2764.93,-158.68 2789.94,-145.86 2808.54,-136.31"/>
<polygon fill="midnightblue" stroke="midnightblue" points="2810.32,-139.34 2817.62,-131.66 2807.13,-133.11 2810.32,-139.34"/>
</g>
<!-- Node105 -->
<g id="node49" class="node">
<title>Node105</title>
<g id="a_node49"><a xlink:href="wld__chanmgt_8h.html" target="_top" xlink:title=" ">
<polygon fill="white" stroke="red" points="2889,-112.5 2889,-131.5 2980,-131.5 2980,-112.5 2889,-112.5"/>
<text text-anchor="middle" x="2934.5" y="-119.5" font-family="Helvetica,sans-Serif" font-size="10.00">wld_chanmgt.h</text>
</a>
</g>
</g>
<!-- Node1&#45;&gt;Node105 -->
<g id="edge71" class="edge">
<title>Node1&#45;&gt;Node105</title>
<path fill="none" stroke="midnightblue" d="M2769.42,-168.47C2807.33,-158.03 2858.42,-143.96 2893.67,-134.25"/>
<polygon fill="midnightblue" stroke="midnightblue" points="2894.91,-137.54 2903.62,-131.51 2893.05,-130.79 2894.91,-137.54"/>
</g>
<!-- Node106 -->
<g id="node50" class="node">
<title>Node106</title>
<g id="a_node50"><a xlink:title=" ">
<polygon fill="white" stroke="#bfbfbf" points="3717,-112.5 3717,-131.5 3878,-131.5 3878,-112.5 3717,-112.5"/>
<text text-anchor="middle" x="3797.5" y="-119.5" font-family="Helvetica,sans-Serif" font-size="10.00">swl/swl_common_chanspec.h</text>
</a>
</g>
</g>
<!-- Node1&#45;&gt;Node106 -->
<g id="edge73" class="edge">
<title>Node1&#45;&gt;Node106</title>
<path fill="none" stroke="midnightblue" d="M2773.57,-180.65C2922.29,-175.46 3344.7,-159.36 3706.83,-132.09"/>
<polygon fill="midnightblue" stroke="midnightblue" points="3707.28,-135.57 3716.99,-131.32 3706.75,-128.59 3707.28,-135.57"/>
</g>
<!-- Node12 -->
<g id="node12" class="node">
<title>Node12</title>
<g id="a_node12"><a xlink:title=" ">
<polygon fill="white" stroke="#bfbfbf" points="901.5,-0.5 901.5,-19.5 963.5,-19.5 963.5,-0.5 901.5,-0.5"/>
<text text-anchor="middle" x="932.5" y="-7.5" font-family="Helvetica,sans-Serif" font-size="10.00">stdbool.h</text>
</a>
</g>
</g>
<!-- Node11&#45;&gt;Node12 -->
<g id="edge11" class="edge">
<title>Node11&#45;&gt;Node12</title>
<path fill="none" stroke="midnightblue" d="M2454.98,-64.92C2295.87,-64.26 1299.41,-58.66 974.2,-19.92"/>
<polygon fill="midnightblue" stroke="midnightblue" points="974.19,-16.39 963.84,-18.65 973.34,-23.34 974.19,-16.39"/>
</g>
<!-- Node13 -->
<g id="node13" class="node">
<title>Node13</title>
<g id="a_node13"><a xlink:title=" ">
<polygon fill="white" stroke="#bfbfbf" points="982,-0.5 982,-19.5 1035,-19.5 1035,-0.5 982,-0.5"/>
<text text-anchor="middle" x="1008.5" y="-7.5" font-family="Helvetica,sans-Serif" font-size="10.00">stdint.h</text>
</a>
</g>
</g>
<!-- Node11&#45;&gt;Node13 -->
<g id="edge12" class="edge">
<title>Node11&#45;&gt;Node13</title>
<path fill="none" stroke="midnightblue" d="M2454.77,-64.95C2299.43,-64.53 1355.37,-60.34 1045.43,-19.72"/>
<polygon fill="midnightblue" stroke="midnightblue" points="1045.49,-16.2 1035.11,-18.33 1044.55,-23.14 1045.49,-16.2"/>
</g>
<!-- Node14 -->
<g id="node14" class="node">
<title>Node14</title>
<g id="a_node14"><a xlink:title=" ">
<polygon fill="white" stroke="#bfbfbf" points="1053.5,-0.5 1053.5,-19.5 1163.5,-19.5 1163.5,-0.5 1053.5,-0.5"/>
<text text-anchor="middle" x="1108.5" y="-7.5" font-family="Helvetica,sans-Serif" font-size="10.00">swl/swl_common.h</text>
</a>
</g>
</g>
<!-- Node11&#45;&gt;Node14 -->
<g id="edge13" class="edge">
<title>Node11&#45;&gt;Node14</title>
<path fill="none" stroke="midnightblue" d="M2454.94,-65.1C2331.29,-65.53 1699.62,-65.33 1173.68,-20"/>
<polygon fill="midnightblue" stroke="midnightblue" points="1173.88,-16.5 1163.62,-19.13 1173.28,-23.48 1173.88,-16.5"/>
</g>
<!-- Node15 -->
<g id="node15" class="node">
<title>Node15</title>
<g id="a_node15"><a xlink:title=" ">
<polygon fill="white" stroke="#bfbfbf" points="1181.5,-0.5 1181.5,-19.5 1317.5,-19.5 1317.5,-0.5 1181.5,-0.5"/>
<text text-anchor="middle" x="1249.5" y="-7.5" font-family="Helvetica,sans-Serif" font-size="10.00">swla/swla_commonLib.h</text>
</a>
</g>
</g>
<!-- Node11&#45;&gt;Node15 -->
<g id="edge14" class="edge">
<title>Node11&#45;&gt;Node15</title>
<path fill="none" stroke="midnightblue" d="M2454.92,-64.78C2340.12,-63.46 1789.33,-55.53 1328.1,-20.06"/>
<polygon fill="midnightblue" stroke="midnightblue" points="1328.15,-16.56 1317.91,-19.27 1327.61,-23.54 1328.15,-16.56"/>
</g>
<!-- Node16 -->
<g id="node16" class="node">
<title>Node16</title>
<g id="a_node16"><a xlink:title=" ">
<polygon fill="white" stroke="#bfbfbf" points="1335.5,-0.5 1335.5,-19.5 1423.5,-19.5 1423.5,-0.5 1335.5,-0.5"/>
<text text-anchor="middle" x="1379.5" y="-7.5" font-family="Helvetica,sans-Serif" font-size="10.00">swl/swl_uuid.h</text>
</a>
</g>
</g>
<!-- Node11&#45;&gt;Node16 -->
<g id="edge15" class="edge">
<title>Node11&#45;&gt;Node16</title>
<path fill="none" stroke="midnightblue" d="M2454.75,-65.07C2345.92,-65.22 1849.66,-63.41 1433.81,-20"/>
<polygon fill="midnightblue" stroke="midnightblue" points="1434,-16.5 1423.69,-18.93 1433.27,-23.46 1434,-16.5"/>
</g>
<!-- Node17 -->
<g id="node17" class="node">
<title>Node17</title>
<g id="a_node17"><a xlink:title=" ">
<polygon fill="white" stroke="#bfbfbf" points="1441.5,-0.5 1441.5,-19.5 1593.5,-19.5 1593.5,-0.5 1441.5,-0.5"/>
<text text-anchor="middle" x="1517.5" y="-7.5" font-family="Helvetica,sans-Serif" font-size="10.00">swla/swla_radioStandards.h</text>
</a>
</g>
</g>
<!-- Node11&#45;&gt;Node17 -->
<g id="edge16" class="edge">
<title>Node11&#45;&gt;Node17</title>
<path fill="none" stroke="midnightblue" d="M2454.85,-64.32C2357.44,-61.15 1949.86,-46.96 1604.15,-20.09"/>
<polygon fill="midnightblue" stroke="midnightblue" points="1604.18,-16.58 1593.94,-19.29 1603.63,-23.56 1604.18,-16.58"/>
</g>
<!-- Node18 -->
<g id="node18" class="node">
<title>Node18</title>
<g id="a_node18"><a xlink:title=" ">
<polygon fill="white" stroke="#bfbfbf" points="1612,-0.5 1612,-19.5 1713,-19.5 1713,-0.5 1612,-0.5"/>
<text text-anchor="middle" x="1662.5" y="-7.5" font-family="Helvetica,sans-Serif" font-size="10.00">swla/swla_time.h</text>
</a>
</g>
</g>
<!-- Node11&#45;&gt;Node18 -->
<g id="edge17" class="edge">
<title>Node11&#45;&gt;Node18</title>
<path fill="none" stroke="midnightblue" d="M2454.82,-64.44C2365.69,-61.97 2018.65,-50.87 1723.35,-20.11"/>
<polygon fill="midnightblue" stroke="midnightblue" points="1723.62,-16.62 1713.31,-19.05 1722.89,-23.58 1723.62,-16.62"/>
</g>
<!-- Node19 -->
<g id="node19" class="node">
<title>Node19</title>
<g id="a_node19"><a xlink:title=" ">
<polygon fill="white" stroke="#bfbfbf" points="1731,-0.5 1731,-19.5 1860,-19.5 1860,-0.5 1731,-0.5"/>
<text text-anchor="middle" x="1795.5" y="-7.5" font-family="Helvetica,sans-Serif" font-size="10.00">swla/swla_time_spec.h</text>
</a>
</g>
</g>
<!-- Node11&#45;&gt;Node19 -->
<g id="edge18" class="edge">
<title>Node11&#45;&gt;Node19</title>
<path fill="none" stroke="midnightblue" d="M2454.96,-63.77C2377.57,-59.28 2106.08,-42.85 1870.2,-20.02"/>
<polygon fill="midnightblue" stroke="midnightblue" points="1870.35,-16.52 1860.05,-19.03 1869.67,-23.49 1870.35,-16.52"/>
</g>
<!-- Node20 -->
<g id="node20" class="node">
<title>Node20</title>
<g id="a_node20"><a xlink:title=" ">
<polygon fill="white" stroke="#bfbfbf" points="1878.5,-0.5 1878.5,-19.5 1972.5,-19.5 1972.5,-0.5 1878.5,-0.5"/>
<text text-anchor="middle" x="1925.5" y="-7.5" font-family="Helvetica,sans-Serif" font-size="10.00">swla/swla_oui.h</text>
</a>
</g>
</g>
<!-- Node11&#45;&gt;Node20 -->
<g id="edge19" class="edge">
<title>Node11&#45;&gt;Node20</title>
<path fill="none" stroke="midnightblue" d="M2454.73,-63.56C2386.66,-58.93 2171.61,-43.47 1982.64,-20.06"/>
<polygon fill="midnightblue" stroke="midnightblue" points="1982.88,-16.56 1972.52,-18.8 1982.01,-23.51 1982.88,-16.56"/>
</g>
<!-- Node21 -->
<g id="node21" class="node">
<title>Node21</title>
<g id="a_node21"><a xlink:title=" ">
<polygon fill="white" stroke="#bfbfbf" points="1990.5,-0.5 1990.5,-19.5 2118.5,-19.5 2118.5,-0.5 1990.5,-0.5"/>
<text text-anchor="middle" x="2054.5" y="-7.5" font-family="Helvetica,sans-Serif" font-size="10.00">swla/swla_delayExec.h</text>
</a>
</g>
</g>
<!-- Node11&#45;&gt;Node21 -->
<g id="edge20" class="edge">
<title>Node11&#45;&gt;Node21</title>
<path fill="none" stroke="midnightblue" d="M2454.99,-62.25C2395.62,-54.65 2227.33,-33.12 2128.82,-20.51"/>
<polygon fill="midnightblue" stroke="midnightblue" points="2128.99,-17 2118.63,-19.21 2128.1,-23.95 2128.99,-17"/>
</g>
<!-- Node22 -->
<g id="node22" class="node">
<title>Node22</title>
<g id="a_node22"><a xlink:title=" ">
<polygon fill="white" stroke="#bfbfbf" points="2137,-0.5 2137,-19.5 2256,-19.5 2256,-0.5 2137,-0.5"/>
<text text-anchor="middle" x="2196.5" y="-7.5" font-family="Helvetica,sans-Serif" font-size="10.00">swla/swla_function.h</text>
</a>
</g>
</g>
<!-- Node11&#45;&gt;Node22 -->
<g id="edge21" class="edge">
<title>Node11&#45;&gt;Node22</title>
<path fill="none" stroke="midnightblue" d="M2454.99,-60.85C2411.69,-52.5 2312.82,-33.43 2250.68,-21.45"/>
<polygon fill="midnightblue" stroke="midnightblue" points="2251.14,-17.97 2240.66,-19.52 2249.81,-24.85 2251.14,-17.97"/>
</g>
<!-- Node23 -->
<g id="node23" class="node">
<title>Node23</title>
<g id="a_node23"><a xlink:title=" ">
<polygon fill="white" stroke="#bfbfbf" points="2274,-0.5 2274,-19.5 2415,-19.5 2415,-0.5 2274,-0.5"/>
<text text-anchor="middle" x="2344.5" y="-7.5" font-family="Helvetica,sans-Serif" font-size="10.00">swl/swl_usp_cmdStatus.h</text>
</a>
</g>
</g>
<!-- Node11&#45;&gt;Node23 -->
<g id="edge22" class="edge">
<title>Node11&#45;&gt;Node23</title>
<path fill="none" stroke="midnightblue" d="M2455.58,-56.44C2433.76,-47.52 2399.35,-33.44 2374.61,-23.32"/>
<polygon fill="midnightblue" stroke="midnightblue" points="2375.9,-20.06 2365.32,-19.52 2373.25,-26.54 2375.9,-20.06"/>
</g>
<!-- Node24 -->
<g id="node24" class="node">
<title>Node24</title>
<g id="a_node24"><a xlink:title=" ">
<polygon fill="white" stroke="#bfbfbf" points="2433.5,-0.5 2433.5,-19.5 2519.5,-19.5 2519.5,-0.5 2433.5,-0.5"/>
<text text-anchor="middle" x="2476.5" y="-7.5" font-family="Helvetica,sans-Serif" font-size="10.00">swl/swl_wps.h</text>
</a>
</g>
</g>
<!-- Node11&#45;&gt;Node24 -->
<g id="edge23" class="edge">
<title>Node11&#45;&gt;Node24</title>
<path fill="none" stroke="midnightblue" d="M2476.5,-56.08C2476.5,-49.01 2476.5,-38.86 2476.5,-29.99"/>
<polygon fill="midnightblue" stroke="midnightblue" points="2480,-29.75 2476.5,-19.75 2473,-29.75 2480,-29.75"/>
</g>
<!-- Node25 -->
<g id="node25" class="node">
<title>Node25</title>
<g id="a_node25"><a xlink:title=" ">
<polygon fill="white" stroke="#bfbfbf" points="2537.5,-0.5 2537.5,-19.5 2641.5,-19.5 2641.5,-0.5 2537.5,-0.5"/>
<text text-anchor="middle" x="2589.5" y="-7.5" font-family="Helvetica,sans-Serif" font-size="10.00">swl/swl_security.h</text>
</a>
</g>
</g>
<!-- Node11&#45;&gt;Node25 -->
<g id="edge24" class="edge">
<title>Node11&#45;&gt;Node25</title>
<path fill="none" stroke="midnightblue" d="M2494.41,-56.44C2512.75,-47.68 2541.51,-33.94 2562.59,-23.86"/>
<polygon fill="midnightblue" stroke="midnightblue" points="2564.17,-26.99 2571.68,-19.52 2561.15,-20.67 2564.17,-26.99"/>
</g>
<!-- Node26 -->
<g id="node26" class="node">
<title>Node26</title>
<g id="a_node26"><a xlink:title=" ">
<polygon fill="white" stroke="#bfbfbf" points="3690,-0.5 3690,-19.5 3773,-19.5 3773,-0.5 3690,-0.5"/>
<text text-anchor="middle" x="3731.5" y="-7.5" font-family="Helvetica,sans-Serif" font-size="10.00">amxc/amxc.h</text>
</a>
</g>
</g>
<!-- Node11&#45;&gt;Node26 -->
<g id="edge25" class="edge">
<title>Node11&#45;&gt;Node26</title>
<path fill="none" stroke="midnightblue" d="M2498.06,-64.61C2637.86,-62.02 3418.06,-46.63 3679.62,-20.03"/>
<polygon fill="midnightblue" stroke="midnightblue" points="3680.24,-23.48 3689.82,-18.95 3679.51,-16.52 3680.24,-23.48"/>
</g>
<!-- Node27 -->
<g id="node27" class="node">
<title>Node27</title>
<g id="a_node27"><a xlink:title=" ">
<polygon fill="white" stroke="#bfbfbf" points="3791.5,-0.5 3791.5,-19.5 3875.5,-19.5 3875.5,-0.5 3791.5,-0.5"/>
<text text-anchor="middle" x="3833.5" y="-7.5" font-family="Helvetica,sans-Serif" font-size="10.00">amxp/amxp.h</text>
</a>
</g>
</g>
<!-- Node11&#45;&gt;Node27 -->
<g id="edge26" class="edge">
<title>Node11&#45;&gt;Node27</title>
<path fill="none" stroke="midnightblue" d="M2498.41,-64.67C2645.99,-62.36 3497.64,-48.03 3781.02,-19.97"/>
<polygon fill="midnightblue" stroke="midnightblue" points="3781.67,-23.42 3791.26,-18.92 3780.96,-16.46 3781.67,-23.42"/>
</g>
<!-- Node28 -->
<g id="node28" class="node">
<title>Node28</title>
<g id="a_node28"><a xlink:title=" ">
<polygon fill="white" stroke="#bfbfbf" points="2659.5,-0.5 2659.5,-19.5 2799.5,-19.5 2799.5,-0.5 2659.5,-0.5"/>
<text text-anchor="middle" x="2729.5" y="-7.5" font-family="Helvetica,sans-Serif" font-size="10.00">amxd/amxd_parameter.h</text>
</a>
</g>
</g>
<!-- Node11&#45;&gt;Node28 -->
<g id="edge27" class="edge">
<title>Node11&#45;&gt;Node28</title>
<path fill="none" stroke="midnightblue" d="M2498.07,-60.4C2538.01,-51.87 2624.41,-33.43 2679.6,-21.65"/>
<polygon fill="midnightblue" stroke="midnightblue" points="2680.48,-25.04 2689.53,-19.53 2679.02,-18.2 2680.48,-25.04"/>
</g>
<!-- Node29 -->
<g id="node29" class="node">
<title>Node29</title>
<g id="a_node29"><a xlink:title=" ">
<polygon fill="white" stroke="#bfbfbf" points="2818,-0.5 2818,-19.5 2937,-19.5 2937,-0.5 2818,-0.5"/>
<text text-anchor="middle" x="2877.5" y="-7.5" font-family="Helvetica,sans-Serif" font-size="10.00">amxd/amxd_action.h</text>
</a>
</g>
</g>
<!-- Node11&#45;&gt;Node29 -->
<g id="edge28" class="edge">
<title>Node11&#45;&gt;Node29</title>
<path fill="none" stroke="midnightblue" d="M2498.06,-62.1C2555.61,-54.35 2714.76,-32.92 2807.65,-20.41"/>
<polygon fill="midnightblue" stroke="midnightblue" points="2808.36,-23.84 2817.8,-19.04 2807.43,-16.9 2808.36,-23.84"/>
</g>
<!-- Node30 -->
<g id="node30" class="node">
<title>Node30</title>
<g id="a_node30"><a xlink:title=" ">
<polygon fill="white" stroke="#bfbfbf" points="2955,-0.5 2955,-19.5 3130,-19.5 3130,-0.5 2955,-0.5"/>
<text text-anchor="middle" x="3042.5" y="-7.5" font-family="Helvetica,sans-Serif" font-size="10.00">amxd/amxd_object_parameter.h</text>
</a>
</g>
</g>
<!-- Node11&#45;&gt;Node30 -->
<g id="edge29" class="edge">
<title>Node11&#45;&gt;Node30</title>
<path fill="none" stroke="midnightblue" d="M2498.34,-62.92C2571.18,-55.97 2808.84,-33.29 2944.77,-20.32"/>
<polygon fill="midnightblue" stroke="midnightblue" points="2945.15,-23.8 2954.78,-19.37 2944.49,-16.84 2945.15,-23.8"/>
</g>
<!-- Node31 -->
<g id="node31" class="node">
<title>Node31</title>
<g id="a_node31"><a xlink:title=" ">
<polygon fill="white" stroke="#bfbfbf" points="3295.5,-0.5 3295.5,-19.5 3447.5,-19.5 3447.5,-0.5 3295.5,-0.5"/>
<text text-anchor="middle" x="3371.5" y="-7.5" font-family="Helvetica,sans-Serif" font-size="10.00">amxd/amxd_object_event.h</text>
</a>
</g>
</g>
<!-- Node11&#45;&gt;Node31 -->
<g id="edge30" class="edge">
<title>Node11&#45;&gt;Node31</title>
<path fill="none" stroke="midnightblue" d="M2498.12,-64.2C2591.01,-60.66 2965.62,-45.56 3284.69,-20.11"/>
<polygon fill="midnightblue" stroke="midnightblue" points="3285.37,-23.56 3295.06,-19.28 3284.81,-16.59 3285.37,-23.56"/>
</g>
<!-- Node32 -->
<g id="node32" class="node">
<title>Node32</title>
<g id="a_node32"><a xlink:title=" ">
<polygon fill="white" stroke="#bfbfbf" points="3148,-0.5 3148,-19.5 3277,-19.5 3277,-0.5 3148,-0.5"/>
<text text-anchor="middle" x="3212.5" y="-7.5" font-family="Helvetica,sans-Serif" font-size="10.00">amxd/amxd_function.h</text>
</a>
</g>
</g>
<!-- Node11&#45;&gt;Node32 -->
<g id="edge31" class="edge">
<title>Node11&#45;&gt;Node32</title>
<path fill="none" stroke="midnightblue" d="M2498.28,-63.96C2580.5,-59.93 2879.95,-44.44 3137.35,-20.16"/>
<polygon fill="midnightblue" stroke="midnightblue" points="3138.02,-23.61 3147.64,-19.18 3137.36,-16.65 3138.02,-23.61"/>
</g>
<!-- Node33 -->
<g id="node33" class="node">
<title>Node33</title>
<g id="a_node33"><a xlink:title=" ">
<polygon fill="white" stroke="#bfbfbf" points="0,-0.5 0,-19.5 169,-19.5 169,-0.5 0,-0.5"/>
<text text-anchor="middle" x="84.5" y="-7.5" font-family="Helvetica,sans-Serif" font-size="10.00">amxd/amxd_object_hierarchy.h</text>
</a>
</g>
</g>
<!-- Node11&#45;&gt;Node33 -->
<g id="edge32" class="edge">
<title>Node11&#45;&gt;Node33</title>
<path fill="none" stroke="midnightblue" d="M2454.72,-64.8C2251.05,-62.92 677.04,-47.67 179.15,-19.97"/>
<polygon fill="midnightblue" stroke="midnightblue" points="179.21,-16.47 169.03,-19.4 178.81,-23.46 179.21,-16.47"/>
</g>
<!-- Node34 -->
<g id="node34" class="node">
<title>Node34</title>
<g id="a_node34"><a xlink:title=" ">
<polygon fill="white" stroke="#bfbfbf" points="3894,-0.5 3894,-19.5 4013,-19.5 4013,-0.5 3894,-0.5"/>
<text text-anchor="middle" x="3953.5" y="-7.5" font-family="Helvetica,sans-Serif" font-size="10.00">amxd/amxd_object.h</text>
</a>
</g>
</g>
<!-- Node11&#45;&gt;Node34 -->
<g id="edge33" class="edge">
<title>Node11&#45;&gt;Node34</title>
<path fill="none" stroke="midnightblue" d="M2498.05,-65.1C2627.33,-65.55 3313.28,-65.61 3883.63,-19.98"/>
<polygon fill="midnightblue" stroke="midnightblue" points="3884.01,-23.46 3893.7,-19.16 3883.45,-16.48 3884.01,-23.46"/>
</g>
<!-- Node35 -->
<g id="node35" class="node">
<title>Node35</title>
<g id="a_node35"><a xlink:title=" ">
<polygon fill="white" stroke="#bfbfbf" points="3567,-0.5 3567,-19.5 3672,-19.5 3672,-0.5 3567,-0.5"/>
<text text-anchor="middle" x="3619.5" y="-7.5" font-family="Helvetica,sans-Serif" font-size="10.00">amxd/amxd_dm.h</text>
</a>
</g>
</g>
<!-- Node11&#45;&gt;Node35 -->
<g id="edge34" class="edge">
<title>Node11&#45;&gt;Node35</title>
<path fill="none" stroke="midnightblue" d="M2498.28,-64.94C2609.46,-64.47 3124.99,-60.18 3556.79,-20.06"/>
<polygon fill="midnightblue" stroke="midnightblue" points="3557.34,-23.53 3566.97,-19.11 3556.69,-16.56 3557.34,-23.53"/>
</g>
<!-- Node36 -->
<g id="node36" class="node">
<title>Node36</title>
<g id="a_node36"><a xlink:title=" ">
<polygon fill="white" stroke="#bfbfbf" points="187.5,-0.5 187.5,-19.5 331.5,-19.5 331.5,-0.5 187.5,-0.5"/>
<text text-anchor="middle" x="259.5" y="-7.5" font-family="Helvetica,sans-Serif" font-size="10.00">amxd/amxd_transaction.h</text>
</a>
</g>
</g>
<!-- Node11&#45;&gt;Node36 -->
<g id="edge35" class="edge">
<title>Node11&#45;&gt;Node36</title>
<path fill="none" stroke="midnightblue" d="M2454.73,-64.81C2259.32,-63.08 803.87,-49.34 341.96,-20.02"/>
<polygon fill="midnightblue" stroke="midnightblue" points="342.1,-16.52 331.89,-19.37 341.65,-23.51 342.1,-16.52"/>
</g>
<!-- Node37 -->
<g id="node37" class="node">
<title>Node37</title>
<g id="a_node37"><a xlink:title=" ">
<polygon fill="white" stroke="#bfbfbf" points="349.5,-0.5 349.5,-19.5 465.5,-19.5 465.5,-0.5 349.5,-0.5"/>
<text text-anchor="middle" x="407.5" y="-7.5" font-family="Helvetica,sans-Serif" font-size="10.00">amxb/amxb_types.h</text>
</a>
</g>
</g>
<!-- Node11&#45;&gt;Node37 -->
<g id="edge36" class="edge">
<title>Node11&#45;&gt;Node37</title>
<path fill="none" stroke="midnightblue" d="M2454.92,-64.85C2267.24,-63.46 908.85,-52.45 475.62,-19.97"/>
<polygon fill="midnightblue" stroke="midnightblue" points="475.8,-16.48 465.56,-19.2 475.27,-23.45 475.8,-16.48"/>
</g>
<!-- Node38 -->
<g id="node38" class="node">
<title>Node38</title>
<g id="a_node38"><a xlink:title=" ">
<polygon fill="white" stroke="#bfbfbf" points="483.5,-0.5 483.5,-19.5 619.5,-19.5 619.5,-0.5 483.5,-0.5"/>
<text text-anchor="middle" x="551.5" y="-7.5" font-family="Helvetica,sans-Serif" font-size="10.00">amxb/amxb_operators.h</text>
</a>
</g>
</g>
<!-- Node11&#45;&gt;Node38 -->
<g id="edge37" class="edge">
<title>Node11&#45;&gt;Node38</title>
<path fill="none" stroke="midnightblue" d="M2454.9,-64.75C2275.55,-62.62 1030.21,-47.06 630.06,-20.03"/>
<polygon fill="midnightblue" stroke="midnightblue" points="630.12,-16.52 619.9,-19.33 629.64,-23.51 630.12,-16.52"/>
</g>
<!-- Node39 -->
<g id="node39" class="node">
<title>Node39</title>
<g id="a_node39"><a xlink:title=" ">
<polygon fill="white" stroke="#bfbfbf" points="637.5,-0.5 637.5,-19.5 749.5,-19.5 749.5,-0.5 637.5,-0.5"/>
<text text-anchor="middle" x="693.5" y="-7.5" font-family="Helvetica,sans-Serif" font-size="10.00">amxb/amxb_error.h</text>
</a>
</g>
</g>
<!-- Node11&#45;&gt;Node39 -->
<g id="edge38" class="edge">
<title>Node11&#45;&gt;Node39</title>
<path fill="none" stroke="midnightblue" d="M2454.79,-64.76C2282.35,-62.85 1131.57,-49.14 759.8,-19.99"/>
<polygon fill="midnightblue" stroke="midnightblue" points="760.08,-16.5 749.83,-19.19 759.52,-23.48 760.08,-16.5"/>
</g>
<!-- Node40 -->
<g id="node40" class="node">
<title>Node40</title>
<g id="a_node40"><a xlink:title=" ">
<polygon fill="white" stroke="#bfbfbf" points="3466,-0.5 3466,-19.5 3549,-19.5 3549,-0.5 3466,-0.5"/>
<text text-anchor="middle" x="3507.5" y="-7.5" font-family="Helvetica,sans-Serif" font-size="10.00">amxo/amxo.h</text>
</a>
</g>
</g>
<!-- Node11&#45;&gt;Node40 -->
<g id="edge39" class="edge">
<title>Node11&#45;&gt;Node40</title>
<path fill="none" stroke="midnightblue" d="M2498.31,-65.04C2603.2,-64.99 3066.33,-62.36 3455.76,-19.91"/>
<polygon fill="midnightblue" stroke="midnightblue" points="3456.26,-23.38 3465.81,-18.81 3455.49,-16.42 3456.26,-23.38"/>
</g>
<!-- Node41 -->
<g id="node41" class="node">
<title>Node41</title>
<g id="a_node41"><a xlink:title=" ">
<polygon fill="white" stroke="#bfbfbf" points="768,-0.5 768,-19.5 883,-19.5 883,-0.5 768,-0.5"/>
<text text-anchor="middle" x="825.5" y="-7.5" font-family="Helvetica,sans-Serif" font-size="10.00">amxo/amxo_types.h</text>
</a>
</g>
</g>
<!-- Node11&#45;&gt;Node41 -->
<g id="edge40" class="edge">
<title>Node11&#45;&gt;Node41</title>
<path fill="none" stroke="midnightblue" d="M2454.93,-64.7C2290.88,-62.37 1237.46,-46.58 893.42,-19.95"/>
<polygon fill="midnightblue" stroke="midnightblue" points="893.45,-16.44 883.2,-19.14 892.89,-23.42 893.45,-16.44"/>
</g>
<!-- Node83&#45;&gt;Node26 -->
<g id="edge42" class="edge">
<title>Node83&#45;&gt;Node26</title>
<path fill="none" stroke="midnightblue" d="M3699.77,-56.08C3705.14,-48.46 3713.02,-37.26 3719.58,-27.94"/>
<polygon fill="midnightblue" stroke="midnightblue" points="3722.45,-29.94 3725.34,-19.75 3716.72,-25.91 3722.45,-29.94"/>
</g>
<!-- Node83&#45;&gt;Node27 -->
<g id="edge43" class="edge">
<title>Node83&#45;&gt;Node27</title>
<path fill="none" stroke="midnightblue" d="M3715.68,-56.44C3738.93,-47.48 3775.65,-33.31 3801.92,-23.18"/>
<polygon fill="midnightblue" stroke="midnightblue" points="3803.35,-26.38 3811.42,-19.52 3800.83,-19.85 3803.35,-26.38"/>
</g>
<!-- Node83&#45;&gt;Node31 -->
<g id="edge46" class="edge">
<title>Node83&#45;&gt;Node31</title>
<path fill="none" stroke="midnightblue" d="M3649.4,-57.6C3593.19,-48.18 3495.74,-31.84 3432.45,-21.22"/>
<polygon fill="midnightblue" stroke="midnightblue" points="3432.66,-17.71 3422.22,-19.51 3431.5,-24.61 3432.66,-17.71"/>
</g>
<!-- Node83&#45;&gt;Node34 -->
<g id="edge45" class="edge">
<title>Node83&#45;&gt;Node34</title>
<path fill="none" stroke="midnightblue" d="M3734.7,-56.44C3780.15,-47 3853.34,-31.8 3902.41,-21.61"/>
<polygon fill="midnightblue" stroke="midnightblue" points="3903.42,-24.98 3912.49,-19.52 3901.99,-18.12 3903.42,-24.98"/>
</g>
<!-- Node83&#45;&gt;Node35 -->
<g id="edge44" class="edge">
<title>Node83&#45;&gt;Node35</title>
<path fill="none" stroke="midnightblue" d="M3681.61,-56.32C3670.35,-48.11 3653.21,-35.6 3639.79,-25.81"/>
<polygon fill="midnightblue" stroke="midnightblue" points="3641.75,-22.9 3631.61,-19.83 3637.62,-28.56 3641.75,-22.9"/>
</g>
<!-- Node83&#45;&gt;Node40 -->
<g id="edge47" class="edge">
<title>Node83&#45;&gt;Node40</title>
<path fill="none" stroke="midnightblue" d="M3664.03,-56.44C3632.33,-47.24 3581.77,-32.56 3546.73,-22.39"/>
<polygon fill="midnightblue" stroke="midnightblue" points="3547.41,-18.94 3536.83,-19.52 3545.46,-25.67 3547.41,-18.94"/>
</g>
<!-- Node91&#45;&gt;Node11 -->
<g id="edge49" class="edge">
<title>Node91&#45;&gt;Node11</title>
<path fill="none" stroke="midnightblue" d="M3036.41,-114.25C3031.75,-113.41 3027.01,-112.63 3022.5,-112 2828.22,-85.07 2592.66,-72.33 2508.38,-68.39"/>
<polygon fill="midnightblue" stroke="midnightblue" points="2508.33,-64.88 2498.18,-67.92 2508.01,-71.88 2508.33,-64.88"/>
</g>
<!-- Node92&#45;&gt;Node11 -->
<g id="edge51" class="edge">
<title>Node92&#45;&gt;Node11</title>
<path fill="none" stroke="midnightblue" d="M2680.15,-112.44C2632.53,-101.82 2552.18,-83.89 2507.98,-74.02"/>
<polygon fill="midnightblue" stroke="midnightblue" points="2508.61,-70.58 2498.08,-71.82 2507.08,-77.41 2508.61,-70.58"/>
</g>
<!-- Node94&#45;&gt;Node11 -->
<g id="edge60" class="edge">
<title>Node94&#45;&gt;Node11</title>
<path fill="none" stroke="midnightblue" d="M3357.99,-118.63C3202.68,-109.53 2647.02,-76.99 2508.13,-68.85"/>
<polygon fill="midnightblue" stroke="midnightblue" points="2508.33,-65.36 2498.14,-68.27 2507.92,-72.35 2508.33,-65.36"/>
</g>
<!-- Node94&#45;&gt;Node26 -->
<g id="edge54" class="edge">
<title>Node94&#45;&gt;Node26</title>
<path fill="none" stroke="midnightblue" d="M3424.35,-112.46C3483.37,-92.97 3628.09,-45.16 3695.66,-22.84"/>
<polygon fill="midnightblue" stroke="midnightblue" points="3697.04,-26.07 3705.43,-19.61 3694.84,-19.42 3697.04,-26.07"/>
</g>
<!-- Node94&#45;&gt;Node27 -->
<g id="edge55" class="edge">
<title>Node94&#45;&gt;Node27</title>
<path fill="none" stroke="midnightblue" d="M3439.1,-114.66C3445.26,-113.74 3451.55,-112.82 3457.5,-112 3585.71,-94.24 3626.43,-124.35 3746.5,-76 3774.5,-64.73 3801.5,-42.13 3817.81,-26.79"/>
<polygon fill="midnightblue" stroke="midnightblue" points="3820.56,-28.99 3825.31,-19.52 3815.69,-23.96 3820.56,-28.99"/>
</g>
<!-- Node94&#45;&gt;Node31 -->
<g id="edge58" class="edge">
<title>Node94&#45;&gt;Node31</title>
<path fill="none" stroke="midnightblue" d="M3393.97,-112.29C3389.55,-103.41 3383,-89.11 3379.5,-76 3375.42,-60.71 3373.41,-42.82 3372.43,-29.69"/>
<polygon fill="midnightblue" stroke="midnightblue" points="3375.91,-29.32 3371.8,-19.56 3368.92,-29.75 3375.91,-29.32"/>
</g>
<!-- Node94&#45;&gt;Node34 -->
<g id="edge57" class="edge">
<title>Node94&#45;&gt;Node34</title>
<path fill="none" stroke="midnightblue" d="M3439.1,-114.59C3445.26,-113.68 3451.54,-112.79 3457.5,-112 3598.94,-93.24 3639.5,-115.86 3776.5,-76 3795.97,-70.34 3798.72,-63.65 3817.5,-56 3849.5,-42.97 3886.83,-30.83 3914.27,-22.45"/>
<polygon fill="midnightblue" stroke="midnightblue" points="3915.35,-25.78 3923.91,-19.54 3913.32,-19.08 3915.35,-25.78"/>
</g>
<!-- Node94&#45;&gt;Node35 -->
<g id="edge56" class="edge">
<title>Node94&#45;&gt;Node35</title>
<path fill="none" stroke="midnightblue" d="M3415.84,-112.37C3454.41,-93.17 3547.49,-46.84 3593.23,-24.07"/>
<polygon fill="midnightblue" stroke="midnightblue" points="3594.85,-27.18 3602.24,-19.59 3591.73,-20.91 3594.85,-27.18"/>
</g>
<!-- Node94&#45;&gt;Node40 -->
<g id="edge59" class="edge">
<title>Node94&#45;&gt;Node40</title>
<path fill="none" stroke="midnightblue" d="M3405.52,-112.25C3415.94,-99.44 3436.33,-75.04 3455.5,-56 3466.09,-45.48 3478.73,-34.51 3488.9,-26.03"/>
<polygon fill="midnightblue" stroke="midnightblue" points="3491.27,-28.62 3496.76,-19.56 3486.82,-23.21 3491.27,-28.62"/>
</g>
<!-- Node97&#45;&gt;Node11 -->
<g id="edge62" class="edge">
<title>Node97&#45;&gt;Node11</title>
<path fill="none" stroke="midnightblue" d="M3465.71,-114.22C3459.96,-113.37 3454.08,-112.58 3448.5,-112 3080.32,-73.48 2630.24,-67.93 2508.26,-67.13"/>
<polygon fill="midnightblue" stroke="midnightblue" points="2508.14,-63.63 2498.12,-67.07 2508.1,-70.63 2508.14,-63.63"/>
</g>
<!-- Node97&#45;&gt;Node26 -->
<g id="edge63" class="edge">
<title>Node97&#45;&gt;Node26</title>
<path fill="none" stroke="midnightblue" d="M3521.53,-112.4C3540.47,-103.36 3571.1,-88.72 3597.5,-76 3634.63,-58.11 3677.48,-37.29 3704.53,-24.13"/>
<polygon fill="midnightblue" stroke="midnightblue" points="3706.28,-27.17 3713.74,-19.65 3703.22,-20.88 3706.28,-27.17"/>
</g>
<!-- Node97&#45;&gt;Node27 -->
<g id="edge64" class="edge">
<title>Node97&#45;&gt;Node27</title>
<path fill="none" stroke="midnightblue" d="M3541.17,-116.35C3611.86,-107.4 3759.11,-87.66 3779.5,-76 3798.93,-64.89 3814.38,-43.93 3823.69,-28.81"/>
<polygon fill="midnightblue" stroke="midnightblue" points="3826.89,-30.28 3828.91,-19.88 3820.84,-26.75 3826.89,-30.28"/>
</g>
<!-- Node97&#45;&gt;Node31 -->
<g id="edge67" class="edge">
<title>Node97&#45;&gt;Node31</title>
<path fill="none" stroke="midnightblue" d="M3493.14,-112.37C3470.78,-93.73 3417.74,-49.53 3389.66,-26.13"/>
<polygon fill="midnightblue" stroke="midnightblue" points="3391.73,-23.3 3381.81,-19.59 3387.25,-28.68 3391.73,-23.3"/>
</g>
<!-- Node97&#45;&gt;Node34 -->
<g id="edge66" class="edge">
<title>Node97&#45;&gt;Node34</title>
<path fill="none" stroke="midnightblue" d="M3541.12,-116.63C3610.43,-108.37 3755.69,-90.03 3804.5,-76 3849.83,-62.97 3899.47,-39.26 3928.48,-24.36"/>
<polygon fill="midnightblue" stroke="midnightblue" points="3930.23,-27.39 3937.49,-19.67 3927,-21.18 3930.23,-27.39"/>
</g>
<!-- Node97&#45;&gt;Node35 -->
<g id="edge65" class="edge">
<title>Node97&#45;&gt;Node35</title>
<path fill="none" stroke="midnightblue" d="M3512.6,-112.37C3532.08,-93.89 3578.06,-50.29 3602.9,-26.74"/>
<polygon fill="midnightblue" stroke="midnightblue" points="3605.59,-29.01 3610.44,-19.59 3600.78,-23.93 3605.59,-29.01"/>
</g>
<!-- Node97&#45;&gt;Node40 -->
<g id="edge68" class="edge">
<title>Node97&#45;&gt;Node40</title>
<path fill="none" stroke="midnightblue" d="M3503.81,-112.37C3504.46,-94.62 3505.95,-53.67 3506.82,-29.6"/>
<polygon fill="midnightblue" stroke="midnightblue" points="3510.32,-29.71 3507.19,-19.59 3503.33,-29.46 3510.32,-29.71"/>
</g>
<!-- Node98&#45;&gt;Node11 -->
<g id="edge70" class="edge">
<title>Node98&#45;&gt;Node11</title>
<path fill="none" stroke="midnightblue" d="M2797.87,-113.66C2794.71,-113.08 2791.55,-112.52 2788.5,-112 2686.36,-94.65 2564.68,-78.36 2508.2,-71.04"/>
<polygon fill="midnightblue" stroke="midnightblue" points="2508.48,-67.55 2498.12,-69.74 2507.59,-74.49 2508.48,-67.55"/>
</g>
<!-- Node105&#45;&gt;Node11 -->
<g id="edge72" class="edge">
<title>Node105&#45;&gt;Node11</title>
<path fill="none" stroke="midnightblue" d="M2888.86,-113.21C2886.03,-112.79 2883.23,-112.38 2880.5,-112 2742.16,-92.78 2576.26,-76.38 2508.09,-69.93"/>
<polygon fill="midnightblue" stroke="midnightblue" points="2508.3,-66.43 2498.01,-68.98 2507.64,-73.4 2508.3,-66.43"/>
</g>
</g>
</svg>
