<?xml version="1.0" encoding="UTF-8" standalone="no"?>
<!DOCTYPE svg PUBLIC "-//W3C//DTD SVG 1.1//EN"
 "http://www.w3.org/Graphics/SVG/1.1/DTD/svg11.dtd">
<!-- Generated by graphviz version 2.43.0 (0)
 -->
<!-- Title: src/RadMgt/wld_rad_scan.c Pages: 1 -->
<svg width="4831pt" height="431pt"
 viewBox="0.00 0.00 4830.50 431.00" xmlns="http://www.w3.org/2000/svg" xmlns:xlink="http://www.w3.org/1999/xlink">
<g id="graph0" class="graph" transform="scale(1 1) rotate(0) translate(4 427)">
<title>src/RadMgt/wld_rad_scan.c</title>
<polygon fill="white" stroke="transparent" points="-4,4 -4,-427 4826.5,-427 4826.5,4 -4,4"/>
<!-- Node1 -->
<g id="node1" class="node">
<title>Node1</title>
<g id="a_node1"><a xlink:title=" ">
<polygon fill="#bfbfbf" stroke="black" points="1999,-392.5 1999,-422.5 2112,-422.5 2112,-392.5 1999,-392.5"/>
<text text-anchor="start" x="2007" y="-410.5" font-family="Helvetica,sans-Serif" font-size="10.00">src/RadMgt/wld_rad</text>
<text text-anchor="middle" x="2055.5" y="-399.5" font-family="Helvetica,sans-Serif" font-size="10.00">_scan.c</text>
</a>
</g>
</g>
<!-- Node2 -->
<g id="node2" class="node">
<title>Node2</title>
<g id="a_node2"><a xlink:href="wld__common_8h.html" target="_top" xlink:title=" ">
<polygon fill="white" stroke="black" points="2010,-336.5 2010,-355.5 2101,-355.5 2101,-336.5 2010,-336.5"/>
<text text-anchor="middle" x="2055.5" y="-343.5" font-family="Helvetica,sans-Serif" font-size="10.00">wld_common.h</text>
</a>
</g>
</g>
<!-- Node1&#45;&gt;Node2 -->
<g id="edge1" class="edge">
<title>Node1&#45;&gt;Node2</title>
<path fill="none" stroke="midnightblue" d="M2055.5,-392.4C2055.5,-384.47 2055.5,-374.46 2055.5,-365.86"/>
<polygon fill="midnightblue" stroke="midnightblue" points="2059,-365.66 2055.5,-355.66 2052,-365.66 2059,-365.66"/>
</g>
<!-- Node3 -->
<g id="node3" class="node">
<title>Node3</title>
<g id="a_node3"><a xlink:href="wld_8h.html" target="_top" xlink:title=" ">
<polygon fill="white" stroke="red" points="2040,-168.5 2040,-187.5 2083,-187.5 2083,-168.5 2040,-168.5"/>
<text text-anchor="middle" x="2061.5" y="-175.5" font-family="Helvetica,sans-Serif" font-size="10.00">wld.h</text>
</a>
</g>
</g>
<!-- Node2&#45;&gt;Node3 -->
<g id="edge2" class="edge">
<title>Node2&#45;&gt;Node3</title>
<path fill="none" stroke="midnightblue" d="M2061.14,-336.48C2066.55,-327.74 2074.36,-313.56 2077.5,-300 2085.83,-264.02 2075.4,-220.94 2067.89,-197.11"/>
<polygon fill="midnightblue" stroke="midnightblue" points="2071.21,-195.99 2064.73,-187.61 2064.57,-198.2 2071.21,-195.99"/>
</g>
<!-- Node34 -->
<g id="node34" class="node">
<title>Node34</title>
<g id="a_node34"><a xlink:href="wld__types_8h.html" target="_top" xlink:title=" ">
<polygon fill="white" stroke="red" points="1306,-56.5 1306,-75.5 1381,-75.5 1381,-56.5 1306,-56.5"/>
<text text-anchor="middle" x="1343.5" y="-63.5" font-family="Helvetica,sans-Serif" font-size="10.00">wld_types.h</text>
</a>
</g>
</g>
<!-- Node2&#45;&gt;Node34 -->
<g id="edge75" class="edge">
<title>Node2&#45;&gt;Node34</title>
<path fill="none" stroke="midnightblue" d="M2009.7,-344.94C1712.04,-344.23 64.5,-335.77 64.5,-235 64.5,-235 64.5,-235 64.5,-177 64.5,-146.9 59.74,-130.48 83.5,-112 132.16,-74.15 1071.08,-68.07 1295.58,-67.15"/>
<polygon fill="midnightblue" stroke="midnightblue" points="1295.74,-70.65 1305.72,-67.11 1295.71,-63.65 1295.74,-70.65"/>
</g>
<!-- Node76 -->
<g id="node43" class="node">
<title>Node76</title>
<g id="a_node43"><a xlink:href="wld__eventing_8h.html" target="_top" xlink:title=" ">
<polygon fill="white" stroke="black" points="4141,-168.5 4141,-187.5 4232,-187.5 4232,-168.5 4141,-168.5"/>
<text text-anchor="middle" x="4186.5" y="-175.5" font-family="Helvetica,sans-Serif" font-size="10.00">wld_eventing.h</text>
</a>
</g>
</g>
<!-- Node2&#45;&gt;Node76 -->
<g id="edge53" class="edge">
<title>Node2&#45;&gt;Node76</title>
<path fill="none" stroke="midnightblue" d="M2101.49,-341.42C2378.75,-319.82 3825.73,-207.1 4130.23,-183.38"/>
<polygon fill="midnightblue" stroke="midnightblue" points="4130.88,-186.84 4140.57,-182.58 4130.33,-179.86 4130.88,-186.84"/>
</g>
<!-- Node77 -->
<g id="node44" class="node">
<title>Node77</title>
<g id="a_node44"><a xlink:href="wld__radio_8h.html" target="_top" xlink:title=" ">
<polygon fill="white" stroke="red" points="2090,-224.5 2090,-243.5 2163,-243.5 2163,-224.5 2090,-224.5"/>
<text text-anchor="middle" x="2126.5" y="-231.5" font-family="Helvetica,sans-Serif" font-size="10.00">wld_radio.h</text>
</a>
</g>
</g>
<!-- Node2&#45;&gt;Node77 -->
<g id="edge61" class="edge">
<title>Node2&#45;&gt;Node77</title>
<path fill="none" stroke="midnightblue" d="M2070.65,-336.45C2083.21,-328.58 2100.55,-315.75 2110.5,-300 2119.32,-286.03 2123.28,-267.52 2125.06,-253.83"/>
<polygon fill="midnightblue" stroke="midnightblue" points="2128.56,-253.97 2126.09,-243.67 2121.6,-253.26 2128.56,-253.97"/>
</g>
<!-- Node84 -->
<g id="node45" class="node">
<title>Node84</title>
<g id="a_node45"><a xlink:href="wld__accesspoint_8h.html" target="_top" xlink:title=" ">
<polygon fill="white" stroke="red" points="1962.5,-280.5 1962.5,-299.5 2068.5,-299.5 2068.5,-280.5 1962.5,-280.5"/>
<text text-anchor="middle" x="2015.5" y="-287.5" font-family="Helvetica,sans-Serif" font-size="10.00">wld_accesspoint.h</text>
</a>
</g>
</g>
<!-- Node2&#45;&gt;Node84 -->
<g id="edge63" class="edge">
<title>Node2&#45;&gt;Node84</title>
<path fill="none" stroke="midnightblue" d="M2048.89,-336.08C2043.24,-328.46 2034.96,-317.26 2028.05,-307.94"/>
<polygon fill="midnightblue" stroke="midnightblue" points="2030.75,-305.7 2021.98,-299.75 2025.12,-309.87 2030.75,-305.7"/>
</g>
<!-- Node85 -->
<g id="node46" class="node">
<title>Node85</title>
<g id="a_node46"><a xlink:href="wld__wps_8h.html" target="_top" xlink:title=" ">
<polygon fill="white" stroke="black" points="1864.5,-224.5 1864.5,-243.5 1932.5,-243.5 1932.5,-224.5 1864.5,-224.5"/>
<text text-anchor="middle" x="1898.5" y="-231.5" font-family="Helvetica,sans-Serif" font-size="10.00">wld_wps.h</text>
</a>
</g>
</g>
<!-- Node2&#45;&gt;Node85 -->
<g id="edge78" class="edge">
<title>Node2&#45;&gt;Node85</title>
<path fill="none" stroke="midnightblue" d="M2009.77,-341.82C1954.08,-336.88 1864.88,-325.19 1844.5,-300 1830.11,-282.22 1853.28,-261.98 1873.6,-248.88"/>
<polygon fill="midnightblue" stroke="midnightblue" points="1875.59,-251.76 1882.3,-243.56 1871.94,-245.79 1875.59,-251.76"/>
</g>
<!-- Node86 -->
<g id="node47" class="node">
<title>Node86</title>
<g id="a_node47"><a xlink:href="wld__endpoint_8h.html" target="_top" xlink:title=" ">
<polygon fill="white" stroke="black" points="1853,-280.5 1853,-299.5 1944,-299.5 1944,-280.5 1853,-280.5"/>
<text text-anchor="middle" x="1898.5" y="-287.5" font-family="Helvetica,sans-Serif" font-size="10.00">wld_endpoint.h</text>
</a>
</g>
</g>
<!-- Node2&#45;&gt;Node86 -->
<g id="edge68" class="edge">
<title>Node2&#45;&gt;Node86</title>
<path fill="none" stroke="midnightblue" d="M2030.62,-336.44C2004.21,-327.36 1962.28,-312.94 1932.76,-302.78"/>
<polygon fill="midnightblue" stroke="midnightblue" points="1933.86,-299.46 1923.26,-299.52 1931.58,-306.08 1933.86,-299.46"/>
</g>
<!-- Node87 -->
<g id="node48" class="node">
<title>Node87</title>
<g id="a_node48"><a xlink:href="wld__assocdev_8h.html" target="_top" xlink:title=" ">
<polygon fill="white" stroke="red" points="2181,-224.5 2181,-243.5 2274,-243.5 2274,-224.5 2181,-224.5"/>
<text text-anchor="middle" x="2227.5" y="-231.5" font-family="Helvetica,sans-Serif" font-size="10.00">wld_assocdev.h</text>
</a>
</g>
</g>
<!-- Node2&#45;&gt;Node87 -->
<g id="edge71" class="edge">
<title>Node2&#45;&gt;Node87</title>
<path fill="none" stroke="midnightblue" d="M2069.57,-336.49C2084.32,-327.53 2108.15,-312.95 2128.5,-300 2155.58,-282.77 2186.44,-262.39 2206.41,-249.1"/>
<polygon fill="midnightblue" stroke="midnightblue" points="2208.38,-251.99 2214.76,-243.53 2204.5,-246.17 2208.38,-251.99"/>
</g>
<!-- Node90 -->
<g id="node49" class="node">
<title>Node90</title>
<g id="a_node49"><a xlink:href="wld__ssid_8h.html" target="_top" xlink:title=" ">
<polygon fill="white" stroke="black" points="2292.5,-224.5 2292.5,-243.5 2360.5,-243.5 2360.5,-224.5 2292.5,-224.5"/>
<text text-anchor="middle" x="2326.5" y="-231.5" font-family="Helvetica,sans-Serif" font-size="10.00">wld_ssid.h</text>
</a>
</g>
</g>
<!-- Node2&#45;&gt;Node90 -->
<g id="edge73" class="edge">
<title>Node2&#45;&gt;Node90</title>
<path fill="none" stroke="midnightblue" d="M2076.76,-336.37C2124.55,-316.97 2240.59,-269.87 2296.03,-247.37"/>
<polygon fill="midnightblue" stroke="midnightblue" points="2297.38,-250.6 2305.33,-243.59 2294.75,-244.11 2297.38,-250.6"/>
</g>
<!-- Node91 -->
<g id="node50" class="node">
<title>Node91</title>
<g id="a_node50"><a xlink:href="wld__util_8h.html" target="_top" xlink:title=" ">
<polygon fill="white" stroke="black" points="1732.5,-280.5 1732.5,-299.5 1796.5,-299.5 1796.5,-280.5 1732.5,-280.5"/>
<text text-anchor="middle" x="1764.5" y="-287.5" font-family="Helvetica,sans-Serif" font-size="10.00">wld_util.h</text>
</a>
</g>
</g>
<!-- Node2&#45;&gt;Node91 -->
<g id="edge76" class="edge">
<title>Node2&#45;&gt;Node91</title>
<path fill="none" stroke="midnightblue" d="M2009.86,-336.78C1960.64,-327.88 1879.97,-313.18 1810.5,-300 1809.24,-299.76 1807.96,-299.52 1806.67,-299.27"/>
<polygon fill="midnightblue" stroke="midnightblue" points="1807.14,-295.8 1796.66,-297.34 1805.82,-302.67 1807.14,-295.8"/>
</g>
<!-- Node4 -->
<g id="node4" class="node">
<title>Node4</title>
<g id="a_node4"><a xlink:title=" ">
<polygon fill="white" stroke="#bfbfbf" points="2613.5,-56.5 2613.5,-75.5 2675.5,-75.5 2675.5,-56.5 2613.5,-56.5"/>
<text text-anchor="middle" x="2644.5" y="-63.5" font-family="Helvetica,sans-Serif" font-size="10.00">stdbool.h</text>
</a>
</g>
</g>
<!-- Node3&#45;&gt;Node4 -->
<g id="edge3" class="edge">
<title>Node3&#45;&gt;Node4</title>
<path fill="none" stroke="midnightblue" d="M2083.04,-176.47C2179.27,-173.93 2566.96,-161.91 2611.5,-132 2627.39,-121.33 2636.03,-100.57 2640.43,-85.37"/>
<polygon fill="midnightblue" stroke="midnightblue" points="2643.87,-86.07 2642.93,-75.51 2637.08,-84.35 2643.87,-86.07"/>
</g>
<!-- Node5 -->
<g id="node5" class="node">
<title>Node5</title>
<g id="a_node5"><a xlink:title=" ">
<polygon fill="white" stroke="#bfbfbf" points="0,-0.5 0,-19.5 53,-19.5 53,-0.5 0,-0.5"/>
<text text-anchor="middle" x="26.5" y="-7.5" font-family="Helvetica,sans-Serif" font-size="10.00">stdint.h</text>
</a>
</g>
</g>
<!-- Node3&#45;&gt;Node5 -->
<g id="edge4" class="edge">
<title>Node3&#45;&gt;Node5</title>
<path fill="none" stroke="midnightblue" d="M2039.79,-176.82C1827.38,-175.06 126.69,-160.09 83.5,-132 48.08,-108.97 34.22,-57.56 29.16,-29.74"/>
<polygon fill="midnightblue" stroke="midnightblue" points="32.59,-29.03 27.54,-19.72 25.68,-30.15 32.59,-29.03"/>
</g>
<!-- Node6 -->
<g id="node6" class="node">
<title>Node6</title>
<g id="a_node6"><a xlink:title=" ">
<polygon fill="white" stroke="#bfbfbf" points="1520.5,-56.5 1520.5,-75.5 1630.5,-75.5 1630.5,-56.5 1520.5,-56.5"/>
<text text-anchor="middle" x="1575.5" y="-63.5" font-family="Helvetica,sans-Serif" font-size="10.00">swl/swl_common.h</text>
</a>
</g>
</g>
<!-- Node3&#45;&gt;Node6 -->
<g id="edge5" class="edge">
<title>Node3&#45;&gt;Node6</title>
<path fill="none" stroke="midnightblue" d="M2039.99,-176.65C1964.11,-175.14 1709.56,-167.47 1637.5,-132 1615.72,-121.28 1597.5,-99.56 1586.56,-84.18"/>
<polygon fill="midnightblue" stroke="midnightblue" points="1589.24,-81.89 1580.73,-75.58 1583.45,-85.82 1589.24,-81.89"/>
</g>
<!-- Node7 -->
<g id="node7" class="node">
<title>Node7</title>
<g id="a_node7"><a xlink:title=" ">
<polygon fill="white" stroke="#bfbfbf" points="1646.5,-112.5 1646.5,-131.5 1782.5,-131.5 1782.5,-112.5 1646.5,-112.5"/>
<text text-anchor="middle" x="1714.5" y="-119.5" font-family="Helvetica,sans-Serif" font-size="10.00">swla/swla_commonLib.h</text>
</a>
</g>
</g>
<!-- Node3&#45;&gt;Node7 -->
<g id="edge6" class="edge">
<title>Node3&#45;&gt;Node7</title>
<path fill="none" stroke="midnightblue" d="M2039.79,-173.62C1988.57,-165.65 1858.53,-145.41 1779.25,-133.08"/>
<polygon fill="midnightblue" stroke="midnightblue" points="1779.78,-129.62 1769.36,-131.54 1778.71,-136.53 1779.78,-129.62"/>
</g>
<!-- Node8 -->
<g id="node8" class="node">
<title>Node8</title>
<g id="a_node8"><a xlink:title=" ">
<polygon fill="white" stroke="#bfbfbf" points="1800.5,-112.5 1800.5,-131.5 1888.5,-131.5 1888.5,-112.5 1800.5,-112.5"/>
<text text-anchor="middle" x="1844.5" y="-119.5" font-family="Helvetica,sans-Serif" font-size="10.00">swl/swl_uuid.h</text>
</a>
</g>
</g>
<!-- Node3&#45;&gt;Node8 -->
<g id="edge7" class="edge">
<title>Node3&#45;&gt;Node8</title>
<path fill="none" stroke="midnightblue" d="M2039.9,-171.62C2004.74,-162.88 1934.46,-145.39 1888.47,-133.94"/>
<polygon fill="midnightblue" stroke="midnightblue" points="1889.31,-130.55 1878.76,-131.53 1887.62,-137.34 1889.31,-130.55"/>
</g>
<!-- Node9 -->
<g id="node9" class="node">
<title>Node9</title>
<g id="a_node9"><a xlink:title=" ">
<polygon fill="white" stroke="#bfbfbf" points="1906.5,-112.5 1906.5,-131.5 2058.5,-131.5 2058.5,-112.5 1906.5,-112.5"/>
<text text-anchor="middle" x="1982.5" y="-119.5" font-family="Helvetica,sans-Serif" font-size="10.00">swla/swla_radioStandards.h</text>
</a>
</g>
</g>
<!-- Node3&#45;&gt;Node9 -->
<g id="edge8" class="edge">
<title>Node3&#45;&gt;Node9</title>
<path fill="none" stroke="midnightblue" d="M2048.81,-168.32C2036.6,-159.98 2017.92,-147.21 2003.5,-137.35"/>
<polygon fill="midnightblue" stroke="midnightblue" points="2005.39,-134.41 1995.16,-131.65 2001.44,-140.19 2005.39,-134.41"/>
</g>
<!-- Node10 -->
<g id="node10" class="node">
<title>Node10</title>
<g id="a_node10"><a xlink:title=" ">
<polygon fill="white" stroke="#bfbfbf" points="2668,-0.5 2668,-19.5 2769,-19.5 2769,-0.5 2668,-0.5"/>
<text text-anchor="middle" x="2718.5" y="-7.5" font-family="Helvetica,sans-Serif" font-size="10.00">swla/swla_time.h</text>
</a>
</g>
</g>
<!-- Node3&#45;&gt;Node10 -->
<g id="edge9" class="edge">
<title>Node3&#45;&gt;Node10</title>
<path fill="none" stroke="midnightblue" d="M2083.2,-176.48C2201.34,-173.56 2762.74,-158.34 2787.5,-132 2818.1,-99.44 2768.59,-50.85 2738.66,-26.33"/>
<polygon fill="midnightblue" stroke="midnightblue" points="2740.48,-23.3 2730.47,-19.81 2736.12,-28.78 2740.48,-23.3"/>
</g>
<!-- Node11 -->
<g id="node11" class="node">
<title>Node11</title>
<g id="a_node11"><a xlink:title=" ">
<polygon fill="white" stroke="#bfbfbf" points="2077,-112.5 2077,-131.5 2206,-131.5 2206,-112.5 2077,-112.5"/>
<text text-anchor="middle" x="2141.5" y="-119.5" font-family="Helvetica,sans-Serif" font-size="10.00">swla/swla_time_spec.h</text>
</a>
</g>
</g>
<!-- Node3&#45;&gt;Node11 -->
<g id="edge10" class="edge">
<title>Node3&#45;&gt;Node11</title>
<path fill="none" stroke="midnightblue" d="M2074.35,-168.32C2086.72,-159.98 2105.63,-147.21 2120.24,-137.35"/>
<polygon fill="midnightblue" stroke="midnightblue" points="2122.35,-140.15 2128.68,-131.65 2118.43,-134.35 2122.35,-140.15"/>
</g>
<!-- Node12 -->
<g id="node12" class="node">
<title>Node12</title>
<g id="a_node12"><a xlink:title=" ">
<polygon fill="white" stroke="#bfbfbf" points="2224.5,-112.5 2224.5,-131.5 2318.5,-131.5 2318.5,-112.5 2224.5,-112.5"/>
<text text-anchor="middle" x="2271.5" y="-119.5" font-family="Helvetica,sans-Serif" font-size="10.00">swla/swla_oui.h</text>
</a>
</g>
</g>
<!-- Node3&#45;&gt;Node12 -->
<g id="edge11" class="edge">
<title>Node3&#45;&gt;Node12</title>
<path fill="none" stroke="midnightblue" d="M2083.18,-171.42C2117.31,-162.65 2184.2,-145.45 2228.38,-134.09"/>
<polygon fill="midnightblue" stroke="midnightblue" points="2229.45,-137.43 2238.26,-131.55 2227.7,-130.65 2229.45,-137.43"/>
</g>
<!-- Node13 -->
<g id="node13" class="node">
<title>Node13</title>
<g id="a_node13"><a xlink:title=" ">
<polygon fill="white" stroke="#bfbfbf" points="2336.5,-112.5 2336.5,-131.5 2464.5,-131.5 2464.5,-112.5 2336.5,-112.5"/>
<text text-anchor="middle" x="2400.5" y="-119.5" font-family="Helvetica,sans-Serif" font-size="10.00">swla/swla_delayExec.h</text>
</a>
</g>
</g>
<!-- Node3&#45;&gt;Node13 -->
<g id="edge12" class="edge">
<title>Node3&#45;&gt;Node13</title>
<path fill="none" stroke="midnightblue" d="M2083.22,-173.54C2133.57,-165.52 2259.83,-145.41 2337.03,-133.11"/>
<polygon fill="midnightblue" stroke="midnightblue" points="2337.8,-136.53 2347.12,-131.5 2336.7,-129.62 2337.8,-136.53"/>
</g>
<!-- Node14 -->
<g id="node14" class="node">
<title>Node14</title>
<g id="a_node14"><a xlink:title=" ">
<polygon fill="white" stroke="#bfbfbf" points="2483,-112.5 2483,-131.5 2602,-131.5 2602,-112.5 2483,-112.5"/>
<text text-anchor="middle" x="2542.5" y="-119.5" font-family="Helvetica,sans-Serif" font-size="10.00">swla/swla_function.h</text>
</a>
</g>
</g>
<!-- Node3&#45;&gt;Node14 -->
<g id="edge13" class="edge">
<title>Node3&#45;&gt;Node14</title>
<path fill="none" stroke="midnightblue" d="M2083.4,-174.77C2143.61,-168.61 2316.88,-150.64 2472.45,-132.1"/>
<polygon fill="midnightblue" stroke="midnightblue" points="2473.16,-135.54 2482.67,-130.88 2472.33,-128.59 2473.16,-135.54"/>
</g>
<!-- Node15 -->
<g id="node15" class="node">
<title>Node15</title>
<g id="a_node15"><a xlink:title=" ">
<polygon fill="white" stroke="#bfbfbf" points="2835,-112.5 2835,-131.5 2976,-131.5 2976,-112.5 2835,-112.5"/>
<text text-anchor="middle" x="2905.5" y="-119.5" font-family="Helvetica,sans-Serif" font-size="10.00">swl/swl_usp_cmdStatus.h</text>
</a>
</g>
</g>
<!-- Node3&#45;&gt;Node15 -->
<g id="edge14" class="edge">
<title>Node3&#45;&gt;Node15</title>
<path fill="none" stroke="midnightblue" d="M2083.26,-176.08C2173.75,-172.17 2529.11,-156.05 2820.5,-132 2821.79,-131.89 2823.09,-131.78 2824.4,-131.67"/>
<polygon fill="midnightblue" stroke="midnightblue" points="2824.91,-135.14 2834.56,-130.76 2824.29,-128.17 2824.91,-135.14"/>
</g>
<!-- Node16 -->
<g id="node16" class="node">
<title>Node16</title>
<g id="a_node16"><a xlink:title=" ">
<polygon fill="white" stroke="#bfbfbf" points="2994.5,-112.5 2994.5,-131.5 3080.5,-131.5 3080.5,-112.5 2994.5,-112.5"/>
<text text-anchor="middle" x="3037.5" y="-119.5" font-family="Helvetica,sans-Serif" font-size="10.00">swl/swl_wps.h</text>
</a>
</g>
</g>
<!-- Node3&#45;&gt;Node16 -->
<g id="edge15" class="edge">
<title>Node3&#45;&gt;Node16</title>
<path fill="none" stroke="midnightblue" d="M2083.07,-176.93C2183.82,-176.38 2618.37,-171.76 2984.43,-131.97"/>
<polygon fill="midnightblue" stroke="midnightblue" points="2984.87,-135.44 2994.43,-130.87 2984.11,-128.49 2984.87,-135.44"/>
</g>
<!-- Node17 -->
<g id="node17" class="node">
<title>Node17</title>
<g id="a_node17"><a xlink:title=" ">
<polygon fill="white" stroke="#bfbfbf" points="3098.5,-112.5 3098.5,-131.5 3202.5,-131.5 3202.5,-112.5 3098.5,-112.5"/>
<text text-anchor="middle" x="3150.5" y="-119.5" font-family="Helvetica,sans-Serif" font-size="10.00">swl/swl_security.h</text>
</a>
</g>
</g>
<!-- Node3&#45;&gt;Node17 -->
<g id="edge16" class="edge">
<title>Node3&#45;&gt;Node17</title>
<path fill="none" stroke="midnightblue" d="M2083.26,-176.88C2191.06,-176.09 2678.76,-170.52 3088.34,-132.01"/>
<polygon fill="midnightblue" stroke="midnightblue" points="3088.67,-135.49 3098.3,-131.06 3088.01,-128.52 3088.67,-135.49"/>
</g>
<!-- Node18 -->
<g id="node18" class="node">
<title>Node18</title>
<g id="a_node18"><a xlink:title=" ">
<polygon fill="white" stroke="#bfbfbf" points="3978,-112.5 3978,-131.5 4061,-131.5 4061,-112.5 3978,-112.5"/>
<text text-anchor="middle" x="4019.5" y="-119.5" font-family="Helvetica,sans-Serif" font-size="10.00">amxc/amxc.h</text>
</a>
</g>
</g>
<!-- Node3&#45;&gt;Node18 -->
<g id="edge17" class="edge">
<title>Node3&#45;&gt;Node18</title>
<path fill="none" stroke="midnightblue" d="M2083.23,-176.95C2266.44,-176.47 3555.95,-171.73 3967.67,-132"/>
<polygon fill="midnightblue" stroke="midnightblue" points="3968.22,-135.47 3977.83,-131 3967.53,-128.5 3968.22,-135.47"/>
</g>
<!-- Node19 -->
<g id="node19" class="node">
<title>Node19</title>
<g id="a_node19"><a xlink:title=" ">
<polygon fill="white" stroke="#bfbfbf" points="4079.5,-112.5 4079.5,-131.5 4163.5,-131.5 4163.5,-112.5 4079.5,-112.5"/>
<text text-anchor="middle" x="4121.5" y="-119.5" font-family="Helvetica,sans-Serif" font-size="10.00">amxp/amxp.h</text>
</a>
</g>
</g>
<!-- Node3&#45;&gt;Node19 -->
<g id="edge18" class="edge">
<title>Node3&#45;&gt;Node19</title>
<path fill="none" stroke="midnightblue" d="M2083.17,-176.97C2271.6,-176.65 3635.37,-172.94 4069.19,-131.94"/>
<polygon fill="midnightblue" stroke="midnightblue" points="4069.65,-135.41 4079.27,-130.96 4068.98,-128.44 4069.65,-135.41"/>
</g>
<!-- Node20 -->
<g id="node20" class="node">
<title>Node20</title>
<g id="a_node20"><a xlink:title=" ">
<polygon fill="white" stroke="#bfbfbf" points="4181.5,-112.5 4181.5,-131.5 4321.5,-131.5 4321.5,-112.5 4181.5,-112.5"/>
<text text-anchor="middle" x="4251.5" y="-119.5" font-family="Helvetica,sans-Serif" font-size="10.00">amxd/amxd_parameter.h</text>
</a>
</g>
</g>
<!-- Node3&#45;&gt;Node20 -->
<g id="edge19" class="edge">
<title>Node3&#45;&gt;Node20</title>
<path fill="none" stroke="midnightblue" d="M2083.02,-176.82C2276.09,-175.12 3713.89,-161.67 4171.03,-132.02"/>
<polygon fill="midnightblue" stroke="midnightblue" points="4171.57,-135.49 4181.32,-131.33 4171.11,-128.5 4171.57,-135.49"/>
</g>
<!-- Node21 -->
<g id="node21" class="node">
<title>Node21</title>
<g id="a_node21"><a xlink:title=" ">
<polygon fill="white" stroke="#bfbfbf" points="4340,-112.5 4340,-131.5 4459,-131.5 4459,-112.5 4340,-112.5"/>
<text text-anchor="middle" x="4399.5" y="-119.5" font-family="Helvetica,sans-Serif" font-size="10.00">amxd/amxd_action.h</text>
</a>
</g>
</g>
<!-- Node3&#45;&gt;Node21 -->
<g id="edge20" class="edge">
<title>Node3&#45;&gt;Node21</title>
<path fill="none" stroke="midnightblue" d="M2083.02,-176.9C2284.17,-175.93 3838.78,-167.34 4329.72,-131.94"/>
<polygon fill="midnightblue" stroke="midnightblue" points="4329.99,-135.43 4339.7,-131.21 4329.47,-128.45 4329.99,-135.43"/>
</g>
<!-- Node22 -->
<g id="node22" class="node">
<title>Node22</title>
<g id="a_node22"><a xlink:title=" ">
<polygon fill="white" stroke="#bfbfbf" points="4477,-112.5 4477,-131.5 4652,-131.5 4652,-112.5 4477,-112.5"/>
<text text-anchor="middle" x="4564.5" y="-119.5" font-family="Helvetica,sans-Serif" font-size="10.00">amxd/amxd_object_parameter.h</text>
</a>
</g>
</g>
<!-- Node3&#45;&gt;Node22 -->
<g id="edge21" class="edge">
<title>Node3&#45;&gt;Node22</title>
<path fill="none" stroke="midnightblue" d="M2083.32,-176.82C2292.48,-175.05 3946.25,-160.28 4466.68,-132.05"/>
<polygon fill="midnightblue" stroke="midnightblue" points="4467.09,-135.53 4476.89,-131.49 4466.71,-128.54 4467.09,-135.53"/>
</g>
<!-- Node23 -->
<g id="node23" class="node">
<title>Node23</title>
<g id="a_node23"><a xlink:title=" ">
<polygon fill="white" stroke="#bfbfbf" points="4670.5,-112.5 4670.5,-131.5 4822.5,-131.5 4822.5,-112.5 4670.5,-112.5"/>
<text text-anchor="middle" x="4746.5" y="-119.5" font-family="Helvetica,sans-Serif" font-size="10.00">amxd/amxd_object_event.h</text>
</a>
</g>
</g>
<!-- Node3&#45;&gt;Node23 -->
<g id="edge22" class="edge">
<title>Node3&#45;&gt;Node23</title>
<path fill="none" stroke="midnightblue" d="M2083.32,-176.89C2301.75,-175.75 4097.81,-165.42 4659.86,-132.03"/>
<polygon fill="midnightblue" stroke="midnightblue" points="4660.3,-135.51 4670.07,-131.41 4659.88,-128.52 4660.3,-135.51"/>
</g>
<!-- Node24 -->
<g id="node24" class="node">
<title>Node24</title>
<g id="a_node24"><a xlink:title=" ">
<polygon fill="white" stroke="#bfbfbf" points="3831,-112.5 3831,-131.5 3960,-131.5 3960,-112.5 3831,-112.5"/>
<text text-anchor="middle" x="3895.5" y="-119.5" font-family="Helvetica,sans-Serif" font-size="10.00">amxd/amxd_function.h</text>
</a>
</g>
</g>
<!-- Node3&#45;&gt;Node24 -->
<g id="edge23" class="edge">
<title>Node3&#45;&gt;Node24</title>
<path fill="none" stroke="midnightblue" d="M2083.18,-176.73C2257.84,-174.53 3438.66,-158.81 3820.71,-131.95"/>
<polygon fill="midnightblue" stroke="midnightblue" points="3821.24,-135.43 3830.96,-131.22 3820.74,-128.44 3821.24,-135.43"/>
</g>
<!-- Node25 -->
<g id="node25" class="node">
<title>Node25</title>
<g id="a_node25"><a xlink:title=" ">
<polygon fill="white" stroke="#bfbfbf" points="3221,-112.5 3221,-131.5 3390,-131.5 3390,-112.5 3221,-112.5"/>
<text text-anchor="middle" x="3305.5" y="-119.5" font-family="Helvetica,sans-Serif" font-size="10.00">amxd/amxd_object_hierarchy.h</text>
</a>
</g>
</g>
<!-- Node3&#45;&gt;Node25 -->
<g id="edge24" class="edge">
<title>Node3&#45;&gt;Node25</title>
<path fill="none" stroke="midnightblue" d="M2083.07,-176.61C2197.81,-174.44 2748.33,-162.83 3210.75,-132.01"/>
<polygon fill="midnightblue" stroke="midnightblue" points="3211.22,-135.48 3220.97,-131.32 3210.76,-128.5 3211.22,-135.48"/>
</g>
<!-- Node26 -->
<g id="node26" class="node">
<title>Node26</title>
<g id="a_node26"><a xlink:title=" ">
<polygon fill="white" stroke="#bfbfbf" points="3408,-112.5 3408,-131.5 3527,-131.5 3527,-112.5 3408,-112.5"/>
<text text-anchor="middle" x="3467.5" y="-119.5" font-family="Helvetica,sans-Serif" font-size="10.00">amxd/amxd_object.h</text>
</a>
</g>
</g>
<!-- Node3&#45;&gt;Node26 -->
<g id="edge25" class="edge">
<title>Node3&#45;&gt;Node26</title>
<path fill="none" stroke="midnightblue" d="M2083.2,-177.07C2209.04,-177.28 2857.86,-176.17 3397.5,-132.08"/>
<polygon fill="midnightblue" stroke="midnightblue" points="3398.15,-135.54 3407.83,-131.23 3397.58,-128.57 3398.15,-135.54"/>
</g>
<!-- Node27 -->
<g id="node27" class="node">
<title>Node27</title>
<g id="a_node27"><a xlink:title=" ">
<polygon fill="white" stroke="#bfbfbf" points="3545,-112.5 3545,-131.5 3650,-131.5 3650,-112.5 3545,-112.5"/>
<text text-anchor="middle" x="3597.5" y="-119.5" font-family="Helvetica,sans-Serif" font-size="10.00">amxd/amxd_dm.h</text>
</a>
</g>
</g>
<!-- Node3&#45;&gt;Node27 -->
<g id="edge26" class="edge">
<title>Node3&#45;&gt;Node27</title>
<path fill="none" stroke="midnightblue" d="M2083.08,-176.69C2240.55,-174.34 3215.07,-158.97 3534.79,-132.03"/>
<polygon fill="midnightblue" stroke="midnightblue" points="3535.31,-135.49 3544.97,-131.14 3534.71,-128.52 3535.31,-135.49"/>
</g>
<!-- Node28 -->
<g id="node28" class="node">
<title>Node28</title>
<g id="a_node28"><a xlink:title=" ">
<polygon fill="white" stroke="#bfbfbf" points="3668.5,-112.5 3668.5,-131.5 3812.5,-131.5 3812.5,-112.5 3668.5,-112.5"/>
<text text-anchor="middle" x="3740.5" y="-119.5" font-family="Helvetica,sans-Serif" font-size="10.00">amxd/amxd_transaction.h</text>
</a>
</g>
</g>
<!-- Node3&#45;&gt;Node28 -->
<g id="edge27" class="edge">
<title>Node3&#45;&gt;Node28</title>
<path fill="none" stroke="midnightblue" d="M2083.15,-177.06C2222.51,-177.33 3007.66,-176.76 3658.06,-132.04"/>
<polygon fill="midnightblue" stroke="midnightblue" points="3658.37,-135.53 3668.1,-131.34 3657.89,-128.54 3658.37,-135.53"/>
</g>
<!-- Node29 -->
<g id="node29" class="node">
<title>Node29</title>
<g id="a_node29"><a xlink:title=" ">
<polygon fill="white" stroke="#bfbfbf" points="92.5,-112.5 92.5,-131.5 208.5,-131.5 208.5,-112.5 92.5,-112.5"/>
<text text-anchor="middle" x="150.5" y="-119.5" font-family="Helvetica,sans-Serif" font-size="10.00">amxb/amxb_types.h</text>
</a>
</g>
</g>
<!-- Node3&#45;&gt;Node29 -->
<g id="edge28" class="edge">
<title>Node3&#45;&gt;Node29</title>
<path fill="none" stroke="midnightblue" d="M2039.94,-176.8C1860.95,-175.08 618.1,-162.22 218.7,-131.98"/>
<polygon fill="midnightblue" stroke="midnightblue" points="218.8,-128.48 208.56,-131.19 218.26,-135.46 218.8,-128.48"/>
</g>
<!-- Node30 -->
<g id="node30" class="node">
<title>Node30</title>
<g id="a_node30"><a xlink:title=" ">
<polygon fill="white" stroke="#bfbfbf" points="226.5,-112.5 226.5,-131.5 362.5,-131.5 362.5,-112.5 226.5,-112.5"/>
<text text-anchor="middle" x="294.5" y="-119.5" font-family="Helvetica,sans-Serif" font-size="10.00">amxb/amxb_operators.h</text>
</a>
</g>
</g>
<!-- Node3&#45;&gt;Node30 -->
<g id="edge29" class="edge">
<title>Node3&#45;&gt;Node30</title>
<path fill="none" stroke="midnightblue" d="M2039.54,-177.16C1894.75,-178.05 1061.81,-180.82 373.03,-132.04"/>
<polygon fill="midnightblue" stroke="midnightblue" points="373.13,-128.54 362.9,-131.32 372.63,-135.52 373.13,-128.54"/>
</g>
<!-- Node31 -->
<g id="node31" class="node">
<title>Node31</title>
<g id="a_node31"><a xlink:title=" ">
<polygon fill="white" stroke="#bfbfbf" points="380.5,-112.5 380.5,-131.5 492.5,-131.5 492.5,-112.5 380.5,-112.5"/>
<text text-anchor="middle" x="436.5" y="-119.5" font-family="Helvetica,sans-Serif" font-size="10.00">amxb/amxb_error.h</text>
</a>
</g>
</g>
<!-- Node3&#45;&gt;Node31 -->
<g id="edge30" class="edge">
<title>Node3&#45;&gt;Node31</title>
<path fill="none" stroke="midnightblue" d="M2040,-176.7C1877.58,-174.4 840.99,-158.87 502.87,-132"/>
<polygon fill="midnightblue" stroke="midnightblue" points="503.08,-128.51 492.83,-131.18 502.51,-135.48 503.08,-128.51"/>
</g>
<!-- Node32 -->
<g id="node32" class="node">
<title>Node32</title>
<g id="a_node32"><a xlink:title=" ">
<polygon fill="white" stroke="#bfbfbf" points="511,-112.5 511,-131.5 594,-131.5 594,-112.5 511,-112.5"/>
<text text-anchor="middle" x="552.5" y="-119.5" font-family="Helvetica,sans-Serif" font-size="10.00">amxo/amxo.h</text>
</a>
</g>
</g>
<!-- Node3&#45;&gt;Node32 -->
<g id="edge31" class="edge">
<title>Node3&#45;&gt;Node32</title>
<path fill="none" stroke="midnightblue" d="M2039.64,-176.77C1882.25,-175.03 919.64,-163.31 604.22,-132"/>
<polygon fill="midnightblue" stroke="midnightblue" points="604.48,-128.51 594.18,-130.98 603.77,-135.47 604.48,-128.51"/>
</g>
<!-- Node33 -->
<g id="node33" class="node">
<title>Node33</title>
<g id="a_node33"><a xlink:title=" ">
<polygon fill="white" stroke="#bfbfbf" points="612,-112.5 612,-131.5 727,-131.5 727,-112.5 612,-112.5"/>
<text text-anchor="middle" x="669.5" y="-119.5" font-family="Helvetica,sans-Serif" font-size="10.00">amxo/amxo_types.h</text>
</a>
</g>
</g>
<!-- Node3&#45;&gt;Node33 -->
<g id="edge32" class="edge">
<title>Node3&#45;&gt;Node33</title>
<path fill="none" stroke="midnightblue" d="M2039.6,-177.07C1913.98,-177.32 1272.25,-176.29 737.44,-131.98"/>
<polygon fill="midnightblue" stroke="midnightblue" points="737.46,-128.47 727.2,-131.12 736.88,-135.44 737.46,-128.47"/>
</g>
<!-- Node3&#45;&gt;Node34 -->
<g id="edge33" class="edge">
<title>Node3&#45;&gt;Node34</title>
<path fill="none" stroke="midnightblue" d="M2039.96,-176.53C1946.81,-174.34 1578.35,-163.78 1467.5,-132 1464.86,-131.24 1404.07,-99.12 1368.61,-80.32"/>
<polygon fill="midnightblue" stroke="midnightblue" points="1370.24,-77.23 1359.76,-75.63 1366.96,-83.41 1370.24,-77.23"/>
</g>
<!-- Node37 -->
<g id="node35" class="node">
<title>Node37</title>
<g id="a_node35"><a xlink:href="wld__channel__types_8h.html" target="_top" xlink:title=" ">
<polygon fill="white" stroke="red" points="2659,-112.5 2659,-131.5 2778,-131.5 2778,-112.5 2659,-112.5"/>
<text text-anchor="middle" x="2718.5" y="-119.5" font-family="Helvetica,sans-Serif" font-size="10.00">wld_channel_types.h</text>
</a>
</g>
</g>
<!-- Node3&#45;&gt;Node37 -->
<g id="edge36" class="edge">
<title>Node3&#45;&gt;Node37</title>
<path fill="none" stroke="midnightblue" d="M2083.24,-175.67C2160.04,-170.89 2425.79,-153.73 2644.5,-132 2645.8,-131.87 2647.12,-131.74 2648.45,-131.6"/>
<polygon fill="midnightblue" stroke="midnightblue" points="2649.18,-135.04 2658.75,-130.5 2648.43,-128.08 2649.18,-135.04"/>
</g>
<!-- Node39 -->
<g id="node36" class="node">
<title>Node39</title>
<g id="a_node36"><a xlink:href="wld__bgdfs_8h.html" target="_top" xlink:title=" ">
<polygon fill="white" stroke="black" points="1175,-112.5 1175,-131.5 1250,-131.5 1250,-112.5 1175,-112.5"/>
<text text-anchor="middle" x="1212.5" y="-119.5" font-family="Helvetica,sans-Serif" font-size="10.00">wld_bgdfs.h</text>
</a>
</g>
</g>
<!-- Node3&#45;&gt;Node39 -->
<g id="edge39" class="edge">
<title>Node3&#45;&gt;Node39</title>
<path fill="none" stroke="midnightblue" d="M2040,-176.88C1947.62,-176.12 1575.23,-170.77 1260.33,-132.06"/>
<polygon fill="midnightblue" stroke="midnightblue" points="1260.44,-128.55 1250.09,-130.79 1259.58,-135.5 1260.44,-128.55"/>
</g>
<!-- Node40 -->
<g id="node37" class="node">
<title>Node40</title>
<g id="a_node37"><a xlink:href="wld__rad__delayMgr_8h.html" target="_top" xlink:title=" ">
<polygon fill="white" stroke="black" points="745.5,-112.5 745.5,-131.5 859.5,-131.5 859.5,-112.5 745.5,-112.5"/>
<text text-anchor="middle" x="802.5" y="-119.5" font-family="Helvetica,sans-Serif" font-size="10.00">wld_rad_delayMgr.h</text>
</a>
</g>
</g>
<!-- Node3&#45;&gt;Node40 -->
<g id="edge41" class="edge">
<title>Node3&#45;&gt;Node40</title>
<path fill="none" stroke="midnightblue" d="M2039.7,-176.98C1921.06,-176.71 1343.2,-173.33 864.48,-132.39"/>
<polygon fill="midnightblue" stroke="midnightblue" points="864.52,-128.88 854.25,-131.51 863.92,-135.86 864.52,-128.88"/>
</g>
<!-- Node41 -->
<g id="node38" class="node">
<title>Node41</title>
<g id="a_node38"><a xlink:href="wld__fsm_8h.html" target="_top" xlink:title=" ">
<polygon fill="white" stroke="black" points="1268,-112.5 1268,-131.5 1335,-131.5 1335,-112.5 1268,-112.5"/>
<text text-anchor="middle" x="1301.5" y="-119.5" font-family="Helvetica,sans-Serif" font-size="10.00">wld_fsm.h</text>
</a>
</g>
</g>
<!-- Node3&#45;&gt;Node41 -->
<g id="edge43" class="edge">
<title>Node3&#45;&gt;Node41</title>
<path fill="none" stroke="midnightblue" d="M2039.94,-176.81C1953.62,-175.83 1624.47,-169.76 1345.26,-132.06"/>
<polygon fill="midnightblue" stroke="midnightblue" points="1345.73,-128.59 1335.35,-130.7 1344.78,-135.53 1345.73,-128.59"/>
</g>
<!-- Node42 -->
<g id="node39" class="node">
<title>Node42</title>
<g id="a_node39"><a xlink:href="wld__sensing_8h.html" target="_top" xlink:title=" ">
<polygon fill="white" stroke="black" points="877.5,-112.5 877.5,-131.5 963.5,-131.5 963.5,-112.5 877.5,-112.5"/>
<text text-anchor="middle" x="920.5" y="-119.5" font-family="Helvetica,sans-Serif" font-size="10.00">wld_sensing.h</text>
</a>
</g>
</g>
<!-- Node3&#45;&gt;Node42 -->
<g id="edge45" class="edge">
<title>Node3&#45;&gt;Node42</title>
<path fill="none" stroke="midnightblue" d="M2039.91,-177.14C1927.83,-177.7 1403.13,-178.04 969.58,-132.6"/>
<polygon fill="midnightblue" stroke="midnightblue" points="969.67,-129.09 959.35,-131.52 968.93,-136.06 969.67,-129.09"/>
</g>
<!-- Node43 -->
<g id="node40" class="node">
<title>Node43</title>
<g id="a_node40"><a xlink:href="wld__mld_8h.html" target="_top" xlink:title=" ">
<polygon fill="white" stroke="black" points="1353,-112.5 1353,-131.5 1420,-131.5 1420,-112.5 1353,-112.5"/>
<text text-anchor="middle" x="1386.5" y="-119.5" font-family="Helvetica,sans-Serif" font-size="10.00">wld_mld.h</text>
</a>
</g>
</g>
<!-- Node3&#45;&gt;Node43 -->
<g id="edge47" class="edge">
<title>Node3&#45;&gt;Node43</title>
<path fill="none" stroke="midnightblue" d="M2039.75,-176.34C1959.22,-173.68 1670.45,-162.49 1434.5,-132 1433.2,-131.83 1431.88,-131.65 1430.55,-131.46"/>
<polygon fill="midnightblue" stroke="midnightblue" points="1430.68,-127.94 1420.25,-129.83 1429.58,-134.85 1430.68,-127.94"/>
</g>
<!-- Node44 -->
<g id="node41" class="node">
<title>Node44</title>
<g id="a_node41"><a xlink:href="wld__autoCommitRadData_8h.html" target="_top" xlink:title=" ">
<polygon fill="white" stroke="black" points="981.5,-112.5 981.5,-131.5 1157.5,-131.5 1157.5,-112.5 981.5,-112.5"/>
<text text-anchor="middle" x="1069.5" y="-119.5" font-family="Helvetica,sans-Serif" font-size="10.00">Utils/wld_autoCommitRadData.h</text>
</a>
</g>
</g>
<!-- Node3&#45;&gt;Node44 -->
<g id="edge49" class="edge">
<title>Node3&#45;&gt;Node44</title>
<path fill="none" stroke="midnightblue" d="M2039.98,-176.26C1941.34,-172.82 1522.35,-157.39 1167.84,-132.14"/>
<polygon fill="midnightblue" stroke="midnightblue" points="1167.86,-128.64 1157.63,-131.41 1167.36,-135.62 1167.86,-128.64"/>
</g>
<!-- Node45 -->
<g id="node42" class="node">
<title>Node45</title>
<g id="a_node42"><a xlink:href="wld__dmnMgt_8h.html" target="_top" xlink:title=" ">
<polygon fill="white" stroke="red" points="1476.5,-112.5 1476.5,-131.5 1590.5,-131.5 1590.5,-112.5 1476.5,-112.5"/>
<text text-anchor="middle" x="1533.5" y="-119.5" font-family="Helvetica,sans-Serif" font-size="10.00">Utils/wld_dmnMgt.h</text>
</a>
</g>
</g>
<!-- Node3&#45;&gt;Node45 -->
<g id="edge50" class="edge">
<title>Node3&#45;&gt;Node45</title>
<path fill="none" stroke="midnightblue" d="M2039.6,-175.06C1973.72,-169.19 1771.66,-150.82 1604.5,-132 1603.39,-131.87 1602.27,-131.75 1601.14,-131.62"/>
<polygon fill="midnightblue" stroke="midnightblue" points="1601.17,-128.1 1590.83,-130.41 1600.36,-135.05 1601.17,-128.1"/>
</g>
<!-- Node34&#45;&gt;Node5 -->
<g id="edge34" class="edge">
<title>Node34&#45;&gt;Node5</title>
<path fill="none" stroke="midnightblue" d="M1305.86,-63.46C1114.61,-55.62 252.38,-20.26 63.25,-12.51"/>
<polygon fill="midnightblue" stroke="midnightblue" points="63.39,-9.01 53.25,-12.1 63.1,-16 63.39,-9.01"/>
</g>
<!-- Node34&#45;&gt;Node10 -->
<g id="edge35" class="edge">
<title>Node34&#45;&gt;Node10</title>
<path fill="none" stroke="midnightblue" d="M1381.19,-62.81C1415.23,-60.86 1466.71,-58.03 1511.5,-56 1951.03,-36.03 2480.89,-18.57 2657.75,-12.92"/>
<polygon fill="midnightblue" stroke="midnightblue" points="2658.01,-16.41 2667.89,-12.59 2657.79,-9.41 2658.01,-16.41"/>
</g>
<!-- Node37&#45;&gt;Node4 -->
<g id="edge37" class="edge">
<title>Node37&#45;&gt;Node4</title>
<path fill="none" stroke="midnightblue" d="M2706.61,-112.32C2695.35,-104.11 2678.21,-91.6 2664.79,-81.81"/>
<polygon fill="midnightblue" stroke="midnightblue" points="2666.75,-78.9 2656.61,-75.83 2662.62,-84.56 2666.75,-78.9"/>
</g>
<!-- Node37&#45;&gt;Node10 -->
<g id="edge38" class="edge">
<title>Node37&#45;&gt;Node10</title>
<path fill="none" stroke="midnightblue" d="M2718.5,-112.37C2718.5,-94.62 2718.5,-53.67 2718.5,-29.6"/>
<polygon fill="midnightblue" stroke="midnightblue" points="2722,-29.59 2718.5,-19.59 2715,-29.59 2722,-29.59"/>
</g>
<!-- Node39&#45;&gt;Node34 -->
<g id="edge40" class="edge">
<title>Node39&#45;&gt;Node34</title>
<path fill="none" stroke="midnightblue" d="M1233.26,-112.44C1254.82,-103.56 1288.76,-89.56 1313.29,-79.45"/>
<polygon fill="midnightblue" stroke="midnightblue" points="1314.93,-82.56 1322.84,-75.52 1312.26,-76.09 1314.93,-82.56"/>
</g>
<!-- Node40&#45;&gt;Node3 -->
<g id="edge42" class="edge">
<title>Node40&#45;&gt;Node3</title>
<path fill="none" stroke="midnightblue" d="M859.67,-130.13C865.71,-130.85 871.74,-131.5 877.5,-132 1333.87,-171.63 1891.44,-176.37 2029.53,-176.93"/>
<polygon fill="midnightblue" stroke="midnightblue" points="2029.8,-180.43 2039.81,-176.97 2029.82,-173.43 2029.8,-180.43"/>
</g>
<!-- Node41&#45;&gt;Node34 -->
<g id="edge44" class="edge">
<title>Node41&#45;&gt;Node34</title>
<path fill="none" stroke="midnightblue" d="M1308.44,-112.08C1314.43,-104.38 1323.25,-93.03 1330.55,-83.65"/>
<polygon fill="midnightblue" stroke="midnightblue" points="1333.32,-85.79 1336.69,-75.75 1327.79,-81.5 1333.32,-85.79"/>
</g>
<!-- Node42&#45;&gt;Node3 -->
<g id="edge46" class="edge">
<title>Node42&#45;&gt;Node3</title>
<path fill="none" stroke="midnightblue" d="M963.68,-129.59C969.7,-130.53 975.76,-131.39 981.5,-132 1394.19,-176.05 1899.11,-177.65 2029.62,-177.21"/>
<polygon fill="midnightblue" stroke="midnightblue" points="2029.74,-180.71 2039.73,-177.16 2029.71,-173.71 2029.74,-180.71"/>
</g>
<!-- Node43&#45;&gt;Node34 -->
<g id="edge48" class="edge">
<title>Node43&#45;&gt;Node34</title>
<path fill="none" stroke="midnightblue" d="M1379.4,-112.08C1373.26,-104.38 1364.23,-93.03 1356.76,-83.65"/>
<polygon fill="midnightblue" stroke="midnightblue" points="1359.44,-81.39 1350.47,-75.75 1353.96,-85.75 1359.44,-81.39"/>
</g>
<!-- Node45&#45;&gt;Node6 -->
<g id="edge51" class="edge">
<title>Node45&#45;&gt;Node6</title>
<path fill="none" stroke="midnightblue" d="M1540.44,-112.08C1546.43,-104.38 1555.25,-93.03 1562.55,-83.65"/>
<polygon fill="midnightblue" stroke="midnightblue" points="1565.32,-85.79 1568.69,-75.75 1559.79,-81.5 1565.32,-85.79"/>
</g>
<!-- Node45&#45;&gt;Node34 -->
<g id="edge52" class="edge">
<title>Node45&#45;&gt;Node34</title>
<path fill="none" stroke="midnightblue" d="M1503.39,-112.44C1470.87,-103.2 1418.92,-88.44 1383.11,-78.26"/>
<polygon fill="midnightblue" stroke="midnightblue" points="1384.04,-74.88 1373.47,-75.52 1382.13,-81.62 1384.04,-74.88"/>
</g>
<!-- Node76&#45;&gt;Node18 -->
<g id="edge54" class="edge">
<title>Node76&#45;&gt;Node18</title>
<path fill="none" stroke="midnightblue" d="M4160.04,-168.44C4131.82,-159.32 4086.96,-144.81 4055.53,-134.65"/>
<polygon fill="midnightblue" stroke="midnightblue" points="4056.43,-131.26 4045.84,-131.52 4054.28,-137.92 4056.43,-131.26"/>
</g>
<!-- Node76&#45;&gt;Node19 -->
<g id="edge55" class="edge">
<title>Node76&#45;&gt;Node19</title>
<path fill="none" stroke="midnightblue" d="M4176.06,-168.32C4166.35,-160.26 4151.68,-148.08 4140,-138.37"/>
<polygon fill="midnightblue" stroke="midnightblue" points="4142.06,-135.53 4132.13,-131.83 4137.59,-140.92 4142.06,-135.53"/>
</g>
<!-- Node76&#45;&gt;Node20 -->
<g id="edge56" class="edge">
<title>Node76&#45;&gt;Node20</title>
<path fill="none" stroke="midnightblue" d="M4196.94,-168.32C4206.65,-160.26 4221.32,-148.08 4233,-138.37"/>
<polygon fill="midnightblue" stroke="midnightblue" points="4235.41,-140.92 4240.87,-131.83 4230.94,-135.53 4235.41,-140.92"/>
</g>
<!-- Node76&#45;&gt;Node21 -->
<g id="edge57" class="edge">
<title>Node76&#45;&gt;Node21</title>
<path fill="none" stroke="midnightblue" d="M4220.25,-168.44C4257.02,-159.12 4315.95,-144.18 4356.12,-134"/>
<polygon fill="midnightblue" stroke="midnightblue" points="4357.07,-137.37 4365.91,-131.52 4355.35,-130.58 4357.07,-137.37"/>
</g>
<!-- Node76&#45;&gt;Node22 -->
<g id="edge58" class="edge">
<title>Node76&#45;&gt;Node22</title>
<path fill="none" stroke="midnightblue" d="M4232.1,-170.49C4297.4,-161.16 4418.11,-143.91 4494.7,-132.97"/>
<polygon fill="midnightblue" stroke="midnightblue" points="4495.34,-136.42 4504.74,-131.54 4494.35,-129.49 4495.34,-136.42"/>
</g>
<!-- Node76&#45;&gt;Node23 -->
<g id="edge59" class="edge">
<title>Node76&#45;&gt;Node23</title>
<path fill="none" stroke="midnightblue" d="M4232.04,-172.85C4314.92,-165.27 4496.23,-148.52 4659.8,-132.16"/>
<polygon fill="midnightblue" stroke="midnightblue" points="4660.45,-135.61 4670.05,-131.14 4659.75,-128.65 4660.45,-135.61"/>
</g>
<!-- Node76&#45;&gt;Node24 -->
<g id="edge60" class="edge">
<title>Node76&#45;&gt;Node24</title>
<path fill="none" stroke="midnightblue" d="M4140.71,-168.5C4089.48,-159 4006.47,-143.59 3951.44,-133.38"/>
<polygon fill="midnightblue" stroke="midnightblue" points="3951.97,-129.92 3941.5,-131.54 3950.7,-136.8 3951.97,-129.92"/>
</g>
<!-- Node77&#45;&gt;Node3 -->
<g id="edge62" class="edge">
<title>Node77&#45;&gt;Node3</title>
<path fill="none" stroke="midnightblue" d="M2116.06,-224.32C2106.35,-216.26 2091.68,-204.08 2080,-194.37"/>
<polygon fill="midnightblue" stroke="midnightblue" points="2082.06,-191.53 2072.13,-187.83 2077.59,-196.92 2082.06,-191.53"/>
</g>
<!-- Node84&#45;&gt;Node3 -->
<g id="edge64" class="edge">
<title>Node84&#45;&gt;Node3</title>
<path fill="none" stroke="midnightblue" d="M2019.11,-280.37C2026.6,-262.46 2043.97,-220.92 2053.99,-196.95"/>
<polygon fill="midnightblue" stroke="midnightblue" points="2057.28,-198.17 2057.91,-187.59 2050.82,-195.47 2057.28,-198.17"/>
</g>
<!-- Node84&#45;&gt;Node85 -->
<g id="edge65" class="edge">
<title>Node84&#45;&gt;Node85</title>
<path fill="none" stroke="midnightblue" d="M1996.96,-280.44C1977.88,-271.64 1947.93,-257.81 1926.06,-247.72"/>
<polygon fill="midnightblue" stroke="midnightblue" points="1927.5,-244.53 1916.95,-243.52 1924.57,-250.88 1927.5,-244.53"/>
</g>
<!-- Node85&#45;&gt;Node3 -->
<g id="edge67" class="edge">
<title>Node85&#45;&gt;Node3</title>
<path fill="none" stroke="midnightblue" d="M1924.33,-224.44C1953.04,-214.93 1999.41,-199.57 2030.17,-189.38"/>
<polygon fill="midnightblue" stroke="midnightblue" points="2031.57,-192.6 2039.96,-186.14 2029.36,-185.96 2031.57,-192.6"/>
</g>
<!-- Node85&#45;&gt;Node5 -->
<g id="edge66" class="edge">
<title>Node85&#45;&gt;Node5</title>
<path fill="none" stroke="midnightblue" d="M1864.31,-233.19C1625.76,-234.22 215.28,-235.9 59.5,-132 26.38,-109.91 23.74,-57.67 24.93,-29.6"/>
<polygon fill="midnightblue" stroke="midnightblue" points="28.43,-29.72 25.57,-19.52 21.44,-29.27 28.43,-29.72"/>
</g>
<!-- Node86&#45;&gt;Node3 -->
<g id="edge69" class="edge">
<title>Node86&#45;&gt;Node3</title>
<path fill="none" stroke="midnightblue" d="M1911.29,-280.37C1939.26,-261.49 2006.1,-216.38 2040.4,-193.24"/>
<polygon fill="midnightblue" stroke="midnightblue" points="2042.44,-196.09 2048.77,-187.59 2038.52,-190.28 2042.44,-196.09"/>
</g>
<!-- Node86&#45;&gt;Node85 -->
<g id="edge70" class="edge">
<title>Node86&#45;&gt;Node85</title>
<path fill="none" stroke="midnightblue" d="M1898.5,-280.08C1898.5,-273.01 1898.5,-262.86 1898.5,-253.99"/>
<polygon fill="midnightblue" stroke="midnightblue" points="1902,-253.75 1898.5,-243.75 1895,-253.75 1902,-253.75"/>
</g>
<!-- Node87&#45;&gt;Node3 -->
<g id="edge72" class="edge">
<title>Node87&#45;&gt;Node3</title>
<path fill="none" stroke="midnightblue" d="M2201.2,-224.44C2171.75,-214.86 2124.05,-199.35 2092.73,-189.16"/>
<polygon fill="midnightblue" stroke="midnightblue" points="2093.78,-185.82 2083.18,-186.05 2091.61,-192.48 2093.78,-185.82"/>
</g>
<!-- Node90&#45;&gt;Node3 -->
<g id="edge74" class="edge">
<title>Node90&#45;&gt;Node3</title>
<path fill="none" stroke="midnightblue" d="M2292.24,-225.81C2289.28,-225.19 2286.34,-224.58 2283.5,-224 2215.71,-210.04 2136.21,-194 2093.14,-185.35"/>
<polygon fill="midnightblue" stroke="midnightblue" points="2093.75,-181.9 2083.25,-183.36 2092.37,-188.76 2093.75,-181.9"/>
</g>
<!-- Node91&#45;&gt;Node3 -->
<g id="edge77" class="edge">
<title>Node91&#45;&gt;Node3</title>
<path fill="none" stroke="midnightblue" d="M1773.79,-280.36C1789.41,-266.32 1822.49,-238.65 1855.5,-224 1913.83,-198.11 1988.24,-186.62 2029.79,-181.91"/>
<polygon fill="midnightblue" stroke="midnightblue" points="2030.29,-185.38 2039.86,-180.84 2029.54,-178.42 2030.29,-185.38"/>
</g>
</g>
</svg>
