<?xml version="1.0" encoding="UTF-8" standalone="no"?>
<!DOCTYPE svg PUBLIC "-//W3C//DTD SVG 1.1//EN"
 "http://www.w3.org/Graphics/SVG/1.1/DTD/svg11.dtd">
<!-- Generated by graphviz version 2.43.0 (0)
 -->
<!-- Title: wld_rad_hostapd_setMiscParams Pages: 1 -->
<svg width="962pt" height="577pt"
 viewBox="0.00 0.00 962.00 576.64" xmlns="http://www.w3.org/2000/svg" xmlns:xlink="http://www.w3.org/1999/xlink">
<g id="graph0" class="graph" transform="scale(1 1) rotate(0) translate(4 572.64)">
<title>wld_rad_hostapd_setMiscParams</title>
<polygon fill="white" stroke="transparent" points="-4,4 -4,-572.64 958,-572.64 958,4 -4,4"/>
<!-- Node1 -->
<g id="node1" class="node">
<title>Node1</title>
<g id="a_node1"><a xlink:title=" ">
<polygon fill="#bfbfbf" stroke="black" points="0,-330.5 0,-349.5 178,-349.5 178,-330.5 0,-330.5"/>
<text text-anchor="middle" x="89" y="-337.5" font-family="Helvetica,sans-Serif" font-size="10.00">wld_rad_hostapd_setMiscParams</text>
</a>
</g>
</g>
<!-- Node2 -->
<g id="node2" class="node">
<title>Node2</title>
<g id="a_node2"><a xlink:href="wld__hostapd__ap__api_8c.html#a574fb994be68c4c9d50d22c1cd142b11" target="_top" xlink:title="set a parameter value in hostapd context">
<polygon fill="white" stroke="black" points="217,-399.5 217,-418.5 390,-418.5 390,-399.5 217,-399.5"/>
<text text-anchor="middle" x="303.5" y="-406.5" font-family="Helvetica,sans-Serif" font-size="10.00">wld_ap_hostapd_setParamValue</text>
</a>
</g>
</g>
<!-- Node1&#45;&gt;Node2 -->
<g id="edge1" class="edge">
<title>Node1&#45;&gt;Node2</title>
<path fill="none" stroke="midnightblue" d="M110.67,-349.61C134.96,-360.61 176.72,-378.57 214,-390 222.61,-392.64 231.79,-395.05 240.87,-397.2"/>
<polygon fill="midnightblue" stroke="midnightblue" points="240.11,-400.61 250.64,-399.43 241.67,-393.79 240.11,-400.61"/>
</g>
<!-- Node3 -->
<g id="node3" class="node">
<title>Node3</title>
<g id="a_node3"><a xlink:href="wld__hostapd__cfgFile_8c.html#aa4ef0964a05f5b4f72d9c4b2f9046aa4" target="_top" xlink:title="set the radio parameters">
<polygon fill="white" stroke="black" points="245.5,-350 245.5,-380 361.5,-380 361.5,-350 245.5,-350"/>
<text text-anchor="start" x="253.5" y="-368" font-family="Helvetica,sans-Serif" font-size="10.00">wld_hostapd_cfgFile</text>
<text text-anchor="middle" x="303.5" y="-357" font-family="Helvetica,sans-Serif" font-size="10.00">_setRadioConfig</text>
</a>
</g>
</g>
<!-- Node1&#45;&gt;Node3 -->
<g id="edge2" class="edge">
<title>Node1&#45;&gt;Node3</title>
<path fill="none" stroke="midnightblue" d="M170.94,-349.52C192.11,-352.01 214.71,-354.67 235.09,-357.07"/>
<polygon fill="midnightblue" stroke="midnightblue" points="234.88,-360.57 245.22,-358.26 235.69,-353.62 234.88,-360.57"/>
</g>
<!-- Node15 -->
<g id="node15" class="node">
<title>Node15</title>
<g id="a_node15"><a xlink:href="wld__hostapd__cfgFile_8c.html#a9d7ead3332d567f3c0ab96742907491c" target="_top" xlink:title="set a vap parameters. A vap configuration could be either an interface or a bss">
<polygon fill="white" stroke="black" points="245.5,-301 245.5,-331 361.5,-331 361.5,-301 245.5,-301"/>
<text text-anchor="start" x="253.5" y="-319" font-family="Helvetica,sans-Serif" font-size="10.00">wld_hostapd_cfgFile</text>
<text text-anchor="middle" x="303.5" y="-308" font-family="Helvetica,sans-Serif" font-size="10.00">_setVapConfig</text>
</a>
</g>
</g>
<!-- Node1&#45;&gt;Node15 -->
<g id="edge15" class="edge">
<title>Node1&#45;&gt;Node15</title>
<path fill="none" stroke="midnightblue" d="M174.29,-330.48C194.62,-328.18 216.07,-325.76 235.48,-323.57"/>
<polygon fill="midnightblue" stroke="midnightblue" points="235.89,-327.05 245.43,-322.45 235.1,-320.09 235.89,-327.05"/>
</g>
<!-- Node16 -->
<g id="node16" class="node">
<title>Node16</title>
<g id="a_node16"><a xlink:href="wld__rad__hostapd__api_8c.html#a8a3cee0adc7064987d4bbdd87c1ba9df" target="_top" xlink:title=" ">
<polygon fill="white" stroke="black" points="214,-107.5 214,-126.5 393,-126.5 393,-107.5 214,-107.5"/>
<text text-anchor="middle" x="303.5" y="-114.5" font-family="Helvetica,sans-Serif" font-size="10.00">wld_rad_hostapd_getCfgMainVap</text>
</a>
</g>
</g>
<!-- Node1&#45;&gt;Node16 -->
<g id="edge16" class="edge">
<title>Node1&#45;&gt;Node16</title>
<path fill="none" stroke="midnightblue" d="M99.13,-330.42C131.96,-295.96 244.3,-178.08 286.39,-133.9"/>
<polygon fill="midnightblue" stroke="midnightblue" points="289.04,-136.2 293.4,-126.55 283.97,-131.37 289.04,-136.2"/>
</g>
<!-- Node4 -->
<g id="node4" class="node">
<title>Node4</title>
<g id="a_node4"><a xlink:href="wld__chanmgt_8c.html#a622c18ca1144096bd2b01152ce69f764" target="_top" xlink:title=" ">
<polygon fill="white" stroke="black" points="429,-328 429,-358 617,-358 617,-328 429,-328"/>
<text text-anchor="start" x="437" y="-346" font-family="Helvetica,sans-Serif" font-size="10.00">wld_chanmgt_getDefaultSupported</text>
<text text-anchor="middle" x="523" y="-335" font-family="Helvetica,sans-Serif" font-size="10.00">Bandwidth</text>
</a>
</g>
</g>
<!-- Node3&#45;&gt;Node4 -->
<g id="edge3" class="edge">
<title>Node3&#45;&gt;Node4</title>
<path fill="none" stroke="midnightblue" d="M361.65,-359.22C379.12,-357.45 398.9,-355.45 418.46,-353.47"/>
<polygon fill="midnightblue" stroke="midnightblue" points="419.05,-356.93 428.65,-352.44 418.35,-349.97 419.05,-356.93"/>
</g>
<!-- Node6 -->
<g id="node6" class="node">
<title>Node6</title>
<g id="a_node6"><a xlink:href="wld__chanmgt_8c.html#af61cf8737487dc43e0bac4591359c422" target="_top" xlink:title=" ">
<polygon fill="white" stroke="black" points="429,-279 429,-309 617,-309 617,-279 429,-279"/>
<text text-anchor="start" x="437" y="-297" font-family="Helvetica,sans-Serif" font-size="10.00">wld_chanmgt_getDefaultSupported</text>
<text text-anchor="middle" x="523" y="-286" font-family="Helvetica,sans-Serif" font-size="10.00">Channel</text>
</a>
</g>
</g>
<!-- Node3&#45;&gt;Node6 -->
<g id="edge5" class="edge">
<title>Node3&#45;&gt;Node6</title>
<path fill="none" stroke="midnightblue" d="M361.97,-351.97C372.47,-348.87 383.2,-345.22 393,-341 410.22,-333.58 411.77,-326.4 429,-319 434.75,-316.53 440.8,-314.25 446.95,-312.16"/>
<polygon fill="midnightblue" stroke="midnightblue" points="448.22,-315.43 456.65,-309.02 446.06,-308.77 448.22,-315.43"/>
</g>
<!-- Node8 -->
<g id="node8" class="node">
<title>Node8</title>
<g id="a_node8"><a xlink:href="wld__chanmgt_8c.html#aa9b1826d904bbdd0da7517d21cb4d5a4" target="_top" xlink:title=" ">
<polygon fill="white" stroke="black" points="446,-240.5 446,-259.5 600,-259.5 600,-240.5 446,-240.5"/>
<text text-anchor="middle" x="523" y="-247.5" font-family="Helvetica,sans-Serif" font-size="10.00">wld_chanmgt_getTgtChspec</text>
</a>
</g>
</g>
<!-- Node3&#45;&gt;Node8 -->
<g id="edge7" class="edge">
<title>Node3&#45;&gt;Node8</title>
<path fill="none" stroke="midnightblue" d="M361.7,-356.99C372.92,-353.44 383.99,-348.34 393,-341 420.44,-318.67 400.98,-291.6 429,-270 431.83,-267.82 434.85,-265.86 438.01,-264.11"/>
<polygon fill="midnightblue" stroke="midnightblue" points="439.71,-267.17 447.21,-259.68 436.68,-260.86 439.71,-267.17"/>
</g>
<!-- Node9 -->
<g id="node9" class="node">
<title>Node9</title>
<g id="a_node9"><a xlink:href="wld__channel__info_8c.html#a30dbfefee66f7473e59a233b5b95b1ad" target="_top" xlink:title=" ">
<polygon fill="white" stroke="black" points="450,-492 450,-522 596,-522 596,-492 450,-492"/>
<text text-anchor="start" x="458" y="-510" font-family="Helvetica,sans-Serif" font-size="10.00">wld_channel_getExtension</text>
<text text-anchor="middle" x="523" y="-499" font-family="Helvetica,sans-Serif" font-size="10.00">Channel</text>
</a>
</g>
</g>
<!-- Node3&#45;&gt;Node9 -->
<g id="edge8" class="edge">
<title>Node3&#45;&gt;Node9</title>
<path fill="none" stroke="midnightblue" d="M361.82,-372.91C373.16,-376.63 384.25,-382.06 393,-390 425.53,-419.49 396.29,-452.71 429,-482 432.62,-485.24 436.63,-488.07 440.87,-490.54"/>
<polygon fill="midnightblue" stroke="midnightblue" points="439.39,-493.71 449.89,-495.12 442.55,-487.47 439.39,-493.71"/>
</g>
<!-- Node10 -->
<g id="node10" class="node">
<title>Node10</title>
<g id="a_node10"><a xlink:href="wld__channel__info_8c.html#abc6b1c0df2f1f618afdabd1195f6a98a" target="_top" xlink:title=" ">
<polygon fill="white" stroke="black" points="653,-514 653,-544 821,-544 821,-514 653,-514"/>
<text text-anchor="start" x="661" y="-532" font-family="Helvetica,sans-Serif" font-size="10.00">wld_channel_hasChannelWidth</text>
<text text-anchor="middle" x="737" y="-521" font-family="Helvetica,sans-Serif" font-size="10.00">Covered</text>
</a>
</g>
</g>
<!-- Node3&#45;&gt;Node10 -->
<g id="edge10" class="edge">
<title>Node3&#45;&gt;Node10</title>
<path fill="none" stroke="midnightblue" d="M361.68,-371.8C373.3,-375.57 384.54,-381.3 393,-390 438.41,-436.66 377.62,-492.02 429,-532 502.42,-589.13 618.43,-566.96 684.83,-547.07"/>
<polygon fill="midnightblue" stroke="midnightblue" points="686.13,-550.33 694.65,-544.04 684.06,-543.65 686.13,-550.33"/>
</g>
<!-- Node11 -->
<g id="node11" class="node">
<title>Node11</title>
<g id="a_node11"><a xlink:href="wld__radioOperatingStandards_8c.html#ae3d8d225197b9909a08b3b9ea1f77ff6" target="_top" xlink:title=" ">
<polygon fill="white" stroke="black" points="656,-183.5 656,-202.5 818,-202.5 818,-183.5 656,-183.5"/>
<text text-anchor="middle" x="737" y="-190.5" font-family="Helvetica,sans-Serif" font-size="10.00">wld_rad_checkEnabledRadStd</text>
</a>
</g>
</g>
<!-- Node3&#45;&gt;Node11 -->
<g id="edge11" class="edge">
<title>Node3&#45;&gt;Node11</title>
<path fill="none" stroke="midnightblue" d="M361.68,-358.3C373.16,-354.69 384.34,-349.22 393,-341 430.3,-305.57 389.29,-263.7 429,-231 461.14,-204.54 566.95,-196.19 645.41,-193.72"/>
<polygon fill="midnightblue" stroke="midnightblue" points="645.91,-197.21 655.81,-193.42 645.71,-190.21 645.91,-197.21"/>
</g>
<!-- Node12 -->
<g id="node12" class="node">
<title>Node12</title>
<g id="a_node12"><a xlink:href="wld__radio_8c.html#a1143f1257139c1d3d6b428a8475b5fac" target="_top" xlink:title=" ">
<polygon fill="white" stroke="black" points="452,-453.5 452,-472.5 594,-472.5 594,-453.5 452,-453.5"/>
<text text-anchor="middle" x="523" y="-460.5" font-family="Helvetica,sans-Serif" font-size="10.00">wld_rad_hasUsableApMld</text>
</a>
</g>
</g>
<!-- Node3&#45;&gt;Node12 -->
<g id="edge12" class="edge">
<title>Node3&#45;&gt;Node12</title>
<path fill="none" stroke="midnightblue" d="M361.53,-374.7C372.64,-378.3 383.7,-383.24 393,-390 416.32,-406.97 405.07,-427.9 429,-444 433.06,-446.73 437.43,-449.08 441.98,-451.11"/>
<polygon fill="midnightblue" stroke="midnightblue" points="440.95,-454.46 451.54,-454.83 443.49,-447.94 440.95,-454.46"/>
</g>
<!-- Node13 -->
<g id="node13" class="node">
<title>Node13</title>
<g id="a_node13"><a xlink:href="wld__radio_8c.html#aa278bea67c721dfdc303926254cb343a" target="_top" xlink:title=" ">
<polygon fill="white" stroke="black" points="471.5,-415.5 471.5,-434.5 574.5,-434.5 574.5,-415.5 471.5,-415.5"/>
<text text-anchor="middle" x="523" y="-422.5" font-family="Helvetica,sans-Serif" font-size="10.00">wld_rad_is_24ghz</text>
</a>
</g>
</g>
<!-- Node3&#45;&gt;Node13 -->
<g id="edge13" class="edge">
<title>Node3&#45;&gt;Node13</title>
<path fill="none" stroke="midnightblue" d="M361.54,-379.81C372.08,-382.92 382.94,-386.36 393,-390 409.47,-395.95 412.32,-400.66 429,-406 439.33,-409.31 450.5,-412.17 461.4,-414.6"/>
<polygon fill="midnightblue" stroke="midnightblue" points="460.78,-418.05 471.29,-416.71 462.24,-411.2 460.78,-418.05"/>
</g>
<!-- Node14 -->
<g id="node14" class="node">
<title>Node14</title>
<g id="a_node14"><a xlink:href="wld__radio_8c.html#aa3def1a3c6a1c1dda049b17be731c6fb" target="_top" xlink:title=" ">
<polygon fill="white" stroke="black" points="474,-377.5 474,-396.5 572,-396.5 572,-377.5 474,-377.5"/>
<text text-anchor="middle" x="523" y="-384.5" font-family="Helvetica,sans-Serif" font-size="10.00">wld_rad_isUpExt</text>
</a>
</g>
</g>
<!-- Node3&#45;&gt;Node14 -->
<g id="edge14" class="edge">
<title>Node3&#45;&gt;Node14</title>
<path fill="none" stroke="midnightblue" d="M361.65,-370.78C393.1,-373.96 432.06,-377.9 463.7,-381.1"/>
<polygon fill="midnightblue" stroke="midnightblue" points="463.4,-384.59 473.7,-382.11 464.1,-377.63 463.4,-384.59"/>
</g>
<!-- Node5 -->
<g id="node5" class="node">
<title>Node5</title>
<g id="a_node5"><a xlink:href="wld__radio_8c.html#a0119bea4b46c7f0a642117de7184bd37" target="_top" xlink:title=" ">
<polygon fill="white" stroke="black" points="676,-333.5 676,-352.5 798,-352.5 798,-333.5 676,-333.5"/>
<text text-anchor="middle" x="737" y="-340.5" font-family="Helvetica,sans-Serif" font-size="10.00">wld_rad_getFreqBand</text>
</a>
</g>
</g>
<!-- Node4&#45;&gt;Node5 -->
<g id="edge4" class="edge">
<title>Node4&#45;&gt;Node5</title>
<path fill="none" stroke="midnightblue" d="M617.29,-343C633.61,-343 650.33,-343 665.88,-343"/>
<polygon fill="midnightblue" stroke="midnightblue" points="665.91,-346.5 675.91,-343 665.91,-339.5 665.91,-346.5"/>
</g>
<!-- Node7 -->
<g id="node7" class="node">
<title>Node7</title>
<g id="a_node7"><a xlink:href="wld__channel_8c.html#a9eabc31bc39b1fd1ce1daf0a0965087a" target="_top" xlink:title=" ">
<polygon fill="white" stroke="black" points="680.5,-279 680.5,-309 793.5,-309 793.5,-279 680.5,-279"/>
<text text-anchor="start" x="688.5" y="-297" font-family="Helvetica,sans-Serif" font-size="10.00">wld_channel_do_for</text>
<text text-anchor="middle" x="737" y="-286" font-family="Helvetica,sans-Serif" font-size="10.00">_each_channel</text>
</a>
</g>
</g>
<!-- Node6&#45;&gt;Node7 -->
<g id="edge6" class="edge">
<title>Node6&#45;&gt;Node7</title>
<path fill="none" stroke="midnightblue" d="M617.29,-294C635.14,-294 653.48,-294 670.24,-294"/>
<polygon fill="midnightblue" stroke="midnightblue" points="670.45,-297.5 680.45,-294 670.45,-290.5 670.45,-297.5"/>
</g>
<!-- Node9&#45;&gt;Node10 -->
<g id="edge9" class="edge">
<title>Node9&#45;&gt;Node10</title>
<path fill="none" stroke="midnightblue" d="M596.07,-514.48C611.04,-516.03 627.01,-517.69 642.62,-519.31"/>
<polygon fill="midnightblue" stroke="midnightblue" points="642.5,-522.82 652.81,-520.37 643.22,-515.85 642.5,-522.82"/>
</g>
<!-- Node17 -->
<g id="node17" class="node">
<title>Node17</title>
<g id="a_node17"><a xlink:href="wld__radio_8c.html#a4e8e6a5073523b748c0ccf4d5cd400be" target="_top" xlink:title=" ">
<polygon fill="white" stroke="black" points="446,-0.5 446,-19.5 600,-19.5 600,-0.5 446,-0.5"/>
<text text-anchor="middle" x="523" y="-7.5" font-family="Helvetica,sans-Serif" font-size="10.00">wld_rad_getFirstEnabledVap</text>
</a>
</g>
</g>
<!-- Node16&#45;&gt;Node17 -->
<g id="edge17" class="edge">
<title>Node16&#45;&gt;Node17</title>
<path fill="none" stroke="midnightblue" d="M314.89,-107.32C335.16,-89 382.12,-49.29 429,-29 434.86,-26.47 441.07,-24.26 447.39,-22.35"/>
<polygon fill="midnightblue" stroke="midnightblue" points="448.69,-25.62 457.39,-19.58 446.82,-18.88 448.69,-25.62"/>
</g>
<!-- Node18 -->
<g id="node18" class="node">
<title>Node18</title>
<g id="a_node18"><a xlink:href="wld__radio_8c.html#aa24e429aba6c36e70dbc9d9757103f0e" target="_top" xlink:title=" ">
<polygon fill="white" stroke="black" points="465.5,-164.5 465.5,-183.5 580.5,-183.5 580.5,-164.5 465.5,-164.5"/>
<text text-anchor="middle" x="523" y="-171.5" font-family="Helvetica,sans-Serif" font-size="10.00">wld_rad_getFirstVap</text>
</a>
</g>
</g>
<!-- Node16&#45;&gt;Node18 -->
<g id="edge18" class="edge">
<title>Node16&#45;&gt;Node18</title>
<path fill="none" stroke="midnightblue" d="M332.96,-126.53C358.06,-134.73 395.71,-146.54 429,-155 439.17,-157.58 450.03,-160.06 460.61,-162.32"/>
<polygon fill="midnightblue" stroke="midnightblue" points="460.13,-165.79 470.64,-164.41 461.56,-158.94 460.13,-165.79"/>
</g>
<!-- Node19 -->
<g id="node19" class="node">
<title>Node19</title>
<g id="a_node19"><a xlink:href="wld__radio_8c.html#addcc55f0b12b07fd29e65cb4925bce15" target="_top" xlink:title=" ">
<polygon fill="white" stroke="black" points="458,-88.5 458,-107.5 588,-107.5 588,-88.5 458,-88.5"/>
<text text-anchor="middle" x="523" y="-95.5" font-family="Helvetica,sans-Serif" font-size="10.00">wld_rad_hasMbssidAds</text>
</a>
</g>
</g>
<!-- Node16&#45;&gt;Node19 -->
<g id="edge19" class="edge">
<title>Node16&#45;&gt;Node19</title>
<path fill="none" stroke="midnightblue" d="M393.28,-109.24C411.35,-107.67 430.18,-106.02 447.68,-104.49"/>
<polygon fill="midnightblue" stroke="midnightblue" points="448.16,-107.96 457.81,-103.61 447.55,-100.99 448.16,-107.96"/>
</g>
<!-- Node22 -->
<g id="node22" class="node">
<title>Node22</title>
<g id="a_node22"><a xlink:href="wld__radio_8c.html#a61fbf4242e15ad3243b8c60f5d09e510" target="_top" xlink:title=" ">
<polygon fill="white" stroke="black" points="456.5,-126.5 456.5,-145.5 589.5,-145.5 589.5,-126.5 456.5,-126.5"/>
<text text-anchor="middle" x="523" y="-133.5" font-family="Helvetica,sans-Serif" font-size="10.00">wld_rad_hasMloSupport</text>
</a>
</g>
</g>
<!-- Node16&#45;&gt;Node22 -->
<g id="edge22" class="edge">
<title>Node16&#45;&gt;Node22</title>
<path fill="none" stroke="midnightblue" d="M393.28,-124.76C410.79,-126.28 429.01,-127.88 446.05,-129.37"/>
<polygon fill="midnightblue" stroke="midnightblue" points="446.23,-132.89 456.49,-130.28 446.83,-125.92 446.23,-132.89"/>
</g>
<!-- Node24 -->
<g id="node24" class="node">
<title>Node24</title>
<g id="a_node24"><a xlink:href="wld__rad__hostapd__api_8c.html#a680fec1772b8694b744c98970868a802" target="_top" xlink:title=" ">
<polygon fill="white" stroke="black" points="452.5,-39 452.5,-69 593.5,-69 593.5,-39 452.5,-39"/>
<text text-anchor="start" x="460.5" y="-57" font-family="Helvetica,sans-Serif" font-size="10.00">wld_rad_hostapd_getFirst</text>
<text text-anchor="middle" x="523" y="-46" font-family="Helvetica,sans-Serif" font-size="10.00">ConnectedVap</text>
</a>
</g>
</g>
<!-- Node16&#45;&gt;Node24 -->
<g id="edge25" class="edge">
<title>Node16&#45;&gt;Node24</title>
<path fill="none" stroke="midnightblue" d="M334.86,-107.42C360.02,-99.56 396.74,-88.26 429,-79 437.41,-76.59 446.26,-74.12 455.03,-71.71"/>
<polygon fill="midnightblue" stroke="midnightblue" points="456.14,-75.04 464.86,-69.03 454.3,-68.29 456.14,-75.04"/>
</g>
<!-- Node20 -->
<g id="node20" class="node">
<title>Node20</title>
<g id="a_node20"><a xlink:href="wld__radio_8c.html#ad273936553870cb349f3ad7615d76ef3" target="_top" xlink:title=" ">
<polygon fill="white" stroke="black" points="659.5,-88.5 659.5,-107.5 814.5,-107.5 814.5,-88.5 659.5,-88.5"/>
<text text-anchor="middle" x="737" y="-95.5" font-family="Helvetica,sans-Serif" font-size="10.00">wld_rad_getMbssidAdsMode</text>
</a>
</g>
</g>
<!-- Node19&#45;&gt;Node20 -->
<g id="edge20" class="edge">
<title>Node19&#45;&gt;Node20</title>
<path fill="none" stroke="midnightblue" d="M588.18,-98C607.37,-98 628.72,-98 649.11,-98"/>
<polygon fill="midnightblue" stroke="midnightblue" points="649.34,-101.5 659.34,-98 649.34,-94.5 649.34,-101.5"/>
</g>
<!-- Node21 -->
<g id="node21" class="node">
<title>Node21</title>
<g id="a_node21"><a xlink:href="wld__radio_8c.html#ac2d11ae1f195cffd5f73440eeb1f2e80" target="_top" xlink:title=" ">
<polygon fill="white" stroke="black" points="857,-88.5 857,-107.5 954,-107.5 954,-88.5 857,-88.5"/>
<text text-anchor="middle" x="905.5" y="-95.5" font-family="Helvetica,sans-Serif" font-size="10.00">wld_rad_is_6ghz</text>
</a>
</g>
</g>
<!-- Node20&#45;&gt;Node21 -->
<g id="edge21" class="edge">
<title>Node20&#45;&gt;Node21</title>
<path fill="none" stroke="midnightblue" d="M814.91,-98C825.65,-98 836.53,-98 846.83,-98"/>
<polygon fill="midnightblue" stroke="midnightblue" points="846.91,-101.5 856.91,-98 846.91,-94.5 846.91,-101.5"/>
</g>
<!-- Node22&#45;&gt;Node11 -->
<g id="edge23" class="edge">
<title>Node22&#45;&gt;Node11</title>
<path fill="none" stroke="midnightblue" d="M575.88,-145.57C589.34,-148.33 603.77,-151.55 617,-155 644.91,-162.28 675.94,-172.26 699.31,-180.16"/>
<polygon fill="midnightblue" stroke="midnightblue" points="698.24,-183.49 708.83,-183.4 700.5,-176.86 698.24,-183.49"/>
</g>
<!-- Node23 -->
<g id="node23" class="node">
<title>Node23</title>
<g id="a_node23"><a xlink:href="wld__radio_8c.html#a2960da4f28d621447f61041c8463ca9e" target="_top" xlink:title=" ">
<polygon fill="white" stroke="black" points="674,-126.5 674,-145.5 800,-145.5 800,-126.5 674,-126.5"/>
<text text-anchor="middle" x="737" y="-133.5" font-family="Helvetica,sans-Serif" font-size="10.00">wld_rad_isMloCapable</text>
</a>
</g>
</g>
<!-- Node22&#45;&gt;Node23 -->
<g id="edge24" class="edge">
<title>Node22&#45;&gt;Node23</title>
<path fill="none" stroke="midnightblue" d="M589.63,-136C613.14,-136 639.77,-136 663.81,-136"/>
<polygon fill="midnightblue" stroke="midnightblue" points="663.94,-139.5 673.94,-136 663.94,-132.5 663.94,-139.5"/>
</g>
</g>
</svg>
