<?xml version="1.0" encoding="UTF-8" standalone="no"?>
<!DOCTYPE svg PUBLIC "-//W3C//DTD SVG 1.1//EN"
 "http://www.w3.org/Graphics/SVG/1.1/DTD/svg11.dtd">
<!-- Generated by graphviz version 2.43.0 (0)
 -->
<!-- Title: wld_th_rad_getVendorData Pages: 1 -->
<svg width="525pt" height="225pt"
 viewBox="0.00 0.00 525.00 224.50" xmlns="http://www.w3.org/2000/svg" xmlns:xlink="http://www.w3.org/1999/xlink">
<g id="graph0" class="graph" transform="scale(1 1) rotate(0) translate(4 220.5)">
<title>wld_th_rad_getVendorData</title>
<polygon fill="white" stroke="transparent" points="-4,4 -4,-220.5 521,-220.5 521,4 -4,4"/>
<!-- Node1 -->
<g id="node1" class="node">
<title>Node1</title>
<g id="a_node1"><a xlink:title=" ">
<polygon fill="#bfbfbf" stroke="black" points="369,-57.5 369,-76.5 517,-76.5 517,-57.5 369,-57.5"/>
<text text-anchor="middle" x="443" y="-64.5" font-family="Helvetica,sans-Serif" font-size="10.00">wld_th_rad_getVendorData</text>
</a>
</g>
</g>
<!-- Node2 -->
<g id="node2" class="node">
<title>Node2</title>
<g id="a_node2"><a xlink:href="wld__th__sensing_8c.html#a414fdbcb9d295daf6cb7491c1d19cb8e" target="_top" xlink:title=" ">
<polygon fill="white" stroke="black" points="190,-114.5 190,-133.5 318,-133.5 318,-114.5 190,-114.5"/>
<text text-anchor="middle" x="254" y="-121.5" font-family="Helvetica,sans-Serif" font-size="10.00">sensingGetVendorData</text>
</a>
</g>
</g>
<!-- Node1&#45;&gt;Node2 -->
<g id="edge1" class="edge">
<title>Node1&#45;&gt;Node2</title>
<path fill="none" stroke="midnightblue" d="M407.11,-80.13C385.86,-87.88 358.05,-97.6 333,-105 321.5,-108.4 308.93,-111.65 297.3,-114.48"/>
<polygon fill="midnightblue" stroke="midnightblue" points="408.5,-83.35 416.68,-76.61 406.08,-76.78 408.5,-83.35"/>
</g>
<!-- Node7 -->
<g id="node7" class="node">
<title>Node7</title>
<g id="a_node7"><a xlink:href="wld__th__radio_8c.html#ad1194737925baf395f2c3539cc55167e" target="_top" xlink:title=" ">
<polygon fill="white" stroke="black" points="176.5,-76.5 176.5,-95.5 331.5,-95.5 331.5,-76.5 176.5,-76.5"/>
<text text-anchor="middle" x="254" y="-83.5" font-family="Helvetica,sans-Serif" font-size="10.00">wld_th_rad_checkCommitAll</text>
</a>
</g>
</g>
<!-- Node1&#45;&gt;Node7 -->
<g id="edge6" class="edge">
<title>Node1&#45;&gt;Node7</title>
<path fill="none" stroke="midnightblue" d="M358.81,-75.45C349.8,-76.37 340.67,-77.3 331.75,-78.2"/>
<polygon fill="midnightblue" stroke="midnightblue" points="359.3,-78.92 368.9,-74.43 358.59,-71.96 359.3,-78.92"/>
</g>
<!-- Node8 -->
<g id="node8" class="node">
<title>Node8</title>
<g id="a_node8"><a xlink:href="wld__th__radio_8c.html#a50abd17805756926b9d75977dc40d562" target="_top" xlink:title=" ">
<polygon fill="white" stroke="black" points="175,-38.5 175,-57.5 333,-57.5 333,-38.5 175,-38.5"/>
<text text-anchor="middle" x="254" y="-45.5" font-family="Helvetica,sans-Serif" font-size="10.00">wld_th_rad_checkCommitted</text>
</a>
</g>
</g>
<!-- Node1&#45;&gt;Node8 -->
<g id="edge7" class="edge">
<title>Node1&#45;&gt;Node8</title>
<path fill="none" stroke="midnightblue" d="M358.68,-58.53C350.24,-57.68 341.69,-56.81 333.3,-55.96"/>
<polygon fill="midnightblue" stroke="midnightblue" points="358.59,-62.04 368.9,-59.57 359.3,-55.08 358.59,-62.04"/>
</g>
<!-- Node9 -->
<g id="node9" class="node">
<title>Node9</title>
<g id="a_node9"><a xlink:href="wld__th__radio_8c.html#ac6066dadcf0bbd0883c22040e9762088" target="_top" xlink:title=" ">
<polygon fill="white" stroke="black" points="182.5,-0.5 182.5,-19.5 325.5,-19.5 325.5,-0.5 182.5,-0.5"/>
<text text-anchor="middle" x="254" y="-7.5" font-family="Helvetica,sans-Serif" font-size="10.00">wld_th_rad_clearCommits</text>
</a>
</g>
</g>
<!-- Node1&#45;&gt;Node9 -->
<g id="edge8" class="edge">
<title>Node1&#45;&gt;Node9</title>
<path fill="none" stroke="midnightblue" d="M407.11,-53.87C385.86,-46.12 358.05,-36.4 333,-29 321.5,-25.6 308.93,-22.35 297.3,-19.52"/>
<polygon fill="midnightblue" stroke="midnightblue" points="406.08,-57.22 416.68,-57.39 408.5,-50.65 406.08,-57.22"/>
</g>
<!-- Node3 -->
<g id="node3" class="node">
<title>Node3</title>
<g id="a_node3"><a xlink:href="wld__th__sensing_8c.html#a7dce6fc00d7f517eeaf9ed3bff5b6a19" target="_top" xlink:title=" ">
<polygon fill="white" stroke="black" points="13,-186 13,-216 126,-216 126,-186 13,-186"/>
<text text-anchor="start" x="21" y="-204" font-family="Helvetica,sans-Serif" font-size="10.00">wld_th_rad_sensing</text>
<text text-anchor="middle" x="69.5" y="-193" font-family="Helvetica,sans-Serif" font-size="10.00">_addClient</text>
</a>
</g>
</g>
<!-- Node2&#45;&gt;Node3 -->
<g id="edge2" class="edge">
<title>Node2&#45;&gt;Node3</title>
<path fill="none" stroke="midnightblue" d="M223.87,-138.05C201,-148.89 168.24,-164.02 139,-176 130.8,-179.36 121.96,-182.75 113.45,-185.91"/>
<polygon fill="midnightblue" stroke="midnightblue" points="225.5,-141.15 233.03,-133.68 222.49,-134.83 225.5,-141.15"/>
</g>
<!-- Node4 -->
<g id="node4" class="node">
<title>Node4</title>
<g id="a_node4"><a xlink:href="wld__th__sensing_8c.html#a24e180593133a2edc976b40810798a0a" target="_top" xlink:title=" ">
<polygon fill="white" stroke="black" points="0,-147.5 0,-166.5 139,-166.5 139,-147.5 0,-147.5"/>
<text text-anchor="middle" x="69.5" y="-154.5" font-family="Helvetica,sans-Serif" font-size="10.00">wld_th_rad_sensing_cmd</text>
</a>
</g>
</g>
<!-- Node2&#45;&gt;Node4 -->
<g id="edge3" class="edge">
<title>Node2&#45;&gt;Node4</title>
<path fill="none" stroke="midnightblue" d="M190.35,-135.33C168.47,-139.28 144.15,-143.68 123.17,-147.48"/>
<polygon fill="midnightblue" stroke="midnightblue" points="191,-138.77 200.21,-133.54 189.75,-131.88 191,-138.77"/>
</g>
<!-- Node5 -->
<g id="node5" class="node">
<title>Node5</title>
<g id="a_node5"><a xlink:href="wld__th__sensing_8c.html#a37ac5944e437f13cff891161d09af822" target="_top" xlink:title=" ">
<polygon fill="white" stroke="black" points="13,-98 13,-128 126,-128 126,-98 13,-98"/>
<text text-anchor="start" x="21" y="-116" font-family="Helvetica,sans-Serif" font-size="10.00">wld_th_rad_sensing</text>
<text text-anchor="middle" x="69.5" y="-105" font-family="Helvetica,sans-Serif" font-size="10.00">_delClient</text>
</a>
</g>
</g>
<!-- Node2&#45;&gt;Node5 -->
<g id="edge4" class="edge">
<title>Node2&#45;&gt;Node5</title>
<path fill="none" stroke="midnightblue" d="M179.59,-119.58C161.8,-118.5 143.07,-117.37 126.25,-116.36"/>
<polygon fill="midnightblue" stroke="midnightblue" points="179.75,-123.09 189.94,-120.2 180.17,-116.1 179.75,-123.09"/>
</g>
<!-- Node6 -->
<g id="node6" class="node">
<title>Node6</title>
<g id="a_node6"><a xlink:href="wld__th__sensing_8c.html#a20e7730fa4dbcb4bfe55fe47a76bd20d" target="_top" xlink:title=" ">
<polygon fill="white" stroke="black" points="13,-49 13,-79 126,-79 126,-49 13,-49"/>
<text text-anchor="start" x="21" y="-67" font-family="Helvetica,sans-Serif" font-size="10.00">wld_th_rad_sensing</text>
<text text-anchor="middle" x="69.5" y="-56" font-family="Helvetica,sans-Serif" font-size="10.00">_resetStats</text>
</a>
</g>
</g>
<!-- Node2&#45;&gt;Node6 -->
<g id="edge5" class="edge">
<title>Node2&#45;&gt;Node6</title>
<path fill="none" stroke="midnightblue" d="M197.9,-111.89C190.15,-109.81 182.33,-107.5 175,-105 158.43,-99.35 155.23,-95.56 139,-89 130.67,-85.63 121.69,-82.21 113.06,-79.02"/>
<polygon fill="midnightblue" stroke="midnightblue" points="197.09,-115.3 207.65,-114.41 198.84,-108.52 197.09,-115.3"/>
</g>
<!-- Node10 -->
<g id="node10" class="node">
<title>Node10</title>
<g id="a_node10"><a xlink:href="wld__th__dm_8c.html#a2a474e74d6a2c718423c0a5c2cc38197" target="_top" xlink:title=" ">
<polygon fill="white" stroke="black" points="9.5,-0.5 9.5,-19.5 129.5,-19.5 129.5,-0.5 9.5,-0.5"/>
<text text-anchor="middle" x="69.5" y="-7.5" font-family="Helvetica,sans-Serif" font-size="10.00">wld_th_dm_clearFsm</text>
</a>
</g>
</g>
<!-- Node9&#45;&gt;Node10 -->
<g id="edge9" class="edge">
<title>Node9&#45;&gt;Node10</title>
<path fill="none" stroke="midnightblue" d="M172.11,-10C157.82,-10 143.18,-10 129.62,-10"/>
<polygon fill="midnightblue" stroke="midnightblue" points="172.44,-13.5 182.44,-10 172.44,-6.5 172.44,-13.5"/>
</g>
</g>
</svg>
