<?xml version="1.0" encoding="UTF-8" standalone="no"?>
<!DOCTYPE svg PUBLIC "-//W3C//DTD SVG 1.1//EN"
 "http://www.w3.org/Graphics/SVG/1.1/DTD/svg11.dtd">
<!-- Generated by graphviz version 2.43.0 (0)
 -->
<!-- Title: wld_dmn_setArgList Pages: 1 -->
<svg width="777pt" height="104pt"
 viewBox="0.00 0.00 777.00 104.00" xmlns="http://www.w3.org/2000/svg" xmlns:xlink="http://www.w3.org/1999/xlink">
<g id="graph0" class="graph" transform="scale(1 1) rotate(0) translate(4 100)">
<title>wld_dmn_setArgList</title>
<polygon fill="white" stroke="transparent" points="-4,4 -4,-100 773,-100 773,4 -4,4"/>
<!-- Node1 -->
<g id="node1" class="node">
<title>Node1</title>
<g id="a_node1"><a xlink:title=" ">
<polygon fill="#bfbfbf" stroke="black" points="654,-38.5 654,-57.5 769,-57.5 769,-38.5 654,-38.5"/>
<text text-anchor="middle" x="711.5" y="-45.5" font-family="Helvetica,sans-Serif" font-size="10.00">wld_dmn_setArgList</text>
</a>
</g>
</g>
<!-- Node2 -->
<g id="node2" class="node">
<title>Node2</title>
<g id="a_node2"><a xlink:href="wld__daemon_8c.html#adc1404b6fec8fdf62a05025d82440f64" target="_top" xlink:title=" ">
<polygon fill="white" stroke="black" points="480,-76.5 480,-95.5 618,-95.5 618,-76.5 480,-76.5"/>
<text text-anchor="middle" x="549" y="-83.5" font-family="Helvetica,sans-Serif" font-size="10.00">wld_dmn_createDeamon</text>
</a>
</g>
</g>
<!-- Node1&#45;&gt;Node2 -->
<g id="edge1" class="edge">
<title>Node1&#45;&gt;Node2</title>
<path fill="none" stroke="midnightblue" d="M660.25,-59.9C637.69,-65.24 611.44,-71.45 590.21,-76.48"/>
<polygon fill="midnightblue" stroke="midnightblue" points="661.07,-63.3 670,-57.59 659.46,-56.49 661.07,-63.3"/>
</g>
<!-- Node6 -->
<g id="node6" class="node">
<title>Node6</title>
<g id="a_node6"><a xlink:href="wld__daemon_8c.html#a1bd821d850da9242b2ed5342c613f327" target="_top" xlink:title=" ">
<polygon fill="white" stroke="black" points="484,-38.5 484,-57.5 614,-57.5 614,-38.5 484,-38.5"/>
<text text-anchor="middle" x="549" y="-45.5" font-family="Helvetica,sans-Serif" font-size="10.00">wld_dmn_startDeamon</text>
</a>
</g>
</g>
<!-- Node1&#45;&gt;Node6 -->
<g id="edge5" class="edge">
<title>Node1&#45;&gt;Node6</title>
<path fill="none" stroke="midnightblue" d="M643.78,-48C633.93,-48 623.8,-48 614.01,-48"/>
<polygon fill="midnightblue" stroke="midnightblue" points="643.91,-51.5 653.91,-48 643.91,-44.5 643.91,-51.5"/>
</g>
<!-- Node9 -->
<g id="node9" class="node">
<title>Node9</title>
<g id="a_node9"><a xlink:href="wld__secDmn_8c.html#a3d131e581b56a235a203c4f070df62f1" target="_top" xlink:title=" ">
<polygon fill="white" stroke="black" points="488.5,-0.5 488.5,-19.5 609.5,-19.5 609.5,-0.5 488.5,-0.5"/>
<text text-anchor="middle" x="549" y="-7.5" font-family="Helvetica,sans-Serif" font-size="10.00">wld_secDmn_setArgs</text>
</a>
</g>
</g>
<!-- Node1&#45;&gt;Node9 -->
<g id="edge8" class="edge">
<title>Node1&#45;&gt;Node9</title>
<path fill="none" stroke="midnightblue" d="M660.25,-36.1C637.69,-30.76 611.44,-24.55 590.21,-19.52"/>
<polygon fill="midnightblue" stroke="midnightblue" points="659.46,-39.51 670,-38.41 661.07,-32.7 659.46,-39.51"/>
</g>
<!-- Node3 -->
<g id="node3" class="node">
<title>Node3</title>
<g id="a_node3"><a xlink:href="wld__secDmn_8c.html#af0544dc7e9cc28cc7590bcbb6f6ad4ce" target="_top" xlink:title=" ">
<polygon fill="white" stroke="black" points="340.5,-76.5 340.5,-95.5 440.5,-95.5 440.5,-76.5 340.5,-76.5"/>
<text text-anchor="middle" x="390.5" y="-83.5" font-family="Helvetica,sans-Serif" font-size="10.00">wld_secDmn_init</text>
</a>
</g>
</g>
<!-- Node2&#45;&gt;Node3 -->
<g id="edge2" class="edge">
<title>Node2&#45;&gt;Node3</title>
<path fill="none" stroke="midnightblue" d="M469.57,-86C459.71,-86 449.86,-86 440.64,-86"/>
<polygon fill="midnightblue" stroke="midnightblue" points="469.81,-89.5 479.81,-86 469.81,-82.5 469.81,-89.5"/>
</g>
<!-- Node4 -->
<g id="node4" class="node">
<title>Node4</title>
<g id="a_node4"><a xlink:href="wifiGen__hapd_8c.html#a3e280a7de79155551d8dcf12b517bdc3" target="_top" xlink:title=" ">
<polygon fill="white" stroke="black" points="184.5,-76.5 184.5,-95.5 288.5,-95.5 288.5,-76.5 184.5,-76.5"/>
<text text-anchor="middle" x="236.5" y="-83.5" font-family="Helvetica,sans-Serif" font-size="10.00">wifiGen_hapd_init</text>
</a>
</g>
</g>
<!-- Node3&#45;&gt;Node4 -->
<g id="edge3" class="edge">
<title>Node3&#45;&gt;Node4</title>
<path fill="none" stroke="midnightblue" d="M329.91,-86C316.29,-86 301.92,-86 288.69,-86"/>
<polygon fill="midnightblue" stroke="midnightblue" points="330.15,-89.5 340.15,-86 330.15,-82.5 330.15,-89.5"/>
</g>
<!-- Node5 -->
<g id="node5" class="node">
<title>Node5</title>
<g id="a_node5"><a xlink:href="wifiGen__rad_8c.html#a22779d44a0417c824f5a4d4024a0a0c0" target="_top" xlink:title=" ">
<polygon fill="white" stroke="black" points="0,-76.5 0,-95.5 136,-95.5 136,-76.5 0,-76.5"/>
<text text-anchor="middle" x="68" y="-83.5" font-family="Helvetica,sans-Serif" font-size="10.00">wifiGen_rad_createHook</text>
</a>
</g>
</g>
<!-- Node4&#45;&gt;Node5 -->
<g id="edge4" class="edge">
<title>Node4&#45;&gt;Node5</title>
<path fill="none" stroke="midnightblue" d="M174,-86C161.65,-86 148.62,-86 136.09,-86"/>
<polygon fill="midnightblue" stroke="midnightblue" points="174.19,-89.5 184.19,-86 174.19,-82.5 174.19,-89.5"/>
</g>
<!-- Node7 -->
<g id="node7" class="node">
<title>Node7</title>
<g id="a_node7"><a xlink:href="wld__secDmn_8c.html#a0d79b605af802b3f679654eccc068eec" target="_top" xlink:title=" ">
<polygon fill="white" stroke="black" points="337,-38.5 337,-57.5 444,-57.5 444,-38.5 337,-38.5"/>
<text text-anchor="middle" x="390.5" y="-45.5" font-family="Helvetica,sans-Serif" font-size="10.00">wld_secDmn_start</text>
</a>
</g>
</g>
<!-- Node6&#45;&gt;Node7 -->
<g id="edge6" class="edge">
<title>Node6&#45;&gt;Node7</title>
<path fill="none" stroke="midnightblue" d="M473.63,-48C463.72,-48 453.73,-48 444.29,-48"/>
<polygon fill="midnightblue" stroke="midnightblue" points="473.89,-51.5 483.89,-48 473.89,-44.5 473.89,-51.5"/>
</g>
<!-- Node8 -->
<g id="node8" class="node">
<title>Node8</title>
<g id="a_node8"><a xlink:href="wld__secDmn_8c.html#a04e473c6a2f624f5ee15a91d36ca56db" target="_top" xlink:title=" ">
<polygon fill="white" stroke="black" points="172,-38.5 172,-57.5 301,-57.5 301,-38.5 172,-38.5"/>
<text text-anchor="middle" x="236.5" y="-45.5" font-family="Helvetica,sans-Serif" font-size="10.00">wld_secDmn_restartCb</text>
</a>
</g>
</g>
<!-- Node7&#45;&gt;Node8 -->
<g id="edge7" class="edge">
<title>Node7&#45;&gt;Node8</title>
<path fill="none" stroke="midnightblue" d="M326.63,-48C318.21,-48 309.57,-48 301.14,-48"/>
<polygon fill="midnightblue" stroke="midnightblue" points="326.76,-51.5 336.76,-48 326.76,-44.5 326.76,-51.5"/>
</g>
</g>
</svg>
