<?xml version="1.0" encoding="UTF-8" standalone="no"?>
<!DOCTYPE svg PUBLIC "-//W3C//DTD SVG 1.1//EN"
 "http://www.w3.org/Graphics/SVG/1.1/DTD/svg11.dtd">
<!-- Generated by graphviz version 2.43.0 (0)
 -->
<!-- Title: src/nl80211/wld_rad_hostapd_api.c Pages: 1 -->
<svg width="4404pt" height="330pt"
 viewBox="0.00 0.00 4403.59 330.00" xmlns="http://www.w3.org/2000/svg" xmlns:xlink="http://www.w3.org/1999/xlink">
<g id="graph0" class="graph" transform="scale(1 1) rotate(0) translate(4 326)">
<title>src/nl80211/wld_rad_hostapd_api.c</title>
<polygon fill="white" stroke="transparent" points="-4,4 -4,-326 4399.59,-326 4399.59,4 -4,4"/>
<!-- Node1 -->
<g id="node1" class="node">
<title>Node1</title>
<g id="a_node1"><a xlink:title=" ">
<polygon fill="#bfbfbf" stroke="black" points="3796.09,-291.5 3796.09,-321.5 3910.09,-321.5 3910.09,-291.5 3796.09,-291.5"/>
<text text-anchor="start" x="3804.09" y="-309.5" font-family="Helvetica,sans-Serif" font-size="10.00">src/nl80211/wld_rad</text>
<text text-anchor="middle" x="3853.09" y="-298.5" font-family="Helvetica,sans-Serif" font-size="10.00">_hostapd_api.c</text>
</a>
</g>
</g>
<!-- Node2 -->
<g id="node2" class="node">
<title>Node2</title>
<g id="a_node2"><a xlink:href="wld__util_8h.html" target="_top" xlink:title=" ">
<polygon fill="white" stroke="black" points="3247.09,-235.5 3247.09,-254.5 3311.09,-254.5 3311.09,-235.5 3247.09,-235.5"/>
<text text-anchor="middle" x="3279.09" y="-242.5" font-family="Helvetica,sans-Serif" font-size="10.00">wld_util.h</text>
</a>
</g>
</g>
<!-- Node1&#45;&gt;Node2 -->
<g id="edge1" class="edge">
<title>Node1&#45;&gt;Node2</title>
<path fill="none" stroke="midnightblue" d="M3795.96,-299.58C3680.79,-287.64 3423.12,-260.93 3321.48,-250.39"/>
<polygon fill="midnightblue" stroke="midnightblue" points="3321.6,-246.89 3311.29,-249.34 3320.88,-253.85 3321.6,-246.89"/>
</g>
<!-- Node76 -->
<g id="node37" class="node">
<title>Node76</title>
<g id="a_node37"><a xlink:href="wld__channel_8h.html" target="_top" xlink:title=" ">
<polygon fill="white" stroke="black" points="1961.09,-179.5 1961.09,-198.5 2047.09,-198.5 2047.09,-179.5 1961.09,-179.5"/>
<text text-anchor="middle" x="2004.09" y="-186.5" font-family="Helvetica,sans-Serif" font-size="10.00">wld_channel.h</text>
</a>
</g>
</g>
<!-- Node1&#45;&gt;Node76 -->
<g id="edge42" class="edge">
<title>Node1&#45;&gt;Node76</title>
<path fill="none" stroke="midnightblue" d="M3795.84,-305.05C3518.31,-302.72 2319.76,-290.65 2157.09,-255 2109.22,-244.51 2057.54,-219.34 2028.17,-203.58"/>
<polygon fill="midnightblue" stroke="midnightblue" points="2029.55,-200.35 2019.1,-198.63 2026.2,-206.49 2029.55,-200.35"/>
</g>
<!-- Node77 -->
<g id="node38" class="node">
<title>Node77</title>
<g id="a_node38"><a xlink:href="wld__radio_8h.html" target="_top" xlink:title=" ">
<polygon fill="white" stroke="black" points="2166.59,-235.5 2166.59,-254.5 2239.59,-254.5 2239.59,-235.5 2166.59,-235.5"/>
<text text-anchor="middle" x="2203.09" y="-242.5" font-family="Helvetica,sans-Serif" font-size="10.00">wld_radio.h</text>
</a>
</g>
</g>
<!-- Node1&#45;&gt;Node77 -->
<g id="edge45" class="edge">
<title>Node1&#45;&gt;Node77</title>
<path fill="none" stroke="midnightblue" d="M3795.82,-303.43C3537.83,-294.13 2486.07,-256.2 2250.19,-247.7"/>
<polygon fill="midnightblue" stroke="midnightblue" points="2250.02,-244.19 2239.9,-247.33 2249.77,-251.19 2250.02,-244.19"/>
</g>
<!-- Node83 -->
<g id="node42" class="node">
<title>Node83</title>
<g id="a_node42"><a xlink:href="wld__accesspoint_8h.html" target="_top" xlink:title=" ">
<polygon fill="white" stroke="black" points="3665.09,-235.5 3665.09,-254.5 3771.09,-254.5 3771.09,-235.5 3665.09,-235.5"/>
<text text-anchor="middle" x="3718.09" y="-242.5" font-family="Helvetica,sans-Serif" font-size="10.00">wld_accesspoint.h</text>
</a>
</g>
</g>
<!-- Node1&#45;&gt;Node83 -->
<g id="edge56" class="edge">
<title>Node1&#45;&gt;Node83</title>
<path fill="none" stroke="midnightblue" d="M3821.1,-291.4C3798.65,-281.51 3768.88,-268.38 3747.12,-258.79"/>
<polygon fill="midnightblue" stroke="midnightblue" points="3748.3,-255.49 3737.74,-254.66 3745.48,-261.89 3748.3,-255.49"/>
</g>
<!-- Node85 -->
<g id="node44" class="node">
<title>Node85</title>
<g id="a_node44"><a xlink:href="wld__wpaCtrl__api_8h.html" target="_top" xlink:title=" ">
<polygon fill="white" stroke="black" points="3973.09,-235.5 3973.09,-254.5 4079.09,-254.5 4079.09,-235.5 3973.09,-235.5"/>
<text text-anchor="middle" x="4026.09" y="-242.5" font-family="Helvetica,sans-Serif" font-size="10.00">wld_wpaCtrl_api.h</text>
</a>
</g>
</g>
<!-- Node1&#45;&gt;Node85 -->
<g id="edge62" class="edge">
<title>Node1&#45;&gt;Node85</title>
<path fill="none" stroke="midnightblue" d="M3894.09,-291.4C3923.73,-281.21 3963.32,-267.59 3991.39,-257.93"/>
<polygon fill="midnightblue" stroke="midnightblue" points="3992.85,-261.13 4001.17,-254.57 3990.58,-254.51 3992.85,-261.13"/>
</g>
<!-- Node86 -->
<g id="node46" class="node">
<title>Node86</title>
<g id="a_node46"><a xlink:href="wld__rad__hostapd__api_8h.html" target="_top" xlink:title=" ">
<polygon fill="white" stroke="black" points="3789.09,-235.5 3789.09,-254.5 3917.09,-254.5 3917.09,-235.5 3789.09,-235.5"/>
<text text-anchor="middle" x="3853.09" y="-242.5" font-family="Helvetica,sans-Serif" font-size="10.00">wld_rad_hostapd_api.h</text>
</a>
</g>
</g>
<!-- Node1&#45;&gt;Node86 -->
<g id="edge65" class="edge">
<title>Node1&#45;&gt;Node86</title>
<path fill="none" stroke="midnightblue" d="M3853.09,-291.4C3853.09,-283.47 3853.09,-273.46 3853.09,-264.86"/>
<polygon fill="midnightblue" stroke="midnightblue" points="3856.59,-264.66 3853.09,-254.66 3849.59,-264.66 3856.59,-264.66"/>
</g>
<!-- Node87 -->
<g id="node47" class="node">
<title>Node87</title>
<g id="a_node47"><a xlink:href="wld__hostapd__ap__api_8h.html" target="_top" xlink:title=" ">
<polygon fill="white" stroke="black" points="3926.59,-179.5 3926.59,-198.5 4051.59,-198.5 4051.59,-179.5 3926.59,-179.5"/>
<text text-anchor="middle" x="3989.09" y="-186.5" font-family="Helvetica,sans-Serif" font-size="10.00">wld_hostapd_ap_api.h</text>
</a>
</g>
</g>
<!-- Node1&#45;&gt;Node87 -->
<g id="edge70" class="edge">
<title>Node1&#45;&gt;Node87</title>
<path fill="none" stroke="midnightblue" d="M3875.97,-291.33C3890.79,-281.76 3910.22,-268.45 3926.09,-255 3944.16,-239.68 3962.79,-219.87 3975.06,-206.17"/>
<polygon fill="midnightblue" stroke="midnightblue" points="3977.82,-208.33 3981.81,-198.52 3972.57,-203.7 3977.82,-208.33"/>
</g>
<!-- Node88 -->
<g id="node49" class="node">
<title>Node88</title>
<g id="a_node49"><a xlink:href="wld__hostapd__cfgFile_8h.html" target="_top" xlink:title=" ">
<polygon fill="white" stroke="black" points="4097.59,-235.5 4097.59,-254.5 4222.59,-254.5 4222.59,-235.5 4097.59,-235.5"/>
<text text-anchor="middle" x="4160.09" y="-242.5" font-family="Helvetica,sans-Serif" font-size="10.00">wld_hostapd_cfgFile.h</text>
</a>
</g>
</g>
<!-- Node1&#45;&gt;Node88 -->
<g id="edge71" class="edge">
<title>Node1&#45;&gt;Node88</title>
<path fill="none" stroke="midnightblue" d="M3910.12,-294.45C3966.11,-283.6 4050.9,-267.16 4105.9,-256.5"/>
<polygon fill="midnightblue" stroke="midnightblue" points="4106.66,-259.92 4115.81,-254.58 4105.32,-253.05 4106.66,-259.92"/>
</g>
<!-- Node89 -->
<g id="node50" class="node">
<title>Node89</title>
<g id="a_node50"><a xlink:title=" ">
<polygon fill="white" stroke="#bfbfbf" points="4240.59,-235.5 4240.59,-254.5 4395.59,-254.5 4395.59,-235.5 4240.59,-235.5"/>
<text text-anchor="middle" x="4318.09" y="-242.5" font-family="Helvetica,sans-Serif" font-size="10.00">swl/map/swl_mapCharFmt.h</text>
</a>
</g>
</g>
<!-- Node1&#45;&gt;Node89 -->
<g id="edge72" class="edge">
<title>Node1&#45;&gt;Node89</title>
<path fill="none" stroke="midnightblue" d="M3910.11,-298.2C3993.41,-287.55 4148.56,-267.69 4241.67,-255.78"/>
<polygon fill="midnightblue" stroke="midnightblue" points="4242.12,-259.25 4251.59,-254.51 4241.23,-252.31 4242.12,-259.25"/>
</g>
<!-- Node3 -->
<g id="node3" class="node">
<title>Node3</title>
<g id="a_node3"><a xlink:href="wld_8h.html" target="_top" xlink:title=" ">
<polygon fill="white" stroke="red" points="2098.59,-118 2098.59,-137 2141.59,-137 2141.59,-118 2098.59,-118"/>
<text text-anchor="middle" x="2120.09" y="-125" font-family="Helvetica,sans-Serif" font-size="10.00">wld.h</text>
</a>
</g>
</g>
<!-- Node2&#45;&gt;Node3 -->
<g id="edge2" class="edge">
<title>Node2&#45;&gt;Node3</title>
<path fill="none" stroke="midnightblue" d="M3246.89,-240.79C3080.18,-224.18 2316.67,-148.09 2151.61,-131.64"/>
<polygon fill="midnightblue" stroke="midnightblue" points="2151.92,-128.15 2141.62,-130.65 2151.22,-135.12 2151.92,-128.15"/>
</g>
<!-- Node4 -->
<g id="node4" class="node">
<title>Node4</title>
<g id="a_node4"><a xlink:title=" ">
<polygon fill="white" stroke="#bfbfbf" points="212.09,-0.5 212.09,-19.5 274.09,-19.5 274.09,-0.5 212.09,-0.5"/>
<text text-anchor="middle" x="243.09" y="-7.5" font-family="Helvetica,sans-Serif" font-size="10.00">stdbool.h</text>
</a>
</g>
</g>
<!-- Node3&#45;&gt;Node4 -->
<g id="edge3" class="edge">
<title>Node3&#45;&gt;Node4</title>
<path fill="none" stroke="midnightblue" d="M2098.57,-126.2C1902.98,-123.45 438.13,-102 350.09,-76 332.01,-70.66 289.27,-42.69 263.62,-25.22"/>
<polygon fill="midnightblue" stroke="midnightblue" points="265.55,-22.31 255.32,-19.54 261.59,-28.08 265.55,-22.31"/>
</g>
<!-- Node5 -->
<g id="node5" class="node">
<title>Node5</title>
<g id="a_node5"><a xlink:title=" ">
<polygon fill="white" stroke="#bfbfbf" points="3876.59,-0.5 3876.59,-19.5 3929.59,-19.5 3929.59,-0.5 3876.59,-0.5"/>
<text text-anchor="middle" x="3903.09" y="-7.5" font-family="Helvetica,sans-Serif" font-size="10.00">stdint.h</text>
</a>
</g>
</g>
<!-- Node3&#45;&gt;Node5 -->
<g id="edge4" class="edge">
<title>Node3&#45;&gt;Node5</title>
<path fill="none" stroke="midnightblue" d="M2141.81,-123.91C2171.11,-120.53 2224.95,-114.73 2271.09,-112 2315.72,-109.36 3843.88,-102.21 3880.09,-76 3894.62,-65.49 3900.02,-45.02 3902,-29.85"/>
<polygon fill="midnightblue" stroke="midnightblue" points="3905.52,-29.81 3902.95,-19.53 3898.55,-29.17 3905.52,-29.81"/>
</g>
<!-- Node6 -->
<g id="node6" class="node">
<title>Node6</title>
<g id="a_node6"><a xlink:title=" ">
<polygon fill="white" stroke="#bfbfbf" points="3953.09,-0.5 3953.09,-19.5 4063.09,-19.5 4063.09,-0.5 3953.09,-0.5"/>
<text text-anchor="middle" x="4008.09" y="-7.5" font-family="Helvetica,sans-Serif" font-size="10.00">swl/swl_common.h</text>
</a>
</g>
</g>
<!-- Node3&#45;&gt;Node6 -->
<g id="edge5" class="edge">
<title>Node3&#45;&gt;Node6</title>
<path fill="none" stroke="midnightblue" d="M2141.81,-123.91C2171.11,-120.53 2224.95,-114.72 2271.09,-112 2451.93,-101.33 3727.19,-126.76 3901.09,-76 3935.44,-65.97 3969.87,-41.96 3990.06,-26.1"/>
<polygon fill="midnightblue" stroke="midnightblue" points="3992.46,-28.66 3998.05,-19.66 3988.06,-23.21 3992.46,-28.66"/>
</g>
<!-- Node7 -->
<g id="node7" class="node">
<title>Node7</title>
<g id="a_node7"><a xlink:title=" ">
<polygon fill="white" stroke="#bfbfbf" points="529.09,-56.5 529.09,-75.5 665.09,-75.5 665.09,-56.5 529.09,-56.5"/>
<text text-anchor="middle" x="597.09" y="-63.5" font-family="Helvetica,sans-Serif" font-size="10.00">swla/swla_commonLib.h</text>
</a>
</g>
</g>
<!-- Node3&#45;&gt;Node7 -->
<g id="edge6" class="edge">
<title>Node3&#45;&gt;Node7</title>
<path fill="none" stroke="midnightblue" d="M2098.4,-126.41C1966.79,-125.7 1261.65,-119.96 675.84,-76.07"/>
<polygon fill="midnightblue" stroke="midnightblue" points="675.73,-72.55 665.5,-75.29 675.21,-79.53 675.73,-72.55"/>
</g>
<!-- Node8 -->
<g id="node8" class="node">
<title>Node8</title>
<g id="a_node8"><a xlink:title=" ">
<polygon fill="white" stroke="#bfbfbf" points="683.09,-56.5 683.09,-75.5 771.09,-75.5 771.09,-56.5 683.09,-56.5"/>
<text text-anchor="middle" x="727.09" y="-63.5" font-family="Helvetica,sans-Serif" font-size="10.00">swl/swl_uuid.h</text>
</a>
</g>
</g>
<!-- Node3&#45;&gt;Node8 -->
<g id="edge7" class="edge">
<title>Node3&#45;&gt;Node8</title>
<path fill="none" stroke="midnightblue" d="M2098.33,-126.74C1972.15,-127.92 1321.62,-131.04 781.62,-76.01"/>
<polygon fill="midnightblue" stroke="midnightblue" points="781.59,-72.49 771.28,-74.95 780.87,-79.45 781.59,-72.49"/>
</g>
<!-- Node9 -->
<g id="node9" class="node">
<title>Node9</title>
<g id="a_node9"><a xlink:title=" ">
<polygon fill="white" stroke="#bfbfbf" points="13.09,-56.5 13.09,-75.5 165.09,-75.5 165.09,-56.5 13.09,-56.5"/>
<text text-anchor="middle" x="89.09" y="-63.5" font-family="Helvetica,sans-Serif" font-size="10.00">swla/swla_radioStandards.h</text>
</a>
</g>
</g>
<!-- Node3&#45;&gt;Node9 -->
<g id="edge8" class="edge">
<title>Node3&#45;&gt;Node9</title>
<path fill="none" stroke="midnightblue" d="M2098.54,-126.18C1913.99,-123.38 596.87,-102.75 175.61,-76.03"/>
<polygon fill="midnightblue" stroke="midnightblue" points="175.73,-72.54 165.52,-75.38 175.28,-79.52 175.73,-72.54"/>
</g>
<!-- Node10 -->
<g id="node10" class="node">
<title>Node10</title>
<g id="a_node10"><a xlink:title=" ">
<polygon fill="white" stroke="#bfbfbf" points="346.59,-0.5 346.59,-19.5 447.59,-19.5 447.59,-0.5 346.59,-0.5"/>
<text text-anchor="middle" x="397.09" y="-7.5" font-family="Helvetica,sans-Serif" font-size="10.00">swla/swla_time.h</text>
</a>
</g>
</g>
<!-- Node3&#45;&gt;Node10 -->
<g id="edge9" class="edge">
<title>Node3&#45;&gt;Node10</title>
<path fill="none" stroke="midnightblue" d="M2098.55,-126.12C1913.17,-122.8 592.11,-98.4 512.09,-76 475.41,-65.73 437.91,-41.42 416.1,-25.62"/>
<polygon fill="midnightblue" stroke="midnightblue" points="418.14,-22.77 408.02,-19.63 413.97,-28.39 418.14,-22.77"/>
</g>
<!-- Node11 -->
<g id="node11" class="node">
<title>Node11</title>
<g id="a_node11"><a xlink:title=" ">
<polygon fill="white" stroke="#bfbfbf" points="789.59,-56.5 789.59,-75.5 918.59,-75.5 918.59,-56.5 789.59,-56.5"/>
<text text-anchor="middle" x="854.09" y="-63.5" font-family="Helvetica,sans-Serif" font-size="10.00">swla/swla_time_spec.h</text>
</a>
</g>
</g>
<!-- Node3&#45;&gt;Node11 -->
<g id="edge10" class="edge">
<title>Node3&#45;&gt;Node11</title>
<path fill="none" stroke="midnightblue" d="M2098.5,-126.22C1981.2,-124.56 1408.51,-114.8 928.88,-75.99"/>
<polygon fill="midnightblue" stroke="midnightblue" points="928.89,-72.48 918.64,-75.15 928.32,-79.45 928.89,-72.48"/>
</g>
<!-- Node12 -->
<g id="node12" class="node">
<title>Node12</title>
<g id="a_node12"><a xlink:title=" ">
<polygon fill="white" stroke="#bfbfbf" points="937.09,-56.5 937.09,-75.5 1031.09,-75.5 1031.09,-56.5 937.09,-56.5"/>
<text text-anchor="middle" x="984.09" y="-63.5" font-family="Helvetica,sans-Serif" font-size="10.00">swla/swla_oui.h</text>
</a>
</g>
</g>
<!-- Node3&#45;&gt;Node12 -->
<g id="edge11" class="edge">
<title>Node3&#45;&gt;Node12</title>
<path fill="none" stroke="midnightblue" d="M2098.34,-126.39C1987.31,-125.65 1472.52,-119.96 1041.27,-75.99"/>
<polygon fill="midnightblue" stroke="midnightblue" points="1041.4,-72.49 1031.1,-74.95 1040.69,-79.45 1041.4,-72.49"/>
</g>
<!-- Node13 -->
<g id="node13" class="node">
<title>Node13</title>
<g id="a_node13"><a xlink:title=" ">
<polygon fill="white" stroke="#bfbfbf" points="1049.09,-56.5 1049.09,-75.5 1177.09,-75.5 1177.09,-56.5 1049.09,-56.5"/>
<text text-anchor="middle" x="1113.09" y="-63.5" font-family="Helvetica,sans-Serif" font-size="10.00">swla/swla_delayExec.h</text>
</a>
</g>
</g>
<!-- Node3&#45;&gt;Node13 -->
<g id="edge12" class="edge">
<title>Node3&#45;&gt;Node13</title>
<path fill="none" stroke="midnightblue" d="M2098.33,-125.88C1996.66,-122.84 1558.07,-108.5 1187.28,-76.04"/>
<polygon fill="midnightblue" stroke="midnightblue" points="1187.43,-72.54 1177.16,-75.15 1186.81,-79.52 1187.43,-72.54"/>
</g>
<!-- Node14 -->
<g id="node14" class="node">
<title>Node14</title>
<g id="a_node14"><a xlink:title=" ">
<polygon fill="white" stroke="#bfbfbf" points="1195.59,-56.5 1195.59,-75.5 1314.59,-75.5 1314.59,-56.5 1195.59,-56.5"/>
<text text-anchor="middle" x="1255.09" y="-63.5" font-family="Helvetica,sans-Serif" font-size="10.00">swla/swla_function.h</text>
</a>
</g>
</g>
<!-- Node3&#45;&gt;Node14 -->
<g id="edge13" class="edge">
<title>Node3&#45;&gt;Node14</title>
<path fill="none" stroke="midnightblue" d="M2098.49,-125.67C2006.5,-122.04 1638.15,-106.35 1324.95,-76.12"/>
<polygon fill="midnightblue" stroke="midnightblue" points="1325.06,-72.62 1314.77,-75.13 1324.38,-79.58 1325.06,-72.62"/>
</g>
<!-- Node15 -->
<g id="node15" class="node">
<title>Node15</title>
<g id="a_node15"><a xlink:title=" ">
<polygon fill="white" stroke="#bfbfbf" points="1332.59,-56.5 1332.59,-75.5 1473.59,-75.5 1473.59,-56.5 1332.59,-56.5"/>
<text text-anchor="middle" x="1403.09" y="-63.5" font-family="Helvetica,sans-Serif" font-size="10.00">swl/swl_usp_cmdStatus.h</text>
</a>
</g>
</g>
<!-- Node3&#45;&gt;Node15 -->
<g id="edge14" class="edge">
<title>Node3&#45;&gt;Node15</title>
<path fill="none" stroke="midnightblue" d="M2098.35,-125.04C2018.27,-119.59 1732.08,-99.66 1484.04,-76.06"/>
<polygon fill="midnightblue" stroke="midnightblue" points="1484.04,-72.54 1473.75,-75.08 1483.37,-79.51 1484.04,-72.54"/>
</g>
<!-- Node16 -->
<g id="node16" class="node">
<title>Node16</title>
<g id="a_node16"><a xlink:title=" ">
<polygon fill="white" stroke="#bfbfbf" points="1492.09,-56.5 1492.09,-75.5 1578.09,-75.5 1578.09,-56.5 1492.09,-56.5"/>
<text text-anchor="middle" x="1535.09" y="-63.5" font-family="Helvetica,sans-Serif" font-size="10.00">swl/swl_wps.h</text>
</a>
</g>
</g>
<!-- Node3&#45;&gt;Node16 -->
<g id="edge15" class="edge">
<title>Node3&#45;&gt;Node16</title>
<path fill="none" stroke="midnightblue" d="M2098.45,-125.05C2027.09,-120.14 1792.66,-103.02 1588.2,-76.05"/>
<polygon fill="midnightblue" stroke="midnightblue" points="1588.56,-72.57 1578.18,-74.72 1587.64,-79.51 1588.56,-72.57"/>
</g>
<!-- Node17 -->
<g id="node17" class="node">
<title>Node17</title>
<g id="a_node17"><a xlink:title=" ">
<polygon fill="white" stroke="#bfbfbf" points="1596.09,-56.5 1596.09,-75.5 1700.09,-75.5 1700.09,-56.5 1596.09,-56.5"/>
<text text-anchor="middle" x="1648.09" y="-63.5" font-family="Helvetica,sans-Serif" font-size="10.00">swl/swl_security.h</text>
</a>
</g>
</g>
<!-- Node3&#45;&gt;Node17 -->
<g id="edge16" class="edge">
<title>Node3&#45;&gt;Node17</title>
<path fill="none" stroke="midnightblue" d="M2098.24,-124C2038.16,-117.1 1865.28,-96.97 1710.49,-76.16"/>
<polygon fill="midnightblue" stroke="midnightblue" points="1710.7,-72.66 1700.32,-74.79 1709.77,-79.6 1710.7,-72.66"/>
</g>
<!-- Node18 -->
<g id="node18" class="node">
<title>Node18</title>
<g id="a_node18"><a xlink:title=" ">
<polygon fill="white" stroke="#bfbfbf" points="2122.59,-0.5 2122.59,-19.5 2205.59,-19.5 2205.59,-0.5 2122.59,-0.5"/>
<text text-anchor="middle" x="2164.09" y="-7.5" font-family="Helvetica,sans-Serif" font-size="10.00">amxc/amxc.h</text>
</a>
</g>
</g>
<!-- Node3&#45;&gt;Node18 -->
<g id="edge17" class="edge">
<title>Node3&#45;&gt;Node18</title>
<path fill="none" stroke="midnightblue" d="M2098.5,-126.23C1909.9,-123.86 548.89,-105.72 520.09,-76 513.91,-69.62 513.89,-62.37 520.09,-56 548.52,-26.78 1835.27,-13.88 2112.01,-11.44"/>
<polygon fill="midnightblue" stroke="midnightblue" points="2112.22,-14.94 2122.18,-11.35 2112.15,-7.94 2112.22,-14.94"/>
</g>
<!-- Node19 -->
<g id="node19" class="node">
<title>Node19</title>
<g id="a_node19"><a xlink:title=" ">
<polygon fill="white" stroke="#bfbfbf" points="1718.09,-56.5 1718.09,-75.5 1802.09,-75.5 1802.09,-56.5 1718.09,-56.5"/>
<text text-anchor="middle" x="1760.09" y="-63.5" font-family="Helvetica,sans-Serif" font-size="10.00">amxp/amxp.h</text>
</a>
</g>
</g>
<!-- Node3&#45;&gt;Node19 -->
<g id="edge18" class="edge">
<title>Node3&#45;&gt;Node19</title>
<path fill="none" stroke="midnightblue" d="M2098.35,-123.04C2049.3,-115.23 1926.05,-95.47 1812.05,-76.15"/>
<polygon fill="midnightblue" stroke="midnightblue" points="1812.56,-72.68 1802.11,-74.46 1811.38,-79.58 1812.56,-72.68"/>
</g>
<!-- Node20 -->
<g id="node20" class="node">
<title>Node20</title>
<g id="a_node20"><a xlink:title=" ">
<polygon fill="white" stroke="#bfbfbf" points="1820.09,-56.5 1820.09,-75.5 1960.09,-75.5 1960.09,-56.5 1820.09,-56.5"/>
<text text-anchor="middle" x="1890.09" y="-63.5" font-family="Helvetica,sans-Serif" font-size="10.00">amxd/amxd_parameter.h</text>
</a>
</g>
</g>
<!-- Node3&#45;&gt;Node20 -->
<g id="edge19" class="edge">
<title>Node3&#45;&gt;Node20</title>
<path fill="none" stroke="midnightblue" d="M2098.46,-120.9C2060.69,-111.13 1982.08,-90.8 1932.95,-78.09"/>
<polygon fill="midnightblue" stroke="midnightblue" points="1933.8,-74.69 1923.24,-75.57 1932.04,-81.47 1933.8,-74.69"/>
</g>
<!-- Node21 -->
<g id="node21" class="node">
<title>Node21</title>
<g id="a_node21"><a xlink:title=" ">
<polygon fill="white" stroke="#bfbfbf" points="1978.59,-56.5 1978.59,-75.5 2097.59,-75.5 2097.59,-56.5 1978.59,-56.5"/>
<text text-anchor="middle" x="2038.09" y="-63.5" font-family="Helvetica,sans-Serif" font-size="10.00">amxd/amxd_action.h</text>
</a>
</g>
</g>
<!-- Node3&#45;&gt;Node21 -->
<g id="edge20" class="edge">
<title>Node3&#45;&gt;Node21</title>
<path fill="none" stroke="midnightblue" d="M2108.34,-117.98C2095.31,-108.52 2074.06,-93.1 2058.33,-81.69"/>
<polygon fill="midnightblue" stroke="midnightblue" points="2059.97,-78.55 2049.82,-75.51 2055.86,-84.21 2059.97,-78.55"/>
</g>
<!-- Node22 -->
<g id="node22" class="node">
<title>Node22</title>
<g id="a_node22"><a xlink:title=" ">
<polygon fill="white" stroke="#bfbfbf" points="2115.59,-56.5 2115.59,-75.5 2290.59,-75.5 2290.59,-56.5 2115.59,-56.5"/>
<text text-anchor="middle" x="2203.09" y="-63.5" font-family="Helvetica,sans-Serif" font-size="10.00">amxd/amxd_object_parameter.h</text>
</a>
</g>
</g>
<!-- Node3&#45;&gt;Node22 -->
<g id="edge21" class="edge">
<title>Node3&#45;&gt;Node22</title>
<path fill="none" stroke="midnightblue" d="M2131.98,-117.98C2145.3,-108.43 2167.09,-92.81 2183.05,-81.37"/>
<polygon fill="midnightblue" stroke="midnightblue" points="2185.14,-84.18 2191.22,-75.51 2181.06,-78.49 2185.14,-84.18"/>
</g>
<!-- Node23 -->
<g id="node23" class="node">
<title>Node23</title>
<g id="a_node23"><a xlink:title=" ">
<polygon fill="white" stroke="#bfbfbf" points="2309.09,-56.5 2309.09,-75.5 2461.09,-75.5 2461.09,-56.5 2309.09,-56.5"/>
<text text-anchor="middle" x="2385.09" y="-63.5" font-family="Helvetica,sans-Serif" font-size="10.00">amxd/amxd_object_event.h</text>
</a>
</g>
</g>
<!-- Node3&#45;&gt;Node23 -->
<g id="edge22" class="edge">
<title>Node3&#45;&gt;Node23</title>
<path fill="none" stroke="midnightblue" d="M2141.78,-121.63C2184.23,-112.1 2279.18,-90.78 2337.12,-77.77"/>
<polygon fill="midnightblue" stroke="midnightblue" points="2338.14,-81.13 2347.13,-75.52 2336.61,-74.3 2338.14,-81.13"/>
</g>
<!-- Node24 -->
<g id="node24" class="node">
<title>Node24</title>
<g id="a_node24"><a xlink:title=" ">
<polygon fill="white" stroke="#bfbfbf" points="2479.59,-56.5 2479.59,-75.5 2608.59,-75.5 2608.59,-56.5 2479.59,-56.5"/>
<text text-anchor="middle" x="2544.09" y="-63.5" font-family="Helvetica,sans-Serif" font-size="10.00">amxd/amxd_function.h</text>
</a>
</g>
</g>
<!-- Node3&#45;&gt;Node24 -->
<g id="edge23" class="edge">
<title>Node3&#45;&gt;Node24</title>
<path fill="none" stroke="midnightblue" d="M2141.7,-123.47C2202.09,-114.99 2374.62,-90.78 2473.04,-76.97"/>
<polygon fill="midnightblue" stroke="midnightblue" points="2473.79,-80.4 2483.2,-75.54 2472.82,-73.47 2473.79,-80.4"/>
</g>
<!-- Node25 -->
<g id="node25" class="node">
<title>Node25</title>
<g id="a_node25"><a xlink:title=" ">
<polygon fill="white" stroke="#bfbfbf" points="2626.59,-56.5 2626.59,-75.5 2795.59,-75.5 2795.59,-56.5 2626.59,-56.5"/>
<text text-anchor="middle" x="2711.09" y="-63.5" font-family="Helvetica,sans-Serif" font-size="10.00">amxd/amxd_object_hierarchy.h</text>
</a>
</g>
</g>
<!-- Node3&#45;&gt;Node25 -->
<g id="edge24" class="edge">
<title>Node3&#45;&gt;Node25</title>
<path fill="none" stroke="midnightblue" d="M2141.83,-124.31C2217.94,-116.65 2475.46,-90.72 2616.61,-76.51"/>
<polygon fill="midnightblue" stroke="midnightblue" points="2616.97,-79.99 2626.57,-75.51 2616.27,-73.03 2616.97,-79.99"/>
</g>
<!-- Node26 -->
<g id="node26" class="node">
<title>Node26</title>
<g id="a_node26"><a xlink:title=" ">
<polygon fill="white" stroke="#bfbfbf" points="2813.59,-56.5 2813.59,-75.5 2932.59,-75.5 2932.59,-56.5 2813.59,-56.5"/>
<text text-anchor="middle" x="2873.09" y="-63.5" font-family="Helvetica,sans-Serif" font-size="10.00">amxd/amxd_object.h</text>
</a>
</g>
</g>
<!-- Node3&#45;&gt;Node26 -->
<g id="edge25" class="edge">
<title>Node3&#45;&gt;Node26</title>
<path fill="none" stroke="midnightblue" d="M2141.83,-124.22C2171.16,-121.18 2225.03,-115.76 2271.09,-112 2504.82,-92.9 2566.66,-99.43 2803.12,-76.14"/>
<polygon fill="midnightblue" stroke="midnightblue" points="2803.81,-79.59 2813.41,-75.12 2803.12,-72.62 2803.81,-79.59"/>
</g>
<!-- Node27 -->
<g id="node27" class="node">
<title>Node27</title>
<g id="a_node27"><a xlink:title=" ">
<polygon fill="white" stroke="#bfbfbf" points="2950.59,-56.5 2950.59,-75.5 3055.59,-75.5 3055.59,-56.5 2950.59,-56.5"/>
<text text-anchor="middle" x="3003.09" y="-63.5" font-family="Helvetica,sans-Serif" font-size="10.00">amxd/amxd_dm.h</text>
</a>
</g>
</g>
<!-- Node3&#45;&gt;Node27 -->
<g id="edge26" class="edge">
<title>Node3&#45;&gt;Node27</title>
<path fill="none" stroke="midnightblue" d="M2141.82,-124.12C2171.14,-120.98 2225,-115.45 2271.09,-112 2565.57,-89.97 2643.2,-105.47 2940.35,-76.09"/>
<polygon fill="midnightblue" stroke="midnightblue" points="2940.96,-79.54 2950.56,-75.07 2940.26,-72.58 2940.96,-79.54"/>
</g>
<!-- Node28 -->
<g id="node28" class="node">
<title>Node28</title>
<g id="a_node28"><a xlink:title=" ">
<polygon fill="white" stroke="#bfbfbf" points="3074.09,-56.5 3074.09,-75.5 3218.09,-75.5 3218.09,-56.5 3074.09,-56.5"/>
<text text-anchor="middle" x="3146.09" y="-63.5" font-family="Helvetica,sans-Serif" font-size="10.00">amxd/amxd_transaction.h</text>
</a>
</g>
</g>
<!-- Node3&#45;&gt;Node28 -->
<g id="edge27" class="edge">
<title>Node3&#45;&gt;Node28</title>
<path fill="none" stroke="midnightblue" d="M2141.82,-124.07C2171.13,-120.86 2224.99,-115.26 2271.09,-112 2620.2,-87.34 2711.23,-103.22 3063.72,-76.06"/>
<polygon fill="midnightblue" stroke="midnightblue" points="3063.99,-79.55 3073.69,-75.28 3063.45,-72.57 3063.99,-79.55"/>
</g>
<!-- Node29 -->
<g id="node29" class="node">
<title>Node29</title>
<g id="a_node29"><a xlink:title=" ">
<polygon fill="white" stroke="#bfbfbf" points="3236.09,-56.5 3236.09,-75.5 3352.09,-75.5 3352.09,-56.5 3236.09,-56.5"/>
<text text-anchor="middle" x="3294.09" y="-63.5" font-family="Helvetica,sans-Serif" font-size="10.00">amxb/amxb_types.h</text>
</a>
</g>
</g>
<!-- Node3&#45;&gt;Node29 -->
<g id="edge28" class="edge">
<title>Node3&#45;&gt;Node29</title>
<path fill="none" stroke="midnightblue" d="M2141.82,-124.01C2171.12,-120.75 2224.98,-115.08 2271.09,-112 2692.02,-83.89 2801.75,-111.9 3225.95,-76.01"/>
<polygon fill="midnightblue" stroke="midnightblue" points="3226.36,-79.48 3236.03,-75.15 3225.76,-72.51 3226.36,-79.48"/>
</g>
<!-- Node30 -->
<g id="node30" class="node">
<title>Node30</title>
<g id="a_node30"><a xlink:title=" ">
<polygon fill="white" stroke="#bfbfbf" points="3370.09,-56.5 3370.09,-75.5 3506.09,-75.5 3506.09,-56.5 3370.09,-56.5"/>
<text text-anchor="middle" x="3438.09" y="-63.5" font-family="Helvetica,sans-Serif" font-size="10.00">amxb/amxb_operators.h</text>
</a>
</g>
</g>
<!-- Node3&#45;&gt;Node30 -->
<g id="edge29" class="edge">
<title>Node3&#45;&gt;Node30</title>
<path fill="none" stroke="midnightblue" d="M2141.81,-123.98C2171.12,-120.68 2224.97,-114.97 2271.09,-112 2751.49,-81.03 2876.04,-111.74 3359.65,-76.04"/>
<polygon fill="midnightblue" stroke="midnightblue" points="3359.97,-79.53 3369.69,-75.3 3359.46,-72.55 3359.97,-79.53"/>
</g>
<!-- Node31 -->
<g id="node31" class="node">
<title>Node31</title>
<g id="a_node31"><a xlink:title=" ">
<polygon fill="white" stroke="#bfbfbf" points="3524.09,-56.5 3524.09,-75.5 3636.09,-75.5 3636.09,-56.5 3524.09,-56.5"/>
<text text-anchor="middle" x="3580.09" y="-63.5" font-family="Helvetica,sans-Serif" font-size="10.00">amxb/amxb_error.h</text>
</a>
</g>
</g>
<!-- Node3&#45;&gt;Node31 -->
<g id="edge30" class="edge">
<title>Node3&#45;&gt;Node31</title>
<path fill="none" stroke="midnightblue" d="M2141.81,-123.95C2171.12,-120.63 2224.96,-114.88 2271.09,-112 2819.77,-77.76 2962.16,-121.46 3513.56,-76.03"/>
<polygon fill="midnightblue" stroke="midnightblue" points="3514.09,-79.5 3523.76,-75.18 3513.51,-72.52 3514.09,-79.5"/>
</g>
<!-- Node32 -->
<g id="node32" class="node">
<title>Node32</title>
<g id="a_node32"><a xlink:title=" ">
<polygon fill="white" stroke="#bfbfbf" points="3654.59,-56.5 3654.59,-75.5 3737.59,-75.5 3737.59,-56.5 3654.59,-56.5"/>
<text text-anchor="middle" x="3696.09" y="-63.5" font-family="Helvetica,sans-Serif" font-size="10.00">amxo/amxo.h</text>
</a>
</g>
</g>
<!-- Node3&#45;&gt;Node32 -->
<g id="edge31" class="edge">
<title>Node3&#45;&gt;Node32</title>
<path fill="none" stroke="midnightblue" d="M2141.81,-123.94C2171.11,-120.59 2224.96,-114.82 2271.09,-112 2877.41,-74.99 3035.52,-136.55 3644.06,-75.91"/>
<polygon fill="midnightblue" stroke="midnightblue" points="3644.81,-79.36 3654.41,-74.87 3644.12,-72.39 3644.81,-79.36"/>
</g>
<!-- Node33 -->
<g id="node33" class="node">
<title>Node33</title>
<g id="a_node33"><a xlink:title=" ">
<polygon fill="white" stroke="#bfbfbf" points="3755.59,-56.5 3755.59,-75.5 3870.59,-75.5 3870.59,-56.5 3755.59,-56.5"/>
<text text-anchor="middle" x="3813.09" y="-63.5" font-family="Helvetica,sans-Serif" font-size="10.00">amxo/amxo_types.h</text>
</a>
</g>
</g>
<!-- Node3&#45;&gt;Node33 -->
<g id="edge32" class="edge">
<title>Node3&#45;&gt;Node33</title>
<path fill="none" stroke="midnightblue" d="M2141.81,-123.92C2171.11,-120.56 2224.96,-114.77 2271.09,-112 2922.75,-72.82 3091.27,-127.84 3745.39,-76.04"/>
<polygon fill="midnightblue" stroke="midnightblue" points="3745.85,-79.52 3755.54,-75.23 3745.29,-72.54 3745.85,-79.52"/>
</g>
<!-- Node34 -->
<g id="node34" class="node">
<title>Node34</title>
<g id="a_node34"><a xlink:href="wld__types_8h.html" target="_top" xlink:title=" ">
<polygon fill="white" stroke="red" points="359.59,-56.5 359.59,-75.5 434.59,-75.5 434.59,-56.5 359.59,-56.5"/>
<text text-anchor="middle" x="397.09" y="-63.5" font-family="Helvetica,sans-Serif" font-size="10.00">wld_types.h</text>
</a>
</g>
</g>
<!-- Node3&#45;&gt;Node34 -->
<g id="edge33" class="edge">
<title>Node3&#45;&gt;Node34</title>
<path fill="none" stroke="midnightblue" d="M2098.43,-126.27C1927.24,-124.36 790.56,-110.54 449.09,-76 447.79,-75.87 446.46,-75.72 445.13,-75.56"/>
<polygon fill="midnightblue" stroke="midnightblue" points="445.16,-72.04 434.78,-74.17 444.22,-78.97 445.16,-72.04"/>
</g>
<!-- Node37 -->
<g id="node35" class="node">
<title>Node37</title>
<g id="a_node35"><a xlink:href="wld__channel__types_8h.html" target="_top" xlink:title=" ">
<polygon fill="white" stroke="red" points="183.59,-56.5 183.59,-75.5 302.59,-75.5 302.59,-56.5 183.59,-56.5"/>
<text text-anchor="middle" x="243.09" y="-63.5" font-family="Helvetica,sans-Serif" font-size="10.00">wld_channel_types.h</text>
</a>
</g>
</g>
<!-- Node3&#45;&gt;Node37 -->
<g id="edge36" class="edge">
<title>Node3&#45;&gt;Node37</title>
<path fill="none" stroke="midnightblue" d="M2098.46,-126.17C1919.92,-123.42 687.53,-103.65 317.09,-76 315.79,-75.9 314.47,-75.8 313.14,-75.69"/>
<polygon fill="midnightblue" stroke="midnightblue" points="313.1,-72.17 302.82,-74.75 312.46,-79.14 313.1,-72.17"/>
</g>
<!-- Node75 -->
<g id="node36" class="node">
<title>Node75</title>
<g id="a_node36"><a xlink:href="wld__extMod_8h.html" target="_top" xlink:title=" ">
<polygon fill="white" stroke="black" points="3965.59,-56.5 3965.59,-75.5 4050.59,-75.5 4050.59,-56.5 3965.59,-56.5"/>
<text text-anchor="middle" x="4008.09" y="-63.5" font-family="Helvetica,sans-Serif" font-size="10.00">wld_extMod.h</text>
</a>
</g>
</g>
<!-- Node3&#45;&gt;Node75 -->
<g id="edge39" class="edge">
<title>Node3&#45;&gt;Node75</title>
<path fill="none" stroke="midnightblue" d="M2141.81,-123.9C2171.11,-120.52 2224.95,-114.71 2271.09,-112 3016.65,-68.28 3207.21,-142.39 3951.09,-76 3952.56,-75.87 3954.04,-75.72 3955.54,-75.57"/>
<polygon fill="midnightblue" stroke="midnightblue" points="3956.02,-79.03 3965.53,-74.36 3955.18,-72.08 3956.02,-79.03"/>
</g>
<!-- Node34&#45;&gt;Node5 -->
<g id="edge34" class="edge">
<title>Node34&#45;&gt;Node5</title>
<path fill="none" stroke="midnightblue" d="M434.74,-61.66C459.07,-59.65 491.43,-57.24 520.09,-56 1218.92,-25.81 3545.6,-12.85 3866.32,-11.19"/>
<polygon fill="midnightblue" stroke="midnightblue" points="3866.48,-14.68 3876.46,-11.13 3866.44,-7.68 3866.48,-14.68"/>
</g>
<!-- Node34&#45;&gt;Node10 -->
<g id="edge35" class="edge">
<title>Node34&#45;&gt;Node10</title>
<path fill="none" stroke="midnightblue" d="M397.09,-56.08C397.09,-49.01 397.09,-38.86 397.09,-29.99"/>
<polygon fill="midnightblue" stroke="midnightblue" points="400.59,-29.75 397.09,-19.75 393.59,-29.75 400.59,-29.75"/>
</g>
<!-- Node37&#45;&gt;Node4 -->
<g id="edge37" class="edge">
<title>Node37&#45;&gt;Node4</title>
<path fill="none" stroke="midnightblue" d="M243.09,-56.08C243.09,-49.01 243.09,-38.86 243.09,-29.99"/>
<polygon fill="midnightblue" stroke="midnightblue" points="246.59,-29.75 243.09,-19.75 239.59,-29.75 246.59,-29.75"/>
</g>
<!-- Node37&#45;&gt;Node10 -->
<g id="edge38" class="edge">
<title>Node37&#45;&gt;Node10</title>
<path fill="none" stroke="midnightblue" d="M267.49,-56.44C293.29,-47.4 334.17,-33.06 363.11,-22.92"/>
<polygon fill="midnightblue" stroke="midnightblue" points="364.53,-26.13 372.81,-19.52 362.21,-19.52 364.53,-26.13"/>
</g>
<!-- Node75&#45;&gt;Node6 -->
<g id="edge41" class="edge">
<title>Node75&#45;&gt;Node6</title>
<path fill="none" stroke="midnightblue" d="M4008.09,-56.08C4008.09,-49.01 4008.09,-38.86 4008.09,-29.99"/>
<polygon fill="midnightblue" stroke="midnightblue" points="4011.59,-29.75 4008.09,-19.75 4004.59,-29.75 4011.59,-29.75"/>
</g>
<!-- Node75&#45;&gt;Node18 -->
<g id="edge40" class="edge">
<title>Node75&#45;&gt;Node18</title>
<path fill="none" stroke="midnightblue" d="M3965.45,-61.53C3940.57,-59.62 3908.57,-57.37 3880.09,-56 3223.28,-24.31 2423.89,-13.82 2215.65,-11.52"/>
<polygon fill="midnightblue" stroke="midnightblue" points="2215.65,-8.02 2205.61,-11.42 2215.57,-15.02 2215.65,-8.02"/>
</g>
<!-- Node76&#45;&gt;Node3 -->
<g id="edge43" class="edge">
<title>Node76&#45;&gt;Node3</title>
<path fill="none" stroke="midnightblue" d="M2020.71,-179.48C2040.01,-169.58 2072.05,-153.14 2094.52,-141.62"/>
<polygon fill="midnightblue" stroke="midnightblue" points="2096.2,-144.69 2103.5,-137.01 2093.01,-138.46 2096.2,-144.69"/>
</g>
<!-- Node76&#45;&gt;Node37 -->
<g id="edge44" class="edge">
<title>Node76&#45;&gt;Node37</title>
<path fill="none" stroke="midnightblue" d="M1960.92,-186.15C1835.47,-180.69 1460.18,-163.71 1149.09,-143 778.94,-118.36 686.19,-113.29 317.09,-76 315.79,-75.87 314.47,-75.73 313.15,-75.59"/>
<polygon fill="midnightblue" stroke="midnightblue" points="313.16,-72.08 302.84,-74.48 312.41,-79.04 313.16,-72.08"/>
</g>
<!-- Node77&#45;&gt;Node3 -->
<g id="edge47" class="edge">
<title>Node77&#45;&gt;Node3</title>
<path fill="none" stroke="midnightblue" d="M2208.66,-235.35C2216.32,-222.24 2227.99,-196.96 2217.09,-179 2203,-155.78 2174.36,-142.74 2151.83,-135.75"/>
<polygon fill="midnightblue" stroke="midnightblue" points="2152.57,-132.32 2141.99,-132.95 2150.65,-139.05 2152.57,-132.32"/>
</g>
<!-- Node77&#45;&gt;Node75 -->
<g id="edge53" class="edge">
<title>Node77&#45;&gt;Node75</title>
<path fill="none" stroke="midnightblue" d="M2239.72,-240.83C2422.65,-224.91 3255.61,-151.5 3936.09,-76 3942.34,-75.31 3948.88,-74.54 3955.37,-73.76"/>
<polygon fill="midnightblue" stroke="midnightblue" points="3955.97,-77.21 3965.48,-72.53 3955.12,-70.27 3955.97,-77.21"/>
</g>
<!-- Node77&#45;&gt;Node76 -->
<g id="edge48" class="edge">
<title>Node77&#45;&gt;Node76</title>
<path fill="none" stroke="midnightblue" d="M2171.56,-235.44C2137.5,-226.2 2083.09,-211.44 2045.58,-201.26"/>
<polygon fill="midnightblue" stroke="midnightblue" points="2046.05,-197.76 2035.48,-198.52 2044.21,-204.51 2046.05,-197.76"/>
</g>
<!-- Node78 -->
<g id="node39" class="node">
<title>Node78</title>
<g id="a_node39"><a xlink:title=" ">
<polygon fill="white" stroke="#bfbfbf" points="2065.09,-179.5 2065.09,-198.5 2175.09,-198.5 2175.09,-179.5 2065.09,-179.5"/>
<text text-anchor="middle" x="2120.09" y="-186.5" font-family="Helvetica,sans-Serif" font-size="10.00">swla/swla_trilean.h</text>
</a>
</g>
</g>
<!-- Node77&#45;&gt;Node78 -->
<g id="edge46" class="edge">
<title>Node77&#45;&gt;Node78</title>
<path fill="none" stroke="midnightblue" d="M2189.76,-235.32C2176.93,-226.98 2157.31,-214.21 2142.15,-204.35"/>
<polygon fill="midnightblue" stroke="midnightblue" points="2143.69,-201.17 2133.4,-198.65 2139.87,-207.04 2143.69,-201.17"/>
</g>
<!-- Node79 -->
<g id="node40" class="node">
<title>Node79</title>
<g id="a_node40"><a xlink:href="wld__radioOperatingStandards_8h.html" target="_top" xlink:title=" ">
<polygon fill="white" stroke="black" points="984.09,-179.5 984.09,-198.5 1154.09,-198.5 1154.09,-179.5 984.09,-179.5"/>
<text text-anchor="middle" x="1069.09" y="-186.5" font-family="Helvetica,sans-Serif" font-size="10.00">wld_radioOperatingStandards.h</text>
</a>
</g>
</g>
<!-- Node77&#45;&gt;Node79 -->
<g id="edge49" class="edge">
<title>Node77&#45;&gt;Node79</title>
<path fill="none" stroke="midnightblue" d="M2166.33,-242.25C2010.51,-234.83 1401.72,-205.84 1164.48,-194.54"/>
<polygon fill="midnightblue" stroke="midnightblue" points="1164.64,-191.05 1154.49,-194.07 1164.31,-198.04 1164.64,-191.05"/>
</g>
<!-- Node80 -->
<g id="node41" class="node">
<title>Node80</title>
<g id="a_node41"><a xlink:href="wld__rad__macCfg_8h.html" target="_top" xlink:title=" ">
<polygon fill="white" stroke="red" points="1158.59,-118 1158.59,-137 1265.59,-137 1265.59,-118 1158.59,-118"/>
<text text-anchor="middle" x="1212.09" y="-125" font-family="Helvetica,sans-Serif" font-size="10.00">wld_rad_macCfg.h</text>
</a>
</g>
</g>
<!-- Node77&#45;&gt;Node80 -->
<g id="edge54" class="edge">
<title>Node77&#45;&gt;Node80</title>
<path fill="none" stroke="midnightblue" d="M2203.46,-235.12C2203.5,-220.73 2201.24,-192.57 2184.09,-179 2148.47,-150.83 1487.12,-134.36 1276.17,-129.8"/>
<polygon fill="midnightblue" stroke="midnightblue" points="1275.95,-126.3 1265.88,-129.58 1275.8,-133.3 1275.95,-126.3"/>
</g>
<!-- Node79&#45;&gt;Node3 -->
<g id="edge52" class="edge">
<title>Node79&#45;&gt;Node3</title>
<path fill="none" stroke="midnightblue" d="M1154.21,-183.18C1372.82,-170.81 1946.77,-138.31 2088.23,-130.3"/>
<polygon fill="midnightblue" stroke="midnightblue" points="2088.61,-133.79 2098.4,-129.73 2088.21,-126.8 2088.61,-133.79"/>
</g>
<!-- Node79&#45;&gt;Node4 -->
<g id="edge50" class="edge">
<title>Node79&#45;&gt;Node4</title>
<path fill="none" stroke="midnightblue" d="M984.01,-187.15C791.9,-184.68 329.41,-175.46 177.09,-143 96.45,-125.82 50.69,-144.02 4.09,-76 -0.93,-68.67 -1.58,-62.84 4.09,-56 28.74,-26.28 140.19,-16.05 201.81,-12.64"/>
<polygon fill="midnightblue" stroke="midnightblue" points="202.17,-16.13 211.98,-12.11 201.81,-9.14 202.17,-16.13"/>
</g>
<!-- Node79&#45;&gt;Node9 -->
<g id="edge51" class="edge">
<title>Node79&#45;&gt;Node9</title>
<path fill="none" stroke="midnightblue" d="M984.05,-187C806.06,-184.3 399.63,-174.75 265.09,-143 207.9,-129.5 145.87,-98.47 112.89,-80.51"/>
<polygon fill="midnightblue" stroke="midnightblue" points="114.45,-77.37 104,-75.6 111.07,-83.5 114.45,-77.37"/>
</g>
<!-- Node80&#45;&gt;Node34 -->
<g id="edge55" class="edge">
<title>Node80&#45;&gt;Node34</title>
<path fill="none" stroke="midnightblue" d="M1158.26,-124.89C1033.31,-120.71 714.05,-107.61 449.09,-76 447.79,-75.84 446.47,-75.68 445.13,-75.5"/>
<polygon fill="midnightblue" stroke="midnightblue" points="445.2,-71.98 434.8,-74.01 444.19,-78.9 445.2,-71.98"/>
</g>
<!-- Node83&#45;&gt;Node3 -->
<g id="edge57" class="edge">
<title>Node83&#45;&gt;Node3</title>
<path fill="none" stroke="midnightblue" d="M3664.92,-240.16C3413.66,-222 2349.22,-145.06 2151.7,-130.78"/>
<polygon fill="midnightblue" stroke="midnightblue" points="2151.92,-127.29 2141.69,-130.06 2151.41,-134.27 2151.92,-127.29"/>
</g>
<!-- Node83&#45;&gt;Node75 -->
<g id="edge61" class="edge">
<title>Node83&#45;&gt;Node75</title>
<path fill="none" stroke="midnightblue" d="M3732.08,-235.46C3778.49,-207.14 3927.68,-116.08 3985.19,-80.98"/>
<polygon fill="midnightblue" stroke="midnightblue" points="3987.19,-83.86 3993.91,-75.66 3983.55,-77.88 3987.19,-83.86"/>
</g>
<!-- Node84 -->
<g id="node43" class="node">
<title>Node84</title>
<g id="a_node43"><a xlink:href="wld__wps_8h.html" target="_top" xlink:title=" ">
<polygon fill="white" stroke="black" points="3684.09,-179.5 3684.09,-198.5 3752.09,-198.5 3752.09,-179.5 3684.09,-179.5"/>
<text text-anchor="middle" x="3718.09" y="-186.5" font-family="Helvetica,sans-Serif" font-size="10.00">wld_wps.h</text>
</a>
</g>
</g>
<!-- Node83&#45;&gt;Node84 -->
<g id="edge58" class="edge">
<title>Node83&#45;&gt;Node84</title>
<path fill="none" stroke="midnightblue" d="M3718.09,-235.08C3718.09,-228.01 3718.09,-217.86 3718.09,-208.99"/>
<polygon fill="midnightblue" stroke="midnightblue" points="3721.59,-208.75 3718.09,-198.75 3714.59,-208.75 3721.59,-208.75"/>
</g>
<!-- Node84&#45;&gt;Node3 -->
<g id="edge60" class="edge">
<title>Node84&#45;&gt;Node3</title>
<path fill="none" stroke="midnightblue" d="M3683.92,-181.05C3678.96,-180.24 3673.91,-179.52 3669.09,-179 3359.6,-145.72 2344.21,-131.35 2151.74,-128.89"/>
<polygon fill="midnightblue" stroke="midnightblue" points="2151.76,-125.39 2141.72,-128.76 2151.67,-132.39 2151.76,-125.39"/>
</g>
<!-- Node84&#45;&gt;Node5 -->
<g id="edge59" class="edge">
<title>Node84&#45;&gt;Node5</title>
<path fill="none" stroke="midnightblue" d="M3745.63,-179.45C3826.06,-154.43 4055.26,-82.67 4060.09,-76 4065.31,-68.8 4065.44,-63.1 4060.09,-56 4052.71,-46.21 3983.59,-29.09 3939.56,-19.03"/>
<polygon fill="midnightblue" stroke="midnightblue" points="3940.29,-15.61 3929.77,-16.81 3938.75,-22.44 3940.29,-15.61"/>
</g>
<!-- Node85&#45;&gt;Node6 -->
<g id="edge64" class="edge">
<title>Node85&#45;&gt;Node6</title>
<path fill="none" stroke="midnightblue" d="M4037.85,-235.33C4058.06,-219.6 4098.68,-184.16 4114.09,-143 4118.93,-130.1 4114.71,-125.76 4114.09,-112 4112.98,-87.04 4123.62,-76.33 4109.09,-56 4097.7,-40.05 4079.33,-29.67 4061.36,-22.95"/>
<polygon fill="midnightblue" stroke="midnightblue" points="4062.06,-19.49 4051.47,-19.58 4059.8,-26.11 4062.06,-19.49"/>
</g>
<!-- Node60 -->
<g id="node45" class="node">
<title>Node60</title>
<g id="a_node45"><a xlink:href="wld__wpaCtrl__types_8h.html" target="_top" xlink:title=" ">
<polygon fill="white" stroke="black" points="4183.09,-179.5 4183.09,-198.5 4301.09,-198.5 4301.09,-179.5 4183.09,-179.5"/>
<text text-anchor="middle" x="4242.09" y="-186.5" font-family="Helvetica,sans-Serif" font-size="10.00">wld_wpaCtrl_types.h</text>
</a>
</g>
</g>
<!-- Node85&#45;&gt;Node60 -->
<g id="edge63" class="edge">
<title>Node85&#45;&gt;Node60</title>
<path fill="none" stroke="midnightblue" d="M4060.32,-235.44C4097.6,-226.12 4157.36,-211.18 4198.1,-201"/>
<polygon fill="midnightblue" stroke="midnightblue" points="4199.17,-204.34 4208.03,-198.52 4197.48,-197.55 4199.17,-204.34"/>
</g>
<!-- Node86&#45;&gt;Node3 -->
<g id="edge66" class="edge">
<title>Node86&#45;&gt;Node3</title>
<path fill="none" stroke="midnightblue" d="M3844.45,-235.15C3829.23,-220.25 3795.96,-190.67 3761.09,-179 3603.26,-126.18 2367.46,-127.71 2152.06,-128.38"/>
<polygon fill="midnightblue" stroke="midnightblue" points="2151.75,-124.88 2141.76,-128.41 2151.77,-131.88 2151.75,-124.88"/>
</g>
<!-- Node86&#45;&gt;Node87 -->
<g id="edge67" class="edge">
<title>Node86&#45;&gt;Node87</title>
<path fill="none" stroke="midnightblue" d="M3874.64,-235.44C3897.12,-226.52 3932.58,-212.44 3958.07,-202.32"/>
<polygon fill="midnightblue" stroke="midnightblue" points="3959.64,-205.46 3967.64,-198.52 3957.06,-198.95 3959.64,-205.46"/>
</g>
<!-- Node87&#45;&gt;Node5 -->
<g id="edge68" class="edge">
<title>Node87&#45;&gt;Node5</title>
<path fill="none" stroke="midnightblue" d="M4041.37,-179.48C4062.69,-173.15 4085.29,-162.14 4098.09,-143 4106.63,-130.24 4100.68,-64.76 4093.09,-56 4090.55,-53.07 3994.35,-31.29 3939.84,-19.14"/>
<polygon fill="midnightblue" stroke="midnightblue" points="3940.38,-15.67 3929.85,-16.92 3938.86,-22.5 3940.38,-15.67"/>
</g>
<!-- Node64 -->
<g id="node48" class="node">
<title>Node64</title>
<g id="a_node48"><a xlink:title=" ">
<polygon fill="white" stroke="#bfbfbf" points="3975.09,-112.5 3975.09,-142.5 4089.09,-142.5 4089.09,-112.5 3975.09,-112.5"/>
<text text-anchor="start" x="3983.09" y="-130.5" font-family="Helvetica,sans-Serif" font-size="10.00">swl/swl_ieee802_1x</text>
<text text-anchor="middle" x="4032.09" y="-119.5" font-family="Helvetica,sans-Serif" font-size="10.00">_defs.h</text>
</a>
</g>
</g>
<!-- Node87&#45;&gt;Node64 -->
<g id="edge69" class="edge">
<title>Node87&#45;&gt;Node64</title>
<path fill="none" stroke="midnightblue" d="M3995.25,-179.48C4000.64,-172.02 4008.71,-160.85 4015.93,-150.87"/>
<polygon fill="midnightblue" stroke="midnightblue" points="4018.94,-152.68 4021.96,-142.52 4013.26,-148.58 4018.94,-152.68"/>
</g>
</g>
</svg>
