<?xml version="1.0" encoding="UTF-8" standalone="no"?>
<!DOCTYPE svg PUBLIC "-//W3C//DTD SVG 1.1//EN"
 "http://www.w3.org/Graphics/SVG/1.1/DTD/svg11.dtd">
<!-- Generated by graphviz version 2.43.0 (0)
 -->
<!-- Title: wld_rad_isUpExt Pages: 1 -->
<svg width="503pt" height="129pt"
 viewBox="0.00 0.00 503.00 129.00" xmlns="http://www.w3.org/2000/svg" xmlns:xlink="http://www.w3.org/1999/xlink">
<g id="graph0" class="graph" transform="scale(1 1) rotate(0) translate(4 125)">
<title>wld_rad_isUpExt</title>
<polygon fill="white" stroke="transparent" points="-4,4 -4,-125 499,-125 499,4 -4,4"/>
<!-- Node1 -->
<g id="node1" class="node">
<title>Node1</title>
<g id="a_node1"><a xlink:title=" ">
<polygon fill="#bfbfbf" stroke="black" points="397,-63.5 397,-82.5 495,-82.5 495,-63.5 397,-63.5"/>
<text text-anchor="middle" x="446" y="-70.5" font-family="Helvetica,sans-Serif" font-size="10.00">wld_rad_isUpExt</text>
</a>
</g>
</g>
<!-- Node2 -->
<g id="node2" class="node">
<title>Node2</title>
<g id="a_node2"><a xlink:href="wifiGen__rad_8c.html#a9233592c6fba03287d70436e4532b9c5" target="_top" xlink:title=" ">
<polygon fill="white" stroke="black" points="214,-101.5 214,-120.5 361,-120.5 361,-101.5 214,-101.5"/>
<text text-anchor="middle" x="287.5" y="-108.5" font-family="Helvetica,sans-Serif" font-size="10.00">wifiGen_rad_bgDfsStartExt</text>
</a>
</g>
</g>
<!-- Node1&#45;&gt;Node2 -->
<g id="edge1" class="edge">
<title>Node1&#45;&gt;Node2</title>
<path fill="none" stroke="midnightblue" d="M395.71,-84.97C373.78,-90.29 348.32,-96.48 327.71,-101.48"/>
<polygon fill="midnightblue" stroke="midnightblue" points="396.62,-88.35 405.51,-82.59 394.96,-81.55 396.62,-88.35"/>
</g>
<!-- Node3 -->
<g id="node3" class="node">
<title>Node3</title>
<g id="a_node3"><a xlink:href="wld__accesspoint_8c.html#afce1e4726856a8b3bec33a125230f48b" target="_top" xlink:title=" ">
<polygon fill="white" stroke="black" points="220,-63.5 220,-82.5 355,-82.5 355,-63.5 220,-63.5"/>
<text text-anchor="middle" x="287.5" y="-70.5" font-family="Helvetica,sans-Serif" font-size="10.00">wld_ap_getDesiredState</text>
</a>
</g>
</g>
<!-- Node1&#45;&gt;Node3 -->
<g id="edge2" class="edge">
<title>Node1&#45;&gt;Node3</title>
<path fill="none" stroke="midnightblue" d="M386.71,-73C376.47,-73 365.73,-73 355.28,-73"/>
<polygon fill="midnightblue" stroke="midnightblue" points="386.77,-76.5 396.77,-73 386.77,-69.5 386.77,-76.5"/>
</g>
<!-- Node4 -->
<g id="node4" class="node">
<title>Node4</title>
<g id="a_node4"><a xlink:href="wld__hostapd__cfgFile_8c.html#aa4ef0964a05f5b4f72d9c4b2f9046aa4" target="_top" xlink:title="set the radio parameters">
<polygon fill="white" stroke="black" points="229.5,-14 229.5,-44 345.5,-44 345.5,-14 229.5,-14"/>
<text text-anchor="start" x="237.5" y="-32" font-family="Helvetica,sans-Serif" font-size="10.00">wld_hostapd_cfgFile</text>
<text text-anchor="middle" x="287.5" y="-21" font-family="Helvetica,sans-Serif" font-size="10.00">_setRadioConfig</text>
</a>
</g>
</g>
<!-- Node1&#45;&gt;Node4 -->
<g id="edge3" class="edge">
<title>Node1&#45;&gt;Node4</title>
<path fill="none" stroke="midnightblue" d="M401.21,-60.69C382.86,-55.53 361.36,-49.49 342.08,-44.07"/>
<polygon fill="midnightblue" stroke="midnightblue" points="400.47,-64.12 411.04,-63.45 402.36,-57.38 400.47,-64.12"/>
</g>
<!-- Node5 -->
<g id="node5" class="node">
<title>Node5</title>
<g id="a_node5"><a xlink:href="wld__rad__hostapd__api_8c.html#aea42b1d7acee5d51484de01cac65c983" target="_top" xlink:title="set main interface channel parameters">
<polygon fill="white" stroke="black" points="9.5,-38.5 9.5,-57.5 168.5,-57.5 168.5,-38.5 9.5,-38.5"/>
<text text-anchor="middle" x="89" y="-45.5" font-family="Helvetica,sans-Serif" font-size="10.00">wld_rad_hostapd_setChannel</text>
</a>
</g>
</g>
<!-- Node4&#45;&gt;Node5 -->
<g id="edge4" class="edge">
<title>Node4&#45;&gt;Node5</title>
<path fill="none" stroke="midnightblue" d="M219.44,-35.48C203.15,-37.06 185.58,-38.76 168.81,-40.38"/>
<polygon fill="midnightblue" stroke="midnightblue" points="219.78,-38.97 229.4,-34.52 219.11,-32 219.78,-38.97"/>
</g>
<!-- Node6 -->
<g id="node6" class="node">
<title>Node6</title>
<g id="a_node6"><a xlink:href="wld__rad__hostapd__api_8c.html#a5411827e8b4ab433c4f62efe4dee6b5e" target="_top" xlink:title=" ">
<polygon fill="white" stroke="black" points="0,-0.5 0,-19.5 178,-19.5 178,-0.5 0,-0.5"/>
<text text-anchor="middle" x="89" y="-7.5" font-family="Helvetica,sans-Serif" font-size="10.00">wld_rad_hostapd_setMiscParams</text>
</a>
</g>
</g>
<!-- Node4&#45;&gt;Node6 -->
<g id="edge5" class="edge">
<title>Node4&#45;&gt;Node6</title>
<path fill="none" stroke="midnightblue" d="M219.07,-22.48C205.95,-21.21 192.02,-19.86 178.34,-18.54"/>
<polygon fill="midnightblue" stroke="midnightblue" points="219.11,-26 229.4,-23.48 219.78,-19.03 219.11,-26"/>
</g>
</g>
</svg>
