<?xml version="1.0" encoding="UTF-8" standalone="no"?>
<!DOCTYPE svg PUBLIC "-//W3C//DTD SVG 1.1//EN"
 "http://www.w3.org/Graphics/SVG/1.1/DTD/svg11.dtd">
<!-- Generated by graphviz version 2.43.0 (0)
 -->
<!-- Title: include_priv/nl80211/wld_secDmnGrp_priv.h Pages: 1 -->
<svg width="780pt" height="386pt"
 viewBox="0.00 0.00 779.50 386.00" xmlns="http://www.w3.org/2000/svg" xmlns:xlink="http://www.w3.org/1999/xlink">
<g id="graph0" class="graph" transform="scale(1 1) rotate(0) translate(4 382)">
<title>include_priv/nl80211/wld_secDmnGrp_priv.h</title>
<polygon fill="white" stroke="transparent" points="-4,4 -4,-382 775.5,-382 775.5,4 -4,4"/>
<!-- Node1 -->
<g id="node1" class="node">
<title>Node1</title>
<g id="a_node1"><a xlink:title=" ">
<polygon fill="#bfbfbf" stroke="black" points="119.5,-347.5 119.5,-377.5 250.5,-377.5 250.5,-347.5 119.5,-347.5"/>
<text text-anchor="start" x="127.5" y="-365.5" font-family="Helvetica,sans-Serif" font-size="10.00">include_priv/nl80211</text>
<text text-anchor="middle" x="185" y="-354.5" font-family="Helvetica,sans-Serif" font-size="10.00">/wld_secDmnGrp_priv.h</text>
</a>
</g>
</g>
<!-- Node2 -->
<g id="node2" class="node">
<title>Node2</title>
<g id="a_node2"><a xlink:href="wld__secDmnGrp_8h.html" target="_top" xlink:title=" ">
<polygon fill="white" stroke="black" points="132.5,-291.5 132.5,-310.5 237.5,-310.5 237.5,-291.5 132.5,-291.5"/>
<text text-anchor="middle" x="185" y="-298.5" font-family="Helvetica,sans-Serif" font-size="10.00">wld_secDmnGrp.h</text>
</a>
</g>
</g>
<!-- Node1&#45;&gt;Node2 -->
<g id="edge1" class="edge">
<title>Node1&#45;&gt;Node2</title>
<path fill="none" stroke="midnightblue" d="M185,-347.4C185,-339.47 185,-329.46 185,-320.86"/>
<polygon fill="midnightblue" stroke="midnightblue" points="188.5,-320.66 185,-310.66 181.5,-320.66 188.5,-320.66"/>
</g>
<!-- Node3 -->
<g id="node3" class="node">
<title>Node3</title>
<g id="a_node3"><a xlink:href="wld__secDmn__types_8h.html" target="_top" xlink:title=" ">
<polygon fill="white" stroke="black" points="0,-179.5 0,-198.5 120,-198.5 120,-179.5 0,-179.5"/>
<text text-anchor="middle" x="60" y="-186.5" font-family="Helvetica,sans-Serif" font-size="10.00">wld_secDmn_types.h</text>
</a>
</g>
</g>
<!-- Node2&#45;&gt;Node3 -->
<g id="edge2" class="edge">
<title>Node2&#45;&gt;Node3</title>
<path fill="none" stroke="midnightblue" d="M175.19,-291.37C154.11,-272.81 104.22,-228.91 77.54,-205.44"/>
<polygon fill="midnightblue" stroke="midnightblue" points="79.58,-202.57 69.76,-198.59 74.96,-207.83 79.58,-202.57"/>
</g>
<!-- Node4 -->
<g id="node4" class="node">
<title>Node4</title>
<g id="a_node4"><a xlink:href="wld__secDmn_8h.html" target="_top" xlink:title=" ">
<polygon fill="white" stroke="black" points="207,-235.5 207,-254.5 295,-254.5 295,-235.5 207,-235.5"/>
<text text-anchor="middle" x="251" y="-242.5" font-family="Helvetica,sans-Serif" font-size="10.00">wld_secDmn.h</text>
</a>
</g>
</g>
<!-- Node2&#45;&gt;Node4 -->
<g id="edge3" class="edge">
<title>Node2&#45;&gt;Node4</title>
<path fill="none" stroke="midnightblue" d="M195.6,-291.32C205.46,-283.26 220.35,-271.08 232.22,-261.37"/>
<polygon fill="midnightblue" stroke="midnightblue" points="234.68,-263.88 240.2,-254.83 230.25,-258.46 234.68,-263.88"/>
</g>
<!-- Node4&#45;&gt;Node3 -->
<g id="edge20" class="edge">
<title>Node4&#45;&gt;Node3</title>
<path fill="none" stroke="midnightblue" d="M220.74,-235.44C188.04,-226.2 135.82,-211.44 99.82,-201.26"/>
<polygon fill="midnightblue" stroke="midnightblue" points="100.7,-197.87 90.12,-198.52 98.79,-204.61 100.7,-197.87"/>
</g>
<!-- Node5 -->
<g id="node5" class="node">
<title>Node5</title>
<g id="a_node5"><a xlink:href="wld__wpaCtrlMngr_8h.html" target="_top" xlink:title=" ">
<polygon fill="white" stroke="black" points="138,-179.5 138,-198.5 248,-198.5 248,-179.5 138,-179.5"/>
<text text-anchor="middle" x="193" y="-186.5" font-family="Helvetica,sans-Serif" font-size="10.00">wld_wpaCtrlMngr.h</text>
</a>
</g>
</g>
<!-- Node4&#45;&gt;Node5 -->
<g id="edge4" class="edge">
<title>Node4&#45;&gt;Node5</title>
<path fill="none" stroke="midnightblue" d="M241.68,-235.32C233.11,-227.34 220.19,-215.31 209.81,-205.65"/>
<polygon fill="midnightblue" stroke="midnightblue" points="212.19,-203.09 202.49,-198.83 207.42,-208.21 212.19,-203.09"/>
</g>
<!-- Node14 -->
<g id="node14" class="node">
<title>Node14</title>
<g id="a_node14"><a xlink:href="wld__daemon_8h.html" target="_top" xlink:title=" ">
<polygon fill="white" stroke="black" points="266,-179.5 266,-198.5 354,-198.5 354,-179.5 266,-179.5"/>
<text text-anchor="middle" x="310" y="-186.5" font-family="Helvetica,sans-Serif" font-size="10.00">wld_daemon.h</text>
</a>
</g>
</g>
<!-- Node4&#45;&gt;Node14 -->
<g id="edge15" class="edge">
<title>Node4&#45;&gt;Node14</title>
<path fill="none" stroke="midnightblue" d="M260.48,-235.32C269.2,-227.34 282.34,-215.31 292.9,-205.65"/>
<polygon fill="midnightblue" stroke="midnightblue" points="295.33,-208.17 300.35,-198.83 290.61,-203 295.33,-208.17"/>
</g>
<!-- Node19 -->
<g id="node19" class="node">
<title>Node19</title>
<g id="a_node19"><a xlink:title=" ">
<polygon fill="white" stroke="#bfbfbf" points="372,-179.5 372,-198.5 518,-198.5 518,-179.5 372,-179.5"/>
<text text-anchor="middle" x="445" y="-186.5" font-family="Helvetica,sans-Serif" font-size="10.00">swl/swl_common_trilean.h</text>
</a>
</g>
</g>
<!-- Node4&#45;&gt;Node19 -->
<g id="edge21" class="edge">
<title>Node4&#45;&gt;Node19</title>
<path fill="none" stroke="midnightblue" d="M281.74,-235.44C314.94,-226.2 367.99,-211.44 404.56,-201.26"/>
<polygon fill="midnightblue" stroke="midnightblue" points="405.71,-204.57 414.4,-198.52 403.83,-197.83 405.71,-204.57"/>
</g>
<!-- Node20 -->
<g id="node20" class="node">
<title>Node20</title>
<g id="a_node20"><a xlink:title=" ">
<polygon fill="white" stroke="#bfbfbf" points="536,-179.5 536,-198.5 630,-198.5 630,-179.5 536,-179.5"/>
<text text-anchor="middle" x="583" y="-186.5" font-family="Helvetica,sans-Serif" font-size="10.00">swl/swl_maps.h</text>
</a>
</g>
</g>
<!-- Node4&#45;&gt;Node20 -->
<g id="edge22" class="edge">
<title>Node4&#45;&gt;Node20</title>
<path fill="none" stroke="midnightblue" d="M295.09,-236.83C354.44,-227.18 460.14,-209.98 525.63,-199.33"/>
<polygon fill="midnightblue" stroke="midnightblue" points="526.47,-202.74 535.78,-197.68 525.35,-195.83 526.47,-202.74"/>
</g>
<!-- Node6 -->
<g id="node6" class="node">
<title>Node6</title>
<g id="a_node6"><a xlink:href="wld__wpaCtrl__types_8h.html" target="_top" xlink:title=" ">
<polygon fill="white" stroke="black" points="5,-6 5,-25 123,-25 123,-6 5,-6"/>
<text text-anchor="middle" x="64" y="-13" font-family="Helvetica,sans-Serif" font-size="10.00">wld_wpaCtrl_types.h</text>
</a>
</g>
</g>
<!-- Node5&#45;&gt;Node6 -->
<g id="edge5" class="edge">
<title>Node5&#45;&gt;Node6</title>
<path fill="none" stroke="midnightblue" d="M144.4,-179.48C122.38,-173.11 97.98,-162.07 83,-143 58.39,-111.67 58.94,-62.14 61.47,-35.29"/>
<polygon fill="midnightblue" stroke="midnightblue" points="64.96,-35.63 62.61,-25.3 58,-34.84 64.96,-35.63"/>
</g>
<!-- Node7 -->
<g id="node7" class="node">
<title>Node7</title>
<g id="a_node7"><a xlink:href="wld__wpaCtrlInterface_8h.html" target="_top" xlink:title=" ">
<polygon fill="white" stroke="black" points="92.5,-123.5 92.5,-142.5 221.5,-142.5 221.5,-123.5 92.5,-123.5"/>
<text text-anchor="middle" x="157" y="-130.5" font-family="Helvetica,sans-Serif" font-size="10.00">wld_wpaCtrlInterface.h</text>
</a>
</g>
</g>
<!-- Node5&#45;&gt;Node7 -->
<g id="edge6" class="edge">
<title>Node5&#45;&gt;Node7</title>
<path fill="none" stroke="midnightblue" d="M187.06,-179.08C182.02,-171.53 174.66,-160.49 168.49,-151.23"/>
<polygon fill="midnightblue" stroke="midnightblue" points="171.29,-149.13 162.83,-142.75 165.47,-153.01 171.29,-149.13"/>
</g>
<!-- Node7&#45;&gt;Node6 -->
<g id="edge7" class="edge">
<title>Node7&#45;&gt;Node6</title>
<path fill="none" stroke="midnightblue" d="M150.01,-123.32C134.59,-104.17 97.45,-58.04 77.39,-33.13"/>
<polygon fill="midnightblue" stroke="midnightblue" points="80.07,-30.88 71.07,-25.28 74.62,-35.27 80.07,-30.88"/>
</g>
<!-- Node8 -->
<g id="node8" class="node">
<title>Node8</title>
<g id="a_node8"><a xlink:href="wld__wpaCtrl__events_8h.html" target="_top" xlink:title=" ">
<polygon fill="white" stroke="black" points="273,-67.5 273,-86.5 397,-86.5 397,-67.5 273,-67.5"/>
<text text-anchor="middle" x="335" y="-74.5" font-family="Helvetica,sans-Serif" font-size="10.00">wld_wpaCtrl_events.h</text>
</a>
</g>
</g>
<!-- Node7&#45;&gt;Node8 -->
<g id="edge8" class="edge">
<title>Node7&#45;&gt;Node8</title>
<path fill="none" stroke="midnightblue" d="M185.2,-123.44C215.41,-114.28 263.51,-99.69 297.03,-89.52"/>
<polygon fill="midnightblue" stroke="midnightblue" points="298.37,-92.77 306.93,-86.52 296.34,-86.07 298.37,-92.77"/>
</g>
<!-- Node8&#45;&gt;Node6 -->
<g id="edge14" class="edge">
<title>Node8&#45;&gt;Node6</title>
<path fill="none" stroke="midnightblue" d="M296.17,-67.48C247.88,-56.87 165.39,-38.76 112.85,-27.22"/>
<polygon fill="midnightblue" stroke="midnightblue" points="113.27,-23.74 102.76,-25.01 111.77,-30.57 113.27,-23.74"/>
</g>
<!-- Node9 -->
<g id="node9" class="node">
<title>Node9</title>
<g id="a_node9"><a xlink:title=" ">
<polygon fill="white" stroke="#bfbfbf" points="141.5,-6 141.5,-25 266.5,-25 266.5,-6 141.5,-6"/>
<text text-anchor="middle" x="204" y="-13" font-family="Helvetica,sans-Serif" font-size="10.00">swla/swla_chanspec.h</text>
</a>
</g>
</g>
<!-- Node8&#45;&gt;Node9 -->
<g id="edge9" class="edge">
<title>Node8&#45;&gt;Node9</title>
<path fill="none" stroke="midnightblue" d="M316.23,-67.48C294.15,-57.45 257.28,-40.7 231.86,-29.15"/>
<polygon fill="midnightblue" stroke="midnightblue" points="233.29,-25.96 222.73,-25.01 230.39,-32.33 233.29,-25.96"/>
</g>
<!-- Node10 -->
<g id="node10" class="node">
<title>Node10</title>
<g id="a_node10"><a xlink:title=" ">
<polygon fill="white" stroke="#bfbfbf" points="285,-6 285,-25 385,-25 385,-6 285,-6"/>
<text text-anchor="middle" x="335" y="-13" font-family="Helvetica,sans-Serif" font-size="10.00">swla/swla_mac.h</text>
</a>
</g>
</g>
<!-- Node8&#45;&gt;Node10 -->
<g id="edge10" class="edge">
<title>Node8&#45;&gt;Node10</title>
<path fill="none" stroke="midnightblue" d="M335,-67.48C335,-59.08 335,-45.98 335,-35.16"/>
<polygon fill="midnightblue" stroke="midnightblue" points="338.5,-35.01 335,-25.01 331.5,-35.01 338.5,-35.01"/>
</g>
<!-- Node11 -->
<g id="node11" class="node">
<title>Node11</title>
<g id="a_node11"><a xlink:title=" ">
<polygon fill="white" stroke="#bfbfbf" points="403,-0.5 403,-30.5 517,-30.5 517,-0.5 403,-0.5"/>
<text text-anchor="start" x="411" y="-18.5" font-family="Helvetica,sans-Serif" font-size="10.00">swl/swl_ieee802_1x</text>
<text text-anchor="middle" x="460" y="-7.5" font-family="Helvetica,sans-Serif" font-size="10.00">_defs.h</text>
</a>
</g>
</g>
<!-- Node8&#45;&gt;Node11 -->
<g id="edge11" class="edge">
<title>Node8&#45;&gt;Node11</title>
<path fill="none" stroke="midnightblue" d="M352.91,-67.48C370.71,-59 398.58,-45.74 421.42,-34.86"/>
<polygon fill="midnightblue" stroke="midnightblue" points="423.01,-37.98 430.54,-30.52 420.01,-31.66 423.01,-37.98"/>
</g>
<!-- Node12 -->
<g id="node12" class="node">
<title>Node12</title>
<g id="a_node12"><a xlink:title=" ">
<polygon fill="white" stroke="#bfbfbf" points="535.5,-6 535.5,-25 632.5,-25 632.5,-6 535.5,-6"/>
<text text-anchor="middle" x="584" y="-13" font-family="Helvetica,sans-Serif" font-size="10.00">swl/swl_80211.h</text>
</a>
</g>
</g>
<!-- Node8&#45;&gt;Node12 -->
<g id="edge12" class="edge">
<title>Node8&#45;&gt;Node12</title>
<path fill="none" stroke="midnightblue" d="M372.01,-67.44C410.51,-58.49 472.53,-43.98 526,-31 530.67,-29.87 535.55,-28.67 540.41,-27.47"/>
<polygon fill="midnightblue" stroke="midnightblue" points="541.42,-30.82 550.28,-25.01 539.73,-24.03 541.42,-30.82"/>
</g>
<!-- Node13 -->
<g id="node13" class="node">
<title>Node13</title>
<g id="a_node13"><a xlink:title=" ">
<polygon fill="white" stroke="#bfbfbf" points="650.5,-6 650.5,-25 771.5,-25 771.5,-6 650.5,-6"/>
<text text-anchor="middle" x="711" y="-13" font-family="Helvetica,sans-Serif" font-size="10.00">swl/swl_returnCode.h</text>
</a>
</g>
</g>
<!-- Node8&#45;&gt;Node13 -->
<g id="edge13" class="edge">
<title>Node8&#45;&gt;Node13</title>
<path fill="none" stroke="midnightblue" d="M397.22,-68.02C459.36,-59.79 557.55,-46.05 642,-31 648.64,-29.82 655.62,-28.47 662.48,-27.09"/>
<polygon fill="midnightblue" stroke="midnightblue" points="663.31,-30.49 672.4,-25.05 661.9,-23.63 663.31,-30.49"/>
</g>
<!-- Node15 -->
<g id="node15" class="node">
<title>Node15</title>
<g id="a_node15"><a xlink:title=" ">
<polygon fill="white" stroke="#bfbfbf" points="240,-123.5 240,-142.5 302,-142.5 302,-123.5 240,-123.5"/>
<text text-anchor="middle" x="271" y="-130.5" font-family="Helvetica,sans-Serif" font-size="10.00">stdbool.h</text>
</a>
</g>
</g>
<!-- Node14&#45;&gt;Node15 -->
<g id="edge16" class="edge">
<title>Node14&#45;&gt;Node15</title>
<path fill="none" stroke="midnightblue" d="M303.56,-179.08C298.05,-171.46 289.97,-160.26 283.24,-150.94"/>
<polygon fill="midnightblue" stroke="midnightblue" points="286.01,-148.81 277.32,-142.75 280.34,-152.91 286.01,-148.81"/>
</g>
<!-- Node16 -->
<g id="node16" class="node">
<title>Node16</title>
<g id="a_node16"><a xlink:title=" ">
<polygon fill="white" stroke="#bfbfbf" points="320.5,-123.5 320.5,-142.5 373.5,-142.5 373.5,-123.5 320.5,-123.5"/>
<text text-anchor="middle" x="347" y="-130.5" font-family="Helvetica,sans-Serif" font-size="10.00">stdint.h</text>
</a>
</g>
</g>
<!-- Node14&#45;&gt;Node16 -->
<g id="edge17" class="edge">
<title>Node14&#45;&gt;Node16</title>
<path fill="none" stroke="midnightblue" d="M316.11,-179.08C321.28,-171.53 328.85,-160.49 335.19,-151.23"/>
<polygon fill="midnightblue" stroke="midnightblue" points="338.24,-152.98 341,-142.75 332.46,-149.02 338.24,-152.98"/>
</g>
<!-- Node17 -->
<g id="node17" class="node">
<title>Node17</title>
<g id="a_node17"><a xlink:title=" ">
<polygon fill="white" stroke="#bfbfbf" points="392,-123.5 392,-142.5 440,-142.5 440,-123.5 392,-123.5"/>
<text text-anchor="middle" x="416" y="-130.5" font-family="Helvetica,sans-Serif" font-size="10.00">time.h</text>
</a>
</g>
</g>
<!-- Node14&#45;&gt;Node17 -->
<g id="edge18" class="edge">
<title>Node14&#45;&gt;Node17</title>
<path fill="none" stroke="midnightblue" d="M327.03,-179.32C344.03,-170.66 370.38,-157.24 389.99,-147.25"/>
<polygon fill="midnightblue" stroke="midnightblue" points="391.69,-150.31 399.01,-142.65 388.51,-144.08 391.69,-150.31"/>
</g>
<!-- Node18 -->
<g id="node18" class="node">
<title>Node18</title>
<g id="a_node18"><a xlink:title=" ">
<polygon fill="white" stroke="#bfbfbf" points="458.5,-123.5 458.5,-142.5 513.5,-142.5 513.5,-123.5 458.5,-123.5"/>
<text text-anchor="middle" x="486" y="-130.5" font-family="Helvetica,sans-Serif" font-size="10.00">signal.h</text>
</a>
</g>
</g>
<!-- Node14&#45;&gt;Node18 -->
<g id="edge19" class="edge">
<title>Node14&#45;&gt;Node18</title>
<path fill="none" stroke="midnightblue" d="M337.89,-179.44C367.75,-170.28 415.31,-155.69 448.46,-145.52"/>
<polygon fill="midnightblue" stroke="midnightblue" points="449.71,-148.8 458.24,-142.52 447.66,-142.1 449.71,-148.8"/>
</g>
</g>
</svg>
