<?xml version="1.0" encoding="UTF-8" standalone="no"?>
<!DOCTYPE svg PUBLIC "-//W3C//DTD SVG 1.1//EN"
 "http://www.w3.org/Graphics/SVG/1.1/DTD/svg11.dtd">
<!-- Generated by graphviz version 2.43.0 (0)
 -->
<!-- Title: include_priv/nl80211/wld_wpaCtrlMngr_priv.h Pages: 1 -->
<svg width="824pt" height="330pt"
 viewBox="0.00 0.00 824.00 330.00" xmlns="http://www.w3.org/2000/svg" xmlns:xlink="http://www.w3.org/1999/xlink">
<g id="graph0" class="graph" transform="scale(1 1) rotate(0) translate(4 326)">
<title>include_priv/nl80211/wld_wpaCtrlMngr_priv.h</title>
<polygon fill="white" stroke="transparent" points="-4,4 -4,-326 820,-326 820,4 -4,4"/>
<!-- Node1 -->
<g id="node1" class="node">
<title>Node1</title>
<g id="a_node1"><a xlink:title=" ">
<polygon fill="#bfbfbf" stroke="black" points="63.5,-291.5 63.5,-321.5 200.5,-321.5 200.5,-291.5 63.5,-291.5"/>
<text text-anchor="start" x="71.5" y="-309.5" font-family="Helvetica,sans-Serif" font-size="10.00">include_priv/nl80211</text>
<text text-anchor="middle" x="132" y="-298.5" font-family="Helvetica,sans-Serif" font-size="10.00">/wld_wpaCtrlMngr_priv.h</text>
</a>
</g>
</g>
<!-- Node2 -->
<g id="node2" class="node">
<title>Node2</title>
<g id="a_node2"><a xlink:title=" ">
<polygon fill="white" stroke="#bfbfbf" points="0,-235.5 0,-254.5 104,-254.5 104,-235.5 0,-235.5"/>
<text text-anchor="middle" x="52" y="-242.5" font-family="Helvetica,sans-Serif" font-size="10.00">swl/swl_unLiList.h</text>
</a>
</g>
</g>
<!-- Node1&#45;&gt;Node2 -->
<g id="edge1" class="edge">
<title>Node1&#45;&gt;Node2</title>
<path fill="none" stroke="midnightblue" d="M113.04,-291.4C100.58,-282.13 84.3,-270.03 71.69,-260.65"/>
<polygon fill="midnightblue" stroke="midnightblue" points="73.75,-257.82 63.64,-254.66 69.58,-263.43 73.75,-257.82"/>
</g>
<!-- Node3 -->
<g id="node3" class="node">
<title>Node3</title>
<g id="a_node3"><a xlink:href="wld__wpaCtrl__events_8h.html" target="_top" xlink:title=" ">
<polygon fill="white" stroke="black" points="308,-67.5 308,-86.5 432,-86.5 432,-67.5 308,-67.5"/>
<text text-anchor="middle" x="370" y="-74.5" font-family="Helvetica,sans-Serif" font-size="10.00">wld_wpaCtrl_events.h</text>
</a>
</g>
</g>
<!-- Node1&#45;&gt;Node3 -->
<g id="edge2" class="edge">
<title>Node1&#45;&gt;Node3</title>
<path fill="none" stroke="midnightblue" d="M128.52,-291.44C121.08,-257.6 107.59,-170.93 151,-123 170.44,-101.54 241.62,-89.81 297.62,-83.75"/>
<polygon fill="midnightblue" stroke="midnightblue" points="298.3,-87.2 307.88,-82.69 297.57,-80.24 298.3,-87.2"/>
</g>
<!-- Node10 -->
<g id="node10" class="node">
<title>Node10</title>
<g id="a_node10"><a xlink:href="wld__secDmn_8h.html" target="_top" xlink:title=" ">
<polygon fill="white" stroke="black" points="383,-235.5 383,-254.5 471,-254.5 471,-235.5 383,-235.5"/>
<text text-anchor="middle" x="427" y="-242.5" font-family="Helvetica,sans-Serif" font-size="10.00">wld_secDmn.h</text>
</a>
</g>
</g>
<!-- Node1&#45;&gt;Node10 -->
<g id="edge9" class="edge">
<title>Node1&#45;&gt;Node10</title>
<path fill="none" stroke="midnightblue" d="M200.79,-291.62C253.88,-280.92 326.21,-266.33 374.65,-256.56"/>
<polygon fill="midnightblue" stroke="midnightblue" points="375.5,-259.96 384.61,-254.55 374.11,-253.1 375.5,-259.96"/>
</g>
<!-- Node4 -->
<g id="node4" class="node">
<title>Node4</title>
<g id="a_node4"><a xlink:title=" ">
<polygon fill="white" stroke="#bfbfbf" points="512.5,-6 512.5,-25 637.5,-25 637.5,-6 512.5,-6"/>
<text text-anchor="middle" x="575" y="-13" font-family="Helvetica,sans-Serif" font-size="10.00">swla/swla_chanspec.h</text>
</a>
</g>
</g>
<!-- Node3&#45;&gt;Node4 -->
<g id="edge3" class="edge">
<title>Node3&#45;&gt;Node4</title>
<path fill="none" stroke="midnightblue" d="M399.37,-67.48C435.3,-57.05 496.23,-39.36 536.04,-27.81"/>
<polygon fill="midnightblue" stroke="midnightblue" points="537.05,-31.16 545.68,-25.01 535.1,-24.44 537.05,-31.16"/>
</g>
<!-- Node5 -->
<g id="node5" class="node">
<title>Node5</title>
<g id="a_node5"><a xlink:title=" ">
<polygon fill="white" stroke="#bfbfbf" points="8,-6 8,-25 108,-25 108,-6 8,-6"/>
<text text-anchor="middle" x="58" y="-13" font-family="Helvetica,sans-Serif" font-size="10.00">swla/swla_mac.h</text>
</a>
</g>
</g>
<!-- Node3&#45;&gt;Node5 -->
<g id="edge4" class="edge">
<title>Node3&#45;&gt;Node5</title>
<path fill="none" stroke="midnightblue" d="M316.01,-67.44C264.65,-59.05 185.31,-45.45 117,-31 111.84,-29.91 106.45,-28.69 101.11,-27.44"/>
<polygon fill="midnightblue" stroke="midnightblue" points="101.53,-23.94 90.99,-25.01 99.9,-30.75 101.53,-23.94"/>
</g>
<!-- Node6 -->
<g id="node6" class="node">
<title>Node6</title>
<g id="a_node6"><a xlink:title=" ">
<polygon fill="white" stroke="#bfbfbf" points="126,-0.5 126,-30.5 240,-30.5 240,-0.5 126,-0.5"/>
<text text-anchor="start" x="134" y="-18.5" font-family="Helvetica,sans-Serif" font-size="10.00">swl/swl_ieee802_1x</text>
<text text-anchor="middle" x="183" y="-7.5" font-family="Helvetica,sans-Serif" font-size="10.00">_defs.h</text>
</a>
</g>
</g>
<!-- Node3&#45;&gt;Node6 -->
<g id="edge5" class="edge">
<title>Node3&#45;&gt;Node6</title>
<path fill="none" stroke="midnightblue" d="M343.21,-67.48C315.51,-58.66 271.53,-44.67 236.65,-33.57"/>
<polygon fill="midnightblue" stroke="midnightblue" points="237.66,-30.22 227.07,-30.52 235.54,-36.89 237.66,-30.22"/>
</g>
<!-- Node7 -->
<g id="node7" class="node">
<title>Node7</title>
<g id="a_node7"><a xlink:title=" ">
<polygon fill="white" stroke="#bfbfbf" points="258.5,-6 258.5,-25 355.5,-25 355.5,-6 258.5,-6"/>
<text text-anchor="middle" x="307" y="-13" font-family="Helvetica,sans-Serif" font-size="10.00">swl/swl_80211.h</text>
</a>
</g>
</g>
<!-- Node3&#45;&gt;Node7 -->
<g id="edge6" class="edge">
<title>Node3&#45;&gt;Node7</title>
<path fill="none" stroke="midnightblue" d="M360.97,-67.48C351.24,-58.28 335.54,-43.46 323.58,-32.16"/>
<polygon fill="midnightblue" stroke="midnightblue" points="325.68,-29.33 316.01,-25.01 320.88,-34.42 325.68,-29.33"/>
</g>
<!-- Node8 -->
<g id="node8" class="node">
<title>Node8</title>
<g id="a_node8"><a xlink:title=" ">
<polygon fill="white" stroke="#bfbfbf" points="373.5,-6 373.5,-25 494.5,-25 494.5,-6 373.5,-6"/>
<text text-anchor="middle" x="434" y="-13" font-family="Helvetica,sans-Serif" font-size="10.00">swl/swl_returnCode.h</text>
</a>
</g>
</g>
<!-- Node3&#45;&gt;Node8 -->
<g id="edge7" class="edge">
<title>Node3&#45;&gt;Node8</title>
<path fill="none" stroke="midnightblue" d="M379.17,-67.48C389.15,-58.2 405.31,-43.17 417.51,-31.83"/>
<polygon fill="midnightblue" stroke="midnightblue" points="419.91,-34.38 424.85,-25.01 415.14,-29.25 419.91,-34.38"/>
</g>
<!-- Node9 -->
<g id="node9" class="node">
<title>Node9</title>
<g id="a_node9"><a xlink:href="wld__wpaCtrl__types_8h.html" target="_top" xlink:title=" ">
<polygon fill="white" stroke="black" points="656,-6 656,-25 774,-25 774,-6 656,-6"/>
<text text-anchor="middle" x="715" y="-13" font-family="Helvetica,sans-Serif" font-size="10.00">wld_wpaCtrl_types.h</text>
</a>
</g>
</g>
<!-- Node3&#45;&gt;Node9 -->
<g id="edge8" class="edge">
<title>Node3&#45;&gt;Node9</title>
<path fill="none" stroke="midnightblue" d="M427.71,-67.47C483.84,-58.97 571.46,-45.18 647,-31 653.31,-29.82 659.93,-28.5 666.46,-27.15"/>
<polygon fill="midnightblue" stroke="midnightblue" points="667.52,-30.51 676.59,-25.03 666.08,-23.66 667.52,-30.51"/>
</g>
<!-- Node11 -->
<g id="node11" class="node">
<title>Node11</title>
<g id="a_node11"><a xlink:href="wld__wpaCtrlMngr_8h.html" target="_top" xlink:title=" ">
<polygon fill="white" stroke="black" points="706,-179.5 706,-198.5 816,-198.5 816,-179.5 706,-179.5"/>
<text text-anchor="middle" x="761" y="-186.5" font-family="Helvetica,sans-Serif" font-size="10.00">wld_wpaCtrlMngr.h</text>
</a>
</g>
</g>
<!-- Node10&#45;&gt;Node11 -->
<g id="edge10" class="edge">
<title>Node10&#45;&gt;Node11</title>
<path fill="none" stroke="midnightblue" d="M471.01,-236.88C529.22,-227.47 632.18,-210.83 698.45,-200.11"/>
<polygon fill="midnightblue" stroke="midnightblue" points="699.05,-203.56 708.36,-198.51 697.93,-196.65 699.05,-203.56"/>
</g>
<!-- Node13 -->
<g id="node13" class="node">
<title>Node13</title>
<g id="a_node13"><a xlink:href="wld__daemon_8h.html" target="_top" xlink:title=" ">
<polygon fill="white" stroke="black" points="186,-179.5 186,-198.5 274,-198.5 274,-179.5 186,-179.5"/>
<text text-anchor="middle" x="230" y="-186.5" font-family="Helvetica,sans-Serif" font-size="10.00">wld_daemon.h</text>
</a>
</g>
</g>
<!-- Node10&#45;&gt;Node13 -->
<g id="edge15" class="edge">
<title>Node10&#45;&gt;Node13</title>
<path fill="none" stroke="midnightblue" d="M395.78,-235.44C362.07,-226.2 308.2,-211.44 271.07,-201.26"/>
<polygon fill="midnightblue" stroke="midnightblue" points="271.64,-197.78 261.07,-198.52 269.79,-204.54 271.64,-197.78"/>
</g>
<!-- Node18 -->
<g id="node18" class="node">
<title>Node18</title>
<g id="a_node18"><a xlink:href="wld__secDmn__types_8h.html" target="_top" xlink:title=" ">
<polygon fill="white" stroke="black" points="292,-179.5 292,-198.5 412,-198.5 412,-179.5 292,-179.5"/>
<text text-anchor="middle" x="352" y="-186.5" font-family="Helvetica,sans-Serif" font-size="10.00">wld_secDmn_types.h</text>
</a>
</g>
</g>
<!-- Node10&#45;&gt;Node18 -->
<g id="edge20" class="edge">
<title>Node10&#45;&gt;Node18</title>
<path fill="none" stroke="midnightblue" d="M414.95,-235.32C403.54,-227.11 386.17,-214.6 372.57,-204.81"/>
<polygon fill="midnightblue" stroke="midnightblue" points="374.43,-201.84 364.27,-198.83 370.34,-207.52 374.43,-201.84"/>
</g>
<!-- Node19 -->
<g id="node19" class="node">
<title>Node19</title>
<g id="a_node19"><a xlink:title=" ">
<polygon fill="white" stroke="#bfbfbf" points="430,-179.5 430,-198.5 576,-198.5 576,-179.5 430,-179.5"/>
<text text-anchor="middle" x="503" y="-186.5" font-family="Helvetica,sans-Serif" font-size="10.00">swl/swl_common_trilean.h</text>
</a>
</g>
</g>
<!-- Node10&#45;&gt;Node19 -->
<g id="edge21" class="edge">
<title>Node10&#45;&gt;Node19</title>
<path fill="none" stroke="midnightblue" d="M439.21,-235.32C450.78,-227.11 468.38,-214.6 482.16,-204.81"/>
<polygon fill="midnightblue" stroke="midnightblue" points="484.44,-207.48 490.57,-198.83 480.39,-201.77 484.44,-207.48"/>
</g>
<!-- Node20 -->
<g id="node20" class="node">
<title>Node20</title>
<g id="a_node20"><a xlink:title=" ">
<polygon fill="white" stroke="#bfbfbf" points="594,-179.5 594,-198.5 688,-198.5 688,-179.5 594,-179.5"/>
<text text-anchor="middle" x="641" y="-186.5" font-family="Helvetica,sans-Serif" font-size="10.00">swl/swl_maps.h</text>
</a>
</g>
</g>
<!-- Node10&#45;&gt;Node20 -->
<g id="edge22" class="edge">
<title>Node10&#45;&gt;Node20</title>
<path fill="none" stroke="midnightblue" d="M460.91,-235.44C497.85,-226.12 557.05,-211.18 597.42,-201"/>
<polygon fill="midnightblue" stroke="midnightblue" points="598.41,-204.36 607.25,-198.52 596.7,-197.57 598.41,-204.36"/>
</g>
<!-- Node11&#45;&gt;Node9 -->
<g id="edge11" class="edge">
<title>Node11&#45;&gt;Node9</title>
<path fill="none" stroke="midnightblue" d="M758.66,-179.26C751.49,-152.54 729.76,-71.52 719.93,-34.86"/>
<polygon fill="midnightblue" stroke="midnightblue" points="723.26,-33.77 717.29,-25.02 716.5,-35.58 723.26,-33.77"/>
</g>
<!-- Node12 -->
<g id="node12" class="node">
<title>Node12</title>
<g id="a_node12"><a xlink:href="wld__wpaCtrlInterface_8h.html" target="_top" xlink:title=" ">
<polygon fill="white" stroke="black" points="603.5,-123.5 603.5,-142.5 732.5,-142.5 732.5,-123.5 603.5,-123.5"/>
<text text-anchor="middle" x="668" y="-130.5" font-family="Helvetica,sans-Serif" font-size="10.00">wld_wpaCtrlInterface.h</text>
</a>
</g>
</g>
<!-- Node11&#45;&gt;Node12 -->
<g id="edge12" class="edge">
<title>Node11&#45;&gt;Node12</title>
<path fill="none" stroke="midnightblue" d="M746.06,-179.32C731.41,-170.82 708.87,-157.73 691.76,-147.8"/>
<polygon fill="midnightblue" stroke="midnightblue" points="693.31,-144.65 682.9,-142.65 689.8,-150.7 693.31,-144.65"/>
</g>
<!-- Node12&#45;&gt;Node3 -->
<g id="edge14" class="edge">
<title>Node12&#45;&gt;Node3</title>
<path fill="none" stroke="midnightblue" d="M620.78,-123.44C568.25,-113.92 483.39,-98.55 427.15,-88.36"/>
<polygon fill="midnightblue" stroke="midnightblue" points="427.46,-84.86 417,-86.52 426.21,-91.74 427.46,-84.86"/>
</g>
<!-- Node12&#45;&gt;Node9 -->
<g id="edge13" class="edge">
<title>Node12&#45;&gt;Node9</title>
<path fill="none" stroke="midnightblue" d="M671.53,-123.32C679.15,-104.59 697.28,-60.05 707.56,-34.79"/>
<polygon fill="midnightblue" stroke="midnightblue" points="710.9,-35.86 711.43,-25.28 704.42,-33.23 710.9,-35.86"/>
</g>
<!-- Node14 -->
<g id="node14" class="node">
<title>Node14</title>
<g id="a_node14"><a xlink:title=" ">
<polygon fill="white" stroke="#bfbfbf" points="372,-123.5 372,-142.5 434,-142.5 434,-123.5 372,-123.5"/>
<text text-anchor="middle" x="403" y="-130.5" font-family="Helvetica,sans-Serif" font-size="10.00">stdbool.h</text>
</a>
</g>
</g>
<!-- Node13&#45;&gt;Node14 -->
<g id="edge16" class="edge">
<title>Node13&#45;&gt;Node14</title>
<path fill="none" stroke="midnightblue" d="M257.41,-179.44C286.77,-170.28 333.52,-155.69 366.1,-145.52"/>
<polygon fill="midnightblue" stroke="midnightblue" points="367.21,-148.84 375.72,-142.52 365.13,-142.16 367.21,-148.84"/>
</g>
<!-- Node15 -->
<g id="node15" class="node">
<title>Node15</title>
<g id="a_node15"><a xlink:title=" ">
<polygon fill="white" stroke="#bfbfbf" points="160.5,-123.5 160.5,-142.5 213.5,-142.5 213.5,-123.5 160.5,-123.5"/>
<text text-anchor="middle" x="187" y="-130.5" font-family="Helvetica,sans-Serif" font-size="10.00">stdint.h</text>
</a>
</g>
</g>
<!-- Node13&#45;&gt;Node15 -->
<g id="edge17" class="edge">
<title>Node13&#45;&gt;Node15</title>
<path fill="none" stroke="midnightblue" d="M222.9,-179.08C216.76,-171.38 207.73,-160.03 200.26,-150.65"/>
<polygon fill="midnightblue" stroke="midnightblue" points="202.94,-148.39 193.97,-142.75 197.46,-152.75 202.94,-148.39"/>
</g>
<!-- Node16 -->
<g id="node16" class="node">
<title>Node16</title>
<g id="a_node16"><a xlink:title=" ">
<polygon fill="white" stroke="#bfbfbf" points="232,-123.5 232,-142.5 280,-142.5 280,-123.5 232,-123.5"/>
<text text-anchor="middle" x="256" y="-130.5" font-family="Helvetica,sans-Serif" font-size="10.00">time.h</text>
</a>
</g>
</g>
<!-- Node13&#45;&gt;Node16 -->
<g id="edge18" class="edge">
<title>Node13&#45;&gt;Node16</title>
<path fill="none" stroke="midnightblue" d="M234.29,-179.08C237.85,-171.69 243.02,-160.95 247.42,-151.81"/>
<polygon fill="midnightblue" stroke="midnightblue" points="250.6,-153.28 251.79,-142.75 244.29,-150.24 250.6,-153.28"/>
</g>
<!-- Node17 -->
<g id="node17" class="node">
<title>Node17</title>
<g id="a_node17"><a xlink:title=" ">
<polygon fill="white" stroke="#bfbfbf" points="298.5,-123.5 298.5,-142.5 353.5,-142.5 353.5,-123.5 298.5,-123.5"/>
<text text-anchor="middle" x="326" y="-130.5" font-family="Helvetica,sans-Serif" font-size="10.00">signal.h</text>
</a>
</g>
</g>
<!-- Node13&#45;&gt;Node17 -->
<g id="edge19" class="edge">
<title>Node13&#45;&gt;Node17</title>
<path fill="none" stroke="midnightblue" d="M245.42,-179.32C260.54,-170.82 283.82,-157.73 301.47,-147.8"/>
<polygon fill="midnightblue" stroke="midnightblue" points="303.61,-150.61 310.61,-142.65 300.18,-144.51 303.61,-150.61"/>
</g>
</g>
</svg>
