<?xml version="1.0" encoding="UTF-8" standalone="no"?>
<!DOCTYPE svg PUBLIC "-//W3C//DTD SVG 1.1//EN"
 "http://www.w3.org/Graphics/SVG/1.1/DTD/svg11.dtd">
<!-- Generated by graphviz version 2.43.0 (0)
 -->
<!-- Title: wld_bgdfs_isRunning Pages: 1 -->
<svg width="491pt" height="218pt"
 viewBox="0.00 0.00 491.00 218.00" xmlns="http://www.w3.org/2000/svg" xmlns:xlink="http://www.w3.org/1999/xlink">
<g id="graph0" class="graph" transform="scale(1 1) rotate(0) translate(4 214)">
<title>wld_bgdfs_isRunning</title>
<polygon fill="white" stroke="transparent" points="-4,4 -4,-214 487,-214 487,4 -4,4"/>
<!-- Node1 -->
<g id="node1" class="node">
<title>Node1</title>
<g id="a_node1"><a xlink:title=" ">
<polygon fill="#bfbfbf" stroke="black" points="364,-95.5 364,-114.5 483,-114.5 483,-95.5 364,-95.5"/>
<text text-anchor="middle" x="423.5" y="-102.5" font-family="Helvetica,sans-Serif" font-size="10.00">wld_bgdfs_isRunning</text>
</a>
</g>
</g>
<!-- Node2 -->
<g id="node2" class="node">
<title>Node2</title>
<g id="a_node2"><a xlink:href="wld__bgdfs_8c.html#aee7a444e3523e4c12b868c1d21e7b0d6" target="_top" xlink:title=" ">
<polygon fill="white" stroke="black" points="185,-190.5 185,-209.5 310,-209.5 310,-190.5 185,-190.5"/>
<text text-anchor="middle" x="247.5" y="-197.5" font-family="Helvetica,sans-Serif" font-size="10.00">s_checkEnableChange</text>
</a>
</g>
</g>
<!-- Node1&#45;&gt;Node2 -->
<g id="edge1" class="edge">
<title>Node1&#45;&gt;Node2</title>
<path fill="none" stroke="midnightblue" d="M406.36,-121.81C388.71,-139.2 358.82,-165.89 328,-181 320.1,-184.87 311.36,-187.99 302.66,-190.48"/>
<polygon fill="midnightblue" stroke="midnightblue" points="409,-124.11 413.56,-114.55 404.03,-119.18 409,-124.11"/>
</g>
<!-- Node4 -->
<g id="node4" class="node">
<title>Node4</title>
<g id="a_node4"><a xlink:href="wifiGen__eventHandlers_8c.html#ada33173b7a6342a0da0a0783aadfdb19" target="_top" xlink:title=" ">
<polygon fill="white" stroke="black" points="207,-152.5 207,-171.5 288,-171.5 288,-152.5 207,-152.5"/>
<text text-anchor="middle" x="247.5" y="-159.5" font-family="Helvetica,sans-Serif" font-size="10.00">s_radarEvtCb</text>
</a>
</g>
</g>
<!-- Node1&#45;&gt;Node4 -->
<g id="edge3" class="edge">
<title>Node1&#45;&gt;Node4</title>
<path fill="none" stroke="midnightblue" d="M392.14,-118.54C373.82,-126.38 349.85,-136.04 328,-143 315.16,-147.09 300.9,-150.76 288.04,-153.76"/>
<polygon fill="midnightblue" stroke="midnightblue" points="393.65,-121.7 401.44,-114.52 390.87,-115.28 393.65,-121.7"/>
</g>
<!-- Node5 -->
<g id="node5" class="node">
<title>Node5</title>
<g id="a_node5"><a xlink:href="wifiGen__rad_8c.html#a9233592c6fba03287d70436e4532b9c5" target="_top" xlink:title=" ">
<polygon fill="white" stroke="black" points="174,-114.5 174,-133.5 321,-133.5 321,-114.5 174,-114.5"/>
<text text-anchor="middle" x="247.5" y="-121.5" font-family="Helvetica,sans-Serif" font-size="10.00">wifiGen_rad_bgDfsStartExt</text>
</a>
</g>
</g>
<!-- Node1&#45;&gt;Node5 -->
<g id="edge4" class="edge">
<title>Node1&#45;&gt;Node5</title>
<path fill="none" stroke="midnightblue" d="M353.55,-112.53C342.93,-113.69 331.93,-114.89 321.24,-116.06"/>
<polygon fill="midnightblue" stroke="midnightblue" points="354.03,-116 363.59,-111.43 353.27,-109.04 354.03,-116"/>
</g>
<!-- Node6 -->
<g id="node6" class="node">
<title>Node6</title>
<g id="a_node6"><a xlink:href="wifiGen__rad_8c.html#a4648b18985ef392da90c2a0c8273fc69" target="_top" xlink:title=" ">
<polygon fill="white" stroke="black" points="182.5,-76.5 182.5,-95.5 312.5,-95.5 312.5,-76.5 182.5,-76.5"/>
<text text-anchor="middle" x="247.5" y="-83.5" font-family="Helvetica,sans-Serif" font-size="10.00">wifiGen_rad_bgDfsStop</text>
</a>
</g>
</g>
<!-- Node1&#45;&gt;Node6 -->
<g id="edge5" class="edge">
<title>Node1&#45;&gt;Node6</title>
<path fill="none" stroke="midnightblue" d="M353.46,-97.46C340.02,-95.99 325.99,-94.46 312.72,-93.01"/>
<polygon fill="midnightblue" stroke="midnightblue" points="353.27,-100.96 363.59,-98.57 354.03,-94 353.27,-100.96"/>
</g>
<!-- Node7 -->
<g id="node7" class="node">
<title>Node7</title>
<g id="a_node7"><a xlink:href="wifiGen__rad_8c.html#afac25ba3d1cac3746971c9fd591c2d1b" target="_top" xlink:title=" ">
<polygon fill="white" stroke="black" points="192.5,-38.5 192.5,-57.5 302.5,-57.5 302.5,-38.5 192.5,-38.5"/>
<text text-anchor="middle" x="247.5" y="-45.5" font-family="Helvetica,sans-Serif" font-size="10.00">wifiGen_rad_status</text>
</a>
</g>
</g>
<!-- Node1&#45;&gt;Node7 -->
<g id="edge6" class="edge">
<title>Node1&#45;&gt;Node7</title>
<path fill="none" stroke="midnightblue" d="M392.14,-91.46C373.82,-83.62 349.85,-73.96 328,-67 316.91,-63.47 304.77,-60.25 293.39,-57.5"/>
<polygon fill="midnightblue" stroke="midnightblue" points="390.87,-94.72 401.44,-95.48 393.65,-88.3 390.87,-94.72"/>
</g>
<!-- Node8 -->
<g id="node8" class="node">
<title>Node8</title>
<g id="a_node8"><a xlink:href="wld__bgdfs_8c.html#af91e15a3dd0c40898e755ea3b5a581b0" target="_top" xlink:title=" ">
<polygon fill="white" stroke="black" points="167,-0.5 167,-19.5 328,-19.5 328,-0.5 167,-0.5"/>
<text text-anchor="middle" x="247.5" y="-7.5" font-family="Helvetica,sans-Serif" font-size="10.00">wld_bgdfs_clearTimeEllapsed</text>
</a>
</g>
</g>
<!-- Node1&#45;&gt;Node8 -->
<g id="edge7" class="edge">
<title>Node1&#45;&gt;Node8</title>
<path fill="none" stroke="midnightblue" d="M406.36,-88.19C388.71,-70.8 358.82,-44.11 328,-29 320.1,-25.13 311.36,-22.01 302.66,-19.52"/>
<polygon fill="midnightblue" stroke="midnightblue" points="404.03,-90.82 413.56,-95.45 409,-85.89 404.03,-90.82"/>
</g>
<!-- Node3 -->
<g id="node3" class="node">
<title>Node3</title>
<g id="a_node3"><a xlink:href="wld__bgdfs_8c.html#aea898c0a2074de517ec55939629343d1" target="_top" xlink:title=" ">
<polygon fill="white" stroke="black" points="0,-190.5 0,-209.5 131,-209.5 131,-190.5 0,-190.5"/>
<text text-anchor="middle" x="65.5" y="-197.5" font-family="Helvetica,sans-Serif" font-size="10.00">wld_bgdfs_setAvailable</text>
</a>
</g>
</g>
<!-- Node2&#45;&gt;Node3 -->
<g id="edge2" class="edge">
<title>Node2&#45;&gt;Node3</title>
<path fill="none" stroke="midnightblue" d="M174.51,-200C160.19,-200 145.24,-200 131.18,-200"/>
<polygon fill="midnightblue" stroke="midnightblue" points="174.81,-203.5 184.81,-200 174.81,-196.5 174.81,-203.5"/>
</g>
</g>
</svg>
