<?xml version="1.0" encoding="UTF-8" standalone="no"?>
<!DOCTYPE svg PUBLIC "-//W3C//DTD SVG 1.1//EN"
 "http://www.w3.org/Graphics/SVG/1.1/DTD/svg11.dtd">
<!-- Generated by graphviz version 2.43.0 (0)
 -->
<!-- Title: wld_secDmn_setArgs Pages: 1 -->
<svg width="489pt" height="66pt"
 viewBox="0.00 0.00 489.00 66.00" xmlns="http://www.w3.org/2000/svg" xmlns:xlink="http://www.w3.org/1999/xlink">
<g id="graph0" class="graph" transform="scale(1 1) rotate(0) translate(4 62)">
<title>wld_secDmn_setArgs</title>
<polygon fill="white" stroke="transparent" points="-4,4 -4,-62 485,-62 485,4 -4,4"/>
<!-- Node1 -->
<g id="node1" class="node">
<title>Node1</title>
<g id="a_node1"><a xlink:title=" ">
<polygon fill="#bfbfbf" stroke="black" points="0,-19.5 0,-38.5 121,-38.5 121,-19.5 0,-19.5"/>
<text text-anchor="middle" x="60.5" y="-26.5" font-family="Helvetica,sans-Serif" font-size="10.00">wld_secDmn_setArgs</text>
</a>
</g>
</g>
<!-- Node2 -->
<g id="node2" class="node">
<title>Node2</title>
<g id="a_node2"><a xlink:href="wld__daemon_8c.html#a335dc3e12939144d97137cf59cfe7951" target="_top" xlink:title=" ">
<polygon fill="white" stroke="black" points="174.5,-38.5 174.5,-57.5 289.5,-57.5 289.5,-38.5 174.5,-38.5"/>
<text text-anchor="middle" x="232" y="-45.5" font-family="Helvetica,sans-Serif" font-size="10.00">wld_dmn_setArgList</text>
</a>
</g>
</g>
<!-- Node1&#45;&gt;Node2 -->
<g id="edge1" class="edge">
<title>Node1&#45;&gt;Node2</title>
<path fill="none" stroke="midnightblue" d="M121.26,-35.7C135.14,-37.25 150.01,-38.92 164.17,-40.51"/>
<polygon fill="midnightblue" stroke="midnightblue" points="164.01,-44.01 174.34,-41.65 164.79,-37.06 164.01,-44.01"/>
</g>
<!-- Node3 -->
<g id="node3" class="node">
<title>Node3</title>
<g id="a_node3"><a xlink:href="wld__secDmn_8c.html#a1b0cc11a41a11e2033f3188fd05a0d80" target="_top" xlink:title=" ">
<polygon fill="white" stroke="black" points="157,-0.5 157,-19.5 307,-19.5 307,-0.5 157,-0.5"/>
<text text-anchor="middle" x="232" y="-7.5" font-family="Helvetica,sans-Serif" font-size="10.00">wld_secDmn_isGrpMember</text>
</a>
</g>
</g>
<!-- Node1&#45;&gt;Node3 -->
<g id="edge2" class="edge">
<title>Node1&#45;&gt;Node3</title>
<path fill="none" stroke="midnightblue" d="M121.26,-22.3C129.55,-21.37 138.19,-20.4 146.82,-19.44"/>
<polygon fill="midnightblue" stroke="midnightblue" points="147.38,-22.9 156.93,-18.3 146.6,-15.94 147.38,-22.9"/>
</g>
<!-- Node4 -->
<g id="node4" class="node">
<title>Node4</title>
<g id="a_node4"><a xlink:href="wld__secDmnGrp_8c.html#ae5da21db2381b2d5a1f16df5d388d5df" target="_top" xlink:title=" ">
<polygon fill="white" stroke="black" points="343,-0.5 343,-19.5 481,-19.5 481,-0.5 343,-0.5"/>
<text text-anchor="middle" x="412" y="-7.5" font-family="Helvetica,sans-Serif" font-size="10.00">wld_secDmnGrp_getProc</text>
</a>
</g>
</g>
<!-- Node3&#45;&gt;Node4 -->
<g id="edge3" class="edge">
<title>Node3&#45;&gt;Node4</title>
<path fill="none" stroke="midnightblue" d="M307.2,-10C315.61,-10 324.2,-10 332.66,-10"/>
<polygon fill="midnightblue" stroke="midnightblue" points="332.89,-13.5 342.89,-10 332.89,-6.5 332.89,-13.5"/>
</g>
</g>
</svg>
