<?xml version="1.0" encoding="UTF-8" standalone="no"?>
<!DOCTYPE svg PUBLIC "-//W3C//DTD SVG 1.1//EN"
 "http://www.w3.org/Graphics/SVG/1.1/DTD/svg11.dtd">
<!-- Generated by graphviz version 2.43.0 (0)
 -->
<!-- Title: wld_channel_mark_radar_req_channel Pages: 1 -->
<svg width="611pt" height="66pt"
 viewBox="0.00 0.00 611.00 66.00" xmlns="http://www.w3.org/2000/svg" xmlns:xlink="http://www.w3.org/1999/xlink">
<g id="graph0" class="graph" transform="scale(1 1) rotate(0) translate(4 62)">
<title>wld_channel_mark_radar_req_channel</title>
<polygon fill="white" stroke="transparent" points="-4,4 -4,-62 607,-62 607,4 -4,4"/>
<!-- Node1 -->
<g id="node1" class="node">
<title>Node1</title>
<g id="a_node1"><a xlink:title=" ">
<polygon fill="#bfbfbf" stroke="black" points="464,-14 464,-44 603,-44 603,-14 464,-14"/>
<text text-anchor="start" x="472" y="-32" font-family="Helvetica,sans-Serif" font-size="10.00">wld_channel_mark_radar</text>
<text text-anchor="middle" x="533.5" y="-21" font-family="Helvetica,sans-Serif" font-size="10.00">_req_channel</text>
</a>
</g>
</g>
<!-- Node2 -->
<g id="node2" class="node">
<title>Node2</title>
<g id="a_node2"><a xlink:href="wifiGen__rad_8c.html#af2a37c704747cf32e599b77115c41774" target="_top" xlink:title=" ">
<polygon fill="white" stroke="black" points="319.5,-38.5 319.5,-57.5 411.5,-57.5 411.5,-38.5 319.5,-38.5"/>
<text text-anchor="middle" x="365.5" y="-45.5" font-family="Helvetica,sans-Serif" font-size="10.00">s_readChanInfo</text>
</a>
</g>
</g>
<!-- Node1&#45;&gt;Node2 -->
<g id="edge1" class="edge">
<title>Node1&#45;&gt;Node2</title>
<path fill="none" stroke="midnightblue" d="M453.24,-38.07C439.02,-39.7 424.65,-41.34 411.82,-42.81"/>
<polygon fill="midnightblue" stroke="midnightblue" points="454.01,-41.51 463.54,-36.89 453.21,-34.55 454.01,-41.51"/>
</g>
<!-- Node5 -->
<g id="node5" class="node">
<title>Node5</title>
<g id="a_node5"><a xlink:href="wifiGen__rad_8c.html#ac88a96957c62fdd53002d3125f9ecdef" target="_top" xlink:title=" ">
<polygon fill="white" stroke="black" points="303,-0.5 303,-19.5 428,-19.5 428,-0.5 303,-0.5"/>
<text text-anchor="middle" x="365.5" y="-7.5" font-family="Helvetica,sans-Serif" font-size="10.00">wifiGen_rad_initBands</text>
</a>
</g>
</g>
<!-- Node1&#45;&gt;Node5 -->
<g id="edge4" class="edge">
<title>Node1&#45;&gt;Node5</title>
<path fill="none" stroke="midnightblue" d="M453.55,-19.96C445,-18.98 436.39,-18 428.09,-17.05"/>
<polygon fill="midnightblue" stroke="midnightblue" points="453.21,-23.45 463.54,-21.11 454.01,-16.49 453.21,-23.45"/>
</g>
<!-- Node3 -->
<g id="node3" class="node">
<title>Node3</title>
<g id="a_node3"><a xlink:href="wifiGen__rad_8c.html#a5b1310e3851978593b4f264cd3e0fd07" target="_top" xlink:title=" ">
<polygon fill="white" stroke="black" points="161,-38.5 161,-57.5 267,-57.5 267,-38.5 161,-38.5"/>
<text text-anchor="middle" x="214" y="-45.5" font-family="Helvetica,sans-Serif" font-size="10.00">s_updateChannels</text>
</a>
</g>
</g>
<!-- Node2&#45;&gt;Node3 -->
<g id="edge2" class="edge">
<title>Node2&#45;&gt;Node3</title>
<path fill="none" stroke="midnightblue" d="M308.99,-48C295.31,-48 280.7,-48 267.19,-48"/>
<polygon fill="midnightblue" stroke="midnightblue" points="309.24,-51.5 319.24,-48 309.24,-44.5 309.24,-51.5"/>
</g>
<!-- Node4 -->
<g id="node4" class="node">
<title>Node4</title>
<g id="a_node4"><a xlink:href="wifiGen__rad_8c.html#a5971e495b5dfe5dc615d5c1c050faa87" target="_top" xlink:title=" ">
<polygon fill="white" stroke="black" points="0,-38.5 0,-57.5 125,-57.5 125,-38.5 0,-38.5"/>
<text text-anchor="middle" x="62.5" y="-45.5" font-family="Helvetica,sans-Serif" font-size="10.00">wifiGen_rad_poschans</text>
</a>
</g>
</g>
<!-- Node3&#45;&gt;Node4 -->
<g id="edge3" class="edge">
<title>Node3&#45;&gt;Node4</title>
<path fill="none" stroke="midnightblue" d="M150.62,-48C142.23,-48 133.63,-48 125.25,-48"/>
<polygon fill="midnightblue" stroke="midnightblue" points="150.71,-51.5 160.71,-48 150.71,-44.5 150.71,-51.5"/>
</g>
</g>
</svg>
