<?xml version="1.0" encoding="UTF-8" standalone="no"?>
<!DOCTYPE svg PUBLIC "-//W3C//DTD SVG 1.1//EN"
 "http://www.w3.org/Graphics/SVG/1.1/DTD/svg11.dtd">
<!-- Generated by graphviz version 2.43.0 (0)
 -->
<!-- Title: wld_rad_getSwlChanspec Pages: 1 -->
<svg width="561pt" height="275pt"
 viewBox="0.00 0.00 561.00 275.00" xmlns="http://www.w3.org/2000/svg" xmlns:xlink="http://www.w3.org/1999/xlink">
<g id="graph0" class="graph" transform="scale(1 1) rotate(0) translate(4 271)">
<title>wld_rad_getSwlChanspec</title>
<polygon fill="white" stroke="transparent" points="-4,4 -4,-271 557,-271 557,4 -4,4"/>
<!-- Node1 -->
<g id="node1" class="node">
<title>Node1</title>
<g id="a_node1"><a xlink:title=" ">
<polygon fill="#bfbfbf" stroke="black" points="413,-133.5 413,-152.5 553,-152.5 553,-133.5 413,-133.5"/>
<text text-anchor="middle" x="483" y="-140.5" font-family="Helvetica,sans-Serif" font-size="10.00">wld_rad_getSwlChanspec</text>
</a>
</g>
</g>
<!-- Node2 -->
<g id="node2" class="node">
<title>Node2</title>
<g id="a_node2"><a xlink:href="wld__rad__stamon_8c.html#a438c3523b7fb29a4fde39c0ad2388d25" target="_top" xlink:title=" ">
<polygon fill="white" stroke="black" points="204.5,-247.5 204.5,-266.5 363.5,-266.5 363.5,-247.5 204.5,-247.5"/>
<text text-anchor="middle" x="284" y="-254.5" font-family="Helvetica,sans-Serif" font-size="10.00">_createNonAssociatedDevice</text>
</a>
</g>
</g>
<!-- Node1&#45;&gt;Node2 -->
<g id="edge1" class="edge">
<title>Node1&#45;&gt;Node2</title>
<path fill="none" stroke="midnightblue" d="M468.01,-160.4C449.56,-182.12 414.93,-218.75 377,-238 369.29,-241.91 360.83,-245.02 352.26,-247.48"/>
<polygon fill="midnightblue" stroke="midnightblue" points="470.78,-162.55 474.48,-152.62 465.4,-158.07 470.78,-162.55"/>
</g>
<!-- Node3 -->
<g id="node3" class="node">
<title>Node3</title>
<g id="a_node3"><a xlink:href="wifiGen__rad_8c.html#a773e3bf8638f377f248e9c7a0cba4442" target="_top" xlink:title=" ">
<polygon fill="white" stroke="black" points="242,-209.5 242,-228.5 326,-228.5 326,-209.5 242,-209.5"/>
<text text-anchor="middle" x="284" y="-216.5" font-family="Helvetica,sans-Serif" font-size="10.00">s_getMaxPow</text>
</a>
</g>
</g>
<!-- Node1&#45;&gt;Node3 -->
<g id="edge2" class="edge">
<title>Node1&#45;&gt;Node3</title>
<path fill="none" stroke="midnightblue" d="M459.01,-158.06C438.33,-170.96 406.73,-189.13 377,-200 360.76,-205.94 342.2,-210.21 326.02,-213.19"/>
<polygon fill="midnightblue" stroke="midnightblue" points="461.12,-160.86 467.69,-152.55 457.37,-154.95 461.12,-160.86"/>
</g>
<!-- Node5 -->
<g id="node5" class="node">
<title>Node5</title>
<g id="a_node5"><a xlink:href="wld__chanmgt_8c.html#a36e91ff4612c995d1d1846e132151018" target="_top" xlink:title=" ">
<polygon fill="white" stroke="black" points="198.5,-171.5 198.5,-190.5 369.5,-190.5 369.5,-171.5 198.5,-171.5"/>
<text text-anchor="middle" x="284" y="-178.5" font-family="Helvetica,sans-Serif" font-size="10.00">wld_chanmgt_checkInitChannel</text>
</a>
</g>
</g>
<!-- Node1&#45;&gt;Node5 -->
<g id="edge4" class="edge">
<title>Node1&#45;&gt;Node5</title>
<path fill="none" stroke="midnightblue" d="M422.44,-154.49C394.33,-159.91 361.18,-166.31 334.48,-171.46"/>
<polygon fill="midnightblue" stroke="midnightblue" points="423.39,-157.87 432.54,-152.54 422.06,-151 423.39,-157.87"/>
</g>
<!-- Node6 -->
<g id="node6" class="node">
<title>Node6</title>
<g id="a_node6"><a xlink:href="wld__radio_8c.html#aab77197530d0320cf18b5a049e87928c" target="_top" xlink:title=" ">
<polygon fill="white" stroke="black" points="217.5,-133.5 217.5,-152.5 350.5,-152.5 350.5,-133.5 217.5,-133.5"/>
<text text-anchor="middle" x="284" y="-140.5" font-family="Helvetica,sans-Serif" font-size="10.00">wld_rad_getCurrentFreq</text>
</a>
</g>
</g>
<!-- Node1&#45;&gt;Node6 -->
<g id="edge5" class="edge">
<title>Node1&#45;&gt;Node6</title>
<path fill="none" stroke="midnightblue" d="M402.76,-143C385.49,-143 367.39,-143 350.7,-143"/>
<polygon fill="midnightblue" stroke="midnightblue" points="402.82,-146.5 412.82,-143 402.82,-139.5 402.82,-146.5"/>
</g>
<!-- Node7 -->
<g id="node7" class="node">
<title>Node7</title>
<g id="a_node7"><a xlink:href="wld__radio_8c.html#a6fa49867bafd918952a9143ac258dd3b" target="_top" xlink:title=" ">
<polygon fill="white" stroke="black" points="202,-95.5 202,-114.5 366,-114.5 366,-95.5 202,-95.5"/>
<text text-anchor="middle" x="284" y="-102.5" font-family="Helvetica,sans-Serif" font-size="10.00">wld_rad_getExtensionChannel</text>
</a>
</g>
</g>
<!-- Node1&#45;&gt;Node7 -->
<g id="edge6" class="edge">
<title>Node1&#45;&gt;Node7</title>
<path fill="none" stroke="midnightblue" d="M422.44,-131.51C394.33,-126.09 361.18,-119.69 334.48,-114.54"/>
<polygon fill="midnightblue" stroke="midnightblue" points="422.06,-135 432.54,-133.46 423.39,-128.13 422.06,-135"/>
</g>
<!-- Node8 -->
<g id="node8" class="node">
<title>Node8</title>
<g id="a_node8"><a xlink:href="wld__radio_8c.html#a3d90ab129fae3ae4a0bb7bdfec25a723" target="_top" xlink:title=" ">
<polygon fill="white" stroke="black" points="191,-57.5 191,-76.5 377,-76.5 377,-57.5 191,-57.5"/>
<text text-anchor="middle" x="284" y="-64.5" font-family="Helvetica,sans-Serif" font-size="10.00">wld_rad_hasChannelWidthCovered</text>
</a>
</g>
</g>
<!-- Node1&#45;&gt;Node8 -->
<g id="edge7" class="edge">
<title>Node1&#45;&gt;Node8</title>
<path fill="none" stroke="midnightblue" d="M459.01,-127.94C438.33,-115.04 406.73,-96.87 377,-86 366.58,-82.19 355.21,-79.07 344.12,-76.53"/>
<polygon fill="midnightblue" stroke="midnightblue" points="457.37,-131.05 467.69,-133.45 461.12,-125.14 457.37,-131.05"/>
</g>
<!-- Node9 -->
<g id="node9" class="node">
<title>Node9</title>
<g id="a_node9"><a xlink:href="wld__radio_8c.html#a81add1a28b82f1f77ffa673997bf4a1a" target="_top" xlink:title=" ">
<polygon fill="white" stroke="black" points="200,-19.5 200,-38.5 368,-38.5 368,-19.5 200,-19.5"/>
<text text-anchor="middle" x="284" y="-26.5" font-family="Helvetica,sans-Serif" font-size="10.00">wld_rad_updateOperatingClass</text>
</a>
</g>
</g>
<!-- Node1&#45;&gt;Node9 -->
<g id="edge8" class="edge">
<title>Node1&#45;&gt;Node9</title>
<path fill="none" stroke="midnightblue" d="M468.01,-125.6C449.56,-103.88 414.93,-67.25 377,-48 369.29,-44.09 360.83,-40.98 352.26,-38.52"/>
<polygon fill="midnightblue" stroke="midnightblue" points="465.4,-127.93 474.48,-133.38 470.78,-123.45 465.4,-127.93"/>
</g>
<!-- Node4 -->
<g id="node4" class="node">
<title>Node4</title>
<g id="a_node4"><a xlink:href="wifiGen__rad_8c.html#a65e1e8b585dc92e66407f6c90bff7db2" target="_top" xlink:title=" ">
<polygon fill="white" stroke="black" points="22.5,-209.5 22.5,-228.5 132.5,-228.5 132.5,-209.5 22.5,-209.5"/>
<text text-anchor="middle" x="77.5" y="-216.5" font-family="Helvetica,sans-Serif" font-size="10.00">wifiGen_rad_txpow</text>
</a>
</g>
</g>
<!-- Node3&#45;&gt;Node4 -->
<g id="edge3" class="edge">
<title>Node3&#45;&gt;Node4</title>
<path fill="none" stroke="midnightblue" d="M231.31,-219C201.16,-219 163.19,-219 132.64,-219"/>
<polygon fill="midnightblue" stroke="midnightblue" points="231.62,-222.5 241.62,-219 231.62,-215.5 231.62,-222.5"/>
</g>
<!-- Node10 -->
<g id="node10" class="node">
<title>Node10</title>
<g id="a_node10"><a xlink:href="wld__radio_8c.html#a6af73105a88a43f1e6ac763185ee16d8" target="_top" xlink:title=" ">
<polygon fill="white" stroke="black" points="0,-38.5 0,-57.5 155,-57.5 155,-38.5 0,-38.5"/>
<text text-anchor="middle" x="77.5" y="-45.5" font-family="Helvetica,sans-Serif" font-size="10.00">_wld_rad_setOperatingClass</text>
</a>
</g>
</g>
<!-- Node9&#45;&gt;Node10 -->
<g id="edge9" class="edge">
<title>Node9&#45;&gt;Node10</title>
<path fill="none" stroke="midnightblue" d="M189.68,-37.67C178.08,-38.75 166.32,-39.84 155.01,-40.89"/>
<polygon fill="midnightblue" stroke="midnightblue" points="190.19,-41.14 199.82,-36.73 189.54,-34.17 190.19,-41.14"/>
</g>
<!-- Node11 -->
<g id="node11" class="node">
<title>Node11</title>
<g id="a_node11"><a xlink:href="wld__radio_8c.html#a61dfca2571ec575bdf13ea5c48f7e15e" target="_top" xlink:title=" ">
<polygon fill="white" stroke="black" points="18,-0.5 18,-19.5 137,-19.5 137,-0.5 18,-0.5"/>
<text text-anchor="middle" x="77.5" y="-7.5" font-family="Helvetica,sans-Serif" font-size="10.00">syncData_Radio2OBJ</text>
</a>
</g>
</g>
<!-- Node9&#45;&gt;Node11 -->
<g id="edge10" class="edge">
<title>Node9&#45;&gt;Node11</title>
<path fill="none" stroke="midnightblue" d="M189.41,-20.3C171.62,-18.65 153.49,-16.97 137.17,-15.45"/>
<polygon fill="midnightblue" stroke="midnightblue" points="189.54,-23.83 199.82,-21.27 190.19,-16.86 189.54,-23.83"/>
</g>
</g>
</svg>
