<?xml version="1.0" encoding="UTF-8" standalone="no"?>
<!DOCTYPE svg PUBLIC "-//W3C//DTD SVG 1.1//EN"
 "http://www.w3.org/Graphics/SVG/1.1/DTD/svg11.dtd">
<!-- Generated by graphviz version 2.43.0 (0)
 -->
<!-- Title: syncData_Radio2OBJ Pages: 1 -->
<svg width="507pt" height="104pt"
 viewBox="0.00 0.00 507.00 104.00" xmlns="http://www.w3.org/2000/svg" xmlns:xlink="http://www.w3.org/1999/xlink">
<g id="graph0" class="graph" transform="scale(1 1) rotate(0) translate(4 100)">
<title>syncData_Radio2OBJ</title>
<polygon fill="white" stroke="transparent" points="-4,4 -4,-100 503,-100 503,4 -4,4"/>
<!-- Node1 -->
<g id="node1" class="node">
<title>Node1</title>
<g id="a_node1"><a xlink:title=" ">
<polygon fill="#bfbfbf" stroke="black" points="0,-38.5 0,-57.5 119,-57.5 119,-38.5 0,-38.5"/>
<text text-anchor="middle" x="59.5" y="-45.5" font-family="Helvetica,sans-Serif" font-size="10.00">syncData_Radio2OBJ</text>
</a>
</g>
</g>
<!-- Node2 -->
<g id="node2" class="node">
<title>Node2</title>
<g id="a_node2"><a xlink:href="wld__chanmgt_8c.html#a820b344822b91f23daa22e8dd2923092" target="_top" xlink:title=" ">
<polygon fill="white" stroke="black" points="163,-76.5 163,-95.5 315,-95.5 315,-76.5 163,-76.5"/>
<text text-anchor="middle" x="239" y="-83.5" font-family="Helvetica,sans-Serif" font-size="10.00">wld_chanmgt_saveChanges</text>
</a>
</g>
</g>
<!-- Node1&#45;&gt;Node2 -->
<g id="edge1" class="edge">
<title>Node1&#45;&gt;Node2</title>
<path fill="none" stroke="midnightblue" d="M105.29,-57.59C129.03,-62.67 158.38,-68.96 183.44,-74.32"/>
<polygon fill="midnightblue" stroke="midnightblue" points="183.02,-77.81 193.53,-76.48 184.49,-70.96 183.02,-77.81"/>
</g>
<!-- Node3 -->
<g id="node3" class="node">
<title>Node3</title>
<g id="a_node3"><a xlink:href="wld__radio_8c.html#a81add1a28b82f1f77ffa673997bf4a1a" target="_top" xlink:title=" ">
<polygon fill="white" stroke="black" points="155,-38.5 155,-57.5 323,-57.5 323,-38.5 155,-38.5"/>
<text text-anchor="middle" x="239" y="-45.5" font-family="Helvetica,sans-Serif" font-size="10.00">wld_rad_updateOperatingClass</text>
</a>
</g>
</g>
<!-- Node1&#45;&gt;Node3 -->
<g id="edge2" class="edge">
<title>Node1&#45;&gt;Node3</title>
<path fill="none" stroke="midnightblue" d="M119.11,-48C127.31,-48 135.9,-48 144.56,-48"/>
<polygon fill="midnightblue" stroke="midnightblue" points="144.72,-51.5 154.72,-48 144.72,-44.5 144.72,-51.5"/>
</g>
<!-- Node6 -->
<g id="node6" class="node">
<title>Node6</title>
<g id="a_node6"><a xlink:href="wld__util_8c.html#a9b0174aad292a5bbcf513dca21d8123d" target="_top" xlink:title=" ">
<polygon fill="white" stroke="black" points="170.5,-0.5 170.5,-19.5 307.5,-19.5 307.5,-0.5 170.5,-0.5"/>
<text text-anchor="middle" x="239" y="-7.5" font-family="Helvetica,sans-Serif" font-size="10.00">wld_util_initCustomAlias</text>
</a>
</g>
</g>
<!-- Node1&#45;&gt;Node6 -->
<g id="edge5" class="edge">
<title>Node1&#45;&gt;Node6</title>
<path fill="none" stroke="midnightblue" d="M105.29,-38.41C129.03,-33.33 158.38,-27.04 183.44,-21.68"/>
<polygon fill="midnightblue" stroke="midnightblue" points="184.49,-25.04 193.53,-19.52 183.02,-18.19 184.49,-25.04"/>
</g>
<!-- Node4 -->
<g id="node4" class="node">
<title>Node4</title>
<g id="a_node4"><a xlink:href="wld__util_8c.html#ab702f8b9102748a4dc45fb1bae6e9b0e" target="_top" xlink:title=" ">
<polygon fill="white" stroke="black" points="381.5,-57.5 381.5,-76.5 476.5,-76.5 476.5,-57.5 381.5,-57.5"/>
<text text-anchor="middle" x="429" y="-64.5" font-family="Helvetica,sans-Serif" font-size="10.00">getCountryZone</text>
</a>
</g>
</g>
<!-- Node3&#45;&gt;Node4 -->
<g id="edge3" class="edge">
<title>Node3&#45;&gt;Node4</title>
<path fill="none" stroke="midnightblue" d="M323.01,-56.39C339.23,-58.03 355.9,-59.71 371.04,-61.24"/>
<polygon fill="midnightblue" stroke="midnightblue" points="370.95,-64.75 381.25,-62.28 371.66,-57.79 370.95,-64.75"/>
</g>
<!-- Node5 -->
<g id="node5" class="node">
<title>Node5</title>
<g id="a_node5"><a xlink:href="wld__radio_8c.html#ae6aa07e4f2a9f4675b22fdd1412a60cc" target="_top" xlink:title=" ">
<polygon fill="white" stroke="black" points="359,-19.5 359,-38.5 499,-38.5 499,-19.5 359,-19.5"/>
<text text-anchor="middle" x="429" y="-26.5" font-family="Helvetica,sans-Serif" font-size="10.00">wld_rad_getSwlChanspec</text>
</a>
</g>
</g>
<!-- Node3&#45;&gt;Node5 -->
<g id="edge4" class="edge">
<title>Node3&#45;&gt;Node5</title>
<path fill="none" stroke="midnightblue" d="M323.01,-39.61C331.63,-38.74 340.38,-37.85 348.96,-36.99"/>
<polygon fill="midnightblue" stroke="midnightblue" points="349.34,-40.47 358.94,-35.98 348.64,-33.5 349.34,-40.47"/>
</g>
</g>
</svg>
