<?xml version="1.0" encoding="UTF-8" standalone="no"?>
<!DOCTYPE svg PUBLIC "-//W3C//DTD SVG 1.1//EN"
 "http://www.w3.org/Graphics/SVG/1.1/DTD/svg11.dtd">
<!-- Generated by graphviz version 2.43.0 (0)
 -->
<!-- Title: _Reset Pages: 1 -->
<svg width="421pt" height="165pt"
 viewBox="0.00 0.00 421.00 164.50" xmlns="http://www.w3.org/2000/svg" xmlns:xlink="http://www.w3.org/1999/xlink">
<g id="graph0" class="graph" transform="scale(1 1) rotate(0) translate(4 160.5)">
<title>_Reset</title>
<polygon fill="white" stroke="transparent" points="-4,4 -4,-160.5 417,-160.5 417,4 -4,4"/>
<!-- Node1 -->
<g id="node1" class="node">
<title>Node1</title>
<g id="a_node1"><a xlink:title=" ">
<polygon fill="#bfbfbf" stroke="black" points="0,-77 0,-96 50,-96 50,-77 0,-77"/>
<text text-anchor="middle" x="25" y="-84" font-family="Helvetica,sans-Serif" font-size="10.00">_Reset</text>
</a>
</g>
</g>
<!-- Node2 -->
<g id="node2" class="node">
<title>Node2</title>
<g id="a_node2"><a xlink:href="wld_8c.html#a0509a117a7c60ae778f6d72901982404" target="_top" xlink:title=" ">
<polygon fill="white" stroke="black" points="106.5,-137 106.5,-156 217.5,-156 217.5,-137 106.5,-137"/>
<text text-anchor="middle" x="162" y="-144" font-family="Helvetica,sans-Serif" font-size="10.00">get_wld_plugin_dm</text>
</a>
</g>
</g>
<!-- Node1&#45;&gt;Node2 -->
<g id="edge1" class="edge">
<title>Node1&#45;&gt;Node2</title>
<path fill="none" stroke="midnightblue" d="M37.66,-96.32C49.23,-105.61 67.83,-119.3 86,-127.5 91.41,-129.94 97.19,-132.11 103.05,-134.02"/>
<polygon fill="midnightblue" stroke="midnightblue" points="102.35,-137.46 112.93,-137 104.37,-130.76 102.35,-137.46"/>
</g>
<!-- Node3 -->
<g id="node3" class="node">
<title>Node3</title>
<g id="a_node3"><a xlink:href="wld_8c.html#a41e1e95e9813260c184aad989f33bb05" target="_top" xlink:title=" ">
<polygon fill="white" stroke="black" points="99,-99 99,-118 225,-118 225,-99 99,-99"/>
<text text-anchor="middle" x="162" y="-106" font-family="Helvetica,sans-Serif" font-size="10.00">get_wld_plugin_parser</text>
</a>
</g>
</g>
<!-- Node1&#45;&gt;Node3 -->
<g id="edge2" class="edge">
<title>Node1&#45;&gt;Node3</title>
<path fill="none" stroke="midnightblue" d="M50.14,-90.43C62.14,-92.39 77.32,-94.86 92.57,-97.35"/>
<polygon fill="midnightblue" stroke="midnightblue" points="92.13,-100.82 102.56,-98.98 93.26,-93.91 92.13,-100.82"/>
</g>
<!-- Node4 -->
<g id="node4" class="node">
<title>Node4</title>
<g id="a_node4"><a xlink:href="wld__autoCommitMgr_8c.html#aee76501d88846dd4f7277d2f4c2e118e" target="_top" xlink:title=" ">
<polygon fill="white" stroke="black" points="86,-49.5 86,-79.5 238,-79.5 238,-49.5 86,-49.5"/>
<text text-anchor="start" x="94" y="-67.5" font-family="Helvetica,sans-Serif" font-size="10.00">wld_autoCommitMgr_notify</text>
<text text-anchor="middle" x="162" y="-56.5" font-family="Helvetica,sans-Serif" font-size="10.00">RadEdit</text>
</a>
</g>
</g>
<!-- Node1&#45;&gt;Node4 -->
<g id="edge3" class="edge">
<title>Node1&#45;&gt;Node4</title>
<path fill="none" stroke="midnightblue" d="M50.14,-82.57C57.73,-81.33 66.6,-79.88 75.96,-78.36"/>
<polygon fill="midnightblue" stroke="midnightblue" points="76.54,-81.81 85.85,-76.75 75.41,-74.9 76.54,-81.81"/>
</g>
<!-- Node7 -->
<g id="node7" class="node">
<title>Node7</title>
<g id="a_node7"><a xlink:href="wld__vendorModule__mgr_8c.html#aeccad2c21e7abcc134b448eea8dcd72c" target="_top" xlink:title="Load default datamodel configuration of all loaded vendor modules in local namespace.">
<polygon fill="white" stroke="black" points="98,-0.5 98,-30.5 226,-30.5 226,-0.5 98,-0.5"/>
<text text-anchor="start" x="106" y="-18.5" font-family="Helvetica,sans-Serif" font-size="10.00">wld_vendorModuleMgr</text>
<text text-anchor="middle" x="162" y="-7.5" font-family="Helvetica,sans-Serif" font-size="10.00">_loadDefaultsAll</text>
</a>
</g>
</g>
<!-- Node1&#45;&gt;Node7 -->
<g id="edge6" class="edge">
<title>Node1&#45;&gt;Node7</title>
<path fill="none" stroke="midnightblue" d="M35.84,-76.97C47.12,-66.49 66.59,-49.78 86,-39.5 89.44,-37.68 93.03,-35.97 96.71,-34.36"/>
<polygon fill="midnightblue" stroke="midnightblue" points="98.05,-37.6 105.99,-30.59 95.41,-31.12 98.05,-37.6"/>
</g>
<!-- Node5 -->
<g id="node5" class="node">
<title>Node5</title>
<g id="a_node5"><a xlink:href="wld__util_8c.html#a661cdf0ccc273192d3c1ff05be929a74" target="_top" xlink:title=" ">
<polygon fill="white" stroke="black" points="285.5,-74 285.5,-93 401.5,-93 401.5,-74 285.5,-74"/>
<text text-anchor="middle" x="343.5" y="-81" font-family="Helvetica,sans-Serif" font-size="10.00">areBitsSetLongArray</text>
</a>
</g>
</g>
<!-- Node4&#45;&gt;Node5 -->
<g id="edge4" class="edge">
<title>Node4&#45;&gt;Node5</title>
<path fill="none" stroke="midnightblue" d="M238.08,-72.45C250.47,-73.76 263.23,-75.11 275.41,-76.4"/>
<polygon fill="midnightblue" stroke="midnightblue" points="275.16,-79.89 285.47,-77.46 275.89,-72.93 275.16,-79.89"/>
</g>
<!-- Node6 -->
<g id="node6" class="node">
<title>Node6</title>
<g id="a_node6"><a xlink:href="wld__autoCommitMgr_8c.html#acab57ef23b64ab88021260d7c900c4d2" target="_top" xlink:title=" ">
<polygon fill="white" stroke="black" points="274,-36 274,-55 413,-55 413,-36 274,-36"/>
<text text-anchor="middle" x="343.5" y="-43" font-family="Helvetica,sans-Serif" font-size="10.00">s_startRadioAutoCommit</text>
</a>
</g>
</g>
<!-- Node4&#45;&gt;Node6 -->
<g id="edge5" class="edge">
<title>Node4&#45;&gt;Node6</title>
<path fill="none" stroke="midnightblue" d="M238.08,-56.55C246.48,-55.66 255.06,-54.76 263.51,-53.86"/>
<polygon fill="midnightblue" stroke="midnightblue" points="264.15,-57.31 273.73,-52.78 263.42,-50.35 264.15,-57.31"/>
</g>
</g>
</svg>
