<?xml version="1.0" encoding="UTF-8" standalone="no"?>
<!DOCTYPE svg PUBLIC "-//W3C//DTD SVG 1.1//EN"
 "http://www.w3.org/Graphics/SVG/1.1/DTD/svg11.dtd">
<!-- Generated by graphviz version 2.43.0 (0)
 -->
<!-- Title: _wld_rad_getSupportedFrequencyBands_prf Pages: 1 -->
<svg width="614pt" height="85pt"
 viewBox="0.00 0.00 614.00 85.00" xmlns="http://www.w3.org/2000/svg" xmlns:xlink="http://www.w3.org/1999/xlink">
<g id="graph0" class="graph" transform="scale(1 1) rotate(0) translate(4 81)">
<title>_wld_rad_getSupportedFrequencyBands_prf</title>
<polygon fill="white" stroke="transparent" points="-4,4 -4,-81 610,-81 610,4 -4,4"/>
<!-- Node1 -->
<g id="node1" class="node">
<title>Node1</title>
<g id="a_node1"><a xlink:title=" ">
<polygon fill="#bfbfbf" stroke="black" points="0,-33 0,-63 181,-63 181,-33 0,-33"/>
<text text-anchor="start" x="8" y="-51" font-family="Helvetica,sans-Serif" font-size="10.00">_wld_rad_getSupportedFrequency</text>
<text text-anchor="middle" x="90.5" y="-40" font-family="Helvetica,sans-Serif" font-size="10.00">Bands_prf</text>
</a>
</g>
</g>
<!-- Node2 -->
<g id="node2" class="node">
<title>Node2</title>
<g id="a_node2"><a xlink:href="wld_8c.html#ae07ed61a8868443e7968fa11de8d3b76" target="_top" xlink:title=" ">
<polygon fill="white" stroke="black" points="217,-57.5 217,-76.5 336,-76.5 336,-57.5 217,-57.5"/>
<text text-anchor="middle" x="276.5" y="-64.5" font-family="Helvetica,sans-Serif" font-size="10.00">wld_getVendorParam</text>
</a>
</g>
</g>
<!-- Node1&#45;&gt;Node2 -->
<g id="edge1" class="edge">
<title>Node1&#45;&gt;Node2</title>
<path fill="none" stroke="midnightblue" d="M181.07,-57.25C189.72,-58.14 198.39,-59.04 206.78,-59.9"/>
<polygon fill="midnightblue" stroke="midnightblue" points="206.55,-63.4 216.86,-60.94 207.27,-56.44 206.55,-63.4"/>
</g>
<!-- Node3 -->
<g id="node3" class="node">
<title>Node3</title>
<g id="a_node3"><a xlink:href="wld__radio_8c.html#a5bc526661be71f2eb0810b099efe607d" target="_top" xlink:title=" ">
<polygon fill="white" stroke="black" points="226.5,-19.5 226.5,-38.5 326.5,-38.5 326.5,-19.5 226.5,-19.5"/>
<text text-anchor="middle" x="276.5" y="-26.5" font-family="Helvetica,sans-Serif" font-size="10.00">wld_rad_fromObj</text>
</a>
</g>
</g>
<!-- Node1&#45;&gt;Node3 -->
<g id="edge2" class="edge">
<title>Node1&#45;&gt;Node3</title>
<path fill="none" stroke="midnightblue" d="M181.07,-38.75C192.97,-37.52 204.92,-36.29 216.13,-35.13"/>
<polygon fill="midnightblue" stroke="midnightblue" points="216.6,-38.6 226.19,-34.09 215.88,-31.64 216.6,-38.6"/>
</g>
<!-- Node4 -->
<g id="node4" class="node">
<title>Node4</title>
<g id="a_node4"><a xlink:href="wld__util_8c.html#a18c61fa964e131e3008ec440b72b61c8" target="_top" xlink:title=" ">
<polygon fill="white" stroke="black" points="372,-38.5 372,-57.5 480,-57.5 480,-38.5 372,-38.5"/>
<text text-anchor="middle" x="426" y="-45.5" font-family="Helvetica,sans-Serif" font-size="10.00">debugIsRadPointer</text>
</a>
</g>
</g>
<!-- Node3&#45;&gt;Node4 -->
<g id="edge3" class="edge">
<title>Node3&#45;&gt;Node4</title>
<path fill="none" stroke="midnightblue" d="M326.62,-35.33C337.83,-36.77 349.9,-38.33 361.62,-39.84"/>
<polygon fill="midnightblue" stroke="midnightblue" points="361.42,-43.34 371.79,-41.15 362.32,-36.4 361.42,-43.34"/>
</g>
<!-- Node5 -->
<g id="node5" class="node">
<title>Node5</title>
<g id="a_node5"><a xlink:href="wld__radio_8c.html#a7cad1ba5d4b5338e778c1ae67b58874f" target="_top" xlink:title=" ">
<polygon fill="white" stroke="black" points="374,-0.5 374,-19.5 478,-19.5 478,-0.5 374,-0.5"/>
<text text-anchor="middle" x="426" y="-7.5" font-family="Helvetica,sans-Serif" font-size="10.00">wld_rad_isRadObj</text>
</a>
</g>
</g>
<!-- Node3&#45;&gt;Node5 -->
<g id="edge4" class="edge">
<title>Node3&#45;&gt;Node5</title>
<path fill="none" stroke="midnightblue" d="M326.62,-22.67C338.47,-21.15 351.28,-19.5 363.61,-17.91"/>
<polygon fill="midnightblue" stroke="midnightblue" points="364.36,-21.34 373.83,-16.59 363.46,-14.4 364.36,-21.34"/>
</g>
<!-- Node6 -->
<g id="node6" class="node">
<title>Node6</title>
<g id="a_node6"><a xlink:href="wld_8c.html#a86eb0dd5db7f6f4c724e09f6d1b831d8" target="_top" xlink:title=" ">
<polygon fill="white" stroke="black" points="516,-0.5 516,-19.5 606,-19.5 606,-0.5 516,-0.5"/>
<text text-anchor="middle" x="561" y="-7.5" font-family="Helvetica,sans-Serif" font-size="10.00">get_wld_object</text>
</a>
</g>
</g>
<!-- Node5&#45;&gt;Node6 -->
<g id="edge5" class="edge">
<title>Node5&#45;&gt;Node6</title>
<path fill="none" stroke="midnightblue" d="M478.04,-10C487.09,-10 496.54,-10 505.68,-10"/>
<polygon fill="midnightblue" stroke="midnightblue" points="505.82,-13.5 515.82,-10 505.82,-6.5 505.82,-13.5"/>
</g>
</g>
</svg>
