<?xml version="1.0" encoding="UTF-8" standalone="no"?>
<!DOCTYPE svg PUBLIC "-//W3C//DTD SVG 1.1//EN"
 "http://www.w3.org/Graphics/SVG/1.1/DTD/svg11.dtd">
<!-- Generated by graphviz version 2.43.0 (0)
 -->
<!-- Title: include/wld/wld_rad_nl80211.h Pages: 1 -->
<svg width="1652pt" height="106pt"
 viewBox="0.00 0.00 1651.50 106.00" xmlns="http://www.w3.org/2000/svg" xmlns:xlink="http://www.w3.org/1999/xlink">
<g id="graph0" class="graph" transform="scale(1 1) rotate(0) translate(4 102)">
<title>include/wld/wld_rad_nl80211.h</title>
<polygon fill="white" stroke="transparent" points="-4,4 -4,-102 1647.5,-102 1647.5,4 -4,4"/>
<!-- Node1 -->
<g id="node1" class="node">
<title>Node1</title>
<g id="a_node1"><a xlink:title=" ">
<polygon fill="#bfbfbf" stroke="black" points="761.5,-67.5 761.5,-97.5 874.5,-97.5 874.5,-67.5 761.5,-67.5"/>
<text text-anchor="start" x="769.5" y="-85.5" font-family="Helvetica,sans-Serif" font-size="10.00">include/wld/wld_rad</text>
<text text-anchor="middle" x="818" y="-74.5" font-family="Helvetica,sans-Serif" font-size="10.00">_nl80211.h</text>
</a>
</g>
</g>
<!-- Node2 -->
<g id="node2" class="node">
<title>Node2</title>
<g id="a_node2"><a xlink:href="wifiGen_8c.html" target="_top" xlink:title=" ">
<polygon fill="white" stroke="black" points="0,-6 0,-25 112,-25 112,-6 0,-6"/>
<text text-anchor="middle" x="56" y="-13" font-family="Helvetica,sans-Serif" font-size="10.00">src/Plugin/wifiGen.c</text>
</a>
</g>
</g>
<!-- Node1&#45;&gt;Node2 -->
<g id="edge1" class="edge">
<title>Node1&#45;&gt;Node2</title>
<path fill="none" stroke="midnightblue" d="M751.08,-79.92C626.48,-76.26 350.71,-64.76 121,-31 110.82,-29.5 99.86,-27.3 89.9,-25.05"/>
<polygon fill="midnightblue" stroke="midnightblue" points="751.13,-83.43 761.23,-80.21 751.33,-76.43 751.13,-83.43"/>
</g>
<!-- Node3 -->
<g id="node3" class="node">
<title>Node3</title>
<g id="a_node3"><a xlink:href="wifiGen__ep_8c.html" target="_top" xlink:title=" ">
<polygon fill="white" stroke="black" points="130.5,-6 130.5,-25 259.5,-25 259.5,-6 130.5,-6"/>
<text text-anchor="middle" x="195" y="-13" font-family="Helvetica,sans-Serif" font-size="10.00">src/Plugin/wifiGen_ep.c</text>
</a>
</g>
</g>
<!-- Node1&#45;&gt;Node3 -->
<g id="edge2" class="edge">
<title>Node1&#45;&gt;Node3</title>
<path fill="none" stroke="midnightblue" d="M751.26,-77.56C647.67,-70.95 442.06,-55.85 269,-31 257.86,-29.4 245.85,-27.24 234.81,-25.07"/>
<polygon fill="midnightblue" stroke="midnightblue" points="751.07,-81.05 761.27,-78.19 751.51,-74.07 751.07,-81.05"/>
</g>
<!-- Node4 -->
<g id="node4" class="node">
<title>Node4</title>
<g id="a_node4"><a xlink:href="wifiGen__eventHandlers_8c.html" target="_top" xlink:title=" ">
<polygon fill="white" stroke="black" points="278,-0.5 278,-30.5 382,-30.5 382,-0.5 278,-0.5"/>
<text text-anchor="start" x="286" y="-18.5" font-family="Helvetica,sans-Serif" font-size="10.00">src/Plugin/wifiGen</text>
<text text-anchor="middle" x="330" y="-7.5" font-family="Helvetica,sans-Serif" font-size="10.00">_eventHandlers.c</text>
</a>
</g>
</g>
<!-- Node1&#45;&gt;Node4 -->
<g id="edge3" class="edge">
<title>Node1&#45;&gt;Node4</title>
<path fill="none" stroke="midnightblue" d="M751.19,-76.01C666.85,-68.52 517.48,-53.43 391,-31 388.11,-30.49 385.14,-29.92 382.16,-29.32"/>
<polygon fill="midnightblue" stroke="midnightblue" points="751.13,-79.52 761.4,-76.91 751.74,-72.54 751.13,-79.52"/>
</g>
<!-- Node5 -->
<g id="node5" class="node">
<title>Node5</title>
<g id="a_node5"><a xlink:href="wifiGen__fsm_8c.html" target="_top" xlink:title=" ">
<polygon fill="white" stroke="black" points="400,-0.5 400,-30.5 504,-30.5 504,-0.5 400,-0.5"/>
<text text-anchor="start" x="408" y="-18.5" font-family="Helvetica,sans-Serif" font-size="10.00">src/Plugin/wifiGen</text>
<text text-anchor="middle" x="452" y="-7.5" font-family="Helvetica,sans-Serif" font-size="10.00">_fsm.c</text>
</a>
</g>
</g>
<!-- Node1&#45;&gt;Node5 -->
<g id="edge4" class="edge">
<title>Node1&#45;&gt;Node5</title>
<path fill="none" stroke="midnightblue" d="M751.26,-71.81C689.3,-62.49 594.62,-47.44 513,-31 510.12,-30.42 507.17,-29.8 504.19,-29.16"/>
<polygon fill="midnightblue" stroke="midnightblue" points="750.88,-75.29 761.29,-73.31 751.92,-68.37 750.88,-75.29"/>
</g>
<!-- Node6 -->
<g id="node6" class="node">
<title>Node6</title>
<g id="a_node6"><a xlink:href="wifiGen__hapd_8c.html" target="_top" xlink:title=" ">
<polygon fill="white" stroke="black" points="522,-0.5 522,-30.5 626,-30.5 626,-0.5 522,-0.5"/>
<text text-anchor="start" x="530" y="-18.5" font-family="Helvetica,sans-Serif" font-size="10.00">src/Plugin/wifiGen</text>
<text text-anchor="middle" x="574" y="-7.5" font-family="Helvetica,sans-Serif" font-size="10.00">_hapd.c</text>
</a>
</g>
</g>
<!-- Node1&#45;&gt;Node6 -->
<g id="edge5" class="edge">
<title>Node1&#45;&gt;Node6</title>
<path fill="none" stroke="midnightblue" d="M755.68,-64.9C715.58,-54.22 664.06,-40.49 626.13,-30.39"/>
<polygon fill="midnightblue" stroke="midnightblue" points="754.79,-68.28 765.36,-67.48 756.59,-61.52 754.79,-68.28"/>
</g>
<!-- Node7 -->
<g id="node7" class="node">
<title>Node7</title>
<g id="a_node7"><a xlink:href="wifiGen__rad_8c.html" target="_top" xlink:title=" ">
<polygon fill="white" stroke="black" points="644,-0.5 644,-30.5 748,-30.5 748,-0.5 644,-0.5"/>
<text text-anchor="start" x="652" y="-18.5" font-family="Helvetica,sans-Serif" font-size="10.00">src/Plugin/wifiGen</text>
<text text-anchor="middle" x="696" y="-7.5" font-family="Helvetica,sans-Serif" font-size="10.00">_rad.c</text>
</a>
</g>
</g>
<!-- Node1&#45;&gt;Node7 -->
<g id="edge6" class="edge">
<title>Node1&#45;&gt;Node7</title>
<path fill="none" stroke="midnightblue" d="M782.48,-62.57C763.29,-52.35 740,-39.94 722.42,-30.58"/>
<polygon fill="midnightblue" stroke="midnightblue" points="781.06,-65.78 791.53,-67.4 784.35,-59.6 781.06,-65.78"/>
</g>
<!-- Node8 -->
<g id="node8" class="node">
<title>Node8</title>
<g id="a_node8"><a xlink:href="wifiGen__radIfMgt_8c.html" target="_top" xlink:title=" ">
<polygon fill="white" stroke="black" points="766,-0.5 766,-30.5 870,-30.5 870,-0.5 766,-0.5"/>
<text text-anchor="start" x="774" y="-18.5" font-family="Helvetica,sans-Serif" font-size="10.00">src/Plugin/wifiGen</text>
<text text-anchor="middle" x="818" y="-7.5" font-family="Helvetica,sans-Serif" font-size="10.00">_radIfMgt.c</text>
</a>
</g>
</g>
<!-- Node1&#45;&gt;Node8 -->
<g id="edge7" class="edge">
<title>Node1&#45;&gt;Node8</title>
<path fill="none" stroke="midnightblue" d="M818,-57.11C818,-48.15 818,-38.32 818,-30.58"/>
<polygon fill="midnightblue" stroke="midnightblue" points="814.5,-57.4 818,-67.4 821.5,-57.4 814.5,-57.4"/>
</g>
<!-- Node9 -->
<g id="node9" class="node">
<title>Node9</title>
<g id="a_node9"><a xlink:href="wifiGen__vap_8c.html" target="_top" xlink:title=" ">
<polygon fill="white" stroke="black" points="888,-0.5 888,-30.5 992,-30.5 992,-0.5 888,-0.5"/>
<text text-anchor="start" x="896" y="-18.5" font-family="Helvetica,sans-Serif" font-size="10.00">src/Plugin/wifiGen</text>
<text text-anchor="middle" x="940" y="-7.5" font-family="Helvetica,sans-Serif" font-size="10.00">_vap.c</text>
</a>
</g>
</g>
<!-- Node1&#45;&gt;Node9 -->
<g id="edge8" class="edge">
<title>Node1&#45;&gt;Node9</title>
<path fill="none" stroke="midnightblue" d="M853.52,-62.57C872.71,-52.35 896,-39.94 913.58,-30.58"/>
<polygon fill="midnightblue" stroke="midnightblue" points="851.65,-59.6 844.47,-67.4 854.94,-65.78 851.65,-59.6"/>
</g>
<!-- Node10 -->
<g id="node10" class="node">
<title>Node10</title>
<g id="a_node10"><a xlink:href="wld__ep__nl80211_8c.html" target="_top" xlink:title=" ">
<polygon fill="white" stroke="black" points="1010,-0.5 1010,-30.5 1120,-30.5 1120,-0.5 1010,-0.5"/>
<text text-anchor="start" x="1018" y="-18.5" font-family="Helvetica,sans-Serif" font-size="10.00">src/nl80211/wld_ep</text>
<text text-anchor="middle" x="1065" y="-7.5" font-family="Helvetica,sans-Serif" font-size="10.00">_nl80211.c</text>
</a>
</g>
</g>
<!-- Node1&#45;&gt;Node10 -->
<g id="edge9" class="edge">
<title>Node1&#45;&gt;Node10</title>
<path fill="none" stroke="midnightblue" d="M881.01,-64.92C921.32,-54.31 973.04,-40.7 1011.38,-30.61"/>
<polygon fill="midnightblue" stroke="midnightblue" points="880.07,-61.55 871.29,-67.48 881.85,-68.32 880.07,-61.55"/>
</g>
<!-- Node11 -->
<g id="node11" class="node">
<title>Node11</title>
<g id="a_node11"><a xlink:href="wld__nl80211__scan_8c.html" target="_top" xlink:title=" ">
<polygon fill="white" stroke="black" points="1138.5,-0.5 1138.5,-30.5 1275.5,-30.5 1275.5,-0.5 1138.5,-0.5"/>
<text text-anchor="start" x="1146.5" y="-18.5" font-family="Helvetica,sans-Serif" font-size="10.00">src/nl80211/wld_nl80211</text>
<text text-anchor="middle" x="1207" y="-7.5" font-family="Helvetica,sans-Serif" font-size="10.00">_scan.c</text>
</a>
</g>
</g>
<!-- Node1&#45;&gt;Node11 -->
<g id="edge10" class="edge">
<title>Node1&#45;&gt;Node11</title>
<path fill="none" stroke="midnightblue" d="M884.73,-71.12C947.76,-61.2 1044.9,-45.64 1129,-31 1131.99,-30.48 1135.03,-29.94 1138.11,-29.39"/>
<polygon fill="midnightblue" stroke="midnightblue" points="883.87,-67.71 874.53,-72.72 884.95,-74.62 883.87,-67.71"/>
</g>
<!-- Node12 -->
<g id="node12" class="node">
<title>Node12</title>
<g id="a_node12"><a xlink:href="wld__rad__nl80211_8c.html" target="_top" xlink:title=" ">
<polygon fill="white" stroke="black" points="1294,-0.5 1294,-30.5 1408,-30.5 1408,-0.5 1294,-0.5"/>
<text text-anchor="start" x="1302" y="-18.5" font-family="Helvetica,sans-Serif" font-size="10.00">src/nl80211/wld_rad</text>
<text text-anchor="middle" x="1351" y="-7.5" font-family="Helvetica,sans-Serif" font-size="10.00">_nl80211.c</text>
</a>
</g>
</g>
<!-- Node1&#45;&gt;Node12 -->
<g id="edge11" class="edge">
<title>Node1&#45;&gt;Node12</title>
<path fill="none" stroke="midnightblue" d="M884.86,-76.57C975.8,-69.33 1143.38,-54.14 1285,-31 1287.89,-30.53 1290.85,-30.01 1293.84,-29.46"/>
<polygon fill="midnightblue" stroke="midnightblue" points="884.39,-73.09 874.7,-77.37 884.94,-80.07 884.39,-73.09"/>
</g>
<!-- Node13 -->
<g id="node13" class="node">
<title>Node13</title>
<g id="a_node13"><a xlink:href="wld__assocdev_8c.html" target="_top" xlink:title=" ">
<polygon fill="white" stroke="black" points="1426,-6 1426,-25 1536,-25 1536,-6 1426,-6"/>
<text text-anchor="middle" x="1481" y="-13" font-family="Helvetica,sans-Serif" font-size="10.00">src/wld_assocdev.c</text>
</a>
</g>
</g>
<!-- Node1&#45;&gt;Node13 -->
<g id="edge12" class="edge">
<title>Node1&#45;&gt;Node13</title>
<path fill="none" stroke="midnightblue" d="M884.94,-78.89C996.02,-73.88 1225.22,-60.66 1417,-31 1426.91,-29.47 1437.57,-27.28 1447.29,-25.06"/>
<polygon fill="midnightblue" stroke="midnightblue" points="884.72,-75.39 874.88,-79.33 885.03,-82.39 884.72,-75.39"/>
</g>
<!-- Node14 -->
<g id="node14" class="node">
<title>Node14</title>
<g id="a_node14"><a xlink:href="wld__radio_8c.html" target="_top" xlink:title=" ">
<polygon fill="white" stroke="black" points="1554.5,-6 1554.5,-25 1643.5,-25 1643.5,-6 1554.5,-6"/>
<text text-anchor="middle" x="1599" y="-13" font-family="Helvetica,sans-Serif" font-size="10.00">src/wld_radio.c</text>
</a>
</g>
</g>
<!-- Node1&#45;&gt;Node14 -->
<g id="edge13" class="edge">
<title>Node1&#45;&gt;Node14</title>
<path fill="none" stroke="midnightblue" d="M884.61,-81.15C1013.19,-79.55 1304.14,-71.31 1545,-31 1553.62,-29.56 1562.85,-27.34 1571.2,-25.06"/>
<polygon fill="midnightblue" stroke="midnightblue" points="884.49,-77.66 874.53,-81.27 884.57,-84.66 884.49,-77.66"/>
</g>
</g>
</svg>
