<?xml version="1.0" encoding="UTF-8" standalone="no"?>
<!DOCTYPE svg PUBLIC "-//W3C//DTD SVG 1.1//EN"
 "http://www.w3.org/Graphics/SVG/1.1/DTD/svg11.dtd">
<!-- Generated by graphviz version 2.43.0 (0)
 -->
<!-- Title: wld_rad_hostapd_getCfgParamStr Pages: 1 -->
<svg width="573pt" height="116pt"
 viewBox="0.00 0.00 573.00 116.00" xmlns="http://www.w3.org/2000/svg" xmlns:xlink="http://www.w3.org/1999/xlink">
<g id="graph0" class="graph" transform="scale(1 1) rotate(0) translate(4 112)">
<title>wld_rad_hostapd_getCfgParamStr</title>
<polygon fill="white" stroke="transparent" points="-4,4 -4,-112 569,-112 569,4 -4,4"/>
<!-- Node1 -->
<g id="node1" class="node">
<title>Node1</title>
<g id="a_node1"><a xlink:title=" ">
<polygon fill="#bfbfbf" stroke="black" points="0,-44.5 0,-63.5 181,-63.5 181,-44.5 0,-44.5"/>
<text text-anchor="middle" x="90.5" y="-51.5" font-family="Helvetica,sans-Serif" font-size="10.00">wld_rad_hostapd_getCfgParamStr</text>
</a>
</g>
</g>
<!-- Node2 -->
<g id="node2" class="node">
<title>Node2</title>
<g id="a_node2"><a xlink:href="wld__hostapd__cfgManager_8c.html#abcd4b96a1191c1c593ab53f9d419e740" target="_top" xlink:title="delete a wld_hostapd_config_t map already loaded from hostapd file">
<polygon fill="white" stroke="black" points="225,-88.5 225,-107.5 370,-107.5 370,-88.5 225,-88.5"/>
<text text-anchor="middle" x="297.5" y="-95.5" font-family="Helvetica,sans-Serif" font-size="10.00">wld_hostapd_deleteConfig</text>
</a>
</g>
</g>
<!-- Node1&#45;&gt;Node2 -->
<g id="edge1" class="edge">
<title>Node1&#45;&gt;Node2</title>
<path fill="none" stroke="midnightblue" d="M135.98,-63.55C167.14,-70.24 208.97,-79.21 242.12,-86.33"/>
<polygon fill="midnightblue" stroke="midnightblue" points="241.59,-89.79 252.1,-88.47 243.06,-82.95 241.59,-89.79"/>
</g>
<!-- Node3 -->
<g id="node3" class="node">
<title>Node3</title>
<g id="a_node3"><a xlink:href="wld__hostapd__cfgManager_8c.html#af7827e8223cd8d13fc11d3a520f71660" target="_top" xlink:title=" ">
<polygon fill="white" stroke="black" points="217,-39 217,-69 378,-69 378,-39 217,-39"/>
<text text-anchor="start" x="225" y="-57" font-family="Helvetica,sans-Serif" font-size="10.00">wld_hostapd_getConfigParam</text>
<text text-anchor="middle" x="297.5" y="-46" font-family="Helvetica,sans-Serif" font-size="10.00">ValStr</text>
</a>
</g>
</g>
<!-- Node1&#45;&gt;Node3 -->
<g id="edge2" class="edge">
<title>Node1&#45;&gt;Node3</title>
<path fill="none" stroke="midnightblue" d="M181.12,-54C189.54,-54 198.09,-54 206.52,-54"/>
<polygon fill="midnightblue" stroke="midnightblue" points="206.72,-57.5 216.72,-54 206.72,-50.5 206.72,-57.5"/>
</g>
<!-- Node5 -->
<g id="node5" class="node">
<title>Node5</title>
<g id="a_node5"><a xlink:href="wld__hostapd__cfgManager_8c.html#ad15aa07c202c5ff5f3a78dc1297429f5" target="_top" xlink:title="load the hostapd configuration from hostpad config file into wld_hostapd_config_t structure">
<polygon fill="white" stroke="black" points="230,-0.5 230,-19.5 365,-19.5 365,-0.5 230,-0.5"/>
<text text-anchor="middle" x="297.5" y="-7.5" font-family="Helvetica,sans-Serif" font-size="10.00">wld_hostapd_loadConfig</text>
</a>
</g>
</g>
<!-- Node1&#45;&gt;Node5 -->
<g id="edge4" class="edge">
<title>Node1&#45;&gt;Node5</title>
<path fill="none" stroke="midnightblue" d="M135.98,-44.45C167.14,-37.76 208.97,-28.79 242.12,-21.67"/>
<polygon fill="midnightblue" stroke="midnightblue" points="243.06,-25.05 252.1,-19.53 241.59,-18.21 243.06,-25.05"/>
</g>
<!-- Node4 -->
<g id="node4" class="node">
<title>Node4</title>
<g id="a_node4"><a xlink:href="wld__hostapd__cfgManager_8c.html#a0a1bb10a455c35606f794a85a9e5964a" target="_top" xlink:title="get the general/vap config map">
<polygon fill="white" stroke="black" points="414,-44.5 414,-63.5 565,-63.5 565,-44.5 414,-44.5"/>
<text text-anchor="middle" x="489.5" y="-51.5" font-family="Helvetica,sans-Serif" font-size="10.00">wld_hostapd_getConfigMap</text>
</a>
</g>
</g>
<!-- Node3&#45;&gt;Node4 -->
<g id="edge3" class="edge">
<title>Node3&#45;&gt;Node4</title>
<path fill="none" stroke="midnightblue" d="M378.25,-54C386.63,-54 395.16,-54 403.59,-54"/>
<polygon fill="midnightblue" stroke="midnightblue" points="403.81,-57.5 413.81,-54 403.81,-50.5 403.81,-57.5"/>
</g>
</g>
</svg>
