<?xml version="1.0" encoding="UTF-8" standalone="no"?>
<!DOCTYPE svg PUBLIC "-//W3C//DTD SVG 1.1//EN"
 "http://www.w3.org/Graphics/SVG/1.1/DTD/svg11.dtd">
<!-- Generated by graphviz version 2.43.0 (0)
 -->
<!-- Title: src/Utils/wld_linuxIfStats.c Pages: 1 -->
<svg width="4197pt" height="308pt"
 viewBox="0.00 0.00 4197.00 308.00" xmlns="http://www.w3.org/2000/svg" xmlns:xlink="http://www.w3.org/1999/xlink">
<g id="graph0" class="graph" transform="scale(1 1) rotate(0) translate(4 304)">
<title>src/Utils/wld_linuxIfStats.c</title>
<polygon fill="white" stroke="transparent" points="-4,4 -4,-304 4193,-304 4193,4 -4,4"/>
<!-- Node1 -->
<g id="node1" class="node">
<title>Node1</title>
<g id="a_node1"><a xlink:title=" ">
<polygon fill="#bfbfbf" stroke="black" points="2646.5,-280.5 2646.5,-299.5 2792.5,-299.5 2792.5,-280.5 2646.5,-280.5"/>
<text text-anchor="middle" x="2719.5" y="-287.5" font-family="Helvetica,sans-Serif" font-size="10.00">src/Utils/wld_linuxIfStats.c</text>
</a>
</g>
</g>
<!-- Node2 -->
<g id="node2" class="node">
<title>Node2</title>
<g id="a_node2"><a xlink:href="wld__linuxIfStats_8h.html" target="_top" xlink:title=" ">
<polygon fill="white" stroke="black" points="2250.5,-168.5 2250.5,-187.5 2354.5,-187.5 2354.5,-168.5 2250.5,-168.5"/>
<text text-anchor="middle" x="2302.5" y="-175.5" font-family="Helvetica,sans-Serif" font-size="10.00">wld_linuxIfStats.h</text>
</a>
</g>
</g>
<!-- Node1&#45;&gt;Node2 -->
<g id="edge1" class="edge">
<title>Node1&#45;&gt;Node2</title>
<path fill="none" stroke="midnightblue" d="M2646.46,-281.75C2591.72,-275.12 2515.39,-263.35 2450.5,-244 2405.56,-230.6 2356.23,-207 2327.38,-192.22"/>
<polygon fill="midnightblue" stroke="midnightblue" points="2328.91,-189.07 2318.43,-187.58 2325.69,-195.29 2328.91,-189.07"/>
</g>
<!-- Node49 -->
<g id="node36" class="node">
<title>Node49</title>
<g id="a_node36"><a xlink:title=" ">
<polygon fill="white" stroke="#bfbfbf" points="4092,-56.5 4092,-75.5 4189,-75.5 4189,-56.5 4092,-56.5"/>
<text text-anchor="middle" x="4140.5" y="-63.5" font-family="Helvetica,sans-Serif" font-size="10.00">swl/swl_assert.h</text>
</a>
</g>
</g>
<!-- Node1&#45;&gt;Node49 -->
<g id="edge43" class="edge">
<title>Node1&#45;&gt;Node49</title>
<path fill="none" stroke="midnightblue" d="M2646.41,-285.02C2584.95,-279.97 2503.94,-268.71 2483.5,-244 2477.83,-237.15 2477.51,-230.57 2483.5,-224 2601.79,-94.26 3863.42,-97.99 4081.57,-76.05"/>
<polygon fill="midnightblue" stroke="midnightblue" points="4082.16,-79.5 4091.71,-74.91 4081.38,-72.55 4082.16,-79.5"/>
</g>
<!-- Node76 -->
<g id="node38" class="node">
<title>Node76</title>
<g id="a_node38"><a xlink:href="wld__radio_8h.html" target="_top" xlink:title=" ">
<polygon fill="white" stroke="black" points="2082,-224.5 2082,-243.5 2155,-243.5 2155,-224.5 2082,-224.5"/>
<text text-anchor="middle" x="2118.5" y="-231.5" font-family="Helvetica,sans-Serif" font-size="10.00">wld_radio.h</text>
</a>
</g>
</g>
<!-- Node1&#45;&gt;Node76 -->
<g id="edge44" class="edge">
<title>Node1&#45;&gt;Node76</title>
<path fill="none" stroke="midnightblue" d="M2646.41,-282.43C2521.35,-271.2 2269.74,-248.59 2165.45,-239.22"/>
<polygon fill="midnightblue" stroke="midnightblue" points="2165.51,-235.71 2155.23,-238.3 2164.88,-242.68 2165.51,-235.71"/>
</g>
<!-- Node83 -->
<g id="node43" class="node">
<title>Node83</title>
<g id="a_node43"><a xlink:title=" ">
<polygon fill="white" stroke="#bfbfbf" points="2493,-224.5 2493,-243.5 2594,-243.5 2594,-224.5 2493,-224.5"/>
<text text-anchor="middle" x="2543.5" y="-231.5" font-family="Helvetica,sans-Serif" font-size="10.00">debug/sahtrace.h</text>
</a>
</g>
</g>
<!-- Node1&#45;&gt;Node83 -->
<g id="edge57" class="edge">
<title>Node1&#45;&gt;Node83</title>
<path fill="none" stroke="midnightblue" d="M2691.61,-280.44C2661.75,-271.28 2614.19,-256.69 2581.04,-246.52"/>
<polygon fill="midnightblue" stroke="midnightblue" points="2581.84,-243.1 2571.26,-243.52 2579.79,-249.8 2581.84,-243.1"/>
</g>
<!-- Node84 -->
<g id="node44" class="node">
<title>Node84</title>
<g id="a_node44"><a xlink:title=" ">
<polygon fill="white" stroke="#bfbfbf" points="2612,-224.5 2612,-243.5 2665,-243.5 2665,-224.5 2612,-224.5"/>
<text text-anchor="middle" x="2638.5" y="-231.5" font-family="Helvetica,sans-Serif" font-size="10.00">string.h</text>
</a>
</g>
</g>
<!-- Node1&#45;&gt;Node84 -->
<g id="edge58" class="edge">
<title>Node1&#45;&gt;Node84</title>
<path fill="none" stroke="midnightblue" d="M2706.49,-280.32C2693.97,-271.98 2674.82,-259.21 2660.03,-249.35"/>
<polygon fill="midnightblue" stroke="midnightblue" points="2661.74,-246.29 2651.48,-243.65 2657.86,-252.11 2661.74,-246.29"/>
</g>
<!-- Node85 -->
<g id="node45" class="node">
<title>Node85</title>
<g id="a_node45"><a xlink:title=" ">
<polygon fill="white" stroke="#bfbfbf" points="2683.5,-224.5 2683.5,-243.5 2755.5,-243.5 2755.5,-224.5 2683.5,-224.5"/>
<text text-anchor="middle" x="2719.5" y="-231.5" font-family="Helvetica,sans-Serif" font-size="10.00">sys/types.h</text>
</a>
</g>
</g>
<!-- Node1&#45;&gt;Node85 -->
<g id="edge59" class="edge">
<title>Node1&#45;&gt;Node85</title>
<path fill="none" stroke="midnightblue" d="M2719.5,-280.08C2719.5,-273.01 2719.5,-262.86 2719.5,-253.99"/>
<polygon fill="midnightblue" stroke="midnightblue" points="2723,-253.75 2719.5,-243.75 2716,-253.75 2723,-253.75"/>
</g>
<!-- Node86 -->
<g id="node46" class="node">
<title>Node86</title>
<g id="a_node46"><a xlink:title=" ">
<polygon fill="white" stroke="#bfbfbf" points="2774,-224.5 2774,-243.5 2851,-243.5 2851,-224.5 2774,-224.5"/>
<text text-anchor="middle" x="2812.5" y="-231.5" font-family="Helvetica,sans-Serif" font-size="10.00">sys/socket.h</text>
</a>
</g>
</g>
<!-- Node1&#45;&gt;Node86 -->
<g id="edge60" class="edge">
<title>Node1&#45;&gt;Node86</title>
<path fill="none" stroke="midnightblue" d="M2734.44,-280.32C2749.09,-271.82 2771.63,-258.73 2788.74,-248.8"/>
<polygon fill="midnightblue" stroke="midnightblue" points="2790.7,-251.7 2797.6,-243.65 2787.19,-245.65 2790.7,-251.7"/>
</g>
<!-- Node87 -->
<g id="node47" class="node">
<title>Node87</title>
<g id="a_node47"><a xlink:title=" ">
<polygon fill="white" stroke="#bfbfbf" points="2869.5,-224.5 2869.5,-243.5 2953.5,-243.5 2953.5,-224.5 2869.5,-224.5"/>
<text text-anchor="middle" x="2911.5" y="-231.5" font-family="Helvetica,sans-Serif" font-size="10.00">linux/socket.h</text>
</a>
</g>
</g>
<!-- Node1&#45;&gt;Node87 -->
<g id="edge61" class="edge">
<title>Node1&#45;&gt;Node87</title>
<path fill="none" stroke="midnightblue" d="M2749.92,-280.44C2782.78,-271.2 2835.28,-256.44 2871.47,-246.26"/>
<polygon fill="midnightblue" stroke="midnightblue" points="2872.54,-249.59 2881.22,-243.52 2870.65,-242.85 2872.54,-249.59"/>
</g>
<!-- Node88 -->
<g id="node48" class="node">
<title>Node88</title>
<g id="a_node48"><a xlink:title=" ">
<polygon fill="white" stroke="#bfbfbf" points="2971.5,-224.5 2971.5,-243.5 3051.5,-243.5 3051.5,-224.5 2971.5,-224.5"/>
<text text-anchor="middle" x="3011.5" y="-231.5" font-family="Helvetica,sans-Serif" font-size="10.00">linux/types.h</text>
</a>
</g>
</g>
<!-- Node1&#45;&gt;Node88 -->
<g id="edge62" class="edge">
<title>Node1&#45;&gt;Node88</title>
<path fill="none" stroke="midnightblue" d="M2765.77,-280.44C2819.06,-270.59 2906.3,-254.45 2961.23,-244.3"/>
<polygon fill="midnightblue" stroke="midnightblue" points="2961.89,-247.73 2971.09,-242.47 2960.62,-240.85 2961.89,-247.73"/>
</g>
<!-- Node89 -->
<g id="node49" class="node">
<title>Node89</title>
<g id="a_node49"><a xlink:title=" ">
<polygon fill="white" stroke="#bfbfbf" points="3069.5,-224.5 3069.5,-243.5 3155.5,-243.5 3155.5,-224.5 3069.5,-224.5"/>
<text text-anchor="middle" x="3112.5" y="-231.5" font-family="Helvetica,sans-Serif" font-size="10.00">linux/netlink.h</text>
</a>
</g>
</g>
<!-- Node1&#45;&gt;Node89 -->
<g id="edge63" class="edge">
<title>Node1&#45;&gt;Node89</title>
<path fill="none" stroke="midnightblue" d="M2790.48,-280.48C2857.24,-272.27 2960.26,-259.11 3059.21,-244.15"/>
<polygon fill="midnightblue" stroke="midnightblue" points="3060.03,-247.56 3069.39,-242.6 3058.98,-240.64 3060.03,-247.56"/>
</g>
<!-- Node90 -->
<g id="node50" class="node">
<title>Node90</title>
<g id="a_node50"><a xlink:title=" ">
<polygon fill="white" stroke="#bfbfbf" points="3173.5,-224.5 3173.5,-243.5 3267.5,-243.5 3267.5,-224.5 3173.5,-224.5"/>
<text text-anchor="middle" x="3220.5" y="-231.5" font-family="Helvetica,sans-Serif" font-size="10.00">linux/rtnetlink.h</text>
</a>
</g>
</g>
<!-- Node1&#45;&gt;Node90 -->
<g id="edge64" class="edge">
<title>Node1&#45;&gt;Node90</title>
<path fill="none" stroke="midnightblue" d="M2792.88,-282.91C2879.07,-275.45 3026.57,-261.76 3163.24,-244.1"/>
<polygon fill="midnightblue" stroke="midnightblue" points="3164.01,-247.52 3173.48,-242.76 3163.11,-240.58 3164.01,-247.52"/>
</g>
<!-- Node3 -->
<g id="node3" class="node">
<title>Node3</title>
<g id="a_node3"><a xlink:href="wld_8h.html" target="_top" xlink:title=" ">
<polygon fill="white" stroke="red" points="2168,-112.5 2168,-131.5 2211,-131.5 2211,-112.5 2168,-112.5"/>
<text text-anchor="middle" x="2189.5" y="-119.5" font-family="Helvetica,sans-Serif" font-size="10.00">wld.h</text>
</a>
</g>
</g>
<!-- Node2&#45;&gt;Node3 -->
<g id="edge2" class="edge">
<title>Node2&#45;&gt;Node3</title>
<path fill="none" stroke="midnightblue" d="M2284.59,-168.44C2266.25,-159.68 2237.49,-145.94 2216.41,-135.86"/>
<polygon fill="midnightblue" stroke="midnightblue" points="2217.85,-132.67 2207.32,-131.52 2214.83,-138.99 2217.85,-132.67"/>
</g>
<!-- Node4 -->
<g id="node4" class="node">
<title>Node4</title>
<g id="a_node4"><a xlink:title=" ">
<polygon fill="white" stroke="#bfbfbf" points="2763.5,-0.5 2763.5,-19.5 2825.5,-19.5 2825.5,-0.5 2763.5,-0.5"/>
<text text-anchor="middle" x="2794.5" y="-7.5" font-family="Helvetica,sans-Serif" font-size="10.00">stdbool.h</text>
</a>
</g>
</g>
<!-- Node3&#45;&gt;Node4 -->
<g id="edge3" class="edge">
<title>Node3&#45;&gt;Node4</title>
<path fill="none" stroke="midnightblue" d="M2211.18,-117.73C2224.28,-115.84 2241.32,-113.55 2256.5,-112 2313.9,-106.16 2729.31,-111.87 2774.5,-76 2788.21,-65.12 2792.75,-45.05 2794.14,-30.08"/>
<polygon fill="midnightblue" stroke="midnightblue" points="2797.65,-30.03 2794.69,-19.86 2790.66,-29.66 2797.65,-30.03"/>
</g>
<!-- Node5 -->
<g id="node5" class="node">
<title>Node5</title>
<g id="a_node5"><a xlink:title=" ">
<polygon fill="white" stroke="#bfbfbf" points="3507,-0.5 3507,-19.5 3560,-19.5 3560,-0.5 3507,-0.5"/>
<text text-anchor="middle" x="3533.5" y="-7.5" font-family="Helvetica,sans-Serif" font-size="10.00">stdint.h</text>
</a>
</g>
</g>
<!-- Node3&#45;&gt;Node5 -->
<g id="edge4" class="edge">
<title>Node3&#45;&gt;Node5</title>
<path fill="none" stroke="midnightblue" d="M2211.17,-117.55C2224.26,-115.6 2241.3,-113.3 2256.5,-112 2470.31,-93.69 3014.17,-131.35 3221.5,-76 3239.94,-71.08 3241.41,-62.07 3259.5,-56 3341.55,-28.48 3443.28,-17.43 3496.73,-13.28"/>
<polygon fill="midnightblue" stroke="midnightblue" points="3497.04,-16.77 3506.75,-12.54 3496.52,-9.79 3497.04,-16.77"/>
</g>
<!-- Node6 -->
<g id="node6" class="node">
<title>Node6</title>
<g id="a_node6"><a xlink:title=" ">
<polygon fill="white" stroke="#bfbfbf" points="254.5,-0.5 254.5,-19.5 364.5,-19.5 364.5,-0.5 254.5,-0.5"/>
<text text-anchor="middle" x="309.5" y="-7.5" font-family="Helvetica,sans-Serif" font-size="10.00">swl/swl_common.h</text>
</a>
</g>
</g>
<!-- Node3&#45;&gt;Node6 -->
<g id="edge5" class="edge">
<title>Node3&#45;&gt;Node6</title>
<path fill="none" stroke="midnightblue" d="M2167.75,-120.9C1968.5,-119.97 465.4,-111.74 378.5,-76 354.58,-66.16 334.03,-43.91 321.72,-28.19"/>
<polygon fill="midnightblue" stroke="midnightblue" points="324.26,-25.74 315.46,-19.83 318.65,-29.93 324.26,-25.74"/>
</g>
<!-- Node7 -->
<g id="node7" class="node">
<title>Node7</title>
<g id="a_node7"><a xlink:title=" ">
<polygon fill="white" stroke="#bfbfbf" points="2822.5,-56.5 2822.5,-75.5 2958.5,-75.5 2958.5,-56.5 2822.5,-56.5"/>
<text text-anchor="middle" x="2890.5" y="-63.5" font-family="Helvetica,sans-Serif" font-size="10.00">swla/swla_commonLib.h</text>
</a>
</g>
</g>
<!-- Node3&#45;&gt;Node7 -->
<g id="edge6" class="edge">
<title>Node3&#45;&gt;Node7</title>
<path fill="none" stroke="midnightblue" d="M2211.18,-117.71C2224.28,-115.81 2241.32,-113.51 2256.5,-112 2501.14,-87.62 2563.58,-97.42 2808.5,-76 2809.61,-75.9 2810.72,-75.8 2811.84,-75.7"/>
<polygon fill="midnightblue" stroke="midnightblue" points="2812.44,-79.16 2822.07,-74.74 2811.78,-72.19 2812.44,-79.16"/>
</g>
<!-- Node8 -->
<g id="node8" class="node">
<title>Node8</title>
<g id="a_node8"><a xlink:title=" ">
<polygon fill="white" stroke="#bfbfbf" points="2976.5,-56.5 2976.5,-75.5 3064.5,-75.5 3064.5,-56.5 2976.5,-56.5"/>
<text text-anchor="middle" x="3020.5" y="-63.5" font-family="Helvetica,sans-Serif" font-size="10.00">swl/swl_uuid.h</text>
</a>
</g>
</g>
<!-- Node3&#45;&gt;Node8 -->
<g id="edge7" class="edge">
<title>Node3&#45;&gt;Node8</title>
<path fill="none" stroke="midnightblue" d="M2211.17,-117.62C2224.27,-115.7 2241.31,-113.4 2256.5,-112 2568.18,-83.23 2651.21,-109.96 2965.97,-76.03"/>
<polygon fill="midnightblue" stroke="midnightblue" points="2966.75,-79.47 2976.31,-74.9 2965.99,-72.51 2966.75,-79.47"/>
</g>
<!-- Node9 -->
<g id="node9" class="node">
<title>Node9</title>
<g id="a_node9"><a xlink:title=" ">
<polygon fill="white" stroke="#bfbfbf" points="103.5,-56.5 103.5,-75.5 255.5,-75.5 255.5,-56.5 103.5,-56.5"/>
<text text-anchor="middle" x="179.5" y="-63.5" font-family="Helvetica,sans-Serif" font-size="10.00">swla/swla_radioStandards.h</text>
</a>
</g>
</g>
<!-- Node3&#45;&gt;Node9 -->
<g id="edge8" class="edge">
<title>Node3&#45;&gt;Node9</title>
<path fill="none" stroke="midnightblue" d="M2167.61,-120.86C2013.24,-119.8 1072.25,-112.01 307.5,-76 293.98,-75.36 279.67,-74.52 265.7,-73.61"/>
<polygon fill="midnightblue" stroke="midnightblue" points="265.82,-70.11 255.61,-72.93 265.35,-77.09 265.82,-70.11"/>
</g>
<!-- Node10 -->
<g id="node10" class="node">
<title>Node10</title>
<g id="a_node10"><a xlink:title=" ">
<polygon fill="white" stroke="#bfbfbf" points="3871,-0.5 3871,-19.5 3972,-19.5 3972,-0.5 3871,-0.5"/>
<text text-anchor="middle" x="3921.5" y="-7.5" font-family="Helvetica,sans-Serif" font-size="10.00">swla/swla_time.h</text>
</a>
</g>
</g>
<!-- Node3&#45;&gt;Node10 -->
<g id="edge9" class="edge">
<title>Node3&#45;&gt;Node10</title>
<path fill="none" stroke="midnightblue" d="M2211.16,-117.47C2224.25,-115.5 2241.29,-113.19 2256.5,-112 2429.13,-98.45 3648.3,-124.6 3814.5,-76 3823.72,-73.3 3871.27,-43.31 3899.79,-25.02"/>
<polygon fill="midnightblue" stroke="midnightblue" points="3901.79,-27.9 3908.31,-19.55 3898,-22.01 3901.79,-27.9"/>
</g>
<!-- Node11 -->
<g id="node11" class="node">
<title>Node11</title>
<g id="a_node11"><a xlink:title=" ">
<polygon fill="white" stroke="#bfbfbf" points="3083,-56.5 3083,-75.5 3212,-75.5 3212,-56.5 3083,-56.5"/>
<text text-anchor="middle" x="3147.5" y="-63.5" font-family="Helvetica,sans-Serif" font-size="10.00">swla/swla_time_spec.h</text>
</a>
</g>
</g>
<!-- Node3&#45;&gt;Node11 -->
<g id="edge10" class="edge">
<title>Node3&#45;&gt;Node11</title>
<path fill="none" stroke="midnightblue" d="M2211.17,-117.59C2224.26,-115.65 2241.3,-113.35 2256.5,-112 2615.26,-80.06 2709.58,-105.49 3072.95,-75.97"/>
<polygon fill="midnightblue" stroke="midnightblue" points="3073.28,-79.45 3082.96,-75.15 3072.7,-72.48 3073.28,-79.45"/>
</g>
<!-- Node12 -->
<g id="node12" class="node">
<title>Node12</title>
<g id="a_node12"><a xlink:title=" ">
<polygon fill="white" stroke="#bfbfbf" points="3268.5,-56.5 3268.5,-75.5 3362.5,-75.5 3362.5,-56.5 3268.5,-56.5"/>
<text text-anchor="middle" x="3315.5" y="-63.5" font-family="Helvetica,sans-Serif" font-size="10.00">swla/swla_oui.h</text>
</a>
</g>
</g>
<!-- Node3&#45;&gt;Node12 -->
<g id="edge11" class="edge">
<title>Node3&#45;&gt;Node12</title>
<path fill="none" stroke="midnightblue" d="M2211.17,-117.54C2224.26,-115.59 2241.3,-113.29 2256.5,-112 2698.75,-74.41 2812.5,-116.45 3254.5,-76 3255.76,-75.88 3257.03,-75.76 3258.31,-75.63"/>
<polygon fill="midnightblue" stroke="midnightblue" points="3258.73,-79.1 3268.27,-74.49 3257.94,-72.15 3258.73,-79.1"/>
</g>
<!-- Node13 -->
<g id="node13" class="node">
<title>Node13</title>
<g id="a_node13"><a xlink:title=" ">
<polygon fill="white" stroke="#bfbfbf" points="3380.5,-56.5 3380.5,-75.5 3508.5,-75.5 3508.5,-56.5 3380.5,-56.5"/>
<text text-anchor="middle" x="3444.5" y="-63.5" font-family="Helvetica,sans-Serif" font-size="10.00">swla/swla_delayExec.h</text>
</a>
</g>
</g>
<!-- Node3&#45;&gt;Node13 -->
<g id="edge12" class="edge">
<title>Node3&#45;&gt;Node13</title>
<path fill="none" stroke="midnightblue" d="M2211.16,-117.52C2224.26,-115.56 2241.3,-113.26 2256.5,-112 2747.23,-71.22 2875.43,-113.78 3370.17,-76.02"/>
<polygon fill="midnightblue" stroke="midnightblue" points="3370.74,-79.49 3380.44,-75.23 3370.2,-72.51 3370.74,-79.49"/>
</g>
<!-- Node14 -->
<g id="node14" class="node">
<title>Node14</title>
<g id="a_node14"><a xlink:title=" ">
<polygon fill="white" stroke="#bfbfbf" points="3527,-56.5 3527,-75.5 3646,-75.5 3646,-56.5 3527,-56.5"/>
<text text-anchor="middle" x="3586.5" y="-63.5" font-family="Helvetica,sans-Serif" font-size="10.00">swla/swla_function.h</text>
</a>
</g>
</g>
<!-- Node3&#45;&gt;Node14 -->
<g id="edge13" class="edge">
<title>Node3&#45;&gt;Node14</title>
<path fill="none" stroke="midnightblue" d="M2211.16,-117.5C2224.25,-115.54 2241.29,-113.24 2256.5,-112 2811.92,-66.89 2956.82,-119.66 3516.34,-75.99"/>
<polygon fill="midnightblue" stroke="midnightblue" points="3517.01,-79.45 3526.7,-75.18 3516.46,-72.47 3517.01,-79.45"/>
</g>
<!-- Node15 -->
<g id="node15" class="node">
<title>Node15</title>
<g id="a_node15"><a xlink:title=" ">
<polygon fill="white" stroke="#bfbfbf" points="3664,-56.5 3664,-75.5 3805,-75.5 3805,-56.5 3664,-56.5"/>
<text text-anchor="middle" x="3734.5" y="-63.5" font-family="Helvetica,sans-Serif" font-size="10.00">swl/swl_usp_cmdStatus.h</text>
</a>
</g>
</g>
<!-- Node3&#45;&gt;Node15 -->
<g id="edge14" class="edge">
<title>Node3&#45;&gt;Node15</title>
<path fill="none" stroke="midnightblue" d="M2211.16,-117.49C2224.25,-115.52 2241.29,-113.21 2256.5,-112 2873.18,-62.79 3033.31,-118.64 3653.8,-76.05"/>
<polygon fill="midnightblue" stroke="midnightblue" points="3654.16,-79.54 3663.89,-75.35 3653.68,-72.55 3654.16,-79.54"/>
</g>
<!-- Node16 -->
<g id="node16" class="node">
<title>Node16</title>
<g id="a_node16"><a xlink:title=" ">
<polygon fill="white" stroke="#bfbfbf" points="387.5,-56.5 387.5,-75.5 473.5,-75.5 473.5,-56.5 387.5,-56.5"/>
<text text-anchor="middle" x="430.5" y="-63.5" font-family="Helvetica,sans-Serif" font-size="10.00">swl/swl_wps.h</text>
</a>
</g>
</g>
<!-- Node3&#45;&gt;Node16 -->
<g id="edge15" class="edge">
<title>Node3&#45;&gt;Node16</title>
<path fill="none" stroke="midnightblue" d="M2167.92,-120.86C1996.56,-119.71 853.22,-110.81 483.74,-75.94"/>
<polygon fill="midnightblue" stroke="midnightblue" points="483.86,-72.43 473.56,-74.95 483.18,-79.4 483.86,-72.43"/>
</g>
<!-- Node17 -->
<g id="node17" class="node">
<title>Node17</title>
<g id="a_node17"><a xlink:title=" ">
<polygon fill="white" stroke="#bfbfbf" points="491.5,-56.5 491.5,-75.5 595.5,-75.5 595.5,-56.5 491.5,-56.5"/>
<text text-anchor="middle" x="543.5" y="-63.5" font-family="Helvetica,sans-Serif" font-size="10.00">swl/swl_security.h</text>
</a>
</g>
</g>
<!-- Node3&#45;&gt;Node17 -->
<g id="edge16" class="edge">
<title>Node3&#45;&gt;Node17</title>
<path fill="none" stroke="midnightblue" d="M2167.91,-120.74C2003.74,-118.7 949.5,-104.65 605.9,-75.99"/>
<polygon fill="midnightblue" stroke="midnightblue" points="605.96,-72.48 595.7,-75.11 605.36,-79.46 605.96,-72.48"/>
</g>
<!-- Node18 -->
<g id="node18" class="node">
<title>Node18</title>
<g id="a_node18"><a xlink:title=" ">
<polygon fill="white" stroke="#bfbfbf" points="52,-0.5 52,-19.5 135,-19.5 135,-0.5 52,-0.5"/>
<text text-anchor="middle" x="93.5" y="-7.5" font-family="Helvetica,sans-Serif" font-size="10.00">amxc/amxc.h</text>
</a>
</g>
</g>
<!-- Node3&#45;&gt;Node18 -->
<g id="edge17" class="edge">
<title>Node3&#45;&gt;Node18</title>
<path fill="none" stroke="midnightblue" d="M2167.77,-120.77C1973.25,-118.69 533.8,-102.46 344.5,-76 339.26,-75.27 206.01,-40.47 135.84,-22.1"/>
<polygon fill="midnightblue" stroke="midnightblue" points="136.53,-18.66 125.97,-19.51 134.76,-25.43 136.53,-18.66"/>
</g>
<!-- Node19 -->
<g id="node19" class="node">
<title>Node19</title>
<g id="a_node19"><a xlink:title=" ">
<polygon fill="white" stroke="#bfbfbf" points="613.5,-56.5 613.5,-75.5 697.5,-75.5 697.5,-56.5 613.5,-56.5"/>
<text text-anchor="middle" x="655.5" y="-63.5" font-family="Helvetica,sans-Serif" font-size="10.00">amxp/amxp.h</text>
</a>
</g>
</g>
<!-- Node3&#45;&gt;Node19 -->
<g id="edge18" class="edge">
<title>Node3&#45;&gt;Node19</title>
<path fill="none" stroke="midnightblue" d="M2167.79,-120.77C2009.41,-119.05 1029.28,-107.26 707.97,-75.96"/>
<polygon fill="midnightblue" stroke="midnightblue" points="708.03,-72.45 697.73,-74.94 707.34,-79.42 708.03,-72.45"/>
</g>
<!-- Node20 -->
<g id="node20" class="node">
<title>Node20</title>
<g id="a_node20"><a xlink:title=" ">
<polygon fill="white" stroke="#bfbfbf" points="715.5,-56.5 715.5,-75.5 855.5,-75.5 855.5,-56.5 715.5,-56.5"/>
<text text-anchor="middle" x="785.5" y="-63.5" font-family="Helvetica,sans-Serif" font-size="10.00">amxd/amxd_parameter.h</text>
</a>
</g>
</g>
<!-- Node3&#45;&gt;Node20 -->
<g id="edge19" class="edge">
<title>Node3&#45;&gt;Node20</title>
<path fill="none" stroke="midnightblue" d="M2167.61,-120.91C2042.07,-120.24 1400.66,-115.04 865.92,-76.04"/>
<polygon fill="midnightblue" stroke="midnightblue" points="865.91,-72.53 855.68,-75.29 865.4,-79.51 865.91,-72.53"/>
</g>
<!-- Node21 -->
<g id="node21" class="node">
<title>Node21</title>
<g id="a_node21"><a xlink:title=" ">
<polygon fill="white" stroke="#bfbfbf" points="874,-56.5 874,-75.5 993,-75.5 993,-56.5 874,-56.5"/>
<text text-anchor="middle" x="933.5" y="-63.5" font-family="Helvetica,sans-Serif" font-size="10.00">amxd/amxd_action.h</text>
</a>
</g>
</g>
<!-- Node3&#45;&gt;Node21 -->
<g id="edge20" class="edge">
<title>Node3&#45;&gt;Node21</title>
<path fill="none" stroke="midnightblue" d="M2167.97,-120.94C2051.03,-120.44 1480.11,-116.02 1003.35,-76.08"/>
<polygon fill="midnightblue" stroke="midnightblue" points="1003.43,-72.57 993.17,-75.22 1002.84,-79.55 1003.43,-72.57"/>
</g>
<!-- Node22 -->
<g id="node22" class="node">
<title>Node22</title>
<g id="a_node22"><a xlink:title=" ">
<polygon fill="white" stroke="#bfbfbf" points="1011,-56.5 1011,-75.5 1186,-75.5 1186,-56.5 1011,-56.5"/>
<text text-anchor="middle" x="1098.5" y="-63.5" font-family="Helvetica,sans-Serif" font-size="10.00">amxd/amxd_object_parameter.h</text>
</a>
</g>
</g>
<!-- Node3&#45;&gt;Node22 -->
<g id="edge21" class="edge">
<title>Node3&#45;&gt;Node22</title>
<path fill="none" stroke="midnightblue" d="M2167.79,-120.4C2062.37,-117.39 1593.1,-103.12 1196.49,-76.03"/>
<polygon fill="midnightblue" stroke="midnightblue" points="1196.47,-72.52 1186.25,-75.33 1195.99,-79.51 1196.47,-72.52"/>
</g>
<!-- Node23 -->
<g id="node23" class="node">
<title>Node23</title>
<g id="a_node23"><a xlink:title=" ">
<polygon fill="white" stroke="#bfbfbf" points="1204.5,-56.5 1204.5,-75.5 1356.5,-75.5 1356.5,-56.5 1204.5,-56.5"/>
<text text-anchor="middle" x="1280.5" y="-63.5" font-family="Helvetica,sans-Serif" font-size="10.00">amxd/amxd_object_event.h</text>
</a>
</g>
</g>
<!-- Node3&#45;&gt;Node23 -->
<g id="edge22" class="edge">
<title>Node3&#45;&gt;Node23</title>
<path fill="none" stroke="midnightblue" d="M2167.83,-120.22C2073.83,-116.77 1691.91,-101.85 1367.02,-76.08"/>
<polygon fill="midnightblue" stroke="midnightblue" points="1367.19,-72.59 1356.94,-75.28 1366.63,-79.56 1367.19,-72.59"/>
</g>
<!-- Node24 -->
<g id="node24" class="node">
<title>Node24</title>
<g id="a_node24"><a xlink:title=" ">
<polygon fill="white" stroke="#bfbfbf" points="1375,-56.5 1375,-75.5 1504,-75.5 1504,-56.5 1375,-56.5"/>
<text text-anchor="middle" x="1439.5" y="-63.5" font-family="Helvetica,sans-Serif" font-size="10.00">amxd/amxd_function.h</text>
</a>
</g>
</g>
<!-- Node3&#45;&gt;Node24 -->
<g id="edge23" class="edge">
<title>Node3&#45;&gt;Node24</title>
<path fill="none" stroke="midnightblue" d="M2167.84,-120C2084.68,-116.09 1777.83,-100.8 1514.49,-76.14"/>
<polygon fill="midnightblue" stroke="midnightblue" points="1514.64,-72.64 1504.36,-75.19 1513.99,-79.61 1514.64,-72.64"/>
</g>
<!-- Node25 -->
<g id="node25" class="node">
<title>Node25</title>
<g id="a_node25"><a xlink:title=" ">
<polygon fill="white" stroke="#bfbfbf" points="1522,-56.5 1522,-75.5 1691,-75.5 1691,-56.5 1522,-56.5"/>
<text text-anchor="middle" x="1606.5" y="-63.5" font-family="Helvetica,sans-Serif" font-size="10.00">amxd/amxd_object_hierarchy.h</text>
</a>
</g>
</g>
<!-- Node3&#45;&gt;Node25 -->
<g id="edge24" class="edge">
<title>Node3&#45;&gt;Node25</title>
<path fill="none" stroke="midnightblue" d="M2167.52,-119.02C2099.76,-112.91 1887.86,-93.73 1701.14,-76.15"/>
<polygon fill="midnightblue" stroke="midnightblue" points="1701.43,-72.66 1691.15,-75.21 1700.77,-79.63 1701.43,-72.66"/>
</g>
<!-- Node26 -->
<g id="node26" class="node">
<title>Node26</title>
<g id="a_node26"><a xlink:title=" ">
<polygon fill="white" stroke="#bfbfbf" points="1709,-56.5 1709,-75.5 1828,-75.5 1828,-56.5 1709,-56.5"/>
<text text-anchor="middle" x="1768.5" y="-63.5" font-family="Helvetica,sans-Serif" font-size="10.00">amxd/amxd_object.h</text>
</a>
</g>
</g>
<!-- Node3&#45;&gt;Node26 -->
<g id="edge25" class="edge">
<title>Node3&#45;&gt;Node26</title>
<path fill="none" stroke="midnightblue" d="M2167.6,-118.25C2113.58,-111.44 1969.36,-93.23 1838.41,-76.24"/>
<polygon fill="midnightblue" stroke="midnightblue" points="1838.57,-72.73 1828.2,-74.92 1837.67,-79.68 1838.57,-72.73"/>
</g>
<!-- Node27 -->
<g id="node27" class="node">
<title>Node27</title>
<g id="a_node27"><a xlink:title=" ">
<polygon fill="white" stroke="#bfbfbf" points="1846,-56.5 1846,-75.5 1951,-75.5 1951,-56.5 1846,-56.5"/>
<text text-anchor="middle" x="1898.5" y="-63.5" font-family="Helvetica,sans-Serif" font-size="10.00">amxd/amxd_dm.h</text>
</a>
</g>
</g>
<!-- Node3&#45;&gt;Node27 -->
<g id="edge26" class="edge">
<title>Node3&#45;&gt;Node27</title>
<path fill="none" stroke="midnightblue" d="M2167.63,-116.94C2122.77,-108.62 2019.15,-89.39 1954.37,-77.37"/>
<polygon fill="midnightblue" stroke="midnightblue" points="1954.79,-73.89 1944.32,-75.5 1953.51,-80.77 1954.79,-73.89"/>
</g>
<!-- Node28 -->
<g id="node28" class="node">
<title>Node28</title>
<g id="a_node28"><a xlink:title=" ">
<polygon fill="white" stroke="#bfbfbf" points="1969.5,-56.5 1969.5,-75.5 2113.5,-75.5 2113.5,-56.5 1969.5,-56.5"/>
<text text-anchor="middle" x="2041.5" y="-63.5" font-family="Helvetica,sans-Serif" font-size="10.00">amxd/amxd_transaction.h</text>
</a>
</g>
</g>
<!-- Node3&#45;&gt;Node28 -->
<g id="edge27" class="edge">
<title>Node3&#45;&gt;Node28</title>
<path fill="none" stroke="midnightblue" d="M2167.98,-113.15C2143.45,-104.2 2103.08,-89.47 2074.55,-79.06"/>
<polygon fill="midnightblue" stroke="midnightblue" points="2075.6,-75.72 2065,-75.58 2073.2,-82.29 2075.6,-75.72"/>
</g>
<!-- Node29 -->
<g id="node29" class="node">
<title>Node29</title>
<g id="a_node29"><a xlink:title=" ">
<polygon fill="white" stroke="#bfbfbf" points="2131.5,-56.5 2131.5,-75.5 2247.5,-75.5 2247.5,-56.5 2131.5,-56.5"/>
<text text-anchor="middle" x="2189.5" y="-63.5" font-family="Helvetica,sans-Serif" font-size="10.00">amxb/amxb_types.h</text>
</a>
</g>
</g>
<!-- Node3&#45;&gt;Node29 -->
<g id="edge28" class="edge">
<title>Node3&#45;&gt;Node29</title>
<path fill="none" stroke="midnightblue" d="M2189.5,-112.08C2189.5,-105.01 2189.5,-94.86 2189.5,-85.99"/>
<polygon fill="midnightblue" stroke="midnightblue" points="2193,-85.75 2189.5,-75.75 2186,-85.75 2193,-85.75"/>
</g>
<!-- Node30 -->
<g id="node30" class="node">
<title>Node30</title>
<g id="a_node30"><a xlink:title=" ">
<polygon fill="white" stroke="#bfbfbf" points="2265.5,-56.5 2265.5,-75.5 2401.5,-75.5 2401.5,-56.5 2265.5,-56.5"/>
<text text-anchor="middle" x="2333.5" y="-63.5" font-family="Helvetica,sans-Serif" font-size="10.00">amxb/amxb_operators.h</text>
</a>
</g>
</g>
<!-- Node3&#45;&gt;Node30 -->
<g id="edge29" class="edge">
<title>Node3&#45;&gt;Node30</title>
<path fill="none" stroke="midnightblue" d="M2211.06,-112.92C2234.82,-104.01 2273.3,-89.57 2300.78,-79.27"/>
<polygon fill="midnightblue" stroke="midnightblue" points="2302.23,-82.47 2310.36,-75.68 2299.77,-75.91 2302.23,-82.47"/>
</g>
<!-- Node31 -->
<g id="node31" class="node">
<title>Node31</title>
<g id="a_node31"><a xlink:title=" ">
<polygon fill="white" stroke="#bfbfbf" points="2419.5,-56.5 2419.5,-75.5 2531.5,-75.5 2531.5,-56.5 2419.5,-56.5"/>
<text text-anchor="middle" x="2475.5" y="-63.5" font-family="Helvetica,sans-Serif" font-size="10.00">amxb/amxb_error.h</text>
</a>
</g>
</g>
<!-- Node3&#45;&gt;Node31 -->
<g id="edge30" class="edge">
<title>Node3&#45;&gt;Node31</title>
<path fill="none" stroke="midnightblue" d="M2211.47,-116.85C2255.79,-108.48 2357.1,-89.35 2420.55,-77.37"/>
<polygon fill="midnightblue" stroke="midnightblue" points="2421.22,-80.81 2430.4,-75.52 2419.92,-73.93 2421.22,-80.81"/>
</g>
<!-- Node32 -->
<g id="node32" class="node">
<title>Node32</title>
<g id="a_node32"><a xlink:title=" ">
<polygon fill="white" stroke="#bfbfbf" points="2550,-56.5 2550,-75.5 2633,-75.5 2633,-56.5 2550,-56.5"/>
<text text-anchor="middle" x="2591.5" y="-63.5" font-family="Helvetica,sans-Serif" font-size="10.00">amxo/amxo.h</text>
</a>
</g>
</g>
<!-- Node3&#45;&gt;Node32 -->
<g id="edge31" class="edge">
<title>Node3&#45;&gt;Node32</title>
<path fill="none" stroke="midnightblue" d="M2211.22,-118.04C2224.33,-116.26 2241.37,-113.97 2256.5,-112 2379.46,-95.95 2413.02,-95.1 2539.69,-76.06"/>
<polygon fill="midnightblue" stroke="midnightblue" points="2540.41,-79.49 2549.78,-74.53 2539.37,-72.57 2540.41,-79.49"/>
</g>
<!-- Node33 -->
<g id="node33" class="node">
<title>Node33</title>
<g id="a_node33"><a xlink:title=" ">
<polygon fill="white" stroke="#bfbfbf" points="2651,-56.5 2651,-75.5 2766,-75.5 2766,-56.5 2651,-56.5"/>
<text text-anchor="middle" x="2708.5" y="-63.5" font-family="Helvetica,sans-Serif" font-size="10.00">amxo/amxo_types.h</text>
</a>
</g>
</g>
<!-- Node3&#45;&gt;Node33 -->
<g id="edge32" class="edge">
<title>Node3&#45;&gt;Node33</title>
<path fill="none" stroke="midnightblue" d="M2211.2,-117.86C2224.3,-116.02 2241.34,-113.73 2256.5,-112 2424,-92.93 2469.04,-95.34 2640.64,-76.05"/>
<polygon fill="midnightblue" stroke="midnightblue" points="2641.23,-79.51 2650.77,-74.9 2640.44,-72.55 2641.23,-79.51"/>
</g>
<!-- Node34 -->
<g id="node34" class="node">
<title>Node34</title>
<g id="a_node34"><a xlink:href="wld__types_8h.html" target="_top" xlink:title=" ">
<polygon fill="white" stroke="red" points="3999,-56.5 3999,-75.5 4074,-75.5 4074,-56.5 3999,-56.5"/>
<text text-anchor="middle" x="4036.5" y="-63.5" font-family="Helvetica,sans-Serif" font-size="10.00">wld_types.h</text>
</a>
</g>
</g>
<!-- Node3&#45;&gt;Node34 -->
<g id="edge33" class="edge">
<title>Node3&#45;&gt;Node34</title>
<path fill="none" stroke="midnightblue" d="M2211.1,-119.19C2236.88,-117.1 2281.31,-113.73 2319.5,-112 2687.28,-95.32 3604.9,-115.45 3988.84,-75.96"/>
<polygon fill="midnightblue" stroke="midnightblue" points="3989.35,-79.43 3998.92,-74.9 3988.61,-72.47 3989.35,-79.43"/>
</g>
<!-- Node37 -->
<g id="node35" class="node">
<title>Node37</title>
<g id="a_node35"><a xlink:href="wld__channel__types_8h.html" target="_top" xlink:title=" ">
<polygon fill="white" stroke="red" points="3862,-56.5 3862,-75.5 3981,-75.5 3981,-56.5 3862,-56.5"/>
<text text-anchor="middle" x="3921.5" y="-63.5" font-family="Helvetica,sans-Serif" font-size="10.00">wld_channel_types.h</text>
</a>
</g>
</g>
<!-- Node3&#45;&gt;Node37 -->
<g id="edge36" class="edge">
<title>Node3&#45;&gt;Node37</title>
<path fill="none" stroke="midnightblue" d="M2211.16,-117.47C2224.25,-115.49 2241.29,-113.19 2256.5,-112 2961.64,-56.83 3142.03,-126.76 3847.5,-76 3848.81,-75.91 3850.13,-75.81 3851.46,-75.7"/>
<polygon fill="midnightblue" stroke="midnightblue" points="3852.13,-79.15 3861.77,-74.78 3851.5,-72.18 3852.13,-79.15"/>
</g>
<!-- Node3&#45;&gt;Node49 -->
<g id="edge39" class="edge">
<title>Node3&#45;&gt;Node49</title>
<path fill="none" stroke="midnightblue" d="M2211.1,-119.18C2236.88,-117.09 2281.3,-113.71 2319.5,-112 3099.53,-77.06 3300.69,-144.73 4081.65,-76.04"/>
<polygon fill="midnightblue" stroke="midnightblue" points="4082.08,-79.51 4091.74,-75.15 4081.47,-72.54 4082.08,-79.51"/>
</g>
<!-- Node75 -->
<g id="node37" class="node">
<title>Node75</title>
<g id="a_node37"><a xlink:href="wld__extMod_8h.html" target="_top" xlink:title=" ">
<polygon fill="white" stroke="black" points="0,-56.5 0,-75.5 85,-75.5 85,-56.5 0,-56.5"/>
<text text-anchor="middle" x="42.5" y="-63.5" font-family="Helvetica,sans-Serif" font-size="10.00">wld_extMod.h</text>
</a>
</g>
</g>
<!-- Node3&#45;&gt;Node75 -->
<g id="edge40" class="edge">
<title>Node3&#45;&gt;Node75</title>
<path fill="none" stroke="midnightblue" d="M2167.83,-120.98C1974.89,-120.77 548.37,-117.84 95.47,-75.89"/>
<polygon fill="midnightblue" stroke="midnightblue" points="95.57,-72.39 85.28,-74.93 94.9,-79.36 95.57,-72.39"/>
</g>
<!-- Node34&#45;&gt;Node5 -->
<g id="edge34" class="edge">
<title>Node34&#45;&gt;Node5</title>
<path fill="none" stroke="midnightblue" d="M3998.89,-57.34C3996.06,-56.86 3993.24,-56.4 3990.5,-56 3835.12,-33.2 3648.28,-18.85 3570.39,-13.44"/>
<polygon fill="midnightblue" stroke="midnightblue" points="3570.35,-9.93 3560.14,-12.73 3569.87,-16.91 3570.35,-9.93"/>
</g>
<!-- Node34&#45;&gt;Node10 -->
<g id="edge35" class="edge">
<title>Node34&#45;&gt;Node10</title>
<path fill="none" stroke="midnightblue" d="M4018.28,-56.44C3999.6,-47.68 3970.34,-33.94 3948.88,-23.86"/>
<polygon fill="midnightblue" stroke="midnightblue" points="3950.18,-20.6 3939.64,-19.52 3947.2,-26.93 3950.18,-20.6"/>
</g>
<!-- Node37&#45;&gt;Node4 -->
<g id="edge37" class="edge">
<title>Node37&#45;&gt;Node4</title>
<path fill="none" stroke="midnightblue" d="M3861.82,-59.56C3846.42,-58.27 3829.85,-56.98 3814.5,-56 3434.79,-31.66 2974.7,-16.5 2836,-12.24"/>
<polygon fill="midnightblue" stroke="midnightblue" points="2835.93,-8.73 2825.83,-11.93 2835.71,-15.73 2835.93,-8.73"/>
</g>
<!-- Node37&#45;&gt;Node10 -->
<g id="edge38" class="edge">
<title>Node37&#45;&gt;Node10</title>
<path fill="none" stroke="midnightblue" d="M3921.5,-56.08C3921.5,-49.01 3921.5,-38.86 3921.5,-29.99"/>
<polygon fill="midnightblue" stroke="midnightblue" points="3925,-29.75 3921.5,-19.75 3918,-29.75 3925,-29.75"/>
</g>
<!-- Node75&#45;&gt;Node6 -->
<g id="edge42" class="edge">
<title>Node75&#45;&gt;Node6</title>
<path fill="none" stroke="midnightblue" d="M84.81,-56.44C131.58,-46.98 206.96,-31.74 257.35,-21.55"/>
<polygon fill="midnightblue" stroke="midnightblue" points="258.28,-24.93 267.39,-19.52 256.9,-18.07 258.28,-24.93"/>
</g>
<!-- Node75&#45;&gt;Node18 -->
<g id="edge41" class="edge">
<title>Node75&#45;&gt;Node18</title>
<path fill="none" stroke="midnightblue" d="M50.92,-56.08C58.35,-48.22 69.35,-36.57 78.31,-27.08"/>
<polygon fill="midnightblue" stroke="midnightblue" points="80.91,-29.42 85.24,-19.75 75.82,-24.62 80.91,-29.42"/>
</g>
<!-- Node76&#45;&gt;Node3 -->
<g id="edge46" class="edge">
<title>Node76&#45;&gt;Node3</title>
<path fill="none" stroke="midnightblue" d="M2119.45,-224.36C2121.21,-211.26 2125.94,-186 2137.5,-168 2145.16,-156.07 2156.9,-145.53 2167.29,-137.65"/>
<polygon fill="midnightblue" stroke="midnightblue" points="2169.51,-140.37 2175.58,-131.69 2165.42,-134.68 2169.51,-140.37"/>
</g>
<!-- Node76&#45;&gt;Node75 -->
<g id="edge54" class="edge">
<title>Node76&#45;&gt;Node75</title>
<path fill="none" stroke="midnightblue" d="M2081.63,-232.51C1850.76,-229.24 601.97,-208.23 228.5,-132 170.91,-120.24 106.82,-94.98 70.91,-79.64"/>
<polygon fill="midnightblue" stroke="midnightblue" points="72.13,-76.36 61.56,-75.6 69.35,-82.78 72.13,-76.36"/>
</g>
<!-- Node77 -->
<g id="node39" class="node">
<title>Node77</title>
<g id="a_node39"><a xlink:title=" ">
<polygon fill="white" stroke="#bfbfbf" points="69.5,-168.5 69.5,-187.5 179.5,-187.5 179.5,-168.5 69.5,-168.5"/>
<text text-anchor="middle" x="124.5" y="-175.5" font-family="Helvetica,sans-Serif" font-size="10.00">swla/swla_trilean.h</text>
</a>
</g>
</g>
<!-- Node76&#45;&gt;Node77 -->
<g id="edge45" class="edge">
<title>Node76&#45;&gt;Node77</title>
<path fill="none" stroke="midnightblue" d="M2081.86,-232.68C1849.71,-230.55 580.56,-217.68 193.5,-188 192.39,-187.91 191.26,-187.82 190.13,-187.73"/>
<polygon fill="midnightblue" stroke="midnightblue" points="190.1,-184.21 179.81,-186.74 189.43,-191.18 190.1,-184.21"/>
</g>
<!-- Node78 -->
<g id="node40" class="node">
<title>Node78</title>
<g id="a_node40"><a xlink:href="wld__channel_8h.html" target="_top" xlink:title=" ">
<polygon fill="white" stroke="black" points="2146.5,-168.5 2146.5,-187.5 2232.5,-187.5 2232.5,-168.5 2146.5,-168.5"/>
<text text-anchor="middle" x="2189.5" y="-175.5" font-family="Helvetica,sans-Serif" font-size="10.00">wld_channel.h</text>
</a>
</g>
</g>
<!-- Node76&#45;&gt;Node78 -->
<g id="edge47" class="edge">
<title>Node76&#45;&gt;Node78</title>
<path fill="none" stroke="midnightblue" d="M2129.91,-224.32C2140.61,-216.18 2156.84,-203.84 2169.66,-194.09"/>
<polygon fill="midnightblue" stroke="midnightblue" points="2172.04,-196.67 2177.89,-187.83 2167.81,-191.1 2172.04,-196.67"/>
</g>
<!-- Node79 -->
<g id="node41" class="node">
<title>Node79</title>
<g id="a_node41"><a xlink:href="wld__radioOperatingStandards_8h.html" target="_top" xlink:title=" ">
<polygon fill="white" stroke="black" points="1078.5,-168.5 1078.5,-187.5 1248.5,-187.5 1248.5,-168.5 1078.5,-168.5"/>
<text text-anchor="middle" x="1163.5" y="-175.5" font-family="Helvetica,sans-Serif" font-size="10.00">wld_radioOperatingStandards.h</text>
</a>
</g>
</g>
<!-- Node76&#45;&gt;Node79 -->
<g id="edge50" class="edge">
<title>Node76&#45;&gt;Node79</title>
<path fill="none" stroke="midnightblue" d="M2081.94,-230.93C1945.74,-223.23 1465.13,-196.06 1258.78,-184.39"/>
<polygon fill="midnightblue" stroke="midnightblue" points="1258.75,-180.88 1248.57,-183.81 1258.35,-187.87 1258.75,-180.88"/>
</g>
<!-- Node80 -->
<g id="node42" class="node">
<title>Node80</title>
<g id="a_node42"><a xlink:href="wld__rad__macCfg_8h.html" target="_top" xlink:title=" ">
<polygon fill="white" stroke="red" points="2329,-112.5 2329,-131.5 2436,-131.5 2436,-112.5 2329,-112.5"/>
<text text-anchor="middle" x="2382.5" y="-119.5" font-family="Helvetica,sans-Serif" font-size="10.00">wld_rad_macCfg.h</text>
</a>
</g>
</g>
<!-- Node76&#45;&gt;Node80 -->
<g id="edge55" class="edge">
<title>Node76&#45;&gt;Node80</title>
<path fill="none" stroke="midnightblue" d="M2155.27,-230.89C2215.96,-226.67 2333.4,-215.16 2363.5,-188 2376.44,-176.33 2380.76,-156.38 2382.11,-141.66"/>
<polygon fill="midnightblue" stroke="midnightblue" points="2385.61,-141.81 2382.66,-131.64 2378.62,-141.43 2385.61,-141.81"/>
</g>
<!-- Node78&#45;&gt;Node3 -->
<g id="edge48" class="edge">
<title>Node78&#45;&gt;Node3</title>
<path fill="none" stroke="midnightblue" d="M2189.5,-168.08C2189.5,-161.01 2189.5,-150.86 2189.5,-141.99"/>
<polygon fill="midnightblue" stroke="midnightblue" points="2193,-141.75 2189.5,-131.75 2186,-141.75 2193,-141.75"/>
</g>
<!-- Node78&#45;&gt;Node37 -->
<g id="edge49" class="edge">
<title>Node78&#45;&gt;Node37</title>
<path fill="none" stroke="midnightblue" d="M2202.04,-168.34C2224.42,-153.45 2273.22,-123.5 2319.5,-112 2484.09,-71.09 3676.32,-87.99 3845.5,-76 3847.57,-75.85 3849.67,-75.69 3851.79,-75.52"/>
<polygon fill="midnightblue" stroke="midnightblue" points="3852.17,-79 3861.81,-74.61 3851.53,-72.02 3852.17,-79"/>
</g>
<!-- Node79&#45;&gt;Node3 -->
<g id="edge53" class="edge">
<title>Node79&#45;&gt;Node3</title>
<path fill="none" stroke="midnightblue" d="M1248.77,-172.51C1463.42,-161.21 2018.82,-131.98 2157.67,-124.68"/>
<polygon fill="midnightblue" stroke="midnightblue" points="2157.86,-128.17 2167.66,-124.15 2157.49,-121.18 2157.86,-128.17"/>
</g>
<!-- Node79&#45;&gt;Node4 -->
<g id="edge51" class="edge">
<title>Node79&#45;&gt;Node4</title>
<path fill="none" stroke="midnightblue" d="M1078.46,-176.61C855.57,-174.16 278.34,-158.04 378.5,-56 421.84,-11.85 2437.58,-10.86 2753.14,-10.97"/>
<polygon fill="midnightblue" stroke="midnightblue" points="2753.23,-14.47 2763.23,-10.98 2753.23,-7.47 2753.23,-14.47"/>
</g>
<!-- Node79&#45;&gt;Node9 -->
<g id="edge52" class="edge">
<title>Node79&#45;&gt;Node9</title>
<path fill="none" stroke="midnightblue" d="M1078.23,-175.46C869.5,-171.3 344.41,-158.32 269.5,-132 240.12,-121.68 211.98,-98.5 195.21,-82.8"/>
<polygon fill="midnightblue" stroke="midnightblue" points="197.57,-80.2 187.94,-75.78 192.71,-85.24 197.57,-80.2"/>
</g>
<!-- Node80&#45;&gt;Node34 -->
<g id="edge56" class="edge">
<title>Node80&#45;&gt;Node34</title>
<path fill="none" stroke="midnightblue" d="M2436.27,-113.34C2441.07,-112.82 2445.87,-112.36 2450.5,-112 3129.74,-59.27 3308.14,-149.11 3988.87,-75.98"/>
<polygon fill="midnightblue" stroke="midnightblue" points="3989.36,-79.45 3998.92,-74.89 3988.61,-72.49 3989.36,-79.45"/>
</g>
</g>
</svg>
