<?xml version="1.0" encoding="UTF-8" standalone="no"?>
<!DOCTYPE svg PUBLIC "-//W3C//DTD SVG 1.1//EN"
 "http://www.w3.org/Graphics/SVG/1.1/DTD/svg11.dtd">
<!-- Generated by graphviz version 2.43.0 (0)
 -->
<!-- Title: wld_scan_cleanupScanResults Pages: 1 -->
<svg width="660pt" height="116pt"
 viewBox="0.00 0.00 660.00 115.50" xmlns="http://www.w3.org/2000/svg" xmlns:xlink="http://www.w3.org/1999/xlink">
<g id="graph0" class="graph" transform="scale(1 1) rotate(0) translate(4 111.5)">
<title>wld_scan_cleanupScanResults</title>
<polygon fill="white" stroke="transparent" points="-4,4 -4,-111.5 656,-111.5 656,4 -4,4"/>
<!-- Node1 -->
<g id="node1" class="node">
<title>Node1</title>
<g id="a_node1"><a xlink:title=" ">
<polygon fill="#bfbfbf" stroke="black" points="488,-50 488,-69 652,-69 652,-50 488,-50"/>
<text text-anchor="middle" x="570" y="-57" font-family="Helvetica,sans-Serif" font-size="10.00">wld_scan_cleanupScanResults</text>
</a>
</g>
</g>
<!-- Node2 -->
<g id="node2" class="node">
<title>Node2</title>
<g id="a_node2"><a xlink:href="wifiGen__rad_8c.html#aedbe95c62ffcd7c2172e27e80e5d9a78" target="_top" xlink:title=" ">
<polygon fill="white" stroke="black" points="297,-88 297,-107 452,-107 452,-88 297,-88"/>
<text text-anchor="middle" x="374.5" y="-95" font-family="Helvetica,sans-Serif" font-size="10.00">wifiGen_rad_getScanResults</text>
</a>
</g>
</g>
<!-- Node1&#45;&gt;Node2 -->
<g id="edge1" class="edge">
<title>Node1&#45;&gt;Node2</title>
<path fill="none" stroke="midnightblue" d="M510.25,-71.04C482.65,-76.46 450.15,-82.84 423.98,-87.98"/>
<polygon fill="midnightblue" stroke="midnightblue" points="511.03,-74.45 520.17,-69.09 509.68,-67.58 511.03,-74.45"/>
</g>
<!-- Node3 -->
<g id="node3" class="node">
<title>Node3</title>
<g id="a_node3"><a xlink:href="wld_8c.html#a798af38bd94fac2d41bbc0c9b3138188" target="_top" xlink:title=" ">
<polygon fill="white" stroke="black" points="317.5,-50 317.5,-69 431.5,-69 431.5,-50 317.5,-50"/>
<text text-anchor="middle" x="374.5" y="-57" font-family="Helvetica,sans-Serif" font-size="10.00">wld_deleteRadioObj</text>
</a>
</g>
</g>
<!-- Node1&#45;&gt;Node3 -->
<g id="edge2" class="edge">
<title>Node1&#45;&gt;Node3</title>
<path fill="none" stroke="midnightblue" d="M477.52,-59.5C461.83,-59.5 445.96,-59.5 431.56,-59.5"/>
<polygon fill="midnightblue" stroke="midnightblue" points="477.78,-63 487.78,-59.5 477.78,-56 477.78,-63"/>
</g>
<!-- Node7 -->
<g id="node7" class="node">
<title>Node7</title>
<g id="a_node7"><a xlink:href="wld__rad__scan_8c.html#a86577a674db2a607586fc2f19635d58a" target="_top" xlink:title=" ">
<polygon fill="white" stroke="black" points="312,-0.5 312,-30.5 437,-30.5 437,-0.5 312,-0.5"/>
<text text-anchor="start" x="320" y="-18.5" font-family="Helvetica,sans-Serif" font-size="10.00">wld_radio_scanresults</text>
<text text-anchor="middle" x="374.5" y="-7.5" font-family="Helvetica,sans-Serif" font-size="10.00">_cleanup</text>
</a>
</g>
</g>
<!-- Node1&#45;&gt;Node7 -->
<g id="edge6" class="edge">
<title>Node1&#45;&gt;Node7</title>
<path fill="none" stroke="midnightblue" d="M517.15,-47.71C492.56,-42.12 462.99,-35.4 437.25,-29.54"/>
<polygon fill="midnightblue" stroke="midnightblue" points="516.49,-51.15 527.01,-49.95 518.04,-44.32 516.49,-51.15"/>
</g>
<!-- Node4 -->
<g id="node4" class="node">
<title>Node4</title>
<g id="a_node4"><a xlink:href="wld_8c.html#af0a45672f3645c93972370bcbe9367e3" target="_top" xlink:title=" ">
<polygon fill="white" stroke="black" points="129,-85 129,-104 245,-104 245,-85 129,-85"/>
<text text-anchor="middle" x="187" y="-92" font-family="Helvetica,sans-Serif" font-size="10.00">wld_deleteAllRadios</text>
</a>
</g>
</g>
<!-- Node3&#45;&gt;Node4 -->
<g id="edge3" class="edge">
<title>Node3&#45;&gt;Node4</title>
<path fill="none" stroke="midnightblue" d="M312.75,-70.96C288.76,-75.49 261.52,-80.63 238.63,-84.95"/>
<polygon fill="midnightblue" stroke="midnightblue" points="313.63,-74.36 322.81,-69.06 312.34,-67.48 313.63,-74.36"/>
</g>
<!-- Node6 -->
<g id="node6" class="node">
<title>Node6</title>
<g id="a_node6"><a xlink:href="wld_8c.html#a7f48f0fa6361d0dee8813904c7fd7cb8" target="_top" xlink:title=" ">
<polygon fill="white" stroke="black" points="138,-47 138,-66 236,-66 236,-47 138,-47"/>
<text text-anchor="middle" x="187" y="-54" font-family="Helvetica,sans-Serif" font-size="10.00">wld_deleteRadio</text>
</a>
</g>
</g>
<!-- Node3&#45;&gt;Node6 -->
<g id="edge5" class="edge">
<title>Node3&#45;&gt;Node6</title>
<path fill="none" stroke="midnightblue" d="M307.12,-58.43C283.67,-58.05 257.78,-57.63 236.13,-57.28"/>
<polygon fill="midnightblue" stroke="midnightblue" points="307.29,-61.93 317.34,-58.59 307.4,-54.93 307.29,-61.93"/>
</g>
<!-- Node5 -->
<g id="node5" class="node">
<title>Node5</title>
<g id="a_node5"><a xlink:href="wld_8c.html#ae0568101aa48c67369b184c160db1930" target="_top" xlink:title=" ">
<polygon fill="white" stroke="black" points="0,-85 0,-104 77,-104 77,-85 0,-85"/>
<text text-anchor="middle" x="38.5" y="-92" font-family="Helvetica,sans-Serif" font-size="10.00">wld_cleanup</text>
</a>
</g>
</g>
<!-- Node4&#45;&gt;Node5 -->
<g id="edge4" class="edge">
<title>Node4&#45;&gt;Node5</title>
<path fill="none" stroke="midnightblue" d="M118.66,-94.5C104.42,-94.5 89.88,-94.5 77.22,-94.5"/>
<polygon fill="midnightblue" stroke="midnightblue" points="118.94,-98 128.94,-94.5 118.94,-91 118.94,-98"/>
</g>
<!-- Node8 -->
<g id="node8" class="node">
<title>Node8</title>
<g id="a_node8"><a xlink:href="wld__rad__scan_8c.html#a13503b892329f1e7d7c5a4ba65d60cef" target="_top" xlink:title=" ">
<polygon fill="white" stroke="black" points="113,-6 113,-25 261,-25 261,-6 113,-6"/>
<text text-anchor="middle" x="187" y="-13" font-family="Helvetica,sans-Serif" font-size="10.00">wld_radio_scanresults_find</text>
</a>
</g>
</g>
<!-- Node7&#45;&gt;Node8 -->
<g id="edge7" class="edge">
<title>Node7&#45;&gt;Node8</title>
<path fill="none" stroke="midnightblue" d="M301.93,-15.5C288.6,-15.5 274.65,-15.5 261.26,-15.5"/>
<polygon fill="midnightblue" stroke="midnightblue" points="301.99,-19 311.99,-15.5 301.99,-12 301.99,-19"/>
</g>
</g>
</svg>
