<?xml version="1.0" encoding="UTF-8" standalone="no"?>
<!DOCTYPE svg PUBLIC "-//W3C//DTD SVG 1.1//EN"
 "http://www.w3.org/Graphics/SVG/1.1/DTD/svg11.dtd">
<!-- Generated by graphviz version 2.43.0 (0)
 -->
<!-- Title: wld_nl80211_parseRadarInfo Pages: 1 -->
<svg width="530pt" height="104pt"
 viewBox="0.00 0.00 530.00 104.00" xmlns="http://www.w3.org/2000/svg" xmlns:xlink="http://www.w3.org/1999/xlink">
<g id="graph0" class="graph" transform="scale(1 1) rotate(0) translate(4 100)">
<title>wld_nl80211_parseRadarInfo</title>
<polygon fill="white" stroke="transparent" points="-4,4 -4,-100 526,-100 526,4 -4,4"/>
<!-- Node1 -->
<g id="node1" class="node">
<title>Node1</title>
<g id="a_node1"><a xlink:title=" ">
<polygon fill="#bfbfbf" stroke="black" points="0,-38.5 0,-57.5 158,-57.5 158,-38.5 0,-38.5"/>
<text text-anchor="middle" x="79" y="-45.5" font-family="Helvetica,sans-Serif" font-size="10.00">wld_nl80211_parseRadarInfo</text>
</a>
</g>
</g>
<!-- Node2 -->
<g id="node2" class="node">
<title>Node2</title>
<g id="a_node2"><a xlink:href="wld__nl80211__parser_8c.html#ac36d656f1365144c247c09fea89d7a55" target="_top" xlink:title=" ">
<polygon fill="white" stroke="black" points="206.5,-76.5 206.5,-95.5 339.5,-95.5 339.5,-76.5 206.5,-76.5"/>
<text text-anchor="middle" x="273" y="-83.5" font-family="Helvetica,sans-Serif" font-size="10.00">wld_nl80211_getIfIndex</text>
</a>
</g>
</g>
<!-- Node1&#45;&gt;Node2 -->
<g id="edge1" class="edge">
<title>Node1&#45;&gt;Node2</title>
<path fill="none" stroke="midnightblue" d="M128.45,-57.59C154.47,-62.74 186.73,-69.12 214.07,-74.53"/>
<polygon fill="midnightblue" stroke="midnightblue" points="213.41,-77.97 223.9,-76.48 214.77,-71.1 213.41,-77.97"/>
</g>
<!-- Node3 -->
<g id="node3" class="node">
<title>Node3</title>
<g id="a_node3"><a xlink:href="wld__nl80211__parser_8c.html#a0cfad32b24aef976907f99d6ef81861f" target="_top" xlink:title=" ">
<polygon fill="white" stroke="black" points="208,-38.5 208,-57.5 338,-57.5 338,-38.5 208,-38.5"/>
<text text-anchor="middle" x="273" y="-45.5" font-family="Helvetica,sans-Serif" font-size="10.00">wld_nl80211_getWiphy</text>
</a>
</g>
</g>
<!-- Node1&#45;&gt;Node3 -->
<g id="edge2" class="edge">
<title>Node1&#45;&gt;Node3</title>
<path fill="none" stroke="midnightblue" d="M158.09,-48C171.12,-48 184.6,-48 197.53,-48"/>
<polygon fill="midnightblue" stroke="midnightblue" points="197.77,-51.5 207.77,-48 197.77,-44.5 197.77,-51.5"/>
</g>
<!-- Node4 -->
<g id="node4" class="node">
<title>Node4</title>
<g id="a_node4"><a xlink:href="wld__nl80211__parser_8c.html#af4c0a612e07be1da43f5005dde164f94" target="_top" xlink:title=" ">
<polygon fill="white" stroke="black" points="194,-0.5 194,-19.5 352,-19.5 352,-0.5 194,-0.5"/>
<text text-anchor="middle" x="273" y="-7.5" font-family="Helvetica,sans-Serif" font-size="10.00">wld_nl80211_parseChanSpec</text>
</a>
</g>
</g>
<!-- Node1&#45;&gt;Node4 -->
<g id="edge3" class="edge">
<title>Node1&#45;&gt;Node4</title>
<path fill="none" stroke="midnightblue" d="M128.45,-38.41C154.47,-33.26 186.73,-26.88 214.07,-21.47"/>
<polygon fill="midnightblue" stroke="midnightblue" points="214.77,-24.9 223.9,-19.52 213.41,-18.03 214.77,-24.9"/>
</g>
<!-- Node5 -->
<g id="node5" class="node">
<title>Node5</title>
<g id="a_node5"><a xlink:href="wld__nl80211__utils_8c.html#a5bd12cecc4b08d4a703d8f1ed0ad7197" target="_top" xlink:title=" ">
<polygon fill="white" stroke="black" points="388,-0.5 388,-19.5 522,-19.5 522,-0.5 388,-0.5"/>
<text text-anchor="middle" x="455" y="-7.5" font-family="Helvetica,sans-Serif" font-size="10.00">wld_nl80211_bwNlToVal</text>
</a>
</g>
</g>
<!-- Node4&#45;&gt;Node5 -->
<g id="edge4" class="edge">
<title>Node4&#45;&gt;Node5</title>
<path fill="none" stroke="midnightblue" d="M352.17,-10C360.6,-10 369.17,-10 377.58,-10"/>
<polygon fill="midnightblue" stroke="midnightblue" points="377.74,-13.5 387.74,-10 377.74,-6.5 377.74,-13.5"/>
</g>
</g>
</svg>
