<?xml version="1.0" encoding="UTF-8" standalone="no"?>
<!DOCTYPE svg PUBLIC "-//W3C//DTD SVG 1.1//EN"
 "http://www.w3.org/Graphics/SVG/1.1/DTD/svg11.dtd">
<!-- Generated by graphviz version 2.43.0 (0)
 -->
<!-- Title: include/wld/Features/wld_persist.h Pages: 1 -->
<svg width="485pt" height="106pt"
 viewBox="0.00 0.00 485.00 106.00" xmlns="http://www.w3.org/2000/svg" xmlns:xlink="http://www.w3.org/1999/xlink">
<g id="graph0" class="graph" transform="scale(1 1) rotate(0) translate(4 102)">
<title>include/wld/Features/wld_persist.h</title>
<polygon fill="white" stroke="transparent" points="-4,4 -4,-102 481,-102 481,4 -4,4"/>
<!-- Node1 -->
<g id="node1" class="node">
<title>Node1</title>
<g id="a_node1"><a xlink:title=" ">
<polygon fill="#bfbfbf" stroke="black" points="196.5,-67.5 196.5,-97.5 313.5,-97.5 313.5,-67.5 196.5,-67.5"/>
<text text-anchor="start" x="204.5" y="-85.5" font-family="Helvetica,sans-Serif" font-size="10.00">include/wld/Features</text>
<text text-anchor="middle" x="255" y="-74.5" font-family="Helvetica,sans-Serif" font-size="10.00">/wld_persist.h</text>
</a>
</g>
</g>
<!-- Node2 -->
<g id="node2" class="node">
<title>Node2</title>
<g id="a_node2"><a xlink:href="wld__plugin_8c.html" target="_top" xlink:title=" ">
<polygon fill="white" stroke="black" points="0,-6 0,-25 128,-25 128,-6 0,-6"/>
<text text-anchor="middle" x="64" y="-13" font-family="Helvetica,sans-Serif" font-size="10.00">src/Plugin/wld_plugin.c</text>
</a>
</g>
</g>
<!-- Node1&#45;&gt;Node2 -->
<g id="edge1" class="edge">
<title>Node1&#45;&gt;Node2</title>
<path fill="none" stroke="midnightblue" d="M203.89,-64.11C166.74,-51.46 118.05,-34.89 89,-25.01"/>
<polygon fill="midnightblue" stroke="midnightblue" points="202.96,-67.49 213.56,-67.4 205.22,-60.86 202.96,-67.49"/>
</g>
<!-- Node3 -->
<g id="node3" class="node">
<title>Node3</title>
<g id="a_node3"><a xlink:href="wld__rad__fsm_8c.html" target="_top" xlink:title=" ">
<polygon fill="white" stroke="black" points="146.5,-0.5 146.5,-30.5 259.5,-30.5 259.5,-0.5 146.5,-0.5"/>
<text text-anchor="start" x="154.5" y="-18.5" font-family="Helvetica,sans-Serif" font-size="10.00">src/RadMgt/wld_rad</text>
<text text-anchor="middle" x="203" y="-7.5" font-family="Helvetica,sans-Serif" font-size="10.00">_fsm.c</text>
</a>
</g>
</g>
<!-- Node1&#45;&gt;Node3 -->
<g id="edge2" class="edge">
<title>Node1&#45;&gt;Node3</title>
<path fill="none" stroke="midnightblue" d="M237.36,-59.45C229.72,-49.9 221,-39 214.26,-30.58"/>
<polygon fill="midnightblue" stroke="midnightblue" points="234.74,-61.77 243.72,-67.4 240.2,-57.4 234.74,-61.77"/>
</g>
<!-- Node4 -->
<g id="node4" class="node">
<title>Node4</title>
<g id="a_node4"><a xlink:href="wld_8c.html" target="_top" xlink:title=" ">
<polygon fill="white" stroke="black" points="277.5,-6 277.5,-25 336.5,-25 336.5,-6 277.5,-6"/>
<text text-anchor="middle" x="307" y="-13" font-family="Helvetica,sans-Serif" font-size="10.00">src/wld.c</text>
</a>
</g>
</g>
<!-- Node1&#45;&gt;Node4 -->
<g id="edge3" class="edge">
<title>Node1&#45;&gt;Node4</title>
<path fill="none" stroke="midnightblue" d="M272.75,-59.32C282.12,-47.6 293.09,-33.88 300.04,-25.19"/>
<polygon fill="midnightblue" stroke="midnightblue" points="269.8,-57.4 266.28,-67.4 275.26,-61.77 269.8,-57.4"/>
</g>
<!-- Node5 -->
<g id="node5" class="node">
<title>Node5</title>
<g id="a_node5"><a xlink:href="wld__accesspoint_8c.html" target="_top" xlink:title=" ">
<polygon fill="white" stroke="black" points="355,-6 355,-25 477,-25 477,-6 355,-6"/>
<text text-anchor="middle" x="416" y="-13" font-family="Helvetica,sans-Serif" font-size="10.00">src/wld_accesspoint.c</text>
</a>
</g>
</g>
<!-- Node1&#45;&gt;Node5 -->
<g id="edge4" class="edge">
<title>Node1&#45;&gt;Node5</title>
<path fill="none" stroke="midnightblue" d="M299.28,-63.62C330.45,-51.04 370.76,-34.77 394.93,-25.01"/>
<polygon fill="midnightblue" stroke="midnightblue" points="297.9,-60.41 289.93,-67.4 300.52,-66.9 297.9,-60.41"/>
</g>
</g>
</svg>
