<?xml version="1.0" encoding="UTF-8" standalone="no"?>
<!DOCTYPE svg PUBLIC "-//W3C//DTD SVG 1.1//EN"
 "http://www.w3.org/Graphics/SVG/1.1/DTD/svg11.dtd">
<!-- Generated by graphviz version 2.43.0 (0)
 -->
<!-- Title: wld_secDmnGrp_getMemberByPos Pages: 1 -->
<svg width="826pt" height="66pt"
 viewBox="0.00 0.00 826.00 66.00" xmlns="http://www.w3.org/2000/svg" xmlns:xlink="http://www.w3.org/1999/xlink">
<g id="graph0" class="graph" transform="scale(1 1) rotate(0) translate(4 62)">
<title>wld_secDmnGrp_getMemberByPos</title>
<polygon fill="white" stroke="transparent" points="-4,4 -4,-62 822,-62 822,4 -4,4"/>
<!-- Node1 -->
<g id="node1" class="node">
<title>Node1</title>
<g id="a_node1"><a xlink:title=" ">
<polygon fill="#bfbfbf" stroke="black" points="630,-19.5 630,-38.5 818,-38.5 818,-19.5 630,-19.5"/>
<text text-anchor="middle" x="724" y="-26.5" font-family="Helvetica,sans-Serif" font-size="10.00">wld_secDmnGrp_getMemberByPos</text>
</a>
</g>
</g>
<!-- Node2 -->
<g id="node2" class="node">
<title>Node2</title>
<g id="a_node2"><a xlink:href="wld__secDmn_8c.html#af259fc7fdc2eb62b9d2b531ef92b6536" target="_top" xlink:title=" ">
<polygon fill="white" stroke="black" points="423,-38.5 423,-57.5 594,-57.5 594,-38.5 423,-38.5"/>
<text text-anchor="middle" x="508.5" y="-45.5" font-family="Helvetica,sans-Serif" font-size="10.00">wld_secDmn_getCfgParamSupp</text>
</a>
</g>
</g>
<!-- Node1&#45;&gt;Node2 -->
<g id="edge1" class="edge">
<title>Node1&#45;&gt;Node2</title>
<path fill="none" stroke="midnightblue" d="M619.89,-38.18C611.26,-38.94 602.61,-39.71 594.15,-40.47"/>
<polygon fill="midnightblue" stroke="midnightblue" points="620.33,-41.65 629.98,-37.28 619.71,-34.68 620.33,-41.65"/>
</g>
<!-- Node4 -->
<g id="node4" class="node">
<title>Node4</title>
<g id="a_node4"><a xlink:href="wld__secDmn_8c.html#a195c507517bc352d7a1b33c39ec94594" target="_top" xlink:title=" ">
<polygon fill="white" stroke="black" points="435.5,-0.5 435.5,-19.5 581.5,-19.5 581.5,-0.5 435.5,-0.5"/>
<text text-anchor="middle" x="508.5" y="-7.5" font-family="Helvetica,sans-Serif" font-size="10.00">wld_secDmn_getCmdSupp</text>
</a>
</g>
</g>
<!-- Node1&#45;&gt;Node4 -->
<g id="edge3" class="edge">
<title>Node1&#45;&gt;Node4</title>
<path fill="none" stroke="midnightblue" d="M619.69,-19.81C606.84,-18.66 593.91,-17.51 581.67,-16.42"/>
<polygon fill="midnightblue" stroke="midnightblue" points="619.71,-23.32 629.98,-20.72 620.33,-16.35 619.71,-23.32"/>
</g>
<!-- Node3 -->
<g id="node3" class="node">
<title>Node3</title>
<g id="a_node3"><a xlink:href="wld__rad__hostapd__api_8c.html#ae96e7d77d8d387f1933ecb6a3b8fe89e" target="_top" xlink:title=" ">
<polygon fill="white" stroke="black" points="196,-38.5 196,-57.5 387,-57.5 387,-38.5 196,-38.5"/>
<text text-anchor="middle" x="291.5" y="-45.5" font-family="Helvetica,sans-Serif" font-size="10.00">wld_rad_hostapd_getCfgParamSupp</text>
</a>
</g>
</g>
<!-- Node2&#45;&gt;Node3 -->
<g id="edge2" class="edge">
<title>Node2&#45;&gt;Node3</title>
<path fill="none" stroke="midnightblue" d="M412.56,-48C404.09,-48 395.51,-48 387.03,-48"/>
<polygon fill="midnightblue" stroke="midnightblue" points="412.83,-51.5 422.83,-48 412.83,-44.5 412.83,-51.5"/>
</g>
<!-- Node5 -->
<g id="node5" class="node">
<title>Node5</title>
<g id="a_node5"><a xlink:href="wld__rad__hostapd__api_8c.html#a848163f8651e518db2503acba24262c2" target="_top" xlink:title="reconfigure hostapd from file">
<polygon fill="white" stroke="black" points="212,-0.5 212,-19.5 371,-19.5 371,-0.5 212,-0.5"/>
<text text-anchor="middle" x="291.5" y="-7.5" font-family="Helvetica,sans-Serif" font-size="10.00">wld_rad_hostapd_reconfigure</text>
</a>
</g>
</g>
<!-- Node4&#45;&gt;Node5 -->
<g id="edge4" class="edge">
<title>Node4&#45;&gt;Node5</title>
<path fill="none" stroke="midnightblue" d="M425.02,-10C407.33,-10 388.69,-10 371.15,-10"/>
<polygon fill="midnightblue" stroke="midnightblue" points="425.31,-13.5 435.31,-10 425.31,-6.5 425.31,-13.5"/>
</g>
<!-- Node6 -->
<g id="node6" class="node">
<title>Node6</title>
<g id="a_node6"><a xlink:href="wifiGen__hapd_8c.html#a3316988b243476f9ae97626a068d4d04" target="_top" xlink:title=" ">
<polygon fill="white" stroke="black" points="0,-0.5 0,-19.5 160,-19.5 160,-0.5 0,-0.5"/>
<text text-anchor="middle" x="80" y="-7.5" font-family="Helvetica,sans-Serif" font-size="10.00">wifiGen_hapd_reloadDaemon</text>
</a>
</g>
</g>
<!-- Node5&#45;&gt;Node6 -->
<g id="edge5" class="edge">
<title>Node5&#45;&gt;Node6</title>
<path fill="none" stroke="midnightblue" d="M201.86,-10C187.98,-10 173.7,-10 160.05,-10"/>
<polygon fill="midnightblue" stroke="midnightblue" points="201.89,-13.5 211.89,-10 201.89,-6.5 201.89,-13.5"/>
</g>
</g>
</svg>
