<?xml version="1.0" encoding="UTF-8" standalone="no"?>
<!DOCTYPE svg PUBLIC "-//W3C//DTD SVG 1.1//EN"
 "http://www.w3.org/Graphics/SVG/1.1/DTD/svg11.dtd">
<!-- Generated by graphviz version 2.43.0 (0)
 -->
<!-- Title: wld_chanmgt_getTgtChspec Pages: 1 -->
<svg width="570pt" height="129pt"
 viewBox="0.00 0.00 570.00 129.00" xmlns="http://www.w3.org/2000/svg" xmlns:xlink="http://www.w3.org/1999/xlink">
<g id="graph0" class="graph" transform="scale(1 1) rotate(0) translate(4 125)">
<title>wld_chanmgt_getTgtChspec</title>
<polygon fill="white" stroke="transparent" points="-4,4 -4,-125 566,-125 566,4 -4,4"/>
<!-- Node1 -->
<g id="node1" class="node">
<title>Node1</title>
<g id="a_node1"><a xlink:title=" ">
<polygon fill="#bfbfbf" stroke="black" points="408,-63.5 408,-82.5 562,-82.5 562,-63.5 408,-63.5"/>
<text text-anchor="middle" x="485" y="-70.5" font-family="Helvetica,sans-Serif" font-size="10.00">wld_chanmgt_getTgtChspec</text>
</a>
</g>
</g>
<!-- Node2 -->
<g id="node2" class="node">
<title>Node2</title>
<g id="a_node2"><a xlink:href="wld__chanmgt_8c.html#a5cf35f4e70b1228e01dff23f937e0d32" target="_top" xlink:title=" ">
<polygon fill="white" stroke="black" points="226,-101.5 226,-120.5 360,-120.5 360,-101.5 226,-101.5"/>
<text text-anchor="middle" x="293" y="-108.5" font-family="Helvetica,sans-Serif" font-size="10.00">wld_chanmgt_getTgtBw</text>
</a>
</g>
</g>
<!-- Node1&#45;&gt;Node2 -->
<g id="edge1" class="edge">
<title>Node1&#45;&gt;Node2</title>
<path fill="none" stroke="midnightblue" d="M425.95,-84.61C398.93,-90.01 367.18,-96.36 341.6,-101.48"/>
<polygon fill="midnightblue" stroke="midnightblue" points="426.94,-87.98 436.05,-82.59 425.56,-81.12 426.94,-87.98"/>
</g>
<!-- Node3 -->
<g id="node3" class="node">
<title>Node3</title>
<g id="a_node3"><a xlink:href="wld__chanmgt_8c.html#a44f888fa44ed7293c7048d5ebe83cbad" target="_top" xlink:title=" ">
<polygon fill="white" stroke="black" points="214,-63.5 214,-82.5 372,-82.5 372,-63.5 214,-63.5"/>
<text text-anchor="middle" x="293" y="-70.5" font-family="Helvetica,sans-Serif" font-size="10.00">wld_chanmgt_getTgtChannel</text>
</a>
</g>
</g>
<!-- Node1&#45;&gt;Node3 -->
<g id="edge2" class="edge">
<title>Node1&#45;&gt;Node3</title>
<path fill="none" stroke="midnightblue" d="M397.81,-73C389.23,-73 380.55,-73 372.06,-73"/>
<polygon fill="midnightblue" stroke="midnightblue" points="397.81,-76.5 407.81,-73 397.81,-69.5 397.81,-76.5"/>
</g>
<!-- Node4 -->
<g id="node4" class="node">
<title>Node4</title>
<g id="a_node4"><a xlink:href="wld__hostapd__cfgFile_8c.html#aa4ef0964a05f5b4f72d9c4b2f9046aa4" target="_top" xlink:title="set the radio parameters">
<polygon fill="white" stroke="black" points="235,-14 235,-44 351,-44 351,-14 235,-14"/>
<text text-anchor="start" x="243" y="-32" font-family="Helvetica,sans-Serif" font-size="10.00">wld_hostapd_cfgFile</text>
<text text-anchor="middle" x="293" y="-21" font-family="Helvetica,sans-Serif" font-size="10.00">_setRadioConfig</text>
</a>
</g>
</g>
<!-- Node1&#45;&gt;Node4 -->
<g id="edge3" class="edge">
<title>Node1&#45;&gt;Node4</title>
<path fill="none" stroke="midnightblue" d="M433,-61.19C407.71,-55.33 377.07,-48.24 351,-42.2"/>
<polygon fill="midnightblue" stroke="midnightblue" points="432.24,-64.61 442.77,-63.45 433.82,-57.79 432.24,-64.61"/>
</g>
<!-- Node5 -->
<g id="node5" class="node">
<title>Node5</title>
<g id="a_node5"><a xlink:href="wld__rad__hostapd__api_8c.html#aea42b1d7acee5d51484de01cac65c983" target="_top" xlink:title="set main interface channel parameters">
<polygon fill="white" stroke="black" points="9.5,-38.5 9.5,-57.5 168.5,-57.5 168.5,-38.5 9.5,-38.5"/>
<text text-anchor="middle" x="89" y="-45.5" font-family="Helvetica,sans-Serif" font-size="10.00">wld_rad_hostapd_setChannel</text>
</a>
</g>
</g>
<!-- Node4&#45;&gt;Node5 -->
<g id="edge4" class="edge">
<title>Node4&#45;&gt;Node5</title>
<path fill="none" stroke="midnightblue" d="M224.85,-35.32C206.89,-37.01 187.32,-38.85 168.79,-40.59"/>
<polygon fill="midnightblue" stroke="midnightblue" points="225.3,-38.79 234.92,-34.37 224.64,-31.82 225.3,-38.79"/>
</g>
<!-- Node6 -->
<g id="node6" class="node">
<title>Node6</title>
<g id="a_node6"><a xlink:href="wld__rad__hostapd__api_8c.html#a5411827e8b4ab433c4f62efe4dee6b5e" target="_top" xlink:title=" ">
<polygon fill="white" stroke="black" points="0,-0.5 0,-19.5 178,-19.5 178,-0.5 0,-0.5"/>
<text text-anchor="middle" x="89" y="-7.5" font-family="Helvetica,sans-Serif" font-size="10.00">wld_rad_hostapd_setMiscParams</text>
</a>
</g>
</g>
<!-- Node4&#45;&gt;Node6 -->
<g id="edge5" class="edge">
<title>Node4&#45;&gt;Node6</title>
<path fill="none" stroke="midnightblue" d="M224.8,-22.68C209.89,-21.28 193.88,-19.77 178.27,-18.3"/>
<polygon fill="midnightblue" stroke="midnightblue" points="224.64,-26.18 234.92,-23.63 225.3,-19.21 224.64,-26.18"/>
</g>
</g>
</svg>
