<?xml version="1.0" encoding="UTF-8" standalone="no"?>
<!DOCTYPE svg PUBLIC "-//W3C//DTD SVG 1.1//EN"
 "http://www.w3.org/Graphics/SVG/1.1/DTD/svg11.dtd">
<!-- Generated by graphviz version 2.43.0 (0)
 -->
<!-- Title: wld_rad_nl80211_bgDfsStart Pages: 1 -->
<svg width="940pt" height="280pt"
 viewBox="0.00 0.00 940.00 279.50" xmlns="http://www.w3.org/2000/svg" xmlns:xlink="http://www.w3.org/1999/xlink">
<g id="graph0" class="graph" transform="scale(1 1) rotate(0) translate(4 275.5)">
<title>wld_rad_nl80211_bgDfsStart</title>
<polygon fill="white" stroke="transparent" points="-4,4 -4,-275.5 936,-275.5 936,4 -4,4"/>
<!-- Node1 -->
<g id="node1" class="node">
<title>Node1</title>
<g id="a_node1"><a xlink:title=" ">
<polygon fill="#bfbfbf" stroke="black" points="0,-176 0,-195 156,-195 156,-176 0,-176"/>
<text text-anchor="middle" x="78" y="-183" font-family="Helvetica,sans-Serif" font-size="10.00">wld_rad_nl80211_bgDfsStart</text>
</a>
</g>
</g>
<!-- Node2 -->
<g id="node2" class="node">
<title>Node2</title>
<g id="a_node2"><a xlink:href="wld__nl80211__api_8c.html#a6daf0ff702d48036740aea1225b7ccd7" target="_top" xlink:title=" ">
<polygon fill="white" stroke="black" points="203.5,-214 203.5,-233 338.5,-233 338.5,-214 203.5,-214"/>
<text text-anchor="middle" x="271" y="-221" font-family="Helvetica,sans-Serif" font-size="10.00">wld_nl80211_bgDfsStart</text>
</a>
</g>
</g>
<!-- Node1&#45;&gt;Node2 -->
<g id="edge1" class="edge">
<title>Node1&#45;&gt;Node2</title>
<path fill="none" stroke="midnightblue" d="M127.2,-195.09C152.97,-200.22 184.89,-206.57 212.01,-211.96"/>
<polygon fill="midnightblue" stroke="midnightblue" points="211.66,-215.46 222.15,-213.98 213.02,-208.6 211.66,-215.46"/>
</g>
<!-- Node7 -->
<g id="node7" class="node">
<title>Node7</title>
<g id="a_node7"><a xlink:href="wld__nl80211__core_8c.html#ab89990c364e3256f803e95aee1684407" target="_top" xlink:title=" ">
<polygon fill="white" stroke="black" points="192,-176 192,-195 350,-195 350,-176 192,-176"/>
<text text-anchor="middle" x="271" y="-183" font-family="Helvetica,sans-Serif" font-size="10.00">wld_nl80211_getSharedState</text>
</a>
</g>
</g>
<!-- Node1&#45;&gt;Node7 -->
<g id="edge6" class="edge">
<title>Node1&#45;&gt;Node7</title>
<path fill="none" stroke="midnightblue" d="M156.14,-185.5C164.62,-185.5 173.3,-185.5 181.91,-185.5"/>
<polygon fill="midnightblue" stroke="midnightblue" points="181.95,-189 191.95,-185.5 181.95,-182 181.95,-189"/>
</g>
<!-- Node9 -->
<g id="node9" class="node">
<title>Node9</title>
<g id="a_node9"><a xlink:href="wld__rad__nl80211_8c.html#a207896b46d08b10868e5b33a3c77aaa2" target="_top" xlink:title=" ">
<polygon fill="white" stroke="black" points="200.5,-82.5 200.5,-112.5 341.5,-112.5 341.5,-82.5 200.5,-82.5"/>
<text text-anchor="start" x="208.5" y="-100.5" font-family="Helvetica,sans-Serif" font-size="10.00">wld_rad_nl80211_getFirst</text>
<text text-anchor="middle" x="271" y="-89.5" font-family="Helvetica,sans-Serif" font-size="10.00">EnabledVapLinkInfo</text>
</a>
</g>
</g>
<!-- Node1&#45;&gt;Node9 -->
<g id="edge8" class="edge">
<title>Node1&#45;&gt;Node9</title>
<path fill="none" stroke="midnightblue" d="M99.8,-175.91C130.42,-161.81 188.25,-135.16 227.94,-116.88"/>
<polygon fill="midnightblue" stroke="midnightblue" points="229.49,-120.02 237.11,-112.66 226.56,-113.66 229.49,-120.02"/>
</g>
<!-- Node3 -->
<g id="node3" class="node">
<title>Node3</title>
<g id="a_node3"><a xlink:href="wld__nl80211__utils_8c.html#a7356918508d628219ed57cad5ef6444c" target="_top" xlink:title=" ">
<polygon fill="white" stroke="black" points="414.5,-252 414.5,-271 550.5,-271 550.5,-252 414.5,-252"/>
<text text-anchor="middle" x="482.5" y="-259" font-family="Helvetica,sans-Serif" font-size="10.00">wld_nl80211_bwSwlToNl</text>
</a>
</g>
</g>
<!-- Node2&#45;&gt;Node3 -->
<g id="edge2" class="edge">
<title>Node2&#45;&gt;Node3</title>
<path fill="none" stroke="midnightblue" d="M324.6,-233.04C353.24,-238.23 388.86,-244.7 418.92,-250.15"/>
<polygon fill="midnightblue" stroke="midnightblue" points="418.42,-253.62 428.88,-251.96 419.67,-246.73 418.42,-253.62"/>
</g>
<!-- Node4 -->
<g id="node4" class="node">
<title>Node4</title>
<g id="a_node4"><a xlink:href="wld__nl80211__core_8c.html#a2f124c7a531325213fab90ab2a181035" target="_top" xlink:title=" ">
<polygon fill="white" stroke="black" points="386,-214 386,-233 579,-233 579,-214 386,-214"/>
<text text-anchor="middle" x="482.5" y="-221" font-family="Helvetica,sans-Serif" font-size="10.00">wld_nl80211_sendCmdSyncWithAck</text>
</a>
</g>
</g>
<!-- Node2&#45;&gt;Node4 -->
<g id="edge3" class="edge">
<title>Node2&#45;&gt;Node4</title>
<path fill="none" stroke="midnightblue" d="M338.57,-223.5C350.39,-223.5 362.96,-223.5 375.55,-223.5"/>
<polygon fill="midnightblue" stroke="midnightblue" points="375.64,-227 385.64,-223.5 375.64,-220 375.64,-227"/>
</g>
<!-- Node5 -->
<g id="node5" class="node">
<title>Node5</title>
<g id="a_node5"><a xlink:href="wld__nl80211__core_8c.html#a51795ba7297b263584b02e6dd2d8ddb6" target="_top" xlink:title=" ">
<polygon fill="white" stroke="black" points="615,-214 615,-233 767,-233 767,-214 615,-214"/>
<text text-anchor="middle" x="691" y="-221" font-family="Helvetica,sans-Serif" font-size="10.00">wld_nl80211_sendCmdSync</text>
</a>
</g>
</g>
<!-- Node4&#45;&gt;Node5 -->
<g id="edge4" class="edge">
<title>Node4&#45;&gt;Node5</title>
<path fill="none" stroke="midnightblue" d="M579.19,-223.5C587.67,-223.5 596.21,-223.5 604.6,-223.5"/>
<polygon fill="midnightblue" stroke="midnightblue" points="604.72,-227 614.72,-223.5 604.72,-220 604.72,-227"/>
</g>
<!-- Node6 -->
<g id="node6" class="node">
<title>Node6</title>
<g id="a_node6"><a xlink:href="wld__nl80211__core_8c.html#a3c5a525596463f925b95bbc76036d07e" target="_top" xlink:title=" ">
<polygon fill="white" stroke="black" points="803,-214 803,-233 932,-233 932,-214 803,-214"/>
<text text-anchor="middle" x="867.5" y="-221" font-family="Helvetica,sans-Serif" font-size="10.00">wld_nl80211_sendCmd</text>
</a>
</g>
</g>
<!-- Node5&#45;&gt;Node6 -->
<g id="edge5" class="edge">
<title>Node5&#45;&gt;Node6</title>
<path fill="none" stroke="midnightblue" d="M767.02,-223.5C775.49,-223.5 784.12,-223.5 792.57,-223.5"/>
<polygon fill="midnightblue" stroke="midnightblue" points="792.78,-227 802.78,-223.5 792.78,-220 792.78,-227"/>
</g>
<!-- Node8 -->
<g id="node8" class="node">
<title>Node8</title>
<g id="a_node8"><a xlink:href="wld__nl80211__core_8c.html#ac64e98962155641a465909b3c8fc0779" target="_top" xlink:title=" ">
<polygon fill="white" stroke="black" points="440,-176 440,-195 525,-195 525,-176 440,-176"/>
<text text-anchor="middle" x="482.5" y="-183" font-family="Helvetica,sans-Serif" font-size="10.00">s_isValidState</text>
</a>
</g>
</g>
<!-- Node7&#45;&gt;Node8 -->
<g id="edge7" class="edge">
<title>Node7&#45;&gt;Node8</title>
<path fill="none" stroke="midnightblue" d="M350.01,-185.5C376.56,-185.5 405.57,-185.5 429.57,-185.5"/>
<polygon fill="midnightblue" stroke="midnightblue" points="429.87,-189 439.87,-185.5 429.87,-182 429.87,-189"/>
</g>
<!-- Node10 -->
<g id="node10" class="node">
<title>Node10</title>
<g id="a_node10"><a xlink:href="wld__radio_8c.html#ae211359fd0e7548777cf5bd312ffb8c3" target="_top" xlink:title=" ">
<polygon fill="white" stroke="black" points="402.5,-126.5 402.5,-156.5 562.5,-156.5 562.5,-126.5 402.5,-126.5"/>
<text text-anchor="start" x="410.5" y="-144.5" font-family="Helvetica,sans-Serif" font-size="10.00">wld_rad_getFirstEnabledIface</text>
<text text-anchor="middle" x="482.5" y="-133.5" font-family="Helvetica,sans-Serif" font-size="10.00">Index</text>
</a>
</g>
</g>
<!-- Node9&#45;&gt;Node10 -->
<g id="edge9" class="edge">
<title>Node9&#45;&gt;Node10</title>
<path fill="none" stroke="midnightblue" d="M341.76,-112.15C360.41,-116.07 380.73,-120.34 399.96,-124.37"/>
<polygon fill="midnightblue" stroke="midnightblue" points="399.39,-127.83 409.9,-126.46 400.83,-120.98 399.39,-127.83"/>
</g>
<!-- Node11 -->
<g id="node11" class="node">
<title>Node11</title>
<g id="a_node11"><a xlink:href="wld__radio_8c.html#a4e8e6a5073523b748c0ccf4d5cd400be" target="_top" xlink:title=" ">
<polygon fill="white" stroke="black" points="405.5,-88 405.5,-107 559.5,-107 559.5,-88 405.5,-88"/>
<text text-anchor="middle" x="482.5" y="-95" font-family="Helvetica,sans-Serif" font-size="10.00">wld_rad_getFirstEnabledVap</text>
</a>
</g>
</g>
<!-- Node9&#45;&gt;Node11 -->
<g id="edge10" class="edge">
<title>Node9&#45;&gt;Node11</title>
<path fill="none" stroke="midnightblue" d="M341.76,-97.5C358.78,-97.5 377.18,-97.5 394.88,-97.5"/>
<polygon fill="midnightblue" stroke="midnightblue" points="395.2,-101 405.2,-97.5 395.2,-94 395.2,-101"/>
</g>
<!-- Node12 -->
<g id="node12" class="node">
<title>Node12</title>
<g id="a_node12"><a xlink:href="wld__ssid__nl80211_8c.html#a2b7bf017bd3b5539305a585d203add46" target="_top" xlink:title=" ">
<polygon fill="white" stroke="black" points="397,-50 397,-69 568,-69 568,-50 397,-50"/>
<text text-anchor="middle" x="482.5" y="-57" font-family="Helvetica,sans-Serif" font-size="10.00">wld_ssid_nl80211_getMldLinkId</text>
</a>
</g>
</g>
<!-- Node9&#45;&gt;Node12 -->
<g id="edge11" class="edge">
<title>Node9&#45;&gt;Node12</title>
<path fill="none" stroke="midnightblue" d="M341.76,-84.85C366.65,-80.33 394.52,-75.28 418.79,-70.88"/>
<polygon fill="midnightblue" stroke="midnightblue" points="419.73,-74.26 428.94,-69.03 418.48,-67.37 419.73,-74.26"/>
</g>
<!-- Node13 -->
<g id="node13" class="node">
<title>Node13</title>
<g id="a_node13"><a xlink:href="wld__ssid__nl80211_8c.html#a5ed483fe8b7a472d3064f95daf9c1db7" target="_top" xlink:title=" ">
<polygon fill="white" stroke="black" points="401.5,-0.5 401.5,-30.5 563.5,-30.5 563.5,-0.5 401.5,-0.5"/>
<text text-anchor="start" x="409.5" y="-18.5" font-family="Helvetica,sans-Serif" font-size="10.00">wld_ssid_nl80211_getPrimary</text>
<text text-anchor="middle" x="482.5" y="-7.5" font-family="Helvetica,sans-Serif" font-size="10.00">LinkIfIndex</text>
</a>
</g>
</g>
<!-- Node9&#45;&gt;Node13 -->
<g id="edge12" class="edge">
<title>Node9&#45;&gt;Node13</title>
<path fill="none" stroke="midnightblue" d="M298.47,-82.29C321.13,-69.75 354.93,-52.19 386,-40.5 392.73,-37.97 399.81,-35.6 406.96,-33.4"/>
<polygon fill="midnightblue" stroke="midnightblue" points="408.12,-36.71 416.71,-30.51 406.13,-29.99 408.12,-36.71"/>
</g>
</g>
</svg>
