<?xml version="1.0" encoding="UTF-8" standalone="no"?>
<!DOCTYPE svg PUBLIC "-//W3C//DTD SVG 1.1//EN"
 "http://www.w3.org/Graphics/SVG/1.1/DTD/svg11.dtd">
<!-- Generated by graphviz version 2.43.0 (0)
 -->
<!-- Title: include/wld/wld_nl80211_attr.h Pages: 1 -->
<svg width="2832pt" height="240pt"
 viewBox="0.00 0.00 2831.50 240.00" xmlns="http://www.w3.org/2000/svg" xmlns:xlink="http://www.w3.org/1999/xlink">
<g id="graph0" class="graph" transform="scale(1 1) rotate(0) translate(4 236)">
<title>include/wld/wld_nl80211_attr.h</title>
<polygon fill="white" stroke="transparent" points="-4,4 -4,-236 2827.5,-236 2827.5,4 -4,4"/>
<!-- Node1 -->
<g id="node1" class="node">
<title>Node1</title>
<g id="a_node1"><a xlink:title=" ">
<polygon fill="#bfbfbf" stroke="black" points="2113.5,-201.5 2113.5,-231.5 2250.5,-231.5 2250.5,-201.5 2113.5,-201.5"/>
<text text-anchor="start" x="2121.5" y="-219.5" font-family="Helvetica,sans-Serif" font-size="10.00">include/wld/wld_nl80211</text>
<text text-anchor="middle" x="2182" y="-208.5" font-family="Helvetica,sans-Serif" font-size="10.00">_attr.h</text>
</a>
</g>
</g>
<!-- Node2 -->
<g id="node2" class="node">
<title>Node2</title>
<g id="a_node2"><a xlink:href="wld__nl80211__api_8h.html" target="_top" xlink:title=" ">
<polygon fill="white" stroke="black" points="1536.5,-134.5 1536.5,-164.5 1673.5,-164.5 1673.5,-134.5 1536.5,-134.5"/>
<text text-anchor="start" x="1544.5" y="-152.5" font-family="Helvetica,sans-Serif" font-size="10.00">include/wld/wld_nl80211</text>
<text text-anchor="middle" x="1605" y="-141.5" font-family="Helvetica,sans-Serif" font-size="10.00">_api.h</text>
</a>
</g>
</g>
<!-- Node1&#45;&gt;Node2 -->
<g id="edge1" class="edge">
<title>Node1&#45;&gt;Node2</title>
<path fill="none" stroke="midnightblue" d="M2103.23,-206.63C1989.59,-193.83 1781.49,-170.38 1673.74,-158.24"/>
<polygon fill="midnightblue" stroke="midnightblue" points="2102.93,-210.11 2113.26,-207.76 2103.71,-203.16 2102.93,-210.11"/>
</g>
<!-- Node26 -->
<g id="node26" class="node">
<title>Node26</title>
<g id="a_node26"><a xlink:href="wld__nl80211__attr_8c.html" target="_top" xlink:title=" ">
<polygon fill="white" stroke="black" points="2066.5,-0.5 2066.5,-30.5 2203.5,-30.5 2203.5,-0.5 2066.5,-0.5"/>
<text text-anchor="start" x="2074.5" y="-18.5" font-family="Helvetica,sans-Serif" font-size="10.00">src/nl80211/wld_nl80211</text>
<text text-anchor="middle" x="2135" y="-7.5" font-family="Helvetica,sans-Serif" font-size="10.00">_attr.c</text>
</a>
</g>
</g>
<!-- Node1&#45;&gt;Node26 -->
<g id="edge47" class="edge">
<title>Node1&#45;&gt;Node26</title>
<path fill="none" stroke="midnightblue" d="M2166.78,-192.41C2161.96,-184.08 2157.09,-174.41 2154,-165 2138.46,-117.58 2135.54,-57.76 2135.05,-30.81"/>
<polygon fill="midnightblue" stroke="midnightblue" points="2163.92,-194.43 2172.11,-201.15 2169.9,-190.79 2163.92,-194.43"/>
</g>
<!-- Node28 -->
<g id="node28" class="node">
<title>Node28</title>
<g id="a_node28"><a xlink:href="wld__nl80211__api__priv_8h.html" target="_top" xlink:title=" ">
<polygon fill="white" stroke="black" points="2163,-134.5 2163,-164.5 2297,-164.5 2297,-134.5 2163,-134.5"/>
<text text-anchor="start" x="2171" y="-152.5" font-family="Helvetica,sans-Serif" font-size="10.00">include_priv/nl80211</text>
<text text-anchor="middle" x="2230" y="-141.5" font-family="Helvetica,sans-Serif" font-size="10.00">/wld_nl80211_api_priv.h</text>
</a>
</g>
</g>
<!-- Node1&#45;&gt;Node28 -->
<g id="edge37" class="edge">
<title>Node1&#45;&gt;Node28</title>
<path fill="none" stroke="midnightblue" d="M2198.5,-193.16C2205.5,-183.68 2213.44,-172.92 2219.61,-164.58"/>
<polygon fill="midnightblue" stroke="midnightblue" points="2195.54,-191.27 2192.42,-201.4 2201.17,-195.43 2195.54,-191.27"/>
</g>
<!-- Node33 -->
<g id="node33" class="node">
<title>Node33</title>
<g id="a_node33"><a xlink:href="wld__nl80211__core_8c.html" target="_top" xlink:title=" ">
<polygon fill="white" stroke="black" points="2385.5,-67.5 2385.5,-97.5 2522.5,-97.5 2522.5,-67.5 2385.5,-67.5"/>
<text text-anchor="start" x="2393.5" y="-85.5" font-family="Helvetica,sans-Serif" font-size="10.00">src/nl80211/wld_nl80211</text>
<text text-anchor="middle" x="2454" y="-74.5" font-family="Helvetica,sans-Serif" font-size="10.00">_core.c</text>
</a>
</g>
</g>
<!-- Node1&#45;&gt;Node33 -->
<g id="edge48" class="edge">
<title>Node1&#45;&gt;Node33</title>
<path fill="none" stroke="midnightblue" d="M2229.02,-197.84C2252.44,-188.68 2281.01,-176.92 2306,-165 2351.01,-143.53 2401.5,-114.64 2430.35,-97.65"/>
<polygon fill="midnightblue" stroke="midnightblue" points="2227.72,-194.6 2219.66,-201.48 2230.25,-201.12 2227.72,-194.6"/>
</g>
<!-- Node3 -->
<g id="node3" class="node">
<title>Node3</title>
<g id="a_node3"><a xlink:href="wld__ap__nl80211_8h.html" target="_top" xlink:title=" ">
<polygon fill="white" stroke="black" points="1144,-67.5 1144,-97.5 1254,-97.5 1254,-67.5 1144,-67.5"/>
<text text-anchor="start" x="1152" y="-85.5" font-family="Helvetica,sans-Serif" font-size="10.00">include/wld/wld_ap</text>
<text text-anchor="middle" x="1199" y="-74.5" font-family="Helvetica,sans-Serif" font-size="10.00">_nl80211.h</text>
</a>
</g>
</g>
<!-- Node2&#45;&gt;Node3 -->
<g id="edge2" class="edge">
<title>Node2&#45;&gt;Node3</title>
<path fill="none" stroke="midnightblue" d="M1526.29,-138.61C1456.79,-129.47 1352.83,-114.78 1263,-98 1260.09,-97.46 1257.11,-96.87 1254.1,-96.26"/>
<polygon fill="midnightblue" stroke="midnightblue" points="1525.92,-142.09 1536.29,-139.92 1526.83,-135.15 1525.92,-142.09"/>
</g>
<!-- Node10 -->
<g id="node10" class="node">
<title>Node10</title>
<g id="a_node10"><a xlink:href="wld__ep__nl80211_8h.html" target="_top" xlink:title=" ">
<polygon fill="white" stroke="black" points="1550,-67.5 1550,-97.5 1660,-97.5 1660,-67.5 1550,-67.5"/>
<text text-anchor="start" x="1558" y="-85.5" font-family="Helvetica,sans-Serif" font-size="10.00">include/wld/wld_ep</text>
<text text-anchor="middle" x="1605" y="-74.5" font-family="Helvetica,sans-Serif" font-size="10.00">_nl80211.h</text>
</a>
</g>
</g>
<!-- Node2&#45;&gt;Node10 -->
<g id="edge9" class="edge">
<title>Node2&#45;&gt;Node10</title>
<path fill="none" stroke="midnightblue" d="M1605,-124.11C1605,-115.15 1605,-105.32 1605,-97.58"/>
<polygon fill="midnightblue" stroke="midnightblue" points="1601.5,-124.4 1605,-134.4 1608.5,-124.4 1601.5,-124.4"/>
</g>
<!-- Node12 -->
<g id="node12" class="node">
<title>Node12</title>
<g id="a_node12"><a xlink:href="wld__rad__nl80211_8h.html" target="_top" xlink:title=" ">
<polygon fill="white" stroke="black" points="822.5,-67.5 822.5,-97.5 935.5,-97.5 935.5,-67.5 822.5,-67.5"/>
<text text-anchor="start" x="830.5" y="-85.5" font-family="Helvetica,sans-Serif" font-size="10.00">include/wld/wld_rad</text>
<text text-anchor="middle" x="879" y="-74.5" font-family="Helvetica,sans-Serif" font-size="10.00">_nl80211.h</text>
</a>
</g>
</g>
<!-- Node2&#45;&gt;Node12 -->
<g id="edge12" class="edge">
<title>Node2&#45;&gt;Node12</title>
<path fill="none" stroke="midnightblue" d="M1526.05,-141.43C1378.57,-128.23 1064.55,-100.11 935.84,-88.59"/>
<polygon fill="midnightblue" stroke="midnightblue" points="1526.1,-144.95 1536.37,-142.36 1526.72,-137.98 1526.1,-144.95"/>
</g>
<!-- Node13 -->
<g id="node13" class="node">
<title>Node13</title>
<g id="a_node13"><a xlink:href="wifiGen_8c.html" target="_top" xlink:title=" ">
<polygon fill="white" stroke="black" points="0,-6 0,-25 112,-25 112,-6 0,-6"/>
<text text-anchor="middle" x="56" y="-13" font-family="Helvetica,sans-Serif" font-size="10.00">src/Plugin/wifiGen.c</text>
</a>
</g>
</g>
<!-- Node2&#45;&gt;Node13 -->
<g id="edge32" class="edge">
<title>Node2&#45;&gt;Node13</title>
<path fill="none" stroke="midnightblue" d="M1525.86,-146.63C1303.27,-140.42 653.31,-115.81 121,-31 111.07,-29.42 100.38,-27.24 90.59,-25.04"/>
<polygon fill="midnightblue" stroke="midnightblue" points="1526.04,-150.13 1536.13,-146.91 1526.23,-143.14 1526.04,-150.13"/>
</g>
<!-- Node21 -->
<g id="node21" class="node">
<title>Node21</title>
<g id="a_node21"><a xlink:href="wld__ssid__nl80211__priv_8h.html" target="_top" xlink:title=" ">
<polygon fill="white" stroke="black" points="1678,-67.5 1678,-97.5 1816,-97.5 1816,-67.5 1678,-67.5"/>
<text text-anchor="start" x="1686" y="-85.5" font-family="Helvetica,sans-Serif" font-size="10.00">include_priv/nl80211</text>
<text text-anchor="middle" x="1747" y="-74.5" font-family="Helvetica,sans-Serif" font-size="10.00">/wld_ssid_nl80211_priv.h</text>
</a>
</g>
</g>
<!-- Node2&#45;&gt;Node21 -->
<g id="edge26" class="edge">
<title>Node2&#45;&gt;Node21</title>
<path fill="none" stroke="midnightblue" d="M1645.13,-130.13C1667.69,-119.8 1695.42,-107.11 1716.25,-97.58"/>
<polygon fill="midnightblue" stroke="midnightblue" points="1643.45,-127.05 1635.81,-134.4 1646.36,-133.42 1643.45,-127.05"/>
</g>
<!-- Node23 -->
<g id="node23" class="node">
<title>Node23</title>
<g id="a_node23"><a xlink:href="wld__zwdfs_8c.html" target="_top" xlink:title=" ">
<polygon fill="white" stroke="black" points="1272,-67.5 1272,-97.5 1410,-97.5 1410,-67.5 1272,-67.5"/>
<text text-anchor="start" x="1280" y="-85.5" font-family="Helvetica,sans-Serif" font-size="10.00">src/ChannelManagement</text>
<text text-anchor="middle" x="1341" y="-74.5" font-family="Helvetica,sans-Serif" font-size="10.00">/wld_zwdfs.c</text>
</a>
</g>
</g>
<!-- Node2&#45;&gt;Node23 -->
<g id="edge31" class="edge">
<title>Node2&#45;&gt;Node23</title>
<path fill="none" stroke="midnightblue" d="M1538.19,-132.05C1495.03,-121.43 1439.46,-107.74 1398.31,-97.61"/>
<polygon fill="midnightblue" stroke="midnightblue" points="1537.49,-135.48 1548.04,-134.48 1539.17,-128.69 1537.49,-135.48"/>
</g>
<!-- Node24 -->
<g id="node24" class="node">
<title>Node24</title>
<g id="a_node24"><a xlink:href="wifiGen__mld_8c.html" target="_top" xlink:title=" ">
<polygon fill="white" stroke="black" points="1428,-67.5 1428,-97.5 1532,-97.5 1532,-67.5 1428,-67.5"/>
<text text-anchor="start" x="1436" y="-85.5" font-family="Helvetica,sans-Serif" font-size="10.00">src/Plugin/wifiGen</text>
<text text-anchor="middle" x="1480" y="-74.5" font-family="Helvetica,sans-Serif" font-size="10.00">_mld.c</text>
</a>
</g>
</g>
<!-- Node2&#45;&gt;Node24 -->
<g id="edge33" class="edge">
<title>Node2&#45;&gt;Node24</title>
<path fill="none" stroke="midnightblue" d="M1568.87,-129.71C1549.16,-119.46 1525.16,-106.98 1507.07,-97.58"/>
<polygon fill="midnightblue" stroke="midnightblue" points="1567.39,-132.89 1577.88,-134.4 1570.62,-126.68 1567.39,-132.89"/>
</g>
<!-- Node25 -->
<g id="node25" class="node">
<title>Node25</title>
<g id="a_node25"><a xlink:href="wld__nl80211__api_8c.html" target="_top" xlink:title=" ">
<polygon fill="white" stroke="black" points="2221.5,-0.5 2221.5,-30.5 2358.5,-30.5 2358.5,-0.5 2221.5,-0.5"/>
<text text-anchor="start" x="2229.5" y="-18.5" font-family="Helvetica,sans-Serif" font-size="10.00">src/nl80211/wld_nl80211</text>
<text text-anchor="middle" x="2290" y="-7.5" font-family="Helvetica,sans-Serif" font-size="10.00">_api.c</text>
</a>
</g>
</g>
<!-- Node2&#45;&gt;Node25 -->
<g id="edge34" class="edge">
<title>Node2&#45;&gt;Node25</title>
<path fill="none" stroke="midnightblue" d="M1683.93,-138.78C1741.88,-130.63 1822.17,-117.22 1891,-98 1927.73,-87.75 1934.14,-76.77 1971,-67 2075.69,-39.26 2105.19,-48.9 2212,-31 2214.99,-30.5 2218.04,-29.98 2221.12,-29.44"/>
<polygon fill="midnightblue" stroke="midnightblue" points="1683.16,-135.36 1673.74,-140.19 1684.12,-142.29 1683.16,-135.36"/>
</g>
<!-- Node2&#45;&gt;Node26 -->
<g id="edge35" class="edge">
<title>Node2&#45;&gt;Node26</title>
<path fill="none" stroke="midnightblue" d="M1681.69,-132.21C1724.1,-122.88 1777.66,-110.54 1825,-98 1871.21,-85.76 1881.87,-79.56 1928,-67 1976.72,-53.74 2032.34,-40.26 2073.64,-30.57"/>
<polygon fill="midnightblue" stroke="midnightblue" points="1680.73,-128.84 1671.71,-134.4 1682.23,-135.68 1680.73,-128.84"/>
</g>
<!-- Node27 -->
<g id="node27" class="node">
<title>Node27</title>
<g id="a_node27"><a xlink:href="test__wld__nl80211_8c.html" target="_top" xlink:title=" ">
<polygon fill="white" stroke="black" points="1980,-67.5 1980,-97.5 2102,-97.5 2102,-67.5 1980,-67.5"/>
<text text-anchor="start" x="1988" y="-85.5" font-family="Helvetica,sans-Serif" font-size="10.00">test/wld_nl80211/test</text>
<text text-anchor="middle" x="2041" y="-74.5" font-family="Helvetica,sans-Serif" font-size="10.00">_wld_nl80211.c</text>
</a>
</g>
</g>
<!-- Node2&#45;&gt;Node27 -->
<g id="edge36" class="edge">
<title>Node2&#45;&gt;Node27</title>
<path fill="none" stroke="midnightblue" d="M1683.92,-137.74C1755.11,-127.9 1862.67,-112.67 1956,-98 1963.69,-96.79 1971.76,-95.48 1979.75,-94.15"/>
<polygon fill="midnightblue" stroke="midnightblue" points="1683.11,-134.32 1673.68,-139.16 1684.07,-141.26 1683.11,-134.32"/>
</g>
<!-- Node4 -->
<g id="node4" class="node">
<title>Node4</title>
<g id="a_node4"><a xlink:href="wifiGen__eventHandlers_8c.html" target="_top" xlink:title=" ">
<polygon fill="white" stroke="black" points="1010,-0.5 1010,-30.5 1114,-30.5 1114,-0.5 1010,-0.5"/>
<text text-anchor="start" x="1018" y="-18.5" font-family="Helvetica,sans-Serif" font-size="10.00">src/Plugin/wifiGen</text>
<text text-anchor="middle" x="1062" y="-7.5" font-family="Helvetica,sans-Serif" font-size="10.00">_eventHandlers.c</text>
</a>
</g>
</g>
<!-- Node3&#45;&gt;Node4 -->
<g id="edge3" class="edge">
<title>Node3&#45;&gt;Node4</title>
<path fill="none" stroke="midnightblue" d="M1159.99,-62.99C1138.28,-52.69 1111.67,-40.07 1091.67,-30.58"/>
<polygon fill="midnightblue" stroke="midnightblue" points="1158.74,-66.27 1169.27,-67.4 1161.74,-59.95 1158.74,-66.27"/>
</g>
<!-- Node5 -->
<g id="node5" class="node">
<title>Node5</title>
<g id="a_node5"><a xlink:href="wifiGen__fsm_8c.html" target="_top" xlink:title=" ">
<polygon fill="white" stroke="black" points="888,-0.5 888,-30.5 992,-30.5 992,-0.5 888,-0.5"/>
<text text-anchor="start" x="896" y="-18.5" font-family="Helvetica,sans-Serif" font-size="10.00">src/Plugin/wifiGen</text>
<text text-anchor="middle" x="940" y="-7.5" font-family="Helvetica,sans-Serif" font-size="10.00">_fsm.c</text>
</a>
</g>
</g>
<!-- Node3&#45;&gt;Node5 -->
<g id="edge4" class="edge">
<title>Node3&#45;&gt;Node5</title>
<path fill="none" stroke="midnightblue" d="M1134.04,-65.2C1090.15,-54.18 1032.97,-39.83 992.07,-29.57"/>
<polygon fill="midnightblue" stroke="midnightblue" points="1133.2,-68.6 1143.76,-67.64 1134.91,-61.81 1133.2,-68.6"/>
</g>
<!-- Node6 -->
<g id="node6" class="node">
<title>Node6</title>
<g id="a_node6"><a xlink:href="wifiGen__vap_8c.html" target="_top" xlink:title=" ">
<polygon fill="white" stroke="black" points="1132,-0.5 1132,-30.5 1236,-30.5 1236,-0.5 1132,-0.5"/>
<text text-anchor="start" x="1140" y="-18.5" font-family="Helvetica,sans-Serif" font-size="10.00">src/Plugin/wifiGen</text>
<text text-anchor="middle" x="1184" y="-7.5" font-family="Helvetica,sans-Serif" font-size="10.00">_vap.c</text>
</a>
</g>
</g>
<!-- Node3&#45;&gt;Node6 -->
<g id="edge5" class="edge">
<title>Node3&#45;&gt;Node6</title>
<path fill="none" stroke="midnightblue" d="M1193.44,-57.4C1191.35,-48.37 1189.06,-38.41 1187.25,-30.58"/>
<polygon fill="midnightblue" stroke="midnightblue" points="1190.09,-58.44 1195.75,-67.4 1196.91,-56.87 1190.09,-58.44"/>
</g>
<!-- Node7 -->
<g id="node7" class="node">
<title>Node7</title>
<g id="a_node7"><a xlink:href="wld__ap__nl80211_8c.html" target="_top" xlink:title=" ">
<polygon fill="white" stroke="black" points="1802,-0.5 1802,-30.5 1912,-30.5 1912,-0.5 1802,-0.5"/>
<text text-anchor="start" x="1810" y="-18.5" font-family="Helvetica,sans-Serif" font-size="10.00">src/nl80211/wld_ap</text>
<text text-anchor="middle" x="1857" y="-7.5" font-family="Helvetica,sans-Serif" font-size="10.00">_nl80211.c</text>
</a>
</g>
</g>
<!-- Node3&#45;&gt;Node7 -->
<g id="edge6" class="edge">
<title>Node3&#45;&gt;Node7</title>
<path fill="none" stroke="midnightblue" d="M1264.25,-66.98C1498.42,-33.72 1562.7,-64.7 1793,-31 1795.93,-30.57 1798.93,-30.08 1801.94,-29.54"/>
<polygon fill="midnightblue" stroke="midnightblue" points="1263.45,-63.56 1254.06,-68.46 1264.45,-70.49 1263.45,-63.56"/>
</g>
<!-- Node8 -->
<g id="node8" class="node">
<title>Node8</title>
<g id="a_node8"><a xlink:href="wld__rad__nl80211_8c.html" target="_top" xlink:title=" ">
<polygon fill="white" stroke="black" points="1542,-0.5 1542,-30.5 1656,-30.5 1656,-0.5 1542,-0.5"/>
<text text-anchor="start" x="1550" y="-18.5" font-family="Helvetica,sans-Serif" font-size="10.00">src/nl80211/wld_rad</text>
<text text-anchor="middle" x="1599" y="-7.5" font-family="Helvetica,sans-Serif" font-size="10.00">_nl80211.c</text>
</a>
</g>
</g>
<!-- Node3&#45;&gt;Node8 -->
<g id="edge7" class="edge">
<title>Node3&#45;&gt;Node8</title>
<path fill="none" stroke="midnightblue" d="M1264.03,-66.92C1383.88,-45.92 1416.92,-51.45 1533,-31 1535.89,-30.49 1538.84,-29.94 1541.82,-29.37"/>
<polygon fill="midnightblue" stroke="midnightblue" points="1263.33,-63.49 1254.09,-68.69 1264.55,-70.38 1263.33,-63.49"/>
</g>
<!-- Node9 -->
<g id="node9" class="node">
<title>Node9</title>
<g id="a_node9"><a xlink:href="wld__accesspoint_8c.html" target="_top" xlink:title=" ">
<polygon fill="white" stroke="black" points="1402,-6 1402,-25 1524,-25 1524,-6 1402,-6"/>
<text text-anchor="middle" x="1463" y="-13" font-family="Helvetica,sans-Serif" font-size="10.00">src/wld_accesspoint.c</text>
</a>
</g>
</g>
<!-- Node3&#45;&gt;Node9 -->
<g id="edge8" class="edge">
<title>Node3&#45;&gt;Node9</title>
<path fill="none" stroke="midnightblue" d="M1263.81,-65.54C1315.7,-52.77 1386.5,-35.34 1428.22,-25.06"/>
<polygon fill="midnightblue" stroke="midnightblue" points="1262.89,-62.16 1254.02,-67.95 1264.57,-68.96 1262.89,-62.16"/>
</g>
<!-- Node10&#45;&gt;Node8 -->
<g id="edge11" class="edge">
<title>Node10&#45;&gt;Node8</title>
<path fill="none" stroke="midnightblue" d="M1602.78,-57.4C1601.94,-48.37 1601.02,-38.41 1600.3,-30.58"/>
<polygon fill="midnightblue" stroke="midnightblue" points="1599.29,-57.76 1603.7,-67.4 1606.26,-57.12 1599.29,-57.76"/>
</g>
<!-- Node11 -->
<g id="node11" class="node">
<title>Node11</title>
<g id="a_node11"><a xlink:href="wifiGen__ep_8c.html" target="_top" xlink:title=" ">
<polygon fill="white" stroke="black" points="1254.5,-6 1254.5,-25 1383.5,-25 1383.5,-6 1254.5,-6"/>
<text text-anchor="middle" x="1319" y="-13" font-family="Helvetica,sans-Serif" font-size="10.00">src/Plugin/wifiGen_ep.c</text>
</a>
</g>
</g>
<!-- Node10&#45;&gt;Node11 -->
<g id="edge10" class="edge">
<title>Node10&#45;&gt;Node11</title>
<path fill="none" stroke="midnightblue" d="M1539.92,-66.71C1483.31,-53.84 1403.23,-35.64 1356.65,-25.06"/>
<polygon fill="midnightblue" stroke="midnightblue" points="1539.33,-70.16 1549.86,-68.97 1540.88,-63.34 1539.33,-70.16"/>
</g>
<!-- Node12&#45;&gt;Node4 -->
<g id="edge15" class="edge">
<title>Node12&#45;&gt;Node4</title>
<path fill="none" stroke="midnightblue" d="M928.4,-63.96C957.87,-53.48 994.81,-40.37 1022.37,-30.58"/>
<polygon fill="midnightblue" stroke="midnightblue" points="926.96,-60.75 918.71,-67.4 929.3,-67.35 926.96,-60.75"/>
</g>
<!-- Node12&#45;&gt;Node5 -->
<g id="edge16" class="edge">
<title>Node12&#45;&gt;Node5</title>
<path fill="none" stroke="midnightblue" d="M899.15,-60.02C908.24,-50.34 918.72,-39.17 926.79,-30.58"/>
<polygon fill="midnightblue" stroke="midnightblue" points="896.53,-57.71 892.24,-67.4 901.63,-62.5 896.53,-57.71"/>
</g>
<!-- Node12&#45;&gt;Node6 -->
<g id="edge20" class="edge">
<title>Node12&#45;&gt;Node6</title>
<path fill="none" stroke="midnightblue" d="M945.67,-68.25C994.78,-58.36 1063.15,-44.3 1123,-31 1125.87,-30.36 1128.81,-29.7 1131.78,-29.02"/>
<polygon fill="midnightblue" stroke="midnightblue" points="944.91,-64.83 935.8,-70.23 946.29,-71.69 944.91,-64.83"/>
</g>
<!-- Node12&#45;&gt;Node8 -->
<g id="edge23" class="edge">
<title>Node12&#45;&gt;Node8</title>
<path fill="none" stroke="midnightblue" d="M945.91,-77.52C1089.05,-68.81 1421.1,-47.53 1533,-31 1535.9,-30.57 1538.87,-30.09 1541.85,-29.57"/>
<polygon fill="midnightblue" stroke="midnightblue" points="945.29,-74.05 935.52,-78.15 945.71,-81.04 945.29,-74.05"/>
</g>
<!-- Node12&#45;&gt;Node11 -->
<g id="edge14" class="edge">
<title>Node12&#45;&gt;Node11</title>
<path fill="none" stroke="midnightblue" d="M945.62,-73.45C1019.11,-64.31 1140.76,-48.39 1245,-31 1255.59,-29.23 1266.99,-27.11 1277.59,-25.04"/>
<polygon fill="midnightblue" stroke="midnightblue" points="945.07,-69.99 935.58,-74.7 945.93,-76.94 945.07,-69.99"/>
</g>
<!-- Node12&#45;&gt;Node13 -->
<g id="edge13" class="edge">
<title>Node12&#45;&gt;Node13</title>
<path fill="none" stroke="midnightblue" d="M812.11,-80.47C679.57,-77.68 374.5,-67.5 121,-31 110.7,-29.52 99.61,-27.28 89.56,-25.01"/>
<polygon fill="midnightblue" stroke="midnightblue" points="812.04,-83.97 822.11,-80.68 812.19,-76.97 812.04,-83.97"/>
</g>
<!-- Node14 -->
<g id="node14" class="node">
<title>Node14</title>
<g id="a_node14"><a xlink:href="wifiGen__hapd_8c.html" target="_top" xlink:title=" ">
<polygon fill="white" stroke="black" points="522,-0.5 522,-30.5 626,-30.5 626,-0.5 522,-0.5"/>
<text text-anchor="start" x="530" y="-18.5" font-family="Helvetica,sans-Serif" font-size="10.00">src/Plugin/wifiGen</text>
<text text-anchor="middle" x="574" y="-7.5" font-family="Helvetica,sans-Serif" font-size="10.00">_hapd.c</text>
</a>
</g>
</g>
<!-- Node12&#45;&gt;Node14 -->
<g id="edge17" class="edge">
<title>Node12&#45;&gt;Node14</title>
<path fill="none" stroke="midnightblue" d="M812.33,-68.25C763.22,-58.36 694.85,-44.3 635,-31 632.13,-30.36 629.19,-29.7 626.22,-29.02"/>
<polygon fill="midnightblue" stroke="midnightblue" points="811.71,-71.69 822.2,-70.23 813.09,-64.83 811.71,-71.69"/>
</g>
<!-- Node15 -->
<g id="node15" class="node">
<title>Node15</title>
<g id="a_node15"><a xlink:href="wifiGen__rad_8c.html" target="_top" xlink:title=" ">
<polygon fill="white" stroke="black" points="644,-0.5 644,-30.5 748,-30.5 748,-0.5 644,-0.5"/>
<text text-anchor="start" x="652" y="-18.5" font-family="Helvetica,sans-Serif" font-size="10.00">src/Plugin/wifiGen</text>
<text text-anchor="middle" x="696" y="-7.5" font-family="Helvetica,sans-Serif" font-size="10.00">_rad.c</text>
</a>
</g>
</g>
<!-- Node12&#45;&gt;Node15 -->
<g id="edge18" class="edge">
<title>Node12&#45;&gt;Node15</title>
<path fill="none" stroke="midnightblue" d="M829.6,-63.96C800.13,-53.48 763.19,-40.37 735.63,-30.58"/>
<polygon fill="midnightblue" stroke="midnightblue" points="828.7,-67.35 839.29,-67.4 831.04,-60.75 828.7,-67.35"/>
</g>
<!-- Node16 -->
<g id="node16" class="node">
<title>Node16</title>
<g id="a_node16"><a xlink:href="wifiGen__radIfMgt_8c.html" target="_top" xlink:title=" ">
<polygon fill="white" stroke="black" points="766,-0.5 766,-30.5 870,-30.5 870,-0.5 766,-0.5"/>
<text text-anchor="start" x="774" y="-18.5" font-family="Helvetica,sans-Serif" font-size="10.00">src/Plugin/wifiGen</text>
<text text-anchor="middle" x="818" y="-7.5" font-family="Helvetica,sans-Serif" font-size="10.00">_radIfMgt.c</text>
</a>
</g>
</g>
<!-- Node12&#45;&gt;Node16 -->
<g id="edge19" class="edge">
<title>Node12&#45;&gt;Node16</title>
<path fill="none" stroke="midnightblue" d="M858.85,-60.02C849.76,-50.34 839.28,-39.17 831.21,-30.58"/>
<polygon fill="midnightblue" stroke="midnightblue" points="856.37,-62.5 865.76,-67.4 861.47,-57.71 856.37,-62.5"/>
</g>
<!-- Node17 -->
<g id="node17" class="node">
<title>Node17</title>
<g id="a_node17"><a xlink:href="wld__ep__nl80211_8c.html" target="_top" xlink:title=" ">
<polygon fill="white" stroke="black" points="1674,-0.5 1674,-30.5 1784,-30.5 1784,-0.5 1674,-0.5"/>
<text text-anchor="start" x="1682" y="-18.5" font-family="Helvetica,sans-Serif" font-size="10.00">src/nl80211/wld_ep</text>
<text text-anchor="middle" x="1729" y="-7.5" font-family="Helvetica,sans-Serif" font-size="10.00">_nl80211.c</text>
</a>
</g>
</g>
<!-- Node12&#45;&gt;Node17 -->
<g id="edge21" class="edge">
<title>Node12&#45;&gt;Node17</title>
<path fill="none" stroke="midnightblue" d="M945.7,-77.5C1129.08,-66.48 1629.68,-36.1 1665,-31 1667.93,-30.58 1670.93,-30.09 1673.95,-29.56"/>
<polygon fill="midnightblue" stroke="midnightblue" points="945.41,-74.01 935.64,-78.11 945.83,-81 945.41,-74.01"/>
</g>
<!-- Node18 -->
<g id="node18" class="node">
<title>Node18</title>
<g id="a_node18"><a xlink:href="wld__nl80211__scan_8c.html" target="_top" xlink:title=" ">
<polygon fill="white" stroke="black" points="130.5,-0.5 130.5,-30.5 267.5,-30.5 267.5,-0.5 130.5,-0.5"/>
<text text-anchor="start" x="138.5" y="-18.5" font-family="Helvetica,sans-Serif" font-size="10.00">src/nl80211/wld_nl80211</text>
<text text-anchor="middle" x="199" y="-7.5" font-family="Helvetica,sans-Serif" font-size="10.00">_scan.c</text>
</a>
</g>
</g>
<!-- Node12&#45;&gt;Node18 -->
<g id="edge22" class="edge">
<title>Node12&#45;&gt;Node18</title>
<path fill="none" stroke="midnightblue" d="M812.29,-78.09C700.99,-71.91 470.53,-57.04 277,-31 274,-30.6 270.93,-30.15 267.84,-29.68"/>
<polygon fill="midnightblue" stroke="midnightblue" points="812.18,-81.59 822.36,-78.64 812.56,-74.6 812.18,-81.59"/>
</g>
<!-- Node19 -->
<g id="node19" class="node">
<title>Node19</title>
<g id="a_node19"><a xlink:href="wld__assocdev_8c.html" target="_top" xlink:title=" ">
<polygon fill="white" stroke="black" points="286,-6 286,-25 396,-25 396,-6 286,-6"/>
<text text-anchor="middle" x="341" y="-13" font-family="Helvetica,sans-Serif" font-size="10.00">src/wld_assocdev.c</text>
</a>
</g>
</g>
<!-- Node12&#45;&gt;Node19 -->
<g id="edge24" class="edge">
<title>Node12&#45;&gt;Node19</title>
<path fill="none" stroke="midnightblue" d="M812.15,-76.85C720.06,-69.88 549.2,-54.93 405,-31 395.33,-29.4 384.94,-27.23 375.4,-25.07"/>
<polygon fill="midnightblue" stroke="midnightblue" points="811.93,-80.34 822.16,-77.6 812.45,-73.36 811.93,-80.34"/>
</g>
<!-- Node20 -->
<g id="node20" class="node">
<title>Node20</title>
<g id="a_node20"><a xlink:href="wld__radio_8c.html" target="_top" xlink:title=" ">
<polygon fill="white" stroke="black" points="414.5,-6 414.5,-25 503.5,-25 503.5,-6 414.5,-6"/>
<text text-anchor="middle" x="459" y="-13" font-family="Helvetica,sans-Serif" font-size="10.00">src/wld_radio.c</text>
</a>
</g>
</g>
<!-- Node12&#45;&gt;Node20 -->
<g id="edge25" class="edge">
<title>Node12&#45;&gt;Node20</title>
<path fill="none" stroke="midnightblue" d="M812.13,-74.82C738.42,-66.86 616.58,-51.97 513,-31 504.91,-29.36 496.24,-27.21 488.27,-25.07"/>
<polygon fill="midnightblue" stroke="midnightblue" points="811.88,-78.31 822.2,-75.89 812.63,-71.35 811.88,-78.31"/>
</g>
<!-- Node21&#45;&gt;Node7 -->
<g id="edge27" class="edge">
<title>Node21&#45;&gt;Node7</title>
<path fill="none" stroke="midnightblue" d="M1779.5,-62.3C1796.71,-52.12 1817.48,-39.85 1833.18,-30.58"/>
<polygon fill="midnightblue" stroke="midnightblue" points="1777.7,-59.3 1770.87,-67.4 1781.26,-65.32 1777.7,-59.3"/>
</g>
<!-- Node21&#45;&gt;Node8 -->
<g id="edge29" class="edge">
<title>Node21&#45;&gt;Node8</title>
<path fill="none" stroke="midnightblue" d="M1705.49,-63.27C1681.92,-52.92 1652.86,-40.15 1631.05,-30.58"/>
<polygon fill="midnightblue" stroke="midnightblue" points="1704.32,-66.58 1714.89,-67.4 1707.14,-60.17 1704.32,-66.58"/>
</g>
<!-- Node21&#45;&gt;Node17 -->
<g id="edge28" class="edge">
<title>Node21&#45;&gt;Node17</title>
<path fill="none" stroke="midnightblue" d="M1740.41,-57.7C1737.89,-48.59 1735.09,-38.49 1732.9,-30.58"/>
<polygon fill="midnightblue" stroke="midnightblue" points="1737.05,-58.69 1743.09,-67.4 1743.8,-56.82 1737.05,-58.69"/>
</g>
<!-- Node22 -->
<g id="node22" class="node">
<title>Node22</title>
<g id="a_node22"><a xlink:href="wld__ssid__nl80211_8c.html" target="_top" xlink:title=" ">
<polygon fill="white" stroke="black" points="1930,-0.5 1930,-30.5 2048,-30.5 2048,-0.5 1930,-0.5"/>
<text text-anchor="start" x="1938" y="-18.5" font-family="Helvetica,sans-Serif" font-size="10.00">src/nl80211/wld_ssid</text>
<text text-anchor="middle" x="1989" y="-7.5" font-family="Helvetica,sans-Serif" font-size="10.00">_nl80211.c</text>
</a>
</g>
</g>
<!-- Node21&#45;&gt;Node22 -->
<g id="edge30" class="edge">
<title>Node21&#45;&gt;Node22</title>
<path fill="none" stroke="midnightblue" d="M1808.99,-64.85C1848.45,-54.25 1898.99,-40.68 1936.46,-30.61"/>
<polygon fill="midnightblue" stroke="midnightblue" points="1807.96,-61.5 1799.21,-67.48 1809.78,-68.26 1807.96,-61.5"/>
</g>
<!-- Node28&#45;&gt;Node25 -->
<g id="edge44" class="edge">
<title>Node28&#45;&gt;Node25</title>
<path fill="none" stroke="midnightblue" d="M2226.06,-124.31C2224.43,-107.44 2224.57,-84.85 2233,-67 2240.11,-51.94 2254.03,-39.47 2266.34,-30.69"/>
<polygon fill="midnightblue" stroke="midnightblue" points="2222.61,-124.96 2227.31,-134.46 2229.56,-124.1 2222.61,-124.96"/>
</g>
<!-- Node28&#45;&gt;Node27 -->
<g id="edge46" class="edge">
<title>Node28&#45;&gt;Node27</title>
<path fill="none" stroke="midnightblue" d="M2179.38,-131.09C2148.87,-120.6 2110.52,-107.41 2081.93,-97.58"/>
<polygon fill="midnightblue" stroke="midnightblue" points="2178.4,-134.45 2188.99,-134.4 2180.67,-127.83 2178.4,-134.45"/>
</g>
<!-- Node29 -->
<g id="node29" class="node">
<title>Node29</title>
<g id="a_node29"><a xlink:href="wld__nl80211__parser_8h.html" target="_top" xlink:title=" ">
<polygon fill="white" stroke="black" points="2242.5,-67.5 2242.5,-97.5 2367.5,-97.5 2367.5,-67.5 2242.5,-67.5"/>
<text text-anchor="start" x="2250.5" y="-85.5" font-family="Helvetica,sans-Serif" font-size="10.00">include_priv/nl80211</text>
<text text-anchor="middle" x="2305" y="-74.5" font-family="Helvetica,sans-Serif" font-size="10.00">/wld_nl80211_parser.h</text>
</a>
</g>
</g>
<!-- Node28&#45;&gt;Node29 -->
<g id="edge38" class="edge">
<title>Node28&#45;&gt;Node29</title>
<path fill="none" stroke="midnightblue" d="M2254.12,-127.6C2265.44,-117.78 2278.64,-106.34 2288.76,-97.58"/>
<polygon fill="midnightblue" stroke="midnightblue" points="2251.54,-125.2 2246.27,-134.4 2256.12,-130.49 2251.54,-125.2"/>
</g>
<!-- Node28&#45;&gt;Node33 -->
<g id="edge45" class="edge">
<title>Node28&#45;&gt;Node33</title>
<path fill="none" stroke="midnightblue" d="M2288.31,-131.58C2324.69,-121.02 2370.97,-107.59 2405.37,-97.61"/>
<polygon fill="midnightblue" stroke="midnightblue" points="2286.96,-128.33 2278.33,-134.48 2288.91,-135.05 2286.96,-128.33"/>
</g>
<!-- Node29&#45;&gt;Node25 -->
<g id="edge39" class="edge">
<title>Node29&#45;&gt;Node25</title>
<path fill="none" stroke="midnightblue" d="M2299.44,-57.4C2297.35,-48.37 2295.06,-38.41 2293.25,-30.58"/>
<polygon fill="midnightblue" stroke="midnightblue" points="2296.09,-58.44 2301.75,-67.4 2302.91,-56.87 2296.09,-58.44"/>
</g>
<!-- Node29&#45;&gt;Node26 -->
<g id="edge40" class="edge">
<title>Node29&#45;&gt;Node26</title>
<path fill="none" stroke="midnightblue" d="M2258.76,-63.82C2231.43,-53.37 2197.31,-40.32 2171.82,-30.58"/>
<polygon fill="midnightblue" stroke="midnightblue" points="2257.52,-67.09 2268.11,-67.4 2260.02,-60.56 2257.52,-67.09"/>
</g>
<!-- Node30 -->
<g id="node30" class="node">
<title>Node30</title>
<g id="a_node30"><a xlink:href="wld__nl80211__events_8c.html" target="_top" xlink:title=" ">
<polygon fill="white" stroke="black" points="2686.5,-0.5 2686.5,-30.5 2823.5,-30.5 2823.5,-0.5 2686.5,-0.5"/>
<text text-anchor="start" x="2694.5" y="-18.5" font-family="Helvetica,sans-Serif" font-size="10.00">src/nl80211/wld_nl80211</text>
<text text-anchor="middle" x="2755" y="-7.5" font-family="Helvetica,sans-Serif" font-size="10.00">_events.c</text>
</a>
</g>
</g>
<!-- Node29&#45;&gt;Node30 -->
<g id="edge41" class="edge">
<title>Node29&#45;&gt;Node30</title>
<path fill="none" stroke="midnightblue" d="M2377.83,-66.78C2510.76,-45.77 2547.06,-50.83 2677,-31 2680,-30.54 2683.05,-30.06 2686.14,-29.55"/>
<polygon fill="midnightblue" stroke="midnightblue" points="2376.99,-63.37 2367.67,-68.41 2378.1,-70.28 2376.99,-63.37"/>
</g>
<!-- Node31 -->
<g id="node31" class="node">
<title>Node31</title>
<g id="a_node31"><a xlink:href="wld__nl80211__parser_8c.html" target="_top" xlink:title=" ">
<polygon fill="white" stroke="black" points="2376.5,-0.5 2376.5,-30.5 2513.5,-30.5 2513.5,-0.5 2376.5,-0.5"/>
<text text-anchor="start" x="2384.5" y="-18.5" font-family="Helvetica,sans-Serif" font-size="10.00">src/nl80211/wld_nl80211</text>
<text text-anchor="middle" x="2445" y="-7.5" font-family="Helvetica,sans-Serif" font-size="10.00">_parser.c</text>
</a>
</g>
</g>
<!-- Node29&#45;&gt;Node31 -->
<g id="edge42" class="edge">
<title>Node29&#45;&gt;Node31</title>
<path fill="none" stroke="midnightblue" d="M2344.57,-63.13C2366.81,-52.8 2394.15,-40.11 2414.68,-30.58"/>
<polygon fill="midnightblue" stroke="midnightblue" points="2342.97,-60.01 2335.38,-67.4 2345.92,-66.36 2342.97,-60.01"/>
</g>
<!-- Node32 -->
<g id="node32" class="node">
<title>Node32</title>
<g id="a_node32"><a xlink:href="wld__nl80211__utils_8c.html" target="_top" xlink:title=" ">
<polygon fill="white" stroke="black" points="2531.5,-0.5 2531.5,-30.5 2668.5,-30.5 2668.5,-0.5 2531.5,-0.5"/>
<text text-anchor="start" x="2539.5" y="-18.5" font-family="Helvetica,sans-Serif" font-size="10.00">src/nl80211/wld_nl80211</text>
<text text-anchor="middle" x="2600" y="-7.5" font-family="Helvetica,sans-Serif" font-size="10.00">_utils.c</text>
</a>
</g>
</g>
<!-- Node29&#45;&gt;Node32 -->
<g id="edge43" class="edge">
<title>Node29&#45;&gt;Node32</title>
<path fill="none" stroke="midnightblue" d="M2377.39,-65.55C2426.03,-54.83 2489.53,-40.84 2536.26,-30.55"/>
<polygon fill="midnightblue" stroke="midnightblue" points="2376.57,-62.15 2367.56,-67.72 2378.08,-68.98 2376.57,-62.15"/>
</g>
</g>
</svg>
