<?xml version="1.0" encoding="UTF-8" standalone="no"?>
<!DOCTYPE svg PUBLIC "-//W3C//DTD SVG 1.1//EN"
 "http://www.w3.org/Graphics/SVG/1.1/DTD/svg11.dtd">
<!-- Generated by graphviz version 2.43.0 (0)
 -->
<!-- Title: wld_th_dm_clearFsm Pages: 1 -->
<svg width="494pt" height="66pt"
 viewBox="0.00 0.00 494.00 66.00" xmlns="http://www.w3.org/2000/svg" xmlns:xlink="http://www.w3.org/1999/xlink">
<g id="graph0" class="graph" transform="scale(1 1) rotate(0) translate(4 62)">
<title>wld_th_dm_clearFsm</title>
<polygon fill="white" stroke="transparent" points="-4,4 -4,-62 490,-62 490,4 -4,4"/>
<!-- Node1 -->
<g id="node1" class="node">
<title>Node1</title>
<g id="a_node1"><a xlink:title=" ">
<polygon fill="#bfbfbf" stroke="black" points="0,-19.5 0,-38.5 120,-38.5 120,-19.5 0,-19.5"/>
<text text-anchor="middle" x="60" y="-26.5" font-family="Helvetica,sans-Serif" font-size="10.00">wld_th_dm_clearFsm</text>
</a>
</g>
</g>
<!-- Node2 -->
<g id="node2" class="node">
<title>Node2</title>
<g id="a_node2"><a xlink:href="wld__th__radio_8c.html#ac6066dadcf0bbd0883c22040e9762088" target="_top" xlink:title=" ">
<polygon fill="white" stroke="black" points="157.5,-38.5 157.5,-57.5 300.5,-57.5 300.5,-38.5 157.5,-38.5"/>
<text text-anchor="middle" x="229" y="-45.5" font-family="Helvetica,sans-Serif" font-size="10.00">wld_th_rad_clearCommits</text>
</a>
</g>
</g>
<!-- Node1&#45;&gt;Node2 -->
<g id="edge1" class="edge">
<title>Node1&#45;&gt;Node2</title>
<path fill="none" stroke="midnightblue" d="M120.35,-35.75C129.07,-36.74 138.17,-37.78 147.23,-38.81"/>
<polygon fill="midnightblue" stroke="midnightblue" points="147.09,-42.32 157.42,-39.97 147.88,-35.36 147.09,-42.32"/>
</g>
<!-- Node4 -->
<g id="node4" class="node">
<title>Node4</title>
<g id="a_node4"><a xlink:href="wld__th__vap_8c.html#a9fdee997ca2a5cd85b3c77434f97af60" target="_top" xlink:title=" ">
<polygon fill="white" stroke="black" points="156,-0.5 156,-19.5 302,-19.5 302,-0.5 156,-0.5"/>
<text text-anchor="middle" x="229" y="-7.5" font-family="Helvetica,sans-Serif" font-size="10.00">wld_th_vap_clearCommits</text>
</a>
</g>
</g>
<!-- Node1&#45;&gt;Node4 -->
<g id="edge3" class="edge">
<title>Node1&#45;&gt;Node4</title>
<path fill="none" stroke="midnightblue" d="M120.35,-22.25C128.64,-21.3 137.27,-20.32 145.89,-19.34"/>
<polygon fill="midnightblue" stroke="midnightblue" points="146.43,-22.8 155.97,-18.19 145.64,-15.85 146.43,-22.8"/>
</g>
<!-- Node3 -->
<g id="node3" class="node">
<title>Node3</title>
<g id="a_node3"><a xlink:href="wld__th__radio_8c.html#a7d2f840e05e204658b07064a391465b6" target="_top" xlink:title=" ">
<polygon fill="white" stroke="black" points="338,-38.5 338,-57.5 486,-57.5 486,-38.5 338,-38.5"/>
<text text-anchor="middle" x="412" y="-45.5" font-family="Helvetica,sans-Serif" font-size="10.00">wld_th_rad_getVendorData</text>
</a>
</g>
</g>
<!-- Node2&#45;&gt;Node3 -->
<g id="edge2" class="edge">
<title>Node2&#45;&gt;Node3</title>
<path fill="none" stroke="midnightblue" d="M300.76,-48C309.62,-48 318.74,-48 327.77,-48"/>
<polygon fill="midnightblue" stroke="midnightblue" points="327.91,-51.5 337.91,-48 327.91,-44.5 327.91,-51.5"/>
</g>
</g>
</svg>
