<?xml version="1.0" encoding="UTF-8" standalone="no"?>
<!DOCTYPE svg PUBLIC "-//W3C//DTD SVG 1.1//EN"
 "http://www.w3.org/Graphics/SVG/1.1/DTD/svg11.dtd">
<!-- Generated by graphviz version 2.43.0 (0)
 -->
<!-- Title: wld_secDmn_setRestartNeeded Pages: 1 -->
<svg width="543pt" height="142pt"
 viewBox="0.00 0.00 543.00 142.00" xmlns="http://www.w3.org/2000/svg" xmlns:xlink="http://www.w3.org/1999/xlink">
<g id="graph0" class="graph" transform="scale(1 1) rotate(0) translate(4 138)">
<title>wld_secDmn_setRestartNeeded</title>
<polygon fill="white" stroke="transparent" points="-4,4 -4,-138 539,-138 539,4 -4,4"/>
<!-- Node1 -->
<g id="node1" class="node">
<title>Node1</title>
<g id="a_node1"><a xlink:title=" ">
<polygon fill="#bfbfbf" stroke="black" points="363,-57.5 363,-76.5 535,-76.5 535,-57.5 363,-57.5"/>
<text text-anchor="middle" x="449" y="-64.5" font-family="Helvetica,sans-Serif" font-size="10.00">wld_secDmn_setRestartNeeded</text>
</a>
</g>
</g>
<!-- Node2 -->
<g id="node2" class="node">
<title>Node2</title>
<g id="a_node2"><a xlink:href="wld__secDmn_8c.html#a1c8a336c00336a8fbd1e9b4a0a6ef71e" target="_top" xlink:title=" ">
<polygon fill="white" stroke="black" points="186,-114.5 186,-133.5 327,-133.5 327,-114.5 186,-114.5"/>
<text text-anchor="middle" x="256.5" y="-121.5" font-family="Helvetica,sans-Serif" font-size="10.00">wld_secDmn_delFromGrp</text>
</a>
</g>
</g>
<!-- Node1&#45;&gt;Node2 -->
<g id="edge1" class="edge">
<title>Node1&#45;&gt;Node2</title>
<path fill="none" stroke="midnightblue" d="M409.08,-79.63C385.42,-87.21 354.54,-96.91 327,-105 316.08,-108.21 304.14,-111.53 293.29,-114.49"/>
<polygon fill="midnightblue" stroke="midnightblue" points="410.3,-82.91 418.75,-76.52 408.16,-76.25 410.3,-82.91"/>
</g>
<!-- Node3 -->
<g id="node3" class="node">
<title>Node3</title>
<g id="a_node3"><a xlink:href="wld__secDmn_8c.html#a5f5de066595c0a6db92f6201cd13ab8c" target="_top" xlink:title=" ">
<polygon fill="white" stroke="black" points="198.5,-76.5 198.5,-95.5 314.5,-95.5 314.5,-76.5 198.5,-76.5"/>
<text text-anchor="middle" x="256.5" y="-83.5" font-family="Helvetica,sans-Serif" font-size="10.00">wld_secDmn_restart</text>
</a>
</g>
</g>
<!-- Node1&#45;&gt;Node3 -->
<g id="edge2" class="edge">
<title>Node1&#45;&gt;Node3</title>
<path fill="none" stroke="midnightblue" d="M352.79,-76.5C339.7,-77.8 326.6,-79.11 314.5,-80.31"/>
<polygon fill="midnightblue" stroke="midnightblue" points="353.18,-79.97 362.78,-75.5 352.48,-73.01 353.18,-79.97"/>
</g>
<!-- Node4 -->
<g id="node4" class="node">
<title>Node4</title>
<g id="a_node4"><a xlink:href="wld__secDmn_8c.html#a0d79b605af802b3f679654eccc068eec" target="_top" xlink:title=" ">
<polygon fill="white" stroke="black" points="203,-38.5 203,-57.5 310,-57.5 310,-38.5 203,-38.5"/>
<text text-anchor="middle" x="256.5" y="-45.5" font-family="Helvetica,sans-Serif" font-size="10.00">wld_secDmn_start</text>
</a>
</g>
</g>
<!-- Node1&#45;&gt;Node4 -->
<g id="edge3" class="edge">
<title>Node1&#45;&gt;Node4</title>
<path fill="none" stroke="midnightblue" d="M352.66,-57.49C338.02,-56.03 323.38,-54.57 310.13,-53.25"/>
<polygon fill="midnightblue" stroke="midnightblue" points="352.48,-60.99 362.78,-58.5 353.18,-54.03 352.48,-60.99"/>
</g>
<!-- Node6 -->
<g id="node6" class="node">
<title>Node6</title>
<g id="a_node6"><a xlink:href="wld__secDmn_8c.html#a161897b21440ea0885b570829da259fc" target="_top" xlink:title=" ">
<polygon fill="white" stroke="black" points="204,-0.5 204,-19.5 309,-19.5 309,-0.5 204,-0.5"/>
<text text-anchor="middle" x="256.5" y="-7.5" font-family="Helvetica,sans-Serif" font-size="10.00">wld_secDmn_stop</text>
</a>
</g>
</g>
<!-- Node1&#45;&gt;Node6 -->
<g id="edge5" class="edge">
<title>Node1&#45;&gt;Node6</title>
<path fill="none" stroke="midnightblue" d="M409.08,-54.37C385.42,-46.79 354.54,-37.09 327,-29 316.08,-25.79 304.14,-22.47 293.29,-19.51"/>
<polygon fill="midnightblue" stroke="midnightblue" points="408.16,-57.75 418.75,-57.48 410.3,-51.09 408.16,-57.75"/>
</g>
<!-- Node5 -->
<g id="node5" class="node">
<title>Node5</title>
<g id="a_node5"><a xlink:href="wld__secDmn_8c.html#a04e473c6a2f624f5ee15a91d36ca56db" target="_top" xlink:title=" ">
<polygon fill="white" stroke="black" points="10.5,-38.5 10.5,-57.5 139.5,-57.5 139.5,-38.5 10.5,-38.5"/>
<text text-anchor="middle" x="75" y="-45.5" font-family="Helvetica,sans-Serif" font-size="10.00">wld_secDmn_restartCb</text>
</a>
</g>
</g>
<!-- Node4&#45;&gt;Node5 -->
<g id="edge4" class="edge">
<title>Node4&#45;&gt;Node5</title>
<path fill="none" stroke="midnightblue" d="M192.2,-48C175.14,-48 156.68,-48 139.61,-48"/>
<polygon fill="midnightblue" stroke="midnightblue" points="192.61,-51.5 202.61,-48 192.61,-44.5 192.61,-51.5"/>
</g>
<!-- Node7 -->
<g id="node7" class="node">
<title>Node7</title>
<g id="a_node7"><a xlink:href="wifiGen__hapd_8c.html#a75688dec0e4ad675142a71010b2b536a" target="_top" xlink:title=" ">
<polygon fill="white" stroke="black" points="0,-0.5 0,-19.5 150,-19.5 150,-0.5 0,-0.5"/>
<text text-anchor="middle" x="75" y="-7.5" font-family="Helvetica,sans-Serif" font-size="10.00">wifiGen_hapd_stopDaemon</text>
</a>
</g>
</g>
<!-- Node6&#45;&gt;Node7 -->
<g id="edge6" class="edge">
<title>Node6&#45;&gt;Node7</title>
<path fill="none" stroke="midnightblue" d="M193.18,-10C179.31,-10 164.46,-10 150.17,-10"/>
<polygon fill="midnightblue" stroke="midnightblue" points="193.58,-13.5 203.58,-10 193.58,-6.5 193.58,-13.5"/>
</g>
</g>
</svg>
