<?xml version="1.0" encoding="UTF-8" standalone="no"?>
<!DOCTYPE svg PUBLIC "-//W3C//DTD SVG 1.1//EN"
 "http://www.w3.org/Graphics/SVG/1.1/DTD/svg11.dtd">
<!-- Generated by graphviz version 2.43.0 (0)
 -->
<!-- Title: wld_secDmn_delFromGrp Pages: 1 -->
<svg width="357pt" height="66pt"
 viewBox="0.00 0.00 357.00 66.00" xmlns="http://www.w3.org/2000/svg" xmlns:xlink="http://www.w3.org/1999/xlink">
<g id="graph0" class="graph" transform="scale(1 1) rotate(0) translate(4 62)">
<title>wld_secDmn_delFromGrp</title>
<polygon fill="white" stroke="transparent" points="-4,4 -4,-62 353,-62 353,4 -4,4"/>
<!-- Node1 -->
<g id="node1" class="node">
<title>Node1</title>
<g id="a_node1"><a xlink:title=" ">
<polygon fill="#bfbfbf" stroke="black" points="0,-19.5 0,-38.5 141,-38.5 141,-19.5 0,-19.5"/>
<text text-anchor="middle" x="70.5" y="-26.5" font-family="Helvetica,sans-Serif" font-size="10.00">wld_secDmn_delFromGrp</text>
</a>
</g>
</g>
<!-- Node2 -->
<g id="node2" class="node">
<title>Node2</title>
<g id="a_node2"><a xlink:href="wld__secDmn_8c.html#ad694ff05adbf2a8f84da2e8a876562ac" target="_top" xlink:title=" ">
<polygon fill="white" stroke="black" points="177,-38.5 177,-57.5 349,-57.5 349,-38.5 177,-38.5"/>
<text text-anchor="middle" x="263" y="-45.5" font-family="Helvetica,sans-Serif" font-size="10.00">wld_secDmn_setRestartNeeded</text>
</a>
</g>
</g>
<!-- Node1&#45;&gt;Node2 -->
<g id="edge1" class="edge">
<title>Node1&#45;&gt;Node2</title>
<path fill="none" stroke="midnightblue" d="M141.08,-35.94C149.41,-36.77 158.02,-37.63 166.63,-38.49"/>
<polygon fill="midnightblue" stroke="midnightblue" points="166.43,-41.98 176.72,-39.49 167.12,-35.02 166.43,-41.98"/>
</g>
<!-- Node3 -->
<g id="node3" class="node">
<title>Node3</title>
<g id="a_node3"><a xlink:href="wld__secDmnGrp_8c.html#a74873a8be9bba3c30e3f4c009b793922" target="_top" xlink:title=" ">
<polygon fill="white" stroke="black" points="184.5,-0.5 184.5,-19.5 341.5,-19.5 341.5,-0.5 184.5,-0.5"/>
<text text-anchor="middle" x="263" y="-7.5" font-family="Helvetica,sans-Serif" font-size="10.00">wld_secDmnGrp_delMember</text>
</a>
</g>
</g>
<!-- Node1&#45;&gt;Node3 -->
<g id="edge2" class="edge">
<title>Node1&#45;&gt;Node3</title>
<path fill="none" stroke="midnightblue" d="M141.08,-22.06C151.83,-20.99 163.04,-19.87 174.12,-18.77"/>
<polygon fill="midnightblue" stroke="midnightblue" points="174.63,-22.23 184.24,-17.76 173.94,-15.27 174.63,-22.23"/>
</g>
</g>
</svg>
