<?xml version="1.0" encoding="UTF-8" standalone="no"?>
<!DOCTYPE svg PUBLIC "-//W3C//DTD SVG 1.1//EN"
 "http://www.w3.org/Graphics/SVG/1.1/DTD/svg11.dtd">
<!-- Generated by graphviz version 2.43.0 (0)
 -->
<!-- Title: wld_mld_isLinkActiveInMultiLink Pages: 1 -->
<svg width="527pt" height="56pt"
 viewBox="0.00 0.00 527.00 55.50" xmlns="http://www.w3.org/2000/svg" xmlns:xlink="http://www.w3.org/1999/xlink">
<g id="graph0" class="graph" transform="scale(1 1) rotate(0) translate(4 51.5)">
<title>wld_mld_isLinkActiveInMultiLink</title>
<polygon fill="white" stroke="transparent" points="-4,4 -4,-51.5 523,-51.5 523,4 -4,4"/>
<!-- Node1 -->
<g id="node1" class="node">
<title>Node1</title>
<g id="a_node1"><a xlink:title=" ">
<polygon fill="#bfbfbf" stroke="black" points="0,-0.5 0,-19.5 176,-19.5 176,-0.5 0,-0.5"/>
<text text-anchor="middle" x="88" y="-7.5" font-family="Helvetica,sans-Serif" font-size="10.00">wld_mld_isLinkActiveInMultiLink</text>
</a>
</g>
</g>
<!-- Node2 -->
<g id="node2" class="node">
<title>Node2</title>
<g id="a_node2"><a xlink:href="wld__mld_8c.html#ad9b0152d4dd41209b2acba5bf7851048" target="_top" xlink:title=" ">
<polygon fill="white" stroke="black" points="212,-17 212,-47 361,-47 361,-17 212,-17"/>
<text text-anchor="start" x="220" y="-35" font-family="Helvetica,sans-Serif" font-size="10.00">wld_mld_countNeighActive</text>
<text text-anchor="middle" x="286.5" y="-24" font-family="Helvetica,sans-Serif" font-size="10.00">Links</text>
</a>
</g>
</g>
<!-- Node1&#45;&gt;Node2 -->
<g id="edge1" class="edge">
<title>Node1&#45;&gt;Node2</title>
<path fill="none" stroke="midnightblue" d="M174.04,-19.52C183.16,-20.54 192.44,-21.58 201.54,-22.6"/>
<polygon fill="midnightblue" stroke="midnightblue" points="201.41,-26.11 211.74,-23.74 202.19,-19.15 201.41,-26.11"/>
</g>
<!-- Node3 -->
<g id="node3" class="node">
<title>Node3</title>
<g id="a_node3"><a xlink:href="wld__mld_8c.html#ad253400624313df4f676e8c3f8467093" target="_top" xlink:title=" ">
<polygon fill="white" stroke="black" points="397,-0.5 397,-19.5 519,-19.5 519,-0.5 397,-0.5"/>
<text text-anchor="middle" x="458" y="-7.5" font-family="Helvetica,sans-Serif" font-size="10.00">wld_mld_isLinkActive</text>
</a>
</g>
</g>
<!-- Node1&#45;&gt;Node3 -->
<g id="edge3" class="edge">
<title>Node1&#45;&gt;Node3</title>
<path fill="none" stroke="midnightblue" d="M176.02,-8.41C188.1,-8.24 200.36,-8.09 212,-8 278.22,-7.46 294.78,-7.31 361,-8 369.33,-8.09 378.06,-8.22 386.72,-8.37"/>
<polygon fill="midnightblue" stroke="midnightblue" points="386.77,-11.87 396.83,-8.55 386.9,-4.87 386.77,-11.87"/>
</g>
<!-- Node2&#45;&gt;Node3 -->
<g id="edge2" class="edge">
<title>Node2&#45;&gt;Node3</title>
<path fill="none" stroke="midnightblue" d="M361.35,-22.41C369.79,-21.32 378.37,-20.21 386.76,-19.12"/>
<polygon fill="midnightblue" stroke="midnightblue" points="387.4,-22.56 396.87,-17.81 386.5,-15.62 387.4,-22.56"/>
</g>
</g>
</svg>
