<?xml version="1.0" encoding="UTF-8" standalone="no"?>
<!DOCTYPE svg PUBLIC "-//W3C//DTD SVG 1.1//EN"
 "http://www.w3.org/Graphics/SVG/1.1/DTD/svg11.dtd">
<!-- Generated by graphviz version 2.43.0 (0)
 -->
<!-- Title: wld_secDmn_init Pages: 1 -->
<svg width="664pt" height="161pt"
 viewBox="0.00 0.00 664.00 161.00" xmlns="http://www.w3.org/2000/svg" xmlns:xlink="http://www.w3.org/1999/xlink">
<g id="graph0" class="graph" transform="scale(1 1) rotate(0) translate(4 157)">
<title>wld_secDmn_init</title>
<polygon fill="white" stroke="transparent" points="-4,4 -4,-157 660,-157 660,4 -4,4"/>
<!-- Node1 -->
<g id="node1" class="node">
<title>Node1</title>
<g id="a_node1"><a xlink:title=" ">
<polygon fill="#bfbfbf" stroke="black" points="0,-57.5 0,-76.5 100,-76.5 100,-57.5 0,-57.5"/>
<text text-anchor="middle" x="50" y="-64.5" font-family="Helvetica,sans-Serif" font-size="10.00">wld_secDmn_init</text>
</a>
</g>
</g>
<!-- Node2 -->
<g id="node2" class="node">
<title>Node2</title>
<g id="a_node2"><a xlink:href="wld__daemon_8c.html#adc1404b6fec8fdf62a05025d82440f64" target="_top" xlink:title=" ">
<polygon fill="white" stroke="black" points="136,-57.5 136,-76.5 274,-76.5 274,-57.5 136,-57.5"/>
<text text-anchor="middle" x="205" y="-64.5" font-family="Helvetica,sans-Serif" font-size="10.00">wld_dmn_createDeamon</text>
</a>
</g>
</g>
<!-- Node1&#45;&gt;Node2 -->
<g id="edge1" class="edge">
<title>Node1&#45;&gt;Node2</title>
<path fill="none" stroke="midnightblue" d="M100.25,-67C108.41,-67 117.05,-67 125.72,-67"/>
<polygon fill="midnightblue" stroke="midnightblue" points="125.89,-70.5 135.89,-67 125.89,-63.5 125.89,-70.5"/>
</g>
<!-- Node3 -->
<g id="node3" class="node">
<title>Node3</title>
<g id="a_node3"><a xlink:href="wld__daemon_8c.html#a4075ee8de9e9daa8039d0f758d20d655" target="_top" xlink:title=" ">
<polygon fill="white" stroke="black" points="328,-114.5 328,-133.5 474,-133.5 474,-114.5 328,-114.5"/>
<text text-anchor="middle" x="401" y="-121.5" font-family="Helvetica,sans-Serif" font-size="10.00">wld_dmn_cleanupDaemon</text>
</a>
</g>
</g>
<!-- Node2&#45;&gt;Node3 -->
<g id="edge2" class="edge">
<title>Node2&#45;&gt;Node3</title>
<path fill="none" stroke="midnightblue" d="M229.23,-76.57C250.1,-84.9 281.73,-96.9 310,-105 319.23,-107.65 329.09,-110.1 338.77,-112.3"/>
<polygon fill="midnightblue" stroke="midnightblue" points="338.24,-115.77 348.76,-114.5 339.75,-108.93 338.24,-115.77"/>
</g>
<!-- Node6 -->
<g id="node6" class="node">
<title>Node6</title>
<g id="a_node6"><a xlink:href="wld__daemon_8c.html#add988f9aace86d75ad2250d7ea28ed17" target="_top" xlink:title=" ">
<polygon fill="white" stroke="black" points="326.5,-76.5 326.5,-95.5 475.5,-95.5 475.5,-76.5 326.5,-76.5"/>
<text text-anchor="middle" x="401" y="-83.5" font-family="Helvetica,sans-Serif" font-size="10.00">wld_dmn_initializeDeamon</text>
</a>
</g>
</g>
<!-- Node2&#45;&gt;Node6 -->
<g id="edge5" class="edge">
<title>Node2&#45;&gt;Node6</title>
<path fill="none" stroke="midnightblue" d="M274.12,-73.67C287.74,-75.01 302.19,-76.42 316.27,-77.8"/>
<polygon fill="midnightblue" stroke="midnightblue" points="316.14,-81.3 326.43,-78.79 316.82,-74.34 316.14,-81.3"/>
</g>
<!-- Node7 -->
<g id="node7" class="node">
<title>Node7</title>
<g id="a_node7"><a xlink:href="wld__daemon_8c.html#a335dc3e12939144d97137cf59cfe7951" target="_top" xlink:title=" ">
<polygon fill="white" stroke="black" points="343.5,-38.5 343.5,-57.5 458.5,-57.5 458.5,-38.5 343.5,-38.5"/>
<text text-anchor="middle" x="401" y="-45.5" font-family="Helvetica,sans-Serif" font-size="10.00">wld_dmn_setArgList</text>
</a>
</g>
</g>
<!-- Node2&#45;&gt;Node7 -->
<g id="edge6" class="edge">
<title>Node2&#45;&gt;Node7</title>
<path fill="none" stroke="midnightblue" d="M274.12,-60.33C293.28,-58.45 314.09,-56.41 333.17,-54.55"/>
<polygon fill="midnightblue" stroke="midnightblue" points="333.66,-58.01 343.27,-53.56 332.98,-51.05 333.66,-58.01"/>
</g>
<!-- Node8 -->
<g id="node8" class="node">
<title>Node8</title>
<g id="a_node8"><a xlink:href="wld__daemon_8c.html#a50e230b7cf9c56d9b4ef6e5038576c17" target="_top" xlink:title=" ">
<polygon fill="white" stroke="black" points="310,-0.5 310,-19.5 492,-19.5 492,-0.5 310,-0.5"/>
<text text-anchor="middle" x="401" y="-7.5" font-family="Helvetica,sans-Serif" font-size="10.00">wld_dmn_setDeamonEvtHandlers</text>
</a>
</g>
</g>
<!-- Node2&#45;&gt;Node8 -->
<g id="edge7" class="edge">
<title>Node2&#45;&gt;Node8</title>
<path fill="none" stroke="midnightblue" d="M229.23,-57.43C250.1,-49.1 281.73,-37.1 310,-29 319.23,-26.35 329.09,-23.9 338.77,-21.7"/>
<polygon fill="midnightblue" stroke="midnightblue" points="339.75,-25.07 348.76,-19.5 338.24,-18.23 339.75,-25.07"/>
</g>
<!-- Node4 -->
<g id="node4" class="node">
<title>Node4</title>
<g id="a_node4"><a xlink:href="wld_8c.html#a41e1e95e9813260c184aad989f33bb05" target="_top" xlink:title=" ">
<polygon fill="white" stroke="black" points="529,-133.5 529,-152.5 655,-152.5 655,-133.5 529,-133.5"/>
<text text-anchor="middle" x="592" y="-140.5" font-family="Helvetica,sans-Serif" font-size="10.00">get_wld_plugin_parser</text>
</a>
</g>
</g>
<!-- Node3&#45;&gt;Node4 -->
<g id="edge3" class="edge">
<title>Node3&#45;&gt;Node4</title>
<path fill="none" stroke="midnightblue" d="M474.26,-131.26C488.91,-132.74 504.31,-134.29 518.95,-135.76"/>
<polygon fill="midnightblue" stroke="midnightblue" points="518.65,-139.24 528.95,-136.76 519.35,-132.28 518.65,-139.24"/>
</g>
<!-- Node5 -->
<g id="node5" class="node">
<title>Node5</title>
<g id="a_node5"><a xlink:href="wld__daemon_8c.html#adc439fdc85e1c992a5ba6e79b4ebd3a3" target="_top" xlink:title=" ">
<polygon fill="white" stroke="black" points="528,-95.5 528,-114.5 656,-114.5 656,-95.5 528,-95.5"/>
<text text-anchor="middle" x="592" y="-102.5" font-family="Helvetica,sans-Serif" font-size="10.00">wld_dmn_stopDeamon</text>
</a>
</g>
</g>
<!-- Node3&#45;&gt;Node5 -->
<g id="edge4" class="edge">
<title>Node3&#45;&gt;Node5</title>
<path fill="none" stroke="midnightblue" d="M474.26,-116.74C488.43,-115.31 503.31,-113.82 517.52,-112.39"/>
<polygon fill="midnightblue" stroke="midnightblue" points="518.13,-115.84 527.73,-111.36 517.43,-108.88 518.13,-115.84"/>
</g>
</g>
</svg>
