<?xml version="1.0" encoding="UTF-8" standalone="no"?>
<!DOCTYPE svg PUBLIC "-//W3C//DTD SVG 1.1//EN"
 "http://www.w3.org/Graphics/SVG/1.1/DTD/svg11.dtd">
<!-- Generated by graphviz version 2.43.0 (0)
 -->
<!-- Title: wld_rad_hostapd_disable Pages: 1 -->
<svg width="898pt" height="176pt"
 viewBox="0.00 0.00 898.00 175.50" xmlns="http://www.w3.org/2000/svg" xmlns:xlink="http://www.w3.org/1999/xlink">
<g id="graph0" class="graph" transform="scale(1 1) rotate(0) translate(4 171.5)">
<title>wld_rad_hostapd_disable</title>
<polygon fill="white" stroke="transparent" points="-4,4 -4,-171.5 894,-171.5 894,4 -4,4"/>
<!-- Node1 -->
<g id="node1" class="node">
<title>Node1</title>
<g id="a_node1"><a xlink:title="disable main hostapd interface">
<polygon fill="#bfbfbf" stroke="black" points="0,-79 0,-98 140,-98 140,-79 0,-79"/>
<text text-anchor="middle" x="70" y="-86" font-family="Helvetica,sans-Serif" font-size="10.00">wld_rad_hostapd_disable</text>
</a>
</g>
</g>
<!-- Node2 -->
<g id="node2" class="node">
<title>Node2</title>
<g id="a_node2"><a xlink:href="wld__secDmn_8c.html#af6f5c940cdf44ae30f012827a423a0c9" target="_top" xlink:title=" ">
<polygon fill="white" stroke="black" points="176,-148 176,-167 334,-167 334,-148 176,-148"/>
<text text-anchor="middle" x="255" y="-155" font-family="Helvetica,sans-Serif" font-size="10.00">wld_secDmn_getWpaCtrlMgr</text>
</a>
</g>
</g>
<!-- Node1&#45;&gt;Node2 -->
<g id="edge1" class="edge">
<title>Node1&#45;&gt;Node2</title>
<path fill="none" stroke="midnightblue" d="M88.36,-98.13C108.81,-109.15 144.04,-127.13 176,-138.5 183.12,-141.03 190.73,-143.35 198.29,-145.42"/>
<polygon fill="midnightblue" stroke="midnightblue" points="197.61,-148.86 208.17,-148 199.38,-142.08 197.61,-148.86"/>
</g>
<!-- Node3 -->
<g id="node3" class="node">
<title>Node3</title>
<g id="a_node3"><a xlink:href="wld__wpaCtrlInterface_8c.html#a49de62b20f7f9804ee70a5fc50f6724d" target="_top" xlink:title="send synchronous command to wpa_ctrl server and check the received reply within a defined delay">
<polygon fill="white" stroke="black" points="176,-98.5 176,-128.5 334,-128.5 334,-98.5 176,-98.5"/>
<text text-anchor="start" x="184" y="-116.5" font-family="Helvetica,sans-Serif" font-size="10.00">wld_wpaCtrl_sendCmdCheck</text>
<text text-anchor="middle" x="255" y="-105.5" font-family="Helvetica,sans-Serif" font-size="10.00">ResponseExt</text>
</a>
</g>
</g>
<!-- Node1&#45;&gt;Node3 -->
<g id="edge2" class="edge">
<title>Node1&#45;&gt;Node3</title>
<path fill="none" stroke="midnightblue" d="M140.18,-97.95C148.55,-99.09 157.18,-100.27 165.77,-101.45"/>
<polygon fill="midnightblue" stroke="midnightblue" points="165.44,-104.93 175.83,-102.82 166.39,-98 165.44,-104.93"/>
</g>
<!-- Node9 -->
<g id="node9" class="node">
<title>Node9</title>
<g id="a_node9"><a xlink:href="wld__wpaCtrlInterface_8c.html#a5394fec853913f82bd5c52accf2687b8" target="_top" xlink:title=" ">
<polygon fill="white" stroke="black" points="195,-49.5 195,-79.5 315,-79.5 315,-49.5 195,-49.5"/>
<text text-anchor="start" x="203" y="-67.5" font-family="Helvetica,sans-Serif" font-size="10.00">wld_wpaCtrlInterface</text>
<text text-anchor="middle" x="255" y="-56.5" font-family="Helvetica,sans-Serif" font-size="10.00">_getName</text>
</a>
</g>
</g>
<!-- Node1&#45;&gt;Node9 -->
<g id="edge8" class="edge">
<title>Node1&#45;&gt;Node9</title>
<path fill="none" stroke="midnightblue" d="M140.18,-79.43C154.82,-77.51 170.27,-75.48 184.91,-73.56"/>
<polygon fill="midnightblue" stroke="midnightblue" points="185.43,-77.02 194.89,-72.25 184.52,-70.08 185.43,-77.02"/>
</g>
<!-- Node10 -->
<g id="node10" class="node">
<title>Node10</title>
<g id="a_node10"><a xlink:href="wld__wpaCtrlMngr_8c.html#a3dc93dfda0d67c0e7254cc1ffeeb3ebe" target="_top" xlink:title=" ">
<polygon fill="white" stroke="black" points="183.5,-0.5 183.5,-30.5 326.5,-30.5 326.5,-0.5 183.5,-0.5"/>
<text text-anchor="start" x="191.5" y="-18.5" font-family="Helvetica,sans-Serif" font-size="10.00">wld_wpaCtrlMngr_getFirst</text>
<text text-anchor="middle" x="255" y="-7.5" font-family="Helvetica,sans-Serif" font-size="10.00">ReadyInterface</text>
</a>
</g>
</g>
<!-- Node1&#45;&gt;Node10 -->
<g id="edge9" class="edge">
<title>Node1&#45;&gt;Node10</title>
<path fill="none" stroke="midnightblue" d="M90.06,-78.96C110.88,-68.73 145.35,-52.37 176,-40.5 181.83,-38.24 187.96,-36.02 194.11,-33.89"/>
<polygon fill="midnightblue" stroke="midnightblue" points="195.41,-37.15 203.76,-30.63 193.17,-30.52 195.41,-37.15"/>
</g>
<!-- Node4 -->
<g id="node4" class="node">
<title>Node4</title>
<g id="a_node4"><a xlink:href="wld__wpaCtrlConnection_8c.html#a5ddba0537d0917bc518e9ef71b539f75" target="_top" xlink:title=" ">
<polygon fill="white" stroke="black" points="370,-98.5 370,-128.5 531,-128.5 531,-98.5 370,-98.5"/>
<text text-anchor="start" x="378" y="-116.5" font-family="Helvetica,sans-Serif" font-size="10.00">wld_wpaCtrlConnection</text>
<text text-anchor="middle" x="450.5" y="-105.5" font-family="Helvetica,sans-Serif" font-size="10.00">_sendCmdCheckResponseExt</text>
</a>
</g>
</g>
<!-- Node3&#45;&gt;Node4 -->
<g id="edge3" class="edge">
<title>Node3&#45;&gt;Node4</title>
<path fill="none" stroke="midnightblue" d="M334.15,-113.5C342.59,-113.5 351.23,-113.5 359.8,-113.5"/>
<polygon fill="midnightblue" stroke="midnightblue" points="359.8,-117 369.8,-113.5 359.8,-110 359.8,-117"/>
</g>
<!-- Node5 -->
<g id="node5" class="node">
<title>Node5</title>
<g id="a_node5"><a xlink:href="wld__wpaCtrlConnection_8c.html#ab5b29b7ce5f29ef5dfbe951e5b700428" target="_top" xlink:title=" ">
<polygon fill="white" stroke="black" points="567,-126 567,-145 723,-145 723,-126 567,-126"/>
<text text-anchor="middle" x="645" y="-133" font-family="Helvetica,sans-Serif" font-size="10.00">wld_wpaCtrl_getMaxMsgLen</text>
</a>
</g>
</g>
<!-- Node4&#45;&gt;Node5 -->
<g id="edge4" class="edge">
<title>Node4&#45;&gt;Node5</title>
<path fill="none" stroke="midnightblue" d="M531.19,-122.61C539.66,-123.58 548.31,-124.56 556.87,-125.54"/>
<polygon fill="midnightblue" stroke="midnightblue" points="556.52,-129.02 566.85,-126.68 557.31,-122.07 556.52,-129.02"/>
</g>
<!-- Node6 -->
<g id="node6" class="node">
<title>Node6</title>
<g id="a_node6"><a xlink:href="wld__wpaCtrlConnection_8c.html#ae8867992d243efdfa13e360b50730f88" target="_top" xlink:title=" ">
<polygon fill="white" stroke="black" points="579.5,-76.5 579.5,-106.5 710.5,-106.5 710.5,-76.5 579.5,-76.5"/>
<text text-anchor="start" x="587.5" y="-94.5" font-family="Helvetica,sans-Serif" font-size="10.00">wld_wpaCtrlConnection</text>
<text text-anchor="middle" x="645" y="-83.5" font-family="Helvetica,sans-Serif" font-size="10.00">_sendCmdSyncedExt</text>
</a>
</g>
</g>
<!-- Node4&#45;&gt;Node6 -->
<g id="edge5" class="edge">
<title>Node4&#45;&gt;Node6</title>
<path fill="none" stroke="midnightblue" d="M531.19,-104.39C543.71,-102.96 556.62,-101.49 569.04,-100.07"/>
<polygon fill="midnightblue" stroke="midnightblue" points="569.79,-103.5 579.33,-98.89 568.99,-96.55 569.79,-103.5"/>
</g>
<!-- Node7 -->
<g id="node7" class="node">
<title>Node7</title>
<g id="a_node7"><a xlink:href="wld__wpaCtrlConnection_8c.html#abfe3f8b17cf527b1e6fe85a564c8604b" target="_top" xlink:title=" ">
<polygon fill="white" stroke="black" points="759,-101.5 759,-131.5 890,-131.5 890,-101.5 759,-101.5"/>
<text text-anchor="start" x="767" y="-119.5" font-family="Helvetica,sans-Serif" font-size="10.00">wld_wpaCtrlConnection</text>
<text text-anchor="middle" x="824.5" y="-108.5" font-family="Helvetica,sans-Serif" font-size="10.00">_getConnSockName</text>
</a>
</g>
</g>
<!-- Node6&#45;&gt;Node7 -->
<g id="edge6" class="edge">
<title>Node6&#45;&gt;Node7</title>
<path fill="none" stroke="midnightblue" d="M710.58,-100.6C723.02,-102.35 736.14,-104.2 748.87,-105.99"/>
<polygon fill="midnightblue" stroke="midnightblue" points="748.57,-109.48 758.96,-107.41 749.55,-102.55 748.57,-109.48"/>
</g>
<!-- Node8 -->
<g id="node8" class="node">
<title>Node8</title>
<g id="a_node8"><a xlink:href="wld__wpaCtrlConnection_8c.html#aa82226c76dbbf306e509b7c6d3088277" target="_top" xlink:title=" ">
<polygon fill="white" stroke="black" points="759,-52.5 759,-82.5 890,-82.5 890,-52.5 759,-52.5"/>
<text text-anchor="start" x="767" y="-70.5" font-family="Helvetica,sans-Serif" font-size="10.00">wld_wpaCtrlConnection</text>
<text text-anchor="middle" x="824.5" y="-59.5" font-family="Helvetica,sans-Serif" font-size="10.00">_sendCmd</text>
</a>
</g>
</g>
<!-- Node6&#45;&gt;Node8 -->
<g id="edge7" class="edge">
<title>Node6&#45;&gt;Node8</title>
<path fill="none" stroke="midnightblue" d="M710.58,-82.77C723.02,-81.09 736.14,-79.31 748.87,-77.59"/>
<polygon fill="midnightblue" stroke="midnightblue" points="749.52,-81.03 758.96,-76.23 748.59,-74.1 749.52,-81.03"/>
</g>
<!-- Node11 -->
<g id="node11" class="node">
<title>Node11</title>
<g id="a_node11"><a xlink:href="wld__wpaCtrlInterface_8c.html#a8b38bc9ca95b60e002d38cdb1374d1d0" target="_top" xlink:title=" ">
<polygon fill="white" stroke="black" points="390.5,-0.5 390.5,-30.5 510.5,-30.5 510.5,-0.5 390.5,-0.5"/>
<text text-anchor="start" x="398.5" y="-18.5" font-family="Helvetica,sans-Serif" font-size="10.00">wld_wpaCtrlInterface</text>
<text text-anchor="middle" x="450.5" y="-7.5" font-family="Helvetica,sans-Serif" font-size="10.00">_isReady</text>
</a>
</g>
</g>
<!-- Node10&#45;&gt;Node11 -->
<g id="edge10" class="edge">
<title>Node10&#45;&gt;Node11</title>
<path fill="none" stroke="midnightblue" d="M326.68,-15.5C344.19,-15.5 362.93,-15.5 380.36,-15.5"/>
<polygon fill="midnightblue" stroke="midnightblue" points="380.46,-19 390.45,-15.5 380.45,-12 380.46,-19"/>
</g>
</g>
</svg>
