<?xml version="1.0" encoding="UTF-8" standalone="no"?>
<!DOCTYPE svg PUBLIC "-//W3C//DTD SVG 1.1//EN"
 "http://www.w3.org/Graphics/SVG/1.1/DTD/svg11.dtd">
<!-- Generated by graphviz version 2.43.0 (0)
 -->
<!-- Title: src/nl80211/wld_wpaCtrl_events.c Pages: 1 -->
<svg width="4132pt" height="464pt"
 viewBox="0.00 0.00 4132.00 464.00" xmlns="http://www.w3.org/2000/svg" xmlns:xlink="http://www.w3.org/1999/xlink">
<g id="graph0" class="graph" transform="scale(1 1) rotate(0) translate(4 460)">
<title>src/nl80211/wld_wpaCtrl_events.c</title>
<polygon fill="white" stroke="transparent" points="-4,4 -4,-460 4128,-460 4128,4 -4,4"/>
<!-- Node1 -->
<g id="node1" class="node">
<title>Node1</title>
<g id="a_node1"><a xlink:title=" ">
<polygon fill="#bfbfbf" stroke="black" points="3468,-425.5 3468,-455.5 3604,-455.5 3604,-425.5 3468,-425.5"/>
<text text-anchor="start" x="3476" y="-443.5" font-family="Helvetica,sans-Serif" font-size="10.00">src/nl80211/wld_wpaCtrl</text>
<text text-anchor="middle" x="3536" y="-432.5" font-family="Helvetica,sans-Serif" font-size="10.00">_events.c</text>
</a>
</g>
</g>
<!-- Node2 -->
<g id="node2" class="node">
<title>Node2</title>
<g id="a_node2"><a xlink:title=" ">
<polygon fill="white" stroke="#bfbfbf" points="0,-235.5 0,-254.5 104,-254.5 104,-235.5 0,-235.5"/>
<text text-anchor="middle" x="52" y="-242.5" font-family="Helvetica,sans-Serif" font-size="10.00">swla/swla_table.h</text>
</a>
</g>
</g>
<!-- Node1&#45;&gt;Node2 -->
<g id="edge1" class="edge">
<title>Node1&#45;&gt;Node2</title>
<path fill="none" stroke="midnightblue" d="M3467.93,-437.97C3159.33,-430.72 1860.81,-397.11 798,-322 495.07,-300.59 419.61,-290.41 118,-255 116.74,-254.85 115.47,-254.7 114.18,-254.55"/>
<polygon fill="midnightblue" stroke="midnightblue" points="114.57,-251.07 104.22,-253.3 113.71,-258.01 114.57,-251.07"/>
</g>
<!-- Node3 -->
<g id="node3" class="node">
<title>Node3</title>
<g id="a_node3"><a xlink:title=" ">
<polygon fill="white" stroke="#bfbfbf" points="3048.5,-364 3048.5,-383 3143.5,-383 3143.5,-364 3048.5,-364"/>
<text text-anchor="middle" x="3096" y="-371" font-family="Helvetica,sans-Serif" font-size="10.00">swl/swl_string.h</text>
</a>
</g>
</g>
<!-- Node1&#45;&gt;Node3 -->
<g id="edge2" class="edge">
<title>Node1&#45;&gt;Node3</title>
<path fill="none" stroke="midnightblue" d="M3467.96,-433.1C3390.89,-425.26 3261.73,-410.34 3152,-389 3146.83,-388 3141.44,-386.79 3136.12,-385.52"/>
<polygon fill="midnightblue" stroke="midnightblue" points="3136.62,-382.04 3126.07,-383.01 3134.92,-388.83 3136.62,-382.04"/>
</g>
<!-- Node4 -->
<g id="node4" class="node">
<title>Node4</title>
<g id="a_node4"><a xlink:title=" ">
<polygon fill="white" stroke="#bfbfbf" points="3161.5,-364 3161.5,-383 3246.5,-383 3246.5,-364 3161.5,-364"/>
<text text-anchor="middle" x="3204" y="-371" font-family="Helvetica,sans-Serif" font-size="10.00">swl/swl_hex.h</text>
</a>
</g>
</g>
<!-- Node1&#45;&gt;Node4 -->
<g id="edge3" class="edge">
<title>Node1&#45;&gt;Node4</title>
<path fill="none" stroke="midnightblue" d="M3467.76,-429.18C3410.62,-420.07 3327.07,-405.68 3255,-389 3250.81,-388.03 3246.46,-386.93 3242.13,-385.79"/>
<polygon fill="midnightblue" stroke="midnightblue" points="3242.77,-382.33 3232.2,-383.06 3240.91,-389.08 3242.77,-382.33"/>
</g>
<!-- Node5 -->
<g id="node5" class="node">
<title>Node5</title>
<g id="a_node5"><a xlink:title=" ">
<polygon fill="white" stroke="#bfbfbf" points="3264.5,-364 3264.5,-383 3427.5,-383 3427.5,-364 3264.5,-364"/>
<text text-anchor="middle" x="3346" y="-371" font-family="Helvetica,sans-Serif" font-size="10.00">swl/swl_genericFrameParser.h</text>
</a>
</g>
</g>
<!-- Node1&#45;&gt;Node5 -->
<g id="edge4" class="edge">
<title>Node1&#45;&gt;Node5</title>
<path fill="none" stroke="midnightblue" d="M3494.77,-425.4C3460.7,-413.74 3412.86,-397.37 3380.71,-386.38"/>
<polygon fill="midnightblue" stroke="midnightblue" points="3381.46,-382.93 3370.87,-383.01 3379.2,-389.56 3381.46,-382.93"/>
</g>
<!-- Node6 -->
<g id="node6" class="node">
<title>Node6</title>
<g id="a_node6"><a xlink:href="wld__channel_8h.html" target="_top" xlink:title=" ">
<polygon fill="white" stroke="black" points="3446,-364 3446,-383 3532,-383 3532,-364 3446,-364"/>
<text text-anchor="middle" x="3489" y="-371" font-family="Helvetica,sans-Serif" font-size="10.00">wld_channel.h</text>
</a>
</g>
</g>
<!-- Node1&#45;&gt;Node6 -->
<g id="edge5" class="edge">
<title>Node1&#45;&gt;Node6</title>
<path fill="none" stroke="midnightblue" d="M3525.8,-425.4C3518.62,-415.46 3508.96,-402.11 3501.34,-391.57"/>
<polygon fill="midnightblue" stroke="midnightblue" points="3503.98,-389.25 3495.29,-383.19 3498.31,-393.35 3503.98,-389.25"/>
</g>
<!-- Node65 -->
<g id="node41" class="node">
<title>Node65</title>
<g id="a_node41"><a xlink:href="wld__wpaCtrl__events_8h.html" target="_top" xlink:title=" ">
<polygon fill="white" stroke="black" points="3707,-67.5 3707,-86.5 3831,-86.5 3831,-67.5 3707,-67.5"/>
<text text-anchor="middle" x="3769" y="-74.5" font-family="Helvetica,sans-Serif" font-size="10.00">wld_wpaCtrl_events.h</text>
</a>
</g>
</g>
<!-- Node1&#45;&gt;Node65 -->
<g id="edge66" class="edge">
<title>Node1&#45;&gt;Node65</title>
<path fill="none" stroke="midnightblue" d="M3586,-425.48C3635.79,-408.92 3710.72,-376.5 3753,-322 3774.34,-294.49 3772,-280.82 3772,-246 3772,-246 3772,-246 3772,-188 3772,-155.94 3770.71,-118.63 3769.82,-96.74"/>
<polygon fill="midnightblue" stroke="midnightblue" points="3773.31,-96.4 3769.39,-86.56 3766.32,-96.69 3773.31,-96.4"/>
</g>
<!-- Node79 -->
<g id="node45" class="node">
<title>Node79</title>
<g id="a_node45"><a xlink:href="wld__wps_8h.html" target="_top" xlink:title=" ">
<polygon fill="white" stroke="black" points="3550,-364 3550,-383 3618,-383 3618,-364 3550,-364"/>
<text text-anchor="middle" x="3584" y="-371" font-family="Helvetica,sans-Serif" font-size="10.00">wld_wps.h</text>
</a>
</g>
</g>
<!-- Node1&#45;&gt;Node79 -->
<g id="edge54" class="edge">
<title>Node1&#45;&gt;Node79</title>
<path fill="none" stroke="midnightblue" d="M3546.42,-425.4C3553.83,-415.36 3563.81,-401.84 3571.63,-391.25"/>
<polygon fill="midnightblue" stroke="midnightblue" points="3574.45,-393.32 3577.58,-383.19 3568.82,-389.16 3574.45,-393.32"/>
</g>
<!-- Node80 -->
<g id="node46" class="node">
<title>Node80</title>
<g id="a_node46"><a xlink:href="wld__wpaCtrlInterface__priv_8h.html" target="_top" xlink:title=" ">
<polygon fill="white" stroke="black" points="3769,-358.5 3769,-388.5 3889,-388.5 3889,-358.5 3769,-358.5"/>
<text text-anchor="start" x="3777" y="-376.5" font-family="Helvetica,sans-Serif" font-size="10.00">wld_wpaCtrlInterface</text>
<text text-anchor="middle" x="3829" y="-365.5" font-family="Helvetica,sans-Serif" font-size="10.00">_priv.h</text>
</a>
</g>
</g>
<!-- Node1&#45;&gt;Node80 -->
<g id="edge57" class="edge">
<title>Node1&#45;&gt;Node80</title>
<path fill="none" stroke="midnightblue" d="M3599.22,-425.48C3646.27,-415.04 3710.5,-400.79 3759.09,-390.01"/>
<polygon fill="midnightblue" stroke="midnightblue" points="3759.9,-393.42 3768.9,-387.83 3758.38,-386.58 3759.9,-393.42"/>
</g>
<!-- Node83 -->
<g id="node48" class="node">
<title>Node83</title>
<g id="a_node48"><a xlink:href="wld__wpaCtrlMngr__priv_8h.html" target="_top" xlink:title=" ">
<polygon fill="white" stroke="black" points="3900,-297 3900,-316 4034,-316 4034,-297 3900,-297"/>
<text text-anchor="middle" x="3967" y="-304" font-family="Helvetica,sans-Serif" font-size="10.00">wld_wpaCtrlMngr_priv.h</text>
</a>
</g>
</g>
<!-- Node1&#45;&gt;Node83 -->
<g id="edge62" class="edge">
<title>Node1&#45;&gt;Node83</title>
<path fill="none" stroke="midnightblue" d="M3604.09,-435.78C3694.59,-429.86 3848.81,-416.09 3898,-389 3924.97,-374.15 3945.98,-344.27 3957.42,-325.11"/>
<polygon fill="midnightblue" stroke="midnightblue" points="3960.59,-326.63 3962.51,-316.21 3954.51,-323.15 3960.59,-326.63"/>
</g>
<!-- Node85 -->
<g id="node50" class="node">
<title>Node85</title>
<g id="a_node50"><a xlink:href="wld__wpaSupp__parser_8h.html" target="_top" xlink:title=" ">
<polygon fill="white" stroke="black" points="3945,-364 3945,-383 4073,-383 4073,-364 3945,-364"/>
<text text-anchor="middle" x="4009" y="-371" font-family="Helvetica,sans-Serif" font-size="10.00">wld_wpaSupp_parser.h</text>
</a>
</g>
</g>
<!-- Node1&#45;&gt;Node85 -->
<g id="edge67" class="edge">
<title>Node1&#45;&gt;Node85</title>
<path fill="none" stroke="midnightblue" d="M3604.32,-431.96C3683.2,-422.97 3816.77,-406.91 3931,-389 3938.93,-387.76 3947.3,-386.33 3955.49,-384.86"/>
<polygon fill="midnightblue" stroke="midnightblue" points="3956.14,-388.3 3965.35,-383.07 3954.88,-381.41 3956.14,-388.3"/>
</g>
<!-- Node7 -->
<g id="node7" class="node">
<title>Node7</title>
<g id="a_node7"><a xlink:href="wld_8h.html" target="_top" xlink:title=" ">
<polygon fill="white" stroke="red" points="1958.5,-297 1958.5,-316 2001.5,-316 2001.5,-297 1958.5,-297"/>
<text text-anchor="middle" x="1980" y="-304" font-family="Helvetica,sans-Serif" font-size="10.00">wld.h</text>
</a>
</g>
</g>
<!-- Node6&#45;&gt;Node7 -->
<g id="edge6" class="edge">
<title>Node6&#45;&gt;Node7</title>
<path fill="none" stroke="midnightblue" d="M3462.57,-363.97C3454.16,-361.61 3444.77,-359.33 3436,-358 3147.92,-314.21 2198.94,-308.34 2012.1,-307.6"/>
<polygon fill="midnightblue" stroke="midnightblue" points="2011.87,-304.1 2001.85,-307.56 2011.84,-311.1 2011.87,-304.1"/>
</g>
<!-- Node41 -->
<g id="node34" class="node">
<title>Node41</title>
<g id="a_node34"><a xlink:href="wld__channel__types_8h.html" target="_top" xlink:title=" ">
<polygon fill="white" stroke="black" points="160.5,-235.5 160.5,-254.5 279.5,-254.5 279.5,-235.5 160.5,-235.5"/>
<text text-anchor="middle" x="220" y="-242.5" font-family="Helvetica,sans-Serif" font-size="10.00">wld_channel_types.h</text>
</a>
</g>
</g>
<!-- Node6&#45;&gt;Node41 -->
<g id="edge53" class="edge">
<title>Node6&#45;&gt;Node41</title>
<path fill="none" stroke="midnightblue" d="M3462.85,-363.99C3454.37,-361.6 3444.87,-359.3 3436,-358 3108.96,-310.03 2279.37,-332.66 1949,-322 1213.9,-298.28 1025.79,-318.24 289.72,-255.08"/>
<polygon fill="midnightblue" stroke="midnightblue" points="289.93,-251.58 279.67,-254.21 289.33,-258.56 289.93,-251.58"/>
</g>
<!-- Node7&#45;&gt;Node2 -->
<g id="edge38" class="edge">
<title>Node7&#45;&gt;Node2</title>
<path fill="none" stroke="midnightblue" d="M1958.23,-305.24C1775.93,-302.97 500.75,-286.19 118,-255 116.74,-254.9 115.46,-254.79 114.17,-254.67"/>
<polygon fill="midnightblue" stroke="midnightblue" points="114.49,-251.18 104.18,-253.65 113.77,-258.15 114.49,-251.18"/>
</g>
<!-- Node8 -->
<g id="node8" class="node">
<title>Node8</title>
<g id="a_node8"><a xlink:title=" ">
<polygon fill="white" stroke="#bfbfbf" points="426,-179.5 426,-198.5 488,-198.5 488,-179.5 426,-179.5"/>
<text text-anchor="middle" x="457" y="-186.5" font-family="Helvetica,sans-Serif" font-size="10.00">stdbool.h</text>
</a>
</g>
</g>
<!-- Node7&#45;&gt;Node8 -->
<g id="edge7" class="edge">
<title>Node7&#45;&gt;Node8</title>
<path fill="none" stroke="midnightblue" d="M1958.46,-304.94C1828.62,-301.46 1152.87,-282.18 1065,-255 1048.62,-249.93 1048.32,-240.26 1032,-235 932.52,-202.97 612.99,-193.26 498.39,-190.76"/>
<polygon fill="midnightblue" stroke="midnightblue" points="498.34,-187.26 488.27,-190.55 498.2,-194.26 498.34,-187.26"/>
</g>
<!-- Node9 -->
<g id="node9" class="node">
<title>Node9</title>
<g id="a_node9"><a xlink:title=" ">
<polygon fill="white" stroke="#bfbfbf" points="3562.5,-235.5 3562.5,-254.5 3615.5,-254.5 3615.5,-235.5 3562.5,-235.5"/>
<text text-anchor="middle" x="3589" y="-242.5" font-family="Helvetica,sans-Serif" font-size="10.00">stdint.h</text>
</a>
</g>
</g>
<!-- Node7&#45;&gt;Node9 -->
<g id="edge8" class="edge">
<title>Node7&#45;&gt;Node9</title>
<path fill="none" stroke="midnightblue" d="M2001.73,-305.46C2165.9,-305.05 3213.52,-300.68 3552.31,-254.89"/>
<polygon fill="midnightblue" stroke="midnightblue" points="3552.95,-258.34 3562.37,-253.49 3551.98,-251.4 3552.95,-258.34"/>
</g>
<!-- Node10 -->
<g id="node10" class="node">
<title>Node10</title>
<g id="a_node10"><a xlink:title=" ">
<polygon fill="white" stroke="#bfbfbf" points="3634,-235.5 3634,-254.5 3744,-254.5 3744,-235.5 3634,-235.5"/>
<text text-anchor="middle" x="3689" y="-242.5" font-family="Helvetica,sans-Serif" font-size="10.00">swl/swl_common.h</text>
</a>
</g>
</g>
<!-- Node7&#45;&gt;Node10 -->
<g id="edge9" class="edge">
<title>Node7&#45;&gt;Node10</title>
<path fill="none" stroke="midnightblue" d="M2001.84,-305.73C2144.14,-307.02 2954.02,-311.54 3623.55,-255.02"/>
<polygon fill="midnightblue" stroke="midnightblue" points="3624.22,-258.47 3633.89,-254.14 3623.62,-251.5 3624.22,-258.47"/>
</g>
<!-- Node11 -->
<g id="node11" class="node">
<title>Node11</title>
<g id="a_node11"><a xlink:title=" ">
<polygon fill="white" stroke="#bfbfbf" points="1117,-235.5 1117,-254.5 1253,-254.5 1253,-235.5 1117,-235.5"/>
<text text-anchor="middle" x="1185" y="-242.5" font-family="Helvetica,sans-Serif" font-size="10.00">swla/swla_commonLib.h</text>
</a>
</g>
</g>
<!-- Node7&#45;&gt;Node11 -->
<g id="edge10" class="edge">
<title>Node7&#45;&gt;Node11</title>
<path fill="none" stroke="midnightblue" d="M1958.23,-304.34C1871.79,-299.64 1544.14,-281.11 1262.98,-255.05"/>
<polygon fill="midnightblue" stroke="midnightblue" points="1263.28,-251.56 1253,-254.12 1262.63,-258.53 1263.28,-251.56"/>
</g>
<!-- Node12 -->
<g id="node12" class="node">
<title>Node12</title>
<g id="a_node12"><a xlink:title=" ">
<polygon fill="white" stroke="#bfbfbf" points="1271,-235.5 1271,-254.5 1359,-254.5 1359,-235.5 1271,-235.5"/>
<text text-anchor="middle" x="1315" y="-242.5" font-family="Helvetica,sans-Serif" font-size="10.00">swl/swl_uuid.h</text>
</a>
</g>
</g>
<!-- Node7&#45;&gt;Node12 -->
<g id="edge11" class="edge">
<title>Node7&#45;&gt;Node12</title>
<path fill="none" stroke="midnightblue" d="M1958.44,-304.26C1879.85,-299.63 1601.39,-282.19 1373,-255 1371.75,-254.85 1370.48,-254.7 1369.2,-254.53"/>
<polygon fill="midnightblue" stroke="midnightblue" points="1369.67,-251.06 1359.29,-253.2 1368.73,-258 1369.67,-251.06"/>
</g>
<!-- Node13 -->
<g id="node13" class="node">
<title>Node13</title>
<g id="a_node13"><a xlink:title=" ">
<polygon fill="white" stroke="#bfbfbf" points="1415,-235.5 1415,-254.5 1567,-254.5 1567,-235.5 1415,-235.5"/>
<text text-anchor="middle" x="1491" y="-242.5" font-family="Helvetica,sans-Serif" font-size="10.00">swla/swla_radioStandards.h</text>
</a>
</g>
</g>
<!-- Node7&#45;&gt;Node13 -->
<g id="edge12" class="edge">
<title>Node7&#45;&gt;Node13</title>
<path fill="none" stroke="midnightblue" d="M1958.36,-302.87C1891.61,-294.75 1686.54,-269.79 1571.47,-255.79"/>
<polygon fill="midnightblue" stroke="midnightblue" points="1571.65,-252.29 1561.3,-254.55 1570.8,-259.24 1571.65,-252.29"/>
</g>
<!-- Node14 -->
<g id="node14" class="node">
<title>Node14</title>
<g id="a_node14"><a xlink:title=" ">
<polygon fill="white" stroke="#bfbfbf" points="861.5,-179.5 861.5,-198.5 962.5,-198.5 962.5,-179.5 861.5,-179.5"/>
<text text-anchor="middle" x="912" y="-186.5" font-family="Helvetica,sans-Serif" font-size="10.00">swla/swla_time.h</text>
</a>
</g>
</g>
<!-- Node7&#45;&gt;Node14 -->
<g id="edge13" class="edge">
<title>Node7&#45;&gt;Node14</title>
<path fill="none" stroke="midnightblue" d="M1958.29,-304.73C1831.82,-300.19 1192.74,-276.33 1108,-255 1087.56,-249.85 1084.72,-242.44 1065,-235 1029.16,-221.48 987.37,-209.43 956.53,-201.21"/>
<polygon fill="midnightblue" stroke="midnightblue" points="957.07,-197.73 946.51,-198.57 955.29,-204.5 957.07,-197.73"/>
</g>
<!-- Node15 -->
<g id="node15" class="node">
<title>Node15</title>
<g id="a_node15"><a xlink:title=" ">
<polygon fill="white" stroke="#bfbfbf" points="1585.5,-235.5 1585.5,-254.5 1714.5,-254.5 1714.5,-235.5 1585.5,-235.5"/>
<text text-anchor="middle" x="1650" y="-242.5" font-family="Helvetica,sans-Serif" font-size="10.00">swla/swla_time_spec.h</text>
</a>
</g>
</g>
<!-- Node7&#45;&gt;Node15 -->
<g id="edge14" class="edge">
<title>Node7&#45;&gt;Node15</title>
<path fill="none" stroke="midnightblue" d="M1958.35,-301.6C1908.02,-292.52 1781.79,-269.76 1707.37,-256.34"/>
<polygon fill="midnightblue" stroke="midnightblue" points="1707.69,-252.85 1697.23,-254.52 1706.45,-259.73 1707.69,-252.85"/>
</g>
<!-- Node16 -->
<g id="node16" class="node">
<title>Node16</title>
<g id="a_node16"><a xlink:title=" ">
<polygon fill="white" stroke="#bfbfbf" points="1733,-235.5 1733,-254.5 1827,-254.5 1827,-235.5 1733,-235.5"/>
<text text-anchor="middle" x="1780" y="-242.5" font-family="Helvetica,sans-Serif" font-size="10.00">swla/swla_oui.h</text>
</a>
</g>
</g>
<!-- Node7&#45;&gt;Node16 -->
<g id="edge15" class="edge">
<title>Node7&#45;&gt;Node16</title>
<path fill="none" stroke="midnightblue" d="M1958.22,-299.02C1924.73,-289.06 1860.14,-269.84 1818.61,-257.49"/>
<polygon fill="midnightblue" stroke="midnightblue" points="1819.42,-254.07 1808.83,-254.58 1817.42,-260.78 1819.42,-254.07"/>
</g>
<!-- Node17 -->
<g id="node17" class="node">
<title>Node17</title>
<g id="a_node17"><a xlink:title=" ">
<polygon fill="white" stroke="#bfbfbf" points="1845,-235.5 1845,-254.5 1973,-254.5 1973,-235.5 1845,-235.5"/>
<text text-anchor="middle" x="1909" y="-242.5" font-family="Helvetica,sans-Serif" font-size="10.00">swla/swla_delayExec.h</text>
</a>
</g>
</g>
<!-- Node7&#45;&gt;Node17 -->
<g id="edge16" class="edge">
<title>Node7&#45;&gt;Node17</title>
<path fill="none" stroke="midnightblue" d="M1969.83,-296.98C1958.65,-287.61 1940.48,-272.38 1926.91,-261.01"/>
<polygon fill="midnightblue" stroke="midnightblue" points="1929.07,-258.25 1919.15,-254.51 1924.57,-263.61 1929.07,-258.25"/>
</g>
<!-- Node18 -->
<g id="node18" class="node">
<title>Node18</title>
<g id="a_node18"><a xlink:title=" ">
<polygon fill="white" stroke="#bfbfbf" points="1991.5,-235.5 1991.5,-254.5 2110.5,-254.5 2110.5,-235.5 1991.5,-235.5"/>
<text text-anchor="middle" x="2051" y="-242.5" font-family="Helvetica,sans-Serif" font-size="10.00">swla/swla_function.h</text>
</a>
</g>
</g>
<!-- Node7&#45;&gt;Node18 -->
<g id="edge17" class="edge">
<title>Node7&#45;&gt;Node18</title>
<path fill="none" stroke="midnightblue" d="M1990.17,-296.98C2001.35,-287.61 2019.52,-272.38 2033.09,-261.01"/>
<polygon fill="midnightblue" stroke="midnightblue" points="2035.43,-263.61 2040.85,-254.51 2030.93,-258.25 2035.43,-263.61"/>
</g>
<!-- Node19 -->
<g id="node19" class="node">
<title>Node19</title>
<g id="a_node19"><a xlink:title=" ">
<polygon fill="white" stroke="#bfbfbf" points="2128.5,-235.5 2128.5,-254.5 2269.5,-254.5 2269.5,-235.5 2128.5,-235.5"/>
<text text-anchor="middle" x="2199" y="-242.5" font-family="Helvetica,sans-Serif" font-size="10.00">swl/swl_usp_cmdStatus.h</text>
</a>
</g>
</g>
<!-- Node7&#45;&gt;Node19 -->
<g id="edge18" class="edge">
<title>Node7&#45;&gt;Node19</title>
<path fill="none" stroke="midnightblue" d="M2001.8,-299.58C2038.09,-289.72 2111.45,-269.79 2157.75,-257.21"/>
<polygon fill="midnightblue" stroke="midnightblue" points="2158.74,-260.56 2167.48,-254.56 2156.91,-253.81 2158.74,-260.56"/>
</g>
<!-- Node20 -->
<g id="node20" class="node">
<title>Node20</title>
<g id="a_node20"><a xlink:title=" ">
<polygon fill="white" stroke="#bfbfbf" points="2326,-235.5 2326,-254.5 2412,-254.5 2412,-235.5 2326,-235.5"/>
<text text-anchor="middle" x="2369" y="-242.5" font-family="Helvetica,sans-Serif" font-size="10.00">swl/swl_wps.h</text>
</a>
</g>
</g>
<!-- Node7&#45;&gt;Node20 -->
<g id="edge19" class="edge">
<title>Node7&#45;&gt;Node20</title>
<path fill="none" stroke="midnightblue" d="M2001.76,-302.23C2054.81,-294.26 2195.04,-273.13 2312,-255 2313.25,-254.81 2314.52,-254.61 2315.8,-254.41"/>
<polygon fill="midnightblue" stroke="midnightblue" points="2316.4,-257.86 2325.74,-252.86 2315.32,-250.94 2316.4,-257.86"/>
</g>
<!-- Node21 -->
<g id="node21" class="node">
<title>Node21</title>
<g id="a_node21"><a xlink:title=" ">
<polygon fill="white" stroke="#bfbfbf" points="2430,-235.5 2430,-254.5 2534,-254.5 2534,-235.5 2430,-235.5"/>
<text text-anchor="middle" x="2482" y="-242.5" font-family="Helvetica,sans-Serif" font-size="10.00">swl/swl_security.h</text>
</a>
</g>
</g>
<!-- Node7&#45;&gt;Node21 -->
<g id="edge20" class="edge">
<title>Node7&#45;&gt;Node21</title>
<path fill="none" stroke="midnightblue" d="M2001.6,-303.28C2064.4,-296.76 2252.61,-276.87 2419.81,-255.12"/>
<polygon fill="midnightblue" stroke="midnightblue" points="2420.31,-258.59 2429.77,-253.82 2419.4,-251.64 2420.31,-258.59"/>
</g>
<!-- Node22 -->
<g id="node22" class="node">
<title>Node22</title>
<g id="a_node22"><a xlink:title=" ">
<polygon fill="white" stroke="#bfbfbf" points="2552.5,-235.5 2552.5,-254.5 2635.5,-254.5 2635.5,-235.5 2552.5,-235.5"/>
<text text-anchor="middle" x="2594" y="-242.5" font-family="Helvetica,sans-Serif" font-size="10.00">amxc/amxc.h</text>
</a>
</g>
</g>
<!-- Node7&#45;&gt;Node22 -->
<g id="edge21" class="edge">
<title>Node7&#45;&gt;Node22</title>
<path fill="none" stroke="midnightblue" d="M2001.55,-304.23C2075.39,-299.74 2325.15,-283.42 2542.31,-254.98"/>
<polygon fill="midnightblue" stroke="midnightblue" points="2542.84,-258.44 2552.3,-253.66 2541.92,-251.5 2542.84,-258.44"/>
</g>
<!-- Node23 -->
<g id="node23" class="node">
<title>Node23</title>
<g id="a_node23"><a xlink:title=" ">
<polygon fill="white" stroke="#bfbfbf" points="2654,-235.5 2654,-254.5 2738,-254.5 2738,-235.5 2654,-235.5"/>
<text text-anchor="middle" x="2696" y="-242.5" font-family="Helvetica,sans-Serif" font-size="10.00">amxp/amxp.h</text>
</a>
</g>
</g>
<!-- Node7&#45;&gt;Node23 -->
<g id="edge22" class="edge">
<title>Node7&#45;&gt;Node23</title>
<path fill="none" stroke="midnightblue" d="M2001.57,-304.61C2083.68,-301.06 2384.68,-286.63 2643.79,-254.89"/>
<polygon fill="midnightblue" stroke="midnightblue" points="2644.27,-258.36 2653.76,-253.66 2643.41,-251.41 2644.27,-258.36"/>
</g>
<!-- Node24 -->
<g id="node24" class="node">
<title>Node24</title>
<g id="a_node24"><a xlink:title=" ">
<polygon fill="white" stroke="#bfbfbf" points="2756,-235.5 2756,-254.5 2896,-254.5 2896,-235.5 2756,-235.5"/>
<text text-anchor="middle" x="2826" y="-242.5" font-family="Helvetica,sans-Serif" font-size="10.00">amxd/amxd_parameter.h</text>
</a>
</g>
</g>
<!-- Node7&#45;&gt;Node24 -->
<g id="edge23" class="edge">
<title>Node7&#45;&gt;Node24</title>
<path fill="none" stroke="midnightblue" d="M2001.69,-304.45C2091.62,-300.03 2444.22,-281.89 2745.56,-255.09"/>
<polygon fill="midnightblue" stroke="midnightblue" points="2746.16,-258.55 2755.81,-254.17 2745.53,-251.58 2746.16,-258.55"/>
</g>
<!-- Node25 -->
<g id="node25" class="node">
<title>Node25</title>
<g id="a_node25"><a xlink:title=" ">
<polygon fill="white" stroke="#bfbfbf" points="2914.5,-235.5 2914.5,-254.5 3033.5,-254.5 3033.5,-235.5 2914.5,-235.5"/>
<text text-anchor="middle" x="2974" y="-242.5" font-family="Helvetica,sans-Serif" font-size="10.00">amxd/amxd_action.h</text>
</a>
</g>
</g>
<!-- Node7&#45;&gt;Node25 -->
<g id="edge24" class="edge">
<title>Node7&#45;&gt;Node25</title>
<path fill="none" stroke="midnightblue" d="M2001.56,-304.92C2102.27,-302.1 2536.72,-288.54 2904.16,-255"/>
<polygon fill="midnightblue" stroke="midnightblue" points="2904.55,-258.48 2914.19,-254.08 2903.91,-251.51 2904.55,-258.48"/>
</g>
<!-- Node26 -->
<g id="node26" class="node">
<title>Node26</title>
<g id="a_node26"><a xlink:title=" ">
<polygon fill="white" stroke="#bfbfbf" points="3051.5,-235.5 3051.5,-254.5 3226.5,-254.5 3226.5,-235.5 3051.5,-235.5"/>
<text text-anchor="middle" x="3139" y="-242.5" font-family="Helvetica,sans-Serif" font-size="10.00">amxd/amxd_object_parameter.h</text>
</a>
</g>
</g>
<!-- Node7&#45;&gt;Node26 -->
<g id="edge25" class="edge">
<title>Node7&#45;&gt;Node26</title>
<path fill="none" stroke="midnightblue" d="M2001.71,-304.83C2111.42,-301.38 2616.05,-284.58 3041.22,-255.02"/>
<polygon fill="midnightblue" stroke="midnightblue" points="3041.51,-258.51 3051.25,-254.32 3041.03,-251.53 3041.51,-258.51"/>
</g>
<!-- Node27 -->
<g id="node27" class="node">
<title>Node27</title>
<g id="a_node27"><a xlink:title=" ">
<polygon fill="white" stroke="#bfbfbf" points="3245,-235.5 3245,-254.5 3397,-254.5 3397,-235.5 3245,-235.5"/>
<text text-anchor="middle" x="3321" y="-242.5" font-family="Helvetica,sans-Serif" font-size="10.00">amxd/amxd_object_event.h</text>
</a>
</g>
</g>
<!-- Node7&#45;&gt;Node27 -->
<g id="edge26" class="edge">
<title>Node7&#45;&gt;Node27</title>
<path fill="none" stroke="midnightblue" d="M2001.51,-305.15C2122.24,-303.08 2727.8,-291.28 3234.52,-254.98"/>
<polygon fill="midnightblue" stroke="midnightblue" points="3234.87,-258.46 3244.59,-254.25 3234.36,-251.48 3234.87,-258.46"/>
</g>
<!-- Node28 -->
<g id="node28" class="node">
<title>Node28</title>
<g id="a_node28"><a xlink:title=" ">
<polygon fill="white" stroke="#bfbfbf" points="3415.5,-235.5 3415.5,-254.5 3544.5,-254.5 3544.5,-235.5 3415.5,-235.5"/>
<text text-anchor="middle" x="3480" y="-242.5" font-family="Helvetica,sans-Serif" font-size="10.00">amxd/amxd_function.h</text>
</a>
</g>
</g>
<!-- Node7&#45;&gt;Node28 -->
<g id="edge27" class="edge">
<title>Node7&#45;&gt;Node28</title>
<path fill="none" stroke="midnightblue" d="M2001.82,-305.43C2132.72,-304.85 2827.3,-299.77 3405.25,-254.98"/>
<polygon fill="midnightblue" stroke="midnightblue" points="3405.76,-258.45 3415.46,-254.18 3405.22,-251.47 3405.76,-258.45"/>
</g>
<!-- Node29 -->
<g id="node29" class="node">
<title>Node29</title>
<g id="a_node29"><a xlink:title=" ">
<polygon fill="white" stroke="#bfbfbf" points="297.5,-235.5 297.5,-254.5 466.5,-254.5 466.5,-235.5 297.5,-235.5"/>
<text text-anchor="middle" x="382" y="-242.5" font-family="Helvetica,sans-Serif" font-size="10.00">amxd/amxd_object_hierarchy.h</text>
</a>
</g>
</g>
<!-- Node7&#45;&gt;Node29 -->
<g id="edge28" class="edge">
<title>Node7&#45;&gt;Node29</title>
<path fill="none" stroke="midnightblue" d="M1958.37,-304.86C1788.6,-299.8 671.97,-266.33 476.7,-255.03"/>
<polygon fill="midnightblue" stroke="midnightblue" points="476.82,-251.54 466.63,-254.42 476.4,-258.52 476.82,-251.54"/>
</g>
<!-- Node30 -->
<g id="node30" class="node">
<title>Node30</title>
<g id="a_node30"><a xlink:title=" ">
<polygon fill="white" stroke="#bfbfbf" points="484.5,-235.5 484.5,-254.5 603.5,-254.5 603.5,-235.5 484.5,-235.5"/>
<text text-anchor="middle" x="544" y="-242.5" font-family="Helvetica,sans-Serif" font-size="10.00">amxd/amxd_object.h</text>
</a>
</g>
</g>
<!-- Node7&#45;&gt;Node30 -->
<g id="edge29" class="edge">
<title>Node7&#45;&gt;Node30</title>
<path fill="none" stroke="midnightblue" d="M1958.3,-304.82C1797.58,-299.8 793.97,-268.12 613.88,-255.02"/>
<polygon fill="midnightblue" stroke="midnightblue" points="613.91,-251.51 603.67,-254.22 613.37,-258.49 613.91,-251.51"/>
</g>
<!-- Node31 -->
<g id="node31" class="node">
<title>Node31</title>
<g id="a_node31"><a xlink:title=" ">
<polygon fill="white" stroke="#bfbfbf" points="621.5,-235.5 621.5,-254.5 726.5,-254.5 726.5,-235.5 621.5,-235.5"/>
<text text-anchor="middle" x="674" y="-242.5" font-family="Helvetica,sans-Serif" font-size="10.00">amxd/amxd_dm.h</text>
</a>
</g>
</g>
<!-- Node7&#45;&gt;Node31 -->
<g id="edge30" class="edge">
<title>Node7&#45;&gt;Node31</title>
<path fill="none" stroke="midnightblue" d="M1958.22,-304.93C1815.18,-301.1 1007.88,-278.83 736.91,-254.95"/>
<polygon fill="midnightblue" stroke="midnightblue" points="737,-251.45 726.72,-254.03 736.36,-258.42 737,-251.45"/>
</g>
<!-- Node32 -->
<g id="node32" class="node">
<title>Node32</title>
<g id="a_node32"><a xlink:title=" ">
<polygon fill="white" stroke="#bfbfbf" points="745,-235.5 745,-254.5 889,-254.5 889,-235.5 745,-235.5"/>
<text text-anchor="middle" x="817" y="-242.5" font-family="Helvetica,sans-Serif" font-size="10.00">amxd/amxd_transaction.h</text>
</a>
</g>
</g>
<!-- Node7&#45;&gt;Node32 -->
<g id="edge31" class="edge">
<title>Node7&#45;&gt;Node32</title>
<path fill="none" stroke="midnightblue" d="M1958.25,-305C1847.18,-302.36 1332.16,-288.79 899.6,-255.08"/>
<polygon fill="midnightblue" stroke="midnightblue" points="899.64,-251.57 889.4,-254.28 899.1,-258.55 899.64,-251.57"/>
</g>
<!-- Node33 -->
<g id="node33" class="node">
<title>Node33</title>
<g id="a_node33"><a xlink:title=" ">
<polygon fill="white" stroke="#bfbfbf" points="907,-235.5 907,-254.5 1023,-254.5 1023,-235.5 907,-235.5"/>
<text text-anchor="middle" x="965" y="-242.5" font-family="Helvetica,sans-Serif" font-size="10.00">amxb/amxb_types.h</text>
</a>
</g>
</g>
<!-- Node7&#45;&gt;Node33 -->
<g id="edge32" class="edge">
<title>Node7&#45;&gt;Node33</title>
<path fill="none" stroke="midnightblue" d="M1958.37,-304.91C1855.43,-301.98 1404.84,-287.8 1037,-255 1035.73,-254.89 1034.45,-254.77 1033.16,-254.65"/>
<polygon fill="midnightblue" stroke="midnightblue" points="1033.42,-251.15 1023.12,-253.62 1032.72,-258.12 1033.42,-251.15"/>
</g>
<!-- Node7&#45;&gt;Node41 -->
<g id="edge33" class="edge">
<title>Node7&#45;&gt;Node41</title>
<path fill="none" stroke="midnightblue" d="M1958.28,-304.88C1770.69,-299.55 428.16,-261.28 289.73,-254.81"/>
<polygon fill="midnightblue" stroke="midnightblue" points="289.85,-251.31 279.67,-254.25 289.46,-258.3 289.85,-251.31"/>
</g>
<!-- Node42 -->
<g id="node35" class="node">
<title>Node42</title>
<g id="a_node35"><a xlink:title=" ">
<polygon fill="white" stroke="#bfbfbf" points="157.5,-6 157.5,-25 282.5,-25 282.5,-6 157.5,-6"/>
<text text-anchor="middle" x="220" y="-13" font-family="Helvetica,sans-Serif" font-size="10.00">swla/swla_chanspec.h</text>
</a>
</g>
</g>
<!-- Node7&#45;&gt;Node42 -->
<g id="edge37" class="edge">
<title>Node7&#45;&gt;Node42</title>
<path fill="none" stroke="midnightblue" d="M1958.34,-305.26C1755.05,-302.92 188.63,-284.03 151,-255 127.17,-236.62 132,-220.1 132,-190 132,-190 132,-190 132,-132 132,-88.29 172.37,-50.8 198.43,-31.16"/>
<polygon fill="midnightblue" stroke="midnightblue" points="200.6,-33.91 206.63,-25.2 196.49,-28.25 200.6,-33.91"/>
</g>
<!-- Node53 -->
<g id="node36" class="node">
<title>Node53</title>
<g id="a_node36"><a xlink:title=" ">
<polygon fill="white" stroke="#bfbfbf" points="2025.5,-6 2025.5,-25 2146.5,-25 2146.5,-6 2025.5,-6"/>
<text text-anchor="middle" x="2086" y="-13" font-family="Helvetica,sans-Serif" font-size="10.00">swl/swl_returnCode.h</text>
</a>
</g>
</g>
<!-- Node7&#45;&gt;Node53 -->
<g id="edge39" class="edge">
<title>Node7&#45;&gt;Node53</title>
<path fill="none" stroke="midnightblue" d="M1958.37,-305.02C1859.03,-302.63 1449.45,-290.65 1406,-255 1382.73,-235.91 1387,-220.1 1387,-190 1387,-190 1387,-190 1387,-132 1387,-68.77 1838.01,-32.6 2015.47,-20.81"/>
<polygon fill="midnightblue" stroke="midnightblue" points="2015.75,-24.3 2025.5,-20.15 2015.29,-17.32 2015.75,-24.3"/>
</g>
<!-- Node61 -->
<g id="node37" class="node">
<title>Node61</title>
<g id="a_node37"><a xlink:href="wld__secDmn_8h.html" target="_top" xlink:title=" ">
<polygon fill="white" stroke="red" points="3876,-235.5 3876,-254.5 3964,-254.5 3964,-235.5 3876,-235.5"/>
<text text-anchor="middle" x="3920" y="-242.5" font-family="Helvetica,sans-Serif" font-size="10.00">wld_secDmn.h</text>
</a>
</g>
</g>
<!-- Node7&#45;&gt;Node61 -->
<g id="edge40" class="edge">
<title>Node7&#45;&gt;Node61</title>
<path fill="none" stroke="midnightblue" d="M2001.55,-305.09C2149.79,-302.25 3033.81,-284.62 3753,-255 3790.56,-253.45 3832.85,-251.17 3865.48,-249.29"/>
<polygon fill="midnightblue" stroke="midnightblue" points="3865.93,-252.77 3875.71,-248.69 3865.53,-245.78 3865.93,-252.77"/>
</g>
<!-- Node68 -->
<g id="node44" class="node">
<title>Node68</title>
<g id="a_node44"><a xlink:title=" ">
<polygon fill="white" stroke="#bfbfbf" points="2864.5,-6 2864.5,-25 2961.5,-25 2961.5,-6 2864.5,-6"/>
<text text-anchor="middle" x="2913" y="-13" font-family="Helvetica,sans-Serif" font-size="10.00">swl/swl_80211.h</text>
</a>
</g>
</g>
<!-- Node7&#45;&gt;Node68 -->
<g id="edge52" class="edge">
<title>Node7&#45;&gt;Node68</title>
<path fill="none" stroke="midnightblue" d="M2001.83,-304.69C2063.41,-301.99 2236.68,-291.25 2278,-255 2300.72,-235.07 2298,-220.23 2298,-190 2298,-190 2298,-190 2298,-132 2298,-75.75 2700.55,-34.92 2854.29,-21.37"/>
<polygon fill="midnightblue" stroke="midnightblue" points="2854.83,-24.84 2864.49,-20.48 2854.22,-17.87 2854.83,-24.84"/>
</g>
<!-- Node41&#45;&gt;Node8 -->
<g id="edge34" class="edge">
<title>Node41&#45;&gt;Node8</title>
<path fill="none" stroke="midnightblue" d="M257.55,-235.44C300.66,-225.62 371.15,-209.56 415.75,-199.4"/>
<polygon fill="midnightblue" stroke="midnightblue" points="416.7,-202.77 425.68,-197.14 415.15,-195.95 416.7,-202.77"/>
</g>
<!-- Node41&#45;&gt;Node14 -->
<g id="edge36" class="edge">
<title>Node41&#45;&gt;Node14</title>
<path fill="none" stroke="midnightblue" d="M279.68,-235.9C282.49,-235.58 285.28,-235.28 288,-235 494.16,-213.94 739.62,-199.28 851.3,-193.17"/>
<polygon fill="midnightblue" stroke="midnightblue" points="851.56,-196.66 861.36,-192.63 851.18,-189.67 851.56,-196.66"/>
</g>
<!-- Node41&#45;&gt;Node42 -->
<g id="edge35" class="edge">
<title>Node41&#45;&gt;Node42</title>
<path fill="none" stroke="midnightblue" d="M220,-235.36C220,-202.14 220,-82.16 220,-35.37"/>
<polygon fill="midnightblue" stroke="midnightblue" points="223.5,-35.15 220,-25.15 216.5,-35.15 223.5,-35.15"/>
</g>
<!-- Node62 -->
<g id="node38" class="node">
<title>Node62</title>
<g id="a_node38"><a xlink:href="wld__wpaCtrlMngr_8h.html" target="_top" xlink:title=" ">
<polygon fill="white" stroke="black" points="3849,-179.5 3849,-198.5 3959,-198.5 3959,-179.5 3849,-179.5"/>
<text text-anchor="middle" x="3904" y="-186.5" font-family="Helvetica,sans-Serif" font-size="10.00">wld_wpaCtrlMngr.h</text>
</a>
</g>
</g>
<!-- Node61&#45;&gt;Node62 -->
<g id="edge41" class="edge">
<title>Node61&#45;&gt;Node62</title>
<path fill="none" stroke="midnightblue" d="M3917.36,-235.08C3915.21,-227.85 3912.12,-217.41 3909.45,-208.4"/>
<polygon fill="midnightblue" stroke="midnightblue" points="3912.79,-207.34 3906.59,-198.75 3906.08,-209.33 3912.79,-207.34"/>
</g>
<!-- Node63 -->
<g id="node39" class="node">
<title>Node63</title>
<g id="a_node39"><a xlink:href="wld__wpaCtrl__types_8h.html" target="_top" xlink:title=" ">
<polygon fill="white" stroke="black" points="3844,-6 3844,-25 3962,-25 3962,-6 3844,-6"/>
<text text-anchor="middle" x="3903" y="-13" font-family="Helvetica,sans-Serif" font-size="10.00">wld_wpaCtrl_types.h</text>
</a>
</g>
</g>
<!-- Node62&#45;&gt;Node63 -->
<g id="edge42" class="edge">
<title>Node62&#45;&gt;Node63</title>
<path fill="none" stroke="midnightblue" d="M3919.78,-179.47C3932.2,-171.77 3948.61,-159.18 3956,-143 3959.7,-134.92 3958.03,-131.65 3956,-123 3948.04,-89.16 3927.63,-53.77 3914.59,-33.51"/>
<polygon fill="midnightblue" stroke="midnightblue" points="3917.46,-31.5 3909.02,-25.08 3911.62,-35.35 3917.46,-31.5"/>
</g>
<!-- Node64 -->
<g id="node40" class="node">
<title>Node64</title>
<g id="a_node40"><a xlink:href="wld__wpaCtrlInterface_8h.html" target="_top" xlink:title=" ">
<polygon fill="white" stroke="black" points="3817.5,-123.5 3817.5,-142.5 3946.5,-142.5 3946.5,-123.5 3817.5,-123.5"/>
<text text-anchor="middle" x="3882" y="-130.5" font-family="Helvetica,sans-Serif" font-size="10.00">wld_wpaCtrlInterface.h</text>
</a>
</g>
</g>
<!-- Node62&#45;&gt;Node64 -->
<g id="edge43" class="edge">
<title>Node62&#45;&gt;Node64</title>
<path fill="none" stroke="midnightblue" d="M3900.37,-179.08C3897.39,-171.77 3893.07,-161.18 3889.38,-152.1"/>
<polygon fill="midnightblue" stroke="midnightblue" points="3892.58,-150.69 3885.57,-142.75 3886.1,-153.33 3892.58,-150.69"/>
</g>
<!-- Node64&#45;&gt;Node63 -->
<g id="edge44" class="edge">
<title>Node64&#45;&gt;Node63</title>
<path fill="none" stroke="midnightblue" d="M3883.58,-123.32C3886.97,-104.67 3895.01,-60.44 3899.61,-35.13"/>
<polygon fill="midnightblue" stroke="midnightblue" points="3903.06,-35.75 3901.4,-25.28 3896.17,-34.49 3903.06,-35.75"/>
</g>
<!-- Node64&#45;&gt;Node65 -->
<g id="edge45" class="edge">
<title>Node64&#45;&gt;Node65</title>
<path fill="none" stroke="midnightblue" d="M3864.09,-123.44C3845.75,-114.68 3816.99,-100.94 3795.91,-90.86"/>
<polygon fill="midnightblue" stroke="midnightblue" points="3797.35,-87.67 3786.82,-86.52 3794.33,-93.99 3797.35,-87.67"/>
</g>
<!-- Node65&#45;&gt;Node42 -->
<g id="edge46" class="edge">
<title>Node65&#45;&gt;Node42</title>
<path fill="none" stroke="midnightblue" d="M3706.65,-74.95C3276.69,-67.75 754.95,-25.47 292.75,-17.72"/>
<polygon fill="midnightblue" stroke="midnightblue" points="292.59,-14.22 282.53,-17.55 292.47,-21.22 292.59,-14.22"/>
</g>
<!-- Node65&#45;&gt;Node53 -->
<g id="edge50" class="edge">
<title>Node65&#45;&gt;Node53</title>
<path fill="none" stroke="midnightblue" d="M3706.85,-73.8C3445.31,-64.56 2434.76,-28.83 2157,-19.01"/>
<polygon fill="midnightblue" stroke="midnightblue" points="2156.77,-15.5 2146.65,-18.64 2156.52,-22.5 2156.77,-15.5"/>
</g>
<!-- Node65&#45;&gt;Node63 -->
<g id="edge51" class="edge">
<title>Node65&#45;&gt;Node63</title>
<path fill="none" stroke="midnightblue" d="M3788.2,-67.48C3810.79,-57.45 3848.5,-40.7 3874.5,-29.15"/>
<polygon fill="midnightblue" stroke="midnightblue" points="3876.12,-32.27 3883.84,-25.01 3873.28,-25.87 3876.12,-32.27"/>
</g>
<!-- Node66 -->
<g id="node42" class="node">
<title>Node66</title>
<g id="a_node42"><a xlink:title=" ">
<polygon fill="white" stroke="#bfbfbf" points="3594,-6 3594,-25 3694,-25 3694,-6 3594,-6"/>
<text text-anchor="middle" x="3644" y="-13" font-family="Helvetica,sans-Serif" font-size="10.00">swla/swla_mac.h</text>
</a>
</g>
</g>
<!-- Node65&#45;&gt;Node66 -->
<g id="edge47" class="edge">
<title>Node65&#45;&gt;Node66</title>
<path fill="none" stroke="midnightblue" d="M3751.09,-67.48C3730.11,-57.49 3695.15,-40.85 3670.91,-29.31"/>
<polygon fill="midnightblue" stroke="midnightblue" points="3672.41,-26.15 3661.88,-25.01 3669.4,-32.47 3672.41,-26.15"/>
</g>
<!-- Node67 -->
<g id="node43" class="node">
<title>Node67</title>
<g id="a_node43"><a xlink:title=" ">
<polygon fill="white" stroke="#bfbfbf" points="3712,-0.5 3712,-30.5 3826,-30.5 3826,-0.5 3712,-0.5"/>
<text text-anchor="start" x="3720" y="-18.5" font-family="Helvetica,sans-Serif" font-size="10.00">swl/swl_ieee802_1x</text>
<text text-anchor="middle" x="3769" y="-7.5" font-family="Helvetica,sans-Serif" font-size="10.00">_defs.h</text>
</a>
</g>
</g>
<!-- Node65&#45;&gt;Node67 -->
<g id="edge48" class="edge">
<title>Node65&#45;&gt;Node67</title>
<path fill="none" stroke="midnightblue" d="M3769,-67.48C3769,-60.47 3769,-50.19 3769,-40.7"/>
<polygon fill="midnightblue" stroke="midnightblue" points="3772.5,-40.52 3769,-30.52 3765.5,-40.52 3772.5,-40.52"/>
</g>
<!-- Node65&#45;&gt;Node68 -->
<g id="edge49" class="edge">
<title>Node65&#45;&gt;Node68</title>
<path fill="none" stroke="midnightblue" d="M3706.75,-71.67C3547.57,-60.61 3127.33,-31.4 2971.89,-20.59"/>
<polygon fill="midnightblue" stroke="midnightblue" points="2971.82,-17.08 2961.6,-19.88 2971.34,-24.06 2971.82,-17.08"/>
</g>
<!-- Node79&#45;&gt;Node7 -->
<g id="edge56" class="edge">
<title>Node79&#45;&gt;Node7</title>
<path fill="none" stroke="midnightblue" d="M3562.45,-363.86C3555.69,-361.52 3548.13,-359.29 3541,-358 3232.15,-302.19 2205.39,-306.02 2011.67,-307.27"/>
<polygon fill="midnightblue" stroke="midnightblue" points="2011.57,-303.77 2001.59,-307.33 2011.61,-310.77 2011.57,-303.77"/>
</g>
<!-- Node79&#45;&gt;Node9 -->
<g id="edge55" class="edge">
<title>Node79&#45;&gt;Node9</title>
<path fill="none" stroke="midnightblue" d="M3584.34,-363.81C3585.15,-343.49 3587.16,-292.55 3588.26,-264.78"/>
<polygon fill="midnightblue" stroke="midnightblue" points="3591.76,-264.89 3588.65,-254.76 3584.76,-264.61 3591.76,-264.89"/>
</g>
<!-- Node80&#45;&gt;Node62 -->
<g id="edge59" class="edge">
<title>Node80&#45;&gt;Node62</title>
<path fill="none" stroke="midnightblue" d="M3830.95,-358.12C3834.89,-332.27 3845.32,-276.76 3867,-235 3872.45,-224.5 3880.65,-214.2 3887.94,-206.1"/>
<polygon fill="midnightblue" stroke="midnightblue" points="3890.49,-208.5 3894.8,-198.82 3885.4,-203.7 3890.49,-208.5"/>
</g>
<!-- Node80&#45;&gt;Node64 -->
<g id="edge58" class="edge">
<title>Node80&#45;&gt;Node64</title>
<path fill="none" stroke="midnightblue" d="M3826.62,-358.16C3821.8,-325.01 3813.42,-241.19 3840,-179 3844.9,-167.53 3854.06,-157.17 3862.58,-149.28"/>
<polygon fill="midnightblue" stroke="midnightblue" points="3865.12,-151.72 3870.39,-142.53 3860.54,-146.42 3865.12,-151.72"/>
</g>
<!-- Node81 -->
<g id="node47" class="node">
<title>Node81</title>
<g id="a_node47"><a xlink:href="wld__wpaCtrlConnection__priv_8h.html" target="_top" xlink:title=" ">
<polygon fill="white" stroke="red" points="3612.5,-291.5 3612.5,-321.5 3743.5,-321.5 3743.5,-291.5 3612.5,-291.5"/>
<text text-anchor="start" x="3620.5" y="-309.5" font-family="Helvetica,sans-Serif" font-size="10.00">wld_wpaCtrlConnection</text>
<text text-anchor="middle" x="3678" y="-298.5" font-family="Helvetica,sans-Serif" font-size="10.00">_priv.h</text>
</a>
</g>
</g>
<!-- Node80&#45;&gt;Node81 -->
<g id="edge60" class="edge">
<title>Node80&#45;&gt;Node81</title>
<path fill="none" stroke="midnightblue" d="M3796.24,-358.4C3773.88,-348.77 3744.06,-335.94 3719.96,-325.56"/>
<polygon fill="midnightblue" stroke="midnightblue" points="3721.27,-322.32 3710.7,-321.58 3718.5,-328.75 3721.27,-322.32"/>
</g>
<!-- Node81&#45;&gt;Node10 -->
<g id="edge61" class="edge">
<title>Node81&#45;&gt;Node10</title>
<path fill="none" stroke="midnightblue" d="M3680.61,-291.4C3682.09,-283.38 3683.97,-273.23 3685.57,-264.57"/>
<polygon fill="midnightblue" stroke="midnightblue" points="3689.02,-265.13 3687.4,-254.66 3682.14,-263.85 3689.02,-265.13"/>
</g>
<!-- Node83&#45;&gt;Node61 -->
<g id="edge65" class="edge">
<title>Node83&#45;&gt;Node61</title>
<path fill="none" stroke="midnightblue" d="M3960.27,-296.98C3953.22,-288.05 3941.97,-273.81 3933.15,-262.64"/>
<polygon fill="midnightblue" stroke="midnightblue" points="3935.67,-260.19 3926.72,-254.51 3930.17,-264.53 3935.67,-260.19"/>
</g>
<!-- Node83&#45;&gt;Node65 -->
<g id="edge64" class="edge">
<title>Node83&#45;&gt;Node65</title>
<path fill="none" stroke="midnightblue" d="M3969.91,-296.72C3979.02,-267.37 4003.65,-171.86 3956,-123 3939.87,-106.46 3886.56,-94.66 3840.97,-87.3"/>
<polygon fill="midnightblue" stroke="midnightblue" points="3841.49,-83.84 3831.07,-85.75 3840.41,-90.75 3841.49,-83.84"/>
</g>
<!-- Node84 -->
<g id="node49" class="node">
<title>Node84</title>
<g id="a_node49"><a xlink:title=" ">
<polygon fill="white" stroke="#bfbfbf" points="4020,-235.5 4020,-254.5 4124,-254.5 4124,-235.5 4020,-235.5"/>
<text text-anchor="middle" x="4072" y="-242.5" font-family="Helvetica,sans-Serif" font-size="10.00">swl/swl_unLiList.h</text>
</a>
</g>
</g>
<!-- Node83&#45;&gt;Node84 -->
<g id="edge63" class="edge">
<title>Node83&#45;&gt;Node84</title>
<path fill="none" stroke="midnightblue" d="M3982.04,-296.98C3999.28,-287.21 4027.74,-271.08 4048.03,-259.58"/>
<polygon fill="midnightblue" stroke="midnightblue" points="4050.01,-262.48 4056.98,-254.51 4046.56,-256.39 4050.01,-262.48"/>
</g>
</g>
</svg>
