<?xml version="1.0" encoding="UTF-8" standalone="no"?>
<!DOCTYPE svg PUBLIC "-//W3C//DTD SVG 1.1//EN"
 "http://www.w3.org/Graphics/SVG/1.1/DTD/svg11.dtd">
<!-- Generated by graphviz version 2.43.0 (0)
 -->
<!-- Title: include/wld/wld_assocdev.h Pages: 1 -->
<svg width="5332pt" height="263pt"
 viewBox="0.00 0.00 5332.17 263.00" xmlns="http://www.w3.org/2000/svg" xmlns:xlink="http://www.w3.org/1999/xlink">
<g id="graph0" class="graph" transform="scale(1 1) rotate(0) translate(4 259)">
<title>include/wld/wld_assocdev.h</title>
<polygon fill="white" stroke="transparent" points="-4,4 -4,-259 5328.17,-259 5328.17,4 -4,4"/>
<!-- Node1 -->
<g id="node1" class="node">
<title>Node1</title>
<g id="a_node1"><a xlink:title=" ">
<polygon fill="#bfbfbf" stroke="black" points="2466.5,-235.5 2466.5,-254.5 2618.5,-254.5 2618.5,-235.5 2466.5,-235.5"/>
<text text-anchor="middle" x="2542.5" y="-242.5" font-family="Helvetica,sans-Serif" font-size="10.00">include/wld/wld_assocdev.h</text>
</a>
</g>
</g>
<!-- Node2 -->
<g id="node2" class="node">
<title>Node2</title>
<g id="a_node2"><a xlink:href="wld_8h.html" target="_top" xlink:title=" ">
<polygon fill="white" stroke="red" points="2439,-174 2439,-193 2482,-193 2482,-174 2439,-174"/>
<text text-anchor="middle" x="2460.5" y="-181" font-family="Helvetica,sans-Serif" font-size="10.00">wld.h</text>
</a>
</g>
</g>
<!-- Node1&#45;&gt;Node2 -->
<g id="edge1" class="edge">
<title>Node1&#45;&gt;Node2</title>
<path fill="none" stroke="midnightblue" d="M2530.75,-235.48C2517.72,-226.02 2496.46,-210.6 2480.74,-199.19"/>
<polygon fill="midnightblue" stroke="midnightblue" points="2482.38,-196.05 2472.23,-193.01 2478.27,-201.71 2482.38,-196.05"/>
</g>
<!-- Node74 -->
<g id="node47" class="node">
<title>Node74</title>
<g id="a_node47"><a xlink:href="wld__extMod_8h.html" target="_top" xlink:title=" ">
<polygon fill="white" stroke="black" points="27,-112.5 27,-131.5 112,-131.5 112,-112.5 27,-112.5"/>
<text text-anchor="middle" x="69.5" y="-119.5" font-family="Helvetica,sans-Serif" font-size="10.00">wld_extMod.h</text>
</a>
</g>
</g>
<!-- Node1&#45;&gt;Node74 -->
<g id="edge61" class="edge">
<title>Node1&#45;&gt;Node74</title>
<path fill="none" stroke="midnightblue" d="M2466.29,-244.23C2167.48,-244.34 1047.04,-237.34 122.4,-132.36"/>
<polygon fill="midnightblue" stroke="midnightblue" points="122.54,-128.85 112.21,-131.2 121.75,-135.81 122.54,-128.85"/>
</g>
<!-- Node75 -->
<g id="node48" class="node">
<title>Node75</title>
<g id="a_node48"><a xlink:title=" ">
<polygon fill="white" stroke="#bfbfbf" points="2500,-174 2500,-193 2585,-193 2585,-174 2500,-174"/>
<text text-anchor="middle" x="2542.5" y="-181" font-family="Helvetica,sans-Serif" font-size="10.00">swl/swl_hex.h</text>
</a>
</g>
</g>
<!-- Node1&#45;&gt;Node75 -->
<g id="edge62" class="edge">
<title>Node1&#45;&gt;Node75</title>
<path fill="none" stroke="midnightblue" d="M2542.5,-235.48C2542.5,-227.08 2542.5,-213.98 2542.5,-203.16"/>
<polygon fill="midnightblue" stroke="midnightblue" points="2546,-203.01 2542.5,-193.01 2539,-203.01 2546,-203.01"/>
</g>
<!-- Node63 -->
<g id="node49" class="node">
<title>Node63</title>
<g id="a_node49"><a xlink:title=" ">
<polygon fill="white" stroke="#bfbfbf" points="2603.5,-168.5 2603.5,-198.5 2717.5,-198.5 2717.5,-168.5 2603.5,-168.5"/>
<text text-anchor="start" x="2611.5" y="-186.5" font-family="Helvetica,sans-Serif" font-size="10.00">swl/swl_ieee802_1x</text>
<text text-anchor="middle" x="2660.5" y="-175.5" font-family="Helvetica,sans-Serif" font-size="10.00">_defs.h</text>
</a>
</g>
</g>
<!-- Node1&#45;&gt;Node63 -->
<g id="edge63" class="edge">
<title>Node1&#45;&gt;Node63</title>
<path fill="none" stroke="midnightblue" d="M2559.41,-235.48C2576.06,-227.08 2602.05,-213.97 2623.51,-203.15"/>
<polygon fill="midnightblue" stroke="midnightblue" points="2625.34,-206.15 2632.69,-198.52 2622.18,-199.9 2625.34,-206.15"/>
</g>
<!-- Node76 -->
<g id="node50" class="node">
<title>Node76</title>
<g id="a_node50"><a xlink:title=" ">
<polygon fill="white" stroke="#bfbfbf" points="2736,-174 2736,-193 2899,-193 2899,-174 2736,-174"/>
<text text-anchor="middle" x="2817.5" y="-181" font-family="Helvetica,sans-Serif" font-size="10.00">swl/swl_genericFrameParser.h</text>
</a>
</g>
</g>
<!-- Node1&#45;&gt;Node76 -->
<g id="edge64" class="edge">
<title>Node1&#45;&gt;Node76</title>
<path fill="none" stroke="midnightblue" d="M2581.9,-235.48C2631.01,-224.85 2714.97,-206.68 2768.27,-195.15"/>
<polygon fill="midnightblue" stroke="midnightblue" points="2769.14,-198.54 2778.17,-193.01 2767.66,-191.7 2769.14,-198.54"/>
</g>
<!-- Node3 -->
<g id="node3" class="node">
<title>Node3</title>
<g id="a_node3"><a xlink:title=" ">
<polygon fill="white" stroke="#bfbfbf" points="3039.5,-56.5 3039.5,-75.5 3101.5,-75.5 3101.5,-56.5 3039.5,-56.5"/>
<text text-anchor="middle" x="3070.5" y="-63.5" font-family="Helvetica,sans-Serif" font-size="10.00">stdbool.h</text>
</a>
</g>
</g>
<!-- Node2&#45;&gt;Node3 -->
<g id="edge2" class="edge">
<title>Node2&#45;&gt;Node3</title>
<path fill="none" stroke="midnightblue" d="M2475.49,-173.93C2480.43,-171.53 2486.06,-169.25 2491.5,-168 2567.65,-150.56 5248.62,-187.59 5303.5,-132 5309.75,-125.67 5309.72,-118.35 5303.5,-112 5263.62,-71.31 3413.91,-67.4 3111.97,-67.04"/>
<polygon fill="midnightblue" stroke="midnightblue" points="3111.89,-63.54 3101.89,-67.03 3111.88,-70.54 3111.89,-63.54"/>
</g>
<!-- Node4 -->
<g id="node4" class="node">
<title>Node4</title>
<g id="a_node4"><a xlink:title=" ">
<polygon fill="white" stroke="#bfbfbf" points="352,-0.5 352,-19.5 405,-19.5 405,-0.5 352,-0.5"/>
<text text-anchor="middle" x="378.5" y="-7.5" font-family="Helvetica,sans-Serif" font-size="10.00">stdint.h</text>
</a>
</g>
</g>
<!-- Node2&#45;&gt;Node4 -->
<g id="edge3" class="edge">
<title>Node2&#45;&gt;Node4</title>
<path fill="none" stroke="midnightblue" d="M2438.9,-182.43C2212.16,-181.63 276.18,-173.62 235.5,-132 192.93,-88.45 289.15,-43.87 343.89,-23.07"/>
<polygon fill="midnightblue" stroke="midnightblue" points="345.11,-26.35 353.27,-19.58 342.68,-19.79 345.11,-26.35"/>
</g>
<!-- Node5 -->
<g id="node5" class="node">
<title>Node5</title>
<g id="a_node5"><a xlink:title=" ">
<polygon fill="white" stroke="#bfbfbf" points="101.5,-56.5 101.5,-75.5 211.5,-75.5 211.5,-56.5 101.5,-56.5"/>
<text text-anchor="middle" x="156.5" y="-63.5" font-family="Helvetica,sans-Serif" font-size="10.00">swl/swl_common.h</text>
</a>
</g>
</g>
<!-- Node2&#45;&gt;Node5 -->
<g id="edge4" class="edge">
<title>Node2&#45;&gt;Node5</title>
<path fill="none" stroke="midnightblue" d="M2438.69,-182.29C2209.75,-180 254.65,-159.73 202.5,-132 183.85,-122.09 171.08,-100.86 163.81,-85.35"/>
<polygon fill="midnightblue" stroke="midnightblue" points="166.84,-83.53 159.66,-75.74 160.41,-86.31 166.84,-83.53"/>
</g>
<!-- Node6 -->
<g id="node6" class="node">
<title>Node6</title>
<g id="a_node6"><a xlink:title=" ">
<polygon fill="white" stroke="#bfbfbf" points="855.5,-112.5 855.5,-131.5 991.5,-131.5 991.5,-112.5 855.5,-112.5"/>
<text text-anchor="middle" x="923.5" y="-119.5" font-family="Helvetica,sans-Serif" font-size="10.00">swla/swla_commonLib.h</text>
</a>
</g>
</g>
<!-- Node2&#45;&gt;Node6 -->
<g id="edge5" class="edge">
<title>Node2&#45;&gt;Node6</title>
<path fill="none" stroke="midnightblue" d="M2438.6,-182.42C2305.68,-181.76 1593.4,-176.28 1001.91,-132.04"/>
<polygon fill="midnightblue" stroke="midnightblue" points="1002.14,-128.55 991.91,-131.29 1001.61,-135.53 1002.14,-128.55"/>
</g>
<!-- Node7 -->
<g id="node7" class="node">
<title>Node7</title>
<g id="a_node7"><a xlink:title=" ">
<polygon fill="white" stroke="#bfbfbf" points="1009.5,-112.5 1009.5,-131.5 1097.5,-131.5 1097.5,-112.5 1009.5,-112.5"/>
<text text-anchor="middle" x="1053.5" y="-119.5" font-family="Helvetica,sans-Serif" font-size="10.00">swl/swl_uuid.h</text>
</a>
</g>
</g>
<!-- Node2&#45;&gt;Node7 -->
<g id="edge6" class="edge">
<title>Node2&#45;&gt;Node7</title>
<path fill="none" stroke="midnightblue" d="M2438.93,-182.75C2312.42,-184.01 1653.96,-187.57 1107.74,-131.98"/>
<polygon fill="midnightblue" stroke="midnightblue" points="1107.99,-128.49 1097.69,-130.95 1107.28,-135.45 1107.99,-128.49"/>
</g>
<!-- Node8 -->
<g id="node8" class="node">
<title>Node8</title>
<g id="a_node8"><a xlink:title=" ">
<polygon fill="white" stroke="#bfbfbf" points="1115.5,-112.5 1115.5,-131.5 1267.5,-131.5 1267.5,-112.5 1115.5,-112.5"/>
<text text-anchor="middle" x="1191.5" y="-119.5" font-family="Helvetica,sans-Serif" font-size="10.00">swla/swla_radioStandards.h</text>
</a>
</g>
</g>
<!-- Node2&#45;&gt;Node8 -->
<g id="edge7" class="edge">
<title>Node2&#45;&gt;Node8</title>
<path fill="none" stroke="midnightblue" d="M2438.7,-182.07C2321.47,-179.66 1754.07,-166.66 1278.08,-131.99"/>
<polygon fill="midnightblue" stroke="midnightblue" points="1278.14,-128.48 1267.91,-131.24 1277.63,-135.46 1278.14,-128.48"/>
</g>
<!-- Node9 -->
<g id="node9" class="node">
<title>Node9</title>
<g id="a_node9"><a xlink:title=" ">
<polygon fill="white" stroke="#bfbfbf" points="730,-0.5 730,-19.5 831,-19.5 831,-0.5 730,-0.5"/>
<text text-anchor="middle" x="780.5" y="-7.5" font-family="Helvetica,sans-Serif" font-size="10.00">swla/swla_time.h</text>
</a>
</g>
</g>
<!-- Node2&#45;&gt;Node9 -->
<g id="edge8" class="edge">
<title>Node2&#45;&gt;Node9</title>
<path fill="none" stroke="midnightblue" d="M2475.49,-173.93C2480.43,-171.53 2486.06,-169.25 2491.5,-168 2568.08,-150.46 5264.3,-187.9 5319.5,-132 5325.75,-125.67 5325.71,-118.36 5319.5,-112 5237.55,-27.95 1375.33,-12.86 841.46,-11.18"/>
<polygon fill="midnightblue" stroke="midnightblue" points="841.29,-7.68 831.28,-11.14 841.26,-14.68 841.29,-7.68"/>
</g>
<!-- Node10 -->
<g id="node10" class="node">
<title>Node10</title>
<g id="a_node10"><a xlink:title=" ">
<polygon fill="white" stroke="#bfbfbf" points="1286,-112.5 1286,-131.5 1415,-131.5 1415,-112.5 1286,-112.5"/>
<text text-anchor="middle" x="1350.5" y="-119.5" font-family="Helvetica,sans-Serif" font-size="10.00">swla/swla_time_spec.h</text>
</a>
</g>
</g>
<!-- Node2&#45;&gt;Node10 -->
<g id="edge9" class="edge">
<title>Node2&#45;&gt;Node10</title>
<path fill="none" stroke="midnightblue" d="M2438.95,-182.03C2331.13,-179.55 1839.36,-166.82 1425.12,-131.98"/>
<polygon fill="midnightblue" stroke="midnightblue" points="1425.31,-128.49 1415.05,-131.13 1424.71,-135.46 1425.31,-128.49"/>
</g>
<!-- Node11 -->
<g id="node11" class="node">
<title>Node11</title>
<g id="a_node11"><a xlink:title=" ">
<polygon fill="white" stroke="#bfbfbf" points="1433.5,-112.5 1433.5,-131.5 1527.5,-131.5 1527.5,-112.5 1433.5,-112.5"/>
<text text-anchor="middle" x="1480.5" y="-119.5" font-family="Helvetica,sans-Serif" font-size="10.00">swla/swla_oui.h</text>
</a>
</g>
</g>
<!-- Node2&#45;&gt;Node11 -->
<g id="edge10" class="edge">
<title>Node2&#45;&gt;Node11</title>
<path fill="none" stroke="midnightblue" d="M2438.94,-182.16C2338.23,-180.37 1903.86,-170.77 1537.51,-131.99"/>
<polygon fill="midnightblue" stroke="midnightblue" points="1537.82,-128.5 1527.51,-130.92 1537.08,-135.46 1537.82,-128.5"/>
</g>
<!-- Node12 -->
<g id="node12" class="node">
<title>Node12</title>
<g id="a_node12"><a xlink:title=" ">
<polygon fill="white" stroke="#bfbfbf" points="1545.5,-112.5 1545.5,-131.5 1673.5,-131.5 1673.5,-112.5 1545.5,-112.5"/>
<text text-anchor="middle" x="1609.5" y="-119.5" font-family="Helvetica,sans-Serif" font-size="10.00">swla/swla_delayExec.h</text>
</a>
</g>
</g>
<!-- Node2&#45;&gt;Node12 -->
<g id="edge11" class="edge">
<title>Node2&#45;&gt;Node12</title>
<path fill="none" stroke="midnightblue" d="M2438.84,-181.54C2348.17,-177.42 1990.11,-160.23 1683.62,-131.95"/>
<polygon fill="midnightblue" stroke="midnightblue" points="1683.93,-128.47 1673.65,-131.03 1683.29,-135.44 1683.93,-128.47"/>
</g>
<!-- Node13 -->
<g id="node13" class="node">
<title>Node13</title>
<g id="a_node13"><a xlink:title=" ">
<polygon fill="white" stroke="#bfbfbf" points="1692,-112.5 1692,-131.5 1811,-131.5 1811,-112.5 1692,-112.5"/>
<text text-anchor="middle" x="1751.5" y="-119.5" font-family="Helvetica,sans-Serif" font-size="10.00">swla/swla_function.h</text>
</a>
</g>
</g>
<!-- Node2&#45;&gt;Node13 -->
<g id="edge12" class="edge">
<title>Node2&#45;&gt;Node13</title>
<path fill="none" stroke="midnightblue" d="M2438.92,-181.2C2358.76,-176.28 2070.45,-157.83 1821.28,-132.03"/>
<polygon fill="midnightblue" stroke="midnightblue" points="1821.63,-128.55 1811.32,-130.99 1820.9,-135.51 1821.63,-128.55"/>
</g>
<!-- Node14 -->
<g id="node14" class="node">
<title>Node14</title>
<g id="a_node14"><a xlink:title=" ">
<polygon fill="white" stroke="#bfbfbf" points="1829,-112.5 1829,-131.5 1970,-131.5 1970,-112.5 1829,-112.5"/>
<text text-anchor="middle" x="1899.5" y="-119.5" font-family="Helvetica,sans-Serif" font-size="10.00">swl/swl_usp_cmdStatus.h</text>
</a>
</g>
</g>
<!-- Node2&#45;&gt;Node14 -->
<g id="edge13" class="edge">
<title>Node2&#45;&gt;Node14</title>
<path fill="none" stroke="midnightblue" d="M2438.92,-180.29C2372.43,-173.48 2164.58,-152.08 1980.31,-132.08"/>
<polygon fill="midnightblue" stroke="midnightblue" points="1980.49,-128.58 1970.17,-130.98 1979.73,-135.54 1980.49,-128.58"/>
</g>
<!-- Node15 -->
<g id="node15" class="node">
<title>Node15</title>
<g id="a_node15"><a xlink:title=" ">
<polygon fill="white" stroke="#bfbfbf" points="1988.5,-112.5 1988.5,-131.5 2074.5,-131.5 2074.5,-112.5 1988.5,-112.5"/>
<text text-anchor="middle" x="2031.5" y="-119.5" font-family="Helvetica,sans-Serif" font-size="10.00">swl/swl_wps.h</text>
</a>
</g>
</g>
<!-- Node2&#45;&gt;Node15 -->
<g id="edge14" class="edge">
<title>Node2&#45;&gt;Node15</title>
<path fill="none" stroke="midnightblue" d="M2438.78,-179.89C2382.28,-173.02 2225.85,-153.62 2084.74,-132.14"/>
<polygon fill="midnightblue" stroke="midnightblue" points="2085.02,-128.64 2074.61,-130.59 2083.97,-135.56 2085.02,-128.64"/>
</g>
<!-- Node16 -->
<g id="node16" class="node">
<title>Node16</title>
<g id="a_node16"><a xlink:title=" ">
<polygon fill="white" stroke="#bfbfbf" points="2092.5,-112.5 2092.5,-131.5 2196.5,-131.5 2196.5,-112.5 2092.5,-112.5"/>
<text text-anchor="middle" x="2144.5" y="-119.5" font-family="Helvetica,sans-Serif" font-size="10.00">swl/swl_security.h</text>
</a>
</g>
</g>
<!-- Node2&#45;&gt;Node16 -->
<g id="edge15" class="edge">
<title>Node2&#45;&gt;Node16</title>
<path fill="none" stroke="midnightblue" d="M2438.78,-178.41C2390.07,-169.24 2270.84,-146.79 2200,-133.45"/>
<polygon fill="midnightblue" stroke="midnightblue" points="2200.38,-129.96 2189.91,-131.55 2199.09,-136.84 2200.38,-129.96"/>
</g>
<!-- Node17 -->
<g id="node17" class="node">
<title>Node17</title>
<g id="a_node17"><a xlink:title=" ">
<polygon fill="white" stroke="#bfbfbf" points="0,-56.5 0,-75.5 83,-75.5 83,-56.5 0,-56.5"/>
<text text-anchor="middle" x="41.5" y="-63.5" font-family="Helvetica,sans-Serif" font-size="10.00">amxc/amxc.h</text>
</a>
</g>
</g>
<!-- Node2&#45;&gt;Node17 -->
<g id="edge16" class="edge">
<title>Node2&#45;&gt;Node17</title>
<path fill="none" stroke="midnightblue" d="M2438.74,-182.28C2212.31,-180 292.63,-159.85 176.5,-132 133.92,-121.79 88.97,-96.9 63.17,-81.06"/>
<polygon fill="midnightblue" stroke="midnightblue" points="64.91,-78.01 54.58,-75.67 61.19,-83.94 64.91,-78.01"/>
</g>
<!-- Node18 -->
<g id="node18" class="node">
<title>Node18</title>
<g id="a_node18"><a xlink:title=" ">
<polygon fill="white" stroke="#bfbfbf" points="2214.5,-112.5 2214.5,-131.5 2298.5,-131.5 2298.5,-112.5 2214.5,-112.5"/>
<text text-anchor="middle" x="2256.5" y="-119.5" font-family="Helvetica,sans-Serif" font-size="10.00">amxp/amxp.h</text>
</a>
</g>
</g>
<!-- Node2&#45;&gt;Node18 -->
<g id="edge17" class="edge">
<title>Node2&#45;&gt;Node18</title>
<path fill="none" stroke="midnightblue" d="M2438.67,-176.13C2404.51,-166.17 2337.94,-146.75 2295.43,-134.35"/>
<polygon fill="midnightblue" stroke="midnightblue" points="2296.27,-130.96 2285.69,-131.52 2294.31,-137.68 2296.27,-130.96"/>
</g>
<!-- Node19 -->
<g id="node19" class="node">
<title>Node19</title>
<g id="a_node19"><a xlink:title=" ">
<polygon fill="white" stroke="#bfbfbf" points="2316.5,-112.5 2316.5,-131.5 2456.5,-131.5 2456.5,-112.5 2316.5,-112.5"/>
<text text-anchor="middle" x="2386.5" y="-119.5" font-family="Helvetica,sans-Serif" font-size="10.00">amxd/amxd_parameter.h</text>
</a>
</g>
</g>
<!-- Node2&#45;&gt;Node19 -->
<g id="edge18" class="edge">
<title>Node2&#45;&gt;Node19</title>
<path fill="none" stroke="midnightblue" d="M2449.9,-173.98C2438.25,-164.61 2419.31,-149.38 2405.17,-138.01"/>
<polygon fill="midnightblue" stroke="midnightblue" points="2407.07,-135.05 2397.08,-131.51 2402.68,-140.5 2407.07,-135.05"/>
</g>
<!-- Node20 -->
<g id="node20" class="node">
<title>Node20</title>
<g id="a_node20"><a xlink:title=" ">
<polygon fill="white" stroke="#bfbfbf" points="2475,-112.5 2475,-131.5 2594,-131.5 2594,-112.5 2475,-112.5"/>
<text text-anchor="middle" x="2534.5" y="-119.5" font-family="Helvetica,sans-Serif" font-size="10.00">amxd/amxd_action.h</text>
</a>
</g>
</g>
<!-- Node2&#45;&gt;Node20 -->
<g id="edge19" class="edge">
<title>Node2&#45;&gt;Node20</title>
<path fill="none" stroke="midnightblue" d="M2471.1,-173.98C2482.75,-164.61 2501.69,-149.38 2515.83,-138.01"/>
<polygon fill="midnightblue" stroke="midnightblue" points="2518.32,-140.5 2523.92,-131.51 2513.93,-135.05 2518.32,-140.5"/>
</g>
<!-- Node21 -->
<g id="node21" class="node">
<title>Node21</title>
<g id="a_node21"><a xlink:title=" ">
<polygon fill="white" stroke="#bfbfbf" points="2612,-112.5 2612,-131.5 2787,-131.5 2787,-112.5 2612,-112.5"/>
<text text-anchor="middle" x="2699.5" y="-119.5" font-family="Helvetica,sans-Serif" font-size="10.00">amxd/amxd_object_parameter.h</text>
</a>
</g>
</g>
<!-- Node2&#45;&gt;Node21 -->
<g id="edge20" class="edge">
<title>Node2&#45;&gt;Node21</title>
<path fill="none" stroke="midnightblue" d="M2476.95,-173.97C2481.57,-171.81 2486.66,-169.63 2491.5,-168 2538.07,-152.29 2592.41,-140.76 2633.87,-133.3"/>
<polygon fill="midnightblue" stroke="midnightblue" points="2634.61,-136.72 2643.85,-131.54 2633.39,-129.83 2634.61,-136.72"/>
</g>
<!-- Node22 -->
<g id="node22" class="node">
<title>Node22</title>
<g id="a_node22"><a xlink:title=" ">
<polygon fill="white" stroke="#bfbfbf" points="2805.5,-112.5 2805.5,-131.5 2957.5,-131.5 2957.5,-112.5 2805.5,-112.5"/>
<text text-anchor="middle" x="2881.5" y="-119.5" font-family="Helvetica,sans-Serif" font-size="10.00">amxd/amxd_object_event.h</text>
</a>
</g>
</g>
<!-- Node2&#45;&gt;Node22 -->
<g id="edge21" class="edge">
<title>Node2&#45;&gt;Node22</title>
<path fill="none" stroke="midnightblue" d="M2476.21,-173.96C2481,-171.68 2486.36,-169.46 2491.5,-168 2505.93,-163.91 2684.86,-144.17 2795.28,-132.24"/>
<polygon fill="midnightblue" stroke="midnightblue" points="2795.85,-135.7 2805.42,-131.14 2795.1,-128.74 2795.85,-135.7"/>
</g>
<!-- Node23 -->
<g id="node23" class="node">
<title>Node23</title>
<g id="a_node23"><a xlink:title=" ">
<polygon fill="white" stroke="#bfbfbf" points="2976,-112.5 2976,-131.5 3105,-131.5 3105,-112.5 2976,-112.5"/>
<text text-anchor="middle" x="3040.5" y="-119.5" font-family="Helvetica,sans-Serif" font-size="10.00">amxd/amxd_function.h</text>
</a>
</g>
</g>
<!-- Node2&#45;&gt;Node23 -->
<g id="edge22" class="edge">
<title>Node2&#45;&gt;Node23</title>
<path fill="none" stroke="midnightblue" d="M2475.86,-173.98C2480.72,-171.65 2486.21,-169.39 2491.5,-168 2693.09,-115.11 2753.91,-151.6 2965.74,-132"/>
<polygon fill="midnightblue" stroke="midnightblue" points="2966.32,-135.46 2975.95,-131.03 2965.66,-128.49 2966.32,-135.46"/>
</g>
<!-- Node24 -->
<g id="node24" class="node">
<title>Node24</title>
<g id="a_node24"><a xlink:title=" ">
<polygon fill="white" stroke="#bfbfbf" points="3123,-112.5 3123,-131.5 3292,-131.5 3292,-112.5 3123,-112.5"/>
<text text-anchor="middle" x="3207.5" y="-119.5" font-family="Helvetica,sans-Serif" font-size="10.00">amxd/amxd_object_hierarchy.h</text>
</a>
</g>
</g>
<!-- Node2&#45;&gt;Node24 -->
<g id="edge23" class="edge">
<title>Node2&#45;&gt;Node24</title>
<path fill="none" stroke="midnightblue" d="M2475.84,-173.92C2480.71,-171.59 2486.2,-169.34 2491.5,-168 2757.11,-100.85 2836.05,-152.08 3112.52,-132.1"/>
<polygon fill="midnightblue" stroke="midnightblue" points="3113.15,-135.57 3122.87,-131.33 3112.63,-128.59 3113.15,-135.57"/>
</g>
<!-- Node25 -->
<g id="node25" class="node">
<title>Node25</title>
<g id="a_node25"><a xlink:title=" ">
<polygon fill="white" stroke="#bfbfbf" points="3310,-112.5 3310,-131.5 3429,-131.5 3429,-112.5 3310,-112.5"/>
<text text-anchor="middle" x="3369.5" y="-119.5" font-family="Helvetica,sans-Serif" font-size="10.00">amxd/amxd_object.h</text>
</a>
</g>
</g>
<!-- Node2&#45;&gt;Node25 -->
<g id="edge24" class="edge">
<title>Node2&#45;&gt;Node25</title>
<path fill="none" stroke="midnightblue" d="M2475.83,-173.88C2480.7,-171.54 2486.19,-169.3 2491.5,-168 2663.4,-125.76 3106.09,-147.05 3299.68,-132.04"/>
<polygon fill="midnightblue" stroke="midnightblue" points="3300.15,-135.51 3309.83,-131.2 3299.57,-128.54 3300.15,-135.51"/>
</g>
<!-- Node26 -->
<g id="node26" class="node">
<title>Node26</title>
<g id="a_node26"><a xlink:title=" ">
<polygon fill="white" stroke="#bfbfbf" points="3447,-112.5 3447,-131.5 3552,-131.5 3552,-112.5 3447,-112.5"/>
<text text-anchor="middle" x="3499.5" y="-119.5" font-family="Helvetica,sans-Serif" font-size="10.00">amxd/amxd_dm.h</text>
</a>
</g>
</g>
<!-- Node2&#45;&gt;Node26 -->
<g id="edge25" class="edge">
<title>Node2&#45;&gt;Node26</title>
<path fill="none" stroke="midnightblue" d="M2475.83,-173.86C2480.69,-171.52 2486.19,-169.29 2491.5,-168 2693.07,-119.15 3212.75,-150.42 3436.85,-132"/>
<polygon fill="midnightblue" stroke="midnightblue" points="3437.31,-135.48 3446.97,-131.12 3436.7,-128.5 3437.31,-135.48"/>
</g>
<!-- Node27 -->
<g id="node27" class="node">
<title>Node27</title>
<g id="a_node27"><a xlink:title=" ">
<polygon fill="white" stroke="#bfbfbf" points="3570.5,-112.5 3570.5,-131.5 3714.5,-131.5 3714.5,-112.5 3570.5,-112.5"/>
<text text-anchor="middle" x="3642.5" y="-119.5" font-family="Helvetica,sans-Serif" font-size="10.00">amxd/amxd_transaction.h</text>
</a>
</g>
</g>
<!-- Node2&#45;&gt;Node27 -->
<g id="edge26" class="edge">
<title>Node2&#45;&gt;Node27</title>
<path fill="none" stroke="midnightblue" d="M2475.51,-174C2480.45,-171.6 2486.07,-169.3 2491.5,-168 2719.68,-113.23 3307.83,-148.16 3559.82,-132.02"/>
<polygon fill="midnightblue" stroke="midnightblue" points="3560.36,-135.5 3570.1,-131.32 3559.89,-128.51 3560.36,-135.5"/>
</g>
<!-- Node28 -->
<g id="node28" class="node">
<title>Node28</title>
<g id="a_node28"><a xlink:title=" ">
<polygon fill="white" stroke="#bfbfbf" points="3732.5,-112.5 3732.5,-131.5 3848.5,-131.5 3848.5,-112.5 3732.5,-112.5"/>
<text text-anchor="middle" x="3790.5" y="-119.5" font-family="Helvetica,sans-Serif" font-size="10.00">amxb/amxb_types.h</text>
</a>
</g>
</g>
<!-- Node2&#45;&gt;Node28 -->
<g id="edge27" class="edge">
<title>Node2&#45;&gt;Node28</title>
<path fill="none" stroke="midnightblue" d="M2475.5,-173.98C2480.44,-171.59 2486.07,-169.29 2491.5,-168 2754.85,-105.4 3434.34,-153.12 3722.36,-131.96"/>
<polygon fill="midnightblue" stroke="midnightblue" points="3722.74,-135.44 3732.44,-131.18 3722.19,-128.46 3722.74,-135.44"/>
</g>
<!-- Node29 -->
<g id="node29" class="node">
<title>Node29</title>
<g id="a_node29"><a xlink:title=" ">
<polygon fill="white" stroke="#bfbfbf" points="3866.5,-112.5 3866.5,-131.5 4002.5,-131.5 4002.5,-112.5 3866.5,-112.5"/>
<text text-anchor="middle" x="3934.5" y="-119.5" font-family="Helvetica,sans-Serif" font-size="10.00">amxb/amxb_operators.h</text>
</a>
</g>
</g>
<!-- Node2&#45;&gt;Node29 -->
<g id="edge28" class="edge">
<title>Node2&#45;&gt;Node29</title>
<path fill="none" stroke="midnightblue" d="M2475.5,-173.97C2480.44,-171.58 2486.06,-169.28 2491.5,-168 2636.45,-133.77 3665.76,-142.47 3855.98,-131.95"/>
<polygon fill="midnightblue" stroke="midnightblue" points="3856.34,-135.44 3866.1,-131.32 3855.9,-128.45 3856.34,-135.44"/>
</g>
<!-- Node30 -->
<g id="node30" class="node">
<title>Node30</title>
<g id="a_node30"><a xlink:title=" ">
<polygon fill="white" stroke="#bfbfbf" points="4020.5,-112.5 4020.5,-131.5 4132.5,-131.5 4132.5,-112.5 4020.5,-112.5"/>
<text text-anchor="middle" x="4076.5" y="-119.5" font-family="Helvetica,sans-Serif" font-size="10.00">amxb/amxb_error.h</text>
</a>
</g>
</g>
<!-- Node2&#45;&gt;Node30 -->
<g id="edge29" class="edge">
<title>Node2&#45;&gt;Node30</title>
<path fill="none" stroke="midnightblue" d="M2475.5,-173.96C2480.44,-171.57 2486.06,-169.28 2491.5,-168 2653.07,-130.07 3801.69,-145.05 4009.91,-131.93"/>
<polygon fill="midnightblue" stroke="midnightblue" points="4010.45,-135.4 4020.17,-131.2 4009.95,-128.42 4010.45,-135.4"/>
</g>
<!-- Node31 -->
<g id="node31" class="node">
<title>Node31</title>
<g id="a_node31"><a xlink:title=" ">
<polygon fill="white" stroke="#bfbfbf" points="4151,-112.5 4151,-131.5 4234,-131.5 4234,-112.5 4151,-112.5"/>
<text text-anchor="middle" x="4192.5" y="-119.5" font-family="Helvetica,sans-Serif" font-size="10.00">amxo/amxo.h</text>
</a>
</g>
</g>
<!-- Node2&#45;&gt;Node31 -->
<g id="edge30" class="edge">
<title>Node2&#45;&gt;Node31</title>
<path fill="none" stroke="midnightblue" d="M2475.5,-173.96C2480.44,-171.56 2486.06,-169.27 2491.5,-168 2667.18,-126.93 3917.76,-149.24 4140.71,-131.78"/>
<polygon fill="midnightblue" stroke="midnightblue" points="4141.17,-135.25 4150.82,-130.89 4140.55,-128.28 4141.17,-135.25"/>
</g>
<!-- Node32 -->
<g id="node32" class="node">
<title>Node32</title>
<g id="a_node32"><a xlink:title=" ">
<polygon fill="white" stroke="#bfbfbf" points="4252,-112.5 4252,-131.5 4367,-131.5 4367,-112.5 4252,-112.5"/>
<text text-anchor="middle" x="4309.5" y="-119.5" font-family="Helvetica,sans-Serif" font-size="10.00">amxo/amxo_types.h</text>
</a>
</g>
</g>
<!-- Node2&#45;&gt;Node32 -->
<g id="edge31" class="edge">
<title>Node2&#45;&gt;Node32</title>
<path fill="none" stroke="midnightblue" d="M2475.5,-173.95C2480.44,-171.56 2486.06,-169.27 2491.5,-168 2678.25,-124.46 4008.23,-146.49 4241.96,-131.94"/>
<polygon fill="midnightblue" stroke="midnightblue" points="4242.22,-135.43 4251.95,-131.24 4241.73,-128.45 4242.22,-135.43"/>
</g>
<!-- Node33 -->
<g id="node33" class="node">
<title>Node33</title>
<g id="a_node33"><a xlink:href="wld__types_8h.html" target="_top" xlink:title=" ">
<polygon fill="white" stroke="red" points="458,-56.5 458,-75.5 533,-75.5 533,-56.5 458,-56.5"/>
<text text-anchor="middle" x="495.5" y="-63.5" font-family="Helvetica,sans-Serif" font-size="10.00">wld_types.h</text>
</a>
</g>
</g>
<!-- Node2&#45;&gt;Node33 -->
<g id="edge32" class="edge">
<title>Node2&#45;&gt;Node33</title>
<path fill="none" stroke="midnightblue" d="M2438.87,-182.31C2235.82,-180.49 669.47,-165.42 577.5,-132 550.17,-122.07 524.95,-99.14 509.89,-83.35"/>
<polygon fill="midnightblue" stroke="midnightblue" points="512.34,-80.84 502.99,-75.85 507.19,-85.58 512.34,-80.84"/>
</g>
<!-- Node36 -->
<g id="node34" class="node">
<title>Node36</title>
<g id="a_node34"><a xlink:href="wld__channel__types_8h.html" target="_top" xlink:title=" ">
<polygon fill="white" stroke="black" points="718,-112.5 718,-131.5 837,-131.5 837,-112.5 718,-112.5"/>
<text text-anchor="middle" x="777.5" y="-119.5" font-family="Helvetica,sans-Serif" font-size="10.00">wld_channel_types.h</text>
</a>
</g>
</g>
<!-- Node2&#45;&gt;Node36 -->
<g id="edge35" class="edge">
<title>Node2&#45;&gt;Node36</title>
<path fill="none" stroke="midnightblue" d="M2438.62,-182.63C2297.79,-183.27 1504.39,-184.4 847.45,-131.98"/>
<polygon fill="midnightblue" stroke="midnightblue" points="847.55,-128.48 837.3,-131.17 846.99,-135.46 847.55,-128.48"/>
</g>
<!-- Node37 -->
<g id="node35" class="node">
<title>Node37</title>
<g id="a_node35"><a xlink:title=" ">
<polygon fill="white" stroke="#bfbfbf" points="627,-56.5 627,-75.5 752,-75.5 752,-56.5 627,-56.5"/>
<text text-anchor="middle" x="689.5" y="-63.5" font-family="Helvetica,sans-Serif" font-size="10.00">swla/swla_chanspec.h</text>
</a>
</g>
</g>
<!-- Node2&#45;&gt;Node37 -->
<g id="edge53" class="edge">
<title>Node2&#45;&gt;Node37</title>
<path fill="none" stroke="midnightblue" d="M2438.84,-182.23C2240.47,-179.67 745.65,-159.51 709.5,-132 695.57,-121.4 691.07,-101.29 689.75,-86.23"/>
<polygon fill="midnightblue" stroke="midnightblue" points="693.23,-85.76 689.25,-75.94 686.23,-86.1 693.23,-85.76"/>
</g>
<!-- Node38 -->
<g id="node36" class="node">
<title>Node38</title>
<g id="a_node36"><a xlink:href="wld__bgdfs_8h.html" target="_top" xlink:title=" ">
<polygon fill="white" stroke="black" points="586,-112.5 586,-131.5 661,-131.5 661,-112.5 586,-112.5"/>
<text text-anchor="middle" x="623.5" y="-119.5" font-family="Helvetica,sans-Serif" font-size="10.00">wld_bgdfs.h</text>
</a>
</g>
</g>
<!-- Node2&#45;&gt;Node38 -->
<g id="edge39" class="edge">
<title>Node2&#45;&gt;Node38</title>
<path fill="none" stroke="midnightblue" d="M2438.78,-182.31C2260.92,-180.73 1041.24,-168.63 675.5,-132 674.19,-131.87 672.87,-131.72 671.53,-131.57"/>
<polygon fill="midnightblue" stroke="midnightblue" points="671.56,-128.04 661.19,-130.17 670.63,-134.98 671.56,-128.04"/>
</g>
<!-- Node39 -->
<g id="node37" class="node">
<title>Node39</title>
<g id="a_node37"><a xlink:href="wld__rad__delayMgr_8h.html" target="_top" xlink:title=" ">
<polygon fill="white" stroke="black" points="4385.5,-112.5 4385.5,-131.5 4499.5,-131.5 4499.5,-112.5 4385.5,-112.5"/>
<text text-anchor="middle" x="4442.5" y="-119.5" font-family="Helvetica,sans-Serif" font-size="10.00">wld_rad_delayMgr.h</text>
</a>
</g>
</g>
<!-- Node2&#45;&gt;Node39 -->
<g id="edge41" class="edge">
<title>Node2&#45;&gt;Node39</title>
<path fill="none" stroke="midnightblue" d="M2466.94,-173.95C2471.44,-171.55 2477.06,-169.26 2482.5,-168 2686.55,-120.59 4158.64,-148.18 4367.5,-132 4370.02,-131.8 4372.6,-131.58 4375.2,-131.32"/>
<polygon fill="midnightblue" stroke="midnightblue" points="4375.77,-134.78 4385.34,-130.24 4375.02,-127.82 4375.77,-134.78"/>
</g>
<!-- Node40 -->
<g id="node38" class="node">
<title>Node40</title>
<g id="a_node38"><a xlink:href="wld__fsm_8h.html" target="_top" xlink:title=" ">
<polygon fill="white" stroke="black" points="377,-112.5 377,-131.5 444,-131.5 444,-112.5 377,-112.5"/>
<text text-anchor="middle" x="410.5" y="-119.5" font-family="Helvetica,sans-Serif" font-size="10.00">wld_fsm.h</text>
</a>
</g>
</g>
<!-- Node2&#45;&gt;Node40 -->
<g id="edge43" class="edge">
<title>Node2&#45;&gt;Node40</title>
<path fill="none" stroke="midnightblue" d="M2438.83,-182.19C2238.08,-179.32 705,-156.74 454.21,-131.74"/>
<polygon fill="midnightblue" stroke="midnightblue" points="454.52,-128.25 444.21,-130.66 453.77,-135.21 454.52,-128.25"/>
</g>
<!-- Node41 -->
<g id="node39" class="node">
<title>Node41</title>
<g id="a_node39"><a xlink:href="wld__sensing_8h.html" target="_top" xlink:title=" ">
<polygon fill="white" stroke="black" points="4517.5,-112.5 4517.5,-131.5 4603.5,-131.5 4603.5,-112.5 4517.5,-112.5"/>
<text text-anchor="middle" x="4560.5" y="-119.5" font-family="Helvetica,sans-Serif" font-size="10.00">wld_sensing.h</text>
</a>
</g>
</g>
<!-- Node2&#45;&gt;Node41 -->
<g id="edge45" class="edge">
<title>Node2&#45;&gt;Node41</title>
<path fill="none" stroke="midnightblue" d="M2466.94,-173.94C2471.43,-171.55 2477.06,-169.26 2482.5,-168 2700.86,-117.41 4276.36,-153.18 4499.5,-132 4502.01,-131.76 4504.59,-131.47 4507.2,-131.14"/>
<polygon fill="midnightblue" stroke="midnightblue" points="4507.92,-134.57 4517.33,-129.7 4506.94,-127.64 4507.92,-134.57"/>
</g>
<!-- Node42 -->
<g id="node40" class="node">
<title>Node42</title>
<g id="a_node40"><a xlink:href="wld__mld_8h.html" target="_top" xlink:title=" ">
<polygon fill="white" stroke="black" points="462,-112.5 462,-131.5 529,-131.5 529,-112.5 462,-112.5"/>
<text text-anchor="middle" x="495.5" y="-119.5" font-family="Helvetica,sans-Serif" font-size="10.00">wld_mld.h</text>
</a>
</g>
</g>
<!-- Node2&#45;&gt;Node42 -->
<g id="edge47" class="edge">
<title>Node2&#45;&gt;Node42</title>
<path fill="none" stroke="midnightblue" d="M2438.95,-182.41C2254.42,-181.53 937.26,-173.83 543.5,-132 542.2,-131.86 540.87,-131.71 539.54,-131.54"/>
<polygon fill="midnightblue" stroke="midnightblue" points="539.63,-128.01 529.23,-130.02 538.61,-134.94 539.63,-128.01"/>
</g>
<!-- Node43 -->
<g id="node41" class="node">
<title>Node43</title>
<g id="a_node41"><a xlink:href="wld__autoCommitRadData_8h.html" target="_top" xlink:title=" ">
<polygon fill="white" stroke="black" points="4621.5,-112.5 4621.5,-131.5 4797.5,-131.5 4797.5,-112.5 4621.5,-112.5"/>
<text text-anchor="middle" x="4709.5" y="-119.5" font-family="Helvetica,sans-Serif" font-size="10.00">Utils/wld_autoCommitRadData.h</text>
</a>
</g>
</g>
<!-- Node2&#45;&gt;Node43 -->
<g id="edge49" class="edge">
<title>Node2&#45;&gt;Node43</title>
<path fill="none" stroke="midnightblue" d="M2475.49,-173.94C2480.43,-171.55 2486.06,-169.26 2491.5,-168 2718.11,-115.6 4333.74,-144.12 4611.1,-131.97"/>
<polygon fill="midnightblue" stroke="midnightblue" points="4611.68,-135.44 4621.49,-131.46 4611.33,-128.45 4611.68,-135.44"/>
</g>
<!-- Node44 -->
<g id="node42" class="node">
<title>Node44</title>
<g id="a_node42"><a xlink:href="wld__dmnMgt_8h.html" target="_top" xlink:title=" ">
<polygon fill="white" stroke="red" points="244.5,-112.5 244.5,-131.5 358.5,-131.5 358.5,-112.5 244.5,-112.5"/>
<text text-anchor="middle" x="301.5" y="-119.5" font-family="Helvetica,sans-Serif" font-size="10.00">Utils/wld_dmnMgt.h</text>
</a>
</g>
</g>
<!-- Node2&#45;&gt;Node44 -->
<g id="edge50" class="edge">
<title>Node2&#45;&gt;Node44</title>
<path fill="none" stroke="midnightblue" d="M2438.87,-182.31C2246.29,-180.52 822.41,-166.35 369.04,-131.91"/>
<polygon fill="midnightblue" stroke="midnightblue" points="369.08,-128.41 358.84,-131.12 368.54,-135.38 369.08,-128.41"/>
</g>
<!-- Node46 -->
<g id="node43" class="node">
<title>Node46</title>
<g id="a_node43"><a xlink:title=" ">
<polygon fill="white" stroke="#bfbfbf" points="4816,-112.5 4816,-131.5 4917,-131.5 4917,-112.5 4816,-112.5"/>
<text text-anchor="middle" x="4866.5" y="-119.5" font-family="Helvetica,sans-Serif" font-size="10.00">swl/swl_staCap.h</text>
</a>
</g>
</g>
<!-- Node2&#45;&gt;Node46 -->
<g id="edge54" class="edge">
<title>Node2&#45;&gt;Node46</title>
<path fill="none" stroke="midnightblue" d="M2475.49,-173.94C2480.43,-171.54 2486.06,-169.25 2491.5,-168 2739.12,-110.93 4506.21,-152.09 4805.4,-131.87"/>
<polygon fill="midnightblue" stroke="midnightblue" points="4806.11,-135.32 4815.82,-131.09 4805.58,-128.34 4806.11,-135.32"/>
</g>
<!-- Node47 -->
<g id="node44" class="node">
<title>Node47</title>
<g id="a_node44"><a xlink:title=" ">
<polygon fill="white" stroke="#bfbfbf" points="4935.5,-112.5 4935.5,-131.5 5039.5,-131.5 5039.5,-112.5 4935.5,-112.5"/>
<text text-anchor="middle" x="4987.5" y="-119.5" font-family="Helvetica,sans-Serif" font-size="10.00">swla/swla_table.h</text>
</a>
</g>
</g>
<!-- Node2&#45;&gt;Node47 -->
<g id="edge55" class="edge">
<title>Node2&#45;&gt;Node47</title>
<path fill="none" stroke="midnightblue" d="M2475.49,-173.93C2480.43,-171.54 2486.06,-169.25 2491.5,-168 2752.23,-108.01 4614.29,-152.76 4925.32,-131.9"/>
<polygon fill="midnightblue" stroke="midnightblue" points="4925.59,-135.39 4935.31,-131.16 4925.08,-128.41 4925.59,-135.39"/>
</g>
<!-- Node48 -->
<g id="node45" class="node">
<title>Node48</title>
<g id="a_node45"><a xlink:title=" ">
<polygon fill="white" stroke="#bfbfbf" points="5058,-112.5 5058,-131.5 5155,-131.5 5155,-112.5 5058,-112.5"/>
<text text-anchor="middle" x="5106.5" y="-119.5" font-family="Helvetica,sans-Serif" font-size="10.00">swl/swl_assert.h</text>
</a>
</g>
</g>
<!-- Node2&#45;&gt;Node48 -->
<g id="edge56" class="edge">
<title>Node2&#45;&gt;Node48</title>
<path fill="none" stroke="midnightblue" d="M2475.49,-173.93C2480.43,-171.54 2486.06,-169.25 2491.5,-168 2765.45,-105.07 4722.66,-154.75 5047.81,-131.83"/>
<polygon fill="midnightblue" stroke="midnightblue" points="5048.12,-135.32 5057.83,-131.06 5047.59,-128.34 5048.12,-135.32"/>
</g>
<!-- Node49 -->
<g id="node46" class="node">
<title>Node49</title>
<g id="a_node46"><a xlink:title=" ">
<polygon fill="white" stroke="#bfbfbf" points="5173,-112.5 5173,-131.5 5294,-131.5 5294,-112.5 5173,-112.5"/>
<text text-anchor="middle" x="5233.5" y="-119.5" font-family="Helvetica,sans-Serif" font-size="10.00">swl/swl_returnCode.h</text>
</a>
</g>
</g>
<!-- Node2&#45;&gt;Node49 -->
<g id="edge57" class="edge">
<title>Node2&#45;&gt;Node49</title>
<path fill="none" stroke="midnightblue" d="M2475.49,-173.93C2480.43,-171.54 2486.06,-169.25 2491.5,-168 2777.97,-102.29 4824.61,-152.17 5162.78,-131.97"/>
<polygon fill="midnightblue" stroke="midnightblue" points="5163.21,-135.45 5172.96,-131.3 5162.75,-128.46 5163.21,-135.45"/>
</g>
<!-- Node2&#45;&gt;Node74 -->
<g id="edge58" class="edge">
<title>Node2&#45;&gt;Node74</title>
<path fill="none" stroke="midnightblue" d="M2438.88,-182.21C2217.74,-179.22 369.35,-153.7 126.5,-132 125.03,-131.87 123.55,-131.72 122.05,-131.57"/>
<polygon fill="midnightblue" stroke="midnightblue" points="122.41,-128.08 112.06,-130.36 121.57,-135.03 122.41,-128.08"/>
</g>
<!-- Node33&#45;&gt;Node4 -->
<g id="edge33" class="edge">
<title>Node33&#45;&gt;Node4</title>
<path fill="none" stroke="midnightblue" d="M476.96,-56.44C457.88,-47.64 427.93,-33.81 406.06,-23.72"/>
<polygon fill="midnightblue" stroke="midnightblue" points="407.5,-20.53 396.95,-19.52 404.57,-26.88 407.5,-20.53"/>
</g>
<!-- Node33&#45;&gt;Node9 -->
<g id="edge34" class="edge">
<title>Node33&#45;&gt;Node9</title>
<path fill="none" stroke="midnightblue" d="M533.05,-57.88C582.25,-48.56 668.88,-32.15 725.48,-21.42"/>
<polygon fill="midnightblue" stroke="midnightblue" points="726.17,-24.86 735.34,-19.56 724.86,-17.98 726.17,-24.86"/>
</g>
<!-- Node36&#45;&gt;Node3 -->
<g id="edge36" class="edge">
<title>Node36&#45;&gt;Node3</title>
<path fill="none" stroke="midnightblue" d="M837.3,-112.79C840.41,-112.49 843.49,-112.23 846.5,-112 1294.24,-78.37 2763.46,-68.71 3029.13,-67.22"/>
<polygon fill="midnightblue" stroke="midnightblue" points="3029.5,-70.72 3039.48,-67.16 3029.46,-63.72 3029.5,-70.72"/>
</g>
<!-- Node36&#45;&gt;Node9 -->
<g id="edge38" class="edge">
<title>Node36&#45;&gt;Node9</title>
<path fill="none" stroke="midnightblue" d="M777.74,-112.37C778.22,-94.62 779.34,-53.67 779.99,-29.6"/>
<polygon fill="midnightblue" stroke="midnightblue" points="783.49,-29.68 780.27,-19.59 776.49,-29.49 783.49,-29.68"/>
</g>
<!-- Node36&#45;&gt;Node37 -->
<g id="edge37" class="edge">
<title>Node36&#45;&gt;Node37</title>
<path fill="none" stroke="midnightblue" d="M763.36,-112.32C749.63,-103.9 728.56,-90.97 712.44,-81.07"/>
<polygon fill="midnightblue" stroke="midnightblue" points="713.96,-77.9 703.6,-75.65 710.3,-83.87 713.96,-77.9"/>
</g>
<!-- Node38&#45;&gt;Node33 -->
<g id="edge40" class="edge">
<title>Node38&#45;&gt;Node33</title>
<path fill="none" stroke="midnightblue" d="M603.22,-112.44C582.15,-103.56 548.98,-89.56 525.01,-79.45"/>
<polygon fill="midnightblue" stroke="midnightblue" points="526.26,-76.18 515.69,-75.52 523.54,-82.63 526.26,-76.18"/>
</g>
<!-- Node39&#45;&gt;Node2 -->
<g id="edge42" class="edge">
<title>Node39&#45;&gt;Node2</title>
<path fill="none" stroke="midnightblue" d="M4391.1,-131.52C4389.22,-131.7 4387.34,-131.86 4385.5,-132 4176.64,-148.18 2704.55,-120.59 2500.5,-168 2497.58,-168.68 2494.62,-169.65 2491.66,-170.77"/>
<polygon fill="midnightblue" stroke="midnightblue" points="2490.19,-167.6 2482.34,-174.71 2492.91,-174.04 2490.19,-167.6"/>
</g>
<!-- Node40&#45;&gt;Node33 -->
<g id="edge44" class="edge">
<title>Node40&#45;&gt;Node33</title>
<path fill="none" stroke="midnightblue" d="M424.16,-112.32C437.42,-103.9 457.77,-90.97 473.35,-81.07"/>
<polygon fill="midnightblue" stroke="midnightblue" points="475.31,-83.97 481.88,-75.65 471.56,-78.06 475.31,-83.97"/>
</g>
<!-- Node41&#45;&gt;Node2 -->
<g id="edge46" class="edge">
<title>Node41&#45;&gt;Node2</title>
<path fill="none" stroke="midnightblue" d="M4522.21,-131.5C4520.62,-131.69 4519.05,-131.85 4517.5,-132 4294.36,-153.18 2718.86,-117.41 2500.5,-168 2497.58,-168.68 2494.62,-169.65 2491.66,-170.77"/>
<polygon fill="midnightblue" stroke="midnightblue" points="2490.19,-167.59 2482.34,-174.71 2492.91,-174.04 2490.19,-167.59"/>
</g>
<!-- Node42&#45;&gt;Node33 -->
<g id="edge48" class="edge">
<title>Node42&#45;&gt;Node33</title>
<path fill="none" stroke="midnightblue" d="M495.5,-112.08C495.5,-105.01 495.5,-94.86 495.5,-85.99"/>
<polygon fill="midnightblue" stroke="midnightblue" points="499,-85.75 495.5,-75.75 492,-85.75 499,-85.75"/>
</g>
<!-- Node44&#45;&gt;Node5 -->
<g id="edge51" class="edge">
<title>Node44&#45;&gt;Node5</title>
<path fill="none" stroke="midnightblue" d="M278.52,-112.44C254.34,-103.44 216.08,-89.19 188.85,-79.05"/>
<polygon fill="midnightblue" stroke="midnightblue" points="189.96,-75.73 179.37,-75.52 187.52,-82.29 189.96,-75.73"/>
</g>
<!-- Node44&#45;&gt;Node33 -->
<g id="edge52" class="edge">
<title>Node44&#45;&gt;Node33</title>
<path fill="none" stroke="midnightblue" d="M332.24,-112.44C365.44,-103.2 418.49,-88.44 455.06,-78.26"/>
<polygon fill="midnightblue" stroke="midnightblue" points="456.21,-81.57 464.9,-75.52 454.33,-74.83 456.21,-81.57"/>
</g>
<!-- Node74&#45;&gt;Node5 -->
<g id="edge60" class="edge">
<title>Node74&#45;&gt;Node5</title>
<path fill="none" stroke="midnightblue" d="M83.48,-112.32C97.05,-103.9 117.88,-90.97 133.82,-81.07"/>
<polygon fill="midnightblue" stroke="midnightblue" points="135.91,-83.9 142.56,-75.65 132.21,-77.95 135.91,-83.9"/>
</g>
<!-- Node74&#45;&gt;Node17 -->
<g id="edge59" class="edge">
<title>Node74&#45;&gt;Node17</title>
<path fill="none" stroke="midnightblue" d="M64.88,-112.08C61.04,-104.69 55.48,-93.95 50.74,-84.81"/>
<polygon fill="midnightblue" stroke="midnightblue" points="53.75,-83.02 46.04,-75.75 47.53,-86.24 53.75,-83.02"/>
</g>
</g>
</svg>
