<?xml version="1.0" encoding="UTF-8" standalone="no"?>
<!DOCTYPE svg PUBLIC "-//W3C//DTD SVG 1.1//EN"
 "http://www.w3.org/Graphics/SVG/1.1/DTD/svg11.dtd">
<!-- Generated by graphviz version 2.43.0 (0)
 -->
<!-- Title: convQuality2Signal Pages: 1 -->
<svg width="519pt" height="39pt"
 viewBox="0.00 0.00 519.00 39.00" xmlns="http://www.w3.org/2000/svg" xmlns:xlink="http://www.w3.org/1999/xlink">
<g id="graph0" class="graph" transform="scale(1 1) rotate(0) translate(4 35)">
<title>convQuality2Signal</title>
<polygon fill="white" stroke="transparent" points="-4,4 -4,-35 515,-35 515,4 -4,4"/>
<!-- Node1 -->
<g id="node1" class="node">
<title>Node1</title>
<g id="a_node1"><a xlink:title=" ">
<polygon fill="#bfbfbf" stroke="black" points="400,-6 400,-25 511,-25 511,-6 400,-6"/>
<text text-anchor="middle" x="455.5" y="-13" font-family="Helvetica,sans-Serif" font-size="10.00">convQuality2Signal</text>
</a>
</g>
</g>
<!-- Node2 -->
<g id="node2" class="node">
<title>Node2</title>
<g id="a_node2"><a xlink:href="wld__nl80211__parser_8c.html#af58c86541bf9ddf1ff67fb92b738b9d2" target="_top" xlink:title=" ">
<polygon fill="white" stroke="black" points="200,-0.5 200,-30.5 364,-30.5 364,-0.5 200,-0.5"/>
<text text-anchor="start" x="208" y="-18.5" font-family="Helvetica,sans-Serif" font-size="10.00">wld_nl80211_parseScanResult</text>
<text text-anchor="middle" x="282" y="-7.5" font-family="Helvetica,sans-Serif" font-size="10.00">PerFreqBand</text>
</a>
</g>
</g>
<!-- Node1&#45;&gt;Node2 -->
<g id="edge1" class="edge">
<title>Node1&#45;&gt;Node2</title>
<path fill="none" stroke="midnightblue" d="M389.72,-15.5C381.34,-15.5 372.69,-15.5 364.09,-15.5"/>
<polygon fill="midnightblue" stroke="midnightblue" points="389.76,-19 399.76,-15.5 389.76,-12 389.76,-19"/>
</g>
<!-- Node3 -->
<g id="node3" class="node">
<title>Node3</title>
<g id="a_node3"><a xlink:href="wld__nl80211__parser_8c.html#a316af38fac37025f40db309879fe3f72" target="_top" xlink:title=" ">
<polygon fill="white" stroke="black" points="0,-6 0,-25 164,-25 164,-6 0,-6"/>
<text text-anchor="middle" x="82" y="-13" font-family="Helvetica,sans-Serif" font-size="10.00">wld_nl80211_parseScanResult</text>
</a>
</g>
</g>
<!-- Node2&#45;&gt;Node3 -->
<g id="edge2" class="edge">
<title>Node2&#45;&gt;Node3</title>
<path fill="none" stroke="midnightblue" d="M189.64,-15.5C181.18,-15.5 172.65,-15.5 164.3,-15.5"/>
<polygon fill="midnightblue" stroke="midnightblue" points="189.89,-19 199.89,-15.5 189.89,-12 189.89,-19"/>
</g>
</g>
</svg>
