<?xml version="1.0" encoding="UTF-8" standalone="no"?>
<!DOCTYPE svg PUBLIC "-//W3C//DTD SVG 1.1//EN"
 "http://www.w3.org/Graphics/SVG/1.1/DTD/svg11.dtd">
<!-- Generated by graphviz version 2.43.0 (0)
 -->
<!-- Title: wld_wpaCtrlConnection_sendCmdCheckResponseExt Pages: 1 -->
<svg width="528pt" height="102pt"
 viewBox="0.00 0.00 528.00 101.50" xmlns="http://www.w3.org/2000/svg" xmlns:xlink="http://www.w3.org/1999/xlink">
<g id="graph0" class="graph" transform="scale(1 1) rotate(0) translate(4 97.5)">
<title>wld_wpaCtrlConnection_sendCmdCheckResponseExt</title>
<polygon fill="white" stroke="transparent" points="-4,4 -4,-97.5 524,-97.5 524,4 -4,4"/>
<!-- Node1 -->
<g id="node1" class="node">
<title>Node1</title>
<g id="a_node1"><a xlink:title=" ">
<polygon fill="#bfbfbf" stroke="black" points="0,-46.5 0,-76.5 161,-76.5 161,-46.5 0,-46.5"/>
<text text-anchor="start" x="8" y="-64.5" font-family="Helvetica,sans-Serif" font-size="10.00">wld_wpaCtrlConnection</text>
<text text-anchor="middle" x="80.5" y="-53.5" font-family="Helvetica,sans-Serif" font-size="10.00">_sendCmdCheckResponseExt</text>
</a>
</g>
</g>
<!-- Node2 -->
<g id="node2" class="node">
<title>Node2</title>
<g id="a_node2"><a xlink:href="wld__wpaCtrlConnection_8c.html#ab5b29b7ce5f29ef5dfbe951e5b700428" target="_top" xlink:title=" ">
<polygon fill="white" stroke="black" points="197,-74 197,-93 353,-93 353,-74 197,-74"/>
<text text-anchor="middle" x="275" y="-81" font-family="Helvetica,sans-Serif" font-size="10.00">wld_wpaCtrl_getMaxMsgLen</text>
</a>
</g>
</g>
<!-- Node1&#45;&gt;Node2 -->
<g id="edge1" class="edge">
<title>Node1&#45;&gt;Node2</title>
<path fill="none" stroke="midnightblue" d="M161.19,-70.61C169.66,-71.58 178.31,-72.56 186.87,-73.54"/>
<polygon fill="midnightblue" stroke="midnightblue" points="186.52,-77.02 196.85,-74.68 187.31,-70.07 186.52,-77.02"/>
</g>
<!-- Node3 -->
<g id="node3" class="node">
<title>Node3</title>
<g id="a_node3"><a xlink:href="wld__wpaCtrlConnection_8c.html#ae8867992d243efdfa13e360b50730f88" target="_top" xlink:title=" ">
<polygon fill="white" stroke="black" points="209.5,-24.5 209.5,-54.5 340.5,-54.5 340.5,-24.5 209.5,-24.5"/>
<text text-anchor="start" x="217.5" y="-42.5" font-family="Helvetica,sans-Serif" font-size="10.00">wld_wpaCtrlConnection</text>
<text text-anchor="middle" x="275" y="-31.5" font-family="Helvetica,sans-Serif" font-size="10.00">_sendCmdSyncedExt</text>
</a>
</g>
</g>
<!-- Node1&#45;&gt;Node3 -->
<g id="edge2" class="edge">
<title>Node1&#45;&gt;Node3</title>
<path fill="none" stroke="midnightblue" d="M161.19,-52.39C173.71,-50.96 186.62,-49.49 199.04,-48.07"/>
<polygon fill="midnightblue" stroke="midnightblue" points="199.79,-51.5 209.33,-46.89 198.99,-44.55 199.79,-51.5"/>
</g>
<!-- Node4 -->
<g id="node4" class="node">
<title>Node4</title>
<g id="a_node4"><a xlink:href="wld__wpaCtrlConnection_8c.html#abfe3f8b17cf527b1e6fe85a564c8604b" target="_top" xlink:title=" ">
<polygon fill="white" stroke="black" points="389,-49.5 389,-79.5 520,-79.5 520,-49.5 389,-49.5"/>
<text text-anchor="start" x="397" y="-67.5" font-family="Helvetica,sans-Serif" font-size="10.00">wld_wpaCtrlConnection</text>
<text text-anchor="middle" x="454.5" y="-56.5" font-family="Helvetica,sans-Serif" font-size="10.00">_getConnSockName</text>
</a>
</g>
</g>
<!-- Node3&#45;&gt;Node4 -->
<g id="edge3" class="edge">
<title>Node3&#45;&gt;Node4</title>
<path fill="none" stroke="midnightblue" d="M340.58,-48.6C353.02,-50.35 366.14,-52.2 378.87,-53.99"/>
<polygon fill="midnightblue" stroke="midnightblue" points="378.57,-57.48 388.96,-55.41 379.55,-50.55 378.57,-57.48"/>
</g>
<!-- Node5 -->
<g id="node5" class="node">
<title>Node5</title>
<g id="a_node5"><a xlink:href="wld__wpaCtrlConnection_8c.html#aa82226c76dbbf306e509b7c6d3088277" target="_top" xlink:title=" ">
<polygon fill="white" stroke="black" points="389,-0.5 389,-30.5 520,-30.5 520,-0.5 389,-0.5"/>
<text text-anchor="start" x="397" y="-18.5" font-family="Helvetica,sans-Serif" font-size="10.00">wld_wpaCtrlConnection</text>
<text text-anchor="middle" x="454.5" y="-7.5" font-family="Helvetica,sans-Serif" font-size="10.00">_sendCmd</text>
</a>
</g>
</g>
<!-- Node3&#45;&gt;Node5 -->
<g id="edge4" class="edge">
<title>Node3&#45;&gt;Node5</title>
<path fill="none" stroke="midnightblue" d="M340.58,-30.77C353.02,-29.09 366.14,-27.31 378.87,-25.59"/>
<polygon fill="midnightblue" stroke="midnightblue" points="379.52,-29.03 388.96,-24.23 378.59,-22.1 379.52,-29.03"/>
</g>
</g>
</svg>
