<?xml version="1.0" encoding="UTF-8" standalone="no"?>
<!DOCTYPE svg PUBLIC "-//W3C//DTD SVG 1.1//EN"
 "http://www.w3.org/Graphics/SVG/1.1/DTD/svg11.dtd">
<!-- Generated by graphviz version 2.43.0 (0)
 -->
<!-- Title: wld_wpaCtrlMngr_countEnabledInterfaces Pages: 1 -->
<svg width="372pt" height="66pt"
 viewBox="0.00 0.00 372.00 66.00" xmlns="http://www.w3.org/2000/svg" xmlns:xlink="http://www.w3.org/1999/xlink">
<g id="graph0" class="graph" transform="scale(1 1) rotate(0) translate(4 62)">
<title>wld_wpaCtrlMngr_countEnabledInterfaces</title>
<polygon fill="white" stroke="transparent" points="-4,4 -4,-62 368,-62 368,4 -4,4"/>
<!-- Node1 -->
<g id="node1" class="node">
<title>Node1</title>
<g id="a_node1"><a xlink:title=" ">
<polygon fill="#bfbfbf" stroke="black" points="191,-14 191,-44 364,-44 364,-14 191,-14"/>
<text text-anchor="start" x="199" y="-32" font-family="Helvetica,sans-Serif" font-size="10.00">wld_wpaCtrlMngr_countEnabled</text>
<text text-anchor="middle" x="277.5" y="-21" font-family="Helvetica,sans-Serif" font-size="10.00">Interfaces</text>
</a>
</g>
</g>
<!-- Node2 -->
<g id="node2" class="node">
<title>Node2</title>
<g id="a_node2"><a xlink:href="wld__wpaCtrlMngr_8c.html#afd3a74e8308c1c3b5b69b6057d13904c" target="_top" xlink:title=" ">
<polygon fill="white" stroke="black" points="0,-38.5 0,-57.5 155,-57.5 155,-38.5 0,-38.5"/>
<text text-anchor="middle" x="77.5" y="-45.5" font-family="Helvetica,sans-Serif" font-size="10.00">s_checkMgrConnectedIfaces</text>
</a>
</g>
</g>
<!-- Node1&#45;&gt;Node2 -->
<g id="edge1" class="edge">
<title>Node1&#45;&gt;Node2</title>
<path fill="none" stroke="midnightblue" d="M180.8,-38.18C172.24,-39 163.66,-39.83 155.29,-40.63"/>
<polygon fill="midnightblue" stroke="midnightblue" points="181.19,-41.66 190.81,-37.22 180.52,-34.69 181.19,-41.66"/>
</g>
<!-- Node3 -->
<g id="node3" class="node">
<title>Node3</title>
<g id="a_node3"><a xlink:href="wld__wpaCtrlMngr_8c.html#a977d0064530fa2690fa414c068b0c773" target="_top" xlink:title="check that all registed wpa_ctrl interfaces are ready">
<polygon fill="white" stroke="black" points="4.5,-0.5 4.5,-19.5 150.5,-19.5 150.5,-0.5 4.5,-0.5"/>
<text text-anchor="middle" x="77.5" y="-7.5" font-family="Helvetica,sans-Serif" font-size="10.00">wld_wpaCtrlMngr_isReady</text>
</a>
</g>
</g>
<!-- Node1&#45;&gt;Node3 -->
<g id="edge2" class="edge">
<title>Node1&#45;&gt;Node3</title>
<path fill="none" stroke="midnightblue" d="M180.73,-19.81C170.62,-18.84 160.46,-17.86 150.68,-16.93"/>
<polygon fill="midnightblue" stroke="midnightblue" points="180.52,-23.31 190.81,-20.78 181.19,-16.34 180.52,-23.31"/>
</g>
</g>
</svg>
