<?xml version="1.0" encoding="UTF-8" standalone="no"?>
<!DOCTYPE svg PUBLIC "-//W3C//DTD SVG 1.1//EN"
 "http://www.w3.org/Graphics/SVG/1.1/DTD/svg11.dtd">
<!-- Generated by graphviz version 2.43.0 (0)
 -->
<!-- Title: include/wld/wld_nl80211_utils.h Pages: 1 -->
<svg width="954pt" height="307pt"
 viewBox="0.00 0.00 953.50 307.00" xmlns="http://www.w3.org/2000/svg" xmlns:xlink="http://www.w3.org/1999/xlink">
<g id="graph0" class="graph" transform="scale(1 1) rotate(0) translate(4 303)">
<title>include/wld/wld_nl80211_utils.h</title>
<polygon fill="white" stroke="transparent" points="-4,4 -4,-303 949.5,-303 949.5,4 -4,4"/>
<!-- Node1 -->
<g id="node1" class="node">
<title>Node1</title>
<g id="a_node1"><a xlink:title=" ">
<polygon fill="#bfbfbf" stroke="black" points="541,-268.5 541,-298.5 678,-298.5 678,-268.5 541,-268.5"/>
<text text-anchor="start" x="549" y="-286.5" font-family="Helvetica,sans-Serif" font-size="10.00">include/wld/wld_nl80211</text>
<text text-anchor="middle" x="609.5" y="-275.5" font-family="Helvetica,sans-Serif" font-size="10.00">_utils.h</text>
</a>
</g>
</g>
<!-- Node2 -->
<g id="node2" class="node">
<title>Node2</title>
<g id="a_node2"><a xlink:href="wld__nl80211__core__priv_8h.html" target="_top" xlink:title=" ">
<polygon fill="white" stroke="black" points="213.5,-201.5 213.5,-231.5 353.5,-231.5 353.5,-201.5 213.5,-201.5"/>
<text text-anchor="start" x="221.5" y="-219.5" font-family="Helvetica,sans-Serif" font-size="10.00">include_priv/nl80211</text>
<text text-anchor="middle" x="283.5" y="-208.5" font-family="Helvetica,sans-Serif" font-size="10.00">/wld_nl80211_core_priv.h</text>
</a>
</g>
</g>
<!-- Node1&#45;&gt;Node2 -->
<g id="edge1" class="edge">
<title>Node1&#45;&gt;Node2</title>
<path fill="none" stroke="midnightblue" d="M530.88,-266.82C476.82,-256.04 405.66,-241.86 353.55,-231.47"/>
<polygon fill="midnightblue" stroke="midnightblue" points="530.27,-270.27 540.76,-268.79 531.64,-263.41 530.27,-270.27"/>
</g>
<!-- Node5 -->
<g id="node5" class="node">
<title>Node5</title>
<g id="a_node5"><a xlink:href="wld__nl80211__api_8c.html" target="_top" xlink:title=" ">
<polygon fill="white" stroke="black" points="155,-0.5 155,-30.5 292,-30.5 292,-0.5 155,-0.5"/>
<text text-anchor="start" x="163" y="-18.5" font-family="Helvetica,sans-Serif" font-size="10.00">src/nl80211/wld_nl80211</text>
<text text-anchor="middle" x="223.5" y="-7.5" font-family="Helvetica,sans-Serif" font-size="10.00">_api.c</text>
</a>
</g>
</g>
<!-- Node1&#45;&gt;Node5 -->
<g id="edge17" class="edge">
<title>Node1&#45;&gt;Node5</title>
<path fill="none" stroke="midnightblue" d="M530.72,-282.39C447.45,-280.07 313.36,-269.97 204.5,-232 150.45,-213.15 122.54,-214.91 94.5,-165 80.7,-140.44 109.19,-70.9 112.5,-67 127.01,-49.88 148.54,-38.28 168.78,-30.56"/>
<polygon fill="midnightblue" stroke="midnightblue" points="530.79,-285.9 540.87,-282.65 530.96,-278.9 530.79,-285.9"/>
</g>
<!-- Node8 -->
<g id="node8" class="node">
<title>Node8</title>
<g id="a_node8"><a xlink:href="wld__nl80211__parser_8c.html" target="_top" xlink:title=" ">
<polygon fill="white" stroke="black" points="465,-0.5 465,-30.5 602,-30.5 602,-0.5 465,-0.5"/>
<text text-anchor="start" x="473" y="-18.5" font-family="Helvetica,sans-Serif" font-size="10.00">src/nl80211/wld_nl80211</text>
<text text-anchor="middle" x="533.5" y="-7.5" font-family="Helvetica,sans-Serif" font-size="10.00">_parser.c</text>
</a>
</g>
</g>
<!-- Node1&#45;&gt;Node8 -->
<g id="edge18" class="edge">
<title>Node1&#45;&gt;Node8</title>
<path fill="none" stroke="midnightblue" d="M612.9,-258.43C617.62,-216.89 622.31,-130.11 590.5,-67 582.94,-52.01 568.86,-39.46 556.58,-30.62"/>
<polygon fill="midnightblue" stroke="midnightblue" points="609.42,-258.08 611.66,-268.44 616.37,-258.94 609.42,-258.08"/>
</g>
<!-- Node9 -->
<g id="node9" class="node">
<title>Node9</title>
<g id="a_node9"><a xlink:href="wld__nl80211__utils_8c.html" target="_top" xlink:title=" ">
<polygon fill="white" stroke="black" points="620,-0.5 620,-30.5 757,-30.5 757,-0.5 620,-0.5"/>
<text text-anchor="start" x="628" y="-18.5" font-family="Helvetica,sans-Serif" font-size="10.00">src/nl80211/wld_nl80211</text>
<text text-anchor="middle" x="688.5" y="-7.5" font-family="Helvetica,sans-Serif" font-size="10.00">_utils.c</text>
</a>
</g>
</g>
<!-- Node1&#45;&gt;Node9 -->
<g id="edge20" class="edge">
<title>Node1&#45;&gt;Node9</title>
<path fill="none" stroke="midnightblue" d="M620.07,-258.9C623.63,-250.5 627.46,-240.91 630.5,-232 655.94,-157.37 677.58,-65.22 685.39,-30.56"/>
<polygon fill="midnightblue" stroke="midnightblue" points="616.84,-257.54 616.08,-268.11 623.26,-260.32 616.84,-257.54"/>
</g>
<!-- Node11 -->
<g id="node11" class="node">
<title>Node11</title>
<g id="a_node11"><a xlink:href="test__wld__nl80211_8c.html" target="_top" xlink:title=" ">
<polygon fill="white" stroke="black" points="459.5,-67.5 459.5,-97.5 581.5,-97.5 581.5,-67.5 459.5,-67.5"/>
<text text-anchor="start" x="467.5" y="-85.5" font-family="Helvetica,sans-Serif" font-size="10.00">test/wld_nl80211/test</text>
<text text-anchor="middle" x="520.5" y="-74.5" font-family="Helvetica,sans-Serif" font-size="10.00">_wld_nl80211.c</text>
</a>
</g>
</g>
<!-- Node1&#45;&gt;Node11 -->
<g id="edge22" class="edge">
<title>Node1&#45;&gt;Node11</title>
<path fill="none" stroke="midnightblue" d="M598.9,-258.8C580.21,-217.01 541.95,-131.47 526.84,-97.68"/>
<polygon fill="midnightblue" stroke="midnightblue" points="595.82,-260.49 603.1,-268.19 602.21,-257.63 595.82,-260.49"/>
</g>
<!-- Node13 -->
<g id="node13" class="node">
<title>Node13</title>
<g id="a_node13"><a xlink:href="wld__nl80211__scan_8c.html" target="_top" xlink:title=" ">
<polygon fill="white" stroke="black" points="676,-201.5 676,-231.5 813,-231.5 813,-201.5 676,-201.5"/>
<text text-anchor="start" x="684" y="-219.5" font-family="Helvetica,sans-Serif" font-size="10.00">src/nl80211/wld_nl80211</text>
<text text-anchor="middle" x="744.5" y="-208.5" font-family="Helvetica,sans-Serif" font-size="10.00">_scan.c</text>
</a>
</g>
</g>
<!-- Node1&#45;&gt;Node13 -->
<g id="edge19" class="edge">
<title>Node1&#45;&gt;Node13</title>
<path fill="none" stroke="midnightblue" d="M647.94,-263.99C669.34,-253.69 695.55,-241.07 715.26,-231.58"/>
<polygon fill="midnightblue" stroke="midnightblue" points="646.28,-260.9 638.79,-268.4 649.32,-267.21 646.28,-260.9"/>
</g>
<!-- Node14 -->
<g id="node14" class="node">
<title>Node14</title>
<g id="a_node14"><a xlink:href="wld__rad__nl80211_8c.html" target="_top" xlink:title=" ">
<polygon fill="white" stroke="black" points="831.5,-201.5 831.5,-231.5 945.5,-231.5 945.5,-201.5 831.5,-201.5"/>
<text text-anchor="start" x="839.5" y="-219.5" font-family="Helvetica,sans-Serif" font-size="10.00">src/nl80211/wld_rad</text>
<text text-anchor="middle" x="888.5" y="-208.5" font-family="Helvetica,sans-Serif" font-size="10.00">_nl80211.c</text>
</a>
</g>
</g>
<!-- Node1&#45;&gt;Node14 -->
<g id="edge21" class="edge">
<title>Node1&#45;&gt;Node14</title>
<path fill="none" stroke="midnightblue" d="M679.47,-266.2C726.35,-255.28 787.3,-241.08 831.27,-230.83"/>
<polygon fill="midnightblue" stroke="midnightblue" points="678.64,-262.8 669.7,-268.48 680.23,-269.62 678.64,-262.8"/>
</g>
<!-- Node3 -->
<g id="node3" class="node">
<title>Node3</title>
<g id="a_node3"><a xlink:href="wld__nl80211__api__priv_8h.html" target="_top" xlink:title=" ">
<polygon fill="white" stroke="black" points="311.5,-134.5 311.5,-164.5 445.5,-164.5 445.5,-134.5 311.5,-134.5"/>
<text text-anchor="start" x="319.5" y="-152.5" font-family="Helvetica,sans-Serif" font-size="10.00">include_priv/nl80211</text>
<text text-anchor="middle" x="378.5" y="-141.5" font-family="Helvetica,sans-Serif" font-size="10.00">/wld_nl80211_api_priv.h</text>
</a>
</g>
</g>
<!-- Node2&#45;&gt;Node3 -->
<g id="edge2" class="edge">
<title>Node2&#45;&gt;Node3</title>
<path fill="none" stroke="midnightblue" d="M312.39,-195.73C327.09,-185.68 344.61,-173.68 357.93,-164.58"/>
<polygon fill="midnightblue" stroke="midnightblue" points="310.39,-192.86 304.11,-201.4 314.34,-198.64 310.39,-192.86"/>
</g>
<!-- Node7 -->
<g id="node7" class="node">
<title>Node7</title>
<g id="a_node7"><a xlink:href="wld__nl80211__events_8c.html" target="_top" xlink:title=" ">
<polygon fill="white" stroke="black" points="0,-0.5 0,-30.5 137,-30.5 137,-0.5 0,-0.5"/>
<text text-anchor="start" x="8" y="-18.5" font-family="Helvetica,sans-Serif" font-size="10.00">src/nl80211/wld_nl80211</text>
<text text-anchor="middle" x="68.5" y="-7.5" font-family="Helvetica,sans-Serif" font-size="10.00">_events.c</text>
</a>
</g>
</g>
<!-- Node2&#45;&gt;Node7 -->
<g id="edge16" class="edge">
<title>Node2&#45;&gt;Node7</title>
<path fill="none" stroke="midnightblue" d="M203.16,-202.89C158.73,-194.26 109.54,-181.42 94.5,-165 59.85,-127.17 63.02,-60.22 66.41,-30.91"/>
<polygon fill="midnightblue" stroke="midnightblue" points="202.66,-206.36 213.14,-204.77 203.96,-199.48 202.66,-206.36"/>
</g>
<!-- Node10 -->
<g id="node10" class="node">
<title>Node10</title>
<g id="a_node10"><a xlink:href="wld__nl80211__core_8c.html" target="_top" xlink:title=" ">
<polygon fill="white" stroke="black" points="122,-67.5 122,-97.5 259,-97.5 259,-67.5 122,-67.5"/>
<text text-anchor="start" x="130" y="-85.5" font-family="Helvetica,sans-Serif" font-size="10.00">src/nl80211/wld_nl80211</text>
<text text-anchor="middle" x="190.5" y="-74.5" font-family="Helvetica,sans-Serif" font-size="10.00">_core.c</text>
</a>
</g>
</g>
<!-- Node2&#45;&gt;Node10 -->
<g id="edge15" class="edge">
<title>Node2&#45;&gt;Node10</title>
<path fill="none" stroke="midnightblue" d="M282.42,-190.9C280.62,-173.67 276.02,-150.81 264.5,-134 253.78,-118.34 236.47,-106.14 221.29,-97.66"/>
<polygon fill="midnightblue" stroke="midnightblue" points="278.97,-191.6 283.25,-201.29 285.94,-191.04 278.97,-191.6"/>
</g>
<!-- Node12 -->
<g id="node12" class="node">
<title>Node12</title>
<g id="a_node12"><a xlink:href="wld__nl80211__events__priv_8h.html" target="_top" xlink:title=" ">
<polygon fill="white" stroke="black" points="103.5,-134.5 103.5,-164.5 255.5,-164.5 255.5,-134.5 103.5,-134.5"/>
<text text-anchor="start" x="111.5" y="-152.5" font-family="Helvetica,sans-Serif" font-size="10.00">include_priv/nl80211</text>
<text text-anchor="middle" x="179.5" y="-141.5" font-family="Helvetica,sans-Serif" font-size="10.00">/wld_nl80211_events_priv.h</text>
</a>
</g>
</g>
<!-- Node2&#45;&gt;Node12 -->
<g id="edge12" class="edge">
<title>Node2&#45;&gt;Node12</title>
<path fill="none" stroke="midnightblue" d="M252.32,-196.02C236.14,-185.9 216.73,-173.77 202.02,-164.58"/>
<polygon fill="midnightblue" stroke="midnightblue" points="250.6,-199.06 260.93,-201.4 254.31,-193.13 250.6,-199.06"/>
</g>
<!-- Node4 -->
<g id="node4" class="node">
<title>Node4</title>
<g id="a_node4"><a xlink:href="wld__nl80211__parser_8h.html" target="_top" xlink:title=" ">
<polygon fill="white" stroke="black" points="316,-67.5 316,-97.5 441,-97.5 441,-67.5 316,-67.5"/>
<text text-anchor="start" x="324" y="-85.5" font-family="Helvetica,sans-Serif" font-size="10.00">include_priv/nl80211</text>
<text text-anchor="middle" x="378.5" y="-74.5" font-family="Helvetica,sans-Serif" font-size="10.00">/wld_nl80211_parser.h</text>
</a>
</g>
</g>
<!-- Node3&#45;&gt;Node4 -->
<g id="edge3" class="edge">
<title>Node3&#45;&gt;Node4</title>
<path fill="none" stroke="midnightblue" d="M378.5,-124.11C378.5,-115.15 378.5,-105.32 378.5,-97.58"/>
<polygon fill="midnightblue" stroke="midnightblue" points="375,-124.4 378.5,-134.4 382,-124.4 375,-124.4"/>
</g>
<!-- Node3&#45;&gt;Node5 -->
<g id="edge9" class="edge">
<title>Node3&#45;&gt;Node5</title>
<path fill="none" stroke="midnightblue" d="M347.73,-128.56C334.66,-119.67 319.47,-108.79 306.5,-98 280.26,-76.17 252.5,-47.64 236.65,-30.78"/>
<polygon fill="midnightblue" stroke="midnightblue" points="346.14,-131.71 356.39,-134.37 350.04,-125.89 346.14,-131.71"/>
</g>
<!-- Node3&#45;&gt;Node10 -->
<g id="edge10" class="edge">
<title>Node3&#45;&gt;Node10</title>
<path fill="none" stroke="midnightblue" d="M328.15,-131.09C297.8,-120.6 259.65,-107.41 231.21,-97.58"/>
<polygon fill="midnightblue" stroke="midnightblue" points="327.11,-134.44 337.71,-134.4 329.4,-127.82 327.11,-134.44"/>
</g>
<!-- Node3&#45;&gt;Node11 -->
<g id="edge11" class="edge">
<title>Node3&#45;&gt;Node11</title>
<path fill="none" stroke="midnightblue" d="M418.63,-130.13C441.19,-119.8 468.92,-107.11 489.75,-97.58"/>
<polygon fill="midnightblue" stroke="midnightblue" points="416.95,-127.05 409.31,-134.4 419.86,-133.42 416.95,-127.05"/>
</g>
<!-- Node4&#45;&gt;Node5 -->
<g id="edge4" class="edge">
<title>Node4&#45;&gt;Node5</title>
<path fill="none" stroke="midnightblue" d="M335.35,-63.41C310.61,-53.03 280,-40.2 257.07,-30.58"/>
<polygon fill="midnightblue" stroke="midnightblue" points="334.29,-66.76 344.87,-67.4 337,-60.3 334.29,-66.76"/>
</g>
<!-- Node6 -->
<g id="node6" class="node">
<title>Node6</title>
<g id="a_node6"><a xlink:href="wld__nl80211__attr_8c.html" target="_top" xlink:title=" ">
<polygon fill="white" stroke="black" points="310,-0.5 310,-30.5 447,-30.5 447,-0.5 310,-0.5"/>
<text text-anchor="start" x="318" y="-18.5" font-family="Helvetica,sans-Serif" font-size="10.00">src/nl80211/wld_nl80211</text>
<text text-anchor="middle" x="378.5" y="-7.5" font-family="Helvetica,sans-Serif" font-size="10.00">_attr.c</text>
</a>
</g>
</g>
<!-- Node4&#45;&gt;Node6 -->
<g id="edge5" class="edge">
<title>Node4&#45;&gt;Node6</title>
<path fill="none" stroke="midnightblue" d="M378.5,-57.11C378.5,-48.15 378.5,-38.32 378.5,-30.58"/>
<polygon fill="midnightblue" stroke="midnightblue" points="375,-57.4 378.5,-67.4 382,-57.4 375,-57.4"/>
</g>
<!-- Node4&#45;&gt;Node7 -->
<g id="edge6" class="edge">
<title>Node4&#45;&gt;Node7</title>
<path fill="none" stroke="midnightblue" d="M305.7,-66.24C254.17,-55.43 185.59,-41.05 135.43,-30.53"/>
<polygon fill="midnightblue" stroke="midnightblue" points="305.26,-69.72 315.77,-68.35 306.7,-62.87 305.26,-69.72"/>
</g>
<!-- Node4&#45;&gt;Node8 -->
<g id="edge7" class="edge">
<title>Node4&#45;&gt;Node8</title>
<path fill="none" stroke="midnightblue" d="M421.65,-63.41C446.39,-53.03 477,-40.2 499.93,-30.58"/>
<polygon fill="midnightblue" stroke="midnightblue" points="420,-60.3 412.13,-67.4 422.71,-66.76 420,-60.3"/>
</g>
<!-- Node4&#45;&gt;Node9 -->
<g id="edge8" class="edge">
<title>Node4&#45;&gt;Node9</title>
<path fill="none" stroke="midnightblue" d="M451.3,-66.24C502.83,-55.43 571.41,-41.05 621.57,-30.53"/>
<polygon fill="midnightblue" stroke="midnightblue" points="450.3,-62.87 441.23,-68.35 451.74,-69.72 450.3,-62.87"/>
</g>
<!-- Node12&#45;&gt;Node7 -->
<g id="edge14" class="edge">
<title>Node12&#45;&gt;Node7</title>
<path fill="none" stroke="midnightblue" d="M147.61,-128.72C135.63,-120.26 122.51,-109.64 112.5,-98 94.58,-77.15 80.97,-47.79 73.9,-30.59"/>
<polygon fill="midnightblue" stroke="midnightblue" points="145.84,-131.75 156.07,-134.49 149.78,-125.96 145.84,-131.75"/>
</g>
<!-- Node12&#45;&gt;Node10 -->
<g id="edge13" class="edge">
<title>Node12&#45;&gt;Node10</title>
<path fill="none" stroke="midnightblue" d="M183.58,-124.4C185.11,-115.37 186.79,-105.41 188.12,-97.58"/>
<polygon fill="midnightblue" stroke="midnightblue" points="180.1,-123.95 181.89,-134.4 187.01,-125.12 180.1,-123.95"/>
</g>
</g>
</svg>
