<?xml version="1.0" encoding="UTF-8" standalone="no"?>
<!DOCTYPE svg PUBLIC "-//W3C//DTD SVG 1.1//EN"
 "http://www.w3.org/Graphics/SVG/1.1/DTD/svg11.dtd">
<!-- Generated by graphviz version 2.43.0 (0)
 -->
<!-- Title: src/nl80211/wld_wpaSupp_parser.c Pages: 1 -->
<svg width="5192pt" height="319pt"
 viewBox="0.00 0.00 5192.31 319.00" xmlns="http://www.w3.org/2000/svg" xmlns:xlink="http://www.w3.org/1999/xlink">
<g id="graph0" class="graph" transform="scale(1 1) rotate(0) translate(4 315)">
<title>src/nl80211/wld_wpaSupp_parser.c</title>
<polygon fill="white" stroke="transparent" points="-4,4 -4,-315 5188.31,-315 5188.31,4 -4,4"/>
<!-- Node1 -->
<g id="node1" class="node">
<title>Node1</title>
<g id="a_node1"><a xlink:title=" ">
<polygon fill="#bfbfbf" stroke="black" points="3136.5,-280.5 3136.5,-310.5 3279.5,-310.5 3279.5,-280.5 3136.5,-280.5"/>
<text text-anchor="start" x="3144.5" y="-298.5" font-family="Helvetica,sans-Serif" font-size="10.00">src/nl80211/wld_wpaSupp</text>
<text text-anchor="middle" x="3208" y="-287.5" font-family="Helvetica,sans-Serif" font-size="10.00">_parser.c</text>
</a>
</g>
</g>
<!-- Node2 -->
<g id="node2" class="node">
<title>Node2</title>
<g id="a_node2"><a xlink:title=" ">
<polygon fill="white" stroke="#bfbfbf" points="3008.5,-224.5 3008.5,-243.5 3077.5,-243.5 3077.5,-224.5 3008.5,-224.5"/>
<text text-anchor="middle" x="3043" y="-231.5" font-family="Helvetica,sans-Serif" font-size="10.00">arpa/inet.h</text>
</a>
</g>
</g>
<!-- Node1&#45;&gt;Node2 -->
<g id="edge1" class="edge">
<title>Node1&#45;&gt;Node2</title>
<path fill="none" stroke="midnightblue" d="M3168.9,-280.4C3140.84,-270.28 3103.43,-256.79 3076.69,-247.15"/>
<polygon fill="midnightblue" stroke="midnightblue" points="3077.6,-243.76 3067.01,-243.66 3075.23,-250.34 3077.6,-243.76"/>
</g>
<!-- Node3 -->
<g id="node3" class="node">
<title>Node3</title>
<g id="a_node3"><a xlink:href="wld_8h.html" target="_top" xlink:title=" ">
<polygon fill="white" stroke="red" points="3114.5,-168.5 3114.5,-187.5 3157.5,-187.5 3157.5,-168.5 3114.5,-168.5"/>
<text text-anchor="middle" x="3136" y="-175.5" font-family="Helvetica,sans-Serif" font-size="10.00">wld.h</text>
</a>
</g>
</g>
<!-- Node1&#45;&gt;Node3 -->
<g id="edge2" class="edge">
<title>Node1&#45;&gt;Node3</title>
<path fill="none" stroke="midnightblue" d="M3167.98,-280.38C3151.61,-272.4 3134.34,-260.62 3125,-244 3116.87,-229.53 3121.48,-210.59 3127.01,-196.9"/>
<polygon fill="midnightblue" stroke="midnightblue" points="3130.28,-198.16 3131.22,-187.6 3123.9,-195.27 3130.28,-198.16"/>
</g>
<!-- Node76 -->
<g id="node47" class="node">
<title>Node76</title>
<g id="a_node47"><a xlink:href="wld__util_8h.html" target="_top" xlink:title=" ">
<polygon fill="white" stroke="black" points="3134,-224.5 3134,-243.5 3198,-243.5 3198,-224.5 3134,-224.5"/>
<text text-anchor="middle" x="3166" y="-231.5" font-family="Helvetica,sans-Serif" font-size="10.00">wld_util.h</text>
</a>
</g>
</g>
<!-- Node1&#45;&gt;Node76 -->
<g id="edge58" class="edge">
<title>Node1&#45;&gt;Node76</title>
<path fill="none" stroke="midnightblue" d="M3198.05,-280.4C3192.01,-271.84 3184.26,-260.87 3177.9,-251.86"/>
<polygon fill="midnightblue" stroke="midnightblue" points="3180.74,-249.81 3172.11,-243.66 3175.02,-253.85 3180.74,-249.81"/>
</g>
<!-- Node77 -->
<g id="node48" class="node">
<title>Node77</title>
<g id="a_node48"><a xlink:href="wld__wps_8h.html" target="_top" xlink:title=" ">
<polygon fill="white" stroke="black" points="3216,-224.5 3216,-243.5 3284,-243.5 3284,-224.5 3216,-224.5"/>
<text text-anchor="middle" x="3250" y="-231.5" font-family="Helvetica,sans-Serif" font-size="10.00">wld_wps.h</text>
</a>
</g>
</g>
<!-- Node1&#45;&gt;Node77 -->
<g id="edge60" class="edge">
<title>Node1&#45;&gt;Node77</title>
<path fill="none" stroke="midnightblue" d="M3217.95,-280.4C3223.99,-271.84 3231.74,-260.87 3238.1,-251.86"/>
<polygon fill="midnightblue" stroke="midnightblue" points="3240.98,-253.85 3243.89,-243.66 3235.26,-249.81 3240.98,-253.85"/>
</g>
<!-- Node78 -->
<g id="node49" class="node">
<title>Node78</title>
<g id="a_node49"><a xlink:title=" ">
<polygon fill="white" stroke="#bfbfbf" points="3302.5,-224.5 3302.5,-243.5 3387.5,-243.5 3387.5,-224.5 3302.5,-224.5"/>
<text text-anchor="middle" x="3345" y="-231.5" font-family="Helvetica,sans-Serif" font-size="10.00">swl/swl_hex.h</text>
</a>
</g>
</g>
<!-- Node1&#45;&gt;Node78 -->
<g id="edge63" class="edge">
<title>Node1&#45;&gt;Node78</title>
<path fill="none" stroke="midnightblue" d="M3240.47,-280.4C3263.35,-270.46 3293.73,-257.26 3315.84,-247.66"/>
<polygon fill="midnightblue" stroke="midnightblue" points="3317.29,-250.85 3325.07,-243.66 3314.5,-244.43 3317.29,-250.85"/>
</g>
<!-- Node79 -->
<g id="node50" class="node">
<title>Node79</title>
<g id="a_node50"><a xlink:title=" ">
<polygon fill="white" stroke="#bfbfbf" points="3405.5,-224.5 3405.5,-243.5 3484.5,-243.5 3484.5,-224.5 3405.5,-224.5"/>
<text text-anchor="middle" x="3445" y="-231.5" font-family="Helvetica,sans-Serif" font-size="10.00">swl/swl_tlv.h</text>
</a>
</g>
</g>
<!-- Node1&#45;&gt;Node79 -->
<g id="edge64" class="edge">
<title>Node1&#45;&gt;Node79</title>
<path fill="none" stroke="midnightblue" d="M3263.87,-280.47C3305.82,-269.94 3362.49,-255.72 3401.19,-246"/>
<polygon fill="midnightblue" stroke="midnightblue" points="3402.27,-249.34 3411.12,-243.51 3400.57,-242.55 3402.27,-249.34"/>
</g>
<!-- Node4 -->
<g id="node4" class="node">
<title>Node4</title>
<g id="a_node4"><a xlink:title=" ">
<polygon fill="white" stroke="#bfbfbf" points="3609,-56.5 3609,-75.5 3671,-75.5 3671,-56.5 3609,-56.5"/>
<text text-anchor="middle" x="3640" y="-63.5" font-family="Helvetica,sans-Serif" font-size="10.00">stdbool.h</text>
</a>
</g>
</g>
<!-- Node3&#45;&gt;Node4 -->
<g id="edge3" class="edge">
<title>Node3&#45;&gt;Node4</title>
<path fill="none" stroke="midnightblue" d="M3157.8,-176.76C3250.74,-175.52 3610.71,-168.37 3644,-132 3655.3,-119.65 3652.19,-99.84 3647.56,-85.34"/>
<polygon fill="midnightblue" stroke="midnightblue" points="3650.83,-84.08 3644.1,-75.89 3644.26,-86.48 3650.83,-84.08"/>
</g>
<!-- Node5 -->
<g id="node5" class="node">
<title>Node5</title>
<g id="a_node5"><a xlink:title=" ">
<polygon fill="white" stroke="#bfbfbf" points="4973.5,-0.5 4973.5,-19.5 5026.5,-19.5 5026.5,-0.5 4973.5,-0.5"/>
<text text-anchor="middle" x="5000" y="-7.5" font-family="Helvetica,sans-Serif" font-size="10.00">stdint.h</text>
</a>
</g>
</g>
<!-- Node3&#45;&gt;Node5 -->
<g id="edge4" class="edge">
<title>Node3&#45;&gt;Node5</title>
<path fill="none" stroke="midnightblue" d="M3157.58,-176.81C3360.13,-174.99 4920.85,-160.07 4959,-132 4991.36,-108.19 4998.45,-57.5 4999.83,-29.89"/>
<polygon fill="midnightblue" stroke="midnightblue" points="5003.34,-29.71 5000.13,-19.61 4996.34,-29.5 5003.34,-29.71"/>
</g>
<!-- Node6 -->
<g id="node6" class="node">
<title>Node6</title>
<g id="a_node6"><a xlink:title=" ">
<polygon fill="white" stroke="#bfbfbf" points="4842,-56.5 4842,-75.5 4952,-75.5 4952,-56.5 4842,-56.5"/>
<text text-anchor="middle" x="4897" y="-63.5" font-family="Helvetica,sans-Serif" font-size="10.00">swl/swl_common.h</text>
</a>
</g>
</g>
<!-- Node3&#45;&gt;Node6 -->
<g id="edge5" class="edge">
<title>Node3&#45;&gt;Node6</title>
<path fill="none" stroke="midnightblue" d="M3157.77,-176.88C3360.44,-175.7 4910.23,-165.59 4943,-132 4958.1,-116.52 4937.58,-95.69 4919.32,-81.83"/>
<polygon fill="midnightblue" stroke="midnightblue" points="4920.88,-78.63 4910.71,-75.64 4916.79,-84.32 4920.88,-78.63"/>
</g>
<!-- Node7 -->
<g id="node7" class="node">
<title>Node7</title>
<g id="a_node7"><a xlink:title=" ">
<polygon fill="white" stroke="#bfbfbf" points="5028,-112.5 5028,-131.5 5164,-131.5 5164,-112.5 5028,-112.5"/>
<text text-anchor="middle" x="5096" y="-119.5" font-family="Helvetica,sans-Serif" font-size="10.00">swla/swla_commonLib.h</text>
</a>
</g>
</g>
<!-- Node3&#45;&gt;Node7 -->
<g id="edge6" class="edge">
<title>Node3&#45;&gt;Node7</title>
<path fill="none" stroke="midnightblue" d="M3157.86,-177.18C3312.03,-178.32 4251.72,-182.87 5014,-132 5015.11,-131.93 5016.22,-131.85 5017.35,-131.77"/>
<polygon fill="midnightblue" stroke="midnightblue" points="5017.89,-135.23 5027.58,-130.95 5017.34,-128.26 5017.89,-135.23"/>
</g>
<!-- Node8 -->
<g id="node8" class="node">
<title>Node8</title>
<g id="a_node8"><a xlink:title=" ">
<polygon fill="white" stroke="#bfbfbf" points="0,-112.5 0,-131.5 88,-131.5 88,-112.5 0,-112.5"/>
<text text-anchor="middle" x="44" y="-119.5" font-family="Helvetica,sans-Serif" font-size="10.00">swl/swl_uuid.h</text>
</a>
</g>
</g>
<!-- Node3&#45;&gt;Node8 -->
<g id="edge7" class="edge">
<title>Node3&#45;&gt;Node8</title>
<path fill="none" stroke="midnightblue" d="M3114.2,-176.88C2860.04,-175.48 463.04,-161.51 98.37,-131.9"/>
<polygon fill="midnightblue" stroke="midnightblue" points="98.44,-128.4 88.18,-131.02 97.84,-135.37 98.44,-128.4"/>
</g>
<!-- Node9 -->
<g id="node9" class="node">
<title>Node9</title>
<g id="a_node9"><a xlink:title=" ">
<polygon fill="white" stroke="#bfbfbf" points="106,-112.5 106,-131.5 258,-131.5 258,-112.5 106,-112.5"/>
<text text-anchor="middle" x="182" y="-119.5" font-family="Helvetica,sans-Serif" font-size="10.00">swla/swla_radioStandards.h</text>
</a>
</g>
</g>
<!-- Node3&#45;&gt;Node9 -->
<g id="edge8" class="edge">
<title>Node3&#45;&gt;Node9</title>
<path fill="none" stroke="midnightblue" d="M3114.18,-176.91C2882.4,-175.94 870.54,-166.57 272,-132 270.72,-131.93 269.43,-131.85 268.14,-131.77"/>
<polygon fill="midnightblue" stroke="midnightblue" points="268.29,-128.27 258.07,-131.06 267.8,-135.25 268.29,-128.27"/>
</g>
<!-- Node10 -->
<g id="node10" class="node">
<title>Node10</title>
<g id="a_node10"><a xlink:title=" ">
<polygon fill="white" stroke="#bfbfbf" points="3650.5,-0.5 3650.5,-19.5 3751.5,-19.5 3751.5,-0.5 3650.5,-0.5"/>
<text text-anchor="middle" x="3701" y="-7.5" font-family="Helvetica,sans-Serif" font-size="10.00">swla/swla_time.h</text>
</a>
</g>
</g>
<!-- Node3&#45;&gt;Node10 -->
<g id="edge9" class="edge">
<title>Node3&#45;&gt;Node10</title>
<path fill="none" stroke="midnightblue" d="M3157.6,-176.53C3251.45,-174.28 3620.81,-163.49 3661,-132 3692.39,-107.4 3699.41,-57.46 3700.81,-30.05"/>
<polygon fill="midnightblue" stroke="midnightblue" points="3704.32,-29.93 3701.12,-19.83 3697.32,-29.72 3704.32,-29.93"/>
</g>
<!-- Node11 -->
<g id="node11" class="node">
<title>Node11</title>
<g id="a_node11"><a xlink:title=" ">
<polygon fill="white" stroke="#bfbfbf" points="314.5,-112.5 314.5,-131.5 443.5,-131.5 443.5,-112.5 314.5,-112.5"/>
<text text-anchor="middle" x="379" y="-119.5" font-family="Helvetica,sans-Serif" font-size="10.00">swla/swla_time_spec.h</text>
</a>
</g>
</g>
<!-- Node3&#45;&gt;Node11 -->
<g id="edge10" class="edge">
<title>Node3&#45;&gt;Node11</title>
<path fill="none" stroke="midnightblue" d="M3114.18,-176.95C2891.88,-176.4 1034.12,-170.65 453.67,-131.94"/>
<polygon fill="midnightblue" stroke="midnightblue" points="453.75,-128.44 443.54,-131.25 453.28,-135.42 453.75,-128.44"/>
</g>
<!-- Node12 -->
<g id="node12" class="node">
<title>Node12</title>
<g id="a_node12"><a xlink:title=" ">
<polygon fill="white" stroke="#bfbfbf" points="462,-112.5 462,-131.5 556,-131.5 556,-112.5 462,-112.5"/>
<text text-anchor="middle" x="509" y="-119.5" font-family="Helvetica,sans-Serif" font-size="10.00">swla/swla_oui.h</text>
</a>
</g>
</g>
<!-- Node3&#45;&gt;Node12 -->
<g id="edge11" class="edge">
<title>Node3&#45;&gt;Node12</title>
<path fill="none" stroke="midnightblue" d="M3114.41,-177.05C2898.3,-177.46 1121.33,-179.36 566.38,-131.96"/>
<polygon fill="midnightblue" stroke="midnightblue" points="566.56,-128.47 556.3,-131.08 565.96,-135.44 566.56,-128.47"/>
</g>
<!-- Node13 -->
<g id="node13" class="node">
<title>Node13</title>
<g id="a_node13"><a xlink:title=" ">
<polygon fill="white" stroke="#bfbfbf" points="574,-112.5 574,-131.5 702,-131.5 702,-112.5 574,-112.5"/>
<text text-anchor="middle" x="638" y="-119.5" font-family="Helvetica,sans-Serif" font-size="10.00">swla/swla_delayExec.h</text>
</a>
</g>
</g>
<!-- Node3&#45;&gt;Node13 -->
<g id="edge12" class="edge">
<title>Node3&#45;&gt;Node13</title>
<path fill="none" stroke="midnightblue" d="M3114.34,-176.91C2904.98,-176 1236.97,-167.74 712.35,-132"/>
<polygon fill="midnightblue" stroke="midnightblue" points="712.28,-128.48 702.06,-131.28 711.79,-135.47 712.28,-128.48"/>
</g>
<!-- Node14 -->
<g id="node14" class="node">
<title>Node14</title>
<g id="a_node14"><a xlink:title=" ">
<polygon fill="white" stroke="#bfbfbf" points="720.5,-112.5 720.5,-131.5 839.5,-131.5 839.5,-112.5 720.5,-112.5"/>
<text text-anchor="middle" x="780" y="-119.5" font-family="Helvetica,sans-Serif" font-size="10.00">swla/swla_function.h</text>
</a>
</g>
</g>
<!-- Node3&#45;&gt;Node14 -->
<g id="edge13" class="edge">
<title>Node3&#45;&gt;Node14</title>
<path fill="none" stroke="midnightblue" d="M3114.3,-176.91C2911.46,-176.02 1343.8,-168.04 849.71,-132.03"/>
<polygon fill="midnightblue" stroke="midnightblue" points="849.9,-128.53 839.66,-131.28 849.38,-135.51 849.9,-128.53"/>
</g>
<!-- Node15 -->
<g id="node15" class="node">
<title>Node15</title>
<g id="a_node15"><a xlink:title=" ">
<polygon fill="white" stroke="#bfbfbf" points="857.5,-112.5 857.5,-131.5 998.5,-131.5 998.5,-112.5 857.5,-112.5"/>
<text text-anchor="middle" x="928" y="-119.5" font-family="Helvetica,sans-Serif" font-size="10.00">swl/swl_usp_cmdStatus.h</text>
</a>
</g>
</g>
<!-- Node3&#45;&gt;Node15 -->
<g id="edge14" class="edge">
<title>Node3&#45;&gt;Node15</title>
<path fill="none" stroke="midnightblue" d="M3114.31,-176.81C2919.63,-175.11 1469.61,-161.55 1008.68,-131.96"/>
<polygon fill="midnightblue" stroke="midnightblue" points="1008.85,-128.46 998.64,-131.3 1008.39,-135.45 1008.85,-128.46"/>
</g>
<!-- Node16 -->
<g id="node16" class="node">
<title>Node16</title>
<g id="a_node16"><a xlink:title=" ">
<polygon fill="white" stroke="#bfbfbf" points="1017,-112.5 1017,-131.5 1103,-131.5 1103,-112.5 1017,-112.5"/>
<text text-anchor="middle" x="1060" y="-119.5" font-family="Helvetica,sans-Serif" font-size="10.00">swl/swl_wps.h</text>
</a>
</g>
</g>
<!-- Node3&#45;&gt;Node16 -->
<g id="edge15" class="edge">
<title>Node3&#45;&gt;Node16</title>
<path fill="none" stroke="midnightblue" d="M3114.47,-176.97C2925.8,-176.6 1550.68,-172.55 1113.22,-131.93"/>
<polygon fill="midnightblue" stroke="midnightblue" points="1113.35,-128.43 1103.06,-130.96 1112.69,-135.39 1113.35,-128.43"/>
</g>
<!-- Node17 -->
<g id="node17" class="node">
<title>Node17</title>
<g id="a_node17"><a xlink:title=" ">
<polygon fill="white" stroke="#bfbfbf" points="1121,-112.5 1121,-131.5 1225,-131.5 1225,-112.5 1121,-112.5"/>
<text text-anchor="middle" x="1173" y="-119.5" font-family="Helvetica,sans-Serif" font-size="10.00">swl/swl_security.h</text>
</a>
</g>
</g>
<!-- Node3&#45;&gt;Node17 -->
<g id="edge16" class="edge">
<title>Node3&#45;&gt;Node17</title>
<path fill="none" stroke="midnightblue" d="M3114.34,-176.86C2931.79,-175.58 1646.81,-165.53 1235.34,-131.98"/>
<polygon fill="midnightblue" stroke="midnightblue" points="1235.45,-128.48 1225.19,-131.13 1234.87,-135.45 1235.45,-128.48"/>
</g>
<!-- Node18 -->
<g id="node18" class="node">
<title>Node18</title>
<g id="a_node18"><a xlink:title=" ">
<polygon fill="white" stroke="#bfbfbf" points="1243.5,-112.5 1243.5,-131.5 1326.5,-131.5 1326.5,-112.5 1243.5,-112.5"/>
<text text-anchor="middle" x="1285" y="-119.5" font-family="Helvetica,sans-Serif" font-size="10.00">amxc/amxc.h</text>
</a>
</g>
</g>
<!-- Node3&#45;&gt;Node18 -->
<g id="edge17" class="edge">
<title>Node3&#45;&gt;Node18</title>
<path fill="none" stroke="midnightblue" d="M3114.38,-176.91C2937.6,-176.07 1726.53,-169.08 1336.85,-131.88"/>
<polygon fill="midnightblue" stroke="midnightblue" points="1336.97,-128.37 1326.68,-130.88 1336.29,-135.34 1336.97,-128.37"/>
</g>
<!-- Node19 -->
<g id="node19" class="node">
<title>Node19</title>
<g id="a_node19"><a xlink:title=" ">
<polygon fill="white" stroke="#bfbfbf" points="1345,-112.5 1345,-131.5 1429,-131.5 1429,-112.5 1345,-112.5"/>
<text text-anchor="middle" x="1387" y="-119.5" font-family="Helvetica,sans-Serif" font-size="10.00">amxp/amxp.h</text>
</a>
</g>
</g>
<!-- Node3&#45;&gt;Node19 -->
<g id="edge18" class="edge">
<title>Node3&#45;&gt;Node19</title>
<path fill="none" stroke="midnightblue" d="M3114.26,-176.87C2942.85,-175.76 1806.5,-167.2 1439.34,-131.95"/>
<polygon fill="midnightblue" stroke="midnightblue" points="1439.53,-128.45 1429.23,-130.95 1438.84,-135.41 1439.53,-128.45"/>
</g>
<!-- Node20 -->
<g id="node20" class="node">
<title>Node20</title>
<g id="a_node20"><a xlink:title=" ">
<polygon fill="white" stroke="#bfbfbf" points="1447,-112.5 1447,-131.5 1587,-131.5 1587,-112.5 1447,-112.5"/>
<text text-anchor="middle" x="1517" y="-119.5" font-family="Helvetica,sans-Serif" font-size="10.00">amxd/amxd_parameter.h</text>
</a>
</g>
</g>
<!-- Node3&#45;&gt;Node20 -->
<g id="edge19" class="edge">
<title>Node3&#45;&gt;Node20</title>
<path fill="none" stroke="midnightblue" d="M3114.25,-177.05C2977.58,-177.25 2223.13,-176.23 1597.31,-132.03"/>
<polygon fill="midnightblue" stroke="midnightblue" points="1597.41,-128.52 1587.18,-131.31 1596.91,-135.51 1597.41,-128.52"/>
</g>
<!-- Node21 -->
<g id="node21" class="node">
<title>Node21</title>
<g id="a_node21"><a xlink:title=" ">
<polygon fill="white" stroke="#bfbfbf" points="1605.5,-112.5 1605.5,-131.5 1724.5,-131.5 1724.5,-112.5 1605.5,-112.5"/>
<text text-anchor="middle" x="1665" y="-119.5" font-family="Helvetica,sans-Serif" font-size="10.00">amxd/amxd_action.h</text>
</a>
</g>
</g>
<!-- Node3&#45;&gt;Node21 -->
<g id="edge20" class="edge">
<title>Node3&#45;&gt;Node21</title>
<path fill="none" stroke="midnightblue" d="M3114.1,-177.11C2984.21,-177.62 2301.53,-177.96 1734.68,-132.06"/>
<polygon fill="midnightblue" stroke="midnightblue" points="1734.92,-128.56 1724.67,-131.24 1734.35,-135.54 1734.92,-128.56"/>
</g>
<!-- Node22 -->
<g id="node22" class="node">
<title>Node22</title>
<g id="a_node22"><a xlink:title=" ">
<polygon fill="white" stroke="#bfbfbf" points="1742.5,-112.5 1742.5,-131.5 1917.5,-131.5 1917.5,-112.5 1742.5,-112.5"/>
<text text-anchor="middle" x="1830" y="-119.5" font-family="Helvetica,sans-Serif" font-size="10.00">amxd/amxd_object_parameter.h</text>
</a>
</g>
</g>
<!-- Node3&#45;&gt;Node22 -->
<g id="edge21" class="edge">
<title>Node3&#45;&gt;Node22</title>
<path fill="none" stroke="midnightblue" d="M3114.12,-176.64C2995.2,-174.57 2414.48,-163.3 1927.79,-132.01"/>
<polygon fill="midnightblue" stroke="midnightblue" points="1927.96,-128.51 1917.75,-131.36 1927.51,-135.5 1927.96,-128.51"/>
</g>
<!-- Node23 -->
<g id="node23" class="node">
<title>Node23</title>
<g id="a_node23"><a xlink:title=" ">
<polygon fill="white" stroke="#bfbfbf" points="1936,-112.5 1936,-131.5 2088,-131.5 2088,-112.5 1936,-112.5"/>
<text text-anchor="middle" x="2012" y="-119.5" font-family="Helvetica,sans-Serif" font-size="10.00">amxd/amxd_object_event.h</text>
</a>
</g>
</g>
<!-- Node3&#45;&gt;Node23 -->
<g id="edge22" class="edge">
<title>Node3&#45;&gt;Node23</title>
<path fill="none" stroke="midnightblue" d="M3114.4,-176.56C3006.31,-174.28 2513.3,-162.62 2098.53,-132.07"/>
<polygon fill="midnightblue" stroke="midnightblue" points="2098.67,-128.57 2088.44,-131.32 2098.15,-135.55 2098.67,-128.57"/>
</g>
<!-- Node24 -->
<g id="node24" class="node">
<title>Node24</title>
<g id="a_node24"><a xlink:title=" ">
<polygon fill="white" stroke="#bfbfbf" points="2106.5,-112.5 2106.5,-131.5 2235.5,-131.5 2235.5,-112.5 2106.5,-112.5"/>
<text text-anchor="middle" x="2171" y="-119.5" font-family="Helvetica,sans-Serif" font-size="10.00">amxd/amxd_function.h</text>
</a>
</g>
</g>
<!-- Node3&#45;&gt;Node24 -->
<g id="edge23" class="edge">
<title>Node3&#45;&gt;Node24</title>
<path fill="none" stroke="midnightblue" d="M3114.23,-176.48C3015.34,-174.01 2598.46,-162.28 2246,-132.12"/>
<polygon fill="midnightblue" stroke="midnightblue" points="2246.12,-128.61 2235.85,-131.24 2245.52,-135.59 2246.12,-128.61"/>
</g>
<!-- Node25 -->
<g id="node25" class="node">
<title>Node25</title>
<g id="a_node25"><a xlink:title=" ">
<polygon fill="white" stroke="#bfbfbf" points="2253.5,-112.5 2253.5,-131.5 2422.5,-131.5 2422.5,-112.5 2253.5,-112.5"/>
<text text-anchor="middle" x="2338" y="-119.5" font-family="Helvetica,sans-Serif" font-size="10.00">amxd/amxd_object_hierarchy.h</text>
</a>
</g>
</g>
<!-- Node3&#45;&gt;Node25 -->
<g id="edge24" class="edge">
<title>Node3&#45;&gt;Node25</title>
<path fill="none" stroke="midnightblue" d="M3114.35,-175.88C3029.1,-171.4 2708.23,-154.05 2432.83,-132.12"/>
<polygon fill="midnightblue" stroke="midnightblue" points="2432.88,-128.62 2422.64,-131.31 2432.33,-135.6 2432.88,-128.62"/>
</g>
<!-- Node26 -->
<g id="node26" class="node">
<title>Node26</title>
<g id="a_node26"><a xlink:title=" ">
<polygon fill="white" stroke="#bfbfbf" points="2440.5,-112.5 2440.5,-131.5 2559.5,-131.5 2559.5,-112.5 2440.5,-112.5"/>
<text text-anchor="middle" x="2500" y="-119.5" font-family="Helvetica,sans-Serif" font-size="10.00">amxd/amxd_object.h</text>
</a>
</g>
</g>
<!-- Node3&#45;&gt;Node26 -->
<g id="edge25" class="edge">
<title>Node3&#45;&gt;Node26</title>
<path fill="none" stroke="midnightblue" d="M3114.29,-175.69C3039.91,-171.13 2788.26,-154.96 2569.73,-132.14"/>
<polygon fill="midnightblue" stroke="midnightblue" points="2569.99,-128.64 2559.68,-131.08 2569.26,-135.61 2569.99,-128.64"/>
</g>
<!-- Node27 -->
<g id="node27" class="node">
<title>Node27</title>
<g id="a_node27"><a xlink:title=" ">
<polygon fill="white" stroke="#bfbfbf" points="2577.5,-112.5 2577.5,-131.5 2682.5,-131.5 2682.5,-112.5 2577.5,-112.5"/>
<text text-anchor="middle" x="2630" y="-119.5" font-family="Helvetica,sans-Serif" font-size="10.00">amxd/amxd_dm.h</text>
</a>
</g>
</g>
<!-- Node3&#45;&gt;Node27 -->
<g id="edge26" class="edge">
<title>Node3&#45;&gt;Node27</title>
<path fill="none" stroke="midnightblue" d="M3114.25,-175.13C3051,-169.62 2861.47,-152.62 2692.8,-132.05"/>
<polygon fill="midnightblue" stroke="midnightblue" points="2693.1,-128.56 2682.74,-130.81 2692.24,-135.51 2693.1,-128.56"/>
</g>
<!-- Node28 -->
<g id="node28" class="node">
<title>Node28</title>
<g id="a_node28"><a xlink:title=" ">
<polygon fill="white" stroke="#bfbfbf" points="2701,-112.5 2701,-131.5 2845,-131.5 2845,-112.5 2701,-112.5"/>
<text text-anchor="middle" x="2773" y="-119.5" font-family="Helvetica,sans-Serif" font-size="10.00">amxd/amxd_transaction.h</text>
</a>
</g>
</g>
<!-- Node3&#45;&gt;Node28 -->
<g id="edge27" class="edge">
<title>Node3&#45;&gt;Node28</title>
<path fill="none" stroke="midnightblue" d="M3114.38,-173.78C3061.43,-165.91 2923.52,-145.39 2840.08,-132.98"/>
<polygon fill="midnightblue" stroke="midnightblue" points="2840.59,-129.52 2830.19,-131.51 2839.56,-136.44 2840.59,-129.52"/>
</g>
<!-- Node29 -->
<g id="node29" class="node">
<title>Node29</title>
<g id="a_node29"><a xlink:title=" ">
<polygon fill="white" stroke="#bfbfbf" points="2863,-112.5 2863,-131.5 2979,-131.5 2979,-112.5 2863,-112.5"/>
<text text-anchor="middle" x="2921" y="-119.5" font-family="Helvetica,sans-Serif" font-size="10.00">amxb/amxb_types.h</text>
</a>
</g>
</g>
<!-- Node3&#45;&gt;Node29 -->
<g id="edge28" class="edge">
<title>Node3&#45;&gt;Node29</title>
<path fill="none" stroke="midnightblue" d="M3114.2,-171.53C3079.36,-162.78 3010.45,-145.47 2965.05,-134.06"/>
<polygon fill="midnightblue" stroke="midnightblue" points="2965.73,-130.63 2955.18,-131.59 2964.03,-137.42 2965.73,-130.63"/>
</g>
<!-- Node30 -->
<g id="node30" class="node">
<title>Node30</title>
<g id="a_node30"><a xlink:title=" ">
<polygon fill="white" stroke="#bfbfbf" points="2997,-112.5 2997,-131.5 3133,-131.5 3133,-112.5 2997,-112.5"/>
<text text-anchor="middle" x="3065" y="-119.5" font-family="Helvetica,sans-Serif" font-size="10.00">amxb/amxb_operators.h</text>
</a>
</g>
</g>
<!-- Node3&#45;&gt;Node30 -->
<g id="edge29" class="edge">
<title>Node3&#45;&gt;Node30</title>
<path fill="none" stroke="midnightblue" d="M3124.59,-168.32C3113.89,-160.18 3097.66,-147.84 3084.84,-138.09"/>
<polygon fill="midnightblue" stroke="midnightblue" points="3086.69,-135.1 3076.61,-131.83 3082.46,-140.67 3086.69,-135.1"/>
</g>
<!-- Node31 -->
<g id="node31" class="node">
<title>Node31</title>
<g id="a_node31"><a xlink:title=" ">
<polygon fill="white" stroke="#bfbfbf" points="3151,-112.5 3151,-131.5 3263,-131.5 3263,-112.5 3151,-112.5"/>
<text text-anchor="middle" x="3207" y="-119.5" font-family="Helvetica,sans-Serif" font-size="10.00">amxb/amxb_error.h</text>
</a>
</g>
</g>
<!-- Node3&#45;&gt;Node31 -->
<g id="edge30" class="edge">
<title>Node3&#45;&gt;Node31</title>
<path fill="none" stroke="midnightblue" d="M3147.41,-168.32C3158.11,-160.18 3174.34,-147.84 3187.16,-138.09"/>
<polygon fill="midnightblue" stroke="midnightblue" points="3189.54,-140.67 3195.39,-131.83 3185.31,-135.1 3189.54,-140.67"/>
</g>
<!-- Node32 -->
<g id="node32" class="node">
<title>Node32</title>
<g id="a_node32"><a xlink:title=" ">
<polygon fill="white" stroke="#bfbfbf" points="3281.5,-112.5 3281.5,-131.5 3364.5,-131.5 3364.5,-112.5 3281.5,-112.5"/>
<text text-anchor="middle" x="3323" y="-119.5" font-family="Helvetica,sans-Serif" font-size="10.00">amxo/amxo.h</text>
</a>
</g>
</g>
<!-- Node3&#45;&gt;Node32 -->
<g id="edge31" class="edge">
<title>Node3&#45;&gt;Node32</title>
<path fill="none" stroke="midnightblue" d="M3157.82,-170.7C3188.59,-161.81 3245.27,-145.45 3283.55,-134.39"/>
<polygon fill="midnightblue" stroke="midnightblue" points="3284.7,-137.7 3293.33,-131.57 3282.76,-130.98 3284.7,-137.7"/>
</g>
<!-- Node33 -->
<g id="node33" class="node">
<title>Node33</title>
<g id="a_node33"><a xlink:title=" ">
<polygon fill="white" stroke="#bfbfbf" points="3382.5,-112.5 3382.5,-131.5 3497.5,-131.5 3497.5,-112.5 3382.5,-112.5"/>
<text text-anchor="middle" x="3440" y="-119.5" font-family="Helvetica,sans-Serif" font-size="10.00">amxo/amxo_types.h</text>
</a>
</g>
</g>
<!-- Node3&#45;&gt;Node33 -->
<g id="edge32" class="edge">
<title>Node3&#45;&gt;Node33</title>
<path fill="none" stroke="midnightblue" d="M3157.86,-173.12C3204.22,-164.88 3313.71,-145.43 3381.86,-133.33"/>
<polygon fill="midnightblue" stroke="midnightblue" points="3382.77,-136.72 3392.01,-131.52 3381.55,-129.83 3382.77,-136.72"/>
</g>
<!-- Node34 -->
<g id="node34" class="node">
<title>Node34</title>
<g id="a_node34"><a xlink:href="wld__types_8h.html" target="_top" xlink:title=" ">
<polygon fill="white" stroke="red" points="4093.5,-56.5 4093.5,-75.5 4168.5,-75.5 4168.5,-56.5 4093.5,-56.5"/>
<text text-anchor="middle" x="4131" y="-63.5" font-family="Helvetica,sans-Serif" font-size="10.00">wld_types.h</text>
</a>
</g>
</g>
<!-- Node3&#45;&gt;Node34 -->
<g id="edge33" class="edge">
<title>Node3&#45;&gt;Node34</title>
<path fill="none" stroke="midnightblue" d="M3157.58,-176.35C3249.22,-173.44 3606.5,-160.45 3715,-132 3735.39,-126.65 3737.73,-117.78 3758,-112 3871.74,-79.57 4011.5,-70.51 4083.34,-67.98"/>
<polygon fill="midnightblue" stroke="midnightblue" points="4083.56,-71.47 4093.44,-67.65 4083.33,-64.47 4083.56,-71.47"/>
</g>
<!-- Node37 -->
<g id="node35" class="node">
<title>Node37</title>
<g id="a_node35"><a xlink:href="wld__channel__types_8h.html" target="_top" xlink:title=" ">
<polygon fill="white" stroke="black" points="3515.5,-112.5 3515.5,-131.5 3634.5,-131.5 3634.5,-112.5 3515.5,-112.5"/>
<text text-anchor="middle" x="3575" y="-119.5" font-family="Helvetica,sans-Serif" font-size="10.00">wld_channel_types.h</text>
</a>
</g>
</g>
<!-- Node3&#45;&gt;Node37 -->
<g id="edge36" class="edge">
<title>Node3&#45;&gt;Node37</title>
<path fill="none" stroke="midnightblue" d="M3157.76,-174.45C3213.63,-167.86 3366.99,-149.69 3505.36,-132.2"/>
<polygon fill="midnightblue" stroke="midnightblue" points="3505.82,-135.67 3515.3,-130.94 3504.94,-128.72 3505.82,-135.67"/>
</g>
<!-- Node38 -->
<g id="node36" class="node">
<title>Node38</title>
<g id="a_node36"><a xlink:title=" ">
<polygon fill="white" stroke="#bfbfbf" points="1820.5,-56.5 1820.5,-75.5 1945.5,-75.5 1945.5,-56.5 1820.5,-56.5"/>
<text text-anchor="middle" x="1883" y="-63.5" font-family="Helvetica,sans-Serif" font-size="10.00">swla/swla_chanspec.h</text>
</a>
</g>
</g>
<!-- Node3&#45;&gt;Node38 -->
<g id="edge54" class="edge">
<title>Node3&#45;&gt;Node38</title>
<path fill="none" stroke="midnightblue" d="M3114.45,-177.08C2855.95,-177.96 357.31,-185.15 305,-132 298.76,-125.66 298.8,-118.37 305,-112 331.56,-84.67 1503.7,-70.86 1810.26,-67.71"/>
<polygon fill="midnightblue" stroke="midnightblue" points="1810.4,-71.21 1820.37,-67.6 1810.33,-64.21 1810.4,-71.21"/>
</g>
<!-- Node39 -->
<g id="node37" class="node">
<title>Node39</title>
<g id="a_node37"><a xlink:href="wld__bgdfs_8h.html" target="_top" xlink:title=" ">
<polygon fill="white" stroke="black" points="3899.5,-112.5 3899.5,-131.5 3974.5,-131.5 3974.5,-112.5 3899.5,-112.5"/>
<text text-anchor="middle" x="3937" y="-119.5" font-family="Helvetica,sans-Serif" font-size="10.00">wld_bgdfs.h</text>
</a>
</g>
</g>
<!-- Node3&#45;&gt;Node39 -->
<g id="edge40" class="edge">
<title>Node3&#45;&gt;Node39</title>
<path fill="none" stroke="midnightblue" d="M3157.69,-176.73C3246.84,-175.42 3593.86,-168.21 3889.31,-131.9"/>
<polygon fill="midnightblue" stroke="midnightblue" points="3889.87,-135.36 3899.36,-130.65 3889,-128.41 3889.87,-135.36"/>
</g>
<!-- Node40 -->
<g id="node38" class="node">
<title>Node40</title>
<g id="a_node38"><a xlink:href="wld__rad__delayMgr_8h.html" target="_top" xlink:title=" ">
<polygon fill="white" stroke="black" points="3767,-112.5 3767,-131.5 3881,-131.5 3881,-112.5 3767,-112.5"/>
<text text-anchor="middle" x="3824" y="-119.5" font-family="Helvetica,sans-Serif" font-size="10.00">wld_rad_delayMgr.h</text>
</a>
</g>
</g>
<!-- Node3&#45;&gt;Node40 -->
<g id="edge42" class="edge">
<title>Node3&#45;&gt;Node40</title>
<path fill="none" stroke="midnightblue" d="M3157.61,-175.64C3236.5,-171.01 3514.76,-154.87 3744,-132 3748.1,-131.59 3752.34,-131.14 3756.61,-130.66"/>
<polygon fill="midnightblue" stroke="midnightblue" points="3757.11,-134.12 3766.64,-129.49 3756.31,-127.17 3757.11,-134.12"/>
</g>
<!-- Node41 -->
<g id="node39" class="node">
<title>Node41</title>
<g id="a_node39"><a xlink:href="wld__fsm_8h.html" target="_top" xlink:title=" ">
<polygon fill="white" stroke="black" points="4097.5,-112.5 4097.5,-131.5 4164.5,-131.5 4164.5,-112.5 4097.5,-112.5"/>
<text text-anchor="middle" x="4131" y="-119.5" font-family="Helvetica,sans-Serif" font-size="10.00">wld_fsm.h</text>
</a>
</g>
</g>
<!-- Node3&#45;&gt;Node41 -->
<g id="edge44" class="edge">
<title>Node3&#45;&gt;Node41</title>
<path fill="none" stroke="midnightblue" d="M3157.56,-177.24C3260.23,-178.15 3709.88,-179.16 4087.26,-131.86"/>
<polygon fill="midnightblue" stroke="midnightblue" points="4087.8,-135.31 4097.28,-130.59 4086.92,-128.37 4087.8,-135.31"/>
</g>
<!-- Node42 -->
<g id="node40" class="node">
<title>Node42</title>
<g id="a_node40"><a xlink:href="wld__sensing_8h.html" target="_top" xlink:title=" ">
<polygon fill="white" stroke="black" points="3993,-112.5 3993,-131.5 4079,-131.5 4079,-112.5 3993,-112.5"/>
<text text-anchor="middle" x="4036" y="-119.5" font-family="Helvetica,sans-Serif" font-size="10.00">wld_sensing.h</text>
</a>
</g>
</g>
<!-- Node3&#45;&gt;Node42 -->
<g id="edge46" class="edge">
<title>Node3&#45;&gt;Node42</title>
<path fill="none" stroke="midnightblue" d="M3157.53,-176.76C3253.6,-175.53 3650.86,-168.52 3975,-132 3977.51,-131.72 3980.08,-131.39 3982.68,-131.03"/>
<polygon fill="midnightblue" stroke="midnightblue" points="3983.43,-134.46 3992.81,-129.53 3982.41,-127.54 3983.43,-134.46"/>
</g>
<!-- Node43 -->
<g id="node41" class="node">
<title>Node43</title>
<g id="a_node41"><a xlink:href="wld__mld_8h.html" target="_top" xlink:title=" ">
<polygon fill="white" stroke="black" points="4377.5,-112.5 4377.5,-131.5 4444.5,-131.5 4444.5,-112.5 4377.5,-112.5"/>
<text text-anchor="middle" x="4411" y="-119.5" font-family="Helvetica,sans-Serif" font-size="10.00">wld_mld.h</text>
</a>
</g>
</g>
<!-- Node3&#45;&gt;Node43 -->
<g id="edge48" class="edge">
<title>Node3&#45;&gt;Node43</title>
<path fill="none" stroke="midnightblue" d="M3157.59,-176.71C3299.38,-174.76 4099.54,-162.55 4367.23,-131.82"/>
<polygon fill="midnightblue" stroke="midnightblue" points="4367.77,-135.28 4377.29,-130.62 4366.95,-128.32 4367.77,-135.28"/>
</g>
<!-- Node44 -->
<g id="node42" class="node">
<title>Node44</title>
<g id="a_node42"><a xlink:href="wld__autoCommitRadData_8h.html" target="_top" xlink:title=" ">
<polygon fill="white" stroke="black" points="4183,-112.5 4183,-131.5 4359,-131.5 4359,-112.5 4183,-112.5"/>
<text text-anchor="middle" x="4271" y="-119.5" font-family="Helvetica,sans-Serif" font-size="10.00">Utils/wld_autoCommitRadData.h</text>
</a>
</g>
</g>
<!-- Node3&#45;&gt;Node44 -->
<g id="edge50" class="edge">
<title>Node3&#45;&gt;Node44</title>
<path fill="none" stroke="midnightblue" d="M3157.57,-176.46C3265.52,-173.67 3757.91,-159.98 4172.89,-132.04"/>
<polygon fill="midnightblue" stroke="midnightblue" points="4173.25,-135.52 4182.99,-131.36 4172.77,-128.54 4173.25,-135.52"/>
</g>
<!-- Node45 -->
<g id="node43" class="node">
<title>Node45</title>
<g id="a_node43"><a xlink:href="wld__dmnMgt_8h.html" target="_top" xlink:title=" ">
<polygon fill="white" stroke="red" points="4820,-112.5 4820,-131.5 4934,-131.5 4934,-112.5 4820,-112.5"/>
<text text-anchor="middle" x="4877" y="-119.5" font-family="Helvetica,sans-Serif" font-size="10.00">Utils/wld_dmnMgt.h</text>
</a>
</g>
</g>
<!-- Node3&#45;&gt;Node45 -->
<g id="edge51" class="edge">
<title>Node3&#45;&gt;Node45</title>
<path fill="none" stroke="midnightblue" d="M3157.71,-176.74C3327.63,-174.68 4447.09,-160.17 4809.81,-131.98"/>
<polygon fill="midnightblue" stroke="midnightblue" points="4810.11,-135.47 4819.8,-131.19 4809.56,-128.49 4810.11,-135.47"/>
</g>
<!-- Node47 -->
<g id="node44" class="node">
<title>Node47</title>
<g id="a_node44"><a xlink:title=" ">
<polygon fill="white" stroke="#bfbfbf" points="4462.5,-112.5 4462.5,-131.5 4563.5,-131.5 4563.5,-112.5 4462.5,-112.5"/>
<text text-anchor="middle" x="4513" y="-119.5" font-family="Helvetica,sans-Serif" font-size="10.00">swl/swl_staCap.h</text>
</a>
</g>
</g>
<!-- Node3&#45;&gt;Node47 -->
<g id="edge55" class="edge">
<title>Node3&#45;&gt;Node47</title>
<path fill="none" stroke="midnightblue" d="M3157.8,-177.21C3282.82,-178.22 3921.49,-180.74 4452.04,-132.08"/>
<polygon fill="midnightblue" stroke="midnightblue" points="4452.56,-135.54 4462.2,-131.14 4451.92,-128.57 4452.56,-135.54"/>
</g>
<!-- Node48 -->
<g id="node45" class="node">
<title>Node48</title>
<g id="a_node45"><a xlink:title=" ">
<polygon fill="white" stroke="#bfbfbf" points="4582,-112.5 4582,-131.5 4686,-131.5 4686,-112.5 4582,-112.5"/>
<text text-anchor="middle" x="4634" y="-119.5" font-family="Helvetica,sans-Serif" font-size="10.00">swla/swla_table.h</text>
</a>
</g>
</g>
<!-- Node3&#45;&gt;Node48 -->
<g id="edge56" class="edge">
<title>Node3&#45;&gt;Node48</title>
<path fill="none" stroke="midnightblue" d="M3157.53,-176.67C3312.4,-174.22 4259.27,-158.4 4571.42,-132.01"/>
<polygon fill="midnightblue" stroke="midnightblue" points="4572.14,-135.46 4581.8,-131.1 4571.54,-128.48 4572.14,-135.46"/>
</g>
<!-- Node49 -->
<g id="node46" class="node">
<title>Node49</title>
<g id="a_node46"><a xlink:title=" ">
<polygon fill="white" stroke="#bfbfbf" points="4704.5,-112.5 4704.5,-131.5 4801.5,-131.5 4801.5,-112.5 4704.5,-112.5"/>
<text text-anchor="middle" x="4753" y="-119.5" font-family="Helvetica,sans-Serif" font-size="10.00">swl/swl_assert.h</text>
</a>
</g>
</g>
<!-- Node3&#45;&gt;Node49 -->
<g id="edge57" class="edge">
<title>Node3&#45;&gt;Node49</title>
<path fill="none" stroke="midnightblue" d="M3157.75,-176.75C3320.95,-174.79 4356.14,-161.4 4694.28,-131.91"/>
<polygon fill="midnightblue" stroke="midnightblue" points="4694.67,-135.38 4704.32,-131.01 4694.05,-128.41 4694.67,-135.38"/>
</g>
<!-- Node34&#45;&gt;Node5 -->
<g id="edge34" class="edge">
<title>Node34&#45;&gt;Node5</title>
<path fill="none" stroke="midnightblue" d="M4168.62,-62.66C4311.65,-53.77 4820.75,-22.14 4962.9,-13.31"/>
<polygon fill="midnightblue" stroke="midnightblue" points="4963.48,-16.78 4973.25,-12.66 4963.05,-9.79 4963.48,-16.78"/>
</g>
<!-- Node34&#45;&gt;Node10 -->
<g id="edge35" class="edge">
<title>Node34&#45;&gt;Node10</title>
<path fill="none" stroke="midnightblue" d="M4093.22,-60.26C4018.63,-50.89 3851.88,-29.95 3761.69,-18.62"/>
<polygon fill="midnightblue" stroke="midnightblue" points="3761.97,-15.13 3751.62,-17.36 3761.1,-22.08 3761.97,-15.13"/>
</g>
<!-- Node37&#45;&gt;Node4 -->
<g id="edge37" class="edge">
<title>Node37&#45;&gt;Node4</title>
<path fill="none" stroke="midnightblue" d="M3585.44,-112.32C3595.15,-104.26 3609.82,-92.08 3621.5,-82.37"/>
<polygon fill="midnightblue" stroke="midnightblue" points="3623.91,-84.92 3629.37,-75.83 3619.44,-79.53 3623.91,-84.92"/>
</g>
<!-- Node37&#45;&gt;Node10 -->
<g id="edge39" class="edge">
<title>Node37&#45;&gt;Node10</title>
<path fill="none" stroke="midnightblue" d="M3576.19,-112.3C3578.47,-98.65 3584.68,-72.13 3600,-56 3614.92,-40.28 3636.33,-29.67 3655.6,-22.73"/>
<polygon fill="midnightblue" stroke="midnightblue" points="3656.79,-26.02 3665.15,-19.51 3654.55,-19.39 3656.79,-26.02"/>
</g>
<!-- Node37&#45;&gt;Node38 -->
<g id="edge38" class="edge">
<title>Node37&#45;&gt;Node38</title>
<path fill="none" stroke="midnightblue" d="M3515.33,-112.75C3512.52,-112.47 3509.73,-112.22 3507,-112 3199.22,-87.44 2230.1,-71.97 1955.92,-68.01"/>
<polygon fill="midnightblue" stroke="midnightblue" points="1955.74,-64.51 1945.69,-67.86 1955.64,-71.51 1955.74,-64.51"/>
</g>
<!-- Node39&#45;&gt;Node34 -->
<g id="edge41" class="edge">
<title>Node39&#45;&gt;Node34</title>
<path fill="none" stroke="midnightblue" d="M3967.74,-112.44C4000.94,-103.2 4053.99,-88.44 4090.56,-78.26"/>
<polygon fill="midnightblue" stroke="midnightblue" points="4091.71,-81.57 4100.4,-75.52 4089.83,-74.83 4091.71,-81.57"/>
</g>
<!-- Node40&#45;&gt;Node3 -->
<g id="edge43" class="edge">
<title>Node40&#45;&gt;Node3</title>
<path fill="none" stroke="midnightblue" d="M3766.87,-131.5C3765.23,-131.67 3763.61,-131.84 3762,-132 3535.07,-154.64 3260.1,-170.68 3167.78,-175.5"/>
<polygon fill="midnightblue" stroke="midnightblue" points="3167.49,-172.01 3157.68,-176.01 3167.85,-179 3167.49,-172.01"/>
</g>
<!-- Node41&#45;&gt;Node34 -->
<g id="edge45" class="edge">
<title>Node41&#45;&gt;Node34</title>
<path fill="none" stroke="midnightblue" d="M4131,-112.08C4131,-105.01 4131,-94.86 4131,-85.99"/>
<polygon fill="midnightblue" stroke="midnightblue" points="4134.5,-85.75 4131,-75.75 4127.5,-85.75 4134.5,-85.75"/>
</g>
<!-- Node42&#45;&gt;Node3 -->
<g id="edge47" class="edge">
<title>Node42&#45;&gt;Node3</title>
<path fill="none" stroke="midnightblue" d="M3997.14,-131.5C3995.75,-131.68 3994.37,-131.85 3993,-132 3672.61,-168.1 3280.76,-175.36 3167.75,-176.71"/>
<polygon fill="midnightblue" stroke="midnightblue" points="3167.66,-173.21 3157.7,-176.82 3167.74,-180.21 3167.66,-173.21"/>
</g>
<!-- Node43&#45;&gt;Node34 -->
<g id="edge49" class="edge">
<title>Node43&#45;&gt;Node34</title>
<path fill="none" stroke="midnightblue" d="M4377.21,-113.87C4374.1,-113.23 4370.99,-112.6 4368,-112 4302.57,-98.94 4226.79,-84.71 4178.89,-75.82"/>
<polygon fill="midnightblue" stroke="midnightblue" points="4179.28,-72.33 4168.81,-73.95 4178,-79.22 4179.28,-72.33"/>
</g>
<!-- Node45&#45;&gt;Node6 -->
<g id="edge52" class="edge">
<title>Node45&#45;&gt;Node6</title>
<path fill="none" stroke="midnightblue" d="M4880.3,-112.08C4882.98,-104.85 4886.85,-94.41 4890.19,-85.4"/>
<polygon fill="midnightblue" stroke="midnightblue" points="4893.57,-86.34 4893.76,-75.75 4887,-83.91 4893.57,-86.34"/>
</g>
<!-- Node45&#45;&gt;Node34 -->
<g id="edge53" class="edge">
<title>Node45&#45;&gt;Node34</title>
<path fill="none" stroke="midnightblue" d="M4819.79,-112.95C4816.82,-112.61 4813.88,-112.29 4811,-112 4574.38,-88.07 4290.09,-73.97 4178.89,-69.02"/>
<polygon fill="midnightblue" stroke="midnightblue" points="4178.82,-65.52 4168.67,-68.57 4178.51,-72.51 4178.82,-65.52"/>
</g>
<!-- Node76&#45;&gt;Node3 -->
<g id="edge59" class="edge">
<title>Node76&#45;&gt;Node3</title>
<path fill="none" stroke="midnightblue" d="M3161.05,-224.08C3156.9,-216.61 3150.85,-205.72 3145.73,-196.52"/>
<polygon fill="midnightblue" stroke="midnightblue" points="3148.78,-194.79 3140.86,-187.75 3142.66,-198.19 3148.78,-194.79"/>
</g>
<!-- Node77&#45;&gt;Node3 -->
<g id="edge62" class="edge">
<title>Node77&#45;&gt;Node3</title>
<path fill="none" stroke="midnightblue" d="M3231.94,-224.44C3213.43,-215.68 3184.42,-201.94 3163.14,-191.86"/>
<polygon fill="midnightblue" stroke="midnightblue" points="3164.51,-188.63 3153.98,-187.52 3161.52,-194.96 3164.51,-188.63"/>
</g>
<!-- Node77&#45;&gt;Node5 -->
<g id="edge61" class="edge">
<title>Node77&#45;&gt;Node5</title>
<path fill="none" stroke="midnightblue" d="M3284.19,-225.34C3287.16,-224.83 3290.13,-224.37 3293,-224 3396.72,-210.69 5100.89,-207.73 5173,-132 5221.46,-81.11 5100.28,-38.57 5036.39,-20.42"/>
<polygon fill="midnightblue" stroke="midnightblue" points="5037.23,-17.03 5026.66,-17.72 5035.36,-23.77 5037.23,-17.03"/>
</g>
</g>
</svg>
