<?xml version="1.0" encoding="UTF-8" standalone="no"?>
<!DOCTYPE svg PUBLIC "-//W3C//DTD SVG 1.1//EN"
 "http://www.w3.org/Graphics/SVG/1.1/DTD/svg11.dtd">
<!-- Generated by graphviz version 2.43.0 (0)
 -->
<!-- Title: wld_scan_stop Pages: 1 -->
<svg width="411pt" height="66pt"
 viewBox="0.00 0.00 411.00 66.00" xmlns="http://www.w3.org/2000/svg" xmlns:xlink="http://www.w3.org/1999/xlink">
<g id="graph0" class="graph" transform="scale(1 1) rotate(0) translate(4 62)">
<title>wld_scan_stop</title>
<polygon fill="white" stroke="transparent" points="-4,4 -4,-62 407,-62 407,4 -4,4"/>
<!-- Node1 -->
<g id="node1" class="node">
<title>Node1</title>
<g id="a_node1"><a xlink:title=" ">
<polygon fill="#bfbfbf" stroke="black" points="0,-19.5 0,-38.5 88,-38.5 88,-19.5 0,-19.5"/>
<text text-anchor="middle" x="44" y="-26.5" font-family="Helvetica,sans-Serif" font-size="10.00">wld_scan_stop</text>
</a>
</g>
</g>
<!-- Node2 -->
<g id="node2" class="node">
<title>Node2</title>
<g id="a_node2"><a xlink:href="wld__rad__scan_8c.html#a78682009d3c7281aa400af42d7c97ac4" target="_top" xlink:title=" ">
<polygon fill="white" stroke="black" points="124,-38.5 124,-57.5 215,-57.5 215,-38.5 124,-38.5"/>
<text text-anchor="middle" x="169.5" y="-45.5" font-family="Helvetica,sans-Serif" font-size="10.00">wld_scan_done</text>
</a>
</g>
</g>
<!-- Node1&#45;&gt;Node2 -->
<g id="edge1" class="edge">
<title>Node1&#45;&gt;Node2</title>
<path fill="none" stroke="midnightblue" d="M88.19,-35.65C96.49,-36.92 105.29,-38.27 113.89,-39.6"/>
<polygon fill="midnightblue" stroke="midnightblue" points="113.45,-43.07 123.86,-41.13 114.51,-36.15 113.45,-43.07"/>
</g>
<!-- Node4 -->
<g id="node4" class="node">
<title>Node4</title>
<g id="a_node4"><a xlink:href="wld__rad__scan_8c.html#ae8ebf96ddd41708734ca65371c20757c" target="_top" xlink:title=" ">
<polygon fill="white" stroke="black" points="269.5,-0.5 269.5,-19.5 384.5,-19.5 384.5,-0.5 269.5,-0.5"/>
<text text-anchor="middle" x="327" y="-7.5" font-family="Helvetica,sans-Serif" font-size="10.00">wld_scan_isRunning</text>
</a>
</g>
</g>
<!-- Node1&#45;&gt;Node4 -->
<g id="edge4" class="edge">
<title>Node1&#45;&gt;Node4</title>
<path fill="none" stroke="midnightblue" d="M88.29,-26.07C133.92,-22.99 206.38,-18.09 259.32,-14.51"/>
<polygon fill="midnightblue" stroke="midnightblue" points="259.56,-18 269.3,-13.83 259.09,-11.02 259.56,-18"/>
</g>
<!-- Node3 -->
<g id="node3" class="node">
<title>Node3</title>
<g id="a_node3"><a xlink:href="wld__rad__scan_8c.html#ad6781577fe655f3a8b66605574fc5cfa" target="_top" xlink:title=" ">
<polygon fill="white" stroke="black" points="251,-38.5 251,-57.5 403,-57.5 403,-38.5 251,-38.5"/>
<text text-anchor="middle" x="327" y="-45.5" font-family="Helvetica,sans-Serif" font-size="10.00">wld_getScanStatsByReason</text>
</a>
</g>
</g>
<!-- Node2&#45;&gt;Node3 -->
<g id="edge2" class="edge">
<title>Node2&#45;&gt;Node3</title>
<path fill="none" stroke="midnightblue" d="M215.06,-48C223.21,-48 231.96,-48 240.84,-48"/>
<polygon fill="midnightblue" stroke="midnightblue" points="240.9,-51.5 250.9,-48 240.9,-44.5 240.9,-51.5"/>
</g>
<!-- Node2&#45;&gt;Node4 -->
<g id="edge3" class="edge">
<title>Node2&#45;&gt;Node4</title>
<path fill="none" stroke="midnightblue" d="M209.74,-38.41C230.26,-33.4 255.57,-27.21 277.33,-21.89"/>
<polygon fill="midnightblue" stroke="midnightblue" points="278.16,-25.29 287.04,-19.52 276.5,-18.49 278.16,-25.29"/>
</g>
</g>
</svg>
