<?xml version="1.0" encoding="UTF-8" standalone="no"?>
<!DOCTYPE svg PUBLIC "-//W3C//DTD SVG 1.1//EN"
 "http://www.w3.org/Graphics/SVG/1.1/DTD/svg11.dtd">
<!-- Generated by graphviz version 2.43.0 (0)
 -->
<!-- Title: include/wld/wld_nl80211_api.h Pages: 1 -->
<svg width="2056pt" height="173pt"
 viewBox="0.00 0.00 2056.00 173.00" xmlns="http://www.w3.org/2000/svg" xmlns:xlink="http://www.w3.org/1999/xlink">
<g id="graph0" class="graph" transform="scale(1 1) rotate(0) translate(4 169)">
<title>include/wld/wld_nl80211_api.h</title>
<polygon fill="white" stroke="transparent" points="-4,4 -4,-169 2052,-169 2052,4 -4,4"/>
<!-- Node1 -->
<g id="node1" class="node">
<title>Node1</title>
<g id="a_node1"><a xlink:title=" ">
<polygon fill="#bfbfbf" stroke="black" points="1224.5,-134.5 1224.5,-164.5 1361.5,-164.5 1361.5,-134.5 1224.5,-134.5"/>
<text text-anchor="start" x="1232.5" y="-152.5" font-family="Helvetica,sans-Serif" font-size="10.00">include/wld/wld_nl80211</text>
<text text-anchor="middle" x="1293" y="-141.5" font-family="Helvetica,sans-Serif" font-size="10.00">_api.h</text>
</a>
</g>
</g>
<!-- Node2 -->
<g id="node2" class="node">
<title>Node2</title>
<g id="a_node2"><a xlink:href="wld__ap__nl80211_8h.html" target="_top" xlink:title=" ">
<polygon fill="white" stroke="black" points="661,-67.5 661,-97.5 771,-97.5 771,-67.5 661,-67.5"/>
<text text-anchor="start" x="669" y="-85.5" font-family="Helvetica,sans-Serif" font-size="10.00">include/wld/wld_ap</text>
<text text-anchor="middle" x="716" y="-74.5" font-family="Helvetica,sans-Serif" font-size="10.00">_nl80211.h</text>
</a>
</g>
</g>
<!-- Node1&#45;&gt;Node2 -->
<g id="edge1" class="edge">
<title>Node1&#45;&gt;Node2</title>
<path fill="none" stroke="midnightblue" d="M1214.15,-139.62C1095.44,-126.25 873.82,-101.28 771,-89.7"/>
<polygon fill="midnightblue" stroke="midnightblue" points="1213.93,-143.11 1224.26,-140.76 1214.71,-136.16 1213.93,-143.11"/>
</g>
<!-- Node9 -->
<g id="node9" class="node">
<title>Node9</title>
<g id="a_node9"><a xlink:href="wld__ep__nl80211_8h.html" target="_top" xlink:title=" ">
<polygon fill="white" stroke="black" points="975,-67.5 975,-97.5 1085,-97.5 1085,-67.5 975,-67.5"/>
<text text-anchor="start" x="983" y="-85.5" font-family="Helvetica,sans-Serif" font-size="10.00">include/wld/wld_ep</text>
<text text-anchor="middle" x="1030" y="-74.5" font-family="Helvetica,sans-Serif" font-size="10.00">_nl80211.h</text>
</a>
</g>
</g>
<!-- Node1&#45;&gt;Node9 -->
<g id="edge8" class="edge">
<title>Node1&#45;&gt;Node9</title>
<path fill="none" stroke="midnightblue" d="M1226.31,-132.02C1182.7,-121.24 1126.4,-107.33 1085.29,-97.16"/>
<polygon fill="midnightblue" stroke="midnightblue" points="1225.71,-135.47 1236.26,-134.48 1227.39,-128.68 1225.71,-135.47"/>
</g>
<!-- Node11 -->
<g id="node11" class="node">
<title>Node11</title>
<g id="a_node11"><a xlink:href="wld__rad__nl80211_8h.html" target="_top" xlink:title=" ">
<polygon fill="white" stroke="black" points="1103.5,-67.5 1103.5,-97.5 1216.5,-97.5 1216.5,-67.5 1103.5,-67.5"/>
<text text-anchor="start" x="1111.5" y="-85.5" font-family="Helvetica,sans-Serif" font-size="10.00">include/wld/wld_rad</text>
<text text-anchor="middle" x="1160" y="-74.5" font-family="Helvetica,sans-Serif" font-size="10.00">_nl80211.h</text>
</a>
</g>
</g>
<!-- Node1&#45;&gt;Node11 -->
<g id="edge11" class="edge">
<title>Node1&#45;&gt;Node11</title>
<path fill="none" stroke="midnightblue" d="M1255.13,-129.99C1234.05,-119.69 1208.22,-107.07 1188.8,-97.58"/>
<polygon fill="midnightblue" stroke="midnightblue" points="1253.62,-133.15 1264.14,-134.4 1256.69,-126.86 1253.62,-133.15"/>
</g>
<!-- Node12 -->
<g id="node12" class="node">
<title>Node12</title>
<g id="a_node12"><a xlink:href="wifiGen_8c.html" target="_top" xlink:title=" ">
<polygon fill="white" stroke="black" points="1936,-6 1936,-25 2048,-25 2048,-6 1936,-6"/>
<text text-anchor="middle" x="1992" y="-13" font-family="Helvetica,sans-Serif" font-size="10.00">src/Plugin/wifiGen.c</text>
</a>
</g>
</g>
<!-- Node1&#45;&gt;Node12 -->
<g id="edge31" class="edge">
<title>Node1&#45;&gt;Node12</title>
<path fill="none" stroke="midnightblue" d="M1273.89,-126.08C1260.91,-108.08 1248.65,-83.21 1264,-67 1314.73,-13.44 1853.91,-41.07 1927,-31 1937.42,-29.56 1948.65,-27.32 1958.79,-25.02"/>
<polygon fill="midnightblue" stroke="midnightblue" points="1271.33,-128.5 1280.2,-134.3 1276.88,-124.24 1271.33,-128.5"/>
</g>
<!-- Node20 -->
<g id="node20" class="node">
<title>Node20</title>
<g id="a_node20"><a xlink:href="wld__ssid__nl80211__priv_8h.html" target="_top" xlink:title=" ">
<polygon fill="white" stroke="black" points="392,-67.5 392,-97.5 530,-97.5 530,-67.5 392,-67.5"/>
<text text-anchor="start" x="400" y="-85.5" font-family="Helvetica,sans-Serif" font-size="10.00">include_priv/nl80211</text>
<text text-anchor="middle" x="461" y="-74.5" font-family="Helvetica,sans-Serif" font-size="10.00">/wld_ssid_nl80211_priv.h</text>
</a>
</g>
</g>
<!-- Node1&#45;&gt;Node20 -->
<g id="edge25" class="edge">
<title>Node1&#45;&gt;Node20</title>
<path fill="none" stroke="midnightblue" d="M1213.82,-142.31C1051.53,-129.64 683.57,-100.89 530.17,-88.9"/>
<polygon fill="midnightblue" stroke="midnightblue" points="1213.96,-145.84 1224.21,-143.13 1214.51,-138.86 1213.96,-145.84"/>
</g>
<!-- Node22 -->
<g id="node22" class="node">
<title>Node22</title>
<g id="a_node22"><a xlink:href="wld__zwdfs_8c.html" target="_top" xlink:title=" ">
<polygon fill="white" stroke="black" points="1273,-67.5 1273,-97.5 1411,-97.5 1411,-67.5 1273,-67.5"/>
<text text-anchor="start" x="1281" y="-85.5" font-family="Helvetica,sans-Serif" font-size="10.00">src/ChannelManagement</text>
<text text-anchor="middle" x="1342" y="-74.5" font-family="Helvetica,sans-Serif" font-size="10.00">/wld_zwdfs.c</text>
</a>
</g>
</g>
<!-- Node1&#45;&gt;Node22 -->
<g id="edge30" class="edge">
<title>Node1&#45;&gt;Node22</title>
<path fill="none" stroke="midnightblue" d="M1309.84,-126.16C1316.99,-116.68 1325.1,-105.92 1331.39,-97.58"/>
<polygon fill="midnightblue" stroke="midnightblue" points="1306.86,-124.3 1303.63,-134.4 1312.45,-128.52 1306.86,-124.3"/>
</g>
<!-- Node23 -->
<g id="node23" class="node">
<title>Node23</title>
<g id="a_node23"><a xlink:href="wifiGen__mld_8c.html" target="_top" xlink:title=" ">
<polygon fill="white" stroke="black" points="1429,-67.5 1429,-97.5 1533,-97.5 1533,-67.5 1429,-67.5"/>
<text text-anchor="start" x="1437" y="-85.5" font-family="Helvetica,sans-Serif" font-size="10.00">src/Plugin/wifiGen</text>
<text text-anchor="middle" x="1481" y="-74.5" font-family="Helvetica,sans-Serif" font-size="10.00">_mld.c</text>
</a>
</g>
</g>
<!-- Node1&#45;&gt;Node23 -->
<g id="edge32" class="edge">
<title>Node1&#45;&gt;Node23</title>
<path fill="none" stroke="midnightblue" d="M1343.35,-131.09C1373.7,-120.6 1411.85,-107.41 1440.29,-97.58"/>
<polygon fill="midnightblue" stroke="midnightblue" points="1342.1,-127.82 1333.79,-134.4 1344.39,-134.44 1342.1,-127.82"/>
</g>
<!-- Node24 -->
<g id="node24" class="node">
<title>Node24</title>
<g id="a_node24"><a xlink:href="wld__nl80211__api_8c.html" target="_top" xlink:title=" ">
<polygon fill="white" stroke="black" points="1551.5,-67.5 1551.5,-97.5 1688.5,-97.5 1688.5,-67.5 1551.5,-67.5"/>
<text text-anchor="start" x="1559.5" y="-85.5" font-family="Helvetica,sans-Serif" font-size="10.00">src/nl80211/wld_nl80211</text>
<text text-anchor="middle" x="1620" y="-74.5" font-family="Helvetica,sans-Serif" font-size="10.00">_api.c</text>
</a>
</g>
</g>
<!-- Node1&#45;&gt;Node24 -->
<g id="edge33" class="edge">
<title>Node1&#45;&gt;Node24</title>
<path fill="none" stroke="midnightblue" d="M1371.57,-132.88C1426.36,-121.99 1498.76,-107.6 1551.26,-97.16"/>
<polygon fill="midnightblue" stroke="midnightblue" points="1370.68,-129.49 1361.55,-134.87 1372.04,-136.36 1370.68,-129.49"/>
</g>
<!-- Node25 -->
<g id="node25" class="node">
<title>Node25</title>
<g id="a_node25"><a xlink:href="wld__nl80211__attr_8c.html" target="_top" xlink:title=" ">
<polygon fill="white" stroke="black" points="1706.5,-67.5 1706.5,-97.5 1843.5,-97.5 1843.5,-67.5 1706.5,-67.5"/>
<text text-anchor="start" x="1714.5" y="-85.5" font-family="Helvetica,sans-Serif" font-size="10.00">src/nl80211/wld_nl80211</text>
<text text-anchor="middle" x="1775" y="-74.5" font-family="Helvetica,sans-Serif" font-size="10.00">_attr.c</text>
</a>
</g>
</g>
<!-- Node1&#45;&gt;Node25 -->
<g id="edge34" class="edge">
<title>Node1&#45;&gt;Node25</title>
<path fill="none" stroke="midnightblue" d="M1371.58,-140.16C1453.32,-131.15 1584.93,-115.68 1698,-98 1700.69,-97.58 1703.43,-97.14 1706.19,-96.68"/>
<polygon fill="midnightblue" stroke="midnightblue" points="1371.17,-136.69 1361.62,-141.26 1371.94,-143.65 1371.17,-136.69"/>
</g>
<!-- Node26 -->
<g id="node26" class="node">
<title>Node26</title>
<g id="a_node26"><a xlink:href="test__wld__nl80211_8c.html" target="_top" xlink:title=" ">
<polygon fill="white" stroke="black" points="1862,-67.5 1862,-97.5 1984,-97.5 1984,-67.5 1862,-67.5"/>
<text text-anchor="start" x="1870" y="-85.5" font-family="Helvetica,sans-Serif" font-size="10.00">test/wld_nl80211/test</text>
<text text-anchor="middle" x="1923" y="-74.5" font-family="Helvetica,sans-Serif" font-size="10.00">_wld_nl80211.c</text>
</a>
</g>
</g>
<!-- Node1&#45;&gt;Node26 -->
<g id="edge35" class="edge">
<title>Node1&#45;&gt;Node26</title>
<path fill="none" stroke="midnightblue" d="M1372.06,-144.23C1480.83,-137.7 1682.51,-123.26 1853,-98 1855.95,-97.56 1858.96,-97.08 1861.99,-96.57"/>
<polygon fill="midnightblue" stroke="midnightblue" points="1371.61,-140.75 1361.83,-144.83 1372.02,-147.73 1371.61,-140.75"/>
</g>
<!-- Node3 -->
<g id="node3" class="node">
<title>Node3</title>
<g id="a_node3"><a xlink:href="wifiGen__eventHandlers_8c.html" target="_top" xlink:title=" ">
<polygon fill="white" stroke="black" points="664,-0.5 664,-30.5 768,-30.5 768,-0.5 664,-0.5"/>
<text text-anchor="start" x="672" y="-18.5" font-family="Helvetica,sans-Serif" font-size="10.00">src/Plugin/wifiGen</text>
<text text-anchor="middle" x="716" y="-7.5" font-family="Helvetica,sans-Serif" font-size="10.00">_eventHandlers.c</text>
</a>
</g>
</g>
<!-- Node2&#45;&gt;Node3 -->
<g id="edge2" class="edge">
<title>Node2&#45;&gt;Node3</title>
<path fill="none" stroke="midnightblue" d="M716,-57.11C716,-48.15 716,-38.32 716,-30.58"/>
<polygon fill="midnightblue" stroke="midnightblue" points="712.5,-57.4 716,-67.4 719.5,-57.4 712.5,-57.4"/>
</g>
<!-- Node4 -->
<g id="node4" class="node">
<title>Node4</title>
<g id="a_node4"><a xlink:href="wifiGen__fsm_8c.html" target="_top" xlink:title=" ">
<polygon fill="white" stroke="black" points="786,-0.5 786,-30.5 890,-30.5 890,-0.5 786,-0.5"/>
<text text-anchor="start" x="794" y="-18.5" font-family="Helvetica,sans-Serif" font-size="10.00">src/Plugin/wifiGen</text>
<text text-anchor="middle" x="838" y="-7.5" font-family="Helvetica,sans-Serif" font-size="10.00">_fsm.c</text>
</a>
</g>
</g>
<!-- Node2&#45;&gt;Node4 -->
<g id="edge3" class="edge">
<title>Node2&#45;&gt;Node4</title>
<path fill="none" stroke="midnightblue" d="M751.52,-62.57C770.71,-52.35 794,-39.94 811.58,-30.58"/>
<polygon fill="midnightblue" stroke="midnightblue" points="749.65,-59.6 742.47,-67.4 752.94,-65.78 749.65,-59.6"/>
</g>
<!-- Node5 -->
<g id="node5" class="node">
<title>Node5</title>
<g id="a_node5"><a xlink:href="wifiGen__vap_8c.html" target="_top" xlink:title=" ">
<polygon fill="white" stroke="black" points="908,-0.5 908,-30.5 1012,-30.5 1012,-0.5 908,-0.5"/>
<text text-anchor="start" x="916" y="-18.5" font-family="Helvetica,sans-Serif" font-size="10.00">src/Plugin/wifiGen</text>
<text text-anchor="middle" x="960" y="-7.5" font-family="Helvetica,sans-Serif" font-size="10.00">_vap.c</text>
</a>
</g>
</g>
<!-- Node2&#45;&gt;Node5 -->
<g id="edge4" class="edge">
<title>Node2&#45;&gt;Node5</title>
<path fill="none" stroke="midnightblue" d="M778.32,-64.9C818.42,-54.22 869.94,-40.49 907.87,-30.39"/>
<polygon fill="midnightblue" stroke="midnightblue" points="777.41,-61.52 768.64,-67.48 779.21,-68.28 777.41,-61.52"/>
</g>
<!-- Node6 -->
<g id="node6" class="node">
<title>Node6</title>
<g id="a_node6"><a xlink:href="wld__ap__nl80211_8c.html" target="_top" xlink:title=" ">
<polygon fill="white" stroke="black" points="136,-0.5 136,-30.5 246,-30.5 246,-0.5 136,-0.5"/>
<text text-anchor="start" x="144" y="-18.5" font-family="Helvetica,sans-Serif" font-size="10.00">src/nl80211/wld_ap</text>
<text text-anchor="middle" x="191" y="-7.5" font-family="Helvetica,sans-Serif" font-size="10.00">_nl80211.c</text>
</a>
</g>
</g>
<!-- Node2&#45;&gt;Node6 -->
<g id="edge5" class="edge">
<title>Node2&#45;&gt;Node6</title>
<path fill="none" stroke="midnightblue" d="M650.71,-76.7C561.09,-69.58 395.11,-54.47 255,-31 252.08,-30.51 249.09,-29.97 246.08,-29.4"/>
<polygon fill="midnightblue" stroke="midnightblue" points="650.48,-80.19 660.73,-77.49 651.03,-73.21 650.48,-80.19"/>
</g>
<!-- Node7 -->
<g id="node7" class="node">
<title>Node7</title>
<g id="a_node7"><a xlink:href="wld__rad__nl80211_8c.html" target="_top" xlink:title=" ">
<polygon fill="white" stroke="black" points="404,-0.5 404,-30.5 518,-30.5 518,-0.5 404,-0.5"/>
<text text-anchor="start" x="412" y="-18.5" font-family="Helvetica,sans-Serif" font-size="10.00">src/nl80211/wld_rad</text>
<text text-anchor="middle" x="461" y="-7.5" font-family="Helvetica,sans-Serif" font-size="10.00">_nl80211.c</text>
</a>
</g>
</g>
<!-- Node2&#45;&gt;Node7 -->
<g id="edge6" class="edge">
<title>Node2&#45;&gt;Node7</title>
<path fill="none" stroke="midnightblue" d="M651.21,-64.98C609.56,-54.37 556.02,-40.72 516.36,-30.61"/>
<polygon fill="midnightblue" stroke="midnightblue" points="650.43,-68.4 660.98,-67.48 652.16,-61.61 650.43,-68.4"/>
</g>
<!-- Node8 -->
<g id="node8" class="node">
<title>Node8</title>
<g id="a_node8"><a xlink:href="wld__accesspoint_8c.html" target="_top" xlink:title=" ">
<polygon fill="white" stroke="black" points="264,-6 264,-25 386,-25 386,-6 264,-6"/>
<text text-anchor="middle" x="325" y="-13" font-family="Helvetica,sans-Serif" font-size="10.00">src/wld_accesspoint.c</text>
</a>
</g>
</g>
<!-- Node2&#45;&gt;Node8 -->
<g id="edge7" class="edge">
<title>Node2&#45;&gt;Node8</title>
<path fill="none" stroke="midnightblue" d="M650.67,-72.16C585.7,-62.66 483.24,-47.07 395,-31 385.11,-29.2 374.47,-27.09 364.55,-25.04"/>
<polygon fill="midnightblue" stroke="midnightblue" points="650.37,-75.66 660.77,-73.64 651.38,-68.73 650.37,-75.66"/>
</g>
<!-- Node9&#45;&gt;Node7 -->
<g id="edge10" class="edge">
<title>Node9&#45;&gt;Node7</title>
<path fill="none" stroke="midnightblue" d="M964.48,-77.36C868.19,-70.73 682.96,-55.87 527,-31 524.1,-30.54 521.14,-30.03 518.16,-29.48"/>
<polygon fill="midnightblue" stroke="midnightblue" points="964.44,-80.87 974.65,-78.06 964.91,-73.88 964.44,-80.87"/>
</g>
<!-- Node10 -->
<g id="node10" class="node">
<title>Node10</title>
<g id="a_node10"><a xlink:href="wifiGen__ep_8c.html" target="_top" xlink:title=" ">
<polygon fill="white" stroke="black" points="1030.5,-6 1030.5,-25 1159.5,-25 1159.5,-6 1030.5,-6"/>
<text text-anchor="middle" x="1095" y="-13" font-family="Helvetica,sans-Serif" font-size="10.00">src/Plugin/wifiGen_ep.c</text>
</a>
</g>
</g>
<!-- Node9&#45;&gt;Node10 -->
<g id="edge9" class="edge">
<title>Node9&#45;&gt;Node10</title>
<path fill="none" stroke="midnightblue" d="M1051.5,-60C1063.37,-48.13 1077.45,-34.05 1086.31,-25.19"/>
<polygon fill="midnightblue" stroke="midnightblue" points="1048.7,-57.85 1044.1,-67.4 1053.65,-62.8 1048.7,-57.85"/>
</g>
<!-- Node11&#45;&gt;Node3 -->
<g id="edge14" class="edge">
<title>Node11&#45;&gt;Node3</title>
<path fill="none" stroke="midnightblue" d="M1093.31,-67.01C952.39,-44.26 913.54,-54.89 777,-31 774.1,-30.49 771.14,-29.93 768.16,-29.33"/>
<polygon fill="midnightblue" stroke="midnightblue" points="1092.76,-70.46 1103.19,-68.63 1093.89,-63.56 1092.76,-70.46"/>
</g>
<!-- Node11&#45;&gt;Node4 -->
<g id="edge15" class="edge">
<title>Node11&#45;&gt;Node4</title>
<path fill="none" stroke="midnightblue" d="M1093.33,-66.91C1005.96,-49.5 982.2,-48.56 899,-31 896.12,-30.39 893.18,-29.75 890.2,-29.09"/>
<polygon fill="midnightblue" stroke="midnightblue" points="1092.65,-70.34 1103.14,-68.88 1094.03,-63.48 1092.65,-70.34"/>
</g>
<!-- Node11&#45;&gt;Node5 -->
<g id="edge19" class="edge">
<title>Node11&#45;&gt;Node5</title>
<path fill="none" stroke="midnightblue" d="M1106.85,-64.23C1074.5,-53.71 1033.69,-40.45 1003.31,-30.58"/>
<polygon fill="midnightblue" stroke="midnightblue" points="1106.01,-67.63 1116.6,-67.4 1108.17,-60.98 1106.01,-67.63"/>
</g>
<!-- Node11&#45;&gt;Node7 -->
<g id="edge22" class="edge">
<title>Node11&#45;&gt;Node7</title>
<path fill="none" stroke="midnightblue" d="M1093.06,-67.04C842.16,-32.7 773.75,-65.73 527,-31 524.1,-30.59 521.13,-30.12 518.14,-29.61"/>
<polygon fill="midnightblue" stroke="midnightblue" points="1092.83,-70.54 1103.22,-68.45 1093.8,-63.6 1092.83,-70.54"/>
</g>
<!-- Node11&#45;&gt;Node10 -->
<g id="edge13" class="edge">
<title>Node11&#45;&gt;Node10</title>
<path fill="none" stroke="midnightblue" d="M1138.5,-60C1126.63,-48.13 1112.55,-34.05 1103.69,-25.19"/>
<polygon fill="midnightblue" stroke="midnightblue" points="1136.35,-62.8 1145.9,-67.4 1141.3,-57.85 1136.35,-62.8"/>
</g>
<!-- Node11&#45;&gt;Node12 -->
<g id="edge12" class="edge">
<title>Node11&#45;&gt;Node12</title>
<path fill="none" stroke="midnightblue" d="M1227.07,-67.53C1228.39,-67.34 1229.7,-67.17 1231,-67 1538.27,-27.9 1620.1,-72.87 1927,-31 1937.42,-29.58 1948.65,-27.33 1958.79,-25.03"/>
<polygon fill="midnightblue" stroke="midnightblue" points="1226.19,-64.12 1216.84,-69.11 1227.26,-71.04 1226.19,-64.12"/>
</g>
<!-- Node13 -->
<g id="node13" class="node">
<title>Node13</title>
<g id="a_node13"><a xlink:href="wifiGen__hapd_8c.html" target="_top" xlink:title=" ">
<polygon fill="white" stroke="black" points="1414,-0.5 1414,-30.5 1518,-30.5 1518,-0.5 1414,-0.5"/>
<text text-anchor="start" x="1422" y="-18.5" font-family="Helvetica,sans-Serif" font-size="10.00">src/Plugin/wifiGen</text>
<text text-anchor="middle" x="1466" y="-7.5" font-family="Helvetica,sans-Serif" font-size="10.00">_hapd.c</text>
</a>
</g>
</g>
<!-- Node11&#45;&gt;Node13 -->
<g id="edge16" class="edge">
<title>Node11&#45;&gt;Node13</title>
<path fill="none" stroke="midnightblue" d="M1226.51,-67.9C1292.98,-54.29 1387.71,-34.84 1405,-31 1407.87,-30.36 1410.81,-29.7 1413.78,-29.02"/>
<polygon fill="midnightblue" stroke="midnightblue" points="1225.61,-64.51 1216.52,-69.94 1227.01,-71.37 1225.61,-64.51"/>
</g>
<!-- Node14 -->
<g id="node14" class="node">
<title>Node14</title>
<g id="a_node14"><a xlink:href="wifiGen__rad_8c.html" target="_top" xlink:title=" ">
<polygon fill="white" stroke="black" points="1536,-0.5 1536,-30.5 1640,-30.5 1640,-0.5 1536,-0.5"/>
<text text-anchor="start" x="1544" y="-18.5" font-family="Helvetica,sans-Serif" font-size="10.00">src/Plugin/wifiGen</text>
<text text-anchor="middle" x="1588" y="-7.5" font-family="Helvetica,sans-Serif" font-size="10.00">_rad.c</text>
</a>
</g>
</g>
<!-- Node11&#45;&gt;Node14 -->
<g id="edge17" class="edge">
<title>Node11&#45;&gt;Node14</title>
<path fill="none" stroke="midnightblue" d="M1226.53,-67.75C1228.03,-67.49 1229.53,-67.24 1231,-67 1361.81,-45.72 1396.55,-54.36 1527,-31 1529.89,-30.48 1532.85,-29.91 1535.84,-29.31"/>
<polygon fill="midnightblue" stroke="midnightblue" points="1225.74,-64.33 1216.51,-69.53 1226.97,-71.22 1225.74,-64.33"/>
</g>
<!-- Node15 -->
<g id="node15" class="node">
<title>Node15</title>
<g id="a_node15"><a xlink:href="wifiGen__radIfMgt_8c.html" target="_top" xlink:title=" ">
<polygon fill="white" stroke="black" points="1658,-0.5 1658,-30.5 1762,-30.5 1762,-0.5 1658,-0.5"/>
<text text-anchor="start" x="1666" y="-18.5" font-family="Helvetica,sans-Serif" font-size="10.00">src/Plugin/wifiGen</text>
<text text-anchor="middle" x="1710" y="-7.5" font-family="Helvetica,sans-Serif" font-size="10.00">_radIfMgt.c</text>
</a>
</g>
</g>
<!-- Node11&#45;&gt;Node15 -->
<g id="edge18" class="edge">
<title>Node11&#45;&gt;Node15</title>
<path fill="none" stroke="midnightblue" d="M1227.08,-67.59C1228.4,-67.38 1229.7,-67.19 1231,-67 1415.54,-40.3 1464.91,-60.64 1649,-31 1651.9,-30.53 1654.87,-30 1657.86,-29.43"/>
<polygon fill="midnightblue" stroke="midnightblue" points="1226.16,-64.19 1216.86,-69.28 1227.3,-71.1 1226.16,-64.19"/>
</g>
<!-- Node16 -->
<g id="node16" class="node">
<title>Node16</title>
<g id="a_node16"><a xlink:href="wld__ep__nl80211_8c.html" target="_top" xlink:title=" ">
<polygon fill="white" stroke="black" points="536,-0.5 536,-30.5 646,-30.5 646,-0.5 536,-0.5"/>
<text text-anchor="start" x="544" y="-18.5" font-family="Helvetica,sans-Serif" font-size="10.00">src/nl80211/wld_ep</text>
<text text-anchor="middle" x="591" y="-7.5" font-family="Helvetica,sans-Serif" font-size="10.00">_nl80211.c</text>
</a>
</g>
</g>
<!-- Node11&#45;&gt;Node16 -->
<g id="edge20" class="edge">
<title>Node11&#45;&gt;Node16</title>
<path fill="none" stroke="midnightblue" d="M1093.23,-67.04C898.64,-38.67 845.29,-60.21 655,-31 652.07,-30.55 649.08,-30.04 646.06,-29.49"/>
<polygon fill="midnightblue" stroke="midnightblue" points="1092.8,-70.51 1103.21,-68.52 1093.83,-63.59 1092.8,-70.51"/>
</g>
<!-- Node17 -->
<g id="node17" class="node">
<title>Node17</title>
<g id="a_node17"><a xlink:href="wld__nl80211__scan_8c.html" target="_top" xlink:title=" ">
<polygon fill="white" stroke="black" points="1780.5,-0.5 1780.5,-30.5 1917.5,-30.5 1917.5,-0.5 1780.5,-0.5"/>
<text text-anchor="start" x="1788.5" y="-18.5" font-family="Helvetica,sans-Serif" font-size="10.00">src/nl80211/wld_nl80211</text>
<text text-anchor="middle" x="1849" y="-7.5" font-family="Helvetica,sans-Serif" font-size="10.00">_scan.c</text>
</a>
</g>
</g>
<!-- Node11&#45;&gt;Node17 -->
<g id="edge21" class="edge">
<title>Node11&#45;&gt;Node17</title>
<path fill="none" stroke="midnightblue" d="M1227.08,-67.55C1228.39,-67.36 1229.7,-67.17 1231,-67 1469.38,-34.86 1532.35,-61.03 1771,-31 1774.01,-30.62 1777.07,-30.2 1780.17,-29.75"/>
<polygon fill="midnightblue" stroke="midnightblue" points="1226.17,-64.15 1216.85,-69.19 1227.28,-71.06 1226.17,-64.15"/>
</g>
<!-- Node18 -->
<g id="node18" class="node">
<title>Node18</title>
<g id="a_node18"><a xlink:href="wld__assocdev_8c.html" target="_top" xlink:title=" ">
<polygon fill="white" stroke="black" points="1178,-6 1178,-25 1288,-25 1288,-6 1178,-6"/>
<text text-anchor="middle" x="1233" y="-13" font-family="Helvetica,sans-Serif" font-size="10.00">src/wld_assocdev.c</text>
</a>
</g>
</g>
<!-- Node11&#45;&gt;Node18 -->
<g id="edge23" class="edge">
<title>Node11&#45;&gt;Node18</title>
<path fill="none" stroke="midnightblue" d="M1183.39,-60.67C1196.87,-48.67 1213.1,-34.22 1223.24,-25.19"/>
<polygon fill="midnightblue" stroke="midnightblue" points="1180.98,-58.13 1175.84,-67.4 1185.64,-63.36 1180.98,-58.13"/>
</g>
<!-- Node19 -->
<g id="node19" class="node">
<title>Node19</title>
<g id="a_node19"><a xlink:href="wld__radio_8c.html" target="_top" xlink:title=" ">
<polygon fill="white" stroke="black" points="1306.5,-6 1306.5,-25 1395.5,-25 1395.5,-6 1306.5,-6"/>
<text text-anchor="middle" x="1351" y="-13" font-family="Helvetica,sans-Serif" font-size="10.00">src/wld_radio.c</text>
</a>
</g>
</g>
<!-- Node11&#45;&gt;Node19 -->
<g id="edge24" class="edge">
<title>Node11&#45;&gt;Node19</title>
<path fill="none" stroke="midnightblue" d="M1211.11,-64.11C1248.26,-51.46 1296.95,-34.89 1326,-25.01"/>
<polygon fill="midnightblue" stroke="midnightblue" points="1209.78,-60.86 1201.44,-67.4 1212.04,-67.49 1209.78,-60.86"/>
</g>
<!-- Node20&#45;&gt;Node6 -->
<g id="edge26" class="edge">
<title>Node20&#45;&gt;Node6</title>
<path fill="none" stroke="midnightblue" d="M393,-65.13C347.67,-54.22 288.85,-40.06 246.38,-29.83"/>
<polygon fill="midnightblue" stroke="midnightblue" points="392.2,-68.54 402.75,-67.48 393.84,-61.73 392.2,-68.54"/>
</g>
<!-- Node20&#45;&gt;Node7 -->
<g id="edge28" class="edge">
<title>Node20&#45;&gt;Node7</title>
<path fill="none" stroke="midnightblue" d="M461,-57.11C461,-48.15 461,-38.32 461,-30.58"/>
<polygon fill="midnightblue" stroke="midnightblue" points="457.5,-57.4 461,-67.4 464.5,-57.4 457.5,-57.4"/>
</g>
<!-- Node20&#45;&gt;Node16 -->
<g id="edge27" class="edge">
<title>Node20&#45;&gt;Node16</title>
<path fill="none" stroke="midnightblue" d="M498.29,-62.85C518.85,-52.58 543.95,-40.03 562.85,-30.58"/>
<polygon fill="midnightblue" stroke="midnightblue" points="496.59,-59.79 489.21,-67.4 499.72,-66.05 496.59,-59.79"/>
</g>
<!-- Node21 -->
<g id="node21" class="node">
<title>Node21</title>
<g id="a_node21"><a xlink:href="wld__ssid__nl80211_8c.html" target="_top" xlink:title=" ">
<polygon fill="white" stroke="black" points="0,-0.5 0,-30.5 118,-30.5 118,-0.5 0,-0.5"/>
<text text-anchor="start" x="8" y="-18.5" font-family="Helvetica,sans-Serif" font-size="10.00">src/nl80211/wld_ssid</text>
<text text-anchor="middle" x="59" y="-7.5" font-family="Helvetica,sans-Serif" font-size="10.00">_nl80211.c</text>
</a>
</g>
</g>
<!-- Node20&#45;&gt;Node21 -->
<g id="edge29" class="edge">
<title>Node20&#45;&gt;Node21</title>
<path fill="none" stroke="midnightblue" d="M381.53,-70.85C313.72,-61.44 213.71,-46.79 127,-31 124.15,-30.48 121.24,-29.93 118.3,-29.36"/>
<polygon fill="midnightblue" stroke="midnightblue" points="381.33,-74.36 391.71,-72.26 382.29,-67.42 381.33,-74.36"/>
</g>
</g>
</svg>
