<?xml version="1.0" encoding="UTF-8" standalone="no"?>
<!DOCTYPE svg PUBLIC "-//W3C//DTD SVG 1.1//EN"
 "http://www.w3.org/Graphics/SVG/1.1/DTD/svg11.dtd">
<!-- Generated by graphviz version 2.43.0 (0)
 -->
<!-- Title: wld_linuxIfUtils_setMac Pages: 1 -->
<svg width="532pt" height="66pt"
 viewBox="0.00 0.00 532.00 66.00" xmlns="http://www.w3.org/2000/svg" xmlns:xlink="http://www.w3.org/1999/xlink">
<g id="graph0" class="graph" transform="scale(1 1) rotate(0) translate(4 62)">
<title>wld_linuxIfUtils_setMac</title>
<polygon fill="white" stroke="transparent" points="-4,4 -4,-62 528,-62 528,4 -4,4"/>
<!-- Node1 -->
<g id="node1" class="node">
<title>Node1</title>
<g id="a_node1"><a xlink:title=" ">
<polygon fill="#bfbfbf" stroke="black" points="391,-19.5 391,-38.5 524,-38.5 524,-19.5 391,-19.5"/>
<text text-anchor="middle" x="457.5" y="-26.5" font-family="Helvetica,sans-Serif" font-size="10.00">wld_linuxIfUtils_setMac</text>
</a>
</g>
</g>
<!-- Node2 -->
<g id="node2" class="node">
<title>Node2</title>
<g id="a_node2"><a xlink:href="wld__linuxIfUtils_8c.html#a551d23aff6a09cd72e119ea8b8604c8b" target="_top" xlink:title=" ">
<polygon fill="white" stroke="black" points="204.5,-38.5 204.5,-57.5 353.5,-57.5 353.5,-38.5 204.5,-38.5"/>
<text text-anchor="middle" x="279" y="-45.5" font-family="Helvetica,sans-Serif" font-size="10.00">wld_linuxIfUtils_setMacExt</text>
</a>
</g>
</g>
<!-- Node1&#45;&gt;Node2 -->
<g id="edge1" class="edge">
<title>Node1&#45;&gt;Node2</title>
<path fill="none" stroke="midnightblue" d="M380.77,-37.15C371.83,-38.11 362.71,-39.1 353.79,-40.06"/>
<polygon fill="midnightblue" stroke="midnightblue" points="381.21,-40.63 390.78,-36.07 380.46,-33.67 381.21,-40.63"/>
</g>
<!-- Node3 -->
<g id="node3" class="node">
<title>Node3</title>
<g id="a_node3"><a xlink:href="wld__linuxIfUtils_8c.html#a959a9e146e5060f68af048061372b919" target="_top" xlink:title=" ">
<polygon fill="white" stroke="black" points="203,-0.5 203,-19.5 355,-19.5 355,-0.5 203,-0.5"/>
<text text-anchor="middle" x="279" y="-7.5" font-family="Helvetica,sans-Serif" font-size="10.00">wld_linuxIfUtils_updateMac</text>
</a>
</g>
</g>
<!-- Node1&#45;&gt;Node3 -->
<g id="edge2" class="edge">
<title>Node1&#45;&gt;Node3</title>
<path fill="none" stroke="midnightblue" d="M380.63,-20.83C372.23,-19.93 363.68,-19.01 355.29,-18.11"/>
<polygon fill="midnightblue" stroke="midnightblue" points="380.46,-24.33 390.78,-21.93 381.21,-17.37 380.46,-24.33"/>
</g>
<!-- Node4 -->
<g id="node4" class="node">
<title>Node4</title>
<g id="a_node4"><a xlink:href="wld__linuxIfUtils_8c.html#a57dc83a1df6fff548df049df496994a6" target="_top" xlink:title=" ">
<polygon fill="white" stroke="black" points="0,-0.5 0,-19.5 167,-19.5 167,-0.5 0,-0.5"/>
<text text-anchor="middle" x="83.5" y="-7.5" font-family="Helvetica,sans-Serif" font-size="10.00">wld_linuxIfUtils_updateMacExt</text>
</a>
</g>
</g>
<!-- Node3&#45;&gt;Node4 -->
<g id="edge3" class="edge">
<title>Node3&#45;&gt;Node4</title>
<path fill="none" stroke="midnightblue" d="M192.68,-10C184.24,-10 175.67,-10 167.25,-10"/>
<polygon fill="midnightblue" stroke="midnightblue" points="192.91,-13.5 202.91,-10 192.91,-6.5 192.91,-13.5"/>
</g>
</g>
</svg>
