<?xml version="1.0" encoding="UTF-8" standalone="no"?>
<!DOCTYPE svg PUBLIC "-//W3C//DTD SVG 1.1//EN"
 "http://www.w3.org/Graphics/SVG/1.1/DTD/svg11.dtd">
<!-- Generated by graphviz version 2.43.0 (0)
 -->
<!-- Title: src/EpMgt/wld_epMgmt.c Pages: 1 -->
<svg width="5511pt" height="308pt"
 viewBox="0.00 0.00 5510.66 308.00" xmlns="http://www.w3.org/2000/svg" xmlns:xlink="http://www.w3.org/1999/xlink">
<g id="graph0" class="graph" transform="scale(1 1) rotate(0) translate(4 304)">
<title>src/EpMgt/wld_epMgmt.c</title>
<polygon fill="white" stroke="transparent" points="-4,4 -4,-304 5506.66,-304 5506.66,4 -4,4"/>
<!-- Node1 -->
<g id="node1" class="node">
<title>Node1</title>
<g id="a_node1"><a xlink:title=" ">
<polygon fill="#bfbfbf" stroke="black" points="2296.5,-280.5 2296.5,-299.5 2435.5,-299.5 2435.5,-280.5 2296.5,-280.5"/>
<text text-anchor="middle" x="2366" y="-287.5" font-family="Helvetica,sans-Serif" font-size="10.00">src/EpMgt/wld_epMgmt.c</text>
</a>
</g>
</g>
<!-- Node2 -->
<g id="node2" class="node">
<title>Node2</title>
<g id="a_node2"><a xlink:title=" ">
<polygon fill="white" stroke="#bfbfbf" points="128,-56.5 128,-75.5 190,-75.5 190,-56.5 128,-56.5"/>
<text text-anchor="middle" x="159" y="-63.5" font-family="Helvetica,sans-Serif" font-size="10.00">stdbool.h</text>
</a>
</g>
</g>
<!-- Node1&#45;&gt;Node2 -->
<g id="edge1" class="edge">
<title>Node1&#45;&gt;Node2</title>
<path fill="none" stroke="midnightblue" d="M2296.31,-286.74C1926.79,-274.44 210.58,-213.08 135,-132 122.5,-118.59 133.38,-98.12 144.24,-83.74"/>
<polygon fill="midnightblue" stroke="midnightblue" points="147.19,-85.66 150.79,-75.69 141.76,-81.24 147.19,-85.66"/>
</g>
<!-- Node3 -->
<g id="node3" class="node">
<title>Node3</title>
<g id="a_node3"><a xlink:href="wld_8h.html" target="_top" xlink:title=" ">
<polygon fill="white" stroke="red" points="2477.5,-168.5 2477.5,-187.5 2520.5,-187.5 2520.5,-168.5 2477.5,-168.5"/>
<text text-anchor="middle" x="2499" y="-175.5" font-family="Helvetica,sans-Serif" font-size="10.00">wld.h</text>
</a>
</g>
</g>
<!-- Node1&#45;&gt;Node3 -->
<g id="edge2" class="edge">
<title>Node1&#45;&gt;Node3</title>
<path fill="none" stroke="midnightblue" d="M2359.16,-280.13C2349.73,-266.73 2335.26,-241.09 2348,-224 2375.34,-187.33 2431.38,-179.36 2466.97,-178.25"/>
<polygon fill="midnightblue" stroke="midnightblue" points="2467.35,-181.75 2477.3,-178.1 2467.25,-174.75 2467.35,-181.75"/>
</g>
<!-- Node5 -->
<g id="node5" class="node">
<title>Node5</title>
<g id="a_node5"><a xlink:title=" ">
<polygon fill="white" stroke="#bfbfbf" points="0,-56.5 0,-75.5 110,-75.5 110,-56.5 0,-56.5"/>
<text text-anchor="middle" x="55" y="-63.5" font-family="Helvetica,sans-Serif" font-size="10.00">swl/swl_common.h</text>
</a>
</g>
</g>
<!-- Node1&#45;&gt;Node5 -->
<g id="edge64" class="edge">
<title>Node1&#45;&gt;Node5</title>
<path fill="none" stroke="midnightblue" d="M2296.47,-288.69C1980.87,-286.82 681.47,-273.93 285,-188 211.78,-172.13 190.26,-170.52 126,-132 103.95,-118.78 82.77,-97.99 69.37,-83.49"/>
<polygon fill="midnightblue" stroke="midnightblue" points="71.72,-80.87 62.43,-75.78 66.52,-85.55 71.72,-80.87"/>
</g>
<!-- Node75 -->
<g id="node48" class="node">
<title>Node75</title>
<g id="a_node48"><a xlink:href="wld__endpoint_8h.html" target="_top" xlink:title=" ">
<polygon fill="white" stroke="red" points="2357.5,-224.5 2357.5,-243.5 2448.5,-243.5 2448.5,-224.5 2357.5,-224.5"/>
<text text-anchor="middle" x="2403" y="-231.5" font-family="Helvetica,sans-Serif" font-size="10.00">wld_endpoint.h</text>
</a>
</g>
</g>
<!-- Node1&#45;&gt;Node75 -->
<g id="edge60" class="edge">
<title>Node1&#45;&gt;Node75</title>
<path fill="none" stroke="midnightblue" d="M2372.11,-280.08C2377.28,-272.53 2384.85,-261.49 2391.19,-252.23"/>
<polygon fill="midnightblue" stroke="midnightblue" points="2394.24,-253.98 2397,-243.75 2388.46,-250.02 2394.24,-253.98"/>
</g>
<!-- Node77 -->
<g id="node49" class="node">
<title>Node77</title>
<g id="a_node49"><a xlink:href="wld__util_8h.html" target="_top" xlink:title=" ">
<polygon fill="white" stroke="black" points="2467,-224.5 2467,-243.5 2531,-243.5 2531,-224.5 2467,-224.5"/>
<text text-anchor="middle" x="2499" y="-231.5" font-family="Helvetica,sans-Serif" font-size="10.00">wld_util.h</text>
</a>
</g>
</g>
<!-- Node1&#45;&gt;Node77 -->
<g id="edge62" class="edge">
<title>Node1&#45;&gt;Node77</title>
<path fill="none" stroke="midnightblue" d="M2387.07,-280.44C2409.06,-271.52 2443.73,-257.44 2468.66,-247.32"/>
<polygon fill="midnightblue" stroke="midnightblue" points="2470.08,-250.52 2478.02,-243.52 2467.44,-244.04 2470.08,-250.52"/>
</g>
<!-- Node78 -->
<g id="node50" class="node">
<title>Node78</title>
<g id="a_node50"><a xlink:title=" ">
<polygon fill="white" stroke="#bfbfbf" points="2549.5,-224.5 2549.5,-243.5 2634.5,-243.5 2634.5,-224.5 2549.5,-224.5"/>
<text text-anchor="middle" x="2592" y="-231.5" font-family="Helvetica,sans-Serif" font-size="10.00">swl/swl_hex.h</text>
</a>
</g>
</g>
<!-- Node1&#45;&gt;Node78 -->
<g id="edge65" class="edge">
<title>Node1&#45;&gt;Node78</title>
<path fill="none" stroke="midnightblue" d="M2401.81,-280.44C2440.99,-271.08 2503.88,-256.06 2546.52,-245.87"/>
<polygon fill="midnightblue" stroke="midnightblue" points="2547.44,-249.24 2556.36,-243.52 2545.82,-242.44 2547.44,-249.24"/>
</g>
<!-- Node3&#45;&gt;Node2 -->
<g id="edge3" class="edge">
<title>Node3&#45;&gt;Node2</title>
<path fill="none" stroke="midnightblue" d="M2477.25,-177.01C2242.65,-177.03 188.18,-176.02 145,-132 132.8,-119.56 139.85,-99.2 147.7,-84.57"/>
<polygon fill="midnightblue" stroke="midnightblue" points="150.72,-86.33 152.77,-75.93 144.69,-82.78 150.72,-86.33"/>
</g>
<!-- Node4 -->
<g id="node4" class="node">
<title>Node4</title>
<g id="a_node4"><a xlink:title=" ">
<polygon fill="white" stroke="#bfbfbf" points="3029.5,-0.5 3029.5,-19.5 3082.5,-19.5 3082.5,-0.5 3029.5,-0.5"/>
<text text-anchor="middle" x="3056" y="-7.5" font-family="Helvetica,sans-Serif" font-size="10.00">stdint.h</text>
</a>
</g>
</g>
<!-- Node3&#45;&gt;Node4 -->
<g id="edge4" class="edge">
<title>Node3&#45;&gt;Node4</title>
<path fill="none" stroke="midnightblue" d="M2520.78,-176.88C2790.28,-175.42 5470.24,-160.18 5498,-132 5504.24,-125.67 5504.15,-118.41 5498,-112 5410.99,-21.32 3393.02,-11.98 3093.12,-11.09"/>
<polygon fill="midnightblue" stroke="midnightblue" points="3092.81,-7.59 3082.8,-11.06 3092.79,-14.59 3092.81,-7.59"/>
</g>
<!-- Node3&#45;&gt;Node5 -->
<g id="edge5" class="edge">
<title>Node3&#45;&gt;Node5</title>
<path fill="none" stroke="midnightblue" d="M2477.16,-176.99C2245.76,-176.86 251.19,-174.5 135,-132 108.09,-122.16 83.55,-99.21 68.94,-83.39"/>
<polygon fill="midnightblue" stroke="midnightblue" points="71.51,-81.01 62.25,-75.88 66.29,-85.67 71.51,-81.01"/>
</g>
<!-- Node6 -->
<g id="node6" class="node">
<title>Node6</title>
<g id="a_node6"><a xlink:title=" ">
<polygon fill="white" stroke="#bfbfbf" points="718,-112.5 718,-131.5 854,-131.5 854,-112.5 718,-112.5"/>
<text text-anchor="middle" x="786" y="-119.5" font-family="Helvetica,sans-Serif" font-size="10.00">swla/swla_commonLib.h</text>
</a>
</g>
</g>
<!-- Node3&#45;&gt;Node6 -->
<g id="edge6" class="edge">
<title>Node3&#45;&gt;Node6</title>
<path fill="none" stroke="midnightblue" d="M2477.29,-177.13C2335.87,-177.83 1530.93,-179.51 864.69,-132.05"/>
<polygon fill="midnightblue" stroke="midnightblue" points="864.63,-128.54 854.4,-131.31 864.13,-135.52 864.63,-128.54"/>
</g>
<!-- Node7 -->
<g id="node7" class="node">
<title>Node7</title>
<g id="a_node7"><a xlink:title=" ">
<polygon fill="white" stroke="#bfbfbf" points="872,-112.5 872,-131.5 960,-131.5 960,-112.5 872,-112.5"/>
<text text-anchor="middle" x="916" y="-119.5" font-family="Helvetica,sans-Serif" font-size="10.00">swl/swl_uuid.h</text>
</a>
</g>
</g>
<!-- Node3&#45;&gt;Node7 -->
<g id="edge7" class="edge">
<title>Node3&#45;&gt;Node7</title>
<path fill="none" stroke="midnightblue" d="M2477.39,-176.78C2316.41,-175.06 1301.67,-163.13 970.26,-131.95"/>
<polygon fill="midnightblue" stroke="midnightblue" points="970.48,-128.45 960.18,-130.97 969.8,-135.42 970.48,-128.45"/>
</g>
<!-- Node8 -->
<g id="node8" class="node">
<title>Node8</title>
<g id="a_node8"><a xlink:title=" ">
<polygon fill="white" stroke="#bfbfbf" points="978,-112.5 978,-131.5 1130,-131.5 1130,-112.5 978,-112.5"/>
<text text-anchor="middle" x="1054" y="-119.5" font-family="Helvetica,sans-Serif" font-size="10.00">swla/swla_radioStandards.h</text>
</a>
</g>
</g>
<!-- Node3&#45;&gt;Node8 -->
<g id="edge8" class="edge">
<title>Node3&#45;&gt;Node8</title>
<path fill="none" stroke="midnightblue" d="M2477.38,-176.87C2350.56,-176 1690.36,-169.77 1140.55,-132.06"/>
<polygon fill="midnightblue" stroke="midnightblue" points="1140.65,-128.55 1130.43,-131.36 1140.17,-135.54 1140.65,-128.55"/>
</g>
<!-- Node9 -->
<g id="node9" class="node">
<title>Node9</title>
<g id="a_node9"><a xlink:title=" ">
<polygon fill="white" stroke="#bfbfbf" points="421.5,-0.5 421.5,-19.5 522.5,-19.5 522.5,-0.5 421.5,-0.5"/>
<text text-anchor="middle" x="472" y="-7.5" font-family="Helvetica,sans-Serif" font-size="10.00">swla/swla_time.h</text>
</a>
</g>
</g>
<!-- Node3&#45;&gt;Node9 -->
<g id="edge9" class="edge">
<title>Node3&#45;&gt;Node9</title>
<path fill="none" stroke="midnightblue" d="M2477.25,-176.9C2262.57,-175.87 530.39,-166.46 491,-132 462.15,-106.76 464.51,-57.08 468.43,-29.88"/>
<polygon fill="midnightblue" stroke="midnightblue" points="471.93,-30.18 470.12,-19.74 465.02,-29.03 471.93,-30.18"/>
</g>
<!-- Node10 -->
<g id="node10" class="node">
<title>Node10</title>
<g id="a_node10"><a xlink:title=" ">
<polygon fill="white" stroke="#bfbfbf" points="1148.5,-112.5 1148.5,-131.5 1277.5,-131.5 1277.5,-112.5 1148.5,-112.5"/>
<text text-anchor="middle" x="1213" y="-119.5" font-family="Helvetica,sans-Serif" font-size="10.00">swla/swla_time_spec.h</text>
</a>
</g>
</g>
<!-- Node3&#45;&gt;Node10 -->
<g id="edge10" class="edge">
<title>Node3&#45;&gt;Node10</title>
<path fill="none" stroke="midnightblue" d="M2477.44,-176.87C2359.03,-176.05 1775.73,-170.17 1287.61,-131.97"/>
<polygon fill="midnightblue" stroke="midnightblue" points="1287.79,-128.47 1277.54,-131.17 1287.24,-135.45 1287.79,-128.47"/>
</g>
<!-- Node11 -->
<g id="node11" class="node">
<title>Node11</title>
<g id="a_node11"><a xlink:title=" ">
<polygon fill="white" stroke="#bfbfbf" points="1296,-112.5 1296,-131.5 1390,-131.5 1390,-112.5 1296,-112.5"/>
<text text-anchor="middle" x="1343" y="-119.5" font-family="Helvetica,sans-Serif" font-size="10.00">swla/swla_oui.h</text>
</a>
</g>
</g>
<!-- Node3&#45;&gt;Node11 -->
<g id="edge11" class="edge">
<title>Node3&#45;&gt;Node11</title>
<path fill="none" stroke="midnightblue" d="M2477.22,-177.07C2364.9,-177.21 1839.68,-175.49 1400.04,-131.97"/>
<polygon fill="midnightblue" stroke="midnightblue" points="1400.3,-128.48 1390,-130.97 1399.6,-135.44 1400.3,-128.48"/>
</g>
<!-- Node12 -->
<g id="node12" class="node">
<title>Node12</title>
<g id="a_node12"><a xlink:title=" ">
<polygon fill="white" stroke="#bfbfbf" points="1408,-112.5 1408,-131.5 1536,-131.5 1536,-112.5 1408,-112.5"/>
<text text-anchor="middle" x="1472" y="-119.5" font-family="Helvetica,sans-Serif" font-size="10.00">swla/swla_delayExec.h</text>
</a>
</g>
</g>
<!-- Node3&#45;&gt;Node12 -->
<g id="edge12" class="edge">
<title>Node3&#45;&gt;Node12</title>
<path fill="none" stroke="midnightblue" d="M2477.47,-176.59C2374.9,-174.49 1925.55,-163.9 1546.14,-132.03"/>
<polygon fill="midnightblue" stroke="midnightblue" points="1546.33,-128.53 1536.07,-131.18 1545.73,-135.51 1546.33,-128.53"/>
</g>
<!-- Node13 -->
<g id="node13" class="node">
<title>Node13</title>
<g id="a_node13"><a xlink:title=" ">
<polygon fill="white" stroke="#bfbfbf" points="1554.5,-112.5 1554.5,-131.5 1673.5,-131.5 1673.5,-112.5 1554.5,-112.5"/>
<text text-anchor="middle" x="1614" y="-119.5" font-family="Helvetica,sans-Serif" font-size="10.00">swla/swla_function.h</text>
</a>
</g>
</g>
<!-- Node3&#45;&gt;Node13 -->
<g id="edge13" class="edge">
<title>Node3&#45;&gt;Node13</title>
<path fill="none" stroke="midnightblue" d="M2477.5,-176.42C2384.22,-173.78 2005.29,-161.76 1683.65,-132.09"/>
<polygon fill="midnightblue" stroke="midnightblue" points="1683.96,-128.6 1673.67,-131.16 1683.31,-135.57 1683.96,-128.6"/>
</g>
<!-- Node14 -->
<g id="node14" class="node">
<title>Node14</title>
<g id="a_node14"><a xlink:title=" ">
<polygon fill="white" stroke="#bfbfbf" points="1691.5,-112.5 1691.5,-131.5 1832.5,-131.5 1832.5,-112.5 1691.5,-112.5"/>
<text text-anchor="middle" x="1762" y="-119.5" font-family="Helvetica,sans-Serif" font-size="10.00">swl/swl_usp_cmdStatus.h</text>
</a>
</g>
</g>
<!-- Node3&#45;&gt;Node14 -->
<g id="edge14" class="edge">
<title>Node3&#45;&gt;Node14</title>
<path fill="none" stroke="midnightblue" d="M2477.42,-175.87C2395.98,-171.51 2099.33,-155 1842.91,-132.04"/>
<polygon fill="midnightblue" stroke="midnightblue" points="1842.93,-128.53 1832.65,-131.12 1842.3,-135.5 1842.93,-128.53"/>
</g>
<!-- Node15 -->
<g id="node15" class="node">
<title>Node15</title>
<g id="a_node15"><a xlink:title=" ">
<polygon fill="white" stroke="#bfbfbf" points="1851,-112.5 1851,-131.5 1937,-131.5 1937,-112.5 1851,-112.5"/>
<text text-anchor="middle" x="1894" y="-119.5" font-family="Helvetica,sans-Serif" font-size="10.00">swl/swl_wps.h</text>
</a>
</g>
</g>
<!-- Node3&#45;&gt;Node15 -->
<g id="edge15" class="edge">
<title>Node3&#45;&gt;Node15</title>
<path fill="none" stroke="midnightblue" d="M2477.32,-175.94C2404.19,-172.22 2159.73,-158.58 1947.18,-132.04"/>
<polygon fill="midnightblue" stroke="midnightblue" points="1947.44,-128.54 1937.09,-130.77 1946.57,-135.49 1947.44,-128.54"/>
</g>
<!-- Node16 -->
<g id="node16" class="node">
<title>Node16</title>
<g id="a_node16"><a xlink:title=" ">
<polygon fill="white" stroke="#bfbfbf" points="1955,-112.5 1955,-131.5 2059,-131.5 2059,-112.5 1955,-112.5"/>
<text text-anchor="middle" x="2007" y="-119.5" font-family="Helvetica,sans-Serif" font-size="10.00">swl/swl_security.h</text>
</a>
</g>
</g>
<!-- Node3&#45;&gt;Node16 -->
<g id="edge16" class="edge">
<title>Node3&#45;&gt;Node16</title>
<path fill="none" stroke="midnightblue" d="M2477.44,-175.08C2415.65,-169.49 2232.48,-152.46 2069.44,-132.13"/>
<polygon fill="midnightblue" stroke="midnightblue" points="2069.58,-128.63 2059.22,-130.85 2068.71,-135.57 2069.58,-128.63"/>
</g>
<!-- Node17 -->
<g id="node17" class="node">
<title>Node17</title>
<g id="a_node17"><a xlink:title=" ">
<polygon fill="white" stroke="#bfbfbf" points="2077.5,-112.5 2077.5,-131.5 2160.5,-131.5 2160.5,-112.5 2077.5,-112.5"/>
<text text-anchor="middle" x="2119" y="-119.5" font-family="Helvetica,sans-Serif" font-size="10.00">amxc/amxc.h</text>
</a>
</g>
</g>
<!-- Node3&#45;&gt;Node17 -->
<g id="edge17" class="edge">
<title>Node3&#45;&gt;Node17</title>
<path fill="none" stroke="midnightblue" d="M2477.4,-174.34C2426.14,-167.96 2292.9,-151.03 2170.63,-132.05"/>
<polygon fill="midnightblue" stroke="midnightblue" points="2171.15,-128.58 2160.73,-130.5 2170.07,-135.5 2171.15,-128.58"/>
</g>
<!-- Node18 -->
<g id="node18" class="node">
<title>Node18</title>
<g id="a_node18"><a xlink:title=" ">
<polygon fill="white" stroke="#bfbfbf" points="2179,-112.5 2179,-131.5 2263,-131.5 2263,-112.5 2179,-112.5"/>
<text text-anchor="middle" x="2221" y="-119.5" font-family="Helvetica,sans-Serif" font-size="10.00">amxp/amxp.h</text>
</a>
</g>
</g>
<!-- Node3&#45;&gt;Node18 -->
<g id="edge18" class="edge">
<title>Node3&#45;&gt;Node18</title>
<path fill="none" stroke="midnightblue" d="M2477.19,-172.76C2433.54,-164.28 2334.38,-145.02 2273.03,-133.11"/>
<polygon fill="midnightblue" stroke="midnightblue" points="2273.63,-129.66 2263.15,-131.19 2272.3,-136.53 2273.63,-129.66"/>
</g>
<!-- Node19 -->
<g id="node19" class="node">
<title>Node19</title>
<g id="a_node19"><a xlink:title=" ">
<polygon fill="white" stroke="#bfbfbf" points="2281,-112.5 2281,-131.5 2421,-131.5 2421,-112.5 2281,-112.5"/>
<text text-anchor="middle" x="2351" y="-119.5" font-family="Helvetica,sans-Serif" font-size="10.00">amxd/amxd_parameter.h</text>
</a>
</g>
</g>
<!-- Node3&#45;&gt;Node19 -->
<g id="edge19" class="edge">
<title>Node3&#45;&gt;Node19</title>
<path fill="none" stroke="midnightblue" d="M2477.48,-169.15C2452.95,-160.2 2412.58,-145.47 2384.05,-135.06"/>
<polygon fill="midnightblue" stroke="midnightblue" points="2385.1,-131.72 2374.5,-131.58 2382.7,-138.29 2385.1,-131.72"/>
</g>
<!-- Node20 -->
<g id="node20" class="node">
<title>Node20</title>
<g id="a_node20"><a xlink:title=" ">
<polygon fill="white" stroke="#bfbfbf" points="2439.5,-112.5 2439.5,-131.5 2558.5,-131.5 2558.5,-112.5 2439.5,-112.5"/>
<text text-anchor="middle" x="2499" y="-119.5" font-family="Helvetica,sans-Serif" font-size="10.00">amxd/amxd_action.h</text>
</a>
</g>
</g>
<!-- Node3&#45;&gt;Node20 -->
<g id="edge20" class="edge">
<title>Node3&#45;&gt;Node20</title>
<path fill="none" stroke="midnightblue" d="M2499,-168.08C2499,-161.01 2499,-150.86 2499,-141.99"/>
<polygon fill="midnightblue" stroke="midnightblue" points="2502.5,-141.75 2499,-131.75 2495.5,-141.75 2502.5,-141.75"/>
</g>
<!-- Node21 -->
<g id="node21" class="node">
<title>Node21</title>
<g id="a_node21"><a xlink:title=" ">
<polygon fill="white" stroke="#bfbfbf" points="2576.5,-112.5 2576.5,-131.5 2751.5,-131.5 2751.5,-112.5 2576.5,-112.5"/>
<text text-anchor="middle" x="2664" y="-119.5" font-family="Helvetica,sans-Serif" font-size="10.00">amxd/amxd_object_parameter.h</text>
</a>
</g>
</g>
<!-- Node3&#45;&gt;Node21 -->
<g id="edge21" class="edge">
<title>Node3&#45;&gt;Node21</title>
<path fill="none" stroke="midnightblue" d="M2520.57,-169.94C2547.88,-161 2595.32,-145.48 2628.12,-134.74"/>
<polygon fill="midnightblue" stroke="midnightblue" points="2629.38,-138.01 2637.8,-131.58 2627.2,-131.36 2629.38,-138.01"/>
</g>
<!-- Node22 -->
<g id="node22" class="node">
<title>Node22</title>
<g id="a_node22"><a xlink:title=" ">
<polygon fill="white" stroke="#bfbfbf" points="2770,-112.5 2770,-131.5 2922,-131.5 2922,-112.5 2770,-112.5"/>
<text text-anchor="middle" x="2846" y="-119.5" font-family="Helvetica,sans-Serif" font-size="10.00">amxd/amxd_object_event.h</text>
</a>
</g>
</g>
<!-- Node3&#45;&gt;Node22 -->
<g id="edge22" class="edge">
<title>Node3&#45;&gt;Node22</title>
<path fill="none" stroke="midnightblue" d="M2520.71,-173.62C2571.93,-165.65 2701.97,-145.41 2781.25,-133.08"/>
<polygon fill="midnightblue" stroke="midnightblue" points="2781.79,-136.53 2791.14,-131.54 2780.72,-129.62 2781.79,-136.53"/>
</g>
<!-- Node23 -->
<g id="node23" class="node">
<title>Node23</title>
<g id="a_node23"><a xlink:title=" ">
<polygon fill="white" stroke="#bfbfbf" points="2940.5,-112.5 2940.5,-131.5 3069.5,-131.5 3069.5,-112.5 2940.5,-112.5"/>
<text text-anchor="middle" x="3005" y="-119.5" font-family="Helvetica,sans-Serif" font-size="10.00">amxd/amxd_function.h</text>
</a>
</g>
</g>
<!-- Node3&#45;&gt;Node23 -->
<g id="edge23" class="edge">
<title>Node3&#45;&gt;Node23</title>
<path fill="none" stroke="midnightblue" d="M2520.59,-174.88C2582.46,-168.79 2765.91,-150.53 2930.14,-132.08"/>
<polygon fill="midnightblue" stroke="midnightblue" points="2930.89,-135.52 2940.43,-130.92 2930.1,-128.56 2930.89,-135.52"/>
</g>
<!-- Node24 -->
<g id="node24" class="node">
<title>Node24</title>
<g id="a_node24"><a xlink:title=" ">
<polygon fill="white" stroke="#bfbfbf" points="3087.5,-112.5 3087.5,-131.5 3256.5,-131.5 3256.5,-112.5 3087.5,-112.5"/>
<text text-anchor="middle" x="3172" y="-119.5" font-family="Helvetica,sans-Serif" font-size="10.00">amxd/amxd_object_hierarchy.h</text>
</a>
</g>
</g>
<!-- Node3&#45;&gt;Node24 -->
<g id="edge24" class="edge">
<title>Node3&#45;&gt;Node24</title>
<path fill="none" stroke="midnightblue" d="M2520.61,-175.47C2595.84,-170.12 2853.47,-151.54 3077.4,-132.13"/>
<polygon fill="midnightblue" stroke="midnightblue" points="3077.7,-135.61 3087.36,-131.26 3077.09,-128.64 3077.7,-135.61"/>
</g>
<!-- Node25 -->
<g id="node25" class="node">
<title>Node25</title>
<g id="a_node25"><a xlink:title=" ">
<polygon fill="white" stroke="#bfbfbf" points="3274.5,-112.5 3274.5,-131.5 3393.5,-131.5 3393.5,-112.5 3274.5,-112.5"/>
<text text-anchor="middle" x="3334" y="-119.5" font-family="Helvetica,sans-Serif" font-size="10.00">amxd/amxd_object.h</text>
</a>
</g>
</g>
<!-- Node3&#45;&gt;Node25 -->
<g id="edge25" class="edge">
<title>Node3&#45;&gt;Node25</title>
<path fill="none" stroke="midnightblue" d="M2520.7,-176.31C2610.69,-173.31 2963.5,-160.38 3264.1,-132.12"/>
<polygon fill="midnightblue" stroke="midnightblue" points="3264.7,-135.58 3274.32,-131.15 3264.04,-128.61 3264.7,-135.58"/>
</g>
<!-- Node26 -->
<g id="node26" class="node">
<title>Node26</title>
<g id="a_node26"><a xlink:title=" ">
<polygon fill="white" stroke="#bfbfbf" points="3411.5,-112.5 3411.5,-131.5 3516.5,-131.5 3516.5,-112.5 3411.5,-112.5"/>
<text text-anchor="middle" x="3464" y="-119.5" font-family="Helvetica,sans-Serif" font-size="10.00">amxd/amxd_dm.h</text>
</a>
</g>
</g>
<!-- Node3&#45;&gt;Node26 -->
<g id="edge26" class="edge">
<title>Node3&#45;&gt;Node26</title>
<path fill="none" stroke="midnightblue" d="M2520.75,-176.69C2620.45,-175.13 3043.96,-166.71 3401.44,-132.06"/>
<polygon fill="midnightblue" stroke="midnightblue" points="3401.86,-135.54 3411.47,-131.08 3401.17,-128.57 3401.86,-135.54"/>
</g>
<!-- Node27 -->
<g id="node27" class="node">
<title>Node27</title>
<g id="a_node27"><a xlink:title=" ">
<polygon fill="white" stroke="#bfbfbf" points="3535,-112.5 3535,-131.5 3679,-131.5 3679,-112.5 3535,-112.5"/>
<text text-anchor="middle" x="3607" y="-119.5" font-family="Helvetica,sans-Serif" font-size="10.00">amxd/amxd_transaction.h</text>
</a>
</g>
</g>
<!-- Node3&#45;&gt;Node27 -->
<g id="edge27" class="edge">
<title>Node3&#45;&gt;Node27</title>
<path fill="none" stroke="midnightblue" d="M2520.71,-176.59C2628.27,-174.43 3114.8,-163.37 3524.33,-132.08"/>
<polygon fill="midnightblue" stroke="midnightblue" points="3524.9,-135.54 3534.6,-131.29 3524.36,-128.56 3524.9,-135.54"/>
</g>
<!-- Node28 -->
<g id="node28" class="node">
<title>Node28</title>
<g id="a_node28"><a xlink:title=" ">
<polygon fill="white" stroke="#bfbfbf" points="3697,-112.5 3697,-131.5 3813,-131.5 3813,-112.5 3697,-112.5"/>
<text text-anchor="middle" x="3755" y="-119.5" font-family="Helvetica,sans-Serif" font-size="10.00">amxb/amxb_types.h</text>
</a>
</g>
</g>
<!-- Node3&#45;&gt;Node28 -->
<g id="edge28" class="edge">
<title>Node3&#45;&gt;Node28</title>
<path fill="none" stroke="midnightblue" d="M2520.54,-176.95C2637.59,-176.54 3209.03,-172.49 3686.73,-132.02"/>
<polygon fill="midnightblue" stroke="midnightblue" points="3687.27,-135.48 3696.93,-131.15 3686.67,-128.51 3687.27,-135.48"/>
</g>
<!-- Node29 -->
<g id="node29" class="node">
<title>Node29</title>
<g id="a_node29"><a xlink:title=" ">
<polygon fill="white" stroke="#bfbfbf" points="3831,-112.5 3831,-131.5 3967,-131.5 3967,-112.5 3831,-112.5"/>
<text text-anchor="middle" x="3899" y="-119.5" font-family="Helvetica,sans-Serif" font-size="10.00">amxb/amxb_operators.h</text>
</a>
</g>
</g>
<!-- Node3&#45;&gt;Node29 -->
<g id="edge29" class="edge">
<title>Node3&#45;&gt;Node29</title>
<path fill="none" stroke="midnightblue" d="M2520.86,-176.93C2646.22,-176.39 3286.7,-171.76 3820.38,-132.06"/>
<polygon fill="midnightblue" stroke="midnightblue" points="3820.88,-135.53 3830.59,-131.29 3820.36,-128.55 3820.88,-135.53"/>
</g>
<!-- Node30 -->
<g id="node30" class="node">
<title>Node30</title>
<g id="a_node30"><a xlink:title=" ">
<polygon fill="white" stroke="#bfbfbf" points="3985,-112.5 3985,-131.5 4097,-131.5 4097,-112.5 3985,-112.5"/>
<text text-anchor="middle" x="4041" y="-119.5" font-family="Helvetica,sans-Serif" font-size="10.00">amxb/amxb_error.h</text>
</a>
</g>
</g>
<!-- Node3&#45;&gt;Node30 -->
<g id="edge30" class="edge">
<title>Node3&#45;&gt;Node30</title>
<path fill="none" stroke="midnightblue" d="M2520.73,-177.21C2654.15,-178.33 3376.03,-181.8 3974.54,-132.02"/>
<polygon fill="midnightblue" stroke="midnightblue" points="3975,-135.5 3984.67,-131.18 3974.41,-128.52 3975,-135.5"/>
</g>
<!-- Node31 -->
<g id="node31" class="node">
<title>Node31</title>
<g id="a_node31"><a xlink:title=" ">
<polygon fill="white" stroke="#bfbfbf" points="4115.5,-112.5 4115.5,-131.5 4198.5,-131.5 4198.5,-112.5 4115.5,-112.5"/>
<text text-anchor="middle" x="4157" y="-119.5" font-family="Helvetica,sans-Serif" font-size="10.00">amxo/amxo.h</text>
</a>
</g>
</g>
<!-- Node3&#45;&gt;Node31 -->
<g id="edge31" class="edge">
<title>Node3&#45;&gt;Node31</title>
<path fill="none" stroke="midnightblue" d="M2520.63,-176.83C2686.3,-175.47 3756.97,-165.53 4105.23,-131.87"/>
<polygon fill="midnightblue" stroke="midnightblue" points="4105.72,-135.34 4115.32,-130.87 4105.02,-128.37 4105.72,-135.34"/>
</g>
<!-- Node32 -->
<g id="node32" class="node">
<title>Node32</title>
<g id="a_node32"><a xlink:title=" ">
<polygon fill="white" stroke="#bfbfbf" points="4216.5,-112.5 4216.5,-131.5 4331.5,-131.5 4331.5,-112.5 4216.5,-112.5"/>
<text text-anchor="middle" x="4274" y="-119.5" font-family="Helvetica,sans-Serif" font-size="10.00">amxo/amxo_types.h</text>
</a>
</g>
</g>
<!-- Node3&#45;&gt;Node32 -->
<g id="edge32" class="edge">
<title>Node3&#45;&gt;Node32</title>
<path fill="none" stroke="midnightblue" d="M2520.6,-176.76C2692.08,-174.78 3836.29,-160.67 4206.26,-132.03"/>
<polygon fill="midnightblue" stroke="midnightblue" points="4206.76,-135.5 4216.45,-131.22 4206.2,-128.53 4206.76,-135.5"/>
</g>
<!-- Node33 -->
<g id="node33" class="node">
<title>Node33</title>
<g id="a_node33"><a xlink:href="wld__types_8h.html" target="_top" xlink:title=" ">
<polygon fill="white" stroke="red" points="558.5,-56.5 558.5,-75.5 633.5,-75.5 633.5,-56.5 558.5,-56.5"/>
<text text-anchor="middle" x="596" y="-63.5" font-family="Helvetica,sans-Serif" font-size="10.00">wld_types.h</text>
</a>
</g>
</g>
<!-- Node3&#45;&gt;Node33 -->
<g id="edge33" class="edge">
<title>Node3&#45;&gt;Node33</title>
<path fill="none" stroke="midnightblue" d="M2477.34,-176.84C2270.66,-175.25 653.85,-161.85 615,-132 601.18,-121.38 597,-101.27 595.92,-86.22"/>
<polygon fill="midnightblue" stroke="midnightblue" points="599.41,-85.82 595.6,-75.93 592.41,-86.04 599.41,-85.82"/>
</g>
<!-- Node36 -->
<g id="node34" class="node">
<title>Node36</title>
<g id="a_node34"><a xlink:href="wld__channel__types_8h.html" target="_top" xlink:title=" ">
<polygon fill="white" stroke="black" points="286.5,-112.5 286.5,-131.5 405.5,-131.5 405.5,-112.5 286.5,-112.5"/>
<text text-anchor="middle" x="346" y="-119.5" font-family="Helvetica,sans-Serif" font-size="10.00">wld_channel_types.h</text>
</a>
</g>
</g>
<!-- Node3&#45;&gt;Node36 -->
<g id="edge36" class="edge">
<title>Node3&#45;&gt;Node36</title>
<path fill="none" stroke="midnightblue" d="M2477.2,-176.83C2283.19,-175.25 849.42,-162.68 420,-132 418.69,-131.91 417.37,-131.81 416.04,-131.7"/>
<polygon fill="midnightblue" stroke="midnightblue" points="416,-128.18 405.73,-130.78 415.37,-135.15 416,-128.18"/>
</g>
<!-- Node37 -->
<g id="node35" class="node">
<title>Node37</title>
<g id="a_node35"><a xlink:title=" ">
<polygon fill="white" stroke="#bfbfbf" points="318.5,-56.5 318.5,-75.5 443.5,-75.5 443.5,-56.5 318.5,-56.5"/>
<text text-anchor="middle" x="381" y="-63.5" font-family="Helvetica,sans-Serif" font-size="10.00">swla/swla_chanspec.h</text>
</a>
</g>
</g>
<!-- Node3&#45;&gt;Node37 -->
<g id="edge54" class="edge">
<title>Node3&#45;&gt;Node37</title>
<path fill="none" stroke="midnightblue" d="M2477.24,-176.94C2264.28,-176.25 557.45,-169.61 458,-132 432.04,-122.18 408.69,-99.58 394.68,-83.8"/>
<polygon fill="midnightblue" stroke="midnightblue" points="397.06,-81.19 387.9,-75.86 391.73,-85.74 397.06,-81.19"/>
</g>
<!-- Node38 -->
<g id="node36" class="node">
<title>Node38</title>
<g id="a_node36"><a xlink:href="wld__bgdfs_8h.html" target="_top" xlink:title=" ">
<polygon fill="white" stroke="black" points="624.5,-112.5 624.5,-131.5 699.5,-131.5 699.5,-112.5 624.5,-112.5"/>
<text text-anchor="middle" x="662" y="-119.5" font-family="Helvetica,sans-Serif" font-size="10.00">wld_bgdfs.h</text>
</a>
</g>
</g>
<!-- Node3&#45;&gt;Node38 -->
<g id="edge40" class="edge">
<title>Node3&#45;&gt;Node38</title>
<path fill="none" stroke="midnightblue" d="M2477.22,-176.95C2300.38,-176.43 1096.88,-171.51 709.73,-131.83"/>
<polygon fill="midnightblue" stroke="midnightblue" points="709.94,-128.33 699.63,-130.77 709.21,-135.3 709.94,-128.33"/>
</g>
<!-- Node39 -->
<g id="node37" class="node">
<title>Node39</title>
<g id="a_node37"><a xlink:href="wld__rad__delayMgr_8h.html" target="_top" xlink:title=" ">
<polygon fill="white" stroke="black" points="4350,-112.5 4350,-131.5 4464,-131.5 4464,-112.5 4350,-112.5"/>
<text text-anchor="middle" x="4407" y="-119.5" font-family="Helvetica,sans-Serif" font-size="10.00">wld_rad_delayMgr.h</text>
</a>
</g>
</g>
<!-- Node3&#45;&gt;Node39 -->
<g id="edge42" class="edge">
<title>Node3&#45;&gt;Node39</title>
<path fill="none" stroke="midnightblue" d="M2520.68,-176.79C2701.16,-175.02 3954.74,-162.24 4332,-132 4334.52,-131.8 4337.09,-131.56 4339.7,-131.31"/>
<polygon fill="midnightblue" stroke="midnightblue" points="4340.27,-134.77 4349.83,-130.21 4339.51,-127.81 4340.27,-134.77"/>
</g>
<!-- Node40 -->
<g id="node38" class="node">
<title>Node40</title>
<g id="a_node38"><a xlink:href="wld__fsm_8h.html" target="_top" xlink:title=" ">
<polygon fill="white" stroke="black" points="5421.5,-112.5 5421.5,-131.5 5488.5,-131.5 5488.5,-112.5 5421.5,-112.5"/>
<text text-anchor="middle" x="5455" y="-119.5" font-family="Helvetica,sans-Serif" font-size="10.00">wld_fsm.h</text>
</a>
</g>
</g>
<!-- Node3&#45;&gt;Node40 -->
<g id="edge44" class="edge">
<title>Node3&#45;&gt;Node40</title>
<path fill="none" stroke="midnightblue" d="M2520.67,-176.92C2768.31,-175.95 5060.99,-166.1 5411.27,-131.74"/>
<polygon fill="midnightblue" stroke="midnightblue" points="5411.72,-135.21 5421.3,-130.69 5410.99,-128.25 5411.72,-135.21"/>
</g>
<!-- Node41 -->
<g id="node39" class="node">
<title>Node41</title>
<g id="a_node39"><a xlink:href="wld__sensing_8h.html" target="_top" xlink:title=" ">
<polygon fill="white" stroke="black" points="4482,-112.5 4482,-131.5 4568,-131.5 4568,-112.5 4482,-112.5"/>
<text text-anchor="middle" x="4525" y="-119.5" font-family="Helvetica,sans-Serif" font-size="10.00">wld_sensing.h</text>
</a>
</g>
</g>
<!-- Node3&#45;&gt;Node41 -->
<g id="edge46" class="edge">
<title>Node3&#45;&gt;Node41</title>
<path fill="none" stroke="midnightblue" d="M2520.57,-176.95C2707.86,-176.43 4059.06,-171.44 4464,-132 4466.51,-131.76 4469.09,-131.46 4471.69,-131.12"/>
<polygon fill="midnightblue" stroke="midnightblue" points="4472.42,-134.56 4481.83,-129.68 4471.43,-127.63 4472.42,-134.56"/>
</g>
<!-- Node42 -->
<g id="node40" class="node">
<title>Node42</title>
<g id="a_node40"><a xlink:href="wld__mld_8h.html" target="_top" xlink:title=" ">
<polygon fill="white" stroke="black" points="500.5,-112.5 500.5,-131.5 567.5,-131.5 567.5,-112.5 500.5,-112.5"/>
<text text-anchor="middle" x="534" y="-119.5" font-family="Helvetica,sans-Serif" font-size="10.00">wld_mld.h</text>
</a>
</g>
</g>
<!-- Node3&#45;&gt;Node42 -->
<g id="edge48" class="edge">
<title>Node3&#45;&gt;Node42</title>
<path fill="none" stroke="midnightblue" d="M2477.45,-176.98C2292.92,-176.7 975.79,-173.27 582,-132 580.7,-131.86 579.37,-131.71 578.04,-131.54"/>
<polygon fill="midnightblue" stroke="midnightblue" points="578.13,-128.02 567.73,-130.03 577.12,-134.95 578.13,-128.02"/>
</g>
<!-- Node43 -->
<g id="node41" class="node">
<title>Node43</title>
<g id="a_node41"><a xlink:href="wld__autoCommitRadData_8h.html" target="_top" xlink:title=" ">
<polygon fill="white" stroke="black" points="4586,-112.5 4586,-131.5 4762,-131.5 4762,-112.5 4586,-112.5"/>
<text text-anchor="middle" x="4674" y="-119.5" font-family="Helvetica,sans-Serif" font-size="10.00">Utils/wld_autoCommitRadData.h</text>
</a>
</g>
</g>
<!-- Node3&#45;&gt;Node43 -->
<g id="edge50" class="edge">
<title>Node3&#45;&gt;Node43</title>
<path fill="none" stroke="midnightblue" d="M2520.52,-177.11C2681.97,-177.84 3720.43,-180.46 4575.94,-132.01"/>
<polygon fill="midnightblue" stroke="midnightblue" points="4576.21,-135.5 4585.99,-131.44 4575.81,-128.51 4576.21,-135.5"/>
</g>
<!-- Node44 -->
<g id="node42" class="node">
<title>Node44</title>
<g id="a_node42"><a xlink:href="wld__dmnMgt_8h.html" target="_top" xlink:title=" ">
<polygon fill="white" stroke="red" points="154,-112.5 154,-131.5 268,-131.5 268,-112.5 154,-112.5"/>
<text text-anchor="middle" x="211" y="-119.5" font-family="Helvetica,sans-Serif" font-size="10.00">Utils/wld_dmnMgt.h</text>
</a>
</g>
</g>
<!-- Node3&#45;&gt;Node44 -->
<g id="edge51" class="edge">
<title>Node3&#45;&gt;Node44</title>
<path fill="none" stroke="midnightblue" d="M2477.3,-176.91C2277.77,-176 758.66,-168.01 278.31,-131.98"/>
<polygon fill="midnightblue" stroke="midnightblue" points="278.43,-128.48 268.19,-131.21 277.9,-135.46 278.43,-128.48"/>
</g>
<!-- Node46 -->
<g id="node43" class="node">
<title>Node46</title>
<g id="a_node43"><a xlink:title=" ">
<polygon fill="white" stroke="#bfbfbf" points="4780.5,-112.5 4780.5,-131.5 4881.5,-131.5 4881.5,-112.5 4780.5,-112.5"/>
<text text-anchor="middle" x="4831" y="-119.5" font-family="Helvetica,sans-Serif" font-size="10.00">swl/swl_staCap.h</text>
</a>
</g>
</g>
<!-- Node3&#45;&gt;Node46 -->
<g id="edge55" class="edge">
<title>Node3&#45;&gt;Node46</title>
<path fill="none" stroke="midnightblue" d="M2520.55,-176.96C2722.01,-176.51 4278.99,-171.85 4770.32,-131.9"/>
<polygon fill="midnightblue" stroke="midnightblue" points="4770.64,-135.39 4780.32,-131.07 4770.06,-128.41 4770.64,-135.39"/>
</g>
<!-- Node47 -->
<g id="node44" class="node">
<title>Node47</title>
<g id="a_node44"><a xlink:title=" ">
<polygon fill="white" stroke="#bfbfbf" points="4900,-112.5 4900,-131.5 5004,-131.5 5004,-112.5 4900,-112.5"/>
<text text-anchor="middle" x="4952" y="-119.5" font-family="Helvetica,sans-Serif" font-size="10.00">swla/swla_table.h</text>
</a>
</g>
</g>
<!-- Node3&#45;&gt;Node47 -->
<g id="edge56" class="edge">
<title>Node3&#45;&gt;Node47</title>
<path fill="none" stroke="midnightblue" d="M2520.69,-176.98C2728.66,-176.69 4372.91,-173.15 4889.67,-131.97"/>
<polygon fill="midnightblue" stroke="midnightblue" points="4890.12,-135.45 4899.81,-131.15 4889.56,-128.47 4890.12,-135.45"/>
</g>
<!-- Node48 -->
<g id="node45" class="node">
<title>Node48</title>
<g id="a_node45"><a xlink:title=" ">
<polygon fill="white" stroke="#bfbfbf" points="5022.5,-112.5 5022.5,-131.5 5119.5,-131.5 5119.5,-112.5 5022.5,-112.5"/>
<text text-anchor="middle" x="5071" y="-119.5" font-family="Helvetica,sans-Serif" font-size="10.00">swl/swl_assert.h</text>
</a>
</g>
</g>
<!-- Node3&#45;&gt;Node48 -->
<g id="edge57" class="edge">
<title>Node3&#45;&gt;Node48</title>
<path fill="none" stroke="midnightblue" d="M2520.78,-177.02C2735,-177.17 4468.62,-176.98 5012.06,-131.91"/>
<polygon fill="midnightblue" stroke="midnightblue" points="5012.65,-135.38 5022.32,-131.04 5012.06,-128.4 5012.65,-135.38"/>
</g>
<!-- Node49 -->
<g id="node46" class="node">
<title>Node49</title>
<g id="a_node46"><a xlink:title=" ">
<polygon fill="white" stroke="#bfbfbf" points="5137.5,-112.5 5137.5,-131.5 5258.5,-131.5 5258.5,-112.5 5137.5,-112.5"/>
<text text-anchor="middle" x="5198" y="-119.5" font-family="Helvetica,sans-Serif" font-size="10.00">swl/swl_returnCode.h</text>
</a>
</g>
</g>
<!-- Node3&#45;&gt;Node49 -->
<g id="edge58" class="edge">
<title>Node3&#45;&gt;Node49</title>
<path fill="none" stroke="midnightblue" d="M2520.73,-176.97C2740.17,-176.59 4558.94,-172.33 5127.13,-132.04"/>
<polygon fill="midnightblue" stroke="midnightblue" points="5127.74,-135.5 5137.46,-131.29 5127.23,-128.52 5127.74,-135.5"/>
</g>
<!-- Node50 -->
<g id="node47" class="node">
<title>Node50</title>
<g id="a_node47"><a xlink:title=" ">
<polygon fill="white" stroke="#bfbfbf" points="5277,-112.5 5277,-131.5 5403,-131.5 5403,-112.5 5277,-112.5"/>
<text text-anchor="middle" x="5340" y="-119.5" font-family="Helvetica,sans-Serif" font-size="10.00">swla/swla_tupleType.h</text>
</a>
</g>
</g>
<!-- Node3&#45;&gt;Node50 -->
<g id="edge59" class="edge">
<title>Node3&#45;&gt;Node50</title>
<path fill="none" stroke="midnightblue" d="M2520.81,-176.97C2747,-176.65 4668.62,-172.72 5266.81,-131.98"/>
<polygon fill="midnightblue" stroke="midnightblue" points="5267.09,-135.47 5276.82,-131.29 5266.6,-128.49 5267.09,-135.47"/>
</g>
<!-- Node33&#45;&gt;Node4 -->
<g id="edge34" class="edge">
<title>Node33&#45;&gt;Node4</title>
<path fill="none" stroke="midnightblue" d="M633.66,-64.17C918.93,-57.91 2736.35,-18.02 3019.06,-11.81"/>
<polygon fill="midnightblue" stroke="midnightblue" points="3019.27,-15.31 3029.2,-11.59 3019.12,-8.31 3019.27,-15.31"/>
</g>
<!-- Node33&#45;&gt;Node9 -->
<g id="edge35" class="edge">
<title>Node33&#45;&gt;Node9</title>
<path fill="none" stroke="midnightblue" d="M576.35,-56.44C556.04,-47.6 524.1,-33.69 500.9,-23.59"/>
<polygon fill="midnightblue" stroke="midnightblue" points="502.12,-20.3 491.56,-19.52 499.33,-26.72 502.12,-20.3"/>
</g>
<!-- Node36&#45;&gt;Node2 -->
<g id="edge37" class="edge">
<title>Node36&#45;&gt;Node2</title>
<path fill="none" stroke="midnightblue" d="M316.37,-112.44C284.5,-103.24 233.67,-88.56 198.44,-78.39"/>
<polygon fill="midnightblue" stroke="midnightblue" points="199.07,-74.93 188.49,-75.52 197.13,-81.65 199.07,-74.93"/>
</g>
<!-- Node36&#45;&gt;Node9 -->
<g id="edge39" class="edge">
<title>Node36&#45;&gt;Node9</title>
<path fill="none" stroke="midnightblue" d="M334.67,-112.35C319.15,-99.45 294.76,-74.7 309,-56 321.61,-39.44 370.26,-27.42 411.16,-19.99"/>
<polygon fill="midnightblue" stroke="midnightblue" points="411.85,-23.42 421.1,-18.24 410.64,-16.53 411.85,-23.42"/>
</g>
<!-- Node36&#45;&gt;Node37 -->
<g id="edge38" class="edge">
<title>Node36&#45;&gt;Node37</title>
<path fill="none" stroke="midnightblue" d="M351.78,-112.08C356.67,-104.53 363.83,-93.49 369.83,-84.23"/>
<polygon fill="midnightblue" stroke="midnightblue" points="372.83,-86.05 375.33,-75.75 366.95,-82.24 372.83,-86.05"/>
</g>
<!-- Node38&#45;&gt;Node33 -->
<g id="edge41" class="edge">
<title>Node38&#45;&gt;Node33</title>
<path fill="none" stroke="midnightblue" d="M651.4,-112.32C641.54,-104.26 626.65,-92.08 614.78,-82.37"/>
<polygon fill="midnightblue" stroke="midnightblue" points="616.75,-79.46 606.8,-75.83 612.32,-84.88 616.75,-79.46"/>
</g>
<!-- Node39&#45;&gt;Node3 -->
<g id="edge43" class="edge">
<title>Node39&#45;&gt;Node3</title>
<path fill="none" stroke="midnightblue" d="M4355.6,-131.51C4353.72,-131.69 4351.84,-131.85 4350,-132 3976.64,-161.92 2744.99,-174.76 2530.84,-176.73"/>
<polygon fill="midnightblue" stroke="midnightblue" points="2530.57,-173.23 2520.61,-176.82 2530.64,-180.23 2530.57,-173.23"/>
</g>
<!-- Node40&#45;&gt;Node33 -->
<g id="edge45" class="edge">
<title>Node40&#45;&gt;Node33</title>
<path fill="none" stroke="midnightblue" d="M5421.3,-113.29C5418.17,-112.77 5415.03,-112.33 5412,-112 5162.05,-84.94 1130,-69 643.85,-67.18"/>
<polygon fill="midnightblue" stroke="midnightblue" points="643.68,-63.68 633.67,-67.14 643.66,-70.68 643.68,-63.68"/>
</g>
<!-- Node41&#45;&gt;Node3 -->
<g id="edge47" class="edge">
<title>Node41&#45;&gt;Node3</title>
<path fill="none" stroke="midnightblue" d="M4486.43,-131.52C4484.94,-131.7 4483.46,-131.86 4482,-132 4081.07,-171.05 2752.51,-176.33 2530.54,-176.93"/>
<polygon fill="midnightblue" stroke="midnightblue" points="2530.53,-173.43 2520.54,-176.96 2530.54,-180.43 2530.53,-173.43"/>
</g>
<!-- Node42&#45;&gt;Node33 -->
<g id="edge49" class="edge">
<title>Node42&#45;&gt;Node33</title>
<path fill="none" stroke="midnightblue" d="M543.96,-112.32C553.13,-104.34 566.94,-92.31 578.03,-82.65"/>
<polygon fill="midnightblue" stroke="midnightblue" points="580.62,-85.04 585.86,-75.83 576.02,-79.76 580.62,-85.04"/>
</g>
<!-- Node44&#45;&gt;Node5 -->
<g id="edge52" class="edge">
<title>Node44&#45;&gt;Node5</title>
<path fill="none" stroke="midnightblue" d="M186.28,-112.44C160.15,-103.4 118.74,-89.06 89.42,-78.92"/>
<polygon fill="midnightblue" stroke="midnightblue" points="90.2,-75.48 79.6,-75.52 87.91,-82.1 90.2,-75.48"/>
</g>
<!-- Node44&#45;&gt;Node33 -->
<g id="edge53" class="edge">
<title>Node44&#45;&gt;Node33</title>
<path fill="none" stroke="midnightblue" d="M268.22,-112.97C344.29,-102.3 477.34,-83.64 548.28,-73.69"/>
<polygon fill="midnightblue" stroke="midnightblue" points="548.86,-77.15 558.28,-72.29 547.89,-70.21 548.86,-77.15"/>
</g>
<!-- Node75&#45;&gt;Node3 -->
<g id="edge61" class="edge">
<title>Node75&#45;&gt;Node3</title>
<path fill="none" stroke="midnightblue" d="M2418.42,-224.32C2433.54,-215.82 2456.82,-202.73 2474.47,-192.8"/>
<polygon fill="midnightblue" stroke="midnightblue" points="2476.61,-195.61 2483.61,-187.65 2473.18,-189.51 2476.61,-195.61"/>
</g>
<!-- Node77&#45;&gt;Node3 -->
<g id="edge63" class="edge">
<title>Node77&#45;&gt;Node3</title>
<path fill="none" stroke="midnightblue" d="M2499,-224.08C2499,-217.01 2499,-206.86 2499,-197.99"/>
<polygon fill="midnightblue" stroke="midnightblue" points="2502.5,-197.75 2499,-187.75 2495.5,-197.75 2502.5,-197.75"/>
</g>
</g>
</svg>
