<?xml version="1.0" encoding="UTF-8" standalone="no"?>
<!DOCTYPE svg PUBLIC "-//W3C//DTD SVG 1.1//EN"
 "http://www.w3.org/Graphics/SVG/1.1/DTD/svg11.dtd">
<!-- Generated by graphviz version 2.43.0 (0)
 -->
<!-- Title: wld_rad_getFirstEnabledIfaceIndex Pages: 1 -->
<svg width="757pt" height="297pt"
 viewBox="0.00 0.00 757.00 297.00" xmlns="http://www.w3.org/2000/svg" xmlns:xlink="http://www.w3.org/1999/xlink">
<g id="graph0" class="graph" transform="scale(1 1) rotate(0) translate(4 293)">
<title>wld_rad_getFirstEnabledIfaceIndex</title>
<polygon fill="white" stroke="transparent" points="-4,4 -4,-293 753,-293 753,4 -4,4"/>
<!-- Node1 -->
<g id="node1" class="node">
<title>Node1</title>
<g id="a_node1"><a xlink:title=" ">
<polygon fill="#bfbfbf" stroke="black" points="589,-160 589,-190 749,-190 749,-160 589,-160"/>
<text text-anchor="start" x="597" y="-178" font-family="Helvetica,sans-Serif" font-size="10.00">wld_rad_getFirstEnabledIface</text>
<text text-anchor="middle" x="669" y="-167" font-family="Helvetica,sans-Serif" font-size="10.00">Index</text>
</a>
</g>
</g>
<!-- Node2 -->
<g id="node2" class="node">
<title>Node2</title>
<g id="a_node2"><a xlink:href="wld__radio_8c.html#ab7a948145edfcf5b588a54039d900ede" target="_top" xlink:title=" ">
<polygon fill="white" stroke="black" points="396.5,-269.5 396.5,-288.5 536.5,-288.5 536.5,-269.5 396.5,-269.5"/>
<text text-anchor="middle" x="466.5" y="-276.5" font-family="Helvetica,sans-Serif" font-size="10.00">wld_rad_hasEnabledIface</text>
</a>
</g>
</g>
<!-- Node1&#45;&gt;Node2 -->
<g id="edge1" class="edge">
<title>Node1&#45;&gt;Node2</title>
<path fill="none" stroke="midnightblue" d="M644.76,-196.81C622.77,-216.26 588.01,-244.05 553,-260 544.56,-263.85 535.29,-266.94 526.06,-269.42"/>
<polygon fill="midnightblue" stroke="midnightblue" points="647.17,-199.35 652.26,-190.06 642.49,-194.15 647.17,-199.35"/>
</g>
<!-- Node4 -->
<g id="node4" class="node">
<title>Node4</title>
<g id="a_node4"><a xlink:href="wld__nl80211__scan_8c.html#ae14e3f81292e950d99fa22112e30b7b5" target="_top" xlink:title=" ">
<polygon fill="white" stroke="black" points="390,-231.5 390,-250.5 543,-250.5 543,-231.5 390,-231.5"/>
<text text-anchor="middle" x="466.5" y="-238.5" font-family="Helvetica,sans-Serif" font-size="10.00">wld_rad_nl80211_abortScan</text>
</a>
</g>
</g>
<!-- Node1&#45;&gt;Node4 -->
<g id="edge3" class="edge">
<title>Node1&#45;&gt;Node4</title>
<path fill="none" stroke="midnightblue" d="M626.14,-194.11C604.61,-203.42 577.74,-214.26 553,-222 541.54,-225.59 529,-228.77 517.16,-231.46"/>
<polygon fill="midnightblue" stroke="midnightblue" points="627.57,-197.3 635.33,-190.09 624.77,-190.89 627.57,-197.3"/>
</g>
<!-- Node5 -->
<g id="node5" class="node">
<title>Node5</title>
<g id="a_node5"><a xlink:href="wld__rad__nl80211_8c.html#a207896b46d08b10868e5b33a3c77aaa2" target="_top" xlink:title=" ">
<polygon fill="white" stroke="black" points="396,-182 396,-212 537,-212 537,-182 396,-182"/>
<text text-anchor="start" x="404" y="-200" font-family="Helvetica,sans-Serif" font-size="10.00">wld_rad_nl80211_getFirst</text>
<text text-anchor="middle" x="466.5" y="-189" font-family="Helvetica,sans-Serif" font-size="10.00">EnabledVapLinkInfo</text>
</a>
</g>
</g>
<!-- Node1&#45;&gt;Node5 -->
<g id="edge4" class="edge">
<title>Node1&#45;&gt;Node5</title>
<path fill="none" stroke="midnightblue" d="M578.67,-184.8C564.73,-186.33 550.5,-187.89 537.08,-189.37"/>
<polygon fill="midnightblue" stroke="midnightblue" points="579.2,-188.26 588.76,-183.69 578.43,-181.31 579.2,-188.26"/>
</g>
<!-- Node10 -->
<g id="node10" class="node">
<title>Node10</title>
<g id="a_node10"><a xlink:href="wld__rad__nl80211_8c.html#a7d0b85b6f05fd1c5379f8f5b07e648ef" target="_top" xlink:title=" ">
<polygon fill="white" stroke="black" points="380,-143.5 380,-162.5 553,-162.5 553,-143.5 380,-143.5"/>
<text text-anchor="middle" x="466.5" y="-150.5" font-family="Helvetica,sans-Serif" font-size="10.00">wld_rad_nl80211_getSurveyInfo</text>
</a>
</g>
</g>
<!-- Node1&#45;&gt;Node10 -->
<g id="edge9" class="edge">
<title>Node1&#45;&gt;Node10</title>
<path fill="none" stroke="midnightblue" d="M578.8,-165.21C570.25,-164.27 561.6,-163.33 553.1,-162.39"/>
<polygon fill="midnightblue" stroke="midnightblue" points="578.43,-168.69 588.76,-166.31 579.2,-161.74 578.43,-168.69"/>
</g>
<!-- Node14 -->
<g id="node14" class="node">
<title>Node14</title>
<g id="a_node14"><a xlink:href="wld__rad__nl80211_8c.html#a141342d3997dbceaae28134e2d27a480" target="_top" xlink:title=" ">
<polygon fill="white" stroke="black" points="385.5,-76.5 385.5,-95.5 547.5,-95.5 547.5,-76.5 385.5,-76.5"/>
<text text-anchor="middle" x="466.5" y="-83.5" font-family="Helvetica,sans-Serif" font-size="10.00">wld_rad_nl80211_getTxPower</text>
</a>
</g>
</g>
<!-- Node1&#45;&gt;Node14 -->
<g id="edge13" class="edge">
<title>Node1&#45;&gt;Node14</title>
<path fill="none" stroke="midnightblue" d="M624.6,-155.73C582.77,-137.17 521.23,-109.85 488.99,-95.54"/>
<polygon fill="midnightblue" stroke="midnightblue" points="623.43,-159.04 633.99,-159.9 626.27,-152.65 623.43,-159.04"/>
</g>
<!-- Node17 -->
<g id="node17" class="node">
<title>Node17</title>
<g id="a_node17"><a xlink:href="wld__nl80211__scan_8c.html#a2dbdb0b01badbf46d3dc8fc18fefa0ac" target="_top" xlink:title=" ">
<polygon fill="white" stroke="black" points="383.5,-19.5 383.5,-38.5 549.5,-38.5 549.5,-19.5 383.5,-19.5"/>
<text text-anchor="middle" x="466.5" y="-26.5" font-family="Helvetica,sans-Serif" font-size="10.00">wld_rad_nl80211_startScanExt</text>
</a>
</g>
</g>
<!-- Node1&#45;&gt;Node17 -->
<g id="edge16" class="edge">
<title>Node1&#45;&gt;Node17</title>
<path fill="none" stroke="midnightblue" d="M648.07,-152.21C626.47,-128.55 590.11,-91.64 553,-67 535,-55.05 512.63,-45.26 495.28,-38.61"/>
<polygon fill="midnightblue" stroke="midnightblue" points="645.51,-154.6 654.81,-159.68 650.71,-149.91 645.51,-154.6"/>
</g>
<!-- Node3 -->
<g id="node3" class="node">
<title>Node3</title>
<g id="a_node3"><a xlink:href="wifiGen__rad_8c.html#afac25ba3d1cac3746971c9fd591c2d1b" target="_top" xlink:title=" ">
<polygon fill="white" stroke="black" points="208.5,-269.5 208.5,-288.5 318.5,-288.5 318.5,-269.5 208.5,-269.5"/>
<text text-anchor="middle" x="263.5" y="-276.5" font-family="Helvetica,sans-Serif" font-size="10.00">wifiGen_rad_status</text>
</a>
</g>
</g>
<!-- Node2&#45;&gt;Node3 -->
<g id="edge2" class="edge">
<title>Node2&#45;&gt;Node3</title>
<path fill="none" stroke="midnightblue" d="M386.05,-279C363.42,-279 339.3,-279 318.56,-279"/>
<polygon fill="midnightblue" stroke="midnightblue" points="386.33,-282.5 396.33,-279 386.33,-275.5 386.33,-282.5"/>
</g>
<!-- Node6 -->
<g id="node6" class="node">
<title>Node6</title>
<g id="a_node6"><a xlink:href="wld__rad__nl80211_8c.html#a612fc4497ec8133b6181e77a74bc7d0e" target="_top" xlink:title=" ">
<polygon fill="white" stroke="black" points="185.5,-228.5 185.5,-247.5 341.5,-247.5 341.5,-228.5 185.5,-228.5"/>
<text text-anchor="middle" x="263.5" y="-235.5" font-family="Helvetica,sans-Serif" font-size="10.00">wld_rad_nl80211_bgDfsStart</text>
</a>
</g>
</g>
<!-- Node5&#45;&gt;Node6 -->
<g id="edge5" class="edge">
<title>Node5&#45;&gt;Node6</title>
<path fill="none" stroke="midnightblue" d="M385.79,-213.26C360.45,-218.43 333.28,-223.97 311.08,-228.5"/>
<polygon fill="midnightblue" stroke="midnightblue" points="386.67,-216.65 395.76,-211.22 385.27,-209.79 386.67,-216.65"/>
</g>
<!-- Node8 -->
<g id="node8" class="node">
<title>Node8</title>
<g id="a_node8"><a xlink:href="wld__rad__nl80211_8c.html#a91f62b90e3141285f0b5c14bc3f1f05a" target="_top" xlink:title=" ">
<polygon fill="white" stroke="black" points="186,-190.5 186,-209.5 341,-209.5 341,-190.5 186,-190.5"/>
<text text-anchor="middle" x="263.5" y="-197.5" font-family="Helvetica,sans-Serif" font-size="10.00">wld_rad_nl80211_bgDfsStop</text>
</a>
</g>
</g>
<!-- Node5&#45;&gt;Node8 -->
<g id="edge7" class="edge">
<title>Node5&#45;&gt;Node8</title>
<path fill="none" stroke="midnightblue" d="M385.75,-198.19C371.12,-198.41 355.87,-198.64 341.32,-198.85"/>
<polygon fill="midnightblue" stroke="midnightblue" points="385.82,-201.69 395.76,-198.04 385.71,-194.69 385.82,-201.69"/>
</g>
<!-- Node7 -->
<g id="node7" class="node">
<title>Node7</title>
<g id="a_node7"><a xlink:href="wifiGen__rad_8c.html#a9233592c6fba03287d70436e4532b9c5" target="_top" xlink:title=" ">
<polygon fill="white" stroke="black" points="0,-228.5 0,-247.5 147,-247.5 147,-228.5 0,-228.5"/>
<text text-anchor="middle" x="73.5" y="-235.5" font-family="Helvetica,sans-Serif" font-size="10.00">wifiGen_rad_bgDfsStartExt</text>
</a>
</g>
</g>
<!-- Node6&#45;&gt;Node7 -->
<g id="edge6" class="edge">
<title>Node6&#45;&gt;Node7</title>
<path fill="none" stroke="midnightblue" d="M175.32,-238C165.89,-238 156.38,-238 147.15,-238"/>
<polygon fill="midnightblue" stroke="midnightblue" points="175.49,-241.5 185.49,-238 175.49,-234.5 175.49,-241.5"/>
</g>
<!-- Node9 -->
<g id="node9" class="node">
<title>Node9</title>
<g id="a_node9"><a xlink:href="wifiGen__rad_8c.html#a4648b18985ef392da90c2a0c8273fc69" target="_top" xlink:title=" ">
<polygon fill="white" stroke="black" points="8.5,-190.5 8.5,-209.5 138.5,-209.5 138.5,-190.5 8.5,-190.5"/>
<text text-anchor="middle" x="73.5" y="-197.5" font-family="Helvetica,sans-Serif" font-size="10.00">wifiGen_rad_bgDfsStop</text>
</a>
</g>
</g>
<!-- Node8&#45;&gt;Node9 -->
<g id="edge8" class="edge">
<title>Node8&#45;&gt;Node9</title>
<path fill="none" stroke="midnightblue" d="M175.43,-200C163.05,-200 150.52,-200 138.69,-200"/>
<polygon fill="midnightblue" stroke="midnightblue" points="175.76,-203.5 185.76,-200 175.76,-196.5 175.76,-203.5"/>
</g>
<!-- Node11 -->
<g id="node11" class="node">
<title>Node11</title>
<g id="a_node11"><a xlink:href="wifiGen__rad_8c.html#a63ca0312efb1460f235020f8d8fbf442" target="_top" xlink:title=" ">
<polygon fill="white" stroke="black" points="183,-152.5 183,-171.5 344,-171.5 344,-152.5 183,-152.5"/>
<text text-anchor="middle" x="263.5" y="-159.5" font-family="Helvetica,sans-Serif" font-size="10.00">wifiGen_rad_getSpectrumInfo</text>
</a>
</g>
</g>
<!-- Node10&#45;&gt;Node11 -->
<g id="edge10" class="edge">
<title>Node10&#45;&gt;Node11</title>
<path fill="none" stroke="midnightblue" d="M369.91,-157.28C361.31,-157.67 352.66,-158.05 344.21,-158.43"/>
<polygon fill="midnightblue" stroke="midnightblue" points="370.13,-160.77 379.97,-156.83 369.82,-153.78 370.13,-160.77"/>
</g>
<!-- Node12 -->
<g id="node12" class="node">
<title>Node12</title>
<g id="a_node12"><a xlink:href="wld__rad__nl80211_8c.html#a6fe347344e38456f156665255d93b4a0" target="_top" xlink:title=" ">
<polygon fill="white" stroke="black" points="184.5,-114.5 184.5,-133.5 342.5,-133.5 342.5,-114.5 184.5,-114.5"/>
<text text-anchor="middle" x="263.5" y="-121.5" font-family="Helvetica,sans-Serif" font-size="10.00">wld_rad_nl80211_getAirstats</text>
</a>
</g>
</g>
<!-- Node10&#45;&gt;Node12 -->
<g id="edge11" class="edge">
<title>Node10&#45;&gt;Node12</title>
<path fill="none" stroke="midnightblue" d="M389.42,-142.02C370.07,-139.23 349.44,-136.26 330.63,-133.54"/>
<polygon fill="midnightblue" stroke="midnightblue" points="389.01,-145.5 399.41,-143.46 390.01,-138.57 389.01,-145.5"/>
</g>
<!-- Node13 -->
<g id="node13" class="node">
<title>Node13</title>
<g id="a_node13"><a xlink:href="wifiGen__rad_8c.html#a04fa8e5a56b65287842c1484c0804faf" target="_top" xlink:title=" ">
<polygon fill="white" stroke="black" points="6.5,-114.5 6.5,-133.5 140.5,-133.5 140.5,-114.5 6.5,-114.5"/>
<text text-anchor="middle" x="73.5" y="-121.5" font-family="Helvetica,sans-Serif" font-size="10.00">wifiGen_rad_getAirStats</text>
</a>
</g>
</g>
<!-- Node12&#45;&gt;Node13 -->
<g id="edge12" class="edge">
<title>Node12&#45;&gt;Node13</title>
<path fill="none" stroke="midnightblue" d="M174.12,-124C162.87,-124 151.52,-124 140.7,-124"/>
<polygon fill="midnightblue" stroke="midnightblue" points="174.4,-127.5 184.4,-124 174.4,-120.5 174.4,-127.5"/>
</g>
<!-- Node15 -->
<g id="node15" class="node">
<title>Node15</title>
<g id="a_node15"><a xlink:href="wifiGen__rad_8c.html#afcba2a85022aa299811538d597d695de" target="_top" xlink:title=" ">
<polygon fill="white" stroke="black" points="183.5,-76.5 183.5,-95.5 343.5,-95.5 343.5,-76.5 183.5,-76.5"/>
<text text-anchor="middle" x="263.5" y="-83.5" font-family="Helvetica,sans-Serif" font-size="10.00">wifiGen_rad_getTxPowerdBm</text>
</a>
</g>
</g>
<!-- Node14&#45;&gt;Node15 -->
<g id="edge14" class="edge">
<title>Node14&#45;&gt;Node15</title>
<path fill="none" stroke="midnightblue" d="M375.38,-86C364.78,-86 354.02,-86 343.59,-86"/>
<polygon fill="midnightblue" stroke="midnightblue" points="375.48,-89.5 385.48,-86 375.48,-82.5 375.48,-89.5"/>
</g>
<!-- Node16 -->
<g id="node16" class="node">
<title>Node16</title>
<g id="a_node16"><a xlink:href="wifiGen__rad_8c.html#a65e1e8b585dc92e66407f6c90bff7db2" target="_top" xlink:title=" ">
<polygon fill="white" stroke="black" points="208.5,-38.5 208.5,-57.5 318.5,-57.5 318.5,-38.5 208.5,-38.5"/>
<text text-anchor="middle" x="263.5" y="-45.5" font-family="Helvetica,sans-Serif" font-size="10.00">wifiGen_rad_txpow</text>
</a>
</g>
</g>
<!-- Node14&#45;&gt;Node16 -->
<g id="edge15" class="edge">
<title>Node14&#45;&gt;Node16</title>
<path fill="none" stroke="midnightblue" d="M405.1,-74.58C376.34,-69.14 342.34,-62.72 314.98,-57.54"/>
<polygon fill="midnightblue" stroke="midnightblue" points="404.56,-78.04 415.04,-76.46 405.86,-71.16 404.56,-78.04"/>
</g>
<!-- Node18 -->
<g id="node18" class="node">
<title>Node18</title>
<g id="a_node18"><a xlink:href="wld__nl80211__scan_8c.html#ae565c1ef858205e4bf46023494976e72" target="_top" xlink:title=" ">
<polygon fill="white" stroke="black" points="188.5,-0.5 188.5,-19.5 338.5,-19.5 338.5,-0.5 188.5,-0.5"/>
<text text-anchor="middle" x="263.5" y="-7.5" font-family="Helvetica,sans-Serif" font-size="10.00">wld_rad_nl80211_startScan</text>
</a>
</g>
</g>
<!-- Node17&#45;&gt;Node18 -->
<g id="edge17" class="edge">
<title>Node17&#45;&gt;Node18</title>
<path fill="none" stroke="midnightblue" d="M373.28,-20.28C361.63,-19.18 349.84,-18.07 338.53,-17"/>
<polygon fill="midnightblue" stroke="midnightblue" points="373.17,-23.79 383.46,-21.24 373.83,-16.82 373.17,-23.79"/>
</g>
</g>
</svg>
