<?xml version="1.0" encoding="UTF-8" standalone="no"?>
<!DOCTYPE svg PUBLIC "-//W3C//DTD SVG 1.1//EN"
 "http://www.w3.org/Graphics/SVG/1.1/DTD/svg11.dtd">
<!-- Generated by graphviz version 2.43.0 (0)
 -->
<!-- Title: include/wld/wld_endpoint.h Pages: 1 -->
<svg width="5589pt" height="308pt"
 viewBox="0.00 0.00 5589.19 308.00" xmlns="http://www.w3.org/2000/svg" xmlns:xlink="http://www.w3.org/1999/xlink">
<g id="graph0" class="graph" transform="scale(1 1) rotate(0) translate(4 304)">
<title>include/wld/wld_endpoint.h</title>
<polygon fill="white" stroke="transparent" points="-4,4 -4,-304 5585.19,-304 5585.19,4 -4,4"/>
<!-- Node1 -->
<g id="node1" class="node">
<title>Node1</title>
<g id="a_node1"><a xlink:title=" ">
<polygon fill="#bfbfbf" stroke="black" points="2380,-280.5 2380,-299.5 2529,-299.5 2529,-280.5 2380,-280.5"/>
<text text-anchor="middle" x="2454.5" y="-287.5" font-family="Helvetica,sans-Serif" font-size="10.00">include/wld/wld_endpoint.h</text>
</a>
</g>
</g>
<!-- Node2 -->
<g id="node2" class="node">
<title>Node2</title>
<g id="a_node2"><a xlink:href="wld_8h.html" target="_top" xlink:title=" ">
<polygon fill="white" stroke="red" points="2464,-168.5 2464,-187.5 2507,-187.5 2507,-168.5 2464,-168.5"/>
<text text-anchor="middle" x="2485.5" y="-175.5" font-family="Helvetica,sans-Serif" font-size="10.00">wld.h</text>
</a>
</g>
</g>
<!-- Node1&#45;&gt;Node2 -->
<g id="edge1" class="edge">
<title>Node1&#45;&gt;Node2</title>
<path fill="none" stroke="midnightblue" d="M2456.93,-280.37C2461.96,-262.54 2473.58,-221.3 2480.35,-197.27"/>
<polygon fill="midnightblue" stroke="midnightblue" points="2483.73,-198.17 2483.08,-187.59 2477,-196.27 2483.73,-198.17"/>
</g>
<!-- Node75 -->
<g id="node50" class="node">
<title>Node75</title>
<g id="a_node50"><a xlink:href="wld__wps_8h.html" target="_top" xlink:title=" ">
<polygon fill="white" stroke="black" points="2389.5,-224.5 2389.5,-243.5 2457.5,-243.5 2457.5,-224.5 2389.5,-224.5"/>
<text text-anchor="middle" x="2423.5" y="-231.5" font-family="Helvetica,sans-Serif" font-size="10.00">wld_wps.h</text>
</a>
</g>
</g>
<!-- Node1&#45;&gt;Node75 -->
<g id="edge62" class="edge">
<title>Node1&#45;&gt;Node75</title>
<path fill="none" stroke="midnightblue" d="M2449.38,-280.08C2445.09,-272.61 2438.84,-261.72 2433.56,-252.52"/>
<polygon fill="midnightblue" stroke="midnightblue" points="2436.54,-250.68 2428.52,-243.75 2430.47,-254.17 2436.54,-250.68"/>
</g>
<!-- Node3 -->
<g id="node3" class="node">
<title>Node3</title>
<g id="a_node3"><a xlink:title=" ">
<polygon fill="white" stroke="#bfbfbf" points="660.5,-56.5 660.5,-75.5 722.5,-75.5 722.5,-56.5 660.5,-56.5"/>
<text text-anchor="middle" x="691.5" y="-63.5" font-family="Helvetica,sans-Serif" font-size="10.00">stdbool.h</text>
</a>
</g>
</g>
<!-- Node2&#45;&gt;Node3 -->
<g id="edge2" class="edge">
<title>Node2&#45;&gt;Node3</title>
<path fill="none" stroke="midnightblue" d="M2507.1,-176.89C2780.03,-175.54 5547.85,-161.07 5576.5,-132 5582.74,-125.67 5582.76,-118.31 5576.5,-112 5531.34,-66.42 1202.99,-66.8 732.79,-66.98"/>
<polygon fill="midnightblue" stroke="midnightblue" points="732.71,-63.48 722.71,-66.98 732.71,-70.48 732.71,-63.48"/>
</g>
<!-- Node4 -->
<g id="node4" class="node">
<title>Node4</title>
<g id="a_node4"><a xlink:title=" ">
<polygon fill="white" stroke="#bfbfbf" points="0,-0.5 0,-19.5 53,-19.5 53,-0.5 0,-0.5"/>
<text text-anchor="middle" x="26.5" y="-7.5" font-family="Helvetica,sans-Serif" font-size="10.00">stdint.h</text>
</a>
</g>
</g>
<!-- Node2&#45;&gt;Node4 -->
<g id="edge3" class="edge">
<title>Node2&#45;&gt;Node4</title>
<path fill="none" stroke="midnightblue" d="M2463.89,-176.89C2228.65,-175.65 150.44,-163.79 96.5,-132 58.29,-109.48 38.96,-57.45 31.03,-29.52"/>
<polygon fill="midnightblue" stroke="midnightblue" points="34.4,-28.57 28.46,-19.8 27.63,-30.36 34.4,-28.57"/>
</g>
<!-- Node5 -->
<g id="node5" class="node">
<title>Node5</title>
<g id="a_node5"><a xlink:title=" ">
<polygon fill="white" stroke="#bfbfbf" points="350.5,-56.5 350.5,-75.5 460.5,-75.5 460.5,-56.5 350.5,-56.5"/>
<text text-anchor="middle" x="405.5" y="-63.5" font-family="Helvetica,sans-Serif" font-size="10.00">swl/swl_common.h</text>
</a>
</g>
</g>
<!-- Node2&#45;&gt;Node5 -->
<g id="edge4" class="edge">
<title>Node2&#45;&gt;Node5</title>
<path fill="none" stroke="midnightblue" d="M2463.8,-176.98C2264.85,-176.71 760.38,-173.36 565.5,-132 542.89,-127.2 538.89,-120.75 517.5,-112 490.13,-100.8 458.9,-88.27 436.39,-79.29"/>
<polygon fill="midnightblue" stroke="midnightblue" points="437.59,-76 427,-75.55 435,-82.5 437.59,-76"/>
</g>
<!-- Node6 -->
<g id="node6" class="node">
<title>Node6</title>
<g id="a_node6"><a xlink:title=" ">
<polygon fill="white" stroke="#bfbfbf" points="778.5,-112.5 778.5,-131.5 914.5,-131.5 914.5,-112.5 778.5,-112.5"/>
<text text-anchor="middle" x="846.5" y="-119.5" font-family="Helvetica,sans-Serif" font-size="10.00">swla/swla_commonLib.h</text>
</a>
</g>
</g>
<!-- Node2&#45;&gt;Node6 -->
<g id="edge5" class="edge">
<title>Node2&#45;&gt;Node6</title>
<path fill="none" stroke="midnightblue" d="M2463.89,-177.09C2326.46,-177.51 1560.21,-177.69 925.18,-132.05"/>
<polygon fill="midnightblue" stroke="midnightblue" points="925.13,-128.54 914.9,-131.31 924.63,-135.52 925.13,-128.54"/>
</g>
<!-- Node7 -->
<g id="node7" class="node">
<title>Node7</title>
<g id="a_node7"><a xlink:title=" ">
<polygon fill="white" stroke="#bfbfbf" points="932.5,-112.5 932.5,-131.5 1020.5,-131.5 1020.5,-112.5 932.5,-112.5"/>
<text text-anchor="middle" x="976.5" y="-119.5" font-family="Helvetica,sans-Serif" font-size="10.00">swl/swl_uuid.h</text>
</a>
</g>
</g>
<!-- Node2&#45;&gt;Node7 -->
<g id="edge6" class="edge">
<title>Node2&#45;&gt;Node7</title>
<path fill="none" stroke="midnightblue" d="M2463.68,-176.74C2306.64,-174.79 1346.14,-161.82 1030.73,-131.95"/>
<polygon fill="midnightblue" stroke="midnightblue" points="1030.98,-128.46 1020.68,-130.97 1030.3,-135.42 1030.98,-128.46"/>
</g>
<!-- Node8 -->
<g id="node8" class="node">
<title>Node8</title>
<g id="a_node8"><a xlink:title=" ">
<polygon fill="white" stroke="#bfbfbf" points="1038.5,-112.5 1038.5,-131.5 1190.5,-131.5 1190.5,-112.5 1038.5,-112.5"/>
<text text-anchor="middle" x="1114.5" y="-119.5" font-family="Helvetica,sans-Serif" font-size="10.00">swla/swla_radioStandards.h</text>
</a>
</g>
</g>
<!-- Node2&#45;&gt;Node8 -->
<g id="edge7" class="edge">
<title>Node2&#45;&gt;Node8</title>
<path fill="none" stroke="midnightblue" d="M2463.88,-176.8C2341.22,-175.57 1720.38,-167.79 1201.23,-131.99"/>
<polygon fill="midnightblue" stroke="midnightblue" points="1201.13,-128.47 1190.91,-131.27 1200.64,-135.46 1201.13,-128.47"/>
</g>
<!-- Node9 -->
<g id="node9" class="node">
<title>Node9</title>
<g id="a_node9"><a xlink:title=" ">
<polygon fill="white" stroke="#bfbfbf" points="207,-0.5 207,-19.5 308,-19.5 308,-0.5 207,-0.5"/>
<text text-anchor="middle" x="257.5" y="-7.5" font-family="Helvetica,sans-Serif" font-size="10.00">swla/swla_time.h</text>
</a>
</g>
</g>
<!-- Node2&#45;&gt;Node9 -->
<g id="edge8" class="edge">
<title>Node2&#45;&gt;Node9</title>
<path fill="none" stroke="midnightblue" d="M2463.92,-177.01C2229.02,-177.08 154.1,-176.43 110.5,-132 67.26,-87.93 165.37,-43.75 221.59,-23.09"/>
<polygon fill="midnightblue" stroke="midnightblue" points="223,-26.3 231.22,-19.62 220.63,-19.71 223,-26.3"/>
</g>
<!-- Node10 -->
<g id="node10" class="node">
<title>Node10</title>
<g id="a_node10"><a xlink:title=" ">
<polygon fill="white" stroke="#bfbfbf" points="1209,-112.5 1209,-131.5 1338,-131.5 1338,-112.5 1209,-112.5"/>
<text text-anchor="middle" x="1273.5" y="-119.5" font-family="Helvetica,sans-Serif" font-size="10.00">swla/swla_time_spec.h</text>
</a>
</g>
</g>
<!-- Node2&#45;&gt;Node10 -->
<g id="edge9" class="edge">
<title>Node2&#45;&gt;Node10</title>
<path fill="none" stroke="midnightblue" d="M2463.76,-176.8C2349.32,-175.61 1804.92,-168.26 1348.14,-131.97"/>
<polygon fill="midnightblue" stroke="midnightblue" points="1348.29,-128.47 1338.04,-131.16 1347.73,-135.45 1348.29,-128.47"/>
</g>
<!-- Node11 -->
<g id="node11" class="node">
<title>Node11</title>
<g id="a_node11"><a xlink:title=" ">
<polygon fill="white" stroke="#bfbfbf" points="1356.5,-112.5 1356.5,-131.5 1450.5,-131.5 1450.5,-112.5 1356.5,-112.5"/>
<text text-anchor="middle" x="1403.5" y="-119.5" font-family="Helvetica,sans-Serif" font-size="10.00">swla/swla_oui.h</text>
</a>
</g>
</g>
<!-- Node2&#45;&gt;Node11 -->
<g id="edge10" class="edge">
<title>Node2&#45;&gt;Node11</title>
<path fill="none" stroke="midnightblue" d="M2463.77,-176.98C2356.16,-176.67 1869.43,-173.02 1460.75,-132"/>
<polygon fill="midnightblue" stroke="midnightblue" points="1460.8,-128.48 1450.5,-130.96 1460.1,-135.45 1460.8,-128.48"/>
</g>
<!-- Node12 -->
<g id="node12" class="node">
<title>Node12</title>
<g id="a_node12"><a xlink:title=" ">
<polygon fill="white" stroke="#bfbfbf" points="1468.5,-112.5 1468.5,-131.5 1596.5,-131.5 1596.5,-112.5 1468.5,-112.5"/>
<text text-anchor="middle" x="1532.5" y="-119.5" font-family="Helvetica,sans-Serif" font-size="10.00">swla/swla_delayExec.h</text>
</a>
</g>
</g>
<!-- Node2&#45;&gt;Node12 -->
<g id="edge11" class="edge">
<title>Node2&#45;&gt;Node12</title>
<path fill="none" stroke="midnightblue" d="M2463.72,-176.45C2365.68,-173.84 1955.43,-161.66 1606.69,-131.94"/>
<polygon fill="midnightblue" stroke="midnightblue" points="1606.91,-128.45 1596.65,-131.08 1606.31,-135.42 1606.91,-128.45"/>
</g>
<!-- Node13 -->
<g id="node13" class="node">
<title>Node13</title>
<g id="a_node13"><a xlink:title=" ">
<polygon fill="white" stroke="#bfbfbf" points="1615,-112.5 1615,-131.5 1734,-131.5 1734,-112.5 1615,-112.5"/>
<text text-anchor="middle" x="1674.5" y="-119.5" font-family="Helvetica,sans-Serif" font-size="10.00">swla/swla_function.h</text>
</a>
</g>
</g>
<!-- Node2&#45;&gt;Node13 -->
<g id="edge12" class="edge">
<title>Node2&#45;&gt;Node13</title>
<path fill="none" stroke="midnightblue" d="M2463.91,-176.24C2375.94,-173.01 2035.85,-159.45 1744.65,-132.04"/>
<polygon fill="midnightblue" stroke="midnightblue" points="1744.6,-128.52 1734.31,-131.06 1743.94,-135.49 1744.6,-128.52"/>
</g>
<!-- Node14 -->
<g id="node14" class="node">
<title>Node14</title>
<g id="a_node14"><a xlink:title=" ">
<polygon fill="white" stroke="#bfbfbf" points="1752,-112.5 1752,-131.5 1893,-131.5 1893,-112.5 1752,-112.5"/>
<text text-anchor="middle" x="1822.5" y="-119.5" font-family="Helvetica,sans-Serif" font-size="10.00">swl/swl_usp_cmdStatus.h</text>
</a>
</g>
</g>
<!-- Node2&#45;&gt;Node14 -->
<g id="edge13" class="edge">
<title>Node2&#45;&gt;Node14</title>
<path fill="none" stroke="midnightblue" d="M2463.77,-175.6C2388.12,-170.66 2129.04,-153.27 1903.21,-132.03"/>
<polygon fill="midnightblue" stroke="midnightblue" points="1903.44,-128.54 1893.16,-131.08 1902.78,-135.51 1903.44,-128.54"/>
</g>
<!-- Node15 -->
<g id="node15" class="node">
<title>Node15</title>
<g id="a_node15"><a xlink:title=" ">
<polygon fill="white" stroke="#bfbfbf" points="1911.5,-112.5 1911.5,-131.5 1997.5,-131.5 1997.5,-112.5 1911.5,-112.5"/>
<text text-anchor="middle" x="1954.5" y="-119.5" font-family="Helvetica,sans-Serif" font-size="10.00">swl/swl_wps.h</text>
</a>
</g>
</g>
<!-- Node2&#45;&gt;Node15 -->
<g id="edge14" class="edge">
<title>Node2&#45;&gt;Node15</title>
<path fill="none" stroke="midnightblue" d="M2463.95,-175.58C2397.56,-171.06 2190.12,-156.01 2007.64,-132.05"/>
<polygon fill="midnightblue" stroke="midnightblue" points="2007.96,-128.57 1997.59,-130.72 2007.04,-135.51 2007.96,-128.57"/>
</g>
<!-- Node16 -->
<g id="node16" class="node">
<title>Node16</title>
<g id="a_node16"><a xlink:title=" ">
<polygon fill="white" stroke="#bfbfbf" points="2015.5,-112.5 2015.5,-131.5 2119.5,-131.5 2119.5,-112.5 2015.5,-112.5"/>
<text text-anchor="middle" x="2067.5" y="-119.5" font-family="Helvetica,sans-Serif" font-size="10.00">swl/swl_security.h</text>
</a>
</g>
</g>
<!-- Node2&#45;&gt;Node16 -->
<g id="edge15" class="edge">
<title>Node2&#45;&gt;Node16</title>
<path fill="none" stroke="midnightblue" d="M2463.81,-174.4C2408.21,-167.7 2256.05,-149.18 2129.5,-132 2129.4,-131.99 2129.3,-131.97 2129.2,-131.96"/>
<polygon fill="midnightblue" stroke="midnightblue" points="2129.97,-128.53 2119.59,-130.63 2129.01,-135.47 2129.97,-128.53"/>
</g>
<!-- Node17 -->
<g id="node17" class="node">
<title>Node17</title>
<g id="a_node17"><a xlink:title=" ">
<polygon fill="white" stroke="#bfbfbf" points="2138,-112.5 2138,-131.5 2221,-131.5 2221,-112.5 2138,-112.5"/>
<text text-anchor="middle" x="2179.5" y="-119.5" font-family="Helvetica,sans-Serif" font-size="10.00">amxc/amxc.h</text>
</a>
</g>
</g>
<!-- Node2&#45;&gt;Node17 -->
<g id="edge16" class="edge">
<title>Node2&#45;&gt;Node17</title>
<path fill="none" stroke="midnightblue" d="M2463.98,-173.2C2416.04,-164.74 2299.32,-144.14 2231.21,-132.13"/>
<polygon fill="midnightblue" stroke="midnightblue" points="2231.58,-128.64 2221.13,-130.35 2230.37,-135.53 2231.58,-128.64"/>
</g>
<!-- Node18 -->
<g id="node18" class="node">
<title>Node18</title>
<g id="a_node18"><a xlink:title=" ">
<polygon fill="white" stroke="#bfbfbf" points="2239.5,-112.5 2239.5,-131.5 2323.5,-131.5 2323.5,-112.5 2239.5,-112.5"/>
<text text-anchor="middle" x="2281.5" y="-119.5" font-family="Helvetica,sans-Serif" font-size="10.00">amxp/amxp.h</text>
</a>
</g>
</g>
<!-- Node2&#45;&gt;Node18 -->
<g id="edge17" class="edge">
<title>Node2&#45;&gt;Node18</title>
<path fill="none" stroke="midnightblue" d="M2463.67,-171.22C2430.36,-162.41 2366.25,-145.43 2323.67,-134.16"/>
<polygon fill="midnightblue" stroke="midnightblue" points="2324.43,-130.74 2313.87,-131.57 2322.64,-137.51 2324.43,-130.74"/>
</g>
<!-- Node19 -->
<g id="node19" class="node">
<title>Node19</title>
<g id="a_node19"><a xlink:title=" ">
<polygon fill="white" stroke="#bfbfbf" points="2341.5,-112.5 2341.5,-131.5 2481.5,-131.5 2481.5,-112.5 2341.5,-112.5"/>
<text text-anchor="middle" x="2411.5" y="-119.5" font-family="Helvetica,sans-Serif" font-size="10.00">amxd/amxd_parameter.h</text>
</a>
</g>
</g>
<!-- Node2&#45;&gt;Node19 -->
<g id="edge18" class="edge">
<title>Node2&#45;&gt;Node19</title>
<path fill="none" stroke="midnightblue" d="M2473.61,-168.32C2462.35,-160.11 2445.21,-147.6 2431.79,-137.81"/>
<polygon fill="midnightblue" stroke="midnightblue" points="2433.75,-134.9 2423.61,-131.83 2429.62,-140.56 2433.75,-134.9"/>
</g>
<!-- Node20 -->
<g id="node20" class="node">
<title>Node20</title>
<g id="a_node20"><a xlink:title=" ">
<polygon fill="white" stroke="#bfbfbf" points="2500,-112.5 2500,-131.5 2619,-131.5 2619,-112.5 2500,-112.5"/>
<text text-anchor="middle" x="2559.5" y="-119.5" font-family="Helvetica,sans-Serif" font-size="10.00">amxd/amxd_action.h</text>
</a>
</g>
</g>
<!-- Node2&#45;&gt;Node20 -->
<g id="edge19" class="edge">
<title>Node2&#45;&gt;Node20</title>
<path fill="none" stroke="midnightblue" d="M2497.39,-168.32C2508.65,-160.11 2525.79,-147.6 2539.21,-137.81"/>
<polygon fill="midnightblue" stroke="midnightblue" points="2541.38,-140.56 2547.39,-131.83 2537.25,-134.9 2541.38,-140.56"/>
</g>
<!-- Node21 -->
<g id="node21" class="node">
<title>Node21</title>
<g id="a_node21"><a xlink:title=" ">
<polygon fill="white" stroke="#bfbfbf" points="2637,-112.5 2637,-131.5 2812,-131.5 2812,-112.5 2637,-112.5"/>
<text text-anchor="middle" x="2724.5" y="-119.5" font-family="Helvetica,sans-Serif" font-size="10.00">amxd/amxd_object_parameter.h</text>
</a>
</g>
</g>
<!-- Node2&#45;&gt;Node21 -->
<g id="edge20" class="edge">
<title>Node2&#45;&gt;Node21</title>
<path fill="none" stroke="midnightblue" d="M2507.13,-172.11C2545.27,-163.5 2625.29,-145.42 2676.88,-133.76"/>
<polygon fill="midnightblue" stroke="midnightblue" points="2677.81,-137.14 2686.8,-131.52 2676.27,-130.31 2677.81,-137.14"/>
</g>
<!-- Node22 -->
<g id="node22" class="node">
<title>Node22</title>
<g id="a_node22"><a xlink:title=" ">
<polygon fill="white" stroke="#bfbfbf" points="2830.5,-112.5 2830.5,-131.5 2982.5,-131.5 2982.5,-112.5 2830.5,-112.5"/>
<text text-anchor="middle" x="2906.5" y="-119.5" font-family="Helvetica,sans-Serif" font-size="10.00">amxd/amxd_object_event.h</text>
</a>
</g>
</g>
<!-- Node2&#45;&gt;Node22 -->
<g id="edge21" class="edge">
<title>Node2&#45;&gt;Node22</title>
<path fill="none" stroke="midnightblue" d="M2507.25,-174.21C2566.2,-166.65 2731.22,-145.48 2829.68,-132.85"/>
<polygon fill="midnightblue" stroke="midnightblue" points="2830.4,-136.29 2839.87,-131.55 2829.51,-129.35 2830.4,-136.29"/>
</g>
<!-- Node23 -->
<g id="node23" class="node">
<title>Node23</title>
<g id="a_node23"><a xlink:title=" ">
<polygon fill="white" stroke="#bfbfbf" points="3001,-112.5 3001,-131.5 3130,-131.5 3130,-112.5 3001,-112.5"/>
<text text-anchor="middle" x="3065.5" y="-119.5" font-family="Helvetica,sans-Serif" font-size="10.00">amxd/amxd_function.h</text>
</a>
</g>
</g>
<!-- Node2&#45;&gt;Node23 -->
<g id="edge22" class="edge">
<title>Node2&#45;&gt;Node23</title>
<path fill="none" stroke="midnightblue" d="M2507.22,-175.32C2576.19,-169.94 2796.53,-152.33 2990.83,-132.04"/>
<polygon fill="midnightblue" stroke="midnightblue" points="2991.36,-135.5 3000.94,-130.98 2990.63,-128.54 2991.36,-135.5"/>
</g>
<!-- Node24 -->
<g id="node24" class="node">
<title>Node24</title>
<g id="a_node24"><a xlink:title=" ">
<polygon fill="white" stroke="#bfbfbf" points="3148,-112.5 3148,-131.5 3317,-131.5 3317,-112.5 3148,-112.5"/>
<text text-anchor="middle" x="3232.5" y="-119.5" font-family="Helvetica,sans-Serif" font-size="10.00">amxd/amxd_object_hierarchy.h</text>
</a>
</g>
</g>
<!-- Node2&#45;&gt;Node24 -->
<g id="edge23" class="edge">
<title>Node2&#45;&gt;Node24</title>
<path fill="none" stroke="midnightblue" d="M2507.25,-175.72C2588.69,-170.9 2883.47,-153.02 3137.7,-132.13"/>
<polygon fill="midnightblue" stroke="midnightblue" points="3138.18,-135.6 3147.86,-131.29 3137.61,-128.63 3138.18,-135.6"/>
</g>
<!-- Node25 -->
<g id="node25" class="node">
<title>Node25</title>
<g id="a_node25"><a xlink:title=" ">
<polygon fill="white" stroke="#bfbfbf" points="3335,-112.5 3335,-131.5 3454,-131.5 3454,-112.5 3335,-112.5"/>
<text text-anchor="middle" x="3394.5" y="-119.5" font-family="Helvetica,sans-Serif" font-size="10.00">amxd/amxd_object.h</text>
</a>
</g>
</g>
<!-- Node2&#45;&gt;Node25 -->
<g id="edge24" class="edge">
<title>Node2&#45;&gt;Node25</title>
<path fill="none" stroke="midnightblue" d="M2507.31,-176.46C2602.76,-173.97 2993.34,-162.4 3324.55,-132.11"/>
<polygon fill="midnightblue" stroke="midnightblue" points="3325.19,-135.57 3334.83,-131.17 3324.55,-128.6 3325.19,-135.57"/>
</g>
<!-- Node26 -->
<g id="node26" class="node">
<title>Node26</title>
<g id="a_node26"><a xlink:title=" ">
<polygon fill="white" stroke="#bfbfbf" points="3472,-112.5 3472,-131.5 3577,-131.5 3577,-112.5 3472,-112.5"/>
<text text-anchor="middle" x="3524.5" y="-119.5" font-family="Helvetica,sans-Serif" font-size="10.00">amxd/amxd_dm.h</text>
</a>
</g>
</g>
<!-- Node2&#45;&gt;Node26 -->
<g id="edge25" class="edge">
<title>Node2&#45;&gt;Node26</title>
<path fill="none" stroke="midnightblue" d="M2507.24,-176.81C2611.81,-175.72 3073.58,-168.98 3461.94,-132.05"/>
<polygon fill="midnightblue" stroke="midnightblue" points="3462.35,-135.53 3471.97,-131.09 3461.68,-128.56 3462.35,-135.53"/>
</g>
<!-- Node27 -->
<g id="node27" class="node">
<title>Node27</title>
<g id="a_node27"><a xlink:title=" ">
<polygon fill="white" stroke="#bfbfbf" points="3595.5,-112.5 3595.5,-131.5 3739.5,-131.5 3739.5,-112.5 3595.5,-112.5"/>
<text text-anchor="middle" x="3667.5" y="-119.5" font-family="Helvetica,sans-Serif" font-size="10.00">amxd/amxd_transaction.h</text>
</a>
</g>
</g>
<!-- Node2&#45;&gt;Node27 -->
<g id="edge26" class="edge">
<title>Node2&#45;&gt;Node27</title>
<path fill="none" stroke="midnightblue" d="M2507.26,-176.68C2619.52,-174.89 3144.5,-165.09 3585.04,-132.06"/>
<polygon fill="midnightblue" stroke="midnightblue" points="3585.39,-135.54 3595.1,-131.3 3584.86,-128.56 3585.39,-135.54"/>
</g>
<!-- Node28 -->
<g id="node28" class="node">
<title>Node28</title>
<g id="a_node28"><a xlink:title=" ">
<polygon fill="white" stroke="#bfbfbf" points="3757.5,-112.5 3757.5,-131.5 3873.5,-131.5 3873.5,-112.5 3757.5,-112.5"/>
<text text-anchor="middle" x="3815.5" y="-119.5" font-family="Helvetica,sans-Serif" font-size="10.00">amxb/amxb_types.h</text>
</a>
</g>
</g>
<!-- Node2&#45;&gt;Node28 -->
<g id="edge27" class="edge">
<title>Node2&#45;&gt;Node28</title>
<path fill="none" stroke="midnightblue" d="M2507.17,-177.02C2628.76,-176.97 3238.64,-174.57 3747.32,-132.01"/>
<polygon fill="midnightblue" stroke="midnightblue" points="3747.76,-135.48 3757.43,-131.15 3747.17,-128.51 3747.76,-135.48"/>
</g>
<!-- Node29 -->
<g id="node29" class="node">
<title>Node29</title>
<g id="a_node29"><a xlink:title=" ">
<polygon fill="white" stroke="#bfbfbf" points="3891.5,-112.5 3891.5,-131.5 4027.5,-131.5 4027.5,-112.5 3891.5,-112.5"/>
<text text-anchor="middle" x="3959.5" y="-119.5" font-family="Helvetica,sans-Serif" font-size="10.00">amxb/amxb_operators.h</text>
</a>
</g>
</g>
<!-- Node2&#45;&gt;Node29 -->
<g id="edge28" class="edge">
<title>Node2&#45;&gt;Node29</title>
<path fill="none" stroke="midnightblue" d="M2507.29,-176.99C2636.58,-176.76 3316.08,-173.59 3881.12,-132.04"/>
<polygon fill="midnightblue" stroke="midnightblue" points="3881.38,-135.53 3891.09,-131.3 3880.86,-128.55 3881.38,-135.53"/>
</g>
<!-- Node30 -->
<g id="node30" class="node">
<title>Node30</title>
<g id="a_node30"><a xlink:title=" ">
<polygon fill="white" stroke="#bfbfbf" points="4045.5,-112.5 4045.5,-131.5 4157.5,-131.5 4157.5,-112.5 4045.5,-112.5"/>
<text text-anchor="middle" x="4101.5" y="-119.5" font-family="Helvetica,sans-Serif" font-size="10.00">amxb/amxb_error.h</text>
</a>
</g>
</g>
<!-- Node2&#45;&gt;Node30 -->
<g id="edge29" class="edge">
<title>Node2&#45;&gt;Node30</title>
<path fill="none" stroke="midnightblue" d="M2507.14,-176.7C2669.43,-174.37 3698.65,-158.74 4034.94,-132.01"/>
<polygon fill="midnightblue" stroke="midnightblue" points="4035.49,-135.48 4045.17,-131.18 4034.92,-128.51 4035.49,-135.48"/>
</g>
<!-- Node31 -->
<g id="node31" class="node">
<title>Node31</title>
<g id="a_node31"><a xlink:title=" ">
<polygon fill="white" stroke="#bfbfbf" points="4176,-112.5 4176,-131.5 4259,-131.5 4259,-112.5 4176,-112.5"/>
<text text-anchor="middle" x="4217.5" y="-119.5" font-family="Helvetica,sans-Serif" font-size="10.00">amxo/amxo.h</text>
</a>
</g>
</g>
<!-- Node2&#45;&gt;Node31 -->
<g id="edge30" class="edge">
<title>Node2&#45;&gt;Node31</title>
<path fill="none" stroke="midnightblue" d="M2507.02,-176.86C2676.71,-175.71 3801.69,-166.9 4165.79,-131.86"/>
<polygon fill="midnightblue" stroke="midnightblue" points="4166.21,-135.34 4175.82,-130.87 4165.53,-128.37 4166.21,-135.34"/>
</g>
<!-- Node32 -->
<g id="node32" class="node">
<title>Node32</title>
<g id="a_node32"><a xlink:title=" ">
<polygon fill="white" stroke="#bfbfbf" points="4277,-112.5 4277,-131.5 4392,-131.5 4392,-112.5 4277,-112.5"/>
<text text-anchor="middle" x="4334.5" y="-119.5" font-family="Helvetica,sans-Serif" font-size="10.00">amxo/amxo_types.h</text>
</a>
</g>
</g>
<!-- Node2&#45;&gt;Node32 -->
<g id="edge31" class="edge">
<title>Node2&#45;&gt;Node32</title>
<path fill="none" stroke="midnightblue" d="M2507.18,-176.78C2683.21,-174.97 3881.23,-161.71 4266.88,-132.02"/>
<polygon fill="midnightblue" stroke="midnightblue" points="4267.25,-135.5 4276.95,-131.23 4266.7,-128.53 4267.25,-135.5"/>
</g>
<!-- Node33 -->
<g id="node33" class="node">
<title>Node33</title>
<g id="a_node33"><a xlink:href="wld__types_8h.html" target="_top" xlink:title=" ">
<polygon fill="white" stroke="red" points="220,-56.5 220,-75.5 295,-75.5 295,-56.5 220,-56.5"/>
<text text-anchor="middle" x="257.5" y="-63.5" font-family="Helvetica,sans-Serif" font-size="10.00">wld_types.h</text>
</a>
</g>
</g>
<!-- Node2&#45;&gt;Node33 -->
<g id="edge32" class="edge">
<title>Node2&#45;&gt;Node33</title>
<path fill="none" stroke="midnightblue" d="M2463.66,-177.01C2228.07,-177.06 164.87,-176.2 121.5,-132 90.64,-100.54 159.23,-82.35 209.78,-73.57"/>
<polygon fill="midnightblue" stroke="midnightblue" points="210.64,-76.98 219.94,-71.89 209.5,-70.07 210.64,-76.98"/>
</g>
<!-- Node34 -->
<g id="node34" class="node">
<title>Node34</title>
<g id="a_node34"><a xlink:title=" ">
<polygon fill="white" stroke="#bfbfbf" points="502,-0.5 502,-19.5 647,-19.5 647,-0.5 502,-0.5"/>
<text text-anchor="middle" x="574.5" y="-7.5" font-family="Helvetica,sans-Serif" font-size="10.00">swl/types/swl_arrayType.h</text>
</a>
</g>
</g>
<!-- Node2&#45;&gt;Node34 -->
<g id="edge60" class="edge">
<title>Node2&#45;&gt;Node34</title>
<path fill="none" stroke="midnightblue" d="M2463.9,-177.07C2270.65,-177.58 844.5,-179.72 769.5,-132 737.64,-111.73 760.55,-80.13 731.5,-56 710.52,-38.57 683.13,-27.88 657.12,-21.34"/>
<polygon fill="midnightblue" stroke="midnightblue" points="657.77,-17.89 647.23,-19.02 656.17,-24.71 657.77,-17.89"/>
</g>
<!-- Node36 -->
<g id="node35" class="node">
<title>Node36</title>
<g id="a_node35"><a xlink:href="wld__channel__types_8h.html" target="_top" xlink:title=" ">
<polygon fill="white" stroke="black" points="603,-112.5 603,-131.5 722,-131.5 722,-112.5 603,-112.5"/>
<text text-anchor="middle" x="662.5" y="-119.5" font-family="Helvetica,sans-Serif" font-size="10.00">wld_channel_types.h</text>
</a>
</g>
</g>
<!-- Node2&#45;&gt;Node36 -->
<g id="edge36" class="edge">
<title>Node2&#45;&gt;Node36</title>
<path fill="none" stroke="midnightblue" d="M2463.96,-176.73C2288.8,-174.49 1095.47,-158.39 736.5,-132 735.19,-131.9 733.87,-131.8 732.55,-131.69"/>
<polygon fill="midnightblue" stroke="midnightblue" points="732.5,-128.17 722.23,-130.76 731.87,-135.15 732.5,-128.17"/>
</g>
<!-- Node37 -->
<g id="node36" class="node">
<title>Node37</title>
<g id="a_node36"><a xlink:title=" ">
<polygon fill="white" stroke="#bfbfbf" points="479,-56.5 479,-75.5 604,-75.5 604,-56.5 479,-56.5"/>
<text text-anchor="middle" x="541.5" y="-63.5" font-family="Helvetica,sans-Serif" font-size="10.00">swla/swla_chanspec.h</text>
</a>
</g>
</g>
<!-- Node2&#45;&gt;Node37 -->
<g id="edge54" class="edge">
<title>Node2&#45;&gt;Node37</title>
<path fill="none" stroke="midnightblue" d="M2463.73,-177C2259.33,-176.96 682.75,-175.21 594.5,-132 574.33,-122.13 559.23,-100.56 550.41,-84.97"/>
<polygon fill="midnightblue" stroke="midnightblue" points="553.31,-82.97 545.53,-75.77 547.12,-86.25 553.31,-82.97"/>
</g>
<!-- Node38 -->
<g id="node37" class="node">
<title>Node38</title>
<g id="a_node37"><a xlink:href="wld__bgdfs_8h.html" target="_top" xlink:title=" ">
<polygon fill="white" stroke="black" points="131,-112.5 131,-131.5 206,-131.5 206,-112.5 131,-112.5"/>
<text text-anchor="middle" x="168.5" y="-119.5" font-family="Helvetica,sans-Serif" font-size="10.00">wld_bgdfs.h</text>
</a>
</g>
</g>
<!-- Node2&#45;&gt;Node38 -->
<g id="edge40" class="edge">
<title>Node2&#45;&gt;Node38</title>
<path fill="none" stroke="midnightblue" d="M2463.95,-177.09C2262.46,-177.86 705.31,-182.12 216.03,-131.95"/>
<polygon fill="midnightblue" stroke="midnightblue" points="216.39,-128.46 206.07,-130.9 215.66,-135.43 216.39,-128.46"/>
</g>
<!-- Node39 -->
<g id="node38" class="node">
<title>Node39</title>
<g id="a_node38"><a xlink:href="wld__rad__delayMgr_8h.html" target="_top" xlink:title=" ">
<polygon fill="white" stroke="black" points="4410.5,-112.5 4410.5,-131.5 4524.5,-131.5 4524.5,-112.5 4410.5,-112.5"/>
<text text-anchor="middle" x="4467.5" y="-119.5" font-family="Helvetica,sans-Serif" font-size="10.00">wld_rad_delayMgr.h</text>
</a>
</g>
</g>
<!-- Node2&#45;&gt;Node39 -->
<g id="edge42" class="edge">
<title>Node2&#45;&gt;Node39</title>
<path fill="none" stroke="midnightblue" d="M2507.24,-176.81C2692.01,-175.22 3999.46,-163.31 4392.5,-132 4395.02,-131.8 4397.59,-131.57 4400.2,-131.31"/>
<polygon fill="midnightblue" stroke="midnightblue" points="4400.77,-134.77 4410.33,-130.21 4400.01,-127.81 4400.77,-134.77"/>
</g>
<!-- Node40 -->
<g id="node39" class="node">
<title>Node40</title>
<g id="a_node39"><a xlink:href="wld__fsm_8h.html" target="_top" xlink:title=" ">
<polygon fill="white" stroke="black" points="224,-112.5 224,-131.5 291,-131.5 291,-112.5 224,-112.5"/>
<text text-anchor="middle" x="257.5" y="-119.5" font-family="Helvetica,sans-Serif" font-size="10.00">wld_fsm.h</text>
</a>
</g>
</g>
<!-- Node2&#45;&gt;Node40 -->
<g id="edge44" class="edge">
<title>Node2&#45;&gt;Node40</title>
<path fill="none" stroke="midnightblue" d="M2463.82,-177.12C2266.11,-178.18 772.19,-184.34 301.58,-132"/>
<polygon fill="midnightblue" stroke="midnightblue" points="301.67,-128.48 291.33,-130.83 300.87,-135.44 301.67,-128.48"/>
</g>
<!-- Node41 -->
<g id="node40" class="node">
<title>Node41</title>
<g id="a_node40"><a xlink:href="wld__sensing_8h.html" target="_top" xlink:title=" ">
<polygon fill="white" stroke="black" points="4542.5,-112.5 4542.5,-131.5 4628.5,-131.5 4628.5,-112.5 4542.5,-112.5"/>
<text text-anchor="middle" x="4585.5" y="-119.5" font-family="Helvetica,sans-Serif" font-size="10.00">wld_sensing.h</text>
</a>
</g>
</g>
<!-- Node2&#45;&gt;Node41 -->
<g id="edge46" class="edge">
<title>Node2&#45;&gt;Node41</title>
<path fill="none" stroke="midnightblue" d="M2507.03,-176.97C2698.1,-176.63 4103.71,-172.81 4524.5,-132 4527.01,-131.76 4529.59,-131.46 4532.19,-131.13"/>
<polygon fill="midnightblue" stroke="midnightblue" points="4532.92,-134.56 4542.33,-129.68 4531.93,-127.63 4532.92,-134.56"/>
</g>
<!-- Node42 -->
<g id="node41" class="node">
<title>Node42</title>
<g id="a_node41"><a xlink:href="wld__mld_8h.html" target="_top" xlink:title=" ">
<polygon fill="white" stroke="black" points="309,-112.5 309,-131.5 376,-131.5 376,-112.5 309,-112.5"/>
<text text-anchor="middle" x="342.5" y="-119.5" font-family="Helvetica,sans-Serif" font-size="10.00">wld_mld.h</text>
</a>
</g>
</g>
<!-- Node2&#45;&gt;Node42 -->
<g id="edge48" class="edge">
<title>Node2&#45;&gt;Node42</title>
<path fill="none" stroke="midnightblue" d="M2463.77,-177.09C2270.27,-177.8 839.67,-181.38 386.4,-131.81"/>
<polygon fill="midnightblue" stroke="midnightblue" points="386.53,-128.31 376.21,-130.67 385.75,-135.26 386.53,-128.31"/>
</g>
<!-- Node43 -->
<g id="node42" class="node">
<title>Node43</title>
<g id="a_node42"><a xlink:href="wld__autoCommitRadData_8h.html" target="_top" xlink:title=" ">
<polygon fill="white" stroke="black" points="4646.5,-112.5 4646.5,-131.5 4822.5,-131.5 4822.5,-112.5 4646.5,-112.5"/>
<text text-anchor="middle" x="4734.5" y="-119.5" font-family="Helvetica,sans-Serif" font-size="10.00">Utils/wld_autoCommitRadData.h</text>
</a>
</g>
</g>
<!-- Node2&#45;&gt;Node43 -->
<g id="edge50" class="edge">
<title>Node2&#45;&gt;Node43</title>
<path fill="none" stroke="midnightblue" d="M2507.25,-177.14C2672.71,-178.06 3749.74,-181.91 4636.4,-132.01"/>
<polygon fill="midnightblue" stroke="midnightblue" points="4636.71,-135.5 4646.49,-131.44 4636.31,-128.51 4636.71,-135.5"/>
</g>
<!-- Node44 -->
<g id="node43" class="node">
<title>Node44</title>
<g id="a_node43"><a xlink:href="wld__dmnMgt_8h.html" target="_top" xlink:title=" ">
<polygon fill="white" stroke="red" points="394.5,-112.5 394.5,-131.5 508.5,-131.5 508.5,-112.5 394.5,-112.5"/>
<text text-anchor="middle" x="451.5" y="-119.5" font-family="Helvetica,sans-Serif" font-size="10.00">Utils/wld_dmnMgt.h</text>
</a>
</g>
</g>
<!-- Node2&#45;&gt;Node44 -->
<g id="edge51" class="edge">
<title>Node2&#45;&gt;Node44</title>
<path fill="none" stroke="midnightblue" d="M2463.75,-176.81C2276.05,-175.14 927.03,-162.2 522.5,-132 521.38,-131.92 520.26,-131.83 519.13,-131.73"/>
<polygon fill="midnightblue" stroke="midnightblue" points="519.08,-128.22 508.8,-130.78 518.43,-135.19 519.08,-128.22"/>
</g>
<!-- Node46 -->
<g id="node44" class="node">
<title>Node46</title>
<g id="a_node44"><a xlink:title=" ">
<polygon fill="white" stroke="#bfbfbf" points="4841,-112.5 4841,-131.5 4942,-131.5 4942,-112.5 4841,-112.5"/>
<text text-anchor="middle" x="4891.5" y="-119.5" font-family="Helvetica,sans-Serif" font-size="10.00">swl/swl_staCap.h</text>
</a>
</g>
</g>
<!-- Node2&#45;&gt;Node46 -->
<g id="edge55" class="edge">
<title>Node2&#45;&gt;Node46</title>
<path fill="none" stroke="midnightblue" d="M2507.1,-176.97C2712.39,-176.67 4322.91,-173.02 4830.49,-131.93"/>
<polygon fill="midnightblue" stroke="midnightblue" points="4831.14,-135.39 4840.82,-131.07 4830.56,-128.41 4831.14,-135.39"/>
</g>
<!-- Node47 -->
<g id="node45" class="node">
<title>Node47</title>
<g id="a_node45"><a xlink:title=" ">
<polygon fill="white" stroke="#bfbfbf" points="4960.5,-112.5 4960.5,-131.5 5064.5,-131.5 5064.5,-112.5 4960.5,-112.5"/>
<text text-anchor="middle" x="5012.5" y="-119.5" font-family="Helvetica,sans-Serif" font-size="10.00">swla/swla_table.h</text>
</a>
</g>
</g>
<!-- Node2&#45;&gt;Node47 -->
<g id="edge56" class="edge">
<title>Node2&#45;&gt;Node47</title>
<path fill="none" stroke="midnightblue" d="M2507.19,-176.99C2718.75,-176.84 4417.64,-174.31 4950.24,-131.97"/>
<polygon fill="midnightblue" stroke="midnightblue" points="4950.62,-135.45 4960.31,-131.15 4950.06,-128.47 4950.62,-135.45"/>
</g>
<!-- Node48 -->
<g id="node46" class="node">
<title>Node48</title>
<g id="a_node46"><a xlink:title=" ">
<polygon fill="white" stroke="#bfbfbf" points="5083,-112.5 5083,-131.5 5180,-131.5 5180,-112.5 5083,-112.5"/>
<text text-anchor="middle" x="5131.5" y="-119.5" font-family="Helvetica,sans-Serif" font-size="10.00">swl/swl_assert.h</text>
</a>
</g>
</g>
<!-- Node2&#45;&gt;Node48 -->
<g id="edge57" class="edge">
<title>Node2&#45;&gt;Node48</title>
<path fill="none" stroke="midnightblue" d="M2507.23,-177.03C2724.75,-177.31 4513.36,-178.2 5072.66,-131.9"/>
<polygon fill="midnightblue" stroke="midnightblue" points="5073.15,-135.38 5082.82,-131.05 5072.57,-128.4 5073.15,-135.38"/>
</g>
<!-- Node49 -->
<g id="node47" class="node">
<title>Node49</title>
<g id="a_node47"><a xlink:title=" ">
<polygon fill="white" stroke="#bfbfbf" points="5198,-112.5 5198,-131.5 5319,-131.5 5319,-112.5 5198,-112.5"/>
<text text-anchor="middle" x="5258.5" y="-119.5" font-family="Helvetica,sans-Serif" font-size="10.00">swl/swl_returnCode.h</text>
</a>
</g>
</g>
<!-- Node2&#45;&gt;Node49 -->
<g id="edge58" class="edge">
<title>Node2&#45;&gt;Node49</title>
<path fill="none" stroke="midnightblue" d="M2507.14,-176.98C2729.59,-176.72 4603.69,-173.36 5187.77,-132.03"/>
<polygon fill="midnightblue" stroke="midnightblue" points="5188.24,-135.5 5197.96,-131.29 5187.73,-128.52 5188.24,-135.5"/>
</g>
<!-- Node50 -->
<g id="node48" class="node">
<title>Node50</title>
<g id="a_node48"><a xlink:title=" ">
<polygon fill="white" stroke="#bfbfbf" points="5337.5,-112.5 5337.5,-131.5 5463.5,-131.5 5463.5,-112.5 5337.5,-112.5"/>
<text text-anchor="middle" x="5400.5" y="-119.5" font-family="Helvetica,sans-Serif" font-size="10.00">swla/swla_tupleType.h</text>
</a>
</g>
</g>
<!-- Node2&#45;&gt;Node50 -->
<g id="edge59" class="edge">
<title>Node2&#45;&gt;Node50</title>
<path fill="none" stroke="midnightblue" d="M2507.17,-176.98C2736,-176.77 4712.44,-173.71 5327.04,-132"/>
<polygon fill="midnightblue" stroke="midnightblue" points="5327.59,-135.47 5337.32,-131.29 5327.1,-128.49 5327.59,-135.47"/>
</g>
<!-- Node51 -->
<g id="node49" class="node">
<title>Node51</title>
<g id="a_node49"><a xlink:title=" ">
<polygon fill="white" stroke="#bfbfbf" points="5481.5,-112.5 5481.5,-131.5 5567.5,-131.5 5567.5,-112.5 5481.5,-112.5"/>
<text text-anchor="middle" x="5524.5" y="-119.5" font-family="Helvetica,sans-Serif" font-size="10.00">swl/swl_mlo.h</text>
</a>
</g>
</g>
<!-- Node2&#45;&gt;Node51 -->
<g id="edge61" class="edge">
<title>Node2&#45;&gt;Node51</title>
<path fill="none" stroke="midnightblue" d="M2507.32,-176.88C2759.2,-175.47 5112.97,-161.53 5471.42,-131.87"/>
<polygon fill="midnightblue" stroke="midnightblue" points="5471.78,-135.35 5481.44,-130.99 5471.17,-128.38 5471.78,-135.35"/>
</g>
<!-- Node33&#45;&gt;Node4 -->
<g id="edge33" class="edge">
<title>Node33&#45;&gt;Node4</title>
<path fill="none" stroke="midnightblue" d="M220.9,-56.44C177.67,-46.34 106.21,-29.63 63.02,-19.54"/>
<polygon fill="midnightblue" stroke="midnightblue" points="63.74,-16.11 53.21,-17.24 62.15,-22.93 63.74,-16.11"/>
</g>
<!-- Node33&#45;&gt;Node9 -->
<g id="edge35" class="edge">
<title>Node33&#45;&gt;Node9</title>
<path fill="none" stroke="midnightblue" d="M257.5,-56.08C257.5,-49.01 257.5,-38.86 257.5,-29.99"/>
<polygon fill="midnightblue" stroke="midnightblue" points="261,-29.75 257.5,-19.75 254,-29.75 261,-29.75"/>
</g>
<!-- Node33&#45;&gt;Node34 -->
<g id="edge34" class="edge">
<title>Node33&#45;&gt;Node34</title>
<path fill="none" stroke="midnightblue" d="M295.11,-58.59C349.28,-49.36 449.85,-32.23 514.4,-21.24"/>
<polygon fill="midnightblue" stroke="midnightblue" points="515.16,-24.66 524.43,-19.53 513.99,-17.76 515.16,-24.66"/>
</g>
<!-- Node36&#45;&gt;Node3 -->
<g id="edge37" class="edge">
<title>Node36&#45;&gt;Node3</title>
<path fill="none" stroke="midnightblue" d="M667.29,-112.08C671.26,-104.69 677.03,-93.95 681.93,-84.81"/>
<polygon fill="midnightblue" stroke="midnightblue" points="685.15,-86.22 686.8,-75.75 678.99,-82.91 685.15,-86.22"/>
</g>
<!-- Node36&#45;&gt;Node9 -->
<g id="edge39" class="edge">
<title>Node36&#45;&gt;Node9</title>
<path fill="none" stroke="midnightblue" d="M658.83,-112.5C652.14,-98.13 636.49,-69.32 613.5,-56 564.64,-27.68 406.4,-16.9 318.23,-13.02"/>
<polygon fill="midnightblue" stroke="midnightblue" points="318.24,-9.52 308.1,-12.59 317.95,-16.51 318.24,-9.52"/>
</g>
<!-- Node36&#45;&gt;Node37 -->
<g id="edge38" class="edge">
<title>Node36&#45;&gt;Node37</title>
<path fill="none" stroke="midnightblue" d="M643.33,-112.44C623.59,-103.64 592.61,-89.81 570.01,-79.72"/>
<polygon fill="midnightblue" stroke="midnightblue" points="571.14,-76.4 560.58,-75.52 568.29,-82.79 571.14,-76.4"/>
</g>
<!-- Node38&#45;&gt;Node33 -->
<g id="edge41" class="edge">
<title>Node38&#45;&gt;Node33</title>
<path fill="none" stroke="midnightblue" d="M182.8,-112.32C196.68,-103.9 217.99,-90.97 234.3,-81.07"/>
<polygon fill="midnightblue" stroke="midnightblue" points="236.5,-83.83 243.24,-75.65 232.87,-77.85 236.5,-83.83"/>
</g>
<!-- Node39&#45;&gt;Node2 -->
<g id="edge43" class="edge">
<title>Node39&#45;&gt;Node2</title>
<path fill="none" stroke="midnightblue" d="M4416.1,-131.51C4414.22,-131.69 4412.34,-131.85 4410.5,-132 4021.33,-163.01 2735.7,-174.98 2517.17,-176.76"/>
<polygon fill="midnightblue" stroke="midnightblue" points="2516.99,-173.26 2507.02,-176.84 2517.05,-180.26 2516.99,-173.26"/>
</g>
<!-- Node40&#45;&gt;Node33 -->
<g id="edge45" class="edge">
<title>Node40&#45;&gt;Node33</title>
<path fill="none" stroke="midnightblue" d="M257.5,-112.08C257.5,-105.01 257.5,-94.86 257.5,-85.99"/>
<polygon fill="midnightblue" stroke="midnightblue" points="261,-85.75 257.5,-75.75 254,-85.75 261,-85.75"/>
</g>
<!-- Node41&#45;&gt;Node2 -->
<g id="edge47" class="edge">
<title>Node41&#45;&gt;Node2</title>
<path fill="none" stroke="midnightblue" d="M4546.93,-131.53C4545.44,-131.7 4543.96,-131.86 4542.5,-132 4126.09,-172.38 2745.29,-176.55 2517.43,-176.96"/>
<polygon fill="midnightblue" stroke="midnightblue" points="2517.17,-173.46 2507.17,-176.97 2517.18,-180.46 2517.17,-173.46"/>
</g>
<!-- Node42&#45;&gt;Node33 -->
<g id="edge49" class="edge">
<title>Node42&#45;&gt;Node33</title>
<path fill="none" stroke="midnightblue" d="M328.84,-112.32C315.58,-103.9 295.23,-90.97 279.65,-81.07"/>
<polygon fill="midnightblue" stroke="midnightblue" points="281.44,-78.06 271.12,-75.65 277.69,-83.97 281.44,-78.06"/>
</g>
<!-- Node44&#45;&gt;Node5 -->
<g id="edge52" class="edge">
<title>Node44&#45;&gt;Node5</title>
<path fill="none" stroke="midnightblue" d="M443.9,-112.08C437.27,-104.3 427.48,-92.8 419.44,-83.37"/>
<polygon fill="midnightblue" stroke="midnightblue" points="422.1,-81.09 412.95,-75.75 416.77,-85.63 422.1,-81.09"/>
</g>
<!-- Node44&#45;&gt;Node33 -->
<g id="edge53" class="edge">
<title>Node44&#45;&gt;Node33</title>
<path fill="none" stroke="midnightblue" d="M420.76,-112.44C387.56,-103.2 334.51,-88.44 297.94,-78.26"/>
<polygon fill="midnightblue" stroke="midnightblue" points="298.67,-74.83 288.1,-75.52 296.79,-81.57 298.67,-74.83"/>
</g>
<!-- Node75&#45;&gt;Node2 -->
<g id="edge64" class="edge">
<title>Node75&#45;&gt;Node2</title>
<path fill="none" stroke="midnightblue" d="M2433.46,-224.32C2442.63,-216.34 2456.44,-204.31 2467.53,-194.65"/>
<polygon fill="midnightblue" stroke="midnightblue" points="2470.12,-197.04 2475.36,-187.83 2465.52,-191.76 2470.12,-197.04"/>
</g>
<!-- Node75&#45;&gt;Node4 -->
<g id="edge63" class="edge">
<title>Node75&#45;&gt;Node4</title>
<path fill="none" stroke="midnightblue" d="M2389.15,-232.46C2106.67,-227.89 174.47,-194.41 70.5,-132 35.46,-110.97 28.03,-58.27 26.64,-29.86"/>
<polygon fill="midnightblue" stroke="midnightblue" points="30.13,-29.54 26.36,-19.64 23.14,-29.74 30.13,-29.54"/>
</g>
</g>
</svg>
