<?xml version="1.0" encoding="UTF-8" standalone="no"?>
<!DOCTYPE svg PUBLIC "-//W3C//DTD SVG 1.1//EN"
 "http://www.w3.org/Graphics/SVG/1.1/DTD/svg11.dtd">
<!-- Generated by graphviz version 2.43.0 (0)
 -->
<!-- Title: wld_mld_initMgr Pages: 1 -->
<svg width="866pt" height="66pt"
 viewBox="0.00 0.00 866.00 66.00" xmlns="http://www.w3.org/2000/svg" xmlns:xlink="http://www.w3.org/1999/xlink">
<g id="graph0" class="graph" transform="scale(1 1) rotate(0) translate(4 62)">
<title>wld_mld_initMgr</title>
<polygon fill="white" stroke="transparent" points="-4,4 -4,-62 862,-62 862,4 -4,4"/>
<!-- Node1 -->
<g id="node1" class="node">
<title>Node1</title>
<g id="a_node1"><a xlink:title=" ">
<polygon fill="#bfbfbf" stroke="black" points="760,-19.5 760,-38.5 858,-38.5 858,-19.5 760,-19.5"/>
<text text-anchor="middle" x="809" y="-26.5" font-family="Helvetica,sans-Serif" font-size="10.00">wld_mld_initMgr</text>
</a>
</g>
</g>
<!-- Node2 -->
<g id="node2" class="node">
<title>Node2</title>
<g id="a_node2"><a xlink:href="wld_8c.html#a778d4e790809fad7051a0fdefd28e2a4" target="_top" xlink:title=" ">
<polygon fill="white" stroke="black" points="614,-19.5 614,-38.5 724,-38.5 724,-19.5 614,-19.5"/>
<text text-anchor="middle" x="669" y="-26.5" font-family="Helvetica,sans-Serif" font-size="10.00">wld_registerVendor</text>
</a>
</g>
</g>
<!-- Node1&#45;&gt;Node2 -->
<g id="edge1" class="edge">
<title>Node1&#45;&gt;Node2</title>
<path fill="none" stroke="midnightblue" d="M749.58,-29C741.14,-29 732.48,-29 724.13,-29"/>
<polygon fill="midnightblue" stroke="midnightblue" points="749.73,-32.5 759.73,-29 749.73,-25.5 749.73,-32.5"/>
</g>
<!-- Node3 -->
<g id="node3" class="node">
<title>Node3</title>
<g id="a_node3"><a xlink:href="wld__nl80211__api_8c.html#ae80beca3dcb871009fd9b4e08f2e0a4c" target="_top" xlink:title=" ">
<polygon fill="white" stroke="black" points="421.5,-38.5 421.5,-57.5 576.5,-57.5 576.5,-38.5 421.5,-38.5"/>
<text text-anchor="middle" x="499" y="-45.5" font-family="Helvetica,sans-Serif" font-size="10.00">wld_nl80211_registerVendor</text>
</a>
</g>
</g>
<!-- Node2&#45;&gt;Node3 -->
<g id="edge2" class="edge">
<title>Node2&#45;&gt;Node3</title>
<path fill="none" stroke="midnightblue" d="M603.98,-36.24C595.03,-37.25 585.77,-38.3 576.62,-39.33"/>
<polygon fill="midnightblue" stroke="midnightblue" points="604.38,-39.72 613.92,-35.12 603.59,-32.76 604.38,-39.72"/>
</g>
<!-- Node4 -->
<g id="node4" class="node">
<title>Node4</title>
<g id="a_node4"><a xlink:href="wld__th__mockVendor_8c.html#a8ffa2cb3f60603700df2a0db99051540" target="_top" xlink:title=" ">
<polygon fill="white" stroke="black" points="420,-0.5 420,-19.5 578,-19.5 578,-0.5 420,-0.5"/>
<text text-anchor="middle" x="499" y="-7.5" font-family="Helvetica,sans-Serif" font-size="10.00">wld_th_mockVendor_register</text>
</a>
</g>
</g>
<!-- Node2&#45;&gt;Node4 -->
<g id="edge3" class="edge">
<title>Node2&#45;&gt;Node4</title>
<path fill="none" stroke="midnightblue" d="M603.83,-21.74C595.43,-20.79 586.74,-19.81 578.14,-18.84"/>
<polygon fill="midnightblue" stroke="midnightblue" points="603.59,-25.24 613.92,-22.88 604.38,-18.28 603.59,-25.24"/>
</g>
<!-- Node5 -->
<g id="node5" class="node">
<title>Node5</title>
<g id="a_node5"><a xlink:href="wld__th__dm_8c.html#ae54a60fdd0ee623cf489690e020a1e89" target="_top" xlink:title=" ">
<polygon fill="white" stroke="black" points="275,-0.5 275,-19.5 384,-19.5 384,-0.5 275,-0.5"/>
<text text-anchor="middle" x="329.5" y="-7.5" font-family="Helvetica,sans-Serif" font-size="10.00">wld_th_dmEnv_init</text>
</a>
</g>
</g>
<!-- Node4&#45;&gt;Node5 -->
<g id="edge4" class="edge">
<title>Node4&#45;&gt;Node5</title>
<path fill="none" stroke="midnightblue" d="M409.57,-10C401,-10 392.5,-10 384.42,-10"/>
<polygon fill="midnightblue" stroke="midnightblue" points="409.64,-13.5 419.64,-10 409.64,-6.5 409.64,-13.5"/>
</g>
<!-- Node6 -->
<g id="node6" class="node">
<title>Node6</title>
<g id="a_node6"><a xlink:href="wld__th__dm_8c.html#ab6fac1ee07c4779d3f52c6fe518489ce" target="_top" xlink:title=" ">
<polygon fill="white" stroke="black" points="148,-0.5 148,-19.5 239,-19.5 239,-0.5 148,-0.5"/>
<text text-anchor="middle" x="193.5" y="-7.5" font-family="Helvetica,sans-Serif" font-size="10.00">wld_th_dm_init</text>
</a>
</g>
</g>
<!-- Node5&#45;&gt;Node6 -->
<g id="edge5" class="edge">
<title>Node5&#45;&gt;Node6</title>
<path fill="none" stroke="midnightblue" d="M264.72,-10C256.09,-10 247.4,-10 239.21,-10"/>
<polygon fill="midnightblue" stroke="midnightblue" points="264.77,-13.5 274.77,-10 264.77,-6.5 264.77,-13.5"/>
</g>
<!-- Node7 -->
<g id="node7" class="node">
<title>Node7</title>
<g id="a_node7"><a xlink:href="wld__th__dm_8c.html#ae00bc827b2dccc09a3c4b6051dcf761e" target="_top" xlink:title=" ">
<polygon fill="white" stroke="black" points="0,-0.5 0,-19.5 112,-19.5 112,-0.5 0,-0.5"/>
<text text-anchor="middle" x="56" y="-7.5" font-family="Helvetica,sans-Serif" font-size="10.00">wld_th_dm_initFreq</text>
</a>
</g>
</g>
<!-- Node6&#45;&gt;Node7 -->
<g id="edge6" class="edge">
<title>Node6&#45;&gt;Node7</title>
<path fill="none" stroke="midnightblue" d="M137.65,-10C129.23,-10 120.52,-10 112.09,-10"/>
<polygon fill="midnightblue" stroke="midnightblue" points="137.76,-13.5 147.76,-10 137.76,-6.5 137.76,-13.5"/>
</g>
</g>
</svg>
