<?xml version="1.0" encoding="UTF-8" standalone="no"?>
<!DOCTYPE svg PUBLIC "-//W3C//DTD SVG 1.1//EN"
 "http://www.w3.org/Graphics/SVG/1.1/DTD/svg11.dtd">
<!-- Generated by graphviz version 2.43.0 (0)
 -->
<!-- Title: wld_th_dmEnv_init Pages: 1 -->
<svg width="696pt" height="152pt"
 viewBox="0.00 0.00 696.00 152.00" xmlns="http://www.w3.org/2000/svg" xmlns:xlink="http://www.w3.org/1999/xlink">
<g id="graph0" class="graph" transform="scale(1 1) rotate(0) translate(4 148)">
<title>wld_th_dmEnv_init</title>
<polygon fill="white" stroke="transparent" points="-4,4 -4,-148 692,-148 692,4 -4,4"/>
<!-- Node1 -->
<g id="node1" class="node">
<title>Node1</title>
<g id="a_node1"><a xlink:title=" ">
<polygon fill="#bfbfbf" stroke="black" points="0,-57.5 0,-76.5 109,-76.5 109,-57.5 0,-57.5"/>
<text text-anchor="middle" x="54.5" y="-64.5" font-family="Helvetica,sans-Serif" font-size="10.00">wld_th_dmEnv_init</text>
</a>
</g>
</g>
<!-- Node2 -->
<g id="node2" class="node">
<title>Node2</title>
<g id="a_node2"><a xlink:href="wld__plugin_8c.html#a992191249d437ac4c2f292b32b9238e9" target="_top" xlink:title=" ">
<polygon fill="white" stroke="black" points="189.5,-95.5 189.5,-114.5 258.5,-114.5 258.5,-95.5 189.5,-95.5"/>
<text text-anchor="middle" x="224" y="-102.5" font-family="Helvetica,sans-Serif" font-size="10.00">_wld_main</text>
</a>
</g>
</g>
<!-- Node1&#45;&gt;Node2 -->
<g id="edge1" class="edge">
<title>Node1&#45;&gt;Node2</title>
<path fill="none" stroke="midnightblue" d="M97.77,-76.59C122.72,-82.25 154.26,-89.4 179.44,-95.12"/>
<polygon fill="midnightblue" stroke="midnightblue" points="178.92,-98.59 189.45,-97.39 180.47,-91.76 178.92,-98.59"/>
</g>
<!-- Node5 -->
<g id="node5" class="node">
<title>Node5</title>
<g id="a_node5"><a xlink:href="wld__th__mockVendor_8c.html#a8d6551ecef1a38dc5a192adca9007613" target="_top" xlink:title=" ">
<polygon fill="white" stroke="black" points="148.5,-57.5 148.5,-76.5 299.5,-76.5 299.5,-57.5 148.5,-57.5"/>
<text text-anchor="middle" x="224" y="-64.5" font-family="Helvetica,sans-Serif" font-size="10.00">wld_th_mockVendor_create</text>
</a>
</g>
</g>
<!-- Node1&#45;&gt;Node5 -->
<g id="edge4" class="edge">
<title>Node1&#45;&gt;Node5</title>
<path fill="none" stroke="midnightblue" d="M109.42,-67C118.65,-67 128.43,-67 138.23,-67"/>
<polygon fill="midnightblue" stroke="midnightblue" points="138.43,-70.5 148.43,-67 138.43,-63.5 138.43,-70.5"/>
</g>
<!-- Node6 -->
<g id="node6" class="node">
<title>Node6</title>
<g id="a_node6"><a xlink:href="wld__th__mockVendor_8c.html#a8ffa2cb3f60603700df2a0db99051540" target="_top" xlink:title=" ">
<polygon fill="white" stroke="black" points="145,-19.5 145,-38.5 303,-38.5 303,-19.5 145,-19.5"/>
<text text-anchor="middle" x="224" y="-26.5" font-family="Helvetica,sans-Serif" font-size="10.00">wld_th_mockVendor_register</text>
</a>
</g>
</g>
<!-- Node1&#45;&gt;Node6 -->
<g id="edge5" class="edge">
<title>Node1&#45;&gt;Node6</title>
<path fill="none" stroke="midnightblue" d="M97.77,-57.41C120.07,-52.35 147.62,-46.1 171.2,-40.75"/>
<polygon fill="midnightblue" stroke="midnightblue" points="172.06,-44.15 181.04,-38.52 170.51,-37.32 172.06,-44.15"/>
</g>
<!-- Node3 -->
<g id="node3" class="node">
<title>Node3</title>
<g id="a_node3"><a xlink:href="wld_8c.html#aaf64ab1f127a6152fed5e7dfe1432c72" target="_top" xlink:title=" ">
<polygon fill="white" stroke="black" points="368,-124.5 368,-143.5 458,-143.5 458,-124.5 368,-124.5"/>
<text text-anchor="middle" x="413" y="-131.5" font-family="Helvetica,sans-Serif" font-size="10.00">wld_plugin_init</text>
</a>
</g>
</g>
<!-- Node2&#45;&gt;Node3 -->
<g id="edge2" class="edge">
<title>Node2&#45;&gt;Node3</title>
<path fill="none" stroke="midnightblue" d="M258.86,-110.25C286.41,-114.52 325.8,-120.63 357.73,-125.58"/>
<polygon fill="midnightblue" stroke="midnightblue" points="357.39,-129.07 367.81,-127.15 358.47,-122.16 357.39,-129.07"/>
</g>
<!-- Node4 -->
<g id="node4" class="node">
<title>Node4</title>
<g id="a_node4"><a xlink:href="wld_8c.html#a9b618d77078d8c3bb3b016b2306224ec" target="_top" xlink:title=" ">
<polygon fill="white" stroke="black" points="364.5,-86.5 364.5,-105.5 461.5,-105.5 461.5,-86.5 364.5,-86.5"/>
<text text-anchor="middle" x="413" y="-93.5" font-family="Helvetica,sans-Serif" font-size="10.00">wld_plugin_start</text>
</a>
</g>
</g>
<!-- Node2&#45;&gt;Node4 -->
<g id="edge3" class="edge">
<title>Node2&#45;&gt;Node4</title>
<path fill="none" stroke="midnightblue" d="M258.86,-103.37C285.34,-102.1 322.77,-100.29 353.99,-98.79"/>
<polygon fill="midnightblue" stroke="midnightblue" points="354.5,-102.27 364.32,-98.29 354.16,-95.28 354.5,-102.27"/>
</g>
<!-- Node7 -->
<g id="node7" class="node">
<title>Node7</title>
<g id="a_node7"><a xlink:href="wld_8c.html#a778d4e790809fad7051a0fdefd28e2a4" target="_top" xlink:title=" ">
<polygon fill="white" stroke="black" points="358,-38.5 358,-57.5 468,-57.5 468,-38.5 358,-38.5"/>
<text text-anchor="middle" x="413" y="-45.5" font-family="Helvetica,sans-Serif" font-size="10.00">wld_registerVendor</text>
</a>
</g>
</g>
<!-- Node6&#45;&gt;Node7 -->
<g id="edge6" class="edge">
<title>Node6&#45;&gt;Node7</title>
<path fill="none" stroke="midnightblue" d="M303.22,-36.95C318.04,-38.45 333.38,-40.01 347.71,-41.47"/>
<polygon fill="midnightblue" stroke="midnightblue" points="347.64,-44.98 357.94,-42.51 348.35,-38.01 347.64,-44.98"/>
</g>
<!-- Node10 -->
<g id="node10" class="node">
<title>Node10</title>
<g id="a_node10"><a xlink:href="wld__th__mockVendor_8c.html#a66d9b64d59ddf99de3fbd9b88edd505f" target="_top" xlink:title=" ">
<polygon fill="white" stroke="black" points="339,-0.5 339,-19.5 487,-19.5 487,-0.5 339,-0.5"/>
<text text-anchor="middle" x="413" y="-7.5" font-family="Helvetica,sans-Serif" font-size="10.00">wld_th_mockVendor_name</text>
</a>
</g>
</g>
<!-- Node6&#45;&gt;Node10 -->
<g id="edge9" class="edge">
<title>Node6&#45;&gt;Node10</title>
<path fill="none" stroke="midnightblue" d="M303.22,-21.05C311.71,-20.19 320.37,-19.31 328.91,-18.44"/>
<polygon fill="midnightblue" stroke="midnightblue" points="329.28,-21.92 338.87,-17.43 328.57,-14.96 329.28,-21.92"/>
</g>
<!-- Node8 -->
<g id="node8" class="node">
<title>Node8</title>
<g id="a_node8"><a xlink:href="wld__dmnMgt_8c.html#a42d6513077e9211559b38ddc0741160f" target="_top" xlink:title=" ">
<polygon fill="white" stroke="black" points="523,-57.5 523,-76.5 688,-76.5 688,-57.5 523,-57.5"/>
<text text-anchor="middle" x="605.5" y="-64.5" font-family="Helvetica,sans-Serif" font-size="10.00">wld_dmnMgt_initDmnExecInfo</text>
</a>
</g>
</g>
<!-- Node7&#45;&gt;Node8 -->
<g id="edge7" class="edge">
<title>Node7&#45;&gt;Node8</title>
<path fill="none" stroke="midnightblue" d="M468.08,-53.39C482.07,-54.79 497.52,-56.33 512.85,-57.86"/>
<polygon fill="midnightblue" stroke="midnightblue" points="512.59,-61.35 522.89,-58.86 513.28,-54.38 512.59,-61.35"/>
</g>
<!-- Node9 -->
<g id="node9" class="node">
<title>Node9</title>
<g id="a_node9"><a xlink:href="wld__mld_8c.html#a310edbcb5110fae08c7c68134d235cf1" target="_top" xlink:title=" ">
<polygon fill="white" stroke="black" points="556.5,-19.5 556.5,-38.5 654.5,-38.5 654.5,-19.5 556.5,-19.5"/>
<text text-anchor="middle" x="605.5" y="-26.5" font-family="Helvetica,sans-Serif" font-size="10.00">wld_mld_initMgr</text>
</a>
</g>
</g>
<!-- Node7&#45;&gt;Node9 -->
<g id="edge8" class="edge">
<title>Node7&#45;&gt;Node9</title>
<path fill="none" stroke="midnightblue" d="M468.08,-42.61C492.54,-40.17 521.49,-37.28 546.41,-34.79"/>
<polygon fill="midnightblue" stroke="midnightblue" points="546.85,-38.27 556.46,-33.79 546.16,-31.3 546.85,-38.27"/>
</g>
</g>
</svg>
