<?xml version="1.0" encoding="UTF-8" standalone="no"?>
<!DOCTYPE svg PUBLIC "-//W3C//DTD SVG 1.1//EN"
 "http://www.w3.org/Graphics/SVG/1.1/DTD/svg11.dtd">
<!-- Generated by graphviz version 2.43.0 (0)
 -->
<!-- Title: src/nl80211/wld_secDmn.c Pages: 1 -->
<svg width="808pt" height="431pt"
 viewBox="0.00 0.00 808.00 431.00" xmlns="http://www.w3.org/2000/svg" xmlns:xlink="http://www.w3.org/1999/xlink">
<g id="graph0" class="graph" transform="scale(1 1) rotate(0) translate(4 427)">
<title>src/nl80211/wld_secDmn.c</title>
<polygon fill="white" stroke="transparent" points="-4,4 -4,-427 804,-427 804,4 -4,4"/>
<!-- Node1 -->
<g id="node1" class="node">
<title>Node1</title>
<g id="a_node1"><a xlink:title=" ">
<polygon fill="#bfbfbf" stroke="black" points="397,-403.5 397,-422.5 543,-422.5 543,-403.5 397,-403.5"/>
<text text-anchor="middle" x="470" y="-410.5" font-family="Helvetica,sans-Serif" font-size="10.00">src/nl80211/wld_secDmn.c</text>
</a>
</g>
</g>
<!-- Node2 -->
<g id="node2" class="node">
<title>Node2</title>
<g id="a_node2"><a xlink:title=" ">
<polygon fill="white" stroke="#bfbfbf" points="222.5,-347.5 222.5,-366.5 275.5,-366.5 275.5,-347.5 222.5,-347.5"/>
<text text-anchor="middle" x="249" y="-354.5" font-family="Helvetica,sans-Serif" font-size="10.00">stdlib.h</text>
</a>
</g>
</g>
<!-- Node1&#45;&gt;Node2 -->
<g id="edge1" class="edge">
<title>Node1&#45;&gt;Node2</title>
<path fill="none" stroke="midnightblue" d="M434.52,-403.44C399.3,-394.93 343.51,-381.4 285.77,-367.18"/>
<polygon fill="midnightblue" stroke="midnightblue" points="286.28,-363.7 275.73,-364.7 284.6,-370.5 286.28,-363.7"/>
</g>
<!-- Node3 -->
<g id="node3" class="node">
<title>Node3</title>
<g id="a_node3"><a xlink:title=" ">
<polygon fill="white" stroke="#bfbfbf" points="294,-347.5 294,-366.5 404,-366.5 404,-347.5 294,-347.5"/>
<text text-anchor="middle" x="349" y="-354.5" font-family="Helvetica,sans-Serif" font-size="10.00">swl/swl_common.h</text>
</a>
</g>
</g>
<!-- Node1&#45;&gt;Node3 -->
<g id="edge2" class="edge">
<title>Node1&#45;&gt;Node3</title>
<path fill="none" stroke="midnightblue" d="M450.83,-403.44C431.09,-394.64 400.11,-380.81 377.51,-370.72"/>
<polygon fill="midnightblue" stroke="midnightblue" points="378.64,-367.4 368.08,-366.52 375.79,-373.79 378.64,-367.4"/>
</g>
<!-- Node4 -->
<g id="node4" class="node">
<title>Node4</title>
<g id="a_node4"><a xlink:title=" ">
<polygon fill="white" stroke="#bfbfbf" points="422.5,-347.5 422.5,-366.5 517.5,-366.5 517.5,-347.5 422.5,-347.5"/>
<text text-anchor="middle" x="470" y="-354.5" font-family="Helvetica,sans-Serif" font-size="10.00">swl/swl_string.h</text>
</a>
</g>
</g>
<!-- Node1&#45;&gt;Node4 -->
<g id="edge3" class="edge">
<title>Node1&#45;&gt;Node4</title>
<path fill="none" stroke="midnightblue" d="M470,-403.08C470,-396.01 470,-385.86 470,-376.99"/>
<polygon fill="midnightblue" stroke="midnightblue" points="473.5,-376.75 470,-366.75 466.5,-376.75 473.5,-376.75"/>
</g>
<!-- Node5 -->
<g id="node5" class="node">
<title>Node5</title>
<g id="a_node5"><a xlink:href="wld__secDmn_8h.html" target="_top" xlink:title=" ">
<polygon fill="white" stroke="black" points="502,-235.5 502,-254.5 590,-254.5 590,-235.5 502,-235.5"/>
<text text-anchor="middle" x="546" y="-242.5" font-family="Helvetica,sans-Serif" font-size="10.00">wld_secDmn.h</text>
</a>
</g>
</g>
<!-- Node1&#45;&gt;Node5 -->
<g id="edge4" class="edge">
<title>Node1&#45;&gt;Node5</title>
<path fill="none" stroke="midnightblue" d="M486.26,-403.4C499.19,-395.66 516.62,-383.04 526,-367 544.83,-334.78 547.25,-289.97 546.91,-264.91"/>
<polygon fill="midnightblue" stroke="midnightblue" points="550.39,-264.5 546.59,-254.61 543.4,-264.72 550.39,-264.5"/>
</g>
<!-- Node23 -->
<g id="node23" class="node">
<title>Node23</title>
<g id="a_node23"><a xlink:href="wld__secDmnGrp__priv_8h.html" target="_top" xlink:title=" ">
<polygon fill="white" stroke="black" points="574,-347.5 574,-366.5 702,-366.5 702,-347.5 574,-347.5"/>
<text text-anchor="middle" x="638" y="-354.5" font-family="Helvetica,sans-Serif" font-size="10.00">wld_secDmnGrp_priv.h</text>
</a>
</g>
</g>
<!-- Node1&#45;&gt;Node23 -->
<g id="edge24" class="edge">
<title>Node1&#45;&gt;Node23</title>
<path fill="none" stroke="midnightblue" d="M496.62,-403.44C525.01,-394.32 570.14,-379.81 601.75,-369.65"/>
<polygon fill="midnightblue" stroke="midnightblue" points="603.06,-372.91 611.5,-366.52 600.91,-366.24 603.06,-372.91"/>
</g>
<!-- Node6 -->
<g id="node6" class="node">
<title>Node6</title>
<g id="a_node6"><a xlink:href="wld__wpaCtrlMngr_8h.html" target="_top" xlink:title=" ">
<polygon fill="white" stroke="black" points="97,-179.5 97,-198.5 207,-198.5 207,-179.5 97,-179.5"/>
<text text-anchor="middle" x="152" y="-186.5" font-family="Helvetica,sans-Serif" font-size="10.00">wld_wpaCtrlMngr.h</text>
</a>
</g>
</g>
<!-- Node5&#45;&gt;Node6 -->
<g id="edge5" class="edge">
<title>Node5&#45;&gt;Node6</title>
<path fill="none" stroke="midnightblue" d="M501.95,-237.96C432.62,-228.46 297.68,-209.97 217.13,-198.93"/>
<polygon fill="midnightblue" stroke="midnightblue" points="217.48,-195.44 207.1,-197.55 216.53,-202.38 217.48,-195.44"/>
</g>
<!-- Node15 -->
<g id="node15" class="node">
<title>Node15</title>
<g id="a_node15"><a xlink:href="wld__daemon_8h.html" target="_top" xlink:title=" ">
<polygon fill="white" stroke="black" points="298,-179.5 298,-198.5 386,-198.5 386,-179.5 298,-179.5"/>
<text text-anchor="middle" x="342" y="-186.5" font-family="Helvetica,sans-Serif" font-size="10.00">wld_daemon.h</text>
</a>
</g>
</g>
<!-- Node5&#45;&gt;Node15 -->
<g id="edge16" class="edge">
<title>Node5&#45;&gt;Node15</title>
<path fill="none" stroke="midnightblue" d="M513.68,-235.44C478.61,-226.16 422.5,-211.31 384.04,-201.13"/>
<polygon fill="midnightblue" stroke="midnightblue" points="384.74,-197.69 374.17,-198.52 382.94,-204.46 384.74,-197.69"/>
</g>
<!-- Node20 -->
<g id="node20" class="node">
<title>Node20</title>
<g id="a_node20"><a xlink:href="wld__secDmn__types_8h.html" target="_top" xlink:title=" ">
<polygon fill="white" stroke="black" points="680,-179.5 680,-198.5 800,-198.5 800,-179.5 680,-179.5"/>
<text text-anchor="middle" x="740" y="-186.5" font-family="Helvetica,sans-Serif" font-size="10.00">wld_secDmn_types.h</text>
</a>
</g>
</g>
<!-- Node5&#45;&gt;Node20 -->
<g id="edge21" class="edge">
<title>Node5&#45;&gt;Node20</title>
<path fill="none" stroke="midnightblue" d="M576.74,-235.44C609.94,-226.2 662.99,-211.44 699.56,-201.26"/>
<polygon fill="midnightblue" stroke="midnightblue" points="700.71,-204.57 709.4,-198.52 698.83,-197.83 700.71,-204.57"/>
</g>
<!-- Node21 -->
<g id="node21" class="node">
<title>Node21</title>
<g id="a_node21"><a xlink:title=" ">
<polygon fill="white" stroke="#bfbfbf" points="404,-179.5 404,-198.5 550,-198.5 550,-179.5 404,-179.5"/>
<text text-anchor="middle" x="477" y="-186.5" font-family="Helvetica,sans-Serif" font-size="10.00">swl/swl_common_trilean.h</text>
</a>
</g>
</g>
<!-- Node5&#45;&gt;Node21 -->
<g id="edge22" class="edge">
<title>Node5&#45;&gt;Node21</title>
<path fill="none" stroke="midnightblue" d="M534.91,-235.32C524.51,-227.18 508.74,-214.84 496.28,-205.09"/>
<polygon fill="midnightblue" stroke="midnightblue" points="498.32,-202.24 488.29,-198.83 494.01,-207.75 498.32,-202.24"/>
</g>
<!-- Node22 -->
<g id="node22" class="node">
<title>Node22</title>
<g id="a_node22"><a xlink:title=" ">
<polygon fill="white" stroke="#bfbfbf" points="568,-179.5 568,-198.5 662,-198.5 662,-179.5 568,-179.5"/>
<text text-anchor="middle" x="615" y="-186.5" font-family="Helvetica,sans-Serif" font-size="10.00">swl/swl_maps.h</text>
</a>
</g>
</g>
<!-- Node5&#45;&gt;Node22 -->
<g id="edge23" class="edge">
<title>Node5&#45;&gt;Node22</title>
<path fill="none" stroke="midnightblue" d="M557.09,-235.32C567.49,-227.18 583.26,-214.84 595.72,-205.09"/>
<polygon fill="midnightblue" stroke="midnightblue" points="597.99,-207.75 603.71,-198.83 593.68,-202.24 597.99,-207.75"/>
</g>
<!-- Node7 -->
<g id="node7" class="node">
<title>Node7</title>
<g id="a_node7"><a xlink:href="wld__wpaCtrl__types_8h.html" target="_top" xlink:title=" ">
<polygon fill="white" stroke="black" points="0,-6 0,-25 118,-25 118,-6 0,-6"/>
<text text-anchor="middle" x="59" y="-13" font-family="Helvetica,sans-Serif" font-size="10.00">wld_wpaCtrl_types.h</text>
</a>
</g>
</g>
<!-- Node6&#45;&gt;Node7 -->
<g id="edge6" class="edge">
<title>Node6&#45;&gt;Node7</title>
<path fill="none" stroke="midnightblue" d="M127.37,-179.45C110.69,-172.34 89.66,-160.53 78,-143 56.04,-109.98 55.47,-61.47 57.14,-35.15"/>
<polygon fill="midnightblue" stroke="midnightblue" points="60.64,-35.3 57.96,-25.05 53.66,-34.73 60.64,-35.3"/>
</g>
<!-- Node8 -->
<g id="node8" class="node">
<title>Node8</title>
<g id="a_node8"><a xlink:href="wld__wpaCtrlInterface_8h.html" target="_top" xlink:title=" ">
<polygon fill="white" stroke="black" points="87.5,-123.5 87.5,-142.5 216.5,-142.5 216.5,-123.5 87.5,-123.5"/>
<text text-anchor="middle" x="152" y="-130.5" font-family="Helvetica,sans-Serif" font-size="10.00">wld_wpaCtrlInterface.h</text>
</a>
</g>
</g>
<!-- Node6&#45;&gt;Node8 -->
<g id="edge7" class="edge">
<title>Node6&#45;&gt;Node8</title>
<path fill="none" stroke="midnightblue" d="M152,-179.08C152,-172.01 152,-161.86 152,-152.99"/>
<polygon fill="midnightblue" stroke="midnightblue" points="155.5,-152.75 152,-142.75 148.5,-152.75 155.5,-152.75"/>
</g>
<!-- Node8&#45;&gt;Node7 -->
<g id="edge8" class="edge">
<title>Node8&#45;&gt;Node7</title>
<path fill="none" stroke="midnightblue" d="M145.01,-123.32C129.59,-104.17 92.45,-58.04 72.39,-33.13"/>
<polygon fill="midnightblue" stroke="midnightblue" points="75.07,-30.88 66.07,-25.28 69.62,-35.27 75.07,-30.88"/>
</g>
<!-- Node9 -->
<g id="node9" class="node">
<title>Node9</title>
<g id="a_node9"><a xlink:href="wld__wpaCtrl__events_8h.html" target="_top" xlink:title=" ">
<polygon fill="white" stroke="black" points="268,-67.5 268,-86.5 392,-86.5 392,-67.5 268,-67.5"/>
<text text-anchor="middle" x="330" y="-74.5" font-family="Helvetica,sans-Serif" font-size="10.00">wld_wpaCtrl_events.h</text>
</a>
</g>
</g>
<!-- Node8&#45;&gt;Node9 -->
<g id="edge9" class="edge">
<title>Node8&#45;&gt;Node9</title>
<path fill="none" stroke="midnightblue" d="M180.2,-123.44C210.41,-114.28 258.51,-99.69 292.03,-89.52"/>
<polygon fill="midnightblue" stroke="midnightblue" points="293.37,-92.77 301.93,-86.52 291.34,-86.07 293.37,-92.77"/>
</g>
<!-- Node9&#45;&gt;Node7 -->
<g id="edge15" class="edge">
<title>Node9&#45;&gt;Node7</title>
<path fill="none" stroke="midnightblue" d="M291.17,-67.48C242.88,-56.87 160.39,-38.76 107.85,-27.22"/>
<polygon fill="midnightblue" stroke="midnightblue" points="108.27,-23.74 97.76,-25.01 106.77,-30.57 108.27,-23.74"/>
</g>
<!-- Node10 -->
<g id="node10" class="node">
<title>Node10</title>
<g id="a_node10"><a xlink:title=" ">
<polygon fill="white" stroke="#bfbfbf" points="136.5,-6 136.5,-25 261.5,-25 261.5,-6 136.5,-6"/>
<text text-anchor="middle" x="199" y="-13" font-family="Helvetica,sans-Serif" font-size="10.00">swla/swla_chanspec.h</text>
</a>
</g>
</g>
<!-- Node9&#45;&gt;Node10 -->
<g id="edge10" class="edge">
<title>Node9&#45;&gt;Node10</title>
<path fill="none" stroke="midnightblue" d="M311.23,-67.48C289.15,-57.45 252.28,-40.7 226.86,-29.15"/>
<polygon fill="midnightblue" stroke="midnightblue" points="228.29,-25.96 217.73,-25.01 225.39,-32.33 228.29,-25.96"/>
</g>
<!-- Node11 -->
<g id="node11" class="node">
<title>Node11</title>
<g id="a_node11"><a xlink:title=" ">
<polygon fill="white" stroke="#bfbfbf" points="280,-6 280,-25 380,-25 380,-6 280,-6"/>
<text text-anchor="middle" x="330" y="-13" font-family="Helvetica,sans-Serif" font-size="10.00">swla/swla_mac.h</text>
</a>
</g>
</g>
<!-- Node9&#45;&gt;Node11 -->
<g id="edge11" class="edge">
<title>Node9&#45;&gt;Node11</title>
<path fill="none" stroke="midnightblue" d="M330,-67.48C330,-59.08 330,-45.98 330,-35.16"/>
<polygon fill="midnightblue" stroke="midnightblue" points="333.5,-35.01 330,-25.01 326.5,-35.01 333.5,-35.01"/>
</g>
<!-- Node12 -->
<g id="node12" class="node">
<title>Node12</title>
<g id="a_node12"><a xlink:title=" ">
<polygon fill="white" stroke="#bfbfbf" points="398,-0.5 398,-30.5 512,-30.5 512,-0.5 398,-0.5"/>
<text text-anchor="start" x="406" y="-18.5" font-family="Helvetica,sans-Serif" font-size="10.00">swl/swl_ieee802_1x</text>
<text text-anchor="middle" x="455" y="-7.5" font-family="Helvetica,sans-Serif" font-size="10.00">_defs.h</text>
</a>
</g>
</g>
<!-- Node9&#45;&gt;Node12 -->
<g id="edge12" class="edge">
<title>Node9&#45;&gt;Node12</title>
<path fill="none" stroke="midnightblue" d="M347.91,-67.48C365.71,-59 393.58,-45.74 416.42,-34.86"/>
<polygon fill="midnightblue" stroke="midnightblue" points="418.01,-37.98 425.54,-30.52 415.01,-31.66 418.01,-37.98"/>
</g>
<!-- Node13 -->
<g id="node13" class="node">
<title>Node13</title>
<g id="a_node13"><a xlink:title=" ">
<polygon fill="white" stroke="#bfbfbf" points="530.5,-6 530.5,-25 627.5,-25 627.5,-6 530.5,-6"/>
<text text-anchor="middle" x="579" y="-13" font-family="Helvetica,sans-Serif" font-size="10.00">swl/swl_80211.h</text>
</a>
</g>
</g>
<!-- Node9&#45;&gt;Node13 -->
<g id="edge13" class="edge">
<title>Node9&#45;&gt;Node13</title>
<path fill="none" stroke="midnightblue" d="M367.01,-67.44C405.51,-58.49 467.53,-43.98 521,-31 525.67,-29.87 530.55,-28.67 535.41,-27.47"/>
<polygon fill="midnightblue" stroke="midnightblue" points="536.42,-30.82 545.28,-25.01 534.73,-24.03 536.42,-30.82"/>
</g>
<!-- Node14 -->
<g id="node14" class="node">
<title>Node14</title>
<g id="a_node14"><a xlink:title=" ">
<polygon fill="white" stroke="#bfbfbf" points="645.5,-6 645.5,-25 766.5,-25 766.5,-6 645.5,-6"/>
<text text-anchor="middle" x="706" y="-13" font-family="Helvetica,sans-Serif" font-size="10.00">swl/swl_returnCode.h</text>
</a>
</g>
</g>
<!-- Node9&#45;&gt;Node14 -->
<g id="edge14" class="edge">
<title>Node9&#45;&gt;Node14</title>
<path fill="none" stroke="midnightblue" d="M392,-67.96C453.94,-59.68 551.8,-45.9 636,-31 642.73,-29.81 649.81,-28.46 656.77,-27.07"/>
<polygon fill="midnightblue" stroke="midnightblue" points="657.73,-30.45 666.83,-25.03 656.34,-23.59 657.73,-30.45"/>
</g>
<!-- Node16 -->
<g id="node16" class="node">
<title>Node16</title>
<g id="a_node16"><a xlink:title=" ">
<polygon fill="white" stroke="#bfbfbf" points="235,-123.5 235,-142.5 297,-142.5 297,-123.5 235,-123.5"/>
<text text-anchor="middle" x="266" y="-130.5" font-family="Helvetica,sans-Serif" font-size="10.00">stdbool.h</text>
</a>
</g>
</g>
<!-- Node15&#45;&gt;Node16 -->
<g id="edge17" class="edge">
<title>Node15&#45;&gt;Node16</title>
<path fill="none" stroke="midnightblue" d="M329.79,-179.32C318.22,-171.11 300.62,-158.6 286.84,-148.81"/>
<polygon fill="midnightblue" stroke="midnightblue" points="288.61,-145.77 278.43,-142.83 284.56,-151.48 288.61,-145.77"/>
</g>
<!-- Node17 -->
<g id="node17" class="node">
<title>Node17</title>
<g id="a_node17"><a xlink:title=" ">
<polygon fill="white" stroke="#bfbfbf" points="315.5,-123.5 315.5,-142.5 368.5,-142.5 368.5,-123.5 315.5,-123.5"/>
<text text-anchor="middle" x="342" y="-130.5" font-family="Helvetica,sans-Serif" font-size="10.00">stdint.h</text>
</a>
</g>
</g>
<!-- Node15&#45;&gt;Node17 -->
<g id="edge18" class="edge">
<title>Node15&#45;&gt;Node17</title>
<path fill="none" stroke="midnightblue" d="M342,-179.08C342,-172.01 342,-161.86 342,-152.99"/>
<polygon fill="midnightblue" stroke="midnightblue" points="345.5,-152.75 342,-142.75 338.5,-152.75 345.5,-152.75"/>
</g>
<!-- Node18 -->
<g id="node18" class="node">
<title>Node18</title>
<g id="a_node18"><a xlink:title=" ">
<polygon fill="white" stroke="#bfbfbf" points="387,-123.5 387,-142.5 435,-142.5 435,-123.5 387,-123.5"/>
<text text-anchor="middle" x="411" y="-130.5" font-family="Helvetica,sans-Serif" font-size="10.00">time.h</text>
</a>
</g>
</g>
<!-- Node15&#45;&gt;Node18 -->
<g id="edge19" class="edge">
<title>Node15&#45;&gt;Node18</title>
<path fill="none" stroke="midnightblue" d="M353.09,-179.32C363.49,-171.18 379.26,-158.84 391.72,-149.09"/>
<polygon fill="midnightblue" stroke="midnightblue" points="393.99,-151.75 399.71,-142.83 389.68,-146.24 393.99,-151.75"/>
</g>
<!-- Node19 -->
<g id="node19" class="node">
<title>Node19</title>
<g id="a_node19"><a xlink:title=" ">
<polygon fill="white" stroke="#bfbfbf" points="453.5,-123.5 453.5,-142.5 508.5,-142.5 508.5,-123.5 453.5,-123.5"/>
<text text-anchor="middle" x="481" y="-130.5" font-family="Helvetica,sans-Serif" font-size="10.00">signal.h</text>
</a>
</g>
</g>
<!-- Node15&#45;&gt;Node19 -->
<g id="edge20" class="edge">
<title>Node15&#45;&gt;Node19</title>
<path fill="none" stroke="midnightblue" d="M364.02,-179.44C387.1,-170.48 423.56,-156.31 449.64,-146.18"/>
<polygon fill="midnightblue" stroke="midnightblue" points="451.02,-149.4 459.08,-142.52 448.49,-142.88 451.02,-149.4"/>
</g>
<!-- Node24 -->
<g id="node24" class="node">
<title>Node24</title>
<g id="a_node24"><a xlink:href="wld__secDmnGrp_8h.html" target="_top" xlink:title=" ">
<polygon fill="white" stroke="black" points="585.5,-291.5 585.5,-310.5 690.5,-310.5 690.5,-291.5 585.5,-291.5"/>
<text text-anchor="middle" x="638" y="-298.5" font-family="Helvetica,sans-Serif" font-size="10.00">wld_secDmnGrp.h</text>
</a>
</g>
</g>
<!-- Node23&#45;&gt;Node24 -->
<g id="edge25" class="edge">
<title>Node23&#45;&gt;Node24</title>
<path fill="none" stroke="midnightblue" d="M638,-347.08C638,-340.01 638,-329.86 638,-320.99"/>
<polygon fill="midnightblue" stroke="midnightblue" points="641.5,-320.75 638,-310.75 634.5,-320.75 641.5,-320.75"/>
</g>
<!-- Node24&#45;&gt;Node5 -->
<g id="edge27" class="edge">
<title>Node24&#45;&gt;Node5</title>
<path fill="none" stroke="midnightblue" d="M623.22,-291.32C608.73,-282.82 586.43,-269.73 569.51,-259.8"/>
<polygon fill="midnightblue" stroke="midnightblue" points="571.14,-256.7 560.74,-254.65 567.6,-262.74 571.14,-256.7"/>
</g>
<!-- Node24&#45;&gt;Node20 -->
<g id="edge26" class="edge">
<title>Node24&#45;&gt;Node20</title>
<path fill="none" stroke="midnightblue" d="M646,-291.37C663.06,-272.97 703.21,-229.67 725.12,-206.05"/>
<polygon fill="midnightblue" stroke="midnightblue" points="727.8,-208.3 732.03,-198.59 722.67,-203.54 727.8,-208.3"/>
</g>
</g>
</svg>
