<?xml version="1.0" encoding="UTF-8" standalone="no"?>
<!DOCTYPE svg PUBLIC "-//W3C//DTD SVG 1.1//EN"
 "http://www.w3.org/Graphics/SVG/1.1/DTD/svg11.dtd">
<!-- Generated by graphviz version 2.43.0 (0)
 -->
<!-- Title: wld_wpaCtrlInterface_init Pages: 1 -->
<svg width="1408pt" height="374pt"
 viewBox="0.00 0.00 1408.00 374.00" xmlns="http://www.w3.org/2000/svg" xmlns:xlink="http://www.w3.org/1999/xlink">
<g id="graph0" class="graph" transform="scale(1 1) rotate(0) translate(4 370)">
<title>wld_wpaCtrlInterface_init</title>
<polygon fill="white" stroke="transparent" points="-4,4 -4,-370 1404,-370 1404,4 -4,4"/>
<!-- Node1 -->
<g id="node1" class="node">
<title>Node1</title>
<g id="a_node1"><a xlink:title=" ">
<polygon fill="#bfbfbf" stroke="black" points="0,-248 0,-267 141,-267 141,-248 0,-248"/>
<text text-anchor="middle" x="70.5" y="-255" font-family="Helvetica,sans-Serif" font-size="10.00">wld_wpaCtrlInterface_init</text>
</a>
</g>
</g>
<!-- Node2 -->
<g id="node2" class="node">
<title>Node2</title>
<g id="a_node2"><a xlink:href="wld__wpaCtrlInterface_8c.html#a6024f927e9325cb624243ab3ada19169" target="_top" xlink:title=" ">
<polygon fill="white" stroke="black" points="177,-242.5 177,-272.5 297,-272.5 297,-242.5 177,-242.5"/>
<text text-anchor="start" x="185" y="-260.5" font-family="Helvetica,sans-Serif" font-size="10.00">wld_wpaCtrlInterface</text>
<text text-anchor="middle" x="237" y="-249.5" font-family="Helvetica,sans-Serif" font-size="10.00">_initWithSockName</text>
</a>
</g>
</g>
<!-- Node1&#45;&gt;Node2 -->
<g id="edge1" class="edge">
<title>Node1&#45;&gt;Node2</title>
<path fill="none" stroke="midnightblue" d="M141.26,-257.5C149.67,-257.5 158.25,-257.5 166.65,-257.5"/>
<polygon fill="midnightblue" stroke="midnightblue" points="166.78,-261 176.78,-257.5 166.78,-254 166.78,-261"/>
</g>
<!-- Node3 -->
<g id="node3" class="node">
<title>Node3</title>
<g id="a_node3"><a xlink:href="wld__wpaCtrlInterface_8c.html#a459412143928ed22bca8796394d85ada" target="_top" xlink:title=" ">
<polygon fill="white" stroke="black" points="333,-242.5 333,-272.5 453,-272.5 453,-242.5 333,-242.5"/>
<text text-anchor="start" x="341" y="-260.5" font-family="Helvetica,sans-Serif" font-size="10.00">wld_wpaCtrlInterface</text>
<text text-anchor="middle" x="393" y="-249.5" font-family="Helvetica,sans-Serif" font-size="10.00">_setConnectionInfo</text>
</a>
</g>
</g>
<!-- Node2&#45;&gt;Node3 -->
<g id="edge2" class="edge">
<title>Node2&#45;&gt;Node3</title>
<path fill="none" stroke="midnightblue" d="M297.1,-257.5C305.42,-257.5 314.04,-257.5 322.53,-257.5"/>
<polygon fill="midnightblue" stroke="midnightblue" points="322.8,-261 332.8,-257.5 322.8,-254 322.8,-261"/>
</g>
<!-- Node4 -->
<g id="node4" class="node">
<title>Node4</title>
<g id="a_node4"><a xlink:href="wld__wpaCtrl__events_8c.html#a5239c4a77e69eb53d45d64e9c4d8965e" target="_top" xlink:title="process msgData received from wpa_ctrl server">
<polygon fill="white" stroke="black" points="495,-319 495,-338 635,-338 635,-319 495,-319"/>
<text text-anchor="middle" x="565" y="-326" font-family="Helvetica,sans-Serif" font-size="10.00">wld_wpaCtrl_processMsg</text>
</a>
</g>
</g>
<!-- Node3&#45;&gt;Node4 -->
<g id="edge3" class="edge">
<title>Node3&#45;&gt;Node4</title>
<path fill="none" stroke="midnightblue" d="M428.2,-272.53C446.24,-280.38 468.76,-290.09 489,-298.5 502.41,-304.08 517.25,-310.05 530.17,-315.19"/>
<polygon fill="midnightblue" stroke="midnightblue" points="529.03,-318.5 539.61,-318.94 531.61,-312 529.03,-318.5"/>
</g>
<!-- Node7 -->
<g id="node7" class="node">
<title>Node7</title>
<g id="a_node7"><a xlink:href="wld__wpaCtrlConnection_8c.html#a6b8f3eb022f9117e30b5ae1ce5cd3310" target="_top" xlink:title=" ">
<polygon fill="white" stroke="black" points="489,-270 489,-289 641,-289 641,-270 489,-270"/>
<text text-anchor="middle" x="565" y="-277" font-family="Helvetica,sans-Serif" font-size="10.00">wld_wpaCtrlConnection_init</text>
</a>
</g>
</g>
<!-- Node3&#45;&gt;Node7 -->
<g id="edge7" class="edge">
<title>Node3&#45;&gt;Node7</title>
<path fill="none" stroke="midnightblue" d="M453.46,-265.19C462.15,-266.32 471.24,-267.5 480.31,-268.67"/>
<polygon fill="midnightblue" stroke="midnightblue" points="480.15,-272.18 490.52,-269.99 481.05,-265.24 480.15,-272.18"/>
</g>
<!-- Node9 -->
<g id="node9" class="node">
<title>Node9</title>
<g id="a_node9"><a xlink:href="wld__wpaCtrlConnection_8c.html#af6ed20a15db7c130a39b05c6db570aab" target="_top" xlink:title=" ">
<polygon fill="white" stroke="black" points="499.5,-171.5 499.5,-201.5 630.5,-201.5 630.5,-171.5 499.5,-171.5"/>
<text text-anchor="start" x="507.5" y="-189.5" font-family="Helvetica,sans-Serif" font-size="10.00">wld_wpaCtrlConnection</text>
<text text-anchor="middle" x="565" y="-178.5" font-family="Helvetica,sans-Serif" font-size="10.00">_setEvtHandlers</text>
</a>
</g>
</g>
<!-- Node3&#45;&gt;Node9 -->
<g id="edge9" class="edge">
<title>Node3&#45;&gt;Node9</title>
<path fill="none" stroke="midnightblue" d="M422.67,-242.42C441.29,-232.92 466.25,-220.75 489,-211.5 494.46,-209.28 500.19,-207.1 505.96,-205.01"/>
<polygon fill="midnightblue" stroke="midnightblue" points="507.39,-208.22 515.65,-201.59 505.06,-201.62 507.39,-208.22"/>
</g>
<!-- Node10 -->
<g id="node10" class="node">
<title>Node10</title>
<g id="a_node10"><a xlink:href="wld__wpaCtrlInterface_8c.html#a303019c3b064bd2babeb3582ecd91d7f" target="_top" xlink:title="close the wpaCtrl interface to wpa_ctrl server This function closes all relative connections (cmd and...">
<polygon fill="white" stroke="black" points="505,-220.5 505,-250.5 625,-250.5 625,-220.5 505,-220.5"/>
<text text-anchor="start" x="513" y="-238.5" font-family="Helvetica,sans-Serif" font-size="10.00">wld_wpaCtrlInterface</text>
<text text-anchor="middle" x="565" y="-227.5" font-family="Helvetica,sans-Serif" font-size="10.00">_close</text>
</a>
</g>
</g>
<!-- Node3&#45;&gt;Node10 -->
<g id="edge10" class="edge">
<title>Node3&#45;&gt;Node10</title>
<path fill="none" stroke="midnightblue" d="M453.46,-249.81C466.73,-248.09 480.93,-246.25 494.57,-244.49"/>
<polygon fill="midnightblue" stroke="midnightblue" points="495.39,-247.91 504.86,-243.15 494.5,-240.97 495.39,-247.91"/>
</g>
<!-- Node5 -->
<g id="node5" class="node">
<title>Node5</title>
<g id="a_node5"><a xlink:href="wld__wpaCtrlInterface_8c.html#a5394fec853913f82bd5c52accf2687b8" target="_top" xlink:title=" ">
<polygon fill="white" stroke="black" points="900.5,-335.5 900.5,-365.5 1020.5,-365.5 1020.5,-335.5 900.5,-335.5"/>
<text text-anchor="start" x="908.5" y="-353.5" font-family="Helvetica,sans-Serif" font-size="10.00">wld_wpaCtrlInterface</text>
<text text-anchor="middle" x="960.5" y="-342.5" font-family="Helvetica,sans-Serif" font-size="10.00">_getName</text>
</a>
</g>
</g>
<!-- Node4&#45;&gt;Node5 -->
<g id="edge4" class="edge">
<title>Node4&#45;&gt;Node5</title>
<path fill="none" stroke="midnightblue" d="M599.19,-338C621.08,-343.76 650.5,-350.55 677,-353.5 749.43,-361.56 832.94,-359.25 890.28,-355.9"/>
<polygon fill="midnightblue" stroke="midnightblue" points="890.55,-359.39 900.32,-355.28 890.12,-352.4 890.55,-359.39"/>
</g>
<!-- Node6 -->
<g id="node6" class="node">
<title>Node6</title>
<g id="a_node6"><a xlink:href="wld__wpaCtrlMngr_8c.html#ad691bfe39273eed2ddd349265e4314bb" target="_top" xlink:title=" ">
<polygon fill="white" stroke="black" points="677.5,-313.5 677.5,-343.5 843.5,-343.5 843.5,-313.5 677.5,-313.5"/>
<text text-anchor="start" x="685.5" y="-331.5" font-family="Helvetica,sans-Serif" font-size="10.00">wld_wpaCtrlMngr_getInterface</text>
<text text-anchor="middle" x="760.5" y="-320.5" font-family="Helvetica,sans-Serif" font-size="10.00">ByName</text>
</a>
</g>
</g>
<!-- Node4&#45;&gt;Node6 -->
<g id="edge5" class="edge">
<title>Node4&#45;&gt;Node6</title>
<path fill="none" stroke="midnightblue" d="M635.04,-328.5C645.4,-328.5 656.23,-328.5 666.99,-328.5"/>
<polygon fill="midnightblue" stroke="midnightblue" points="667.26,-332 677.26,-328.5 667.26,-325 667.26,-332"/>
</g>
<!-- Node6&#45;&gt;Node5 -->
<g id="edge6" class="edge">
<title>Node6&#45;&gt;Node5</title>
<path fill="none" stroke="midnightblue" d="M843.75,-337.64C859.2,-339.36 875.22,-341.14 890.22,-342.8"/>
<polygon fill="midnightblue" stroke="midnightblue" points="890.11,-346.31 900.44,-343.94 890.88,-339.35 890.11,-346.31"/>
</g>
<!-- Node8 -->
<g id="node8" class="node">
<title>Node8</title>
<g id="a_node8"><a xlink:href="wld__wpaCtrlConnection_8c.html#ac77a8013582067279ce3a0ccda177ed8" target="_top" xlink:title=" ">
<polygon fill="white" stroke="black" points="695,-264.5 695,-294.5 826,-294.5 826,-264.5 695,-264.5"/>
<text text-anchor="start" x="703" y="-282.5" font-family="Helvetica,sans-Serif" font-size="10.00">wld_wpaCtrlConnection</text>
<text text-anchor="middle" x="760.5" y="-271.5" font-family="Helvetica,sans-Serif" font-size="10.00">_close</text>
</a>
</g>
</g>
<!-- Node7&#45;&gt;Node8 -->
<g id="edge8" class="edge">
<title>Node7&#45;&gt;Node8</title>
<path fill="none" stroke="midnightblue" d="M641.09,-279.5C655.37,-279.5 670.3,-279.5 684.58,-279.5"/>
<polygon fill="midnightblue" stroke="midnightblue" points="684.83,-283 694.83,-279.5 684.83,-276 684.83,-283"/>
</g>
<!-- Node10&#45;&gt;Node8 -->
<g id="edge11" class="edge">
<title>Node10&#45;&gt;Node8</title>
<path fill="none" stroke="midnightblue" d="M625.11,-248.94C643.93,-253.22 665.01,-258.01 684.79,-262.51"/>
<polygon fill="midnightblue" stroke="midnightblue" points="684.16,-265.96 694.69,-264.76 685.71,-259.13 684.16,-265.96"/>
</g>
<!-- Node11 -->
<g id="node11" class="node">
<title>Node11</title>
<g id="a_node11"><a xlink:href="wld__wpaCtrlConnection_8c.html#a47a34d899bc01dfe767b26ee4f7b87db" target="_top" xlink:title=" ">
<polygon fill="white" stroke="black" points="1089.5,-198.5 1089.5,-228.5 1220.5,-228.5 1220.5,-198.5 1089.5,-198.5"/>
<text text-anchor="start" x="1097.5" y="-216.5" font-family="Helvetica,sans-Serif" font-size="10.00">wld_wpaCtrlConnection</text>
<text text-anchor="middle" x="1155" y="-205.5" font-family="Helvetica,sans-Serif" font-size="10.00">_getConnSrvPath</text>
</a>
</g>
</g>
<!-- Node10&#45;&gt;Node11 -->
<g id="edge12" class="edge">
<title>Node10&#45;&gt;Node11</title>
<path fill="none" stroke="midnightblue" d="M625.07,-233.29C732.75,-229.26 960.72,-220.73 1079.11,-216.3"/>
<polygon fill="midnightblue" stroke="midnightblue" points="1079.32,-219.8 1089.18,-215.93 1079.06,-212.8 1079.32,-219.8"/>
</g>
<!-- Node12 -->
<g id="node12" class="node">
<title>Node12</title>
<g id="a_node12"><a xlink:href="wld__wpaCtrlConnection_8c.html#af7414d719a14459bfbf836e77f643aff" target="_top" xlink:title=" ">
<polygon fill="white" stroke="black" points="688,-107.5 688,-137.5 833,-137.5 833,-107.5 688,-107.5"/>
<text text-anchor="start" x="696" y="-125.5" font-family="Helvetica,sans-Serif" font-size="10.00">wld_wpaCtrlConnection</text>
<text text-anchor="middle" x="760.5" y="-114.5" font-family="Helvetica,sans-Serif" font-size="10.00">_sendCmdCheckResponse</text>
</a>
</g>
</g>
<!-- Node10&#45;&gt;Node12 -->
<g id="edge13" class="edge">
<title>Node10&#45;&gt;Node12</title>
<path fill="none" stroke="midnightblue" d="M624.88,-220.34C630.55,-217.81 636.03,-214.88 641,-211.5 661.89,-197.29 657.55,-183.63 677,-167.5 688.74,-157.77 702.9,-149.15 716.15,-142.12"/>
<polygon fill="midnightblue" stroke="midnightblue" points="717.83,-145.19 725.13,-137.52 714.64,-138.96 717.83,-145.19"/>
</g>
<!-- Node18 -->
<g id="node18" class="node">
<title>Node18</title>
<g id="a_node18"><a xlink:href="wld__wpaCtrlInterface_8c.html#a6bc5243e885837a4bdb99fec68952a95" target="_top" xlink:title=" ">
<polygon fill="white" stroke="black" points="697.5,-176.5 697.5,-206.5 823.5,-206.5 823.5,-176.5 697.5,-176.5"/>
<text text-anchor="start" x="705.5" y="-194.5" font-family="Helvetica,sans-Serif" font-size="10.00">wld_wpaCtrlInterface</text>
<text text-anchor="middle" x="760.5" y="-183.5" font-family="Helvetica,sans-Serif" font-size="10.00">_checkConnectionPath</text>
</a>
</g>
</g>
<!-- Node10&#45;&gt;Node18 -->
<g id="edge19" class="edge">
<title>Node10&#45;&gt;Node18</title>
<path fill="none" stroke="midnightblue" d="M625.11,-222.06C644.78,-217.59 666.92,-212.55 687.46,-207.88"/>
<polygon fill="midnightblue" stroke="midnightblue" points="688.43,-211.25 697.4,-205.62 686.87,-204.42 688.43,-211.25"/>
</g>
<!-- Node21 -->
<g id="node21" class="node">
<title>Node21</title>
<g id="a_node21"><a xlink:href="wld__wpaCtrlMngr_8c.html#ad3e7ad2284a85ee77e110a90f0fd34ae" target="_top" xlink:title="check that wpaCtrl manager is connected: i.e can receive events from its main interface.">
<polygon fill="white" stroke="black" points="677,-50 677,-69 844,-69 844,-50 677,-50"/>
<text text-anchor="middle" x="760.5" y="-57" font-family="Helvetica,sans-Serif" font-size="10.00">wld_wpaCtrlMngr_isConnected</text>
</a>
</g>
</g>
<!-- Node10&#45;&gt;Node21 -->
<g id="edge23" class="edge">
<title>Node10&#45;&gt;Node21</title>
<path fill="none" stroke="midnightblue" d="M625.27,-222.72C631.06,-219.73 636.46,-216.05 641,-211.5 678.25,-174.2 642.29,-138.17 677,-98.5 687,-87.07 701.08,-78.73 714.79,-72.77"/>
<polygon fill="midnightblue" stroke="midnightblue" points="716.18,-75.98 724.16,-69.02 713.57,-69.49 716.18,-75.98"/>
</g>
<!-- Node13 -->
<g id="node13" class="node">
<title>Node13</title>
<g id="a_node13"><a xlink:href="wld__wpaCtrlConnection_8c.html#a5ddba0537d0917bc518e9ef71b539f75" target="_top" xlink:title=" ">
<polygon fill="white" stroke="black" points="880,-88.5 880,-118.5 1041,-118.5 1041,-88.5 880,-88.5"/>
<text text-anchor="start" x="888" y="-106.5" font-family="Helvetica,sans-Serif" font-size="10.00">wld_wpaCtrlConnection</text>
<text text-anchor="middle" x="960.5" y="-95.5" font-family="Helvetica,sans-Serif" font-size="10.00">_sendCmdCheckResponseExt</text>
</a>
</g>
</g>
<!-- Node12&#45;&gt;Node13 -->
<g id="edge14" class="edge">
<title>Node12&#45;&gt;Node13</title>
<path fill="none" stroke="midnightblue" d="M833.26,-115.61C845.11,-114.48 857.52,-113.29 869.74,-112.11"/>
<polygon fill="midnightblue" stroke="midnightblue" points="870.32,-115.57 879.94,-111.13 869.65,-108.61 870.32,-115.57"/>
</g>
<!-- Node14 -->
<g id="node14" class="node">
<title>Node14</title>
<g id="a_node14"><a xlink:href="wld__wpaCtrlConnection_8c.html#ab5b29b7ce5f29ef5dfbe951e5b700428" target="_top" xlink:title=" ">
<polygon fill="white" stroke="black" points="1077,-138 1077,-157 1233,-157 1233,-138 1077,-138"/>
<text text-anchor="middle" x="1155" y="-145" font-family="Helvetica,sans-Serif" font-size="10.00">wld_wpaCtrl_getMaxMsgLen</text>
</a>
</g>
</g>
<!-- Node13&#45;&gt;Node14 -->
<g id="edge15" class="edge">
<title>Node13&#45;&gt;Node14</title>
<path fill="none" stroke="midnightblue" d="M1027.21,-118.52C1051.78,-124.14 1079.32,-130.43 1102.44,-135.71"/>
<polygon fill="midnightblue" stroke="midnightblue" points="1101.85,-139.17 1112.38,-137.99 1103.41,-132.35 1101.85,-139.17"/>
</g>
<!-- Node15 -->
<g id="node15" class="node">
<title>Node15</title>
<g id="a_node15"><a xlink:href="wld__wpaCtrlConnection_8c.html#ae8867992d243efdfa13e360b50730f88" target="_top" xlink:title=" ">
<polygon fill="white" stroke="black" points="1089.5,-88.5 1089.5,-118.5 1220.5,-118.5 1220.5,-88.5 1089.5,-88.5"/>
<text text-anchor="start" x="1097.5" y="-106.5" font-family="Helvetica,sans-Serif" font-size="10.00">wld_wpaCtrlConnection</text>
<text text-anchor="middle" x="1155" y="-95.5" font-family="Helvetica,sans-Serif" font-size="10.00">_sendCmdSyncedExt</text>
</a>
</g>
</g>
<!-- Node13&#45;&gt;Node15 -->
<g id="edge16" class="edge">
<title>Node13&#45;&gt;Node15</title>
<path fill="none" stroke="midnightblue" d="M1041.19,-103.5C1053.71,-103.5 1066.62,-103.5 1079.04,-103.5"/>
<polygon fill="midnightblue" stroke="midnightblue" points="1079.33,-107 1089.33,-103.5 1079.33,-100 1079.33,-107"/>
</g>
<!-- Node16 -->
<g id="node16" class="node">
<title>Node16</title>
<g id="a_node16"><a xlink:href="wld__wpaCtrlConnection_8c.html#abfe3f8b17cf527b1e6fe85a564c8604b" target="_top" xlink:title=" ">
<polygon fill="white" stroke="black" points="1269,-113.5 1269,-143.5 1400,-143.5 1400,-113.5 1269,-113.5"/>
<text text-anchor="start" x="1277" y="-131.5" font-family="Helvetica,sans-Serif" font-size="10.00">wld_wpaCtrlConnection</text>
<text text-anchor="middle" x="1334.5" y="-120.5" font-family="Helvetica,sans-Serif" font-size="10.00">_getConnSockName</text>
</a>
</g>
</g>
<!-- Node15&#45;&gt;Node16 -->
<g id="edge17" class="edge">
<title>Node15&#45;&gt;Node16</title>
<path fill="none" stroke="midnightblue" d="M1220.58,-112.6C1233.02,-114.35 1246.14,-116.2 1258.87,-117.99"/>
<polygon fill="midnightblue" stroke="midnightblue" points="1258.57,-121.48 1268.96,-119.41 1259.55,-114.55 1258.57,-121.48"/>
</g>
<!-- Node17 -->
<g id="node17" class="node">
<title>Node17</title>
<g id="a_node17"><a xlink:href="wld__wpaCtrlConnection_8c.html#aa82226c76dbbf306e509b7c6d3088277" target="_top" xlink:title=" ">
<polygon fill="white" stroke="black" points="1269,-64.5 1269,-94.5 1400,-94.5 1400,-64.5 1269,-64.5"/>
<text text-anchor="start" x="1277" y="-82.5" font-family="Helvetica,sans-Serif" font-size="10.00">wld_wpaCtrlConnection</text>
<text text-anchor="middle" x="1334.5" y="-71.5" font-family="Helvetica,sans-Serif" font-size="10.00">_sendCmd</text>
</a>
</g>
</g>
<!-- Node15&#45;&gt;Node17 -->
<g id="edge18" class="edge">
<title>Node15&#45;&gt;Node17</title>
<path fill="none" stroke="midnightblue" d="M1220.58,-94.77C1233.02,-93.09 1246.14,-91.31 1258.87,-89.59"/>
<polygon fill="midnightblue" stroke="midnightblue" points="1259.52,-93.03 1268.96,-88.23 1258.59,-86.1 1259.52,-93.03"/>
</g>
<!-- Node19 -->
<g id="node19" class="node">
<title>Node19</title>
<g id="a_node19"><a xlink:href="wld__wpaCtrlConnection_8c.html#a379089510626b43f9386a6db71f4a3ef" target="_top" xlink:title=" ">
<polygon fill="white" stroke="black" points="883,-138 883,-157 1038,-157 1038,-138 883,-138"/>
<text text-anchor="middle" x="960.5" y="-145" font-family="Helvetica,sans-Serif" font-size="10.00">wld_wpaCtrl_checkSockPath</text>
</a>
</g>
</g>
<!-- Node18&#45;&gt;Node19 -->
<g id="edge20" class="edge">
<title>Node18&#45;&gt;Node19</title>
<path fill="none" stroke="midnightblue" d="M823.61,-177.7C850.34,-171.76 881.26,-164.89 906.85,-159.2"/>
<polygon fill="midnightblue" stroke="midnightblue" points="907.73,-162.59 916.73,-157 906.21,-155.76 907.73,-162.59"/>
</g>
<!-- Node20 -->
<g id="node20" class="node">
<title>Node20</title>
<g id="a_node20"><a xlink:href="wld__wpaCtrlInterface_8c.html#a9acfa80398f0e1389219c511e1b3b073" target="_top" xlink:title=" ">
<polygon fill="white" stroke="black" points="900.5,-176.5 900.5,-206.5 1020.5,-206.5 1020.5,-176.5 900.5,-176.5"/>
<text text-anchor="start" x="908.5" y="-194.5" font-family="Helvetica,sans-Serif" font-size="10.00">wld_wpaCtrlInterface</text>
<text text-anchor="middle" x="960.5" y="-183.5" font-family="Helvetica,sans-Serif" font-size="10.00">_getPath</text>
</a>
</g>
</g>
<!-- Node18&#45;&gt;Node20 -->
<g id="edge21" class="edge">
<title>Node18&#45;&gt;Node20</title>
<path fill="none" stroke="midnightblue" d="M823.61,-191.5C844.75,-191.5 868.52,-191.5 890.2,-191.5"/>
<polygon fill="midnightblue" stroke="midnightblue" points="890.32,-195 900.32,-191.5 890.32,-188 890.32,-195"/>
</g>
<!-- Node20&#45;&gt;Node11 -->
<g id="edge22" class="edge">
<title>Node20&#45;&gt;Node11</title>
<path fill="none" stroke="midnightblue" d="M1020.56,-198.25C1039.11,-200.37 1059.82,-202.74 1079.3,-204.96"/>
<polygon fill="midnightblue" stroke="midnightblue" points="1079.02,-208.45 1089.35,-206.11 1079.81,-201.5 1079.02,-208.45"/>
</g>
<!-- Node22 -->
<g id="node22" class="node">
<title>Node22</title>
<g id="a_node22"><a xlink:href="wld__secDmn_8c.html#ad8ebf9f869b635102d27d9a476e4d9eb" target="_top" xlink:title=" ">
<polygon fill="white" stroke="black" points="894.5,-50 894.5,-69 1026.5,-69 1026.5,-50 894.5,-50"/>
<text text-anchor="middle" x="960.5" y="-57" font-family="Helvetica,sans-Serif" font-size="10.00">wld_secDmn_isRunning</text>
</a>
</g>
</g>
<!-- Node21&#45;&gt;Node22 -->
<g id="edge24" class="edge">
<title>Node21&#45;&gt;Node22</title>
<path fill="none" stroke="midnightblue" d="M844.04,-59.5C857.27,-59.5 870.9,-59.5 883.95,-59.5"/>
<polygon fill="midnightblue" stroke="midnightblue" points="884.28,-63 894.28,-59.5 884.28,-56 884.28,-63"/>
</g>
<!-- Node24 -->
<g id="node24" class="node">
<title>Node24</title>
<g id="a_node24"><a xlink:href="wld__wpaCtrlMngr_8c.html#a3dc93dfda0d67c0e7254cc1ffeeb3ebe" target="_top" xlink:title=" ">
<polygon fill="white" stroke="black" points="889,-0.5 889,-30.5 1032,-30.5 1032,-0.5 889,-0.5"/>
<text text-anchor="start" x="897" y="-18.5" font-family="Helvetica,sans-Serif" font-size="10.00">wld_wpaCtrlMngr_getFirst</text>
<text text-anchor="middle" x="960.5" y="-7.5" font-family="Helvetica,sans-Serif" font-size="10.00">ReadyInterface</text>
</a>
</g>
</g>
<!-- Node21&#45;&gt;Node24 -->
<g id="edge26" class="edge">
<title>Node21&#45;&gt;Node24</title>
<path fill="none" stroke="midnightblue" d="M804.46,-49.95C827.05,-44.93 855.45,-38.62 881.75,-32.78"/>
<polygon fill="midnightblue" stroke="midnightblue" points="882.7,-36.15 891.71,-30.57 881.18,-29.32 882.7,-36.15"/>
</g>
<!-- Node23 -->
<g id="node23" class="node">
<title>Node23</title>
<g id="a_node23"><a xlink:href="wld__daemon_8c.html#a6ba98a859d038541e1c2ee48d8566547" target="_top" xlink:title=" ">
<polygon fill="white" stroke="black" points="1098,-50 1098,-69 1212,-69 1212,-50 1098,-50"/>
<text text-anchor="middle" x="1155" y="-57" font-family="Helvetica,sans-Serif" font-size="10.00">wld_dmn_isRunning</text>
</a>
</g>
</g>
<!-- Node22&#45;&gt;Node23 -->
<g id="edge25" class="edge">
<title>Node22&#45;&gt;Node23</title>
<path fill="none" stroke="midnightblue" d="M1026.67,-59.5C1046.36,-59.5 1068,-59.5 1087.76,-59.5"/>
<polygon fill="midnightblue" stroke="midnightblue" points="1087.9,-63 1097.9,-59.5 1087.9,-56 1087.9,-63"/>
</g>
<!-- Node25 -->
<g id="node25" class="node">
<title>Node25</title>
<g id="a_node25"><a xlink:href="wld__wpaCtrlInterface_8c.html#a8b38bc9ca95b60e002d38cdb1374d1d0" target="_top" xlink:title=" ">
<polygon fill="white" stroke="black" points="1095,-0.5 1095,-30.5 1215,-30.5 1215,-0.5 1095,-0.5"/>
<text text-anchor="start" x="1103" y="-18.5" font-family="Helvetica,sans-Serif" font-size="10.00">wld_wpaCtrlInterface</text>
<text text-anchor="middle" x="1155" y="-7.5" font-family="Helvetica,sans-Serif" font-size="10.00">_isReady</text>
</a>
</g>
</g>
<!-- Node24&#45;&gt;Node25 -->
<g id="edge27" class="edge">
<title>Node24&#45;&gt;Node25</title>
<path fill="none" stroke="midnightblue" d="M1032.09,-15.5C1049.15,-15.5 1067.37,-15.5 1084.39,-15.5"/>
<polygon fill="midnightblue" stroke="midnightblue" points="1084.8,-19 1094.8,-15.5 1084.8,-12 1084.8,-19"/>
</g>
</g>
</svg>
