<?xml version="1.0" encoding="UTF-8" standalone="no"?>
<!DOCTYPE svg PUBLIC "-//W3C//DTD SVG 1.1//EN"
 "http://www.w3.org/Graphics/SVG/1.1/DTD/svg11.dtd">
<!-- Generated by graphviz version 2.43.0 (0)
 -->
<!-- Title: wld_linuxIfUtils_getState Pages: 1 -->
<svg width="541pt" height="142pt"
 viewBox="0.00 0.00 541.00 142.00" xmlns="http://www.w3.org/2000/svg" xmlns:xlink="http://www.w3.org/1999/xlink">
<g id="graph0" class="graph" transform="scale(1 1) rotate(0) translate(4 138)">
<title>wld_linuxIfUtils_getState</title>
<polygon fill="white" stroke="transparent" points="-4,4 -4,-138 537,-138 537,4 -4,4"/>
<!-- Node1 -->
<g id="node1" class="node">
<title>Node1</title>
<g id="a_node1"><a xlink:title=" ">
<polygon fill="#bfbfbf" stroke="black" points="394,-57.5 394,-76.5 533,-76.5 533,-57.5 394,-57.5"/>
<text text-anchor="middle" x="463.5" y="-64.5" font-family="Helvetica,sans-Serif" font-size="10.00">wld_linuxIfUtils_getState</text>
</a>
</g>
</g>
<!-- Node2 -->
<g id="node2" class="node">
<title>Node2</title>
<g id="a_node2"><a xlink:href="wifiGen__rad_8c.html#a24f261e38f0ad308c80b5c1a7902f537" target="_top" xlink:title=" ">
<polygon fill="white" stroke="black" points="219.5,-114.5 219.5,-133.5 341.5,-133.5 341.5,-114.5 219.5,-114.5"/>
<text text-anchor="middle" x="280.5" y="-121.5" font-family="Helvetica,sans-Serif" font-size="10.00">wifiGen_rad_supports</text>
</a>
</g>
</g>
<!-- Node1&#45;&gt;Node2 -->
<g id="edge1" class="edge">
<title>Node1&#45;&gt;Node2</title>
<path fill="none" stroke="midnightblue" d="M428.81,-80.27C408.48,-88.03 381.96,-97.69 358,-105 346.87,-108.39 334.7,-111.63 323.41,-114.44"/>
<polygon fill="midnightblue" stroke="midnightblue" points="430.18,-83.5 438.25,-76.64 427.66,-76.97 430.18,-83.5"/>
</g>
<!-- Node3 -->
<g id="node3" class="node">
<title>Node3</title>
<g id="a_node3"><a xlink:href="wld__linuxIfUtils_8c.html#a51c79a19795d90811bdd9655cdace3c3" target="_top" xlink:title=" ">
<polygon fill="white" stroke="black" points="203,-76.5 203,-95.5 358,-95.5 358,-76.5 203,-76.5"/>
<text text-anchor="middle" x="280.5" y="-83.5" font-family="Helvetica,sans-Serif" font-size="10.00">wld_linuxIfUtils_getStateExt</text>
</a>
</g>
</g>
<!-- Node1&#45;&gt;Node3 -->
<g id="edge2" class="edge">
<title>Node1&#45;&gt;Node3</title>
<path fill="none" stroke="midnightblue" d="M383.84,-75.26C375.27,-76.16 366.55,-77.07 358.01,-77.97"/>
<polygon fill="midnightblue" stroke="midnightblue" points="384.23,-78.74 393.81,-74.21 383.5,-71.77 384.23,-78.74"/>
</g>
<!-- Node4 -->
<g id="node4" class="node">
<title>Node4</title>
<g id="a_node4"><a xlink:href="wld__linuxIfUtils_8c.html#a959a9e146e5060f68af048061372b919" target="_top" xlink:title=" ">
<polygon fill="white" stroke="black" points="204.5,-38.5 204.5,-57.5 356.5,-57.5 356.5,-38.5 204.5,-38.5"/>
<text text-anchor="middle" x="280.5" y="-45.5" font-family="Helvetica,sans-Serif" font-size="10.00">wld_linuxIfUtils_updateMac</text>
</a>
</g>
</g>
<!-- Node1&#45;&gt;Node4 -->
<g id="edge3" class="edge">
<title>Node1&#45;&gt;Node4</title>
<path fill="none" stroke="midnightblue" d="M383.78,-58.74C374.82,-57.8 365.7,-56.84 356.79,-55.9"/>
<polygon fill="midnightblue" stroke="midnightblue" points="383.5,-62.23 393.81,-59.79 384.23,-55.26 383.5,-62.23"/>
</g>
<!-- Node6 -->
<g id="node6" class="node">
<title>Node6</title>
<g id="a_node6"><a xlink:href="wld__util_8c.html#ad9cb15ae28e8e123fbc0c2d371b61944" target="_top" xlink:title=" ">
<polygon fill="white" stroke="black" points="208.5,-0.5 208.5,-19.5 352.5,-19.5 352.5,-0.5 208.5,-0.5"/>
<text text-anchor="middle" x="280.5" y="-7.5" font-family="Helvetica,sans-Serif" font-size="10.00">wld_util_getLinuxIntfState</text>
</a>
</g>
</g>
<!-- Node1&#45;&gt;Node6 -->
<g id="edge5" class="edge">
<title>Node1&#45;&gt;Node6</title>
<path fill="none" stroke="midnightblue" d="M428.81,-53.73C408.48,-45.97 381.96,-36.31 358,-29 346.87,-25.61 334.7,-22.37 323.41,-19.56"/>
<polygon fill="midnightblue" stroke="midnightblue" points="427.66,-57.03 438.25,-57.36 430.18,-50.5 427.66,-57.03"/>
</g>
<!-- Node5 -->
<g id="node5" class="node">
<title>Node5</title>
<g id="a_node5"><a xlink:href="wld__linuxIfUtils_8c.html#a57dc83a1df6fff548df049df496994a6" target="_top" xlink:title=" ">
<polygon fill="white" stroke="black" points="0,-38.5 0,-57.5 167,-57.5 167,-38.5 0,-38.5"/>
<text text-anchor="middle" x="83.5" y="-45.5" font-family="Helvetica,sans-Serif" font-size="10.00">wld_linuxIfUtils_updateMacExt</text>
</a>
</g>
</g>
<!-- Node4&#45;&gt;Node5 -->
<g id="edge4" class="edge">
<title>Node4&#45;&gt;Node5</title>
<path fill="none" stroke="midnightblue" d="M194.26,-48C185.22,-48 176.04,-48 167.03,-48"/>
<polygon fill="midnightblue" stroke="midnightblue" points="194.39,-51.5 204.39,-48 194.39,-44.5 194.39,-51.5"/>
</g>
</g>
</svg>
