<?xml version="1.0" encoding="UTF-8" standalone="no"?>
<!DOCTYPE svg PUBLIC "-//W3C//DTD SVG 1.1//EN"
 "http://www.w3.org/Graphics/SVG/1.1/DTD/svg11.dtd">
<!-- Generated by graphviz version 2.43.0 (0)
 -->
<!-- Title: src/nl80211/wld_hostapd_ap_api.c Pages: 1 -->
<svg width="4456pt" height="319pt"
 viewBox="0.00 0.00 4456.46 319.00" xmlns="http://www.w3.org/2000/svg" xmlns:xlink="http://www.w3.org/1999/xlink">
<g id="graph0" class="graph" transform="scale(1 1) rotate(0) translate(4 315)">
<title>src/nl80211/wld_hostapd_ap_api.c</title>
<polygon fill="white" stroke="transparent" points="-4,4 -4,-315 4452.46,-315 4452.46,4 -4,4"/>
<!-- Node1 -->
<g id="node1" class="node">
<title>Node1</title>
<g id="a_node1"><a xlink:title=" ">
<polygon fill="#bfbfbf" stroke="black" points="2054.72,-280.5 2054.72,-310.5 2191.72,-310.5 2191.72,-280.5 2054.72,-280.5"/>
<text text-anchor="start" x="2062.72" y="-298.5" font-family="Helvetica,sans-Serif" font-size="10.00">src/nl80211/wld_hostapd</text>
<text text-anchor="middle" x="2123.22" y="-287.5" font-family="Helvetica,sans-Serif" font-size="10.00">_ap_api.c</text>
</a>
</g>
</g>
<!-- Node2 -->
<g id="node2" class="node">
<title>Node2</title>
<g id="a_node2"><a xlink:title=" ">
<polygon fill="white" stroke="#bfbfbf" points="1586.72,-224.5 1586.72,-243.5 1655.72,-243.5 1655.72,-224.5 1586.72,-224.5"/>
<text text-anchor="middle" x="1621.22" y="-231.5" font-family="Helvetica,sans-Serif" font-size="10.00">arpa/inet.h</text>
</a>
</g>
</g>
<!-- Node1&#45;&gt;Node2 -->
<g id="edge1" class="edge">
<title>Node1&#45;&gt;Node2</title>
<path fill="none" stroke="midnightblue" d="M2054.34,-288.35C1965.38,-280.05 1805.86,-263.99 1670.22,-244 1668.92,-243.81 1667.61,-243.61 1666.28,-243.4"/>
<polygon fill="midnightblue" stroke="midnightblue" points="1666.41,-239.87 1655.97,-241.7 1665.27,-246.78 1666.41,-239.87"/>
</g>
<!-- Node3 -->
<g id="node3" class="node">
<title>Node3</title>
<g id="a_node3"><a xlink:href="wld_8h.html" target="_top" xlink:title=" ">
<polygon fill="white" stroke="red" points="2206.72,-168.5 2206.72,-187.5 2249.72,-187.5 2249.72,-168.5 2206.72,-168.5"/>
<text text-anchor="middle" x="2228.22" y="-175.5" font-family="Helvetica,sans-Serif" font-size="10.00">wld.h</text>
</a>
</g>
</g>
<!-- Node1&#45;&gt;Node3 -->
<g id="edge2" class="edge">
<title>Node1&#45;&gt;Node3</title>
<path fill="none" stroke="midnightblue" d="M2191.93,-288.53C2221.35,-282.16 2253.06,-269.39 2271.22,-244 2283.29,-227.13 2265.49,-207.16 2249.27,-193.85"/>
<polygon fill="midnightblue" stroke="midnightblue" points="2251.15,-190.88 2241.09,-187.55 2246.87,-196.42 2251.15,-190.88"/>
</g>
<!-- Node76 -->
<g id="node40" class="node">
<title>Node76</title>
<g id="a_node40"><a xlink:href="wld__util_8h.html" target="_top" xlink:title=" ">
<polygon fill="white" stroke="black" points="1896.22,-224.5 1896.22,-243.5 1960.22,-243.5 1960.22,-224.5 1896.22,-224.5"/>
<text text-anchor="middle" x="1928.22" y="-231.5" font-family="Helvetica,sans-Serif" font-size="10.00">wld_util.h</text>
</a>
</g>
</g>
<!-- Node1&#45;&gt;Node76 -->
<g id="edge47" class="edge">
<title>Node1&#45;&gt;Node76</title>
<path fill="none" stroke="midnightblue" d="M2077.01,-280.4C2043.17,-270.07 1997.8,-256.23 1966.1,-246.56"/>
<polygon fill="midnightblue" stroke="midnightblue" points="1966.9,-243.14 1956.31,-243.57 1964.86,-249.84 1966.9,-243.14"/>
</g>
<!-- Node77 -->
<g id="node41" class="node">
<title>Node77</title>
<g id="a_node41"><a xlink:href="wld__radio_8h.html" target="_top" xlink:title=" ">
<polygon fill="white" stroke="red" points="1978.72,-224.5 1978.72,-243.5 2051.72,-243.5 2051.72,-224.5 1978.72,-224.5"/>
<text text-anchor="middle" x="2015.22" y="-231.5" font-family="Helvetica,sans-Serif" font-size="10.00">wld_radio.h</text>
</a>
</g>
</g>
<!-- Node1&#45;&gt;Node77 -->
<g id="edge49" class="edge">
<title>Node1&#45;&gt;Node77</title>
<path fill="none" stroke="midnightblue" d="M2097.63,-280.4C2080.16,-270.77 2057.14,-258.09 2039.87,-248.58"/>
<polygon fill="midnightblue" stroke="midnightblue" points="2041.39,-245.42 2030.94,-243.66 2038.01,-251.55 2041.39,-245.42"/>
</g>
<!-- Node84 -->
<g id="node42" class="node">
<title>Node84</title>
<g id="a_node42"><a xlink:href="wld__rad__hostapd__api_8h.html" target="_top" xlink:title=" ">
<polygon fill="white" stroke="black" points="1712.22,-224.5 1712.22,-243.5 1840.22,-243.5 1840.22,-224.5 1712.22,-224.5"/>
<text text-anchor="middle" x="1776.22" y="-231.5" font-family="Helvetica,sans-Serif" font-size="10.00">wld_rad_hostapd_api.h</text>
</a>
</g>
</g>
<!-- Node1&#45;&gt;Node84 -->
<g id="edge51" class="edge">
<title>Node1&#45;&gt;Node84</title>
<path fill="none" stroke="midnightblue" d="M2054.67,-282.74C1990.91,-271.81 1896.85,-255.68 1836.06,-245.26"/>
<polygon fill="midnightblue" stroke="midnightblue" points="1836.3,-241.75 1825.85,-243.51 1835.12,-248.65 1836.3,-241.75"/>
</g>
<!-- Node85 -->
<g id="node43" class="node">
<title>Node85</title>
<g id="a_node43"><a xlink:href="wld__hostapd__ap__api_8h.html" target="_top" xlink:title=" ">
<polygon fill="white" stroke="red" points="1621.72,-168.5 1621.72,-187.5 1746.72,-187.5 1746.72,-168.5 1621.72,-168.5"/>
<text text-anchor="middle" x="1684.22" y="-175.5" font-family="Helvetica,sans-Serif" font-size="10.00">wld_hostapd_ap_api.h</text>
</a>
</g>
</g>
<!-- Node1&#45;&gt;Node85 -->
<g id="edge56" class="edge">
<title>Node1&#45;&gt;Node85</title>
<path fill="none" stroke="midnightblue" d="M2054.48,-295.13C1949.19,-294.66 1754.77,-287.68 1703.22,-244 1689.93,-232.73 1685.66,-212.72 1684.42,-197.87"/>
<polygon fill="midnightblue" stroke="midnightblue" points="1687.91,-197.58 1683.97,-187.75 1680.92,-197.9 1687.91,-197.58"/>
</g>
<!-- Node86 -->
<g id="node44" class="node">
<title>Node86</title>
<g id="a_node44"><a xlink:href="wld__hostapd__cfgFile_8h.html" target="_top" xlink:title=" ">
<polygon fill="white" stroke="black" points="2468.72,-224.5 2468.72,-243.5 2593.72,-243.5 2593.72,-224.5 2468.72,-224.5"/>
<text text-anchor="middle" x="2531.22" y="-231.5" font-family="Helvetica,sans-Serif" font-size="10.00">wld_hostapd_cfgFile.h</text>
</a>
</g>
</g>
<!-- Node1&#45;&gt;Node86 -->
<g id="edge55" class="edge">
<title>Node1&#45;&gt;Node86</title>
<path fill="none" stroke="midnightblue" d="M2191.97,-284.47C2267.24,-273.5 2387.21,-256 2462.47,-245.03"/>
<polygon fill="midnightblue" stroke="midnightblue" points="2463.4,-248.43 2472.79,-243.52 2462.39,-241.5 2463.4,-248.43"/>
</g>
<!-- Node87 -->
<g id="node45" class="node">
<title>Node87</title>
<g id="a_node45"><a xlink:href="wld__wpaCtrl__api_8h.html" target="_top" xlink:title=" ">
<polygon fill="white" stroke="red" points="1790.22,-168.5 1790.22,-187.5 1896.22,-187.5 1896.22,-168.5 1790.22,-168.5"/>
<text text-anchor="middle" x="1843.22" y="-175.5" font-family="Helvetica,sans-Serif" font-size="10.00">wld_wpaCtrl_api.h</text>
</a>
</g>
</g>
<!-- Node1&#45;&gt;Node87 -->
<g id="edge57" class="edge">
<title>Node1&#45;&gt;Node87</title>
<path fill="none" stroke="midnightblue" d="M2054.65,-293.23C2004.48,-289.29 1936.82,-277.44 1887.22,-244 1870.15,-232.49 1857.9,-211.91 1850.73,-196.99"/>
<polygon fill="midnightblue" stroke="midnightblue" points="1853.87,-195.43 1846.58,-187.74 1847.48,-198.3 1853.87,-195.43"/>
</g>
<!-- Node88 -->
<g id="node46" class="node">
<title>Node88</title>
<g id="a_node46"><a xlink:href="wld__accesspoint_8h.html" target="_top" xlink:title=" ">
<polygon fill="white" stroke="red" points="2070.22,-224.5 2070.22,-243.5 2176.22,-243.5 2176.22,-224.5 2070.22,-224.5"/>
<text text-anchor="middle" x="2123.22" y="-231.5" font-family="Helvetica,sans-Serif" font-size="10.00">wld_accesspoint.h</text>
</a>
</g>
</g>
<!-- Node1&#45;&gt;Node88 -->
<g id="edge59" class="edge">
<title>Node1&#45;&gt;Node88</title>
<path fill="none" stroke="midnightblue" d="M2123.22,-280.4C2123.22,-272.47 2123.22,-262.46 2123.22,-253.86"/>
<polygon fill="midnightblue" stroke="midnightblue" points="2126.72,-253.66 2123.22,-243.66 2119.72,-253.66 2126.72,-253.66"/>
</g>
<!-- Node90 -->
<g id="node47" class="node">
<title>Node90</title>
<g id="a_node47"><a xlink:href="wld__ssid_8h.html" target="_top" xlink:title=" ">
<polygon fill="white" stroke="black" points="2194.22,-224.5 2194.22,-243.5 2262.22,-243.5 2262.22,-224.5 2194.22,-224.5"/>
<text text-anchor="middle" x="2228.22" y="-231.5" font-family="Helvetica,sans-Serif" font-size="10.00">wld_ssid.h</text>
</a>
</g>
</g>
<!-- Node1&#45;&gt;Node90 -->
<g id="edge61" class="edge">
<title>Node1&#45;&gt;Node90</title>
<path fill="none" stroke="midnightblue" d="M2148.11,-280.4C2164.94,-270.86 2187.06,-258.32 2203.8,-248.84"/>
<polygon fill="midnightblue" stroke="midnightblue" points="2205.97,-251.63 2212.95,-243.66 2202.52,-245.54 2205.97,-251.63"/>
</g>
<!-- Node91 -->
<g id="node48" class="node">
<title>Node91</title>
<g id="a_node48"><a xlink:href="wld__assocdev_8h.html" target="_top" xlink:title=" ">
<polygon fill="white" stroke="red" points="2318.72,-224.5 2318.72,-243.5 2411.72,-243.5 2411.72,-224.5 2318.72,-224.5"/>
<text text-anchor="middle" x="2365.22" y="-231.5" font-family="Helvetica,sans-Serif" font-size="10.00">wld_assocdev.h</text>
</a>
</g>
</g>
<!-- Node1&#45;&gt;Node91 -->
<g id="edge63" class="edge">
<title>Node1&#45;&gt;Node91</title>
<path fill="none" stroke="midnightblue" d="M2180.27,-280.47C2223.2,-269.92 2281.22,-255.66 2320.75,-245.94"/>
<polygon fill="midnightblue" stroke="midnightblue" points="2321.75,-249.29 2330.63,-243.51 2320.08,-242.5 2321.75,-249.29"/>
</g>
<!-- Node92 -->
<g id="node49" class="node">
<title>Node92</title>
<g id="a_node49"><a xlink:title=" ">
<polygon fill="white" stroke="#bfbfbf" points="2359.72,-168.5 2359.72,-187.5 2444.72,-187.5 2444.72,-168.5 2359.72,-168.5"/>
<text text-anchor="middle" x="2402.22" y="-175.5" font-family="Helvetica,sans-Serif" font-size="10.00">swl/swl_hex.h</text>
</a>
</g>
</g>
<!-- Node1&#45;&gt;Node92 -->
<g id="edge66" class="edge">
<title>Node1&#45;&gt;Node92</title>
<path fill="none" stroke="midnightblue" d="M2191.89,-292.72C2270.34,-289.06 2391.59,-277.92 2420.22,-244 2431.63,-230.5 2423.33,-210.32 2414.59,-196.03"/>
<polygon fill="midnightblue" stroke="midnightblue" points="2417.45,-194.01 2408.99,-187.63 2411.62,-197.89 2417.45,-194.01"/>
</g>
<!-- Node83 -->
<g id="node50" class="node">
<title>Node83</title>
<g id="a_node50"><a xlink:title=" ">
<polygon fill="white" stroke="#bfbfbf" points="2612.22,-224.5 2612.22,-243.5 2748.22,-243.5 2748.22,-224.5 2612.22,-224.5"/>
<text text-anchor="middle" x="2680.22" y="-231.5" font-family="Helvetica,sans-Serif" font-size="10.00">swl/swl_common_mac.h</text>
</a>
</g>
</g>
<!-- Node1&#45;&gt;Node83 -->
<g id="edge67" class="edge">
<title>Node1&#45;&gt;Node83</title>
<path fill="none" stroke="midnightblue" d="M2192.01,-287.52C2283.23,-278.2 2449.52,-261.01 2602.17,-244.11"/>
<polygon fill="midnightblue" stroke="midnightblue" points="2602.66,-247.57 2612.21,-242.99 2601.88,-240.62 2602.66,-247.57"/>
</g>
<!-- Node4 -->
<g id="node4" class="node">
<title>Node4</title>
<g id="a_node4"><a xlink:title=" ">
<polygon fill="white" stroke="#bfbfbf" points="4264.22,-56.5 4264.22,-75.5 4326.22,-75.5 4326.22,-56.5 4264.22,-56.5"/>
<text text-anchor="middle" x="4295.22" y="-63.5" font-family="Helvetica,sans-Serif" font-size="10.00">stdbool.h</text>
</a>
</g>
</g>
<!-- Node3&#45;&gt;Node4 -->
<g id="edge3" class="edge">
<title>Node3&#45;&gt;Node4</title>
<path fill="none" stroke="midnightblue" d="M2249.8,-175.05C2274.16,-172.93 2315.01,-169.63 2350.22,-168 2455.13,-163.14 4145.38,-177.09 4240.22,-132 4261.01,-122.12 4276.86,-100.22 4286.08,-84.57"/>
<polygon fill="midnightblue" stroke="midnightblue" points="4289.16,-86.24 4290.96,-75.8 4283.04,-82.84 4289.16,-86.24"/>
</g>
<!-- Node5 -->
<g id="node5" class="node">
<title>Node5</title>
<g id="a_node5"><a xlink:title=" ">
<polygon fill="white" stroke="#bfbfbf" points="131.72,-0.5 131.72,-19.5 184.72,-19.5 184.72,-0.5 131.72,-0.5"/>
<text text-anchor="middle" x="158.22" y="-7.5" font-family="Helvetica,sans-Serif" font-size="10.00">stdint.h</text>
</a>
</g>
</g>
<!-- Node3&#45;&gt;Node5 -->
<g id="edge4" class="edge">
<title>Node3&#45;&gt;Node5</title>
<path fill="none" stroke="midnightblue" d="M2206.68,-176.35C2154.79,-174.79 2018.79,-170.77 1905.22,-168 1857.23,-166.83 213.38,-163.58 177.22,-132 148.36,-106.79 150.72,-57.09 154.65,-29.89"/>
<polygon fill="midnightblue" stroke="midnightblue" points="158.15,-30.19 156.34,-19.75 151.24,-29.03 158.15,-30.19"/>
</g>
<!-- Node6 -->
<g id="node6" class="node">
<title>Node6</title>
<g id="a_node6"><a xlink:title=" ">
<polygon fill="white" stroke="#bfbfbf" points="20.22,-112.5 20.22,-131.5 130.22,-131.5 130.22,-112.5 20.22,-112.5"/>
<text text-anchor="middle" x="75.22" y="-119.5" font-family="Helvetica,sans-Serif" font-size="10.00">swl/swl_common.h</text>
</a>
</g>
</g>
<!-- Node3&#45;&gt;Node6 -->
<g id="edge5" class="edge">
<title>Node3&#45;&gt;Node6</title>
<path fill="none" stroke="midnightblue" d="M2206.68,-176.34C2154.79,-174.78 2018.79,-170.74 1905.22,-168 1122.62,-149.1 924.85,-190.71 144.22,-132 143.11,-131.92 141.99,-131.83 140.85,-131.73"/>
<polygon fill="midnightblue" stroke="midnightblue" points="140.82,-128.21 130.53,-130.75 140.16,-135.18 140.82,-128.21"/>
</g>
<!-- Node7 -->
<g id="node7" class="node">
<title>Node7</title>
<g id="a_node7"><a xlink:title=" ">
<polygon fill="white" stroke="#bfbfbf" points="365.22,-112.5 365.22,-131.5 501.22,-131.5 501.22,-112.5 365.22,-112.5"/>
<text text-anchor="middle" x="433.22" y="-119.5" font-family="Helvetica,sans-Serif" font-size="10.00">swla/swla_commonLib.h</text>
</a>
</g>
</g>
<!-- Node3&#45;&gt;Node7 -->
<g id="edge6" class="edge">
<title>Node3&#45;&gt;Node7</title>
<path fill="none" stroke="midnightblue" d="M2206.68,-176.38C2154.79,-174.91 2018.78,-171.05 1905.22,-168 1288.57,-151.45 1130.56,-175.78 511.69,-132.04"/>
<polygon fill="midnightblue" stroke="midnightblue" points="511.85,-128.54 501.63,-131.32 511.35,-135.52 511.85,-128.54"/>
</g>
<!-- Node8 -->
<g id="node8" class="node">
<title>Node8</title>
<g id="a_node8"><a xlink:title=" ">
<polygon fill="white" stroke="#bfbfbf" points="519.22,-112.5 519.22,-131.5 607.22,-131.5 607.22,-112.5 519.22,-112.5"/>
<text text-anchor="middle" x="563.22" y="-119.5" font-family="Helvetica,sans-Serif" font-size="10.00">swl/swl_uuid.h</text>
</a>
</g>
</g>
<!-- Node3&#45;&gt;Node8 -->
<g id="edge7" class="edge">
<title>Node3&#45;&gt;Node8</title>
<path fill="none" stroke="midnightblue" d="M2206.67,-176.4C2024.5,-171.32 745.94,-135.71 617.71,-131.38"/>
<polygon fill="midnightblue" stroke="midnightblue" points="617.54,-127.87 607.41,-130.98 617.26,-134.87 617.54,-127.87"/>
</g>
<!-- Node9 -->
<g id="node9" class="node">
<title>Node9</title>
<g id="a_node9"><a xlink:title=" ">
<polygon fill="white" stroke="#bfbfbf" points="625.22,-112.5 625.22,-131.5 777.22,-131.5 777.22,-112.5 625.22,-112.5"/>
<text text-anchor="middle" x="701.22" y="-119.5" font-family="Helvetica,sans-Serif" font-size="10.00">swla/swla_radioStandards.h</text>
</a>
</g>
</g>
<!-- Node3&#45;&gt;Node9 -->
<g id="edge8" class="edge">
<title>Node3&#45;&gt;Node9</title>
<path fill="none" stroke="midnightblue" d="M2206.52,-176.37C2036.99,-171.43 928.01,-139.04 787.66,-131.94"/>
<polygon fill="midnightblue" stroke="midnightblue" points="787.84,-128.44 777.66,-131.36 787.44,-135.43 787.84,-128.44"/>
</g>
<!-- Node10 -->
<g id="node10" class="node">
<title>Node10</title>
<g id="a_node10"><a xlink:title=" ">
<polygon fill="white" stroke="#bfbfbf" points="4318.72,-0.5 4318.72,-19.5 4419.72,-19.5 4419.72,-0.5 4318.72,-0.5"/>
<text text-anchor="middle" x="4369.22" y="-7.5" font-family="Helvetica,sans-Serif" font-size="10.00">swla/swla_time.h</text>
</a>
</g>
</g>
<!-- Node3&#45;&gt;Node10 -->
<g id="edge9" class="edge">
<title>Node3&#45;&gt;Node10</title>
<path fill="none" stroke="midnightblue" d="M2249.8,-175.04C2274.16,-172.91 2315.01,-169.6 2350.22,-168 2408.17,-165.37 4397.56,-173.37 4438.22,-132 4469.83,-99.84 4418.79,-50.33 4388.73,-25.81"/>
<polygon fill="midnightblue" stroke="midnightblue" points="4390.9,-23.07 4380.89,-19.59 4386.55,-28.55 4390.9,-23.07"/>
</g>
<!-- Node11 -->
<g id="node11" class="node">
<title>Node11</title>
<g id="a_node11"><a xlink:title=" ">
<polygon fill="white" stroke="#bfbfbf" points="795.72,-112.5 795.72,-131.5 924.72,-131.5 924.72,-112.5 795.72,-112.5"/>
<text text-anchor="middle" x="860.22" y="-119.5" font-family="Helvetica,sans-Serif" font-size="10.00">swla/swla_time_spec.h</text>
</a>
</g>
</g>
<!-- Node3&#45;&gt;Node11 -->
<g id="edge10" class="edge">
<title>Node3&#45;&gt;Node11</title>
<path fill="none" stroke="midnightblue" d="M2206.7,-176.36C2051.65,-171.77 1106.91,-143.51 934.76,-131.91"/>
<polygon fill="midnightblue" stroke="midnightblue" points="934.99,-128.41 924.77,-131.18 934.49,-135.39 934.99,-128.41"/>
</g>
<!-- Node12 -->
<g id="node12" class="node">
<title>Node12</title>
<g id="a_node12"><a xlink:title=" ">
<polygon fill="white" stroke="#bfbfbf" points="943.22,-112.5 943.22,-131.5 1037.22,-131.5 1037.22,-112.5 943.22,-112.5"/>
<text text-anchor="middle" x="990.22" y="-119.5" font-family="Helvetica,sans-Serif" font-size="10.00">swla/swla_oui.h</text>
</a>
</g>
</g>
<!-- Node3&#45;&gt;Node12 -->
<g id="edge11" class="edge">
<title>Node3&#45;&gt;Node12</title>
<path fill="none" stroke="midnightblue" d="M2206.67,-176.34C2059.77,-171.8 1207.23,-145.14 1047.79,-131.94"/>
<polygon fill="midnightblue" stroke="midnightblue" points="1047.8,-128.43 1037.53,-131.02 1047.17,-135.4 1047.8,-128.43"/>
</g>
<!-- Node13 -->
<g id="node13" class="node">
<title>Node13</title>
<g id="a_node13"><a xlink:title=" ">
<polygon fill="white" stroke="#bfbfbf" points="1055.22,-112.5 1055.22,-131.5 1183.22,-131.5 1183.22,-112.5 1055.22,-112.5"/>
<text text-anchor="middle" x="1119.22" y="-119.5" font-family="Helvetica,sans-Serif" font-size="10.00">swla/swla_delayExec.h</text>
</a>
</g>
</g>
<!-- Node3&#45;&gt;Node13 -->
<g id="edge12" class="edge">
<title>Node3&#45;&gt;Node13</title>
<path fill="none" stroke="midnightblue" d="M2206.44,-176.29C2078.2,-172.07 1419.81,-149.93 1193.42,-132.01"/>
<polygon fill="midnightblue" stroke="midnightblue" points="1193.54,-128.51 1183.29,-131.19 1192.97,-135.49 1193.54,-128.51"/>
</g>
<!-- Node14 -->
<g id="node14" class="node">
<title>Node14</title>
<g id="a_node14"><a xlink:title=" ">
<polygon fill="white" stroke="#bfbfbf" points="1201.72,-112.5 1201.72,-131.5 1320.72,-131.5 1320.72,-112.5 1201.72,-112.5"/>
<text text-anchor="middle" x="1261.22" y="-119.5" font-family="Helvetica,sans-Serif" font-size="10.00">swla/swla_function.h</text>
</a>
</g>
</g>
<!-- Node3&#45;&gt;Node14 -->
<g id="edge13" class="edge">
<title>Node3&#45;&gt;Node14</title>
<path fill="none" stroke="midnightblue" d="M2206.61,-176.57C2107.51,-174.46 1686.52,-164.01 1330.87,-132.08"/>
<polygon fill="midnightblue" stroke="midnightblue" points="1331.17,-128.59 1320.9,-131.18 1330.54,-135.57 1331.17,-128.59"/>
</g>
<!-- Node15 -->
<g id="node15" class="node">
<title>Node15</title>
<g id="a_node15"><a xlink:title=" ">
<polygon fill="white" stroke="#bfbfbf" points="1338.72,-112.5 1338.72,-131.5 1479.72,-131.5 1479.72,-112.5 1338.72,-112.5"/>
<text text-anchor="middle" x="1409.22" y="-119.5" font-family="Helvetica,sans-Serif" font-size="10.00">swl/swl_usp_cmdStatus.h</text>
</a>
</g>
</g>
<!-- Node3&#45;&gt;Node15 -->
<g id="edge14" class="edge">
<title>Node3&#45;&gt;Node15</title>
<path fill="none" stroke="midnightblue" d="M2206.43,-176.08C2118.4,-172.29 1780.28,-156.89 1490.17,-132.03"/>
<polygon fill="midnightblue" stroke="midnightblue" points="1490.14,-128.52 1479.88,-131.15 1489.54,-135.49 1490.14,-128.52"/>
</g>
<!-- Node16 -->
<g id="node16" class="node">
<title>Node16</title>
<g id="a_node16"><a xlink:title=" ">
<polygon fill="white" stroke="#bfbfbf" points="1498.22,-112.5 1498.22,-131.5 1584.22,-131.5 1584.22,-112.5 1498.22,-112.5"/>
<text text-anchor="middle" x="1541.22" y="-119.5" font-family="Helvetica,sans-Serif" font-size="10.00">swl/swl_wps.h</text>
</a>
</g>
</g>
<!-- Node3&#45;&gt;Node16 -->
<g id="edge15" class="edge">
<title>Node3&#45;&gt;Node16</title>
<path fill="none" stroke="midnightblue" d="M2206.49,-176.25C2126.48,-173.34 1840.63,-161.46 1594.52,-132.03"/>
<polygon fill="midnightblue" stroke="midnightblue" points="1594.65,-128.53 1584.31,-130.8 1593.81,-135.47 1594.65,-128.53"/>
</g>
<!-- Node17 -->
<g id="node17" class="node">
<title>Node17</title>
<g id="a_node17"><a xlink:title=" ">
<polygon fill="white" stroke="#bfbfbf" points="1602.22,-112.5 1602.22,-131.5 1706.22,-131.5 1706.22,-112.5 1602.22,-112.5"/>
<text text-anchor="middle" x="1654.22" y="-119.5" font-family="Helvetica,sans-Serif" font-size="10.00">swl/swl_security.h</text>
</a>
</g>
</g>
<!-- Node3&#45;&gt;Node17 -->
<g id="edge16" class="edge">
<title>Node3&#45;&gt;Node17</title>
<path fill="none" stroke="midnightblue" d="M2206.67,-175.57C2137.26,-170.86 1913.08,-154.89 1716.66,-132.11"/>
<polygon fill="midnightblue" stroke="midnightblue" points="1716.78,-128.6 1706.44,-130.91 1715.97,-135.55 1716.78,-128.6"/>
</g>
<!-- Node18 -->
<g id="node18" class="node">
<title>Node18</title>
<g id="a_node18"><a xlink:title=" ">
<polygon fill="white" stroke="#bfbfbf" points="1724.72,-112.5 1724.72,-131.5 1807.72,-131.5 1807.72,-112.5 1724.72,-112.5"/>
<text text-anchor="middle" x="1766.22" y="-119.5" font-family="Helvetica,sans-Serif" font-size="10.00">amxc/amxc.h</text>
</a>
</g>
</g>
<!-- Node3&#45;&gt;Node18 -->
<g id="edge17" class="edge">
<title>Node3&#45;&gt;Node18</title>
<path fill="none" stroke="midnightblue" d="M2206.33,-175.11C2146.16,-169.82 1973.04,-153.87 1818.11,-132.04"/>
<polygon fill="midnightblue" stroke="midnightblue" points="1818.33,-128.53 1807.94,-130.59 1817.35,-135.46 1818.33,-128.53"/>
</g>
<!-- Node19 -->
<g id="node19" class="node">
<title>Node19</title>
<g id="a_node19"><a xlink:title=" ">
<polygon fill="white" stroke="#bfbfbf" points="1826.22,-112.5 1826.22,-131.5 1910.22,-131.5 1910.22,-112.5 1826.22,-112.5"/>
<text text-anchor="middle" x="1868.22" y="-119.5" font-family="Helvetica,sans-Serif" font-size="10.00">amxp/amxp.h</text>
</a>
</g>
</g>
<!-- Node3&#45;&gt;Node19 -->
<g id="edge18" class="edge">
<title>Node3&#45;&gt;Node19</title>
<path fill="none" stroke="midnightblue" d="M2206.46,-174.06C2157.37,-167.38 2034.06,-150.32 1920.16,-132.11"/>
<polygon fill="midnightblue" stroke="midnightblue" points="1920.66,-128.65 1910.23,-130.52 1919.55,-135.56 1920.66,-128.65"/>
</g>
<!-- Node20 -->
<g id="node20" class="node">
<title>Node20</title>
<g id="a_node20"><a xlink:title=" ">
<polygon fill="white" stroke="#bfbfbf" points="1928.22,-112.5 1928.22,-131.5 2068.22,-131.5 2068.22,-112.5 1928.22,-112.5"/>
<text text-anchor="middle" x="1998.22" y="-119.5" font-family="Helvetica,sans-Serif" font-size="10.00">amxd/amxd_parameter.h</text>
</a>
</g>
</g>
<!-- Node3&#45;&gt;Node20 -->
<g id="edge19" class="edge">
<title>Node3&#45;&gt;Node20</title>
<path fill="none" stroke="midnightblue" d="M2206.59,-171.92C2169.66,-163.25 2093.68,-145.41 2044.39,-133.84"/>
<polygon fill="midnightblue" stroke="midnightblue" points="2045.14,-130.42 2034.61,-131.54 2043.54,-137.23 2045.14,-130.42"/>
</g>
<!-- Node21 -->
<g id="node21" class="node">
<title>Node21</title>
<g id="a_node21"><a xlink:title=" ">
<polygon fill="white" stroke="#bfbfbf" points="2086.72,-112.5 2086.72,-131.5 2205.72,-131.5 2205.72,-112.5 2086.72,-112.5"/>
<text text-anchor="middle" x="2146.22" y="-119.5" font-family="Helvetica,sans-Serif" font-size="10.00">amxd/amxd_action.h</text>
</a>
</g>
</g>
<!-- Node3&#45;&gt;Node21 -->
<g id="edge20" class="edge">
<title>Node3&#45;&gt;Node21</title>
<path fill="none" stroke="midnightblue" d="M2215.05,-168.32C2202.38,-159.98 2182.99,-147.21 2168.02,-137.35"/>
<polygon fill="midnightblue" stroke="midnightblue" points="2169.64,-134.23 2159.37,-131.65 2165.79,-140.08 2169.64,-134.23"/>
</g>
<!-- Node22 -->
<g id="node22" class="node">
<title>Node22</title>
<g id="a_node22"><a xlink:title=" ">
<polygon fill="white" stroke="#bfbfbf" points="2223.72,-112.5 2223.72,-131.5 2398.72,-131.5 2398.72,-112.5 2223.72,-112.5"/>
<text text-anchor="middle" x="2311.22" y="-119.5" font-family="Helvetica,sans-Serif" font-size="10.00">amxd/amxd_object_parameter.h</text>
</a>
</g>
</g>
<!-- Node3&#45;&gt;Node22 -->
<g id="edge21" class="edge">
<title>Node3&#45;&gt;Node22</title>
<path fill="none" stroke="midnightblue" d="M2241.56,-168.32C2254.39,-159.98 2274.01,-147.21 2289.16,-137.35"/>
<polygon fill="midnightblue" stroke="midnightblue" points="2291.45,-140.04 2297.92,-131.65 2287.63,-134.17 2291.45,-140.04"/>
</g>
<!-- Node23 -->
<g id="node23" class="node">
<title>Node23</title>
<g id="a_node23"><a xlink:title=" ">
<polygon fill="white" stroke="#bfbfbf" points="2417.22,-112.5 2417.22,-131.5 2569.22,-131.5 2569.22,-112.5 2417.22,-112.5"/>
<text text-anchor="middle" x="2493.22" y="-119.5" font-family="Helvetica,sans-Serif" font-size="10.00">amxd/amxd_object_event.h</text>
</a>
</g>
</g>
<!-- Node3&#45;&gt;Node23 -->
<g id="edge22" class="edge">
<title>Node3&#45;&gt;Node23</title>
<path fill="none" stroke="midnightblue" d="M2249.91,-172.58C2291.42,-164.12 2383.16,-145.43 2441.38,-133.57"/>
<polygon fill="midnightblue" stroke="midnightblue" points="2442.38,-136.93 2451.48,-131.51 2440.98,-130.07 2442.38,-136.93"/>
</g>
<!-- Node24 -->
<g id="node24" class="node">
<title>Node24</title>
<g id="a_node24"><a xlink:title=" ">
<polygon fill="white" stroke="#bfbfbf" points="2587.72,-112.5 2587.72,-131.5 2716.72,-131.5 2716.72,-112.5 2587.72,-112.5"/>
<text text-anchor="middle" x="2652.22" y="-119.5" font-family="Helvetica,sans-Serif" font-size="10.00">amxd/amxd_function.h</text>
</a>
</g>
</g>
<!-- Node3&#45;&gt;Node24 -->
<g id="edge23" class="edge">
<title>Node3&#45;&gt;Node24</title>
<path fill="none" stroke="midnightblue" d="M2249.83,-174.25C2309.47,-166.65 2478.46,-145.13 2577.45,-132.52"/>
<polygon fill="midnightblue" stroke="midnightblue" points="2577.92,-135.99 2587.39,-131.26 2577.03,-129.05 2577.92,-135.99"/>
</g>
<!-- Node25 -->
<g id="node25" class="node">
<title>Node25</title>
<g id="a_node25"><a xlink:title=" ">
<polygon fill="white" stroke="#bfbfbf" points="2734.72,-112.5 2734.72,-131.5 2903.72,-131.5 2903.72,-112.5 2734.72,-112.5"/>
<text text-anchor="middle" x="2819.22" y="-119.5" font-family="Helvetica,sans-Serif" font-size="10.00">amxd/amxd_object_hierarchy.h</text>
</a>
</g>
</g>
<!-- Node3&#45;&gt;Node25 -->
<g id="edge24" class="edge">
<title>Node3&#45;&gt;Node25</title>
<path fill="none" stroke="midnightblue" d="M2250.07,-175.08C2318.4,-169.05 2534.35,-149.91 2724.4,-132.17"/>
<polygon fill="midnightblue" stroke="midnightblue" points="2724.95,-135.63 2734.58,-131.21 2724.3,-128.66 2724.95,-135.63"/>
</g>
<!-- Node26 -->
<g id="node26" class="node">
<title>Node26</title>
<g id="a_node26"><a xlink:title=" ">
<polygon fill="white" stroke="#bfbfbf" points="2921.72,-112.5 2921.72,-131.5 3040.72,-131.5 3040.72,-112.5 2921.72,-112.5"/>
<text text-anchor="middle" x="2981.22" y="-119.5" font-family="Helvetica,sans-Serif" font-size="10.00">amxd/amxd_object.h</text>
</a>
</g>
</g>
<!-- Node3&#45;&gt;Node26 -->
<g id="edge25" class="edge">
<title>Node3&#45;&gt;Node26</title>
<path fill="none" stroke="midnightblue" d="M2249.82,-175.34C2274.2,-173.49 2315.05,-170.42 2350.22,-168 2597.07,-151 2661.99,-156.32 2911.45,-132.12"/>
<polygon fill="midnightblue" stroke="midnightblue" points="2911.93,-135.59 2921.55,-131.13 2911.25,-128.62 2911.93,-135.59"/>
</g>
<!-- Node27 -->
<g id="node27" class="node">
<title>Node27</title>
<g id="a_node27"><a xlink:title=" ">
<polygon fill="white" stroke="#bfbfbf" points="3058.72,-112.5 3058.72,-131.5 3163.72,-131.5 3163.72,-112.5 3058.72,-112.5"/>
<text text-anchor="middle" x="3111.22" y="-119.5" font-family="Helvetica,sans-Serif" font-size="10.00">amxd/amxd_dm.h</text>
</a>
</g>
</g>
<!-- Node3&#45;&gt;Node27 -->
<g id="edge26" class="edge">
<title>Node3&#45;&gt;Node27</title>
<path fill="none" stroke="midnightblue" d="M2249.81,-175.26C2274.19,-173.33 2315.04,-170.2 2350.22,-168 2657.8,-148.75 2738.5,-162.47 3048.51,-132.08"/>
<polygon fill="midnightblue" stroke="midnightblue" points="3049.08,-135.54 3058.69,-131.07 3048.4,-128.57 3049.08,-135.54"/>
</g>
<!-- Node28 -->
<g id="node28" class="node">
<title>Node28</title>
<g id="a_node28"><a xlink:title=" ">
<polygon fill="white" stroke="#bfbfbf" points="3182.22,-112.5 3182.22,-131.5 3326.22,-131.5 3326.22,-112.5 3182.22,-112.5"/>
<text text-anchor="middle" x="3254.22" y="-119.5" font-family="Helvetica,sans-Serif" font-size="10.00">amxd/amxd_transaction.h</text>
</a>
</g>
</g>
<!-- Node3&#45;&gt;Node28 -->
<g id="edge27" class="edge">
<title>Node3&#45;&gt;Node28</title>
<path fill="none" stroke="midnightblue" d="M2249.81,-175.21C2274.18,-173.24 2315.03,-170.07 2350.22,-168 2712.42,-146.72 2806.49,-159.99 3171.77,-132.06"/>
<polygon fill="midnightblue" stroke="midnightblue" points="3172.12,-135.54 3181.82,-131.29 3171.58,-128.57 3172.12,-135.54"/>
</g>
<!-- Node29 -->
<g id="node29" class="node">
<title>Node29</title>
<g id="a_node29"><a xlink:title=" ">
<polygon fill="white" stroke="#bfbfbf" points="3344.22,-112.5 3344.22,-131.5 3460.22,-131.5 3460.22,-112.5 3344.22,-112.5"/>
<text text-anchor="middle" x="3402.22" y="-119.5" font-family="Helvetica,sans-Serif" font-size="10.00">amxb/amxb_types.h</text>
</a>
</g>
</g>
<!-- Node3&#45;&gt;Node29 -->
<g id="edge28" class="edge">
<title>Node3&#45;&gt;Node29</title>
<path fill="none" stroke="midnightblue" d="M2249.81,-175.16C2274.18,-173.15 2315.02,-169.94 2350.22,-168 2784.32,-144.06 2897.04,-168.82 3334.1,-132"/>
<polygon fill="midnightblue" stroke="midnightblue" points="3334.49,-135.48 3344.16,-131.15 3333.9,-128.51 3334.49,-135.48"/>
</g>
<!-- Node30 -->
<g id="node30" class="node">
<title>Node30</title>
<g id="a_node30"><a xlink:title=" ">
<polygon fill="white" stroke="#bfbfbf" points="3478.22,-112.5 3478.22,-131.5 3614.22,-131.5 3614.22,-112.5 3478.22,-112.5"/>
<text text-anchor="middle" x="3546.22" y="-119.5" font-family="Helvetica,sans-Serif" font-size="10.00">amxb/amxb_operators.h</text>
</a>
</g>
</g>
<!-- Node3&#45;&gt;Node30 -->
<g id="edge29" class="edge">
<title>Node3&#45;&gt;Node30</title>
<path fill="none" stroke="midnightblue" d="M2249.8,-175.14C2274.17,-173.09 2315.02,-169.86 2350.22,-168 2843.72,-141.87 2971.27,-168.55 3467.52,-132.06"/>
<polygon fill="midnightblue" stroke="midnightblue" points="3468.11,-135.53 3477.82,-131.3 3467.59,-128.55 3468.11,-135.53"/>
</g>
<!-- Node31 -->
<g id="node31" class="node">
<title>Node31</title>
<g id="a_node31"><a xlink:title=" ">
<polygon fill="white" stroke="#bfbfbf" points="3632.22,-112.5 3632.22,-131.5 3744.22,-131.5 3744.22,-112.5 3632.22,-112.5"/>
<text text-anchor="middle" x="3688.22" y="-119.5" font-family="Helvetica,sans-Serif" font-size="10.00">amxb/amxb_error.h</text>
</a>
</g>
</g>
<!-- Node3&#45;&gt;Node31 -->
<g id="edge30" class="edge">
<title>Node3&#45;&gt;Node31</title>
<path fill="none" stroke="midnightblue" d="M2249.8,-175.11C2274.17,-173.05 2315.01,-169.8 2350.22,-168 2912.18,-139.34 3057.47,-178.42 3621.87,-132.01"/>
<polygon fill="midnightblue" stroke="midnightblue" points="3622.22,-135.5 3631.9,-131.18 3621.64,-128.52 3622.22,-135.5"/>
</g>
<!-- Node32 -->
<g id="node32" class="node">
<title>Node32</title>
<g id="a_node32"><a xlink:title=" ">
<polygon fill="white" stroke="#bfbfbf" points="3762.72,-112.5 3762.72,-131.5 3845.72,-131.5 3845.72,-112.5 3762.72,-112.5"/>
<text text-anchor="middle" x="3804.22" y="-119.5" font-family="Helvetica,sans-Serif" font-size="10.00">amxo/amxo.h</text>
</a>
</g>
</g>
<!-- Node3&#45;&gt;Node32 -->
<g id="edge31" class="edge">
<title>Node3&#45;&gt;Node32</title>
<path fill="none" stroke="midnightblue" d="M2249.8,-175.09C2274.17,-173.01 2315.01,-169.75 2350.22,-168 2969.87,-137.21 3130.86,-193.76 3752.44,-131.89"/>
<polygon fill="midnightblue" stroke="midnightblue" points="3752.94,-135.36 3762.55,-130.88 3752.25,-128.39 3752.94,-135.36"/>
</g>
<!-- Node33 -->
<g id="node33" class="node">
<title>Node33</title>
<g id="a_node33"><a xlink:title=" ">
<polygon fill="white" stroke="#bfbfbf" points="3863.72,-112.5 3863.72,-131.5 3978.72,-131.5 3978.72,-112.5 3863.72,-112.5"/>
<text text-anchor="middle" x="3921.22" y="-119.5" font-family="Helvetica,sans-Serif" font-size="10.00">amxo/amxo_types.h</text>
</a>
</g>
</g>
<!-- Node3&#45;&gt;Node33 -->
<g id="edge32" class="edge">
<title>Node3&#45;&gt;Node33</title>
<path fill="none" stroke="midnightblue" d="M2249.8,-175.08C2274.17,-172.99 2315.01,-169.72 2350.22,-168 3015.08,-135.54 3186.52,-184.77 3853.32,-132.06"/>
<polygon fill="midnightblue" stroke="midnightblue" points="3853.98,-135.51 3863.67,-131.23 3853.43,-128.54 3853.98,-135.51"/>
</g>
<!-- Node34 -->
<g id="node34" class="node">
<title>Node34</title>
<g id="a_node34"><a xlink:href="wld__types_8h.html" target="_top" xlink:title=" ">
<polygon fill="white" stroke="red" points="271.72,-56.5 271.72,-75.5 346.72,-75.5 346.72,-56.5 271.72,-56.5"/>
<text text-anchor="middle" x="309.22" y="-63.5" font-family="Helvetica,sans-Serif" font-size="10.00">wld_types.h</text>
</a>
</g>
</g>
<!-- Node3&#45;&gt;Node34 -->
<g id="edge33" class="edge">
<title>Node3&#45;&gt;Node34</title>
<path fill="none" stroke="midnightblue" d="M2249.8,-175.05C2274.16,-172.93 2315.01,-169.64 2350.22,-168 2402.23,-165.58 4187.76,-169.17 4224.22,-132 4230.45,-125.65 4230.47,-118.32 4224.22,-112 4188.51,-75.87 802.02,-67.97 357.23,-67.09"/>
<polygon fill="midnightblue" stroke="midnightblue" points="356.98,-63.59 346.98,-67.07 356.97,-70.59 356.98,-63.59"/>
</g>
<!-- Node37 -->
<g id="node35" class="node">
<title>Node37</title>
<g id="a_node35"><a xlink:href="wld__channel__types_8h.html" target="_top" xlink:title=" ">
<polygon fill="white" stroke="red" points="4309.72,-112.5 4309.72,-131.5 4428.72,-131.5 4428.72,-112.5 4309.72,-112.5"/>
<text text-anchor="middle" x="4369.22" y="-119.5" font-family="Helvetica,sans-Serif" font-size="10.00">wld_channel_types.h</text>
</a>
</g>
</g>
<!-- Node3&#45;&gt;Node37 -->
<g id="edge36" class="edge">
<title>Node3&#45;&gt;Node37</title>
<path fill="none" stroke="midnightblue" d="M2249.8,-175.05C2274.16,-172.93 2315.01,-169.62 2350.22,-168 3213.9,-128.18 3432.74,-192.27 4295.22,-132 4296.53,-131.91 4297.85,-131.81 4299.18,-131.71"/>
<polygon fill="midnightblue" stroke="midnightblue" points="4299.85,-135.16 4309.5,-130.8 4299.23,-128.19 4299.85,-135.16"/>
</g>
<!-- Node39 -->
<g id="node36" class="node">
<title>Node39</title>
<g id="a_node36"><a xlink:href="wld__bgdfs_8h.html" target="_top" xlink:title=" ">
<polygon fill="white" stroke="black" points="271.72,-112.5 271.72,-131.5 346.72,-131.5 346.72,-112.5 271.72,-112.5"/>
<text text-anchor="middle" x="309.22" y="-119.5" font-family="Helvetica,sans-Serif" font-size="10.00">wld_bgdfs.h</text>
</a>
</g>
</g>
<!-- Node3&#45;&gt;Node39 -->
<g id="edge39" class="edge">
<title>Node3&#45;&gt;Node39</title>
<path fill="none" stroke="midnightblue" d="M2206.68,-176.37C2154.79,-174.84 2018.79,-170.9 1905.22,-168 1564.3,-159.29 714.98,-168.33 357.04,-131.84"/>
<polygon fill="midnightblue" stroke="midnightblue" points="357.16,-128.33 346.85,-130.77 356.43,-135.3 357.16,-128.33"/>
</g>
<!-- Node40 -->
<g id="node37" class="node">
<title>Node40</title>
<g id="a_node37"><a xlink:href="wld__rad__delayMgr_8h.html" target="_top" xlink:title=" ">
<polygon fill="white" stroke="black" points="3997.22,-112.5 3997.22,-131.5 4111.22,-131.5 4111.22,-112.5 3997.22,-112.5"/>
<text text-anchor="middle" x="4054.22" y="-119.5" font-family="Helvetica,sans-Serif" font-size="10.00">wld_rad_delayMgr.h</text>
</a>
</g>
</g>
<!-- Node3&#45;&gt;Node40 -->
<g id="edge41" class="edge">
<title>Node3&#45;&gt;Node40</title>
<path fill="none" stroke="midnightblue" d="M2250.1,-174.43C2272.99,-172.35 2309.4,-169.52 2341.22,-168 3068.57,-133.2 3253.31,-189.29 3979.22,-132 3981.75,-131.8 3984.32,-131.57 3986.92,-131.31"/>
<polygon fill="midnightblue" stroke="midnightblue" points="3987.49,-134.77 3997.06,-130.22 3986.74,-127.81 3987.49,-134.77"/>
</g>
<!-- Node41 -->
<g id="node38" class="node">
<title>Node41</title>
<g id="a_node38"><a xlink:href="wld__fsm_8h.html" target="_top" xlink:title=" ">
<polygon fill="white" stroke="black" points="186.72,-112.5 186.72,-131.5 253.72,-131.5 253.72,-112.5 186.72,-112.5"/>
<text text-anchor="middle" x="220.22" y="-119.5" font-family="Helvetica,sans-Serif" font-size="10.00">wld_fsm.h</text>
</a>
</g>
</g>
<!-- Node3&#45;&gt;Node41 -->
<g id="edge43" class="edge">
<title>Node3&#45;&gt;Node41</title>
<path fill="none" stroke="midnightblue" d="M2206.68,-176.36C2154.79,-174.81 2018.79,-170.83 1905.22,-168 1543.44,-159 641.44,-174.17 264.24,-131.99"/>
<polygon fill="midnightblue" stroke="midnightblue" points="264.39,-128.49 254.06,-130.82 263.59,-135.44 264.39,-128.49"/>
</g>
<!-- Node42 -->
<g id="node39" class="node">
<title>Node42</title>
<g id="a_node39"><a xlink:href="wld__sensing_8h.html" target="_top" xlink:title=" ">
<polygon fill="white" stroke="black" points="4129.22,-112.5 4129.22,-131.5 4215.22,-131.5 4215.22,-112.5 4129.22,-112.5"/>
<text text-anchor="middle" x="4172.22" y="-119.5" font-family="Helvetica,sans-Serif" font-size="10.00">wld_sensing.h</text>
</a>
</g>
</g>
<!-- Node3&#45;&gt;Node42 -->
<g id="edge45" class="edge">
<title>Node3&#45;&gt;Node42</title>
<path fill="none" stroke="midnightblue" d="M2250.1,-174.42C2272.99,-172.33 2309.4,-169.5 2341.22,-168 3127.19,-131.04 3328.01,-207.31 4111.22,-132 4113.74,-131.76 4116.31,-131.46 4118.92,-131.13"/>
<polygon fill="midnightblue" stroke="midnightblue" points="4119.65,-134.56 4129.05,-129.69 4118.66,-127.63 4119.65,-134.56"/>
</g>
<!-- Node34&#45;&gt;Node5 -->
<g id="edge34" class="edge">
<title>Node34&#45;&gt;Node5</title>
<path fill="none" stroke="midnightblue" d="M285.3,-56.44C260.01,-47.4 219.92,-33.06 191.54,-22.92"/>
<polygon fill="midnightblue" stroke="midnightblue" points="192.63,-19.59 182.04,-19.52 190.28,-26.18 192.63,-19.59"/>
</g>
<!-- Node34&#45;&gt;Node10 -->
<g id="edge35" class="edge">
<title>Node34&#45;&gt;Node10</title>
<path fill="none" stroke="midnightblue" d="M346.82,-64.5C724.75,-59.47 3834.25,-18.12 4308.63,-11.81"/>
<polygon fill="midnightblue" stroke="midnightblue" points="4308.75,-15.3 4318.7,-11.67 4308.65,-8.31 4308.75,-15.3"/>
</g>
<!-- Node37&#45;&gt;Node4 -->
<g id="edge37" class="edge">
<title>Node37&#45;&gt;Node4</title>
<path fill="none" stroke="midnightblue" d="M4357.34,-112.32C4346.07,-104.11 4328.94,-91.6 4315.52,-81.81"/>
<polygon fill="midnightblue" stroke="midnightblue" points="4317.47,-78.9 4307.33,-75.83 4313.34,-84.56 4317.47,-78.9"/>
</g>
<!-- Node37&#45;&gt;Node10 -->
<g id="edge38" class="edge">
<title>Node37&#45;&gt;Node10</title>
<path fill="none" stroke="midnightblue" d="M4369.22,-112.37C4369.22,-94.62 4369.22,-53.67 4369.22,-29.6"/>
<polygon fill="midnightblue" stroke="midnightblue" points="4372.72,-29.59 4369.22,-19.59 4365.72,-29.59 4372.72,-29.59"/>
</g>
<!-- Node39&#45;&gt;Node34 -->
<g id="edge40" class="edge">
<title>Node39&#45;&gt;Node34</title>
<path fill="none" stroke="midnightblue" d="M309.22,-112.08C309.22,-105.01 309.22,-94.86 309.22,-85.99"/>
<polygon fill="midnightblue" stroke="midnightblue" points="312.72,-85.75 309.22,-75.75 305.72,-85.75 312.72,-85.75"/>
</g>
<!-- Node40&#45;&gt;Node3 -->
<g id="edge42" class="edge">
<title>Node40&#45;&gt;Node3</title>
<path fill="none" stroke="midnightblue" d="M4002.83,-131.52C4000.94,-131.69 3999.07,-131.85 3997.22,-132 3271.31,-189.29 3086.57,-133.2 2359.22,-168 2325.51,-169.61 2286.65,-172.69 2259.86,-174.79"/>
<polygon fill="midnightblue" stroke="midnightblue" points="2259.57,-171.31 2249.87,-175.57 2260.11,-178.28 2259.57,-171.31"/>
</g>
<!-- Node41&#45;&gt;Node34 -->
<g id="edge44" class="edge">
<title>Node41&#45;&gt;Node34</title>
<path fill="none" stroke="midnightblue" d="M234.52,-112.32C248.41,-103.9 269.72,-90.97 286.03,-81.07"/>
<polygon fill="midnightblue" stroke="midnightblue" points="288.23,-83.83 294.96,-75.65 284.6,-77.85 288.23,-83.83"/>
</g>
<!-- Node42&#45;&gt;Node3 -->
<g id="edge46" class="edge">
<title>Node42&#45;&gt;Node3</title>
<path fill="none" stroke="midnightblue" d="M4133.65,-131.53C4132.16,-131.7 4130.68,-131.86 4129.22,-132 3346.01,-207.31 3145.19,-131.04 2359.22,-168 2325.51,-169.59 2286.65,-172.67 2259.86,-174.78"/>
<polygon fill="midnightblue" stroke="midnightblue" points="2259.57,-171.29 2249.87,-175.57 2260.12,-178.27 2259.57,-171.29"/>
</g>
<!-- Node76&#45;&gt;Node3 -->
<g id="edge48" class="edge">
<title>Node76&#45;&gt;Node3</title>
<path fill="none" stroke="midnightblue" d="M1960.43,-225.79C1963.4,-225.17 1966.36,-224.56 1969.22,-224 2051,-207.93 2147.89,-191.89 2196.73,-184.01"/>
<polygon fill="midnightblue" stroke="midnightblue" points="2197.36,-187.46 2206.68,-182.41 2196.25,-180.55 2197.36,-187.46"/>
</g>
<!-- Node77&#45;&gt;Node3 -->
<g id="edge50" class="edge">
<title>Node77&#45;&gt;Node3</title>
<path fill="none" stroke="midnightblue" d="M2048.97,-224.44C2089.57,-214.15 2157.18,-197.01 2196.74,-186.98"/>
<polygon fill="midnightblue" stroke="midnightblue" points="2197.8,-190.32 2206.63,-184.47 2196.08,-183.54 2197.8,-190.32"/>
</g>
<!-- Node84&#45;&gt;Node3 -->
<g id="edge52" class="edge">
<title>Node84&#45;&gt;Node3</title>
<path fill="none" stroke="midnightblue" d="M1840.5,-225.32C1938.77,-213.58 2122.69,-191.61 2196.44,-182.8"/>
<polygon fill="midnightblue" stroke="midnightblue" points="2196.98,-186.26 2206.5,-181.6 2196.15,-179.31 2196.98,-186.26"/>
</g>
<!-- Node84&#45;&gt;Node85 -->
<g id="edge53" class="edge">
<title>Node84&#45;&gt;Node85</title>
<path fill="none" stroke="midnightblue" d="M1761.44,-224.32C1746.96,-215.82 1724.65,-202.73 1707.73,-192.8"/>
<polygon fill="midnightblue" stroke="midnightblue" points="1709.37,-189.7 1698.97,-187.65 1705.82,-195.74 1709.37,-189.7"/>
</g>
<!-- Node85&#45;&gt;Node5 -->
<g id="edge54" class="edge">
<title>Node85&#45;&gt;Node5</title>
<path fill="none" stroke="midnightblue" d="M1621.61,-176.5C1321.09,-173.96 39.84,-161.4 11.22,-132 -31.84,-87.76 66.19,-43.66 122.35,-23.05"/>
<polygon fill="midnightblue" stroke="midnightblue" points="123.75,-26.27 131.98,-19.6 121.38,-19.68 123.75,-26.27"/>
</g>
<!-- Node87&#45;&gt;Node6 -->
<g id="edge58" class="edge">
<title>Node87&#45;&gt;Node6</title>
<path fill="none" stroke="midnightblue" d="M1789.76,-170.85C1778.38,-169.73 1766.41,-168.7 1755.22,-168 1040.43,-123.53 858.33,-186.39 144.22,-132 143.11,-131.92 141.99,-131.82 140.86,-131.73"/>
<polygon fill="midnightblue" stroke="midnightblue" points="140.82,-128.21 130.53,-130.75 140.15,-135.18 140.82,-128.21"/>
</g>
<!-- Node88&#45;&gt;Node3 -->
<g id="edge60" class="edge">
<title>Node88&#45;&gt;Node3</title>
<path fill="none" stroke="midnightblue" d="M2140.09,-224.32C2156.93,-215.66 2183.03,-202.24 2202.46,-192.25"/>
<polygon fill="midnightblue" stroke="midnightblue" points="2204.1,-195.34 2211.4,-187.65 2200.9,-189.12 2204.1,-195.34"/>
</g>
<!-- Node90&#45;&gt;Node3 -->
<g id="edge62" class="edge">
<title>Node90&#45;&gt;Node3</title>
<path fill="none" stroke="midnightblue" d="M2228.22,-224.08C2228.22,-217.01 2228.22,-206.86 2228.22,-197.99"/>
<polygon fill="midnightblue" stroke="midnightblue" points="2231.72,-197.75 2228.22,-187.75 2224.72,-197.75 2231.72,-197.75"/>
</g>
<!-- Node91&#45;&gt;Node3 -->
<g id="edge64" class="edge">
<title>Node91&#45;&gt;Node3</title>
<path fill="none" stroke="midnightblue" d="M2343.52,-224.44C2320.87,-215.52 2285.15,-201.44 2259.47,-191.32"/>
<polygon fill="midnightblue" stroke="midnightblue" points="2260.42,-187.93 2249.83,-187.52 2257.85,-194.44 2260.42,-187.93"/>
</g>
<!-- Node91&#45;&gt;Node92 -->
<g id="edge65" class="edge">
<title>Node91&#45;&gt;Node92</title>
<path fill="none" stroke="midnightblue" d="M2371.33,-224.08C2376.51,-216.53 2384.07,-205.49 2390.42,-196.23"/>
<polygon fill="midnightblue" stroke="midnightblue" points="2393.46,-197.98 2396.23,-187.75 2387.69,-194.02 2393.46,-197.98"/>
</g>
</g>
</svg>
