<?xml version="1.0" encoding="UTF-8" standalone="no"?>
<!DOCTYPE svg PUBLIC "-//W3C//DTD SVG 1.1//EN"
 "http://www.w3.org/Graphics/SVG/1.1/DTD/svg11.dtd">
<!-- Generated by graphviz version 2.43.0 (0)
 -->
<!-- Title: include/wld/wld_common.h Pages: 1 -->
<svg width="4869pt" height="364pt"
 viewBox="0.00 0.00 4869.00 364.00" xmlns="http://www.w3.org/2000/svg" xmlns:xlink="http://www.w3.org/1999/xlink">
<g id="graph0" class="graph" transform="scale(1 1) rotate(0) translate(4 360)">
<title>include/wld/wld_common.h</title>
<polygon fill="white" stroke="transparent" points="-4,4 -4,-360 4865,-360 4865,4 -4,4"/>
<!-- Node1 -->
<g id="node1" class="node">
<title>Node1</title>
<g id="a_node1"><a xlink:title=" ">
<polygon fill="#bfbfbf" stroke="black" points="1941,-336.5 1941,-355.5 2090,-355.5 2090,-336.5 1941,-336.5"/>
<text text-anchor="middle" x="2015.5" y="-343.5" font-family="Helvetica,sans-Serif" font-size="10.00">include/wld/wld_common.h</text>
</a>
</g>
</g>
<!-- Node2 -->
<g id="node2" class="node">
<title>Node2</title>
<g id="a_node2"><a xlink:href="wld_8h.html" target="_top" xlink:title=" ">
<polygon fill="white" stroke="red" points="2000,-168.5 2000,-187.5 2043,-187.5 2043,-168.5 2000,-168.5"/>
<text text-anchor="middle" x="2021.5" y="-175.5" font-family="Helvetica,sans-Serif" font-size="10.00">wld.h</text>
</a>
</g>
</g>
<!-- Node1&#45;&gt;Node2 -->
<g id="edge1" class="edge">
<title>Node1&#45;&gt;Node2</title>
<path fill="none" stroke="midnightblue" d="M2021.14,-336.48C2026.55,-327.74 2034.36,-313.56 2037.5,-300 2045.83,-264.02 2035.4,-220.94 2027.89,-197.11"/>
<polygon fill="midnightblue" stroke="midnightblue" points="2031.21,-195.99 2024.73,-187.61 2024.57,-198.2 2031.21,-195.99"/>
</g>
<!-- Node33 -->
<g id="node33" class="node">
<title>Node33</title>
<g id="a_node33"><a xlink:href="wld__types_8h.html" target="_top" xlink:title=" ">
<polygon fill="white" stroke="red" points="1258,-56.5 1258,-75.5 1333,-75.5 1333,-56.5 1258,-56.5"/>
<text text-anchor="middle" x="1295.5" y="-63.5" font-family="Helvetica,sans-Serif" font-size="10.00">wld_types.h</text>
</a>
</g>
</g>
<!-- Node1&#45;&gt;Node33 -->
<g id="edge76" class="edge">
<title>Node1&#45;&gt;Node33</title>
<path fill="none" stroke="midnightblue" d="M1940.81,-344.77C1583.35,-343.18 64.5,-330.79 64.5,-235 64.5,-235 64.5,-235 64.5,-177 64.5,-146.9 59.76,-130.5 83.5,-112 130.16,-75.66 1028.62,-68.44 1247.65,-67.22"/>
<polygon fill="midnightblue" stroke="midnightblue" points="1247.88,-70.72 1257.86,-67.17 1247.84,-63.72 1247.88,-70.72"/>
</g>
<!-- Node75 -->
<g id="node43" class="node">
<title>Node75</title>
<g id="a_node43"><a xlink:href="wld__eventing_8h.html" target="_top" xlink:title=" ">
<polygon fill="white" stroke="black" points="4314,-168.5 4314,-187.5 4405,-187.5 4405,-168.5 4314,-168.5"/>
<text text-anchor="middle" x="4359.5" y="-175.5" font-family="Helvetica,sans-Serif" font-size="10.00">wld_eventing.h</text>
</a>
</g>
</g>
<!-- Node1&#45;&gt;Node75 -->
<g id="edge54" class="edge">
<title>Node1&#45;&gt;Node75</title>
<path fill="none" stroke="midnightblue" d="M2090.18,-339.71C2448.83,-314.31 3990.11,-205.16 4303.69,-182.95"/>
<polygon fill="midnightblue" stroke="midnightblue" points="4304.17,-186.43 4313.89,-182.23 4303.67,-179.44 4304.17,-186.43"/>
</g>
<!-- Node76 -->
<g id="node44" class="node">
<title>Node76</title>
<g id="a_node44"><a xlink:href="wld__radio_8h.html" target="_top" xlink:title=" ">
<polygon fill="white" stroke="red" points="2050,-224.5 2050,-243.5 2123,-243.5 2123,-224.5 2050,-224.5"/>
<text text-anchor="middle" x="2086.5" y="-231.5" font-family="Helvetica,sans-Serif" font-size="10.00">wld_radio.h</text>
</a>
</g>
</g>
<!-- Node1&#45;&gt;Node76 -->
<g id="edge62" class="edge">
<title>Node1&#45;&gt;Node76</title>
<path fill="none" stroke="midnightblue" d="M2030.65,-336.45C2043.21,-328.58 2060.55,-315.75 2070.5,-300 2079.32,-286.03 2083.28,-267.52 2085.06,-253.83"/>
<polygon fill="midnightblue" stroke="midnightblue" points="2088.56,-253.97 2086.09,-243.67 2081.6,-253.26 2088.56,-253.97"/>
</g>
<!-- Node83 -->
<g id="node45" class="node">
<title>Node83</title>
<g id="a_node45"><a xlink:href="wld__accesspoint_8h.html" target="_top" xlink:title=" ">
<polygon fill="white" stroke="red" points="1922.5,-280.5 1922.5,-299.5 2028.5,-299.5 2028.5,-280.5 1922.5,-280.5"/>
<text text-anchor="middle" x="1975.5" y="-287.5" font-family="Helvetica,sans-Serif" font-size="10.00">wld_accesspoint.h</text>
</a>
</g>
</g>
<!-- Node1&#45;&gt;Node83 -->
<g id="edge64" class="edge">
<title>Node1&#45;&gt;Node83</title>
<path fill="none" stroke="midnightblue" d="M2008.89,-336.08C2003.24,-328.46 1994.96,-317.26 1988.05,-307.94"/>
<polygon fill="midnightblue" stroke="midnightblue" points="1990.75,-305.7 1981.98,-299.75 1985.12,-309.87 1990.75,-305.7"/>
</g>
<!-- Node84 -->
<g id="node46" class="node">
<title>Node84</title>
<g id="a_node46"><a xlink:href="wld__wps_8h.html" target="_top" xlink:title=" ">
<polygon fill="white" stroke="black" points="1824.5,-224.5 1824.5,-243.5 1892.5,-243.5 1892.5,-224.5 1824.5,-224.5"/>
<text text-anchor="middle" x="1858.5" y="-231.5" font-family="Helvetica,sans-Serif" font-size="10.00">wld_wps.h</text>
</a>
</g>
</g>
<!-- Node1&#45;&gt;Node84 -->
<g id="edge79" class="edge">
<title>Node1&#45;&gt;Node84</title>
<path fill="none" stroke="midnightblue" d="M1940.81,-338.89C1887.23,-332.78 1821.61,-321.15 1804.5,-300 1790.11,-282.22 1813.28,-261.98 1833.6,-248.88"/>
<polygon fill="midnightblue" stroke="midnightblue" points="1835.59,-251.76 1842.3,-243.56 1831.94,-245.79 1835.59,-251.76"/>
</g>
<!-- Node85 -->
<g id="node47" class="node">
<title>Node85</title>
<g id="a_node47"><a xlink:href="wld__endpoint_8h.html" target="_top" xlink:title=" ">
<polygon fill="white" stroke="black" points="1813,-280.5 1813,-299.5 1904,-299.5 1904,-280.5 1813,-280.5"/>
<text text-anchor="middle" x="1858.5" y="-287.5" font-family="Helvetica,sans-Serif" font-size="10.00">wld_endpoint.h</text>
</a>
</g>
</g>
<!-- Node1&#45;&gt;Node85 -->
<g id="edge69" class="edge">
<title>Node1&#45;&gt;Node85</title>
<path fill="none" stroke="midnightblue" d="M1990.62,-336.44C1964.21,-327.36 1922.28,-312.94 1892.76,-302.78"/>
<polygon fill="midnightblue" stroke="midnightblue" points="1893.86,-299.46 1883.26,-299.52 1891.58,-306.08 1893.86,-299.46"/>
</g>
<!-- Node86 -->
<g id="node48" class="node">
<title>Node86</title>
<g id="a_node48"><a xlink:href="wld__assocdev_8h.html" target="_top" xlink:title=" ">
<polygon fill="white" stroke="red" points="2141,-224.5 2141,-243.5 2234,-243.5 2234,-224.5 2141,-224.5"/>
<text text-anchor="middle" x="2187.5" y="-231.5" font-family="Helvetica,sans-Serif" font-size="10.00">wld_assocdev.h</text>
</a>
</g>
</g>
<!-- Node1&#45;&gt;Node86 -->
<g id="edge72" class="edge">
<title>Node1&#45;&gt;Node86</title>
<path fill="none" stroke="midnightblue" d="M2029.57,-336.49C2044.32,-327.53 2068.15,-312.95 2088.5,-300 2115.58,-282.77 2146.44,-262.39 2166.41,-249.1"/>
<polygon fill="midnightblue" stroke="midnightblue" points="2168.38,-251.99 2174.76,-243.53 2164.5,-246.17 2168.38,-251.99"/>
</g>
<!-- Node89 -->
<g id="node49" class="node">
<title>Node89</title>
<g id="a_node49"><a xlink:href="wld__ssid_8h.html" target="_top" xlink:title=" ">
<polygon fill="white" stroke="black" points="2252.5,-224.5 2252.5,-243.5 2320.5,-243.5 2320.5,-224.5 2252.5,-224.5"/>
<text text-anchor="middle" x="2286.5" y="-231.5" font-family="Helvetica,sans-Serif" font-size="10.00">wld_ssid.h</text>
</a>
</g>
</g>
<!-- Node1&#45;&gt;Node89 -->
<g id="edge74" class="edge">
<title>Node1&#45;&gt;Node89</title>
<path fill="none" stroke="midnightblue" d="M2036.76,-336.37C2084.55,-316.97 2200.59,-269.87 2256.03,-247.37"/>
<polygon fill="midnightblue" stroke="midnightblue" points="2257.38,-250.6 2265.33,-243.59 2254.75,-244.11 2257.38,-250.6"/>
</g>
<!-- Node90 -->
<g id="node50" class="node">
<title>Node90</title>
<g id="a_node50"><a xlink:href="wld__util_8h.html" target="_top" xlink:title=" ">
<polygon fill="white" stroke="black" points="1692.5,-280.5 1692.5,-299.5 1756.5,-299.5 1756.5,-280.5 1692.5,-280.5"/>
<text text-anchor="middle" x="1724.5" y="-287.5" font-family="Helvetica,sans-Serif" font-size="10.00">wld_util.h</text>
</a>
</g>
</g>
<!-- Node1&#45;&gt;Node90 -->
<g id="edge77" class="edge">
<title>Node1&#45;&gt;Node90</title>
<path fill="none" stroke="midnightblue" d="M1968.04,-336.45C1918.67,-327.52 1839.12,-313.01 1770.5,-300 1769.24,-299.76 1767.96,-299.52 1766.67,-299.27"/>
<polygon fill="midnightblue" stroke="midnightblue" points="1767.14,-295.8 1756.66,-297.34 1765.82,-302.67 1767.14,-295.8"/>
</g>
<!-- Node3 -->
<g id="node3" class="node">
<title>Node3</title>
<g id="a_node3"><a xlink:title=" ">
<polygon fill="white" stroke="#bfbfbf" points="2203.5,-56.5 2203.5,-75.5 2265.5,-75.5 2265.5,-56.5 2203.5,-56.5"/>
<text text-anchor="middle" x="2234.5" y="-63.5" font-family="Helvetica,sans-Serif" font-size="10.00">stdbool.h</text>
</a>
</g>
</g>
<!-- Node2&#45;&gt;Node3 -->
<g id="edge2" class="edge">
<title>Node2&#45;&gt;Node3</title>
<path fill="none" stroke="midnightblue" d="M2043.3,-177.15C2149.39,-177.68 2608.3,-177.32 2650.5,-132 2702.67,-75.97 2390.97,-68.11 2275.92,-67.11"/>
<polygon fill="midnightblue" stroke="midnightblue" points="2275.76,-63.61 2265.73,-67.03 2275.71,-70.61 2275.76,-63.61"/>
</g>
<!-- Node4 -->
<g id="node4" class="node">
<title>Node4</title>
<g id="a_node4"><a xlink:title=" ">
<polygon fill="white" stroke="#bfbfbf" points="0,-0.5 0,-19.5 53,-19.5 53,-0.5 0,-0.5"/>
<text text-anchor="middle" x="26.5" y="-7.5" font-family="Helvetica,sans-Serif" font-size="10.00">stdint.h</text>
</a>
</g>
</g>
<!-- Node2&#45;&gt;Node4 -->
<g id="edge3" class="edge">
<title>Node2&#45;&gt;Node4</title>
<path fill="none" stroke="midnightblue" d="M1999.9,-176.81C1790.37,-174.98 125.79,-159.52 83.5,-132 48.09,-108.96 34.22,-57.55 29.16,-29.74"/>
<polygon fill="midnightblue" stroke="midnightblue" points="32.59,-29.03 27.54,-19.72 25.68,-30.15 32.59,-29.03"/>
</g>
<!-- Node5 -->
<g id="node5" class="node">
<title>Node5</title>
<g id="a_node5"><a xlink:title=" ">
<polygon fill="white" stroke="#bfbfbf" points="1479.5,-56.5 1479.5,-75.5 1589.5,-75.5 1589.5,-56.5 1479.5,-56.5"/>
<text text-anchor="middle" x="1534.5" y="-63.5" font-family="Helvetica,sans-Serif" font-size="10.00">swl/swl_common.h</text>
</a>
</g>
</g>
<!-- Node2&#45;&gt;Node5 -->
<g id="edge4" class="edge">
<title>Node2&#45;&gt;Node5</title>
<path fill="none" stroke="midnightblue" d="M1999.99,-176.83C1943.53,-175.84 1786.93,-169.63 1663.5,-132 1623.72,-119.87 1581.35,-96.19 1556.44,-81"/>
<polygon fill="midnightblue" stroke="midnightblue" points="1558.13,-77.93 1547.79,-75.64 1554.44,-83.88 1558.13,-77.93"/>
</g>
<!-- Node6 -->
<g id="node6" class="node">
<title>Node6</title>
<g id="a_node6"><a xlink:title=" ">
<polygon fill="white" stroke="#bfbfbf" points="1823.5,-112.5 1823.5,-131.5 1959.5,-131.5 1959.5,-112.5 1823.5,-112.5"/>
<text text-anchor="middle" x="1891.5" y="-119.5" font-family="Helvetica,sans-Serif" font-size="10.00">swla/swla_commonLib.h</text>
</a>
</g>
</g>
<!-- Node2&#45;&gt;Node6 -->
<g id="edge5" class="edge">
<title>Node2&#45;&gt;Node6</title>
<path fill="none" stroke="midnightblue" d="M2000.9,-168.44C1979.51,-159.56 1945.82,-145.56 1921.48,-135.45"/>
<polygon fill="midnightblue" stroke="midnightblue" points="1922.58,-132.12 1912,-131.52 1919.89,-138.58 1922.58,-132.12"/>
</g>
<!-- Node7 -->
<g id="node7" class="node">
<title>Node7</title>
<g id="a_node7"><a xlink:title=" ">
<polygon fill="white" stroke="#bfbfbf" points="1977.5,-112.5 1977.5,-131.5 2065.5,-131.5 2065.5,-112.5 1977.5,-112.5"/>
<text text-anchor="middle" x="2021.5" y="-119.5" font-family="Helvetica,sans-Serif" font-size="10.00">swl/swl_uuid.h</text>
</a>
</g>
</g>
<!-- Node2&#45;&gt;Node7 -->
<g id="edge6" class="edge">
<title>Node2&#45;&gt;Node7</title>
<path fill="none" stroke="midnightblue" d="M2021.5,-168.08C2021.5,-161.01 2021.5,-150.86 2021.5,-141.99"/>
<polygon fill="midnightblue" stroke="midnightblue" points="2025,-141.75 2021.5,-131.75 2018,-141.75 2025,-141.75"/>
</g>
<!-- Node8 -->
<g id="node8" class="node">
<title>Node8</title>
<g id="a_node8"><a xlink:title=" ">
<polygon fill="white" stroke="#bfbfbf" points="2083.5,-112.5 2083.5,-131.5 2235.5,-131.5 2235.5,-112.5 2083.5,-112.5"/>
<text text-anchor="middle" x="2159.5" y="-119.5" font-family="Helvetica,sans-Serif" font-size="10.00">swla/swla_radioStandards.h</text>
</a>
</g>
</g>
<!-- Node2&#45;&gt;Node8 -->
<g id="edge7" class="edge">
<title>Node2&#45;&gt;Node8</title>
<path fill="none" stroke="midnightblue" d="M2043.06,-168.56C2065.92,-159.62 2102.23,-145.41 2128.22,-135.24"/>
<polygon fill="midnightblue" stroke="midnightblue" points="2129.6,-138.46 2137.63,-131.56 2127.05,-131.94 2129.6,-138.46"/>
</g>
<!-- Node9 -->
<g id="node9" class="node">
<title>Node9</title>
<g id="a_node9"><a xlink:title=" ">
<polygon fill="white" stroke="#bfbfbf" points="1711,-0.5 1711,-19.5 1812,-19.5 1812,-0.5 1711,-0.5"/>
<text text-anchor="middle" x="1761.5" y="-7.5" font-family="Helvetica,sans-Serif" font-size="10.00">swla/swla_time.h</text>
</a>
</g>
</g>
<!-- Node2&#45;&gt;Node9 -->
<g id="edge8" class="edge">
<title>Node2&#45;&gt;Node9</title>
<path fill="none" stroke="midnightblue" d="M2043.14,-177.19C2150.55,-177.94 2623.1,-178.53 2666.5,-132 2672.56,-125.5 2672.32,-118.72 2666.5,-112 2611.1,-48.13 2016.34,-20.48 1822.32,-13.11"/>
<polygon fill="midnightblue" stroke="midnightblue" points="1822.42,-9.61 1812.3,-12.74 1822.16,-16.61 1822.42,-9.61"/>
</g>
<!-- Node10 -->
<g id="node10" class="node">
<title>Node10</title>
<g id="a_node10"><a xlink:title=" ">
<polygon fill="white" stroke="#bfbfbf" points="2254,-112.5 2254,-131.5 2383,-131.5 2383,-112.5 2254,-112.5"/>
<text text-anchor="middle" x="2318.5" y="-119.5" font-family="Helvetica,sans-Serif" font-size="10.00">swla/swla_time_spec.h</text>
</a>
</g>
</g>
<!-- Node2&#45;&gt;Node10 -->
<g id="edge9" class="edge">
<title>Node2&#45;&gt;Node10</title>
<path fill="none" stroke="midnightblue" d="M2043.34,-173.03C2088.89,-164.75 2195.31,-145.4 2261.65,-133.34"/>
<polygon fill="midnightblue" stroke="midnightblue" points="2262.32,-136.77 2271.54,-131.54 2261.07,-129.88 2262.32,-136.77"/>
</g>
<!-- Node11 -->
<g id="node11" class="node">
<title>Node11</title>
<g id="a_node11"><a xlink:title=" ">
<polygon fill="white" stroke="#bfbfbf" points="2401.5,-112.5 2401.5,-131.5 2495.5,-131.5 2495.5,-112.5 2401.5,-112.5"/>
<text text-anchor="middle" x="2448.5" y="-119.5" font-family="Helvetica,sans-Serif" font-size="10.00">swla/swla_oui.h</text>
</a>
</g>
</g>
<!-- Node2&#45;&gt;Node11 -->
<g id="edge10" class="edge">
<title>Node2&#45;&gt;Node11</title>
<path fill="none" stroke="midnightblue" d="M2043.28,-174.66C2099.23,-168.57 2252.73,-151.48 2391.5,-132.09"/>
<polygon fill="midnightblue" stroke="midnightblue" points="2392.05,-135.55 2401.47,-130.69 2391.08,-128.62 2392.05,-135.55"/>
</g>
<!-- Node12 -->
<g id="node12" class="node">
<title>Node12</title>
<g id="a_node12"><a xlink:title=" ">
<polygon fill="white" stroke="#bfbfbf" points="2513.5,-112.5 2513.5,-131.5 2641.5,-131.5 2641.5,-112.5 2513.5,-112.5"/>
<text text-anchor="middle" x="2577.5" y="-119.5" font-family="Helvetica,sans-Serif" font-size="10.00">swla/swla_delayExec.h</text>
</a>
</g>
</g>
<!-- Node2&#45;&gt;Node12 -->
<g id="edge11" class="edge">
<title>Node2&#45;&gt;Node12</title>
<path fill="none" stroke="midnightblue" d="M2043.19,-175.21C2110,-169.65 2318.84,-151.91 2503.26,-132.11"/>
<polygon fill="midnightblue" stroke="midnightblue" points="2503.85,-135.56 2513.42,-131.01 2503.1,-128.6 2503.85,-135.56"/>
</g>
<!-- Node13 -->
<g id="node13" class="node">
<title>Node13</title>
<g id="a_node13"><a xlink:title=" ">
<polygon fill="white" stroke="#bfbfbf" points="2736,-112.5 2736,-131.5 2855,-131.5 2855,-112.5 2736,-112.5"/>
<text text-anchor="middle" x="2795.5" y="-119.5" font-family="Helvetica,sans-Serif" font-size="10.00">swla/swla_function.h</text>
</a>
</g>
</g>
<!-- Node2&#45;&gt;Node13 -->
<g id="edge12" class="edge">
<title>Node2&#45;&gt;Node13</title>
<path fill="none" stroke="midnightblue" d="M2043.02,-176.06C2128.77,-172.24 2454.43,-156.8 2721.5,-132 2722.8,-131.88 2724.12,-131.75 2725.45,-131.62"/>
<polygon fill="midnightblue" stroke="midnightblue" points="2726.17,-135.07 2735.76,-130.56 2725.45,-128.1 2726.17,-135.07"/>
</g>
<!-- Node14 -->
<g id="node14" class="node">
<title>Node14</title>
<g id="a_node14"><a xlink:title=" ">
<polygon fill="white" stroke="#bfbfbf" points="2873,-112.5 2873,-131.5 3014,-131.5 3014,-112.5 2873,-112.5"/>
<text text-anchor="middle" x="2943.5" y="-119.5" font-family="Helvetica,sans-Serif" font-size="10.00">swl/swl_usp_cmdStatus.h</text>
</a>
</g>
</g>
<!-- Node2&#45;&gt;Node14 -->
<g id="edge13" class="edge">
<title>Node2&#45;&gt;Node14</title>
<path fill="none" stroke="midnightblue" d="M2043.03,-176.33C2138.09,-173.26 2529.92,-159.57 2862.57,-132.12"/>
<polygon fill="midnightblue" stroke="midnightblue" points="2863.21,-135.57 2872.89,-131.26 2862.63,-128.6 2863.21,-135.57"/>
</g>
<!-- Node15 -->
<g id="node15" class="node">
<title>Node15</title>
<g id="a_node15"><a xlink:title=" ">
<polygon fill="white" stroke="#bfbfbf" points="3032.5,-112.5 3032.5,-131.5 3118.5,-131.5 3118.5,-112.5 3032.5,-112.5"/>
<text text-anchor="middle" x="3075.5" y="-119.5" font-family="Helvetica,sans-Serif" font-size="10.00">swl/swl_wps.h</text>
</a>
</g>
</g>
<!-- Node2&#45;&gt;Node15 -->
<g id="edge14" class="edge">
<title>Node2&#45;&gt;Node15</title>
<path fill="none" stroke="midnightblue" d="M2043.08,-177.04C2148.93,-177.03 2623.85,-174.56 3022.44,-131.96"/>
<polygon fill="midnightblue" stroke="midnightblue" points="3022.86,-135.44 3032.43,-130.89 3022.11,-128.48 3022.86,-135.44"/>
</g>
<!-- Node16 -->
<g id="node16" class="node">
<title>Node16</title>
<g id="a_node16"><a xlink:title=" ">
<polygon fill="white" stroke="#bfbfbf" points="3136.5,-112.5 3136.5,-131.5 3240.5,-131.5 3240.5,-112.5 3136.5,-112.5"/>
<text text-anchor="middle" x="3188.5" y="-119.5" font-family="Helvetica,sans-Serif" font-size="10.00">swl/swl_security.h</text>
</a>
</g>
</g>
<!-- Node2&#45;&gt;Node16 -->
<g id="edge15" class="edge">
<title>Node2&#45;&gt;Node16</title>
<path fill="none" stroke="midnightblue" d="M2043.01,-176.97C2155.1,-176.64 2683.66,-172.95 3126.19,-132.02"/>
<polygon fill="midnightblue" stroke="midnightblue" points="3126.67,-135.49 3136.3,-131.07 3126.02,-128.52 3126.67,-135.49"/>
</g>
<!-- Node17 -->
<g id="node17" class="node">
<title>Node17</title>
<g id="a_node17"><a xlink:title=" ">
<polygon fill="white" stroke="#bfbfbf" points="4380,-112.5 4380,-131.5 4463,-131.5 4463,-112.5 4380,-112.5"/>
<text text-anchor="middle" x="4421.5" y="-119.5" font-family="Helvetica,sans-Serif" font-size="10.00">amxc/amxc.h</text>
</a>
</g>
</g>
<!-- Node2&#45;&gt;Node17 -->
<g id="edge16" class="edge">
<title>Node2&#45;&gt;Node17</title>
<path fill="none" stroke="midnightblue" d="M2043.14,-177.06C2248.86,-177.58 3862.69,-180.1 4369.52,-132.01"/>
<polygon fill="midnightblue" stroke="midnightblue" points="4370.21,-135.46 4379.83,-131.01 4369.54,-128.49 4370.21,-135.46"/>
</g>
<!-- Node18 -->
<g id="node18" class="node">
<title>Node18</title>
<g id="a_node18"><a xlink:title=" ">
<polygon fill="white" stroke="#bfbfbf" points="4481.5,-112.5 4481.5,-131.5 4565.5,-131.5 4565.5,-112.5 4481.5,-112.5"/>
<text text-anchor="middle" x="4523.5" y="-119.5" font-family="Helvetica,sans-Serif" font-size="10.00">amxp/amxp.h</text>
</a>
</g>
</g>
<!-- Node2&#45;&gt;Node18 -->
<g id="edge17" class="edge">
<title>Node2&#45;&gt;Node18</title>
<path fill="none" stroke="midnightblue" d="M2043.07,-177.07C2253.42,-177.7 3942.52,-181.17 4471.28,-131.93"/>
<polygon fill="midnightblue" stroke="midnightblue" points="4471.65,-135.41 4481.27,-130.98 4470.98,-128.44 4471.65,-135.41"/>
</g>
<!-- Node19 -->
<g id="node19" class="node">
<title>Node19</title>
<g id="a_node19"><a xlink:title=" ">
<polygon fill="white" stroke="#bfbfbf" points="4583.5,-112.5 4583.5,-131.5 4723.5,-131.5 4723.5,-112.5 4583.5,-112.5"/>
<text text-anchor="middle" x="4653.5" y="-119.5" font-family="Helvetica,sans-Serif" font-size="10.00">amxd/amxd_parameter.h</text>
</a>
</g>
</g>
<!-- Node2&#45;&gt;Node19 -->
<g id="edge18" class="edge">
<title>Node2&#45;&gt;Node19</title>
<path fill="none" stroke="midnightblue" d="M2043.27,-176.91C2259.27,-175.93 4021.43,-166.98 4573.29,-132"/>
<polygon fill="midnightblue" stroke="midnightblue" points="4573.57,-135.49 4583.32,-131.35 4573.12,-128.5 4573.57,-135.49"/>
</g>
<!-- Node20 -->
<g id="node20" class="node">
<title>Node20</title>
<g id="a_node20"><a xlink:title=" ">
<polygon fill="white" stroke="#bfbfbf" points="4742,-112.5 4742,-131.5 4861,-131.5 4861,-112.5 4742,-112.5"/>
<text text-anchor="middle" x="4801.5" y="-119.5" font-family="Helvetica,sans-Serif" font-size="10.00">amxd/amxd_action.h</text>
</a>
</g>
</g>
<!-- Node2&#45;&gt;Node20 -->
<g id="edge19" class="edge">
<title>Node2&#45;&gt;Node20</title>
<path fill="none" stroke="midnightblue" d="M2043.2,-176.98C2266.23,-176.73 4145.17,-173.45 4731.47,-131.96"/>
<polygon fill="midnightblue" stroke="midnightblue" points="4731.98,-135.43 4741.7,-131.22 4731.48,-128.45 4731.98,-135.43"/>
</g>
<!-- Node21 -->
<g id="node21" class="node">
<title>Node21</title>
<g id="a_node21"><a xlink:title=" ">
<polygon fill="white" stroke="#bfbfbf" points="3869,-112.5 3869,-131.5 4044,-131.5 4044,-112.5 3869,-112.5"/>
<text text-anchor="middle" x="3956.5" y="-119.5" font-family="Helvetica,sans-Serif" font-size="10.00">amxd/amxd_object_parameter.h</text>
</a>
</g>
</g>
<!-- Node2&#45;&gt;Node21 -->
<g id="edge20" class="edge">
<title>Node2&#45;&gt;Node21</title>
<path fill="none" stroke="midnightblue" d="M2043.37,-177.03C2194.99,-177.1 3105.59,-175.68 3858.51,-132.01"/>
<polygon fill="midnightblue" stroke="midnightblue" points="3858.97,-135.49 3868.75,-131.41 3858.56,-128.5 3858.97,-135.49"/>
</g>
<!-- Node22 -->
<g id="node22" class="node">
<title>Node22</title>
<g id="a_node22"><a xlink:title=" ">
<polygon fill="white" stroke="#bfbfbf" points="4062.5,-112.5 4062.5,-131.5 4214.5,-131.5 4214.5,-112.5 4062.5,-112.5"/>
<text text-anchor="middle" x="4138.5" y="-119.5" font-family="Helvetica,sans-Serif" font-size="10.00">amxd/amxd_object_event.h</text>
</a>
</g>
</g>
<!-- Node2&#45;&gt;Node22 -->
<g id="edge21" class="edge">
<title>Node2&#45;&gt;Node22</title>
<path fill="none" stroke="midnightblue" d="M2043.1,-176.77C2232.38,-174.73 3611.99,-159.07 4051.86,-132.04"/>
<polygon fill="midnightblue" stroke="midnightblue" points="4052.31,-135.52 4062.07,-131.4 4051.87,-128.53 4052.31,-135.52"/>
</g>
<!-- Node23 -->
<g id="node23" class="node">
<title>Node23</title>
<g id="a_node23"><a xlink:title=" ">
<polygon fill="white" stroke="#bfbfbf" points="4233,-112.5 4233,-131.5 4362,-131.5 4362,-112.5 4233,-112.5"/>
<text text-anchor="middle" x="4297.5" y="-119.5" font-family="Helvetica,sans-Serif" font-size="10.00">amxd/amxd_function.h</text>
</a>
</g>
</g>
<!-- Node2&#45;&gt;Node23 -->
<g id="edge22" class="edge">
<title>Node2&#45;&gt;Node23</title>
<path fill="none" stroke="midnightblue" d="M2043.31,-176.86C2242.29,-175.52 3746.19,-164.45 4222.92,-131.94"/>
<polygon fill="midnightblue" stroke="midnightblue" points="4223.23,-135.42 4232.96,-131.24 4222.74,-128.44 4223.23,-135.42"/>
</g>
<!-- Node24 -->
<g id="node24" class="node">
<title>Node24</title>
<g id="a_node24"><a xlink:title=" ">
<polygon fill="white" stroke="#bfbfbf" points="3259,-112.5 3259,-131.5 3428,-131.5 3428,-112.5 3259,-112.5"/>
<text text-anchor="middle" x="3343.5" y="-119.5" font-family="Helvetica,sans-Serif" font-size="10.00">amxd/amxd_object_hierarchy.h</text>
</a>
</g>
</g>
<!-- Node2&#45;&gt;Node24 -->
<g id="edge23" class="edge">
<title>Node2&#45;&gt;Node24</title>
<path fill="none" stroke="midnightblue" d="M2043.33,-176.68C2163.22,-174.82 2753.87,-164.38 3248.76,-132"/>
<polygon fill="midnightblue" stroke="midnightblue" points="3249.22,-135.48 3258.97,-131.33 3248.76,-128.49 3249.22,-135.48"/>
</g>
<!-- Node25 -->
<g id="node25" class="node">
<title>Node25</title>
<g id="a_node25"><a xlink:title=" ">
<polygon fill="white" stroke="#bfbfbf" points="3446,-112.5 3446,-131.5 3565,-131.5 3565,-112.5 3446,-112.5"/>
<text text-anchor="middle" x="3505.5" y="-119.5" font-family="Helvetica,sans-Serif" font-size="10.00">amxd/amxd_object.h</text>
</a>
</g>
</g>
<!-- Node2&#45;&gt;Node25 -->
<g id="edge24" class="edge">
<title>Node2&#45;&gt;Node25</title>
<path fill="none" stroke="midnightblue" d="M2043.17,-177.12C2173.19,-177.69 2863.08,-178.35 3435.72,-132.06"/>
<polygon fill="midnightblue" stroke="midnightblue" points="3436.15,-135.54 3445.83,-131.24 3435.58,-128.56 3436.15,-135.54"/>
</g>
<!-- Node26 -->
<g id="node26" class="node">
<title>Node26</title>
<g id="a_node26"><a xlink:title=" ">
<polygon fill="white" stroke="#bfbfbf" points="3583,-112.5 3583,-131.5 3688,-131.5 3688,-112.5 3583,-112.5"/>
<text text-anchor="middle" x="3635.5" y="-119.5" font-family="Helvetica,sans-Serif" font-size="10.00">amxd/amxd_dm.h</text>
</a>
</g>
</g>
<!-- Node2&#45;&gt;Node26 -->
<g id="edge25" class="edge">
<title>Node2&#45;&gt;Node26</title>
<path fill="none" stroke="midnightblue" d="M2043.17,-176.72C2205.68,-174.59 3236.33,-160.16 3572.74,-132.03"/>
<polygon fill="midnightblue" stroke="midnightblue" points="3573.31,-135.49 3582.97,-131.15 3572.71,-128.52 3573.31,-135.49"/>
</g>
<!-- Node27 -->
<g id="node27" class="node">
<title>Node27</title>
<g id="a_node27"><a xlink:title=" ">
<polygon fill="white" stroke="#bfbfbf" points="3706.5,-112.5 3706.5,-131.5 3850.5,-131.5 3850.5,-112.5 3706.5,-112.5"/>
<text text-anchor="middle" x="3778.5" y="-119.5" font-family="Helvetica,sans-Serif" font-size="10.00">amxd/amxd_transaction.h</text>
</a>
</g>
</g>
<!-- Node2&#45;&gt;Node27 -->
<g id="edge26" class="edge">
<title>Node2&#45;&gt;Node27</title>
<path fill="none" stroke="midnightblue" d="M2043.27,-177.1C2186.85,-177.65 3012.77,-178.58 3696.06,-132.04"/>
<polygon fill="midnightblue" stroke="midnightblue" points="3696.37,-135.52 3706.1,-131.35 3695.89,-128.54 3696.37,-135.52"/>
</g>
<!-- Node28 -->
<g id="node28" class="node">
<title>Node28</title>
<g id="a_node28"><a xlink:title=" ">
<polygon fill="white" stroke="#bfbfbf" points="92.5,-112.5 92.5,-131.5 208.5,-131.5 208.5,-112.5 92.5,-112.5"/>
<text text-anchor="middle" x="150.5" y="-119.5" font-family="Helvetica,sans-Serif" font-size="10.00">amxb/amxb_types.h</text>
</a>
</g>
</g>
<!-- Node2&#45;&gt;Node28 -->
<g id="edge27" class="edge">
<title>Node2&#45;&gt;Node28</title>
<path fill="none" stroke="midnightblue" d="M1999.85,-176.78C1822.76,-174.97 609.57,-161.65 218.76,-131.99"/>
<polygon fill="midnightblue" stroke="midnightblue" points="218.8,-128.48 208.56,-131.19 218.26,-135.46 218.8,-128.48"/>
</g>
<!-- Node29 -->
<g id="node29" class="node">
<title>Node29</title>
<g id="a_node29"><a xlink:title=" ">
<polygon fill="white" stroke="#bfbfbf" points="226.5,-112.5 226.5,-131.5 362.5,-131.5 362.5,-112.5 226.5,-112.5"/>
<text text-anchor="middle" x="294.5" y="-119.5" font-family="Helvetica,sans-Serif" font-size="10.00">amxb/amxb_operators.h</text>
</a>
</g>
</g>
<!-- Node2&#45;&gt;Node29 -->
<g id="edge28" class="edge">
<title>Node2&#45;&gt;Node29</title>
<path fill="none" stroke="midnightblue" d="M1999.6,-177.14C1856.98,-177.89 1045.15,-179.83 373.28,-132.06"/>
<polygon fill="midnightblue" stroke="midnightblue" points="373.13,-128.54 362.9,-131.32 372.63,-135.52 373.13,-128.54"/>
</g>
<!-- Node30 -->
<g id="node30" class="node">
<title>Node30</title>
<g id="a_node30"><a xlink:title=" ">
<polygon fill="white" stroke="#bfbfbf" points="380.5,-112.5 380.5,-131.5 492.5,-131.5 492.5,-112.5 380.5,-112.5"/>
<text text-anchor="middle" x="436.5" y="-119.5" font-family="Helvetica,sans-Serif" font-size="10.00">amxb/amxb_error.h</text>
</a>
</g>
</g>
<!-- Node2&#45;&gt;Node30 -->
<g id="edge29" class="edge">
<title>Node2&#45;&gt;Node30</title>
<path fill="none" stroke="midnightblue" d="M1999.58,-177.24C1863.41,-178.55 1119.25,-183.04 502.8,-132.01"/>
<polygon fill="midnightblue" stroke="midnightblue" points="503.08,-128.52 492.83,-131.18 502.5,-135.5 503.08,-128.52"/>
</g>
<!-- Node31 -->
<g id="node31" class="node">
<title>Node31</title>
<g id="a_node31"><a xlink:title=" ">
<polygon fill="white" stroke="#bfbfbf" points="511,-112.5 511,-131.5 594,-131.5 594,-112.5 511,-112.5"/>
<text text-anchor="middle" x="552.5" y="-119.5" font-family="Helvetica,sans-Serif" font-size="10.00">amxo/amxo.h</text>
</a>
</g>
</g>
<!-- Node2&#45;&gt;Node31 -->
<g id="edge30" class="edge">
<title>Node2&#45;&gt;Node31</title>
<path fill="none" stroke="midnightblue" d="M1999.99,-176.75C1846.23,-174.9 911.7,-162.59 604.4,-132.02"/>
<polygon fill="midnightblue" stroke="midnightblue" points="604.48,-128.51 594.18,-130.97 603.77,-135.47 604.48,-128.51"/>
</g>
<!-- Node32 -->
<g id="node32" class="node">
<title>Node32</title>
<g id="a_node32"><a xlink:title=" ">
<polygon fill="white" stroke="#bfbfbf" points="612,-112.5 612,-131.5 727,-131.5 727,-112.5 612,-112.5"/>
<text text-anchor="middle" x="669.5" y="-119.5" font-family="Helvetica,sans-Serif" font-size="10.00">amxo/amxo_types.h</text>
</a>
</g>
</g>
<!-- Node2&#45;&gt;Node32 -->
<g id="edge31" class="edge">
<title>Node2&#45;&gt;Node32</title>
<path fill="none" stroke="midnightblue" d="M1999.86,-177.04C1877.1,-177.1 1255.81,-175.19 737.51,-131.98"/>
<polygon fill="midnightblue" stroke="midnightblue" points="737.46,-128.47 727.2,-131.12 736.88,-135.44 737.46,-128.47"/>
</g>
<!-- Node2&#45;&gt;Node33 -->
<g id="edge32" class="edge">
<title>Node2&#45;&gt;Node33</title>
<path fill="none" stroke="midnightblue" d="M1999.63,-176.63C1872.45,-174.4 1232.63,-161.73 1204.5,-132 1183.61,-109.93 1222.3,-90.54 1255.51,-78.81"/>
<polygon fill="midnightblue" stroke="midnightblue" points="1256.77,-82.08 1265.12,-75.57 1254.53,-75.45 1256.77,-82.08"/>
</g>
<!-- Node36 -->
<g id="node34" class="node">
<title>Node36</title>
<g id="a_node34"><a xlink:href="wld__channel__types_8h.html" target="_top" xlink:title=" ">
<polygon fill="white" stroke="black" points="1686,-112.5 1686,-131.5 1805,-131.5 1805,-112.5 1686,-112.5"/>
<text text-anchor="middle" x="1745.5" y="-119.5" font-family="Helvetica,sans-Serif" font-size="10.00">wld_channel_types.h</text>
</a>
</g>
</g>
<!-- Node2&#45;&gt;Node36 -->
<g id="edge35" class="edge">
<title>Node2&#45;&gt;Node36</title>
<path fill="none" stroke="midnightblue" d="M1999.84,-172.76C1956.93,-164.37 1859.98,-145.4 1798.94,-133.46"/>
<polygon fill="midnightblue" stroke="midnightblue" points="1799.58,-130.01 1789.09,-131.53 1798.24,-136.88 1799.58,-130.01"/>
</g>
<!-- Node37 -->
<g id="node35" class="node">
<title>Node37</title>
<g id="a_node35"><a xlink:title=" ">
<polygon fill="white" stroke="#bfbfbf" points="1608,-56.5 1608,-75.5 1733,-75.5 1733,-56.5 1608,-56.5"/>
<text text-anchor="middle" x="1670.5" y="-63.5" font-family="Helvetica,sans-Serif" font-size="10.00">swla/swla_chanspec.h</text>
</a>
</g>
</g>
<!-- Node2&#45;&gt;Node37 -->
<g id="edge53" class="edge">
<title>Node2&#45;&gt;Node37</title>
<path fill="none" stroke="midnightblue" d="M1999.83,-177.53C1931.31,-178.72 1721.23,-178.44 1676.5,-132 1664.85,-119.9 1664.68,-100.02 1666.6,-85.43"/>
<polygon fill="midnightblue" stroke="midnightblue" points="1670.06,-85.97 1668.32,-75.52 1663.16,-84.77 1670.06,-85.97"/>
</g>
<!-- Node38 -->
<g id="node36" class="node">
<title>Node38</title>
<g id="a_node36"><a xlink:href="wld__bgdfs_8h.html" target="_top" xlink:title=" ">
<polygon fill="white" stroke="black" points="1214,-112.5 1214,-131.5 1289,-131.5 1289,-112.5 1214,-112.5"/>
<text text-anchor="middle" x="1251.5" y="-119.5" font-family="Helvetica,sans-Serif" font-size="10.00">wld_bgdfs.h</text>
</a>
</g>
</g>
<!-- Node2&#45;&gt;Node38 -->
<g id="edge39" class="edge">
<title>Node2&#45;&gt;Node38</title>
<path fill="none" stroke="midnightblue" d="M1999.78,-176.69C1912.81,-175.22 1581.14,-167.57 1299.1,-132.05"/>
<polygon fill="midnightblue" stroke="midnightblue" points="1299.45,-128.56 1289.09,-130.77 1298.57,-135.51 1299.45,-128.56"/>
</g>
<!-- Node39 -->
<g id="node37" class="node">
<title>Node39</title>
<g id="a_node37"><a xlink:href="wld__rad__delayMgr_8h.html" target="_top" xlink:title=" ">
<polygon fill="white" stroke="black" points="745.5,-112.5 745.5,-131.5 859.5,-131.5 859.5,-112.5 745.5,-112.5"/>
<text text-anchor="middle" x="802.5" y="-119.5" font-family="Helvetica,sans-Serif" font-size="10.00">wld_rad_delayMgr.h</text>
</a>
</g>
</g>
<!-- Node2&#45;&gt;Node39 -->
<g id="edge41" class="edge">
<title>Node2&#45;&gt;Node39</title>
<path fill="none" stroke="midnightblue" d="M1999.97,-176.94C1884.28,-176.48 1326.75,-172.22 864.47,-132.4"/>
<polygon fill="midnightblue" stroke="midnightblue" points="864.52,-128.89 854.25,-131.51 863.91,-135.86 864.52,-128.89"/>
</g>
<!-- Node40 -->
<g id="node38" class="node">
<title>Node40</title>
<g id="a_node38"><a xlink:href="wld__fsm_8h.html" target="_top" xlink:title=" ">
<polygon fill="white" stroke="black" points="1307,-112.5 1307,-131.5 1374,-131.5 1374,-112.5 1307,-112.5"/>
<text text-anchor="middle" x="1340.5" y="-119.5" font-family="Helvetica,sans-Serif" font-size="10.00">wld_fsm.h</text>
</a>
</g>
</g>
<!-- Node2&#45;&gt;Node40 -->
<g id="edge43" class="edge">
<title>Node2&#45;&gt;Node40</title>
<path fill="none" stroke="midnightblue" d="M1999.87,-176.58C1919.6,-174.79 1631.13,-166.31 1384.58,-132.12"/>
<polygon fill="midnightblue" stroke="midnightblue" points="1384.74,-128.61 1374.35,-130.68 1383.77,-135.54 1384.74,-128.61"/>
</g>
<!-- Node41 -->
<g id="node39" class="node">
<title>Node41</title>
<g id="a_node39"><a xlink:href="wld__sensing_8h.html" target="_top" xlink:title=" ">
<polygon fill="white" stroke="black" points="877.5,-112.5 877.5,-131.5 963.5,-131.5 963.5,-112.5 877.5,-112.5"/>
<text text-anchor="middle" x="920.5" y="-119.5" font-family="Helvetica,sans-Serif" font-size="10.00">wld_sensing.h</text>
</a>
</g>
</g>
<!-- Node2&#45;&gt;Node41 -->
<g id="edge45" class="edge">
<title>Node2&#45;&gt;Node41</title>
<path fill="none" stroke="midnightblue" d="M1999.89,-177.09C1890.22,-177.42 1386.3,-176.6 969.49,-132.6"/>
<polygon fill="midnightblue" stroke="midnightblue" points="969.67,-129.1 959.35,-131.52 968.93,-136.06 969.67,-129.1"/>
</g>
<!-- Node42 -->
<g id="node40" class="node">
<title>Node42</title>
<g id="a_node40"><a xlink:href="wld__mld_8h.html" target="_top" xlink:title=" ">
<polygon fill="white" stroke="black" points="1392,-112.5 1392,-131.5 1459,-131.5 1459,-112.5 1392,-112.5"/>
<text text-anchor="middle" x="1425.5" y="-119.5" font-family="Helvetica,sans-Serif" font-size="10.00">wld_mld.h</text>
</a>
</g>
</g>
<!-- Node2&#45;&gt;Node42 -->
<g id="edge47" class="edge">
<title>Node2&#45;&gt;Node42</title>
<path fill="none" stroke="midnightblue" d="M1999.78,-176.21C1926.53,-173.34 1681.75,-162.1 1469.32,-131.93"/>
<polygon fill="midnightblue" stroke="midnightblue" points="1469.63,-128.44 1459.23,-130.48 1468.63,-135.36 1469.63,-128.44"/>
</g>
<!-- Node43 -->
<g id="node41" class="node">
<title>Node43</title>
<g id="a_node41"><a xlink:href="wld__autoCommitRadData_8h.html" target="_top" xlink:title=" ">
<polygon fill="white" stroke="black" points="981.5,-112.5 981.5,-131.5 1157.5,-131.5 1157.5,-112.5 981.5,-112.5"/>
<text text-anchor="middle" x="1069.5" y="-119.5" font-family="Helvetica,sans-Serif" font-size="10.00">Utils/wld_autoCommitRadData.h</text>
</a>
</g>
</g>
<!-- Node2&#45;&gt;Node43 -->
<g id="edge49" class="edge">
<title>Node2&#45;&gt;Node43</title>
<path fill="none" stroke="midnightblue" d="M1999.81,-176.13C1903.03,-172.2 1500.96,-155.25 1171.5,-132 1170.23,-131.91 1168.95,-131.82 1167.66,-131.72"/>
<polygon fill="midnightblue" stroke="midnightblue" points="1167.9,-128.23 1157.67,-130.97 1167.38,-135.21 1167.9,-128.23"/>
</g>
<!-- Node44 -->
<g id="node42" class="node">
<title>Node44</title>
<g id="a_node42"><a xlink:href="wld__dmnMgt_8h.html" target="_top" xlink:title=" ">
<polygon fill="white" stroke="red" points="1477.5,-112.5 1477.5,-131.5 1591.5,-131.5 1591.5,-112.5 1477.5,-112.5"/>
<text text-anchor="middle" x="1534.5" y="-119.5" font-family="Helvetica,sans-Serif" font-size="10.00">Utils/wld_dmnMgt.h</text>
</a>
</g>
</g>
<!-- Node2&#45;&gt;Node44 -->
<g id="edge50" class="edge">
<title>Node2&#45;&gt;Node44</title>
<path fill="none" stroke="midnightblue" d="M1999.83,-174.8C1938.14,-168.5 1756.29,-149.71 1605.5,-132 1604.39,-131.87 1603.27,-131.74 1602.14,-131.6"/>
<polygon fill="midnightblue" stroke="midnightblue" points="1602.19,-128.08 1591.84,-130.36 1601.35,-135.03 1602.19,-128.08"/>
</g>
<!-- Node33&#45;&gt;Node4 -->
<g id="edge33" class="edge">
<title>Node33&#45;&gt;Node4</title>
<path fill="none" stroke="midnightblue" d="M1257.87,-63.4C1071.34,-55.46 247.64,-20.41 63.22,-12.56"/>
<polygon fill="midnightblue" stroke="midnightblue" points="63.35,-9.07 53.21,-12.14 63.05,-16.06 63.35,-9.07"/>
</g>
<!-- Node33&#45;&gt;Node9 -->
<g id="edge34" class="edge">
<title>Node33&#45;&gt;Node9</title>
<path fill="none" stroke="midnightblue" d="M1333.24,-60.63C1413.81,-51.29 1603.23,-29.34 1700.9,-18.02"/>
<polygon fill="midnightblue" stroke="midnightblue" points="1701.39,-21.49 1710.92,-16.86 1700.58,-14.54 1701.39,-21.49"/>
</g>
<!-- Node36&#45;&gt;Node3 -->
<g id="edge36" class="edge">
<title>Node36&#45;&gt;Node3</title>
<path fill="none" stroke="midnightblue" d="M1805.33,-113.11C1808.43,-112.73 1811.5,-112.36 1814.5,-112 1953.25,-95.52 2118.13,-78.64 2193.37,-71.09"/>
<polygon fill="midnightblue" stroke="midnightblue" points="2193.78,-74.57 2203.39,-70.09 2193.09,-67.6 2193.78,-74.57"/>
</g>
<!-- Node36&#45;&gt;Node9 -->
<g id="edge38" class="edge">
<title>Node36&#45;&gt;Node9</title>
<path fill="none" stroke="midnightblue" d="M1746.76,-112.37C1749.34,-94.62 1755.29,-53.67 1758.79,-29.6"/>
<polygon fill="midnightblue" stroke="midnightblue" points="1762.27,-29.99 1760.25,-19.59 1755.35,-28.98 1762.27,-29.99"/>
</g>
<!-- Node36&#45;&gt;Node37 -->
<g id="edge37" class="edge">
<title>Node36&#45;&gt;Node37</title>
<path fill="none" stroke="midnightblue" d="M1733.45,-112.32C1722.04,-104.11 1704.67,-91.6 1691.07,-81.81"/>
<polygon fill="midnightblue" stroke="midnightblue" points="1692.93,-78.84 1682.77,-75.83 1688.84,-84.52 1692.93,-78.84"/>
</g>
<!-- Node38&#45;&gt;Node33 -->
<g id="edge40" class="edge">
<title>Node38&#45;&gt;Node33</title>
<path fill="none" stroke="midnightblue" d="M1258.77,-112.08C1265.04,-104.38 1274.29,-93.03 1281.93,-83.65"/>
<polygon fill="midnightblue" stroke="midnightblue" points="1284.77,-85.71 1288.37,-75.75 1279.34,-81.29 1284.77,-85.71"/>
</g>
<!-- Node39&#45;&gt;Node2 -->
<g id="edge42" class="edge">
<title>Node39&#45;&gt;Node2</title>
<path fill="none" stroke="midnightblue" d="M859.67,-130.13C865.71,-130.85 871.74,-131.5 877.5,-132 1317.59,-170.5 1855.07,-176.06 1989.82,-176.87"/>
<polygon fill="midnightblue" stroke="midnightblue" points="1989.85,-180.37 1999.87,-176.92 1989.89,-173.37 1989.85,-180.37"/>
</g>
<!-- Node40&#45;&gt;Node33 -->
<g id="edge44" class="edge">
<title>Node40&#45;&gt;Node33</title>
<path fill="none" stroke="midnightblue" d="M1333.07,-112.08C1326.65,-104.38 1317.19,-93.03 1309.38,-83.65"/>
<polygon fill="midnightblue" stroke="midnightblue" points="1311.88,-81.19 1302.79,-75.75 1306.51,-85.67 1311.88,-81.19"/>
</g>
<!-- Node41&#45;&gt;Node2 -->
<g id="edge46" class="edge">
<title>Node41&#45;&gt;Node2</title>
<path fill="none" stroke="midnightblue" d="M963.68,-129.58C969.7,-130.52 975.76,-131.38 981.5,-132 1377.74,-174.61 1862.27,-177.26 1989.69,-177.13"/>
<polygon fill="midnightblue" stroke="midnightblue" points="1989.91,-180.63 1999.91,-177.11 1989.9,-173.63 1989.91,-180.63"/>
</g>
<!-- Node42&#45;&gt;Node33 -->
<g id="edge48" class="edge">
<title>Node42&#45;&gt;Node33</title>
<path fill="none" stroke="midnightblue" d="M1404.9,-112.44C1383.51,-103.56 1349.82,-89.56 1325.48,-79.45"/>
<polygon fill="midnightblue" stroke="midnightblue" points="1326.58,-76.12 1316,-75.52 1323.89,-82.58 1326.58,-76.12"/>
</g>
<!-- Node44&#45;&gt;Node5 -->
<g id="edge51" class="edge">
<title>Node44&#45;&gt;Node5</title>
<path fill="none" stroke="midnightblue" d="M1534.5,-112.08C1534.5,-105.01 1534.5,-94.86 1534.5,-85.99"/>
<polygon fill="midnightblue" stroke="midnightblue" points="1538,-85.75 1534.5,-75.75 1531,-85.75 1538,-85.75"/>
</g>
<!-- Node44&#45;&gt;Node33 -->
<g id="edge52" class="edge">
<title>Node44&#45;&gt;Node33</title>
<path fill="none" stroke="midnightblue" d="M1496.63,-112.44C1455.02,-103.04 1388.13,-87.93 1343.03,-77.74"/>
<polygon fill="midnightblue" stroke="midnightblue" points="1343.72,-74.31 1333.19,-75.52 1342.18,-81.13 1343.72,-74.31"/>
</g>
<!-- Node75&#45;&gt;Node17 -->
<g id="edge55" class="edge">
<title>Node75&#45;&gt;Node17</title>
<path fill="none" stroke="midnightblue" d="M4369.46,-168.32C4378.63,-160.34 4392.44,-148.31 4403.53,-138.65"/>
<polygon fill="midnightblue" stroke="midnightblue" points="4406.12,-141.04 4411.36,-131.83 4401.52,-135.76 4406.12,-141.04"/>
</g>
<!-- Node75&#45;&gt;Node18 -->
<g id="edge56" class="edge">
<title>Node75&#45;&gt;Node18</title>
<path fill="none" stroke="midnightblue" d="M4385.49,-168.44C4413.2,-159.32 4457.25,-144.81 4488.12,-134.65"/>
<polygon fill="midnightblue" stroke="midnightblue" points="4489.23,-137.97 4497.64,-131.52 4487.04,-131.32 4489.23,-137.97"/>
</g>
<!-- Node75&#45;&gt;Node19 -->
<g id="edge57" class="edge">
<title>Node75&#45;&gt;Node19</title>
<path fill="none" stroke="midnightblue" d="M4405.11,-168.62C4456.74,-159.14 4540.89,-143.68 4596.72,-133.43"/>
<polygon fill="midnightblue" stroke="midnightblue" points="4597.6,-136.83 4606.81,-131.58 4596.34,-129.94 4597.6,-136.83"/>
</g>
<!-- Node75&#45;&gt;Node20 -->
<g id="edge58" class="edge">
<title>Node75&#45;&gt;Node20</title>
<path fill="none" stroke="midnightblue" d="M4405.17,-171.63C4473.64,-163.56 4607.27,-147.67 4731.59,-132.1"/>
<polygon fill="midnightblue" stroke="midnightblue" points="4732.18,-135.56 4741.67,-130.84 4731.31,-128.61 4732.18,-135.56"/>
</g>
<!-- Node75&#45;&gt;Node21 -->
<g id="edge59" class="edge">
<title>Node75&#45;&gt;Node21</title>
<path fill="none" stroke="midnightblue" d="M4313.66,-170.86C4244.55,-161.6 4112.96,-143.96 4030.24,-132.88"/>
<polygon fill="midnightblue" stroke="midnightblue" points="4030.53,-129.39 4020.16,-131.53 4029.6,-136.33 4030.53,-129.39"/>
</g>
<!-- Node75&#45;&gt;Node22 -->
<g id="edge60" class="edge">
<title>Node75&#45;&gt;Node22</title>
<path fill="none" stroke="midnightblue" d="M4324.48,-168.44C4286.25,-159.1 4224.93,-144.12 4183.24,-133.93"/>
<polygon fill="midnightblue" stroke="midnightblue" points="4183.9,-130.49 4173.35,-131.52 4182.24,-137.29 4183.9,-130.49"/>
</g>
<!-- Node75&#45;&gt;Node23 -->
<g id="edge61" class="edge">
<title>Node75&#45;&gt;Node23</title>
<path fill="none" stroke="midnightblue" d="M4349.54,-168.32C4340.37,-160.34 4326.56,-148.31 4315.47,-138.65"/>
<polygon fill="midnightblue" stroke="midnightblue" points="4317.48,-135.76 4307.64,-131.83 4312.88,-141.04 4317.48,-135.76"/>
</g>
<!-- Node76&#45;&gt;Node2 -->
<g id="edge63" class="edge">
<title>Node76&#45;&gt;Node2</title>
<path fill="none" stroke="midnightblue" d="M2076.06,-224.32C2066.35,-216.26 2051.68,-204.08 2040,-194.37"/>
<polygon fill="midnightblue" stroke="midnightblue" points="2042.06,-191.53 2032.13,-187.83 2037.59,-196.92 2042.06,-191.53"/>
</g>
<!-- Node83&#45;&gt;Node2 -->
<g id="edge65" class="edge">
<title>Node83&#45;&gt;Node2</title>
<path fill="none" stroke="midnightblue" d="M1979.11,-280.37C1986.6,-262.46 2003.97,-220.92 2013.99,-196.95"/>
<polygon fill="midnightblue" stroke="midnightblue" points="2017.28,-198.17 2017.91,-187.59 2010.82,-195.47 2017.28,-198.17"/>
</g>
<!-- Node83&#45;&gt;Node84 -->
<g id="edge66" class="edge">
<title>Node83&#45;&gt;Node84</title>
<path fill="none" stroke="midnightblue" d="M1956.96,-280.44C1937.88,-271.64 1907.93,-257.81 1886.06,-247.72"/>
<polygon fill="midnightblue" stroke="midnightblue" points="1887.5,-244.53 1876.95,-243.52 1884.57,-250.88 1887.5,-244.53"/>
</g>
<!-- Node84&#45;&gt;Node2 -->
<g id="edge68" class="edge">
<title>Node84&#45;&gt;Node2</title>
<path fill="none" stroke="midnightblue" d="M1884.33,-224.44C1913.04,-214.93 1959.41,-199.57 1990.17,-189.38"/>
<polygon fill="midnightblue" stroke="midnightblue" points="1991.57,-192.6 1999.96,-186.14 1989.36,-185.96 1991.57,-192.6"/>
</g>
<!-- Node84&#45;&gt;Node4 -->
<g id="edge67" class="edge">
<title>Node84&#45;&gt;Node4</title>
<path fill="none" stroke="midnightblue" d="M1824.3,-233.14C1588.74,-233.85 211.68,-233.63 59.5,-132 26.4,-109.89 23.74,-57.66 24.93,-29.59"/>
<polygon fill="midnightblue" stroke="midnightblue" points="28.43,-29.72 25.57,-19.51 21.45,-29.27 28.43,-29.72"/>
</g>
<!-- Node85&#45;&gt;Node2 -->
<g id="edge70" class="edge">
<title>Node85&#45;&gt;Node2</title>
<path fill="none" stroke="midnightblue" d="M1871.29,-280.37C1899.26,-261.49 1966.1,-216.38 2000.4,-193.24"/>
<polygon fill="midnightblue" stroke="midnightblue" points="2002.44,-196.09 2008.77,-187.59 1998.52,-190.28 2002.44,-196.09"/>
</g>
<!-- Node85&#45;&gt;Node84 -->
<g id="edge71" class="edge">
<title>Node85&#45;&gt;Node84</title>
<path fill="none" stroke="midnightblue" d="M1858.5,-280.08C1858.5,-273.01 1858.5,-262.86 1858.5,-253.99"/>
<polygon fill="midnightblue" stroke="midnightblue" points="1862,-253.75 1858.5,-243.75 1855,-253.75 1862,-253.75"/>
</g>
<!-- Node86&#45;&gt;Node2 -->
<g id="edge73" class="edge">
<title>Node86&#45;&gt;Node2</title>
<path fill="none" stroke="midnightblue" d="M2161.2,-224.44C2131.75,-214.86 2084.05,-199.35 2052.73,-189.16"/>
<polygon fill="midnightblue" stroke="midnightblue" points="2053.78,-185.82 2043.18,-186.05 2051.61,-192.48 2053.78,-185.82"/>
</g>
<!-- Node89&#45;&gt;Node2 -->
<g id="edge75" class="edge">
<title>Node89&#45;&gt;Node2</title>
<path fill="none" stroke="midnightblue" d="M2252.24,-225.81C2249.28,-225.19 2246.34,-224.58 2243.5,-224 2175.71,-210.04 2096.21,-194 2053.14,-185.35"/>
<polygon fill="midnightblue" stroke="midnightblue" points="2053.75,-181.9 2043.25,-183.36 2052.37,-188.76 2053.75,-181.9"/>
</g>
<!-- Node90&#45;&gt;Node2 -->
<g id="edge78" class="edge">
<title>Node90&#45;&gt;Node2</title>
<path fill="none" stroke="midnightblue" d="M1733.79,-280.36C1749.41,-266.32 1782.49,-238.65 1815.5,-224 1873.83,-198.11 1948.24,-186.62 1989.79,-181.91"/>
<polygon fill="midnightblue" stroke="midnightblue" points="1990.29,-185.38 1999.86,-180.84 1989.54,-178.42 1990.29,-185.38"/>
</g>
</g>
</svg>
