<?xml version="1.0" encoding="UTF-8" standalone="no"?>
<!DOCTYPE svg PUBLIC "-//W3C//DTD SVG 1.1//EN"
 "http://www.w3.org/Graphics/SVG/1.1/DTD/svg11.dtd">
<!-- Generated by graphviz version 2.43.0 (0)
 -->
<!-- Title: src/EpMgt/wld_epProfile.c Pages: 1 -->
<svg width="4658pt" height="364pt"
 viewBox="0.00 0.00 4657.50 364.00" xmlns="http://www.w3.org/2000/svg" xmlns:xlink="http://www.w3.org/1999/xlink">
<g id="graph0" class="graph" transform="scale(1 1) rotate(0) translate(4 360)">
<title>src/EpMgt/wld_epProfile.c</title>
<polygon fill="white" stroke="transparent" points="-4,4 -4,-360 4653.5,-360 4653.5,4 -4,4"/>
<!-- Node1 -->
<g id="node1" class="node">
<title>Node1</title>
<g id="a_node1"><a xlink:title=" ">
<polygon fill="#bfbfbf" stroke="black" points="2442,-336.5 2442,-355.5 2583,-355.5 2583,-336.5 2442,-336.5"/>
<text text-anchor="middle" x="2512.5" y="-343.5" font-family="Helvetica,sans-Serif" font-size="10.00">src/EpMgt/wld_epProfile.c</text>
</a>
</g>
</g>
<!-- Node2 -->
<g id="node2" class="node">
<title>Node2</title>
<g id="a_node2"><a xlink:title=" ">
<polygon fill="white" stroke="#bfbfbf" points="2037,-280.5 2037,-299.5 2090,-299.5 2090,-280.5 2037,-280.5"/>
<text text-anchor="middle" x="2063.5" y="-287.5" font-family="Helvetica,sans-Serif" font-size="10.00">string.h</text>
</a>
</g>
</g>
<!-- Node1&#45;&gt;Node2 -->
<g id="edge1" class="edge">
<title>Node1&#45;&gt;Node2</title>
<path fill="none" stroke="midnightblue" d="M2441.8,-339.5C2360.19,-332.62 2222.11,-319.34 2104.5,-300 2103.21,-299.79 2101.89,-299.56 2100.56,-299.32"/>
<polygon fill="midnightblue" stroke="midnightblue" points="2100.81,-295.8 2090.33,-297.32 2099.47,-302.67 2100.81,-295.8"/>
</g>
<!-- Node3 -->
<g id="node3" class="node">
<title>Node3</title>
<g id="a_node3"><a xlink:title=" ">
<polygon fill="white" stroke="#bfbfbf" points="2809.5,-224.5 2809.5,-243.5 2909.5,-243.5 2909.5,-224.5 2809.5,-224.5"/>
<text text-anchor="middle" x="2859.5" y="-231.5" font-family="Helvetica,sans-Serif" font-size="10.00">swla/swla_mac.h</text>
</a>
</g>
</g>
<!-- Node1&#45;&gt;Node3 -->
<g id="edge2" class="edge">
<title>Node1&#45;&gt;Node3</title>
<path fill="none" stroke="midnightblue" d="M2583.05,-342.56C2638.09,-338.43 2715.38,-327.69 2777.5,-300 2803.78,-288.29 2828.93,-266.19 2844.29,-251.03"/>
<polygon fill="midnightblue" stroke="midnightblue" points="2846.86,-253.42 2851.38,-243.84 2841.87,-248.5 2846.86,-253.42"/>
</g>
<!-- Node4 -->
<g id="node4" class="node">
<title>Node4</title>
<g id="a_node4"><a xlink:href="wld_8h.html" target="_top" xlink:title=" ">
<polygon fill="white" stroke="red" points="2360,-168.5 2360,-187.5 2403,-187.5 2403,-168.5 2360,-168.5"/>
<text text-anchor="middle" x="2381.5" y="-175.5" font-family="Helvetica,sans-Serif" font-size="10.00">wld.h</text>
</a>
</g>
</g>
<!-- Node1&#45;&gt;Node4 -->
<g id="edge3" class="edge">
<title>Node1&#45;&gt;Node4</title>
<path fill="none" stroke="midnightblue" d="M2441.69,-336.75C2419.09,-330.4 2396.36,-319.3 2382.5,-300 2360.72,-269.68 2368.7,-223.15 2375.61,-197.52"/>
<polygon fill="midnightblue" stroke="midnightblue" points="2379.05,-198.22 2378.51,-187.64 2372.34,-196.25 2379.05,-198.22"/>
</g>
<!-- Node50 -->
<g id="node39" class="node">
<title>Node50</title>
<g id="a_node39"><a xlink:title=" ">
<polygon fill="white" stroke="#bfbfbf" points="0,-112.5 0,-131.5 97,-131.5 97,-112.5 0,-112.5"/>
<text text-anchor="middle" x="48.5" y="-119.5" font-family="Helvetica,sans-Serif" font-size="10.00">swl/swl_assert.h</text>
</a>
</g>
</g>
<!-- Node1&#45;&gt;Node50 -->
<g id="edge64" class="edge">
<title>Node1&#45;&gt;Node50</title>
<path fill="none" stroke="midnightblue" d="M2456.22,-336.49C2397.4,-327.56 2302.44,-313.03 2220.5,-300 2166.24,-291.37 2153.06,-286.49 2098.5,-280 1219.83,-175.56 989.55,-233.8 107.36,-132.14"/>
<polygon fill="midnightblue" stroke="midnightblue" points="107.62,-128.64 97.28,-130.97 106.81,-135.6 107.62,-128.64"/>
</g>
<!-- Node73 -->
<g id="node40" class="node">
<title>Node73</title>
<g id="a_node40"><a xlink:href="wld__wpaSupp__cfgManager_8h.html" target="_top" xlink:title=" ">
<polygon fill="white" stroke="black" points="115,-112.5 115,-131.5 270,-131.5 270,-112.5 115,-112.5"/>
<text text-anchor="middle" x="192.5" y="-119.5" font-family="Helvetica,sans-Serif" font-size="10.00">wld_wpaSupp_cfgManager.h</text>
</a>
</g>
</g>
<!-- Node1&#45;&gt;Node73 -->
<g id="edge76" class="edge">
<title>Node1&#45;&gt;Node73</title>
<path fill="none" stroke="midnightblue" d="M2441.96,-337.04C2394.97,-330.38 2332.38,-318.84 2279.5,-300 2230.05,-282.38 2213.01,-280.73 2175.5,-244 2147.77,-216.85 2165.83,-187.88 2132.5,-168 2046.05,-116.45 456.81,-137.35 280.35,-131.87"/>
<polygon fill="midnightblue" stroke="midnightblue" points="280.43,-128.37 270.29,-131.44 280.13,-135.36 280.43,-128.37"/>
</g>
<!-- Node76 -->
<g id="node41" class="node">
<title>Node76</title>
<g id="a_node41"><a xlink:href="wld__radio_8h.html" target="_top" xlink:title=" ">
<polygon fill="white" stroke="red" points="2538,-224.5 2538,-243.5 2611,-243.5 2611,-224.5 2538,-224.5"/>
<text text-anchor="middle" x="2574.5" y="-231.5" font-family="Helvetica,sans-Serif" font-size="10.00">wld_radio.h</text>
</a>
</g>
</g>
<!-- Node1&#45;&gt;Node76 -->
<g id="edge46" class="edge">
<title>Node1&#45;&gt;Node76</title>
<path fill="none" stroke="midnightblue" d="M2517.37,-336.37C2527.55,-318.3 2551.29,-276.18 2564.74,-252.31"/>
<polygon fill="midnightblue" stroke="midnightblue" points="2567.8,-254.02 2569.66,-243.59 2561.7,-250.58 2567.8,-254.02"/>
</g>
<!-- Node83 -->
<g id="node42" class="node">
<title>Node83</title>
<g id="a_node42"><a xlink:href="wld__endpoint_8h.html" target="_top" xlink:title=" ">
<polygon fill="white" stroke="black" points="2582,-280.5 2582,-299.5 2673,-299.5 2673,-280.5 2582,-280.5"/>
<text text-anchor="middle" x="2627.5" y="-287.5" font-family="Helvetica,sans-Serif" font-size="10.00">wld_endpoint.h</text>
</a>
</g>
</g>
<!-- Node1&#45;&gt;Node83 -->
<g id="edge48" class="edge">
<title>Node1&#45;&gt;Node83</title>
<path fill="none" stroke="midnightblue" d="M2530.72,-336.44C2549.4,-327.68 2578.66,-313.94 2600.12,-303.86"/>
<polygon fill="midnightblue" stroke="midnightblue" points="2601.8,-306.93 2609.36,-299.52 2598.82,-300.6 2601.8,-306.93"/>
</g>
<!-- Node84 -->
<g id="node43" class="node">
<title>Node84</title>
<g id="a_node43"><a xlink:href="wld__wps_8h.html" target="_top" xlink:title=" ">
<polygon fill="white" stroke="black" points="2667.5,-224.5 2667.5,-243.5 2735.5,-243.5 2735.5,-224.5 2667.5,-224.5"/>
<text text-anchor="middle" x="2701.5" y="-231.5" font-family="Helvetica,sans-Serif" font-size="10.00">wld_wps.h</text>
</a>
</g>
</g>
<!-- Node1&#45;&gt;Node84 -->
<g id="edge61" class="edge">
<title>Node1&#45;&gt;Node84</title>
<path fill="none" stroke="midnightblue" d="M2583.25,-342.04C2617.27,-337.06 2656.26,-325.57 2682.5,-300 2694.72,-288.09 2699.19,-268.78 2700.77,-254.3"/>
<polygon fill="midnightblue" stroke="midnightblue" points="2704.29,-254.17 2701.51,-243.95 2697.31,-253.67 2704.29,-254.17"/>
</g>
<!-- Node85 -->
<g id="node44" class="node">
<title>Node85</title>
<g id="a_node44"><a xlink:href="wld__epProfile_8h.html" target="_top" xlink:title=" ">
<polygon fill="white" stroke="black" points="2429,-224.5 2429,-243.5 2520,-243.5 2520,-224.5 2429,-224.5"/>
<text text-anchor="middle" x="2474.5" y="-231.5" font-family="Helvetica,sans-Serif" font-size="10.00">wld_epProfile.h</text>
</a>
</g>
</g>
<!-- Node1&#45;&gt;Node85 -->
<g id="edge53" class="edge">
<title>Node1&#45;&gt;Node85</title>
<path fill="none" stroke="midnightblue" d="M2510.35,-336.49C2507.11,-323.97 2500.6,-299.94 2493.5,-280 2490.26,-270.9 2486.14,-260.99 2482.57,-252.79"/>
<polygon fill="midnightblue" stroke="midnightblue" points="2485.7,-251.22 2478.44,-243.51 2479.31,-254.07 2485.7,-251.22"/>
</g>
<!-- Node86 -->
<g id="node45" class="node">
<title>Node86</title>
<g id="a_node45"><a xlink:href="wld__tinyRoam_8h.html" target="_top" xlink:title=" ">
<polygon fill="white" stroke="black" points="2830,-280.5 2830,-299.5 2925,-299.5 2925,-280.5 2830,-280.5"/>
<text text-anchor="middle" x="2877.5" y="-287.5" font-family="Helvetica,sans-Serif" font-size="10.00">wld_tinyRoam.h</text>
</a>
</g>
</g>
<!-- Node1&#45;&gt;Node86 -->
<g id="edge55" class="edge">
<title>Node1&#45;&gt;Node86</title>
<path fill="none" stroke="midnightblue" d="M2570.34,-336.44C2638.59,-326.35 2751.42,-309.65 2819.68,-299.55"/>
<polygon fill="midnightblue" stroke="midnightblue" points="2820.44,-302.98 2829.82,-298.05 2819.42,-296.06 2820.44,-302.98"/>
</g>
<!-- Node87 -->
<g id="node46" class="node">
<title>Node87</title>
<g id="a_node46"><a xlink:href="wld__ssid_8h.html" target="_top" xlink:title=" ">
<polygon fill="white" stroke="black" points="2184.5,-224.5 2184.5,-243.5 2252.5,-243.5 2252.5,-224.5 2184.5,-224.5"/>
<text text-anchor="middle" x="2218.5" y="-231.5" font-family="Helvetica,sans-Serif" font-size="10.00">wld_ssid.h</text>
</a>
</g>
</g>
<!-- Node1&#45;&gt;Node87 -->
<g id="edge59" class="edge">
<title>Node1&#45;&gt;Node87</title>
<path fill="none" stroke="midnightblue" d="M2456.03,-336.45C2417.67,-329.47 2366.32,-317.81 2323.5,-300 2291.6,-286.74 2258.25,-264.41 2237.92,-249.69"/>
<polygon fill="midnightblue" stroke="midnightblue" points="2239.93,-246.82 2229.8,-243.71 2235.78,-252.46 2239.93,-246.82"/>
</g>
<!-- Node88 -->
<g id="node47" class="node">
<title>Node88</title>
<g id="a_node47"><a xlink:href="wld__util_8h.html" target="_top" xlink:title=" ">
<polygon fill="white" stroke="black" points="2270.5,-224.5 2270.5,-243.5 2334.5,-243.5 2334.5,-224.5 2270.5,-224.5"/>
<text text-anchor="middle" x="2302.5" y="-231.5" font-family="Helvetica,sans-Serif" font-size="10.00">wld_util.h</text>
</a>
</g>
</g>
<!-- Node1&#45;&gt;Node88 -->
<g id="edge62" class="edge">
<title>Node1&#45;&gt;Node88</title>
<path fill="none" stroke="midnightblue" d="M2441.73,-336.49C2410.97,-330.16 2375.82,-319.15 2348.5,-300 2331.39,-288.01 2318.45,-267.52 2310.72,-252.75"/>
<polygon fill="midnightblue" stroke="midnightblue" points="2313.78,-251.03 2306.21,-243.61 2307.5,-254.13 2313.78,-251.03"/>
</g>
<!-- Node89 -->
<g id="node48" class="node">
<title>Node89</title>
<g id="a_node48"><a xlink:href="wld__eventing_8h.html" target="_top" xlink:title=" ">
<polygon fill="white" stroke="black" points="3855,-168.5 3855,-187.5 3946,-187.5 3946,-168.5 3855,-168.5"/>
<text text-anchor="middle" x="3900.5" y="-175.5" font-family="Helvetica,sans-Serif" font-size="10.00">wld_eventing.h</text>
</a>
</g>
</g>
<!-- Node1&#45;&gt;Node89 -->
<g id="edge65" class="edge">
<title>Node1&#45;&gt;Node89</title>
<path fill="none" stroke="midnightblue" d="M2578.58,-336.46C2616.23,-329.88 2663.51,-318.65 2702.5,-300 2752.22,-276.22 2748.73,-242.91 2800.5,-224 2898.81,-188.08 3634.27,-180.68 3844.52,-179.3"/>
<polygon fill="midnightblue" stroke="midnightblue" points="3844.73,-182.8 3854.71,-179.23 3844.69,-175.8 3844.73,-182.8"/>
</g>
<!-- Node90 -->
<g id="node49" class="node">
<title>Node90</title>
<g id="a_node49"><a xlink:href="wld__assocdev_8h.html" target="_top" xlink:title=" ">
<polygon fill="white" stroke="red" points="2391,-280.5 2391,-299.5 2484,-299.5 2484,-280.5 2391,-280.5"/>
<text text-anchor="middle" x="2437.5" y="-287.5" font-family="Helvetica,sans-Serif" font-size="10.00">wld_assocdev.h</text>
</a>
</g>
</g>
<!-- Node1&#45;&gt;Node90 -->
<g id="edge73" class="edge">
<title>Node1&#45;&gt;Node90</title>
<path fill="none" stroke="midnightblue" d="M2500.45,-336.32C2489.04,-328.11 2471.67,-315.6 2458.07,-305.81"/>
<polygon fill="midnightblue" stroke="midnightblue" points="2459.93,-302.84 2449.77,-299.83 2455.84,-308.52 2459.93,-302.84"/>
</g>
<!-- Node93 -->
<g id="node50" class="node">
<title>Node93</title>
<g id="a_node50"><a xlink:href="wld__wpaSupp__cfgFile_8h.html" target="_top" xlink:title=" ">
<polygon fill="white" stroke="black" points="2943.5,-280.5 2943.5,-299.5 3073.5,-299.5 3073.5,-280.5 2943.5,-280.5"/>
<text text-anchor="middle" x="3008.5" y="-287.5" font-family="Helvetica,sans-Serif" font-size="10.00">wld_wpaSupp_cfgFile.h</text>
</a>
</g>
</g>
<!-- Node1&#45;&gt;Node93 -->
<g id="edge75" class="edge">
<title>Node1&#45;&gt;Node93</title>
<path fill="none" stroke="midnightblue" d="M2583.1,-337.79C2664.8,-329.38 2803.69,-314.86 2933.05,-300.15"/>
<polygon fill="midnightblue" stroke="midnightblue" points="2933.6,-303.61 2943.14,-299 2932.8,-296.66 2933.6,-303.61"/>
</g>
<!-- Node5 -->
<g id="node5" class="node">
<title>Node5</title>
<g id="a_node5"><a xlink:title=" ">
<polygon fill="white" stroke="#bfbfbf" points="2213.5,-56.5 2213.5,-75.5 2275.5,-75.5 2275.5,-56.5 2213.5,-56.5"/>
<text text-anchor="middle" x="2244.5" y="-63.5" font-family="Helvetica,sans-Serif" font-size="10.00">stdbool.h</text>
</a>
</g>
</g>
<!-- Node4&#45;&gt;Node5 -->
<g id="edge4" class="edge">
<title>Node4&#45;&gt;Node5</title>
<path fill="none" stroke="midnightblue" d="M2364.27,-168.38C2348.5,-160.1 2324.88,-146.7 2306.5,-132 2288.15,-117.32 2269.91,-97.39 2258.02,-83.49"/>
<polygon fill="midnightblue" stroke="midnightblue" points="2260.6,-81.12 2251.49,-75.71 2255.24,-85.62 2260.6,-81.12"/>
</g>
<!-- Node6 -->
<g id="node6" class="node">
<title>Node6</title>
<g id="a_node6"><a xlink:title=" ">
<polygon fill="white" stroke="#bfbfbf" points="4041,-0.5 4041,-19.5 4094,-19.5 4094,-0.5 4041,-0.5"/>
<text text-anchor="middle" x="4067.5" y="-7.5" font-family="Helvetica,sans-Serif" font-size="10.00">stdint.h</text>
</a>
</g>
</g>
<!-- Node4&#45;&gt;Node6 -->
<g id="edge5" class="edge">
<title>Node4&#45;&gt;Node6</title>
<path fill="none" stroke="midnightblue" d="M2403.47,-176.69C2551.01,-174.53 3395.24,-160.97 3505.5,-132 3524.34,-127.05 3526.09,-118.35 3544.5,-112 3720.94,-51.11 3944.25,-23.45 4030.86,-14.47"/>
<polygon fill="midnightblue" stroke="midnightblue" points="4031.37,-17.94 4040.97,-13.45 4030.67,-10.98 4031.37,-17.94"/>
</g>
<!-- Node7 -->
<g id="node7" class="node">
<title>Node7</title>
<g id="a_node7"><a xlink:title=" ">
<polygon fill="white" stroke="#bfbfbf" points="2550.5,-112.5 2550.5,-131.5 2660.5,-131.5 2660.5,-112.5 2550.5,-112.5"/>
<text text-anchor="middle" x="2605.5" y="-119.5" font-family="Helvetica,sans-Serif" font-size="10.00">swl/swl_common.h</text>
</a>
</g>
</g>
<!-- Node4&#45;&gt;Node7 -->
<g id="edge6" class="edge">
<title>Node4&#45;&gt;Node7</title>
<path fill="none" stroke="midnightblue" d="M2403.39,-171.72C2439.56,-163 2512.56,-145.4 2560.21,-133.92"/>
<polygon fill="midnightblue" stroke="midnightblue" points="2561.07,-137.31 2569.98,-131.56 2559.43,-130.51 2561.07,-137.31"/>
</g>
<!-- Node8 -->
<g id="node8" class="node">
<title>Node8</title>
<g id="a_node8"><a xlink:title=" ">
<polygon fill="white" stroke="#bfbfbf" points="2678.5,-112.5 2678.5,-131.5 2814.5,-131.5 2814.5,-112.5 2678.5,-112.5"/>
<text text-anchor="middle" x="2746.5" y="-119.5" font-family="Helvetica,sans-Serif" font-size="10.00">swla/swla_commonLib.h</text>
</a>
</g>
</g>
<!-- Node4&#45;&gt;Node8 -->
<g id="edge7" class="edge">
<title>Node4&#45;&gt;Node8</title>
<path fill="none" stroke="midnightblue" d="M2403.24,-173.78C2456.48,-165.91 2595.15,-145.39 2679.05,-132.98"/>
<polygon fill="midnightblue" stroke="midnightblue" points="2679.62,-136.43 2689,-131.51 2678.59,-129.51 2679.62,-136.43"/>
</g>
<!-- Node9 -->
<g id="node9" class="node">
<title>Node9</title>
<g id="a_node9"><a xlink:title=" ">
<polygon fill="white" stroke="#bfbfbf" points="2832.5,-112.5 2832.5,-131.5 2920.5,-131.5 2920.5,-112.5 2832.5,-112.5"/>
<text text-anchor="middle" x="2876.5" y="-119.5" font-family="Helvetica,sans-Serif" font-size="10.00">swl/swl_uuid.h</text>
</a>
</g>
</g>
<!-- Node4&#45;&gt;Node9 -->
<g id="edge8" class="edge">
<title>Node4&#45;&gt;Node9</title>
<path fill="none" stroke="midnightblue" d="M2403.18,-175.31C2466.21,-170.28 2655.04,-154.46 2822.32,-132.08"/>
<polygon fill="midnightblue" stroke="midnightblue" points="2822.85,-135.54 2832.29,-130.73 2821.91,-128.6 2822.85,-135.54"/>
</g>
<!-- Node10 -->
<g id="node10" class="node">
<title>Node10</title>
<g id="a_node10"><a xlink:title=" ">
<polygon fill="white" stroke="#bfbfbf" points="2938.5,-112.5 2938.5,-131.5 3090.5,-131.5 3090.5,-112.5 2938.5,-112.5"/>
<text text-anchor="middle" x="3014.5" y="-119.5" font-family="Helvetica,sans-Serif" font-size="10.00">swla/swla_radioStandards.h</text>
</a>
</g>
</g>
<!-- Node4&#45;&gt;Node10 -->
<g id="edge9" class="edge">
<title>Node4&#45;&gt;Node10</title>
<path fill="none" stroke="midnightblue" d="M2403.18,-175.4C2475.79,-170.02 2717.22,-151.81 2928.04,-132.12"/>
<polygon fill="midnightblue" stroke="midnightblue" points="2928.42,-135.6 2938.05,-131.18 2927.77,-128.63 2928.42,-135.6"/>
</g>
<!-- Node11 -->
<g id="node11" class="node">
<title>Node11</title>
<g id="a_node11"><a xlink:title=" ">
<polygon fill="white" stroke="#bfbfbf" points="2120,-0.5 2120,-19.5 2221,-19.5 2221,-0.5 2120,-0.5"/>
<text text-anchor="middle" x="2170.5" y="-7.5" font-family="Helvetica,sans-Serif" font-size="10.00">swla/swla_time.h</text>
</a>
</g>
</g>
<!-- Node4&#45;&gt;Node11 -->
<g id="edge10" class="edge">
<title>Node4&#45;&gt;Node11</title>
<path fill="none" stroke="midnightblue" d="M2359.94,-175.94C2321.76,-174.1 2239.76,-170.28 2170.5,-168 2127.26,-166.58 643.73,-162.94 613.5,-132 506.11,-22.1 1809.76,-11.96 2109.71,-11.07"/>
<polygon fill="midnightblue" stroke="midnightblue" points="2109.96,-14.57 2119.95,-11.05 2109.94,-7.57 2109.96,-14.57"/>
</g>
<!-- Node12 -->
<g id="node12" class="node">
<title>Node12</title>
<g id="a_node12"><a xlink:title=" ">
<polygon fill="white" stroke="#bfbfbf" points="3109,-112.5 3109,-131.5 3238,-131.5 3238,-112.5 3109,-112.5"/>
<text text-anchor="middle" x="3173.5" y="-119.5" font-family="Helvetica,sans-Serif" font-size="10.00">swla/swla_time_spec.h</text>
</a>
</g>
</g>
<!-- Node4&#45;&gt;Node12 -->
<g id="edge11" class="edge">
<title>Node4&#45;&gt;Node12</title>
<path fill="none" stroke="midnightblue" d="M2403.27,-176.1C2489.74,-172.43 2817.46,-157.6 3098.96,-131.99"/>
<polygon fill="midnightblue" stroke="midnightblue" points="3099.31,-135.47 3108.95,-131.08 3098.67,-128.5 3099.31,-135.47"/>
</g>
<!-- Node13 -->
<g id="node13" class="node">
<title>Node13</title>
<g id="a_node13"><a xlink:title=" ">
<polygon fill="white" stroke="#bfbfbf" points="3256.5,-112.5 3256.5,-131.5 3350.5,-131.5 3350.5,-112.5 3256.5,-112.5"/>
<text text-anchor="middle" x="3303.5" y="-119.5" font-family="Helvetica,sans-Serif" font-size="10.00">swla/swla_oui.h</text>
</a>
</g>
</g>
<!-- Node4&#45;&gt;Node13 -->
<g id="edge12" class="edge">
<title>Node4&#45;&gt;Node13</title>
<path fill="none" stroke="midnightblue" d="M2403.32,-176.73C2500.59,-175.34 2904.52,-167.67 3246.4,-131.99"/>
<polygon fill="midnightblue" stroke="midnightblue" points="3246.92,-135.46 3256.5,-130.93 3246.18,-128.5 3246.92,-135.46"/>
</g>
<!-- Node14 -->
<g id="node14" class="node">
<title>Node14</title>
<g id="a_node14"><a xlink:title=" ">
<polygon fill="white" stroke="#bfbfbf" points="3368.5,-112.5 3368.5,-131.5 3496.5,-131.5 3496.5,-112.5 3368.5,-112.5"/>
<text text-anchor="middle" x="3432.5" y="-119.5" font-family="Helvetica,sans-Serif" font-size="10.00">swla/swla_delayExec.h</text>
</a>
</g>
</g>
<!-- Node4&#45;&gt;Node14 -->
<g id="edge13" class="edge">
<title>Node4&#45;&gt;Node14</title>
<path fill="none" stroke="midnightblue" d="M2403.22,-176.62C2507.71,-174.65 2969.17,-164.49 3358.39,-132.02"/>
<polygon fill="midnightblue" stroke="midnightblue" points="3358.76,-135.51 3368.43,-131.18 3358.18,-128.53 3358.76,-135.51"/>
</g>
<!-- Node15 -->
<g id="node15" class="node">
<title>Node15</title>
<g id="a_node15"><a xlink:title=" ">
<polygon fill="white" stroke="#bfbfbf" points="288,-112.5 288,-131.5 407,-131.5 407,-112.5 288,-112.5"/>
<text text-anchor="middle" x="347.5" y="-119.5" font-family="Helvetica,sans-Serif" font-size="10.00">swla/swla_function.h</text>
</a>
</g>
</g>
<!-- Node4&#45;&gt;Node15 -->
<g id="edge14" class="edge">
<title>Node4&#45;&gt;Node15</title>
<path fill="none" stroke="midnightblue" d="M2359.94,-175.92C2321.76,-174.05 2239.76,-170.19 2170.5,-168 1394.06,-143.48 1195.11,-190.87 417.21,-132.04"/>
<polygon fill="midnightblue" stroke="midnightblue" points="417.4,-128.55 407.16,-131.28 416.87,-135.53 417.4,-128.55"/>
</g>
<!-- Node16 -->
<g id="node16" class="node">
<title>Node16</title>
<g id="a_node16"><a xlink:title=" ">
<polygon fill="white" stroke="#bfbfbf" points="425,-112.5 425,-131.5 566,-131.5 566,-112.5 425,-112.5"/>
<text text-anchor="middle" x="495.5" y="-119.5" font-family="Helvetica,sans-Serif" font-size="10.00">swl/swl_usp_cmdStatus.h</text>
</a>
</g>
</g>
<!-- Node4&#45;&gt;Node16 -->
<g id="edge15" class="edge">
<title>Node4&#45;&gt;Node16</title>
<path fill="none" stroke="midnightblue" d="M2359.94,-175.94C2321.76,-174.09 2239.76,-170.26 2170.5,-168 1464.03,-144.94 1285.9,-177.25 580.5,-132 579.21,-131.92 577.91,-131.83 576.6,-131.74"/>
<polygon fill="midnightblue" stroke="midnightblue" points="576.66,-128.23 566.42,-130.95 576.13,-135.21 576.66,-128.23"/>
</g>
<!-- Node17 -->
<g id="node17" class="node">
<title>Node17</title>
<g id="a_node17"><a xlink:title=" ">
<polygon fill="white" stroke="#bfbfbf" points="622.5,-112.5 622.5,-131.5 708.5,-131.5 708.5,-112.5 622.5,-112.5"/>
<text text-anchor="middle" x="665.5" y="-119.5" font-family="Helvetica,sans-Serif" font-size="10.00">swl/swl_wps.h</text>
</a>
</g>
</g>
<!-- Node4&#45;&gt;Node17 -->
<g id="edge16" class="edge">
<title>Node4&#45;&gt;Node17</title>
<path fill="none" stroke="midnightblue" d="M2359.94,-175.95C2321.76,-174.13 2239.76,-170.33 2170.5,-168 1528.2,-146.35 1362.07,-194.75 718.55,-131.93"/>
<polygon fill="midnightblue" stroke="midnightblue" points="718.86,-128.45 708.56,-130.95 718.17,-135.41 718.86,-128.45"/>
</g>
<!-- Node18 -->
<g id="node18" class="node">
<title>Node18</title>
<g id="a_node18"><a xlink:title=" ">
<polygon fill="white" stroke="#bfbfbf" points="726.5,-112.5 726.5,-131.5 830.5,-131.5 830.5,-112.5 726.5,-112.5"/>
<text text-anchor="middle" x="778.5" y="-119.5" font-family="Helvetica,sans-Serif" font-size="10.00">swl/swl_security.h</text>
</a>
</g>
</g>
<!-- Node4&#45;&gt;Node18 -->
<g id="edge17" class="edge">
<title>Node4&#45;&gt;Node18</title>
<path fill="none" stroke="midnightblue" d="M2359.94,-175.97C2321.76,-174.17 2239.76,-170.41 2170.5,-168 1582.41,-147.51 1430.74,-182.88 840.73,-131.99"/>
<polygon fill="midnightblue" stroke="midnightblue" points="840.96,-128.5 830.7,-131.12 840.36,-135.47 840.96,-128.5"/>
</g>
<!-- Node19 -->
<g id="node19" class="node">
<title>Node19</title>
<g id="a_node19"><a xlink:title=" ">
<polygon fill="white" stroke="#bfbfbf" points="3553,-112.5 3553,-131.5 3636,-131.5 3636,-112.5 3553,-112.5"/>
<text text-anchor="middle" x="3594.5" y="-119.5" font-family="Helvetica,sans-Serif" font-size="10.00">amxc/amxc.h</text>
</a>
</g>
</g>
<!-- Node4&#45;&gt;Node19 -->
<g id="edge18" class="edge">
<title>Node4&#45;&gt;Node19</title>
<path fill="none" stroke="midnightblue" d="M2403.24,-177.13C2519.75,-177.62 3081.92,-177.4 3538.5,-132 3539.97,-131.85 3541.46,-131.69 3542.96,-131.52"/>
<polygon fill="midnightblue" stroke="midnightblue" points="3543.51,-134.98 3552.98,-130.24 3542.62,-128.04 3543.51,-134.98"/>
</g>
<!-- Node20 -->
<g id="node20" class="node">
<title>Node20</title>
<g id="a_node20"><a xlink:title=" ">
<polygon fill="white" stroke="#bfbfbf" points="3654.5,-112.5 3654.5,-131.5 3738.5,-131.5 3738.5,-112.5 3654.5,-112.5"/>
<text text-anchor="middle" x="3696.5" y="-119.5" font-family="Helvetica,sans-Serif" font-size="10.00">amxp/amxp.h</text>
</a>
</g>
</g>
<!-- Node4&#45;&gt;Node20 -->
<g id="edge19" class="edge">
<title>Node4&#45;&gt;Node20</title>
<path fill="none" stroke="midnightblue" d="M2403.17,-176.64C2547.26,-174.2 3369.3,-159.29 3643.94,-131.98"/>
<polygon fill="midnightblue" stroke="midnightblue" points="3644.67,-135.42 3654.26,-130.92 3643.96,-128.46 3644.67,-135.42"/>
</g>
<!-- Node21 -->
<g id="node21" class="node">
<title>Node21</title>
<g id="a_node21"><a xlink:title=" ">
<polygon fill="white" stroke="#bfbfbf" points="3756.5,-112.5 3756.5,-131.5 3896.5,-131.5 3896.5,-112.5 3756.5,-112.5"/>
<text text-anchor="middle" x="3826.5" y="-119.5" font-family="Helvetica,sans-Serif" font-size="10.00">amxd/amxd_parameter.h</text>
</a>
</g>
</g>
<!-- Node4&#45;&gt;Node21 -->
<g id="edge20" class="edge">
<title>Node4&#45;&gt;Node21</title>
<path fill="none" stroke="midnightblue" d="M2403.22,-176.94C2530.63,-176.45 3193.86,-172.04 3746.15,-132.03"/>
<polygon fill="midnightblue" stroke="midnightblue" points="3746.6,-135.51 3756.32,-131.29 3746.09,-128.53 3746.6,-135.51"/>
</g>
<!-- Node22 -->
<g id="node22" class="node">
<title>Node22</title>
<g id="a_node22"><a xlink:title=" ">
<polygon fill="white" stroke="#bfbfbf" points="3915,-112.5 3915,-131.5 4034,-131.5 4034,-112.5 3915,-112.5"/>
<text text-anchor="middle" x="3974.5" y="-119.5" font-family="Helvetica,sans-Serif" font-size="10.00">amxd/amxd_action.h</text>
</a>
</g>
</g>
<!-- Node4&#45;&gt;Node22 -->
<g id="edge21" class="edge">
<title>Node4&#45;&gt;Node22</title>
<path fill="none" stroke="midnightblue" d="M2403.03,-177.18C2538.35,-178.11 3285.26,-180.81 3904.68,-131.97"/>
<polygon fill="midnightblue" stroke="midnightblue" points="3905.01,-135.45 3914.7,-131.17 3904.45,-128.48 3905.01,-135.45"/>
</g>
<!-- Node23 -->
<g id="node23" class="node">
<title>Node23</title>
<g id="a_node23"><a xlink:title=" ">
<polygon fill="white" stroke="#bfbfbf" points="4223,-112.5 4223,-131.5 4398,-131.5 4398,-112.5 4223,-112.5"/>
<text text-anchor="middle" x="4310.5" y="-119.5" font-family="Helvetica,sans-Serif" font-size="10.00">amxd/amxd_object_parameter.h</text>
</a>
</g>
</g>
<!-- Node4&#45;&gt;Node23 -->
<g id="edge22" class="edge">
<title>Node4&#45;&gt;Node23</title>
<path fill="none" stroke="midnightblue" d="M2403.3,-177.03C2554.42,-177.08 3462.05,-175.57 4212.55,-132.01"/>
<polygon fill="midnightblue" stroke="midnightblue" points="4212.97,-135.49 4222.75,-131.41 4212.56,-128.5 4212.97,-135.49"/>
</g>
<!-- Node24 -->
<g id="node24" class="node">
<title>Node24</title>
<g id="a_node24"><a xlink:title=" ">
<polygon fill="white" stroke="#bfbfbf" points="4052.5,-112.5 4052.5,-131.5 4204.5,-131.5 4204.5,-112.5 4052.5,-112.5"/>
<text text-anchor="middle" x="4128.5" y="-119.5" font-family="Helvetica,sans-Serif" font-size="10.00">amxd/amxd_object_event.h</text>
</a>
</g>
</g>
<!-- Node4&#45;&gt;Node24 -->
<g id="edge23" class="edge">
<title>Node4&#45;&gt;Node24</title>
<path fill="none" stroke="midnightblue" d="M2403.09,-177.05C2545.41,-177.28 3363.97,-176.55 4041.6,-132.07"/>
<polygon fill="midnightblue" stroke="midnightblue" points="4042.32,-135.53 4052.07,-131.38 4041.86,-128.55 4042.32,-135.53"/>
</g>
<!-- Node25 -->
<g id="node25" class="node">
<title>Node25</title>
<g id="a_node25"><a xlink:title=" ">
<polygon fill="white" stroke="#bfbfbf" points="4416,-112.5 4416,-131.5 4545,-131.5 4545,-112.5 4416,-112.5"/>
<text text-anchor="middle" x="4480.5" y="-119.5" font-family="Helvetica,sans-Serif" font-size="10.00">amxd/amxd_function.h</text>
</a>
</g>
</g>
<!-- Node4&#45;&gt;Node25 -->
<g id="edge24" class="edge">
<title>Node4&#45;&gt;Node25</title>
<path fill="none" stroke="midnightblue" d="M2403.04,-176.82C2591.79,-175.21 3967.53,-162.55 4405.48,-132.06"/>
<polygon fill="midnightblue" stroke="midnightblue" points="4405.93,-135.54 4415.65,-131.34 4405.43,-128.56 4405.93,-135.54"/>
</g>
<!-- Node26 -->
<g id="node26" class="node">
<title>Node26</title>
<g id="a_node26"><a xlink:title=" ">
<polygon fill="white" stroke="#bfbfbf" points="849,-112.5 849,-131.5 1018,-131.5 1018,-112.5 849,-112.5"/>
<text text-anchor="middle" x="933.5" y="-119.5" font-family="Helvetica,sans-Serif" font-size="10.00">amxd/amxd_object_hierarchy.h</text>
</a>
</g>
</g>
<!-- Node4&#45;&gt;Node26 -->
<g id="edge25" class="edge">
<title>Node4&#45;&gt;Node26</title>
<path fill="none" stroke="midnightblue" d="M2359.94,-176C2321.76,-174.25 2239.75,-170.57 2170.5,-168 1665.5,-149.28 1535.86,-164.32 1028.28,-132.07"/>
<polygon fill="midnightblue" stroke="midnightblue" points="1028.33,-128.57 1018.13,-131.43 1027.89,-135.56 1028.33,-128.57"/>
</g>
<!-- Node27 -->
<g id="node27" class="node">
<title>Node27</title>
<g id="a_node27"><a xlink:title=" ">
<polygon fill="white" stroke="#bfbfbf" points="1036,-112.5 1036,-131.5 1155,-131.5 1155,-112.5 1036,-112.5"/>
<text text-anchor="middle" x="1095.5" y="-119.5" font-family="Helvetica,sans-Serif" font-size="10.00">amxd/amxd_object.h</text>
</a>
</g>
</g>
<!-- Node4&#45;&gt;Node27 -->
<g id="edge26" class="edge">
<title>Node4&#45;&gt;Node27</title>
<path fill="none" stroke="midnightblue" d="M2359.94,-176.03C2321.75,-174.33 2239.74,-170.71 2170.5,-168 1726.39,-150.59 1611.51,-169.14 1165.43,-132.08"/>
<polygon fill="midnightblue" stroke="midnightblue" points="1165.43,-128.57 1155.17,-131.23 1164.84,-135.55 1165.43,-128.57"/>
</g>
<!-- Node28 -->
<g id="node28" class="node">
<title>Node28</title>
<g id="a_node28"><a xlink:title=" ">
<polygon fill="white" stroke="#bfbfbf" points="1173,-112.5 1173,-131.5 1278,-131.5 1278,-112.5 1173,-112.5"/>
<text text-anchor="middle" x="1225.5" y="-119.5" font-family="Helvetica,sans-Serif" font-size="10.00">amxd/amxd_dm.h</text>
</a>
</g>
</g>
<!-- Node4&#45;&gt;Node28 -->
<g id="edge27" class="edge">
<title>Node4&#45;&gt;Node28</title>
<path fill="none" stroke="midnightblue" d="M2359.93,-176.07C2321.75,-174.42 2239.74,-170.89 2170.5,-168 1781.42,-151.77 1680.31,-167.98 1288.42,-131.97"/>
<polygon fill="midnightblue" stroke="midnightblue" points="1288.5,-128.47 1278.22,-131.03 1287.86,-135.44 1288.5,-128.47"/>
</g>
<!-- Node29 -->
<g id="node29" class="node">
<title>Node29</title>
<g id="a_node29"><a xlink:title=" ">
<polygon fill="white" stroke="#bfbfbf" points="1296.5,-112.5 1296.5,-131.5 1440.5,-131.5 1440.5,-112.5 1296.5,-112.5"/>
<text text-anchor="middle" x="1368.5" y="-119.5" font-family="Helvetica,sans-Serif" font-size="10.00">amxd/amxd_transaction.h</text>
</a>
</g>
</g>
<!-- Node4&#45;&gt;Node29 -->
<g id="edge28" class="edge">
<title>Node4&#45;&gt;Node29</title>
<path fill="none" stroke="midnightblue" d="M2359.67,-176.03C2231.78,-170.32 1581.22,-141.15 1450.94,-132.02"/>
<polygon fill="midnightblue" stroke="midnightblue" points="1451.13,-128.52 1440.9,-131.27 1450.61,-135.5 1451.13,-128.52"/>
</g>
<!-- Node30 -->
<g id="node30" class="node">
<title>Node30</title>
<g id="a_node30"><a xlink:title=" ">
<polygon fill="white" stroke="#bfbfbf" points="1458.5,-112.5 1458.5,-131.5 1574.5,-131.5 1574.5,-112.5 1458.5,-112.5"/>
<text text-anchor="middle" x="1516.5" y="-119.5" font-family="Helvetica,sans-Serif" font-size="10.00">amxb/amxb_types.h</text>
</a>
</g>
</g>
<!-- Node4&#45;&gt;Node30 -->
<g id="edge29" class="edge">
<title>Node4&#45;&gt;Node30</title>
<path fill="none" stroke="midnightblue" d="M2359.87,-176.01C2250.87,-170.97 1760.33,-147.89 1584.69,-132.02"/>
<polygon fill="midnightblue" stroke="midnightblue" points="1584.85,-128.52 1574.57,-131.08 1584.21,-135.49 1584.85,-128.52"/>
</g>
<!-- Node31 -->
<g id="node31" class="node">
<title>Node31</title>
<g id="a_node31"><a xlink:title=" ">
<polygon fill="white" stroke="#bfbfbf" points="1592.5,-112.5 1592.5,-131.5 1728.5,-131.5 1728.5,-112.5 1592.5,-112.5"/>
<text text-anchor="middle" x="1660.5" y="-119.5" font-family="Helvetica,sans-Serif" font-size="10.00">amxb/amxb_operators.h</text>
</a>
</g>
</g>
<!-- Node4&#45;&gt;Node31 -->
<g id="edge30" class="edge">
<title>Node4&#45;&gt;Node31</title>
<path fill="none" stroke="midnightblue" d="M2359.79,-175.85C2279.16,-171.51 1989.12,-155.19 1738.52,-132.05"/>
<polygon fill="midnightblue" stroke="midnightblue" points="1738.78,-128.56 1728.5,-131.12 1738.14,-135.53 1738.78,-128.56"/>
</g>
<!-- Node32 -->
<g id="node32" class="node">
<title>Node32</title>
<g id="a_node32"><a xlink:title=" ">
<polygon fill="white" stroke="#bfbfbf" points="1746.5,-112.5 1746.5,-131.5 1858.5,-131.5 1858.5,-112.5 1746.5,-112.5"/>
<text text-anchor="middle" x="1802.5" y="-119.5" font-family="Helvetica,sans-Serif" font-size="10.00">amxb/amxb_error.h</text>
</a>
</g>
</g>
<!-- Node4&#45;&gt;Node32 -->
<g id="edge31" class="edge">
<title>Node4&#45;&gt;Node32</title>
<path fill="none" stroke="midnightblue" d="M2359.92,-175.5C2290.36,-170.59 2065.62,-154.07 1868.79,-132.1"/>
<polygon fill="midnightblue" stroke="midnightblue" points="1869.18,-128.62 1858.85,-130.98 1868.39,-135.57 1869.18,-128.62"/>
</g>
<!-- Node33 -->
<g id="node33" class="node">
<title>Node33</title>
<g id="a_node33"><a xlink:title=" ">
<polygon fill="white" stroke="#bfbfbf" points="1877,-112.5 1877,-131.5 1960,-131.5 1960,-112.5 1877,-112.5"/>
<text text-anchor="middle" x="1918.5" y="-119.5" font-family="Helvetica,sans-Serif" font-size="10.00">amxo/amxo.h</text>
</a>
</g>
</g>
<!-- Node4&#45;&gt;Node33 -->
<g id="edge32" class="edge">
<title>Node4&#45;&gt;Node33</title>
<path fill="none" stroke="midnightblue" d="M2359.94,-175.18C2299.87,-170.01 2125.41,-154.23 1970.39,-132.19"/>
<polygon fill="midnightblue" stroke="midnightblue" points="1970.6,-128.69 1960.21,-130.73 1969.61,-135.62 1970.6,-128.69"/>
</g>
<!-- Node34 -->
<g id="node34" class="node">
<title>Node34</title>
<g id="a_node34"><a xlink:title=" ">
<polygon fill="white" stroke="#bfbfbf" points="1978,-112.5 1978,-131.5 2093,-131.5 2093,-112.5 1978,-112.5"/>
<text text-anchor="middle" x="2035.5" y="-119.5" font-family="Helvetica,sans-Serif" font-size="10.00">amxo/amxo_types.h</text>
</a>
</g>
</g>
<!-- Node4&#45;&gt;Node34 -->
<g id="edge33" class="edge">
<title>Node4&#45;&gt;Node34</title>
<path fill="none" stroke="midnightblue" d="M2359.86,-173.62C2308.88,-165.67 2179.64,-145.5 2100.54,-133.15"/>
<polygon fill="midnightblue" stroke="midnightblue" points="2100.63,-129.62 2090.21,-131.54 2099.55,-136.54 2100.63,-129.62"/>
</g>
<!-- Node35 -->
<g id="node35" class="node">
<title>Node35</title>
<g id="a_node35"><a xlink:href="wld__types_8h.html" target="_top" xlink:title=" ">
<polygon fill="white" stroke="red" points="2457,-56.5 2457,-75.5 2532,-75.5 2532,-56.5 2457,-56.5"/>
<text text-anchor="middle" x="2494.5" y="-63.5" font-family="Helvetica,sans-Serif" font-size="10.00">wld_types.h</text>
</a>
</g>
</g>
<!-- Node4&#45;&gt;Node35 -->
<g id="edge34" class="edge">
<title>Node4&#45;&gt;Node35</title>
<path fill="none" stroke="midnightblue" d="M2361.09,-168.46C2335.82,-156.67 2298.1,-134.32 2315.5,-112 2331.52,-91.46 2399.38,-78.86 2446.78,-72.4"/>
<polygon fill="midnightblue" stroke="midnightblue" points="2447.39,-75.85 2456.85,-71.07 2446.48,-68.91 2447.39,-75.85"/>
</g>
<!-- Node38 -->
<g id="node36" class="node">
<title>Node38</title>
<g id="a_node36"><a xlink:href="wld__channel__types_8h.html" target="_top" xlink:title=" ">
<polygon fill="white" stroke="red" points="2111,-112.5 2111,-131.5 2230,-131.5 2230,-112.5 2111,-112.5"/>
<text text-anchor="middle" x="2170.5" y="-119.5" font-family="Helvetica,sans-Serif" font-size="10.00">wld_channel_types.h</text>
</a>
</g>
</g>
<!-- Node4&#45;&gt;Node38 -->
<g id="edge37" class="edge">
<title>Node4&#45;&gt;Node38</title>
<path fill="none" stroke="midnightblue" d="M2359.71,-171.42C2325.43,-162.65 2258.22,-145.45 2213.83,-134.09"/>
<polygon fill="midnightblue" stroke="midnightblue" points="2214.45,-130.64 2203.9,-131.55 2212.72,-137.42 2214.45,-130.64"/>
</g>
<!-- Node40 -->
<g id="node37" class="node">
<title>Node40</title>
<g id="a_node37"><a xlink:href="wld__bgdfs_8h.html" target="_top" xlink:title=" ">
<polygon fill="white" stroke="black" points="2457,-112.5 2457,-131.5 2532,-131.5 2532,-112.5 2457,-112.5"/>
<text text-anchor="middle" x="2494.5" y="-119.5" font-family="Helvetica,sans-Serif" font-size="10.00">wld_bgdfs.h</text>
</a>
</g>
</g>
<!-- Node4&#45;&gt;Node40 -->
<g id="edge40" class="edge">
<title>Node4&#45;&gt;Node40</title>
<path fill="none" stroke="midnightblue" d="M2399.41,-168.44C2417.75,-159.68 2446.51,-145.94 2467.59,-135.86"/>
<polygon fill="midnightblue" stroke="midnightblue" points="2469.17,-138.99 2476.68,-131.52 2466.15,-132.67 2469.17,-138.99"/>
</g>
<!-- Node41 -->
<g id="node38" class="node">
<title>Node41</title>
<g id="a_node38"><a xlink:href="wld__rad__delayMgr_8h.html" target="_top" xlink:title=" ">
<polygon fill="white" stroke="black" points="2324.5,-112.5 2324.5,-131.5 2438.5,-131.5 2438.5,-112.5 2324.5,-112.5"/>
<text text-anchor="middle" x="2381.5" y="-119.5" font-family="Helvetica,sans-Serif" font-size="10.00">wld_rad_delayMgr.h</text>
</a>
</g>
</g>
<!-- Node4&#45;&gt;Node41 -->
<g id="edge42" class="edge">
<title>Node4&#45;&gt;Node41</title>
<path fill="none" stroke="midnightblue" d="M2376.33,-168.08C2374.82,-160.93 2374.39,-150.64 2375.04,-141.69"/>
<polygon fill="midnightblue" stroke="midnightblue" points="2378.52,-142.13 2376.37,-131.75 2371.58,-141.2 2378.52,-142.13"/>
</g>
<!-- Node4&#45;&gt;Node50 -->
<g id="edge44" class="edge">
<title>Node4&#45;&gt;Node50</title>
<path fill="none" stroke="midnightblue" d="M2359.86,-176.08C2316.64,-174.28 2216.61,-170.27 2132.5,-168 1685.45,-155.95 570.79,-171 107.41,-132.03"/>
<polygon fill="midnightblue" stroke="midnightblue" points="107.53,-128.52 97.26,-131.16 106.93,-135.5 107.53,-128.52"/>
</g>
<!-- Node4&#45;&gt;Node73 -->
<g id="edge45" class="edge">
<title>Node4&#45;&gt;Node73</title>
<path fill="none" stroke="midnightblue" d="M2359.94,-175.91C2321.76,-174.02 2239.76,-170.14 2170.5,-168 1333.24,-142.18 1119.66,-183.48 280.5,-132.07"/>
<polygon fill="midnightblue" stroke="midnightblue" points="280.49,-128.56 270.29,-131.44 280.06,-135.55 280.49,-128.56"/>
</g>
<!-- Node35&#45;&gt;Node6 -->
<g id="edge35" class="edge">
<title>Node35&#45;&gt;Node6</title>
<path fill="none" stroke="midnightblue" d="M2532.22,-63.71C2747.47,-56.32 3818.49,-19.55 4030.86,-12.26"/>
<polygon fill="midnightblue" stroke="midnightblue" points="4031,-15.76 4040.88,-11.91 4030.76,-8.76 4031,-15.76"/>
</g>
<!-- Node35&#45;&gt;Node11 -->
<g id="edge36" class="edge">
<title>Node35&#45;&gt;Node11</title>
<path fill="none" stroke="midnightblue" d="M2456.7,-58.7C2401.21,-49.45 2297.12,-32.1 2230.94,-21.07"/>
<polygon fill="midnightblue" stroke="midnightblue" points="2231.5,-17.62 2221.06,-19.43 2230.35,-24.52 2231.5,-17.62"/>
</g>
<!-- Node38&#45;&gt;Node5 -->
<g id="edge38" class="edge">
<title>Node38&#45;&gt;Node5</title>
<path fill="none" stroke="midnightblue" d="M2182.39,-112.32C2193.65,-104.11 2210.79,-91.6 2224.21,-81.81"/>
<polygon fill="midnightblue" stroke="midnightblue" points="2226.38,-84.56 2232.39,-75.83 2222.25,-78.9 2226.38,-84.56"/>
</g>
<!-- Node38&#45;&gt;Node11 -->
<g id="edge39" class="edge">
<title>Node38&#45;&gt;Node11</title>
<path fill="none" stroke="midnightblue" d="M2170.5,-112.37C2170.5,-94.62 2170.5,-53.67 2170.5,-29.6"/>
<polygon fill="midnightblue" stroke="midnightblue" points="2174,-29.59 2170.5,-19.59 2167,-29.59 2174,-29.59"/>
</g>
<!-- Node40&#45;&gt;Node35 -->
<g id="edge41" class="edge">
<title>Node40&#45;&gt;Node35</title>
<path fill="none" stroke="midnightblue" d="M2494.5,-112.08C2494.5,-105.01 2494.5,-94.86 2494.5,-85.99"/>
<polygon fill="midnightblue" stroke="midnightblue" points="2498,-85.75 2494.5,-75.75 2491,-85.75 2498,-85.75"/>
</g>
<!-- Node41&#45;&gt;Node4 -->
<g id="edge43" class="edge">
<title>Node41&#45;&gt;Node4</title>
<path fill="none" stroke="midnightblue" d="M2386.63,-131.75C2388.16,-138.86 2388.6,-149.14 2387.97,-158.1"/>
<polygon fill="midnightblue" stroke="midnightblue" points="2384.49,-157.71 2386.67,-168.08 2391.43,-158.62 2384.49,-157.71"/>
</g>
<!-- Node76&#45;&gt;Node4 -->
<g id="edge47" class="edge">
<title>Node76&#45;&gt;Node4</title>
<path fill="none" stroke="midnightblue" d="M2543.92,-224.44C2508.22,-214.46 2449.47,-198.02 2413.27,-187.89"/>
<polygon fill="midnightblue" stroke="midnightblue" points="2413.83,-184.41 2403.25,-185.09 2411.94,-191.15 2413.83,-184.41"/>
</g>
<!-- Node83&#45;&gt;Node4 -->
<g id="edge49" class="edge">
<title>Node83&#45;&gt;Node4</title>
<path fill="none" stroke="midnightblue" d="M2629.51,-280.11C2632.09,-266.21 2634.67,-239.34 2620.5,-224 2592.92,-194.15 2471.66,-183.75 2413.21,-180.42"/>
<polygon fill="midnightblue" stroke="midnightblue" points="2413.24,-176.92 2403.07,-179.88 2412.87,-183.91 2413.24,-176.92"/>
</g>
<!-- Node83&#45;&gt;Node84 -->
<g id="edge50" class="edge">
<title>Node83&#45;&gt;Node84</title>
<path fill="none" stroke="midnightblue" d="M2639.39,-280.32C2650.65,-272.11 2667.79,-259.6 2681.21,-249.81"/>
<polygon fill="midnightblue" stroke="midnightblue" points="2683.38,-252.56 2689.39,-243.83 2679.25,-246.9 2683.38,-252.56"/>
</g>
<!-- Node84&#45;&gt;Node4 -->
<g id="edge52" class="edge">
<title>Node84&#45;&gt;Node4</title>
<path fill="none" stroke="midnightblue" d="M2667.43,-226.52C2662.75,-225.66 2658.01,-224.8 2653.5,-224 2566.59,-208.66 2463.77,-192.08 2413.04,-183.99"/>
<polygon fill="midnightblue" stroke="midnightblue" points="2413.46,-180.52 2403.04,-182.4 2412.36,-187.43 2413.46,-180.52"/>
</g>
<!-- Node84&#45;&gt;Node6 -->
<g id="edge51" class="edge">
<title>Node84&#45;&gt;Node6</title>
<path fill="none" stroke="midnightblue" d="M2735.82,-229.37C2754.86,-227.49 2778.97,-225.31 2800.5,-224 3313.13,-192.74 3442.91,-219.92 3955.5,-188 4088.93,-179.69 4464.47,-230.84 4554.5,-132 4617.85,-62.46 4227.76,-24.14 4104.17,-13.85"/>
<polygon fill="midnightblue" stroke="midnightblue" points="4104.31,-10.35 4094.06,-13.02 4103.74,-17.33 4104.31,-10.35"/>
</g>
<!-- Node85&#45;&gt;Node4 -->
<g id="edge54" class="edge">
<title>Node85&#45;&gt;Node4</title>
<path fill="none" stroke="midnightblue" d="M2459.56,-224.32C2444.91,-215.82 2422.37,-202.73 2405.26,-192.8"/>
<polygon fill="midnightblue" stroke="midnightblue" points="2406.81,-189.65 2396.4,-187.65 2403.3,-195.7 2406.81,-189.65"/>
</g>
<!-- Node86&#45;&gt;Node3 -->
<g id="edge57" class="edge">
<title>Node86&#45;&gt;Node3</title>
<path fill="none" stroke="midnightblue" d="M2874.53,-280.08C2872.12,-272.85 2868.64,-262.41 2865.63,-253.4"/>
<polygon fill="midnightblue" stroke="midnightblue" points="2868.9,-252.13 2862.42,-243.75 2862.26,-254.34 2868.9,-252.13"/>
</g>
<!-- Node86&#45;&gt;Node6 -->
<g id="edge58" class="edge">
<title>Node86&#45;&gt;Node6</title>
<path fill="none" stroke="midnightblue" d="M2925.04,-281.14C2928.24,-280.72 2931.41,-280.33 2934.5,-280 3029.39,-269.74 4649.5,-274.44 4649.5,-179 4649.5,-179 4649.5,-179 4649.5,-121 4649.5,-40.11 4558.13,-74.99 4479.5,-56 4343.84,-23.23 4177.24,-14.29 4104.46,-11.87"/>
<polygon fill="midnightblue" stroke="midnightblue" points="4104.52,-8.37 4094.42,-11.56 4104.3,-15.37 4104.52,-8.37"/>
</g>
<!-- Node86&#45;&gt;Node35 -->
<g id="edge56" class="edge">
<title>Node86&#45;&gt;Node35</title>
<path fill="none" stroke="midnightblue" d="M2925.05,-281.25C2928.25,-280.8 2931.42,-280.38 2934.5,-280 3386.66,-223.99 3501.79,-229.65 3955.5,-188 4222.73,-163.47 4742.17,-303.82 4554.5,-112 4518.15,-74.85 2848.77,-68.06 2542.5,-67.13"/>
<polygon fill="midnightblue" stroke="midnightblue" points="2542.19,-63.63 2532.18,-67.1 2542.17,-70.63 2542.19,-63.63"/>
</g>
<!-- Node87&#45;&gt;Node4 -->
<g id="edge60" class="edge">
<title>Node87&#45;&gt;Node4</title>
<path fill="none" stroke="midnightblue" d="M2244.33,-224.44C2273.04,-214.93 2319.41,-199.57 2350.17,-189.38"/>
<polygon fill="midnightblue" stroke="midnightblue" points="2351.57,-192.6 2359.96,-186.14 2349.36,-185.96 2351.57,-192.6"/>
</g>
<!-- Node88&#45;&gt;Node4 -->
<g id="edge63" class="edge">
<title>Node88&#45;&gt;Node4</title>
<path fill="none" stroke="midnightblue" d="M2315.19,-224.32C2327.4,-215.98 2346.08,-203.21 2360.5,-193.35"/>
<polygon fill="midnightblue" stroke="midnightblue" points="2362.56,-196.19 2368.84,-187.65 2358.61,-190.41 2362.56,-196.19"/>
</g>
<!-- Node89&#45;&gt;Node19 -->
<g id="edge66" class="edge">
<title>Node89&#45;&gt;Node19</title>
<path fill="none" stroke="midnightblue" d="M3854.69,-168.92C3798.85,-159.06 3704.74,-142.45 3646.32,-132.14"/>
<polygon fill="midnightblue" stroke="midnightblue" points="3646.65,-128.65 3636.2,-130.36 3645.43,-135.54 3646.65,-128.65"/>
</g>
<!-- Node89&#45;&gt;Node20 -->
<g id="edge67" class="edge">
<title>Node89&#45;&gt;Node20</title>
<path fill="none" stroke="midnightblue" d="M3868.18,-168.44C3833.11,-159.16 3777,-144.31 3738.54,-134.13"/>
<polygon fill="midnightblue" stroke="midnightblue" points="3739.24,-130.69 3728.67,-131.52 3737.44,-137.46 3739.24,-130.69"/>
</g>
<!-- Node89&#45;&gt;Node21 -->
<g id="edge68" class="edge">
<title>Node89&#45;&gt;Node21</title>
<path fill="none" stroke="midnightblue" d="M3888.61,-168.32C3877.35,-160.11 3860.21,-147.6 3846.79,-137.81"/>
<polygon fill="midnightblue" stroke="midnightblue" points="3848.75,-134.9 3838.61,-131.83 3844.62,-140.56 3848.75,-134.9"/>
</g>
<!-- Node89&#45;&gt;Node22 -->
<g id="edge69" class="edge">
<title>Node89&#45;&gt;Node22</title>
<path fill="none" stroke="midnightblue" d="M3912.39,-168.32C3923.65,-160.11 3940.79,-147.6 3954.21,-137.81"/>
<polygon fill="midnightblue" stroke="midnightblue" points="3956.38,-140.56 3962.39,-131.83 3952.25,-134.9 3956.38,-140.56"/>
</g>
<!-- Node89&#45;&gt;Node23 -->
<g id="edge70" class="edge">
<title>Node89&#45;&gt;Node23</title>
<path fill="none" stroke="midnightblue" d="M3946.34,-170.96C4016.52,-161.72 4151.32,-143.97 4235.77,-132.84"/>
<polygon fill="midnightblue" stroke="midnightblue" points="4236.35,-136.3 4245.81,-131.52 4235.44,-129.36 4236.35,-136.3"/>
</g>
<!-- Node89&#45;&gt;Node24 -->
<g id="edge71" class="edge">
<title>Node89&#45;&gt;Node24</title>
<path fill="none" stroke="midnightblue" d="M3936.63,-168.44C3976.15,-159.08 4039.6,-144.06 4082.61,-133.87"/>
<polygon fill="midnightblue" stroke="midnightblue" points="4083.62,-137.23 4092.54,-131.52 4082,-130.42 4083.62,-137.23"/>
</g>
<!-- Node89&#45;&gt;Node25 -->
<g id="edge72" class="edge">
<title>Node89&#45;&gt;Node25</title>
<path fill="none" stroke="midnightblue" d="M3946.34,-173.46C4033.64,-166.6 4230.02,-150.62 4405.44,-132.19"/>
<polygon fill="midnightblue" stroke="midnightblue" points="4406.06,-135.64 4415.63,-131.11 4405.32,-128.68 4406.06,-135.64"/>
</g>
<!-- Node90&#45;&gt;Node4 -->
<g id="edge74" class="edge">
<title>Node90&#45;&gt;Node4</title>
<path fill="none" stroke="midnightblue" d="M2433.11,-280.37C2423.95,-262.38 2402.65,-220.55 2390.47,-196.63"/>
<polygon fill="midnightblue" stroke="midnightblue" points="2393.53,-194.92 2385.87,-187.59 2387.29,-198.09 2393.53,-194.92"/>
</g>
</g>
</svg>
