<?xml version="1.0" encoding="UTF-8" standalone="no"?>
<!DOCTYPE svg PUBLIC "-//W3C//DTD SVG 1.1//EN"
 "http://www.w3.org/Graphics/SVG/1.1/DTD/svg11.dtd">
<!-- Generated by graphviz version 2.43.0 (0)
 -->
<!-- Title: wld_deleteAllRadios Pages: 1 -->
<svg width="692pt" height="370pt"
 viewBox="0.00 0.00 692.00 370.00" xmlns="http://www.w3.org/2000/svg" xmlns:xlink="http://www.w3.org/1999/xlink">
<g id="graph0" class="graph" transform="scale(1 1) rotate(0) translate(4 366)">
<title>wld_deleteAllRadios</title>
<polygon fill="white" stroke="transparent" points="-4,4 -4,-366 688,-366 688,4 -4,4"/>
<!-- Node1 -->
<g id="node1" class="node">
<title>Node1</title>
<g id="a_node1"><a xlink:title=" ">
<polygon fill="#bfbfbf" stroke="black" points="0,-152.5 0,-171.5 116,-171.5 116,-152.5 0,-152.5"/>
<text text-anchor="middle" x="58" y="-159.5" font-family="Helvetica,sans-Serif" font-size="10.00">wld_deleteAllRadios</text>
</a>
</g>
</g>
<!-- Node2 -->
<g id="node2" class="node">
<title>Node2</title>
<g id="a_node2"><a xlink:href="wld_8c.html#a798af38bd94fac2d41bbc0c9b3138188" target="_top" xlink:title=" ">
<polygon fill="white" stroke="black" points="152,-171.5 152,-190.5 266,-190.5 266,-171.5 152,-171.5"/>
<text text-anchor="middle" x="209" y="-178.5" font-family="Helvetica,sans-Serif" font-size="10.00">wld_deleteRadioObj</text>
</a>
</g>
</g>
<!-- Node1&#45;&gt;Node2 -->
<g id="edge1" class="edge">
<title>Node1&#45;&gt;Node2</title>
<path fill="none" stroke="midnightblue" d="M116.18,-169.29C124.56,-170.36 133.24,-171.47 141.78,-172.56"/>
<polygon fill="midnightblue" stroke="midnightblue" points="141.35,-176.03 151.71,-173.82 142.23,-169.09 141.35,-176.03"/>
</g>
<!-- Node16 -->
<g id="node16" class="node">
<title>Node16</title>
<g id="a_node16"><a xlink:href="wld__radio_8c.html#af061ce7c4a6066ba3118ea9986590e3d" target="_top" xlink:title=" ">
<polygon fill="white" stroke="black" points="164,-133.5 164,-152.5 254,-152.5 254,-133.5 164,-133.5"/>
<text text-anchor="middle" x="209" y="-140.5" font-family="Helvetica,sans-Serif" font-size="10.00">wld_rad_fromIt</text>
</a>
</g>
</g>
<!-- Node1&#45;&gt;Node16 -->
<g id="edge15" class="edge">
<title>Node1&#45;&gt;Node16</title>
<path fill="none" stroke="midnightblue" d="M116.18,-154.71C128.49,-153.14 141.47,-151.48 153.67,-149.93"/>
<polygon fill="midnightblue" stroke="midnightblue" points="154.22,-153.39 163.7,-148.65 153.34,-146.44 154.22,-153.39"/>
</g>
<!-- Node3 -->
<g id="node3" class="node">
<title>Node3</title>
<g id="a_node3"><a xlink:href="wld__autoCommitMgr_8c.html#a99a39f4add934b5c9bd259517a88ffad" target="_top" xlink:title=" ">
<polygon fill="white" stroke="black" points="303.5,-342.5 303.5,-361.5 464.5,-361.5 464.5,-342.5 303.5,-342.5"/>
<text text-anchor="middle" x="384" y="-349.5" font-family="Helvetica,sans-Serif" font-size="10.00">wld_autoCommitMgr_destroy</text>
</a>
</g>
</g>
<!-- Node2&#45;&gt;Node3 -->
<g id="edge2" class="edge">
<title>Node2&#45;&gt;Node3</title>
<path fill="none" stroke="midnightblue" d="M212.89,-190.66C221.53,-217.77 249.85,-295.1 302,-333 304.55,-334.85 307.25,-336.52 310.06,-338.04"/>
<polygon fill="midnightblue" stroke="midnightblue" points="308.8,-341.31 319.34,-342.34 311.74,-334.96 308.8,-341.31"/>
</g>
<!-- Node4 -->
<g id="node4" class="node">
<title>Node4</title>
<g id="a_node4"><a xlink:href="wld__chanmgt_8c.html#a8d7c7f9f54526cdebe54bf59c56362f9" target="_top" xlink:title=" ">
<polygon fill="white" stroke="black" points="321.5,-304.5 321.5,-323.5 446.5,-323.5 446.5,-304.5 321.5,-304.5"/>
<text text-anchor="middle" x="384" y="-311.5" font-family="Helvetica,sans-Serif" font-size="10.00">wld_chanmgt_cleanup</text>
</a>
</g>
</g>
<!-- Node2&#45;&gt;Node4 -->
<g id="edge3" class="edge">
<title>Node2&#45;&gt;Node4</title>
<path fill="none" stroke="midnightblue" d="M214.92,-190.76C226.69,-213.03 258.72,-267.8 302,-295 305.34,-297.1 308.9,-298.97 312.58,-300.63"/>
<polygon fill="midnightblue" stroke="midnightblue" points="311.36,-303.91 321.94,-304.36 313.94,-297.41 311.36,-303.91"/>
</g>
<!-- Node5 -->
<g id="node5" class="node">
<title>Node5</title>
<g id="a_node5"><a xlink:href="wld__extMod_8c.html#aa2ca70b5b598c205d60ab831640bbc33" target="_top" xlink:title="clean up the extModDataList for a given core object. This will call the delete handlers for all activ...">
<polygon fill="white" stroke="black" points="304,-266.5 304,-285.5 464,-285.5 464,-266.5 304,-266.5"/>
<text text-anchor="middle" x="384" y="-273.5" font-family="Helvetica,sans-Serif" font-size="10.00">wld_extMod_cleanupDataList</text>
</a>
</g>
</g>
<!-- Node2&#45;&gt;Node5 -->
<g id="edge4" class="edge">
<title>Node2&#45;&gt;Node5</title>
<path fill="none" stroke="midnightblue" d="M218.64,-190.58C233.85,-206.82 267.11,-239.69 302,-257 306.85,-259.41 312.02,-261.52 317.31,-263.36"/>
<polygon fill="midnightblue" stroke="midnightblue" points="316.33,-266.72 326.92,-266.41 318.44,-260.05 316.33,-266.72"/>
</g>
<!-- Node6 -->
<g id="node6" class="node">
<title>Node6</title>
<g id="a_node6"><a xlink:href="wld__rad__caps_8c.html#a3746d48346230aedaa939a3851411183" target="_top" xlink:title=" ">
<polygon fill="white" stroke="black" points="309.5,-228.5 309.5,-247.5 458.5,-247.5 458.5,-228.5 309.5,-228.5"/>
<text text-anchor="middle" x="384" y="-235.5" font-family="Helvetica,sans-Serif" font-size="10.00">wld_rad_clearSuppDrvCaps</text>
</a>
</g>
</g>
<!-- Node2&#45;&gt;Node6 -->
<g id="edge5" class="edge">
<title>Node2&#45;&gt;Node6</title>
<path fill="none" stroke="midnightblue" d="M230.47,-190.57C248.88,-198.91 276.83,-210.91 302,-219 309.82,-221.51 318.16,-223.85 326.41,-225.96"/>
<polygon fill="midnightblue" stroke="midnightblue" points="325.84,-229.42 336.39,-228.42 327.52,-222.63 325.84,-229.42"/>
</g>
<!-- Node7 -->
<g id="node7" class="node">
<title>Node7</title>
<g id="a_node7"><a xlink:href="wld__radio_8c.html#a03089b86ce2b3573ee098c9434b60bce" target="_top" xlink:title=" ">
<polygon fill="white" stroke="black" points="305.5,-190.5 305.5,-209.5 462.5,-209.5 462.5,-190.5 305.5,-190.5"/>
<text text-anchor="middle" x="384" y="-197.5" font-family="Helvetica,sans-Serif" font-size="10.00">wld_rad_triggerChangeEvent</text>
</a>
</g>
</g>
<!-- Node2&#45;&gt;Node7 -->
<g id="edge6" class="edge">
<title>Node2&#45;&gt;Node7</title>
<path fill="none" stroke="midnightblue" d="M266.17,-187.17C275.57,-188.2 285.51,-189.29 295.47,-190.39"/>
<polygon fill="midnightblue" stroke="midnightblue" points="295.1,-193.87 305.42,-191.48 295.86,-186.91 295.1,-193.87"/>
</g>
<!-- Node9 -->
<g id="node9" class="node">
<title>Node9</title>
<g id="a_node9"><a xlink:href="wld__rad__stamon_8c.html#afa47a1bb2714393a6b2f7a831911a98b" target="_top" xlink:title=" ">
<polygon fill="white" stroke="black" points="317,-152.5 317,-171.5 451,-171.5 451,-152.5 317,-152.5"/>
<text text-anchor="middle" x="384" y="-159.5" font-family="Helvetica,sans-Serif" font-size="10.00">wld_radStaMon_destroy</text>
</a>
</g>
</g>
<!-- Node2&#45;&gt;Node9 -->
<g id="edge8" class="edge">
<title>Node2&#45;&gt;Node9</title>
<path fill="none" stroke="midnightblue" d="M266.17,-174.83C279.06,-173.42 292.99,-171.89 306.57,-170.39"/>
<polygon fill="midnightblue" stroke="midnightblue" points="307.32,-173.83 316.87,-169.26 306.55,-166.88 307.32,-173.83"/>
</g>
<!-- Node11 -->
<g id="node11" class="node">
<title>Node11</title>
<g id="a_node11"><a xlink:href="wld__rad__scan_8c.html#a194f47a8606d3bd82e8cc4f08ccf25bb" target="_top" xlink:title=" ">
<polygon fill="white" stroke="black" points="302,-114.5 302,-133.5 466,-133.5 466,-114.5 302,-114.5"/>
<text text-anchor="middle" x="384" y="-121.5" font-family="Helvetica,sans-Serif" font-size="10.00">wld_scan_cleanupScanResults</text>
</a>
</g>
</g>
<!-- Node2&#45;&gt;Node11 -->
<g id="edge10" class="edge">
<title>Node2&#45;&gt;Node11</title>
<path fill="none" stroke="midnightblue" d="M241.14,-171.41C249.33,-168.63 258.08,-165.41 266,-162 282.62,-154.85 285.06,-149.34 302,-143 308.79,-140.46 316.03,-138.19 323.28,-136.17"/>
<polygon fill="midnightblue" stroke="midnightblue" points="324.36,-139.51 333.14,-133.58 322.58,-132.74 324.36,-139.51"/>
</g>
<!-- Node13 -->
<g id="node13" class="node">
<title>Node13</title>
<g id="a_node13"><a xlink:href="wld__radio_8h.html#aad96942514444774702d14cc1d635255" target="_top" xlink:title=" ">
<polygon fill="white" stroke="black" points="332,-76.5 332,-95.5 436,-95.5 436,-76.5 332,-76.5"/>
<text text-anchor="middle" x="384" y="-83.5" font-family="Helvetica,sans-Serif" font-size="10.00">wld_scan_destroy</text>
</a>
</g>
</g>
<!-- Node2&#45;&gt;Node13 -->
<g id="edge12" class="edge">
<title>Node2&#45;&gt;Node13</title>
<path fill="none" stroke="midnightblue" d="M249.41,-171.47C255.33,-168.98 261.08,-165.88 266,-162 289.54,-143.46 277.6,-122.38 302,-105 307.99,-100.74 314.79,-97.42 321.85,-94.84"/>
<polygon fill="midnightblue" stroke="midnightblue" points="323.12,-98.11 331.59,-91.75 321,-91.43 323.12,-98.11"/>
</g>
<!-- Node14 -->
<g id="node14" class="node">
<title>Node14</title>
<g id="a_node14"><a xlink:href="wld__sensing_8c.html#a21f4d2b4c0975b6cd4389ac842326231" target="_top" xlink:title=" ">
<polygon fill="white" stroke="black" points="324,-38.5 324,-57.5 444,-57.5 444,-38.5 324,-38.5"/>
<text text-anchor="middle" x="384" y="-45.5" font-family="Helvetica,sans-Serif" font-size="10.00">wld_sensing_cleanup</text>
</a>
</g>
</g>
<!-- Node2&#45;&gt;Node14 -->
<g id="edge13" class="edge">
<title>Node2&#45;&gt;Node14</title>
<path fill="none" stroke="midnightblue" d="M252.13,-171.37C257.21,-168.92 262.01,-165.85 266,-162 298.48,-130.64 268.04,-96.76 302,-67 305.74,-63.72 309.94,-60.98 314.41,-58.69"/>
<polygon fill="midnightblue" stroke="midnightblue" points="316.1,-61.78 323.9,-54.61 313.33,-55.35 316.1,-61.78"/>
</g>
<!-- Node15 -->
<g id="node15" class="node">
<title>Node15</title>
<g id="a_node15"><a xlink:href="wld__rad__scan_8c.html#a6dc702409e9903f7530a9b4e6be50614" target="_top" xlink:title=" ">
<polygon fill="white" stroke="black" points="302,-0.5 302,-19.5 466,-19.5 466,-0.5 302,-0.5"/>
<text text-anchor="middle" x="384" y="-7.5" font-family="Helvetica,sans-Serif" font-size="10.00">wld_spectrum_cleanupResults</text>
</a>
</g>
</g>
<!-- Node2&#45;&gt;Node15 -->
<g id="edge14" class="edge">
<title>Node2&#45;&gt;Node15</title>
<path fill="none" stroke="midnightblue" d="M253.04,-171.45C257.86,-168.99 262.35,-165.89 266,-162 307.92,-117.36 257.97,-71.56 302,-29 303.48,-27.57 305.05,-26.24 306.68,-25"/>
<polygon fill="midnightblue" stroke="midnightblue" points="308.77,-27.83 315.41,-19.57 305.07,-21.88 308.77,-27.83"/>
</g>
<!-- Node8 -->
<g id="node8" class="node">
<title>Node8</title>
<g id="a_node8"><a xlink:href="wld__eventing_8c.html#aa79c0a7f8698dee12cd21e53ad8a3bf5" target="_top" xlink:title=" ">
<polygon fill="white" stroke="black" points="518,-190.5 518,-209.5 668,-209.5 668,-190.5 518,-190.5"/>
<text text-anchor="middle" x="593" y="-197.5" font-family="Helvetica,sans-Serif" font-size="10.00">wld_event_trigger_callback</text>
</a>
</g>
</g>
<!-- Node7&#45;&gt;Node8 -->
<g id="edge7" class="edge">
<title>Node7&#45;&gt;Node8</title>
<path fill="none" stroke="midnightblue" d="M462.67,-200C477.3,-200 492.67,-200 507.5,-200"/>
<polygon fill="midnightblue" stroke="midnightblue" points="507.67,-203.5 517.67,-200 507.67,-196.5 507.67,-203.5"/>
</g>
<!-- Node10 -->
<g id="node10" class="node">
<title>Node10</title>
<g id="a_node10"><a xlink:href="wld__monitor_8c.html#abedac9e495fba36decd9de9e4da5b4bc" target="_top" xlink:title=" ">
<polygon fill="white" stroke="black" points="531,-152.5 531,-171.5 655,-171.5 655,-152.5 531,-152.5"/>
<text text-anchor="middle" x="593" y="-159.5" font-family="Helvetica,sans-Serif" font-size="10.00">wld_mon_destroyMon</text>
</a>
</g>
</g>
<!-- Node9&#45;&gt;Node10 -->
<g id="edge9" class="edge">
<title>Node9&#45;&gt;Node10</title>
<path fill="none" stroke="midnightblue" d="M451.07,-162C473.23,-162 498.04,-162 520.59,-162"/>
<polygon fill="midnightblue" stroke="midnightblue" points="520.78,-165.5 530.78,-162 520.78,-158.5 520.78,-165.5"/>
</g>
<!-- Node12 -->
<g id="node12" class="node">
<title>Node12</title>
<g id="a_node12"><a xlink:href="wld__rad__scan_8c.html#a4d88dcf7b64e163cecafdc8d6f5341d6" target="_top" xlink:title=" ">
<polygon fill="white" stroke="black" points="502,-114.5 502,-133.5 684,-133.5 684,-114.5 502,-114.5"/>
<text text-anchor="middle" x="593" y="-121.5" font-family="Helvetica,sans-Serif" font-size="10.00">wld_scan_cleanupScanResultSSID</text>
</a>
</g>
</g>
<!-- Node11&#45;&gt;Node12 -->
<g id="edge11" class="edge">
<title>Node11&#45;&gt;Node12</title>
<path fill="none" stroke="midnightblue" d="M466.22,-124C474.6,-124 483.19,-124 491.75,-124"/>
<polygon fill="midnightblue" stroke="midnightblue" points="491.77,-127.5 501.77,-124 491.77,-120.5 491.77,-127.5"/>
</g>
</g>
</svg>
