<?xml version="1.0" encoding="UTF-8" standalone="no"?>
<!DOCTYPE svg PUBLIC "-//W3C//DTD SVG 1.1//EN"
 "http://www.w3.org/Graphics/SVG/1.1/DTD/svg11.dtd">
<!-- Generated by graphviz version 2.43.0 (0)
 -->
<!-- Title: wld_rad_getSocket Pages: 1 -->
<svg width="318pt" height="66pt"
 viewBox="0.00 0.00 318.00 66.00" xmlns="http://www.w3.org/2000/svg" xmlns:xlink="http://www.w3.org/1999/xlink">
<g id="graph0" class="graph" transform="scale(1 1) rotate(0) translate(4 62)">
<title>wld_rad_getSocket</title>
<polygon fill="white" stroke="transparent" points="-4,4 -4,-62 314,-62 314,4 -4,4"/>
<!-- Node1 -->
<g id="node1" class="node">
<title>Node1</title>
<g id="a_node1"><a xlink:title=" ">
<polygon fill="#bfbfbf" stroke="black" points="202,-19.5 202,-38.5 310,-38.5 310,-19.5 202,-19.5"/>
<text text-anchor="middle" x="256" y="-26.5" font-family="Helvetica,sans-Serif" font-size="10.00">wld_rad_getSocket</text>
</a>
</g>
</g>
<!-- Node2 -->
<g id="node2" class="node">
<title>Node2</title>
<g id="a_node2"><a xlink:href="wifiGen__rad_8c.html#a24f261e38f0ad308c80b5c1a7902f537" target="_top" xlink:title=" ">
<polygon fill="white" stroke="black" points="22,-38.5 22,-57.5 144,-57.5 144,-38.5 22,-38.5"/>
<text text-anchor="middle" x="83" y="-45.5" font-family="Helvetica,sans-Serif" font-size="10.00">wifiGen_rad_supports</text>
</a>
</g>
</g>
<!-- Node1&#45;&gt;Node2 -->
<g id="edge1" class="edge">
<title>Node1&#45;&gt;Node2</title>
<path fill="none" stroke="midnightblue" d="M191.8,-36.02C176.27,-37.75 159.69,-39.59 144.3,-41.3"/>
<polygon fill="midnightblue" stroke="midnightblue" points="192.28,-39.49 201.83,-34.91 191.51,-32.53 192.28,-39.49"/>
</g>
<!-- Node3 -->
<g id="node3" class="node">
<title>Node3</title>
<g id="a_node3"><a xlink:href="wld__rad__nl80211_8c.html#a34acd2cf01d19d3900cb06f98f203c35" target="_top" xlink:title=" ">
<polygon fill="white" stroke="black" points="0,-0.5 0,-19.5 166,-19.5 166,-0.5 0,-0.5"/>
<text text-anchor="middle" x="83" y="-7.5" font-family="Helvetica,sans-Serif" font-size="10.00">wld_rad_nl80211_addInterface</text>
</a>
</g>
</g>
<!-- Node1&#45;&gt;Node3 -->
<g id="edge2" class="edge">
<title>Node1&#45;&gt;Node3</title>
<path fill="none" stroke="midnightblue" d="M191.77,-21.97C183.37,-21.04 174.67,-20.07 166.02,-19.11"/>
<polygon fill="midnightblue" stroke="midnightblue" points="191.51,-25.47 201.83,-23.09 192.28,-18.51 191.51,-25.47"/>
</g>
</g>
</svg>
