<?xml version="1.0" encoding="UTF-8" standalone="no"?>
<!DOCTYPE svg PUBLIC "-//W3C//DTD SVG 1.1//EN"
 "http://www.w3.org/Graphics/SVG/1.1/DTD/svg11.dtd">
<!-- Generated by graphviz version 2.43.0 (0)
 -->
<!-- Title: wld_wpaCtrl_processMsg Pages: 1 -->
<svg width="506pt" height="61pt"
 viewBox="0.00 0.00 506.00 61.00" xmlns="http://www.w3.org/2000/svg" xmlns:xlink="http://www.w3.org/1999/xlink">
<g id="graph0" class="graph" transform="scale(1 1) rotate(0) translate(4 57)">
<title>wld_wpaCtrl_processMsg</title>
<polygon fill="white" stroke="transparent" points="-4,4 -4,-57 502,-57 502,4 -4,4"/>
<!-- Node1 -->
<g id="node1" class="node">
<title>Node1</title>
<g id="a_node1"><a xlink:title="process msgData received from wpa_ctrl server">
<polygon fill="#bfbfbf" stroke="black" points="0,-28 0,-47 140,-47 140,-28 0,-28"/>
<text text-anchor="middle" x="70" y="-35" font-family="Helvetica,sans-Serif" font-size="10.00">wld_wpaCtrl_processMsg</text>
</a>
</g>
</g>
<!-- Node2 -->
<g id="node2" class="node">
<title>Node2</title>
<g id="a_node2"><a xlink:href="wld__wpaCtrlInterface_8c.html#a5394fec853913f82bd5c52accf2687b8" target="_top" xlink:title=" ">
<polygon fill="white" stroke="black" points="378,-22.5 378,-52.5 498,-52.5 498,-22.5 378,-22.5"/>
<text text-anchor="start" x="386" y="-40.5" font-family="Helvetica,sans-Serif" font-size="10.00">wld_wpaCtrlInterface</text>
<text text-anchor="middle" x="438" y="-29.5" font-family="Helvetica,sans-Serif" font-size="10.00">_getName</text>
</a>
</g>
</g>
<!-- Node1&#45;&gt;Node2 -->
<g id="edge1" class="edge">
<title>Node1&#45;&gt;Node2</title>
<path fill="none" stroke="midnightblue" d="M140.18,-39.76C152.13,-40.07 164.42,-40.33 176,-40.5 249.77,-41.55 268.23,-41.66 342,-40.5 350.36,-40.37 359.13,-40.17 367.83,-39.94"/>
<polygon fill="midnightblue" stroke="midnightblue" points="368.07,-43.43 377.97,-39.65 367.87,-36.44 368.07,-43.43"/>
</g>
<!-- Node3 -->
<g id="node3" class="node">
<title>Node3</title>
<g id="a_node3"><a xlink:href="wld__wpaCtrlMngr_8c.html#ad691bfe39273eed2ddd349265e4314bb" target="_top" xlink:title=" ">
<polygon fill="white" stroke="black" points="176,-0.5 176,-30.5 342,-30.5 342,-0.5 176,-0.5"/>
<text text-anchor="start" x="184" y="-18.5" font-family="Helvetica,sans-Serif" font-size="10.00">wld_wpaCtrlMngr_getInterface</text>
<text text-anchor="middle" x="259" y="-7.5" font-family="Helvetica,sans-Serif" font-size="10.00">ByName</text>
</a>
</g>
</g>
<!-- Node1&#45;&gt;Node3 -->
<g id="edge2" class="edge">
<title>Node1&#45;&gt;Node3</title>
<path fill="none" stroke="midnightblue" d="M140.1,-29.37C148.48,-28.39 157.13,-27.37 165.77,-26.35"/>
<polygon fill="midnightblue" stroke="midnightblue" points="166.37,-29.8 175.89,-25.16 165.55,-22.85 166.37,-29.8"/>
</g>
<!-- Node3&#45;&gt;Node2 -->
<g id="edge3" class="edge">
<title>Node3&#45;&gt;Node2</title>
<path fill="none" stroke="midnightblue" d="M342.02,-25.69C350.64,-26.77 359.34,-27.85 367.79,-28.9"/>
<polygon fill="midnightblue" stroke="midnightblue" points="367.59,-32.4 377.95,-30.16 368.46,-25.45 367.59,-32.4"/>
</g>
</g>
</svg>
