<?xml version="1.0" encoding="UTF-8" standalone="no"?>
<!DOCTYPE svg PUBLIC "-//W3C//DTD SVG 1.1//EN"
 "http://www.w3.org/Graphics/SVG/1.1/DTD/svg11.dtd">
<!-- Generated by graphviz version 2.43.0 (0)
 -->
<!-- Title: wld_secDmn_getCtrlIfaceDirPath Pages: 1 -->
<svg width="389pt" height="78pt"
 viewBox="0.00 0.00 389.00 77.50" xmlns="http://www.w3.org/2000/svg" xmlns:xlink="http://www.w3.org/1999/xlink">
<g id="graph0" class="graph" transform="scale(1 1) rotate(0) translate(4 73.5)">
<title>wld_secDmn_getCtrlIfaceDirPath</title>
<polygon fill="white" stroke="transparent" points="-4,4 -4,-73.5 385,-73.5 385,4 -4,4"/>
<!-- Node1 -->
<g id="node1" class="node">
<title>Node1</title>
<g id="a_node1"><a xlink:title=" ">
<polygon fill="#bfbfbf" stroke="black" points="205,-28 205,-47 381,-47 381,-28 205,-28"/>
<text text-anchor="middle" x="293" y="-35" font-family="Helvetica,sans-Serif" font-size="10.00">wld_secDmn_getCtrlIfaceDirPath</text>
</a>
</g>
</g>
<!-- Node2 -->
<g id="node2" class="node">
<title>Node2</title>
<g id="a_node2"><a xlink:href="wifiGen__hapd_8c.html#a7d3e7497d8ba632b42864b29eeb4cd70" target="_top" xlink:title=" ">
<polygon fill="white" stroke="black" points="0,-50 0,-69 169,-69 169,-50 0,-50"/>
<text text-anchor="middle" x="84.5" y="-57" font-family="Helvetica,sans-Serif" font-size="10.00">wifiGen_hapd_fetchSockApLink</text>
</a>
</g>
</g>
<!-- Node1&#45;&gt;Node2 -->
<g id="edge1" class="edge">
<title>Node1&#45;&gt;Node2</title>
<path fill="none" stroke="midnightblue" d="M194.73,-47.86C186.19,-48.77 177.59,-49.69 169.17,-50.59"/>
<polygon fill="midnightblue" stroke="midnightblue" points="195.15,-51.34 204.72,-46.8 194.41,-44.38 195.15,-51.34"/>
</g>
<!-- Node3 -->
<g id="node3" class="node">
<title>Node3</title>
<g id="a_node3"><a xlink:href="wld__wpaCtrlMngr_8c.html#a97eec51d70f1f8708d478becfb983ce5" target="_top" xlink:title=" ">
<polygon fill="white" stroke="black" points="10.5,-0.5 10.5,-30.5 158.5,-30.5 158.5,-0.5 10.5,-0.5"/>
<text text-anchor="start" x="18.5" y="-18.5" font-family="Helvetica,sans-Serif" font-size="10.00">wld_wpaCtrlMngr_checkAll</text>
<text text-anchor="middle" x="84.5" y="-7.5" font-family="Helvetica,sans-Serif" font-size="10.00">Ifaces</text>
</a>
</g>
</g>
<!-- Node1&#45;&gt;Node3 -->
<g id="edge2" class="edge">
<title>Node1&#45;&gt;Node3</title>
<path fill="none" stroke="midnightblue" d="M194.63,-27.13C182.56,-25.84 170.39,-24.54 158.77,-23.31"/>
<polygon fill="midnightblue" stroke="midnightblue" points="194.41,-30.62 204.72,-28.2 195.15,-23.66 194.41,-30.62"/>
</g>
</g>
</svg>
