<?xml version="1.0" encoding="UTF-8" standalone="no"?>
<!DOCTYPE svg PUBLIC "-//W3C//DTD SVG 1.1//EN"
 "http://www.w3.org/Graphics/SVG/1.1/DTD/svg11.dtd">
<!-- Generated by graphviz version 2.43.0 (0)
 -->
<!-- Title: wld_wpaCtrlInterface_isEnabled Pages: 1 -->
<svg width="528pt" height="102pt"
 viewBox="0.00 0.00 528.00 101.50" xmlns="http://www.w3.org/2000/svg" xmlns:xlink="http://www.w3.org/1999/xlink">
<g id="graph0" class="graph" transform="scale(1 1) rotate(0) translate(4 97.5)">
<title>wld_wpaCtrlInterface_isEnabled</title>
<polygon fill="white" stroke="transparent" points="-4,4 -4,-97.5 524,-97.5 524,4 -4,4"/>
<!-- Node1 -->
<g id="node1" class="node">
<title>Node1</title>
<g id="a_node1"><a xlink:title=" ">
<polygon fill="#bfbfbf" stroke="black" points="400,-24.5 400,-54.5 520,-54.5 520,-24.5 400,-24.5"/>
<text text-anchor="start" x="408" y="-42.5" font-family="Helvetica,sans-Serif" font-size="10.00">wld_wpaCtrlInterface</text>
<text text-anchor="middle" x="460" y="-31.5" font-family="Helvetica,sans-Serif" font-size="10.00">_isEnabled</text>
</a>
</g>
</g>
<!-- Node2 -->
<g id="node2" class="node">
<title>Node2</title>
<g id="a_node2"><a xlink:href="wld__wpaCtrlMngr_8c.html#aff4525270029f61ec1fa53cd8ebb828a" target="_top" xlink:title=" ">
<polygon fill="white" stroke="black" points="191,-49.5 191,-79.5 364,-79.5 364,-49.5 191,-49.5"/>
<text text-anchor="start" x="199" y="-67.5" font-family="Helvetica,sans-Serif" font-size="10.00">wld_wpaCtrlMngr_countEnabled</text>
<text text-anchor="middle" x="277.5" y="-56.5" font-family="Helvetica,sans-Serif" font-size="10.00">Interfaces</text>
</a>
</g>
</g>
<!-- Node1&#45;&gt;Node2 -->
<g id="edge1" class="edge">
<title>Node1&#45;&gt;Node2</title>
<path fill="none" stroke="midnightblue" d="M389.83,-49.08C381.46,-50.24 372.83,-51.44 364.25,-52.62"/>
<polygon fill="midnightblue" stroke="midnightblue" points="390.47,-52.52 399.9,-47.69 389.51,-45.59 390.47,-52.52"/>
</g>
<!-- Node5 -->
<g id="node5" class="node">
<title>Node5</title>
<g id="a_node5"><a xlink:href="wld__wpaCtrlMngr_8c.html#ade9e80211a30152df41ae2d563d97937" target="_top" xlink:title=" ">
<polygon fill="white" stroke="black" points="206,-0.5 206,-30.5 349,-30.5 349,-0.5 206,-0.5"/>
<text text-anchor="start" x="214" y="-18.5" font-family="Helvetica,sans-Serif" font-size="10.00">wld_wpaCtrlMngr_getFirst</text>
<text text-anchor="middle" x="277.5" y="-7.5" font-family="Helvetica,sans-Serif" font-size="10.00">NotReadyInterface</text>
</a>
</g>
</g>
<!-- Node1&#45;&gt;Node5 -->
<g id="edge4" class="edge">
<title>Node1&#45;&gt;Node5</title>
<path fill="none" stroke="midnightblue" d="M389.83,-30.3C376.47,-28.53 362.46,-26.66 349.05,-24.88"/>
<polygon fill="midnightblue" stroke="midnightblue" points="389.52,-33.79 399.9,-31.64 390.45,-26.85 389.52,-33.79"/>
</g>
<!-- Node3 -->
<g id="node3" class="node">
<title>Node3</title>
<g id="a_node3"><a xlink:href="wld__wpaCtrlMngr_8c.html#afd3a74e8308c1c3b5b69b6057d13904c" target="_top" xlink:title=" ">
<polygon fill="white" stroke="black" points="0,-74 0,-93 155,-93 155,-74 0,-74"/>
<text text-anchor="middle" x="77.5" y="-81" font-family="Helvetica,sans-Serif" font-size="10.00">s_checkMgrConnectedIfaces</text>
</a>
</g>
</g>
<!-- Node2&#45;&gt;Node3 -->
<g id="edge2" class="edge">
<title>Node2&#45;&gt;Node3</title>
<path fill="none" stroke="midnightblue" d="M180.8,-73.68C172.24,-74.5 163.66,-75.33 155.29,-76.13"/>
<polygon fill="midnightblue" stroke="midnightblue" points="181.19,-77.16 190.81,-72.72 180.52,-70.19 181.19,-77.16"/>
</g>
<!-- Node4 -->
<g id="node4" class="node">
<title>Node4</title>
<g id="a_node4"><a xlink:href="wld__wpaCtrlMngr_8c.html#a977d0064530fa2690fa414c068b0c773" target="_top" xlink:title="check that all registed wpa_ctrl interfaces are ready">
<polygon fill="white" stroke="black" points="4.5,-36 4.5,-55 150.5,-55 150.5,-36 4.5,-36"/>
<text text-anchor="middle" x="77.5" y="-43" font-family="Helvetica,sans-Serif" font-size="10.00">wld_wpaCtrlMngr_isReady</text>
</a>
</g>
</g>
<!-- Node2&#45;&gt;Node4 -->
<g id="edge3" class="edge">
<title>Node2&#45;&gt;Node4</title>
<path fill="none" stroke="midnightblue" d="M180.73,-55.31C170.62,-54.34 160.46,-53.36 150.68,-52.43"/>
<polygon fill="midnightblue" stroke="midnightblue" points="180.52,-58.81 190.81,-56.28 181.19,-51.84 180.52,-58.81"/>
</g>
</g>
</svg>
