<?xml version="1.0" encoding="UTF-8" standalone="no"?>
<!DOCTYPE svg PUBLIC "-//W3C//DTD SVG 1.1//EN"
 "http://www.w3.org/Graphics/SVG/1.1/DTD/svg11.dtd">
<!-- Generated by graphviz version 2.43.0 (0)
 -->
<!-- Title: include_priv/nl80211/wld_nl80211_parser.h Pages: 1 -->
<svg width="5142pt" height="319pt"
 viewBox="0.00 0.00 5141.50 319.00" xmlns="http://www.w3.org/2000/svg" xmlns:xlink="http://www.w3.org/1999/xlink">
<g id="graph0" class="graph" transform="scale(1 1) rotate(0) translate(4 315)">
<title>include_priv/nl80211/wld_nl80211_parser.h</title>
<polygon fill="white" stroke="transparent" points="-4,4 -4,-315 5137.5,-315 5137.5,4 -4,4"/>
<!-- Node1 -->
<g id="node1" class="node">
<title>Node1</title>
<g id="a_node1"><a xlink:title=" ">
<polygon fill="#bfbfbf" stroke="black" points="2449.5,-280.5 2449.5,-310.5 2574.5,-310.5 2574.5,-280.5 2449.5,-280.5"/>
<text text-anchor="start" x="2457.5" y="-298.5" font-family="Helvetica,sans-Serif" font-size="10.00">include_priv/nl80211</text>
<text text-anchor="middle" x="2512" y="-287.5" font-family="Helvetica,sans-Serif" font-size="10.00">/wld_nl80211_parser.h</text>
</a>
</g>
</g>
<!-- Node2 -->
<g id="node2" class="node">
<title>Node2</title>
<g id="a_node2"><a xlink:href="wld__nl80211__api__priv_8h.html" target="_top" xlink:title=" ">
<polygon fill="white" stroke="black" points="152.5,-224.5 152.5,-243.5 283.5,-243.5 283.5,-224.5 152.5,-224.5"/>
<text text-anchor="middle" x="218" y="-231.5" font-family="Helvetica,sans-Serif" font-size="10.00">wld_nl80211_api_priv.h</text>
</a>
</g>
</g>
<!-- Node1&#45;&gt;Node2 -->
<g id="edge1" class="edge">
<title>Node1&#45;&gt;Node2</title>
<path fill="none" stroke="midnightblue" d="M2449.45,-292.88C2126.27,-284.5 647.04,-246.13 293.88,-236.97"/>
<polygon fill="midnightblue" stroke="midnightblue" points="293.85,-233.47 283.76,-236.71 293.67,-240.46 293.85,-233.47"/>
</g>
<!-- Node31 -->
<g id="node23" class="node">
<title>Node31</title>
<g id="a_node23"><a xlink:href="wld__nl80211__types_8h.html" target="_top" xlink:title=" ">
<polygon fill="white" stroke="black" points="4746.5,-224.5 4746.5,-243.5 4865.5,-243.5 4865.5,-224.5 4746.5,-224.5"/>
<text text-anchor="middle" x="4806" y="-231.5" font-family="Helvetica,sans-Serif" font-size="10.00">wld_nl80211_types.h</text>
</a>
</g>
</g>
<!-- Node1&#45;&gt;Node31 -->
<g id="edge29" class="edge">
<title>Node1&#45;&gt;Node31</title>
<path fill="none" stroke="midnightblue" d="M2574.55,-292.88C2899.7,-284.44 4394.98,-245.66 4736.43,-236.8"/>
<polygon fill="midnightblue" stroke="midnightblue" points="4736.53,-240.3 4746.44,-236.54 4736.35,-233.31 4736.53,-240.3"/>
</g>
<!-- Node3 -->
<g id="node3" class="node">
<title>Node3</title>
<g id="a_node3"><a xlink:href="wld__nl80211__attr_8h.html" target="_top" xlink:title=" ">
<polygon fill="white" stroke="black" points="80.5,-112.5 80.5,-131.5 189.5,-131.5 189.5,-112.5 80.5,-112.5"/>
<text text-anchor="middle" x="135" y="-119.5" font-family="Helvetica,sans-Serif" font-size="10.00">wld_nl80211_attr.h</text>
</a>
</g>
</g>
<!-- Node2&#45;&gt;Node3 -->
<g id="edge2" class="edge">
<title>Node2&#45;&gt;Node3</title>
<path fill="none" stroke="midnightblue" d="M211.49,-224.37C197.73,-206.14 165.5,-163.43 147.58,-139.68"/>
<polygon fill="midnightblue" stroke="midnightblue" points="150.3,-137.47 141.48,-131.59 144.71,-141.68 150.3,-137.47"/>
</g>
<!-- Node8 -->
<g id="node7" class="node">
<title>Node8</title>
<g id="a_node7"><a xlink:title=" ">
<polygon fill="white" stroke="#bfbfbf" points="236,-56.5 236,-75.5 346,-75.5 346,-56.5 236,-56.5"/>
<text text-anchor="middle" x="291" y="-63.5" font-family="Helvetica,sans-Serif" font-size="10.00">swl/swl_common.h</text>
</a>
</g>
</g>
<!-- Node2&#45;&gt;Node8 -->
<g id="edge27" class="edge">
<title>Node2&#45;&gt;Node8</title>
<path fill="none" stroke="midnightblue" d="M217.37,-224.42C216.24,-203.63 215.7,-149.55 237,-112 244.13,-99.44 256.21,-88.87 267.13,-81.14"/>
<polygon fill="midnightblue" stroke="midnightblue" points="269.14,-84.01 275.54,-75.57 265.27,-78.18 269.14,-84.01"/>
</g>
<!-- Node9 -->
<g id="node8" class="node">
<title>Node9</title>
<g id="a_node8"><a xlink:title=" ">
<polygon fill="white" stroke="#bfbfbf" points="0,-56.5 0,-75.5 104,-75.5 104,-56.5 0,-56.5"/>
<text text-anchor="middle" x="52" y="-63.5" font-family="Helvetica,sans-Serif" font-size="10.00">swl/swl_unLiList.h</text>
</a>
</g>
</g>
<!-- Node2&#45;&gt;Node9 -->
<g id="edge28" class="edge">
<title>Node2&#45;&gt;Node9</title>
<path fill="none" stroke="midnightblue" d="M197.58,-224.48C165.73,-210.14 104.41,-178.15 71,-132 61.2,-118.46 56.42,-99.91 54.11,-86.09"/>
<polygon fill="midnightblue" stroke="midnightblue" points="57.53,-85.24 52.7,-75.81 50.6,-86.19 57.53,-85.24"/>
</g>
<!-- Node10 -->
<g id="node9" class="node">
<title>Node10</title>
<g id="a_node9"><a xlink:href="wld__nl80211__core__priv_8h.html" target="_top" xlink:title=" ">
<polygon fill="white" stroke="black" points="759.5,-168.5 759.5,-187.5 896.5,-187.5 896.5,-168.5 759.5,-168.5"/>
<text text-anchor="middle" x="828" y="-175.5" font-family="Helvetica,sans-Serif" font-size="10.00">wld_nl80211_core_priv.h</text>
</a>
</g>
</g>
<!-- Node2&#45;&gt;Node10 -->
<g id="edge8" class="edge">
<title>Node2&#45;&gt;Node10</title>
<path fill="none" stroke="midnightblue" d="M283.57,-227.2C396.56,-217.19 627.48,-196.75 749.09,-185.99"/>
<polygon fill="midnightblue" stroke="midnightblue" points="749.42,-189.47 759.08,-185.1 748.81,-182.5 749.42,-189.47"/>
</g>
<!-- Node4 -->
<g id="node4" class="node">
<title>Node4</title>
<g id="a_node4"><a xlink:title=" ">
<polygon fill="white" stroke="#bfbfbf" points="134,-0.5 134,-19.5 218,-19.5 218,-0.5 134,-0.5"/>
<text text-anchor="middle" x="176" y="-7.5" font-family="Helvetica,sans-Serif" font-size="10.00">linux/socket.h</text>
</a>
</g>
</g>
<!-- Node3&#45;&gt;Node4 -->
<g id="edge3" class="edge">
<title>Node3&#45;&gt;Node4</title>
<path fill="none" stroke="midnightblue" d="M137.44,-112.49C141.09,-99.97 148.37,-75.94 156,-56 159.48,-46.9 163.82,-36.99 167.57,-28.79"/>
<polygon fill="midnightblue" stroke="midnightblue" points="170.84,-30.06 171.89,-19.51 164.5,-27.1 170.84,-30.06"/>
</g>
<!-- Node5 -->
<g id="node5" class="node">
<title>Node5</title>
<g id="a_node5"><a xlink:title=" ">
<polygon fill="white" stroke="#bfbfbf" points="258,-0.5 258,-19.5 344,-19.5 344,-0.5 258,-0.5"/>
<text text-anchor="middle" x="301" y="-7.5" font-family="Helvetica,sans-Serif" font-size="10.00">linux/netlink.h</text>
</a>
</g>
</g>
<!-- Node3&#45;&gt;Node5 -->
<g id="edge4" class="edge">
<title>Node3&#45;&gt;Node5</title>
<path fill="none" stroke="midnightblue" d="M140.94,-112.31C150.65,-98.69 171.11,-72.2 194,-56 214.59,-41.43 240.63,-30.35 261.86,-22.83"/>
<polygon fill="midnightblue" stroke="midnightblue" points="263.21,-26.06 271.55,-19.52 260.95,-19.44 263.21,-26.06"/>
</g>
<!-- Node6 -->
<g id="node6" class="node">
<title>Node6</title>
<g id="a_node6"><a xlink:href="wld__nl80211_8h.html" target="_top" xlink:title=" ">
<polygon fill="white" stroke="red" points="373.5,-0.5 373.5,-19.5 460.5,-19.5 460.5,-0.5 373.5,-0.5"/>
<text text-anchor="middle" x="417" y="-7.5" font-family="Helvetica,sans-Serif" font-size="10.00">wld_nl80211.h</text>
</a>
</g>
</g>
<!-- Node3&#45;&gt;Node6 -->
<g id="edge5" class="edge">
<title>Node3&#45;&gt;Node6</title>
<path fill="none" stroke="midnightblue" d="M146.17,-112.29C166.69,-96.42 209.89,-63.72 227,-56 251.04,-45.16 316.04,-30.87 363.33,-21.33"/>
<polygon fill="midnightblue" stroke="midnightblue" points="364.31,-24.71 373.43,-19.31 362.94,-17.84 364.31,-24.71"/>
</g>
<!-- Node3&#45;&gt;Node8 -->
<g id="edge6" class="edge">
<title>Node3&#45;&gt;Node8</title>
<path fill="none" stroke="midnightblue" d="M159.72,-112.44C185.85,-103.4 227.26,-89.06 256.58,-78.92"/>
<polygon fill="midnightblue" stroke="midnightblue" points="258.09,-82.1 266.4,-75.52 255.8,-75.48 258.09,-82.1"/>
</g>
<!-- Node3&#45;&gt;Node9 -->
<g id="edge7" class="edge">
<title>Node3&#45;&gt;Node9</title>
<path fill="none" stroke="midnightblue" d="M121.66,-112.32C108.84,-103.98 89.22,-91.21 74.06,-81.35"/>
<polygon fill="midnightblue" stroke="midnightblue" points="75.59,-78.17 65.3,-75.65 71.78,-84.04 75.59,-78.17"/>
</g>
<!-- Node11 -->
<g id="node10" class="node">
<title>Node11</title>
<g id="a_node10"><a xlink:title=" ">
<polygon fill="white" stroke="#bfbfbf" points="511.5,-112.5 511.5,-131.5 562.5,-131.5 562.5,-112.5 511.5,-112.5"/>
<text text-anchor="middle" x="537" y="-119.5" font-family="Helvetica,sans-Serif" font-size="10.00">errno.h</text>
</a>
</g>
</g>
<!-- Node10&#45;&gt;Node11 -->
<g id="edge9" class="edge">
<title>Node10&#45;&gt;Node11</title>
<path fill="none" stroke="midnightblue" d="M772.33,-168.49C722.54,-160.6 647.39,-147.97 572.62,-131.99"/>
<polygon fill="midnightblue" stroke="midnightblue" points="573.07,-128.51 562.56,-129.82 571.6,-135.35 573.07,-128.51"/>
</g>
<!-- Node12 -->
<g id="node11" class="node">
<title>Node12</title>
<g id="a_node11"><a xlink:title=" ">
<polygon fill="white" stroke="#bfbfbf" points="581,-112.5 581,-131.5 631,-131.5 631,-112.5 581,-112.5"/>
<text text-anchor="middle" x="606" y="-119.5" font-family="Helvetica,sans-Serif" font-size="10.00">net/if.h</text>
</a>
</g>
</g>
<!-- Node10&#45;&gt;Node12 -->
<g id="edge10" class="edge">
<title>Node10&#45;&gt;Node12</title>
<path fill="none" stroke="midnightblue" d="M791.19,-168.46C755.32,-160.08 698.98,-146.76 641.26,-132.28"/>
<polygon fill="midnightblue" stroke="midnightblue" points="641.79,-128.8 631.23,-129.75 640.08,-135.59 641.79,-128.8"/>
</g>
<!-- Node13 -->
<g id="node12" class="node">
<title>Node13</title>
<g id="a_node12"><a xlink:title=" ">
<polygon fill="white" stroke="#bfbfbf" points="246.5,-112.5 246.5,-131.5 323.5,-131.5 323.5,-112.5 246.5,-112.5"/>
<text text-anchor="middle" x="285" y="-119.5" font-family="Helvetica,sans-Serif" font-size="10.00">sys/socket.h</text>
</a>
</g>
</g>
<!-- Node10&#45;&gt;Node13 -->
<g id="edge11" class="edge">
<title>Node10&#45;&gt;Node13</title>
<path fill="none" stroke="midnightblue" d="M759.15,-172.91C665.21,-166.85 491.43,-153.93 334.02,-132.17"/>
<polygon fill="midnightblue" stroke="midnightblue" points="334.07,-128.64 323.68,-130.72 333.1,-135.57 334.07,-128.64"/>
</g>
<!-- Node14 -->
<g id="node13" class="node">
<title>Node14</title>
<g id="a_node13"><a xlink:href="wld__nl80211__compat_8h.html" target="_top" xlink:title=" ">
<polygon fill="white" stroke="red" points="364.5,-56.5 364.5,-75.5 493.5,-75.5 493.5,-56.5 364.5,-56.5"/>
<text text-anchor="middle" x="429" y="-63.5" font-family="Helvetica,sans-Serif" font-size="10.00">wld_nl80211_compat.h</text>
</a>
</g>
</g>
<!-- Node10&#45;&gt;Node14 -->
<g id="edge12" class="edge">
<title>Node10&#45;&gt;Node14</title>
<path fill="none" stroke="midnightblue" d="M759.43,-172.24C677.67,-165.75 546.48,-152.53 502,-132 477.82,-120.84 455.85,-98.94 442.47,-83.65"/>
<polygon fill="midnightblue" stroke="midnightblue" points="445.09,-81.33 435.96,-75.96 439.75,-85.85 445.09,-81.33"/>
</g>
<!-- Node20 -->
<g id="node14" class="node">
<title>Node20</title>
<g id="a_node14"><a xlink:href="wld__nl80211__core_8h.html" target="_top" xlink:title=" ">
<polygon fill="white" stroke="red" points="1160.5,-112.5 1160.5,-131.5 1273.5,-131.5 1273.5,-112.5 1160.5,-112.5"/>
<text text-anchor="middle" x="1217" y="-119.5" font-family="Helvetica,sans-Serif" font-size="10.00">wld_nl80211_core.h</text>
</a>
</g>
</g>
<!-- Node10&#45;&gt;Node20 -->
<g id="edge16" class="edge">
<title>Node10&#45;&gt;Node20</title>
<path fill="none" stroke="midnightblue" d="M889.64,-168.44C960.74,-158.57 1077.22,-142.4 1150.37,-132.25"/>
<polygon fill="midnightblue" stroke="midnightblue" points="1150.97,-135.7 1160.39,-130.86 1150.01,-128.77 1150.97,-135.7"/>
</g>
<!-- Node22 -->
<g id="node15" class="node">
<title>Node22</title>
<g id="a_node15"><a xlink:href="wld__nl80211__utils_8h.html" target="_top" xlink:title=" ">
<polygon fill="white" stroke="red" points="341.5,-112.5 341.5,-131.5 454.5,-131.5 454.5,-112.5 341.5,-112.5"/>
<text text-anchor="middle" x="398" y="-119.5" font-family="Helvetica,sans-Serif" font-size="10.00">wld_nl80211_utils.h</text>
</a>
</g>
</g>
<!-- Node10&#45;&gt;Node22 -->
<g id="edge17" class="edge">
<title>Node10&#45;&gt;Node22</title>
<path fill="none" stroke="midnightblue" d="M759.84,-168.49C687.63,-159.46 570.27,-144.77 469,-132 467.54,-131.82 466.06,-131.63 464.56,-131.44"/>
<polygon fill="midnightblue" stroke="midnightblue" points="464.94,-127.96 454.58,-130.18 464.06,-134.91 464.94,-127.96"/>
</g>
<!-- Node24 -->
<g id="node16" class="node">
<title>Node24</title>
<g id="a_node16"><a xlink:title=" ">
<polygon fill="white" stroke="#bfbfbf" points="1291.5,-112.5 1291.5,-131.5 1374.5,-131.5 1374.5,-112.5 1291.5,-112.5"/>
<text text-anchor="middle" x="1333" y="-119.5" font-family="Helvetica,sans-Serif" font-size="10.00">amxc/amxc.h</text>
</a>
</g>
</g>
<!-- Node10&#45;&gt;Node24 -->
<g id="edge20" class="edge">
<title>Node10&#45;&gt;Node24</title>
<path fill="none" stroke="midnightblue" d="M896.81,-171.91C984,-165.07 1139.11,-151.64 1281.1,-132.17"/>
<polygon fill="midnightblue" stroke="midnightblue" points="1281.87,-135.6 1291.3,-130.76 1280.91,-128.67 1281.87,-135.6"/>
</g>
<!-- Node25 -->
<g id="node17" class="node">
<title>Node25</title>
<g id="a_node17"><a xlink:title=" ">
<polygon fill="white" stroke="#bfbfbf" points="1393,-112.5 1393,-131.5 1477,-131.5 1477,-112.5 1393,-112.5"/>
<text text-anchor="middle" x="1435" y="-119.5" font-family="Helvetica,sans-Serif" font-size="10.00">amxp/amxp.h</text>
</a>
</g>
</g>
<!-- Node10&#45;&gt;Node25 -->
<g id="edge21" class="edge">
<title>Node10&#45;&gt;Node25</title>
<path fill="none" stroke="midnightblue" d="M896.69,-173.52C1000.01,-167.83 1201.72,-154.93 1382.77,-132.04"/>
<polygon fill="midnightblue" stroke="midnightblue" points="1383.27,-135.51 1392.75,-130.77 1382.38,-128.57 1383.27,-135.51"/>
</g>
<!-- Node26 -->
<g id="node18" class="node">
<title>Node26</title>
<g id="a_node18"><a xlink:title=" ">
<polygon fill="white" stroke="#bfbfbf" points="1495,-112.5 1495,-131.5 1635,-131.5 1635,-112.5 1495,-112.5"/>
<text text-anchor="middle" x="1565" y="-119.5" font-family="Helvetica,sans-Serif" font-size="10.00">amxd/amxd_parameter.h</text>
</a>
</g>
</g>
<!-- Node10&#45;&gt;Node26 -->
<g id="edge22" class="edge">
<title>Node10&#45;&gt;Node26</title>
<path fill="none" stroke="midnightblue" d="M896.76,-173.32C1014.76,-166.79 1263.66,-152.01 1484.64,-132.09"/>
<polygon fill="midnightblue" stroke="midnightblue" points="1485.16,-135.55 1494.81,-131.16 1484.53,-128.58 1485.16,-135.55"/>
</g>
<!-- Node27 -->
<g id="node19" class="node">
<title>Node27</title>
<g id="a_node19"><a xlink:title=" ">
<polygon fill="white" stroke="#bfbfbf" points="1653.5,-112.5 1653.5,-131.5 1772.5,-131.5 1772.5,-112.5 1653.5,-112.5"/>
<text text-anchor="middle" x="1713" y="-119.5" font-family="Helvetica,sans-Serif" font-size="10.00">amxd/amxd_action.h</text>
</a>
</g>
</g>
<!-- Node10&#45;&gt;Node27 -->
<g id="edge23" class="edge">
<title>Node10&#45;&gt;Node27</title>
<path fill="none" stroke="midnightblue" d="M896.64,-174.94C1035.5,-170.41 1359.91,-157.91 1643.13,-132.01"/>
<polygon fill="midnightblue" stroke="midnightblue" points="1643.55,-135.48 1653.19,-131.08 1642.91,-128.51 1643.55,-135.48"/>
</g>
<!-- Node28 -->
<g id="node20" class="node">
<title>Node28</title>
<g id="a_node20"><a xlink:title=" ">
<polygon fill="white" stroke="#bfbfbf" points="649.5,-112.5 649.5,-131.5 824.5,-131.5 824.5,-112.5 649.5,-112.5"/>
<text text-anchor="middle" x="737" y="-119.5" font-family="Helvetica,sans-Serif" font-size="10.00">amxd/amxd_object_parameter.h</text>
</a>
</g>
</g>
<!-- Node10&#45;&gt;Node28 -->
<g id="edge24" class="edge">
<title>Node10&#45;&gt;Node28</title>
<path fill="none" stroke="midnightblue" d="M813.38,-168.32C799.05,-159.82 776.99,-146.73 760.25,-136.8"/>
<polygon fill="midnightblue" stroke="midnightblue" points="761.97,-133.75 751.58,-131.65 758.4,-139.77 761.97,-133.75"/>
</g>
<!-- Node29 -->
<g id="node21" class="node">
<title>Node29</title>
<g id="a_node21"><a xlink:title=" ">
<polygon fill="white" stroke="#bfbfbf" points="843,-112.5 843,-131.5 995,-131.5 995,-112.5 843,-112.5"/>
<text text-anchor="middle" x="919" y="-119.5" font-family="Helvetica,sans-Serif" font-size="10.00">amxd/amxd_object_event.h</text>
</a>
</g>
</g>
<!-- Node10&#45;&gt;Node29 -->
<g id="edge25" class="edge">
<title>Node10&#45;&gt;Node29</title>
<path fill="none" stroke="midnightblue" d="M842.62,-168.32C856.95,-159.82 879.01,-146.73 895.75,-136.8"/>
<polygon fill="midnightblue" stroke="midnightblue" points="897.6,-139.77 904.42,-131.65 894.03,-133.75 897.6,-139.77"/>
</g>
<!-- Node30 -->
<g id="node22" class="node">
<title>Node30</title>
<g id="a_node22"><a xlink:title=" ">
<polygon fill="white" stroke="#bfbfbf" points="1013.5,-112.5 1013.5,-131.5 1142.5,-131.5 1142.5,-112.5 1013.5,-112.5"/>
<text text-anchor="middle" x="1078" y="-119.5" font-family="Helvetica,sans-Serif" font-size="10.00">amxd/amxd_function.h</text>
</a>
</g>
</g>
<!-- Node10&#45;&gt;Node30 -->
<g id="edge26" class="edge">
<title>Node10&#45;&gt;Node30</title>
<path fill="none" stroke="midnightblue" d="M867.61,-168.44C911.23,-159.02 981.4,-143.87 1028.58,-133.68"/>
<polygon fill="midnightblue" stroke="midnightblue" points="1029.54,-137.05 1038.57,-131.52 1028.06,-130.21 1029.54,-137.05"/>
</g>
<!-- Node14&#45;&gt;Node4 -->
<g id="edge13" class="edge">
<title>Node14&#45;&gt;Node4</title>
<path fill="none" stroke="midnightblue" d="M388.91,-56.44C344.68,-47 273.46,-31.8 225.72,-21.61"/>
<polygon fill="midnightblue" stroke="midnightblue" points="226.41,-18.18 215.9,-19.52 224.95,-25.03 226.41,-18.18"/>
</g>
<!-- Node14&#45;&gt;Node5 -->
<g id="edge14" class="edge">
<title>Node14&#45;&gt;Node5</title>
<path fill="none" stroke="midnightblue" d="M408.72,-56.44C387.65,-47.56 354.48,-33.56 330.51,-23.45"/>
<polygon fill="midnightblue" stroke="midnightblue" points="331.76,-20.18 321.19,-19.52 329.04,-26.63 331.76,-20.18"/>
</g>
<!-- Node14&#45;&gt;Node6 -->
<g id="edge15" class="edge">
<title>Node14&#45;&gt;Node6</title>
<path fill="none" stroke="midnightblue" d="M427.02,-56.08C425.43,-48.93 423.14,-38.64 421.15,-29.69"/>
<polygon fill="midnightblue" stroke="midnightblue" points="424.53,-28.75 418.94,-19.75 417.7,-30.27 424.53,-28.75"/>
</g>
<!-- Node22&#45;&gt;Node8 -->
<g id="edge19" class="edge">
<title>Node22&#45;&gt;Node8</title>
<path fill="none" stroke="midnightblue" d="M380.81,-112.32C363.65,-103.66 337.05,-90.24 317.25,-80.25"/>
<polygon fill="midnightblue" stroke="midnightblue" points="318.65,-77.04 308.15,-75.65 315.5,-83.28 318.65,-77.04"/>
</g>
<!-- Node22&#45;&gt;Node14 -->
<g id="edge18" class="edge">
<title>Node22&#45;&gt;Node14</title>
<path fill="none" stroke="midnightblue" d="M403.12,-112.08C407.41,-104.61 413.66,-93.72 418.94,-84.52"/>
<polygon fill="midnightblue" stroke="midnightblue" points="422.03,-86.17 423.98,-75.75 415.96,-82.68 422.03,-86.17"/>
</g>
<!-- Node32 -->
<g id="node24" class="node">
<title>Node32</title>
<g id="a_node24"><a xlink:title=" ">
<polygon fill="white" stroke="#bfbfbf" points="4054.5,-56.5 4054.5,-75.5 4107.5,-75.5 4107.5,-56.5 4054.5,-56.5"/>
<text text-anchor="middle" x="4081" y="-63.5" font-family="Helvetica,sans-Serif" font-size="10.00">stdint.h</text>
</a>
</g>
</g>
<!-- Node31&#45;&gt;Node32 -->
<g id="edge30" class="edge">
<title>Node31&#45;&gt;Node32</title>
<path fill="none" stroke="midnightblue" d="M4807.83,-224.31C4812,-201.82 4819.51,-141.35 4787,-112 4733.55,-63.75 4227.13,-85.47 4117.71,-75.45"/>
<polygon fill="midnightblue" stroke="midnightblue" points="4117.96,-71.95 4107.62,-74.26 4117.14,-78.9 4117.96,-71.95"/>
</g>
<!-- Node33 -->
<g id="node25" class="node">
<title>Node33</title>
<g id="a_node25"><a xlink:href="wld_8h.html" target="_top" xlink:title=" ">
<polygon fill="white" stroke="red" points="2938.5,-168.5 2938.5,-187.5 2981.5,-187.5 2981.5,-168.5 2938.5,-168.5"/>
<text text-anchor="middle" x="2960" y="-175.5" font-family="Helvetica,sans-Serif" font-size="10.00">wld.h</text>
</a>
</g>
</g>
<!-- Node31&#45;&gt;Node33 -->
<g id="edge31" class="edge">
<title>Node31&#45;&gt;Node33</title>
<path fill="none" stroke="midnightblue" d="M4746.41,-231.26C4457.49,-222.81 3207.54,-186.24 2991.78,-179.93"/>
<polygon fill="midnightblue" stroke="midnightblue" points="2991.85,-176.43 2981.75,-179.64 2991.64,-183.43 2991.85,-176.43"/>
</g>
<!-- Node88 -->
<g id="node49" class="node">
<title>Node88</title>
<g id="a_node49"><a xlink:title=" ">
<polygon fill="white" stroke="#bfbfbf" points="4834,-168.5 4834,-187.5 4980,-187.5 4980,-168.5 4834,-168.5"/>
<text text-anchor="middle" x="4907" y="-175.5" font-family="Helvetica,sans-Serif" font-size="10.00">swl/swl_common_trilean.h</text>
</a>
</g>
</g>
<!-- Node31&#45;&gt;Node88 -->
<g id="edge69" class="edge">
<title>Node31&#45;&gt;Node88</title>
<path fill="none" stroke="midnightblue" d="M4822.23,-224.32C4838.35,-215.7 4863.3,-202.36 4881.96,-192.39"/>
<polygon fill="midnightblue" stroke="midnightblue" points="4883.64,-195.46 4890.81,-187.65 4880.34,-189.28 4883.64,-195.46"/>
</g>
<!-- Node95 -->
<g id="node50" class="node">
<title>Node95</title>
<g id="a_node50"><a xlink:title=" ">
<polygon fill="white" stroke="#bfbfbf" points="4998.5,-168.5 4998.5,-187.5 5133.5,-187.5 5133.5,-168.5 4998.5,-168.5"/>
<text text-anchor="middle" x="5066" y="-175.5" font-family="Helvetica,sans-Serif" font-size="10.00">swl/swl_common_mcs.h</text>
</a>
</g>
</g>
<!-- Node31&#45;&gt;Node95 -->
<g id="edge70" class="edge">
<title>Node31&#45;&gt;Node95</title>
<path fill="none" stroke="midnightblue" d="M4847.2,-224.44C4892.65,-215 4965.84,-199.8 5014.91,-189.61"/>
<polygon fill="midnightblue" stroke="midnightblue" points="5015.92,-192.98 5024.99,-187.52 5014.49,-186.12 5015.92,-192.98"/>
</g>
<!-- Node33&#45;&gt;Node8 -->
<g id="edge34" class="edge">
<title>Node33&#45;&gt;Node8</title>
<path fill="none" stroke="midnightblue" d="M2954.89,-168.16C2945.71,-153.29 2924.87,-123.73 2898,-112 2770.85,-56.5 577.29,-85.75 356.28,-75.79"/>
<polygon fill="midnightblue" stroke="midnightblue" points="356.3,-72.28 346.11,-75.2 355.89,-79.27 356.3,-72.28"/>
</g>
<!-- Node33&#45;&gt;Node20 -->
<g id="edge68" class="edge">
<title>Node33&#45;&gt;Node20</title>
<path fill="none" stroke="midnightblue" d="M2938.27,-176.74C2768.14,-174.68 1647.34,-160.2 1283.85,-131.95"/>
<polygon fill="midnightblue" stroke="midnightblue" points="1284.09,-128.46 1273.84,-131.15 1283.53,-135.43 1284.09,-128.46"/>
</g>
<!-- Node33&#45;&gt;Node24 -->
<g id="edge46" class="edge">
<title>Node33&#45;&gt;Node24</title>
<path fill="none" stroke="midnightblue" d="M2938.27,-176.82C2774.1,-175.37 1726.43,-164.96 1384.82,-131.88"/>
<polygon fill="midnightblue" stroke="midnightblue" points="1384.98,-128.37 1374.68,-130.87 1384.28,-135.34 1384.98,-128.37"/>
</g>
<!-- Node33&#45;&gt;Node25 -->
<g id="edge47" class="edge">
<title>Node33&#45;&gt;Node25</title>
<path fill="none" stroke="midnightblue" d="M2938.42,-176.77C2781.01,-175.02 1806.82,-163.1 1487.41,-131.96"/>
<polygon fill="midnightblue" stroke="midnightblue" points="1487.53,-128.45 1477.23,-130.94 1486.84,-135.42 1487.53,-128.45"/>
</g>
<!-- Node33&#45;&gt;Node26 -->
<g id="edge48" class="edge">
<title>Node33&#45;&gt;Node26</title>
<path fill="none" stroke="midnightblue" d="M2938.28,-176.89C2813.69,-176.12 2177.14,-170.45 1645.39,-131.95"/>
<polygon fill="midnightblue" stroke="midnightblue" points="1645.44,-128.45 1635.21,-131.21 1644.93,-135.43 1645.44,-128.45"/>
</g>
<!-- Node33&#45;&gt;Node27 -->
<g id="edge49" class="edge">
<title>Node33&#45;&gt;Node27</title>
<path fill="none" stroke="midnightblue" d="M2938.27,-176.91C2821.46,-176.28 2256.09,-171.28 1782.91,-131.99"/>
<polygon fill="midnightblue" stroke="midnightblue" points="1783.06,-128.49 1772.8,-131.14 1782.48,-135.46 1783.06,-128.49"/>
</g>
<!-- Node33&#45;&gt;Node28 -->
<g id="edge50" class="edge">
<title>Node33&#45;&gt;Node28</title>
<path fill="none" stroke="midnightblue" d="M2938.25,-177.13C2773.94,-177.98 1710.83,-181.39 835.04,-132.01"/>
<polygon fill="midnightblue" stroke="midnightblue" points="834.93,-128.5 824.75,-131.42 834.53,-135.48 834.93,-128.5"/>
</g>
<!-- Node33&#45;&gt;Node29 -->
<g id="edge51" class="edge">
<title>Node33&#45;&gt;Node29</title>
<path fill="none" stroke="midnightblue" d="M2938.27,-177.17C2781.61,-178.25 1808.49,-182.65 1005.44,-131.96"/>
<polygon fill="midnightblue" stroke="midnightblue" points="1005.61,-128.46 995.41,-131.32 1005.16,-135.45 1005.61,-128.46"/>
</g>
<!-- Node33&#45;&gt;Node30 -->
<g id="edge52" class="edge">
<title>Node33&#45;&gt;Node30</title>
<path fill="none" stroke="midnightblue" d="M2938.3,-176.75C2760.84,-174.65 1545.12,-159.42 1152.78,-131.95"/>
<polygon fill="midnightblue" stroke="midnightblue" points="1152.76,-128.44 1142.54,-131.22 1152.26,-135.43 1152.76,-128.44"/>
</g>
<!-- Node33&#45;&gt;Node32 -->
<g id="edge33" class="edge">
<title>Node33&#45;&gt;Node32</title>
<path fill="none" stroke="midnightblue" d="M2981.55,-176.97C3122.73,-176.64 3912.83,-172.99 4011,-132 4035.05,-121.96 4055.95,-99.75 4068.51,-84.1"/>
<polygon fill="midnightblue" stroke="midnightblue" points="4071.58,-85.84 4074.9,-75.78 4066.03,-81.58 4071.58,-85.84"/>
</g>
<!-- Node34 -->
<g id="node26" class="node">
<title>Node34</title>
<g id="a_node26"><a xlink:title=" ">
<polygon fill="white" stroke="#bfbfbf" points="4283,-56.5 4283,-75.5 4345,-75.5 4345,-56.5 4283,-56.5"/>
<text text-anchor="middle" x="4314" y="-63.5" font-family="Helvetica,sans-Serif" font-size="10.00">stdbool.h</text>
</a>
</g>
</g>
<!-- Node33&#45;&gt;Node34 -->
<g id="edge32" class="edge">
<title>Node33&#45;&gt;Node34</title>
<path fill="none" stroke="midnightblue" d="M2981.61,-177.13C3151.76,-178.05 4270.48,-182.16 4319,-132 4330.78,-119.83 4327.08,-99.67 4321.97,-85.02"/>
<polygon fill="midnightblue" stroke="midnightblue" points="4325.14,-83.53 4318.2,-75.53 4318.63,-86.11 4325.14,-83.53"/>
</g>
<!-- Node35 -->
<g id="node27" class="node">
<title>Node35</title>
<g id="a_node27"><a xlink:title=" ">
<polygon fill="white" stroke="#bfbfbf" points="4366,-112.5 4366,-131.5 4502,-131.5 4502,-112.5 4366,-112.5"/>
<text text-anchor="middle" x="4434" y="-119.5" font-family="Helvetica,sans-Serif" font-size="10.00">swla/swla_commonLib.h</text>
</a>
</g>
</g>
<!-- Node33&#45;&gt;Node35 -->
<g id="edge35" class="edge">
<title>Node33&#45;&gt;Node35</title>
<path fill="none" stroke="midnightblue" d="M2981.71,-176.93C3111.27,-176.35 3795.46,-171.48 4352,-132 4353.11,-131.92 4354.22,-131.84 4355.34,-131.75"/>
<polygon fill="midnightblue" stroke="midnightblue" points="4355.9,-135.22 4365.58,-130.91 4355.32,-128.24 4355.9,-135.22"/>
</g>
<!-- Node36 -->
<g id="node28" class="node">
<title>Node36</title>
<g id="a_node28"><a xlink:title=" ">
<polygon fill="white" stroke="#bfbfbf" points="4520,-112.5 4520,-131.5 4608,-131.5 4608,-112.5 4520,-112.5"/>
<text text-anchor="middle" x="4564" y="-119.5" font-family="Helvetica,sans-Serif" font-size="10.00">swl/swl_uuid.h</text>
</a>
</g>
</g>
<!-- Node33&#45;&gt;Node36 -->
<g id="edge36" class="edge">
<title>Node33&#45;&gt;Node36</title>
<path fill="none" stroke="midnightblue" d="M2981.65,-176.79C3144,-175.13 4173.58,-163.5 4509.6,-131.96"/>
<polygon fill="midnightblue" stroke="midnightblue" points="4510.2,-135.42 4519.82,-130.98 4509.53,-128.45 4510.2,-135.42"/>
</g>
<!-- Node37 -->
<g id="node29" class="node">
<title>Node37</title>
<g id="a_node29"><a xlink:title=" ">
<polygon fill="white" stroke="#bfbfbf" points="4626,-112.5 4626,-131.5 4778,-131.5 4778,-112.5 4626,-112.5"/>
<text text-anchor="middle" x="4702" y="-119.5" font-family="Helvetica,sans-Serif" font-size="10.00">swla/swla_radioStandards.h</text>
</a>
</g>
</g>
<!-- Node33&#45;&gt;Node37 -->
<g id="edge37" class="edge">
<title>Node33&#45;&gt;Node37</title>
<path fill="none" stroke="midnightblue" d="M2981.52,-177.05C3123.42,-177.26 3939.52,-176.45 4615.13,-132.07"/>
<polygon fill="midnightblue" stroke="midnightblue" points="4615.82,-135.53 4625.57,-131.38 4615.36,-128.55 4615.82,-135.53"/>
</g>
<!-- Node38 -->
<g id="node30" class="node">
<title>Node38</title>
<g id="a_node30"><a xlink:title=" ">
<polygon fill="white" stroke="#bfbfbf" points="4125.5,-56.5 4125.5,-75.5 4226.5,-75.5 4226.5,-56.5 4125.5,-56.5"/>
<text text-anchor="middle" x="4176" y="-63.5" font-family="Helvetica,sans-Serif" font-size="10.00">swla/swla_time.h</text>
</a>
</g>
</g>
<!-- Node33&#45;&gt;Node38 -->
<g id="edge38" class="edge">
<title>Node33&#45;&gt;Node38</title>
<path fill="none" stroke="midnightblue" d="M2981.55,-176.8C3137.78,-175.26 4092.15,-164.56 4143,-132 4159.12,-121.68 4167.72,-100.86 4172.05,-85.55"/>
<polygon fill="midnightblue" stroke="midnightblue" points="4175.5,-86.15 4174.49,-75.61 4168.7,-84.48 4175.5,-86.15"/>
</g>
<!-- Node39 -->
<g id="node31" class="node">
<title>Node39</title>
<g id="a_node31"><a xlink:title=" ">
<polygon fill="white" stroke="#bfbfbf" points="1790.5,-112.5 1790.5,-131.5 1919.5,-131.5 1919.5,-112.5 1790.5,-112.5"/>
<text text-anchor="middle" x="1855" y="-119.5" font-family="Helvetica,sans-Serif" font-size="10.00">swla/swla_time_spec.h</text>
</a>
</g>
</g>
<!-- Node33&#45;&gt;Node39 -->
<g id="edge39" class="edge">
<title>Node33&#45;&gt;Node39</title>
<path fill="none" stroke="midnightblue" d="M2938.19,-176.67C2830.16,-174.93 2341.4,-165.52 1929.56,-131.97"/>
<polygon fill="midnightblue" stroke="midnightblue" points="1929.8,-128.48 1919.54,-131.15 1929.22,-135.45 1929.8,-128.48"/>
</g>
<!-- Node40 -->
<g id="node32" class="node">
<title>Node40</title>
<g id="a_node32"><a xlink:title=" ">
<polygon fill="white" stroke="#bfbfbf" points="1938,-112.5 1938,-131.5 2032,-131.5 2032,-112.5 1938,-112.5"/>
<text text-anchor="middle" x="1985" y="-119.5" font-family="Helvetica,sans-Serif" font-size="10.00">swla/swla_oui.h</text>
</a>
</g>
</g>
<!-- Node33&#45;&gt;Node40 -->
<g id="edge40" class="edge">
<title>Node33&#45;&gt;Node40</title>
<path fill="none" stroke="midnightblue" d="M2938.22,-176.82C2837.45,-175.81 2406.18,-169.44 2042.21,-132"/>
<polygon fill="midnightblue" stroke="midnightblue" points="2042.31,-128.49 2032,-130.94 2041.59,-135.45 2042.31,-128.49"/>
</g>
<!-- Node41 -->
<g id="node33" class="node">
<title>Node41</title>
<g id="a_node33"><a xlink:title=" ">
<polygon fill="white" stroke="#bfbfbf" points="2050,-112.5 2050,-131.5 2178,-131.5 2178,-112.5 2050,-112.5"/>
<text text-anchor="middle" x="2114" y="-119.5" font-family="Helvetica,sans-Serif" font-size="10.00">swla/swla_delayExec.h</text>
</a>
</g>
</g>
<!-- Node33&#45;&gt;Node41 -->
<g id="edge41" class="edge">
<title>Node33&#45;&gt;Node41</title>
<path fill="none" stroke="midnightblue" d="M2938.47,-176.24C2848.43,-172.96 2492.96,-159 2188.5,-131.98"/>
<polygon fill="midnightblue" stroke="midnightblue" points="2188.42,-128.46 2178.15,-131.05 2187.8,-135.43 2188.42,-128.46"/>
</g>
<!-- Node42 -->
<g id="node34" class="node">
<title>Node42</title>
<g id="a_node34"><a xlink:title=" ">
<polygon fill="white" stroke="#bfbfbf" points="2196.5,-112.5 2196.5,-131.5 2315.5,-131.5 2315.5,-112.5 2196.5,-112.5"/>
<text text-anchor="middle" x="2256" y="-119.5" font-family="Helvetica,sans-Serif" font-size="10.00">swla/swla_function.h</text>
</a>
</g>
</g>
<!-- Node33&#45;&gt;Node42 -->
<g id="edge42" class="edge">
<title>Node33&#45;&gt;Node42</title>
<path fill="none" stroke="midnightblue" d="M2938.3,-175.93C2858.42,-171.88 2572.95,-156.56 2326.06,-132.05"/>
<polygon fill="midnightblue" stroke="midnightblue" points="2326.11,-128.53 2315.81,-131.02 2325.42,-135.5 2326.11,-128.53"/>
</g>
<!-- Node43 -->
<g id="node35" class="node">
<title>Node43</title>
<g id="a_node35"><a xlink:title=" ">
<polygon fill="white" stroke="#bfbfbf" points="2333.5,-112.5 2333.5,-131.5 2474.5,-131.5 2474.5,-112.5 2333.5,-112.5"/>
<text text-anchor="middle" x="2404" y="-119.5" font-family="Helvetica,sans-Serif" font-size="10.00">swl/swl_usp_cmdStatus.h</text>
</a>
</g>
</g>
<!-- Node33&#45;&gt;Node43 -->
<g id="edge43" class="edge">
<title>Node33&#45;&gt;Node43</title>
<path fill="none" stroke="midnightblue" d="M2938.16,-175.07C2871.83,-169.2 2666.64,-150.8 2484.68,-132.05"/>
<polygon fill="midnightblue" stroke="midnightblue" points="2484.97,-128.56 2474.66,-131.02 2484.25,-135.53 2484.97,-128.56"/>
</g>
<!-- Node44 -->
<g id="node36" class="node">
<title>Node44</title>
<g id="a_node36"><a xlink:title=" ">
<polygon fill="white" stroke="#bfbfbf" points="2493,-112.5 2493,-131.5 2579,-131.5 2579,-112.5 2493,-112.5"/>
<text text-anchor="middle" x="2536" y="-119.5" font-family="Helvetica,sans-Serif" font-size="10.00">swl/swl_wps.h</text>
</a>
</g>
</g>
<!-- Node33&#45;&gt;Node44 -->
<g id="edge44" class="edge">
<title>Node33&#45;&gt;Node44</title>
<path fill="none" stroke="midnightblue" d="M2938.14,-174.75C2882.02,-168.89 2728.04,-152.28 2589.08,-132.09"/>
<polygon fill="midnightblue" stroke="midnightblue" points="2589.5,-128.62 2579.1,-130.63 2588.49,-135.55 2589.5,-128.62"/>
</g>
<!-- Node45 -->
<g id="node37" class="node">
<title>Node45</title>
<g id="a_node37"><a xlink:title=" ">
<polygon fill="white" stroke="#bfbfbf" points="2597,-112.5 2597,-131.5 2701,-131.5 2701,-112.5 2597,-112.5"/>
<text text-anchor="middle" x="2649" y="-119.5" font-family="Helvetica,sans-Serif" font-size="10.00">swl/swl_security.h</text>
</a>
</g>
</g>
<!-- Node33&#45;&gt;Node45 -->
<g id="edge45" class="edge">
<title>Node33&#45;&gt;Node45</title>
<path fill="none" stroke="midnightblue" d="M2938.13,-173.2C2890.89,-165 2777.93,-145.39 2708.01,-133.25"/>
<polygon fill="midnightblue" stroke="midnightblue" points="2708.47,-129.77 2698.02,-131.51 2707.27,-136.67 2708.47,-129.77"/>
</g>
<!-- Node46 -->
<g id="node38" class="node">
<title>Node46</title>
<g id="a_node38"><a xlink:title=" ">
<polygon fill="white" stroke="#bfbfbf" points="2719.5,-112.5 2719.5,-131.5 2888.5,-131.5 2888.5,-112.5 2719.5,-112.5"/>
<text text-anchor="middle" x="2804" y="-119.5" font-family="Helvetica,sans-Serif" font-size="10.00">amxd/amxd_object_hierarchy.h</text>
</a>
</g>
</g>
<!-- Node33&#45;&gt;Node46 -->
<g id="edge53" class="edge">
<title>Node33&#45;&gt;Node46</title>
<path fill="none" stroke="midnightblue" d="M2938.31,-169.49C2912.43,-160.53 2868.86,-145.45 2838.38,-134.9"/>
<polygon fill="midnightblue" stroke="midnightblue" points="2839.18,-131.48 2828.59,-131.51 2836.89,-138.09 2839.18,-131.48"/>
</g>
<!-- Node47 -->
<g id="node39" class="node">
<title>Node47</title>
<g id="a_node39"><a xlink:title=" ">
<polygon fill="white" stroke="#bfbfbf" points="2944.5,-112.5 2944.5,-131.5 3063.5,-131.5 3063.5,-112.5 2944.5,-112.5"/>
<text text-anchor="middle" x="3004" y="-119.5" font-family="Helvetica,sans-Serif" font-size="10.00">amxd/amxd_object.h</text>
</a>
</g>
</g>
<!-- Node33&#45;&gt;Node47 -->
<g id="edge54" class="edge">
<title>Node33&#45;&gt;Node47</title>
<path fill="none" stroke="midnightblue" d="M2967.27,-168.08C2973.54,-160.38 2982.79,-149.03 2990.43,-139.65"/>
<polygon fill="midnightblue" stroke="midnightblue" points="2993.27,-141.71 2996.87,-131.75 2987.84,-137.29 2993.27,-141.71"/>
</g>
<!-- Node48 -->
<g id="node40" class="node">
<title>Node48</title>
<g id="a_node40"><a xlink:title=" ">
<polygon fill="white" stroke="#bfbfbf" points="3081.5,-112.5 3081.5,-131.5 3186.5,-131.5 3186.5,-112.5 3081.5,-112.5"/>
<text text-anchor="middle" x="3134" y="-119.5" font-family="Helvetica,sans-Serif" font-size="10.00">amxd/amxd_dm.h</text>
</a>
</g>
</g>
<!-- Node33&#45;&gt;Node48 -->
<g id="edge55" class="edge">
<title>Node33&#45;&gt;Node48</title>
<path fill="none" stroke="midnightblue" d="M2981.69,-170.27C3010.46,-161.34 3061.69,-145.44 3096.72,-134.57"/>
<polygon fill="midnightblue" stroke="midnightblue" points="3098.08,-137.81 3106.59,-131.51 3096,-131.13 3098.08,-137.81"/>
</g>
<!-- Node49 -->
<g id="node41" class="node">
<title>Node49</title>
<g id="a_node41"><a xlink:title=" ">
<polygon fill="white" stroke="#bfbfbf" points="3205,-112.5 3205,-131.5 3349,-131.5 3349,-112.5 3205,-112.5"/>
<text text-anchor="middle" x="3277" y="-119.5" font-family="Helvetica,sans-Serif" font-size="10.00">amxd/amxd_transaction.h</text>
</a>
</g>
</g>
<!-- Node33&#45;&gt;Node49 -->
<g id="edge56" class="edge">
<title>Node33&#45;&gt;Node49</title>
<path fill="none" stroke="midnightblue" d="M2981.79,-173.29C3029.59,-165.15 3145.07,-145.47 3216.61,-133.29"/>
<polygon fill="midnightblue" stroke="midnightblue" points="3217.56,-136.68 3226.83,-131.55 3216.38,-129.78 3217.56,-136.68"/>
</g>
<!-- Node50 -->
<g id="node42" class="node">
<title>Node50</title>
<g id="a_node42"><a xlink:title=" ">
<polygon fill="white" stroke="#bfbfbf" points="3367,-112.5 3367,-131.5 3483,-131.5 3483,-112.5 3367,-112.5"/>
<text text-anchor="middle" x="3425" y="-119.5" font-family="Helvetica,sans-Serif" font-size="10.00">amxb/amxb_types.h</text>
</a>
</g>
</g>
<!-- Node33&#45;&gt;Node50 -->
<g id="edge57" class="edge">
<title>Node33&#45;&gt;Node50</title>
<path fill="none" stroke="midnightblue" d="M2981.59,-174.72C3040.08,-168.51 3206.74,-150.58 3356.6,-132.15"/>
<polygon fill="midnightblue" stroke="midnightblue" points="3357.41,-135.58 3366.9,-130.88 3356.55,-128.63 3357.41,-135.58"/>
</g>
<!-- Node51 -->
<g id="node43" class="node">
<title>Node51</title>
<g id="a_node43"><a xlink:title=" ">
<polygon fill="white" stroke="#bfbfbf" points="3501,-112.5 3501,-131.5 3637,-131.5 3637,-112.5 3501,-112.5"/>
<text text-anchor="middle" x="3569" y="-119.5" font-family="Helvetica,sans-Serif" font-size="10.00">amxb/amxb_operators.h</text>
</a>
</g>
</g>
<!-- Node33&#45;&gt;Node51 -->
<g id="edge58" class="edge">
<title>Node33&#45;&gt;Node51</title>
<path fill="none" stroke="midnightblue" d="M2981.56,-175.43C3052.64,-170.18 3286.25,-152.53 3490.96,-132.08"/>
<polygon fill="midnightblue" stroke="midnightblue" points="3491.39,-135.55 3500.99,-131.07 3490.69,-128.58 3491.39,-135.55"/>
</g>
<!-- Node52 -->
<g id="node44" class="node">
<title>Node52</title>
<g id="a_node44"><a xlink:title=" ">
<polygon fill="white" stroke="#bfbfbf" points="3655,-112.5 3655,-131.5 3767,-131.5 3767,-112.5 3655,-112.5"/>
<text text-anchor="middle" x="3711" y="-119.5" font-family="Helvetica,sans-Serif" font-size="10.00">amxb/amxb_error.h</text>
</a>
</g>
</g>
<!-- Node33&#45;&gt;Node52 -->
<g id="edge59" class="edge">
<title>Node33&#45;&gt;Node52</title>
<path fill="none" stroke="midnightblue" d="M2981.67,-176.15C3065.55,-172.73 3377.02,-158.94 3644.37,-132.1"/>
<polygon fill="midnightblue" stroke="midnightblue" points="3645.06,-135.54 3654.66,-131.05 3644.36,-128.58 3645.06,-135.54"/>
</g>
<!-- Node53 -->
<g id="node45" class="node">
<title>Node53</title>
<g id="a_node45"><a xlink:title=" ">
<polygon fill="white" stroke="#bfbfbf" points="3785.5,-112.5 3785.5,-131.5 3868.5,-131.5 3868.5,-112.5 3785.5,-112.5"/>
<text text-anchor="middle" x="3827" y="-119.5" font-family="Helvetica,sans-Serif" font-size="10.00">amxo/amxo.h</text>
</a>
</g>
</g>
<!-- Node33&#45;&gt;Node53 -->
<g id="edge60" class="edge">
<title>Node33&#45;&gt;Node53</title>
<path fill="none" stroke="midnightblue" d="M2981.51,-176.76C3074.82,-175.51 3453.81,-168.42 3775.34,-131.92"/>
<polygon fill="midnightblue" stroke="midnightblue" points="3775.77,-135.39 3785.31,-130.78 3774.98,-128.44 3775.77,-135.39"/>
</g>
<!-- Node54 -->
<g id="node46" class="node">
<title>Node54</title>
<g id="a_node46"><a xlink:title=" ">
<polygon fill="white" stroke="#bfbfbf" points="3886.5,-112.5 3886.5,-131.5 4001.5,-131.5 4001.5,-112.5 3886.5,-112.5"/>
<text text-anchor="middle" x="3944" y="-119.5" font-family="Helvetica,sans-Serif" font-size="10.00">amxo/amxo_types.h</text>
</a>
</g>
</g>
<!-- Node33&#45;&gt;Node54 -->
<g id="edge61" class="edge">
<title>Node33&#45;&gt;Node54</title>
<path fill="none" stroke="midnightblue" d="M2981.73,-176.63C3082.32,-174.77 3512.81,-165.22 3876.25,-132.08"/>
<polygon fill="midnightblue" stroke="midnightblue" points="3876.8,-135.55 3886.44,-131.15 3876.16,-128.58 3876.8,-135.55"/>
</g>
<!-- Node55 -->
<g id="node47" class="node">
<title>Node55</title>
<g id="a_node47"><a xlink:href="wld__types_8h.html" target="_top" xlink:title=" ">
<polygon fill="white" stroke="red" points="4058.5,-112.5 4058.5,-131.5 4133.5,-131.5 4133.5,-112.5 4058.5,-112.5"/>
<text text-anchor="middle" x="4096" y="-119.5" font-family="Helvetica,sans-Serif" font-size="10.00">wld_types.h</text>
</a>
</g>
</g>
<!-- Node33&#45;&gt;Node55 -->
<g id="edge62" class="edge">
<title>Node33&#45;&gt;Node55</title>
<path fill="none" stroke="midnightblue" d="M2981.84,-177.15C3094.21,-177.67 3618.38,-177.47 4044,-132 4045.31,-131.86 4046.63,-131.71 4047.96,-131.55"/>
<polygon fill="midnightblue" stroke="midnightblue" points="4048.88,-134.95 4058.31,-130.12 4047.92,-128.02 4048.88,-134.95"/>
</g>
<!-- Node58 -->
<g id="node48" class="node">
<title>Node58</title>
<g id="a_node48"><a xlink:href="wld__channel__types_8h.html" target="_top" xlink:title=" ">
<polygon fill="white" stroke="red" points="4190.5,-112.5 4190.5,-131.5 4309.5,-131.5 4309.5,-112.5 4190.5,-112.5"/>
<text text-anchor="middle" x="4250" y="-119.5" font-family="Helvetica,sans-Serif" font-size="10.00">wld_channel_types.h</text>
</a>
</g>
</g>
<!-- Node33&#45;&gt;Node58 -->
<g id="edge65" class="edge">
<title>Node33&#45;&gt;Node58</title>
<path fill="none" stroke="midnightblue" d="M2981.63,-176.88C3101.25,-176.06 3693.73,-170.18 4176,-132 4177.31,-131.9 4178.62,-131.79 4179.95,-131.67"/>
<polygon fill="midnightblue" stroke="midnightblue" points="4180.64,-135.12 4190.27,-130.7 4179.98,-128.15 4180.64,-135.12"/>
</g>
<!-- Node55&#45;&gt;Node32 -->
<g id="edge63" class="edge">
<title>Node55&#45;&gt;Node32</title>
<path fill="none" stroke="midnightblue" d="M4093.52,-112.08C4091.51,-104.85 4088.61,-94.41 4086.11,-85.4"/>
<polygon fill="midnightblue" stroke="midnightblue" points="4089.48,-84.45 4083.43,-75.75 4082.74,-86.32 4089.48,-84.45"/>
</g>
<!-- Node55&#45;&gt;Node38 -->
<g id="edge64" class="edge">
<title>Node55&#45;&gt;Node38</title>
<path fill="none" stroke="midnightblue" d="M4108.85,-112.32C4121.22,-103.98 4140.13,-91.21 4154.74,-81.35"/>
<polygon fill="midnightblue" stroke="midnightblue" points="4156.85,-84.15 4163.18,-75.65 4152.93,-78.35 4156.85,-84.15"/>
</g>
<!-- Node58&#45;&gt;Node34 -->
<g id="edge66" class="edge">
<title>Node58&#45;&gt;Node34</title>
<path fill="none" stroke="midnightblue" d="M4260.28,-112.32C4269.84,-104.26 4284.28,-92.08 4295.78,-82.37"/>
<polygon fill="midnightblue" stroke="midnightblue" points="4298.14,-84.96 4303.53,-75.83 4293.63,-79.61 4298.14,-84.96"/>
</g>
<!-- Node58&#45;&gt;Node38 -->
<g id="edge67" class="edge">
<title>Node58&#45;&gt;Node38</title>
<path fill="none" stroke="midnightblue" d="M4238.11,-112.32C4226.85,-104.11 4209.71,-91.6 4196.29,-81.81"/>
<polygon fill="midnightblue" stroke="midnightblue" points="4198.25,-78.9 4188.11,-75.83 4194.12,-84.56 4198.25,-78.9"/>
</g>
</g>
</svg>
