<?xml version="1.0" encoding="UTF-8" standalone="no"?>
<!DOCTYPE svg PUBLIC "-//W3C//DTD SVG 1.1//EN"
 "http://www.w3.org/Graphics/SVG/1.1/DTD/svg11.dtd">
<!-- Generated by graphviz version 2.43.0 (0)
 -->
<!-- Title: wld_getWanAddr Pages: 1 -->
<svg width="743pt" height="78pt"
 viewBox="0.00 0.00 743.00 77.50" xmlns="http://www.w3.org/2000/svg" xmlns:xlink="http://www.w3.org/1999/xlink">
<g id="graph0" class="graph" transform="scale(1 1) rotate(0) translate(4 73.5)">
<title>wld_getWanAddr</title>
<polygon fill="white" stroke="transparent" points="-4,4 -4,-73.5 739,-73.5 739,4 -4,4"/>
<!-- Node1 -->
<g id="node1" class="node">
<title>Node1</title>
<g id="a_node1"><a xlink:title=" ">
<polygon fill="#bfbfbf" stroke="black" points="637,-28 637,-47 735,-47 735,-28 637,-28"/>
<text text-anchor="middle" x="686" y="-35" font-family="Helvetica,sans-Serif" font-size="10.00">wld_getWanAddr</text>
</a>
</g>
</g>
<!-- Node2 -->
<g id="node2" class="node">
<title>Node2</title>
<g id="a_node2"><a xlink:href="wld_8c.html#aa594419f980dc714f2766d479c23b1e6" target="_top" xlink:title=" ">
<polygon fill="white" stroke="black" points="460,-50 460,-69 587,-69 587,-50 460,-50"/>
<text text-anchor="middle" x="523.5" y="-57" font-family="Helvetica,sans-Serif" font-size="10.00">wld_initRadioBaseMac</text>
</a>
</g>
</g>
<!-- Node1&#45;&gt;Node2 -->
<g id="edge1" class="edge">
<title>Node1&#45;&gt;Node2</title>
<path fill="none" stroke="midnightblue" d="M626.74,-45.49C613.89,-47.25 600.22,-49.12 587.19,-50.91"/>
<polygon fill="midnightblue" stroke="midnightblue" points="627.41,-48.93 636.84,-44.1 626.46,-41.99 627.41,-48.93"/>
</g>
<!-- Node6 -->
<g id="node6" class="node">
<title>Node6</title>
<g id="a_node6"><a xlink:href="wld__rad__macCfg_8c.html#a849fc81d40b656b38d9ff3811c068fee" target="_top" xlink:title=" ">
<polygon fill="white" stroke="black" points="446,-0.5 446,-30.5 601,-30.5 601,-0.5 446,-0.5"/>
<text text-anchor="start" x="454" y="-18.5" font-family="Helvetica,sans-Serif" font-size="10.00">wld_rad_macCfg_updateRad</text>
<text text-anchor="middle" x="523.5" y="-7.5" font-family="Helvetica,sans-Serif" font-size="10.00">BaseMac</text>
</a>
</g>
</g>
<!-- Node1&#45;&gt;Node6 -->
<g id="edge5" class="edge">
<title>Node1&#45;&gt;Node6</title>
<path fill="none" stroke="midnightblue" d="M626.85,-29.53C618.49,-28.38 609.79,-27.19 601.14,-26.01"/>
<polygon fill="midnightblue" stroke="midnightblue" points="626.46,-33.01 636.84,-30.9 627.41,-26.07 626.46,-33.01"/>
</g>
<!-- Node3 -->
<g id="node3" class="node">
<title>Node3</title>
<g id="a_node3"><a xlink:href="wld_8c.html#a36aa34c9c1a57fbe65d300ae3a9bbc2f" target="_top" xlink:title=" ">
<polygon fill="white" stroke="black" points="312,-50 312,-69 410,-69 410,-50 312,-50"/>
<text text-anchor="middle" x="361" y="-57" font-family="Helvetica,sans-Serif" font-size="10.00">wld_createRadio</text>
</a>
</g>
</g>
<!-- Node2&#45;&gt;Node3 -->
<g id="edge2" class="edge">
<title>Node2&#45;&gt;Node3</title>
<path fill="none" stroke="midnightblue" d="M449.8,-59.5C436.37,-59.5 422.65,-59.5 410.18,-59.5"/>
<polygon fill="midnightblue" stroke="midnightblue" points="449.99,-63 459.99,-59.5 449.99,-56 449.99,-63"/>
</g>
<!-- Node4 -->
<g id="node4" class="node">
<title>Node4</title>
<g id="a_node4"><a xlink:href="wld_8c.html#a64c338bcccd982aa0f1bd86a8d95473a" target="_top" xlink:title=" ">
<polygon fill="white" stroke="black" points="191,-50 191,-69 276,-69 276,-50 191,-50"/>
<text text-anchor="middle" x="233.5" y="-57" font-family="Helvetica,sans-Serif" font-size="10.00">wld_addRadio</text>
</a>
</g>
</g>
<!-- Node3&#45;&gt;Node4 -->
<g id="edge3" class="edge">
<title>Node3&#45;&gt;Node4</title>
<path fill="none" stroke="midnightblue" d="M301.79,-59.5C293.15,-59.5 284.4,-59.5 276.19,-59.5"/>
<polygon fill="midnightblue" stroke="midnightblue" points="301.84,-63 311.84,-59.5 301.84,-56 301.84,-63"/>
</g>
<!-- Node5 -->
<g id="node5" class="node">
<title>Node5</title>
<g id="a_node5"><a xlink:href="wld__rad__nl80211_8c.html#ac4eed247eba7d9e6f87d8dff1374b804" target="_top" xlink:title=" ">
<polygon fill="white" stroke="black" points="0,-50 0,-69 155,-69 155,-50 0,-50"/>
<text text-anchor="middle" x="77.5" y="-57" font-family="Helvetica,sans-Serif" font-size="10.00">wld_rad_nl80211_addRadios</text>
</a>
</g>
</g>
<!-- Node4&#45;&gt;Node5 -->
<g id="edge4" class="edge">
<title>Node4&#45;&gt;Node5</title>
<path fill="none" stroke="midnightblue" d="M180.69,-59.5C172.49,-59.5 163.85,-59.5 155.22,-59.5"/>
<polygon fill="midnightblue" stroke="midnightblue" points="180.83,-63 190.83,-59.5 180.83,-56 180.83,-63"/>
</g>
</g>
</svg>
