<?xml version="1.0" encoding="UTF-8" standalone="no"?>
<!DOCTYPE svg PUBLIC "-//W3C//DTD SVG 1.1//EN"
 "http://www.w3.org/Graphics/SVG/1.1/DTD/svg11.dtd">
<!-- Generated by graphviz version 2.43.0 (0)
 -->
<!-- Title: wld_chanmgt_getAutoBwExt Pages: 1 -->
<svg width="708pt" height="28pt"
 viewBox="0.00 0.00 708.00 28.00" xmlns="http://www.w3.org/2000/svg" xmlns:xlink="http://www.w3.org/1999/xlink">
<g id="graph0" class="graph" transform="scale(1 1) rotate(0) translate(4 24)">
<title>wld_chanmgt_getAutoBwExt</title>
<polygon fill="white" stroke="transparent" points="-4,4 -4,-24 704,-24 704,4 -4,4"/>
<!-- Node1 -->
<g id="node1" class="node">
<title>Node1</title>
<g id="a_node1"><a xlink:title=" ">
<polygon fill="#bfbfbf" stroke="black" points="544,-0.5 544,-19.5 700,-19.5 700,-0.5 544,-0.5"/>
<text text-anchor="middle" x="622" y="-7.5" font-family="Helvetica,sans-Serif" font-size="10.00">wld_chanmgt_getAutoBwExt</text>
</a>
</g>
</g>
<!-- Node2 -->
<g id="node2" class="node">
<title>Node2</title>
<g id="a_node2"><a xlink:href="wld__chanmgt_8c.html#a666985e1c0d44eb135e66b10316ab7d6" target="_top" xlink:title=" ">
<polygon fill="white" stroke="black" points="368,-0.5 368,-19.5 508,-19.5 508,-0.5 368,-0.5"/>
<text text-anchor="middle" x="438" y="-7.5" font-family="Helvetica,sans-Serif" font-size="10.00">wld_chanmgt_getAutoBw</text>
</a>
</g>
</g>
<!-- Node1&#45;&gt;Node2 -->
<g id="edge1" class="edge">
<title>Node1&#45;&gt;Node2</title>
<path fill="none" stroke="midnightblue" d="M533.79,-10C525.21,-10 516.59,-10 508.22,-10"/>
<polygon fill="midnightblue" stroke="midnightblue" points="533.82,-13.5 543.82,-10 533.82,-6.5 533.82,-13.5"/>
</g>
<!-- Node3 -->
<g id="node3" class="node">
<title>Node3</title>
<g id="a_node3"><a xlink:href="wld__chanmgt_8c.html#a3d145e44b994a5d0a67494bcfc64bc65" target="_top" xlink:title=" ">
<polygon fill="white" stroke="black" points="153,-0.5 153,-19.5 332,-19.5 332,-0.5 153,-0.5"/>
<text text-anchor="middle" x="242.5" y="-7.5" font-family="Helvetica,sans-Serif" font-size="10.00">wld_chanmgt_setTargetChanspec</text>
</a>
</g>
</g>
<!-- Node2&#45;&gt;Node3 -->
<g id="edge2" class="edge">
<title>Node2&#45;&gt;Node3</title>
<path fill="none" stroke="midnightblue" d="M357.76,-10C349.31,-10 340.68,-10 332.13,-10"/>
<polygon fill="midnightblue" stroke="midnightblue" points="357.96,-13.5 367.96,-10 357.96,-6.5 357.96,-13.5"/>
</g>
<!-- Node4 -->
<g id="node4" class="node">
<title>Node4</title>
<g id="a_node4"><a xlink:href="wld__chanmgt_8c.html#a047a6fcd8260f90e5c4f625288d8883e" target="_top" xlink:title=" ">
<polygon fill="white" stroke="black" points="0,-0.5 0,-19.5 117,-19.5 117,-0.5 0,-0.5"/>
<text text-anchor="middle" x="58.5" y="-7.5" font-family="Helvetica,sans-Serif" font-size="10.00">_Radio_setChanspec</text>
</a>
</g>
</g>
<!-- Node3&#45;&gt;Node4 -->
<g id="edge3" class="edge">
<title>Node3&#45;&gt;Node4</title>
<path fill="none" stroke="midnightblue" d="M142.68,-10C134,-10 125.42,-10 117.25,-10"/>
<polygon fill="midnightblue" stroke="midnightblue" points="142.9,-13.5 152.9,-10 142.9,-6.5 142.9,-13.5"/>
</g>
</g>
</svg>
