<?xml version="1.0" encoding="UTF-8" standalone="no"?>
<!DOCTYPE svg PUBLIC "-//W3C//DTD SVG 1.1//EN"
 "http://www.w3.org/Graphics/SVG/1.1/DTD/svg11.dtd">
<!-- Generated by graphviz version 2.43.0 (0)
 -->
<!-- Title: wld_secDmn_getCfgParamSupp Pages: 1 -->
<svg width="403pt" height="78pt"
 viewBox="0.00 0.00 403.00 77.50" xmlns="http://www.w3.org/2000/svg" xmlns:xlink="http://www.w3.org/1999/xlink">
<g id="graph0" class="graph" transform="scale(1 1) rotate(0) translate(4 73.5)">
<title>wld_secDmn_getCfgParamSupp</title>
<polygon fill="white" stroke="transparent" points="-4,4 -4,-73.5 399,-73.5 399,4 -4,4"/>
<!-- Node1 -->
<g id="node1" class="node">
<title>Node1</title>
<g id="a_node1"><a xlink:title=" ">
<polygon fill="#bfbfbf" stroke="black" points="0,-28 0,-47 171,-47 171,-28 0,-28"/>
<text text-anchor="middle" x="85.5" y="-35" font-family="Helvetica,sans-Serif" font-size="10.00">wld_secDmn_getCfgParamSupp</text>
</a>
</g>
</g>
<!-- Node2 -->
<g id="node2" class="node">
<title>Node2</title>
<g id="a_node2"><a xlink:href="wld__secDmnGrp_8c.html#af0b4f287e6977f3f12c69dfffbfb213e" target="_top" xlink:title=" ">
<polygon fill="white" stroke="black" points="207,-50 207,-69 395,-69 395,-50 207,-50"/>
<text text-anchor="middle" x="301" y="-57" font-family="Helvetica,sans-Serif" font-size="10.00">wld_secDmnGrp_getMemberByPos</text>
</a>
</g>
</g>
<!-- Node1&#45;&gt;Node2 -->
<g id="edge1" class="edge">
<title>Node1&#45;&gt;Node2</title>
<path fill="none" stroke="midnightblue" d="M171.19,-46.23C179.9,-47.12 188.82,-48.04 197.69,-48.96"/>
<polygon fill="midnightblue" stroke="midnightblue" points="197.38,-52.44 207.69,-49.99 198.1,-45.48 197.38,-52.44"/>
</g>
<!-- Node3 -->
<g id="node3" class="node">
<title>Node3</title>
<g id="a_node3"><a xlink:href="wld__secDmnGrp_8c.html#a7a55988e27b9c7365f21e1b68bc58b85" target="_top" xlink:title=" ">
<polygon fill="white" stroke="black" points="219.5,-0.5 219.5,-30.5 382.5,-30.5 382.5,-0.5 219.5,-0.5"/>
<text text-anchor="start" x="227.5" y="-18.5" font-family="Helvetica,sans-Serif" font-size="10.00">wld_secDmnGrp_getMembers</text>
<text text-anchor="middle" x="301" y="-7.5" font-family="Helvetica,sans-Serif" font-size="10.00">Count</text>
</a>
</g>
</g>
<!-- Node1&#45;&gt;Node3 -->
<g id="edge2" class="edge">
<title>Node1&#45;&gt;Node3</title>
<path fill="none" stroke="midnightblue" d="M171.19,-28.77C183.68,-27.49 196.6,-26.16 209.21,-24.86"/>
<polygon fill="midnightblue" stroke="midnightblue" points="209.65,-28.33 219.24,-23.82 208.94,-21.37 209.65,-28.33"/>
</g>
</g>
</svg>
