<?xml version="1.0" encoding="UTF-8" standalone="no"?>
<!DOCTYPE svg PUBLIC "-//W3C//DTD SVG 1.1//EN"
 "http://www.w3.org/Graphics/SVG/1.1/DTD/svg11.dtd">
<!-- Generated by graphviz version 2.43.0 (0)
 -->
<!-- Title: include/wld/wld_radioOperatingStandards.h Pages: 1 -->
<svg width="6689pt" height="229pt"
 viewBox="0.00 0.00 6688.50 229.00" xmlns="http://www.w3.org/2000/svg" xmlns:xlink="http://www.w3.org/1999/xlink">
<g id="graph0" class="graph" transform="scale(1 1) rotate(0) translate(4 225)">
<title>include/wld/wld_radioOperatingStandards.h</title>
<polygon fill="white" stroke="transparent" points="-4,4 -4,-225 6684.5,-225 6684.5,4 -4,4"/>
<!-- Node1 -->
<g id="node1" class="node">
<title>Node1</title>
<g id="a_node1"><a xlink:title=" ">
<polygon fill="#bfbfbf" stroke="black" points="4934.5,-190.5 4934.5,-220.5 5104.5,-220.5 5104.5,-190.5 4934.5,-190.5"/>
<text text-anchor="start" x="4942.5" y="-208.5" font-family="Helvetica,sans-Serif" font-size="10.00">include/wld/wld_radioOperating</text>
<text text-anchor="middle" x="5019.5" y="-197.5" font-family="Helvetica,sans-Serif" font-size="10.00">Standards.h</text>
</a>
</g>
</g>
<!-- Node2 -->
<g id="node2" class="node">
<title>Node2</title>
<g id="a_node2"><a xlink:href="wld__radio_8h.html" target="_top" xlink:title=" ">
<polygon fill="white" stroke="red" points="3292,-134.5 3292,-153.5 3423,-153.5 3423,-134.5 3292,-134.5"/>
<text text-anchor="middle" x="3357.5" y="-141.5" font-family="Helvetica,sans-Serif" font-size="10.00">include/wld/wld_radio.h</text>
</a>
</g>
</g>
<!-- Node1&#45;&gt;Node2 -->
<g id="edge1" class="edge">
<title>Node1&#45;&gt;Node2</title>
<path fill="none" stroke="midnightblue" d="M4924.12,-201.09C4620.35,-190.21 3680.45,-156.56 3423.18,-147.35"/>
<polygon fill="midnightblue" stroke="midnightblue" points="4924.1,-204.59 4934.22,-201.45 4924.35,-197.59 4924.1,-204.59"/>
</g>
<!-- Node58 -->
<g id="node49" class="node">
<title>Node58</title>
<g id="a_node49"><a xlink:href="wld__radioOperatingStandards_8c.html" target="_top" xlink:title=" ">
<polygon fill="white" stroke="black" points="6494.5,-73 6494.5,-92 6680.5,-92 6680.5,-73 6494.5,-73"/>
<text text-anchor="middle" x="6587.5" y="-80" font-family="Helvetica,sans-Serif" font-size="10.00">src/wld_radioOperatingStandards.c</text>
</a>
</g>
</g>
<!-- Node1&#45;&gt;Node58 -->
<g id="edge52" class="edge">
<title>Node1&#45;&gt;Node58</title>
<path fill="none" stroke="midnightblue" d="M5019.12,-180.31C5020.29,-164.49 5024.73,-144.82 5038.5,-134 5101.72,-84.3 6405.36,-104.67 6485.5,-98 6501.99,-96.63 6519.88,-94.35 6536,-92.01"/>
<polygon fill="midnightblue" stroke="midnightblue" points="5015.62,-180.37 5018.76,-190.49 5022.61,-180.62 5015.62,-180.37"/>
</g>
<!-- Node80 -->
<g id="node50" class="node">
<title>Node80</title>
<g id="a_node50"><a xlink:href="wld__mld_8c.html" target="_top" xlink:title=" ">
<polygon fill="white" stroke="black" points="5048,-134.5 5048,-153.5 5131,-153.5 5131,-134.5 5048,-134.5"/>
<text text-anchor="middle" x="5089.5" y="-141.5" font-family="Helvetica,sans-Serif" font-size="10.00">src/wld_mld.c</text>
</a>
</g>
</g>
<!-- Node1&#45;&gt;Node80 -->
<g id="edge51" class="edge">
<title>Node1&#45;&gt;Node80</title>
<path fill="none" stroke="midnightblue" d="M5043.74,-183.89C5055.92,-173.54 5070.02,-161.56 5079.31,-153.66"/>
<polygon fill="midnightblue" stroke="midnightblue" points="5041.44,-181.26 5036.09,-190.4 5045.98,-186.59 5041.44,-181.26"/>
</g>
<!-- Node3 -->
<g id="node3" class="node">
<title>Node3</title>
<g id="a_node3"><a xlink:href="wld__common_8h.html" target="_top" xlink:title=" ">
<polygon fill="white" stroke="red" points="0,-73 0,-92 149,-92 149,-73 0,-73"/>
<text text-anchor="middle" x="74.5" y="-80" font-family="Helvetica,sans-Serif" font-size="10.00">include/wld/wld_common.h</text>
</a>
</g>
</g>
<!-- Node2&#45;&gt;Node3 -->
<g id="edge2" class="edge">
<title>Node2&#45;&gt;Node3</title>
<path fill="none" stroke="midnightblue" d="M3281.71,-142.66C2827.7,-140.5 477.12,-127.97 157.5,-98 143.81,-96.72 128.98,-94.42 115.7,-92.03"/>
<polygon fill="midnightblue" stroke="midnightblue" points="3281.75,-146.16 3291.77,-142.7 3281.78,-139.16 3281.75,-146.16"/>
</g>
<!-- Node8 -->
<g id="node4" class="node">
<title>Node8</title>
<g id="a_node4"><a xlink:href="wld__zwdfs_8h.html" target="_top" xlink:title=" ">
<polygon fill="white" stroke="red" points="167,-73 167,-92 302,-92 302,-73 167,-73"/>
<text text-anchor="middle" x="234.5" y="-80" font-family="Helvetica,sans-Serif" font-size="10.00">include/wld/wld_zwdfs.h</text>
</a>
</g>
</g>
<!-- Node2&#45;&gt;Node8 -->
<g id="edge3" class="edge">
<title>Node2&#45;&gt;Node8</title>
<path fill="none" stroke="midnightblue" d="M3281.64,-142.61C2840.95,-140.22 619.31,-126.83 316.5,-98 302.97,-96.71 288.32,-94.42 275.2,-92.02"/>
<polygon fill="midnightblue" stroke="midnightblue" points="3281.7,-146.11 3291.72,-142.66 3281.74,-139.11 3281.7,-146.11"/>
</g>
<!-- Node9 -->
<g id="node5" class="node">
<title>Node9</title>
<g id="a_node5"><a xlink:href="wld__zwdfs_8c.html" target="_top" xlink:title=" ">
<polygon fill="white" stroke="black" points="222.5,-0.5 222.5,-30.5 360.5,-30.5 360.5,-0.5 222.5,-0.5"/>
<text text-anchor="start" x="230.5" y="-18.5" font-family="Helvetica,sans-Serif" font-size="10.00">src/ChannelManagement</text>
<text text-anchor="middle" x="291.5" y="-7.5" font-family="Helvetica,sans-Serif" font-size="10.00">/wld_zwdfs.c</text>
</a>
</g>
</g>
<!-- Node2&#45;&gt;Node9 -->
<g id="edge18" class="edge">
<title>Node2&#45;&gt;Node9</title>
<path fill="none" stroke="midnightblue" d="M3281.5,-142.81C2820.5,-141.52 416.38,-133.13 349.5,-98 322.13,-83.63 304.78,-49.84 296.75,-30.58"/>
<polygon fill="midnightblue" stroke="midnightblue" points="3281.69,-146.31 3291.7,-142.83 3281.71,-139.31 3281.69,-146.31"/>
</g>
<!-- Node11 -->
<g id="node6" class="node">
<title>Node11</title>
<g id="a_node6"><a xlink:href="wifiGen__zwdfs_8h.html" target="_top" xlink:title=" ">
<polygon fill="white" stroke="red" points="359,-67.5 359,-97.5 468,-97.5 468,-67.5 359,-67.5"/>
<text text-anchor="start" x="367" y="-85.5" font-family="Helvetica,sans-Serif" font-size="10.00">include_priv/Plugin</text>
<text text-anchor="middle" x="413.5" y="-74.5" font-family="Helvetica,sans-Serif" font-size="10.00">/wifiGen_zwdfs.h</text>
</a>
</g>
</g>
<!-- Node2&#45;&gt;Node11 -->
<g id="edge5" class="edge">
<title>Node2&#45;&gt;Node11</title>
<path fill="none" stroke="midnightblue" d="M3281.71,-142.68C2855.6,-140.78 767.38,-129.87 482.5,-98 477.88,-97.48 473.11,-96.8 468.33,-96.01"/>
<polygon fill="midnightblue" stroke="midnightblue" points="3281.74,-146.18 3291.76,-142.73 3281.77,-139.18 3281.74,-146.18"/>
</g>
<!-- Node12 -->
<g id="node7" class="node">
<title>Node12</title>
<g id="a_node7"><a xlink:href="wifiGen_8c.html" target="_top" xlink:title=" ">
<polygon fill="white" stroke="black" points="396.5,-6 396.5,-25 508.5,-25 508.5,-6 396.5,-6"/>
<text text-anchor="middle" x="452.5" y="-13" font-family="Helvetica,sans-Serif" font-size="10.00">src/Plugin/wifiGen.c</text>
</a>
</g>
</g>
<!-- Node2&#45;&gt;Node12 -->
<g id="edge20" class="edge">
<title>Node2&#45;&gt;Node12</title>
<path fill="none" stroke="midnightblue" d="M3281.48,-142.7C2835.77,-140.84 579.12,-129.86 515.5,-98 484.16,-82.3 463.88,-42.87 456.09,-25.25"/>
<polygon fill="midnightblue" stroke="midnightblue" points="3281.66,-146.2 3291.67,-142.74 3281.69,-139.2 3281.66,-146.2"/>
</g>
<!-- Node13 -->
<g id="node8" class="node">
<title>Node13</title>
<g id="a_node8"><a xlink:href="wld__apMgmt_8c.html" target="_top" xlink:title=" ">
<polygon fill="white" stroke="black" points="524.5,-73 524.5,-92 664.5,-92 664.5,-73 524.5,-73"/>
<text text-anchor="middle" x="594.5" y="-80" font-family="Helvetica,sans-Serif" font-size="10.00">src/ApMgt/wld_apMgmt.c</text>
</a>
</g>
</g>
<!-- Node2&#45;&gt;Node13 -->
<g id="edge7" class="edge">
<title>Node2&#45;&gt;Node13</title>
<path fill="none" stroke="midnightblue" d="M3281.57,-142.47C2872.4,-139.54 938.67,-124.38 673.5,-98 660.46,-96.7 646.34,-94.4 633.7,-92.01"/>
<polygon fill="midnightblue" stroke="midnightblue" points="3281.79,-145.98 3291.81,-142.55 3281.84,-138.98 3281.79,-145.98"/>
</g>
<!-- Node14 -->
<g id="node9" class="node">
<title>Node14</title>
<g id="a_node9"><a xlink:href="wld__ap__bss__transfer_8c.html" target="_top" xlink:title=" ">
<polygon fill="white" stroke="black" points="683,-67.5 683,-97.5 808,-97.5 808,-67.5 683,-67.5"/>
<text text-anchor="start" x="691" y="-85.5" font-family="Helvetica,sans-Serif" font-size="10.00">src/ApMgt/wld_ap_bss</text>
<text text-anchor="middle" x="745.5" y="-74.5" font-family="Helvetica,sans-Serif" font-size="10.00">_transfer.c</text>
</a>
</g>
</g>
<!-- Node2&#45;&gt;Node14 -->
<g id="edge8" class="edge">
<title>Node2&#45;&gt;Node14</title>
<path fill="none" stroke="midnightblue" d="M3281.82,-142.49C2886.39,-139.71 1066.46,-125.5 816.5,-98 813.75,-97.7 810.95,-97.34 808.12,-96.94"/>
<polygon fill="midnightblue" stroke="midnightblue" points="3281.97,-145.99 3292,-142.56 3282.02,-138.99 3281.97,-145.99"/>
</g>
<!-- Node15 -->
<g id="node10" class="node">
<title>Node15</title>
<g id="a_node10"><a xlink:href="wld__ap__macfilter_8c.html" target="_top" xlink:title=" ">
<polygon fill="white" stroke="black" points="826,-73 826,-92 985,-92 985,-73 826,-73"/>
<text text-anchor="middle" x="905.5" y="-80" font-family="Helvetica,sans-Serif" font-size="10.00">src/ApMgt/wld_ap_macfilter.c</text>
</a>
</g>
</g>
<!-- Node2&#45;&gt;Node15 -->
<g id="edge9" class="edge">
<title>Node2&#45;&gt;Node15</title>
<path fill="none" stroke="midnightblue" d="M3281.73,-143.01C2929.98,-142.84 1454.04,-139.6 994.5,-98 980,-96.69 964.29,-94.41 950.16,-92.05"/>
<polygon fill="midnightblue" stroke="midnightblue" points="3281.8,-146.51 3291.81,-143.01 3281.81,-139.51 3281.8,-146.51"/>
</g>
<!-- Node16 -->
<g id="node11" class="node">
<title>Node16</title>
<g id="a_node11"><a xlink:href="wld__ap__neighbours_8c.html" target="_top" xlink:title=" ">
<polygon fill="white" stroke="black" points="1003.5,-73 1003.5,-92 1173.5,-92 1173.5,-73 1003.5,-73"/>
<text text-anchor="middle" x="1088.5" y="-80" font-family="Helvetica,sans-Serif" font-size="10.00">src/ApMgt/wld_ap_neighbours.c</text>
</a>
</g>
</g>
<!-- Node2&#45;&gt;Node16 -->
<g id="edge10" class="edge">
<title>Node2&#45;&gt;Node16</title>
<path fill="none" stroke="midnightblue" d="M3281.83,-142.78C2947.78,-141.6 1603.08,-134.63 1182.5,-98 1167.2,-96.67 1150.61,-94.39 1135.69,-92.03"/>
<polygon fill="midnightblue" stroke="midnightblue" points="3281.87,-146.28 3291.89,-142.81 3281.9,-139.28 3281.87,-146.28"/>
</g>
<!-- Node17 -->
<g id="node12" class="node">
<title>Node17</title>
<g id="a_node12"><a xlink:href="wld__ap__rrm_8c.html" target="_top" xlink:title=" ">
<polygon fill="white" stroke="black" points="1191.5,-73 1191.5,-92 1325.5,-92 1325.5,-73 1191.5,-73"/>
<text text-anchor="middle" x="1258.5" y="-80" font-family="Helvetica,sans-Serif" font-size="10.00">src/ApMgt/wld_ap_rrm.c</text>
</a>
</g>
</g>
<!-- Node2&#45;&gt;Node17 -->
<g id="edge11" class="edge">
<title>Node2&#45;&gt;Node17</title>
<path fill="none" stroke="midnightblue" d="M3281.9,-143C2962.57,-142.75 1722.87,-139.08 1334.5,-98 1322.08,-96.69 1308.65,-94.41 1296.59,-92.05"/>
<polygon fill="midnightblue" stroke="midnightblue" points="3281.97,-146.5 3291.97,-143.01 3281.98,-139.5 3281.97,-146.5"/>
</g>
<!-- Node18 -->
<g id="node13" class="node">
<title>Node18</title>
<g id="a_node13"><a xlink:href="wld__ap__rssiMonitor_8c.html" target="_top" xlink:title=" ">
<polygon fill="white" stroke="black" points="1343.5,-73 1343.5,-92 1513.5,-92 1513.5,-73 1343.5,-73"/>
<text text-anchor="middle" x="1428.5" y="-80" font-family="Helvetica,sans-Serif" font-size="10.00">src/ApMgt/wld_ap_rssiMonitor.c</text>
</a>
</g>
</g>
<!-- Node2&#45;&gt;Node18 -->
<g id="edge12" class="edge">
<title>Node2&#45;&gt;Node18</title>
<path fill="none" stroke="midnightblue" d="M3281.15,-142.44C2979.78,-140.01 1872.27,-129.14 1522.5,-98 1507.37,-96.65 1490.97,-94.4 1476.18,-92.07"/>
<polygon fill="midnightblue" stroke="midnightblue" points="3281.5,-145.94 3291.53,-142.52 3281.56,-138.94 3281.5,-145.94"/>
</g>
<!-- Node19 -->
<g id="node14" class="node">
<title>Node19</title>
<g id="a_node14"><a xlink:href="wld__ap__security_8c.html" target="_top" xlink:title=" ">
<polygon fill="white" stroke="black" points="1531.5,-73 1531.5,-92 1685.5,-92 1685.5,-73 1531.5,-73"/>
<text text-anchor="middle" x="1608.5" y="-80" font-family="Helvetica,sans-Serif" font-size="10.00">src/ApMgt/wld_ap_security.c</text>
</a>
</g>
</g>
<!-- Node2&#45;&gt;Node19 -->
<g id="edge13" class="edge">
<title>Node2&#45;&gt;Node19</title>
<path fill="none" stroke="midnightblue" d="M3281.79,-142.36C2999.55,-139.76 2008.8,-128.6 1694.5,-98 1680.64,-96.65 1665.63,-94.4 1652.09,-92.07"/>
<polygon fill="midnightblue" stroke="midnightblue" points="3281.89,-145.86 3291.92,-142.45 3281.96,-138.86 3281.89,-145.86"/>
</g>
<!-- Node20 -->
<g id="node15" class="node">
<title>Node20</title>
<g id="a_node15"><a xlink:href="wld__bgdfs_8c.html" target="_top" xlink:title=" ">
<polygon fill="white" stroke="black" points="1703.5,-67.5 1703.5,-97.5 1841.5,-97.5 1841.5,-67.5 1703.5,-67.5"/>
<text text-anchor="start" x="1711.5" y="-85.5" font-family="Helvetica,sans-Serif" font-size="10.00">src/ChannelManagement</text>
<text text-anchor="middle" x="1772.5" y="-74.5" font-family="Helvetica,sans-Serif" font-size="10.00">/wld_bgdfs.c</text>
</a>
</g>
</g>
<!-- Node2&#45;&gt;Node20 -->
<g id="edge14" class="edge">
<title>Node2&#45;&gt;Node20</title>
<path fill="none" stroke="midnightblue" d="M3281.45,-142.28C3016.13,-139.52 2132.37,-128.23 1850.5,-98 1847.62,-97.69 1844.7,-97.34 1841.74,-96.94"/>
<polygon fill="midnightblue" stroke="midnightblue" points="3281.71,-145.78 3291.75,-142.38 3281.79,-138.78 3281.71,-145.78"/>
</g>
<!-- Node21 -->
<g id="node16" class="node">
<title>Node21</title>
<g id="a_node16"><a xlink:href="wld__chanmgt_8c.html" target="_top" xlink:title=" ">
<polygon fill="white" stroke="black" points="1859.5,-67.5 1859.5,-97.5 1997.5,-97.5 1997.5,-67.5 1859.5,-67.5"/>
<text text-anchor="start" x="1867.5" y="-85.5" font-family="Helvetica,sans-Serif" font-size="10.00">src/ChannelManagement</text>
<text text-anchor="middle" x="1928.5" y="-74.5" font-family="Helvetica,sans-Serif" font-size="10.00">/wld_chanmgt.c</text>
</a>
</g>
</g>
<!-- Node2&#45;&gt;Node21 -->
<g id="edge15" class="edge">
<title>Node2&#45;&gt;Node21</title>
<path fill="none" stroke="midnightblue" d="M3281.53,-141.98C3034.63,-138.41 2256.47,-125.24 2006.5,-98 2003.62,-97.69 2000.7,-97.33 1997.74,-96.93"/>
<polygon fill="midnightblue" stroke="midnightblue" points="3281.78,-145.48 3291.83,-142.12 3281.88,-138.48 3281.78,-145.48"/>
</g>
<!-- Node22 -->
<g id="node17" class="node">
<title>Node22</title>
<g id="a_node17"><a xlink:href="wld__channel_8c.html" target="_top" xlink:title=" ">
<polygon fill="white" stroke="black" points="2015.5,-67.5 2015.5,-97.5 2153.5,-97.5 2153.5,-67.5 2015.5,-67.5"/>
<text text-anchor="start" x="2023.5" y="-85.5" font-family="Helvetica,sans-Serif" font-size="10.00">src/ChannelManagement</text>
<text text-anchor="middle" x="2084.5" y="-74.5" font-family="Helvetica,sans-Serif" font-size="10.00">/wld_channel.c</text>
</a>
</g>
</g>
<!-- Node2&#45;&gt;Node22 -->
<g id="edge16" class="edge">
<title>Node2&#45;&gt;Node22</title>
<path fill="none" stroke="midnightblue" d="M3281.51,-141.59C3054.02,-137.15 2380.71,-122.26 2162.5,-98 2159.63,-97.68 2156.7,-97.32 2153.74,-96.92"/>
<polygon fill="midnightblue" stroke="midnightblue" points="3281.61,-145.1 3291.68,-141.79 3281.75,-138.1 3281.61,-145.1"/>
</g>
<!-- Node23 -->
<g id="node18" class="node">
<title>Node23</title>
<g id="a_node18"><a xlink:href="wld__channel__info_8c.html" target="_top" xlink:title=" ">
<polygon fill="white" stroke="black" points="2171.5,-67.5 2171.5,-97.5 2309.5,-97.5 2309.5,-67.5 2171.5,-67.5"/>
<text text-anchor="start" x="2179.5" y="-85.5" font-family="Helvetica,sans-Serif" font-size="10.00">src/ChannelManagement</text>
<text text-anchor="middle" x="2240.5" y="-74.5" font-family="Helvetica,sans-Serif" font-size="10.00">/wld_channel_info.c</text>
</a>
</g>
</g>
<!-- Node2&#45;&gt;Node23 -->
<g id="edge17" class="edge">
<title>Node2&#45;&gt;Node23</title>
<path fill="none" stroke="midnightblue" d="M3281.7,-143.36C3109.79,-143.37 2677.35,-138.92 2318.5,-98 2315.63,-97.67 2312.7,-97.3 2309.75,-96.89"/>
<polygon fill="midnightblue" stroke="midnightblue" points="3281.91,-146.86 3291.91,-143.35 3281.91,-139.86 3281.91,-146.86"/>
</g>
<!-- Node24 -->
<g id="node19" class="node">
<title>Node24</title>
<g id="a_node19"><a xlink:href="wld__epProfile_8c.html" target="_top" xlink:title=" ">
<polygon fill="white" stroke="black" points="2328,-73 2328,-92 2469,-92 2469,-73 2328,-73"/>
<text text-anchor="middle" x="2398.5" y="-80" font-family="Helvetica,sans-Serif" font-size="10.00">src/EpMgt/wld_epProfile.c</text>
</a>
</g>
</g>
<!-- Node2&#45;&gt;Node24 -->
<g id="edge19" class="edge">
<title>Node2&#45;&gt;Node24</title>
<path fill="none" stroke="midnightblue" d="M3281.64,-142.45C3128.91,-140.6 2773.63,-132.6 2477.5,-98 2465.03,-96.54 2451.57,-94.32 2439.35,-92.05"/>
<polygon fill="midnightblue" stroke="midnightblue" points="3281.81,-145.95 3291.85,-142.56 3281.89,-138.95 3281.81,-145.95"/>
</g>
<!-- Node25 -->
<g id="node20" class="node">
<title>Node25</title>
<g id="a_node20"><a xlink:href="wifiGen__ep_8c.html" target="_top" xlink:title=" ">
<polygon fill="white" stroke="black" points="2487,-73 2487,-92 2616,-92 2616,-73 2487,-73"/>
<text text-anchor="middle" x="2551.5" y="-80" font-family="Helvetica,sans-Serif" font-size="10.00">src/Plugin/wifiGen_ep.c</text>
</a>
</g>
</g>
<!-- Node2&#45;&gt;Node25 -->
<g id="edge21" class="edge">
<title>Node2&#45;&gt;Node25</title>
<path fill="none" stroke="midnightblue" d="M3281.5,-141.63C3148.18,-138.49 2863.67,-128.52 2625.5,-98 2613.94,-96.52 2601.48,-94.32 2590.13,-92.07"/>
<polygon fill="midnightblue" stroke="midnightblue" points="3281.53,-145.13 3291.61,-141.86 3281.69,-138.13 3281.53,-145.13"/>
</g>
<!-- Node26 -->
<g id="node21" class="node">
<title>Node26</title>
<g id="a_node21"><a xlink:href="wifiGen__eventHandlers_8c.html" target="_top" xlink:title=" ">
<polygon fill="white" stroke="black" points="2634.5,-67.5 2634.5,-97.5 2738.5,-97.5 2738.5,-67.5 2634.5,-67.5"/>
<text text-anchor="start" x="2642.5" y="-85.5" font-family="Helvetica,sans-Serif" font-size="10.00">src/Plugin/wifiGen</text>
<text text-anchor="middle" x="2686.5" y="-74.5" font-family="Helvetica,sans-Serif" font-size="10.00">_eventHandlers.c</text>
</a>
</g>
</g>
<!-- Node2&#45;&gt;Node26 -->
<g id="edge22" class="edge">
<title>Node2&#45;&gt;Node26</title>
<path fill="none" stroke="midnightblue" d="M3281.48,-141.29C3165.64,-137.8 2938.25,-127.51 2747.5,-98 2744.6,-97.55 2741.63,-97.03 2738.64,-96.47"/>
<polygon fill="midnightblue" stroke="midnightblue" points="3281.57,-144.79 3291.66,-141.59 3281.77,-137.79 3281.57,-144.79"/>
</g>
<!-- Node27 -->
<g id="node22" class="node">
<title>Node27</title>
<g id="a_node22"><a xlink:href="wifiGen__hapd_8c.html" target="_top" xlink:title=" ">
<polygon fill="white" stroke="black" points="2756.5,-67.5 2756.5,-97.5 2860.5,-97.5 2860.5,-67.5 2756.5,-67.5"/>
<text text-anchor="start" x="2764.5" y="-85.5" font-family="Helvetica,sans-Serif" font-size="10.00">src/Plugin/wifiGen</text>
<text text-anchor="middle" x="2808.5" y="-74.5" font-family="Helvetica,sans-Serif" font-size="10.00">_hapd.c</text>
</a>
</g>
</g>
<!-- Node2&#45;&gt;Node27 -->
<g id="edge23" class="edge">
<title>Node2&#45;&gt;Node27</title>
<path fill="none" stroke="midnightblue" d="M3281.38,-139.32C3185,-133.9 3014.1,-121.73 2869.5,-98 2866.6,-97.52 2863.63,-96.99 2860.65,-96.41"/>
<polygon fill="midnightblue" stroke="midnightblue" points="3281.43,-142.83 3291.61,-139.89 3281.82,-135.84 3281.43,-142.83"/>
</g>
<!-- Node28 -->
<g id="node23" class="node">
<title>Node28</title>
<g id="a_node23"><a xlink:href="wifiGen__mld_8c.html" target="_top" xlink:title=" ">
<polygon fill="white" stroke="black" points="2878.5,-67.5 2878.5,-97.5 2982.5,-97.5 2982.5,-67.5 2878.5,-67.5"/>
<text text-anchor="start" x="2886.5" y="-85.5" font-family="Helvetica,sans-Serif" font-size="10.00">src/Plugin/wifiGen</text>
<text text-anchor="middle" x="2930.5" y="-74.5" font-family="Helvetica,sans-Serif" font-size="10.00">_mld.c</text>
</a>
</g>
</g>
<!-- Node2&#45;&gt;Node28 -->
<g id="edge24" class="edge">
<title>Node2&#45;&gt;Node28</title>
<path fill="none" stroke="midnightblue" d="M3281.52,-136.14C3207.24,-128.85 3091.1,-115.9 2991.5,-98 2988.61,-97.48 2985.65,-96.91 2982.66,-96.3"/>
<polygon fill="midnightblue" stroke="midnightblue" points="3281.42,-139.65 3291.72,-137.13 3282.1,-132.68 3281.42,-139.65"/>
</g>
<!-- Node29 -->
<g id="node24" class="node">
<title>Node29</title>
<g id="a_node24"><a xlink:href="wifiGen__rad_8c.html" target="_top" xlink:title=" ">
<polygon fill="white" stroke="black" points="3000.5,-67.5 3000.5,-97.5 3104.5,-97.5 3104.5,-67.5 3000.5,-67.5"/>
<text text-anchor="start" x="3008.5" y="-85.5" font-family="Helvetica,sans-Serif" font-size="10.00">src/Plugin/wifiGen</text>
<text text-anchor="middle" x="3052.5" y="-74.5" font-family="Helvetica,sans-Serif" font-size="10.00">_rad.c</text>
</a>
</g>
</g>
<!-- Node2&#45;&gt;Node29 -->
<g id="edge25" class="edge">
<title>Node2&#45;&gt;Node29</title>
<path fill="none" stroke="midnightblue" d="M3296.98,-132.72C3247.51,-124.11 3175.8,-111.14 3113.5,-98 3110.62,-97.39 3107.68,-96.75 3104.7,-96.09"/>
<polygon fill="midnightblue" stroke="midnightblue" points="3296.43,-136.18 3306.88,-134.44 3297.63,-129.28 3296.43,-136.18"/>
</g>
<!-- Node30 -->
<g id="node25" class="node">
<title>Node30</title>
<g id="a_node25"><a xlink:href="wifiGen__radIfMgt_8c.html" target="_top" xlink:title=" ">
<polygon fill="white" stroke="black" points="3122.5,-67.5 3122.5,-97.5 3226.5,-97.5 3226.5,-67.5 3122.5,-67.5"/>
<text text-anchor="start" x="3130.5" y="-85.5" font-family="Helvetica,sans-Serif" font-size="10.00">src/Plugin/wifiGen</text>
<text text-anchor="middle" x="3174.5" y="-74.5" font-family="Helvetica,sans-Serif" font-size="10.00">_radIfMgt.c</text>
</a>
</g>
</g>
<!-- Node2&#45;&gt;Node30 -->
<g id="edge26" class="edge">
<title>Node2&#45;&gt;Node30</title>
<path fill="none" stroke="midnightblue" d="M3321.69,-131.36C3291.87,-121.66 3249.32,-107.83 3217.63,-97.52"/>
<polygon fill="midnightblue" stroke="midnightblue" points="3320.69,-134.71 3331.28,-134.48 3322.85,-128.05 3320.69,-134.71"/>
</g>
<!-- Node31 -->
<g id="node26" class="node">
<title>Node31</title>
<g id="a_node26"><a xlink:href="wifiGen__vap_8c.html" target="_top" xlink:title=" ">
<polygon fill="white" stroke="black" points="3244.5,-67.5 3244.5,-97.5 3348.5,-97.5 3348.5,-67.5 3244.5,-67.5"/>
<text text-anchor="start" x="3252.5" y="-85.5" font-family="Helvetica,sans-Serif" font-size="10.00">src/Plugin/wifiGen</text>
<text text-anchor="middle" x="3296.5" y="-74.5" font-family="Helvetica,sans-Serif" font-size="10.00">_vap.c</text>
</a>
</g>
</g>
<!-- Node2&#45;&gt;Node31 -->
<g id="edge27" class="edge">
<title>Node2&#45;&gt;Node31</title>
<path fill="none" stroke="midnightblue" d="M3341.47,-127.37C3331.99,-118.11 3320.06,-106.48 3310.88,-97.52"/>
<polygon fill="midnightblue" stroke="midnightblue" points="3339.16,-130 3348.76,-134.48 3344.05,-124.99 3339.16,-130"/>
</g>
<!-- Node32 -->
<g id="node27" class="node">
<title>Node32</title>
<g id="a_node27"><a xlink:href="wifiGen__wpaSupp_8c.html" target="_top" xlink:title=" ">
<polygon fill="white" stroke="black" points="3366.5,-67.5 3366.5,-97.5 3470.5,-97.5 3470.5,-67.5 3366.5,-67.5"/>
<text text-anchor="start" x="3374.5" y="-85.5" font-family="Helvetica,sans-Serif" font-size="10.00">src/Plugin/wifiGen</text>
<text text-anchor="middle" x="3418.5" y="-74.5" font-family="Helvetica,sans-Serif" font-size="10.00">_wpaSupp.c</text>
</a>
</g>
</g>
<!-- Node2&#45;&gt;Node32 -->
<g id="edge28" class="edge">
<title>Node2&#45;&gt;Node32</title>
<path fill="none" stroke="midnightblue" d="M3373.53,-127.37C3383.01,-118.11 3394.94,-106.48 3404.12,-97.52"/>
<polygon fill="midnightblue" stroke="midnightblue" points="3370.95,-124.99 3366.24,-134.48 3375.84,-130 3370.95,-124.99"/>
</g>
<!-- Node33 -->
<g id="node28" class="node">
<title>Node33</title>
<g id="a_node28"><a xlink:href="wld__rad__caps_8c.html" target="_top" xlink:title=" ">
<polygon fill="white" stroke="black" points="3489,-67.5 3489,-97.5 3602,-97.5 3602,-67.5 3489,-67.5"/>
<text text-anchor="start" x="3497" y="-85.5" font-family="Helvetica,sans-Serif" font-size="10.00">src/RadMgt/wld_rad</text>
<text text-anchor="middle" x="3545.5" y="-74.5" font-family="Helvetica,sans-Serif" font-size="10.00">_caps.c</text>
</a>
</g>
</g>
<!-- Node2&#45;&gt;Node33 -->
<g id="edge29" class="edge">
<title>Node2&#45;&gt;Node33</title>
<path fill="none" stroke="midnightblue" d="M3394.29,-131.36C3424.92,-121.66 3468.64,-107.83 3501.19,-97.52"/>
<polygon fill="midnightblue" stroke="midnightblue" points="3392.91,-128.12 3384.44,-134.48 3395.03,-134.79 3392.91,-128.12"/>
</g>
<!-- Node34 -->
<g id="node29" class="node">
<title>Node34</title>
<g id="a_node29"><a xlink:href="wld__rad__fsm_8c.html" target="_top" xlink:title=" ">
<polygon fill="white" stroke="black" points="3620,-67.5 3620,-97.5 3733,-97.5 3733,-67.5 3620,-67.5"/>
<text text-anchor="start" x="3628" y="-85.5" font-family="Helvetica,sans-Serif" font-size="10.00">src/RadMgt/wld_rad</text>
<text text-anchor="middle" x="3676.5" y="-74.5" font-family="Helvetica,sans-Serif" font-size="10.00">_fsm.c</text>
</a>
</g>
</g>
<!-- Node2&#45;&gt;Node34 -->
<g id="edge30" class="edge">
<title>Node2&#45;&gt;Node34</title>
<path fill="none" stroke="midnightblue" d="M3418.91,-132.79C3470.23,-124.08 3545.27,-110.96 3610.5,-98 3613.49,-97.41 3616.56,-96.78 3619.65,-96.14"/>
<polygon fill="midnightblue" stroke="midnightblue" points="3418.25,-129.35 3408.98,-134.47 3419.42,-136.25 3418.25,-129.35"/>
</g>
<!-- Node35 -->
<g id="node30" class="node">
<title>Node35</title>
<g id="a_node30"><a xlink:href="wld__rad__ifMgt_8c.html" target="_top" xlink:title=" ">
<polygon fill="white" stroke="black" points="3751,-67.5 3751,-97.5 3864,-97.5 3864,-67.5 3751,-67.5"/>
<text text-anchor="start" x="3759" y="-85.5" font-family="Helvetica,sans-Serif" font-size="10.00">src/RadMgt/wld_rad</text>
<text text-anchor="middle" x="3807.5" y="-74.5" font-family="Helvetica,sans-Serif" font-size="10.00">_ifMgt.c</text>
</a>
</g>
</g>
<!-- Node2&#45;&gt;Node35 -->
<g id="edge31" class="edge">
<title>Node2&#45;&gt;Node35</title>
<path fill="none" stroke="midnightblue" d="M3433.18,-136.38C3510.86,-129.05 3635.07,-115.88 3741.5,-98 3744.51,-97.49 3747.59,-96.94 3750.69,-96.36"/>
<polygon fill="midnightblue" stroke="midnightblue" points="3432.64,-132.91 3423.01,-137.33 3433.29,-139.88 3432.64,-132.91"/>
</g>
<!-- Node36 -->
<g id="node31" class="node">
<title>Node36</title>
<g id="a_node31"><a xlink:href="wld__rad__macCfg_8c.html" target="_top" xlink:title=" ">
<polygon fill="white" stroke="black" points="3882,-67.5 3882,-97.5 3995,-97.5 3995,-67.5 3882,-67.5"/>
<text text-anchor="start" x="3890" y="-85.5" font-family="Helvetica,sans-Serif" font-size="10.00">src/RadMgt/wld_rad</text>
<text text-anchor="middle" x="3938.5" y="-74.5" font-family="Helvetica,sans-Serif" font-size="10.00">_macCfg.c</text>
</a>
</g>
</g>
<!-- Node2&#45;&gt;Node36 -->
<g id="edge32" class="edge">
<title>Node2&#45;&gt;Node36</title>
<path fill="none" stroke="midnightblue" d="M3433.35,-139.44C3534.12,-134.01 3717.46,-121.7 3872.5,-98 3875.52,-97.54 3878.6,-97.02 3881.71,-96.47"/>
<polygon fill="midnightblue" stroke="midnightblue" points="3433.07,-135.95 3423.27,-139.98 3433.44,-142.94 3433.07,-135.95"/>
</g>
<!-- Node37 -->
<g id="node32" class="node">
<title>Node37</title>
<g id="a_node32"><a xlink:href="wld__rad__stamon_8c.html" target="_top" xlink:title=" ">
<polygon fill="white" stroke="black" points="4013,-67.5 4013,-97.5 4126,-97.5 4126,-67.5 4013,-67.5"/>
<text text-anchor="start" x="4021" y="-85.5" font-family="Helvetica,sans-Serif" font-size="10.00">src/RadMgt/wld_rad</text>
<text text-anchor="middle" x="4069.5" y="-74.5" font-family="Helvetica,sans-Serif" font-size="10.00">_stamon.c</text>
</a>
</g>
</g>
<!-- Node2&#45;&gt;Node37 -->
<g id="edge33" class="edge">
<title>Node2&#45;&gt;Node37</title>
<path fill="none" stroke="midnightblue" d="M3433.68,-141.31C3554.89,-137.81 3798.87,-127.44 4003.5,-98 4006.52,-97.57 4009.61,-97.07 4012.72,-96.53"/>
<polygon fill="midnightblue" stroke="midnightblue" points="3433.3,-137.82 3423.4,-141.6 3433.5,-144.82 3433.3,-137.82"/>
</g>
<!-- Node38 -->
<g id="node33" class="node">
<title>Node38</title>
<g id="a_node33"><a xlink:href="wld__autoCommitMgr_8c.html" target="_top" xlink:title=" ">
<polygon fill="white" stroke="black" points="4144,-67.5 4144,-97.5 4287,-97.5 4287,-67.5 4144,-67.5"/>
<text text-anchor="start" x="4152" y="-85.5" font-family="Helvetica,sans-Serif" font-size="10.00">src/Utils/wld_autoCommit</text>
<text text-anchor="middle" x="4215.5" y="-74.5" font-family="Helvetica,sans-Serif" font-size="10.00">Mgr.c</text>
</a>
</g>
</g>
<!-- Node2&#45;&gt;Node38 -->
<g id="edge34" class="edge">
<title>Node2&#45;&gt;Node38</title>
<path fill="none" stroke="midnightblue" d="M3433.37,-141.61C3572.7,-138.38 3878.56,-128.21 4134.5,-98 4137.48,-97.65 4140.52,-97.26 4143.58,-96.83"/>
<polygon fill="midnightblue" stroke="midnightblue" points="3433.14,-138.11 3423.22,-141.84 3433.3,-145.11 3433.14,-138.11"/>
</g>
<!-- Node39 -->
<g id="node34" class="node">
<title>Node39</title>
<g id="a_node34"><a xlink:href="wld__autoNeighAdd_8c.html" target="_top" xlink:title=" ">
<polygon fill="white" stroke="black" points="4305,-73 4305,-92 4464,-92 4464,-73 4305,-73"/>
<text text-anchor="middle" x="4384.5" y="-80" font-family="Helvetica,sans-Serif" font-size="10.00">src/Utils/wld_autoNeighAdd.c</text>
</a>
</g>
</g>
<!-- Node2&#45;&gt;Node39 -->
<g id="edge35" class="edge">
<title>Node2&#45;&gt;Node39</title>
<path fill="none" stroke="midnightblue" d="M3433.28,-142.28C3593.09,-140.12 3976.2,-131.56 4295.5,-98 4309.51,-96.53 4324.67,-94.3 4338.44,-92.03"/>
<polygon fill="midnightblue" stroke="midnightblue" points="3433.04,-138.78 3423.08,-142.41 3433.13,-145.78 3433.04,-138.78"/>
</g>
<!-- Node40 -->
<g id="node35" class="node">
<title>Node40</title>
<g id="a_node35"><a xlink:href="wld__dmnMgt_8c.html" target="_top" xlink:title=" ">
<polygon fill="white" stroke="black" points="4482,-73 4482,-92 4613,-92 4613,-73 4482,-73"/>
<text text-anchor="middle" x="4547.5" y="-80" font-family="Helvetica,sans-Serif" font-size="10.00">src/Utils/wld_dmnMgt.c</text>
</a>
</g>
</g>
<!-- Node2&#45;&gt;Node40 -->
<g id="edge36" class="edge">
<title>Node2&#45;&gt;Node40</title>
<path fill="none" stroke="midnightblue" d="M3433.25,-141.43C3650.07,-136.71 4270.52,-121.47 4472.5,-98 4484.49,-96.61 4497.43,-94.37 4509.13,-92.07"/>
<polygon fill="midnightblue" stroke="midnightblue" points="3433.15,-137.93 3423.23,-141.65 3433.3,-144.93 3433.15,-137.93"/>
</g>
<!-- Node41 -->
<g id="node36" class="node">
<title>Node41</title>
<g id="a_node36"><a xlink:href="wld__linuxIfStats_8c.html" target="_top" xlink:title=" ">
<polygon fill="white" stroke="black" points="4631.5,-73 4631.5,-92 4777.5,-92 4777.5,-73 4631.5,-73"/>
<text text-anchor="middle" x="4704.5" y="-80" font-family="Helvetica,sans-Serif" font-size="10.00">src/Utils/wld_linuxIfStats.c</text>
</a>
</g>
</g>
<!-- Node2&#45;&gt;Node41 -->
<g id="edge37" class="edge">
<title>Node2&#45;&gt;Node41</title>
<path fill="none" stroke="midnightblue" d="M3433.36,-141.67C3669.44,-137.31 4389.09,-122.32 4621.5,-98 4634.88,-96.6 4649.37,-94.33 4662.43,-92"/>
<polygon fill="midnightblue" stroke="midnightblue" points="3433.09,-138.17 3423.16,-141.86 3433.22,-145.17 3433.09,-138.17"/>
</g>
<!-- Node42 -->
<g id="node37" class="node">
<title>Node42</title>
<g id="a_node37"><a xlink:href="wld__monitor_8c.html" target="_top" xlink:title=" ">
<polygon fill="white" stroke="black" points="4795.5,-73 4795.5,-92 4923.5,-92 4923.5,-73 4795.5,-73"/>
<text text-anchor="middle" x="4859.5" y="-80" font-family="Helvetica,sans-Serif" font-size="10.00">src/Utils/wld_monitor.c</text>
</a>
</g>
</g>
<!-- Node2&#45;&gt;Node42 -->
<g id="edge38" class="edge">
<title>Node2&#45;&gt;Node42</title>
<path fill="none" stroke="midnightblue" d="M3433.48,-142.26C3689.71,-139.5 4520.76,-128.37 4786.5,-98 4798.31,-96.65 4811.06,-94.4 4822.55,-92.07"/>
<polygon fill="midnightblue" stroke="midnightblue" points="3433.12,-138.76 3423.16,-142.37 3433.2,-145.76 3433.12,-138.76"/>
</g>
<!-- Node43 -->
<g id="node38" class="node">
<title>Node43</title>
<g id="a_node38"><a xlink:href="wld__ep__nl80211_8c.html" target="_top" xlink:title=" ">
<polygon fill="white" stroke="black" points="4941.5,-67.5 4941.5,-97.5 5051.5,-97.5 5051.5,-67.5 4941.5,-67.5"/>
<text text-anchor="start" x="4949.5" y="-85.5" font-family="Helvetica,sans-Serif" font-size="10.00">src/nl80211/wld_ep</text>
<text text-anchor="middle" x="4996.5" y="-74.5" font-family="Helvetica,sans-Serif" font-size="10.00">_nl80211.c</text>
</a>
</g>
</g>
<!-- Node2&#45;&gt;Node43 -->
<g id="edge39" class="edge">
<title>Node2&#45;&gt;Node43</title>
<path fill="none" stroke="midnightblue" d="M3433.34,-142.78C3706.17,-141.7 4637.26,-135.3 4932.5,-98 4935.44,-97.63 4938.44,-97.18 4941.46,-96.68"/>
<polygon fill="midnightblue" stroke="midnightblue" points="3433.13,-139.28 3423.14,-142.82 3433.15,-146.28 3433.13,-139.28"/>
</g>
<!-- Node44 -->
<g id="node39" class="node">
<title>Node44</title>
<g id="a_node39"><a xlink:href="wld__hostapd__ap__api_8c.html" target="_top" xlink:title=" ">
<polygon fill="white" stroke="black" points="5070,-67.5 5070,-97.5 5207,-97.5 5207,-67.5 5070,-67.5"/>
<text text-anchor="start" x="5078" y="-85.5" font-family="Helvetica,sans-Serif" font-size="10.00">src/nl80211/wld_hostapd</text>
<text text-anchor="middle" x="5138.5" y="-74.5" font-family="Helvetica,sans-Serif" font-size="10.00">_ap_api.c</text>
</a>
</g>
</g>
<!-- Node2&#45;&gt;Node44 -->
<g id="edge40" class="edge">
<title>Node2&#45;&gt;Node44</title>
<path fill="none" stroke="midnightblue" d="M3433.59,-142.58C3720.7,-140.76 4738.36,-131.98 5060.5,-98 5063.51,-97.68 5066.59,-97.31 5069.68,-96.9"/>
<polygon fill="midnightblue" stroke="midnightblue" points="3433.26,-139.08 3423.28,-142.65 3433.3,-146.08 3433.26,-139.08"/>
</g>
<!-- Node45 -->
<g id="node40" class="node">
<title>Node45</title>
<g id="a_node40"><a xlink:href="wld__hostapd__cfgFile_8c.html" target="_top" xlink:title=" ">
<polygon fill="white" stroke="black" points="5225,-67.5 5225,-97.5 5362,-97.5 5362,-67.5 5225,-67.5"/>
<text text-anchor="start" x="5233" y="-85.5" font-family="Helvetica,sans-Serif" font-size="10.00">src/nl80211/wld_hostapd</text>
<text text-anchor="middle" x="5293.5" y="-74.5" font-family="Helvetica,sans-Serif" font-size="10.00">_cfgFile.c</text>
</a>
</g>
</g>
<!-- Node2&#45;&gt;Node45 -->
<g id="edge41" class="edge">
<title>Node2&#45;&gt;Node45</title>
<path fill="none" stroke="midnightblue" d="M3433.36,-142.78C3736.47,-141.64 4861.3,-134.97 5215.5,-98 5218.51,-97.69 5221.59,-97.32 5224.68,-96.91"/>
<polygon fill="midnightblue" stroke="midnightblue" points="3433.34,-139.28 3423.36,-142.81 3433.37,-146.28 3433.34,-139.28"/>
</g>
<!-- Node46 -->
<g id="node41" class="node">
<title>Node46</title>
<g id="a_node41"><a xlink:href="wld__hostapd__cfgManager_8c.html" target="_top" xlink:title=" ">
<polygon fill="white" stroke="black" points="5380,-67.5 5380,-97.5 5517,-97.5 5517,-67.5 5380,-67.5"/>
<text text-anchor="start" x="5388" y="-85.5" font-family="Helvetica,sans-Serif" font-size="10.00">src/nl80211/wld_hostapd</text>
<text text-anchor="middle" x="5448.5" y="-74.5" font-family="Helvetica,sans-Serif" font-size="10.00">_cfgManager.c</text>
</a>
</g>
</g>
<!-- Node2&#45;&gt;Node46 -->
<g id="edge42" class="edge">
<title>Node2&#45;&gt;Node46</title>
<path fill="none" stroke="midnightblue" d="M3433.29,-142.97C3752.03,-142.58 4985.03,-138.43 5371.5,-98 5374.21,-97.72 5376.96,-97.39 5379.74,-97.03"/>
<polygon fill="midnightblue" stroke="midnightblue" points="3433.23,-139.47 3423.24,-142.98 3433.24,-146.47 3433.23,-139.47"/>
</g>
<!-- Node47 -->
<g id="node42" class="node">
<title>Node47</title>
<g id="a_node42"><a xlink:href="wld__nl80211__scan_8c.html" target="_top" xlink:title=" ">
<polygon fill="white" stroke="black" points="5535,-67.5 5535,-97.5 5672,-97.5 5672,-67.5 5535,-67.5"/>
<text text-anchor="start" x="5543" y="-85.5" font-family="Helvetica,sans-Serif" font-size="10.00">src/nl80211/wld_nl80211</text>
<text text-anchor="middle" x="5603.5" y="-74.5" font-family="Helvetica,sans-Serif" font-size="10.00">_scan.c</text>
</a>
</g>
</g>
<!-- Node2&#45;&gt;Node47 -->
<g id="edge43" class="edge">
<title>Node2&#45;&gt;Node47</title>
<path fill="none" stroke="midnightblue" d="M3433.27,-143.11C3767,-143.33 5107.86,-141.46 5526.5,-98 5529.21,-97.72 5531.96,-97.39 5534.74,-97.03"/>
<polygon fill="midnightblue" stroke="midnightblue" points="3433.23,-139.61 3423.22,-143.1 3433.22,-146.61 3433.23,-139.61"/>
</g>
<!-- Node48 -->
<g id="node43" class="node">
<title>Node48</title>
<g id="a_node43"><a xlink:href="wld__rad__hostapd__api_8c.html" target="_top" xlink:title=" ">
<polygon fill="white" stroke="black" points="5690.5,-67.5 5690.5,-97.5 5804.5,-97.5 5804.5,-67.5 5690.5,-67.5"/>
<text text-anchor="start" x="5698.5" y="-85.5" font-family="Helvetica,sans-Serif" font-size="10.00">src/nl80211/wld_rad</text>
<text text-anchor="middle" x="5747.5" y="-74.5" font-family="Helvetica,sans-Serif" font-size="10.00">_hostapd_api.c</text>
</a>
</g>
</g>
<!-- Node2&#45;&gt;Node48 -->
<g id="edge44" class="edge">
<title>Node2&#45;&gt;Node48</title>
<path fill="none" stroke="midnightblue" d="M3433.29,-142.42C3808.09,-139.43 5454.45,-124.87 5681.5,-98 5684.41,-97.66 5687.39,-97.24 5690.38,-96.77"/>
<polygon fill="midnightblue" stroke="midnightblue" points="3433.07,-138.92 3423.1,-142.5 3433.13,-145.92 3433.07,-138.92"/>
</g>
<!-- Node49 -->
<g id="node44" class="node">
<title>Node49</title>
<g id="a_node44"><a xlink:href="wld__rad__nl80211_8c.html" target="_top" xlink:title=" ">
<polygon fill="white" stroke="black" points="5822.5,-67.5 5822.5,-97.5 5936.5,-97.5 5936.5,-67.5 5822.5,-67.5"/>
<text text-anchor="start" x="5830.5" y="-85.5" font-family="Helvetica,sans-Serif" font-size="10.00">src/nl80211/wld_rad</text>
<text text-anchor="middle" x="5879.5" y="-74.5" font-family="Helvetica,sans-Serif" font-size="10.00">_nl80211.c</text>
</a>
</g>
</g>
<!-- Node2&#45;&gt;Node49 -->
<g id="edge45" class="edge">
<title>Node2&#45;&gt;Node49</title>
<path fill="none" stroke="midnightblue" d="M3433.46,-142.5C3821.4,-139.85 5572.69,-126.37 5813.5,-98 5816.41,-97.66 5819.39,-97.24 5822.38,-96.77"/>
<polygon fill="midnightblue" stroke="midnightblue" points="3433.17,-139.01 3423.19,-142.57 3433.22,-146.01 3433.17,-139.01"/>
</g>
<!-- Node50 -->
<g id="node45" class="node">
<title>Node50</title>
<g id="a_node45"><a xlink:href="wld__wpaSupp__cfgFile_8c.html" target="_top" xlink:title=" ">
<polygon fill="white" stroke="black" points="5955,-67.5 5955,-97.5 6098,-97.5 6098,-67.5 5955,-67.5"/>
<text text-anchor="start" x="5963" y="-85.5" font-family="Helvetica,sans-Serif" font-size="10.00">src/nl80211/wld_wpaSupp</text>
<text text-anchor="middle" x="6026.5" y="-74.5" font-family="Helvetica,sans-Serif" font-size="10.00">_cfgFile.c</text>
</a>
</g>
</g>
<!-- Node2&#45;&gt;Node50 -->
<g id="edge46" class="edge">
<title>Node2&#45;&gt;Node50</title>
<path fill="none" stroke="midnightblue" d="M3433.29,-142.4C3833.31,-139.17 5690.32,-122.9 5945.5,-98 5948.49,-97.71 5951.53,-97.37 5954.59,-96.99"/>
<polygon fill="midnightblue" stroke="midnightblue" points="3433.25,-138.91 3423.28,-142.49 3433.31,-145.9 3433.25,-138.91"/>
</g>
<!-- Node51 -->
<g id="node46" class="node">
<title>Node51</title>
<g id="a_node46"><a xlink:href="wld__wpaSupp__ep__api_8c.html" target="_top" xlink:title=" ">
<polygon fill="white" stroke="black" points="6116,-67.5 6116,-97.5 6259,-97.5 6259,-67.5 6116,-67.5"/>
<text text-anchor="start" x="6124" y="-85.5" font-family="Helvetica,sans-Serif" font-size="10.00">src/nl80211/wld_wpaSupp</text>
<text text-anchor="middle" x="6187.5" y="-74.5" font-family="Helvetica,sans-Serif" font-size="10.00">_ep_api.c</text>
</a>
</g>
</g>
<!-- Node2&#45;&gt;Node51 -->
<g id="edge47" class="edge">
<title>Node2&#45;&gt;Node51</title>
<path fill="none" stroke="midnightblue" d="M3433.29,-142.5C3848.17,-139.65 5835.34,-124.71 6107.5,-98 6110.17,-97.74 6112.88,-97.44 6115.62,-97.1"/>
<polygon fill="midnightblue" stroke="midnightblue" points="3433.18,-139 3423.2,-142.57 3433.23,-146 3433.18,-139"/>
</g>
<!-- Node52 -->
<g id="node47" class="node">
<title>Node52</title>
<g id="a_node47"><a xlink:href="wld_8c.html" target="_top" xlink:title=" ">
<polygon fill="white" stroke="black" points="6277,-73 6277,-92 6336,-92 6336,-73 6277,-73"/>
<text text-anchor="middle" x="6306.5" y="-80" font-family="Helvetica,sans-Serif" font-size="10.00">src/wld.c</text>
</a>
</g>
</g>
<!-- Node2&#45;&gt;Node52 -->
<g id="edge48" class="edge">
<title>Node2&#45;&gt;Node52</title>
<path fill="none" stroke="midnightblue" d="M3433.43,-142.57C3877.68,-139.98 6125.41,-125.52 6268.5,-98 6275.02,-96.75 6281.87,-94.46 6287.94,-92.06"/>
<polygon fill="midnightblue" stroke="midnightblue" points="3433.26,-139.07 3423.28,-142.63 3433.3,-146.07 3433.26,-139.07"/>
</g>
<!-- Node53 -->
<g id="node48" class="node">
<title>Node53</title>
<g id="a_node48"><a xlink:href="wld__accesspoint_8c.html" target="_top" xlink:title=" ">
<polygon fill="white" stroke="black" points="6354.5,-73 6354.5,-92 6476.5,-92 6476.5,-73 6354.5,-73"/>
<text text-anchor="middle" x="6415.5" y="-80" font-family="Helvetica,sans-Serif" font-size="10.00">src/wld_accesspoint.c</text>
</a>
</g>
</g>
<!-- Node2&#45;&gt;Node53 -->
<g id="edge49" class="edge">
<title>Node2&#45;&gt;Node53</title>
<path fill="none" stroke="midnightblue" d="M3433.43,-142.72C3869.74,-140.97 6048.73,-130.67 6345.5,-98 6357.1,-96.72 6369.61,-94.43 6380.81,-92.04"/>
<polygon fill="midnightblue" stroke="midnightblue" points="3433.13,-139.22 3423.14,-142.76 3433.16,-146.22 3433.13,-139.22"/>
</g>
<!-- Node2&#45;&gt;Node58 -->
<g id="edge50" class="edge">
<title>Node2&#45;&gt;Node58</title>
<path fill="none" stroke="midnightblue" d="M3433.34,-142.49C3881.35,-139.37 6173.06,-122.36 6485.5,-98 6502.26,-96.69 6520.47,-94.39 6536.8,-92"/>
<polygon fill="midnightblue" stroke="midnightblue" points="3433.07,-138.99 3423.1,-142.56 3433.12,-145.99 3433.07,-138.99"/>
</g>
<!-- Node8&#45;&gt;Node9 -->
<g id="edge4" class="edge">
<title>Node8&#45;&gt;Node9</title>
<path fill="none" stroke="midnightblue" d="M248.98,-64.99C258.3,-54.36 270.28,-40.7 279.15,-30.59"/>
<polygon fill="midnightblue" stroke="midnightblue" points="246.15,-62.91 242.19,-72.73 251.41,-67.52 246.15,-62.91"/>
</g>
<!-- Node11&#45;&gt;Node12 -->
<g id="edge6" class="edge">
<title>Node11&#45;&gt;Node12</title>
<path fill="none" stroke="midnightblue" d="M427.22,-58.63C434.16,-47.07 442.17,-33.71 447.28,-25.19"/>
<polygon fill="midnightblue" stroke="midnightblue" points="424.11,-57.02 421.96,-67.4 430.11,-60.62 424.11,-57.02"/>
</g>
</g>
</svg>
