<?xml version="1.0" encoding="UTF-8" standalone="no"?>
<!DOCTYPE svg PUBLIC "-//W3C//DTD SVG 1.1//EN"
 "http://www.w3.org/Graphics/SVG/1.1/DTD/svg11.dtd">
<!-- Generated by graphviz version 2.43.0 (0)
 -->
<!-- Title: wld_wpaCtrlMngr_isConnected Pages: 1 -->
<svg width="510pt" height="78pt"
 viewBox="0.00 0.00 510.00 77.50" xmlns="http://www.w3.org/2000/svg" xmlns:xlink="http://www.w3.org/1999/xlink">
<g id="graph0" class="graph" transform="scale(1 1) rotate(0) translate(4 73.5)">
<title>wld_wpaCtrlMngr_isConnected</title>
<polygon fill="white" stroke="transparent" points="-4,4 -4,-73.5 506,-73.5 506,4 -4,4"/>
<!-- Node1 -->
<g id="node1" class="node">
<title>Node1</title>
<g id="a_node1"><a xlink:title="check that wpaCtrl manager is connected: i.e can receive events from its main interface.">
<polygon fill="#bfbfbf" stroke="black" points="0,-28 0,-47 167,-47 167,-28 0,-28"/>
<text text-anchor="middle" x="83.5" y="-35" font-family="Helvetica,sans-Serif" font-size="10.00">wld_wpaCtrlMngr_isConnected</text>
</a>
</g>
</g>
<!-- Node2 -->
<g id="node2" class="node">
<title>Node2</title>
<g id="a_node2"><a xlink:href="wld__secDmn_8c.html#ad8ebf9f869b635102d27d9a476e4d9eb" target="_top" xlink:title=" ">
<polygon fill="white" stroke="black" points="208.5,-50 208.5,-69 340.5,-69 340.5,-50 208.5,-50"/>
<text text-anchor="middle" x="274.5" y="-57" font-family="Helvetica,sans-Serif" font-size="10.00">wld_secDmn_isRunning</text>
</a>
</g>
</g>
<!-- Node1&#45;&gt;Node2 -->
<g id="edge1" class="edge">
<title>Node1&#45;&gt;Node2</title>
<path fill="none" stroke="midnightblue" d="M166.3,-47.02C176.96,-48.26 187.84,-49.53 198.38,-50.76"/>
<polygon fill="midnightblue" stroke="midnightblue" points="198.03,-54.24 208.37,-51.92 198.84,-47.29 198.03,-54.24"/>
</g>
<!-- Node4 -->
<g id="node4" class="node">
<title>Node4</title>
<g id="a_node4"><a xlink:href="wld__wpaCtrlMngr_8c.html#a3dc93dfda0d67c0e7254cc1ffeeb3ebe" target="_top" xlink:title=" ">
<polygon fill="white" stroke="black" points="203,-0.5 203,-30.5 346,-30.5 346,-0.5 203,-0.5"/>
<text text-anchor="start" x="211" y="-18.5" font-family="Helvetica,sans-Serif" font-size="10.00">wld_wpaCtrlMngr_getFirst</text>
<text text-anchor="middle" x="274.5" y="-7.5" font-family="Helvetica,sans-Serif" font-size="10.00">ReadyInterface</text>
</a>
</g>
</g>
<!-- Node1&#45;&gt;Node4 -->
<g id="edge3" class="edge">
<title>Node1&#45;&gt;Node4</title>
<path fill="none" stroke="midnightblue" d="M166.3,-27.98C175.05,-26.96 183.94,-25.92 192.68,-24.91"/>
<polygon fill="midnightblue" stroke="midnightblue" points="193.32,-28.36 202.84,-23.72 192.51,-21.4 193.32,-28.36"/>
</g>
<!-- Node3 -->
<g id="node3" class="node">
<title>Node3</title>
<g id="a_node3"><a xlink:href="wld__daemon_8c.html#a6ba98a859d038541e1c2ee48d8566547" target="_top" xlink:title=" ">
<polygon fill="white" stroke="black" points="385,-50 385,-69 499,-69 499,-50 385,-50"/>
<text text-anchor="middle" x="442" y="-57" font-family="Helvetica,sans-Serif" font-size="10.00">wld_dmn_isRunning</text>
</a>
</g>
</g>
<!-- Node2&#45;&gt;Node3 -->
<g id="edge2" class="edge">
<title>Node2&#45;&gt;Node3</title>
<path fill="none" stroke="midnightblue" d="M340.91,-59.5C352.05,-59.5 363.62,-59.5 374.78,-59.5"/>
<polygon fill="midnightblue" stroke="midnightblue" points="374.89,-63 384.89,-59.5 374.89,-56 374.89,-63"/>
</g>
<!-- Node5 -->
<g id="node5" class="node">
<title>Node5</title>
<g id="a_node5"><a xlink:href="wld__wpaCtrlInterface_8c.html#a8b38bc9ca95b60e002d38cdb1374d1d0" target="_top" xlink:title=" ">
<polygon fill="white" stroke="black" points="382,-0.5 382,-30.5 502,-30.5 502,-0.5 382,-0.5"/>
<text text-anchor="start" x="390" y="-18.5" font-family="Helvetica,sans-Serif" font-size="10.00">wld_wpaCtrlInterface</text>
<text text-anchor="middle" x="442" y="-7.5" font-family="Helvetica,sans-Serif" font-size="10.00">_isReady</text>
</a>
</g>
</g>
<!-- Node4&#45;&gt;Node5 -->
<g id="edge4" class="edge">
<title>Node4&#45;&gt;Node5</title>
<path fill="none" stroke="midnightblue" d="M346.17,-15.5C354.6,-15.5 363.2,-15.5 371.62,-15.5"/>
<polygon fill="midnightblue" stroke="midnightblue" points="371.76,-19 381.76,-15.5 371.76,-12 371.76,-19"/>
</g>
</g>
</svg>
