<?xml version="1.0" encoding="UTF-8" standalone="no"?>
<!DOCTYPE svg PUBLIC "-//W3C//DTD SVG 1.1//EN"
 "http://www.w3.org/Graphics/SVG/1.1/DTD/svg11.dtd">
<!-- Generated by graphviz version 2.43.0 (0)
 -->
<!-- Title: include/wld/wld_ssid.h Pages: 1 -->
<svg width="4917pt" height="162pt"
 viewBox="0.00 0.00 4917.00 162.00" xmlns="http://www.w3.org/2000/svg" xmlns:xlink="http://www.w3.org/1999/xlink">
<g id="graph0" class="graph" transform="scale(1 1) rotate(0) translate(4 158)">
<title>include/wld/wld_ssid.h</title>
<polygon fill="white" stroke="transparent" points="-4,4 -4,-158 4913,-158 4913,4 -4,4"/>
<!-- Node1 -->
<g id="node1" class="node">
<title>Node1</title>
<g id="a_node1"><a xlink:title=" ">
<polygon fill="#bfbfbf" stroke="black" points="2794,-134.5 2794,-153.5 2920,-153.5 2920,-134.5 2794,-134.5"/>
<text text-anchor="middle" x="2857" y="-141.5" font-family="Helvetica,sans-Serif" font-size="10.00">include/wld/wld_ssid.h</text>
</a>
</g>
</g>
<!-- Node2 -->
<g id="node2" class="node">
<title>Node2</title>
<g id="a_node2"><a xlink:href="wld__common_8h.html" target="_top" xlink:title=" ">
<polygon fill="white" stroke="black" points="235.5,-73 235.5,-92 384.5,-92 384.5,-73 235.5,-73"/>
<text text-anchor="middle" x="310" y="-80" font-family="Helvetica,sans-Serif" font-size="10.00">include/wld/wld_common.h</text>
</a>
</g>
</g>
<!-- Node1&#45;&gt;Node2 -->
<g id="edge1" class="edge">
<title>Node1&#45;&gt;Node2</title>
<path fill="none" stroke="midnightblue" d="M2783.8,-142.23C2503.43,-139.13 1471.01,-126.36 621,-98 540.24,-95.31 447.74,-90.81 384.76,-87.54"/>
<polygon fill="midnightblue" stroke="midnightblue" points="2783.81,-145.73 2793.85,-142.34 2783.89,-138.73 2783.81,-145.73"/>
</g>
<!-- Node7 -->
<g id="node7" class="node">
<title>Node7</title>
<g id="a_node7"><a xlink:href="wld__ssid__nl80211__priv_8h.html" target="_top" xlink:title=" ">
<polygon fill="white" stroke="black" points="630,-67.5 630,-97.5 768,-97.5 768,-67.5 630,-67.5"/>
<text text-anchor="start" x="638" y="-85.5" font-family="Helvetica,sans-Serif" font-size="10.00">include_priv/nl80211</text>
<text text-anchor="middle" x="699" y="-74.5" font-family="Helvetica,sans-Serif" font-size="10.00">/wld_ssid_nl80211_priv.h</text>
</a>
</g>
</g>
<!-- Node1&#45;&gt;Node7 -->
<g id="edge6" class="edge">
<title>Node1&#45;&gt;Node7</title>
<path fill="none" stroke="midnightblue" d="M2783.87,-143.01C2463.04,-142.8 1178.31,-139.37 777,-98 774.12,-97.7 771.19,-97.36 768.24,-96.97"/>
<polygon fill="midnightblue" stroke="midnightblue" points="2783.97,-146.51 2793.98,-143.01 2783.98,-139.51 2783.97,-146.51"/>
</g>
<!-- Node12 -->
<g id="node12" class="node">
<title>Node12</title>
<g id="a_node12"><a xlink:href="wld__apMgmt_8c.html" target="_top" xlink:title=" ">
<polygon fill="white" stroke="black" points="786,-73 786,-92 926,-92 926,-73 786,-73"/>
<text text-anchor="middle" x="856" y="-80" font-family="Helvetica,sans-Serif" font-size="10.00">src/ApMgt/wld_apMgmt.c</text>
</a>
</g>
</g>
<!-- Node1&#45;&gt;Node12 -->
<g id="edge11" class="edge">
<title>Node1&#45;&gt;Node12</title>
<path fill="none" stroke="midnightblue" d="M2783.75,-142.81C2478.25,-141.79 1304.36,-135.47 936,-98 922.94,-96.67 908.81,-94.39 896.11,-92.03"/>
<polygon fill="midnightblue" stroke="midnightblue" points="2783.81,-146.31 2793.82,-142.84 2783.84,-139.31 2783.81,-146.31"/>
</g>
<!-- Node13 -->
<g id="node13" class="node">
<title>Node13</title>
<g id="a_node13"><a xlink:href="wld__ap__bss__transfer_8c.html" target="_top" xlink:title=" ">
<polygon fill="white" stroke="black" points="944.5,-67.5 944.5,-97.5 1069.5,-97.5 1069.5,-67.5 944.5,-67.5"/>
<text text-anchor="start" x="952.5" y="-85.5" font-family="Helvetica,sans-Serif" font-size="10.00">src/ApMgt/wld_ap_bss</text>
<text text-anchor="middle" x="1007" y="-74.5" font-family="Helvetica,sans-Serif" font-size="10.00">_transfer.c</text>
</a>
</g>
</g>
<!-- Node1&#45;&gt;Node13 -->
<g id="edge12" class="edge">
<title>Node1&#45;&gt;Node13</title>
<path fill="none" stroke="midnightblue" d="M2783.96,-142.84C2493.2,-141.95 1417.5,-136.08 1079,-98 1075.96,-97.66 1072.86,-97.25 1069.73,-96.8"/>
<polygon fill="midnightblue" stroke="midnightblue" points="2783.96,-146.34 2793.97,-142.87 2783.98,-139.34 2783.96,-146.34"/>
</g>
<!-- Node14 -->
<g id="node14" class="node">
<title>Node14</title>
<g id="a_node14"><a xlink:href="wld__ap__macfilter_8c.html" target="_top" xlink:title=" ">
<polygon fill="white" stroke="black" points="1087.5,-73 1087.5,-92 1246.5,-92 1246.5,-73 1087.5,-73"/>
<text text-anchor="middle" x="1167" y="-80" font-family="Helvetica,sans-Serif" font-size="10.00">src/ApMgt/wld_ap_macfilter.c</text>
</a>
</g>
</g>
<!-- Node1&#45;&gt;Node14 -->
<g id="edge13" class="edge">
<title>Node1&#45;&gt;Node14</title>
<path fill="none" stroke="midnightblue" d="M2783.71,-142.24C2511.47,-139.21 1558.51,-126.76 1256,-98 1241.66,-96.64 1226.14,-94.38 1212.13,-92.05"/>
<polygon fill="midnightblue" stroke="midnightblue" points="2783.84,-145.74 2793.87,-142.35 2783.91,-138.74 2783.84,-145.74"/>
</g>
<!-- Node15 -->
<g id="node15" class="node">
<title>Node15</title>
<g id="a_node15"><a xlink:href="wld__ap__neighbours_8c.html" target="_top" xlink:title=" ">
<polygon fill="white" stroke="black" points="1265,-73 1265,-92 1435,-92 1435,-73 1265,-73"/>
<text text-anchor="middle" x="1350" y="-80" font-family="Helvetica,sans-Serif" font-size="10.00">src/ApMgt/wld_ap_neighbours.c</text>
</a>
</g>
</g>
<!-- Node1&#45;&gt;Node15 -->
<g id="edge14" class="edge">
<title>Node1&#45;&gt;Node15</title>
<path fill="none" stroke="midnightblue" d="M2783.64,-141.84C2532.46,-137.68 1707.95,-122.47 1444,-98 1428.87,-96.6 1412.48,-94.33 1397.68,-92"/>
<polygon fill="midnightblue" stroke="midnightblue" points="2783.7,-145.34 2793.75,-142.01 2783.81,-138.34 2783.7,-145.34"/>
</g>
<!-- Node16 -->
<g id="node16" class="node">
<title>Node16</title>
<g id="a_node16"><a xlink:href="wld__ap__rrm_8c.html" target="_top" xlink:title=" ">
<polygon fill="white" stroke="black" points="1453,-73 1453,-92 1587,-92 1587,-73 1453,-73"/>
<text text-anchor="middle" x="1520" y="-80" font-family="Helvetica,sans-Serif" font-size="10.00">src/ApMgt/wld_ap_rrm.c</text>
</a>
</g>
</g>
<!-- Node1&#45;&gt;Node16 -->
<g id="edge15" class="edge">
<title>Node1&#45;&gt;Node16</title>
<path fill="none" stroke="midnightblue" d="M2783.74,-141.86C2550.73,-137.99 1828.46,-124.17 1596,-98 1583.72,-96.62 1570.45,-94.36 1558.49,-92.03"/>
<polygon fill="midnightblue" stroke="midnightblue" points="2783.74,-145.36 2793.8,-142.02 2783.86,-138.36 2783.74,-145.36"/>
</g>
<!-- Node17 -->
<g id="node17" class="node">
<title>Node17</title>
<g id="a_node17"><a xlink:href="wld__ap__rssiMonitor_8c.html" target="_top" xlink:title=" ">
<polygon fill="white" stroke="black" points="1605,-73 1605,-92 1775,-92 1775,-73 1605,-73"/>
<text text-anchor="middle" x="1690" y="-80" font-family="Helvetica,sans-Serif" font-size="10.00">src/ApMgt/wld_ap_rssiMonitor.c</text>
</a>
</g>
</g>
<!-- Node1&#45;&gt;Node17 -->
<g id="edge16" class="edge">
<title>Node1&#45;&gt;Node17</title>
<path fill="none" stroke="midnightblue" d="M2783.89,-142.73C2610.1,-141.48 2158.79,-134.65 1784,-98 1769.21,-96.55 1753.2,-94.33 1738.66,-92.06"/>
<polygon fill="midnightblue" stroke="midnightblue" points="2783.92,-146.23 2793.94,-142.8 2783.96,-139.23 2783.92,-146.23"/>
</g>
<!-- Node18 -->
<g id="node18" class="node">
<title>Node18</title>
<g id="a_node18"><a xlink:href="wld__ap__security_8c.html" target="_top" xlink:title=" ">
<polygon fill="white" stroke="black" points="1793,-73 1793,-92 1947,-92 1947,-73 1793,-73"/>
<text text-anchor="middle" x="1870" y="-80" font-family="Helvetica,sans-Serif" font-size="10.00">src/ApMgt/wld_ap_security.c</text>
</a>
</g>
</g>
<!-- Node1&#45;&gt;Node18 -->
<g id="edge17" class="edge">
<title>Node1&#45;&gt;Node18</title>
<path fill="none" stroke="midnightblue" d="M2783.53,-142.19C2629.73,-139.86 2262.81,-131.02 1957,-98 1943.3,-96.52 1928.48,-94.29 1915.02,-92.02"/>
<polygon fill="midnightblue" stroke="midnightblue" points="2783.74,-145.69 2793.79,-142.34 2783.84,-138.69 2783.74,-145.69"/>
</g>
<!-- Node19 -->
<g id="node19" class="node">
<title>Node19</title>
<g id="a_node19"><a xlink:href="wld__epProfile_8c.html" target="_top" xlink:title=" ">
<polygon fill="white" stroke="black" points="1965.5,-73 1965.5,-92 2106.5,-92 2106.5,-73 1965.5,-73"/>
<text text-anchor="middle" x="2036" y="-80" font-family="Helvetica,sans-Serif" font-size="10.00">src/EpMgt/wld_epProfile.c</text>
</a>
</g>
</g>
<!-- Node1&#45;&gt;Node19 -->
<g id="edge18" class="edge">
<title>Node1&#45;&gt;Node19</title>
<path fill="none" stroke="midnightblue" d="M2783.73,-141.43C2650.43,-137.93 2359.49,-127.35 2116,-98 2103.53,-96.5 2090.06,-94.29 2077.79,-92.04"/>
<polygon fill="midnightblue" stroke="midnightblue" points="2783.74,-144.93 2793.83,-141.69 2783.92,-137.93 2783.74,-144.93"/>
</g>
<!-- Node20 -->
<g id="node20" class="node">
<title>Node20</title>
<g id="a_node20"><a xlink:href="wifiGen__eventHandlers_8c.html" target="_top" xlink:title=" ">
<polygon fill="white" stroke="black" points="2125,-67.5 2125,-97.5 2229,-97.5 2229,-67.5 2125,-67.5"/>
<text text-anchor="start" x="2133" y="-85.5" font-family="Helvetica,sans-Serif" font-size="10.00">src/Plugin/wifiGen</text>
<text text-anchor="middle" x="2177" y="-74.5" font-family="Helvetica,sans-Serif" font-size="10.00">_eventHandlers.c</text>
</a>
</g>
</g>
<!-- Node1&#45;&gt;Node20 -->
<g id="edge19" class="edge">
<title>Node1&#45;&gt;Node20</title>
<path fill="none" stroke="midnightblue" d="M2783.59,-141.48C2667.25,-138.21 2433.63,-128.16 2238,-98 2235.1,-97.55 2232.12,-97.04 2229.13,-96.48"/>
<polygon fill="midnightblue" stroke="midnightblue" points="2783.71,-144.98 2793.8,-141.75 2783.9,-137.98 2783.71,-144.98"/>
</g>
<!-- Node21 -->
<g id="node21" class="node">
<title>Node21</title>
<g id="a_node21"><a xlink:href="wifiGen__hapd_8c.html" target="_top" xlink:title=" ">
<polygon fill="white" stroke="black" points="2247,-67.5 2247,-97.5 2351,-97.5 2351,-67.5 2247,-67.5"/>
<text text-anchor="start" x="2255" y="-85.5" font-family="Helvetica,sans-Serif" font-size="10.00">src/Plugin/wifiGen</text>
<text text-anchor="middle" x="2299" y="-74.5" font-family="Helvetica,sans-Serif" font-size="10.00">_hapd.c</text>
</a>
</g>
</g>
<!-- Node1&#45;&gt;Node21 -->
<g id="edge20" class="edge">
<title>Node1&#45;&gt;Node21</title>
<path fill="none" stroke="midnightblue" d="M2783.85,-139.66C2686.56,-134.46 2509.48,-122.4 2360,-98 2357.1,-97.53 2354.13,-96.99 2351.14,-96.41"/>
<polygon fill="midnightblue" stroke="midnightblue" points="2783.7,-143.15 2793.87,-140.18 2784.07,-136.16 2783.7,-143.15"/>
</g>
<!-- Node22 -->
<g id="node22" class="node">
<title>Node22</title>
<g id="a_node22"><a xlink:href="wifiGen__mld_8c.html" target="_top" xlink:title=" ">
<polygon fill="white" stroke="black" points="2369,-67.5 2369,-97.5 2473,-97.5 2473,-67.5 2369,-67.5"/>
<text text-anchor="start" x="2377" y="-85.5" font-family="Helvetica,sans-Serif" font-size="10.00">src/Plugin/wifiGen</text>
<text text-anchor="middle" x="2421" y="-74.5" font-family="Helvetica,sans-Serif" font-size="10.00">_mld.c</text>
</a>
</g>
</g>
<!-- Node1&#45;&gt;Node22 -->
<g id="edge21" class="edge">
<title>Node1&#45;&gt;Node22</title>
<path fill="none" stroke="midnightblue" d="M2783.58,-136.68C2707.71,-129.58 2586.04,-116.55 2482,-98 2479.11,-97.48 2476.14,-96.92 2473.16,-96.31"/>
<polygon fill="midnightblue" stroke="midnightblue" points="2783.69,-140.21 2793.97,-137.65 2784.34,-133.24 2783.69,-140.21"/>
</g>
<!-- Node23 -->
<g id="node23" class="node">
<title>Node23</title>
<g id="a_node23"><a xlink:href="wifiGen__radIfMgt_8c.html" target="_top" xlink:title=" ">
<polygon fill="white" stroke="black" points="2491,-67.5 2491,-97.5 2595,-97.5 2595,-67.5 2491,-67.5"/>
<text text-anchor="start" x="2499" y="-85.5" font-family="Helvetica,sans-Serif" font-size="10.00">src/Plugin/wifiGen</text>
<text text-anchor="middle" x="2543" y="-74.5" font-family="Helvetica,sans-Serif" font-size="10.00">_radIfMgt.c</text>
</a>
</g>
</g>
<!-- Node1&#45;&gt;Node23 -->
<g id="edge22" class="edge">
<title>Node1&#45;&gt;Node23</title>
<path fill="none" stroke="midnightblue" d="M2794.07,-132.84C2742.76,-124.3 2668.5,-111.39 2604,-98 2601.12,-97.4 2598.17,-96.77 2595.2,-96.12"/>
<polygon fill="midnightblue" stroke="midnightblue" points="2793.58,-136.3 2804.01,-134.48 2794.72,-129.4 2793.58,-136.3"/>
</g>
<!-- Node24 -->
<g id="node24" class="node">
<title>Node24</title>
<g id="a_node24"><a xlink:href="wifiGen__vap_8c.html" target="_top" xlink:title=" ">
<polygon fill="white" stroke="black" points="2613,-67.5 2613,-97.5 2717,-97.5 2717,-67.5 2613,-67.5"/>
<text text-anchor="start" x="2621" y="-85.5" font-family="Helvetica,sans-Serif" font-size="10.00">src/Plugin/wifiGen</text>
<text text-anchor="middle" x="2665" y="-74.5" font-family="Helvetica,sans-Serif" font-size="10.00">_vap.c</text>
</a>
</g>
</g>
<!-- Node1&#45;&gt;Node24 -->
<g id="edge23" class="edge">
<title>Node1&#45;&gt;Node24</title>
<path fill="none" stroke="midnightblue" d="M2819.84,-131.48C2788.53,-121.78 2743.64,-107.87 2710.25,-97.52"/>
<polygon fill="midnightblue" stroke="midnightblue" points="2818.9,-134.86 2829.49,-134.48 2820.98,-128.17 2818.9,-134.86"/>
</g>
<!-- Node25 -->
<g id="node25" class="node">
<title>Node25</title>
<g id="a_node25"><a xlink:href="wld__rad__caps_8c.html" target="_top" xlink:title=" ">
<polygon fill="white" stroke="black" points="2735.5,-67.5 2735.5,-97.5 2848.5,-97.5 2848.5,-67.5 2735.5,-67.5"/>
<text text-anchor="start" x="2743.5" y="-85.5" font-family="Helvetica,sans-Serif" font-size="10.00">src/RadMgt/wld_rad</text>
<text text-anchor="middle" x="2792" y="-74.5" font-family="Helvetica,sans-Serif" font-size="10.00">_caps.c</text>
</a>
</g>
</g>
<!-- Node1&#45;&gt;Node25 -->
<g id="edge24" class="edge">
<title>Node1&#45;&gt;Node25</title>
<path fill="none" stroke="midnightblue" d="M2840.23,-127.65C2830.07,-118.35 2817.2,-106.57 2807.32,-97.52"/>
<polygon fill="midnightblue" stroke="midnightblue" points="2837.95,-130.3 2847.69,-134.48 2842.67,-125.14 2837.95,-130.3"/>
</g>
<!-- Node26 -->
<g id="node26" class="node">
<title>Node26</title>
<g id="a_node26"><a xlink:href="wld__rad__ifMgt_8c.html" target="_top" xlink:title=" ">
<polygon fill="white" stroke="black" points="2866.5,-67.5 2866.5,-97.5 2979.5,-97.5 2979.5,-67.5 2866.5,-67.5"/>
<text text-anchor="start" x="2874.5" y="-85.5" font-family="Helvetica,sans-Serif" font-size="10.00">src/RadMgt/wld_rad</text>
<text text-anchor="middle" x="2923" y="-74.5" font-family="Helvetica,sans-Serif" font-size="10.00">_ifMgt.c</text>
</a>
</g>
</g>
<!-- Node1&#45;&gt;Node26 -->
<g id="edge25" class="edge">
<title>Node1&#45;&gt;Node26</title>
<path fill="none" stroke="midnightblue" d="M2874.03,-127.65C2884.35,-118.35 2897.41,-106.57 2907.45,-97.52"/>
<polygon fill="midnightblue" stroke="midnightblue" points="2871.54,-125.18 2866.46,-134.48 2876.23,-130.38 2871.54,-125.18"/>
</g>
<!-- Node27 -->
<g id="node27" class="node">
<title>Node27</title>
<g id="a_node27"><a xlink:href="wld__rad__macCfg_8c.html" target="_top" xlink:title=" ">
<polygon fill="white" stroke="black" points="2997.5,-67.5 2997.5,-97.5 3110.5,-97.5 3110.5,-67.5 2997.5,-67.5"/>
<text text-anchor="start" x="3005.5" y="-85.5" font-family="Helvetica,sans-Serif" font-size="10.00">src/RadMgt/wld_rad</text>
<text text-anchor="middle" x="3054" y="-74.5" font-family="Helvetica,sans-Serif" font-size="10.00">_macCfg.c</text>
</a>
</g>
</g>
<!-- Node1&#45;&gt;Node27 -->
<g id="edge26" class="edge">
<title>Node1&#45;&gt;Node27</title>
<path fill="none" stroke="midnightblue" d="M2895.13,-131.48C2927.25,-121.78 2973.31,-107.87 3007.57,-97.52"/>
<polygon fill="midnightblue" stroke="midnightblue" points="2893.79,-128.23 2885.23,-134.48 2895.81,-134.93 2893.79,-128.23"/>
</g>
<!-- Node28 -->
<g id="node28" class="node">
<title>Node28</title>
<g id="a_node28"><a xlink:href="wld__monitor_8c.html" target="_top" xlink:title=" ">
<polygon fill="white" stroke="black" points="3129,-73 3129,-92 3257,-92 3257,-73 3129,-73"/>
<text text-anchor="middle" x="3193" y="-80" font-family="Helvetica,sans-Serif" font-size="10.00">src/Utils/wld_monitor.c</text>
</a>
</g>
</g>
<!-- Node1&#45;&gt;Node28 -->
<g id="edge27" class="edge">
<title>Node1&#45;&gt;Node28</title>
<path fill="none" stroke="midnightblue" d="M2919.45,-132.79C2972.8,-123.96 3051.53,-110.66 3120,-98 3130.04,-96.14 3140.83,-94.05 3150.96,-92.05"/>
<polygon fill="midnightblue" stroke="midnightblue" points="2918.76,-129.36 2909.47,-134.44 2919.9,-136.27 2918.76,-129.36"/>
</g>
<!-- Node29 -->
<g id="node29" class="node">
<title>Node29</title>
<g id="a_node29"><a xlink:href="wld__hostapd__ap__api_8c.html" target="_top" xlink:title=" ">
<polygon fill="white" stroke="black" points="3275.5,-67.5 3275.5,-97.5 3412.5,-97.5 3412.5,-67.5 3275.5,-67.5"/>
<text text-anchor="start" x="3283.5" y="-85.5" font-family="Helvetica,sans-Serif" font-size="10.00">src/nl80211/wld_hostapd</text>
<text text-anchor="middle" x="3344" y="-74.5" font-family="Helvetica,sans-Serif" font-size="10.00">_ap_api.c</text>
</a>
</g>
</g>
<!-- Node1&#45;&gt;Node29 -->
<g id="edge28" class="edge">
<title>Node1&#45;&gt;Node29</title>
<path fill="none" stroke="midnightblue" d="M2930.22,-136.6C3012.22,-129.04 3148.98,-115.29 3266,-98 3269,-97.56 3272.06,-97.08 3275.14,-96.59"/>
<polygon fill="midnightblue" stroke="midnightblue" points="2929.89,-133.11 2920.25,-137.51 2930.52,-140.08 2929.89,-133.11"/>
</g>
<!-- Node30 -->
<g id="node30" class="node">
<title>Node30</title>
<g id="a_node30"><a xlink:href="wld__hostapd__cfgFile_8c.html" target="_top" xlink:title=" ">
<polygon fill="white" stroke="black" points="3430.5,-67.5 3430.5,-97.5 3567.5,-97.5 3567.5,-67.5 3430.5,-67.5"/>
<text text-anchor="start" x="3438.5" y="-85.5" font-family="Helvetica,sans-Serif" font-size="10.00">src/nl80211/wld_hostapd</text>
<text text-anchor="middle" x="3499" y="-74.5" font-family="Helvetica,sans-Serif" font-size="10.00">_cfgFile.c</text>
</a>
</g>
</g>
<!-- Node1&#45;&gt;Node30 -->
<g id="edge29" class="edge">
<title>Node1&#45;&gt;Node30</title>
<path fill="none" stroke="midnightblue" d="M2930.5,-139.65C3038.56,-134.17 3246.49,-121.45 3422,-98 3424.7,-97.64 3427.44,-97.25 3430.21,-96.83"/>
<polygon fill="midnightblue" stroke="midnightblue" points="2930.17,-136.16 2920.36,-140.16 2930.52,-143.16 2930.17,-136.16"/>
</g>
<!-- Node31 -->
<g id="node31" class="node">
<title>Node31</title>
<g id="a_node31"><a xlink:href="wld__wpaCtrlMngr_8c.html" target="_top" xlink:title=" ">
<polygon fill="white" stroke="black" points="3586,-73 3586,-92 3754,-92 3754,-73 3586,-73"/>
<text text-anchor="middle" x="3670" y="-80" font-family="Helvetica,sans-Serif" font-size="10.00">src/nl80211/wld_wpaCtrlMngr.c</text>
</a>
</g>
</g>
<!-- Node1&#45;&gt;Node31 -->
<g id="edge30" class="edge">
<title>Node1&#45;&gt;Node31</title>
<path fill="none" stroke="midnightblue" d="M2930.52,-140.65C3061,-135.97 3341.52,-123.66 3577,-98 3591.3,-96.44 3606.75,-94.24 3620.88,-92.03"/>
<polygon fill="midnightblue" stroke="midnightblue" points="2930.12,-137.16 2920.25,-141.01 2930.37,-144.15 2930.12,-137.16"/>
</g>
<!-- Node32 -->
<g id="node32" class="node">
<title>Node32</title>
<g id="a_node32"><a xlink:href="wld_8c.html" target="_top" xlink:title=" ">
<polygon fill="white" stroke="black" points="3772.5,-73 3772.5,-92 3831.5,-92 3831.5,-73 3772.5,-73"/>
<text text-anchor="middle" x="3802" y="-80" font-family="Helvetica,sans-Serif" font-size="10.00">src/wld.c</text>
</a>
</g>
</g>
<!-- Node1&#45;&gt;Node32 -->
<g id="edge31" class="edge">
<title>Node1&#45;&gt;Node32</title>
<path fill="none" stroke="midnightblue" d="M2930.38,-142.24C3116.7,-139.85 3604.51,-130.59 3763,-98 3769.51,-96.66 3776.38,-94.41 3782.5,-92.08"/>
<polygon fill="midnightblue" stroke="midnightblue" points="2930.1,-138.75 2920.14,-142.37 2930.18,-145.74 2930.1,-138.75"/>
</g>
<!-- Node33 -->
<g id="node33" class="node">
<title>Node33</title>
<g id="a_node33"><a xlink:href="wld__accesspoint_8c.html" target="_top" xlink:title=" ">
<polygon fill="white" stroke="black" points="3850,-73 3850,-92 3972,-92 3972,-73 3850,-73"/>
<text text-anchor="middle" x="3911" y="-80" font-family="Helvetica,sans-Serif" font-size="10.00">src/wld_accesspoint.c</text>
</a>
</g>
</g>
<!-- Node1&#45;&gt;Node33 -->
<g id="edge32" class="edge">
<title>Node1&#45;&gt;Node33</title>
<path fill="none" stroke="midnightblue" d="M2930.48,-143.61C3094.52,-144.1 3502.71,-140.5 3841,-98 3852.21,-96.59 3864.29,-94.35 3875.21,-92.05"/>
<polygon fill="midnightblue" stroke="midnightblue" points="2930.05,-140.11 2920.03,-143.57 2930.02,-147.11 2930.05,-140.11"/>
</g>
<!-- Node34 -->
<g id="node34" class="node">
<title>Node34</title>
<g id="a_node34"><a xlink:href="wld__apMld_8c.html" target="_top" xlink:title=" ">
<polygon fill="white" stroke="black" points="3990.5,-73 3990.5,-92 4085.5,-92 4085.5,-73 3990.5,-73"/>
<text text-anchor="middle" x="4038" y="-80" font-family="Helvetica,sans-Serif" font-size="10.00">src/wld_apMld.c</text>
</a>
</g>
</g>
<!-- Node1&#45;&gt;Node34 -->
<g id="edge33" class="edge">
<title>Node1&#45;&gt;Node34</title>
<path fill="none" stroke="midnightblue" d="M2930.33,-142.07C3146.22,-139 3777.19,-127.67 3981,-98 3990.3,-96.65 4000.27,-94.39 4009.24,-92.06"/>
<polygon fill="midnightblue" stroke="midnightblue" points="2930.01,-138.57 2920.06,-142.21 2930.1,-145.57 2930.01,-138.57"/>
</g>
<!-- Node35 -->
<g id="node35" class="node">
<title>Node35</title>
<g id="a_node35"><a xlink:href="wld__assocdev_8c.html" target="_top" xlink:title=" ">
<polygon fill="white" stroke="black" points="4104,-73 4104,-92 4214,-92 4214,-73 4104,-73"/>
<text text-anchor="middle" x="4159" y="-80" font-family="Helvetica,sans-Serif" font-size="10.00">src/wld_assocdev.c</text>
</a>
</g>
</g>
<!-- Node1&#45;&gt;Node35 -->
<g id="edge34" class="edge">
<title>Node1&#45;&gt;Node35</title>
<path fill="none" stroke="midnightblue" d="M2930.5,-142.13C3161,-139.11 3867.76,-127.61 4095,-98 4105.39,-96.65 4116.58,-94.39 4126.65,-92.06"/>
<polygon fill="midnightblue" stroke="midnightblue" points="2930.17,-138.63 2920.22,-142.26 2930.26,-145.63 2930.17,-138.63"/>
</g>
<!-- Node36 -->
<g id="node36" class="node">
<title>Node36</title>
<g id="a_node36"><a xlink:href="wld__endpoint_8c.html" target="_top" xlink:title=" ">
<polygon fill="white" stroke="black" points="4232.5,-73 4232.5,-92 4339.5,-92 4339.5,-73 4232.5,-73"/>
<text text-anchor="middle" x="4286" y="-80" font-family="Helvetica,sans-Serif" font-size="10.00">src/wld_endpoint.c</text>
</a>
</g>
</g>
<!-- Node1&#45;&gt;Node36 -->
<g id="edge35" class="edge">
<title>Node1&#45;&gt;Node36</title>
<path fill="none" stroke="midnightblue" d="M2930.46,-142.45C3176.41,-140.32 3969.73,-131 4223,-98 4233.35,-96.65 4244.49,-94.37 4254.49,-92.01"/>
<polygon fill="midnightblue" stroke="midnightblue" points="2930.17,-138.95 2920.2,-142.54 2930.23,-145.95 2930.17,-138.95"/>
</g>
<!-- Node37 -->
<g id="node37" class="node">
<title>Node37</title>
<g id="a_node37"><a xlink:href="wld__mld_8c.html" target="_top" xlink:title=" ">
<polygon fill="white" stroke="black" points="4357.5,-73 4357.5,-92 4440.5,-92 4440.5,-73 4357.5,-73"/>
<text text-anchor="middle" x="4399" y="-80" font-family="Helvetica,sans-Serif" font-size="10.00">src/wld_mld.c</text>
</a>
</g>
</g>
<!-- Node1&#45;&gt;Node37 -->
<g id="edge36" class="edge">
<title>Node1&#45;&gt;Node37</title>
<path fill="none" stroke="midnightblue" d="M2930.19,-143.23C3190.53,-143.67 4070.97,-141.79 4349,-98 4357.3,-96.69 4366.17,-94.42 4374.1,-92.06"/>
<polygon fill="midnightblue" stroke="midnightblue" points="2930.1,-139.73 2920.09,-143.21 2930.08,-146.73 2930.1,-139.73"/>
</g>
<!-- Node38 -->
<g id="node38" class="node">
<title>Node38</title>
<g id="a_node38"><a xlink:href="wld__radio_8c.html" target="_top" xlink:title=" ">
<polygon fill="white" stroke="black" points="4458.5,-73 4458.5,-92 4547.5,-92 4547.5,-73 4458.5,-73"/>
<text text-anchor="middle" x="4503" y="-80" font-family="Helvetica,sans-Serif" font-size="10.00">src/wld_radio.c</text>
</a>
</g>
</g>
<!-- Node1&#45;&gt;Node38 -->
<g id="edge37" class="edge">
<title>Node1&#45;&gt;Node38</title>
<path fill="none" stroke="midnightblue" d="M2930.51,-143.25C3202.44,-143.81 4151.1,-142.45 4450,-98 4458.78,-96.69 4468.17,-94.42 4476.57,-92.06"/>
<polygon fill="midnightblue" stroke="midnightblue" points="2930.36,-139.75 2920.35,-143.23 2930.35,-146.75 2930.36,-139.75"/>
</g>
<!-- Node39 -->
<g id="node39" class="node">
<title>Node39</title>
<g id="a_node39"><a xlink:href="wld__ssid_8c.html" target="_top" xlink:title=" ">
<polygon fill="white" stroke="black" points="4565,-73 4565,-92 4649,-92 4649,-73 4565,-73"/>
<text text-anchor="middle" x="4607" y="-80" font-family="Helvetica,sans-Serif" font-size="10.00">src/wld_ssid.c</text>
</a>
</g>
</g>
<!-- Node1&#45;&gt;Node39 -->
<g id="edge38" class="edge">
<title>Node1&#45;&gt;Node39</title>
<path fill="none" stroke="midnightblue" d="M2930.51,-142.16C3235.79,-138.53 4395.1,-123.19 4557,-98 4565.39,-96.69 4574.37,-94.39 4582.36,-92"/>
<polygon fill="midnightblue" stroke="midnightblue" points="2930.4,-138.66 2920.45,-142.28 2930.49,-145.66 2930.4,-138.66"/>
</g>
<!-- Node40 -->
<g id="node40" class="node">
<title>Node40</title>
<g id="a_node40"><a xlink:href="test__enableSync_8c.html" target="_top" xlink:title=" ">
<polygon fill="white" stroke="black" points="4667.5,-67.5 4667.5,-97.5 4780.5,-97.5 4780.5,-67.5 4667.5,-67.5"/>
<text text-anchor="start" x="4675.5" y="-85.5" font-family="Helvetica,sans-Serif" font-size="10.00">test/testEnableSync</text>
<text text-anchor="middle" x="4724" y="-74.5" font-family="Helvetica,sans-Serif" font-size="10.00">/test_enableSync.c</text>
</a>
</g>
</g>
<!-- Node1&#45;&gt;Node40 -->
<g id="edge39" class="edge">
<title>Node1&#45;&gt;Node40</title>
<path fill="none" stroke="midnightblue" d="M2930.51,-143.04C3224.38,-142.9 4315.28,-139.54 4658,-98 4661.03,-97.63 4664.12,-97.19 4667.24,-96.69"/>
<polygon fill="midnightblue" stroke="midnightblue" points="2930.4,-139.54 2920.4,-143.04 2930.4,-146.54 2930.4,-139.54"/>
</g>
<!-- Node41 -->
<g id="node41" class="node">
<title>Node41</title>
<g id="a_node41"><a xlink:href="wld__th__dm_8c.html" target="_top" xlink:title=" ">
<polygon fill="white" stroke="black" points="4799,-67.5 4799,-97.5 4909,-97.5 4909,-67.5 4799,-67.5"/>
<text text-anchor="start" x="4807" y="-85.5" font-family="Helvetica,sans-Serif" font-size="10.00">test/testHelper/wld</text>
<text text-anchor="middle" x="4854" y="-74.5" font-family="Helvetica,sans-Serif" font-size="10.00">_th_dm.c</text>
</a>
</g>
</g>
<!-- Node1&#45;&gt;Node41 -->
<g id="edge40" class="edge">
<title>Node1&#45;&gt;Node41</title>
<path fill="none" stroke="midnightblue" d="M2930.24,-143.25C3237.04,-143.99 4420.04,-143.75 4790,-98 4792.94,-97.64 4795.94,-97.2 4798.97,-96.7"/>
<polygon fill="midnightblue" stroke="midnightblue" points="2930.14,-139.75 2920.13,-143.22 2930.12,-146.75 2930.14,-139.75"/>
</g>
<!-- Node3 -->
<g id="node3" class="node">
<title>Node3</title>
<g id="a_node3"><a xlink:href="wifiGen__fsm_8c.html" target="_top" xlink:title=" ">
<polygon fill="white" stroke="black" points="0,-0.5 0,-30.5 104,-30.5 104,-0.5 0,-0.5"/>
<text text-anchor="start" x="8" y="-18.5" font-family="Helvetica,sans-Serif" font-size="10.00">src/Plugin/wifiGen</text>
<text text-anchor="middle" x="52" y="-7.5" font-family="Helvetica,sans-Serif" font-size="10.00">_fsm.c</text>
</a>
</g>
</g>
<!-- Node2&#45;&gt;Node3 -->
<g id="edge2" class="edge">
<title>Node2&#45;&gt;Node3</title>
<path fill="none" stroke="midnightblue" d="M266.3,-70.49C221.58,-59.22 152.06,-41.71 104.4,-29.7"/>
<polygon fill="midnightblue" stroke="midnightblue" points="265.45,-73.89 276.01,-72.94 267.16,-67.1 265.45,-73.89"/>
</g>
<!-- Node4 -->
<g id="node4" class="node">
<title>Node4</title>
<g id="a_node4"><a xlink:href="wld__rad__delayMgr_8c.html" target="_top" xlink:title=" ">
<polygon fill="white" stroke="black" points="122.5,-0.5 122.5,-30.5 235.5,-30.5 235.5,-0.5 122.5,-0.5"/>
<text text-anchor="start" x="130.5" y="-18.5" font-family="Helvetica,sans-Serif" font-size="10.00">src/RadMgt/wld_rad</text>
<text text-anchor="middle" x="179" y="-7.5" font-family="Helvetica,sans-Serif" font-size="10.00">_delayMgr.c</text>
</a>
</g>
</g>
<!-- Node2&#45;&gt;Node4 -->
<g id="edge3" class="edge">
<title>Node2&#45;&gt;Node4</title>
<path fill="none" stroke="midnightblue" d="M283.48,-68.34C261.43,-57.4 230.11,-41.86 207.52,-30.65"/>
<polygon fill="midnightblue" stroke="midnightblue" points="282.09,-71.56 292.6,-72.87 285.2,-65.29 282.09,-71.56"/>
</g>
<!-- Node5 -->
<g id="node5" class="node">
<title>Node5</title>
<g id="a_node5"><a xlink:href="wld__rad__evtHandler_8c.html" target="_top" xlink:title=" ">
<polygon fill="white" stroke="black" points="253.5,-0.5 253.5,-30.5 366.5,-30.5 366.5,-0.5 253.5,-0.5"/>
<text text-anchor="start" x="261.5" y="-18.5" font-family="Helvetica,sans-Serif" font-size="10.00">src/RadMgt/wld_rad</text>
<text text-anchor="middle" x="310" y="-7.5" font-family="Helvetica,sans-Serif" font-size="10.00">_evtHandler.c</text>
</a>
</g>
</g>
<!-- Node2&#45;&gt;Node5 -->
<g id="edge4" class="edge">
<title>Node2&#45;&gt;Node5</title>
<path fill="none" stroke="midnightblue" d="M310,-62.41C310,-52.22 310,-39.9 310,-30.59"/>
<polygon fill="midnightblue" stroke="midnightblue" points="306.5,-62.73 310,-72.73 313.5,-62.73 306.5,-62.73"/>
</g>
<!-- Node6 -->
<g id="node6" class="node">
<title>Node6</title>
<g id="a_node6"><a xlink:href="wld__rad__scan_8c.html" target="_top" xlink:title=" ">
<polygon fill="white" stroke="black" points="384.5,-0.5 384.5,-30.5 497.5,-30.5 497.5,-0.5 384.5,-0.5"/>
<text text-anchor="start" x="392.5" y="-18.5" font-family="Helvetica,sans-Serif" font-size="10.00">src/RadMgt/wld_rad</text>
<text text-anchor="middle" x="441" y="-7.5" font-family="Helvetica,sans-Serif" font-size="10.00">_scan.c</text>
</a>
</g>
</g>
<!-- Node2&#45;&gt;Node6 -->
<g id="edge5" class="edge">
<title>Node2&#45;&gt;Node6</title>
<path fill="none" stroke="midnightblue" d="M336.52,-68.34C358.57,-57.4 389.89,-41.86 412.48,-30.65"/>
<polygon fill="midnightblue" stroke="midnightblue" points="334.8,-65.29 327.4,-72.87 337.91,-71.56 334.8,-65.29"/>
</g>
<!-- Node8 -->
<g id="node8" class="node">
<title>Node8</title>
<g id="a_node8"><a xlink:href="wld__ap__nl80211_8c.html" target="_top" xlink:title=" ">
<polygon fill="white" stroke="black" points="516,-0.5 516,-30.5 626,-30.5 626,-0.5 516,-0.5"/>
<text text-anchor="start" x="524" y="-18.5" font-family="Helvetica,sans-Serif" font-size="10.00">src/nl80211/wld_ap</text>
<text text-anchor="middle" x="571" y="-7.5" font-family="Helvetica,sans-Serif" font-size="10.00">_nl80211.c</text>
</a>
</g>
</g>
<!-- Node7&#45;&gt;Node8 -->
<g id="edge7" class="edge">
<title>Node7&#45;&gt;Node8</title>
<path fill="none" stroke="midnightblue" d="M662.28,-62.85C642.04,-52.58 617.33,-40.03 598.72,-30.58"/>
<polygon fill="midnightblue" stroke="midnightblue" points="660.72,-65.99 671.23,-67.4 663.89,-59.75 660.72,-65.99"/>
</g>
<!-- Node9 -->
<g id="node9" class="node">
<title>Node9</title>
<g id="a_node9"><a xlink:href="wld__ep__nl80211_8c.html" target="_top" xlink:title=" ">
<polygon fill="white" stroke="black" points="644,-0.5 644,-30.5 754,-30.5 754,-0.5 644,-0.5"/>
<text text-anchor="start" x="652" y="-18.5" font-family="Helvetica,sans-Serif" font-size="10.00">src/nl80211/wld_ep</text>
<text text-anchor="middle" x="699" y="-7.5" font-family="Helvetica,sans-Serif" font-size="10.00">_nl80211.c</text>
</a>
</g>
</g>
<!-- Node7&#45;&gt;Node9 -->
<g id="edge8" class="edge">
<title>Node7&#45;&gt;Node9</title>
<path fill="none" stroke="midnightblue" d="M699,-57.11C699,-48.15 699,-38.32 699,-30.58"/>
<polygon fill="midnightblue" stroke="midnightblue" points="695.5,-57.4 699,-67.4 702.5,-57.4 695.5,-57.4"/>
</g>
<!-- Node10 -->
<g id="node10" class="node">
<title>Node10</title>
<g id="a_node10"><a xlink:href="wld__rad__nl80211_8c.html" target="_top" xlink:title=" ">
<polygon fill="white" stroke="black" points="772,-0.5 772,-30.5 886,-30.5 886,-0.5 772,-0.5"/>
<text text-anchor="start" x="780" y="-18.5" font-family="Helvetica,sans-Serif" font-size="10.00">src/nl80211/wld_rad</text>
<text text-anchor="middle" x="829" y="-7.5" font-family="Helvetica,sans-Serif" font-size="10.00">_nl80211.c</text>
</a>
</g>
</g>
<!-- Node7&#45;&gt;Node10 -->
<g id="edge9" class="edge">
<title>Node7&#45;&gt;Node10</title>
<path fill="none" stroke="midnightblue" d="M736.29,-62.85C756.85,-52.58 781.95,-40.03 800.85,-30.58"/>
<polygon fill="midnightblue" stroke="midnightblue" points="734.59,-59.79 727.21,-67.4 737.72,-66.05 734.59,-59.79"/>
</g>
<!-- Node11 -->
<g id="node11" class="node">
<title>Node11</title>
<g id="a_node11"><a xlink:href="wld__ssid__nl80211_8c.html" target="_top" xlink:title=" ">
<polygon fill="white" stroke="black" points="904,-0.5 904,-30.5 1022,-30.5 1022,-0.5 904,-0.5"/>
<text text-anchor="start" x="912" y="-18.5" font-family="Helvetica,sans-Serif" font-size="10.00">src/nl80211/wld_ssid</text>
<text text-anchor="middle" x="963" y="-7.5" font-family="Helvetica,sans-Serif" font-size="10.00">_nl80211.c</text>
</a>
</g>
</g>
<!-- Node7&#45;&gt;Node11 -->
<g id="edge10" class="edge">
<title>Node7&#45;&gt;Node11</title>
<path fill="none" stroke="midnightblue" d="M765.81,-65.05C808.97,-54.43 864.54,-40.74 905.69,-30.61"/>
<polygon fill="midnightblue" stroke="midnightblue" points="764.83,-61.69 755.96,-67.48 766.51,-68.48 764.83,-61.69"/>
</g>
</g>
</svg>
