<?xml version="1.0" encoding="UTF-8" standalone="no"?>
<!DOCTYPE svg PUBLIC "-//W3C//DTD SVG 1.1//EN"
 "http://www.w3.org/Graphics/SVG/1.1/DTD/svg11.dtd">
<!-- Generated by graphviz version 2.43.0 (0)
 -->
<!-- Title: include/wld/wld_assocdev.h Pages: 1 -->
<svg width="4672pt" height="162pt"
 viewBox="0.00 0.00 4672.00 162.00" xmlns="http://www.w3.org/2000/svg" xmlns:xlink="http://www.w3.org/1999/xlink">
<g id="graph0" class="graph" transform="scale(1 1) rotate(0) translate(4 158)">
<title>include/wld/wld_assocdev.h</title>
<polygon fill="white" stroke="transparent" points="-4,4 -4,-158 4668,-158 4668,4 -4,4"/>
<!-- Node1 -->
<g id="node1" class="node">
<title>Node1</title>
<g id="a_node1"><a xlink:title=" ">
<polygon fill="#bfbfbf" stroke="black" points="2523,-134.5 2523,-153.5 2675,-153.5 2675,-134.5 2523,-134.5"/>
<text text-anchor="middle" x="2599" y="-141.5" font-family="Helvetica,sans-Serif" font-size="10.00">include/wld/wld_assocdev.h</text>
</a>
</g>
</g>
<!-- Node2 -->
<g id="node2" class="node">
<title>Node2</title>
<g id="a_node2"><a xlink:href="wld__common_8h.html" target="_top" xlink:title=" ">
<polygon fill="white" stroke="black" points="169.5,-73 169.5,-92 318.5,-92 318.5,-73 169.5,-73"/>
<text text-anchor="middle" x="244" y="-80" font-family="Helvetica,sans-Serif" font-size="10.00">include/wld/wld_common.h</text>
</a>
</g>
</g>
<!-- Node1&#45;&gt;Node2 -->
<g id="edge1" class="edge">
<title>Node1&#45;&gt;Node2</title>
<path fill="none" stroke="midnightblue" d="M2512.78,-143.04C2152.23,-142.91 763.84,-139.69 328,-98 314.3,-96.69 299.47,-94.42 286.13,-92.06"/>
<polygon fill="midnightblue" stroke="midnightblue" points="2512.89,-146.54 2522.89,-143.04 2512.89,-139.54 2512.89,-146.54"/>
</g>
<!-- Node7 -->
<g id="node7" class="node">
<title>Node7</title>
<g id="a_node7"><a xlink:href="wld__ap__bss__transfer_8c.html" target="_top" xlink:title=" ">
<polygon fill="white" stroke="black" points="336.5,-67.5 336.5,-97.5 461.5,-97.5 461.5,-67.5 336.5,-67.5"/>
<text text-anchor="start" x="344.5" y="-85.5" font-family="Helvetica,sans-Serif" font-size="10.00">src/ApMgt/wld_ap_bss</text>
<text text-anchor="middle" x="399" y="-74.5" font-family="Helvetica,sans-Serif" font-size="10.00">_transfer.c</text>
</a>
</g>
</g>
<!-- Node1&#45;&gt;Node7 -->
<g id="edge6" class="edge">
<title>Node1&#45;&gt;Node7</title>
<path fill="none" stroke="midnightblue" d="M2512.51,-143.22C2165.89,-143.78 876.55,-142.77 471,-98 467.96,-97.66 464.85,-97.26 461.73,-96.81"/>
<polygon fill="midnightblue" stroke="midnightblue" points="2512.73,-146.72 2522.73,-143.2 2512.72,-139.72 2512.73,-146.72"/>
</g>
<!-- Node8 -->
<g id="node8" class="node">
<title>Node8</title>
<g id="a_node8"><a xlink:href="wld__ap__macfilter_8c.html" target="_top" xlink:title=" ">
<polygon fill="white" stroke="black" points="479.5,-73 479.5,-92 638.5,-92 638.5,-73 479.5,-73"/>
<text text-anchor="middle" x="559" y="-80" font-family="Helvetica,sans-Serif" font-size="10.00">src/ApMgt/wld_ap_macfilter.c</text>
</a>
</g>
</g>
<!-- Node1&#45;&gt;Node8 -->
<g id="edge7" class="edge">
<title>Node1&#45;&gt;Node8</title>
<path fill="none" stroke="midnightblue" d="M2512.49,-142.6C2184.52,-140.83 1017.72,-132.22 648,-98 633.5,-96.66 617.79,-94.38 603.66,-92.02"/>
<polygon fill="midnightblue" stroke="midnightblue" points="2512.85,-146.1 2522.87,-142.65 2512.89,-139.1 2512.85,-146.1"/>
</g>
<!-- Node9 -->
<g id="node9" class="node">
<title>Node9</title>
<g id="a_node9"><a xlink:href="wld__ap__neighbours_8c.html" target="_top" xlink:title=" ">
<polygon fill="white" stroke="black" points="657,-73 657,-92 827,-92 827,-73 657,-73"/>
<text text-anchor="middle" x="742" y="-80" font-family="Helvetica,sans-Serif" font-size="10.00">src/ApMgt/wld_ap_neighbours.c</text>
</a>
</g>
</g>
<!-- Node1&#45;&gt;Node9 -->
<g id="edge8" class="edge">
<title>Node1&#45;&gt;Node9</title>
<path fill="none" stroke="midnightblue" d="M2512.69,-142.26C2205.67,-139.38 1167.21,-127.65 836,-98 820.87,-96.65 804.47,-94.39 789.68,-92.06"/>
<polygon fill="midnightblue" stroke="midnightblue" points="2512.83,-145.76 2522.87,-142.35 2512.9,-138.76 2512.83,-145.76"/>
</g>
<!-- Node10 -->
<g id="node10" class="node">
<title>Node10</title>
<g id="a_node10"><a xlink:href="wld__ap__rrm_8c.html" target="_top" xlink:title=" ">
<polygon fill="white" stroke="black" points="845,-73 845,-92 979,-92 979,-73 845,-73"/>
<text text-anchor="middle" x="912" y="-80" font-family="Helvetica,sans-Serif" font-size="10.00">src/ApMgt/wld_ap_rrm.c</text>
</a>
</g>
</g>
<!-- Node1&#45;&gt;Node10 -->
<g id="edge9" class="edge">
<title>Node1&#45;&gt;Node10</title>
<path fill="none" stroke="midnightblue" d="M2512.58,-142.42C2222.87,-140.18 1287.47,-130.54 988,-98 975.58,-96.65 962.16,-94.37 950.09,-92.01"/>
<polygon fill="midnightblue" stroke="midnightblue" points="2512.59,-145.92 2522.61,-142.49 2512.64,-138.92 2512.59,-145.92"/>
</g>
<!-- Node11 -->
<g id="node11" class="node">
<title>Node11</title>
<g id="a_node11"><a xlink:href="wld__ap__rssiMonitor_8c.html" target="_top" xlink:title=" ">
<polygon fill="white" stroke="black" points="997,-73 997,-92 1167,-92 1167,-73 997,-73"/>
<text text-anchor="middle" x="1082" y="-80" font-family="Helvetica,sans-Serif" font-size="10.00">src/ApMgt/wld_ap_rssiMonitor.c</text>
</a>
</g>
</g>
<!-- Node1&#45;&gt;Node11 -->
<g id="edge10" class="edge">
<title>Node1&#45;&gt;Node11</title>
<path fill="none" stroke="midnightblue" d="M2512.88,-141.65C2246.43,-137.26 1437.67,-122.23 1176,-98 1160.87,-96.6 1144.48,-94.33 1129.68,-92"/>
<polygon fill="midnightblue" stroke="midnightblue" points="2512.83,-145.15 2522.89,-141.81 2512.95,-138.15 2512.83,-145.15"/>
</g>
<!-- Node12 -->
<g id="node12" class="node">
<title>Node12</title>
<g id="a_node12"><a xlink:href="wld__ap__security_8c.html" target="_top" xlink:title=" ">
<polygon fill="white" stroke="black" points="1185,-73 1185,-92 1339,-92 1339,-73 1185,-73"/>
<text text-anchor="middle" x="1262" y="-80" font-family="Helvetica,sans-Serif" font-size="10.00">src/ApMgt/wld_ap_security.c</text>
</a>
</g>
</g>
<!-- Node1&#45;&gt;Node12 -->
<g id="edge11" class="edge">
<title>Node1&#45;&gt;Node12</title>
<path fill="none" stroke="midnightblue" d="M2512.95,-143.78C2309.69,-144.78 1784.14,-142.42 1348,-98 1334.29,-96.6 1319.46,-94.37 1306.04,-92.07"/>
<polygon fill="midnightblue" stroke="midnightblue" points="2512.98,-147.28 2522.96,-143.73 2512.95,-140.28 2512.98,-147.28"/>
</g>
<!-- Node13 -->
<g id="node13" class="node">
<title>Node13</title>
<g id="a_node13"><a xlink:href="wld__chanmgt_8c.html" target="_top" xlink:title=" ">
<polygon fill="white" stroke="black" points="1357,-67.5 1357,-97.5 1495,-97.5 1495,-67.5 1357,-67.5"/>
<text text-anchor="start" x="1365" y="-85.5" font-family="Helvetica,sans-Serif" font-size="10.00">src/ChannelManagement</text>
<text text-anchor="middle" x="1426" y="-74.5" font-family="Helvetica,sans-Serif" font-size="10.00">/wld_chanmgt.c</text>
</a>
</g>
</g>
<!-- Node1&#45;&gt;Node13 -->
<g id="edge12" class="edge">
<title>Node1&#45;&gt;Node13</title>
<path fill="none" stroke="midnightblue" d="M2512.57,-143.56C2327.29,-143.85 1878.37,-139.73 1505,-98 1501.81,-97.64 1498.56,-97.23 1495.28,-96.78"/>
<polygon fill="midnightblue" stroke="midnightblue" points="2512.8,-147.06 2522.79,-143.54 2512.78,-140.06 2512.8,-147.06"/>
</g>
<!-- Node14 -->
<g id="node14" class="node">
<title>Node14</title>
<g id="a_node14"><a xlink:href="wld__epProfile_8c.html" target="_top" xlink:title=" ">
<polygon fill="white" stroke="black" points="1513.5,-73 1513.5,-92 1654.5,-92 1654.5,-73 1513.5,-73"/>
<text text-anchor="middle" x="1584" y="-80" font-family="Helvetica,sans-Serif" font-size="10.00">src/EpMgt/wld_epProfile.c</text>
</a>
</g>
</g>
<!-- Node1&#45;&gt;Node14 -->
<g id="edge13" class="edge">
<title>Node1&#45;&gt;Node14</title>
<path fill="none" stroke="midnightblue" d="M2512.88,-142.62C2347.71,-141.07 1975.17,-133.53 1664,-98 1651.38,-96.56 1637.74,-94.34 1625.37,-92.07"/>
<polygon fill="midnightblue" stroke="midnightblue" points="2512.95,-146.12 2522.98,-142.71 2513.01,-139.12 2512.95,-146.12"/>
</g>
<!-- Node15 -->
<g id="node15" class="node">
<title>Node15</title>
<g id="a_node15"><a xlink:href="wifiGen__eventHandlers_8c.html" target="_top" xlink:title=" ">
<polygon fill="white" stroke="black" points="1673,-67.5 1673,-97.5 1777,-97.5 1777,-67.5 1673,-67.5"/>
<text text-anchor="start" x="1681" y="-85.5" font-family="Helvetica,sans-Serif" font-size="10.00">src/Plugin/wifiGen</text>
<text text-anchor="middle" x="1725" y="-74.5" font-family="Helvetica,sans-Serif" font-size="10.00">_eventHandlers.c</text>
</a>
</g>
</g>
<!-- Node1&#45;&gt;Node15 -->
<g id="edge14" class="edge">
<title>Node1&#45;&gt;Node15</title>
<path fill="none" stroke="midnightblue" d="M2512.89,-143.25C2363.95,-142.57 2048.9,-136.21 1786,-98 1783.09,-97.58 1780.12,-97.08 1777.13,-96.54"/>
<polygon fill="midnightblue" stroke="midnightblue" points="2512.88,-146.75 2522.89,-143.29 2512.91,-139.75 2512.88,-146.75"/>
</g>
<!-- Node16 -->
<g id="node16" class="node">
<title>Node16</title>
<g id="a_node16"><a xlink:href="wifiGen__vap_8c.html" target="_top" xlink:title=" ">
<polygon fill="white" stroke="black" points="1795,-67.5 1795,-97.5 1899,-97.5 1899,-67.5 1795,-67.5"/>
<text text-anchor="start" x="1803" y="-85.5" font-family="Helvetica,sans-Serif" font-size="10.00">src/Plugin/wifiGen</text>
<text text-anchor="middle" x="1847" y="-74.5" font-family="Helvetica,sans-Serif" font-size="10.00">_vap.c</text>
</a>
</g>
</g>
<!-- Node1&#45;&gt;Node16 -->
<g id="edge15" class="edge">
<title>Node1&#45;&gt;Node16</title>
<path fill="none" stroke="midnightblue" d="M2512.38,-141.92C2381.16,-139.24 2124.47,-130 1909,-98 1905.83,-97.53 1902.58,-96.98 1899.31,-96.37"/>
<polygon fill="midnightblue" stroke="midnightblue" points="2512.69,-145.42 2522.76,-142.12 2512.83,-138.42 2512.69,-145.42"/>
</g>
<!-- Node17 -->
<g id="node17" class="node">
<title>Node17</title>
<g id="a_node17"><a xlink:href="wld__rad__ifMgt_8c.html" target="_top" xlink:title=" ">
<polygon fill="white" stroke="black" points="1917.5,-67.5 1917.5,-97.5 2030.5,-97.5 2030.5,-67.5 1917.5,-67.5"/>
<text text-anchor="start" x="1925.5" y="-85.5" font-family="Helvetica,sans-Serif" font-size="10.00">src/RadMgt/wld_rad</text>
<text text-anchor="middle" x="1974" y="-74.5" font-family="Helvetica,sans-Serif" font-size="10.00">_ifMgt.c</text>
</a>
</g>
</g>
<!-- Node1&#45;&gt;Node17 -->
<g id="edge16" class="edge">
<title>Node1&#45;&gt;Node17</title>
<path fill="none" stroke="midnightblue" d="M2512.61,-139.69C2402.42,-134.64 2206.21,-122.83 2040,-98 2036.98,-97.55 2033.9,-97.04 2030.79,-96.49"/>
<polygon fill="midnightblue" stroke="midnightblue" points="2512.53,-143.19 2522.68,-140.14 2512.84,-136.2 2512.53,-143.19"/>
</g>
<!-- Node18 -->
<g id="node18" class="node">
<title>Node18</title>
<g id="a_node18"><a xlink:href="wld__monitor_8c.html" target="_top" xlink:title=" ">
<polygon fill="white" stroke="black" points="2049,-73 2049,-92 2177,-92 2177,-73 2049,-73"/>
<text text-anchor="middle" x="2113" y="-80" font-family="Helvetica,sans-Serif" font-size="10.00">src/Utils/wld_monitor.c</text>
</a>
</g>
</g>
<!-- Node1&#45;&gt;Node18 -->
<g id="edge17" class="edge">
<title>Node1&#45;&gt;Node18</title>
<path fill="none" stroke="midnightblue" d="M2512.61,-135.71C2429.05,-128.15 2298.99,-115.06 2187,-98 2176,-96.32 2164.15,-94.16 2153.22,-92.02"/>
<polygon fill="midnightblue" stroke="midnightblue" points="2512.54,-139.22 2522.81,-136.63 2513.17,-132.25 2512.54,-139.22"/>
</g>
<!-- Node19 -->
<g id="node19" class="node">
<title>Node19</title>
<g id="a_node19"><a xlink:href="wld__hostapd__ap__api_8c.html" target="_top" xlink:title=" ">
<polygon fill="white" stroke="black" points="2195.5,-67.5 2195.5,-97.5 2332.5,-97.5 2332.5,-67.5 2195.5,-67.5"/>
<text text-anchor="start" x="2203.5" y="-85.5" font-family="Helvetica,sans-Serif" font-size="10.00">src/nl80211/wld_hostapd</text>
<text text-anchor="middle" x="2264" y="-74.5" font-family="Helvetica,sans-Serif" font-size="10.00">_ap_api.c</text>
</a>
</g>
</g>
<!-- Node1&#45;&gt;Node19 -->
<g id="edge18" class="edge">
<title>Node1&#45;&gt;Node19</title>
<path fill="none" stroke="midnightblue" d="M2539.15,-132.7C2487.05,-123.69 2409.49,-110.18 2342,-98 2339.02,-97.46 2335.97,-96.91 2332.9,-96.35"/>
<polygon fill="midnightblue" stroke="midnightblue" points="2538.77,-136.19 2549.22,-134.44 2539.97,-129.29 2538.77,-136.19"/>
</g>
<!-- Node20 -->
<g id="node20" class="node">
<title>Node20</title>
<g id="a_node20"><a xlink:href="wld__accesspoint_8c.html" target="_top" xlink:title=" ">
<polygon fill="white" stroke="black" points="2351,-73 2351,-92 2473,-92 2473,-73 2351,-73"/>
<text text-anchor="middle" x="2412" y="-80" font-family="Helvetica,sans-Serif" font-size="10.00">src/wld_accesspoint.c</text>
</a>
</g>
</g>
<!-- Node1&#45;&gt;Node20 -->
<g id="edge19" class="edge">
<title>Node1&#45;&gt;Node20</title>
<path fill="none" stroke="midnightblue" d="M2562.48,-131.38C2526.13,-119.82 2471.21,-102.34 2438.74,-92.01"/>
<polygon fill="midnightblue" stroke="midnightblue" points="2561.62,-134.78 2572.21,-134.48 2563.74,-128.11 2561.62,-134.78"/>
</g>
<!-- Node21 -->
<g id="node21" class="node">
<title>Node21</title>
<g id="a_node21"><a xlink:href="wld__apMld_8c.html" target="_top" xlink:title=" ">
<polygon fill="white" stroke="black" points="2491.5,-73 2491.5,-92 2586.5,-92 2586.5,-73 2491.5,-73"/>
<text text-anchor="middle" x="2539" y="-80" font-family="Helvetica,sans-Serif" font-size="10.00">src/wld_apMld.c</text>
</a>
</g>
</g>
<!-- Node1&#45;&gt;Node21 -->
<g id="edge20" class="edge">
<title>Node1&#45;&gt;Node21</title>
<path fill="none" stroke="midnightblue" d="M2583.19,-127.32C2571.79,-116.02 2556.84,-101.19 2547.58,-92.01"/>
<polygon fill="midnightblue" stroke="midnightblue" points="2580.84,-129.92 2590.4,-134.48 2585.77,-124.95 2580.84,-129.92"/>
</g>
<!-- Node22 -->
<g id="node22" class="node">
<title>Node22</title>
<g id="a_node22"><a xlink:href="wld__assocdev_8c.html" target="_top" xlink:title=" ">
<polygon fill="white" stroke="black" points="2605,-73 2605,-92 2715,-92 2715,-73 2605,-73"/>
<text text-anchor="middle" x="2660" y="-80" font-family="Helvetica,sans-Serif" font-size="10.00">src/wld_assocdev.c</text>
</a>
</g>
</g>
<!-- Node1&#45;&gt;Node22 -->
<g id="edge21" class="edge">
<title>Node1&#45;&gt;Node22</title>
<path fill="none" stroke="midnightblue" d="M2615.07,-127.32C2626.66,-116.02 2641.86,-101.19 2651.28,-92.01"/>
<polygon fill="midnightblue" stroke="midnightblue" points="2612.45,-124.99 2607.74,-134.48 2617.34,-130 2612.45,-124.99"/>
</g>
<!-- Node23 -->
<g id="node23" class="node">
<title>Node23</title>
<g id="a_node23"><a xlink:href="wld__endpoint_8c.html" target="_top" xlink:title=" ">
<polygon fill="white" stroke="black" points="2733.5,-73 2733.5,-92 2840.5,-92 2840.5,-73 2733.5,-73"/>
<text text-anchor="middle" x="2787" y="-80" font-family="Helvetica,sans-Serif" font-size="10.00">src/wld_endpoint.c</text>
</a>
</g>
</g>
<!-- Node1&#45;&gt;Node23 -->
<g id="edge22" class="edge">
<title>Node1&#45;&gt;Node23</title>
<path fill="none" stroke="midnightblue" d="M2635.71,-131.38C2672.26,-119.82 2727.47,-102.34 2760.11,-92.01"/>
<polygon fill="midnightblue" stroke="midnightblue" points="2634.41,-128.12 2625.94,-134.48 2636.53,-134.79 2634.41,-128.12"/>
</g>
<!-- Node24 -->
<g id="node24" class="node">
<title>Node24</title>
<g id="a_node24"><a xlink:href="wld__radio_8c.html" target="_top" xlink:title=" ">
<polygon fill="white" stroke="black" points="2858.5,-73 2858.5,-92 2947.5,-92 2947.5,-73 2858.5,-73"/>
<text text-anchor="middle" x="2903" y="-80" font-family="Helvetica,sans-Serif" font-size="10.00">src/wld_radio.c</text>
</a>
</g>
</g>
<!-- Node1&#45;&gt;Node24 -->
<g id="edge23" class="edge">
<title>Node1&#45;&gt;Node24</title>
<path fill="none" stroke="midnightblue" d="M2664.49,-132.91C2715.33,-124.68 2787.45,-112.13 2850,-98 2857.72,-96.25 2866.01,-94.12 2873.68,-92.02"/>
<polygon fill="midnightblue" stroke="midnightblue" points="2663.94,-129.45 2654.62,-134.5 2665.05,-136.36 2663.94,-129.45"/>
</g>
<!-- Node25 -->
<g id="node25" class="node">
<title>Node25</title>
<g id="a_node25"><a xlink:href="test__fta_8c.html" target="_top" xlink:title=" ">
<polygon fill="white" stroke="black" points="2965.5,-73 2965.5,-92 3064.5,-92 3064.5,-73 2965.5,-73"/>
<text text-anchor="middle" x="3015" y="-80" font-family="Helvetica,sans-Serif" font-size="10.00">test/fta/test_fta.c</text>
</a>
</g>
</g>
<!-- Node1&#45;&gt;Node25 -->
<g id="edge24" class="edge">
<title>Node1&#45;&gt;Node25</title>
<path fill="none" stroke="midnightblue" d="M2685.23,-135.09C2758.02,-127.72 2864.82,-115.25 2957,-98 2965.77,-96.36 2975.2,-94.18 2983.85,-92.02"/>
<polygon fill="midnightblue" stroke="midnightblue" points="2684.79,-131.62 2675.19,-136.1 2685.48,-138.58 2684.79,-131.62"/>
</g>
<!-- Node26 -->
<g id="node26" class="node">
<title>Node26</title>
<g id="a_node26"><a xlink:href="test__startStop_8c.html" target="_top" xlink:title=" ">
<polygon fill="white" stroke="black" points="3083,-67.5 3083,-97.5 3187,-97.5 3187,-67.5 3083,-67.5"/>
<text text-anchor="start" x="3091" y="-85.5" font-family="Helvetica,sans-Serif" font-size="10.00">test/startStop/test</text>
<text text-anchor="middle" x="3135" y="-74.5" font-family="Helvetica,sans-Serif" font-size="10.00">_startStop.c</text>
</a>
</g>
</g>
<!-- Node1&#45;&gt;Node26 -->
<g id="edge25" class="edge">
<title>Node1&#45;&gt;Node26</title>
<path fill="none" stroke="midnightblue" d="M2685.29,-138.44C2780.83,-132.55 2939.16,-120.3 3074,-98 3076.9,-97.52 3079.87,-96.98 3082.85,-96.4"/>
<polygon fill="midnightblue" stroke="midnightblue" points="2684.87,-134.96 2675.1,-139.06 2685.3,-141.94 2684.87,-134.96"/>
</g>
<!-- Node27 -->
<g id="node27" class="node">
<title>Node27</title>
<g id="a_node27"><a xlink:href="test__enableSync_8c.html" target="_top" xlink:title=" ">
<polygon fill="white" stroke="black" points="3205.5,-67.5 3205.5,-97.5 3318.5,-97.5 3318.5,-67.5 3205.5,-67.5"/>
<text text-anchor="start" x="3213.5" y="-85.5" font-family="Helvetica,sans-Serif" font-size="10.00">test/testEnableSync</text>
<text text-anchor="middle" x="3262" y="-74.5" font-family="Helvetica,sans-Serif" font-size="10.00">/test_enableSync.c</text>
</a>
</g>
</g>
<!-- Node1&#45;&gt;Node27 -->
<g id="edge26" class="edge">
<title>Node1&#45;&gt;Node27</title>
<path fill="none" stroke="midnightblue" d="M2685.52,-140.3C2802.03,-135.8 3015.57,-124.49 3196,-98 3199.02,-97.56 3202.1,-97.05 3205.21,-96.51"/>
<polygon fill="midnightblue" stroke="midnightblue" points="2685.1,-136.82 2675.24,-140.69 2685.37,-143.81 2685.1,-136.82"/>
</g>
<!-- Node28 -->
<g id="node28" class="node">
<title>Node28</title>
<g id="a_node28"><a xlink:href="wld__th__dm_8c.html" target="_top" xlink:title=" ">
<polygon fill="white" stroke="black" points="3337,-67.5 3337,-97.5 3447,-97.5 3447,-67.5 3337,-67.5"/>
<text text-anchor="start" x="3345" y="-85.5" font-family="Helvetica,sans-Serif" font-size="10.00">test/testHelper/wld</text>
<text text-anchor="middle" x="3392" y="-74.5" font-family="Helvetica,sans-Serif" font-size="10.00">_th_dm.c</text>
</a>
</g>
</g>
<!-- Node1&#45;&gt;Node28 -->
<g id="edge27" class="edge">
<title>Node1&#45;&gt;Node28</title>
<path fill="none" stroke="midnightblue" d="M2685.25,-142.16C2822.15,-139.83 3097.32,-131.03 3328,-98 3330.93,-97.58 3333.93,-97.1 3336.95,-96.56"/>
<polygon fill="midnightblue" stroke="midnightblue" points="2685.18,-138.66 2675.23,-142.33 2685.29,-145.66 2685.18,-138.66"/>
</g>
<!-- Node29 -->
<g id="node29" class="node">
<title>Node29</title>
<g id="a_node29"><a xlink:href="wld__th__sensing_8c.html" target="_top" xlink:title=" ">
<polygon fill="white" stroke="black" points="3465,-67.5 3465,-97.5 3575,-97.5 3575,-67.5 3465,-67.5"/>
<text text-anchor="start" x="3473" y="-85.5" font-family="Helvetica,sans-Serif" font-size="10.00">test/testHelper/wld</text>
<text text-anchor="middle" x="3520" y="-74.5" font-family="Helvetica,sans-Serif" font-size="10.00">_th_sensing.c</text>
</a>
</g>
</g>
<!-- Node1&#45;&gt;Node29 -->
<g id="edge28" class="edge">
<title>Node1&#45;&gt;Node29</title>
<path fill="none" stroke="midnightblue" d="M2685.48,-143.31C2840.61,-142.79 3176.12,-136.76 3456,-98 3458.93,-97.59 3461.93,-97.12 3464.95,-96.6"/>
<polygon fill="midnightblue" stroke="midnightblue" points="2685.06,-139.81 2675.07,-143.34 2685.08,-146.81 2685.06,-139.81"/>
</g>
<!-- Node30 -->
<g id="node30" class="node">
<title>Node30</title>
<g id="a_node30"><a xlink:href="wld__th__vap_8c.html" target="_top" xlink:title=" ">
<polygon fill="white" stroke="black" points="3593,-67.5 3593,-97.5 3703,-97.5 3703,-67.5 3593,-67.5"/>
<text text-anchor="start" x="3601" y="-85.5" font-family="Helvetica,sans-Serif" font-size="10.00">test/testHelper/wld</text>
<text text-anchor="middle" x="3648" y="-74.5" font-family="Helvetica,sans-Serif" font-size="10.00">_th_vap.c</text>
</a>
</g>
</g>
<!-- Node1&#45;&gt;Node30 -->
<g id="edge29" class="edge">
<title>Node1&#45;&gt;Node30</title>
<path fill="none" stroke="midnightblue" d="M2685.44,-141.02C2892.34,-135.95 3411.64,-121.27 3584,-98 3586.94,-97.6 3589.93,-97.14 3592.95,-96.62"/>
<polygon fill="midnightblue" stroke="midnightblue" points="2685.14,-137.52 2675.23,-141.27 2685.31,-144.52 2685.14,-137.52"/>
</g>
<!-- Node31 -->
<g id="node31" class="node">
<title>Node31</title>
<g id="a_node31"><a xlink:href="test__radio11be_8c.html" target="_top" xlink:title=" ">
<polygon fill="white" stroke="black" points="3721.5,-67.5 3721.5,-97.5 3830.5,-97.5 3830.5,-67.5 3721.5,-67.5"/>
<text text-anchor="start" x="3729.5" y="-85.5" font-family="Helvetica,sans-Serif" font-size="10.00">test/testRadio11be</text>
<text text-anchor="middle" x="3776" y="-74.5" font-family="Helvetica,sans-Serif" font-size="10.00">/test_radio11be.c</text>
</a>
</g>
</g>
<!-- Node1&#45;&gt;Node31 -->
<g id="edge30" class="edge">
<title>Node1&#45;&gt;Node31</title>
<path fill="none" stroke="midnightblue" d="M2685.3,-141.55C2910.82,-137.42 3513.98,-124.21 3712,-98 3715.05,-97.6 3718.17,-97.12 3721.31,-96.58"/>
<polygon fill="midnightblue" stroke="midnightblue" points="2685.1,-138.05 2675.17,-141.73 2685.23,-145.05 2685.1,-138.05"/>
</g>
<!-- Node32 -->
<g id="node32" class="node">
<title>Node32</title>
<g id="a_node32"><a xlink:href="test__radioStatus_8c.html" target="_top" xlink:title=" ">
<polygon fill="white" stroke="black" points="3849,-67.5 3849,-97.5 3965,-97.5 3965,-67.5 3849,-67.5"/>
<text text-anchor="start" x="3857" y="-85.5" font-family="Helvetica,sans-Serif" font-size="10.00">test/testRadioStatus</text>
<text text-anchor="middle" x="3907" y="-74.5" font-family="Helvetica,sans-Serif" font-size="10.00">/test_radioStatus.c</text>
</a>
</g>
</g>
<!-- Node1&#45;&gt;Node32 -->
<g id="edge31" class="edge">
<title>Node1&#45;&gt;Node32</title>
<path fill="none" stroke="midnightblue" d="M2685.24,-141.86C2928.35,-138.32 3616.06,-126.07 3840,-98 3842.83,-97.64 3845.73,-97.23 3848.64,-96.77"/>
<polygon fill="midnightblue" stroke="midnightblue" points="2684.99,-138.36 2675.04,-142.01 2685.09,-145.36 2684.99,-138.36"/>
</g>
<!-- Node33 -->
<g id="node33" class="node">
<title>Node33</title>
<g id="a_node33"><a xlink:href="test__staStats_8c.html" target="_top" xlink:title=" ">
<polygon fill="white" stroke="black" points="3983.5,-67.5 3983.5,-97.5 4102.5,-97.5 4102.5,-67.5 3983.5,-67.5"/>
<text text-anchor="start" x="3991.5" y="-85.5" font-family="Helvetica,sans-Serif" font-size="10.00">test/testStaStats/test</text>
<text text-anchor="middle" x="4043" y="-74.5" font-family="Helvetica,sans-Serif" font-size="10.00">_staStats.c</text>
</a>
</g>
</g>
<!-- Node1&#45;&gt;Node33 -->
<g id="edge32" class="edge">
<title>Node1&#45;&gt;Node33</title>
<path fill="none" stroke="midnightblue" d="M2685.37,-142.14C2946.13,-139.25 3722.89,-128.26 3974,-98 3977.04,-97.63 3980.14,-97.2 3983.27,-96.72"/>
<polygon fill="midnightblue" stroke="midnightblue" points="2685.16,-138.65 2675.2,-142.26 2685.24,-145.65 2685.16,-138.65"/>
</g>
<!-- Node34 -->
<g id="node34" class="node">
<title>Node34</title>
<g id="a_node34"><a xlink:href="test__staStatsWiFi7_8c.html" target="_top" xlink:title=" ">
<polygon fill="white" stroke="black" points="4120.5,-67.5 4120.5,-97.5 4245.5,-97.5 4245.5,-67.5 4120.5,-67.5"/>
<text text-anchor="start" x="4128.5" y="-85.5" font-family="Helvetica,sans-Serif" font-size="10.00">test/testStaStatsWiFi7</text>
<text text-anchor="middle" x="4183" y="-74.5" font-family="Helvetica,sans-Serif" font-size="10.00">/test_staStatsWiFi7.c</text>
</a>
</g>
</g>
<!-- Node1&#45;&gt;Node34 -->
<g id="edge33" class="edge">
<title>Node1&#45;&gt;Node34</title>
<path fill="none" stroke="midnightblue" d="M2685.33,-142.38C2963.24,-140.09 3832.72,-130.43 4112,-98 4114.75,-97.68 4117.55,-97.31 4120.37,-96.9"/>
<polygon fill="midnightblue" stroke="midnightblue" points="2685.27,-138.88 2675.3,-142.46 2685.33,-145.88 2685.27,-138.88"/>
</g>
<!-- Node35 -->
<g id="node35" class="node">
<title>Node35</title>
<g id="a_node35"><a xlink:href="test__channel5G_8c.html" target="_top" xlink:title=" ">
<polygon fill="white" stroke="black" points="4264,-67.5 4264,-97.5 4378,-97.5 4378,-67.5 4264,-67.5"/>
<text text-anchor="start" x="4272" y="-85.5" font-family="Helvetica,sans-Serif" font-size="10.00">test/test_channel5G</text>
<text text-anchor="middle" x="4321" y="-74.5" font-family="Helvetica,sans-Serif" font-size="10.00">/test_channel5G.c</text>
</a>
</g>
</g>
<!-- Node1&#45;&gt;Node35 -->
<g id="edge34" class="edge">
<title>Node1&#45;&gt;Node35</title>
<path fill="none" stroke="midnightblue" d="M2685.32,-142.81C2980.26,-141.82 3946.77,-135.7 4255,-98 4257.91,-97.64 4260.88,-97.22 4263.88,-96.74"/>
<polygon fill="midnightblue" stroke="midnightblue" points="2685.1,-139.31 2675.11,-142.84 2685.13,-146.31 2685.1,-139.31"/>
</g>
<!-- Node36 -->
<g id="node36" class="node">
<title>Node36</title>
<g id="a_node36"><a xlink:href="test__wld__rad__chanMgt_8c.html" target="_top" xlink:title=" ">
<polygon fill="white" stroke="black" points="4396.5,-67.5 4396.5,-97.5 4521.5,-97.5 4521.5,-67.5 4396.5,-67.5"/>
<text text-anchor="start" x="4404.5" y="-85.5" font-family="Helvetica,sans-Serif" font-size="10.00">test/wld_chanMgt/test</text>
<text text-anchor="middle" x="4459" y="-74.5" font-family="Helvetica,sans-Serif" font-size="10.00">_wld_rad_chanMgt.c</text>
</a>
</g>
</g>
<!-- Node1&#45;&gt;Node36 -->
<g id="edge35" class="edge">
<title>Node1&#45;&gt;Node36</title>
<path fill="none" stroke="midnightblue" d="M2685.53,-142.81C2995.74,-141.83 4051.48,-135.72 4387,-98 4390.04,-97.66 4393.14,-97.25 4396.27,-96.8"/>
<polygon fill="midnightblue" stroke="midnightblue" points="2685.24,-139.31 2675.25,-142.84 2685.26,-146.31 2685.24,-139.31"/>
</g>
<!-- Node37 -->
<g id="node37" class="node">
<title>Node37</title>
<g id="a_node37"><a xlink:href="test__wld__fsm_8c.html" target="_top" xlink:title=" ">
<polygon fill="white" stroke="black" points="4540,-67.5 4540,-97.5 4664,-97.5 4664,-67.5 4540,-67.5"/>
<text text-anchor="start" x="4548" y="-85.5" font-family="Helvetica,sans-Serif" font-size="10.00">test/wld_fsm/test_wld</text>
<text text-anchor="middle" x="4602" y="-74.5" font-family="Helvetica,sans-Serif" font-size="10.00">_fsm.c</text>
</a>
</g>
</g>
<!-- Node1&#45;&gt;Node37 -->
<g id="edge36" class="edge">
<title>Node1&#45;&gt;Node37</title>
<path fill="none" stroke="midnightblue" d="M2685.54,-143.03C3011.62,-142.84 4165.94,-139.2 4531,-98 4533.88,-97.68 4536.81,-97.29 4539.76,-96.86"/>
<polygon fill="midnightblue" stroke="midnightblue" points="2685.22,-139.53 2675.22,-143.04 2685.22,-146.53 2685.22,-139.53"/>
</g>
<!-- Node3 -->
<g id="node3" class="node">
<title>Node3</title>
<g id="a_node3"><a xlink:href="wifiGen__fsm_8c.html" target="_top" xlink:title=" ">
<polygon fill="white" stroke="black" points="0,-0.5 0,-30.5 104,-30.5 104,-0.5 0,-0.5"/>
<text text-anchor="start" x="8" y="-18.5" font-family="Helvetica,sans-Serif" font-size="10.00">src/Plugin/wifiGen</text>
<text text-anchor="middle" x="52" y="-7.5" font-family="Helvetica,sans-Serif" font-size="10.00">_fsm.c</text>
</a>
</g>
</g>
<!-- Node2&#45;&gt;Node3 -->
<g id="edge2" class="edge">
<title>Node2&#45;&gt;Node3</title>
<path fill="none" stroke="midnightblue" d="M208.95,-69.63C176.39,-58.61 127.89,-42.19 93.44,-30.53"/>
<polygon fill="midnightblue" stroke="midnightblue" points="207.91,-72.98 218.5,-72.87 210.15,-66.35 207.91,-72.98"/>
</g>
<!-- Node4 -->
<g id="node4" class="node">
<title>Node4</title>
<g id="a_node4"><a xlink:href="wld__rad__delayMgr_8c.html" target="_top" xlink:title=" ">
<polygon fill="white" stroke="black" points="122.5,-0.5 122.5,-30.5 235.5,-30.5 235.5,-0.5 122.5,-0.5"/>
<text text-anchor="start" x="130.5" y="-18.5" font-family="Helvetica,sans-Serif" font-size="10.00">src/RadMgt/wld_rad</text>
<text text-anchor="middle" x="179" y="-7.5" font-family="Helvetica,sans-Serif" font-size="10.00">_delayMgr.c</text>
</a>
</g>
</g>
<!-- Node2&#45;&gt;Node4 -->
<g id="edge3" class="edge">
<title>Node2&#45;&gt;Node4</title>
<path fill="none" stroke="midnightblue" d="M228.12,-65.62C217.41,-54.91 203.4,-40.9 193.09,-30.59"/>
<polygon fill="midnightblue" stroke="midnightblue" points="225.69,-68.14 235.23,-72.73 230.64,-63.19 225.69,-68.14"/>
</g>
<!-- Node5 -->
<g id="node5" class="node">
<title>Node5</title>
<g id="a_node5"><a xlink:href="wld__rad__evtHandler_8c.html" target="_top" xlink:title=" ">
<polygon fill="white" stroke="black" points="253.5,-0.5 253.5,-30.5 366.5,-30.5 366.5,-0.5 253.5,-0.5"/>
<text text-anchor="start" x="261.5" y="-18.5" font-family="Helvetica,sans-Serif" font-size="10.00">src/RadMgt/wld_rad</text>
<text text-anchor="middle" x="310" y="-7.5" font-family="Helvetica,sans-Serif" font-size="10.00">_evtHandler.c</text>
</a>
</g>
</g>
<!-- Node2&#45;&gt;Node5 -->
<g id="edge4" class="edge">
<title>Node2&#45;&gt;Node5</title>
<path fill="none" stroke="midnightblue" d="M260.13,-65.62C271,-54.91 285.22,-40.9 295.69,-30.59"/>
<polygon fill="midnightblue" stroke="midnightblue" points="257.57,-63.22 252.9,-72.73 262.48,-68.21 257.57,-63.22"/>
</g>
<!-- Node6 -->
<g id="node6" class="node">
<title>Node6</title>
<g id="a_node6"><a xlink:href="wld__rad__scan_8c.html" target="_top" xlink:title=" ">
<polygon fill="white" stroke="black" points="384.5,-0.5 384.5,-30.5 497.5,-30.5 497.5,-0.5 384.5,-0.5"/>
<text text-anchor="start" x="392.5" y="-18.5" font-family="Helvetica,sans-Serif" font-size="10.00">src/RadMgt/wld_rad</text>
<text text-anchor="middle" x="441" y="-7.5" font-family="Helvetica,sans-Serif" font-size="10.00">_scan.c</text>
</a>
</g>
</g>
<!-- Node2&#45;&gt;Node6 -->
<g id="edge5" class="edge">
<title>Node2&#45;&gt;Node6</title>
<path fill="none" stroke="midnightblue" d="M279.97,-69.63C313.37,-58.61 363.13,-42.19 398.48,-30.53"/>
<polygon fill="midnightblue" stroke="midnightblue" points="278.56,-66.41 270.16,-72.87 280.75,-73.06 278.56,-66.41"/>
</g>
</g>
</svg>
