<?xml version="1.0" encoding="UTF-8" standalone="no"?>
<!DOCTYPE svg PUBLIC "-//W3C//DTD SVG 1.1//EN"
 "http://www.w3.org/Graphics/SVG/1.1/DTD/svg11.dtd">
<!-- Generated by graphviz version 2.43.0 (0)
 -->
<!-- Title: wld_rad_getFirstEnabledVap Pages: 1 -->
<svg width="774pt" height="218pt"
 viewBox="0.00 0.00 774.00 218.00" xmlns="http://www.w3.org/2000/svg" xmlns:xlink="http://www.w3.org/1999/xlink">
<g id="graph0" class="graph" transform="scale(1 1) rotate(0) translate(4 214)">
<title>wld_rad_getFirstEnabledVap</title>
<polygon fill="white" stroke="transparent" points="-4,4 -4,-214 770,-214 770,4 -4,4"/>
<!-- Node1 -->
<g id="node1" class="node">
<title>Node1</title>
<g id="a_node1"><a xlink:title=" ">
<polygon fill="#bfbfbf" stroke="black" points="612,-76.5 612,-95.5 766,-95.5 766,-76.5 612,-76.5"/>
<text text-anchor="middle" x="689" y="-83.5" font-family="Helvetica,sans-Serif" font-size="10.00">wld_rad_getFirstEnabledVap</text>
</a>
</g>
</g>
<!-- Node2 -->
<g id="node2" class="node">
<title>Node2</title>
<g id="a_node2"><a xlink:href="wld__rad__hostapd__api_8c.html#a8a3cee0adc7064987d4bbdd87c1ba9df" target="_top" xlink:title=" ">
<polygon fill="white" stroke="black" points="397,-114.5 397,-133.5 576,-133.5 576,-114.5 397,-114.5"/>
<text text-anchor="middle" x="486.5" y="-121.5" font-family="Helvetica,sans-Serif" font-size="10.00">wld_rad_hostapd_getCfgMainVap</text>
</a>
</g>
</g>
<!-- Node1&#45;&gt;Node2 -->
<g id="edge1" class="edge">
<title>Node1&#45;&gt;Node2</title>
<path fill="none" stroke="midnightblue" d="M627.75,-97.42C599.07,-102.86 565.15,-109.28 537.86,-114.46"/>
<polygon fill="midnightblue" stroke="midnightblue" points="628.49,-100.84 637.66,-95.54 627.19,-93.96 628.49,-100.84"/>
</g>
<!-- Node7 -->
<g id="node7" class="node">
<title>Node7</title>
<g id="a_node7"><a xlink:href="wld__rad__nl80211_8c.html#a207896b46d08b10868e5b33a3c77aaa2" target="_top" xlink:title=" ">
<polygon fill="white" stroke="black" points="416,-33 416,-63 557,-63 557,-33 416,-33"/>
<text text-anchor="start" x="424" y="-51" font-family="Helvetica,sans-Serif" font-size="10.00">wld_rad_nl80211_getFirst</text>
<text text-anchor="middle" x="486.5" y="-40" font-family="Helvetica,sans-Serif" font-size="10.00">EnabledVapLinkInfo</text>
</a>
</g>
</g>
<!-- Node1&#45;&gt;Node7 -->
<g id="edge6" class="edge">
<title>Node1&#45;&gt;Node7</title>
<path fill="none" stroke="midnightblue" d="M627.7,-74.57C605.49,-70.36 580.15,-65.56 557.18,-61.21"/>
<polygon fill="midnightblue" stroke="midnightblue" points="627.19,-78.04 637.66,-76.46 628.49,-71.16 627.19,-78.04"/>
</g>
<!-- Node3 -->
<g id="node3" class="node">
<title>Node3</title>
<g id="a_node3"><a xlink:href="wifiGen__rad_8c.html#aa2e0292b4ea755002c53ad76b381543e" target="_top" xlink:title=" ">
<polygon fill="white" stroke="black" points="205,-190.5 205,-209.5 339,-209.5 339,-190.5 205,-190.5"/>
<text text-anchor="middle" x="272" y="-197.5" font-family="Helvetica,sans-Serif" font-size="10.00">wifiGen_rad_regDomain</text>
</a>
</g>
</g>
<!-- Node2&#45;&gt;Node3 -->
<g id="edge2" class="edge">
<title>Node2&#45;&gt;Node3</title>
<path fill="none" stroke="midnightblue" d="M458.74,-138.31C433.98,-151.05 395.85,-169.41 361,-181 349.88,-184.7 337.72,-187.86 326.08,-190.48"/>
<polygon fill="midnightblue" stroke="midnightblue" points="460.6,-141.29 467.85,-133.57 457.37,-135.08 460.6,-141.29"/>
</g>
<!-- Node4 -->
<g id="node4" class="node">
<title>Node4</title>
<g id="a_node4"><a xlink:href="wld__rad__hostapd__api_8c.html#aea42b1d7acee5d51484de01cac65c983" target="_top" xlink:title="set main interface channel parameters">
<polygon fill="white" stroke="black" points="192.5,-152.5 192.5,-171.5 351.5,-171.5 351.5,-152.5 192.5,-152.5"/>
<text text-anchor="middle" x="272" y="-159.5" font-family="Helvetica,sans-Serif" font-size="10.00">wld_rad_hostapd_setChannel</text>
</a>
</g>
</g>
<!-- Node2&#45;&gt;Node4 -->
<g id="edge3" class="edge">
<title>Node2&#45;&gt;Node4</title>
<path fill="none" stroke="midnightblue" d="M422.05,-135.35C391.56,-140.8 355.42,-147.26 326.37,-152.46"/>
<polygon fill="midnightblue" stroke="midnightblue" points="422.92,-138.75 432.15,-133.54 421.69,-131.86 422.92,-138.75"/>
</g>
<!-- Node5 -->
<g id="node5" class="node">
<title>Node5</title>
<g id="a_node5"><a xlink:href="wld__rad__hostapd__api_8c.html#a5411827e8b4ab433c4f62efe4dee6b5e" target="_top" xlink:title=" ">
<polygon fill="white" stroke="black" points="183,-114.5 183,-133.5 361,-133.5 361,-114.5 183,-114.5"/>
<text text-anchor="middle" x="272" y="-121.5" font-family="Helvetica,sans-Serif" font-size="10.00">wld_rad_hostapd_setMiscParams</text>
</a>
</g>
</g>
<!-- Node2&#45;&gt;Node5 -->
<g id="edge4" class="edge">
<title>Node2&#45;&gt;Node5</title>
<path fill="none" stroke="midnightblue" d="M386.87,-124C378.27,-124 369.6,-124 361.1,-124"/>
<polygon fill="midnightblue" stroke="midnightblue" points="386.92,-127.5 396.92,-124 386.92,-120.5 386.92,-127.5"/>
</g>
<!-- Node6 -->
<g id="node6" class="node">
<title>Node6</title>
<g id="a_node6"><a xlink:href="wld__rad__hostapd__api_8c.html#ae3724d3039cb19c8000f90b4087f55d7" target="_top" xlink:title="switch the channel">
<polygon fill="white" stroke="black" points="184,-76.5 184,-95.5 360,-95.5 360,-76.5 184,-76.5"/>
<text text-anchor="middle" x="272" y="-83.5" font-family="Helvetica,sans-Serif" font-size="10.00">wld_rad_hostapd_switchChannel</text>
</a>
</g>
</g>
<!-- Node2&#45;&gt;Node6 -->
<g id="edge5" class="edge">
<title>Node2&#45;&gt;Node6</title>
<path fill="none" stroke="midnightblue" d="M422.05,-112.65C391.56,-107.2 355.42,-100.74 326.37,-95.54"/>
<polygon fill="midnightblue" stroke="midnightblue" points="421.69,-116.14 432.15,-114.46 422.92,-109.25 421.69,-116.14"/>
</g>
<!-- Node8 -->
<g id="node8" class="node">
<title>Node8</title>
<g id="a_node8"><a xlink:href="wld__rad__nl80211_8c.html#a612fc4497ec8133b6181e77a74bc7d0e" target="_top" xlink:title=" ">
<polygon fill="white" stroke="black" points="194,-38.5 194,-57.5 350,-57.5 350,-38.5 194,-38.5"/>
<text text-anchor="middle" x="272" y="-45.5" font-family="Helvetica,sans-Serif" font-size="10.00">wld_rad_nl80211_bgDfsStart</text>
</a>
</g>
</g>
<!-- Node7&#45;&gt;Node8 -->
<g id="edge7" class="edge">
<title>Node7&#45;&gt;Node8</title>
<path fill="none" stroke="midnightblue" d="M405.9,-48C387.63,-48 368.24,-48 350.08,-48"/>
<polygon fill="midnightblue" stroke="midnightblue" points="405.92,-51.5 415.92,-48 405.92,-44.5 405.92,-51.5"/>
</g>
<!-- Node10 -->
<g id="node10" class="node">
<title>Node10</title>
<g id="a_node10"><a xlink:href="wld__rad__nl80211_8c.html#a91f62b90e3141285f0b5c14bc3f1f05a" target="_top" xlink:title=" ">
<polygon fill="white" stroke="black" points="194.5,-0.5 194.5,-19.5 349.5,-19.5 349.5,-0.5 194.5,-0.5"/>
<text text-anchor="middle" x="272" y="-7.5" font-family="Helvetica,sans-Serif" font-size="10.00">wld_rad_nl80211_bgDfsStop</text>
</a>
</g>
</g>
<!-- Node7&#45;&gt;Node10 -->
<g id="edge9" class="edge">
<title>Node7&#45;&gt;Node10</title>
<path fill="none" stroke="midnightblue" d="M405.86,-33.76C379.27,-29 350.3,-23.82 326.22,-19.52"/>
<polygon fill="midnightblue" stroke="midnightblue" points="405.46,-37.24 415.92,-35.56 406.69,-30.35 405.46,-37.24"/>
</g>
<!-- Node9 -->
<g id="node9" class="node">
<title>Node9</title>
<g id="a_node9"><a xlink:href="wifiGen__rad_8c.html#a9233592c6fba03287d70436e4532b9c5" target="_top" xlink:title=" ">
<polygon fill="white" stroke="black" points="0,-38.5 0,-57.5 147,-57.5 147,-38.5 0,-38.5"/>
<text text-anchor="middle" x="73.5" y="-45.5" font-family="Helvetica,sans-Serif" font-size="10.00">wifiGen_rad_bgDfsStartExt</text>
</a>
</g>
</g>
<!-- Node8&#45;&gt;Node9 -->
<g id="edge8" class="edge">
<title>Node8&#45;&gt;Node9</title>
<path fill="none" stroke="midnightblue" d="M183.72,-48C171.52,-48 159.1,-48 147.2,-48"/>
<polygon fill="midnightblue" stroke="midnightblue" points="183.9,-51.5 193.9,-48 183.9,-44.5 183.9,-51.5"/>
</g>
<!-- Node11 -->
<g id="node11" class="node">
<title>Node11</title>
<g id="a_node11"><a xlink:href="wifiGen__rad_8c.html#a4648b18985ef392da90c2a0c8273fc69" target="_top" xlink:title=" ">
<polygon fill="white" stroke="black" points="8.5,-0.5 8.5,-19.5 138.5,-19.5 138.5,-0.5 8.5,-0.5"/>
<text text-anchor="middle" x="73.5" y="-7.5" font-family="Helvetica,sans-Serif" font-size="10.00">wifiGen_rad_bgDfsStop</text>
</a>
</g>
</g>
<!-- Node10&#45;&gt;Node11 -->
<g id="edge10" class="edge">
<title>Node10&#45;&gt;Node11</title>
<path fill="none" stroke="midnightblue" d="M184.44,-10C169.09,-10 153.34,-10 138.74,-10"/>
<polygon fill="midnightblue" stroke="midnightblue" points="184.47,-13.5 194.47,-10 184.47,-6.5 184.47,-13.5"/>
</g>
</g>
</svg>
