<?xml version="1.0" encoding="UTF-8" standalone="no"?>
<!DOCTYPE svg PUBLIC "-//W3C//DTD SVG 1.1//EN"
 "http://www.w3.org/Graphics/SVG/1.1/DTD/svg11.dtd">
<!-- Generated by graphviz version 2.43.0 (0)
 -->
<!-- Title: test/testHelper/wld_th_ep.h Pages: 1 -->
<svg width="1472pt" height="106pt"
 viewBox="0.00 0.00 1471.50 106.00" xmlns="http://www.w3.org/2000/svg" xmlns:xlink="http://www.w3.org/1999/xlink">
<g id="graph0" class="graph" transform="scale(1 1) rotate(0) translate(4 102)">
<title>test/testHelper/wld_th_ep.h</title>
<polygon fill="white" stroke="transparent" points="-4,4 -4,-102 1467.5,-102 1467.5,4 -4,4"/>
<!-- Node1 -->
<g id="node1" class="node">
<title>Node1</title>
<g id="a_node1"><a xlink:title=" ">
<polygon fill="#bfbfbf" stroke="black" points="646.5,-67.5 646.5,-97.5 756.5,-97.5 756.5,-67.5 646.5,-67.5"/>
<text text-anchor="start" x="654.5" y="-85.5" font-family="Helvetica,sans-Serif" font-size="10.00">test/testHelper/wld</text>
<text text-anchor="middle" x="701.5" y="-74.5" font-family="Helvetica,sans-Serif" font-size="10.00">_th_ep.h</text>
</a>
</g>
</g>
<!-- Node2 -->
<g id="node2" class="node">
<title>Node2</title>
<g id="a_node2"><a xlink:href="test__enableSync_8c.html" target="_top" xlink:title=" ">
<polygon fill="white" stroke="black" points="0,-0.5 0,-30.5 113,-30.5 113,-0.5 0,-0.5"/>
<text text-anchor="start" x="8" y="-18.5" font-family="Helvetica,sans-Serif" font-size="10.00">test/testEnableSync</text>
<text text-anchor="middle" x="56.5" y="-7.5" font-family="Helvetica,sans-Serif" font-size="10.00">/test_enableSync.c</text>
</a>
</g>
</g>
<!-- Node1&#45;&gt;Node2 -->
<g id="edge1" class="edge">
<title>Node1&#45;&gt;Node2</title>
<path fill="none" stroke="midnightblue" d="M636.08,-78.55C528.46,-73.09 307.54,-59.27 122.5,-31 119.48,-30.54 116.4,-30.02 113.29,-29.47"/>
<polygon fill="midnightblue" stroke="midnightblue" points="635.97,-82.05 646.13,-79.06 636.32,-75.06 635.97,-82.05"/>
</g>
<!-- Node3 -->
<g id="node3" class="node">
<title>Node3</title>
<g id="a_node3"><a xlink:href="wld__th__ep_8c.html" target="_top" xlink:title=" ">
<polygon fill="white" stroke="black" points="131.5,-0.5 131.5,-30.5 241.5,-30.5 241.5,-0.5 131.5,-0.5"/>
<text text-anchor="start" x="139.5" y="-18.5" font-family="Helvetica,sans-Serif" font-size="10.00">test/testHelper/wld</text>
<text text-anchor="middle" x="186.5" y="-7.5" font-family="Helvetica,sans-Serif" font-size="10.00">_th_ep.c</text>
</a>
</g>
</g>
<!-- Node1&#45;&gt;Node3 -->
<g id="edge2" class="edge">
<title>Node1&#45;&gt;Node3</title>
<path fill="none" stroke="midnightblue" d="M636.28,-76.49C548.3,-69.21 386.88,-54.01 250.5,-31 247.58,-30.51 244.59,-29.96 241.58,-29.39"/>
<polygon fill="midnightblue" stroke="midnightblue" points="636.13,-79.99 646.38,-77.32 636.7,-73.01 636.13,-79.99"/>
</g>
<!-- Node4 -->
<g id="node4" class="node">
<title>Node4</title>
<g id="a_node4"><a xlink:href="wld__th__mockVendor_8c.html" target="_top" xlink:title=" ">
<polygon fill="white" stroke="black" points="259.5,-0.5 259.5,-30.5 369.5,-30.5 369.5,-0.5 259.5,-0.5"/>
<text text-anchor="start" x="267.5" y="-18.5" font-family="Helvetica,sans-Serif" font-size="10.00">test/testHelper/wld</text>
<text text-anchor="middle" x="314.5" y="-7.5" font-family="Helvetica,sans-Serif" font-size="10.00">_th_mockVendor.c</text>
</a>
</g>
</g>
<!-- Node1&#45;&gt;Node4 -->
<g id="edge3" class="edge">
<title>Node1&#45;&gt;Node4</title>
<path fill="none" stroke="midnightblue" d="M636.28,-72.63C570.88,-63.42 467.4,-48 378.5,-31 375.59,-30.44 372.61,-29.85 369.61,-29.23"/>
<polygon fill="midnightblue" stroke="midnightblue" points="636.05,-76.13 646.44,-74.05 637.02,-69.2 636.05,-76.13"/>
</g>
<!-- Node5 -->
<g id="node5" class="node">
<title>Node5</title>
<g id="a_node5"><a xlink:href="wld__th__radio_8c.html" target="_top" xlink:title=" ">
<polygon fill="white" stroke="black" points="387.5,-0.5 387.5,-30.5 497.5,-30.5 497.5,-0.5 387.5,-0.5"/>
<text text-anchor="start" x="395.5" y="-18.5" font-family="Helvetica,sans-Serif" font-size="10.00">test/testHelper/wld</text>
<text text-anchor="middle" x="442.5" y="-7.5" font-family="Helvetica,sans-Serif" font-size="10.00">_th_radio.c</text>
</a>
</g>
</g>
<!-- Node1&#45;&gt;Node5 -->
<g id="edge4" class="edge">
<title>Node1&#45;&gt;Node5</title>
<path fill="none" stroke="midnightblue" d="M636.5,-65.19C593.71,-54.45 538.3,-40.54 497.66,-30.34"/>
<polygon fill="midnightblue" stroke="midnightblue" points="635.7,-68.6 646.26,-67.64 637.41,-61.81 635.7,-68.6"/>
</g>
<!-- Node6 -->
<g id="node6" class="node">
<title>Node6</title>
<g id="a_node6"><a xlink:href="test__radio11be_8c.html" target="_top" xlink:title=" ">
<polygon fill="white" stroke="black" points="516,-0.5 516,-30.5 625,-30.5 625,-0.5 516,-0.5"/>
<text text-anchor="start" x="524" y="-18.5" font-family="Helvetica,sans-Serif" font-size="10.00">test/testRadio11be</text>
<text text-anchor="middle" x="570.5" y="-7.5" font-family="Helvetica,sans-Serif" font-size="10.00">/test_radio11be.c</text>
</a>
</g>
</g>
<!-- Node1&#45;&gt;Node6 -->
<g id="edge5" class="edge">
<title>Node1&#45;&gt;Node6</title>
<path fill="none" stroke="midnightblue" d="M663.92,-62.85C643.21,-52.58 617.91,-40.03 598.87,-30.58"/>
<polygon fill="midnightblue" stroke="midnightblue" points="662.56,-66.09 673.07,-67.4 665.67,-59.82 662.56,-66.09"/>
</g>
<!-- Node7 -->
<g id="node7" class="node">
<title>Node7</title>
<g id="a_node7"><a xlink:href="test__radioStatus_8c.html" target="_top" xlink:title=" ">
<polygon fill="white" stroke="black" points="643.5,-0.5 643.5,-30.5 759.5,-30.5 759.5,-0.5 643.5,-0.5"/>
<text text-anchor="start" x="651.5" y="-18.5" font-family="Helvetica,sans-Serif" font-size="10.00">test/testRadioStatus</text>
<text text-anchor="middle" x="701.5" y="-7.5" font-family="Helvetica,sans-Serif" font-size="10.00">/test_radioStatus.c</text>
</a>
</g>
</g>
<!-- Node1&#45;&gt;Node7 -->
<g id="edge6" class="edge">
<title>Node1&#45;&gt;Node7</title>
<path fill="none" stroke="midnightblue" d="M701.5,-57.11C701.5,-48.15 701.5,-38.32 701.5,-30.58"/>
<polygon fill="midnightblue" stroke="midnightblue" points="698,-57.4 701.5,-67.4 705,-57.4 698,-57.4"/>
</g>
<!-- Node8 -->
<g id="node8" class="node">
<title>Node8</title>
<g id="a_node8"><a xlink:href="test__staStats_8c.html" target="_top" xlink:title=" ">
<polygon fill="white" stroke="black" points="778,-0.5 778,-30.5 897,-30.5 897,-0.5 778,-0.5"/>
<text text-anchor="start" x="786" y="-18.5" font-family="Helvetica,sans-Serif" font-size="10.00">test/testStaStats/test</text>
<text text-anchor="middle" x="837.5" y="-7.5" font-family="Helvetica,sans-Serif" font-size="10.00">_staStats.c</text>
</a>
</g>
</g>
<!-- Node1&#45;&gt;Node8 -->
<g id="edge7" class="edge">
<title>Node1&#45;&gt;Node8</title>
<path fill="none" stroke="midnightblue" d="M740.22,-62.99C761.78,-52.69 788.19,-40.07 808.05,-30.58"/>
<polygon fill="midnightblue" stroke="midnightblue" points="738.52,-59.93 731.01,-67.4 741.54,-66.24 738.52,-59.93"/>
</g>
<!-- Node9 -->
<g id="node9" class="node">
<title>Node9</title>
<g id="a_node9"><a xlink:href="test__staStatsWiFi7_8c.html" target="_top" xlink:title=" ">
<polygon fill="white" stroke="black" points="915,-0.5 915,-30.5 1040,-30.5 1040,-0.5 915,-0.5"/>
<text text-anchor="start" x="923" y="-18.5" font-family="Helvetica,sans-Serif" font-size="10.00">test/testStaStatsWiFi7</text>
<text text-anchor="middle" x="977.5" y="-7.5" font-family="Helvetica,sans-Serif" font-size="10.00">/test_staStatsWiFi7.c</text>
</a>
</g>
</g>
<!-- Node1&#45;&gt;Node9 -->
<g id="edge8" class="edge">
<title>Node1&#45;&gt;Node9</title>
<path fill="none" stroke="midnightblue" d="M766.51,-66.19C812.26,-55.41 873.05,-41.1 917.62,-30.6"/>
<polygon fill="midnightblue" stroke="midnightblue" points="765.62,-62.8 756.69,-68.5 767.23,-69.62 765.62,-62.8"/>
</g>
<!-- Node10 -->
<g id="node10" class="node">
<title>Node10</title>
<g id="a_node10"><a xlink:href="test__wld__rad__chanMgt_8c.html" target="_top" xlink:title=" ">
<polygon fill="white" stroke="black" points="1058,-0.5 1058,-30.5 1183,-30.5 1183,-0.5 1058,-0.5"/>
<text text-anchor="start" x="1066" y="-18.5" font-family="Helvetica,sans-Serif" font-size="10.00">test/wld_chanMgt/test</text>
<text text-anchor="middle" x="1120.5" y="-7.5" font-family="Helvetica,sans-Serif" font-size="10.00">_wld_rad_chanMgt.c</text>
</a>
</g>
</g>
<!-- Node1&#45;&gt;Node10 -->
<g id="edge9" class="edge">
<title>Node1&#45;&gt;Node10</title>
<path fill="none" stroke="midnightblue" d="M766.51,-73.2C836.55,-63.99 951.19,-48.16 1049.5,-31 1052.23,-30.52 1055.01,-30.02 1057.82,-29.5"/>
<polygon fill="midnightblue" stroke="midnightblue" points="765.96,-69.74 756.5,-74.51 766.87,-76.68 765.96,-69.74"/>
</g>
<!-- Node11 -->
<g id="node11" class="node">
<title>Node11</title>
<g id="a_node11"><a xlink:href="test__wld__fsm_8c.html" target="_top" xlink:title=" ">
<polygon fill="white" stroke="black" points="1201.5,-0.5 1201.5,-30.5 1325.5,-30.5 1325.5,-0.5 1201.5,-0.5"/>
<text text-anchor="start" x="1209.5" y="-18.5" font-family="Helvetica,sans-Serif" font-size="10.00">test/wld_fsm/test_wld</text>
<text text-anchor="middle" x="1263.5" y="-7.5" font-family="Helvetica,sans-Serif" font-size="10.00">_fsm.c</text>
</a>
</g>
</g>
<!-- Node1&#45;&gt;Node11 -->
<g id="edge10" class="edge">
<title>Node1&#45;&gt;Node11</title>
<path fill="none" stroke="midnightblue" d="M766.83,-76.85C861.16,-69.67 1040.85,-54.23 1192.5,-31 1195.36,-30.56 1198.28,-30.09 1201.22,-29.58"/>
<polygon fill="midnightblue" stroke="midnightblue" points="766.29,-73.38 756.58,-77.62 766.82,-80.36 766.29,-73.38"/>
</g>
<!-- Node12 -->
<g id="node12" class="node">
<title>Node12</title>
<g id="a_node12"><a xlink:href="test__wld__sensing_8c.html" target="_top" xlink:title=" ">
<polygon fill="white" stroke="black" points="1343.5,-0.5 1343.5,-30.5 1463.5,-30.5 1463.5,-0.5 1343.5,-0.5"/>
<text text-anchor="start" x="1351.5" y="-18.5" font-family="Helvetica,sans-Serif" font-size="10.00">test/wld_sensing/test</text>
<text text-anchor="middle" x="1403.5" y="-7.5" font-family="Helvetica,sans-Serif" font-size="10.00">_wld_sensing.c</text>
</a>
</g>
</g>
<!-- Node1&#45;&gt;Node12 -->
<g id="edge11" class="edge">
<title>Node1&#45;&gt;Node12</title>
<path fill="none" stroke="midnightblue" d="M766.86,-79.04C882.05,-74.08 1128.49,-60.74 1334.5,-31 1337.41,-30.58 1340.38,-30.11 1343.37,-29.61"/>
<polygon fill="midnightblue" stroke="midnightblue" points="766.64,-75.54 756.8,-79.46 766.94,-82.54 766.64,-75.54"/>
</g>
</g>
</svg>
