<?xml version="1.0" encoding="UTF-8" standalone="no"?>
<!DOCTYPE svg PUBLIC "-//W3C//DTD SVG 1.1//EN"
 "http://www.w3.org/Graphics/SVG/1.1/DTD/svg11.dtd">
<!-- Generated by graphviz version 2.43.0 (0)
 -->
<!-- Title: src/Utils/wld_daemon.c Pages: 1 -->
<svg width="5582pt" height="252pt"
 viewBox="0.00 0.00 5581.81 252.00" xmlns="http://www.w3.org/2000/svg" xmlns:xlink="http://www.w3.org/1999/xlink">
<g id="graph0" class="graph" transform="scale(1 1) rotate(0) translate(4 248)">
<title>src/Utils/wld_daemon.c</title>
<polygon fill="white" stroke="transparent" points="-4,4 -4,-248 5577.81,-248 5577.81,4 -4,4"/>
<!-- Node1 -->
<g id="node1" class="node">
<title>Node1</title>
<g id="a_node1"><a xlink:title=" ">
<polygon fill="#bfbfbf" stroke="black" points="89,-224.5 89,-243.5 219,-243.5 219,-224.5 89,-224.5"/>
<text text-anchor="middle" x="154" y="-231.5" font-family="Helvetica,sans-Serif" font-size="10.00">src/Utils/wld_daemon.c</text>
</a>
</g>
</g>
<!-- Node2 -->
<g id="node2" class="node">
<title>Node2</title>
<g id="a_node2"><a xlink:title=" ">
<polygon fill="white" stroke="#bfbfbf" points="34.5,-168.5 34.5,-187.5 87.5,-187.5 87.5,-168.5 34.5,-168.5"/>
<text text-anchor="middle" x="61" y="-175.5" font-family="Helvetica,sans-Serif" font-size="10.00">stdlib.h</text>
</a>
</g>
</g>
<!-- Node1&#45;&gt;Node2 -->
<g id="edge1" class="edge">
<title>Node1&#45;&gt;Node2</title>
<path fill="none" stroke="midnightblue" d="M139.06,-224.32C124.41,-215.82 101.87,-202.73 84.76,-192.8"/>
<polygon fill="midnightblue" stroke="midnightblue" points="86.31,-189.65 75.9,-187.65 82.8,-195.7 86.31,-189.65"/>
</g>
<!-- Node3 -->
<g id="node3" class="node">
<title>Node3</title>
<g id="a_node3"><a xlink:href="wld_8h.html" target="_top" xlink:title=" ">
<polygon fill="white" stroke="red" points="2916.5,-168.5 2916.5,-187.5 2959.5,-187.5 2959.5,-168.5 2916.5,-168.5"/>
<text text-anchor="middle" x="2938" y="-175.5" font-family="Helvetica,sans-Serif" font-size="10.00">wld.h</text>
</a>
</g>
</g>
<!-- Node1&#45;&gt;Node3 -->
<g id="edge2" class="edge">
<title>Node1&#45;&gt;Node3</title>
<path fill="none" stroke="midnightblue" d="M219.06,-231.74C608.82,-224.18 2627.12,-185.03 2906.02,-179.62"/>
<polygon fill="midnightblue" stroke="midnightblue" points="2906.33,-183.12 2916.26,-179.42 2906.19,-176.12 2906.33,-183.12"/>
</g>
<!-- Node6 -->
<g id="node6" class="node">
<title>Node6</title>
<g id="a_node6"><a xlink:title=" ">
<polygon fill="white" stroke="#bfbfbf" points="233,-56.5 233,-75.5 343,-75.5 343,-56.5 233,-56.5"/>
<text text-anchor="middle" x="288" y="-63.5" font-family="Helvetica,sans-Serif" font-size="10.00">swl/swl_common.h</text>
</a>
</g>
</g>
<!-- Node1&#45;&gt;Node6 -->
<g id="edge63" class="edge">
<title>Node1&#45;&gt;Node6</title>
<path fill="none" stroke="midnightblue" d="M159.29,-224.35C172.01,-203.88 205.76,-151.22 240,-112 249.18,-101.49 260.53,-90.75 269.89,-82.41"/>
<polygon fill="midnightblue" stroke="midnightblue" points="272.28,-84.98 277.5,-75.76 267.67,-79.71 272.28,-84.98"/>
</g>
<!-- Node66 -->
<g id="node49" class="node">
<title>Node66</title>
<g id="a_node49"><a xlink:href="wld__daemon_8h.html" target="_top" xlink:title=" ">
<polygon fill="white" stroke="red" points="0,-112.5 0,-131.5 88,-131.5 88,-112.5 0,-112.5"/>
<text text-anchor="middle" x="44" y="-119.5" font-family="Helvetica,sans-Serif" font-size="10.00">wld_daemon.h</text>
</a>
</g>
</g>
<!-- Node1&#45;&gt;Node66 -->
<g id="edge60" class="edge">
<title>Node1&#45;&gt;Node66</title>
<path fill="none" stroke="midnightblue" d="M146.83,-224.27C136.19,-211.48 115.4,-187.1 96,-168 85.37,-157.53 72.72,-146.55 62.56,-138.06"/>
<polygon fill="midnightblue" stroke="midnightblue" points="64.65,-135.25 54.71,-131.58 60.19,-140.65 64.65,-135.25"/>
</g>
<!-- Node76 -->
<g id="node50" class="node">
<title>Node76</title>
<g id="a_node50"><a xlink:title=" ">
<polygon fill="white" stroke="#bfbfbf" points="2977.5,-168.5 2977.5,-187.5 3072.5,-187.5 3072.5,-168.5 2977.5,-168.5"/>
<text text-anchor="middle" x="3025" y="-175.5" font-family="Helvetica,sans-Serif" font-size="10.00">swl/swl_string.h</text>
</a>
</g>
</g>
<!-- Node1&#45;&gt;Node76 -->
<g id="edge64" class="edge">
<title>Node1&#45;&gt;Node76</title>
<path fill="none" stroke="midnightblue" d="M219.06,-233.2C584.67,-234.16 2387.5,-236.35 2967.35,-187.88"/>
<polygon fill="midnightblue" stroke="midnightblue" points="2967.81,-191.35 2977.48,-187.02 2967.21,-184.38 2967.81,-191.35"/>
</g>
<!-- Node4 -->
<g id="node4" class="node">
<title>Node4</title>
<g id="a_node4"><a xlink:title=" ">
<polygon fill="white" stroke="#bfbfbf" points="153,-56.5 153,-75.5 215,-75.5 215,-56.5 153,-56.5"/>
<text text-anchor="middle" x="184" y="-63.5" font-family="Helvetica,sans-Serif" font-size="10.00">stdbool.h</text>
</a>
</g>
</g>
<!-- Node3&#45;&gt;Node4 -->
<g id="edge3" class="edge">
<title>Node3&#45;&gt;Node4</title>
<path fill="none" stroke="midnightblue" d="M2916.43,-176.89C2665.29,-175.54 304.26,-162.11 240,-132 219,-122.16 202.83,-100.25 193.38,-84.59"/>
<polygon fill="midnightblue" stroke="midnightblue" points="196.38,-82.77 188.39,-75.81 190.29,-86.23 196.38,-82.77"/>
</g>
<!-- Node5 -->
<g id="node5" class="node">
<title>Node5</title>
<g id="a_node5"><a xlink:title=" ">
<polygon fill="white" stroke="#bfbfbf" points="89.5,-0.5 89.5,-19.5 142.5,-19.5 142.5,-0.5 89.5,-0.5"/>
<text text-anchor="middle" x="116" y="-7.5" font-family="Helvetica,sans-Serif" font-size="10.00">stdint.h</text>
</a>
</g>
</g>
<!-- Node3&#45;&gt;Node5 -->
<g id="edge4" class="edge">
<title>Node3&#45;&gt;Node5</title>
<path fill="none" stroke="midnightblue" d="M2916.41,-177.06C2667.36,-177.67 345.37,-182.02 211,-132 174.63,-118.46 167.2,-107.11 144,-76 133.45,-61.85 125.93,-43.12 121.35,-29.4"/>
<polygon fill="midnightblue" stroke="midnightblue" points="124.63,-28.17 118.32,-19.66 117.95,-30.25 124.63,-28.17"/>
</g>
<!-- Node3&#45;&gt;Node6 -->
<g id="edge5" class="edge">
<title>Node3&#45;&gt;Node6</title>
<path fill="none" stroke="midnightblue" d="M2916.38,-177.06C2664.66,-177.71 298.59,-182.43 249,-132 234.62,-117.38 252.2,-96.47 268.16,-82.35"/>
<polygon fill="midnightblue" stroke="midnightblue" points="270.74,-84.75 276.18,-75.65 266.26,-79.38 270.74,-84.75"/>
</g>
<!-- Node7 -->
<g id="node7" class="node">
<title>Node7</title>
<g id="a_node7"><a xlink:title=" ">
<polygon fill="white" stroke="#bfbfbf" points="484,-112.5 484,-131.5 620,-131.5 620,-112.5 484,-112.5"/>
<text text-anchor="middle" x="552" y="-119.5" font-family="Helvetica,sans-Serif" font-size="10.00">swla/swla_commonLib.h</text>
</a>
</g>
</g>
<!-- Node3&#45;&gt;Node7 -->
<g id="edge6" class="edge">
<title>Node3&#45;&gt;Node7</title>
<path fill="none" stroke="midnightblue" d="M2916.43,-176.87C2713.1,-175.6 1129.88,-164.74 630.56,-132.02"/>
<polygon fill="midnightblue" stroke="midnightblue" points="630.61,-128.52 620.4,-131.34 630.15,-135.5 630.61,-128.52"/>
</g>
<!-- Node8 -->
<g id="node8" class="node">
<title>Node8</title>
<g id="a_node8"><a xlink:title=" ">
<polygon fill="white" stroke="#bfbfbf" points="638,-112.5 638,-131.5 726,-131.5 726,-112.5 638,-112.5"/>
<text text-anchor="middle" x="682" y="-119.5" font-family="Helvetica,sans-Serif" font-size="10.00">swl/swl_uuid.h</text>
</a>
</g>
</g>
<!-- Node3&#45;&gt;Node8 -->
<g id="edge7" class="edge">
<title>Node3&#45;&gt;Node8</title>
<path fill="none" stroke="midnightblue" d="M2916.48,-177C2718.58,-176.94 1211.9,-175.1 736.2,-131.93"/>
<polygon fill="midnightblue" stroke="midnightblue" points="736.46,-128.44 726.18,-131 735.82,-135.41 736.46,-128.44"/>
</g>
<!-- Node9 -->
<g id="node9" class="node">
<title>Node9</title>
<g id="a_node9"><a xlink:title=" ">
<polygon fill="white" stroke="#bfbfbf" points="744,-112.5 744,-131.5 896,-131.5 896,-112.5 744,-112.5"/>
<text text-anchor="middle" x="820" y="-119.5" font-family="Helvetica,sans-Serif" font-size="10.00">swla/swla_radioStandards.h</text>
</a>
</g>
</g>
<!-- Node3&#45;&gt;Node9 -->
<g id="edge8" class="edge">
<title>Node3&#45;&gt;Node9</title>
<path fill="none" stroke="midnightblue" d="M2916.39,-176.77C2727.01,-174.73 1346.73,-159.08 906.65,-132.04"/>
<polygon fill="midnightblue" stroke="midnightblue" points="906.63,-128.53 896.43,-131.4 906.19,-135.52 906.63,-128.53"/>
</g>
<!-- Node10 -->
<g id="node10" class="node">
<title>Node10</title>
<g id="a_node10"><a xlink:title=" ">
<polygon fill="white" stroke="#bfbfbf" points="5349.5,-0.5 5349.5,-19.5 5450.5,-19.5 5450.5,-0.5 5349.5,-0.5"/>
<text text-anchor="middle" x="5400" y="-7.5" font-family="Helvetica,sans-Serif" font-size="10.00">swla/swla_time.h</text>
</a>
</g>
</g>
<!-- Node3&#45;&gt;Node10 -->
<g id="edge9" class="edge">
<title>Node3&#45;&gt;Node10</title>
<path fill="none" stroke="midnightblue" d="M2959.79,-169.7C2962.53,-169.01 2965.31,-168.41 2968,-168 3038.65,-157.13 5482.22,-172.67 5541,-132 5569.92,-111.99 5584.3,-83.98 5563,-56 5550.39,-39.44 5501.74,-27.42 5460.84,-19.99"/>
<polygon fill="midnightblue" stroke="midnightblue" points="5461.36,-16.53 5450.9,-18.24 5460.15,-23.42 5461.36,-16.53"/>
</g>
<!-- Node11 -->
<g id="node11" class="node">
<title>Node11</title>
<g id="a_node11"><a xlink:title=" ">
<polygon fill="white" stroke="#bfbfbf" points="914.5,-112.5 914.5,-131.5 1043.5,-131.5 1043.5,-112.5 914.5,-112.5"/>
<text text-anchor="middle" x="979" y="-119.5" font-family="Helvetica,sans-Serif" font-size="10.00">swla/swla_time_spec.h</text>
</a>
</g>
</g>
<!-- Node3&#45;&gt;Node11 -->
<g id="edge10" class="edge">
<title>Node3&#45;&gt;Node11</title>
<path fill="none" stroke="midnightblue" d="M2916.26,-176.77C2734.32,-174.83 1462.28,-160.4 1053.62,-131.94"/>
<polygon fill="midnightblue" stroke="midnightblue" points="1053.76,-128.44 1043.54,-131.22 1053.26,-135.42 1053.76,-128.44"/>
</g>
<!-- Node12 -->
<g id="node12" class="node">
<title>Node12</title>
<g id="a_node12"><a xlink:title=" ">
<polygon fill="white" stroke="#bfbfbf" points="1062,-112.5 1062,-131.5 1156,-131.5 1156,-112.5 1062,-112.5"/>
<text text-anchor="middle" x="1109" y="-119.5" font-family="Helvetica,sans-Serif" font-size="10.00">swla/swla_oui.h</text>
</a>
</g>
</g>
<!-- Node3&#45;&gt;Node12 -->
<g id="edge11" class="edge">
<title>Node3&#45;&gt;Node12</title>
<path fill="none" stroke="midnightblue" d="M2916.43,-176.85C2741.35,-175.59 1549.72,-165.84 1166.31,-131.97"/>
<polygon fill="midnightblue" stroke="midnightblue" points="1166.57,-128.48 1156.3,-131.06 1165.94,-135.45 1166.57,-128.48"/>
</g>
<!-- Node13 -->
<g id="node13" class="node">
<title>Node13</title>
<g id="a_node13"><a xlink:title=" ">
<polygon fill="white" stroke="#bfbfbf" points="1174,-112.5 1174,-131.5 1302,-131.5 1302,-112.5 1174,-112.5"/>
<text text-anchor="middle" x="1238" y="-119.5" font-family="Helvetica,sans-Serif" font-size="10.00">swla/swla_delayExec.h</text>
</a>
</g>
</g>
<!-- Node3&#45;&gt;Node13 -->
<g id="edge12" class="edge">
<title>Node3&#45;&gt;Node13</title>
<path fill="none" stroke="midnightblue" d="M2916.41,-177.18C2775.74,-178.16 1975.1,-181.35 1312.3,-132.01"/>
<polygon fill="midnightblue" stroke="midnightblue" points="1312.29,-128.5 1302.06,-131.25 1311.77,-135.48 1312.29,-128.5"/>
</g>
<!-- Node14 -->
<g id="node14" class="node">
<title>Node14</title>
<g id="a_node14"><a xlink:title=" ">
<polygon fill="white" stroke="#bfbfbf" points="1320.5,-112.5 1320.5,-131.5 1439.5,-131.5 1439.5,-112.5 1320.5,-112.5"/>
<text text-anchor="middle" x="1380" y="-119.5" font-family="Helvetica,sans-Serif" font-size="10.00">swla/swla_function.h</text>
</a>
</g>
</g>
<!-- Node3&#45;&gt;Node14 -->
<g id="edge13" class="edge">
<title>Node3&#45;&gt;Node14</title>
<path fill="none" stroke="midnightblue" d="M2916.08,-177.17C2781.51,-178.06 2053.4,-180.38 1449.88,-132.07"/>
<polygon fill="midnightblue" stroke="midnightblue" points="1449.92,-128.56 1439.67,-131.25 1449.35,-135.54 1449.92,-128.56"/>
</g>
<!-- Node15 -->
<g id="node15" class="node">
<title>Node15</title>
<g id="a_node15"><a xlink:title=" ">
<polygon fill="white" stroke="#bfbfbf" points="1457.5,-112.5 1457.5,-131.5 1598.5,-131.5 1598.5,-112.5 1457.5,-112.5"/>
<text text-anchor="middle" x="1528" y="-119.5" font-family="Helvetica,sans-Serif" font-size="10.00">swl/swl_usp_cmdStatus.h</text>
</a>
</g>
</g>
<!-- Node3&#45;&gt;Node15 -->
<g id="edge14" class="edge">
<title>Node3&#45;&gt;Node15</title>
<path fill="none" stroke="midnightblue" d="M2916.44,-176.9C2791.43,-176.2 2146.8,-170.83 1608.94,-132"/>
<polygon fill="midnightblue" stroke="midnightblue" points="1608.87,-128.48 1598.64,-131.25 1608.36,-135.47 1608.87,-128.48"/>
</g>
<!-- Node16 -->
<g id="node16" class="node">
<title>Node16</title>
<g id="a_node16"><a xlink:title=" ">
<polygon fill="white" stroke="#bfbfbf" points="1617,-112.5 1617,-131.5 1703,-131.5 1703,-112.5 1617,-112.5"/>
<text text-anchor="middle" x="1660" y="-119.5" font-family="Helvetica,sans-Serif" font-size="10.00">swl/swl_wps.h</text>
</a>
</g>
</g>
<!-- Node3&#45;&gt;Node16 -->
<g id="edge15" class="edge">
<title>Node3&#45;&gt;Node16</title>
<path fill="none" stroke="midnightblue" d="M2916.15,-177.29C2796.18,-178.68 2205.27,-182.6 1713.21,-131.97"/>
<polygon fill="midnightblue" stroke="midnightblue" points="1713.38,-128.47 1703.07,-130.91 1712.65,-135.43 1713.38,-128.47"/>
</g>
<!-- Node17 -->
<g id="node17" class="node">
<title>Node17</title>
<g id="a_node17"><a xlink:title=" ">
<polygon fill="white" stroke="#bfbfbf" points="1721,-112.5 1721,-131.5 1825,-131.5 1825,-112.5 1721,-112.5"/>
<text text-anchor="middle" x="1773" y="-119.5" font-family="Helvetica,sans-Serif" font-size="10.00">swl/swl_security.h</text>
</a>
</g>
</g>
<!-- Node3&#45;&gt;Node17 -->
<g id="edge16" class="edge">
<title>Node3&#45;&gt;Node17</title>
<path fill="none" stroke="midnightblue" d="M2916.15,-176.97C2803.47,-176.62 2276.55,-172.85 1835.28,-132.01"/>
<polygon fill="midnightblue" stroke="midnightblue" points="1835.48,-128.52 1825.2,-131.07 1834.83,-135.49 1835.48,-128.52"/>
</g>
<!-- Node18 -->
<g id="node18" class="node">
<title>Node18</title>
<g id="a_node18"><a xlink:title=" ">
<polygon fill="white" stroke="#bfbfbf" points="1843.5,-112.5 1843.5,-131.5 1926.5,-131.5 1926.5,-112.5 1843.5,-112.5"/>
<text text-anchor="middle" x="1885" y="-119.5" font-family="Helvetica,sans-Serif" font-size="10.00">amxc/amxc.h</text>
</a>
</g>
</g>
<!-- Node3&#45;&gt;Node18 -->
<g id="edge17" class="edge">
<title>Node3&#45;&gt;Node18</title>
<path fill="none" stroke="midnightblue" d="M2916.42,-177.07C2810.55,-177.18 2335.58,-175.2 1936.69,-131.91"/>
<polygon fill="midnightblue" stroke="midnightblue" points="1937.01,-128.42 1926.69,-130.81 1936.24,-135.38 1937.01,-128.42"/>
</g>
<!-- Node19 -->
<g id="node19" class="node">
<title>Node19</title>
<g id="a_node19"><a xlink:title=" ">
<polygon fill="white" stroke="#bfbfbf" points="1945,-112.5 1945,-131.5 2029,-131.5 2029,-112.5 1945,-112.5"/>
<text text-anchor="middle" x="1987" y="-119.5" font-family="Helvetica,sans-Serif" font-size="10.00">amxp/amxp.h</text>
</a>
</g>
</g>
<!-- Node3&#45;&gt;Node19 -->
<g id="edge18" class="edge">
<title>Node3&#45;&gt;Node19</title>
<path fill="none" stroke="midnightblue" d="M2916.33,-176.91C2816.96,-176.3 2394.94,-171.46 2039.22,-131.99"/>
<polygon fill="midnightblue" stroke="midnightblue" points="2039.57,-128.51 2029.24,-130.87 2038.79,-135.46 2039.57,-128.51"/>
</g>
<!-- Node20 -->
<g id="node20" class="node">
<title>Node20</title>
<g id="a_node20"><a xlink:title=" ">
<polygon fill="white" stroke="#bfbfbf" points="2047,-112.5 2047,-131.5 2187,-131.5 2187,-112.5 2047,-112.5"/>
<text text-anchor="middle" x="2117" y="-119.5" font-family="Helvetica,sans-Serif" font-size="10.00">amxd/amxd_parameter.h</text>
</a>
</g>
</g>
<!-- Node3&#45;&gt;Node20 -->
<g id="edge19" class="edge">
<title>Node3&#45;&gt;Node20</title>
<path fill="none" stroke="midnightblue" d="M2916.42,-176.11C2828.5,-172.39 2488.55,-157.17 2197.52,-132.09"/>
<polygon fill="midnightblue" stroke="midnightblue" points="2197.46,-128.57 2187.19,-131.19 2196.85,-135.54 2197.46,-128.57"/>
</g>
<!-- Node21 -->
<g id="node21" class="node">
<title>Node21</title>
<g id="a_node21"><a xlink:title=" ">
<polygon fill="white" stroke="#bfbfbf" points="2205.5,-112.5 2205.5,-131.5 2324.5,-131.5 2324.5,-112.5 2205.5,-112.5"/>
<text text-anchor="middle" x="2265" y="-119.5" font-family="Helvetica,sans-Serif" font-size="10.00">amxd/amxd_action.h</text>
</a>
</g>
</g>
<!-- Node3&#45;&gt;Node21 -->
<g id="edge20" class="edge">
<title>Node3&#45;&gt;Node21</title>
<path fill="none" stroke="midnightblue" d="M2916.26,-175.83C2838.73,-171.59 2568.41,-155.96 2334.73,-132.13"/>
<polygon fill="midnightblue" stroke="midnightblue" points="2334.99,-128.64 2324.68,-131.1 2334.27,-135.6 2334.99,-128.64"/>
</g>
<!-- Node22 -->
<g id="node22" class="node">
<title>Node22</title>
<g id="a_node22"><a xlink:title=" ">
<polygon fill="white" stroke="#bfbfbf" points="2342.5,-112.5 2342.5,-131.5 2517.5,-131.5 2517.5,-112.5 2342.5,-112.5"/>
<text text-anchor="middle" x="2430" y="-119.5" font-family="Helvetica,sans-Serif" font-size="10.00">amxd/amxd_object_parameter.h</text>
</a>
</g>
</g>
<!-- Node3&#45;&gt;Node22 -->
<g id="edge21" class="edge">
<title>Node3&#45;&gt;Node22</title>
<path fill="none" stroke="midnightblue" d="M2916.5,-174.71C2849.45,-167.59 2641.48,-145.48 2520.25,-132.59"/>
<polygon fill="midnightblue" stroke="midnightblue" points="2520.55,-129.11 2510.23,-131.53 2519.81,-136.07 2520.55,-129.11"/>
</g>
<!-- Node23 -->
<g id="node23" class="node">
<title>Node23</title>
<g id="a_node23"><a xlink:title=" ">
<polygon fill="white" stroke="#bfbfbf" points="2536,-112.5 2536,-131.5 2688,-131.5 2688,-112.5 2536,-112.5"/>
<text text-anchor="middle" x="2612" y="-119.5" font-family="Helvetica,sans-Serif" font-size="10.00">amxd/amxd_object_event.h</text>
</a>
</g>
</g>
<!-- Node3&#45;&gt;Node23 -->
<g id="edge22" class="edge">
<title>Node3&#45;&gt;Node23</title>
<path fill="none" stroke="midnightblue" d="M2916.36,-173.42C2867.6,-165.34 2747.65,-145.47 2673.73,-133.23"/>
<polygon fill="midnightblue" stroke="midnightblue" points="2674.05,-129.73 2663.62,-131.55 2672.91,-136.64 2674.05,-129.73"/>
</g>
<!-- Node24 -->
<g id="node24" class="node">
<title>Node24</title>
<g id="a_node24"><a xlink:title=" ">
<polygon fill="white" stroke="#bfbfbf" points="2706.5,-112.5 2706.5,-131.5 2835.5,-131.5 2835.5,-112.5 2706.5,-112.5"/>
<text text-anchor="middle" x="2771" y="-119.5" font-family="Helvetica,sans-Serif" font-size="10.00">amxd/amxd_function.h</text>
</a>
</g>
</g>
<!-- Node3&#45;&gt;Node24 -->
<g id="edge23" class="edge">
<title>Node3&#45;&gt;Node24</title>
<path fill="none" stroke="midnightblue" d="M2916.17,-169.94C2888.52,-161 2840.51,-145.48 2807.31,-134.74"/>
<polygon fill="midnightblue" stroke="midnightblue" points="2808.11,-131.32 2797.52,-131.58 2805.96,-137.98 2808.11,-131.32"/>
</g>
<!-- Node25 -->
<g id="node25" class="node">
<title>Node25</title>
<g id="a_node25"><a xlink:title=" ">
<polygon fill="white" stroke="#bfbfbf" points="2853.5,-112.5 2853.5,-131.5 3022.5,-131.5 3022.5,-112.5 2853.5,-112.5"/>
<text text-anchor="middle" x="2938" y="-119.5" font-family="Helvetica,sans-Serif" font-size="10.00">amxd/amxd_object_hierarchy.h</text>
</a>
</g>
</g>
<!-- Node3&#45;&gt;Node25 -->
<g id="edge24" class="edge">
<title>Node3&#45;&gt;Node25</title>
<path fill="none" stroke="midnightblue" d="M2938,-168.08C2938,-161.01 2938,-150.86 2938,-141.99"/>
<polygon fill="midnightblue" stroke="midnightblue" points="2941.5,-141.75 2938,-131.75 2934.5,-141.75 2941.5,-141.75"/>
</g>
<!-- Node26 -->
<g id="node26" class="node">
<title>Node26</title>
<g id="a_node26"><a xlink:title=" ">
<polygon fill="white" stroke="#bfbfbf" points="3040.5,-112.5 3040.5,-131.5 3159.5,-131.5 3159.5,-112.5 3040.5,-112.5"/>
<text text-anchor="middle" x="3100" y="-119.5" font-family="Helvetica,sans-Serif" font-size="10.00">amxd/amxd_object.h</text>
</a>
</g>
</g>
<!-- Node3&#45;&gt;Node26 -->
<g id="edge25" class="edge">
<title>Node3&#45;&gt;Node26</title>
<path fill="none" stroke="midnightblue" d="M2959.51,-169.83C2986.31,-160.9 3032.45,-145.52 3064.52,-134.83"/>
<polygon fill="midnightblue" stroke="midnightblue" points="3066.01,-138.02 3074.39,-131.54 3063.79,-131.38 3066.01,-138.02"/>
</g>
<!-- Node27 -->
<g id="node27" class="node">
<title>Node27</title>
<g id="a_node27"><a xlink:title=" ">
<polygon fill="white" stroke="#bfbfbf" points="3177.5,-112.5 3177.5,-131.5 3282.5,-131.5 3282.5,-112.5 3177.5,-112.5"/>
<text text-anchor="middle" x="3230" y="-119.5" font-family="Helvetica,sans-Serif" font-size="10.00">amxd/amxd_dm.h</text>
</a>
</g>
</g>
<!-- Node3&#45;&gt;Node27 -->
<g id="edge26" class="edge">
<title>Node3&#45;&gt;Node27</title>
<path fill="none" stroke="midnightblue" d="M2959.55,-170.2C2962.38,-169.4 2965.25,-168.65 2968,-168 3004.89,-159.33 3102.26,-143.27 3167.34,-132.86"/>
<polygon fill="midnightblue" stroke="midnightblue" points="3168.17,-136.28 3177.49,-131.24 3167.07,-129.36 3168.17,-136.28"/>
</g>
<!-- Node28 -->
<g id="node28" class="node">
<title>Node28</title>
<g id="a_node28"><a xlink:title=" ">
<polygon fill="white" stroke="#bfbfbf" points="3301,-112.5 3301,-131.5 3445,-131.5 3445,-112.5 3301,-112.5"/>
<text text-anchor="middle" x="3373" y="-119.5" font-family="Helvetica,sans-Serif" font-size="10.00">amxd/amxd_transaction.h</text>
</a>
</g>
</g>
<!-- Node3&#45;&gt;Node28 -->
<g id="edge27" class="edge">
<title>Node3&#45;&gt;Node28</title>
<path fill="none" stroke="midnightblue" d="M2959.51,-170.04C2962.35,-169.27 2965.23,-168.56 2968,-168 2971.93,-167.2 3173.24,-144.98 3290.52,-132.07"/>
<polygon fill="midnightblue" stroke="midnightblue" points="3290.99,-135.54 3300.55,-130.97 3290.23,-128.58 3290.99,-135.54"/>
</g>
<!-- Node29 -->
<g id="node29" class="node">
<title>Node29</title>
<g id="a_node29"><a xlink:title=" ">
<polygon fill="white" stroke="#bfbfbf" points="3463,-112.5 3463,-131.5 3579,-131.5 3579,-112.5 3463,-112.5"/>
<text text-anchor="middle" x="3521" y="-119.5" font-family="Helvetica,sans-Serif" font-size="10.00">amxb/amxb_types.h</text>
</a>
</g>
</g>
<!-- Node3&#45;&gt;Node29 -->
<g id="edge28" class="edge">
<title>Node3&#45;&gt;Node29</title>
<path fill="none" stroke="midnightblue" d="M2959.82,-169.86C2962.55,-169.14 2965.33,-168.49 2968,-168 3177.76,-129.24 3236.79,-153.66 3452.85,-132.05"/>
<polygon fill="midnightblue" stroke="midnightblue" points="3453.33,-135.52 3462.92,-131.02 3452.62,-128.55 3453.33,-135.52"/>
</g>
<!-- Node30 -->
<g id="node30" class="node">
<title>Node30</title>
<g id="a_node30"><a xlink:title=" ">
<polygon fill="white" stroke="#bfbfbf" points="3597,-112.5 3597,-131.5 3733,-131.5 3733,-112.5 3597,-112.5"/>
<text text-anchor="middle" x="3665" y="-119.5" font-family="Helvetica,sans-Serif" font-size="10.00">amxb/amxb_operators.h</text>
</a>
</g>
</g>
<!-- Node3&#45;&gt;Node30 -->
<g id="edge29" class="edge">
<title>Node3&#45;&gt;Node30</title>
<path fill="none" stroke="midnightblue" d="M2959.81,-169.81C2962.55,-169.1 2965.32,-168.47 2968,-168 3236.5,-120.6 3311.21,-155.17 3586.3,-132.09"/>
<polygon fill="midnightblue" stroke="midnightblue" points="3586.92,-135.55 3596.59,-131.21 3586.32,-128.57 3586.92,-135.55"/>
</g>
<!-- Node31 -->
<g id="node31" class="node">
<title>Node31</title>
<g id="a_node31"><a xlink:title=" ">
<polygon fill="white" stroke="#bfbfbf" points="3751,-112.5 3751,-131.5 3863,-131.5 3863,-112.5 3751,-112.5"/>
<text text-anchor="middle" x="3807" y="-119.5" font-family="Helvetica,sans-Serif" font-size="10.00">amxb/amxb_error.h</text>
</a>
</g>
</g>
<!-- Node3&#45;&gt;Node31 -->
<g id="edge30" class="edge">
<title>Node3&#45;&gt;Node31</title>
<path fill="none" stroke="midnightblue" d="M2959.81,-169.78C2962.54,-169.08 2965.32,-168.46 2968,-168 3304.24,-110.64 3397.32,-162.64 3740.69,-132.03"/>
<polygon fill="midnightblue" stroke="midnightblue" points="3741.02,-135.51 3750.67,-131.12 3740.39,-128.54 3741.02,-135.51"/>
</g>
<!-- Node32 -->
<g id="node32" class="node">
<title>Node32</title>
<g id="a_node32"><a xlink:title=" ">
<polygon fill="white" stroke="#bfbfbf" points="3881.5,-112.5 3881.5,-131.5 3964.5,-131.5 3964.5,-112.5 3881.5,-112.5"/>
<text text-anchor="middle" x="3923" y="-119.5" font-family="Helvetica,sans-Serif" font-size="10.00">amxo/amxo.h</text>
</a>
</g>
</g>
<!-- Node3&#45;&gt;Node32 -->
<g id="edge31" class="edge">
<title>Node3&#45;&gt;Node32</title>
<path fill="none" stroke="midnightblue" d="M2959.8,-169.77C2962.54,-169.06 2965.32,-168.45 2968,-168 3361.3,-102.26 3470.41,-173.83 3871.19,-131.9"/>
<polygon fill="midnightblue" stroke="midnightblue" points="3871.74,-135.37 3881.32,-130.83 3871,-128.4 3871.74,-135.37"/>
</g>
<!-- Node33 -->
<g id="node33" class="node">
<title>Node33</title>
<g id="a_node33"><a xlink:title=" ">
<polygon fill="white" stroke="#bfbfbf" points="3982.5,-112.5 3982.5,-131.5 4097.5,-131.5 4097.5,-112.5 3982.5,-112.5"/>
<text text-anchor="middle" x="4040" y="-119.5" font-family="Helvetica,sans-Serif" font-size="10.00">amxo/amxo_types.h</text>
</a>
</g>
</g>
<!-- Node3&#45;&gt;Node33 -->
<g id="edge32" class="edge">
<title>Node3&#45;&gt;Node33</title>
<path fill="none" stroke="midnightblue" d="M2959.8,-169.76C2962.54,-169.06 2965.32,-168.44 2968,-168 3405.65,-95.74 3525.83,-168.68 3972.03,-131.97"/>
<polygon fill="midnightblue" stroke="midnightblue" points="3972.62,-135.44 3982.3,-131.12 3972.04,-128.46 3972.62,-135.44"/>
</g>
<!-- Node34 -->
<g id="node34" class="node">
<title>Node34</title>
<g id="a_node34"><a xlink:href="wld__types_8h.html" target="_top" xlink:title=" ">
<polygon fill="white" stroke="red" points="5183.5,-56.5 5183.5,-75.5 5258.5,-75.5 5258.5,-56.5 5183.5,-56.5"/>
<text text-anchor="middle" x="5221" y="-63.5" font-family="Helvetica,sans-Serif" font-size="10.00">wld_types.h</text>
</a>
</g>
</g>
<!-- Node3&#45;&gt;Node34 -->
<g id="edge33" class="edge">
<title>Node3&#45;&gt;Node34</title>
<path fill="none" stroke="midnightblue" d="M2959.79,-169.7C2962.53,-169.01 2965.31,-168.42 2968,-168 3033.37,-157.9 5302.58,-179.12 5349,-132 5377.9,-102.66 5316.16,-84.11 5268.75,-74.65"/>
<polygon fill="midnightblue" stroke="midnightblue" points="5269.37,-71.21 5258.89,-72.77 5268.06,-78.08 5269.37,-71.21"/>
</g>
<!-- Node37 -->
<g id="node35" class="node">
<title>Node37</title>
<g id="a_node35"><a xlink:href="wld__channel__types_8h.html" target="_top" xlink:title=" ">
<polygon fill="white" stroke="black" points="5396.5,-112.5 5396.5,-131.5 5515.5,-131.5 5515.5,-112.5 5396.5,-112.5"/>
<text text-anchor="middle" x="5456" y="-119.5" font-family="Helvetica,sans-Serif" font-size="10.00">wld_channel_types.h</text>
</a>
</g>
</g>
<!-- Node3&#45;&gt;Node37 -->
<g id="edge36" class="edge">
<title>Node3&#45;&gt;Node37</title>
<path fill="none" stroke="midnightblue" d="M2959.79,-169.7C2962.53,-169.01 2965.31,-168.41 2968,-168 3233.11,-127.07 5114.37,-150.22 5382,-132 5383.31,-131.91 5384.63,-131.81 5385.96,-131.71"/>
<polygon fill="midnightblue" stroke="midnightblue" points="5386.62,-135.17 5396.28,-130.82 5386.01,-128.19 5386.62,-135.17"/>
</g>
<!-- Node38 -->
<g id="node36" class="node">
<title>Node38</title>
<g id="a_node36"><a xlink:title=" ">
<polygon fill="white" stroke="#bfbfbf" points="5428.5,-56.5 5428.5,-75.5 5553.5,-75.5 5553.5,-56.5 5428.5,-56.5"/>
<text text-anchor="middle" x="5491" y="-63.5" font-family="Helvetica,sans-Serif" font-size="10.00">swla/swla_chanspec.h</text>
</a>
</g>
</g>
<!-- Node3&#45;&gt;Node38 -->
<g id="edge54" class="edge">
<title>Node3&#45;&gt;Node38</title>
<path fill="none" stroke="midnightblue" d="M2959.79,-169.7C2962.53,-169.01 2965.31,-168.41 2968,-168 3038.21,-157.19 5475.13,-182.58 5525,-132 5538.88,-117.92 5523.42,-97.01 5509.1,-82.74"/>
<polygon fill="midnightblue" stroke="midnightblue" points="5511.15,-79.86 5501.46,-75.57 5506.36,-84.97 5511.15,-79.86"/>
</g>
<!-- Node39 -->
<g id="node37" class="node">
<title>Node39</title>
<g id="a_node37"><a xlink:href="wld__bgdfs_8h.html" target="_top" xlink:title=" ">
<polygon fill="white" stroke="black" points="390.5,-112.5 390.5,-131.5 465.5,-131.5 465.5,-112.5 390.5,-112.5"/>
<text text-anchor="middle" x="428" y="-119.5" font-family="Helvetica,sans-Serif" font-size="10.00">wld_bgdfs.h</text>
</a>
</g>
</g>
<!-- Node3&#45;&gt;Node39 -->
<g id="edge40" class="edge">
<title>Node3&#45;&gt;Node39</title>
<path fill="none" stroke="midnightblue" d="M2916.32,-177.12C2704.9,-178.19 1007.2,-185.05 475.67,-131.82"/>
<polygon fill="midnightblue" stroke="midnightblue" points="475.93,-128.33 465.63,-130.79 475.22,-135.29 475.93,-128.33"/>
</g>
<!-- Node40 -->
<g id="node38" class="node">
<title>Node40</title>
<g id="a_node38"><a xlink:href="wld__rad__delayMgr_8h.html" target="_top" xlink:title=" ">
<polygon fill="white" stroke="black" points="4116,-112.5 4116,-131.5 4230,-131.5 4230,-112.5 4116,-112.5"/>
<text text-anchor="middle" x="4173" y="-119.5" font-family="Helvetica,sans-Serif" font-size="10.00">wld_rad_delayMgr.h</text>
</a>
</g>
</g>
<!-- Node3&#45;&gt;Node40 -->
<g id="edge42" class="edge">
<title>Node3&#45;&gt;Node40</title>
<path fill="none" stroke="midnightblue" d="M2956.4,-168.47C2957.27,-168.3 2958.14,-168.14 2959,-168 3208.72,-127.31 3844.85,-152.87 4097,-132 4099.85,-131.76 4102.77,-131.49 4105.72,-131.19"/>
<polygon fill="midnightblue" stroke="midnightblue" points="4106.28,-134.65 4115.83,-130.08 4105.51,-127.69 4106.28,-134.65"/>
</g>
<!-- Node41 -->
<g id="node39" class="node">
<title>Node41</title>
<g id="a_node39"><a xlink:href="wld__fsm_8h.html" target="_top" xlink:title=" ">
<polygon fill="white" stroke="black" points="5187.5,-112.5 5187.5,-131.5 5254.5,-131.5 5254.5,-112.5 5187.5,-112.5"/>
<text text-anchor="middle" x="5221" y="-119.5" font-family="Helvetica,sans-Serif" font-size="10.00">wld_fsm.h</text>
</a>
</g>
</g>
<!-- Node3&#45;&gt;Node41 -->
<g id="edge44" class="edge">
<title>Node3&#45;&gt;Node41</title>
<path fill="none" stroke="midnightblue" d="M2959.79,-169.71C2962.53,-169.01 2965.31,-168.42 2968,-168 3450.06,-93.23 4672.99,-185.28 5176.99,-131.81"/>
<polygon fill="midnightblue" stroke="midnightblue" points="5177.74,-135.25 5187.3,-130.69 5176.98,-128.29 5177.74,-135.25"/>
</g>
<!-- Node42 -->
<g id="node40" class="node">
<title>Node42</title>
<g id="a_node40"><a xlink:href="wld__sensing_8h.html" target="_top" xlink:title=" ">
<polygon fill="white" stroke="black" points="4248,-112.5 4248,-131.5 4334,-131.5 4334,-112.5 4248,-112.5"/>
<text text-anchor="middle" x="4291" y="-119.5" font-family="Helvetica,sans-Serif" font-size="10.00">wld_sensing.h</text>
</a>
</g>
</g>
<!-- Node3&#45;&gt;Node42 -->
<g id="edge46" class="edge">
<title>Node3&#45;&gt;Node42</title>
<path fill="none" stroke="midnightblue" d="M2956.4,-168.47C2957.27,-168.29 2958.14,-168.14 2959,-168 3237.95,-123.02 3948.85,-160.17 4230,-132 4232.51,-131.75 4235.09,-131.45 4237.69,-131.11"/>
<polygon fill="midnightblue" stroke="midnightblue" points="4238.42,-134.54 4247.82,-129.65 4237.43,-127.61 4238.42,-134.54"/>
</g>
<!-- Node43 -->
<g id="node41" class="node">
<title>Node43</title>
<g id="a_node41"><a xlink:href="wld__mld_8h.html" target="_top" xlink:title=" ">
<polygon fill="white" stroke="black" points="5272.5,-112.5 5272.5,-131.5 5339.5,-131.5 5339.5,-112.5 5272.5,-112.5"/>
<text text-anchor="middle" x="5306" y="-119.5" font-family="Helvetica,sans-Serif" font-size="10.00">wld_mld.h</text>
</a>
</g>
</g>
<!-- Node3&#45;&gt;Node43 -->
<g id="edge48" class="edge">
<title>Node3&#45;&gt;Node43</title>
<path fill="none" stroke="midnightblue" d="M2959.79,-169.7C2962.53,-169.01 2965.31,-168.42 2968,-168 3468.96,-90.46 4740.09,-188.43 5261.88,-131.99"/>
<polygon fill="midnightblue" stroke="midnightblue" points="5262.62,-135.43 5272.17,-130.84 5261.84,-128.47 5262.62,-135.43"/>
</g>
<!-- Node44 -->
<g id="node42" class="node">
<title>Node44</title>
<g id="a_node42"><a xlink:href="wld__autoCommitRadData_8h.html" target="_top" xlink:title=" ">
<polygon fill="white" stroke="black" points="4352,-112.5 4352,-131.5 4528,-131.5 4528,-112.5 4352,-112.5"/>
<text text-anchor="middle" x="4440" y="-119.5" font-family="Helvetica,sans-Serif" font-size="10.00">Utils/wld_autoCommitRadData.h</text>
</a>
</g>
</g>
<!-- Node3&#45;&gt;Node44 -->
<g id="edge50" class="edge">
<title>Node3&#45;&gt;Node44</title>
<path fill="none" stroke="midnightblue" d="M2959.8,-169.73C2962.54,-169.04 2965.32,-168.43 2968,-168 3266.57,-120.18 4021.43,-149.48 4341.71,-132.01"/>
<polygon fill="midnightblue" stroke="midnightblue" points="4342.21,-135.49 4351.99,-131.42 4341.81,-128.5 4342.21,-135.49"/>
</g>
<!-- Node45 -->
<g id="node43" class="node">
<title>Node45</title>
<g id="a_node43"><a xlink:href="wld__dmnMgt_8h.html" target="_top" xlink:title=" ">
<polygon fill="white" stroke="red" points="258,-112.5 258,-131.5 372,-131.5 372,-112.5 258,-112.5"/>
<text text-anchor="middle" x="315" y="-119.5" font-family="Helvetica,sans-Serif" font-size="10.00">Utils/wld_dmnMgt.h</text>
</a>
</g>
</g>
<!-- Node3&#45;&gt;Node45 -->
<g id="edge51" class="edge">
<title>Node3&#45;&gt;Node45</title>
<path fill="none" stroke="midnightblue" d="M2916.19,-176.97C2699.81,-176.65 934.52,-172.84 382.23,-131.98"/>
<polygon fill="midnightblue" stroke="midnightblue" points="382.43,-128.48 372.19,-131.22 381.9,-135.46 382.43,-128.48"/>
</g>
<!-- Node47 -->
<g id="node44" class="node">
<title>Node47</title>
<g id="a_node44"><a xlink:title=" ">
<polygon fill="white" stroke="#bfbfbf" points="4546.5,-112.5 4546.5,-131.5 4647.5,-131.5 4647.5,-112.5 4546.5,-112.5"/>
<text text-anchor="middle" x="4597" y="-119.5" font-family="Helvetica,sans-Serif" font-size="10.00">swl/swl_staCap.h</text>
</a>
</g>
</g>
<!-- Node3&#45;&gt;Node47 -->
<g id="edge55" class="edge">
<title>Node3&#45;&gt;Node47</title>
<path fill="none" stroke="midnightblue" d="M2959.8,-169.72C2962.53,-169.03 2965.31,-168.43 2968,-168 3309.26,-113.91 4173.3,-161.04 4536.25,-131.9"/>
<polygon fill="midnightblue" stroke="midnightblue" points="4536.64,-135.38 4546.31,-131.06 4536.06,-128.4 4536.64,-135.38"/>
</g>
<!-- Node48 -->
<g id="node45" class="node">
<title>Node48</title>
<g id="a_node45"><a xlink:title=" ">
<polygon fill="white" stroke="#bfbfbf" points="4666,-112.5 4666,-131.5 4770,-131.5 4770,-112.5 4666,-112.5"/>
<text text-anchor="middle" x="4718" y="-119.5" font-family="Helvetica,sans-Serif" font-size="10.00">swla/swla_table.h</text>
</a>
</g>
</g>
<!-- Node3&#45;&gt;Node48 -->
<g id="edge56" class="edge">
<title>Node3&#45;&gt;Node48</title>
<path fill="none" stroke="midnightblue" d="M2959.8,-169.72C2962.53,-169.02 2965.31,-168.42 2968,-168 3338.62,-109.56 4282.09,-163.01 4656,-132 4656.1,-131.99 4656.2,-131.98 4656.31,-131.97"/>
<polygon fill="midnightblue" stroke="midnightblue" points="4656.35,-135.49 4665.96,-131.03 4655.66,-128.52 4656.35,-135.49"/>
</g>
<!-- Node49 -->
<g id="node46" class="node">
<title>Node49</title>
<g id="a_node46"><a xlink:title=" ">
<polygon fill="white" stroke="#bfbfbf" points="4788.5,-112.5 4788.5,-131.5 4885.5,-131.5 4885.5,-112.5 4788.5,-112.5"/>
<text text-anchor="middle" x="4837" y="-119.5" font-family="Helvetica,sans-Serif" font-size="10.00">swl/swl_assert.h</text>
</a>
</g>
</g>
<!-- Node3&#45;&gt;Node49 -->
<g id="edge57" class="edge">
<title>Node3&#45;&gt;Node49</title>
<path fill="none" stroke="midnightblue" d="M2959.8,-169.71C2962.53,-169.02 2965.31,-168.42 2968,-168 3362.45,-106.1 4361.72,-165.96 4778.29,-131.89"/>
<polygon fill="midnightblue" stroke="midnightblue" points="4778.65,-135.37 4788.32,-131.04 4778.06,-128.39 4778.65,-135.37"/>
</g>
<!-- Node50 -->
<g id="node47" class="node">
<title>Node50</title>
<g id="a_node47"><a xlink:title=" ">
<polygon fill="white" stroke="#bfbfbf" points="4903.5,-112.5 4903.5,-131.5 5024.5,-131.5 5024.5,-112.5 4903.5,-112.5"/>
<text text-anchor="middle" x="4964" y="-119.5" font-family="Helvetica,sans-Serif" font-size="10.00">swl/swl_returnCode.h</text>
</a>
</g>
</g>
<!-- Node3&#45;&gt;Node50 -->
<g id="edge58" class="edge">
<title>Node3&#45;&gt;Node50</title>
<path fill="none" stroke="midnightblue" d="M2959.8,-169.71C2962.53,-169.02 2965.31,-168.42 2968,-168 3387.74,-102.38 4450.82,-162.42 4893.32,-131.92"/>
<polygon fill="midnightblue" stroke="midnightblue" points="4893.61,-135.41 4903.33,-131.21 4893.11,-128.43 4893.61,-135.41"/>
</g>
<!-- Node51 -->
<g id="node48" class="node">
<title>Node51</title>
<g id="a_node48"><a xlink:title=" ">
<polygon fill="white" stroke="#bfbfbf" points="5043,-112.5 5043,-131.5 5169,-131.5 5169,-112.5 5043,-112.5"/>
<text text-anchor="middle" x="5106" y="-119.5" font-family="Helvetica,sans-Serif" font-size="10.00">swla/swla_tupleType.h</text>
</a>
</g>
</g>
<!-- Node3&#45;&gt;Node51 -->
<g id="edge59" class="edge">
<title>Node3&#45;&gt;Node51</title>
<path fill="none" stroke="midnightblue" d="M2959.8,-169.71C2962.53,-169.02 2965.31,-168.42 2968,-168 3418.28,-97.9 4558.87,-163.19 5032.7,-131.9"/>
<polygon fill="midnightblue" stroke="midnightblue" points="5032.99,-135.39 5042.73,-131.21 5032.52,-128.4 5032.99,-135.39"/>
</g>
<!-- Node34&#45;&gt;Node5 -->
<g id="edge34" class="edge">
<title>Node34&#45;&gt;Node5</title>
<path fill="none" stroke="midnightblue" d="M5183.2,-64.6C4742.52,-59.94 588.76,-16 152.94,-11.39"/>
<polygon fill="midnightblue" stroke="midnightblue" points="152.82,-7.89 142.78,-11.28 152.74,-14.89 152.82,-7.89"/>
</g>
<!-- Node34&#45;&gt;Node10 -->
<g id="edge35" class="edge">
<title>Node34&#45;&gt;Node10</title>
<path fill="none" stroke="midnightblue" d="M5249.36,-56.44C5279.74,-47.28 5328.11,-32.69 5361.82,-22.52"/>
<polygon fill="midnightblue" stroke="midnightblue" points="5363.21,-25.76 5371.77,-19.52 5361.18,-19.05 5363.21,-25.76"/>
</g>
<!-- Node37&#45;&gt;Node4 -->
<g id="edge37" class="edge">
<title>Node37&#45;&gt;Node4</title>
<path fill="none" stroke="midnightblue" d="M5396.35,-115.16C5380.94,-113.88 5364.36,-112.7 5349,-112 4783.32,-86.26 834.46,-140.26 225.33,-75.82"/>
<polygon fill="midnightblue" stroke="midnightblue" points="225.66,-72.33 215.33,-74.72 224.89,-79.29 225.66,-72.33"/>
</g>
<!-- Node37&#45;&gt;Node10 -->
<g id="edge39" class="edge">
<title>Node37&#45;&gt;Node10</title>
<path fill="none" stroke="midnightblue" d="M5447.46,-112.41C5439.37,-103.84 5427.39,-89.97 5420,-76 5412.24,-61.32 5406.97,-43.16 5403.79,-29.76"/>
<polygon fill="midnightblue" stroke="midnightblue" points="5407.17,-28.84 5401.61,-19.82 5400.34,-30.34 5407.17,-28.84"/>
</g>
<!-- Node37&#45;&gt;Node38 -->
<g id="edge38" class="edge">
<title>Node37&#45;&gt;Node38</title>
<path fill="none" stroke="midnightblue" d="M5461.78,-112.08C5466.67,-104.53 5473.83,-93.49 5479.83,-84.23"/>
<polygon fill="midnightblue" stroke="midnightblue" points="5482.83,-86.05 5485.33,-75.75 5476.95,-82.24 5482.83,-86.05"/>
</g>
<!-- Node39&#45;&gt;Node34 -->
<g id="edge41" class="edge">
<title>Node39&#45;&gt;Node34</title>
<path fill="none" stroke="midnightblue" d="M465.62,-113.18C468.78,-112.71 471.94,-112.3 475,-112 966.92,-62.97 4707.23,-66.32 5173.36,-66.93"/>
<polygon fill="midnightblue" stroke="midnightblue" points="5173.45,-70.43 5183.45,-66.94 5173.46,-63.43 5173.45,-70.43"/>
</g>
<!-- Node40&#45;&gt;Node3 -->
<g id="edge43" class="edge">
<title>Node40&#45;&gt;Node3</title>
<path fill="none" stroke="midnightblue" d="M4120.33,-131.52C4118.53,-131.7 4116.75,-131.85 4115,-132 3862.85,-152.87 3226.72,-127.31 2977,-168 2974.56,-168.4 2972.04,-168.94 2969.49,-169.56"/>
<polygon fill="midnightblue" stroke="midnightblue" points="2968.41,-166.23 2959.66,-172.21 2970.23,-172.98 2968.41,-166.23"/>
</g>
<!-- Node41&#45;&gt;Node34 -->
<g id="edge45" class="edge">
<title>Node41&#45;&gt;Node34</title>
<path fill="none" stroke="midnightblue" d="M5221,-112.08C5221,-105.01 5221,-94.86 5221,-85.99"/>
<polygon fill="midnightblue" stroke="midnightblue" points="5224.5,-85.75 5221,-75.75 5217.5,-85.75 5224.5,-85.75"/>
</g>
<!-- Node42&#45;&gt;Node3 -->
<g id="edge47" class="edge">
<title>Node42&#45;&gt;Node3</title>
<path fill="none" stroke="midnightblue" d="M4252.43,-131.51C4250.94,-131.69 4249.46,-131.85 4248,-132 3966.85,-160.17 3255.95,-123.02 2977,-168 2974.56,-168.39 2972.04,-168.93 2969.49,-169.55"/>
<polygon fill="midnightblue" stroke="midnightblue" points="2968.4,-166.22 2959.66,-172.2 2970.23,-172.98 2968.4,-166.22"/>
</g>
<!-- Node43&#45;&gt;Node34 -->
<g id="edge49" class="edge">
<title>Node43&#45;&gt;Node34</title>
<path fill="none" stroke="midnightblue" d="M5292.34,-112.32C5279.08,-103.9 5258.73,-90.97 5243.15,-81.07"/>
<polygon fill="midnightblue" stroke="midnightblue" points="5244.94,-78.06 5234.62,-75.65 5241.19,-83.97 5244.94,-78.06"/>
</g>
<!-- Node45&#45;&gt;Node6 -->
<g id="edge52" class="edge">
<title>Node45&#45;&gt;Node6</title>
<path fill="none" stroke="midnightblue" d="M310.54,-112.08C306.85,-104.69 301.48,-93.95 296.91,-84.81"/>
<polygon fill="midnightblue" stroke="midnightblue" points="299.98,-83.13 292.38,-75.75 293.72,-86.26 299.98,-83.13"/>
</g>
<!-- Node45&#45;&gt;Node34 -->
<g id="edge53" class="edge">
<title>Node45&#45;&gt;Node34</title>
<path fill="none" stroke="midnightblue" d="M372.19,-112.75C375.17,-112.46 378.12,-112.21 381,-112 884.09,-75.51 4701.15,-67.88 5173.17,-67.08"/>
<polygon fill="midnightblue" stroke="midnightblue" points="5173.39,-70.58 5183.38,-67.06 5173.37,-63.58 5173.39,-70.58"/>
</g>
<!-- Node66&#45;&gt;Node4 -->
<g id="edge61" class="edge">
<title>Node66&#45;&gt;Node4</title>
<path fill="none" stroke="midnightblue" d="M66.18,-112.44C89.43,-103.48 126.15,-89.31 152.42,-79.18"/>
<polygon fill="midnightblue" stroke="midnightblue" points="153.85,-82.38 161.92,-75.52 151.33,-75.85 153.85,-82.38"/>
</g>
<!-- Node66&#45;&gt;Node5 -->
<g id="edge62" class="edge">
<title>Node66&#45;&gt;Node5</title>
<path fill="none" stroke="midnightblue" d="M49.65,-112.37C61.53,-94.22 89.29,-51.8 104.88,-27.99"/>
<polygon fill="midnightblue" stroke="midnightblue" points="107.83,-29.88 110.38,-19.59 101.97,-26.04 107.83,-29.88"/>
</g>
</g>
</svg>
