<?xml version="1.0" encoding="UTF-8" standalone="no"?>
<!DOCTYPE svg PUBLIC "-//W3C//DTD SVG 1.1//EN"
 "http://www.w3.org/Graphics/SVG/1.1/DTD/svg11.dtd">
<!-- Generated by graphviz version 2.43.0 (0)
 -->
<!-- Title: src/ApMgt/wld_ap_neighbours.c Pages: 1 -->
<svg width="4545pt" height="308pt"
 viewBox="0.00 0.00 4545.14 308.00" xmlns="http://www.w3.org/2000/svg" xmlns:xlink="http://www.w3.org/1999/xlink">
<g id="graph0" class="graph" transform="scale(1 1) rotate(0) translate(4 304)">
<title>src/ApMgt/wld_ap_neighbours.c</title>
<polygon fill="white" stroke="transparent" points="-4,4 -4,-304 4541.14,-304 4541.14,4 -4,4"/>
<!-- Node1 -->
<g id="node1" class="node">
<title>Node1</title>
<g id="a_node1"><a xlink:title=" ">
<polygon fill="#bfbfbf" stroke="black" points="2406.64,-280.5 2406.64,-299.5 2576.64,-299.5 2576.64,-280.5 2406.64,-280.5"/>
<text text-anchor="middle" x="2491.64" y="-287.5" font-family="Helvetica,sans-Serif" font-size="10.00">src/ApMgt/wld_ap_neighbours.c</text>
</a>
</g>
</g>
<!-- Node2 -->
<g id="node2" class="node">
<title>Node2</title>
<g id="a_node2"><a xlink:title=" ">
<polygon fill="white" stroke="#bfbfbf" points="1952.64,-224.5 1952.64,-243.5 2002.64,-243.5 2002.64,-224.5 1952.64,-224.5"/>
<text text-anchor="middle" x="1977.64" y="-231.5" font-family="Helvetica,sans-Serif" font-size="10.00">stdio.h</text>
</a>
</g>
</g>
<!-- Node1&#45;&gt;Node2 -->
<g id="edge1" class="edge">
<title>Node1&#45;&gt;Node2</title>
<path fill="none" stroke="midnightblue" d="M2406.54,-285.28C2312.3,-280.19 2155.86,-268.9 2012.64,-243.9"/>
<polygon fill="midnightblue" stroke="midnightblue" points="2013.25,-240.45 2002.79,-242.15 2012.03,-247.34 2013.25,-240.45"/>
</g>
<!-- Node3 -->
<g id="node3" class="node">
<title>Node3</title>
<g id="a_node3"><a xlink:title=" ">
<polygon fill="white" stroke="#bfbfbf" points="2021.14,-224.5 2021.14,-243.5 2074.14,-243.5 2074.14,-224.5 2021.14,-224.5"/>
<text text-anchor="middle" x="2047.64" y="-231.5" font-family="Helvetica,sans-Serif" font-size="10.00">stdlib.h</text>
</a>
</g>
</g>
<!-- Node1&#45;&gt;Node3 -->
<g id="edge2" class="edge">
<title>Node1&#45;&gt;Node3</title>
<path fill="none" stroke="midnightblue" d="M2406.54,-283.18C2325.8,-276.85 2200.99,-264.97 2084.48,-244.12"/>
<polygon fill="midnightblue" stroke="midnightblue" points="2084.78,-240.62 2074.31,-242.27 2083.52,-247.5 2084.78,-240.62"/>
</g>
<!-- Node4 -->
<g id="node4" class="node">
<title>Node4</title>
<g id="a_node4"><a xlink:title=" ">
<polygon fill="white" stroke="#bfbfbf" points="2092.14,-224.5 2092.14,-243.5 2145.14,-243.5 2145.14,-224.5 2092.14,-224.5"/>
<text text-anchor="middle" x="2118.64" y="-231.5" font-family="Helvetica,sans-Serif" font-size="10.00">string.h</text>
</a>
</g>
</g>
<!-- Node1&#45;&gt;Node4 -->
<g id="edge3" class="edge">
<title>Node1&#45;&gt;Node4</title>
<path fill="none" stroke="midnightblue" d="M2406.46,-280.51C2340.25,-273.24 2245.97,-261.47 2155.23,-244.13"/>
<polygon fill="midnightblue" stroke="midnightblue" points="2155.81,-240.68 2145.32,-242.21 2154.48,-247.55 2155.81,-240.68"/>
</g>
<!-- Node5 -->
<g id="node5" class="node">
<title>Node5</title>
<g id="a_node5"><a xlink:title=" ">
<polygon fill="white" stroke="#bfbfbf" points="2163.14,-224.5 2163.14,-243.5 2264.14,-243.5 2264.14,-224.5 2163.14,-224.5"/>
<text text-anchor="middle" x="2213.64" y="-231.5" font-family="Helvetica,sans-Serif" font-size="10.00">debug/sahtrace.h</text>
</a>
</g>
</g>
<!-- Node1&#45;&gt;Node5 -->
<g id="edge4" class="edge">
<title>Node1&#45;&gt;Node5</title>
<path fill="none" stroke="midnightblue" d="M2447.59,-280.44C2398.79,-270.96 2320.08,-255.67 2267.62,-245.48"/>
<polygon fill="midnightblue" stroke="midnightblue" points="2267.97,-241.99 2257.49,-243.52 2266.64,-248.86 2267.97,-241.99"/>
</g>
<!-- Node6 -->
<g id="node6" class="node">
<title>Node6</title>
<g id="a_node6"><a xlink:title=" ">
<polygon fill="white" stroke="#bfbfbf" points="2282.64,-224.5 2282.64,-243.5 2338.64,-243.5 2338.64,-224.5 2282.64,-224.5"/>
<text text-anchor="middle" x="2310.64" y="-231.5" font-family="Helvetica,sans-Serif" font-size="10.00">assert.h</text>
</a>
</g>
</g>
<!-- Node1&#45;&gt;Node6 -->
<g id="edge5" class="edge">
<title>Node1&#45;&gt;Node6</title>
<path fill="none" stroke="midnightblue" d="M2462.96,-280.44C2432.03,-271.21 2382.63,-256.48 2348.52,-246.3"/>
<polygon fill="midnightblue" stroke="midnightblue" points="2349.48,-242.93 2338.89,-243.43 2347.47,-249.64 2349.48,-242.93"/>
</g>
<!-- Node7 -->
<g id="node7" class="node">
<title>Node7</title>
<g id="a_node7"><a xlink:href="wld_8h.html" target="_top" xlink:title=" ">
<polygon fill="white" stroke="red" points="2575.14,-168.5 2575.14,-187.5 2618.14,-187.5 2618.14,-168.5 2575.14,-168.5"/>
<text text-anchor="middle" x="2596.64" y="-175.5" font-family="Helvetica,sans-Serif" font-size="10.00">wld.h</text>
</a>
</g>
</g>
<!-- Node1&#45;&gt;Node7 -->
<g id="edge6" class="edge">
<title>Node1&#45;&gt;Node7</title>
<path fill="none" stroke="midnightblue" d="M2576.73,-283.9C2674.95,-277.13 2825.32,-263.69 2842.64,-244 2848.52,-237.33 2848.34,-230.83 2842.64,-224 2815.7,-191.68 2688.49,-182.5 2628.33,-179.95"/>
<polygon fill="midnightblue" stroke="midnightblue" points="2628.38,-176.45 2618.25,-179.56 2628.11,-183.45 2628.38,-176.45"/>
</g>
<!-- Node53 -->
<g id="node44" class="node">
<title>Node53</title>
<g id="a_node44"><a xlink:title=" ">
<polygon fill="white" stroke="#bfbfbf" points="4440.14,-112.5 4440.14,-131.5 4537.14,-131.5 4537.14,-112.5 4440.14,-112.5"/>
<text text-anchor="middle" x="4488.64" y="-119.5" font-family="Helvetica,sans-Serif" font-size="10.00">swl/swl_assert.h</text>
</a>
</g>
</g>
<!-- Node1&#45;&gt;Node53 -->
<g id="edge63" class="edge">
<title>Node1&#45;&gt;Node53</title>
<path fill="none" stroke="midnightblue" d="M2576.65,-283.42C2651.56,-277.35 2763.31,-265.51 2858.64,-244 2886.06,-237.81 2891.05,-229.35 2918.64,-224 3571.73,-97.3 3750.06,-191.59 4412.64,-132 4418.19,-131.5 4423.95,-130.93 4429.71,-130.31"/>
<polygon fill="midnightblue" stroke="midnightblue" points="4430.48,-133.75 4440.04,-129.17 4429.71,-126.79 4430.48,-133.75"/>
</g>
<!-- Node80 -->
<g id="node45" class="node">
<title>Node80</title>
<g id="a_node45"><a xlink:href="wld__util_8h.html" target="_top" xlink:title=" ">
<polygon fill="white" stroke="black" points="2356.64,-224.5 2356.64,-243.5 2420.64,-243.5 2420.64,-224.5 2356.64,-224.5"/>
<text text-anchor="middle" x="2388.64" y="-231.5" font-family="Helvetica,sans-Serif" font-size="10.00">wld_util.h</text>
</a>
</g>
</g>
<!-- Node1&#45;&gt;Node80 -->
<g id="edge52" class="edge">
<title>Node1&#45;&gt;Node80</title>
<path fill="none" stroke="midnightblue" d="M2475.1,-280.32C2458.65,-271.7 2433.21,-258.36 2414.18,-248.39"/>
<polygon fill="midnightblue" stroke="midnightblue" points="2415.63,-245.2 2405.15,-243.65 2412.38,-251.4 2415.63,-245.2"/>
</g>
<!-- Node81 -->
<g id="node46" class="node">
<title>Node81</title>
<g id="a_node46"><a xlink:href="wld__accesspoint_8h.html" target="_top" xlink:title=" ">
<polygon fill="white" stroke="red" points="2438.64,-224.5 2438.64,-243.5 2544.64,-243.5 2544.64,-224.5 2438.64,-224.5"/>
<text text-anchor="middle" x="2491.64" y="-231.5" font-family="Helvetica,sans-Serif" font-size="10.00">wld_accesspoint.h</text>
</a>
</g>
</g>
<!-- Node1&#45;&gt;Node81 -->
<g id="edge54" class="edge">
<title>Node1&#45;&gt;Node81</title>
<path fill="none" stroke="midnightblue" d="M2491.64,-280.08C2491.64,-273.01 2491.64,-262.86 2491.64,-253.99"/>
<polygon fill="midnightblue" stroke="midnightblue" points="2495.14,-253.75 2491.64,-243.75 2488.14,-253.75 2495.14,-253.75"/>
</g>
<!-- Node83 -->
<g id="node47" class="node">
<title>Node83</title>
<g id="a_node47"><a xlink:href="wld__ssid_8h.html" target="_top" xlink:title=" ">
<polygon fill="white" stroke="black" points="2562.64,-224.5 2562.64,-243.5 2630.64,-243.5 2630.64,-224.5 2562.64,-224.5"/>
<text text-anchor="middle" x="2596.64" y="-231.5" font-family="Helvetica,sans-Serif" font-size="10.00">wld_ssid.h</text>
</a>
</g>
</g>
<!-- Node1&#45;&gt;Node83 -->
<g id="edge56" class="edge">
<title>Node1&#45;&gt;Node83</title>
<path fill="none" stroke="midnightblue" d="M2508.51,-280.32C2525.35,-271.66 2551.45,-258.24 2570.88,-248.25"/>
<polygon fill="midnightblue" stroke="midnightblue" points="2572.52,-251.34 2579.82,-243.65 2569.32,-245.12 2572.52,-251.34"/>
</g>
<!-- Node84 -->
<g id="node48" class="node">
<title>Node84</title>
<g id="a_node48"><a xlink:href="wld__radio_8h.html" target="_top" xlink:title=" ">
<polygon fill="white" stroke="red" points="2649.14,-224.5 2649.14,-243.5 2722.14,-243.5 2722.14,-224.5 2649.14,-224.5"/>
<text text-anchor="middle" x="2685.64" y="-231.5" font-family="Helvetica,sans-Serif" font-size="10.00">wld_radio.h</text>
</a>
</g>
</g>
<!-- Node1&#45;&gt;Node84 -->
<g id="edge58" class="edge">
<title>Node1&#45;&gt;Node84</title>
<path fill="none" stroke="midnightblue" d="M2522.38,-280.44C2555.59,-271.2 2608.64,-256.44 2645.2,-246.26"/>
<polygon fill="midnightblue" stroke="midnightblue" points="2646.35,-249.57 2655.05,-243.52 2644.48,-242.83 2646.35,-249.57"/>
</g>
<!-- Node91 -->
<g id="node49" class="node">
<title>Node91</title>
<g id="a_node49"><a xlink:href="wld__assocdev_8h.html" target="_top" xlink:title=" ">
<polygon fill="white" stroke="red" points="2740.14,-224.5 2740.14,-243.5 2833.14,-243.5 2833.14,-224.5 2740.14,-224.5"/>
<text text-anchor="middle" x="2786.64" y="-231.5" font-family="Helvetica,sans-Serif" font-size="10.00">wld_assocdev.h</text>
</a>
</g>
</g>
<!-- Node1&#45;&gt;Node91 -->
<g id="edge60" class="edge">
<title>Node1&#45;&gt;Node91</title>
<path fill="none" stroke="midnightblue" d="M2538.39,-280.44C2590.39,-270.92 2674.4,-255.55 2730.07,-245.36"/>
<polygon fill="midnightblue" stroke="midnightblue" points="2730.91,-248.76 2740.12,-243.52 2729.65,-241.87 2730.91,-248.76"/>
</g>
<!-- Node94 -->
<g id="node50" class="node">
<title>Node94</title>
<g id="a_node50"><a xlink:href="wld__autoCommitMgr_8h.html" target="_top" xlink:title=" ">
<polygon fill="white" stroke="black" points="2927.64,-224.5 2927.64,-243.5 3079.64,-243.5 3079.64,-224.5 2927.64,-224.5"/>
<text text-anchor="middle" x="3003.64" y="-231.5" font-family="Helvetica,sans-Serif" font-size="10.00">Utils/wld_autoCommitMgr.h</text>
</a>
</g>
</g>
<!-- Node1&#45;&gt;Node94 -->
<g id="edge62" class="edge">
<title>Node1&#45;&gt;Node94</title>
<path fill="none" stroke="midnightblue" d="M2572.49,-280.47C2666.52,-270.56 2821.12,-254.25 2917.4,-244.1"/>
<polygon fill="midnightblue" stroke="midnightblue" points="2917.82,-247.57 2927.4,-243.04 2917.09,-240.61 2917.82,-247.57"/>
</g>
<!-- Node8 -->
<g id="node8" class="node">
<title>Node8</title>
<g id="a_node8"><a xlink:title=" ">
<polygon fill="white" stroke="#bfbfbf" points="4157.64,-56.5 4157.64,-75.5 4219.64,-75.5 4219.64,-56.5 4157.64,-56.5"/>
<text text-anchor="middle" x="4188.64" y="-63.5" font-family="Helvetica,sans-Serif" font-size="10.00">stdbool.h</text>
</a>
</g>
</g>
<!-- Node7&#45;&gt;Node8 -->
<g id="edge7" class="edge">
<title>Node7&#45;&gt;Node8</title>
<path fill="none" stroke="midnightblue" d="M2618.4,-176.29C2666.55,-174.72 2785.79,-170.87 2885.64,-168 2923.56,-166.91 4224.18,-159.17 4250.64,-132 4267.84,-114.35 4240.18,-93.72 4216.49,-80.52"/>
<polygon fill="midnightblue" stroke="midnightblue" points="4217.86,-77.28 4207.38,-75.68 4214.57,-83.46 4217.86,-77.28"/>
</g>
<!-- Node9 -->
<g id="node9" class="node">
<title>Node9</title>
<g id="a_node9"><a xlink:title=" ">
<polygon fill="white" stroke="#bfbfbf" points="1901.14,-0.5 1901.14,-19.5 1954.14,-19.5 1954.14,-0.5 1901.14,-0.5"/>
<text text-anchor="middle" x="1927.64" y="-7.5" font-family="Helvetica,sans-Serif" font-size="10.00">stdint.h</text>
</a>
</g>
</g>
<!-- Node7&#45;&gt;Node9 -->
<g id="edge8" class="edge">
<title>Node7&#45;&gt;Node9</title>
<path fill="none" stroke="midnightblue" d="M2575.05,-177.05C2328.47,-177.52 52.38,-180.58 4.64,-132 -1.59,-125.66 -1.47,-118.45 4.64,-112 72.13,-40.88 1631.17,-15.29 1891.07,-11.51"/>
<polygon fill="midnightblue" stroke="midnightblue" points="1891.17,-15.01 1901.12,-11.36 1891.07,-8.01 1891.17,-15.01"/>
</g>
<!-- Node10 -->
<g id="node10" class="node">
<title>Node10</title>
<g id="a_node10"><a xlink:title=" ">
<polygon fill="white" stroke="#bfbfbf" points="13.64,-112.5 13.64,-131.5 123.64,-131.5 123.64,-112.5 13.64,-112.5"/>
<text text-anchor="middle" x="68.64" y="-119.5" font-family="Helvetica,sans-Serif" font-size="10.00">swl/swl_common.h</text>
</a>
</g>
</g>
<!-- Node7&#45;&gt;Node10 -->
<g id="edge9" class="edge">
<title>Node7&#45;&gt;Node10</title>
<path fill="none" stroke="midnightblue" d="M2574.97,-176.97C2363.6,-176.62 666.21,-172.56 133.82,-131.97"/>
<polygon fill="midnightblue" stroke="midnightblue" points="134,-128.47 123.76,-131.18 133.45,-135.45 134,-128.47"/>
</g>
<!-- Node11 -->
<g id="node11" class="node">
<title>Node11</title>
<g id="a_node11"><a xlink:title=" ">
<polygon fill="white" stroke="#bfbfbf" points="141.64,-112.5 141.64,-131.5 277.64,-131.5 277.64,-112.5 141.64,-112.5"/>
<text text-anchor="middle" x="209.64" y="-119.5" font-family="Helvetica,sans-Serif" font-size="10.00">swla/swla_commonLib.h</text>
</a>
</g>
</g>
<!-- Node7&#45;&gt;Node11 -->
<g id="edge10" class="edge">
<title>Node7&#45;&gt;Node11</title>
<path fill="none" stroke="midnightblue" d="M2575.07,-176.87C2371.64,-175.6 787.75,-164.75 288.21,-132.02"/>
<polygon fill="midnightblue" stroke="midnightblue" points="288.26,-128.52 278.05,-131.34 287.79,-135.5 288.26,-128.52"/>
</g>
<!-- Node12 -->
<g id="node12" class="node">
<title>Node12</title>
<g id="a_node12"><a xlink:title=" ">
<polygon fill="white" stroke="#bfbfbf" points="295.64,-112.5 295.64,-131.5 383.64,-131.5 383.64,-112.5 295.64,-112.5"/>
<text text-anchor="middle" x="339.64" y="-119.5" font-family="Helvetica,sans-Serif" font-size="10.00">swl/swl_uuid.h</text>
</a>
</g>
</g>
<!-- Node7&#45;&gt;Node12 -->
<g id="edge11" class="edge">
<title>Node7&#45;&gt;Node12</title>
<path fill="none" stroke="midnightblue" d="M2575.12,-177C2377.13,-176.94 869.76,-175.12 393.85,-131.93"/>
<polygon fill="midnightblue" stroke="midnightblue" points="394.11,-128.44 383.83,-131 393.46,-135.41 394.11,-128.44"/>
</g>
<!-- Node13 -->
<g id="node13" class="node">
<title>Node13</title>
<g id="a_node13"><a xlink:title=" ">
<polygon fill="white" stroke="#bfbfbf" points="401.64,-112.5 401.64,-131.5 553.64,-131.5 553.64,-112.5 401.64,-112.5"/>
<text text-anchor="middle" x="477.64" y="-119.5" font-family="Helvetica,sans-Serif" font-size="10.00">swla/swla_radioStandards.h</text>
</a>
</g>
</g>
<!-- Node7&#45;&gt;Node13 -->
<g id="edge12" class="edge">
<title>Node7&#45;&gt;Node13</title>
<path fill="none" stroke="midnightblue" d="M2575.02,-176.77C2385.56,-174.73 1004.59,-159.09 564.3,-132.04"/>
<polygon fill="midnightblue" stroke="midnightblue" points="564.27,-128.53 554.07,-131.4 563.84,-135.52 564.27,-128.53"/>
</g>
<!-- Node14 -->
<g id="node14" class="node">
<title>Node14</title>
<g id="a_node14"><a xlink:title=" ">
<polygon fill="white" stroke="#bfbfbf" points="3999.14,-0.5 3999.14,-19.5 4100.14,-19.5 4100.14,-0.5 3999.14,-0.5"/>
<text text-anchor="middle" x="4049.64" y="-7.5" font-family="Helvetica,sans-Serif" font-size="10.00">swla/swla_time.h</text>
</a>
</g>
</g>
<!-- Node7&#45;&gt;Node14 -->
<g id="edge13" class="edge">
<title>Node7&#45;&gt;Node14</title>
<path fill="none" stroke="midnightblue" d="M2618.4,-176.27C2666.55,-174.66 2785.79,-170.75 2885.64,-168 2927.5,-166.85 4363.39,-161.96 4392.64,-132 4479.34,-43.21 4230.8,-19.44 4110.63,-13.18"/>
<polygon fill="midnightblue" stroke="midnightblue" points="4110.62,-9.68 4100.46,-12.68 4110.27,-16.67 4110.62,-9.68"/>
</g>
<!-- Node15 -->
<g id="node15" class="node">
<title>Node15</title>
<g id="a_node15"><a xlink:title=" ">
<polygon fill="white" stroke="#bfbfbf" points="657.14,-112.5 657.14,-131.5 786.14,-131.5 786.14,-112.5 657.14,-112.5"/>
<text text-anchor="middle" x="721.64" y="-119.5" font-family="Helvetica,sans-Serif" font-size="10.00">swla/swla_time_spec.h</text>
</a>
</g>
</g>
<!-- Node7&#45;&gt;Node15 -->
<g id="edge14" class="edge">
<title>Node7&#45;&gt;Node15</title>
<path fill="none" stroke="midnightblue" d="M2575.03,-176.75C2398.26,-174.63 1187.24,-159.33 796.39,-131.95"/>
<polygon fill="midnightblue" stroke="midnightblue" points="796.41,-128.44 786.18,-131.22 795.91,-135.43 796.41,-128.44"/>
</g>
<!-- Node16 -->
<g id="node16" class="node">
<title>Node16</title>
<g id="a_node16"><a xlink:title=" ">
<polygon fill="white" stroke="#bfbfbf" points="804.64,-112.5 804.64,-131.5 898.64,-131.5 898.64,-112.5 804.64,-112.5"/>
<text text-anchor="middle" x="851.64" y="-119.5" font-family="Helvetica,sans-Serif" font-size="10.00">swla/swla_oui.h</text>
</a>
</g>
</g>
<!-- Node7&#45;&gt;Node16 -->
<g id="edge15" class="edge">
<title>Node7&#45;&gt;Node16</title>
<path fill="none" stroke="midnightblue" d="M2575.02,-176.82C2404.56,-175.34 1274.44,-164.43 909.01,-131.97"/>
<polygon fill="midnightblue" stroke="midnightblue" points="909.22,-128.48 898.95,-131.05 908.59,-135.45 909.22,-128.48"/>
</g>
<!-- Node17 -->
<g id="node17" class="node">
<title>Node17</title>
<g id="a_node17"><a xlink:title=" ">
<polygon fill="white" stroke="#bfbfbf" points="916.64,-112.5 916.64,-131.5 1044.64,-131.5 1044.64,-112.5 916.64,-112.5"/>
<text text-anchor="middle" x="980.64" y="-119.5" font-family="Helvetica,sans-Serif" font-size="10.00">swla/swla_delayExec.h</text>
</a>
</g>
</g>
<!-- Node7&#45;&gt;Node17 -->
<g id="edge16" class="edge">
<title>Node7&#45;&gt;Node17</title>
<path fill="none" stroke="midnightblue" d="M2574.85,-177.13C2437.88,-177.8 1681.79,-179.14 1054.85,-132.01"/>
<polygon fill="midnightblue" stroke="midnightblue" points="1054.94,-128.51 1044.71,-131.24 1054.41,-135.49 1054.94,-128.51"/>
</g>
<!-- Node18 -->
<g id="node18" class="node">
<title>Node18</title>
<g id="a_node18"><a xlink:title=" ">
<polygon fill="white" stroke="#bfbfbf" points="1063.14,-112.5 1063.14,-131.5 1182.14,-131.5 1182.14,-112.5 1063.14,-112.5"/>
<text text-anchor="middle" x="1122.64" y="-119.5" font-family="Helvetica,sans-Serif" font-size="10.00">swla/swla_function.h</text>
</a>
</g>
</g>
<!-- Node7&#45;&gt;Node18 -->
<g id="edge17" class="edge">
<title>Node7&#45;&gt;Node18</title>
<path fill="none" stroke="midnightblue" d="M2575.12,-177.12C2446.02,-177.64 1761.01,-178.09 1192.36,-132.06"/>
<polygon fill="midnightblue" stroke="midnightblue" points="1192.56,-128.56 1182.31,-131.24 1192,-135.54 1192.56,-128.56"/>
</g>
<!-- Node19 -->
<g id="node19" class="node">
<title>Node19</title>
<g id="a_node19"><a xlink:title=" ">
<polygon fill="white" stroke="#bfbfbf" points="1200.14,-112.5 1200.14,-131.5 1341.14,-131.5 1341.14,-112.5 1200.14,-112.5"/>
<text text-anchor="middle" x="1270.64" y="-119.5" font-family="Helvetica,sans-Serif" font-size="10.00">swl/swl_usp_cmdStatus.h</text>
</a>
</g>
</g>
<!-- Node7&#45;&gt;Node19 -->
<g id="edge18" class="edge">
<title>Node7&#45;&gt;Node19</title>
<path fill="none" stroke="midnightblue" d="M2574.88,-176.83C2454.08,-175.77 1853.51,-168.81 1351.27,-131.98"/>
<polygon fill="midnightblue" stroke="midnightblue" points="1351.52,-128.49 1341.29,-131.24 1351,-135.47 1351.52,-128.49"/>
</g>
<!-- Node20 -->
<g id="node20" class="node">
<title>Node20</title>
<g id="a_node20"><a xlink:title=" ">
<polygon fill="white" stroke="#bfbfbf" points="1359.64,-112.5 1359.64,-131.5 1445.64,-131.5 1445.64,-112.5 1359.64,-112.5"/>
<text text-anchor="middle" x="1402.64" y="-119.5" font-family="Helvetica,sans-Serif" font-size="10.00">swl/swl_wps.h</text>
</a>
</g>
</g>
<!-- Node7&#45;&gt;Node20 -->
<g id="edge19" class="edge">
<title>Node7&#45;&gt;Node20</title>
<path fill="none" stroke="midnightblue" d="M2574.79,-177.21C2459.75,-178.1 1912.62,-179.56 1455.81,-131.97"/>
<polygon fill="midnightblue" stroke="midnightblue" points="1456.02,-128.47 1445.71,-130.9 1455.29,-135.43 1456.02,-128.47"/>
</g>
<!-- Node21 -->
<g id="node21" class="node">
<title>Node21</title>
<g id="a_node21"><a xlink:title=" ">
<polygon fill="white" stroke="#bfbfbf" points="1463.64,-112.5 1463.64,-131.5 1567.64,-131.5 1567.64,-112.5 1463.64,-112.5"/>
<text text-anchor="middle" x="1515.64" y="-119.5" font-family="Helvetica,sans-Serif" font-size="10.00">swl/swl_security.h</text>
</a>
</g>
</g>
<!-- Node7&#45;&gt;Node21 -->
<g id="edge20" class="edge">
<title>Node7&#45;&gt;Node21</title>
<path fill="none" stroke="midnightblue" d="M2575.05,-176.87C2468.12,-176.04 1984.43,-170.29 1578.03,-132.03"/>
<polygon fill="midnightblue" stroke="midnightblue" points="1578.13,-128.52 1567.85,-131.06 1577.47,-135.49 1578.13,-128.52"/>
</g>
<!-- Node22 -->
<g id="node22" class="node">
<title>Node22</title>
<g id="a_node22"><a xlink:title=" ">
<polygon fill="white" stroke="#bfbfbf" points="1586.14,-112.5 1586.14,-131.5 1669.14,-131.5 1669.14,-112.5 1586.14,-112.5"/>
<text text-anchor="middle" x="1627.64" y="-119.5" font-family="Helvetica,sans-Serif" font-size="10.00">amxc/amxc.h</text>
</a>
</g>
</g>
<!-- Node7&#45;&gt;Node22 -->
<g id="edge21" class="edge">
<title>Node7&#45;&gt;Node22</title>
<path fill="none" stroke="midnightblue" d="M2574.88,-176.94C2474.15,-176.46 2043.13,-172.1 1679.53,-131.93"/>
<polygon fill="midnightblue" stroke="midnightblue" points="1679.66,-128.43 1669.33,-130.8 1678.88,-135.38 1679.66,-128.43"/>
</g>
<!-- Node23 -->
<g id="node23" class="node">
<title>Node23</title>
<g id="a_node23"><a xlink:title=" ">
<polygon fill="white" stroke="#bfbfbf" points="1687.64,-112.5 1687.64,-131.5 1771.64,-131.5 1771.64,-112.5 1687.64,-112.5"/>
<text text-anchor="middle" x="1729.64" y="-119.5" font-family="Helvetica,sans-Serif" font-size="10.00">amxp/amxp.h</text>
</a>
</g>
</g>
<!-- Node7&#45;&gt;Node23 -->
<g id="edge22" class="edge">
<title>Node7&#45;&gt;Node23</title>
<path fill="none" stroke="midnightblue" d="M2575.13,-176.76C2481.83,-175.51 2102.84,-168.42 1781.85,-132"/>
<polygon fill="midnightblue" stroke="midnightblue" points="1782.22,-128.52 1771.89,-130.86 1781.43,-135.47 1782.22,-128.52"/>
</g>
<!-- Node24 -->
<g id="node24" class="node">
<title>Node24</title>
<g id="a_node24"><a xlink:title=" ">
<polygon fill="white" stroke="#bfbfbf" points="1789.64,-112.5 1789.64,-131.5 1929.64,-131.5 1929.64,-112.5 1789.64,-112.5"/>
<text text-anchor="middle" x="1859.64" y="-119.5" font-family="Helvetica,sans-Serif" font-size="10.00">amxd/amxd_parameter.h</text>
</a>
</g>
</g>
<!-- Node7&#45;&gt;Node24 -->
<g id="edge23" class="edge">
<title>Node7&#45;&gt;Node24</title>
<path fill="none" stroke="midnightblue" d="M2575.03,-175.88C2493.46,-171.57 2196.35,-155.19 1940.09,-132.09"/>
<polygon fill="midnightblue" stroke="midnightblue" points="1940.11,-128.58 1929.84,-131.16 1939.48,-135.55 1940.11,-128.58"/>
</g>
<!-- Node25 -->
<g id="node25" class="node">
<title>Node25</title>
<g id="a_node25"><a xlink:title=" ">
<polygon fill="white" stroke="#bfbfbf" points="1948.14,-112.5 1948.14,-131.5 2067.14,-131.5 2067.14,-112.5 1948.14,-112.5"/>
<text text-anchor="middle" x="2007.64" y="-119.5" font-family="Helvetica,sans-Serif" font-size="10.00">amxd/amxd_action.h</text>
</a>
</g>
</g>
<!-- Node7&#45;&gt;Node25 -->
<g id="edge24" class="edge">
<title>Node7&#45;&gt;Node25</title>
<path fill="none" stroke="midnightblue" d="M2574.77,-175.47C2504.28,-170.46 2276.52,-153.68 2077.39,-132.15"/>
<polygon fill="midnightblue" stroke="midnightblue" points="2077.65,-128.66 2067.33,-131.06 2076.89,-135.62 2077.65,-128.66"/>
</g>
<!-- Node26 -->
<g id="node26" class="node">
<title>Node26</title>
<g id="a_node26"><a xlink:title=" ">
<polygon fill="white" stroke="#bfbfbf" points="2085.14,-112.5 2085.14,-131.5 2260.14,-131.5 2260.14,-112.5 2085.14,-112.5"/>
<text text-anchor="middle" x="2172.64" y="-119.5" font-family="Helvetica,sans-Serif" font-size="10.00">amxd/amxd_object_parameter.h</text>
</a>
</g>
</g>
<!-- Node7&#45;&gt;Node26 -->
<g id="edge25" class="edge">
<title>Node7&#45;&gt;Node26</title>
<path fill="none" stroke="midnightblue" d="M2575.04,-174.25C2515.81,-166.71 2348.72,-145.42 2249.46,-132.78"/>
<polygon fill="midnightblue" stroke="midnightblue" points="2249.84,-129.3 2239.48,-131.51 2248.96,-136.25 2249.84,-129.3"/>
</g>
<!-- Node27 -->
<g id="node27" class="node">
<title>Node27</title>
<g id="a_node27"><a xlink:title=" ">
<polygon fill="white" stroke="#bfbfbf" points="2278.64,-112.5 2278.64,-131.5 2430.64,-131.5 2430.64,-112.5 2278.64,-112.5"/>
<text text-anchor="middle" x="2354.64" y="-119.5" font-family="Helvetica,sans-Serif" font-size="10.00">amxd/amxd_object_event.h</text>
</a>
</g>
</g>
<!-- Node7&#45;&gt;Node27 -->
<g id="edge26" class="edge">
<title>Node7&#45;&gt;Node27</title>
<path fill="none" stroke="midnightblue" d="M2574.74,-172.11C2536.13,-163.5 2455.1,-145.42 2402.86,-133.76"/>
<polygon fill="midnightblue" stroke="midnightblue" points="2403.34,-130.28 2392.82,-131.52 2401.82,-137.11 2403.34,-130.28"/>
</g>
<!-- Node28 -->
<g id="node28" class="node">
<title>Node28</title>
<g id="a_node28"><a xlink:title=" ">
<polygon fill="white" stroke="#bfbfbf" points="2449.14,-112.5 2449.14,-131.5 2578.14,-131.5 2578.14,-112.5 2449.14,-112.5"/>
<text text-anchor="middle" x="2513.64" y="-119.5" font-family="Helvetica,sans-Serif" font-size="10.00">amxd/amxd_function.h</text>
</a>
</g>
</g>
<!-- Node7&#45;&gt;Node28 -->
<g id="edge27" class="edge">
<title>Node7&#45;&gt;Node28</title>
<path fill="none" stroke="midnightblue" d="M2583.31,-168.32C2570.48,-159.98 2550.86,-147.21 2535.71,-137.35"/>
<polygon fill="midnightblue" stroke="midnightblue" points="2537.24,-134.17 2526.95,-131.65 2533.42,-140.04 2537.24,-134.17"/>
</g>
<!-- Node29 -->
<g id="node29" class="node">
<title>Node29</title>
<g id="a_node29"><a xlink:title=" ">
<polygon fill="white" stroke="#bfbfbf" points="2596.14,-112.5 2596.14,-131.5 2765.14,-131.5 2765.14,-112.5 2596.14,-112.5"/>
<text text-anchor="middle" x="2680.64" y="-119.5" font-family="Helvetica,sans-Serif" font-size="10.00">amxd/amxd_object_hierarchy.h</text>
</a>
</g>
</g>
<!-- Node7&#45;&gt;Node29 -->
<g id="edge28" class="edge">
<title>Node7&#45;&gt;Node29</title>
<path fill="none" stroke="midnightblue" d="M2610.14,-168.32C2623.24,-159.9 2643.36,-146.97 2658.75,-137.07"/>
<polygon fill="midnightblue" stroke="midnightblue" points="2660.66,-140.01 2667.18,-131.65 2656.88,-134.12 2660.66,-140.01"/>
</g>
<!-- Node30 -->
<g id="node30" class="node">
<title>Node30</title>
<g id="a_node30"><a xlink:title=" ">
<polygon fill="white" stroke="#bfbfbf" points="2783.14,-112.5 2783.14,-131.5 2902.14,-131.5 2902.14,-112.5 2783.14,-112.5"/>
<text text-anchor="middle" x="2842.64" y="-119.5" font-family="Helvetica,sans-Serif" font-size="10.00">amxd/amxd_object.h</text>
</a>
</g>
</g>
<!-- Node7&#45;&gt;Node30 -->
<g id="edge29" class="edge">
<title>Node7&#45;&gt;Node30</title>
<path fill="none" stroke="midnightblue" d="M2618.48,-172.21C2657.58,-163.62 2740.46,-145.43 2793.75,-133.73"/>
<polygon fill="midnightblue" stroke="midnightblue" points="2794.65,-137.12 2803.67,-131.56 2793.15,-130.28 2794.65,-137.12"/>
</g>
<!-- Node31 -->
<g id="node31" class="node">
<title>Node31</title>
<g id="a_node31"><a xlink:title=" ">
<polygon fill="white" stroke="#bfbfbf" points="2920.14,-112.5 2920.14,-131.5 3025.14,-131.5 3025.14,-112.5 2920.14,-112.5"/>
<text text-anchor="middle" x="2972.64" y="-119.5" font-family="Helvetica,sans-Serif" font-size="10.00">amxd/amxd_dm.h</text>
</a>
</g>
</g>
<!-- Node7&#45;&gt;Node31 -->
<g id="edge30" class="edge">
<title>Node7&#45;&gt;Node31</title>
<path fill="none" stroke="midnightblue" d="M2618.42,-173.92C2668.14,-166.89 2794.08,-149.04 2909.97,-132.24"/>
<polygon fill="midnightblue" stroke="midnightblue" points="2910.68,-135.67 2920.07,-130.77 2909.68,-128.74 2910.68,-135.67"/>
</g>
<!-- Node32 -->
<g id="node32" class="node">
<title>Node32</title>
<g id="a_node32"><a xlink:title=" ">
<polygon fill="white" stroke="#bfbfbf" points="3043.64,-112.5 3043.64,-131.5 3187.64,-131.5 3187.64,-112.5 3043.64,-112.5"/>
<text text-anchor="middle" x="3115.64" y="-119.5" font-family="Helvetica,sans-Serif" font-size="10.00">amxd/amxd_transaction.h</text>
</a>
</g>
</g>
<!-- Node7&#45;&gt;Node32 -->
<g id="edge31" class="edge">
<title>Node7&#45;&gt;Node32</title>
<path fill="none" stroke="midnightblue" d="M2618.53,-174.82C2681.23,-168.55 2867.19,-149.86 3032.85,-132.19"/>
<polygon fill="midnightblue" stroke="midnightblue" points="3033.65,-135.62 3043.22,-131.08 3032.91,-128.66 3033.65,-135.62"/>
</g>
<!-- Node33 -->
<g id="node33" class="node">
<title>Node33</title>
<g id="a_node33"><a xlink:title=" ">
<polygon fill="white" stroke="#bfbfbf" points="3205.64,-112.5 3205.64,-131.5 3321.64,-131.5 3321.64,-112.5 3205.64,-112.5"/>
<text text-anchor="middle" x="3263.64" y="-119.5" font-family="Helvetica,sans-Serif" font-size="10.00">amxb/amxb_types.h</text>
</a>
</g>
</g>
<!-- Node7&#45;&gt;Node33 -->
<g id="edge32" class="edge">
<title>Node7&#45;&gt;Node33</title>
<path fill="none" stroke="midnightblue" d="M2618.21,-175.84C2695.1,-171.61 2963.2,-156.05 3195.57,-132.05"/>
<polygon fill="midnightblue" stroke="midnightblue" points="3195.98,-135.53 3205.57,-131.01 3195.26,-128.57 3195.98,-135.53"/>
</g>
<!-- Node34 -->
<g id="node34" class="node">
<title>Node34</title>
<g id="a_node34"><a xlink:title=" ">
<polygon fill="white" stroke="#bfbfbf" points="3339.64,-112.5 3339.64,-131.5 3475.64,-131.5 3475.64,-112.5 3339.64,-112.5"/>
<text text-anchor="middle" x="3407.64" y="-119.5" font-family="Helvetica,sans-Serif" font-size="10.00">amxb/amxb_operators.h</text>
</a>
</g>
</g>
<!-- Node7&#45;&gt;Node34 -->
<g id="edge33" class="edge">
<title>Node7&#45;&gt;Node34</title>
<path fill="none" stroke="midnightblue" d="M2618.29,-176.11C2705.74,-172.42 3041.61,-157.38 3329.03,-132.1"/>
<polygon fill="midnightblue" stroke="midnightblue" points="3329.58,-135.56 3339.23,-131.19 3328.96,-128.59 3329.58,-135.56"/>
</g>
<!-- Node35 -->
<g id="node35" class="node">
<title>Node35</title>
<g id="a_node35"><a xlink:title=" ">
<polygon fill="white" stroke="#bfbfbf" points="3493.64,-112.5 3493.64,-131.5 3605.64,-131.5 3605.64,-112.5 3493.64,-112.5"/>
<text text-anchor="middle" x="3549.64" y="-119.5" font-family="Helvetica,sans-Serif" font-size="10.00">amxb/amxb_error.h</text>
</a>
</g>
</g>
<!-- Node7&#45;&gt;Node35 -->
<g id="edge34" class="edge">
<title>Node7&#45;&gt;Node35</title>
<path fill="none" stroke="midnightblue" d="M2618.32,-176.16C2734.88,-171.59 3288.72,-149.41 3483.22,-132.03"/>
<polygon fill="midnightblue" stroke="midnightblue" points="3483.67,-135.51 3493.31,-131.11 3483.03,-128.54 3483.67,-135.51"/>
</g>
<!-- Node36 -->
<g id="node36" class="node">
<title>Node36</title>
<g id="a_node36"><a xlink:title=" ">
<polygon fill="white" stroke="#bfbfbf" points="3624.14,-112.5 3624.14,-131.5 3707.14,-131.5 3707.14,-112.5 3624.14,-112.5"/>
<text text-anchor="middle" x="3665.64" y="-119.5" font-family="Helvetica,sans-Serif" font-size="10.00">amxo/amxo.h</text>
</a>
</g>
</g>
<!-- Node7&#45;&gt;Node36 -->
<g id="edge35" class="edge">
<title>Node7&#45;&gt;Node36</title>
<path fill="none" stroke="midnightblue" d="M2618.22,-176.22C2752.56,-171.31 3472.98,-144.69 3613.82,-131.83"/>
<polygon fill="midnightblue" stroke="midnightblue" points="3614.36,-135.29 3623.96,-130.81 3613.66,-128.32 3614.36,-135.29"/>
</g>
<!-- Node37 -->
<g id="node37" class="node">
<title>Node37</title>
<g id="a_node37"><a xlink:title=" ">
<polygon fill="white" stroke="#bfbfbf" points="3725.14,-112.5 3725.14,-131.5 3840.14,-131.5 3840.14,-112.5 3725.14,-112.5"/>
<text text-anchor="middle" x="3782.64" y="-119.5" font-family="Helvetica,sans-Serif" font-size="10.00">amxo/amxo_types.h</text>
</a>
</g>
</g>
<!-- Node7&#45;&gt;Node37 -->
<g id="edge36" class="edge">
<title>Node7&#45;&gt;Node37</title>
<path fill="none" stroke="midnightblue" d="M2618.46,-176.25C2761.4,-171.31 3562.95,-143.38 3714.92,-132"/>
<polygon fill="midnightblue" stroke="midnightblue" points="3715.4,-135.47 3725.09,-131.18 3714.84,-128.5 3715.4,-135.47"/>
</g>
<!-- Node38 -->
<g id="node38" class="node">
<title>Node38</title>
<g id="a_node38"><a xlink:href="wld__types_8h.html" target="_top" xlink:title=" ">
<polygon fill="white" stroke="red" points="3831.14,-56.5 3831.14,-75.5 3906.14,-75.5 3906.14,-56.5 3831.14,-56.5"/>
<text text-anchor="middle" x="3868.64" y="-63.5" font-family="Helvetica,sans-Serif" font-size="10.00">wld_types.h</text>
</a>
</g>
</g>
<!-- Node7&#45;&gt;Node38 -->
<g id="edge37" class="edge">
<title>Node7&#45;&gt;Node38</title>
<path fill="none" stroke="midnightblue" d="M2618.28,-176.31C2783.79,-171.01 3843.31,-136.93 3849.64,-132 3863.4,-121.3 3867.6,-101.2 3868.69,-86.17"/>
<polygon fill="midnightblue" stroke="midnightblue" points="3872.2,-86.02 3869.03,-75.91 3865.2,-85.79 3872.2,-86.02"/>
</g>
<!-- Node41 -->
<g id="node39" class="node">
<title>Node41</title>
<g id="a_node39"><a xlink:href="wld__channel__types_8h.html" target="_top" xlink:title=" ">
<polygon fill="white" stroke="red" points="3990.14,-112.5 3990.14,-131.5 4109.14,-131.5 4109.14,-112.5 3990.14,-112.5"/>
<text text-anchor="middle" x="4049.64" y="-119.5" font-family="Helvetica,sans-Serif" font-size="10.00">wld_channel_types.h</text>
</a>
</g>
</g>
<!-- Node7&#45;&gt;Node41 -->
<g id="edge40" class="edge">
<title>Node7&#45;&gt;Node41</title>
<path fill="none" stroke="midnightblue" d="M2618.36,-176.32C2785,-171.14 3857.48,-137.68 3979.88,-131.81"/>
<polygon fill="midnightblue" stroke="midnightblue" points="3980.19,-135.3 3989.98,-131.24 3979.79,-128.31 3980.19,-135.3"/>
</g>
<!-- Node43 -->
<g id="node40" class="node">
<title>Node43</title>
<g id="a_node40"><a xlink:href="wld__bgdfs_8h.html" target="_top" xlink:title=" ">
<polygon fill="white" stroke="black" points="3897.14,-112.5 3897.14,-131.5 3972.14,-131.5 3972.14,-112.5 3897.14,-112.5"/>
<text text-anchor="middle" x="3934.64" y="-119.5" font-family="Helvetica,sans-Serif" font-size="10.00">wld_bgdfs.h</text>
</a>
</g>
</g>
<!-- Node7&#45;&gt;Node43 -->
<g id="edge43" class="edge">
<title>Node7&#45;&gt;Node43</title>
<path fill="none" stroke="midnightblue" d="M2618.28,-176.33C2781.69,-171.24 3817.16,-138.78 3882.64,-132 3883.95,-131.86 3885.28,-131.72 3886.61,-131.56"/>
<polygon fill="midnightblue" stroke="midnightblue" points="3887.52,-134.96 3896.96,-130.14 3886.57,-128.03 3887.52,-134.96"/>
</g>
<!-- Node44 -->
<g id="node41" class="node">
<title>Node44</title>
<g id="a_node41"><a xlink:href="wld__rad__delayMgr_8h.html" target="_top" xlink:title=" ">
<polygon fill="white" stroke="black" points="4127.64,-112.5 4127.64,-131.5 4241.64,-131.5 4241.64,-112.5 4127.64,-112.5"/>
<text text-anchor="middle" x="4184.64" y="-119.5" font-family="Helvetica,sans-Serif" font-size="10.00">wld_rad_delayMgr.h</text>
</a>
</g>
</g>
<!-- Node7&#45;&gt;Node44 -->
<g id="edge45" class="edge">
<title>Node7&#45;&gt;Node44</title>
<path fill="none" stroke="midnightblue" d="M2618.17,-176.15C2665.32,-174.53 2780.06,-170.91 2876.64,-168 3424.63,-151.47 3563.27,-177.1 4109.64,-132 4112.17,-131.79 4114.74,-131.55 4117.34,-131.29"/>
<polygon fill="midnightblue" stroke="midnightblue" points="4117.92,-134.75 4127.48,-130.18 4117.15,-127.79 4117.92,-134.75"/>
</g>
<!-- Node45 -->
<g id="node42" class="node">
<title>Node45</title>
<g id="a_node42"><a xlink:href="wld__fsm_8h.html" target="_top" xlink:title=" ">
<polygon fill="white" stroke="black" points="572.14,-112.5 572.14,-131.5 639.14,-131.5 639.14,-112.5 572.14,-112.5"/>
<text text-anchor="middle" x="605.64" y="-119.5" font-family="Helvetica,sans-Serif" font-size="10.00">wld_fsm.h</text>
</a>
</g>
</g>
<!-- Node7&#45;&gt;Node45 -->
<g id="edge47" class="edge">
<title>Node7&#45;&gt;Node45</title>
<path fill="none" stroke="midnightblue" d="M2575.03,-177.06C2389.96,-177.51 1069.18,-179.03 649.53,-131.98"/>
<polygon fill="midnightblue" stroke="midnightblue" points="649.81,-128.49 639.48,-130.82 649.01,-135.44 649.81,-128.49"/>
</g>
<!-- Node46 -->
<g id="node43" class="node">
<title>Node46</title>
<g id="a_node43"><a xlink:href="wld__sensing_8h.html" target="_top" xlink:title=" ">
<polygon fill="white" stroke="black" points="4297.64,-112.5 4297.64,-131.5 4383.64,-131.5 4383.64,-112.5 4297.64,-112.5"/>
<text text-anchor="middle" x="4340.64" y="-119.5" font-family="Helvetica,sans-Serif" font-size="10.00">wld_sensing.h</text>
</a>
</g>
</g>
<!-- Node7&#45;&gt;Node46 -->
<g id="edge49" class="edge">
<title>Node7&#45;&gt;Node46</title>
<path fill="none" stroke="midnightblue" d="M2618.17,-176.12C2665.32,-174.45 2780.05,-170.75 2876.64,-168 3497.93,-150.33 3655.69,-188.59 4274.64,-132 4278.8,-131.62 4283.11,-131.13 4287.45,-130.56"/>
<polygon fill="midnightblue" stroke="midnightblue" points="4288.17,-134 4297.59,-129.16 4287.2,-127.07 4288.17,-134"/>
</g>
<!-- Node7&#45;&gt;Node53 -->
<g id="edge51" class="edge">
<title>Node7&#45;&gt;Node53</title>
<path fill="none" stroke="midnightblue" d="M2618.4,-176.26C2666.55,-174.65 2785.79,-170.72 2885.64,-168 3570.02,-149.34 3743.35,-188.51 4425.64,-132 4426.95,-131.89 4428.26,-131.78 4429.59,-131.65"/>
<polygon fill="midnightblue" stroke="midnightblue" points="4430.3,-135.09 4439.87,-130.55 4429.55,-128.13 4430.3,-135.09"/>
</g>
<!-- Node38&#45;&gt;Node9 -->
<g id="edge38" class="edge">
<title>Node38&#45;&gt;Node9</title>
<path fill="none" stroke="midnightblue" d="M3830.74,-63.95C3583.96,-57.08 2208.06,-18.8 1964.5,-12.03"/>
<polygon fill="midnightblue" stroke="midnightblue" points="1964.49,-8.52 1954.39,-11.74 1964.29,-15.52 1964.49,-8.52"/>
</g>
<!-- Node38&#45;&gt;Node14 -->
<g id="edge39" class="edge">
<title>Node38&#45;&gt;Node14</title>
<path fill="none" stroke="midnightblue" d="M3897.32,-56.44C3928.17,-47.24 3977.37,-32.56 4011.47,-22.39"/>
<polygon fill="midnightblue" stroke="midnightblue" points="4012.52,-25.73 4021.1,-19.52 4010.52,-19.02 4012.52,-25.73"/>
</g>
<!-- Node41&#45;&gt;Node8 -->
<g id="edge41" class="edge">
<title>Node41&#45;&gt;Node8</title>
<path fill="none" stroke="midnightblue" d="M4071.67,-112.44C4094.75,-103.48 4131.21,-89.31 4157.29,-79.18"/>
<polygon fill="midnightblue" stroke="midnightblue" points="4158.67,-82.4 4166.72,-75.52 4156.13,-75.88 4158.67,-82.4"/>
</g>
<!-- Node41&#45;&gt;Node14 -->
<g id="edge42" class="edge">
<title>Node41&#45;&gt;Node14</title>
<path fill="none" stroke="midnightblue" d="M4049.64,-112.37C4049.64,-94.62 4049.64,-53.67 4049.64,-29.6"/>
<polygon fill="midnightblue" stroke="midnightblue" points="4053.14,-29.59 4049.64,-19.59 4046.14,-29.59 4053.14,-29.59"/>
</g>
<!-- Node43&#45;&gt;Node38 -->
<g id="edge44" class="edge">
<title>Node43&#45;&gt;Node38</title>
<path fill="none" stroke="midnightblue" d="M3924.04,-112.32C3914.19,-104.26 3899.29,-92.08 3887.43,-82.37"/>
<polygon fill="midnightblue" stroke="midnightblue" points="3889.4,-79.46 3879.44,-75.83 3884.97,-84.88 3889.4,-79.46"/>
</g>
<!-- Node44&#45;&gt;Node7 -->
<g id="edge46" class="edge">
<title>Node44&#45;&gt;Node7</title>
<path fill="none" stroke="midnightblue" d="M4132.89,-131.53C4131.13,-131.7 4129.37,-131.86 4127.64,-132 3581.27,-177.1 3442.63,-151.47 2894.64,-168 2797.98,-170.92 2683.13,-174.54 2628.38,-176.16"/>
<polygon fill="midnightblue" stroke="midnightblue" points="2628.15,-172.66 2618.25,-176.45 2628.35,-179.66 2628.15,-172.66"/>
</g>
<!-- Node45&#45;&gt;Node38 -->
<g id="edge48" class="edge">
<title>Node45&#45;&gt;Node38</title>
<path fill="none" stroke="midnightblue" d="M639.48,-113.15C642.23,-112.7 644.98,-112.3 647.64,-112 976.1,-74.88 3444.91,-67.94 3820.74,-67.1"/>
<polygon fill="midnightblue" stroke="midnightblue" points="3821,-70.6 3830.99,-67.08 3820.99,-63.6 3821,-70.6"/>
</g>
<!-- Node46&#45;&gt;Node7 -->
<g id="edge50" class="edge">
<title>Node46&#45;&gt;Node7</title>
<path fill="none" stroke="midnightblue" d="M4297.49,-131.51C4295.86,-131.69 4294.24,-131.85 4292.64,-132 3673.69,-188.59 3515.93,-150.33 2894.64,-168 2797.97,-170.75 2683.13,-174.46 2628.38,-176.12"/>
<polygon fill="midnightblue" stroke="midnightblue" points="2628.14,-172.63 2618.25,-176.43 2628.35,-179.63 2628.14,-172.63"/>
</g>
<!-- Node80&#45;&gt;Node7 -->
<g id="edge53" class="edge">
<title>Node80&#45;&gt;Node7</title>
<path fill="none" stroke="midnightblue" d="M2420.69,-224.68C2460.02,-214.47 2526.29,-197.27 2565.3,-187.14"/>
<polygon fill="midnightblue" stroke="midnightblue" points="2566.27,-190.5 2575.07,-184.6 2564.51,-183.73 2566.27,-190.5"/>
</g>
<!-- Node81&#45;&gt;Node7 -->
<g id="edge55" class="edge">
<title>Node81&#45;&gt;Node7</title>
<path fill="none" stroke="midnightblue" d="M2508.51,-224.32C2525.35,-215.66 2551.45,-202.24 2570.88,-192.25"/>
<polygon fill="midnightblue" stroke="midnightblue" points="2572.52,-195.34 2579.82,-187.65 2569.32,-189.12 2572.52,-195.34"/>
</g>
<!-- Node83&#45;&gt;Node7 -->
<g id="edge57" class="edge">
<title>Node83&#45;&gt;Node7</title>
<path fill="none" stroke="midnightblue" d="M2596.64,-224.08C2596.64,-217.01 2596.64,-206.86 2596.64,-197.99"/>
<polygon fill="midnightblue" stroke="midnightblue" points="2600.14,-197.75 2596.64,-187.75 2593.14,-197.75 2600.14,-197.75"/>
</g>
<!-- Node84&#45;&gt;Node7 -->
<g id="edge59" class="edge">
<title>Node84&#45;&gt;Node7</title>
<path fill="none" stroke="midnightblue" d="M2671.35,-224.32C2657.46,-215.9 2636.15,-202.97 2619.84,-193.07"/>
<polygon fill="midnightblue" stroke="midnightblue" points="2621.27,-189.85 2610.91,-187.65 2617.64,-195.83 2621.27,-189.85"/>
</g>
<!-- Node91&#45;&gt;Node7 -->
<g id="edge61" class="edge">
<title>Node91&#45;&gt;Node7</title>
<path fill="none" stroke="midnightblue" d="M2756.54,-224.44C2721.49,-214.48 2663.87,-198.11 2628.21,-187.97"/>
<polygon fill="midnightblue" stroke="midnightblue" points="2628.91,-184.53 2618.34,-185.16 2627,-191.27 2628.91,-184.53"/>
</g>
</g>
</svg>
