<?xml version="1.0" encoding="UTF-8" standalone="no"?>
<!DOCTYPE svg PUBLIC "-//W3C//DTD SVG 1.1//EN"
 "http://www.w3.org/Graphics/SVG/1.1/DTD/svg11.dtd">
<!-- Generated by graphviz version 2.43.0 (0)
 -->
<!-- Title: get_random Pages: 1 -->
<svg width="872pt" height="123pt"
 viewBox="0.00 0.00 872.00 123.00" xmlns="http://www.w3.org/2000/svg" xmlns:xlink="http://www.w3.org/1999/xlink">
<g id="graph0" class="graph" transform="scale(1 1) rotate(0) translate(4 119)">
<title>get_random</title>
<polygon fill="white" stroke="transparent" points="-4,4 -4,-119 868,-119 868,4 -4,4"/>
<!-- Node1 -->
<g id="node1" class="node">
<title>Node1</title>
<g id="a_node1"><a xlink:title=" ">
<polygon fill="#bfbfbf" stroke="black" points="789,-57.5 789,-76.5 864,-76.5 864,-57.5 789,-57.5"/>
<text text-anchor="middle" x="826.5" y="-64.5" font-family="Helvetica,sans-Serif" font-size="10.00">get_random</text>
</a>
</g>
</g>
<!-- Node2 -->
<g id="node2" class="node">
<title>Node2</title>
<g id="a_node2"><a xlink:href="wld__util_8c.html#ae9a84639d5e5ad83baf1624f9129be48" target="_top" xlink:title=" ">
<polygon fill="white" stroke="black" points="647,-95.5 647,-114.5 753,-114.5 753,-95.5 647,-95.5"/>
<text text-anchor="middle" x="700" y="-102.5" font-family="Helvetica,sans-Serif" font-size="10.00">get_randomhexstr</text>
</a>
</g>
</g>
<!-- Node1&#45;&gt;Node2 -->
<g id="edge1" class="edge">
<title>Node1&#45;&gt;Node2</title>
<path fill="none" stroke="midnightblue" d="M784.43,-79.54C767.49,-84.7 748.18,-90.6 732.41,-95.41"/>
<polygon fill="midnightblue" stroke="midnightblue" points="785.54,-82.86 794.08,-76.59 783.5,-76.16 785.54,-82.86"/>
</g>
<!-- Node3 -->
<g id="node3" class="node">
<title>Node3</title>
<g id="a_node3"><a xlink:href="wld__util_8c.html#a5fb3816c289f66dbe93c02d7d32089f2" target="_top" xlink:title=" ">
<polygon fill="white" stroke="black" points="656,-57.5 656,-76.5 744,-76.5 744,-57.5 656,-57.5"/>
<text text-anchor="middle" x="700" y="-64.5" font-family="Helvetica,sans-Serif" font-size="10.00">get_randomstr</text>
</a>
</g>
</g>
<!-- Node1&#45;&gt;Node3 -->
<g id="edge2" class="edge">
<title>Node1&#45;&gt;Node3</title>
<path fill="none" stroke="midnightblue" d="M778.74,-67C767.5,-67 755.53,-67 744.45,-67"/>
<polygon fill="midnightblue" stroke="midnightblue" points="778.82,-70.5 788.82,-67 778.82,-63.5 778.82,-70.5"/>
</g>
<!-- Node4 -->
<g id="node4" class="node">
<title>Node4</title>
<g id="a_node4"><a xlink:href="wld__util_8c.html#afdf5168abd83a0b9d0f64ccf80e155b2" target="_top" xlink:title=" ">
<polygon fill="white" stroke="black" points="666.5,-19.5 666.5,-38.5 733.5,-38.5 733.5,-19.5 666.5,-19.5"/>
<text text-anchor="middle" x="700" y="-26.5" font-family="Helvetica,sans-Serif" font-size="10.00">wpsInitPin</text>
</a>
</g>
</g>
<!-- Node1&#45;&gt;Node4 -->
<g id="edge3" class="edge">
<title>Node1&#45;&gt;Node4</title>
<path fill="none" stroke="midnightblue" d="M784.43,-54.46C767.49,-49.3 748.18,-43.4 732.41,-38.59"/>
<polygon fill="midnightblue" stroke="midnightblue" points="783.5,-57.84 794.08,-57.41 785.54,-51.14 783.5,-57.84"/>
</g>
<!-- Node5 -->
<g id="node5" class="node">
<title>Node5</title>
<g id="a_node5"><a xlink:href="wld__util_8c.html#a50e3c6ec470085fdd36cae1a0e9c8f7e" target="_top" xlink:title=" ">
<polygon fill="white" stroke="black" points="540,-19.5 540,-38.5 611,-38.5 611,-19.5 540,-19.5"/>
<text text-anchor="middle" x="575.5" y="-26.5" font-family="Helvetica,sans-Serif" font-size="10.00">wpsPinGen</text>
</a>
</g>
</g>
<!-- Node4&#45;&gt;Node5 -->
<g id="edge4" class="edge">
<title>Node4&#45;&gt;Node5</title>
<path fill="none" stroke="midnightblue" d="M656.14,-29C641.48,-29 625.26,-29 611.31,-29"/>
<polygon fill="midnightblue" stroke="midnightblue" points="656.49,-32.5 666.49,-29 656.49,-25.5 656.49,-32.5"/>
</g>
<!-- Node6 -->
<g id="node6" class="node">
<title>Node6</title>
<g id="a_node6"><a xlink:href="wld__wps_8c.html#a5e60853e5a5b1a60a5a5b631d340fa36" target="_top" xlink:title=" ">
<polygon fill="white" stroke="black" points="420,-38.5 420,-57.5 490,-57.5 490,-38.5 420,-38.5"/>
<text text-anchor="middle" x="455" y="-45.5" font-family="Helvetica,sans-Serif" font-size="10.00">genSelfPIN</text>
</a>
</g>
</g>
<!-- Node5&#45;&gt;Node6 -->
<g id="edge5" class="edge">
<title>Node5&#45;&gt;Node6</title>
<path fill="none" stroke="midnightblue" d="M530.03,-36.13C516.79,-38.25 502.49,-40.55 490.02,-42.54"/>
<polygon fill="midnightblue" stroke="midnightblue" points="530.59,-39.59 539.91,-34.55 529.48,-32.67 530.59,-39.59"/>
</g>
<!-- Node8 -->
<g id="node8" class="node">
<title>Node8</title>
<g id="a_node8"><a xlink:href="wld_8c.html#a36aa34c9c1a57fbe65d300ae3a9bbc2f" target="_top" xlink:title=" ">
<polygon fill="white" stroke="black" points="406,-0.5 406,-19.5 504,-19.5 504,-0.5 406,-0.5"/>
<text text-anchor="middle" x="455" y="-7.5" font-family="Helvetica,sans-Serif" font-size="10.00">wld_createRadio</text>
</a>
</g>
</g>
<!-- Node5&#45;&gt;Node8 -->
<g id="edge7" class="edge">
<title>Node5&#45;&gt;Node8</title>
<path fill="none" stroke="midnightblue" d="M529.88,-21.85C521.45,-20.49 512.6,-19.07 504.07,-17.71"/>
<polygon fill="midnightblue" stroke="midnightblue" points="529.48,-25.33 539.91,-23.45 530.59,-18.41 529.48,-25.33"/>
</g>
<!-- Node7 -->
<g id="node7" class="node">
<title>Node7</title>
<g id="a_node7"><a xlink:href="wld__radio_8c.html#a57c6500df2b22dcd70f13b6b5113388a" target="_top" xlink:title=" ">
<polygon fill="white" stroke="black" points="191,-38.5 191,-57.5 370,-57.5 370,-38.5 191,-38.5"/>
<text text-anchor="middle" x="280.5" y="-45.5" font-family="Helvetica,sans-Serif" font-size="10.00">_wps_DefParam_wps_GenSelfPIN</text>
</a>
</g>
</g>
<!-- Node6&#45;&gt;Node7 -->
<g id="edge6" class="edge">
<title>Node6&#45;&gt;Node7</title>
<path fill="none" stroke="midnightblue" d="M409.66,-48C397.52,-48 383.92,-48 370.24,-48"/>
<polygon fill="midnightblue" stroke="midnightblue" points="409.92,-51.5 419.92,-48 409.92,-44.5 409.92,-51.5"/>
</g>
<!-- Node9 -->
<g id="node9" class="node">
<title>Node9</title>
<g id="a_node9"><a xlink:href="wld_8c.html#a64c338bcccd982aa0f1bd86a8d95473a" target="_top" xlink:title=" ">
<polygon fill="white" stroke="black" points="238,-0.5 238,-19.5 323,-19.5 323,-0.5 238,-0.5"/>
<text text-anchor="middle" x="280.5" y="-7.5" font-family="Helvetica,sans-Serif" font-size="10.00">wld_addRadio</text>
</a>
</g>
</g>
<!-- Node8&#45;&gt;Node9 -->
<g id="edge8" class="edge">
<title>Node8&#45;&gt;Node9</title>
<path fill="none" stroke="midnightblue" d="M395.94,-10C372.08,-10 344.98,-10 323.14,-10"/>
<polygon fill="midnightblue" stroke="midnightblue" points="395.95,-13.5 405.95,-10 395.95,-6.5 395.95,-13.5"/>
</g>
<!-- Node10 -->
<g id="node10" class="node">
<title>Node10</title>
<g id="a_node10"><a xlink:href="wld__rad__nl80211_8c.html#ac4eed247eba7d9e6f87d8dff1374b804" target="_top" xlink:title=" ">
<polygon fill="white" stroke="black" points="0,-0.5 0,-19.5 155,-19.5 155,-0.5 0,-0.5"/>
<text text-anchor="middle" x="77.5" y="-7.5" font-family="Helvetica,sans-Serif" font-size="10.00">wld_rad_nl80211_addRadios</text>
</a>
</g>
</g>
<!-- Node9&#45;&gt;Node10 -->
<g id="edge9" class="edge">
<title>Node9&#45;&gt;Node10</title>
<path fill="none" stroke="midnightblue" d="M227.68,-10C205.57,-10 179.31,-10 155.03,-10"/>
<polygon fill="midnightblue" stroke="midnightblue" points="227.85,-13.5 237.85,-10 227.85,-6.5 227.85,-13.5"/>
</g>
</g>
</svg>
