<?xml version="1.0" encoding="UTF-8" standalone="no"?>
<!DOCTYPE svg PUBLIC "-//W3C//DTD SVG 1.1//EN"
 "http://www.w3.org/Graphics/SVG/1.1/DTD/svg11.dtd">
<!-- Generated by graphviz version 2.43.0 (0)
 -->
<!-- Title: include/wld/wld_wps.h Pages: 1 -->
<svg width="5652pt" height="252pt"
 viewBox="0.00 0.00 5651.71 252.00" xmlns="http://www.w3.org/2000/svg" xmlns:xlink="http://www.w3.org/1999/xlink">
<g id="graph0" class="graph" transform="scale(1 1) rotate(0) translate(4 248)">
<title>include/wld/wld_wps.h</title>
<polygon fill="white" stroke="transparent" points="-4,4 -4,-248 5647.71,-248 5647.71,4 -4,4"/>
<!-- Node1 -->
<g id="node1" class="node">
<title>Node1</title>
<g id="a_node1"><a xlink:title=" ">
<polygon fill="#bfbfbf" stroke="black" points="1255.5,-224.5 1255.5,-243.5 1381.5,-243.5 1381.5,-224.5 1255.5,-224.5"/>
<text text-anchor="middle" x="1318.5" y="-231.5" font-family="Helvetica,sans-Serif" font-size="10.00">include/wld/wld_wps.h</text>
</a>
</g>
</g>
<!-- Node2 -->
<g id="node2" class="node">
<title>Node2</title>
<g id="a_node2"><a xlink:title=" ">
<polygon fill="white" stroke="#bfbfbf" points="0,-0.5 0,-19.5 53,-19.5 53,-0.5 0,-0.5"/>
<text text-anchor="middle" x="26.5" y="-7.5" font-family="Helvetica,sans-Serif" font-size="10.00">stdint.h</text>
</a>
</g>
</g>
<!-- Node1&#45;&gt;Node2 -->
<g id="edge1" class="edge">
<title>Node1&#45;&gt;Node2</title>
<path fill="none" stroke="midnightblue" d="M1255.42,-231.79C1013.06,-226.64 150.35,-203.4 52.5,-132 20.92,-108.96 21.1,-57.55 23.84,-29.74"/>
<polygon fill="midnightblue" stroke="midnightblue" points="27.33,-30.07 25.04,-19.72 20.38,-29.23 27.33,-30.07"/>
</g>
<!-- Node3 -->
<g id="node3" class="node">
<title>Node3</title>
<g id="a_node3"><a xlink:href="wld_8h.html" target="_top" xlink:title=" ">
<polygon fill="white" stroke="red" points="2627,-168.5 2627,-187.5 2670,-187.5 2670,-168.5 2627,-168.5"/>
<text text-anchor="middle" x="2648.5" y="-175.5" font-family="Helvetica,sans-Serif" font-size="10.00">wld.h</text>
</a>
</g>
</g>
<!-- Node1&#45;&gt;Node3 -->
<g id="edge2" class="edge">
<title>Node1&#45;&gt;Node3</title>
<path fill="none" stroke="midnightblue" d="M1381.75,-230.43C1618.03,-220.84 2444.12,-187.3 2616.73,-180.29"/>
<polygon fill="midnightblue" stroke="midnightblue" points="2617.08,-183.78 2626.93,-179.88 2616.79,-176.78 2617.08,-183.78"/>
</g>
<!-- Node3&#45;&gt;Node2 -->
<g id="edge4" class="edge">
<title>Node3&#45;&gt;Node2</title>
<path fill="none" stroke="midnightblue" d="M2626.79,-176.92C2381.34,-175.98 135.6,-166.4 77.5,-132 41.64,-110.77 30.99,-58.16 27.83,-29.81"/>
<polygon fill="midnightblue" stroke="midnightblue" points="31.29,-29.26 26.9,-19.62 24.32,-29.89 31.29,-29.26"/>
</g>
<!-- Node4 -->
<g id="node4" class="node">
<title>Node4</title>
<g id="a_node4"><a xlink:title=" ">
<polygon fill="white" stroke="#bfbfbf" points="54.5,-56.5 54.5,-75.5 116.5,-75.5 116.5,-56.5 54.5,-56.5"/>
<text text-anchor="middle" x="85.5" y="-63.5" font-family="Helvetica,sans-Serif" font-size="10.00">stdbool.h</text>
</a>
</g>
</g>
<!-- Node3&#45;&gt;Node4 -->
<g id="edge3" class="edge">
<title>Node3&#45;&gt;Node4</title>
<path fill="none" stroke="midnightblue" d="M2626.84,-177.02C2381.86,-177.21 140.72,-177.68 91.5,-132 79.19,-120.57 79.12,-100.59 81.25,-85.79"/>
<polygon fill="midnightblue" stroke="midnightblue" points="84.74,-86.18 83.14,-75.71 77.86,-84.89 84.74,-86.18"/>
</g>
<!-- Node5 -->
<g id="node5" class="node">
<title>Node5</title>
<g id="a_node5"><a xlink:title=" ">
<polygon fill="white" stroke="#bfbfbf" points="354.5,-56.5 354.5,-75.5 464.5,-75.5 464.5,-56.5 354.5,-56.5"/>
<text text-anchor="middle" x="409.5" y="-63.5" font-family="Helvetica,sans-Serif" font-size="10.00">swl/swl_common.h</text>
</a>
</g>
</g>
<!-- Node3&#45;&gt;Node5 -->
<g id="edge5" class="edge">
<title>Node3&#45;&gt;Node5</title>
<path fill="none" stroke="midnightblue" d="M2626.85,-177C2395.41,-176.93 385.76,-175.09 343.5,-132 325.55,-113.69 355.55,-92.98 380.74,-79.96"/>
<polygon fill="midnightblue" stroke="midnightblue" points="382.29,-83.09 389.71,-75.53 379.19,-76.82 382.29,-83.09"/>
</g>
<!-- Node6 -->
<g id="node6" class="node">
<title>Node6</title>
<g id="a_node6"><a xlink:title=" ">
<polygon fill="white" stroke="#bfbfbf" points="702.5,-112.5 702.5,-131.5 838.5,-131.5 838.5,-112.5 702.5,-112.5"/>
<text text-anchor="middle" x="770.5" y="-119.5" font-family="Helvetica,sans-Serif" font-size="10.00">swla/swla_commonLib.h</text>
</a>
</g>
</g>
<!-- Node3&#45;&gt;Node6 -->
<g id="edge6" class="edge">
<title>Node3&#45;&gt;Node6</title>
<path fill="none" stroke="midnightblue" d="M2626.58,-177.21C2476.49,-178.49 1584.88,-183.58 848.91,-132.03"/>
<polygon fill="midnightblue" stroke="midnightblue" points="849.12,-128.54 838.9,-131.32 848.63,-135.52 849.12,-128.54"/>
</g>
<!-- Node7 -->
<g id="node7" class="node">
<title>Node7</title>
<g id="a_node7"><a xlink:title=" ">
<polygon fill="white" stroke="#bfbfbf" points="856.5,-112.5 856.5,-131.5 944.5,-131.5 944.5,-112.5 856.5,-112.5"/>
<text text-anchor="middle" x="900.5" y="-119.5" font-family="Helvetica,sans-Serif" font-size="10.00">swl/swl_uuid.h</text>
</a>
</g>
</g>
<!-- Node3&#45;&gt;Node7 -->
<g id="edge7" class="edge">
<title>Node3&#45;&gt;Node7</title>
<path fill="none" stroke="midnightblue" d="M2626.8,-176.85C2455.71,-175.58 1321.46,-166.04 954.78,-131.95"/>
<polygon fill="midnightblue" stroke="midnightblue" points="954.97,-128.45 944.68,-130.98 954.31,-135.42 954.97,-128.45"/>
</g>
<!-- Node8 -->
<g id="node8" class="node">
<title>Node8</title>
<g id="a_node8"><a xlink:title=" ">
<polygon fill="white" stroke="#bfbfbf" points="962.5,-112.5 962.5,-131.5 1114.5,-131.5 1114.5,-112.5 962.5,-112.5"/>
<text text-anchor="middle" x="1038.5" y="-119.5" font-family="Helvetica,sans-Serif" font-size="10.00">swla/swla_radioStandards.h</text>
</a>
</g>
</g>
<!-- Node3&#45;&gt;Node8 -->
<g id="edge8" class="edge">
<title>Node3&#45;&gt;Node8</title>
<path fill="none" stroke="midnightblue" d="M2626.98,-176.97C2491.76,-176.66 1745.31,-173.09 1124.95,-131.97"/>
<polygon fill="midnightblue" stroke="midnightblue" points="1125.12,-128.47 1114.91,-131.3 1124.65,-135.45 1125.12,-128.47"/>
</g>
<!-- Node9 -->
<g id="node9" class="node">
<title>Node9</title>
<g id="a_node9"><a xlink:title=" ">
<polygon fill="white" stroke="#bfbfbf" points="276,-0.5 276,-19.5 377,-19.5 377,-0.5 276,-0.5"/>
<text text-anchor="middle" x="326.5" y="-7.5" font-family="Helvetica,sans-Serif" font-size="10.00">swla/swla_time.h</text>
</a>
</g>
</g>
<!-- Node3&#45;&gt;Node9 -->
<g id="edge9" class="edge">
<title>Node3&#45;&gt;Node9</title>
<path fill="none" stroke="midnightblue" d="M2626.76,-176.99C2394.45,-176.81 377.17,-174.03 333.5,-132 306.05,-105.58 313.93,-56.01 320.89,-29.25"/>
<polygon fill="midnightblue" stroke="midnightblue" points="324.26,-30.18 323.62,-19.6 317.53,-28.27 324.26,-30.18"/>
</g>
<!-- Node10 -->
<g id="node10" class="node">
<title>Node10</title>
<g id="a_node10"><a xlink:title=" ">
<polygon fill="white" stroke="#bfbfbf" points="1133,-112.5 1133,-131.5 1262,-131.5 1262,-112.5 1133,-112.5"/>
<text text-anchor="middle" x="1197.5" y="-119.5" font-family="Helvetica,sans-Serif" font-size="10.00">swla/swla_time_spec.h</text>
</a>
</g>
</g>
<!-- Node3&#45;&gt;Node10 -->
<g id="edge10" class="edge">
<title>Node3&#45;&gt;Node10</title>
<path fill="none" stroke="midnightblue" d="M2626.6,-177.01C2498.14,-176.91 1829.44,-174.36 1272.29,-131.98"/>
<polygon fill="midnightblue" stroke="midnightblue" points="1272.28,-128.46 1262.04,-131.19 1271.74,-135.44 1272.28,-128.46"/>
</g>
<!-- Node11 -->
<g id="node11" class="node">
<title>Node11</title>
<g id="a_node11"><a xlink:title=" ">
<polygon fill="white" stroke="#bfbfbf" points="1280.5,-112.5 1280.5,-131.5 1374.5,-131.5 1374.5,-112.5 1280.5,-112.5"/>
<text text-anchor="middle" x="1327.5" y="-119.5" font-family="Helvetica,sans-Serif" font-size="10.00">swla/swla_oui.h</text>
</a>
</g>
</g>
<!-- Node3&#45;&gt;Node11 -->
<g id="edge11" class="edge">
<title>Node3&#45;&gt;Node11</title>
<path fill="none" stroke="midnightblue" d="M2626.78,-177.23C2504.89,-178.32 1893.58,-181.04 1384.92,-132.01"/>
<polygon fill="midnightblue" stroke="midnightblue" points="1385.09,-128.51 1374.8,-131.02 1384.42,-135.48 1385.09,-128.51"/>
</g>
<!-- Node12 -->
<g id="node12" class="node">
<title>Node12</title>
<g id="a_node12"><a xlink:title=" ">
<polygon fill="white" stroke="#bfbfbf" points="1392.5,-112.5 1392.5,-131.5 1520.5,-131.5 1520.5,-112.5 1392.5,-112.5"/>
<text text-anchor="middle" x="1456.5" y="-119.5" font-family="Helvetica,sans-Serif" font-size="10.00">swla/swla_delayExec.h</text>
</a>
</g>
</g>
<!-- Node3&#45;&gt;Node12 -->
<g id="edge12" class="edge">
<title>Node3&#45;&gt;Node12</title>
<path fill="none" stroke="midnightblue" d="M2626.77,-176.78C2513.56,-175.49 1979.64,-167.75 1530.89,-131.95"/>
<polygon fill="midnightblue" stroke="midnightblue" points="1530.89,-128.44 1520.64,-131.12 1530.33,-135.41 1530.89,-128.44"/>
</g>
<!-- Node13 -->
<g id="node13" class="node">
<title>Node13</title>
<g id="a_node13"><a xlink:title=" ">
<polygon fill="white" stroke="#bfbfbf" points="1539,-112.5 1539,-131.5 1658,-131.5 1658,-112.5 1539,-112.5"/>
<text text-anchor="middle" x="1598.5" y="-119.5" font-family="Helvetica,sans-Serif" font-size="10.00">swla/swla_function.h</text>
</a>
</g>
</g>
<!-- Node3&#45;&gt;Node13 -->
<g id="edge13" class="edge">
<title>Node3&#45;&gt;Node13</title>
<path fill="none" stroke="midnightblue" d="M2626.7,-176.68C2521.87,-174.98 2058.91,-165.9 1668.39,-131.99"/>
<polygon fill="midnightblue" stroke="midnightblue" points="1668.57,-128.5 1658.31,-131.11 1667.96,-135.47 1668.57,-128.5"/>
</g>
<!-- Node14 -->
<g id="node14" class="node">
<title>Node14</title>
<g id="a_node14"><a xlink:title=" ">
<polygon fill="white" stroke="#bfbfbf" points="1676,-112.5 1676,-131.5 1817,-131.5 1817,-112.5 1676,-112.5"/>
<text text-anchor="middle" x="1746.5" y="-119.5" font-family="Helvetica,sans-Serif" font-size="10.00">swl/swl_usp_cmdStatus.h</text>
</a>
</g>
</g>
<!-- Node3&#45;&gt;Node14 -->
<g id="edge14" class="edge">
<title>Node3&#45;&gt;Node14</title>
<path fill="none" stroke="midnightblue" d="M2626.88,-176.27C2533.09,-173.02 2152.04,-158.83 1827.23,-132.01"/>
<polygon fill="midnightblue" stroke="midnightblue" points="1827.4,-128.51 1817.15,-131.17 1826.82,-135.49 1827.4,-128.51"/>
</g>
<!-- Node15 -->
<g id="node15" class="node">
<title>Node15</title>
<g id="a_node15"><a xlink:title=" ">
<polygon fill="white" stroke="#bfbfbf" points="1835.5,-112.5 1835.5,-131.5 1921.5,-131.5 1921.5,-112.5 1835.5,-112.5"/>
<text text-anchor="middle" x="1878.5" y="-119.5" font-family="Helvetica,sans-Serif" font-size="10.00">swl/swl_wps.h</text>
</a>
</g>
</g>
<!-- Node3&#45;&gt;Node15 -->
<g id="edge15" class="edge">
<title>Node3&#45;&gt;Node15</title>
<path fill="none" stroke="midnightblue" d="M2626.98,-176.51C2540.81,-174.35 2212.15,-164.42 1931.54,-131.99"/>
<polygon fill="midnightblue" stroke="midnightblue" points="1931.92,-128.51 1921.58,-130.83 1931.1,-135.46 1931.92,-128.51"/>
</g>
<!-- Node16 -->
<g id="node16" class="node">
<title>Node16</title>
<g id="a_node16"><a xlink:title=" ">
<polygon fill="white" stroke="#bfbfbf" points="1939.5,-112.5 1939.5,-131.5 2043.5,-131.5 2043.5,-112.5 1939.5,-112.5"/>
<text text-anchor="middle" x="1991.5" y="-119.5" font-family="Helvetica,sans-Serif" font-size="10.00">swl/swl_security.h</text>
</a>
</g>
</g>
<!-- Node3&#45;&gt;Node16 -->
<g id="edge16" class="edge">
<title>Node3&#45;&gt;Node16</title>
<path fill="none" stroke="midnightblue" d="M2626.84,-175.9C2549.1,-171.84 2276.94,-156.64 2053.5,-132 2053.4,-131.99 2053.3,-131.98 2053.2,-131.97"/>
<polygon fill="midnightblue" stroke="midnightblue" points="2053.91,-128.53 2043.56,-130.82 2053.08,-135.48 2053.91,-128.53"/>
</g>
<!-- Node17 -->
<g id="node17" class="node">
<title>Node17</title>
<g id="a_node17"><a xlink:title=" ">
<polygon fill="white" stroke="#bfbfbf" points="2062,-112.5 2062,-131.5 2145,-131.5 2145,-112.5 2062,-112.5"/>
<text text-anchor="middle" x="2103.5" y="-119.5" font-family="Helvetica,sans-Serif" font-size="10.00">amxc/amxc.h</text>
</a>
</g>
</g>
<!-- Node3&#45;&gt;Node17 -->
<g id="edge17" class="edge">
<title>Node3&#45;&gt;Node17</title>
<path fill="none" stroke="midnightblue" d="M2626.76,-175.67C2558.78,-171.39 2344.05,-156.81 2155.31,-131.99"/>
<polygon fill="midnightblue" stroke="midnightblue" points="2155.58,-128.5 2145.2,-130.65 2154.66,-135.44 2155.58,-128.5"/>
</g>
<!-- Node18 -->
<g id="node18" class="node">
<title>Node18</title>
<g id="a_node18"><a xlink:title=" ">
<polygon fill="white" stroke="#bfbfbf" points="2163.5,-112.5 2163.5,-131.5 2247.5,-131.5 2247.5,-112.5 2163.5,-112.5"/>
<text text-anchor="middle" x="2205.5" y="-119.5" font-family="Helvetica,sans-Serif" font-size="10.00">amxp/amxp.h</text>
</a>
</g>
</g>
<!-- Node3&#45;&gt;Node18 -->
<g id="edge18" class="edge">
<title>Node3&#45;&gt;Node18</title>
<path fill="none" stroke="midnightblue" d="M2626.77,-174.97C2568.67,-169.45 2404.75,-153.22 2257.87,-132.12"/>
<polygon fill="midnightblue" stroke="midnightblue" points="2258.17,-128.63 2247.77,-130.66 2257.16,-135.56 2258.17,-128.63"/>
</g>
<!-- Node19 -->
<g id="node19" class="node">
<title>Node19</title>
<g id="a_node19"><a xlink:title=" ">
<polygon fill="white" stroke="#bfbfbf" points="2265.5,-112.5 2265.5,-131.5 2405.5,-131.5 2405.5,-112.5 2265.5,-112.5"/>
<text text-anchor="middle" x="2335.5" y="-119.5" font-family="Helvetica,sans-Serif" font-size="10.00">amxd/amxd_parameter.h</text>
</a>
</g>
</g>
<!-- Node3&#45;&gt;Node19 -->
<g id="edge19" class="edge">
<title>Node3&#45;&gt;Node19</title>
<path fill="none" stroke="midnightblue" d="M2626.99,-173.29C2579.79,-165.15 2465.77,-145.47 2395.13,-133.29"/>
<polygon fill="midnightblue" stroke="midnightblue" points="2395.49,-129.8 2385.04,-131.55 2394.3,-136.7 2395.49,-129.8"/>
</g>
<!-- Node20 -->
<g id="node20" class="node">
<title>Node20</title>
<g id="a_node20"><a xlink:title=" ">
<polygon fill="white" stroke="#bfbfbf" points="2424,-112.5 2424,-131.5 2543,-131.5 2543,-112.5 2424,-112.5"/>
<text text-anchor="middle" x="2483.5" y="-119.5" font-family="Helvetica,sans-Serif" font-size="10.00">amxd/amxd_action.h</text>
</a>
</g>
</g>
<!-- Node3&#45;&gt;Node20 -->
<g id="edge20" class="edge">
<title>Node3&#45;&gt;Node20</title>
<path fill="none" stroke="midnightblue" d="M2626.93,-169.94C2599.62,-161 2552.18,-145.48 2519.38,-134.74"/>
<polygon fill="midnightblue" stroke="midnightblue" points="2520.3,-131.36 2509.7,-131.58 2518.12,-138.01 2520.3,-131.36"/>
</g>
<!-- Node21 -->
<g id="node21" class="node">
<title>Node21</title>
<g id="a_node21"><a xlink:title=" ">
<polygon fill="white" stroke="#bfbfbf" points="2561,-112.5 2561,-131.5 2736,-131.5 2736,-112.5 2561,-112.5"/>
<text text-anchor="middle" x="2648.5" y="-119.5" font-family="Helvetica,sans-Serif" font-size="10.00">amxd/amxd_object_parameter.h</text>
</a>
</g>
</g>
<!-- Node3&#45;&gt;Node21 -->
<g id="edge21" class="edge">
<title>Node3&#45;&gt;Node21</title>
<path fill="none" stroke="midnightblue" d="M2648.5,-168.08C2648.5,-161.01 2648.5,-150.86 2648.5,-141.99"/>
<polygon fill="midnightblue" stroke="midnightblue" points="2652,-141.75 2648.5,-131.75 2645,-141.75 2652,-141.75"/>
</g>
<!-- Node22 -->
<g id="node22" class="node">
<title>Node22</title>
<g id="a_node22"><a xlink:title=" ">
<polygon fill="white" stroke="#bfbfbf" points="2754.5,-112.5 2754.5,-131.5 2906.5,-131.5 2906.5,-112.5 2754.5,-112.5"/>
<text text-anchor="middle" x="2830.5" y="-119.5" font-family="Helvetica,sans-Serif" font-size="10.00">amxd/amxd_object_event.h</text>
</a>
</g>
</g>
<!-- Node3&#45;&gt;Node22 -->
<g id="edge22" class="edge">
<title>Node3&#45;&gt;Node22</title>
<path fill="none" stroke="midnightblue" d="M2670.09,-170.59C2700.04,-161.71 2754.69,-145.49 2791.79,-134.48"/>
<polygon fill="midnightblue" stroke="midnightblue" points="2793.16,-137.73 2801.76,-131.53 2791.17,-131.02 2793.16,-137.73"/>
</g>
<!-- Node23 -->
<g id="node23" class="node">
<title>Node23</title>
<g id="a_node23"><a xlink:title=" ">
<polygon fill="white" stroke="#bfbfbf" points="2925,-112.5 2925,-131.5 3054,-131.5 3054,-112.5 2925,-112.5"/>
<text text-anchor="middle" x="2989.5" y="-119.5" font-family="Helvetica,sans-Serif" font-size="10.00">amxd/amxd_function.h</text>
</a>
</g>
</g>
<!-- Node3&#45;&gt;Node23 -->
<g id="edge23" class="edge">
<title>Node3&#45;&gt;Node23</title>
<path fill="none" stroke="midnightblue" d="M2670.09,-173.58C2720.53,-165.59 2847.72,-145.45 2925.53,-133.13"/>
<polygon fill="midnightblue" stroke="midnightblue" points="2926.37,-136.54 2935.7,-131.52 2925.27,-129.63 2926.37,-136.54"/>
</g>
<!-- Node24 -->
<g id="node24" class="node">
<title>Node24</title>
<g id="a_node24"><a xlink:title=" ">
<polygon fill="white" stroke="#bfbfbf" points="3072,-112.5 3072,-131.5 3241,-131.5 3241,-112.5 3072,-112.5"/>
<text text-anchor="middle" x="3156.5" y="-119.5" font-family="Helvetica,sans-Serif" font-size="10.00">amxd/amxd_object_hierarchy.h</text>
</a>
</g>
</g>
<!-- Node3&#45;&gt;Node24 -->
<g id="edge24" class="edge">
<title>Node3&#45;&gt;Node24</title>
<path fill="none" stroke="midnightblue" d="M2670,-174.71C2737.05,-167.59 2945.02,-145.48 3066.25,-132.59"/>
<polygon fill="midnightblue" stroke="midnightblue" points="3066.69,-136.07 3076.27,-131.53 3065.95,-129.11 3066.69,-136.07"/>
</g>
<!-- Node25 -->
<g id="node25" class="node">
<title>Node25</title>
<g id="a_node25"><a xlink:title=" ">
<polygon fill="white" stroke="#bfbfbf" points="3259,-112.5 3259,-131.5 3378,-131.5 3378,-112.5 3259,-112.5"/>
<text text-anchor="middle" x="3318.5" y="-119.5" font-family="Helvetica,sans-Serif" font-size="10.00">amxd/amxd_object.h</text>
</a>
</g>
</g>
<!-- Node3&#45;&gt;Node25 -->
<g id="edge25" class="edge">
<title>Node3&#45;&gt;Node25</title>
<path fill="none" stroke="midnightblue" d="M2670.14,-175.83C2747.28,-171.56 3016.25,-155.89 3248.82,-132.12"/>
<polygon fill="midnightblue" stroke="midnightblue" points="3249.23,-135.6 3258.82,-131.09 3248.51,-128.64 3249.23,-135.6"/>
</g>
<!-- Node26 -->
<g id="node26" class="node">
<title>Node26</title>
<g id="a_node26"><a xlink:title=" ">
<polygon fill="white" stroke="#bfbfbf" points="3396,-112.5 3396,-131.5 3501,-131.5 3501,-112.5 3396,-112.5"/>
<text text-anchor="middle" x="3448.5" y="-119.5" font-family="Helvetica,sans-Serif" font-size="10.00">amxd/amxd_dm.h</text>
</a>
</g>
</g>
<!-- Node3&#45;&gt;Node26 -->
<g id="edge26" class="edge">
<title>Node3&#45;&gt;Node26</title>
<path fill="none" stroke="midnightblue" d="M2670.02,-176.36C2757.68,-173.63 3096.57,-161.71 3385.7,-132.1"/>
<polygon fill="midnightblue" stroke="midnightblue" points="3386.38,-135.55 3395.96,-131.04 3385.66,-128.59 3386.38,-135.55"/>
</g>
<!-- Node27 -->
<g id="node27" class="node">
<title>Node27</title>
<g id="a_node27"><a xlink:title=" ">
<polygon fill="white" stroke="#bfbfbf" points="3519.5,-112.5 3519.5,-131.5 3663.5,-131.5 3663.5,-112.5 3519.5,-112.5"/>
<text text-anchor="middle" x="3591.5" y="-119.5" font-family="Helvetica,sans-Serif" font-size="10.00">amxd/amxd_transaction.h</text>
</a>
</g>
</g>
<!-- Node3&#45;&gt;Node27 -->
<g id="edge27" class="edge">
<title>Node3&#45;&gt;Node27</title>
<path fill="none" stroke="midnightblue" d="M2670.18,-176.34C2766.85,-173.28 3168.36,-159.54 3509.04,-132.07"/>
<polygon fill="midnightblue" stroke="midnightblue" points="3509.41,-135.55 3519.1,-131.26 3508.85,-128.58 3509.41,-135.55"/>
</g>
<!-- Node28 -->
<g id="node28" class="node">
<title>Node28</title>
<g id="a_node28"><a xlink:title=" ">
<polygon fill="white" stroke="#bfbfbf" points="3681.5,-112.5 3681.5,-131.5 3797.5,-131.5 3797.5,-112.5 3681.5,-112.5"/>
<text text-anchor="middle" x="3739.5" y="-119.5" font-family="Helvetica,sans-Serif" font-size="10.00">amxb/amxb_types.h</text>
</a>
</g>
</g>
<!-- Node3&#45;&gt;Node28 -->
<g id="edge28" class="edge">
<title>Node3&#45;&gt;Node28</title>
<path fill="none" stroke="midnightblue" d="M2670.17,-176.77C2777.48,-175.47 3262.88,-167.84 3671.19,-132.03"/>
<polygon fill="midnightblue" stroke="midnightblue" points="3671.78,-135.49 3681.43,-131.12 3671.16,-128.52 3671.78,-135.49"/>
</g>
<!-- Node29 -->
<g id="node29" class="node">
<title>Node29</title>
<g id="a_node29"><a xlink:title=" ">
<polygon fill="white" stroke="#bfbfbf" points="3815.5,-112.5 3815.5,-131.5 3951.5,-131.5 3951.5,-112.5 3815.5,-112.5"/>
<text text-anchor="middle" x="3883.5" y="-119.5" font-family="Helvetica,sans-Serif" font-size="10.00">amxb/amxb_operators.h</text>
</a>
</g>
</g>
<!-- Node3&#45;&gt;Node29 -->
<g id="edge29" class="edge">
<title>Node3&#45;&gt;Node29</title>
<path fill="none" stroke="midnightblue" d="M2670.23,-176.78C2785.83,-175.5 3340.45,-167.71 3804.83,-132.07"/>
<polygon fill="midnightblue" stroke="midnightblue" points="3805.39,-135.53 3815.09,-131.27 3804.85,-128.56 3805.39,-135.53"/>
</g>
<!-- Node30 -->
<g id="node30" class="node">
<title>Node30</title>
<g id="a_node30"><a xlink:title=" ">
<polygon fill="white" stroke="#bfbfbf" points="3969.5,-112.5 3969.5,-131.5 4081.5,-131.5 4081.5,-112.5 3969.5,-112.5"/>
<text text-anchor="middle" x="4025.5" y="-119.5" font-family="Helvetica,sans-Serif" font-size="10.00">amxb/amxb_error.h</text>
</a>
</g>
</g>
<!-- Node3&#45;&gt;Node30 -->
<g id="edge30" class="edge">
<title>Node3&#45;&gt;Node30</title>
<path fill="none" stroke="midnightblue" d="M2670.19,-177.09C2794.59,-177.46 3430.1,-177 3959.05,-132.03"/>
<polygon fill="midnightblue" stroke="midnightblue" points="3959.51,-135.5 3969.17,-131.16 3958.91,-128.53 3959.51,-135.5"/>
</g>
<!-- Node31 -->
<g id="node31" class="node">
<title>Node31</title>
<g id="a_node31"><a xlink:title=" ">
<polygon fill="white" stroke="#bfbfbf" points="4100,-112.5 4100,-131.5 4183,-131.5 4183,-112.5 4100,-112.5"/>
<text text-anchor="middle" x="4141.5" y="-119.5" font-family="Helvetica,sans-Serif" font-size="10.00">amxo/amxo.h</text>
</a>
</g>
</g>
<!-- Node3&#45;&gt;Node31 -->
<g id="edge31" class="edge">
<title>Node3&#45;&gt;Node31</title>
<path fill="none" stroke="midnightblue" d="M2670.11,-176.75C2825.66,-174.9 3777,-162.51 4089.86,-131.86"/>
<polygon fill="midnightblue" stroke="midnightblue" points="4090.22,-135.34 4099.82,-130.86 4089.52,-128.38 4090.22,-135.34"/>
</g>
<!-- Node32 -->
<g id="node32" class="node">
<title>Node32</title>
<g id="a_node32"><a xlink:title=" ">
<polygon fill="white" stroke="#bfbfbf" points="4201,-112.5 4201,-131.5 4316,-131.5 4316,-112.5 4201,-112.5"/>
<text text-anchor="middle" x="4258.5" y="-119.5" font-family="Helvetica,sans-Serif" font-size="10.00">amxo/amxo_types.h</text>
</a>
</g>
</g>
<!-- Node3&#45;&gt;Node32 -->
<g id="edge32" class="edge">
<title>Node3&#45;&gt;Node32</title>
<path fill="none" stroke="midnightblue" d="M2670.32,-177.24C2807.43,-178.54 3564.26,-183.12 4190.81,-132.05"/>
<polygon fill="midnightblue" stroke="midnightblue" points="4191.27,-135.52 4200.95,-131.22 4190.69,-128.55 4191.27,-135.52"/>
</g>
<!-- Node33 -->
<g id="node33" class="node">
<title>Node33</title>
<g id="a_node33"><a xlink:href="wld__types_8h.html" target="_top" xlink:title=" ">
<polygon fill="white" stroke="black" points="543,-56.5 543,-75.5 618,-75.5 618,-56.5 543,-56.5"/>
<text text-anchor="middle" x="580.5" y="-63.5" font-family="Helvetica,sans-Serif" font-size="10.00">wld_types.h</text>
</a>
</g>
</g>
<!-- Node3&#45;&gt;Node33 -->
<g id="edge33" class="edge">
<title>Node3&#45;&gt;Node33</title>
<path fill="none" stroke="midnightblue" d="M2626.68,-176.88C2409.49,-175.59 643.1,-164.2 600.5,-132 586.54,-121.45 582.04,-101.33 580.73,-86.25"/>
<polygon fill="midnightblue" stroke="midnightblue" points="584.21,-85.78 580.24,-75.95 577.22,-86.11 584.21,-85.78"/>
</g>
<!-- Node34 -->
<g id="node34" class="node">
<title>Node34</title>
<g id="a_node34"><a xlink:title=" ">
<polygon fill="white" stroke="#bfbfbf" points="1731,-0.5 1731,-19.5 1876,-19.5 1876,-0.5 1731,-0.5"/>
<text text-anchor="middle" x="1803.5" y="-7.5" font-family="Helvetica,sans-Serif" font-size="10.00">swl/types/swl_arrayType.h</text>
</a>
</g>
</g>
<!-- Node3&#45;&gt;Node34 -->
<g id="edge62" class="edge">
<title>Node3&#45;&gt;Node34</title>
<path fill="none" stroke="midnightblue" d="M2670.25,-176.88C2936.55,-175.35 5559.32,-159.6 5586.5,-132 5592.74,-125.67 5592.7,-118.37 5586.5,-112 5519.7,-43.39 2435.5,-15.97 1886.6,-11.63"/>
<polygon fill="midnightblue" stroke="midnightblue" points="1886.42,-8.13 1876.4,-11.55 1886.37,-15.13 1886.42,-8.13"/>
</g>
<!-- Node35 -->
<g id="node35" class="node">
<title>Node35</title>
<g id="a_node35"><a xlink:title=" ">
<polygon fill="white" stroke="#bfbfbf" points="4340,-0.5 4340,-19.5 4501,-19.5 4501,-0.5 4340,-0.5"/>
<text text-anchor="middle" x="4420.5" y="-7.5" font-family="Helvetica,sans-Serif" font-size="10.00">swla/swla_namedTupleType.h</text>
</a>
</g>
</g>
<!-- Node3&#45;&gt;Node35 -->
<g id="edge64" class="edge">
<title>Node3&#45;&gt;Node35</title>
<path fill="none" stroke="midnightblue" d="M2670.37,-176.88C2938.12,-175.36 5575.17,-159.75 5602.5,-132 5794.83,63.28 5263.6,-79.27 4990.5,-56 4821.45,-41.59 4624.06,-26.37 4511.52,-17.83"/>
<polygon fill="midnightblue" stroke="midnightblue" points="4511.47,-14.32 4501.23,-17.06 4510.94,-21.3 4511.47,-14.32"/>
</g>
<!-- Node36 -->
<g id="node36" class="node">
<title>Node36</title>
<g id="a_node36"><a xlink:href="wld__channel__types_8h.html" target="_top" xlink:title=" ">
<polygon fill="white" stroke="black" points="101,-112.5 101,-131.5 220,-131.5 220,-112.5 101,-112.5"/>
<text text-anchor="middle" x="160.5" y="-119.5" font-family="Helvetica,sans-Serif" font-size="10.00">wld_channel_types.h</text>
</a>
</g>
</g>
<!-- Node3&#45;&gt;Node36 -->
<g id="edge38" class="edge">
<title>Node3&#45;&gt;Node36</title>
<path fill="none" stroke="midnightblue" d="M2626.94,-176.9C2417.15,-175.93 736.02,-167.08 234.5,-132 233.19,-131.91 231.87,-131.81 230.54,-131.71"/>
<polygon fill="midnightblue" stroke="midnightblue" points="230.49,-128.19 220.22,-130.8 229.88,-135.16 230.49,-128.19"/>
</g>
<!-- Node37 -->
<g id="node37" class="node">
<title>Node37</title>
<g id="a_node37"><a xlink:title=" ">
<polygon fill="white" stroke="#bfbfbf" points="173,-56.5 173,-75.5 298,-75.5 298,-56.5 173,-56.5"/>
<text text-anchor="middle" x="235.5" y="-63.5" font-family="Helvetica,sans-Serif" font-size="10.00">swla/swla_chanspec.h</text>
</a>
</g>
</g>
<!-- Node3&#45;&gt;Node37 -->
<g id="edge56" class="edge">
<title>Node3&#45;&gt;Node37</title>
<path fill="none" stroke="midnightblue" d="M2626.65,-176.89C2390.89,-175.64 326.01,-163.79 272.5,-132 255.61,-121.97 245.76,-101.09 240.53,-85.69"/>
<polygon fill="midnightblue" stroke="midnightblue" points="243.75,-84.24 237.5,-75.68 237.05,-86.27 243.75,-84.24"/>
</g>
<!-- Node38 -->
<g id="node38" class="node">
<title>Node38</title>
<g id="a_node38"><a xlink:href="wld__bgdfs_8h.html" target="_top" xlink:title=" ">
<polygon fill="white" stroke="black" points="609,-112.5 609,-131.5 684,-131.5 684,-112.5 609,-112.5"/>
<text text-anchor="middle" x="646.5" y="-119.5" font-family="Helvetica,sans-Serif" font-size="10.00">wld_bgdfs.h</text>
</a>
</g>
</g>
<!-- Node3&#45;&gt;Node38 -->
<g id="edge42" class="edge">
<title>Node3&#45;&gt;Node38</title>
<path fill="none" stroke="midnightblue" d="M2626.82,-177C2441.24,-176.91 1116.82,-174.82 694.24,-131.83"/>
<polygon fill="midnightblue" stroke="midnightblue" points="694.44,-128.33 684.13,-130.78 693.71,-135.29 694.44,-128.33"/>
</g>
<!-- Node39 -->
<g id="node39" class="node">
<title>Node39</title>
<g id="a_node39"><a xlink:href="wld__rad__delayMgr_8h.html" target="_top" xlink:title=" ">
<polygon fill="white" stroke="black" points="4334.5,-112.5 4334.5,-131.5 4448.5,-131.5 4448.5,-112.5 4334.5,-112.5"/>
<text text-anchor="middle" x="4391.5" y="-119.5" font-family="Helvetica,sans-Serif" font-size="10.00">wld_rad_delayMgr.h</text>
</a>
</g>
</g>
<!-- Node3&#45;&gt;Node39 -->
<g id="edge44" class="edge">
<title>Node3&#45;&gt;Node39</title>
<path fill="none" stroke="midnightblue" d="M2670.2,-176.72C2841.38,-174.55 3974.5,-159.82 4316.5,-132 4319.02,-131.79 4321.59,-131.56 4324.2,-131.3"/>
<polygon fill="midnightblue" stroke="midnightblue" points="4324.77,-134.76 4334.33,-130.19 4324.01,-127.8 4324.77,-134.76"/>
</g>
<!-- Node40 -->
<g id="node40" class="node">
<title>Node40</title>
<g id="a_node40"><a xlink:href="wld__fsm_8h.html" target="_top" xlink:title=" ">
<polygon fill="white" stroke="black" points="5510,-112.5 5510,-131.5 5577,-131.5 5577,-112.5 5510,-112.5"/>
<text text-anchor="middle" x="5543.5" y="-119.5" font-family="Helvetica,sans-Serif" font-size="10.00">wld_fsm.h</text>
</a>
</g>
</g>
<!-- Node3&#45;&gt;Node40 -->
<g id="edge46" class="edge">
<title>Node3&#45;&gt;Node40</title>
<path fill="none" stroke="midnightblue" d="M2670.1,-176.91C2914.45,-175.87 5155.94,-165.44 5499.73,-131.74"/>
<polygon fill="midnightblue" stroke="midnightblue" points="5500.22,-135.21 5509.8,-130.69 5499.49,-128.25 5500.22,-135.21"/>
</g>
<!-- Node41 -->
<g id="node41" class="node">
<title>Node41</title>
<g id="a_node41"><a xlink:href="wld__sensing_8h.html" target="_top" xlink:title=" ">
<polygon fill="white" stroke="black" points="4466.5,-112.5 4466.5,-131.5 4552.5,-131.5 4552.5,-112.5 4466.5,-112.5"/>
<text text-anchor="middle" x="4509.5" y="-119.5" font-family="Helvetica,sans-Serif" font-size="10.00">wld_sensing.h</text>
</a>
</g>
</g>
<!-- Node3&#45;&gt;Node41 -->
<g id="edge48" class="edge">
<title>Node3&#45;&gt;Node41</title>
<path fill="none" stroke="midnightblue" d="M2670.05,-176.89C2848.27,-175.95 4078.79,-168.39 4448.5,-132 4451.01,-131.75 4453.59,-131.45 4456.19,-131.12"/>
<polygon fill="midnightblue" stroke="midnightblue" points="4456.92,-134.55 4466.33,-129.67 4455.93,-127.62 4456.92,-134.55"/>
</g>
<!-- Node42 -->
<g id="node42" class="node">
<title>Node42</title>
<g id="a_node42"><a xlink:href="wld__mld_8h.html" target="_top" xlink:title=" ">
<polygon fill="white" stroke="black" points="485,-112.5 485,-131.5 552,-131.5 552,-112.5 485,-112.5"/>
<text text-anchor="middle" x="518.5" y="-119.5" font-family="Helvetica,sans-Serif" font-size="10.00">wld_mld.h</text>
</a>
</g>
</g>
<!-- Node3&#45;&gt;Node42 -->
<g id="edge50" class="edge">
<title>Node3&#45;&gt;Node42</title>
<path fill="none" stroke="midnightblue" d="M2626.96,-177.02C2433.72,-177.15 995.56,-176.56 566.5,-132 565.2,-131.86 563.87,-131.71 562.54,-131.55"/>
<polygon fill="midnightblue" stroke="midnightblue" points="562.63,-128.02 552.23,-130.04 561.62,-134.95 562.63,-128.02"/>
</g>
<!-- Node43 -->
<g id="node43" class="node">
<title>Node43</title>
<g id="a_node43"><a xlink:href="wld__autoCommitRadData_8h.html" target="_top" xlink:title=" ">
<polygon fill="white" stroke="black" points="4570.5,-112.5 4570.5,-131.5 4746.5,-131.5 4746.5,-112.5 4570.5,-112.5"/>
<text text-anchor="middle" x="4658.5" y="-119.5" font-family="Helvetica,sans-Serif" font-size="10.00">Utils/wld_autoCommitRadData.h</text>
</a>
</g>
</g>
<!-- Node3&#45;&gt;Node43 -->
<g id="edge52" class="edge">
<title>Node3&#45;&gt;Node43</title>
<path fill="none" stroke="midnightblue" d="M2670.26,-177.06C2825.03,-177.35 3775.61,-177.17 4560.4,-132.02"/>
<polygon fill="midnightblue" stroke="midnightblue" points="4560.71,-135.5 4570.49,-131.43 4560.31,-128.52 4560.71,-135.5"/>
</g>
<!-- Node44 -->
<g id="node44" class="node">
<title>Node44</title>
<g id="a_node44"><a xlink:href="wld__dmnMgt_8h.html" target="_top" xlink:title=" ">
<polygon fill="white" stroke="red" points="352.5,-112.5 352.5,-131.5 466.5,-131.5 466.5,-112.5 352.5,-112.5"/>
<text text-anchor="middle" x="409.5" y="-119.5" font-family="Helvetica,sans-Serif" font-size="10.00">Utils/wld_dmnMgt.h</text>
</a>
</g>
</g>
<!-- Node3&#45;&gt;Node44 -->
<g id="edge53" class="edge">
<title>Node3&#45;&gt;Node44</title>
<path fill="none" stroke="midnightblue" d="M2626.98,-176.89C2430.74,-175.84 947.82,-166.86 477.09,-131.91"/>
<polygon fill="midnightblue" stroke="midnightblue" points="477.07,-128.4 466.84,-131.13 476.54,-135.38 477.07,-128.4"/>
</g>
<!-- Node46 -->
<g id="node45" class="node">
<title>Node46</title>
<g id="a_node45"><a xlink:title=" ">
<polygon fill="white" stroke="#bfbfbf" points="4765,-112.5 4765,-131.5 4866,-131.5 4866,-112.5 4765,-112.5"/>
<text text-anchor="middle" x="4815.5" y="-119.5" font-family="Helvetica,sans-Serif" font-size="10.00">swl/swl_staCap.h</text>
</a>
</g>
</g>
<!-- Node3&#45;&gt;Node46 -->
<g id="edge57" class="edge">
<title>Node3&#45;&gt;Node46</title>
<path fill="none" stroke="midnightblue" d="M2670.29,-176.92C2864.28,-176.14 4298.59,-169.22 4754.55,-131.93"/>
<polygon fill="midnightblue" stroke="midnightblue" points="4755.14,-135.39 4764.81,-131.07 4754.56,-128.41 4755.14,-135.39"/>
</g>
<!-- Node47 -->
<g id="node46" class="node">
<title>Node47</title>
<g id="a_node46"><a xlink:title=" ">
<polygon fill="white" stroke="#bfbfbf" points="4884.5,-112.5 4884.5,-131.5 4988.5,-131.5 4988.5,-112.5 4884.5,-112.5"/>
<text text-anchor="middle" x="4936.5" y="-119.5" font-family="Helvetica,sans-Serif" font-size="10.00">swla/swla_table.h</text>
</a>
</g>
</g>
<!-- Node3&#45;&gt;Node47 -->
<g id="edge58" class="edge">
<title>Node3&#45;&gt;Node47</title>
<path fill="none" stroke="midnightblue" d="M2670.25,-176.94C2870.25,-176.34 4392.96,-170.57 4874.17,-131.97"/>
<polygon fill="midnightblue" stroke="midnightblue" points="4874.63,-135.45 4884.31,-131.14 4874.05,-128.47 4874.63,-135.45"/>
</g>
<!-- Node48 -->
<g id="node47" class="node">
<title>Node48</title>
<g id="a_node47"><a xlink:title=" ">
<polygon fill="white" stroke="#bfbfbf" points="5007,-112.5 5007,-131.5 5104,-131.5 5104,-112.5 5007,-112.5"/>
<text text-anchor="middle" x="5055.5" y="-119.5" font-family="Helvetica,sans-Serif" font-size="10.00">swl/swl_assert.h</text>
</a>
</g>
</g>
<!-- Node3&#45;&gt;Node48 -->
<g id="edge59" class="edge">
<title>Node3&#45;&gt;Node48</title>
<path fill="none" stroke="midnightblue" d="M2670.13,-176.99C2875.7,-176.83 4488.36,-174.28 4996.49,-131.92"/>
<polygon fill="midnightblue" stroke="midnightblue" points="4997.16,-135.38 5006.82,-131.04 4996.56,-128.4 4997.16,-135.38"/>
</g>
<!-- Node49 -->
<g id="node48" class="node">
<title>Node49</title>
<g id="a_node48"><a xlink:title=" ">
<polygon fill="white" stroke="#bfbfbf" points="5122,-112.5 5122,-131.5 5243,-131.5 5243,-112.5 5122,-112.5"/>
<text text-anchor="middle" x="5182.5" y="-119.5" font-family="Helvetica,sans-Serif" font-size="10.00">swl/swl_returnCode.h</text>
</a>
</g>
</g>
<!-- Node3&#45;&gt;Node49 -->
<g id="edge60" class="edge">
<title>Node3&#45;&gt;Node49</title>
<path fill="none" stroke="midnightblue" d="M2670.18,-176.94C2881.62,-176.3 4579.52,-170.04 5111.9,-132.02"/>
<polygon fill="midnightblue" stroke="midnightblue" points="5112.24,-135.5 5121.96,-131.28 5111.73,-128.52 5112.24,-135.5"/>
</g>
<!-- Node50 -->
<g id="node49" class="node">
<title>Node50</title>
<g id="a_node49"><a xlink:title=" ">
<polygon fill="white" stroke="#bfbfbf" points="5261.5,-112.5 5261.5,-131.5 5387.5,-131.5 5387.5,-112.5 5261.5,-112.5"/>
<text text-anchor="middle" x="5324.5" y="-119.5" font-family="Helvetica,sans-Serif" font-size="10.00">swla/swla_tupleType.h</text>
</a>
</g>
</g>
<!-- Node3&#45;&gt;Node50 -->
<g id="edge61" class="edge">
<title>Node3&#45;&gt;Node50</title>
<path fill="none" stroke="midnightblue" d="M2670.02,-176.95C2887.27,-176.38 4687.98,-170.54 5251.09,-132"/>
<polygon fill="midnightblue" stroke="midnightblue" points="5251.59,-135.47 5261.32,-131.29 5251.1,-128.49 5251.59,-135.47"/>
</g>
<!-- Node51 -->
<g id="node50" class="node">
<title>Node51</title>
<g id="a_node50"><a xlink:title=" ">
<polygon fill="white" stroke="#bfbfbf" points="5405.5,-112.5 5405.5,-131.5 5491.5,-131.5 5491.5,-112.5 5405.5,-112.5"/>
<text text-anchor="middle" x="5448.5" y="-119.5" font-family="Helvetica,sans-Serif" font-size="10.00">swl/swl_mlo.h</text>
</a>
</g>
</g>
<!-- Node3&#45;&gt;Node51 -->
<g id="edge63" class="edge">
<title>Node3&#45;&gt;Node51</title>
<path fill="none" stroke="midnightblue" d="M2670.05,-176.85C2909.09,-175.17 5062.26,-159.39 5395.24,-131.88"/>
<polygon fill="midnightblue" stroke="midnightblue" points="5395.79,-135.35 5405.44,-130.98 5395.17,-128.37 5395.79,-135.35"/>
</g>
<!-- Node33&#45;&gt;Node2 -->
<g id="edge34" class="edge">
<title>Node33&#45;&gt;Node2</title>
<path fill="none" stroke="midnightblue" d="M542.86,-61.33C441.48,-51.45 163.63,-24.37 63.27,-14.58"/>
<polygon fill="midnightblue" stroke="midnightblue" points="63.59,-11.1 53.3,-13.61 62.91,-18.07 63.59,-11.1"/>
</g>
<!-- Node33&#45;&gt;Node9 -->
<g id="edge37" class="edge">
<title>Node33&#45;&gt;Node9</title>
<path fill="none" stroke="midnightblue" d="M542.75,-56.97C498.62,-47.59 425.44,-32.03 376.59,-21.65"/>
<polygon fill="midnightblue" stroke="midnightblue" points="377.07,-18.17 366.56,-19.52 375.61,-25.02 377.07,-18.17"/>
</g>
<!-- Node33&#45;&gt;Node34 -->
<g id="edge35" class="edge">
<title>Node33&#45;&gt;Node34</title>
<path fill="none" stroke="midnightblue" d="M618.11,-63.34C787.32,-55.87 1480.36,-25.27 1720.84,-14.65"/>
<polygon fill="midnightblue" stroke="midnightblue" points="1721.09,-18.14 1730.92,-14.2 1720.78,-11.15 1721.09,-18.14"/>
</g>
<!-- Node33&#45;&gt;Node35 -->
<g id="edge36" class="edge">
<title>Node33&#45;&gt;Node35</title>
<path fill="none" stroke="midnightblue" d="M618.2,-64.47C976.88,-59.43 3786.25,-19.92 4329.67,-12.28"/>
<polygon fill="midnightblue" stroke="midnightblue" points="4329.85,-15.78 4339.8,-12.13 4329.75,-8.78 4329.85,-15.78"/>
</g>
<!-- Node36&#45;&gt;Node4 -->
<g id="edge39" class="edge">
<title>Node36&#45;&gt;Node4</title>
<path fill="none" stroke="midnightblue" d="M148.45,-112.32C137.04,-104.11 119.67,-91.6 106.07,-81.81"/>
<polygon fill="midnightblue" stroke="midnightblue" points="107.93,-78.84 97.77,-75.83 103.84,-84.52 107.93,-78.84"/>
</g>
<!-- Node36&#45;&gt;Node9 -->
<g id="edge41" class="edge">
<title>Node36&#45;&gt;Node9</title>
<path fill="none" stroke="midnightblue" d="M158,-112.32C154.65,-98.72 150.53,-72.24 163.5,-56 176.49,-39.73 225.1,-27.68 265.89,-20.16"/>
<polygon fill="midnightblue" stroke="midnightblue" points="266.56,-23.6 275.79,-18.4 265.33,-16.71 266.56,-23.6"/>
</g>
<!-- Node36&#45;&gt;Node37 -->
<g id="edge40" class="edge">
<title>Node36&#45;&gt;Node37</title>
<path fill="none" stroke="midnightblue" d="M172.55,-112.32C183.96,-104.11 201.33,-91.6 214.93,-81.81"/>
<polygon fill="midnightblue" stroke="midnightblue" points="217.16,-84.52 223.23,-75.83 213.07,-78.84 217.16,-84.52"/>
</g>
<!-- Node38&#45;&gt;Node33 -->
<g id="edge43" class="edge">
<title>Node38&#45;&gt;Node33</title>
<path fill="none" stroke="midnightblue" d="M635.9,-112.32C626.04,-104.26 611.15,-92.08 599.28,-82.37"/>
<polygon fill="midnightblue" stroke="midnightblue" points="601.25,-79.46 591.3,-75.83 596.82,-84.88 601.25,-79.46"/>
</g>
<!-- Node39&#45;&gt;Node3 -->
<g id="edge45" class="edge">
<title>Node39&#45;&gt;Node3</title>
<path fill="none" stroke="midnightblue" d="M4340.1,-131.5C4338.22,-131.68 4336.34,-131.85 4334.5,-132 3996.18,-159.52 2883.71,-174.23 2680.48,-176.64"/>
<polygon fill="midnightblue" stroke="midnightblue" points="2680.15,-173.15 2670.19,-176.77 2680.23,-180.15 2680.15,-173.15"/>
</g>
<!-- Node40&#45;&gt;Node33 -->
<g id="edge47" class="edge">
<title>Node40&#45;&gt;Node33</title>
<path fill="none" stroke="midnightblue" d="M5509.8,-113.29C5506.67,-112.77 5503.53,-112.33 5500.5,-112 5245.02,-84.37 1121.79,-68.92 628.62,-67.17"/>
<polygon fill="midnightblue" stroke="midnightblue" points="628.31,-63.67 618.3,-67.13 628.28,-70.67 628.31,-63.67"/>
</g>
<!-- Node41&#45;&gt;Node3 -->
<g id="edge49" class="edge">
<title>Node41&#45;&gt;Node3</title>
<path fill="none" stroke="midnightblue" d="M4470.93,-131.52C4469.44,-131.7 4467.96,-131.86 4466.5,-132 4100.61,-168.02 2891.62,-175.79 2680.16,-176.86"/>
<polygon fill="midnightblue" stroke="midnightblue" points="2680.02,-173.36 2670.04,-176.91 2680.06,-180.36 2680.02,-173.36"/>
</g>
<!-- Node42&#45;&gt;Node33 -->
<g id="edge51" class="edge">
<title>Node42&#45;&gt;Node33</title>
<path fill="none" stroke="midnightblue" d="M528.46,-112.32C537.63,-104.34 551.44,-92.31 562.53,-82.65"/>
<polygon fill="midnightblue" stroke="midnightblue" points="565.12,-85.04 570.36,-75.83 560.52,-79.76 565.12,-85.04"/>
</g>
<!-- Node44&#45;&gt;Node5 -->
<g id="edge54" class="edge">
<title>Node44&#45;&gt;Node5</title>
<path fill="none" stroke="midnightblue" d="M409.5,-112.08C409.5,-105.01 409.5,-94.86 409.5,-85.99"/>
<polygon fill="midnightblue" stroke="midnightblue" points="413,-85.75 409.5,-75.75 406,-85.75 413,-85.75"/>
</g>
<!-- Node44&#45;&gt;Node33 -->
<g id="edge55" class="edge">
<title>Node44&#45;&gt;Node33</title>
<path fill="none" stroke="midnightblue" d="M436.6,-112.44C465.49,-103.32 511.42,-88.81 543.61,-78.65"/>
<polygon fill="midnightblue" stroke="midnightblue" points="545.05,-81.87 553.53,-75.52 542.94,-75.19 545.05,-81.87"/>
</g>
</g>
</svg>
