<?xml version="1.0" encoding="UTF-8" standalone="no"?>
<!DOCTYPE svg PUBLIC "-//W3C//DTD SVG 1.1//EN"
 "http://www.w3.org/Graphics/SVG/1.1/DTD/svg11.dtd">
<!-- Generated by graphviz version 2.43.0 (0)
 -->
<!-- Title: wld_rad_write_possible_channels Pages: 1 -->
<svg width="467pt" height="78pt"
 viewBox="0.00 0.00 467.00 77.50" xmlns="http://www.w3.org/2000/svg" xmlns:xlink="http://www.w3.org/1999/xlink">
<g id="graph0" class="graph" transform="scale(1 1) rotate(0) translate(4 73.5)">
<title>wld_rad_write_possible_channels</title>
<polygon fill="white" stroke="transparent" points="-4,4 -4,-73.5 463,-73.5 463,4 -4,4"/>
<!-- Node1 -->
<g id="node1" class="node">
<title>Node1</title>
<g id="a_node1"><a xlink:title=" ">
<polygon fill="#bfbfbf" stroke="black" points="328,-22.5 328,-52.5 459,-52.5 459,-22.5 328,-22.5"/>
<text text-anchor="start" x="336" y="-40.5" font-family="Helvetica,sans-Serif" font-size="10.00">wld_rad_write_possible</text>
<text text-anchor="middle" x="393.5" y="-29.5" font-family="Helvetica,sans-Serif" font-size="10.00">_channels</text>
</a>
</g>
</g>
<!-- Node2 -->
<g id="node2" class="node">
<title>Node2</title>
<g id="a_node2"><a xlink:href="wifiGen__rad_8c.html#a5971e495b5dfe5dc615d5c1c050faa87" target="_top" xlink:title=" ">
<polygon fill="white" stroke="black" points="167,-50 167,-69 292,-69 292,-50 167,-50"/>
<text text-anchor="middle" x="229.5" y="-57" font-family="Helvetica,sans-Serif" font-size="10.00">wifiGen_rad_poschans</text>
</a>
</g>
</g>
<!-- Node1&#45;&gt;Node2 -->
<g id="edge1" class="edge">
<title>Node1&#45;&gt;Node2</title>
<path fill="none" stroke="midnightblue" d="M317.58,-47.67C309.03,-48.84 300.4,-50.01 292.05,-51.14"/>
<polygon fill="midnightblue" stroke="midnightblue" points="318.1,-51.14 327.54,-46.32 317.16,-44.2 318.1,-51.14"/>
</g>
<!-- Node3 -->
<g id="node3" class="node">
<title>Node3</title>
<g id="a_node3"><a xlink:href="wld__th__radio_8c.html#a618f370c3b2744ff2d1c610a457f4442" target="_top" xlink:title=" ">
<polygon fill="white" stroke="black" points="168.5,-0.5 168.5,-30.5 290.5,-30.5 290.5,-0.5 168.5,-0.5"/>
<text text-anchor="start" x="176.5" y="-18.5" font-family="Helvetica,sans-Serif" font-size="10.00">wld_th_rad_vendorCb</text>
<text text-anchor="middle" x="229.5" y="-7.5" font-family="Helvetica,sans-Serif" font-size="10.00">_poschans</text>
</a>
</g>
</g>
<!-- Node1&#45;&gt;Node3 -->
<g id="edge2" class="edge">
<title>Node1&#45;&gt;Node3</title>
<path fill="none" stroke="midnightblue" d="M317.49,-27.31C308.53,-26.1 299.46,-24.87 290.75,-23.68"/>
<polygon fill="midnightblue" stroke="midnightblue" points="317.16,-30.8 327.54,-28.68 318.1,-23.86 317.16,-30.8"/>
</g>
<!-- Node4 -->
<g id="node4" class="node">
<title>Node4</title>
<g id="a_node4"><a xlink:href="wld__th__radio_8c.html#a17ad76a586d7cddb7ae94b5dfd6fe294" target="_top" xlink:title=" ">
<polygon fill="white" stroke="black" points="0,-0.5 0,-30.5 131,-30.5 131,-0.5 0,-0.5"/>
<text text-anchor="start" x="8" y="-18.5" font-family="Helvetica,sans-Serif" font-size="10.00">wld_th_radio_vendorCb</text>
<text text-anchor="middle" x="65.5" y="-7.5" font-family="Helvetica,sans-Serif" font-size="10.00">_supports</text>
</a>
</g>
</g>
<!-- Node3&#45;&gt;Node4 -->
<g id="edge3" class="edge">
<title>Node3&#45;&gt;Node4</title>
<path fill="none" stroke="midnightblue" d="M158.17,-15.5C149.21,-15.5 140.08,-15.5 131.22,-15.5"/>
<polygon fill="midnightblue" stroke="midnightblue" points="158.18,-19 168.18,-15.5 158.18,-12 158.18,-19"/>
</g>
</g>
</svg>
