<?xml version="1.0" encoding="UTF-8" standalone="no"?>
<!DOCTYPE svg PUBLIC "-//W3C//DTD SVG 1.1//EN"
 "http://www.w3.org/Graphics/SVG/1.1/DTD/svg11.dtd">
<!-- Generated by graphviz version 2.43.0 (0)
 -->
<!-- Title: include/wld/wld_accesspoint.h Pages: 1 -->
<svg width="5553pt" height="308pt"
 viewBox="0.00 0.00 5552.85 308.00" xmlns="http://www.w3.org/2000/svg" xmlns:xlink="http://www.w3.org/1999/xlink">
<g id="graph0" class="graph" transform="scale(1 1) rotate(0) translate(4 304)">
<title>include/wld/wld_accesspoint.h</title>
<polygon fill="white" stroke="transparent" points="-4,4 -4,-304 5548.85,-304 5548.85,4 -4,4"/>
<!-- Node1 -->
<g id="node1" class="node">
<title>Node1</title>
<g id="a_node1"><a xlink:title=" ">
<polygon fill="#bfbfbf" stroke="black" points="3130.5,-280.5 3130.5,-299.5 3294.5,-299.5 3294.5,-280.5 3130.5,-280.5"/>
<text text-anchor="middle" x="3212.5" y="-287.5" font-family="Helvetica,sans-Serif" font-size="10.00">include/wld/wld_accesspoint.h</text>
</a>
</g>
</g>
<!-- Node2 -->
<g id="node2" class="node">
<title>Node2</title>
<g id="a_node2"><a xlink:href="wld_8h.html" target="_top" xlink:title=" ">
<polygon fill="white" stroke="red" points="3225,-168.5 3225,-187.5 3268,-187.5 3268,-168.5 3225,-168.5"/>
<text text-anchor="middle" x="3246.5" y="-175.5" font-family="Helvetica,sans-Serif" font-size="10.00">wld.h</text>
</a>
</g>
</g>
<!-- Node1&#45;&gt;Node2 -->
<g id="edge1" class="edge">
<title>Node1&#45;&gt;Node2</title>
<path fill="none" stroke="midnightblue" d="M3214.98,-280.14C3218.51,-267.6 3225.25,-243.97 3231.5,-224 3234.27,-215.15 3237.5,-205.37 3240.26,-197.2"/>
<polygon fill="midnightblue" stroke="midnightblue" points="3243.62,-198.19 3243.53,-187.6 3236.99,-195.94 3243.62,-198.19"/>
</g>
<!-- Node74 -->
<g id="node49" class="node">
<title>Node74</title>
<g id="a_node49"><a xlink:href="wld__extMod_8h.html" target="_top" xlink:title=" ">
<polygon fill="white" stroke="black" points="0,-112.5 0,-131.5 85,-131.5 85,-112.5 0,-112.5"/>
<text text-anchor="middle" x="42.5" y="-119.5" font-family="Helvetica,sans-Serif" font-size="10.00">wld_extMod.h</text>
</a>
</g>
</g>
<!-- Node1&#45;&gt;Node74 -->
<g id="edge67" class="edge">
<title>Node1&#45;&gt;Node74</title>
<path fill="none" stroke="midnightblue" d="M3130.32,-287.75C2771.01,-281.66 1302.52,-250.45 103.5,-132 100.8,-131.73 98.03,-131.43 95.24,-131.1"/>
<polygon fill="midnightblue" stroke="midnightblue" points="95.46,-127.6 85.1,-129.82 94.58,-134.55 95.46,-127.6"/>
</g>
<!-- Node75 -->
<g id="node50" class="node">
<title>Node75</title>
<g id="a_node50"><a xlink:href="wld__wps_8h.html" target="_top" xlink:title=" ">
<polygon fill="white" stroke="black" points="3240.5,-224.5 3240.5,-243.5 3308.5,-243.5 3308.5,-224.5 3240.5,-224.5"/>
<text text-anchor="middle" x="3274.5" y="-231.5" font-family="Helvetica,sans-Serif" font-size="10.00">wld_wps.h</text>
</a>
</g>
</g>
<!-- Node1&#45;&gt;Node75 -->
<g id="edge64" class="edge">
<title>Node1&#45;&gt;Node75</title>
<path fill="none" stroke="midnightblue" d="M3222.46,-280.32C3231.63,-272.34 3245.44,-260.31 3256.53,-250.65"/>
<polygon fill="midnightblue" stroke="midnightblue" points="3259.12,-253.04 3264.36,-243.83 3254.52,-247.76 3259.12,-253.04"/>
</g>
<!-- Node3 -->
<g id="node3" class="node">
<title>Node3</title>
<g id="a_node3"><a xlink:title=" ">
<polygon fill="white" stroke="#bfbfbf" points="4703.5,-56.5 4703.5,-75.5 4765.5,-75.5 4765.5,-56.5 4703.5,-56.5"/>
<text text-anchor="middle" x="4734.5" y="-63.5" font-family="Helvetica,sans-Serif" font-size="10.00">stdbool.h</text>
</a>
</g>
</g>
<!-- Node2&#45;&gt;Node3 -->
<g id="edge2" class="edge">
<title>Node2&#45;&gt;Node3</title>
<path fill="none" stroke="midnightblue" d="M3268.13,-176.95C3485.35,-176.36 5265.97,-170.36 5303.5,-132 5309.72,-125.65 5309.53,-118.53 5303.5,-112 5267.85,-73.41 4900.79,-67.88 4775.87,-67.11"/>
<polygon fill="midnightblue" stroke="midnightblue" points="4775.59,-63.61 4765.58,-67.06 4775.56,-70.61 4775.59,-63.61"/>
</g>
<!-- Node4 -->
<g id="node4" class="node">
<title>Node4</title>
<g id="a_node4"><a xlink:title=" ">
<polygon fill="white" stroke="#bfbfbf" points="5334,-0.5 5334,-19.5 5387,-19.5 5387,-0.5 5334,-0.5"/>
<text text-anchor="middle" x="5360.5" y="-7.5" font-family="Helvetica,sans-Serif" font-size="10.00">stdint.h</text>
</a>
</g>
</g>
<!-- Node2&#45;&gt;Node4 -->
<g id="edge3" class="edge">
<title>Node2&#45;&gt;Node4</title>
<path fill="none" stroke="midnightblue" d="M3268.24,-176.88C3486.51,-175.58 5275.89,-163.99 5319.5,-132 5351.89,-108.24 5358.97,-57.53 5360.34,-29.9"/>
<polygon fill="midnightblue" stroke="midnightblue" points="5363.85,-29.71 5360.64,-19.62 5356.85,-29.51 5363.85,-29.71"/>
</g>
<!-- Node5 -->
<g id="node5" class="node">
<title>Node5</title>
<g id="a_node5"><a xlink:title=" ">
<polygon fill="white" stroke="#bfbfbf" points="3510.5,-56.5 3510.5,-75.5 3620.5,-75.5 3620.5,-56.5 3510.5,-56.5"/>
<text text-anchor="middle" x="3565.5" y="-63.5" font-family="Helvetica,sans-Serif" font-size="10.00">swl/swl_common.h</text>
</a>
</g>
</g>
<!-- Node2&#45;&gt;Node5 -->
<g id="edge4" class="edge">
<title>Node2&#45;&gt;Node5</title>
<path fill="none" stroke="midnightblue" d="M3268.04,-176.69C3329.65,-175.35 3504.84,-168.37 3546.5,-132 3559.63,-120.54 3563.92,-100.56 3565.21,-85.77"/>
<polygon fill="midnightblue" stroke="midnightblue" points="3568.71,-85.86 3565.71,-75.7 3561.72,-85.51 3568.71,-85.86"/>
</g>
<!-- Node6 -->
<g id="node6" class="node">
<title>Node6</title>
<g id="a_node6"><a xlink:title=" ">
<polygon fill="white" stroke="#bfbfbf" points="5388.5,-112.5 5388.5,-131.5 5524.5,-131.5 5524.5,-112.5 5388.5,-112.5"/>
<text text-anchor="middle" x="5456.5" y="-119.5" font-family="Helvetica,sans-Serif" font-size="10.00">swla/swla_commonLib.h</text>
</a>
</g>
</g>
<!-- Node2&#45;&gt;Node6 -->
<g id="edge5" class="edge">
<title>Node2&#45;&gt;Node6</title>
<path fill="none" stroke="midnightblue" d="M3268.19,-176.81C3464.3,-175.01 4934.32,-160.75 5374.5,-132 5375.61,-131.93 5376.72,-131.85 5377.85,-131.77"/>
<polygon fill="midnightblue" stroke="midnightblue" points="5378.39,-135.24 5388.08,-130.97 5377.84,-128.26 5378.39,-135.24"/>
</g>
<!-- Node7 -->
<g id="node7" class="node">
<title>Node7</title>
<g id="a_node7"><a xlink:title=" ">
<polygon fill="white" stroke="#bfbfbf" points="141.5,-112.5 141.5,-131.5 229.5,-131.5 229.5,-112.5 141.5,-112.5"/>
<text text-anchor="middle" x="185.5" y="-119.5" font-family="Helvetica,sans-Serif" font-size="10.00">swl/swl_uuid.h</text>
</a>
</g>
</g>
<!-- Node2&#45;&gt;Node7 -->
<g id="edge6" class="edge">
<title>Node2&#45;&gt;Node7</title>
<path fill="none" stroke="midnightblue" d="M3224.95,-173.27C3212.57,-171.3 3196.71,-169.08 3182.5,-168 2533.46,-118.6 906.9,-190.21 239.91,-131.94"/>
<polygon fill="midnightblue" stroke="midnightblue" points="239.95,-128.43 229.68,-131.03 239.33,-135.4 239.95,-128.43"/>
</g>
<!-- Node8 -->
<g id="node8" class="node">
<title>Node8</title>
<g id="a_node8"><a xlink:title=" ">
<polygon fill="white" stroke="#bfbfbf" points="247.5,-112.5 247.5,-131.5 399.5,-131.5 399.5,-112.5 247.5,-112.5"/>
<text text-anchor="middle" x="323.5" y="-119.5" font-family="Helvetica,sans-Serif" font-size="10.00">swla/swla_radioStandards.h</text>
</a>
</g>
</g>
<!-- Node2&#45;&gt;Node8 -->
<g id="edge7" class="edge">
<title>Node2&#45;&gt;Node8</title>
<path fill="none" stroke="midnightblue" d="M3224.95,-173.28C3212.57,-171.31 3196.71,-169.09 3182.5,-168 1956.55,-74.23 1641.1,-204.26 410.35,-132.04"/>
<polygon fill="midnightblue" stroke="midnightblue" points="410.12,-128.52 399.93,-131.43 409.7,-135.51 410.12,-128.52"/>
</g>
<!-- Node9 -->
<g id="node9" class="node">
<title>Node9</title>
<g id="a_node9"><a xlink:title=" ">
<polygon fill="white" stroke="#bfbfbf" points="3776,-0.5 3776,-19.5 3877,-19.5 3877,-0.5 3776,-0.5"/>
<text text-anchor="middle" x="3826.5" y="-7.5" font-family="Helvetica,sans-Serif" font-size="10.00">swla/swla_time.h</text>
</a>
</g>
</g>
<!-- Node2&#45;&gt;Node9 -->
<g id="edge8" class="edge">
<title>Node2&#45;&gt;Node9</title>
<path fill="none" stroke="midnightblue" d="M3224.95,-173.31C3212.57,-171.36 3196.7,-169.14 3182.5,-168 3132.46,-164 1410.64,-167.85 1375.5,-132 1369.28,-125.65 1369.35,-118.41 1375.5,-112 1460.82,-23.09 3395.52,-12.39 3765.61,-11.16"/>
<polygon fill="midnightblue" stroke="midnightblue" points="3765.86,-14.65 3775.85,-11.12 3765.84,-7.65 3765.86,-14.65"/>
</g>
<!-- Node10 -->
<g id="node10" class="node">
<title>Node10</title>
<g id="a_node10"><a xlink:title=" ">
<polygon fill="white" stroke="#bfbfbf" points="418,-112.5 418,-131.5 547,-131.5 547,-112.5 418,-112.5"/>
<text text-anchor="middle" x="482.5" y="-119.5" font-family="Helvetica,sans-Serif" font-size="10.00">swla/swla_time_spec.h</text>
</a>
</g>
</g>
<!-- Node2&#45;&gt;Node10 -->
<g id="edge9" class="edge">
<title>Node2&#45;&gt;Node10</title>
<path fill="none" stroke="midnightblue" d="M3224.95,-173.28C3212.57,-171.32 3196.71,-169.09 3182.5,-168 2022.12,-78.81 1722.82,-209.8 557.33,-131.95"/>
<polygon fill="midnightblue" stroke="midnightblue" points="557.25,-128.44 547.04,-131.26 556.78,-135.42 557.25,-128.44"/>
</g>
<!-- Node11 -->
<g id="node11" class="node">
<title>Node11</title>
<g id="a_node11"><a xlink:title=" ">
<polygon fill="white" stroke="#bfbfbf" points="565.5,-112.5 565.5,-131.5 659.5,-131.5 659.5,-112.5 565.5,-112.5"/>
<text text-anchor="middle" x="612.5" y="-119.5" font-family="Helvetica,sans-Serif" font-size="10.00">swla/swla_oui.h</text>
</a>
</g>
</g>
<!-- Node2&#45;&gt;Node11 -->
<g id="edge10" class="edge">
<title>Node2&#45;&gt;Node11</title>
<path fill="none" stroke="midnightblue" d="M3224.95,-173.28C3212.57,-171.32 3196.71,-169.1 3182.5,-168 2071.76,-82.29 1783.49,-228.02 670.04,-131.98"/>
<polygon fill="midnightblue" stroke="midnightblue" points="670.06,-128.47 659.8,-131.1 669.46,-135.45 670.06,-128.47"/>
</g>
<!-- Node12 -->
<g id="node12" class="node">
<title>Node12</title>
<g id="a_node12"><a xlink:title=" ">
<polygon fill="white" stroke="#bfbfbf" points="677.5,-112.5 677.5,-131.5 805.5,-131.5 805.5,-112.5 677.5,-112.5"/>
<text text-anchor="middle" x="741.5" y="-119.5" font-family="Helvetica,sans-Serif" font-size="10.00">swla/swla_delayExec.h</text>
</a>
</g>
</g>
<!-- Node2&#45;&gt;Node12 -->
<g id="edge11" class="edge">
<title>Node2&#45;&gt;Node12</title>
<path fill="none" stroke="midnightblue" d="M3224.95,-173.29C3212.57,-171.33 3196.71,-169.1 3182.5,-168 2136.42,-86.81 1866.28,-203.75 815.62,-131.98"/>
<polygon fill="midnightblue" stroke="midnightblue" points="815.77,-128.49 805.56,-131.29 815.29,-135.47 815.77,-128.49"/>
</g>
<!-- Node13 -->
<g id="node13" class="node">
<title>Node13</title>
<g id="a_node13"><a xlink:title=" ">
<polygon fill="white" stroke="#bfbfbf" points="824,-112.5 824,-131.5 943,-131.5 943,-112.5 824,-112.5"/>
<text text-anchor="middle" x="883.5" y="-119.5" font-family="Helvetica,sans-Serif" font-size="10.00">swla/swla_function.h</text>
</a>
</g>
</g>
<!-- Node2&#45;&gt;Node13 -->
<g id="edge12" class="edge">
<title>Node2&#45;&gt;Node13</title>
<path fill="none" stroke="midnightblue" d="M3224.95,-173.29C3212.57,-171.33 3196.71,-169.11 3182.5,-168 2197.2,-91.07 1942.22,-204.4 953.36,-132.04"/>
<polygon fill="midnightblue" stroke="midnightblue" points="953.39,-128.54 943.16,-131.29 952.88,-135.52 953.39,-128.54"/>
</g>
<!-- Node14 -->
<g id="node14" class="node">
<title>Node14</title>
<g id="a_node14"><a xlink:title=" ">
<polygon fill="white" stroke="#bfbfbf" points="961,-112.5 961,-131.5 1102,-131.5 1102,-112.5 961,-112.5"/>
<text text-anchor="middle" x="1031.5" y="-119.5" font-family="Helvetica,sans-Serif" font-size="10.00">swl/swl_usp_cmdStatus.h</text>
</a>
</g>
</g>
<!-- Node2&#45;&gt;Node14 -->
<g id="edge13" class="edge">
<title>Node2&#45;&gt;Node14</title>
<path fill="none" stroke="midnightblue" d="M3224.95,-173.3C3212.57,-171.34 3196.71,-169.12 3182.5,-168 2268.12,-96.03 2031.88,-190.83 1112.31,-131.97"/>
<polygon fill="midnightblue" stroke="midnightblue" points="1112.34,-128.46 1102.14,-131.31 1111.89,-135.45 1112.34,-128.46"/>
</g>
<!-- Node15 -->
<g id="node15" class="node">
<title>Node15</title>
<g id="a_node15"><a xlink:title=" ">
<polygon fill="white" stroke="#bfbfbf" points="1120.5,-112.5 1120.5,-131.5 1206.5,-131.5 1206.5,-112.5 1120.5,-112.5"/>
<text text-anchor="middle" x="1163.5" y="-119.5" font-family="Helvetica,sans-Serif" font-size="10.00">swl/swl_wps.h</text>
</a>
</g>
</g>
<!-- Node2&#45;&gt;Node15 -->
<g id="edge14" class="edge">
<title>Node2&#45;&gt;Node15</title>
<path fill="none" stroke="midnightblue" d="M3224.95,-173.3C3212.57,-171.35 3196.71,-169.12 3182.5,-168 2314.26,-99.26 2087.71,-213.9 1216.84,-131.95"/>
<polygon fill="midnightblue" stroke="midnightblue" points="1216.85,-128.43 1206.56,-130.98 1216.19,-135.4 1216.85,-128.43"/>
</g>
<!-- Node16 -->
<g id="node16" class="node">
<title>Node16</title>
<g id="a_node16"><a xlink:title=" ">
<polygon fill="white" stroke="#bfbfbf" points="1224.5,-112.5 1224.5,-131.5 1328.5,-131.5 1328.5,-112.5 1224.5,-112.5"/>
<text text-anchor="middle" x="1276.5" y="-119.5" font-family="Helvetica,sans-Serif" font-size="10.00">swl/swl_security.h</text>
</a>
</g>
</g>
<!-- Node2&#45;&gt;Node16 -->
<g id="edge15" class="edge">
<title>Node2&#45;&gt;Node16</title>
<path fill="none" stroke="midnightblue" d="M3224.95,-173.31C3212.57,-171.36 3196.7,-169.13 3182.5,-168 2367.16,-102.93 2157.98,-195.36 1342.5,-132 1341.24,-131.9 1339.96,-131.8 1338.67,-131.68"/>
<polygon fill="midnightblue" stroke="midnightblue" points="1338.98,-128.2 1328.68,-130.68 1338.28,-135.16 1338.98,-128.2"/>
</g>
<!-- Node17 -->
<g id="node17" class="node">
<title>Node17</title>
<g id="a_node17"><a xlink:title=" ">
<polygon fill="white" stroke="#bfbfbf" points="37,-56.5 37,-75.5 120,-75.5 120,-56.5 37,-56.5"/>
<text text-anchor="middle" x="78.5" y="-63.5" font-family="Helvetica,sans-Serif" font-size="10.00">amxc/amxc.h</text>
</a>
</g>
</g>
<!-- Node2&#45;&gt;Node17 -->
<g id="edge16" class="edge">
<title>Node2&#45;&gt;Node17</title>
<path fill="none" stroke="midnightblue" d="M3224.95,-173.27C3212.57,-171.3 3196.71,-169.08 3182.5,-168 3098.01,-161.59 208.99,-168.45 132.5,-132 112.08,-122.27 96.66,-100.67 87.63,-85.04"/>
<polygon fill="midnightblue" stroke="midnightblue" points="90.48,-82.94 82.64,-75.81 84.32,-86.27 90.48,-82.94"/>
</g>
<!-- Node18 -->
<g id="node18" class="node">
<title>Node18</title>
<g id="a_node18"><a xlink:title=" ">
<polygon fill="white" stroke="#bfbfbf" points="1384.5,-112.5 1384.5,-131.5 1468.5,-131.5 1468.5,-112.5 1384.5,-112.5"/>
<text text-anchor="middle" x="1426.5" y="-119.5" font-family="Helvetica,sans-Serif" font-size="10.00">amxp/amxp.h</text>
</a>
</g>
</g>
<!-- Node2&#45;&gt;Node18 -->
<g id="edge17" class="edge">
<title>Node2&#45;&gt;Node18</title>
<path fill="none" stroke="midnightblue" d="M3224.95,-173.32C3212.57,-171.37 3196.7,-169.14 3182.5,-168 2430.32,-107.39 2233.54,-205.21 1478.76,-131.95"/>
<polygon fill="midnightblue" stroke="midnightblue" points="1479.02,-128.46 1468.73,-130.97 1478.34,-135.42 1479.02,-128.46"/>
</g>
<!-- Node19 -->
<g id="node19" class="node">
<title>Node19</title>
<g id="a_node19"><a xlink:title=" ">
<polygon fill="white" stroke="#bfbfbf" points="1486.5,-112.5 1486.5,-131.5 1626.5,-131.5 1626.5,-112.5 1486.5,-112.5"/>
<text text-anchor="middle" x="1556.5" y="-119.5" font-family="Helvetica,sans-Serif" font-size="10.00">amxd/amxd_parameter.h</text>
</a>
</g>
</g>
<!-- Node2&#45;&gt;Node19 -->
<g id="edge18" class="edge">
<title>Node2&#45;&gt;Node19</title>
<path fill="none" stroke="midnightblue" d="M3224.94,-173.33C3212.56,-171.38 3196.7,-169.16 3182.5,-168 2500.39,-112.29 2323.36,-178.32 1636.82,-132.02"/>
<polygon fill="midnightblue" stroke="midnightblue" points="1636.9,-128.51 1626.68,-131.33 1636.42,-135.5 1636.9,-128.51"/>
</g>
<!-- Node20 -->
<g id="node20" class="node">
<title>Node20</title>
<g id="a_node20"><a xlink:title=" ">
<polygon fill="white" stroke="#bfbfbf" points="1645,-112.5 1645,-131.5 1764,-131.5 1764,-112.5 1645,-112.5"/>
<text text-anchor="middle" x="1704.5" y="-119.5" font-family="Helvetica,sans-Serif" font-size="10.00">amxd/amxd_action.h</text>
</a>
</g>
</g>
<!-- Node2&#45;&gt;Node20 -->
<g id="edge19" class="edge">
<title>Node2&#45;&gt;Node20</title>
<path fill="none" stroke="midnightblue" d="M3224.94,-173.34C3212.56,-171.4 3196.7,-169.18 3182.5,-168 2561.12,-116.55 2399.17,-180.5 1774.33,-132.06"/>
<polygon fill="midnightblue" stroke="midnightblue" points="1774.41,-128.55 1764.17,-131.26 1773.86,-135.53 1774.41,-128.55"/>
</g>
<!-- Node21 -->
<g id="node21" class="node">
<title>Node21</title>
<g id="a_node21"><a xlink:title=" ">
<polygon fill="white" stroke="#bfbfbf" points="1782,-112.5 1782,-131.5 1957,-131.5 1957,-112.5 1782,-112.5"/>
<text text-anchor="middle" x="1869.5" y="-119.5" font-family="Helvetica,sans-Serif" font-size="10.00">amxd/amxd_object_parameter.h</text>
</a>
</g>
</g>
<!-- Node2&#45;&gt;Node21 -->
<g id="edge20" class="edge">
<title>Node2&#45;&gt;Node21</title>
<path fill="none" stroke="midnightblue" d="M3224.94,-173.37C3212.56,-171.43 3196.7,-169.2 3182.5,-168 2647.04,-122.56 2507.87,-164.47 1967.26,-132"/>
<polygon fill="midnightblue" stroke="midnightblue" points="1967.44,-128.5 1957.25,-131.39 1967.02,-135.49 1967.44,-128.5"/>
</g>
<!-- Node22 -->
<g id="node22" class="node">
<title>Node22</title>
<g id="a_node22"><a xlink:title=" ">
<polygon fill="white" stroke="#bfbfbf" points="1975.5,-112.5 1975.5,-131.5 2127.5,-131.5 2127.5,-112.5 1975.5,-112.5"/>
<text text-anchor="middle" x="2051.5" y="-119.5" font-family="Helvetica,sans-Serif" font-size="10.00">amxd/amxd_object_event.h</text>
</a>
</g>
</g>
<!-- Node2&#45;&gt;Node22 -->
<g id="edge21" class="edge">
<title>Node2&#45;&gt;Node22</title>
<path fill="none" stroke="midnightblue" d="M3224.94,-173.39C3212.56,-171.46 3196.7,-169.24 3182.5,-168 2722.38,-127.84 2602.22,-163.99 2137.92,-132.05"/>
<polygon fill="midnightblue" stroke="midnightblue" points="2138.15,-128.55 2127.93,-131.35 2137.67,-135.54 2138.15,-128.55"/>
</g>
<!-- Node23 -->
<g id="node23" class="node">
<title>Node23</title>
<g id="a_node23"><a xlink:title=" ">
<polygon fill="white" stroke="#bfbfbf" points="2146,-112.5 2146,-131.5 2275,-131.5 2275,-112.5 2146,-112.5"/>
<text text-anchor="middle" x="2210.5" y="-119.5" font-family="Helvetica,sans-Serif" font-size="10.00">amxd/amxd_function.h</text>
</a>
</g>
</g>
<!-- Node2&#45;&gt;Node23 -->
<g id="edge22" class="edge">
<title>Node2&#45;&gt;Node23</title>
<path fill="none" stroke="midnightblue" d="M3224.94,-173.42C3212.55,-171.5 3196.69,-169.28 3182.5,-168 2787.54,-132.41 2683.77,-163.96 2285.42,-132.09"/>
<polygon fill="midnightblue" stroke="midnightblue" points="2285.6,-128.59 2275.35,-131.28 2285.04,-135.57 2285.6,-128.59"/>
</g>
<!-- Node24 -->
<g id="node24" class="node">
<title>Node24</title>
<g id="a_node24"><a xlink:title=" ">
<polygon fill="white" stroke="#bfbfbf" points="2293,-112.5 2293,-131.5 2462,-131.5 2462,-112.5 2293,-112.5"/>
<text text-anchor="middle" x="2377.5" y="-119.5" font-family="Helvetica,sans-Serif" font-size="10.00">amxd/amxd_object_hierarchy.h</text>
</a>
</g>
</g>
<!-- Node2&#45;&gt;Node24 -->
<g id="edge23" class="edge">
<title>Node2&#45;&gt;Node24</title>
<path fill="none" stroke="midnightblue" d="M3224.93,-173.48C3212.55,-171.58 3196.69,-169.35 3182.5,-168 2870.47,-138.23 2788.25,-154.9 2472.5,-132.11"/>
<polygon fill="midnightblue" stroke="midnightblue" points="2472.36,-128.59 2462.13,-131.36 2471.85,-135.58 2472.36,-128.59"/>
</g>
<!-- Node25 -->
<g id="node25" class="node">
<title>Node25</title>
<g id="a_node25"><a xlink:title=" ">
<polygon fill="white" stroke="#bfbfbf" points="2480,-112.5 2480,-131.5 2599,-131.5 2599,-112.5 2480,-112.5"/>
<text text-anchor="middle" x="2539.5" y="-119.5" font-family="Helvetica,sans-Serif" font-size="10.00">amxd/amxd_object.h</text>
</a>
</g>
</g>
<!-- Node2&#45;&gt;Node25 -->
<g id="edge24" class="edge">
<title>Node2&#45;&gt;Node25</title>
<path fill="none" stroke="midnightblue" d="M3224.92,-173.54C3212.54,-171.66 3196.68,-169.44 3182.5,-168 2931.11,-142.49 2864.11,-156.43 2609.48,-132.13"/>
<polygon fill="midnightblue" stroke="midnightblue" points="2609.47,-128.61 2599.18,-131.14 2608.79,-135.58 2609.47,-128.61"/>
</g>
<!-- Node26 -->
<g id="node26" class="node">
<title>Node26</title>
<g id="a_node26"><a xlink:title=" ">
<polygon fill="white" stroke="#bfbfbf" points="2617,-112.5 2617,-131.5 2722,-131.5 2722,-112.5 2617,-112.5"/>
<text text-anchor="middle" x="2669.5" y="-119.5" font-family="Helvetica,sans-Serif" font-size="10.00">amxd/amxd_dm.h</text>
</a>
</g>
</g>
<!-- Node2&#45;&gt;Node26 -->
<g id="edge25" class="edge">
<title>Node2&#45;&gt;Node26</title>
<path fill="none" stroke="midnightblue" d="M3224.91,-173.64C3212.53,-171.79 3196.66,-169.56 3182.5,-168 2985.85,-146.34 2933.02,-154.19 2732.22,-132.01"/>
<polygon fill="midnightblue" stroke="midnightblue" points="2732.56,-128.52 2722.24,-130.89 2731.79,-135.48 2732.56,-128.52"/>
</g>
<!-- Node27 -->
<g id="node27" class="node">
<title>Node27</title>
<g id="a_node27"><a xlink:title=" ">
<polygon fill="white" stroke="#bfbfbf" points="2740.5,-112.5 2740.5,-131.5 2884.5,-131.5 2884.5,-112.5 2740.5,-112.5"/>
<text text-anchor="middle" x="2812.5" y="-119.5" font-family="Helvetica,sans-Serif" font-size="10.00">amxd/amxd_transaction.h</text>
</a>
</g>
</g>
<!-- Node2&#45;&gt;Node27 -->
<g id="edge26" class="edge">
<title>Node2&#45;&gt;Node27</title>
<path fill="none" stroke="midnightblue" d="M3224.89,-173.86C3212.49,-172.08 3196.63,-169.85 3182.5,-168 3083.69,-155.04 2969.86,-141.39 2894.84,-132.57"/>
<polygon fill="midnightblue" stroke="midnightblue" points="2894.86,-129.05 2884.52,-131.36 2894.04,-136 2894.86,-129.05"/>
</g>
<!-- Node28 -->
<g id="node28" class="node">
<title>Node28</title>
<g id="a_node28"><a xlink:title=" ">
<polygon fill="white" stroke="#bfbfbf" points="2902.5,-112.5 2902.5,-131.5 3018.5,-131.5 3018.5,-112.5 2902.5,-112.5"/>
<text text-anchor="middle" x="2960.5" y="-119.5" font-family="Helvetica,sans-Serif" font-size="10.00">amxb/amxb_types.h</text>
</a>
</g>
</g>
<!-- Node2&#45;&gt;Node28 -->
<g id="edge27" class="edge">
<title>Node2&#45;&gt;Node28</title>
<path fill="none" stroke="midnightblue" d="M3224.53,-172.85C3180.21,-164.48 3078.9,-145.35 3015.45,-133.37"/>
<polygon fill="midnightblue" stroke="midnightblue" points="3016.08,-129.93 3005.6,-131.52 3014.78,-136.81 3016.08,-129.93"/>
</g>
<!-- Node29 -->
<g id="node29" class="node">
<title>Node29</title>
<g id="a_node29"><a xlink:title=" ">
<polygon fill="white" stroke="#bfbfbf" points="3036.5,-112.5 3036.5,-131.5 3172.5,-131.5 3172.5,-112.5 3036.5,-112.5"/>
<text text-anchor="middle" x="3104.5" y="-119.5" font-family="Helvetica,sans-Serif" font-size="10.00">amxb/amxb_operators.h</text>
</a>
</g>
</g>
<!-- Node2&#45;&gt;Node29 -->
<g id="edge28" class="edge">
<title>Node2&#45;&gt;Node29</title>
<path fill="none" stroke="midnightblue" d="M3224.93,-168.8C3201.44,-159.86 3163.61,-145.48 3136.62,-135.21"/>
<polygon fill="midnightblue" stroke="midnightblue" points="3137.8,-131.92 3127.21,-131.64 3135.31,-138.46 3137.8,-131.92"/>
</g>
<!-- Node30 -->
<g id="node30" class="node">
<title>Node30</title>
<g id="a_node30"><a xlink:title=" ">
<polygon fill="white" stroke="#bfbfbf" points="3190.5,-112.5 3190.5,-131.5 3302.5,-131.5 3302.5,-112.5 3190.5,-112.5"/>
<text text-anchor="middle" x="3246.5" y="-119.5" font-family="Helvetica,sans-Serif" font-size="10.00">amxb/amxb_error.h</text>
</a>
</g>
</g>
<!-- Node2&#45;&gt;Node30 -->
<g id="edge29" class="edge">
<title>Node2&#45;&gt;Node30</title>
<path fill="none" stroke="midnightblue" d="M3246.5,-168.08C3246.5,-161.01 3246.5,-150.86 3246.5,-141.99"/>
<polygon fill="midnightblue" stroke="midnightblue" points="3250,-141.75 3246.5,-131.75 3243,-141.75 3250,-141.75"/>
</g>
<!-- Node31 -->
<g id="node31" class="node">
<title>Node31</title>
<g id="a_node31"><a xlink:title=" ">
<polygon fill="white" stroke="#bfbfbf" points="3321,-112.5 3321,-131.5 3404,-131.5 3404,-112.5 3321,-112.5"/>
<text text-anchor="middle" x="3362.5" y="-119.5" font-family="Helvetica,sans-Serif" font-size="10.00">amxo/amxo.h</text>
</a>
</g>
</g>
<!-- Node2&#45;&gt;Node31 -->
<g id="edge30" class="edge">
<title>Node2&#45;&gt;Node31</title>
<path fill="none" stroke="midnightblue" d="M3264.88,-168.44C3283.72,-159.68 3313.23,-145.94 3334.88,-135.86"/>
<polygon fill="midnightblue" stroke="midnightblue" points="3336.62,-138.91 3344.21,-131.52 3333.66,-132.56 3336.62,-138.91"/>
</g>
<!-- Node32 -->
<g id="node32" class="node">
<title>Node32</title>
<g id="a_node32"><a xlink:title=" ">
<polygon fill="white" stroke="#bfbfbf" points="3422,-112.5 3422,-131.5 3537,-131.5 3537,-112.5 3422,-112.5"/>
<text text-anchor="middle" x="3479.5" y="-119.5" font-family="Helvetica,sans-Serif" font-size="10.00">amxo/amxo_types.h</text>
</a>
</g>
</g>
<!-- Node2&#45;&gt;Node32 -->
<g id="edge31" class="edge">
<title>Node2&#45;&gt;Node32</title>
<path fill="none" stroke="midnightblue" d="M3268,-172.02C3305.21,-163.39 3382.41,-145.5 3432.53,-133.89"/>
<polygon fill="midnightblue" stroke="midnightblue" points="3433.53,-137.25 3442.48,-131.58 3431.95,-130.43 3433.53,-137.25"/>
</g>
<!-- Node33 -->
<g id="node33" class="node">
<title>Node33</title>
<g id="a_node33"><a xlink:href="wld__types_8h.html" target="_top" xlink:title=" ">
<polygon fill="white" stroke="red" points="4129,-56.5 4129,-75.5 4204,-75.5 4204,-56.5 4129,-56.5"/>
<text text-anchor="middle" x="4166.5" y="-63.5" font-family="Helvetica,sans-Serif" font-size="10.00">wld_types.h</text>
</a>
</g>
</g>
<!-- Node2&#45;&gt;Node33 -->
<g id="edge32" class="edge">
<title>Node2&#45;&gt;Node33</title>
<path fill="none" stroke="midnightblue" d="M3268.12,-177.26C3381.51,-178.38 3908.31,-180.86 4062.5,-132 4079.94,-126.47 4120.85,-99.06 4145.85,-81.65"/>
<polygon fill="midnightblue" stroke="midnightblue" points="4148.09,-84.35 4154.26,-75.74 4144.07,-78.62 4148.09,-84.35"/>
</g>
<!-- Node34 -->
<g id="node34" class="node">
<title>Node34</title>
<g id="a_node34"><a xlink:title=" ">
<polygon fill="white" stroke="#bfbfbf" points="4037,-0.5 4037,-19.5 4182,-19.5 4182,-0.5 4037,-0.5"/>
<text text-anchor="middle" x="4109.5" y="-7.5" font-family="Helvetica,sans-Serif" font-size="10.00">swl/types/swl_arrayType.h</text>
</a>
</g>
</g>
<!-- Node2&#45;&gt;Node34 -->
<g id="edge60" class="edge">
<title>Node2&#45;&gt;Node34</title>
<path fill="none" stroke="midnightblue" d="M3268.27,-176.75C3366.83,-175.44 3771.68,-167.94 3892.5,-132 3897.73,-130.45 4030.2,-55.79 4085.55,-24.54"/>
<polygon fill="midnightblue" stroke="midnightblue" points="4087.35,-27.53 4094.34,-19.57 4083.91,-21.44 4087.35,-27.53"/>
</g>
<!-- Node36 -->
<g id="node35" class="node">
<title>Node36</title>
<g id="a_node35"><a xlink:href="wld__channel__types_8h.html" target="_top" xlink:title=" ">
<polygon fill="white" stroke="black" points="3764,-112.5 3764,-131.5 3883,-131.5 3883,-112.5 3764,-112.5"/>
<text text-anchor="middle" x="3823.5" y="-119.5" font-family="Helvetica,sans-Serif" font-size="10.00">wld_channel_types.h</text>
</a>
</g>
</g>
<!-- Node2&#45;&gt;Node36 -->
<g id="edge36" class="edge">
<title>Node2&#45;&gt;Node36</title>
<path fill="none" stroke="midnightblue" d="M3268.09,-175.32C3337.84,-169.82 3563.35,-151.64 3749.5,-132 3750.8,-131.86 3752.12,-131.72 3753.44,-131.58"/>
<polygon fill="midnightblue" stroke="midnightblue" points="3754.19,-135.02 3763.74,-130.43 3753.42,-128.06 3754.19,-135.02"/>
</g>
<!-- Node37 -->
<g id="node36" class="node">
<title>Node37</title>
<g id="a_node36"><a xlink:title=" ">
<polygon fill="white" stroke="#bfbfbf" points="3673,-56.5 3673,-75.5 3798,-75.5 3798,-56.5 3673,-56.5"/>
<text text-anchor="middle" x="3735.5" y="-63.5" font-family="Helvetica,sans-Serif" font-size="10.00">swla/swla_chanspec.h</text>
</a>
</g>
</g>
<!-- Node2&#45;&gt;Node37 -->
<g id="edge54" class="edge">
<title>Node2&#45;&gt;Node37</title>
<path fill="none" stroke="midnightblue" d="M3268.2,-176.33C3355.95,-173.46 3681.56,-160.89 3716.5,-132 3729.93,-120.9 3734.18,-100.86 3735.37,-85.96"/>
<polygon fill="midnightblue" stroke="midnightblue" points="3738.88,-85.93 3735.8,-75.8 3731.88,-85.64 3738.88,-85.93"/>
</g>
<!-- Node38 -->
<g id="node37" class="node">
<title>Node38</title>
<g id="a_node37"><a xlink:href="wld__bgdfs_8h.html" target="_top" xlink:title=" ">
<polygon fill="white" stroke="black" points="4214,-112.5 4214,-131.5 4289,-131.5 4289,-112.5 4214,-112.5"/>
<text text-anchor="middle" x="4251.5" y="-119.5" font-family="Helvetica,sans-Serif" font-size="10.00">wld_bgdfs.h</text>
</a>
</g>
</g>
<!-- Node2&#45;&gt;Node38 -->
<g id="edge40" class="edge">
<title>Node2&#45;&gt;Node38</title>
<path fill="none" stroke="midnightblue" d="M3268.18,-177.12C3371.42,-177.45 3823.6,-176.25 4203.77,-131.89"/>
<polygon fill="midnightblue" stroke="midnightblue" points="4204.34,-135.34 4213.86,-130.7 4203.52,-128.39 4204.34,-135.34"/>
</g>
<!-- Node39 -->
<g id="node38" class="node">
<title>Node39</title>
<g id="a_node38"><a xlink:href="wld__rad__delayMgr_8h.html" target="_top" xlink:title=" ">
<polygon fill="white" stroke="black" points="3939.5,-112.5 3939.5,-131.5 4053.5,-131.5 4053.5,-112.5 3939.5,-112.5"/>
<text text-anchor="middle" x="3996.5" y="-119.5" font-family="Helvetica,sans-Serif" font-size="10.00">wld_rad_delayMgr.h</text>
</a>
</g>
</g>
<!-- Node2&#45;&gt;Node39 -->
<g id="edge42" class="edge">
<title>Node2&#45;&gt;Node39</title>
<path fill="none" stroke="midnightblue" d="M3268.27,-175.87C3352.3,-171.76 3661.91,-156.55 3916.5,-132 3920.6,-131.6 3924.84,-131.16 3929.12,-130.69"/>
<polygon fill="midnightblue" stroke="midnightblue" points="3929.61,-134.15 3939.15,-129.54 3928.82,-127.2 3929.61,-134.15"/>
</g>
<!-- Node40 -->
<g id="node39" class="node">
<title>Node40</title>
<g id="a_node39"><a xlink:href="wld__fsm_8h.html" target="_top" xlink:title=" ">
<polygon fill="white" stroke="black" points="4501,-112.5 4501,-131.5 4568,-131.5 4568,-112.5 4501,-112.5"/>
<text text-anchor="middle" x="4534.5" y="-119.5" font-family="Helvetica,sans-Serif" font-size="10.00">wld_fsm.h</text>
</a>
</g>
</g>
<!-- Node2&#45;&gt;Node40 -->
<g id="edge44" class="edge">
<title>Node2&#45;&gt;Node40</title>
<path fill="none" stroke="midnightblue" d="M3268.32,-176.72C3411.6,-174.8 4220.2,-162.81 4490.63,-131.83"/>
<polygon fill="midnightblue" stroke="midnightblue" points="4491.27,-135.27 4500.79,-130.62 4490.45,-128.32 4491.27,-135.27"/>
</g>
<!-- Node41 -->
<g id="node40" class="node">
<title>Node41</title>
<g id="a_node40"><a xlink:href="wld__sensing_8h.html" target="_top" xlink:title=" ">
<polygon fill="white" stroke="black" points="4109.5,-112.5 4109.5,-131.5 4195.5,-131.5 4195.5,-112.5 4109.5,-112.5"/>
<text text-anchor="middle" x="4152.5" y="-119.5" font-family="Helvetica,sans-Serif" font-size="10.00">wld_sensing.h</text>
</a>
</g>
</g>
<!-- Node2&#45;&gt;Node41 -->
<g id="edge46" class="edge">
<title>Node2&#45;&gt;Node41</title>
<path fill="none" stroke="midnightblue" d="M3268.04,-176.63C3364.17,-174.88 3761.72,-166.15 4086.5,-132 4090.65,-131.56 4094.95,-131.03 4099.29,-130.45"/>
<polygon fill="midnightblue" stroke="midnightblue" points="4100.02,-133.88 4109.43,-129 4099.04,-126.95 4100.02,-133.88"/>
</g>
<!-- Node42 -->
<g id="node41" class="node">
<title>Node42</title>
<g id="a_node41"><a xlink:href="wld__mld_8h.html" target="_top" xlink:title=" ">
<polygon fill="white" stroke="black" points="5227,-112.5 5227,-131.5 5294,-131.5 5294,-112.5 5227,-112.5"/>
<text text-anchor="middle" x="5260.5" y="-119.5" font-family="Helvetica,sans-Serif" font-size="10.00">wld_mld.h</text>
</a>
</g>
</g>
<!-- Node2&#45;&gt;Node42 -->
<g id="edge48" class="edge">
<title>Node2&#45;&gt;Node42</title>
<path fill="none" stroke="midnightblue" d="M3268.06,-177.05C3454.09,-177.44 4790.86,-178.57 5216.6,-131.81"/>
<polygon fill="midnightblue" stroke="midnightblue" points="5217.25,-135.26 5226.79,-130.66 5216.47,-128.31 5217.25,-135.26"/>
</g>
<!-- Node43 -->
<g id="node42" class="node">
<title>Node43</title>
<g id="a_node42"><a xlink:href="wld__autoCommitRadData_8h.html" target="_top" xlink:title=" ">
<polygon fill="white" stroke="black" points="4306.5,-112.5 4306.5,-131.5 4482.5,-131.5 4482.5,-112.5 4306.5,-112.5"/>
<text text-anchor="middle" x="4394.5" y="-119.5" font-family="Helvetica,sans-Serif" font-size="10.00">Utils/wld_autoCommitRadData.h</text>
</a>
</g>
</g>
<!-- Node2&#45;&gt;Node43 -->
<g id="edge50" class="edge">
<title>Node2&#45;&gt;Node43</title>
<path fill="none" stroke="midnightblue" d="M3268,-176.49C3376.66,-173.8 3876.35,-160.46 4296.15,-132.13"/>
<polygon fill="midnightblue" stroke="midnightblue" points="4296.63,-135.61 4306.37,-131.44 4296.15,-128.62 4296.63,-135.61"/>
</g>
<!-- Node44 -->
<g id="node43" class="node">
<title>Node44</title>
<g id="a_node43"><a xlink:href="wld__dmnMgt_8h.html" target="_top" xlink:title=" ">
<polygon fill="white" stroke="red" points="3593.5,-112.5 3593.5,-131.5 3707.5,-131.5 3707.5,-112.5 3593.5,-112.5"/>
<text text-anchor="middle" x="3650.5" y="-119.5" font-family="Helvetica,sans-Serif" font-size="10.00">Utils/wld_dmnMgt.h</text>
</a>
</g>
</g>
<!-- Node2&#45;&gt;Node44 -->
<g id="edge51" class="edge">
<title>Node2&#45;&gt;Node44</title>
<path fill="none" stroke="midnightblue" d="M3268.22,-174.1C3326.83,-166.26 3490.05,-144.45 3583.16,-132"/>
<polygon fill="midnightblue" stroke="midnightblue" points="3583.88,-135.44 3593.33,-130.64 3582.95,-128.5 3583.88,-135.44"/>
</g>
<!-- Node46 -->
<g id="node44" class="node">
<title>Node46</title>
<g id="a_node44"><a xlink:title=" ">
<polygon fill="white" stroke="#bfbfbf" points="4586,-112.5 4586,-131.5 4687,-131.5 4687,-112.5 4586,-112.5"/>
<text text-anchor="middle" x="4636.5" y="-119.5" font-family="Helvetica,sans-Serif" font-size="10.00">swl/swl_staCap.h</text>
</a>
</g>
</g>
<!-- Node2&#45;&gt;Node46 -->
<g id="edge55" class="edge">
<title>Node2&#45;&gt;Node46</title>
<path fill="none" stroke="midnightblue" d="M3268.1,-177.22C3393.36,-178.3 4039.15,-181.18 4575.43,-132.08"/>
<polygon fill="midnightblue" stroke="midnightblue" points="4576.06,-135.54 4585.7,-131.14 4575.42,-128.57 4576.06,-135.54"/>
</g>
<!-- Node47 -->
<g id="node45" class="node">
<title>Node47</title>
<g id="a_node45"><a xlink:title=" ">
<polygon fill="white" stroke="#bfbfbf" points="4705.5,-112.5 4705.5,-131.5 4809.5,-131.5 4809.5,-112.5 4705.5,-112.5"/>
<text text-anchor="middle" x="4757.5" y="-119.5" font-family="Helvetica,sans-Serif" font-size="10.00">swla/swla_table.h</text>
</a>
</g>
</g>
<!-- Node2&#45;&gt;Node47 -->
<g id="edge56" class="edge">
<title>Node2&#45;&gt;Node47</title>
<path fill="none" stroke="midnightblue" d="M3268.22,-176.67C3424.58,-174.25 4380.87,-158.57 4695.29,-131.98"/>
<polygon fill="midnightblue" stroke="midnightblue" points="4695.64,-135.46 4705.3,-131.11 4695.04,-128.48 4695.64,-135.46"/>
</g>
<!-- Node48 -->
<g id="node46" class="node">
<title>Node48</title>
<g id="a_node46"><a xlink:title=" ">
<polygon fill="white" stroke="#bfbfbf" points="4828,-112.5 4828,-131.5 4925,-131.5 4925,-112.5 4828,-112.5"/>
<text text-anchor="middle" x="4876.5" y="-119.5" font-family="Helvetica,sans-Serif" font-size="10.00">swl/swl_assert.h</text>
</a>
</g>
</g>
<!-- Node2&#45;&gt;Node48 -->
<g id="edge57" class="edge">
<title>Node2&#45;&gt;Node48</title>
<path fill="none" stroke="midnightblue" d="M3268.17,-176.75C3431.87,-174.84 4476.62,-161.62 4817.69,-131.91"/>
<polygon fill="midnightblue" stroke="midnightblue" points="4818.17,-135.38 4827.82,-131.01 4817.55,-128.41 4818.17,-135.38"/>
</g>
<!-- Node49 -->
<g id="node47" class="node">
<title>Node49</title>
<g id="a_node47"><a xlink:title=" ">
<polygon fill="white" stroke="#bfbfbf" points="4943,-112.5 4943,-131.5 5064,-131.5 5064,-112.5 4943,-112.5"/>
<text text-anchor="middle" x="5003.5" y="-119.5" font-family="Helvetica,sans-Serif" font-size="10.00">swl/swl_returnCode.h</text>
</a>
</g>
</g>
<!-- Node2&#45;&gt;Node49 -->
<g id="edge58" class="edge">
<title>Node2&#45;&gt;Node49</title>
<path fill="none" stroke="midnightblue" d="M3268.1,-176.73C3438.4,-174.57 4567.48,-159.37 4932.89,-132.03"/>
<polygon fill="midnightblue" stroke="midnightblue" points="4933.25,-135.51 4942.95,-131.26 4932.72,-128.53 4933.25,-135.51"/>
</g>
<!-- Node50 -->
<g id="node48" class="node">
<title>Node50</title>
<g id="a_node48"><a xlink:title=" ">
<polygon fill="white" stroke="#bfbfbf" points="5082.5,-112.5 5082.5,-131.5 5208.5,-131.5 5208.5,-112.5 5082.5,-112.5"/>
<text text-anchor="middle" x="5145.5" y="-119.5" font-family="Helvetica,sans-Serif" font-size="10.00">swla/swla_tupleType.h</text>
</a>
</g>
</g>
<!-- Node2&#45;&gt;Node50 -->
<g id="edge59" class="edge">
<title>Node2&#45;&gt;Node50</title>
<path fill="none" stroke="midnightblue" d="M3268.14,-176.77C3446.49,-174.79 4676.69,-160.28 5072.28,-131.99"/>
<polygon fill="midnightblue" stroke="midnightblue" points="5072.6,-135.48 5082.32,-131.26 5072.09,-128.5 5072.6,-135.48"/>
</g>
<!-- Node2&#45;&gt;Node74 -->
<g id="edge61" class="edge">
<title>Node2&#45;&gt;Node74</title>
<path fill="none" stroke="midnightblue" d="M3224.95,-173.27C3212.57,-171.3 3196.71,-169.08 3182.5,-168 2499.3,-116.19 782.23,-189.58 99.5,-132 98.03,-131.88 96.55,-131.74 95.05,-131.58"/>
<polygon fill="midnightblue" stroke="midnightblue" points="95.4,-128.1 85.06,-130.41 94.58,-135.05 95.4,-128.1"/>
</g>
<!-- Node33&#45;&gt;Node4 -->
<g id="edge33" class="edge">
<title>Node33&#45;&gt;Node4</title>
<path fill="none" stroke="midnightblue" d="M4204.21,-63.29C4383.29,-55.2 5146.59,-20.67 5323.7,-12.66"/>
<polygon fill="midnightblue" stroke="midnightblue" points="5323.98,-16.16 5333.81,-12.21 5323.66,-9.16 5323.98,-16.16"/>
</g>
<!-- Node33&#45;&gt;Node9 -->
<g id="edge35" class="edge">
<title>Node33&#45;&gt;Node9</title>
<path fill="none" stroke="midnightblue" d="M4128.81,-59.01C4070.31,-49.72 3957.1,-31.74 3887.04,-20.62"/>
<polygon fill="midnightblue" stroke="midnightblue" points="3887.46,-17.14 3877.03,-19.03 3886.36,-24.05 3887.46,-17.14"/>
</g>
<!-- Node33&#45;&gt;Node34 -->
<g id="edge34" class="edge">
<title>Node33&#45;&gt;Node34</title>
<path fill="none" stroke="midnightblue" d="M4157.34,-56.32C4149,-48.42 4136.47,-36.55 4126.32,-26.94"/>
<polygon fill="midnightblue" stroke="midnightblue" points="4128.49,-24.17 4118.82,-19.83 4123.68,-29.25 4128.49,-24.17"/>
</g>
<!-- Node36&#45;&gt;Node3 -->
<g id="edge37" class="edge">
<title>Node36&#45;&gt;Node3</title>
<path fill="none" stroke="midnightblue" d="M3883.18,-115.68C3898.59,-114.39 3915.16,-113.07 3930.5,-112 4222.57,-91.55 4574.85,-74.44 4693.36,-68.9"/>
<polygon fill="midnightblue" stroke="midnightblue" points="4693.61,-72.39 4703.44,-68.42 4693.29,-65.39 4693.61,-72.39"/>
</g>
<!-- Node36&#45;&gt;Node9 -->
<g id="edge39" class="edge">
<title>Node36&#45;&gt;Node9</title>
<path fill="none" stroke="midnightblue" d="M3823.74,-112.37C3824.22,-94.62 3825.34,-53.67 3825.99,-29.6"/>
<polygon fill="midnightblue" stroke="midnightblue" points="3829.49,-29.68 3826.27,-19.59 3822.49,-29.49 3829.49,-29.68"/>
</g>
<!-- Node36&#45;&gt;Node37 -->
<g id="edge38" class="edge">
<title>Node36&#45;&gt;Node37</title>
<path fill="none" stroke="midnightblue" d="M3809.36,-112.32C3795.63,-103.9 3774.56,-90.97 3758.44,-81.07"/>
<polygon fill="midnightblue" stroke="midnightblue" points="3759.96,-77.9 3749.6,-75.65 3756.3,-83.87 3759.96,-77.9"/>
</g>
<!-- Node38&#45;&gt;Node33 -->
<g id="edge41" class="edge">
<title>Node38&#45;&gt;Node33</title>
<path fill="none" stroke="midnightblue" d="M4237.84,-112.32C4224.58,-103.9 4204.23,-90.97 4188.65,-81.07"/>
<polygon fill="midnightblue" stroke="midnightblue" points="4190.44,-78.06 4180.12,-75.65 4186.69,-83.97 4190.44,-78.06"/>
</g>
<!-- Node39&#45;&gt;Node2 -->
<g id="edge43" class="edge">
<title>Node39&#45;&gt;Node2</title>
<path fill="none" stroke="midnightblue" d="M3939.38,-131.51C3937.74,-131.68 3936.11,-131.84 3934.5,-132 3682.59,-156.29 3376.82,-171.44 3278.45,-175.74"/>
<polygon fill="midnightblue" stroke="midnightblue" points="3278.12,-172.25 3268.28,-176.17 3278.42,-179.24 3278.12,-172.25"/>
</g>
<!-- Node40&#45;&gt;Node33 -->
<g id="edge45" class="edge">
<title>Node40&#45;&gt;Node33</title>
<path fill="none" stroke="midnightblue" d="M4500.74,-113.71C4497.62,-113.1 4494.51,-112.52 4491.5,-112 4393.42,-94.97 4277.78,-80.22 4214.27,-72.57"/>
<polygon fill="midnightblue" stroke="midnightblue" points="4214.51,-69.07 4204.16,-71.36 4213.68,-76.03 4214.51,-69.07"/>
</g>
<!-- Node41&#45;&gt;Node2 -->
<g id="edge47" class="edge">
<title>Node41&#45;&gt;Node2</title>
<path fill="none" stroke="midnightblue" d="M4109.34,-131.46C4107.71,-131.65 4106.09,-131.83 4104.5,-132 3783.47,-165.76 3391.34,-174.68 3278.27,-176.56"/>
<polygon fill="midnightblue" stroke="midnightblue" points="3278.15,-173.06 3268.21,-176.72 3278.26,-180.06 3278.15,-173.06"/>
</g>
<!-- Node42&#45;&gt;Node33 -->
<g id="edge49" class="edge">
<title>Node42&#45;&gt;Node33</title>
<path fill="none" stroke="midnightblue" d="M5226.79,-113.4C5223.66,-112.86 5220.53,-112.38 5217.5,-112 5019.28,-87.18 4392.33,-71.92 4214.15,-68"/>
<polygon fill="midnightblue" stroke="midnightblue" points="4214.12,-64.5 4204.04,-67.78 4213.96,-71.5 4214.12,-64.5"/>
</g>
<!-- Node44&#45;&gt;Node5 -->
<g id="edge52" class="edge">
<title>Node44&#45;&gt;Node5</title>
<path fill="none" stroke="midnightblue" d="M3636.84,-112.32C3623.58,-103.9 3603.23,-90.97 3587.65,-81.07"/>
<polygon fill="midnightblue" stroke="midnightblue" points="3589.44,-78.06 3579.12,-75.65 3585.69,-83.97 3589.44,-78.06"/>
</g>
<!-- Node44&#45;&gt;Node33 -->
<g id="edge53" class="edge">
<title>Node44&#45;&gt;Node33</title>
<path fill="none" stroke="midnightblue" d="M3707.69,-115.01C3810.12,-104.3 4023.07,-82.01 4118.46,-72.03"/>
<polygon fill="midnightblue" stroke="midnightblue" points="4119.1,-75.48 4128.68,-70.96 4118.37,-68.52 4119.1,-75.48"/>
</g>
<!-- Node74&#45;&gt;Node5 -->
<g id="edge63" class="edge">
<title>Node74&#45;&gt;Node5</title>
<path fill="none" stroke="midnightblue" d="M85.02,-115.99C100,-114.42 116.98,-112.88 132.5,-112 823.57,-72.99 3086.26,-67.72 3500.18,-67.08"/>
<polygon fill="midnightblue" stroke="midnightblue" points="3500.47,-70.58 3510.46,-67.07 3500.46,-63.58 3500.47,-70.58"/>
</g>
<!-- Node74&#45;&gt;Node17 -->
<g id="edge62" class="edge">
<title>Node74&#45;&gt;Node17</title>
<path fill="none" stroke="midnightblue" d="M48.44,-112.08C53.48,-104.53 60.84,-93.49 67.01,-84.23"/>
<polygon fill="midnightblue" stroke="midnightblue" points="70.03,-86.01 72.67,-75.75 64.21,-82.13 70.03,-86.01"/>
</g>
<!-- Node75&#45;&gt;Node2 -->
<g id="edge66" class="edge">
<title>Node75&#45;&gt;Node2</title>
<path fill="none" stroke="midnightblue" d="M3269.88,-224.08C3266.04,-216.69 3260.48,-205.95 3255.74,-196.81"/>
<polygon fill="midnightblue" stroke="midnightblue" points="3258.75,-195.02 3251.04,-187.75 3252.53,-198.24 3258.75,-195.02"/>
</g>
<!-- Node75&#45;&gt;Node4 -->
<g id="edge65" class="edge">
<title>Node75&#45;&gt;Node4</title>
<path fill="none" stroke="midnightblue" d="M3308.66,-232.8C3585.45,-231.04 5453.12,-216.05 5533.5,-132 5582.07,-81.21 5460.83,-38.62 5396.91,-20.44"/>
<polygon fill="midnightblue" stroke="midnightblue" points="5397.75,-17.04 5387.18,-17.74 5395.87,-23.79 5397.75,-17.04"/>
</g>
</g>
</svg>
