<?xml version="1.0" encoding="UTF-8" standalone="no"?>
<!DOCTYPE svg PUBLIC "-//W3C//DTD SVG 1.1//EN"
 "http://www.w3.org/Graphics/SVG/1.1/DTD/svg11.dtd">
<!-- Generated by graphviz version 2.43.0 (0)
 -->
<!-- Title: src/wld_assocdev.c Pages: 1 -->
<svg width="4147pt" height="252pt"
 viewBox="0.00 0.00 4146.50 252.00" xmlns="http://www.w3.org/2000/svg" xmlns:xlink="http://www.w3.org/1999/xlink">
<g id="graph0" class="graph" transform="scale(1 1) rotate(0) translate(4 248)">
<title>src/wld_assocdev.c</title>
<polygon fill="white" stroke="transparent" points="-4,4 -4,-248 4142.5,-248 4142.5,4 -4,4"/>
<!-- Node1 -->
<g id="node1" class="node">
<title>Node1</title>
<g id="a_node1"><a xlink:title=" ">
<polygon fill="#bfbfbf" stroke="black" points="1309.5,-224.5 1309.5,-243.5 1419.5,-243.5 1419.5,-224.5 1309.5,-224.5"/>
<text text-anchor="middle" x="1364.5" y="-231.5" font-family="Helvetica,sans-Serif" font-size="10.00">src/wld_assocdev.c</text>
</a>
</g>
</g>
<!-- Node2 -->
<g id="node2" class="node">
<title>Node2</title>
<g id="a_node2"><a xlink:title=" ">
<polygon fill="white" stroke="#bfbfbf" points="538.5,-168.5 538.5,-187.5 588.5,-187.5 588.5,-168.5 538.5,-168.5"/>
<text text-anchor="middle" x="563.5" y="-175.5" font-family="Helvetica,sans-Serif" font-size="10.00">stdio.h</text>
</a>
</g>
</g>
<!-- Node1&#45;&gt;Node2 -->
<g id="edge1" class="edge">
<title>Node1&#45;&gt;Node2</title>
<path fill="none" stroke="midnightblue" d="M1309.22,-233.53C1184.04,-233.92 869.39,-230.35 598.65,-187.85"/>
<polygon fill="midnightblue" stroke="midnightblue" points="599.06,-184.37 588.63,-186.25 597.96,-191.28 599.06,-184.37"/>
</g>
<!-- Node3 -->
<g id="node3" class="node">
<title>Node3</title>
<g id="a_node3"><a xlink:title=" ">
<polygon fill="white" stroke="#bfbfbf" points="607,-168.5 607,-187.5 660,-187.5 660,-168.5 607,-168.5"/>
<text text-anchor="middle" x="633.5" y="-175.5" font-family="Helvetica,sans-Serif" font-size="10.00">stdlib.h</text>
</a>
</g>
</g>
<!-- Node1&#45;&gt;Node3 -->
<g id="edge2" class="edge">
<title>Node1&#45;&gt;Node3</title>
<path fill="none" stroke="midnightblue" d="M1309.07,-232.92C1192.3,-232.01 912.45,-225.83 670.2,-187.99"/>
<polygon fill="midnightblue" stroke="midnightblue" points="670.57,-184.51 660.14,-186.4 669.47,-191.42 670.57,-184.51"/>
</g>
<!-- Node4 -->
<g id="node4" class="node">
<title>Node4</title>
<g id="a_node4"><a xlink:title=" ">
<polygon fill="white" stroke="#bfbfbf" points="678,-168.5 678,-187.5 731,-187.5 731,-168.5 678,-168.5"/>
<text text-anchor="middle" x="704.5" y="-175.5" font-family="Helvetica,sans-Serif" font-size="10.00">string.h</text>
</a>
</g>
</g>
<!-- Node1&#45;&gt;Node4 -->
<g id="edge3" class="edge">
<title>Node1&#45;&gt;Node4</title>
<path fill="none" stroke="midnightblue" d="M1309.35,-232.35C1201.62,-230.36 955.65,-222.29 741.02,-187.98"/>
<polygon fill="midnightblue" stroke="midnightblue" points="741.58,-184.52 731.15,-186.38 740.46,-191.43 741.58,-184.52"/>
</g>
<!-- Node5 -->
<g id="node5" class="node">
<title>Node5</title>
<g id="a_node5"><a xlink:title=" ">
<polygon fill="white" stroke="#bfbfbf" points="749,-168.5 749,-187.5 850,-187.5 850,-168.5 749,-168.5"/>
<text text-anchor="middle" x="799.5" y="-175.5" font-family="Helvetica,sans-Serif" font-size="10.00">debug/sahtrace.h</text>
</a>
</g>
</g>
<!-- Node1&#45;&gt;Node5 -->
<g id="edge4" class="edge">
<title>Node1&#45;&gt;Node5</title>
<path fill="none" stroke="midnightblue" d="M1309.46,-229.18C1218.36,-222.63 1030.25,-208.08 860.34,-188.03"/>
<polygon fill="midnightblue" stroke="midnightblue" points="860.55,-184.53 850.21,-186.83 859.73,-191.48 860.55,-184.53"/>
</g>
<!-- Node6 -->
<g id="node6" class="node">
<title>Node6</title>
<g id="a_node6"><a xlink:title=" ">
<polygon fill="white" stroke="#bfbfbf" points="868.5,-168.5 868.5,-187.5 924.5,-187.5 924.5,-168.5 868.5,-168.5"/>
<text text-anchor="middle" x="896.5" y="-175.5" font-family="Helvetica,sans-Serif" font-size="10.00">assert.h</text>
</a>
</g>
</g>
<!-- Node1&#45;&gt;Node6 -->
<g id="edge5" class="edge">
<title>Node1&#45;&gt;Node6</title>
<path fill="none" stroke="midnightblue" d="M1309.41,-229.63C1229.06,-224.19 1074.93,-211.78 934.77,-188.01"/>
<polygon fill="midnightblue" stroke="midnightblue" points="935.15,-184.52 924.7,-186.27 933.96,-191.42 935.15,-184.52"/>
</g>
<!-- Node7 -->
<g id="node7" class="node">
<title>Node7</title>
<g id="a_node7"><a xlink:title=" ">
<polygon fill="white" stroke="#bfbfbf" points="942.5,-168.5 942.5,-187.5 992.5,-187.5 992.5,-168.5 942.5,-168.5"/>
<text text-anchor="middle" x="967.5" y="-175.5" font-family="Helvetica,sans-Serif" font-size="10.00">net/if.h</text>
</a>
</g>
</g>
<!-- Node1&#45;&gt;Node7 -->
<g id="edge6" class="edge">
<title>Node1&#45;&gt;Node7</title>
<path fill="none" stroke="midnightblue" d="M1309.4,-228.51C1239.98,-222.33 1116.89,-209.67 1002.63,-187.99"/>
<polygon fill="midnightblue" stroke="midnightblue" points="1003.14,-184.52 992.66,-186.07 1001.82,-191.39 1003.14,-184.52"/>
</g>
<!-- Node8 -->
<g id="node8" class="node">
<title>Node8</title>
<g id="a_node8"><a xlink:title=" ">
<polygon fill="white" stroke="#bfbfbf" points="1010.5,-168.5 1010.5,-187.5 1076.5,-187.5 1076.5,-168.5 1010.5,-168.5"/>
<text text-anchor="middle" x="1043.5" y="-175.5" font-family="Helvetica,sans-Serif" font-size="10.00">sys/ioctl.h</text>
</a>
</g>
</g>
<!-- Node1&#45;&gt;Node8 -->
<g id="edge7" class="edge">
<title>Node1&#45;&gt;Node8</title>
<path fill="none" stroke="midnightblue" d="M1309.3,-224.95C1255.06,-216.85 1169.7,-203.58 1086.78,-188.17"/>
<polygon fill="midnightblue" stroke="midnightblue" points="1087.41,-184.73 1076.94,-186.33 1086.13,-191.61 1087.41,-184.73"/>
</g>
<!-- Node9 -->
<g id="node9" class="node">
<title>Node9</title>
<g id="a_node9"><a xlink:title=" ">
<polygon fill="white" stroke="#bfbfbf" points="1095,-168.5 1095,-187.5 1146,-187.5 1146,-168.5 1095,-168.5"/>
<text text-anchor="middle" x="1120.5" y="-175.5" font-family="Helvetica,sans-Serif" font-size="10.00">math.h</text>
</a>
</g>
</g>
<!-- Node1&#45;&gt;Node9 -->
<g id="edge8" class="edge">
<title>Node1&#45;&gt;Node9</title>
<path fill="none" stroke="midnightblue" d="M1325.38,-224.42C1284.31,-215.4 1217.85,-200.78 1160.5,-188 1159.07,-187.68 1157.61,-187.35 1156.13,-187.02"/>
<polygon fill="midnightblue" stroke="midnightblue" points="1156.84,-183.6 1146.32,-184.83 1155.31,-190.43 1156.84,-183.6"/>
</g>
<!-- Node10 -->
<g id="node10" class="node">
<title>Node10</title>
<g id="a_node10"><a xlink:href="wld_8h.html" target="_top" xlink:title=" ">
<polygon fill="white" stroke="red" points="1866,-112.5 1866,-131.5 1909,-131.5 1909,-112.5 1866,-112.5"/>
<text text-anchor="middle" x="1887.5" y="-119.5" font-family="Helvetica,sans-Serif" font-size="10.00">wld.h</text>
</a>
</g>
</g>
<!-- Node1&#45;&gt;Node10 -->
<g id="edge9" class="edge">
<title>Node1&#45;&gt;Node10</title>
<path fill="none" stroke="midnightblue" d="M1419.73,-232.58C1551.69,-231.01 1876.78,-223.53 1909.5,-188 1921.8,-174.65 1911.66,-154.16 1901.44,-139.76"/>
<polygon fill="midnightblue" stroke="midnightblue" points="1904.13,-137.51 1895.27,-131.71 1898.57,-141.77 1904.13,-137.51"/>
</g>
<!-- Node19 -->
<g id="node19" class="node">
<title>Node19</title>
<g id="a_node19"><a xlink:title=" ">
<polygon fill="white" stroke="#bfbfbf" points="3672.5,-56.5 3672.5,-75.5 3766.5,-75.5 3766.5,-56.5 3672.5,-56.5"/>
<text text-anchor="middle" x="3719.5" y="-63.5" font-family="Helvetica,sans-Serif" font-size="10.00">swla/swla_oui.h</text>
</a>
</g>
</g>
<!-- Node1&#45;&gt;Node19 -->
<g id="edge60" class="edge">
<title>Node1&#45;&gt;Node19</title>
<path fill="none" stroke="midnightblue" d="M1419.85,-231.14C1534.11,-226.87 1804.27,-214.66 2029.5,-188 2230.06,-164.26 2276.54,-132 2477.5,-112 2998.93,-60.11 3136.77,-125.11 3662.08,-76"/>
<polygon fill="midnightblue" stroke="midnightblue" points="3662.57,-79.47 3672.2,-75.04 3661.91,-72.5 3662.57,-79.47"/>
</g>
<!-- Node56 -->
<g id="node39" class="node">
<title>Node56</title>
<g id="a_node39"><a xlink:title=" ">
<polygon fill="white" stroke="#bfbfbf" points="3897,-56.5 3897,-75.5 3994,-75.5 3994,-56.5 3897,-56.5"/>
<text text-anchor="middle" x="3945.5" y="-63.5" font-family="Helvetica,sans-Serif" font-size="10.00">swl/swl_assert.h</text>
</a>
</g>
</g>
<!-- Node1&#45;&gt;Node56 -->
<g id="edge58" class="edge">
<title>Node1&#45;&gt;Node56</title>
<path fill="none" stroke="midnightblue" d="M1419.96,-229.69C1543.46,-222.3 1850.5,-203.87 2107.5,-188 2895.29,-139.36 3097.75,-161.56 3886.62,-75.99"/>
<polygon fill="midnightblue" stroke="midnightblue" points="3887.25,-79.45 3896.81,-74.88 3886.49,-72.49 3887.25,-79.45"/>
</g>
<!-- Node58 -->
<g id="node40" class="node">
<title>Node58</title>
<g id="a_node40"><a xlink:title=" ">
<polygon fill="white" stroke="#bfbfbf" points="4012.5,-56.5 4012.5,-75.5 4138.5,-75.5 4138.5,-56.5 4012.5,-56.5"/>
<text text-anchor="middle" x="4075.5" y="-63.5" font-family="Helvetica,sans-Serif" font-size="10.00">swla/swla_tupleType.h</text>
</a>
</g>
</g>
<!-- Node1&#45;&gt;Node58 -->
<g id="edge59" class="edge">
<title>Node1&#45;&gt;Node58</title>
<path fill="none" stroke="midnightblue" d="M1419.57,-230.79C1650.54,-221.41 2563.89,-182.93 3313.5,-132 3617.17,-111.37 3695.76,-107.61 4002.24,-76.09"/>
<polygon fill="midnightblue" stroke="midnightblue" points="4002.71,-79.56 4012.3,-75.06 4002,-72.6 4002.71,-79.56"/>
</g>
<!-- Node63 -->
<g id="node41" class="node">
<title>Node63</title>
<g id="a_node41"><a xlink:href="wld__dm__trans_8h.html" target="_top" xlink:title=" ">
<polygon fill="white" stroke="red" points="3784.5,-56.5 3784.5,-75.5 3878.5,-75.5 3878.5,-56.5 3784.5,-56.5"/>
<text text-anchor="middle" x="3831.5" y="-63.5" font-family="Helvetica,sans-Serif" font-size="10.00">wld_dm_trans.h</text>
</a>
</g>
</g>
<!-- Node1&#45;&gt;Node63 -->
<g id="edge65" class="edge">
<title>Node1&#45;&gt;Node63</title>
<path fill="none" stroke="midnightblue" d="M1419.5,-229.79C1542.7,-222.58 1850.21,-204.43 2107.5,-188 2845.64,-140.87 3035.54,-159.75 3774.4,-76.02"/>
<polygon fill="midnightblue" stroke="midnightblue" points="3774.95,-79.48 3784.49,-74.88 3774.16,-72.53 3774.95,-79.48"/>
</g>
<!-- Node82 -->
<g id="node42" class="node">
<title>Node82</title>
<g id="a_node42"><a xlink:href="wld__extMod_8h.html" target="_top" xlink:title=" ">
<polygon fill="white" stroke="black" points="0,-56.5 0,-75.5 85,-75.5 85,-56.5 0,-56.5"/>
<text text-anchor="middle" x="42.5" y="-63.5" font-family="Helvetica,sans-Serif" font-size="10.00">wld_extMod.h</text>
</a>
</g>
</g>
<!-- Node1&#45;&gt;Node82 -->
<g id="edge74" class="edge">
<title>Node1&#45;&gt;Node82</title>
<path fill="none" stroke="midnightblue" d="M1321.89,-224.48C1286.8,-216.83 1236.07,-204.3 1193.5,-188 1175.31,-181.04 1173.28,-173.18 1154.5,-168 916.66,-102.34 846.24,-154.16 600.5,-132 384.39,-112.51 330.96,-101.72 115.5,-76 109.09,-75.24 102.37,-74.42 95.71,-73.61"/>
<polygon fill="midnightblue" stroke="midnightblue" points="95.69,-70.08 85.34,-72.34 94.84,-77.03 95.69,-70.08"/>
</g>
<!-- Node83 -->
<g id="node43" class="node">
<title>Node83</title>
<g id="a_node43"><a xlink:href="wld__util_8h.html" target="_top" xlink:title=" ">
<polygon fill="white" stroke="black" points="1956.5,-168.5 1956.5,-187.5 2020.5,-187.5 2020.5,-168.5 1956.5,-168.5"/>
<text text-anchor="middle" x="1988.5" y="-175.5" font-family="Helvetica,sans-Serif" font-size="10.00">wld_util.h</text>
</a>
</g>
</g>
<!-- Node1&#45;&gt;Node83 -->
<g id="edge45" class="edge">
<title>Node1&#45;&gt;Node83</title>
<path fill="none" stroke="midnightblue" d="M1419.72,-230.83C1522.83,-226.3 1751.52,-214.03 1942.5,-188 1943.77,-187.83 1945.06,-187.64 1946.36,-187.44"/>
<polygon fill="midnightblue" stroke="midnightblue" points="1947.12,-190.87 1956.41,-185.77 1945.97,-183.96 1947.12,-190.87"/>
</g>
<!-- Node84 -->
<g id="node44" class="node">
<title>Node84</title>
<g id="a_node44"><a xlink:href="wld__accesspoint_8h.html" target="_top" xlink:title=" ">
<polygon fill="white" stroke="red" points="1352.5,-168.5 1352.5,-187.5 1458.5,-187.5 1458.5,-168.5 1352.5,-168.5"/>
<text text-anchor="middle" x="1405.5" y="-175.5" font-family="Helvetica,sans-Serif" font-size="10.00">wld_accesspoint.h</text>
</a>
</g>
</g>
<!-- Node1&#45;&gt;Node84 -->
<g id="edge47" class="edge">
<title>Node1&#45;&gt;Node84</title>
<path fill="none" stroke="midnightblue" d="M1371.27,-224.08C1377.06,-216.46 1385.56,-205.26 1392.64,-195.94"/>
<polygon fill="midnightblue" stroke="midnightblue" points="1395.6,-197.83 1398.86,-187.75 1390.02,-193.6 1395.6,-197.83"/>
</g>
<!-- Node86 -->
<g id="node45" class="node">
<title>Node86</title>
<g id="a_node45"><a xlink:href="wld__ssid_8h.html" target="_top" xlink:title=" ">
<polygon fill="white" stroke="black" points="1568.5,-168.5 1568.5,-187.5 1636.5,-187.5 1636.5,-168.5 1568.5,-168.5"/>
<text text-anchor="middle" x="1602.5" y="-175.5" font-family="Helvetica,sans-Serif" font-size="10.00">wld_ssid.h</text>
</a>
</g>
</g>
<!-- Node1&#45;&gt;Node86 -->
<g id="edge50" class="edge">
<title>Node1&#45;&gt;Node86</title>
<path fill="none" stroke="midnightblue" d="M1402.21,-224.44C1444.65,-214.81 1513.51,-199.19 1558.4,-189"/>
<polygon fill="midnightblue" stroke="midnightblue" points="1559.46,-192.36 1568.44,-186.73 1557.91,-185.53 1559.46,-192.36"/>
</g>
<!-- Node87 -->
<g id="node46" class="node">
<title>Node87</title>
<g id="a_node46"><a xlink:href="wld__radio_8h.html" target="_top" xlink:title=" ">
<polygon fill="white" stroke="red" points="1477,-168.5 1477,-187.5 1550,-187.5 1550,-168.5 1477,-168.5"/>
<text text-anchor="middle" x="1513.5" y="-175.5" font-family="Helvetica,sans-Serif" font-size="10.00">wld_radio.h</text>
</a>
</g>
</g>
<!-- Node1&#45;&gt;Node87 -->
<g id="edge52" class="edge">
<title>Node1&#45;&gt;Node87</title>
<path fill="none" stroke="midnightblue" d="M1388.11,-224.44C1412.96,-215.44 1452.27,-201.19 1480.25,-191.05"/>
<polygon fill="midnightblue" stroke="midnightblue" points="1481.79,-194.21 1490,-187.52 1479.41,-187.63 1481.79,-194.21"/>
</g>
<!-- Node94 -->
<g id="node47" class="node">
<title>Node94</title>
<g id="a_node47"><a xlink:href="wld__assocdev_8h.html" target="_top" xlink:title=" ">
<polygon fill="white" stroke="red" points="1203,-168.5 1203,-187.5 1296,-187.5 1296,-168.5 1203,-168.5"/>
<text text-anchor="middle" x="1249.5" y="-175.5" font-family="Helvetica,sans-Serif" font-size="10.00">wld_assocdev.h</text>
</a>
</g>
</g>
<!-- Node1&#45;&gt;Node94 -->
<g id="edge55" class="edge">
<title>Node1&#45;&gt;Node94</title>
<path fill="none" stroke="midnightblue" d="M1346.28,-224.44C1327.6,-215.68 1298.34,-201.94 1276.88,-191.86"/>
<polygon fill="midnightblue" stroke="midnightblue" points="1278.18,-188.6 1267.64,-187.52 1275.2,-194.93 1278.18,-188.6"/>
</g>
<!-- Node97 -->
<g id="node48" class="node">
<title>Node97</title>
<g id="a_node48"><a xlink:href="wld__ap__rssiMonitor_8h.html" target="_top" xlink:title=" ">
<polygon fill="white" stroke="black" points="1655,-168.5 1655,-187.5 1774,-187.5 1774,-168.5 1655,-168.5"/>
<text text-anchor="middle" x="1714.5" y="-175.5" font-family="Helvetica,sans-Serif" font-size="10.00">wld_ap_rssiMonitor.h</text>
</a>
</g>
</g>
<!-- Node1&#45;&gt;Node97 -->
<g id="edge61" class="edge">
<title>Node1&#45;&gt;Node97</title>
<path fill="none" stroke="midnightblue" d="M1419.57,-224.5C1481.83,-214.9 1583.11,-199.27 1649.27,-189.06"/>
<polygon fill="midnightblue" stroke="midnightblue" points="1649.82,-192.52 1659.17,-187.54 1648.75,-185.6 1649.82,-192.52"/>
</g>
<!-- Node98 -->
<g id="node49" class="node">
<title>Node98</title>
<g id="a_node49"><a xlink:href="wld__rad__nl80211_8h.html" target="_top" xlink:title=" ">
<polygon fill="white" stroke="red" points="1792.5,-168.5 1792.5,-187.5 1900.5,-187.5 1900.5,-168.5 1792.5,-168.5"/>
<text text-anchor="middle" x="1846.5" y="-175.5" font-family="Helvetica,sans-Serif" font-size="10.00">wld_rad_nl80211.h</text>
</a>
</g>
</g>
<!-- Node1&#45;&gt;Node98 -->
<g id="edge63" class="edge">
<title>Node1&#45;&gt;Node98</title>
<path fill="none" stroke="midnightblue" d="M1419.67,-227.64C1497.76,-219.92 1645.24,-204.87 1782.14,-188"/>
<polygon fill="midnightblue" stroke="midnightblue" points="1782.9,-191.44 1792.39,-186.73 1782.04,-184.49 1782.9,-191.44"/>
</g>
<!-- Node110 -->
<g id="node50" class="node">
<title>Node110</title>
<g id="a_node50"><a xlink:href="wld__eventing_8h.html" target="_top" xlink:title=" ">
<polygon fill="white" stroke="black" points="729,-112.5 729,-131.5 820,-131.5 820,-112.5 729,-112.5"/>
<text text-anchor="middle" x="774.5" y="-119.5" font-family="Helvetica,sans-Serif" font-size="10.00">wld_eventing.h</text>
</a>
</g>
</g>
<!-- Node1&#45;&gt;Node110 -->
<g id="edge66" class="edge">
<title>Node1&#45;&gt;Node110</title>
<path fill="none" stroke="midnightblue" d="M1359.54,-224.36C1350.64,-209.8 1330.43,-180.69 1304.5,-168 1222.27,-127.77 949.51,-122.86 830.66,-122.69"/>
<polygon fill="midnightblue" stroke="midnightblue" points="830.33,-119.19 820.33,-122.69 830.33,-126.19 830.33,-119.19"/>
</g>
<!-- Node11 -->
<g id="node11" class="node">
<title>Node11</title>
<g id="a_node11"><a xlink:title=" ">
<polygon fill="white" stroke="#bfbfbf" points="3520.5,-56.5 3520.5,-75.5 3582.5,-75.5 3582.5,-56.5 3520.5,-56.5"/>
<text text-anchor="middle" x="3551.5" y="-63.5" font-family="Helvetica,sans-Serif" font-size="10.00">stdbool.h</text>
</a>
</g>
</g>
<!-- Node10&#45;&gt;Node11 -->
<g id="edge10" class="edge">
<title>Node10&#45;&gt;Node11</title>
<path fill="none" stroke="midnightblue" d="M1909.22,-120.52C2091.03,-116.47 3356.25,-88.04 3509.89,-75.66"/>
<polygon fill="midnightblue" stroke="midnightblue" points="3510.55,-79.11 3520.16,-74.65 3509.87,-72.14 3510.55,-79.11"/>
</g>
<!-- Node12 -->
<g id="node12" class="node">
<title>Node12</title>
<g id="a_node12"><a xlink:title=" ">
<polygon fill="white" stroke="#bfbfbf" points="3601,-56.5 3601,-75.5 3654,-75.5 3654,-56.5 3601,-56.5"/>
<text text-anchor="middle" x="3627.5" y="-63.5" font-family="Helvetica,sans-Serif" font-size="10.00">stdint.h</text>
</a>
</g>
</g>
<!-- Node10&#45;&gt;Node12 -->
<g id="edge11" class="edge">
<title>Node10&#45;&gt;Node12</title>
<path fill="none" stroke="midnightblue" d="M1909.07,-120.5C2096.86,-116.1 3450.48,-84.26 3590.67,-75.21"/>
<polygon fill="midnightblue" stroke="midnightblue" points="3591.22,-78.68 3600.89,-74.34 3590.63,-71.7 3591.22,-78.68"/>
</g>
<!-- Node13 -->
<g id="node13" class="node">
<title>Node13</title>
<g id="a_node13"><a xlink:title=" ">
<polygon fill="white" stroke="#bfbfbf" points="608.5,-0.5 608.5,-19.5 718.5,-19.5 718.5,-0.5 608.5,-0.5"/>
<text text-anchor="middle" x="663.5" y="-7.5" font-family="Helvetica,sans-Serif" font-size="10.00">swl/swl_common.h</text>
</a>
</g>
</g>
<!-- Node10&#45;&gt;Node13 -->
<g id="edge12" class="edge">
<title>Node10&#45;&gt;Node13</title>
<path fill="none" stroke="midnightblue" d="M1865.77,-120.83C1756.32,-119.8 1264.88,-113.14 1117.5,-76 1097.06,-70.85 1094.8,-61.67 1074.5,-56 955.65,-22.83 811.1,-13.91 728.95,-11.64"/>
<polygon fill="midnightblue" stroke="midnightblue" points="728.84,-8.13 718.76,-11.38 728.67,-15.13 728.84,-8.13"/>
</g>
<!-- Node14 -->
<g id="node14" class="node">
<title>Node14</title>
<g id="a_node14"><a xlink:title=" ">
<polygon fill="white" stroke="#bfbfbf" points="1126.5,-56.5 1126.5,-75.5 1262.5,-75.5 1262.5,-56.5 1126.5,-56.5"/>
<text text-anchor="middle" x="1194.5" y="-63.5" font-family="Helvetica,sans-Serif" font-size="10.00">swla/swla_commonLib.h</text>
</a>
</g>
</g>
<!-- Node10&#45;&gt;Node14 -->
<g id="edge13" class="edge">
<title>Node10&#45;&gt;Node14</title>
<path fill="none" stroke="midnightblue" d="M1865.92,-119.76C1787.76,-115.22 1511.91,-98.55 1272.78,-76.08"/>
<polygon fill="midnightblue" stroke="midnightblue" points="1272.79,-72.57 1262.5,-75.11 1272.13,-79.54 1272.79,-72.57"/>
</g>
<!-- Node15 -->
<g id="node15" class="node">
<title>Node15</title>
<g id="a_node15"><a xlink:title=" ">
<polygon fill="white" stroke="#bfbfbf" points="1280.5,-56.5 1280.5,-75.5 1368.5,-75.5 1368.5,-56.5 1280.5,-56.5"/>
<text text-anchor="middle" x="1324.5" y="-63.5" font-family="Helvetica,sans-Serif" font-size="10.00">swl/swl_uuid.h</text>
</a>
</g>
</g>
<!-- Node10&#45;&gt;Node15 -->
<g id="edge14" class="edge">
<title>Node10&#45;&gt;Node15</title>
<path fill="none" stroke="midnightblue" d="M1865.81,-119.71C1796.46,-115.46 1573.73,-100.79 1378.85,-76.08"/>
<polygon fill="midnightblue" stroke="midnightblue" points="1379.07,-72.58 1368.71,-74.78 1378.18,-79.52 1379.07,-72.58"/>
</g>
<!-- Node16 -->
<g id="node16" class="node">
<title>Node16</title>
<g id="a_node16"><a xlink:title=" ">
<polygon fill="white" stroke="#bfbfbf" points="1386.5,-56.5 1386.5,-75.5 1538.5,-75.5 1538.5,-56.5 1386.5,-56.5"/>
<text text-anchor="middle" x="1462.5" y="-63.5" font-family="Helvetica,sans-Serif" font-size="10.00">swla/swla_radioStandards.h</text>
</a>
</g>
</g>
<!-- Node10&#45;&gt;Node16 -->
<g id="edge15" class="edge">
<title>Node10&#45;&gt;Node16</title>
<path fill="none" stroke="midnightblue" d="M1865.84,-118.25C1806.48,-110.71 1638.99,-89.42 1539.5,-76.78"/>
<polygon fill="midnightblue" stroke="midnightblue" points="1539.86,-73.3 1529.49,-75.51 1538.97,-80.24 1539.86,-73.3"/>
</g>
<!-- Node17 -->
<g id="node17" class="node">
<title>Node17</title>
<g id="a_node17"><a xlink:title=" ">
<polygon fill="white" stroke="#bfbfbf" points="1557,-56.5 1557,-75.5 1658,-75.5 1658,-56.5 1557,-56.5"/>
<text text-anchor="middle" x="1607.5" y="-63.5" font-family="Helvetica,sans-Serif" font-size="10.00">swla/swla_time.h</text>
</a>
</g>
</g>
<!-- Node10&#45;&gt;Node17 -->
<g id="edge16" class="edge">
<title>Node10&#45;&gt;Node17</title>
<path fill="none" stroke="midnightblue" d="M1865.99,-116.85C1822.69,-108.5 1723.82,-89.43 1661.68,-77.45"/>
<polygon fill="midnightblue" stroke="midnightblue" points="1662.14,-73.97 1651.66,-75.52 1660.81,-80.85 1662.14,-73.97"/>
</g>
<!-- Node18 -->
<g id="node18" class="node">
<title>Node18</title>
<g id="a_node18"><a xlink:title=" ">
<polygon fill="white" stroke="#bfbfbf" points="1676,-56.5 1676,-75.5 1805,-75.5 1805,-56.5 1676,-56.5"/>
<text text-anchor="middle" x="1740.5" y="-63.5" font-family="Helvetica,sans-Serif" font-size="10.00">swla/swla_time_spec.h</text>
</a>
</g>
</g>
<!-- Node10&#45;&gt;Node18 -->
<g id="edge17" class="edge">
<title>Node10&#45;&gt;Node18</title>
<path fill="none" stroke="midnightblue" d="M1865.81,-113.03C1841.38,-104.06 1801.4,-89.37 1773.18,-79.01"/>
<polygon fill="midnightblue" stroke="midnightblue" points="1774.33,-75.7 1763.74,-75.54 1771.92,-82.27 1774.33,-75.7"/>
</g>
<!-- Node10&#45;&gt;Node19 -->
<g id="edge18" class="edge">
<title>Node10&#45;&gt;Node19</title>
<path fill="none" stroke="midnightblue" d="M1909.05,-120.54C2099.92,-116.42 3498.12,-86.09 3661.95,-75.82"/>
<polygon fill="midnightblue" stroke="midnightblue" points="3662.49,-79.29 3672.2,-75.06 3661.97,-72.31 3662.49,-79.29"/>
</g>
<!-- Node20 -->
<g id="node20" class="node">
<title>Node20</title>
<g id="a_node20"><a xlink:title=" ">
<polygon fill="white" stroke="#bfbfbf" points="1823.5,-56.5 1823.5,-75.5 1951.5,-75.5 1951.5,-56.5 1823.5,-56.5"/>
<text text-anchor="middle" x="1887.5" y="-63.5" font-family="Helvetica,sans-Serif" font-size="10.00">swla/swla_delayExec.h</text>
</a>
</g>
</g>
<!-- Node10&#45;&gt;Node20 -->
<g id="edge19" class="edge">
<title>Node10&#45;&gt;Node20</title>
<path fill="none" stroke="midnightblue" d="M1887.5,-112.08C1887.5,-105.01 1887.5,-94.86 1887.5,-85.99"/>
<polygon fill="midnightblue" stroke="midnightblue" points="1891,-85.75 1887.5,-75.75 1884,-85.75 1891,-85.75"/>
</g>
<!-- Node21 -->
<g id="node21" class="node">
<title>Node21</title>
<g id="a_node21"><a xlink:title=" ">
<polygon fill="white" stroke="#bfbfbf" points="1970,-56.5 1970,-75.5 2089,-75.5 2089,-56.5 1970,-56.5"/>
<text text-anchor="middle" x="2029.5" y="-63.5" font-family="Helvetica,sans-Serif" font-size="10.00">swla/swla_function.h</text>
</a>
</g>
</g>
<!-- Node10&#45;&gt;Node21 -->
<g id="edge20" class="edge">
<title>Node10&#45;&gt;Node21</title>
<path fill="none" stroke="midnightblue" d="M1909.07,-112.8C1932.56,-103.86 1970.39,-89.48 1997.38,-79.21"/>
<polygon fill="midnightblue" stroke="midnightblue" points="1998.69,-82.46 2006.79,-75.64 1996.2,-75.92 1998.69,-82.46"/>
</g>
<!-- Node22 -->
<g id="node22" class="node">
<title>Node22</title>
<g id="a_node22"><a xlink:title=" ">
<polygon fill="white" stroke="#bfbfbf" points="2107,-56.5 2107,-75.5 2248,-75.5 2248,-56.5 2107,-56.5"/>
<text text-anchor="middle" x="2177.5" y="-63.5" font-family="Helvetica,sans-Serif" font-size="10.00">swl/swl_usp_cmdStatus.h</text>
</a>
</g>
</g>
<!-- Node10&#45;&gt;Node22 -->
<g id="edge21" class="edge">
<title>Node10&#45;&gt;Node22</title>
<path fill="none" stroke="midnightblue" d="M1909.3,-116.94C1954,-108.62 2057.26,-89.39 2121.82,-77.37"/>
<polygon fill="midnightblue" stroke="midnightblue" points="2122.65,-80.77 2131.84,-75.5 2121.37,-73.89 2122.65,-80.77"/>
</g>
<!-- Node23 -->
<g id="node23" class="node">
<title>Node23</title>
<g id="a_node23"><a xlink:title=" ">
<polygon fill="white" stroke="#bfbfbf" points="2266.5,-56.5 2266.5,-75.5 2352.5,-75.5 2352.5,-56.5 2266.5,-56.5"/>
<text text-anchor="middle" x="2309.5" y="-63.5" font-family="Helvetica,sans-Serif" font-size="10.00">swl/swl_wps.h</text>
</a>
</g>
</g>
<!-- Node10&#45;&gt;Node23 -->
<g id="edge22" class="edge">
<title>Node10&#45;&gt;Node23</title>
<path fill="none" stroke="midnightblue" d="M1909.24,-118.74C1965.06,-112.87 2118.21,-96.22 2256.47,-76.09"/>
<polygon fill="midnightblue" stroke="midnightblue" points="2257.01,-79.55 2266.4,-74.63 2255.99,-72.62 2257.01,-79.55"/>
</g>
<!-- Node24 -->
<g id="node24" class="node">
<title>Node24</title>
<g id="a_node24"><a xlink:title=" ">
<polygon fill="white" stroke="#bfbfbf" points="2370.5,-56.5 2370.5,-75.5 2474.5,-75.5 2474.5,-56.5 2370.5,-56.5"/>
<text text-anchor="middle" x="2422.5" y="-63.5" font-family="Helvetica,sans-Serif" font-size="10.00">swl/swl_security.h</text>
</a>
</g>
</g>
<!-- Node10&#45;&gt;Node24 -->
<g id="edge23" class="edge">
<title>Node10&#45;&gt;Node24</title>
<path fill="none" stroke="midnightblue" d="M1909.28,-119.34C1975.42,-114.2 2179.96,-97.69 2360.35,-76.08"/>
<polygon fill="midnightblue" stroke="midnightblue" points="2360.77,-79.56 2370.28,-74.89 2359.93,-72.61 2360.77,-79.56"/>
</g>
<!-- Node25 -->
<g id="node25" class="node">
<title>Node25</title>
<g id="a_node25"><a xlink:title=" ">
<polygon fill="white" stroke="#bfbfbf" points="72,-0.5 72,-19.5 155,-19.5 155,-0.5 72,-0.5"/>
<text text-anchor="middle" x="113.5" y="-7.5" font-family="Helvetica,sans-Serif" font-size="10.00">amxc/amxc.h</text>
</a>
</g>
</g>
<!-- Node10&#45;&gt;Node25 -->
<g id="edge24" class="edge">
<title>Node10&#45;&gt;Node25</title>
<path fill="none" stroke="midnightblue" d="M1865.98,-121.21C1753.06,-122.11 1228.45,-123.64 1074.5,-76 1058.12,-70.93 1057.9,-61.01 1041.5,-56 957.76,-30.4 348.32,-15.85 165.32,-12.03"/>
<polygon fill="midnightblue" stroke="midnightblue" points="165.22,-8.52 155.15,-11.81 165.08,-15.52 165.22,-8.52"/>
</g>
<!-- Node26 -->
<g id="node26" class="node">
<title>Node26</title>
<g id="a_node26"><a xlink:title=" ">
<polygon fill="white" stroke="#bfbfbf" points="289.5,-56.5 289.5,-75.5 373.5,-75.5 373.5,-56.5 289.5,-56.5"/>
<text text-anchor="middle" x="331.5" y="-63.5" font-family="Helvetica,sans-Serif" font-size="10.00">amxp/amxp.h</text>
</a>
</g>
</g>
<!-- Node10&#45;&gt;Node26 -->
<g id="edge25" class="edge">
<title>Node10&#45;&gt;Node26</title>
<path fill="none" stroke="midnightblue" d="M1865.98,-120.79C1706.88,-119.13 710.43,-107.68 384.13,-75.98"/>
<polygon fill="midnightblue" stroke="midnightblue" points="384.03,-72.45 373.73,-74.94 383.34,-79.42 384.03,-72.45"/>
</g>
<!-- Node27 -->
<g id="node27" class="node">
<title>Node27</title>
<g id="a_node27"><a xlink:title=" ">
<polygon fill="white" stroke="#bfbfbf" points="391.5,-56.5 391.5,-75.5 531.5,-75.5 531.5,-56.5 391.5,-56.5"/>
<text text-anchor="middle" x="461.5" y="-63.5" font-family="Helvetica,sans-Serif" font-size="10.00">amxd/amxd_parameter.h</text>
</a>
</g>
</g>
<!-- Node10&#45;&gt;Node27 -->
<g id="edge26" class="edge">
<title>Node10&#45;&gt;Node27</title>
<path fill="none" stroke="midnightblue" d="M1865.67,-120.93C1739.02,-120.36 1085.84,-115.58 541.7,-76.02"/>
<polygon fill="midnightblue" stroke="midnightblue" points="541.91,-72.53 531.68,-75.29 541.4,-79.51 541.91,-72.53"/>
</g>
<!-- Node28 -->
<g id="node28" class="node">
<title>Node28</title>
<g id="a_node28"><a xlink:title=" ">
<polygon fill="white" stroke="#bfbfbf" points="550,-56.5 550,-75.5 669,-75.5 669,-56.5 550,-56.5"/>
<text text-anchor="middle" x="609.5" y="-63.5" font-family="Helvetica,sans-Serif" font-size="10.00">amxd/amxd_action.h</text>
</a>
</g>
</g>
<!-- Node10&#45;&gt;Node28 -->
<g id="edge27" class="edge">
<title>Node10&#45;&gt;Node28</title>
<path fill="none" stroke="midnightblue" d="M1865.97,-120.96C1747.72,-120.57 1165.22,-116.63 679.19,-76.06"/>
<polygon fill="midnightblue" stroke="midnightblue" points="679.43,-72.57 669.17,-75.22 678.84,-79.55 679.43,-72.57"/>
</g>
<!-- Node29 -->
<g id="node29" class="node">
<title>Node29</title>
<g id="a_node29"><a xlink:title=" ">
<polygon fill="white" stroke="#bfbfbf" points="687,-56.5 687,-75.5 862,-75.5 862,-56.5 687,-56.5"/>
<text text-anchor="middle" x="774.5" y="-63.5" font-family="Helvetica,sans-Serif" font-size="10.00">amxd/amxd_object_parameter.h</text>
</a>
</g>
</g>
<!-- Node10&#45;&gt;Node29 -->
<g id="edge28" class="edge">
<title>Node10&#45;&gt;Node29</title>
<path fill="none" stroke="midnightblue" d="M1865.67,-120.42C1758.61,-117.52 1278.11,-103.53 872.42,-76.03"/>
<polygon fill="midnightblue" stroke="midnightblue" points="872.47,-72.52 862.25,-75.33 871.99,-79.51 872.47,-72.52"/>
</g>
<!-- Node30 -->
<g id="node30" class="node">
<title>Node30</title>
<g id="a_node30"><a xlink:title=" ">
<polygon fill="white" stroke="#bfbfbf" points="880.5,-56.5 880.5,-75.5 1032.5,-75.5 1032.5,-56.5 880.5,-56.5"/>
<text text-anchor="middle" x="956.5" y="-63.5" font-family="Helvetica,sans-Serif" font-size="10.00">amxd/amxd_object_event.h</text>
</a>
</g>
</g>
<!-- Node10&#45;&gt;Node30 -->
<g id="edge29" class="edge">
<title>Node10&#45;&gt;Node30</title>
<path fill="none" stroke="midnightblue" d="M1865.71,-120.2C1769.36,-116.61 1371.97,-100.97 1046.5,-76 1045.22,-75.9 1043.94,-75.8 1042.64,-75.7"/>
<polygon fill="midnightblue" stroke="midnightblue" points="1042.84,-72.2 1032.59,-74.86 1042.26,-79.18 1042.84,-72.2"/>
</g>
<!-- Node31 -->
<g id="node31" class="node">
<title>Node31</title>
<g id="a_node31"><a xlink:title=" ">
<polygon fill="white" stroke="#bfbfbf" points="142,-56.5 142,-75.5 271,-75.5 271,-56.5 142,-56.5"/>
<text text-anchor="middle" x="206.5" y="-63.5" font-family="Helvetica,sans-Serif" font-size="10.00">amxd/amxd_function.h</text>
</a>
</g>
</g>
<!-- Node10&#45;&gt;Node31 -->
<g id="edge30" class="edge">
<title>Node10&#45;&gt;Node31</title>
<path fill="none" stroke="midnightblue" d="M1865.72,-121.15C1725.53,-121.98 935.77,-124.28 281.15,-75.96"/>
<polygon fill="midnightblue" stroke="midnightblue" points="281.27,-72.46 271.04,-75.21 280.75,-79.44 281.27,-72.46"/>
</g>
<!-- Node32 -->
<g id="node32" class="node">
<title>Node32</title>
<g id="a_node32"><a xlink:title=" ">
<polygon fill="white" stroke="#bfbfbf" points="2493,-56.5 2493,-75.5 2662,-75.5 2662,-56.5 2493,-56.5"/>
<text text-anchor="middle" x="2577.5" y="-63.5" font-family="Helvetica,sans-Serif" font-size="10.00">amxd/amxd_object_hierarchy.h</text>
</a>
</g>
</g>
<!-- Node10&#45;&gt;Node32 -->
<g id="edge31" class="edge">
<title>Node10&#45;&gt;Node32</title>
<path fill="none" stroke="midnightblue" d="M1909.16,-119.52C1985.77,-114.26 2251.21,-95.76 2482.66,-76.06"/>
<polygon fill="midnightblue" stroke="midnightblue" points="2483.29,-79.51 2492.96,-75.18 2482.69,-72.54 2483.29,-79.51"/>
</g>
<!-- Node33 -->
<g id="node33" class="node">
<title>Node33</title>
<g id="a_node33"><a xlink:title=" ">
<polygon fill="white" stroke="#bfbfbf" points="2680,-56.5 2680,-75.5 2799,-75.5 2799,-56.5 2680,-56.5"/>
<text text-anchor="middle" x="2739.5" y="-63.5" font-family="Helvetica,sans-Serif" font-size="10.00">amxd/amxd_object.h</text>
</a>
</g>
</g>
<!-- Node10&#45;&gt;Node33 -->
<g id="edge32" class="edge">
<title>Node10&#45;&gt;Node33</title>
<path fill="none" stroke="midnightblue" d="M1909.06,-120.35C2000.07,-117.48 2361.95,-104.86 2669.81,-76.1"/>
<polygon fill="midnightblue" stroke="midnightblue" points="2670.2,-79.58 2679.82,-75.15 2669.54,-72.61 2670.2,-79.58"/>
</g>
<!-- Node34 -->
<g id="node34" class="node">
<title>Node34</title>
<g id="a_node34"><a xlink:title=" ">
<polygon fill="white" stroke="#bfbfbf" points="2817,-56.5 2817,-75.5 2922,-75.5 2922,-56.5 2817,-56.5"/>
<text text-anchor="middle" x="2869.5" y="-63.5" font-family="Helvetica,sans-Serif" font-size="10.00">amxd/amxd_dm.h</text>
</a>
</g>
</g>
<!-- Node10&#45;&gt;Node34 -->
<g id="edge33" class="edge">
<title>Node10&#45;&gt;Node34</title>
<path fill="none" stroke="midnightblue" d="M1909.31,-120.72C2010.26,-119.26 2442.3,-111.23 2806.75,-76.08"/>
<polygon fill="midnightblue" stroke="midnightblue" points="2807.35,-79.54 2816.97,-75.08 2806.68,-72.57 2807.35,-79.54"/>
</g>
<!-- Node35 -->
<g id="node35" class="node">
<title>Node35</title>
<g id="a_node35"><a xlink:title=" ">
<polygon fill="white" stroke="#bfbfbf" points="2940.5,-56.5 2940.5,-75.5 3084.5,-75.5 3084.5,-56.5 2940.5,-56.5"/>
<text text-anchor="middle" x="3012.5" y="-63.5" font-family="Helvetica,sans-Serif" font-size="10.00">amxd/amxd_transaction.h</text>
</a>
</g>
</g>
<!-- Node10&#45;&gt;Node35 -->
<g id="edge34" class="edge">
<title>Node10&#45;&gt;Node35</title>
<path fill="none" stroke="midnightblue" d="M1909.21,-120.61C2017.83,-118.54 2513.28,-107.76 2929.96,-76.07"/>
<polygon fill="midnightblue" stroke="midnightblue" points="2930.4,-79.54 2940.1,-75.29 2929.86,-72.56 2930.4,-79.54"/>
</g>
<!-- Node36 -->
<g id="node36" class="node">
<title>Node36</title>
<g id="a_node36"><a xlink:title=" ">
<polygon fill="white" stroke="#bfbfbf" points="3102.5,-56.5 3102.5,-75.5 3218.5,-75.5 3218.5,-56.5 3102.5,-56.5"/>
<text text-anchor="middle" x="3160.5" y="-63.5" font-family="Helvetica,sans-Serif" font-size="10.00">amxb/amxb_types.h</text>
</a>
</g>
</g>
<!-- Node10&#45;&gt;Node36 -->
<g id="edge35" class="edge">
<title>Node10&#45;&gt;Node36</title>
<path fill="none" stroke="midnightblue" d="M1909.07,-120.48C2048.9,-117.06 2829.33,-97.35 3092.18,-76"/>
<polygon fill="midnightblue" stroke="midnightblue" points="3092.76,-79.47 3102.43,-75.15 3092.18,-72.49 3092.76,-79.47"/>
</g>
<!-- Node37 -->
<g id="node37" class="node">
<title>Node37</title>
<g id="a_node37"><a xlink:title=" ">
<polygon fill="white" stroke="#bfbfbf" points="3236.5,-56.5 3236.5,-75.5 3372.5,-75.5 3372.5,-56.5 3236.5,-56.5"/>
<text text-anchor="middle" x="3304.5" y="-63.5" font-family="Helvetica,sans-Serif" font-size="10.00">amxb/amxb_operators.h</text>
</a>
</g>
</g>
<!-- Node10&#45;&gt;Node37 -->
<g id="edge36" class="edge">
<title>Node10&#45;&gt;Node37</title>
<path fill="none" stroke="midnightblue" d="M1909.47,-120.51C2059.46,-117.14 2935.06,-96.88 3225.99,-76.03"/>
<polygon fill="midnightblue" stroke="midnightblue" points="3226.38,-79.52 3236.09,-75.29 3225.86,-72.53 3226.38,-79.52"/>
</g>
<!-- Node38 -->
<g id="node38" class="node">
<title>Node38</title>
<g id="a_node38"><a xlink:title=" ">
<polygon fill="white" stroke="#bfbfbf" points="3390.5,-56.5 3390.5,-75.5 3502.5,-75.5 3502.5,-56.5 3390.5,-56.5"/>
<text text-anchor="middle" x="3446.5" y="-63.5" font-family="Helvetica,sans-Serif" font-size="10.00">amxb/amxb_error.h</text>
</a>
</g>
</g>
<!-- Node10&#45;&gt;Node38 -->
<g id="edge37" class="edge">
<title>Node10&#45;&gt;Node38</title>
<path fill="none" stroke="midnightblue" d="M1909.25,-120.49C2078.73,-116.47 3186.32,-89.87 3380.17,-75.95"/>
<polygon fill="midnightblue" stroke="midnightblue" points="3380.47,-79.44 3390.17,-75.18 3379.93,-72.46 3380.47,-79.44"/>
</g>
<!-- Node10&#45;&gt;Node56 -->
<g id="edge38" class="edge">
<title>Node10&#45;&gt;Node56</title>
<path fill="none" stroke="midnightblue" d="M1909.09,-120.69C2109.07,-117.77 3636.32,-94.97 3886.83,-75.85"/>
<polygon fill="midnightblue" stroke="midnightblue" points="3887.14,-79.34 3896.82,-75.03 3886.57,-72.36 3887.14,-79.34"/>
</g>
<!-- Node10&#45;&gt;Node58 -->
<g id="edge39" class="edge">
<title>Node10&#45;&gt;Node58</title>
<path fill="none" stroke="midnightblue" d="M1909.07,-120.85C2102.62,-119.45 3543.97,-108.08 4002.01,-76.01"/>
<polygon fill="midnightblue" stroke="midnightblue" points="4002.6,-79.48 4012.32,-75.27 4002.1,-72.49 4002.6,-79.48"/>
</g>
<!-- Node10&#45;&gt;Node63 -->
<g id="edge40" class="edge">
<title>Node10&#45;&gt;Node63</title>
<path fill="none" stroke="midnightblue" d="M1909.23,-120.63C2105.81,-117.43 3572.13,-93.85 3766.5,-76 3769.12,-75.76 3771.81,-75.47 3774.52,-75.15"/>
<polygon fill="midnightblue" stroke="midnightblue" points="3774.98,-78.62 3784.44,-73.84 3774.07,-71.68 3774.98,-78.62"/>
</g>
<!-- Node10&#45;&gt;Node82 -->
<g id="edge42" class="edge">
<title>Node10&#45;&gt;Node82</title>
<path fill="none" stroke="midnightblue" d="M1865.67,-121.05C1717.42,-121.27 842.78,-120.56 132.5,-76 120.38,-75.24 107.37,-74.12 95.11,-72.92"/>
<polygon fill="midnightblue" stroke="midnightblue" points="95.33,-69.43 85.02,-71.9 94.62,-76.39 95.33,-69.43"/>
</g>
<!-- Node63&#45;&gt;Node10 -->
<g id="edge41" class="edge">
<title>Node63&#45;&gt;Node10</title>
<path fill="none" stroke="midnightblue" d="M3789.26,-75.52C3787.66,-75.69 3786.07,-75.86 3784.5,-76 3592.06,-93.67 2152.84,-116.96 1919.41,-120.53"/>
<polygon fill="midnightblue" stroke="midnightblue" points="1919.16,-117.04 1909.21,-120.69 1919.26,-124.03 1919.16,-117.04"/>
</g>
<!-- Node82&#45;&gt;Node13 -->
<g id="edge44" class="edge">
<title>Node82&#45;&gt;Node13</title>
<path fill="none" stroke="midnightblue" d="M85.06,-60.61C100.05,-59.1 117.02,-57.43 132.5,-56 300.22,-40.51 497.94,-24.29 598.17,-16.22"/>
<polygon fill="midnightblue" stroke="midnightblue" points="598.75,-19.68 608.44,-15.39 598.19,-12.7 598.75,-19.68"/>
</g>
<!-- Node82&#45;&gt;Node25 -->
<g id="edge43" class="edge">
<title>Node82&#45;&gt;Node25</title>
<path fill="none" stroke="midnightblue" d="M53.91,-56.32C64.61,-48.18 80.84,-35.84 93.66,-26.09"/>
<polygon fill="midnightblue" stroke="midnightblue" points="96.04,-28.67 101.89,-19.83 91.81,-23.1 96.04,-28.67"/>
</g>
<!-- Node83&#45;&gt;Node10 -->
<g id="edge46" class="edge">
<title>Node83&#45;&gt;Node10</title>
<path fill="none" stroke="midnightblue" d="M1972.27,-168.32C1956.15,-159.7 1931.2,-146.36 1912.54,-136.39"/>
<polygon fill="midnightblue" stroke="midnightblue" points="1914.16,-133.28 1903.69,-131.65 1910.86,-139.46 1914.16,-133.28"/>
</g>
<!-- Node84&#45;&gt;Node10 -->
<g id="edge48" class="edge">
<title>Node84&#45;&gt;Node10</title>
<path fill="none" stroke="midnightblue" d="M1458.58,-169.16C1461.6,-168.76 1464.59,-168.37 1467.5,-168 1612.14,-149.76 1785.41,-132.71 1855.62,-126"/>
<polygon fill="midnightblue" stroke="midnightblue" points="1855.98,-129.49 1865.6,-125.05 1855.32,-122.52 1855.98,-129.49"/>
</g>
<!-- Node84&#45;&gt;Node82 -->
<g id="edge49" class="edge">
<title>Node84&#45;&gt;Node82</title>
<path fill="none" stroke="midnightblue" d="M1352.32,-171.95C1336.9,-170.57 1320.04,-169.14 1304.5,-168 1030.11,-147.79 954.61,-193.78 686.5,-132 663.98,-126.81 660.99,-117.31 638.5,-112 411.73,-58.48 347.43,-98.26 115.5,-76 109.08,-75.38 102.35,-74.66 95.68,-73.89"/>
<polygon fill="midnightblue" stroke="midnightblue" points="95.65,-70.37 85.3,-72.67 94.82,-77.32 95.65,-70.37"/>
</g>
<!-- Node86&#45;&gt;Node10 -->
<g id="edge51" class="edge">
<title>Node86&#45;&gt;Node10</title>
<path fill="none" stroke="midnightblue" d="M1636.75,-169.76C1639.71,-169.16 1642.66,-168.56 1645.5,-168 1720.76,-153.13 1809.47,-136.99 1855.76,-128.67"/>
<polygon fill="midnightblue" stroke="midnightblue" points="1856.55,-132.08 1865.78,-126.87 1855.31,-125.19 1856.55,-132.08"/>
</g>
<!-- Node87&#45;&gt;Node10 -->
<g id="edge53" class="edge">
<title>Node87&#45;&gt;Node10</title>
<path fill="none" stroke="midnightblue" d="M1550.12,-169.64C1553.29,-169.06 1556.45,-168.51 1559.5,-168 1667.86,-149.98 1797.22,-133.79 1855.84,-126.74"/>
<polygon fill="midnightblue" stroke="midnightblue" points="1856.43,-130.19 1865.95,-125.53 1855.6,-123.24 1856.43,-130.19"/>
</g>
<!-- Node87&#45;&gt;Node82 -->
<g id="edge54" class="edge">
<title>Node87&#45;&gt;Node82</title>
<path fill="none" stroke="midnightblue" d="M1476.92,-169.35C1473.74,-168.83 1470.57,-168.37 1467.5,-168 1137.09,-127.94 1042.65,-211.67 719.5,-132 699.04,-126.95 696.92,-117.21 676.5,-112 434.4,-50.26 364.26,-99.3 115.5,-76 109.08,-75.4 102.34,-74.68 95.67,-73.92"/>
<polygon fill="midnightblue" stroke="midnightblue" points="95.64,-70.4 85.3,-72.7 94.82,-77.35 95.64,-70.4"/>
</g>
<!-- Node94&#45;&gt;Node10 -->
<g id="edge56" class="edge">
<title>Node94&#45;&gt;Node10</title>
<path fill="none" stroke="midnightblue" d="M1296.35,-172.39C1311.4,-170.95 1328.15,-169.37 1343.5,-168 1538.15,-150.63 1772.19,-132.05 1855.86,-125.47"/>
<polygon fill="midnightblue" stroke="midnightblue" points="1856.29,-128.95 1865.98,-124.68 1855.74,-121.97 1856.29,-128.95"/>
</g>
<!-- Node94&#45;&gt;Node82 -->
<g id="edge57" class="edge">
<title>Node94&#45;&gt;Node82</title>
<path fill="none" stroke="midnightblue" d="M1202.92,-169.74C1198.06,-169.1 1193.18,-168.5 1188.5,-168 949.33,-142.43 882.66,-187 648.5,-132 626,-126.72 622.98,-117.37 600.5,-112 390.26,-61.79 330.6,-97.23 115.5,-76 109.08,-75.37 102.35,-74.63 95.68,-73.86"/>
<polygon fill="midnightblue" stroke="midnightblue" points="95.65,-70.33 85.31,-72.63 94.83,-77.28 95.65,-70.33"/>
</g>
<!-- Node97&#45;&gt;Node10 -->
<g id="edge62" class="edge">
<title>Node97&#45;&gt;Node10</title>
<path fill="none" stroke="midnightblue" d="M1741.91,-168.44C1772.95,-158.76 1823.42,-143 1856.04,-132.82"/>
<polygon fill="midnightblue" stroke="midnightblue" points="1857.45,-136.05 1865.95,-129.73 1855.37,-129.36 1857.45,-136.05"/>
</g>
<!-- Node98&#45;&gt;Node10 -->
<g id="edge64" class="edge">
<title>Node98&#45;&gt;Node10</title>
<path fill="none" stroke="midnightblue" d="M1853.27,-168.08C1859.06,-160.46 1867.56,-149.26 1874.64,-139.94"/>
<polygon fill="midnightblue" stroke="midnightblue" points="1877.6,-141.83 1880.86,-131.75 1872.02,-137.6 1877.6,-141.83"/>
</g>
<!-- Node110&#45;&gt;Node25 -->
<g id="edge67" class="edge">
<title>Node110&#45;&gt;Node25</title>
<path fill="none" stroke="midnightblue" d="M728.69,-113.71C723.91,-113.07 719.11,-112.49 714.5,-112 650.07,-105.19 183.12,-116.44 132.5,-76 118.89,-65.12 114.67,-45.05 113.53,-30.08"/>
<polygon fill="midnightblue" stroke="midnightblue" points="117.02,-29.73 113.15,-19.86 110.02,-29.98 117.02,-29.73"/>
</g>
<!-- Node110&#45;&gt;Node26 -->
<g id="edge68" class="edge">
<title>Node110&#45;&gt;Node26</title>
<path fill="none" stroke="midnightblue" d="M728.99,-113.97C724.1,-113.28 719.2,-112.61 714.5,-112 570.61,-93.41 531.2,-96.74 384.08,-76.14"/>
<polygon fill="midnightblue" stroke="midnightblue" points="384.16,-72.62 373.77,-74.68 383.18,-79.55 384.16,-72.62"/>
</g>
<!-- Node110&#45;&gt;Node27 -->
<g id="edge69" class="edge">
<title>Node110&#45;&gt;Node27</title>
<path fill="none" stroke="midnightblue" d="M728.99,-113.15C674.09,-103.68 581.66,-87.73 521.12,-77.29"/>
<polygon fill="midnightblue" stroke="midnightblue" points="521.39,-73.78 510.94,-75.53 520.2,-80.68 521.39,-73.78"/>
</g>
<!-- Node110&#45;&gt;Node28 -->
<g id="edge70" class="edge">
<title>Node110&#45;&gt;Node28</title>
<path fill="none" stroke="midnightblue" d="M748.36,-112.44C720.48,-103.32 676.15,-88.81 645.1,-78.65"/>
<polygon fill="midnightblue" stroke="midnightblue" points="646.12,-75.3 635.52,-75.52 643.94,-81.95 646.12,-75.3"/>
</g>
<!-- Node110&#45;&gt;Node29 -->
<g id="edge71" class="edge">
<title>Node110&#45;&gt;Node29</title>
<path fill="none" stroke="midnightblue" d="M774.5,-112.08C774.5,-105.01 774.5,-94.86 774.5,-85.99"/>
<polygon fill="midnightblue" stroke="midnightblue" points="778,-85.75 774.5,-75.75 771,-85.75 778,-85.75"/>
</g>
<!-- Node110&#45;&gt;Node30 -->
<g id="edge72" class="edge">
<title>Node110&#45;&gt;Node30</title>
<path fill="none" stroke="midnightblue" d="M803.34,-112.44C834.36,-103.24 883.83,-88.56 918.12,-78.39"/>
<polygon fill="midnightblue" stroke="midnightblue" points="919.21,-81.72 927.8,-75.52 917.21,-75.01 919.21,-81.72"/>
</g>
<!-- Node110&#45;&gt;Node31 -->
<g id="edge73" class="edge">
<title>Node110&#45;&gt;Node31</title>
<path fill="none" stroke="midnightblue" d="M728.68,-113.81C723.9,-113.15 719.1,-112.54 714.5,-112 525.53,-90.01 474.77,-95.49 281.28,-76.04"/>
<polygon fill="midnightblue" stroke="midnightblue" points="281.36,-72.53 271.06,-75 280.65,-79.49 281.36,-72.53"/>
</g>
</g>
</svg>
