<?xml version="1.0" encoding="UTF-8" standalone="no"?>
<!DOCTYPE svg PUBLIC "-//W3C//DTD SVG 1.1//EN"
 "http://www.w3.org/Graphics/SVG/1.1/DTD/svg11.dtd">
<!-- Generated by graphviz version 2.43.0 (0)
 -->
<!-- Title: include/wld/wld_chanmgt.h Pages: 1 -->
<svg width="5570pt" height="252pt"
 viewBox="0.00 0.00 5570.40 252.00" xmlns="http://www.w3.org/2000/svg" xmlns:xlink="http://www.w3.org/1999/xlink">
<g id="graph0" class="graph" transform="scale(1 1) rotate(0) translate(4 248)">
<title>include/wld/wld_chanmgt.h</title>
<polygon fill="white" stroke="transparent" points="-4,4 -4,-248 5566.4,-248 5566.4,4 -4,4"/>
<!-- Node1 -->
<g id="node1" class="node">
<title>Node1</title>
<g id="a_node1"><a xlink:title=" ">
<polygon fill="#bfbfbf" stroke="black" points="2466.4,-224.5 2466.4,-243.5 2615.4,-243.5 2615.4,-224.5 2466.4,-224.5"/>
<text text-anchor="middle" x="2540.9" y="-231.5" font-family="Helvetica,sans-Serif" font-size="10.00">include/wld/wld_chanmgt.h</text>
</a>
</g>
</g>
<!-- Node2 -->
<g id="node2" class="node">
<title>Node2</title>
<g id="a_node2"><a xlink:href="wld_8h.html" target="_top" xlink:title=" ">
<polygon fill="white" stroke="red" points="2494.4,-168.5 2494.4,-187.5 2537.4,-187.5 2537.4,-168.5 2494.4,-168.5"/>
<text text-anchor="middle" x="2515.9" y="-175.5" font-family="Helvetica,sans-Serif" font-size="10.00">wld.h</text>
</a>
</g>
</g>
<!-- Node1&#45;&gt;Node2 -->
<g id="edge1" class="edge">
<title>Node1&#45;&gt;Node2</title>
<path fill="none" stroke="midnightblue" d="M2536.77,-224.08C2533.38,-216.77 2528.48,-206.18 2524.28,-197.1"/>
<polygon fill="midnightblue" stroke="midnightblue" points="2527.32,-195.36 2519.95,-187.75 2520.97,-198.3 2527.32,-195.36"/>
</g>
<!-- Node49 -->
<g id="node48" class="node">
<title>Node49</title>
<g id="a_node48"><a xlink:title=" ">
<polygon fill="white" stroke="#bfbfbf" points="5441.4,-112.5 5441.4,-131.5 5562.4,-131.5 5562.4,-112.5 5441.4,-112.5"/>
<text text-anchor="middle" x="5501.9" y="-119.5" font-family="Helvetica,sans-Serif" font-size="10.00">swl/swl_returnCode.h</text>
</a>
</g>
</g>
<!-- Node1&#45;&gt;Node49 -->
<g id="edge64" class="edge">
<title>Node1&#45;&gt;Node49</title>
<path fill="none" stroke="midnightblue" d="M2615.51,-232.08C2944.7,-227.67 4299.98,-205.75 5409.9,-132 5416.67,-131.55 5423.73,-131 5430.78,-130.4"/>
<polygon fill="midnightblue" stroke="midnightblue" points="5431.42,-133.86 5441.07,-129.49 5430.8,-126.89 5431.42,-133.86"/>
</g>
<!-- Node3 -->
<g id="node3" class="node">
<title>Node3</title>
<g id="a_node3"><a xlink:title=" ">
<polygon fill="white" stroke="#bfbfbf" points="3057.9,-56.5 3057.9,-75.5 3119.9,-75.5 3119.9,-56.5 3057.9,-56.5"/>
<text text-anchor="middle" x="3088.9" y="-63.5" font-family="Helvetica,sans-Serif" font-size="10.00">stdbool.h</text>
</a>
</g>
</g>
<!-- Node2&#45;&gt;Node3 -->
<g id="edge2" class="edge">
<title>Node2&#45;&gt;Node3</title>
<path fill="none" stroke="midnightblue" d="M2537.61,-176.87C2800.71,-175.28 5367.29,-159.03 5393.9,-132 5400.13,-125.67 5400.12,-118.35 5393.9,-112 5352.65,-69.95 3437.35,-67.18 3130.24,-67.01"/>
<polygon fill="midnightblue" stroke="midnightblue" points="3130,-63.51 3120,-67.01 3130,-70.51 3130,-63.51"/>
</g>
<!-- Node4 -->
<g id="node4" class="node">
<title>Node4</title>
<g id="a_node4"><a xlink:title=" ">
<polygon fill="white" stroke="#bfbfbf" points="13.4,-0.5 13.4,-19.5 66.4,-19.5 66.4,-0.5 13.4,-0.5"/>
<text text-anchor="middle" x="39.9" y="-7.5" font-family="Helvetica,sans-Serif" font-size="10.00">stdint.h</text>
</a>
</g>
</g>
<!-- Node2&#45;&gt;Node4 -->
<g id="edge3" class="edge">
<title>Node2&#45;&gt;Node4</title>
<path fill="none" stroke="midnightblue" d="M2494.3,-177.03C2252.39,-177.34 58.93,-178.87 12.9,-132 -14.64,-103.96 10.83,-54.37 27.71,-28.23"/>
<polygon fill="midnightblue" stroke="midnightblue" points="30.74,-29.99 33.43,-19.75 24.94,-26.08 30.74,-29.99"/>
</g>
<!-- Node5 -->
<g id="node5" class="node">
<title>Node5</title>
<g id="a_node5"><a xlink:title=" ">
<polygon fill="white" stroke="#bfbfbf" points="307.9,-56.5 307.9,-75.5 417.9,-75.5 417.9,-56.5 307.9,-56.5"/>
<text text-anchor="middle" x="362.9" y="-63.5" font-family="Helvetica,sans-Serif" font-size="10.00">swl/swl_common.h</text>
</a>
</g>
</g>
<!-- Node2&#45;&gt;Node5 -->
<g id="edge4" class="edge">
<title>Node2&#45;&gt;Node5</title>
<path fill="none" stroke="midnightblue" d="M2494.36,-177.08C2290.33,-177.74 700.96,-181.28 496.9,-132 454.59,-121.78 409.98,-96.9 384.39,-81.05"/>
<polygon fill="midnightblue" stroke="midnightblue" points="386.19,-78.05 375.87,-75.67 382.45,-83.97 386.19,-78.05"/>
</g>
<!-- Node6 -->
<g id="node6" class="node">
<title>Node6</title>
<g id="a_node6"><a xlink:title=" ">
<polygon fill="white" stroke="#bfbfbf" points="734.9,-112.5 734.9,-131.5 870.9,-131.5 870.9,-112.5 734.9,-112.5"/>
<text text-anchor="middle" x="802.9" y="-119.5" font-family="Helvetica,sans-Serif" font-size="10.00">swla/swla_commonLib.h</text>
</a>
</g>
</g>
<!-- Node2&#45;&gt;Node6 -->
<g id="edge5" class="edge">
<title>Node2&#45;&gt;Node6</title>
<path fill="none" stroke="midnightblue" d="M2494.19,-177.13C2352.77,-177.83 1547.82,-179.51 881.59,-132.05"/>
<polygon fill="midnightblue" stroke="midnightblue" points="881.52,-128.54 871.3,-131.31 881.02,-135.52 881.52,-128.54"/>
</g>
<!-- Node7 -->
<g id="node7" class="node">
<title>Node7</title>
<g id="a_node7"><a xlink:title=" ">
<polygon fill="white" stroke="#bfbfbf" points="888.9,-112.5 888.9,-131.5 976.9,-131.5 976.9,-112.5 888.9,-112.5"/>
<text text-anchor="middle" x="932.9" y="-119.5" font-family="Helvetica,sans-Serif" font-size="10.00">swl/swl_uuid.h</text>
</a>
</g>
</g>
<!-- Node2&#45;&gt;Node7 -->
<g id="edge6" class="edge">
<title>Node2&#45;&gt;Node7</title>
<path fill="none" stroke="midnightblue" d="M2494.28,-176.78C2333.3,-175.06 1318.56,-163.13 987.16,-131.95"/>
<polygon fill="midnightblue" stroke="midnightblue" points="987.37,-128.45 977.08,-130.97 986.7,-135.42 987.37,-128.45"/>
</g>
<!-- Node8 -->
<g id="node8" class="node">
<title>Node8</title>
<g id="a_node8"><a xlink:title=" ">
<polygon fill="white" stroke="#bfbfbf" points="994.9,-112.5 994.9,-131.5 1146.9,-131.5 1146.9,-112.5 994.9,-112.5"/>
<text text-anchor="middle" x="1070.9" y="-119.5" font-family="Helvetica,sans-Serif" font-size="10.00">swla/swla_radioStandards.h</text>
</a>
</g>
</g>
<!-- Node2&#45;&gt;Node8 -->
<g id="edge7" class="edge">
<title>Node2&#45;&gt;Node8</title>
<path fill="none" stroke="midnightblue" d="M2494.27,-176.87C2367.45,-176 1707.25,-169.77 1157.44,-132.06"/>
<polygon fill="midnightblue" stroke="midnightblue" points="1157.55,-128.55 1147.33,-131.36 1157.06,-135.54 1157.55,-128.55"/>
</g>
<!-- Node9 -->
<g id="node9" class="node">
<title>Node9</title>
<g id="a_node9"><a xlink:title=" ">
<polygon fill="white" stroke="#bfbfbf" points="152.4,-0.5 152.4,-19.5 253.4,-19.5 253.4,-0.5 152.4,-0.5"/>
<text text-anchor="middle" x="202.9" y="-7.5" font-family="Helvetica,sans-Serif" font-size="10.00">swla/swla_time.h</text>
</a>
</g>
</g>
<!-- Node2&#45;&gt;Node9 -->
<g id="edge8" class="edge">
<title>Node2&#45;&gt;Node9</title>
<path fill="none" stroke="midnightblue" d="M2494.05,-177.03C2251.71,-177.31 73.63,-178.57 27.9,-132 -20.11,-83.12 93.31,-41.55 159.44,-22.36"/>
<polygon fill="midnightblue" stroke="midnightblue" points="160.56,-25.68 169.23,-19.58 158.65,-18.95 160.56,-25.68"/>
</g>
<!-- Node10 -->
<g id="node10" class="node">
<title>Node10</title>
<g id="a_node10"><a xlink:title=" ">
<polygon fill="white" stroke="#bfbfbf" points="1165.4,-112.5 1165.4,-131.5 1294.4,-131.5 1294.4,-112.5 1165.4,-112.5"/>
<text text-anchor="middle" x="1229.9" y="-119.5" font-family="Helvetica,sans-Serif" font-size="10.00">swla/swla_time_spec.h</text>
</a>
</g>
</g>
<!-- Node2&#45;&gt;Node10 -->
<g id="edge9" class="edge">
<title>Node2&#45;&gt;Node10</title>
<path fill="none" stroke="midnightblue" d="M2494.33,-176.87C2375.93,-176.05 1792.63,-170.17 1304.5,-131.97"/>
<polygon fill="midnightblue" stroke="midnightblue" points="1304.68,-128.47 1294.44,-131.17 1304.13,-135.45 1304.68,-128.47"/>
</g>
<!-- Node11 -->
<g id="node11" class="node">
<title>Node11</title>
<g id="a_node11"><a xlink:title=" ">
<polygon fill="white" stroke="#bfbfbf" points="1312.9,-112.5 1312.9,-131.5 1406.9,-131.5 1406.9,-112.5 1312.9,-112.5"/>
<text text-anchor="middle" x="1359.9" y="-119.5" font-family="Helvetica,sans-Serif" font-size="10.00">swla/swla_oui.h</text>
</a>
</g>
</g>
<!-- Node2&#45;&gt;Node11 -->
<g id="edge10" class="edge">
<title>Node2&#45;&gt;Node11</title>
<path fill="none" stroke="midnightblue" d="M2494.12,-177.07C2381.8,-177.21 1856.58,-175.49 1416.94,-131.97"/>
<polygon fill="midnightblue" stroke="midnightblue" points="1417.19,-128.48 1406.9,-130.97 1416.5,-135.44 1417.19,-128.48"/>
</g>
<!-- Node12 -->
<g id="node12" class="node">
<title>Node12</title>
<g id="a_node12"><a xlink:title=" ">
<polygon fill="white" stroke="#bfbfbf" points="1424.9,-112.5 1424.9,-131.5 1552.9,-131.5 1552.9,-112.5 1424.9,-112.5"/>
<text text-anchor="middle" x="1488.9" y="-119.5" font-family="Helvetica,sans-Serif" font-size="10.00">swla/swla_delayExec.h</text>
</a>
</g>
</g>
<!-- Node2&#45;&gt;Node12 -->
<g id="edge11" class="edge">
<title>Node2&#45;&gt;Node12</title>
<path fill="none" stroke="midnightblue" d="M2494.36,-176.59C2391.8,-174.49 1942.44,-163.9 1563.04,-132.03"/>
<polygon fill="midnightblue" stroke="midnightblue" points="1563.22,-128.53 1552.96,-131.18 1562.63,-135.51 1563.22,-128.53"/>
</g>
<!-- Node13 -->
<g id="node13" class="node">
<title>Node13</title>
<g id="a_node13"><a xlink:title=" ">
<polygon fill="white" stroke="#bfbfbf" points="1571.4,-112.5 1571.4,-131.5 1690.4,-131.5 1690.4,-112.5 1571.4,-112.5"/>
<text text-anchor="middle" x="1630.9" y="-119.5" font-family="Helvetica,sans-Serif" font-size="10.00">swla/swla_function.h</text>
</a>
</g>
</g>
<!-- Node2&#45;&gt;Node13 -->
<g id="edge12" class="edge">
<title>Node2&#45;&gt;Node13</title>
<path fill="none" stroke="midnightblue" d="M2494.39,-176.42C2401.12,-173.78 2022.18,-161.76 1700.55,-132.09"/>
<polygon fill="midnightblue" stroke="midnightblue" points="1700.85,-128.6 1690.57,-131.16 1700.2,-135.57 1700.85,-128.6"/>
</g>
<!-- Node14 -->
<g id="node14" class="node">
<title>Node14</title>
<g id="a_node14"><a xlink:title=" ">
<polygon fill="white" stroke="#bfbfbf" points="1708.4,-112.5 1708.4,-131.5 1849.4,-131.5 1849.4,-112.5 1708.4,-112.5"/>
<text text-anchor="middle" x="1778.9" y="-119.5" font-family="Helvetica,sans-Serif" font-size="10.00">swl/swl_usp_cmdStatus.h</text>
</a>
</g>
</g>
<!-- Node2&#45;&gt;Node14 -->
<g id="edge13" class="edge">
<title>Node2&#45;&gt;Node14</title>
<path fill="none" stroke="midnightblue" d="M2494.32,-175.87C2412.88,-171.51 2116.22,-155 1859.8,-132.04"/>
<polygon fill="midnightblue" stroke="midnightblue" points="1859.82,-128.53 1849.55,-131.12 1859.19,-135.5 1859.82,-128.53"/>
</g>
<!-- Node15 -->
<g id="node15" class="node">
<title>Node15</title>
<g id="a_node15"><a xlink:title=" ">
<polygon fill="white" stroke="#bfbfbf" points="1867.9,-112.5 1867.9,-131.5 1953.9,-131.5 1953.9,-112.5 1867.9,-112.5"/>
<text text-anchor="middle" x="1910.9" y="-119.5" font-family="Helvetica,sans-Serif" font-size="10.00">swl/swl_wps.h</text>
</a>
</g>
</g>
<!-- Node2&#45;&gt;Node15 -->
<g id="edge14" class="edge">
<title>Node2&#45;&gt;Node15</title>
<path fill="none" stroke="midnightblue" d="M2494.22,-175.94C2421.08,-172.22 2176.63,-158.58 1964.08,-132.04"/>
<polygon fill="midnightblue" stroke="midnightblue" points="1964.34,-128.54 1953.98,-130.77 1963.46,-135.49 1964.34,-128.54"/>
</g>
<!-- Node16 -->
<g id="node16" class="node">
<title>Node16</title>
<g id="a_node16"><a xlink:title=" ">
<polygon fill="white" stroke="#bfbfbf" points="1971.9,-112.5 1971.9,-131.5 2075.9,-131.5 2075.9,-112.5 1971.9,-112.5"/>
<text text-anchor="middle" x="2023.9" y="-119.5" font-family="Helvetica,sans-Serif" font-size="10.00">swl/swl_security.h</text>
</a>
</g>
</g>
<!-- Node2&#45;&gt;Node16 -->
<g id="edge15" class="edge">
<title>Node2&#45;&gt;Node16</title>
<path fill="none" stroke="midnightblue" d="M2494.33,-175.08C2432.55,-169.49 2249.37,-152.46 2086.33,-132.13"/>
<polygon fill="midnightblue" stroke="midnightblue" points="2086.48,-128.63 2076.12,-130.85 2085.61,-135.57 2086.48,-128.63"/>
</g>
<!-- Node17 -->
<g id="node17" class="node">
<title>Node17</title>
<g id="a_node17"><a xlink:title=" ">
<polygon fill="white" stroke="#bfbfbf" points="2094.4,-112.5 2094.4,-131.5 2177.4,-131.5 2177.4,-112.5 2094.4,-112.5"/>
<text text-anchor="middle" x="2135.9" y="-119.5" font-family="Helvetica,sans-Serif" font-size="10.00">amxc/amxc.h</text>
</a>
</g>
</g>
<!-- Node2&#45;&gt;Node17 -->
<g id="edge16" class="edge">
<title>Node2&#45;&gt;Node17</title>
<path fill="none" stroke="midnightblue" d="M2494.3,-174.34C2443.03,-167.96 2309.79,-151.03 2187.53,-132.05"/>
<polygon fill="midnightblue" stroke="midnightblue" points="2188.04,-128.58 2177.62,-130.5 2186.96,-135.5 2188.04,-128.58"/>
</g>
<!-- Node18 -->
<g id="node18" class="node">
<title>Node18</title>
<g id="a_node18"><a xlink:title=" ">
<polygon fill="white" stroke="#bfbfbf" points="2195.9,-112.5 2195.9,-131.5 2279.9,-131.5 2279.9,-112.5 2195.9,-112.5"/>
<text text-anchor="middle" x="2237.9" y="-119.5" font-family="Helvetica,sans-Serif" font-size="10.00">amxp/amxp.h</text>
</a>
</g>
</g>
<!-- Node2&#45;&gt;Node18 -->
<g id="edge17" class="edge">
<title>Node2&#45;&gt;Node18</title>
<path fill="none" stroke="midnightblue" d="M2494.08,-172.76C2450.43,-164.28 2351.28,-145.02 2289.92,-133.11"/>
<polygon fill="midnightblue" stroke="midnightblue" points="2290.53,-129.66 2280.04,-131.19 2289.19,-136.53 2290.53,-129.66"/>
</g>
<!-- Node19 -->
<g id="node19" class="node">
<title>Node19</title>
<g id="a_node19"><a xlink:title=" ">
<polygon fill="white" stroke="#bfbfbf" points="2297.9,-112.5 2297.9,-131.5 2437.9,-131.5 2437.9,-112.5 2297.9,-112.5"/>
<text text-anchor="middle" x="2367.9" y="-119.5" font-family="Helvetica,sans-Serif" font-size="10.00">amxd/amxd_parameter.h</text>
</a>
</g>
</g>
<!-- Node2&#45;&gt;Node19 -->
<g id="edge18" class="edge">
<title>Node2&#45;&gt;Node19</title>
<path fill="none" stroke="midnightblue" d="M2494.38,-169.15C2469.85,-160.2 2429.48,-145.47 2400.95,-135.06"/>
<polygon fill="midnightblue" stroke="midnightblue" points="2401.99,-131.72 2391.4,-131.58 2399.59,-138.29 2401.99,-131.72"/>
</g>
<!-- Node20 -->
<g id="node20" class="node">
<title>Node20</title>
<g id="a_node20"><a xlink:title=" ">
<polygon fill="white" stroke="#bfbfbf" points="2456.4,-112.5 2456.4,-131.5 2575.4,-131.5 2575.4,-112.5 2456.4,-112.5"/>
<text text-anchor="middle" x="2515.9" y="-119.5" font-family="Helvetica,sans-Serif" font-size="10.00">amxd/amxd_action.h</text>
</a>
</g>
</g>
<!-- Node2&#45;&gt;Node20 -->
<g id="edge19" class="edge">
<title>Node2&#45;&gt;Node20</title>
<path fill="none" stroke="midnightblue" d="M2515.9,-168.08C2515.9,-161.01 2515.9,-150.86 2515.9,-141.99"/>
<polygon fill="midnightblue" stroke="midnightblue" points="2519.4,-141.75 2515.9,-131.75 2512.4,-141.75 2519.4,-141.75"/>
</g>
<!-- Node21 -->
<g id="node21" class="node">
<title>Node21</title>
<g id="a_node21"><a xlink:title=" ">
<polygon fill="white" stroke="#bfbfbf" points="2593.4,-112.5 2593.4,-131.5 2768.4,-131.5 2768.4,-112.5 2593.4,-112.5"/>
<text text-anchor="middle" x="2680.9" y="-119.5" font-family="Helvetica,sans-Serif" font-size="10.00">amxd/amxd_object_parameter.h</text>
</a>
</g>
</g>
<!-- Node2&#45;&gt;Node21 -->
<g id="edge20" class="edge">
<title>Node2&#45;&gt;Node21</title>
<path fill="none" stroke="midnightblue" d="M2537.47,-169.94C2564.78,-161 2612.22,-145.48 2645.02,-134.74"/>
<polygon fill="midnightblue" stroke="midnightblue" points="2646.28,-138.01 2654.69,-131.58 2644.1,-131.36 2646.28,-138.01"/>
</g>
<!-- Node22 -->
<g id="node22" class="node">
<title>Node22</title>
<g id="a_node22"><a xlink:title=" ">
<polygon fill="white" stroke="#bfbfbf" points="2786.9,-112.5 2786.9,-131.5 2938.9,-131.5 2938.9,-112.5 2786.9,-112.5"/>
<text text-anchor="middle" x="2862.9" y="-119.5" font-family="Helvetica,sans-Serif" font-size="10.00">amxd/amxd_object_event.h</text>
</a>
</g>
</g>
<!-- Node2&#45;&gt;Node22 -->
<g id="edge21" class="edge">
<title>Node2&#45;&gt;Node22</title>
<path fill="none" stroke="midnightblue" d="M2537.6,-173.62C2588.83,-165.65 2718.87,-145.41 2798.15,-133.08"/>
<polygon fill="midnightblue" stroke="midnightblue" points="2798.69,-136.53 2808.03,-131.54 2797.61,-129.62 2798.69,-136.53"/>
</g>
<!-- Node23 -->
<g id="node23" class="node">
<title>Node23</title>
<g id="a_node23"><a xlink:title=" ">
<polygon fill="white" stroke="#bfbfbf" points="2957.4,-112.5 2957.4,-131.5 3086.4,-131.5 3086.4,-112.5 2957.4,-112.5"/>
<text text-anchor="middle" x="3021.9" y="-119.5" font-family="Helvetica,sans-Serif" font-size="10.00">amxd/amxd_function.h</text>
</a>
</g>
</g>
<!-- Node2&#45;&gt;Node23 -->
<g id="edge22" class="edge">
<title>Node2&#45;&gt;Node23</title>
<path fill="none" stroke="midnightblue" d="M2537.49,-174.88C2599.35,-168.79 2782.81,-150.53 2947.04,-132.08"/>
<polygon fill="midnightblue" stroke="midnightblue" points="2947.78,-135.52 2957.33,-130.92 2947,-128.56 2947.78,-135.52"/>
</g>
<!-- Node24 -->
<g id="node24" class="node">
<title>Node24</title>
<g id="a_node24"><a xlink:title=" ">
<polygon fill="white" stroke="#bfbfbf" points="3104.4,-112.5 3104.4,-131.5 3273.4,-131.5 3273.4,-112.5 3104.4,-112.5"/>
<text text-anchor="middle" x="3188.9" y="-119.5" font-family="Helvetica,sans-Serif" font-size="10.00">amxd/amxd_object_hierarchy.h</text>
</a>
</g>
</g>
<!-- Node2&#45;&gt;Node24 -->
<g id="edge23" class="edge">
<title>Node2&#45;&gt;Node24</title>
<path fill="none" stroke="midnightblue" d="M2537.46,-175.46C2612.56,-170.08 2869.74,-151.42 3094.36,-132.03"/>
<polygon fill="midnightblue" stroke="midnightblue" points="3094.69,-135.52 3104.35,-131.17 3094.09,-128.54 3094.69,-135.52"/>
</g>
<!-- Node25 -->
<g id="node25" class="node">
<title>Node25</title>
<g id="a_node25"><a xlink:title=" ">
<polygon fill="white" stroke="#bfbfbf" points="3291.4,-112.5 3291.4,-131.5 3410.4,-131.5 3410.4,-112.5 3291.4,-112.5"/>
<text text-anchor="middle" x="3350.9" y="-119.5" font-family="Helvetica,sans-Serif" font-size="10.00">amxd/amxd_object.h</text>
</a>
</g>
</g>
<!-- Node2&#45;&gt;Node25 -->
<g id="edge24" class="edge">
<title>Node2&#45;&gt;Node25</title>
<path fill="none" stroke="midnightblue" d="M2537.57,-176.29C2627.44,-173.23 2979.76,-160.08 3280.85,-132.03"/>
<polygon fill="midnightblue" stroke="midnightblue" points="3281.46,-135.49 3291.09,-131.07 3280.8,-128.52 3281.46,-135.49"/>
</g>
<!-- Node26 -->
<g id="node26" class="node">
<title>Node26</title>
<g id="a_node26"><a xlink:title=" ">
<polygon fill="white" stroke="#bfbfbf" points="3428.4,-112.5 3428.4,-131.5 3533.4,-131.5 3533.4,-112.5 3428.4,-112.5"/>
<text text-anchor="middle" x="3480.9" y="-119.5" font-family="Helvetica,sans-Serif" font-size="10.00">amxd/amxd_dm.h</text>
</a>
</g>
</g>
<!-- Node2&#45;&gt;Node26 -->
<g id="edge25" class="edge">
<title>Node2&#45;&gt;Node26</title>
<path fill="none" stroke="midnightblue" d="M2537.62,-176.67C2637.2,-175.02 3060.21,-166.28 3418.13,-131.97"/>
<polygon fill="midnightblue" stroke="midnightblue" points="3418.56,-135.45 3428.17,-131 3417.88,-128.48 3418.56,-135.45"/>
</g>
<!-- Node27 -->
<g id="node27" class="node">
<title>Node27</title>
<g id="a_node27"><a xlink:title=" ">
<polygon fill="white" stroke="#bfbfbf" points="3551.9,-112.5 3551.9,-131.5 3695.9,-131.5 3695.9,-112.5 3551.9,-112.5"/>
<text text-anchor="middle" x="3623.9" y="-119.5" font-family="Helvetica,sans-Serif" font-size="10.00">amxd/amxd_transaction.h</text>
</a>
</g>
</g>
<!-- Node2&#45;&gt;Node27 -->
<g id="edge26" class="edge">
<title>Node2&#45;&gt;Node27</title>
<path fill="none" stroke="midnightblue" d="M2537.59,-176.58C2645.06,-174.36 3131.31,-163.08 3541.5,-131.97"/>
<polygon fill="midnightblue" stroke="midnightblue" points="3541.78,-135.46 3551.48,-131.21 3541.25,-128.48 3541.78,-135.46"/>
</g>
<!-- Node28 -->
<g id="node28" class="node">
<title>Node28</title>
<g id="a_node28"><a xlink:title=" ">
<polygon fill="white" stroke="#bfbfbf" points="3713.9,-112.5 3713.9,-131.5 3829.9,-131.5 3829.9,-112.5 3713.9,-112.5"/>
<text text-anchor="middle" x="3771.9" y="-119.5" font-family="Helvetica,sans-Serif" font-size="10.00">amxb/amxb_types.h</text>
</a>
</g>
</g>
<!-- Node2&#45;&gt;Node28 -->
<g id="edge27" class="edge">
<title>Node2&#45;&gt;Node28</title>
<path fill="none" stroke="midnightblue" d="M2537.44,-176.95C2654.49,-176.54 3225.92,-172.49 3703.62,-132.02"/>
<polygon fill="midnightblue" stroke="midnightblue" points="3704.16,-135.48 3713.83,-131.15 3703.57,-128.51 3704.16,-135.48"/>
</g>
<!-- Node29 -->
<g id="node29" class="node">
<title>Node29</title>
<g id="a_node29"><a xlink:title=" ">
<polygon fill="white" stroke="#bfbfbf" points="3847.9,-112.5 3847.9,-131.5 3983.9,-131.5 3983.9,-112.5 3847.9,-112.5"/>
<text text-anchor="middle" x="3915.9" y="-119.5" font-family="Helvetica,sans-Serif" font-size="10.00">amxb/amxb_operators.h</text>
</a>
</g>
</g>
<!-- Node2&#45;&gt;Node29 -->
<g id="edge28" class="edge">
<title>Node2&#45;&gt;Node29</title>
<path fill="none" stroke="midnightblue" d="M2537.75,-176.93C2663.12,-176.39 3303.6,-171.76 3837.28,-132.06"/>
<polygon fill="midnightblue" stroke="midnightblue" points="3837.78,-135.53 3847.49,-131.29 3837.26,-128.55 3837.78,-135.53"/>
</g>
<!-- Node30 -->
<g id="node30" class="node">
<title>Node30</title>
<g id="a_node30"><a xlink:title=" ">
<polygon fill="white" stroke="#bfbfbf" points="4001.9,-112.5 4001.9,-131.5 4113.9,-131.5 4113.9,-112.5 4001.9,-112.5"/>
<text text-anchor="middle" x="4057.9" y="-119.5" font-family="Helvetica,sans-Serif" font-size="10.00">amxb/amxb_error.h</text>
</a>
</g>
</g>
<!-- Node2&#45;&gt;Node30 -->
<g id="edge29" class="edge">
<title>Node2&#45;&gt;Node30</title>
<path fill="none" stroke="midnightblue" d="M2537.63,-177.21C2671.05,-178.33 3392.92,-181.8 3991.44,-132.02"/>
<polygon fill="midnightblue" stroke="midnightblue" points="3991.89,-135.5 4001.57,-131.18 3991.31,-128.52 3991.89,-135.5"/>
</g>
<!-- Node31 -->
<g id="node31" class="node">
<title>Node31</title>
<g id="a_node31"><a xlink:title=" ">
<polygon fill="white" stroke="#bfbfbf" points="4132.4,-112.5 4132.4,-131.5 4215.4,-131.5 4215.4,-112.5 4132.4,-112.5"/>
<text text-anchor="middle" x="4173.9" y="-119.5" font-family="Helvetica,sans-Serif" font-size="10.00">amxo/amxo.h</text>
</a>
</g>
</g>
<!-- Node2&#45;&gt;Node31 -->
<g id="edge30" class="edge">
<title>Node2&#45;&gt;Node31</title>
<path fill="none" stroke="midnightblue" d="M2537.52,-176.83C2703.2,-175.47 3773.87,-165.53 4122.13,-131.87"/>
<polygon fill="midnightblue" stroke="midnightblue" points="4122.61,-135.34 4132.22,-130.87 4121.92,-128.37 4122.61,-135.34"/>
</g>
<!-- Node32 -->
<g id="node32" class="node">
<title>Node32</title>
<g id="a_node32"><a xlink:title=" ">
<polygon fill="white" stroke="#bfbfbf" points="4233.4,-112.5 4233.4,-131.5 4348.4,-131.5 4348.4,-112.5 4233.4,-112.5"/>
<text text-anchor="middle" x="4290.9" y="-119.5" font-family="Helvetica,sans-Serif" font-size="10.00">amxo/amxo_types.h</text>
</a>
</g>
</g>
<!-- Node2&#45;&gt;Node32 -->
<g id="edge31" class="edge">
<title>Node2&#45;&gt;Node32</title>
<path fill="none" stroke="midnightblue" d="M2537.48,-176.75C2708.86,-174.72 3852.38,-160.31 4222.99,-131.95"/>
<polygon fill="midnightblue" stroke="midnightblue" points="4223.5,-135.42 4233.19,-131.15 4222.95,-128.44 4223.5,-135.42"/>
</g>
<!-- Node33 -->
<g id="node33" class="node">
<title>Node33</title>
<g id="a_node33"><a xlink:href="wld__types_8h.html" target="_top" xlink:title=" ">
<polygon fill="white" stroke="black" points="165.4,-56.5 165.4,-75.5 240.4,-75.5 240.4,-56.5 165.4,-56.5"/>
<text text-anchor="middle" x="202.9" y="-63.5" font-family="Helvetica,sans-Serif" font-size="10.00">wld_types.h</text>
</a>
</g>
</g>
<!-- Node2&#45;&gt;Node33 -->
<g id="edge32" class="edge">
<title>Node2&#45;&gt;Node33</title>
<path fill="none" stroke="midnightblue" d="M2494.16,-177.03C2252.99,-177.29 85.41,-178.35 39.9,-132 2.16,-93.57 94.26,-77.22 154.88,-70.78"/>
<polygon fill="midnightblue" stroke="midnightblue" points="155.45,-74.24 165.06,-69.76 154.76,-67.28 155.45,-74.24"/>
</g>
<!-- Node34 -->
<g id="node34" class="node">
<title>Node34</title>
<g id="a_node34"><a xlink:title=" ">
<polygon fill="white" stroke="#bfbfbf" points="380.4,-0.5 380.4,-19.5 525.4,-19.5 525.4,-0.5 380.4,-0.5"/>
<text text-anchor="middle" x="452.9" y="-7.5" font-family="Helvetica,sans-Serif" font-size="10.00">swl/types/swl_arrayType.h</text>
</a>
</g>
</g>
<!-- Node2&#45;&gt;Node34 -->
<g id="edge61" class="edge">
<title>Node2&#45;&gt;Node34</title>
<path fill="none" stroke="midnightblue" d="M2494.17,-176.81C2295.13,-174.99 793.53,-160.36 703.9,-132 645.84,-113.63 644.66,-82.63 589.9,-56 560.12,-41.52 524.54,-29.99 497.11,-22.23"/>
<polygon fill="midnightblue" stroke="midnightblue" points="497.97,-18.83 487.39,-19.54 496.1,-25.58 497.97,-18.83"/>
</g>
<!-- Node35 -->
<g id="node35" class="node">
<title>Node35</title>
<g id="a_node35"><a xlink:title=" ">
<polygon fill="white" stroke="#bfbfbf" points="598.4,-0.5 598.4,-19.5 759.4,-19.5 759.4,-0.5 598.4,-0.5"/>
<text text-anchor="middle" x="678.9" y="-7.5" font-family="Helvetica,sans-Serif" font-size="10.00">swla/swla_namedTupleType.h</text>
</a>
</g>
</g>
<!-- Node2&#45;&gt;Node35 -->
<g id="edge63" class="edge">
<title>Node2&#45;&gt;Node35</title>
<path fill="none" stroke="midnightblue" d="M2494.08,-176.79C2292.7,-174.79 763.9,-158.72 725.9,-132 692.5,-108.53 682.83,-57.7 680.04,-29.97"/>
<polygon fill="midnightblue" stroke="midnightblue" points="683.5,-29.34 679.21,-19.65 676.52,-29.9 683.5,-29.34"/>
</g>
<!-- Node36 -->
<g id="node36" class="node">
<title>Node36</title>
<g id="a_node36"><a xlink:href="wld__channel__types_8h.html" target="_top" xlink:title=" ">
<polygon fill="white" stroke="black" points="521.4,-112.5 521.4,-131.5 640.4,-131.5 640.4,-112.5 521.4,-112.5"/>
<text text-anchor="middle" x="580.9" y="-119.5" font-family="Helvetica,sans-Serif" font-size="10.00">wld_channel_types.h</text>
</a>
</g>
</g>
<!-- Node2&#45;&gt;Node36 -->
<g id="edge37" class="edge">
<title>Node2&#45;&gt;Node36</title>
<path fill="none" stroke="midnightblue" d="M2494.14,-176.77C2311.96,-174.75 1037.67,-159.84 654.9,-132 653.59,-131.9 652.27,-131.8 650.94,-131.7"/>
<polygon fill="midnightblue" stroke="midnightblue" points="650.9,-128.18 640.62,-130.77 650.27,-135.15 650.9,-128.18"/>
</g>
<!-- Node37 -->
<g id="node37" class="node">
<title>Node37</title>
<g id="a_node37"><a xlink:title=" ">
<polygon fill="white" stroke="#bfbfbf" points="436.4,-56.5 436.4,-75.5 561.4,-75.5 561.4,-56.5 436.4,-56.5"/>
<text text-anchor="middle" x="498.9" y="-63.5" font-family="Helvetica,sans-Serif" font-size="10.00">swla/swla_chanspec.h</text>
</a>
</g>
</g>
<!-- Node2&#45;&gt;Node37 -->
<g id="edge55" class="edge">
<title>Node2&#45;&gt;Node37</title>
<path fill="none" stroke="midnightblue" d="M2494.19,-176.89C2280.02,-175.75 551.91,-165.56 511.9,-132 498.83,-121.04 496.53,-100.98 496.92,-86.03"/>
<polygon fill="midnightblue" stroke="midnightblue" points="500.43,-86.05 497.6,-75.84 493.44,-85.58 500.43,-86.05"/>
</g>
<!-- Node38 -->
<g id="node38" class="node">
<title>Node38</title>
<g id="a_node38"><a xlink:href="wld__bgdfs_8h.html" target="_top" xlink:title=" ">
<polygon fill="white" stroke="black" points="49.4,-112.5 49.4,-131.5 124.4,-131.5 124.4,-112.5 49.4,-112.5"/>
<text text-anchor="middle" x="86.9" y="-119.5" font-family="Helvetica,sans-Serif" font-size="10.00">wld_bgdfs.h</text>
</a>
</g>
</g>
<!-- Node2&#45;&gt;Node38 -->
<g id="edge41" class="edge">
<title>Node2&#45;&gt;Node38</title>
<path fill="none" stroke="midnightblue" d="M2494.27,-177.11C2286.96,-178.13 647.95,-184.42 134.54,-131.96"/>
<polygon fill="midnightblue" stroke="midnightblue" points="134.78,-128.46 124.47,-130.91 134.05,-135.43 134.78,-128.46"/>
</g>
<!-- Node39 -->
<g id="node39" class="node">
<title>Node39</title>
<g id="a_node39"><a xlink:href="wld__rad__delayMgr_8h.html" target="_top" xlink:title=" ">
<polygon fill="white" stroke="black" points="4366.9,-112.5 4366.9,-131.5 4480.9,-131.5 4480.9,-112.5 4366.9,-112.5"/>
<text text-anchor="middle" x="4423.9" y="-119.5" font-family="Helvetica,sans-Serif" font-size="10.00">wld_rad_delayMgr.h</text>
</a>
</g>
</g>
<!-- Node2&#45;&gt;Node39 -->
<g id="edge43" class="edge">
<title>Node2&#45;&gt;Node39</title>
<path fill="none" stroke="midnightblue" d="M2537.56,-176.78C2717.94,-174.96 3970.81,-161.85 4347.9,-132 4350.75,-131.77 4353.66,-131.51 4356.61,-131.22"/>
<polygon fill="midnightblue" stroke="midnightblue" points="4357.17,-134.68 4366.73,-130.12 4356.41,-127.72 4357.17,-134.68"/>
</g>
<!-- Node40 -->
<g id="node40" class="node">
<title>Node40</title>
<g id="a_node40"><a xlink:href="wld__fsm_8h.html" target="_top" xlink:title=" ">
<polygon fill="white" stroke="black" points="142.4,-112.5 142.4,-131.5 209.4,-131.5 209.4,-112.5 142.4,-112.5"/>
<text text-anchor="middle" x="175.9" y="-119.5" font-family="Helvetica,sans-Serif" font-size="10.00">wld_fsm.h</text>
</a>
</g>
</g>
<!-- Node2&#45;&gt;Node40 -->
<g id="edge45" class="edge">
<title>Node2&#45;&gt;Node40</title>
<path fill="none" stroke="midnightblue" d="M2494.26,-176.83C2277.69,-175.08 502.14,-160 219.87,-131.92"/>
<polygon fill="midnightblue" stroke="midnightblue" points="220.05,-128.42 209.73,-130.83 219.3,-135.38 220.05,-128.42"/>
</g>
<!-- Node41 -->
<g id="node41" class="node">
<title>Node41</title>
<g id="a_node41"><a xlink:href="wld__sensing_8h.html" target="_top" xlink:title=" ">
<polygon fill="white" stroke="black" points="4498.9,-112.5 4498.9,-131.5 4584.9,-131.5 4584.9,-112.5 4498.9,-112.5"/>
<text text-anchor="middle" x="4541.9" y="-119.5" font-family="Helvetica,sans-Serif" font-size="10.00">wld_sensing.h</text>
</a>
</g>
</g>
<!-- Node2&#45;&gt;Node41 -->
<g id="edge47" class="edge">
<title>Node2&#45;&gt;Node41</title>
<path fill="none" stroke="midnightblue" d="M2537.47,-176.95C2724.76,-176.43 4075.95,-171.44 4480.9,-132 4483.41,-131.76 4485.98,-131.46 4488.59,-131.12"/>
<polygon fill="midnightblue" stroke="midnightblue" points="4489.32,-134.56 4498.72,-129.68 4488.33,-127.63 4489.32,-134.56"/>
</g>
<!-- Node42 -->
<g id="node42" class="node">
<title>Node42</title>
<g id="a_node42"><a xlink:href="wld__mld_8h.html" target="_top" xlink:title=" ">
<polygon fill="white" stroke="black" points="227.4,-112.5 227.4,-131.5 294.4,-131.5 294.4,-112.5 227.4,-112.5"/>
<text text-anchor="middle" x="260.9" y="-119.5" font-family="Helvetica,sans-Serif" font-size="10.00">wld_mld.h</text>
</a>
</g>
</g>
<!-- Node2&#45;&gt;Node42 -->
<g id="edge49" class="edge">
<title>Node2&#45;&gt;Node42</title>
<path fill="none" stroke="midnightblue" d="M2494.28,-177.12C2295.46,-178.1 781.85,-183.85 304.65,-131.8"/>
<polygon fill="midnightblue" stroke="midnightblue" points="304.93,-128.3 294.6,-130.67 304.15,-135.26 304.93,-128.3"/>
</g>
<!-- Node43 -->
<g id="node43" class="node">
<title>Node43</title>
<g id="a_node43"><a xlink:href="wld__autoCommitRadData_8h.html" target="_top" xlink:title=" ">
<polygon fill="white" stroke="black" points="4602.9,-112.5 4602.9,-131.5 4778.9,-131.5 4778.9,-112.5 4602.9,-112.5"/>
<text text-anchor="middle" x="4690.9" y="-119.5" font-family="Helvetica,sans-Serif" font-size="10.00">Utils/wld_autoCommitRadData.h</text>
</a>
</g>
</g>
<!-- Node2&#45;&gt;Node43 -->
<g id="edge51" class="edge">
<title>Node2&#45;&gt;Node43</title>
<path fill="none" stroke="midnightblue" d="M2537.42,-177.11C2698.86,-177.84 3737.32,-180.46 4592.83,-132.01"/>
<polygon fill="midnightblue" stroke="midnightblue" points="4593.1,-135.5 4602.89,-131.44 4592.7,-128.51 4593.1,-135.5"/>
</g>
<!-- Node44 -->
<g id="node44" class="node">
<title>Node44</title>
<g id="a_node44"><a xlink:href="wld__dmnMgt_8h.html" target="_top" xlink:title=" ">
<polygon fill="white" stroke="red" points="312.9,-112.5 312.9,-131.5 426.9,-131.5 426.9,-112.5 312.9,-112.5"/>
<text text-anchor="middle" x="369.9" y="-119.5" font-family="Helvetica,sans-Serif" font-size="10.00">Utils/wld_dmnMgt.h</text>
</a>
</g>
</g>
<!-- Node2&#45;&gt;Node44 -->
<g id="edge52" class="edge">
<title>Node2&#45;&gt;Node44</title>
<path fill="none" stroke="midnightblue" d="M2494.14,-176.84C2300.49,-175.39 869.41,-163.72 440.9,-132 439.78,-131.92 438.66,-131.83 437.52,-131.74"/>
<polygon fill="midnightblue" stroke="midnightblue" points="437.47,-128.22 427.2,-130.78 436.83,-135.19 437.47,-128.22"/>
</g>
<!-- Node46 -->
<g id="node45" class="node">
<title>Node46</title>
<g id="a_node45"><a xlink:title=" ">
<polygon fill="white" stroke="#bfbfbf" points="4797.4,-112.5 4797.4,-131.5 4898.4,-131.5 4898.4,-112.5 4797.4,-112.5"/>
<text text-anchor="middle" x="4847.9" y="-119.5" font-family="Helvetica,sans-Serif" font-size="10.00">swl/swl_staCap.h</text>
</a>
</g>
</g>
<!-- Node2&#45;&gt;Node46 -->
<g id="edge56" class="edge">
<title>Node2&#45;&gt;Node46</title>
<path fill="none" stroke="midnightblue" d="M2537.44,-176.96C2738.91,-176.51 4295.88,-171.85 4787.22,-131.9"/>
<polygon fill="midnightblue" stroke="midnightblue" points="4787.53,-135.39 4797.21,-131.07 4786.96,-128.41 4787.53,-135.39"/>
</g>
<!-- Node47 -->
<g id="node46" class="node">
<title>Node47</title>
<g id="a_node46"><a xlink:title=" ">
<polygon fill="white" stroke="#bfbfbf" points="4916.9,-112.5 4916.9,-131.5 5020.9,-131.5 5020.9,-112.5 4916.9,-112.5"/>
<text text-anchor="middle" x="4968.9" y="-119.5" font-family="Helvetica,sans-Serif" font-size="10.00">swla/swla_table.h</text>
</a>
</g>
</g>
<!-- Node2&#45;&gt;Node47 -->
<g id="edge57" class="edge">
<title>Node2&#45;&gt;Node47</title>
<path fill="none" stroke="midnightblue" d="M2537.59,-176.98C2745.56,-176.69 4389.81,-173.15 4906.57,-131.97"/>
<polygon fill="midnightblue" stroke="midnightblue" points="4907.02,-135.45 4916.7,-131.15 4906.45,-128.47 4907.02,-135.45"/>
</g>
<!-- Node48 -->
<g id="node47" class="node">
<title>Node48</title>
<g id="a_node47"><a xlink:title=" ">
<polygon fill="white" stroke="#bfbfbf" points="5039.4,-112.5 5039.4,-131.5 5136.4,-131.5 5136.4,-112.5 5039.4,-112.5"/>
<text text-anchor="middle" x="5087.9" y="-119.5" font-family="Helvetica,sans-Serif" font-size="10.00">swl/swl_assert.h</text>
</a>
</g>
</g>
<!-- Node2&#45;&gt;Node48 -->
<g id="edge58" class="edge">
<title>Node2&#45;&gt;Node48</title>
<path fill="none" stroke="midnightblue" d="M2537.68,-177.02C2751.89,-177.17 4485.51,-176.98 5028.95,-131.91"/>
<polygon fill="midnightblue" stroke="midnightblue" points="5029.55,-135.38 5039.22,-131.04 5028.96,-128.4 5029.55,-135.38"/>
</g>
<!-- Node2&#45;&gt;Node49 -->
<g id="edge59" class="edge">
<title>Node2&#45;&gt;Node49</title>
<path fill="none" stroke="midnightblue" d="M2537.72,-176.98C2771.58,-176.7 4818.59,-173.09 5426.9,-132 5428.37,-131.9 5429.86,-131.79 5431.35,-131.68"/>
<polygon fill="midnightblue" stroke="midnightblue" points="5431.7,-135.16 5441.36,-130.81 5431.1,-128.19 5431.7,-135.16"/>
</g>
<!-- Node50 -->
<g id="node49" class="node">
<title>Node50</title>
<g id="a_node49"><a xlink:title=" ">
<polygon fill="white" stroke="#bfbfbf" points="5154.9,-112.5 5154.9,-131.5 5280.9,-131.5 5280.9,-112.5 5154.9,-112.5"/>
<text text-anchor="middle" x="5217.9" y="-119.5" font-family="Helvetica,sans-Serif" font-size="10.00">swla/swla_tupleType.h</text>
</a>
</g>
</g>
<!-- Node2&#45;&gt;Node50 -->
<g id="edge60" class="edge">
<title>Node2&#45;&gt;Node50</title>
<path fill="none" stroke="midnightblue" d="M2537.63,-176.95C2757.05,-176.42 4575.73,-170.88 5144.38,-132.01"/>
<polygon fill="midnightblue" stroke="midnightblue" points="5144.98,-135.47 5154.72,-131.29 5144.5,-128.49 5144.98,-135.47"/>
</g>
<!-- Node51 -->
<g id="node50" class="node">
<title>Node51</title>
<g id="a_node50"><a xlink:title=" ">
<polygon fill="white" stroke="#bfbfbf" points="5298.9,-112.5 5298.9,-131.5 5384.9,-131.5 5384.9,-112.5 5298.9,-112.5"/>
<text text-anchor="middle" x="5341.9" y="-119.5" font-family="Helvetica,sans-Serif" font-size="10.00">swl/swl_mlo.h</text>
</a>
</g>
</g>
<!-- Node2&#45;&gt;Node51 -->
<g id="edge62" class="edge">
<title>Node2&#45;&gt;Node51</title>
<path fill="none" stroke="midnightblue" d="M2537.65,-176.85C2778.95,-175.2 4952.49,-159.62 5288.54,-131.89"/>
<polygon fill="midnightblue" stroke="midnightblue" points="5289.18,-135.35 5298.83,-130.98 5288.57,-128.37 5289.18,-135.35"/>
</g>
<!-- Node33&#45;&gt;Node4 -->
<g id="edge33" class="edge">
<title>Node33&#45;&gt;Node4</title>
<path fill="none" stroke="midnightblue" d="M177.07,-56.44C149.65,-47.36 106.12,-32.94 75.46,-22.78"/>
<polygon fill="midnightblue" stroke="midnightblue" points="76.2,-19.34 65.6,-19.52 73.99,-25.98 76.2,-19.34"/>
</g>
<!-- Node33&#45;&gt;Node9 -->
<g id="edge36" class="edge">
<title>Node33&#45;&gt;Node9</title>
<path fill="none" stroke="midnightblue" d="M202.9,-56.08C202.9,-49.01 202.9,-38.86 202.9,-29.99"/>
<polygon fill="midnightblue" stroke="midnightblue" points="206.4,-29.75 202.9,-19.75 199.4,-29.75 206.4,-29.75"/>
</g>
<!-- Node33&#45;&gt;Node34 -->
<g id="edge34" class="edge">
<title>Node33&#45;&gt;Node34</title>
<path fill="none" stroke="midnightblue" d="M240.59,-56.86C284.02,-47.48 355.52,-32.03 403.4,-21.69"/>
<polygon fill="midnightblue" stroke="midnightblue" points="404.2,-25.1 413.24,-19.57 402.72,-18.26 404.2,-25.1"/>
</g>
<!-- Node33&#45;&gt;Node35 -->
<g id="edge35" class="edge">
<title>Node33&#45;&gt;Node35</title>
<path fill="none" stroke="midnightblue" d="M240.64,-60.72C316.51,-52.11 489.13,-32.53 593.66,-20.67"/>
<polygon fill="midnightblue" stroke="midnightblue" points="594.33,-24.12 603.87,-19.51 593.54,-17.16 594.33,-24.12"/>
</g>
<!-- Node36&#45;&gt;Node3 -->
<g id="edge38" class="edge">
<title>Node36&#45;&gt;Node3</title>
<path fill="none" stroke="midnightblue" d="M640.48,-116.72C666.67,-114.99 697.8,-113.14 725.9,-112 1665.22,-73.92 2815.91,-67.96 3047.26,-67.12"/>
<polygon fill="midnightblue" stroke="midnightblue" points="3047.59,-70.62 3057.58,-67.09 3047.56,-63.62 3047.59,-70.62"/>
</g>
<!-- Node36&#45;&gt;Node9 -->
<g id="edge40" class="edge">
<title>Node36&#45;&gt;Node9</title>
<path fill="none" stroke="midnightblue" d="M582.33,-112.38C584.12,-98.36 585.29,-70.71 569.9,-56 548.18,-35.26 362.12,-20.79 263.58,-14.51"/>
<polygon fill="midnightblue" stroke="midnightblue" points="263.65,-11.01 253.46,-13.88 263.22,-18 263.65,-11.01"/>
</g>
<!-- Node36&#45;&gt;Node37 -->
<g id="edge39" class="edge">
<title>Node36&#45;&gt;Node37</title>
<path fill="none" stroke="midnightblue" d="M567.72,-112.32C555.05,-103.98 535.66,-91.21 520.69,-81.35"/>
<polygon fill="midnightblue" stroke="midnightblue" points="522.31,-78.23 512.04,-75.65 518.46,-84.08 522.31,-78.23"/>
</g>
<!-- Node38&#45;&gt;Node33 -->
<g id="edge42" class="edge">
<title>Node38&#45;&gt;Node33</title>
<path fill="none" stroke="midnightblue" d="M105.28,-112.44C124.11,-103.68 153.63,-89.94 175.28,-79.86"/>
<polygon fill="midnightblue" stroke="midnightblue" points="177.01,-82.91 184.6,-75.52 174.06,-76.56 177.01,-82.91"/>
</g>
<!-- Node39&#45;&gt;Node2 -->
<g id="edge44" class="edge">
<title>Node39&#45;&gt;Node2</title>
<path fill="none" stroke="midnightblue" d="M4371.58,-131.51C4369.67,-131.69 4367.77,-131.85 4365.9,-132 3992.71,-161.54 2761.75,-174.69 2547.72,-176.72"/>
<polygon fill="midnightblue" stroke="midnightblue" points="2547.46,-173.22 2537.49,-176.81 2547.52,-180.22 2547.46,-173.22"/>
</g>
<!-- Node40&#45;&gt;Node33 -->
<g id="edge46" class="edge">
<title>Node40&#45;&gt;Node33</title>
<path fill="none" stroke="midnightblue" d="M180.35,-112.08C184.05,-104.69 189.42,-93.95 193.99,-84.81"/>
<polygon fill="midnightblue" stroke="midnightblue" points="197.18,-86.26 198.52,-75.75 190.92,-83.13 197.18,-86.26"/>
</g>
<!-- Node41&#45;&gt;Node2 -->
<g id="edge48" class="edge">
<title>Node41&#45;&gt;Node2</title>
<path fill="none" stroke="midnightblue" d="M4503.32,-131.52C4501.83,-131.7 4500.35,-131.86 4498.9,-132 4097.96,-171.05 2769.41,-176.33 2547.44,-176.93"/>
<polygon fill="midnightblue" stroke="midnightblue" points="2547.42,-173.43 2537.43,-176.96 2547.44,-180.43 2547.42,-173.43"/>
</g>
<!-- Node42&#45;&gt;Node33 -->
<g id="edge50" class="edge">
<title>Node42&#45;&gt;Node33</title>
<path fill="none" stroke="midnightblue" d="M251.58,-112.32C243,-104.34 230.08,-92.31 219.71,-82.65"/>
<polygon fill="midnightblue" stroke="midnightblue" points="222.09,-80.09 212.38,-75.83 217.32,-85.21 222.09,-80.09"/>
</g>
<!-- Node44&#45;&gt;Node5 -->
<g id="edge53" class="edge">
<title>Node44&#45;&gt;Node5</title>
<path fill="none" stroke="midnightblue" d="M368.74,-112.08C367.81,-104.93 366.48,-94.64 365.32,-85.69"/>
<polygon fill="midnightblue" stroke="midnightblue" points="368.79,-85.22 364.03,-75.75 361.84,-86.12 368.79,-85.22"/>
</g>
<!-- Node44&#45;&gt;Node33 -->
<g id="edge54" class="edge">
<title>Node44&#45;&gt;Node33</title>
<path fill="none" stroke="midnightblue" d="M343.43,-112.44C315.22,-103.32 270.36,-88.81 238.93,-78.65"/>
<polygon fill="midnightblue" stroke="midnightblue" points="239.83,-75.26 229.23,-75.52 237.67,-81.92 239.83,-75.26"/>
</g>
</g>
</svg>
