<?xml version="1.0" encoding="UTF-8" standalone="no"?>
<!DOCTYPE svg PUBLIC "-//W3C//DTD SVG 1.1//EN"
 "http://www.w3.org/Graphics/SVG/1.1/DTD/svg11.dtd">
<!-- Generated by graphviz version 2.43.0 (0)
 -->
<!-- Title: wld_extMod_registerData Pages: 1 -->
<svg width="308pt" height="66pt"
 viewBox="0.00 0.00 308.00 66.00" xmlns="http://www.w3.org/2000/svg" xmlns:xlink="http://www.w3.org/1999/xlink">
<g id="graph0" class="graph" transform="scale(1 1) rotate(0) translate(4 62)">
<title>wld_extMod_registerData</title>
<polygon fill="white" stroke="transparent" points="-4,4 -4,-62 304,-62 304,4 -4,4"/>
<!-- Node1 -->
<g id="node1" class="node">
<title>Node1</title>
<g id="a_node1"><a xlink:title="register extModData for a given extenion module">
<polygon fill="#bfbfbf" stroke="black" points="0,-19.5 0,-38.5 142,-38.5 142,-19.5 0,-19.5"/>
<text text-anchor="middle" x="71" y="-26.5" font-family="Helvetica,sans-Serif" font-size="10.00">wld_extMod_registerData</text>
</a>
</g>
</g>
<!-- Node2 -->
<g id="node2" class="node">
<title>Node2</title>
<g id="a_node2"><a xlink:href="wld__extMod_8c.html#a9f5e023c951684b754d84e10ddee14a1" target="_top" xlink:title=" ">
<polygon fill="white" stroke="black" points="206,-38.5 206,-57.5 272,-57.5 272,-38.5 206,-38.5"/>
<text text-anchor="middle" x="239" y="-45.5" font-family="Helvetica,sans-Serif" font-size="10.00">s_getData</text>
</a>
</g>
</g>
<!-- Node1&#45;&gt;Node2 -->
<g id="edge1" class="edge">
<title>Node1&#45;&gt;Node2</title>
<path fill="none" stroke="midnightblue" d="M142.4,-37.06C160.52,-39.13 179.46,-41.3 195.66,-43.15"/>
<polygon fill="midnightblue" stroke="midnightblue" points="195.54,-46.66 205.87,-44.32 196.34,-39.71 195.54,-46.66"/>
</g>
<!-- Node3 -->
<g id="node3" class="node">
<title>Node3</title>
<g id="a_node3"><a xlink:href="wld__extMod_8c.html#a004bceccd8e67090271f23e454a5c0e2" target="_top" xlink:title=" ">
<polygon fill="white" stroke="black" points="178,-0.5 178,-19.5 300,-19.5 300,-0.5 178,-0.5"/>
<text text-anchor="middle" x="239" y="-7.5" font-family="Helvetica,sans-Serif" font-size="10.00">wld_extMod_isValidId</text>
</a>
</g>
</g>
<!-- Node1&#45;&gt;Node3 -->
<g id="edge2" class="edge">
<title>Node1&#45;&gt;Node3</title>
<path fill="none" stroke="midnightblue" d="M142.4,-20.94C150.82,-19.98 159.41,-18.99 167.83,-18.03"/>
<polygon fill="midnightblue" stroke="midnightblue" points="168.44,-21.48 177.98,-16.87 167.65,-14.53 168.44,-21.48"/>
</g>
</g>
</svg>
