<?xml version="1.0" encoding="UTF-8" standalone="no"?>
<!DOCTYPE svg PUBLIC "-//W3C//DTD SVG 1.1//EN"
 "http://www.w3.org/Graphics/SVG/1.1/DTD/svg11.dtd">
<!-- Generated by graphviz version 2.43.0 (0)
 -->
<!-- Title: wld_rad_hostapd_getCfgParamSupp Pages: 1 -->
<svg width="630pt" height="78pt"
 viewBox="0.00 0.00 630.00 77.50" xmlns="http://www.w3.org/2000/svg" xmlns:xlink="http://www.w3.org/1999/xlink">
<g id="graph0" class="graph" transform="scale(1 1) rotate(0) translate(4 73.5)">
<title>wld_rad_hostapd_getCfgParamSupp</title>
<polygon fill="white" stroke="transparent" points="-4,4 -4,-73.5 626,-73.5 626,4 -4,4"/>
<!-- Node1 -->
<g id="node1" class="node">
<title>Node1</title>
<g id="a_node1"><a xlink:title=" ">
<polygon fill="#bfbfbf" stroke="black" points="0,-28 0,-47 191,-47 191,-28 0,-28"/>
<text text-anchor="middle" x="95.5" y="-35" font-family="Helvetica,sans-Serif" font-size="10.00">wld_rad_hostapd_getCfgParamSupp</text>
</a>
</g>
</g>
<!-- Node2 -->
<g id="node2" class="node">
<title>Node2</title>
<g id="a_node2"><a xlink:href="wld__secDmn_8c.html#af259fc7fdc2eb62b9d2b531ef92b6536" target="_top" xlink:title=" ">
<polygon fill="white" stroke="black" points="227,-28 227,-47 398,-47 398,-28 227,-28"/>
<text text-anchor="middle" x="312.5" y="-35" font-family="Helvetica,sans-Serif" font-size="10.00">wld_secDmn_getCfgParamSupp</text>
</a>
</g>
</g>
<!-- Node1&#45;&gt;Node2 -->
<g id="edge1" class="edge">
<title>Node1&#45;&gt;Node2</title>
<path fill="none" stroke="midnightblue" d="M191.12,-37.5C199.7,-37.5 208.39,-37.5 216.98,-37.5"/>
<polygon fill="midnightblue" stroke="midnightblue" points="216.99,-41 226.99,-37.5 216.99,-34 216.99,-41"/>
</g>
<!-- Node3 -->
<g id="node3" class="node">
<title>Node3</title>
<g id="a_node3"><a xlink:href="wld__secDmnGrp_8c.html#af0b4f287e6977f3f12c69dfffbfb213e" target="_top" xlink:title=" ">
<polygon fill="white" stroke="black" points="434,-50 434,-69 622,-69 622,-50 434,-50"/>
<text text-anchor="middle" x="528" y="-57" font-family="Helvetica,sans-Serif" font-size="10.00">wld_secDmnGrp_getMemberByPos</text>
</a>
</g>
</g>
<!-- Node2&#45;&gt;Node3 -->
<g id="edge2" class="edge">
<title>Node2&#45;&gt;Node3</title>
<path fill="none" stroke="midnightblue" d="M398.19,-46.23C406.9,-47.12 415.82,-48.04 424.69,-48.96"/>
<polygon fill="midnightblue" stroke="midnightblue" points="424.38,-52.44 434.69,-49.99 425.1,-45.48 424.38,-52.44"/>
</g>
<!-- Node4 -->
<g id="node4" class="node">
<title>Node4</title>
<g id="a_node4"><a xlink:href="wld__secDmnGrp_8c.html#a7a55988e27b9c7365f21e1b68bc58b85" target="_top" xlink:title=" ">
<polygon fill="white" stroke="black" points="446.5,-0.5 446.5,-30.5 609.5,-30.5 609.5,-0.5 446.5,-0.5"/>
<text text-anchor="start" x="454.5" y="-18.5" font-family="Helvetica,sans-Serif" font-size="10.00">wld_secDmnGrp_getMembers</text>
<text text-anchor="middle" x="528" y="-7.5" font-family="Helvetica,sans-Serif" font-size="10.00">Count</text>
</a>
</g>
</g>
<!-- Node2&#45;&gt;Node4 -->
<g id="edge3" class="edge">
<title>Node2&#45;&gt;Node4</title>
<path fill="none" stroke="midnightblue" d="M398.19,-28.77C410.68,-27.49 423.6,-26.16 436.21,-24.86"/>
<polygon fill="midnightblue" stroke="midnightblue" points="436.65,-28.33 446.24,-23.82 435.94,-21.37 436.65,-28.33"/>
</g>
</g>
</svg>
