<?xml version="1.0" encoding="UTF-8" standalone="no"?>
<!DOCTYPE svg PUBLIC "-//W3C//DTD SVG 1.1//EN"
 "http://www.w3.org/Graphics/SVG/1.1/DTD/svg11.dtd">
<!-- Generated by graphviz version 2.43.0 (0)
 -->
<!-- Title: wld_rad_staMon_getMonitorDevice Pages: 1 -->
<svg width="553pt" height="39pt"
 viewBox="0.00 0.00 553.00 39.00" xmlns="http://www.w3.org/2000/svg" xmlns:xlink="http://www.w3.org/1999/xlink">
<g id="graph0" class="graph" transform="scale(1 1) rotate(0) translate(4 35)">
<title>wld_rad_staMon_getMonitorDevice</title>
<polygon fill="white" stroke="transparent" points="-4,4 -4,-35 549,-35 549,4 -4,4"/>
<!-- Node1 -->
<g id="node1" class="node">
<title>Node1</title>
<g id="a_node1"><a xlink:title=" ">
<polygon fill="#bfbfbf" stroke="black" points="0,-0.5 0,-30.5 155,-30.5 155,-0.5 0,-0.5"/>
<text text-anchor="start" x="8" y="-18.5" font-family="Helvetica,sans-Serif" font-size="10.00">wld_rad_staMon_getMonitor</text>
<text text-anchor="middle" x="77.5" y="-7.5" font-family="Helvetica,sans-Serif" font-size="10.00">Device</text>
</a>
</g>
</g>
<!-- Node2 -->
<g id="node2" class="node">
<title>Node2</title>
<g id="a_node2"><a xlink:href="wld__rad__stamon_8c.html#a0880c50617982aa08ae4b397a0c991ee" target="_top" xlink:title=" ">
<polygon fill="white" stroke="black" points="191,-6 191,-25 342,-25 342,-6 191,-6"/>
<text text-anchor="middle" x="266.5" y="-13" font-family="Helvetica,sans-Serif" font-size="10.00">wld_rad_staMon_getDevice</text>
</a>
</g>
</g>
<!-- Node1&#45;&gt;Node2 -->
<g id="edge1" class="edge">
<title>Node1&#45;&gt;Node2</title>
<path fill="none" stroke="midnightblue" d="M155.1,-15.5C163.58,-15.5 172.26,-15.5 180.83,-15.5"/>
<polygon fill="midnightblue" stroke="midnightblue" points="180.83,-19 190.83,-15.5 180.83,-12 180.83,-19"/>
</g>
<!-- Node3 -->
<g id="node3" class="node">
<title>Node3</title>
<g id="a_node3"><a xlink:href="wld__rad__stamon_8c.html#af36b40de59009e8e854698b638653c37" target="_top" xlink:title=" ">
<polygon fill="white" stroke="black" points="378,-6 378,-25 545,-25 545,-6 378,-6"/>
<text text-anchor="middle" x="461.5" y="-13" font-family="Helvetica,sans-Serif" font-size="10.00">wld_rad_staMon_getDeviceExt</text>
</a>
</g>
</g>
<!-- Node2&#45;&gt;Node3 -->
<g id="edge2" class="edge">
<title>Node2&#45;&gt;Node3</title>
<path fill="none" stroke="midnightblue" d="M342.12,-15.5C350.51,-15.5 359.12,-15.5 367.7,-15.5"/>
<polygon fill="midnightblue" stroke="midnightblue" points="367.74,-19 377.74,-15.5 367.74,-12 367.74,-19"/>
</g>
</g>
</svg>
