<?xml version="1.0" encoding="UTF-8" standalone="no"?>
<!DOCTYPE svg PUBLIC "-//W3C//DTD SVG 1.1//EN"
 "http://www.w3.org/Graphics/SVG/1.1/DTD/svg11.dtd">
<!-- Generated by graphviz version 2.43.0 (0)
 -->
<!-- Title: wld_secDmnGrp_dropMembers Pages: 1 -->
<svg width="577pt" height="28pt"
 viewBox="0.00 0.00 577.00 28.00" xmlns="http://www.w3.org/2000/svg" xmlns:xlink="http://www.w3.org/1999/xlink">
<g id="graph0" class="graph" transform="scale(1 1) rotate(0) translate(4 24)">
<title>wld_secDmnGrp_dropMembers</title>
<polygon fill="white" stroke="transparent" points="-4,4 -4,-24 573,-24 573,4 -4,4"/>
<!-- Node1 -->
<g id="node1" class="node">
<title>Node1</title>
<g id="a_node1"><a xlink:title=" ">
<polygon fill="#bfbfbf" stroke="black" points="400,-0.5 400,-19.5 569,-19.5 569,-0.5 400,-0.5"/>
<text text-anchor="middle" x="484.5" y="-7.5" font-family="Helvetica,sans-Serif" font-size="10.00">wld_secDmnGrp_dropMembers</text>
</a>
</g>
</g>
<!-- Node2 -->
<g id="node2" class="node">
<title>Node2</title>
<g id="a_node2"><a xlink:href="wld__secDmnGrp_8c.html#ad3ef783d401eba947e012002eb598a10" target="_top" xlink:title=" ">
<polygon fill="white" stroke="black" points="224,-0.5 224,-19.5 364,-19.5 364,-0.5 224,-0.5"/>
<text text-anchor="middle" x="294" y="-7.5" font-family="Helvetica,sans-Serif" font-size="10.00">wld_secDmnGrp_cleanup</text>
</a>
</g>
</g>
<!-- Node1&#45;&gt;Node2 -->
<g id="edge1" class="edge">
<title>Node1&#45;&gt;Node2</title>
<path fill="none" stroke="midnightblue" d="M389.82,-10C381.14,-10 372.45,-10 364.04,-10"/>
<polygon fill="midnightblue" stroke="midnightblue" points="390,-13.5 400,-10 390,-6.5 390,-13.5"/>
</g>
<!-- Node3 -->
<g id="node3" class="node">
<title>Node3</title>
<g id="a_node3"><a xlink:href="wld__dmnMgt_8c.html#ac0bd9034c98470602fc7305821765009" target="_top" xlink:title=" ">
<polygon fill="white" stroke="black" points="0,-0.5 0,-19.5 188,-19.5 188,-0.5 0,-0.5"/>
<text text-anchor="middle" x="94" y="-7.5" font-family="Helvetica,sans-Serif" font-size="10.00">wld_dmnMgt_cleanupDmnExecInfo</text>
</a>
</g>
</g>
<!-- Node2&#45;&gt;Node3 -->
<g id="edge2" class="edge">
<title>Node2&#45;&gt;Node3</title>
<path fill="none" stroke="midnightblue" d="M213.66,-10C205.29,-10 196.73,-10 188.22,-10"/>
<polygon fill="midnightblue" stroke="midnightblue" points="213.75,-13.5 223.75,-10 213.75,-6.5 213.75,-13.5"/>
</g>
</g>
</svg>
