<?xml version="1.0" encoding="UTF-8" standalone="no"?>
<!DOCTYPE svg PUBLIC "-//W3C//DTD SVG 1.1//EN"
 "http://www.w3.org/Graphics/SVG/1.1/DTD/svg11.dtd">
<!-- Generated by graphviz version 2.43.0 (0)
 -->
<!-- Title: wld_nl80211_getMaxTxPowerdBm Pages: 1 -->
<svg width="731pt" height="28pt"
 viewBox="0.00 0.00 731.00 28.00" xmlns="http://www.w3.org/2000/svg" xmlns:xlink="http://www.w3.org/1999/xlink">
<g id="graph0" class="graph" transform="scale(1 1) rotate(0) translate(4 24)">
<title>wld_nl80211_getMaxTxPowerdBm</title>
<polygon fill="white" stroke="transparent" points="-4,4 -4,-24 727,-24 727,4 -4,4"/>
<!-- Node1 -->
<g id="node1" class="node">
<title>Node1</title>
<g id="a_node1"><a xlink:title=" ">
<polygon fill="#bfbfbf" stroke="black" points="0,-0.5 0,-19.5 185,-19.5 185,-0.5 0,-0.5"/>
<text text-anchor="middle" x="92.5" y="-7.5" font-family="Helvetica,sans-Serif" font-size="10.00">wld_nl80211_getMaxTxPowerdBm</text>
</a>
</g>
</g>
<!-- Node2 -->
<g id="node2" class="node">
<title>Node2</title>
<g id="a_node2"><a xlink:href="wld__nl80211__api_8c.html#af9a489d0e99a230994b5a268ce672db8" target="_top" xlink:title=" ">
<polygon fill="white" stroke="black" points="221,-0.5 221,-19.5 370,-19.5 370,-0.5 221,-0.5"/>
<text text-anchor="middle" x="295.5" y="-7.5" font-family="Helvetica,sans-Serif" font-size="10.00">wld_nl80211_getWiphyInfo</text>
</a>
</g>
</g>
<!-- Node1&#45;&gt;Node2 -->
<g id="edge1" class="edge">
<title>Node1&#45;&gt;Node2</title>
<path fill="none" stroke="midnightblue" d="M185.18,-10C193.64,-10 202.19,-10 210.58,-10"/>
<polygon fill="midnightblue" stroke="midnightblue" points="210.72,-13.5 220.72,-10 210.72,-6.5 210.72,-13.5"/>
</g>
<!-- Node3 -->
<g id="node3" class="node">
<title>Node3</title>
<g id="a_node3"><a xlink:href="wld__nl80211__core_8c.html#a51795ba7297b263584b02e6dd2d8ddb6" target="_top" xlink:title=" ">
<polygon fill="white" stroke="black" points="406,-0.5 406,-19.5 558,-19.5 558,-0.5 406,-0.5"/>
<text text-anchor="middle" x="482" y="-7.5" font-family="Helvetica,sans-Serif" font-size="10.00">wld_nl80211_sendCmdSync</text>
</a>
</g>
</g>
<!-- Node2&#45;&gt;Node3 -->
<g id="edge2" class="edge">
<title>Node2&#45;&gt;Node3</title>
<path fill="none" stroke="midnightblue" d="M370.21,-10C378.66,-10 387.31,-10 395.89,-10"/>
<polygon fill="midnightblue" stroke="midnightblue" points="395.89,-13.5 405.89,-10 395.89,-6.5 395.89,-13.5"/>
</g>
<!-- Node4 -->
<g id="node4" class="node">
<title>Node4</title>
<g id="a_node4"><a xlink:href="wld__nl80211__core_8c.html#a3c5a525596463f925b95bbc76036d07e" target="_top" xlink:title=" ">
<polygon fill="white" stroke="black" points="594,-0.5 594,-19.5 723,-19.5 723,-0.5 594,-0.5"/>
<text text-anchor="middle" x="658.5" y="-7.5" font-family="Helvetica,sans-Serif" font-size="10.00">wld_nl80211_sendCmd</text>
</a>
</g>
</g>
<!-- Node3&#45;&gt;Node4 -->
<g id="edge3" class="edge">
<title>Node3&#45;&gt;Node4</title>
<path fill="none" stroke="midnightblue" d="M558.02,-10C566.49,-10 575.12,-10 583.57,-10"/>
<polygon fill="midnightblue" stroke="midnightblue" points="583.78,-13.5 593.78,-10 583.78,-6.5 583.78,-13.5"/>
</g>
</g>
</svg>
