<?xml version="1.0" encoding="UTF-8" standalone="no"?>
<!DOCTYPE svg PUBLIC "-//W3C//DTD SVG 1.1//EN"
 "http://www.w3.org/Graphics/SVG/1.1/DTD/svg11.dtd">
<!-- Generated by graphviz version 2.43.0 (0)
 -->
<!-- Title: src/nl80211/wld_wpaSupp_ep_api.c Pages: 1 -->
<svg width="5082pt" height="319pt"
 viewBox="0.00 0.00 5082.08 319.00" xmlns="http://www.w3.org/2000/svg" xmlns:xlink="http://www.w3.org/1999/xlink">
<g id="graph0" class="graph" transform="scale(1 1) rotate(0) translate(4 315)">
<title>src/nl80211/wld_wpaSupp_ep_api.c</title>
<polygon fill="white" stroke="transparent" points="-4,4 -4,-315 5078.08,-315 5078.08,4 -4,4"/>
<!-- Node1 -->
<g id="node1" class="node">
<title>Node1</title>
<g id="a_node1"><a xlink:title=" ">
<polygon fill="#bfbfbf" stroke="black" points="2364.58,-280.5 2364.58,-310.5 2507.58,-310.5 2507.58,-280.5 2364.58,-280.5"/>
<text text-anchor="start" x="2372.58" y="-298.5" font-family="Helvetica,sans-Serif" font-size="10.00">src/nl80211/wld_wpaSupp</text>
<text text-anchor="middle" x="2436.08" y="-287.5" font-family="Helvetica,sans-Serif" font-size="10.00">_ep_api.c</text>
</a>
</g>
</g>
<!-- Node2 -->
<g id="node2" class="node">
<title>Node2</title>
<g id="a_node2"><a xlink:href="wld_8h.html" target="_top" xlink:title=" ">
<polygon fill="white" stroke="red" points="2414.58,-168.5 2414.58,-187.5 2457.58,-187.5 2457.58,-168.5 2414.58,-168.5"/>
<text text-anchor="middle" x="2436.08" y="-175.5" font-family="Helvetica,sans-Serif" font-size="10.00">wld.h</text>
</a>
</g>
</g>
<!-- Node1&#45;&gt;Node2 -->
<g id="edge1" class="edge">
<title>Node1&#45;&gt;Node2</title>
<path fill="none" stroke="midnightblue" d="M2364.12,-282.99C2320.46,-272.7 2277.04,-254.44 2299.08,-224 2322.96,-191.03 2371.78,-181.79 2404.22,-179.43"/>
<polygon fill="midnightblue" stroke="midnightblue" points="2404.74,-182.91 2414.54,-178.87 2404.36,-175.92 2404.74,-182.91"/>
</g>
<!-- Node75 -->
<g id="node45" class="node">
<title>Node75</title>
<g id="a_node45"><a xlink:href="wld__util_8h.html" target="_top" xlink:title=" ">
<polygon fill="white" stroke="black" points="2308.08,-224.5 2308.08,-243.5 2372.08,-243.5 2372.08,-224.5 2308.08,-224.5"/>
<text text-anchor="middle" x="2340.08" y="-231.5" font-family="Helvetica,sans-Serif" font-size="10.00">wld_util.h</text>
</a>
</g>
</g>
<!-- Node1&#45;&gt;Node75 -->
<g id="edge56" class="edge">
<title>Node1&#45;&gt;Node75</title>
<path fill="none" stroke="midnightblue" d="M2413.33,-280.4C2398.09,-270.95 2378.09,-258.56 2362.85,-249.11"/>
<polygon fill="midnightblue" stroke="midnightblue" points="2364.39,-245.95 2354.05,-243.66 2360.71,-251.9 2364.39,-245.95"/>
</g>
<!-- Node76 -->
<g id="node46" class="node">
<title>Node76</title>
<g id="a_node46"><a xlink:href="wld__wpaSupp__cfgFile_8h.html" target="_top" xlink:title=" ">
<polygon fill="white" stroke="black" points="2591.08,-224.5 2591.08,-243.5 2721.08,-243.5 2721.08,-224.5 2591.08,-224.5"/>
<text text-anchor="middle" x="2656.08" y="-231.5" font-family="Helvetica,sans-Serif" font-size="10.00">wld_wpaSupp_cfgFile.h</text>
</a>
</g>
</g>
<!-- Node1&#45;&gt;Node76 -->
<g id="edge58" class="edge">
<title>Node1&#45;&gt;Node76</title>
<path fill="none" stroke="midnightblue" d="M2487.94,-280.47C2526.72,-269.99 2579.04,-255.84 2614.96,-246.12"/>
<polygon fill="midnightblue" stroke="midnightblue" points="2615.89,-249.5 2624.63,-243.51 2614.06,-242.74 2615.89,-249.5"/>
</g>
<!-- Node77 -->
<g id="node47" class="node">
<title>Node77</title>
<g id="a_node47"><a xlink:href="wld__wpaSupp__ep__api_8h.html" target="_top" xlink:title=" ">
<polygon fill="white" stroke="red" points="2739.08,-224.5 2739.08,-243.5 2869.08,-243.5 2869.08,-224.5 2739.08,-224.5"/>
<text text-anchor="middle" x="2804.08" y="-231.5" font-family="Helvetica,sans-Serif" font-size="10.00">wld_wpaSupp_ep_api.h</text>
</a>
</g>
</g>
<!-- Node1&#45;&gt;Node77 -->
<g id="edge59" class="edge">
<title>Node1&#45;&gt;Node77</title>
<path fill="none" stroke="midnightblue" d="M2507.91,-282.89C2575.81,-271.91 2676.67,-255.6 2741.4,-245.13"/>
<polygon fill="midnightblue" stroke="midnightblue" points="2742.16,-248.56 2751.47,-243.51 2741.04,-241.65 2742.16,-248.56"/>
</g>
<!-- Node79 -->
<g id="node48" class="node">
<title>Node79</title>
<g id="a_node48"><a xlink:href="wld__wpaCtrl__api_8h.html" target="_top" xlink:title=" ">
<polygon fill="white" stroke="red" points="471.08,-168.5 471.08,-187.5 577.08,-187.5 577.08,-168.5 471.08,-168.5"/>
<text text-anchor="middle" x="524.08" y="-175.5" font-family="Helvetica,sans-Serif" font-size="10.00">wld_wpaCtrl_api.h</text>
</a>
</g>
</g>
<!-- Node1&#45;&gt;Node79 -->
<g id="edge60" class="edge">
<title>Node1&#45;&gt;Node79</title>
<path fill="none" stroke="midnightblue" d="M2364.33,-290.17C2059.66,-271.76 875.63,-200.24 587.53,-182.83"/>
<polygon fill="midnightblue" stroke="midnightblue" points="587.46,-179.32 577.27,-182.21 587.04,-186.31 587.46,-179.32"/>
</g>
<!-- Node80 -->
<g id="node49" class="node">
<title>Node80</title>
<g id="a_node49"><a xlink:href="wld__endpoint_8h.html" target="_top" xlink:title=" ">
<polygon fill="white" stroke="red" points="2390.58,-224.5 2390.58,-243.5 2481.58,-243.5 2481.58,-224.5 2390.58,-224.5"/>
<text text-anchor="middle" x="2436.08" y="-231.5" font-family="Helvetica,sans-Serif" font-size="10.00">wld_endpoint.h</text>
</a>
</g>
</g>
<!-- Node1&#45;&gt;Node80 -->
<g id="edge62" class="edge">
<title>Node1&#45;&gt;Node80</title>
<path fill="none" stroke="midnightblue" d="M2436.08,-280.4C2436.08,-272.47 2436.08,-262.46 2436.08,-253.86"/>
<polygon fill="midnightblue" stroke="midnightblue" points="2439.58,-253.66 2436.08,-243.66 2432.58,-253.66 2439.58,-253.66"/>
</g>
<!-- Node81 -->
<g id="node50" class="node">
<title>Node81</title>
<g id="a_node50"><a xlink:href="wld__radio_8h.html" target="_top" xlink:title=" ">
<polygon fill="white" stroke="red" points="2499.58,-224.5 2499.58,-243.5 2572.58,-243.5 2572.58,-224.5 2499.58,-224.5"/>
<text text-anchor="middle" x="2536.08" y="-231.5" font-family="Helvetica,sans-Serif" font-size="10.00">wld_radio.h</text>
</a>
</g>
</g>
<!-- Node1&#45;&gt;Node81 -->
<g id="edge64" class="edge">
<title>Node1&#45;&gt;Node81</title>
<path fill="none" stroke="midnightblue" d="M2459.78,-280.4C2475.81,-270.86 2496.88,-258.32 2512.82,-248.84"/>
<polygon fill="midnightblue" stroke="midnightblue" points="2514.73,-251.78 2521.53,-243.66 2511.15,-245.76 2514.73,-251.78"/>
</g>
<!-- Node3 -->
<g id="node3" class="node">
<title>Node3</title>
<g id="a_node3"><a xlink:title=" ">
<polygon fill="white" stroke="#bfbfbf" points="5012.08,-56.5 5012.08,-75.5 5074.08,-75.5 5074.08,-56.5 5012.08,-56.5"/>
<text text-anchor="middle" x="5043.08" y="-63.5" font-family="Helvetica,sans-Serif" font-size="10.00">stdbool.h</text>
</a>
</g>
</g>
<!-- Node2&#45;&gt;Node3 -->
<g id="edge2" class="edge">
<title>Node2&#45;&gt;Node3</title>
<path fill="none" stroke="midnightblue" d="M2457.92,-176.96C2704.82,-176.51 4963.76,-171.26 5019.08,-132 5033.78,-121.57 5039.49,-101.09 5041.71,-85.89"/>
<polygon fill="midnightblue" stroke="midnightblue" points="5045.23,-85.87 5042.81,-75.55 5038.27,-85.12 5045.23,-85.87"/>
</g>
<!-- Node4 -->
<g id="node4" class="node">
<title>Node4</title>
<g id="a_node4"><a xlink:title=" ">
<polygon fill="white" stroke="#bfbfbf" points="100.58,-0.5 100.58,-19.5 153.58,-19.5 153.58,-0.5 100.58,-0.5"/>
<text text-anchor="middle" x="127.08" y="-7.5" font-family="Helvetica,sans-Serif" font-size="10.00">stdint.h</text>
</a>
</g>
</g>
<!-- Node2&#45;&gt;Node4 -->
<g id="edge3" class="edge">
<title>Node2&#45;&gt;Node4</title>
<path fill="none" stroke="midnightblue" d="M2414.39,-176.9C2178.17,-175.8 91.47,-165.16 38.08,-132 7.37,-112.92 -11.43,-85.77 9.08,-56 27.23,-29.66 63,-18.73 90.43,-14.2"/>
<polygon fill="midnightblue" stroke="midnightblue" points="91.07,-17.64 100.48,-12.75 90.08,-10.71 91.07,-17.64"/>
</g>
<!-- Node5 -->
<g id="node5" class="node">
<title>Node5</title>
<g id="a_node5"><a xlink:title=" ">
<polygon fill="white" stroke="#bfbfbf" points="18.08,-56.5 18.08,-75.5 128.08,-75.5 128.08,-56.5 18.08,-56.5"/>
<text text-anchor="middle" x="73.08" y="-63.5" font-family="Helvetica,sans-Serif" font-size="10.00">swl/swl_common.h</text>
</a>
</g>
</g>
<!-- Node2&#45;&gt;Node5 -->
<g id="edge4" class="edge">
<title>Node2&#45;&gt;Node5</title>
<path fill="none" stroke="midnightblue" d="M2414.38,-177.01C2178.09,-177.11 90.94,-176.69 47.08,-132 33.99,-118.66 46.01,-97.88 57.7,-83.42"/>
<polygon fill="midnightblue" stroke="midnightblue" points="60.45,-85.6 64.35,-75.74 55.16,-81.01 60.45,-85.6"/>
</g>
<!-- Node6 -->
<g id="node6" class="node">
<title>Node6</title>
<g id="a_node6"><a xlink:title=" ">
<polygon fill="white" stroke="#bfbfbf" points="490.08,-112.5 490.08,-131.5 626.08,-131.5 626.08,-112.5 490.08,-112.5"/>
<text text-anchor="middle" x="558.08" y="-119.5" font-family="Helvetica,sans-Serif" font-size="10.00">swla/swla_commonLib.h</text>
</a>
</g>
</g>
<!-- Node2&#45;&gt;Node6 -->
<g id="edge5" class="edge">
<title>Node2&#45;&gt;Node6</title>
<path fill="none" stroke="midnightblue" d="M2414.16,-177.21C2264.07,-178.49 1372.47,-183.58 636.49,-132.03"/>
<polygon fill="midnightblue" stroke="midnightblue" points="636.71,-128.54 626.49,-131.32 636.21,-135.52 636.71,-128.54"/>
</g>
<!-- Node7 -->
<g id="node7" class="node">
<title>Node7</title>
<g id="a_node7"><a xlink:title=" ">
<polygon fill="white" stroke="#bfbfbf" points="644.08,-112.5 644.08,-131.5 732.08,-131.5 732.08,-112.5 644.08,-112.5"/>
<text text-anchor="middle" x="688.08" y="-119.5" font-family="Helvetica,sans-Serif" font-size="10.00">swl/swl_uuid.h</text>
</a>
</g>
</g>
<!-- Node2&#45;&gt;Node7 -->
<g id="edge6" class="edge">
<title>Node2&#45;&gt;Node7</title>
<path fill="none" stroke="midnightblue" d="M2414.38,-176.85C2243.29,-175.58 1109.04,-166.04 742.36,-131.95"/>
<polygon fill="midnightblue" stroke="midnightblue" points="742.55,-128.45 732.27,-130.98 741.89,-135.42 742.55,-128.45"/>
</g>
<!-- Node8 -->
<g id="node8" class="node">
<title>Node8</title>
<g id="a_node8"><a xlink:title=" ">
<polygon fill="white" stroke="#bfbfbf" points="750.08,-112.5 750.08,-131.5 902.08,-131.5 902.08,-112.5 750.08,-112.5"/>
<text text-anchor="middle" x="826.08" y="-119.5" font-family="Helvetica,sans-Serif" font-size="10.00">swla/swla_radioStandards.h</text>
</a>
</g>
</g>
<!-- Node2&#45;&gt;Node8 -->
<g id="edge7" class="edge">
<title>Node2&#45;&gt;Node8</title>
<path fill="none" stroke="midnightblue" d="M2414.55,-176.98C2279.24,-176.73 1532.27,-173.48 912.54,-132.04"/>
<polygon fill="midnightblue" stroke="midnightblue" points="912.73,-128.55 902.51,-131.37 912.26,-135.53 912.73,-128.55"/>
</g>
<!-- Node9 -->
<g id="node9" class="node">
<title>Node9</title>
<g id="a_node9"><a xlink:title=" ">
<polygon fill="white" stroke="#bfbfbf" points="4751.58,-0.5 4751.58,-19.5 4852.58,-19.5 4852.58,-0.5 4751.58,-0.5"/>
<text text-anchor="middle" x="4802.08" y="-7.5" font-family="Helvetica,sans-Serif" font-size="10.00">swla/swla_time.h</text>
</a>
</g>
</g>
<!-- Node2&#45;&gt;Node9 -->
<g id="edge8" class="edge">
<title>Node2&#45;&gt;Node9</title>
<path fill="none" stroke="midnightblue" d="M2457.75,-176.98C2691.55,-176.67 4739.03,-172.81 4785.08,-132 4813.7,-106.64 4810.44,-57 4806.01,-29.85"/>
<polygon fill="midnightblue" stroke="midnightblue" points="4809.4,-28.92 4804.13,-19.73 4802.52,-30.2 4809.4,-28.92"/>
</g>
<!-- Node10 -->
<g id="node10" class="node">
<title>Node10</title>
<g id="a_node10"><a xlink:title=" ">
<polygon fill="white" stroke="#bfbfbf" points="920.58,-112.5 920.58,-131.5 1049.58,-131.5 1049.58,-112.5 920.58,-112.5"/>
<text text-anchor="middle" x="985.08" y="-119.5" font-family="Helvetica,sans-Serif" font-size="10.00">swla/swla_time_spec.h</text>
</a>
</g>
</g>
<!-- Node2&#45;&gt;Node10 -->
<g id="edge9" class="edge">
<title>Node2&#45;&gt;Node10</title>
<path fill="none" stroke="midnightblue" d="M2414.18,-177.01C2285.72,-176.91 1617.02,-174.36 1059.87,-131.98"/>
<polygon fill="midnightblue" stroke="midnightblue" points="1059.86,-128.46 1049.62,-131.19 1059.33,-135.44 1059.86,-128.46"/>
</g>
<!-- Node11 -->
<g id="node11" class="node">
<title>Node11</title>
<g id="a_node11"><a xlink:title=" ">
<polygon fill="white" stroke="#bfbfbf" points="1068.08,-112.5 1068.08,-131.5 1162.08,-131.5 1162.08,-112.5 1068.08,-112.5"/>
<text text-anchor="middle" x="1115.08" y="-119.5" font-family="Helvetica,sans-Serif" font-size="10.00">swla/swla_oui.h</text>
</a>
</g>
</g>
<!-- Node2&#45;&gt;Node11 -->
<g id="edge10" class="edge">
<title>Node2&#45;&gt;Node11</title>
<path fill="none" stroke="midnightblue" d="M2414.36,-177.23C2292.47,-178.32 1681.17,-181.04 1172.5,-132.01"/>
<polygon fill="midnightblue" stroke="midnightblue" points="1172.68,-128.51 1162.38,-131.02 1172,-135.48 1172.68,-128.51"/>
</g>
<!-- Node12 -->
<g id="node12" class="node">
<title>Node12</title>
<g id="a_node12"><a xlink:title=" ">
<polygon fill="white" stroke="#bfbfbf" points="1180.08,-112.5 1180.08,-131.5 1308.08,-131.5 1308.08,-112.5 1180.08,-112.5"/>
<text text-anchor="middle" x="1244.08" y="-119.5" font-family="Helvetica,sans-Serif" font-size="10.00">swla/swla_delayExec.h</text>
</a>
</g>
</g>
<!-- Node2&#45;&gt;Node12 -->
<g id="edge11" class="edge">
<title>Node2&#45;&gt;Node12</title>
<path fill="none" stroke="midnightblue" d="M2414.33,-176.79C2301.01,-175.58 1766.6,-168.13 1318.38,-132.03"/>
<polygon fill="midnightblue" stroke="midnightblue" points="1318.4,-128.52 1308.15,-131.2 1317.83,-135.5 1318.4,-128.52"/>
</g>
<!-- Node13 -->
<g id="node13" class="node">
<title>Node13</title>
<g id="a_node13"><a xlink:title=" ">
<polygon fill="white" stroke="#bfbfbf" points="1326.58,-112.5 1326.58,-131.5 1445.58,-131.5 1445.58,-112.5 1326.58,-112.5"/>
<text text-anchor="middle" x="1386.08" y="-119.5" font-family="Helvetica,sans-Serif" font-size="10.00">swla/swla_function.h</text>
</a>
</g>
</g>
<!-- Node2&#45;&gt;Node13 -->
<g id="edge12" class="edge">
<title>Node2&#45;&gt;Node13</title>
<path fill="none" stroke="midnightblue" d="M2414.26,-176.69C2309.32,-175.07 1845.86,-166.28 1455.82,-132.08"/>
<polygon fill="midnightblue" stroke="midnightblue" points="1456.02,-128.59 1445.75,-131.19 1455.41,-135.56 1456.02,-128.59"/>
</g>
<!-- Node14 -->
<g id="node14" class="node">
<title>Node14</title>
<g id="a_node14"><a xlink:title=" ">
<polygon fill="white" stroke="#bfbfbf" points="1463.58,-112.5 1463.58,-131.5 1604.58,-131.5 1604.58,-112.5 1463.58,-112.5"/>
<text text-anchor="middle" x="1534.08" y="-119.5" font-family="Helvetica,sans-Serif" font-size="10.00">swl/swl_usp_cmdStatus.h</text>
</a>
</g>
</g>
<!-- Node2&#45;&gt;Node14 -->
<g id="edge13" class="edge">
<title>Node2&#45;&gt;Node14</title>
<path fill="none" stroke="midnightblue" d="M2414.46,-176.27C2320.67,-173.02 1939.62,-158.83 1614.81,-132.01"/>
<polygon fill="midnightblue" stroke="midnightblue" points="1614.99,-128.51 1604.73,-131.17 1614.41,-135.49 1614.99,-128.51"/>
</g>
<!-- Node15 -->
<g id="node15" class="node">
<title>Node15</title>
<g id="a_node15"><a xlink:title=" ">
<polygon fill="white" stroke="#bfbfbf" points="1623.08,-112.5 1623.08,-131.5 1709.08,-131.5 1709.08,-112.5 1623.08,-112.5"/>
<text text-anchor="middle" x="1666.08" y="-119.5" font-family="Helvetica,sans-Serif" font-size="10.00">swl/swl_wps.h</text>
</a>
</g>
</g>
<!-- Node2&#45;&gt;Node15 -->
<g id="edge14" class="edge">
<title>Node2&#45;&gt;Node15</title>
<path fill="none" stroke="midnightblue" d="M2414.57,-176.51C2328.4,-174.35 1999.74,-164.42 1719.12,-131.99"/>
<polygon fill="midnightblue" stroke="midnightblue" points="1719.5,-128.51 1709.16,-130.83 1718.69,-135.46 1719.5,-128.51"/>
</g>
<!-- Node16 -->
<g id="node16" class="node">
<title>Node16</title>
<g id="a_node16"><a xlink:title=" ">
<polygon fill="white" stroke="#bfbfbf" points="1727.08,-112.5 1727.08,-131.5 1831.08,-131.5 1831.08,-112.5 1727.08,-112.5"/>
<text text-anchor="middle" x="1779.08" y="-119.5" font-family="Helvetica,sans-Serif" font-size="10.00">swl/swl_security.h</text>
</a>
</g>
</g>
<!-- Node2&#45;&gt;Node16 -->
<g id="edge15" class="edge">
<title>Node2&#45;&gt;Node16</title>
<path fill="none" stroke="midnightblue" d="M2414.38,-175.92C2337.65,-171.99 2071.82,-157.36 1841.54,-132.09"/>
<polygon fill="midnightblue" stroke="midnightblue" points="1841.62,-128.57 1831.29,-130.95 1840.85,-135.53 1841.62,-128.57"/>
</g>
<!-- Node17 -->
<g id="node17" class="node">
<title>Node17</title>
<g id="a_node17"><a xlink:title=" ">
<polygon fill="white" stroke="#bfbfbf" points="1849.58,-112.5 1849.58,-131.5 1932.58,-131.5 1932.58,-112.5 1849.58,-112.5"/>
<text text-anchor="middle" x="1891.08" y="-119.5" font-family="Helvetica,sans-Serif" font-size="10.00">amxc/amxc.h</text>
</a>
</g>
</g>
<!-- Node2&#45;&gt;Node17 -->
<g id="edge16" class="edge">
<title>Node2&#45;&gt;Node17</title>
<path fill="none" stroke="midnightblue" d="M2414.34,-175.67C2346.36,-171.39 2131.63,-156.81 1942.89,-131.99"/>
<polygon fill="midnightblue" stroke="midnightblue" points="1943.16,-128.5 1932.79,-130.65 1942.24,-135.44 1943.16,-128.5"/>
</g>
<!-- Node18 -->
<g id="node18" class="node">
<title>Node18</title>
<g id="a_node18"><a xlink:title=" ">
<polygon fill="white" stroke="#bfbfbf" points="1951.08,-112.5 1951.08,-131.5 2035.08,-131.5 2035.08,-112.5 1951.08,-112.5"/>
<text text-anchor="middle" x="1993.08" y="-119.5" font-family="Helvetica,sans-Serif" font-size="10.00">amxp/amxp.h</text>
</a>
</g>
</g>
<!-- Node2&#45;&gt;Node18 -->
<g id="edge17" class="edge">
<title>Node2&#45;&gt;Node18</title>
<path fill="none" stroke="midnightblue" d="M2414.35,-174.97C2356.25,-169.45 2192.33,-153.22 2045.45,-132.12"/>
<polygon fill="midnightblue" stroke="midnightblue" points="2045.75,-128.63 2035.35,-130.66 2044.75,-135.56 2045.75,-128.63"/>
</g>
<!-- Node19 -->
<g id="node19" class="node">
<title>Node19</title>
<g id="a_node19"><a xlink:title=" ">
<polygon fill="white" stroke="#bfbfbf" points="2053.08,-112.5 2053.08,-131.5 2193.08,-131.5 2193.08,-112.5 2053.08,-112.5"/>
<text text-anchor="middle" x="2123.08" y="-119.5" font-family="Helvetica,sans-Serif" font-size="10.00">amxd/amxd_parameter.h</text>
</a>
</g>
</g>
<!-- Node2&#45;&gt;Node19 -->
<g id="edge18" class="edge">
<title>Node2&#45;&gt;Node19</title>
<path fill="none" stroke="midnightblue" d="M2414.57,-173.29C2367.37,-165.15 2253.35,-145.47 2182.71,-133.29"/>
<polygon fill="midnightblue" stroke="midnightblue" points="2183.07,-129.8 2172.62,-131.55 2181.88,-136.7 2183.07,-129.8"/>
</g>
<!-- Node20 -->
<g id="node20" class="node">
<title>Node20</title>
<g id="a_node20"><a xlink:title=" ">
<polygon fill="white" stroke="#bfbfbf" points="2211.58,-112.5 2211.58,-131.5 2330.58,-131.5 2330.58,-112.5 2211.58,-112.5"/>
<text text-anchor="middle" x="2271.08" y="-119.5" font-family="Helvetica,sans-Serif" font-size="10.00">amxd/amxd_action.h</text>
</a>
</g>
</g>
<!-- Node2&#45;&gt;Node20 -->
<g id="edge19" class="edge">
<title>Node2&#45;&gt;Node20</title>
<path fill="none" stroke="midnightblue" d="M2414.51,-169.94C2387.2,-161 2339.76,-145.48 2306.96,-134.74"/>
<polygon fill="midnightblue" stroke="midnightblue" points="2307.88,-131.36 2297.29,-131.58 2305.7,-138.01 2307.88,-131.36"/>
</g>
<!-- Node21 -->
<g id="node21" class="node">
<title>Node21</title>
<g id="a_node21"><a xlink:title=" ">
<polygon fill="white" stroke="#bfbfbf" points="2348.58,-112.5 2348.58,-131.5 2523.58,-131.5 2523.58,-112.5 2348.58,-112.5"/>
<text text-anchor="middle" x="2436.08" y="-119.5" font-family="Helvetica,sans-Serif" font-size="10.00">amxd/amxd_object_parameter.h</text>
</a>
</g>
</g>
<!-- Node2&#45;&gt;Node21 -->
<g id="edge20" class="edge">
<title>Node2&#45;&gt;Node21</title>
<path fill="none" stroke="midnightblue" d="M2436.08,-168.08C2436.08,-161.01 2436.08,-150.86 2436.08,-141.99"/>
<polygon fill="midnightblue" stroke="midnightblue" points="2439.58,-141.75 2436.08,-131.75 2432.58,-141.75 2439.58,-141.75"/>
</g>
<!-- Node22 -->
<g id="node22" class="node">
<title>Node22</title>
<g id="a_node22"><a xlink:title=" ">
<polygon fill="white" stroke="#bfbfbf" points="2542.08,-112.5 2542.08,-131.5 2694.08,-131.5 2694.08,-112.5 2542.08,-112.5"/>
<text text-anchor="middle" x="2618.08" y="-119.5" font-family="Helvetica,sans-Serif" font-size="10.00">amxd/amxd_object_event.h</text>
</a>
</g>
</g>
<!-- Node2&#45;&gt;Node22 -->
<g id="edge21" class="edge">
<title>Node2&#45;&gt;Node22</title>
<path fill="none" stroke="midnightblue" d="M2457.67,-170.59C2487.63,-161.71 2542.28,-145.49 2579.37,-134.48"/>
<polygon fill="midnightblue" stroke="midnightblue" points="2580.75,-137.73 2589.34,-131.53 2578.76,-131.02 2580.75,-137.73"/>
</g>
<!-- Node23 -->
<g id="node23" class="node">
<title>Node23</title>
<g id="a_node23"><a xlink:title=" ">
<polygon fill="white" stroke="#bfbfbf" points="2712.58,-112.5 2712.58,-131.5 2841.58,-131.5 2841.58,-112.5 2712.58,-112.5"/>
<text text-anchor="middle" x="2777.08" y="-119.5" font-family="Helvetica,sans-Serif" font-size="10.00">amxd/amxd_function.h</text>
</a>
</g>
</g>
<!-- Node2&#45;&gt;Node23 -->
<g id="edge22" class="edge">
<title>Node2&#45;&gt;Node23</title>
<path fill="none" stroke="midnightblue" d="M2457.67,-173.58C2508.11,-165.59 2635.3,-145.45 2713.11,-133.13"/>
<polygon fill="midnightblue" stroke="midnightblue" points="2713.95,-136.54 2723.28,-131.52 2712.85,-129.63 2713.95,-136.54"/>
</g>
<!-- Node24 -->
<g id="node24" class="node">
<title>Node24</title>
<g id="a_node24"><a xlink:title=" ">
<polygon fill="white" stroke="#bfbfbf" points="2859.58,-112.5 2859.58,-131.5 3028.58,-131.5 3028.58,-112.5 2859.58,-112.5"/>
<text text-anchor="middle" x="2944.08" y="-119.5" font-family="Helvetica,sans-Serif" font-size="10.00">amxd/amxd_object_hierarchy.h</text>
</a>
</g>
</g>
<!-- Node2&#45;&gt;Node24 -->
<g id="edge23" class="edge">
<title>Node2&#45;&gt;Node24</title>
<path fill="none" stroke="midnightblue" d="M2457.59,-174.71C2524.63,-167.59 2732.61,-145.48 2853.83,-132.59"/>
<polygon fill="midnightblue" stroke="midnightblue" points="2854.27,-136.07 2863.85,-131.53 2853.53,-129.11 2854.27,-136.07"/>
</g>
<!-- Node25 -->
<g id="node25" class="node">
<title>Node25</title>
<g id="a_node25"><a xlink:title=" ">
<polygon fill="white" stroke="#bfbfbf" points="3046.58,-112.5 3046.58,-131.5 3165.58,-131.5 3165.58,-112.5 3046.58,-112.5"/>
<text text-anchor="middle" x="3106.08" y="-119.5" font-family="Helvetica,sans-Serif" font-size="10.00">amxd/amxd_object.h</text>
</a>
</g>
</g>
<!-- Node2&#45;&gt;Node25 -->
<g id="edge24" class="edge">
<title>Node2&#45;&gt;Node25</title>
<path fill="none" stroke="midnightblue" d="M2457.72,-175.83C2534.86,-171.56 2803.83,-155.89 3036.4,-132.12"/>
<polygon fill="midnightblue" stroke="midnightblue" points="3036.81,-135.6 3046.4,-131.09 3036.09,-128.64 3036.81,-135.6"/>
</g>
<!-- Node26 -->
<g id="node26" class="node">
<title>Node26</title>
<g id="a_node26"><a xlink:title=" ">
<polygon fill="white" stroke="#bfbfbf" points="3183.58,-112.5 3183.58,-131.5 3288.58,-131.5 3288.58,-112.5 3183.58,-112.5"/>
<text text-anchor="middle" x="3236.08" y="-119.5" font-family="Helvetica,sans-Serif" font-size="10.00">amxd/amxd_dm.h</text>
</a>
</g>
</g>
<!-- Node2&#45;&gt;Node26 -->
<g id="edge25" class="edge">
<title>Node2&#45;&gt;Node26</title>
<path fill="none" stroke="midnightblue" d="M2457.6,-176.36C2545.26,-173.63 2884.15,-161.71 3173.28,-132.1"/>
<polygon fill="midnightblue" stroke="midnightblue" points="3173.96,-135.55 3183.55,-131.04 3173.24,-128.59 3173.96,-135.55"/>
</g>
<!-- Node27 -->
<g id="node27" class="node">
<title>Node27</title>
<g id="a_node27"><a xlink:title=" ">
<polygon fill="white" stroke="#bfbfbf" points="3307.08,-112.5 3307.08,-131.5 3451.08,-131.5 3451.08,-112.5 3307.08,-112.5"/>
<text text-anchor="middle" x="3379.08" y="-119.5" font-family="Helvetica,sans-Serif" font-size="10.00">amxd/amxd_transaction.h</text>
</a>
</g>
</g>
<!-- Node2&#45;&gt;Node27 -->
<g id="edge26" class="edge">
<title>Node2&#45;&gt;Node27</title>
<path fill="none" stroke="midnightblue" d="M2457.76,-176.34C2554.43,-173.28 2955.94,-159.54 3296.62,-132.07"/>
<polygon fill="midnightblue" stroke="midnightblue" points="3296.99,-135.55 3306.68,-131.26 3296.43,-128.58 3296.99,-135.55"/>
</g>
<!-- Node28 -->
<g id="node28" class="node">
<title>Node28</title>
<g id="a_node28"><a xlink:title=" ">
<polygon fill="white" stroke="#bfbfbf" points="3469.08,-112.5 3469.08,-131.5 3585.08,-131.5 3585.08,-112.5 3469.08,-112.5"/>
<text text-anchor="middle" x="3527.08" y="-119.5" font-family="Helvetica,sans-Serif" font-size="10.00">amxb/amxb_types.h</text>
</a>
</g>
</g>
<!-- Node2&#45;&gt;Node28 -->
<g id="edge27" class="edge">
<title>Node2&#45;&gt;Node28</title>
<path fill="none" stroke="midnightblue" d="M2457.75,-176.77C2565.06,-175.47 3050.46,-167.84 3458.78,-132.03"/>
<polygon fill="midnightblue" stroke="midnightblue" points="3459.36,-135.49 3469.01,-131.12 3458.74,-128.52 3459.36,-135.49"/>
</g>
<!-- Node29 -->
<g id="node29" class="node">
<title>Node29</title>
<g id="a_node29"><a xlink:title=" ">
<polygon fill="white" stroke="#bfbfbf" points="3603.08,-112.5 3603.08,-131.5 3739.08,-131.5 3739.08,-112.5 3603.08,-112.5"/>
<text text-anchor="middle" x="3671.08" y="-119.5" font-family="Helvetica,sans-Serif" font-size="10.00">amxb/amxb_operators.h</text>
</a>
</g>
</g>
<!-- Node2&#45;&gt;Node29 -->
<g id="edge28" class="edge">
<title>Node2&#45;&gt;Node29</title>
<path fill="none" stroke="midnightblue" d="M2457.81,-176.78C2573.41,-175.5 3128.03,-167.71 3592.41,-132.07"/>
<polygon fill="midnightblue" stroke="midnightblue" points="3592.97,-135.53 3602.68,-131.27 3592.43,-128.56 3592.97,-135.53"/>
</g>
<!-- Node30 -->
<g id="node30" class="node">
<title>Node30</title>
<g id="a_node30"><a xlink:title=" ">
<polygon fill="white" stroke="#bfbfbf" points="3757.08,-112.5 3757.08,-131.5 3869.08,-131.5 3869.08,-112.5 3757.08,-112.5"/>
<text text-anchor="middle" x="3813.08" y="-119.5" font-family="Helvetica,sans-Serif" font-size="10.00">amxb/amxb_error.h</text>
</a>
</g>
</g>
<!-- Node2&#45;&gt;Node30 -->
<g id="edge29" class="edge">
<title>Node2&#45;&gt;Node30</title>
<path fill="none" stroke="midnightblue" d="M2457.77,-177.09C2582.17,-177.46 3217.68,-177 3746.63,-132.03"/>
<polygon fill="midnightblue" stroke="midnightblue" points="3747.09,-135.5 3756.75,-131.16 3746.49,-128.53 3747.09,-135.5"/>
</g>
<!-- Node31 -->
<g id="node31" class="node">
<title>Node31</title>
<g id="a_node31"><a xlink:title=" ">
<polygon fill="white" stroke="#bfbfbf" points="3887.58,-112.5 3887.58,-131.5 3970.58,-131.5 3970.58,-112.5 3887.58,-112.5"/>
<text text-anchor="middle" x="3929.08" y="-119.5" font-family="Helvetica,sans-Serif" font-size="10.00">amxo/amxo.h</text>
</a>
</g>
</g>
<!-- Node2&#45;&gt;Node31 -->
<g id="edge30" class="edge">
<title>Node2&#45;&gt;Node31</title>
<path fill="none" stroke="midnightblue" d="M2457.69,-176.75C2613.24,-174.9 3564.58,-162.51 3877.44,-131.86"/>
<polygon fill="midnightblue" stroke="midnightblue" points="3877.8,-135.34 3887.4,-130.86 3877.1,-128.38 3877.8,-135.34"/>
</g>
<!-- Node32 -->
<g id="node32" class="node">
<title>Node32</title>
<g id="a_node32"><a xlink:title=" ">
<polygon fill="white" stroke="#bfbfbf" points="3988.58,-112.5 3988.58,-131.5 4103.58,-131.5 4103.58,-112.5 3988.58,-112.5"/>
<text text-anchor="middle" x="4046.08" y="-119.5" font-family="Helvetica,sans-Serif" font-size="10.00">amxo/amxo_types.h</text>
</a>
</g>
</g>
<!-- Node2&#45;&gt;Node32 -->
<g id="edge31" class="edge">
<title>Node2&#45;&gt;Node32</title>
<path fill="none" stroke="midnightblue" d="M2457.9,-177.24C2595.01,-178.54 3351.84,-183.12 3978.39,-132.05"/>
<polygon fill="midnightblue" stroke="midnightblue" points="3978.85,-135.52 3988.53,-131.22 3978.28,-128.55 3978.85,-135.52"/>
</g>
<!-- Node33 -->
<g id="node33" class="node">
<title>Node33</title>
<g id="a_node33"><a xlink:href="wld__types_8h.html" target="_top" xlink:title=" ">
<polygon fill="white" stroke="red" points="226.58,-56.5 226.58,-75.5 301.58,-75.5 301.58,-56.5 226.58,-56.5"/>
<text text-anchor="middle" x="264.08" y="-63.5" font-family="Helvetica,sans-Serif" font-size="10.00">wld_types.h</text>
</a>
</g>
</g>
<!-- Node2&#45;&gt;Node33 -->
<g id="edge32" class="edge">
<title>Node2&#45;&gt;Node33</title>
<path fill="none" stroke="midnightblue" d="M2414.54,-176.98C2188.42,-176.74 257.7,-173.45 217.08,-132 201.7,-116.3 223.15,-95.25 241.86,-81.42"/>
<polygon fill="midnightblue" stroke="midnightblue" points="243.95,-84.23 250.12,-75.62 239.93,-78.5 243.95,-84.23"/>
</g>
<!-- Node36 -->
<g id="node34" class="node">
<title>Node36</title>
<g id="a_node34"><a xlink:href="wld__channel__types_8h.html" target="_top" xlink:title=" ">
<polygon fill="white" stroke="black" points="4890.58,-112.5 4890.58,-131.5 5009.58,-131.5 5009.58,-112.5 4890.58,-112.5"/>
<text text-anchor="middle" x="4950.08" y="-119.5" font-family="Helvetica,sans-Serif" font-size="10.00">wld_channel_types.h</text>
</a>
</g>
</g>
<!-- Node2&#45;&gt;Node36 -->
<g id="edge35" class="edge">
<title>Node2&#45;&gt;Node36</title>
<path fill="none" stroke="midnightblue" d="M2457.81,-176.88C2669.23,-175.63 4363.44,-164.7 4869.08,-132 4872.76,-131.76 4876.52,-131.48 4880.32,-131.16"/>
<polygon fill="midnightblue" stroke="midnightblue" points="4880.77,-134.64 4890.42,-130.26 4880.15,-127.67 4880.77,-134.64"/>
</g>
<!-- Node37 -->
<g id="node35" class="node">
<title>Node37</title>
<g id="a_node35"><a xlink:title=" ">
<polygon fill="white" stroke="#bfbfbf" points="4830.58,-56.5 4830.58,-75.5 4955.58,-75.5 4955.58,-56.5 4830.58,-56.5"/>
<text text-anchor="middle" x="4893.08" y="-63.5" font-family="Helvetica,sans-Serif" font-size="10.00">swla/swla_chanspec.h</text>
</a>
</g>
</g>
<!-- Node2&#45;&gt;Node37 -->
<g id="edge53" class="edge">
<title>Node2&#45;&gt;Node37</title>
<path fill="none" stroke="midnightblue" d="M2457.73,-177.01C2689.24,-177.11 4701.63,-176.7 4818.08,-132 4843.6,-122.21 4866.29,-99.59 4879.86,-83.81"/>
<polygon fill="midnightblue" stroke="midnightblue" points="4882.75,-85.8 4886.42,-75.87 4877.35,-81.35 4882.75,-85.8"/>
</g>
<!-- Node38 -->
<g id="node36" class="node">
<title>Node38</title>
<g id="a_node36"><a xlink:href="wld__bgdfs_8h.html" target="_top" xlink:title=" ">
<polygon fill="white" stroke="black" points="226.58,-112.5 226.58,-131.5 301.58,-131.5 301.58,-112.5 226.58,-112.5"/>
<text text-anchor="middle" x="264.08" y="-119.5" font-family="Helvetica,sans-Serif" font-size="10.00">wld_bgdfs.h</text>
</a>
</g>
</g>
<!-- Node2&#45;&gt;Node38 -->
<g id="edge39" class="edge">
<title>Node2&#45;&gt;Node38</title>
<path fill="none" stroke="midnightblue" d="M2414.39,-177.06C2219.71,-177.49 769.73,-179.12 311.63,-131.95"/>
<polygon fill="midnightblue" stroke="midnightblue" points="311.97,-128.47 301.66,-130.9 311.23,-135.43 311.97,-128.47"/>
</g>
<!-- Node39 -->
<g id="node37" class="node">
<title>Node39</title>
<g id="a_node37"><a xlink:href="wld__rad__delayMgr_8h.html" target="_top" xlink:title=" ">
<polygon fill="white" stroke="black" points="4122.08,-112.5 4122.08,-131.5 4236.08,-131.5 4236.08,-112.5 4122.08,-112.5"/>
<text text-anchor="middle" x="4179.08" y="-119.5" font-family="Helvetica,sans-Serif" font-size="10.00">wld_rad_delayMgr.h</text>
</a>
</g>
</g>
<!-- Node2&#45;&gt;Node39 -->
<g id="edge41" class="edge">
<title>Node2&#45;&gt;Node39</title>
<path fill="none" stroke="midnightblue" d="M2457.78,-176.72C2628.96,-174.55 3762.08,-159.82 4104.08,-132 4106.6,-131.79 4109.18,-131.56 4111.78,-131.3"/>
<polygon fill="midnightblue" stroke="midnightblue" points="4112.35,-134.76 4121.91,-130.19 4111.59,-127.8 4112.35,-134.76"/>
</g>
<!-- Node40 -->
<g id="node38" class="node">
<title>Node40</title>
<g id="a_node38"><a xlink:href="wld__fsm_8h.html" target="_top" xlink:title=" ">
<polygon fill="white" stroke="black" points="319.58,-112.5 319.58,-131.5 386.58,-131.5 386.58,-112.5 319.58,-112.5"/>
<text text-anchor="middle" x="353.08" y="-119.5" font-family="Helvetica,sans-Serif" font-size="10.00">wld_fsm.h</text>
</a>
</g>
</g>
<!-- Node2&#45;&gt;Node40 -->
<g id="edge43" class="edge">
<title>Node2&#45;&gt;Node40</title>
<path fill="none" stroke="midnightblue" d="M2414.36,-177.09C2223.99,-177.78 836.57,-181.08 397.12,-131.99"/>
<polygon fill="midnightblue" stroke="midnightblue" points="397.25,-128.49 386.92,-130.82 396.45,-135.44 397.25,-128.49"/>
</g>
<!-- Node41 -->
<g id="node39" class="node">
<title>Node41</title>
<g id="a_node39"><a xlink:href="wld__sensing_8h.html" target="_top" xlink:title=" ">
<polygon fill="white" stroke="black" points="4254.08,-112.5 4254.08,-131.5 4340.08,-131.5 4340.08,-112.5 4254.08,-112.5"/>
<text text-anchor="middle" x="4297.08" y="-119.5" font-family="Helvetica,sans-Serif" font-size="10.00">wld_sensing.h</text>
</a>
</g>
</g>
<!-- Node2&#45;&gt;Node41 -->
<g id="edge45" class="edge">
<title>Node2&#45;&gt;Node41</title>
<path fill="none" stroke="midnightblue" d="M2457.63,-176.89C2635.85,-175.95 3866.38,-168.39 4236.08,-132 4238.6,-131.75 4241.17,-131.45 4243.78,-131.12"/>
<polygon fill="midnightblue" stroke="midnightblue" points="4244.5,-134.55 4253.91,-129.67 4243.51,-127.62 4244.5,-134.55"/>
</g>
<!-- Node42 -->
<g id="node40" class="node">
<title>Node42</title>
<g id="a_node40"><a xlink:href="wld__mld_8h.html" target="_top" xlink:title=" ">
<polygon fill="white" stroke="black" points="404.58,-112.5 404.58,-131.5 471.58,-131.5 471.58,-112.5 404.58,-112.5"/>
<text text-anchor="middle" x="438.08" y="-119.5" font-family="Helvetica,sans-Serif" font-size="10.00">wld_mld.h</text>
</a>
</g>
</g>
<!-- Node2&#45;&gt;Node42 -->
<g id="edge47" class="edge">
<title>Node2&#45;&gt;Node42</title>
<path fill="none" stroke="midnightblue" d="M2414.4,-177.05C2228.77,-177.39 904.03,-178.21 481.89,-131.8"/>
<polygon fill="midnightblue" stroke="midnightblue" points="482.12,-128.31 471.79,-130.66 481.33,-135.26 482.12,-128.31"/>
</g>
<!-- Node43 -->
<g id="node41" class="node">
<title>Node43</title>
<g id="a_node41"><a xlink:href="wld__autoCommitRadData_8h.html" target="_top" xlink:title=" ">
<polygon fill="white" stroke="black" points="4358.08,-112.5 4358.08,-131.5 4534.08,-131.5 4534.08,-112.5 4358.08,-112.5"/>
<text text-anchor="middle" x="4446.08" y="-119.5" font-family="Helvetica,sans-Serif" font-size="10.00">Utils/wld_autoCommitRadData.h</text>
</a>
</g>
</g>
<!-- Node2&#45;&gt;Node43 -->
<g id="edge49" class="edge">
<title>Node2&#45;&gt;Node43</title>
<path fill="none" stroke="midnightblue" d="M2457.84,-177.06C2612.62,-177.35 3563.19,-177.17 4347.98,-132.02"/>
<polygon fill="midnightblue" stroke="midnightblue" points="4348.29,-135.5 4358.07,-131.43 4347.89,-128.52 4348.29,-135.5"/>
</g>
<!-- Node44 -->
<g id="node42" class="node">
<title>Node44</title>
<g id="a_node42"><a xlink:href="wld__dmnMgt_8h.html" target="_top" xlink:title=" ">
<polygon fill="white" stroke="red" points="56.08,-112.5 56.08,-131.5 170.08,-131.5 170.08,-112.5 56.08,-112.5"/>
<text text-anchor="middle" x="113.08" y="-119.5" font-family="Helvetica,sans-Serif" font-size="10.00">Utils/wld_dmnMgt.h</text>
</a>
</g>
</g>
<!-- Node2&#45;&gt;Node44 -->
<g id="edge50" class="edge">
<title>Node2&#45;&gt;Node44</title>
<path fill="none" stroke="midnightblue" d="M2414.41,-176.89C2212.08,-175.77 650.63,-166.13 184.08,-132 182.97,-131.92 181.84,-131.83 180.71,-131.74"/>
<polygon fill="midnightblue" stroke="midnightblue" points="180.66,-128.22 170.38,-130.79 180.02,-135.19 180.66,-128.22"/>
</g>
<!-- Node46 -->
<g id="node43" class="node">
<title>Node46</title>
<g id="a_node43"><a xlink:title=" ">
<polygon fill="white" stroke="#bfbfbf" points="4552.58,-112.5 4552.58,-131.5 4653.58,-131.5 4653.58,-112.5 4552.58,-112.5"/>
<text text-anchor="middle" x="4603.08" y="-119.5" font-family="Helvetica,sans-Serif" font-size="10.00">swl/swl_staCap.h</text>
</a>
</g>
</g>
<!-- Node2&#45;&gt;Node46 -->
<g id="edge54" class="edge">
<title>Node2&#45;&gt;Node46</title>
<path fill="none" stroke="midnightblue" d="M2457.87,-176.92C2651.86,-176.14 4086.17,-169.22 4542.14,-131.93"/>
<polygon fill="midnightblue" stroke="midnightblue" points="4542.72,-135.39 4552.4,-131.07 4542.14,-128.41 4542.72,-135.39"/>
</g>
<!-- Node47 -->
<g id="node44" class="node">
<title>Node47</title>
<g id="a_node44"><a xlink:title=" ">
<polygon fill="white" stroke="#bfbfbf" points="4672.08,-112.5 4672.08,-131.5 4776.08,-131.5 4776.08,-112.5 4672.08,-112.5"/>
<text text-anchor="middle" x="4724.08" y="-119.5" font-family="Helvetica,sans-Serif" font-size="10.00">swla/swla_table.h</text>
</a>
</g>
</g>
<!-- Node2&#45;&gt;Node47 -->
<g id="edge55" class="edge">
<title>Node2&#45;&gt;Node47</title>
<path fill="none" stroke="midnightblue" d="M2457.83,-176.94C2657.83,-176.34 4180.54,-170.57 4661.75,-131.97"/>
<polygon fill="midnightblue" stroke="midnightblue" points="4662.21,-135.45 4671.89,-131.14 4661.64,-128.47 4662.21,-135.45"/>
</g>
<!-- Node33&#45;&gt;Node4 -->
<g id="edge33" class="edge">
<title>Node33&#45;&gt;Node4</title>
<path fill="none" stroke="midnightblue" d="M242.37,-56.44C219.73,-47.52 184.01,-33.44 158.33,-23.32"/>
<polygon fill="midnightblue" stroke="midnightblue" points="159.28,-19.93 148.69,-19.52 156.71,-26.44 159.28,-19.93"/>
</g>
<!-- Node33&#45;&gt;Node9 -->
<g id="edge34" class="edge">
<title>Node33&#45;&gt;Node9</title>
<path fill="none" stroke="midnightblue" d="M301.61,-64.55C704.94,-59.75 4233.14,-17.77 4741.23,-11.72"/>
<polygon fill="midnightblue" stroke="midnightblue" points="4741.33,-15.22 4751.29,-11.6 4741.25,-8.22 4741.33,-15.22"/>
</g>
<!-- Node36&#45;&gt;Node3 -->
<g id="edge36" class="edge">
<title>Node36&#45;&gt;Node3</title>
<path fill="none" stroke="midnightblue" d="M4965.02,-112.32C4979.67,-103.82 5002.22,-90.73 5019.32,-80.8"/>
<polygon fill="midnightblue" stroke="midnightblue" points="5021.29,-83.7 5028.18,-75.65 5017.77,-77.65 5021.29,-83.7"/>
</g>
<!-- Node36&#45;&gt;Node9 -->
<g id="edge38" class="edge">
<title>Node36&#45;&gt;Node9</title>
<path fill="none" stroke="midnightblue" d="M4956.04,-112.49C4964.59,-99.12 4977.99,-72.95 4965.08,-56 4952.47,-39.44 4903.82,-27.42 4862.92,-19.99"/>
<polygon fill="midnightblue" stroke="midnightblue" points="4863.44,-16.53 4852.99,-18.24 4862.23,-23.42 4863.44,-16.53"/>
</g>
<!-- Node36&#45;&gt;Node37 -->
<g id="edge37" class="edge">
<title>Node36&#45;&gt;Node37</title>
<path fill="none" stroke="midnightblue" d="M4940.92,-112.32C4932.58,-104.42 4920.05,-92.55 4909.91,-82.94"/>
<polygon fill="midnightblue" stroke="midnightblue" points="4912.07,-80.17 4902.41,-75.83 4907.26,-85.25 4912.07,-80.17"/>
</g>
<!-- Node38&#45;&gt;Node33 -->
<g id="edge40" class="edge">
<title>Node38&#45;&gt;Node33</title>
<path fill="none" stroke="midnightblue" d="M264.08,-112.08C264.08,-105.01 264.08,-94.86 264.08,-85.99"/>
<polygon fill="midnightblue" stroke="midnightblue" points="267.58,-85.75 264.08,-75.75 260.58,-85.75 267.58,-85.75"/>
</g>
<!-- Node39&#45;&gt;Node2 -->
<g id="edge42" class="edge">
<title>Node39&#45;&gt;Node2</title>
<path fill="none" stroke="midnightblue" d="M4127.68,-131.5C4125.8,-131.68 4123.93,-131.85 4122.08,-132 3783.77,-159.52 2671.29,-174.23 2468.06,-176.64"/>
<polygon fill="midnightblue" stroke="midnightblue" points="2467.73,-173.15 2457.77,-176.77 2467.81,-180.15 2467.73,-173.15"/>
</g>
<!-- Node40&#45;&gt;Node33 -->
<g id="edge44" class="edge">
<title>Node40&#45;&gt;Node33</title>
<path fill="none" stroke="midnightblue" d="M338.78,-112.32C324.9,-103.9 303.59,-90.97 287.28,-81.07"/>
<polygon fill="midnightblue" stroke="midnightblue" points="288.71,-77.85 278.35,-75.65 285.08,-83.83 288.71,-77.85"/>
</g>
<!-- Node41&#45;&gt;Node2 -->
<g id="edge46" class="edge">
<title>Node41&#45;&gt;Node2</title>
<path fill="none" stroke="midnightblue" d="M4258.51,-131.52C4257.02,-131.7 4255.54,-131.86 4254.08,-132 3888.2,-168.02 2679.2,-175.79 2467.74,-176.86"/>
<polygon fill="midnightblue" stroke="midnightblue" points="2467.6,-173.36 2457.62,-176.91 2467.64,-180.36 2467.6,-173.36"/>
</g>
<!-- Node42&#45;&gt;Node33 -->
<g id="edge48" class="edge">
<title>Node42&#45;&gt;Node33</title>
<path fill="none" stroke="midnightblue" d="M410.51,-112.44C380.98,-103.28 333.96,-88.69 301.2,-78.52"/>
<polygon fill="midnightblue" stroke="midnightblue" points="302.11,-75.14 291.52,-75.52 300.04,-81.82 302.11,-75.14"/>
</g>
<!-- Node44&#45;&gt;Node5 -->
<g id="edge51" class="edge">
<title>Node44&#45;&gt;Node5</title>
<path fill="none" stroke="midnightblue" d="M106.48,-112.08C100.83,-104.46 92.54,-93.26 85.63,-83.94"/>
<polygon fill="midnightblue" stroke="midnightblue" points="88.33,-81.7 79.56,-75.75 82.7,-85.87 88.33,-81.7"/>
</g>
<!-- Node44&#45;&gt;Node33 -->
<g id="edge52" class="edge">
<title>Node44&#45;&gt;Node33</title>
<path fill="none" stroke="midnightblue" d="M137.01,-112.44C162.3,-103.4 202.38,-89.06 230.76,-78.92"/>
<polygon fill="midnightblue" stroke="midnightblue" points="232.03,-82.18 240.27,-75.52 229.67,-75.59 232.03,-82.18"/>
</g>
<!-- Node75&#45;&gt;Node2 -->
<g id="edge57" class="edge">
<title>Node75&#45;&gt;Node2</title>
<path fill="none" stroke="midnightblue" d="M2355.51,-224.32C2370.62,-215.82 2393.9,-202.73 2411.55,-192.8"/>
<polygon fill="midnightblue" stroke="midnightblue" points="2413.7,-195.61 2420.7,-187.65 2410.26,-189.51 2413.7,-195.61"/>
</g>
<!-- Node79&#45;&gt;Node5 -->
<g id="edge61" class="edge">
<title>Node79&#45;&gt;Node5</title>
<path fill="none" stroke="midnightblue" d="M471.01,-176.28C346.64,-174.05 44.51,-165.23 14.08,-132 -2.11,-114.32 23.88,-93.82 46.33,-80.65"/>
<polygon fill="midnightblue" stroke="midnightblue" points="48.26,-83.58 55.28,-75.64 44.84,-77.46 48.26,-83.58"/>
</g>
<!-- Node80&#45;&gt;Node2 -->
<g id="edge63" class="edge">
<title>Node80&#45;&gt;Node2</title>
<path fill="none" stroke="midnightblue" d="M2436.08,-224.08C2436.08,-217.01 2436.08,-206.86 2436.08,-197.99"/>
<polygon fill="midnightblue" stroke="midnightblue" points="2439.58,-197.75 2436.08,-187.75 2432.58,-197.75 2439.58,-197.75"/>
</g>
<!-- Node81&#45;&gt;Node2 -->
<g id="edge65" class="edge">
<title>Node81&#45;&gt;Node2</title>
<path fill="none" stroke="midnightblue" d="M2520.02,-224.32C2504.12,-215.74 2479.57,-202.49 2461.12,-192.52"/>
<polygon fill="midnightblue" stroke="midnightblue" points="2462.57,-189.33 2452.11,-187.65 2459.24,-195.49 2462.57,-189.33"/>
</g>
</g>
</svg>
