<?xml version="1.0" encoding="UTF-8" standalone="no"?>
<!DOCTYPE svg PUBLIC "-//W3C//DTD SVG 1.1//EN"
 "http://www.w3.org/Graphics/SVG/1.1/DTD/svg11.dtd">
<!-- Generated by graphviz version 2.43.0 (0)
 -->
<!-- Title: src/nl80211/wld_secDmnGrp.c Pages: 1 -->
<svg width="1526pt" height="431pt"
 viewBox="0.00 0.00 1526.00 431.00" xmlns="http://www.w3.org/2000/svg" xmlns:xlink="http://www.w3.org/1999/xlink">
<g id="graph0" class="graph" transform="scale(1 1) rotate(0) translate(4 427)">
<title>src/nl80211/wld_secDmnGrp.c</title>
<polygon fill="white" stroke="transparent" points="-4,4 -4,-427 1522,-427 1522,4 -4,4"/>
<!-- Node1 -->
<g id="node1" class="node">
<title>Node1</title>
<g id="a_node1"><a xlink:title=" ">
<polygon fill="#bfbfbf" stroke="black" points="272.5,-403.5 272.5,-422.5 436.5,-422.5 436.5,-403.5 272.5,-403.5"/>
<text text-anchor="middle" x="354.5" y="-410.5" font-family="Helvetica,sans-Serif" font-size="10.00">src/nl80211/wld_secDmnGrp.c</text>
</a>
</g>
</g>
<!-- Node2 -->
<g id="node2" class="node">
<title>Node2</title>
<g id="a_node2"><a xlink:title=" ">
<polygon fill="white" stroke="#bfbfbf" points="0,-347.5 0,-366.5 53,-366.5 53,-347.5 0,-347.5"/>
<text text-anchor="middle" x="26.5" y="-354.5" font-family="Helvetica,sans-Serif" font-size="10.00">stdlib.h</text>
</a>
</g>
</g>
<!-- Node1&#45;&gt;Node2 -->
<g id="edge1" class="edge">
<title>Node1&#45;&gt;Node2</title>
<path fill="none" stroke="midnightblue" d="M287.51,-403.46C230.38,-395.77 145.91,-383.44 63.01,-366.94"/>
<polygon fill="midnightblue" stroke="midnightblue" points="63.67,-363.5 53.17,-364.96 62.29,-370.36 63.67,-363.5"/>
</g>
<!-- Node3 -->
<g id="node3" class="node">
<title>Node3</title>
<g id="a_node3"><a xlink:title=" ">
<polygon fill="white" stroke="#bfbfbf" points="71.5,-347.5 71.5,-366.5 181.5,-366.5 181.5,-347.5 71.5,-347.5"/>
<text text-anchor="middle" x="126.5" y="-354.5" font-family="Helvetica,sans-Serif" font-size="10.00">swl/swl_common.h</text>
</a>
</g>
</g>
<!-- Node1&#45;&gt;Node3 -->
<g id="edge2" class="edge">
<title>Node1&#45;&gt;Node3</title>
<path fill="none" stroke="midnightblue" d="M318.37,-403.44C278.85,-394.08 215.4,-379.06 172.39,-368.87"/>
<polygon fill="midnightblue" stroke="midnightblue" points="173,-365.42 162.46,-366.52 171.38,-372.23 173,-365.42"/>
</g>
<!-- Node4 -->
<g id="node4" class="node">
<title>Node4</title>
<g id="a_node4"><a xlink:title=" ">
<polygon fill="white" stroke="#bfbfbf" points="200,-347.5 200,-366.5 295,-366.5 295,-347.5 200,-347.5"/>
<text text-anchor="middle" x="247.5" y="-354.5" font-family="Helvetica,sans-Serif" font-size="10.00">swl/swl_string.h</text>
</a>
</g>
</g>
<!-- Node1&#45;&gt;Node4 -->
<g id="edge3" class="edge">
<title>Node1&#45;&gt;Node4</title>
<path fill="none" stroke="midnightblue" d="M337.31,-403.32C320.15,-394.66 293.55,-381.24 273.75,-371.25"/>
<polygon fill="midnightblue" stroke="midnightblue" points="275.15,-368.04 264.65,-366.65 272,-374.28 275.15,-368.04"/>
</g>
<!-- Node5 -->
<g id="node5" class="node">
<title>Node5</title>
<g id="a_node5"><a xlink:title=" ">
<polygon fill="white" stroke="#bfbfbf" points="313,-347.5 313,-366.5 396,-366.5 396,-347.5 313,-347.5"/>
<text text-anchor="middle" x="354.5" y="-354.5" font-family="Helvetica,sans-Serif" font-size="10.00">amxc/amxc.h</text>
</a>
</g>
</g>
<!-- Node1&#45;&gt;Node5 -->
<g id="edge4" class="edge">
<title>Node1&#45;&gt;Node5</title>
<path fill="none" stroke="midnightblue" d="M354.5,-403.08C354.5,-396.01 354.5,-385.86 354.5,-376.99"/>
<polygon fill="midnightblue" stroke="midnightblue" points="358,-376.75 354.5,-366.75 351,-376.75 358,-376.75"/>
</g>
<!-- Node6 -->
<g id="node6" class="node">
<title>Node6</title>
<g id="a_node6"><a xlink:title=" ">
<polygon fill="white" stroke="#bfbfbf" points="414.5,-347.5 414.5,-366.5 498.5,-366.5 498.5,-347.5 414.5,-347.5"/>
<text text-anchor="middle" x="456.5" y="-354.5" font-family="Helvetica,sans-Serif" font-size="10.00">amxp/amxp.h</text>
</a>
</g>
</g>
<!-- Node1&#45;&gt;Node6 -->
<g id="edge5" class="edge">
<title>Node1&#45;&gt;Node6</title>
<path fill="none" stroke="midnightblue" d="M370.89,-403.32C387.17,-394.7 412.37,-381.36 431.22,-371.39"/>
<polygon fill="midnightblue" stroke="midnightblue" points="432.95,-374.43 440.15,-366.65 429.68,-368.24 432.95,-374.43"/>
</g>
<!-- Node7 -->
<g id="node7" class="node">
<title>Node7</title>
<g id="a_node7"><a xlink:title=" ">
<polygon fill="white" stroke="#bfbfbf" points="441.5,-179.5 441.5,-198.5 535.5,-198.5 535.5,-179.5 441.5,-179.5"/>
<text text-anchor="middle" x="488.5" y="-186.5" font-family="Helvetica,sans-Serif" font-size="10.00">swl/swl_maps.h</text>
</a>
</g>
</g>
<!-- Node1&#45;&gt;Node7 -->
<g id="edge6" class="edge">
<title>Node1&#45;&gt;Node7</title>
<path fill="none" stroke="midnightblue" d="M406.66,-403.49C446.01,-395.88 495.23,-383.4 507.5,-367 543.24,-319.23 514.28,-242.87 497.87,-208.19"/>
<polygon fill="midnightblue" stroke="midnightblue" points="500.83,-206.27 493.27,-198.84 494.55,-209.36 500.83,-206.27"/>
</g>
<!-- Node8 -->
<g id="node8" class="node">
<title>Node8</title>
<g id="a_node8"><a xlink:href="wld__secDmnGrp__priv_8h.html" target="_top" xlink:title=" ">
<polygon fill="white" stroke="black" points="630.5,-347.5 630.5,-366.5 758.5,-366.5 758.5,-347.5 630.5,-347.5"/>
<text text-anchor="middle" x="694.5" y="-354.5" font-family="Helvetica,sans-Serif" font-size="10.00">wld_secDmnGrp_priv.h</text>
</a>
</g>
</g>
<!-- Node1&#45;&gt;Node8 -->
<g id="edge7" class="edge">
<title>Node1&#45;&gt;Node8</title>
<path fill="none" stroke="midnightblue" d="M408.37,-403.44C468.81,-393.85 566.74,-378.29 630.88,-368.1"/>
<polygon fill="midnightblue" stroke="midnightblue" points="631.55,-371.54 640.88,-366.52 630.45,-364.63 631.55,-371.54"/>
</g>
<!-- Node9 -->
<g id="node9" class="node">
<title>Node9</title>
<g id="a_node9"><a xlink:href="wld__secDmnGrp_8h.html" target="_top" xlink:title=" ">
<polygon fill="white" stroke="black" points="680,-291.5 680,-310.5 785,-310.5 785,-291.5 680,-291.5"/>
<text text-anchor="middle" x="732.5" y="-298.5" font-family="Helvetica,sans-Serif" font-size="10.00">wld_secDmnGrp.h</text>
</a>
</g>
</g>
<!-- Node8&#45;&gt;Node9 -->
<g id="edge8" class="edge">
<title>Node8&#45;&gt;Node9</title>
<path fill="none" stroke="midnightblue" d="M700.77,-347.08C706.14,-339.46 714.02,-328.26 720.58,-318.94"/>
<polygon fill="midnightblue" stroke="midnightblue" points="723.45,-320.94 726.34,-310.75 717.72,-316.91 723.45,-320.94"/>
</g>
<!-- Node10 -->
<g id="node10" class="node">
<title>Node10</title>
<g id="a_node10"><a xlink:href="wld__secDmn__types_8h.html" target="_top" xlink:title=" ">
<polygon fill="white" stroke="black" points="951.5,-179.5 951.5,-198.5 1071.5,-198.5 1071.5,-179.5 951.5,-179.5"/>
<text text-anchor="middle" x="1011.5" y="-186.5" font-family="Helvetica,sans-Serif" font-size="10.00">wld_secDmn_types.h</text>
</a>
</g>
</g>
<!-- Node9&#45;&gt;Node10 -->
<g id="edge9" class="edge">
<title>Node9&#45;&gt;Node10</title>
<path fill="none" stroke="midnightblue" d="M754.39,-291.37C803.59,-271.97 923.06,-224.87 980.13,-202.37"/>
<polygon fill="midnightblue" stroke="midnightblue" points="981.69,-205.52 989.71,-198.59 979.12,-199 981.69,-205.52"/>
</g>
<!-- Node11 -->
<g id="node11" class="node">
<title>Node11</title>
<g id="a_node11"><a xlink:href="wld__secDmn_8h.html" target="_top" xlink:title=" ">
<polygon fill="white" stroke="black" points="688.5,-235.5 688.5,-254.5 776.5,-254.5 776.5,-235.5 688.5,-235.5"/>
<text text-anchor="middle" x="732.5" y="-242.5" font-family="Helvetica,sans-Serif" font-size="10.00">wld_secDmn.h</text>
</a>
</g>
</g>
<!-- Node9&#45;&gt;Node11 -->
<g id="edge10" class="edge">
<title>Node9&#45;&gt;Node11</title>
<path fill="none" stroke="midnightblue" d="M732.5,-291.08C732.5,-284.01 732.5,-273.86 732.5,-264.99"/>
<polygon fill="midnightblue" stroke="midnightblue" points="736,-264.75 732.5,-254.75 729,-264.75 736,-264.75"/>
</g>
<!-- Node11&#45;&gt;Node7 -->
<g id="edge29" class="edge">
<title>Node11&#45;&gt;Node7</title>
<path fill="none" stroke="midnightblue" d="M693.84,-235.44C651.36,-226.04 583.07,-210.93 537.03,-200.74"/>
<polygon fill="midnightblue" stroke="midnightblue" points="537.5,-197.26 526.98,-198.52 535.99,-204.09 537.5,-197.26"/>
</g>
<!-- Node11&#45;&gt;Node10 -->
<g id="edge27" class="edge">
<title>Node11&#45;&gt;Node10</title>
<path fill="none" stroke="midnightblue" d="M776.71,-235.44C825.79,-225.94 905.01,-210.61 957.66,-200.42"/>
<polygon fill="midnightblue" stroke="midnightblue" points="958.35,-203.85 967.5,-198.52 957.02,-196.98 958.35,-203.85"/>
</g>
<!-- Node12 -->
<g id="node12" class="node">
<title>Node12</title>
<g id="a_node12"><a xlink:href="wld__wpaCtrlMngr_8h.html" target="_top" xlink:title=" ">
<polygon fill="white" stroke="black" points="823.5,-179.5 823.5,-198.5 933.5,-198.5 933.5,-179.5 823.5,-179.5"/>
<text text-anchor="middle" x="878.5" y="-186.5" font-family="Helvetica,sans-Serif" font-size="10.00">wld_wpaCtrlMngr.h</text>
</a>
</g>
</g>
<!-- Node11&#45;&gt;Node12 -->
<g id="edge11" class="edge">
<title>Node11&#45;&gt;Node12</title>
<path fill="none" stroke="midnightblue" d="M755.63,-235.44C779.98,-226.44 818.51,-212.19 845.92,-202.05"/>
<polygon fill="midnightblue" stroke="midnightblue" points="847.31,-205.27 855.47,-198.52 844.88,-198.7 847.31,-205.27"/>
</g>
<!-- Node21 -->
<g id="node21" class="node">
<title>Node21</title>
<g id="a_node21"><a xlink:href="wld__daemon_8h.html" target="_top" xlink:title=" ">
<polygon fill="white" stroke="black" points="553.5,-179.5 553.5,-198.5 641.5,-198.5 641.5,-179.5 553.5,-179.5"/>
<text text-anchor="middle" x="597.5" y="-186.5" font-family="Helvetica,sans-Serif" font-size="10.00">wld_daemon.h</text>
</a>
</g>
</g>
<!-- Node11&#45;&gt;Node21 -->
<g id="edge22" class="edge">
<title>Node11&#45;&gt;Node21</title>
<path fill="none" stroke="midnightblue" d="M711.11,-235.44C688.79,-226.52 653.6,-212.44 628.29,-202.32"/>
<polygon fill="midnightblue" stroke="midnightblue" points="629.38,-198.98 618.79,-198.52 626.78,-205.48 629.38,-198.98"/>
</g>
<!-- Node26 -->
<g id="node26" class="node">
<title>Node26</title>
<g id="a_node26"><a xlink:title=" ">
<polygon fill="white" stroke="#bfbfbf" points="659.5,-179.5 659.5,-198.5 805.5,-198.5 805.5,-179.5 659.5,-179.5"/>
<text text-anchor="middle" x="732.5" y="-186.5" font-family="Helvetica,sans-Serif" font-size="10.00">swl/swl_common_trilean.h</text>
</a>
</g>
</g>
<!-- Node11&#45;&gt;Node26 -->
<g id="edge28" class="edge">
<title>Node11&#45;&gt;Node26</title>
<path fill="none" stroke="midnightblue" d="M732.5,-235.08C732.5,-228.01 732.5,-217.86 732.5,-208.99"/>
<polygon fill="midnightblue" stroke="midnightblue" points="736,-208.75 732.5,-198.75 729,-208.75 736,-208.75"/>
</g>
<!-- Node13 -->
<g id="node13" class="node">
<title>Node13</title>
<g id="a_node13"><a xlink:href="wld__wpaCtrl__types_8h.html" target="_top" xlink:title=" ">
<polygon fill="white" stroke="black" points="751.5,-6 751.5,-25 869.5,-25 869.5,-6 751.5,-6"/>
<text text-anchor="middle" x="810.5" y="-13" font-family="Helvetica,sans-Serif" font-size="10.00">wld_wpaCtrl_types.h</text>
</a>
</g>
</g>
<!-- Node12&#45;&gt;Node13 -->
<g id="edge12" class="edge">
<title>Node12&#45;&gt;Node13</title>
<path fill="none" stroke="midnightblue" d="M865.2,-179.35C854.03,-171.33 838.63,-158.34 830.5,-143 812.08,-108.24 809.57,-61.11 809.77,-35.31"/>
<polygon fill="midnightblue" stroke="midnightblue" points="813.28,-35.16 810.01,-25.08 806.28,-34.99 813.28,-35.16"/>
</g>
<!-- Node14 -->
<g id="node14" class="node">
<title>Node14</title>
<g id="a_node14"><a xlink:href="wld__wpaCtrlInterface_8h.html" target="_top" xlink:title=" ">
<polygon fill="white" stroke="black" points="839,-123.5 839,-142.5 968,-142.5 968,-123.5 839,-123.5"/>
<text text-anchor="middle" x="903.5" y="-130.5" font-family="Helvetica,sans-Serif" font-size="10.00">wld_wpaCtrlInterface.h</text>
</a>
</g>
</g>
<!-- Node12&#45;&gt;Node14 -->
<g id="edge13" class="edge">
<title>Node12&#45;&gt;Node14</title>
<path fill="none" stroke="midnightblue" d="M882.63,-179.08C886.01,-171.77 890.92,-161.18 895.12,-152.1"/>
<polygon fill="midnightblue" stroke="midnightblue" points="898.42,-153.3 899.45,-142.75 892.07,-150.36 898.42,-153.3"/>
</g>
<!-- Node14&#45;&gt;Node13 -->
<g id="edge14" class="edge">
<title>Node14&#45;&gt;Node13</title>
<path fill="none" stroke="midnightblue" d="M896.51,-123.32C881.09,-104.17 843.95,-58.04 823.89,-33.13"/>
<polygon fill="midnightblue" stroke="midnightblue" points="826.57,-30.88 817.57,-25.28 821.12,-35.27 826.57,-30.88"/>
</g>
<!-- Node15 -->
<g id="node15" class="node">
<title>Node15</title>
<g id="a_node15"><a xlink:href="wld__wpaCtrl__events_8h.html" target="_top" xlink:title=" ">
<polygon fill="white" stroke="black" points="1019.5,-67.5 1019.5,-86.5 1143.5,-86.5 1143.5,-67.5 1019.5,-67.5"/>
<text text-anchor="middle" x="1081.5" y="-74.5" font-family="Helvetica,sans-Serif" font-size="10.00">wld_wpaCtrl_events.h</text>
</a>
</g>
</g>
<!-- Node14&#45;&gt;Node15 -->
<g id="edge15" class="edge">
<title>Node14&#45;&gt;Node15</title>
<path fill="none" stroke="midnightblue" d="M931.7,-123.44C961.91,-114.28 1010.01,-99.69 1043.53,-89.52"/>
<polygon fill="midnightblue" stroke="midnightblue" points="1044.87,-92.77 1053.43,-86.52 1042.84,-86.07 1044.87,-92.77"/>
</g>
<!-- Node15&#45;&gt;Node13 -->
<g id="edge21" class="edge">
<title>Node15&#45;&gt;Node13</title>
<path fill="none" stroke="midnightblue" d="M1042.67,-67.48C994.38,-56.87 911.89,-38.76 859.35,-27.22"/>
<polygon fill="midnightblue" stroke="midnightblue" points="859.77,-23.74 849.26,-25.01 858.27,-30.57 859.77,-23.74"/>
</g>
<!-- Node16 -->
<g id="node16" class="node">
<title>Node16</title>
<g id="a_node16"><a xlink:title=" ">
<polygon fill="white" stroke="#bfbfbf" points="888,-6 888,-25 1013,-25 1013,-6 888,-6"/>
<text text-anchor="middle" x="950.5" y="-13" font-family="Helvetica,sans-Serif" font-size="10.00">swla/swla_chanspec.h</text>
</a>
</g>
</g>
<!-- Node15&#45;&gt;Node16 -->
<g id="edge16" class="edge">
<title>Node15&#45;&gt;Node16</title>
<path fill="none" stroke="midnightblue" d="M1062.73,-67.48C1040.65,-57.45 1003.78,-40.7 978.36,-29.15"/>
<polygon fill="midnightblue" stroke="midnightblue" points="979.79,-25.96 969.23,-25.01 976.89,-32.33 979.79,-25.96"/>
</g>
<!-- Node17 -->
<g id="node17" class="node">
<title>Node17</title>
<g id="a_node17"><a xlink:title=" ">
<polygon fill="white" stroke="#bfbfbf" points="1031.5,-6 1031.5,-25 1131.5,-25 1131.5,-6 1031.5,-6"/>
<text text-anchor="middle" x="1081.5" y="-13" font-family="Helvetica,sans-Serif" font-size="10.00">swla/swla_mac.h</text>
</a>
</g>
</g>
<!-- Node15&#45;&gt;Node17 -->
<g id="edge17" class="edge">
<title>Node15&#45;&gt;Node17</title>
<path fill="none" stroke="midnightblue" d="M1081.5,-67.48C1081.5,-59.08 1081.5,-45.98 1081.5,-35.16"/>
<polygon fill="midnightblue" stroke="midnightblue" points="1085,-35.01 1081.5,-25.01 1078,-35.01 1085,-35.01"/>
</g>
<!-- Node18 -->
<g id="node18" class="node">
<title>Node18</title>
<g id="a_node18"><a xlink:title=" ">
<polygon fill="white" stroke="#bfbfbf" points="1149.5,-0.5 1149.5,-30.5 1263.5,-30.5 1263.5,-0.5 1149.5,-0.5"/>
<text text-anchor="start" x="1157.5" y="-18.5" font-family="Helvetica,sans-Serif" font-size="10.00">swl/swl_ieee802_1x</text>
<text text-anchor="middle" x="1206.5" y="-7.5" font-family="Helvetica,sans-Serif" font-size="10.00">_defs.h</text>
</a>
</g>
</g>
<!-- Node15&#45;&gt;Node18 -->
<g id="edge18" class="edge">
<title>Node15&#45;&gt;Node18</title>
<path fill="none" stroke="midnightblue" d="M1099.41,-67.48C1117.21,-59 1145.08,-45.74 1167.92,-34.86"/>
<polygon fill="midnightblue" stroke="midnightblue" points="1169.51,-37.98 1177.04,-30.52 1166.51,-31.66 1169.51,-37.98"/>
</g>
<!-- Node19 -->
<g id="node19" class="node">
<title>Node19</title>
<g id="a_node19"><a xlink:title=" ">
<polygon fill="white" stroke="#bfbfbf" points="1282,-6 1282,-25 1379,-25 1379,-6 1282,-6"/>
<text text-anchor="middle" x="1330.5" y="-13" font-family="Helvetica,sans-Serif" font-size="10.00">swl/swl_80211.h</text>
</a>
</g>
</g>
<!-- Node15&#45;&gt;Node19 -->
<g id="edge19" class="edge">
<title>Node15&#45;&gt;Node19</title>
<path fill="none" stroke="midnightblue" d="M1118.51,-67.44C1157.01,-58.49 1219.03,-43.98 1272.5,-31 1277.17,-29.87 1282.05,-28.67 1286.91,-27.47"/>
<polygon fill="midnightblue" stroke="midnightblue" points="1287.92,-30.82 1296.78,-25.01 1286.23,-24.03 1287.92,-30.82"/>
</g>
<!-- Node20 -->
<g id="node20" class="node">
<title>Node20</title>
<g id="a_node20"><a xlink:title=" ">
<polygon fill="white" stroke="#bfbfbf" points="1397,-6 1397,-25 1518,-25 1518,-6 1397,-6"/>
<text text-anchor="middle" x="1457.5" y="-13" font-family="Helvetica,sans-Serif" font-size="10.00">swl/swl_returnCode.h</text>
</a>
</g>
</g>
<!-- Node15&#45;&gt;Node20 -->
<g id="edge20" class="edge">
<title>Node15&#45;&gt;Node20</title>
<path fill="none" stroke="midnightblue" d="M1143.72,-68.02C1205.86,-59.79 1304.05,-46.05 1388.5,-31 1395.14,-29.82 1402.12,-28.47 1408.98,-27.09"/>
<polygon fill="midnightblue" stroke="midnightblue" points="1409.81,-30.49 1418.9,-25.05 1408.4,-23.63 1409.81,-30.49"/>
</g>
<!-- Node22 -->
<g id="node22" class="node">
<title>Node22</title>
<g id="a_node22"><a xlink:title=" ">
<polygon fill="white" stroke="#bfbfbf" points="465.5,-123.5 465.5,-142.5 527.5,-142.5 527.5,-123.5 465.5,-123.5"/>
<text text-anchor="middle" x="496.5" y="-130.5" font-family="Helvetica,sans-Serif" font-size="10.00">stdbool.h</text>
</a>
</g>
</g>
<!-- Node21&#45;&gt;Node22 -->
<g id="edge23" class="edge">
<title>Node21&#45;&gt;Node22</title>
<path fill="none" stroke="midnightblue" d="M581.27,-179.32C565.15,-170.7 540.2,-157.36 521.54,-147.39"/>
<polygon fill="midnightblue" stroke="midnightblue" points="523.16,-144.28 512.69,-142.65 519.86,-150.46 523.16,-144.28"/>
</g>
<!-- Node23 -->
<g id="node23" class="node">
<title>Node23</title>
<g id="a_node23"><a xlink:title=" ">
<polygon fill="white" stroke="#bfbfbf" points="546,-123.5 546,-142.5 599,-142.5 599,-123.5 546,-123.5"/>
<text text-anchor="middle" x="572.5" y="-130.5" font-family="Helvetica,sans-Serif" font-size="10.00">stdint.h</text>
</a>
</g>
</g>
<!-- Node21&#45;&gt;Node23 -->
<g id="edge24" class="edge">
<title>Node21&#45;&gt;Node23</title>
<path fill="none" stroke="midnightblue" d="M593.37,-179.08C589.99,-171.77 585.08,-161.18 580.88,-152.1"/>
<polygon fill="midnightblue" stroke="midnightblue" points="583.93,-150.36 576.55,-142.75 577.58,-153.3 583.93,-150.36"/>
</g>
<!-- Node24 -->
<g id="node24" class="node">
<title>Node24</title>
<g id="a_node24"><a xlink:title=" ">
<polygon fill="white" stroke="#bfbfbf" points="617.5,-123.5 617.5,-142.5 665.5,-142.5 665.5,-123.5 617.5,-123.5"/>
<text text-anchor="middle" x="641.5" y="-130.5" font-family="Helvetica,sans-Serif" font-size="10.00">time.h</text>
</a>
</g>
</g>
<!-- Node21&#45;&gt;Node24 -->
<g id="edge25" class="edge">
<title>Node21&#45;&gt;Node24</title>
<path fill="none" stroke="midnightblue" d="M604.77,-179.08C611.04,-171.38 620.29,-160.03 627.93,-150.65"/>
<polygon fill="midnightblue" stroke="midnightblue" points="630.77,-152.71 634.37,-142.75 625.34,-148.29 630.77,-152.71"/>
</g>
<!-- Node25 -->
<g id="node25" class="node">
<title>Node25</title>
<g id="a_node25"><a xlink:title=" ">
<polygon fill="white" stroke="#bfbfbf" points="684,-123.5 684,-142.5 739,-142.5 739,-123.5 684,-123.5"/>
<text text-anchor="middle" x="711.5" y="-130.5" font-family="Helvetica,sans-Serif" font-size="10.00">signal.h</text>
</a>
</g>
</g>
<!-- Node21&#45;&gt;Node25 -->
<g id="edge26" class="edge">
<title>Node21&#45;&gt;Node25</title>
<path fill="none" stroke="midnightblue" d="M615.56,-179.44C634.07,-170.68 663.08,-156.94 684.36,-146.86"/>
<polygon fill="midnightblue" stroke="midnightblue" points="685.98,-149.96 693.52,-142.52 682.99,-143.63 685.98,-149.96"/>
</g>
</g>
</svg>
