<?xml version="1.0" encoding="UTF-8" standalone="no"?>
<!DOCTYPE svg PUBLIC "-//W3C//DTD SVG 1.1//EN"
 "http://www.w3.org/Graphics/SVG/1.1/DTD/svg11.dtd">
<!-- Generated by graphviz version 2.43.0 (0)
 -->
<!-- Title: wld_secDmn_isActiveAlone Pages: 1 -->
<svg width="1293pt" height="154pt"
 viewBox="0.00 0.00 1293.00 154.00" xmlns="http://www.w3.org/2000/svg" xmlns:xlink="http://www.w3.org/1999/xlink">
<g id="graph0" class="graph" transform="scale(1 1) rotate(0) translate(4 150)">
<title>wld_secDmn_isActiveAlone</title>
<polygon fill="white" stroke="transparent" points="-4,4 -4,-150 1289,-150 1289,4 -4,4"/>
<!-- Node1 -->
<g id="node1" class="node">
<title>Node1</title>
<g id="a_node1"><a xlink:title=" ">
<polygon fill="#bfbfbf" stroke="black" points="0,-38.5 0,-57.5 151,-57.5 151,-38.5 0,-38.5"/>
<text text-anchor="middle" x="75.5" y="-45.5" font-family="Helvetica,sans-Serif" font-size="10.00">wld_secDmn_isActiveAlone</text>
</a>
</g>
</g>
<!-- Node2 -->
<g id="node2" class="node">
<title>Node2</title>
<g id="a_node2"><a xlink:href="wld__secDmn_8c.html#a02e589b0c9a457e6d5f9d0b2081f1ff5" target="_top" xlink:title=" ">
<polygon fill="white" stroke="black" points="187,-77 187,-107 346,-107 346,-77 187,-77"/>
<text text-anchor="start" x="195" y="-95" font-family="Helvetica,sans-Serif" font-size="10.00">wld_secDmn_countActiveGrp</text>
<text text-anchor="middle" x="266.5" y="-84" font-family="Helvetica,sans-Serif" font-size="10.00">Members</text>
</a>
</g>
</g>
<!-- Node1&#45;&gt;Node2 -->
<g id="edge1" class="edge">
<title>Node1&#45;&gt;Node2</title>
<path fill="none" stroke="midnightblue" d="M117.51,-57.55C138.98,-62.55 165.94,-68.82 190.95,-74.64"/>
<polygon fill="midnightblue" stroke="midnightblue" points="190.25,-78.08 200.79,-76.93 191.84,-71.26 190.25,-78.08"/>
</g>
<!-- Node5 -->
<g id="node5" class="node">
<title>Node5</title>
<g id="a_node5"><a xlink:href="wld__secDmn_8c.html#a1b9d684b37eb9a4922e736e45544a50d" target="_top" xlink:title=" ">
<polygon fill="white" stroke="black" points="612,-57.5 612,-76.5 729,-76.5 729,-57.5 612,-57.5"/>
<text text-anchor="middle" x="670.5" y="-64.5" font-family="Helvetica,sans-Serif" font-size="10.00">wld_secDmn_isAlive</text>
</a>
</g>
</g>
<!-- Node1&#45;&gt;Node5 -->
<g id="edge14" class="edge">
<title>Node1&#45;&gt;Node5</title>
<path fill="none" stroke="midnightblue" d="M151,-50.39C267.14,-54.11 489.6,-61.24 601.57,-64.82"/>
<polygon fill="midnightblue" stroke="midnightblue" points="601.62,-68.33 611.73,-65.15 601.84,-61.33 601.62,-68.33"/>
</g>
<!-- Node6 -->
<g id="node6" class="node">
<title>Node6</title>
<g id="a_node6"><a xlink:href="wld__secDmn_8c.html#a1b0cc11a41a11e2033f3188fd05a0d80" target="_top" xlink:title=" ">
<polygon fill="white" stroke="black" points="782.5,-0.5 782.5,-19.5 932.5,-19.5 932.5,-0.5 782.5,-0.5"/>
<text text-anchor="middle" x="857.5" y="-7.5" font-family="Helvetica,sans-Serif" font-size="10.00">wld_secDmn_isGrpMember</text>
</a>
</g>
</g>
<!-- Node1&#45;&gt;Node6 -->
<g id="edge15" class="edge">
<title>Node1&#45;&gt;Node6</title>
<path fill="none" stroke="midnightblue" d="M151.29,-44.36C297.12,-37.25 618.59,-21.59 771.92,-14.12"/>
<polygon fill="midnightblue" stroke="midnightblue" points="772.4,-17.6 782.22,-13.62 772.06,-10.61 772.4,-17.6"/>
</g>
<!-- Node3 -->
<g id="node3" class="node">
<title>Node3</title>
<g id="a_node3"><a xlink:href="wld__secDmn_8c.html#a734eba007ba94a51c1cdf408c979c5ab" target="_top" xlink:title=" ">
<polygon fill="white" stroke="black" points="420.5,-126.5 420.5,-145.5 537.5,-145.5 537.5,-126.5 420.5,-126.5"/>
<text text-anchor="middle" x="479" y="-133.5" font-family="Helvetica,sans-Serif" font-size="10.00">wld_secDmn_getGrp</text>
</a>
</g>
</g>
<!-- Node2&#45;&gt;Node3 -->
<g id="edge2" class="edge">
<title>Node2&#45;&gt;Node3</title>
<path fill="none" stroke="midnightblue" d="M335.26,-107.03C350.62,-110.37 366.86,-113.85 382,-117 393.83,-119.46 406.49,-122.02 418.61,-124.43"/>
<polygon fill="midnightblue" stroke="midnightblue" points="418.14,-127.91 428.63,-126.42 419.5,-121.04 418.14,-127.91"/>
</g>
<!-- Node4 -->
<g id="node4" class="node">
<title>Node4</title>
<g id="a_node4"><a xlink:href="wld__secDmnGrp_8c.html#af0c8baba6a72e3d8962f0666ac93ccc9" target="_top" xlink:title=" ">
<polygon fill="white" stroke="black" points="382,-77 382,-107 576,-107 576,-77 382,-77"/>
<text text-anchor="start" x="390" y="-95" font-family="Helvetica,sans-Serif" font-size="10.00">wld_secDmnGrp_getActiveMembers</text>
<text text-anchor="middle" x="479" y="-84" font-family="Helvetica,sans-Serif" font-size="10.00">Count</text>
</a>
</g>
</g>
<!-- Node2&#45;&gt;Node4 -->
<g id="edge3" class="edge">
<title>Node2&#45;&gt;Node4</title>
<path fill="none" stroke="midnightblue" d="M346.18,-92C354.58,-92 363.21,-92 371.85,-92"/>
<polygon fill="midnightblue" stroke="midnightblue" points="371.99,-95.5 381.99,-92 371.99,-88.5 371.99,-95.5"/>
</g>
<!-- Node4&#45;&gt;Node5 -->
<g id="edge4" class="edge">
<title>Node4&#45;&gt;Node5</title>
<path fill="none" stroke="midnightblue" d="M576.14,-79.32C584.8,-78.17 593.45,-77.03 601.79,-75.93"/>
<polygon fill="midnightblue" stroke="midnightblue" points="602.34,-79.39 611.79,-74.61 601.42,-72.45 602.34,-79.39"/>
</g>
<!-- Node5&#45;&gt;Node6 -->
<g id="edge5" class="edge">
<title>Node5&#45;&gt;Node6</title>
<path fill="none" stroke="midnightblue" d="M691.91,-57.45C710.59,-49.01 739.18,-36.86 765,-29 773.78,-26.33 783.14,-23.91 792.4,-21.76"/>
<polygon fill="midnightblue" stroke="midnightblue" points="793.38,-25.13 802.38,-19.54 791.86,-18.3 793.38,-25.13"/>
</g>
<!-- Node8 -->
<g id="node8" class="node">
<title>Node8</title>
<g id="a_node8"><a xlink:href="wld__secDmn_8c.html#ad8ebf9f869b635102d27d9a476e4d9eb" target="_top" xlink:title=" ">
<polygon fill="white" stroke="black" points="991.5,-76.5 991.5,-95.5 1123.5,-95.5 1123.5,-76.5 991.5,-76.5"/>
<text text-anchor="middle" x="1057.5" y="-83.5" font-family="Helvetica,sans-Serif" font-size="10.00">wld_secDmn_isRunning</text>
</a>
</g>
</g>
<!-- Node5&#45;&gt;Node8 -->
<g id="edge7" class="edge">
<title>Node5&#45;&gt;Node8</title>
<path fill="none" stroke="midnightblue" d="M729.14,-69.84C796.25,-73.16 907.32,-78.64 981.21,-82.28"/>
<polygon fill="midnightblue" stroke="midnightblue" points="981.22,-85.79 991.38,-82.79 981.56,-78.8 981.22,-85.79"/>
</g>
<!-- Node10 -->
<g id="node10" class="node">
<title>Node10</title>
<g id="a_node10"><a xlink:href="wld__secDmnGrp_8c.html#ac68764d14b9f77537e29250cae786daf" target="_top" xlink:title=" ">
<polygon fill="white" stroke="black" points="765,-38.5 765,-57.5 950,-57.5 950,-38.5 765,-38.5"/>
<text text-anchor="middle" x="857.5" y="-45.5" font-family="Helvetica,sans-Serif" font-size="10.00">wld_secDmnGrp_isMemberStarted</text>
</a>
</g>
</g>
<!-- Node5&#45;&gt;Node10 -->
<g id="edge9" class="edge">
<title>Node5&#45;&gt;Node10</title>
<path fill="none" stroke="midnightblue" d="M729.02,-61.09C737.27,-60.25 745.95,-59.35 754.74,-58.45"/>
<polygon fill="midnightblue" stroke="midnightblue" points="755.11,-61.93 764.7,-57.43 754.4,-54.97 755.11,-61.93"/>
</g>
<!-- Node11 -->
<g id="node11" class="node">
<title>Node11</title>
<g id="a_node11"><a xlink:href="wld__wpaCtrlMngr_8c.html#ad3e7ad2284a85ee77e110a90f0fd34ae" target="_top" xlink:title="check that wpaCtrl manager is connected: i.e can receive events from its main interface.">
<polygon fill="white" stroke="black" points="774,-114.5 774,-133.5 941,-133.5 941,-114.5 774,-114.5"/>
<text text-anchor="middle" x="857.5" y="-121.5" font-family="Helvetica,sans-Serif" font-size="10.00">wld_wpaCtrlMngr_isConnected</text>
</a>
</g>
</g>
<!-- Node5&#45;&gt;Node11 -->
<g id="edge10" class="edge">
<title>Node5&#45;&gt;Node11</title>
<path fill="none" stroke="midnightblue" d="M696.71,-76.54C715.42,-83.46 741.63,-92.83 765,-100 778.64,-104.19 793.57,-108.3 807.33,-111.9"/>
<polygon fill="midnightblue" stroke="midnightblue" points="806.56,-115.32 817.12,-114.43 808.31,-108.54 806.56,-115.32"/>
</g>
<!-- Node7 -->
<g id="node7" class="node">
<title>Node7</title>
<g id="a_node7"><a xlink:href="wld__secDmnGrp_8c.html#ae5da21db2381b2d5a1f16df5d388d5df" target="_top" xlink:title=" ">
<polygon fill="white" stroke="black" points="988.5,-0.5 988.5,-19.5 1126.5,-19.5 1126.5,-0.5 988.5,-0.5"/>
<text text-anchor="middle" x="1057.5" y="-7.5" font-family="Helvetica,sans-Serif" font-size="10.00">wld_secDmnGrp_getProc</text>
</a>
</g>
</g>
<!-- Node6&#45;&gt;Node7 -->
<g id="edge6" class="edge">
<title>Node6&#45;&gt;Node7</title>
<path fill="none" stroke="midnightblue" d="M932.51,-10C947.41,-10 963.13,-10 978.17,-10"/>
<polygon fill="midnightblue" stroke="midnightblue" points="978.46,-13.5 988.46,-10 978.46,-6.5 978.46,-13.5"/>
</g>
<!-- Node9 -->
<g id="node9" class="node">
<title>Node9</title>
<g id="a_node9"><a xlink:href="wld__daemon_8c.html#a6ba98a859d038541e1c2ee48d8566547" target="_top" xlink:title=" ">
<polygon fill="white" stroke="black" points="1168,-76.5 1168,-95.5 1282,-95.5 1282,-76.5 1168,-76.5"/>
<text text-anchor="middle" x="1225" y="-83.5" font-family="Helvetica,sans-Serif" font-size="10.00">wld_dmn_isRunning</text>
</a>
</g>
</g>
<!-- Node8&#45;&gt;Node9 -->
<g id="edge8" class="edge">
<title>Node8&#45;&gt;Node9</title>
<path fill="none" stroke="midnightblue" d="M1123.91,-86C1135.05,-86 1146.62,-86 1157.78,-86"/>
<polygon fill="midnightblue" stroke="midnightblue" points="1157.89,-89.5 1167.89,-86 1157.89,-82.5 1157.89,-89.5"/>
</g>
<!-- Node11&#45;&gt;Node8 -->
<g id="edge11" class="edge">
<title>Node11&#45;&gt;Node8</title>
<path fill="none" stroke="midnightblue" d="M908.21,-114.46C935.04,-109.31 968.36,-102.92 996.61,-97.49"/>
<polygon fill="midnightblue" stroke="midnightblue" points="997.61,-100.87 1006.77,-95.54 996.29,-93.99 997.61,-100.87"/>
</g>
<!-- Node12 -->
<g id="node12" class="node">
<title>Node12</title>
<g id="a_node12"><a xlink:href="wld__wpaCtrlMngr_8c.html#a3dc93dfda0d67c0e7254cc1ffeeb3ebe" target="_top" xlink:title=" ">
<polygon fill="white" stroke="black" points="986,-115 986,-145 1129,-145 1129,-115 986,-115"/>
<text text-anchor="start" x="994" y="-133" font-family="Helvetica,sans-Serif" font-size="10.00">wld_wpaCtrlMngr_getFirst</text>
<text text-anchor="middle" x="1057.5" y="-122" font-family="Helvetica,sans-Serif" font-size="10.00">ReadyInterface</text>
</a>
</g>
</g>
<!-- Node11&#45;&gt;Node12 -->
<g id="edge12" class="edge">
<title>Node11&#45;&gt;Node12</title>
<path fill="none" stroke="midnightblue" d="M941.04,-126.5C952.41,-126.85 964.08,-127.2 975.43,-127.54"/>
<polygon fill="midnightblue" stroke="midnightblue" points="975.64,-131.05 985.74,-127.86 975.85,-124.05 975.64,-131.05"/>
</g>
<!-- Node13 -->
<g id="node13" class="node">
<title>Node13</title>
<g id="a_node13"><a xlink:href="wld__wpaCtrlInterface_8c.html#a8b38bc9ca95b60e002d38cdb1374d1d0" target="_top" xlink:title=" ">
<polygon fill="white" stroke="black" points="1165,-115 1165,-145 1285,-145 1285,-115 1165,-115"/>
<text text-anchor="start" x="1173" y="-133" font-family="Helvetica,sans-Serif" font-size="10.00">wld_wpaCtrlInterface</text>
<text text-anchor="middle" x="1225" y="-122" font-family="Helvetica,sans-Serif" font-size="10.00">_isReady</text>
</a>
</g>
</g>
<!-- Node12&#45;&gt;Node13 -->
<g id="edge13" class="edge">
<title>Node12&#45;&gt;Node13</title>
<path fill="none" stroke="midnightblue" d="M1129.17,-130C1137.6,-130 1146.2,-130 1154.62,-130"/>
<polygon fill="midnightblue" stroke="midnightblue" points="1154.76,-133.5 1164.76,-130 1154.76,-126.5 1154.76,-133.5"/>
</g>
</g>
</svg>
