<?xml version="1.0" encoding="UTF-8" standalone="no"?>
<!DOCTYPE svg PUBLIC "-//W3C//DTD SVG 1.1//EN"
 "http://www.w3.org/Graphics/SVG/1.1/DTD/svg11.dtd">
<!-- Generated by graphviz version 2.43.0 (0)
 -->
<!-- Title: src/nl80211/wld_hostapd_cfgFile.c Pages: 1 -->
<svg width="5003pt" height="330pt"
 viewBox="0.00 0.00 5003.00 330.00" xmlns="http://www.w3.org/2000/svg" xmlns:xlink="http://www.w3.org/1999/xlink">
<g id="graph0" class="graph" transform="scale(1 1) rotate(0) translate(4 326)">
<title>src/nl80211/wld_hostapd_cfgFile.c</title>
<polygon fill="white" stroke="transparent" points="-4,4 -4,-326 4999,-326 4999,4 -4,4"/>
<!-- Node1 -->
<g id="node1" class="node">
<title>Node1</title>
<g id="a_node1"><a xlink:title=" ">
<polygon fill="#bfbfbf" stroke="black" points="3912,-291.5 3912,-321.5 4049,-321.5 4049,-291.5 3912,-291.5"/>
<text text-anchor="start" x="3920" y="-309.5" font-family="Helvetica,sans-Serif" font-size="10.00">src/nl80211/wld_hostapd</text>
<text text-anchor="middle" x="3980.5" y="-298.5" font-family="Helvetica,sans-Serif" font-size="10.00">_cfgFile.c</text>
</a>
</g>
</g>
<!-- Node2 -->
<g id="node2" class="node">
<title>Node2</title>
<g id="a_node2"><a xlink:href="wld_8h.html" target="_top" xlink:title=" ">
<polygon fill="white" stroke="red" points="2541,-168.5 2541,-187.5 2584,-187.5 2584,-168.5 2541,-168.5"/>
<text text-anchor="middle" x="2562.5" y="-175.5" font-family="Helvetica,sans-Serif" font-size="10.00">wld.h</text>
</a>
</g>
</g>
<!-- Node1&#45;&gt;Node2 -->
<g id="edge1" class="edge">
<title>Node1&#45;&gt;Node2</title>
<path fill="none" stroke="midnightblue" d="M3911.8,-303.97C3758.87,-300.08 3378.85,-287.67 3062.5,-255 2884.83,-236.65 2673.79,-199.47 2594.62,-184.98"/>
<polygon fill="midnightblue" stroke="midnightblue" points="2594.8,-181.45 2584.34,-183.09 2593.54,-188.34 2594.8,-181.45"/>
</g>
<!-- Node5 -->
<g id="node5" class="node">
<title>Node5</title>
<g id="a_node5"><a xlink:title=" ">
<polygon fill="white" stroke="#bfbfbf" points="71.5,-112.5 71.5,-131.5 181.5,-131.5 181.5,-112.5 71.5,-112.5"/>
<text text-anchor="middle" x="126.5" y="-119.5" font-family="Helvetica,sans-Serif" font-size="10.00">swl/swl_common.h</text>
</a>
</g>
</g>
<!-- Node1&#45;&gt;Node5 -->
<g id="edge46" class="edge">
<title>Node1&#45;&gt;Node5</title>
<path fill="none" stroke="midnightblue" d="M3911.92,-304.6C3676.24,-301.22 2900.47,-287.82 2653.5,-255 2482.61,-232.29 2446.62,-188.94 2275.5,-168 1818.78,-112.12 668.91,-167.54 191.72,-131.96"/>
<polygon fill="midnightblue" stroke="midnightblue" points="191.85,-128.46 181.61,-131.19 191.31,-135.44 191.85,-128.46"/>
</g>
<!-- Node57 -->
<g id="node33" class="node">
<title>Node57</title>
<g id="a_node33"><a xlink:href="wld__secDmn_8h.html" target="_top" xlink:title=" ">
<polygon fill="white" stroke="red" points="4068.5,-112.5 4068.5,-131.5 4156.5,-131.5 4156.5,-112.5 4068.5,-112.5"/>
<text text-anchor="middle" x="4112.5" y="-119.5" font-family="Helvetica,sans-Serif" font-size="10.00">wld_secDmn.h</text>
</a>
</g>
</g>
<!-- Node1&#45;&gt;Node57 -->
<g id="edge63" class="edge">
<title>Node1&#45;&gt;Node57</title>
<path fill="none" stroke="midnightblue" d="M4004.04,-291.35C4017.72,-282.25 4034.55,-269.46 4046.5,-255 4062.04,-236.19 4090.99,-172.3 4104.8,-140.82"/>
<polygon fill="midnightblue" stroke="midnightblue" points="4108.07,-142.07 4108.85,-131.5 4101.65,-139.27 4108.07,-142.07"/>
</g>
<!-- Node58 -->
<g id="node34" class="node">
<title>Node58</title>
<g id="a_node34"><a xlink:href="wld__wpaCtrlMngr_8h.html" target="_top" xlink:title=" ">
<polygon fill="white" stroke="red" points="4068.5,-56.5 4068.5,-75.5 4178.5,-75.5 4178.5,-56.5 4068.5,-56.5"/>
<text text-anchor="middle" x="4123.5" y="-63.5" font-family="Helvetica,sans-Serif" font-size="10.00">wld_wpaCtrlMngr.h</text>
</a>
</g>
</g>
<!-- Node1&#45;&gt;Node58 -->
<g id="edge59" class="edge">
<title>Node1&#45;&gt;Node58</title>
<path fill="none" stroke="midnightblue" d="M4018.12,-291.4C4042.94,-281.8 4076.01,-268.44 4104.5,-255 4117.52,-248.86 4325.12,-144.36 4332.5,-132 4337.06,-124.37 4338.08,-118.92 4332.5,-112 4314.61,-89.85 4243.07,-78.08 4188.63,-72.21"/>
<polygon fill="midnightblue" stroke="midnightblue" points="4188.99,-68.73 4178.68,-71.18 4188.27,-75.69 4188.99,-68.73"/>
</g>
<!-- Node60 -->
<g id="node35" class="node">
<title>Node60</title>
<g id="a_node35"><a xlink:href="wld__wpaCtrlInterface_8h.html" target="_top" xlink:title=" ">
<polygon fill="white" stroke="red" points="4017,-0.5 4017,-19.5 4146,-19.5 4146,-0.5 4017,-0.5"/>
<text text-anchor="middle" x="4081.5" y="-7.5" font-family="Helvetica,sans-Serif" font-size="10.00">wld_wpaCtrlInterface.h</text>
</a>
</g>
</g>
<!-- Node1&#45;&gt;Node60 -->
<g id="edge60" class="edge">
<title>Node1&#45;&gt;Node60</title>
<path fill="none" stroke="midnightblue" d="M3985.71,-291.41C3989.4,-281.31 3994.4,-267.37 3998.5,-255 4027.59,-167.19 4025.52,-142.04 4059.5,-56 4063.13,-46.8 4067.88,-36.89 4072.04,-28.72"/>
<polygon fill="midnightblue" stroke="midnightblue" points="4075.18,-30.26 4076.69,-19.78 4068.97,-27.03 4075.18,-30.26"/>
</g>
<!-- Node71 -->
<g id="node36" class="node">
<title>Node71</title>
<g id="a_node36"><a xlink:href="wld__hostapd__cfgManager_8h.html" target="_top" xlink:title=" ">
<polygon fill="white" stroke="red" points="4174,-112.5 4174,-131.5 4323,-131.5 4323,-112.5 4174,-112.5"/>
<text text-anchor="middle" x="4248.5" y="-119.5" font-family="Helvetica,sans-Serif" font-size="10.00">wld_hostapd_cfgManager.h</text>
</a>
</g>
</g>
<!-- Node1&#45;&gt;Node71 -->
<g id="edge50" class="edge">
<title>Node1&#45;&gt;Node71</title>
<path fill="none" stroke="midnightblue" d="M4007.08,-291.5C4025.03,-281.78 4049.09,-268.25 4069.5,-255 4129.89,-215.8 4197.28,-163.67 4229.42,-138.25"/>
<polygon fill="midnightblue" stroke="midnightblue" points="4231.87,-140.78 4237.52,-131.82 4227.51,-135.29 4231.87,-140.78"/>
</g>
<!-- Node75 -->
<g id="node37" class="node">
<title>Node75</title>
<g id="a_node37"><a xlink:href="wld__radio_8h.html" target="_top" xlink:title=" ">
<polygon fill="white" stroke="red" points="3071,-230 3071,-249 3144,-249 3144,-230 3071,-230"/>
<text text-anchor="middle" x="3107.5" y="-237" font-family="Helvetica,sans-Serif" font-size="10.00">wld_radio.h</text>
</a>
</g>
</g>
<!-- Node1&#45;&gt;Node75 -->
<g id="edge36" class="edge">
<title>Node1&#45;&gt;Node75</title>
<path fill="none" stroke="midnightblue" d="M3912,-300.4C3741.22,-287.68 3299.89,-254.82 3154.63,-244.01"/>
<polygon fill="midnightblue" stroke="midnightblue" points="3154.52,-240.49 3144.29,-243.24 3154,-247.47 3154.52,-240.49"/>
</g>
<!-- Node82 -->
<g id="node38" class="node">
<title>Node82</title>
<g id="a_node38"><a xlink:href="wld__accesspoint_8h.html" target="_top" xlink:title=" ">
<polygon fill="white" stroke="red" points="3398.5,-230 3398.5,-249 3504.5,-249 3504.5,-230 3398.5,-230"/>
<text text-anchor="middle" x="3451.5" y="-237" font-family="Helvetica,sans-Serif" font-size="10.00">wld_accesspoint.h</text>
</a>
</g>
</g>
<!-- Node1&#45;&gt;Node82 -->
<g id="edge38" class="edge">
<title>Node1&#45;&gt;Node82</title>
<path fill="none" stroke="midnightblue" d="M3911.88,-297.07C3808.64,-284.38 3614.8,-260.57 3514.78,-248.28"/>
<polygon fill="midnightblue" stroke="midnightblue" points="3515.17,-244.8 3504.81,-247.05 3514.31,-251.74 3515.17,-244.8"/>
</g>
<!-- Node84 -->
<g id="node39" class="node">
<title>Node84</title>
<g id="a_node39"><a xlink:href="wld__ssid_8h.html" target="_top" xlink:title=" ">
<polygon fill="white" stroke="black" points="3640.5,-230 3640.5,-249 3708.5,-249 3708.5,-230 3640.5,-230"/>
<text text-anchor="middle" x="3674.5" y="-237" font-family="Helvetica,sans-Serif" font-size="10.00">wld_ssid.h</text>
</a>
</g>
</g>
<!-- Node1&#45;&gt;Node84 -->
<g id="edge40" class="edge">
<title>Node1&#45;&gt;Node84</title>
<path fill="none" stroke="midnightblue" d="M3914.48,-291.48C3855.18,-278.88 3769.78,-260.74 3718.46,-249.84"/>
<polygon fill="midnightblue" stroke="midnightblue" points="3719.18,-246.41 3708.67,-247.76 3717.72,-253.26 3719.18,-246.41"/>
</g>
<!-- Node85 -->
<g id="node40" class="node">
<title>Node85</title>
<g id="a_node40"><a xlink:href="wld__util_8h.html" target="_top" xlink:title=" ">
<polygon fill="white" stroke="black" points="3785.5,-230 3785.5,-249 3849.5,-249 3849.5,-230 3785.5,-230"/>
<text text-anchor="middle" x="3817.5" y="-237" font-family="Helvetica,sans-Serif" font-size="10.00">wld_util.h</text>
</a>
</g>
</g>
<!-- Node1&#45;&gt;Node85 -->
<g id="edge42" class="edge">
<title>Node1&#45;&gt;Node85</title>
<path fill="none" stroke="midnightblue" d="M3945.13,-291.4C3916.28,-279.89 3875.92,-263.8 3848.36,-252.81"/>
<polygon fill="midnightblue" stroke="midnightblue" points="3849.42,-249.46 3838.83,-249.01 3846.83,-255.96 3849.42,-249.46"/>
</g>
<!-- Node86 -->
<g id="node41" class="node">
<title>Node86</title>
<g id="a_node41"><a xlink:title=" ">
<polygon fill="white" stroke="#bfbfbf" points="4175,-230 4175,-249 4260,-249 4260,-230 4175,-230"/>
<text text-anchor="middle" x="4217.5" y="-237" font-family="Helvetica,sans-Serif" font-size="10.00">swl/swl_hex.h</text>
</a>
</g>
</g>
<!-- Node1&#45;&gt;Node86 -->
<g id="edge44" class="edge">
<title>Node1&#45;&gt;Node86</title>
<path fill="none" stroke="midnightblue" d="M4031.63,-291.48C4075.04,-279.57 4136.5,-262.72 4176.67,-251.7"/>
<polygon fill="midnightblue" stroke="midnightblue" points="4177.69,-255.05 4186.4,-249.03 4175.83,-248.3 4177.69,-255.05"/>
</g>
<!-- Node87 -->
<g id="node42" class="node">
<title>Node87</title>
<g id="a_node42"><a xlink:title=" ">
<polygon fill="white" stroke="#bfbfbf" points="4278,-230 4278,-249 4433,-249 4433,-230 4278,-230"/>
<text text-anchor="middle" x="4355.5" y="-237" font-family="Helvetica,sans-Serif" font-size="10.00">swl/map/swl_mapCharFmt.h</text>
</a>
</g>
</g>
<!-- Node1&#45;&gt;Node87 -->
<g id="edge45" class="edge">
<title>Node1&#45;&gt;Node87</title>
<path fill="none" stroke="midnightblue" d="M4049.28,-293.58C4120.07,-281.31 4229.23,-262.39 4296.3,-250.76"/>
<polygon fill="midnightblue" stroke="midnightblue" points="4297.03,-254.19 4306.28,-249.03 4295.83,-247.29 4297.03,-254.19"/>
</g>
<!-- Node88 -->
<g id="node43" class="node">
<title>Node88</title>
<g id="a_node43"><a xlink:title=" ">
<polygon fill="white" stroke="#bfbfbf" points="4451.5,-230 4451.5,-249 4541.5,-249 4541.5,-230 4451.5,-230"/>
<text text-anchor="middle" x="4496.5" y="-237" font-family="Helvetica,sans-Serif" font-size="10.00">swl/swl_hash.h</text>
</a>
</g>
</g>
<!-- Node1&#45;&gt;Node88 -->
<g id="edge47" class="edge">
<title>Node1&#45;&gt;Node88</title>
<path fill="none" stroke="midnightblue" d="M4049.09,-301.3C4139.73,-295.01 4304.12,-280.98 4442.5,-255 4447.62,-254.04 4452.96,-252.84 4458.21,-251.56"/>
<polygon fill="midnightblue" stroke="midnightblue" points="4459.3,-254.89 4468.1,-249 4457.55,-248.11 4459.3,-254.89"/>
</g>
<!-- Node89 -->
<g id="node44" class="node">
<title>Node89</title>
<g id="a_node44"><a xlink:title=" ">
<polygon fill="white" stroke="#bfbfbf" points="4559.5,-224.5 4559.5,-254.5 4705.5,-254.5 4705.5,-224.5 4559.5,-224.5"/>
<text text-anchor="start" x="4567.5" y="-242.5" font-family="Helvetica,sans-Serif" font-size="10.00">swl/fileOps/swl_mapWriter</text>
<text text-anchor="middle" x="4632.5" y="-231.5" font-family="Helvetica,sans-Serif" font-size="10.00">KVP.h</text>
</a>
</g>
</g>
<!-- Node1&#45;&gt;Node89 -->
<g id="edge48" class="edge">
<title>Node1&#45;&gt;Node89</title>
<path fill="none" stroke="midnightblue" d="M4049.15,-301.35C4154.56,-294.54 4362.79,-279.42 4549.24,-255.09"/>
<polygon fill="midnightblue" stroke="midnightblue" points="4549.77,-258.56 4559.23,-253.78 4548.86,-251.62 4549.77,-258.56"/>
</g>
<!-- Node90 -->
<g id="node45" class="node">
<title>Node90</title>
<g id="a_node45"><a xlink:href="wld__wpaSupp__parser_8h.html" target="_top" xlink:title=" ">
<polygon fill="white" stroke="black" points="4723.5,-230 4723.5,-249 4851.5,-249 4851.5,-230 4723.5,-230"/>
<text text-anchor="middle" x="4787.5" y="-237" font-family="Helvetica,sans-Serif" font-size="10.00">wld_wpaSupp_parser.h</text>
</a>
</g>
</g>
<!-- Node1&#45;&gt;Node90 -->
<g id="edge49" class="edge">
<title>Node1&#45;&gt;Node90</title>
<path fill="none" stroke="midnightblue" d="M4049.1,-303.7C4179.32,-299.62 4471.08,-287.41 4714.5,-255 4722.6,-253.92 4731.16,-252.49 4739.45,-250.95"/>
<polygon fill="midnightblue" stroke="midnightblue" points="4740.23,-254.36 4749.39,-249.02 4738.9,-247.49 4740.23,-254.36"/>
</g>
<!-- Node91 -->
<g id="node46" class="node">
<title>Node91</title>
<g id="a_node46"><a xlink:href="wld__hostapd__cfgFile_8h.html" target="_top" xlink:title=" ">
<polygon fill="white" stroke="black" points="4870,-230 4870,-249 4995,-249 4995,-230 4870,-230"/>
<text text-anchor="middle" x="4932.5" y="-237" font-family="Helvetica,sans-Serif" font-size="10.00">wld_hostapd_cfgFile.h</text>
</a>
</g>
</g>
<!-- Node1&#45;&gt;Node91 -->
<g id="edge51" class="edge">
<title>Node1&#45;&gt;Node91</title>
<path fill="none" stroke="midnightblue" d="M4049.27,-304.86C4197.91,-302.74 4559.98,-293.69 4860.5,-255 4868.59,-253.96 4877.14,-252.53 4885.4,-250.98"/>
<polygon fill="midnightblue" stroke="midnightblue" points="4886.16,-254.4 4895.3,-249.04 4884.81,-247.53 4886.16,-254.4"/>
</g>
<!-- Node92 -->
<g id="node47" class="node">
<title>Node92</title>
<g id="a_node47"><a xlink:href="wld__rad__hostapd__api_8h.html" target="_top" xlink:title=" ">
<polygon fill="white" stroke="black" points="2232.5,-230 2232.5,-249 2360.5,-249 2360.5,-230 2232.5,-230"/>
<text text-anchor="middle" x="2296.5" y="-237" font-family="Helvetica,sans-Serif" font-size="10.00">wld_rad_hostapd_api.h</text>
</a>
</g>
</g>
<!-- Node1&#45;&gt;Node92 -->
<g id="edge52" class="edge">
<title>Node1&#45;&gt;Node92</title>
<path fill="none" stroke="midnightblue" d="M3911.8,-304.73C3645.28,-301.55 2679.4,-287.94 2374.5,-255 2365.25,-254 2355.45,-252.52 2346.03,-250.88"/>
<polygon fill="midnightblue" stroke="midnightblue" points="2346.47,-247.4 2336.01,-249.05 2345.22,-254.29 2346.47,-247.4"/>
</g>
<!-- Node93 -->
<g id="node48" class="node">
<title>Node93</title>
<g id="a_node48"><a xlink:href="wld__hostapd__ap__api_8h.html" target="_top" xlink:title=" ">
<polygon fill="white" stroke="red" points="2142,-168.5 2142,-187.5 2267,-187.5 2267,-168.5 2142,-168.5"/>
<text text-anchor="middle" x="2204.5" y="-175.5" font-family="Helvetica,sans-Serif" font-size="10.00">wld_hostapd_ap_api.h</text>
</a>
</g>
</g>
<!-- Node1&#45;&gt;Node93 -->
<g id="edge56" class="edge">
<title>Node1&#45;&gt;Node93</title>
<path fill="none" stroke="midnightblue" d="M3911.86,-305.83C3595.49,-307.04 2290.35,-308.76 2223.5,-255 2206.73,-241.51 2203.43,-215.66 2203.36,-197.88"/>
<polygon fill="midnightblue" stroke="midnightblue" points="2206.86,-197.9 2203.65,-187.81 2199.86,-197.7 2206.86,-197.9"/>
</g>
<!-- Node94 -->
<g id="node49" class="node">
<title>Node94</title>
<g id="a_node49"><a xlink:href="wld__chanmgt_8h.html" target="_top" xlink:title=" ">
<polygon fill="white" stroke="red" points="3898,-230 3898,-249 3989,-249 3989,-230 3898,-230"/>
<text text-anchor="middle" x="3943.5" y="-237" font-family="Helvetica,sans-Serif" font-size="10.00">wld_chanmgt.h</text>
</a>
</g>
</g>
<!-- Node1&#45;&gt;Node94 -->
<g id="edge57" class="edge">
<title>Node1&#45;&gt;Node94</title>
<path fill="none" stroke="midnightblue" d="M3972.47,-291.4C3966.87,-281.56 3959.37,-268.38 3953.4,-257.89"/>
<polygon fill="midnightblue" stroke="midnightblue" points="3956.44,-256.15 3948.45,-249.19 3950.35,-259.62 3956.44,-256.15"/>
</g>
<!-- Node95 -->
<g id="node50" class="node">
<title>Node95</title>
<g id="a_node50"><a xlink:href="wld__wpaCtrl__api_8h.html" target="_top" xlink:title=" ">
<polygon fill="white" stroke="red" points="2416.5,-168.5 2416.5,-187.5 2522.5,-187.5 2522.5,-168.5 2416.5,-168.5"/>
<text text-anchor="middle" x="2469.5" y="-175.5" font-family="Helvetica,sans-Serif" font-size="10.00">wld_wpaCtrl_api.h</text>
</a>
</g>
</g>
<!-- Node1&#45;&gt;Node95 -->
<g id="edge61" class="edge">
<title>Node1&#45;&gt;Node95</title>
<path fill="none" stroke="midnightblue" d="M3911.95,-304.01C3696.84,-299.1 3036.84,-282.17 2824.5,-255 2709.67,-240.31 2576.87,-207.57 2511,-190.25"/>
<polygon fill="midnightblue" stroke="midnightblue" points="2511.58,-186.78 2501.02,-187.61 2509.79,-193.55 2511.58,-186.78"/>
</g>
<!-- Node3 -->
<g id="node3" class="node">
<title>Node3</title>
<g id="a_node3"><a xlink:title=" ">
<polygon fill="white" stroke="#bfbfbf" points="1609.5,-112.5 1609.5,-131.5 1671.5,-131.5 1671.5,-112.5 1609.5,-112.5"/>
<text text-anchor="middle" x="1640.5" y="-119.5" font-family="Helvetica,sans-Serif" font-size="10.00">stdbool.h</text>
</a>
</g>
</g>
<!-- Node2&#45;&gt;Node3 -->
<g id="edge2" class="edge">
<title>Node2&#45;&gt;Node3</title>
<path fill="none" stroke="midnightblue" d="M2540.97,-170.03C2537.82,-169.22 2534.6,-168.51 2531.5,-168 2161.2,-107.32 2057.59,-180.44 1681.91,-131.93"/>
<polygon fill="midnightblue" stroke="midnightblue" points="1682.22,-128.44 1671.85,-130.61 1681.31,-135.38 1682.22,-128.44"/>
</g>
<!-- Node4 -->
<g id="node4" class="node">
<title>Node4</title>
<g id="a_node4"><a xlink:title=" ">
<polygon fill="white" stroke="#bfbfbf" points="0,-112.5 0,-131.5 53,-131.5 53,-112.5 0,-112.5"/>
<text text-anchor="middle" x="26.5" y="-119.5" font-family="Helvetica,sans-Serif" font-size="10.00">stdint.h</text>
</a>
</g>
</g>
<!-- Node2&#45;&gt;Node4 -->
<g id="edge3" class="edge">
<title>Node2&#45;&gt;Node4</title>
<path fill="none" stroke="midnightblue" d="M2540.98,-169.95C2537.83,-169.16 2534.6,-168.46 2531.5,-168 1992.13,-87.27 623.45,-201.6 63.33,-131.69"/>
<polygon fill="midnightblue" stroke="midnightblue" points="63.47,-128.17 53.1,-130.38 62.58,-135.12 63.47,-128.17"/>
</g>
<!-- Node2&#45;&gt;Node5 -->
<g id="edge4" class="edge">
<title>Node2&#45;&gt;Node5</title>
<path fill="none" stroke="midnightblue" d="M2540.98,-169.96C2537.83,-169.16 2534.6,-168.47 2531.5,-168 2020.24,-91.27 725.79,-171.28 191.75,-131.96"/>
<polygon fill="midnightblue" stroke="midnightblue" points="191.85,-128.46 181.61,-131.19 191.32,-135.44 191.85,-128.46"/>
</g>
<!-- Node6 -->
<g id="node6" class="node">
<title>Node6</title>
<g id="a_node6"><a xlink:title=" ">
<polygon fill="white" stroke="#bfbfbf" points="1689.5,-112.5 1689.5,-131.5 1825.5,-131.5 1825.5,-112.5 1689.5,-112.5"/>
<text text-anchor="middle" x="1757.5" y="-119.5" font-family="Helvetica,sans-Serif" font-size="10.00">swla/swla_commonLib.h</text>
</a>
</g>
</g>
<!-- Node2&#45;&gt;Node6 -->
<g id="edge5" class="edge">
<title>Node2&#45;&gt;Node6</title>
<path fill="none" stroke="midnightblue" d="M2540.97,-170.06C2537.82,-169.25 2534.59,-168.52 2531.5,-168 2228.91,-116.97 2145.39,-157.14 1836.07,-132.07"/>
<polygon fill="midnightblue" stroke="midnightblue" points="1836.17,-128.56 1825.91,-131.23 1835.59,-135.54 1836.17,-128.56"/>
</g>
<!-- Node7 -->
<g id="node7" class="node">
<title>Node7</title>
<g id="a_node7"><a xlink:title=" ">
<polygon fill="white" stroke="#bfbfbf" points="1843.5,-112.5 1843.5,-131.5 1931.5,-131.5 1931.5,-112.5 1843.5,-112.5"/>
<text text-anchor="middle" x="1887.5" y="-119.5" font-family="Helvetica,sans-Serif" font-size="10.00">swl/swl_uuid.h</text>
</a>
</g>
</g>
<!-- Node2&#45;&gt;Node7 -->
<g id="edge6" class="edge">
<title>Node2&#45;&gt;Node7</title>
<path fill="none" stroke="midnightblue" d="M2540.96,-170.09C2537.81,-169.27 2534.59,-168.54 2531.5,-168 2275.51,-123.61 2203.74,-161.09 1941.89,-132.02"/>
<polygon fill="midnightblue" stroke="midnightblue" points="1942.03,-128.52 1931.7,-130.87 1941.24,-135.47 1942.03,-128.52"/>
</g>
<!-- Node8 -->
<g id="node8" class="node">
<title>Node8</title>
<g id="a_node8"><a xlink:title=" ">
<polygon fill="white" stroke="#bfbfbf" points="1949.5,-112.5 1949.5,-131.5 2101.5,-131.5 2101.5,-112.5 1949.5,-112.5"/>
<text text-anchor="middle" x="2025.5" y="-119.5" font-family="Helvetica,sans-Serif" font-size="10.00">swla/swla_radioStandards.h</text>
</a>
</g>
</g>
<!-- Node2&#45;&gt;Node8 -->
<g id="edge7" class="edge">
<title>Node2&#45;&gt;Node8</title>
<path fill="none" stroke="midnightblue" d="M2540.95,-170.15C2537.8,-169.33 2534.59,-168.57 2531.5,-168 2350.12,-134.26 2299.22,-149.33 2112.12,-132.12"/>
<polygon fill="midnightblue" stroke="midnightblue" points="2112.23,-128.62 2101.95,-131.17 2111.58,-135.59 2112.23,-128.62"/>
</g>
<!-- Node9 -->
<g id="node9" class="node">
<title>Node9</title>
<g id="a_node9"><a xlink:title=" ">
<polygon fill="white" stroke="#bfbfbf" points="2120,-112.5 2120,-131.5 2221,-131.5 2221,-112.5 2120,-112.5"/>
<text text-anchor="middle" x="2170.5" y="-119.5" font-family="Helvetica,sans-Serif" font-size="10.00">swla/swla_time.h</text>
</a>
</g>
</g>
<!-- Node2&#45;&gt;Node9 -->
<g id="edge8" class="edge">
<title>Node2&#45;&gt;Node9</title>
<path fill="none" stroke="midnightblue" d="M2540.93,-170.25C2537.79,-169.41 2534.58,-168.63 2531.5,-168 2402.27,-141.72 2365.24,-149.77 2231.26,-132.19"/>
<polygon fill="midnightblue" stroke="midnightblue" points="2231.39,-128.67 2221.01,-130.82 2230.46,-135.61 2231.39,-128.67"/>
</g>
<!-- Node10 -->
<g id="node10" class="node">
<title>Node10</title>
<g id="a_node10"><a xlink:title=" ">
<polygon fill="white" stroke="#bfbfbf" points="2239,-112.5 2239,-131.5 2368,-131.5 2368,-112.5 2239,-112.5"/>
<text text-anchor="middle" x="2303.5" y="-119.5" font-family="Helvetica,sans-Serif" font-size="10.00">swla/swla_time_spec.h</text>
</a>
</g>
</g>
<!-- Node2&#45;&gt;Node10 -->
<g id="edge9" class="edge">
<title>Node2&#45;&gt;Node10</title>
<path fill="none" stroke="midnightblue" d="M2540.88,-170.46C2537.75,-169.59 2534.55,-168.74 2531.5,-168 2474.71,-154.18 2409.18,-141.59 2362.99,-133.26"/>
<polygon fill="midnightblue" stroke="midnightblue" points="2363.6,-129.82 2353.14,-131.5 2362.37,-136.71 2363.6,-129.82"/>
</g>
<!-- Node11 -->
<g id="node11" class="node">
<title>Node11</title>
<g id="a_node11"><a xlink:title=" ">
<polygon fill="white" stroke="#bfbfbf" points="2386.5,-112.5 2386.5,-131.5 2480.5,-131.5 2480.5,-112.5 2386.5,-112.5"/>
<text text-anchor="middle" x="2433.5" y="-119.5" font-family="Helvetica,sans-Serif" font-size="10.00">swla/swla_oui.h</text>
</a>
</g>
</g>
<!-- Node2&#45;&gt;Node11 -->
<g id="edge10" class="edge">
<title>Node2&#45;&gt;Node11</title>
<path fill="none" stroke="midnightblue" d="M2542.06,-168.44C2520.83,-159.56 2487.4,-145.56 2463.25,-135.45"/>
<polygon fill="midnightblue" stroke="midnightblue" points="2464.42,-132.15 2453.84,-131.52 2461.72,-138.61 2464.42,-132.15"/>
</g>
<!-- Node12 -->
<g id="node12" class="node">
<title>Node12</title>
<g id="a_node12"><a xlink:title=" ">
<polygon fill="white" stroke="#bfbfbf" points="2498.5,-112.5 2498.5,-131.5 2626.5,-131.5 2626.5,-112.5 2498.5,-112.5"/>
<text text-anchor="middle" x="2562.5" y="-119.5" font-family="Helvetica,sans-Serif" font-size="10.00">swla/swla_delayExec.h</text>
</a>
</g>
</g>
<!-- Node2&#45;&gt;Node12 -->
<g id="edge11" class="edge">
<title>Node2&#45;&gt;Node12</title>
<path fill="none" stroke="midnightblue" d="M2562.5,-168.08C2562.5,-161.01 2562.5,-150.86 2562.5,-141.99"/>
<polygon fill="midnightblue" stroke="midnightblue" points="2566,-141.75 2562.5,-131.75 2559,-141.75 2566,-141.75"/>
</g>
<!-- Node13 -->
<g id="node13" class="node">
<title>Node13</title>
<g id="a_node13"><a xlink:title=" ">
<polygon fill="white" stroke="#bfbfbf" points="2645,-112.5 2645,-131.5 2764,-131.5 2764,-112.5 2645,-112.5"/>
<text text-anchor="middle" x="2704.5" y="-119.5" font-family="Helvetica,sans-Serif" font-size="10.00">swla/swla_function.h</text>
</a>
</g>
</g>
<!-- Node2&#45;&gt;Node13 -->
<g id="edge12" class="edge">
<title>Node2&#45;&gt;Node13</title>
<path fill="none" stroke="midnightblue" d="M2584.07,-168.8C2607.56,-159.86 2645.39,-145.48 2672.38,-135.21"/>
<polygon fill="midnightblue" stroke="midnightblue" points="2673.69,-138.46 2681.79,-131.64 2671.2,-131.92 2673.69,-138.46"/>
</g>
<!-- Node14 -->
<g id="node14" class="node">
<title>Node14</title>
<g id="a_node14"><a xlink:title=" ">
<polygon fill="white" stroke="#bfbfbf" points="2782,-112.5 2782,-131.5 2923,-131.5 2923,-112.5 2782,-112.5"/>
<text text-anchor="middle" x="2852.5" y="-119.5" font-family="Helvetica,sans-Serif" font-size="10.00">swl/swl_usp_cmdStatus.h</text>
</a>
</g>
</g>
<!-- Node2&#45;&gt;Node14 -->
<g id="edge13" class="edge">
<title>Node2&#45;&gt;Node14</title>
<path fill="none" stroke="midnightblue" d="M2584.3,-172.94C2629,-164.62 2732.26,-145.39 2796.82,-133.37"/>
<polygon fill="midnightblue" stroke="midnightblue" points="2797.65,-136.77 2806.84,-131.5 2796.37,-129.89 2797.65,-136.77"/>
</g>
<!-- Node15 -->
<g id="node15" class="node">
<title>Node15</title>
<g id="a_node15"><a xlink:title=" ">
<polygon fill="white" stroke="#bfbfbf" points="2941.5,-112.5 2941.5,-131.5 3027.5,-131.5 3027.5,-112.5 2941.5,-112.5"/>
<text text-anchor="middle" x="2984.5" y="-119.5" font-family="Helvetica,sans-Serif" font-size="10.00">swl/swl_wps.h</text>
</a>
</g>
</g>
<!-- Node2&#45;&gt;Node15 -->
<g id="edge14" class="edge">
<title>Node2&#45;&gt;Node15</title>
<path fill="none" stroke="midnightblue" d="M2584.24,-174.74C2640.06,-168.87 2793.21,-152.22 2931.47,-132.09"/>
<polygon fill="midnightblue" stroke="midnightblue" points="2932.01,-135.55 2941.4,-130.63 2930.99,-128.62 2932.01,-135.55"/>
</g>
<!-- Node16 -->
<g id="node16" class="node">
<title>Node16</title>
<g id="a_node16"><a xlink:title=" ">
<polygon fill="white" stroke="#bfbfbf" points="3045.5,-112.5 3045.5,-131.5 3149.5,-131.5 3149.5,-112.5 3045.5,-112.5"/>
<text text-anchor="middle" x="3097.5" y="-119.5" font-family="Helvetica,sans-Serif" font-size="10.00">swl/swl_security.h</text>
</a>
</g>
</g>
<!-- Node2&#45;&gt;Node16 -->
<g id="edge15" class="edge">
<title>Node2&#45;&gt;Node16</title>
<path fill="none" stroke="midnightblue" d="M2584.28,-175.34C2650.42,-170.2 2854.96,-153.69 3035.35,-132.08"/>
<polygon fill="midnightblue" stroke="midnightblue" points="3035.77,-135.56 3045.28,-130.89 3034.93,-128.61 3035.77,-135.56"/>
</g>
<!-- Node17 -->
<g id="node17" class="node">
<title>Node17</title>
<g id="a_node17"><a xlink:title=" ">
<polygon fill="white" stroke="#bfbfbf" points="3168,-112.5 3168,-131.5 3251,-131.5 3251,-112.5 3168,-112.5"/>
<text text-anchor="middle" x="3209.5" y="-119.5" font-family="Helvetica,sans-Serif" font-size="10.00">amxc/amxc.h</text>
</a>
</g>
</g>
<!-- Node2&#45;&gt;Node17 -->
<g id="edge16" class="edge">
<title>Node2&#45;&gt;Node17</title>
<path fill="none" stroke="midnightblue" d="M2584.23,-176.14C2661.05,-172.94 2927.13,-160.45 3157.55,-131.99"/>
<polygon fill="midnightblue" stroke="midnightblue" points="3158.31,-135.42 3167.8,-130.71 3157.45,-128.47 3158.31,-135.42"/>
</g>
<!-- Node18 -->
<g id="node18" class="node">
<title>Node18</title>
<g id="a_node18"><a xlink:title=" ">
<polygon fill="white" stroke="#bfbfbf" points="3269.5,-112.5 3269.5,-131.5 3353.5,-131.5 3353.5,-112.5 3269.5,-112.5"/>
<text text-anchor="middle" x="3311.5" y="-119.5" font-family="Helvetica,sans-Serif" font-size="10.00">amxp/amxp.h</text>
</a>
</g>
</g>
<!-- Node2&#45;&gt;Node18 -->
<g id="edge17" class="edge">
<title>Node2&#45;&gt;Node18</title>
<path fill="none" stroke="midnightblue" d="M2584.29,-176.47C2669.36,-174.22 2987.36,-164.11 3259.2,-132.02"/>
<polygon fill="midnightblue" stroke="midnightblue" points="3259.74,-135.49 3269.25,-130.83 3258.91,-128.53 3259.74,-135.49"/>
</g>
<!-- Node19 -->
<g id="node19" class="node">
<title>Node19</title>
<g id="a_node19"><a xlink:title=" ">
<polygon fill="white" stroke="#bfbfbf" points="3371.5,-112.5 3371.5,-131.5 3511.5,-131.5 3511.5,-112.5 3371.5,-112.5"/>
<text text-anchor="middle" x="3441.5" y="-119.5" font-family="Helvetica,sans-Serif" font-size="10.00">amxd/amxd_parameter.h</text>
</a>
</g>
</g>
<!-- Node2&#45;&gt;Node19 -->
<g id="edge18" class="edge">
<title>Node2&#45;&gt;Node19</title>
<path fill="none" stroke="midnightblue" d="M2584.17,-176.24C2676.46,-172.89 3046.04,-158.53 3361.07,-132.07"/>
<polygon fill="midnightblue" stroke="midnightblue" points="3361.64,-135.54 3371.31,-131.21 3361.05,-128.56 3361.64,-135.54"/>
</g>
<!-- Node20 -->
<g id="node20" class="node">
<title>Node20</title>
<g id="a_node20"><a xlink:title=" ">
<polygon fill="white" stroke="#bfbfbf" points="3530,-112.5 3530,-131.5 3649,-131.5 3649,-112.5 3530,-112.5"/>
<text text-anchor="middle" x="3589.5" y="-119.5" font-family="Helvetica,sans-Serif" font-size="10.00">amxd/amxd_action.h</text>
</a>
</g>
</g>
<!-- Node2&#45;&gt;Node20 -->
<g id="edge19" class="edge">
<title>Node2&#45;&gt;Node20</title>
<path fill="none" stroke="midnightblue" d="M2584.13,-176.65C2687.14,-174.82 3138.47,-165.29 3519.57,-132"/>
<polygon fill="midnightblue" stroke="midnightblue" points="3520.04,-135.47 3529.69,-131.11 3519.43,-128.5 3520.04,-135.47"/>
</g>
<!-- Node21 -->
<g id="node21" class="node">
<title>Node21</title>
<g id="a_node21"><a xlink:title=" ">
<polygon fill="white" stroke="#bfbfbf" points="3667,-112.5 3667,-131.5 3842,-131.5 3842,-112.5 3667,-112.5"/>
<text text-anchor="middle" x="3754.5" y="-119.5" font-family="Helvetica,sans-Serif" font-size="10.00">amxd/amxd_object_parameter.h</text>
</a>
</g>
</g>
<!-- Node2&#45;&gt;Node21 -->
<g id="edge20" class="edge">
<title>Node2&#45;&gt;Node21</title>
<path fill="none" stroke="midnightblue" d="M2584.15,-176.53C2695.85,-174.04 3218.24,-161.31 3656.86,-132.08"/>
<polygon fill="midnightblue" stroke="midnightblue" points="3657.14,-135.57 3666.88,-131.41 3656.67,-128.58 3657.14,-135.57"/>
</g>
<!-- Node22 -->
<g id="node22" class="node">
<title>Node22</title>
<g id="a_node22"><a xlink:title=" ">
<polygon fill="white" stroke="#bfbfbf" points="3860.5,-112.5 3860.5,-131.5 4012.5,-131.5 4012.5,-112.5 3860.5,-112.5"/>
<text text-anchor="middle" x="3936.5" y="-119.5" font-family="Helvetica,sans-Serif" font-size="10.00">amxd/amxd_object_event.h</text>
</a>
</g>
</g>
<!-- Node2&#45;&gt;Node22 -->
<g id="edge21" class="edge">
<title>Node2&#45;&gt;Node22</title>
<path fill="none" stroke="midnightblue" d="M2584.19,-176.82C2707.23,-175.65 3330.02,-168.18 3849.73,-132.07"/>
<polygon fill="midnightblue" stroke="midnightblue" points="3850.34,-135.54 3860.07,-131.35 3849.85,-128.56 3850.34,-135.54"/>
</g>
<!-- Node23 -->
<g id="node23" class="node">
<title>Node23</title>
<g id="a_node23"><a xlink:title=" ">
<polygon fill="white" stroke="#bfbfbf" points="200,-112.5 200,-131.5 329,-131.5 329,-112.5 200,-112.5"/>
<text text-anchor="middle" x="264.5" y="-119.5" font-family="Helvetica,sans-Serif" font-size="10.00">amxd/amxd_function.h</text>
</a>
</g>
</g>
<!-- Node2&#45;&gt;Node23 -->
<g id="edge22" class="edge">
<title>Node2&#45;&gt;Node23</title>
<path fill="none" stroke="midnightblue" d="M2540.98,-169.96C2537.83,-169.16 2534.6,-168.47 2531.5,-168 2052.61,-95.88 840.66,-164.92 339.59,-132.05"/>
<polygon fill="midnightblue" stroke="midnightblue" points="339.56,-128.54 329.34,-131.36 339.09,-135.52 339.56,-128.54"/>
</g>
<!-- Node24 -->
<g id="node24" class="node">
<title>Node24</title>
<g id="a_node24"><a xlink:title=" ">
<polygon fill="white" stroke="#bfbfbf" points="347,-112.5 347,-131.5 516,-131.5 516,-112.5 347,-112.5"/>
<text text-anchor="middle" x="431.5" y="-119.5" font-family="Helvetica,sans-Serif" font-size="10.00">amxd/amxd_object_hierarchy.h</text>
</a>
</g>
</g>
<!-- Node2&#45;&gt;Node24 -->
<g id="edge23" class="edge">
<title>Node2&#45;&gt;Node24</title>
<path fill="none" stroke="midnightblue" d="M2540.98,-169.96C2537.83,-169.16 2534.6,-168.47 2531.5,-168 2093.68,-101.72 986.22,-156.69 526.2,-132.03"/>
<polygon fill="midnightblue" stroke="midnightblue" points="526.3,-128.53 516.13,-131.47 525.92,-135.52 526.3,-128.53"/>
</g>
<!-- Node25 -->
<g id="node25" class="node">
<title>Node25</title>
<g id="a_node25"><a xlink:title=" ">
<polygon fill="white" stroke="#bfbfbf" points="534,-112.5 534,-131.5 653,-131.5 653,-112.5 534,-112.5"/>
<text text-anchor="middle" x="593.5" y="-119.5" font-family="Helvetica,sans-Serif" font-size="10.00">amxd/amxd_object.h</text>
</a>
</g>
</g>
<!-- Node2&#45;&gt;Node25 -->
<g id="edge24" class="edge">
<title>Node2&#45;&gt;Node25</title>
<path fill="none" stroke="midnightblue" d="M2540.98,-169.97C2537.83,-169.17 2534.6,-168.47 2531.5,-168 2123.8,-106.01 1092.23,-162.42 663.19,-132.02"/>
<polygon fill="midnightblue" stroke="midnightblue" points="663.39,-128.52 653.16,-131.28 662.88,-135.5 663.39,-128.52"/>
</g>
<!-- Node26 -->
<g id="node26" class="node">
<title>Node26</title>
<g id="a_node26"><a xlink:title=" ">
<polygon fill="white" stroke="#bfbfbf" points="671,-112.5 671,-131.5 776,-131.5 776,-112.5 671,-112.5"/>
<text text-anchor="middle" x="723.5" y="-119.5" font-family="Helvetica,sans-Serif" font-size="10.00">amxd/amxd_dm.h</text>
</a>
</g>
</g>
<!-- Node2&#45;&gt;Node26 -->
<g id="edge25" class="edge">
<title>Node2&#45;&gt;Node26</title>
<path fill="none" stroke="midnightblue" d="M2540.98,-169.97C2537.83,-169.17 2534.6,-168.47 2531.5,-168 2151.05,-109.88 1188.42,-163.04 786.2,-131.9"/>
<polygon fill="midnightblue" stroke="midnightblue" points="786.46,-128.41 776.21,-131.1 785.9,-135.39 786.46,-128.41"/>
</g>
<!-- Node27 -->
<g id="node27" class="node">
<title>Node27</title>
<g id="a_node27"><a xlink:title=" ">
<polygon fill="white" stroke="#bfbfbf" points="794.5,-112.5 794.5,-131.5 938.5,-131.5 938.5,-112.5 794.5,-112.5"/>
<text text-anchor="middle" x="866.5" y="-119.5" font-family="Helvetica,sans-Serif" font-size="10.00">amxd/amxd_transaction.h</text>
</a>
</g>
</g>
<!-- Node2&#45;&gt;Node27 -->
<g id="edge26" class="edge">
<title>Node2&#45;&gt;Node27</title>
<path fill="none" stroke="midnightblue" d="M2540.98,-169.98C2537.83,-169.18 2534.6,-168.48 2531.5,-168 2186.73,-114.96 1315.18,-154.71 949.05,-132.02"/>
<polygon fill="midnightblue" stroke="midnightblue" points="949.1,-128.51 938.9,-131.36 948.65,-135.5 949.1,-128.51"/>
</g>
<!-- Node28 -->
<g id="node28" class="node">
<title>Node28</title>
<g id="a_node28"><a xlink:title=" ">
<polygon fill="white" stroke="#bfbfbf" points="956.5,-112.5 956.5,-131.5 1072.5,-131.5 1072.5,-112.5 956.5,-112.5"/>
<text text-anchor="middle" x="1014.5" y="-119.5" font-family="Helvetica,sans-Serif" font-size="10.00">amxb/amxb_types.h</text>
</a>
</g>
</g>
<!-- Node2&#45;&gt;Node28 -->
<g id="edge27" class="edge">
<title>Node2&#45;&gt;Node28</title>
<path fill="none" stroke="midnightblue" d="M2540.98,-169.98C2537.83,-169.18 2534.6,-168.48 2531.5,-168 2216.24,-119.16 1419.37,-156.71 1082.87,-131.98"/>
<polygon fill="midnightblue" stroke="midnightblue" points="1082.8,-128.47 1072.56,-131.19 1082.27,-135.45 1082.8,-128.47"/>
</g>
<!-- Node29 -->
<g id="node29" class="node">
<title>Node29</title>
<g id="a_node29"><a xlink:title=" ">
<polygon fill="white" stroke="#bfbfbf" points="1090.5,-112.5 1090.5,-131.5 1226.5,-131.5 1226.5,-112.5 1090.5,-112.5"/>
<text text-anchor="middle" x="1158.5" y="-119.5" font-family="Helvetica,sans-Serif" font-size="10.00">amxb/amxb_operators.h</text>
</a>
</g>
</g>
<!-- Node2&#45;&gt;Node29 -->
<g id="edge28" class="edge">
<title>Node2&#45;&gt;Node29</title>
<path fill="none" stroke="midnightblue" d="M2540.98,-169.99C2537.83,-169.19 2534.6,-168.49 2531.5,-168 2250.05,-123.98 1539.07,-152.1 1237.04,-132.02"/>
<polygon fill="midnightblue" stroke="midnightblue" points="1237.12,-128.51 1226.9,-131.31 1236.64,-135.5 1237.12,-128.51"/>
</g>
<!-- Node30 -->
<g id="node30" class="node">
<title>Node30</title>
<g id="a_node30"><a xlink:title=" ">
<polygon fill="white" stroke="#bfbfbf" points="1244.5,-112.5 1244.5,-131.5 1356.5,-131.5 1356.5,-112.5 1244.5,-112.5"/>
<text text-anchor="middle" x="1300.5" y="-119.5" font-family="Helvetica,sans-Serif" font-size="10.00">amxb/amxb_error.h</text>
</a>
</g>
</g>
<!-- Node2&#45;&gt;Node30 -->
<g id="edge29" class="edge">
<title>Node2&#45;&gt;Node30</title>
<path fill="none" stroke="midnightblue" d="M2540.98,-170C2537.83,-169.2 2534.6,-168.49 2531.5,-168 2022.76,-87.62 1883.96,-174.46 1367.17,-132.04"/>
<polygon fill="midnightblue" stroke="midnightblue" points="1367.09,-128.52 1356.83,-131.17 1366.5,-135.49 1367.09,-128.52"/>
</g>
<!-- Node31 -->
<g id="node31" class="node">
<title>Node31</title>
<g id="a_node31"><a xlink:title=" ">
<polygon fill="white" stroke="#bfbfbf" points="1375,-112.5 1375,-131.5 1458,-131.5 1458,-112.5 1375,-112.5"/>
<text text-anchor="middle" x="1416.5" y="-119.5" font-family="Helvetica,sans-Serif" font-size="10.00">amxo/amxo.h</text>
</a>
</g>
</g>
<!-- Node2&#45;&gt;Node31 -->
<g id="edge30" class="edge">
<title>Node2&#45;&gt;Node31</title>
<path fill="none" stroke="midnightblue" d="M2540.98,-170.01C2537.83,-169.2 2534.6,-168.49 2531.5,-168 2067.12,-93.93 1939.25,-180.83 1468.3,-132.03"/>
<polygon fill="midnightblue" stroke="midnightblue" points="1468.49,-128.53 1458.18,-130.97 1467.76,-135.49 1468.49,-128.53"/>
</g>
<!-- Node32 -->
<g id="node32" class="node">
<title>Node32</title>
<g id="a_node32"><a xlink:title=" ">
<polygon fill="white" stroke="#bfbfbf" points="1476,-112.5 1476,-131.5 1591,-131.5 1591,-112.5 1476,-112.5"/>
<text text-anchor="middle" x="1533.5" y="-119.5" font-family="Helvetica,sans-Serif" font-size="10.00">amxo/amxo_types.h</text>
</a>
</g>
</g>
<!-- Node2&#45;&gt;Node32 -->
<g id="edge31" class="edge">
<title>Node2&#45;&gt;Node32</title>
<path fill="none" stroke="midnightblue" d="M2540.97,-170.02C2537.82,-169.21 2534.6,-168.5 2531.5,-168 2126.04,-102.32 2014.84,-166.55 1601.34,-131.97"/>
<polygon fill="midnightblue" stroke="midnightblue" points="1601.47,-128.47 1591.21,-131.1 1600.87,-135.44 1601.47,-128.47"/>
</g>
<!-- Node2&#45;&gt;Node57 -->
<g id="edge32" class="edge">
<title>Node2&#45;&gt;Node57</title>
<path fill="none" stroke="midnightblue" d="M2584.38,-176.88C2717.9,-176.05 3436.69,-169.89 4021.5,-132 4033.26,-131.24 4045.86,-130.16 4057.81,-129.02"/>
<polygon fill="midnightblue" stroke="midnightblue" points="4058.51,-132.46 4068.12,-128 4057.82,-125.5 4058.51,-132.46"/>
</g>
<!-- Node2&#45;&gt;Node71 -->
<g id="edge35" class="edge">
<title>Node2&#45;&gt;Node71</title>
<path fill="none" stroke="midnightblue" d="M2584.22,-177.04C2724.01,-177.2 3511.56,-176.02 4163.8,-132.06"/>
<polygon fill="midnightblue" stroke="midnightblue" points="4164.13,-135.55 4173.87,-131.38 4163.65,-128.56 4164.13,-135.55"/>
</g>
<!-- Node57&#45;&gt;Node58 -->
<g id="edge33" class="edge">
<title>Node57&#45;&gt;Node58</title>
<path fill="none" stroke="midnightblue" d="M4114.32,-112.08C4115.77,-104.93 4117.87,-94.64 4119.69,-85.69"/>
<polygon fill="midnightblue" stroke="midnightblue" points="4123.15,-86.25 4121.72,-75.75 4116.29,-84.85 4123.15,-86.25"/>
</g>
<!-- Node58&#45;&gt;Node60 -->
<g id="edge34" class="edge">
<title>Node58&#45;&gt;Node60</title>
<path fill="none" stroke="midnightblue" d="M4116.56,-56.08C4110.57,-48.38 4101.75,-37.03 4094.45,-27.65"/>
<polygon fill="midnightblue" stroke="midnightblue" points="4097.21,-25.5 4088.31,-19.75 4091.68,-29.79 4097.21,-25.5"/>
</g>
<!-- Node75&#45;&gt;Node2 -->
<g id="edge37" class="edge">
<title>Node75&#45;&gt;Node2</title>
<path fill="none" stroke="midnightblue" d="M3070.89,-234.5C2970.01,-223.49 2689.17,-192.83 2594.29,-182.47"/>
<polygon fill="midnightblue" stroke="midnightblue" points="2594.49,-178.97 2584.17,-181.37 2593.73,-185.93 2594.49,-178.97"/>
</g>
<!-- Node82&#45;&gt;Node2 -->
<g id="edge39" class="edge">
<title>Node82&#45;&gt;Node2</title>
<path fill="none" stroke="midnightblue" d="M3398.22,-234.93C3232.08,-223.81 2726.64,-189.99 2594.43,-181.14"/>
<polygon fill="midnightblue" stroke="midnightblue" points="2594.39,-177.63 2584.18,-180.45 2593.92,-184.61 2594.39,-177.63"/>
</g>
<!-- Node84&#45;&gt;Node2 -->
<g id="edge41" class="edge">
<title>Node84&#45;&gt;Node2</title>
<path fill="none" stroke="midnightblue" d="M3640.3,-234.99C3607.73,-231.76 3557.32,-227.01 3513.5,-224 3152.94,-199.24 2714.54,-183.95 2594.3,-180.01"/>
<polygon fill="midnightblue" stroke="midnightblue" points="2594.4,-176.51 2584.29,-179.69 2594.17,-183.51 2594.4,-176.51"/>
</g>
<!-- Node85&#45;&gt;Node2 -->
<g id="edge43" class="edge">
<title>Node85&#45;&gt;Node2</title>
<path fill="none" stroke="midnightblue" d="M3785.18,-232.93C3765.64,-229.79 3740.21,-226.08 3717.5,-224 3273.41,-183.27 2729.95,-179.34 2594.31,-179.02"/>
<polygon fill="midnightblue" stroke="midnightblue" points="2594.2,-175.52 2584.19,-179 2594.19,-182.52 2594.2,-175.52"/>
</g>
<!-- Node92&#45;&gt;Node2 -->
<g id="edge53" class="edge">
<title>Node92&#45;&gt;Node2</title>
<path fill="none" stroke="midnightblue" d="M2340.9,-229.94C2386.27,-220.96 2458.96,-205.99 2531.15,-187.94"/>
<polygon fill="midnightblue" stroke="midnightblue" points="2532.03,-191.33 2540.87,-185.49 2530.32,-184.54 2532.03,-191.33"/>
</g>
<!-- Node92&#45;&gt;Node93 -->
<g id="edge54" class="edge">
<title>Node92&#45;&gt;Node93</title>
<path fill="none" stroke="midnightblue" d="M2283.32,-229.98C2268.43,-220.34 2243.96,-204.52 2226.23,-193.05"/>
<polygon fill="midnightblue" stroke="midnightblue" points="2227.95,-190 2217.66,-187.51 2224.15,-195.88 2227.95,-190"/>
</g>
<!-- Node93&#45;&gt;Node4 -->
<g id="edge55" class="edge">
<title>Node93&#45;&gt;Node4</title>
<path fill="none" stroke="midnightblue" d="M2141.87,-176.52C1815.58,-173.91 316.19,-160.53 63.23,-131.61"/>
<polygon fill="midnightblue" stroke="midnightblue" points="63.46,-128.12 53.11,-130.36 62.6,-135.06 63.46,-128.12"/>
</g>
<!-- Node94&#45;&gt;Node2 -->
<g id="edge58" class="edge">
<title>Node94&#45;&gt;Node2</title>
<path fill="none" stroke="midnightblue" d="M3900.41,-230C3887.03,-227.67 3872.2,-225.4 3858.5,-224 3602.1,-197.8 2767.68,-182.47 2594.25,-179.52"/>
<polygon fill="midnightblue" stroke="midnightblue" points="2594.29,-176.02 2584.24,-179.35 2594.18,-183.02 2594.29,-176.02"/>
</g>
<!-- Node95&#45;&gt;Node5 -->
<g id="edge62" class="edge">
<title>Node95&#45;&gt;Node5</title>
<path fill="none" stroke="midnightblue" d="M2416.17,-169.26C2411.55,-168.77 2406.95,-168.33 2402.5,-168 1425.37,-94.67 1172.48,-207.83 191.73,-131.98"/>
<polygon fill="midnightblue" stroke="midnightblue" points="191.85,-128.48 181.61,-131.19 191.31,-135.46 191.85,-128.48"/>
</g>
</g>
</svg>
