<?xml version="1.0" encoding="UTF-8" standalone="no"?>
<!DOCTYPE svg PUBLIC "-//W3C//DTD SVG 1.1//EN"
 "http://www.w3.org/Graphics/SVG/1.1/DTD/svg11.dtd">
<!-- Generated by graphviz version 2.43.0 (0)
 -->
<!-- Title: wld_nl80211_getInterfaces Pages: 1 -->
<svg width="735pt" height="104pt"
 viewBox="0.00 0.00 735.00 104.00" xmlns="http://www.w3.org/2000/svg" xmlns:xlink="http://www.w3.org/1999/xlink">
<g id="graph0" class="graph" transform="scale(1 1) rotate(0) translate(4 100)">
<title>wld_nl80211_getInterfaces</title>
<polygon fill="white" stroke="transparent" points="-4,4 -4,-100 731,-100 731,4 -4,4"/>
<!-- Node1 -->
<g id="node1" class="node">
<title>Node1</title>
<g id="a_node1"><a xlink:title=" ">
<polygon fill="#bfbfbf" stroke="black" points="0,-19.5 0,-38.5 148,-38.5 148,-19.5 0,-19.5"/>
<text text-anchor="middle" x="74" y="-26.5" font-family="Helvetica,sans-Serif" font-size="10.00">wld_nl80211_getInterfaces</text>
</a>
</g>
</g>
<!-- Node2 -->
<g id="node2" class="node">
<title>Node2</title>
<g id="a_node2"><a xlink:href="wld__nl80211__api_8c.html#a780977706b9f5767d9dfb6946edee0cd" target="_top" xlink:title=" ">
<polygon fill="white" stroke="black" points="184,-38.5 184,-57.5 349,-57.5 349,-38.5 184,-38.5"/>
<text text-anchor="middle" x="266.5" y="-45.5" font-family="Helvetica,sans-Serif" font-size="10.00">wld_nl80211_getInterfacesList</text>
</a>
</g>
</g>
<!-- Node1&#45;&gt;Node2 -->
<g id="edge1" class="edge">
<title>Node1&#45;&gt;Node2</title>
<path fill="none" stroke="midnightblue" d="M148.11,-36.29C156.48,-37.13 165.09,-37.99 173.67,-38.84"/>
<polygon fill="midnightblue" stroke="midnightblue" points="173.4,-42.33 183.7,-39.84 174.1,-35.37 173.4,-42.33"/>
</g>
<!-- Node6 -->
<g id="node6" class="node">
<title>Node6</title>
<g id="a_node6"><a xlink:href="wld__nl80211__core_8c.html#ab89990c364e3256f803e95aee1684407" target="_top" xlink:title=" ">
<polygon fill="white" stroke="black" points="187.5,-0.5 187.5,-19.5 345.5,-19.5 345.5,-0.5 187.5,-0.5"/>
<text text-anchor="middle" x="266.5" y="-7.5" font-family="Helvetica,sans-Serif" font-size="10.00">wld_nl80211_getSharedState</text>
</a>
</g>
</g>
<!-- Node1&#45;&gt;Node6 -->
<g id="edge5" class="edge">
<title>Node1&#45;&gt;Node6</title>
<path fill="none" stroke="midnightblue" d="M148.11,-21.71C157.61,-20.76 167.42,-19.78 177.14,-18.81"/>
<polygon fill="midnightblue" stroke="midnightblue" points="177.61,-22.28 187.21,-17.81 176.91,-15.32 177.61,-22.28"/>
</g>
<!-- Node3 -->
<g id="node3" class="node">
<title>Node3</title>
<g id="a_node3"><a xlink:href="wld__nl80211__api_8c.html#afdf010dfecdbc8cf9485916d372d91da" target="_top" xlink:title=" ">
<polygon fill="white" stroke="black" points="385,-76.5 385,-95.5 562,-95.5 562,-76.5 385,-76.5"/>
<text text-anchor="middle" x="473.5" y="-83.5" font-family="Helvetica,sans-Serif" font-size="10.00">wld_nl80211_countWiphyFromFS</text>
</a>
</g>
</g>
<!-- Node2&#45;&gt;Node3 -->
<g id="edge2" class="edge">
<title>Node2&#45;&gt;Node3</title>
<path fill="none" stroke="midnightblue" d="M318.97,-57.54C346.87,-62.71 381.55,-69.14 410.88,-74.58"/>
<polygon fill="midnightblue" stroke="midnightblue" points="410.54,-78.07 421.01,-76.46 411.82,-71.19 410.54,-78.07"/>
</g>
<!-- Node4 -->
<g id="node4" class="node">
<title>Node4</title>
<g id="a_node4"><a xlink:href="wld__nl80211__core_8c.html#a51795ba7297b263584b02e6dd2d8ddb6" target="_top" xlink:title=" ">
<polygon fill="white" stroke="black" points="397.5,-38.5 397.5,-57.5 549.5,-57.5 549.5,-38.5 397.5,-38.5"/>
<text text-anchor="middle" x="473.5" y="-45.5" font-family="Helvetica,sans-Serif" font-size="10.00">wld_nl80211_sendCmdSync</text>
</a>
</g>
</g>
<!-- Node2&#45;&gt;Node4 -->
<g id="edge3" class="edge">
<title>Node2&#45;&gt;Node4</title>
<path fill="none" stroke="midnightblue" d="M349.11,-48C361.71,-48 374.75,-48 387.42,-48"/>
<polygon fill="midnightblue" stroke="midnightblue" points="387.49,-51.5 397.49,-48 387.49,-44.5 387.49,-51.5"/>
</g>
<!-- Node5 -->
<g id="node5" class="node">
<title>Node5</title>
<g id="a_node5"><a xlink:href="wld__nl80211__core_8c.html#a3c5a525596463f925b95bbc76036d07e" target="_top" xlink:title=" ">
<polygon fill="white" stroke="black" points="598,-38.5 598,-57.5 727,-57.5 727,-38.5 598,-38.5"/>
<text text-anchor="middle" x="662.5" y="-45.5" font-family="Helvetica,sans-Serif" font-size="10.00">wld_nl80211_sendCmd</text>
</a>
</g>
</g>
<!-- Node4&#45;&gt;Node5 -->
<g id="edge4" class="edge">
<title>Node4&#45;&gt;Node5</title>
<path fill="none" stroke="midnightblue" d="M549.75,-48C562.2,-48 575.1,-48 587.51,-48"/>
<polygon fill="midnightblue" stroke="midnightblue" points="587.81,-51.5 597.81,-48 587.81,-44.5 587.81,-51.5"/>
</g>
<!-- Node7 -->
<g id="node7" class="node">
<title>Node7</title>
<g id="a_node7"><a xlink:href="wld__nl80211__core_8c.html#ac64e98962155641a465909b3c8fc0779" target="_top" xlink:title=" ">
<polygon fill="white" stroke="black" points="431,-0.5 431,-19.5 516,-19.5 516,-0.5 431,-0.5"/>
<text text-anchor="middle" x="473.5" y="-7.5" font-family="Helvetica,sans-Serif" font-size="10.00">s_isValidState</text>
</a>
</g>
</g>
<!-- Node6&#45;&gt;Node7 -->
<g id="edge6" class="edge">
<title>Node6&#45;&gt;Node7</title>
<path fill="none" stroke="midnightblue" d="M345.59,-10C370.71,-10 397.9,-10 420.65,-10"/>
<polygon fill="midnightblue" stroke="midnightblue" points="420.77,-13.5 430.77,-10 420.77,-6.5 420.77,-13.5"/>
</g>
</g>
</svg>
