<?xml version="1.0" encoding="UTF-8" standalone="no"?>
<!DOCTYPE svg PUBLIC "-//W3C//DTD SVG 1.1//EN"
 "http://www.w3.org/Graphics/SVG/1.1/DTD/svg11.dtd">
<!-- Generated by graphviz version 2.43.0 (0)
 -->
<!-- Title: wld_wpaCtrlInterface_checkConnectionPath Pages: 1 -->
<svg width="492pt" height="78pt"
 viewBox="0.00 0.00 492.00 77.50" xmlns="http://www.w3.org/2000/svg" xmlns:xlink="http://www.w3.org/1999/xlink">
<g id="graph0" class="graph" transform="scale(1 1) rotate(0) translate(4 73.5)">
<title>wld_wpaCtrlInterface_checkConnectionPath</title>
<polygon fill="white" stroke="transparent" points="-4,4 -4,-73.5 488,-73.5 488,4 -4,4"/>
<!-- Node1 -->
<g id="node1" class="node">
<title>Node1</title>
<g id="a_node1"><a xlink:title=" ">
<polygon fill="#bfbfbf" stroke="black" points="0,-22.5 0,-52.5 126,-52.5 126,-22.5 0,-22.5"/>
<text text-anchor="start" x="8" y="-40.5" font-family="Helvetica,sans-Serif" font-size="10.00">wld_wpaCtrlInterface</text>
<text text-anchor="middle" x="63" y="-29.5" font-family="Helvetica,sans-Serif" font-size="10.00">_checkConnectionPath</text>
</a>
</g>
</g>
<!-- Node2 -->
<g id="node2" class="node">
<title>Node2</title>
<g id="a_node2"><a xlink:href="wld__wpaCtrlConnection_8c.html#a379089510626b43f9386a6db71f4a3ef" target="_top" xlink:title=" ">
<polygon fill="white" stroke="black" points="162,-50 162,-69 317,-69 317,-50 162,-50"/>
<text text-anchor="middle" x="239.5" y="-57" font-family="Helvetica,sans-Serif" font-size="10.00">wld_wpaCtrl_checkSockPath</text>
</a>
</g>
</g>
<!-- Node1&#45;&gt;Node2 -->
<g id="edge1" class="edge">
<title>Node1&#45;&gt;Node2</title>
<path fill="none" stroke="midnightblue" d="M126.01,-45.32C134.7,-46.41 143.75,-47.55 152.77,-48.69"/>
<polygon fill="midnightblue" stroke="midnightblue" points="152.57,-52.19 162.93,-49.97 153.45,-45.25 152.57,-52.19"/>
</g>
<!-- Node3 -->
<g id="node3" class="node">
<title>Node3</title>
<g id="a_node3"><a xlink:href="wld__wpaCtrlInterface_8c.html#a9acfa80398f0e1389219c511e1b3b073" target="_top" xlink:title=" ">
<polygon fill="white" stroke="black" points="179.5,-0.5 179.5,-30.5 299.5,-30.5 299.5,-0.5 179.5,-0.5"/>
<text text-anchor="start" x="187.5" y="-18.5" font-family="Helvetica,sans-Serif" font-size="10.00">wld_wpaCtrlInterface</text>
<text text-anchor="middle" x="239.5" y="-7.5" font-family="Helvetica,sans-Serif" font-size="10.00">_getPath</text>
</a>
</g>
</g>
<!-- Node1&#45;&gt;Node3 -->
<g id="edge2" class="edge">
<title>Node1&#45;&gt;Node3</title>
<path fill="none" stroke="midnightblue" d="M126.01,-29.68C139.97,-27.92 154.86,-26.04 169.09,-24.25"/>
<polygon fill="midnightblue" stroke="midnightblue" points="169.83,-27.68 179.32,-22.96 168.96,-20.74 169.83,-27.68"/>
</g>
<!-- Node4 -->
<g id="node4" class="node">
<title>Node4</title>
<g id="a_node4"><a xlink:href="wld__wpaCtrlConnection_8c.html#a47a34d899bc01dfe767b26ee4f7b87db" target="_top" xlink:title=" ">
<polygon fill="white" stroke="black" points="353,-0.5 353,-30.5 484,-30.5 484,-0.5 353,-0.5"/>
<text text-anchor="start" x="361" y="-18.5" font-family="Helvetica,sans-Serif" font-size="10.00">wld_wpaCtrlConnection</text>
<text text-anchor="middle" x="418.5" y="-7.5" font-family="Helvetica,sans-Serif" font-size="10.00">_getConnSrvPath</text>
</a>
</g>
</g>
<!-- Node3&#45;&gt;Node4 -->
<g id="edge3" class="edge">
<title>Node3&#45;&gt;Node4</title>
<path fill="none" stroke="midnightblue" d="M299.93,-15.5C313.59,-15.5 328.29,-15.5 342.51,-15.5"/>
<polygon fill="midnightblue" stroke="midnightblue" points="342.75,-19 352.75,-15.5 342.75,-12 342.75,-19"/>
</g>
</g>
</svg>
