<?xml version="1.0" encoding="UTF-8" standalone="no"?>
<!DOCTYPE svg PUBLIC "-//W3C//DTD SVG 1.1//EN"
 "http://www.w3.org/Graphics/SVG/1.1/DTD/svg11.dtd">
<!-- Generated by graphviz version 2.43.0 (0)
 -->
<!-- Title: include/wld/wld_ep_nl80211.h Pages: 1 -->
<svg width="270pt" height="106pt"
 viewBox="0.00 0.00 269.50 106.00" xmlns="http://www.w3.org/2000/svg" xmlns:xlink="http://www.w3.org/1999/xlink">
<g id="graph0" class="graph" transform="scale(1 1) rotate(0) translate(4 102)">
<title>include/wld/wld_ep_nl80211.h</title>
<polygon fill="white" stroke="transparent" points="-4,4 -4,-102 265.5,-102 265.5,4 -4,4"/>
<!-- Node1 -->
<g id="node1" class="node">
<title>Node1</title>
<g id="a_node1"><a xlink:title=" ">
<polygon fill="#bfbfbf" stroke="black" points="79.5,-67.5 79.5,-97.5 189.5,-97.5 189.5,-67.5 79.5,-67.5"/>
<text text-anchor="start" x="87.5" y="-85.5" font-family="Helvetica,sans-Serif" font-size="10.00">include/wld/wld_ep</text>
<text text-anchor="middle" x="134.5" y="-74.5" font-family="Helvetica,sans-Serif" font-size="10.00">_nl80211.h</text>
</a>
</g>
</g>
<!-- Node2 -->
<g id="node2" class="node">
<title>Node2</title>
<g id="a_node2"><a xlink:href="wifiGen__ep_8c.html" target="_top" xlink:title=" ">
<polygon fill="white" stroke="black" points="0,-6 0,-25 129,-25 129,-6 0,-6"/>
<text text-anchor="middle" x="64.5" y="-13" font-family="Helvetica,sans-Serif" font-size="10.00">src/Plugin/wifiGen_ep.c</text>
</a>
</g>
</g>
<!-- Node1&#45;&gt;Node2 -->
<g id="edge1" class="edge">
<title>Node1&#45;&gt;Node2</title>
<path fill="none" stroke="midnightblue" d="M111.71,-60.34C98.85,-48.4 83.49,-34.14 73.86,-25.19"/>
<polygon fill="midnightblue" stroke="midnightblue" points="109.6,-63.16 119.31,-67.4 114.36,-58.03 109.6,-63.16"/>
</g>
<!-- Node3 -->
<g id="node3" class="node">
<title>Node3</title>
<g id="a_node3"><a xlink:href="wld__rad__nl80211_8c.html" target="_top" xlink:title=" ">
<polygon fill="white" stroke="black" points="147.5,-0.5 147.5,-30.5 261.5,-30.5 261.5,-0.5 147.5,-0.5"/>
<text text-anchor="start" x="155.5" y="-18.5" font-family="Helvetica,sans-Serif" font-size="10.00">src/nl80211/wld_rad</text>
<text text-anchor="middle" x="204.5" y="-7.5" font-family="Helvetica,sans-Serif" font-size="10.00">_nl80211.c</text>
</a>
</g>
</g>
<!-- Node1&#45;&gt;Node3 -->
<g id="edge2" class="edge">
<title>Node1&#45;&gt;Node3</title>
<path fill="none" stroke="midnightblue" d="M157.32,-60.31C167.82,-50.56 179.99,-39.26 189.34,-30.58"/>
<polygon fill="midnightblue" stroke="midnightblue" points="154.64,-58.03 149.69,-67.4 159.4,-63.16 154.64,-58.03"/>
</g>
</g>
</svg>
