<?xml version="1.0" encoding="UTF-8" standalone="no"?>
<!DOCTYPE svg PUBLIC "-//W3C//DTD SVG 1.1//EN"
 "http://www.w3.org/Graphics/SVG/1.1/DTD/svg11.dtd">
<!-- Generated by graphviz version 2.43.0 (0)
 -->
<!-- Title: src/nl80211/wld_ap_nl80211.c Pages: 1 -->
<svg width="5130pt" height="375pt"
 viewBox="0.00 0.00 5130.00 375.00" xmlns="http://www.w3.org/2000/svg" xmlns:xlink="http://www.w3.org/1999/xlink">
<g id="graph0" class="graph" transform="scale(1 1) rotate(0) translate(4 371)">
<title>src/nl80211/wld_ap_nl80211.c</title>
<polygon fill="white" stroke="transparent" points="-4,4 -4,-371 5126,-371 5126,4 -4,4"/>
<!-- Node1 -->
<g id="node1" class="node">
<title>Node1</title>
<g id="a_node1"><a xlink:title=" ">
<polygon fill="#bfbfbf" stroke="black" points="2266,-336.5 2266,-366.5 2376,-366.5 2376,-336.5 2266,-336.5"/>
<text text-anchor="start" x="2274" y="-354.5" font-family="Helvetica,sans-Serif" font-size="10.00">src/nl80211/wld_ap</text>
<text text-anchor="middle" x="2321" y="-343.5" font-family="Helvetica,sans-Serif" font-size="10.00">_nl80211.c</text>
</a>
</g>
</g>
<!-- Node2 -->
<g id="node2" class="node">
<title>Node2</title>
<g id="a_node2"><a xlink:href="wld__ap__nl80211_8h.html" target="_top" xlink:title=" ">
<polygon fill="white" stroke="black" points="2432,-280.5 2432,-299.5 2536,-299.5 2536,-280.5 2432,-280.5"/>
<text text-anchor="middle" x="2484" y="-287.5" font-family="Helvetica,sans-Serif" font-size="10.00">wld_ap_nl80211.h</text>
</a>
</g>
</g>
<!-- Node1&#45;&gt;Node2 -->
<g id="edge1" class="edge">
<title>Node1&#45;&gt;Node2</title>
<path fill="none" stroke="midnightblue" d="M2359.63,-336.4C2387.34,-326.28 2424.31,-312.79 2450.72,-303.15"/>
<polygon fill="midnightblue" stroke="midnightblue" points="2452.09,-306.37 2460.28,-299.66 2449.69,-299.8 2452.09,-306.37"/>
</g>
<!-- Node6 -->
<g id="node6" class="node">
<title>Node6</title>
<g id="a_node6"><a xlink:title=" ">
<polygon fill="white" stroke="#bfbfbf" points="66,-56.5 66,-75.5 176,-75.5 176,-56.5 66,-56.5"/>
<text text-anchor="middle" x="121" y="-63.5" font-family="Helvetica,sans-Serif" font-size="10.00">swl/swl_common.h</text>
</a>
</g>
</g>
<!-- Node1&#45;&gt;Node6 -->
<g id="edge64" class="edge">
<title>Node1&#45;&gt;Node6</title>
<path fill="none" stroke="midnightblue" d="M2265.92,-350.72C1914.44,-351.8 0,-352.25 0,-235 0,-235 0,-235 0,-177 0,-128.99 52.8,-96.41 88.64,-79.82"/>
<polygon fill="midnightblue" stroke="midnightblue" points="90.52,-82.82 98.24,-75.57 87.68,-76.42 90.52,-82.82"/>
</g>
<!-- Node87 -->
<g id="node49" class="node">
<title>Node87</title>
<g id="a_node49"><a xlink:href="wld__ssid__nl80211__priv_8h.html" target="_top" xlink:title=" ">
<polygon fill="white" stroke="black" points="2253.5,-280.5 2253.5,-299.5 2388.5,-299.5 2388.5,-280.5 2253.5,-280.5"/>
<text text-anchor="middle" x="2321" y="-287.5" font-family="Helvetica,sans-Serif" font-size="10.00">wld_ssid_nl80211_priv.h</text>
</a>
</g>
</g>
<!-- Node1&#45;&gt;Node87 -->
<g id="edge60" class="edge">
<title>Node1&#45;&gt;Node87</title>
<path fill="none" stroke="midnightblue" d="M2321,-336.4C2321,-328.47 2321,-318.46 2321,-309.86"/>
<polygon fill="midnightblue" stroke="midnightblue" points="2324.5,-309.66 2321,-299.66 2317.5,-309.66 2324.5,-309.66"/>
</g>
<!-- Node3 -->
<g id="node3" class="node">
<title>Node3</title>
<g id="a_node3"><a xlink:href="wld_8h.html" target="_top" xlink:title=" ">
<polygon fill="white" stroke="red" points="2462.5,-168.5 2462.5,-187.5 2505.5,-187.5 2505.5,-168.5 2462.5,-168.5"/>
<text text-anchor="middle" x="2484" y="-175.5" font-family="Helvetica,sans-Serif" font-size="10.00">wld.h</text>
</a>
</g>
</g>
<!-- Node2&#45;&gt;Node3 -->
<g id="edge2" class="edge">
<title>Node2&#45;&gt;Node3</title>
<path fill="none" stroke="midnightblue" d="M2484,-280.37C2484,-262.62 2484,-221.67 2484,-197.6"/>
<polygon fill="midnightblue" stroke="midnightblue" points="2487.5,-197.59 2484,-187.59 2480.5,-197.59 2487.5,-197.59"/>
</g>
<!-- Node76 -->
<g id="node46" class="node">
<title>Node76</title>
<g id="a_node46"><a xlink:href="wld__nl80211__api_8h.html" target="_top" xlink:title=" ">
<polygon fill="white" stroke="red" points="2348.5,-224.5 2348.5,-243.5 2455.5,-243.5 2455.5,-224.5 2348.5,-224.5"/>
<text text-anchor="middle" x="2402" y="-231.5" font-family="Helvetica,sans-Serif" font-size="10.00">wld_nl80211_api.h</text>
</a>
</g>
</g>
<!-- Node2&#45;&gt;Node76 -->
<g id="edge57" class="edge">
<title>Node2&#45;&gt;Node76</title>
<path fill="none" stroke="midnightblue" d="M2470.83,-280.32C2458.15,-271.98 2438.77,-259.21 2423.79,-249.35"/>
<polygon fill="midnightblue" stroke="midnightblue" points="2425.42,-246.23 2415.14,-243.65 2421.57,-252.08 2425.42,-246.23"/>
</g>
<!-- Node85 -->
<g id="node47" class="node">
<title>Node85</title>
<g id="a_node47"><a xlink:href="wld__nl80211__events_8h.html" target="_top" xlink:title=" ">
<polygon fill="white" stroke="red" points="2512.5,-224.5 2512.5,-243.5 2637.5,-243.5 2637.5,-224.5 2512.5,-224.5"/>
<text text-anchor="middle" x="2575" y="-231.5" font-family="Helvetica,sans-Serif" font-size="10.00">wld_nl80211_events.h</text>
</a>
</g>
</g>
<!-- Node2&#45;&gt;Node85 -->
<g id="edge58" class="edge">
<title>Node2&#45;&gt;Node85</title>
<path fill="none" stroke="midnightblue" d="M2498.62,-280.32C2512.95,-271.82 2535.01,-258.73 2551.75,-248.8"/>
<polygon fill="midnightblue" stroke="midnightblue" points="2553.6,-251.77 2560.42,-243.65 2550.03,-245.75 2553.6,-251.77"/>
</g>
<!-- Node86 -->
<g id="node48" class="node">
<title>Node86</title>
<g id="a_node48"><a xlink:href="wld__nl80211__debug_8h.html" target="_top" xlink:title=" ">
<polygon fill="white" stroke="red" points="2656,-224.5 2656,-243.5 2778,-243.5 2778,-224.5 2656,-224.5"/>
<text text-anchor="middle" x="2717" y="-231.5" font-family="Helvetica,sans-Serif" font-size="10.00">wld_nl80211_debug.h</text>
</a>
</g>
</g>
<!-- Node2&#45;&gt;Node86 -->
<g id="edge59" class="edge">
<title>Node2&#45;&gt;Node86</title>
<path fill="none" stroke="midnightblue" d="M2520.92,-280.44C2561.4,-271.06 2626.42,-255.99 2670.38,-245.8"/>
<polygon fill="midnightblue" stroke="midnightblue" points="2671.3,-249.18 2680.25,-243.52 2669.72,-242.36 2671.3,-249.18"/>
</g>
<!-- Node4 -->
<g id="node4" class="node">
<title>Node4</title>
<g id="a_node4"><a xlink:title=" ">
<polygon fill="white" stroke="#bfbfbf" points="5060,-56.5 5060,-75.5 5122,-75.5 5122,-56.5 5060,-56.5"/>
<text text-anchor="middle" x="5091" y="-63.5" font-family="Helvetica,sans-Serif" font-size="10.00">stdbool.h</text>
</a>
</g>
</g>
<!-- Node3&#45;&gt;Node4 -->
<g id="edge3" class="edge">
<title>Node3&#45;&gt;Node4</title>
<path fill="none" stroke="midnightblue" d="M2505.83,-176.96C2752.74,-176.51 5011.68,-171.26 5067,-132 5081.7,-121.57 5087.41,-101.09 5089.62,-85.89"/>
<polygon fill="midnightblue" stroke="midnightblue" points="5093.15,-85.87 5090.72,-75.55 5086.18,-85.12 5093.15,-85.87"/>
</g>
<!-- Node5 -->
<g id="node5" class="node">
<title>Node5</title>
<g id="a_node5"><a xlink:title=" ">
<polygon fill="white" stroke="#bfbfbf" points="148.5,-0.5 148.5,-19.5 201.5,-19.5 201.5,-0.5 148.5,-0.5"/>
<text text-anchor="middle" x="175" y="-7.5" font-family="Helvetica,sans-Serif" font-size="10.00">stdint.h</text>
</a>
</g>
</g>
<!-- Node3&#45;&gt;Node5 -->
<g id="edge4" class="edge">
<title>Node3&#45;&gt;Node5</title>
<path fill="none" stroke="midnightblue" d="M2462.31,-176.9C2226.09,-175.8 139.39,-165.16 86,-132 55.29,-112.92 36.49,-85.77 57,-56 75.14,-29.66 110.92,-18.73 138.35,-14.2"/>
<polygon fill="midnightblue" stroke="midnightblue" points="138.99,-17.64 148.39,-12.75 138,-10.71 138.99,-17.64"/>
</g>
<!-- Node3&#45;&gt;Node6 -->
<g id="edge5" class="edge">
<title>Node3&#45;&gt;Node6</title>
<path fill="none" stroke="midnightblue" d="M2462.3,-177.01C2226,-177.11 138.86,-176.69 95,-132 81.91,-118.66 93.93,-97.88 105.62,-83.42"/>
<polygon fill="midnightblue" stroke="midnightblue" points="108.37,-85.6 112.27,-75.74 103.08,-81.01 108.37,-85.6"/>
</g>
<!-- Node7 -->
<g id="node7" class="node">
<title>Node7</title>
<g id="a_node7"><a xlink:title=" ">
<polygon fill="white" stroke="#bfbfbf" points="538,-112.5 538,-131.5 674,-131.5 674,-112.5 538,-112.5"/>
<text text-anchor="middle" x="606" y="-119.5" font-family="Helvetica,sans-Serif" font-size="10.00">swla/swla_commonLib.h</text>
</a>
</g>
</g>
<!-- Node3&#45;&gt;Node7 -->
<g id="edge6" class="edge">
<title>Node3&#45;&gt;Node7</title>
<path fill="none" stroke="midnightblue" d="M2462.08,-177.21C2311.99,-178.49 1420.38,-183.58 684.41,-132.03"/>
<polygon fill="midnightblue" stroke="midnightblue" points="684.62,-128.54 674.4,-131.32 684.13,-135.52 684.62,-128.54"/>
</g>
<!-- Node8 -->
<g id="node8" class="node">
<title>Node8</title>
<g id="a_node8"><a xlink:title=" ">
<polygon fill="white" stroke="#bfbfbf" points="692,-112.5 692,-131.5 780,-131.5 780,-112.5 692,-112.5"/>
<text text-anchor="middle" x="736" y="-119.5" font-family="Helvetica,sans-Serif" font-size="10.00">swl/swl_uuid.h</text>
</a>
</g>
</g>
<!-- Node3&#45;&gt;Node8 -->
<g id="edge7" class="edge">
<title>Node3&#45;&gt;Node8</title>
<path fill="none" stroke="midnightblue" d="M2462.3,-176.85C2291.21,-175.58 1156.96,-166.04 790.28,-131.95"/>
<polygon fill="midnightblue" stroke="midnightblue" points="790.47,-128.45 780.18,-130.98 789.81,-135.42 790.47,-128.45"/>
</g>
<!-- Node9 -->
<g id="node9" class="node">
<title>Node9</title>
<g id="a_node9"><a xlink:title=" ">
<polygon fill="white" stroke="#bfbfbf" points="798,-112.5 798,-131.5 950,-131.5 950,-112.5 798,-112.5"/>
<text text-anchor="middle" x="874" y="-119.5" font-family="Helvetica,sans-Serif" font-size="10.00">swla/swla_radioStandards.h</text>
</a>
</g>
</g>
<!-- Node3&#45;&gt;Node9 -->
<g id="edge8" class="edge">
<title>Node3&#45;&gt;Node9</title>
<path fill="none" stroke="midnightblue" d="M2462.47,-176.98C2327.15,-176.73 1580.19,-173.48 960.46,-132.04"/>
<polygon fill="midnightblue" stroke="midnightblue" points="960.64,-128.55 950.43,-131.37 960.17,-135.53 960.64,-128.55"/>
</g>
<!-- Node10 -->
<g id="node10" class="node">
<title>Node10</title>
<g id="a_node10"><a xlink:title=" ">
<polygon fill="white" stroke="#bfbfbf" points="4799.5,-0.5 4799.5,-19.5 4900.5,-19.5 4900.5,-0.5 4799.5,-0.5"/>
<text text-anchor="middle" x="4850" y="-7.5" font-family="Helvetica,sans-Serif" font-size="10.00">swla/swla_time.h</text>
</a>
</g>
</g>
<!-- Node3&#45;&gt;Node10 -->
<g id="edge9" class="edge">
<title>Node3&#45;&gt;Node10</title>
<path fill="none" stroke="midnightblue" d="M2505.67,-176.98C2739.46,-176.67 4786.95,-172.81 4833,-132 4861.62,-106.64 4858.36,-57 4853.93,-29.85"/>
<polygon fill="midnightblue" stroke="midnightblue" points="4857.32,-28.92 4852.05,-19.73 4850.44,-30.2 4857.32,-28.92"/>
</g>
<!-- Node11 -->
<g id="node11" class="node">
<title>Node11</title>
<g id="a_node11"><a xlink:title=" ">
<polygon fill="white" stroke="#bfbfbf" points="968.5,-112.5 968.5,-131.5 1097.5,-131.5 1097.5,-112.5 968.5,-112.5"/>
<text text-anchor="middle" x="1033" y="-119.5" font-family="Helvetica,sans-Serif" font-size="10.00">swla/swla_time_spec.h</text>
</a>
</g>
</g>
<!-- Node3&#45;&gt;Node11 -->
<g id="edge10" class="edge">
<title>Node3&#45;&gt;Node11</title>
<path fill="none" stroke="midnightblue" d="M2462.1,-177.01C2333.64,-176.91 1664.94,-174.36 1107.79,-131.98"/>
<polygon fill="midnightblue" stroke="midnightblue" points="1107.78,-128.46 1097.54,-131.19 1107.24,-135.44 1107.78,-128.46"/>
</g>
<!-- Node12 -->
<g id="node12" class="node">
<title>Node12</title>
<g id="a_node12"><a xlink:title=" ">
<polygon fill="white" stroke="#bfbfbf" points="1116,-112.5 1116,-131.5 1210,-131.5 1210,-112.5 1116,-112.5"/>
<text text-anchor="middle" x="1163" y="-119.5" font-family="Helvetica,sans-Serif" font-size="10.00">swla/swla_oui.h</text>
</a>
</g>
</g>
<!-- Node3&#45;&gt;Node12 -->
<g id="edge11" class="edge">
<title>Node3&#45;&gt;Node12</title>
<path fill="none" stroke="midnightblue" d="M2462.28,-177.23C2340.39,-178.32 1729.08,-181.04 1220.42,-132.01"/>
<polygon fill="midnightblue" stroke="midnightblue" points="1220.59,-128.51 1210.3,-131.02 1219.92,-135.48 1220.59,-128.51"/>
</g>
<!-- Node13 -->
<g id="node13" class="node">
<title>Node13</title>
<g id="a_node13"><a xlink:title=" ">
<polygon fill="white" stroke="#bfbfbf" points="1228,-112.5 1228,-131.5 1356,-131.5 1356,-112.5 1228,-112.5"/>
<text text-anchor="middle" x="1292" y="-119.5" font-family="Helvetica,sans-Serif" font-size="10.00">swla/swla_delayExec.h</text>
</a>
</g>
</g>
<!-- Node3&#45;&gt;Node13 -->
<g id="edge12" class="edge">
<title>Node3&#45;&gt;Node13</title>
<path fill="none" stroke="midnightblue" d="M2462.25,-176.79C2348.93,-175.58 1814.52,-168.13 1366.3,-132.03"/>
<polygon fill="midnightblue" stroke="midnightblue" points="1366.31,-128.52 1356.06,-131.2 1365.75,-135.5 1366.31,-128.52"/>
</g>
<!-- Node14 -->
<g id="node14" class="node">
<title>Node14</title>
<g id="a_node14"><a xlink:title=" ">
<polygon fill="white" stroke="#bfbfbf" points="1374.5,-112.5 1374.5,-131.5 1493.5,-131.5 1493.5,-112.5 1374.5,-112.5"/>
<text text-anchor="middle" x="1434" y="-119.5" font-family="Helvetica,sans-Serif" font-size="10.00">swla/swla_function.h</text>
</a>
</g>
</g>
<!-- Node3&#45;&gt;Node14 -->
<g id="edge13" class="edge">
<title>Node3&#45;&gt;Node14</title>
<path fill="none" stroke="midnightblue" d="M2462.18,-176.69C2357.24,-175.07 1893.78,-166.28 1503.74,-132.08"/>
<polygon fill="midnightblue" stroke="midnightblue" points="1503.94,-128.59 1493.67,-131.19 1503.32,-135.56 1503.94,-128.59"/>
</g>
<!-- Node15 -->
<g id="node15" class="node">
<title>Node15</title>
<g id="a_node15"><a xlink:title=" ">
<polygon fill="white" stroke="#bfbfbf" points="1511.5,-112.5 1511.5,-131.5 1652.5,-131.5 1652.5,-112.5 1511.5,-112.5"/>
<text text-anchor="middle" x="1582" y="-119.5" font-family="Helvetica,sans-Serif" font-size="10.00">swl/swl_usp_cmdStatus.h</text>
</a>
</g>
</g>
<!-- Node3&#45;&gt;Node15 -->
<g id="edge14" class="edge">
<title>Node3&#45;&gt;Node15</title>
<path fill="none" stroke="midnightblue" d="M2462.38,-176.27C2368.59,-173.02 1987.54,-158.83 1662.73,-132.01"/>
<polygon fill="midnightblue" stroke="midnightblue" points="1662.9,-128.51 1652.65,-131.17 1662.32,-135.49 1662.9,-128.51"/>
</g>
<!-- Node16 -->
<g id="node16" class="node">
<title>Node16</title>
<g id="a_node16"><a xlink:title=" ">
<polygon fill="white" stroke="#bfbfbf" points="1671,-112.5 1671,-131.5 1757,-131.5 1757,-112.5 1671,-112.5"/>
<text text-anchor="middle" x="1714" y="-119.5" font-family="Helvetica,sans-Serif" font-size="10.00">swl/swl_wps.h</text>
</a>
</g>
</g>
<!-- Node3&#45;&gt;Node16 -->
<g id="edge15" class="edge">
<title>Node3&#45;&gt;Node16</title>
<path fill="none" stroke="midnightblue" d="M2462.48,-176.51C2376.31,-174.35 2047.65,-164.42 1767.04,-131.99"/>
<polygon fill="midnightblue" stroke="midnightblue" points="1767.42,-128.51 1757.08,-130.83 1766.6,-135.46 1767.42,-128.51"/>
</g>
<!-- Node17 -->
<g id="node17" class="node">
<title>Node17</title>
<g id="a_node17"><a xlink:title=" ">
<polygon fill="white" stroke="#bfbfbf" points="1775,-112.5 1775,-131.5 1879,-131.5 1879,-112.5 1775,-112.5"/>
<text text-anchor="middle" x="1827" y="-119.5" font-family="Helvetica,sans-Serif" font-size="10.00">swl/swl_security.h</text>
</a>
</g>
</g>
<!-- Node3&#45;&gt;Node17 -->
<g id="edge16" class="edge">
<title>Node3&#45;&gt;Node17</title>
<path fill="none" stroke="midnightblue" d="M2462.3,-175.92C2385.57,-171.99 2119.74,-157.36 1889.46,-132.09"/>
<polygon fill="midnightblue" stroke="midnightblue" points="1889.54,-128.57 1879.21,-130.95 1888.77,-135.53 1889.54,-128.57"/>
</g>
<!-- Node18 -->
<g id="node18" class="node">
<title>Node18</title>
<g id="a_node18"><a xlink:title=" ">
<polygon fill="white" stroke="#bfbfbf" points="1897.5,-112.5 1897.5,-131.5 1980.5,-131.5 1980.5,-112.5 1897.5,-112.5"/>
<text text-anchor="middle" x="1939" y="-119.5" font-family="Helvetica,sans-Serif" font-size="10.00">amxc/amxc.h</text>
</a>
</g>
</g>
<!-- Node3&#45;&gt;Node18 -->
<g id="edge17" class="edge">
<title>Node3&#45;&gt;Node18</title>
<path fill="none" stroke="midnightblue" d="M2462.26,-175.67C2394.28,-171.39 2179.55,-156.81 1990.81,-131.99"/>
<polygon fill="midnightblue" stroke="midnightblue" points="1991.08,-128.5 1980.7,-130.65 1990.16,-135.44 1991.08,-128.5"/>
</g>
<!-- Node19 -->
<g id="node19" class="node">
<title>Node19</title>
<g id="a_node19"><a xlink:title=" ">
<polygon fill="white" stroke="#bfbfbf" points="1999,-112.5 1999,-131.5 2083,-131.5 2083,-112.5 1999,-112.5"/>
<text text-anchor="middle" x="2041" y="-119.5" font-family="Helvetica,sans-Serif" font-size="10.00">amxp/amxp.h</text>
</a>
</g>
</g>
<!-- Node3&#45;&gt;Node19 -->
<g id="edge18" class="edge">
<title>Node3&#45;&gt;Node19</title>
<path fill="none" stroke="midnightblue" d="M2462.27,-174.97C2404.17,-169.45 2240.25,-153.22 2093.37,-132.12"/>
<polygon fill="midnightblue" stroke="midnightblue" points="2093.67,-128.63 2083.27,-130.66 2092.66,-135.56 2093.67,-128.63"/>
</g>
<!-- Node20 -->
<g id="node20" class="node">
<title>Node20</title>
<g id="a_node20"><a xlink:title=" ">
<polygon fill="white" stroke="#bfbfbf" points="2101,-112.5 2101,-131.5 2241,-131.5 2241,-112.5 2101,-112.5"/>
<text text-anchor="middle" x="2171" y="-119.5" font-family="Helvetica,sans-Serif" font-size="10.00">amxd/amxd_parameter.h</text>
</a>
</g>
</g>
<!-- Node3&#45;&gt;Node20 -->
<g id="edge19" class="edge">
<title>Node3&#45;&gt;Node20</title>
<path fill="none" stroke="midnightblue" d="M2462.49,-173.29C2415.29,-165.15 2301.27,-145.47 2230.63,-133.29"/>
<polygon fill="midnightblue" stroke="midnightblue" points="2230.99,-129.8 2220.54,-131.55 2229.8,-136.7 2230.99,-129.8"/>
</g>
<!-- Node21 -->
<g id="node21" class="node">
<title>Node21</title>
<g id="a_node21"><a xlink:title=" ">
<polygon fill="white" stroke="#bfbfbf" points="2259.5,-112.5 2259.5,-131.5 2378.5,-131.5 2378.5,-112.5 2259.5,-112.5"/>
<text text-anchor="middle" x="2319" y="-119.5" font-family="Helvetica,sans-Serif" font-size="10.00">amxd/amxd_action.h</text>
</a>
</g>
</g>
<!-- Node3&#45;&gt;Node21 -->
<g id="edge20" class="edge">
<title>Node3&#45;&gt;Node21</title>
<path fill="none" stroke="midnightblue" d="M2462.43,-169.94C2435.12,-161 2387.68,-145.48 2354.88,-134.74"/>
<polygon fill="midnightblue" stroke="midnightblue" points="2355.8,-131.36 2345.2,-131.58 2353.62,-138.01 2355.8,-131.36"/>
</g>
<!-- Node22 -->
<g id="node22" class="node">
<title>Node22</title>
<g id="a_node22"><a xlink:title=" ">
<polygon fill="white" stroke="#bfbfbf" points="2396.5,-112.5 2396.5,-131.5 2571.5,-131.5 2571.5,-112.5 2396.5,-112.5"/>
<text text-anchor="middle" x="2484" y="-119.5" font-family="Helvetica,sans-Serif" font-size="10.00">amxd/amxd_object_parameter.h</text>
</a>
</g>
</g>
<!-- Node3&#45;&gt;Node22 -->
<g id="edge21" class="edge">
<title>Node3&#45;&gt;Node22</title>
<path fill="none" stroke="midnightblue" d="M2484,-168.08C2484,-161.01 2484,-150.86 2484,-141.99"/>
<polygon fill="midnightblue" stroke="midnightblue" points="2487.5,-141.75 2484,-131.75 2480.5,-141.75 2487.5,-141.75"/>
</g>
<!-- Node23 -->
<g id="node23" class="node">
<title>Node23</title>
<g id="a_node23"><a xlink:title=" ">
<polygon fill="white" stroke="#bfbfbf" points="2590,-112.5 2590,-131.5 2742,-131.5 2742,-112.5 2590,-112.5"/>
<text text-anchor="middle" x="2666" y="-119.5" font-family="Helvetica,sans-Serif" font-size="10.00">amxd/amxd_object_event.h</text>
</a>
</g>
</g>
<!-- Node3&#45;&gt;Node23 -->
<g id="edge22" class="edge">
<title>Node3&#45;&gt;Node23</title>
<path fill="none" stroke="midnightblue" d="M2505.59,-170.59C2535.54,-161.71 2590.19,-145.49 2627.29,-134.48"/>
<polygon fill="midnightblue" stroke="midnightblue" points="2628.66,-137.73 2637.26,-131.53 2626.67,-131.02 2628.66,-137.73"/>
</g>
<!-- Node24 -->
<g id="node24" class="node">
<title>Node24</title>
<g id="a_node24"><a xlink:title=" ">
<polygon fill="white" stroke="#bfbfbf" points="2760.5,-112.5 2760.5,-131.5 2889.5,-131.5 2889.5,-112.5 2760.5,-112.5"/>
<text text-anchor="middle" x="2825" y="-119.5" font-family="Helvetica,sans-Serif" font-size="10.00">amxd/amxd_function.h</text>
</a>
</g>
</g>
<!-- Node3&#45;&gt;Node24 -->
<g id="edge23" class="edge">
<title>Node3&#45;&gt;Node24</title>
<path fill="none" stroke="midnightblue" d="M2505.59,-173.58C2556.03,-165.59 2683.22,-145.45 2761.03,-133.13"/>
<polygon fill="midnightblue" stroke="midnightblue" points="2761.87,-136.54 2771.2,-131.52 2760.77,-129.63 2761.87,-136.54"/>
</g>
<!-- Node25 -->
<g id="node25" class="node">
<title>Node25</title>
<g id="a_node25"><a xlink:title=" ">
<polygon fill="white" stroke="#bfbfbf" points="2907.5,-112.5 2907.5,-131.5 3076.5,-131.5 3076.5,-112.5 2907.5,-112.5"/>
<text text-anchor="middle" x="2992" y="-119.5" font-family="Helvetica,sans-Serif" font-size="10.00">amxd/amxd_object_hierarchy.h</text>
</a>
</g>
</g>
<!-- Node3&#45;&gt;Node25 -->
<g id="edge24" class="edge">
<title>Node3&#45;&gt;Node25</title>
<path fill="none" stroke="midnightblue" d="M2505.5,-174.71C2572.55,-167.59 2780.52,-145.48 2901.75,-132.59"/>
<polygon fill="midnightblue" stroke="midnightblue" points="2902.19,-136.07 2911.77,-131.53 2901.45,-129.11 2902.19,-136.07"/>
</g>
<!-- Node26 -->
<g id="node26" class="node">
<title>Node26</title>
<g id="a_node26"><a xlink:title=" ">
<polygon fill="white" stroke="#bfbfbf" points="3094.5,-112.5 3094.5,-131.5 3213.5,-131.5 3213.5,-112.5 3094.5,-112.5"/>
<text text-anchor="middle" x="3154" y="-119.5" font-family="Helvetica,sans-Serif" font-size="10.00">amxd/amxd_object.h</text>
</a>
</g>
</g>
<!-- Node3&#45;&gt;Node26 -->
<g id="edge25" class="edge">
<title>Node3&#45;&gt;Node26</title>
<path fill="none" stroke="midnightblue" d="M2505.64,-175.83C2582.78,-171.56 2851.75,-155.89 3084.32,-132.12"/>
<polygon fill="midnightblue" stroke="midnightblue" points="3084.73,-135.6 3094.32,-131.09 3084.01,-128.64 3084.73,-135.6"/>
</g>
<!-- Node27 -->
<g id="node27" class="node">
<title>Node27</title>
<g id="a_node27"><a xlink:title=" ">
<polygon fill="white" stroke="#bfbfbf" points="3231.5,-112.5 3231.5,-131.5 3336.5,-131.5 3336.5,-112.5 3231.5,-112.5"/>
<text text-anchor="middle" x="3284" y="-119.5" font-family="Helvetica,sans-Serif" font-size="10.00">amxd/amxd_dm.h</text>
</a>
</g>
</g>
<!-- Node3&#45;&gt;Node27 -->
<g id="edge26" class="edge">
<title>Node3&#45;&gt;Node27</title>
<path fill="none" stroke="midnightblue" d="M2505.52,-176.36C2593.18,-173.63 2932.07,-161.71 3221.2,-132.1"/>
<polygon fill="midnightblue" stroke="midnightblue" points="3221.88,-135.55 3231.46,-131.04 3221.16,-128.59 3221.88,-135.55"/>
</g>
<!-- Node28 -->
<g id="node28" class="node">
<title>Node28</title>
<g id="a_node28"><a xlink:title=" ">
<polygon fill="white" stroke="#bfbfbf" points="3355,-112.5 3355,-131.5 3499,-131.5 3499,-112.5 3355,-112.5"/>
<text text-anchor="middle" x="3427" y="-119.5" font-family="Helvetica,sans-Serif" font-size="10.00">amxd/amxd_transaction.h</text>
</a>
</g>
</g>
<!-- Node3&#45;&gt;Node28 -->
<g id="edge27" class="edge">
<title>Node3&#45;&gt;Node28</title>
<path fill="none" stroke="midnightblue" d="M2505.68,-176.34C2602.35,-173.28 3003.86,-159.54 3344.54,-132.07"/>
<polygon fill="midnightblue" stroke="midnightblue" points="3344.91,-135.55 3354.6,-131.26 3344.35,-128.58 3344.91,-135.55"/>
</g>
<!-- Node29 -->
<g id="node29" class="node">
<title>Node29</title>
<g id="a_node29"><a xlink:title=" ">
<polygon fill="white" stroke="#bfbfbf" points="3517,-112.5 3517,-131.5 3633,-131.5 3633,-112.5 3517,-112.5"/>
<text text-anchor="middle" x="3575" y="-119.5" font-family="Helvetica,sans-Serif" font-size="10.00">amxb/amxb_types.h</text>
</a>
</g>
</g>
<!-- Node3&#45;&gt;Node29 -->
<g id="edge28" class="edge">
<title>Node3&#45;&gt;Node29</title>
<path fill="none" stroke="midnightblue" d="M2505.67,-176.77C2612.98,-175.47 3098.38,-167.84 3506.69,-132.03"/>
<polygon fill="midnightblue" stroke="midnightblue" points="3507.28,-135.49 3516.93,-131.12 3506.66,-128.52 3507.28,-135.49"/>
</g>
<!-- Node30 -->
<g id="node30" class="node">
<title>Node30</title>
<g id="a_node30"><a xlink:title=" ">
<polygon fill="white" stroke="#bfbfbf" points="3651,-112.5 3651,-131.5 3787,-131.5 3787,-112.5 3651,-112.5"/>
<text text-anchor="middle" x="3719" y="-119.5" font-family="Helvetica,sans-Serif" font-size="10.00">amxb/amxb_operators.h</text>
</a>
</g>
</g>
<!-- Node3&#45;&gt;Node30 -->
<g id="edge29" class="edge">
<title>Node3&#45;&gt;Node30</title>
<path fill="none" stroke="midnightblue" d="M2505.73,-176.78C2621.33,-175.5 3175.95,-167.71 3640.33,-132.07"/>
<polygon fill="midnightblue" stroke="midnightblue" points="3640.89,-135.53 3650.59,-131.27 3640.35,-128.56 3640.89,-135.53"/>
</g>
<!-- Node31 -->
<g id="node31" class="node">
<title>Node31</title>
<g id="a_node31"><a xlink:title=" ">
<polygon fill="white" stroke="#bfbfbf" points="3805,-112.5 3805,-131.5 3917,-131.5 3917,-112.5 3805,-112.5"/>
<text text-anchor="middle" x="3861" y="-119.5" font-family="Helvetica,sans-Serif" font-size="10.00">amxb/amxb_error.h</text>
</a>
</g>
</g>
<!-- Node3&#45;&gt;Node31 -->
<g id="edge30" class="edge">
<title>Node3&#45;&gt;Node31</title>
<path fill="none" stroke="midnightblue" d="M2505.69,-177.09C2630.09,-177.46 3265.6,-177 3794.55,-132.03"/>
<polygon fill="midnightblue" stroke="midnightblue" points="3795.01,-135.5 3804.67,-131.16 3794.41,-128.53 3795.01,-135.5"/>
</g>
<!-- Node32 -->
<g id="node32" class="node">
<title>Node32</title>
<g id="a_node32"><a xlink:title=" ">
<polygon fill="white" stroke="#bfbfbf" points="3935.5,-112.5 3935.5,-131.5 4018.5,-131.5 4018.5,-112.5 3935.5,-112.5"/>
<text text-anchor="middle" x="3977" y="-119.5" font-family="Helvetica,sans-Serif" font-size="10.00">amxo/amxo.h</text>
</a>
</g>
</g>
<!-- Node3&#45;&gt;Node32 -->
<g id="edge31" class="edge">
<title>Node3&#45;&gt;Node32</title>
<path fill="none" stroke="midnightblue" d="M2505.61,-176.75C2661.16,-174.9 3612.5,-162.51 3925.36,-131.86"/>
<polygon fill="midnightblue" stroke="midnightblue" points="3925.72,-135.34 3935.32,-130.86 3925.02,-128.38 3925.72,-135.34"/>
</g>
<!-- Node33 -->
<g id="node33" class="node">
<title>Node33</title>
<g id="a_node33"><a xlink:title=" ">
<polygon fill="white" stroke="#bfbfbf" points="4036.5,-112.5 4036.5,-131.5 4151.5,-131.5 4151.5,-112.5 4036.5,-112.5"/>
<text text-anchor="middle" x="4094" y="-119.5" font-family="Helvetica,sans-Serif" font-size="10.00">amxo/amxo_types.h</text>
</a>
</g>
</g>
<!-- Node3&#45;&gt;Node33 -->
<g id="edge32" class="edge">
<title>Node3&#45;&gt;Node33</title>
<path fill="none" stroke="midnightblue" d="M2505.82,-177.24C2642.93,-178.54 3399.76,-183.12 4026.31,-132.05"/>
<polygon fill="midnightblue" stroke="midnightblue" points="4026.77,-135.52 4036.45,-131.22 4026.19,-128.55 4026.77,-135.52"/>
</g>
<!-- Node34 -->
<g id="node34" class="node">
<title>Node34</title>
<g id="a_node34"><a xlink:href="wld__types_8h.html" target="_top" xlink:title=" ">
<polygon fill="white" stroke="red" points="274.5,-56.5 274.5,-75.5 349.5,-75.5 349.5,-56.5 274.5,-56.5"/>
<text text-anchor="middle" x="312" y="-63.5" font-family="Helvetica,sans-Serif" font-size="10.00">wld_types.h</text>
</a>
</g>
</g>
<!-- Node3&#45;&gt;Node34 -->
<g id="edge33" class="edge">
<title>Node3&#45;&gt;Node34</title>
<path fill="none" stroke="midnightblue" d="M2462.46,-176.98C2236.34,-176.74 305.62,-173.45 265,-132 249.62,-116.3 271.07,-95.25 289.78,-81.42"/>
<polygon fill="midnightblue" stroke="midnightblue" points="291.87,-84.23 298.04,-75.62 287.85,-78.5 291.87,-84.23"/>
</g>
<!-- Node37 -->
<g id="node35" class="node">
<title>Node37</title>
<g id="a_node35"><a xlink:href="wld__channel__types_8h.html" target="_top" xlink:title=" ">
<polygon fill="white" stroke="black" points="4938.5,-112.5 4938.5,-131.5 5057.5,-131.5 5057.5,-112.5 4938.5,-112.5"/>
<text text-anchor="middle" x="4998" y="-119.5" font-family="Helvetica,sans-Serif" font-size="10.00">wld_channel_types.h</text>
</a>
</g>
</g>
<!-- Node3&#45;&gt;Node37 -->
<g id="edge36" class="edge">
<title>Node3&#45;&gt;Node37</title>
<path fill="none" stroke="midnightblue" d="M2505.72,-176.88C2717.15,-175.63 4411.36,-164.7 4917,-132 4920.68,-131.76 4924.44,-131.48 4928.24,-131.16"/>
<polygon fill="midnightblue" stroke="midnightblue" points="4928.69,-134.64 4938.34,-130.26 4928.06,-127.67 4928.69,-134.64"/>
</g>
<!-- Node38 -->
<g id="node36" class="node">
<title>Node38</title>
<g id="a_node36"><a xlink:title=" ">
<polygon fill="white" stroke="#bfbfbf" points="4878.5,-56.5 4878.5,-75.5 5003.5,-75.5 5003.5,-56.5 4878.5,-56.5"/>
<text text-anchor="middle" x="4941" y="-63.5" font-family="Helvetica,sans-Serif" font-size="10.00">swla/swla_chanspec.h</text>
</a>
</g>
</g>
<!-- Node3&#45;&gt;Node38 -->
<g id="edge54" class="edge">
<title>Node3&#45;&gt;Node38</title>
<path fill="none" stroke="midnightblue" d="M2505.65,-177.01C2737.16,-177.11 4749.55,-176.7 4866,-132 4891.52,-122.21 4914.21,-99.59 4927.78,-83.81"/>
<polygon fill="midnightblue" stroke="midnightblue" points="4930.67,-85.8 4934.34,-75.87 4925.27,-81.35 4930.67,-85.8"/>
</g>
<!-- Node39 -->
<g id="node37" class="node">
<title>Node39</title>
<g id="a_node37"><a xlink:href="wld__bgdfs_8h.html" target="_top" xlink:title=" ">
<polygon fill="white" stroke="black" points="274.5,-112.5 274.5,-131.5 349.5,-131.5 349.5,-112.5 274.5,-112.5"/>
<text text-anchor="middle" x="312" y="-119.5" font-family="Helvetica,sans-Serif" font-size="10.00">wld_bgdfs.h</text>
</a>
</g>
</g>
<!-- Node3&#45;&gt;Node39 -->
<g id="edge40" class="edge">
<title>Node3&#45;&gt;Node39</title>
<path fill="none" stroke="midnightblue" d="M2462.31,-177.06C2267.63,-177.49 817.64,-179.12 359.55,-131.95"/>
<polygon fill="midnightblue" stroke="midnightblue" points="359.89,-128.47 349.58,-130.9 359.15,-135.43 359.89,-128.47"/>
</g>
<!-- Node40 -->
<g id="node38" class="node">
<title>Node40</title>
<g id="a_node38"><a xlink:href="wld__rad__delayMgr_8h.html" target="_top" xlink:title=" ">
<polygon fill="white" stroke="black" points="4170,-112.5 4170,-131.5 4284,-131.5 4284,-112.5 4170,-112.5"/>
<text text-anchor="middle" x="4227" y="-119.5" font-family="Helvetica,sans-Serif" font-size="10.00">wld_rad_delayMgr.h</text>
</a>
</g>
</g>
<!-- Node3&#45;&gt;Node40 -->
<g id="edge42" class="edge">
<title>Node3&#45;&gt;Node40</title>
<path fill="none" stroke="midnightblue" d="M2505.7,-176.72C2676.88,-174.55 3810,-159.82 4152,-132 4154.52,-131.79 4157.09,-131.56 4159.7,-131.3"/>
<polygon fill="midnightblue" stroke="midnightblue" points="4160.27,-134.76 4169.83,-130.19 4159.51,-127.8 4160.27,-134.76"/>
</g>
<!-- Node41 -->
<g id="node39" class="node">
<title>Node41</title>
<g id="a_node39"><a xlink:href="wld__fsm_8h.html" target="_top" xlink:title=" ">
<polygon fill="white" stroke="black" points="367.5,-112.5 367.5,-131.5 434.5,-131.5 434.5,-112.5 367.5,-112.5"/>
<text text-anchor="middle" x="401" y="-119.5" font-family="Helvetica,sans-Serif" font-size="10.00">wld_fsm.h</text>
</a>
</g>
</g>
<!-- Node3&#45;&gt;Node41 -->
<g id="edge44" class="edge">
<title>Node3&#45;&gt;Node41</title>
<path fill="none" stroke="midnightblue" d="M2462.28,-177.09C2271.91,-177.78 884.49,-181.08 445.04,-131.99"/>
<polygon fill="midnightblue" stroke="midnightblue" points="445.17,-128.49 434.83,-130.82 444.37,-135.44 445.17,-128.49"/>
</g>
<!-- Node42 -->
<g id="node40" class="node">
<title>Node42</title>
<g id="a_node40"><a xlink:href="wld__sensing_8h.html" target="_top" xlink:title=" ">
<polygon fill="white" stroke="black" points="4302,-112.5 4302,-131.5 4388,-131.5 4388,-112.5 4302,-112.5"/>
<text text-anchor="middle" x="4345" y="-119.5" font-family="Helvetica,sans-Serif" font-size="10.00">wld_sensing.h</text>
</a>
</g>
</g>
<!-- Node3&#45;&gt;Node42 -->
<g id="edge46" class="edge">
<title>Node3&#45;&gt;Node42</title>
<path fill="none" stroke="midnightblue" d="M2505.55,-176.89C2683.77,-175.95 3914.29,-168.39 4284,-132 4286.51,-131.75 4289.09,-131.45 4291.69,-131.12"/>
<polygon fill="midnightblue" stroke="midnightblue" points="4292.42,-134.55 4301.83,-129.67 4291.43,-127.62 4292.42,-134.55"/>
</g>
<!-- Node43 -->
<g id="node41" class="node">
<title>Node43</title>
<g id="a_node41"><a xlink:href="wld__mld_8h.html" target="_top" xlink:title=" ">
<polygon fill="white" stroke="black" points="452.5,-112.5 452.5,-131.5 519.5,-131.5 519.5,-112.5 452.5,-112.5"/>
<text text-anchor="middle" x="486" y="-119.5" font-family="Helvetica,sans-Serif" font-size="10.00">wld_mld.h</text>
</a>
</g>
</g>
<!-- Node3&#45;&gt;Node43 -->
<g id="edge48" class="edge">
<title>Node3&#45;&gt;Node43</title>
<path fill="none" stroke="midnightblue" d="M2462.32,-177.05C2276.69,-177.39 951.95,-178.21 529.81,-131.8"/>
<polygon fill="midnightblue" stroke="midnightblue" points="530.04,-128.31 519.71,-130.66 529.25,-135.26 530.04,-128.31"/>
</g>
<!-- Node44 -->
<g id="node42" class="node">
<title>Node44</title>
<g id="a_node42"><a xlink:href="wld__autoCommitRadData_8h.html" target="_top" xlink:title=" ">
<polygon fill="white" stroke="black" points="4406,-112.5 4406,-131.5 4582,-131.5 4582,-112.5 4406,-112.5"/>
<text text-anchor="middle" x="4494" y="-119.5" font-family="Helvetica,sans-Serif" font-size="10.00">Utils/wld_autoCommitRadData.h</text>
</a>
</g>
</g>
<!-- Node3&#45;&gt;Node44 -->
<g id="edge50" class="edge">
<title>Node3&#45;&gt;Node44</title>
<path fill="none" stroke="midnightblue" d="M2505.76,-177.06C2660.53,-177.35 3611.11,-177.17 4395.9,-132.02"/>
<polygon fill="midnightblue" stroke="midnightblue" points="4396.21,-135.5 4405.99,-131.43 4395.81,-128.52 4396.21,-135.5"/>
</g>
<!-- Node45 -->
<g id="node43" class="node">
<title>Node45</title>
<g id="a_node43"><a xlink:href="wld__dmnMgt_8h.html" target="_top" xlink:title=" ">
<polygon fill="white" stroke="red" points="104,-112.5 104,-131.5 218,-131.5 218,-112.5 104,-112.5"/>
<text text-anchor="middle" x="161" y="-119.5" font-family="Helvetica,sans-Serif" font-size="10.00">Utils/wld_dmnMgt.h</text>
</a>
</g>
</g>
<!-- Node3&#45;&gt;Node45 -->
<g id="edge51" class="edge">
<title>Node3&#45;&gt;Node45</title>
<path fill="none" stroke="midnightblue" d="M2462.33,-176.89C2260,-175.77 698.55,-166.13 232,-132 230.88,-131.92 229.76,-131.83 228.63,-131.74"/>
<polygon fill="midnightblue" stroke="midnightblue" points="228.58,-128.22 218.3,-130.79 227.94,-135.19 228.58,-128.22"/>
</g>
<!-- Node47 -->
<g id="node44" class="node">
<title>Node47</title>
<g id="a_node44"><a xlink:title=" ">
<polygon fill="white" stroke="#bfbfbf" points="4600.5,-112.5 4600.5,-131.5 4701.5,-131.5 4701.5,-112.5 4600.5,-112.5"/>
<text text-anchor="middle" x="4651" y="-119.5" font-family="Helvetica,sans-Serif" font-size="10.00">swl/swl_staCap.h</text>
</a>
</g>
</g>
<!-- Node3&#45;&gt;Node47 -->
<g id="edge55" class="edge">
<title>Node3&#45;&gt;Node47</title>
<path fill="none" stroke="midnightblue" d="M2505.79,-176.92C2699.78,-176.14 4134.09,-169.22 4590.05,-131.93"/>
<polygon fill="midnightblue" stroke="midnightblue" points="4590.64,-135.39 4600.31,-131.07 4590.06,-128.41 4590.64,-135.39"/>
</g>
<!-- Node48 -->
<g id="node45" class="node">
<title>Node48</title>
<g id="a_node45"><a xlink:title=" ">
<polygon fill="white" stroke="#bfbfbf" points="4720,-112.5 4720,-131.5 4824,-131.5 4824,-112.5 4720,-112.5"/>
<text text-anchor="middle" x="4772" y="-119.5" font-family="Helvetica,sans-Serif" font-size="10.00">swla/swla_table.h</text>
</a>
</g>
</g>
<!-- Node3&#45;&gt;Node48 -->
<g id="edge56" class="edge">
<title>Node3&#45;&gt;Node48</title>
<path fill="none" stroke="midnightblue" d="M2505.75,-176.94C2705.75,-176.34 4228.46,-170.57 4709.67,-131.97"/>
<polygon fill="midnightblue" stroke="midnightblue" points="4710.13,-135.45 4719.81,-131.14 4709.55,-128.47 4710.13,-135.45"/>
</g>
<!-- Node34&#45;&gt;Node5 -->
<g id="edge34" class="edge">
<title>Node34&#45;&gt;Node5</title>
<path fill="none" stroke="midnightblue" d="M290.29,-56.44C267.65,-47.52 231.93,-33.44 206.25,-23.32"/>
<polygon fill="midnightblue" stroke="midnightblue" points="207.19,-19.93 196.61,-19.52 204.63,-26.44 207.19,-19.93"/>
</g>
<!-- Node34&#45;&gt;Node10 -->
<g id="edge35" class="edge">
<title>Node34&#45;&gt;Node10</title>
<path fill="none" stroke="midnightblue" d="M349.53,-64.55C752.86,-59.75 4281.05,-17.77 4789.15,-11.72"/>
<polygon fill="midnightblue" stroke="midnightblue" points="4789.25,-15.22 4799.21,-11.6 4789.16,-8.22 4789.25,-15.22"/>
</g>
<!-- Node37&#45;&gt;Node4 -->
<g id="edge37" class="edge">
<title>Node37&#45;&gt;Node4</title>
<path fill="none" stroke="midnightblue" d="M5012.94,-112.32C5027.59,-103.82 5050.13,-90.73 5067.24,-80.8"/>
<polygon fill="midnightblue" stroke="midnightblue" points="5069.2,-83.7 5076.1,-75.65 5065.69,-77.65 5069.2,-83.7"/>
</g>
<!-- Node37&#45;&gt;Node10 -->
<g id="edge39" class="edge">
<title>Node37&#45;&gt;Node10</title>
<path fill="none" stroke="midnightblue" d="M5003.96,-112.49C5012.51,-99.12 5025.91,-72.95 5013,-56 5000.39,-39.44 4951.74,-27.42 4910.84,-19.99"/>
<polygon fill="midnightblue" stroke="midnightblue" points="4911.36,-16.53 4900.9,-18.24 4910.15,-23.42 4911.36,-16.53"/>
</g>
<!-- Node37&#45;&gt;Node38 -->
<g id="edge38" class="edge">
<title>Node37&#45;&gt;Node38</title>
<path fill="none" stroke="midnightblue" d="M4988.84,-112.32C4980.5,-104.42 4967.97,-92.55 4957.82,-82.94"/>
<polygon fill="midnightblue" stroke="midnightblue" points="4959.99,-80.17 4950.32,-75.83 4955.18,-85.25 4959.99,-80.17"/>
</g>
<!-- Node39&#45;&gt;Node34 -->
<g id="edge41" class="edge">
<title>Node39&#45;&gt;Node34</title>
<path fill="none" stroke="midnightblue" d="M312,-112.08C312,-105.01 312,-94.86 312,-85.99"/>
<polygon fill="midnightblue" stroke="midnightblue" points="315.5,-85.75 312,-75.75 308.5,-85.75 315.5,-85.75"/>
</g>
<!-- Node40&#45;&gt;Node3 -->
<g id="edge43" class="edge">
<title>Node40&#45;&gt;Node3</title>
<path fill="none" stroke="midnightblue" d="M4175.6,-131.5C4173.72,-131.68 4171.84,-131.85 4170,-132 3831.68,-159.52 2719.21,-174.23 2515.98,-176.64"/>
<polygon fill="midnightblue" stroke="midnightblue" points="2515.65,-173.15 2505.69,-176.77 2515.73,-180.15 2515.65,-173.15"/>
</g>
<!-- Node41&#45;&gt;Node34 -->
<g id="edge45" class="edge">
<title>Node41&#45;&gt;Node34</title>
<path fill="none" stroke="midnightblue" d="M386.7,-112.32C372.82,-103.9 351.51,-90.97 335.2,-81.07"/>
<polygon fill="midnightblue" stroke="midnightblue" points="336.63,-77.85 326.26,-75.65 333,-83.83 336.63,-77.85"/>
</g>
<!-- Node42&#45;&gt;Node3 -->
<g id="edge47" class="edge">
<title>Node42&#45;&gt;Node3</title>
<path fill="none" stroke="midnightblue" d="M4306.43,-131.52C4304.94,-131.7 4303.46,-131.86 4302,-132 3936.11,-168.02 2727.12,-175.79 2515.66,-176.86"/>
<polygon fill="midnightblue" stroke="midnightblue" points="2515.52,-173.36 2505.54,-176.91 2515.56,-180.36 2515.52,-173.36"/>
</g>
<!-- Node43&#45;&gt;Node34 -->
<g id="edge49" class="edge">
<title>Node43&#45;&gt;Node34</title>
<path fill="none" stroke="midnightblue" d="M458.43,-112.44C428.9,-103.28 381.88,-88.69 349.12,-78.52"/>
<polygon fill="midnightblue" stroke="midnightblue" points="350.03,-75.14 339.44,-75.52 347.96,-81.82 350.03,-75.14"/>
</g>
<!-- Node45&#45;&gt;Node6 -->
<g id="edge52" class="edge">
<title>Node45&#45;&gt;Node6</title>
<path fill="none" stroke="midnightblue" d="M154.39,-112.08C148.74,-104.46 140.46,-93.26 133.55,-83.94"/>
<polygon fill="midnightblue" stroke="midnightblue" points="136.25,-81.7 127.48,-75.75 130.62,-85.87 136.25,-81.7"/>
</g>
<!-- Node45&#45;&gt;Node34 -->
<g id="edge53" class="edge">
<title>Node45&#45;&gt;Node34</title>
<path fill="none" stroke="midnightblue" d="M184.93,-112.44C210.22,-103.4 250.3,-89.06 278.68,-78.92"/>
<polygon fill="midnightblue" stroke="midnightblue" points="279.95,-82.18 288.19,-75.52 277.59,-75.59 279.95,-82.18"/>
</g>
<!-- Node87&#45;&gt;Node76 -->
<g id="edge63" class="edge">
<title>Node87&#45;&gt;Node76</title>
<path fill="none" stroke="midnightblue" d="M2334.01,-280.32C2346.53,-271.98 2365.68,-259.21 2380.47,-249.35"/>
<polygon fill="midnightblue" stroke="midnightblue" points="2382.64,-252.11 2389.02,-243.65 2378.76,-246.29 2382.64,-252.11"/>
</g>
<!-- Node88 -->
<g id="node50" class="node">
<title>Node88</title>
<g id="a_node50"><a xlink:href="wld__ssid_8h.html" target="_top" xlink:title=" ">
<polygon fill="white" stroke="black" points="2262,-224.5 2262,-243.5 2330,-243.5 2330,-224.5 2262,-224.5"/>
<text text-anchor="middle" x="2296" y="-231.5" font-family="Helvetica,sans-Serif" font-size="10.00">wld_ssid.h</text>
</a>
</g>
</g>
<!-- Node87&#45;&gt;Node88 -->
<g id="edge61" class="edge">
<title>Node87&#45;&gt;Node88</title>
<path fill="none" stroke="midnightblue" d="M2316.87,-280.08C2313.49,-272.77 2308.58,-262.18 2304.38,-253.1"/>
<polygon fill="midnightblue" stroke="midnightblue" points="2307.43,-251.36 2300.05,-243.75 2301.08,-254.3 2307.43,-251.36"/>
</g>
<!-- Node88&#45;&gt;Node3 -->
<g id="edge62" class="edge">
<title>Node88&#45;&gt;Node3</title>
<path fill="none" stroke="midnightblue" d="M2325.79,-224.44C2360.37,-214.51 2417.17,-198.2 2452.48,-188.05"/>
<polygon fill="midnightblue" stroke="midnightblue" points="2453.62,-191.37 2462.26,-185.24 2451.68,-184.64 2453.62,-191.37"/>
</g>
</g>
</svg>
