<?xml version="1.0" encoding="UTF-8" standalone="no"?>
<!DOCTYPE svg PUBLIC "-//W3C//DTD SVG 1.1//EN"
 "http://www.w3.org/Graphics/SVG/1.1/DTD/svg11.dtd">
<!-- Generated by graphviz version 2.43.0 (0)
 -->
<!-- Title: wld_rad_hostapd_switchChannel Pages: 1 -->
<svg width="920pt" height="192pt"
 viewBox="0.00 0.00 920.00 191.50" xmlns="http://www.w3.org/2000/svg" xmlns:xlink="http://www.w3.org/1999/xlink">
<g id="graph0" class="graph" transform="scale(1 1) rotate(0) translate(4 187.5)">
<title>wld_rad_hostapd_switchChannel</title>
<polygon fill="white" stroke="transparent" points="-4,4 -4,-187.5 916,-187.5 916,4 -4,4"/>
<!-- Node1 -->
<g id="node1" class="node">
<title>Node1</title>
<g id="a_node1"><a xlink:title="switch the channel">
<polygon fill="#bfbfbf" stroke="black" points="0,-88 0,-107 176,-107 176,-88 0,-88"/>
<text text-anchor="middle" x="88" y="-95" font-family="Helvetica,sans-Serif" font-size="10.00">wld_rad_hostapd_switchChannel</text>
</a>
</g>
</g>
<!-- Node2 -->
<g id="node2" class="node">
<title>Node2</title>
<g id="a_node2"><a xlink:href="wld__rad__hostapd__api_8c.html#a8a3cee0adc7064987d4bbdd87c1ba9df" target="_top" xlink:title=" ">
<polygon fill="white" stroke="black" points="212,-88 212,-107 391,-107 391,-88 212,-88"/>
<text text-anchor="middle" x="301.5" y="-95" font-family="Helvetica,sans-Serif" font-size="10.00">wld_rad_hostapd_getCfgMainVap</text>
</a>
</g>
</g>
<!-- Node1&#45;&gt;Node2 -->
<g id="edge1" class="edge">
<title>Node1&#45;&gt;Node2</title>
<path fill="none" stroke="midnightblue" d="M176.25,-97.5C184.58,-97.5 193.07,-97.5 201.5,-97.5"/>
<polygon fill="midnightblue" stroke="midnightblue" points="201.75,-101 211.75,-97.5 201.75,-94 201.75,-101"/>
</g>
<!-- Node3 -->
<g id="node3" class="node">
<title>Node3</title>
<g id="a_node3"><a xlink:href="wld__radio_8c.html#a4e8e6a5073523b748c0ccf4d5cd400be" target="_top" xlink:title=" ">
<polygon fill="white" stroke="black" points="427,-164 427,-183 581,-183 581,-164 427,-164"/>
<text text-anchor="middle" x="504" y="-171" font-family="Helvetica,sans-Serif" font-size="10.00">wld_rad_getFirstEnabledVap</text>
</a>
</g>
</g>
<!-- Node2&#45;&gt;Node3 -->
<g id="edge2" class="edge">
<title>Node2&#45;&gt;Node3</title>
<path fill="none" stroke="midnightblue" d="M320.62,-107.09C344.48,-119.4 387.97,-140.82 427,-154.5 434.05,-156.97 441.57,-159.26 449.04,-161.32"/>
<polygon fill="midnightblue" stroke="midnightblue" points="448.22,-164.73 458.79,-163.91 450.02,-157.96 448.22,-164.73"/>
</g>
<!-- Node4 -->
<g id="node4" class="node">
<title>Node4</title>
<g id="a_node4"><a xlink:href="wld__radio_8c.html#aa24e429aba6c36e70dbc9d9757103f0e" target="_top" xlink:title=" ">
<polygon fill="white" stroke="black" points="446.5,-126 446.5,-145 561.5,-145 561.5,-126 446.5,-126"/>
<text text-anchor="middle" x="504" y="-133" font-family="Helvetica,sans-Serif" font-size="10.00">wld_rad_getFirstVap</text>
</a>
</g>
</g>
<!-- Node2&#45;&gt;Node4 -->
<g id="edge3" class="edge">
<title>Node2&#45;&gt;Node4</title>
<path fill="none" stroke="midnightblue" d="M352.84,-107.04C380.13,-112.21 414.04,-118.64 442.73,-124.08"/>
<polygon fill="midnightblue" stroke="midnightblue" points="442.17,-127.53 452.64,-125.96 443.47,-120.66 442.17,-127.53"/>
</g>
<!-- Node5 -->
<g id="node5" class="node">
<title>Node5</title>
<g id="a_node5"><a xlink:href="wld__radio_8c.html#addcc55f0b12b07fd29e65cb4925bce15" target="_top" xlink:title=" ">
<polygon fill="white" stroke="black" points="439,-88 439,-107 569,-107 569,-88 439,-88"/>
<text text-anchor="middle" x="504" y="-95" font-family="Helvetica,sans-Serif" font-size="10.00">wld_rad_hasMbssidAds</text>
</a>
</g>
</g>
<!-- Node2&#45;&gt;Node5 -->
<g id="edge4" class="edge">
<title>Node2&#45;&gt;Node5</title>
<path fill="none" stroke="midnightblue" d="M391.03,-97.5C403.57,-97.5 416.35,-97.5 428.59,-97.5"/>
<polygon fill="midnightblue" stroke="midnightblue" points="428.72,-101 438.72,-97.5 428.72,-94 428.72,-101"/>
</g>
<!-- Node8 -->
<g id="node8" class="node">
<title>Node8</title>
<g id="a_node8"><a xlink:href="wld__radio_8c.html#a61fbf4242e15ad3243b8c60f5d09e510" target="_top" xlink:title=" ">
<polygon fill="white" stroke="black" points="437.5,-50 437.5,-69 570.5,-69 570.5,-50 437.5,-50"/>
<text text-anchor="middle" x="504" y="-57" font-family="Helvetica,sans-Serif" font-size="10.00">wld_rad_hasMloSupport</text>
</a>
</g>
</g>
<!-- Node2&#45;&gt;Node8 -->
<g id="edge7" class="edge">
<title>Node2&#45;&gt;Node8</title>
<path fill="none" stroke="midnightblue" d="M352.84,-87.96C380.13,-82.79 414.04,-76.36 442.73,-70.92"/>
<polygon fill="midnightblue" stroke="midnightblue" points="443.47,-74.34 452.64,-69.04 442.17,-67.47 443.47,-74.34"/>
</g>
<!-- Node11 -->
<g id="node11" class="node">
<title>Node11</title>
<g id="a_node11"><a xlink:href="wld__rad__hostapd__api_8c.html#a680fec1772b8694b744c98970868a802" target="_top" xlink:title=" ">
<polygon fill="white" stroke="black" points="433.5,-0.5 433.5,-30.5 574.5,-30.5 574.5,-0.5 433.5,-0.5"/>
<text text-anchor="start" x="441.5" y="-18.5" font-family="Helvetica,sans-Serif" font-size="10.00">wld_rad_hostapd_getFirst</text>
<text text-anchor="middle" x="504" y="-7.5" font-family="Helvetica,sans-Serif" font-size="10.00">ConnectedVap</text>
</a>
</g>
</g>
<!-- Node2&#45;&gt;Node11 -->
<g id="edge10" class="edge">
<title>Node2&#45;&gt;Node11</title>
<path fill="none" stroke="midnightblue" d="M321.62,-87.94C345.82,-76.02 388.93,-55.42 427,-40.5 432.77,-38.24 438.84,-36 444.93,-33.86"/>
<polygon fill="midnightblue" stroke="midnightblue" points="446.15,-37.14 454.47,-30.57 443.87,-30.52 446.15,-37.14"/>
</g>
<!-- Node6 -->
<g id="node6" class="node">
<title>Node6</title>
<g id="a_node6"><a xlink:href="wld__radio_8c.html#ad273936553870cb349f3ad7615d76ef3" target="_top" xlink:title=" ">
<polygon fill="white" stroke="black" points="620.5,-88 620.5,-107 775.5,-107 775.5,-88 620.5,-88"/>
<text text-anchor="middle" x="698" y="-95" font-family="Helvetica,sans-Serif" font-size="10.00">wld_rad_getMbssidAdsMode</text>
</a>
</g>
</g>
<!-- Node5&#45;&gt;Node6 -->
<g id="edge5" class="edge">
<title>Node5&#45;&gt;Node6</title>
<path fill="none" stroke="midnightblue" d="M569.2,-97.5C582.23,-97.5 596.14,-97.5 609.81,-97.5"/>
<polygon fill="midnightblue" stroke="midnightblue" points="610.2,-101 620.2,-97.5 610.2,-94 610.2,-101"/>
</g>
<!-- Node7 -->
<g id="node7" class="node">
<title>Node7</title>
<g id="a_node7"><a xlink:href="wld__radio_8c.html#ac2d11ae1f195cffd5f73440eeb1f2e80" target="_top" xlink:title=" ">
<polygon fill="white" stroke="black" points="815,-88 815,-107 912,-107 912,-88 815,-88"/>
<text text-anchor="middle" x="863.5" y="-95" font-family="Helvetica,sans-Serif" font-size="10.00">wld_rad_is_6ghz</text>
</a>
</g>
</g>
<!-- Node6&#45;&gt;Node7 -->
<g id="edge6" class="edge">
<title>Node6&#45;&gt;Node7</title>
<path fill="none" stroke="midnightblue" d="M775.96,-97.5C785.59,-97.5 795.31,-97.5 804.58,-97.5"/>
<polygon fill="midnightblue" stroke="midnightblue" points="804.82,-101 814.82,-97.5 804.82,-94 804.82,-101"/>
</g>
<!-- Node9 -->
<g id="node9" class="node">
<title>Node9</title>
<g id="a_node9"><a xlink:href="wld__radioOperatingStandards_8c.html#ae3d8d225197b9909a08b3b9ea1f77ff6" target="_top" xlink:title=" ">
<polygon fill="white" stroke="black" points="617,-50 617,-69 779,-69 779,-50 617,-50"/>
<text text-anchor="middle" x="698" y="-57" font-family="Helvetica,sans-Serif" font-size="10.00">wld_rad_checkEnabledRadStd</text>
</a>
</g>
</g>
<!-- Node8&#45;&gt;Node9 -->
<g id="edge8" class="edge">
<title>Node8&#45;&gt;Node9</title>
<path fill="none" stroke="midnightblue" d="M570.54,-59.5C582.17,-59.5 594.46,-59.5 606.63,-59.5"/>
<polygon fill="midnightblue" stroke="midnightblue" points="606.81,-63 616.81,-59.5 606.81,-56 606.81,-63"/>
</g>
<!-- Node10 -->
<g id="node10" class="node">
<title>Node10</title>
<g id="a_node10"><a xlink:href="wld__radio_8c.html#a2960da4f28d621447f61041c8463ca9e" target="_top" xlink:title=" ">
<polygon fill="white" stroke="black" points="635,-12 635,-31 761,-31 761,-12 635,-12"/>
<text text-anchor="middle" x="698" y="-19" font-family="Helvetica,sans-Serif" font-size="10.00">wld_rad_isMloCapable</text>
</a>
</g>
</g>
<!-- Node8&#45;&gt;Node10 -->
<g id="edge9" class="edge">
<title>Node8&#45;&gt;Node10</title>
<path fill="none" stroke="midnightblue" d="M553.45,-49.91C579.47,-44.76 611.73,-38.38 639.07,-32.97"/>
<polygon fill="midnightblue" stroke="midnightblue" points="639.77,-36.4 648.9,-31.02 638.41,-29.53 639.77,-36.4"/>
</g>
</g>
</svg>
