<?xml version="1.0" encoding="UTF-8" standalone="no"?>
<!DOCTYPE svg PUBLIC "-//W3C//DTD SVG 1.1//EN"
 "http://www.w3.org/Graphics/SVG/1.1/DTD/svg11.dtd">
<!-- Generated by graphviz version 2.43.0 (0)
 -->
<!-- Title: wldu_getTupleById Pages: 1 -->
<svg width="301pt" height="78pt"
 viewBox="0.00 0.00 301.00 77.50" xmlns="http://www.w3.org/2000/svg" xmlns:xlink="http://www.w3.org/1999/xlink">
<g id="graph0" class="graph" transform="scale(1 1) rotate(0) translate(4 73.5)">
<title>wldu_getTupleById</title>
<polygon fill="white" stroke="transparent" points="-4,4 -4,-73.5 297,-73.5 297,4 -4,4"/>
<!-- Node1 -->
<g id="node1" class="node">
<title>Node1</title>
<g id="a_node1"><a xlink:title=" ">
<polygon fill="#bfbfbf" stroke="black" points="185,-22.5 185,-41.5 293,-41.5 293,-22.5 185,-22.5"/>
<text text-anchor="middle" x="239" y="-29.5" font-family="Helvetica,sans-Serif" font-size="10.00">wldu_getTupleById</text>
</a>
</g>
</g>
<!-- Node2 -->
<g id="node2" class="node">
<title>Node2</title>
<g id="a_node2"><a xlink:href="wld__util_8c.html#aab66ca12fccc0e210afdb6a9d7cdfa79" target="_top" xlink:title=" ">
<polygon fill="white" stroke="black" points="0,-39 0,-69 149,-69 149,-39 0,-39"/>
<text text-anchor="start" x="8" y="-57" font-family="Helvetica,sans-Serif" font-size="10.00">wldu_tuple_convMaskToStr</text>
<text text-anchor="middle" x="74.5" y="-46" font-family="Helvetica,sans-Serif" font-size="10.00">ByMask</text>
</a>
</g>
</g>
<!-- Node1&#45;&gt;Node2 -->
<g id="edge1" class="edge">
<title>Node1&#45;&gt;Node2</title>
<path fill="none" stroke="midnightblue" d="M174.73,-40.57C166.36,-41.7 157.71,-42.87 149.18,-44.02"/>
<polygon fill="midnightblue" stroke="midnightblue" points="175.35,-44.01 184.79,-39.2 174.41,-37.08 175.35,-44.01"/>
</g>
<!-- Node3 -->
<g id="node3" class="node">
<title>Node3</title>
<g id="a_node3"><a xlink:href="wld__util_8c.html#a343afb6f51cd7bb612f99b00f073da04" target="_top" xlink:title=" ">
<polygon fill="white" stroke="black" points="23,-0.5 23,-19.5 126,-19.5 126,-0.5 23,-0.5"/>
<text text-anchor="middle" x="74.5" y="-7.5" font-family="Helvetica,sans-Serif" font-size="10.00">wldu_tuple_id2str</text>
</a>
</g>
</g>
<!-- Node1&#45;&gt;Node3 -->
<g id="edge2" class="edge">
<title>Node1&#45;&gt;Node3</title>
<path fill="none" stroke="midnightblue" d="M174.88,-23.45C158.7,-21.26 141.52,-18.94 126.07,-16.85"/>
<polygon fill="midnightblue" stroke="midnightblue" points="174.41,-26.92 184.79,-24.8 175.35,-19.99 174.41,-26.92"/>
</g>
</g>
</svg>
