<?xml version="1.0" encoding="UTF-8" standalone="no"?>
<!DOCTYPE svg PUBLIC "-//W3C//DTD SVG 1.1//EN"
 "http://www.w3.org/Graphics/SVG/1.1/DTD/svg11.dtd">
<!-- Generated by graphviz version 2.43.0 (0)
 -->
<!-- Title: include/wld/Utils/wld_config.h Pages: 1 -->
<svg width="361pt" height="106pt"
 viewBox="0.00 0.00 361.00 106.00" xmlns="http://www.w3.org/2000/svg" xmlns:xlink="http://www.w3.org/1999/xlink">
<g id="graph0" class="graph" transform="scale(1 1) rotate(0) translate(4 102)">
<title>include/wld/Utils/wld_config.h</title>
<polygon fill="white" stroke="transparent" points="-4,4 -4,-102 357,-102 357,4 -4,4"/>
<!-- Node1 -->
<g id="node1" class="node">
<title>Node1</title>
<g id="a_node1"><a xlink:title=" ">
<polygon fill="#bfbfbf" stroke="black" points="120.5,-67.5 120.5,-97.5 238.5,-97.5 238.5,-67.5 120.5,-67.5"/>
<text text-anchor="start" x="128.5" y="-85.5" font-family="Helvetica,sans-Serif" font-size="10.00">include/wld/Utils/wld</text>
<text text-anchor="middle" x="179.5" y="-74.5" font-family="Helvetica,sans-Serif" font-size="10.00">_config.h</text>
</a>
</g>
</g>
<!-- Node2 -->
<g id="node2" class="node">
<title>Node2</title>
<g id="a_node2"><a xlink:href="wld__config_8c.html" target="_top" xlink:title=" ">
<polygon fill="white" stroke="black" points="0,-6 0,-25 119,-25 119,-6 0,-6"/>
<text text-anchor="middle" x="59.5" y="-13" font-family="Helvetica,sans-Serif" font-size="10.00">src/Utils/wld_config.c</text>
</a>
</g>
</g>
<!-- Node1&#45;&gt;Node2 -->
<g id="edge1" class="edge">
<title>Node1&#45;&gt;Node2</title>
<path fill="none" stroke="midnightblue" d="M144.37,-62.47C121.46,-50.06 92.68,-34.47 75.21,-25.01"/>
<polygon fill="midnightblue" stroke="midnightblue" points="143,-65.71 153.46,-67.4 146.34,-59.56 143,-65.71"/>
</g>
<!-- Node3 -->
<g id="node3" class="node">
<title>Node3</title>
<g id="a_node3"><a xlink:href="wld__ssid_8c.html" target="_top" xlink:title=" ">
<polygon fill="white" stroke="black" points="137.5,-6 137.5,-25 221.5,-25 221.5,-6 137.5,-6"/>
<text text-anchor="middle" x="179.5" y="-13" font-family="Helvetica,sans-Serif" font-size="10.00">src/wld_ssid.c</text>
</a>
</g>
</g>
<!-- Node1&#45;&gt;Node3 -->
<g id="edge2" class="edge">
<title>Node1&#45;&gt;Node3</title>
<path fill="none" stroke="midnightblue" d="M179.5,-57.25C179.5,-46.02 179.5,-33.38 179.5,-25.19"/>
<polygon fill="midnightblue" stroke="midnightblue" points="176,-57.4 179.5,-67.4 183,-57.4 176,-57.4"/>
</g>
<!-- Node4 -->
<g id="node4" class="node">
<title>Node4</title>
<g id="a_node4"><a xlink:href="test__enableSync_8c.html" target="_top" xlink:title=" ">
<polygon fill="white" stroke="black" points="240,-0.5 240,-30.5 353,-30.5 353,-0.5 240,-0.5"/>
<text text-anchor="start" x="248" y="-18.5" font-family="Helvetica,sans-Serif" font-size="10.00">test/testEnableSync</text>
<text text-anchor="middle" x="296.5" y="-7.5" font-family="Helvetica,sans-Serif" font-size="10.00">/test_enableSync.c</text>
</a>
</g>
</g>
<!-- Node1&#45;&gt;Node4 -->
<g id="edge3" class="edge">
<title>Node1&#45;&gt;Node4</title>
<path fill="none" stroke="midnightblue" d="M213.82,-62.44C232.17,-52.24 254.38,-39.9 271.16,-30.58"/>
<polygon fill="midnightblue" stroke="midnightblue" points="211.93,-59.48 204.89,-67.4 215.33,-65.6 211.93,-59.48"/>
</g>
</g>
</svg>
