<?xml version="1.0" encoding="UTF-8" standalone="no"?>
<!DOCTYPE svg PUBLIC "-//W3C//DTD SVG 1.1//EN"
 "http://www.w3.org/Graphics/SVG/1.1/DTD/svg11.dtd">
<!-- Generated by graphviz version 2.43.0 (0)
 -->
<!-- Title: src/VendorModule/wld_vendorModule_mgr.c Pages: 1 -->
<svg width="4498pt" height="263pt"
 viewBox="0.00 0.00 4497.66 263.00" xmlns="http://www.w3.org/2000/svg" xmlns:xlink="http://www.w3.org/1999/xlink">
<g id="graph0" class="graph" transform="scale(1 1) rotate(0) translate(4 259)">
<title>src/VendorModule/wld_vendorModule_mgr.c</title>
<polygon fill="white" stroke="transparent" points="-4,4 -4,-259 4493.66,-259 4493.66,4 -4,4"/>
<!-- Node1 -->
<g id="node1" class="node">
<title>Node1</title>
<g id="a_node1"><a xlink:title=" ">
<polygon fill="#bfbfbf" stroke="black" points="2057,-224.5 2057,-254.5 2181,-254.5 2181,-224.5 2057,-224.5"/>
<text text-anchor="start" x="2065" y="-242.5" font-family="Helvetica,sans-Serif" font-size="10.00">src/VendorModule/wld</text>
<text text-anchor="middle" x="2119" y="-231.5" font-family="Helvetica,sans-Serif" font-size="10.00">_vendorModule_mgr.c</text>
</a>
</g>
</g>
<!-- Node2 -->
<g id="node2" class="node">
<title>Node2</title>
<g id="a_node2"><a xlink:title=" ">
<polygon fill="white" stroke="#bfbfbf" points="1587.5,-168.5 1587.5,-187.5 1640.5,-187.5 1640.5,-168.5 1587.5,-168.5"/>
<text text-anchor="middle" x="1614" y="-175.5" font-family="Helvetica,sans-Serif" font-size="10.00">string.h</text>
</a>
</g>
</g>
<!-- Node1&#45;&gt;Node2 -->
<g id="edge1" class="edge">
<title>Node1&#45;&gt;Node2</title>
<path fill="none" stroke="midnightblue" d="M2056.78,-234.54C1968.53,-228.32 1801.88,-214.34 1650.59,-187.86"/>
<polygon fill="midnightblue" stroke="midnightblue" points="1651.11,-184.4 1640.65,-186.1 1649.88,-191.29 1651.11,-184.4"/>
</g>
<!-- Node3 -->
<g id="node3" class="node">
<title>Node3</title>
<g id="a_node3"><a xlink:title=" ">
<polygon fill="white" stroke="#bfbfbf" points="1658.5,-168.5 1658.5,-187.5 1711.5,-187.5 1711.5,-168.5 1658.5,-168.5"/>
<text text-anchor="middle" x="1685" y="-175.5" font-family="Helvetica,sans-Serif" font-size="10.00">stdlib.h</text>
</a>
</g>
</g>
<!-- Node1&#45;&gt;Node3 -->
<g id="edge2" class="edge">
<title>Node1&#45;&gt;Node3</title>
<path fill="none" stroke="midnightblue" d="M2056.94,-232.93C1980.41,-225.55 1846.22,-210.94 1721.75,-187.93"/>
<polygon fill="midnightblue" stroke="midnightblue" points="1722.13,-184.44 1711.66,-186.04 1720.84,-191.32 1722.13,-184.44"/>
</g>
<!-- Node4 -->
<g id="node4" class="node">
<title>Node4</title>
<g id="a_node4"><a xlink:title=" ">
<polygon fill="white" stroke="#bfbfbf" points="1729.5,-168.5 1729.5,-187.5 1830.5,-187.5 1830.5,-168.5 1729.5,-168.5"/>
<text text-anchor="middle" x="1780" y="-175.5" font-family="Helvetica,sans-Serif" font-size="10.00">debug/sahtrace.h</text>
</a>
</g>
</g>
<!-- Node1&#45;&gt;Node4 -->
<g id="edge3" class="edge">
<title>Node1&#45;&gt;Node4</title>
<path fill="none" stroke="midnightblue" d="M2056.82,-227.59C1994.66,-216.68 1899.8,-200.03 1838.84,-189.33"/>
<polygon fill="midnightblue" stroke="midnightblue" points="1839.07,-185.81 1828.62,-187.53 1837.86,-192.71 1839.07,-185.81"/>
</g>
<!-- Node5 -->
<g id="node5" class="node">
<title>Node5</title>
<g id="a_node5"><a xlink:title=" ">
<polygon fill="white" stroke="#bfbfbf" points="1848.5,-168.5 1848.5,-187.5 1899.5,-187.5 1899.5,-168.5 1848.5,-168.5"/>
<text text-anchor="middle" x="1874" y="-175.5" font-family="Helvetica,sans-Serif" font-size="10.00">errno.h</text>
</a>
</g>
</g>
<!-- Node1&#45;&gt;Node5 -->
<g id="edge4" class="edge">
<title>Node1&#45;&gt;Node5</title>
<path fill="none" stroke="midnightblue" d="M2059.65,-224.49C2019.86,-215.04 1966.04,-202.13 1909.45,-188.08"/>
<polygon fill="midnightblue" stroke="midnightblue" points="1910.15,-184.65 1899.6,-185.63 1908.46,-191.44 1910.15,-184.65"/>
</g>
<!-- Node6 -->
<g id="node6" class="node">
<title>Node6</title>
<g id="a_node6"><a xlink:title=" ">
<polygon fill="white" stroke="#bfbfbf" points="1918,-168.5 1918,-187.5 1972,-187.5 1972,-168.5 1918,-168.5"/>
<text text-anchor="middle" x="1945" y="-175.5" font-family="Helvetica,sans-Serif" font-size="10.00">dirent.h</text>
</a>
</g>
</g>
<!-- Node1&#45;&gt;Node6 -->
<g id="edge5" class="edge">
<title>Node1&#45;&gt;Node6</title>
<path fill="none" stroke="midnightblue" d="M2077.76,-224.4C2047.83,-214.16 2007.79,-200.47 1979.53,-190.81"/>
<polygon fill="midnightblue" stroke="midnightblue" points="1980.66,-187.49 1970.06,-187.57 1978.39,-194.12 1980.66,-187.49"/>
</g>
<!-- Node7 -->
<g id="node7" class="node">
<title>Node7</title>
<g id="a_node7"><a xlink:title=" ">
<polygon fill="white" stroke="#bfbfbf" points="1990,-168.5 1990,-187.5 2040,-187.5 2040,-168.5 1990,-168.5"/>
<text text-anchor="middle" x="2015" y="-175.5" font-family="Helvetica,sans-Serif" font-size="10.00">dlfcn.h</text>
</a>
</g>
</g>
<!-- Node1&#45;&gt;Node7 -->
<g id="edge6" class="edge">
<title>Node1&#45;&gt;Node7</title>
<path fill="none" stroke="midnightblue" d="M2094.35,-224.4C2077.68,-214.86 2055.77,-202.32 2039.19,-192.84"/>
<polygon fill="midnightblue" stroke="midnightblue" points="2040.55,-189.59 2030.13,-187.66 2037.07,-195.66 2040.55,-189.59"/>
</g>
<!-- Node8 -->
<g id="node8" class="node">
<title>Node8</title>
<g id="a_node8"><a xlink:title=" ">
<polygon fill="white" stroke="#bfbfbf" points="2058,-168.5 2058,-187.5 2180,-187.5 2180,-168.5 2058,-168.5"/>
<text text-anchor="middle" x="2119" y="-175.5" font-family="Helvetica,sans-Serif" font-size="10.00">amxc/amxc_variant.h</text>
</a>
</g>
</g>
<!-- Node1&#45;&gt;Node8 -->
<g id="edge7" class="edge">
<title>Node1&#45;&gt;Node8</title>
<path fill="none" stroke="midnightblue" d="M2119,-224.4C2119,-216.47 2119,-206.46 2119,-197.86"/>
<polygon fill="midnightblue" stroke="midnightblue" points="2122.5,-197.66 2119,-187.66 2115.5,-197.66 2122.5,-197.66"/>
</g>
<!-- Node9 -->
<g id="node9" class="node">
<title>Node9</title>
<g id="a_node9"><a xlink:title=" ">
<polygon fill="white" stroke="#bfbfbf" points="2198,-168.5 2198,-187.5 2290,-187.5 2290,-168.5 2198,-168.5"/>
<text text-anchor="middle" x="2244" y="-175.5" font-family="Helvetica,sans-Serif" font-size="10.00">amxm/amxm.h</text>
</a>
</g>
</g>
<!-- Node1&#45;&gt;Node9 -->
<g id="edge8" class="edge">
<title>Node1&#45;&gt;Node9</title>
<path fill="none" stroke="midnightblue" d="M2148.62,-224.4C2169.22,-214.59 2196.48,-201.62 2216.58,-192.05"/>
<polygon fill="midnightblue" stroke="midnightblue" points="2218.29,-195.12 2225.81,-187.66 2215.28,-188.8 2218.29,-195.12"/>
</g>
<!-- Node10 -->
<g id="node10" class="node">
<title>Node10</title>
<g id="a_node10"><a xlink:title=" ">
<polygon fill="white" stroke="#bfbfbf" points="2308,-168.5 2308,-187.5 2380,-187.5 2380,-168.5 2308,-168.5"/>
<text text-anchor="middle" x="2344" y="-175.5" font-family="Helvetica,sans-Serif" font-size="10.00">sys/types.h</text>
</a>
</g>
</g>
<!-- Node1&#45;&gt;Node10 -->
<g id="edge9" class="edge">
<title>Node1&#45;&gt;Node10</title>
<path fill="none" stroke="midnightblue" d="M2172.04,-224.47C2211.7,-213.99 2265.21,-199.84 2301.94,-190.12"/>
<polygon fill="midnightblue" stroke="midnightblue" points="2303.06,-193.45 2311.83,-187.51 2301.27,-186.68 2303.06,-193.45"/>
</g>
<!-- Node11 -->
<g id="node11" class="node">
<title>Node11</title>
<g id="a_node11"><a xlink:title=" ">
<polygon fill="white" stroke="#bfbfbf" points="0,-112.5 0,-131.5 110,-131.5 110,-112.5 0,-112.5"/>
<text text-anchor="middle" x="55" y="-119.5" font-family="Helvetica,sans-Serif" font-size="10.00">swl/swl_common.h</text>
</a>
</g>
</g>
<!-- Node1&#45;&gt;Node11 -->
<g id="edge10" class="edge">
<title>Node1&#45;&gt;Node11</title>
<path fill="none" stroke="midnightblue" d="M2181.17,-235.79C2252.54,-231.22 2363.11,-219.19 2389,-188 2394.68,-181.16 2395.24,-174.34 2389,-168 2344.86,-123.15 186.76,-136.58 124,-132 122.89,-131.92 121.76,-131.83 120.63,-131.74"/>
<polygon fill="midnightblue" stroke="midnightblue" points="120.59,-128.22 110.31,-130.78 119.94,-135.19 120.59,-128.22"/>
</g>
<!-- Node12 -->
<g id="node12" class="node">
<title>Node12</title>
<g id="a_node12"><a xlink:href="wld_8h.html" target="_top" xlink:title=" ">
<polygon fill="white" stroke="red" points="2436.5,-168.5 2436.5,-187.5 2479.5,-187.5 2479.5,-168.5 2436.5,-168.5"/>
<text text-anchor="middle" x="2458" y="-175.5" font-family="Helvetica,sans-Serif" font-size="10.00">wld.h</text>
</a>
</g>
</g>
<!-- Node1&#45;&gt;Node12 -->
<g id="edge11" class="edge">
<title>Node1&#45;&gt;Node12</title>
<path fill="none" stroke="midnightblue" d="M2181.07,-229.64C2242.51,-220.52 2339.11,-205.24 2422,-188 2423.46,-187.7 2424.95,-187.37 2426.45,-187.04"/>
<polygon fill="midnightblue" stroke="midnightblue" points="2427.43,-190.4 2436.36,-184.71 2425.83,-183.59 2427.43,-190.4"/>
</g>
<!-- Node84 -->
<g id="node49" class="node">
<title>Node84</title>
<g id="a_node49"><a xlink:href="wld__vendorModule__mgr_8h.html" target="_top" xlink:title=" ">
<polygon fill="white" stroke="red" points="2498,-168.5 2498,-187.5 2640,-187.5 2640,-168.5 2498,-168.5"/>
<text text-anchor="middle" x="2569" y="-175.5" font-family="Helvetica,sans-Serif" font-size="10.00">wld_vendorModule_mgr.h</text>
</a>
</g>
</g>
<!-- Node1&#45;&gt;Node84 -->
<g id="edge58" class="edge">
<title>Node1&#45;&gt;Node84</title>
<path fill="none" stroke="midnightblue" d="M2181.1,-230.29C2262.97,-219.46 2406.86,-200.44 2494.49,-188.85"/>
<polygon fill="midnightblue" stroke="midnightblue" points="2495.18,-192.29 2504.63,-187.51 2494.26,-185.35 2495.18,-192.29"/>
</g>
<!-- Node86 -->
<g id="node50" class="node">
<title>Node86</title>
<g id="a_node50"><a xlink:href="wld__vendorModule__priv_8h.html" target="_top" xlink:title=" ">
<polygon fill="white" stroke="black" points="2658.5,-168.5 2658.5,-187.5 2799.5,-187.5 2799.5,-168.5 2658.5,-168.5"/>
<text text-anchor="middle" x="2729" y="-175.5" font-family="Helvetica,sans-Serif" font-size="10.00">wld_vendorModule_priv.h</text>
</a>
</g>
</g>
<!-- Node1&#45;&gt;Node86 -->
<g id="edge59" class="edge">
<title>Node1&#45;&gt;Node86</title>
<path fill="none" stroke="midnightblue" d="M2181.05,-232.93C2278.21,-224.14 2472.46,-206.25 2648.38,-188.05"/>
<polygon fill="midnightblue" stroke="midnightblue" points="2648.75,-191.53 2658.34,-187.02 2648.03,-184.57 2648.75,-191.53"/>
</g>
<!-- Node12&#45;&gt;Node11 -->
<g id="edge14" class="edge">
<title>Node12&#45;&gt;Node11</title>
<path fill="none" stroke="midnightblue" d="M2436.45,-170.76C2431.73,-169.63 2426.73,-168.62 2422,-168 1915.6,-101.63 633.38,-169.09 124,-132 122.89,-131.92 121.76,-131.83 120.63,-131.74"/>
<polygon fill="midnightblue" stroke="midnightblue" points="120.59,-128.22 110.31,-130.78 119.94,-135.19 120.59,-128.22"/>
</g>
<!-- Node13 -->
<g id="node13" class="node">
<title>Node13</title>
<g id="a_node13"><a xlink:title=" ">
<polygon fill="white" stroke="#bfbfbf" points="4376,-56.5 4376,-75.5 4438,-75.5 4438,-56.5 4376,-56.5"/>
<text text-anchor="middle" x="4407" y="-63.5" font-family="Helvetica,sans-Serif" font-size="10.00">stdbool.h</text>
</a>
</g>
</g>
<!-- Node12&#45;&gt;Node13 -->
<g id="edge12" class="edge">
<title>Node12&#45;&gt;Node13</title>
<path fill="none" stroke="midnightblue" d="M2479.52,-169.96C2482.67,-169.17 2485.9,-168.47 2489,-168 2543.28,-159.78 4426.54,-171.17 4465,-132 4481.76,-114.93 4455.66,-94.13 4433.27,-80.74"/>
<polygon fill="midnightblue" stroke="midnightblue" points="4434.76,-77.56 4424.34,-75.65 4431.3,-83.64 4434.76,-77.56"/>
</g>
<!-- Node14 -->
<g id="node14" class="node">
<title>Node14</title>
<g id="a_node14"><a xlink:title=" ">
<polygon fill="white" stroke="#bfbfbf" points="1989.5,-0.5 1989.5,-19.5 2042.5,-19.5 2042.5,-0.5 1989.5,-0.5"/>
<text text-anchor="middle" x="2016" y="-7.5" font-family="Helvetica,sans-Serif" font-size="10.00">stdint.h</text>
</a>
</g>
</g>
<!-- Node12&#45;&gt;Node14 -->
<g id="edge13" class="edge">
<title>Node12&#45;&gt;Node14</title>
<path fill="none" stroke="midnightblue" d="M2436.44,-172.57C2426.85,-170.8 2415.41,-168.96 2405,-168 2342.81,-162.26 200.81,-176.51 157,-132 150.77,-125.66 150.89,-118.45 157,-112 222.05,-43.32 1723.14,-15.78 1979.06,-11.58"/>
<polygon fill="midnightblue" stroke="midnightblue" points="1979.37,-15.08 1989.31,-11.41 1979.26,-8.08 1979.37,-15.08"/>
</g>
<!-- Node15 -->
<g id="node15" class="node">
<title>Node15</title>
<g id="a_node15"><a xlink:title=" ">
<polygon fill="white" stroke="#bfbfbf" points="166,-112.5 166,-131.5 302,-131.5 302,-112.5 166,-112.5"/>
<text text-anchor="middle" x="234" y="-119.5" font-family="Helvetica,sans-Serif" font-size="10.00">swla/swla_commonLib.h</text>
</a>
</g>
</g>
<!-- Node12&#45;&gt;Node15 -->
<g id="edge15" class="edge">
<title>Node12&#45;&gt;Node15</title>
<path fill="none" stroke="midnightblue" d="M2436.45,-170.77C2431.73,-169.64 2426.73,-168.62 2422,-168 1960.14,-107.14 795.78,-162.48 312.63,-132.02"/>
<polygon fill="midnightblue" stroke="midnightblue" points="312.61,-128.51 302.4,-131.35 312.15,-135.49 312.61,-128.51"/>
</g>
<!-- Node16 -->
<g id="node16" class="node">
<title>Node16</title>
<g id="a_node16"><a xlink:title=" ">
<polygon fill="white" stroke="#bfbfbf" points="320,-112.5 320,-131.5 408,-131.5 408,-112.5 320,-112.5"/>
<text text-anchor="middle" x="364" y="-119.5" font-family="Helvetica,sans-Serif" font-size="10.00">swl/swl_uuid.h</text>
</a>
</g>
</g>
<!-- Node12&#45;&gt;Node16 -->
<g id="edge16" class="edge">
<title>Node12&#45;&gt;Node16</title>
<path fill="none" stroke="midnightblue" d="M2436.45,-170.77C2431.73,-169.64 2426.73,-168.62 2422,-168 1983.45,-110.01 877.06,-172.49 418.23,-131.93"/>
<polygon fill="midnightblue" stroke="midnightblue" points="418.46,-128.43 408.18,-131.01 417.82,-135.41 418.46,-128.43"/>
</g>
<!-- Node17 -->
<g id="node17" class="node">
<title>Node17</title>
<g id="a_node17"><a xlink:title=" ">
<polygon fill="white" stroke="#bfbfbf" points="426,-112.5 426,-131.5 578,-131.5 578,-112.5 426,-112.5"/>
<text text-anchor="middle" x="502" y="-119.5" font-family="Helvetica,sans-Serif" font-size="10.00">swla/swla_radioStandards.h</text>
</a>
</g>
</g>
<!-- Node12&#45;&gt;Node17 -->
<g id="edge17" class="edge">
<title>Node12&#45;&gt;Node17</title>
<path fill="none" stroke="midnightblue" d="M2436.45,-170.77C2431.73,-169.65 2426.73,-168.63 2422,-168 2020.97,-114.63 1010.51,-156.8 588.59,-132.02"/>
<polygon fill="midnightblue" stroke="midnightblue" points="588.62,-128.52 578.43,-131.41 588.2,-135.51 588.62,-128.52"/>
</g>
<!-- Node18 -->
<g id="node18" class="node">
<title>Node18</title>
<g id="a_node18"><a xlink:title=" ">
<polygon fill="white" stroke="#bfbfbf" points="4241.5,-0.5 4241.5,-19.5 4342.5,-19.5 4342.5,-0.5 4241.5,-0.5"/>
<text text-anchor="middle" x="4292" y="-7.5" font-family="Helvetica,sans-Serif" font-size="10.00">swla/swla_time.h</text>
</a>
</g>
</g>
<!-- Node12&#45;&gt;Node18 -->
<g id="edge18" class="edge">
<title>Node12&#45;&gt;Node18</title>
<path fill="none" stroke="midnightblue" d="M2479.52,-169.96C2482.67,-169.16 2485.9,-168.47 2489,-168 2543.72,-159.71 4442.22,-171.48 4481,-132 4504.73,-107.83 4474.8,-77.3 4447,-56 4419.92,-35.25 4383.55,-24.06 4352.84,-18.03"/>
<polygon fill="midnightblue" stroke="midnightblue" points="4353.13,-14.52 4342.66,-16.17 4351.88,-21.41 4353.13,-14.52"/>
</g>
<!-- Node19 -->
<g id="node19" class="node">
<title>Node19</title>
<g id="a_node19"><a xlink:title=" ">
<polygon fill="white" stroke="#bfbfbf" points="681.5,-112.5 681.5,-131.5 810.5,-131.5 810.5,-112.5 681.5,-112.5"/>
<text text-anchor="middle" x="746" y="-119.5" font-family="Helvetica,sans-Serif" font-size="10.00">swla/swla_time_spec.h</text>
</a>
</g>
</g>
<!-- Node12&#45;&gt;Node19 -->
<g id="edge19" class="edge">
<title>Node12&#45;&gt;Node19</title>
<path fill="none" stroke="midnightblue" d="M2436.45,-170.79C2431.73,-169.66 2426.72,-168.64 2422,-168 2072.28,-120.95 1191.28,-156.87 820.55,-131.93"/>
<polygon fill="midnightblue" stroke="midnightblue" points="820.76,-128.43 810.54,-131.23 820.27,-135.42 820.76,-128.43"/>
</g>
<!-- Node20 -->
<g id="node20" class="node">
<title>Node20</title>
<g id="a_node20"><a xlink:title=" ">
<polygon fill="white" stroke="#bfbfbf" points="829,-112.5 829,-131.5 923,-131.5 923,-112.5 829,-112.5"/>
<text text-anchor="middle" x="876" y="-119.5" font-family="Helvetica,sans-Serif" font-size="10.00">swla/swla_oui.h</text>
</a>
</g>
</g>
<!-- Node12&#45;&gt;Node20 -->
<g id="edge20" class="edge">
<title>Node12&#45;&gt;Node20</title>
<path fill="none" stroke="midnightblue" d="M2436.45,-170.79C2431.73,-169.66 2426.72,-168.64 2422,-168 1768.94,-79.58 1593.43,-191.53 933.54,-132"/>
<polygon fill="midnightblue" stroke="midnightblue" points="933.58,-128.49 923.3,-131.06 932.94,-135.46 933.58,-128.49"/>
</g>
<!-- Node21 -->
<g id="node21" class="node">
<title>Node21</title>
<g id="a_node21"><a xlink:title=" ">
<polygon fill="white" stroke="#bfbfbf" points="941,-112.5 941,-131.5 1069,-131.5 1069,-112.5 941,-112.5"/>
<text text-anchor="middle" x="1005" y="-119.5" font-family="Helvetica,sans-Serif" font-size="10.00">swla/swla_delayExec.h</text>
</a>
</g>
</g>
<!-- Node12&#45;&gt;Node21 -->
<g id="edge21" class="edge">
<title>Node12&#45;&gt;Node21</title>
<path fill="none" stroke="midnightblue" d="M2436.45,-170.8C2431.72,-169.67 2426.72,-168.65 2422,-168 1833.72,-87.56 1676.24,-175.1 1079.29,-131.92"/>
<polygon fill="midnightblue" stroke="midnightblue" points="1079.37,-128.42 1069.14,-131.18 1078.86,-135.4 1079.37,-128.42"/>
</g>
<!-- Node22 -->
<g id="node22" class="node">
<title>Node22</title>
<g id="a_node22"><a xlink:title=" ">
<polygon fill="white" stroke="#bfbfbf" points="1087.5,-112.5 1087.5,-131.5 1206.5,-131.5 1206.5,-112.5 1087.5,-112.5"/>
<text text-anchor="middle" x="1147" y="-119.5" font-family="Helvetica,sans-Serif" font-size="10.00">swla/swla_function.h</text>
</a>
</g>
</g>
<!-- Node12&#45;&gt;Node22 -->
<g id="edge22" class="edge">
<title>Node12&#45;&gt;Node22</title>
<path fill="none" stroke="midnightblue" d="M2436.45,-170.81C2431.72,-169.68 2426.72,-168.65 2422,-168 1894.19,-95.01 1752.33,-173.72 1217.11,-131.99"/>
<polygon fill="midnightblue" stroke="midnightblue" points="1217.05,-128.47 1206.8,-131.17 1216.49,-135.45 1217.05,-128.47"/>
</g>
<!-- Node23 -->
<g id="node23" class="node">
<title>Node23</title>
<g id="a_node23"><a xlink:title=" ">
<polygon fill="white" stroke="#bfbfbf" points="1224.5,-112.5 1224.5,-131.5 1365.5,-131.5 1365.5,-112.5 1224.5,-112.5"/>
<text text-anchor="middle" x="1295" y="-119.5" font-family="Helvetica,sans-Serif" font-size="10.00">swl/swl_usp_cmdStatus.h</text>
</a>
</g>
</g>
<!-- Node12&#45;&gt;Node23 -->
<g id="edge23" class="edge">
<title>Node12&#45;&gt;Node23</title>
<path fill="none" stroke="midnightblue" d="M2436.44,-170.83C2431.72,-169.7 2426.72,-168.66 2422,-168 1964.19,-103.64 1841.1,-165.17 1375.65,-131.97"/>
<polygon fill="midnightblue" stroke="midnightblue" points="1375.87,-128.48 1365.64,-131.25 1375.36,-135.46 1375.87,-128.48"/>
</g>
<!-- Node24 -->
<g id="node24" class="node">
<title>Node24</title>
<g id="a_node24"><a xlink:title=" ">
<polygon fill="white" stroke="#bfbfbf" points="1384,-112.5 1384,-131.5 1470,-131.5 1470,-112.5 1384,-112.5"/>
<text text-anchor="middle" x="1427" y="-119.5" font-family="Helvetica,sans-Serif" font-size="10.00">swl/swl_wps.h</text>
</a>
</g>
</g>
<!-- Node12&#45;&gt;Node24 -->
<g id="edge24" class="edge">
<title>Node12&#45;&gt;Node24</title>
<path fill="none" stroke="midnightblue" d="M2436.44,-170.84C2431.72,-169.71 2426.72,-168.67 2422,-168 2010.12,-109.3 1897.92,-174.79 1480.3,-131.97"/>
<polygon fill="midnightblue" stroke="midnightblue" points="1480.38,-128.46 1470.07,-130.91 1479.65,-135.42 1480.38,-128.46"/>
</g>
<!-- Node25 -->
<g id="node25" class="node">
<title>Node25</title>
<g id="a_node25"><a xlink:title=" ">
<polygon fill="white" stroke="#bfbfbf" points="1488,-112.5 1488,-131.5 1592,-131.5 1592,-112.5 1488,-112.5"/>
<text text-anchor="middle" x="1540" y="-119.5" font-family="Helvetica,sans-Serif" font-size="10.00">swl/swl_security.h</text>
</a>
</g>
</g>
<!-- Node12&#45;&gt;Node25 -->
<g id="edge25" class="edge">
<title>Node12&#45;&gt;Node25</title>
<path fill="none" stroke="midnightblue" d="M2436.44,-170.86C2431.72,-169.73 2426.72,-168.69 2422,-168 2061,-115.5 1965.18,-166.25 1602,-132 1601.9,-131.99 1601.8,-131.98 1601.7,-131.97"/>
<polygon fill="midnightblue" stroke="midnightblue" points="1602.36,-128.52 1592.05,-130.94 1601.62,-135.48 1602.36,-128.52"/>
</g>
<!-- Node26 -->
<g id="node26" class="node">
<title>Node26</title>
<g id="a_node26"><a xlink:title=" ">
<polygon fill="white" stroke="#bfbfbf" points="1610.5,-112.5 1610.5,-131.5 1693.5,-131.5 1693.5,-112.5 1610.5,-112.5"/>
<text text-anchor="middle" x="1652" y="-119.5" font-family="Helvetica,sans-Serif" font-size="10.00">amxc/amxc.h</text>
</a>
</g>
</g>
<!-- Node12&#45;&gt;Node26 -->
<g id="edge26" class="edge">
<title>Node12&#45;&gt;Node26</title>
<path fill="none" stroke="midnightblue" d="M2436.44,-170.88C2431.71,-169.75 2426.72,-168.7 2422,-168 2108.76,-121.46 2022.7,-166.92 1703.68,-131.91"/>
<polygon fill="midnightblue" stroke="midnightblue" points="1704.01,-128.42 1693.69,-130.79 1703.24,-135.38 1704.01,-128.42"/>
</g>
<!-- Node27 -->
<g id="node27" class="node">
<title>Node27</title>
<g id="a_node27"><a xlink:title=" ">
<polygon fill="white" stroke="#bfbfbf" points="1712,-112.5 1712,-131.5 1796,-131.5 1796,-112.5 1712,-112.5"/>
<text text-anchor="middle" x="1754" y="-119.5" font-family="Helvetica,sans-Serif" font-size="10.00">amxp/amxp.h</text>
</a>
</g>
</g>
<!-- Node12&#45;&gt;Node27 -->
<g id="edge27" class="edge">
<title>Node12&#45;&gt;Node27</title>
<path fill="none" stroke="midnightblue" d="M2436.43,-170.91C2431.71,-169.78 2426.71,-168.72 2422,-168 2153.78,-127.01 2079.63,-163.02 1806.46,-132.03"/>
<polygon fill="midnightblue" stroke="midnightblue" points="1806.58,-128.52 1796.25,-130.85 1805.78,-135.47 1806.58,-128.52"/>
</g>
<!-- Node28 -->
<g id="node28" class="node">
<title>Node28</title>
<g id="a_node28"><a xlink:title=" ">
<polygon fill="white" stroke="#bfbfbf" points="1814,-112.5 1814,-131.5 1954,-131.5 1954,-112.5 1814,-112.5"/>
<text text-anchor="middle" x="1884" y="-119.5" font-family="Helvetica,sans-Serif" font-size="10.00">amxd/amxd_parameter.h</text>
</a>
</g>
</g>
<!-- Node12&#45;&gt;Node28 -->
<g id="edge28" class="edge">
<title>Node12&#45;&gt;Node28</title>
<path fill="none" stroke="midnightblue" d="M2436.42,-170.99C2431.7,-169.84 2426.71,-168.77 2422,-168 2223.73,-135.65 2169.01,-150.9 1964.4,-131.99"/>
<polygon fill="midnightblue" stroke="midnightblue" points="1964.51,-128.49 1954.23,-131.04 1963.85,-135.46 1964.51,-128.49"/>
</g>
<!-- Node29 -->
<g id="node29" class="node">
<title>Node29</title>
<g id="a_node29"><a xlink:title=" ">
<polygon fill="white" stroke="#bfbfbf" points="1972.5,-112.5 1972.5,-131.5 2091.5,-131.5 2091.5,-112.5 1972.5,-112.5"/>
<text text-anchor="middle" x="2032" y="-119.5" font-family="Helvetica,sans-Serif" font-size="10.00">amxd/amxd_action.h</text>
</a>
</g>
</g>
<!-- Node12&#45;&gt;Node29 -->
<g id="edge29" class="edge">
<title>Node12&#45;&gt;Node29</title>
<path fill="none" stroke="midnightblue" d="M2436.4,-171.1C2431.68,-169.95 2426.69,-168.85 2422,-168 2283.89,-143.11 2245.24,-149 2101.88,-132.07"/>
<polygon fill="midnightblue" stroke="midnightblue" points="2102.18,-128.58 2091.83,-130.87 2101.34,-135.54 2102.18,-128.58"/>
</g>
<!-- Node30 -->
<g id="node30" class="node">
<title>Node30</title>
<g id="a_node30"><a xlink:title=" ">
<polygon fill="white" stroke="#bfbfbf" points="2109.5,-112.5 2109.5,-131.5 2284.5,-131.5 2284.5,-112.5 2109.5,-112.5"/>
<text text-anchor="middle" x="2197" y="-119.5" font-family="Helvetica,sans-Serif" font-size="10.00">amxd/amxd_object_parameter.h</text>
</a>
</g>
</g>
<!-- Node12&#45;&gt;Node30 -->
<g id="edge30" class="edge">
<title>Node12&#45;&gt;Node30</title>
<path fill="none" stroke="midnightblue" d="M2436.34,-171.41C2431.62,-170.24 2426.65,-169.05 2422,-168 2364.55,-155.08 2298.43,-142.08 2252.8,-133.39"/>
<polygon fill="midnightblue" stroke="midnightblue" points="2253.29,-129.93 2242.81,-131.5 2251.99,-136.8 2253.29,-129.93"/>
</g>
<!-- Node31 -->
<g id="node31" class="node">
<title>Node31</title>
<g id="a_node31"><a xlink:title=" ">
<polygon fill="white" stroke="#bfbfbf" points="2303,-112.5 2303,-131.5 2455,-131.5 2455,-112.5 2303,-112.5"/>
<text text-anchor="middle" x="2379" y="-119.5" font-family="Helvetica,sans-Serif" font-size="10.00">amxd/amxd_object_event.h</text>
</a>
</g>
</g>
<!-- Node12&#45;&gt;Node31 -->
<g id="edge31" class="edge">
<title>Node12&#45;&gt;Node31</title>
<path fill="none" stroke="midnightblue" d="M2445.31,-168.32C2433.1,-159.98 2414.42,-147.21 2400,-137.35"/>
<polygon fill="midnightblue" stroke="midnightblue" points="2401.89,-134.41 2391.66,-131.65 2397.94,-140.19 2401.89,-134.41"/>
</g>
<!-- Node32 -->
<g id="node32" class="node">
<title>Node32</title>
<g id="a_node32"><a xlink:title=" ">
<polygon fill="white" stroke="#bfbfbf" points="2473.5,-112.5 2473.5,-131.5 2602.5,-131.5 2602.5,-112.5 2473.5,-112.5"/>
<text text-anchor="middle" x="2538" y="-119.5" font-family="Helvetica,sans-Serif" font-size="10.00">amxd/amxd_function.h</text>
</a>
</g>
</g>
<!-- Node12&#45;&gt;Node32 -->
<g id="edge32" class="edge">
<title>Node12&#45;&gt;Node32</title>
<path fill="none" stroke="midnightblue" d="M2470.85,-168.32C2483.22,-159.98 2502.13,-147.21 2516.74,-137.35"/>
<polygon fill="midnightblue" stroke="midnightblue" points="2518.85,-140.15 2525.18,-131.65 2514.93,-134.35 2518.85,-140.15"/>
</g>
<!-- Node33 -->
<g id="node33" class="node">
<title>Node33</title>
<g id="a_node33"><a xlink:title=" ">
<polygon fill="white" stroke="#bfbfbf" points="2620.5,-112.5 2620.5,-131.5 2789.5,-131.5 2789.5,-112.5 2620.5,-112.5"/>
<text text-anchor="middle" x="2705" y="-119.5" font-family="Helvetica,sans-Serif" font-size="10.00">amxd/amxd_object_hierarchy.h</text>
</a>
</g>
</g>
<!-- Node12&#45;&gt;Node33 -->
<g id="edge33" class="edge">
<title>Node12&#45;&gt;Node33</title>
<path fill="none" stroke="midnightblue" d="M2479.62,-170.49C2482.76,-169.62 2485.95,-168.76 2489,-168 2542.97,-154.57 2605.2,-141.9 2648.96,-133.44"/>
<polygon fill="midnightblue" stroke="midnightblue" points="2649.68,-136.87 2658.84,-131.55 2648.36,-130 2649.68,-136.87"/>
</g>
<!-- Node34 -->
<g id="node34" class="node">
<title>Node34</title>
<g id="a_node34"><a xlink:title=" ">
<polygon fill="white" stroke="#bfbfbf" points="2807.5,-112.5 2807.5,-131.5 2926.5,-131.5 2926.5,-112.5 2807.5,-112.5"/>
<text text-anchor="middle" x="2867" y="-119.5" font-family="Helvetica,sans-Serif" font-size="10.00">amxd/amxd_object.h</text>
</a>
</g>
</g>
<!-- Node12&#45;&gt;Node34 -->
<g id="edge34" class="edge">
<title>Node12&#45;&gt;Node34</title>
<path fill="none" stroke="midnightblue" d="M2479.57,-170.24C2482.71,-169.4 2485.92,-168.62 2489,-168 2621.78,-141.21 2659.59,-148.72 2797.22,-132.19"/>
<polygon fill="midnightblue" stroke="midnightblue" points="2797.8,-135.64 2807.3,-130.96 2796.95,-128.7 2797.8,-135.64"/>
</g>
<!-- Node35 -->
<g id="node35" class="node">
<title>Node35</title>
<g id="a_node35"><a xlink:title=" ">
<polygon fill="white" stroke="#bfbfbf" points="2944.5,-112.5 2944.5,-131.5 3049.5,-131.5 3049.5,-112.5 2944.5,-112.5"/>
<text text-anchor="middle" x="2997" y="-119.5" font-family="Helvetica,sans-Serif" font-size="10.00">amxd/amxd_dm.h</text>
</a>
</g>
</g>
<!-- Node12&#45;&gt;Node35 -->
<g id="edge35" class="edge">
<title>Node12&#45;&gt;Node35</title>
<path fill="none" stroke="midnightblue" d="M2479.55,-170.14C2482.69,-169.32 2485.91,-168.57 2489,-168 2681.78,-132.63 2736.17,-153.83 2934.3,-132.11"/>
<polygon fill="midnightblue" stroke="midnightblue" points="2934.91,-135.57 2944.46,-130.98 2934.13,-128.61 2934.91,-135.57"/>
</g>
<!-- Node36 -->
<g id="node36" class="node">
<title>Node36</title>
<g id="a_node36"><a xlink:title=" ">
<polygon fill="white" stroke="#bfbfbf" points="3068,-112.5 3068,-131.5 3212,-131.5 3212,-112.5 3068,-112.5"/>
<text text-anchor="middle" x="3140" y="-119.5" font-family="Helvetica,sans-Serif" font-size="10.00">amxd/amxd_transaction.h</text>
</a>
</g>
</g>
<!-- Node12&#45;&gt;Node36 -->
<g id="edge36" class="edge">
<title>Node12&#45;&gt;Node36</title>
<path fill="none" stroke="midnightblue" d="M2479.54,-170.09C2482.69,-169.27 2485.91,-168.54 2489,-168 2735.76,-124.93 2804.32,-153.25 3057.35,-132.09"/>
<polygon fill="midnightblue" stroke="midnightblue" points="3057.93,-135.56 3067.59,-131.22 3057.33,-128.58 3057.93,-135.56"/>
</g>
<!-- Node37 -->
<g id="node37" class="node">
<title>Node37</title>
<g id="a_node37"><a xlink:title=" ">
<polygon fill="white" stroke="#bfbfbf" points="3230,-112.5 3230,-131.5 3346,-131.5 3346,-112.5 3230,-112.5"/>
<text text-anchor="middle" x="3288" y="-119.5" font-family="Helvetica,sans-Serif" font-size="10.00">amxb/amxb_types.h</text>
</a>
</g>
</g>
<!-- Node12&#45;&gt;Node37 -->
<g id="edge37" class="edge">
<title>Node12&#45;&gt;Node37</title>
<path fill="none" stroke="midnightblue" d="M2479.53,-170.05C2482.68,-169.24 2485.9,-168.52 2489,-168 2806.96,-114.78 2894.84,-160.75 3219.75,-132.02"/>
<polygon fill="midnightblue" stroke="midnightblue" points="3220.28,-135.49 3229.93,-131.11 3219.66,-128.52 3220.28,-135.49"/>
</g>
<!-- Node38 -->
<g id="node38" class="node">
<title>Node38</title>
<g id="a_node38"><a xlink:title=" ">
<polygon fill="white" stroke="#bfbfbf" points="3364,-112.5 3364,-131.5 3500,-131.5 3500,-112.5 3364,-112.5"/>
<text text-anchor="middle" x="3432" y="-119.5" font-family="Helvetica,sans-Serif" font-size="10.00">amxb/amxb_operators.h</text>
</a>
</g>
</g>
<!-- Node12&#45;&gt;Node38 -->
<g id="edge38" class="edge">
<title>Node12&#45;&gt;Node38</title>
<path fill="none" stroke="midnightblue" d="M2479.53,-170.03C2482.68,-169.22 2485.9,-168.51 2489,-168 2865.93,-106.38 2969.22,-161.42 3353.59,-132.04"/>
<polygon fill="midnightblue" stroke="midnightblue" points="3353.89,-135.53 3363.59,-131.26 3353.35,-128.55 3353.89,-135.53"/>
</g>
<!-- Node39 -->
<g id="node39" class="node">
<title>Node39</title>
<g id="a_node39"><a xlink:title=" ">
<polygon fill="white" stroke="#bfbfbf" points="3518,-112.5 3518,-131.5 3630,-131.5 3630,-112.5 3518,-112.5"/>
<text text-anchor="middle" x="3574" y="-119.5" font-family="Helvetica,sans-Serif" font-size="10.00">amxb/amxb_error.h</text>
</a>
</g>
</g>
<!-- Node12&#45;&gt;Node39 -->
<g id="edge39" class="edge">
<title>Node12&#45;&gt;Node39</title>
<path fill="none" stroke="midnightblue" d="M2479.52,-170.01C2482.67,-169.21 2485.9,-168.5 2489,-168 2933.62,-96.74 3055.3,-170.07 3507.6,-132.02"/>
<polygon fill="midnightblue" stroke="midnightblue" points="3508,-135.5 3517.67,-131.16 3507.41,-128.52 3508,-135.5"/>
</g>
<!-- Node40 -->
<g id="node40" class="node">
<title>Node40</title>
<g id="a_node40"><a xlink:title=" ">
<polygon fill="white" stroke="#bfbfbf" points="3648.5,-112.5 3648.5,-131.5 3731.5,-131.5 3731.5,-112.5 3648.5,-112.5"/>
<text text-anchor="middle" x="3690" y="-119.5" font-family="Helvetica,sans-Serif" font-size="10.00">amxo/amxo.h</text>
</a>
</g>
</g>
<!-- Node12&#45;&gt;Node40 -->
<g id="edge40" class="edge">
<title>Node12&#45;&gt;Node40</title>
<path fill="none" stroke="midnightblue" d="M2479.52,-170C2482.67,-169.2 2485.9,-168.49 2489,-168 2990.75,-88.61 3128.54,-183.3 3638.13,-131.9"/>
<polygon fill="midnightblue" stroke="midnightblue" points="3638.73,-135.36 3648.32,-130.86 3638.02,-128.39 3638.73,-135.36"/>
</g>
<!-- Node41 -->
<g id="node41" class="node">
<title>Node41</title>
<g id="a_node41"><a xlink:title=" ">
<polygon fill="white" stroke="#bfbfbf" points="3749.5,-112.5 3749.5,-131.5 3864.5,-131.5 3864.5,-112.5 3749.5,-112.5"/>
<text text-anchor="middle" x="3807" y="-119.5" font-family="Helvetica,sans-Serif" font-size="10.00">amxo/amxo_types.h</text>
</a>
</g>
</g>
<!-- Node12&#45;&gt;Node41 -->
<g id="edge41" class="edge">
<title>Node12&#45;&gt;Node41</title>
<path fill="none" stroke="midnightblue" d="M2479.52,-169.99C2482.67,-169.19 2485.9,-168.49 2489,-168 2760.75,-125.36 3447.26,-154.14 3739.23,-132.02"/>
<polygon fill="midnightblue" stroke="midnightblue" points="3739.75,-135.49 3749.45,-131.22 3739.2,-128.52 3739.75,-135.49"/>
</g>
<!-- Node42 -->
<g id="node42" class="node">
<title>Node42</title>
<g id="a_node42"><a xlink:href="wld__types_8h.html" target="_top" xlink:title=" ">
<polygon fill="white" stroke="red" points="3888.5,-56.5 3888.5,-75.5 3963.5,-75.5 3963.5,-56.5 3888.5,-56.5"/>
<text text-anchor="middle" x="3926" y="-63.5" font-family="Helvetica,sans-Serif" font-size="10.00">wld_types.h</text>
</a>
</g>
</g>
<!-- Node12&#45;&gt;Node42 -->
<g id="edge42" class="edge">
<title>Node12&#45;&gt;Node42</title>
<path fill="none" stroke="midnightblue" d="M2479.52,-169.99C2482.67,-169.18 2485.9,-168.48 2489,-168 2641.11,-144.35 3736.13,-200.48 3874,-132 3893.96,-122.09 3908.74,-100.53 3917.34,-84.95"/>
<polygon fill="midnightblue" stroke="midnightblue" points="3920.61,-86.25 3922.09,-75.76 3914.39,-83.04 3920.61,-86.25"/>
</g>
<!-- Node45 -->
<g id="node43" class="node">
<title>Node45</title>
<g id="a_node43"><a xlink:href="wld__channel__types_8h.html" target="_top" xlink:title=" ">
<polygon fill="white" stroke="red" points="4232.5,-112.5 4232.5,-131.5 4351.5,-131.5 4351.5,-112.5 4232.5,-112.5"/>
<text text-anchor="middle" x="4292" y="-119.5" font-family="Helvetica,sans-Serif" font-size="10.00">wld_channel_types.h</text>
</a>
</g>
</g>
<!-- Node12&#45;&gt;Node45 -->
<g id="edge45" class="edge">
<title>Node12&#45;&gt;Node45</title>
<path fill="none" stroke="midnightblue" d="M2479.52,-169.97C2482.67,-169.17 2485.9,-168.47 2489,-168 2866.74,-110.27 3822.16,-160.1 4221.99,-131.95"/>
<polygon fill="midnightblue" stroke="midnightblue" points="4222.48,-135.42 4232.2,-131.2 4221.97,-128.44 4222.48,-135.42"/>
</g>
<!-- Node47 -->
<g id="node44" class="node">
<title>Node47</title>
<g id="a_node44"><a xlink:href="wld__bgdfs_8h.html" target="_top" xlink:title=" ">
<polygon fill="white" stroke="black" points="3921.5,-112.5 3921.5,-131.5 3996.5,-131.5 3996.5,-112.5 3921.5,-112.5"/>
<text text-anchor="middle" x="3959" y="-119.5" font-family="Helvetica,sans-Serif" font-size="10.00">wld_bgdfs.h</text>
</a>
</g>
</g>
<!-- Node12&#45;&gt;Node47 -->
<g id="edge48" class="edge">
<title>Node12&#45;&gt;Node47</title>
<path fill="none" stroke="midnightblue" d="M2479.52,-169.98C2482.67,-169.18 2485.9,-168.48 2489,-168 2800.48,-119.66 3593.31,-162.96 3907,-132 3908.31,-131.87 3909.63,-131.73 3910.97,-131.57"/>
<polygon fill="midnightblue" stroke="midnightblue" points="3911.87,-134.98 3921.31,-130.19 3910.94,-128.05 3911.87,-134.98"/>
</g>
<!-- Node48 -->
<g id="node45" class="node">
<title>Node48</title>
<g id="a_node45"><a xlink:href="wld__rad__delayMgr_8h.html" target="_top" xlink:title=" ">
<polygon fill="white" stroke="black" points="4100,-112.5 4100,-131.5 4214,-131.5 4214,-112.5 4100,-112.5"/>
<text text-anchor="middle" x="4157" y="-119.5" font-family="Helvetica,sans-Serif" font-size="10.00">wld_rad_delayMgr.h</text>
</a>
</g>
</g>
<!-- Node12&#45;&gt;Node48 -->
<g id="edge50" class="edge">
<title>Node12&#45;&gt;Node48</title>
<path fill="none" stroke="midnightblue" d="M2477.32,-168.46C2478.22,-168.29 2479.11,-168.14 2480,-168 2831.96,-113.9 3727.02,-160.1 4082,-132 4084.52,-131.8 4087.09,-131.57 4089.7,-131.31"/>
<polygon fill="midnightblue" stroke="midnightblue" points="4090.27,-134.77 4099.83,-130.22 4089.52,-127.81 4090.27,-134.77"/>
</g>
<!-- Node49 -->
<g id="node46" class="node">
<title>Node49</title>
<g id="a_node46"><a xlink:href="wld__fsm_8h.html" target="_top" xlink:title=" ">
<polygon fill="white" stroke="black" points="4014.5,-112.5 4014.5,-131.5 4081.5,-131.5 4081.5,-112.5 4014.5,-112.5"/>
<text text-anchor="middle" x="4048" y="-119.5" font-family="Helvetica,sans-Serif" font-size="10.00">wld_fsm.h</text>
</a>
</g>
</g>
<!-- Node12&#45;&gt;Node49 -->
<g id="edge52" class="edge">
<title>Node12&#45;&gt;Node49</title>
<path fill="none" stroke="midnightblue" d="M2479.52,-169.98C2482.67,-169.18 2485.9,-168.48 2489,-168 2819.09,-117.05 3655,-170.46 4004.23,-131.96"/>
<polygon fill="midnightblue" stroke="midnightblue" points="4004.63,-135.43 4014.17,-130.82 4003.83,-128.48 4004.63,-135.43"/>
</g>
<!-- Node50 -->
<g id="node47" class="node">
<title>Node50</title>
<g id="a_node47"><a xlink:href="wld__sensing_8h.html" target="_top" xlink:title=" ">
<polygon fill="white" stroke="black" points="4370,-112.5 4370,-131.5 4456,-131.5 4456,-112.5 4370,-112.5"/>
<text text-anchor="middle" x="4413" y="-119.5" font-family="Helvetica,sans-Serif" font-size="10.00">wld_sensing.h</text>
</a>
</g>
</g>
<!-- Node12&#45;&gt;Node50 -->
<g id="edge54" class="edge">
<title>Node12&#45;&gt;Node50</title>
<path fill="none" stroke="midnightblue" d="M2477.32,-168.46C2478.22,-168.29 2479.11,-168.13 2480,-168 2891.35,-105.46 3937.81,-171.59 4352,-132 4354.51,-131.76 4357.09,-131.47 4359.69,-131.14"/>
<polygon fill="midnightblue" stroke="midnightblue" points="4360.42,-134.57 4369.83,-129.7 4359.44,-127.64 4360.42,-134.57"/>
</g>
<!-- Node51 -->
<g id="node48" class="node">
<title>Node51</title>
<g id="a_node48"><a xlink:href="wld__mld_8h.html" target="_top" xlink:title=" ">
<polygon fill="white" stroke="black" points="596.5,-112.5 596.5,-131.5 663.5,-131.5 663.5,-112.5 596.5,-112.5"/>
<text text-anchor="middle" x="630" y="-119.5" font-family="Helvetica,sans-Serif" font-size="10.00">wld_mld.h</text>
</a>
</g>
</g>
<!-- Node12&#45;&gt;Node51 -->
<g id="edge56" class="edge">
<title>Node12&#45;&gt;Node51</title>
<path fill="none" stroke="midnightblue" d="M2436.45,-170.78C2431.73,-169.65 2426.73,-168.63 2422,-168 2039.87,-116.96 1075.44,-175.03 673.67,-131.78"/>
<polygon fill="midnightblue" stroke="midnightblue" points="674.03,-128.3 663.7,-130.67 673.26,-135.25 674.03,-128.3"/>
</g>
<!-- Node42&#45;&gt;Node14 -->
<g id="edge43" class="edge">
<title>Node42&#45;&gt;Node14</title>
<path fill="none" stroke="midnightblue" d="M3888.28,-63.93C3644.51,-57.04 2294.42,-18.87 2052.97,-12.05"/>
<polygon fill="midnightblue" stroke="midnightblue" points="2052.72,-8.54 2042.63,-11.75 2052.52,-15.53 2052.72,-8.54"/>
</g>
<!-- Node42&#45;&gt;Node18 -->
<g id="edge44" class="edge">
<title>Node42&#45;&gt;Node18</title>
<path fill="none" stroke="midnightblue" d="M3963.79,-59.42C4027.15,-50.08 4155.34,-31.16 4231.41,-19.94"/>
<polygon fill="midnightblue" stroke="midnightblue" points="4231.95,-23.4 4241.33,-18.48 4230.92,-16.47 4231.95,-23.4"/>
</g>
<!-- Node45&#45;&gt;Node13 -->
<g id="edge46" class="edge">
<title>Node45&#45;&gt;Node13</title>
<path fill="none" stroke="midnightblue" d="M4310.22,-112.44C4328.9,-103.68 4358.16,-89.94 4379.62,-79.86"/>
<polygon fill="midnightblue" stroke="midnightblue" points="4381.3,-82.93 4388.86,-75.52 4378.32,-76.6 4381.3,-82.93"/>
</g>
<!-- Node45&#45;&gt;Node18 -->
<g id="edge47" class="edge">
<title>Node45&#45;&gt;Node18</title>
<path fill="none" stroke="midnightblue" d="M4292,-112.37C4292,-94.62 4292,-53.67 4292,-29.6"/>
<polygon fill="midnightblue" stroke="midnightblue" points="4295.5,-29.59 4292,-19.59 4288.5,-29.59 4295.5,-29.59"/>
</g>
<!-- Node47&#45;&gt;Node42 -->
<g id="edge49" class="edge">
<title>Node47&#45;&gt;Node42</title>
<path fill="none" stroke="midnightblue" d="M3953.55,-112.08C3948.99,-104.61 3942.33,-93.72 3936.71,-84.52"/>
<polygon fill="midnightblue" stroke="midnightblue" points="3939.55,-82.46 3931.35,-75.75 3933.58,-86.11 3939.55,-82.46"/>
</g>
<!-- Node48&#45;&gt;Node12 -->
<g id="edge51" class="edge">
<title>Node48&#45;&gt;Node12</title>
<path fill="none" stroke="midnightblue" d="M4105.6,-131.51C4103.72,-131.69 4101.84,-131.85 4100,-132 3745.02,-160.1 2849.96,-113.9 2498,-168 2495.25,-168.42 2492.4,-169.02 2489.52,-169.71"/>
<polygon fill="midnightblue" stroke="midnightblue" points="2488.55,-166.35 2479.77,-172.28 2490.33,-173.12 2488.55,-166.35"/>
</g>
<!-- Node49&#45;&gt;Node42 -->
<g id="edge53" class="edge">
<title>Node49&#45;&gt;Node42</title>
<path fill="none" stroke="midnightblue" d="M4028.67,-112.44C4008.68,-103.6 3977.26,-89.69 3954.44,-79.59"/>
<polygon fill="midnightblue" stroke="midnightblue" points="3955.8,-76.36 3945.24,-75.52 3952.97,-82.76 3955.8,-76.36"/>
</g>
<!-- Node50&#45;&gt;Node12 -->
<g id="edge55" class="edge">
<title>Node50&#45;&gt;Node12</title>
<path fill="none" stroke="midnightblue" d="M4374.43,-131.53C4372.94,-131.7 4371.46,-131.86 4370,-132 3955.81,-171.59 2909.35,-105.46 2498,-168 2495.25,-168.42 2492.39,-169.01 2489.52,-169.7"/>
<polygon fill="midnightblue" stroke="midnightblue" points="2488.55,-166.34 2479.77,-172.27 2490.33,-173.11 2488.55,-166.34"/>
</g>
<!-- Node51&#45;&gt;Node42 -->
<g id="edge57" class="edge">
<title>Node51&#45;&gt;Node42</title>
<path fill="none" stroke="midnightblue" d="M663.7,-113.31C666.83,-112.79 669.97,-112.34 673,-112 1004.97,-75.31 3500.61,-68 3878.2,-67.1"/>
<polygon fill="midnightblue" stroke="midnightblue" points="3878.25,-70.6 3888.24,-67.08 3878.24,-63.6 3878.25,-70.6"/>
</g>
</g>
</svg>
