<?xml version="1.0" encoding="UTF-8" standalone="no"?>
<!DOCTYPE svg PUBLIC "-//W3C//DTD SVG 1.1//EN"
 "http://www.w3.org/Graphics/SVG/1.1/DTD/svg11.dtd">
<!-- Generated by graphviz version 2.43.0 (0)
 -->
<!-- Title: src/wld_accesspoint.c Pages: 1 -->
<svg width="3543pt" height="319pt"
 viewBox="0.00 0.00 3542.68 319.00" xmlns="http://www.w3.org/2000/svg" xmlns:xlink="http://www.w3.org/1999/xlink">
<g id="graph0" class="graph" transform="scale(1 1) rotate(0) translate(4 315)">
<title>src/wld_accesspoint.c</title>
<polygon fill="white" stroke="transparent" points="-4,4 -4,-315 3538.68,-315 3538.68,4 -4,4"/>
<!-- Node1 -->
<g id="node1" class="node">
<title>Node1</title>
<g id="a_node1"><a xlink:title=" ">
<polygon fill="#bfbfbf" stroke="black" points="920,-291.5 920,-310.5 1042,-310.5 1042,-291.5 920,-291.5"/>
<text text-anchor="middle" x="981" y="-298.5" font-family="Helvetica,sans-Serif" font-size="10.00">src/wld_accesspoint.c</text>
</a>
</g>
</g>
<!-- Node2 -->
<g id="node2" class="node">
<title>Node2</title>
<g id="a_node2"><a xlink:title=" ">
<polygon fill="white" stroke="#bfbfbf" points="0,-235.5 0,-254.5 50,-254.5 50,-235.5 0,-235.5"/>
<text text-anchor="middle" x="25" y="-242.5" font-family="Helvetica,sans-Serif" font-size="10.00">stdio.h</text>
</a>
</g>
</g>
<!-- Node1&#45;&gt;Node2 -->
<g id="edge1" class="edge">
<title>Node1&#45;&gt;Node2</title>
<path fill="none" stroke="midnightblue" d="M919.77,-298.69C744.94,-294.68 244.71,-281.34 60.25,-254.8"/>
<polygon fill="midnightblue" stroke="midnightblue" points="60.54,-251.3 50.13,-253.28 59.5,-258.23 60.54,-251.3"/>
</g>
<!-- Node3 -->
<g id="node3" class="node">
<title>Node3</title>
<g id="a_node3"><a xlink:title=" ">
<polygon fill="white" stroke="#bfbfbf" points="68.5,-235.5 68.5,-254.5 121.5,-254.5 121.5,-235.5 68.5,-235.5"/>
<text text-anchor="middle" x="95" y="-242.5" font-family="Helvetica,sans-Serif" font-size="10.00">stdlib.h</text>
</a>
</g>
</g>
<!-- Node1&#45;&gt;Node3 -->
<g id="edge2" class="edge">
<title>Node1&#45;&gt;Node3</title>
<path fill="none" stroke="midnightblue" d="M919.72,-298.34C754.45,-293.63 301.1,-279 131.66,-254.92"/>
<polygon fill="midnightblue" stroke="midnightblue" points="132.05,-251.44 121.64,-253.43 131.02,-258.36 132.05,-251.44"/>
</g>
<!-- Node4 -->
<g id="node4" class="node">
<title>Node4</title>
<g id="a_node4"><a xlink:title=" ">
<polygon fill="white" stroke="#bfbfbf" points="139.5,-235.5 139.5,-254.5 192.5,-254.5 192.5,-235.5 139.5,-235.5"/>
<text text-anchor="middle" x="166" y="-242.5" font-family="Helvetica,sans-Serif" font-size="10.00">string.h</text>
</a>
</g>
</g>
<!-- Node1&#45;&gt;Node4 -->
<g id="edge3" class="edge">
<title>Node1&#45;&gt;Node4</title>
<path fill="none" stroke="midnightblue" d="M919.89,-300.49C789.46,-300.66 474.19,-296.48 202.69,-254.97"/>
<polygon fill="midnightblue" stroke="midnightblue" points="203.06,-251.49 192.64,-253.42 201.99,-258.41 203.06,-251.49"/>
</g>
<!-- Node5 -->
<g id="node5" class="node">
<title>Node5</title>
<g id="a_node5"><a xlink:title=" ">
<polygon fill="white" stroke="#bfbfbf" points="210.5,-235.5 210.5,-254.5 263.5,-254.5 263.5,-235.5 210.5,-235.5"/>
<text text-anchor="middle" x="237" y="-242.5" font-family="Helvetica,sans-Serif" font-size="10.00">ctype.h</text>
</a>
</g>
</g>
<!-- Node1&#45;&gt;Node5 -->
<g id="edge4" class="edge">
<title>Node1&#45;&gt;Node5</title>
<path fill="none" stroke="midnightblue" d="M919.88,-299.98C798.26,-299.1 517.35,-292.91 273.75,-255"/>
<polygon fill="midnightblue" stroke="midnightblue" points="274.07,-251.5 263.64,-253.4 272.98,-258.42 274.07,-251.5"/>
</g>
<!-- Node6 -->
<g id="node6" class="node">
<title>Node6</title>
<g id="a_node6"><a xlink:title=" ">
<polygon fill="white" stroke="#bfbfbf" points="281.5,-235.5 281.5,-254.5 382.5,-254.5 382.5,-235.5 281.5,-235.5"/>
<text text-anchor="middle" x="332" y="-242.5" font-family="Helvetica,sans-Serif" font-size="10.00">debug/sahtrace.h</text>
</a>
</g>
</g>
<!-- Node1&#45;&gt;Node6 -->
<g id="edge5" class="edge">
<title>Node1&#45;&gt;Node6</title>
<path fill="none" stroke="midnightblue" d="M919.81,-296.79C814.42,-290.95 591.65,-277.18 392.76,-255"/>
<polygon fill="midnightblue" stroke="midnightblue" points="393.03,-251.51 382.7,-253.87 392.25,-258.47 393.03,-251.51"/>
</g>
<!-- Node7 -->
<g id="node7" class="node">
<title>Node7</title>
<g id="a_node7"><a xlink:title=" ">
<polygon fill="white" stroke="#bfbfbf" points="401,-235.5 401,-254.5 457,-254.5 457,-235.5 401,-235.5"/>
<text text-anchor="middle" x="429" y="-242.5" font-family="Helvetica,sans-Serif" font-size="10.00">assert.h</text>
</a>
</g>
</g>
<!-- Node1&#45;&gt;Node7 -->
<g id="edge6" class="edge">
<title>Node1&#45;&gt;Node7</title>
<path fill="none" stroke="midnightblue" d="M919.87,-297.04C823.87,-291.85 632.06,-279.27 471,-255 469.76,-254.81 468.49,-254.61 467.22,-254.4"/>
<polygon fill="midnightblue" stroke="midnightblue" points="467.85,-250.95 457.38,-252.58 466.58,-257.84 467.85,-250.95"/>
</g>
<!-- Node8 -->
<g id="node8" class="node">
<title>Node8</title>
<g id="a_node8"><a xlink:href="wld_8h.html" target="_top" xlink:title=" ">
<polygon fill="white" stroke="red" points="1581.5,-112.5 1581.5,-131.5 1624.5,-131.5 1624.5,-112.5 1581.5,-112.5"/>
<text text-anchor="middle" x="1603" y="-119.5" font-family="Helvetica,sans-Serif" font-size="10.00">wld.h</text>
</a>
</g>
</g>
<!-- Node1&#45;&gt;Node8 -->
<g id="edge7" class="edge">
<title>Node1&#45;&gt;Node8</title>
<path fill="none" stroke="midnightblue" d="M1042.04,-300.67C1166.57,-301.05 1458.45,-296.91 1699,-255 1786.99,-239.67 1838.36,-270.42 1892,-199 1900.27,-187.98 1900.96,-178.47 1892,-168 1859.16,-129.65 1702.95,-123.73 1634.86,-122.99"/>
<polygon fill="midnightblue" stroke="midnightblue" points="1634.74,-119.49 1624.72,-122.92 1634.69,-126.49 1634.74,-119.49"/>
</g>
<!-- Node11 -->
<g id="node11" class="node">
<title>Node11</title>
<g id="a_node11"><a xlink:title=" ">
<polygon fill="white" stroke="#bfbfbf" points="765,-0.5 765,-19.5 875,-19.5 875,-0.5 765,-0.5"/>
<text text-anchor="middle" x="820" y="-7.5" font-family="Helvetica,sans-Serif" font-size="10.00">swl/swl_common.h</text>
</a>
</g>
</g>
<!-- Node1&#45;&gt;Node11 -->
<g id="edge56" class="edge">
<title>Node1&#45;&gt;Node11</title>
<path fill="none" stroke="midnightblue" d="M919.68,-300.09C818.26,-299.15 621.12,-292.39 564,-255 546.95,-243.84 481,-144.87 463,-76 460.75,-67.4 457.12,-62.67 463,-56 481.96,-34.51 657.17,-20.7 754.89,-14.61"/>
<polygon fill="midnightblue" stroke="midnightblue" points="755.2,-18.1 764.96,-13.99 754.77,-11.11 755.2,-18.1"/>
</g>
<!-- Node52 -->
<g id="node30" class="node">
<title>Node52</title>
<g id="a_node30"><a xlink:title=" ">
<polygon fill="white" stroke="#bfbfbf" points="472.5,-56.5 472.5,-75.5 573.5,-75.5 573.5,-56.5 472.5,-56.5"/>
<text text-anchor="middle" x="523" y="-63.5" font-family="Helvetica,sans-Serif" font-size="10.00">swl/swl_staCap.h</text>
</a>
</g>
</g>
<!-- Node1&#45;&gt;Node52 -->
<g id="edge62" class="edge">
<title>Node1&#45;&gt;Node52</title>
<path fill="none" stroke="midnightblue" d="M919.74,-300.8C821.8,-300.84 635.89,-295.38 586,-255 533.62,-212.61 524.51,-125.12 523.12,-86.29"/>
<polygon fill="midnightblue" stroke="midnightblue" points="526.61,-85.83 522.9,-75.91 519.62,-85.98 526.61,-85.83"/>
</g>
<!-- Node54 -->
<g id="node31" class="node">
<title>Node54</title>
<g id="a_node31"><a xlink:title=" ">
<polygon fill="white" stroke="#bfbfbf" points="591.5,-56.5 591.5,-75.5 688.5,-75.5 688.5,-56.5 591.5,-56.5"/>
<text text-anchor="middle" x="640" y="-63.5" font-family="Helvetica,sans-Serif" font-size="10.00">swl/swl_assert.h</text>
</a>
</g>
</g>
<!-- Node1&#45;&gt;Node54 -->
<g id="edge57" class="edge">
<title>Node1&#45;&gt;Node54</title>
<path fill="none" stroke="midnightblue" d="M919.61,-297.12C817.47,-291.7 621.77,-278.37 601,-255 557.3,-205.82 604.16,-120.73 627.92,-84.33"/>
<polygon fill="midnightblue" stroke="midnightblue" points="630.98,-86.05 633.66,-75.8 625.17,-82.15 630.98,-86.05"/>
</g>
<!-- Node61 -->
<g id="node32" class="node">
<title>Node61</title>
<g id="a_node32"><a xlink:href="wld__dm__trans_8h.html" target="_top" xlink:title=" ">
<polygon fill="white" stroke="red" points="881,-56.5 881,-75.5 975,-75.5 975,-56.5 881,-56.5"/>
<text text-anchor="middle" x="928" y="-63.5" font-family="Helvetica,sans-Serif" font-size="10.00">wld_dm_trans.h</text>
</a>
</g>
</g>
<!-- Node1&#45;&gt;Node61 -->
<g id="edge81" class="edge">
<title>Node1&#45;&gt;Node61</title>
<path fill="none" stroke="midnightblue" d="M919.99,-296.78C821.8,-290.97 637.63,-277.22 618,-255 535.95,-162.15 763.39,-100.93 872.87,-77.6"/>
<polygon fill="midnightblue" stroke="midnightblue" points="873.69,-81 882.76,-75.53 872.26,-74.15 873.69,-81"/>
</g>
<!-- Node80 -->
<g id="node33" class="node">
<title>Node80</title>
<g id="a_node33"><a xlink:href="wld__extMod_8h.html" target="_top" xlink:title=" ">
<polygon fill="white" stroke="black" points="777.5,-56.5 777.5,-75.5 862.5,-75.5 862.5,-56.5 777.5,-56.5"/>
<text text-anchor="middle" x="820" y="-63.5" font-family="Helvetica,sans-Serif" font-size="10.00">wld_extMod.h</text>
</a>
</g>
</g>
<!-- Node1&#45;&gt;Node80 -->
<g id="edge84" class="edge">
<title>Node1&#45;&gt;Node80</title>
<path fill="none" stroke="midnightblue" d="M934.21,-291.48C897.32,-284.01 844.96,-271.72 801,-255 797.86,-253.81 695.74,-201.87 694,-199 663.44,-148.52 744.04,-101.62 790.23,-79.81"/>
<polygon fill="midnightblue" stroke="midnightblue" points="791.89,-82.91 799.51,-75.55 788.97,-76.55 791.89,-82.91"/>
</g>
<!-- Node81 -->
<g id="node34" class="node">
<title>Node81</title>
<g id="a_node34"><a xlink:href="wld__util_8h.html" target="_top" xlink:title=" ">
<polygon fill="white" stroke="black" points="1089,-174 1089,-193 1153,-193 1153,-174 1089,-174"/>
<text text-anchor="middle" x="1121" y="-181" font-family="Helvetica,sans-Serif" font-size="10.00">wld_util.h</text>
</a>
</g>
</g>
<!-- Node1&#45;&gt;Node81 -->
<g id="edge36" class="edge">
<title>Node1&#45;&gt;Node81</title>
<path fill="none" stroke="midnightblue" d="M991.52,-291.32C1015.14,-271.84 1072.61,-224.42 1102.4,-199.84"/>
<polygon fill="midnightblue" stroke="midnightblue" points="1104.87,-202.35 1110.36,-193.28 1100.41,-196.95 1104.87,-202.35"/>
</g>
<!-- Node82 -->
<g id="node35" class="node">
<title>Node82</title>
<g id="a_node35"><a xlink:href="wld__accesspoint_8h.html" target="_top" xlink:title=" ">
<polygon fill="white" stroke="black" points="847,-235.5 847,-254.5 953,-254.5 953,-235.5 847,-235.5"/>
<text text-anchor="middle" x="900" y="-242.5" font-family="Helvetica,sans-Serif" font-size="10.00">wld_accesspoint.h</text>
</a>
</g>
</g>
<!-- Node1&#45;&gt;Node82 -->
<g id="edge38" class="edge">
<title>Node1&#45;&gt;Node82</title>
<path fill="none" stroke="midnightblue" d="M967.99,-291.32C955.47,-282.98 936.32,-270.21 921.53,-260.35"/>
<polygon fill="midnightblue" stroke="midnightblue" points="923.24,-257.29 912.98,-254.65 919.36,-263.11 923.24,-257.29"/>
</g>
<!-- Node83 -->
<g id="node36" class="node">
<title>Node83</title>
<g id="a_node36"><a xlink:href="wld__wps_8h.html" target="_top" xlink:title=" ">
<polygon fill="white" stroke="black" points="703,-174 703,-193 771,-193 771,-174 703,-174"/>
<text text-anchor="middle" x="737" y="-181" font-family="Helvetica,sans-Serif" font-size="10.00">wld_wps.h</text>
</a>
</g>
</g>
<!-- Node1&#45;&gt;Node83 -->
<g id="edge49" class="edge">
<title>Node1&#45;&gt;Node83</title>
<path fill="none" stroke="midnightblue" d="M943.06,-291.43C913.53,-283.97 871.98,-271.71 838,-255 806.72,-239.61 774.32,-215.23 754.91,-199.55"/>
<polygon fill="midnightblue" stroke="midnightblue" points="756.91,-196.66 746.96,-193.02 752.47,-202.07 756.91,-196.66"/>
</g>
<!-- Node84 -->
<g id="node37" class="node">
<title>Node84</title>
<g id="a_node37"><a xlink:href="wld__ssid_8h.html" target="_top" xlink:title=" ">
<polygon fill="white" stroke="black" points="1677,-174 1677,-193 1745,-193 1745,-174 1677,-174"/>
<text text-anchor="middle" x="1711" y="-181" font-family="Helvetica,sans-Serif" font-size="10.00">wld_ssid.h</text>
</a>
</g>
</g>
<!-- Node1&#45;&gt;Node84 -->
<g id="edge44" class="edge">
<title>Node1&#45;&gt;Node84</title>
<path fill="none" stroke="midnightblue" d="M1042.09,-295.07C1104.62,-289.08 1204.24,-276.96 1288,-255 1311.95,-248.72 1315.94,-240.84 1340,-235 1482.51,-200.39 1524.79,-230.61 1668,-199 1671.49,-198.23 1675.09,-197.28 1678.66,-196.23"/>
<polygon fill="midnightblue" stroke="midnightblue" points="1680.03,-199.47 1688.5,-193.11 1677.91,-192.8 1680.03,-199.47"/>
</g>
<!-- Node85 -->
<g id="node38" class="node">
<title>Node85</title>
<g id="a_node38"><a xlink:href="wld__radio_8h.html" target="_top" xlink:title=" ">
<polygon fill="white" stroke="red" points="865.5,-174 865.5,-193 938.5,-193 938.5,-174 865.5,-174"/>
<text text-anchor="middle" x="902" y="-181" font-family="Helvetica,sans-Serif" font-size="10.00">wld_radio.h</text>
</a>
</g>
</g>
<!-- Node1&#45;&gt;Node85 -->
<g id="edge46" class="edge">
<title>Node1&#45;&gt;Node85</title>
<path fill="none" stroke="midnightblue" d="M980.08,-291.34C978.36,-278.22 973.69,-252.92 962,-235 952.55,-220.5 937.68,-207.95 925.12,-198.98"/>
<polygon fill="midnightblue" stroke="midnightblue" points="926.72,-195.84 916.48,-193.11 922.78,-201.63 926.72,-195.84"/>
</g>
<!-- Node92 -->
<g id="node39" class="node">
<title>Node92</title>
<g id="a_node39"><a xlink:href="wld__assocdev_8h.html" target="_top" xlink:title=" ">
<polygon fill="white" stroke="black" points="1122.5,-235.5 1122.5,-254.5 1215.5,-254.5 1215.5,-235.5 1122.5,-235.5"/>
<text text-anchor="middle" x="1169" y="-242.5" font-family="Helvetica,sans-Serif" font-size="10.00">wld_assocdev.h</text>
</a>
</g>
</g>
<!-- Node1&#45;&gt;Node92 -->
<g id="edge50" class="edge">
<title>Node1&#45;&gt;Node92</title>
<path fill="none" stroke="midnightblue" d="M1010.79,-291.44C1042.83,-282.24 1093.93,-267.56 1129.35,-257.39"/>
<polygon fill="midnightblue" stroke="midnightblue" points="1130.71,-260.64 1139.35,-254.52 1128.77,-253.91 1130.71,-260.64"/>
</g>
<!-- Node93 -->
<g id="node40" class="node">
<title>Node93</title>
<g id="a_node40"><a xlink:title=" ">
<polygon fill="white" stroke="#bfbfbf" points="1247.5,-174 1247.5,-193 1332.5,-193 1332.5,-174 1247.5,-174"/>
<text text-anchor="middle" x="1290" y="-181" font-family="Helvetica,sans-Serif" font-size="10.00">swl/swl_hex.h</text>
</a>
</g>
</g>
<!-- Node1&#45;&gt;Node93 -->
<g id="edge60" class="edge">
<title>Node1&#45;&gt;Node93</title>
<path fill="none" stroke="midnightblue" d="M1042.24,-299.33C1093.89,-296.37 1168.24,-286.32 1225,-255 1248.15,-242.23 1267.6,-218.17 1279.02,-201.74"/>
<polygon fill="midnightblue" stroke="midnightblue" points="1282.15,-203.36 1284.79,-193.09 1276.33,-199.47 1282.15,-203.36"/>
</g>
<!-- Node69 -->
<g id="node41" class="node">
<title>Node69</title>
<g id="a_node41"><a xlink:title=" ">
<polygon fill="white" stroke="#bfbfbf" points="957,-168.5 957,-198.5 1071,-198.5 1071,-168.5 957,-168.5"/>
<text text-anchor="start" x="965" y="-186.5" font-family="Helvetica,sans-Serif" font-size="10.00">swl/swl_ieee802_1x</text>
<text text-anchor="middle" x="1014" y="-175.5" font-family="Helvetica,sans-Serif" font-size="10.00">_defs.h</text>
</a>
</g>
</g>
<!-- Node1&#45;&gt;Node69 -->
<g id="edge59" class="edge">
<title>Node1&#45;&gt;Node69</title>
<path fill="none" stroke="midnightblue" d="M983.78,-291.4C986.68,-282.37 991.31,-267.73 995,-255 999.46,-239.63 1004.14,-222.27 1007.74,-208.63"/>
<polygon fill="midnightblue" stroke="midnightblue" points="1011.22,-209.15 1010.37,-198.59 1004.45,-207.38 1011.22,-209.15"/>
</g>
<!-- Node94 -->
<g id="node42" class="node">
<title>Node94</title>
<g id="a_node42"><a xlink:title=" ">
<polygon fill="white" stroke="#bfbfbf" points="1495.5,-174 1495.5,-193 1658.5,-193 1658.5,-174 1495.5,-174"/>
<text text-anchor="middle" x="1577" y="-181" font-family="Helvetica,sans-Serif" font-size="10.00">swl/swl_genericFrameParser.h</text>
</a>
</g>
</g>
<!-- Node1&#45;&gt;Node94 -->
<g id="edge61" class="edge">
<title>Node1&#45;&gt;Node94</title>
<path fill="none" stroke="midnightblue" d="M1042.34,-297.35C1152.19,-292.08 1378.04,-278.68 1453,-255 1473.88,-248.4 1525.09,-217.27 1554.76,-198.66"/>
<polygon fill="midnightblue" stroke="midnightblue" points="1556.98,-201.39 1563.57,-193.1 1553.25,-195.47 1556.98,-201.39"/>
</g>
<!-- Node95 -->
<g id="node43" class="node">
<title>Node95</title>
<g id="a_node43"><a xlink:title=" ">
<polygon fill="white" stroke="#bfbfbf" points="1348.5,-235.5 1348.5,-254.5 1443.5,-254.5 1443.5,-235.5 1348.5,-235.5"/>
<text text-anchor="middle" x="1396" y="-242.5" font-family="Helvetica,sans-Serif" font-size="10.00">swl/swl_string.h</text>
</a>
</g>
</g>
<!-- Node1&#45;&gt;Node95 -->
<g id="edge58" class="edge">
<title>Node1&#45;&gt;Node95</title>
<path fill="none" stroke="midnightblue" d="M1042.26,-292.52C1112.7,-283.84 1231.77,-268.93 1334,-255 1335.3,-254.82 1336.62,-254.64 1337.95,-254.46"/>
<polygon fill="midnightblue" stroke="midnightblue" points="1338.87,-257.86 1348.28,-253.01 1337.9,-250.93 1338.87,-257.86"/>
</g>
<!-- Node96 -->
<g id="node44" class="node">
<title>Node96</title>
<g id="a_node44"><a xlink:href="wld__ap__rssiMonitor_8h.html" target="_top" xlink:title=" ">
<polygon fill="white" stroke="black" points="1763.5,-174 1763.5,-193 1882.5,-193 1882.5,-174 1763.5,-174"/>
<text text-anchor="middle" x="1823" y="-181" font-family="Helvetica,sans-Serif" font-size="10.00">wld_ap_rssiMonitor.h</text>
</a>
</g>
</g>
<!-- Node1&#45;&gt;Node96 -->
<g id="edge63" class="edge">
<title>Node1&#45;&gt;Node96</title>
<path fill="none" stroke="midnightblue" d="M1042.03,-297.28C1157.72,-291.68 1404.69,-277.48 1487,-255 1506.94,-249.55 1509.26,-241.14 1529,-235 1625.7,-204.92 1654.42,-217.42 1754,-199 1760.55,-197.79 1767.43,-196.44 1774.21,-195.06"/>
<polygon fill="midnightblue" stroke="midnightblue" points="1774.93,-198.48 1784.02,-193.04 1773.52,-191.63 1774.93,-198.48"/>
</g>
<!-- Node97 -->
<g id="node45" class="node">
<title>Node97</title>
<g id="a_node45"><a xlink:href="wld__eventing_8h.html" target="_top" xlink:title=" ">
<polygon fill="white" stroke="black" points="3056.5,-112.5 3056.5,-131.5 3147.5,-131.5 3147.5,-112.5 3056.5,-112.5"/>
<text text-anchor="middle" x="3102" y="-119.5" font-family="Helvetica,sans-Serif" font-size="10.00">wld_eventing.h</text>
</a>
</g>
</g>
<!-- Node1&#45;&gt;Node97 -->
<g id="edge65" class="edge">
<title>Node1&#45;&gt;Node97</title>
<path fill="none" stroke="midnightblue" d="M1042.27,-298.93C1201.36,-295.79 1640.54,-284.89 2005,-255 2405.58,-222.15 2885.29,-154.65 3046.27,-131.22"/>
<polygon fill="midnightblue" stroke="midnightblue" points="3047.02,-134.65 3056.41,-129.75 3046.01,-127.72 3047.02,-134.65"/>
</g>
<!-- Node98 -->
<g id="node46" class="node">
<title>Node98</title>
<g id="a_node46"><a xlink:href="wld__autoCommitMgr_8h.html" target="_top" xlink:title=" ">
<polygon fill="white" stroke="black" points="1538,-235.5 1538,-254.5 1690,-254.5 1690,-235.5 1538,-235.5"/>
<text text-anchor="middle" x="1614" y="-242.5" font-family="Helvetica,sans-Serif" font-size="10.00">Utils/wld_autoCommitMgr.h</text>
</a>
</g>
</g>
<!-- Node1&#45;&gt;Node98 -->
<g id="edge73" class="edge">
<title>Node1&#45;&gt;Node98</title>
<path fill="none" stroke="midnightblue" d="M1042.1,-295.28C1142.65,-287.43 1349.26,-270.98 1524,-255 1525.28,-254.88 1526.56,-254.77 1527.85,-254.65"/>
<polygon fill="midnightblue" stroke="midnightblue" points="1528.27,-258.12 1537.9,-253.7 1527.62,-251.15 1528.27,-258.12"/>
</g>
<!-- Node99 -->
<g id="node47" class="node">
<title>Node99</title>
<g id="a_node47"><a xlink:href="wld__autoNeighAdd_8h.html" target="_top" xlink:title=" ">
<polygon fill="white" stroke="black" points="1939.5,-174 1939.5,-193 2082.5,-193 2082.5,-174 1939.5,-174"/>
<text text-anchor="middle" x="2011" y="-181" font-family="Helvetica,sans-Serif" font-size="10.00">Utils/wld_autoNeighAdd.h</text>
</a>
</g>
</g>
<!-- Node1&#45;&gt;Node99 -->
<g id="edge74" class="edge">
<title>Node1&#45;&gt;Node99</title>
<path fill="none" stroke="midnightblue" d="M1042.27,-299.31C1238.46,-296.78 1843.07,-286.51 1925,-255 1954.73,-243.57 1981.86,-217.58 1997.4,-200.56"/>
<polygon fill="midnightblue" stroke="midnightblue" points="2000.05,-202.83 2004.05,-193.02 1994.81,-198.2 2000.05,-202.83"/>
</g>
<!-- Node100 -->
<g id="node48" class="node">
<title>Node100</title>
<g id="a_node48"><a xlink:href="wld__ap__nl80211_8h.html" target="_top" xlink:title=" ">
<polygon fill="white" stroke="red" points="2101,-174 2101,-193 2205,-193 2205,-174 2101,-174"/>
<text text-anchor="middle" x="2153" y="-181" font-family="Helvetica,sans-Serif" font-size="10.00">wld_ap_nl80211.h</text>
</a>
</g>
</g>
<!-- Node1&#45;&gt;Node100 -->
<g id="edge76" class="edge">
<title>Node1&#45;&gt;Node100</title>
<path fill="none" stroke="midnightblue" d="M1042.22,-299.55C1227.43,-297.81 1779.89,-289.76 1956,-255 2018.65,-242.63 2088.15,-214.01 2125.55,-197.28"/>
<polygon fill="midnightblue" stroke="midnightblue" points="2127.11,-200.42 2134.78,-193.11 2124.23,-194.04 2127.11,-200.42"/>
</g>
<!-- Node112 -->
<g id="node49" class="node">
<title>Node112</title>
<g id="a_node49"><a xlink:href="wld__hostapd__ap__api_8h.html" target="_top" xlink:title=" ">
<polygon fill="white" stroke="black" points="627.5,-235.5 627.5,-254.5 752.5,-254.5 752.5,-235.5 627.5,-235.5"/>
<text text-anchor="middle" x="690" y="-242.5" font-family="Helvetica,sans-Serif" font-size="10.00">wld_hostapd_ap_api.h</text>
</a>
</g>
</g>
<!-- Node1&#45;&gt;Node112 -->
<g id="edge78" class="edge">
<title>Node1&#45;&gt;Node112</title>
<path fill="none" stroke="midnightblue" d="M934.89,-291.44C883.59,-281.92 800.73,-266.55 745.81,-256.36"/>
<polygon fill="midnightblue" stroke="midnightblue" points="746.36,-252.9 735.89,-254.52 745.09,-259.78 746.36,-252.9"/>
</g>
<!-- Node113 -->
<g id="node50" class="node">
<title>Node113</title>
<g id="a_node50"><a xlink:href="wld__persist_8h.html" target="_top" xlink:title=" ">
<polygon fill="white" stroke="black" points="1351,-174 1351,-193 1477,-193 1477,-174 1351,-174"/>
<text text-anchor="middle" x="1414" y="-181" font-family="Helvetica,sans-Serif" font-size="10.00">Features/wld_persist.h</text>
</a>
</g>
</g>
<!-- Node1&#45;&gt;Node113 -->
<g id="edge82" class="edge">
<title>Node1&#45;&gt;Node113</title>
<path fill="none" stroke="midnightblue" d="M1042,-294.12C1097.36,-287.78 1180.8,-275.69 1251,-255 1277.65,-247.14 1347.56,-215.41 1386.62,-197.31"/>
<polygon fill="midnightblue" stroke="midnightblue" points="1388.24,-200.41 1395.84,-193.02 1385.29,-194.06 1388.24,-200.41"/>
</g>
<!-- Node9 -->
<g id="node9" class="node">
<title>Node9</title>
<g id="a_node9"><a xlink:title=" ">
<polygon fill="white" stroke="#bfbfbf" points="1455,-56.5 1455,-75.5 1517,-75.5 1517,-56.5 1455,-56.5"/>
<text text-anchor="middle" x="1486" y="-63.5" font-family="Helvetica,sans-Serif" font-size="10.00">stdbool.h</text>
</a>
</g>
</g>
<!-- Node8&#45;&gt;Node9 -->
<g id="edge8" class="edge">
<title>Node8&#45;&gt;Node9</title>
<path fill="none" stroke="midnightblue" d="M1584.46,-112.44C1565.38,-103.64 1535.43,-89.81 1513.56,-79.72"/>
<polygon fill="midnightblue" stroke="midnightblue" points="1515,-76.53 1504.45,-75.52 1512.07,-82.88 1515,-76.53"/>
</g>
<!-- Node10 -->
<g id="node10" class="node">
<title>Node10</title>
<g id="a_node10"><a xlink:title=" ">
<polygon fill="white" stroke="#bfbfbf" points="706.5,-56.5 706.5,-75.5 759.5,-75.5 759.5,-56.5 706.5,-56.5"/>
<text text-anchor="middle" x="733" y="-63.5" font-family="Helvetica,sans-Serif" font-size="10.00">stdint.h</text>
</a>
</g>
</g>
<!-- Node8&#45;&gt;Node10 -->
<g id="edge9" class="edge">
<title>Node8&#45;&gt;Node10</title>
<path fill="none" stroke="midnightblue" d="M1581.26,-121.35C1486.15,-122.54 1097.2,-124.16 769.78,-75.78"/>
<polygon fill="midnightblue" stroke="midnightblue" points="770.03,-72.28 759.62,-74.26 768.99,-79.2 770.03,-72.28"/>
</g>
<!-- Node8&#45;&gt;Node11 -->
<g id="edge10" class="edge">
<title>Node8&#45;&gt;Node11</title>
<path fill="none" stroke="midnightblue" d="M1581.37,-121.17C1506.15,-121.34 1249.33,-118.58 1043,-76 1015.88,-70.4 1010.47,-64.11 984,-56 943.32,-43.54 896.48,-30.85 863.3,-22.13"/>
<polygon fill="midnightblue" stroke="midnightblue" points="864.02,-18.71 853.46,-19.56 862.25,-25.48 864.02,-18.71"/>
</g>
<!-- Node12 -->
<g id="node12" class="node">
<title>Node12</title>
<g id="a_node12"><a xlink:title=" ">
<polygon fill="white" stroke="#bfbfbf" points="1535,-56.5 1535,-75.5 1671,-75.5 1671,-56.5 1535,-56.5"/>
<text text-anchor="middle" x="1603" y="-63.5" font-family="Helvetica,sans-Serif" font-size="10.00">swla/swla_commonLib.h</text>
</a>
</g>
</g>
<!-- Node8&#45;&gt;Node12 -->
<g id="edge11" class="edge">
<title>Node8&#45;&gt;Node12</title>
<path fill="none" stroke="midnightblue" d="M1603,-112.08C1603,-105.01 1603,-94.86 1603,-85.99"/>
<polygon fill="midnightblue" stroke="midnightblue" points="1606.5,-85.75 1603,-75.75 1599.5,-85.75 1606.5,-85.75"/>
</g>
<!-- Node13 -->
<g id="node13" class="node">
<title>Node13</title>
<g id="a_node13"><a xlink:title=" ">
<polygon fill="white" stroke="#bfbfbf" points="1689,-56.5 1689,-75.5 1777,-75.5 1777,-56.5 1689,-56.5"/>
<text text-anchor="middle" x="1733" y="-63.5" font-family="Helvetica,sans-Serif" font-size="10.00">swl/swl_uuid.h</text>
</a>
</g>
</g>
<!-- Node8&#45;&gt;Node13 -->
<g id="edge12" class="edge">
<title>Node8&#45;&gt;Node13</title>
<path fill="none" stroke="midnightblue" d="M1623.6,-112.44C1644.99,-103.56 1678.68,-89.56 1703.02,-79.45"/>
<polygon fill="midnightblue" stroke="midnightblue" points="1704.61,-82.58 1712.5,-75.52 1701.92,-76.12 1704.61,-82.58"/>
</g>
<!-- Node14 -->
<g id="node14" class="node">
<title>Node14</title>
<g id="a_node14"><a xlink:title=" ">
<polygon fill="white" stroke="#bfbfbf" points="1795,-56.5 1795,-75.5 1947,-75.5 1947,-56.5 1795,-56.5"/>
<text text-anchor="middle" x="1871" y="-63.5" font-family="Helvetica,sans-Serif" font-size="10.00">swla/swla_radioStandards.h</text>
</a>
</g>
</g>
<!-- Node8&#45;&gt;Node14 -->
<g id="edge13" class="edge">
<title>Node8&#45;&gt;Node14</title>
<path fill="none" stroke="midnightblue" d="M1624.93,-116.58C1667,-108.1 1760.08,-89.35 1818.93,-77.49"/>
<polygon fill="midnightblue" stroke="midnightblue" points="1819.67,-80.91 1828.78,-75.51 1818.29,-74.05 1819.67,-80.91"/>
</g>
<!-- Node15 -->
<g id="node15" class="node">
<title>Node15</title>
<g id="a_node15"><a xlink:title=" ">
<polygon fill="white" stroke="#bfbfbf" points="1965.5,-56.5 1965.5,-75.5 2066.5,-75.5 2066.5,-56.5 1965.5,-56.5"/>
<text text-anchor="middle" x="2016" y="-63.5" font-family="Helvetica,sans-Serif" font-size="10.00">swla/swla_time.h</text>
</a>
</g>
</g>
<!-- Node8&#45;&gt;Node15 -->
<g id="edge14" class="edge">
<title>Node8&#45;&gt;Node15</title>
<path fill="none" stroke="midnightblue" d="M1624.51,-118.43C1678.25,-111.96 1822.95,-94.33 1954.98,-76.11"/>
<polygon fill="midnightblue" stroke="midnightblue" points="1955.85,-79.53 1965.27,-74.69 1954.89,-72.59 1955.85,-79.53"/>
</g>
<!-- Node16 -->
<g id="node16" class="node">
<title>Node16</title>
<g id="a_node16"><a xlink:title=" ">
<polygon fill="white" stroke="#bfbfbf" points="2084.5,-56.5 2084.5,-75.5 2213.5,-75.5 2213.5,-56.5 2084.5,-56.5"/>
<text text-anchor="middle" x="2149" y="-63.5" font-family="Helvetica,sans-Serif" font-size="10.00">swla/swla_time_spec.h</text>
</a>
</g>
</g>
<!-- Node8&#45;&gt;Node16 -->
<g id="edge15" class="edge">
<title>Node8&#45;&gt;Node16</title>
<path fill="none" stroke="midnightblue" d="M1624.71,-119.15C1690.62,-113.49 1894.4,-95.66 2073.97,-76.2"/>
<polygon fill="midnightblue" stroke="midnightblue" points="2074.57,-79.65 2084.13,-75.09 2073.81,-72.7 2074.57,-79.65"/>
</g>
<!-- Node17 -->
<g id="node17" class="node">
<title>Node17</title>
<g id="a_node17"><a xlink:title=" ">
<polygon fill="white" stroke="#bfbfbf" points="2232,-56.5 2232,-75.5 2326,-75.5 2326,-56.5 2232,-56.5"/>
<text text-anchor="middle" x="2279" y="-63.5" font-family="Helvetica,sans-Serif" font-size="10.00">swla/swla_oui.h</text>
</a>
</g>
</g>
<!-- Node8&#45;&gt;Node17 -->
<g id="edge16" class="edge">
<title>Node8&#45;&gt;Node17</title>
<path fill="none" stroke="midnightblue" d="M1624.75,-120.11C1703.59,-116.73 1981.82,-103.54 2222.02,-76.01"/>
<polygon fill="midnightblue" stroke="midnightblue" points="2222.46,-79.49 2231.99,-74.86 2221.65,-72.53 2222.46,-79.49"/>
</g>
<!-- Node18 -->
<g id="node18" class="node">
<title>Node18</title>
<g id="a_node18"><a xlink:title=" ">
<polygon fill="white" stroke="#bfbfbf" points="2344,-56.5 2344,-75.5 2472,-75.5 2472,-56.5 2344,-56.5"/>
<text text-anchor="middle" x="2408" y="-63.5" font-family="Helvetica,sans-Serif" font-size="10.00">swla/swla_delayExec.h</text>
</a>
</g>
</g>
<!-- Node8&#45;&gt;Node18 -->
<g id="edge17" class="edge">
<title>Node8&#45;&gt;Node18</title>
<path fill="none" stroke="midnightblue" d="M1624.59,-120.16C1711.82,-116.65 2046.83,-102.2 2333.74,-76.06"/>
<polygon fill="midnightblue" stroke="midnightblue" points="2334.29,-79.52 2343.93,-75.12 2333.65,-72.55 2334.29,-79.52"/>
</g>
<!-- Node19 -->
<g id="node19" class="node">
<title>Node19</title>
<g id="a_node19"><a xlink:title=" ">
<polygon fill="white" stroke="#bfbfbf" points="2490.5,-56.5 2490.5,-75.5 2609.5,-75.5 2609.5,-56.5 2490.5,-56.5"/>
<text text-anchor="middle" x="2550" y="-63.5" font-family="Helvetica,sans-Serif" font-size="10.00">swla/swla_function.h</text>
</a>
</g>
</g>
<!-- Node8&#45;&gt;Node19 -->
<g id="edge18" class="edge">
<title>Node8&#45;&gt;Node19</title>
<path fill="none" stroke="midnightblue" d="M1624.77,-120.51C1722.72,-118.2 2132.6,-107.1 2480.19,-76"/>
<polygon fill="midnightblue" stroke="midnightblue" points="2480.55,-79.48 2490.19,-75.09 2479.92,-72.51 2480.55,-79.48"/>
</g>
<!-- Node20 -->
<g id="node20" class="node">
<title>Node20</title>
<g id="a_node20"><a xlink:title=" ">
<polygon fill="white" stroke="#bfbfbf" points="1069.5,-56.5 1069.5,-75.5 1210.5,-75.5 1210.5,-56.5 1069.5,-56.5"/>
<text text-anchor="middle" x="1140" y="-63.5" font-family="Helvetica,sans-Serif" font-size="10.00">swl/swl_usp_cmdStatus.h</text>
</a>
</g>
</g>
<!-- Node8&#45;&gt;Node20 -->
<g id="edge19" class="edge">
<title>Node8&#45;&gt;Node20</title>
<path fill="none" stroke="midnightblue" d="M1581.29,-118.47C1517.75,-111.06 1329.79,-89.14 1220.76,-76.42"/>
<polygon fill="midnightblue" stroke="midnightblue" points="1221.12,-72.94 1210.78,-75.26 1220.31,-79.89 1221.12,-72.94"/>
</g>
<!-- Node21 -->
<g id="node21" class="node">
<title>Node21</title>
<g id="a_node21"><a xlink:title=" ">
<polygon fill="white" stroke="#bfbfbf" points="1229,-56.5 1229,-75.5 1315,-75.5 1315,-56.5 1229,-56.5"/>
<text text-anchor="middle" x="1272" y="-63.5" font-family="Helvetica,sans-Serif" font-size="10.00">swl/swl_wps.h</text>
</a>
</g>
</g>
<!-- Node8&#45;&gt;Node21 -->
<g id="edge20" class="edge">
<title>Node8&#45;&gt;Node21</title>
<path fill="none" stroke="midnightblue" d="M1581.28,-117.58C1535.83,-110.42 1427.13,-93.18 1325.27,-76.2"/>
<polygon fill="midnightblue" stroke="midnightblue" points="1325.56,-72.7 1315.12,-74.5 1324.41,-79.6 1325.56,-72.7"/>
</g>
<!-- Node22 -->
<g id="node22" class="node">
<title>Node22</title>
<g id="a_node22"><a xlink:title=" ">
<polygon fill="white" stroke="#bfbfbf" points="1333,-56.5 1333,-75.5 1437,-75.5 1437,-56.5 1333,-56.5"/>
<text text-anchor="middle" x="1385" y="-63.5" font-family="Helvetica,sans-Serif" font-size="10.00">swl/swl_security.h</text>
</a>
</g>
</g>
<!-- Node8&#45;&gt;Node22 -->
<g id="edge21" class="edge">
<title>Node8&#45;&gt;Node22</title>
<path fill="none" stroke="midnightblue" d="M1581.3,-115.62C1545.98,-106.88 1475.38,-89.39 1429.17,-77.94"/>
<polygon fill="midnightblue" stroke="midnightblue" points="1429.97,-74.53 1419.42,-75.53 1428.29,-81.33 1429.97,-74.53"/>
</g>
<!-- Node23 -->
<g id="node23" class="node">
<title>Node23</title>
<g id="a_node23"><a xlink:title=" ">
<polygon fill="white" stroke="#bfbfbf" points="999.5,-0.5 999.5,-19.5 1082.5,-19.5 1082.5,-0.5 999.5,-0.5"/>
<text text-anchor="middle" x="1041" y="-7.5" font-family="Helvetica,sans-Serif" font-size="10.00">amxc/amxc.h</text>
</a>
</g>
</g>
<!-- Node8&#45;&gt;Node23 -->
<g id="edge22" class="edge">
<title>Node8&#45;&gt;Node23</title>
<path fill="none" stroke="midnightblue" d="M1581.32,-120.61C1485.41,-118.72 1102.15,-109.11 1061,-76 1047.37,-65.03 1042.82,-44.97 1041.4,-30.03"/>
<polygon fill="midnightblue" stroke="midnightblue" points="1044.88,-29.62 1040.83,-19.83 1037.89,-30.01 1044.88,-29.62"/>
</g>
<!-- Node24 -->
<g id="node24" class="node">
<title>Node24</title>
<g id="a_node24"><a xlink:title=" ">
<polygon fill="white" stroke="#bfbfbf" points="3435,-56.5 3435,-75.5 3519,-75.5 3519,-56.5 3435,-56.5"/>
<text text-anchor="middle" x="3477" y="-63.5" font-family="Helvetica,sans-Serif" font-size="10.00">amxp/amxp.h</text>
</a>
</g>
</g>
<!-- Node8&#45;&gt;Node24 -->
<g id="edge23" class="edge">
<title>Node8&#45;&gt;Node24</title>
<path fill="none" stroke="midnightblue" d="M1624.61,-120.91C1802.67,-120.14 3030.86,-113.51 3424.77,-75.93"/>
<polygon fill="midnightblue" stroke="midnightblue" points="3425.16,-79.41 3434.77,-74.96 3424.47,-72.45 3425.16,-79.41"/>
</g>
<!-- Node25 -->
<g id="node25" class="node">
<title>Node25</title>
<g id="a_node25"><a xlink:title=" ">
<polygon fill="white" stroke="#bfbfbf" points="2628,-56.5 2628,-75.5 2768,-75.5 2768,-56.5 2628,-56.5"/>
<text text-anchor="middle" x="2698" y="-63.5" font-family="Helvetica,sans-Serif" font-size="10.00">amxd/amxd_parameter.h</text>
</a>
</g>
</g>
<!-- Node8&#45;&gt;Node25 -->
<g id="edge24" class="edge">
<title>Node8&#45;&gt;Node25</title>
<path fill="none" stroke="midnightblue" d="M1624.84,-120.59C1731.97,-118.48 2212.7,-107.65 2617.66,-76.05"/>
<polygon fill="midnightblue" stroke="midnightblue" points="2618.12,-79.52 2627.81,-75.25 2617.57,-72.55 2618.12,-79.52"/>
</g>
<!-- Node26 -->
<g id="node26" class="node">
<title>Node26</title>
<g id="a_node26"><a xlink:title=" ">
<polygon fill="white" stroke="#bfbfbf" points="2786.5,-56.5 2786.5,-75.5 2905.5,-75.5 2905.5,-56.5 2786.5,-56.5"/>
<text text-anchor="middle" x="2846" y="-63.5" font-family="Helvetica,sans-Serif" font-size="10.00">amxd/amxd_action.h</text>
</a>
</g>
</g>
<!-- Node8&#45;&gt;Node26 -->
<g id="edge25" class="edge">
<title>Node8&#45;&gt;Node26</title>
<path fill="none" stroke="midnightblue" d="M1624.65,-120.91C1741.07,-120.26 2304.52,-115.18 2776.12,-75.98"/>
<polygon fill="midnightblue" stroke="midnightblue" points="2776.52,-79.46 2786.2,-75.14 2775.94,-72.49 2776.52,-79.46"/>
</g>
<!-- Node27 -->
<g id="node27" class="node">
<title>Node27</title>
<g id="a_node27"><a xlink:title=" ">
<polygon fill="white" stroke="#bfbfbf" points="2923.5,-56.5 2923.5,-75.5 3098.5,-75.5 3098.5,-56.5 2923.5,-56.5"/>
<text text-anchor="middle" x="3011" y="-63.5" font-family="Helvetica,sans-Serif" font-size="10.00">amxd/amxd_object_parameter.h</text>
</a>
</g>
</g>
<!-- Node8&#45;&gt;Node27 -->
<g id="edge26" class="edge">
<title>Node8&#45;&gt;Node27</title>
<path fill="none" stroke="midnightblue" d="M1624.66,-120.74C1748.91,-119.13 2383.74,-109.59 2913.25,-76.07"/>
<polygon fill="midnightblue" stroke="midnightblue" points="2913.63,-79.56 2923.38,-75.43 2913.18,-72.57 2913.63,-79.56"/>
</g>
<!-- Node28 -->
<g id="node28" class="node">
<title>Node28</title>
<g id="a_node28"><a xlink:title=" ">
<polygon fill="white" stroke="#bfbfbf" points="3117,-56.5 3117,-75.5 3269,-75.5 3269,-56.5 3117,-56.5"/>
<text text-anchor="middle" x="3193" y="-63.5" font-family="Helvetica,sans-Serif" font-size="10.00">amxd/amxd_object_event.h</text>
</a>
</g>
</g>
<!-- Node8&#45;&gt;Node28 -->
<g id="edge27" class="edge">
<title>Node8&#45;&gt;Node28</title>
<path fill="none" stroke="midnightblue" d="M1624.68,-120.97C1759.35,-120.64 2495.26,-117.02 3106.23,-76.07"/>
<polygon fill="midnightblue" stroke="midnightblue" points="3106.83,-79.53 3116.57,-75.37 3106.36,-72.55 3106.83,-79.53"/>
</g>
<!-- Node29 -->
<g id="node29" class="node">
<title>Node29</title>
<g id="a_node29"><a xlink:title=" ">
<polygon fill="white" stroke="#bfbfbf" points="3287.5,-56.5 3287.5,-75.5 3416.5,-75.5 3416.5,-56.5 3287.5,-56.5"/>
<text text-anchor="middle" x="3352" y="-63.5" font-family="Helvetica,sans-Serif" font-size="10.00">amxd/amxd_function.h</text>
</a>
</g>
</g>
<!-- Node8&#45;&gt;Node29 -->
<g id="edge28" class="edge">
<title>Node8&#45;&gt;Node29</title>
<path fill="none" stroke="midnightblue" d="M1624.76,-121.19C1768.29,-122.27 2593.93,-126.04 3277.41,-75.95"/>
<polygon fill="midnightblue" stroke="midnightblue" points="3277.75,-79.44 3287.46,-75.21 3277.23,-72.46 3277.75,-79.44"/>
</g>
<!-- Node8&#45;&gt;Node52 -->
<g id="edge29" class="edge">
<title>Node8&#45;&gt;Node52</title>
<path fill="none" stroke="midnightblue" d="M1581.38,-120.91C1474.32,-120.27 990.09,-115.29 583.99,-76.1"/>
<polygon fill="midnightblue" stroke="midnightblue" points="584.1,-72.59 573.81,-75.1 583.42,-79.56 584.1,-72.59"/>
</g>
<!-- Node8&#45;&gt;Node54 -->
<g id="edge30" class="edge">
<title>Node8&#45;&gt;Node54</title>
<path fill="none" stroke="midnightblue" d="M1581.2,-120.78C1481.24,-119.57 1056.66,-112.52 698.81,-76.08"/>
<polygon fill="midnightblue" stroke="midnightblue" points="699.08,-72.59 688.77,-75.05 698.36,-79.56 699.08,-72.59"/>
</g>
<!-- Node8&#45;&gt;Node61 -->
<g id="edge31" class="edge">
<title>Node8&#45;&gt;Node61</title>
<path fill="none" stroke="midnightblue" d="M1581.39,-120.15C1502.27,-116.63 1222.6,-102.27 985.35,-76.56"/>
<polygon fill="midnightblue" stroke="midnightblue" points="985.48,-73.05 975.15,-75.44 984.71,-80.01 985.48,-73.05"/>
</g>
<!-- Node8&#45;&gt;Node80 -->
<g id="edge33" class="edge">
<title>Node8&#45;&gt;Node80</title>
<path fill="none" stroke="midnightblue" d="M1581.4,-120.54C1494.13,-118.49 1159.08,-108.87 872.68,-75.93"/>
<polygon fill="midnightblue" stroke="midnightblue" points="872.85,-72.43 862.51,-74.75 872.04,-79.38 872.85,-72.43"/>
</g>
<!-- Node61&#45;&gt;Node8 -->
<g id="edge32" class="edge">
<title>Node61&#45;&gt;Node8</title>
<path fill="none" stroke="midnightblue" d="M975.17,-73.1C982.84,-74.16 990.66,-75.19 998,-76 1216.98,-100.15 1481.38,-114.58 1571.4,-119.29"/>
<polygon fill="midnightblue" stroke="midnightblue" points="1571.33,-122.79 1581.5,-119.82 1571.69,-115.8 1571.33,-122.79"/>
</g>
<!-- Node80&#45;&gt;Node11 -->
<g id="edge35" class="edge">
<title>Node80&#45;&gt;Node11</title>
<path fill="none" stroke="midnightblue" d="M820,-56.08C820,-49.01 820,-38.86 820,-29.99"/>
<polygon fill="midnightblue" stroke="midnightblue" points="823.5,-29.75 820,-19.75 816.5,-29.75 823.5,-29.75"/>
</g>
<!-- Node80&#45;&gt;Node23 -->
<g id="edge34" class="edge">
<title>Node80&#45;&gt;Node23</title>
<path fill="none" stroke="midnightblue" d="M855.02,-56.44C893.25,-47.1 954.57,-32.12 996.26,-21.93"/>
<polygon fill="midnightblue" stroke="midnightblue" points="997.26,-25.29 1006.15,-19.52 995.6,-18.49 997.26,-25.29"/>
</g>
<!-- Node81&#45;&gt;Node8 -->
<g id="edge37" class="edge">
<title>Node81&#45;&gt;Node8</title>
<path fill="none" stroke="midnightblue" d="M1153.24,-176.48C1168.84,-173.69 1187.86,-170.45 1205,-168 1340.92,-148.6 1503.92,-132.36 1571.38,-125.94"/>
<polygon fill="midnightblue" stroke="midnightblue" points="1571.75,-129.42 1581.37,-125 1571.09,-122.45 1571.75,-129.42"/>
</g>
<!-- Node82&#45;&gt;Node8 -->
<g id="edge39" class="edge">
<title>Node82&#45;&gt;Node8</title>
<path fill="none" stroke="midnightblue" d="M888.67,-235.39C870.16,-220.34 837.36,-188.86 857,-168 881.84,-141.61 1431.67,-127.01 1571.09,-123.72"/>
<polygon fill="midnightblue" stroke="midnightblue" points="1571.58,-127.21 1581.49,-123.48 1571.42,-120.21 1571.58,-127.21"/>
</g>
<!-- Node82&#45;&gt;Node80 -->
<g id="edge43" class="edge">
<title>Node82&#45;&gt;Node80</title>
<path fill="none" stroke="midnightblue" d="M884.69,-235.34C872.27,-227.49 855.34,-214.74 846,-199 824.73,-163.12 820.48,-113.07 819.86,-86.07"/>
<polygon fill="midnightblue" stroke="midnightblue" points="823.36,-85.7 819.78,-75.73 816.36,-85.75 823.36,-85.7"/>
</g>
<!-- Node82&#45;&gt;Node83 -->
<g id="edge40" class="edge">
<title>Node82&#45;&gt;Node83</title>
<path fill="none" stroke="midnightblue" d="M876.65,-235.48C848.69,-225.27 801.67,-208.11 770.01,-196.55"/>
<polygon fill="midnightblue" stroke="midnightblue" points="770.9,-193.15 760.31,-193.01 768.5,-199.73 770.9,-193.15"/>
</g>
<!-- Node83&#45;&gt;Node8 -->
<g id="edge42" class="edge">
<title>Node83&#45;&gt;Node8</title>
<path fill="none" stroke="midnightblue" d="M771.19,-175.85C786.92,-173.02 805.85,-169.93 823,-168 1112.29,-135.37 1464.77,-125.82 1571.14,-123.59"/>
<polygon fill="midnightblue" stroke="midnightblue" points="1571.29,-127.09 1581.21,-123.38 1571.14,-120.09 1571.29,-127.09"/>
</g>
<!-- Node83&#45;&gt;Node10 -->
<g id="edge41" class="edge">
<title>Node83&#45;&gt;Node10</title>
<path fill="none" stroke="midnightblue" d="M736.7,-173.82C736.06,-155.26 734.54,-111.34 733.66,-85.97"/>
<polygon fill="midnightblue" stroke="midnightblue" points="737.15,-85.65 733.3,-75.78 730.15,-85.9 737.15,-85.65"/>
</g>
<!-- Node84&#45;&gt;Node8 -->
<g id="edge45" class="edge">
<title>Node84&#45;&gt;Node8</title>
<path fill="none" stroke="midnightblue" d="M1695.53,-173.98C1677.72,-164.17 1648.26,-147.93 1627.37,-136.42"/>
<polygon fill="midnightblue" stroke="midnightblue" points="1628.89,-133.27 1618.45,-131.51 1625.51,-139.4 1628.89,-133.27"/>
</g>
<!-- Node85&#45;&gt;Node8 -->
<g id="edge47" class="edge">
<title>Node85&#45;&gt;Node8</title>
<path fill="none" stroke="midnightblue" d="M925.6,-173.88C932.71,-171.61 940.6,-169.4 948,-168 1184.17,-123.32 1475.69,-121.71 1571.13,-122.54"/>
<polygon fill="midnightblue" stroke="midnightblue" points="1571.24,-126.04 1581.28,-122.64 1571.31,-119.04 1571.24,-126.04"/>
</g>
<!-- Node85&#45;&gt;Node80 -->
<g id="edge48" class="edge">
<title>Node85&#45;&gt;Node80</title>
<path fill="none" stroke="midnightblue" d="M895.84,-173.82C882.3,-154.76 849.78,-108.95 832.04,-83.96"/>
<polygon fill="midnightblue" stroke="midnightblue" points="834.88,-81.91 826.23,-75.78 829.17,-85.96 834.88,-81.91"/>
</g>
<!-- Node92&#45;&gt;Node8 -->
<g id="edge51" class="edge">
<title>Node92&#45;&gt;Node8</title>
<path fill="none" stroke="midnightblue" d="M1174.19,-235.08C1184.31,-218.62 1208.37,-183.74 1239,-168 1296.74,-138.32 1493.44,-127.37 1571.09,-124.15"/>
<polygon fill="midnightblue" stroke="midnightblue" points="1571.38,-127.64 1581.23,-123.74 1571.1,-120.64 1571.38,-127.64"/>
</g>
<!-- Node92&#45;&gt;Node80 -->
<g id="edge52" class="edge">
<title>Node92&#45;&gt;Node80</title>
<path fill="none" stroke="midnightblue" d="M1171.03,-235.33C1174.1,-219.89 1177.98,-187.45 1162,-168 1142.94,-144.8 956.32,-98.75 867.08,-77.81"/>
<polygon fill="midnightblue" stroke="midnightblue" points="867.74,-74.37 857.21,-75.51 866.15,-81.19 867.74,-74.37"/>
</g>
<!-- Node92&#45;&gt;Node93 -->
<g id="edge53" class="edge">
<title>Node92&#45;&gt;Node93</title>
<path fill="none" stroke="midnightblue" d="M1186.34,-235.48C1206.55,-225.53 1240.19,-208.99 1263.64,-197.46"/>
<polygon fill="midnightblue" stroke="midnightblue" points="1265.27,-200.56 1272.7,-193.01 1262.18,-194.28 1265.27,-200.56"/>
</g>
<!-- Node92&#45;&gt;Node69 -->
<g id="edge54" class="edge">
<title>Node92&#45;&gt;Node69</title>
<path fill="none" stroke="midnightblue" d="M1146.79,-235.48C1124.23,-226.81 1088.62,-213.15 1059.96,-202.14"/>
<polygon fill="midnightblue" stroke="midnightblue" points="1061.12,-198.84 1050.53,-198.52 1058.61,-205.37 1061.12,-198.84"/>
</g>
<!-- Node92&#45;&gt;Node94 -->
<g id="edge55" class="edge">
<title>Node92&#45;&gt;Node94</title>
<path fill="none" stroke="midnightblue" d="M1215.77,-237.61C1277.64,-229.11 1390.08,-213.45 1486,-199 1495.28,-197.6 1505.08,-196.08 1514.67,-194.58"/>
<polygon fill="midnightblue" stroke="midnightblue" points="1515.24,-198.03 1524.57,-193.01 1514.15,-191.11 1515.24,-198.03"/>
</g>
<!-- Node96&#45;&gt;Node8 -->
<g id="edge64" class="edge">
<title>Node96&#45;&gt;Node8</title>
<path fill="none" stroke="midnightblue" d="M1791.48,-173.98C1749.64,-162.66 1676.19,-142.79 1634.41,-131.49"/>
<polygon fill="midnightblue" stroke="midnightblue" points="1635.07,-128.05 1624.5,-128.82 1633.24,-134.81 1635.07,-128.05"/>
</g>
<!-- Node97&#45;&gt;Node23 -->
<g id="edge66" class="edge">
<title>Node97&#45;&gt;Node23</title>
<path fill="none" stroke="midnightblue" d="M3147.93,-120.85C3268.73,-119.69 3582.39,-111.38 3528,-56 3483.78,-10.97 1445.56,-10.66 1092.76,-10.94"/>
<polygon fill="midnightblue" stroke="midnightblue" points="1092.58,-7.44 1082.58,-10.95 1092.58,-14.44 1092.58,-7.44"/>
</g>
<!-- Node97&#45;&gt;Node24 -->
<g id="edge67" class="edge">
<title>Node97&#45;&gt;Node24</title>
<path fill="none" stroke="midnightblue" d="M3147.69,-115.19C3208.53,-107.34 3319.76,-92.57 3424.85,-76.13"/>
<polygon fill="midnightblue" stroke="midnightblue" points="3425.66,-79.55 3435,-74.54 3424.57,-72.63 3425.66,-79.55"/>
</g>
<!-- Node97&#45;&gt;Node25 -->
<g id="edge68" class="edge">
<title>Node97&#45;&gt;Node25</title>
<path fill="none" stroke="midnightblue" d="M3056.44,-114.91C2987.21,-105.66 2854.79,-87.96 2771.73,-76.86"/>
<polygon fill="midnightblue" stroke="midnightblue" points="2771.98,-73.36 2761.61,-75.5 2771.05,-80.3 2771.98,-73.36"/>
</g>
<!-- Node97&#45;&gt;Node26 -->
<g id="edge69" class="edge">
<title>Node97&#45;&gt;Node26</title>
<path fill="none" stroke="midnightblue" d="M3061.44,-112.44C3016.68,-103 2944.62,-87.8 2896.3,-77.61"/>
<polygon fill="midnightblue" stroke="midnightblue" points="2896.88,-74.16 2886.37,-75.52 2895.44,-81.01 2896.88,-74.16"/>
</g>
<!-- Node97&#45;&gt;Node27 -->
<g id="edge70" class="edge">
<title>Node97&#45;&gt;Node27</title>
<path fill="none" stroke="midnightblue" d="M3087.38,-112.32C3073.05,-103.82 3050.99,-90.73 3034.25,-80.8"/>
<polygon fill="midnightblue" stroke="midnightblue" points="3035.97,-77.75 3025.58,-75.65 3032.4,-83.77 3035.97,-77.75"/>
</g>
<!-- Node97&#45;&gt;Node28 -->
<g id="edge71" class="edge">
<title>Node97&#45;&gt;Node28</title>
<path fill="none" stroke="midnightblue" d="M3116.62,-112.32C3130.95,-103.82 3153.01,-90.73 3169.75,-80.8"/>
<polygon fill="midnightblue" stroke="midnightblue" points="3171.6,-83.77 3178.42,-75.65 3168.03,-77.75 3171.6,-83.77"/>
</g>
<!-- Node97&#45;&gt;Node29 -->
<g id="edge72" class="edge">
<title>Node97&#45;&gt;Node29</title>
<path fill="none" stroke="midnightblue" d="M3141.61,-112.44C3185.23,-103.02 3255.4,-87.87 3302.58,-77.68"/>
<polygon fill="midnightblue" stroke="midnightblue" points="3303.54,-81.05 3312.57,-75.52 3302.06,-74.21 3303.54,-81.05"/>
</g>
<!-- Node99&#45;&gt;Node8 -->
<g id="edge75" class="edge">
<title>Node99&#45;&gt;Node8</title>
<path fill="none" stroke="midnightblue" d="M1961.92,-173.98C1949.86,-171.95 1936.97,-169.85 1925,-168 1818.65,-151.61 1692.13,-134.67 1634.46,-127.1"/>
<polygon fill="midnightblue" stroke="midnightblue" points="1634.88,-123.62 1624.51,-125.79 1633.97,-130.56 1634.88,-123.62"/>
</g>
<!-- Node100&#45;&gt;Node8 -->
<g id="edge77" class="edge">
<title>Node100&#45;&gt;Node8</title>
<path fill="none" stroke="midnightblue" d="M2120.88,-173.97C2111.61,-171.75 2101.45,-169.55 2092,-168 1920.85,-139.93 1712.92,-128.05 1634.74,-124.36"/>
<polygon fill="midnightblue" stroke="midnightblue" points="1634.74,-120.86 1624.59,-123.89 1634.42,-127.85 1634.74,-120.86"/>
</g>
<!-- Node112&#45;&gt;Node10 -->
<g id="edge79" class="edge">
<title>Node112&#45;&gt;Node10</title>
<path fill="none" stroke="midnightblue" d="M682.33,-235.46C675.22,-226.93 665.15,-213.09 661,-199 650.08,-161.91 642.26,-145.82 661,-112 669.09,-97.41 684.1,-86.92 698.34,-79.76"/>
<polygon fill="midnightblue" stroke="midnightblue" points="699.89,-82.9 707.5,-75.53 696.95,-76.55 699.89,-82.9"/>
</g>
<!-- Node112&#45;&gt;Node69 -->
<g id="edge80" class="edge">
<title>Node112&#45;&gt;Node69</title>
<path fill="none" stroke="midnightblue" d="M743,-235.45C792.99,-227.23 870.3,-214.11 946.53,-199.24"/>
<polygon fill="midnightblue" stroke="midnightblue" points="947.66,-202.59 956.79,-197.23 946.31,-195.72 947.66,-202.59"/>
</g>
<!-- Node113&#45;&gt;Node8 -->
<g id="edge83" class="edge">
<title>Node113&#45;&gt;Node8</title>
<path fill="none" stroke="midnightblue" d="M1441.08,-173.98C1475.6,-163.11 1535.17,-144.36 1571.63,-132.88"/>
<polygon fill="midnightblue" stroke="midnightblue" points="1572.77,-136.19 1581.26,-129.84 1570.67,-129.51 1572.77,-136.19"/>
</g>
</g>
</svg>
