<?xml version="1.0" encoding="UTF-8" standalone="no"?>
<!DOCTYPE svg PUBLIC "-//W3C//DTD SVG 1.1//EN"
 "http://www.w3.org/Graphics/SVG/1.1/DTD/svg11.dtd">
<!-- Generated by graphviz version 2.43.0 (0)
 -->
<!-- Title: wld_rad_macCfg_updateRadBaseMac Pages: 1 -->
<svg width="779pt" height="104pt"
 viewBox="0.00 0.00 779.00 104.00" xmlns="http://www.w3.org/2000/svg" xmlns:xlink="http://www.w3.org/1999/xlink">
<g id="graph0" class="graph" transform="scale(1 1) rotate(0) translate(4 100)">
<title>wld_rad_macCfg_updateRadBaseMac</title>
<polygon fill="white" stroke="transparent" points="-4,4 -4,-100 775,-100 775,4 -4,4"/>
<!-- Node1 -->
<g id="node1" class="node">
<title>Node1</title>
<g id="a_node1"><a xlink:title=" ">
<polygon fill="#bfbfbf" stroke="black" points="0,-52 0,-82 155,-82 155,-52 0,-52"/>
<text text-anchor="start" x="8" y="-70" font-family="Helvetica,sans-Serif" font-size="10.00">wld_rad_macCfg_updateRad</text>
<text text-anchor="middle" x="77.5" y="-59" font-family="Helvetica,sans-Serif" font-size="10.00">BaseMac</text>
</a>
</g>
</g>
<!-- Node2 -->
<g id="node2" class="node">
<title>Node2</title>
<g id="a_node2"><a xlink:href="wld_8c.html#a8d6ac97cfc15f641793cf3f112eeb839" target="_top" xlink:title=" ">
<polygon fill="white" stroke="black" points="213,-76.5 213,-95.5 311,-95.5 311,-76.5 213,-76.5"/>
<text text-anchor="middle" x="262" y="-83.5" font-family="Helvetica,sans-Serif" font-size="10.00">wld_getWanAddr</text>
</a>
</g>
</g>
<!-- Node1&#45;&gt;Node2 -->
<g id="edge1" class="edge">
<title>Node1&#45;&gt;Node2</title>
<path fill="none" stroke="midnightblue" d="M155.1,-74.98C171.03,-76.63 187.58,-78.36 202.72,-79.93"/>
<polygon fill="midnightblue" stroke="midnightblue" points="202.64,-83.44 212.95,-81 203.37,-76.48 202.64,-83.44"/>
</g>
<!-- Node3 -->
<g id="node3" class="node">
<title>Node3</title>
<g id="a_node3"><a xlink:href="wld__radio_8c.html#a7c296231f9f10b5d324940b8847f876b" target="_top" xlink:title=" ">
<polygon fill="white" stroke="black" points="191,-38.5 191,-57.5 333,-57.5 333,-38.5 191,-38.5"/>
<text text-anchor="middle" x="262" y="-45.5" font-family="Helvetica,sans-Serif" font-size="10.00">wld_rad_prevRadFromObj</text>
</a>
</g>
</g>
<!-- Node1&#45;&gt;Node3 -->
<g id="edge2" class="edge">
<title>Node1&#45;&gt;Node3</title>
<path fill="none" stroke="midnightblue" d="M155.1,-59.02C163.66,-58.13 172.39,-57.23 180.98,-56.33"/>
<polygon fill="midnightblue" stroke="midnightblue" points="181.41,-59.81 190.99,-55.29 180.68,-52.84 181.41,-59.81"/>
</g>
<!-- Node4 -->
<g id="node4" class="node">
<title>Node4</title>
<g id="a_node4"><a xlink:href="wld__radio_8c.html#a5bc526661be71f2eb0810b099efe607d" target="_top" xlink:title=" ">
<polygon fill="white" stroke="black" points="385,-76.5 385,-95.5 485,-95.5 485,-76.5 385,-76.5"/>
<text text-anchor="middle" x="435" y="-83.5" font-family="Helvetica,sans-Serif" font-size="10.00">wld_rad_fromObj</text>
</a>
</g>
</g>
<!-- Node3&#45;&gt;Node4 -->
<g id="edge3" class="edge">
<title>Node3&#45;&gt;Node4</title>
<path fill="none" stroke="midnightblue" d="M306.15,-57.59C328.92,-62.65 357.05,-68.9 381.12,-74.25"/>
<polygon fill="midnightblue" stroke="midnightblue" points="380.64,-77.73 391.16,-76.48 382.16,-70.89 380.64,-77.73"/>
</g>
<!-- Node6 -->
<g id="node6" class="node">
<title>Node6</title>
<g id="a_node6"><a xlink:href="wld__radio_8c.html#a7cad1ba5d4b5338e778c1ae67b58874f" target="_top" xlink:title=" ">
<polygon fill="white" stroke="black" points="539,-38.5 539,-57.5 643,-57.5 643,-38.5 539,-38.5"/>
<text text-anchor="middle" x="591" y="-45.5" font-family="Helvetica,sans-Serif" font-size="10.00">wld_rad_isRadObj</text>
</a>
</g>
</g>
<!-- Node3&#45;&gt;Node6 -->
<g id="edge7" class="edge">
<title>Node3&#45;&gt;Node6</title>
<path fill="none" stroke="midnightblue" d="M333.15,-48C391.36,-48 473.32,-48 528.88,-48"/>
<polygon fill="midnightblue" stroke="midnightblue" points="528.93,-51.5 538.93,-48 528.93,-44.5 528.93,-51.5"/>
</g>
<!-- Node8 -->
<g id="node8" class="node">
<title>Node8</title>
<g id="a_node8"><a xlink:href="wld__util_8c.html#a2906b11b48bfaf8bf08b9de0d1d2596b" target="_top" xlink:title=" ">
<polygon fill="white" stroke="black" points="369,-0.5 369,-19.5 501,-19.5 501,-0.5 369,-0.5"/>
<text text-anchor="middle" x="435" y="-7.5" font-family="Helvetica,sans-Serif" font-size="10.00">wld_util_getPrevObjInst</text>
</a>
</g>
</g>
<!-- Node3&#45;&gt;Node8 -->
<g id="edge8" class="edge">
<title>Node3&#45;&gt;Node8</title>
<path fill="none" stroke="midnightblue" d="M306.15,-38.41C328.92,-33.35 357.05,-27.1 381.12,-21.75"/>
<polygon fill="midnightblue" stroke="midnightblue" points="382.16,-25.11 391.16,-19.52 380.64,-18.27 382.16,-25.11"/>
</g>
<!-- Node5 -->
<g id="node5" class="node">
<title>Node5</title>
<g id="a_node5"><a xlink:href="wld__util_8c.html#a18c61fa964e131e3008ec440b72b61c8" target="_top" xlink:title=" ">
<polygon fill="white" stroke="black" points="537,-76.5 537,-95.5 645,-95.5 645,-76.5 537,-76.5"/>
<text text-anchor="middle" x="591" y="-83.5" font-family="Helvetica,sans-Serif" font-size="10.00">debugIsRadPointer</text>
</a>
</g>
</g>
<!-- Node4&#45;&gt;Node5 -->
<g id="edge4" class="edge">
<title>Node4&#45;&gt;Node5</title>
<path fill="none" stroke="midnightblue" d="M485.15,-86C498.27,-86 512.63,-86 526.4,-86"/>
<polygon fill="midnightblue" stroke="midnightblue" points="526.79,-89.5 536.79,-86 526.79,-82.5 526.79,-89.5"/>
</g>
<!-- Node4&#45;&gt;Node6 -->
<g id="edge5" class="edge">
<title>Node4&#45;&gt;Node6</title>
<path fill="none" stroke="midnightblue" d="M474.86,-76.41C495.09,-71.42 520.02,-65.27 541.5,-59.97"/>
<polygon fill="midnightblue" stroke="midnightblue" points="542.55,-63.31 551.42,-57.52 540.87,-56.52 542.55,-63.31"/>
</g>
<!-- Node7 -->
<g id="node7" class="node">
<title>Node7</title>
<g id="a_node7"><a xlink:href="wld_8c.html#a86eb0dd5db7f6f4c724e09f6d1b831d8" target="_top" xlink:title=" ">
<polygon fill="white" stroke="black" points="681,-38.5 681,-57.5 771,-57.5 771,-38.5 681,-38.5"/>
<text text-anchor="middle" x="726" y="-45.5" font-family="Helvetica,sans-Serif" font-size="10.00">get_wld_object</text>
</a>
</g>
</g>
<!-- Node6&#45;&gt;Node7 -->
<g id="edge6" class="edge">
<title>Node6&#45;&gt;Node7</title>
<path fill="none" stroke="midnightblue" d="M643.04,-48C652.09,-48 661.54,-48 670.68,-48"/>
<polygon fill="midnightblue" stroke="midnightblue" points="670.82,-51.5 680.82,-48 670.82,-44.5 670.82,-51.5"/>
</g>
</g>
</svg>
