<?xml version="1.0" encoding="UTF-8" standalone="no"?>
<!DOCTYPE svg PUBLIC "-//W3C//DTD SVG 1.1//EN"
 "http://www.w3.org/Graphics/SVG/1.1/DTD/svg11.dtd">
<!-- Generated by graphviz version 2.43.0 (0)
 -->
<!-- Title: wld_rad_hostapd_getCfgMainVap Pages: 1 -->
<svg width="708pt" height="192pt"
 viewBox="0.00 0.00 708.00 191.50" xmlns="http://www.w3.org/2000/svg" xmlns:xlink="http://www.w3.org/1999/xlink">
<g id="graph0" class="graph" transform="scale(1 1) rotate(0) translate(4 187.5)">
<title>wld_rad_hostapd_getCfgMainVap</title>
<polygon fill="white" stroke="transparent" points="-4,4 -4,-187.5 704,-187.5 704,4 -4,4"/>
<!-- Node1 -->
<g id="node1" class="node">
<title>Node1</title>
<g id="a_node1"><a xlink:title=" ">
<polygon fill="#bfbfbf" stroke="black" points="0,-88 0,-107 179,-107 179,-88 0,-88"/>
<text text-anchor="middle" x="89.5" y="-95" font-family="Helvetica,sans-Serif" font-size="10.00">wld_rad_hostapd_getCfgMainVap</text>
</a>
</g>
</g>
<!-- Node2 -->
<g id="node2" class="node">
<title>Node2</title>
<g id="a_node2"><a xlink:href="wld__radio_8c.html#a4e8e6a5073523b748c0ccf4d5cd400be" target="_top" xlink:title=" ">
<polygon fill="white" stroke="black" points="215,-164 215,-183 369,-183 369,-164 215,-164"/>
<text text-anchor="middle" x="292" y="-171" font-family="Helvetica,sans-Serif" font-size="10.00">wld_rad_getFirstEnabledVap</text>
</a>
</g>
</g>
<!-- Node1&#45;&gt;Node2 -->
<g id="edge1" class="edge">
<title>Node1&#45;&gt;Node2</title>
<path fill="none" stroke="midnightblue" d="M108.62,-107.09C132.48,-119.4 175.97,-140.82 215,-154.5 222.05,-156.97 229.57,-159.26 237.04,-161.32"/>
<polygon fill="midnightblue" stroke="midnightblue" points="236.22,-164.73 246.79,-163.91 238.02,-157.96 236.22,-164.73"/>
</g>
<!-- Node3 -->
<g id="node3" class="node">
<title>Node3</title>
<g id="a_node3"><a xlink:href="wld__radio_8c.html#aa24e429aba6c36e70dbc9d9757103f0e" target="_top" xlink:title=" ">
<polygon fill="white" stroke="black" points="234.5,-126 234.5,-145 349.5,-145 349.5,-126 234.5,-126"/>
<text text-anchor="middle" x="292" y="-133" font-family="Helvetica,sans-Serif" font-size="10.00">wld_rad_getFirstVap</text>
</a>
</g>
</g>
<!-- Node1&#45;&gt;Node3 -->
<g id="edge2" class="edge">
<title>Node1&#45;&gt;Node3</title>
<path fill="none" stroke="midnightblue" d="M140.84,-107.04C168.13,-112.21 202.04,-118.64 230.73,-124.08"/>
<polygon fill="midnightblue" stroke="midnightblue" points="230.17,-127.53 240.64,-125.96 231.47,-120.66 230.17,-127.53"/>
</g>
<!-- Node4 -->
<g id="node4" class="node">
<title>Node4</title>
<g id="a_node4"><a xlink:href="wld__radio_8c.html#addcc55f0b12b07fd29e65cb4925bce15" target="_top" xlink:title=" ">
<polygon fill="white" stroke="black" points="227,-88 227,-107 357,-107 357,-88 227,-88"/>
<text text-anchor="middle" x="292" y="-95" font-family="Helvetica,sans-Serif" font-size="10.00">wld_rad_hasMbssidAds</text>
</a>
</g>
</g>
<!-- Node1&#45;&gt;Node4 -->
<g id="edge3" class="edge">
<title>Node1&#45;&gt;Node4</title>
<path fill="none" stroke="midnightblue" d="M179.03,-97.5C191.57,-97.5 204.35,-97.5 216.59,-97.5"/>
<polygon fill="midnightblue" stroke="midnightblue" points="216.72,-101 226.72,-97.5 216.72,-94 216.72,-101"/>
</g>
<!-- Node7 -->
<g id="node7" class="node">
<title>Node7</title>
<g id="a_node7"><a xlink:href="wld__radio_8c.html#a61fbf4242e15ad3243b8c60f5d09e510" target="_top" xlink:title=" ">
<polygon fill="white" stroke="black" points="225.5,-50 225.5,-69 358.5,-69 358.5,-50 225.5,-50"/>
<text text-anchor="middle" x="292" y="-57" font-family="Helvetica,sans-Serif" font-size="10.00">wld_rad_hasMloSupport</text>
</a>
</g>
</g>
<!-- Node1&#45;&gt;Node7 -->
<g id="edge6" class="edge">
<title>Node1&#45;&gt;Node7</title>
<path fill="none" stroke="midnightblue" d="M140.84,-87.96C168.13,-82.79 202.04,-76.36 230.73,-70.92"/>
<polygon fill="midnightblue" stroke="midnightblue" points="231.47,-74.34 240.64,-69.04 230.17,-67.47 231.47,-74.34"/>
</g>
<!-- Node10 -->
<g id="node10" class="node">
<title>Node10</title>
<g id="a_node10"><a xlink:href="wld__rad__hostapd__api_8c.html#a680fec1772b8694b744c98970868a802" target="_top" xlink:title=" ">
<polygon fill="white" stroke="black" points="221.5,-0.5 221.5,-30.5 362.5,-30.5 362.5,-0.5 221.5,-0.5"/>
<text text-anchor="start" x="229.5" y="-18.5" font-family="Helvetica,sans-Serif" font-size="10.00">wld_rad_hostapd_getFirst</text>
<text text-anchor="middle" x="292" y="-7.5" font-family="Helvetica,sans-Serif" font-size="10.00">ConnectedVap</text>
</a>
</g>
</g>
<!-- Node1&#45;&gt;Node10 -->
<g id="edge9" class="edge">
<title>Node1&#45;&gt;Node10</title>
<path fill="none" stroke="midnightblue" d="M109.62,-87.94C133.82,-76.02 176.93,-55.42 215,-40.5 220.77,-38.24 226.84,-36 232.93,-33.86"/>
<polygon fill="midnightblue" stroke="midnightblue" points="234.15,-37.14 242.47,-30.57 231.87,-30.52 234.15,-37.14"/>
</g>
<!-- Node5 -->
<g id="node5" class="node">
<title>Node5</title>
<g id="a_node5"><a xlink:href="wld__radio_8c.html#ad273936553870cb349f3ad7615d76ef3" target="_top" xlink:title=" ">
<polygon fill="white" stroke="black" points="408.5,-88 408.5,-107 563.5,-107 563.5,-88 408.5,-88"/>
<text text-anchor="middle" x="486" y="-95" font-family="Helvetica,sans-Serif" font-size="10.00">wld_rad_getMbssidAdsMode</text>
</a>
</g>
</g>
<!-- Node4&#45;&gt;Node5 -->
<g id="edge4" class="edge">
<title>Node4&#45;&gt;Node5</title>
<path fill="none" stroke="midnightblue" d="M357.2,-97.5C370.23,-97.5 384.14,-97.5 397.81,-97.5"/>
<polygon fill="midnightblue" stroke="midnightblue" points="398.2,-101 408.2,-97.5 398.2,-94 398.2,-101"/>
</g>
<!-- Node6 -->
<g id="node6" class="node">
<title>Node6</title>
<g id="a_node6"><a xlink:href="wld__radio_8c.html#ac2d11ae1f195cffd5f73440eeb1f2e80" target="_top" xlink:title=" ">
<polygon fill="white" stroke="black" points="603,-88 603,-107 700,-107 700,-88 603,-88"/>
<text text-anchor="middle" x="651.5" y="-95" font-family="Helvetica,sans-Serif" font-size="10.00">wld_rad_is_6ghz</text>
</a>
</g>
</g>
<!-- Node5&#45;&gt;Node6 -->
<g id="edge5" class="edge">
<title>Node5&#45;&gt;Node6</title>
<path fill="none" stroke="midnightblue" d="M563.96,-97.5C573.59,-97.5 583.31,-97.5 592.58,-97.5"/>
<polygon fill="midnightblue" stroke="midnightblue" points="592.82,-101 602.82,-97.5 592.82,-94 592.82,-101"/>
</g>
<!-- Node8 -->
<g id="node8" class="node">
<title>Node8</title>
<g id="a_node8"><a xlink:href="wld__radioOperatingStandards_8c.html#ae3d8d225197b9909a08b3b9ea1f77ff6" target="_top" xlink:title=" ">
<polygon fill="white" stroke="black" points="405,-50 405,-69 567,-69 567,-50 405,-50"/>
<text text-anchor="middle" x="486" y="-57" font-family="Helvetica,sans-Serif" font-size="10.00">wld_rad_checkEnabledRadStd</text>
</a>
</g>
</g>
<!-- Node7&#45;&gt;Node8 -->
<g id="edge7" class="edge">
<title>Node7&#45;&gt;Node8</title>
<path fill="none" stroke="midnightblue" d="M358.54,-59.5C370.17,-59.5 382.46,-59.5 394.63,-59.5"/>
<polygon fill="midnightblue" stroke="midnightblue" points="394.81,-63 404.81,-59.5 394.81,-56 394.81,-63"/>
</g>
<!-- Node9 -->
<g id="node9" class="node">
<title>Node9</title>
<g id="a_node9"><a xlink:href="wld__radio_8c.html#a2960da4f28d621447f61041c8463ca9e" target="_top" xlink:title=" ">
<polygon fill="white" stroke="black" points="423,-12 423,-31 549,-31 549,-12 423,-12"/>
<text text-anchor="middle" x="486" y="-19" font-family="Helvetica,sans-Serif" font-size="10.00">wld_rad_isMloCapable</text>
</a>
</g>
</g>
<!-- Node7&#45;&gt;Node9 -->
<g id="edge8" class="edge">
<title>Node7&#45;&gt;Node9</title>
<path fill="none" stroke="midnightblue" d="M341.45,-49.91C367.47,-44.76 399.73,-38.38 427.07,-32.97"/>
<polygon fill="midnightblue" stroke="midnightblue" points="427.77,-36.4 436.9,-31.02 426.41,-29.53 427.77,-36.4"/>
</g>
</g>
</svg>
