<?xml version="1.0" encoding="UTF-8" standalone="no"?>
<!DOCTYPE svg PUBLIC "-//W3C//DTD SVG 1.1//EN"
 "http://www.w3.org/Graphics/SVG/1.1/DTD/svg11.dtd">
<!-- Generated by graphviz version 2.43.0 (0)
 -->
<!-- Title: test/testHelper/wld_th_radio.h Pages: 1 -->
<svg width="2572pt" height="173pt"
 viewBox="0.00 0.00 2571.50 173.00" xmlns="http://www.w3.org/2000/svg" xmlns:xlink="http://www.w3.org/1999/xlink">
<g id="graph0" class="graph" transform="scale(1 1) rotate(0) translate(4 169)">
<title>test/testHelper/wld_th_radio.h</title>
<polygon fill="white" stroke="transparent" points="-4,4 -4,-169 2567.5,-169 2567.5,4 -4,4"/>
<!-- Node1 -->
<g id="node1" class="node">
<title>Node1</title>
<g id="a_node1"><a xlink:title=" ">
<polygon fill="#bfbfbf" stroke="black" points="1442.5,-134.5 1442.5,-164.5 1552.5,-164.5 1552.5,-134.5 1442.5,-134.5"/>
<text text-anchor="start" x="1450.5" y="-152.5" font-family="Helvetica,sans-Serif" font-size="10.00">test/testHelper/wld</text>
<text text-anchor="middle" x="1497.5" y="-141.5" font-family="Helvetica,sans-Serif" font-size="10.00">_th_radio.h</text>
</a>
</g>
</g>
<!-- Node2 -->
<g id="node2" class="node">
<title>Node2</title>
<g id="a_node2"><a xlink:href="test__fta_8c.html" target="_top" xlink:title=" ">
<polygon fill="white" stroke="black" points="0,-6 0,-25 99,-25 99,-6 0,-6"/>
<text text-anchor="middle" x="49.5" y="-13" font-family="Helvetica,sans-Serif" font-size="10.00">test/fta/test_fta.c</text>
</a>
</g>
</g>
<!-- Node1&#45;&gt;Node2 -->
<g id="edge1" class="edge">
<title>Node1&#45;&gt;Node2</title>
<path fill="none" stroke="midnightblue" d="M1432.15,-147.32C1223.9,-143.29 577.47,-128.58 370.5,-98 259.02,-81.53 130.08,-42.5 75.76,-25.12"/>
<polygon fill="midnightblue" stroke="midnightblue" points="1432.25,-150.82 1442.32,-147.52 1432.39,-143.83 1432.25,-150.82"/>
</g>
<!-- Node3 -->
<g id="node3" class="node">
<title>Node3</title>
<g id="a_node3"><a xlink:href="test__enableSync_8c.html" target="_top" xlink:title=" ">
<polygon fill="white" stroke="black" points="117,-0.5 117,-30.5 230,-30.5 230,-0.5 117,-0.5"/>
<text text-anchor="start" x="125" y="-18.5" font-family="Helvetica,sans-Serif" font-size="10.00">test/testEnableSync</text>
<text text-anchor="middle" x="173.5" y="-7.5" font-family="Helvetica,sans-Serif" font-size="10.00">/test_enableSync.c</text>
</a>
</g>
</g>
<!-- Node1&#45;&gt;Node3 -->
<g id="edge2" class="edge">
<title>Node1&#45;&gt;Node3</title>
<path fill="none" stroke="midnightblue" d="M1431.86,-148.92C1275.37,-149.08 868.35,-144.56 532.5,-98 420.45,-82.47 291.72,-49.45 222.95,-30.56"/>
<polygon fill="midnightblue" stroke="midnightblue" points="1432.25,-152.42 1442.24,-148.9 1432.24,-145.42 1432.25,-152.42"/>
</g>
<!-- Node4 -->
<g id="node4" class="node">
<title>Node4</title>
<g id="a_node4"><a xlink:href="test__fullScan_8c.html" target="_top" xlink:title=" ">
<polygon fill="white" stroke="black" points="248,-0.5 248,-30.5 367,-30.5 367,-0.5 248,-0.5"/>
<text text-anchor="start" x="256" y="-18.5" font-family="Helvetica,sans-Serif" font-size="10.00">test/testFullScan/test</text>
<text text-anchor="middle" x="307.5" y="-7.5" font-family="Helvetica,sans-Serif" font-size="10.00">_fullScan.c</text>
</a>
</g>
</g>
<!-- Node1&#45;&gt;Node4 -->
<g id="edge3" class="edge">
<title>Node1&#45;&gt;Node4</title>
<path fill="none" stroke="midnightblue" d="M1432.21,-147.14C1297.76,-143.72 980.44,-132.39 716.5,-98 590.14,-81.54 444.21,-49.19 365.34,-30.58"/>
<polygon fill="midnightblue" stroke="midnightblue" points="1432.26,-150.65 1442.34,-147.39 1432.43,-143.65 1432.26,-150.65"/>
</g>
<!-- Node5 -->
<g id="node5" class="node">
<title>Node5</title>
<g id="a_node5"><a xlink:href="wld__th__dm_8c.html" target="_top" xlink:title=" ">
<polygon fill="white" stroke="black" points="385.5,-0.5 385.5,-30.5 495.5,-30.5 495.5,-0.5 385.5,-0.5"/>
<text text-anchor="start" x="393.5" y="-18.5" font-family="Helvetica,sans-Serif" font-size="10.00">test/testHelper/wld</text>
<text text-anchor="middle" x="440.5" y="-7.5" font-family="Helvetica,sans-Serif" font-size="10.00">_th_dm.c</text>
</a>
</g>
</g>
<!-- Node1&#45;&gt;Node5 -->
<g id="edge4" class="edge">
<title>Node1&#45;&gt;Node5</title>
<path fill="none" stroke="midnightblue" d="M1432.01,-146.81C1314.2,-143.02 1059.02,-131.37 846.5,-98 787.82,-88.79 774.7,-78.87 716.5,-67 622.86,-47.91 598.25,-49.57 504.5,-31 501.59,-30.42 498.62,-29.82 495.62,-29.19"/>
<polygon fill="midnightblue" stroke="midnightblue" points="1432.19,-150.32 1442.29,-147.13 1432.41,-143.32 1432.19,-150.32"/>
</g>
<!-- Node6 -->
<g id="node6" class="node">
<title>Node6</title>
<g id="a_node6"><a xlink:href="wld__th__dm_8h.html" target="_top" xlink:title=" ">
<polygon fill="white" stroke="black" points="1060.5,-67.5 1060.5,-97.5 1170.5,-97.5 1170.5,-67.5 1060.5,-67.5"/>
<text text-anchor="start" x="1068.5" y="-85.5" font-family="Helvetica,sans-Serif" font-size="10.00">test/testHelper/wld</text>
<text text-anchor="middle" x="1115.5" y="-74.5" font-family="Helvetica,sans-Serif" font-size="10.00">_th_dm.h</text>
</a>
</g>
</g>
<!-- Node1&#45;&gt;Node6 -->
<g id="edge5" class="edge">
<title>Node1&#45;&gt;Node6</title>
<path fill="none" stroke="midnightblue" d="M1432.27,-137.4C1358.57,-124.86 1239.88,-104.66 1170.62,-92.88"/>
<polygon fill="midnightblue" stroke="midnightblue" points="1431.92,-140.89 1442.36,-139.12 1433.09,-133.99 1431.92,-140.89"/>
</g>
<!-- Node8 -->
<g id="node8" class="node">
<title>Node8</title>
<g id="a_node8"><a xlink:href="test__macFiltering_8c.html" target="_top" xlink:title=" ">
<polygon fill="white" stroke="black" points="514,-0.5 514,-30.5 631,-30.5 631,-0.5 514,-0.5"/>
<text text-anchor="start" x="522" y="-18.5" font-family="Helvetica,sans-Serif" font-size="10.00">test/testMacFiltering</text>
<text text-anchor="middle" x="572.5" y="-7.5" font-family="Helvetica,sans-Serif" font-size="10.00">/test_macFiltering.c</text>
</a>
</g>
</g>
<!-- Node1&#45;&gt;Node8 -->
<g id="edge31" class="edge">
<title>Node1&#45;&gt;Node8</title>
<path fill="none" stroke="midnightblue" d="M1432.16,-148.26C1325.75,-146.63 1108.96,-138.13 930.5,-98 891.67,-89.27 884.92,-77.36 846.5,-67 756.76,-42.81 731.74,-48.69 640.5,-31 637.42,-30.4 634.26,-29.78 631.08,-29.13"/>
<polygon fill="midnightblue" stroke="midnightblue" points="1432.37,-151.76 1442.42,-148.4 1432.47,-144.76 1432.37,-151.76"/>
</g>
<!-- Node9 -->
<g id="node9" class="node">
<title>Node9</title>
<g id="a_node9"><a xlink:href="test__neighborAp_8c.html" target="_top" xlink:title=" ">
<polygon fill="white" stroke="black" points="649.5,-0.5 649.5,-30.5 763.5,-30.5 763.5,-0.5 649.5,-0.5"/>
<text text-anchor="start" x="657.5" y="-18.5" font-family="Helvetica,sans-Serif" font-size="10.00">test/testNeighborAp</text>
<text text-anchor="middle" x="706.5" y="-7.5" font-family="Helvetica,sans-Serif" font-size="10.00">/test_neighborAp.c</text>
</a>
</g>
</g>
<!-- Node1&#45;&gt;Node9 -->
<g id="edge32" class="edge">
<title>Node1&#45;&gt;Node9</title>
<path fill="none" stroke="midnightblue" d="M1431.83,-144.97C1314.22,-138.14 1072.41,-121.69 991.5,-98 962.31,-89.45 959.11,-77.31 930.5,-67 926.51,-65.56 828.76,-43.7 763.72,-29.22"/>
<polygon fill="midnightblue" stroke="midnightblue" points="1431.94,-148.48 1442.13,-145.56 1432.34,-141.49 1431.94,-148.48"/>
</g>
<!-- Node10 -->
<g id="node10" class="node">
<title>Node10</title>
<g id="a_node10"><a xlink:href="test__radio11be_8c.html" target="_top" xlink:title=" ">
<polygon fill="white" stroke="black" points="782,-0.5 782,-30.5 891,-30.5 891,-0.5 782,-0.5"/>
<text text-anchor="start" x="790" y="-18.5" font-family="Helvetica,sans-Serif" font-size="10.00">test/testRadio11be</text>
<text text-anchor="middle" x="836.5" y="-7.5" font-family="Helvetica,sans-Serif" font-size="10.00">/test_radio11be.c</text>
</a>
</g>
</g>
<!-- Node1&#45;&gt;Node10 -->
<g id="edge33" class="edge">
<title>Node1&#45;&gt;Node10</title>
<path fill="none" stroke="midnightblue" d="M1432.19,-148.46C1343.94,-146.75 1182.57,-137.8 1051.5,-98 1022.78,-89.28 1019.19,-78.58 991.5,-67 957.16,-52.65 917.2,-39.71 886.46,-30.53"/>
<polygon fill="midnightblue" stroke="midnightblue" points="1432.26,-151.96 1442.32,-148.63 1432.38,-144.96 1432.26,-151.96"/>
</g>
<!-- Node11 -->
<g id="node11" class="node">
<title>Node11</title>
<g id="a_node11"><a xlink:href="test__radioStatus_8c.html" target="_top" xlink:title=" ">
<polygon fill="white" stroke="black" points="1163.5,-0.5 1163.5,-30.5 1279.5,-30.5 1279.5,-0.5 1163.5,-0.5"/>
<text text-anchor="start" x="1171.5" y="-18.5" font-family="Helvetica,sans-Serif" font-size="10.00">test/testRadioStatus</text>
<text text-anchor="middle" x="1221.5" y="-7.5" font-family="Helvetica,sans-Serif" font-size="10.00">/test_radioStatus.c</text>
</a>
</g>
</g>
<!-- Node1&#45;&gt;Node11 -->
<g id="edge34" class="edge">
<title>Node1&#45;&gt;Node11</title>
<path fill="none" stroke="midnightblue" d="M1459.03,-130.1C1403.23,-103.42 1301.07,-54.55 1250.89,-30.56"/>
<polygon fill="midnightblue" stroke="midnightblue" points="1457.69,-133.34 1468.22,-134.5 1460.71,-127.03 1457.69,-133.34"/>
</g>
<!-- Node12 -->
<g id="node12" class="node">
<title>Node12</title>
<g id="a_node12"><a xlink:href="test__scanSsid_8c.html" target="_top" xlink:title=" ">
<polygon fill="white" stroke="black" points="1297.5,-0.5 1297.5,-30.5 1419.5,-30.5 1419.5,-0.5 1297.5,-0.5"/>
<text text-anchor="start" x="1305.5" y="-18.5" font-family="Helvetica,sans-Serif" font-size="10.00">test/testScanSsid/test</text>
<text text-anchor="middle" x="1358.5" y="-7.5" font-family="Helvetica,sans-Serif" font-size="10.00">_scanSsid.c</text>
</a>
</g>
</g>
<!-- Node1&#45;&gt;Node12 -->
<g id="edge35" class="edge">
<title>Node1&#45;&gt;Node12</title>
<path fill="none" stroke="midnightblue" d="M1475.12,-127.25C1446.47,-100.04 1397.65,-53.68 1373.27,-30.52"/>
<polygon fill="midnightblue" stroke="midnightblue" points="1472.96,-130.03 1482.62,-134.37 1477.78,-124.95 1472.96,-130.03"/>
</g>
<!-- Node13 -->
<g id="node13" class="node">
<title>Node13</title>
<g id="a_node13"><a xlink:href="test__staStats_8c.html" target="_top" xlink:title=" ">
<polygon fill="white" stroke="black" points="1438,-0.5 1438,-30.5 1557,-30.5 1557,-0.5 1438,-0.5"/>
<text text-anchor="start" x="1446" y="-18.5" font-family="Helvetica,sans-Serif" font-size="10.00">test/testStaStats/test</text>
<text text-anchor="middle" x="1497.5" y="-7.5" font-family="Helvetica,sans-Serif" font-size="10.00">_staStats.c</text>
</a>
</g>
</g>
<!-- Node1&#45;&gt;Node13 -->
<g id="edge36" class="edge">
<title>Node1&#45;&gt;Node13</title>
<path fill="none" stroke="midnightblue" d="M1497.5,-124.02C1497.5,-96.51 1497.5,-52.79 1497.5,-30.52"/>
<polygon fill="midnightblue" stroke="midnightblue" points="1494,-124.37 1497.5,-134.37 1501,-124.37 1494,-124.37"/>
</g>
<!-- Node14 -->
<g id="node14" class="node">
<title>Node14</title>
<g id="a_node14"><a xlink:href="test__staStatsWiFi7_8c.html" target="_top" xlink:title=" ">
<polygon fill="white" stroke="black" points="1575,-0.5 1575,-30.5 1700,-30.5 1700,-0.5 1575,-0.5"/>
<text text-anchor="start" x="1583" y="-18.5" font-family="Helvetica,sans-Serif" font-size="10.00">test/testStaStatsWiFi7</text>
<text text-anchor="middle" x="1637.5" y="-7.5" font-family="Helvetica,sans-Serif" font-size="10.00">/test_staStatsWiFi7.c</text>
</a>
</g>
</g>
<!-- Node1&#45;&gt;Node14 -->
<g id="edge37" class="edge">
<title>Node1&#45;&gt;Node14</title>
<path fill="none" stroke="midnightblue" d="M1520.04,-127.25C1548.89,-100.04 1598.07,-53.68 1622.63,-30.52"/>
<polygon fill="midnightblue" stroke="midnightblue" points="1517.36,-124.97 1512.48,-134.37 1522.16,-130.06 1517.36,-124.97"/>
</g>
<!-- Node15 -->
<g id="node15" class="node">
<title>Node15</title>
<g id="a_node15"><a xlink:href="test__wifiObjReference_8c.html" target="_top" xlink:title=" ">
<polygon fill="white" stroke="black" points="1718.5,-0.5 1718.5,-30.5 1862.5,-30.5 1862.5,-0.5 1718.5,-0.5"/>
<text text-anchor="start" x="1726.5" y="-18.5" font-family="Helvetica,sans-Serif" font-size="10.00">test/testWiFiObjReference</text>
<text text-anchor="middle" x="1790.5" y="-7.5" font-family="Helvetica,sans-Serif" font-size="10.00">/test_wifiObjReference.c</text>
</a>
</g>
</g>
<!-- Node1&#45;&gt;Node15 -->
<g id="edge38" class="edge">
<title>Node1&#45;&gt;Node15</title>
<path fill="none" stroke="midnightblue" d="M1537.98,-130.26C1597.12,-103.62 1705.92,-54.6 1759.3,-30.56"/>
<polygon fill="midnightblue" stroke="midnightblue" points="1536.26,-127.2 1528.58,-134.5 1539.13,-133.58 1536.26,-127.2"/>
</g>
<!-- Node17 -->
<g id="node17" class="node">
<title>Node17</title>
<g id="a_node17"><a xlink:href="test__wld__rad__chanMgt_8c.html" target="_top" xlink:title=" ">
<polygon fill="white" stroke="black" points="1881,-0.5 1881,-30.5 2006,-30.5 2006,-0.5 1881,-0.5"/>
<text text-anchor="start" x="1889" y="-18.5" font-family="Helvetica,sans-Serif" font-size="10.00">test/wld_chanMgt/test</text>
<text text-anchor="middle" x="1943.5" y="-7.5" font-family="Helvetica,sans-Serif" font-size="10.00">_wld_rad_chanMgt.c</text>
</a>
</g>
</g>
<!-- Node1&#45;&gt;Node17 -->
<g id="edge39" class="edge">
<title>Node1&#45;&gt;Node17</title>
<path fill="none" stroke="midnightblue" d="M1554.45,-131.64C1643.32,-105.34 1813.33,-55.03 1896.01,-30.56"/>
<polygon fill="midnightblue" stroke="midnightblue" points="1553.4,-128.3 1544.81,-134.5 1555.39,-135.02 1553.4,-128.3"/>
</g>
<!-- Node18 -->
<g id="node18" class="node">
<title>Node18</title>
<g id="a_node18"><a xlink:href="test__wld__fsm_8c.html" target="_top" xlink:title=" ">
<polygon fill="white" stroke="black" points="2024.5,-0.5 2024.5,-30.5 2148.5,-30.5 2148.5,-0.5 2024.5,-0.5"/>
<text text-anchor="start" x="2032.5" y="-18.5" font-family="Helvetica,sans-Serif" font-size="10.00">test/wld_fsm/test_wld</text>
<text text-anchor="middle" x="2086.5" y="-7.5" font-family="Helvetica,sans-Serif" font-size="10.00">_fsm.c</text>
</a>
</g>
</g>
<!-- Node1&#45;&gt;Node18 -->
<g id="edge40" class="edge">
<title>Node1&#45;&gt;Node18</title>
<path fill="none" stroke="midnightblue" d="M1562.51,-134.97C1610.17,-124.97 1676.41,-110.91 1734.5,-98 1837.68,-75.06 1957.53,-47.01 2027.41,-30.52"/>
<polygon fill="midnightblue" stroke="midnightblue" points="1561.7,-131.56 1552.63,-137.04 1563.14,-138.41 1561.7,-131.56"/>
</g>
<!-- Node19 -->
<g id="node19" class="node">
<title>Node19</title>
<g id="a_node19"><a xlink:href="test__wld__sensing_8c.html" target="_top" xlink:title=" ">
<polygon fill="white" stroke="black" points="2166.5,-0.5 2166.5,-30.5 2286.5,-30.5 2286.5,-0.5 2166.5,-0.5"/>
<text text-anchor="start" x="2174.5" y="-18.5" font-family="Helvetica,sans-Serif" font-size="10.00">test/wld_sensing/test</text>
<text text-anchor="middle" x="2226.5" y="-7.5" font-family="Helvetica,sans-Serif" font-size="10.00">_wld_sensing.c</text>
</a>
</g>
</g>
<!-- Node1&#45;&gt;Node19 -->
<g id="edge41" class="edge">
<title>Node1&#45;&gt;Node19</title>
<path fill="none" stroke="midnightblue" d="M1562.68,-138.9C1627.23,-129.23 1728.85,-113.54 1816.5,-98 1968.58,-71.03 2006.14,-61.77 2157.5,-31 2160.38,-30.41 2163.32,-29.81 2166.3,-29.2"/>
<polygon fill="midnightblue" stroke="midnightblue" points="1562.01,-135.46 1552.64,-140.4 1563.05,-142.39 1562.01,-135.46"/>
</g>
<!-- Node20 -->
<g id="node20" class="node">
<title>Node20</title>
<g id="a_node20"><a xlink:href="wld__th__fsm_8c.html" target="_top" xlink:title=" ">
<polygon fill="white" stroke="black" points="2325.5,-67.5 2325.5,-97.5 2435.5,-97.5 2435.5,-67.5 2325.5,-67.5"/>
<text text-anchor="start" x="2333.5" y="-85.5" font-family="Helvetica,sans-Serif" font-size="10.00">test/testHelper/wld</text>
<text text-anchor="middle" x="2380.5" y="-74.5" font-family="Helvetica,sans-Serif" font-size="10.00">_th_fsm.c</text>
</a>
</g>
</g>
<!-- Node1&#45;&gt;Node20 -->
<g id="edge23" class="edge">
<title>Node1&#45;&gt;Node20</title>
<path fill="none" stroke="midnightblue" d="M1562.58,-147.66C1701,-145.18 2034.65,-135.48 2311.5,-98 2315.99,-97.39 2320.62,-96.66 2325.26,-95.85"/>
<polygon fill="midnightblue" stroke="midnightblue" points="1562.49,-144.16 1552.55,-147.84 1562.61,-151.16 1562.49,-144.16"/>
</g>
<!-- Node21 -->
<g id="node21" class="node">
<title>Node21</title>
<g id="a_node21"><a xlink:href="wld__th__mockVendor_8c.html" target="_top" xlink:title=" ">
<polygon fill="white" stroke="black" points="2304.5,-0.5 2304.5,-30.5 2414.5,-30.5 2414.5,-0.5 2304.5,-0.5"/>
<text text-anchor="start" x="2312.5" y="-18.5" font-family="Helvetica,sans-Serif" font-size="10.00">test/testHelper/wld</text>
<text text-anchor="middle" x="2359.5" y="-7.5" font-family="Helvetica,sans-Serif" font-size="10.00">_th_mockVendor.c</text>
</a>
</g>
</g>
<!-- Node1&#45;&gt;Node21 -->
<g id="edge24" class="edge">
<title>Node1&#45;&gt;Node21</title>
<path fill="none" stroke="midnightblue" d="M1562.98,-141.63C1645.06,-132.78 1789.97,-116.32 1913.5,-98 2084,-72.72 2126.51,-64.94 2295.5,-31 2298.4,-30.42 2301.38,-29.8 2304.38,-29.17"/>
<polygon fill="midnightblue" stroke="midnightblue" points="1562.37,-138.18 1552.8,-142.73 1563.12,-145.14 1562.37,-138.18"/>
</g>
<!-- Node22 -->
<g id="node22" class="node">
<title>Node22</title>
<g id="a_node22"><a xlink:href="wld__th__radio_8c.html" target="_top" xlink:title=" ">
<polygon fill="white" stroke="black" points="2453.5,-67.5 2453.5,-97.5 2563.5,-97.5 2563.5,-67.5 2453.5,-67.5"/>
<text text-anchor="start" x="2461.5" y="-85.5" font-family="Helvetica,sans-Serif" font-size="10.00">test/testHelper/wld</text>
<text text-anchor="middle" x="2508.5" y="-74.5" font-family="Helvetica,sans-Serif" font-size="10.00">_th_radio.c</text>
</a>
</g>
</g>
<!-- Node1&#45;&gt;Node22 -->
<g id="edge25" class="edge">
<title>Node1&#45;&gt;Node22</title>
<path fill="none" stroke="midnightblue" d="M1562.76,-148.82C1716.94,-148.74 2115.51,-143.7 2444.5,-98 2447.43,-97.59 2450.43,-97.12 2453.45,-96.59"/>
<polygon fill="midnightblue" stroke="midnightblue" points="1562.52,-145.32 1552.52,-148.81 1562.52,-152.32 1562.52,-145.32"/>
</g>
<!-- Node23 -->
<g id="node23" class="node">
<title>Node23</title>
<g id="a_node23"><a xlink:href="wld__th__sensing_8c.html" target="_top" xlink:title=" ">
<polygon fill="white" stroke="black" points="2432.5,-0.5 2432.5,-30.5 2542.5,-30.5 2542.5,-0.5 2432.5,-0.5"/>
<text text-anchor="start" x="2440.5" y="-18.5" font-family="Helvetica,sans-Serif" font-size="10.00">test/testHelper/wld</text>
<text text-anchor="middle" x="2487.5" y="-7.5" font-family="Helvetica,sans-Serif" font-size="10.00">_th_sensing.c</text>
</a>
</g>
</g>
<!-- Node1&#45;&gt;Node23 -->
<g id="edge26" class="edge">
<title>Node1&#45;&gt;Node23</title>
<path fill="none" stroke="midnightblue" d="M1562.68,-146.56C1738.34,-141.03 2212.75,-123.84 2278.5,-98 2298.79,-90.03 2297.23,-77.18 2316.5,-67 2336.69,-56.34 2390.38,-41.2 2432.27,-30.28"/>
<polygon fill="midnightblue" stroke="midnightblue" points="1562.43,-143.07 1552.55,-146.88 1562.65,-150.07 1562.43,-143.07"/>
</g>
<!-- Node24 -->
<g id="node24" class="node">
<title>Node24</title>
<g id="a_node24"><a xlink:href="wld__th__sensing_8h.html" target="_top" xlink:title=" ">
<polygon fill="white" stroke="black" points="2159.5,-67.5 2159.5,-97.5 2269.5,-97.5 2269.5,-67.5 2159.5,-67.5"/>
<text text-anchor="start" x="2167.5" y="-85.5" font-family="Helvetica,sans-Serif" font-size="10.00">test/testHelper/wld</text>
<text text-anchor="middle" x="2214.5" y="-74.5" font-family="Helvetica,sans-Serif" font-size="10.00">_th_sensing.h</text>
</a>
</g>
</g>
<!-- Node1&#45;&gt;Node24 -->
<g id="edge27" class="edge">
<title>Node1&#45;&gt;Node24</title>
<path fill="none" stroke="midnightblue" d="M1562.64,-145.44C1678.05,-139.54 1925.82,-124.77 2133.5,-98 2141.86,-96.92 2150.67,-95.57 2159.28,-94.13"/>
<polygon fill="midnightblue" stroke="midnightblue" points="1562.37,-141.95 1552.56,-145.95 1562.72,-148.94 1562.37,-141.95"/>
</g>
<!-- Node6&#45;&gt;Node2 -->
<g id="edge6" class="edge">
<title>Node6&#45;&gt;Node2</title>
<path fill="none" stroke="midnightblue" d="M1050.23,-79.89C857.08,-74.87 290.43,-58.18 107.5,-31 98.16,-29.61 88.13,-27.38 79.08,-25.08"/>
<polygon fill="midnightblue" stroke="midnightblue" points="1050.15,-83.39 1060.23,-80.15 1050.33,-76.39 1050.15,-83.39"/>
</g>
<!-- Node6&#45;&gt;Node3 -->
<g id="edge8" class="edge">
<title>Node6&#45;&gt;Node3</title>
<path fill="none" stroke="midnightblue" d="M1050.15,-81.34C903.98,-80.21 539.79,-73 238.5,-31 235.75,-30.62 232.95,-30.18 230.12,-29.7"/>
<polygon fill="midnightblue" stroke="midnightblue" points="1050.27,-84.84 1060.3,-81.42 1050.32,-77.84 1050.27,-84.84"/>
</g>
<!-- Node6&#45;&gt;Node4 -->
<g id="edge9" class="edge">
<title>Node6&#45;&gt;Node4</title>
<path fill="none" stroke="midnightblue" d="M1049.93,-80.07C920.58,-76.59 623.61,-65.24 376.5,-31 373.47,-30.58 370.37,-30.1 367.25,-29.59"/>
<polygon fill="midnightblue" stroke="midnightblue" points="1049.98,-83.58 1060.07,-80.34 1050.17,-76.58 1049.98,-83.58"/>
</g>
<!-- Node6&#45;&gt;Node5 -->
<g id="edge10" class="edge">
<title>Node6&#45;&gt;Node5</title>
<path fill="none" stroke="midnightblue" d="M1049.85,-77.25C914.44,-68.28 608.18,-46.95 504.5,-31 501.57,-30.55 498.58,-30.04 495.56,-29.49"/>
<polygon fill="midnightblue" stroke="midnightblue" points="1049.87,-80.75 1060.07,-77.92 1050.33,-73.77 1049.87,-80.75"/>
</g>
<!-- Node7 -->
<g id="node7" class="node">
<title>Node7</title>
<g id="a_node7"><a xlink:href="test__startStop_8c.html" target="_top" xlink:title=" ">
<polygon fill="white" stroke="black" points="1041.5,-0.5 1041.5,-30.5 1145.5,-30.5 1145.5,-0.5 1041.5,-0.5"/>
<text text-anchor="start" x="1049.5" y="-18.5" font-family="Helvetica,sans-Serif" font-size="10.00">test/startStop/test</text>
<text text-anchor="middle" x="1093.5" y="-7.5" font-family="Helvetica,sans-Serif" font-size="10.00">_startStop.c</text>
</a>
</g>
</g>
<!-- Node6&#45;&gt;Node7 -->
<g id="edge7" class="edge">
<title>Node6&#45;&gt;Node7</title>
<path fill="none" stroke="midnightblue" d="M1107.44,-57.7C1104.36,-48.59 1100.94,-38.49 1098.26,-30.58"/>
<polygon fill="midnightblue" stroke="midnightblue" points="1104.21,-59.05 1110.73,-67.4 1110.84,-56.8 1104.21,-59.05"/>
</g>
<!-- Node6&#45;&gt;Node8 -->
<g id="edge11" class="edge">
<title>Node6&#45;&gt;Node8</title>
<path fill="none" stroke="midnightblue" d="M1050.42,-76.74C958.65,-69.54 786.14,-54.21 640.5,-31 637.4,-30.51 634.23,-29.96 631.03,-29.39"/>
<polygon fill="midnightblue" stroke="midnightblue" points="1050.16,-80.23 1060.4,-77.52 1050.7,-73.25 1050.16,-80.23"/>
</g>
<!-- Node6&#45;&gt;Node9 -->
<g id="edge12" class="edge">
<title>Node6&#45;&gt;Node9</title>
<path fill="none" stroke="midnightblue" d="M1050.05,-73.25C980.86,-64.21 868.66,-48.62 772.5,-31 769.62,-30.47 766.66,-29.91 763.69,-29.32"/>
<polygon fill="midnightblue" stroke="midnightblue" points="1049.99,-76.77 1060.35,-74.59 1050.89,-69.83 1049.99,-76.77"/>
</g>
<!-- Node6&#45;&gt;Node10 -->
<g id="edge13" class="edge">
<title>Node6&#45;&gt;Node10</title>
<path fill="none" stroke="midnightblue" d="M1050.62,-66.39C1002.2,-55.1 936.77,-39.86 891.03,-29.2"/>
<polygon fill="midnightblue" stroke="midnightblue" points="1049.85,-69.8 1060.38,-68.66 1051.43,-62.98 1049.85,-69.8"/>
</g>
<!-- Node6&#45;&gt;Node11 -->
<g id="edge14" class="edge">
<title>Node6&#45;&gt;Node11</title>
<path fill="none" stroke="midnightblue" d="M1147.28,-62.02C1163.77,-51.9 1183.55,-39.77 1198.54,-30.58"/>
<polygon fill="midnightblue" stroke="midnightblue" points="1145.2,-59.18 1138.5,-67.4 1148.85,-65.15 1145.2,-59.18"/>
</g>
<!-- Node6&#45;&gt;Node12 -->
<g id="edge15" class="edge">
<title>Node6&#45;&gt;Node12</title>
<path fill="none" stroke="midnightblue" d="M1177.75,-64.85C1217.36,-54.25 1268.11,-40.68 1305.75,-30.61"/>
<polygon fill="midnightblue" stroke="midnightblue" points="1176.68,-61.51 1167.93,-67.48 1178.49,-68.27 1176.68,-61.51"/>
</g>
<!-- Node6&#45;&gt;Node13 -->
<g id="edge16" class="edge">
<title>Node6&#45;&gt;Node13</title>
<path fill="none" stroke="midnightblue" d="M1181.02,-71.85C1244.45,-62.29 1343.27,-46.82 1428.5,-31 1431.51,-30.44 1434.59,-29.85 1437.7,-29.25"/>
<polygon fill="midnightblue" stroke="midnightblue" points="1180.13,-68.44 1170.76,-73.39 1181.17,-75.37 1180.13,-68.44"/>
</g>
<!-- Node6&#45;&gt;Node14 -->
<g id="edge17" class="edge">
<title>Node6&#45;&gt;Node14</title>
<path fill="none" stroke="midnightblue" d="M1180.86,-75.96C1268.64,-68.12 1429.34,-52.31 1565.5,-31 1568.52,-30.53 1571.61,-30.01 1574.73,-29.48"/>
<polygon fill="midnightblue" stroke="midnightblue" points="1180.43,-72.49 1170.78,-76.86 1181.05,-79.46 1180.43,-72.49"/>
</g>
<!-- Node6&#45;&gt;Node15 -->
<g id="edge18" class="edge">
<title>Node6&#45;&gt;Node15</title>
<path fill="none" stroke="midnightblue" d="M1181.09,-77.85C1290.66,-71.32 1517.69,-55.94 1708.5,-31 1711.65,-30.59 1714.87,-30.14 1718.12,-29.66"/>
<polygon fill="midnightblue" stroke="midnightblue" points="1180.64,-74.37 1170.86,-78.45 1181.05,-81.36 1180.64,-74.37"/>
</g>
<!-- Node16 -->
<g id="node16" class="node">
<title>Node16</title>
<g id="a_node16"><a xlink:href="test__channel5G_8c.html" target="_top" xlink:title=" ">
<polygon fill="white" stroke="black" points="909.5,-0.5 909.5,-30.5 1023.5,-30.5 1023.5,-0.5 909.5,-0.5"/>
<text text-anchor="start" x="917.5" y="-18.5" font-family="Helvetica,sans-Serif" font-size="10.00">test/test_channel5G</text>
<text text-anchor="middle" x="966.5" y="-7.5" font-family="Helvetica,sans-Serif" font-size="10.00">/test_channel5G.c</text>
</a>
</g>
</g>
<!-- Node6&#45;&gt;Node16 -->
<g id="edge19" class="edge">
<title>Node6&#45;&gt;Node16</title>
<path fill="none" stroke="midnightblue" d="M1073.71,-63.27C1049.98,-52.92 1020.72,-40.15 998.77,-30.58"/>
<polygon fill="midnightblue" stroke="midnightblue" points="1072.6,-66.61 1083.17,-67.4 1075.4,-60.19 1072.6,-66.61"/>
</g>
<!-- Node6&#45;&gt;Node17 -->
<g id="edge20" class="edge">
<title>Node6&#45;&gt;Node17</title>
<path fill="none" stroke="midnightblue" d="M1181.06,-80.03C1312.55,-76.44 1617.6,-64.9 1871.5,-31 1874.53,-30.6 1877.63,-30.14 1880.75,-29.64"/>
<polygon fill="midnightblue" stroke="midnightblue" points="1180.67,-76.54 1170.77,-80.31 1180.86,-83.54 1180.67,-76.54"/>
</g>
<!-- Node6&#45;&gt;Node18 -->
<g id="edge21" class="edge">
<title>Node6&#45;&gt;Node18</title>
<path fill="none" stroke="midnightblue" d="M1181.05,-81.01C1329.85,-79.21 1704.28,-70.74 2014.5,-31 2017.66,-30.59 2020.89,-30.13 2024.15,-29.62"/>
<polygon fill="midnightblue" stroke="midnightblue" points="1180.69,-77.52 1170.73,-81.13 1180.77,-84.52 1180.69,-77.52"/>
</g>
<!-- Node6&#45;&gt;Node19 -->
<g id="edge22" class="edge">
<title>Node6&#45;&gt;Node19</title>
<path fill="none" stroke="midnightblue" d="M1181.01,-81.92C1345.79,-82.21 1790.56,-78.14 2157.5,-31 2160.41,-30.63 2163.39,-30.19 2166.38,-29.72"/>
<polygon fill="midnightblue" stroke="midnightblue" points="1180.57,-78.42 1170.56,-81.9 1180.56,-85.42 1180.57,-78.42"/>
</g>
<!-- Node24&#45;&gt;Node19 -->
<g id="edge30" class="edge">
<title>Node24&#45;&gt;Node19</title>
<path fill="none" stroke="midnightblue" d="M2218.95,-57.4C2220.62,-48.37 2222.46,-38.41 2223.9,-30.58"/>
<polygon fill="midnightblue" stroke="midnightblue" points="2215.48,-56.93 2217.1,-67.4 2222.36,-58.2 2215.48,-56.93"/>
</g>
<!-- Node24&#45;&gt;Node21 -->
<g id="edge28" class="edge">
<title>Node24&#45;&gt;Node21</title>
<path fill="none" stroke="midnightblue" d="M2255.17,-63.27C2278.26,-52.92 2306.74,-40.15 2328.1,-30.58"/>
<polygon fill="midnightblue" stroke="midnightblue" points="2253.66,-60.11 2245.96,-67.4 2256.52,-66.5 2253.66,-60.11"/>
</g>
<!-- Node24&#45;&gt;Node23 -->
<g id="edge29" class="edge">
<title>Node24&#45;&gt;Node23</title>
<path fill="none" stroke="midnightblue" d="M2279.73,-65.97C2326.3,-54.88 2388.23,-40.14 2432.34,-29.63"/>
<polygon fill="midnightblue" stroke="midnightblue" points="2278.66,-62.63 2269.75,-68.35 2280.28,-69.43 2278.66,-62.63"/>
</g>
</g>
</svg>
