<?xml version="1.0" encoding="UTF-8" standalone="no"?>
<!DOCTYPE svg PUBLIC "-//W3C//DTD SVG 1.1//EN"
 "http://www.w3.org/Graphics/SVG/1.1/DTD/svg11.dtd">
<!-- Generated by graphviz version 2.43.0 (0)
 -->
<!-- Title: wld_nl80211_cleanNlAttrList Pages: 1 -->
<svg width="337pt" height="28pt"
 viewBox="0.00 0.00 337.00 28.00" xmlns="http://www.w3.org/2000/svg" xmlns:xlink="http://www.w3.org/1999/xlink">
<g id="graph0" class="graph" transform="scale(1 1) rotate(0) translate(4 24)">
<title>wld_nl80211_cleanNlAttrList</title>
<polygon fill="white" stroke="transparent" points="-4,4 -4,-24 333,-24 333,4 -4,4"/>
<!-- Node1 -->
<g id="node1" class="node">
<title>Node1</title>
<g id="a_node1"><a xlink:title=" ">
<polygon fill="#bfbfbf" stroke="black" points="174,-0.5 174,-19.5 329,-19.5 329,-0.5 174,-0.5"/>
<text text-anchor="middle" x="251.5" y="-7.5" font-family="Helvetica,sans-Serif" font-size="10.00">wld_nl80211_cleanNlAttrList</text>
</a>
</g>
</g>
<!-- Node2 -->
<g id="node2" class="node">
<title>Node2</title>
<g id="a_node2"><a xlink:href="wld__nl80211__attr_8c.html#a477186d4ccc978692cc22855dd0faf58" target="_top" xlink:title=" ">
<polygon fill="white" stroke="black" points="0,-0.5 0,-19.5 138,-19.5 138,-0.5 0,-0.5"/>
<text text-anchor="middle" x="69" y="-7.5" font-family="Helvetica,sans-Serif" font-size="10.00">wld_nl80211_cleanNlAttr</text>
</a>
</g>
</g>
<!-- Node1&#45;&gt;Node2 -->
<g id="edge1" class="edge">
<title>Node1&#45;&gt;Node2</title>
<path fill="none" stroke="midnightblue" d="M163.84,-3.25C155.19,-3.23 146.5,-3.29 138.09,-3.43"/>
<polygon fill="midnightblue" stroke="midnightblue" points="163.93,-6.76 173.95,-3.32 163.97,0.24 163.93,-6.76"/>
</g>
<!-- Node2&#45;&gt;Node1 -->
<g id="edge2" class="edge">
<title>Node2&#45;&gt;Node1</title>
<path fill="none" stroke="midnightblue" d="M148.35,-16.7C156.85,-16.77 165.48,-16.77 173.95,-16.68"/>
<polygon fill="midnightblue" stroke="midnightblue" points="148.13,-13.19 138.09,-16.57 148.04,-20.19 148.13,-13.19"/>
</g>
</g>
</svg>
