<?xml version="1.0" encoding="UTF-8" standalone="no"?>
<!DOCTYPE svg PUBLIC "-//W3C//DTD SVG 1.1//EN"
 "http://www.w3.org/Graphics/SVG/1.1/DTD/svg11.dtd">
<!-- Generated by graphviz version 2.43.0 (0)
 -->
<!-- Title: src/Utils/wld_monitor.c Pages: 1 -->
<svg width="4403pt" height="308pt"
 viewBox="0.00 0.00 4402.50 308.00" xmlns="http://www.w3.org/2000/svg" xmlns:xlink="http://www.w3.org/1999/xlink">
<g id="graph0" class="graph" transform="scale(1 1) rotate(0) translate(4 304)">
<title>src/Utils/wld_monitor.c</title>
<polygon fill="white" stroke="transparent" points="-4,4 -4,-304 4398.5,-304 4398.5,4 -4,4"/>
<!-- Node1 -->
<g id="node1" class="node">
<title>Node1</title>
<g id="a_node1"><a xlink:title=" ">
<polygon fill="#bfbfbf" stroke="black" points="1687,-280.5 1687,-299.5 1815,-299.5 1815,-280.5 1687,-280.5"/>
<text text-anchor="middle" x="1751" y="-287.5" font-family="Helvetica,sans-Serif" font-size="10.00">src/Utils/wld_monitor.c</text>
</a>
</g>
</g>
<!-- Node2 -->
<g id="node2" class="node">
<title>Node2</title>
<g id="a_node2"><a xlink:title=" ">
<polygon fill="white" stroke="#bfbfbf" points="1152,-224.5 1152,-243.5 1202,-243.5 1202,-224.5 1152,-224.5"/>
<text text-anchor="middle" x="1177" y="-231.5" font-family="Helvetica,sans-Serif" font-size="10.00">stdio.h</text>
</a>
</g>
</g>
<!-- Node1&#45;&gt;Node2 -->
<g id="edge1" class="edge">
<title>Node1&#45;&gt;Node2</title>
<path fill="none" stroke="midnightblue" d="M1686.95,-287.3C1587.24,-283.85 1388.88,-273.79 1212.14,-243.9"/>
<polygon fill="midnightblue" stroke="midnightblue" points="1212.59,-240.42 1202.14,-242.18 1211.41,-247.32 1212.59,-240.42"/>
</g>
<!-- Node3 -->
<g id="node3" class="node">
<title>Node3</title>
<g id="a_node3"><a xlink:title=" ">
<polygon fill="white" stroke="#bfbfbf" points="1220.5,-224.5 1220.5,-243.5 1273.5,-243.5 1273.5,-224.5 1220.5,-224.5"/>
<text text-anchor="middle" x="1247" y="-231.5" font-family="Helvetica,sans-Serif" font-size="10.00">stdlib.h</text>
</a>
</g>
</g>
<!-- Node1&#45;&gt;Node3 -->
<g id="edge2" class="edge">
<title>Node1&#45;&gt;Node3</title>
<path fill="none" stroke="midnightblue" d="M1686.85,-286.02C1598.17,-281.2 1433.04,-269.69 1283.91,-244.1"/>
<polygon fill="midnightblue" stroke="midnightblue" points="1284.11,-240.58 1273.66,-242.31 1282.91,-247.48 1284.11,-240.58"/>
</g>
<!-- Node4 -->
<g id="node4" class="node">
<title>Node4</title>
<g id="a_node4"><a xlink:title=" ">
<polygon fill="white" stroke="#bfbfbf" points="1291.5,-224.5 1291.5,-243.5 1344.5,-243.5 1344.5,-224.5 1291.5,-224.5"/>
<text text-anchor="middle" x="1318" y="-231.5" font-family="Helvetica,sans-Serif" font-size="10.00">string.h</text>
</a>
</g>
</g>
<!-- Node1&#45;&gt;Node4 -->
<g id="edge3" class="edge">
<title>Node1&#45;&gt;Node4</title>
<path fill="none" stroke="midnightblue" d="M1686.84,-284.51C1609.92,-278.51 1477.01,-266.18 1354.59,-244.08"/>
<polygon fill="midnightblue" stroke="midnightblue" points="1355.13,-240.62 1344.67,-242.27 1353.87,-247.51 1355.13,-240.62"/>
</g>
<!-- Node5 -->
<g id="node5" class="node">
<title>Node5</title>
<g id="a_node5"><a xlink:title=" ">
<polygon fill="white" stroke="#bfbfbf" points="1362.5,-224.5 1362.5,-243.5 1463.5,-243.5 1463.5,-224.5 1362.5,-224.5"/>
<text text-anchor="middle" x="1413" y="-231.5" font-family="Helvetica,sans-Serif" font-size="10.00">debug/sahtrace.h</text>
</a>
</g>
</g>
<!-- Node1&#45;&gt;Node5 -->
<g id="edge4" class="edge">
<title>Node1&#45;&gt;Node5</title>
<path fill="none" stroke="midnightblue" d="M1697.44,-280.44C1636.48,-270.7 1537.14,-254.83 1473.45,-244.66"/>
<polygon fill="midnightblue" stroke="midnightblue" points="1473.97,-241.2 1463.55,-243.08 1472.87,-248.11 1473.97,-241.2"/>
</g>
<!-- Node6 -->
<g id="node6" class="node">
<title>Node6</title>
<g id="a_node6"><a xlink:title=" ">
<polygon fill="white" stroke="#bfbfbf" points="1482,-224.5 1482,-243.5 1538,-243.5 1538,-224.5 1482,-224.5"/>
<text text-anchor="middle" x="1510" y="-231.5" font-family="Helvetica,sans-Serif" font-size="10.00">assert.h</text>
</a>
</g>
</g>
<!-- Node1&#45;&gt;Node6 -->
<g id="edge5" class="edge">
<title>Node1&#45;&gt;Node6</title>
<path fill="none" stroke="midnightblue" d="M1711.07,-280.46C1671.99,-272.04 1610.52,-258.64 1548.26,-244.26"/>
<polygon fill="midnightblue" stroke="midnightblue" points="1548.8,-240.79 1538.27,-241.94 1547.22,-247.61 1548.8,-240.79"/>
</g>
<!-- Node7 -->
<g id="node7" class="node">
<title>Node7</title>
<g id="a_node7"><a xlink:title=" ">
<polygon fill="white" stroke="#bfbfbf" points="1556,-224.5 1556,-243.5 1606,-243.5 1606,-224.5 1556,-224.5"/>
<text text-anchor="middle" x="1581" y="-231.5" font-family="Helvetica,sans-Serif" font-size="10.00">net/if.h</text>
</a>
</g>
</g>
<!-- Node1&#45;&gt;Node7 -->
<g id="edge6" class="edge">
<title>Node1&#45;&gt;Node7</title>
<path fill="none" stroke="midnightblue" d="M1724.06,-280.44C1694.83,-271.16 1648.05,-256.3 1616,-246.12"/>
<polygon fill="midnightblue" stroke="midnightblue" points="1616.74,-242.68 1606.15,-242.99 1614.62,-249.35 1616.74,-242.68"/>
</g>
<!-- Node8 -->
<g id="node8" class="node">
<title>Node8</title>
<g id="a_node8"><a xlink:title=" ">
<polygon fill="white" stroke="#bfbfbf" points="1624,-224.5 1624,-243.5 1690,-243.5 1690,-224.5 1624,-224.5"/>
<text text-anchor="middle" x="1657" y="-231.5" font-family="Helvetica,sans-Serif" font-size="10.00">sys/ioctl.h</text>
</a>
</g>
</g>
<!-- Node1&#45;&gt;Node8 -->
<g id="edge7" class="edge">
<title>Node1&#45;&gt;Node8</title>
<path fill="none" stroke="midnightblue" d="M1735.9,-280.32C1721.1,-271.82 1698.31,-258.73 1681.02,-248.8"/>
<polygon fill="midnightblue" stroke="midnightblue" points="1682.48,-245.6 1672.07,-243.65 1678.99,-251.67 1682.48,-245.6"/>
</g>
<!-- Node9 -->
<g id="node9" class="node">
<title>Node9</title>
<g id="a_node9"><a xlink:href="wld_8h.html" target="_top" xlink:title=" ">
<polygon fill="white" stroke="red" points="1963.5,-168.5 1963.5,-187.5 2006.5,-187.5 2006.5,-168.5 1963.5,-168.5"/>
<text text-anchor="middle" x="1985" y="-175.5" font-family="Helvetica,sans-Serif" font-size="10.00">wld.h</text>
</a>
</g>
</g>
<!-- Node1&#45;&gt;Node9 -->
<g id="edge8" class="edge">
<title>Node1&#45;&gt;Node9</title>
<path fill="none" stroke="midnightblue" d="M1760.83,-280.24C1776.67,-266.51 1809.29,-239.88 1841,-224 1877.66,-205.64 1923.33,-192.91 1953.29,-185.79"/>
<polygon fill="midnightblue" stroke="midnightblue" points="1954.23,-189.16 1963.18,-183.5 1952.65,-182.34 1954.23,-189.16"/>
</g>
<!-- Node55 -->
<g id="node44" class="node">
<title>Node55</title>
<g id="a_node44"><a xlink:title=" ">
<polygon fill="white" stroke="#bfbfbf" points="4297.5,-112.5 4297.5,-131.5 4394.5,-131.5 4394.5,-112.5 4297.5,-112.5"/>
<text text-anchor="middle" x="4346" y="-119.5" font-family="Helvetica,sans-Serif" font-size="10.00">swl/swl_assert.h</text>
</a>
</g>
</g>
<!-- Node1&#45;&gt;Node55 -->
<g id="edge60" class="edge">
<title>Node1&#45;&gt;Node55</title>
<path fill="none" stroke="midnightblue" d="M1815.39,-287.2C2102.97,-278.7 3298.68,-238.53 4287.15,-131.99"/>
<polygon fill="midnightblue" stroke="midnightblue" points="4287.74,-135.44 4297.31,-130.89 4286.99,-128.48 4287.74,-135.44"/>
</g>
<!-- Node82 -->
<g id="node45" class="node">
<title>Node82</title>
<g id="a_node45"><a xlink:href="wld__util_8h.html" target="_top" xlink:title=" ">
<polygon fill="white" stroke="black" points="1850,-224.5 1850,-243.5 1914,-243.5 1914,-224.5 1850,-224.5"/>
<text text-anchor="middle" x="1882" y="-231.5" font-family="Helvetica,sans-Serif" font-size="10.00">wld_util.h</text>
</a>
</g>
</g>
<!-- Node1&#45;&gt;Node82 -->
<g id="edge50" class="edge">
<title>Node1&#45;&gt;Node82</title>
<path fill="none" stroke="midnightblue" d="M1771.76,-280.44C1793.32,-271.56 1827.26,-257.56 1851.79,-247.45"/>
<polygon fill="midnightblue" stroke="midnightblue" points="1853.43,-250.56 1861.34,-243.52 1850.76,-244.09 1853.43,-250.56"/>
</g>
<!-- Node83 -->
<g id="node46" class="node">
<title>Node83</title>
<g id="a_node46"><a xlink:href="wld__accesspoint_8h.html" target="_top" xlink:title=" ">
<polygon fill="white" stroke="red" points="1932,-224.5 1932,-243.5 2038,-243.5 2038,-224.5 1932,-224.5"/>
<text text-anchor="middle" x="1985" y="-231.5" font-family="Helvetica,sans-Serif" font-size="10.00">wld_accesspoint.h</text>
</a>
</g>
</g>
<!-- Node1&#45;&gt;Node83 -->
<g id="edge52" class="edge">
<title>Node1&#45;&gt;Node83</title>
<path fill="none" stroke="midnightblue" d="M1788.08,-280.44C1828.73,-271.06 1894.03,-255.99 1938.18,-245.8"/>
<polygon fill="midnightblue" stroke="midnightblue" points="1939.14,-249.18 1948.1,-243.52 1937.56,-242.35 1939.14,-249.18"/>
</g>
<!-- Node85 -->
<g id="node47" class="node">
<title>Node85</title>
<g id="a_node47"><a xlink:href="wld__ssid_8h.html" target="_top" xlink:title=" ">
<polygon fill="white" stroke="black" points="2056,-224.5 2056,-243.5 2124,-243.5 2124,-224.5 2056,-224.5"/>
<text text-anchor="middle" x="2090" y="-231.5" font-family="Helvetica,sans-Serif" font-size="10.00">wld_ssid.h</text>
</a>
</g>
</g>
<!-- Node1&#45;&gt;Node85 -->
<g id="edge54" class="edge">
<title>Node1&#45;&gt;Node85</title>
<path fill="none" stroke="midnightblue" d="M1813.82,-280.48C1871.62,-272.41 1959.96,-259.48 2045.85,-244.13"/>
<polygon fill="midnightblue" stroke="midnightblue" points="2046.54,-247.56 2055.77,-242.34 2045.3,-240.67 2046.54,-247.56"/>
</g>
<!-- Node86 -->
<g id="node48" class="node">
<title>Node86</title>
<g id="a_node48"><a xlink:href="wld__radio_8h.html" target="_top" xlink:title=" ">
<polygon fill="white" stroke="red" points="2142.5,-224.5 2142.5,-243.5 2215.5,-243.5 2215.5,-224.5 2142.5,-224.5"/>
<text text-anchor="middle" x="2179" y="-231.5" font-family="Helvetica,sans-Serif" font-size="10.00">wld_radio.h</text>
</a>
</g>
</g>
<!-- Node1&#45;&gt;Node86 -->
<g id="edge56" class="edge">
<title>Node1&#45;&gt;Node86</title>
<path fill="none" stroke="midnightblue" d="M1815.07,-282.95C1889.05,-275.64 2014.57,-262.18 2132.46,-243.97"/>
<polygon fill="midnightblue" stroke="midnightblue" points="2133.04,-247.42 2142.39,-242.42 2131.97,-240.51 2133.04,-247.42"/>
</g>
<!-- Node93 -->
<g id="node49" class="node">
<title>Node93</title>
<g id="a_node49"><a xlink:href="wld__assocdev_8h.html" target="_top" xlink:title=" ">
<polygon fill="white" stroke="red" points="2233.5,-224.5 2233.5,-243.5 2326.5,-243.5 2326.5,-224.5 2233.5,-224.5"/>
<text text-anchor="middle" x="2280" y="-231.5" font-family="Helvetica,sans-Serif" font-size="10.00">wld_assocdev.h</text>
</a>
</g>
</g>
<!-- Node1&#45;&gt;Node93 -->
<g id="edge58" class="edge">
<title>Node1&#45;&gt;Node93</title>
<path fill="none" stroke="midnightblue" d="M1815.17,-284.29C1904.47,-277.43 2071.5,-263.49 2223.25,-244.16"/>
<polygon fill="midnightblue" stroke="midnightblue" points="2223.75,-247.62 2233.22,-242.87 2222.86,-240.68 2223.75,-247.62"/>
</g>
<!-- Node96 -->
<g id="node50" class="node">
<title>Node96</title>
<g id="a_node50"><a xlink:href="wld__monitor_8h.html" target="_top" xlink:title=" ">
<polygon fill="white" stroke="black" points="1708,-224.5 1708,-243.5 1794,-243.5 1794,-224.5 1708,-224.5"/>
<text text-anchor="middle" x="1751" y="-231.5" font-family="Helvetica,sans-Serif" font-size="10.00">wld_monitor.h</text>
</a>
</g>
</g>
<!-- Node1&#45;&gt;Node96 -->
<g id="edge61" class="edge">
<title>Node1&#45;&gt;Node96</title>
<path fill="none" stroke="midnightblue" d="M1751,-280.08C1751,-273.01 1751,-262.86 1751,-253.99"/>
<polygon fill="midnightblue" stroke="midnightblue" points="1754.5,-253.75 1751,-243.75 1747.5,-253.75 1754.5,-253.75"/>
</g>
<!-- Node10 -->
<g id="node10" class="node">
<title>Node10</title>
<g id="a_node10"><a xlink:title=" ">
<polygon fill="white" stroke="#bfbfbf" points="0,-56.5 0,-75.5 62,-75.5 62,-56.5 0,-56.5"/>
<text text-anchor="middle" x="31" y="-63.5" font-family="Helvetica,sans-Serif" font-size="10.00">stdbool.h</text>
</a>
</g>
</g>
<!-- Node9&#45;&gt;Node10 -->
<g id="edge9" class="edge">
<title>Node9&#45;&gt;Node10</title>
<path fill="none" stroke="midnightblue" d="M1963.41,-176.85C1753.95,-175.37 89.96,-162.68 50,-132 36.18,-121.39 31.99,-101.27 30.92,-86.22"/>
<polygon fill="midnightblue" stroke="midnightblue" points="34.41,-85.82 30.59,-75.93 27.41,-86.04 34.41,-85.82"/>
</g>
<!-- Node11 -->
<g id="node11" class="node">
<title>Node11</title>
<g id="a_node11"><a xlink:title=" ">
<polygon fill="white" stroke="#bfbfbf" points="279.5,-0.5 279.5,-19.5 332.5,-19.5 332.5,-0.5 279.5,-0.5"/>
<text text-anchor="middle" x="306" y="-7.5" font-family="Helvetica,sans-Serif" font-size="10.00">stdint.h</text>
</a>
</g>
</g>
<!-- Node9&#45;&gt;Node11 -->
<g id="edge10" class="edge">
<title>Node9&#45;&gt;Node11</title>
<path fill="none" stroke="midnightblue" d="M1963.33,-176.92C1778.27,-176.22 468.8,-169.88 396,-132 384.74,-126.14 338.92,-59.77 317.34,-27.89"/>
<polygon fill="midnightblue" stroke="midnightblue" points="320.21,-25.88 311.72,-19.55 314.41,-29.8 320.21,-25.88"/>
</g>
<!-- Node12 -->
<g id="node12" class="node">
<title>Node12</title>
<g id="a_node12"><a xlink:title=" ">
<polygon fill="white" stroke="#bfbfbf" points="405,-112.5 405,-131.5 515,-131.5 515,-112.5 405,-112.5"/>
<text text-anchor="middle" x="460" y="-119.5" font-family="Helvetica,sans-Serif" font-size="10.00">swl/swl_common.h</text>
</a>
</g>
</g>
<!-- Node9&#45;&gt;Node12 -->
<g id="edge11" class="edge">
<title>Node9&#45;&gt;Node12</title>
<path fill="none" stroke="midnightblue" d="M1963.07,-177.22C1829.97,-178.37 1116.78,-181.93 525.13,-131.99"/>
<polygon fill="midnightblue" stroke="midnightblue" points="525.38,-128.5 515.11,-131.14 524.78,-135.47 525.38,-128.5"/>
</g>
<!-- Node13 -->
<g id="node13" class="node">
<title>Node13</title>
<g id="a_node13"><a xlink:title=" ">
<polygon fill="white" stroke="#bfbfbf" points="533,-112.5 533,-131.5 669,-131.5 669,-112.5 533,-112.5"/>
<text text-anchor="middle" x="601" y="-119.5" font-family="Helvetica,sans-Serif" font-size="10.00">swla/swla_commonLib.h</text>
</a>
</g>
</g>
<!-- Node9&#45;&gt;Node13 -->
<g id="edge12" class="edge">
<title>Node9&#45;&gt;Node13</title>
<path fill="none" stroke="midnightblue" d="M1963.41,-176.92C1839.56,-176.32 1206.82,-171.39 679.5,-132.05"/>
<polygon fill="midnightblue" stroke="midnightblue" points="679.64,-128.55 669.41,-131.29 679.12,-135.53 679.64,-128.55"/>
</g>
<!-- Node14 -->
<g id="node14" class="node">
<title>Node14</title>
<g id="a_node14"><a xlink:title=" ">
<polygon fill="white" stroke="#bfbfbf" points="687,-112.5 687,-131.5 775,-131.5 775,-112.5 687,-112.5"/>
<text text-anchor="middle" x="731" y="-119.5" font-family="Helvetica,sans-Serif" font-size="10.00">swl/swl_uuid.h</text>
</a>
</g>
</g>
<!-- Node9&#45;&gt;Node14 -->
<g id="edge13" class="edge">
<title>Node9&#45;&gt;Node14</title>
<path fill="none" stroke="midnightblue" d="M1963.21,-177.24C1844.85,-178.35 1267.04,-180.96 785.47,-132"/>
<polygon fill="midnightblue" stroke="midnightblue" points="785.49,-128.49 775.19,-130.95 784.78,-135.45 785.49,-128.49"/>
</g>
<!-- Node15 -->
<g id="node15" class="node">
<title>Node15</title>
<g id="a_node15"><a xlink:title=" ">
<polygon fill="white" stroke="#bfbfbf" points="793,-112.5 793,-131.5 945,-131.5 945,-112.5 793,-112.5"/>
<text text-anchor="middle" x="869" y="-119.5" font-family="Helvetica,sans-Serif" font-size="10.00">swla/swla_radioStandards.h</text>
</a>
</g>
</g>
<!-- Node9&#45;&gt;Node15 -->
<g id="edge14" class="edge">
<title>Node9&#45;&gt;Node15</title>
<path fill="none" stroke="midnightblue" d="M1963.2,-176.55C1855.22,-174.21 1366.64,-162.42 955.44,-132.06"/>
<polygon fill="midnightblue" stroke="midnightblue" points="955.67,-128.57 945.44,-131.32 955.15,-135.55 955.67,-128.57"/>
</g>
<!-- Node16 -->
<g id="node16" class="node">
<title>Node16</title>
<g id="a_node16"><a xlink:title=" ">
<polygon fill="white" stroke="#bfbfbf" points="156.5,-0.5 156.5,-19.5 257.5,-19.5 257.5,-0.5 156.5,-0.5"/>
<text text-anchor="middle" x="207" y="-7.5" font-family="Helvetica,sans-Serif" font-size="10.00">swla/swla_time.h</text>
</a>
</g>
</g>
<!-- Node9&#45;&gt;Node16 -->
<g id="edge15" class="edge">
<title>Node9&#45;&gt;Node16</title>
<path fill="none" stroke="midnightblue" d="M1963.5,-177.11C1769.62,-178.06 328.52,-183.33 255,-132 221.44,-108.56 211.34,-57.72 208.3,-29.98"/>
<polygon fill="midnightblue" stroke="midnightblue" points="211.76,-29.31 207.39,-19.66 204.79,-29.93 211.76,-29.31"/>
</g>
<!-- Node17 -->
<g id="node17" class="node">
<title>Node17</title>
<g id="a_node17"><a xlink:title=" ">
<polygon fill="white" stroke="#bfbfbf" points="963.5,-112.5 963.5,-131.5 1092.5,-131.5 1092.5,-112.5 963.5,-112.5"/>
<text text-anchor="middle" x="1028" y="-119.5" font-family="Helvetica,sans-Serif" font-size="10.00">swla/swla_time_spec.h</text>
</a>
</g>
</g>
<!-- Node9&#45;&gt;Node17 -->
<g id="edge16" class="edge">
<title>Node9&#45;&gt;Node17</title>
<path fill="none" stroke="midnightblue" d="M1963.45,-176.46C1865.56,-173.89 1452.91,-161.79 1102.63,-131.98"/>
<polygon fill="midnightblue" stroke="midnightblue" points="1102.81,-128.49 1092.55,-131.12 1102.21,-135.46 1102.81,-128.49"/>
</g>
<!-- Node18 -->
<g id="node18" class="node">
<title>Node18</title>
<g id="a_node18"><a xlink:title=" ">
<polygon fill="white" stroke="#bfbfbf" points="1111,-112.5 1111,-131.5 1205,-131.5 1205,-112.5 1111,-112.5"/>
<text text-anchor="middle" x="1158" y="-119.5" font-family="Helvetica,sans-Serif" font-size="10.00">swla/swla_oui.h</text>
</a>
</g>
</g>
<!-- Node9&#45;&gt;Node18 -->
<g id="edge17" class="edge">
<title>Node9&#45;&gt;Node18</title>
<path fill="none" stroke="midnightblue" d="M1963.47,-176.54C1873.42,-174.45 1518.01,-164.56 1215.3,-132.03"/>
<polygon fill="midnightblue" stroke="midnightblue" points="1215.33,-128.51 1205.01,-130.91 1214.57,-135.47 1215.33,-128.51"/>
</g>
<!-- Node19 -->
<g id="node19" class="node">
<title>Node19</title>
<g id="a_node19"><a xlink:title=" ">
<polygon fill="white" stroke="#bfbfbf" points="1223,-112.5 1223,-131.5 1351,-131.5 1351,-112.5 1223,-112.5"/>
<text text-anchor="middle" x="1287" y="-119.5" font-family="Helvetica,sans-Serif" font-size="10.00">swla/swla_delayExec.h</text>
</a>
</g>
</g>
<!-- Node9&#45;&gt;Node19 -->
<g id="edge18" class="edge">
<title>Node9&#45;&gt;Node19</title>
<path fill="none" stroke="midnightblue" d="M1963.38,-175.84C1884.39,-171.53 1603.85,-155.48 1361.14,-132.06"/>
<polygon fill="midnightblue" stroke="midnightblue" points="1361.37,-128.57 1351.07,-131.09 1360.69,-135.54 1361.37,-128.57"/>
</g>
<!-- Node20 -->
<g id="node20" class="node">
<title>Node20</title>
<g id="a_node20"><a xlink:title=" ">
<polygon fill="white" stroke="#bfbfbf" points="1369.5,-112.5 1369.5,-131.5 1488.5,-131.5 1488.5,-112.5 1369.5,-112.5"/>
<text text-anchor="middle" x="1429" y="-119.5" font-family="Helvetica,sans-Serif" font-size="10.00">swla/swla_function.h</text>
</a>
</g>
</g>
<!-- Node9&#45;&gt;Node20 -->
<g id="edge19" class="edge">
<title>Node9&#45;&gt;Node20</title>
<path fill="none" stroke="midnightblue" d="M1963.08,-175.29C1895.52,-169.96 1684.28,-152.78 1498.63,-132.15"/>
<polygon fill="midnightblue" stroke="midnightblue" points="1499.01,-128.67 1488.69,-131.04 1498.24,-135.63 1499.01,-128.67"/>
</g>
<!-- Node21 -->
<g id="node21" class="node">
<title>Node21</title>
<g id="a_node21"><a xlink:title=" ">
<polygon fill="white" stroke="#bfbfbf" points="1506.5,-112.5 1506.5,-131.5 1647.5,-131.5 1647.5,-112.5 1506.5,-112.5"/>
<text text-anchor="middle" x="1577" y="-119.5" font-family="Helvetica,sans-Serif" font-size="10.00">swl/swl_usp_cmdStatus.h</text>
</a>
</g>
</g>
<!-- Node9&#45;&gt;Node21 -->
<g id="edge20" class="edge">
<title>Node9&#45;&gt;Node21</title>
<path fill="none" stroke="midnightblue" d="M1963.35,-174.13C1905.73,-166.51 1746.54,-145.44 1651.44,-132.85"/>
<polygon fill="midnightblue" stroke="midnightblue" points="1651.68,-129.35 1641.31,-131.51 1650.76,-136.29 1651.68,-129.35"/>
</g>
<!-- Node22 -->
<g id="node22" class="node">
<title>Node22</title>
<g id="a_node22"><a xlink:title=" ">
<polygon fill="white" stroke="#bfbfbf" points="1666,-112.5 1666,-131.5 1752,-131.5 1752,-112.5 1666,-112.5"/>
<text text-anchor="middle" x="1709" y="-119.5" font-family="Helvetica,sans-Serif" font-size="10.00">swl/swl_wps.h</text>
</a>
</g>
</g>
<!-- Node9&#45;&gt;Node22 -->
<g id="edge21" class="edge">
<title>Node9&#45;&gt;Node22</title>
<path fill="none" stroke="midnightblue" d="M1963.34,-172.76C1920.31,-164.34 1822.93,-145.29 1761.93,-133.36"/>
<polygon fill="midnightblue" stroke="midnightblue" points="1762.58,-129.92 1752.09,-131.43 1761.23,-136.79 1762.58,-129.92"/>
</g>
<!-- Node23 -->
<g id="node23" class="node">
<title>Node23</title>
<g id="a_node23"><a xlink:title=" ">
<polygon fill="white" stroke="#bfbfbf" points="1770,-112.5 1770,-131.5 1874,-131.5 1874,-112.5 1770,-112.5"/>
<text text-anchor="middle" x="1822" y="-119.5" font-family="Helvetica,sans-Serif" font-size="10.00">swl/swl_security.h</text>
</a>
</g>
</g>
<!-- Node9&#45;&gt;Node23 -->
<g id="edge22" class="edge">
<title>Node9&#45;&gt;Node23</title>
<path fill="none" stroke="midnightblue" d="M1963.35,-169.83C1936.28,-160.86 1889.56,-145.38 1857.28,-134.69"/>
<polygon fill="midnightblue" stroke="midnightblue" points="1858.36,-131.36 1847.77,-131.54 1856.16,-138 1858.36,-131.36"/>
</g>
<!-- Node24 -->
<g id="node24" class="node">
<title>Node24</title>
<g id="a_node24"><a xlink:title=" ">
<polygon fill="white" stroke="#bfbfbf" points="1892.5,-112.5 1892.5,-131.5 1975.5,-131.5 1975.5,-112.5 1892.5,-112.5"/>
<text text-anchor="middle" x="1934" y="-119.5" font-family="Helvetica,sans-Serif" font-size="10.00">amxc/amxc.h</text>
</a>
</g>
</g>
<!-- Node9&#45;&gt;Node24 -->
<g id="edge23" class="edge">
<title>Node9&#45;&gt;Node24</title>
<path fill="none" stroke="midnightblue" d="M1976.58,-168.08C1969.15,-160.22 1958.15,-148.57 1949.19,-139.08"/>
<polygon fill="midnightblue" stroke="midnightblue" points="1951.68,-136.62 1942.26,-131.75 1946.59,-141.42 1951.68,-136.62"/>
</g>
<!-- Node25 -->
<g id="node25" class="node">
<title>Node25</title>
<g id="a_node25"><a xlink:title=" ">
<polygon fill="white" stroke="#bfbfbf" points="1994,-112.5 1994,-131.5 2078,-131.5 2078,-112.5 1994,-112.5"/>
<text text-anchor="middle" x="2036" y="-119.5" font-family="Helvetica,sans-Serif" font-size="10.00">amxp/amxp.h</text>
</a>
</g>
</g>
<!-- Node9&#45;&gt;Node25 -->
<g id="edge24" class="edge">
<title>Node9&#45;&gt;Node25</title>
<path fill="none" stroke="midnightblue" d="M1993.42,-168.08C2000.85,-160.22 2011.85,-148.57 2020.81,-139.08"/>
<polygon fill="midnightblue" stroke="midnightblue" points="2023.41,-141.42 2027.74,-131.75 2018.32,-136.62 2023.41,-141.42"/>
</g>
<!-- Node26 -->
<g id="node26" class="node">
<title>Node26</title>
<g id="a_node26"><a xlink:title=" ">
<polygon fill="white" stroke="#bfbfbf" points="2096,-112.5 2096,-131.5 2236,-131.5 2236,-112.5 2096,-112.5"/>
<text text-anchor="middle" x="2166" y="-119.5" font-family="Helvetica,sans-Serif" font-size="10.00">amxd/amxd_parameter.h</text>
</a>
</g>
</g>
<!-- Node9&#45;&gt;Node26 -->
<g id="edge25" class="edge">
<title>Node9&#45;&gt;Node26</title>
<path fill="none" stroke="midnightblue" d="M2006.83,-170.49C2036.66,-161.59 2090.61,-145.49 2127.36,-134.53"/>
<polygon fill="midnightblue" stroke="midnightblue" points="2128.65,-137.8 2137.23,-131.58 2126.65,-131.09 2128.65,-137.8"/>
</g>
<!-- Node27 -->
<g id="node27" class="node">
<title>Node27</title>
<g id="a_node27"><a xlink:title=" ">
<polygon fill="white" stroke="#bfbfbf" points="2254.5,-112.5 2254.5,-131.5 2373.5,-131.5 2373.5,-112.5 2254.5,-112.5"/>
<text text-anchor="middle" x="2314" y="-119.5" font-family="Helvetica,sans-Serif" font-size="10.00">amxd/amxd_action.h</text>
</a>
</g>
</g>
<!-- Node9&#45;&gt;Node27 -->
<g id="edge26" class="edge">
<title>Node9&#45;&gt;Node27</title>
<path fill="none" stroke="midnightblue" d="M2006.59,-173.46C2055.67,-165.4 2177.17,-145.46 2251.89,-133.19"/>
<polygon fill="midnightblue" stroke="midnightblue" points="2252.81,-136.59 2262.11,-131.52 2251.67,-129.68 2252.81,-136.59"/>
</g>
<!-- Node28 -->
<g id="node28" class="node">
<title>Node28</title>
<g id="a_node28"><a xlink:title=" ">
<polygon fill="white" stroke="#bfbfbf" points="2391.5,-112.5 2391.5,-131.5 2566.5,-131.5 2566.5,-112.5 2391.5,-112.5"/>
<text text-anchor="middle" x="2479" y="-119.5" font-family="Helvetica,sans-Serif" font-size="10.00">amxd/amxd_object_parameter.h</text>
</a>
</g>
</g>
<!-- Node9&#45;&gt;Node28 -->
<g id="edge27" class="edge">
<title>Node9&#45;&gt;Node28</title>
<path fill="none" stroke="midnightblue" d="M2006.54,-174.64C2072.32,-167.46 2273.17,-145.5 2390.75,-132.65"/>
<polygon fill="midnightblue" stroke="midnightblue" points="2391.25,-136.11 2400.81,-131.55 2390.49,-129.15 2391.25,-136.11"/>
</g>
<!-- Node29 -->
<g id="node29" class="node">
<title>Node29</title>
<g id="a_node29"><a xlink:title=" ">
<polygon fill="white" stroke="#bfbfbf" points="2585,-112.5 2585,-131.5 2737,-131.5 2737,-112.5 2585,-112.5"/>
<text text-anchor="middle" x="2661" y="-119.5" font-family="Helvetica,sans-Serif" font-size="10.00">amxd/amxd_object_event.h</text>
</a>
</g>
</g>
<!-- Node9&#45;&gt;Node29 -->
<g id="edge28" class="edge">
<title>Node9&#45;&gt;Node29</title>
<path fill="none" stroke="midnightblue" d="M2006.75,-175.58C2083.09,-170.53 2346.02,-152.74 2574.39,-132.12"/>
<polygon fill="midnightblue" stroke="midnightblue" points="2574.91,-135.59 2584.55,-131.2 2574.28,-128.62 2574.91,-135.59"/>
</g>
<!-- Node30 -->
<g id="node30" class="node">
<title>Node30</title>
<g id="a_node30"><a xlink:title=" ">
<polygon fill="white" stroke="#bfbfbf" points="2755.5,-112.5 2755.5,-131.5 2884.5,-131.5 2884.5,-112.5 2755.5,-112.5"/>
<text text-anchor="middle" x="2820" y="-119.5" font-family="Helvetica,sans-Serif" font-size="10.00">amxd/amxd_function.h</text>
</a>
</g>
</g>
<!-- Node9&#45;&gt;Node30 -->
<g id="edge29" class="edge">
<title>Node9&#45;&gt;Node30</title>
<path fill="none" stroke="midnightblue" d="M2006.52,-176.22C2095.78,-172.86 2445.72,-158.71 2745.26,-132"/>
<polygon fill="midnightblue" stroke="midnightblue" points="2745.8,-135.47 2755.45,-131.09 2745.18,-128.5 2745.8,-135.47"/>
</g>
<!-- Node31 -->
<g id="node31" class="node">
<title>Node31</title>
<g id="a_node31"><a xlink:title=" ">
<polygon fill="white" stroke="#bfbfbf" points="2902.5,-112.5 2902.5,-131.5 3071.5,-131.5 3071.5,-112.5 2902.5,-112.5"/>
<text text-anchor="middle" x="2987" y="-119.5" font-family="Helvetica,sans-Serif" font-size="10.00">amxd/amxd_object_hierarchy.h</text>
</a>
</g>
</g>
<!-- Node9&#45;&gt;Node31 -->
<g id="edge30" class="edge">
<title>Node9&#45;&gt;Node31</title>
<path fill="none" stroke="midnightblue" d="M2006.83,-176.3C2106.94,-173 2532.23,-158.14 2892.27,-132.1"/>
<polygon fill="midnightblue" stroke="midnightblue" points="2892.65,-135.58 2902.37,-131.36 2892.14,-128.6 2892.65,-135.58"/>
</g>
<!-- Node32 -->
<g id="node32" class="node">
<title>Node32</title>
<g id="a_node32"><a xlink:title=" ">
<polygon fill="white" stroke="#bfbfbf" points="3089.5,-112.5 3089.5,-131.5 3208.5,-131.5 3208.5,-112.5 3089.5,-112.5"/>
<text text-anchor="middle" x="3149" y="-119.5" font-family="Helvetica,sans-Serif" font-size="10.00">amxd/amxd_object.h</text>
</a>
</g>
</g>
<!-- Node9&#45;&gt;Node32 -->
<g id="edge31" class="edge">
<title>Node9&#45;&gt;Node32</title>
<path fill="none" stroke="midnightblue" d="M2006.68,-176.84C2118.49,-175.86 2641.37,-169.45 3079.32,-132.07"/>
<polygon fill="midnightblue" stroke="midnightblue" points="3079.67,-135.55 3089.33,-131.21 3079.07,-128.58 3079.67,-135.55"/>
</g>
<!-- Node33 -->
<g id="node33" class="node">
<title>Node33</title>
<g id="a_node33"><a xlink:title=" ">
<polygon fill="white" stroke="#bfbfbf" points="3226.5,-112.5 3226.5,-131.5 3331.5,-131.5 3331.5,-112.5 3226.5,-112.5"/>
<text text-anchor="middle" x="3279" y="-119.5" font-family="Helvetica,sans-Serif" font-size="10.00">amxd/amxd_dm.h</text>
</a>
</g>
</g>
<!-- Node9&#45;&gt;Node33 -->
<g id="edge32" class="edge">
<title>Node9&#45;&gt;Node33</title>
<path fill="none" stroke="midnightblue" d="M2006.56,-177.1C2126.2,-177.46 2720.78,-176.87 3216.25,-132.06"/>
<polygon fill="midnightblue" stroke="midnightblue" points="3216.83,-135.52 3226.47,-131.12 3216.19,-128.55 3216.83,-135.52"/>
</g>
<!-- Node34 -->
<g id="node34" class="node">
<title>Node34</title>
<g id="a_node34"><a xlink:title=" ">
<polygon fill="white" stroke="#bfbfbf" points="3350,-112.5 3350,-131.5 3494,-131.5 3494,-112.5 3350,-112.5"/>
<text text-anchor="middle" x="3422" y="-119.5" font-family="Helvetica,sans-Serif" font-size="10.00">amxd/amxd_transaction.h</text>
</a>
</g>
</g>
<!-- Node9&#45;&gt;Node34 -->
<g id="edge33" class="edge">
<title>Node9&#45;&gt;Node34</title>
<path fill="none" stroke="midnightblue" d="M2006.56,-176.91C2133.03,-176.26 2791.36,-171.08 3339.52,-132.05"/>
<polygon fill="midnightblue" stroke="midnightblue" points="3339.88,-135.53 3349.6,-131.33 3339.38,-128.55 3339.88,-135.53"/>
</g>
<!-- Node35 -->
<g id="node35" class="node">
<title>Node35</title>
<g id="a_node35"><a xlink:title=" ">
<polygon fill="white" stroke="#bfbfbf" points="3512,-112.5 3512,-131.5 3628,-131.5 3628,-112.5 3512,-112.5"/>
<text text-anchor="middle" x="3570" y="-119.5" font-family="Helvetica,sans-Serif" font-size="10.00">amxb/amxb_types.h</text>
</a>
</g>
</g>
<!-- Node9&#45;&gt;Node35 -->
<g id="edge34" class="edge">
<title>Node9&#45;&gt;Node35</title>
<path fill="none" stroke="midnightblue" d="M2006.89,-177.21C2142.86,-178.31 2885.96,-181.76 3501.97,-131.99"/>
<polygon fill="midnightblue" stroke="midnightblue" points="3502.25,-135.47 3511.94,-131.18 3501.68,-128.5 3502.25,-135.47"/>
</g>
<!-- Node36 -->
<g id="node36" class="node">
<title>Node36</title>
<g id="a_node36"><a xlink:title=" ">
<polygon fill="white" stroke="#bfbfbf" points="3646,-112.5 3646,-131.5 3782,-131.5 3782,-112.5 3646,-112.5"/>
<text text-anchor="middle" x="3714" y="-119.5" font-family="Helvetica,sans-Serif" font-size="10.00">amxb/amxb_operators.h</text>
</a>
</g>
</g>
<!-- Node9&#45;&gt;Node36 -->
<g id="edge35" class="edge">
<title>Node9&#45;&gt;Node36</title>
<path fill="none" stroke="midnightblue" d="M2006.92,-177.14C2149.72,-177.89 2962.54,-179.88 3635.21,-132.06"/>
<polygon fill="midnightblue" stroke="midnightblue" points="3635.87,-135.52 3645.6,-131.32 3635.37,-128.54 3635.87,-135.52"/>
</g>
<!-- Node37 -->
<g id="node37" class="node">
<title>Node37</title>
<g id="a_node37"><a xlink:title=" ">
<polygon fill="white" stroke="#bfbfbf" points="3800,-112.5 3800,-131.5 3912,-131.5 3912,-112.5 3800,-112.5"/>
<text text-anchor="middle" x="3856" y="-119.5" font-family="Helvetica,sans-Serif" font-size="10.00">amxb/amxb_error.h</text>
</a>
</g>
</g>
<!-- Node9&#45;&gt;Node37 -->
<g id="edge36" class="edge">
<title>Node9&#45;&gt;Node37</title>
<path fill="none" stroke="midnightblue" d="M2006.68,-176.8C2183.97,-175.09 3398.55,-162.42 3789.47,-132.01"/>
<polygon fill="midnightblue" stroke="midnightblue" points="3789.98,-135.48 3799.67,-131.19 3789.43,-128.5 3789.98,-135.48"/>
</g>
<!-- Node38 -->
<g id="node38" class="node">
<title>Node38</title>
<g id="a_node38"><a xlink:title=" ">
<polygon fill="white" stroke="#bfbfbf" points="3930.5,-112.5 3930.5,-131.5 4013.5,-131.5 4013.5,-112.5 3930.5,-112.5"/>
<text text-anchor="middle" x="3972" y="-119.5" font-family="Helvetica,sans-Serif" font-size="10.00">amxo/amxo.h</text>
</a>
</g>
</g>
<!-- Node9&#45;&gt;Node38 -->
<g id="edge37" class="edge">
<title>Node9&#45;&gt;Node38</title>
<path fill="none" stroke="midnightblue" d="M2006.76,-176.95C2191.59,-176.45 3501.73,-171.58 3920.3,-131.86"/>
<polygon fill="midnightblue" stroke="midnightblue" points="3920.71,-135.34 3930.32,-130.88 3920.03,-128.37 3920.71,-135.34"/>
</g>
<!-- Node39 -->
<g id="node39" class="node">
<title>Node39</title>
<g id="a_node39"><a xlink:title=" ">
<polygon fill="white" stroke="#bfbfbf" points="4031.5,-112.5 4031.5,-131.5 4146.5,-131.5 4146.5,-112.5 4031.5,-112.5"/>
<text text-anchor="middle" x="4089" y="-119.5" font-family="Helvetica,sans-Serif" font-size="10.00">amxo/amxo_types.h</text>
</a>
</g>
</g>
<!-- Node9&#45;&gt;Node39 -->
<g id="edge38" class="edge">
<title>Node9&#45;&gt;Node39</title>
<path fill="none" stroke="midnightblue" d="M2006.67,-176.86C2196.57,-175.6 3580.63,-165.37 4021.22,-132.03"/>
<polygon fill="midnightblue" stroke="midnightblue" points="4021.75,-135.5 4031.45,-131.24 4021.21,-128.52 4021.75,-135.5"/>
</g>
<!-- Node40 -->
<g id="node40" class="node">
<title>Node40</title>
<g id="a_node40"><a xlink:href="wld__types_8h.html" target="_top" xlink:title=" ">
<polygon fill="white" stroke="red" points="252.5,-56.5 252.5,-75.5 327.5,-75.5 327.5,-56.5 252.5,-56.5"/>
<text text-anchor="middle" x="290" y="-63.5" font-family="Helvetica,sans-Serif" font-size="10.00">wld_types.h</text>
</a>
</g>
</g>
<!-- Node9&#45;&gt;Node40 -->
<g id="edge39" class="edge">
<title>Node9&#45;&gt;Node40</title>
<path fill="none" stroke="midnightblue" d="M1963.34,-176.85C1766.62,-175.46 295.14,-163.96 264,-132 250.95,-118.61 262.97,-97.84 274.64,-83.4"/>
<polygon fill="midnightblue" stroke="midnightblue" points="277.38,-85.58 281.28,-75.73 272.09,-81 277.38,-85.58"/>
</g>
<!-- Node43 -->
<g id="node41" class="node">
<title>Node43</title>
<g id="a_node41"><a xlink:href="wld__channel__types_8h.html" target="_top" xlink:title=" ">
<polygon fill="white" stroke="red" points="59.5,-112.5 59.5,-131.5 178.5,-131.5 178.5,-112.5 59.5,-112.5"/>
<text text-anchor="middle" x="119" y="-119.5" font-family="Helvetica,sans-Serif" font-size="10.00">wld_channel_types.h</text>
</a>
</g>
</g>
<!-- Node9&#45;&gt;Node43 -->
<g id="edge42" class="edge">
<title>Node9&#45;&gt;Node43</title>
<path fill="none" stroke="midnightblue" d="M1963.49,-176.74C1786.05,-174.6 561.19,-158.95 193,-132 191.69,-131.9 190.37,-131.8 189.05,-131.69"/>
<polygon fill="midnightblue" stroke="midnightblue" points="189,-128.18 178.73,-130.76 188.37,-135.15 189,-128.18"/>
</g>
<!-- Node45 -->
<g id="node42" class="node">
<title>Node45</title>
<g id="a_node42"><a xlink:href="wld__bgdfs_8h.html" target="_top" xlink:title=" ">
<polygon fill="white" stroke="black" points="273.5,-112.5 273.5,-131.5 348.5,-131.5 348.5,-112.5 273.5,-112.5"/>
<text text-anchor="middle" x="311" y="-119.5" font-family="Helvetica,sans-Serif" font-size="10.00">wld_bgdfs.h</text>
</a>
</g>
</g>
<!-- Node9&#45;&gt;Node45 -->
<g id="edge45" class="edge">
<title>Node9&#45;&gt;Node45</title>
<path fill="none" stroke="midnightblue" d="M1963.44,-176.83C1795.47,-175.43 694.12,-165.07 363,-132 361.69,-131.87 360.37,-131.73 359.03,-131.57"/>
<polygon fill="midnightblue" stroke="midnightblue" points="359.06,-128.04 348.69,-130.18 358.13,-134.98 359.06,-128.04"/>
</g>
<!-- Node46 -->
<g id="node43" class="node">
<title>Node46</title>
<g id="a_node43"><a xlink:href="wld__rad__delayMgr_8h.html" target="_top" xlink:title=" ">
<polygon fill="white" stroke="black" points="4165,-112.5 4165,-131.5 4279,-131.5 4279,-112.5 4165,-112.5"/>
<text text-anchor="middle" x="4222" y="-119.5" font-family="Helvetica,sans-Serif" font-size="10.00">wld_rad_delayMgr.h</text>
</a>
</g>
</g>
<!-- Node9&#45;&gt;Node46 -->
<g id="edge47" class="edge">
<title>Node9&#45;&gt;Node46</title>
<path fill="none" stroke="midnightblue" d="M2006.66,-176.89C2204.53,-175.84 3699.28,-167.05 4147,-132 4149.52,-131.8 4152.09,-131.57 4154.7,-131.32"/>
<polygon fill="midnightblue" stroke="midnightblue" points="4155.27,-134.78 4164.83,-130.23 4154.52,-127.82 4155.27,-134.78"/>
</g>
<!-- Node9&#45;&gt;Node55 -->
<g id="edge49" class="edge">
<title>Node9&#45;&gt;Node55</title>
<path fill="none" stroke="midnightblue" d="M2006.52,-176.98C2209.41,-176.74 3789.11,-173.53 4287.19,-131.9"/>
<polygon fill="midnightblue" stroke="midnightblue" points="4287.66,-135.38 4297.32,-131.04 4287.06,-128.4 4287.66,-135.38"/>
</g>
<!-- Node40&#45;&gt;Node11 -->
<g id="edge40" class="edge">
<title>Node40&#45;&gt;Node11</title>
<path fill="none" stroke="midnightblue" d="M292.64,-56.08C294.79,-48.85 297.88,-38.41 300.55,-29.4"/>
<polygon fill="midnightblue" stroke="midnightblue" points="303.92,-30.33 303.41,-19.75 297.21,-28.34 303.92,-30.33"/>
</g>
<!-- Node40&#45;&gt;Node16 -->
<g id="edge41" class="edge">
<title>Node40&#45;&gt;Node16</title>
<path fill="none" stroke="midnightblue" d="M276.66,-56.32C263.84,-47.98 244.22,-35.21 229.06,-25.35"/>
<polygon fill="midnightblue" stroke="midnightblue" points="230.59,-22.17 220.3,-19.65 226.78,-28.04 230.59,-22.17"/>
</g>
<!-- Node43&#45;&gt;Node10 -->
<g id="edge43" class="edge">
<title>Node43&#45;&gt;Node10</title>
<path fill="none" stroke="midnightblue" d="M104.86,-112.32C91.13,-103.9 70.06,-90.97 53.94,-81.07"/>
<polygon fill="midnightblue" stroke="midnightblue" points="55.46,-77.9 45.1,-75.65 51.8,-83.87 55.46,-77.9"/>
</g>
<!-- Node43&#45;&gt;Node16 -->
<g id="edge44" class="edge">
<title>Node43&#45;&gt;Node16</title>
<path fill="none" stroke="midnightblue" d="M125.91,-112.37C140.49,-94.14 174.66,-51.43 193.66,-27.68"/>
<polygon fill="midnightblue" stroke="midnightblue" points="196.61,-29.59 200.13,-19.59 191.15,-25.21 196.61,-29.59"/>
</g>
<!-- Node45&#45;&gt;Node40 -->
<g id="edge46" class="edge">
<title>Node45&#45;&gt;Node40</title>
<path fill="none" stroke="midnightblue" d="M307.53,-112.08C304.69,-104.77 300.57,-94.18 297.04,-85.1"/>
<polygon fill="midnightblue" stroke="midnightblue" points="300.29,-83.8 293.4,-75.75 293.77,-86.34 300.29,-83.8"/>
</g>
<!-- Node46&#45;&gt;Node9 -->
<g id="edge48" class="edge">
<title>Node46&#45;&gt;Node9</title>
<path fill="none" stroke="midnightblue" d="M4170.6,-131.52C4168.72,-131.69 4166.84,-131.86 4165,-132 3721.73,-166.7 2252.16,-175.66 2016.87,-176.85"/>
<polygon fill="midnightblue" stroke="midnightblue" points="2016.59,-173.35 2006.6,-176.9 2016.62,-180.35 2016.59,-173.35"/>
</g>
<!-- Node82&#45;&gt;Node9 -->
<g id="edge51" class="edge">
<title>Node82&#45;&gt;Node9</title>
<path fill="none" stroke="midnightblue" d="M1898.55,-224.32C1914.99,-215.7 1940.43,-202.36 1959.47,-192.39"/>
<polygon fill="midnightblue" stroke="midnightblue" points="1961.26,-195.4 1968.49,-187.65 1958.01,-189.2 1961.26,-195.4"/>
</g>
<!-- Node83&#45;&gt;Node9 -->
<g id="edge53" class="edge">
<title>Node83&#45;&gt;Node9</title>
<path fill="none" stroke="midnightblue" d="M1985,-224.08C1985,-217.01 1985,-206.86 1985,-197.99"/>
<polygon fill="midnightblue" stroke="midnightblue" points="1988.5,-197.75 1985,-187.75 1981.5,-197.75 1988.5,-197.75"/>
</g>
<!-- Node85&#45;&gt;Node9 -->
<g id="edge55" class="edge">
<title>Node85&#45;&gt;Node9</title>
<path fill="none" stroke="midnightblue" d="M2073.13,-224.32C2056.29,-215.66 2030.19,-202.24 2010.76,-192.25"/>
<polygon fill="midnightblue" stroke="midnightblue" points="2012.32,-189.12 2001.83,-187.65 2009.12,-195.34 2012.32,-189.12"/>
</g>
<!-- Node86&#45;&gt;Node9 -->
<g id="edge57" class="edge">
<title>Node86&#45;&gt;Node9</title>
<path fill="none" stroke="midnightblue" d="M2148.26,-224.44C2112.28,-214.43 2053,-197.93 2016.64,-187.81"/>
<polygon fill="midnightblue" stroke="midnightblue" points="2017.16,-184.32 2006.59,-185.01 2015.28,-191.06 2017.16,-184.32"/>
</g>
<!-- Node93&#45;&gt;Node9 -->
<g id="edge59" class="edge">
<title>Node93&#45;&gt;Node9</title>
<path fill="none" stroke="midnightblue" d="M2233.26,-224.44C2172.76,-213.37 2068.96,-194.37 2016.83,-184.83"/>
<polygon fill="midnightblue" stroke="midnightblue" points="2017.29,-181.35 2006.82,-183 2016.03,-188.24 2017.29,-181.35"/>
</g>
<!-- Node96&#45;&gt;Node9 -->
<g id="edge63" class="edge">
<title>Node96&#45;&gt;Node9</title>
<path fill="none" stroke="midnightblue" d="M1788.08,-224.44C1833.68,-213.92 1910.3,-196.24 1953.29,-186.32"/>
<polygon fill="midnightblue" stroke="midnightblue" points="1954.24,-189.69 1963.2,-184.03 1952.67,-182.87 1954.24,-189.69"/>
</g>
<!-- Node96&#45;&gt;Node10 -->
<g id="edge62" class="edge">
<title>Node96&#45;&gt;Node10</title>
<path fill="none" stroke="midnightblue" d="M1707.93,-225.15C1704.91,-224.72 1701.91,-224.33 1699,-224 1514.79,-203.04 162.48,-264.68 33,-132 21.31,-120.02 22.49,-100.13 25.55,-85.49"/>
<polygon fill="midnightblue" stroke="midnightblue" points="29.01,-86.1 28.08,-75.55 22.22,-84.38 29.01,-86.1"/>
</g>
</g>
</svg>
