<?xml version="1.0" encoding="UTF-8" standalone="no"?>
<!DOCTYPE svg PUBLIC "-//W3C//DTD SVG 1.1//EN"
 "http://www.w3.org/Graphics/SVG/1.1/DTD/svg11.dtd">
<!-- Generated by graphviz version 2.43.0 (0)
 -->
<!-- Title: _Radio_setChanspec Pages: 1 -->
<svg width="882pt" height="137pt"
 viewBox="0.00 0.00 882.00 137.00" xmlns="http://www.w3.org/2000/svg" xmlns:xlink="http://www.w3.org/1999/xlink">
<g id="graph0" class="graph" transform="scale(1 1) rotate(0) translate(4 133)">
<title>_Radio_setChanspec</title>
<polygon fill="white" stroke="transparent" points="-4,4 -4,-133 878,-133 878,4 -4,4"/>
<!-- Node1 -->
<g id="node1" class="node">
<title>Node1</title>
<g id="a_node1"><a xlink:title=" ">
<polygon fill="#bfbfbf" stroke="black" points="0,-59 0,-78 117,-78 117,-59 0,-59"/>
<text text-anchor="middle" x="58.5" y="-66" font-family="Helvetica,sans-Serif" font-size="10.00">_Radio_setChanspec</text>
</a>
</g>
</g>
<!-- Node2 -->
<g id="node2" class="node">
<title>Node2</title>
<g id="a_node2"><a xlink:href="wld__chanmgt_8c.html#a3d145e44b994a5d0a67494bcfc64bc65" target="_top" xlink:title=" ">
<polygon fill="white" stroke="black" points="153,-97 153,-116 332,-116 332,-97 153,-97"/>
<text text-anchor="middle" x="242.5" y="-104" font-family="Helvetica,sans-Serif" font-size="10.00">wld_chanmgt_setTargetChanspec</text>
</a>
</g>
</g>
<!-- Node1&#45;&gt;Node2 -->
<g id="edge1" class="edge">
<title>Node1&#45;&gt;Node2</title>
<path fill="none" stroke="midnightblue" d="M105.43,-78.09C129.88,-83.19 160.13,-89.51 185.9,-94.89"/>
<polygon fill="midnightblue" stroke="midnightblue" points="185.4,-98.36 195.9,-96.98 186.83,-91.51 185.4,-98.36"/>
</g>
<!-- Node8 -->
<g id="node8" class="node">
<title>Node8</title>
<g id="a_node8"><a xlink:href="wld__radio_8c.html#aa588f181ad2d2eafc06fc568c540ab13" target="_top" xlink:title=" ">
<polygon fill="white" stroke="black" points="184,-59 184,-78 301,-78 301,-59 184,-59"/>
<text text-anchor="middle" x="242.5" y="-66" font-family="Helvetica,sans-Serif" font-size="10.00">wld_rad_hasChannel</text>
</a>
</g>
</g>
<!-- Node1&#45;&gt;Node8 -->
<g id="edge8" class="edge">
<title>Node1&#45;&gt;Node8</title>
<path fill="none" stroke="midnightblue" d="M117.09,-68.5C135.1,-68.5 155.14,-68.5 173.78,-68.5"/>
<polygon fill="midnightblue" stroke="midnightblue" points="173.98,-72 183.98,-68.5 173.98,-65 173.98,-72"/>
</g>
<!-- Node9 -->
<g id="node9" class="node">
<title>Node9</title>
<g id="a_node9"><a xlink:href="wld__radio_8c.html#aac4e496852f12a12e1bf14de2738d954" target="_top" xlink:title=" ">
<polygon fill="white" stroke="black" points="162.5,-21 162.5,-40 322.5,-40 322.5,-21 162.5,-21"/>
<text text-anchor="middle" x="242.5" y="-28" font-family="Helvetica,sans-Serif" font-size="10.00">wld_rad_hasRunningEndpoint</text>
</a>
</g>
</g>
<!-- Node1&#45;&gt;Node9 -->
<g id="edge9" class="edge">
<title>Node1&#45;&gt;Node9</title>
<path fill="none" stroke="midnightblue" d="M105.43,-58.91C129.88,-53.81 160.13,-47.49 185.9,-42.11"/>
<polygon fill="midnightblue" stroke="midnightblue" points="186.83,-45.49 195.9,-40.02 185.4,-38.64 186.83,-45.49"/>
</g>
<!-- Node3 -->
<g id="node3" class="node">
<title>Node3</title>
<g id="a_node3"><a xlink:href="wld__chanmgt_8c.html#a666985e1c0d44eb135e66b10316ab7d6" target="_top" xlink:title=" ">
<polygon fill="white" stroke="black" points="377,-61 377,-80 517,-80 517,-61 377,-61"/>
<text text-anchor="middle" x="447" y="-68" font-family="Helvetica,sans-Serif" font-size="10.00">wld_chanmgt_getAutoBw</text>
</a>
</g>
</g>
<!-- Node2&#45;&gt;Node3 -->
<g id="edge2" class="edge">
<title>Node2&#45;&gt;Node3</title>
<path fill="none" stroke="midnightblue" d="M296.97,-96.99C323.16,-92.34 354.89,-86.7 382.33,-81.82"/>
<polygon fill="midnightblue" stroke="midnightblue" points="383,-85.26 392.23,-80.06 381.77,-78.36 383,-85.26"/>
</g>
<!-- Node5 -->
<g id="node5" class="node">
<title>Node5</title>
<g id="a_node5"><a xlink:href="wld__channel_8c.html#adc8be7b229e350564cc1007c836e1629" target="_top" xlink:title=" ">
<polygon fill="white" stroke="black" points="754,-98.5 754,-128.5 874,-128.5 874,-98.5 754,-98.5"/>
<text text-anchor="start" x="762" y="-116.5" font-family="Helvetica,sans-Serif" font-size="10.00">wld_channel_is_band</text>
<text text-anchor="middle" x="814" y="-105.5" font-family="Helvetica,sans-Serif" font-size="10.00">_available</text>
</a>
</g>
</g>
<!-- Node2&#45;&gt;Node5 -->
<g id="edge7" class="edge">
<title>Node2&#45;&gt;Node5</title>
<path fill="none" stroke="midnightblue" d="M332.17,-107.59C445.78,-108.99 640.34,-111.38 743.71,-112.65"/>
<polygon fill="midnightblue" stroke="midnightblue" points="743.69,-116.15 753.73,-112.77 743.77,-109.15 743.69,-116.15"/>
</g>
<!-- Node4 -->
<g id="node4" class="node">
<title>Node4</title>
<g id="a_node4"><a xlink:href="wld__chanmgt_8c.html#ad3412209c76724afc7b1e7e9fa29ed09" target="_top" xlink:title=" ">
<polygon fill="white" stroke="black" points="562,-59 562,-78 718,-78 718,-59 562,-59"/>
<text text-anchor="middle" x="640" y="-66" font-family="Helvetica,sans-Serif" font-size="10.00">wld_chanmgt_getAutoBwExt</text>
</a>
</g>
</g>
<!-- Node3&#45;&gt;Node4 -->
<g id="edge3" class="edge">
<title>Node3&#45;&gt;Node4</title>
<path fill="none" stroke="midnightblue" d="M517.23,-69.78C528.46,-69.66 540.21,-69.53 551.8,-69.41"/>
<polygon fill="midnightblue" stroke="midnightblue" points="551.97,-72.91 561.93,-69.31 551.89,-65.91 551.97,-72.91"/>
</g>
<!-- Node4&#45;&gt;Node5 -->
<g id="edge4" class="edge">
<title>Node4&#45;&gt;Node5</title>
<path fill="none" stroke="midnightblue" d="M677.48,-78.04C697.32,-83.24 722.51,-89.82 745.76,-95.91"/>
<polygon fill="midnightblue" stroke="midnightblue" points="745.03,-99.34 755.59,-98.48 746.8,-92.56 745.03,-99.34"/>
</g>
<!-- Node6 -->
<g id="node6" class="node">
<title>Node6</title>
<g id="a_node6"><a xlink:href="wld__channel_8c.html#ac7bc7a7085458e48c9ca411929ba2b86" target="_top" xlink:title=" ">
<polygon fill="white" stroke="black" points="754,-49.5 754,-79.5 874,-79.5 874,-49.5 754,-49.5"/>
<text text-anchor="start" x="762" y="-67.5" font-family="Helvetica,sans-Serif" font-size="10.00">wld_channel_is_band</text>
<text text-anchor="middle" x="814" y="-56.5" font-family="Helvetica,sans-Serif" font-size="10.00">_radar_detected</text>
</a>
</g>
</g>
<!-- Node4&#45;&gt;Node6 -->
<g id="edge5" class="edge">
<title>Node4&#45;&gt;Node6</title>
<path fill="none" stroke="midnightblue" d="M718.2,-66.7C726.7,-66.51 735.33,-66.31 743.73,-66.11"/>
<polygon fill="midnightblue" stroke="midnightblue" points="743.93,-69.61 753.85,-65.88 743.77,-62.61 743.93,-69.61"/>
</g>
<!-- Node7 -->
<g id="node7" class="node">
<title>Node7</title>
<g id="a_node7"><a xlink:href="wld__channel_8c.html#a0b7f74cfed1d43b00cae0e44c230519e" target="_top" xlink:title=" ">
<polygon fill="white" stroke="black" points="754,-0.5 754,-30.5 874,-30.5 874,-0.5 754,-0.5"/>
<text text-anchor="start" x="762" y="-18.5" font-family="Helvetica,sans-Serif" font-size="10.00">wld_channel_is_band</text>
<text text-anchor="middle" x="814" y="-7.5" font-family="Helvetica,sans-Serif" font-size="10.00">_usable</text>
</a>
</g>
</g>
<!-- Node4&#45;&gt;Node7 -->
<g id="edge6" class="edge">
<title>Node4&#45;&gt;Node7</title>
<path fill="none" stroke="midnightblue" d="M672.15,-58.9C695.1,-51.83 726.99,-42 754.62,-33.49"/>
<polygon fill="midnightblue" stroke="midnightblue" points="755.67,-36.83 764.2,-30.54 753.61,-30.14 755.67,-36.83"/>
</g>
<!-- Node10 -->
<g id="node10" class="node">
<title>Node10</title>
<g id="a_node10"><a xlink:href="wld__radio_8c.html#a6960d4d7e794fafad06b6503e0ff42f8" target="_top" xlink:title=" ">
<polygon fill="white" stroke="black" points="368,-21 368,-40 526,-40 526,-21 368,-21"/>
<text text-anchor="middle" x="447" y="-28" font-family="Helvetica,sans-Serif" font-size="10.00">wld_rad_getRunningEndpoint</text>
</a>
</g>
</g>
<!-- Node9&#45;&gt;Node10 -->
<g id="edge10" class="edge">
<title>Node9&#45;&gt;Node10</title>
<path fill="none" stroke="midnightblue" d="M322.66,-30.5C334.16,-30.5 346.05,-30.5 357.72,-30.5"/>
<polygon fill="midnightblue" stroke="midnightblue" points="357.89,-34 367.89,-30.5 357.89,-27 357.89,-34"/>
</g>
</g>
</svg>
