<?xml version="1.0" encoding="UTF-8" standalone="no"?>
<!DOCTYPE svg PUBLIC "-//W3C//DTD SVG 1.1//EN"
 "http://www.w3.org/Graphics/SVG/1.1/DTD/svg11.dtd">
<!-- Generated by graphviz version 2.43.0 (0)
 -->
<!-- Title: src/nl80211/wld_nl80211_scan.c Pages: 1 -->
<svg width="4675pt" height="319pt"
 viewBox="0.00 0.00 4674.50 319.00" xmlns="http://www.w3.org/2000/svg" xmlns:xlink="http://www.w3.org/1999/xlink">
<g id="graph0" class="graph" transform="scale(1 1) rotate(0) translate(4 315)">
<title>src/nl80211/wld_nl80211_scan.c</title>
<polygon fill="white" stroke="transparent" points="-4,4 -4,-315 4670.5,-315 4670.5,4 -4,4"/>
<!-- Node1 -->
<g id="node1" class="node">
<title>Node1</title>
<g id="a_node1"><a xlink:title=" ">
<polygon fill="#bfbfbf" stroke="black" points="3914,-280.5 3914,-310.5 4051,-310.5 4051,-280.5 3914,-280.5"/>
<text text-anchor="start" x="3922" y="-298.5" font-family="Helvetica,sans-Serif" font-size="10.00">src/nl80211/wld_nl80211</text>
<text text-anchor="middle" x="3982.5" y="-287.5" font-family="Helvetica,sans-Serif" font-size="10.00">_scan.c</text>
</a>
</g>
</g>
<!-- Node2 -->
<g id="node2" class="node">
<title>Node2</title>
<g id="a_node2"><a xlink:href="wld__rad__nl80211_8h.html" target="_top" xlink:title=" ">
<polygon fill="white" stroke="black" points="4107.5,-224.5 4107.5,-243.5 4215.5,-243.5 4215.5,-224.5 4107.5,-224.5"/>
<text text-anchor="middle" x="4161.5" y="-231.5" font-family="Helvetica,sans-Serif" font-size="10.00">wld_rad_nl80211.h</text>
</a>
</g>
</g>
<!-- Node1&#45;&gt;Node2 -->
<g id="edge1" class="edge">
<title>Node1&#45;&gt;Node2</title>
<path fill="none" stroke="midnightblue" d="M4024.92,-280.4C4055.72,-270.16 4096.91,-256.47 4125.98,-246.81"/>
<polygon fill="midnightblue" stroke="midnightblue" points="4127.33,-250.05 4135.72,-243.57 4125.12,-243.4 4127.33,-250.05"/>
</g>
<!-- Node6 -->
<g id="node6" class="node">
<title>Node6</title>
<g id="a_node6"><a xlink:title=" ">
<polygon fill="white" stroke="#bfbfbf" points="3776.5,-0.5 3776.5,-19.5 3886.5,-19.5 3886.5,-0.5 3776.5,-0.5"/>
<text text-anchor="middle" x="3831.5" y="-7.5" font-family="Helvetica,sans-Serif" font-size="10.00">swl/swl_common.h</text>
</a>
</g>
</g>
<!-- Node1&#45;&gt;Node6 -->
<g id="edge48" class="edge">
<title>Node1&#45;&gt;Node6</title>
<path fill="none" stroke="midnightblue" d="M3913.99,-284.25C3858.06,-271.88 3782.44,-245.1 3745.5,-188 3740.67,-180.54 3740.63,-175.44 3745.5,-168 3801.55,-82.42 3900.45,-161.58 3956.5,-76 3975.28,-47.33 3936.05,-30.57 3896.69,-21.27"/>
<polygon fill="midnightblue" stroke="midnightblue" points="3897.23,-17.81 3886.71,-19.07 3895.72,-24.64 3897.23,-17.81"/>
</g>
<!-- Node87 -->
<g id="node39" class="node">
<title>Node87</title>
<g id="a_node39"><a xlink:href="wld__nl80211__utils_8h.html" target="_top" xlink:title=" ">
<polygon fill="white" stroke="black" points="3926,-224.5 3926,-243.5 4039,-243.5 4039,-224.5 3926,-224.5"/>
<text text-anchor="middle" x="3982.5" y="-231.5" font-family="Helvetica,sans-Serif" font-size="10.00">wld_nl80211_utils.h</text>
</a>
</g>
</g>
<!-- Node1&#45;&gt;Node87 -->
<g id="edge42" class="edge">
<title>Node1&#45;&gt;Node87</title>
<path fill="none" stroke="midnightblue" d="M3982.5,-280.4C3982.5,-272.47 3982.5,-262.46 3982.5,-253.86"/>
<polygon fill="midnightblue" stroke="midnightblue" points="3986,-253.66 3982.5,-243.66 3979,-253.66 3986,-253.66"/>
</g>
<!-- Node95 -->
<g id="node42" class="node">
<title>Node95</title>
<g id="a_node42"><a xlink:href="wld__linuxIfUtils_8h.html" target="_top" xlink:title=" ">
<polygon fill="white" stroke="black" points="4234,-224.5 4234,-243.5 4335,-243.5 4335,-224.5 4234,-224.5"/>
<text text-anchor="middle" x="4284.5" y="-231.5" font-family="Helvetica,sans-Serif" font-size="10.00">wld_linuxIfUtils.h</text>
</a>
</g>
</g>
<!-- Node1&#45;&gt;Node95 -->
<g id="edge46" class="edge">
<title>Node1&#45;&gt;Node95</title>
<path fill="none" stroke="midnightblue" d="M4051.03,-281C4105.57,-270.25 4180.82,-255.43 4230.99,-245.54"/>
<polygon fill="midnightblue" stroke="midnightblue" points="4231.85,-248.94 4240.99,-243.57 4230.5,-242.07 4231.85,-248.94"/>
</g>
<!-- Node96 -->
<g id="node44" class="node">
<title>Node96</title>
<g id="a_node44"><a xlink:title=" ">
<polygon fill="white" stroke="#bfbfbf" points="4353,-224.5 4353,-243.5 4490,-243.5 4490,-224.5 4353,-224.5"/>
<text text-anchor="middle" x="4421.5" y="-231.5" font-family="Helvetica,sans-Serif" font-size="10.00">swl/swl_common_time.h</text>
</a>
</g>
</g>
<!-- Node1&#45;&gt;Node96 -->
<g id="edge49" class="edge">
<title>Node1&#45;&gt;Node96</title>
<path fill="none" stroke="midnightblue" d="M4051.09,-285.2C4132,-274.24 4265.93,-256.09 4348.64,-244.87"/>
<polygon fill="midnightblue" stroke="midnightblue" points="4349.28,-248.32 4358.72,-243.51 4348.34,-241.38 4349.28,-248.32"/>
</g>
<!-- Node97 -->
<g id="node45" class="node">
<title>Node97</title>
<g id="a_node45"><a xlink:href="wld__radio_8h.html" target="_top" xlink:title=" ">
<polygon fill="white" stroke="black" points="2855,-224.5 2855,-243.5 2928,-243.5 2928,-224.5 2855,-224.5"/>
<text text-anchor="middle" x="2891.5" y="-231.5" font-family="Helvetica,sans-Serif" font-size="10.00">wld_radio.h</text>
</a>
</g>
</g>
<!-- Node1&#45;&gt;Node97 -->
<g id="edge50" class="edge">
<title>Node1&#45;&gt;Node97</title>
<path fill="none" stroke="midnightblue" d="M3913.84,-290.76C3709.76,-279.63 3110.38,-246.94 2938.23,-237.55"/>
<polygon fill="midnightblue" stroke="midnightblue" points="2938.4,-234.05 2928.22,-237 2938.01,-241.04 2938.4,-234.05"/>
</g>
<!-- Node104 -->
<g id="node50" class="node">
<title>Node104</title>
<g id="a_node50"><a xlink:href="wld__util_8h.html" target="_top" xlink:title=" ">
<polygon fill="white" stroke="black" points="2274.5,-224.5 2274.5,-243.5 2338.5,-243.5 2338.5,-224.5 2274.5,-224.5"/>
<text text-anchor="middle" x="2306.5" y="-231.5" font-family="Helvetica,sans-Serif" font-size="10.00">wld_util.h</text>
</a>
</g>
</g>
<!-- Node1&#45;&gt;Node104 -->
<g id="edge62" class="edge">
<title>Node1&#45;&gt;Node104</title>
<path fill="none" stroke="midnightblue" d="M3913.94,-292.07C3633,-282.09 2574.07,-244.5 2348.8,-236.5"/>
<polygon fill="midnightblue" stroke="midnightblue" points="2348.83,-233 2338.71,-236.14 2348.58,-240 2348.83,-233"/>
</g>
<!-- Node3 -->
<g id="node3" class="node">
<title>Node3</title>
<g id="a_node3"><a xlink:href="wld_8h.html" target="_top" xlink:title=" ">
<polygon fill="white" stroke="red" points="2208,-112.5 2208,-131.5 2251,-131.5 2251,-112.5 2208,-112.5"/>
<text text-anchor="middle" x="2229.5" y="-119.5" font-family="Helvetica,sans-Serif" font-size="10.00">wld.h</text>
</a>
</g>
</g>
<!-- Node2&#45;&gt;Node3 -->
<g id="edge2" class="edge">
<title>Node2&#45;&gt;Node3</title>
<path fill="none" stroke="midnightblue" d="M4153.21,-224.13C4138.59,-209.2 4106.56,-179.57 4072.5,-168 3983.29,-137.68 2498.49,-125.06 2261.33,-123.24"/>
<polygon fill="midnightblue" stroke="midnightblue" points="2261.31,-119.74 2251.29,-123.16 2261.26,-126.74 2261.31,-119.74"/>
</g>
<!-- Node76 -->
<g id="node36" class="node">
<title>Node76</title>
<g id="a_node36"><a xlink:href="wld__nl80211__api_8h.html" target="_top" xlink:title=" ">
<polygon fill="white" stroke="red" points="4158,-168.5 4158,-187.5 4265,-187.5 4265,-168.5 4158,-168.5"/>
<text text-anchor="middle" x="4211.5" y="-175.5" font-family="Helvetica,sans-Serif" font-size="10.00">wld_nl80211_api.h</text>
</a>
</g>
</g>
<!-- Node2&#45;&gt;Node76 -->
<g id="edge39" class="edge">
<title>Node2&#45;&gt;Node76</title>
<path fill="none" stroke="midnightblue" d="M4169.76,-224.08C4176.96,-216.3 4187.61,-204.8 4196.35,-195.37"/>
<polygon fill="midnightblue" stroke="midnightblue" points="4199.17,-197.47 4203.4,-187.75 4194.03,-192.71 4199.17,-197.47"/>
</g>
<!-- Node85 -->
<g id="node37" class="node">
<title>Node85</title>
<g id="a_node37"><a xlink:href="wld__nl80211__events_8h.html" target="_top" xlink:title=" ">
<polygon fill="white" stroke="red" points="4283,-168.5 4283,-187.5 4408,-187.5 4408,-168.5 4283,-168.5"/>
<text text-anchor="middle" x="4345.5" y="-175.5" font-family="Helvetica,sans-Serif" font-size="10.00">wld_nl80211_events.h</text>
</a>
</g>
</g>
<!-- Node2&#45;&gt;Node85 -->
<g id="edge40" class="edge">
<title>Node2&#45;&gt;Node85</title>
<path fill="none" stroke="midnightblue" d="M4190.66,-224.44C4222.01,-215.24 4272.03,-200.56 4306.7,-190.39"/>
<polygon fill="midnightblue" stroke="midnightblue" points="4307.87,-193.69 4316.48,-187.52 4305.9,-186.97 4307.87,-193.69"/>
</g>
<!-- Node86 -->
<g id="node38" class="node">
<title>Node86</title>
<g id="a_node38"><a xlink:href="wld__nl80211__debug_8h.html" target="_top" xlink:title=" ">
<polygon fill="white" stroke="red" points="4426.5,-168.5 4426.5,-187.5 4548.5,-187.5 4548.5,-168.5 4426.5,-168.5"/>
<text text-anchor="middle" x="4487.5" y="-175.5" font-family="Helvetica,sans-Serif" font-size="10.00">wld_nl80211_debug.h</text>
</a>
</g>
</g>
<!-- Node2&#45;&gt;Node86 -->
<g id="edge41" class="edge">
<title>Node2&#45;&gt;Node86</title>
<path fill="none" stroke="midnightblue" d="M4213.16,-224.44C4270.98,-214.87 4364.61,-199.36 4426.12,-189.17"/>
<polygon fill="midnightblue" stroke="midnightblue" points="4426.79,-192.6 4436.09,-187.52 4425.65,-185.7 4426.79,-192.6"/>
</g>
<!-- Node4 -->
<g id="node4" class="node">
<title>Node4</title>
<g id="a_node4"><a xlink:title=" ">
<polygon fill="white" stroke="#bfbfbf" points="3885.5,-56.5 3885.5,-75.5 3947.5,-75.5 3947.5,-56.5 3885.5,-56.5"/>
<text text-anchor="middle" x="3916.5" y="-63.5" font-family="Helvetica,sans-Serif" font-size="10.00">stdbool.h</text>
</a>
</g>
</g>
<!-- Node3&#45;&gt;Node4 -->
<g id="edge3" class="edge">
<title>Node3&#45;&gt;Node4</title>
<path fill="none" stroke="midnightblue" d="M2251.14,-120.99C2419.29,-120.79 3519.8,-117.97 3875.12,-75.88"/>
<polygon fill="midnightblue" stroke="midnightblue" points="3875.66,-79.34 3885.16,-74.66 3874.81,-72.39 3875.66,-79.34"/>
</g>
<!-- Node5 -->
<g id="node5" class="node">
<title>Node5</title>
<g id="a_node5"><a xlink:title=" ">
<polygon fill="white" stroke="#bfbfbf" points="0,-0.5 0,-19.5 53,-19.5 53,-0.5 0,-0.5"/>
<text text-anchor="middle" x="26.5" y="-7.5" font-family="Helvetica,sans-Serif" font-size="10.00">stdint.h</text>
</a>
</g>
</g>
<!-- Node3&#45;&gt;Node5 -->
<g id="edge4" class="edge">
<title>Node3&#45;&gt;Node5</title>
<path fill="none" stroke="midnightblue" d="M2207.65,-120.75C1980.44,-118.09 56.93,-95.06 35.5,-76 22.88,-64.78 21.86,-44.76 23.23,-29.9"/>
<polygon fill="midnightblue" stroke="midnightblue" points="26.73,-30.14 24.6,-19.76 19.79,-29.21 26.73,-30.14"/>
</g>
<!-- Node3&#45;&gt;Node6 -->
<g id="edge5" class="edge">
<title>Node3&#45;&gt;Node6</title>
<path fill="none" stroke="midnightblue" d="M2251.04,-120.9C2419.61,-120.02 3524.58,-112.88 3667.5,-76 3686.36,-71.13 3688.63,-63.76 3706.5,-56 3735.82,-43.27 3770.03,-31.13 3795.25,-22.68"/>
<polygon fill="midnightblue" stroke="midnightblue" points="3796.39,-25.99 3804.78,-19.51 3794.19,-19.34 3796.39,-25.99"/>
</g>
<!-- Node7 -->
<g id="node7" class="node">
<title>Node7</title>
<g id="a_node7"><a xlink:title=" ">
<polygon fill="white" stroke="#bfbfbf" points="214.5,-56.5 214.5,-75.5 350.5,-75.5 350.5,-56.5 214.5,-56.5"/>
<text text-anchor="middle" x="282.5" y="-63.5" font-family="Helvetica,sans-Serif" font-size="10.00">swla/swla_commonLib.h</text>
</a>
</g>
</g>
<!-- Node3&#45;&gt;Node7 -->
<g id="edge6" class="edge">
<title>Node3&#45;&gt;Node7</title>
<path fill="none" stroke="midnightblue" d="M2207.93,-120.76C2027.45,-118.67 765.59,-103.32 360.88,-76.02"/>
<polygon fill="midnightblue" stroke="midnightblue" points="361.12,-72.52 350.9,-75.33 360.64,-79.51 361.12,-72.52"/>
</g>
<!-- Node8 -->
<g id="node8" class="node">
<title>Node8</title>
<g id="a_node8"><a xlink:title=" ">
<polygon fill="white" stroke="#bfbfbf" points="368.5,-56.5 368.5,-75.5 456.5,-75.5 456.5,-56.5 368.5,-56.5"/>
<text text-anchor="middle" x="412.5" y="-63.5" font-family="Helvetica,sans-Serif" font-size="10.00">swl/swl_uuid.h</text>
</a>
</g>
</g>
<!-- Node3&#45;&gt;Node8 -->
<g id="edge7" class="edge">
<title>Node3&#45;&gt;Node8</title>
<path fill="none" stroke="midnightblue" d="M2207.76,-120.87C2032.6,-119.79 848.49,-111.26 466.92,-75.96"/>
<polygon fill="midnightblue" stroke="midnightblue" points="466.97,-72.45 456.68,-74.99 466.31,-79.42 466.97,-72.45"/>
</g>
<!-- Node9 -->
<g id="node9" class="node">
<title>Node9</title>
<g id="a_node9"><a xlink:title=" ">
<polygon fill="white" stroke="#bfbfbf" points="3715.5,-56.5 3715.5,-75.5 3867.5,-75.5 3867.5,-56.5 3715.5,-56.5"/>
<text text-anchor="middle" x="3791.5" y="-63.5" font-family="Helvetica,sans-Serif" font-size="10.00">swla/swla_radioStandards.h</text>
</a>
</g>
</g>
<!-- Node3&#45;&gt;Node9 -->
<g id="edge8" class="edge">
<title>Node3&#45;&gt;Node9</title>
<path fill="none" stroke="midnightblue" d="M2251.14,-120.9C2384.72,-120.17 3110.87,-114.51 3701.5,-76 3702.78,-75.92 3704.07,-75.83 3705.36,-75.74"/>
<polygon fill="midnightblue" stroke="midnightblue" points="3705.71,-79.22 3715.42,-74.98 3705.19,-72.24 3705.71,-79.22"/>
</g>
<!-- Node10 -->
<g id="node10" class="node">
<title>Node10</title>
<g id="a_node10"><a xlink:title=" ">
<polygon fill="white" stroke="#bfbfbf" points="80,-0.5 80,-19.5 181,-19.5 181,-0.5 80,-0.5"/>
<text text-anchor="middle" x="130.5" y="-7.5" font-family="Helvetica,sans-Serif" font-size="10.00">swla/swla_time.h</text>
</a>
</g>
</g>
<!-- Node3&#45;&gt;Node10 -->
<g id="edge9" class="edge">
<title>Node3&#45;&gt;Node10</title>
<path fill="none" stroke="midnightblue" d="M2207.93,-120.74C1993.17,-118.15 246.38,-96.45 197.5,-76 174,-66.17 154.11,-43.91 142.24,-28.19"/>
<polygon fill="midnightblue" stroke="midnightblue" points="144.91,-25.9 136.22,-19.83 139.23,-29.99 144.91,-25.9"/>
</g>
<!-- Node11 -->
<g id="node11" class="node">
<title>Node11</title>
<g id="a_node11"><a xlink:title=" ">
<polygon fill="white" stroke="#bfbfbf" points="475,-56.5 475,-75.5 604,-75.5 604,-56.5 475,-56.5"/>
<text text-anchor="middle" x="539.5" y="-63.5" font-family="Helvetica,sans-Serif" font-size="10.00">swla/swla_time_spec.h</text>
</a>
</g>
</g>
<!-- Node3&#45;&gt;Node11 -->
<g id="edge10" class="edge">
<title>Node3&#45;&gt;Node11</title>
<path fill="none" stroke="midnightblue" d="M2207.6,-121.16C2066.63,-122.02 1272.44,-124.5 614.2,-75.96"/>
<polygon fill="midnightblue" stroke="midnightblue" points="614.27,-72.46 604.04,-75.21 613.75,-79.44 614.27,-72.46"/>
</g>
<!-- Node12 -->
<g id="node12" class="node">
<title>Node12</title>
<g id="a_node12"><a xlink:title=" ">
<polygon fill="white" stroke="#bfbfbf" points="622.5,-56.5 622.5,-75.5 716.5,-75.5 716.5,-56.5 622.5,-56.5"/>
<text text-anchor="middle" x="669.5" y="-63.5" font-family="Helvetica,sans-Serif" font-size="10.00">swla/swla_oui.h</text>
</a>
</g>
</g>
<!-- Node3&#45;&gt;Node12 -->
<g id="edge11" class="edge">
<title>Node3&#45;&gt;Node12</title>
<path fill="none" stroke="midnightblue" d="M2207.75,-120.74C2047.97,-118.74 1053.26,-105.34 727.19,-76"/>
<polygon fill="midnightblue" stroke="midnightblue" points="727.08,-72.48 716.8,-75.04 726.44,-79.45 727.08,-72.48"/>
</g>
<!-- Node13 -->
<g id="node13" class="node">
<title>Node13</title>
<g id="a_node13"><a xlink:title=" ">
<polygon fill="white" stroke="#bfbfbf" points="734.5,-56.5 734.5,-75.5 862.5,-75.5 862.5,-56.5 734.5,-56.5"/>
<text text-anchor="middle" x="798.5" y="-63.5" font-family="Helvetica,sans-Serif" font-size="10.00">swla/swla_delayExec.h</text>
</a>
</g>
</g>
<!-- Node3&#45;&gt;Node13 -->
<g id="edge12" class="edge">
<title>Node3&#45;&gt;Node13</title>
<path fill="none" stroke="midnightblue" d="M2207.9,-121.01C2081.21,-120.91 1421.71,-118.34 872.66,-76.01"/>
<polygon fill="midnightblue" stroke="midnightblue" points="872.8,-72.51 862.56,-75.23 872.26,-79.49 872.8,-72.51"/>
</g>
<!-- Node14 -->
<g id="node14" class="node">
<title>Node14</title>
<g id="a_node14"><a xlink:title=" ">
<polygon fill="white" stroke="#bfbfbf" points="881,-56.5 881,-75.5 1000,-75.5 1000,-56.5 881,-56.5"/>
<text text-anchor="middle" x="940.5" y="-63.5" font-family="Helvetica,sans-Serif" font-size="10.00">swla/swla_function.h</text>
</a>
</g>
</g>
<!-- Node3&#45;&gt;Node14 -->
<g id="edge13" class="edge">
<title>Node3&#45;&gt;Node14</title>
<path fill="none" stroke="midnightblue" d="M2207.77,-120.97C2088.45,-120.63 1500.65,-116.91 1010.28,-76.07"/>
<polygon fill="midnightblue" stroke="midnightblue" points="1010.43,-72.57 1000.17,-75.22 1009.84,-79.55 1010.43,-72.57"/>
</g>
<!-- Node15 -->
<g id="node15" class="node">
<title>Node15</title>
<g id="a_node15"><a xlink:title=" ">
<polygon fill="white" stroke="#bfbfbf" points="1018,-56.5 1018,-75.5 1159,-75.5 1159,-56.5 1018,-56.5"/>
<text text-anchor="middle" x="1088.5" y="-63.5" font-family="Helvetica,sans-Serif" font-size="10.00">swl/swl_usp_cmdStatus.h</text>
</a>
</g>
</g>
<!-- Node3&#45;&gt;Node15 -->
<g id="edge14" class="edge">
<title>Node3&#45;&gt;Node15</title>
<path fill="none" stroke="midnightblue" d="M2207.8,-120.64C2098.13,-118.71 1593.73,-108.44 1169.16,-75.99"/>
<polygon fill="midnightblue" stroke="midnightblue" points="1169.38,-72.5 1159.14,-75.22 1168.85,-79.47 1169.38,-72.5"/>
</g>
<!-- Node16 -->
<g id="node16" class="node">
<title>Node16</title>
<g id="a_node16"><a xlink:title=" ">
<polygon fill="white" stroke="#bfbfbf" points="1177.5,-56.5 1177.5,-75.5 1263.5,-75.5 1263.5,-56.5 1177.5,-56.5"/>
<text text-anchor="middle" x="1220.5" y="-63.5" font-family="Helvetica,sans-Serif" font-size="10.00">swl/swl_wps.h</text>
</a>
</g>
</g>
<!-- Node3&#45;&gt;Node16 -->
<g id="edge15" class="edge">
<title>Node3&#45;&gt;Node16</title>
<path fill="none" stroke="midnightblue" d="M2207.86,-120.98C2104.8,-120.66 1653.37,-116.94 1273.66,-75.98"/>
<polygon fill="midnightblue" stroke="midnightblue" points="1273.89,-72.48 1263.57,-74.88 1273.13,-79.44 1273.89,-72.48"/>
</g>
<!-- Node17 -->
<g id="node17" class="node">
<title>Node17</title>
<g id="a_node17"><a xlink:title=" ">
<polygon fill="white" stroke="#bfbfbf" points="1281.5,-56.5 1281.5,-75.5 1385.5,-75.5 1385.5,-56.5 1281.5,-56.5"/>
<text text-anchor="middle" x="1333.5" y="-63.5" font-family="Helvetica,sans-Serif" font-size="10.00">swl/swl_security.h</text>
</a>
</g>
</g>
<!-- Node3&#45;&gt;Node17 -->
<g id="edge16" class="edge">
<title>Node3&#45;&gt;Node17</title>
<path fill="none" stroke="midnightblue" d="M2207.83,-120.57C2113.01,-118.54 1725.05,-108.62 1395.91,-76.05"/>
<polygon fill="midnightblue" stroke="midnightblue" points="1396,-72.54 1385.7,-75.03 1395.31,-79.5 1396,-72.54"/>
</g>
<!-- Node18 -->
<g id="node18" class="node">
<title>Node18</title>
<g id="a_node18"><a xlink:title=" ">
<polygon fill="white" stroke="#bfbfbf" points="2009,-0.5 2009,-19.5 2092,-19.5 2092,-0.5 2009,-0.5"/>
<text text-anchor="middle" x="2050.5" y="-7.5" font-family="Helvetica,sans-Serif" font-size="10.00">amxc/amxc.h</text>
</a>
</g>
</g>
<!-- Node3&#45;&gt;Node18 -->
<g id="edge17" class="edge">
<title>Node3&#45;&gt;Node18</title>
<path fill="none" stroke="midnightblue" d="M2207.67,-120.72C1990.38,-117.95 223.95,-94.87 205.5,-76 199.28,-69.65 199.29,-62.36 205.5,-56 237.69,-23.02 1703.16,-12.97 1998.83,-11.27"/>
<polygon fill="midnightblue" stroke="midnightblue" points="1998.87,-14.77 2008.85,-11.22 1998.83,-7.78 1998.87,-14.77"/>
</g>
<!-- Node19 -->
<g id="node19" class="node">
<title>Node19</title>
<g id="a_node19"><a xlink:title=" ">
<polygon fill="white" stroke="#bfbfbf" points="1403.5,-56.5 1403.5,-75.5 1487.5,-75.5 1487.5,-56.5 1403.5,-56.5"/>
<text text-anchor="middle" x="1445.5" y="-63.5" font-family="Helvetica,sans-Serif" font-size="10.00">amxp/amxp.h</text>
</a>
</g>
</g>
<!-- Node3&#45;&gt;Node19 -->
<g id="edge18" class="edge">
<title>Node3&#45;&gt;Node19</title>
<path fill="none" stroke="midnightblue" d="M2207.83,-120.57C2120.32,-118.63 1784.31,-109.39 1497.91,-76.03"/>
<polygon fill="midnightblue" stroke="midnightblue" points="1498.09,-72.53 1487.75,-74.84 1497.27,-79.48 1498.09,-72.53"/>
</g>
<!-- Node20 -->
<g id="node20" class="node">
<title>Node20</title>
<g id="a_node20"><a xlink:title=" ">
<polygon fill="white" stroke="#bfbfbf" points="1505.5,-56.5 1505.5,-75.5 1645.5,-75.5 1645.5,-56.5 1505.5,-56.5"/>
<text text-anchor="middle" x="1575.5" y="-63.5" font-family="Helvetica,sans-Serif" font-size="10.00">amxd/amxd_parameter.h</text>
</a>
</g>
</g>
<!-- Node3&#45;&gt;Node20 -->
<g id="edge19" class="edge">
<title>Node3&#45;&gt;Node20</title>
<path fill="none" stroke="midnightblue" d="M2207.81,-119.58C2132.89,-114.62 1877.92,-97.24 1655.91,-76.1"/>
<polygon fill="midnightblue" stroke="midnightblue" points="1655.99,-72.6 1645.7,-75.13 1655.32,-79.56 1655.99,-72.6"/>
</g>
<!-- Node21 -->
<g id="node21" class="node">
<title>Node21</title>
<g id="a_node21"><a xlink:title=" ">
<polygon fill="white" stroke="#bfbfbf" points="1664,-56.5 1664,-75.5 1783,-75.5 1783,-56.5 1664,-56.5"/>
<text text-anchor="middle" x="1723.5" y="-63.5" font-family="Helvetica,sans-Serif" font-size="10.00">amxd/amxd_action.h</text>
</a>
</g>
</g>
<!-- Node3&#45;&gt;Node21 -->
<g id="edge20" class="edge">
<title>Node3&#45;&gt;Node21</title>
<path fill="none" stroke="midnightblue" d="M2207.6,-118.98C2144.85,-113.14 1958.78,-95.48 1793.54,-76.21"/>
<polygon fill="midnightblue" stroke="midnightblue" points="1793.53,-72.69 1783.19,-75 1792.72,-79.64 1793.53,-72.69"/>
</g>
<!-- Node22 -->
<g id="node22" class="node">
<title>Node22</title>
<g id="a_node22"><a xlink:title=" ">
<polygon fill="white" stroke="#bfbfbf" points="1801,-56.5 1801,-75.5 1976,-75.5 1976,-56.5 1801,-56.5"/>
<text text-anchor="middle" x="1888.5" y="-63.5" font-family="Helvetica,sans-Serif" font-size="10.00">amxd/amxd_object_parameter.h</text>
</a>
</g>
</g>
<!-- Node3&#45;&gt;Node22 -->
<g id="edge21" class="edge">
<title>Node3&#45;&gt;Node22</title>
<path fill="none" stroke="midnightblue" d="M2207.91,-117.58C2157.47,-109.59 2030.28,-89.45 1952.47,-77.13"/>
<polygon fill="midnightblue" stroke="midnightblue" points="1952.73,-73.63 1942.3,-75.52 1951.63,-80.54 1952.73,-73.63"/>
</g>
<!-- Node23 -->
<g id="node23" class="node">
<title>Node23</title>
<g id="a_node23"><a xlink:title=" ">
<polygon fill="white" stroke="#bfbfbf" points="1994.5,-56.5 1994.5,-75.5 2146.5,-75.5 2146.5,-56.5 1994.5,-56.5"/>
<text text-anchor="middle" x="2070.5" y="-63.5" font-family="Helvetica,sans-Serif" font-size="10.00">amxd/amxd_object_event.h</text>
</a>
</g>
</g>
<!-- Node3&#45;&gt;Node23 -->
<g id="edge22" class="edge">
<title>Node3&#45;&gt;Node23</title>
<path fill="none" stroke="midnightblue" d="M2207.73,-113.6C2181.32,-104.64 2136.5,-89.41 2105.29,-78.82"/>
<polygon fill="midnightblue" stroke="midnightblue" points="2106.27,-75.45 2095.68,-75.55 2104.02,-82.08 2106.27,-75.45"/>
</g>
<!-- Node24 -->
<g id="node24" class="node">
<title>Node24</title>
<g id="a_node24"><a xlink:title=" ">
<polygon fill="white" stroke="#bfbfbf" points="2165,-56.5 2165,-75.5 2294,-75.5 2294,-56.5 2165,-56.5"/>
<text text-anchor="middle" x="2229.5" y="-63.5" font-family="Helvetica,sans-Serif" font-size="10.00">amxd/amxd_function.h</text>
</a>
</g>
</g>
<!-- Node3&#45;&gt;Node24 -->
<g id="edge23" class="edge">
<title>Node3&#45;&gt;Node24</title>
<path fill="none" stroke="midnightblue" d="M2229.5,-112.08C2229.5,-105.01 2229.5,-94.86 2229.5,-85.99"/>
<polygon fill="midnightblue" stroke="midnightblue" points="2233,-85.75 2229.5,-75.75 2226,-85.75 2233,-85.75"/>
</g>
<!-- Node25 -->
<g id="node25" class="node">
<title>Node25</title>
<g id="a_node25"><a xlink:title=" ">
<polygon fill="white" stroke="#bfbfbf" points="2312,-56.5 2312,-75.5 2481,-75.5 2481,-56.5 2312,-56.5"/>
<text text-anchor="middle" x="2396.5" y="-63.5" font-family="Helvetica,sans-Serif" font-size="10.00">amxd/amxd_object_hierarchy.h</text>
</a>
</g>
</g>
<!-- Node3&#45;&gt;Node25 -->
<g id="edge24" class="edge">
<title>Node3&#45;&gt;Node25</title>
<path fill="none" stroke="midnightblue" d="M2251.33,-113.94C2278.98,-105 2326.99,-89.48 2360.19,-78.74"/>
<polygon fill="midnightblue" stroke="midnightblue" points="2361.54,-81.98 2369.98,-75.58 2359.39,-75.32 2361.54,-81.98"/>
</g>
<!-- Node26 -->
<g id="node26" class="node">
<title>Node26</title>
<g id="a_node26"><a xlink:title=" ">
<polygon fill="white" stroke="#bfbfbf" points="2499,-56.5 2499,-75.5 2618,-75.5 2618,-56.5 2499,-56.5"/>
<text text-anchor="middle" x="2558.5" y="-63.5" font-family="Helvetica,sans-Serif" font-size="10.00">amxd/amxd_object.h</text>
</a>
</g>
</g>
<!-- Node3&#45;&gt;Node26 -->
<g id="edge25" class="edge">
<title>Node3&#45;&gt;Node26</title>
<path fill="none" stroke="midnightblue" d="M2251.09,-117.46C2300.17,-109.4 2421.67,-89.46 2496.39,-77.19"/>
<polygon fill="midnightblue" stroke="midnightblue" points="2497.31,-80.59 2506.61,-75.52 2496.17,-73.68 2497.31,-80.59"/>
</g>
<!-- Node27 -->
<g id="node27" class="node">
<title>Node27</title>
<g id="a_node27"><a xlink:title=" ">
<polygon fill="white" stroke="#bfbfbf" points="2636,-56.5 2636,-75.5 2741,-75.5 2741,-56.5 2636,-56.5"/>
<text text-anchor="middle" x="2688.5" y="-63.5" font-family="Helvetica,sans-Serif" font-size="10.00">amxd/amxd_dm.h</text>
</a>
</g>
</g>
<!-- Node3&#45;&gt;Node27 -->
<g id="edge26" class="edge">
<title>Node3&#45;&gt;Node27</title>
<path fill="none" stroke="midnightblue" d="M2251.05,-118.8C2309.42,-112.78 2475.71,-95.3 2625.46,-76.1"/>
<polygon fill="midnightblue" stroke="midnightblue" points="2626.28,-79.52 2635.75,-74.77 2625.38,-72.58 2626.28,-79.52"/>
</g>
<!-- Node28 -->
<g id="node28" class="node">
<title>Node28</title>
<g id="a_node28"><a xlink:title=" ">
<polygon fill="white" stroke="#bfbfbf" points="2759.5,-56.5 2759.5,-75.5 2903.5,-75.5 2903.5,-56.5 2759.5,-56.5"/>
<text text-anchor="middle" x="2831.5" y="-63.5" font-family="Helvetica,sans-Serif" font-size="10.00">amxd/amxd_transaction.h</text>
</a>
</g>
</g>
<!-- Node3&#45;&gt;Node28 -->
<g id="edge27" class="edge">
<title>Node3&#45;&gt;Node28</title>
<path fill="none" stroke="midnightblue" d="M2251.31,-119.29C2321.62,-113.75 2548.8,-95.56 2748.96,-76.03"/>
<polygon fill="midnightblue" stroke="midnightblue" points="2749.46,-79.5 2759.07,-75.04 2748.78,-72.53 2749.46,-79.5"/>
</g>
<!-- Node29 -->
<g id="node29" class="node">
<title>Node29</title>
<g id="a_node29"><a xlink:title=" ">
<polygon fill="white" stroke="#bfbfbf" points="2921.5,-56.5 2921.5,-75.5 3037.5,-75.5 3037.5,-56.5 2921.5,-56.5"/>
<text text-anchor="middle" x="2979.5" y="-63.5" font-family="Helvetica,sans-Serif" font-size="10.00">amxb/amxb_types.h</text>
</a>
</g>
</g>
<!-- Node3&#45;&gt;Node29 -->
<g id="edge28" class="edge">
<title>Node3&#45;&gt;Node29</title>
<path fill="none" stroke="midnightblue" d="M2251.08,-120.11C2334.57,-116.56 2644.65,-102.35 2911.16,-76.07"/>
<polygon fill="midnightblue" stroke="midnightblue" points="2911.82,-79.52 2921.42,-75.05 2911.13,-72.55 2911.82,-79.52"/>
</g>
<!-- Node30 -->
<g id="node30" class="node">
<title>Node30</title>
<g id="a_node30"><a xlink:title=" ">
<polygon fill="white" stroke="#bfbfbf" points="3055.5,-56.5 3055.5,-75.5 3191.5,-75.5 3191.5,-56.5 3055.5,-56.5"/>
<text text-anchor="middle" x="3123.5" y="-63.5" font-family="Helvetica,sans-Serif" font-size="10.00">amxb/amxb_operators.h</text>
</a>
</g>
</g>
<!-- Node3&#45;&gt;Node30 -->
<g id="edge29" class="edge">
<title>Node3&#45;&gt;Node30</title>
<path fill="none" stroke="midnightblue" d="M2251.31,-120.29C2345.08,-117.14 2723.36,-103.37 3045.11,-76.07"/>
<polygon fill="midnightblue" stroke="midnightblue" points="3045.42,-79.56 3055.09,-75.22 3044.83,-72.58 3045.42,-79.56"/>
</g>
<!-- Node31 -->
<g id="node31" class="node">
<title>Node31</title>
<g id="a_node31"><a xlink:title=" ">
<polygon fill="white" stroke="#bfbfbf" points="3209.5,-56.5 3209.5,-75.5 3321.5,-75.5 3321.5,-56.5 3209.5,-56.5"/>
<text text-anchor="middle" x="3265.5" y="-63.5" font-family="Helvetica,sans-Serif" font-size="10.00">amxb/amxb_error.h</text>
</a>
</g>
</g>
<!-- Node3&#45;&gt;Node31 -->
<g id="edge30" class="edge">
<title>Node3&#45;&gt;Node31</title>
<path fill="none" stroke="midnightblue" d="M2251.08,-120.73C2354.87,-119.27 2813.21,-111.12 3199.2,-76.03"/>
<polygon fill="midnightblue" stroke="midnightblue" points="3199.53,-79.52 3209.17,-75.12 3198.89,-72.55 3199.53,-79.52"/>
</g>
<!-- Node32 -->
<g id="node32" class="node">
<title>Node32</title>
<g id="a_node32"><a xlink:title=" ">
<polygon fill="white" stroke="#bfbfbf" points="3340,-56.5 3340,-75.5 3423,-75.5 3423,-56.5 3340,-56.5"/>
<text text-anchor="middle" x="3381.5" y="-63.5" font-family="Helvetica,sans-Serif" font-size="10.00">amxo/amxo.h</text>
</a>
</g>
</g>
<!-- Node3&#45;&gt;Node32 -->
<g id="edge31" class="edge">
<title>Node3&#45;&gt;Node32</title>
<path fill="none" stroke="midnightblue" d="M2251.31,-121.19C2363.8,-121.95 2889.76,-122.8 3329.77,-75.91"/>
<polygon fill="midnightblue" stroke="midnightblue" points="3330.25,-79.37 3339.82,-74.82 3329.5,-72.41 3330.25,-79.37"/>
</g>
<!-- Node33 -->
<g id="node33" class="node">
<title>Node33</title>
<g id="a_node33"><a xlink:title=" ">
<polygon fill="white" stroke="#bfbfbf" points="3441,-56.5 3441,-75.5 3556,-75.5 3556,-56.5 3441,-56.5"/>
<text text-anchor="middle" x="3498.5" y="-63.5" font-family="Helvetica,sans-Serif" font-size="10.00">amxo/amxo_types.h</text>
</a>
</g>
</g>
<!-- Node3&#45;&gt;Node33 -->
<g id="edge32" class="edge">
<title>Node3&#45;&gt;Node33</title>
<path fill="none" stroke="midnightblue" d="M2251.28,-120.97C2369.64,-120.61 2947.58,-116.83 3430.83,-75.96"/>
<polygon fill="midnightblue" stroke="midnightblue" points="3431.13,-79.45 3440.8,-75.11 3430.53,-72.47 3431.13,-79.45"/>
</g>
<!-- Node34 -->
<g id="node34" class="node">
<title>Node34</title>
<g id="a_node34"><a xlink:href="wld__types_8h.html" target="_top" xlink:title=" ">
<polygon fill="white" stroke="red" points="45,-56.5 45,-75.5 120,-75.5 120,-56.5 45,-56.5"/>
<text text-anchor="middle" x="82.5" y="-63.5" font-family="Helvetica,sans-Serif" font-size="10.00">wld_types.h</text>
</a>
</g>
</g>
<!-- Node3&#45;&gt;Node34 -->
<g id="edge33" class="edge">
<title>Node3&#45;&gt;Node34</title>
<path fill="none" stroke="midnightblue" d="M2207.87,-120.73C1999.53,-118.13 351.54,-96.99 134.5,-76 133.19,-75.87 131.87,-75.73 130.53,-75.58"/>
<polygon fill="midnightblue" stroke="midnightblue" points="130.56,-72.05 120.18,-74.21 129.64,-78.99 130.56,-72.05"/>
</g>
<!-- Node75 -->
<g id="node35" class="node">
<title>Node75</title>
<g id="a_node35"><a xlink:href="wld__extMod_8h.html" target="_top" xlink:title=" ">
<polygon fill="white" stroke="black" points="3574,-56.5 3574,-75.5 3659,-75.5 3659,-56.5 3574,-56.5"/>
<text text-anchor="middle" x="3616.5" y="-63.5" font-family="Helvetica,sans-Serif" font-size="10.00">wld_extMod.h</text>
</a>
</g>
</g>
<!-- Node3&#45;&gt;Node75 -->
<g id="edge36" class="edge">
<title>Node3&#45;&gt;Node75</title>
<path fill="none" stroke="midnightblue" d="M2251.4,-120.68C2400.93,-118.4 3273.8,-104.11 3563.93,-75.86"/>
<polygon fill="midnightblue" stroke="midnightblue" points="3564.4,-79.33 3574,-74.85 3563.7,-72.36 3564.4,-79.33"/>
</g>
<!-- Node34&#45;&gt;Node5 -->
<g id="edge34" class="edge">
<title>Node34&#45;&gt;Node5</title>
<path fill="none" stroke="midnightblue" d="M73.5,-56.32C65.31,-48.42 52.99,-36.55 43.03,-26.94"/>
<polygon fill="midnightblue" stroke="midnightblue" points="45.29,-24.26 35.66,-19.83 40.43,-29.29 45.29,-24.26"/>
</g>
<!-- Node34&#45;&gt;Node10 -->
<g id="edge35" class="edge">
<title>Node34&#45;&gt;Node10</title>
<path fill="none" stroke="midnightblue" d="M90.43,-56.08C97.35,-48.3 107.57,-36.8 115.95,-27.37"/>
<polygon fill="midnightblue" stroke="midnightblue" points="118.69,-29.55 122.72,-19.75 113.46,-24.9 118.69,-29.55"/>
</g>
<!-- Node75&#45;&gt;Node6 -->
<g id="edge38" class="edge">
<title>Node75&#45;&gt;Node6</title>
<path fill="none" stroke="midnightblue" d="M3650.57,-56.44C3687.68,-47.12 3747.16,-32.18 3787.71,-22"/>
<polygon fill="midnightblue" stroke="midnightblue" points="3788.75,-25.35 3797.59,-19.52 3787.04,-18.56 3788.75,-25.35"/>
</g>
<!-- Node75&#45;&gt;Node18 -->
<g id="edge37" class="edge">
<title>Node75&#45;&gt;Node18</title>
<path fill="none" stroke="midnightblue" d="M3573.72,-57.1C3570.6,-56.68 3567.51,-56.3 3564.5,-56 3271.72,-26.46 2333.68,-14.18 2102.41,-11.55"/>
<polygon fill="midnightblue" stroke="midnightblue" points="2102.29,-8.05 2092.25,-11.44 2102.21,-15.05 2102.29,-8.05"/>
</g>
<!-- Node87&#45;&gt;Node6 -->
<g id="edge44" class="edge">
<title>Node87&#45;&gt;Node6</title>
<path fill="none" stroke="midnightblue" d="M4019.6,-224.46C4038.94,-217.92 4060.93,-206.72 4072.5,-188 4077.17,-180.44 4075.29,-176.44 4072.5,-168 4053.08,-109.17 4040.45,-91.25 3989.5,-56 3962.21,-37.12 3927.09,-26.11 3896.89,-19.71"/>
<polygon fill="midnightblue" stroke="midnightblue" points="3897.35,-16.23 3886.86,-17.71 3895.99,-23.1 3897.35,-16.23"/>
</g>
<!-- Node88 -->
<g id="node40" class="node">
<title>Node88</title>
<g id="a_node40"><a xlink:href="wld__nl80211__compat_8h.html" target="_top" xlink:title=" ">
<polygon fill="white" stroke="red" points="3755,-168.5 3755,-187.5 3884,-187.5 3884,-168.5 3755,-168.5"/>
<text text-anchor="middle" x="3819.5" y="-175.5" font-family="Helvetica,sans-Serif" font-size="10.00">wld_nl80211_compat.h</text>
</a>
</g>
</g>
<!-- Node87&#45;&gt;Node88 -->
<g id="edge43" class="edge">
<title>Node87&#45;&gt;Node88</title>
<path fill="none" stroke="midnightblue" d="M3956.67,-224.44C3929.25,-215.36 3885.72,-200.94 3855.07,-190.78"/>
<polygon fill="midnightblue" stroke="midnightblue" points="3855.8,-187.34 3845.21,-187.52 3853.6,-193.98 3855.8,-187.34"/>
</g>
<!-- Node94 -->
<g id="node41" class="node">
<title>Node94</title>
<g id="a_node41"><a xlink:title=" ">
<polygon fill="white" stroke="#bfbfbf" points="3902,-168.5 3902,-187.5 4063,-187.5 4063,-168.5 3902,-168.5"/>
<text text-anchor="middle" x="3982.5" y="-175.5" font-family="Helvetica,sans-Serif" font-size="10.00">swl/swl_common_chanspec.h</text>
</a>
</g>
</g>
<!-- Node87&#45;&gt;Node94 -->
<g id="edge45" class="edge">
<title>Node87&#45;&gt;Node94</title>
<path fill="none" stroke="midnightblue" d="M3982.5,-224.08C3982.5,-217.01 3982.5,-206.86 3982.5,-197.99"/>
<polygon fill="midnightblue" stroke="midnightblue" points="3986,-197.75 3982.5,-187.75 3979,-197.75 3986,-197.75"/>
</g>
<!-- Node63 -->
<g id="node43" class="node">
<title>Node63</title>
<g id="a_node43"><a xlink:title=" ">
<polygon fill="white" stroke="#bfbfbf" points="4566.5,-168.5 4566.5,-187.5 4666.5,-187.5 4666.5,-168.5 4566.5,-168.5"/>
<text text-anchor="middle" x="4616.5" y="-175.5" font-family="Helvetica,sans-Serif" font-size="10.00">swla/swla_mac.h</text>
</a>
</g>
</g>
<!-- Node95&#45;&gt;Node63 -->
<g id="edge47" class="edge">
<title>Node95&#45;&gt;Node63</title>
<path fill="none" stroke="midnightblue" d="M4335.29,-224.74C4394.65,-215.08 4492.8,-199.12 4556.04,-188.83"/>
<polygon fill="midnightblue" stroke="midnightblue" points="4556.96,-192.23 4566.26,-187.17 4555.83,-185.32 4556.96,-192.23"/>
</g>
<!-- Node97&#45;&gt;Node3 -->
<g id="edge52" class="edge">
<title>Node97&#45;&gt;Node3</title>
<path fill="none" stroke="midnightblue" d="M2883.02,-224.32C2868.11,-209.69 2835.51,-180.49 2801.5,-168 2701.14,-131.14 2366.93,-124.46 2261.59,-123.26"/>
<polygon fill="midnightblue" stroke="midnightblue" points="2261.32,-119.75 2251.29,-123.15 2261.25,-126.75 2261.32,-119.75"/>
</g>
<!-- Node97&#45;&gt;Node75 -->
<g id="edge59" class="edge">
<title>Node97&#45;&gt;Node75</title>
<path fill="none" stroke="midnightblue" d="M2928.45,-224.54C3049.52,-196.82 3434.21,-108.74 3569.16,-77.84"/>
<polygon fill="midnightblue" stroke="midnightblue" points="3570.22,-81.19 3579.19,-75.54 3568.66,-74.36 3570.22,-81.19"/>
</g>
<!-- Node98 -->
<g id="node46" class="node">
<title>Node98</title>
<g id="a_node46"><a xlink:title=" ">
<polygon fill="white" stroke="#bfbfbf" points="2682.5,-168.5 2682.5,-187.5 2792.5,-187.5 2792.5,-168.5 2682.5,-168.5"/>
<text text-anchor="middle" x="2737.5" y="-175.5" font-family="Helvetica,sans-Serif" font-size="10.00">swla/swla_trilean.h</text>
</a>
</g>
</g>
<!-- Node97&#45;&gt;Node98 -->
<g id="edge51" class="edge">
<title>Node97&#45;&gt;Node98</title>
<path fill="none" stroke="midnightblue" d="M2867.1,-224.44C2841.3,-215.4 2800.42,-201.06 2771.48,-190.92"/>
<polygon fill="midnightblue" stroke="midnightblue" points="2772.38,-187.52 2761.79,-187.52 2770.07,-194.13 2772.38,-187.52"/>
</g>
<!-- Node99 -->
<g id="node47" class="node">
<title>Node99</title>
<g id="a_node47"><a xlink:href="wld__channel_8h.html" target="_top" xlink:title=" ">
<polygon fill="white" stroke="red" points="2848.5,-168.5 2848.5,-187.5 2934.5,-187.5 2934.5,-168.5 2848.5,-168.5"/>
<text text-anchor="middle" x="2891.5" y="-175.5" font-family="Helvetica,sans-Serif" font-size="10.00">wld_channel.h</text>
</a>
</g>
</g>
<!-- Node97&#45;&gt;Node99 -->
<g id="edge53" class="edge">
<title>Node97&#45;&gt;Node99</title>
<path fill="none" stroke="midnightblue" d="M2891.5,-224.08C2891.5,-217.01 2891.5,-206.86 2891.5,-197.99"/>
<polygon fill="midnightblue" stroke="midnightblue" points="2895,-197.75 2891.5,-187.75 2888,-197.75 2895,-197.75"/>
</g>
<!-- Node100 -->
<g id="node48" class="node">
<title>Node100</title>
<g id="a_node48"><a xlink:href="wld__radioOperatingStandards_8h.html" target="_top" xlink:title=" ">
<polygon fill="white" stroke="black" points="3451.5,-168.5 3451.5,-187.5 3621.5,-187.5 3621.5,-168.5 3451.5,-168.5"/>
<text text-anchor="middle" x="3536.5" y="-175.5" font-family="Helvetica,sans-Serif" font-size="10.00">wld_radioOperatingStandards.h</text>
</a>
</g>
</g>
<!-- Node97&#45;&gt;Node100 -->
<g id="edge55" class="edge">
<title>Node97&#45;&gt;Node100</title>
<path fill="none" stroke="midnightblue" d="M2928.03,-229.94C3025.81,-221.76 3295.97,-199.14 3441.2,-186.98"/>
<polygon fill="midnightblue" stroke="midnightblue" points="3441.76,-190.44 3451.44,-186.12 3441.18,-183.47 3441.76,-190.44"/>
</g>
<!-- Node101 -->
<g id="node49" class="node">
<title>Node101</title>
<g id="a_node49"><a xlink:href="wld__rad__macCfg_8h.html" target="_top" xlink:title=" ">
<polygon fill="white" stroke="red" points="1056,-112.5 1056,-131.5 1163,-131.5 1163,-112.5 1056,-112.5"/>
<text text-anchor="middle" x="1109.5" y="-119.5" font-family="Helvetica,sans-Serif" font-size="10.00">wld_rad_macCfg.h</text>
</a>
</g>
</g>
<!-- Node97&#45;&gt;Node101 -->
<g id="edge60" class="edge">
<title>Node97&#45;&gt;Node101</title>
<path fill="none" stroke="midnightblue" d="M2854.69,-230.73C2631.71,-216.96 1461.71,-144.74 1173.63,-126.96"/>
<polygon fill="midnightblue" stroke="midnightblue" points="1173.56,-123.45 1163.36,-126.32 1173.13,-130.43 1173.56,-123.45"/>
</g>
<!-- Node99&#45;&gt;Node3 -->
<g id="edge54" class="edge">
<title>Node99&#45;&gt;Node3</title>
<path fill="none" stroke="midnightblue" d="M2848.29,-169.79C2843.64,-169.13 2838.98,-168.52 2834.5,-168 2616.08,-142.68 2351.56,-128.73 2261.38,-124.44"/>
<polygon fill="midnightblue" stroke="midnightblue" points="2261.42,-120.94 2251.27,-123.97 2261.09,-127.93 2261.42,-120.94"/>
</g>
<!-- Node100&#45;&gt;Node3 -->
<g id="edge58" class="edge">
<title>Node100&#45;&gt;Node3</title>
<path fill="none" stroke="midnightblue" d="M3451.5,-173.49C3193.58,-162.83 2427.4,-131.18 2261.44,-124.32"/>
<polygon fill="midnightblue" stroke="midnightblue" points="2261.52,-120.82 2251.39,-123.9 2261.23,-127.81 2261.52,-120.82"/>
</g>
<!-- Node100&#45;&gt;Node4 -->
<g id="edge56" class="edge">
<title>Node100&#45;&gt;Node4</title>
<path fill="none" stroke="midnightblue" d="M3566,-168.46C3633.84,-148.82 3800.95,-100.45 3877.3,-78.35"/>
<polygon fill="midnightblue" stroke="midnightblue" points="3878.38,-81.68 3887.02,-75.53 3876.44,-74.95 3878.38,-81.68"/>
</g>
<!-- Node100&#45;&gt;Node9 -->
<g id="edge57" class="edge">
<title>Node100&#45;&gt;Node9</title>
<path fill="none" stroke="midnightblue" d="M3556.51,-168.37C3601.29,-149.05 3709.76,-102.26 3762.18,-79.65"/>
<polygon fill="midnightblue" stroke="midnightblue" points="3763.79,-82.77 3771.58,-75.59 3761.02,-76.34 3763.79,-82.77"/>
</g>
<!-- Node101&#45;&gt;Node34 -->
<g id="edge61" class="edge">
<title>Node101&#45;&gt;Node34</title>
<path fill="none" stroke="midnightblue" d="M1055.94,-120.88C908.52,-120.04 484.45,-114.21 134.5,-76 133.19,-75.86 131.87,-75.7 130.54,-75.54"/>
<polygon fill="midnightblue" stroke="midnightblue" points="130.58,-72.01 120.2,-74.1 129.62,-78.94 130.58,-72.01"/>
</g>
<!-- Node104&#45;&gt;Node3 -->
<g id="edge63" class="edge">
<title>Node104&#45;&gt;Node3</title>
<path fill="none" stroke="midnightblue" d="M2300.46,-224.37C2287.75,-206.22 2258.06,-163.8 2241.39,-139.99"/>
<polygon fill="midnightblue" stroke="midnightblue" points="2244.12,-137.78 2235.51,-131.59 2238.38,-141.79 2244.12,-137.78"/>
</g>
</g>
</svg>
