<?xml version="1.0" encoding="UTF-8" standalone="no"?>
<!DOCTYPE svg PUBLIC "-//W3C//DTD SVG 1.1//EN"
 "http://www.w3.org/Graphics/SVG/1.1/DTD/svg11.dtd">
<!-- Generated by graphviz version 2.43.0 (0)
 -->
<!-- Title: wld_secDmn_countGrpMembers Pages: 1 -->
<svg width="381pt" height="78pt"
 viewBox="0.00 0.00 381.00 77.50" xmlns="http://www.w3.org/2000/svg" xmlns:xlink="http://www.w3.org/1999/xlink">
<g id="graph0" class="graph" transform="scale(1 1) rotate(0) translate(4 73.5)">
<title>wld_secDmn_countGrpMembers</title>
<polygon fill="white" stroke="transparent" points="-4,4 -4,-73.5 377,-73.5 377,4 -4,4"/>
<!-- Node1 -->
<g id="node1" class="node">
<title>Node1</title>
<g id="a_node1"><a xlink:title=" ">
<polygon fill="#bfbfbf" stroke="black" points="0,-28 0,-47 174,-47 174,-28 0,-28"/>
<text text-anchor="middle" x="87" y="-35" font-family="Helvetica,sans-Serif" font-size="10.00">wld_secDmn_countGrpMembers</text>
</a>
</g>
</g>
<!-- Node2 -->
<g id="node2" class="node">
<title>Node2</title>
<g id="a_node2"><a xlink:href="wld__secDmn_8c.html#a734eba007ba94a51c1cdf408c979c5ab" target="_top" xlink:title=" ">
<polygon fill="white" stroke="black" points="233,-50 233,-69 350,-69 350,-50 233,-50"/>
<text text-anchor="middle" x="291.5" y="-57" font-family="Helvetica,sans-Serif" font-size="10.00">wld_secDmn_getGrp</text>
</a>
</g>
</g>
<!-- Node1&#45;&gt;Node2 -->
<g id="edge1" class="edge">
<title>Node1&#45;&gt;Node2</title>
<path fill="none" stroke="midnightblue" d="M174.17,-46.86C190.42,-48.63 207.2,-50.45 222.78,-52.14"/>
<polygon fill="midnightblue" stroke="midnightblue" points="222.51,-55.63 232.83,-53.23 223.27,-48.68 222.51,-55.63"/>
</g>
<!-- Node3 -->
<g id="node3" class="node">
<title>Node3</title>
<g id="a_node3"><a xlink:href="wld__secDmnGrp_8c.html#a7a55988e27b9c7365f21e1b68bc58b85" target="_top" xlink:title=" ">
<polygon fill="white" stroke="black" points="210,-0.5 210,-30.5 373,-30.5 373,-0.5 210,-0.5"/>
<text text-anchor="start" x="218" y="-18.5" font-family="Helvetica,sans-Serif" font-size="10.00">wld_secDmnGrp_getMembers</text>
<text text-anchor="middle" x="291.5" y="-7.5" font-family="Helvetica,sans-Serif" font-size="10.00">Count</text>
</a>
</g>
</g>
<!-- Node1&#45;&gt;Node3 -->
<g id="edge2" class="edge">
<title>Node1&#45;&gt;Node3</title>
<path fill="none" stroke="midnightblue" d="M174.17,-28.14C182.68,-27.21 191.34,-26.27 199.89,-25.34"/>
<polygon fill="midnightblue" stroke="midnightblue" points="200.31,-28.82 209.87,-24.26 199.55,-21.86 200.31,-28.82"/>
</g>
</g>
</svg>
