<?xml version="1.0" encoding="UTF-8" standalone="no"?>
<!DOCTYPE svg PUBLIC "-//W3C//DTD SVG 1.1//EN"
 "http://www.w3.org/Graphics/SVG/1.1/DTD/svg11.dtd">
<!-- Generated by graphviz version 2.43.0 (0)
 -->
<!-- Title: src/nl80211/wld_rad_nl80211.c Pages: 1 -->
<svg width="3801pt" height="319pt"
 viewBox="0.00 0.00 3801.00 319.00" xmlns="http://www.w3.org/2000/svg" xmlns:xlink="http://www.w3.org/1999/xlink">
<g id="graph0" class="graph" transform="scale(1 1) rotate(0) translate(4 315)">
<title>src/nl80211/wld_rad_nl80211.c</title>
<polygon fill="white" stroke="transparent" points="-4,4 -4,-315 3797,-315 3797,4 -4,4"/>
<!-- Node1 -->
<g id="node1" class="node">
<title>Node1</title>
<g id="a_node1"><a xlink:title=" ">
<polygon fill="#bfbfbf" stroke="black" points="2462,-280.5 2462,-310.5 2576,-310.5 2576,-280.5 2462,-280.5"/>
<text text-anchor="start" x="2470" y="-298.5" font-family="Helvetica,sans-Serif" font-size="10.00">src/nl80211/wld_rad</text>
<text text-anchor="middle" x="2519" y="-287.5" font-family="Helvetica,sans-Serif" font-size="10.00">_nl80211.c</text>
</a>
</g>
</g>
<!-- Node2 -->
<g id="node2" class="node">
<title>Node2</title>
<g id="a_node2"><a xlink:href="wld__rad__nl80211_8h.html" target="_top" xlink:title=" ">
<polygon fill="white" stroke="black" points="2395,-224.5 2395,-243.5 2503,-243.5 2503,-224.5 2395,-224.5"/>
<text text-anchor="middle" x="2449" y="-231.5" font-family="Helvetica,sans-Serif" font-size="10.00">wld_rad_nl80211.h</text>
</a>
</g>
</g>
<!-- Node1&#45;&gt;Node2 -->
<g id="edge1" class="edge">
<title>Node1&#45;&gt;Node2</title>
<path fill="none" stroke="midnightblue" d="M2502.41,-280.4C2491.71,-271.31 2477.81,-259.49 2466.87,-250.19"/>
<polygon fill="midnightblue" stroke="midnightblue" points="2469.07,-247.47 2459.19,-243.66 2464.54,-252.8 2469.07,-247.47"/>
</g>
<!-- Node6 -->
<g id="node6" class="node">
<title>Node6</title>
<g id="a_node6"><a xlink:title=" ">
<polygon fill="white" stroke="#bfbfbf" points="3309,-0.5 3309,-19.5 3419,-19.5 3419,-0.5 3309,-0.5"/>
<text text-anchor="middle" x="3364" y="-7.5" font-family="Helvetica,sans-Serif" font-size="10.00">swl/swl_common.h</text>
</a>
</g>
</g>
<!-- Node1&#45;&gt;Node6 -->
<g id="edge56" class="edge">
<title>Node1&#45;&gt;Node6</title>
<path fill="none" stroke="midnightblue" d="M2576.3,-285.06C2796.07,-248.6 3574.43,-116.97 3608,-76 3613.63,-69.12 3613.69,-62.83 3608,-56 3585.63,-29.13 3493.54,-18.24 3429.13,-13.87"/>
<polygon fill="midnightblue" stroke="midnightblue" points="3429.25,-10.37 3419.04,-13.23 3428.8,-17.36 3429.25,-10.37"/>
</g>
<!-- Node87 -->
<g id="node35" class="node">
<title>Node87</title>
<g id="a_node35"><a xlink:href="wld__ap__nl80211_8h.html" target="_top" xlink:title=" ">
<polygon fill="white" stroke="black" points="2269,-224.5 2269,-243.5 2373,-243.5 2373,-224.5 2269,-224.5"/>
<text text-anchor="middle" x="2321" y="-231.5" font-family="Helvetica,sans-Serif" font-size="10.00">wld_ap_nl80211.h</text>
</a>
</g>
</g>
<!-- Node1&#45;&gt;Node87 -->
<g id="edge36" class="edge">
<title>Node1&#45;&gt;Node87</title>
<path fill="none" stroke="midnightblue" d="M2472.33,-280.47C2437.87,-270.12 2391.54,-256.2 2359.26,-246.5"/>
<polygon fill="midnightblue" stroke="midnightblue" points="2359.89,-243.03 2349.31,-243.51 2357.88,-249.74 2359.89,-243.03"/>
</g>
<!-- Node88 -->
<g id="node36" class="node">
<title>Node88</title>
<g id="a_node36"><a xlink:href="wld__ep__nl80211_8h.html" target="_top" xlink:title=" ">
<polygon fill="white" stroke="black" points="2147,-224.5 2147,-243.5 2251,-243.5 2251,-224.5 2147,-224.5"/>
<text text-anchor="middle" x="2199" y="-231.5" font-family="Helvetica,sans-Serif" font-size="10.00">wld_ep_nl80211.h</text>
</a>
</g>
</g>
<!-- Node1&#45;&gt;Node88 -->
<g id="edge41" class="edge">
<title>Node1&#45;&gt;Node88</title>
<path fill="none" stroke="midnightblue" d="M2461.79,-283.86C2403.28,-272.98 2312.97,-256.19 2254.93,-245.4"/>
<polygon fill="midnightblue" stroke="midnightblue" points="2255.31,-241.91 2244.84,-243.52 2254.03,-248.79 2255.31,-241.91"/>
</g>
<!-- Node89 -->
<g id="node37" class="node">
<title>Node89</title>
<g id="a_node37"><a xlink:href="wld__ssid__nl80211__priv_8h.html" target="_top" xlink:title=" ">
<polygon fill="white" stroke="black" points="2521.5,-224.5 2521.5,-243.5 2656.5,-243.5 2656.5,-224.5 2521.5,-224.5"/>
<text text-anchor="middle" x="2589" y="-231.5" font-family="Helvetica,sans-Serif" font-size="10.00">wld_ssid_nl80211_priv.h</text>
</a>
</g>
</g>
<!-- Node1&#45;&gt;Node89 -->
<g id="edge46" class="edge">
<title>Node1&#45;&gt;Node89</title>
<path fill="none" stroke="midnightblue" d="M2535.59,-280.4C2546.29,-271.31 2560.19,-259.49 2571.13,-250.19"/>
<polygon fill="midnightblue" stroke="midnightblue" points="2573.46,-252.8 2578.81,-243.66 2568.93,-247.47 2573.46,-252.8"/>
</g>
<!-- Node91 -->
<g id="node39" class="node">
<title>Node91</title>
<g id="a_node39"><a xlink:href="wld__nl80211__utils_8h.html" target="_top" xlink:title=" ">
<polygon fill="white" stroke="black" points="3336.5,-224.5 3336.5,-243.5 3449.5,-243.5 3449.5,-224.5 3336.5,-224.5"/>
<text text-anchor="middle" x="3393" y="-231.5" font-family="Helvetica,sans-Serif" font-size="10.00">wld_nl80211_utils.h</text>
</a>
</g>
</g>
<!-- Node1&#45;&gt;Node91 -->
<g id="edge50" class="edge">
<title>Node1&#45;&gt;Node91</title>
<path fill="none" stroke="midnightblue" d="M2576.44,-291.84C2707.41,-285.55 3038.14,-268.46 3314,-244 3317.91,-243.65 3321.93,-243.27 3325.98,-242.87"/>
<polygon fill="midnightblue" stroke="midnightblue" points="3326.49,-246.34 3336.08,-241.83 3325.77,-239.37 3326.49,-246.34"/>
</g>
<!-- Node99 -->
<g id="node42" class="node">
<title>Node99</title>
<g id="a_node42"><a xlink:href="wld__linuxIfUtils_8h.html" target="_top" xlink:title=" ">
<polygon fill="white" stroke="black" points="3467.5,-224.5 3467.5,-243.5 3568.5,-243.5 3568.5,-224.5 3467.5,-224.5"/>
<text text-anchor="middle" x="3518" y="-231.5" font-family="Helvetica,sans-Serif" font-size="10.00">wld_linuxIfUtils.h</text>
</a>
</g>
</g>
<!-- Node1&#45;&gt;Node99 -->
<g id="edge54" class="edge">
<title>Node1&#45;&gt;Node99</title>
<path fill="none" stroke="midnightblue" d="M2576.11,-293.37C2721.51,-290.09 3117.69,-278.54 3457.16,-244.1"/>
<polygon fill="midnightblue" stroke="midnightblue" points="3457.6,-247.57 3467.19,-243.07 3456.89,-240.61 3457.6,-247.57"/>
</g>
<!-- Node100 -->
<g id="node44" class="node">
<title>Node100</title>
<g id="a_node44"><a xlink:title=" ">
<polygon fill="white" stroke="#bfbfbf" points="3586.5,-224.5 3586.5,-243.5 3723.5,-243.5 3723.5,-224.5 3586.5,-224.5"/>
<text text-anchor="middle" x="3655" y="-231.5" font-family="Helvetica,sans-Serif" font-size="10.00">swl/swl_common_time.h</text>
</a>
</g>
</g>
<!-- Node1&#45;&gt;Node100 -->
<g id="edge57" class="edge">
<title>Node1&#45;&gt;Node100</title>
<path fill="none" stroke="midnightblue" d="M2576.2,-293.15C2733.89,-289.15 3188.35,-275.61 3576.16,-244.1"/>
<polygon fill="midnightblue" stroke="midnightblue" points="3576.49,-247.59 3586.18,-243.28 3575.92,-240.61 3576.49,-247.59"/>
</g>
<!-- Node101 -->
<g id="node45" class="node">
<title>Node101</title>
<g id="a_node45"><a xlink:href="wld__radio_8h.html" target="_top" xlink:title=" ">
<polygon fill="white" stroke="black" points="1793.5,-224.5 1793.5,-243.5 1866.5,-243.5 1866.5,-224.5 1793.5,-224.5"/>
<text text-anchor="middle" x="1830" y="-231.5" font-family="Helvetica,sans-Serif" font-size="10.00">wld_radio.h</text>
</a>
</g>
</g>
<!-- Node1&#45;&gt;Node101 -->
<g id="edge58" class="edge">
<title>Node1&#45;&gt;Node101</title>
<path fill="none" stroke="midnightblue" d="M2461.74,-289.55C2328.38,-278.04 1999.17,-249.61 1876.8,-239.04"/>
<polygon fill="midnightblue" stroke="midnightblue" points="1876.9,-235.54 1866.63,-238.16 1876.3,-242.51 1876.9,-235.54"/>
</g>
<!-- Node108 -->
<g id="node50" class="node">
<title>Node108</title>
<g id="a_node50"><a xlink:href="wld__util_8h.html" target="_top" xlink:title=" ">
<polygon fill="white" stroke="black" points="2020,-224.5 2020,-243.5 2084,-243.5 2084,-224.5 2020,-224.5"/>
<text text-anchor="middle" x="2052" y="-231.5" font-family="Helvetica,sans-Serif" font-size="10.00">wld_util.h</text>
</a>
</g>
</g>
<!-- Node1&#45;&gt;Node108 -->
<g id="edge69" class="edge">
<title>Node1&#45;&gt;Node108</title>
<path fill="none" stroke="midnightblue" d="M2461.74,-287.2C2366.58,-275.08 2178.05,-251.06 2094.07,-240.36"/>
<polygon fill="midnightblue" stroke="midnightblue" points="2094.48,-236.88 2084.12,-239.09 2093.6,-243.83 2094.48,-236.88"/>
</g>
<!-- Node3 -->
<g id="node3" class="node">
<title>Node3</title>
<g id="a_node3"><a xlink:href="wld_8h.html" target="_top" xlink:title=" ">
<polygon fill="white" stroke="red" points="1988.5,-112.5 1988.5,-131.5 2031.5,-131.5 2031.5,-112.5 1988.5,-112.5"/>
<text text-anchor="middle" x="2010" y="-119.5" font-family="Helvetica,sans-Serif" font-size="10.00">wld.h</text>
</a>
</g>
</g>
<!-- Node2&#45;&gt;Node3 -->
<g id="edge2" class="edge">
<title>Node2&#45;&gt;Node3</title>
<path fill="none" stroke="midnightblue" d="M2468.77,-224.41C2494.26,-212.2 2533.17,-188.96 2514,-168 2482.08,-133.1 2147.2,-125.07 2041.67,-123.4"/>
<polygon fill="midnightblue" stroke="midnightblue" points="2041.68,-119.9 2031.63,-123.25 2041.57,-126.9 2041.68,-119.9"/>
</g>
<!-- Node76 -->
<g id="node32" class="node">
<title>Node76</title>
<g id="a_node32"><a xlink:href="wld__nl80211__api_8h.html" target="_top" xlink:title=" ">
<polygon fill="white" stroke="red" points="2398.5,-168.5 2398.5,-187.5 2505.5,-187.5 2505.5,-168.5 2398.5,-168.5"/>
<text text-anchor="middle" x="2452" y="-175.5" font-family="Helvetica,sans-Serif" font-size="10.00">wld_nl80211_api.h</text>
</a>
</g>
</g>
<!-- Node2&#45;&gt;Node76 -->
<g id="edge33" class="edge">
<title>Node2&#45;&gt;Node76</title>
<path fill="none" stroke="midnightblue" d="M2449.5,-224.08C2449.89,-217.01 2450.45,-206.86 2450.95,-197.99"/>
<polygon fill="midnightblue" stroke="midnightblue" points="2454.45,-197.93 2451.51,-187.75 2447.46,-197.54 2454.45,-197.93"/>
</g>
<!-- Node85 -->
<g id="node33" class="node">
<title>Node85</title>
<g id="a_node33"><a xlink:href="wld__nl80211__events_8h.html" target="_top" xlink:title=" ">
<polygon fill="white" stroke="red" points="2114.5,-168.5 2114.5,-187.5 2239.5,-187.5 2239.5,-168.5 2114.5,-168.5"/>
<text text-anchor="middle" x="2177" y="-175.5" font-family="Helvetica,sans-Serif" font-size="10.00">wld_nl80211_events.h</text>
</a>
</g>
</g>
<!-- Node2&#45;&gt;Node85 -->
<g id="edge34" class="edge">
<title>Node2&#45;&gt;Node85</title>
<path fill="none" stroke="midnightblue" d="M2405.9,-224.44C2358.15,-214.96 2281.14,-199.67 2229.81,-189.48"/>
<polygon fill="midnightblue" stroke="midnightblue" points="2230.39,-186.03 2219.9,-187.52 2229.02,-192.9 2230.39,-186.03"/>
</g>
<!-- Node86 -->
<g id="node34" class="node">
<title>Node86</title>
<g id="a_node34"><a xlink:href="wld__nl80211__debug_8h.html" target="_top" xlink:title=" ">
<polygon fill="white" stroke="red" points="2258,-168.5 2258,-187.5 2380,-187.5 2380,-168.5 2258,-168.5"/>
<text text-anchor="middle" x="2319" y="-175.5" font-family="Helvetica,sans-Serif" font-size="10.00">wld_nl80211_debug.h</text>
</a>
</g>
</g>
<!-- Node2&#45;&gt;Node86 -->
<g id="edge35" class="edge">
<title>Node2&#45;&gt;Node86</title>
<path fill="none" stroke="midnightblue" d="M2428.4,-224.44C2407.01,-215.56 2373.32,-201.56 2348.98,-191.45"/>
<polygon fill="midnightblue" stroke="midnightblue" points="2350.08,-188.12 2339.5,-187.52 2347.39,-194.58 2350.08,-188.12"/>
</g>
<!-- Node4 -->
<g id="node4" class="node">
<title>Node4</title>
<g id="a_node4"><a xlink:title=" ">
<polygon fill="white" stroke="#bfbfbf" points="0,-56.5 0,-75.5 62,-75.5 62,-56.5 0,-56.5"/>
<text text-anchor="middle" x="31" y="-63.5" font-family="Helvetica,sans-Serif" font-size="10.00">stdbool.h</text>
</a>
</g>
</g>
<!-- Node3&#45;&gt;Node4 -->
<g id="edge3" class="edge">
<title>Node3&#45;&gt;Node4</title>
<path fill="none" stroke="midnightblue" d="M1988.49,-121.09C1804.34,-121.76 490.13,-124.82 72.34,-75.87"/>
<polygon fill="midnightblue" stroke="midnightblue" points="72.69,-72.39 62.34,-74.67 71.85,-79.34 72.69,-72.39"/>
</g>
<!-- Node5 -->
<g id="node5" class="node">
<title>Node5</title>
<g id="a_node5"><a xlink:title=" ">
<polygon fill="white" stroke="#bfbfbf" points="2096.5,-56.5 2096.5,-75.5 2149.5,-75.5 2149.5,-56.5 2096.5,-56.5"/>
<text text-anchor="middle" x="2123" y="-63.5" font-family="Helvetica,sans-Serif" font-size="10.00">stdint.h</text>
</a>
</g>
</g>
<!-- Node3&#45;&gt;Node5 -->
<g id="edge4" class="edge">
<title>Node3&#45;&gt;Node5</title>
<path fill="none" stroke="midnightblue" d="M2027.91,-112.44C2046.25,-103.68 2075.01,-89.94 2096.09,-79.86"/>
<polygon fill="midnightblue" stroke="midnightblue" points="2097.67,-82.99 2105.18,-75.52 2094.65,-76.67 2097.67,-82.99"/>
</g>
<!-- Node3&#45;&gt;Node6 -->
<g id="edge5" class="edge">
<title>Node3&#45;&gt;Node6</title>
<path fill="none" stroke="midnightblue" d="M2031.86,-120.65C2175.12,-118.25 2977.08,-103.67 3082,-76 3100.84,-71.03 3102.56,-62.28 3121,-56 3179.51,-36.06 3249.13,-24.31 3298.82,-17.85"/>
<polygon fill="midnightblue" stroke="midnightblue" points="3299.31,-21.31 3308.8,-16.59 3298.44,-14.37 3299.31,-21.31"/>
</g>
<!-- Node7 -->
<g id="node7" class="node">
<title>Node7</title>
<g id="a_node7"><a xlink:title=" ">
<polygon fill="white" stroke="#bfbfbf" points="2168,-56.5 2168,-75.5 2304,-75.5 2304,-56.5 2168,-56.5"/>
<text text-anchor="middle" x="2236" y="-63.5" font-family="Helvetica,sans-Serif" font-size="10.00">swla/swla_commonLib.h</text>
</a>
</g>
</g>
<!-- Node3&#45;&gt;Node7 -->
<g id="edge6" class="edge">
<title>Node3&#45;&gt;Node7</title>
<path fill="none" stroke="midnightblue" d="M2031.67,-115.82C2068.08,-107.12 2142.27,-89.39 2190.53,-77.87"/>
<polygon fill="midnightblue" stroke="midnightblue" points="2191.49,-81.23 2200.41,-75.5 2189.87,-74.42 2191.49,-81.23"/>
</g>
<!-- Node8 -->
<g id="node8" class="node">
<title>Node8</title>
<g id="a_node8"><a xlink:title=" ">
<polygon fill="white" stroke="#bfbfbf" points="2322,-56.5 2322,-75.5 2410,-75.5 2410,-56.5 2322,-56.5"/>
<text text-anchor="middle" x="2366" y="-63.5" font-family="Helvetica,sans-Serif" font-size="10.00">swl/swl_uuid.h</text>
</a>
</g>
</g>
<!-- Node3&#45;&gt;Node8 -->
<g id="edge7" class="edge">
<title>Node3&#45;&gt;Node8</title>
<path fill="none" stroke="midnightblue" d="M2031.7,-117.93C2080.02,-111.08 2200.37,-93.81 2311.71,-76.18"/>
<polygon fill="midnightblue" stroke="midnightblue" points="2312.44,-79.61 2321.76,-74.58 2311.34,-72.69 2312.44,-79.61"/>
</g>
<!-- Node9 -->
<g id="node9" class="node">
<title>Node9</title>
<g id="a_node9"><a xlink:title=" ">
<polygon fill="white" stroke="#bfbfbf" points="80,-56.5 80,-75.5 232,-75.5 232,-56.5 80,-56.5"/>
<text text-anchor="middle" x="156" y="-63.5" font-family="Helvetica,sans-Serif" font-size="10.00">swla/swla_radioStandards.h</text>
</a>
</g>
</g>
<!-- Node3&#45;&gt;Node9 -->
<g id="edge8" class="edge">
<title>Node3&#45;&gt;Node9</title>
<path fill="none" stroke="midnightblue" d="M1988.06,-121.06C1839.04,-121.3 959.93,-120.74 246,-76 244.72,-75.92 243.43,-75.84 242.14,-75.75"/>
<polygon fill="midnightblue" stroke="midnightblue" points="242.31,-72.25 232.08,-75.01 241.79,-79.23 242.31,-72.25"/>
</g>
<!-- Node10 -->
<g id="node10" class="node">
<title>Node10</title>
<g id="a_node10"><a xlink:title=" ">
<polygon fill="white" stroke="#bfbfbf" points="2428.5,-56.5 2428.5,-75.5 2529.5,-75.5 2529.5,-56.5 2428.5,-56.5"/>
<text text-anchor="middle" x="2479" y="-63.5" font-family="Helvetica,sans-Serif" font-size="10.00">swla/swla_time.h</text>
</a>
</g>
</g>
<!-- Node3&#45;&gt;Node10 -->
<g id="edge9" class="edge">
<title>Node3&#45;&gt;Node10</title>
<path fill="none" stroke="midnightblue" d="M2031.76,-118.91C2091.57,-113.1 2263.69,-95.95 2418.13,-76.07"/>
<polygon fill="midnightblue" stroke="midnightblue" points="2418.81,-79.51 2428.28,-74.75 2417.91,-72.56 2418.81,-79.51"/>
</g>
<!-- Node11 -->
<g id="node11" class="node">
<title>Node11</title>
<g id="a_node11"><a xlink:title=" ">
<polygon fill="white" stroke="#bfbfbf" points="2547.5,-56.5 2547.5,-75.5 2676.5,-75.5 2676.5,-56.5 2547.5,-56.5"/>
<text text-anchor="middle" x="2612" y="-63.5" font-family="Helvetica,sans-Serif" font-size="10.00">swla/swla_time_spec.h</text>
</a>
</g>
</g>
<!-- Node3&#45;&gt;Node11 -->
<g id="edge10" class="edge">
<title>Node3&#45;&gt;Node11</title>
<path fill="none" stroke="midnightblue" d="M2031.65,-119.44C2102.51,-114.26 2334.08,-96.87 2537.47,-76.02"/>
<polygon fill="midnightblue" stroke="midnightblue" points="2537.85,-79.5 2547.44,-74.99 2537.14,-72.53 2537.85,-79.5"/>
</g>
<!-- Node12 -->
<g id="node12" class="node">
<title>Node12</title>
<g id="a_node12"><a xlink:title=" ">
<polygon fill="white" stroke="#bfbfbf" points="2695,-56.5 2695,-75.5 2789,-75.5 2789,-56.5 2695,-56.5"/>
<text text-anchor="middle" x="2742" y="-63.5" font-family="Helvetica,sans-Serif" font-size="10.00">swla/swla_oui.h</text>
</a>
</g>
</g>
<!-- Node3&#45;&gt;Node12 -->
<g id="edge11" class="edge">
<title>Node3&#45;&gt;Node12</title>
<path fill="none" stroke="midnightblue" d="M2031.63,-120.27C2114.64,-117.31 2420.89,-105.02 2684.62,-75.92"/>
<polygon fill="midnightblue" stroke="midnightblue" points="2685.22,-79.38 2694.77,-74.79 2684.44,-72.42 2685.22,-79.38"/>
</g>
<!-- Node13 -->
<g id="node13" class="node">
<title>Node13</title>
<g id="a_node13"><a xlink:title=" ">
<polygon fill="white" stroke="#bfbfbf" points="2807,-56.5 2807,-75.5 2935,-75.5 2935,-56.5 2807,-56.5"/>
<text text-anchor="middle" x="2871" y="-63.5" font-family="Helvetica,sans-Serif" font-size="10.00">swla/swla_delayExec.h</text>
</a>
</g>
</g>
<!-- Node3&#45;&gt;Node13 -->
<g id="edge12" class="edge">
<title>Node3&#45;&gt;Node13</title>
<path fill="none" stroke="midnightblue" d="M2031.66,-120.28C2123.11,-117.16 2486.75,-103.62 2796.85,-76.04"/>
<polygon fill="midnightblue" stroke="midnightblue" points="2797.28,-79.52 2806.93,-75.14 2796.66,-72.55 2797.28,-79.52"/>
</g>
<!-- Node14 -->
<g id="node14" class="node">
<title>Node14</title>
<g id="a_node14"><a xlink:title=" ">
<polygon fill="white" stroke="#bfbfbf" points="2953.5,-56.5 2953.5,-75.5 3072.5,-75.5 3072.5,-56.5 2953.5,-56.5"/>
<text text-anchor="middle" x="3013" y="-63.5" font-family="Helvetica,sans-Serif" font-size="10.00">swla/swla_function.h</text>
</a>
</g>
</g>
<!-- Node3&#45;&gt;Node14 -->
<g id="edge13" class="edge">
<title>Node3&#45;&gt;Node14</title>
<path fill="none" stroke="midnightblue" d="M2031.77,-120.61C2133.47,-118.64 2572.15,-108.62 2943.07,-76"/>
<polygon fill="midnightblue" stroke="midnightblue" points="2943.54,-79.47 2953.19,-75.1 2942.92,-72.5 2943.54,-79.47"/>
</g>
<!-- Node15 -->
<g id="node15" class="node">
<title>Node15</title>
<g id="a_node15"><a xlink:title=" ">
<polygon fill="white" stroke="#bfbfbf" points="3129.5,-56.5 3129.5,-75.5 3270.5,-75.5 3270.5,-56.5 3129.5,-56.5"/>
<text text-anchor="middle" x="3200" y="-63.5" font-family="Helvetica,sans-Serif" font-size="10.00">swl/swl_usp_cmdStatus.h</text>
</a>
</g>
</g>
<!-- Node3&#45;&gt;Node15 -->
<g id="edge14" class="edge">
<title>Node3&#45;&gt;Node15</title>
<path fill="none" stroke="midnightblue" d="M2031.84,-120.64C2145.34,-118.64 2679.37,-107.9 3115,-76 3116.29,-75.91 3117.59,-75.81 3118.9,-75.7"/>
<polygon fill="midnightblue" stroke="midnightblue" points="3119.39,-79.18 3129.07,-74.86 3118.81,-72.2 3119.39,-79.18"/>
</g>
<!-- Node16 -->
<g id="node16" class="node">
<title>Node16</title>
<g id="a_node16"><a xlink:title=" ">
<polygon fill="white" stroke="#bfbfbf" points="3289,-56.5 3289,-75.5 3375,-75.5 3375,-56.5 3289,-56.5"/>
<text text-anchor="middle" x="3332" y="-63.5" font-family="Helvetica,sans-Serif" font-size="10.00">swl/swl_wps.h</text>
</a>
</g>
</g>
<!-- Node3&#45;&gt;Node16 -->
<g id="edge15" class="edge">
<title>Node3&#45;&gt;Node16</title>
<path fill="none" stroke="midnightblue" d="M2031.77,-120.63C2176.61,-118.14 3003.26,-102.96 3278.97,-75.93"/>
<polygon fill="midnightblue" stroke="midnightblue" points="3279.34,-79.41 3288.93,-74.92 3278.63,-72.44 3279.34,-79.41"/>
</g>
<!-- Node17 -->
<g id="node17" class="node">
<title>Node17</title>
<g id="a_node17"><a xlink:title=" ">
<polygon fill="white" stroke="#bfbfbf" points="3393,-56.5 3393,-75.5 3497,-75.5 3497,-56.5 3393,-56.5"/>
<text text-anchor="middle" x="3445" y="-63.5" font-family="Helvetica,sans-Serif" font-size="10.00">swl/swl_security.h</text>
</a>
</g>
</g>
<!-- Node3&#45;&gt;Node17 -->
<g id="edge16" class="edge">
<title>Node3&#45;&gt;Node17</title>
<path fill="none" stroke="midnightblue" d="M2031.87,-121.21C2160.15,-122.28 2827.85,-125.2 3382.6,-76.01"/>
<polygon fill="midnightblue" stroke="midnightblue" points="3383.15,-79.48 3392.8,-75.1 3382.53,-72.5 3383.15,-79.48"/>
</g>
<!-- Node18 -->
<g id="node18" class="node">
<title>Node18</title>
<g id="a_node18"><a xlink:title=" ">
<polygon fill="white" stroke="#bfbfbf" points="254.5,-0.5 254.5,-19.5 337.5,-19.5 337.5,-0.5 254.5,-0.5"/>
<text text-anchor="middle" x="296" y="-7.5" font-family="Helvetica,sans-Serif" font-size="10.00">amxc/amxc.h</text>
</a>
</g>
</g>
<!-- Node3&#45;&gt;Node18 -->
<g id="edge17" class="edge">
<title>Node3&#45;&gt;Node18</title>
<path fill="none" stroke="midnightblue" d="M1988.22,-120.85C1790.35,-119.48 310.32,-108.15 279,-76 266.71,-63.39 274.83,-43.05 283.55,-28.49"/>
<polygon fill="midnightblue" stroke="midnightblue" points="286.63,-30.17 289.17,-19.88 280.77,-26.34 286.63,-30.17"/>
</g>
<!-- Node19 -->
<g id="node19" class="node">
<title>Node19</title>
<g id="a_node19"><a xlink:title=" ">
<polygon fill="white" stroke="#bfbfbf" points="3515,-56.5 3515,-75.5 3599,-75.5 3599,-56.5 3515,-56.5"/>
<text text-anchor="middle" x="3557" y="-63.5" font-family="Helvetica,sans-Serif" font-size="10.00">amxp/amxp.h</text>
</a>
</g>
</g>
<!-- Node3&#45;&gt;Node19 -->
<g id="edge18" class="edge">
<title>Node3&#45;&gt;Node19</title>
<path fill="none" stroke="midnightblue" d="M2031.64,-120.78C2190.6,-119.09 3180.21,-107.5 3504.44,-75.97"/>
<polygon fill="midnightblue" stroke="midnightblue" points="3505.16,-79.42 3514.77,-74.94 3504.47,-72.45 3505.16,-79.42"/>
</g>
<!-- Node20 -->
<g id="node20" class="node">
<title>Node20</title>
<g id="a_node20"><a xlink:title=" ">
<polygon fill="white" stroke="#bfbfbf" points="392,-56.5 392,-75.5 532,-75.5 532,-56.5 392,-56.5"/>
<text text-anchor="middle" x="462" y="-63.5" font-family="Helvetica,sans-Serif" font-size="10.00">amxd/amxd_parameter.h</text>
</a>
</g>
</g>
<!-- Node3&#45;&gt;Node20 -->
<g id="edge19" class="edge">
<title>Node3&#45;&gt;Node20</title>
<path fill="none" stroke="midnightblue" d="M1988.26,-119.64C1956.55,-117.69 1895.76,-114.12 1844,-112 1268.54,-88.45 1120.62,-116.49 542.45,-76.03"/>
<polygon fill="midnightblue" stroke="midnightblue" points="542.4,-72.52 532.18,-75.31 541.91,-79.51 542.4,-72.52"/>
</g>
<!-- Node21 -->
<g id="node21" class="node">
<title>Node21</title>
<g id="a_node21"><a xlink:title=" ">
<polygon fill="white" stroke="#bfbfbf" points="550.5,-56.5 550.5,-75.5 669.5,-75.5 669.5,-56.5 550.5,-56.5"/>
<text text-anchor="middle" x="610" y="-63.5" font-family="Helvetica,sans-Serif" font-size="10.00">amxd/amxd_action.h</text>
</a>
</g>
</g>
<!-- Node3&#45;&gt;Node21 -->
<g id="edge20" class="edge">
<title>Node3&#45;&gt;Node21</title>
<path fill="none" stroke="midnightblue" d="M1988.26,-119.66C1956.55,-117.74 1895.76,-114.2 1844,-112 1329.41,-90.11 1196.51,-117.7 680,-76.08"/>
<polygon fill="midnightblue" stroke="midnightblue" points="679.92,-72.56 669.67,-75.24 679.35,-79.54 679.92,-72.56"/>
</g>
<!-- Node22 -->
<g id="node22" class="node">
<title>Node22</title>
<g id="a_node22"><a xlink:title=" ">
<polygon fill="white" stroke="#bfbfbf" points="687.5,-56.5 687.5,-75.5 862.5,-75.5 862.5,-56.5 687.5,-56.5"/>
<text text-anchor="middle" x="775" y="-63.5" font-family="Helvetica,sans-Serif" font-size="10.00">amxd/amxd_object_parameter.h</text>
</a>
</g>
</g>
<!-- Node3&#45;&gt;Node22 -->
<g id="edge21" class="edge">
<title>Node3&#45;&gt;Node22</title>
<path fill="none" stroke="midnightblue" d="M1988.25,-119.7C1956.54,-117.84 1895.75,-114.36 1844,-112 1415.53,-92.45 1305.11,-103.8 873.02,-76.03"/>
<polygon fill="midnightblue" stroke="midnightblue" points="872.96,-72.51 862.75,-75.36 872.51,-79.5 872.96,-72.51"/>
</g>
<!-- Node23 -->
<g id="node23" class="node">
<title>Node23</title>
<g id="a_node23"><a xlink:title=" ">
<polygon fill="white" stroke="#bfbfbf" points="881,-56.5 881,-75.5 1033,-75.5 1033,-56.5 881,-56.5"/>
<text text-anchor="middle" x="957" y="-63.5" font-family="Helvetica,sans-Serif" font-size="10.00">amxd/amxd_object_event.h</text>
</a>
</g>
</g>
<!-- Node3&#45;&gt;Node23 -->
<g id="edge22" class="edge">
<title>Node3&#45;&gt;Node23</title>
<path fill="none" stroke="midnightblue" d="M1988.25,-119.76C1956.54,-117.96 1895.74,-114.56 1844,-112 1490.94,-94.51 1399.49,-102.64 1043.51,-76.07"/>
<polygon fill="midnightblue" stroke="midnightblue" points="1043.67,-72.57 1033.44,-75.31 1043.15,-79.55 1043.67,-72.57"/>
</g>
<!-- Node24 -->
<g id="node24" class="node">
<title>Node24</title>
<g id="a_node24"><a xlink:title=" ">
<polygon fill="white" stroke="#bfbfbf" points="1051.5,-56.5 1051.5,-75.5 1180.5,-75.5 1180.5,-56.5 1051.5,-56.5"/>
<text text-anchor="middle" x="1116" y="-63.5" font-family="Helvetica,sans-Serif" font-size="10.00">amxd/amxd_function.h</text>
</a>
</g>
</g>
<!-- Node3&#45;&gt;Node24 -->
<g id="edge23" class="edge">
<title>Node3&#45;&gt;Node24</title>
<path fill="none" stroke="midnightblue" d="M1988.33,-119.82C1867.28,-113.24 1277.26,-81.15 1191,-75.9"/>
<polygon fill="midnightblue" stroke="midnightblue" points="1191.06,-72.39 1180.85,-75.23 1190.6,-79.38 1191.06,-72.39"/>
</g>
<!-- Node25 -->
<g id="node25" class="node">
<title>Node25</title>
<g id="a_node25"><a xlink:title=" ">
<polygon fill="white" stroke="#bfbfbf" points="1198.5,-56.5 1198.5,-75.5 1367.5,-75.5 1367.5,-56.5 1198.5,-56.5"/>
<text text-anchor="middle" x="1283" y="-63.5" font-family="Helvetica,sans-Serif" font-size="10.00">amxd/amxd_object_hierarchy.h</text>
</a>
</g>
</g>
<!-- Node3&#45;&gt;Node25 -->
<g id="edge24" class="edge">
<title>Node3&#45;&gt;Node25</title>
<path fill="none" stroke="midnightblue" d="M1988.36,-119.67C1908.69,-114.71 1623.92,-96.63 1377.85,-76.14"/>
<polygon fill="midnightblue" stroke="midnightblue" points="1377.9,-72.63 1367.64,-75.28 1377.31,-79.6 1377.9,-72.63"/>
</g>
<!-- Node26 -->
<g id="node26" class="node">
<title>Node26</title>
<g id="a_node26"><a xlink:title=" ">
<polygon fill="white" stroke="#bfbfbf" points="1385.5,-56.5 1385.5,-75.5 1504.5,-75.5 1504.5,-56.5 1385.5,-56.5"/>
<text text-anchor="middle" x="1445" y="-63.5" font-family="Helvetica,sans-Serif" font-size="10.00">amxd/amxd_object.h</text>
</a>
</g>
</g>
<!-- Node3&#45;&gt;Node26 -->
<g id="edge25" class="edge">
<title>Node3&#45;&gt;Node26</title>
<path fill="none" stroke="midnightblue" d="M1988.17,-119.35C1919.89,-114.11 1704.17,-97.05 1514.82,-76.17"/>
<polygon fill="midnightblue" stroke="midnightblue" points="1515.01,-72.67 1504.69,-75.04 1514.24,-79.62 1515.01,-72.67"/>
</g>
<!-- Node27 -->
<g id="node27" class="node">
<title>Node27</title>
<g id="a_node27"><a xlink:title=" ">
<polygon fill="white" stroke="#bfbfbf" points="1522.5,-56.5 1522.5,-75.5 1627.5,-75.5 1627.5,-56.5 1522.5,-56.5"/>
<text text-anchor="middle" x="1575" y="-63.5" font-family="Helvetica,sans-Serif" font-size="10.00">amxd/amxd_dm.h</text>
</a>
</g>
</g>
<!-- Node3&#45;&gt;Node27 -->
<g id="edge26" class="edge">
<title>Node3&#45;&gt;Node27</title>
<path fill="none" stroke="midnightblue" d="M1988.11,-118.55C1931.9,-112.2 1777.66,-94.55 1637.8,-76.08"/>
<polygon fill="midnightblue" stroke="midnightblue" points="1638.13,-72.59 1627.75,-74.75 1637.21,-79.53 1638.13,-72.59"/>
</g>
<!-- Node28 -->
<g id="node28" class="node">
<title>Node28</title>
<g id="a_node28"><a xlink:title=" ">
<polygon fill="white" stroke="#bfbfbf" points="1646,-56.5 1646,-75.5 1790,-75.5 1790,-56.5 1646,-56.5"/>
<text text-anchor="middle" x="1718" y="-63.5" font-family="Helvetica,sans-Serif" font-size="10.00">amxd/amxd_transaction.h</text>
</a>
</g>
</g>
<!-- Node3&#45;&gt;Node28 -->
<g id="edge27" class="edge">
<title>Node3&#45;&gt;Node28</title>
<path fill="none" stroke="midnightblue" d="M1988.05,-116.94C1943.04,-108.62 1839.07,-89.39 1774.06,-77.37"/>
<polygon fill="midnightblue" stroke="midnightblue" points="1774.45,-73.88 1763.98,-75.5 1773.17,-80.76 1774.45,-73.88"/>
</g>
<!-- Node29 -->
<g id="node29" class="node">
<title>Node29</title>
<g id="a_node29"><a xlink:title=" ">
<polygon fill="white" stroke="#bfbfbf" points="1808,-56.5 1808,-75.5 1924,-75.5 1924,-56.5 1808,-56.5"/>
<text text-anchor="middle" x="1866" y="-63.5" font-family="Helvetica,sans-Serif" font-size="10.00">amxb/amxb_types.h</text>
</a>
</g>
</g>
<!-- Node3&#45;&gt;Node29 -->
<g id="edge28" class="edge">
<title>Node3&#45;&gt;Node29</title>
<path fill="none" stroke="midnightblue" d="M1988.44,-112.92C1964.68,-104.01 1926.2,-89.57 1898.72,-79.27"/>
<polygon fill="midnightblue" stroke="midnightblue" points="1899.73,-75.91 1889.14,-75.68 1897.27,-82.47 1899.73,-75.91"/>
</g>
<!-- Node30 -->
<g id="node30" class="node">
<title>Node30</title>
<g id="a_node30"><a xlink:title=" ">
<polygon fill="white" stroke="#bfbfbf" points="1942,-56.5 1942,-75.5 2078,-75.5 2078,-56.5 1942,-56.5"/>
<text text-anchor="middle" x="2010" y="-63.5" font-family="Helvetica,sans-Serif" font-size="10.00">amxb/amxb_operators.h</text>
</a>
</g>
</g>
<!-- Node3&#45;&gt;Node30 -->
<g id="edge29" class="edge">
<title>Node3&#45;&gt;Node30</title>
<path fill="none" stroke="midnightblue" d="M2010,-112.08C2010,-105.01 2010,-94.86 2010,-85.99"/>
<polygon fill="midnightblue" stroke="midnightblue" points="2013.5,-85.75 2010,-75.75 2006.5,-85.75 2013.5,-85.75"/>
</g>
<!-- Node75 -->
<g id="node31" class="node">
<title>Node75</title>
<g id="a_node31"><a xlink:href="wld__extMod_8h.html" target="_top" xlink:title=" ">
<polygon fill="white" stroke="black" points="288.5,-56.5 288.5,-75.5 373.5,-75.5 373.5,-56.5 288.5,-56.5"/>
<text text-anchor="middle" x="331" y="-63.5" font-family="Helvetica,sans-Serif" font-size="10.00">wld_extMod.h</text>
</a>
</g>
</g>
<!-- Node3&#45;&gt;Node75 -->
<g id="edge30" class="edge">
<title>Node3&#45;&gt;Node75</title>
<path fill="none" stroke="midnightblue" d="M1988.26,-119.62C1956.55,-117.64 1895.77,-114.04 1844,-112 1198.3,-86.55 1031.12,-139.01 383.83,-75.9"/>
<polygon fill="midnightblue" stroke="midnightblue" points="384.07,-72.41 373.78,-74.92 383.39,-79.38 384.07,-72.41"/>
</g>
<!-- Node75&#45;&gt;Node6 -->
<g id="edge32" class="edge">
<title>Node75&#45;&gt;Node6</title>
<path fill="none" stroke="midnightblue" d="M373.78,-57.05C376.89,-56.64 379.99,-56.28 383,-56 681.98,-28.04 2888.49,-13.79 3298.52,-11.37"/>
<polygon fill="midnightblue" stroke="midnightblue" points="3298.74,-14.87 3308.72,-11.31 3298.7,-7.87 3298.74,-14.87"/>
</g>
<!-- Node75&#45;&gt;Node18 -->
<g id="edge31" class="edge">
<title>Node75&#45;&gt;Node18</title>
<path fill="none" stroke="midnightblue" d="M325.22,-56.08C320.33,-48.53 313.17,-37.49 307.17,-28.23"/>
<polygon fill="midnightblue" stroke="midnightblue" points="310.05,-26.24 301.67,-19.75 304.17,-30.05 310.05,-26.24"/>
</g>
<!-- Node87&#45;&gt;Node3 -->
<g id="edge37" class="edge">
<title>Node87&#45;&gt;Node3</title>
<path fill="none" stroke="midnightblue" d="M2268.56,-224.51C2214.42,-215.32 2133.9,-200.31 2105,-188 2096.98,-184.58 2055.78,-155.65 2030.35,-137.55"/>
<polygon fill="midnightblue" stroke="midnightblue" points="2032.26,-134.62 2022.08,-131.66 2028.2,-140.32 2032.26,-134.62"/>
</g>
<!-- Node87&#45;&gt;Node76 -->
<g id="edge38" class="edge">
<title>Node87&#45;&gt;Node76</title>
<path fill="none" stroke="midnightblue" d="M2341.76,-224.44C2363.32,-215.56 2397.26,-201.56 2421.79,-191.45"/>
<polygon fill="midnightblue" stroke="midnightblue" points="2423.43,-194.56 2431.34,-187.52 2420.76,-188.09 2423.43,-194.56"/>
</g>
<!-- Node87&#45;&gt;Node85 -->
<g id="edge39" class="edge">
<title>Node87&#45;&gt;Node85</title>
<path fill="none" stroke="midnightblue" d="M2298.18,-224.44C2274.17,-215.44 2236.17,-201.19 2209.13,-191.05"/>
<polygon fill="midnightblue" stroke="midnightblue" points="2210.3,-187.75 2199.71,-187.52 2207.84,-194.3 2210.3,-187.75"/>
</g>
<!-- Node87&#45;&gt;Node86 -->
<g id="edge40" class="edge">
<title>Node87&#45;&gt;Node86</title>
<path fill="none" stroke="midnightblue" d="M2320.67,-224.08C2320.41,-217.01 2320.03,-206.86 2319.7,-197.99"/>
<polygon fill="midnightblue" stroke="midnightblue" points="2323.19,-197.61 2319.32,-187.75 2316.2,-197.87 2323.19,-197.61"/>
</g>
<!-- Node88&#45;&gt;Node3 -->
<g id="edge42" class="edge">
<title>Node88&#45;&gt;Node3</title>
<path fill="none" stroke="midnightblue" d="M2160.77,-224.47C2134.39,-217.42 2099.29,-205.68 2072,-188 2052.06,-175.08 2033.89,-154.51 2022.45,-139.98"/>
<polygon fill="midnightblue" stroke="midnightblue" points="2025.08,-137.66 2016.24,-131.83 2019.52,-141.91 2025.08,-137.66"/>
</g>
<!-- Node88&#45;&gt;Node76 -->
<g id="edge43" class="edge">
<title>Node88&#45;&gt;Node76</title>
<path fill="none" stroke="midnightblue" d="M2239.09,-224.44C2283.32,-215 2354.54,-199.8 2402.28,-189.61"/>
<polygon fill="midnightblue" stroke="midnightblue" points="2403.05,-193.03 2412.1,-187.52 2401.59,-186.18 2403.05,-193.03"/>
</g>
<!-- Node88&#45;&gt;Node85 -->
<g id="edge44" class="edge">
<title>Node88&#45;&gt;Node85</title>
<path fill="none" stroke="midnightblue" d="M2195.37,-224.08C2192.39,-216.77 2188.07,-206.18 2184.38,-197.1"/>
<polygon fill="midnightblue" stroke="midnightblue" points="2187.58,-195.69 2180.57,-187.75 2181.1,-198.33 2187.58,-195.69"/>
</g>
<!-- Node88&#45;&gt;Node86 -->
<g id="edge45" class="edge">
<title>Node88&#45;&gt;Node86</title>
<path fill="none" stroke="midnightblue" d="M2218.01,-224.44C2237.59,-215.64 2268.31,-201.81 2290.73,-191.72"/>
<polygon fill="midnightblue" stroke="midnightblue" points="2292.39,-194.81 2300.07,-187.52 2289.52,-188.43 2292.39,-194.81"/>
</g>
<!-- Node89&#45;&gt;Node76 -->
<g id="edge49" class="edge">
<title>Node89&#45;&gt;Node76</title>
<path fill="none" stroke="midnightblue" d="M2567.29,-224.44C2544.65,-215.52 2508.93,-201.44 2483.25,-191.32"/>
<polygon fill="midnightblue" stroke="midnightblue" points="2484.19,-187.93 2473.61,-187.52 2481.63,-194.44 2484.19,-187.93"/>
</g>
<!-- Node90 -->
<g id="node38" class="node">
<title>Node90</title>
<g id="a_node38"><a xlink:href="wld__ssid_8h.html" target="_top" xlink:title=" ">
<polygon fill="white" stroke="black" points="2562,-168.5 2562,-187.5 2630,-187.5 2630,-168.5 2562,-168.5"/>
<text text-anchor="middle" x="2596" y="-175.5" font-family="Helvetica,sans-Serif" font-size="10.00">wld_ssid.h</text>
</a>
</g>
</g>
<!-- Node89&#45;&gt;Node90 -->
<g id="edge47" class="edge">
<title>Node89&#45;&gt;Node90</title>
<path fill="none" stroke="midnightblue" d="M2590.16,-224.08C2591.08,-216.93 2592.42,-206.64 2593.58,-197.69"/>
<polygon fill="midnightblue" stroke="midnightblue" points="2597.05,-198.12 2594.87,-187.75 2590.11,-197.22 2597.05,-198.12"/>
</g>
<!-- Node90&#45;&gt;Node3 -->
<g id="edge48" class="edge">
<title>Node90&#45;&gt;Node3</title>
<path fill="none" stroke="midnightblue" d="M2561.98,-170.18C2557.3,-169.37 2552.54,-168.61 2548,-168 2356.69,-142.13 2124.95,-128.76 2041.69,-124.52"/>
<polygon fill="midnightblue" stroke="midnightblue" points="2041.77,-121.02 2031.61,-124.02 2041.42,-128.01 2041.77,-121.02"/>
</g>
<!-- Node91&#45;&gt;Node6 -->
<g id="edge52" class="edge">
<title>Node91&#45;&gt;Node6</title>
<path fill="none" stroke="midnightblue" d="M3449.52,-224.81C3522.15,-214.02 3639.69,-195.53 3646,-188 3656.72,-175.2 3697.56,-119.56 3641,-56 3613.7,-25.32 3502.25,-15.53 3429.3,-12.43"/>
<polygon fill="midnightblue" stroke="midnightblue" points="3429.41,-8.93 3419.28,-12.03 3429.13,-15.92 3429.41,-8.93"/>
</g>
<!-- Node92 -->
<g id="node40" class="node">
<title>Node92</title>
<g id="a_node40"><a xlink:href="wld__nl80211__compat_8h.html" target="_top" xlink:title=" ">
<polygon fill="white" stroke="red" points="3328.5,-168.5 3328.5,-187.5 3457.5,-187.5 3457.5,-168.5 3328.5,-168.5"/>
<text text-anchor="middle" x="3393" y="-175.5" font-family="Helvetica,sans-Serif" font-size="10.00">wld_nl80211_compat.h</text>
</a>
</g>
</g>
<!-- Node91&#45;&gt;Node92 -->
<g id="edge51" class="edge">
<title>Node91&#45;&gt;Node92</title>
<path fill="none" stroke="midnightblue" d="M3393,-224.08C3393,-217.01 3393,-206.86 3393,-197.99"/>
<polygon fill="midnightblue" stroke="midnightblue" points="3396.5,-197.75 3393,-187.75 3389.5,-197.75 3396.5,-197.75"/>
</g>
<!-- Node98 -->
<g id="node41" class="node">
<title>Node98</title>
<g id="a_node41"><a xlink:title=" ">
<polygon fill="white" stroke="#bfbfbf" points="3475.5,-168.5 3475.5,-187.5 3636.5,-187.5 3636.5,-168.5 3475.5,-168.5"/>
<text text-anchor="middle" x="3556" y="-175.5" font-family="Helvetica,sans-Serif" font-size="10.00">swl/swl_common_chanspec.h</text>
</a>
</g>
</g>
<!-- Node91&#45;&gt;Node98 -->
<g id="edge53" class="edge">
<title>Node91&#45;&gt;Node98</title>
<path fill="none" stroke="midnightblue" d="M3418.83,-224.44C3446.25,-215.36 3489.78,-200.94 3520.43,-190.78"/>
<polygon fill="midnightblue" stroke="midnightblue" points="3521.9,-193.98 3530.29,-187.52 3519.7,-187.34 3521.9,-193.98"/>
</g>
<!-- Node63 -->
<g id="node43" class="node">
<title>Node63</title>
<g id="a_node43"><a xlink:title=" ">
<polygon fill="white" stroke="#bfbfbf" points="3693,-168.5 3693,-187.5 3793,-187.5 3793,-168.5 3693,-168.5"/>
<text text-anchor="middle" x="3743" y="-175.5" font-family="Helvetica,sans-Serif" font-size="10.00">swla/swla_mac.h</text>
</a>
</g>
</g>
<!-- Node99&#45;&gt;Node63 -->
<g id="edge55" class="edge">
<title>Node99&#45;&gt;Node63</title>
<path fill="none" stroke="midnightblue" d="M3553.65,-224.44C3592.66,-215.08 3655.27,-200.06 3697.72,-189.87"/>
<polygon fill="midnightblue" stroke="midnightblue" points="3698.61,-193.25 3707.51,-187.52 3696.97,-186.45 3698.61,-193.25"/>
</g>
<!-- Node101&#45;&gt;Node3 -->
<g id="edge60" class="edge">
<title>Node101&#45;&gt;Node3</title>
<path fill="none" stroke="midnightblue" d="M1835.58,-224.17C1844.74,-210.36 1864.22,-183.61 1887,-168 1915.15,-148.71 1952.57,-136.57 1978.71,-129.83"/>
<polygon fill="midnightblue" stroke="midnightblue" points="1979.6,-133.21 1988.48,-127.42 1977.93,-126.42 1979.6,-133.21"/>
</g>
<!-- Node101&#45;&gt;Node75 -->
<g id="edge67" class="edge">
<title>Node101&#45;&gt;Node75</title>
<path fill="none" stroke="midnightblue" d="M1830.34,-224.15C1830.36,-209.79 1828.06,-181.68 1811,-168 1661.57,-48.21 1142.12,-124.28 951,-112 701.9,-96 635.94,-105.36 383.72,-75.94"/>
<polygon fill="midnightblue" stroke="midnightblue" points="383.85,-72.43 373.51,-74.74 383.04,-79.39 383.85,-72.43"/>
</g>
<!-- Node102 -->
<g id="node46" class="node">
<title>Node102</title>
<g id="a_node46"><a xlink:title=" ">
<polygon fill="white" stroke="#bfbfbf" points="1692,-168.5 1692,-187.5 1802,-187.5 1802,-168.5 1692,-168.5"/>
<text text-anchor="middle" x="1747" y="-175.5" font-family="Helvetica,sans-Serif" font-size="10.00">swla/swla_trilean.h</text>
</a>
</g>
</g>
<!-- Node101&#45;&gt;Node102 -->
<g id="edge59" class="edge">
<title>Node101&#45;&gt;Node102</title>
<path fill="none" stroke="midnightblue" d="M1816.66,-224.32C1803.84,-215.98 1784.22,-203.21 1769.06,-193.35"/>
<polygon fill="midnightblue" stroke="midnightblue" points="1770.59,-190.17 1760.3,-187.65 1766.78,-196.04 1770.59,-190.17"/>
</g>
<!-- Node103 -->
<g id="node47" class="node">
<title>Node103</title>
<g id="a_node47"><a xlink:href="wld__channel_8h.html" target="_top" xlink:title=" ">
<polygon fill="white" stroke="red" points="1896,-168.5 1896,-187.5 1982,-187.5 1982,-168.5 1896,-168.5"/>
<text text-anchor="middle" x="1939" y="-175.5" font-family="Helvetica,sans-Serif" font-size="10.00">wld_channel.h</text>
</a>
</g>
</g>
<!-- Node101&#45;&gt;Node103 -->
<g id="edge61" class="edge">
<title>Node101&#45;&gt;Node103</title>
<path fill="none" stroke="midnightblue" d="M1847.51,-224.32C1865.07,-215.62 1892.33,-202.12 1912.53,-192.11"/>
<polygon fill="midnightblue" stroke="midnightblue" points="1914.12,-195.23 1921.53,-187.65 1911.02,-188.96 1914.12,-195.23"/>
</g>
<!-- Node104 -->
<g id="node48" class="node">
<title>Node104</title>
<g id="a_node48"><a xlink:href="wld__radioOperatingStandards_8h.html" target="_top" xlink:title=" ">
<polygon fill="white" stroke="black" points="1504,-168.5 1504,-187.5 1674,-187.5 1674,-168.5 1504,-168.5"/>
<text text-anchor="middle" x="1589" y="-175.5" font-family="Helvetica,sans-Serif" font-size="10.00">wld_radioOperatingStandards.h</text>
</a>
</g>
</g>
<!-- Node101&#45;&gt;Node104 -->
<g id="edge63" class="edge">
<title>Node101&#45;&gt;Node104</title>
<path fill="none" stroke="midnightblue" d="M1793.4,-224.8C1751.65,-215.44 1683.24,-200.12 1637.19,-189.8"/>
<polygon fill="midnightblue" stroke="midnightblue" points="1637.67,-186.32 1627.14,-187.55 1636.14,-193.15 1637.67,-186.32"/>
</g>
<!-- Node105 -->
<g id="node49" class="node">
<title>Node105</title>
<g id="a_node49"><a xlink:href="wld__rad__macCfg_8h.html" target="_top" xlink:title=" ">
<polygon fill="white" stroke="red" points="1378.5,-168.5 1378.5,-187.5 1485.5,-187.5 1485.5,-168.5 1378.5,-168.5"/>
<text text-anchor="middle" x="1432" y="-175.5" font-family="Helvetica,sans-Serif" font-size="10.00">wld_rad_macCfg.h</text>
</a>
</g>
</g>
<!-- Node101&#45;&gt;Node105 -->
<g id="edge68" class="edge">
<title>Node101&#45;&gt;Node105</title>
<path fill="none" stroke="midnightblue" d="M1793.3,-228.17C1733.4,-220.27 1610.62,-203.98 1495.64,-188.08"/>
<polygon fill="midnightblue" stroke="midnightblue" points="1496,-184.59 1485.61,-186.69 1495.04,-191.53 1496,-184.59"/>
</g>
<!-- Node103&#45;&gt;Node3 -->
<g id="edge62" class="edge">
<title>Node103&#45;&gt;Node3</title>
<path fill="none" stroke="midnightblue" d="M1950.41,-168.32C1961.11,-160.18 1977.34,-147.84 1990.16,-138.09"/>
<polygon fill="midnightblue" stroke="midnightblue" points="1992.54,-140.67 1998.39,-131.83 1988.31,-135.1 1992.54,-140.67"/>
</g>
<!-- Node104&#45;&gt;Node3 -->
<g id="edge66" class="edge">
<title>Node104&#45;&gt;Node3</title>
<path fill="none" stroke="midnightblue" d="M1655.71,-168.44C1747.7,-156.64 1909.88,-135.84 1978.22,-127.08"/>
<polygon fill="midnightblue" stroke="midnightblue" points="1978.89,-130.52 1988.36,-125.78 1978,-123.58 1978.89,-130.52"/>
</g>
<!-- Node104&#45;&gt;Node4 -->
<g id="edge64" class="edge">
<title>Node104&#45;&gt;Node4</title>
<path fill="none" stroke="midnightblue" d="M1503.82,-168.75C1500.5,-168.49 1497.22,-168.24 1494,-168 1188.18,-145.53 1111.01,-151.66 805,-132 481.85,-111.23 396.31,-124.21 72.5,-76.03"/>
<polygon fill="midnightblue" stroke="midnightblue" points="72.77,-72.53 62.36,-74.51 71.73,-79.45 72.77,-72.53"/>
</g>
<!-- Node104&#45;&gt;Node9 -->
<g id="edge65" class="edge">
<title>Node104&#45;&gt;Node9</title>
<path fill="none" stroke="midnightblue" d="M1503.81,-168.87C1500.5,-168.58 1497.22,-168.28 1494,-168 1187.95,-141.07 1111.42,-134.32 805,-112 556.7,-93.92 494.12,-96.39 246,-76 244.72,-75.9 243.44,-75.79 242.14,-75.68"/>
<polygon fill="midnightblue" stroke="midnightblue" points="242.36,-72.18 232.09,-74.8 241.75,-79.16 242.36,-72.18"/>
</g>
<!-- Node108&#45;&gt;Node3 -->
<g id="edge70" class="edge">
<title>Node108&#45;&gt;Node3</title>
<path fill="none" stroke="midnightblue" d="M2048.48,-224.4C2044.8,-215.36 2038.89,-200.72 2034,-188 2028,-172.39 2021.43,-154.56 2016.69,-141.52"/>
<polygon fill="midnightblue" stroke="midnightblue" points="2019.89,-140.07 2013.19,-131.86 2013.3,-142.45 2019.89,-140.07"/>
</g>
</g>
</svg>
