<?xml version="1.0" encoding="UTF-8" standalone="no"?>
<!DOCTYPE svg PUBLIC "-//W3C//DTD SVG 1.1//EN"
 "http://www.w3.org/Graphics/SVG/1.1/DTD/svg11.dtd">
<!-- Generated by graphviz version 2.43.0 (0)
 -->
<!-- Title: get_wld_plugin_dm Pages: 1 -->
<svg width="360pt" height="408pt"
 viewBox="0.00 0.00 360.00 408.00" xmlns="http://www.w3.org/2000/svg" xmlns:xlink="http://www.w3.org/1999/xlink">
<g id="graph0" class="graph" transform="scale(1 1) rotate(0) translate(4 404)">
<title>get_wld_plugin_dm</title>
<polygon fill="white" stroke="transparent" points="-4,4 -4,-404 356,-404 356,4 -4,4"/>
<!-- Node1 -->
<g id="node1" class="node">
<title>Node1</title>
<g id="a_node1"><a xlink:title=" ">
<polygon fill="#bfbfbf" stroke="black" points="241,-190.5 241,-209.5 352,-209.5 352,-190.5 241,-190.5"/>
<text text-anchor="middle" x="296.5" y="-197.5" font-family="Helvetica,sans-Serif" font-size="10.00">get_wld_plugin_dm</text>
</a>
</g>
</g>
<!-- Node2 -->
<g id="node2" class="node">
<title>Node2</title>
<g id="a_node2"><a xlink:href="wld__rad__ifMgt_8c.html#a38b500509419100012dbfbc2d78eae94" target="_top" xlink:title="_addEndPointIntf">
<polygon fill="white" stroke="black" points="53,-380.5 53,-399.5 152,-399.5 152,-380.5 53,-380.5"/>
<text text-anchor="middle" x="102.5" y="-387.5" font-family="Helvetica,sans-Serif" font-size="10.00">_addEndPointIntf</text>
</a>
</g>
</g>
<!-- Node1&#45;&gt;Node2 -->
<g id="edge1" class="edge">
<title>Node1&#45;&gt;Node2</title>
<path fill="none" stroke="midnightblue" d="M291.12,-219.48C281.91,-255.6 256.97,-332.74 205,-371 189.91,-382.11 170.23,-387.31 152.22,-389.58"/>
<polygon fill="midnightblue" stroke="midnightblue" points="294.54,-220.22 293.48,-209.68 287.73,-218.58 294.54,-220.22"/>
</g>
<!-- Node3 -->
<g id="node3" class="node">
<title>Node3</title>
<g id="a_node3"><a xlink:href="wld__rad__ifMgt_8c.html#a8b3b14e34e80a874bd962e88a930449f" target="_top" xlink:title=" ">
<polygon fill="white" stroke="black" points="65,-342.5 65,-361.5 140,-361.5 140,-342.5 65,-342.5"/>
<text text-anchor="middle" x="102.5" y="-349.5" font-family="Helvetica,sans-Serif" font-size="10.00">_addVAPIntf</text>
</a>
</g>
</g>
<!-- Node1&#45;&gt;Node3 -->
<g id="edge2" class="edge">
<title>Node1&#45;&gt;Node3</title>
<path fill="none" stroke="midnightblue" d="M288.15,-219.23C275.78,-248.8 247.88,-304.95 205,-333 185.95,-345.46 160.82,-350.24 140.33,-351.88"/>
<polygon fill="midnightblue" stroke="midnightblue" points="291.52,-220.22 292,-209.64 285.03,-217.61 291.52,-220.22"/>
</g>
<!-- Node4 -->
<g id="node4" class="node">
<title>Node4</title>
<g id="a_node4"><a xlink:href="wld__rad__ifMgt_8c.html#a72ebdb0d666c8cf46016601632787e3a" target="_top" xlink:title="_delEndPointIntf">
<polygon fill="white" stroke="black" points="54.5,-304.5 54.5,-323.5 150.5,-323.5 150.5,-304.5 54.5,-304.5"/>
<text text-anchor="middle" x="102.5" y="-311.5" font-family="Helvetica,sans-Serif" font-size="10.00">_delEndPointIntf</text>
</a>
</g>
</g>
<!-- Node1&#45;&gt;Node4 -->
<g id="edge3" class="edge">
<title>Node1&#45;&gt;Node4</title>
<path fill="none" stroke="midnightblue" d="M283.65,-218.13C268.28,-240.06 239.33,-276.36 205,-295 188.46,-303.98 168.41,-308.79 150.51,-311.34"/>
<polygon fill="midnightblue" stroke="midnightblue" points="286.65,-219.94 289.38,-209.7 280.86,-216 286.65,-219.94"/>
</g>
<!-- Node5 -->
<g id="node5" class="node">
<title>Node5</title>
<g id="a_node5"><a xlink:href="wld__rad__ifMgt_8c.html#a7847d6109ffc1672aa2f44db564a5076" target="_top" xlink:title=" ">
<polygon fill="white" stroke="black" points="66.5,-266.5 66.5,-285.5 138.5,-285.5 138.5,-266.5 66.5,-266.5"/>
<text text-anchor="middle" x="102.5" y="-273.5" font-family="Helvetica,sans-Serif" font-size="10.00">_delVAPIntf</text>
</a>
</g>
</g>
<!-- Node1&#45;&gt;Node5 -->
<g id="edge4" class="edge">
<title>Node1&#45;&gt;Node5</title>
<path fill="none" stroke="midnightblue" d="M275.39,-215.81C257.8,-228.84 231.06,-246.79 205,-257 183.8,-265.31 158.66,-270.05 138.7,-272.72"/>
<polygon fill="midnightblue" stroke="midnightblue" points="277.85,-218.34 283.71,-209.51 273.62,-212.76 277.85,-218.34"/>
</g>
<!-- Node6 -->
<g id="node6" class="node">
<title>Node6</title>
<g id="a_node6"><a xlink:href="wld_8c.html#a9c666237c2421f7c1e2645027469c3c7" target="_top" xlink:title=" ">
<polygon fill="white" stroke="black" points="77.5,-228.5 77.5,-247.5 127.5,-247.5 127.5,-228.5 77.5,-228.5"/>
<text text-anchor="middle" x="102.5" y="-235.5" font-family="Helvetica,sans-Serif" font-size="10.00">_Reset</text>
</a>
</g>
</g>
<!-- Node1&#45;&gt;Node6 -->
<g id="edge5" class="edge">
<title>Node1&#45;&gt;Node6</title>
<path fill="none" stroke="midnightblue" d="M241.09,-211.63C229.2,-214.11 216.69,-216.68 205,-219 178.62,-224.24 148.31,-229.86 127.73,-233.62"/>
<polygon fill="midnightblue" stroke="midnightblue" points="241.82,-215.05 250.89,-209.57 240.38,-208.2 241.82,-215.05"/>
</g>
<!-- Node7 -->
<g id="node7" class="node">
<title>Node7</title>
<g id="a_node7"><a xlink:href="wld__radio_8c.html#a6af73105a88a43f1e6ac763185ee16d8" target="_top" xlink:title=" ">
<polygon fill="white" stroke="black" points="25,-190.5 25,-209.5 180,-209.5 180,-190.5 25,-190.5"/>
<text text-anchor="middle" x="102.5" y="-197.5" font-family="Helvetica,sans-Serif" font-size="10.00">_wld_rad_setOperatingClass</text>
</a>
</g>
</g>
<!-- Node1&#45;&gt;Node7 -->
<g id="edge6" class="edge">
<title>Node1&#45;&gt;Node7</title>
<path fill="none" stroke="midnightblue" d="M230.6,-200C214.46,-200 197.01,-200 180.36,-200"/>
<polygon fill="midnightblue" stroke="midnightblue" points="230.99,-203.5 240.99,-200 230.99,-196.5 230.99,-203.5"/>
</g>
<!-- Node8 -->
<g id="node8" class="node">
<title>Node8</title>
<g id="a_node8"><a xlink:href="wld__radio_8c.html#a6d96391c6bd6d7b0a350fba27b8d9a91" target="_top" xlink:title=" ">
<polygon fill="white" stroke="black" points="23.5,-152.5 23.5,-171.5 181.5,-171.5 181.5,-152.5 23.5,-152.5"/>
<text text-anchor="middle" x="102.5" y="-159.5" font-family="Helvetica,sans-Serif" font-size="10.00">_wld_rad_setVendorData_ocf</text>
</a>
</g>
</g>
<!-- Node1&#45;&gt;Node8 -->
<g id="edge7" class="edge">
<title>Node1&#45;&gt;Node8</title>
<path fill="none" stroke="midnightblue" d="M241.09,-188.37C229.2,-185.89 216.69,-183.32 205,-181 189,-177.82 171.55,-174.5 155.7,-171.54"/>
<polygon fill="midnightblue" stroke="midnightblue" points="240.38,-191.8 250.89,-190.43 241.82,-184.95 240.38,-191.8"/>
</g>
<!-- Node9 -->
<g id="node9" class="node">
<title>Node9</title>
<g id="a_node9"><a xlink:href="wld__radio_8c.html#a769f5c4857513723fe3c2956efc24b69" target="_top" xlink:title=" ">
<polygon fill="white" stroke="black" points="0,-114.5 0,-133.5 205,-133.5 205,-114.5 0,-114.5"/>
<text text-anchor="middle" x="102.5" y="-121.5" font-family="Helvetica,sans-Serif" font-size="10.00">_wld_rad_updatePossibleChannels_ocf</text>
</a>
</g>
</g>
<!-- Node1&#45;&gt;Node9 -->
<g id="edge8" class="edge">
<title>Node1&#45;&gt;Node9</title>
<path fill="none" stroke="midnightblue" d="M275.39,-184.19C257.8,-171.16 231.06,-153.21 205,-143 195.07,-139.11 184.27,-136 173.55,-133.52"/>
<polygon fill="midnightblue" stroke="midnightblue" points="273.62,-187.24 283.71,-190.49 277.85,-181.66 273.62,-187.24"/>
</g>
<!-- Node10 -->
<g id="node10" class="node">
<title>Node10</title>
<g id="a_node10"><a xlink:href="wld__persist__on_8c.html#a160eb581a1515929021f380548f3ef3d" target="_top" xlink:title=" ">
<polygon fill="white" stroke="black" points="46,-76.5 46,-95.5 159,-95.5 159,-76.5 46,-76.5"/>
<text text-anchor="middle" x="102.5" y="-83.5" font-family="Helvetica,sans-Serif" font-size="10.00">wld_persist_onStart</text>
</a>
</g>
</g>
<!-- Node1&#45;&gt;Node10 -->
<g id="edge9" class="edge">
<title>Node1&#45;&gt;Node10</title>
<path fill="none" stroke="midnightblue" d="M283.65,-181.87C268.28,-159.94 239.33,-123.64 205,-105 191.06,-97.43 174.62,-92.82 159.09,-90.04"/>
<polygon fill="midnightblue" stroke="midnightblue" points="280.86,-184 289.38,-190.3 286.65,-180.06 280.86,-184"/>
</g>
<!-- Node11 -->
<g id="node11" class="node">
<title>Node11</title>
<g id="a_node11"><a xlink:href="wld__vendorModule_8c.html#a29fe3624532d6ad884d1df22f789ed93" target="_top" xlink:title="Load vendor module odl file path into the main datamodel using the global wld parser.">
<polygon fill="white" stroke="black" points="24,-38.5 24,-57.5 181,-57.5 181,-38.5 24,-38.5"/>
<text text-anchor="middle" x="102.5" y="-45.5" font-family="Helvetica,sans-Serif" font-size="10.00">wld_vendorModule_loadOdls</text>
</a>
</g>
</g>
<!-- Node1&#45;&gt;Node11 -->
<g id="edge10" class="edge">
<title>Node1&#45;&gt;Node11</title>
<path fill="none" stroke="midnightblue" d="M288.15,-180.77C275.78,-151.2 247.88,-95.05 205,-67 197.72,-62.24 189.56,-58.6 181.11,-55.83"/>
<polygon fill="midnightblue" stroke="midnightblue" points="285.03,-182.39 292,-190.36 291.52,-179.78 285.03,-182.39"/>
</g>
<!-- Node12 -->
<g id="node12" class="node">
<title>Node12</title>
<g id="a_node12"><a xlink:href="wld__vendorModule_8c.html#a7614412a4536fab017b013a87bac72e4" target="_top" xlink:title="Parse vendor module odl file and load into the main datamodel using the global wld parser.">
<polygon fill="white" stroke="black" points="23.5,-0.5 23.5,-19.5 181.5,-19.5 181.5,-0.5 23.5,-0.5"/>
<text text-anchor="middle" x="102.5" y="-7.5" font-family="Helvetica,sans-Serif" font-size="10.00">wld_vendorModule_parseOdl</text>
</a>
</g>
</g>
<!-- Node1&#45;&gt;Node12 -->
<g id="edge11" class="edge">
<title>Node1&#45;&gt;Node12</title>
<path fill="none" stroke="midnightblue" d="M291.12,-180.52C281.91,-144.4 256.97,-67.26 205,-29 198,-23.85 190.01,-19.96 181.65,-17.05"/>
<polygon fill="midnightblue" stroke="midnightblue" points="287.73,-181.42 293.48,-190.32 294.54,-179.78 287.73,-181.42"/>
</g>
</g>
</svg>
