<?xml version="1.0" encoding="UTF-8" standalone="no"?>
<!DOCTYPE svg PUBLIC "-//W3C//DTD SVG 1.1//EN"
 "http://www.w3.org/Graphics/SVG/1.1/DTD/svg11.dtd">
<!-- Generated by graphviz version 2.43.0 (0)
 -->
<!-- Title: wld_hostapd_loadConfig Pages: 1 -->
<svg width="995pt" height="154pt"
 viewBox="0.00 0.00 995.00 153.50" xmlns="http://www.w3.org/2000/svg" xmlns:xlink="http://www.w3.org/1999/xlink">
<g id="graph0" class="graph" transform="scale(1 1) rotate(0) translate(4 149.5)">
<title>wld_hostapd_loadConfig</title>
<polygon fill="white" stroke="transparent" points="-4,4 -4,-149.5 991,-149.5 991,4 -4,4"/>
<!-- Node1 -->
<g id="node1" class="node">
<title>Node1</title>
<g id="a_node1"><a xlink:title="load the hostapd configuration from hostpad config file into wld_hostapd_config_t structure">
<polygon fill="#bfbfbf" stroke="black" points="852,-57 852,-76 987,-76 987,-57 852,-57"/>
<text text-anchor="middle" x="919.5" y="-64" font-family="Helvetica,sans-Serif" font-size="10.00">wld_hostapd_loadConfig</text>
</a>
</g>
</g>
<!-- Node2 -->
<g id="node2" class="node">
<title>Node2</title>
<g id="a_node2"><a xlink:href="wld__hostapd__cfgFile_8c.html#a4f4abeb19c059ae9b067b51a9d5a9200" target="_top" xlink:title="update a configuration file for the hostapd">
<polygon fill="white" stroke="black" points="667.5,-95.5 667.5,-125.5 783.5,-125.5 783.5,-95.5 667.5,-95.5"/>
<text text-anchor="start" x="675.5" y="-113.5" font-family="Helvetica,sans-Serif" font-size="10.00">wld_hostapd_cfgFile</text>
<text text-anchor="middle" x="725.5" y="-102.5" font-family="Helvetica,sans-Serif" font-size="10.00">_update</text>
</a>
</g>
</g>
<!-- Node1&#45;&gt;Node2 -->
<g id="edge1" class="edge">
<title>Node1&#45;&gt;Node2</title>
<path fill="none" stroke="midnightblue" d="M866.93,-78.32C841.26,-84.2 810.15,-91.33 783.74,-97.38"/>
<polygon fill="midnightblue" stroke="midnightblue" points="867.87,-81.69 876.84,-76.05 866.31,-74.87 867.87,-81.69"/>
</g>
<!-- Node3 -->
<g id="node3" class="node">
<title>Node3</title>
<g id="a_node3"><a xlink:href="wld__rad__hostapd__api_8c.html#afde544a6926aebb05ea1f9c934778480" target="_top" xlink:title=" ">
<polygon fill="white" stroke="black" points="635,-57 635,-76 816,-76 816,-57 635,-57"/>
<text text-anchor="middle" x="725.5" y="-64" font-family="Helvetica,sans-Serif" font-size="10.00">wld_rad_hostapd_getCfgParamStr</text>
</a>
</g>
</g>
<!-- Node1&#45;&gt;Node3 -->
<g id="edge2" class="edge">
<title>Node1&#45;&gt;Node3</title>
<path fill="none" stroke="midnightblue" d="M841.79,-66.5C833.42,-66.5 824.84,-66.5 816.33,-66.5"/>
<polygon fill="midnightblue" stroke="midnightblue" points="841.89,-70 851.89,-66.5 841.89,-63 841.89,-70"/>
</g>
<!-- Node9 -->
<g id="node9" class="node">
<title>Node9</title>
<g id="a_node9"><a xlink:href="wld__rad__hostapd__api_8c.html#a2ff2a647a5a9edfbf73b677bb42101ae" target="_top" xlink:title=" ">
<polygon fill="white" stroke="black" points="650,-7.5 650,-37.5 801,-37.5 801,-7.5 650,-7.5"/>
<text text-anchor="start" x="658" y="-25.5" font-family="Helvetica,sans-Serif" font-size="10.00">wld_rad_hostapd_updateAll</text>
<text text-anchor="middle" x="725.5" y="-14.5" font-family="Helvetica,sans-Serif" font-size="10.00">VapsConfigId</text>
</a>
</g>
</g>
<!-- Node1&#45;&gt;Node9 -->
<g id="edge9" class="edge">
<title>Node1&#45;&gt;Node9</title>
<path fill="none" stroke="midnightblue" d="M866.95,-54.69C843.98,-49.42 816.66,-43.16 792.24,-37.57"/>
<polygon fill="midnightblue" stroke="midnightblue" points="866.31,-58.13 876.84,-56.95 867.87,-51.31 866.31,-58.13"/>
</g>
<!-- Node4 -->
<g id="node4" class="node">
<title>Node4</title>
<g id="a_node4"><a xlink:href="wifiGen__hapd_8c.html#a4d80996081b27edb93e16942da18919a" target="_top" xlink:title=" ">
<polygon fill="white" stroke="black" points="437.5,-113.5 437.5,-143.5 593.5,-143.5 593.5,-113.5 437.5,-113.5"/>
<text text-anchor="start" x="445.5" y="-131.5" font-family="Helvetica,sans-Serif" font-size="10.00">wifiGen_hapd_getConfigured</text>
<text text-anchor="middle" x="515.5" y="-120.5" font-family="Helvetica,sans-Serif" font-size="10.00">CountryCode</text>
</a>
</g>
</g>
<!-- Node3&#45;&gt;Node4 -->
<g id="edge3" class="edge">
<title>Node3&#45;&gt;Node4</title>
<path fill="none" stroke="midnightblue" d="M666.8,-78.32C656.16,-80.8 645.2,-83.56 635,-86.5 607.94,-94.29 578.06,-104.89 555.08,-113.5"/>
<polygon fill="midnightblue" stroke="midnightblue" points="667.88,-81.66 676.85,-76.03 666.32,-74.84 667.88,-81.66"/>
</g>
<!-- Node6 -->
<g id="node6" class="node">
<title>Node6</title>
<g id="a_node6"><a xlink:href="wld__rad__hostapd__api_8c.html#abe1746524f390e3a6393472a5ee570d6" target="_top" xlink:title=" ">
<polygon fill="white" stroke="black" points="432,-51.5 432,-81.5 599,-81.5 599,-51.5 432,-51.5"/>
<text text-anchor="start" x="440" y="-69.5" font-family="Helvetica,sans-Serif" font-size="10.00">wld_rad_hostapd_getCfgParam</text>
<text text-anchor="middle" x="515.5" y="-58.5" font-family="Helvetica,sans-Serif" font-size="10.00">Int32Def</text>
</a>
</g>
</g>
<!-- Node3&#45;&gt;Node6 -->
<g id="edge5" class="edge">
<title>Node3&#45;&gt;Node6</title>
<path fill="none" stroke="midnightblue" d="M624.71,-66.5C616.11,-66.5 607.47,-66.5 599.03,-66.5"/>
<polygon fill="midnightblue" stroke="midnightblue" points="624.78,-70 634.78,-66.5 624.78,-63 624.78,-70"/>
</g>
<!-- Node5 -->
<g id="node5" class="node">
<title>Node5</title>
<g id="a_node5"><a xlink:href="wifiGen__rad_8c.html#a24f261e38f0ad308c80b5c1a7902f537" target="_top" xlink:title=" ">
<polygon fill="white" stroke="black" points="247,-126 247,-145 369,-145 369,-126 247,-126"/>
<text text-anchor="middle" x="308" y="-133" font-family="Helvetica,sans-Serif" font-size="10.00">wifiGen_rad_supports</text>
</a>
</g>
</g>
<!-- Node4&#45;&gt;Node5 -->
<g id="edge4" class="edge">
<title>Node4&#45;&gt;Node5</title>
<path fill="none" stroke="midnightblue" d="M427.25,-131.47C407.69,-132.14 387.37,-132.83 369.2,-133.45"/>
<polygon fill="midnightblue" stroke="midnightblue" points="427.52,-134.96 437.39,-131.13 427.28,-127.97 427.52,-134.96"/>
</g>
<!-- Node7 -->
<g id="node7" class="node">
<title>Node7</title>
<g id="a_node7"><a xlink:href="wld__rad__hostapd__api_8c.html#a3d62d80913bbb59fd6fe19d9d76b829a" target="_top" xlink:title=" ">
<polygon fill="white" stroke="black" points="220,-88 220,-107 396,-107 396,-88 220,-88"/>
<text text-anchor="middle" x="308" y="-95" font-family="Helvetica,sans-Serif" font-size="10.00">wld_rad_hostapd_getCfgChannel</text>
</a>
</g>
</g>
<!-- Node6&#45;&gt;Node7 -->
<g id="edge6" class="edge">
<title>Node6&#45;&gt;Node7</title>
<path fill="none" stroke="midnightblue" d="M421.49,-80.53C404.83,-83.04 387.83,-85.61 372.25,-87.96"/>
<polygon fill="midnightblue" stroke="midnightblue" points="422.44,-83.93 431.8,-78.97 421.39,-77.01 422.44,-83.93"/>
</g>
<!-- Node8 -->
<g id="node8" class="node">
<title>Node8</title>
<g id="a_node8"><a xlink:href="wld__rad__hostapd__api_8c.html#afca07501bc566df4c7bb67367721bc8e" target="_top" xlink:title=" ">
<polygon fill="white" stroke="black" points="0,-69 0,-88 184,-88 184,-69 0,-69"/>
<text text-anchor="middle" x="92" y="-76" font-family="Helvetica,sans-Serif" font-size="10.00">wld_rad_hostapd_getCfgChanspec</text>
</a>
</g>
</g>
<!-- Node6&#45;&gt;Node8 -->
<g id="edge8" class="edge">
<title>Node6&#45;&gt;Node8</title>
<path fill="none" stroke="midnightblue" d="M421.75,-69.14C351.1,-71.15 254.34,-73.91 184.09,-75.91"/>
<polygon fill="midnightblue" stroke="midnightblue" points="422.08,-72.63 431.98,-68.85 421.88,-65.64 422.08,-72.63"/>
</g>
<!-- Node7&#45;&gt;Node8 -->
<g id="edge7" class="edge">
<title>Node7&#45;&gt;Node8</title>
<path fill="none" stroke="midnightblue" d="M209.93,-88.88C201.35,-88.12 192.68,-87.35 184.14,-86.59"/>
<polygon fill="midnightblue" stroke="midnightblue" points="209.69,-92.37 219.96,-89.77 210.31,-85.4 209.69,-92.37"/>
</g>
<!-- Node10 -->
<g id="node10" class="node">
<title>Node10</title>
<g id="a_node10"><a xlink:href="wifiGen__hapd_8c.html#a390fcf6faed4a6312a55bab71c11440f" target="_top" xlink:title=" ">
<polygon fill="white" stroke="black" points="436,-13 436,-32 595,-32 595,-13 436,-13"/>
<text text-anchor="middle" x="515.5" y="-20" font-family="Helvetica,sans-Serif" font-size="10.00">wifiGen_hapd_syncVapStates</text>
</a>
</g>
</g>
<!-- Node9&#45;&gt;Node10 -->
<g id="edge10" class="edge">
<title>Node9&#45;&gt;Node10</title>
<path fill="none" stroke="midnightblue" d="M639.84,-22.5C625.04,-22.5 609.69,-22.5 595.05,-22.5"/>
<polygon fill="midnightblue" stroke="midnightblue" points="639.99,-26 649.99,-22.5 639.99,-19 639.99,-26"/>
</g>
<!-- Node11 -->
<g id="node11" class="node">
<title>Node11</title>
<g id="a_node11"><a xlink:href="wifiGen__rad_8c.html#a0c40e12d7d78f9e69f6b42402be3eed7" target="_top" xlink:title=" ">
<polygon fill="white" stroke="black" points="229,-0.5 229,-30.5 387,-30.5 387,-0.5 229,-0.5"/>
<text text-anchor="start" x="237" y="-18.5" font-family="Helvetica,sans-Serif" font-size="10.00">wifiGen_rad_delayedCommit</text>
<text text-anchor="middle" x="308" y="-7.5" font-family="Helvetica,sans-Serif" font-size="10.00">Update</text>
</a>
</g>
</g>
<!-- Node10&#45;&gt;Node11 -->
<g id="edge11" class="edge">
<title>Node10&#45;&gt;Node11</title>
<path fill="none" stroke="midnightblue" d="M425.72,-19.48C412.9,-19.04 399.78,-18.59 387.19,-18.16"/>
<polygon fill="midnightblue" stroke="midnightblue" points="425.82,-22.98 435.93,-19.82 426.05,-15.99 425.82,-22.98"/>
</g>
</g>
</svg>
