<?xml version="1.0" encoding="UTF-8" standalone="no"?>
<!DOCTYPE svg PUBLIC "-//W3C//DTD SVG 1.1//EN"
 "http://www.w3.org/Graphics/SVG/1.1/DTD/svg11.dtd">
<!-- Generated by graphviz version 2.43.0 (0)
 -->
<!-- Title: wld_nl80211_getSurveyInfoExt Pages: 1 -->
<svg width="528pt" height="28pt"
 viewBox="0.00 0.00 528.00 28.00" xmlns="http://www.w3.org/2000/svg" xmlns:xlink="http://www.w3.org/1999/xlink">
<g id="graph0" class="graph" transform="scale(1 1) rotate(0) translate(4 24)">
<title>wld_nl80211_getSurveyInfoExt</title>
<polygon fill="white" stroke="transparent" points="-4,4 -4,-24 524,-24 524,4 -4,4"/>
<!-- Node1 -->
<g id="node1" class="node">
<title>Node1</title>
<g id="a_node1"><a xlink:title=" ">
<polygon fill="#bfbfbf" stroke="black" points="0,-0.5 0,-19.5 167,-19.5 167,-0.5 0,-0.5"/>
<text text-anchor="middle" x="83.5" y="-7.5" font-family="Helvetica,sans-Serif" font-size="10.00">wld_nl80211_getSurveyInfoExt</text>
</a>
</g>
</g>
<!-- Node2 -->
<g id="node2" class="node">
<title>Node2</title>
<g id="a_node2"><a xlink:href="wld__nl80211__core_8c.html#a51795ba7297b263584b02e6dd2d8ddb6" target="_top" xlink:title=" ">
<polygon fill="white" stroke="black" points="203,-0.5 203,-19.5 355,-19.5 355,-0.5 203,-0.5"/>
<text text-anchor="middle" x="279" y="-7.5" font-family="Helvetica,sans-Serif" font-size="10.00">wld_nl80211_sendCmdSync</text>
</a>
</g>
</g>
<!-- Node1&#45;&gt;Node2 -->
<g id="edge1" class="edge">
<title>Node1&#45;&gt;Node2</title>
<path fill="none" stroke="midnightblue" d="M167.12,-10C175.52,-10 184.06,-10 192.49,-10"/>
<polygon fill="midnightblue" stroke="midnightblue" points="192.7,-13.5 202.7,-10 192.7,-6.5 192.7,-13.5"/>
</g>
<!-- Node3 -->
<g id="node3" class="node">
<title>Node3</title>
<g id="a_node3"><a xlink:href="wld__nl80211__core_8c.html#a3c5a525596463f925b95bbc76036d07e" target="_top" xlink:title=" ">
<polygon fill="white" stroke="black" points="391,-0.5 391,-19.5 520,-19.5 520,-0.5 391,-0.5"/>
<text text-anchor="middle" x="455.5" y="-7.5" font-family="Helvetica,sans-Serif" font-size="10.00">wld_nl80211_sendCmd</text>
</a>
</g>
</g>
<!-- Node2&#45;&gt;Node3 -->
<g id="edge2" class="edge">
<title>Node2&#45;&gt;Node3</title>
<path fill="none" stroke="midnightblue" d="M355.02,-10C363.49,-10 372.12,-10 380.57,-10"/>
<polygon fill="midnightblue" stroke="midnightblue" points="380.78,-13.5 390.78,-10 380.78,-6.5 380.78,-13.5"/>
</g>
</g>
</svg>
