<?xml version="1.0" encoding="UTF-8" standalone="no"?>
<!DOCTYPE svg PUBLIC "-//W3C//DTD SVG 1.1//EN"
 "http://www.w3.org/Graphics/SVG/1.1/DTD/svg11.dtd">
<!-- Generated by graphviz version 2.43.0 (0)
 -->
<!-- Title: wld_wpaCtrlMngr_getDefaultInterface Pages: 1 -->
<svg width="865pt" height="105pt"
 viewBox="0.00 0.00 865.00 104.50" xmlns="http://www.w3.org/2000/svg" xmlns:xlink="http://www.w3.org/1999/xlink">
<g id="graph0" class="graph" transform="scale(1 1) rotate(0) translate(4 100.5)">
<title>wld_wpaCtrlMngr_getDefaultInterface</title>
<polygon fill="white" stroke="transparent" points="-4,4 -4,-100.5 861,-100.5 861,4 -4,4"/>
<!-- Node1 -->
<g id="node1" class="node">
<title>Node1</title>
<g id="a_node1"><a xlink:title=" ">
<polygon fill="#bfbfbf" stroke="black" points="0,-24.5 0,-54.5 158,-54.5 158,-24.5 0,-24.5"/>
<text text-anchor="start" x="8" y="-42.5" font-family="Helvetica,sans-Serif" font-size="10.00">wld_wpaCtrlMngr_getDefault</text>
<text text-anchor="middle" x="79" y="-31.5" font-family="Helvetica,sans-Serif" font-size="10.00">Interface</text>
</a>
</g>
</g>
<!-- Node2 -->
<g id="node2" class="node">
<title>Node2</title>
<g id="a_node2"><a xlink:href="wld__wpaCtrlMngr_8c.html#aa181961367a7ddec982aee21b5d0d25e" target="_top" xlink:title=" ">
<polygon fill="white" stroke="black" points="194,-49.5 194,-79.5 337,-79.5 337,-49.5 194,-49.5"/>
<text text-anchor="start" x="202" y="-67.5" font-family="Helvetica,sans-Serif" font-size="10.00">wld_wpaCtrlMngr_getFirst</text>
<text text-anchor="middle" x="265.5" y="-56.5" font-family="Helvetica,sans-Serif" font-size="10.00">AvailableInterface</text>
</a>
</g>
</g>
<!-- Node1&#45;&gt;Node2 -->
<g id="edge1" class="edge">
<title>Node1&#45;&gt;Node2</title>
<path fill="none" stroke="midnightblue" d="M158.24,-50.1C166.62,-51.24 175.16,-52.39 183.57,-53.53"/>
<polygon fill="midnightblue" stroke="midnightblue" points="183.37,-57.04 193.74,-54.91 184.31,-50.1 183.37,-57.04"/>
</g>
<!-- Node7 -->
<g id="node7" class="node">
<title>Node7</title>
<g id="a_node7"><a xlink:href="wld__wpaCtrlMngr_8c.html#a3dc93dfda0d67c0e7254cc1ffeeb3ebe" target="_top" xlink:title=" ">
<polygon fill="white" stroke="black" points="194,-0.5 194,-30.5 337,-30.5 337,-0.5 194,-0.5"/>
<text text-anchor="start" x="202" y="-18.5" font-family="Helvetica,sans-Serif" font-size="10.00">wld_wpaCtrlMngr_getFirst</text>
<text text-anchor="middle" x="265.5" y="-7.5" font-family="Helvetica,sans-Serif" font-size="10.00">ReadyInterface</text>
</a>
</g>
</g>
<!-- Node1&#45;&gt;Node7 -->
<g id="edge6" class="edge">
<title>Node1&#45;&gt;Node7</title>
<path fill="none" stroke="midnightblue" d="M158.24,-29.32C166.62,-28.23 175.16,-27.12 183.57,-26.03"/>
<polygon fill="midnightblue" stroke="midnightblue" points="184.28,-29.46 193.74,-24.7 183.38,-22.52 184.28,-29.46"/>
</g>
<!-- Node3 -->
<g id="node3" class="node">
<title>Node3</title>
<g id="a_node3"><a xlink:href="wld__wpaCtrlInterface_8c.html#a6bc5243e885837a4bdb99fec68952a95" target="_top" xlink:title=" ">
<polygon fill="white" stroke="black" points="373,-49.5 373,-79.5 499,-79.5 499,-49.5 373,-49.5"/>
<text text-anchor="start" x="381" y="-67.5" font-family="Helvetica,sans-Serif" font-size="10.00">wld_wpaCtrlInterface</text>
<text text-anchor="middle" x="436" y="-56.5" font-family="Helvetica,sans-Serif" font-size="10.00">_checkConnectionPath</text>
</a>
</g>
</g>
<!-- Node2&#45;&gt;Node3 -->
<g id="edge2" class="edge">
<title>Node2&#45;&gt;Node3</title>
<path fill="none" stroke="midnightblue" d="M337.47,-64.5C345.85,-64.5 354.4,-64.5 362.8,-64.5"/>
<polygon fill="midnightblue" stroke="midnightblue" points="362.93,-68 372.93,-64.5 362.93,-61 362.93,-68"/>
</g>
<!-- Node4 -->
<g id="node4" class="node">
<title>Node4</title>
<g id="a_node4"><a xlink:href="wld__wpaCtrlConnection_8c.html#a379089510626b43f9386a6db71f4a3ef" target="_top" xlink:title=" ">
<polygon fill="white" stroke="black" points="535,-77 535,-96 690,-96 690,-77 535,-77"/>
<text text-anchor="middle" x="612.5" y="-84" font-family="Helvetica,sans-Serif" font-size="10.00">wld_wpaCtrl_checkSockPath</text>
</a>
</g>
</g>
<!-- Node3&#45;&gt;Node4 -->
<g id="edge3" class="edge">
<title>Node3&#45;&gt;Node4</title>
<path fill="none" stroke="midnightblue" d="M499.01,-72.32C507.7,-73.41 516.75,-74.55 525.77,-75.69"/>
<polygon fill="midnightblue" stroke="midnightblue" points="525.57,-79.19 535.93,-76.97 526.45,-72.25 525.57,-79.19"/>
</g>
<!-- Node5 -->
<g id="node5" class="node">
<title>Node5</title>
<g id="a_node5"><a xlink:href="wld__wpaCtrlInterface_8c.html#a9acfa80398f0e1389219c511e1b3b073" target="_top" xlink:title=" ">
<polygon fill="white" stroke="black" points="552.5,-27.5 552.5,-57.5 672.5,-57.5 672.5,-27.5 552.5,-27.5"/>
<text text-anchor="start" x="560.5" y="-45.5" font-family="Helvetica,sans-Serif" font-size="10.00">wld_wpaCtrlInterface</text>
<text text-anchor="middle" x="612.5" y="-34.5" font-family="Helvetica,sans-Serif" font-size="10.00">_getPath</text>
</a>
</g>
</g>
<!-- Node3&#45;&gt;Node5 -->
<g id="edge4" class="edge">
<title>Node3&#45;&gt;Node5</title>
<path fill="none" stroke="midnightblue" d="M499.01,-56.68C512.97,-54.92 527.86,-53.04 542.09,-51.25"/>
<polygon fill="midnightblue" stroke="midnightblue" points="542.83,-54.68 552.32,-49.96 541.96,-47.74 542.83,-54.68"/>
</g>
<!-- Node6 -->
<g id="node6" class="node">
<title>Node6</title>
<g id="a_node6"><a xlink:href="wld__wpaCtrlConnection_8c.html#a47a34d899bc01dfe767b26ee4f7b87db" target="_top" xlink:title=" ">
<polygon fill="white" stroke="black" points="726,-27.5 726,-57.5 857,-57.5 857,-27.5 726,-27.5"/>
<text text-anchor="start" x="734" y="-45.5" font-family="Helvetica,sans-Serif" font-size="10.00">wld_wpaCtrlConnection</text>
<text text-anchor="middle" x="791.5" y="-34.5" font-family="Helvetica,sans-Serif" font-size="10.00">_getConnSrvPath</text>
</a>
</g>
</g>
<!-- Node5&#45;&gt;Node6 -->
<g id="edge5" class="edge">
<title>Node5&#45;&gt;Node6</title>
<path fill="none" stroke="midnightblue" d="M672.93,-42.5C686.59,-42.5 701.29,-42.5 715.51,-42.5"/>
<polygon fill="midnightblue" stroke="midnightblue" points="715.75,-46 725.75,-42.5 715.75,-39 715.75,-46"/>
</g>
<!-- Node8 -->
<g id="node8" class="node">
<title>Node8</title>
<g id="a_node8"><a xlink:href="wld__wpaCtrlInterface_8c.html#a8b38bc9ca95b60e002d38cdb1374d1d0" target="_top" xlink:title=" ">
<polygon fill="white" stroke="black" points="376,-0.5 376,-30.5 496,-30.5 496,-0.5 376,-0.5"/>
<text text-anchor="start" x="384" y="-18.5" font-family="Helvetica,sans-Serif" font-size="10.00">wld_wpaCtrlInterface</text>
<text text-anchor="middle" x="436" y="-7.5" font-family="Helvetica,sans-Serif" font-size="10.00">_isReady</text>
</a>
</g>
</g>
<!-- Node7&#45;&gt;Node8 -->
<g id="edge7" class="edge">
<title>Node7&#45;&gt;Node8</title>
<path fill="none" stroke="midnightblue" d="M337.47,-15.5C346.85,-15.5 356.45,-15.5 365.8,-15.5"/>
<polygon fill="midnightblue" stroke="midnightblue" points="365.82,-19 375.82,-15.5 365.82,-12 365.82,-19"/>
</g>
</g>
</svg>
