<?xml version="1.0" encoding="UTF-8" standalone="no"?>
<!DOCTYPE svg PUBLIC "-//W3C//DTD SVG 1.1//EN"
 "http://www.w3.org/Graphics/SVG/1.1/DTD/svg11.dtd">
<!-- Generated by graphviz version 2.43.0 (0)
 -->
<!-- Title: include/wld/wld_rad_hostapd_api.h Pages: 1 -->
<svg width="1198pt" height="106pt"
 viewBox="0.00 0.00 1198.00 106.00" xmlns="http://www.w3.org/2000/svg" xmlns:xlink="http://www.w3.org/1999/xlink">
<g id="graph0" class="graph" transform="scale(1 1) rotate(0) translate(4 102)">
<title>include/wld/wld_rad_hostapd_api.h</title>
<polygon fill="white" stroke="transparent" points="-4,4 -4,-102 1194,-102 1194,4 -4,4"/>
<!-- Node1 -->
<g id="node1" class="node">
<title>Node1</title>
<g id="a_node1"><a xlink:title=" ">
<polygon fill="#bfbfbf" stroke="black" points="483.5,-67.5 483.5,-97.5 596.5,-97.5 596.5,-67.5 483.5,-67.5"/>
<text text-anchor="start" x="491.5" y="-85.5" font-family="Helvetica,sans-Serif" font-size="10.00">include/wld/wld_rad</text>
<text text-anchor="middle" x="540" y="-74.5" font-family="Helvetica,sans-Serif" font-size="10.00">_hostapd_api.h</text>
</a>
</g>
</g>
<!-- Node2 -->
<g id="node2" class="node">
<title>Node2</title>
<g id="a_node2"><a xlink:href="wifiGen__eventHandlers_8c.html" target="_top" xlink:title=" ">
<polygon fill="white" stroke="black" points="0,-0.5 0,-30.5 104,-30.5 104,-0.5 0,-0.5"/>
<text text-anchor="start" x="8" y="-18.5" font-family="Helvetica,sans-Serif" font-size="10.00">src/Plugin/wifiGen</text>
<text text-anchor="middle" x="52" y="-7.5" font-family="Helvetica,sans-Serif" font-size="10.00">_eventHandlers.c</text>
</a>
</g>
</g>
<!-- Node1&#45;&gt;Node2 -->
<g id="edge1" class="edge">
<title>Node1&#45;&gt;Node2</title>
<path fill="none" stroke="midnightblue" d="M473.19,-76.01C388.85,-68.52 239.48,-53.43 113,-31 110.11,-30.49 107.14,-29.92 104.16,-29.32"/>
<polygon fill="midnightblue" stroke="midnightblue" points="473.13,-79.52 483.4,-76.91 473.74,-72.54 473.13,-79.52"/>
</g>
<!-- Node3 -->
<g id="node3" class="node">
<title>Node3</title>
<g id="a_node3"><a xlink:href="wifiGen__fsm_8c.html" target="_top" xlink:title=" ">
<polygon fill="white" stroke="black" points="122,-0.5 122,-30.5 226,-30.5 226,-0.5 122,-0.5"/>
<text text-anchor="start" x="130" y="-18.5" font-family="Helvetica,sans-Serif" font-size="10.00">src/Plugin/wifiGen</text>
<text text-anchor="middle" x="174" y="-7.5" font-family="Helvetica,sans-Serif" font-size="10.00">_fsm.c</text>
</a>
</g>
</g>
<!-- Node1&#45;&gt;Node3 -->
<g id="edge2" class="edge">
<title>Node1&#45;&gt;Node3</title>
<path fill="none" stroke="midnightblue" d="M473.26,-71.81C411.3,-62.49 316.62,-47.44 235,-31 232.12,-30.42 229.17,-29.8 226.19,-29.16"/>
<polygon fill="midnightblue" stroke="midnightblue" points="472.88,-75.29 483.29,-73.31 473.92,-68.37 472.88,-75.29"/>
</g>
<!-- Node4 -->
<g id="node4" class="node">
<title>Node4</title>
<g id="a_node4"><a xlink:href="wifiGen__hapd_8c.html" target="_top" xlink:title=" ">
<polygon fill="white" stroke="black" points="244,-0.5 244,-30.5 348,-30.5 348,-0.5 244,-0.5"/>
<text text-anchor="start" x="252" y="-18.5" font-family="Helvetica,sans-Serif" font-size="10.00">src/Plugin/wifiGen</text>
<text text-anchor="middle" x="296" y="-7.5" font-family="Helvetica,sans-Serif" font-size="10.00">_hapd.c</text>
</a>
</g>
</g>
<!-- Node1&#45;&gt;Node4 -->
<g id="edge3" class="edge">
<title>Node1&#45;&gt;Node4</title>
<path fill="none" stroke="midnightblue" d="M477.68,-64.9C437.58,-54.22 386.06,-40.49 348.13,-30.39"/>
<polygon fill="midnightblue" stroke="midnightblue" points="476.79,-68.28 487.36,-67.48 478.59,-61.52 476.79,-68.28"/>
</g>
<!-- Node5 -->
<g id="node5" class="node">
<title>Node5</title>
<g id="a_node5"><a xlink:href="wifiGen__mld_8c.html" target="_top" xlink:title=" ">
<polygon fill="white" stroke="black" points="366,-0.5 366,-30.5 470,-30.5 470,-0.5 366,-0.5"/>
<text text-anchor="start" x="374" y="-18.5" font-family="Helvetica,sans-Serif" font-size="10.00">src/Plugin/wifiGen</text>
<text text-anchor="middle" x="418" y="-7.5" font-family="Helvetica,sans-Serif" font-size="10.00">_mld.c</text>
</a>
</g>
</g>
<!-- Node1&#45;&gt;Node5 -->
<g id="edge4" class="edge">
<title>Node1&#45;&gt;Node5</title>
<path fill="none" stroke="midnightblue" d="M504.48,-62.57C485.29,-52.35 462,-39.94 444.42,-30.58"/>
<polygon fill="midnightblue" stroke="midnightblue" points="503.06,-65.78 513.53,-67.4 506.35,-59.6 503.06,-65.78"/>
</g>
<!-- Node6 -->
<g id="node6" class="node">
<title>Node6</title>
<g id="a_node6"><a xlink:href="wifiGen__rad_8c.html" target="_top" xlink:title=" ">
<polygon fill="white" stroke="black" points="488,-0.5 488,-30.5 592,-30.5 592,-0.5 488,-0.5"/>
<text text-anchor="start" x="496" y="-18.5" font-family="Helvetica,sans-Serif" font-size="10.00">src/Plugin/wifiGen</text>
<text text-anchor="middle" x="540" y="-7.5" font-family="Helvetica,sans-Serif" font-size="10.00">_rad.c</text>
</a>
</g>
</g>
<!-- Node1&#45;&gt;Node6 -->
<g id="edge5" class="edge">
<title>Node1&#45;&gt;Node6</title>
<path fill="none" stroke="midnightblue" d="M540,-57.11C540,-48.15 540,-38.32 540,-30.58"/>
<polygon fill="midnightblue" stroke="midnightblue" points="536.5,-57.4 540,-67.4 543.5,-57.4 536.5,-57.4"/>
</g>
<!-- Node7 -->
<g id="node7" class="node">
<title>Node7</title>
<g id="a_node7"><a xlink:href="wld__hostapd__ap__api_8c.html" target="_top" xlink:title=" ">
<polygon fill="white" stroke="black" points="610.5,-0.5 610.5,-30.5 747.5,-30.5 747.5,-0.5 610.5,-0.5"/>
<text text-anchor="start" x="618.5" y="-18.5" font-family="Helvetica,sans-Serif" font-size="10.00">src/nl80211/wld_hostapd</text>
<text text-anchor="middle" x="679" y="-7.5" font-family="Helvetica,sans-Serif" font-size="10.00">_ap_api.c</text>
</a>
</g>
</g>
<!-- Node1&#45;&gt;Node7 -->
<g id="edge6" class="edge">
<title>Node1&#45;&gt;Node7</title>
<path fill="none" stroke="midnightblue" d="M579.28,-63.13C601.37,-52.8 628.51,-40.11 648.9,-30.58"/>
<polygon fill="midnightblue" stroke="midnightblue" points="577.74,-59.99 570.16,-67.4 580.7,-66.33 577.74,-59.99"/>
</g>
<!-- Node8 -->
<g id="node8" class="node">
<title>Node8</title>
<g id="a_node8"><a xlink:href="wld__hostapd__cfgFile_8c.html" target="_top" xlink:title=" ">
<polygon fill="white" stroke="black" points="765.5,-0.5 765.5,-30.5 902.5,-30.5 902.5,-0.5 765.5,-0.5"/>
<text text-anchor="start" x="773.5" y="-18.5" font-family="Helvetica,sans-Serif" font-size="10.00">src/nl80211/wld_hostapd</text>
<text text-anchor="middle" x="834" y="-7.5" font-family="Helvetica,sans-Serif" font-size="10.00">_cfgFile.c</text>
</a>
</g>
</g>
<!-- Node1&#45;&gt;Node8 -->
<g id="edge7" class="edge">
<title>Node1&#45;&gt;Node8</title>
<path fill="none" stroke="midnightblue" d="M606.59,-66.78C655.74,-55.91 722.22,-41.21 770.6,-30.52"/>
<polygon fill="midnightblue" stroke="midnightblue" points="605.69,-63.39 596.69,-68.97 607.21,-70.23 605.69,-63.39"/>
</g>
<!-- Node9 -->
<g id="node9" class="node">
<title>Node9</title>
<g id="a_node9"><a xlink:href="wld__hostapd__cfgManager_8c.html" target="_top" xlink:title=" ">
<polygon fill="white" stroke="black" points="920.5,-0.5 920.5,-30.5 1057.5,-30.5 1057.5,-0.5 920.5,-0.5"/>
<text text-anchor="start" x="928.5" y="-18.5" font-family="Helvetica,sans-Serif" font-size="10.00">src/nl80211/wld_hostapd</text>
<text text-anchor="middle" x="989" y="-7.5" font-family="Helvetica,sans-Serif" font-size="10.00">_cfgManager.c</text>
</a>
</g>
</g>
<!-- Node1&#45;&gt;Node9 -->
<g id="edge8" class="edge">
<title>Node1&#45;&gt;Node9</title>
<path fill="none" stroke="midnightblue" d="M606.72,-73.49C681.29,-64.29 805.54,-48.24 912,-31 914.69,-30.57 917.42,-30.11 920.18,-29.64"/>
<polygon fill="midnightblue" stroke="midnightblue" points="606.04,-70.05 596.54,-74.74 606.89,-76.99 606.04,-70.05"/>
</g>
<!-- Node10 -->
<g id="node10" class="node">
<title>Node10</title>
<g id="a_node10"><a xlink:href="wld__rad__hostapd__api_8c.html" target="_top" xlink:title=" ">
<polygon fill="white" stroke="black" points="1076,-0.5 1076,-30.5 1190,-30.5 1190,-0.5 1076,-0.5"/>
<text text-anchor="start" x="1084" y="-18.5" font-family="Helvetica,sans-Serif" font-size="10.00">src/nl80211/wld_rad</text>
<text text-anchor="middle" x="1133" y="-7.5" font-family="Helvetica,sans-Serif" font-size="10.00">_hostapd_api.c</text>
</a>
</g>
</g>
<!-- Node1&#45;&gt;Node10 -->
<g id="edge9" class="edge">
<title>Node1&#45;&gt;Node10</title>
<path fill="none" stroke="midnightblue" d="M606.82,-77.69C707.19,-71.38 902.63,-56.84 1067,-31 1069.9,-30.54 1072.86,-30.04 1075.84,-29.5"/>
<polygon fill="midnightblue" stroke="midnightblue" points="606.59,-74.2 596.82,-78.31 607.02,-81.19 606.59,-74.2"/>
</g>
</g>
</svg>
