<?xml version="1.0" encoding="UTF-8" standalone="no"?>
<!DOCTYPE svg PUBLIC "-//W3C//DTD SVG 1.1//EN"
 "http://www.w3.org/Graphics/SVG/1.1/DTD/svg11.dtd">
<!-- Generated by graphviz version 2.43.0 (0)
 -->
<!-- Title: wld_rad_hostapd_getCmdReplyParam32Def Pages: 1 -->
<svg width="1309pt" height="154pt"
 viewBox="0.00 0.00 1309.00 153.50" xmlns="http://www.w3.org/2000/svg" xmlns:xlink="http://www.w3.org/1999/xlink">
<g id="graph0" class="graph" transform="scale(1 1) rotate(0) translate(4 149.5)">
<title>wld_rad_hostapd_getCmdReplyParam32Def</title>
<polygon fill="white" stroke="transparent" points="-4,4 -4,-149.5 1305,-149.5 1305,4 -4,4"/>
<!-- Node1 -->
<g id="node1" class="node">
<title>Node1</title>
<g id="a_node1"><a xlink:title=" ">
<polygon fill="#bfbfbf" stroke="black" points="0,-41.5 0,-71.5 170,-71.5 170,-41.5 0,-41.5"/>
<text text-anchor="start" x="8" y="-59.5" font-family="Helvetica,sans-Serif" font-size="10.00">wld_rad_hostapd_getCmdReply</text>
<text text-anchor="middle" x="85" y="-48.5" font-family="Helvetica,sans-Serif" font-size="10.00">Param32Def</text>
</a>
</g>
</g>
<!-- Node2 -->
<g id="node2" class="node">
<title>Node2</title>
<g id="a_node2"><a xlink:href="wld__rad__hostapd__api_8c.html#ab6f300904d214f4def189a78b2827d6e" target="_top" xlink:title=" ">
<polygon fill="white" stroke="black" points="206,-63.5 206,-93.5 376,-93.5 376,-63.5 206,-63.5"/>
<text text-anchor="start" x="214" y="-81.5" font-family="Helvetica,sans-Serif" font-size="10.00">wld_rad_hostapd_getCmdReply</text>
<text text-anchor="middle" x="291" y="-70.5" font-family="Helvetica,sans-Serif" font-size="10.00">ParamStr</text>
</a>
</g>
</g>
<!-- Node1&#45;&gt;Node2 -->
<g id="edge1" class="edge">
<title>Node1&#45;&gt;Node2</title>
<path fill="none" stroke="midnightblue" d="M170.15,-65.58C178.59,-66.49 187.2,-67.41 195.74,-68.33"/>
<polygon fill="midnightblue" stroke="midnightblue" points="195.39,-71.82 205.71,-69.41 196.14,-64.86 195.39,-71.82"/>
</g>
<!-- Node14 -->
<g id="node14" class="node">
<title>Node14</title>
<g id="a_node14"><a xlink:href="wld__util_8c.html#a1885348d15676dcae318538076904ed3" target="_top" xlink:title=" ">
<polygon fill="white" stroke="black" points="233,-25 233,-44 349,-44 349,-25 233,-25"/>
<text text-anchor="middle" x="291" y="-32" font-family="Helvetica,sans-Serif" font-size="10.00">wldu_convStrToNum</text>
</a>
</g>
</g>
<!-- Node1&#45;&gt;Node14 -->
<g id="edge13" class="edge">
<title>Node1&#45;&gt;Node14</title>
<path fill="none" stroke="midnightblue" d="M170.15,-47.42C187.6,-45.54 205.77,-43.58 222.53,-41.78"/>
<polygon fill="midnightblue" stroke="midnightblue" points="223.2,-45.22 232.77,-40.67 222.45,-38.26 223.2,-45.22"/>
</g>
<!-- Node3 -->
<g id="node3" class="node">
<title>Node3</title>
<g id="a_node3"><a xlink:href="wld__secDmn_8c.html#af6f5c940cdf44ae30f012827a423a0c9" target="_top" xlink:title=" ">
<polygon fill="white" stroke="black" points="427.5,-107 427.5,-126 585.5,-126 585.5,-107 427.5,-107"/>
<text text-anchor="middle" x="506.5" y="-114" font-family="Helvetica,sans-Serif" font-size="10.00">wld_secDmn_getWpaCtrlMgr</text>
</a>
</g>
</g>
<!-- Node2&#45;&gt;Node3 -->
<g id="edge2" class="edge">
<title>Node2&#45;&gt;Node3</title>
<path fill="none" stroke="midnightblue" d="M376.07,-93.46C398.04,-97.37 421.34,-101.52 442.03,-105.2"/>
<polygon fill="midnightblue" stroke="midnightblue" points="441.5,-108.66 451.96,-106.97 442.73,-101.77 441.5,-108.66"/>
</g>
<!-- Node4 -->
<g id="node4" class="node">
<title>Node4</title>
<g id="a_node4"><a xlink:href="wld__wpaCtrlInterface_8c.html#af5a74650770b378805df194c8cc4f52b" target="_top" xlink:title="send synchronous command to wpa_ctrl server and check a parameter value in the reply">
<polygon fill="white" stroke="black" points="412,-69 412,-88 601,-88 601,-69 412,-69"/>
<text text-anchor="middle" x="506.5" y="-76" font-family="Helvetica,sans-Serif" font-size="10.00">wld_wpaCtrl_getSyncCmdParamVal</text>
</a>
</g>
</g>
<!-- Node2&#45;&gt;Node4 -->
<g id="edge3" class="edge">
<title>Node2&#45;&gt;Node4</title>
<path fill="none" stroke="midnightblue" d="M376.07,-78.5C384.55,-78.5 393.22,-78.5 401.86,-78.5"/>
<polygon fill="midnightblue" stroke="midnightblue" points="401.98,-82 411.98,-78.5 401.98,-75 401.98,-82"/>
</g>
<!-- Node12 -->
<g id="node12" class="node">
<title>Node12</title>
<g id="a_node12"><a xlink:href="wld__wpaCtrlMngr_8c.html#a3dc93dfda0d67c0e7254cc1ffeeb3ebe" target="_top" xlink:title=" ">
<polygon fill="white" stroke="black" points="435,-19.5 435,-49.5 578,-49.5 578,-19.5 435,-19.5"/>
<text text-anchor="start" x="443" y="-37.5" font-family="Helvetica,sans-Serif" font-size="10.00">wld_wpaCtrlMngr_getFirst</text>
<text text-anchor="middle" x="506.5" y="-26.5" font-family="Helvetica,sans-Serif" font-size="10.00">ReadyInterface</text>
</a>
</g>
</g>
<!-- Node2&#45;&gt;Node12 -->
<g id="edge11" class="edge">
<title>Node2&#45;&gt;Node12</title>
<path fill="none" stroke="midnightblue" d="M364.88,-63.48C384.2,-59.5 405.18,-55.18 424.89,-51.11"/>
<polygon fill="midnightblue" stroke="midnightblue" points="425.67,-54.53 434.76,-49.08 424.26,-47.67 425.67,-54.53"/>
</g>
<!-- Node5 -->
<g id="node5" class="node">
<title>Node5</title>
<g id="a_node5"><a xlink:href="wld__wpaCtrlConnection_8c.html#ab5b29b7ce5f29ef5dfbe951e5b700428" target="_top" xlink:title=" ">
<polygon fill="white" stroke="black" points="640.5,-126 640.5,-145 796.5,-145 796.5,-126 640.5,-126"/>
<text text-anchor="middle" x="718.5" y="-133" font-family="Helvetica,sans-Serif" font-size="10.00">wld_wpaCtrl_getMaxMsgLen</text>
</a>
</g>
</g>
<!-- Node4&#45;&gt;Node5 -->
<g id="edge4" class="edge">
<title>Node4&#45;&gt;Node5</title>
<path fill="none" stroke="midnightblue" d="M567.55,-88.06C578.82,-90.59 590.39,-93.71 601,-97.5 618.04,-103.59 620.06,-110.15 637,-116.5 643.75,-119.03 650.94,-121.3 658.15,-123.31"/>
<polygon fill="midnightblue" stroke="midnightblue" points="657.39,-126.73 667.95,-125.9 659.18,-119.96 657.39,-126.73"/>
</g>
<!-- Node6 -->
<g id="node6" class="node">
<title>Node6</title>
<g id="a_node6"><a xlink:href="wld__wpaCtrl__events_8c.html#a67b83e09a159510b15c2677af1127b60" target="_top" xlink:title=" ">
<polygon fill="white" stroke="black" points="649.5,-88 649.5,-107 787.5,-107 787.5,-88 649.5,-88"/>
<text text-anchor="middle" x="718.5" y="-95" font-family="Helvetica,sans-Serif" font-size="10.00">wld_wpaCtrl_getValueStr</text>
</a>
</g>
</g>
<!-- Node4&#45;&gt;Node6 -->
<g id="edge5" class="edge">
<title>Node4&#45;&gt;Node6</title>
<path fill="none" stroke="midnightblue" d="M601.14,-86.97C613.78,-88.12 626.65,-89.28 639,-90.4"/>
<polygon fill="midnightblue" stroke="midnightblue" points="638.96,-93.91 649.23,-91.32 639.59,-86.94 638.96,-93.91"/>
</g>
<!-- Node7 -->
<g id="node7" class="node">
<title>Node7</title>
<g id="a_node7"><a xlink:href="wld__wpaCtrlInterface_8c.html#a4e9aeb5d1118a418053afcb9a3b8375c" target="_top" xlink:title="send command to wpa_ctrl server and wait for the reply">
<polygon fill="white" stroke="black" points="637,-50 637,-69 800,-69 800,-50 637,-50"/>
<text text-anchor="middle" x="718.5" y="-57" font-family="Helvetica,sans-Serif" font-size="10.00">wld_wpaCtrl_sendCmdSynced</text>
</a>
</g>
</g>
<!-- Node4&#45;&gt;Node7 -->
<g id="edge6" class="edge">
<title>Node4&#45;&gt;Node7</title>
<path fill="none" stroke="midnightblue" d="M601.14,-70.03C609.61,-69.26 618.19,-68.49 626.64,-67.72"/>
<polygon fill="midnightblue" stroke="midnightblue" points="627.23,-71.18 636.87,-66.79 626.6,-64.21 627.23,-71.18"/>
</g>
<!-- Node8 -->
<g id="node8" class="node">
<title>Node8</title>
<g id="a_node8"><a xlink:href="wld__wpaCtrlConnection_8c.html#a4ffecc829a17c67728b8ced8b0cccc92" target="_top" xlink:title=" ">
<polygon fill="white" stroke="black" points="836,-44.5 836,-74.5 967,-74.5 967,-44.5 836,-44.5"/>
<text text-anchor="start" x="844" y="-62.5" font-family="Helvetica,sans-Serif" font-size="10.00">wld_wpaCtrlConnection</text>
<text text-anchor="middle" x="901.5" y="-51.5" font-family="Helvetica,sans-Serif" font-size="10.00">_sendCmdSynced</text>
</a>
</g>
</g>
<!-- Node7&#45;&gt;Node8 -->
<g id="edge7" class="edge">
<title>Node7&#45;&gt;Node8</title>
<path fill="none" stroke="midnightblue" d="M800.21,-59.5C808.72,-59.5 817.35,-59.5 825.79,-59.5"/>
<polygon fill="midnightblue" stroke="midnightblue" points="825.97,-63 835.97,-59.5 825.97,-56 825.97,-63"/>
</g>
<!-- Node9 -->
<g id="node9" class="node">
<title>Node9</title>
<g id="a_node9"><a xlink:href="wld__wpaCtrlConnection_8c.html#ae8867992d243efdfa13e360b50730f88" target="_top" xlink:title=" ">
<polygon fill="white" stroke="black" points="1003,-44.5 1003,-74.5 1134,-74.5 1134,-44.5 1003,-44.5"/>
<text text-anchor="start" x="1011" y="-62.5" font-family="Helvetica,sans-Serif" font-size="10.00">wld_wpaCtrlConnection</text>
<text text-anchor="middle" x="1068.5" y="-51.5" font-family="Helvetica,sans-Serif" font-size="10.00">_sendCmdSyncedExt</text>
</a>
</g>
</g>
<!-- Node8&#45;&gt;Node9 -->
<g id="edge8" class="edge">
<title>Node8&#45;&gt;Node9</title>
<path fill="none" stroke="midnightblue" d="M967.24,-59.5C975.58,-59.5 984.18,-59.5 992.67,-59.5"/>
<polygon fill="midnightblue" stroke="midnightblue" points="992.95,-63 1002.95,-59.5 992.95,-56 992.95,-63"/>
</g>
<!-- Node10 -->
<g id="node10" class="node">
<title>Node10</title>
<g id="a_node10"><a xlink:href="wld__wpaCtrlConnection_8c.html#abfe3f8b17cf527b1e6fe85a564c8604b" target="_top" xlink:title=" ">
<polygon fill="white" stroke="black" points="1170,-69.5 1170,-99.5 1301,-99.5 1301,-69.5 1170,-69.5"/>
<text text-anchor="start" x="1178" y="-87.5" font-family="Helvetica,sans-Serif" font-size="10.00">wld_wpaCtrlConnection</text>
<text text-anchor="middle" x="1235.5" y="-76.5" font-family="Helvetica,sans-Serif" font-size="10.00">_getConnSockName</text>
</a>
</g>
</g>
<!-- Node9&#45;&gt;Node10 -->
<g id="edge9" class="edge">
<title>Node9&#45;&gt;Node10</title>
<path fill="none" stroke="midnightblue" d="M1134.24,-69.31C1142.67,-70.59 1151.37,-71.9 1159.95,-73.2"/>
<polygon fill="midnightblue" stroke="midnightblue" points="1159.54,-76.68 1169.95,-74.72 1160.59,-69.76 1159.54,-76.68"/>
</g>
<!-- Node11 -->
<g id="node11" class="node">
<title>Node11</title>
<g id="a_node11"><a xlink:href="wld__wpaCtrlConnection_8c.html#aa82226c76dbbf306e509b7c6d3088277" target="_top" xlink:title=" ">
<polygon fill="white" stroke="black" points="1170,-20.5 1170,-50.5 1301,-50.5 1301,-20.5 1170,-20.5"/>
<text text-anchor="start" x="1178" y="-38.5" font-family="Helvetica,sans-Serif" font-size="10.00">wld_wpaCtrlConnection</text>
<text text-anchor="middle" x="1235.5" y="-27.5" font-family="Helvetica,sans-Serif" font-size="10.00">_sendCmd</text>
</a>
</g>
</g>
<!-- Node9&#45;&gt;Node11 -->
<g id="edge10" class="edge">
<title>Node9&#45;&gt;Node11</title>
<path fill="none" stroke="midnightblue" d="M1134.24,-50.08C1142.67,-48.86 1151.37,-47.59 1159.95,-46.34"/>
<polygon fill="midnightblue" stroke="midnightblue" points="1160.56,-49.79 1169.95,-44.89 1159.55,-42.87 1160.56,-49.79"/>
</g>
<!-- Node13 -->
<g id="node13" class="node">
<title>Node13</title>
<g id="a_node13"><a xlink:href="wld__wpaCtrlInterface_8c.html#a8b38bc9ca95b60e002d38cdb1374d1d0" target="_top" xlink:title=" ">
<polygon fill="white" stroke="black" points="658.5,-0.5 658.5,-30.5 778.5,-30.5 778.5,-0.5 658.5,-0.5"/>
<text text-anchor="start" x="666.5" y="-18.5" font-family="Helvetica,sans-Serif" font-size="10.00">wld_wpaCtrlInterface</text>
<text text-anchor="middle" x="718.5" y="-7.5" font-family="Helvetica,sans-Serif" font-size="10.00">_isReady</text>
</a>
</g>
</g>
<!-- Node12&#45;&gt;Node13 -->
<g id="edge12" class="edge">
<title>Node12&#45;&gt;Node13</title>
<path fill="none" stroke="midnightblue" d="M578.01,-28.12C600.64,-26.07 625.67,-23.81 648.21,-21.77"/>
<polygon fill="midnightblue" stroke="midnightblue" points="648.73,-25.24 658.38,-20.85 648.1,-18.26 648.73,-25.24"/>
</g>
</g>
</svg>
