<?xml version="1.0" encoding="UTF-8" standalone="no"?>
<!DOCTYPE svg PUBLIC "-//W3C//DTD SVG 1.1//EN"
 "http://www.w3.org/Graphics/SVG/1.1/DTD/svg11.dtd">
<!-- Generated by graphviz version 2.43.0 (0)
 -->
<!-- Title: wld_deleteRadio Pages: 1 -->
<svg width="676pt" height="370pt"
 viewBox="0.00 0.00 676.00 370.00" xmlns="http://www.w3.org/2000/svg" xmlns:xlink="http://www.w3.org/1999/xlink">
<g id="graph0" class="graph" transform="scale(1 1) rotate(0) translate(4 366)">
<title>wld_deleteRadio</title>
<polygon fill="white" stroke="transparent" points="-4,4 -4,-366 672,-366 672,4 -4,4"/>
<!-- Node1 -->
<g id="node1" class="node">
<title>Node1</title>
<g id="a_node1"><a xlink:title=" ">
<polygon fill="#bfbfbf" stroke="black" points="0,-152.5 0,-171.5 98,-171.5 98,-152.5 0,-152.5"/>
<text text-anchor="middle" x="49" y="-159.5" font-family="Helvetica,sans-Serif" font-size="10.00">wld_deleteRadio</text>
</a>
</g>
</g>
<!-- Node2 -->
<g id="node2" class="node">
<title>Node2</title>
<g id="a_node2"><a xlink:href="wld_8c.html#a798af38bd94fac2d41bbc0c9b3138188" target="_top" xlink:title=" ">
<polygon fill="white" stroke="black" points="135,-171.5 135,-190.5 249,-190.5 249,-171.5 135,-171.5"/>
<text text-anchor="middle" x="192" y="-178.5" font-family="Helvetica,sans-Serif" font-size="10.00">wld_deleteRadioObj</text>
</a>
</g>
</g>
<!-- Node1&#45;&gt;Node2 -->
<g id="edge1" class="edge">
<title>Node1&#45;&gt;Node2</title>
<path fill="none" stroke="midnightblue" d="M98.13,-168.49C106.71,-169.64 115.78,-170.86 124.76,-172.07"/>
<polygon fill="midnightblue" stroke="midnightblue" points="124.45,-175.56 134.83,-173.43 125.38,-168.63 124.45,-175.56"/>
</g>
<!-- Node16 -->
<g id="node16" class="node">
<title>Node16</title>
<g id="a_node16"><a xlink:href="wld__radio_8c.html#aa7960d24c6b72d16c9d8ff9a94fd840d" target="_top" xlink:title=" ">
<polygon fill="white" stroke="black" points="134,-133.5 134,-152.5 250,-152.5 250,-133.5 134,-133.5"/>
<text text-anchor="middle" x="192" y="-140.5" font-family="Helvetica,sans-Serif" font-size="10.00">wld_rad_from_name</text>
</a>
</g>
</g>
<!-- Node1&#45;&gt;Node16 -->
<g id="edge15" class="edge">
<title>Node1&#45;&gt;Node16</title>
<path fill="none" stroke="midnightblue" d="M98.13,-155.51C106.39,-154.4 115.1,-153.23 123.75,-152.06"/>
<polygon fill="midnightblue" stroke="midnightblue" points="124.4,-155.51 133.84,-150.7 123.46,-148.57 124.4,-155.51"/>
</g>
<!-- Node3 -->
<g id="node3" class="node">
<title>Node3</title>
<g id="a_node3"><a xlink:href="wld__autoCommitMgr_8c.html#a99a39f4add934b5c9bd259517a88ffad" target="_top" xlink:title=" ">
<polygon fill="white" stroke="black" points="287.5,-342.5 287.5,-361.5 448.5,-361.5 448.5,-342.5 287.5,-342.5"/>
<text text-anchor="middle" x="368" y="-349.5" font-family="Helvetica,sans-Serif" font-size="10.00">wld_autoCommitMgr_destroy</text>
</a>
</g>
</g>
<!-- Node2&#45;&gt;Node3 -->
<g id="edge2" class="edge">
<title>Node2&#45;&gt;Node3</title>
<path fill="none" stroke="midnightblue" d="M195.96,-190.66C204.78,-217.78 233.61,-295.11 286,-333 288.69,-334.95 291.55,-336.7 294.53,-338.27"/>
<polygon fill="midnightblue" stroke="midnightblue" points="293.22,-341.52 303.78,-342.48 296.13,-335.15 293.22,-341.52"/>
</g>
<!-- Node4 -->
<g id="node4" class="node">
<title>Node4</title>
<g id="a_node4"><a xlink:href="wld__chanmgt_8c.html#a8d7c7f9f54526cdebe54bf59c56362f9" target="_top" xlink:title=" ">
<polygon fill="white" stroke="black" points="305.5,-304.5 305.5,-323.5 430.5,-323.5 430.5,-304.5 305.5,-304.5"/>
<text text-anchor="middle" x="368" y="-311.5" font-family="Helvetica,sans-Serif" font-size="10.00">wld_chanmgt_cleanup</text>
</a>
</g>
</g>
<!-- Node2&#45;&gt;Node4 -->
<g id="edge3" class="edge">
<title>Node2&#45;&gt;Node4</title>
<path fill="none" stroke="midnightblue" d="M198,-190.76C209.96,-213.03 242.46,-267.8 286,-295 289.42,-297.13 293.05,-299.03 296.81,-300.71"/>
<polygon fill="midnightblue" stroke="midnightblue" points="295.79,-304.07 306.38,-304.47 298.35,-297.56 295.79,-304.07"/>
</g>
<!-- Node5 -->
<g id="node5" class="node">
<title>Node5</title>
<g id="a_node5"><a xlink:href="wld__extMod_8c.html#aa2ca70b5b598c205d60ab831640bbc33" target="_top" xlink:title="clean up the extModDataList for a given core object. This will call the delete handlers for all activ...">
<polygon fill="white" stroke="black" points="288,-266.5 288,-285.5 448,-285.5 448,-266.5 288,-266.5"/>
<text text-anchor="middle" x="368" y="-273.5" font-family="Helvetica,sans-Serif" font-size="10.00">wld_extMod_cleanupDataList</text>
</a>
</g>
</g>
<!-- Node2&#45;&gt;Node5 -->
<g id="edge4" class="edge">
<title>Node2&#45;&gt;Node5</title>
<path fill="none" stroke="midnightblue" d="M201.76,-190.57C217.16,-206.81 250.84,-239.68 286,-257 290.86,-259.39 296.03,-261.49 301.32,-263.34"/>
<polygon fill="midnightblue" stroke="midnightblue" points="300.34,-266.7 310.93,-266.38 302.46,-260.02 300.34,-266.7"/>
</g>
<!-- Node6 -->
<g id="node6" class="node">
<title>Node6</title>
<g id="a_node6"><a xlink:href="wld__rad__caps_8c.html#a3746d48346230aedaa939a3851411183" target="_top" xlink:title=" ">
<polygon fill="white" stroke="black" points="293.5,-228.5 293.5,-247.5 442.5,-247.5 442.5,-228.5 293.5,-228.5"/>
<text text-anchor="middle" x="368" y="-235.5" font-family="Helvetica,sans-Serif" font-size="10.00">wld_rad_clearSuppDrvCaps</text>
</a>
</g>
</g>
<!-- Node2&#45;&gt;Node6 -->
<g id="edge5" class="edge">
<title>Node2&#45;&gt;Node6</title>
<path fill="none" stroke="midnightblue" d="M213.7,-190.56C232.33,-198.89 260.58,-210.88 286,-219 294.01,-221.56 302.57,-223.94 311.01,-226.08"/>
<polygon fill="midnightblue" stroke="midnightblue" points="310.27,-229.51 320.82,-228.49 311.94,-222.71 310.27,-229.51"/>
</g>
<!-- Node7 -->
<g id="node7" class="node">
<title>Node7</title>
<g id="a_node7"><a xlink:href="wld__radio_8c.html#a03089b86ce2b3573ee098c9434b60bce" target="_top" xlink:title=" ">
<polygon fill="white" stroke="black" points="289.5,-190.5 289.5,-209.5 446.5,-209.5 446.5,-190.5 289.5,-190.5"/>
<text text-anchor="middle" x="368" y="-197.5" font-family="Helvetica,sans-Serif" font-size="10.00">wld_rad_triggerChangeEvent</text>
</a>
</g>
</g>
<!-- Node2&#45;&gt;Node7 -->
<g id="edge6" class="edge">
<title>Node2&#45;&gt;Node7</title>
<path fill="none" stroke="midnightblue" d="M249.01,-187.12C258.62,-188.17 268.82,-189.28 279.03,-190.39"/>
<polygon fill="midnightblue" stroke="midnightblue" points="278.9,-193.9 289.22,-191.51 279.66,-186.94 278.9,-193.9"/>
</g>
<!-- Node9 -->
<g id="node9" class="node">
<title>Node9</title>
<g id="a_node9"><a xlink:href="wld__rad__stamon_8c.html#afa47a1bb2714393a6b2f7a831911a98b" target="_top" xlink:title=" ">
<polygon fill="white" stroke="black" points="301,-152.5 301,-171.5 435,-171.5 435,-152.5 301,-152.5"/>
<text text-anchor="middle" x="368" y="-159.5" font-family="Helvetica,sans-Serif" font-size="10.00">wld_radStaMon_destroy</text>
</a>
</g>
</g>
<!-- Node2&#45;&gt;Node9 -->
<g id="edge8" class="edge">
<title>Node2&#45;&gt;Node9</title>
<path fill="none" stroke="midnightblue" d="M249.01,-174.88C262.28,-173.43 276.66,-171.86 290.66,-170.34"/>
<polygon fill="midnightblue" stroke="midnightblue" points="291.21,-173.8 300.77,-169.23 290.45,-166.84 291.21,-173.8"/>
</g>
<!-- Node11 -->
<g id="node11" class="node">
<title>Node11</title>
<g id="a_node11"><a xlink:href="wld__rad__scan_8c.html#a194f47a8606d3bd82e8cc4f08ccf25bb" target="_top" xlink:title=" ">
<polygon fill="white" stroke="black" points="286,-114.5 286,-133.5 450,-133.5 450,-114.5 286,-114.5"/>
<text text-anchor="middle" x="368" y="-121.5" font-family="Helvetica,sans-Serif" font-size="10.00">wld_scan_cleanupScanResults</text>
</a>
</g>
</g>
<!-- Node2&#45;&gt;Node11 -->
<g id="edge10" class="edge">
<title>Node2&#45;&gt;Node11</title>
<path fill="none" stroke="midnightblue" d="M224.7,-171.46C233.04,-168.67 241.94,-165.44 250,-162 266.64,-154.89 269.06,-149.34 286,-143 292.79,-140.46 300.03,-138.19 307.28,-136.17"/>
<polygon fill="midnightblue" stroke="midnightblue" points="308.36,-139.51 317.14,-133.58 306.58,-132.74 308.36,-139.51"/>
</g>
<!-- Node13 -->
<g id="node13" class="node">
<title>Node13</title>
<g id="a_node13"><a xlink:href="wld__radio_8h.html#aad96942514444774702d14cc1d635255" target="_top" xlink:title=" ">
<polygon fill="white" stroke="black" points="316,-76.5 316,-95.5 420,-95.5 420,-76.5 316,-76.5"/>
<text text-anchor="middle" x="368" y="-83.5" font-family="Helvetica,sans-Serif" font-size="10.00">wld_scan_destroy</text>
</a>
</g>
</g>
<!-- Node2&#45;&gt;Node13 -->
<g id="edge12" class="edge">
<title>Node2&#45;&gt;Node13</title>
<path fill="none" stroke="midnightblue" d="M233.41,-171.43C239.33,-168.95 245.07,-165.86 250,-162 273.59,-143.52 261.6,-122.38 286,-105 291.99,-100.74 298.79,-97.42 305.85,-94.84"/>
<polygon fill="midnightblue" stroke="midnightblue" points="307.12,-98.11 315.59,-91.75 305,-91.43 307.12,-98.11"/>
</g>
<!-- Node14 -->
<g id="node14" class="node">
<title>Node14</title>
<g id="a_node14"><a xlink:href="wld__sensing_8c.html#a21f4d2b4c0975b6cd4389ac842326231" target="_top" xlink:title=" ">
<polygon fill="white" stroke="black" points="308,-38.5 308,-57.5 428,-57.5 428,-38.5 308,-38.5"/>
<text text-anchor="middle" x="368" y="-45.5" font-family="Helvetica,sans-Serif" font-size="10.00">wld_sensing_cleanup</text>
</a>
</g>
</g>
<!-- Node2&#45;&gt;Node14 -->
<g id="edge13" class="edge">
<title>Node2&#45;&gt;Node14</title>
<path fill="none" stroke="midnightblue" d="M235.87,-171.47C241.05,-169 245.94,-165.9 250,-162 282.57,-130.73 252.04,-96.76 286,-67 289.74,-63.72 293.94,-60.98 298.41,-58.69"/>
<polygon fill="midnightblue" stroke="midnightblue" points="300.1,-61.78 307.9,-54.61 297.33,-55.35 300.1,-61.78"/>
</g>
<!-- Node15 -->
<g id="node15" class="node">
<title>Node15</title>
<g id="a_node15"><a xlink:href="wld__rad__scan_8c.html#a6dc702409e9903f7530a9b4e6be50614" target="_top" xlink:title=" ">
<polygon fill="white" stroke="black" points="286,-0.5 286,-19.5 450,-19.5 450,-0.5 286,-0.5"/>
<text text-anchor="middle" x="368" y="-7.5" font-family="Helvetica,sans-Serif" font-size="10.00">wld_spectrum_cleanupResults</text>
</a>
</g>
</g>
<!-- Node2&#45;&gt;Node15 -->
<g id="edge14" class="edge">
<title>Node2&#45;&gt;Node15</title>
<path fill="none" stroke="midnightblue" d="M237.09,-171.4C241.89,-168.95 246.35,-165.87 250,-162 292.04,-117.47 241.97,-71.56 286,-29 287.48,-27.57 289.05,-26.24 290.68,-25"/>
<polygon fill="midnightblue" stroke="midnightblue" points="292.77,-27.83 299.41,-19.57 289.07,-21.88 292.77,-27.83"/>
</g>
<!-- Node8 -->
<g id="node8" class="node">
<title>Node8</title>
<g id="a_node8"><a xlink:href="wld__eventing_8c.html#aa79c0a7f8698dee12cd21e53ad8a3bf5" target="_top" xlink:title=" ">
<polygon fill="white" stroke="black" points="502,-190.5 502,-209.5 652,-209.5 652,-190.5 502,-190.5"/>
<text text-anchor="middle" x="577" y="-197.5" font-family="Helvetica,sans-Serif" font-size="10.00">wld_event_trigger_callback</text>
</a>
</g>
</g>
<!-- Node7&#45;&gt;Node8 -->
<g id="edge7" class="edge">
<title>Node7&#45;&gt;Node8</title>
<path fill="none" stroke="midnightblue" d="M446.67,-200C461.3,-200 476.67,-200 491.5,-200"/>
<polygon fill="midnightblue" stroke="midnightblue" points="491.67,-203.5 501.67,-200 491.67,-196.5 491.67,-203.5"/>
</g>
<!-- Node10 -->
<g id="node10" class="node">
<title>Node10</title>
<g id="a_node10"><a xlink:href="wld__monitor_8c.html#abedac9e495fba36decd9de9e4da5b4bc" target="_top" xlink:title=" ">
<polygon fill="white" stroke="black" points="515,-152.5 515,-171.5 639,-171.5 639,-152.5 515,-152.5"/>
<text text-anchor="middle" x="577" y="-159.5" font-family="Helvetica,sans-Serif" font-size="10.00">wld_mon_destroyMon</text>
</a>
</g>
</g>
<!-- Node9&#45;&gt;Node10 -->
<g id="edge9" class="edge">
<title>Node9&#45;&gt;Node10</title>
<path fill="none" stroke="midnightblue" d="M435.07,-162C457.23,-162 482.04,-162 504.59,-162"/>
<polygon fill="midnightblue" stroke="midnightblue" points="504.78,-165.5 514.78,-162 504.78,-158.5 504.78,-165.5"/>
</g>
<!-- Node12 -->
<g id="node12" class="node">
<title>Node12</title>
<g id="a_node12"><a xlink:href="wld__rad__scan_8c.html#a4d88dcf7b64e163cecafdc8d6f5341d6" target="_top" xlink:title=" ">
<polygon fill="white" stroke="black" points="486,-114.5 486,-133.5 668,-133.5 668,-114.5 486,-114.5"/>
<text text-anchor="middle" x="577" y="-121.5" font-family="Helvetica,sans-Serif" font-size="10.00">wld_scan_cleanupScanResultSSID</text>
</a>
</g>
</g>
<!-- Node11&#45;&gt;Node12 -->
<g id="edge11" class="edge">
<title>Node11&#45;&gt;Node12</title>
<path fill="none" stroke="midnightblue" d="M450.22,-124C458.6,-124 467.19,-124 475.75,-124"/>
<polygon fill="midnightblue" stroke="midnightblue" points="475.77,-127.5 485.77,-124 475.77,-120.5 475.77,-127.5"/>
</g>
</g>
</svg>
