<?xml version="1.0" encoding="UTF-8" standalone="no"?>
<!DOCTYPE svg PUBLIC "-//W3C//DTD SVG 1.1//EN"
 "http://www.w3.org/Graphics/SVG/1.1/DTD/svg11.dtd">
<!-- Generated by graphviz version 2.43.0 (0)
 -->
<!-- Title: wld_nl80211_parseChanSpec Pages: 1 -->
<svg width="375pt" height="66pt"
 viewBox="0.00 0.00 375.00 66.00" xmlns="http://www.w3.org/2000/svg" xmlns:xlink="http://www.w3.org/1999/xlink">
<g id="graph0" class="graph" transform="scale(1 1) rotate(0) translate(4 62)">
<title>wld_nl80211_parseChanSpec</title>
<polygon fill="white" stroke="transparent" points="-4,4 -4,-62 371,-62 371,4 -4,4"/>
<!-- Node1 -->
<g id="node1" class="node">
<title>Node1</title>
<g id="a_node1"><a xlink:title=" ">
<polygon fill="#bfbfbf" stroke="black" points="209,-19.5 209,-38.5 367,-38.5 367,-19.5 209,-19.5"/>
<text text-anchor="middle" x="288" y="-26.5" font-family="Helvetica,sans-Serif" font-size="10.00">wld_nl80211_parseChanSpec</text>
</a>
</g>
</g>
<!-- Node2 -->
<g id="node2" class="node">
<title>Node2</title>
<g id="a_node2"><a xlink:href="wld__nl80211__parser_8c.html#a6258a68b7b0e3f8faa0a18c359f18718" target="_top" xlink:title=" ">
<polygon fill="white" stroke="black" points="0,-38.5 0,-57.5 173,-57.5 173,-38.5 0,-38.5"/>
<text text-anchor="middle" x="86.5" y="-45.5" font-family="Helvetica,sans-Serif" font-size="10.00">wld_nl80211_parseInterfaceInfo</text>
</a>
</g>
</g>
<!-- Node1&#45;&gt;Node2 -->
<g id="edge1" class="edge">
<title>Node1&#45;&gt;Node2</title>
<path fill="none" stroke="midnightblue" d="M198.51,-37.43C190.08,-38.23 181.53,-39.04 173.13,-39.84"/>
<polygon fill="midnightblue" stroke="midnightblue" points="199.1,-40.89 208.72,-36.45 198.44,-33.92 199.1,-40.89"/>
</g>
<!-- Node3 -->
<g id="node3" class="node">
<title>Node3</title>
<g id="a_node3"><a xlink:href="wld__nl80211__parser_8c.html#ab7d2a06b216ad0ba4383a99e21cda1c7" target="_top" xlink:title=" ">
<polygon fill="white" stroke="black" points="7.5,-0.5 7.5,-19.5 165.5,-19.5 165.5,-0.5 7.5,-0.5"/>
<text text-anchor="middle" x="86.5" y="-7.5" font-family="Helvetica,sans-Serif" font-size="10.00">wld_nl80211_parseRadarInfo</text>
</a>
</g>
</g>
<!-- Node1&#45;&gt;Node3 -->
<g id="edge2" class="edge">
<title>Node1&#45;&gt;Node3</title>
<path fill="none" stroke="midnightblue" d="M198.66,-20.59C187.63,-19.54 176.41,-18.47 165.55,-17.43"/>
<polygon fill="midnightblue" stroke="midnightblue" points="198.44,-24.08 208.72,-21.55 199.1,-17.11 198.44,-24.08"/>
</g>
</g>
</svg>
