<?xml version="1.0" encoding="UTF-8" standalone="no"?>
<!DOCTYPE svg PUBLIC "-//W3C//DTD SVG 1.1//EN"
 "http://www.w3.org/Graphics/SVG/1.1/DTD/svg11.dtd">
<!-- Generated by graphviz version 2.43.0 (0)
 -->
<!-- Title: wld_mld_isLinkEnabled Pages: 1 -->
<svg width="722pt" height="165pt"
 viewBox="0.00 0.00 722.00 164.50" xmlns="http://www.w3.org/2000/svg" xmlns:xlink="http://www.w3.org/1999/xlink">
<g id="graph0" class="graph" transform="scale(1 1) rotate(0) translate(4 160.5)">
<title>wld_mld_isLinkEnabled</title>
<polygon fill="white" stroke="transparent" points="-4,4 -4,-160.5 718,-160.5 718,4 -4,4"/>
<!-- Node1 -->
<g id="node1" class="node">
<title>Node1</title>
<g id="a_node1"><a xlink:title=" ">
<polygon fill="#bfbfbf" stroke="black" points="583,-60.5 583,-79.5 714,-79.5 714,-60.5 583,-60.5"/>
<text text-anchor="middle" x="648.5" y="-67.5" font-family="Helvetica,sans-Serif" font-size="10.00">wld_mld_isLinkEnabled</text>
</a>
</g>
</g>
<!-- Node2 -->
<g id="node2" class="node">
<title>Node2</title>
<g id="a_node2"><a xlink:href="wld__mld_8c.html#a3e411b7122cc7dedecdd658537d87520" target="_top" xlink:title=" ">
<polygon fill="white" stroke="black" points="375,-126 375,-156 547,-156 547,-126 375,-126"/>
<text text-anchor="start" x="383" y="-144" font-family="Helvetica,sans-Serif" font-size="10.00">wld_mld_checkUsableLinkBasic</text>
<text text-anchor="middle" x="461" y="-133" font-family="Helvetica,sans-Serif" font-size="10.00">Conditions</text>
</a>
</g>
</g>
<!-- Node1&#45;&gt;Node2 -->
<g id="edge1" class="edge">
<title>Node1&#45;&gt;Node2</title>
<path fill="none" stroke="midnightblue" d="M620.26,-84.21C600.33,-94.24 572.44,-107.53 547,-117 538.38,-120.21 529.13,-123.23 520.02,-125.98"/>
<polygon fill="midnightblue" stroke="midnightblue" points="622.04,-87.23 629.36,-79.58 618.86,-81 622.04,-87.23"/>
</g>
<!-- Node5 -->
<g id="node5" class="node">
<title>Node5</title>
<g id="a_node5"><a xlink:href="wld__mld_8c.html#a49ce1e8efb2b279b9f9914de31a9ad8e" target="_top" xlink:title=" ">
<polygon fill="white" stroke="black" points="382,-77 382,-107 540,-107 540,-77 382,-77"/>
<text text-anchor="start" x="390" y="-95" font-family="Helvetica,sans-Serif" font-size="10.00">wld_mld_countNeighEnabled</text>
<text text-anchor="middle" x="461" y="-84" font-family="Helvetica,sans-Serif" font-size="10.00">Links</text>
</a>
</g>
</g>
<!-- Node1&#45;&gt;Node5 -->
<g id="edge4" class="edge">
<title>Node1&#45;&gt;Node5</title>
<path fill="none" stroke="midnightblue" d="M572.71,-78.87C561.98,-80.14 550.91,-81.46 540.11,-82.74"/>
<polygon fill="midnightblue" stroke="midnightblue" points="573.36,-82.32 582.88,-77.66 572.54,-75.37 573.36,-82.32"/>
</g>
<!-- Node6 -->
<g id="node6" class="node">
<title>Node6</title>
<g id="a_node6"><a xlink:href="wld__mld_8c.html#ad4a045e2125e6b01860bf5db788252ca" target="_top" xlink:title=" ">
<polygon fill="white" stroke="black" points="381.5,-38.5 381.5,-57.5 540.5,-57.5 540.5,-38.5 381.5,-38.5"/>
<text text-anchor="middle" x="461" y="-45.5" font-family="Helvetica,sans-Serif" font-size="10.00">wld_mld_saveLinkConfigured</text>
</a>
</g>
</g>
<!-- Node1&#45;&gt;Node6 -->
<g id="edge5" class="edge">
<title>Node1&#45;&gt;Node6</title>
<path fill="none" stroke="midnightblue" d="M572.87,-61.15C562.3,-59.9 551.4,-58.6 540.76,-57.34"/>
<polygon fill="midnightblue" stroke="midnightblue" points="572.54,-64.63 582.88,-62.34 573.36,-57.68 572.54,-64.63"/>
</g>
<!-- Node8 -->
<g id="node8" class="node">
<title>Node8</title>
<g id="a_node8"><a xlink:href="wld__mld_8c.html#ab3c276e4453e34f8336cd6f179e13a92" target="_top" xlink:title=" ">
<polygon fill="white" stroke="black" points="392.5,-0.5 392.5,-19.5 529.5,-19.5 529.5,-0.5 392.5,-0.5"/>
<text text-anchor="middle" x="461" y="-7.5" font-family="Helvetica,sans-Serif" font-size="10.00">wld_mld_setPrimaryLink</text>
</a>
</g>
</g>
<!-- Node1&#45;&gt;Node8 -->
<g id="edge7" class="edge">
<title>Node1&#45;&gt;Node8</title>
<path fill="none" stroke="midnightblue" d="M617.71,-56.31C597.96,-47.62 571.31,-36.62 547,-29 535.6,-25.43 523.14,-22.25 511.36,-19.57"/>
<polygon fill="midnightblue" stroke="midnightblue" points="616.52,-59.61 627.08,-60.49 619.38,-53.22 616.52,-59.61"/>
</g>
<!-- Node3 -->
<g id="node3" class="node">
<title>Node3</title>
<g id="a_node3"><a xlink:href="wld__mld_8c.html#a27c5ab0585d4132ca7ce424f2330249d" target="_top" xlink:title=" ">
<polygon fill="white" stroke="black" points="201,-131.5 201,-150.5 326,-150.5 326,-131.5 201,-131.5"/>
<text text-anchor="middle" x="263.5" y="-138.5" font-family="Helvetica,sans-Serif" font-size="10.00">wld_mld_isLinkUsable</text>
</a>
</g>
</g>
<!-- Node2&#45;&gt;Node3 -->
<g id="edge2" class="edge">
<title>Node2&#45;&gt;Node3</title>
<path fill="none" stroke="midnightblue" d="M364.81,-141C351.68,-141 338.48,-141 326.18,-141"/>
<polygon fill="midnightblue" stroke="midnightblue" points="364.82,-144.5 374.82,-141 364.82,-137.5 364.82,-144.5"/>
</g>
<!-- Node4 -->
<g id="node4" class="node">
<title>Node4</title>
<g id="a_node4"><a xlink:href="wld__mld_8c.html#a3ecf5dbb3f68d7f3c19b3d87d92420e2" target="_top" xlink:title=" ">
<polygon fill="white" stroke="black" points="0,-126 0,-156 152,-156 152,-126 0,-126"/>
<text text-anchor="start" x="8" y="-144" font-family="Helvetica,sans-Serif" font-size="10.00">wld_mld_countNeighUsable</text>
<text text-anchor="middle" x="76" y="-133" font-family="Helvetica,sans-Serif" font-size="10.00">Links</text>
</a>
</g>
</g>
<!-- Node3&#45;&gt;Node4 -->
<g id="edge3" class="edge">
<title>Node3&#45;&gt;Node4</title>
<path fill="none" stroke="midnightblue" d="M190.95,-141C178.26,-141 165.02,-141 152.23,-141"/>
<polygon fill="midnightblue" stroke="midnightblue" points="190.99,-144.5 200.99,-141 190.99,-137.5 190.99,-144.5"/>
</g>
<!-- Node7 -->
<g id="node7" class="node">
<title>Node7</title>
<g id="a_node7"><a xlink:href="wld__mld_8c.html#af94354884b54cbf921c04c84c756b10b" target="_top" xlink:title=" ">
<polygon fill="white" stroke="black" points="188,-38.5 188,-57.5 339,-57.5 339,-38.5 188,-38.5"/>
<text text-anchor="middle" x="263.5" y="-45.5" font-family="Helvetica,sans-Serif" font-size="10.00">wld_mld_setLinkConfigured</text>
</a>
</g>
</g>
<!-- Node6&#45;&gt;Node7 -->
<g id="edge6" class="edge">
<title>Node6&#45;&gt;Node7</title>
<path fill="none" stroke="midnightblue" d="M371.15,-48C360.47,-48 349.65,-48 339.21,-48"/>
<polygon fill="midnightblue" stroke="midnightblue" points="371.33,-51.5 381.33,-48 371.33,-44.5 371.33,-51.5"/>
</g>
</g>
</svg>
