<?xml version="1.0" encoding="UTF-8" standalone="no"?>
<!DOCTYPE svg PUBLIC "-//W3C//DTD SVG 1.1//EN"
 "http://www.w3.org/Graphics/SVG/1.1/DTD/svg11.dtd">
<!-- Generated by graphviz version 2.43.0 (0)
 -->
<!-- Title: wld_dmn_stopDeamon Pages: 1 -->
<svg width="996pt" height="104pt"
 viewBox="0.00 0.00 996.00 104.00" xmlns="http://www.w3.org/2000/svg" xmlns:xlink="http://www.w3.org/1999/xlink">
<g id="graph0" class="graph" transform="scale(1 1) rotate(0) translate(4 100)">
<title>wld_dmn_stopDeamon</title>
<polygon fill="white" stroke="transparent" points="-4,4 -4,-100 992,-100 992,4 -4,4"/>
<!-- Node1 -->
<g id="node1" class="node">
<title>Node1</title>
<g id="a_node1"><a xlink:title=" ">
<polygon fill="#bfbfbf" stroke="black" points="860,-19.5 860,-38.5 988,-38.5 988,-19.5 860,-19.5"/>
<text text-anchor="middle" x="924" y="-26.5" font-family="Helvetica,sans-Serif" font-size="10.00">wld_dmn_stopDeamon</text>
</a>
</g>
</g>
<!-- Node2 -->
<g id="node2" class="node">
<title>Node2</title>
<g id="a_node2"><a xlink:href="wld__daemon_8c.html#a4075ee8de9e9daa8039d0f758d20d655" target="_top" xlink:title=" ">
<polygon fill="white" stroke="black" points="678,-38.5 678,-57.5 824,-57.5 824,-38.5 678,-38.5"/>
<text text-anchor="middle" x="751" y="-45.5" font-family="Helvetica,sans-Serif" font-size="10.00">wld_dmn_cleanupDaemon</text>
</a>
</g>
</g>
<!-- Node1&#45;&gt;Node2 -->
<g id="edge1" class="edge">
<title>Node1&#45;&gt;Node2</title>
<path fill="none" stroke="midnightblue" d="M849.62,-37.15C841.18,-38.09 832.58,-39.05 824.16,-39.98"/>
<polygon fill="midnightblue" stroke="midnightblue" points="850.26,-40.6 859.81,-36.02 849.49,-33.65 850.26,-40.6"/>
</g>
<!-- Node10 -->
<g id="node10" class="node">
<title>Node10</title>
<g id="a_node10"><a xlink:href="wld__secDmn_8c.html#a161897b21440ea0885b570829da259fc" target="_top" xlink:title=" ">
<polygon fill="white" stroke="black" points="698.5,-0.5 698.5,-19.5 803.5,-19.5 803.5,-0.5 698.5,-0.5"/>
<text text-anchor="middle" x="751" y="-7.5" font-family="Helvetica,sans-Serif" font-size="10.00">wld_secDmn_stop</text>
</a>
</g>
</g>
<!-- Node1&#45;&gt;Node10 -->
<g id="edge9" class="edge">
<title>Node1&#45;&gt;Node10</title>
<path fill="none" stroke="midnightblue" d="M849.74,-20.86C834.26,-19.14 818.23,-17.36 803.75,-15.75"/>
<polygon fill="midnightblue" stroke="midnightblue" points="849.49,-24.35 859.81,-21.98 850.26,-17.4 849.49,-24.35"/>
</g>
<!-- Node3 -->
<g id="node3" class="node">
<title>Node3</title>
<g id="a_node3"><a xlink:href="wld__daemon_8c.html#adc1404b6fec8fdf62a05025d82440f64" target="_top" xlink:title=" ">
<polygon fill="white" stroke="black" points="498,-76.5 498,-95.5 636,-95.5 636,-76.5 498,-76.5"/>
<text text-anchor="middle" x="567" y="-83.5" font-family="Helvetica,sans-Serif" font-size="10.00">wld_dmn_createDeamon</text>
</a>
</g>
</g>
<!-- Node2&#45;&gt;Node3 -->
<g id="edge2" class="edge">
<title>Node2&#45;&gt;Node3</title>
<path fill="none" stroke="midnightblue" d="M694.05,-59.68C668.24,-65.07 637.99,-71.39 613.6,-76.48"/>
<polygon fill="midnightblue" stroke="midnightblue" points="695,-63.06 704.07,-57.59 693.57,-56.21 695,-63.06"/>
</g>
<!-- Node7 -->
<g id="node7" class="node">
<title>Node7</title>
<g id="a_node7"><a xlink:href="wld__daemon_8c.html#a17603235fe716db48dd549fbb8ddf8c0" target="_top" xlink:title=" ">
<polygon fill="white" stroke="black" points="495,-38.5 495,-57.5 639,-57.5 639,-38.5 495,-38.5"/>
<text text-anchor="middle" x="567" y="-45.5" font-family="Helvetica,sans-Serif" font-size="10.00">wld_dmn_destroyDeamon</text>
</a>
</g>
</g>
<!-- Node2&#45;&gt;Node7 -->
<g id="edge6" class="edge">
<title>Node2&#45;&gt;Node7</title>
<path fill="none" stroke="midnightblue" d="M667.6,-48C658.12,-48 648.52,-48 639.21,-48"/>
<polygon fill="midnightblue" stroke="midnightblue" points="667.81,-51.5 677.81,-48 667.81,-44.5 667.81,-51.5"/>
</g>
<!-- Node4 -->
<g id="node4" class="node">
<title>Node4</title>
<g id="a_node4"><a xlink:href="wld__secDmn_8c.html#af0544dc7e9cc28cc7590bcbb6f6ad4ce" target="_top" xlink:title=" ">
<polygon fill="white" stroke="black" points="345,-76.5 345,-95.5 445,-95.5 445,-76.5 345,-76.5"/>
<text text-anchor="middle" x="395" y="-83.5" font-family="Helvetica,sans-Serif" font-size="10.00">wld_secDmn_init</text>
</a>
</g>
</g>
<!-- Node3&#45;&gt;Node4 -->
<g id="edge3" class="edge">
<title>Node3&#45;&gt;Node4</title>
<path fill="none" stroke="midnightblue" d="M487.82,-86C473.27,-86 458.45,-86 445.09,-86"/>
<polygon fill="midnightblue" stroke="midnightblue" points="487.83,-89.5 497.83,-86 487.83,-82.5 487.83,-89.5"/>
</g>
<!-- Node5 -->
<g id="node5" class="node">
<title>Node5</title>
<g id="a_node5"><a xlink:href="wifiGen__hapd_8c.html#a3e280a7de79155551d8dcf12b517bdc3" target="_top" xlink:title=" ">
<polygon fill="white" stroke="black" points="183,-76.5 183,-95.5 287,-95.5 287,-76.5 183,-76.5"/>
<text text-anchor="middle" x="235" y="-83.5" font-family="Helvetica,sans-Serif" font-size="10.00">wifiGen_hapd_init</text>
</a>
</g>
</g>
<!-- Node4&#45;&gt;Node5 -->
<g id="edge4" class="edge">
<title>Node4&#45;&gt;Node5</title>
<path fill="none" stroke="midnightblue" d="M334.74,-86C319.04,-86 302.23,-86 287.01,-86"/>
<polygon fill="midnightblue" stroke="midnightblue" points="334.87,-89.5 344.87,-86 334.87,-82.5 334.87,-89.5"/>
</g>
<!-- Node6 -->
<g id="node6" class="node">
<title>Node6</title>
<g id="a_node6"><a xlink:href="wifiGen__rad_8c.html#a22779d44a0417c824f5a4d4024a0a0c0" target="_top" xlink:title=" ">
<polygon fill="white" stroke="black" points="0,-76.5 0,-95.5 136,-95.5 136,-76.5 0,-76.5"/>
<text text-anchor="middle" x="68" y="-83.5" font-family="Helvetica,sans-Serif" font-size="10.00">wifiGen_rad_createHook</text>
</a>
</g>
</g>
<!-- Node5&#45;&gt;Node6 -->
<g id="edge5" class="edge">
<title>Node5&#45;&gt;Node6</title>
<path fill="none" stroke="midnightblue" d="M172.45,-86C160.58,-86 148.09,-86 136.06,-86"/>
<polygon fill="midnightblue" stroke="midnightblue" points="172.7,-89.5 182.7,-86 172.7,-82.5 172.7,-89.5"/>
</g>
<!-- Node8 -->
<g id="node8" class="node">
<title>Node8</title>
<g id="a_node8"><a xlink:href="wld__secDmn_8c.html#a6bf723465724da6f8b5fa5b8ddddf66f" target="_top" xlink:title=" ">
<polygon fill="white" stroke="black" points="334,-38.5 334,-57.5 456,-57.5 456,-38.5 334,-38.5"/>
<text text-anchor="middle" x="395" y="-45.5" font-family="Helvetica,sans-Serif" font-size="10.00">wld_secDmn_cleanup</text>
</a>
</g>
</g>
<!-- Node7&#45;&gt;Node8 -->
<g id="edge7" class="edge">
<title>Node7&#45;&gt;Node8</title>
<path fill="none" stroke="midnightblue" d="M484.83,-48C475.13,-48 465.37,-48 456.05,-48"/>
<polygon fill="midnightblue" stroke="midnightblue" points="484.89,-51.5 494.89,-48 484.89,-44.5 484.89,-51.5"/>
</g>
<!-- Node9 -->
<g id="node9" class="node">
<title>Node9</title>
<g id="a_node9"><a xlink:href="wifiGen__hapd_8c.html#af643558a6f2cae8f916cc925a5654667" target="_top" xlink:title=" ">
<polygon fill="white" stroke="black" points="172,-38.5 172,-57.5 298,-57.5 298,-38.5 172,-38.5"/>
<text text-anchor="middle" x="235" y="-45.5" font-family="Helvetica,sans-Serif" font-size="10.00">wifiGen_hapd_cleanup</text>
</a>
</g>
</g>
<!-- Node8&#45;&gt;Node9 -->
<g id="edge8" class="edge">
<title>Node8&#45;&gt;Node9</title>
<path fill="none" stroke="midnightblue" d="M323.56,-48C315.08,-48 306.47,-48 298.11,-48"/>
<polygon fill="midnightblue" stroke="midnightblue" points="323.82,-51.5 333.82,-48 323.82,-44.5 323.82,-51.5"/>
</g>
<!-- Node11 -->
<g id="node11" class="node">
<title>Node11</title>
<g id="a_node11"><a xlink:href="wifiGen__hapd_8c.html#a75688dec0e4ad675142a71010b2b536a" target="_top" xlink:title=" ">
<polygon fill="white" stroke="black" points="492,-0.5 492,-19.5 642,-19.5 642,-0.5 492,-0.5"/>
<text text-anchor="middle" x="567" y="-7.5" font-family="Helvetica,sans-Serif" font-size="10.00">wifiGen_hapd_stopDaemon</text>
</a>
</g>
</g>
<!-- Node10&#45;&gt;Node11 -->
<g id="edge10" class="edge">
<title>Node10&#45;&gt;Node11</title>
<path fill="none" stroke="midnightblue" d="M688.29,-10C673.49,-10 657.52,-10 642.22,-10"/>
<polygon fill="midnightblue" stroke="midnightblue" points="688.33,-13.5 698.33,-10 688.33,-6.5 688.33,-13.5"/>
</g>
</g>
</svg>
