<?xml version="1.0" encoding="UTF-8" standalone="no"?>
<!DOCTYPE svg PUBLIC "-//W3C//DTD SVG 1.1//EN"
 "http://www.w3.org/Graphics/SVG/1.1/DTD/svg11.dtd">
<!-- Generated by graphviz version 2.43.0 (0)
 -->
<!-- Title: wld_wpaCtrl_sendCmdCheckResponse Pages: 1 -->
<svg width="903pt" height="102pt"
 viewBox="0.00 0.00 903.00 101.50" xmlns="http://www.w3.org/2000/svg" xmlns:xlink="http://www.w3.org/1999/xlink">
<g id="graph0" class="graph" transform="scale(1 1) rotate(0) translate(4 97.5)">
<title>wld_wpaCtrl_sendCmdCheckResponse</title>
<polygon fill="white" stroke="transparent" points="-4,4 -4,-97.5 899,-97.5 899,4 -4,4"/>
<!-- Node1 -->
<g id="node1" class="node">
<title>Node1</title>
<g id="a_node1"><a xlink:title="send synchronous command to wpa_ctrl server and check the received reply within default delay (1s)">
<polygon fill="#bfbfbf" stroke="black" points="0,-46.5 0,-76.5 158,-76.5 158,-46.5 0,-46.5"/>
<text text-anchor="start" x="8" y="-64.5" font-family="Helvetica,sans-Serif" font-size="10.00">wld_wpaCtrl_sendCmdCheck</text>
<text text-anchor="middle" x="79" y="-53.5" font-family="Helvetica,sans-Serif" font-size="10.00">Response</text>
</a>
</g>
</g>
<!-- Node2 -->
<g id="node2" class="node">
<title>Node2</title>
<g id="a_node2"><a xlink:href="wld__wpaCtrlConnection_8c.html#af7414d719a14459bfbf836e77f643aff" target="_top" xlink:title=" ">
<polygon fill="white" stroke="black" points="194,-46.5 194,-76.5 339,-76.5 339,-46.5 194,-46.5"/>
<text text-anchor="start" x="202" y="-64.5" font-family="Helvetica,sans-Serif" font-size="10.00">wld_wpaCtrlConnection</text>
<text text-anchor="middle" x="266.5" y="-53.5" font-family="Helvetica,sans-Serif" font-size="10.00">_sendCmdCheckResponse</text>
</a>
</g>
</g>
<!-- Node1&#45;&gt;Node2 -->
<g id="edge1" class="edge">
<title>Node1&#45;&gt;Node2</title>
<path fill="none" stroke="midnightblue" d="M158.13,-61.5C166.58,-61.5 175.19,-61.5 183.68,-61.5"/>
<polygon fill="midnightblue" stroke="midnightblue" points="183.96,-65 193.96,-61.5 183.95,-58 183.96,-65"/>
</g>
<!-- Node3 -->
<g id="node3" class="node">
<title>Node3</title>
<g id="a_node3"><a xlink:href="wld__wpaCtrlConnection_8c.html#a5ddba0537d0917bc518e9ef71b539f75" target="_top" xlink:title=" ">
<polygon fill="white" stroke="black" points="375,-46.5 375,-76.5 536,-76.5 536,-46.5 375,-46.5"/>
<text text-anchor="start" x="383" y="-64.5" font-family="Helvetica,sans-Serif" font-size="10.00">wld_wpaCtrlConnection</text>
<text text-anchor="middle" x="455.5" y="-53.5" font-family="Helvetica,sans-Serif" font-size="10.00">_sendCmdCheckResponseExt</text>
</a>
</g>
</g>
<!-- Node2&#45;&gt;Node3 -->
<g id="edge2" class="edge">
<title>Node2&#45;&gt;Node3</title>
<path fill="none" stroke="midnightblue" d="M339.26,-61.5C347.63,-61.5 356.24,-61.5 364.81,-61.5"/>
<polygon fill="midnightblue" stroke="midnightblue" points="364.83,-65 374.83,-61.5 364.83,-58 364.83,-65"/>
</g>
<!-- Node4 -->
<g id="node4" class="node">
<title>Node4</title>
<g id="a_node4"><a xlink:href="wld__wpaCtrlConnection_8c.html#ab5b29b7ce5f29ef5dfbe951e5b700428" target="_top" xlink:title=" ">
<polygon fill="white" stroke="black" points="572,-74 572,-93 728,-93 728,-74 572,-74"/>
<text text-anchor="middle" x="650" y="-81" font-family="Helvetica,sans-Serif" font-size="10.00">wld_wpaCtrl_getMaxMsgLen</text>
</a>
</g>
</g>
<!-- Node3&#45;&gt;Node4 -->
<g id="edge3" class="edge">
<title>Node3&#45;&gt;Node4</title>
<path fill="none" stroke="midnightblue" d="M536.19,-70.61C544.66,-71.58 553.31,-72.56 561.87,-73.54"/>
<polygon fill="midnightblue" stroke="midnightblue" points="561.52,-77.02 571.85,-74.68 562.31,-70.07 561.52,-77.02"/>
</g>
<!-- Node5 -->
<g id="node5" class="node">
<title>Node5</title>
<g id="a_node5"><a xlink:href="wld__wpaCtrlConnection_8c.html#ae8867992d243efdfa13e360b50730f88" target="_top" xlink:title=" ">
<polygon fill="white" stroke="black" points="584.5,-24.5 584.5,-54.5 715.5,-54.5 715.5,-24.5 584.5,-24.5"/>
<text text-anchor="start" x="592.5" y="-42.5" font-family="Helvetica,sans-Serif" font-size="10.00">wld_wpaCtrlConnection</text>
<text text-anchor="middle" x="650" y="-31.5" font-family="Helvetica,sans-Serif" font-size="10.00">_sendCmdSyncedExt</text>
</a>
</g>
</g>
<!-- Node3&#45;&gt;Node5 -->
<g id="edge4" class="edge">
<title>Node3&#45;&gt;Node5</title>
<path fill="none" stroke="midnightblue" d="M536.19,-52.39C548.71,-50.96 561.62,-49.49 574.04,-48.07"/>
<polygon fill="midnightblue" stroke="midnightblue" points="574.79,-51.5 584.33,-46.89 573.99,-44.55 574.79,-51.5"/>
</g>
<!-- Node6 -->
<g id="node6" class="node">
<title>Node6</title>
<g id="a_node6"><a xlink:href="wld__wpaCtrlConnection_8c.html#abfe3f8b17cf527b1e6fe85a564c8604b" target="_top" xlink:title=" ">
<polygon fill="white" stroke="black" points="764,-49.5 764,-79.5 895,-79.5 895,-49.5 764,-49.5"/>
<text text-anchor="start" x="772" y="-67.5" font-family="Helvetica,sans-Serif" font-size="10.00">wld_wpaCtrlConnection</text>
<text text-anchor="middle" x="829.5" y="-56.5" font-family="Helvetica,sans-Serif" font-size="10.00">_getConnSockName</text>
</a>
</g>
</g>
<!-- Node5&#45;&gt;Node6 -->
<g id="edge5" class="edge">
<title>Node5&#45;&gt;Node6</title>
<path fill="none" stroke="midnightblue" d="M715.58,-48.6C728.02,-50.35 741.14,-52.2 753.87,-53.99"/>
<polygon fill="midnightblue" stroke="midnightblue" points="753.57,-57.48 763.96,-55.41 754.55,-50.55 753.57,-57.48"/>
</g>
<!-- Node7 -->
<g id="node7" class="node">
<title>Node7</title>
<g id="a_node7"><a xlink:href="wld__wpaCtrlConnection_8c.html#aa82226c76dbbf306e509b7c6d3088277" target="_top" xlink:title=" ">
<polygon fill="white" stroke="black" points="764,-0.5 764,-30.5 895,-30.5 895,-0.5 764,-0.5"/>
<text text-anchor="start" x="772" y="-18.5" font-family="Helvetica,sans-Serif" font-size="10.00">wld_wpaCtrlConnection</text>
<text text-anchor="middle" x="829.5" y="-7.5" font-family="Helvetica,sans-Serif" font-size="10.00">_sendCmd</text>
</a>
</g>
</g>
<!-- Node5&#45;&gt;Node7 -->
<g id="edge6" class="edge">
<title>Node5&#45;&gt;Node7</title>
<path fill="none" stroke="midnightblue" d="M715.58,-30.77C728.02,-29.09 741.14,-27.31 753.87,-25.59"/>
<polygon fill="midnightblue" stroke="midnightblue" points="754.52,-29.03 763.96,-24.23 753.59,-22.1 754.52,-29.03"/>
</g>
</g>
</svg>
