<?xml version="1.0" encoding="UTF-8" standalone="no"?>
<!DOCTYPE svg PUBLIC "-//W3C//DTD SVG 1.1//EN"
 "http://www.w3.org/Graphics/SVG/1.1/DTD/svg11.dtd">
<!-- Generated by graphviz version 2.43.0 (0)
 -->
<!-- Title: wld_th_rad_sensing_delClient Pages: 1 -->
<svg width="469pt" height="39pt"
 viewBox="0.00 0.00 469.00 39.00" xmlns="http://www.w3.org/2000/svg" xmlns:xlink="http://www.w3.org/1999/xlink">
<g id="graph0" class="graph" transform="scale(1 1) rotate(0) translate(4 35)">
<title>wld_th_rad_sensing_delClient</title>
<polygon fill="white" stroke="transparent" points="-4,4 -4,-35 465,-35 465,4 -4,4"/>
<!-- Node1 -->
<g id="node1" class="node">
<title>Node1</title>
<g id="a_node1"><a xlink:title=" ">
<polygon fill="#bfbfbf" stroke="black" points="0,-0.5 0,-30.5 113,-30.5 113,-0.5 0,-0.5"/>
<text text-anchor="start" x="8" y="-18.5" font-family="Helvetica,sans-Serif" font-size="10.00">wld_th_rad_sensing</text>
<text text-anchor="middle" x="56.5" y="-7.5" font-family="Helvetica,sans-Serif" font-size="10.00">_delClient</text>
</a>
</g>
</g>
<!-- Node2 -->
<g id="node2" class="node">
<title>Node2</title>
<g id="a_node2"><a xlink:href="wld__th__sensing_8c.html#a414fdbcb9d295daf6cb7491c1d19cb8e" target="_top" xlink:title=" ">
<polygon fill="white" stroke="black" points="149,-6 149,-25 277,-25 277,-6 149,-6"/>
<text text-anchor="middle" x="213" y="-13" font-family="Helvetica,sans-Serif" font-size="10.00">sensingGetVendorData</text>
</a>
</g>
</g>
<!-- Node1&#45;&gt;Node2 -->
<g id="edge1" class="edge">
<title>Node1&#45;&gt;Node2</title>
<path fill="none" stroke="midnightblue" d="M113.28,-15.5C121.6,-15.5 130.29,-15.5 138.91,-15.5"/>
<polygon fill="midnightblue" stroke="midnightblue" points="138.96,-19 148.96,-15.5 138.96,-12 138.96,-19"/>
</g>
<!-- Node3 -->
<g id="node3" class="node">
<title>Node3</title>
<g id="a_node3"><a xlink:href="wld__th__radio_8c.html#a7d2f840e05e204658b07064a391465b6" target="_top" xlink:title=" ">
<polygon fill="white" stroke="black" points="313,-6 313,-25 461,-25 461,-6 313,-6"/>
<text text-anchor="middle" x="387" y="-13" font-family="Helvetica,sans-Serif" font-size="10.00">wld_th_rad_getVendorData</text>
</a>
</g>
</g>
<!-- Node2&#45;&gt;Node3 -->
<g id="edge2" class="edge">
<title>Node2&#45;&gt;Node3</title>
<path fill="none" stroke="midnightblue" d="M277.07,-15.5C285.41,-15.5 294.06,-15.5 302.67,-15.5"/>
<polygon fill="midnightblue" stroke="midnightblue" points="302.74,-19 312.74,-15.5 302.74,-12 302.74,-19"/>
</g>
</g>
</svg>
