<?xml version="1.0" encoding="UTF-8" standalone="no"?>
<!DOCTYPE svg PUBLIC "-//W3C//DTD SVG 1.1//EN"
 "http://www.w3.org/Graphics/SVG/1.1/DTD/svg11.dtd">
<!-- Generated by graphviz version 2.43.0 (0)
 -->
<!-- Title: src/Utils/wld_dmnMgt.c Pages: 1 -->
<svg width="5562pt" height="308pt"
 viewBox="0.00 0.00 5561.61 308.00" xmlns="http://www.w3.org/2000/svg" xmlns:xlink="http://www.w3.org/1999/xlink">
<g id="graph0" class="graph" transform="scale(1 1) rotate(0) translate(4 304)">
<title>src/Utils/wld_dmnMgt.c</title>
<polygon fill="white" stroke="transparent" points="-4,4 -4,-304 5557.61,-304 5557.61,4 -4,4"/>
<!-- Node1 -->
<g id="node1" class="node">
<title>Node1</title>
<g id="a_node1"><a xlink:title=" ">
<polygon fill="#bfbfbf" stroke="black" points="2540.61,-280.5 2540.61,-299.5 2671.61,-299.5 2671.61,-280.5 2540.61,-280.5"/>
<text text-anchor="middle" x="2606.11" y="-287.5" font-family="Helvetica,sans-Serif" font-size="10.00">src/Utils/wld_dmnMgt.c</text>
</a>
</g>
</g>
<!-- Node2 -->
<g id="node2" class="node">
<title>Node2</title>
<g id="a_node2"><a xlink:href="wld_8h.html" target="_top" xlink:title=" ">
<polygon fill="white" stroke="red" points="2584.61,-168.5 2584.61,-187.5 2627.61,-187.5 2627.61,-168.5 2584.61,-168.5"/>
<text text-anchor="middle" x="2606.11" y="-175.5" font-family="Helvetica,sans-Serif" font-size="10.00">wld.h</text>
</a>
</g>
</g>
<!-- Node1&#45;&gt;Node2 -->
<g id="edge1" class="edge">
<title>Node1&#45;&gt;Node2</title>
<path fill="none" stroke="midnightblue" d="M2606.11,-280.37C2606.11,-262.62 2606.11,-221.67 2606.11,-197.6"/>
<polygon fill="midnightblue" stroke="midnightblue" points="2609.61,-197.59 2606.11,-187.59 2602.61,-197.59 2609.61,-197.59"/>
</g>
<!-- Node44 -->
<g id="node42" class="node">
<title>Node44</title>
<g id="a_node42"><a xlink:href="wld__dmnMgt_8h.html" target="_top" xlink:title=" ">
<polygon fill="white" stroke="red" points="20.11,-112.5 20.11,-131.5 134.11,-131.5 134.11,-112.5 20.11,-112.5"/>
<text text-anchor="middle" x="77.11" y="-119.5" font-family="Helvetica,sans-Serif" font-size="10.00">Utils/wld_dmnMgt.h</text>
</a>
</g>
</g>
<!-- Node1&#45;&gt;Node44 -->
<g id="edge64" class="edge">
<title>Node1&#45;&gt;Node44</title>
<path fill="none" stroke="midnightblue" d="M2540.53,-286.23C2255.7,-273.89 1097.69,-220.62 150.11,-132 148.36,-131.84 146.59,-131.66 144.8,-131.49"/>
<polygon fill="midnightblue" stroke="midnightblue" points="144.77,-127.96 134.45,-130.39 144.03,-134.92 144.77,-127.96"/>
</g>
<!-- Node70 -->
<g id="node48" class="node">
<title>Node70</title>
<g id="a_node48"><a xlink:href="wld__secDmnGrp_8h.html" target="_top" xlink:title=" ">
<polygon fill="white" stroke="red" points="5448.61,-112.5 5448.61,-131.5 5553.61,-131.5 5553.61,-112.5 5448.61,-112.5"/>
<text text-anchor="middle" x="5501.11" y="-119.5" font-family="Helvetica,sans-Serif" font-size="10.00">wld_secDmnGrp.h</text>
</a>
</g>
</g>
<!-- Node1&#45;&gt;Node70 -->
<g id="edge65" class="edge">
<title>Node1&#45;&gt;Node70</title>
<path fill="none" stroke="midnightblue" d="M2671.82,-286.57C2980.95,-274.87 4321.28,-221.25 5417.11,-132 5423.88,-131.45 5430.96,-130.8 5438.01,-130.11"/>
<polygon fill="midnightblue" stroke="midnightblue" points="5438.67,-133.56 5448.27,-129.08 5437.97,-126.6 5438.67,-133.56"/>
</g>
<!-- Node75 -->
<g id="node49" class="node">
<title>Node75</title>
<g id="a_node49"><a xlink:href="wld__radio_8h.html" target="_top" xlink:title=" ">
<polygon fill="white" stroke="red" points="2634.61,-224.5 2634.61,-243.5 2707.61,-243.5 2707.61,-224.5 2634.61,-224.5"/>
<text text-anchor="middle" x="2671.11" y="-231.5" font-family="Helvetica,sans-Serif" font-size="10.00">wld_radio.h</text>
</a>
</g>
</g>
<!-- Node1&#45;&gt;Node75 -->
<g id="edge60" class="edge">
<title>Node1&#45;&gt;Node75</title>
<path fill="none" stroke="midnightblue" d="M2616.55,-280.32C2626.25,-272.26 2640.92,-260.08 2652.61,-250.37"/>
<polygon fill="midnightblue" stroke="midnightblue" points="2655.02,-252.92 2660.47,-243.83 2650.54,-247.53 2655.02,-252.92"/>
</g>
<!-- Node82 -->
<g id="node50" class="node">
<title>Node82</title>
<g id="a_node50"><a xlink:href="wld__util_8h.html" target="_top" xlink:title=" ">
<polygon fill="white" stroke="black" points="2514.11,-224.5 2514.11,-243.5 2578.11,-243.5 2578.11,-224.5 2514.11,-224.5"/>
<text text-anchor="middle" x="2546.11" y="-231.5" font-family="Helvetica,sans-Serif" font-size="10.00">wld_util.h</text>
</a>
</g>
</g>
<!-- Node1&#45;&gt;Node82 -->
<g id="edge62" class="edge">
<title>Node1&#45;&gt;Node82</title>
<path fill="none" stroke="midnightblue" d="M2596.47,-280.32C2587.6,-272.34 2574.23,-260.31 2563.5,-250.65"/>
<polygon fill="midnightblue" stroke="midnightblue" points="2565.7,-247.92 2555.92,-243.83 2561.01,-253.13 2565.7,-247.92"/>
</g>
<!-- Node3 -->
<g id="node3" class="node">
<title>Node3</title>
<g id="a_node3"><a xlink:title=" ">
<polygon fill="white" stroke="#bfbfbf" points="5345.11,-56.5 5345.11,-75.5 5407.11,-75.5 5407.11,-56.5 5345.11,-56.5"/>
<text text-anchor="middle" x="5376.11" y="-63.5" font-family="Helvetica,sans-Serif" font-size="10.00">stdbool.h</text>
</a>
</g>
</g>
<!-- Node2&#45;&gt;Node3 -->
<g id="edge2" class="edge">
<title>Node2&#45;&gt;Node3</title>
<path fill="none" stroke="midnightblue" d="M2627.98,-176.86C2887.83,-175.16 5375.3,-158.23 5401.11,-132 5414.15,-118.74 5402.49,-97.95 5391.11,-83.47"/>
<polygon fill="midnightblue" stroke="midnightblue" points="5393.75,-81.16 5384.63,-75.77 5388.39,-85.67 5393.75,-81.16"/>
</g>
<!-- Node4 -->
<g id="node4" class="node">
<title>Node4</title>
<g id="a_node4"><a xlink:title=" ">
<polygon fill="white" stroke="#bfbfbf" points="124.61,-0.5 124.61,-19.5 177.61,-19.5 177.61,-0.5 124.61,-0.5"/>
<text text-anchor="middle" x="151.11" y="-7.5" font-family="Helvetica,sans-Serif" font-size="10.00">stdint.h</text>
</a>
</g>
</g>
<!-- Node2&#45;&gt;Node4 -->
<g id="edge3" class="edge">
<title>Node2&#45;&gt;Node4</title>
<path fill="none" stroke="midnightblue" d="M2584.48,-177.05C2337.62,-177.53 58.9,-180.63 11.11,-132 -31.08,-89.08 63.45,-44.18 117.19,-23.18"/>
<polygon fill="midnightblue" stroke="midnightblue" points="118.62,-26.38 126.71,-19.54 116.12,-19.84 118.62,-26.38"/>
</g>
<!-- Node5 -->
<g id="node5" class="node">
<title>Node5</title>
<g id="a_node5"><a xlink:title=" ">
<polygon fill="white" stroke="#bfbfbf" points="64.11,-56.5 64.11,-75.5 174.11,-75.5 174.11,-56.5 64.11,-56.5"/>
<text text-anchor="middle" x="119.11" y="-63.5" font-family="Helvetica,sans-Serif" font-size="10.00">swl/swl_common.h</text>
</a>
</g>
</g>
<!-- Node2&#45;&gt;Node5 -->
<g id="edge4" class="edge">
<title>Node2&#45;&gt;Node5</title>
<path fill="none" stroke="midnightblue" d="M2584.58,-176.83C2347.95,-174.96 239.33,-157.57 181.11,-132 158.87,-122.24 140.75,-100.31 129.96,-84.62"/>
<polygon fill="midnightblue" stroke="midnightblue" points="132.62,-82.29 124.22,-75.83 126.76,-86.11 132.62,-82.29"/>
</g>
<!-- Node6 -->
<g id="node6" class="node">
<title>Node6</title>
<g id="a_node6"><a xlink:title=" ">
<polygon fill="white" stroke="#bfbfbf" points="569.11,-112.5 569.11,-131.5 705.11,-131.5 705.11,-112.5 569.11,-112.5"/>
<text text-anchor="middle" x="637.11" y="-119.5" font-family="Helvetica,sans-Serif" font-size="10.00">swla/swla_commonLib.h</text>
</a>
</g>
</g>
<!-- Node2&#45;&gt;Node6 -->
<g id="edge5" class="edge">
<title>Node2&#45;&gt;Node6</title>
<path fill="none" stroke="midnightblue" d="M2584.57,-176.76C2403.03,-174.73 1125.2,-159.6 715.61,-132.02"/>
<polygon fill="midnightblue" stroke="midnightblue" points="715.73,-128.52 705.51,-131.33 715.24,-135.51 715.73,-128.52"/>
</g>
<!-- Node7 -->
<g id="node7" class="node">
<title>Node7</title>
<g id="a_node7"><a xlink:title=" ">
<polygon fill="white" stroke="#bfbfbf" points="723.11,-112.5 723.11,-131.5 811.11,-131.5 811.11,-112.5 723.11,-112.5"/>
<text text-anchor="middle" x="767.11" y="-119.5" font-family="Helvetica,sans-Serif" font-size="10.00">swl/swl_uuid.h</text>
</a>
</g>
</g>
<!-- Node2&#45;&gt;Node7 -->
<g id="edge6" class="edge">
<title>Node2&#45;&gt;Node7</title>
<path fill="none" stroke="midnightblue" d="M2584.38,-176.88C2407.99,-175.85 1207.5,-167.65 821.37,-131.95"/>
<polygon fill="midnightblue" stroke="midnightblue" points="821.57,-128.45 811.29,-130.99 820.91,-135.42 821.57,-128.45"/>
</g>
<!-- Node8 -->
<g id="node8" class="node">
<title>Node8</title>
<g id="a_node8"><a xlink:title=" ">
<polygon fill="white" stroke="#bfbfbf" points="829.11,-112.5 829.11,-131.5 981.11,-131.5 981.11,-112.5 829.11,-112.5"/>
<text text-anchor="middle" x="905.11" y="-119.5" font-family="Helvetica,sans-Serif" font-size="10.00">swla/swla_radioStandards.h</text>
</a>
</g>
</g>
<!-- Node2&#45;&gt;Node8 -->
<g id="edge7" class="edge">
<title>Node2&#45;&gt;Node8</title>
<path fill="none" stroke="midnightblue" d="M2584.21,-177.03C2443.3,-177.1 1649.4,-175.49 991.69,-132.05"/>
<polygon fill="midnightblue" stroke="midnightblue" points="991.75,-128.55 981.54,-131.38 991.28,-135.53 991.75,-128.55"/>
</g>
<!-- Node9 -->
<g id="node9" class="node">
<title>Node9</title>
<g id="a_node9"><a xlink:title=" ">
<polygon fill="white" stroke="#bfbfbf" points="452.61,-0.5 452.61,-19.5 553.61,-19.5 553.61,-0.5 452.61,-0.5"/>
<text text-anchor="middle" x="503.11" y="-7.5" font-family="Helvetica,sans-Serif" font-size="10.00">swla/swla_time.h</text>
</a>
</g>
</g>
<!-- Node2&#45;&gt;Node9 -->
<g id="edge8" class="edge">
<title>Node2&#45;&gt;Node9</title>
<path fill="none" stroke="midnightblue" d="M2584.58,-176.86C2368.41,-175.39 596.21,-162.43 552.11,-132 518.17,-108.58 507.72,-57.34 504.51,-29.64"/>
<polygon fill="midnightblue" stroke="midnightblue" points="508,-29.29 503.56,-19.67 501.03,-29.96 508,-29.29"/>
</g>
<!-- Node10 -->
<g id="node10" class="node">
<title>Node10</title>
<g id="a_node10"><a xlink:title=" ">
<polygon fill="white" stroke="#bfbfbf" points="999.61,-112.5 999.61,-131.5 1128.61,-131.5 1128.61,-112.5 999.61,-112.5"/>
<text text-anchor="middle" x="1064.11" y="-119.5" font-family="Helvetica,sans-Serif" font-size="10.00">swla/swla_time_spec.h</text>
</a>
</g>
</g>
<!-- Node2&#45;&gt;Node10 -->
<g id="edge9" class="edge">
<title>Node2&#45;&gt;Node10</title>
<path fill="none" stroke="midnightblue" d="M2584.51,-177.07C2451.97,-177.36 1734.81,-176.73 1138.73,-131.96"/>
<polygon fill="midnightblue" stroke="midnightblue" points="1138.88,-128.46 1128.65,-131.2 1138.35,-135.44 1138.88,-128.46"/>
</g>
<!-- Node11 -->
<g id="node11" class="node">
<title>Node11</title>
<g id="a_node11"><a xlink:title=" ">
<polygon fill="white" stroke="#bfbfbf" points="1147.11,-112.5 1147.11,-131.5 1241.11,-131.5 1241.11,-112.5 1147.11,-112.5"/>
<text text-anchor="middle" x="1194.11" y="-119.5" font-family="Helvetica,sans-Serif" font-size="10.00">swla/swla_oui.h</text>
</a>
</g>
</g>
<!-- Node2&#45;&gt;Node11 -->
<g id="edge10" class="edge">
<title>Node2&#45;&gt;Node11</title>
<path fill="none" stroke="midnightblue" d="M2584.35,-176.65C2433.92,-174.21 1545.88,-158.88 1251.62,-131.99"/>
<polygon fill="midnightblue" stroke="midnightblue" points="1251.69,-128.48 1241.41,-131.03 1251.04,-135.45 1251.69,-128.48"/>
</g>
<!-- Node12 -->
<g id="node12" class="node">
<title>Node12</title>
<g id="a_node12"><a xlink:title=" ">
<polygon fill="white" stroke="#bfbfbf" points="1259.11,-112.5 1259.11,-131.5 1387.11,-131.5 1387.11,-112.5 1259.11,-112.5"/>
<text text-anchor="middle" x="1323.11" y="-119.5" font-family="Helvetica,sans-Serif" font-size="10.00">swla/swla_delayExec.h</text>
</a>
</g>
</g>
<!-- Node2&#45;&gt;Node12 -->
<g id="edge11" class="edge">
<title>Node2&#45;&gt;Node12</title>
<path fill="none" stroke="midnightblue" d="M2584.58,-176.89C2466.36,-176.12 1884,-170.51 1397.21,-132.01"/>
<polygon fill="midnightblue" stroke="midnightblue" points="1397.41,-128.52 1387.17,-131.21 1396.86,-135.5 1397.41,-128.52"/>
</g>
<!-- Node13 -->
<g id="node13" class="node">
<title>Node13</title>
<g id="a_node13"><a xlink:title=" ">
<polygon fill="white" stroke="#bfbfbf" points="1405.61,-112.5 1405.61,-131.5 1524.61,-131.5 1524.61,-112.5 1405.61,-112.5"/>
<text text-anchor="middle" x="1465.11" y="-119.5" font-family="Helvetica,sans-Serif" font-size="10.00">swla/swla_function.h</text>
</a>
</g>
</g>
<!-- Node2&#45;&gt;Node13 -->
<g id="edge12" class="edge">
<title>Node2&#45;&gt;Node13</title>
<path fill="none" stroke="midnightblue" d="M2584.52,-176.81C2474.31,-175.71 1963.29,-168.82 1534.88,-132.08"/>
<polygon fill="midnightblue" stroke="midnightblue" points="1535.04,-128.58 1524.78,-131.21 1534.44,-135.55 1535.04,-128.58"/>
</g>
<!-- Node14 -->
<g id="node14" class="node">
<title>Node14</title>
<g id="a_node14"><a xlink:title=" ">
<polygon fill="white" stroke="#bfbfbf" points="1542.61,-112.5 1542.61,-131.5 1683.61,-131.5 1683.61,-112.5 1542.61,-112.5"/>
<text text-anchor="middle" x="1613.11" y="-119.5" font-family="Helvetica,sans-Serif" font-size="10.00">swl/swl_usp_cmdStatus.h</text>
</a>
</g>
</g>
<!-- Node2&#45;&gt;Node14 -->
<g id="edge13" class="edge">
<title>Node2&#45;&gt;Node14</title>
<path fill="none" stroke="midnightblue" d="M2584.51,-176.44C2484.54,-173.72 2056.67,-160.97 1693.93,-132.01"/>
<polygon fill="midnightblue" stroke="midnightblue" points="1694,-128.5 1683.75,-131.19 1693.44,-135.48 1694,-128.5"/>
</g>
<!-- Node15 -->
<g id="node15" class="node">
<title>Node15</title>
<g id="a_node15"><a xlink:title=" ">
<polygon fill="white" stroke="#bfbfbf" points="1702.11,-112.5 1702.11,-131.5 1788.11,-131.5 1788.11,-112.5 1702.11,-112.5"/>
<text text-anchor="middle" x="1745.11" y="-119.5" font-family="Helvetica,sans-Serif" font-size="10.00">swl/swl_wps.h</text>
</a>
</g>
</g>
<!-- Node2&#45;&gt;Node15 -->
<g id="edge14" class="edge">
<title>Node2&#45;&gt;Node15</title>
<path fill="none" stroke="midnightblue" d="M2584.46,-176.72C2491.48,-175.3 2116.6,-167.65 1798.52,-132.02"/>
<polygon fill="midnightblue" stroke="midnightblue" points="1798.51,-128.5 1788.18,-130.85 1797.72,-135.45 1798.51,-128.5"/>
</g>
<!-- Node16 -->
<g id="node16" class="node">
<title>Node16</title>
<g id="a_node16"><a xlink:title=" ">
<polygon fill="white" stroke="#bfbfbf" points="1806.11,-112.5 1806.11,-131.5 1910.11,-131.5 1910.11,-112.5 1806.11,-112.5"/>
<text text-anchor="middle" x="1858.11" y="-119.5" font-family="Helvetica,sans-Serif" font-size="10.00">swl/swl_security.h</text>
</a>
</g>
</g>
<!-- Node2&#45;&gt;Node16 -->
<g id="edge15" class="edge">
<title>Node2&#45;&gt;Node16</title>
<path fill="none" stroke="midnightblue" d="M2584.39,-176.22C2500.37,-173.06 2188.35,-160.11 1920.62,-132.08"/>
<polygon fill="midnightblue" stroke="midnightblue" points="1920.63,-128.56 1910.31,-130.99 1919.89,-135.52 1920.63,-128.56"/>
</g>
<!-- Node17 -->
<g id="node17" class="node">
<title>Node17</title>
<g id="a_node17"><a xlink:title=" ">
<polygon fill="white" stroke="#bfbfbf" points="1928.61,-112.5 1928.61,-131.5 2011.61,-131.5 2011.61,-112.5 1928.61,-112.5"/>
<text text-anchor="middle" x="1970.11" y="-119.5" font-family="Helvetica,sans-Serif" font-size="10.00">amxc/amxc.h</text>
</a>
</g>
</g>
<!-- Node2&#45;&gt;Node17 -->
<g id="edge16" class="edge">
<title>Node2&#45;&gt;Node17</title>
<path fill="none" stroke="midnightblue" d="M2584.51,-176.1C2508.77,-172.8 2247.95,-160.07 2021.86,-131.96"/>
<polygon fill="midnightblue" stroke="midnightblue" points="2022.16,-128.47 2011.8,-130.7 2021.29,-135.42 2022.16,-128.47"/>
</g>
<!-- Node18 -->
<g id="node18" class="node">
<title>Node18</title>
<g id="a_node18"><a xlink:title=" ">
<polygon fill="white" stroke="#bfbfbf" points="2030.11,-112.5 2030.11,-131.5 2114.11,-131.5 2114.11,-112.5 2030.11,-112.5"/>
<text text-anchor="middle" x="2072.11" y="-119.5" font-family="Helvetica,sans-Serif" font-size="10.00">amxp/amxp.h</text>
</a>
</g>
</g>
<!-- Node2&#45;&gt;Node18 -->
<g id="edge17" class="edge">
<title>Node2&#45;&gt;Node18</title>
<path fill="none" stroke="midnightblue" d="M2584.37,-175.61C2517.41,-171.2 2308.21,-156.42 2124.48,-132.08"/>
<polygon fill="midnightblue" stroke="midnightblue" points="2124.74,-128.59 2114.36,-130.73 2123.81,-135.53 2124.74,-128.59"/>
</g>
<!-- Node19 -->
<g id="node19" class="node">
<title>Node19</title>
<g id="a_node19"><a xlink:title=" ">
<polygon fill="white" stroke="#bfbfbf" points="2132.11,-112.5 2132.11,-131.5 2272.11,-131.5 2272.11,-112.5 2132.11,-112.5"/>
<text text-anchor="middle" x="2202.11" y="-119.5" font-family="Helvetica,sans-Serif" font-size="10.00">amxd/amxd_parameter.h</text>
</a>
</g>
</g>
<!-- Node2&#45;&gt;Node19 -->
<g id="edge18" class="edge">
<title>Node2&#45;&gt;Node19</title>
<path fill="none" stroke="midnightblue" d="M2584.38,-174.1C2527.14,-166.45 2370.1,-145.45 2276.06,-132.88"/>
<polygon fill="midnightblue" stroke="midnightblue" points="2276.41,-129.4 2266.04,-131.55 2275.48,-136.34 2276.41,-129.4"/>
</g>
<!-- Node20 -->
<g id="node20" class="node">
<title>Node20</title>
<g id="a_node20"><a xlink:title=" ">
<polygon fill="white" stroke="#bfbfbf" points="2290.61,-112.5 2290.61,-131.5 2409.61,-131.5 2409.61,-112.5 2290.61,-112.5"/>
<text text-anchor="middle" x="2350.11" y="-119.5" font-family="Helvetica,sans-Serif" font-size="10.00">amxd/amxd_action.h</text>
</a>
</g>
</g>
<!-- Node2&#45;&gt;Node20 -->
<g id="edge19" class="edge">
<title>Node2&#45;&gt;Node20</title>
<path fill="none" stroke="midnightblue" d="M2584.28,-172.4C2543.87,-163.87 2456.44,-145.43 2400.59,-133.65"/>
<polygon fill="midnightblue" stroke="midnightblue" points="2401.06,-130.17 2390.55,-131.53 2399.61,-137.02 2401.06,-130.17"/>
</g>
<!-- Node21 -->
<g id="node21" class="node">
<title>Node21</title>
<g id="a_node21"><a xlink:title=" ">
<polygon fill="white" stroke="#bfbfbf" points="2427.61,-112.5 2427.61,-131.5 2602.61,-131.5 2602.61,-112.5 2427.61,-112.5"/>
<text text-anchor="middle" x="2515.11" y="-119.5" font-family="Helvetica,sans-Serif" font-size="10.00">amxd/amxd_object_parameter.h</text>
</a>
</g>
</g>
<!-- Node2&#45;&gt;Node21 -->
<g id="edge20" class="edge">
<title>Node2&#45;&gt;Node21</title>
<path fill="none" stroke="midnightblue" d="M2591.48,-168.32C2577.16,-159.82 2555.09,-146.73 2538.36,-136.8"/>
<polygon fill="midnightblue" stroke="midnightblue" points="2540.08,-133.75 2529.69,-131.65 2536.5,-139.77 2540.08,-133.75"/>
</g>
<!-- Node22 -->
<g id="node22" class="node">
<title>Node22</title>
<g id="a_node22"><a xlink:title=" ">
<polygon fill="white" stroke="#bfbfbf" points="2621.11,-112.5 2621.11,-131.5 2773.11,-131.5 2773.11,-112.5 2621.11,-112.5"/>
<text text-anchor="middle" x="2697.11" y="-119.5" font-family="Helvetica,sans-Serif" font-size="10.00">amxd/amxd_object_event.h</text>
</a>
</g>
</g>
<!-- Node2&#45;&gt;Node22 -->
<g id="edge21" class="edge">
<title>Node2&#45;&gt;Node22</title>
<path fill="none" stroke="midnightblue" d="M2620.73,-168.32C2635.05,-159.82 2657.12,-146.73 2673.85,-136.8"/>
<polygon fill="midnightblue" stroke="midnightblue" points="2675.71,-139.77 2682.52,-131.65 2672.13,-133.75 2675.71,-139.77"/>
</g>
<!-- Node23 -->
<g id="node23" class="node">
<title>Node23</title>
<g id="a_node23"><a xlink:title=" ">
<polygon fill="white" stroke="#bfbfbf" points="2791.61,-112.5 2791.61,-131.5 2920.61,-131.5 2920.61,-112.5 2791.61,-112.5"/>
<text text-anchor="middle" x="2856.11" y="-119.5" font-family="Helvetica,sans-Serif" font-size="10.00">amxd/amxd_function.h</text>
</a>
</g>
</g>
<!-- Node2&#45;&gt;Node23 -->
<g id="edge22" class="edge">
<title>Node2&#45;&gt;Node23</title>
<path fill="none" stroke="midnightblue" d="M2627.85,-172.3C2667.44,-163.75 2752.2,-145.44 2806.55,-133.7"/>
<polygon fill="midnightblue" stroke="midnightblue" points="2807.29,-137.12 2816.33,-131.59 2805.81,-130.28 2807.29,-137.12"/>
</g>
<!-- Node24 -->
<g id="node24" class="node">
<title>Node24</title>
<g id="a_node24"><a xlink:title=" ">
<polygon fill="white" stroke="#bfbfbf" points="2938.61,-112.5 2938.61,-131.5 3107.61,-131.5 3107.61,-112.5 2938.61,-112.5"/>
<text text-anchor="middle" x="3023.11" y="-119.5" font-family="Helvetica,sans-Serif" font-size="10.00">amxd/amxd_object_hierarchy.h</text>
</a>
</g>
</g>
<!-- Node2&#45;&gt;Node24 -->
<g id="edge23" class="edge">
<title>Node2&#45;&gt;Node24</title>
<path fill="none" stroke="midnightblue" d="M2627.65,-174.21C2686.04,-166.65 2849.49,-145.48 2947.01,-132.85"/>
<polygon fill="midnightblue" stroke="midnightblue" points="2947.64,-136.3 2957.11,-131.55 2946.74,-129.36 2947.64,-136.3"/>
</g>
<!-- Node25 -->
<g id="node25" class="node">
<title>Node25</title>
<g id="a_node25"><a xlink:title=" ">
<polygon fill="white" stroke="#bfbfbf" points="3125.61,-112.5 3125.61,-131.5 3244.61,-131.5 3244.61,-112.5 3125.61,-112.5"/>
<text text-anchor="middle" x="3185.11" y="-119.5" font-family="Helvetica,sans-Serif" font-size="10.00">amxd/amxd_object.h</text>
</a>
</g>
</g>
<!-- Node2&#45;&gt;Node25 -->
<g id="edge24" class="edge">
<title>Node2&#45;&gt;Node25</title>
<path fill="none" stroke="midnightblue" d="M2627.81,-175.43C2697.19,-170.34 2920.09,-153.43 3115.26,-132.16"/>
<polygon fill="midnightblue" stroke="midnightblue" points="3115.86,-135.62 3125.42,-131.05 3115.1,-128.66 3115.86,-135.62"/>
</g>
<!-- Node26 -->
<g id="node26" class="node">
<title>Node26</title>
<g id="a_node26"><a xlink:title=" ">
<polygon fill="white" stroke="#bfbfbf" points="3262.61,-112.5 3262.61,-131.5 3367.61,-131.5 3367.61,-112.5 3262.61,-112.5"/>
<text text-anchor="middle" x="3315.11" y="-119.5" font-family="Helvetica,sans-Serif" font-size="10.00">amxd/amxd_dm.h</text>
</a>
</g>
</g>
<!-- Node2&#45;&gt;Node26 -->
<g id="edge25" class="edge">
<title>Node2&#45;&gt;Node26</title>
<path fill="none" stroke="midnightblue" d="M2627.69,-176.11C2708.51,-172.64 3001,-158.94 3252.51,-132.1"/>
<polygon fill="midnightblue" stroke="midnightblue" points="3253,-135.56 3262.57,-131.01 3252.25,-128.6 3253,-135.56"/>
</g>
<!-- Node27 -->
<g id="node27" class="node">
<title>Node27</title>
<g id="a_node27"><a xlink:title=" ">
<polygon fill="white" stroke="#bfbfbf" points="3386.11,-112.5 3386.11,-131.5 3530.11,-131.5 3530.11,-112.5 3386.11,-112.5"/>
<text text-anchor="middle" x="3458.11" y="-119.5" font-family="Helvetica,sans-Serif" font-size="10.00">amxd/amxd_transaction.h</text>
</a>
</g>
</g>
<!-- Node2&#45;&gt;Node27 -->
<g id="edge26" class="edge">
<title>Node2&#45;&gt;Node27</title>
<path fill="none" stroke="midnightblue" d="M2627.91,-176.15C2718.31,-172.52 3072.75,-157.43 3375.41,-132.1"/>
<polygon fill="midnightblue" stroke="midnightblue" points="3376.03,-135.56 3385.7,-131.24 3375.44,-128.59 3376.03,-135.56"/>
</g>
<!-- Node28 -->
<g id="node28" class="node">
<title>Node28</title>
<g id="a_node28"><a xlink:title=" ">
<polygon fill="white" stroke="#bfbfbf" points="3548.11,-112.5 3548.11,-131.5 3664.11,-131.5 3664.11,-112.5 3548.11,-112.5"/>
<text text-anchor="middle" x="3606.11" y="-119.5" font-family="Helvetica,sans-Serif" font-size="10.00">amxb/amxb_types.h</text>
</a>
</g>
</g>
<!-- Node2&#45;&gt;Node28 -->
<g id="edge27" class="edge">
<title>Node2&#45;&gt;Node28</title>
<path fill="none" stroke="midnightblue" d="M2627.85,-176.64C2729.45,-174.8 3167.72,-165.28 3537.93,-132.02"/>
<polygon fill="midnightblue" stroke="midnightblue" points="3538.39,-135.5 3548.03,-131.11 3537.76,-128.53 3538.39,-135.5"/>
</g>
<!-- Node29 -->
<g id="node29" class="node">
<title>Node29</title>
<g id="a_node29"><a xlink:title=" ">
<polygon fill="white" stroke="#bfbfbf" points="3682.11,-112.5 3682.11,-131.5 3818.11,-131.5 3818.11,-112.5 3682.11,-112.5"/>
<text text-anchor="middle" x="3750.11" y="-119.5" font-family="Helvetica,sans-Serif" font-size="10.00">amxb/amxb_operators.h</text>
</a>
</g>
</g>
<!-- Node2&#45;&gt;Node29 -->
<g id="edge28" class="edge">
<title>Node2&#45;&gt;Node29</title>
<path fill="none" stroke="midnightblue" d="M2627.93,-176.68C2738.23,-174.94 3245.54,-165.47 3671.65,-132.06"/>
<polygon fill="midnightblue" stroke="midnightblue" points="3672,-135.54 3681.7,-131.26 3671.45,-128.56 3672,-135.54"/>
</g>
<!-- Node30 -->
<g id="node30" class="node">
<title>Node30</title>
<g id="a_node30"><a xlink:title=" ">
<polygon fill="white" stroke="#bfbfbf" points="3836.11,-112.5 3836.11,-131.5 3948.11,-131.5 3948.11,-112.5 3836.11,-112.5"/>
<text text-anchor="middle" x="3892.11" y="-119.5" font-family="Helvetica,sans-Serif" font-size="10.00">amxb/amxb_error.h</text>
</a>
</g>
</g>
<!-- Node2&#45;&gt;Node30 -->
<g id="edge29" class="edge">
<title>Node2&#45;&gt;Node30</title>
<path fill="none" stroke="midnightblue" d="M2627.84,-177.02C2747.18,-176.93 3335.07,-174.35 3825.66,-132.03"/>
<polygon fill="midnightblue" stroke="midnightblue" points="3826.12,-135.51 3835.77,-131.15 3825.51,-128.53 3826.12,-135.51"/>
</g>
<!-- Node31 -->
<g id="node31" class="node">
<title>Node31</title>
<g id="a_node31"><a xlink:title=" ">
<polygon fill="white" stroke="#bfbfbf" points="3966.61,-112.5 3966.61,-131.5 4049.61,-131.5 4049.61,-112.5 3966.61,-112.5"/>
<text text-anchor="middle" x="4008.11" y="-119.5" font-family="Helvetica,sans-Serif" font-size="10.00">amxo/amxo.h</text>
</a>
</g>
</g>
<!-- Node2&#45;&gt;Node31 -->
<g id="edge30" class="edge">
<title>Node2&#45;&gt;Node31</title>
<path fill="none" stroke="midnightblue" d="M2627.78,-176.7C2777.69,-174.55 3662.63,-160.86 3956.23,-131.89"/>
<polygon fill="midnightblue" stroke="midnightblue" points="3956.83,-135.34 3966.42,-130.85 3956.12,-128.38 3956.83,-135.34"/>
</g>
<!-- Node32 -->
<g id="node32" class="node">
<title>Node32</title>
<g id="a_node32"><a xlink:title=" ">
<polygon fill="white" stroke="#bfbfbf" points="4067.61,-112.5 4067.61,-131.5 4182.61,-131.5 4182.61,-112.5 4067.61,-112.5"/>
<text text-anchor="middle" x="4125.11" y="-119.5" font-family="Helvetica,sans-Serif" font-size="10.00">amxo/amxo_types.h</text>
</a>
</g>
</g>
<!-- Node2&#45;&gt;Node32 -->
<g id="edge31" class="edge">
<title>Node2&#45;&gt;Node32</title>
<path fill="none" stroke="midnightblue" d="M2627.91,-177.18C2760.24,-178.1 3469.13,-180.5 4057.17,-132.07"/>
<polygon fill="midnightblue" stroke="midnightblue" points="4057.88,-135.52 4067.55,-131.21 4057.3,-128.55 4057.88,-135.52"/>
</g>
<!-- Node33 -->
<g id="node33" class="node">
<title>Node33</title>
<g id="a_node33"><a xlink:href="wld__types_8h.html" target="_top" xlink:title=" ">
<polygon fill="white" stroke="red" points="271.61,-56.5 271.61,-75.5 346.61,-75.5 346.61,-56.5 271.61,-56.5"/>
<text text-anchor="middle" x="309.11" y="-63.5" font-family="Helvetica,sans-Serif" font-size="10.00">wld_types.h</text>
</a>
</g>
</g>
<!-- Node2&#45;&gt;Node33 -->
<g id="edge32" class="edge">
<title>Node2&#45;&gt;Node33</title>
<path fill="none" stroke="midnightblue" d="M2584.26,-176.96C2360.99,-176.5 498.9,-171.5 390.11,-132 362.97,-122.15 338.1,-99.2 323.27,-83.39"/>
<polygon fill="midnightblue" stroke="midnightblue" points="325.78,-80.94 316.47,-75.87 320.59,-85.64 325.78,-80.94"/>
</g>
<!-- Node36 -->
<g id="node34" class="node">
<title>Node36</title>
<g id="a_node34"><a xlink:href="wld__channel__types_8h.html" target="_top" xlink:title=" ">
<polygon fill="white" stroke="black" points="5272.61,-112.5 5272.61,-131.5 5391.61,-131.5 5391.61,-112.5 5272.61,-112.5"/>
<text text-anchor="middle" x="5332.11" y="-119.5" font-family="Helvetica,sans-Serif" font-size="10.00">wld_channel_types.h</text>
</a>
</g>
</g>
<!-- Node2&#45;&gt;Node36 -->
<g id="edge35" class="edge">
<title>Node2&#45;&gt;Node36</title>
<path fill="none" stroke="midnightblue" d="M2627.72,-176.97C2847.88,-176.64 4687.79,-172.71 5262.28,-131.94"/>
<polygon fill="midnightblue" stroke="midnightblue" points="5262.59,-135.43 5272.31,-131.22 5262.08,-128.45 5262.59,-135.43"/>
</g>
<!-- Node37 -->
<g id="node35" class="node">
<title>Node37</title>
<g id="a_node35"><a xlink:title=" ">
<polygon fill="white" stroke="#bfbfbf" points="1722.61,-56.5 1722.61,-75.5 1847.61,-75.5 1847.61,-56.5 1722.61,-56.5"/>
<text text-anchor="middle" x="1785.11" y="-63.5" font-family="Helvetica,sans-Serif" font-size="10.00">swla/swla_chanspec.h</text>
</a>
</g>
</g>
<!-- Node2&#45;&gt;Node37 -->
<g id="edge53" class="edge">
<title>Node2&#45;&gt;Node37</title>
<path fill="none" stroke="midnightblue" d="M2584.59,-176.94C2368.53,-176.33 597.43,-170.16 560.11,-132 553.89,-125.65 553.94,-118.4 560.11,-112 600.21,-70.39 1454.38,-67 1712.12,-66.92"/>
<polygon fill="midnightblue" stroke="midnightblue" points="1712.49,-70.42 1722.49,-66.92 1712.49,-63.42 1712.49,-70.42"/>
</g>
<!-- Node38 -->
<g id="node36" class="node">
<title>Node38</title>
<g id="a_node36"><a xlink:href="wld__bgdfs_8h.html" target="_top" xlink:title=" ">
<polygon fill="white" stroke="black" points="399.61,-112.5 399.61,-131.5 474.61,-131.5 474.61,-112.5 399.61,-112.5"/>
<text text-anchor="middle" x="437.11" y="-119.5" font-family="Helvetica,sans-Serif" font-size="10.00">wld_bgdfs.h</text>
</a>
</g>
</g>
<!-- Node2&#45;&gt;Node38 -->
<g id="edge39" class="edge">
<title>Node2&#45;&gt;Node38</title>
<path fill="none" stroke="midnightblue" d="M2584.51,-176.99C2389.29,-176.83 925.92,-174.2 489.11,-132 487.8,-131.87 486.47,-131.73 485.14,-131.58"/>
<polygon fill="midnightblue" stroke="midnightblue" points="485.16,-128.05 474.79,-130.21 484.24,-134.99 485.16,-128.05"/>
</g>
<!-- Node39 -->
<g id="node37" class="node">
<title>Node39</title>
<g id="a_node37"><a xlink:href="wld__rad__delayMgr_8h.html" target="_top" xlink:title=" ">
<polygon fill="white" stroke="black" points="4201.11,-112.5 4201.11,-131.5 4315.11,-131.5 4315.11,-112.5 4201.11,-112.5"/>
<text text-anchor="middle" x="4258.11" y="-119.5" font-family="Helvetica,sans-Serif" font-size="10.00">wld_rad_delayMgr.h</text>
</a>
</g>
</g>
<!-- Node2&#45;&gt;Node39 -->
<g id="edge41" class="edge">
<title>Node2&#45;&gt;Node39</title>
<path fill="none" stroke="midnightblue" d="M2627.82,-176.68C2793.71,-174.27 3860.53,-158.49 4183.11,-132 4185.63,-131.79 4188.2,-131.56 4190.8,-131.29"/>
<polygon fill="midnightblue" stroke="midnightblue" points="4191.38,-134.75 4200.94,-130.18 4190.62,-127.79 4191.38,-134.75"/>
</g>
<!-- Node40 -->
<g id="node38" class="node">
<title>Node40</title>
<g id="a_node38"><a xlink:href="wld__fsm_8h.html" target="_top" xlink:title=" ">
<polygon fill="white" stroke="black" points="190.61,-112.5 190.61,-131.5 257.61,-131.5 257.61,-112.5 190.61,-112.5"/>
<text text-anchor="middle" x="224.11" y="-119.5" font-family="Helvetica,sans-Serif" font-size="10.00">wld_fsm.h</text>
</a>
</g>
</g>
<!-- Node2&#45;&gt;Node40 -->
<g id="edge43" class="edge">
<title>Node2&#45;&gt;Node40</title>
<path fill="none" stroke="midnightblue" d="M2584.43,-176.84C2365.45,-175.15 555.72,-160.47 268.27,-131.94"/>
<polygon fill="midnightblue" stroke="midnightblue" points="268.25,-128.42 257.94,-130.83 267.51,-135.38 268.25,-128.42"/>
</g>
<!-- Node41 -->
<g id="node39" class="node">
<title>Node41</title>
<g id="a_node39"><a xlink:href="wld__sensing_8h.html" target="_top" xlink:title=" ">
<polygon fill="white" stroke="black" points="4333.11,-112.5 4333.11,-131.5 4419.11,-131.5 4419.11,-112.5 4333.11,-112.5"/>
<text text-anchor="middle" x="4376.11" y="-119.5" font-family="Helvetica,sans-Serif" font-size="10.00">wld_sensing.h</text>
</a>
</g>
</g>
<!-- Node2&#45;&gt;Node41 -->
<g id="edge45" class="edge">
<title>Node2&#45;&gt;Node41</title>
<path fill="none" stroke="midnightblue" d="M2627.84,-176.85C2801.55,-175.66 3964.94,-166.7 4315.11,-132 4317.62,-131.75 4320.19,-131.45 4322.8,-131.11"/>
<polygon fill="midnightblue" stroke="midnightblue" points="4323.53,-134.55 4332.93,-129.66 4322.54,-127.62 4323.53,-134.55"/>
</g>
<!-- Node42 -->
<g id="node40" class="node">
<title>Node42</title>
<g id="a_node40"><a xlink:href="wld__mld_8h.html" target="_top" xlink:title=" ">
<polygon fill="white" stroke="black" points="275.61,-112.5 275.61,-131.5 342.61,-131.5 342.61,-112.5 275.61,-112.5"/>
<text text-anchor="middle" x="309.11" y="-119.5" font-family="Helvetica,sans-Serif" font-size="10.00">wld_mld.h</text>
</a>
</g>
</g>
<!-- Node2&#45;&gt;Node42 -->
<g id="edge47" class="edge">
<title>Node2&#45;&gt;Node42</title>
<path fill="none" stroke="midnightblue" d="M2584.6,-176.79C2368.44,-174.61 590.55,-156.05 357.11,-132 355.8,-131.87 354.48,-131.71 353.15,-131.55"/>
<polygon fill="midnightblue" stroke="midnightblue" points="353.23,-128.03 342.83,-130.05 352.22,-134.95 353.23,-128.03"/>
</g>
<!-- Node43 -->
<g id="node41" class="node">
<title>Node43</title>
<g id="a_node41"><a xlink:href="wld__autoCommitRadData_8h.html" target="_top" xlink:title=" ">
<polygon fill="white" stroke="black" points="4437.11,-112.5 4437.11,-131.5 4613.11,-131.5 4613.11,-112.5 4437.11,-112.5"/>
<text text-anchor="middle" x="4525.11" y="-119.5" font-family="Helvetica,sans-Serif" font-size="10.00">Utils/wld_autoCommitRadData.h</text>
</a>
</g>
</g>
<!-- Node2&#45;&gt;Node43 -->
<g id="edge49" class="edge">
<title>Node2&#45;&gt;Node43</title>
<path fill="none" stroke="midnightblue" d="M2627.78,-177.02C2778.08,-177.05 3680.76,-175.38 4426.95,-132.02"/>
<polygon fill="midnightblue" stroke="midnightblue" points="4427.32,-135.51 4437.1,-131.43 4426.91,-128.52 4427.32,-135.51"/>
</g>
<!-- Node2&#45;&gt;Node44 -->
<g id="edge50" class="edge">
<title>Node2&#45;&gt;Node44</title>
<path fill="none" stroke="midnightblue" d="M2584.49,-176.93C2372.31,-176.17 658.94,-168.94 148.11,-132 146.99,-131.92 145.87,-131.83 144.73,-131.74"/>
<polygon fill="midnightblue" stroke="midnightblue" points="144.68,-128.22 134.4,-130.8 144.04,-135.19 144.68,-128.22"/>
</g>
<!-- Node46 -->
<g id="node43" class="node">
<title>Node46</title>
<g id="a_node43"><a xlink:title=" ">
<polygon fill="white" stroke="#bfbfbf" points="4631.61,-112.5 4631.61,-131.5 4732.61,-131.5 4732.61,-112.5 4631.61,-112.5"/>
<text text-anchor="middle" x="4682.11" y="-119.5" font-family="Helvetica,sans-Serif" font-size="10.00">swl/swl_staCap.h</text>
</a>
</g>
</g>
<!-- Node2&#45;&gt;Node46 -->
<g id="edge54" class="edge">
<title>Node2&#45;&gt;Node46</title>
<path fill="none" stroke="midnightblue" d="M2627.84,-176.9C2816.87,-175.93 4184.97,-167.79 4621.29,-131.92"/>
<polygon fill="midnightblue" stroke="midnightblue" points="4621.75,-135.39 4631.42,-131.06 4621.16,-128.41 4621.75,-135.39"/>
</g>
<!-- Node47 -->
<g id="node44" class="node">
<title>Node47</title>
<g id="a_node44"><a xlink:title=" ">
<polygon fill="white" stroke="#bfbfbf" points="4751.11,-112.5 4751.11,-131.5 4855.11,-131.5 4855.11,-112.5 4751.11,-112.5"/>
<text text-anchor="middle" x="4803.11" y="-119.5" font-family="Helvetica,sans-Serif" font-size="10.00">swla/swla_table.h</text>
</a>
</g>
</g>
<!-- Node2&#45;&gt;Node47 -->
<g id="edge55" class="edge">
<title>Node2&#45;&gt;Node47</title>
<path fill="none" stroke="midnightblue" d="M2627.88,-176.92C2823.36,-176.14 4279.32,-169.15 4740.86,-131.97"/>
<polygon fill="midnightblue" stroke="midnightblue" points="4741.23,-135.45 4750.91,-131.14 4740.66,-128.47 4741.23,-135.45"/>
</g>
<!-- Node48 -->
<g id="node45" class="node">
<title>Node48</title>
<g id="a_node45"><a xlink:title=" ">
<polygon fill="white" stroke="#bfbfbf" points="4873.61,-112.5 4873.61,-131.5 4970.61,-131.5 4970.61,-112.5 4873.61,-112.5"/>
<text text-anchor="middle" x="4922.11" y="-119.5" font-family="Helvetica,sans-Serif" font-size="10.00">swl/swl_assert.h</text>
</a>
</g>
</g>
<!-- Node2&#45;&gt;Node48 -->
<g id="edge56" class="edge">
<title>Node2&#45;&gt;Node48</title>
<path fill="none" stroke="midnightblue" d="M2627.84,-176.97C2829.34,-176.64 4374.73,-172.78 4863.14,-131.92"/>
<polygon fill="midnightblue" stroke="midnightblue" points="4863.76,-135.38 4873.43,-131.04 4863.17,-128.4 4863.76,-135.38"/>
</g>
<!-- Node49 -->
<g id="node46" class="node">
<title>Node49</title>
<g id="a_node46"><a xlink:title=" ">
<polygon fill="white" stroke="#bfbfbf" points="4988.61,-112.5 4988.61,-131.5 5109.61,-131.5 5109.61,-112.5 4988.61,-112.5"/>
<text text-anchor="middle" x="5049.11" y="-119.5" font-family="Helvetica,sans-Serif" font-size="10.00">swl/swl_returnCode.h</text>
</a>
</g>
</g>
<!-- Node2&#45;&gt;Node49 -->
<g id="edge57" class="edge">
<title>Node2&#45;&gt;Node49</title>
<path fill="none" stroke="midnightblue" d="M2627.63,-176.92C2834,-176.13 4465.6,-168.79 4978.5,-132.02"/>
<polygon fill="midnightblue" stroke="midnightblue" points="4978.84,-135.5 4988.56,-131.28 4978.33,-128.52 4978.84,-135.5"/>
</g>
<!-- Node50 -->
<g id="node47" class="node">
<title>Node50</title>
<g id="a_node47"><a xlink:title=" ">
<polygon fill="white" stroke="#bfbfbf" points="5128.11,-112.5 5128.11,-131.5 5254.11,-131.5 5254.11,-112.5 5128.11,-112.5"/>
<text text-anchor="middle" x="5191.11" y="-119.5" font-family="Helvetica,sans-Serif" font-size="10.00">swla/swla_tupleType.h</text>
</a>
</g>
</g>
<!-- Node2&#45;&gt;Node50 -->
<g id="edge58" class="edge">
<title>Node2&#45;&gt;Node50</title>
<path fill="none" stroke="midnightblue" d="M2627.87,-176.93C2841.93,-176.21 4574.34,-169.32 5117.66,-132"/>
<polygon fill="midnightblue" stroke="midnightblue" points="5118.2,-135.47 5127.93,-131.28 5117.71,-128.49 5118.2,-135.47"/>
</g>
<!-- Node2&#45;&gt;Node70 -->
<g id="edge59" class="edge">
<title>Node2&#45;&gt;Node70</title>
<path fill="none" stroke="midnightblue" d="M2627.9,-176.81C2874.56,-174.64 5137.86,-154.18 5434.11,-132 5435.57,-131.89 5437.05,-131.77 5438.54,-131.64"/>
<polygon fill="midnightblue" stroke="midnightblue" points="5438.89,-135.12 5448.5,-130.66 5438.21,-128.16 5438.89,-135.12"/>
</g>
<!-- Node33&#45;&gt;Node4 -->
<g id="edge33" class="edge">
<title>Node33&#45;&gt;Node4</title>
<path fill="none" stroke="midnightblue" d="M284.07,-56.44C257.49,-47.36 215.3,-32.94 185.58,-22.78"/>
<polygon fill="midnightblue" stroke="midnightblue" points="186.62,-19.44 176.02,-19.52 184.35,-26.06 186.62,-19.44"/>
</g>
<!-- Node33&#45;&gt;Node9 -->
<g id="edge34" class="edge">
<title>Node33&#45;&gt;Node9</title>
<path fill="none" stroke="midnightblue" d="M339.85,-56.44C373.05,-47.2 426.1,-32.44 462.66,-22.26"/>
<polygon fill="midnightblue" stroke="midnightblue" points="463.81,-25.57 472.51,-19.52 461.94,-18.83 463.81,-25.57"/>
</g>
<!-- Node36&#45;&gt;Node3 -->
<g id="edge36" class="edge">
<title>Node36&#45;&gt;Node3</title>
<path fill="none" stroke="midnightblue" d="M5339.37,-112.08C5345.65,-104.38 5354.89,-93.03 5362.54,-83.65"/>
<polygon fill="midnightblue" stroke="midnightblue" points="5365.37,-85.71 5368.97,-75.75 5359.94,-81.29 5365.37,-85.71"/>
</g>
<!-- Node36&#45;&gt;Node9 -->
<g id="edge38" class="edge">
<title>Node36&#45;&gt;Node9</title>
<path fill="none" stroke="midnightblue" d="M5272.31,-112.8C5269.2,-112.5 5266.12,-112.23 5263.11,-112 4287.93,-38.27 1048.63,-14.55 563.99,-11.38"/>
<polygon fill="midnightblue" stroke="midnightblue" points="563.74,-7.88 553.72,-11.31 563.69,-14.88 563.74,-7.88"/>
</g>
<!-- Node36&#45;&gt;Node37 -->
<g id="edge37" class="edge">
<title>Node36&#45;&gt;Node37</title>
<path fill="none" stroke="midnightblue" d="M5272.31,-112.77C5269.2,-112.47 5266.12,-112.22 5263.11,-112 4567.23,-62.29 2294.16,-65.65 1857.88,-66.78"/>
<polygon fill="midnightblue" stroke="midnightblue" points="1857.61,-63.28 1847.62,-66.81 1857.63,-70.28 1857.61,-63.28"/>
</g>
<!-- Node38&#45;&gt;Node33 -->
<g id="edge40" class="edge">
<title>Node38&#45;&gt;Node33</title>
<path fill="none" stroke="midnightblue" d="M416.82,-112.44C395.76,-103.56 362.59,-89.56 338.62,-79.45"/>
<polygon fill="midnightblue" stroke="midnightblue" points="339.87,-76.18 329.29,-75.52 337.15,-82.63 339.87,-76.18"/>
</g>
<!-- Node39&#45;&gt;Node2 -->
<g id="edge42" class="edge">
<title>Node39&#45;&gt;Node2</title>
<path fill="none" stroke="midnightblue" d="M4206.35,-131.53C4204.59,-131.7 4202.83,-131.86 4201.11,-132 3881.99,-158.21 2834.51,-173.93 2637.99,-176.59"/>
<polygon fill="midnightblue" stroke="midnightblue" points="2637.72,-173.1 2627.76,-176.73 2637.81,-180.1 2637.72,-173.1"/>
</g>
<!-- Node40&#45;&gt;Node33 -->
<g id="edge44" class="edge">
<title>Node40&#45;&gt;Node33</title>
<path fill="none" stroke="midnightblue" d="M237.76,-112.32C251.02,-103.9 271.37,-90.97 286.95,-81.07"/>
<polygon fill="midnightblue" stroke="midnightblue" points="288.92,-83.97 295.48,-75.65 285.16,-78.06 288.92,-83.97"/>
</g>
<!-- Node41&#45;&gt;Node2 -->
<g id="edge46" class="edge">
<title>Node41&#45;&gt;Node2</title>
<path fill="none" stroke="midnightblue" d="M4337.53,-131.52C4336.04,-131.69 4334.56,-131.86 4333.11,-132 3986.54,-166.35 2843.4,-175.47 2637.86,-176.81"/>
<polygon fill="midnightblue" stroke="midnightblue" points="2637.72,-173.31 2627.74,-176.88 2637.76,-180.31 2637.72,-173.31"/>
</g>
<!-- Node42&#45;&gt;Node33 -->
<g id="edge48" class="edge">
<title>Node42&#45;&gt;Node33</title>
<path fill="none" stroke="midnightblue" d="M309.11,-112.08C309.11,-105.01 309.11,-94.86 309.11,-85.99"/>
<polygon fill="midnightblue" stroke="midnightblue" points="312.61,-85.75 309.11,-75.75 305.61,-85.75 312.61,-85.75"/>
</g>
<!-- Node44&#45;&gt;Node5 -->
<g id="edge51" class="edge">
<title>Node44&#45;&gt;Node5</title>
<path fill="none" stroke="midnightblue" d="M84.04,-112.08C90.03,-104.38 98.86,-93.03 106.15,-83.65"/>
<polygon fill="midnightblue" stroke="midnightblue" points="108.92,-85.79 112.3,-75.75 103.4,-81.5 108.92,-85.79"/>
</g>
<!-- Node44&#45;&gt;Node33 -->
<g id="edge52" class="edge">
<title>Node44&#45;&gt;Node33</title>
<path fill="none" stroke="midnightblue" d="M113.87,-112.44C154.17,-103.06 218.91,-87.99 262.69,-77.8"/>
<polygon fill="midnightblue" stroke="midnightblue" points="263.57,-81.19 272.52,-75.52 261.98,-74.37 263.57,-81.19"/>
</g>
<!-- Node75&#45;&gt;Node2 -->
<g id="edge61" class="edge">
<title>Node75&#45;&gt;Node2</title>
<path fill="none" stroke="midnightblue" d="M2660.66,-224.32C2650.96,-216.26 2636.29,-204.08 2624.61,-194.37"/>
<polygon fill="midnightblue" stroke="midnightblue" points="2626.67,-191.53 2616.74,-187.83 2622.19,-196.92 2626.67,-191.53"/>
</g>
<!-- Node82&#45;&gt;Node2 -->
<g id="edge63" class="edge">
<title>Node82&#45;&gt;Node2</title>
<path fill="none" stroke="midnightblue" d="M2555.75,-224.32C2564.61,-216.34 2577.98,-204.31 2588.71,-194.65"/>
<polygon fill="midnightblue" stroke="midnightblue" points="2591.2,-197.13 2596.29,-187.83 2586.52,-191.92 2591.2,-197.13"/>
</g>
</g>
</svg>
