<?xml version="1.0" encoding="UTF-8" standalone="no"?>
<!DOCTYPE svg PUBLIC "-//W3C//DTD SVG 1.1//EN"
 "http://www.w3.org/Graphics/SVG/1.1/DTD/svg11.dtd">
<!-- Generated by graphviz version 2.43.0 (0)
 -->
<!-- Title: include_priv/nl80211/wld_wpaCtrlInterface_priv.h Pages: 1 -->
<svg width="775pt" height="296pt"
 viewBox="0.00 0.00 774.50 296.00" xmlns="http://www.w3.org/2000/svg" xmlns:xlink="http://www.w3.org/1999/xlink">
<g id="graph0" class="graph" transform="scale(1 1) rotate(0) translate(4 292)">
<title>include_priv/nl80211/wld_wpaCtrlInterface_priv.h</title>
<polygon fill="white" stroke="transparent" points="-4,4 -4,-292 770.5,-292 770.5,4 -4,4"/>
<!-- Node1 -->
<g id="node1" class="node">
<title>Node1</title>
<g id="a_node1"><a xlink:title=" ">
<polygon fill="#bfbfbf" stroke="black" points="98.5,-246.5 98.5,-287.5 221.5,-287.5 221.5,-246.5 98.5,-246.5"/>
<text text-anchor="start" x="106.5" y="-275.5" font-family="Helvetica,sans-Serif" font-size="10.00">include_priv/nl80211</text>
<text text-anchor="start" x="106.5" y="-264.5" font-family="Helvetica,sans-Serif" font-size="10.00">/wld_wpaCtrlInterface</text>
<text text-anchor="middle" x="160" y="-253.5" font-family="Helvetica,sans-Serif" font-size="10.00">_priv.h</text>
</a>
</g>
</g>
<!-- Node2 -->
<g id="node2" class="node">
<title>Node2</title>
<g id="a_node2"><a xlink:href="wld__wpaCtrlInterface_8h.html" target="_top" xlink:title=" ">
<polygon fill="white" stroke="black" points="87.5,-123.5 87.5,-142.5 216.5,-142.5 216.5,-123.5 87.5,-123.5"/>
<text text-anchor="middle" x="152" y="-130.5" font-family="Helvetica,sans-Serif" font-size="10.00">wld_wpaCtrlInterface.h</text>
</a>
</g>
</g>
<!-- Node1&#45;&gt;Node2 -->
<g id="edge1" class="edge">
<title>Node1&#45;&gt;Node2</title>
<path fill="none" stroke="midnightblue" d="M158.8,-246.24C157.27,-221.03 154.65,-177.74 153.15,-152.93"/>
<polygon fill="midnightblue" stroke="midnightblue" points="156.63,-152.46 152.53,-142.69 149.64,-152.88 156.63,-152.46"/>
</g>
<!-- Node10 -->
<g id="node10" class="node">
<title>Node10</title>
<g id="a_node10"><a xlink:href="wld__wpaCtrlMngr_8h.html" target="_top" xlink:title=" ">
<polygon fill="white" stroke="black" points="22,-185 22,-204 132,-204 132,-185 22,-185"/>
<text text-anchor="middle" x="77" y="-192" font-family="Helvetica,sans-Serif" font-size="10.00">wld_wpaCtrlMngr.h</text>
</a>
</g>
</g>
<!-- Node1&#45;&gt;Node10 -->
<g id="edge10" class="edge">
<title>Node1&#45;&gt;Node10</title>
<path fill="none" stroke="midnightblue" d="M136.88,-246.36C123.63,-235.11 107.25,-221.19 94.97,-210.76"/>
<polygon fill="midnightblue" stroke="midnightblue" points="97.1,-207.98 87.21,-204.17 92.57,-213.31 97.1,-207.98"/>
</g>
<!-- Node11 -->
<g id="node11" class="node">
<title>Node11</title>
<g id="a_node11"><a xlink:href="wld__wpaCtrlConnection__priv_8h.html" target="_top" xlink:title=" ">
<polygon fill="white" stroke="black" points="197.5,-179.5 197.5,-209.5 328.5,-209.5 328.5,-179.5 197.5,-179.5"/>
<text text-anchor="start" x="205.5" y="-197.5" font-family="Helvetica,sans-Serif" font-size="10.00">wld_wpaCtrlConnection</text>
<text text-anchor="middle" x="263" y="-186.5" font-family="Helvetica,sans-Serif" font-size="10.00">_priv.h</text>
</a>
</g>
</g>
<!-- Node1&#45;&gt;Node11 -->
<g id="edge13" class="edge">
<title>Node1&#45;&gt;Node11</title>
<path fill="none" stroke="midnightblue" d="M188.69,-246.36C202.79,-236.71 219.75,-225.11 233.9,-215.42"/>
<polygon fill="midnightblue" stroke="midnightblue" points="236.02,-218.21 242.3,-209.67 232.07,-212.43 236.02,-218.21"/>
</g>
<!-- Node3 -->
<g id="node3" class="node">
<title>Node3</title>
<g id="a_node3"><a xlink:href="wld__wpaCtrl__types_8h.html" target="_top" xlink:title=" ">
<polygon fill="white" stroke="black" points="0,-6 0,-25 118,-25 118,-6 0,-6"/>
<text text-anchor="middle" x="59" y="-13" font-family="Helvetica,sans-Serif" font-size="10.00">wld_wpaCtrl_types.h</text>
</a>
</g>
</g>
<!-- Node2&#45;&gt;Node3 -->
<g id="edge2" class="edge">
<title>Node2&#45;&gt;Node3</title>
<path fill="none" stroke="midnightblue" d="M145.01,-123.32C129.59,-104.17 92.45,-58.04 72.39,-33.13"/>
<polygon fill="midnightblue" stroke="midnightblue" points="75.07,-30.88 66.07,-25.28 69.62,-35.27 75.07,-30.88"/>
</g>
<!-- Node4 -->
<g id="node4" class="node">
<title>Node4</title>
<g id="a_node4"><a xlink:href="wld__wpaCtrl__events_8h.html" target="_top" xlink:title=" ">
<polygon fill="white" stroke="black" points="268,-67.5 268,-86.5 392,-86.5 392,-67.5 268,-67.5"/>
<text text-anchor="middle" x="330" y="-74.5" font-family="Helvetica,sans-Serif" font-size="10.00">wld_wpaCtrl_events.h</text>
</a>
</g>
</g>
<!-- Node2&#45;&gt;Node4 -->
<g id="edge3" class="edge">
<title>Node2&#45;&gt;Node4</title>
<path fill="none" stroke="midnightblue" d="M180.2,-123.44C210.41,-114.28 258.51,-99.69 292.03,-89.52"/>
<polygon fill="midnightblue" stroke="midnightblue" points="293.37,-92.77 301.93,-86.52 291.34,-86.07 293.37,-92.77"/>
</g>
<!-- Node4&#45;&gt;Node3 -->
<g id="edge9" class="edge">
<title>Node4&#45;&gt;Node3</title>
<path fill="none" stroke="midnightblue" d="M291.17,-67.48C242.88,-56.87 160.39,-38.76 107.85,-27.22"/>
<polygon fill="midnightblue" stroke="midnightblue" points="108.27,-23.74 97.76,-25.01 106.77,-30.57 108.27,-23.74"/>
</g>
<!-- Node5 -->
<g id="node5" class="node">
<title>Node5</title>
<g id="a_node5"><a xlink:title=" ">
<polygon fill="white" stroke="#bfbfbf" points="136.5,-6 136.5,-25 261.5,-25 261.5,-6 136.5,-6"/>
<text text-anchor="middle" x="199" y="-13" font-family="Helvetica,sans-Serif" font-size="10.00">swla/swla_chanspec.h</text>
</a>
</g>
</g>
<!-- Node4&#45;&gt;Node5 -->
<g id="edge4" class="edge">
<title>Node4&#45;&gt;Node5</title>
<path fill="none" stroke="midnightblue" d="M311.23,-67.48C289.15,-57.45 252.28,-40.7 226.86,-29.15"/>
<polygon fill="midnightblue" stroke="midnightblue" points="228.29,-25.96 217.73,-25.01 225.39,-32.33 228.29,-25.96"/>
</g>
<!-- Node6 -->
<g id="node6" class="node">
<title>Node6</title>
<g id="a_node6"><a xlink:title=" ">
<polygon fill="white" stroke="#bfbfbf" points="280,-6 280,-25 380,-25 380,-6 280,-6"/>
<text text-anchor="middle" x="330" y="-13" font-family="Helvetica,sans-Serif" font-size="10.00">swla/swla_mac.h</text>
</a>
</g>
</g>
<!-- Node4&#45;&gt;Node6 -->
<g id="edge5" class="edge">
<title>Node4&#45;&gt;Node6</title>
<path fill="none" stroke="midnightblue" d="M330,-67.48C330,-59.08 330,-45.98 330,-35.16"/>
<polygon fill="midnightblue" stroke="midnightblue" points="333.5,-35.01 330,-25.01 326.5,-35.01 333.5,-35.01"/>
</g>
<!-- Node7 -->
<g id="node7" class="node">
<title>Node7</title>
<g id="a_node7"><a xlink:title=" ">
<polygon fill="white" stroke="#bfbfbf" points="398,-0.5 398,-30.5 512,-30.5 512,-0.5 398,-0.5"/>
<text text-anchor="start" x="406" y="-18.5" font-family="Helvetica,sans-Serif" font-size="10.00">swl/swl_ieee802_1x</text>
<text text-anchor="middle" x="455" y="-7.5" font-family="Helvetica,sans-Serif" font-size="10.00">_defs.h</text>
</a>
</g>
</g>
<!-- Node4&#45;&gt;Node7 -->
<g id="edge6" class="edge">
<title>Node4&#45;&gt;Node7</title>
<path fill="none" stroke="midnightblue" d="M347.91,-67.48C365.71,-59 393.58,-45.74 416.42,-34.86"/>
<polygon fill="midnightblue" stroke="midnightblue" points="418.01,-37.98 425.54,-30.52 415.01,-31.66 418.01,-37.98"/>
</g>
<!-- Node8 -->
<g id="node8" class="node">
<title>Node8</title>
<g id="a_node8"><a xlink:title=" ">
<polygon fill="white" stroke="#bfbfbf" points="530.5,-6 530.5,-25 627.5,-25 627.5,-6 530.5,-6"/>
<text text-anchor="middle" x="579" y="-13" font-family="Helvetica,sans-Serif" font-size="10.00">swl/swl_80211.h</text>
</a>
</g>
</g>
<!-- Node4&#45;&gt;Node8 -->
<g id="edge7" class="edge">
<title>Node4&#45;&gt;Node8</title>
<path fill="none" stroke="midnightblue" d="M367.01,-67.44C405.51,-58.49 467.53,-43.98 521,-31 525.67,-29.87 530.55,-28.67 535.41,-27.47"/>
<polygon fill="midnightblue" stroke="midnightblue" points="536.42,-30.82 545.28,-25.01 534.73,-24.03 536.42,-30.82"/>
</g>
<!-- Node9 -->
<g id="node9" class="node">
<title>Node9</title>
<g id="a_node9"><a xlink:title=" ">
<polygon fill="white" stroke="#bfbfbf" points="645.5,-6 645.5,-25 766.5,-25 766.5,-6 645.5,-6"/>
<text text-anchor="middle" x="706" y="-13" font-family="Helvetica,sans-Serif" font-size="10.00">swl/swl_returnCode.h</text>
</a>
</g>
</g>
<!-- Node4&#45;&gt;Node9 -->
<g id="edge8" class="edge">
<title>Node4&#45;&gt;Node9</title>
<path fill="none" stroke="midnightblue" d="M392.22,-68.02C454.36,-59.79 552.55,-46.05 637,-31 643.64,-29.82 650.62,-28.47 657.48,-27.09"/>
<polygon fill="midnightblue" stroke="midnightblue" points="658.31,-30.49 667.4,-25.05 656.9,-23.63 658.31,-30.49"/>
</g>
<!-- Node10&#45;&gt;Node2 -->
<g id="edge12" class="edge">
<title>Node10&#45;&gt;Node2</title>
<path fill="none" stroke="midnightblue" d="M87.75,-184.98C99.55,-175.61 118.74,-160.38 133.08,-149.01"/>
<polygon fill="midnightblue" stroke="midnightblue" points="135.62,-151.47 141.27,-142.51 131.26,-145.98 135.62,-151.47"/>
</g>
<!-- Node10&#45;&gt;Node3 -->
<g id="edge11" class="edge">
<title>Node10&#45;&gt;Node3</title>
<path fill="none" stroke="midnightblue" d="M76.13,-184.96C73.38,-157.93 64.82,-73.74 60.94,-35.61"/>
<polygon fill="midnightblue" stroke="midnightblue" points="64.4,-34.96 59.9,-25.37 57.43,-35.67 64.4,-34.96"/>
</g>
<!-- Node12 -->
<g id="node12" class="node">
<title>Node12</title>
<g id="a_node12"><a xlink:title=" ">
<polygon fill="white" stroke="#bfbfbf" points="234.5,-123.5 234.5,-142.5 291.5,-142.5 291.5,-123.5 234.5,-123.5"/>
<text text-anchor="middle" x="263" y="-130.5" font-family="Helvetica,sans-Serif" font-size="10.00">sys/un.h</text>
</a>
</g>
</g>
<!-- Node11&#45;&gt;Node12 -->
<g id="edge14" class="edge">
<title>Node11&#45;&gt;Node12</title>
<path fill="none" stroke="midnightblue" d="M263,-179.4C263,-171.47 263,-161.46 263,-152.86"/>
<polygon fill="midnightblue" stroke="midnightblue" points="266.5,-152.66 263,-142.66 259.5,-152.66 266.5,-152.66"/>
</g>
<!-- Node13 -->
<g id="node13" class="node">
<title>Node13</title>
<g id="a_node13"><a xlink:title=" ">
<polygon fill="white" stroke="#bfbfbf" points="310,-123.5 310,-142.5 420,-142.5 420,-123.5 310,-123.5"/>
<text text-anchor="middle" x="365" y="-130.5" font-family="Helvetica,sans-Serif" font-size="10.00">swl/swl_common.h</text>
</a>
</g>
</g>
<!-- Node11&#45;&gt;Node13 -->
<g id="edge15" class="edge">
<title>Node11&#45;&gt;Node13</title>
<path fill="none" stroke="midnightblue" d="M287.17,-179.4C303.52,-169.86 325.01,-157.32 341.27,-147.84"/>
<polygon fill="midnightblue" stroke="midnightblue" points="343.28,-150.72 350.16,-142.66 339.76,-144.67 343.28,-150.72"/>
</g>
</g>
</svg>
