<?xml version="1.0" encoding="UTF-8" standalone="no"?>
<!DOCTYPE svg PUBLIC "-//W3C//DTD SVG 1.1//EN"
 "http://www.w3.org/Graphics/SVG/1.1/DTD/svg11.dtd">
<!-- Generated by graphviz version 2.43.0 (0)
 -->
<!-- Title: wld_extMod_unregisterData Pages: 1 -->
<svg width="368pt" height="66pt"
 viewBox="0.00 0.00 368.00 66.00" xmlns="http://www.w3.org/2000/svg" xmlns:xlink="http://www.w3.org/1999/xlink">
<g id="graph0" class="graph" transform="scale(1 1) rotate(0) translate(4 62)">
<title>wld_extMod_unregisterData</title>
<polygon fill="white" stroke="transparent" points="-4,4 -4,-62 364,-62 364,4 -4,4"/>
<!-- Node1 -->
<g id="node1" class="node">
<title>Node1</title>
<g id="a_node1"><a xlink:title="unregister the extModData that was registered for a given extModId">
<polygon fill="#bfbfbf" stroke="black" points="206,-19.5 206,-38.5 360,-38.5 360,-19.5 206,-19.5"/>
<text text-anchor="middle" x="283" y="-26.5" font-family="Helvetica,sans-Serif" font-size="10.00">wld_extMod_unregisterData</text>
</a>
</g>
</g>
<!-- Node2 -->
<g id="node2" class="node">
<title>Node2</title>
<g id="a_node2"><a xlink:href="wld__assocdev_8c.html#a262b5c18633f138511d5d05b72135984" target="_top" xlink:title=" ">
<polygon fill="white" stroke="black" points="2,-38.5 2,-57.5 168,-57.5 168,-38.5 2,-38.5"/>
<text text-anchor="middle" x="85" y="-45.5" font-family="Helvetica,sans-Serif" font-size="10.00">wld_ad_unregisterExtModData</text>
</a>
</g>
</g>
<!-- Node1&#45;&gt;Node2 -->
<g id="edge1" class="edge">
<title>Node1&#45;&gt;Node2</title>
<path fill="none" stroke="midnightblue" d="M195.7,-37.37C186.56,-38.25 177.28,-39.15 168.19,-40.03"/>
<polygon fill="midnightblue" stroke="midnightblue" points="196.33,-40.82 205.94,-36.37 195.65,-33.85 196.33,-40.82"/>
</g>
<!-- Node3 -->
<g id="node3" class="node">
<title>Node3</title>
<g id="a_node3"><a xlink:href="wld__radio_8c.html#aed8e22fe3caf7fa575bed77054d8514a" target="_top" xlink:title=" ">
<polygon fill="white" stroke="black" points="0,-0.5 0,-19.5 170,-19.5 170,-0.5 0,-0.5"/>
<text text-anchor="middle" x="85" y="-7.5" font-family="Helvetica,sans-Serif" font-size="10.00">wld_rad_unregisterExtModData</text>
</a>
</g>
</g>
<!-- Node1&#45;&gt;Node3 -->
<g id="edge2" class="edge">
<title>Node1&#45;&gt;Node3</title>
<path fill="none" stroke="midnightblue" d="M195.96,-20.66C187.39,-19.83 178.7,-18.99 170.15,-18.16"/>
<polygon fill="midnightblue" stroke="midnightblue" points="195.65,-24.15 205.94,-21.63 196.33,-17.18 195.65,-24.15"/>
</g>
</g>
</svg>
