<?xml version="1.0" encoding="UTF-8" standalone="no"?>
<!DOCTYPE svg PUBLIC "-//W3C//DTD SVG 1.1//EN"
 "http://www.w3.org/Graphics/SVG/1.1/DTD/svg11.dtd">
<!-- Generated by graphviz version 2.43.0 (0)
 -->
<!-- Title: include/wld/wld_rad_hostapd_api.h Pages: 1 -->
<svg width="5591pt" height="263pt"
 viewBox="0.00 0.00 5590.88 263.00" xmlns="http://www.w3.org/2000/svg" xmlns:xlink="http://www.w3.org/1999/xlink">
<g id="graph0" class="graph" transform="scale(1 1) rotate(0) translate(4 259)">
<title>include/wld/wld_rad_hostapd_api.h</title>
<polygon fill="white" stroke="transparent" points="-4,4 -4,-259 5586.88,-259 5586.88,4 -4,4"/>
<!-- Node1 -->
<g id="node1" class="node">
<title>Node1</title>
<g id="a_node1"><a xlink:title=" ">
<polygon fill="#bfbfbf" stroke="black" points="1219.69,-224.5 1219.69,-254.5 1332.69,-254.5 1332.69,-224.5 1219.69,-224.5"/>
<text text-anchor="start" x="1227.69" y="-242.5" font-family="Helvetica,sans-Serif" font-size="10.00">include/wld/wld_rad</text>
<text text-anchor="middle" x="1276.19" y="-231.5" font-family="Helvetica,sans-Serif" font-size="10.00">_hostapd_api.h</text>
</a>
</g>
</g>
<!-- Node2 -->
<g id="node2" class="node">
<title>Node2</title>
<g id="a_node2"><a xlink:href="wld_8h.html" target="_top" xlink:title=" ">
<polygon fill="white" stroke="red" points="2465.69,-168.5 2465.69,-187.5 2508.69,-187.5 2508.69,-168.5 2465.69,-168.5"/>
<text text-anchor="middle" x="2487.19" y="-175.5" font-family="Helvetica,sans-Serif" font-size="10.00">wld.h</text>
</a>
</g>
</g>
<!-- Node1&#45;&gt;Node2 -->
<g id="edge1" class="edge">
<title>Node1&#45;&gt;Node2</title>
<path fill="none" stroke="midnightblue" d="M1332.97,-235.71C1545.53,-225.27 2290.42,-188.67 2454.89,-180.59"/>
<polygon fill="midnightblue" stroke="midnightblue" points="2455.48,-184.06 2465.29,-180.08 2455.13,-177.07 2455.48,-184.06"/>
</g>
<!-- Node75 -->
<g id="node50" class="node">
<title>Node75</title>
<g id="a_node50"><a xlink:href="wld__hostapd__ap__api_8h.html" target="_top" xlink:title=" ">
<polygon fill="white" stroke="red" points="1162.69,-168.5 1162.69,-187.5 1287.69,-187.5 1287.69,-168.5 1162.69,-168.5"/>
<text text-anchor="middle" x="1225.19" y="-175.5" font-family="Helvetica,sans-Serif" font-size="10.00">wld_hostapd_ap_api.h</text>
</a>
</g>
</g>
<!-- Node1&#45;&gt;Node75 -->
<g id="edge62" class="edge">
<title>Node1&#45;&gt;Node75</title>
<path fill="none" stroke="midnightblue" d="M1264.1,-224.4C1256.62,-215.66 1246.97,-204.41 1239.16,-195.3"/>
<polygon fill="midnightblue" stroke="midnightblue" points="1241.77,-192.97 1232.61,-187.66 1236.46,-197.53 1241.77,-192.97"/>
</g>
<!-- Node3 -->
<g id="node3" class="node">
<title>Node3</title>
<g id="a_node3"><a xlink:title=" ">
<polygon fill="white" stroke="#bfbfbf" points="662.19,-56.5 662.19,-75.5 724.19,-75.5 724.19,-56.5 662.19,-56.5"/>
<text text-anchor="middle" x="693.19" y="-63.5" font-family="Helvetica,sans-Serif" font-size="10.00">stdbool.h</text>
</a>
</g>
</g>
<!-- Node2&#45;&gt;Node3 -->
<g id="edge2" class="edge">
<title>Node2&#45;&gt;Node3</title>
<path fill="none" stroke="midnightblue" d="M2508.79,-176.89C2781.72,-175.54 5549.54,-161.07 5578.19,-132 5584.43,-125.67 5584.45,-118.31 5578.19,-112 5533.03,-66.42 1204.67,-66.8 734.48,-66.98"/>
<polygon fill="midnightblue" stroke="midnightblue" points="734.4,-63.48 724.4,-66.98 734.4,-70.48 734.4,-63.48"/>
</g>
<!-- Node4 -->
<g id="node4" class="node">
<title>Node4</title>
<g id="a_node4"><a xlink:title=" ">
<polygon fill="white" stroke="#bfbfbf" points="1.69,-0.5 1.69,-19.5 54.69,-19.5 54.69,-0.5 1.69,-0.5"/>
<text text-anchor="middle" x="28.19" y="-7.5" font-family="Helvetica,sans-Serif" font-size="10.00">stdint.h</text>
</a>
</g>
</g>
<!-- Node2&#45;&gt;Node4 -->
<g id="edge3" class="edge">
<title>Node2&#45;&gt;Node4</title>
<path fill="none" stroke="midnightblue" d="M2465.58,-176.89C2230.33,-175.65 152.13,-163.79 98.19,-132 59.98,-109.48 40.65,-57.45 32.72,-29.52"/>
<polygon fill="midnightblue" stroke="midnightblue" points="36.09,-28.57 30.14,-19.8 29.32,-30.36 36.09,-28.57"/>
</g>
<!-- Node5 -->
<g id="node5" class="node">
<title>Node5</title>
<g id="a_node5"><a xlink:title=" ">
<polygon fill="white" stroke="#bfbfbf" points="352.19,-56.5 352.19,-75.5 462.19,-75.5 462.19,-56.5 352.19,-56.5"/>
<text text-anchor="middle" x="407.19" y="-63.5" font-family="Helvetica,sans-Serif" font-size="10.00">swl/swl_common.h</text>
</a>
</g>
</g>
<!-- Node2&#45;&gt;Node5 -->
<g id="edge4" class="edge">
<title>Node2&#45;&gt;Node5</title>
<path fill="none" stroke="midnightblue" d="M2465.49,-176.98C2266.54,-176.71 762.07,-173.36 567.19,-132 544.58,-127.2 540.58,-120.75 519.19,-112 491.82,-100.8 460.59,-88.27 438.08,-79.29"/>
<polygon fill="midnightblue" stroke="midnightblue" points="439.28,-76 428.69,-75.55 436.69,-82.5 439.28,-76"/>
</g>
<!-- Node6 -->
<g id="node6" class="node">
<title>Node6</title>
<g id="a_node6"><a xlink:title=" ">
<polygon fill="white" stroke="#bfbfbf" points="780.19,-112.5 780.19,-131.5 916.19,-131.5 916.19,-112.5 780.19,-112.5"/>
<text text-anchor="middle" x="848.19" y="-119.5" font-family="Helvetica,sans-Serif" font-size="10.00">swla/swla_commonLib.h</text>
</a>
</g>
</g>
<!-- Node2&#45;&gt;Node6 -->
<g id="edge5" class="edge">
<title>Node2&#45;&gt;Node6</title>
<path fill="none" stroke="midnightblue" d="M2465.58,-177.09C2328.15,-177.51 1561.9,-177.69 926.87,-132.05"/>
<polygon fill="midnightblue" stroke="midnightblue" points="926.82,-128.54 916.59,-131.31 926.31,-135.52 926.82,-128.54"/>
</g>
<!-- Node7 -->
<g id="node7" class="node">
<title>Node7</title>
<g id="a_node7"><a xlink:title=" ">
<polygon fill="white" stroke="#bfbfbf" points="934.19,-112.5 934.19,-131.5 1022.19,-131.5 1022.19,-112.5 934.19,-112.5"/>
<text text-anchor="middle" x="978.19" y="-119.5" font-family="Helvetica,sans-Serif" font-size="10.00">swl/swl_uuid.h</text>
</a>
</g>
</g>
<!-- Node2&#45;&gt;Node7 -->
<g id="edge6" class="edge">
<title>Node2&#45;&gt;Node7</title>
<path fill="none" stroke="midnightblue" d="M2465.37,-176.74C2308.33,-174.79 1347.83,-161.82 1032.42,-131.95"/>
<polygon fill="midnightblue" stroke="midnightblue" points="1032.67,-128.46 1022.37,-130.97 1031.99,-135.42 1032.67,-128.46"/>
</g>
<!-- Node8 -->
<g id="node8" class="node">
<title>Node8</title>
<g id="a_node8"><a xlink:title=" ">
<polygon fill="white" stroke="#bfbfbf" points="1040.19,-112.5 1040.19,-131.5 1192.19,-131.5 1192.19,-112.5 1040.19,-112.5"/>
<text text-anchor="middle" x="1116.19" y="-119.5" font-family="Helvetica,sans-Serif" font-size="10.00">swla/swla_radioStandards.h</text>
</a>
</g>
</g>
<!-- Node2&#45;&gt;Node8 -->
<g id="edge7" class="edge">
<title>Node2&#45;&gt;Node8</title>
<path fill="none" stroke="midnightblue" d="M2465.56,-176.8C2342.91,-175.57 1722.07,-167.79 1202.92,-131.99"/>
<polygon fill="midnightblue" stroke="midnightblue" points="1202.82,-128.47 1192.6,-131.27 1202.33,-135.46 1202.82,-128.47"/>
</g>
<!-- Node9 -->
<g id="node9" class="node">
<title>Node9</title>
<g id="a_node9"><a xlink:title=" ">
<polygon fill="white" stroke="#bfbfbf" points="208.69,-0.5 208.69,-19.5 309.69,-19.5 309.69,-0.5 208.69,-0.5"/>
<text text-anchor="middle" x="259.19" y="-7.5" font-family="Helvetica,sans-Serif" font-size="10.00">swla/swla_time.h</text>
</a>
</g>
</g>
<!-- Node2&#45;&gt;Node9 -->
<g id="edge8" class="edge">
<title>Node2&#45;&gt;Node9</title>
<path fill="none" stroke="midnightblue" d="M2465.4,-176.8C2228.23,-174.56 133.99,-154.22 112.19,-132 68.95,-87.93 167.06,-43.75 223.28,-23.09"/>
<polygon fill="midnightblue" stroke="midnightblue" points="224.69,-26.3 232.91,-19.62 222.32,-19.71 224.69,-26.3"/>
</g>
<!-- Node10 -->
<g id="node10" class="node">
<title>Node10</title>
<g id="a_node10"><a xlink:title=" ">
<polygon fill="white" stroke="#bfbfbf" points="1210.69,-112.5 1210.69,-131.5 1339.69,-131.5 1339.69,-112.5 1210.69,-112.5"/>
<text text-anchor="middle" x="1275.19" y="-119.5" font-family="Helvetica,sans-Serif" font-size="10.00">swla/swla_time_spec.h</text>
</a>
</g>
</g>
<!-- Node2&#45;&gt;Node10 -->
<g id="edge9" class="edge">
<title>Node2&#45;&gt;Node10</title>
<path fill="none" stroke="midnightblue" d="M2465.45,-176.8C2351.01,-175.61 1806.6,-168.26 1349.83,-131.97"/>
<polygon fill="midnightblue" stroke="midnightblue" points="1349.98,-128.47 1339.73,-131.16 1349.42,-135.45 1349.98,-128.47"/>
</g>
<!-- Node11 -->
<g id="node11" class="node">
<title>Node11</title>
<g id="a_node11"><a xlink:title=" ">
<polygon fill="white" stroke="#bfbfbf" points="1358.19,-112.5 1358.19,-131.5 1452.19,-131.5 1452.19,-112.5 1358.19,-112.5"/>
<text text-anchor="middle" x="1405.19" y="-119.5" font-family="Helvetica,sans-Serif" font-size="10.00">swla/swla_oui.h</text>
</a>
</g>
</g>
<!-- Node2&#45;&gt;Node11 -->
<g id="edge10" class="edge">
<title>Node2&#45;&gt;Node11</title>
<path fill="none" stroke="midnightblue" d="M2465.46,-176.98C2357.85,-176.67 1871.12,-173.02 1462.44,-132"/>
<polygon fill="midnightblue" stroke="midnightblue" points="1462.49,-128.48 1452.19,-130.96 1461.79,-135.45 1462.49,-128.48"/>
</g>
<!-- Node12 -->
<g id="node12" class="node">
<title>Node12</title>
<g id="a_node12"><a xlink:title=" ">
<polygon fill="white" stroke="#bfbfbf" points="1470.19,-112.5 1470.19,-131.5 1598.19,-131.5 1598.19,-112.5 1470.19,-112.5"/>
<text text-anchor="middle" x="1534.19" y="-119.5" font-family="Helvetica,sans-Serif" font-size="10.00">swla/swla_delayExec.h</text>
</a>
</g>
</g>
<!-- Node2&#45;&gt;Node12 -->
<g id="edge11" class="edge">
<title>Node2&#45;&gt;Node12</title>
<path fill="none" stroke="midnightblue" d="M2465.4,-176.45C2367.37,-173.84 1957.12,-161.66 1608.38,-131.94"/>
<polygon fill="midnightblue" stroke="midnightblue" points="1608.6,-128.45 1598.34,-131.08 1608,-135.42 1608.6,-128.45"/>
</g>
<!-- Node13 -->
<g id="node13" class="node">
<title>Node13</title>
<g id="a_node13"><a xlink:title=" ">
<polygon fill="white" stroke="#bfbfbf" points="1616.69,-112.5 1616.69,-131.5 1735.69,-131.5 1735.69,-112.5 1616.69,-112.5"/>
<text text-anchor="middle" x="1676.19" y="-119.5" font-family="Helvetica,sans-Serif" font-size="10.00">swla/swla_function.h</text>
</a>
</g>
</g>
<!-- Node2&#45;&gt;Node13 -->
<g id="edge12" class="edge">
<title>Node2&#45;&gt;Node13</title>
<path fill="none" stroke="midnightblue" d="M2465.6,-176.24C2377.63,-173.01 2037.54,-159.45 1746.34,-132.04"/>
<polygon fill="midnightblue" stroke="midnightblue" points="1746.29,-128.52 1736,-131.06 1745.62,-135.49 1746.29,-128.52"/>
</g>
<!-- Node14 -->
<g id="node14" class="node">
<title>Node14</title>
<g id="a_node14"><a xlink:title=" ">
<polygon fill="white" stroke="#bfbfbf" points="1753.69,-112.5 1753.69,-131.5 1894.69,-131.5 1894.69,-112.5 1753.69,-112.5"/>
<text text-anchor="middle" x="1824.19" y="-119.5" font-family="Helvetica,sans-Serif" font-size="10.00">swl/swl_usp_cmdStatus.h</text>
</a>
</g>
</g>
<!-- Node2&#45;&gt;Node14 -->
<g id="edge13" class="edge">
<title>Node2&#45;&gt;Node14</title>
<path fill="none" stroke="midnightblue" d="M2465.46,-175.6C2389.8,-170.66 2130.73,-153.27 1904.89,-132.03"/>
<polygon fill="midnightblue" stroke="midnightblue" points="1905.13,-128.54 1894.85,-131.08 1904.47,-135.51 1905.13,-128.54"/>
</g>
<!-- Node15 -->
<g id="node15" class="node">
<title>Node15</title>
<g id="a_node15"><a xlink:title=" ">
<polygon fill="white" stroke="#bfbfbf" points="1913.19,-112.5 1913.19,-131.5 1999.19,-131.5 1999.19,-112.5 1913.19,-112.5"/>
<text text-anchor="middle" x="1956.19" y="-119.5" font-family="Helvetica,sans-Serif" font-size="10.00">swl/swl_wps.h</text>
</a>
</g>
</g>
<!-- Node2&#45;&gt;Node15 -->
<g id="edge14" class="edge">
<title>Node2&#45;&gt;Node15</title>
<path fill="none" stroke="midnightblue" d="M2465.64,-175.58C2399.25,-171.06 2191.81,-156.01 2009.33,-132.05"/>
<polygon fill="midnightblue" stroke="midnightblue" points="2009.65,-128.57 1999.28,-130.72 2008.73,-135.51 2009.65,-128.57"/>
</g>
<!-- Node16 -->
<g id="node16" class="node">
<title>Node16</title>
<g id="a_node16"><a xlink:title=" ">
<polygon fill="white" stroke="#bfbfbf" points="2017.19,-112.5 2017.19,-131.5 2121.19,-131.5 2121.19,-112.5 2017.19,-112.5"/>
<text text-anchor="middle" x="2069.19" y="-119.5" font-family="Helvetica,sans-Serif" font-size="10.00">swl/swl_security.h</text>
</a>
</g>
</g>
<!-- Node2&#45;&gt;Node16 -->
<g id="edge15" class="edge">
<title>Node2&#45;&gt;Node16</title>
<path fill="none" stroke="midnightblue" d="M2465.5,-174.4C2409.9,-167.7 2257.74,-149.18 2131.19,-132 2131.09,-131.99 2130.99,-131.97 2130.89,-131.96"/>
<polygon fill="midnightblue" stroke="midnightblue" points="2131.66,-128.53 2121.27,-130.63 2130.7,-135.47 2131.66,-128.53"/>
</g>
<!-- Node17 -->
<g id="node17" class="node">
<title>Node17</title>
<g id="a_node17"><a xlink:title=" ">
<polygon fill="white" stroke="#bfbfbf" points="2139.69,-112.5 2139.69,-131.5 2222.69,-131.5 2222.69,-112.5 2139.69,-112.5"/>
<text text-anchor="middle" x="2181.19" y="-119.5" font-family="Helvetica,sans-Serif" font-size="10.00">amxc/amxc.h</text>
</a>
</g>
</g>
<!-- Node2&#45;&gt;Node17 -->
<g id="edge16" class="edge">
<title>Node2&#45;&gt;Node17</title>
<path fill="none" stroke="midnightblue" d="M2465.67,-173.2C2417.73,-164.74 2301.01,-144.14 2232.9,-132.13"/>
<polygon fill="midnightblue" stroke="midnightblue" points="2233.27,-128.64 2222.81,-130.35 2232.05,-135.53 2233.27,-128.64"/>
</g>
<!-- Node18 -->
<g id="node18" class="node">
<title>Node18</title>
<g id="a_node18"><a xlink:title=" ">
<polygon fill="white" stroke="#bfbfbf" points="2241.19,-112.5 2241.19,-131.5 2325.19,-131.5 2325.19,-112.5 2241.19,-112.5"/>
<text text-anchor="middle" x="2283.19" y="-119.5" font-family="Helvetica,sans-Serif" font-size="10.00">amxp/amxp.h</text>
</a>
</g>
</g>
<!-- Node2&#45;&gt;Node18 -->
<g id="edge17" class="edge">
<title>Node2&#45;&gt;Node18</title>
<path fill="none" stroke="midnightblue" d="M2465.36,-171.22C2432.05,-162.41 2367.94,-145.43 2325.36,-134.16"/>
<polygon fill="midnightblue" stroke="midnightblue" points="2326.12,-130.74 2315.56,-131.57 2324.33,-137.51 2326.12,-130.74"/>
</g>
<!-- Node19 -->
<g id="node19" class="node">
<title>Node19</title>
<g id="a_node19"><a xlink:title=" ">
<polygon fill="white" stroke="#bfbfbf" points="2343.19,-112.5 2343.19,-131.5 2483.19,-131.5 2483.19,-112.5 2343.19,-112.5"/>
<text text-anchor="middle" x="2413.19" y="-119.5" font-family="Helvetica,sans-Serif" font-size="10.00">amxd/amxd_parameter.h</text>
</a>
</g>
</g>
<!-- Node2&#45;&gt;Node19 -->
<g id="edge18" class="edge">
<title>Node2&#45;&gt;Node19</title>
<path fill="none" stroke="midnightblue" d="M2475.3,-168.32C2464.04,-160.11 2446.9,-147.6 2433.48,-137.81"/>
<polygon fill="midnightblue" stroke="midnightblue" points="2435.44,-134.9 2425.29,-131.83 2431.31,-140.56 2435.44,-134.9"/>
</g>
<!-- Node20 -->
<g id="node20" class="node">
<title>Node20</title>
<g id="a_node20"><a xlink:title=" ">
<polygon fill="white" stroke="#bfbfbf" points="2501.69,-112.5 2501.69,-131.5 2620.69,-131.5 2620.69,-112.5 2501.69,-112.5"/>
<text text-anchor="middle" x="2561.19" y="-119.5" font-family="Helvetica,sans-Serif" font-size="10.00">amxd/amxd_action.h</text>
</a>
</g>
</g>
<!-- Node2&#45;&gt;Node20 -->
<g id="edge19" class="edge">
<title>Node2&#45;&gt;Node20</title>
<path fill="none" stroke="midnightblue" d="M2499.08,-168.32C2510.34,-160.11 2527.48,-147.6 2540.9,-137.81"/>
<polygon fill="midnightblue" stroke="midnightblue" points="2543.07,-140.56 2549.08,-131.83 2538.94,-134.9 2543.07,-140.56"/>
</g>
<!-- Node21 -->
<g id="node21" class="node">
<title>Node21</title>
<g id="a_node21"><a xlink:title=" ">
<polygon fill="white" stroke="#bfbfbf" points="2638.69,-112.5 2638.69,-131.5 2813.69,-131.5 2813.69,-112.5 2638.69,-112.5"/>
<text text-anchor="middle" x="2726.19" y="-119.5" font-family="Helvetica,sans-Serif" font-size="10.00">amxd/amxd_object_parameter.h</text>
</a>
</g>
</g>
<!-- Node2&#45;&gt;Node21 -->
<g id="edge20" class="edge">
<title>Node2&#45;&gt;Node21</title>
<path fill="none" stroke="midnightblue" d="M2508.82,-172.11C2546.95,-163.5 2626.98,-145.42 2678.57,-133.76"/>
<polygon fill="midnightblue" stroke="midnightblue" points="2679.5,-137.14 2688.49,-131.52 2677.96,-130.31 2679.5,-137.14"/>
</g>
<!-- Node22 -->
<g id="node22" class="node">
<title>Node22</title>
<g id="a_node22"><a xlink:title=" ">
<polygon fill="white" stroke="#bfbfbf" points="2832.19,-112.5 2832.19,-131.5 2984.19,-131.5 2984.19,-112.5 2832.19,-112.5"/>
<text text-anchor="middle" x="2908.19" y="-119.5" font-family="Helvetica,sans-Serif" font-size="10.00">amxd/amxd_object_event.h</text>
</a>
</g>
</g>
<!-- Node2&#45;&gt;Node22 -->
<g id="edge21" class="edge">
<title>Node2&#45;&gt;Node22</title>
<path fill="none" stroke="midnightblue" d="M2508.94,-174.21C2567.89,-166.65 2732.9,-145.48 2831.36,-132.85"/>
<polygon fill="midnightblue" stroke="midnightblue" points="2832.09,-136.29 2841.56,-131.55 2831.2,-129.35 2832.09,-136.29"/>
</g>
<!-- Node23 -->
<g id="node23" class="node">
<title>Node23</title>
<g id="a_node23"><a xlink:title=" ">
<polygon fill="white" stroke="#bfbfbf" points="3002.69,-112.5 3002.69,-131.5 3131.69,-131.5 3131.69,-112.5 3002.69,-112.5"/>
<text text-anchor="middle" x="3067.19" y="-119.5" font-family="Helvetica,sans-Serif" font-size="10.00">amxd/amxd_function.h</text>
</a>
</g>
</g>
<!-- Node2&#45;&gt;Node23 -->
<g id="edge22" class="edge">
<title>Node2&#45;&gt;Node23</title>
<path fill="none" stroke="midnightblue" d="M2508.91,-175.32C2577.88,-169.94 2798.22,-152.33 2992.52,-132.04"/>
<polygon fill="midnightblue" stroke="midnightblue" points="2993.05,-135.5 3002.63,-130.98 2992.32,-128.54 2993.05,-135.5"/>
</g>
<!-- Node24 -->
<g id="node24" class="node">
<title>Node24</title>
<g id="a_node24"><a xlink:title=" ">
<polygon fill="white" stroke="#bfbfbf" points="3149.69,-112.5 3149.69,-131.5 3318.69,-131.5 3318.69,-112.5 3149.69,-112.5"/>
<text text-anchor="middle" x="3234.19" y="-119.5" font-family="Helvetica,sans-Serif" font-size="10.00">amxd/amxd_object_hierarchy.h</text>
</a>
</g>
</g>
<!-- Node2&#45;&gt;Node24 -->
<g id="edge23" class="edge">
<title>Node2&#45;&gt;Node24</title>
<path fill="none" stroke="midnightblue" d="M2508.94,-175.72C2590.37,-170.9 2885.16,-153.02 3139.38,-132.13"/>
<polygon fill="midnightblue" stroke="midnightblue" points="3139.87,-135.6 3149.55,-131.29 3139.3,-128.63 3139.87,-135.6"/>
</g>
<!-- Node25 -->
<g id="node25" class="node">
<title>Node25</title>
<g id="a_node25"><a xlink:title=" ">
<polygon fill="white" stroke="#bfbfbf" points="3336.69,-112.5 3336.69,-131.5 3455.69,-131.5 3455.69,-112.5 3336.69,-112.5"/>
<text text-anchor="middle" x="3396.19" y="-119.5" font-family="Helvetica,sans-Serif" font-size="10.00">amxd/amxd_object.h</text>
</a>
</g>
</g>
<!-- Node2&#45;&gt;Node25 -->
<g id="edge24" class="edge">
<title>Node2&#45;&gt;Node25</title>
<path fill="none" stroke="midnightblue" d="M2509,-176.46C2604.45,-173.97 2995.03,-162.4 3326.24,-132.11"/>
<polygon fill="midnightblue" stroke="midnightblue" points="3326.88,-135.57 3336.51,-131.17 3326.24,-128.6 3326.88,-135.57"/>
</g>
<!-- Node26 -->
<g id="node26" class="node">
<title>Node26</title>
<g id="a_node26"><a xlink:title=" ">
<polygon fill="white" stroke="#bfbfbf" points="3473.69,-112.5 3473.69,-131.5 3578.69,-131.5 3578.69,-112.5 3473.69,-112.5"/>
<text text-anchor="middle" x="3526.19" y="-119.5" font-family="Helvetica,sans-Serif" font-size="10.00">amxd/amxd_dm.h</text>
</a>
</g>
</g>
<!-- Node2&#45;&gt;Node26 -->
<g id="edge25" class="edge">
<title>Node2&#45;&gt;Node26</title>
<path fill="none" stroke="midnightblue" d="M2508.93,-176.81C2613.5,-175.72 3075.27,-168.98 3463.63,-132.05"/>
<polygon fill="midnightblue" stroke="midnightblue" points="3464.04,-135.53 3473.66,-131.09 3463.37,-128.56 3464.04,-135.53"/>
</g>
<!-- Node27 -->
<g id="node27" class="node">
<title>Node27</title>
<g id="a_node27"><a xlink:title=" ">
<polygon fill="white" stroke="#bfbfbf" points="3597.19,-112.5 3597.19,-131.5 3741.19,-131.5 3741.19,-112.5 3597.19,-112.5"/>
<text text-anchor="middle" x="3669.19" y="-119.5" font-family="Helvetica,sans-Serif" font-size="10.00">amxd/amxd_transaction.h</text>
</a>
</g>
</g>
<!-- Node2&#45;&gt;Node27 -->
<g id="edge26" class="edge">
<title>Node2&#45;&gt;Node27</title>
<path fill="none" stroke="midnightblue" d="M2508.95,-176.68C2621.2,-174.89 3146.19,-165.09 3586.72,-132.06"/>
<polygon fill="midnightblue" stroke="midnightblue" points="3587.08,-135.54 3596.79,-131.3 3586.55,-128.56 3587.08,-135.54"/>
</g>
<!-- Node28 -->
<g id="node28" class="node">
<title>Node28</title>
<g id="a_node28"><a xlink:title=" ">
<polygon fill="white" stroke="#bfbfbf" points="3759.19,-112.5 3759.19,-131.5 3875.19,-131.5 3875.19,-112.5 3759.19,-112.5"/>
<text text-anchor="middle" x="3817.19" y="-119.5" font-family="Helvetica,sans-Serif" font-size="10.00">amxb/amxb_types.h</text>
</a>
</g>
</g>
<!-- Node2&#45;&gt;Node28 -->
<g id="edge27" class="edge">
<title>Node2&#45;&gt;Node28</title>
<path fill="none" stroke="midnightblue" d="M2508.86,-177.02C2630.45,-176.97 3240.33,-174.57 3749.01,-132.01"/>
<polygon fill="midnightblue" stroke="midnightblue" points="3749.45,-135.48 3759.12,-131.15 3748.86,-128.51 3749.45,-135.48"/>
</g>
<!-- Node29 -->
<g id="node29" class="node">
<title>Node29</title>
<g id="a_node29"><a xlink:title=" ">
<polygon fill="white" stroke="#bfbfbf" points="3893.19,-112.5 3893.19,-131.5 4029.19,-131.5 4029.19,-112.5 3893.19,-112.5"/>
<text text-anchor="middle" x="3961.19" y="-119.5" font-family="Helvetica,sans-Serif" font-size="10.00">amxb/amxb_operators.h</text>
</a>
</g>
</g>
<!-- Node2&#45;&gt;Node29 -->
<g id="edge28" class="edge">
<title>Node2&#45;&gt;Node29</title>
<path fill="none" stroke="midnightblue" d="M2508.98,-176.99C2638.26,-176.76 3317.76,-173.59 3882.8,-132.04"/>
<polygon fill="midnightblue" stroke="midnightblue" points="3883.07,-135.53 3892.78,-131.3 3882.55,-128.55 3883.07,-135.53"/>
</g>
<!-- Node30 -->
<g id="node30" class="node">
<title>Node30</title>
<g id="a_node30"><a xlink:title=" ">
<polygon fill="white" stroke="#bfbfbf" points="4047.19,-112.5 4047.19,-131.5 4159.19,-131.5 4159.19,-112.5 4047.19,-112.5"/>
<text text-anchor="middle" x="4103.19" y="-119.5" font-family="Helvetica,sans-Serif" font-size="10.00">amxb/amxb_error.h</text>
</a>
</g>
</g>
<!-- Node2&#45;&gt;Node30 -->
<g id="edge29" class="edge">
<title>Node2&#45;&gt;Node30</title>
<path fill="none" stroke="midnightblue" d="M2508.83,-176.7C2671.11,-174.37 3700.33,-158.74 4036.63,-132.01"/>
<polygon fill="midnightblue" stroke="midnightblue" points="4037.18,-135.48 4046.86,-131.18 4036.61,-128.51 4037.18,-135.48"/>
</g>
<!-- Node31 -->
<g id="node31" class="node">
<title>Node31</title>
<g id="a_node31"><a xlink:title=" ">
<polygon fill="white" stroke="#bfbfbf" points="4177.69,-112.5 4177.69,-131.5 4260.69,-131.5 4260.69,-112.5 4177.69,-112.5"/>
<text text-anchor="middle" x="4219.19" y="-119.5" font-family="Helvetica,sans-Serif" font-size="10.00">amxo/amxo.h</text>
</a>
</g>
</g>
<!-- Node2&#45;&gt;Node31 -->
<g id="edge30" class="edge">
<title>Node2&#45;&gt;Node31</title>
<path fill="none" stroke="midnightblue" d="M2508.71,-176.86C2678.4,-175.71 3803.38,-166.9 4167.48,-131.86"/>
<polygon fill="midnightblue" stroke="midnightblue" points="4167.9,-135.34 4177.51,-130.87 4167.21,-128.37 4167.9,-135.34"/>
</g>
<!-- Node32 -->
<g id="node32" class="node">
<title>Node32</title>
<g id="a_node32"><a xlink:title=" ">
<polygon fill="white" stroke="#bfbfbf" points="4278.69,-112.5 4278.69,-131.5 4393.69,-131.5 4393.69,-112.5 4278.69,-112.5"/>
<text text-anchor="middle" x="4336.19" y="-119.5" font-family="Helvetica,sans-Serif" font-size="10.00">amxo/amxo_types.h</text>
</a>
</g>
</g>
<!-- Node2&#45;&gt;Node32 -->
<g id="edge31" class="edge">
<title>Node2&#45;&gt;Node32</title>
<path fill="none" stroke="midnightblue" d="M2508.87,-176.78C2684.9,-174.97 3882.92,-161.71 4268.57,-132.02"/>
<polygon fill="midnightblue" stroke="midnightblue" points="4268.94,-135.5 4278.64,-131.23 4268.39,-128.53 4268.94,-135.5"/>
</g>
<!-- Node33 -->
<g id="node33" class="node">
<title>Node33</title>
<g id="a_node33"><a xlink:href="wld__types_8h.html" target="_top" xlink:title=" ">
<polygon fill="white" stroke="red" points="221.69,-56.5 221.69,-75.5 296.69,-75.5 296.69,-56.5 221.69,-56.5"/>
<text text-anchor="middle" x="259.19" y="-63.5" font-family="Helvetica,sans-Serif" font-size="10.00">wld_types.h</text>
</a>
</g>
</g>
<!-- Node2&#45;&gt;Node33 -->
<g id="edge32" class="edge">
<title>Node2&#45;&gt;Node33</title>
<path fill="none" stroke="midnightblue" d="M2465.5,-176.8C2229.43,-174.55 144.88,-154.11 123.19,-132 92.33,-100.54 160.91,-82.35 211.47,-73.57"/>
<polygon fill="midnightblue" stroke="midnightblue" points="212.33,-76.98 221.62,-71.89 211.19,-70.07 212.33,-76.98"/>
</g>
<!-- Node34 -->
<g id="node34" class="node">
<title>Node34</title>
<g id="a_node34"><a xlink:title=" ">
<polygon fill="white" stroke="#bfbfbf" points="503.69,-0.5 503.69,-19.5 648.69,-19.5 648.69,-0.5 503.69,-0.5"/>
<text text-anchor="middle" x="576.19" y="-7.5" font-family="Helvetica,sans-Serif" font-size="10.00">swl/types/swl_arrayType.h</text>
</a>
</g>
</g>
<!-- Node2&#45;&gt;Node34 -->
<g id="edge60" class="edge">
<title>Node2&#45;&gt;Node34</title>
<path fill="none" stroke="midnightblue" d="M2465.58,-177.07C2272.34,-177.58 846.19,-179.72 771.19,-132 739.33,-111.73 762.24,-80.13 733.19,-56 712.2,-38.57 684.82,-27.88 658.81,-21.34"/>
<polygon fill="midnightblue" stroke="midnightblue" points="659.45,-17.89 648.92,-19.02 657.86,-24.71 659.45,-17.89"/>
</g>
<!-- Node36 -->
<g id="node35" class="node">
<title>Node36</title>
<g id="a_node35"><a xlink:href="wld__channel__types_8h.html" target="_top" xlink:title=" ">
<polygon fill="white" stroke="black" points="604.69,-112.5 604.69,-131.5 723.69,-131.5 723.69,-112.5 604.69,-112.5"/>
<text text-anchor="middle" x="664.19" y="-119.5" font-family="Helvetica,sans-Serif" font-size="10.00">wld_channel_types.h</text>
</a>
</g>
</g>
<!-- Node2&#45;&gt;Node36 -->
<g id="edge36" class="edge">
<title>Node2&#45;&gt;Node36</title>
<path fill="none" stroke="midnightblue" d="M2465.65,-176.73C2290.49,-174.49 1097.16,-158.39 738.19,-132 736.88,-131.9 735.56,-131.8 734.23,-131.69"/>
<polygon fill="midnightblue" stroke="midnightblue" points="734.19,-128.17 723.92,-130.76 733.56,-135.15 734.19,-128.17"/>
</g>
<!-- Node37 -->
<g id="node36" class="node">
<title>Node37</title>
<g id="a_node36"><a xlink:title=" ">
<polygon fill="white" stroke="#bfbfbf" points="480.69,-56.5 480.69,-75.5 605.69,-75.5 605.69,-56.5 480.69,-56.5"/>
<text text-anchor="middle" x="543.19" y="-63.5" font-family="Helvetica,sans-Serif" font-size="10.00">swla/swla_chanspec.h</text>
</a>
</g>
</g>
<!-- Node2&#45;&gt;Node37 -->
<g id="edge54" class="edge">
<title>Node2&#45;&gt;Node37</title>
<path fill="none" stroke="midnightblue" d="M2465.42,-177C2261.02,-176.96 684.44,-175.21 596.19,-132 576.02,-122.13 560.92,-100.56 552.1,-84.97"/>
<polygon fill="midnightblue" stroke="midnightblue" points="555,-82.97 547.22,-75.77 548.81,-86.25 555,-82.97"/>
</g>
<!-- Node38 -->
<g id="node37" class="node">
<title>Node38</title>
<g id="a_node37"><a xlink:href="wld__bgdfs_8h.html" target="_top" xlink:title=" ">
<polygon fill="white" stroke="black" points="132.69,-112.5 132.69,-131.5 207.69,-131.5 207.69,-112.5 132.69,-112.5"/>
<text text-anchor="middle" x="170.19" y="-119.5" font-family="Helvetica,sans-Serif" font-size="10.00">wld_bgdfs.h</text>
</a>
</g>
</g>
<!-- Node2&#45;&gt;Node38 -->
<g id="edge40" class="edge">
<title>Node2&#45;&gt;Node38</title>
<path fill="none" stroke="midnightblue" d="M2465.47,-176.8C2249.96,-174.78 497.16,-157.64 217.8,-131.9"/>
<polygon fill="midnightblue" stroke="midnightblue" points="218.06,-128.41 207.76,-130.9 217.37,-135.37 218.06,-128.41"/>
</g>
<!-- Node39 -->
<g id="node38" class="node">
<title>Node39</title>
<g id="a_node38"><a xlink:href="wld__rad__delayMgr_8h.html" target="_top" xlink:title=" ">
<polygon fill="white" stroke="black" points="4412.19,-112.5 4412.19,-131.5 4526.19,-131.5 4526.19,-112.5 4412.19,-112.5"/>
<text text-anchor="middle" x="4469.19" y="-119.5" font-family="Helvetica,sans-Serif" font-size="10.00">wld_rad_delayMgr.h</text>
</a>
</g>
</g>
<!-- Node2&#45;&gt;Node39 -->
<g id="edge42" class="edge">
<title>Node2&#45;&gt;Node39</title>
<path fill="none" stroke="midnightblue" d="M2508.93,-176.81C2693.7,-175.22 4001.15,-163.31 4394.19,-132 4396.71,-131.8 4399.28,-131.57 4401.89,-131.31"/>
<polygon fill="midnightblue" stroke="midnightblue" points="4402.46,-134.77 4412.02,-130.21 4401.7,-127.81 4402.46,-134.77"/>
</g>
<!-- Node40 -->
<g id="node39" class="node">
<title>Node40</title>
<g id="a_node39"><a xlink:href="wld__fsm_8h.html" target="_top" xlink:title=" ">
<polygon fill="white" stroke="black" points="225.69,-112.5 225.69,-131.5 292.69,-131.5 292.69,-112.5 225.69,-112.5"/>
<text text-anchor="middle" x="259.19" y="-119.5" font-family="Helvetica,sans-Serif" font-size="10.00">wld_fsm.h</text>
</a>
</g>
</g>
<!-- Node2&#45;&gt;Node40 -->
<g id="edge44" class="edge">
<title>Node2&#45;&gt;Node40</title>
<path fill="none" stroke="midnightblue" d="M2465.62,-176.81C2255.36,-174.88 572.76,-158.77 303.07,-131.91"/>
<polygon fill="midnightblue" stroke="midnightblue" points="303.34,-128.42 293.02,-130.83 302.59,-135.38 303.34,-128.42"/>
</g>
<!-- Node41 -->
<g id="node40" class="node">
<title>Node41</title>
<g id="a_node40"><a xlink:href="wld__sensing_8h.html" target="_top" xlink:title=" ">
<polygon fill="white" stroke="black" points="4544.19,-112.5 4544.19,-131.5 4630.19,-131.5 4630.19,-112.5 4544.19,-112.5"/>
<text text-anchor="middle" x="4587.19" y="-119.5" font-family="Helvetica,sans-Serif" font-size="10.00">wld_sensing.h</text>
</a>
</g>
</g>
<!-- Node2&#45;&gt;Node41 -->
<g id="edge46" class="edge">
<title>Node2&#45;&gt;Node41</title>
<path fill="none" stroke="midnightblue" d="M2508.72,-176.97C2699.78,-176.63 4105.39,-172.81 4526.19,-132 4528.7,-131.76 4531.28,-131.46 4533.88,-131.13"/>
<polygon fill="midnightblue" stroke="midnightblue" points="4534.61,-134.56 4544.02,-129.68 4533.62,-127.63 4534.61,-134.56"/>
</g>
<!-- Node42 -->
<g id="node41" class="node">
<title>Node42</title>
<g id="a_node41"><a xlink:href="wld__mld_8h.html" target="_top" xlink:title=" ">
<polygon fill="white" stroke="black" points="310.69,-112.5 310.69,-131.5 377.69,-131.5 377.69,-112.5 310.69,-112.5"/>
<text text-anchor="middle" x="344.19" y="-119.5" font-family="Helvetica,sans-Serif" font-size="10.00">wld_mld.h</text>
</a>
</g>
</g>
<!-- Node2&#45;&gt;Node42 -->
<g id="edge48" class="edge">
<title>Node2&#45;&gt;Node42</title>
<path fill="none" stroke="midnightblue" d="M2465.5,-176.78C2259.47,-174.65 649.25,-157.32 387.97,-131.74"/>
<polygon fill="midnightblue" stroke="midnightblue" points="388.21,-128.24 377.89,-130.67 387.47,-135.2 388.21,-128.24"/>
</g>
<!-- Node43 -->
<g id="node42" class="node">
<title>Node43</title>
<g id="a_node42"><a xlink:href="wld__autoCommitRadData_8h.html" target="_top" xlink:title=" ">
<polygon fill="white" stroke="black" points="4648.19,-112.5 4648.19,-131.5 4824.19,-131.5 4824.19,-112.5 4648.19,-112.5"/>
<text text-anchor="middle" x="4736.19" y="-119.5" font-family="Helvetica,sans-Serif" font-size="10.00">Utils/wld_autoCommitRadData.h</text>
</a>
</g>
</g>
<!-- Node2&#45;&gt;Node43 -->
<g id="edge50" class="edge">
<title>Node2&#45;&gt;Node43</title>
<path fill="none" stroke="midnightblue" d="M2508.94,-177.14C2674.4,-178.06 3751.43,-181.91 4638.09,-132.01"/>
<polygon fill="midnightblue" stroke="midnightblue" points="4638.39,-135.5 4648.18,-131.44 4638,-128.51 4638.39,-135.5"/>
</g>
<!-- Node44 -->
<g id="node43" class="node">
<title>Node44</title>
<g id="a_node43"><a xlink:href="wld__dmnMgt_8h.html" target="_top" xlink:title=" ">
<polygon fill="white" stroke="red" points="396.19,-112.5 396.19,-131.5 510.19,-131.5 510.19,-112.5 396.19,-112.5"/>
<text text-anchor="middle" x="453.19" y="-119.5" font-family="Helvetica,sans-Serif" font-size="10.00">Utils/wld_dmnMgt.h</text>
</a>
</g>
</g>
<!-- Node2&#45;&gt;Node44 -->
<g id="edge51" class="edge">
<title>Node2&#45;&gt;Node44</title>
<path fill="none" stroke="midnightblue" d="M2465.44,-176.81C2277.73,-175.14 928.72,-162.2 524.19,-132 523.07,-131.92 521.95,-131.83 520.82,-131.73"/>
<polygon fill="midnightblue" stroke="midnightblue" points="520.77,-128.22 510.49,-130.78 520.12,-135.19 520.77,-128.22"/>
</g>
<!-- Node46 -->
<g id="node44" class="node">
<title>Node46</title>
<g id="a_node44"><a xlink:title=" ">
<polygon fill="white" stroke="#bfbfbf" points="4842.69,-112.5 4842.69,-131.5 4943.69,-131.5 4943.69,-112.5 4842.69,-112.5"/>
<text text-anchor="middle" x="4893.19" y="-119.5" font-family="Helvetica,sans-Serif" font-size="10.00">swl/swl_staCap.h</text>
</a>
</g>
</g>
<!-- Node2&#45;&gt;Node46 -->
<g id="edge55" class="edge">
<title>Node2&#45;&gt;Node46</title>
<path fill="none" stroke="midnightblue" d="M2508.79,-176.97C2714.08,-176.67 4324.6,-173.02 4832.18,-131.93"/>
<polygon fill="midnightblue" stroke="midnightblue" points="4832.83,-135.39 4842.5,-131.07 4832.25,-128.41 4832.83,-135.39"/>
</g>
<!-- Node47 -->
<g id="node45" class="node">
<title>Node47</title>
<g id="a_node45"><a xlink:title=" ">
<polygon fill="white" stroke="#bfbfbf" points="4962.19,-112.5 4962.19,-131.5 5066.19,-131.5 5066.19,-112.5 4962.19,-112.5"/>
<text text-anchor="middle" x="5014.19" y="-119.5" font-family="Helvetica,sans-Serif" font-size="10.00">swla/swla_table.h</text>
</a>
</g>
</g>
<!-- Node2&#45;&gt;Node47 -->
<g id="edge56" class="edge">
<title>Node2&#45;&gt;Node47</title>
<path fill="none" stroke="midnightblue" d="M2508.88,-176.99C2720.44,-176.84 4419.33,-174.31 4951.93,-131.97"/>
<polygon fill="midnightblue" stroke="midnightblue" points="4952.31,-135.45 4962,-131.15 4951.75,-128.47 4952.31,-135.45"/>
</g>
<!-- Node48 -->
<g id="node46" class="node">
<title>Node48</title>
<g id="a_node46"><a xlink:title=" ">
<polygon fill="white" stroke="#bfbfbf" points="5084.69,-112.5 5084.69,-131.5 5181.69,-131.5 5181.69,-112.5 5084.69,-112.5"/>
<text text-anchor="middle" x="5133.19" y="-119.5" font-family="Helvetica,sans-Serif" font-size="10.00">swl/swl_assert.h</text>
</a>
</g>
</g>
<!-- Node2&#45;&gt;Node48 -->
<g id="edge57" class="edge">
<title>Node2&#45;&gt;Node48</title>
<path fill="none" stroke="midnightblue" d="M2508.92,-177.03C2726.44,-177.31 4515.05,-178.2 5074.35,-131.9"/>
<polygon fill="midnightblue" stroke="midnightblue" points="5074.84,-135.38 5084.51,-131.05 5074.25,-128.4 5074.84,-135.38"/>
</g>
<!-- Node49 -->
<g id="node47" class="node">
<title>Node49</title>
<g id="a_node47"><a xlink:title=" ">
<polygon fill="white" stroke="#bfbfbf" points="5199.69,-112.5 5199.69,-131.5 5320.69,-131.5 5320.69,-112.5 5199.69,-112.5"/>
<text text-anchor="middle" x="5260.19" y="-119.5" font-family="Helvetica,sans-Serif" font-size="10.00">swl/swl_returnCode.h</text>
</a>
</g>
</g>
<!-- Node2&#45;&gt;Node49 -->
<g id="edge58" class="edge">
<title>Node2&#45;&gt;Node49</title>
<path fill="none" stroke="midnightblue" d="M2508.83,-176.98C2731.28,-176.72 4605.38,-173.36 5189.45,-132.03"/>
<polygon fill="midnightblue" stroke="midnightblue" points="5189.92,-135.5 5199.65,-131.29 5189.42,-128.52 5189.92,-135.5"/>
</g>
<!-- Node50 -->
<g id="node48" class="node">
<title>Node50</title>
<g id="a_node48"><a xlink:title=" ">
<polygon fill="white" stroke="#bfbfbf" points="5339.19,-112.5 5339.19,-131.5 5465.19,-131.5 5465.19,-112.5 5339.19,-112.5"/>
<text text-anchor="middle" x="5402.19" y="-119.5" font-family="Helvetica,sans-Serif" font-size="10.00">swla/swla_tupleType.h</text>
</a>
</g>
</g>
<!-- Node2&#45;&gt;Node50 -->
<g id="edge59" class="edge">
<title>Node2&#45;&gt;Node50</title>
<path fill="none" stroke="midnightblue" d="M2508.86,-176.98C2737.69,-176.77 4714.13,-173.71 5328.73,-132"/>
<polygon fill="midnightblue" stroke="midnightblue" points="5329.28,-135.47 5339.01,-131.29 5328.79,-128.49 5329.28,-135.47"/>
</g>
<!-- Node51 -->
<g id="node49" class="node">
<title>Node51</title>
<g id="a_node49"><a xlink:title=" ">
<polygon fill="white" stroke="#bfbfbf" points="5483.19,-112.5 5483.19,-131.5 5569.19,-131.5 5569.19,-112.5 5483.19,-112.5"/>
<text text-anchor="middle" x="5526.19" y="-119.5" font-family="Helvetica,sans-Serif" font-size="10.00">swl/swl_mlo.h</text>
</a>
</g>
</g>
<!-- Node2&#45;&gt;Node51 -->
<g id="edge61" class="edge">
<title>Node2&#45;&gt;Node51</title>
<path fill="none" stroke="midnightblue" d="M2509.01,-176.88C2760.89,-175.47 5114.66,-161.53 5473.11,-131.87"/>
<polygon fill="midnightblue" stroke="midnightblue" points="5473.47,-135.35 5483.13,-130.99 5472.86,-128.38 5473.47,-135.35"/>
</g>
<!-- Node33&#45;&gt;Node4 -->
<g id="edge33" class="edge">
<title>Node33&#45;&gt;Node4</title>
<path fill="none" stroke="midnightblue" d="M222.59,-56.44C179.36,-46.34 107.9,-29.63 64.71,-19.54"/>
<polygon fill="midnightblue" stroke="midnightblue" points="65.43,-16.11 54.9,-17.24 63.84,-22.93 65.43,-16.11"/>
</g>
<!-- Node33&#45;&gt;Node9 -->
<g id="edge35" class="edge">
<title>Node33&#45;&gt;Node9</title>
<path fill="none" stroke="midnightblue" d="M259.19,-56.08C259.19,-49.01 259.19,-38.86 259.19,-29.99"/>
<polygon fill="midnightblue" stroke="midnightblue" points="262.69,-29.75 259.19,-19.75 255.69,-29.75 262.69,-29.75"/>
</g>
<!-- Node33&#45;&gt;Node34 -->
<g id="edge34" class="edge">
<title>Node33&#45;&gt;Node34</title>
<path fill="none" stroke="midnightblue" d="M296.8,-58.59C350.97,-49.36 451.54,-32.23 516.09,-21.24"/>
<polygon fill="midnightblue" stroke="midnightblue" points="516.85,-24.66 526.12,-19.53 515.68,-17.76 516.85,-24.66"/>
</g>
<!-- Node36&#45;&gt;Node3 -->
<g id="edge37" class="edge">
<title>Node36&#45;&gt;Node3</title>
<path fill="none" stroke="midnightblue" d="M668.98,-112.08C672.95,-104.69 678.71,-93.95 683.62,-84.81"/>
<polygon fill="midnightblue" stroke="midnightblue" points="686.84,-86.22 688.49,-75.75 680.67,-82.91 686.84,-86.22"/>
</g>
<!-- Node36&#45;&gt;Node9 -->
<g id="edge39" class="edge">
<title>Node36&#45;&gt;Node9</title>
<path fill="none" stroke="midnightblue" d="M660.52,-112.5C653.83,-98.13 638.17,-69.32 615.19,-56 566.32,-27.68 408.09,-16.9 319.92,-13.02"/>
<polygon fill="midnightblue" stroke="midnightblue" points="319.93,-9.52 309.79,-12.59 319.64,-16.51 319.93,-9.52"/>
</g>
<!-- Node36&#45;&gt;Node37 -->
<g id="edge38" class="edge">
<title>Node36&#45;&gt;Node37</title>
<path fill="none" stroke="midnightblue" d="M645.02,-112.44C625.28,-103.64 594.3,-89.81 571.7,-79.72"/>
<polygon fill="midnightblue" stroke="midnightblue" points="572.83,-76.4 562.27,-75.52 569.98,-82.79 572.83,-76.4"/>
</g>
<!-- Node38&#45;&gt;Node33 -->
<g id="edge41" class="edge">
<title>Node38&#45;&gt;Node33</title>
<path fill="none" stroke="midnightblue" d="M184.49,-112.32C198.37,-103.9 219.68,-90.97 235.99,-81.07"/>
<polygon fill="midnightblue" stroke="midnightblue" points="238.19,-83.83 244.92,-75.65 234.56,-77.85 238.19,-83.83"/>
</g>
<!-- Node39&#45;&gt;Node2 -->
<g id="edge43" class="edge">
<title>Node39&#45;&gt;Node2</title>
<path fill="none" stroke="midnightblue" d="M4417.79,-131.51C4415.9,-131.69 4414.03,-131.85 4412.19,-132 4023.02,-163.01 2737.39,-174.98 2518.86,-176.76"/>
<polygon fill="midnightblue" stroke="midnightblue" points="2518.68,-173.26 2508.71,-176.84 2518.74,-180.26 2518.68,-173.26"/>
</g>
<!-- Node40&#45;&gt;Node33 -->
<g id="edge45" class="edge">
<title>Node40&#45;&gt;Node33</title>
<path fill="none" stroke="midnightblue" d="M259.19,-112.08C259.19,-105.01 259.19,-94.86 259.19,-85.99"/>
<polygon fill="midnightblue" stroke="midnightblue" points="262.69,-85.75 259.19,-75.75 255.69,-85.75 262.69,-85.75"/>
</g>
<!-- Node41&#45;&gt;Node2 -->
<g id="edge47" class="edge">
<title>Node41&#45;&gt;Node2</title>
<path fill="none" stroke="midnightblue" d="M4548.62,-131.53C4547.13,-131.7 4545.65,-131.86 4544.19,-132 4127.78,-172.38 2746.98,-176.55 2519.12,-176.96"/>
<polygon fill="midnightblue" stroke="midnightblue" points="2518.85,-173.46 2508.86,-176.97 2518.87,-180.46 2518.85,-173.46"/>
</g>
<!-- Node42&#45;&gt;Node33 -->
<g id="edge49" class="edge">
<title>Node42&#45;&gt;Node33</title>
<path fill="none" stroke="midnightblue" d="M330.53,-112.32C317.27,-103.9 296.92,-90.97 281.34,-81.07"/>
<polygon fill="midnightblue" stroke="midnightblue" points="283.13,-78.06 272.81,-75.65 279.38,-83.97 283.13,-78.06"/>
</g>
<!-- Node44&#45;&gt;Node5 -->
<g id="edge52" class="edge">
<title>Node44&#45;&gt;Node5</title>
<path fill="none" stroke="midnightblue" d="M445.59,-112.08C438.96,-104.3 429.17,-92.8 421.13,-83.37"/>
<polygon fill="midnightblue" stroke="midnightblue" points="423.79,-81.09 414.64,-75.75 418.46,-85.63 423.79,-81.09"/>
</g>
<!-- Node44&#45;&gt;Node33 -->
<g id="edge53" class="edge">
<title>Node44&#45;&gt;Node33</title>
<path fill="none" stroke="midnightblue" d="M422.45,-112.44C389.24,-103.2 336.2,-88.44 299.63,-78.26"/>
<polygon fill="midnightblue" stroke="midnightblue" points="300.36,-74.83 289.78,-75.52 298.48,-81.57 300.36,-74.83"/>
</g>
<!-- Node75&#45;&gt;Node4 -->
<g id="edge63" class="edge">
<title>Node75&#45;&gt;Node4</title>
<path fill="none" stroke="midnightblue" d="M1162.46,-177.05C919.83,-176.95 54.33,-173.66 14.19,-132 -12.37,-104.44 5.62,-55.38 18.44,-28.98"/>
<polygon fill="midnightblue" stroke="midnightblue" points="21.72,-30.27 23.16,-19.78 15.49,-27.08 21.72,-30.27"/>
</g>
</g>
</svg>
