<?xml version="1.0" encoding="UTF-8" standalone="no"?>
<!DOCTYPE svg PUBLIC "-//W3C//DTD SVG 1.1//EN"
 "http://www.w3.org/Graphics/SVG/1.1/DTD/svg11.dtd">
<!-- Generated by graphviz version 2.43.0 (0)
 -->
<!-- Title: wld_channel_hasChannelWidthCovered Pages: 1 -->
<svg width="812pt" height="135pt"
 viewBox="0.00 0.00 812.00 135.00" xmlns="http://www.w3.org/2000/svg" xmlns:xlink="http://www.w3.org/1999/xlink">
<g id="graph0" class="graph" transform="scale(1 1) rotate(0) translate(4 131)">
<title>wld_channel_hasChannelWidthCovered</title>
<polygon fill="white" stroke="transparent" points="-4,4 -4,-131 808,-131 808,4 -4,4"/>
<!-- Node1 -->
<g id="node1" class="node">
<title>Node1</title>
<g id="a_node1"><a xlink:title=" ">
<polygon fill="#bfbfbf" stroke="black" points="636,-39 636,-69 804,-69 804,-39 636,-39"/>
<text text-anchor="start" x="644" y="-57" font-family="Helvetica,sans-Serif" font-size="10.00">wld_channel_hasChannelWidth</text>
<text text-anchor="middle" x="720" y="-46" font-family="Helvetica,sans-Serif" font-size="10.00">Covered</text>
</a>
</g>
</g>
<!-- Node2 -->
<g id="node2" class="node">
<title>Node2</title>
<g id="a_node2"><a xlink:href="wld__channel__info_8c.html#a30dbfefee66f7473e59a233b5b95b1ad" target="_top" xlink:title=" ">
<polygon fill="white" stroke="black" points="434,-39 434,-69 580,-69 580,-39 434,-39"/>
<text text-anchor="start" x="442" y="-57" font-family="Helvetica,sans-Serif" font-size="10.00">wld_channel_getExtension</text>
<text text-anchor="middle" x="507" y="-46" font-family="Helvetica,sans-Serif" font-size="10.00">Channel</text>
</a>
</g>
</g>
<!-- Node1&#45;&gt;Node2 -->
<g id="edge1" class="edge">
<title>Node1&#45;&gt;Node2</title>
<path fill="none" stroke="midnightblue" d="M625.88,-54C610.53,-54 594.82,-54 580.08,-54"/>
<polygon fill="midnightblue" stroke="midnightblue" points="625.91,-57.5 635.91,-54 625.91,-50.5 625.91,-57.5"/>
</g>
<!-- Node3 -->
<g id="node3" class="node">
<title>Node3</title>
<g id="a_node3"><a xlink:href="wld__hostapd__cfgFile_8c.html#aa4ef0964a05f5b4f72d9c4b2f9046aa4" target="_top" xlink:title="set the radio parameters">
<polygon fill="white" stroke="black" points="238,-83 238,-113 354,-113 354,-83 238,-83"/>
<text text-anchor="start" x="246" y="-101" font-family="Helvetica,sans-Serif" font-size="10.00">wld_hostapd_cfgFile</text>
<text text-anchor="middle" x="296" y="-90" font-family="Helvetica,sans-Serif" font-size="10.00">_setRadioConfig</text>
</a>
</g>
</g>
<!-- Node1&#45;&gt;Node3 -->
<g id="edge6" class="edge">
<title>Node1&#45;&gt;Node3</title>
<path fill="none" stroke="midnightblue" d="M646.15,-71.04C630.97,-74.1 615.02,-76.96 600,-79 514.87,-90.55 415.31,-95.09 354.2,-96.87"/>
<polygon fill="midnightblue" stroke="midnightblue" points="646.91,-74.46 655.99,-69.01 645.49,-67.6 646.91,-74.46"/>
</g>
<!-- Node7 -->
<g id="node7" class="node">
<title>Node7</title>
<g id="a_node7"><a xlink:href="wld__radio_8c.html#a3d90ab129fae3ae4a0bb7bdfec25a723" target="_top" xlink:title=" ">
<polygon fill="white" stroke="black" points="414,-0.5 414,-19.5 600,-19.5 600,-0.5 414,-0.5"/>
<text text-anchor="middle" x="507" y="-7.5" font-family="Helvetica,sans-Serif" font-size="10.00">wld_rad_hasChannelWidthCovered</text>
</a>
</g>
</g>
<!-- Node1&#45;&gt;Node7 -->
<g id="edge7" class="edge">
<title>Node1&#45;&gt;Node7</title>
<path fill="none" stroke="midnightblue" d="M637.57,-36.86C624.99,-34.22 612.15,-31.53 600,-29 585.15,-25.91 568.95,-22.55 554.34,-19.54"/>
<polygon fill="midnightblue" stroke="midnightblue" points="637.08,-40.33 647.59,-38.96 638.52,-33.48 637.08,-40.33"/>
</g>
<!-- Node2&#45;&gt;Node3 -->
<g id="edge2" class="edge">
<title>Node2&#45;&gt;Node3</title>
<path fill="none" stroke="midnightblue" d="M424.68,-71.12C401.14,-76.08 375.93,-81.38 354.19,-85.96"/>
<polygon fill="midnightblue" stroke="midnightblue" points="425.59,-74.5 434.66,-69.02 424.15,-67.65 425.59,-74.5"/>
</g>
<!-- Node6 -->
<g id="node6" class="node">
<title>Node6</title>
<g id="a_node6"><a xlink:href="wld__radio_8c.html#a6fa49867bafd918952a9143ac258dd3b" target="_top" xlink:title=" ">
<polygon fill="white" stroke="black" points="214,-44.5 214,-63.5 378,-63.5 378,-44.5 214,-44.5"/>
<text text-anchor="middle" x="296" y="-51.5" font-family="Helvetica,sans-Serif" font-size="10.00">wld_rad_getExtensionChannel</text>
</a>
</g>
</g>
<!-- Node2&#45;&gt;Node6 -->
<g id="edge5" class="edge">
<title>Node2&#45;&gt;Node6</title>
<path fill="none" stroke="midnightblue" d="M423.56,-54C408.63,-54 393.07,-54 378.17,-54"/>
<polygon fill="midnightblue" stroke="midnightblue" points="423.78,-57.5 433.78,-54 423.78,-50.5 423.78,-57.5"/>
</g>
<!-- Node4 -->
<g id="node4" class="node">
<title>Node4</title>
<g id="a_node4"><a xlink:href="wld__rad__hostapd__api_8c.html#aea42b1d7acee5d51484de01cac65c983" target="_top" xlink:title="set main interface channel parameters">
<polygon fill="white" stroke="black" points="9.5,-107.5 9.5,-126.5 168.5,-126.5 168.5,-107.5 9.5,-107.5"/>
<text text-anchor="middle" x="89" y="-114.5" font-family="Helvetica,sans-Serif" font-size="10.00">wld_rad_hostapd_setChannel</text>
</a>
</g>
</g>
<!-- Node3&#45;&gt;Node4 -->
<g id="edge3" class="edge">
<title>Node3&#45;&gt;Node4</title>
<path fill="none" stroke="midnightblue" d="M227.88,-104.22C208.95,-105.98 188.17,-107.9 168.63,-109.71"/>
<polygon fill="midnightblue" stroke="midnightblue" points="228.26,-107.7 237.9,-103.29 227.62,-100.73 228.26,-107.7"/>
</g>
<!-- Node5 -->
<g id="node5" class="node">
<title>Node5</title>
<g id="a_node5"><a xlink:href="wld__rad__hostapd__api_8c.html#a5411827e8b4ab433c4f62efe4dee6b5e" target="_top" xlink:title=" ">
<polygon fill="white" stroke="black" points="0,-69.5 0,-88.5 178,-88.5 178,-69.5 0,-69.5"/>
<text text-anchor="middle" x="89" y="-76.5" font-family="Helvetica,sans-Serif" font-size="10.00">wld_rad_hostapd_setMiscParams</text>
</a>
</g>
</g>
<!-- Node3&#45;&gt;Node5 -->
<g id="edge4" class="edge">
<title>Node3&#45;&gt;Node5</title>
<path fill="none" stroke="midnightblue" d="M227.71,-91.76C211.91,-90.3 194.84,-88.72 178.27,-87.18"/>
<polygon fill="midnightblue" stroke="midnightblue" points="227.62,-95.27 237.9,-92.71 228.26,-88.3 227.62,-95.27"/>
</g>
</g>
</svg>
