<?xml version="1.0" encoding="UTF-8" standalone="no"?>
<!DOCTYPE svg PUBLIC "-//W3C//DTD SVG 1.1//EN"
 "http://www.w3.org/Graphics/SVG/1.1/DTD/svg11.dtd">
<!-- Generated by graphviz version 2.43.0 (0)
 -->
<!-- Title: wld_nl80211_bgDfsStart Pages: 1 -->
<svg width="725pt" height="66pt"
 viewBox="0.00 0.00 725.00 66.00" xmlns="http://www.w3.org/2000/svg" xmlns:xlink="http://www.w3.org/1999/xlink">
<g id="graph0" class="graph" transform="scale(1 1) rotate(0) translate(4 62)">
<title>wld_nl80211_bgDfsStart</title>
<polygon fill="white" stroke="transparent" points="-4,4 -4,-62 721,-62 721,4 -4,4"/>
<!-- Node1 -->
<g id="node1" class="node">
<title>Node1</title>
<g id="a_node1"><a xlink:title=" ">
<polygon fill="#bfbfbf" stroke="black" points="0,-19.5 0,-38.5 135,-38.5 135,-19.5 0,-19.5"/>
<text text-anchor="middle" x="67.5" y="-26.5" font-family="Helvetica,sans-Serif" font-size="10.00">wld_nl80211_bgDfsStart</text>
</a>
</g>
</g>
<!-- Node2 -->
<g id="node2" class="node">
<title>Node2</title>
<g id="a_node2"><a xlink:href="wld__nl80211__utils_8c.html#a7356918508d628219ed57cad5ef6444c" target="_top" xlink:title=" ">
<polygon fill="white" stroke="black" points="199.5,-38.5 199.5,-57.5 335.5,-57.5 335.5,-38.5 199.5,-38.5"/>
<text text-anchor="middle" x="267.5" y="-45.5" font-family="Helvetica,sans-Serif" font-size="10.00">wld_nl80211_bwSwlToNl</text>
</a>
</g>
</g>
<!-- Node1&#45;&gt;Node2 -->
<g id="edge1" class="edge">
<title>Node1&#45;&gt;Node2</title>
<path fill="none" stroke="midnightblue" d="M135.26,-35.41C152.53,-37.06 171.26,-38.86 189.03,-40.57"/>
<polygon fill="midnightblue" stroke="midnightblue" points="189.07,-44.09 199.36,-41.56 189.74,-37.12 189.07,-44.09"/>
</g>
<!-- Node3 -->
<g id="node3" class="node">
<title>Node3</title>
<g id="a_node3"><a xlink:href="wld__nl80211__core_8c.html#a2f124c7a531325213fab90ab2a181035" target="_top" xlink:title=" ">
<polygon fill="white" stroke="black" points="171,-0.5 171,-19.5 364,-19.5 364,-0.5 171,-0.5"/>
<text text-anchor="middle" x="267.5" y="-7.5" font-family="Helvetica,sans-Serif" font-size="10.00">wld_nl80211_sendCmdSyncWithAck</text>
</a>
</g>
</g>
<!-- Node1&#45;&gt;Node3 -->
<g id="edge2" class="edge">
<title>Node1&#45;&gt;Node3</title>
<path fill="none" stroke="midnightblue" d="M135.26,-22.59C143.49,-21.8 152.05,-20.98 160.69,-20.15"/>
<polygon fill="midnightblue" stroke="midnightblue" points="161.22,-23.62 170.84,-19.18 160.55,-16.65 161.22,-23.62"/>
</g>
<!-- Node4 -->
<g id="node4" class="node">
<title>Node4</title>
<g id="a_node4"><a xlink:href="wld__nl80211__core_8c.html#a51795ba7297b263584b02e6dd2d8ddb6" target="_top" xlink:title=" ">
<polygon fill="white" stroke="black" points="400,-0.5 400,-19.5 552,-19.5 552,-0.5 400,-0.5"/>
<text text-anchor="middle" x="476" y="-7.5" font-family="Helvetica,sans-Serif" font-size="10.00">wld_nl80211_sendCmdSync</text>
</a>
</g>
</g>
<!-- Node3&#45;&gt;Node4 -->
<g id="edge3" class="edge">
<title>Node3&#45;&gt;Node4</title>
<path fill="none" stroke="midnightblue" d="M364.19,-10C372.67,-10 381.21,-10 389.6,-10"/>
<polygon fill="midnightblue" stroke="midnightblue" points="389.72,-13.5 399.72,-10 389.72,-6.5 389.72,-13.5"/>
</g>
<!-- Node5 -->
<g id="node5" class="node">
<title>Node5</title>
<g id="a_node5"><a xlink:href="wld__nl80211__core_8c.html#a3c5a525596463f925b95bbc76036d07e" target="_top" xlink:title=" ">
<polygon fill="white" stroke="black" points="588,-0.5 588,-19.5 717,-19.5 717,-0.5 588,-0.5"/>
<text text-anchor="middle" x="652.5" y="-7.5" font-family="Helvetica,sans-Serif" font-size="10.00">wld_nl80211_sendCmd</text>
</a>
</g>
</g>
<!-- Node4&#45;&gt;Node5 -->
<g id="edge4" class="edge">
<title>Node4&#45;&gt;Node5</title>
<path fill="none" stroke="midnightblue" d="M552.02,-10C560.49,-10 569.12,-10 577.57,-10"/>
<polygon fill="midnightblue" stroke="midnightblue" points="577.78,-13.5 587.78,-10 577.78,-6.5 577.78,-13.5"/>
</g>
</g>
</svg>
