<?xml version="1.0" encoding="UTF-8" standalone="no"?>
<!DOCTYPE svg PUBLIC "-//W3C//DTD SVG 1.1//EN"
 "http://www.w3.org/Graphics/SVG/1.1/DTD/svg11.dtd">
<!-- Generated by graphviz version 2.43.0 (0)
 -->
<!-- Title: wld_radio_scanresults_cleanup Pages: 1 -->
<svg width="551pt" height="39pt"
 viewBox="0.00 0.00 551.00 39.00" xmlns="http://www.w3.org/2000/svg" xmlns:xlink="http://www.w3.org/1999/xlink">
<g id="graph0" class="graph" transform="scale(1 1) rotate(0) translate(4 35)">
<title>wld_radio_scanresults_cleanup</title>
<polygon fill="white" stroke="transparent" points="-4,4 -4,-35 547,-35 547,4 -4,4"/>
<!-- Node1 -->
<g id="node1" class="node">
<title>Node1</title>
<g id="a_node1"><a xlink:title=" ">
<polygon fill="#bfbfbf" stroke="black" points="0,-0.5 0,-30.5 125,-30.5 125,-0.5 0,-0.5"/>
<text text-anchor="start" x="8" y="-18.5" font-family="Helvetica,sans-Serif" font-size="10.00">wld_radio_scanresults</text>
<text text-anchor="middle" x="62.5" y="-7.5" font-family="Helvetica,sans-Serif" font-size="10.00">_cleanup</text>
</a>
</g>
</g>
<!-- Node2 -->
<g id="node2" class="node">
<title>Node2</title>
<g id="a_node2"><a xlink:href="wld__rad__scan_8c.html#a194f47a8606d3bd82e8cc4f08ccf25bb" target="_top" xlink:title=" ">
<polygon fill="white" stroke="black" points="161,-6 161,-25 325,-25 325,-6 161,-6"/>
<text text-anchor="middle" x="243" y="-13" font-family="Helvetica,sans-Serif" font-size="10.00">wld_scan_cleanupScanResults</text>
</a>
</g>
</g>
<!-- Node1&#45;&gt;Node2 -->
<g id="edge1" class="edge">
<title>Node1&#45;&gt;Node2</title>
<path fill="none" stroke="midnightblue" d="M125.18,-15.5C133.44,-15.5 142.04,-15.5 150.67,-15.5"/>
<polygon fill="midnightblue" stroke="midnightblue" points="150.8,-19 160.8,-15.5 150.8,-12 150.8,-19"/>
</g>
<!-- Node3 -->
<g id="node3" class="node">
<title>Node3</title>
<g id="a_node3"><a xlink:href="wld__rad__scan_8c.html#a4d88dcf7b64e163cecafdc8d6f5341d6" target="_top" xlink:title=" ">
<polygon fill="white" stroke="black" points="361,-6 361,-25 543,-25 543,-6 361,-6"/>
<text text-anchor="middle" x="452" y="-13" font-family="Helvetica,sans-Serif" font-size="10.00">wld_scan_cleanupScanResultSSID</text>
</a>
</g>
</g>
<!-- Node2&#45;&gt;Node3 -->
<g id="edge2" class="edge">
<title>Node2&#45;&gt;Node3</title>
<path fill="none" stroke="midnightblue" d="M325.22,-15.5C333.6,-15.5 342.19,-15.5 350.75,-15.5"/>
<polygon fill="midnightblue" stroke="midnightblue" points="350.77,-19 360.77,-15.5 350.77,-12 350.77,-19"/>
</g>
</g>
</svg>
