<?xml version="1.0" encoding="UTF-8" standalone="no"?>
<!DOCTYPE svg PUBLIC "-//W3C//DTD SVG 1.1//EN"
 "http://www.w3.org/Graphics/SVG/1.1/DTD/svg11.dtd">
<!-- Generated by graphviz version 2.43.0 (0)
 -->
<!-- Title: wld_nl80211_setWiphyAntennas Pages: 1 -->
<svg width="555pt" height="28pt"
 viewBox="0.00 0.00 555.00 28.00" xmlns="http://www.w3.org/2000/svg" xmlns:xlink="http://www.w3.org/1999/xlink">
<g id="graph0" class="graph" transform="scale(1 1) rotate(0) translate(4 24)">
<title>wld_nl80211_setWiphyAntennas</title>
<polygon fill="white" stroke="transparent" points="-4,4 -4,-24 551,-24 551,4 -4,4"/>
<!-- Node1 -->
<g id="node1" class="node">
<title>Node1</title>
<g id="a_node1"><a xlink:title=" ">
<polygon fill="#bfbfbf" stroke="black" points="372,-0.5 372,-19.5 547,-19.5 547,-0.5 372,-0.5"/>
<text text-anchor="middle" x="459.5" y="-7.5" font-family="Helvetica,sans-Serif" font-size="10.00">wld_nl80211_setWiphyAntennas</text>
</a>
</g>
</g>
<!-- Node2 -->
<g id="node2" class="node">
<title>Node2</title>
<g id="a_node2"><a xlink:href="wld__rad__nl80211_8c.html#acaed2ca166a98656dc0786e5fc8480b0" target="_top" xlink:title=" ">
<polygon fill="white" stroke="black" points="171,-0.5 171,-19.5 336,-19.5 336,-0.5 171,-0.5"/>
<text text-anchor="middle" x="253.5" y="-7.5" font-family="Helvetica,sans-Serif" font-size="10.00">wld_rad_nl80211_setAntennas</text>
</a>
</g>
</g>
<!-- Node1&#45;&gt;Node2 -->
<g id="edge1" class="edge">
<title>Node1&#45;&gt;Node2</title>
<path fill="none" stroke="midnightblue" d="M361.95,-10C353.36,-10 344.72,-10 336.28,-10"/>
<polygon fill="midnightblue" stroke="midnightblue" points="361.99,-13.5 371.99,-10 361.99,-6.5 361.99,-13.5"/>
</g>
<!-- Node3 -->
<g id="node3" class="node">
<title>Node3</title>
<g id="a_node3"><a xlink:href="wifiGen__rad_8c.html#a11f836d815ae1ff363a72499cb65f553" target="_top" xlink:title=" ">
<polygon fill="white" stroke="black" points="0,-0.5 0,-19.5 135,-19.5 135,-0.5 0,-0.5"/>
<text text-anchor="middle" x="67.5" y="-7.5" font-family="Helvetica,sans-Serif" font-size="10.00">wifiGen_rad_antennactrl</text>
</a>
</g>
</g>
<!-- Node2&#45;&gt;Node3 -->
<g id="edge2" class="edge">
<title>Node2&#45;&gt;Node3</title>
<path fill="none" stroke="midnightblue" d="M160.81,-10C152.13,-10 143.44,-10 135.05,-10"/>
<polygon fill="midnightblue" stroke="midnightblue" points="160.99,-13.5 170.99,-10 160.99,-6.5 160.99,-13.5"/>
</g>
</g>
</svg>
