<?xml version="1.0" encoding="UTF-8" standalone="no"?>
<!DOCTYPE svg PUBLIC "-//W3C//DTD SVG 1.1//EN"
 "http://www.w3.org/Graphics/SVG/1.1/DTD/svg11.dtd">
<!-- Generated by graphviz version 2.43.0 (0)
 -->
<!-- Title: include/wld/wld_hostapd_ap_api.h Pages: 1 -->
<svg width="1287pt" height="173pt"
 viewBox="0.00 0.00 1287.00 173.00" xmlns="http://www.w3.org/2000/svg" xmlns:xlink="http://www.w3.org/1999/xlink">
<g id="graph0" class="graph" transform="scale(1 1) rotate(0) translate(4 169)">
<title>include/wld/wld_hostapd_ap_api.h</title>
<polygon fill="white" stroke="transparent" points="-4,4 -4,-169 1283,-169 1283,4 -4,4"/>
<!-- Node1 -->
<g id="node1" class="node">
<title>Node1</title>
<g id="a_node1"><a xlink:title=" ">
<polygon fill="#bfbfbf" stroke="black" points="760.5,-134.5 760.5,-164.5 897.5,-164.5 897.5,-134.5 760.5,-134.5"/>
<text text-anchor="start" x="768.5" y="-152.5" font-family="Helvetica,sans-Serif" font-size="10.00">include/wld/wld_hostapd</text>
<text text-anchor="middle" x="829" y="-141.5" font-family="Helvetica,sans-Serif" font-size="10.00">_ap_api.h</text>
</a>
</g>
</g>
<!-- Node2 -->
<g id="node2" class="node">
<title>Node2</title>
<g id="a_node2"><a xlink:href="wld__rad__hostapd__api_8h.html" target="_top" xlink:title=" ">
<polygon fill="white" stroke="black" points="561.5,-67.5 561.5,-97.5 674.5,-97.5 674.5,-67.5 561.5,-67.5"/>
<text text-anchor="start" x="569.5" y="-85.5" font-family="Helvetica,sans-Serif" font-size="10.00">include/wld/wld_rad</text>
<text text-anchor="middle" x="618" y="-74.5" font-family="Helvetica,sans-Serif" font-size="10.00">_hostapd_api.h</text>
</a>
</g>
</g>
<!-- Node1&#45;&gt;Node2 -->
<g id="edge1" class="edge">
<title>Node1&#45;&gt;Node2</title>
<path fill="none" stroke="midnightblue" d="M773.63,-131.44C739.43,-120.91 696.07,-107.55 663.81,-97.61"/>
<polygon fill="midnightblue" stroke="midnightblue" points="772.89,-134.88 783.48,-134.48 774.95,-128.19 772.89,-134.88"/>
</g>
<!-- Node4 -->
<g id="node4" class="node">
<title>Node4</title>
<g id="a_node4"><a xlink:href="wifiGen__fsm_8c.html" target="_top" xlink:title=" ">
<polygon fill="white" stroke="black" points="0,-0.5 0,-30.5 104,-30.5 104,-0.5 0,-0.5"/>
<text text-anchor="start" x="8" y="-18.5" font-family="Helvetica,sans-Serif" font-size="10.00">src/Plugin/wifiGen</text>
<text text-anchor="middle" x="52" y="-7.5" font-family="Helvetica,sans-Serif" font-size="10.00">_fsm.c</text>
</a>
</g>
</g>
<!-- Node1&#45;&gt;Node4 -->
<g id="edge11" class="edge">
<title>Node1&#45;&gt;Node4</title>
<path fill="none" stroke="midnightblue" d="M750.14,-142.13C662.87,-134.43 518.24,-119.73 395,-98 268.14,-75.63 238.33,-60.78 113,-31 110.14,-30.32 107.21,-29.62 104.24,-28.92"/>
<polygon fill="midnightblue" stroke="midnightblue" points="749.97,-145.63 760.24,-143.01 750.58,-138.65 749.97,-145.63"/>
</g>
<!-- Node5 -->
<g id="node5" class="node">
<title>Node5</title>
<g id="a_node5"><a xlink:href="wifiGen__hapd_8c.html" target="_top" xlink:title=" ">
<polygon fill="white" stroke="black" points="122,-0.5 122,-30.5 226,-30.5 226,-0.5 122,-0.5"/>
<text text-anchor="start" x="130" y="-18.5" font-family="Helvetica,sans-Serif" font-size="10.00">src/Plugin/wifiGen</text>
<text text-anchor="middle" x="174" y="-7.5" font-family="Helvetica,sans-Serif" font-size="10.00">_hapd.c</text>
</a>
</g>
</g>
<!-- Node1&#45;&gt;Node5 -->
<g id="edge12" class="edge">
<title>Node1&#45;&gt;Node5</title>
<path fill="none" stroke="midnightblue" d="M750.2,-134.74C694.7,-124.9 618.71,-111.13 552,-98 410.71,-70.19 375.5,-62.54 235,-31 232.13,-30.36 229.19,-29.69 226.22,-29"/>
<polygon fill="midnightblue" stroke="midnightblue" points="749.86,-138.23 760.31,-136.53 751.08,-131.34 749.86,-138.23"/>
</g>
<!-- Node8 -->
<g id="node8" class="node">
<title>Node8</title>
<g id="a_node8"><a xlink:href="wld__hostapd__ap__api_8c.html" target="_top" xlink:title=" ">
<polygon fill="white" stroke="black" points="766.5,-0.5 766.5,-30.5 903.5,-30.5 903.5,-0.5 766.5,-0.5"/>
<text text-anchor="start" x="774.5" y="-18.5" font-family="Helvetica,sans-Serif" font-size="10.00">src/nl80211/wld_hostapd</text>
<text text-anchor="middle" x="835" y="-7.5" font-family="Helvetica,sans-Serif" font-size="10.00">_ap_api.c</text>
</a>
</g>
</g>
<!-- Node1&#45;&gt;Node8 -->
<g id="edge14" class="edge">
<title>Node1&#45;&gt;Node8</title>
<path fill="none" stroke="midnightblue" d="M820.35,-124.56C815.58,-108.3 811.31,-86.32 815,-67 817.44,-54.22 823.06,-40.54 827.72,-30.65"/>
<polygon fill="midnightblue" stroke="midnightblue" points="817.09,-125.88 823.47,-134.34 823.76,-123.75 817.09,-125.88"/>
</g>
<!-- Node9 -->
<g id="node9" class="node">
<title>Node9</title>
<g id="a_node9"><a xlink:href="wld__hostapd__cfgFile_8c.html" target="_top" xlink:title=" ">
<polygon fill="white" stroke="black" points="921.5,-0.5 921.5,-30.5 1058.5,-30.5 1058.5,-0.5 921.5,-0.5"/>
<text text-anchor="start" x="929.5" y="-18.5" font-family="Helvetica,sans-Serif" font-size="10.00">src/nl80211/wld_hostapd</text>
<text text-anchor="middle" x="990" y="-7.5" font-family="Helvetica,sans-Serif" font-size="10.00">_cfgFile.c</text>
</a>
</g>
</g>
<!-- Node1&#45;&gt;Node9 -->
<g id="edge15" class="edge">
<title>Node1&#45;&gt;Node9</title>
<path fill="none" stroke="midnightblue" d="M830.43,-124.24C832.72,-106.34 838.5,-82.51 853,-67 870.92,-47.84 896.75,-35.92 921.15,-28.51"/>
<polygon fill="midnightblue" stroke="midnightblue" points="826.95,-123.93 829.44,-134.23 833.91,-124.63 826.95,-123.93"/>
</g>
<!-- Node11 -->
<g id="node11" class="node">
<title>Node11</title>
<g id="a_node11"><a xlink:href="wld__rad__hostapd__api_8c.html" target="_top" xlink:title=" ">
<polygon fill="white" stroke="black" points="1077,-0.5 1077,-30.5 1191,-30.5 1191,-0.5 1077,-0.5"/>
<text text-anchor="start" x="1085" y="-18.5" font-family="Helvetica,sans-Serif" font-size="10.00">src/nl80211/wld_rad</text>
<text text-anchor="middle" x="1134" y="-7.5" font-family="Helvetica,sans-Serif" font-size="10.00">_hostapd_api.c</text>
</a>
</g>
</g>
<!-- Node1&#45;&gt;Node11 -->
<g id="edge16" class="edge">
<title>Node1&#45;&gt;Node11</title>
<path fill="none" stroke="midnightblue" d="M839.09,-125.38C848.49,-106.65 864.32,-81.14 886,-67 955.07,-21.96 987.28,-47.85 1068,-31 1070.87,-30.4 1073.81,-29.78 1076.78,-29.15"/>
<polygon fill="midnightblue" stroke="midnightblue" points="835.91,-123.93 834.76,-134.46 842.23,-126.94 835.91,-123.93"/>
</g>
<!-- Node12 -->
<g id="node12" class="node">
<title>Node12</title>
<g id="a_node12"><a xlink:href="wifiGen__vap_8c.html" target="_top" xlink:title=" ">
<polygon fill="white" stroke="black" points="895,-67.5 895,-97.5 999,-97.5 999,-67.5 895,-67.5"/>
<text text-anchor="start" x="903" y="-85.5" font-family="Helvetica,sans-Serif" font-size="10.00">src/Plugin/wifiGen</text>
<text text-anchor="middle" x="947" y="-74.5" font-family="Helvetica,sans-Serif" font-size="10.00">_vap.c</text>
</a>
</g>
</g>
<!-- Node1&#45;&gt;Node12 -->
<g id="edge13" class="edge">
<title>Node1&#45;&gt;Node12</title>
<path fill="none" stroke="midnightblue" d="M863.61,-129.44C882.12,-119.24 904.52,-106.9 921.45,-97.58"/>
<polygon fill="midnightblue" stroke="midnightblue" points="861.67,-126.51 854.6,-134.4 865.05,-132.64 861.67,-126.51"/>
</g>
<!-- Node13 -->
<g id="node13" class="node">
<title>Node13</title>
<g id="a_node13"><a xlink:href="wld__accesspoint_8c.html" target="_top" xlink:title=" ">
<polygon fill="white" stroke="black" points="1017,-73 1017,-92 1139,-92 1139,-73 1017,-73"/>
<text text-anchor="middle" x="1078" y="-80" font-family="Helvetica,sans-Serif" font-size="10.00">src/wld_accesspoint.c</text>
</a>
</g>
</g>
<!-- Node1&#45;&gt;Node13 -->
<g id="edge17" class="edge">
<title>Node1&#45;&gt;Node13</title>
<path fill="none" stroke="midnightblue" d="M892.55,-131.91C941.32,-119.18 1006.64,-102.13 1045.33,-92.03"/>
<polygon fill="midnightblue" stroke="midnightblue" points="891.51,-128.56 882.72,-134.48 893.28,-135.34 891.51,-128.56"/>
</g>
<!-- Node14 -->
<g id="node14" class="node">
<title>Node14</title>
<g id="a_node14"><a xlink:href="test__wld__hostapd_8c.html" target="_top" xlink:title=" ">
<polygon fill="white" stroke="black" points="1157,-67.5 1157,-97.5 1279,-97.5 1279,-67.5 1157,-67.5"/>
<text text-anchor="start" x="1165" y="-85.5" font-family="Helvetica,sans-Serif" font-size="10.00">test/wld_hostapd/test</text>
<text text-anchor="middle" x="1218" y="-74.5" font-family="Helvetica,sans-Serif" font-size="10.00">_wld_hostapd.c</text>
</a>
</g>
</g>
<!-- Node1&#45;&gt;Node14 -->
<g id="edge18" class="edge">
<title>Node1&#45;&gt;Node14</title>
<path fill="none" stroke="midnightblue" d="M907.73,-137.1C972.4,-127.47 1066.32,-112.92 1148,-98 1150.93,-97.46 1153.93,-96.9 1156.95,-96.32"/>
<polygon fill="midnightblue" stroke="midnightblue" points="906.99,-133.67 897.61,-138.6 908.01,-140.59 906.99,-133.67"/>
</g>
<!-- Node3 -->
<g id="node3" class="node">
<title>Node3</title>
<g id="a_node3"><a xlink:href="wifiGen__eventHandlers_8c.html" target="_top" xlink:title=" ">
<polygon fill="white" stroke="black" points="400,-0.5 400,-30.5 504,-30.5 504,-0.5 400,-0.5"/>
<text text-anchor="start" x="408" y="-18.5" font-family="Helvetica,sans-Serif" font-size="10.00">src/Plugin/wifiGen</text>
<text text-anchor="middle" x="452" y="-7.5" font-family="Helvetica,sans-Serif" font-size="10.00">_eventHandlers.c</text>
</a>
</g>
</g>
<!-- Node2&#45;&gt;Node3 -->
<g id="edge2" class="edge">
<title>Node2&#45;&gt;Node3</title>
<path fill="none" stroke="midnightblue" d="M572.49,-63.68C545.87,-53.26 512.73,-40.28 487.95,-30.58"/>
<polygon fill="midnightblue" stroke="midnightblue" points="571.39,-67.01 581.98,-67.4 573.95,-60.49 571.39,-67.01"/>
</g>
<!-- Node2&#45;&gt;Node4 -->
<g id="edge3" class="edge">
<title>Node2&#45;&gt;Node4</title>
<path fill="none" stroke="midnightblue" d="M550.99,-77.66C453.92,-71.45 268.73,-57.17 113,-31 110.1,-30.51 107.14,-29.97 104.15,-29.38"/>
<polygon fill="midnightblue" stroke="midnightblue" points="551.05,-81.17 561.25,-78.31 551.49,-74.18 551.05,-81.17"/>
</g>
<!-- Node2&#45;&gt;Node5 -->
<g id="edge4" class="edge">
<title>Node2&#45;&gt;Node5</title>
<path fill="none" stroke="midnightblue" d="M551.26,-74.79C474.58,-66.6 345.15,-51.3 235,-31 232.11,-30.47 229.15,-29.89 226.17,-29.27"/>
<polygon fill="midnightblue" stroke="midnightblue" points="550.94,-78.28 561.26,-75.85 551.68,-71.32 550.94,-78.28"/>
</g>
<!-- Node6 -->
<g id="node6" class="node">
<title>Node6</title>
<g id="a_node6"><a xlink:href="wifiGen__mld_8c.html" target="_top" xlink:title=" ">
<polygon fill="white" stroke="black" points="522,-0.5 522,-30.5 626,-30.5 626,-0.5 522,-0.5"/>
<text text-anchor="start" x="530" y="-18.5" font-family="Helvetica,sans-Serif" font-size="10.00">src/Plugin/wifiGen</text>
<text text-anchor="middle" x="574" y="-7.5" font-family="Helvetica,sans-Serif" font-size="10.00">_mld.c</text>
</a>
</g>
</g>
<!-- Node2&#45;&gt;Node6 -->
<g id="edge5" class="edge">
<title>Node2&#45;&gt;Node6</title>
<path fill="none" stroke="midnightblue" d="M602.68,-58.87C596.31,-49.46 589.12,-38.83 583.53,-30.58"/>
<polygon fill="midnightblue" stroke="midnightblue" points="599.95,-61.08 608.45,-67.4 605.75,-57.15 599.95,-61.08"/>
</g>
<!-- Node7 -->
<g id="node7" class="node">
<title>Node7</title>
<g id="a_node7"><a xlink:href="wifiGen__rad_8c.html" target="_top" xlink:title=" ">
<polygon fill="white" stroke="black" points="644,-0.5 644,-30.5 748,-30.5 748,-0.5 644,-0.5"/>
<text text-anchor="start" x="652" y="-18.5" font-family="Helvetica,sans-Serif" font-size="10.00">src/Plugin/wifiGen</text>
<text text-anchor="middle" x="696" y="-7.5" font-family="Helvetica,sans-Serif" font-size="10.00">_rad.c</text>
</a>
</g>
</g>
<!-- Node2&#45;&gt;Node7 -->
<g id="edge6" class="edge">
<title>Node2&#45;&gt;Node7</title>
<path fill="none" stroke="midnightblue" d="M642.74,-60.88C654.59,-51.01 668.48,-39.43 679.11,-30.58"/>
<polygon fill="midnightblue" stroke="midnightblue" points="640.37,-58.31 634.92,-67.4 644.85,-63.68 640.37,-58.31"/>
</g>
<!-- Node2&#45;&gt;Node8 -->
<g id="edge7" class="edge">
<title>Node2&#45;&gt;Node8</title>
<path fill="none" stroke="midnightblue" d="M674.49,-64.58C709.73,-54.02 754.57,-40.59 787.89,-30.61"/>
<polygon fill="midnightblue" stroke="midnightblue" points="673.39,-61.25 664.82,-67.48 675.4,-67.96 673.39,-61.25"/>
</g>
<!-- Node2&#45;&gt;Node9 -->
<g id="edge8" class="edge">
<title>Node2&#45;&gt;Node9</title>
<path fill="none" stroke="midnightblue" d="M684.67,-70.41C744.5,-60.38 834.68,-45.08 913,-31 915.68,-30.52 918.41,-30.02 921.16,-29.52"/>
<polygon fill="midnightblue" stroke="midnightblue" points="683.89,-66.99 674.6,-72.1 685.04,-73.9 683.89,-66.99"/>
</g>
<!-- Node10 -->
<g id="node10" class="node">
<title>Node10</title>
<g id="a_node10"><a xlink:href="wld__hostapd__cfgManager_8c.html" target="_top" xlink:title=" ">
<polygon fill="white" stroke="black" points="244.5,-0.5 244.5,-30.5 381.5,-30.5 381.5,-0.5 244.5,-0.5"/>
<text text-anchor="start" x="252.5" y="-18.5" font-family="Helvetica,sans-Serif" font-size="10.00">src/nl80211/wld_hostapd</text>
<text text-anchor="middle" x="313" y="-7.5" font-family="Helvetica,sans-Serif" font-size="10.00">_cfgManager.c</text>
</a>
</g>
</g>
<!-- Node2&#45;&gt;Node10 -->
<g id="edge9" class="edge">
<title>Node2&#45;&gt;Node10</title>
<path fill="none" stroke="midnightblue" d="M551.38,-67.3C500.2,-56.4 429.89,-41.41 378.89,-30.54"/>
<polygon fill="midnightblue" stroke="midnightblue" points="550.84,-70.77 561.35,-69.43 552.3,-63.92 550.84,-70.77"/>
</g>
<!-- Node2&#45;&gt;Node11 -->
<g id="edge10" class="edge">
<title>Node2&#45;&gt;Node11</title>
<path fill="none" stroke="midnightblue" d="M684.87,-76.19C773.02,-68.7 932.78,-53.38 1068,-31 1070.89,-30.52 1073.85,-30 1076.83,-29.44"/>
<polygon fill="midnightblue" stroke="midnightblue" points="684.41,-72.72 674.74,-77.05 685,-79.7 684.41,-72.72"/>
</g>
</g>
</svg>
