<?xml version="1.0" encoding="UTF-8" standalone="no"?>
<!DOCTYPE svg PUBLIC "-//W3C//DTD SVG 1.1//EN"
 "http://www.w3.org/Graphics/SVG/1.1/DTD/svg11.dtd">
<!-- Generated by graphviz version 2.43.0 (0)
 -->
<!-- Title: wld_nl80211_getScanResultsPerFreqBand Pages: 1 -->
<svg width="381pt" height="66pt"
 viewBox="0.00 0.00 381.00 66.00" xmlns="http://www.w3.org/2000/svg" xmlns:xlink="http://www.w3.org/1999/xlink">
<g id="graph0" class="graph" transform="scale(1 1) rotate(0) translate(4 62)">
<title>wld_nl80211_getScanResultsPerFreqBand</title>
<polygon fill="white" stroke="transparent" points="-4,4 -4,-62 377,-62 377,4 -4,4"/>
<!-- Node1 -->
<g id="node1" class="node">
<title>Node1</title>
<g id="a_node1"><a xlink:title=" ">
<polygon fill="#bfbfbf" stroke="black" points="215,-14 215,-44 373,-44 373,-14 215,-14"/>
<text text-anchor="start" x="223" y="-32" font-family="Helvetica,sans-Serif" font-size="10.00">wld_nl80211_getScanResults</text>
<text text-anchor="middle" x="294" y="-21" font-family="Helvetica,sans-Serif" font-size="10.00">PerFreqBand</text>
</a>
</g>
</g>
<!-- Node2 -->
<g id="node2" class="node">
<title>Node2</title>
<g id="a_node2"><a xlink:href="wld__nl80211__api_8c.html#a8cd37de8e50f13b774537672ed5e1b41" target="_top" xlink:title=" ">
<polygon fill="white" stroke="black" points="10.5,-38.5 10.5,-57.5 168.5,-57.5 168.5,-38.5 10.5,-38.5"/>
<text text-anchor="middle" x="89.5" y="-45.5" font-family="Helvetica,sans-Serif" font-size="10.00">wld_nl80211_getScanResults</text>
</a>
</g>
</g>
<!-- Node1&#45;&gt;Node2 -->
<g id="edge1" class="edge">
<title>Node1&#45;&gt;Node2</title>
<path fill="none" stroke="midnightblue" d="M204.96,-37.26C192.93,-38.39 180.64,-39.54 168.8,-40.65"/>
<polygon fill="midnightblue" stroke="midnightblue" points="205.37,-40.74 215,-36.32 204.71,-33.77 205.37,-40.74"/>
</g>
<!-- Node3 -->
<g id="node3" class="node">
<title>Node3</title>
<g id="a_node3"><a xlink:href="wld__nl80211__scan_8c.html#a8967a19d50717941a75e62b92784c69d" target="_top" xlink:title=" ">
<polygon fill="white" stroke="black" points="0,-0.5 0,-19.5 179,-19.5 179,-0.5 0,-0.5"/>
<text text-anchor="middle" x="89.5" y="-7.5" font-family="Helvetica,sans-Serif" font-size="10.00">wld_rad_nl80211_getScanResults</text>
</a>
</g>
</g>
<!-- Node1&#45;&gt;Node3 -->
<g id="edge2" class="edge">
<title>Node1&#45;&gt;Node3</title>
<path fill="none" stroke="midnightblue" d="M205.04,-20.75C196.49,-19.94 187.82,-19.13 179.26,-18.33"/>
<polygon fill="midnightblue" stroke="midnightblue" points="204.71,-24.23 215,-21.68 205.37,-17.26 204.71,-24.23"/>
</g>
</g>
</svg>
