<?xml version="1.0" encoding="UTF-8" standalone="no"?>
<!DOCTYPE svg PUBLIC "-//W3C//DTD SVG 1.1//EN"
 "http://www.w3.org/Graphics/SVG/1.1/DTD/svg11.dtd">
<!-- Generated by graphviz version 2.43.0 (0)
 -->
<!-- Title: wld_chanmgt_writeDfsChannels Pages: 1 -->
<svg width="509pt" height="78pt"
 viewBox="0.00 0.00 509.00 77.50" xmlns="http://www.w3.org/2000/svg" xmlns:xlink="http://www.w3.org/1999/xlink">
<g id="graph0" class="graph" transform="scale(1 1) rotate(0) translate(4 73.5)">
<title>wld_chanmgt_writeDfsChannels</title>
<polygon fill="white" stroke="transparent" points="-4,4 -4,-73.5 505,-73.5 505,4 -4,4"/>
<!-- Node1 -->
<g id="node1" class="node">
<title>Node1</title>
<g id="a_node1"><a xlink:title=" ">
<polygon fill="#bfbfbf" stroke="black" points="328,-28 328,-47 501,-47 501,-28 328,-28"/>
<text text-anchor="middle" x="414.5" y="-35" font-family="Helvetica,sans-Serif" font-size="10.00">wld_chanmgt_writeDfsChannels</text>
</a>
</g>
</g>
<!-- Node2 -->
<g id="node2" class="node">
<title>Node2</title>
<g id="a_node2"><a xlink:href="wifiGen__rad_8c.html#a5971e495b5dfe5dc615d5c1c050faa87" target="_top" xlink:title=" ">
<polygon fill="white" stroke="black" points="167,-50 167,-69 292,-69 292,-50 167,-50"/>
<text text-anchor="middle" x="229.5" y="-57" font-family="Helvetica,sans-Serif" font-size="10.00">wifiGen_rad_poschans</text>
</a>
</g>
</g>
<!-- Node1&#45;&gt;Node2 -->
<g id="edge1" class="edge">
<title>Node1&#45;&gt;Node2</title>
<path fill="none" stroke="midnightblue" d="M324.33,-48.22C313.45,-49.53 302.52,-50.84 292.17,-52.09"/>
<polygon fill="midnightblue" stroke="midnightblue" points="324.79,-51.69 334.3,-47.02 323.95,-44.74 324.79,-51.69"/>
</g>
<!-- Node3 -->
<g id="node3" class="node">
<title>Node3</title>
<g id="a_node3"><a xlink:href="wld__th__radio_8c.html#a618f370c3b2744ff2d1c610a457f4442" target="_top" xlink:title=" ">
<polygon fill="white" stroke="black" points="168.5,-0.5 168.5,-30.5 290.5,-30.5 290.5,-0.5 168.5,-0.5"/>
<text text-anchor="start" x="176.5" y="-18.5" font-family="Helvetica,sans-Serif" font-size="10.00">wld_th_rad_vendorCb</text>
<text text-anchor="middle" x="229.5" y="-7.5" font-family="Helvetica,sans-Serif" font-size="10.00">_poschans</text>
</a>
</g>
</g>
<!-- Node1&#45;&gt;Node3 -->
<g id="edge2" class="edge">
<title>Node1&#45;&gt;Node3</title>
<path fill="none" stroke="midnightblue" d="M324.27,-26.77C312.82,-25.4 301.33,-24.02 290.51,-22.71"/>
<polygon fill="midnightblue" stroke="midnightblue" points="323.95,-30.26 334.3,-27.98 324.79,-23.31 323.95,-30.26"/>
</g>
<!-- Node4 -->
<g id="node4" class="node">
<title>Node4</title>
<g id="a_node4"><a xlink:href="wld__th__radio_8c.html#a17ad76a586d7cddb7ae94b5dfd6fe294" target="_top" xlink:title=" ">
<polygon fill="white" stroke="black" points="0,-0.5 0,-30.5 131,-30.5 131,-0.5 0,-0.5"/>
<text text-anchor="start" x="8" y="-18.5" font-family="Helvetica,sans-Serif" font-size="10.00">wld_th_radio_vendorCb</text>
<text text-anchor="middle" x="65.5" y="-7.5" font-family="Helvetica,sans-Serif" font-size="10.00">_supports</text>
</a>
</g>
</g>
<!-- Node3&#45;&gt;Node4 -->
<g id="edge3" class="edge">
<title>Node3&#45;&gt;Node4</title>
<path fill="none" stroke="midnightblue" d="M158.17,-15.5C149.21,-15.5 140.08,-15.5 131.22,-15.5"/>
<polygon fill="midnightblue" stroke="midnightblue" points="158.18,-19 168.18,-15.5 158.18,-12 158.18,-19"/>
</g>
</g>
</svg>
